<svg xmlns="http://www.w3.org/2000/svg" xmlns:xlink="http://www.w3.org/1999/xlink" width="276.006" height="172.529" viewBox="0 0 276.006 172.529">
  <defs>
    <linearGradient id="linear-gradient" x1="1.703" y1="0.525" x2="0.272" y2="0.495" gradientUnits="objectBoundingBox">
      <stop offset="0" stop-color="#dae3fe"/>
      <stop offset="1" stop-color="#e9effd"/>
    </linearGradient>
    <linearGradient id="linear-gradient-2" x1="0.899" y1="-1.341" x2="-0.156" y2="3.524" gradientUnits="objectBoundingBox">
      <stop offset="0" stop-color="#fe2f1d"/>
      <stop offset="1" stop-color="#ff6575"/>
    </linearGradient>
    <linearGradient id="linear-gradient-3" x1="0" y1="0.5" x2="1" y2="0.5" xlink:href="#linear-gradient-2"/>
    <linearGradient id="linear-gradient-4" y1="0.5" x2="1" y2="0.5" gradientUnits="objectBoundingBox">
      <stop offset="0" stop-color="#4042e2"/>
      <stop offset="1" stop-color="#4f52ff"/>
    </linearGradient>
    <linearGradient id="linear-gradient-6" x1="-0.257" y1="1.35" x2="0.781" y2="0.2" xlink:href="#linear-gradient-4"/>
    <linearGradient id="linear-gradient-7" x1="0" y1="0.5" x2="1" y2="0.5" xlink:href="#linear-gradient"/>
    <linearGradient id="linear-gradient-11" x1="-0.076" y1="1.031" x2="0.732" y2="0.196" gradientUnits="objectBoundingBox">
      <stop offset="0" stop-color="#09005d"/>
      <stop offset="1" stop-color="#1a0f91"/>
    </linearGradient>
    <linearGradient id="linear-gradient-12" x1="0.357" y1="0.146" x2="1.041" y2="1.261" xlink:href="#linear-gradient-4"/>
    <linearGradient id="linear-gradient-13" x1="4.912" y1="-0.113" x2="0.061" y2="0.561" xlink:href="#linear-gradient-11"/>
    <linearGradient id="linear-gradient-14" x1="1.65" y1="0.446" x2="-0.101" y2="0.528" xlink:href="#linear-gradient-4"/>
    <clipPath id="clip-path">
      <path id="Trazado_100735" data-name="Trazado 100735" d="M1285.916,407.733c-1.127-1.146-3.583-5.569-5.688-17-2.035-11.051-3.155-25.385-3.155-40.361s1.12-29.31,3.155-40.361c2.1-11.435,4.56-15.858,5.688-17,1.127,1.146,3.583,5.569,5.688,17,2.035,11.051,18.089,25.385,18.089,40.361s-16.054,29.31-18.089,40.361C1289.5,402.164,1287.043,406.587,1285.916,407.733Z" transform="translate(-1277.073 -293.003)" fill="none"/>
    </clipPath>
    <linearGradient id="linear-gradient-15" x1="1.279" y1="-0.542" x2="0.243" y2="0.874" xlink:href="#linear-gradient-2"/>
    <linearGradient id="linear-gradient-16" x1="0.525" y1="0.934" x2="0.436" y2="-0.664" xlink:href="#linear-gradient-11"/>
    <linearGradient id="linear-gradient-17" x1="0.94" y1="-0.484" x2="-1.895" y2="6.012" xlink:href="#linear-gradient-4"/>
    <linearGradient id="linear-gradient-18" y1="0.5" x2="1" y2="0.5" gradientUnits="objectBoundingBox">
      <stop offset="0" stop-color="#ff6575"/>
      <stop offset="1" stop-color="#fea4b6"/>
    </linearGradient>
    <linearGradient id="linear-gradient-19" x1="0" y1="0.5" x2="1" y2="0.5" xlink:href="#linear-gradient-11"/>
    <linearGradient id="linear-gradient-20" x1="3.08" y1="-2.223" x2="-3.938" y2="5.384" xlink:href="#linear-gradient-4"/>
    <linearGradient id="linear-gradient-23" x1="0.315" y1="0.57" x2="-0.33" y2="1.875" xlink:href="#linear-gradient-2"/>
    <linearGradient id="linear-gradient-24" x1="1.262" y1="-0.582" x2="-0.056" y2="1.161" xlink:href="#linear-gradient-18"/>
    <linearGradient id="linear-gradient-25" x1="140.683" y1="95.567" x2="136.755" y2="99.151" xlink:href="#linear-gradient-18"/>
    <linearGradient id="linear-gradient-26" x1="2.151" y1="-3.646" x2="-0.114" y2="1.878" xlink:href="#linear-gradient-18"/>
    <linearGradient id="linear-gradient-27" x1="0.441" y1="0.823" x2="-1.178" y2="4.159" xlink:href="#linear-gradient-2"/>
    <linearGradient id="linear-gradient-29" x1="0.932" y1="-3.497" x2="0.359" y2="1.805" xlink:href="#linear-gradient-4"/>
    <linearGradient id="linear-gradient-30" x1="0.605" y1="-1.235" x2="0.461" y2="1.146" xlink:href="#linear-gradient-4"/>
    <linearGradient id="linear-gradient-32" x1="0.688" y1="-0.083" x2="0.161" y2="1.908" xlink:href="#linear-gradient-18"/>
    <linearGradient id="linear-gradient-33" x1="0.301" y1="-0.824" x2="0.517" y2="0.591" xlink:href="#linear-gradient-18"/>
    <linearGradient id="linear-gradient-34" x1="-78.035" y1="-35.924" x2="-77.83" y2="-34.745" xlink:href="#linear-gradient-4"/>
    <linearGradient id="linear-gradient-35" x1="-0.2" y1="-6.192" x2="0.503" y2="0.668" xlink:href="#linear-gradient-18"/>
    <linearGradient id="linear-gradient-38" x1="0.143" y1="-0.646" x2="1.217" y2="2.77" xlink:href="#linear-gradient-2"/>
    <linearGradient id="linear-gradient-39" x1="0.177" y1="-0.056" x2="0.786" y2="0.905" xlink:href="#linear-gradient-11"/>
    <linearGradient id="linear-gradient-40" x1="-14.376" y1="-0.845" x2="-14.72" y2="1.374" xlink:href="#linear-gradient-18"/>
    <linearGradient id="linear-gradient-41" x1="35.229" y1="-0.994" x2="35.058" y2="-4.098" gradientUnits="objectBoundingBox">
      <stop offset="0" stop-color="#cb236d"/>
      <stop offset="1" stop-color="#4c246d"/>
    </linearGradient>
    <linearGradient id="linear-gradient-42" x1="0.208" y1="0.223" x2="1.195" y2="1.8" xlink:href="#linear-gradient-18"/>
    <linearGradient id="linear-gradient-43" x1="-100.938" y1="-71.682" x2="-101.92" y2="-70.918" xlink:href="#linear-gradient-18"/>
    <linearGradient id="linear-gradient-44" x1="0.04" y1="-0.351" x2="2.979" y2="5.554" xlink:href="#linear-gradient-11"/>
    <linearGradient id="linear-gradient-45" x1="-292.968" y1="-237.876" x2="-295.803" y2="-235.341" xlink:href="#linear-gradient-18"/>
    <linearGradient id="linear-gradient-46" x1="0.498" y1="0.518" x2="0.112" y2="1.145" xlink:href="#linear-gradient-18"/>
    <linearGradient id="linear-gradient-47" x1="70.398" y1="0.477" x2="71.393" y2="0.477" xlink:href="#linear-gradient-11"/>
    <linearGradient id="linear-gradient-48" x1="0.835" y1="-0.35" x2="0.45" y2="0.616" xlink:href="#linear-gradient-18"/>
    <linearGradient id="linear-gradient-49" x1="60.607" y1="0.477" x2="61.6" y2="0.477" xlink:href="#linear-gradient-11"/>
    <linearGradient id="linear-gradient-50" x1="27.149" y1="-0.04" x2="26.117" y2="1.58" xlink:href="#linear-gradient-11"/>
    <linearGradient id="linear-gradient-51" x1="0.928" y1="-0.439" x2="0.325" y2="0.898" xlink:href="#linear-gradient-18"/>
    <linearGradient id="linear-gradient-52" x1="-217.181" y1="-9.94" x2="-217.596" y2="-9.53" gradientUnits="objectBoundingBox">
      <stop offset="0" stop-color="#2b3582"/>
      <stop offset="1" stop-color="#150e42"/>
    </linearGradient>
    <linearGradient id="linear-gradient-53" x1="-49.719" y1="-0.446" x2="-50.371" y2="1.215" xlink:href="#linear-gradient-18"/>
    <linearGradient id="linear-gradient-55" x1="-30.811" y1="5.021" x2="-30.751" y2="2.613" xlink:href="#linear-gradient-4"/>
    <linearGradient id="linear-gradient-56" x1="-28.848" y1="-12.946" x2="-32.546" y2="11.134" xlink:href="#linear-gradient-11"/>
    <linearGradient id="linear-gradient-57" x1="104.683" y1="-0.843" x2="104.177" y2="2.39" xlink:href="#linear-gradient-18"/>
    <linearGradient id="linear-gradient-58" x1="30.123" y1="-5.387" x2="27.607" y2="17.68" xlink:href="#linear-gradient-11"/>
    <linearGradient id="linear-gradient-59" x1="29.526" y1="7.019" x2="29.568" y2="4.399" xlink:href="#linear-gradient-4"/>
    <linearGradient id="linear-gradient-60" x1="113.589" y1="-0.223" x2="113.074" y2="2.539" xlink:href="#linear-gradient-18"/>
    <linearGradient id="linear-gradient-61" x1="0.492" y1="0.914" x2="0.577" y2="-0.171" xlink:href="#linear-gradient-11"/>
    <linearGradient id="linear-gradient-62" x1="0.506" y1="-0.045" x2="0.425" y2="1.171" xlink:href="#linear-gradient-4"/>
    <linearGradient id="linear-gradient-63" x1="0.51" y1="0.027" x2="0.497" y2="1.151" xlink:href="#linear-gradient-18"/>
    <linearGradient id="linear-gradient-64" x1="0.604" y1="-0.093" x2="0.442" y2="1.26" xlink:href="#linear-gradient-4"/>
    <linearGradient id="linear-gradient-65" x1="0.945" y1="-0.15" x2="-0.809" y2="2.993" gradientUnits="objectBoundingBox">
      <stop offset="0" stop-color="#f9b776"/>
      <stop offset="1" stop-color="#f49e90"/>
    </linearGradient>
    <linearGradient id="linear-gradient-66" x1="0.6" y1="-0.075" x2="0.435" y2="1.309" xlink:href="#linear-gradient-4"/>
    <linearGradient id="linear-gradient-67" x1="0.205" y1="0.019" x2="1.191" y2="2.089" xlink:href="#linear-gradient-65"/>
    <linearGradient id="linear-gradient-68" x1="1.06" y1="0.115" x2="0.164" y2="0.8" xlink:href="#linear-gradient-18"/>
    <linearGradient id="linear-gradient-69" x1="-29.973" y1="-12.667" x2="-29.066" y2="-12.667" xlink:href="#linear-gradient-11"/>
    <linearGradient id="linear-gradient-70" x1="-123.781" y1="-64.405" x2="-121.324" y2="-67.053" xlink:href="#linear-gradient-18"/>
    <linearGradient id="linear-gradient-72" x1="-293.61" y1="0.5" x2="-292.61" y2="0.5" xlink:href="#linear-gradient-18"/>
  </defs>
  <g id="Grupo_53856" data-name="Grupo 53856" transform="translate(-133.515 -134.908)">
    <path id="Trazado_100695" data-name="Trazado 100695" d="M213.169,296.751c30.295.983,63.078-4.456,90.569.7,20.153,3.782,42.748,9.2,63.25,4.159,21.178-5.2,47.861-23.137,41.606-48.41-2.057-8.31-9.815-11.159-14.4-17.55-5.846-8.157-3.919-16.283-.881-25.278,5.032-14.9,12.795-33.642,6.412-49.2-6.817-16.611-27.482-12.2-40.4-6.518-17.238,7.579-32.558,24.672-53.132,18.954-14.583-4.053-26.72-14.583-39.286-22.469-19.235-12.071-80.24-24.007-101.3-9.729-23.1,15.659,16.741,31.531-8.188,45.866-18,10.349-27.568,38.2-22.607,64.295C141.128,284.75,184.817,295.832,213.169,296.751Z" fill="url(#linear-gradient)"/>
    <g id="Grupo_53724" data-name="Grupo 53724" transform="translate(143.194 161.989)">
      <path id="Trazado_100696" data-name="Trazado 100696" d="M222.423,354.086H212.21a1.27,1.27,0,0,1-1.27-1.27h0a1.27,1.27,0,0,1,1.27-1.27h10.213a1.27,1.27,0,0,1,1.27,1.27h0A1.27,1.27,0,0,1,222.423,354.086Z" transform="translate(-210.94 -351.546)" fill="#bdd0fb"/>
      <path id="Trazado_100697" data-name="Trazado 100697" d="M374.4,354.086H341.577a1.27,1.27,0,0,1-1.27-1.27h0a1.27,1.27,0,0,1,1.27-1.27H374.4a1.27,1.27,0,0,1,1.27,1.27h0A1.27,1.27,0,0,1,374.4,354.086Z" transform="translate(-324.136 -351.546)" fill="#bdd0fb"/>
      <path id="Trazado_100698" data-name="Trazado 100698" d="M405.956,393.889H373.13a1.27,1.27,0,0,1-1.27-1.27h0a1.27,1.27,0,0,1,1.27-1.27h32.826a1.27,1.27,0,0,1,1.27,1.27h0A1.27,1.27,0,0,1,405.956,393.889Z" transform="translate(-351.744 -386.373)" fill="#bdd0fb"/>
      <path id="Trazado_100699" data-name="Trazado 100699" d="M396.622,473.5H373.13a1.27,1.27,0,0,1-1.27-1.27h0a1.27,1.27,0,0,1,1.27-1.27h23.492a1.27,1.27,0,0,1,1.27,1.27h0A1.27,1.27,0,0,1,396.622,473.5Z" transform="translate(-351.744 -456.03)" fill="#bdd0fb"/>
      <path id="Trazado_100700" data-name="Trazado 100700" d="M435.405,433.693H402.579a1.27,1.27,0,0,1-1.27-1.27h0a1.27,1.27,0,0,1,1.27-1.27h32.826a1.27,1.27,0,0,1,1.27,1.27h0A1.27,1.27,0,0,1,435.405,433.693Z" transform="translate(-377.512 -421.202)" fill="#bdd0fb"/>
    </g>
    <g id="Grupo_53725" data-name="Grupo 53725" transform="translate(330.006 262.85)">
      <path id="Trazado_100701" data-name="Trazado 100701" d="M1716.868,1160.953h-10.212a1.27,1.27,0,0,1-1.27-1.27h0a1.27,1.27,0,0,1,1.27-1.27h10.212a1.27,1.27,0,0,1,1.27,1.27h0A1.27,1.27,0,0,1,1716.868,1160.953Z" transform="translate(-1705.385 -1158.413)" fill="#bdd0fb"/>
      <path id="Trazado_100702" data-name="Trazado 100702" d="M1868.848,1160.953h-32.826a1.27,1.27,0,0,1-1.27-1.27h0a1.27,1.27,0,0,1,1.27-1.27h32.826a1.27,1.27,0,0,1,1.27,1.27h0A1.27,1.27,0,0,1,1868.848,1160.953Z" transform="translate(-1818.58 -1158.413)" fill="#bdd0fb"/>
      <path id="Trazado_100703" data-name="Trazado 100703" d="M1900.4,1200.757h-32.826a1.27,1.27,0,0,1-1.27-1.27h0a1.27,1.27,0,0,1,1.27-1.27H1900.4a1.27,1.27,0,0,1,1.27,1.27h0A1.27,1.27,0,0,1,1900.4,1200.757Z" transform="translate(-1846.189 -1193.241)" fill="#bdd0fb"/>
      <path id="Trazado_100704" data-name="Trazado 100704" d="M1891.067,1280.364h-23.491a1.27,1.27,0,0,1-1.27-1.27h0a1.27,1.27,0,0,1,1.27-1.27h23.491a1.27,1.27,0,0,1,1.27,1.27h0A1.27,1.27,0,0,1,1891.067,1280.364Z" transform="translate(-1846.189 -1262.897)" fill="#bdd0fb"/>
      <path id="Trazado_100705" data-name="Trazado 100705" d="M1929.85,1240.561h-32.826a1.27,1.27,0,0,1-1.27-1.27h0a1.27,1.27,0,0,1,1.27-1.27h32.826a1.27,1.27,0,0,1,1.27,1.27h0A1.27,1.27,0,0,1,1929.85,1240.561Z" transform="translate(-1871.957 -1228.069)" fill="#bdd0fb"/>
    </g>
    <path id="Trazado_100706" data-name="Trazado 100706" d="M1549.011,378.134v4.814a1.071,1.071,0,0,0,1.021,1.07l6.02.283a1.071,1.071,0,0,0,1.121-1.07v-5.1a1.071,1.071,0,0,0-1.071-1.071h-6.02A1.071,1.071,0,0,0,1549.011,378.134Z" transform="translate(-1238.553 -211.885)" fill="url(#linear-gradient-2)"/>
    <path id="Trazado_100707" data-name="Trazado 100707" d="M1875.8,710.761v3.825a.851.851,0,0,0,.811.85l4.783.225a.851.851,0,0,0,.891-.85v-4.05a.851.851,0,0,0-.851-.851h-4.783A.851.851,0,0,0,1875.8,710.761Z" transform="translate(-1524.489 -503.124)" fill="url(#linear-gradient-3)"/>
    <path id="Trazado_100708" data-name="Trazado 100708" d="M2022.893,275.964v3.392a.755.755,0,0,0,.719.754l4.241.2a.755.755,0,0,0,.79-.754v-3.591a.755.755,0,0,0-.755-.755h-4.241A.755.755,0,0,0,2022.893,275.964Z" transform="translate(-1653.198 -122.763)" fill="url(#linear-gradient-4)"/>
    <path id="Trazado_100709" data-name="Trazado 100709" d="M1950.485,931.925v2.2a.49.49,0,0,0,.467.489l2.753.129a.49.49,0,0,0,.513-.489v-2.331a.49.49,0,0,0-.49-.49h-2.753A.49.49,0,0,0,1950.485,931.925Z" transform="translate(-1589.841 -696.958)" fill="#7d97f4"/>
    <g id="Grupo_53735" data-name="Grupo 53735" transform="translate(367.999 206.462)">
      <path id="Trazado_100710" data-name="Trazado 100710" d="M2009.565,708.991l-.241,14.935a1.693,1.693,0,0,0,1.693,1.72h17.195a1.693,1.693,0,0,0,1.693-1.693V709.018a1.693,1.693,0,0,0-1.693-1.693h-16.954A1.693,1.693,0,0,0,2009.565,708.991Z" transform="translate(-2009.323 -707.325)" fill="url(#linear-gradient-4)"/>
      <g id="Grupo_53734" data-name="Grupo 53734" transform="translate(2.598 1.616)" opacity="0.73">
        <path id="Trazado_100711" data-name="Trazado 100711" d="M2037.868,734.649c-.124,0-.247,0-.371-.008a7.475,7.475,0,0,1-7.38-7.531,6.921,6.921,0,0,1,2.49-5,7.94,7.94,0,0,1,5.52-1.854,7.475,7.475,0,0,1,7.381,7.531h0a6.922,6.922,0,0,1-2.49,5A7.906,7.906,0,0,1,2037.868,734.649Zm-.112-13.385a6.893,6.893,0,0,0-4.491,1.62,5.916,5.916,0,0,0-2.134,4.27,6.461,6.461,0,0,0,6.411,6.473,6.929,6.929,0,0,0,4.817-1.614,5.916,5.916,0,0,0,2.134-4.27,6.461,6.461,0,0,0-6.411-6.473C2037.973,721.266,2037.864,721.264,2037.755,721.264Z" transform="translate(-2030.11 -720.249)" fill="#fff"/>
        <g id="Grupo_53733" data-name="Grupo 53733" transform="translate(0.986 0.51)">
          <g id="Grupo_53726" data-name="Grupo 53726" transform="translate(4.7 0.036)">
            <path id="Trazado_100712" data-name="Trazado 100712" d="M2080.648,732.509a20.245,20.245,0,0,1-.29,3.526c-.052.291-.113.58-.186.866a8.33,8.33,0,0,1-.259.848,4.035,4.035,0,0,1-.387.8,1.6,1.6,0,0,1-.29.34.821.821,0,0,1-.19.123.568.568,0,0,1-.222.052.558.558,0,0,1-.224-.041.772.772,0,0,1-.195-.116,1.5,1.5,0,0,1-.3-.335,3.858,3.858,0,0,1-.392-.8,8.164,8.164,0,0,1-.262-.847c-.073-.286-.135-.575-.187-.866-.106-.581-.178-1.168-.226-1.756s-.073-1.179-.075-1.769c0-.3.006-.59.017-.885s.028-.59.049-.884c.044-.589.108-1.176.205-1.759.049-.291.1-.581.173-.868a8.514,8.514,0,0,1,.246-.851c.05-.139.1-.277.165-.412a3.014,3.014,0,0,1,.211-.391,1.452,1.452,0,0,1,.29-.337.736.736,0,0,1,.192-.115.54.54,0,0,1,.221-.039.584.584,0,0,1,.218.051.846.846,0,0,1,.189.119,1.62,1.62,0,0,1,.3.331,3.99,3.99,0,0,1,.406.787,8.016,8.016,0,0,1,.279.841c.078.285.145.573.2.862A18.594,18.594,0,0,1,2080.648,732.509Zm-.087,0c0-.588-.021-1.176-.07-1.762a16.977,16.977,0,0,0-.229-1.748c-.054-.289-.117-.576-.192-.86a8.1,8.1,0,0,0-.268-.839,3.972,3.972,0,0,0-.394-.784,1.594,1.594,0,0,0-.287-.327.83.83,0,0,0-.182-.117.54.54,0,0,0-.208-.051.508.508,0,0,0-.209.039.71.71,0,0,0-.183.113,1.416,1.416,0,0,0-.28.332,2.948,2.948,0,0,0-.2.388c-.06.134-.112.271-.159.41a8.337,8.337,0,0,0-.235.849c-.064.287-.118.576-.163.867-.09.581-.148,1.167-.185,1.754s-.05,1.175-.049,1.764.018,1.176.062,1.763.111,1.171.212,1.75c.051.289.109.577.18.863a8.126,8.126,0,0,0,.253.842,3.835,3.835,0,0,0,.381.788,1.472,1.472,0,0,0,.283.326.728.728,0,0,0,.182.11.5.5,0,0,0,.205.039.521.521,0,0,0,.2-.05.776.776,0,0,0,.178-.117,1.54,1.54,0,0,0,.278-.331,3.98,3.98,0,0,0,.375-.791,8.467,8.467,0,0,0,.25-.843c.07-.285.128-.573.178-.863.1-.579.166-1.164.21-1.75S2080.561,733.1,2080.561,732.509Z" transform="translate(-2076.794 -725.823)" fill="#fff"/>
            <path id="Trazado_100713" data-name="Trazado 100713" d="M2077.608,738.033a.737.737,0,0,1-.272-.054.938.938,0,0,1-.237-.141,1.642,1.642,0,0,1-.332-.372,4.007,4.007,0,0,1-.411-.832,8.193,8.193,0,0,1-.268-.865c-.071-.276-.133-.563-.191-.878-.1-.557-.176-1.137-.228-1.773-.047-.578-.073-1.178-.076-1.783,0-.316.008-.628.017-.892.012-.3.028-.6.05-.891.047-.64.115-1.22.207-1.774.052-.316.11-.6.175-.88a8.542,8.542,0,0,1,.251-.868c.056-.158.112-.3.171-.426a3.209,3.209,0,0,1,.223-.413,1.609,1.609,0,0,1,.326-.376.913.913,0,0,1,.237-.142.714.714,0,0,1,.29-.051.748.748,0,0,1,.281.066,1.013,1.013,0,0,1,.228.142,1.744,1.744,0,0,1,.329.366,4.1,4.1,0,0,1,.425.821,8.034,8.034,0,0,1,.285.859c.077.277.144.563.205.875a18.6,18.6,0,0,1,.327,3.556h0a20.33,20.33,0,0,1-.292,3.556c-.057.314-.118.6-.188.879a8.528,8.528,0,0,1-.265.866,4.172,4.172,0,0,1-.4.833,1.725,1.725,0,0,1-.323.377,1,1,0,0,1-.23.148.736.736,0,0,1-.289.068Zm-.089-13.043a.34.34,0,0,0-.13.027.54.54,0,0,0-.139.087,1.244,1.244,0,0,0-.245.292,2.82,2.82,0,0,0-.192.365c-.053.119-.1.248-.154.4a8.108,8.108,0,0,0-.23.831c-.06.269-.113.548-.16.855-.084.544-.144,1.112-.184,1.738-.033.535-.05,1.108-.049,1.752,0,.595.019,1.183.061,1.75.046.622.115,1.19.21,1.734.053.3.111.583.177.851a7.812,7.812,0,0,0,.248.824,3.659,3.659,0,0,0,.362.752,1.26,1.26,0,0,0,.249.287.554.554,0,0,0,.138.085.363.363,0,0,0,.135.027.351.351,0,0,0,.137-.034.609.609,0,0,0,.138-.092,1.348,1.348,0,0,0,.246-.295,3.735,3.735,0,0,0,.357-.756,7.989,7.989,0,0,0,.245-.825c.065-.267.123-.545.176-.851.093-.539.161-1.107.208-1.734.043-.566.065-1.154.064-1.75h0c0-.593-.022-1.181-.069-1.748a16.761,16.761,0,0,0-.227-1.731c-.057-.3-.118-.579-.189-.848a7.888,7.888,0,0,0-.262-.82,3.738,3.738,0,0,0-.375-.749,1.41,1.41,0,0,0-.254-.292.655.655,0,0,0-.144-.093.366.366,0,0,0-.141-.035Z" transform="translate(-2075.594 -724.62)" fill="#fff"/>
          </g>
          <g id="Grupo_53727" data-name="Grupo 53727" transform="translate(1.354)">
            <path id="Trazado_100714" data-name="Trazado 100714" d="M2060.2,732.256a8.63,8.63,0,0,1-.3,2.253,7.25,7.25,0,0,1-.939,2.066,5.943,5.943,0,0,1-.717.882,5.027,5.027,0,0,1-.883.714,4.24,4.24,0,0,1-1.03.473,3.839,3.839,0,0,1-2.24,0,4.242,4.242,0,0,1-1.031-.472,5.018,5.018,0,0,1-.884-.713,5.969,5.969,0,0,1-.719-.882,7.283,7.283,0,0,1-.941-2.067,8.214,8.214,0,0,1-.228-1.117,8.442,8.442,0,0,1,0-2.276,8.284,8.284,0,0,1,.229-1.117,7.278,7.278,0,0,1,.943-2.066,5.937,5.937,0,0,1,.719-.881,5.012,5.012,0,0,1,.884-.712,4.256,4.256,0,0,1,1.03-.47,3.813,3.813,0,0,1,2.237,0,4.24,4.24,0,0,1,1.029.471,5.008,5.008,0,0,1,.883.712,5.956,5.956,0,0,1,.717.881,7.266,7.266,0,0,1,.94,2.065A8.628,8.628,0,0,1,2060.2,732.256Zm-.1,0a8.533,8.533,0,0,0-.292-2.229,7.228,7.228,0,0,0-.909-2.052,5.869,5.869,0,0,0-.7-.879,4.913,4.913,0,0,0-.867-.714,4.184,4.184,0,0,0-1.017-.472,3.717,3.717,0,0,0-2.214,0,4.173,4.173,0,0,0-1.016.473,4.893,4.893,0,0,0-.866.714,5.883,5.883,0,0,0-.7.879,7.214,7.214,0,0,0-.907,2.051,8.242,8.242,0,0,0-.218,1.1,8.948,8.948,0,0,0-.073,1.123,8.856,8.856,0,0,0,.074,1.123,8.2,8.2,0,0,0,.219,1.1,7.232,7.232,0,0,0,.908,2.05,5.916,5.916,0,0,0,.7.878,4.89,4.89,0,0,0,.866.713,4.2,4.2,0,0,0,1.016.471,3.691,3.691,0,0,0,2.21,0,4.212,4.212,0,0,0,1.016-.47,4.913,4.913,0,0,0,.867-.713,5.88,5.88,0,0,0,.7-.878,7.226,7.226,0,0,0,.911-2.051A8.53,8.53,0,0,0,2060.1,732.256Z" transform="translate(-2050.033 -725.534)" fill="#fff"/>
            <path id="Trazado_100715" data-name="Trazado 100715" d="M2054.005,737.781a4.042,4.042,0,0,1-1.17-.174,4.411,4.411,0,0,1-1.073-.491,5.223,5.223,0,0,1-.915-.737,6.144,6.144,0,0,1-.74-.907,7.427,7.427,0,0,1-.964-2.116,8.43,8.43,0,0,1-.233-1.141,8.593,8.593,0,0,1,0-2.321,8.459,8.459,0,0,1,.233-1.141,7.427,7.427,0,0,1,.966-2.115,6.11,6.11,0,0,1,.739-.906,5.2,5.2,0,0,1,.914-.736,4.436,4.436,0,0,1,1.072-.489,3.983,3.983,0,0,1,2.335,0,4.435,4.435,0,0,1,1.071.49,5.2,5.2,0,0,1,.913.737,6.132,6.132,0,0,1,.738.906,7.408,7.408,0,0,1,.963,2.114,8.8,8.8,0,0,1,.313,2.3v0a8.787,8.787,0,0,1-.311,2.3,7.415,7.415,0,0,1-.962,2.116,6.112,6.112,0,0,1-.738.907,5.208,5.208,0,0,1-.913.738,4.415,4.415,0,0,1-1.072.492A4.058,4.058,0,0,1,2054.005,737.781Zm0-13.07a3.67,3.67,0,0,0-1.056.161,4.013,4.013,0,0,0-.974.454,4.716,4.716,0,0,0-.835.689,5.753,5.753,0,0,0-.679.854,7.044,7.044,0,0,0-.885,2,8.157,8.157,0,0,0-.213,1.081,8.423,8.423,0,0,0,0,2.2,8.206,8.206,0,0,0,.214,1.081,7.039,7.039,0,0,0,.886,2,5.72,5.72,0,0,0,.679.853,4.738,4.738,0,0,0,.835.688,4.019,4.019,0,0,0,.974.452,3.52,3.52,0,0,0,2.111,0,4.045,4.045,0,0,0,.975-.451,4.726,4.726,0,0,0,.836-.687,5.764,5.764,0,0,0,.68-.852,7.05,7.05,0,0,0,.888-2,8.465,8.465,0,0,0,0-4.366,7.055,7.055,0,0,0-.887-2,5.715,5.715,0,0,0-.68-.853,4.745,4.745,0,0,0-.837-.689,4.01,4.01,0,0,0-.975-.453A3.664,3.664,0,0,0,2054,724.711Z" transform="translate(-2048.833 -724.331)" fill="#fff"/>
          </g>
          <g id="Grupo_53728" data-name="Grupo 53728" transform="translate(0.521 3.931)">
            <path id="Trazado_100716" data-name="Trazado 100716" d="M2043.546,757.183l1.5-.012,1.5-.007,3-.006,3,.006,1.5.008,1.5.013a0,0,0,0,1,0,0s0,0,0,0l-1.5.013-1.5.007-3,.006-3-.006-1.5-.007-1.5-.012a.01.01,0,0,1-.006,0C2043.539,757.186,2043.542,757.183,2043.546,757.183Z" transform="translate(-2043.368 -756.986)" fill="#fff"/>
            <path id="Trazado_100717" data-name="Trazado 100717" d="M2048.345,756.188l-4.5-.012-1.571-.013-.1-.1v-.077l0-.168.173-.007,3-.019,3-.005,4.5.014,1.67.015,0,.347-.176,0-3,.021Z" transform="translate(-2042.169 -755.782)" fill="#fff"/>
          </g>
          <g id="Grupo_53729" data-name="Grupo 53729" transform="translate(2.261 1.41)">
            <path id="Trazado_100718" data-name="Trazado 100718" d="M2057.463,737.012c.355-.006.71-.008,1.064-.012l1.065-.007c.355,0,.71,0,1.065,0l1.064,0,2.13.006,1.064.008c.355,0,.71.007,1.065.013a.006.006,0,0,1,0,0s0,.007,0,.007c-.355.006-.709.009-1.065.013l-1.064.008-2.13.006-1.064,0c-.355,0-.71,0-1.065,0l-1.065-.007c-.355,0-.71-.006-1.064-.012a.007.007,0,0,1-.006-.007A.007.007,0,0,1,2057.463,737.012Z" transform="translate(-2057.285 -736.815)" fill="#fff"/>
            <path id="Trazado_100719" data-name="Trazado 100719" d="M2060.522,736.018l-1.342,0c-.263,0-.527,0-.79,0l-1.419-.01c-.237,0-.474,0-.711-.009l-.168,0-.007-.348.175-.006c.229,0,.459-.006.688-.008l1.443-.011c.25,0,.5,0,.75,0l1.38,0,3.583.018.678.009.175,0-.008.346-.17,0c-.234,0-.471.006-.708.009l-1.42.012Z" transform="translate(-2056.085 -735.611)" fill="#fff"/>
          </g>
          <g id="Grupo_53730" data-name="Grupo 53730" transform="translate(0 6.453)">
            <path id="Trazado_100720" data-name="Trazado 100720" d="M2039.376,777.354l1.63-.012,1.63-.007,3.26-.005,3.26.006,1.63.007,1.63.013a0,0,0,0,1,0,0s0,0,0,0l-1.63.013-1.63.007-3.26.006-3.26-.006-1.63-.007-1.63-.012a.007.007,0,0,1-.006-.007A.007.007,0,0,1,2039.376,777.354Z" transform="translate(-2039.199 -777.157)" fill="#fff"/>
            <path id="Trazado_100721" data-name="Trazado 100721" d="M2044.7,776.36l-4.891-.013-1.8-.013-.006-.349.177-.006,3.26-.019,3.26-.006,4.891.014,1.7.014.1.106-.007.242-.17,0-3.259.021Z" transform="translate(-2037.999 -775.953)" fill="#fff"/>
          </g>
          <g id="Grupo_53731" data-name="Grupo 53731" transform="translate(0.521 8.974)">
            <path id="Trazado_100722" data-name="Trazado 100722" d="M2043.546,797.524l1.5-.012,1.5-.007,3-.006,3,.006,1.5.007,1.5.013a.007.007,0,0,1,0,0s0,.007,0,.007l-1.5.013-1.5.008-3,.006-3-.006-1.5-.007-1.5-.012a.007.007,0,0,1-.006-.007A.006.006,0,0,1,2043.546,797.524Z" transform="translate(-2043.368 -797.327)" fill="#fff"/>
            <path id="Trazado_100723" data-name="Trazado 100723" d="M2048.345,796.53l-4.5-.012-1.571-.013-.1-.1v-.077l0-.168.173-.006,3-.019,3-.005,4.5.014,1.67.015,0,.347-.176,0-3,.021Z" transform="translate(-2042.169 -796.124)" fill="#fff"/>
          </g>
          <g id="Grupo_53732" data-name="Grupo 53732" transform="translate(2.459 11.504)">
            <path id="Trazado_100724" data-name="Trazado 100724" d="M2067.58,817.781h-8.517a.023.023,0,0,1,0-.046h8.517a.023.023,0,0,1,0,.046Z" transform="translate(-2058.869 -817.563)" fill="#fff"/>
            <path id="Trazado_100725" data-name="Trazado 100725" d="M2066.382,816.75h-8.517a.195.195,0,0,1,0-.39h8.517a.195.195,0,0,1,0,.39Z" transform="translate(-2057.67 -816.36)" fill="#fff"/>
          </g>
        </g>
      </g>
    </g>
    <g id="Grupo_53738" data-name="Grupo 53738" transform="translate(326.667 166.122)">
      <path id="Trazado_100726" data-name="Trazado 100726" d="M1691.39,401.24l-10.323,1.087a2.162,2.162,0,0,1-2.389-2.15V388.262a2.162,2.162,0,0,1,1.854-2.14l10.323-1.486a2.162,2.162,0,0,1,2.47,2.14v12.314A2.162,2.162,0,0,1,1691.39,401.24Z" transform="translate(-1678.679 -384.613)" fill="url(#linear-gradient-6)"/>
      <g id="Grupo_53737" data-name="Grupo 53737" transform="translate(2.831 3.996)">
        <path id="Trazado_100727" data-name="Trazado 100727" d="M1702.853,478.468a1.53,1.53,0,1,1,1.531-1.53A1.532,1.532,0,0,1,1702.853,478.468Zm0-2.453a.923.923,0,1,0,.923.923A.924.924,0,0,0,1702.853,476.014Z" transform="translate(-1701.323 -468.054)" fill="url(#linear-gradient-7)"/>
        <g id="Grupo_53736" data-name="Grupo 53736" transform="translate(0.029)">
          <path id="Trazado_100728" data-name="Trazado 100728" d="M1708.586,455.153a3.269,3.269,0,0,1,3.265,3.265,3.14,3.14,0,0,1-.017.33.223.223,0,0,0,.253.247l.475-.071a.224.224,0,0,0,.189-.206c.007-.1.011-.2.011-.3a4.181,4.181,0,0,0-4.176-4.176,4.121,4.121,0,0,0-.515.033.223.223,0,0,0-.193.259l.078.462a.221.221,0,0,0,.245.182A3.12,3.12,0,0,1,1708.586,455.153Z" transform="translate(-1707.085 -449.534)" fill="url(#linear-gradient-7)"/>
          <path id="Trazado_100729" data-name="Trazado 100729" d="M1705.82,436.323a5.625,5.625,0,0,1,5.619,5.619v0a.221.221,0,0,0,.252.221l.466-.07.192-.223a6.521,6.521,0,0,0-7.449-6.394.221.221,0,0,0-.184.256l.078.461a.22.22,0,0,0,.247.183A5.568,5.568,0,0,1,1705.82,436.323Z" transform="translate(-1704.319 -433.058)" fill="url(#linear-gradient-7)"/>
          <path id="Trazado_100730" data-name="Trazado 100730" d="M1703.058,417.493a7.981,7.981,0,0,1,7.964,7.632.223.223,0,0,0,.255.214l.463-.069a.222.222,0,0,0,.19-.229,8.869,8.869,0,0,0-10.185-8.359.222.222,0,0,0-.184.258l.078.46a.222.222,0,0,0,.253.181A7.925,7.925,0,0,1,1703.058,417.493Z" transform="translate(-1701.556 -416.582)" fill="url(#linear-gradient-7)"/>
        </g>
      </g>
    </g>
    <g id="Grupo_53741" data-name="Grupo 53741" transform="translate(146.456 151.176)">
      <path id="Trazado_100731" data-name="Trazado 100731" d="M273.482,941.467s20.422,53.861,26.875,65.065c7.49,13.006,29.364,4.718,28.275-6.166s-26.645-55.875-26.645-55.875Z" transform="translate(-268.926 -856.912)" fill="url(#linear-gradient-11)"/>
      <path id="Trazado_100732" data-name="Trazado 100732" d="M469.95,319.544l105.635-44.01-1.333,119.1-107.771-28.8Z" transform="translate(-437.8 -274.224)" fill="url(#linear-gradient-12)"/>
      <ellipse id="Elipse_4013" data-name="Elipse 4013" cx="12.471" cy="61.205" rx="12.471" ry="61.205" transform="translate(125.434 0)" fill="url(#linear-gradient-13)"/>
      <path id="Trazado_100733" data-name="Trazado 100733" d="M1285.916,407.733c-1.127-1.146-3.583-5.569-5.688-17-2.035-11.051-3.155-25.385-3.155-40.361s1.12-29.31,3.155-40.361c2.1-11.435,4.56-15.858,5.688-17,1.127,1.146,3.583,5.569,5.688,17,2.035,11.051,3.155,25.385,3.155,40.361s-1.12,29.31-3.155,40.361C1289.5,402.164,1287.043,406.587,1285.916,407.733Z" transform="translate(-1147.064 -289.509)" fill="url(#linear-gradient-14)"/>
      <g id="Grupo_53740" data-name="Grupo 53740" transform="translate(130.009 3.494)">
        <g id="Grupo_53739" data-name="Grupo 53739" clip-path="url(#clip-path)">
          <path id="Trazado_100734" data-name="Trazado 100734" d="M1218.323,616.458c0,10.4-5.6,18.83-16.69,18.83s-20.077-8.43-20.077-18.83,8.989-18.83,20.077-18.83S1218.323,606.058,1218.323,616.458Z" transform="translate(-1193.496 -559.548)" fill="url(#linear-gradient-15)"/>
        </g>
      </g>
      <path id="Trazado_100736" data-name="Trazado 100736" d="M248.717,603.646a71.115,71.115,0,0,1,23.792,1.177c-3.05,15.933-2.59,32.54.938,49.736H247.334a8.462,8.462,0,0,1-8.362-7.136c-1.3-8.243-2.892-22.1-1.2-33.224A12.523,12.523,0,0,1,248.717,603.646Z" transform="translate(-237.039 -560.885)" fill="url(#linear-gradient-16)"/>
      <path id="Trazado_100737" data-name="Trazado 100737" d="M301.115,669.244H280.77a1.754,1.754,0,0,1-1.472-2.706.421.421,0,1,1,.707.458.911.911,0,0,0,.765,1.406h20.345a.912.912,0,0,0,.911-.911v-1.448a.912.912,0,0,0-.911-.911h-20.5a.421.421,0,1,1,0-.843h20.5a1.755,1.755,0,0,1,1.754,1.753v1.448A1.756,1.756,0,0,1,301.115,669.244Z" transform="translate(-273.766 -614.382)" fill="#bdd0fb"/>
      <path id="Trazado_100738" data-name="Trazado 100738" d="M286.6,741.322H266.257a1.754,1.754,0,0,1-1.472-2.706.421.421,0,0,1,.708.458.911.911,0,0,0,.765,1.406H286.6a.912.912,0,0,0,.911-.911v-1.447a.912.912,0,0,0-.911-.911h-20.5a.421.421,0,0,1,0-.843h20.5a1.756,1.756,0,0,1,1.754,1.754v1.447A1.756,1.756,0,0,1,286.6,741.322Z" transform="translate(-261.067 -677.45)" fill="#bdd0fb"/>
      <path id="Trazado_100739" data-name="Trazado 100739" d="M638.83,380.958a.422.422,0,0,1-.16-.812l74.84-30.593a.421.421,0,0,1,.319.78l-74.84,30.593A.42.42,0,0,1,638.83,380.958Z" transform="translate(-588.235 -338.963)" fill="#bdd0fb"/>
      <path id="Trazado_100740" data-name="Trazado 100740" d="M534.827,623.457a.422.422,0,0,1-.159-.812l4.948-2.023a.421.421,0,0,1,.319.78l-4.948,2.023A.421.421,0,0,1,534.827,623.457Z" transform="translate(-497.233 -576.147)" fill="#bdd0fb"/>
      <path id="Trazado_100741" data-name="Trazado 100741" d="M301.115,825.738H280.77a1.754,1.754,0,0,1-1.472-2.706.421.421,0,1,1,.707.458.911.911,0,0,0,.765,1.406h20.345a.912.912,0,0,0,.911-.911v-1.448a.912.912,0,0,0-.911-.911h-20.5a.421.421,0,0,1,0-.843h20.5a1.756,1.756,0,0,1,1.754,1.754v1.448A1.755,1.755,0,0,1,301.115,825.738Z" transform="translate(-273.766 -751.314)" fill="#bdd0fb"/>
      <path id="Trazado_100742" data-name="Trazado 100742" d="M316.353,919.438H296.008a1.754,1.754,0,0,1-1.472-2.706.421.421,0,1,1,.708.458.911.911,0,0,0,.765,1.406h20.345a.912.912,0,0,0,.911-.911v-1.448a.912.912,0,0,0-.911-.911h-20.5a.421.421,0,1,1,0-.843h20.5a1.756,1.756,0,0,1,1.754,1.754v1.448A1.756,1.756,0,0,1,316.353,919.438Z" transform="translate(-287.099 -833.301)" fill="#bdd0fb"/>
      <path id="Trazado_100743" data-name="Trazado 100743" d="M418.553,1152.524a13.19,13.19,0,0,1-2.808-.3,12.991,12.991,0,0,1-9.167-7.425l-16.254-36.111a.421.421,0,0,1,.768-.346l16.254,36.11a12.155,12.155,0,0,0,8.578,6.947,11.912,11.912,0,0,0,10.482-2.68q.231-.2.464-.415a.421.421,0,1,1,.568.622q-.24.219-.478.427A12.7,12.7,0,0,1,418.553,1152.524Z" transform="translate(-371.129 -1002.706)" fill="#bdd0fb"/>
      <path id="Trazado_100744" data-name="Trazado 100744" d="M358.79,1038.023a.421.421,0,0,1-.384-.249l-1.813-4.028a.421.421,0,0,1,.769-.346l1.813,4.028a.421.421,0,0,1-.384.595Z" transform="translate(-341.615 -937.136)" fill="#fff"/>
      <path id="Trazado_100745" data-name="Trazado 100745" d="M1315.622,634a.422.422,0,0,1-.42-.392c-.364-5.126-2.143-8.949-5.289-11.364-5.434-4.172-13.182-2.739-13.26-2.724a.421.421,0,1,1-.159-.828c.332-.064,8.2-1.518,13.932,2.883,3.345,2.568,5.235,6.6,5.616,11.973a.421.421,0,0,1-.39.45Z" transform="translate(-1163.759 -574.238)" fill="#fff" opacity="0.67"/>
    </g>
    <g id="Grupo_53742" data-name="Grupo 53742" transform="translate(212.131 242.105)">
      <path id="Trazado_100746" data-name="Trazado 100746" d="M806.576,1055.42s7.986-10.034,6.688-19.52-7.779-8.354-10.662-2.745-5.476,4.839-3.763-.434,3.86-8.706.31-13.956-3.918-7.48-1.923-12.165,4.5-11.322-3.437-13.69-15.844,4.908-13.993,14.431,2.963,10.56.413,14.088-1.487,4.976-1.126,7.272-3.533,2.834-3.451-.4,5.037-10.867,1.656-14.428-10.009-3.6-11.706,4.634,3.741,11.934,3.47,14.912-3.191-1.537-5.735,1.5.881,5.42,3.4,7.065,6.321,4.594,2.7,6.734-7.041.092-4.825,6.7Z" transform="translate(-762.421 -992.46)" fill="#91b3fa"/>
      <path id="Trazado_100747" data-name="Trazado 100747" d="M946.481,1051a4.15,4.15,0,0,0-.712.5,5.516,5.516,0,0,0-.617.613,6.919,6.919,0,0,0-.974,1.452,9.133,9.133,0,0,0-.909,3.384c-.017.146-.021.292-.029.439s-.014.293-.011.439l0,.44.021.438.012.219.022.218.044.436c.044.288.075.579.13.865s.1.573.174.855l.1.425.1.411.408,1.64c.54,2.185,1.06,4.369,1.469,6.565a32.121,32.121,0,0,1,.611,6.6,15.68,15.68,0,0,1-.121,1.63,12.165,12.165,0,0,1-.3,1.591,10.254,10.254,0,0,1-.516,1.516,11.483,11.483,0,0,0-.567,1.691,27.1,27.1,0,0,0-.557,3.411c-.119,1.135-.212,2.265-.286,3.393-.155,2.255-.288,4.5-.613,6.719-.041.277-.085.554-.137.828s-.105.549-.162.822-.128.543-.19.815c-.036.135-.076.268-.114.4s-.074.269-.122.4l-.134.4c-.045.132-.1.258-.152.388-.1.262-.224.508-.34.762a6.945,6.945,0,0,1-.935,1.379l.091.089a7.138,7.138,0,0,0,1.068-1.343,10.453,10.453,0,0,0,.752-1.545,19.383,19.383,0,0,0,.935-3.294c.459-2.235.677-4.5.924-6.741.126-1.122.237-2.242.391-3.349a26.155,26.155,0,0,1,.629-3.256,11.07,11.07,0,0,1,.538-1.509,11.366,11.366,0,0,0,.605-1.677,13.252,13.252,0,0,0,.358-1.73,16.828,16.828,0,0,0,.161-1.744,32.356,32.356,0,0,0-.581-6.871c-.4-2.25-.934-4.462-1.534-6.648-.152-.546-.3-1.092-.461-1.635l-.119-.407-.109-.4c-.077-.264-.135-.531-.2-.8s-.109-.536-.165-.8l-.062-.4c-.022-.135-.041-.27-.055-.405a12.657,12.657,0,0,1-.1-1.628,9.319,9.319,0,0,1,.136-1.62,8.736,8.736,0,0,1,.419-1.573,7.7,7.7,0,0,1,.334-.746,6.3,6.3,0,0,1,.414-.71,5.466,5.466,0,0,1,1.1-1.229Z" transform="translate(-918.743 -1043.683)" fill="#dce5fe"/>
      <path id="Trazado_100748" data-name="Trazado 100748" d="M1065.033,1322.91a53.488,53.488,0,0,1-.99,5.273q-.312,1.3-.691,2.585c-.06.214-.131.426-.2.638s-.136.424-.206.635c-.135.424-.287.842-.436,1.261s-.315.832-.489,1.24-.347.818-.526,1.224c-.376.8-.772,1.6-1.213,2.368a26.045,26.045,0,0,1-1.441,2.238,24.563,24.563,0,0,1-1.709,2.057l.086.094a15.515,15.515,0,0,0,1.948-1.893,20.557,20.557,0,0,0,1.612-2.2,24.821,24.821,0,0,0,1.3-2.393c.187-.413.381-.824.551-1.245s.33-.845.49-1.269.3-.856.433-1.288c.07-.215.134-.432.2-.65s.128-.434.184-.654c.241-.872.439-1.755.61-2.642a32.791,32.791,0,0,0,.611-5.375Z" transform="translate(-1020.294 -1281.602)" fill="#dce5fe"/>
    </g>
    <g id="Grupo_53747" data-name="Grupo 53747" transform="translate(146.987 225.6)">
      <path id="Trazado_100749" data-name="Trazado 100749" d="M376.588,1471.311s-.282,1.593-.42,3.171a1.087,1.087,0,0,0,1.04,1.177c2.1.088,6.593.258,8.206.186a.353.353,0,0,0,.311-.484h0a.792.792,0,0,0-.4-.426l-7.422-3.411Z" transform="translate(-359.305 -1394.947)" fill="url(#linear-gradient-17)"/>
      <path id="Trazado_100750" data-name="Trazado 100750" d="M377.709,1461.761l.226,1.906a2.365,2.365,0,0,0,2.188-.076l-.539-2.124Z" transform="translate(-360.656 -1386.334)" fill="url(#linear-gradient-18)"/>
      <path id="Trazado_100751" data-name="Trazado 100751" d="M337.811,1177.175c-.1.5-.524,24.837,2.077,35.744a.37.37,0,0,1-.217.431,6.441,6.441,0,0,1-2.119.431.638.638,0,0,1-.633-.458c-.744-2.531-4.307-15.21-4.772-27.322-.52-13.534,0-.461,0-.461l.3-8.366Z" transform="translate(-320.588 -1137.579)" fill="url(#linear-gradient-19)"/>
      <path id="Trazado_100752" data-name="Trazado 100752" d="M304.992,1477.961a11.461,11.461,0,0,0-.882,2.942.663.663,0,0,0,.583.794c.694.068,1.761.156,2.617.15a.661.661,0,0,0,.655-.737,5.576,5.576,0,0,0-1.3-3.058Z" transform="translate(-296.245 -1400.766)" fill="url(#linear-gradient-20)"/>
      <path id="Trazado_100753" data-name="Trazado 100753" d="M308.11,1457.566l.528,2.882a1.864,1.864,0,0,0,1.556.107l-.252-3.1Z" transform="translate(-299.757 -1382.823)" fill="url(#linear-gradient-18)"/>
      <path id="Trazado_100754" data-name="Trazado 100754" d="M290.958,1173.728c-2.128,12.841.462,31.739,1.335,35.438a.577.577,0,0,0,.466.438,3.874,3.874,0,0,0,1.664-.066.529.529,0,0,0,.38-.487c.117-2.99-.094-21.348,1.889-28.6a1.648,1.648,0,0,1,.636-.909l3.848-2.736.3-4.422Z" transform="translate(-284.033 -1133.385)" fill="url(#linear-gradient-19)"/>
      <g id="Grupo_53743" data-name="Grupo 53743" transform="translate(6.131 6.136)">
        <path id="Trazado_100755" data-name="Trazado 100755" d="M304.689,981.209a59.958,59.958,0,0,0-13.413,1.674c-1.9,11.091-.332,23.883-.332,23.883,4.937,1.295,10.505-.791,10.505-.791.82-4.636,4.649-17.682,4.649-17.682a21.006,21.006,0,0,0,7.8-2.474,13.673,13.673,0,0,1-2.7-5.653A21.39,21.39,0,0,1,304.689,981.209Z" transform="translate(-290.336 -971.334)" fill="url(#linear-gradient-23)"/>
        <path id="Trazado_100756" data-name="Trazado 100756" d="M469.509,909.987a1.22,1.22,0,0,0-1.419-.4c-.938,3.964-5.859,7.178-10.914,8.749a13.673,13.673,0,0,0,2.7,5.652C468.268,919.272,469.509,909.987,469.509,909.987Z" transform="translate(-436.32 -909.503)" fill="url(#linear-gradient-24)"/>
      </g>
      <g id="Grupo_53744" data-name="Grupo 53744" transform="translate(37.9 0)">
        <path id="Trazado_100757" data-name="Trazado 100757" d="M545.749,867.232c.065.208-.694.526-1.14-.327a8.029,8.029,0,0,1-.02-2.491,32.592,32.592,0,0,1,3.82-3.994.6.6,0,0,1,.075.833l-1.222,1.273a5.926,5.926,0,0,1,.714,1.411,1.714,1.714,0,0,1-.171,1.261c-.215.387-.507.889-.784,1.283A1.692,1.692,0,0,1,545.749,867.232Z" transform="translate(-544.482 -860.421)" fill="url(#linear-gradient-25)"/>
        <path id="Trazado_100758" data-name="Trazado 100758" d="M552.191,883.884l-1.114.945-.35.94.993,1.1a12.811,12.811,0,0,1,.582-2.27C552.551,884.2,552.422,884,552.191,883.884Z" transform="translate(-549.946 -880.951)" fill="url(#linear-gradient-26)"/>
      </g>
      <path id="Trazado_100759" data-name="Trazado 100759" d="M251.757,1008.075l-2.446-6.175s-5.956,4.047-6.936,9.178a14.092,14.092,0,0,1,5.178,1.388C247.993,1010.043,251.757,1008.075,251.757,1008.075Z" transform="translate(-242.239 -984.215)" fill="url(#linear-gradient-27)"/>
      <path id="Trazado_100760" data-name="Trazado 100760" d="M256.011,1078.129s-6.687,3.779-8.944.552a2.537,2.537,0,0,1-.465-1.971,14.1,14.1,0,0,0-5.178-1.388,7.082,7.082,0,0,0,.77,4.855c3.952,7.23,14.7-.4,14.7-.4Z" transform="translate(-241.289 -1048.459)" fill="url(#linear-gradient-18)"/>
      <g id="Grupo_53745" data-name="Grupo 53745" transform="translate(13.904 19.409)">
        <path id="Trazado_100761" data-name="Trazado 100761" d="M352.533,1039.395l3.65-12.745a.372.372,0,0,1,.314-.268c.661-.077,2.577-.294,4.79-.481a54.415,54.415,0,0,1,7.609-.253.373.373,0,0,1,.3.537c-1.051,2.128-5.377,10.782-7.543,13.617a.374.374,0,0,1-.3.148l-8.468-.079A.373.373,0,0,1,352.533,1039.395Z" transform="translate(-352.519 -1024.352)" fill="#bdd0fb"/>
        <path id="Trazado_100762" data-name="Trazado 100762" d="M423.444,1016.129l2.646-.441a.19.19,0,0,1,.212.247l-.262.794a.19.19,0,0,1-.155.129l-2.546.34a.19.19,0,0,1-.21-.231l.162-.693A.19.19,0,0,1,423.444,1016.129Z" transform="translate(-414.297 -1015.686)" fill="url(#linear-gradient-29)"/>
        <path id="Trazado_100763" data-name="Trazado 100763" d="M409.807,1023.92l.218-1.135a.263.263,0,0,1,.231-.212l5.345-.542a.262.262,0,0,1,.282.322l-.34,1.415a.262.262,0,0,1-.242.2l-5.223.263A.262.262,0,0,1,409.807,1023.92Z" transform="translate(-402.642 -1021.236)" fill="url(#linear-gradient-30)"/>
        <path id="Trazado_100764" data-name="Trazado 100764" d="M357.226,1080.969a9.276,9.276,0,0,1-.3-2.832c.2-.742.6-1.7,1.927-1.484a19.4,19.4,0,0,1,2.887.77.758.758,0,0,1-1.085.654l.624.483s-.089.774-.939.36l.581.64a.677.677,0,0,1-.991.228C359.3,1079.382,359,1081.221,357.226,1080.969Z" transform="translate(-356.33 -1069.006)" fill="url(#linear-gradient-18)"/>
      </g>
      <path id="Trazado_100765" data-name="Trazado 100765" d="M339.2,947.093l-2.029,5.868a.211.211,0,0,0,.1.255,4.769,4.769,0,0,0,4.947-.333,1,1,0,0,0,.459-.711l.657-5.078Z" transform="translate(-325.175 -936.259)" fill="url(#linear-gradient-32)"/>
      <g id="Grupo_53746" data-name="Grupo 53746" transform="translate(10.174 2.351)">
        <path id="Trazado_100766" data-name="Trazado 100766" d="M352.4,903.626s2.228,4.194,1.942,5.888-3.047,1.573-5.458.2l-1.685-4.529Z" transform="translate(-344.134 -900.576)" fill="url(#linear-gradient-33)"/>
        <path id="Trazado_100767" data-name="Trazado 100767" d="M327.536,886.141a.173.173,0,0,0,.076-.253,4.512,4.512,0,0,1-.62-1.316s-.4-.257,1.019-.6,3.538-.867,3.982-2.076c.434-1.179-.706-4.142-2.525-1.781a.173.173,0,0,1-.274,0,1.782,1.782,0,0,0-2.171-.706A1.635,1.635,0,0,0,325.9,881a.172.172,0,0,1-.2.176,1.994,1.994,0,0,0-2.328,1.085,1.6,1.6,0,0,0,.115,1.924.172.172,0,0,1-.074.286,1.037,1.037,0,0,0-.732,1.184c.06,1.1,1.286,1,1.635.95a.172.172,0,0,1,.153.054,5.893,5.893,0,0,0,3.106,1.907.174.174,0,0,0,.183-.231l-.631-1.835a.174.174,0,0,1,.094-.215Z" transform="translate(-322.68 -879.231)" fill="url(#linear-gradient-34)"/>
        <path id="Trazado_100768" data-name="Trazado 100768" d="M351.6,932.822s-1.586-1.088-1.7-.172,1.429,1.328,2.193.986Z" transform="translate(-346.492 -925.651)" fill="url(#linear-gradient-35)"/>
      </g>
    </g>
    <g id="Grupo_53749" data-name="Grupo 53749" transform="translate(309.361 196.874)">
      <path id="Trazado_100769" data-name="Trazado 100769" d="M1567.228,631.851l-23.586-1.227a3.2,3.2,0,0,0-3.408,3.342l.61,21.691a3.182,3.182,0,0,0,3.4,3.037l22.4-1.106a3.081,3.081,0,0,0,2.817-3.016l.546-19.43A3.1,3.1,0,0,0,1567.228,631.851Z" transform="translate(-1540.232 -630.619)" fill="#7d97f4"/>
      <g id="Grupo_53748" data-name="Grupo 53748" transform="translate(5.608 5.078)">
        <path id="Trazado_100770" data-name="Trazado 100770" d="M1593.982,689.01a8.884,8.884,0,1,1,8.884-8.884A8.894,8.894,0,0,1,1593.982,689.01Zm0-16.279a7.4,7.4,0,1,0,7.4,7.4A7.4,7.4,0,0,0,1593.982,672.731Z" transform="translate(-1585.098 -671.242)" fill="url(#linear-gradient-7)"/>
        <path id="Trazado_100771" data-name="Trazado 100771" d="M1633.9,718.8v-6.387a.88.88,0,0,1,1.33-.757l5.382,3.193a.88.88,0,0,1,0,1.514l-5.382,3.193A.881.881,0,0,1,1633.9,718.8Z" transform="translate(-1627.802 -706.496)" fill-rule="evenodd" fill="url(#linear-gradient-7)"/>
      </g>
    </g>
    <g id="Grupo_53751" data-name="Grupo 53751" transform="translate(355.186 166.069)">
      <path id="Trazado_100772" data-name="Trazado 100772" d="M1931.447,385.315l-21.517-1.119a2.923,2.923,0,0,0-3.109,3.049l.556,19.788a2.9,2.9,0,0,0,3.105,2.77l20.432-1.009a2.81,2.81,0,0,0,2.569-2.752l.5-17.725A2.829,2.829,0,0,0,1931.447,385.315Z" transform="translate(-1906.819 -384.191)" fill="url(#linear-gradient-38)"/>
      <g id="Grupo_53750" data-name="Grupo 53750" transform="translate(3.812 5.205)" opacity="0.76">
        <path id="Trazado_100773" data-name="Trazado 100773" d="M1954.5,441.032h-15.083a2.107,2.107,0,0,1-2.1-2.1v-10.99a2.107,2.107,0,0,1,2.1-2.1H1954.5a2.107,2.107,0,0,1,2.1,2.1v10.99A2.107,2.107,0,0,1,1954.5,441.032Zm-15.083-13.738a.644.644,0,0,0-.643.643v10.99a.644.644,0,0,0,.643.643H1954.5a.644.644,0,0,0,.643-.643v-10.99a.644.644,0,0,0-.643-.643Z" transform="translate(-1937.314 -425.833)" fill="#fff"/>
        <path id="Trazado_100774" data-name="Trazado 100774" d="M1950.266,437.815a.729.729,0,0,1-.423-.135l-8.447-5.99a.731.731,0,0,1,.846-1.192l8.024,5.69,7.919-5.625a.731.731,0,0,1,.847,1.191l-8.342,5.925A.73.73,0,0,1,1950.266,437.815Z" transform="translate(-1940.616 -429.797)" fill="#fff"/>
        <path id="Trazado_100775" data-name="Trazado 100775" d="M1942.758,470.634l-.215-1.446.1.724-.613-.4c.161-.258,3.2-5.582,5.211-9.1a.731.731,0,0,1,1.27.725s-1.3,2.283-2.609,4.566c-.653,1.142-1.307,2.284-1.8,3.141C1943.111,470.578,1943.111,470.578,1942.758,470.634Z" transform="translate(-1941.441 -455.77)" fill="#fff"/>
        <path id="Trazado_100776" data-name="Trazado 100776" d="M2039.825,470.635c-.353-.056-.353-.056-1.346-1.787-.492-.857-1.146-2-1.8-3.14-1.306-2.283-2.609-4.566-2.609-4.566a.731.731,0,0,1,1.269-.725c2.007,3.516,5.051,8.841,5.212,9.1l-.613.4Z" transform="translate(-2021.891 -455.771)" fill="#fff"/>
      </g>
    </g>
    <g id="Grupo_53754" data-name="Grupo 53754" transform="translate(365.401 230.474)">
      <path id="Trazado_100777" data-name="Trazado 100777" d="M2052.876,900.888c-2.418,1.612-4.634,5.239-.2,11.082,3.976,5.241,8.059,8.664,7.455,11.888s4.109,11.351,13.7,6.044c9.47-5.239,7.656-15.313-3.828-19.141C2063.28,908.52,2061.729,894.987,2052.876,900.888Z" transform="translate(-2042.431 -899.411)" fill="url(#linear-gradient-39)"/>
      <path id="Trazado_100778" data-name="Trazado 100778" d="M2005.573,1072.388s3.751,4.493,7.529.844l1.459,3.385s-5.517,4.272-9.7-2.449Z" transform="translate(-2002.821 -1050.765)" fill="url(#linear-gradient-40)"/>
      <path id="Trazado_100779" data-name="Trazado 100779" d="M2056.368,1003.716a7.109,7.109,0,0,1,6.958,1.773,1.786,1.786,0,0,1,.515,1.78c-.774,2.852-2.818,11.278-1.026,14.924,0,0-3.158,3.482-6.6.676,0,0-1.546-6.737-3.571-9.7-1.4-2.042,2.229-7.668,3.147-9.027A1.076,1.076,0,0,1,2056.368,1003.716Z" transform="translate(-2044.349 -990.434)" fill="url(#linear-gradient-41)"/>
      <path id="Trazado_100780" data-name="Trazado 100780" d="M2083.851,962.172a35.459,35.459,0,0,1,2.47,6.005,3.293,3.293,0,0,1-3.347-.092,48.436,48.436,0,0,0-1.085-5.031Z" transform="translate(-2070.22 -954.327)" fill="url(#linear-gradient-42)"/>
      <g id="Grupo_53752" data-name="Grupo 53752" transform="translate(8.649 2.415)">
        <path id="Trazado_100781" data-name="Trazado 100781" d="M2059.779,934.312s-.391,6.918,2.519,7.015,3.193-4.822,3.193-4.822-.859-3.108-2.245-3.47S2059.779,934.312,2059.779,934.312Z" transform="translate(-2059.507 -931.201)" fill="url(#linear-gradient-43)"/>
        <path id="Trazado_100782" data-name="Trazado 100782" d="M2058.855,919.708s-1.33,1.36-1.1,2.206,3.08-.039,3.784-.439l2.356,2.508s-.072-3.715-1.7-4.859S2058.855,919.708,2058.855,919.708Z" transform="translate(-2057.728 -918.733)" fill="url(#linear-gradient-44)"/>
        <path id="Trazado_100783" data-name="Trazado 100783" d="M2098.541,948.926s.355-2.373,1.515-1.706-.085,2.506-.991,2.391Z" transform="translate(-2093.439 -943.556)" fill="url(#linear-gradient-45)"/>
      </g>
      <path id="Trazado_100784" data-name="Trazado 100784" d="M2045.156,1272.038c.012.306-.525,2.732-.817,4.026a2.132,2.132,0,0,0,.229,1.529l10.122,17.035a2.32,2.32,0,0,1,.266.663,14.606,14.606,0,0,1,.369,4.541l-.523,1.088,2.265-.514.492-6.081-.641-.391a3.045,3.045,0,0,1-1.232-1.442,86.931,86.931,0,0,1-3.774-10.64c-.666-3.135-4.146-5.68-4.146-5.68l.611-1.446Z" transform="translate(-2037.318 -1225.458)" fill="url(#linear-gradient-46)"/>
      <path id="Trazado_100785" data-name="Trazado 100785" d="M2128.418,1451.056a13.825,13.825,0,0,1-1.367-2.693c-.144-.755-.544-2.087-1.3-1.686a44.316,44.316,0,0,0-.233,5.1c.123,1.432-1.619,1.386-1.619,1.386a1.625,1.625,0,0,0-.832.419.408.408,0,0,0,.274.686,9.808,9.808,0,0,0,2.426-.138.742.742,0,0,0,.6-.685l.251-4.219,1.543,1.948Z" transform="translate(-2106.153 -1378.201)" fill="url(#linear-gradient-47)"/>
      <path id="Trazado_100786" data-name="Trazado 100786" d="M2084.875,1290.874s.357,15.238.405,17.4-.342,6.96-2.511,8.394l.944.7a12.615,12.615,0,0,0,2.332-2.932,17.809,17.809,0,0,1,1.687-2.564l-.43-.88a1.932,1.932,0,0,1-.156-1.241c.468-2.269,2.032-9.817,2.459-11.442a7.321,7.321,0,0,0-1.213-6.625C2086.639,1289.539,2084.875,1290.874,2084.875,1290.874Z" transform="translate(-2070.99 -1241.58)" fill="url(#linear-gradient-48)"/>
      <path id="Trazado_100787" data-name="Trazado 100787" d="M2079.432,1465.355a.134.134,0,0,0,.134-.114,19.652,19.652,0,0,1,.619-3.072c.281-.6,1.2-3.146,0-3.362,0,0-2.99,4.368-3.563,4.957a1.125,1.125,0,0,1-1.3.206,2.161,2.161,0,0,0-.981.7.4.4,0,0,0,.312.636l2.013.019a1.417,1.417,0,0,0,1.328-.893,7.572,7.572,0,0,1,1.673-2.76l-.369,3.531a.134.134,0,0,0,.132.148Z" transform="translate(-2063.544 -1388.88)" fill="url(#linear-gradient-49)"/>
      <path id="Trazado_100788" data-name="Trazado 100788" d="M2047.509,1142.85a7.15,7.15,0,0,1-.243,3.828l-4.324,15.1a.467.467,0,0,0,.292.569,28.85,28.85,0,0,0,11.351,1.376.66.66,0,0,0,.6-.513c.382-1.722,1.687-7.6,1.956-8.8,1.024-4.6,2.015-8.972-3.014-11.971A9.636,9.636,0,0,1,2047.509,1142.85Z" transform="translate(-2036.124 -1112.059)" fill="url(#linear-gradient-50)"/>
      <path id="Trazado_100789" data-name="Trazado 100789" d="M2046.01,1026.171s.871,12.44-7.167,6.192a5.476,5.476,0,0,0-2.044-1.258c-.462-.074-.982-.123-1.365-.152a.172.172,0,0,0-.113.312,2.276,2.276,0,0,0,.951.435c.607.063-.04.507.621,1.668a1.248,1.248,0,0,0,1.6.723s9.209,9.431,11.048-7.017C2049.61,1024.015,2046.666,1024.177,2046.01,1026.171Z" transform="translate(-2029.41 -1009.054)" fill="url(#linear-gradient-51)"/>
      <g id="Grupo_53753" data-name="Grupo 53753" transform="translate(0 18.161)">
        <path id="Trazado_100790" data-name="Trazado 100790" d="M1988.824,1045.067l2.734-.36a.866.866,0,0,1,.864.49l1.8,3.976c.339.594.1,1.382-.45,1.473l-2.2.282a.538.538,0,0,1-.545-.334l-2.433-4.855C1988.457,1045.457,1988.574,1045.108,1988.824,1045.067Z" transform="translate(-1988.537 -1044.697)" fill="url(#linear-gradient-52)"/>
      </g>
      <path id="Trazado_100791" data-name="Trazado 100791" d="M1994.257,1063.1s-1.838-2.675-1.625-3a7.213,7.213,0,0,1,2.2-.913C1995.214,1059.075,1995.926,1061.5,1994.257,1063.1Z" transform="translate(-1992.105 -1039.21)" fill="url(#linear-gradient-53)"/>
      <path id="Trazado_100792" data-name="Trazado 100792" d="M2164.585,983.315a.1.1,0,0,1-.037-.194,6.684,6.684,0,0,0,3.359-9.481c-1.308-2.331-3.814-3.633-6.238-4.893l-.292-.152c-2.621-1.365-5.175-2.99-6.112-5.622a.1.1,0,1,1,.19-.068c.914,2.566,3.431,4.165,6.015,5.511l.292.152c2.45,1.273,4.984,2.59,6.321,4.974a6.886,6.886,0,0,1-3.461,9.767A.1.1,0,0,1,2164.585,983.315Z" transform="translate(-2134.418 -954.909)" fill="#91b3fa"/>
      <path id="Trazado_100793" data-name="Trazado 100793" d="M2207.507,1054.89a.1.1,0,0,1-.024-.2,6.96,6.96,0,0,0,4.554-3.41,4.769,4.769,0,0,0-.691-5.41.1.1,0,0,1,.142-.143,4.976,4.976,0,0,1,.729,5.643,7.163,7.163,0,0,1-4.685,3.515A.1.1,0,0,1,2207.507,1054.89Z" transform="translate(-2180.047 -1027.413)" fill="#91b3fa"/>
    </g>
    <g id="Grupo_53755" data-name="Grupo 53755" transform="translate(339.377 233.02)">
      <path id="Trazado_100794" data-name="Trazado 100794" d="M1794.871,920.438l-12.683-.66a1.723,1.723,0,0,0-1.833,1.8l.328,11.664a1.711,1.711,0,0,0,1.83,1.633l12.044-.595a1.656,1.656,0,0,0,1.515-1.622l.294-10.448A1.668,1.668,0,0,0,1794.871,920.438Z" transform="translate(-1780.354 -919.776)" fill="url(#linear-gradient-38)"/>
      <path id="Trazado_100795" data-name="Trazado 100795" d="M1806.895,934.861h-8.967c-.83,0-1.933.711-1.933,1.568v4.987c0,.822,1.112,1.312,1.933,1.312h6.168c.213,0,.328.585.328.8v.737c0,.3.3.416.452.466a.6.6,0,0,0,.343.125.432.432,0,0,0,.326-.147l1.34-1.566c.838-.018,1.191-.9,1.191-1.724v-4.987C1808.076,935.613,1807.71,934.861,1806.895,934.861Zm.338,6.555c0,.386-.027.75-.338.75h-.335l-1.574,1.646v-1.083c0-.212.119-.563-.093-.563h-6.964c-.382,0-1.091-.368-1.091-.75v-4.782c0-.557.705-.649,1.091-.649h8.967c.379,0,.338.065.338.444Z" transform="translate(-1794.04 -932.975)" fill="#fff" opacity="0.76"/>
      <path id="Trazado_100796" data-name="Trazado 100796" d="M1818.19,953.122a.281.281,0,0,1-.281.281h-8.148a.281.281,0,0,1-.281-.281h0a.281.281,0,0,1,.281-.281h8.148a.281.281,0,0,1,.281.281Z" transform="translate(-1805.839 -948.708)" fill="#fff"/>
      <path id="Trazado_100797" data-name="Trazado 100797" d="M1818.19,964.36a.281.281,0,0,1-.281.281h-8.148a.281.281,0,0,1-.281-.281h0a.281.281,0,0,1,.281-.281h8.148a.281.281,0,0,1,.281.281Z" transform="translate(-1805.839 -958.541)" fill="#fff"/>
      <path id="Trazado_100798" data-name="Trazado 100798" d="M1818.19,980.093a.281.281,0,0,1-.281.281h-8.148a.281.281,0,0,1-.281-.281h0a.281.281,0,0,1,.281-.281h8.148a.281.281,0,0,1,.281.281Z" transform="translate(-1805.839 -972.307)" fill="#fff"/>
    </g>
    <g id="Grupo_53756" data-name="Grupo 53756" transform="translate(192.227 161.497)">
      <path id="Trazado_100799" data-name="Trazado 100799" d="M1751.846,370.4q.4.161.788.331a.562.562,0,1,1-.446,1.032q-.382-.165-.766-.322a.562.562,0,0,1,.424-1.041Z" transform="translate(-1607.582 -367.515)" fill="#bdd0fb"/>
      <path id="Trazado_100800" data-name="Trazado 100800" d="M1689.8,856.935q.415-.062.829-.127a.562.562,0,1,1,.175,1.11q-.419.066-.838.128a.562.562,0,1,1-.166-1.112Z" transform="translate(-1553.552 -793.151)" fill="#bdd0fb"/>
      <path id="Trazado_100801" data-name="Trazado 100801" d="M1730.7,362.673l.1.034q.354.116.705.238a.562.562,0,1,1-.369,1.061q-.342-.119-.686-.231l-.1-.033a.562.562,0,0,1,.346-1.07Z" transform="translate(-1589.111 -360.767)" fill="#bdd0fb"/>
      <path id="Trazado_100802" data-name="Trazado 100802" d="M1709.038,356.54q.415.1.828.212a.562.562,0,0,1-.29,1.086q-.4-.107-.805-.206a.562.562,0,0,1,.267-1.092Z" transform="translate(-1570.194 -355.41)" fill="#bdd0fb"/>
      <path id="Trazado_100803" data-name="Trazado 100803" d="M1711.975,853.17q.412-.073.825-.149a.562.562,0,1,1,.2,1.105q-.418.077-.835.151a.562.562,0,1,1-.195-1.107Z" transform="translate(-1572.966 -789.834)" fill="#bdd0fb"/>
      <path id="Trazado_100804" data-name="Trazado 100804" d="M1734.04,848.793q.41-.084.82-.172a.562.562,0,0,1,.236,1.1q-.415.089-.83.174a.562.562,0,0,1-.226-1.1Z" transform="translate(-1592.286 -785.981)" fill="#bdd0fb"/>
      <path id="Trazado_100805" data-name="Trazado 100805" d="M1791.415,390.528a.563.563,0,0,1,.769-.2q.369.216.732.439a.562.562,0,0,1,.185.773.549.549,0,0,1-.088.11.562.562,0,0,1-.685.076q-.354-.217-.713-.428A.562.562,0,0,1,1791.415,390.528Z" transform="translate(-1642.815 -384.921)" fill="#bdd0fb"/>
      <path id="Trazado_100806" data-name="Trazado 100806" d="M1799.086,830.641q.393-.137.784-.28a.562.562,0,1,1,.388,1.055q-.4.147-.8.287a.562.562,0,1,1-.368-1.062Z" transform="translate(-1649.264 -769.985)" fill="#bdd0fb"/>
      <path id="Trazado_100807" data-name="Trazado 100807" d="M1772.371,379.64q.383.189.762.387a.562.562,0,1,1-.519,1q-.369-.192-.741-.376a.562.562,0,0,1,.5-1.007Z" transform="translate(-1625.509 -375.585)" fill="#bdd0fb"/>
      <path id="Trazado_100808" data-name="Trazado 100808" d="M1755.969,843.716q.406-.1.812-.2a.562.562,0,0,1,.277,1.089q-.413.1-.825.2a.562.562,0,0,1-.265-1.092Z" transform="translate(-1611.491 -781.51)" fill="#bdd0fb"/>
      <path id="Trazado_100809" data-name="Trazado 100809" d="M1777.686,837.726q.4-.116.8-.238a.562.562,0,0,1,.328,1.075q-.407.124-.817.242a.562.562,0,0,1-.311-1.08Z" transform="translate(-1630.514 -776.23)" fill="#bdd0fb"/>
      <path id="Trazado_100810" data-name="Trazado 100810" d="M1642.21,347.654q.427.011.854.032a.562.562,0,1,1-.054,1.122q-.415-.02-.831-.031a.562.562,0,1,1,.031-1.123Z" transform="translate(-1511.824 -347.648)" fill="#bdd0fb"/>
      <path id="Trazado_100811" data-name="Trazado 100811" d="M1597.253,348.952q.425-.047.85-.086a.562.562,0,1,1,.1,1.119q-.414.038-.827.084a.562.562,0,0,1-.124-1.117Z" transform="translate(-1472.555 -348.708)" fill="#bdd0fb"/>
      <path id="Trazado_100812" data-name="Trazado 100812" d="M1600.451,866.505l.838-.051a.562.562,0,0,1,.072,1.122l-.844.051a.562.562,0,1,1-.065-1.122Z" transform="translate(-1475.326 -801.596)" fill="#bdd0fb"/>
      <path id="Trazado_100813" data-name="Trazado 100813" d="M1578.013,867.691q.42-.016.839-.035a.562.562,0,0,1,.05,1.123l-.845.035a.562.562,0,0,1-.043-1.123Z" transform="translate(-1455.683 -802.648)" fill="#bdd0fb"/>
      <path id="Trazado_100814" data-name="Trazado 100814" d="M1619.7,347.641q.427-.017.854-.027a.562.562,0,1,1,.024,1.123q-.416.009-.831.026a.562.562,0,1,1-.047-1.123Z" transform="translate(-1492.16 -347.614)" fill="#bdd0fb"/>
      <path id="Trazado_100815" data-name="Trazado 100815" d="M1574.982,351.806q.42-.076.841-.144a.562.562,0,1,1,.179,1.109q-.41.066-.82.14a.562.562,0,1,1-.2-1.106Z" transform="translate(-1453.1 -351.15)" fill="#bdd0fb"/>
      <path id="Trazado_100816" data-name="Trazado 100816" d="M1555.567,868.464l.839-.02a.562.562,0,0,1,.03,1.123l-.846.02a.562.562,0,1,1-.023-1.123Z" transform="translate(-1436.035 -803.337)" fill="#bdd0fb"/>
      <path id="Trazado_100817" data-name="Trazado 100817" d="M1622.858,864.872q.418-.032.836-.068a.562.562,0,0,1,.095,1.12q-.422.036-.844.069a.562.562,0,0,1-.087-1.12Z" transform="translate(-1494.942 -800.151)" fill="#bdd0fb"/>
      <path id="Trazado_100818" data-name="Trazado 100818" d="M1667.548,860.12l.833-.106a.562.562,0,1,1,.146,1.114q-.42.055-.84.107a.562.562,0,0,1-.139-1.115Z" transform="translate(-1534.069 -795.958)" fill="#bdd0fb"/>
      <path id="Trazado_100819" data-name="Trazado 100819" d="M1664.678,349.039q.426.041.85.091a.562.562,0,1,1-.132,1.116q-.413-.049-.826-.089a.562.562,0,1,1,.108-1.118Z" transform="translate(-1531.449 -348.859)" fill="#bdd0fb"/>
      <path id="Trazado_100820" data-name="Trazado 100820" d="M1645.229,862.755q.417-.042.834-.087a.562.562,0,0,1,.12,1.118l-.842.087a.562.562,0,1,1-.112-1.118Z" transform="translate(-1514.527 -798.282)" fill="#bdd0fb"/>
      <path id="Trazado_100821" data-name="Trazado 100821" d="M1810.416,402.522a.561.561,0,0,1,.781-.147q.353.241.7.49a.562.562,0,0,1-.653.914q-.338-.242-.681-.476A.562.562,0,0,1,1810.416,402.522Z" transform="translate(-1659.422 -395.444)" fill="#bdd0fb"/>
      <path id="Trazado_100822" data-name="Trazado 100822" d="M1686.993,352q.422.071.842.151a.562.562,0,1,1-.211,1.1q-.408-.078-.817-.147a.562.562,0,1,1,.187-1.108Z" transform="translate(-1550.94 -351.443)" fill="#bdd0fb"/>
      <path id="Trazado_100823" data-name="Trazado 100823" d="M1895.459,771.457a.562.562,0,1,1,.825.763q-.294.317-.6.623l-.007.007a.562.562,0,0,1-.789-.8Q1895.18,771.759,1895.459,771.457Z" transform="translate(-1733.279 -718.317)" fill="#bdd0fb"/>
      <path id="Trazado_100824" data-name="Trazado 100824" d="M1943.593,605.161a.562.562,0,0,1-.632-.481q-.056-.411-.122-.82a.562.562,0,0,1,1.109-.18q.069.424.126.849a.562.562,0,0,1-.481.633Z" transform="translate(-1775.371 -571.257)" fill="#bdd0fb"/>
      <path id="Trazado_100825" data-name="Trazado 100825" d="M1946.106,627.5a.562.562,0,0,1-.587-.536q-.019-.413-.049-.827a.562.562,0,1,1,1.12-.082q.031.429.051.857a.562.562,0,0,1-.536.587Z" transform="translate(-1777.679 -590.79)" fill="#bdd0fb"/>
      <path id="Trazado_100826" data-name="Trazado 100826" d="M1939.173,583.128a.562.562,0,0,1-.671-.425q-.091-.4-.192-.807a.562.562,0,0,1,1.09-.272q.1.416.2.833a.562.562,0,0,1-.425.671Z" transform="translate(-1771.4 -551.999)" fill="#bdd0fb"/>
      <path id="Trazado_100827" data-name="Trazado 100827" d="M1946.377,649.97a.562.562,0,0,1-.533-.589q.021-.412.029-.827a.562.562,0,1,1,1.123.023q-.008.43-.03.86a.562.562,0,0,1-.589.533Z" transform="translate(-1778.006 -610.453)" fill="#bdd0fb"/>
      <path id="Trazado_100828" data-name="Trazado 100828" d="M1944.067,672.381a.561.561,0,0,1-.47-.641q.062-.408.113-.819a.562.562,0,0,1,1.116.136q-.052.428-.118.854a.561.561,0,0,1-.641.47Z" transform="translate(-1776.035 -630.075)" fill="#bdd0fb"/>
      <path id="Trazado_100829" data-name="Trazado 100829" d="M1891.827,481.981a.562.562,0,0,1-.782-.143q-.236-.342-.48-.678a.562.562,0,1,1,.91-.659q.251.346.494.7a.562.562,0,0,1-.07.722A.577.577,0,0,1,1891.827,481.981Z" transform="translate(-1729.545 -463.686)" fill="#bdd0fb"/>
      <path id="Trazado_100830" data-name="Trazado 100830" d="M1904.264,500.693a.562.562,0,0,1-.77-.2q-.211-.358-.431-.711a.562.562,0,1,1,.955-.593q.225.363.443.731a.562.562,0,0,1-.2.77Z" transform="translate(-1740.501 -480.012)" fill="#bdd0fb"/>
      <path id="Trazado_100831" data-name="Trazado 100831" d="M1932.934,561.544a.562.562,0,0,1-.7-.369q-.123-.395-.256-.786a.562.562,0,1,1,1.064-.362q.138.405.266.814a.562.562,0,0,1-.369.7Z" transform="translate(-1765.844 -533.14)" fill="#bdd0fb"/>
      <path id="Trazado_100832" data-name="Trazado 100832" d="M1820.043,822.272q.383-.161.762-.33a.562.562,0,1,1,.458,1.027q-.39.174-.783.339a.562.562,0,1,1-.437-1.036Z" transform="translate(-1667.631 -762.606)" fill="#bdd0fb"/>
      <path id="Trazado_100833" data-name="Trazado 100833" d="M1915.334,520.25a.562.562,0,0,1-.754-.252q-.185-.372-.378-.74a.562.562,0,0,1,.995-.523q.2.378.389.761a.562.562,0,0,1-.111.654A.568.568,0,0,1,1915.334,520.25Z" transform="translate(-1750.264 -497.081)" fill="#bdd0fb"/>
      <path id="Trazado_100834" data-name="Trazado 100834" d="M1924.943,540.557a.562.562,0,0,1-.732-.31q-.116-.285-.236-.567l-.085-.2a.562.562,0,1,1,1.031-.447l.087.2q.125.292.245.587a.562.562,0,0,1-.31.732Z" transform="translate(-1758.757 -514.812)" fill="#bdd0fb"/>
      <path id="Trazado_100835" data-name="Trazado 100835" d="M1938.965,693.788q.108-.4.2-.8a.562.562,0,0,1,1.094.257q-.1.421-.212.837a.562.562,0,1,1-1.084-.3Z" transform="translate(-1771.97 -649.437)" fill="#bdd0fb"/>
      <path id="Trazado_100836" data-name="Trazado 100836" d="M1859.849,800.862q.349-.221.691-.452a.562.562,0,0,1,.706.868.534.534,0,0,1-.078.063q-.355.24-.719.47a.562.562,0,0,1-.6-.95Z" transform="translate(-1702.533 -743.725)" fill="#bdd0fb"/>
      <path id="Trazado_100837" data-name="Trazado 100837" d="M1863.188,447.383a.562.562,0,0,1-.794-.033q-.282-.306-.569-.606a.562.562,0,0,1,.014-.792l0,0a.562.562,0,0,1,.795.016q.3.308.585.623a.562.562,0,0,1-.022.784Z" transform="translate(-1704.354 -433.521)" fill="#bdd0fb"/>
      <path id="Trazado_100838" data-name="Trazado 100838" d="M1845.746,431.1a.562.562,0,0,1,.756-.832q.316.287.627.581a.562.562,0,0,1,.022.794l-.017.017a.562.562,0,0,1-.778,0Q1846.053,431.381,1845.746,431.1Z" transform="translate(-1690.26 -419.81)" fill="#bdd0fb"/>
      <path id="Trazado_100839" data-name="Trazado 100839" d="M1828.541,415.811a.563.563,0,0,1,.789-.092q.335.265.665.536a.563.563,0,0,1,.076.791c-.014.016-.028.032-.043.046a.562.562,0,0,1-.748.03q-.321-.264-.647-.522A.562.562,0,0,1,1828.541,415.811Z" transform="translate(-1675.262 -407.1)" fill="#bdd0fb"/>
      <path id="Trazado_100840" data-name="Trazado 100840" d="M1840.373,812.413q.369-.19.732-.387a.562.562,0,1,1,.538.987q-.376.2-.757.4a.562.562,0,1,1-.513-1Z" transform="translate(-1685.453 -753.912)" fill="#bdd0fb"/>
      <path id="Trazado_100841" data-name="Trazado 100841" d="M1922.037,735.672q.2-.356.391-.719a.562.562,0,1,1,1,.517q-.2.383-.413.759a.571.571,0,0,1-.1.125.562.562,0,0,1-.879-.682Z" transform="translate(-1757.111 -686.269)" fill="#bdd0fb"/>
      <path id="Trazado_100842" data-name="Trazado 100842" d="M1931.806,715.222q.155-.38.3-.766a.562.562,0,1,1,1.056.385q-.148.406-.312.806a.562.562,0,1,1-1.04-.425Z" transform="translate(-1765.687 -668.275)" fill="#bdd0fb"/>
      <path id="Trazado_100843" data-name="Trazado 100843" d="M1877.65,462.734q.274.328.541.661a.562.562,0,0,1-.047.754q-.019.019-.041.036a.562.562,0,0,1-.79-.088q-.26-.325-.526-.644a.562.562,0,1,1,.863-.72Z" transform="translate(-1717.468 -448.167)" fill="#bdd0fb"/>
      <path id="Trazado_100844" data-name="Trazado 100844" d="M1909.81,754.526q.17-.228.333-.459a.562.562,0,0,1,.919.648q-.173.245-.353.486l-.16.21a.584.584,0,0,1-.055.062.562.562,0,0,1-.837-.745Z" transform="translate(-1746.242 -703.05)" fill="#bdd0fb"/>
      <path id="Trazado_100845" data-name="Trazado 100845" d="M1878.141,787.443q.324-.256.638-.521a.562.562,0,0,1,.755.831l-.029.026q-.328.278-.668.545a.562.562,0,0,1-.7-.882Z" transform="translate(-1718.579 -731.89)" fill="#bdd0fb"/>
      <path id="Trazado_100846" data-name="Trazado 100846" d="M1552.985,356.186q.415-.1.831-.2a.562.562,0,0,1,.253,1.1q-.405.094-.808.2a.562.562,0,0,1-.276-1.09Z" transform="translate(-1433.887 -354.925)" fill="#bdd0fb"/>
      <path id="Trazado_100847" data-name="Trazado 100847" d="M949.547,856.326q.42-.052.84-.1a.562.562,0,1,1,.131,1.116q-.416.049-.832.1a.562.562,0,1,1-.139-1.115Z" transform="translate(-905.82 -792.643)" fill="#bdd0fb"/>
      <path id="Trazado_100848" data-name="Trazado 100848" d="M927.277,859.256q.419-.064.838-.124a.562.562,0,1,1,.16,1.112q-.415.06-.829.123a.562.562,0,0,1-.169-1.111Z" transform="translate(-886.347 -795.185)" fill="#bdd0fb"/>
      <path id="Trazado_100849" data-name="Trazado 100849" d="M883.021,866.906q.415-.087.831-.17a.562.562,0,0,1,.22,1.1q-.41.082-.82.168a.562.562,0,0,1-.231-1.1Z" transform="translate(-847.651 -801.834)" fill="#bdd0fb"/>
      <path id="Trazado_100850" data-name="Trazado 100850" d="M905.1,862.776q.417-.075.835-.147a.562.562,0,0,1,.189,1.108q-.413.07-.825.145a.562.562,0,0,1-.2-1.106Z" transform="translate(-866.953 -798.243)" fill="#bdd0fb"/>
      <path id="Trazado_100851" data-name="Trazado 100851" d="M861.073,871.665q.412-.1.825-.194a.562.562,0,1,1,.253,1.095q-.408.094-.816.192a.562.562,0,0,1-.262-1.093Z" transform="translate(-828.46 -805.974)" fill="#bdd0fb"/>
      <path id="Trazado_100852" data-name="Trazado 100852" d="M1533.107,868.855l.84-.006a.562.562,0,0,1,.01,1.124l-.844.006a.562.562,0,0,1-.006-1.124Z" transform="translate(-1416.375 -803.692)" fill="#bdd0fb"/>
      <path id="Trazado_100853" data-name="Trazado 100853" d="M839.277,877.072q.409-.112.82-.219a.562.562,0,0,1,.534.947.556.556,0,0,1-.248.14q-.405.107-.809.217a.562.562,0,1,1-.3-1.084Z" transform="translate(-809.403 -810.68)" fill="#bdd0fb"/>
      <path id="Trazado_100854" data-name="Trazado 100854" d="M1039.165,849.675q.423-.017.845-.03a.562.562,0,1,1,.038,1.123l-.84.03a.562.562,0,1,1-.043-1.123Z" transform="translate(-984.194 -786.888)" fill="#bdd0fb"/>
      <path id="Trazado_100855" data-name="Trazado 100855" d="M971.884,853.947l.842-.082a.562.562,0,0,1,.105,1.119q-.417.039-.835.081a.562.562,0,1,1-.112-1.118Z" transform="translate(-925.353 -790.579)" fill="#bdd0fb"/>
      <path id="Trazado_100856" data-name="Trazado 100856" d="M1061.641,849.1l.845-.016a.562.562,0,0,1,.019,1.123l-.84.016a.562.562,0,0,1-.024-1.123Z" transform="translate(-1003.852 -786.394)" fill="#bdd0fb"/>
      <path id="Trazado_100857" data-name="Trazado 100857" d="M1016.707,850.652l.844-.047a.562.562,0,0,1,.059,1.122l-.838.046a.562.562,0,0,1-.065-1.122Z" transform="translate(-964.553 -787.728)" fill="#bdd0fb"/>
      <path id="Trazado_100858" data-name="Trazado 100858" d="M994.273,852.064l.844-.064a.562.562,0,0,1,.081,1.121l-.837.063a.562.562,0,0,1-.088-1.121Z" transform="translate(-944.933 -788.949)" fill="#bdd0fb"/>
      <path id="Trazado_100859" data-name="Trazado 100859" d="M655.769,958.613q.349-.243.7-.482a.562.562,0,0,1,.707.868.572.572,0,0,1-.076.062q-.346.234-.688.474a.562.562,0,1,1-.643-.922Z" transform="translate(-648.987 -881.729)" fill="#bdd0fb"/>
      <path id="Trazado_100860" data-name="Trazado 100860" d="M1084.12,848.88l.846,0a.562.562,0,0,1,0,1.124l-.84,0a.562.562,0,0,1-.007-1.124Z" transform="translate(-1023.514 -786.217)" fill="#bdd0fb"/>
      <path id="Trazado_100861" data-name="Trazado 100861" d="M637.63,971.692q.337-.259.677-.513a.562.562,0,0,1,.729.852.528.528,0,0,1-.055.047q-.334.25-.665.5a.562.562,0,1,1-.685-.891Z" transform="translate(-633.133 -893.133)" fill="#bdd0fb"/>
      <path id="Trazado_100862" data-name="Trazado 100862" d="M603.375,1000.372q.31-.292.625-.578a.562.562,0,0,1,.77.818l-.013.012q-.308.281-.612.567a.562.562,0,1,1-.77-.819Z" transform="translate(-603.195 -918.14)" fill="#bdd0fb"/>
      <path id="Trazado_100863" data-name="Trazado 100863" d="M674.5,946.379q.359-.228.721-.45a.562.562,0,0,1,.589.957q-.356.219-.709.442a.562.562,0,0,1-.6-.95Z" transform="translate(-665.36 -871.064)" fill="#bdd0fb"/>
      <path id="Trazado_100864" data-name="Trazado 100864" d="M620.152,985.614q.324-.276.652-.546a.562.562,0,0,1,.749.836l-.035.031q-.321.265-.639.535a.562.562,0,0,1-.728-.856Z" transform="translate(-617.859 -905.271)" fill="#bdd0fb"/>
      <path id="Trazado_100865" data-name="Trazado 100865" d="M733.688,914.621q.385-.18.771-.357a.562.562,0,1,1,.467,1.022q-.381.174-.76.352a.562.562,0,1,1-.478-1.017Z" transform="translate(-717.094 -843.385)" fill="#bdd0fb"/>
      <path id="Trazado_100866" data-name="Trazado 100866" d="M775.106,897.4q.4-.152.795-.3a.562.562,0,1,1,.391,1.054q-.393.146-.784.3a.562.562,0,1,1-.4-1.049Z" transform="translate(-753.3 -828.383)" fill="#bdd0fb"/>
      <path id="Trazado_100867" data-name="Trazado 100867" d="M754.236,905.632q.39-.166.784-.328a.562.562,0,1,1,.428,1.039q-.387.16-.772.323a.562.562,0,1,1-.44-1.034Z" transform="translate(-735.055 -835.553)" fill="#bdd0fb"/>
      <path id="Trazado_100868" data-name="Trazado 100868" d="M713.519,924.393q.377-.2.757-.388a.562.562,0,1,1,.506,1q-.373.188-.744.381a.562.562,0,0,1-.519-1Z" transform="translate(-699.463 -851.901)" fill="#bdd0fb"/>
      <path id="Trazado_100869" data-name="Trazado 100869" d="M693.772,934.976q.368-.212.74-.419a.562.562,0,1,1,.547.982q-.366.2-.728.411a.562.562,0,1,1-.559-.974Z" transform="translate(-682.203 -861.124)" fill="#bdd0fb"/>
      <path id="Trazado_100870" data-name="Trazado 100870" d="M796.262,889.918q.4-.138.8-.272a.562.562,0,1,1,.354,1.067q-.4.132-.794.268a.562.562,0,0,1-.365-1.063Z" transform="translate(-771.795 -821.865)" fill="#bdd0fb"/>
      <path id="Trazado_100871" data-name="Trazado 100871" d="M817.664,883.147q.406-.124.813-.245a.562.562,0,1,1,.319,1.078q-.4.119-.8.242a.562.562,0,0,1-.329-1.075Z" transform="translate(-790.507 -815.968)" fill="#bdd0fb"/>
      <path id="Trazado_100872" data-name="Trazado 100872" d="M1443.263,867.07l.841.034a.562.562,0,0,1-.045,1.123l-.844-.034a.562.562,0,1,1,.047-1.123Z" transform="translate(-1337.738 -802.135)" fill="#bdd0fb"/>
      <path id="Trazado_100873" data-name="Trazado 100873" d="M1465.717,867.917l.842.026a.562.562,0,0,1-.034,1.123l-.844-.026a.562.562,0,0,1,.036-1.123Z" transform="translate(-1357.39 -802.876)" fill="#bdd0fb"/>
      <path id="Trazado_100874" data-name="Trazado 100874" d="M1375.932,863.452l.842.052a.562.562,0,0,1-.069,1.122l-.842-.052a.562.562,0,0,1,.07-1.122Z" transform="translate(-1278.815 -798.969)" fill="#bdd0fb"/>
      <path id="Trazado_100875" data-name="Trazado 100875" d="M1469.762,389.5a.561.561,0,0,1,.2-.77q.368-.218.741-.428a.562.562,0,1,1,.552.979q-.362.2-.719.415A.561.561,0,0,1,1469.762,389.5Z" transform="translate(-1361.369 -383.156)" fill="#bdd0fb"/>
      <path id="Trazado_100876" data-name="Trazado 100876" d="M1398.37,864.806l.841.047a.562.562,0,1,1-.062,1.122l-.843-.047a.562.562,0,1,1,.064-1.122Z" transform="translate(-1298.45 -800.154)" fill="#bdd0fb"/>
      <path id="Trazado_100877" data-name="Trazado 100877" d="M1420.819,866.022l.84.042a.562.562,0,1,1-.054,1.122l-.844-.042a.562.562,0,1,1,.058-1.122Z" transform="translate(-1318.095 -801.218)" fill="#bdd0fb"/>
      <path id="Trazado_100878" data-name="Trazado 100878" d="M1531.367,362.078q.406-.133.815-.258a.562.562,0,0,1,.555.941.555.555,0,0,1-.227.134q-.4.122-.792.252a.562.562,0,1,1-.351-1.068Z" transform="translate(-1415.003 -360.022)" fill="#bdd0fb"/>
      <path id="Trazado_100879" data-name="Trazado 100879" d="M1510.644,868.864l.84.006a.562.562,0,1,1-.005,1.124l-.845-.005a.562.562,0,0,1,.01-1.124Z" transform="translate(-1396.713 -803.705)" fill="#bdd0fb"/>
      <path id="Trazado_100880" data-name="Trazado 100880" d="M1510.251,369.48q.4-.162.794-.315a.562.562,0,0,1,.594.928.555.555,0,0,1-.189.121q-.388.15-.773.307a.562.562,0,1,1-.426-1.04Z" transform="translate(-1396.559 -366.437)" fill="#bdd0fb"/>
      <path id="Trazado_100881" data-name="Trazado 100881" d="M1488.18,868.525l.84.016a.562.562,0,1,1-.02,1.124l-.845-.017a.562.562,0,1,1,.024-1.123Z" transform="translate(-1377.051 -803.409)" fill="#bdd0fb"/>
      <path id="Trazado_100882" data-name="Trazado 100882" d="M1490.989,379.013q-.376.177-.748.362a.562.562,0,0,1-.5-1.007q.383-.19.77-.372a.562.562,0,1,1,.478,1.017Z" transform="translate(-1378.646 -374.151)" fill="#bdd0fb"/>
      <path id="Trazado_100883" data-name="Trazado 100883" d="M1106.61,848.935l.845.009a.562.562,0,1,1-.014,1.123l-.841-.009a.562.562,0,1,1,.01-1.124Z" transform="translate(-1043.185 -786.268)" fill="#bdd0fb"/>
      <path id="Trazado_100884" data-name="Trazado 100884" d="M1218.947,853.011l.843.049a.562.562,0,0,1-.067,1.122l-.84-.049a.562.562,0,0,1,.064-1.122Z" transform="translate(-1141.456 -789.833)" fill="#bdd0fb"/>
      <path id="Trazado_100885" data-name="Trazado 100885" d="M1174.038,850.736l.844.037a.562.562,0,1,1-.05,1.123l-.841-.037a.562.562,0,0,1,.047-1.123Z" transform="translate(-1102.168 -787.843)" fill="#bdd0fb"/>
      <path id="Trazado_100886" data-name="Trazado 100886" d="M1196.5,851.789l.843.044a.562.562,0,1,1-.059,1.122l-.841-.044a.562.562,0,0,1,.057-1.122Z" transform="translate(-1121.815 -788.764)" fill="#bdd0fb"/>
      <path id="Trazado_100887" data-name="Trazado 100887" d="M1353.5,861.994l.84.056a.562.562,0,1,1-.074,1.121l-.842-.056a.562.562,0,1,1,.076-1.121Z" transform="translate(-1259.184 -797.693)" fill="#bdd0fb"/>
      <path id="Trazado_100888" data-name="Trazado 100888" d="M1151.573,849.887l.843.029a.562.562,0,1,1-.04,1.123l-.842-.029a.562.562,0,1,1,.038-1.123Z" transform="translate(-1082.515 -787.1)" fill="#bdd0fb"/>
      <path id="Trazado_100889" data-name="Trazado 100889" d="M1129.093,849.278l.845.02a.562.562,0,0,1-.028,1.123l-.841-.02a.562.562,0,0,1,.024-1.124Z" transform="translate(-1062.851 -786.568)" fill="#bdd0fb"/>
      <path id="Trazado_100890" data-name="Trazado 100890" d="M1241.387,854.366l.842.054a.562.562,0,1,1-.072,1.121l-.84-.054a.562.562,0,1,1,.071-1.121Z" transform="translate(-1161.088 -791.019)" fill="#bdd0fb"/>
      <path id="Trazado_100891" data-name="Trazado 100891" d="M1308.663,858.9l.841.059a.562.562,0,0,1-.079,1.121l-.84-.059a.562.562,0,1,1,.078-1.121Z" transform="translate(-1219.951 -794.99)" fill="#bdd0fb"/>
      <path id="Trazado_100892" data-name="Trazado 100892" d="M1331.082,860.463l.84.058a.562.562,0,1,1-.077,1.121l-.841-.058a.562.562,0,1,1,.078-1.121Z" transform="translate(-1239.567 -796.353)" fill="#bdd0fb"/>
      <path id="Trazado_100893" data-name="Trazado 100893" d="M1263.818,855.822l.842.056a.562.562,0,1,1-.076,1.121l-.841-.056a.562.562,0,1,1,.075-1.121Z" transform="translate(-1180.713 -792.293)" fill="#bdd0fb"/>
      <path id="Trazado_100894" data-name="Trazado 100894" d="M1286.245,857.343l.84.058a.562.562,0,0,1-.078,1.121l-.841-.058a.562.562,0,1,1,.078-1.121Z" transform="translate(-1200.334 -793.624)" fill="#bdd0fb"/>
    </g>
    <g id="Grupo_53762" data-name="Grupo 53762" transform="translate(293.748 224.83)">
      <g id="Grupo_53758" data-name="Grupo 53758" transform="translate(0 0)">
        <path id="Trazado_100895" data-name="Trazado 100895" d="M1480.538,1474.376a.488.488,0,0,1,.013-.126,6.585,6.585,0,0,1,3.2-3.773l1.237.1c.712,2.2,1.171,3.272,1.056,3.873,0,.017-.008.033-.013.049A29.372,29.372,0,0,1,1480.538,1474.376Z" transform="translate(-1472.387 -1393.446)" fill="url(#linear-gradient-55)"/>
        <path id="Trazado_100896" data-name="Trazado 100896" d="M1486.035,1501.791a.537.537,0,0,1-.393.4,16.988,16.988,0,0,1-4.729-.067.451.451,0,0,1-.374-.449A29.363,29.363,0,0,0,1486.035,1501.791Z" transform="translate(-1472.388 -1420.742)" fill="url(#linear-gradient-56)"/>
        <path id="Trazado_100897" data-name="Trazado 100897" d="M1498.1,1455.071l.542,2.608a.426.426,0,0,0,.364.351,3.605,3.605,0,0,0,.839-.013.536.536,0,0,0,.425-.63l-.377-2.316Z" transform="translate(-1487.758 -1379.967)" fill="url(#linear-gradient-57)"/>
        <path id="Trazado_100898" data-name="Trazado 100898" d="M1592.106,1500.093a7.147,7.147,0,0,1-2.359-.337c0,.131,0,.265,0,.4a.261.261,0,0,0,.249.265l7.257-.047a.331.331,0,0,0,.266-.482C1596.573,1499.974,1594.15,1500.15,1592.106,1500.093Z" transform="translate(-1567.945 -1419.066)" fill="url(#linear-gradient-58)"/>
        <path id="Trazado_100899" data-name="Trazado 100899" d="M1597.527,1475.986a.365.365,0,0,0-.029-.055,9.247,9.247,0,0,0-5.5-3.452l-1.548-.049a7.424,7.424,0,0,0-.7,3.416,7.147,7.147,0,0,0,2.359.337C1594.152,1476.241,1596.575,1476.065,1597.527,1475.986Z" transform="translate(-1567.947 -1395.157)" fill="url(#linear-gradient-59)"/>
        <path id="Trazado_100900" data-name="Trazado 100900" d="M1593.07,1451.044c.017.115.229,1.868.311,2.548a.337.337,0,0,0,.284.3,3.54,3.54,0,0,0,1.063-.016.458.458,0,0,0,.347-.459v-2.752Z" transform="translate(-1570.852 -1376.115)" fill="url(#linear-gradient-60)"/>
        <path id="Trazado_100901" data-name="Trazado 100901" d="M1495.761,1181.068s-2.476,22.009-1.1,35.765a10.645,10.645,0,0,0,2.476-.275s2.573-21.519,3.405-27.677a.207.207,0,0,1,.408-.013c1.027,5.181,5.061,25.5,5.54,27.415a3.43,3.43,0,0,0,2.476,0s-2.2-29.437-3.852-34.664Z" transform="translate(-1484.381 -1140.215)" fill="url(#linear-gradient-61)"/>
        <path id="Trazado_100902" data-name="Trazado 100902" d="M1466.507,972.232s10.454-1.651,18.708.55l-.551,8.529s-2.2,11.83-3.852,17.057c0,0-6.328,1.1-9.354-.55,0,0-2.476-14.856-3.851-17.057C1467.607,980.761,1466.232,974.983,1466.507,972.232Z" transform="translate(-1460.078 -956.965)" fill="url(#linear-gradient-62)"/>
        <path id="Trazado_100903" data-name="Trazado 100903" d="M1517.57,916.255l-1.041,7.043s2.91,1.337,4.947-.057l-.439-4.971Z" transform="translate(-1503.879 -908.505)" fill="url(#linear-gradient-63)"/>
        <path id="Trazado_100904" data-name="Trazado 100904" d="M1421.762,976.392s-16.232,17.607,2.889,24.348v-1.376s-7.153-6.053-1.651-14.306C1423,985.058,1422.313,977.217,1421.762,976.392Z" transform="translate(-1415.333 -961.125)" fill="url(#linear-gradient-64)"/>
        <path id="Trazado_100905" data-name="Trazado 100905" d="M1488.563,1152.772s2.476-1.651,3.577-1.1a1.7,1.7,0,0,1,1.1,1.376s-.55,1.1-1.376.825-2.751.275-3.576,0C1488.289,1153.873,1488.013,1152.772,1488.563,1152.772Z" transform="translate(-1479.109 -1114.396)" fill="url(#linear-gradient-65)"/>
        <path id="Trazado_100906" data-name="Trazado 100906" d="M1601.011,980.793s16.919,17.057-2.2,23.8v-1.376s7.153-6.053,1.651-14.306C1600.461,988.909,1599.911,982.169,1601.011,980.793Z" transform="translate(-1575.875 -964.976)" fill="url(#linear-gradient-66)"/>
        <path id="Trazado_100907" data-name="Trazado 100907" d="M1564.974,1152.772s-2.476-1.651-3.576-1.1a1.7,1.7,0,0,0-1.1,1.376s.55,1.1,1.375.825,2.751.275,3.577,0C1565.249,1153.873,1565.524,1152.772,1564.974,1152.772Z" transform="translate(-1542.176 -1114.396)" fill="url(#linear-gradient-67)"/>
        <g id="Grupo_53757" data-name="Grupo 53757" transform="translate(10.957)">
          <path id="Trazado_100908" data-name="Trazado 100908" d="M1522.133,873.321c.07.066,2.97,5.76,2.97,5.76l-3.286,1.586-3.55-4.988S1520.955,872.212,1522.133,873.321Z" transform="translate(-1516.357 -870.747)" fill="url(#linear-gradient-68)"/>
          <path id="Trazado_100909" data-name="Trazado 100909" d="M1506.354,859.329a.525.525,0,0,0,.04.46l1.639,2.732a.506.506,0,0,0,.09.112.86.86,0,0,0,1.379-.009,4.623,4.623,0,0,1,1.295-1.4.524.524,0,0,1,.707.233,19.585,19.585,0,0,1,1.122,2.661.522.522,0,0,1-.3.64,14.532,14.532,0,0,1-3.148.918.524.524,0,0,1-.5-.211c-.5-.688-1.917-2.61-2.4-3.091-.449-.447-1.277-.279-1.65-.171a.527.527,0,0,1-.419-.055,1.155,1.155,0,0,1-.435-1.757.524.524,0,0,0-.162-.713,1.16,1.16,0,0,1-.444-1.645,1.635,1.635,0,0,1,1.77-.867.544.544,0,0,0,.571-.318.347.347,0,0,1,.271-.213.509.509,0,0,0,.412-.6,1.342,1.342,0,0,1,.75-1.538c1.418-.78,2.66.491,2.976,1.563s-1.269,1.83-2.267,1.957C1506.917,858.112,1506.515,858.911,1506.354,859.329Z" transform="translate(-1502.99 -854.258)" fill="url(#linear-gradient-69)"/>
          <path id="Trazado_100910" data-name="Trazado 100910" d="M1517.466,914.753s-.631-1.845-1.438-1.777-1.442.872-.442,1.775C1516.83,915.876,1517.466,914.753,1517.466,914.753Z" transform="translate(-1513.563 -905.635)" fill="url(#linear-gradient-70)"/>
        </g>
      </g>
      <path id="Trazado_100911" data-name="Trazado 100911" d="M1415.334,1017.418l16.285,6.162.285,22.095-13.772-4.408Z" transform="translate(-1415.334 -997.023)" fill="#7d97f4"/>
      <path id="Trazado_100912" data-name="Trazado 100912" d="M1562.19,1017.418l-16.58,6.162.011,22.095,13.772-4.408Z" transform="translate(-1529.324 -997.023)" fill="#7d97f4"/>
      <g id="Grupo_53759" data-name="Grupo 53759" transform="translate(17.241 22.179)">
        <path id="Trazado_100913" data-name="Trazado 100913" d="M1553.256,1037.223l14.811-5.537-.719,4.5-14.092,4.144Z" transform="translate(-1553.256 -1031.686)" fill="#bdd0fb"/>
        <path id="Trazado_100914" data-name="Trazado 100914" d="M1555.487,1102.452l4.74-1.653-.7,14.4-3.723,1.4Z" transform="translate(-1555.208 -1092.159)" fill="#bdd0fb"/>
        <path id="Trazado_100915" data-name="Trazado 100915" d="M1599.174,1082.592l7.46-2.6-1.475,11.339-6.349,1.3Z" transform="translate(-1593.116 -1073.953)" fill="#bdd0fb"/>
        <path id="Trazado_100916" data-name="Trazado 100916" d="M1598.208,1182.413l6.181-1.345v2.188l-6.181,1.732Z" transform="translate(-1592.589 -1162.395)" fill="#bdd0fb"/>
      </g>
      <g id="Grupo_53761" data-name="Grupo 53761" transform="translate(1.488 22.624)">
        <g id="Grupo_53760" data-name="Grupo 53760">
          <path id="Trazado_100917" data-name="Trazado 100917" d="M1440.463,1040.336l-13.224-5.092.244,2.529,12.98,4.121Z" transform="translate(-1427.239 -1035.244)" fill="#91b3fa"/>
        </g>
        <path id="Trazado_100918" data-name="Trazado 100918" d="M1443.733,1079.574l-12.713-3.594,1.686,15.605,11.477,3.3Z" transform="translate(-1430.547 -1070.887)" fill="#91b3fa"/>
      </g>
      <path id="Trazado_100919" data-name="Trazado 100919" d="M1423.309,1122.6c-.07-.161-1.391-2.488-.434-3.339s1.413.1,1.347,1.12S1423.842,1123.812,1423.309,1122.6Z" transform="translate(-1421.629 -1085.842)" fill="url(#linear-gradient-18)"/>
      <path id="Trazado_100920" data-name="Trazado 100920" d="M1659.444,1122.6c.07-.161,1.391-2.488.434-3.339s-1.413.1-1.347,1.12S1658.911,1123.812,1659.444,1122.6Z" transform="translate(-1628.125 -1085.842)" fill="url(#linear-gradient-72)"/>
    </g>
  </g>
</svg>
