<svg xmlns="http://www.w3.org/2000/svg" width="366.705" height="267.144" viewBox="0 0 366.705 267.144">
  <g id="Grupo_21005" data-name="Grupo 21005" transform="translate(-1506.436 -771.213)">
    <rect id="Rectángulo_5092" data-name="Rectángulo 5092" width="366.705" height="87" rx="10" transform="translate(1506.436 904.524)" fill="#eaf0f4"/>
    <path id="Rectángulo_5093" data-name="Rectángulo 5093" d="M1549.5,1024.123h137.858a3.478,3.478,0,0,1,3.479,3.479h0a3.478,3.478,0,0,1-3.479,3.478H1549.5a3.479,3.479,0,0,1-3.479-3.478h0A3.479,3.479,0,0,1,1549.5,1024.123Z" fill="#c7d7e2"/>
    <rect id="Rectángulo_5094" data-name="Rectángulo 5094" width="110.408" height="9.471" rx="4.735" transform="translate(1713.985 1021.61)" fill="#c7d7e2"/>
    <rect id="Rectángulo_5095" data-name="Rectángulo 5095" width="176.852" height="10.755" rx="5.377" transform="translate(1615.742 1027.602)" fill="#c7d7e2"/>
    <g id="Grupo_20915" data-name="Grupo 20915">
      <path id="Trazado_3046" data-name="Trazado 3046" d="M1633.2,818.471c-.332,6.5-1.431,18.734-1.431,18.734l14.916.033-1.085-20.345-5.443-2.816Z" fill="#56548c"/>
      <path id="Trazado_3047" data-name="Trazado 3047" d="M1664.714,851.256c-1.3,1.676-11.746-5-15.967-8.164s-6.981-6.409-5.388-8.456,5.418-.168,9.52,3.147S1666.018,849.578,1664.714,851.256Z" fill="#ffc8af"/>
      <path id="Trazado_3048" data-name="Trazado 3048" d="M1648.138,834.483a27,27,0,0,1,4.741,3.3l-3.423,4.87-1.812-6.9Z" fill="#ff6e27"/>
      <path id="Trazado_3049" data-name="Trazado 3049" d="M1646.251,905.714c2.945.119,5.192-16.172,5.609-23.155S1651.3,870,1647.7,869.851s-5.022,5.336-5.171,12.33S1643.307,905.595,1646.251,905.714Z" fill="#ffc8af"/>
      <path id="Trazado_3050" data-name="Trazado 3050" d="M1644.848,940.595c2.613.106,4.269-23.075,4.478-28.262s.03-10.68-2.9-10.8-3.551,5.341-3.761,10.529S1642.231,940.495,1644.848,940.595Z" fill="#ffc8af"/>
      <path id="Trazado_3051" data-name="Trazado 3051" d="M1632.5,905.7c2.936.269,6.01-15.887,6.78-22.84s.078-12.574-3.506-12.9-5.287,5.074-5.792,12.051S1629.568,905.434,1632.5,905.7Z" fill="#ffc8af"/>
      <path id="Trazado_3052" data-name="Trazado 3052" d="M1629.767,940.487c2.6.238,5-22.847,5.469-28.018s.574-10.664-2.345-10.931-3.818,5.154-4.292,10.323S1627.159,940.249,1629.767,940.487Z" fill="#ffc8af"/>
      <path id="Trazado_3053" data-name="Trazado 3053" d="M1631.012,875.213h20.719s-1.8-9.212-1.892-12.535c-.076-2.731-1.163-11.409-1.163-11.409s2.5-3.764,2.484-5.735c-.02-2.977-5.049-11.1-5.049-11.1l-7.281-2.237-4.942,1.176c-3.093.59-3.186,3.524-3.186,6.673,0,9.509,3.99,15.963,3.624,21.41C1634.094,864.947,1631.012,875.213,1631.012,875.213Z" fill="#ffc8af"/>
      <g id="Grupo_20914" data-name="Grupo 20914">
        <path id="Trazado_3054" data-name="Trazado 3054" d="M1636.466,826.09v7.422a9.34,9.34,0,0,0,4.438.794c1.676,0,2.053-.794,2.053-.794v-2.325Z" fill="#ffc8af"/>
        <path id="Trazado_3055" data-name="Trazado 3055" d="M1636.335,822.173c.014.229.022.443.037.651,0,.074-.008.148-.008.228-.155,3.753.244,6.658,4.507,8.164.775.1,3.487.683,4.515-.447a12.444,12.444,0,0,0,2.155-5.954v-.052c-.015-1.167-.183-1.488-.183-2.16,0-.524.282-2.166.287-2.879a8.6,8.6,0,0,0-.962-3.621,5.454,5.454,0,0,0-5.272-3.052C1635.405,813.056,1636.165,818.143,1636.335,822.173Z" fill="#ffc8af"/>
        <path id="Trazado_3056" data-name="Trazado 3056" d="M1637.8,821.154a53.883,53.883,0,0,1-2.722,5.048s-2.144-4.542-1.882-7.732c.379-4.625,3.411-4.027,3.411-4.027,2.173-2.953,7.408-2.264,9.887.9,1.3,1.657,1.988,3.966,1.662,5.063-.15.506-.787,1.958-.787,1.958l.171-1.167c-.478-2.627-4.986-2.383-7.495-4.553A47.178,47.178,0,0,0,1637.8,821.154Z" fill="#56548c"/>
        <path id="Trazado_3057" data-name="Trazado 3057" d="M1638.421,819.087v-.029" fill="#bd884c"/>
        <g id="Grupo_20913" data-name="Grupo 20913">
          <path id="Trazado_3058" data-name="Trazado 3058" d="M1636.417,822.408c-.476-.112-1.6-.5-1.394,1.166.356,2.884,2.047,2.7,2.047,2.7-.1-.409-.251-.986-.376-1.655.459-.275.046-.6.024-.937a.993.993,0,0,1-.046-.282A10.156,10.156,0,0,1,1636.417,822.408Z" fill="#ffc8af"/>
          <path id="Trazado_3059" data-name="Trazado 3059" d="M1636.518,823.449s-.528-.512-.928-.307-.116,1.128.2,1.678.667.6.728.444-.642-.475-.393-.735.5-.3.481-.457S1636.518,823.449,1636.518,823.449Z" fill="#e5a288"/>
          <path id="Trazado_3060" data-name="Trazado 3060" d="M1637.8,820.72a23.032,23.032,0,0,1-1.029,3.4l-.537-2.063Z" fill="#56548c"/>
        </g>
        <path id="Trazado_3061" data-name="Trazado 3061" d="M1642.212,831.4a8.032,8.032,0,0,1-4.332-2.016,2.663,2.663,0,0,0,1.3,1.666A6.544,6.544,0,0,0,1642.212,831.4Z" fill="#e5a288"/>
      </g>
      <path id="Trazado_3062" data-name="Trazado 3062" d="M1643.03,939.53l-.128,2.692a.7.7,0,0,0,.7.691h7.249c.66,0,1.559-1.207,1-1.548-1.218-.739-3.38-1.809-4.618-2.373-.116-.052-1.165-22.07-2.259-22.081C1643.973,916.9,1643.03,939.53,1643.03,939.53Z" fill="#ffc8af"/>
      <path id="Trazado_3063" data-name="Trazado 3063" d="M1628.12,939.369v2.539a4.944,4.944,0,0,0,1.734,1.461c1.825.777,4.654.3,4.794-.331s-1.774-2.9-1.774-2.9a7.309,7.309,0,0,1-.785-1.205s-.986-22.048-2.022-22.016C1628.935,916.948,1628.12,939.369,1628.12,939.369Z" fill="#ffc8af"/>
      <path id="Trazado_3064" data-name="Trazado 3064" d="M1652.019,942.914h-8.909a.208.208,0,0,1-.209-.207h0v-1.4c1.789.014,5.883.07,6.124.017a4.594,4.594,0,0,0,1.211-1.189,22.514,22.514,0,0,1,2.255,1.372.782.782,0,0,1-.472,1.408Z" fill="#f08879"/>
      <path id="Trazado_3065" data-name="Trazado 3065" d="M1629.854,943.365a4.952,4.952,0,0,1-1.732-1.456v-1.155l1.732,1.038c1.226-1.3,3.5-1.671,4.068-.537h0a3.091,3.091,0,0,1,.726,1.779C1634.506,943.666,1631.678,944.142,1629.854,943.365Z" fill="#f08879"/>
      <path id="Trazado_3066" data-name="Trazado 3066" d="M1652.586,904.382s-.322-20.96-.634-27.838c-.291-6.415-2.612-26.351-2.612-26.351a9.953,9.953,0,0,0,2.06-5.106,26.9,26.9,0,0,0-2.088-5.741c-.321-.731.108-3.58-1.174-4.862-.993-.993-5.181-.971-5.181-.971,2.419.7,2.993,4.049,2.639,4.309a25.963,25.963,0,0,1-5.884,0c-.864-.186-2.436-4.375-4.713-4.717a5.317,5.317,0,0,0-3.232.852c-1.69,1.057-2.372,4.03-2.372,4.03s6.237-.164,5.844,3.505c-.009.09-.02.18-.033.274-.491,3.729-3.1,10.33-3.1,10.33a18.506,18.506,0,0,1,1.055,8.338c-.7,5.37-8.192,43.95-8.192,43.95Z" fill="#f08879"/>
      <path id="Trazado_3067" data-name="Trazado 3067" d="M1652.586,904.382s-.322-20.96-.634-27.838c-.291-6.415-2.612-26.351-2.612-26.351a9.953,9.953,0,0,0,2.06-5.106,26.9,26.9,0,0,0-2.088-5.741c-.321-.731.108-3.58-1.174-4.862-.993-.993-5.181-.971-5.181-.971,2.419.7,2.993,4.049,2.639,4.309a25.963,25.963,0,0,1-5.884,0c-.864-.186-2.436-4.375-4.713-4.717a5.317,5.317,0,0,0-3.232.852c-1.69,1.057-2.372,4.03-2.372,4.03s6.237-.164,5.844,3.505c-.009.09-.02.18-.033.274-.491,3.729-3.1,10.33-3.1,10.33a18.506,18.506,0,0,1,1.055,8.338c-.7,5.37-8.192,43.95-8.192,43.95Z" fill="#ff6e27"/>
    </g>
    <path id="Trazado_3068" data-name="Trazado 3068" d="M1827.1,867.266a42.029,42.029,0,0,0-5.258-17.958l5.209-2.9a48.114,48.114,0,0,0-10.06-12.541l-3.966,4.462a41.927,41.927,0,0,0-16.4-9.018l1.625-5.711-.074-.02a48.074,48.074,0,0,0-13.1-1.825q-1.413,0-2.816.083l.352,5.954a42.044,42.044,0,0,0-17.963,5.243l-2.9-5.211a48.14,48.14,0,0,0-12.55,10.051l4.46,3.97a41.928,41.928,0,0,0-9.029,16.39l-5.71-1.63-.032.111a48.079,48.079,0,0,0-1.825,13.1q0,1.4.081,2.778l5.954-.347a42.032,42.032,0,0,0,5.227,17.967l-5.213,2.9a48.153,48.153,0,0,0,10.041,12.557l3.973-4.456a41.924,41.924,0,0,0,16.383,9.042l-1.636,5.71.149.043a48.082,48.082,0,0,0,13.1,1.825q1.452,0,2.9-.088l-.362-5.952a42.029,42.029,0,0,0,17.953-5.274l2.908,5.207a48.152,48.152,0,0,0,12.534-10.071l-4.466-3.963a41.941,41.941,0,0,0,9.006-16.4l5.709,1.621.011-.036a48,48,0,0,0,1.825-13.1q0-1.433-.085-2.855Zm-52.428,39.384h0l.294-1.036Zm34.919-29.934a25.417,25.417,0,1,1,.969-6.944,25.418,25.418,0,0,1-.969,6.944Z" fill="#fbd15b"/>
    <g id="Grupo_20930" data-name="Grupo 20930">
      <g id="Grupo_20916" data-name="Grupo 20916">
        <rect id="Rectángulo_5096" data-name="Rectángulo 5096" width="197.273" height="145.242" rx="13.287" transform="translate(1588.749 866.092)" fill="#f9fbfc"/>
        <path id="Trazado_3069" data-name="Trazado 3069" d="M1774.214,1012.223H1600.558a12.713,12.713,0,0,1-12.7-12.7V877.9a12.713,12.713,0,0,1,12.7-12.7h173.656a12.711,12.711,0,0,1,12.7,12.7V999.526A12.71,12.71,0,0,1,1774.214,1012.223ZM1600.558,866.981a10.932,10.932,0,0,0-10.921,10.919V999.526a10.932,10.932,0,0,0,10.921,10.92h173.656a10.931,10.931,0,0,0,10.919-10.92V877.9a10.931,10.931,0,0,0-10.919-10.919Z" fill="#b52426"/>
      </g>
      <g id="Grupo_20928" data-name="Grupo 20928">
        <rect id="Rectángulo_5097" data-name="Rectángulo 5097" width="101.83" height="63.502" rx="4.417" transform="translate(1599.561 904.023)" fill="#c7d7e2"/>
        <g id="Grupo_20924" data-name="Grupo 20924">
          <g id="Grupo_20917" data-name="Grupo 20917">
            <rect id="Rectángulo_5098" data-name="Rectángulo 5098" width="0.969" height="51.42" transform="translate(1689.383 910.064)" fill="#f9fbfc"/>
          </g>
          <g id="Grupo_20918" data-name="Grupo 20918">
            <rect id="Rectángulo_5099" data-name="Rectángulo 5099" width="0.969" height="51.42" transform="translate(1676.253 910.064)" fill="#f9fbfc"/>
          </g>
          <g id="Grupo_20919" data-name="Grupo 20919">
            <rect id="Rectángulo_5100" data-name="Rectángulo 5100" width="0.969" height="51.42" transform="translate(1663.121 910.064)" fill="#f9fbfc"/>
          </g>
          <g id="Grupo_20920" data-name="Grupo 20920">
            <rect id="Rectángulo_5101" data-name="Rectángulo 5101" width="0.969" height="51.42" transform="translate(1649.991 910.064)" fill="#f9fbfc"/>
          </g>
          <g id="Grupo_20921" data-name="Grupo 20921">
            <rect id="Rectángulo_5102" data-name="Rectángulo 5102" width="0.969" height="51.42" transform="translate(1636.861 910.064)" fill="#f9fbfc"/>
          </g>
          <g id="Grupo_20922" data-name="Grupo 20922">
            <rect id="Rectángulo_5103" data-name="Rectángulo 5103" width="0.969" height="51.42" transform="translate(1610.6 910.064)" fill="#f9fbfc"/>
          </g>
          <g id="Grupo_20923" data-name="Grupo 20923">
            <rect id="Rectángulo_5104" data-name="Rectángulo 5104" width="0.969" height="51.42" transform="translate(1623.73 910.064)" fill="#f9fbfc"/>
          </g>
        </g>
        <g id="Grupo_20927" data-name="Grupo 20927">
          <g id="Grupo_20925" data-name="Grupo 20925">
            <path id="Trazado_3070" data-name="Trazado 3070" d="M1611.085,952.075a.969.969,0,0,1-.674-1.665l13.317-12.9,13.125-3.3,13.392-13.259,13.314,5.307,12.742-6.432,13.1-7.178a.969.969,0,1,1,.931,1.7h0L1677.2,921.54l-13.549,6.841-12.943-5.154-12.868,12.739-13.137,3.3L1611.76,951.8A.961.961,0,0,1,1611.085,952.075Z" fill="#b52426"/>
          </g>
          <g id="Grupo_20926" data-name="Grupo 20926">
            <rect id="Rectángulo_5105" data-name="Rectángulo 5105" width="5.233" height="5.234" transform="translate(1608.468 948.49)" fill="#ff6e27"/>
            <rect id="Rectángulo_5106" data-name="Rectángulo 5106" width="5.234" height="5.234" transform="translate(1621.598 935.774)" fill="#ff6e27"/>
            <rect id="Rectángulo_5107" data-name="Rectángulo 5107" width="5.233" height="5.233" transform="translate(1634.729 932.474)" fill="#ff6e27"/>
            <rect id="Rectángulo_5108" data-name="Rectángulo 5108" width="5.234" height="5.234" transform="translate(1647.859 919.475)" fill="#ff6e27"/>
            <rect id="Rectángulo_5109" data-name="Rectángulo 5109" width="5.233" height="5.233" transform="translate(1660.99 924.709)" fill="#ff6e27"/>
            <rect id="Rectángulo_5110" data-name="Rectángulo 5110" width="5.234" height="5.233" transform="translate(1674.12 918.08)" fill="#ff6e27"/>
            <rect id="Rectángulo_5111" data-name="Rectángulo 5111" width="5.234" height="5.234" transform="translate(1687.251 910.887)" fill="#ff6e27"/>
          </g>
        </g>
        <rect id="Rectángulo_5112" data-name="Rectángulo 5112" width="65.115" height="3.876" transform="translate(1713.985 904.621)" fill="#c7d7e2"/>
        <rect id="Rectángulo_5113" data-name="Rectángulo 5113" width="65.115" height="3.876" transform="translate(1713.985 914.459)" fill="#c7d7e2"/>
        <rect id="Rectángulo_5114" data-name="Rectángulo 5114" width="65.115" height="3.876" transform="translate(1713.985 943.973)" fill="#c7d7e2"/>
        <rect id="Rectángulo_5115" data-name="Rectángulo 5115" width="65.115" height="3.876" transform="translate(1713.985 924.297)" fill="#c7d7e2"/>
        <rect id="Rectángulo_5116" data-name="Rectángulo 5116" width="179.539" height="3.876" transform="translate(1599.561 977.7)" fill="#c7d7e2"/>
        <rect id="Rectángulo_5117" data-name="Rectángulo 5117" width="179.539" height="3.876" transform="translate(1599.561 987.538)" fill="#c7d7e2"/>
        <rect id="Rectángulo_5118" data-name="Rectángulo 5118" width="65.115" height="3.876" transform="translate(1713.985 934.135)" fill="#c7d7e2"/>
        <rect id="Rectángulo_5119" data-name="Rectángulo 5119" width="65.115" height="3.876" transform="translate(1713.985 953.811)" fill="#c7d7e2"/>
        <rect id="Rectángulo_5120" data-name="Rectángulo 5120" width="39.012" height="3.876" transform="translate(1713.985 963.649)" fill="#c7d7e2"/>
      </g>
      <path id="Trazado_3071" data-name="Trazado 3071" d="M1786.022,877.9V888.4H1588.749V877.9a11.806,11.806,0,0,1,11.8-11.808h173.663a11.8,11.8,0,0,1,11.808,11.8Z" fill="#b52426"/>
      <g id="Grupo_20929" data-name="Grupo 20929">
        <path id="Trazado_3072" data-name="Trazado 3072" d="M1777.6,877.243a4.75,4.75,0,1,1-4.75-4.75,4.75,4.75,0,0,1,4.75,4.75Z" fill="#f9fbfc"/>
        <path id="Trazado_3073" data-name="Trazado 3073" d="M1758.089,877.243a4.75,4.75,0,1,1-4.75-4.75,4.75,4.75,0,0,1,4.75,4.75Z" fill="#edba3a"/>
        <path id="Trazado_3074" data-name="Trazado 3074" d="M1738.58,877.243a4.75,4.75,0,1,1-4.75-4.75h0A4.75,4.75,0,0,1,1738.58,877.243Z" fill="#ff6e27"/>
      </g>
    </g>
    <g id="Grupo_20935" data-name="Grupo 20935">
      <rect id="Rectángulo_5121" data-name="Rectángulo 5121" width="51.578" height="32.165" rx="2.237" transform="translate(1803.691 926.192)" fill="#56548c"/>
      <g id="Grupo_20931" data-name="Grupo 20931">
        <rect id="Rectángulo_5122" data-name="Rectángulo 5122" width="51.578" height="32.165" rx="2.237" transform="translate(1803.691 923.38)" fill="#f9fbfc"/>
        <path id="Trazado_3075" data-name="Trazado 3075" d="M1853.281,955.768h-47.6a2.214,2.214,0,0,1-2.21-2.212V925.369a2.214,2.214,0,0,1,2.21-2.211h47.6a2.213,2.213,0,0,1,2.21,2.211v28.187A2.213,2.213,0,0,1,1853.281,955.768Zm-47.6-32.165a1.769,1.769,0,0,0-1.766,1.767v28.187a1.769,1.769,0,0,0,1.766,1.768h47.6a1.768,1.768,0,0,0,1.766-1.768V925.369a1.769,1.769,0,0,0-1.766-1.767Z" fill="#56548c"/>
      </g>
      <g id="Grupo_20934" data-name="Grupo 20934">
        <g id="Grupo_20932" data-name="Grupo 20932">
          <rect id="Rectángulo_5123" data-name="Rectángulo 5123" width="3.893" height="22.697" transform="translate(1844.214 928.114)" fill="#c7d7e2"/>
          <rect id="Rectángulo_5124" data-name="Rectángulo 5124" width="3.893" height="22.697" transform="translate(1835.873 928.114)" fill="#c7d7e2"/>
          <rect id="Rectángulo_5125" data-name="Rectángulo 5125" width="3.893" height="22.697" transform="translate(1827.533 928.114)" fill="#c7d7e2"/>
          <rect id="Rectángulo_5126" data-name="Rectángulo 5126" width="3.893" height="22.697" transform="translate(1819.192 928.114)" fill="#c7d7e2"/>
          <rect id="Rectángulo_5127" data-name="Rectángulo 5127" width="3.893" height="22.697" transform="translate(1810.851 928.114)" fill="#c7d7e2"/>
        </g>
        <g id="Grupo_20933" data-name="Grupo 20933">
          <rect id="Rectángulo_5128" data-name="Rectángulo 5128" width="3.893" height="5.668" transform="translate(1844.214 945.143)" fill="#b52426"/>
          <rect id="Rectángulo_5129" data-name="Rectángulo 5129" width="3.893" height="13.228" transform="translate(1835.873 937.583)" fill="#b52426"/>
          <rect id="Rectángulo_5130" data-name="Rectángulo 5130" width="3.893" height="9.651" transform="translate(1827.533 941.16)" fill="#b52426"/>
          <rect id="Rectángulo_5131" data-name="Rectángulo 5131" width="3.893" height="16.374" transform="translate(1819.192 934.437)" fill="#b52426"/>
          <rect id="Rectángulo_5132" data-name="Rectángulo 5132" width="3.893" height="19.303" transform="translate(1810.851 931.508)" fill="#b52426"/>
        </g>
      </g>
    </g>
    <g id="Grupo_20944" data-name="Grupo 20944">
      <rect id="Rectángulo_5133" data-name="Rectángulo 5133" width="64.333" height="40.118" rx="2.791" transform="translate(1536.108 908.035)" fill="#56548c"/>
      <g id="Grupo_20936" data-name="Grupo 20936">
        <rect id="Rectángulo_5134" data-name="Rectángulo 5134" width="64.333" height="40.118" rx="2.791" transform="translate(1536.108 904.716)" fill="#f9fbfc"/>
        <path id="Trazado_3076" data-name="Trazado 3076" d="M1597.961,945.057h-59.372a2.705,2.705,0,0,1-2.7-2.7V907.2a2.706,2.706,0,0,1,2.7-2.7h59.373a2.705,2.705,0,0,1,2.7,2.7v35.158A2.7,2.7,0,0,1,1597.961,945.057Zm-59.373-40.119a2.262,2.262,0,0,0-2.258,2.259v35.157a2.262,2.262,0,0,0,2.258,2.258h59.373a2.26,2.26,0,0,0,2.257-2.258V907.2a2.261,2.261,0,0,0-2.257-2.259Z" fill="#56548c"/>
      </g>
      <g id="Grupo_20937" data-name="Grupo 20937">
        <rect id="Rectángulo_5135" data-name="Rectángulo 5135" width="16.67" height="1.641" transform="translate(1541.374 910.287)" fill="#c7d7e2"/>
        <rect id="Rectángulo_5136" data-name="Rectángulo 5136" width="16.67" height="1.641" transform="translate(1541.374 914.074)" fill="#c7d7e2"/>
        <rect id="Rectángulo_5137" data-name="Rectángulo 5137" width="16.67" height="1.641" transform="translate(1541.374 917.862)" fill="#c7d7e2"/>
        <rect id="Rectángulo_5138" data-name="Rectángulo 5138" width="16.67" height="1.641" transform="translate(1541.374 921.649)" fill="#c7d7e2"/>
        <rect id="Rectángulo_5139" data-name="Rectángulo 5139" width="16.67" height="1.641" transform="translate(1541.374 925.437)" fill="#c7d7e2"/>
        <rect id="Rectángulo_5140" data-name="Rectángulo 5140" width="16.67" height="1.641" transform="translate(1541.374 929.224)" fill="#c7d7e2"/>
        <rect id="Rectángulo_5141" data-name="Rectángulo 5141" width="11.608" height="1.641" transform="translate(1541.374 936.799)" fill="#c7d7e2"/>
        <rect id="Rectángulo_5142" data-name="Rectángulo 5142" width="16.67" height="1.641" transform="translate(1541.374 933.011)" fill="#c7d7e2"/>
      </g>
      <rect id="Rectángulo_5143" data-name="Rectángulo 5143" width="32.992" height="28.24" transform="translate(1560.605 910.2)" fill="#c7d7e2"/>
      <g id="Grupo_20943" data-name="Grupo 20943">
        <g id="Grupo_20938" data-name="Grupo 20938">
          <path id="Trazado_3077" data-name="Trazado 3077" d="M1566.1,913.777a1.5,1.5,0,1,1-1.5-1.5A1.5,1.5,0,0,1,1566.1,913.777Z" fill="#ec827d"/>
          <path id="Trazado_3078" data-name="Trazado 3078" d="M1571.095,913.777a1.5,1.5,0,1,1-1.5-1.5A1.5,1.5,0,0,1,1571.095,913.777Z" fill="#ec827d"/>
          <path id="Trazado_3079" data-name="Trazado 3079" d="M1576.1,913.777a1.5,1.5,0,1,1-1.5-1.5A1.5,1.5,0,0,1,1576.1,913.777Z" fill="#ec827d"/>
          <path id="Trazado_3080" data-name="Trazado 3080" d="M1581.1,913.777a1.5,1.5,0,1,1-1.5-1.5A1.5,1.5,0,0,1,1581.1,913.777Z" fill="#f9fbfc"/>
          <path id="Trazado_3081" data-name="Trazado 3081" d="M1586.1,913.777a1.5,1.5,0,1,1-1.5-1.5A1.5,1.5,0,0,1,1586.1,913.777Z" fill="#f9fbfc"/>
          <path id="Trazado_3082" data-name="Trazado 3082" d="M1591.1,913.777a1.5,1.5,0,1,1-1.5-1.5A1.5,1.5,0,0,1,1591.1,913.777Z" fill="#f9fbfc"/>
        </g>
        <g id="Grupo_20939" data-name="Grupo 20939">
          <path id="Trazado_3083" data-name="Trazado 3083" d="M1566.1,919.048a1.5,1.5,0,1,1-1.5-1.5A1.5,1.5,0,0,1,1566.1,919.048Z" fill="#fbd15b"/>
          <path id="Trazado_3084" data-name="Trazado 3084" d="M1571.095,919.048a1.5,1.5,0,1,1-1.5-1.5A1.5,1.5,0,0,1,1571.095,919.048Z" fill="#fbd15b"/>
          <path id="Trazado_3085" data-name="Trazado 3085" d="M1576.1,919.048a1.5,1.5,0,1,1-1.5-1.5A1.5,1.5,0,0,1,1576.1,919.048Z" fill="#fbd15b"/>
          <path id="Trazado_3086" data-name="Trazado 3086" d="M1581.1,919.048a1.5,1.5,0,1,1-1.5-1.5A1.5,1.5,0,0,1,1581.1,919.048Z" fill="#fbd15b"/>
          <path id="Trazado_3087" data-name="Trazado 3087" d="M1586.1,919.048a1.5,1.5,0,1,1-1.5-1.5A1.5,1.5,0,0,1,1586.1,919.048Z" fill="#f9fbfc"/>
          <path id="Trazado_3088" data-name="Trazado 3088" d="M1591.1,919.048a1.5,1.5,0,1,1-1.5-1.5A1.5,1.5,0,0,1,1591.1,919.048Z" fill="#f9fbfc"/>
        </g>
        <g id="Grupo_20940" data-name="Grupo 20940">
          <path id="Trazado_3089" data-name="Trazado 3089" d="M1566.1,924.319a1.5,1.5,0,1,1-1.5-1.5A1.5,1.5,0,0,1,1566.1,924.319Z" fill="#b52426"/>
          <path id="Trazado_3090" data-name="Trazado 3090" d="M1571.095,924.319a1.5,1.5,0,1,1-1.5-1.5A1.5,1.5,0,0,1,1571.095,924.319Z" fill="#b52426"/>
          <path id="Trazado_3091" data-name="Trazado 3091" d="M1576.1,924.319a1.5,1.5,0,1,1-1.5-1.5A1.5,1.5,0,0,1,1576.1,924.319Z" fill="#878cf0"/>
          <path id="Trazado_3092" data-name="Trazado 3092" d="M1581.1,924.319a1.5,1.5,0,1,1-1.5-1.5A1.5,1.5,0,0,1,1581.1,924.319Z" fill="#878cf0"/>
          <path id="Trazado_3093" data-name="Trazado 3093" d="M1586.1,924.319a1.5,1.5,0,1,1-1.5-1.5A1.5,1.5,0,0,1,1586.1,924.319Z" fill="#878cf0"/>
          <path id="Trazado_3094" data-name="Trazado 3094" d="M1591.1,924.319a1.5,1.5,0,1,1-1.5-1.5A1.5,1.5,0,0,1,1591.1,924.319Z" fill="#f9fbfc"/>
        </g>
        <g id="Grupo_20941" data-name="Grupo 20941">
          <path id="Trazado_3095" data-name="Trazado 3095" d="M1566.1,929.591a1.5,1.5,0,1,1-1.5-1.5A1.5,1.5,0,0,1,1566.1,929.591Z" fill="#56548c"/>
          <path id="Trazado_3096" data-name="Trazado 3096" d="M1571.095,929.591a1.5,1.5,0,1,1-1.5-1.5A1.5,1.5,0,0,1,1571.095,929.591Z" fill="#56548c"/>
          <path id="Trazado_3097" data-name="Trazado 3097" d="M1576.1,929.591a1.5,1.5,0,1,1-1.5-1.5A1.5,1.5,0,0,1,1576.1,929.591Z" fill="#56548c"/>
          <path id="Trazado_3098" data-name="Trazado 3098" d="M1581.1,929.591a1.5,1.5,0,1,1-1.5-1.5A1.5,1.5,0,0,1,1581.1,929.591Z" fill="#56548c"/>
          <path id="Trazado_3099" data-name="Trazado 3099" d="M1586.1,929.591a1.5,1.5,0,1,1-1.5-1.5A1.5,1.5,0,0,1,1586.1,929.591Z" fill="#f9fbfc"/>
          <path id="Trazado_3100" data-name="Trazado 3100" d="M1591.1,929.591a1.5,1.5,0,1,1-1.5-1.5A1.5,1.5,0,0,1,1591.1,929.591Z" fill="#f9fbfc"/>
        </g>
        <g id="Grupo_20942" data-name="Grupo 20942">
          <path id="Trazado_3101" data-name="Trazado 3101" d="M1566.1,934.863a1.5,1.5,0,1,1-1.5-1.5A1.5,1.5,0,0,1,1566.1,934.863Z" fill="#bee1f4"/>
          <path id="Trazado_3102" data-name="Trazado 3102" d="M1571.095,934.863a1.5,1.5,0,1,1-1.5-1.5A1.5,1.5,0,0,1,1571.095,934.863Z" fill="#bee1f4"/>
          <path id="Trazado_3103" data-name="Trazado 3103" d="M1576.1,934.863a1.5,1.5,0,1,1-1.5-1.5A1.5,1.5,0,0,1,1576.1,934.863Z" fill="#bee1f4"/>
          <path id="Trazado_3104" data-name="Trazado 3104" d="M1581.1,934.863a1.5,1.5,0,1,1-1.5-1.5A1.5,1.5,0,0,1,1581.1,934.863Z" fill="#f9fbfc"/>
          <path id="Trazado_3105" data-name="Trazado 3105" d="M1586.1,934.863a1.5,1.5,0,1,1-1.5-1.5A1.5,1.5,0,0,1,1586.1,934.863Z" fill="#f9fbfc"/>
          <path id="Trazado_3106" data-name="Trazado 3106" d="M1591.1,934.863a1.5,1.5,0,1,1-1.5-1.5A1.5,1.5,0,0,1,1591.1,934.863Z" fill="#f9fbfc"/>
        </g>
      </g>
    </g>
    <g id="Grupo_20949" data-name="Grupo 20949">
      <path id="Trazado_3107" data-name="Trazado 3107" d="M1602.442,942.672c2.1-.541.084-13.017-1.163-18.248s-3.166-9.13-5.727-8.47-2.353,5-.916,10.183S1600.344,943.213,1602.442,942.672Z" fill="#ffc8af"/>
      <g id="Grupo_20945" data-name="Grupo 20945">
        <path id="Trazado_3108" data-name="Trazado 3108" d="M1614.778,944.841c.459-1.386-8.776-4.864-11.419-5.738s-3.172-1.246-3.686.309-.125,2.352,2.517,3.226S1614.319,946.228,1614.778,944.841Z" fill="#ffc8af"/>
      </g>
      <path id="Trazado_3109" data-name="Trazado 3109" d="M1590.545,1023.282l-.129,2.692a.7.7,0,0,0,.7.692h7.25a.682.682,0,0,0,.412-1.228,10.779,10.779,0,0,0-4.042-2.025c-.125-.024-1.157-22.738-2.252-22.749C1591.488,1000.653,1590.545,1023.282,1590.545,1023.282Z" fill="#ffc8af"/>
      <path id="Trazado_3110" data-name="Trazado 3110" d="M1574.717,1023.123v2.539a2.558,2.558,0,0,0,1.055,1.441c1.826.777,5.332.315,5.471-.316s-.84-2.015-1.624-3l-.006-.006h0c-.5-.632-.929-1.1-.929-1.1s-.986-22.048-2.021-22.017C1575.532,1000.7,1574.717,1023.123,1574.717,1023.123Z" fill="#ffc8af"/>
      <path id="Trazado_3111" data-name="Trazado 3111" d="M1592.338,988.5c3.032,0,4.663-16.831,4.8-24.024s-1.1-12.883-4.8-12.883-4.938,5.691-4.8,12.883S1589.3,988.5,1592.338,988.5Z" fill="#ffc8af"/>
      <path id="Trazado_3112" data-name="Trazado 3112" d="M1592.334,1024.263c2.688,0,3.427-23.748,3.427-29.087s-.412-10.973-3.427-10.973-3.426,5.634-3.426,10.973S1589.646,1024.263,1592.334,1024.263Z" fill="#ffc8af"/>
      <path id="Trazado_3113" data-name="Trazado 3113" d="M1579.319,988.491c3.02.276,6.179-16.336,6.972-23.485s.081-12.93-3.606-13.268-5.436,5.217-5.955,12.391S1576.3,988.21,1579.319,988.491Z" fill="#ffc8af"/>
      <path id="Trazado_3114" data-name="Trazado 3114" d="M1576.5,1024.121c2.678.244,5.137-23.356,5.624-28.673s.59-10.966-2.411-11.241-3.926,5.3-4.413,10.615S1573.827,1023.876,1576.5,1024.121Z" fill="#ffc8af"/>
      <path id="Trazado_3115" data-name="Trazado 3115" d="M1576.974,957.14h20.008l.825-32.18-1.488-9.079-9.7-2.979-5.6,1.067a6.566,6.566,0,0,0-5.33,6.679l2.04,22.774Z" fill="#ffc8af"/>
      <path id="Trazado_3116" data-name="Trazado 3116" d="M1571.3,941.325c2.081.664,7.06-11.067,8.8-16.2s2.2-9.493-.341-10.3-4.694,3-6.249,8.2S1569.218,940.661,1571.3,941.325Z" fill="#ffc8af"/>
      <path id="Trazado_3117" data-name="Trazado 3117" d="M1584.524,908.6v6.466a9.6,9.6,0,0,0,4.564.816c1.724,0,2.111-.816,2.111-.816v-2.391Z" fill="#ffc8af"/>
      <path id="Trazado_3118" data-name="Trazado 3118" d="M1583.771,903.771c.015.234.023.453.038.665,0,.076-.008.151-.008.235-.158,3.838,2.3,7.949,6.015,8.508,0,0,.03.007.083.015.03,0,.076.008.129.008.794.1,3.664.332,4.715-.824a9.769,9.769,0,0,0,2.327-5.557,21.846,21.846,0,0,0-.309-2.794c0-.536.289-2.215.293-2.943.025-3.425-2.28-6.824-6.376-6.824C1584.534,894.258,1583.6,899.645,1583.771,903.771Z" fill="#ffc8af"/>
      <g id="Grupo_20946" data-name="Grupo 20946">
        <path id="Trazado_3119" data-name="Trazado 3119" d="M1585.57,903.823c-.487-.115-1.637-.515-1.426,1.193.364,2.949,2.093,2.764,2.093,2.764-.1-.419-.256-1.008-.385-1.693.469-.281-.132-.646-.154-.989a.553.553,0,0,1-.026-.21C1585.622,904.545,1585.6,904.2,1585.57,903.823Z" fill="#ffc8af"/>
        <path id="Trazado_3120" data-name="Trazado 3120" d="M1585.673,904.886s-.54-.523-.949-.315-.117,1.154.2,1.716.681.611.744.455-.656-.486-.4-.752.515-.312.492-.467S1585.673,904.886,1585.673,904.886Z" fill="#e5a288"/>
      </g>
      <path id="Trazado_3121" data-name="Trazado 3121" d="M1592.093,913.275c-1.86.087-4.34-1.731-5.025-2.558a8.349,8.349,0,0,1-1.041-2.943,1.1,1.1,0,0,1-.97-.492s.051.925.413,1.24.6.382.676.609.5,3.138,2.047,3.957A6.374,6.374,0,0,0,1592.093,913.275Z" fill="#e5a288"/>
      <path id="Trazado_3122" data-name="Trazado 3122" d="M1590.416,1023.779v2.525a.46.46,0,0,0,.46.459H1599a.736.736,0,0,0,.445-1.326,30.86,30.86,0,0,0-4.473-2.434c-.331.292-.833,1.2-1.417,1.306A16.274,16.274,0,0,1,1590.416,1023.779Z" fill="#141b56"/>
      <path id="Trazado_3123" data-name="Trazado 3123" d="M1574.717,1023.457v2.2a2.558,2.558,0,0,0,1.055,1.441c1.826.777,5.332.315,5.471-.316s-.84-2.015-1.624-3l-.006-.006h0a4.876,4.876,0,0,0-2.628.012,6.676,6.676,0,0,1-1.238.594A6.952,6.952,0,0,1,1574.717,1023.457Z" fill="#141b56"/>
      <path id="Trazado_3124" data-name="Trazado 3124" d="M1587.041,960.959v1.548l-7.4,59.1h-5.729l2.571-60.651Z" fill="#141b56"/>
      <path id="Trazado_3125" data-name="Trazado 3125" d="M1597.481,960.959l-2.4,60.651h-5.648l-2.388-59.1v-1.548Z" fill="#141b56"/>
      <path id="Trazado_3126" data-name="Trazado 3126" d="M1601,922.33a72.292,72.292,0,0,1,1.9,8.269s-.815,1.37-4.378,2.022h-.032c.044-4.372.051-7.853-.019-9.065a23.4,23.4,0,0,0-1.889-7.815C1598.371,916.4,1599.812,918.438,1601,922.33Z" fill="#b52426"/>
      <path id="Trazado_3127" data-name="Trazado 3127" d="M1579.149,914.263c2.578.265,3.923,2.628,3.058,6.285a102.313,102.313,0,0,1-4.4,12.072c-.215-.038-.424-.082-.626-.126-5.155-1.068-5.882-2.711-5.882-2.711,1.447-6.285,3.9-13.126,5.9-14.6A6.889,6.889,0,0,1,1579.149,914.263Z" fill="#b52426"/>
      <path id="Trazado_3128" data-name="Trazado 3128" d="M1591.2,915.185" fill="#606bf1"/>
      <path id="Trazado_3129" data-name="Trazado 3129" d="M1591.2,914.263l5.382,1.478a23.389,23.389,0,0,1,1.889,7.814c.069,1.212.063,4.693.019,9.065-.12,11.219-.486,28.339-.486,28.339h-21.959s.973-12.748,1.144-16.646a76.982,76.982,0,0,0-.7-10.3l.7-1.515c.2.044.411.088.626.126a102.316,102.316,0,0,0,4.4-12.072c.865-3.657-.48-6.02-3.058-6.285a19.522,19.522,0,0,1,4.315-.758s.936,2.946,5.112,2.991S1591.2,914.263,1591.2,914.263Z" fill="#f78d93"/>
      <g id="Grupo_20948" data-name="Grupo 20948">
        <g id="Grupo_20947" data-name="Grupo 20947">
          <path id="Trazado_3130" data-name="Trazado 3130" d="M1662.129,900.674l-20.807-.185,14.421,19.989Z" fill="#fbd15b"/>
        </g>
        <path id="Trazado_3131" data-name="Trazado 3131" d="M1558.91,967.143l7.6,10.532h.01l85.815-61.911v-.01l.07-.06.034-.025-7.6-10.532-.1.084Z" fill="#fbd15b"/>
        <path id="Trazado_3132" data-name="Trazado 3132" d="M1565.217,975.885l1.291,1.79h.01l85.9-61.969-1.217-1.686-.079.048Z" fill="#fbd15b" opacity="0.2" style="isolation: isolate"/>
        <path id="Trazado_3133" data-name="Trazado 3133" d="M1614.775,945.189c1.018-.483,1.582-1.623,1.685-3.352s-.259-2.3-.842-2.158-2.593,1.673-2.554,2.374a7.666,7.666,0,0,1,0,1.673c-.077.233-.646.471-.739.817S1613.491,945.8,1614.775,945.189Z" fill="#ffc8af"/>
      </g>
      <path id="Trazado_3134" data-name="Trazado 3134" d="M1584.533,908.75a.863.863,0,0,1-.942.06.938.938,0,0,1,.019-1.325l.045-.041a1.566,1.566,0,0,1-.669-2.856,2.05,2.05,0,0,1-.911-.79,2.435,2.435,0,0,1,.274-2.643,1.1,1.1,0,0,1-.4-.729,1.144,1.144,0,0,1,.7-1.094,1.725,1.725,0,0,1-.516-1.246,1.8,1.8,0,0,1,1.428-1.58,1.774,1.774,0,0,1,.06-1.793,1.876,1.876,0,0,1,2.522-.333,1.471,1.471,0,0,1,.851-1.338,1.545,1.545,0,0,1,1.4.122,1.372,1.372,0,0,1,.425-.516,2.43,2.43,0,0,1,2.7.4,1.7,1.7,0,0,1,.729-.578,2.807,2.807,0,0,1,2.978,1.276,1.46,1.46,0,0,1,2.248,1.58,1.21,1.21,0,0,1,.516,2.218,1.234,1.234,0,0,1-.547,1.276,1.256,1.256,0,0,1-1.61-.334.883.883,0,0,1-.607.455.867.867,0,0,1-.882-.455,1.875,1.875,0,0,1-1.094.82,2.093,2.093,0,0,1-2.217-1.155,1.548,1.548,0,0,1-.7.79,1.62,1.62,0,0,1-1.368.031,1.69,1.69,0,0,1,.061,1,1.856,1.856,0,0,1-1.064,1.185,1.208,1.208,0,0,1-1.124,1.853s-.174,2.641-.471,2.665-.955-1.866-.955-1.866-.952-.292-1.217.32a3.2,3.2,0,0,0,.325,2.356,5.655,5.655,0,0,0,.533.8Z" fill="#56548c"/>
      <path id="Trazado_3135" data-name="Trazado 3135" d="M1574.211,963.491c1.93-.16,1.284-14.41.952-18.42s-.978-8.221-3.143-8.042-2.11,4.438-1.777,8.449S1572.28,963.65,1574.211,963.491Z" fill="#ffc8af"/>
      <path id="Trazado_3136" data-name="Trazado 3136" d="M1574,959.807c-2.288.02-1.8,4.052-1.578,5.421.355,2.23,2.9,4.188,3.762,4.062s-.317-5.114-.144-5.312.548,2.536,1.351,2.333.186-3.5-.56-4.718A2.922,2.922,0,0,0,1574,959.807Z" fill="#ffc8af"/>
    </g>
    <g id="Grupo_20951" data-name="Grupo 20951">
      <path id="Trazado_3137" data-name="Trazado 3137" d="M1619,856.209c1.729,1.234,9.832-8.143,12.975-12.379s4.864-8.134,2.753-9.642-5.241,1.385-8.228,5.731S1617.274,854.978,1619,856.209Z" fill="#ffc8af"/>
      <path id="Trazado_3138" data-name="Trazado 3138" d="M1616.076,878.479c1.855.327,4.77-13.236,5.449-17.091s1.112-7.974-.969-8.341-3.081,3.653-3.76,7.508S1614.22,878.153,1616.076,878.479Z" fill="#ffc8af"/>
      <g id="Grupo_20950" data-name="Grupo 20950">
        <path id="Trazado_3139" data-name="Trazado 3139" d="M1619.011,877.341a2.842,2.842,0,0,0-2.222-2.38c-2.158-.547-2.946,3.9-3.086,5.243-.124,1.2,1.424,3.807,2.271,3.9s1.34-4.454,1.593-4.492c.219-.033.292.2.325.514h1.25A8.023,8.023,0,0,0,1619.011,877.341Z" fill="#ffc8af"/>
      </g>
    </g>
    <path id="Trazado_3140" data-name="Trazado 3140" d="M1633.655,833.2c-2.512.518-4.722,3.29-7.45,5.976a16.727,16.727,0,0,0,5.772,4.658l-1.122,1.462a49.819,49.819,0,0,0,1.25,6.8c.892,3.321,3.556-7.812,3.556-7.812l.8-9.659Z" fill="#ff6e27"/>
    <path id="Trazado_3141" data-name="Trazado 3141" d="M1665.526,874.355c-1.873.2-3.86-13.53-4.275-17.422s-.567-8.031,1.533-8.255,2.826,3.853,3.242,7.745S1667.4,874.155,1665.526,874.355Z" fill="#ffc8af"/>
    <g id="Grupo_20952" data-name="Grupo 20952">
      <path id="Trazado_3142" data-name="Trazado 3142" d="M1662.659,873.727a2.843,2.843,0,0,1,2.222-2.381c2.158-.547,2.946,3.9,3.086,5.244.124,1.2-1.424,3.806-2.271,3.9s-1.34-4.454-1.593-4.492c-.219-.033-.292.2-.325.514h-1.25A8.027,8.027,0,0,1,1662.659,873.727Z" fill="#ffc8af"/>
    </g>
    <g id="Grupo_20968" data-name="Grupo 20968">
      <path id="Trazado_3143" data-name="Trazado 3143" d="M1747.684,936.775c.49-1.853,14.26,1.243,18.11,2.261s7.839,2.376,7.29,4.453-4.688,1.288-8.539.27S1747.2,938.628,1747.684,936.775Z" fill="#ffc8af"/>
      <path id="Trazado_3144" data-name="Trazado 3144" d="M1751.242,937.62c-.416,2.225-4.258,1.048-5.555.6-2.111-.732-3.159-3.849-2.886-4.672s4.334,1.524,4.557,1.39-2.2-1-1.867-1.745,3.446.425,4.5,1.362A2.9,2.9,0,0,1,1751.242,937.62Z" fill="#ffc8af"/>
      <path id="Trazado_3145" data-name="Trazado 3145" d="M1770.519,943.3c-2.071.552-6.39-11.183-7.854-16.3s-1.7-9.409.827-10.082,4.457,3.17,5.732,8.335S1772.591,942.747,1770.519,943.3Z" fill="#ffc8af"/>
      <path id="Trazado_3146" data-name="Trazado 3146" d="M1763.357,916.78c1.921,0,3.342,2.263,3.706,6.559s0,14.079,0,14.079h-7.007s-.529-11.732-.6-14.938S1760.742,916.78,1763.357,916.78Z" fill="#fbd15b"/>
      <path id="Trazado_3147" data-name="Trazado 3147" d="M1760.056,937.417s-4.353-1.207-5.1-1.22-3.308,0-3.308,0-.5,1.224-1.159,2.949a13.083,13.083,0,0,1,1.5.973c.265.265,0,.442,1.681,1.238s8.623,4.113,11.1,3.892,2.216-5.266,2.294-7.831-5.124-3.224-5.124-3.224Z" fill="#fbd15b"/>
      <g id="Grupo_20960" data-name="Grupo 20960">
        <g id="Grupo_20953" data-name="Grupo 20953" opacity="0.2">
          <path id="Trazado_3148" data-name="Trazado 3148" d="M1694.542,907.865a21.141,21.141,0,1,1,22.693-19.467A21.14,21.14,0,0,1,1694.542,907.865Z" fill="#d1d3d4"/>
        </g>
        <g id="Grupo_20959" data-name="Grupo 20959">
          <g id="Grupo_20958" data-name="Grupo 20958">
            <g id="Grupo_20954" data-name="Grupo 20954">
              <rect id="Rectángulo_5144" data-name="Rectángulo 5144" width="6.157" height="55.059" transform="translate(1710.491 903.149) rotate(-49.804)" fill="#ef8989"/>
            </g>
            <g id="Grupo_20955" data-name="Grupo 20955">
              <path id="Trazado_3149" data-name="Trazado 3149" d="M1694.259,911.551a24.836,24.836,0,1,1,26.658-22.87A24.836,24.836,0,0,1,1694.259,911.551Zm3.318-43.388a18.678,18.678,0,1,0,17.2,20.049,18.678,18.678,0,0,0-17.2-20.049Z" fill="#112b46"/>
            </g>
            <g id="Grupo_20956" data-name="Grupo 20956">
              <path id="Trazado_3150" data-name="Trazado 3150" d="M1750.964,939.2a6.128,6.128,0,0,1-3.461-1.4l-20.469-17a6.158,6.158,0,0,1,7.87-9.473l20.469,17a6.159,6.159,0,0,1-4.409,10.877Z" fill="#112b46"/>
            </g>
            <g id="Grupo_20957" data-name="Grupo 20957" opacity="0.3">
              <circle id="Elipse_1260" data-name="Elipse 1260" cx="21.933" cy="21.933" r="21.933" transform="translate(1674.221 864.852)" fill="#ef606a"/>
            </g>
          </g>
        </g>
      </g>
      <path id="Trazado_3151" data-name="Trazado 3151" d="M1782.753,957.738h-19.8l-.816-31.839,1.474-8.982,9.593-2.949,5.537,1.057a6.5,6.5,0,0,1,5.274,6.608L1782,944.167Z" fill="#ffc8af"/>
      <g id="Grupo_20965" data-name="Grupo 20965">
        <path id="Trazado_3152" data-name="Trazado 3152" d="M1775.283,909.713v6.4a9.5,9.5,0,0,1-4.516.808c-1.7,0-2.088-.808-2.088-.808v-2.365Z" fill="#ffc8af"/>
        <g id="Grupo_20963" data-name="Grupo 20963">
          <path id="Trazado_3153" data-name="Trazado 3153" d="M1767.752,903.942c-.651.178-.907,2.346-.791,2.336s.525-1.734,1.1-2S1767.752,903.942,1767.752,903.942Z" fill="#e5a288"/>
          <path id="Trazado_3154" data-name="Trazado 3154" d="M1765.319,904.022c.356.436.076,2.025.065,2.166s-.179-1.92-.179-1.92Z" fill="#e5a288"/>
          <g id="Grupo_20961" data-name="Grupo 20961">
            <path id="Trazado_3155" data-name="Trazado 3155" d="M1770.5,904.027v.255s-2.729.008-2.749-.011-.1-.242,0-.329C1768.276,903.489,1770.5,904.027,1770.5,904.027Z" fill="#414042"/>
            <path id="Trazado_3156" data-name="Trazado 3156" d="M1763.361,904.016v.275s1.911-.011,1.924-.029a.373.373,0,0,0,0-.329C1764.914,903.492,1763.361,904.016,1763.361,904.016Z" fill="#414042"/>
            <path id="Trazado_3157" data-name="Trazado 3157" d="M1769.484,905.729a.55.55,0,1,1-.55-.55h0A.55.55,0,0,1,1769.484,905.729Z" fill="#414042"/>
            <path id="Trazado_3158" data-name="Trazado 3158" d="M1770.075,905.287a2.207,2.207,0,0,0-2.28,0Z" fill="#414042"/>
            <path id="Trazado_3159" data-name="Trazado 3159" d="M1764.957,905.729a.55.55,0,1,1-.55-.55h0A.55.55,0,0,1,1764.957,905.729Z" fill="#414042"/>
            <path id="Trazado_3160" data-name="Trazado 3160" d="M1765.2,905.287a1.155,1.155,0,0,0-1.59,0Z" fill="#414042"/>
          </g>
          <path id="Trazado_3161" data-name="Trazado 3161" d="M1766.037,908.5c.549,0,1-.046,1,.1s-.446.331-1,.331-1-.18-1-.331S1765.487,908.5,1766.037,908.5Z" fill="#ffc8af"/>
          <path id="Trazado_3162" data-name="Trazado 3162" d="M1766.037,910.749c.4,0,.73-.034.73.076s-.327.362-.73.362-.73-.251-.73-.362S1765.633,910.749,1766.037,910.749Z" fill="#e5a288"/>
          <g id="Grupo_20962" data-name="Grupo 20962">
            <path id="Trazado_3163" data-name="Trazado 3163" d="M1764.184,909.858a.126.126,0,0,0-.122.129.125.125,0,0,0,.087.117,7.7,7.7,0,0,0,1.872.268,8.177,8.177,0,0,0,1.9-.267.126.126,0,1,0-.067-.243h0a8.059,8.059,0,0,1-1.835.26,7.612,7.612,0,0,1-1.8-.26A.134.134,0,0,0,1764.184,909.858Z" fill="#e5a288"/>
          </g>
        </g>
        <path id="Trazado_3164" data-name="Trazado 3164" d="M1776.027,904.936c-.014.232-.022.449-.036.658,0,.076.007.15.007.232.157,3.8-2.28,7.865-5.951,8.418a.582.582,0,0,1-.083.015c-.029,0-.075.007-.127.007-.785.1-3.626.33-4.665-.815a9.665,9.665,0,0,1-2.3-5.5,21.768,21.768,0,0,1,.307-2.765c0-.531-.285-2.192-.291-2.912-.024-3.389,2.256-6.753,6.309-6.753C1775.273,895.524,1776.2,900.855,1776.027,904.936Z" fill="#ffc8af"/>
        <path id="Trazado_3165" data-name="Trazado 3165" d="M1773.227,905.287c-.272-1.392-1.409-1.9-1.555-2.749a15.267,15.267,0,0,0-.55-2.841c-.331-.827-3.356-.643-4.356-.46a8.274,8.274,0,0,1-3.9-.156c-.845-.43-1.494-2.485-.73-3.4l.364.363a6.053,6.053,0,0,1,2.994-1.9l-.294.843a38.525,38.525,0,0,1,5.881-.256,6.181,6.181,0,0,1,2.969,1.614,2.079,2.079,0,0,1,2.642,1.247c.454,1.071,2.417,6.362-1.414,13.158l-1.228-5.308Z" fill="#112b46"/>
        <g id="Grupo_20964" data-name="Grupo 20964">
          <path id="Trazado_3166" data-name="Trazado 3166" d="M1774.248,904.987c.483-.113,1.619-.508,1.411,1.18-.361,2.919-2.072,2.735-2.072,2.735.1-.414.254-1,.381-1.675-.465-.278.13-.64.152-.979a.5.5,0,0,0,.026-.207C1774.2,905.7,1774.223,905.364,1774.248,904.987Z" fill="#ffc8af"/>
          <path id="Trazado_3167" data-name="Trazado 3167" d="M1774.147,906.041s.534-.518.938-.311.116,1.142-.2,1.7-.674.6-.736.45.649-.482.4-.744-.51-.308-.487-.462S1774.147,906.041,1774.147,906.041Z" fill="#e5a288"/>
          <path id="Trazado_3168" data-name="Trazado 3168" d="M1773.161,903.757c.151,1.1,0,4.894,0,4.894l.492-.014.779-4.007Z" fill="#112b46"/>
        </g>
        <path id="Trazado_3169" data-name="Trazado 3169" d="M1767.8,914.334c1.841.086,4.293-1.713,4.971-2.53a8.24,8.24,0,0,0,1.03-2.912,1.082,1.082,0,0,0,.959-.488s-.05.915-.409,1.227-.591.378-.669.6-.5,3.1-2.024,3.915A6.306,6.306,0,0,1,1767.8,914.334Z" fill="#e5a288"/>
      </g>
      <g id="Grupo_20967" data-name="Grupo 20967">
        <path id="Trazado_3170" data-name="Trazado 3170" d="M1784.987,1023.025v2.512a2.523,2.523,0,0,1-1.044,1.425c-1.806.77-5.275.313-5.412-.312s.831-1.994,1.606-2.969l.006-.006c.5-.625.919-1.088.919-1.088s.975-21.815,2-21.784C1784.181,1000.841,1784.987,1023.025,1784.987,1023.025Z" fill="#ffc8af"/>
        <path id="Trazado_3171" data-name="Trazado 3171" d="M1767.557,988.772c-3,0-4.614-16.653-4.75-23.769s1.088-12.747,4.75-12.747,4.885,5.63,4.749,12.747S1770.556,988.772,1767.557,988.772Z" fill="#ffc8af"/>
        <path id="Trazado_3172" data-name="Trazado 3172" d="M1767.557,1024.153c-2.66,0-3.39-23.5-3.39-28.779s.408-10.857,3.39-10.857,3.391,5.575,3.391,10.857S1770.22,1024.153,1767.557,1024.153Z" fill="#ffc8af"/>
        <path id="Trazado_3173" data-name="Trazado 3173" d="M1780.429,988.76c-2.988.273-6.114-16.164-6.9-23.237s-.08-12.793,3.567-13.127,5.379,5.162,5.893,12.261S1783.416,988.486,1780.429,988.76Z" fill="#ffc8af"/>
        <path id="Trazado_3174" data-name="Trazado 3174" d="M1783.219,1024.014c-2.648.243-5.083-23.109-5.564-28.37s-.584-10.849,2.386-11.121,3.885,5.243,4.366,10.5S1785.868,1023.771,1783.219,1024.014Z" fill="#ffc8af"/>
        <g id="Grupo_20966" data-name="Grupo 20966">
          <path id="Trazado_3175" data-name="Trazado 3175" d="M1769.327,1023.184l.126,2.664a.687.687,0,0,1-.689.684h-7.173a.674.674,0,0,1-.408-1.215,10.653,10.653,0,0,1,4-2c.123-.024,1.145-22.5,2.227-22.509C1768.394,1000.793,1769.327,1023.184,1769.327,1023.184Z" fill="#ffc8af"/>
          <path id="Trazado_3176" data-name="Trazado 3176" d="M1769.454,1023.676v2.5a.455.455,0,0,1-.455.455h-8.036a.728.728,0,0,1-.441-1.312,30.419,30.419,0,0,1,4.426-2.408c.328.289.824,1.184,1.4,1.291A16.173,16.173,0,0,0,1769.454,1023.676Z" fill="#112b46"/>
        </g>
        <path id="Trazado_3177" data-name="Trazado 3177" d="M1784.987,1023.357v2.183a2.523,2.523,0,0,1-1.044,1.425c-1.806.77-5.275.313-5.412-.312s.831-1.994,1.606-2.969l.006-.006a4.843,4.843,0,0,1,2.6.012,6.663,6.663,0,0,0,1.226.587A6.889,6.889,0,0,0,1784.987,1023.357Z" fill="#112b46"/>
      </g>
      <path id="Trazado_3178" data-name="Trazado 3178" d="M1767.8,914.567l.888,1.663V914.5l-.35-.05Z" fill="#fbd15b"/>
      <path id="Trazado_3179" data-name="Trazado 3179" d="M1772.276,914.3l.888,2.624c1.362-1.087,3.169-2.356,3.169-2.356l-1.05-1.7Z" fill="#fbd15b"/>
      <path id="Trazado_3180" data-name="Trazado 3180" d="M1767.613,915.43l-.306,1.494,1.375-.656v-.037l-.888-1.663Z" fill="#efa954"/>
      <path id="Trazado_3181" data-name="Trazado 3181" d="M1767.307,916.922l.307-1.493-4.257,1.35a23.2,23.2,0,0,0-1.868,7.731c-.069,1.2-.063,4.644-.02,8.97.119,11.1.482,28.039.482,28.039h21.726s-.424-12.681-.593-16.537c-.36-8.231,1.167-16.489,1.625-24.706a6.615,6.615,0,0,0-.079-1.889c-.331-1.4-1.626-1.935-2.773-2.555a9.847,9.847,0,0,0-3.23-1.023c-.434-.064-1.955-.482-2.3-.243,0,0-1.808,1.27-3.169,2.356l-.888-2.624-2.294,4.675-1.3-2.85v.144Z" fill="#edba3a"/>
      <path id="Trazado_3182" data-name="Trazado 3182" d="M1760.423,931.719c-1.13-1.842,8.965-9.4,13.486-12.287s8.6-4.357,9.981-2.108-1.777,5.22-6.4,7.943S1761.553,933.563,1760.423,931.719Z" fill="#ffc8af"/>
      <path id="Trazado_3183" data-name="Trazado 3183" d="M1738.833,923.441c.581-1.826,14.18,1.953,17.974,3.161s7.711,2.765,7.059,4.812-4.747,1.051-8.542-.157S1738.251,925.266,1738.833,923.441Z" fill="#ffc8af"/>
      <path id="Trazado_3184" data-name="Trazado 3184" d="M1742.34,924.459c-.526,2.2-4.3.835-5.577.321-2.072-.836-1.11-3.1-.8-3.9s2.158,1.12,2.387,1-1.909-1.393-1.535-2.122,3.421.6,4.426,1.585A2.893,2.893,0,0,1,1742.34,924.459Z" fill="#ffc8af"/>
      <path id="Trazado_3185" data-name="Trazado 3185" d="M1772.812,961.52h10.444l2.544,60.01h-5.67l-7.319-58.478-2.363,58.478h-5.588l-2.375-60.01Z" fill="#56548c"/>
      <path id="Trazado_3186" data-name="Trazado 3186" d="M1784.341,917.672c-1.393-2.636-4.5-1.972-8.29,0s-13.141,8.9-13.34,9.036a58.448,58.448,0,0,1-10.938-2.055,18.564,18.564,0,0,0-6.161-1.358c-.125-.008-2.433-.358-2.62-.437,0,0-.695,1.554-1.359,3.445,0,0,1.176.54,1.553.777.195.121.387,0,1.116,1.164s15.048,5.065,17.276,5.5,10.453-3.085,16.357-6.5S1785.766,920.376,1784.341,917.672Z" fill="#fbd15b"/>
    </g>
    <path id="Trazado_3187" data-name="Trazado 3187" d="M1608.47,840.226h-2.918a2.8,2.8,0,0,0-2.777-2.577H1598.4a3.8,3.8,0,0,0-3.669-4.819h-6.706a3.794,3.794,0,0,0-3.668,4.819h-.6a2.8,2.8,0,0,0-2.777,2.577h-.877a3.616,3.616,0,1,0-.008,7.232h28.37a3.616,3.616,0,1,0,.009-7.232h-.006Z" fill="#c7d7e2"/>
    <path id="Trazado_3188" data-name="Trazado 3188" d="M1769.78,799.693h-4.016a3.853,3.853,0,0,0-3.822-3.548h-6.019a5.171,5.171,0,0,0,.194-1.389,5.259,5.259,0,0,0-5.243-5.243h-9.231a5.259,5.259,0,0,0-5.243,5.243,5.177,5.177,0,0,0,.195,1.389h-.821a3.855,3.855,0,0,0-3.823,3.548h-1.208a4.978,4.978,0,0,0,0,9.955h39.039a4.978,4.978,0,1,0,0-9.955Z" fill="#c7d7e2"/>
    <g id="Grupo_20969" data-name="Grupo 20969">
      <path id="Trazado_3189" data-name="Trazado 3189" d="M1557.851,901.793a.443.443,0,0,1-.444-.442v-1.779a.445.445,0,0,1,.889,0v1.777a.444.444,0,0,1-.444.444Zm0-3.555a.443.443,0,0,1-.444-.442v-1.779a.445.445,0,0,1,.889,0v1.777a.444.444,0,0,1-.444.444Zm0-3.555a.443.443,0,0,1-.444-.442v-1.779a.445.445,0,0,1,.889,0v1.777a.444.444,0,0,1-.444.444Zm0-3.555a.443.443,0,0,1-.444-.442V888.91a.445.445,0,0,1,.889,0v1.777a.444.444,0,0,1-.445.442Zm0-3.555a.443.443,0,0,1-.444-.442v-1.779a.445.445,0,0,1,.889,0v1.777a.444.444,0,0,1-.443.445h0Zm0-3.555a.443.443,0,0,1-.444-.442V881.8a.445.445,0,0,1,.889,0h0v1.777a.444.444,0,0,1-.443.445h0Zm26.319-3.281h-1.161a.444.444,0,0,1,0-.889h1.162a.444.444,0,1,1,0,.889h0Zm-2.94,0h-1.777a.444.444,0,0,1,0-.889h1.777a.444.444,0,1,1,0,.889Zm-3.555,0H1575.9a.444.444,0,0,1,0-.889h1.777a.444.444,0,1,1,0,.889Zm-3.555,0h-1.777a.444.444,0,0,1,0-.889h1.777a.444.444,0,1,1,0,.889Zm-3.555,0h-1.776a.444.444,0,0,1,0-.889h1.777a.444.444,0,1,1,0,.889Zm-3.555,0h-1.777a.444.444,0,0,1,0-.889h1.776a.444.444,0,1,1,0,.889h0Zm-3.555,0h-1.776a.444.444,0,0,1,0-.889h1.777a.444.444,0,1,1,0,.889Zm-3.555,0h-1.777a.444.444,0,0,1,0-.889h1.777a.444.444,0,1,1,0,.889Z" fill="#c7d7e2"/>
    </g>
    <g id="Grupo_20970" data-name="Grupo 20970">
      <path id="Trazado_3190" data-name="Trazado 3190" d="M1795.495,961.931h-1.424a.445.445,0,0,1,0-.889h.535v-.353a.445.445,0,0,1,.889,0Zm-3.2,0h-1.779a.445.445,0,0,1,0-.889h1.777a.445.445,0,1,1,0,.889Zm-3.555,0H1787.4a.445.445,0,0,1,0-.889h1.345a.445.445,0,1,1,0,.889Zm6.312-2.575a.444.444,0,0,1-.444-.444v-1.777a.444.444,0,0,1,.889,0v1.777a.444.444,0,0,1-.44.448h-.006Zm0-3.555a.446.446,0,0,1-.444-.444V953.58a.444.444,0,0,1,.889,0v1.78a.443.443,0,0,1-.446.441Zm0-3.555a.444.444,0,0,1-.444-.444v-1.777a.444.444,0,0,1,.889,0V951.8a.444.444,0,0,1-.444.444h0Zm0-3.555a.444.444,0,0,1-.444-.444V946.47a.444.444,0,0,1,.889,0h0v1.777a.443.443,0,0,1-.443.445h0Zm0-3.555a.444.444,0,0,1-.444-.444v-2.153h.444a.455.455,0,0,1,.444.63v1.523a.443.443,0,0,1-.443.445h0Zm7.178-1.709h-1.777a.444.444,0,0,1,0-.889h1.777a.444.444,0,1,1,0,.889Zm-3.555,0H1796.9a.444.444,0,0,1,0-.889h1.777a.444.444,0,1,1,0,.889Z" fill="#c7d7e2"/>
    </g>
    <g id="Grupo_20971" data-name="Grupo 20971">
      <path id="Trazado_3191" data-name="Trazado 3191" d="M1549.71,864.648c0,3.326-6.023,12.942-6.023,12.942s-6.023-9.615-6.023-12.942a6.023,6.023,0,0,1,12.046,0Z" fill="#b52426"/>
      <path id="Trazado_3192" data-name="Trazado 3192" d="M1546.933,864.648a3.243,3.243,0,1,1-3.243-3.244,3.242,3.242,0,0,1,3.243,3.244Z" fill="#f9fbfc"/>
    </g>
    <g id="Grupo_20972" data-name="Grupo 20972">
      <path id="Trazado_3193" data-name="Trazado 3193" d="M1662.838,780.213v4.929a9.68,9.68,0,0,1,6.839,16.523l3.486,3.474a14.6,14.6,0,0,0-10.324-24.926Z" fill="#ff6e27"/>
      <path id="Trazado_3194" data-name="Trazado 3194" d="M1669.676,801.665l3.486,3.474a14.6,14.6,0,1,1-10.327-24.926v4.929a9.672,9.672,0,1,0,6.839,16.523Z" fill="#fbd15b"/>
    </g>
    <g id="Grupo_20973" data-name="Grupo 20973">
      <path id="Trazado_3195" data-name="Trazado 3195" d="M1618.015,822.419l-6.445-3.721v7.443Z" fill="#56548c"/>
      <path id="Trazado_3196" data-name="Trazado 3196" d="M1610.935,822.419l-6.445-3.721v7.443Z" fill="#56548c"/>
    </g>
    <g id="Grupo_20974" data-name="Grupo 20974">
      <path id="Trazado_3197" data-name="Trazado 3197" d="M1608.815,863.838a.443.443,0,0,1-.444-.442v-1.78a.445.445,0,0,1,.889,0v1.777a.444.444,0,0,1-.443.445Zm0-3.555a.443.443,0,0,1-.444-.442v-.772h-.119a.444.444,0,0,1,0-.889h1.008v1.658a.444.444,0,0,1-.443.445Zm-2.341-1.214H1604.7a.444.444,0,0,1,0-.889h1.777a.444.444,0,1,1,0,.889Zm-3.555,0h-1.777a.444.444,0,0,1,0-.889h1.779a.444.444,0,1,1,0,.889Zm-3.555,0h-1.777a.444.444,0,0,1,0-.889h1.777a.444.444,0,1,1,0,.889Zm-3.555,0h-1.777a.444.444,0,0,1,0-.889h1.777a.444.444,0,1,1,0,.889Zm-3.555,0h-.608v-2.053a.445.445,0,0,1,.889,0v1.27a.444.444,0,0,1-.281.788Zm-.164-3.391a.445.445,0,0,1-.444-.444v-1.778a.445.445,0,0,1,.889,0v1.777a.443.443,0,0,1-.443.445h0Zm0-3.555a.445.445,0,0,1-.444-.444V849.9a.445.445,0,0,1,.889,0v1.777a.444.444,0,0,1-.444.444h0Z" fill="#c7d7e2"/>
    </g>
    <g id="Grupo_20975" data-name="Grupo 20975">
      <path id="Trazado_3198" data-name="Trazado 3198" d="M1593.582,866.537h-.2a.444.444,0,0,1,0-.889h.2a.444.444,0,1,1,0,.889Zm-1.972,0h-1.777a.444.444,0,0,1,0-.889h1.777a.444.444,0,1,1,0,.889Zm-3.555,0h-1.777a.444.444,0,0,1,0-.889h1.777a.444.444,0,1,1,0,.889Zm-3.555,0h-1.777a.444.444,0,0,1,0-.889h1.777a.444.444,0,1,1,0,.889Zm-3.555,0h-1.777a.444.444,0,0,1,0-.889h1.777a.444.444,0,1,1,0,.889Zm-3.555,0h-1.777a.444.444,0,0,1,0-.889h1.777a.444.444,0,1,1,0,.889Zm-3.555,0h-1.78a.444.444,0,0,1,0-.889h1.777a.444.444,0,1,1,0,.889Zm-3.555,0H1568.5a.444.444,0,0,1,0-.889h1.777a.444.444,0,1,1,0,.889Zm-3.555,0h-1.777a.444.444,0,0,1,0-.889h1.777a.444.444,0,1,1,0,.889Zm-3.555,0h-1.777a.444.444,0,0,1,0-.889h1.777a.444.444,0,1,1,0,.889Zm-3.555,0h-1.777a.444.444,0,0,1,0-.889h1.777a.444.444,0,1,1,0,.889Zm-3.555,0h-1.777a.444.444,0,0,1,0-.889h1.777a.444.444,0,1,1,0,.889Z" fill="#c7d7e2"/>
    </g>
    <g id="Grupo_20976" data-name="Grupo 20976">
      <path id="Trazado_3199" data-name="Trazado 3199" d="M1662.838,842.637a.444.444,0,0,1-.444-.444h0V841a.444.444,0,0,1,.889,0v1.192a.444.444,0,0,1-.444.446Zm0-2.971a.444.444,0,0,1-.444-.444h0v-1.777a.444.444,0,0,1,.889,0v1.777A.444.444,0,0,1,1662.838,839.666Zm0-3.555a.444.444,0,0,1-.444-.444h0v-1.776a.444.444,0,0,1,.889,0v1.777a.445.445,0,0,1-.445.443Zm0-3.555a.444.444,0,0,1-.444-.444h0v-1.777a.444.444,0,0,1,.889,0v1.777a.445.445,0,0,1-.445.445Zm0-3.555a.444.444,0,0,1-.444-.444h0V826.78a.444.444,0,0,1,.889,0v1.777a.445.445,0,0,1-.445.445Zm0-3.555a.444.444,0,0,1-.444-.444h0v-1.777a.444.444,0,0,1,.889,0V825a.445.445,0,0,1-.445.445Zm0-3.555a.444.444,0,0,1-.444-.444h0V819.67a.444.444,0,0,1,.889,0v1.777a.444.444,0,0,1-.445.444Zm0-3.555a.444.444,0,0,1-.444-.444h0v-1.777a.444.444,0,0,1,.889,0v1.776a.444.444,0,0,1-.444.446h0Zm0-3.555a.444.444,0,0,1-.444-.444h0V812.56a.444.444,0,0,1,.889,0v1.777a.445.445,0,0,1-.445.445Z" fill="#c7d7e2"/>
    </g>
    <g id="Grupo_20977" data-name="Grupo 20977">
      <path id="Trazado_3200" data-name="Trazado 3200" d="M1725.376,799.234h-1.78a.445.445,0,0,1,0-.889h1.777a.445.445,0,1,1,0,.889Zm-3.555,0h-1.777a.445.445,0,0,1,0-.889h1.777a.445.445,0,1,1,0,.889Zm-3.555,0h-1.777a.445.445,0,0,1,0-.889h1.777a.445.445,0,1,1,0,.889Zm-3.555,0h-1.777a.445.445,0,0,1,0-.889h1.777a.445.445,0,1,1,0,.889Zm-3.555,0h-1.777a.445.445,0,0,1,0-.889h1.777a.445.445,0,1,1,0,.889Zm-3.555,0h-1.777a.445.445,0,0,1,0-.889h1.777a.445.445,0,1,1,0,.889Zm-3.555,0h-1.777a.445.445,0,0,1,0-.889h1.777a.445.445,0,1,1,0,.889Zm-3.555,0h-1.777a.445.445,0,0,1,0-.889h1.782a.445.445,0,1,1,0,.889Zm-3.555,0h-1.777a.445.445,0,0,1,0-.889h1.777a.445.445,0,1,1,0,.889Zm-3.555,0H1691.6a.445.445,0,0,1,0-.889h1.777a.445.445,0,1,1,0,.889Zm-3.555,0h-1.777a.445.445,0,0,1,0-.889h1.777a.445.445,0,1,1,0,.889Zm-3.555,0H1684.5a.445.445,0,0,1,0-.889h1.777a.445.445,0,1,1,0,.889Zm-3.555,0h-1.777a.445.445,0,0,1,0-.889h1.777a.445.445,0,1,1,0,.889Z" fill="#c7d7e2"/>
    </g>
    <g id="Grupo_20978" data-name="Grupo 20978">
      <path id="Trazado_3201" data-name="Trazado 3201" d="M1746.693,844.774h-.775a.444.444,0,0,1,0-.889h.775a.444.444,0,1,1,0,.889Zm-2.552,0h-1.773a.444.444,0,0,1,0-.889h1.777a.444.444,0,1,1,0,.889Zm-3.555,0h-1.778a.444.444,0,0,1,0-.889h1.777a.444.444,0,1,1,0,.889Zm-3.518-.036a.444.444,0,0,1-.444-.444v-1.777a.444.444,0,0,1,.889,0v1.777a.443.443,0,0,1-.445.443h0Zm0-3.555a.444.444,0,0,1-.444-.444v-1.777a.444.444,0,0,1,.889,0v1.777a.443.443,0,0,1-.445.443Zm0-3.555a.444.444,0,0,1-.444-.444V835.4a.444.444,0,0,1,.889,0v1.777a.444.444,0,0,1-.439.449h-.006Zm0-3.555a.444.444,0,0,1-.444-.444v-1.778a.444.444,0,0,1,.889,0v1.777a.443.443,0,0,1-.443.445Zm0-3.555a.444.444,0,0,1-.444-.444V828.3a.444.444,0,0,1,.889,0v1.777a.444.444,0,0,1-.444.444Zm0-3.555a.444.444,0,0,1-.444-.444v-1.778a.444.444,0,0,1,.889,0v1.777a.443.443,0,0,1-.443.445Zm0-3.555a.444.444,0,0,1-.444-.444v-1.777a.444.444,0,0,1,.889,0v1.777a.444.444,0,0,1-.444.444Zm0-3.555a.444.444,0,0,1-.444-.444v-1.778a.444.444,0,0,1,.889,0v1.777a.443.443,0,0,1-.443.445Zm0-3.555a.444.444,0,0,1-.444-.444v-1.777a.444.444,0,0,1,.889,0h0v1.777a.444.444,0,0,1-.441.447h0Z" fill="#c7d7e2"/>
    </g>
    <g id="Grupo_20979" data-name="Grupo 20979">
      <path id="Trazado_3202" data-name="Trazado 3202" d="M1837.059,920.942a.443.443,0,0,1-.444-.442v-1.779a.445.445,0,0,1,.889,0V920.5A.444.444,0,0,1,1837.059,920.942Zm0-3.555a.443.443,0,0,1-.444-.442v-1.779a.445.445,0,0,1,.889,0v1.777a.444.444,0,0,1-.443.445h0Zm0-3.555a.443.443,0,0,1-.444-.442v-1.779a.445.445,0,0,1,.889,0v1.777a.444.444,0,0,1-.443.445h0Zm0-3.555a.443.443,0,0,1-.444-.442v-1.779a.445.445,0,0,1,.889,0v1.777a.444.444,0,0,1-.443.445h0Zm0-3.555a.443.443,0,0,1-.444-.442V904.5a.445.445,0,0,1,.889,0v1.777a.444.444,0,0,1-.444.444h0Zm0-3.555a.443.443,0,0,1-.444-.442v-1.779a.445.445,0,0,1,.889,0v1.777a.444.444,0,0,1-.443.445h0Zm0-3.555a.443.443,0,0,1-.444-.442v-1.779a.445.445,0,0,1,.889,0v1.777a.444.444,0,0,1-.443.445h0Zm0-3.555a.443.443,0,0,1-.444-.442v-1.779a.445.445,0,0,1,.889,0v1.777a.444.444,0,0,1-.443.445h0Zm-1.076-2.479h-1.777a.444.444,0,0,1,0-.889h1.777a.444.444,0,1,1,0,.889Zm-3.555,0h-1.778a.444.444,0,0,1,0-.889h1.777a.444.444,0,1,1,0,.889Zm-3.555,0H1827.1a.444.444,0,0,1,0-.889h1.777a.444.444,0,1,1,0,.889Zm-3.555,0h-1.778a.444.444,0,0,1,0-.889h1.777a.444.444,0,1,1,0,.889h0Z" fill="#c7d7e2"/>
    </g>
    <g id="Grupo_20981" data-name="Grupo 20981">
      <rect id="Rectángulo_5145" data-name="Rectángulo 5145" width="33.65" height="15.631" transform="translate(1595.261 788.068)" fill="#edba3a"/>
      <path id="Trazado_3203" data-name="Trazado 3203" d="M1596.7,799.485v-7.2a2.769,2.769,0,0,0,2.769-2.769H1624.7a2.769,2.769,0,0,0,2.769,2.769h0v7.2a2.769,2.769,0,0,0-2.769,2.769h-25.222a2.769,2.769,0,0,0-2.769-2.769Z" fill="#fbd15b"/>
      <path id="Trazado_3204" data-name="Trazado 3204" d="M1616.813,795.883a4.727,4.727,0,1,1-4.727-4.727h0A4.726,4.726,0,0,1,1616.813,795.883Z" fill="#edba3a"/>
      <g id="Grupo_20980" data-name="Grupo 20980">
        <path id="Trazado_3205" data-name="Trazado 3205" d="M1613.888,796.954a1.131,1.131,0,0,1-.407.9,2.1,2.1,0,0,1-1.136.444v.925h-.515v-.89a5.225,5.225,0,0,1-.865-.069,2.688,2.688,0,0,1-.686-.194v-.624a3.933,3.933,0,0,0,.763.241,3.73,3.73,0,0,0,.787.093v-1.753a2.755,2.755,0,0,1-1.146-.6,1.227,1.227,0,0,1-.33-.885,1.062,1.062,0,0,1,.405-.857,1.978,1.978,0,0,1,1.07-.407v-.725h.515v.717a4.046,4.046,0,0,1,1.415.3l-.207.523a4.015,4.015,0,0,0-1.208-.279v1.73a4.518,4.518,0,0,1,.937.388,1.32,1.32,0,0,1,.459.435A1.126,1.126,0,0,1,1613.888,796.954Zm-2.858-2.424a.669.669,0,0,0,.18.487,1.717,1.717,0,0,0,.621.347v-1.543a1.144,1.144,0,0,0-.6.249.6.6,0,0,0-.2.46Zm2.18,2.476a.623.623,0,0,0-.177-.464,1.878,1.878,0,0,0-.688-.354v1.553q.868-.122.867-.735Z" fill="#fbd15b"/>
      </g>
    </g>
    <g id="Grupo_20983" data-name="Grupo 20983">
      <rect id="Rectángulo_5146" data-name="Rectángulo 5146" width="33.649" height="15.631" transform="translate(1691.628 971.822) rotate(-45)" fill="#edba3a"/>
      <path id="Trazado_3206" data-name="Trazado 3206" d="M1700.722,978.872l-5.093-5.094a2.767,2.767,0,0,0,0-3.914l0,0,17.835-17.835a2.769,2.769,0,0,0,3.915,0v0l5.093,5.094a2.768,2.768,0,0,0,0,3.915h0l-17.834,17.835a2.769,2.769,0,0,0-3.916,0Z" fill="#fbd15b"/>
      <path id="Trazado_3207" data-name="Trazado 3207" d="M1712.394,962.109a4.727,4.727,0,1,1-6.686,0,4.726,4.726,0,0,1,6.686,0Z" fill="#edba3a"/>
      <g id="Grupo_20982" data-name="Grupo 20982">
        <path id="Trazado_3208" data-name="Trazado 3208" d="M1711.084,964.932a1.135,1.135,0,0,1,.345.921,2.086,2.086,0,0,1-.489,1.118l.654.654-.364.364-.628-.629a5.152,5.152,0,0,1-.661.563,2.688,2.688,0,0,1-.621.348l-.44-.44a3.861,3.861,0,0,0,.711-.369,3.732,3.732,0,0,0,.622-.491l-1.24-1.241a2.773,2.773,0,0,1-1.236.385,1.226,1.226,0,0,1-.858-.393,1.066,1.066,0,0,1-.32-.892,1.978,1.978,0,0,1,.469-1.045l-.513-.513.363-.363.507.507a4.069,4.069,0,0,1,1.21-.793l.222.516a4.054,4.054,0,0,0-1.051.657l1.224,1.224a4.548,4.548,0,0,1,.938-.388,1.333,1.333,0,0,1,.631-.017A1.139,1.139,0,0,1,1711.084,964.932Zm-3.735.307a.662.662,0,0,0,.47.217,1.71,1.71,0,0,0,.685-.2l-1.09-1.09a1.15,1.15,0,0,0-.247.6A.6.6,0,0,0,1707.349,965.239Zm3.293.209a.629.629,0,0,0-.454-.2,1.917,1.917,0,0,0-.736.237l1.1,1.1q.522-.7.086-1.14Z" fill="#fbd15b"/>
      </g>
    </g>
    <g id="Grupo_20985" data-name="Grupo 20985">
      <rect id="Rectángulo_5147" data-name="Rectángulo 5147" width="33.65" height="15.631" transform="translate(1676.307 947.023)" fill="#edba3a"/>
      <path id="Trazado_3209" data-name="Trazado 3209" d="M1677.752,958.44v-7.2a2.769,2.769,0,0,0,2.769-2.769h25.219a2.769,2.769,0,0,0,2.769,2.769h0v7.2a2.769,2.769,0,0,0-2.769,2.769h-25.219a2.769,2.769,0,0,0-2.768-2.77Z" fill="#fbd15b"/>
      <path id="Trazado_3210" data-name="Trazado 3210" d="M1697.859,954.839a4.727,4.727,0,1,1-4.727-4.727h0A4.727,4.727,0,0,1,1697.859,954.839Z" fill="#edba3a"/>
      <g id="Grupo_20984" data-name="Grupo 20984">
        <path id="Trazado_3211" data-name="Trazado 3211" d="M1694.94,955.908a1.131,1.131,0,0,1-.407.895,2.088,2.088,0,0,1-1.136.445v.924h-.515v-.889a5.121,5.121,0,0,1-.865-.07,2.686,2.686,0,0,1-.686-.193V956.4a3.87,3.87,0,0,0,.763.242,3.73,3.73,0,0,0,.787.093v-1.754a2.756,2.756,0,0,1-1.146-.6,1.231,1.231,0,0,1-.329-.885,1.065,1.065,0,0,1,.4-.858,1.981,1.981,0,0,1,1.071-.406V951.5h.515v.718a4.043,4.043,0,0,1,1.415.3l-.207.522a4.078,4.078,0,0,0-1.208-.279v1.73a4.541,4.541,0,0,1,.937.389,1.319,1.319,0,0,1,.459.435A1.138,1.138,0,0,1,1694.94,955.908Zm-2.859-2.424a.666.666,0,0,0,.18.486,1.721,1.721,0,0,0,.622.347v-1.543a1.154,1.154,0,0,0-.6.25.6.6,0,0,0-.206.461Zm2.181,2.476a.623.623,0,0,0-.177-.465,1.923,1.923,0,0,0-.688-.353v1.551q.863-.118.861-.732Z" fill="#fbd15b"/>
      </g>
    </g>
    <g id="Grupo_20987" data-name="Grupo 20987">
      <rect id="Rectángulo_5148" data-name="Rectángulo 5148" width="9.839" height="21.181" transform="translate(1693.65 925.705) rotate(-45)" fill="#edba3a"/>
      <path id="Trazado_3212" data-name="Trazado 3212" d="M1696.894,923.747l1.755-1.755a2.769,2.769,0,0,0,3.915,0v0l9.777,9.775a2.768,2.768,0,0,0,0,3.915h0l-1.755,1.755a2.767,2.767,0,0,0-3.914,0h0l-9.775-9.775a2.767,2.767,0,0,0,0-3.914Z" fill="#fbd15b"/>
      <path id="Trazado_3213" data-name="Trazado 3213" d="M1706.721,931.82a2.976,2.976,0,1,1,0-4.209h0A2.975,2.975,0,0,1,1706.721,931.82Z" fill="#edba3a"/>
      <g id="Grupo_20986" data-name="Grupo 20986">
        <path id="Trazado_3214" data-name="Trazado 3214" d="M1704.944,930.995a.71.71,0,0,1-.579.217,1.322,1.322,0,0,1-.7-.307l-.412.411-.228-.228.4-.4a3.262,3.262,0,0,1-.354-.416,1.706,1.706,0,0,1-.22-.391l.277-.277a2.492,2.492,0,0,0,.232.448,2.391,2.391,0,0,0,.309.392l.78-.781a1.739,1.739,0,0,1-.242-.778.772.772,0,0,1,.247-.54.671.671,0,0,1,.562-.2,1.24,1.24,0,0,1,.658.3l.323-.323.229.229-.32.319a2.523,2.523,0,0,1,.5.762l-.324.139a2.549,2.549,0,0,0-.413-.661l-.771.77a2.864,2.864,0,0,1,.244.59.832.832,0,0,1,.011.4A.722.722,0,0,1,1704.944,930.995Zm-.193-2.352a.418.418,0,0,0-.137.3,1.064,1.064,0,0,0,.123.431l.686-.687a.726.726,0,0,0-.377-.156A.374.374,0,0,0,1704.751,928.643Zm-.132,2.072a.4.4,0,0,0,.128-.285,1.194,1.194,0,0,0-.149-.464l-.691.69q.439.333.713.06Z" fill="#fbd15b"/>
      </g>
    </g>
    <g id="Grupo_20991" data-name="Grupo 20991">
      <g id="Grupo_20989" data-name="Grupo 20989">
        <g id="Grupo_20988" data-name="Grupo 20988">
          <path id="Trazado_3215" data-name="Trazado 3215" d="M1594.552,806.552a5.63,5.63,0,1,1-5.63,5.63,5.63,5.63,0,0,1,5.63-5.63Zm4.818,5.63a4.818,4.818,0,1,0-4.818,4.818h0a4.816,4.816,0,0,0,4.818-4.816Z" fill="#edba3a"/>
          <path id="Trazado_3216" data-name="Trazado 3216" d="M1594.552,807.364a4.818,4.818,0,1,1-4.818,4.818h0a4.818,4.818,0,0,1,4.816-4.818Zm4.476,4.818a4.475,4.475,0,1,0-4.476,4.475,4.475,4.475,0,0,0,4.476-4.475Z" fill="#fbd15b"/>
          <path id="Trazado_3217" data-name="Trazado 3217" d="M1594.552,807.707a4.475,4.475,0,1,1-4.475,4.475,4.475,4.475,0,0,1,4.475-4.475Zm3.862,4.475a3.862,3.862,0,1,0-3.863,3.861h0a3.862,3.862,0,0,0,3.865-3.861h0Z" fill="#edba3a"/>
          <path id="Trazado_3218" data-name="Trazado 3218" d="M1594.552,808.32a3.862,3.862,0,1,1-3.862,3.862h0A3.864,3.864,0,0,1,1594.552,808.32Z" fill="#fbd15b"/>
        </g>
      </g>
      <g id="Grupo_20990" data-name="Grupo 20990">
        <path id="Trazado_3219" data-name="Trazado 3219" d="M1595.221,810.348a1.1,1.1,0,0,1,.694,1.146v.086h-.582a.856.856,0,0,0-.24-.683l-.252,1.05c.734.115,1.118.4,1.118,1.009V813c0,.693-.5,1.118-1.37,1.118-.092,0-.178-.006-.264-.012l-.155.654h-.476l.184-.763a1.136,1.136,0,0,1-.723-1.13v-.034h.585a.741.741,0,0,0,.264.619l.264-1.106c-.757-.126-1.073-.442-1.073-.98v-.046c0-.676.545-1.083,1.359-1.083a2.183,2.183,0,0,1,.218.012l.155-.648h.476Zm-.843,1.53.27-1.135a.469.469,0,0,0-.092-.006h-.023c-.419,0-.746.2-.746.551v.028c0,.29.146.476.59.562Zm.975,1.153v-.025c0-.327-.2-.5-.63-.585l-.287,1.2a1.065,1.065,0,0,0,.138.006h.023c.446,0,.755-.221.755-.6Z" fill="#edba3a"/>
      </g>
    </g>
    <g id="Grupo_20995" data-name="Grupo 20995">
      <g id="Grupo_20993" data-name="Grupo 20993">
        <g id="Grupo_20992" data-name="Grupo 20992">
          <path id="Trazado_3220" data-name="Trazado 3220" d="M1707.49,812.96a3.736,3.736,0,1,1-3.736,3.736h0a3.735,3.735,0,0,1,3.733-3.735Zm3.2,3.735a3.2,3.2,0,1,1-.006,0Z" fill="#edba3a"/>
          <path id="Trazado_3221" data-name="Trazado 3221" d="M1707.491,813.5a3.2,3.2,0,1,1-3.2,3.2,3.2,3.2,0,0,1,3.2-3.2Zm2.969,3.2a2.97,2.97,0,1,0-2.97,2.97h0a2.969,2.969,0,0,0,2.969-2.969v0Z" fill="#fbd15b"/>
          <path id="Trazado_3222" data-name="Trazado 3222" d="M1707.488,813.726a2.97,2.97,0,1,1-2.97,2.97h0a2.969,2.969,0,0,1,2.969-2.969Zm2.562,2.969a2.563,2.563,0,1,0-2.563,2.563h0a2.562,2.562,0,0,0,2.564-2.56v0Z" fill="#edba3a"/>
          <path id="Trazado_3223" data-name="Trazado 3223" d="M1707.49,814.138a2.563,2.563,0,1,1-2.563,2.563h0a2.562,2.562,0,0,1,2.562-2.562Z" fill="#fbd15b"/>
        </g>
      </g>
      <g id="Grupo_20994" data-name="Grupo 20994">
        <path id="Trazado_3224" data-name="Trazado 3224" d="M1707.933,815.478a.732.732,0,0,1,.46.762v.057h-.387a.568.568,0,0,0-.16-.453l-.167.7c.487.076.741.267.741.669v.031c0,.46-.331.741-.909.741a1.445,1.445,0,0,1-.175-.007l-.1.434h-.316l.122-.506a.757.757,0,0,1-.479-.75v-.024h.388a.5.5,0,0,0,.175.411l.174-.734c-.5-.084-.711-.293-.711-.651v-.031c0-.449.362-.719.9-.719a.842.842,0,0,1,.144.008l.1-.43h.315Zm-.559,1.016.179-.753a.3.3,0,0,0-.06,0h-.015c-.278,0-.495.132-.495.365v.019c0,.19.1.312.391.369Zm.647.765v-.019c0-.217-.13-.331-.419-.388l-.19.8a.7.7,0,0,0,.092,0h.015c.3,0,.5-.141.5-.393Z" fill="#edba3a"/>
      </g>
    </g>
    <g id="Grupo_20999" data-name="Grupo 20999">
      <g id="Grupo_20997" data-name="Grupo 20997">
        <g id="Grupo_20996" data-name="Grupo 20996">
          <path id="Trazado_3225" data-name="Trazado 3225" d="M1584.7,797.723a5.63,5.63,0,1,1-5.63,5.63,5.63,5.63,0,0,1,5.63-5.63Zm4.818,5.63a4.818,4.818,0,1,0-4.818,4.818h0a4.816,4.816,0,0,0,4.816-4.818Z" fill="#edba3a"/>
          <path id="Trazado_3226" data-name="Trazado 3226" d="M1584.695,798.535a4.818,4.818,0,1,1-4.818,4.818h0a4.818,4.818,0,0,1,4.816-4.818Zm4.475,4.818a4.475,4.475,0,1,0-4.475,4.475,4.475,4.475,0,0,0,4.475-4.475h0Z" fill="#fbd15b"/>
          <path id="Trazado_3227" data-name="Trazado 3227" d="M1584.695,798.877a4.475,4.475,0,1,1-4.475,4.476,4.475,4.475,0,0,1,4.475-4.476Zm3.862,4.476a3.862,3.862,0,1,0-3.862,3.862h0a3.862,3.862,0,0,0,3.862-3.864v0Z" fill="#edba3a"/>
          <path id="Trazado_3228" data-name="Trazado 3228" d="M1584.695,799.491a3.862,3.862,0,1,1-3.862,3.862h0A3.864,3.864,0,0,1,1584.695,799.491Z" fill="#fbd15b"/>
        </g>
      </g>
      <g id="Grupo_20998" data-name="Grupo 20998">
        <path id="Trazado_3229" data-name="Trazado 3229" d="M1585.368,801.518a1.1,1.1,0,0,1,.693,1.147v.085h-.593a.853.853,0,0,0-.241-.683l-.252,1.05c.734.115,1.119.4,1.119,1.01v.045c0,.694-.5,1.118-1.371,1.118-.092,0-.178-.005-.263-.011l-.156.653h-.475l.183-.763a1.136,1.136,0,0,1-.722-1.13v-.028h.585a.743.743,0,0,0,.263.619l.264-1.106c-.756-.126-1.072-.442-1.072-.98V802.5c0-.676.545-1.083,1.359-1.083a2.181,2.181,0,0,1,.218.012l.155-.649h.476Zm-.843,1.531.269-1.136a.553.553,0,0,0-.092-.005h-.023c-.419,0-.745.2-.745.55v.029c0,.293.145.476.586.562Zm.975,1.153v-.029c0-.326-.195-.5-.631-.585l-.286,1.2a1.065,1.065,0,0,0,.138.006h.022c.443,0,.752-.214.752-.592Z" fill="#edba3a"/>
      </g>
    </g>
    <g id="Grupo_21000" data-name="Grupo 21000">
      <path id="Trazado_3230" data-name="Trazado 3230" d="M1643.776,796.633H1642a.444.444,0,0,1,0-.889h1.777a.444.444,0,1,1,0,.889Zm-3.555,0h-1.777a.444.444,0,0,1,0-.889h1.777a.444.444,0,1,1,0,.889Zm-3.555,0h-1.777a.444.444,0,0,1,0-.889h1.777a.444.444,0,1,1,0,.889Zm-3.555,0h-1.777a.444.444,0,0,1,0-.889h1.773a.444.444,0,1,1,0,.889Z" fill="#c7d7e2"/>
    </g>
    <g id="Grupo_21001" data-name="Grupo 21001">
      <path id="Trazado_3231" data-name="Trazado 3231" d="M1572.6,828.458h-2.511v-2.922c0-2.864,2.8-2.766,2.8-4.159,0-1.04-.785-1.373-1.549-1.373a1.489,1.489,0,0,0-1.651,1.307,1.507,1.507,0,0,0,.022.478h-2.492c.02-2.708,1.728-4,4.121-4,2.019,0,4.039,1.119,4.039,3.59,0,2.315-2.784,2.8-2.784,4.159Zm-1.237,1a1.716,1.716,0,1,1-1.7,1.732v-.005A1.719,1.719,0,0,1,1571.362,829.458Z" fill="#ff6e27"/>
    </g>
    <path id="Trazado_3232" data-name="Trazado 3232" d="M1791.737,792.044a10.21,10.21,0,1,0,10.21,10.21,10.21,10.21,0,0,0-10.21-10.21Zm5.926,16.136a8.381,8.381,0,1,1,2.455-5.926,8.38,8.38,0,0,1-2.455,5.926Zm-5.51-13.3a.914.914,0,0,0-.914.914h0v6.4l-2.835,3a.914.914,0,1,0,1.329,1.256l3.086-3.263a.911.911,0,0,0,.25-.628v-6.767a.914.914,0,0,0-.916-.91Z" fill="#b52426"/>
    <g id="Grupo_21002" data-name="Grupo 21002">
      <rect id="Rectángulo_5149" data-name="Rectángulo 5149" width="4.41" height="17.008" transform="translate(1716.724 831.077)" fill="#c7d7e2"/>
      <rect id="Rectángulo_5150" data-name="Rectángulo 5150" width="4.41" height="9.815" transform="translate(1701.743 838.271)" fill="#c7d7e2"/>
      <rect id="Rectángulo_5151" data-name="Rectángulo 5151" width="4.41" height="5.632" transform="translate(1694.252 842.453)" fill="#c7d7e2"/>
      <rect id="Rectángulo_5152" data-name="Rectángulo 5152" width="4.41" height="5.632" transform="translate(1686.762 842.453)" fill="#c7d7e2"/>
      <rect id="Rectángulo_5153" data-name="Rectángulo 5153" width="4.409" height="2.816" transform="translate(1679.271 845.269)" fill="#c7d7e2"/>
      <rect id="Rectángulo_5154" data-name="Rectángulo 5154" width="4.41" height="12.271" transform="translate(1709.234 835.814)" fill="#c7d7e2"/>
      <path id="Trazado_3233" data-name="Trazado 3233" d="M1677.455,842.905c.012,0,.149,0,.4,0a50.785,50.785,0,0,0,15.181-2.743,65.027,65.027,0,0,0,26.581-16.984l-1.379-1.327a63.111,63.111,0,0,1-25.8,16.493A48.927,48.927,0,0,1,1677.855,841h-.331l-.07,1.913Z" fill="#c7d7e2"/>
      <path id="Trazado_3234" data-name="Trazado 3234" d="M1721.086,820.526l-5.758,1.2,4.56,4.559Z" fill="#c7d7e2"/>
    </g>
    <path id="Trazado_3235" data-name="Trazado 3235" d="M1835.873,982.46a1.65,1.65,0,1,0,1.65,1.65,1.65,1.65,0,0,0-1.65-1.65Zm-3.855-2.378,1.452,1.517a3.468,3.468,0,0,1,4.806,0l1.452-1.517a5.564,5.564,0,0,0-7.711,0Zm3.855-10.386a14.362,14.362,0,0,0-9.963,4l1.453,1.519a12.3,12.3,0,0,1,17.022,0l1.452-1.519a14.359,14.359,0,0,0-9.964-4.005Zm-6.87,7.237,1.452,1.517a7.819,7.819,0,0,1,10.835,0l1.452-1.517a9.915,9.915,0,0,0-13.74,0Z" fill="#b52426"/>
    <path id="Trazado_3236" data-name="Trazado 3236" d="M1706.9,781.673h5.507l3.965-10.46Zm11.016,0h-5.508l-3.964,10.461Z" fill="#fbd15b"/>
    <path id="Trazado_3237" data-name="Trazado 3237" d="M1795.968,981.555a1.915,1.915,0,1,0-1.354-.561,1.915,1.915,0,0,0,1.354.561" fill="#c7d7e2"/>
    <path id="Trazado_3238" data-name="Trazado 3238" d="M1815.706,981.555h.01a1.914,1.914,0,1,0,0-3.829h-.01a1.914,1.914,0,0,0,0,3.829Z" fill="#c7d7e2"/>
    <path id="Trazado_3239" data-name="Trazado 3239" d="M1805.834,981.555h.01a1.914,1.914,0,1,0,0-3.829h-.01a1.914,1.914,0,0,0,0,3.829Z" fill="#c7d7e2"/>
    <path id="Trazado_3240" data-name="Trazado 3240" d="M1795.968,973.69a1.915,1.915,0,1,0-1.354-.561,1.915,1.915,0,0,0,1.354.561" fill="#c7d7e2"/>
    <path id="Trazado_3241" data-name="Trazado 3241" d="M1815.706,973.69h.01a1.914,1.914,0,1,0,0-3.829h-.01a1.914,1.914,0,0,0,0,3.829Z" fill="#c7d7e2"/>
    <path id="Trazado_3242" data-name="Trazado 3242" d="M1805.834,973.69h.01a1.914,1.914,0,1,0,0-3.829h-.01a1.914,1.914,0,0,0,0,3.829Z" fill="#c7d7e2"/>
    <path id="Trazado_3243" data-name="Trazado 3243" d="M1795.968,989.415a1.912,1.912,0,1,0-1.354-.56,1.913,1.913,0,0,0,1.354.56" fill="#c7d7e2"/>
    <path id="Trazado_3244" data-name="Trazado 3244" d="M1815.706,989.415h.01a1.914,1.914,0,1,0,0-3.828h-.01a1.914,1.914,0,1,0,0,3.828Z" fill="#c7d7e2"/>
    <path id="Trazado_3245" data-name="Trazado 3245" d="M1805.834,989.415h.01a1.914,1.914,0,1,0,0-3.828h-.01a1.914,1.914,0,0,0,0,3.828Z" fill="#c7d7e2"/>
    <path id="Trazado_3246" data-name="Trazado 3246" d="M1563.733,958.381a4.851,4.851,0,0,1-3.88-2.16c-.813-.932-1.455-1.668-2.8-1.668s-1.985.736-2.8,1.668a4.566,4.566,0,0,1-7.76,0c-.812-.932-1.454-1.668-2.8-1.668s-1.987.736-2.8,1.668a4.571,4.571,0,0,1-7.767,0c-.814-.932-1.457-1.668-2.8-1.668s-1.988.736-2.8,1.668a4.856,4.856,0,0,1-3.885,2.16.718.718,0,1,1-.053-1.435h.053c1.346,0,1.989-.737,2.8-1.669a4.572,4.572,0,0,1,7.768,0c.814.931,1.457,1.668,2.8,1.668s1.986-.737,2.8-1.668a4.565,4.565,0,0,1,7.761,0c.813.932,1.455,1.668,2.8,1.668s1.986-.736,2.8-1.668a4.566,4.566,0,0,1,7.762,0c.812.932,1.455,1.668,2.8,1.668a.718.718,0,1,1,.054,1.435h-.053Z" fill="#c7d7e2"/>
    <path id="Trazado_3247" data-name="Trazado 3247" d="M1679.354,823.28a6.281,6.281,0,1,1,6.281-6.281A6.281,6.281,0,0,1,1679.354,823.28Zm0-11.125A4.845,4.845,0,1,0,1684.2,817h0A4.85,4.85,0,0,0,1679.354,812.155Z" fill="#c7d7e2"/>
    <path id="Trazado_3248" data-name="Trazado 3248" d="M1559.244,992.674v-5.019h-2.788v5.019h-5.02v2.786h5.02v5.02h2.786v-5.02h5.019v-2.786Z" fill="#fbd15b"/>
    <path id="Trazado_3249" data-name="Trazado 3249" d="M1540.384,966.183a7.182,7.182,0,0,0-.9,9.047l-4.586,4.585a.5.5,0,0,0,0,.7l1.289,1.288a.5.5,0,0,0,.7,0l4.586-4.585a7.17,7.17,0,1,0-1.094-11.036Zm1.485,1.485a5.07,5.07,0,1,1,0,7.17h0A5.077,5.077,0,0,1,1541.869,967.668Z" fill="#ff6e27"/>
    <path id="Trazado_3250" data-name="Trazado 3250" d="M1809.544,1004.233l12.176-7.03v14.06Z" fill="#fbd15b"/>
    <rect id="Rectángulo_5155" data-name="Rectángulo 5155" width="12.921" height="7.537" transform="translate(1819.812 1000.464)" fill="#fbd15b"/>
    <path id="Trazado_3251" data-name="Trazado 3251" d="M1693.085,818.914h.01a1.914,1.914,0,1,0,0-3.829h-.01a1.914,1.914,0,0,0,0,3.829Z" fill="#c7d7e2"/>
    <path id="Trazado_3252" data-name="Trazado 3252" d="M1699.816,818.914h.01a1.914,1.914,0,1,0,0-3.829h-.01a1.914,1.914,0,0,0,0,3.829Z" fill="#c7d7e2"/>
    <g id="Grupo_21003" data-name="Grupo 21003">
      <path id="Trazado_3253" data-name="Trazado 3253" d="M1813.687,824.061h-4.62v-4.62h4.62Zm-3.731-.889h2.841V820.33h-2.842Z" fill="#c7d7e2"/>
    </g>
    <rect id="Rectángulo_5156" data-name="Rectángulo 5156" width="3.73" height="3.73" transform="translate(1816.457 819.886)" fill="#c7d7e2"/>
    <rect id="Rectángulo_5157" data-name="Rectángulo 5157" width="3.731" height="3.73" transform="translate(1822.924 819.886)" fill="#c7d7e2"/>
    <g id="Grupo_21004" data-name="Grupo 21004">
      <path id="Trazado_3254" data-name="Trazado 3254" d="M1548.22,1013.644h-4.62v-4.62h4.62Zm-3.731-.889h2.842v-2.842h-2.842Z" fill="#c7d7e2"/>
    </g>
    <rect id="Rectángulo_5158" data-name="Rectángulo 5158" width="3.73" height="3.73" transform="translate(1550.989 1009.469)" fill="#c7d7e2"/>
    <rect id="Rectángulo_5159" data-name="Rectángulo 5159" width="3.731" height="3.73" transform="translate(1557.457 1009.469)" fill="#c7d7e2"/>
  </g>
</svg>
