<svg xmlns="http://www.w3.org/2000/svg" width="500.413" height="201.777" viewBox="0 0 500.413 201.777">
  <g id="Grupo_22865" data-name="Grupo 22865" transform="translate(-463.446 -3732.5)">
    <circle id="Elipse_1243" data-name="Elipse 1243" cx="99.318" cy="99.318" r="99.318" transform="translate(614.502 3734.996)" fill="#fff"/>
    <g id="Grupo_22861" data-name="Grupo 22861" transform="translate(465.946 3733)">
      <g id="Grupo_22860" data-name="Grupo 22860" transform="translate(0 21.43)">
        <path id="Trazado_2654" data-name="Trazado 2654" d="M-1178.569,1959.6a79.612,79.612,0,0,1,79.61-79.613,79.613,79.613,0,0,1,79.613,79.613,79.612,79.612,0,0,1-79.613,79.61,79.611,79.611,0,0,1-79.61-79.61Z" transform="translate(1346.169 -1879.988)" fill="#d8e3e9" stroke="#fff" stroke-width="5"/>
        <path id="Trazado_2655" data-name="Trazado 2655" d="M-1170.912,1870.252a55.661,55.661,0,0,1,55.66-55.661,55.661,55.661,0,0,1,55.663,55.661,55.663,55.663,0,0,1-55.663,55.66,55.662,55.662,0,0,1-55.66-55.66Z" transform="translate(1170.912 -1786.297)" fill="#d8e3e9" stroke="#fff" stroke-width="5"/>
        <path id="Trazado_2656" data-name="Trazado 2656" d="M-1167.111,2020.133a55.661,55.661,0,0,1,55.66-55.66,55.662,55.662,0,0,1,55.66,55.66,55.662,55.662,0,0,1-55.66,55.663,55.661,55.661,0,0,1-55.66-55.663Z" transform="translate(1551.204 -1945.919)" fill="#d8e3e9" stroke="#fff" stroke-width="5"/>
      </g>
      <path id="Trazado_2658" data-name="Trazado 2658" d="M22.725,122.823a1.622,1.622,0,0,1,1.622-1.625h0a1.62,1.62,0,0,1,1.622,1.625h0a1.619,1.619,0,0,1-1.622,1.622h0A1.621,1.621,0,0,1,22.725,122.823Zm-7.575,0a1.621,1.621,0,0,1,1.622-1.625h0a1.63,1.63,0,0,1,1.625,1.625h0a1.63,1.63,0,0,1-1.625,1.622h0A1.621,1.621,0,0,1,15.15,122.823Zm-7.575,0A1.622,1.622,0,0,1,9.2,121.2h0a1.622,1.622,0,0,1,1.625,1.625h0A1.622,1.622,0,0,1,9.2,124.446h0A1.621,1.621,0,0,1,7.575,122.823Zm-7.575,0A1.622,1.622,0,0,1,1.622,121.2h0a1.622,1.622,0,0,1,1.625,1.625h0a1.621,1.621,0,0,1-1.625,1.622h0A1.621,1.621,0,0,1,0,122.823Zm0-7.575a1.621,1.621,0,0,1,1.622-1.625h0a1.622,1.622,0,0,1,1.625,1.625h0a1.621,1.621,0,0,1-1.625,1.622h0A1.62,1.62,0,0,1,0,115.248Zm0-7.575a1.621,1.621,0,0,1,1.622-1.625h0a1.622,1.622,0,0,1,1.625,1.625h0A1.621,1.621,0,0,1,1.622,109.3h0A1.621,1.621,0,0,1,0,107.673ZM0,100.1a1.621,1.621,0,0,1,1.622-1.624h0A1.622,1.622,0,0,1,3.247,100.1h0a1.621,1.621,0,0,1-1.625,1.622h0A1.621,1.621,0,0,1,0,100.1Zm0-7.575A1.621,1.621,0,0,1,1.622,90.9h0a1.622,1.622,0,0,1,1.625,1.625h0a1.621,1.621,0,0,1-1.625,1.622h0A1.62,1.62,0,0,1,0,92.523Zm0-7.575a1.621,1.621,0,0,1,1.622-1.624h0a1.621,1.621,0,0,1,1.625,1.624h0A1.621,1.621,0,0,1,1.622,86.57h0A1.621,1.621,0,0,1,0,84.948Zm0-7.575a1.621,1.621,0,0,1,1.622-1.625h0a1.622,1.622,0,0,1,1.625,1.625h0a1.621,1.621,0,0,1-1.625,1.622h0A1.621,1.621,0,0,1,0,77.373ZM0,69.8a1.621,1.621,0,0,1,1.622-1.625h0A1.622,1.622,0,0,1,3.247,69.8h0A1.621,1.621,0,0,1,1.622,71.42h0A1.621,1.621,0,0,1,0,69.8Zm0-7.575A1.619,1.619,0,0,1,1.622,60.6h0a1.619,1.619,0,0,1,1.625,1.622h0a1.621,1.621,0,0,1-1.625,1.622h0A1.621,1.621,0,0,1,0,62.223Zm0-7.575a1.619,1.619,0,0,1,1.622-1.622h0a1.619,1.619,0,0,1,1.625,1.622h0A1.62,1.62,0,0,1,1.622,56.27h0A1.619,1.619,0,0,1,0,54.648Zm0-7.575A1.619,1.619,0,0,1,1.622,45.45h0a1.62,1.62,0,0,1,1.625,1.622h0a1.62,1.62,0,0,1-1.625,1.622h0A1.619,1.619,0,0,1,0,47.073ZM0,39.5a1.619,1.619,0,0,1,1.622-1.622h0A1.62,1.62,0,0,1,3.247,39.5h0A1.62,1.62,0,0,1,1.622,41.12h0A1.619,1.619,0,0,1,0,39.5Zm0-7.575A1.621,1.621,0,0,1,1.622,30.3h0a1.621,1.621,0,0,1,1.625,1.622h0a1.62,1.62,0,0,1-1.625,1.622h0A1.619,1.619,0,0,1,0,31.922Zm0-7.575a1.621,1.621,0,0,1,1.622-1.622h0a1.621,1.621,0,0,1,1.625,1.622h0a1.622,1.622,0,0,1-1.625,1.625h0A1.622,1.622,0,0,1,0,24.347Zm0-7.575A1.621,1.621,0,0,1,1.622,15.15h0a1.621,1.621,0,0,1,1.625,1.622h0A1.622,1.622,0,0,1,1.622,18.4h0A1.621,1.621,0,0,1,0,16.772ZM0,9.2A1.621,1.621,0,0,1,1.622,7.575h0A1.621,1.621,0,0,1,3.247,9.2h0a1.622,1.622,0,0,1-1.625,1.625h0A1.621,1.621,0,0,1,0,9.2ZM0,1.622A1.621,1.621,0,0,1,1.622,0h0A1.621,1.621,0,0,1,3.247,1.622h0A1.622,1.622,0,0,1,1.622,3.247h0A1.621,1.621,0,0,1,0,1.622Z" transform="translate(316.928 201.277) rotate(-90)" fill="#437795"/>
      <g id="Grupo_21059" data-name="Grupo 21059" transform="translate(172.825 50.235)">
        <g id="Grupo_21052" data-name="Grupo 21052" transform="translate(0 73.547)">
          <path id="Trazado_2687" data-name="Trazado 2687" d="M-1044.453,1920.563l11.353,19.143a1.62,1.62,0,0,1-1.143,2.77h-140.032a1.623,1.623,0,0,1-1.143-2.77l11.365-19.143Z" transform="translate(1177.518 -1918.939)" fill="#657d89"/>
          <path id="Trazado_2688" data-name="Trazado 2688" d="M-1033.255,1945.089h-140.032a3.236,3.236,0,0,1-3-2,3.24,3.24,0,0,1,.543-3.362l11.278-19a1.624,1.624,0,0,1,2.224-.567,1.624,1.624,0,0,1,.569,2.224l-11.365,19.143a1.689,1.689,0,0,1-.248.32l140.026,0a1.553,1.553,0,0,1-.254-.318l-11.35-19.145a1.619,1.619,0,0,1,.566-2.222,1.622,1.622,0,0,1,2.225.569l11.265,19a3.241,3.241,0,0,1,.546,3.367A3.236,3.236,0,0,1-1033.255,1945.089Z" transform="translate(1176.529 -1919.929)" fill="#193540"/>
        </g>
        <path id="Trazado_2689" data-name="Trazado 2689" d="M-1051.676,1965.41h-119.6v-66.338a7.209,7.209,0,0,1,7.2-7.208h105.2a7.212,7.212,0,0,1,7.208,7.208Z" transform="translate(1184.74 -1890.238)" fill="#fff"/>
        <g id="Grupo_21053" data-name="Grupo 21053" transform="translate(11.843)">
          <path id="Trazado_2690" data-name="Trazado 2690" d="M-1051.676,1899.072v66.338h-119.6v-66.338a7.209,7.209,0,0,1,7.2-7.208h105.2A7.212,7.212,0,0,1-1051.676,1899.072Z" transform="translate(1172.897 -1890.238)" fill="#657d89"/>
          <path id="Trazado_2691" data-name="Trazado 2691" d="M-1050.687,1968.023h-119.6a1.622,1.622,0,0,1-1.622-1.622v-66.338a8.834,8.834,0,0,1,8.818-8.834h105.2a8.843,8.843,0,0,1,8.833,8.834V1966.4A1.625,1.625,0,0,1-1050.687,1968.023Zm-117.975-3.247h116.353v-64.713a5.593,5.593,0,0,0-5.586-5.587h-105.2a5.585,5.585,0,0,0-5.571,5.587Z" transform="translate(1171.908 -1891.229)" fill="#193540"/>
        </g>
        <g id="Grupo_21054" data-name="Grupo 21054" transform="translate(56.031 88.339)">
          <path id="Trazado_2692" data-name="Trazado 2692" d="M-1154.031,1932.138l1.848-5.543a.561.561,0,0,1,.474-.261h26.733a.563.563,0,0,1,.474.261l1.848,5.543Z" transform="translate(1155.656 -1924.712)" fill="#fff"/>
          <path id="Trazado_2693" data-name="Trazado 2693" d="M-1121.664,1934.75a1.624,1.624,0,0,1-1.54-1.11l-1.566-4.692h-25.167l-1.564,4.692a1.626,1.626,0,0,1-2.055,1.027,1.625,1.625,0,0,1-1.024-2.055l1.847-5.541a1.682,1.682,0,0,1,.162-.343,2.165,2.165,0,0,1,1.853-1.027h26.733a2.171,2.171,0,0,1,1.853,1.027,1.67,1.67,0,0,1,.162.343l1.847,5.541a1.627,1.627,0,0,1-1.028,2.055A1.622,1.622,0,0,1-1121.664,1934.75Z" transform="translate(1154.665 -1925.702)" fill="#193540"/>
        </g>
        <g id="Grupo_21055" data-name="Grupo 21055" transform="translate(19.049 7.516)">
          <rect id="Rectángulo_4976" data-name="Rectángulo 4976" width="105.176" height="59.637" rx="0.656" transform="translate(1.624 1.625)" fill="#fff"/>
          <path id="Trazado_2694" data-name="Trazado 2694" d="M-1063.978,1957.047h-101.813a3.308,3.308,0,0,1-3.305-3.3v-56.275a3.31,3.31,0,0,1,3.305-3.306h101.813a3.311,3.311,0,0,1,3.306,3.306v56.275A3.309,3.309,0,0,1-1063.978,1957.047Zm-101.813-59.638-.059,56.334,101.871.059a.062.062,0,0,0,.059-.059v-56.275Z" transform="translate(1169.096 -1894.162)" fill="#193540"/>
        </g>
        <g id="Grupo_21058" data-name="Grupo 21058" transform="translate(13.744 78.647)">
          <g id="Grupo_21056" data-name="Grupo 21056" transform="translate(1.935)">
            <path id="Trazado_2695" data-name="Trazado 2695" d="M-1169.778,1922.553h0Z" transform="translate(1171.4 -1920.928)" fill="#fff"/>
            <path id="Trazado_2696" data-name="Trazado 2696" d="M-1056.706,1925.166h-112.083a1.622,1.622,0,0,1-1.623-1.622,1.623,1.623,0,0,1,1.623-1.625h112.083a1.625,1.625,0,0,1,1.622,1.625A1.624,1.624,0,0,1-1056.706,1925.166Z" transform="translate(1170.411 -1921.919)" fill="#193540"/>
          </g>
          <g id="Grupo_21057" data-name="Grupo 21057" transform="translate(0 5.861)">
            <path id="Trazado_2697" data-name="Trazado 2697" d="M-1170.532,1924.839h0Z" transform="translate(1172.157 -1923.217)" fill="#fff"/>
            <path id="Trazado_2698" data-name="Trazado 2698" d="M-1053.593,1927.45h-115.948a1.623,1.623,0,0,1-1.625-1.622,1.623,1.623,0,0,1,1.625-1.622h115.948a1.621,1.621,0,0,1,1.622,1.622A1.621,1.621,0,0,1-1053.593,1927.45Z" transform="translate(1171.166 -1924.207)" fill="#193540"/>
          </g>
        </g>
      </g>
      <path id="Trazado_2657" data-name="Trazado 2657" d="M-1085.258,2070.738a1.622,1.622,0,0,1,1.579-1.665h0a1.624,1.624,0,0,1,1.668,1.578h0a1.637,1.637,0,0,1-1.581,1.668h-.044A1.626,1.626,0,0,1-1085.258,2070.738Zm-6.027,1.494a1.612,1.612,0,0,1-1.537-1.7h0a1.61,1.61,0,0,1,1.689-1.535h.01a1.621,1.621,0,0,1,1.537,1.7h0a1.617,1.617,0,0,1-1.614,1.538h-.085Zm13.592-1.86a1.612,1.612,0,0,1,1.438-1.786h0a1.614,1.614,0,0,1,1.786,1.438h0a1.622,1.622,0,0,1-1.451,1.786h.01a1,1,0,0,1-.172.01h0A1.624,1.624,0,0,1-1077.693,2070.371Zm-21.254,1.2a1.619,1.619,0,0,1-1.407-1.819h0a1.62,1.62,0,0,1,1.807-1.407h0a1.631,1.631,0,0,1,1.407,1.819h0a1.611,1.611,0,0,1-1.6,1.418h0A1.251,1.251,0,0,1-1098.947,2071.573Zm28.763-2.155a1.626,1.626,0,0,1,1.309-1.893h0a1.622,1.622,0,0,1,1.884,1.309h0a1.631,1.631,0,0,1-1.309,1.894h0v-.01h0a1.456,1.456,0,0,1-.293.033h0A1.623,1.623,0,0,1-1070.184,2069.418Zm-36.361.91a1.634,1.634,0,0,1-1.266-1.914h0a1.624,1.624,0,0,1,1.916-1.265h0a1.61,1.61,0,0,1,1.266,1.914h0a1.619,1.619,0,0,1-1.591,1.3h0A1.793,1.793,0,0,1-1106.545,2070.328Zm43.774-2.435a1.624,1.624,0,0,1,1.158-1.981h0a1.62,1.62,0,0,1,1.978,1.158h0a1.607,1.607,0,0,1-1.146,1.981h0a1.974,1.974,0,0,1-.423.053h0A1.635,1.635,0,0,1-1062.771,2067.893Zm-51.252.6h0a1.639,1.639,0,0,1-1.112-2.012h0a1.64,1.64,0,0,1,2.012-1.115h0a1.632,1.632,0,0,1,1.115,2.012h0a1.628,1.628,0,0,1-1.558,1.181h0A1.669,1.669,0,0,1-1114.022,2068.5Zm58.535-2.693a1.627,1.627,0,0,1,.994-2.068h0a1.625,1.625,0,0,1,2.068,1h0a1.619,1.619,0,0,1-1,2.065h0a1.6,1.6,0,0,1-.541.1h0A1.607,1.607,0,0,1-1055.488,2065.8Zm-65.839.292h0a1.625,1.625,0,0,1-.963-2.088h0a1.623,1.623,0,0,1,2.088-.953h0a1.608,1.608,0,0,1,.953,2.078h0a1.6,1.6,0,0,1-1.515,1.061h0A1.731,1.731,0,0,1-1121.326,2066.1Zm72.927-2.934a1.626,1.626,0,0,1,.833-2.143h0a1.632,1.632,0,0,1,2.143.833h0a1.637,1.637,0,0,1-.843,2.145h0a1.75,1.75,0,0,1-.651.128h0A1.6,1.6,0,0,1-1048.4,2063.163Zm-80.036-.031h-.013a1.623,1.623,0,0,1-.779-2.155h0a1.618,1.618,0,0,1,2.155-.789h0a1.632,1.632,0,0,1,.79,2.152h0a1.634,1.634,0,0,1-1.481.943h0A1.64,1.64,0,0,1-1128.435,2063.132Zm86.9-3.16a1.625,1.625,0,0,1,.671-2.2h0a1.637,1.637,0,0,1,2.2.671h0a1.625,1.625,0,0,1-.671,2.2h0a1.63,1.63,0,0,1-.756.2h0A1.625,1.625,0,0,1-1041.539,2059.972Zm-93.756-.346a1.621,1.621,0,0,1-.628-2.208h0a1.619,1.619,0,0,1,2.207-.618h0a1.623,1.623,0,0,1,.628,2.209h0a1.631,1.631,0,0,1-1.417.823h0A1.613,1.613,0,0,1-1135.3,2059.626Zm100.357-3.357a1.616,1.616,0,0,1,.5-2.24h0a1.614,1.614,0,0,1,2.24.5h0a1.611,1.611,0,0,1-.5,2.238h0a1.61,1.61,0,0,1-.866.261h0A1.617,1.617,0,0,1-1034.938,2056.269Zm-106.927-.659a1.622,1.622,0,0,1-.454-2.25h0a1.621,1.621,0,0,1,2.25-.456h0a1.622,1.622,0,0,1,.453,2.253h0a1.616,1.616,0,0,1-1.351.722h0A1.588,1.588,0,0,1-1141.865,2055.611Zm113.224-3.539a1.624,1.624,0,0,1,.326-2.273h0a1.623,1.623,0,0,1,2.272.325h0a1.622,1.622,0,0,1-.325,2.273h0a1.647,1.647,0,0,1-.974.323h0A1.615,1.615,0,0,1-1028.642,2052.072Zm-119.466-.974v.01h0a1.631,1.631,0,0,1-.282-2.283h0a1.634,1.634,0,0,1,2.283-.282h0a1.634,1.634,0,0,1,.282,2.283h0a1.623,1.623,0,0,1-1.289.617h0A1.587,1.587,0,0,1-1148.108,2051.1Zm125.42-3.69a1.627,1.627,0,0,1,.161-2.294h0a1.605,1.605,0,0,1,2.284.151h0a1.625,1.625,0,0,1-.151,2.294h0a1.6,1.6,0,0,1-1.071.4h0A1.676,1.676,0,0,1-1022.688,2047.408Zm-131.3-1.277h0a1.622,1.622,0,0,1-.1-2.293h0a1.633,1.633,0,0,1,2.294-.11h0a1.638,1.638,0,0,1,.1,2.3h0a1.611,1.611,0,0,1-1.2.52h0A1.623,1.623,0,0,1-1153.984,2046.131Zm136.89-3.844a1.622,1.622,0,0,1-.02-2.293h0a1.622,1.622,0,0,1,2.294-.021h0a1.623,1.623,0,0,1,.02,2.294h0a1.6,1.6,0,0,1-1.156.487h0A1.6,1.6,0,0,1-1017.094,2042.288Zm-142.366-1.556a1.617,1.617,0,0,1,.074-2.3h0a1.627,1.627,0,0,1,2.3.064h0a1.639,1.639,0,0,1-.077,2.3h0a1.638,1.638,0,0,1-1.115.443h0A1.617,1.617,0,0,1-1159.46,2040.732Zm147.55-3.961a1.63,1.63,0,0,1-.2-2.294h0a1.629,1.629,0,0,1,2.294-.195h0a1.625,1.625,0,0,1,.195,2.283h0a1.607,1.607,0,0,1-1.246.584h0A1.645,1.645,0,0,1-1011.91,2036.771Zm-152.6-1.851a1.617,1.617,0,0,1,.249-2.283h0a1.626,1.626,0,0,1,2.283.248h0a1.621,1.621,0,0,1-.249,2.284h0a1.647,1.647,0,0,1-1.018.356h0A1.615,1.615,0,0,1-1164.514,2034.92Zm157.344-4.059a1.614,1.614,0,0,1-.369-2.261h0a1.616,1.616,0,0,1,2.263-.379h0a1.637,1.637,0,0,1,.377,2.273h0a1.669,1.669,0,0,1-1.33.671h0A1.625,1.625,0,0,1-1007.169,2030.861Zm-161.934-2.12a1.613,1.613,0,0,1,.423-2.252h0a1.611,1.611,0,0,1,2.25.423h0a1.606,1.606,0,0,1-.421,2.25h0a1.567,1.567,0,0,1-.91.292h0A1.616,1.616,0,0,1-1169.1,2028.742Zm166.219-4.123a1.63,1.63,0,0,1-.553-2.23h0a1.613,1.613,0,0,1,2.23-.551h0a1.62,1.62,0,0,1,.553,2.227h0a1.627,1.627,0,0,1-1.4.779h0A1.664,1.664,0,0,1-1002.885,2024.618Zm-170.319-2.38a1.629,1.629,0,0,1,.585-2.22h0a1.622,1.622,0,0,1,2.216.595h0a1.622,1.622,0,0,1-.581,2.219h0a1.613,1.613,0,0,1-.813.218h0A1.616,1.616,0,0,1-1173.2,2022.238Zm174.107-4.188a1.624,1.624,0,0,1-.715-2.189h0a1.628,1.628,0,0,1,2.176-.712h0a1.626,1.626,0,0,1,.715,2.186h0a1.622,1.622,0,0,1-1.451.887h0A1.6,1.6,0,0,1-999.1,2018.05Zm-177.7-2.609h0a1.618,1.618,0,0,1,.756-2.166h0a1.616,1.616,0,0,1,2.166.759h0a1.623,1.623,0,0,1-.756,2.163h0a1.617,1.617,0,0,1-.7.164h0A1.615,1.615,0,0,1-1176.8,2015.442Zm180.967-4.221a1.62,1.62,0,0,1-.876-2.122h0a1.619,1.619,0,0,1,2.122-.886h0a1.627,1.627,0,0,1,.876,2.122h0a1.627,1.627,0,0,1-1.5,1h0A1.81,1.81,0,0,1-995.83,2011.221Zm-184.029-2.836a1.626,1.626,0,0,1,.93-2.1h0a1.624,1.624,0,0,1,2.1.92h0a1.626,1.626,0,0,1-.93,2.1h0a1.58,1.58,0,0,1-.584.11h0A1.623,1.623,0,0,1-1179.859,2008.384Zm186.766-4.242a1.612,1.612,0,0,1-1.038-2.045h0a1.611,1.611,0,0,1,2.045-1.038h0a1.632,1.632,0,0,1,1.04,2.044h0a1.644,1.644,0,0,1-1.548,1.125h0A1.614,1.614,0,0,1-993.093,2004.143Zm-189.267-3.039a1.628,1.628,0,0,1,1.084-2.024h0a1.62,1.62,0,0,1,2.022,1.092h0a1.624,1.624,0,0,1-1.081,2.024h0a1.787,1.787,0,0,1-.477.067h0A1.621,1.621,0,0,1-1182.36,2001.1Zm191.443-4.21a1.63,1.63,0,0,1-1.2-1.96h0a1.634,1.634,0,0,1,1.971-1.189h0a1.609,1.609,0,0,1,1.191,1.948h0a1.619,1.619,0,0,1-1.571,1.245h0A1.7,1.7,0,0,1-990.917,1996.893Zm-193.38-3.237h0a1.626,1.626,0,0,1,1.235-1.937h0a1.641,1.641,0,0,1,1.937,1.246h0a1.617,1.617,0,0,1-1.235,1.927h0a1.42,1.42,0,0,1-.356.041h0A1.619,1.619,0,0,1-1184.3,1993.657Zm194.992-4.167a1.614,1.614,0,0,1-1.34-1.85h0a1.628,1.628,0,0,1,1.861-1.353h0a1.621,1.621,0,0,1,1.343,1.863h0a1.618,1.618,0,0,1-1.6,1.363h0A1.015,1.015,0,0,1-989.305,1989.49Zm-196.343-3.408a1.616,1.616,0,0,1,1.384-1.83h0a1.613,1.613,0,0,1,1.83,1.386h0a1.631,1.631,0,0,1-1.386,1.829h0a1.644,1.644,0,0,1-.225.01h0A1.609,1.609,0,0,1-1185.648,1986.082Zm197.383-4.08a1.624,1.624,0,0,1-1.484-1.753h0a1.636,1.636,0,0,1,1.753-1.494h0a1.633,1.633,0,0,1,1.484,1.752h0a1.627,1.627,0,0,1-1.622,1.494h-.131Zm-198.152-3.58a1.612,1.612,0,0,1,1.515-1.712h0a1.613,1.613,0,0,1,1.722,1.517h0a1.623,1.623,0,0,1-1.517,1.719h-.107A1.622,1.622,0,0,1-1186.417,1978.422Zm198.605-3.982a1.615,1.615,0,0,1-1.6-1.635h0a1.618,1.618,0,0,1,1.625-1.612h0a1.636,1.636,0,0,1,1.622,1.633h0a1.629,1.629,0,0,1-1.635,1.615h-.01Zm-198.8-2.307a1.623,1.623,0,0,1,1.622-1.625h0a1.624,1.624,0,0,1,1.625,1.625h0a1.628,1.628,0,0,1-1.625,1.622h0A1.627,1.627,0,0,1-1186.611,1972.134Zm196.96-6.776a1.629,1.629,0,0,1,1.517-1.729h0a1.626,1.626,0,0,1,1.73,1.514h0a1.624,1.624,0,0,1-1.515,1.722h0a.378.378,0,0,1-.107.011h0A1.64,1.64,0,0,1-989.651,1965.358Zm-195.174.823a1.607,1.607,0,0,1-1.494-1.74h0a1.617,1.617,0,0,1,1.73-1.494h0a1.622,1.622,0,0,1,1.5,1.743h0a1.628,1.628,0,0,1-1.622,1.5h0C-1184.751,1966.193-1184.781,1966.181-1184.825,1966.181Zm194.384-8.223a1.617,1.617,0,0,1,1.364-1.84h0a1.626,1.626,0,0,1,1.85,1.364h0v.013h0a1.624,1.624,0,0,1-1.374,1.84h0a1.917,1.917,0,0,1-.238.01h0A1.619,1.619,0,0,1-990.441,1957.957Zm-193.649.692a1.629,1.629,0,0,1-1.364-1.85h0a1.642,1.642,0,0,1,1.861-1.363h0a1.629,1.629,0,0,1,1.353,1.861h0a1.619,1.619,0,0,1-1.6,1.376h0A1.6,1.6,0,0,1-1184.089,1958.649Zm192.285-8.005a1.63,1.63,0,0,1,1.223-1.948h0a1.627,1.627,0,0,1,1.948,1.222h0a1.639,1.639,0,0,1-1.233,1.948h0a2.1,2.1,0,0,1-.358.031h0A1.626,1.626,0,0,1-991.8,1950.644Zm-190.976.551a1.626,1.626,0,0,1-1.212-1.958h0v.01h0a1.625,1.625,0,0,1,1.958-1.212h0a1.632,1.632,0,0,1,1.212,1.947h0a1.637,1.637,0,0,1-1.581,1.256h0A1.466,1.466,0,0,1-1182.78,1951.194Zm189.049-7.75a1.639,1.639,0,0,1,1.071-2.034h0a1.636,1.636,0,0,1,2.035,1.074h0v.01h0a1.617,1.617,0,0,1-1.071,2.022h0a1.5,1.5,0,0,1-.477.077h0A1.643,1.643,0,0,1-993.731,1943.445Zm-187.155.412a1.613,1.613,0,0,1-1.061-2.034h0a1.621,1.621,0,0,1,2.035-1.061h0a1.629,1.629,0,0,1,1.061,2.035h0a1.642,1.642,0,0,1-1.548,1.135h0A1.518,1.518,0,0,1-1180.886,1943.857Zm184.69-7.434h0a1.625,1.625,0,0,1,.907-2.112h0a1.639,1.639,0,0,1,2.112.92h0v-.01h0a1.641,1.641,0,0,1-.91,2.111h0a1.75,1.75,0,0,1-.607.118h0A1.608,1.608,0,0,1-996.2,1936.423Zm-182.245.258a1.617,1.617,0,0,1-.9-2.111h0a1.62,1.62,0,0,1,2.109-.9h0a1.622,1.622,0,0,1,.9,2.109h0a1.616,1.616,0,0,1-1.5,1.02h0A1.465,1.465,0,0,1-1178.441,1936.682Zm179.237-7.068a1.623,1.623,0,0,1,.746-2.163h0a1.628,1.628,0,0,1,2.176.735h0a1.633,1.633,0,0,1-.748,2.176h0a1.72,1.72,0,0,1-.713.161h0A1.618,1.618,0,0,1-999.2,1929.614Zm-176.239.11a1.615,1.615,0,0,1-.735-2.176h0a1.622,1.622,0,0,1,2.173-.735h0a1.623,1.623,0,0,1,.735,2.176h0a1.631,1.631,0,0,1-1.461.908h0A1.553,1.553,0,0,1-1175.443,1929.724Zm172.72-6.665v.01a1.624,1.624,0,0,1,.574-2.229h0a1.624,1.624,0,0,1,2.219.574h0v.01h0a1.625,1.625,0,0,1-.574,2.219h0a1.612,1.612,0,0,1-.822.215h0A1.618,1.618,0,0,1-1002.723,1923.059Zm-169.2-.043a1.619,1.619,0,0,1-.561-2.22h0a1.616,1.616,0,0,1,2.229-.563h0a1.633,1.633,0,0,1,.562,2.229h0a1.631,1.631,0,0,1-1.4.779h0A1.563,1.563,0,0,1-1171.927,1923.016Zm165.191-6.225h0a1.617,1.617,0,0,1,.4-2.26h0a1.629,1.629,0,0,1,2.26.41h0a1.631,1.631,0,0,1-.41,2.263h0a1.617,1.617,0,0,1-.92.282h0A1.593,1.593,0,0,1-1006.736,1916.791Zm-161.166-.192a1.628,1.628,0,0,1-.379-2.263h0a1.637,1.637,0,0,1,2.263-.389h0a1.626,1.626,0,0,1,.379,2.26h0a1.6,1.6,0,0,1-1.322.694h0A1.63,1.63,0,0,1-1167.9,1916.6Zm156.673-5.748a1.617,1.617,0,0,1,.238-2.283h0a1.625,1.625,0,0,1,2.283.228h0a1.628,1.628,0,0,1-.238,2.283h0a1.6,1.6,0,0,1-1.028.369h0A1.639,1.639,0,0,1-1011.229,1910.851Zm-152.16-.336a1.63,1.63,0,0,1-.216-2.293h0a1.624,1.624,0,0,1,2.281-.205h0a1.615,1.615,0,0,1,.218,2.284h0a1.611,1.611,0,0,1-1.255.584h0A1.621,1.621,0,0,1-1163.389,1910.515Zm147.237-5.248a1.621,1.621,0,0,1,.054-2.294h0a1.623,1.623,0,0,1,2.294.054h0a1.622,1.622,0,0,1-.054,2.293h0a1.6,1.6,0,0,1-1.115.446h0A1.618,1.618,0,0,1-1016.151,1905.267Zm-142.281-.477a1.644,1.644,0,0,1-.044-2.3h0a1.622,1.622,0,0,1,2.293-.033h0a1.614,1.614,0,0,1,.044,2.3h0a1.627,1.627,0,0,1-1.169.5h0A1.614,1.614,0,0,1-1158.432,1904.791Zm136.946-4.718a1.617,1.617,0,0,1-.121-2.294h0a1.616,1.616,0,0,1,2.3-.118h0a1.626,1.626,0,0,1,.108,2.294h0a1.6,1.6,0,0,1-1.2.53h0A1.572,1.572,0,0,1-1021.487,1900.073Zm-131.567-.615a1.629,1.629,0,0,1,.141-2.3h0a1.613,1.613,0,0,1,2.283.141h0a1.619,1.619,0,0,1-.13,2.3h0a1.644,1.644,0,0,1-1.082.4h0A1.637,1.637,0,0,1-1153.053,1899.458Zm125.842-4.157a1.644,1.644,0,0,1-.292-2.283h0a1.63,1.63,0,0,1,2.273-.292h0a1.625,1.625,0,0,1,.292,2.283h0a1.6,1.6,0,0,1-1.279.628h0A1.652,1.652,0,0,1-1027.212,1895.3Zm-120.074-.746a1.619,1.619,0,0,1,.313-2.273h0a1.622,1.622,0,0,1,2.273.312h0a1.633,1.633,0,0,1-.3,2.273h0a1.677,1.677,0,0,1-.986.326h0A1.631,1.631,0,0,1-1147.285,1894.555Zm114-3.583a1.619,1.619,0,0,1-.466-2.24h0a1.617,1.617,0,0,1,2.252-.466h0a1.611,1.611,0,0,1,.464,2.24h0a1.623,1.623,0,0,1-1.353.735h0A1.609,1.609,0,0,1-1033.282,1890.973Zm-107.878-.866a1.616,1.616,0,0,1,.487-2.24h0a1.636,1.636,0,0,1,2.25.477h0a1.647,1.647,0,0,1-.487,2.251h0a1.618,1.618,0,0,1-.876.258h0A1.616,1.616,0,0,1-1141.161,1890.107Zm101.5-2.975a1.621,1.621,0,0,1-.638-2.209h0a1.618,1.618,0,0,1,2.2-.628h0a1.613,1.613,0,0,1,.638,2.2h0a1.6,1.6,0,0,1-1.417.843h0A1.579,1.579,0,0,1-1039.656,1887.131Zm-95.055-.986a1.635,1.635,0,0,1,.659-2.206h0v.01h0a1.608,1.608,0,0,1,2.2.651h0a1.618,1.618,0,0,1-.648,2.2h0a1.544,1.544,0,0,1-.779.2h0A1.619,1.619,0,0,1-1134.711,1886.145Zm88.388-2.347a1.625,1.625,0,0,1-.8-2.153h0a1.615,1.615,0,0,1,2.142-.813h0a1.629,1.629,0,0,1,.812,2.153h0a1.634,1.634,0,0,1-1.484.953h0A1.633,1.633,0,0,1-1046.323,1883.8Zm-81.658-1.115a1.639,1.639,0,0,1,.823-2.142h0a1.613,1.613,0,0,1,2.142.823h0a1.611,1.611,0,0,1-.823,2.142h0a1.521,1.521,0,0,1-.648.141h0A1.629,1.629,0,0,1-1127.981,1882.683Zm74.765-1.709a1.624,1.624,0,0,1-.974-2.079h0a1.629,1.629,0,0,1,2.079-.973h0a1.628,1.628,0,0,1,.974,2.078h0a1.625,1.625,0,0,1-1.524,1.071h0A1.678,1.678,0,0,1-1053.217,1880.974Zm-67.784-1.213a1.627,1.627,0,0,1,.984-2.078h0a1.629,1.629,0,0,1,2.079.986h0a1.644,1.644,0,0,1-.985,2.076h0a1.606,1.606,0,0,1-.553.1h0A1.639,1.639,0,0,1-1121,1879.761Zm60.7-1.061a1.629,1.629,0,0,1-1.138-2h0a1.627,1.627,0,0,1,2-1.125h0a1.621,1.621,0,0,1,1.124,2h0a1.611,1.611,0,0,1-1.558,1.179h0A1.4,1.4,0,0,1-1060.3,1878.7Zm-53.513-1.319a1.616,1.616,0,0,1,1.146-1.992h0a1.632,1.632,0,0,1,1.991,1.135h0a1.625,1.625,0,0,1-1.145,1.992h0a1.432,1.432,0,0,1-.423.067h0A1.627,1.627,0,0,1-1113.815,1877.381Zm46.26-.4h0a1.624,1.624,0,0,1-1.276-1.9h0a1.615,1.615,0,0,1,1.9-1.279h0a1.628,1.628,0,0,1,1.279,1.906h0a1.635,1.635,0,0,1-1.592,1.307h0A1.713,1.713,0,0,1-1067.555,1876.981Zm-38.913-1.417a1.636,1.636,0,0,1,1.3-1.906h0a1.625,1.625,0,0,1,1.894,1.3h0a1.624,1.624,0,0,1-1.289,1.894h0a1.449,1.449,0,0,1-.312.033h0A1.629,1.629,0,0,1-1106.468,1875.564Zm31.566.259h0a1.61,1.61,0,0,1-1.427-1.8h0a1.636,1.636,0,0,1,1.807-1.427h0a1.627,1.627,0,0,1,1.417,1.807h0a1.622,1.622,0,0,1-1.612,1.427h0A1.111,1.111,0,0,1-1074.9,1875.822Zm-24.1-1.5a1.628,1.628,0,0,1,1.438-1.8h0a1.617,1.617,0,0,1,1.786,1.44h0a1.615,1.615,0,0,1-1.427,1.784h0a.9.9,0,0,1-.184.013h0A1.633,1.633,0,0,1-1099,1874.319Zm16.675.92a1.629,1.629,0,0,1-1.558-1.689h0a1.623,1.623,0,0,1,1.689-1.558h0a1.622,1.622,0,0,1,1.558,1.689h0a1.632,1.632,0,0,1-1.635,1.558h-.054Zm-9.133-1.591a1.614,1.614,0,0,1,1.568-1.676h0a1.619,1.619,0,0,1,1.679,1.558h0a1.629,1.629,0,0,1-1.568,1.686h-.056A1.632,1.632,0,0,1-1091.458,1873.647Z" transform="translate(1333.601 -1871.089)" fill="#437795"/>
      <path id="Trazado_2659" data-name="Trazado 2659" d="M22.725,122.823A1.622,1.622,0,0,1,24.35,121.2h0a1.628,1.628,0,0,1,1.622,1.622h0a1.628,1.628,0,0,1-1.622,1.625h0A1.622,1.622,0,0,1,22.725,122.823Zm0-7.572a1.622,1.622,0,0,1,1.625-1.625h0a1.628,1.628,0,0,1,1.622,1.625h0a1.627,1.627,0,0,1-1.622,1.622h0A1.621,1.621,0,0,1,22.725,115.251Zm0-7.575a1.622,1.622,0,0,1,1.625-1.625h0a1.628,1.628,0,0,1,1.622,1.625h0A1.628,1.628,0,0,1,24.35,109.3h0A1.622,1.622,0,0,1,22.725,107.676Zm0-7.575a1.622,1.622,0,0,1,1.625-1.625h0a1.628,1.628,0,0,1,1.622,1.625h0a1.627,1.627,0,0,1-1.622,1.622h0A1.621,1.621,0,0,1,22.725,100.1Zm0-7.575A1.622,1.622,0,0,1,24.35,90.9h0a1.628,1.628,0,0,1,1.622,1.625h0a1.628,1.628,0,0,1-1.622,1.622h0A1.622,1.622,0,0,1,22.725,92.526Zm0-7.575a1.622,1.622,0,0,1,1.625-1.625h0a1.628,1.628,0,0,1,1.622,1.625h0a1.627,1.627,0,0,1-1.622,1.622h0A1.621,1.621,0,0,1,22.725,84.951Zm0-7.575a1.622,1.622,0,0,1,1.625-1.625h0a1.628,1.628,0,0,1,1.622,1.625h0A1.627,1.627,0,0,1,24.35,79h0A1.621,1.621,0,0,1,22.725,77.376Zm0-7.575a1.622,1.622,0,0,1,1.625-1.625h0A1.628,1.628,0,0,1,25.972,69.8h0a1.627,1.627,0,0,1-1.622,1.622h0A1.622,1.622,0,0,1,22.725,69.8Zm0-7.575A1.622,1.622,0,0,1,24.35,60.6h0a1.628,1.628,0,0,1,1.622,1.625h0a1.627,1.627,0,0,1-1.622,1.622h0A1.621,1.621,0,0,1,22.725,62.225Zm0-7.575a1.622,1.622,0,0,1,1.625-1.625h0a1.628,1.628,0,0,1,1.622,1.625h0a1.627,1.627,0,0,1-1.622,1.622h0A1.621,1.621,0,0,1,22.725,54.65Zm0-7.575a1.622,1.622,0,0,1,1.625-1.625h0a1.628,1.628,0,0,1,1.622,1.625h0A1.627,1.627,0,0,1,24.35,48.7h0A1.621,1.621,0,0,1,22.725,47.075Zm0-7.575a1.622,1.622,0,0,1,1.625-1.625h0A1.628,1.628,0,0,1,25.972,39.5h0a1.628,1.628,0,0,1-1.622,1.622h0A1.622,1.622,0,0,1,22.725,39.5Zm0-7.575A1.622,1.622,0,0,1,24.35,30.3h0a1.628,1.628,0,0,1,1.622,1.625h0a1.627,1.627,0,0,1-1.622,1.622h0A1.621,1.621,0,0,1,22.725,31.925Zm0-7.575a1.622,1.622,0,0,1,1.625-1.625h0a1.628,1.628,0,0,1,1.622,1.625h0a1.628,1.628,0,0,1-1.622,1.622h0A1.622,1.622,0,0,1,22.725,24.35Zm0-7.575A1.622,1.622,0,0,1,24.35,15.15h0a1.628,1.628,0,0,1,1.622,1.625h0A1.627,1.627,0,0,1,24.35,18.4h0A1.621,1.621,0,0,1,22.725,16.775Zm0-7.575A1.622,1.622,0,0,1,24.35,7.575h0A1.628,1.628,0,0,1,25.972,9.2h0a1.627,1.627,0,0,1-1.622,1.622h0A1.621,1.621,0,0,1,22.725,9.2Zm0-7.575A1.622,1.622,0,0,1,24.35,0h0a1.628,1.628,0,0,1,1.622,1.625h0A1.627,1.627,0,0,1,24.35,3.247h0A1.622,1.622,0,0,1,22.725,1.625Zm-7.575,0A1.622,1.622,0,0,1,16.775,0h0A1.621,1.621,0,0,1,18.4,1.625h0a1.621,1.621,0,0,1-1.622,1.622h0A1.622,1.622,0,0,1,15.15,1.625Zm-7.575,0A1.622,1.622,0,0,1,9.2,0h0a1.628,1.628,0,0,1,1.622,1.625h0A1.628,1.628,0,0,1,9.2,3.247h0A1.621,1.621,0,0,1,7.575,1.625ZM0,1.625A1.624,1.624,0,0,1,1.625,0h0A1.621,1.621,0,0,1,3.247,1.625h0A1.621,1.621,0,0,1,1.625,3.247h0A1.623,1.623,0,0,1,0,1.625Z" transform="translate(55.046 25.972) rotate(-90)" fill="#437795" stroke="rgba(0,0,0,0)" stroke-width="1"/>
      <g id="Grupo_21051" data-name="Grupo 21051" transform="translate(398.124 57.303)">
        <path id="Trazado_2660" data-name="Trazado 2660" d="M-1095.9,2034.621a1.622,1.622,0,0,1-1.11-.438l-30.329-28.345a1.621,1.621,0,0,1-.077-2.293,1.623,1.623,0,0,1,2.294-.077l27.6,25.79v-51.326h-28.066l-29.859,27.906a1.623,1.623,0,0,1-1.756.305,1.626,1.626,0,0,1-.976-1.489v-28.345a1.623,1.623,0,0,1,1.622-1.625,1.626,1.626,0,0,1,1.625,1.625v24.606l27.6-25.793a1.618,1.618,0,0,1,1.107-.438h30.331a1.625,1.625,0,0,1,1.622,1.625V2033a1.621,1.621,0,0,1-.977,1.489A1.628,1.628,0,0,1-1095.9,2034.621Z" transform="translate(1167.029 -1965.836)" fill="#193540"/>
        <g id="Grupo_21034" data-name="Grupo 21034">
          <circle id="Elipse_1208" data-name="Elipse 1208" cx="8.848" cy="8.848" r="8.848" transform="translate(1.621 1.625)" fill="#437795"/>
          <path id="Trazado_2661" data-name="Trazado 2661" d="M-1151.167,1992.178a10.484,10.484,0,0,1-10.468-10.473,10.483,10.483,0,0,1,10.468-10.473A10.484,10.484,0,0,1-1140.7,1981.7,10.485,10.485,0,0,1-1151.167,1992.178Zm0-17.7a7.232,7.232,0,0,0-7.221,7.227,7.231,7.231,0,0,0,7.221,7.226,7.234,7.234,0,0,0,7.224-7.226A7.234,7.234,0,0,0-1151.167,1974.478Z" transform="translate(1161.635 -1971.231)" fill="#193540"/>
        </g>
        <g id="Grupo_21035" data-name="Grupo 21035" transform="translate(30.328)">
          <circle id="Elipse_1209" data-name="Elipse 1209" cx="8.848" cy="8.848" r="8.848" transform="translate(1.621 1.625)" fill="#437795"/>
          <path id="Trazado_2662" data-name="Trazado 2662" d="M-1139.332,1992.178A10.484,10.484,0,0,1-1149.8,1981.7a10.483,10.483,0,0,1,10.469-10.473,10.483,10.483,0,0,1,10.471,10.473A10.485,10.485,0,0,1-1139.332,1992.178Zm0-17.7a7.232,7.232,0,0,0-7.222,7.227,7.232,7.232,0,0,0,7.222,7.226,7.232,7.232,0,0,0,7.224-7.226A7.233,7.233,0,0,0-1139.332,1974.478Z" transform="translate(1149.8 -1971.231)" fill="#193540"/>
        </g>
        <g id="Grupo_21036" data-name="Grupo 21036" transform="translate(60.657)">
          <circle id="Elipse_1210" data-name="Elipse 1210" cx="8.848" cy="8.848" r="8.848" transform="translate(1.622 1.625)" fill="#437795"/>
          <path id="Trazado_2663" data-name="Trazado 2663" d="M-1127.494,1992.178a10.485,10.485,0,0,1-10.471-10.473,10.483,10.483,0,0,1,10.471-10.473,10.482,10.482,0,0,1,10.468,10.473A10.484,10.484,0,0,1-1127.494,1992.178Zm0-17.7a7.233,7.233,0,0,0-7.224,7.227,7.232,7.232,0,0,0,7.224,7.226,7.231,7.231,0,0,0,7.221-7.226A7.231,7.231,0,0,0-1127.494,1974.478Z" transform="translate(1137.965 -1971.231)" fill="#193540"/>
        </g>
        <g id="Grupo_21037" data-name="Grupo 21037" transform="translate(60.657 28.345)">
          <circle id="Elipse_1211" data-name="Elipse 1211" cx="8.846" cy="8.846" r="8.846" transform="translate(1.614 1.636) rotate(-0.064)" fill="#ffc23b"/>
          <path id="Trazado_2664" data-name="Trazado 2664" d="M-1127.494,2003.236a10.483,10.483,0,0,1-10.471-10.471,10.484,10.484,0,0,1,10.471-10.473,10.483,10.483,0,0,1,10.468,10.473A10.482,10.482,0,0,1-1127.494,2003.236Zm0-17.7a7.235,7.235,0,0,0-7.224,7.229,7.234,7.234,0,0,0,7.224,7.226,7.233,7.233,0,0,0,7.221-7.226A7.233,7.233,0,0,0-1127.494,1985.537Z" transform="translate(1137.965 -1982.292)" fill="#193540"/>
        </g>
        <g id="Grupo_21038" data-name="Grupo 21038" transform="translate(60.657 56.69)">
          <circle id="Elipse_1212" data-name="Elipse 1212" cx="8.848" cy="8.848" r="8.848" transform="translate(1.622 1.624)" fill="#ffc23b"/>
          <path id="Trazado_2665" data-name="Trazado 2665" d="M-1127.494,2014.3a10.484,10.484,0,0,1-10.471-10.473,10.484,10.484,0,0,1,10.471-10.471,10.483,10.483,0,0,1,10.468,10.471A10.483,10.483,0,0,1-1127.494,2014.3Zm0-17.7a7.234,7.234,0,0,0-7.224,7.226,7.235,7.235,0,0,0,7.224,7.229,7.234,7.234,0,0,0,7.221-7.229A7.233,7.233,0,0,0-1127.494,1996.6Z" transform="translate(1137.965 -1993.353)" fill="#193540"/>
        </g>
        <g id="Grupo_21039" data-name="Grupo 21039" transform="translate(6.688 6.691)">
          <path id="Trazado_2666" data-name="Trazado 2666" d="M-1158.392,1976.635a2.159,2.159,0,0,1,2.157-2.16,2.16,2.16,0,0,1,2.158,2.16,2.158,2.158,0,0,1-2.158,2.158A2.157,2.157,0,0,1-1158.392,1976.635Z" transform="translate(1160.014 -1972.854)" fill="#fff"/>
          <path id="Trazado_2667" data-name="Trazado 2667" d="M-1155.245,1981.407a3.788,3.788,0,0,1-3.78-3.782,3.786,3.786,0,0,1,3.78-3.782,3.787,3.787,0,0,1,3.783,3.782A3.788,3.788,0,0,1-1155.245,1981.407Zm0-4.318a.535.535,0,0,0-.536.536.537.537,0,0,0,.536.536.537.537,0,0,0,.536-.536A.536.536,0,0,0-1155.245,1977.089Z" transform="translate(1159.025 -1973.842)" fill="#193540"/>
        </g>
        <g id="Grupo_21040" data-name="Grupo 21040" transform="translate(37.017 6.691)">
          <path id="Trazado_2668" data-name="Trazado 2668" d="M-1146.557,1976.635a2.159,2.159,0,0,1,2.157-2.16,2.16,2.16,0,0,1,2.16,2.16,2.158,2.158,0,0,1-2.16,2.158A2.157,2.157,0,0,1-1146.557,1976.635Z" transform="translate(1148.179 -1972.854)" fill="#fff"/>
          <path id="Trazado_2669" data-name="Trazado 2669" d="M-1143.411,1981.407a3.787,3.787,0,0,1-3.779-3.782,3.786,3.786,0,0,1,3.779-3.782,3.786,3.786,0,0,1,3.782,3.782A3.788,3.788,0,0,1-1143.411,1981.407Zm0-4.318a.533.533,0,0,0-.533.536.535.535,0,0,0,.533.536.535.535,0,0,0,.536-.536A.533.533,0,0,0-1143.411,1977.089Z" transform="translate(1147.19 -1973.842)" fill="#193540"/>
        </g>
        <g id="Grupo_21041" data-name="Grupo 21041" transform="translate(67.346 6.691)">
          <path id="Trazado_2670" data-name="Trazado 2670" d="M-1134.722,1976.635a2.16,2.16,0,0,1,2.161-2.16,2.159,2.159,0,0,1,2.157,2.16,2.158,2.158,0,0,1-2.157,2.158A2.159,2.159,0,0,1-1134.722,1976.635Z" transform="translate(1136.344 -1972.854)" fill="#fff"/>
          <path id="Trazado_2671" data-name="Trazado 2671" d="M-1131.573,1981.407a3.788,3.788,0,0,1-3.782-3.782,3.787,3.787,0,0,1,3.782-3.782,3.786,3.786,0,0,1,3.78,3.782A3.788,3.788,0,0,1-1131.573,1981.407Zm0-4.318a.535.535,0,0,0-.536.536.537.537,0,0,0,.536.536.534.534,0,0,0,.533-.536A.533.533,0,0,0-1131.573,1977.089Z" transform="translate(1135.355 -1973.842)" fill="#193540"/>
        </g>
        <g id="Grupo_21042" data-name="Grupo 21042" transform="translate(0 28.345)">
          <circle id="Elipse_1213" data-name="Elipse 1213" cx="8.846" cy="8.846" r="8.846" transform="translate(1.613 1.636) rotate(-0.064)" fill="#437795"/>
          <path id="Trazado_2672" data-name="Trazado 2672" d="M-1151.167,2003.236a10.482,10.482,0,0,1-10.468-10.471,10.483,10.483,0,0,1,10.468-10.473,10.484,10.484,0,0,1,10.472,10.473A10.483,10.483,0,0,1-1151.167,2003.236Zm0-17.7a7.234,7.234,0,0,0-7.221,7.229,7.233,7.233,0,0,0,7.221,7.226,7.236,7.236,0,0,0,7.224-7.226A7.236,7.236,0,0,0-1151.167,1985.537Z" transform="translate(1161.635 -1982.292)" fill="#193540"/>
        </g>
        <g id="Grupo_21043" data-name="Grupo 21043" transform="translate(30.328 28.345)">
          <circle id="Elipse_1214" data-name="Elipse 1214" cx="8.846" cy="8.846" r="8.846" transform="translate(1.614 1.636) rotate(-0.064)" fill="#9b235c"/>
          <path id="Trazado_2673" data-name="Trazado 2673" d="M-1139.332,2003.236a10.482,10.482,0,0,1-10.469-10.471,10.483,10.483,0,0,1,10.469-10.473,10.483,10.483,0,0,1,10.471,10.473A10.483,10.483,0,0,1-1139.332,2003.236Zm0-17.7a7.234,7.234,0,0,0-7.222,7.229,7.233,7.233,0,0,0,7.222,7.226,7.234,7.234,0,0,0,7.224-7.226A7.235,7.235,0,0,0-1139.332,1985.537Z" transform="translate(1149.8 -1982.292)" fill="#193540"/>
        </g>
        <g id="Grupo_21044" data-name="Grupo 21044" transform="translate(6.688 35.036)">
          <path id="Trazado_2674" data-name="Trazado 2674" d="M-1158.392,1987.7a2.158,2.158,0,0,1,2.157-2.16,2.158,2.158,0,0,1,2.158,2.16,2.158,2.158,0,0,1-2.158,2.157A2.157,2.157,0,0,1-1158.392,1987.7Z" transform="translate(1160.014 -1983.915)" fill="#fff"/>
          <path id="Trazado_2675" data-name="Trazado 2675" d="M-1155.245,1992.468a3.787,3.787,0,0,1-3.78-3.782,3.786,3.786,0,0,1,3.78-3.783,3.787,3.787,0,0,1,3.783,3.783A3.788,3.788,0,0,1-1155.245,1992.468Zm0-4.317a.535.535,0,0,0-.536.536.537.537,0,0,0,.536.536.538.538,0,0,0,.536-.536A.535.535,0,0,0-1155.245,1988.15Z" transform="translate(1159.025 -1984.903)" fill="#193540"/>
        </g>
        <g id="Grupo_21045" data-name="Grupo 21045" transform="translate(67.346 35.036)">
          <path id="Trazado_2676" data-name="Trazado 2676" d="M-1134.722,1987.7a2.159,2.159,0,0,1,2.161-2.16,2.158,2.158,0,0,1,2.157,2.16,2.157,2.157,0,0,1-2.157,2.157A2.158,2.158,0,0,1-1134.722,1987.7Z" transform="translate(1136.344 -1983.915)" fill="#fff"/>
          <path id="Trazado_2677" data-name="Trazado 2677" d="M-1131.573,1992.468a3.788,3.788,0,0,1-3.782-3.782,3.787,3.787,0,0,1,3.782-3.783,3.786,3.786,0,0,1,3.78,3.783A3.787,3.787,0,0,1-1131.573,1992.468Zm0-4.317a.535.535,0,0,0-.536.536.537.537,0,0,0,.536.536.535.535,0,0,0,.533-.536A.533.533,0,0,0-1131.573,1988.15Z" transform="translate(1135.355 -1984.903)" fill="#193540"/>
        </g>
        <g id="Grupo_21046" data-name="Grupo 21046" transform="translate(6.688 63.379)">
          <path id="Trazado_2678" data-name="Trazado 2678" d="M-1158.392,1998.755a2.157,2.157,0,0,1,2.157-2.158,2.158,2.158,0,0,1,2.158,2.158,2.158,2.158,0,0,1-2.158,2.161A2.158,2.158,0,0,1-1158.392,1998.755Z" transform="translate(1160.014 -1994.972)" fill="#fff"/>
          <path id="Trazado_2679" data-name="Trazado 2679" d="M-1155.245,2003.528a3.786,3.786,0,0,1-3.78-3.783,3.787,3.787,0,0,1,3.78-3.782,3.788,3.788,0,0,1,3.783,3.782A3.787,3.787,0,0,1-1155.245,2003.528Zm0-4.318a.537.537,0,0,0-.536.535.535.535,0,0,0,.536.536.535.535,0,0,0,.536-.536A.537.537,0,0,0-1155.245,1999.21Z" transform="translate(1159.025 -1995.964)" fill="#193540"/>
        </g>
        <g id="Grupo_21047" data-name="Grupo 21047" transform="translate(67.346 63.379)">
          <path id="Trazado_2680" data-name="Trazado 2680" d="M-1134.722,1998.755a2.158,2.158,0,0,1,2.161-2.158,2.157,2.157,0,0,1,2.157,2.158,2.158,2.158,0,0,1-2.157,2.161A2.159,2.159,0,0,1-1134.722,1998.755Z" transform="translate(1136.344 -1994.972)" fill="#fff"/>
          <path id="Trazado_2681" data-name="Trazado 2681" d="M-1131.573,2003.528a3.787,3.787,0,0,1-3.782-3.783,3.788,3.788,0,0,1,3.782-3.782,3.787,3.787,0,0,1,3.78,3.782A3.786,3.786,0,0,1-1131.573,2003.528Zm0-4.318a.537.537,0,0,0-.536.535.535.535,0,0,0,.536.536.532.532,0,0,0,.533-.536A.534.534,0,0,0-1131.573,1999.21Z" transform="translate(1135.355 -1995.964)" fill="#193540"/>
        </g>
        <g id="Grupo_21050" data-name="Grupo 21050" transform="translate(24.122 34.003)">
          <g id="Grupo_21049" data-name="Grupo 21049">
            <g id="Grupo_21048" data-name="Grupo 21048">
              <path id="Trazado_2682" data-name="Trazado 2682" d="M-1142.136,2026.562c-5.6-7.26-9.12-19.14-9.12-19.14a3.556,3.556,0,0,1,1.719-4.723,3.552,3.552,0,0,1,4.723,1.719l4.464,9.582h0v-25.311a3.554,3.554,0,0,1,3.555-3.554,3.554,3.554,0,0,1,3.552,3.554v15.355a3.554,3.554,0,0,1,3.554-3.554,3.554,3.554,0,0,1,3.554,3.554v.713a3.553,3.553,0,0,1,3.552-3.557,3.555,3.555,0,0,1,3.554,3.557v.71a3.554,3.554,0,0,1,3.554-3.554,3.554,3.554,0,0,1,3.552,3.554v10.589a16.935,16.935,0,0,1-16.931,16.94,16.859,16.859,0,0,1-9.225-2.732,17.082,17.082,0,0,1-4.057-3.7Z" transform="translate(1153.212 -1983.51)" fill="#fff"/>
              <path id="Trazado_2683" data-name="Trazado 2683" d="M-1127.865,2035.609a18.48,18.48,0,0,1-10.112-3,18.748,18.748,0,0,1-4.443-4.054l-.01-.015c-5.5-7.127-8.969-18.266-9.361-19.563a5.187,5.187,0,0,1,2.558-6.763,5.145,5.145,0,0,1,3.959-.175,5.152,5.152,0,0,1,2.921,2.678l1.371,2.942v-17.984a5.185,5.185,0,0,1,5.177-5.179,5.184,5.184,0,0,1,5.177,5.179v10.55a5.144,5.144,0,0,1,1.93-.371,5.17,5.17,0,0,1,3.926,1.8,5.14,5.14,0,0,1,3.18-1.094,5.165,5.165,0,0,1,3.926,1.806,5.153,5.153,0,0,1,3.183-1.1,5.185,5.185,0,0,1,5.177,5.179v10.592A18.58,18.58,0,0,1-1127.865,2035.609Zm-12-9.057a15.424,15.424,0,0,0,3.665,3.339,15.227,15.227,0,0,0,8.338,2.47,15.329,15.329,0,0,0,15.309-15.314v-10.592a1.933,1.933,0,0,0-1.929-1.932,1.933,1.933,0,0,0-1.932,1.932,1.621,1.621,0,0,1-1.622,1.622,1.623,1.623,0,0,1-1.624-1.622v-.712a1.931,1.931,0,0,0-1.93-1.929,1.932,1.932,0,0,0-1.93,1.929,1.623,1.623,0,0,1-1.622,1.624,1.625,1.625,0,0,1-1.625-1.624v-.71a1.933,1.933,0,0,0-1.929-1.93,1.932,1.932,0,0,0-1.93,1.93,1.625,1.625,0,0,1-1.625,1.625,1.623,1.623,0,0,1-1.622-1.625v-15.355a1.933,1.933,0,0,0-1.93-1.932,1.934,1.934,0,0,0-1.932,1.932v25.311a1.62,1.62,0,0,1-1.271,1.583,1.621,1.621,0,0,1-1.822-.9l-4.465-9.579a1.923,1.923,0,0,0-1.091-1,1.922,1.922,0,0,0-1.474.067,1.935,1.935,0,0,0-.935,2.568,1.54,1.54,0,0,1,.087.225C-1148.675,2008.068-1145.214,2019.623-1139.868,2026.553Z" transform="translate(1152.222 -1984.5)" fill="#193540"/>
            </g>
          </g>
          <path id="Trazado_2684" data-name="Trazado 2684" d="M-1140.665,1996.9a1.623,1.623,0,0,1-1.625-1.622V1993.5a1.624,1.624,0,0,1,1.625-1.622,1.622,1.622,0,0,1,1.622,1.622v1.779A1.621,1.621,0,0,1-1140.665,1996.9Z" transform="translate(1167.742 -1972.968)" fill="#193540"/>
          <path id="Trazado_2685" data-name="Trazado 2685" d="M-1143.44,1996.9a1.62,1.62,0,0,1-1.622-1.622V1993.5a1.622,1.622,0,0,1,1.622-1.622,1.622,1.622,0,0,1,1.622,1.622v1.779A1.621,1.621,0,0,1-1143.44,1996.9Z" transform="translate(1163.41 -1972.968)" fill="#193540"/>
          <path id="Trazado_2686" data-name="Trazado 2686" d="M-1137.893,1996.47a1.622,1.622,0,0,1-1.625-1.622v-1.069a1.624,1.624,0,0,1,1.625-1.622,1.622,1.622,0,0,1,1.622,1.622v1.069A1.62,1.62,0,0,1-1137.893,1996.47Z" transform="translate(1172.075 -1972.536)" fill="#193540"/>
        </g>
      </g>
      <g id="Grupo_21061" data-name="Grupo 21061" transform="translate(224.544 73.091)">
        <path id="Trazado_2699" data-name="Trazado 2699" d="M-1155.714,1921.151l10.917,8.693a4.4,4.4,0,0,0,6.165-.692l22.715-28.371Z" transform="translate(1157.339 -1899.159)" fill="#fff"/>
        <path id="Trazado_2700" data-name="Trazado 2700" d="M-1141.078,1933.406a5.973,5.973,0,0,1-3.739-1.3l-10.919-8.69a1.621,1.621,0,0,1-.259-2.28,1.623,1.623,0,0,1,2.281-.259l10.919,8.69a2.774,2.774,0,0,0,3.885-.436l22.718-28.37a1.623,1.623,0,0,1,2.281-.251,1.624,1.624,0,0,1,.254,2.281l-22.717,28.371A6.014,6.014,0,0,1-1141.078,1933.406Z" transform="translate(1156.348 -1900.148)" fill="#193540"/>
      </g>
      <path id="Trazado_2701" data-name="Trazado 2701" d="M-1139.431,1937.76a8.686,8.686,0,0,1-5.422-1.892l-10.917-8.69a4.33,4.33,0,0,1-.692-6.084,4.326,4.326,0,0,1,6.083-.689l10.917,8.689,22.807-28.379a4.324,4.324,0,0,1,6.084-.674,4.328,4.328,0,0,1,.674,6.084l-22.718,28.368A8.706,8.706,0,0,1-1139.431,1937.76Z" transform="translate(1379.241 -1828.707)" fill="#ffc23b"/>
      <path id="Trazado_2702" data-name="Trazado 2702" d="M-1138.443,1940.375a10.366,10.366,0,0,1-6.432-2.245l-10.919-8.69a5.959,5.959,0,0,1-.948-8.364,5.9,5.9,0,0,1,3.982-2.209,5.937,5.937,0,0,1,4.38,1.258l9.653,7.683,21.795-27.118a5.913,5.913,0,0,1,3.99-2.194,5.9,5.9,0,0,1,4.374,1.271,5.905,5.905,0,0,1,2.2,3.99,5.912,5.912,0,0,1-1.271,4.374l-22.715,28.368A10.3,10.3,0,0,1-1138.443,1940.375Zm-13.638-18.3a2.648,2.648,0,0,0-.31.018,2.68,2.68,0,0,0-1.812,1,2.707,2.707,0,0,0,.431,3.8l10.919,8.69a7.009,7.009,0,0,0,4.41,1.54,7.074,7.074,0,0,0,5.551-2.655l22.715-28.371a2.709,2.709,0,0,0-.421-3.8,2.718,2.718,0,0,0-1.988-.577,2.692,2.692,0,0,0-1.814,1l-22.807,28.381a1.619,1.619,0,0,1-2.275.254l-10.919-8.69A2.691,2.691,0,0,0-1152.081,1922.075Z" transform="translate(1378.254 -1829.697)" fill="#193540"/>
      <g id="Grupo_21068" data-name="Grupo 21068" transform="translate(20.453 67.806)">
        <g id="Grupo_21064" data-name="Grupo 21064">
          <g id="Grupo_21062" data-name="Grupo 21062">
            <path id="Trazado_2703" data-name="Trazado 2703" d="M-1096.189,1831.436c0-5.056-14.8-9.156-33.056-9.156s-33.053,4.1-33.053,9.156v54.935c0,5.059,14.8,9.156,33.053,9.156s33.056-4.1,33.056-9.156v-54.935Z" transform="translate(1163.922 -1820.658)" fill="#437795"/>
            <path id="Trazado_2704" data-name="Trazado 2704" d="M-1128.254,1898.141c-17.231,0-34.678-3.7-34.678-10.781v-54.935c0-7.075,17.447-10.779,34.678-10.779s34.678,3.7,34.678,10.779v54.935C-1093.576,1894.439-1111.02,1898.141-1128.254,1898.141Zm0-73.247c-19.186,0-31.431,4.462-31.431,7.531v54.935c0,3.073,12.244,7.534,31.431,7.534s31.43-4.462,31.43-7.534v-54.935C-1096.823,1829.356-1109.068,1824.894-1128.254,1824.894Z" transform="translate(1162.932 -1821.647)" fill="#193540"/>
          </g>
          <g id="Grupo_21063" data-name="Grupo 21063">
            <ellipse id="Elipse_1215" data-name="Elipse 1215" cx="33.054" cy="9.156" rx="33.054" ry="9.156" transform="translate(1.624 1.623)" fill="#437795"/>
            <path id="Trazado_2705" data-name="Trazado 2705" d="M-1128.254,1843.2c-17.231,0-34.678-3.7-34.678-10.778s17.447-10.779,34.678-10.779,34.678,3.7,34.678,10.779S-1111.02,1843.2-1128.254,1843.2Zm0-18.309c-19.186,0-31.431,4.462-31.431,7.531s12.244,7.531,31.431,7.531,31.43-4.461,31.43-7.531S-1109.068,1824.894-1128.254,1824.894Z" transform="translate(1162.932 -1821.647)" fill="#193540"/>
          </g>
          <path id="Trazado_2706" data-name="Trazado 2706" d="M-1128.254,1844.768c-17.231,0-34.678-3.7-34.678-10.778a1.626,1.626,0,0,1,1.625-1.625,1.623,1.623,0,0,1,1.622,1.625c0,3.07,12.244,7.531,31.431,7.531s31.43-4.461,31.43-7.531a1.625,1.625,0,0,1,1.625-1.625,1.623,1.623,0,0,1,1.623,1.625C-1093.576,1841.065-1111.02,1844.768-1128.254,1844.768Z" transform="translate(1162.932 -1804.899)" fill="#193540"/>
          <path id="Trazado_2707" data-name="Trazado 2707" d="M-1128.254,1851.914c-17.231,0-34.678-3.7-34.678-10.778a1.626,1.626,0,0,1,1.625-1.625,1.623,1.623,0,0,1,1.622,1.625c0,3.07,12.244,7.532,31.431,7.532s31.43-4.461,31.43-7.532a1.626,1.626,0,0,1,1.625-1.625,1.624,1.624,0,0,1,1.623,1.625C-1093.576,1848.212-1111.02,1851.914-1128.254,1851.914Z" transform="translate(1162.932 -1793.733)" fill="#193540"/>
        </g>
        <g id="Grupo_21067" data-name="Grupo 21067" transform="translate(31.291 33.497)">
          <g id="Grupo_21065" data-name="Grupo 21065" transform="translate(0)">
            <circle id="Elipse_1216" data-name="Elipse 1216" cx="23" cy="23" r="23" transform="matrix(0.16, -0.987, 0.987, 0.16, 0, 45.406)" fill="#fff"/>
            <path id="Trazado_2708" data-name="Trazado 2708" d="M-1125.41,1884.653a24.65,24.65,0,0,1-24.622-24.624,24.65,24.65,0,0,1,24.622-24.622,24.65,24.65,0,0,1,24.624,24.622A24.651,24.651,0,0,1-1125.41,1884.653Zm0-46a21.4,21.4,0,0,0-21.375,21.375,21.4,21.4,0,0,0,21.375,21.377,21.4,21.4,0,0,0,21.377-21.377A21.4,21.4,0,0,0-1125.41,1838.654Z" transform="translate(1151.797 -1833.642)" fill="#193540"/>
          </g>
          <g id="Grupo_21066" data-name="Grupo 21066" transform="translate(14.416 9.668)">
            <path id="Trazado_2709" data-name="Trazado 2709" d="M-1123.768,1855.078l-10.347,14.239-10.347-14.239h5.439v-15.954h9.815v15.954Z" transform="translate(1146.085 -1837.502)" fill="#ffc23b"/>
            <path id="Trazado_2710" data-name="Trazado 2710" d="M-1133.125,1871.931a1.623,1.623,0,0,1-1.312-.669l-10.348-14.24a1.625,1.625,0,0,1-.133-1.691,1.627,1.627,0,0,1,1.448-.887h3.816v-14.33a1.623,1.623,0,0,1,1.622-1.622h9.817a1.624,1.624,0,0,1,1.623,1.622v14.33h3.815a1.624,1.624,0,0,1,1.446.887,1.619,1.619,0,0,1-.134,1.691l-10.345,14.24A1.623,1.623,0,0,1-1133.125,1871.931Zm-7.16-14.24,7.16,9.856,7.162-9.856h-2.253a1.624,1.624,0,0,1-1.624-1.622v-14.33h-6.568v14.33a1.624,1.624,0,0,1-1.625,1.622Z" transform="translate(1145.095 -1838.491)" fill="#193540"/>
          </g>
        </g>
      </g>
      <g id="Grupo_21084" data-name="Grupo 21084" transform="translate(270.603 101.386)">
        <g id="Grupo_21071" data-name="Grupo 21071" transform="translate(0 0.829)">
          <g id="Grupo_21070" data-name="Grupo 21070">
            <g id="Grupo_21069" data-name="Grupo 21069">
              <path id="Trazado_2711" data-name="Trazado 2711" d="M-1106.984,1982.882a2.328,2.328,0,0,1-1.437-.461,74.909,74.909,0,0,1-7.112-6.56,88.682,88.682,0,0,1-9.812-12.188,77.277,77.277,0,0,1-8.711-17.316,68.66,68.66,0,0,1-2.752-10.428,66.322,66.322,0,0,1-1.051-11.523,1.218,1.218,0,0,1,.433-.905,2.182,2.182,0,0,1,1.1-.505,95.846,95.846,0,0,0,12.754-3.216c6.673-2.17,11.939-4.684,15.655-7.472a1.555,1.555,0,0,1,.93-.287,1.568,1.568,0,0,1,.933.287c3.714,2.788,8.982,5.3,15.655,7.472a95.729,95.729,0,0,0,12.752,3.216,2.171,2.171,0,0,1,1.1.505,1.233,1.233,0,0,1,.436.905,66.346,66.346,0,0,1-1.051,11.523,68.933,68.933,0,0,1-2.752,10.428,77.257,77.257,0,0,1-8.713,17.316,88.4,88.4,0,0,1-9.812,12.188,75.324,75.324,0,0,1-7.109,6.56A2.336,2.336,0,0,1-1106.984,1982.882Z" transform="translate(1139.18 -1910.717)" fill="#9b235c"/>
              <path id="Trazado_2712" data-name="Trazado 2712" d="M-1106.177,1985a3.63,3.63,0,0,1-2.263-.751,76.289,76.289,0,0,1-7.239-6.676,89.475,89.475,0,0,1-9.959-12.372,78.456,78.456,0,0,1-8.858-17.613,69.973,69.973,0,0,1-2.806-10.627,67.458,67.458,0,0,1-1.071-11.755,2.527,2.527,0,0,1,.864-1.886,3.491,3.491,0,0,1,1.778-.833,94.929,94.929,0,0,0,12.56-3.17c6.535-2.125,11.672-4.569,15.27-7.273a3.055,3.055,0,0,1,3.452,0c3.595,2.7,8.733,5.145,15.268,7.27a94.929,94.929,0,0,0,12.56,3.17,3.483,3.483,0,0,1,1.778.833,2.539,2.539,0,0,1,.866,1.886,67.9,67.9,0,0,1-1.071,11.755,70,70,0,0,1-2.806,10.627,78.623,78.623,0,0,1-8.859,17.613,89.782,89.782,0,0,1-9.961,12.372,75.55,75.55,0,0,1-7.239,6.676A3.621,3.621,0,0,1-1106.177,1985Zm-29.552-59.724a64.87,64.87,0,0,0,1.028,11.214,67.575,67.575,0,0,0,2.7,10.227,75.938,75.938,0,0,0,8.562,17.018,87.337,87.337,0,0,0,9.666,12,73.519,73.519,0,0,0,6.981,6.442,1.03,1.03,0,0,0,.615.174,1.025,1.025,0,0,0,.615-.174,73.754,73.754,0,0,0,6.983-6.442,87.136,87.136,0,0,0,9.663-12,75.761,75.761,0,0,0,8.562-17.018,67.037,67.037,0,0,0,2.7-10.225,65.09,65.09,0,0,0,1.03-11.211.871.871,0,0,0-.43-.185,97.16,97.16,0,0,1-12.946-3.262c-6.812-2.217-12.209-4.8-16.04-7.672a1.03,1.03,0,0,0-.279,0c-3.829,2.873-9.225,5.453-16.037,7.67a97.16,97.16,0,0,1-12.943,3.262.89.89,0,0,0-.428.177Z" transform="translate(1138.374 -1911.512)" fill="#193540"/>
            </g>
          </g>
        </g>
        <g id="Grupo_21083" data-name="Grupo 21083" transform="translate(0.247)">
          <g id="Grupo_21082" data-name="Grupo 21082">
            <g id="Grupo_21072" data-name="Grupo 21072">
              <path id="Trazado_2713" data-name="Trazado 2713" d="M-1095.12,1946l-3.965,6.642a1.3,1.3,0,0,1-1.866.028l-1.425-1.432-2.016,2.361-3.226.6-.61,4.433-2.755.479-.718,3.116-4.249.3-.417,3.775-4.378,1.02-.492,3.947-4.267.812-.2,2.688a1.18,1.18,0,0,1-1.117,1.089l-10.937.561,2.814-9.525a3.3,3.3,0,0,1,.828-1.391l29.163-29.163a.421.421,0,0,0,.092-.446,17.878,17.878,0,0,1-1.035-8.464,17.874,17.874,0,0,1,15.773-15.617,17.848,17.848,0,0,1,19.8,17.744,17.853,17.853,0,0,1-17.854,17.854,17.864,17.864,0,0,1-6.94-1.409Z" transform="translate(1139.084 -1910.381)" fill="#fff"/>
              <path id="Trazado_2714" data-name="Trazado 2714" d="M-1136.956,1978.546a1.326,1.326,0,0,1-1.038-.5,1.317,1.317,0,0,1-.228-1.194l2.811-9.526a4.6,4.6,0,0,1,1.161-1.953l28.755-28.755a19.083,19.083,0,0,1-.915-8.535,19.242,19.242,0,0,1,16.949-16.778,19.01,19.01,0,0,1,14.918,4.808,19.182,19.182,0,0,1,6.344,14.25,19.2,19.2,0,0,1-19.175,19.176,19.208,19.208,0,0,1-6.379-1.094l-3.39,5.681a1.309,1.309,0,0,1-.169.224,2.6,2.6,0,0,1-1.871.832,2.612,2.612,0,0,1-1.9-.771l-.413-.415-1.086,1.271a1.336,1.336,0,0,1-.764.441l-2.288.422-.479,3.485a1.319,1.319,0,0,1-1.081,1.123l-1.891.328-.523,2.263a1.32,1.32,0,0,1-1.194,1.023l-3.149.223-.295,2.678a1.323,1.323,0,0,1-1.015,1.143l-3.48.813-.376,3.031a1.325,1.325,0,0,1-1.066,1.135l-3.27.623-.128,1.678a2.511,2.511,0,0,1-2.368,2.312l-10.937.561Zm49.61-64.711a17.819,17.819,0,0,0-1.835.1,16.579,16.579,0,0,0-14.6,14.456,16.469,16.469,0,0,0,.961,7.841,1.745,1.745,0,0,1-.394,1.85l-29.162,29.16a1.982,1.982,0,0,0-.495.833l-2.283,7.737,8.948-.461.192-2.563a1.323,1.323,0,0,1,1.074-1.2l3.318-.633.374-2.991a1.324,1.324,0,0,1,1.013-1.125l3.465-.807.315-2.845a1.324,1.324,0,0,1,1.222-1.174l3.273-.233.5-2.163a1.323,1.323,0,0,1,1.061-1.008l1.8-.312.477-3.475a1.326,1.326,0,0,1,1.071-1.12l2.765-.512,1.715-2a1.306,1.306,0,0,1,.956-.461,1.327,1.327,0,0,1,.986.387l1.379,1.386,3.8-6.368a1.322,1.322,0,0,1,1.65-.54,16.51,16.51,0,0,0,6.427,1.3,16.55,16.55,0,0,0,16.529-16.531,16.538,16.538,0,0,0-5.472-12.286A16.341,16.341,0,0,0-1087.347,1913.834Zm-10.932,39.61h0Z" transform="translate(1138.278 -1911.188)" fill="#193540"/>
            </g>
            <g id="Grupo_21073" data-name="Grupo 21073" transform="translate(52.346 4.93)">
              <path id="Trazado_2715" data-name="Trazado 2715" d="M-1107.78,1913.629l-9.556,9.554Z" transform="translate(1118.657 -1912.306)" fill="#fff"/>
              <path id="Trazado_2716" data-name="Trazado 2716" d="M-1116.529,1925.315a1.319,1.319,0,0,1-.935-.39,1.321,1.321,0,0,1,0-1.868l9.556-9.556a1.32,1.32,0,0,1,1.871,0,1.323,1.323,0,0,1,0,1.868l-9.556,9.556A1.32,1.32,0,0,1-1116.529,1925.315Z" transform="translate(1117.851 -1913.113)" fill="#193540"/>
            </g>
            <g id="Grupo_21074" data-name="Grupo 21074" transform="translate(0.761 27.811)">
              <path id="Trazado_2717" data-name="Trazado 2717" d="M-1137.464,1957.776l35.218-35.219Z" transform="translate(1138.787 -1921.235)" fill="#fff"/>
              <path id="Trazado_2718" data-name="Trazado 2718" d="M-1136.657,1959.906a1.32,1.32,0,0,1-.935-.39,1.318,1.318,0,0,1,0-1.868l35.218-35.221a1.322,1.322,0,0,1,1.868,0,1.32,1.32,0,0,1,0,1.87l-35.218,35.219A1.309,1.309,0,0,1-1136.657,1959.906Z" transform="translate(1137.98 -1922.041)" fill="#193540"/>
            </g>
            <g id="Grupo_21077" data-name="Grupo 21077" transform="translate(52.301 11.524)">
              <g id="Grupo_21075" data-name="Grupo 21075" transform="translate(1.664)">
                <path id="Trazado_2719" data-name="Trazado 2719" d="M-1104.48,1916.2l-7.179,7.282,1.8,1.937-6.845,6.708Z" transform="translate(1118.025 -1914.88)" fill="#fff"/>
                <path id="Trazado_2720" data-name="Trazado 2720" d="M-1115.9,1934.258a1.312,1.312,0,0,1-.946-.4,1.321,1.321,0,0,1,.02-1.868l5.925-5.807-.925-.994a1.32,1.32,0,0,1,.028-1.827l7.178-7.283a1.321,1.321,0,0,1,1.871-.015,1.323,1.323,0,0,1,.013,1.87l-6.289,6.381.938,1.01a1.323,1.323,0,0,1-.043,1.845l-6.845,6.709A1.324,1.324,0,0,1-1115.9,1934.258Z" transform="translate(1117.219 -1915.686)" fill="#193540"/>
              </g>
              <g id="Grupo_21076" data-name="Grupo 21076" transform="translate(0 13.699)">
                <circle id="Elipse_1217" data-name="Elipse 1217" cx="1.991" cy="1.991" r="1.991" transform="translate(1.323 1.322)" fill="#5da5cf"/>
                <path id="Trazado_2721" data-name="Trazado 2721" d="M-1114.549,1927.658a2.964,2.964,0,0,1-.4-.026,3.3,3.3,0,0,1-2.212-1.243,3.3,3.3,0,0,1-.682-2.443,3.293,3.293,0,0,1,1.245-2.209,3.281,3.281,0,0,1,2.44-.681,3.287,3.287,0,0,1,2.212,1.243,3.3,3.3,0,0,1,.682,2.442,3.284,3.284,0,0,1-1.245,2.209A3.29,3.29,0,0,1-1114.549,1927.658Zm0-3.982a.664.664,0,0,0-.413.144.657.657,0,0,0-.251.446.661.661,0,0,0,.136.492.668.668,0,0,0,.446.251.652.652,0,0,0,.492-.138.658.658,0,0,0,.251-.446.658.658,0,0,0-.136-.492.668.668,0,0,0-.446-.251A.6.6,0,0,0-1114.554,1923.675Z" transform="translate(1117.869 -1921.032)" fill="#193540"/>
              </g>
            </g>
            <g id="Grupo_21080" data-name="Grupo 21080" transform="translate(37.457 1.126)">
              <g id="Grupo_21078" data-name="Grupo 21078" transform="translate(1.75)">
                <path id="Trazado_2722" data-name="Trazado 2722" d="M-1106.535,1912.144l-7.283,7.179-1.937-1.8-6.708,6.845Z" transform="translate(1123.785 -1910.821)" fill="#fff"/>
                <path id="Trazado_2723" data-name="Trazado 2723" d="M-1121.656,1926.5a1.321,1.321,0,0,1-.925-.377,1.323,1.323,0,0,1-.021-1.871l6.709-6.845a1.321,1.321,0,0,1,1.845-.043l1.01.938,6.381-6.291a1.323,1.323,0,0,1,1.871.015,1.323,1.323,0,0,1-.013,1.871l-7.283,7.178a1.322,1.322,0,0,1-1.83.026l-.995-.923-5.807,5.925A1.314,1.314,0,0,1-1121.656,1926.5Z" transform="translate(1122.978 -1911.628)" fill="#193540"/>
              </g>
              <g id="Grupo_21079" data-name="Grupo 21079" transform="translate(0 9.908)">
                <path id="Trazado_2724" data-name="Trazado 2724" d="M-1122.721,1916.773a1.99,1.99,0,0,1,2.8-.338,1.992,1.992,0,0,1,.336,2.8,1.989,1.989,0,0,1-2.793.336A1.987,1.987,0,0,1-1122.721,1916.773Z" transform="translate(1124.466 -1914.689)" fill="#5da5cf"/>
                <path id="Trazado_2725" data-name="Trazado 2725" d="M-1120.355,1922.118a3.281,3.281,0,0,1-2.04-.707,3.317,3.317,0,0,1-.561-4.651,3.317,3.317,0,0,1,4.651-.562,3.294,3.294,0,0,1,1.246,2.209,3.286,3.286,0,0,1-.684,2.442,3.294,3.294,0,0,1-2.209,1.245A3.614,3.614,0,0,1-1120.355,1922.118Zm.005-3.981a.671.671,0,0,0-.525.256.668.668,0,0,0,.113.938.669.669,0,0,0,.495.139.663.663,0,0,0,.443-.251.664.664,0,0,0,.138-.492.668.668,0,0,0-.251-.446A.667.667,0,0,0-1120.35,1918.137Z" transform="translate(1123.661 -1915.495)" fill="#193540"/>
              </g>
            </g>
            <g id="Grupo_21081" data-name="Grupo 21081" transform="translate(50.354 12.496)">
              <path id="Trazado_2726" data-name="Trazado 2726" d="M-1115.017,1920.229a1.992,1.992,0,0,0,.551-2.762,1.991,1.991,0,0,0-2.76-.551,1.992,1.992,0,0,0-.551,2.762A1.991,1.991,0,0,0-1115.017,1920.229Z" transform="translate(1119.435 -1915.259)" fill="#5da5cf"/>
              <path id="Trazado_2727" data-name="Trazado 2727" d="M-1115.307,1922.692a3.325,3.325,0,0,1-.656-.067,3.278,3.278,0,0,1-2.107-1.41,3.3,3.3,0,0,1-.494-2.488,3.3,3.3,0,0,1,1.409-2.106,3.315,3.315,0,0,1,4.595.917,3.317,3.317,0,0,1-.915,4.594h0A3.3,3.3,0,0,1-1115.307,1922.692Zm1.1-1.658h0Zm-1.1-2.324a.665.665,0,0,0-.372.112.67.67,0,0,0-.285.423.667.667,0,0,0,.1.5.666.666,0,0,0,.425.285.67.67,0,0,0,.5-.1.671.671,0,0,0,.184-.928A.673.673,0,0,0-1115.314,1918.71Z" transform="translate(1118.628 -1916.065)" fill="#193540"/>
            </g>
          </g>
        </g>
      </g>
    </g>
  </g>
</svg>
