<svg xmlns="http://www.w3.org/2000/svg" width="269" height="36.003" viewBox="0 0 269 36.003">
  <g id="Grupo_20927" data-name="Grupo 20927" transform="translate(-0.04 -0.04)">
    <path id="Trazado_2457" data-name="Trazado 2457" d="M128.729.879h2l3.646,4.676V.879h1.987V8.526h-1.987l-3.646-4.667V8.544h-1.987Zm14.593,7.647H141.5V7.951a1.825,1.825,0,0,1-1.577.747,2.775,2.775,0,1,1,0-5.551,2.126,2.126,0,0,1,1.613.684v-.51h1.823Zm-4.156-2.6a1.185,1.185,0,1,0,1.185-1.185,1.185,1.185,0,0,0-1.185,1.185Zm7.4,2.6h-1.823V4.88h-.6V3.358h.6v-1.6h1.823V3.321h1.048V4.843h-1.048Zm3.591-7.2A1.039,1.039,0,1,1,149.119.286h0a1.039,1.039,0,0,1,1.039,1.039Zm-.109,7.2h-1.823v-5.2h1.823Zm7.109-2.6c0,1.768-1.458,2.734-3.135,2.734a2.842,2.842,0,0,1-3.135-2.734,3.158,3.158,0,0,1,6.271,0Zm-4.32,0a1.185,1.185,0,1,0,1.185-1.185,1.185,1.185,0,0,0-1.185,1.185ZM159.829,4a1.823,1.823,0,0,1,1.668-.839c1.4,0,1.96.911,1.96,2.16V8.535h-1.823V6c0-.5.082-1.367-.829-1.367-.747,0-.966.556-.966,1.2V8.571h-1.823v-5.2h1.823Zm10.555,4.53H168.56V7.951a1.824,1.824,0,0,1-1.577.747,2.775,2.775,0,1,1,0-5.551,2.126,2.126,0,0,1,1.613.684v-.51h1.823Zm-4.156-2.6a1.189,1.189,0,1,0,1.189-1.189A1.189,1.189,0,0,0,166.227,5.928Zm7.228,2.6h-1.823V.1h1.823Zm6.727,0h-1.987V.879h1.987ZM183.29,4a1.823,1.823,0,0,1,1.668-.839c1.4,0,1.96.911,1.96,2.16V8.535h-1.823V6c0-.5.082-1.367-.829-1.367-.747,0-.966.556-.966,1.2V8.571h-1.823v-5.2H183.3Zm8.3.665a2.273,2.273,0,0,0-.993-.255c-.21,0-.574.091-.574.355s.574.4.829.456c.866.173,1.513.574,1.513,1.54,0,1.367-1.249,1.941-2.452,1.941a4.038,4.038,0,0,1-2.1-.6l.665-1.285a2.968,2.968,0,0,0,1.458.529c.237,0,.574-.109.574-.4s-.574-.428-1.158-.583A1.3,1.3,0,0,1,188.2,4.989c0-1.276,1.158-1.823,2.3-1.823a4.13,4.13,0,0,1,1.714.337Zm3.783,3.865h-1.823V4.88h-.6V3.358h.6v-1.6h1.823V3.321h1.048V4.843h-1.048Zm3.591-7.2A1.039,1.039,0,1,1,197.928.286h0A1.039,1.039,0,0,1,198.967,1.325Zm-.109,7.2h-1.823v-5.2h1.823Zm3.236,0H200.27V4.88h-.6V3.358h.6v-1.6h1.823V3.321h1.048V4.843h-1.048Zm3.445-5.2V6.1c0,.656.164,1.13.911,1.13s.911-.465.911-1.13V3.321h1.823V6.457c0,1.714-1.212,2.242-2.734,2.242s-2.734-.529-2.734-2.242V3.321Zm6.891,5.2h-1.823V4.88h-.583V3.358h.6v-1.6h1.823V3.321H213.5V4.843h-1.048Zm6.982-2.288h-3.919a1.029,1.029,0,0,0,.884,1.158,1.056,1.056,0,0,0,.273,0,.911.911,0,0,0,.911-.474h1.777a2.524,2.524,0,0,1-2.652,1.823,2.707,2.707,0,0,1-3.017-2.734,2.871,2.871,0,0,1,5.733.109ZM217.7,5.171a1.112,1.112,0,0,0-2.142,0Zm11.922.757c0,1.768-1.458,2.734-3.135,2.734a2.842,2.842,0,0,1-3.135-2.734,3.158,3.158,0,0,1,6.271,0Zm-4.32,0a1.189,1.189,0,1,0,1.189-1.189A1.189,1.189,0,0,0,225.3,5.928Zm7.182,2.6h-1.823V4.88h-.647V3.358h.647V2.7A2.334,2.334,0,0,1,232.64.063,2.392,2.392,0,0,1,233,.04a1.654,1.654,0,0,1,.793.182v1.6a1.584,1.584,0,0,0-.647-.173c-.474,0-.638.283-.638.911v.839h1.285V4.916h-1.285Zm-99.55,6.563a2.1,2.1,0,0,0-1.322-.5c-.365,0-.857.21-.857.638s.538.62.911.729l.51.155c1.066.31,1.887.848,1.887,2.087a2.607,2.607,0,0,1-.793,2.06,3.362,3.362,0,0,1-2.169.72,4.708,4.708,0,0,1-2.689-.911l.848-1.6a2.734,2.734,0,0,0,1.768.793c.465,0,.966-.228.966-.775s-.784-.747-1.2-.911c-1.249-.355-2.069-.684-2.069-2.16a2.479,2.479,0,0,1,2.381-2.574,2.522,2.522,0,0,1,.262,0,5.236,5.236,0,0,1,2.4.629Zm4.029,5.688h-1.823V17.13h-.6V15.608h.6V14.04h1.823v1.568h1.057V17.13h-1.048Zm7.328,0h-1.823V20.2a1.824,1.824,0,0,1-1.577.747,2.775,2.775,0,1,1,0-5.551h0a2.124,2.124,0,0,1,1.613.674v-.51h1.823Zm-4.156-2.6a1.185,1.185,0,1,0,1.185-1.185A1.185,1.185,0,0,0,140.132,18.178Zm7.228-1.941a1.823,1.823,0,0,1,1.668-.839c1.4,0,1.96.911,1.96,2.16v3.217h-1.823V18.242c0-.5.082-1.367-.829-1.367-.747,0-.966.556-.966,1.2v2.734h-1.823v-5.2h1.823Zm8.777,3.956a1.824,1.824,0,0,1-1.568.747,2.775,2.775,0,1,1,0-5.551,2.124,2.124,0,0,1,1.613.674V12.336h1.823v8.422h-1.823Zm-2.315-2.014a1.189,1.189,0,0,0,2.379,0h0a1.189,1.189,0,0,0-2.379,0Zm11.01,2.6H163.01V20.2a1.824,1.824,0,0,1-1.568.747,2.775,2.775,0,1,1,0-5.551,2.124,2.124,0,0,1,1.613.674v-.51h1.823Zm-4.156-2.6a1.185,1.185,0,1,0,1.185-1.185A1.185,1.185,0,0,0,160.676,18.178Zm7.228-1.759a1.822,1.822,0,0,1,1.686-.911h.355v1.777a1.5,1.5,0,0,0-.784-.173c-1.021,0-1.276.684-1.276,1.577v2.1h-1.823v-5.2h1.823Zm6.672,3.773a1.824,1.824,0,0,1-1.568.747,2.775,2.775,0,1,1,0-5.551,2.124,2.124,0,0,1,1.613.674V12.336h1.823v8.422h-1.823Zm-2.315-2.014a1.185,1.185,0,1,0,1.185-1.185A1.185,1.185,0,0,0,172.261,18.178Zm8.75-1.267a2.273,2.273,0,0,0-.993-.255c-.21,0-.574.091-.574.355s.574.4.829.456c.866.173,1.513.574,1.513,1.54,0,1.367-1.249,1.941-2.452,1.941a4.038,4.038,0,0,1-2.1-.6l.665-1.285a2.986,2.986,0,0,0,1.458.529c.237,0,.574-.109.574-.392s-.574-.428-1.158-.583a1.3,1.3,0,0,1-1.158-1.367c0-1.276,1.158-1.823,2.3-1.823a4.13,4.13,0,0,1,1.714.337Zm10.947,3.865h-1.823V20.2a1.824,1.824,0,0,1-1.568.747,2.775,2.775,0,0,1,0-5.551h0a2.124,2.124,0,0,1,1.613.674v-.51H192Zm-4.156-2.6a1.189,1.189,0,0,0,2.379,0h0a1.189,1.189,0,0,0-2.379,0Zm7.228-1.941a1.823,1.823,0,0,1,1.659-.839c1.4,0,1.96.911,1.96,2.16v3.217h-1.823V18.242c0-.5.082-1.367-.829-1.367-.747,0-.966.556-.966,1.2v2.734h-1.823v-5.2h1.823Zm8.777,3.956a1.825,1.825,0,0,1-1.577.747,2.775,2.775,0,1,1,0-5.551,2.124,2.124,0,0,1,1.613.674V12.336h1.823v8.422h-1.823Zm-2.315-2.014a1.185,1.185,0,1,0,1.185-1.185A1.185,1.185,0,0,0,201.492,18.178Zm11.885,2.6H211.39V14.8h-1.641V13.11h5.277V14.8h-1.641Zm6.918-2.333H216.4a1.029,1.029,0,0,0,.884,1.158,1.056,1.056,0,0,0,.273,0,.911.911,0,0,0,.911-.474h1.777a2.525,2.525,0,0,1-2.643,1.823,2.707,2.707,0,0,1-3.017-2.734,2.871,2.871,0,0,1,5.733.109Zm-1.714-1.066a1.112,1.112,0,0,0-2.142,0Zm6.307-.109a1.627,1.627,0,0,0-.911-.365,1.248,1.248,0,0,0-1.267,1.23v.036a1.24,1.24,0,0,0,1.2,1.277c.034,0,.068,0,.1,0a1.425,1.425,0,0,0,.911-.355v1.559a2.88,2.88,0,0,1-1.294.292,2.734,2.734,0,0,1-2.833-2.632c0-.034,0-.068,0-.1a2.788,2.788,0,0,1,2.75-2.827c.053,0,.1,0,.158,0a2.528,2.528,0,0,1,1.221.3Zm3-4.913v3.874a1.924,1.924,0,0,1,1.668-.829c1.322,0,1.96.911,1.96,2.188v3.19h-1.823V18.105c0-.611-.091-1.24-.829-1.24s-.966.629-.966,1.24v2.671h-1.823V12.354Zm6.745,3.883A1.823,1.823,0,0,1,236.3,15.4c1.4,0,1.96.911,1.96,2.16v3.217h-1.823V18.242c0-.5.082-1.367-.829-1.367-.747,0-.966.556-.966,1.2v2.734h-1.823v-5.2h1.823Zm10.7,1.941c0,1.768-1.458,2.734-3.135,2.734a2.842,2.842,0,0,1-3.135-2.734,2.842,2.842,0,0,1,3.135-2.734C243.875,15.444,245.333,16.4,245.333,18.178Zm-4.32,0a1.185,1.185,0,1,0,1.185-1.185A1.185,1.185,0,0,0,241.013,18.178Zm7,2.6H246.19V12.354h1.823Zm7.109-2.6c0,1.768-1.458,2.734-3.135,2.734a2.842,2.842,0,0,1-3.135-2.734,2.842,2.842,0,0,1,3.135-2.734C253.664,15.444,255.122,16.4,255.122,18.178Zm-4.32,0a1.189,1.189,0,1,0,1.186-1.186A1.19,1.19,0,0,0,250.8,18.178Zm10.865,2.087c0,2.215-1.094,3.108-3.017,3.108-1.194,0-2.8-.62-2.962-1.987h2.069a.637.637,0,0,0,.346.392,1.2,1.2,0,0,0,.529.118c.993,0,1.185-.647,1.185-1.495v-.246a2.162,2.162,0,0,1-1.65.711,2.534,2.534,0,0,1-2.573-2.494c0-.056,0-.112,0-.168a2.734,2.734,0,0,1,2.651-2.816h.02a1.824,1.824,0,0,1,1.531.72v-.547h1.823ZM257.5,18.132a1.189,1.189,0,1,0,1.186-1.186A1.19,1.19,0,0,0,257.5,18.132Zm4.557-2.561h2.133l1.395,2.671,1.358-2.671h2.1l-4.165,7.8H262.8l1.777-3.309ZM129.686,30.291a2.824,2.824,0,0,0,.337,1.7,1.979,1.979,0,0,0,1.54.729,2.024,2.024,0,0,0,1.5-.684,2.634,2.634,0,0,0,.392-1.75V25.734h.848v4.785a2.733,2.733,0,0,1-.665,2.124,2.807,2.807,0,0,1-2.06.911,2.861,2.861,0,0,1-1.978-.784,2.735,2.735,0,0,1-.747-2.215V25.734h.857Zm7.474,2.634a.57.57,0,1,1-.57-.57A.57.57,0,0,1,137.16,32.926Zm5.232-5.715a1.4,1.4,0,0,0-1.322-.829,1.212,1.212,0,0,0-1.23,1.176c0,.656.684.966,1.194,1.194l.51.219c.993.438,1.823.911,1.823,2.151a2.415,2.415,0,0,1-4.785.383l.829-.237a1.577,1.577,0,0,0,1.531,1.422,1.54,1.54,0,0,0,1.568-1.495c0-.911-.7-1.194-1.413-1.522l-.465-.2c-.911-.41-1.668-.866-1.668-1.96a2,2,0,0,1,2.054-1.954c.029,0,.058,0,.087,0a2.195,2.195,0,0,1,1.978,1.185Zm3.564,5.715a.57.57,0,1,1-.57-.57A.57.57,0,0,1,145.956,32.926Zm4.895-7.191h1.44a4.176,4.176,0,0,1,2.98.911,3.928,3.928,0,0,1,.209,5.552c-.067.072-.137.142-.209.209a4.063,4.063,0,0,1-3.026.966h-1.422Zm1.477,6.863a3.219,3.219,0,0,0,2.415-.793,3.126,3.126,0,0,0,.139-4.419c-.045-.048-.091-.094-.139-.139a3.281,3.281,0,0,0-2.37-.738h-.684v6.07Zm5.806-1.395a1.54,1.54,0,0,0,1.485,1.594h.074a1.631,1.631,0,0,0,1.449-.984l.693.392a2.4,2.4,0,0,1-2.206,1.34,2.307,2.307,0,0,1-2.338-2.274c0-.059,0-.118,0-.178a2.315,2.315,0,1,1,4.557.109Zm2.889-.693a1.458,1.458,0,0,0-1.4-1.249,1.513,1.513,0,0,0-1.449,1.249Zm2.743-1.23a2.007,2.007,0,0,1,1.641-.811,2.37,2.37,0,0,1,2.282,2.455c0,.023,0,.046,0,.07a2.315,2.315,0,0,1-2.116,2.5c-.06.005-.121.008-.181.008a2.014,2.014,0,0,1-1.632-.8v3.345h-.811V28.6h.811Zm0,1.65a1.65,1.65,0,0,0,1.466,1.816c.034,0,.068.005.1.007a1.623,1.623,0,0,0,1.608-1.637,1.825,1.825,0,0,0-.013-.186,1.6,1.6,0,0,0-1.462-1.717c-.047,0-.095-.005-.142-.005a1.613,1.613,0,0,0-1.6,1.627c0,.035,0,.07,0,.1Zm9.434,2.443h-.811v-.656a2,2,0,0,1-1.641.793,2.525,2.525,0,0,1,0-5.031,2.058,2.058,0,0,1,1.632.811v-.684h.811Zm-3.928-2.434a1.65,1.65,0,0,0,1.466,1.816c.031,0,.062.005.093.007a1.623,1.623,0,0,0,1.608-1.637,1.821,1.821,0,0,0-.013-.186,1.6,1.6,0,0,0-1.462-1.717c-.047,0-.095-.005-.142-.005a1.614,1.614,0,0,0-1.552,1.673l0,.05Zm6.207-1.823a1.221,1.221,0,0,1,1.057-.647,1.432,1.432,0,0,1,.729.228l-.383.738a.794.794,0,0,0-.492-.21c-.911,0-.911,1.148-.911,1.768v2.388h-.811V28.614h.811Zm3.682,4.257h-.811V29.38h-.5v-.757h.5V26.91h.811v1.714h.857v.757h-.857Zm2.4-4.257a1.34,1.34,0,0,1,1.121-.647,1.467,1.467,0,0,1,1.322.793,1.587,1.587,0,0,1,1.431-.793c1.212,0,1.522.993,1.522,2v2.9h-.811V30.629c0-.62,0-1.376-.911-1.376s-1.039.911-1.039,1.622V33.4h-.811V30.665c0-.592-.073-1.44-.857-1.44-.911,0-1.057.966-1.057,1.686v2.47h-.811V28.614h.811Zm7.383,2.087a1.54,1.54,0,0,0,1.485,1.594h.074a1.631,1.631,0,0,0,1.449-.984l.693.392a2.4,2.4,0,0,1-2.206,1.34,2.307,2.307,0,0,1-2.338-2.274c0-.059,0-.118,0-.178a2.315,2.315,0,1,1,4.557.109Zm2.889-.693a1.449,1.449,0,0,0-1.4-1.249,1.5,1.5,0,0,0-1.449,1.249Zm2.78-1.331a1.6,1.6,0,0,1,1.358-.711c1.322,0,1.622.911,1.622,2.069v2.835h-.811V30.638c0-.775-.064-1.458-1-1.458-1.121,0-1.185,1.039-1.185,1.887v2.26h-.811V28.56h.811ZM200,33.372h-.811V29.38h-.5v-.757h.5V26.91H200v1.714h.911v.757H200Zm4.293-2.379A2.507,2.507,0,1,1,206.8,33.5,2.506,2.506,0,0,1,204.29,30.993Zm.811,0a1.689,1.689,0,1,0,0-.093c0,.028,0,.056,0,.084Zm6.207,2.379H210.5V29.38h-.474v-.757h.447v-1.9a2.446,2.446,0,0,1,.21-1.24,1.385,1.385,0,0,1,1.23-.6,1.9,1.9,0,0,1,.574.1v.82a1.678,1.678,0,0,0-.547-.109c-.656,0-.656.465-.656,1.313v1.613h1.2v.757h-1.2Zm10.856-5.979a3.274,3.274,0,0,0-2.333-1.012,3.167,3.167,0,0,0,0,6.335,3.355,3.355,0,0,0,2.315-1.012v1.057a3.947,3.947,0,1,1-2.28-7.164h0a3.65,3.65,0,0,1,2.279.747Zm1.012,3.6a2.507,2.507,0,1,1,2.507,2.507A2.506,2.506,0,0,1,223.175,30.993Zm.811,0a1.689,1.689,0,1,0,0-.093c0,.028,0,.056,0,.084Zm6.089-1.878a1.339,1.339,0,0,1,1.148-.647,1.467,1.467,0,0,1,1.322.793,1.587,1.587,0,0,1,1.431-.793c1.221,0,1.522.993,1.522,2v2.9h-.811V30.629c0-.62,0-1.376-.911-1.376s-1.039.911-1.039,1.622V33.4h-.811V30.665c0-.592-.073-1.44-.848-1.44-.911,0-1.057.966-1.057,1.686v2.47h-.811V28.614h.866Zm7.829,0a1.348,1.348,0,0,1,1.148-.647,1.467,1.467,0,0,1,1.322.793,1.587,1.587,0,0,1,1.431-.793c1.221,0,1.522.993,1.522,2v2.9h-.811V30.629c0-.62,0-1.376-.911-1.376s-1.039.911-1.039,1.622V33.4h-.811V30.665c0-.592-.073-1.44-.857-1.44-.911,0-1.057.966-1.057,1.686v2.47h-.811V28.614h.811ZM245.3,31.2a1.54,1.54,0,0,0,1.485,1.594h.074a1.631,1.631,0,0,0,1.449-.984l.693.392a2.4,2.4,0,0,1-2.206,1.34,2.307,2.307,0,0,1-2.338-2.274c0-.059,0-.118,0-.178a2.315,2.315,0,1,1,4.557.109Zm2.889-.693a1.458,1.458,0,0,0-1.4-1.249,1.5,1.5,0,0,0-1.449,1.249Zm2.743-1.395a1.221,1.221,0,0,1,1.057-.647,1.421,1.421,0,0,1,.729.228l-.383.738a.794.794,0,0,0-.492-.21c-.911,0-.911,1.148-.911,1.768v2.388h-.8V28.614h.811Zm6.171.9a1.824,1.824,0,0,0-1.486-.8,1.7,1.7,0,0,0-1.687,1.722v.046a1.668,1.668,0,0,0,1.564,1.766l.077,0a1.822,1.822,0,0,0,1.559-.82v1.094a2.61,2.61,0,0,1-1.513.483A2.47,2.47,0,0,1,253.08,31.1c0-.036,0-.074,0-.11a2.516,2.516,0,0,1,2.507-2.525h.009a2.559,2.559,0,0,1,1.477.474Zm1.7,1.185A1.54,1.54,0,0,0,260.28,32.8h.074a1.631,1.631,0,0,0,1.449-.984l.693.392a2.4,2.4,0,0,1-2.206,1.34,2.307,2.307,0,0,1-2.338-2.274c0-.059,0-.118,0-.178a2.315,2.315,0,1,1,4.557.109Zm2.889-.693a1.458,1.458,0,0,0-1.4-1.249,1.5,1.5,0,0,0-1.449,1.249ZM6.767,33.409H.04V7.423A7.181,7.181,0,0,1,4.962.879a7.693,7.693,0,0,1,7.41,1.431L34.557,26.3c1.112.693,1.568,0,1.559-.684V.879h6.79V26.646a7.29,7.29,0,0,1-4.421,5.979c-2.643,1.03-5.542,1.021-8.969-1.868L8.726,8.234c-.547-.583-1.969-.656-2,.492V33.4ZM47.236.879h6.79V24.185c0,2.479,2.051,2.479,4.111,2.488H88.3a3.135,3.135,0,0,0,2.68-2.99,3.226,3.226,0,0,0-2.807-3.117H68.546c-3.372.118-10.382-2.99-10.409-9.6,0-8.066,6.645-9.88,9.662-10.09h55.517V7.733H109.425V33.409H102.7V7.733H68.673c-3.236-.283-5.578,5.3-.246,6.107H89.3c3.135,0,8.331,2.734,8.349,9.47s-4.047,10.1-8.349,10.1H58.456c-5.1,0-6.918-1.148-8.723-2.862s-1.951-2.579-2.488-5.988V.86Z" transform="translate(0 0)" fill="#fff"/>
  </g>
</svg>
