<svg xmlns="http://www.w3.org/2000/svg" xmlns:xlink="http://www.w3.org/1999/xlink" width="97" height="97" viewBox="0 0 97 97">
  <defs>
    <filter id="Base" x="0" y="0" width="97" height="97" filterUnits="userSpaceOnUse">
      <feOffset dy="3" input="SourceAlpha"/>
      <feGaussianBlur stdDeviation="3" result="blur"/>
      <feFlood flood-opacity="0.161"/>
      <feComposite operator="in" in2="blur"/>
      <feComposite in="SourceGraphic"/>
    </filter>
  </defs>
  <g id="Grupo_28536" data-name="Grupo 28536" transform="translate(-763.5 -918)">
    <g id="Icon" transform="translate(772.748 923.763)">
      <g transform="matrix(1, 0, 0, 1, -9.25, -5.76)" filter="url(#Base)">
        <circle id="Base-2" data-name="Base" cx="39.5" cy="39.5" r="39.5" transform="translate(9 6)" fill="#fff"/>
      </g>
    </g>
    <g id="Grupo_22887" data-name="Grupo 22887" transform="translate(793.5 940)">
      <path id="Trazado_5068" data-name="Trazado 5068" d="M149.364,46.535H120.449a.723.723,0,0,1-.723-.723V8.223a.723.723,0,0,1,.723-.723h28.915a.723.723,0,0,1,.723.723v37.59A.723.723,0,0,1,149.364,46.535Z" transform="translate(-113.267 -6.823)" fill="#a5cdff"/>
      <path id="Trazado_5069" data-name="Trazado 5069" d="M117.3,78.6H88.384a.723.723,0,0,1-.723-.723V40.288a.723.723,0,0,1,.723-.723H117.3a.723.723,0,0,1,.723.723v37.59A.723.723,0,0,1,117.3,78.6Z" transform="translate(-84.093 -35.997)" fill="#ffe17d"/>
      <path id="Trazado_5070" data-name="Trazado 5070" d="M77.407,110.664H56.32a.723.723,0,0,1-.723-.723V72.352a.723.723,0,0,1,.723-.723H85.235a.723.723,0,0,1,.723.723v29.762a1.445,1.445,0,0,1-.423,1.022l-7.1,7.1A1.445,1.445,0,0,1,77.407,110.664Z" transform="translate(-54.92 -65.169)" fill="#edebed"/>
      <g id="Grupo_22886" data-name="Grupo 22886" transform="translate(0.677 6.46)">
        <path id="Trazado_5071" data-name="Trazado 5071" d="M63.537,108.5a5.771,5.771,0,0,1-5.771-5.771v-31.1H56.32a.723.723,0,0,0-.723.723v37.59a.723.723,0,0,0,.723.723H77.407a1.446,1.446,0,0,0,1.022-.423l1.745-1.745Z" transform="translate(-55.597 -71.629)" fill="#dbd9dc"/>
        <path id="Trazado_5072" data-name="Trazado 5072" d="M304.82,416.323a.723.723,0,0,0-.723.723v7.094a1.441,1.441,0,0,0,.424-.289l7.1-7.1a1.444,1.444,0,0,0,.289-.423Z" transform="translate(-281.688 -385.239)" fill="#dbd9dc"/>
      </g>
      <path id="Trazado_5073" data-name="Trazado 5073" d="M129.48,175.839l-8.9,4.145a.716.716,0,0,0-.461.739,19.8,19.8,0,0,0,8.953,14.375.752.752,0,0,0,.811,0,19.8,19.8,0,0,0,8.953-14.375.716.716,0,0,0-.461-.739Z" transform="translate(-113.624 -159.982)" fill="#ffe17d"/>
      <path id="Trazado_5074" data-name="Trazado 5074" d="M123.775,208.187l-3.192,1.228a.716.716,0,0,0-.461.739,19.8,19.8,0,0,0,8.956,14.377.746.746,0,0,0,.8,0c.506-.33.979-.674,1.429-1.025A25.162,25.162,0,0,1,123.775,208.187Z" transform="translate(-113.624 -189.413)" fill="#ffd164"/>
      <path id="Trazado_5075" data-name="Trazado 5075" d="M187.469,247.2h0a3.614,3.614,0,0,1-3.614-3.614V240.69a.723.723,0,0,1,.723-.723h5.783a.723.723,0,0,1,.723.723v2.892A3.614,3.614,0,0,1,187.469,247.2Z" transform="translate(-171.613 -218.327)" fill="#c9c6ca"/>
      <path id="Trazado_5076" data-name="Trazado 5076" d="M186.024,242.859v-2.892h-1.446a.723.723,0,0,0-.723.723v2.892a3.6,3.6,0,0,0,5.765,2.89A3.613,3.613,0,0,1,186.024,242.859Z" transform="translate(-171.613 -218.327)" fill="#b7b2b8"/>
      <path id="Trazado_5077" data-name="Trazado 5077" d="M84.194,0H55.279a1.4,1.4,0,0,0-1.4,1.4V2.891H52.388a1.4,1.4,0,0,0-1.4,1.4V5.783H49.5a1.4,1.4,0,0,0-1.4,1.4v37.59a1.4,1.4,0,0,0,1.4,1.4H70.584a2.108,2.108,0,0,0,1.5-.622l2.27-2.27H81.3a1.4,1.4,0,0,0,1.4-1.4V40.388h1.492a1.4,1.4,0,0,0,1.4-1.4V1.4A1.4,1.4,0,0,0,84.194,0ZM49.45,44.772V7.182a.047.047,0,0,1,.047-.047H78.411a.047.047,0,0,1,.047.047V36.867H71.905a1.4,1.4,0,0,0-1.4,1.4v6.552H49.5A.047.047,0,0,1,49.45,44.772Zm22.409-.91v-5.6a.047.047,0,0,1,.047-.047h5.6ZM84.24,38.989a.047.047,0,0,1-.047.047H82.7V8.628a.676.676,0,1,0-1.353,0V41.88a.047.047,0,0,1-.047.047h-5.6l3.482-3.482a2.108,2.108,0,0,0,.622-1.5V7.182a1.4,1.4,0,0,0-1.4-1.4H52.341V4.291a.047.047,0,0,1,.047-.047H81.3a.047.047,0,0,1,.047.047V5.736a.676.676,0,1,0,1.353,0V4.291a1.4,1.4,0,0,0-1.4-1.4H55.233V1.4a.047.047,0,0,1,.047-.047H84.194a.047.047,0,0,1,.047.047v37.59Z" transform="translate(-48.097 0)"/>
      <path id="Trazado_5078" data-name="Trazado 5078" d="M131.075,208.215a18.2,18.2,0,0,0,1.3-5.676.676.676,0,0,0-.433-.646l-3.612-1.389a.676.676,0,0,0-.486,1.262l3.145,1.21a18.341,18.341,0,0,1-1.193,4.8A18.986,18.986,0,0,1,122.3,216.9a18.987,18.987,0,0,1-7.495-9.128,18.346,18.346,0,0,1-1.193-4.8l3.292-1.266a.676.676,0,1,0-.486-1.262l-3.759,1.446a.676.676,0,0,0-.433.646,18.2,18.2,0,0,0,1.3,5.676,20.615,20.615,0,0,0,8.418,10.064.676.676,0,0,0,.715,0A20.615,20.615,0,0,0,131.075,208.215Z" transform="translate(-106.443 -182.33)"/>
      <path id="Trazado_5079" data-name="Trazado 5079" d="M180.648,182.7a4.3,4.3,0,0,0,4.291-4.291v-2.891a1.4,1.4,0,0,0-.723-1.224v-2.39a3.568,3.568,0,1,0-7.136,0v2.39a1.4,1.4,0,0,0-.723,1.224v2.891A4.3,4.3,0,0,0,180.648,182.7Zm2.938-4.291a2.938,2.938,0,1,1-5.876,0v-2.891a.047.047,0,0,1,.047-.047h5.783a.047.047,0,0,1,.047.047Zm-5.153-6.506a2.215,2.215,0,1,1,4.43,0v2.215h-4.43v-2.215Z" transform="translate(-164.791 -153.158)"/>
      <path id="Trazado_5080" data-name="Trazado 5080" d="M217.112,264.532a.676.676,0,0,0-.676.676v.723a.676.676,0,0,0,1.353,0v-.723A.676.676,0,0,0,217.112,264.532Z" transform="translate(-201.256 -240.677)"/>
    </g>
  </g>
</svg>
