<svg xmlns="http://www.w3.org/2000/svg" xmlns:xlink="http://www.w3.org/1999/xlink" width="97" height="97" viewBox="0 0 97 97">
  <defs>
    <filter id="Base" x="0" y="0" width="97" height="97" filterUnits="userSpaceOnUse">
      <feOffset dy="3" input="SourceAlpha"/>
      <feGaussianBlur stdDeviation="3" result="blur"/>
      <feFlood flood-opacity="0.161"/>
      <feComposite operator="in" in2="blur"/>
      <feComposite in="SourceGraphic"/>
    </filter>
  </defs>
  <g id="Grupo_28535" data-name="Grupo 28535" transform="translate(-504.499 -918.001)">
    <g id="Icon" transform="translate(513.277 923.764)">
      <g transform="matrix(1, 0, 0, 1, -8.78, -5.76)" filter="url(#Base)">
        <circle id="Base-2" data-name="Base" cx="39.5" cy="39.5" r="39.5" transform="translate(9 6)" fill="#fff"/>
      </g>
    </g>
    <g id="Grupo_22889" data-name="Grupo 22889" transform="translate(525.301 935.802)">
      <ellipse id="Elipse_1245" data-name="Elipse 1245" cx="14.744" cy="14.745" rx="14.744" ry="14.745" transform="translate(12.954 12.954)" fill="#a5cdff"/>
      <path id="Trazado_5081" data-name="Trazado 5081" d="M201.412,231.952v3.37a.867.867,0,0,0,.545.805l2.7,1.08a1.735,1.735,0,0,1,1.09,1.611v2.674a.867.867,0,0,1-.867.867H192.738a.867.867,0,0,1-.867-.867v-2.674a1.735,1.735,0,0,1,1.09-1.611l2.7-1.08a.867.867,0,0,0,.545-.805v-3.37Z" transform="translate(-171.111 -206.855)" fill="#ffe17d"/>
      <path id="Trazado_5082" data-name="Trazado 5082" d="M226.319,231.952v3.37a.867.867,0,0,1-.545.805l-.138.055a6.031,6.031,0,0,0,6.571,0l-.138-.055a.867.867,0,0,1-.545-.805v-3.37Z" transform="translate(-201.222 -206.855)" fill="#ffd164"/>
      <path id="Trazado_5083" data-name="Trazado 5083" d="M230.874,178.441c0-1.437-1.553-2.6-3.469-2.6s-3.469,1.165-3.469,2.6v2.6a3.469,3.469,0,0,0,3.469,3.469h0a3.469,3.469,0,0,0,3.469-3.469v-2.6Z" transform="translate(-199.706 -156.814)" fill="#ffedb1"/>
      <path id="Trazado_5084" data-name="Trazado 5084" d="M196.209,281.82a2.6,2.6,0,0,1-2.6-2.6v-1.073l-.644.258a1.735,1.735,0,0,0-1.09,1.611v2.675a.867.867,0,0,0,.867.867h12.143a.867.867,0,0,0,.867-.867v-.867Z" transform="translate(-171.112 -248.05)" fill="#ffd164"/>
      <path id="Trazado_5085" data-name="Trazado 5085" d="M136.2,176.268a14.737,14.737,0,0,1-11.252-24.262,14.738,14.738,0,1,0,20.769,20.77A14.676,14.676,0,0,1,136.2,176.268Z" transform="translate(-106.771 -135.559)" fill="#8cb4eb"/>
      <g id="Grupo_22888" data-name="Grupo 22888" transform="translate(0.811 0.811)">
        <ellipse id="Elipse_1246" data-name="Elipse 1246" cx="1.734" cy="1.734" rx="1.734" ry="1.734" transform="translate(25.153)" fill="#ffe17d"/>
        <ellipse id="Elipse_1247" data-name="Elipse 1247" cx="1.734" cy="1.734" rx="1.734" ry="1.734" transform="translate(25.153 50.307)" fill="#ffe17d"/>
        <ellipse id="Elipse_1248" data-name="Elipse 1248" cx="1.734" cy="1.734" rx="1.734" ry="1.734" transform="translate(0 25.153)" fill="#ffe17d"/>
        <ellipse id="Elipse_1249" data-name="Elipse 1249" cx="1.734" cy="1.734" rx="1.734" ry="1.734" transform="translate(50.306 25.153)" fill="#ffe17d"/>
      </g>
      <path id="Trazado_5086" data-name="Trazado 5086" d="M52.852,25.153a2.55,2.55,0,0,0-2.413,1.735h-7.2A15.578,15.578,0,0,0,28.511,12.164v-7.2a2.546,2.546,0,1,0-1.623,0v7.2A15.578,15.578,0,0,0,12.164,26.888h-7.2a2.546,2.546,0,1,0,0,1.623h7.2A15.578,15.578,0,0,0,26.888,43.235v7.2a2.546,2.546,0,1,0,1.623,0v-7.2A15.578,15.578,0,0,0,43.234,28.511h7.2a2.546,2.546,0,1,0,2.413-3.358ZM27.7,1.623a.923.923,0,1,1-.923.923A.924.924,0,0,1,27.7,1.623Zm-25.153,27a.923.923,0,1,1,.923-.923A.924.924,0,0,1,2.546,28.623ZM27.7,53.776a.923.923,0,1,1,.923-.923A.924.924,0,0,1,27.7,53.776Zm0-12.143A13.933,13.933,0,1,1,41.632,27.7,13.949,13.949,0,0,1,27.7,41.633Zm25.153-13.01a.923.923,0,1,1,.923-.923A.924.924,0,0,1,52.852,28.623Z" transform="translate(0 0)"/>
      <path id="Trazado_5087" data-name="Trazado 5087" d="M198.271,179.726l-2.7-1.08a.056.056,0,0,1-.035-.052v-1.635c0-.007,0-.014,0-.021a4.258,4.258,0,0,0,.868-2.581v-2.6c0-1.882-1.92-3.414-4.281-3.414s-4.281,1.531-4.281,3.414v2.6a4.258,4.258,0,0,0,.868,2.581c0,.007,0,.014,0,.021v1.635a.056.056,0,0,1-.035.052l-2.7,1.08a2.534,2.534,0,0,0-1.6,2.364v2.674a1.681,1.681,0,0,0,1.679,1.679h6.939a.812.812,0,0,0,0-1.623H186.05a.056.056,0,0,1-.056-.056V182.09a.919.919,0,0,1,.58-.857l2.7-1.08a1.671,1.671,0,0,0,1.055-1.559v-.35a4.266,4.266,0,0,0,3.581,0v.35a1.671,1.671,0,0,0,1.055,1.559l2.7,1.08a.919.919,0,0,1,.58.857v2.674a.056.056,0,0,1-.056.056h-1.735a.812.812,0,0,0,0,1.623h1.735a1.681,1.681,0,0,0,1.679-1.679V182.09A2.534,2.534,0,0,0,198.271,179.726Zm-8.807-5.37v-2.6c0-.971,1.217-1.79,2.658-1.79s2.658.82,2.658,1.79v2.6a2.658,2.658,0,1,1-5.316,0Z" transform="translate(-164.422 -150.127)"/>
      <path id="Trazado_5088" data-name="Trazado 5088" d="M83.953,99.31a.821.821,0,0,0,.155.015.812.812,0,0,0,.8-.658A17.41,17.41,0,0,1,98.666,84.9a.812.812,0,0,0-.308-1.594A19.033,19.033,0,0,0,83.31,98.359.812.812,0,0,0,83.953,99.31Z" transform="translate(-74.283 -74.283)"/>
      <path id="Trazado_5089" data-name="Trazado 5089" d="M281.221,84.9a17.41,17.41,0,0,1,13.763,13.763.812.812,0,0,0,.8.658.822.822,0,0,0,.155-.015.812.812,0,0,0,.643-.951,19.033,19.033,0,0,0-15.049-15.049.812.812,0,0,0-.308,1.594Z" transform="translate(-250.207 -74.284)"/>
      <path id="Trazado_5090" data-name="Trazado 5090" d="M98.666,294.984A17.41,17.41,0,0,1,84.9,281.221a.812.812,0,1,0-1.594.308,19.033,19.033,0,0,0,15.049,15.049.822.822,0,0,0,.155.015.812.812,0,0,0,.153-1.609Z" transform="translate(-74.283 -250.207)"/>
      <path id="Trazado_5091" data-name="Trazado 5091" d="M295.934,280.579a.812.812,0,0,0-.951.643,17.41,17.41,0,0,1-13.763,13.763.812.812,0,0,0,.153,1.608.822.822,0,0,0,.155-.015,19.033,19.033,0,0,0,15.049-15.049A.812.812,0,0,0,295.934,280.579Z" transform="translate(-250.206 -250.208)"/>
    </g>
  </g>
</svg>
