<svg xmlns="http://www.w3.org/2000/svg" width="61.883" height="61.882" viewBox="0 0 61.883 61.882">
  <g id="Grupo_24015" data-name="Grupo 24015" transform="translate(3381.844 -1854.382)">
    <path id="Trazado_12665" data-name="Trazado 12665" d="M-3325.279,1885.323a25.623,25.623,0,0,1-25.624,25.623,25.622,25.622,0,0,1-25.622-25.623A25.622,25.622,0,0,1-3350.9,1859.7a25.623,25.623,0,0,1,25.624,25.623Zm0,0" fill="#e0e4e8"/>
    <path id="Trazado_12666" data-name="Trazado 12666" d="M-3350.9,1911.913a26.575,26.575,0,0,1-26.589-26.59,26.575,26.575,0,0,1,26.589-26.59,26.575,26.575,0,0,1,26.591,26.59,26.575,26.575,0,0,1-26.591,26.59Zm0-51.246a24.635,24.635,0,0,0-24.655,24.656,24.635,24.635,0,0,0,24.655,24.657,24.636,24.636,0,0,0,24.657-24.657,24.636,24.636,0,0,0-24.657-24.656Zm0,0" fill="#193540"/>
    <path id="Trazado_12667" data-name="Trazado 12667" d="M-3379.33,1855.349h16.825a1.527,1.527,0,0,1,1.547,1.547v9.766a1.527,1.527,0,0,1-1.547,1.547h-2.321v4.835l-8.509-4.835h-6a1.527,1.527,0,0,1-1.547-1.547V1856.9a1.527,1.527,0,0,1,1.547-1.547Zm0,0" fill="#ffc23b"/>
    <path id="Trazado_12668" data-name="Trazado 12668" d="M-3365.309,1873.914l-8.219-4.738h-5.8a2.561,2.561,0,0,1-2.514-2.514V1856.9a2.56,2.56,0,0,1,2.514-2.514h16.825a2.56,2.56,0,0,1,2.514,2.514v9.766a2.561,2.561,0,0,1-2.514,2.514h-1.354v3.868a1.016,1.016,0,0,1-.483.87.876.876,0,0,1-.967,0Zm-14.021-17.6a.623.623,0,0,0-.58.58v9.766a.623.623,0,0,0,.58.58h6.092a.868.868,0,0,1,.483.1l7.059,3.964v-3.191a.914.914,0,0,1,.967-.967h2.32a.624.624,0,0,0,.58-.58V1856.9a.623.623,0,0,0-.58-.58Zm0,0" fill="#193540"/>
    <path id="Trazado_12669" data-name="Trazado 12669" d="M-3322.475,1855.349H-3339.3a1.527,1.527,0,0,0-1.547,1.547v9.766a1.527,1.527,0,0,0,1.547,1.547h2.32v4.835l8.509-4.835h6.092a1.527,1.527,0,0,0,1.547-1.547V1856.9a1.678,1.678,0,0,0-1.644-1.547Zm0,0" fill="#437795"/>
    <path id="Trazado_12670" data-name="Trazado 12670" d="M-3337.462,1873.914a1.017,1.017,0,0,1-.484-.87v-3.868h-1.353a2.56,2.56,0,0,1-2.514-2.514V1856.9a2.559,2.559,0,0,1,2.514-2.514h16.824a2.56,2.56,0,0,1,2.514,2.514v9.766a2.56,2.56,0,0,1-2.514,2.514h-5.8l-8.218,4.738a.875.875,0,0,1-.967,0Zm-1.837-17.6a.623.623,0,0,0-.58.58v9.766a.623.623,0,0,0,.58.58h2.32a.914.914,0,0,1,.967.967v3.191l7.059-3.965a.874.874,0,0,1,.483-.1h6.092a.624.624,0,0,0,.58-.58V1856.9a.623.623,0,0,0-.58-.58Zm0,0" fill="#193540"/>
    <path id="Trazado_12671" data-name="Trazado 12671" d="M-3322.475,1915.3H-3339.3a1.527,1.527,0,0,1-1.547-1.547v-9.765a1.527,1.527,0,0,1,1.547-1.547h2.32V1897.6l8.509,4.835h6.092a1.527,1.527,0,0,1,1.547,1.547v9.765a1.677,1.677,0,0,1-1.644,1.547Zm0,0" fill="#ffc23b"/>
    <path id="Trazado_12672" data-name="Trazado 12672" d="M-3322.475,1916.264H-3339.3a2.559,2.559,0,0,1-2.514-2.514v-9.765a2.559,2.559,0,0,1,2.514-2.514h1.353V1897.6a1.015,1.015,0,0,1,.484-.87.875.875,0,0,1,.967,0l8.218,4.738h5.8a2.56,2.56,0,0,1,2.514,2.514v9.765a2.56,2.56,0,0,1-2.514,2.514Zm-16.824-12.859a.623.623,0,0,0-.58.58v9.765a.625.625,0,0,0,.58.581h16.824a.625.625,0,0,0,.58-.581v-9.765a.624.624,0,0,0-.58-.58h-6.092a.868.868,0,0,1-.483-.1l-7.059-3.964v3.19a.913.913,0,0,1-.966.967h-2.225v-.1Zm0,0" fill="#193540"/>
    <path id="Trazado_12673" data-name="Trazado 12673" d="M-3379.33,1915.3h16.825a1.527,1.527,0,0,0,1.547-1.547v-9.765a1.527,1.527,0,0,0-1.547-1.547h-2.321V1897.6l-8.509,4.835h-6.091a1.526,1.526,0,0,0-1.547,1.547v9.765a1.676,1.676,0,0,0,1.643,1.547Zm0,0" fill="#437795"/>
    <path id="Trazado_12674" data-name="Trazado 12674" d="M-3362.5,1916.264h-16.825a2.56,2.56,0,0,1-2.514-2.514v-9.765a2.56,2.56,0,0,1,2.514-2.514h5.8l8.219-4.738a.876.876,0,0,1,.967,0,1.014,1.014,0,0,1,.483.87v3.868h1.354a2.559,2.559,0,0,1,2.514,2.514v9.765a2.438,2.438,0,0,1-2.514,2.514Zm-16.825-12.859a.623.623,0,0,0-.58.58v9.765a.625.625,0,0,0,.58.581h16.825a.625.625,0,0,0,.58-.581v-9.765a.624.624,0,0,0-.58-.58h-2.321a.914.914,0,0,1-.967-.967v-3.191l-6.962,3.964a.869.869,0,0,1-.483.1h-6.092Zm0,0" fill="#193540"/>
    <path id="Trazado_12675" data-name="Trazado 12675" d="M-3342.974,1870.916h-15.857a2.146,2.146,0,0,0-2.127,2.128V1897.6a2.146,2.146,0,0,0,2.127,2.127h15.858a2.146,2.146,0,0,0,2.127-2.127v-24.559a2.147,2.147,0,0,0-2.128-2.128Zm0,0" fill="#fff"/>
    <path id="Trazado_12676" data-name="Trazado 12676" d="M-3360.958,1893.542v4.061a2.146,2.146,0,0,0,2.127,2.127h15.858a2.146,2.146,0,0,0,2.127-2.127v-4.061Zm0,0" fill="#9b235c"/>
    <path id="Trazado_12677" data-name="Trazado 12677" d="M-3340.846,1875.848v-2.8a2.146,2.146,0,0,0-2.127-2.128h-15.858a2.146,2.146,0,0,0-2.127,2.128v2.8Zm0,0" fill="#9b235c"/>
    <path id="Trazado_12678" data-name="Trazado 12678" d="M-3349.162,1896.636a1.74,1.74,0,0,1-1.741,1.74,1.74,1.74,0,0,1-1.739-1.74,1.74,1.74,0,0,1,1.739-1.74,1.74,1.74,0,0,1,1.741,1.74Zm0,0" fill="#fff"/>
    <rect id="Rectángulo_5233" data-name="Rectángulo 5233" width="5.705" height="1.16" transform="translate(-3353.706 1872.754)" fill="#fff"/>
    <rect id="Rectángulo_5234" data-name="Rectángulo 5234" width="9.863" height="1.934" transform="translate(-3357.768 1878.555)" fill="#193540"/>
    <rect id="Rectángulo_5235" data-name="Rectángulo 5235" width="1.934" height="1.934" transform="translate(-3345.971 1878.555)" fill="#193540"/>
    <rect id="Rectángulo_5236" data-name="Rectángulo 5236" width="9.863" height="1.934" transform="translate(-3353.9 1883.196)" fill="#193540"/>
    <rect id="Rectángulo_5237" data-name="Rectángulo 5237" width="1.934" height="1.934" transform="translate(-3357.768 1883.196)" fill="#193540"/>
    <rect id="Rectángulo_5238" data-name="Rectángulo 5238" width="9.863" height="1.934" transform="translate(-3357.768 1887.838)" fill="#193540"/>
    <rect id="Rectángulo_5239" data-name="Rectángulo 5239" width="1.934" height="1.934" transform="translate(-3345.971 1887.838)" fill="#193540"/>
    <rect id="Rectángulo_5240" data-name="Rectángulo 5240" width="1.934" height="1.934" transform="translate(-3376.525 1860.957)" fill="#193540"/>
    <rect id="Rectángulo_5241" data-name="Rectángulo 5241" width="1.934" height="1.934" transform="translate(-3371.884 1860.957)" fill="#193540"/>
    <rect id="Rectángulo_5242" data-name="Rectángulo 5242" width="1.934" height="1.934" transform="translate(-3367.147 1860.957)" fill="#193540"/>
    <rect id="Rectángulo_5243" data-name="Rectángulo 5243" width="1.934" height="1.934" transform="translate(-3336.592 1860.957)" fill="#193540"/>
    <rect id="Rectángulo_5244" data-name="Rectángulo 5244" width="1.934" height="1.934" transform="translate(-3331.854 1860.957)" fill="#193540"/>
    <rect id="Rectángulo_5245" data-name="Rectángulo 5245" width="1.934" height="1.934" transform="translate(-3327.213 1860.957)" fill="#193540"/>
    <rect id="Rectángulo_5246" data-name="Rectángulo 5246" width="1.934" height="1.934" transform="translate(-3376.525 1907.852)" fill="#193540"/>
    <rect id="Rectángulo_5247" data-name="Rectángulo 5247" width="1.934" height="1.934" transform="translate(-3371.884 1907.852)" fill="#193540"/>
    <rect id="Rectángulo_5248" data-name="Rectángulo 5248" width="1.934" height="1.934" transform="translate(-3367.147 1907.852)" fill="#193540"/>
    <rect id="Rectángulo_5249" data-name="Rectángulo 5249" width="1.934" height="1.934" transform="translate(-3336.592 1907.852)" fill="#193540"/>
    <rect id="Rectángulo_5250" data-name="Rectángulo 5250" width="1.934" height="1.934" transform="translate(-3331.854 1907.852)" fill="#193540"/>
    <rect id="Rectángulo_5251" data-name="Rectángulo 5251" width="1.934" height="1.934" transform="translate(-3327.213 1907.852)" fill="#193540"/>
  </g>
</svg>
