<svg xmlns="http://www.w3.org/2000/svg" width="61.882" height="61.882" viewBox="0 0 61.882 61.882">
  <g id="Grupo_24019" data-name="Grupo 24019" transform="translate(3377.052 -1760.347)">
    <rect id="Rectángulo_5252" data-name="Rectángulo 5252" width="53.857" height="35.293" transform="translate(-3372.991 1780.168)" fill="#e1e6e7"/>
    <path id="Trazado_12702" data-name="Trazado 12702" d="M-3319.231,1816.428h-53.76a.914.914,0,0,1-.967-.967v-35.293a.913.913,0,0,1,.967-.966h53.857a.913.913,0,0,1,.967.966v35.293a1.055,1.055,0,0,1-1.064.967Zm-52.793-1.934h51.923v-33.358h-51.923Zm0,0" fill="#193540"/>
    <rect id="Rectángulo_5253" data-name="Rectángulo 5253" width="46.122" height="31.425" transform="translate(-3369.124 1784.036)" fill="#fff"/>
    <path id="Trazado_12703" data-name="Trazado 12703" d="M-3316.137,1812.947v3.867l-5.8,4.448h-48.346l-5.8-4.448v-3.867h22.142v2.514h15.568v-2.514Zm0,0" fill="#cfd0d1"/>
    <path id="Trazado_12704" data-name="Trazado 12704" d="M-3321.938,1822.229h-48.346a1.373,1.373,0,0,1-.58-.193l-5.8-4.448a1.194,1.194,0,0,1-.387-.774v-3.867a.914.914,0,0,1,.967-.967h22.142a.914.914,0,0,1,.967.967v1.547h13.634v-1.547a.913.913,0,0,1,.967-.967h22.238a.914.914,0,0,1,.967.967v3.867a.877.877,0,0,1-.387.774l-5.8,4.448a1.374,1.374,0,0,1-.58.193Zm-48.056-1.933h47.669l5.125-3.965v-2.417h-20.3v1.547a.914.914,0,0,1-.967.967h-15.471a.914.914,0,0,1-.967-.967v-1.547h-20.208v2.417Zm0,0" fill="#193540"/>
    <path id="Trazado_12705" data-name="Trazado 12705" d="M-3327.063,1810.53v-4.642a4.308,4.308,0,0,0-3.964-4.254,5.922,5.922,0,0,1-5.028,2.9,6.146,6.146,0,0,1-5.028-2.9,4.176,4.176,0,0,0-3.964,4.254v4.642Zm0,0" fill="#9b235c"/>
    <path id="Trazado_12706" data-name="Trazado 12706" d="M-3331.7,1795.833c0,3.257-1.948,5.9-4.351,5.9s-4.351-2.641-4.351-5.9,1.948-5.9,4.351-5.9,4.351,2.64,4.351,5.9Zm0,0" fill="#ffc23b"/>
    <path id="Trazado_12707" data-name="Trazado 12707" d="M-3331.317,1791.675a3.118,3.118,0,0,0-1.934-2.32,6.345,6.345,0,0,0-5.608,0,3.329,3.329,0,0,0-1.934,2.32s-1.354.967.483,5.028a1.858,1.858,0,0,1,.871-2.031s-.58-1.933,1.064-1.933a4.572,4.572,0,0,0,2.32.58,4.577,4.577,0,0,0,2.321-.58c1.74,0,1.063,1.933,1.063,1.933,1.354.967.87,2.031.87,2.031,1.838-4.061.484-5.028.484-5.028Zm0,0" fill="#193540"/>
    <rect id="Rectángulo_5254" data-name="Rectángulo 5254" width="1.934" height="1.934" transform="translate(-3362.838 1791.385)" fill="#193540"/>
    <rect id="Rectángulo_5255" data-name="Rectángulo 5255" width="1.934" height="1.934" transform="translate(-3358.004 1791.385)" fill="#193540"/>
    <rect id="Rectángulo_5256" data-name="Rectángulo 5256" width="1.934" height="1.934" transform="translate(-3353.266 1791.385)" fill="#193540"/>
    <rect id="Rectángulo_5257" data-name="Rectángulo 5257" width="11.506" height="1.934" transform="translate(-3362.838 1796.509)" fill="#193540"/>
    <rect id="Rectángulo_5258" data-name="Rectángulo 5258" width="11.506" height="1.934" transform="translate(-3362.838 1801.731)" fill="#193540"/>
    <rect id="Rectángulo_5259" data-name="Rectángulo 5259" width="11.506" height="1.934" transform="translate(-3362.838 1806.856)" fill="#193540"/>
    <path id="Trazado_12708" data-name="Trazado 12708" d="M-3361.872,1761.314V1782.1h3.965v5.995l12.28-5.995h14.794v-20.789Zm0,0" fill="#907789"/>
    <path id="Trazado_12709" data-name="Trazado 12709" d="M-3357.907,1789.065a.735.735,0,0,1-.483-.194.983.983,0,0,1-.484-.773v-5.028h-3.094a.914.914,0,0,1-.967-.967v-20.789a.914.914,0,0,1,.967-.967h31.037a.914.914,0,0,1,.968.967V1782.1a.914.914,0,0,1-.968.967h-14.5l-12.087,5.9c-.1.1-.193.1-.386.1Zm-3-7.929h3.095a.914.914,0,0,1,.967.967v4.448l10.829-5.319a.584.584,0,0,1,.387-.1h13.73v-18.855h-29.008Zm0,0" fill="#193540"/>
    <path id="Trazado_12710" data-name="Trazado 12710" d="M-3354.039,1778.235H-3358v-13.053h23.3v13.053h-11.8l-7.541,3.674Zm0,0" fill="#fff"/>
    <path id="Trazado_12711" data-name="Trazado 12711" d="M-3350.655,1771.757a1.741,1.741,0,0,1-1.741,1.74,1.74,1.74,0,0,1-1.74-1.74,1.74,1.74,0,0,1,1.74-1.741,1.741,1.741,0,0,1,1.741,1.741Zm0,0" fill="#e1e6e7"/>
    <path id="Trazado_12712" data-name="Trazado 12712" d="M-3344.66,1771.757a1.741,1.741,0,0,1-1.741,1.74,1.741,1.741,0,0,1-1.741-1.74,1.741,1.741,0,0,1,1.741-1.741,1.741,1.741,0,0,1,1.741,1.741Zm0,0" fill="#e1e6e7"/>
    <path id="Trazado_12713" data-name="Trazado 12713" d="M-3338.665,1771.757a1.741,1.741,0,0,1-1.741,1.74,1.74,1.74,0,0,1-1.741-1.74,1.74,1.74,0,0,1,1.741-1.741,1.741,1.741,0,0,1,1.741,1.741Zm0,0" fill="#e1e6e7"/>
  </g>
</svg>
