<svg xmlns="http://www.w3.org/2000/svg" width="113.616" height="113.616" viewBox="0 0 113.616 113.616">
  <g id="Grupo_109142" data-name="Grupo 109142" transform="translate(-675 10222.279)">
    <circle id="Elipse_5024" data-name="Elipse 5024" cx="56.808" cy="56.808" r="56.808" transform="translate(675 -10222.279)" fill="#f6bf28"/>
    <circle id="Elipse_5025" data-name="Elipse 5025" cx="48.524" cy="48.524" r="48.524" transform="translate(683.285 -10213.995)" fill="#f6f6f6"/>
    <g id="Grupo_90189" data-name="Grupo 90189" transform="translate(-528.371 -10582.998)">
      <circle id="Elipse_5026" data-name="Elipse 5026" cx="31.391" cy="31.391" r="31.391" transform="translate(1228.789 385.832)" fill="#7fbee8"/>
      <g id="Grupo_90183" data-name="Grupo 90183">
        <path id="Trazado_154583" data-name="Trazado 154583" d="M1282.022,425.07c0,.131.131.131.131.262v.262c0,.13,0,.392.131.392a.4.4,0,0,0,.131.261.128.128,0,0,0-.131.131c0,.131-.131.262,0,.393-.131.261-.131.523-.261.784l-.131.131a6.369,6.369,0,0,1-.393.916.785.785,0,0,0-.131.523c0,.262,0,.262-.261.262h-.654v.13q-.2.393-.392,0a.247.247,0,0,0-.393,0c-.131.262-.261.262-.392.131a.457.457,0,0,1-.262-.131h-.131a.454.454,0,0,0-.261-.13.128.128,0,0,1,.131-.131c0-.131-.131-.393-.131-.523-.131-.262-.131-.262-.392-.131h-.131c0-.131.261-.393,0-.523,0,.13-.131.13-.131.261a.18.18,0,0,1,0-.261.246.246,0,0,0,0-.393v-.261c.131-.262.131-.393-.262-.524a1.66,1.66,0,0,1,.131.785c0,.131-.131.262-.261.393s-.262.261-.262.392a.181.181,0,0,1,0-.262.677.677,0,0,1-.262-.523c0-.131-.13-.131-.261-.261a.282.282,0,0,1-.262-.262s-.13-.131-.13,0a.128.128,0,0,1-.131.131l-.131-.131c-.392,0-.654.131-1.046.131-.131,0-.393.131-.524.131.131.261,0,.261,0,.392a.128.128,0,0,0-.13.131c-.131.131-.131.131-.262.131h-.392a1,1,0,0,0-.654.261.493.493,0,0,1-.785-.13l-.131-.131a.632.632,0,0,0,.131-.916c-.393-.131-.393-.261-.393-.523v-.262a1.851,1.851,0,0,1-.261-.784c.261-.131.261-.393.131-.654v-.262a.479.479,0,0,0-.131-.392v-.131a.128.128,0,0,1,.131.131c.261,0,.261-.393.392-.523s.261-.262.261-.131a.481.481,0,0,0,.393-.131h.261l.131-.131c.131,0,.262-.131.393-.131a.482.482,0,0,1,.13-.392c0-.131.131-.131.262-.262-.131,0-.131,0-.262-.131l.262-.261a.479.479,0,0,0,.131.392.4.4,0,0,1,.261.131v-.261h.131v-.262a.128.128,0,0,1-.131-.131c.131-.131.131-.131.262-.131,0-.392.261-.523.523-.654h.131c.131,0,.131-.13.262,0s.13.131.13.393v.131c.262.13.393,0,.524-.262,0-.131.13-.131.261-.261v-.131c0-.131,0-.131.131-.131h.392v-.131c.131-.262.131-.262.262-.131s.261.262.392,0c.131-.131.131,0,.131,0,0,.131-.131.262-.131.392-.131,0-.131.393-.392.262v.131c.131.131.261.261.392.261a.128.128,0,0,1,.131.131c.131.262.262.262.393.131.13.262.261.262.261.654a.128.128,0,0,0,.131.131c.131.131.131.131.261.131h.131c.131,0,.131,0,.262.131.131,0,.131-.262.261-.393,0-.131.131-.261.131-.392s.131-.262.131-.393v-.261a1.18,1.18,0,0,1-.131-.654.457.457,0,0,1,.131-.262.479.479,0,0,0-.131-.392c.131-.131.131,0,.131,0a393.893,393.893,0,0,1,.262.785v.392c0,.131.131.131.261.131v-.262h0c.131.131.131.131.131.393,0,.131.131.392.131.523v.262c0,.261,0,.392.131.523s.261.261.392.261a.792.792,0,0,1,.393.785v.131h.13c0,.131.131.261.262.392C1281.892,424.547,1282.022,424.809,1282.022,425.07Z" fill="#f2f2f2"/>
        <path id="Trazado_154584" data-name="Trazado 154584" d="M1290.917,410.814h-.262c-.131.261-.392.261-.523.523.131,0,.131.131.261.131-.131.131-.131.261-.261.392a.181.181,0,0,0-.262,0,.68.68,0,0,1,.262-.523c-.131-.262-.262-.262-.523-.131h-.131c-.131,0-.131.131-.262.262,0,.131-.131.131-.131.261-.131-.131-.261-.131-.261-.261v-.523h.131v-.131l.13.131a.128.128,0,0,0,.131-.131l.131-.131a.457.457,0,0,1,.262.131v.131q.2.391.392,0l.262-.262a.991.991,0,0,0-.524-.261.128.128,0,0,1-.13-.131.788.788,0,0,1-.131-.524c.131-.13.131-.392.392-.261l-.261-.262v-.392h0a.985.985,0,0,1,.13-.654c.131-.131.131-.262.262-.392a32.631,32.631,0,0,0-6.017-10.856h-.523c-.131,0-.131-.131-.261,0h-.393c-.131.261-.261.13-.523.261,0-.131-.131-.131,0-.261v-.131a1.014,1.014,0,0,0,.131-.393c-.131,0-.131.131-.262.131l-.131-.131c-.13.131-.261.262-.523.131a.128.128,0,0,0-.131.131c0,.131,0,.392.131.392a.481.481,0,0,1,.393.131h0c0-.131-.131-.131-.262-.261a.128.128,0,0,1,.131-.131l.261.261c.131.131.131.131,0,.262v.392a.246.246,0,0,1,0,.393c0,.131.131.261.131.392h.131a.583.583,0,0,1,0,.654v.131c0,.131.131.392.131.523h-.262c-.13,0-.261-.131-.261-.392s0-.523-.262-.654a1.249,1.249,0,0,0,0-1.177h-.261v.131c-.131-.131-.393,0-.654-.262a.128.128,0,0,0,.131-.131c-.131-.131-.262,0-.393.131a.131.131,0,0,1,0,.262c.131,0,.131,0,.262.13-.131.131-.262.262-.393.262h0a.481.481,0,0,0,.393-.131c0,.131,0,.131.131.262.13.261.13.261.261.131.131,0,.131,0,.262-.131v.131a.128.128,0,0,0-.131.13c.131,0,.131,0,.131.131a.128.128,0,0,1-.131.131h-.262a.457.457,0,0,0-.131.262c.262-.131.131-.131,0,0,.131.261.262.13.524.261-.131.131-.393.262-.524,0-.13-.131-.261-.131-.261,0h-.131c-.261,0-.523-.131-.654.262-.131-.131-.261-.131-.392-.262h-.262c.131,0,.131-.131.262-.131l-.131-.13a1.186,1.186,0,0,0-.654.13c-.131-.392-.262,0-.392,0v-.13h-.262v-.131c-.131-.131-.131-.131-.262-.131v.261a.785.785,0,0,0-.523.131h-.131c-.131,0-.261,0-.261.131h.523c.131,0,.131,0,.131.131h-.785c-.131,0-.131,0-.131.131l.131.13a1.305,1.305,0,0,1,.654.524c0,.131.131,0,.131,0-.131-.131-.262-.131-.262-.393h.131a.48.48,0,0,0,.392.131h.131c.131.131.262.131.523,0a.457.457,0,0,0,.131-.261h.262a.128.128,0,0,0-.131.13q.2.393.392,0l-.13-.13a.991.991,0,0,0,.523.13c.131-.261.131-.261.392,0,0,.131-.131,0-.261.131.13,0,.261.131.392.131h.392c.131,0,.131-.131.262-.131s.262.131.523.131h0a5.689,5.689,0,0,0-.654.131c.262.131.393.131.523.392.131.131.262.131.393.262l.392.392c-.131-.131-.261-.131-.392-.261s-.262-.131-.393-.262-.392-.131-.523-.261-.261-.131-.392-.262c-.131,0-.131,0-.262.131-.261-.262-.261-.262-.392-.131l.131.131c-.131.131-.262,0-.393.261h0v-.261a.128.128,0,0,0,.131-.131h-.392c-.131,0-.262,0-.262.131h.131c-.131.131-.131,0-.261,0,0-.131-.131-.131-.131-.262-.262-.131-.262,0-.262.393h.262c0,.261-.131.131-.262.131-.261,0-.392.13-.392.523a3.841,3.841,0,0,1,1.177.261c-.262.131-.392-.131-.523.131a.481.481,0,0,0-.393-.131c-.13,0-.261-.131-.523,0l-.392.393h0c.131-.262,0-.262-.131-.393h.261a.128.128,0,0,0-.13-.131l.261-.261c-.131-.131-.131-.392-.261-.392s-.131,0-.262-.131c0-.131-.131-.131-.261-.131h.392a.479.479,0,0,1,.392.131c.131.131.131.131.393,0-.131-.131-.393-.262-.393-.524a.128.128,0,0,0-.131-.13c-.13,0-.392-.262-.523-.131h0c0-.262-.131-.262-.261-.131l-.393.392c-.131.131-.131,0-.131,0,0-.13,0-.261.131-.261l-.131-.132a.128.128,0,0,1,.131-.13c0-.131-.131-.131-.131-.262h0a.457.457,0,0,1,.262.131v.131h.13c.131.131.262,0,.393.131a.128.128,0,0,0,.131-.131h-.131c.131,0,.131,0,.261-.131l.131-.131c0-.131,0-.131-.131-.131h-.261c.131-.131.131-.131.261-.131l-.261-.261h.131c.131.131.131.131.261,0,0-.131.131-.131.262-.131.261,0,.392-.131.654-.261l-.131-.131c.131,0,.262.131.392,0a.457.457,0,0,1-.261-.131,5.068,5.068,0,0,0-1.046-.392.865.865,0,0,0-.785-.131h0v-.262c-.262,0-.523-.131-.785-.131-.131.262.131.262.131.393-.131.131-.393.131-.523.261-.262-.392-.393-.392-.654,0h-.131l-.131-.131c-.131-.13-.131-.13-.262,0a.453.453,0,0,1-.261.131c-.131,0-.262.131-.262.393a.28.28,0,0,1-.261.261l-.131.131a.128.128,0,0,0-.131.131c.131-.392.131-.523-.261-.523-.131,0-.262-.131-.393-.131h.262a.479.479,0,0,0,.392-.131V397.6c-.131,0-.131.131-.261,0a.128.128,0,0,0-.131.131l-.131.131c-.131,0-.131,0-.262.131h-.261a.478.478,0,0,0,.131.392h-.262v.262c-.131,0-.262,0-.262-.131a.128.128,0,0,0-.131.131.4.4,0,0,0,.131.261c-.131,0-.261-.13-.261,0-.393,0-.523,0-.654.131a.406.406,0,0,1-.262.131v.131c-.131.261,0,.261.131.261s.261.131.392.262h-.392c0-.262-.131-.262-.262-.262s-.261,0-.261-.13a.406.406,0,0,0-.262-.131.457.457,0,0,0-.131.261c-.13-.261-.392-.261-.654-.261-.13,0-.392-.131-.523-.131h-.131a.458.458,0,0,0-.13-.262v-.261a.523.523,0,0,1-.524-.262h.524c.261.131.523.131.784.262s.524,0,.785,0c.131,0,.262-.131.393-.262-.131-.13-.131-.261-.262-.261s-.262-.131-.392-.131a1.862,1.862,0,0,0-.785-.262.839.839,0,0,0-.785,0,.682.682,0,0,0-.523-.261h-.523c.13,0,.13-.131.261-.131h0c-.261,0-.392-.262-.654,0v-.131c-.261-.261-.261.131-.392.131v-.262c-.131.131-.262.262-.393.262h0l.262-.262c-.262,0-.654.131-.916.131h.131c-.131,0-.261.131-.523.131-.261-.523-.261-.131-.392-.131-.131-.131-.131-.131-.262-.131a.48.48,0,0,1-.392.131l-.131.131.131.131c-.131.261-.262,0-.393,0v.131c0,.261.131,0,.262.13a.457.457,0,0,0-.262.131l-.261.262-.262.261c-.13.131-.261.393-.392.524s-.262.13-.392.261c-.131.262-.393.262-.654.392s-.393.262-.654.262a.128.128,0,0,0-.131.131c-.131.392.131.654.131.915.13.131,0,.131,0,.262a.574.574,0,0,0,.654.131,2.306,2.306,0,0,0,.653-.523.453.453,0,0,1,.131.261l.393.785v.131c0,.261.13.261.392.261v-.13a.785.785,0,0,0,.523-.131,1.18,1.18,0,0,0,.131-.654h-.131a.406.406,0,0,0,.262-.131c-.131-.131-.262-.131-.523-.131.261-.131.392-.131.654-.261h-.131v-.262a.478.478,0,0,1,.131-.392,1.3,1.3,0,0,1,.653-.524.458.458,0,0,0,.262-.13l.131-.131c0-.262.131-.393.131-.524h.523a.785.785,0,0,1,.523.131c.131.131.131.131.131.393h-.262a2.3,2.3,0,0,0-.523.654.482.482,0,0,0-.392.13c0,.131.131.131.131.262a.481.481,0,0,0,.13.392.49.49,0,0,0,.785,0c.131,0,.262-.13.393-.13a1.885,1.885,0,0,0,.915-.262c.131-.131.262-.131.262,0,.261.131.392.262.654.262a.48.48,0,0,1-.131.392l-.131.131c-.131.131-.131.131-.131.392l-.131.131c0,.131-.13.262-.13.131-.131-.131-.131-.131-.262-.131h-.131l.393-.392c-.131-.262-.262-.262-.524-.262-.13,0-.13.131,0,.262-.13,0-.261,0-.261.131s0,.392.261.261l-.261.262c0-.262-.131-.262-.262-.393a.246.246,0,0,0-.392,0c0-.13,0-.13-.131-.13-.261.261-.261.261-.261.654v.261c0,.131-.131.131-.131.262a.128.128,0,0,0-.131.13c.131-.261.131-.261,0-.392a.128.128,0,0,0-.131-.131c0-.131-.131-.131-.131-.261-.131.131-.131.131-.131.261l-.13-.131v.393c.13.131.13.131.261.131s.131,0,.262.261a1.18,1.18,0,0,1-.654.131l-.131-.131c-.131.131-.262.262-.392.262v-.262c0-.131-.131-.131-.262-.131l-.785.393v.131h-.261v.13h.13a.281.281,0,0,1-.261.262h-.654c0-.131-.131-.131-.131-.262s-.261-.13-.261-.13a.128.128,0,0,1-.131.13c.131,0,.131.131.261.131h-.653v.131c-.131,0-.131,0-.262-.131v.393h-.262c-.13,0-.13.13-.261.13s-.262,0-.262.131a.245.245,0,0,1-.392,0,.457.457,0,0,0-.262-.131v.131c-.13.131-.392,0-.523.393h-.131c-.131,0-.131,0-.261.13,0,.262-.131.131-.262.131a.593.593,0,0,0-.654,0c.131.131.131.131.262.131s.392.262.523,0c0,.131.131.131.131.262v.261c.131,0,.131.131.261.131.131.131,0,.392.131.523,0,.131-.131.131-.131.262-.131.131-.131.131,0,.261a.785.785,0,0,1-.523.131,3.614,3.614,0,0,1-1.177-.131c-.262-.13-.392.131-.654.131,0,.131.131.131.131.262v.392c0,.262,0,.393-.131.523,0,.131-.131.262-.131.393h0a.457.457,0,0,0,.131-.262v.785h.654c.131,0,.131,0,.262-.131a.481.481,0,0,1-.131.393l.131.13a1,1,0,0,1,.653-.261h.393c.131-.262.392-.393.523-.654l-.131-.131a1.8,1.8,0,0,1,.393-.523.128.128,0,0,0,.13-.131c.131-.131.393-.131.524-.262v-.523a.4.4,0,0,1,.261-.131h.262c.261.262.392.262.654,0h.131c.13,0,.13-.131.261-.131.131-.13.262-.13.262,0,.13.131.261,0,.261.262a.128.128,0,0,0,.131.131,2.308,2.308,0,0,0,.654.523c.131,0,.261.131.392.262l.131.13c.262,0,.262.262.262.393s-.131.261-.131.392c.261-.131.261-.392.392-.523l-.131-.131c0-.392.262-.261.393-.261-.131-.262-.393-.262-.654-.393l.131-.131a.6.6,0,0,1-.654-.392c0-.131-.131-.131-.262-.262s-.392-.13-.523-.261c-.131,0-.262-.131-.392-.131a.128.128,0,0,1,.13-.131.481.481,0,0,0,.393-.131c.131,0,.131-.13.261-.13s.262,0,.131.261a.131.131,0,0,0,.262,0,1.3,1.3,0,0,0,.523.654.406.406,0,0,1,.262.131c.261.131.392.261.654.392v.523a1.825,1.825,0,0,1,.392.524h0c0,.131.131.131.131.261-.131.131.131.262,0,.393a.482.482,0,0,1,.392.13c0-.13,0-.13-.131-.261h.131v-.131a.481.481,0,0,0,.393-.131c-.131-.13-.131-.261-.262-.261l-.131-.131a.683.683,0,0,0-.261-.523h.13c.131.131.393.131.393,0,.131-.262.392.131.523-.131h0c.131.262.131.131.262,0a.4.4,0,0,1,.523,0c-.131.131-.131.131-.262.131h-.523a.479.479,0,0,1-.131.392c.131.131,0-.261.131-.131a.481.481,0,0,0,.131.393h-.131v.131c.262,0,.262.261.392.392s.393,0,.524.262h.131c.13,0,.13-.262.261-.262.131.131.262.131.392.262s.131.13.262.13a.454.454,0,0,0,.261-.13.481.481,0,0,1,.393-.131v-.131c.131.131,0,.262,0,.392a1.937,1.937,0,0,1-.131.916c0,.131,0,.131-.131.262,0,.392-.261.523-.392.523s-.131.131-.262.131c.131.392.131.784.523,1.046,0-.131.131-.262.131-.392h0v.261c0,.131.131.131.131.262.131.261.262.392.392.654,0,.13.131.261.131.392s0,.131.131.262a.789.789,0,0,1,.393.784.676.676,0,0,0,.261.523c.262.131.262.393.392.654a.457.457,0,0,0,.131.262.68.68,0,0,1,.262.523c0,.393.131.654.131,1.047a.282.282,0,0,0,.261.261l.785-.392h0c.131-.131.392-.131.523-.393h.131c.262-.131.392-.131.654-.261v-.262a.989.989,0,0,1,.523-.261c.131,0,.262,0,.393-.262a.128.128,0,0,0,.13-.131h.131c0-.392.262-.261.262-.392v-.392c-.131,0-.131-.131,0-.131l.131-.131c.261,0,.261-.131.392-.393v-.13c0-.131-.131-.131-.131-.262s-.131-.131-.261-.131c-.393,0-.524-.261-.524-.785v-.13a2.843,2.843,0,0,1-.392.654c0,.13-.131.13-.262.13a4.161,4.161,0,0,0-.653.393c-.131,0-.131-.262-.131-.393l-.131-.13c-.131-.131-.131-.262-.262-.392,0-.131-.131-.131-.131-.262a.128.128,0,0,0-.131-.131.681.681,0,0,1-.261-.523.478.478,0,0,0-.131-.392c0-.393-.261-.393-.392-.393a1.021,1.021,0,0,1-.524-.523v-.131c0-.131,0-.131-.13-.131l-.131-.131a.128.128,0,0,1,.131-.13h-.131c.131-.131.131-.262.261-.393.131.131.262.131.393.262.261.261.523.392.784.654.131-.131.262-.131.262,0a1.67,1.67,0,0,0,.523.784c.131.131.131.131.131.262a.457.457,0,0,0,.131.262c.131.13.261.13.392.261.262.131.393.262.654,0a.481.481,0,0,1,.393-.131v.262c0,.131,0,.261.261.261a.784.784,0,0,1,.523.131h.524c.13,0,.13.131.261.131.131-.131.393,0,.523,0,.262,0,.393,0,.524-.262a.484.484,0,0,0,.13.393.246.246,0,0,0,.393,0c0-.131,0-.262-.262-.523v-.654h.262a.128.128,0,0,1,.131.131c0,.261.13.261.13.392a.864.864,0,0,1,.131.785c.262.131.393-.131.524-.262v.131a.985.985,0,0,0,.13.654c.131.131.262.261.262.392l-.131.131a.986.986,0,0,1-.131.523v.523a2.879,2.879,0,0,0,.131,1.047c.131.261.131.392.262.654a.454.454,0,0,0,.13.261c0,.262,0,.393.131.523a.457.457,0,0,1,.131.262c.131.262.131.523.262.785a.453.453,0,0,0,.131.261c.13-.13.13-.261.261-.392s.262-.262.131-.523h0c.131-.262.131-.523.261-.785v-.13c-.13-.262,0-.654,0-.916v-.261h.131c.131-.131.393-.131.523-.262s.262-.392.393-.392a.128.128,0,0,1,.131-.131v-.131c.131-.131.261-.262.261-.392s.262-.262.262-.393a1.411,1.411,0,0,0,.261-1.046v-.131h-.523a1,1,0,0,1-.523-.261.128.128,0,0,1,.131-.131c.13,0,.261-.131.392-.131.262,0,.392.131.654.131h.131c.261-.131.523,0,.654-.131h.261l.131.131h-.261a.406.406,0,0,1-.262.131c-.131,0-.131.13-.131.261.262.131.523,0,.785.262h0a.128.128,0,0,0-.131.13c-.261.131-.261.262-.131.393a.784.784,0,0,1,.131.523c0,.131,0,.392.262.262l.13.13V415c.131.131.131.393.262.654v.262h0c0-.131.131-.262.131-.523.261,0,.131.261.261.392.262-.131,0-.392.131-.523,0,.131.131.261.131.392a.128.128,0,0,0,.131.131c.131-.131.131,0,.261.131v.392c-.13.131,0,.393,0,.523s.131.262.131.393a1.934,1.934,0,0,1,.131.915c0,.262-.131.524-.131.785.131.131.393.262.393.523,0,.131,0,.131.131.131.13.131.13.131.13.262v.392c.131.131.131.393.262.523a.282.282,0,0,0,.261.262c.131-.262.131-.523.262-.785a.128.128,0,0,0-.131-.131.281.281,0,0,0-.261-.261h0c0-.262-.262-.262-.393-.393s-.131-.261-.261-.392v-.392h0c0,.13-.131.13-.131.261,0-.392-.131-.654,0-.915a1.394,1.394,0,0,0,.131-1.047v-.131c.131-.261,0-.523,0-.654v-.392a.128.128,0,0,1,.131-.131.805.805,0,0,1,.13.785v.131c.131.131.131.392.393.392l.131.131c-.131.131-.262.131-.262.392.262-.13.392,0,.523.262a.457.457,0,0,0,.131.262c.131,0,.131.13.131.261l.131-.131c.131-.131,0-.261,0-.392a.128.128,0,0,0-.131-.131c-.131,0-.262-.262-.392-.392l.261-.262c0,.262.131.392.262.392s.261.131.13.393c.131,0,.131-.131.131-.262.131.131,0,.262,0,.393a1.8,1.8,0,0,1,.393.523c.131-.131.261-.131.392-.262l.131-.13a4.44,4.44,0,0,0-.131-1.308.457.457,0,0,0-.131-.262.72.72,0,0,1-.392-.654.282.282,0,0,1-.262-.261c.131-.131.131-.131,0-.262v-.131c.131-.131,0-.131,0-.261l-.131-.131c.131,0,.262-.131.393.131,0,.13.131.13.261,0l.393-.393c.131,0,.131.131.261.131s.131.131.262,0,.131,0,.261.131c.131-.262.262-.131.393-.131v-.131a.128.128,0,0,0,.131-.131c0-.13-.131-.261,0-.392a.457.457,0,0,1,.261.131v.392c.131-.261.393-.261.654-.392l-.131-.131c.131-.131.393-.131.393-.262.131-.261.261-.261.392-.523a.128.128,0,0,1,.131-.131c0-.13,0-.13.131-.261C1291.178,411.86,1291.047,411.337,1290.917,410.814Z" fill="#f2f2f2"/>
        <path id="Trazado_154585" data-name="Trazado 154585" d="M1239.907,440.635h0c0-.131-.131-.131-.262-.131l-.131.131-.131.131c.131.131.393.261.524.523a1.176,1.176,0,0,1,.654-.131h.13A2.749,2.749,0,0,0,1239.907,440.635Z" fill="#f2f2f2"/>
        <path id="Trazado_154586" data-name="Trazado 154586" d="M1248.539,423.632V423.5c-.131,0-.131,0,0,.131l-.261-.131a.824.824,0,0,0-1.047-.523v.131c0-.131,0-.131-.131-.262h-.392c-.131.131,0,.262-.131.262s-.131.261-.131.261c-.131.131-.261-.131-.392-.261,0-.131.131-.262,0-.524-.131-.131-.131-.261-.262-.392a.919.919,0,0,1-.523.654.128.128,0,0,0-.131.131c-.131-.262-.523-.262-.523-.262l-.261-.261a2.192,2.192,0,0,0-.654.261c-.131,0-.131-.131-.262-.261,0,.13-.131.13-.131.261a.919.919,0,0,1-.523.654c-.262.131-.392.392-.523.523-.262.131-.393-.261-.654-.261-.131.261-.393.131-.523.392v-.261c.13-.262.392-.131.392-.393a.453.453,0,0,0-.131-.261v-.131c-.131-.131-.261-.131-.392-.262s-.131-.131-.262,0v-.131c-.131,0-.261.131-.392.131-.131-.261.262-.131.262-.392.523.392.523.392.653.131a.128.128,0,0,1-.13-.131c0-.262-.131-.262-.262-.393l.131-.13c0-.262.131-.262.261-.262a.681.681,0,0,0,.524-.262l.131-.13a.983.983,0,0,1,.13.654c0,.261-.13.523-.13.784.13,0,.13.131.13.262l.131.131a.783.783,0,0,0,.523-.131v-.131c.262.131.393,0,.654-.261a.128.128,0,0,1-.13-.131h.261c0,.131.131.131.131.261.131,0,.131-.131.261-.131.131.131.262,0,.393,0s.131,0,.131-.13c.131.13.261-.131.261-.262s.131-.261.131-.392.131-.393.131-.524a4.688,4.688,0,0,0-.523-1.177,2.065,2.065,0,0,0-.524-.131c-.13,0-.261,0-.261.131-.131-.131-.392,0-.523,0s-.262-.131-.393-.261c0-.131-.131-.262-.131-.393l-.13-.13a.282.282,0,0,1-.262-.262c-.131,0-.261,0-.261-.131-.131-.131-.131-.131-.262-.131-.262,0-.392-.261-.262-.523v-.13h.131c-.261,0-.392,0-.523.13s-.392,0-.392,0c-.131-.13-.131-.13-.262-.13h-.392v-.262c-.131.131-.131-.131-.262-.131-.131.131-.392.131-.523.393,0,.13.131.261.131.392l-.393.392a.454.454,0,0,0-.13-.261.676.676,0,0,1,.261-.523c0-.131-.131-.131-.131-.262h-.523a.645.645,0,0,0-.131.392h-.131a.962.962,0,0,1-.261.785v-.392l-.262.261c.131.262,0,.393,0,.654,0-.131-.131-.261,0-.523v-.262c0-.13-.131-.13-.131-.261-.13-.131-.392-.262-.523,0a1.008,1.008,0,0,1-.392.131c-.131,0-.262,0-.262-.131l-.523-.523c0-.131.131-.262,0-.524v-.13c.131-.131,0-.131,0-.262-.131-.131,0-.261.131-.392s.131-.131,0-.262-.262-.131-.262-.392h-.523c-.261,0-.392.131-.654,0,.131-.131.131-.262.262-.392a.481.481,0,0,1-.131-.393V415c0-.261,0-.392-.131-.523-.392,0-.392.131-.392.262s-.131.261-.131.392a.128.128,0,0,1-.131.131.128.128,0,0,0,.131.131c-.131.131-.131.131-.392.131h-.916c.131-.131.131-.131.131-.262a.128.128,0,0,1-.131-.131v.262h-.262v-.654c0-.131-.261-.262-.261-.524s-.262-.13-.392-.261v-.262c.261,0,.261,0,.261-.261v-.393c0-.261-.131-.392-.131-.654a1.244,1.244,0,0,1,.262-.915,2.031,2.031,0,0,1,1.046-.785h.262c0-.261-.262-.261-.262-.523.262.131.262.131.393,0,0-.131-.131-.262-.131-.393h.261v-.392c0-.131.131-.261.131-.392v.131c.262.261.131.392.262.523,0,.261,0,.392-.131.523a1,1,0,0,0-.262.654h.523c.131,0,.262,0,.262-.131a.128.128,0,0,1,.131.131v-.262h0c0,.131.131.262.131.393.131-.131.261.131.392,0a.522.522,0,0,1,.523-.262h0c0,.131-.131.131-.131.262h0c.131-.131.393-.131.524-.262a2.891,2.891,0,0,0,.392-.654h.131l.262-.262.392-.392c.131-.131.392-.261.392-.523,0-.131.131-.393.131-.523a.481.481,0,0,1,.131-.393l.262-.261c.13-.131.261-.262.392-.262l.261-.261c.131,0,.262-.131.393-.131a.281.281,0,0,0,.261-.262c0-.261.262-.654.524-.654.261-.131.392-.131.654-.261a.128.128,0,0,0,.13-.131.787.787,0,0,0,.524-.131.246.246,0,0,0,0-.392l-.131-.131h0c0-.131.131-.131.131-.262-.131,0-.131,0-.262-.261.262,0,.262,0,.392-.131a.281.281,0,0,0-.261-.262,1.419,1.419,0,0,0-1.177.524l-.262.261c.131-.131.262-.392.393-.523s.261-.262.392-.262a.128.128,0,0,0,.131-.13c.131-.131.261-.262.392-.262h1.439a.48.48,0,0,0,.392-.131.992.992,0,0,1,.523-.261c.131,0,.262-.131.393-.262,0-.131-.131-.131,0-.261,0-.262,0-.262-.131-.262s-.262-.262-.392-.262a.127.127,0,0,0,.13-.13v-.131c-.13,0-.392-.131-.523-.131a.128.128,0,0,1-.131-.131l-.261-.262c-.131,0-.131-.13-.131-.261v-.131c0-.131-.131-.262-.262-.392,0-.131-.131-.131-.131-.262-.13-.261-.392-.392-.523-.654-.131.131-.131.262-.261.393a.7.7,0,0,1-.524.392.128.128,0,0,1-.13-.131c-.131-.131-.131-.131-.262-.131l-.131-.131V399.7h0c-.261,0-.392-.131-.654-.261a.575.575,0,0,0-.654-.131h-.13a1.177,1.177,0,0,1-.654-.131c-.131,0-.131,0-.262.131l.262.261-.262.262c.262,0,.262.131.393.261,0,.131-.131.131-.131.262s-.131.262-.131.392.131.131.131.262a.493.493,0,0,1-.131.785.406.406,0,0,1-.262.131c-.131.13-.131.13-.131.261v.392c.131.131,0,.393,0,.524s-.261.261-.392.261h-.523V403.1h-.131c-.131,0-.262-.131-.392-.262v-.523a.479.479,0,0,0-.131-.392c-.131,0-.262-.131-.393-.131s-.13,0-.261-.131-.131-.131-.262-.131-.261,0-.392-.261l-.131-.131c-.392-.131-.654-.262-1.046,0-.131,0-.131-.262-.131-.392h0a30.168,30.168,0,0,0-3.924,11.379c0,.131.131.131.131.261a2.739,2.739,0,0,0,.523.785.48.48,0,0,1,.131.392.99.99,0,0,1-.131.524c0,.131,0,.131.131.261l.523.523c.131.131.393.131.523.262h.131l.785.392c.131,0,.131.131.262.131a.48.48,0,0,0,.392-.131c-.131.393,0,.393.131.393l.523.523c.131.131.131.262.262.262l.784.392h.262c.131.131.131.131.131.261l-.131.131a1.808,1.808,0,0,1,.392.524.989.989,0,0,0,.131.523.131.131,0,1,0,.262,0c0,.261.392.261.392.523a.481.481,0,0,1,.393.131c.13.131.261.131.261.392a2.056,2.056,0,0,0,.131-.523v-.131c-.131,0-.131-.131-.262-.131.262-.131.393-.131.523-.261l.262.261c-.131.131,0,.262,0,.393.131.13.131.261.131.523v.392a.977.977,0,0,1-.131.654c0,.131-.131.131-.131.262-.131.13-.131.261-.261.392-.131,0-.262,0-.262.131h0c0,.131,0,.261-.131.261-.131.393-.261.524,0,.785,0,0,.131,0,.131-.261,0-.131,0-.262.131-.262.261.262,0,.523-.131.785-.262.131-.392.261-.262.654h.131a1.192,1.192,0,0,1,.393.654c0,.131.131.261.131.392.13.131.13.392.261.523a1.863,1.863,0,0,1,.262.785c.13.262.392.523.261.916a.128.128,0,0,0,.131.131l.392.392c.131.131.393.261.524.392.261.131.392.393.654.654v1.439c0,.131-.131.261-.131.392a3.609,3.609,0,0,1-.131,1.177c0,.262-.262.654-.131.916v.131c-.131.131-.131.261,0,.523,0,.262.131.393,0,.654a.478.478,0,0,1-.131.392c-.131.393-.131.785-.392,1.047v.131a.48.48,0,0,0,.131.392v.392c0,.131-.131.262-.131.393,0,.261,0,.392.261.392a4.64,4.64,0,0,1-.261,1.308c0-.131,0-.392-.131-.392-.131.131-.131.131-.131.261s0,.131-.131.262c0-.262-.131-.131-.131,0a.99.99,0,0,0,.524-.131c-.131.131-.131.392-.262.392a.722.722,0,0,0-.261.654v.393l.915.915a1.9,1.9,0,0,1,.916-.261c-.131-.131-.131-.131-.262-.131a.128.128,0,0,0,.131-.131c0-.131-.131-.261,0-.392.131,0,.131-.262.262-.131v-.262l.392-.392a.457.457,0,0,0,.131-.261.128.128,0,0,0-.131-.131.282.282,0,0,1-.262-.262q.2-.392.393-.392c.131,0,.261-.131.261-.393,0-.13,0-.392.131-.392h0c-.131-.131,0-.131,0-.131-.131-.131-.131-.261-.131-.523.131,0,.262.131.393.131v-.393a.128.128,0,0,0,.131-.13V435.4a1.8,1.8,0,0,0,1.438-.131c0-.13-.131-.13-.131-.261a1.012,1.012,0,0,0-.523-.523l-.131-.131a.407.407,0,0,0-.13-.262.128.128,0,0,1,.13-.131c0-.261,0-.392-.13-.523a.128.128,0,0,0-.131-.131c-.131-.13-.131-.261,0-.523,0-.131.131-.261,0-.392-.131-.262,0-.393,0-.523s0-.131.131-.262a.282.282,0,0,0,.261-.262,2.306,2.306,0,0,1,.523-.653c.131.261.131.392-.13.653-.131.131-.131.262-.262.393h0c.131,0,.131-.131.262-.131s.13-.131.261,0h-.131c-.261.131-.392.262-.392.523a.457.457,0,0,1-.131.262.282.282,0,0,0-.262.261l.131.131s.131.131.131,0c.131,0,0-.131,0-.261s0-.262.131-.262a.406.406,0,0,0,.262-.131c0-.131,0-.131.261-.261v.654c0,.13.131.13,0,.261,0,.131.131.131.131.262a.128.128,0,0,0-.131.131v.261l.131.131h.392c.131.131.262.131.524,0v-.131a.128.128,0,0,1-.131-.131c0-.131,0-.131.131-.261l.392-.393c.131-.131.261-.392.392-.523V432l-.131-.131c-.13,0-.13,0-.261.131.261-.261.523-.131.785-.131a.458.458,0,0,1,.13-.261c0-.131.131-.131.262-.262a.453.453,0,0,0,.131-.261v-.393a.786.786,0,0,1,.131-.523c.131,0,.131-.261.131-.392,0,0,.13.131.13,0a.993.993,0,0,1,.524-.262c.13-.261.392-.261.523-.392s.131.131.261.131c.131-.131.262-.393.393-.524a.128.128,0,0,1,.131-.13.484.484,0,0,0,.13-.393.785.785,0,0,1,.131-.523,1.851,1.851,0,0,0,.131-1.439c0-.261,0-.392.131-.523.131,0,.131-.131.261-.261a.68.68,0,0,1,.262-.524,2.8,2.8,0,0,0,.392-.654,1.851,1.851,0,0,0-.13-1.177A3.865,3.865,0,0,1,1248.539,423.632Z" fill="#f2f2f2"/>
        <path id="Trazado_154587" data-name="Trazado 154587" d="M1239.122,440.5v-.131h-.131Z" fill="#f2f2f2"/>
        <path id="Trazado_154588" data-name="Trazado 154588" d="M1239.383,440.635Z" fill="#f2f2f2"/>
        <path id="Trazado_154589" data-name="Trazado 154589" d="M1235.721,398.388a.483.483,0,0,1,.392-.13l.131-.131-.131-.131c0-.262,0-.262-.13-.392v-.262a.128.128,0,0,0-.131-.131,2.861,2.861,0,0,1-.654,1.047A.789.789,0,0,0,1235.721,398.388Z" fill="#f2f2f2"/>
        <path id="Trazado_154590" data-name="Trazado 154590" d="M1243.7,393.811h.261c.393,0,.785-.131,1.308-.131h.393c.13,0,.13,0,.13.261h.131v-.131c.131,0,.262.131.393.131h.392c-.131,0-.131,0-.262-.131a2.225,2.225,0,0,1,.916.131,8.329,8.329,0,0,0,.916.262c-.262-.523-.524-.393-.785-.523a.959.959,0,0,1,.785-.262h1.438a.481.481,0,0,1,.393-.131h2.877c.131,0,.393.131.523.131.262,0,.654.131.916.131a.985.985,0,0,1,.523.131,6.4,6.4,0,0,0-1.438.131h.13c.131,0,.262,0,.262.13h.392a.4.4,0,0,1,.524,0c0,.262-.262.131-.393.393a.481.481,0,0,0,.393-.131,1.653,1.653,0,0,1,.784-.131c.393,0,.785-.131,1.047-.131h.654v.131h-.131a3.419,3.419,0,0,0-1.047.393,1.149,1.149,0,0,1-.915.13v-.13c-.393.261-.916.13-1.308.261v-.261h-.131a.483.483,0,0,1-.392.13h-.262v.262h.392c-.392.131-.392.131-.523.261.393,0,.654.131.916-.13.131-.131.261-.131.523-.131h.392a.482.482,0,0,0-.13.392h-.524c.131.262.131.131-.13.654h.13c.131-.131.262-.261.523-.131h.262c.261,0,.261,0,.261.393h-.261c.131,0,.261.261.392.131h0c-.131,0-.261.131-.523.131.131,0,.131,0,.131.13-.131.131-.131.131-.262.131h-.13c-.131.262-.262,0-.393,0,0,.131.131.131.262.131v.262a.782.782,0,0,1-.785-.393c0,.262,0,.262.131.262s.131,0,.261.131a.128.128,0,0,1,.131.13c.131.131.131.131.262.131v.262h-.393c-.131,0-.261,0-.261-.131-.131-.262-.262-.131-.393-.131v.262c-.13,0-.13,0-.261.131h0a2.894,2.894,0,0,1,1.046.13,5.756,5.756,0,0,1-1.962.654h-.523c-.131,0-.262.131-.392.262a.7.7,0,0,1-.524.392.457.457,0,0,0-.261.131c-.131,0-.393.131-.523.131a.481.481,0,0,0-.393.131h-.131l.131.131c0,.13-.131.261-.131.392l-.392.392a1.853,1.853,0,0,1-.262.785.453.453,0,0,1-.261.131c-.131,0-.262,0-.392-.262a.483.483,0,0,0-.393-.13.784.784,0,0,1-.785-.393,1.8,1.8,0,0,0-.392-.523c-.131-.131-.131-.262-.262-.392a.281.281,0,0,0-.261-.262l-.131-.131c-.131-.131,0-.131,0-.261v-.131c-.131-.262-.131-.262.131-.393h.131s0-.261.131-.13h.261c0-.131,0-.262.131-.262-.131-.262-.392-.131-.654-.262.131.131.262.131.392.262a.831.831,0,0,1-.784,0,.128.128,0,0,1,.131-.131.128.128,0,0,0,.13-.131h.131a.784.784,0,0,1,.523.131h.262v-.131c-.131,0-.131,0-.262-.13a1.008,1.008,0,0,0-.392-.131c-.131,0,0-.131-.131-.131h-.131c-.13.131-.261.131-.523,0v-.393h.262c.13,0,.131,0,.261-.13h-.261a2.832,2.832,0,0,0-.393-.654h-.131c-.13,0-.13,0-.261-.131s-.262-.131-.523-.131h-1.177c-.262,0-.393-.131-.524,0s-.392,0-.523,0H1242a.128.128,0,0,0,.131-.131,1.18,1.18,0,0,1-.654-.131c.131-.13.262,0,.393,0s.13,0,.261-.13a3.073,3.073,0,0,1-1.046-.262v-.131c-.262-.261-.262-.261-.131-.261a17.7,17.7,0,0,1,2.616-.262c.261,0,.392-.131.654,0l.131.131h.523a.453.453,0,0,1,.261.131c.131.131.393.131.654.261h.131a.785.785,0,0,0,.523.131h.262c.131.262.392.131.654.131h.523a.128.128,0,0,1-.131.131c.131,0,.262.131.393.261,0,.262.261.131.261.393-.131,0-.261.131-.523.131h.261c-.13.13-.13.13.131.261v.131h.262a.457.457,0,0,1-.262.131,1.433,1.433,0,0,0,.654.13c0,.524-.13.524-.261.524-.262,0-.393.13-.523.13,0,.131.13.131.13.262-.13.131-.392,0-.654.262.131,0,.262-.131.393-.131h0c-.131,0-.131.131-.262.131.131,0,.131,0,.131.13-.131,0-.131.131-.261.131a.128.128,0,0,1,.13.131c.131,0,.131,0,.262-.131,0-.131.131,0,.131,0a.457.457,0,0,0-.131.262h.131l.131-.131h.392c.131,0,.262-.131.392-.262a.484.484,0,0,1-.13.393.786.786,0,0,0,.523-.131h.131c0-.131.13-.262.13-.392v-.131h.393V398l.131-.131c-.131-.262-.393-.262-.785-.262a.482.482,0,0,1,.392-.13c.131,0,.262,0,.262-.262h-.262a.479.479,0,0,1-.392-.131h-.131c-.131,0-.131,0-.261-.131a1.182,1.182,0,0,1,.653-.13c.131,0,.262,0,.262-.131h.262c.261,0,.261-.131.261-.393v-.13c.131-.131,0-.131,0-.131h-.392c-.131,0-.131,0-.262-.131h0c.131-.131.393,0,.523-.262.131.131.262,0,.524,0a.961.961,0,0,0,.784-.261h.131c.131,0,.131,0,.262-.131-.262.131-.393-.131-.654-.131h-.262c-.131,0,0-.131-.131-.131a.453.453,0,0,0-.261-.131h-1.047c-.13,0-.13.131-.261,0,0-.13-.262,0-.131-.13h0a1.187,1.187,0,0,0-.654.13c-.131,0-.131.131-.261.131h-1.047a.479.479,0,0,1-.392-.131h-.131c.262-.261.262-.261.262-.13a6.365,6.365,0,0,0-1.57-.131c.131-.131.262-.262.392-.262-.523,0-1.177-.131-1.7-.131-.131,0-.392-.131-.523-.131C1243.83,394.072,1243.7,393.941,1243.7,393.811Z" fill="#f2f2f2"/>
        <path id="Trazado_154591" data-name="Trazado 154591" d="M1255.21,411.86a1.309,1.309,0,0,0,.523-.654c0-.131.131-.131,0-.261v-.262a2.878,2.878,0,0,1,.392-.654c.131-.131.262-.261.393-.261h.261c-.131-.262-.131-.393,0-.524a1.942,1.942,0,0,0,.785.131h.261a.481.481,0,0,0,.393-.131c.131-.13.131-.13.261,0,.131-.261.262-.261.393-.392a.98.98,0,0,0,.654-.131h.261c.131.131.262,0,.393,0h.392c.131.131.262,0,.392-.131.131,0,.131-.13.262,0s.131.131.261.131c0,.131-.13.131-.13.262.13.131.261.131.13.392,0,.131-.13.131-.261.262.131.131.261.392.392.523h.262c.262-.131.392,0,.654.131v.131a.128.128,0,0,1,.131.13c.131.131.131.131.261.131a.787.787,0,0,1,.524.131l.392.393.131.13a.68.68,0,0,1,.523.262h0c0-.262,0-.392.262-.262.13,0,.261.131.523,0l-.131-.13c-.262,0-.523-.131-.785-.131-.131,0-.131-.131-.261-.262a.128.128,0,0,0-.131.131h0v-.262a.48.48,0,0,1,.131-.392.432.432,0,0,1,.654,0,.128.128,0,0,1,.13.131c.131.131.393,0,.393.261a.865.865,0,0,1,.784.131c.131,0,.131,0,.262.131h.131c.131.131.261.131.392.262l.131-.131c.131,0,.262,0,.262.131,0,.261.13.392.13.523a4.642,4.642,0,0,0,.524,1.177.982.982,0,0,1,.13.653.457.457,0,0,0,.131.262c.262.131.262.523.262.785a1.179,1.179,0,0,0,.131.654l.13.131c.131.13.262.261.262.392,0,.261,0,.523.262.654v.654c0,.131.13.131.261,0,0-.131-.131-.262-.131-.393h0a.128.128,0,0,1,.131.131c.131.131.262.393.393.523s.13.131,0,.393c0,.131.13.131.13.261.131.262.262.262.524.131,0,0,.13-.131.13,0,.262.131.524-.131.785-.131a.676.676,0,0,0,.523-.261h.131a3.208,3.208,0,0,1-.654,1.962c.131.131.131.131,0,.261a9.092,9.092,0,0,1-.784,1.177c0,.131-.131.131-.262.262h0c-.262-.131-.523.262-.916.131a1.185,1.185,0,0,0-.13.654.418.418,0,0,1-.393.392v.131a1.148,1.148,0,0,1-.131.916,1.176,1.176,0,0,0-.131.654c.131.13.131.13.131.523h-.261a.281.281,0,0,1,.261.261.993.993,0,0,0,.262.524V426.9c0,.261,0,.392-.131.523a2.751,2.751,0,0,1-.785.523c-.131.131-.261.131-.392.262-.131.261,0,.523-.262.523v-.262h0v.523a.481.481,0,0,0,.131.393v.392a1.419,1.419,0,0,1,.131.654c-.131.131-.262.262-.523.131.131-.131.131-.262.131-.523a.128.128,0,0,1-.131-.131.453.453,0,0,1-.131.261v.131c0,.131-.131.393-.131.523v.131s.131.131,0,.131c-.131.262-.131.523-.261.654s-.131.262-.262.392a3.093,3.093,0,0,1-1.046,1.178c-.131.13-.393.13-.654.261h-.262a.785.785,0,0,0-.523.131.979.979,0,0,1-.654.131c-.131,0-.261-.262-.392-.524h.131a1.854,1.854,0,0,0-.262-.784.457.457,0,0,0-.131-.262c0-.261-.131-.392-.261-.654a1.242,1.242,0,0,1-.262-.915.788.788,0,0,0-.131-.524v-.261a.784.784,0,0,0-.131-.523l-.392-.785c0-.131,0-.131-.131-.262a.985.985,0,0,1-.131-1.046c0-.262.131-.523.131-.785a.682.682,0,0,1,.261-.523,1.117,1.117,0,0,0,0-.916.245.245,0,0,1,0-.392v-.261c0-.262-.131-.393-.261-.654l.131-.131h-.131c0-.131-.131-.262-.131-.393s0-.13-.131-.261c-.261-.131-.261-.393-.392-.654a.481.481,0,0,0-.131-.393.128.128,0,0,0,.131-.13c-.131-.262-.131-.131-.262,0-.131-.262.131-.131.262-.393a.785.785,0,0,1-.131-.523c0-.261.131-.523,0-.785v-.131a.457.457,0,0,1-.262.131.482.482,0,0,0-.13-.392c-.131-.131-.131-.131,0-.262a.127.127,0,0,1,.13-.13v-.131l-.261.261v.393c-.262,0-.262-.131-.262-.393a.128.128,0,0,0-.13.131c-.262-.261-.524-.261-.785-.392h0c-.262-.262-.393,0-.523.131a49.412,49.412,0,0,0-.262.261c-.262.393-.523.393-.785.262-.131,0-.131,0-.261-.131h-.393c-.131.131-.261.261-.392.131h0a.616.616,0,0,1-.785-.131,5.591,5.591,0,0,1-.654-.916.128.128,0,0,1-.131-.131V418.4c0-.131,0-.131-.13-.262s-.262-.13-.262-.261a.481.481,0,0,1-.131-.393.68.68,0,0,1,.262-.523.864.864,0,0,0-.131-.785c0-.131-.131-.131,0-.261.131.131.261.392.392.523h.262c-.131,0-.131-.131-.262-.131a.453.453,0,0,0-.131-.261.484.484,0,0,0-.13-.393c0,.131-.131.131-.131.262-.131-.131-.131-.131-.131-.262v-.261c0-.131-.131-.262-.262-.393l-.392-.392a.974.974,0,0,1,0-1.177c.131-.131.131-.262.262-.523a.68.68,0,0,1,.261-.524.128.128,0,0,0,.131-.131C1254.948,411.991,1255.079,411.991,1255.21,411.86Z" fill="#f2f2f2"/>
      </g>
      <circle id="Elipse_5027" data-name="Elipse 5027" cx="3.924" cy="3.924" r="3.924" transform="translate(1271.82 403.751)" fill="#d66f5b"/>
      <circle id="Elipse_5028" data-name="Elipse 5028" cx="1.962" cy="1.962" r="1.962" transform="translate(1273.782 405.713)" fill="#d05643"/>
      <circle id="Elipse_5029" data-name="Elipse 5029" cx="3.924" cy="3.924" r="3.924" transform="translate(1261.88 422.062)" fill="#d66f5b"/>
      <circle id="Elipse_5030" data-name="Elipse 5030" cx="1.962" cy="1.962" r="1.962" transform="translate(1263.842 424.024)" fill="#d05643"/>
      <circle id="Elipse_5031" data-name="Elipse 5031" cx="3.924" cy="3.924" r="3.924" transform="translate(1239.383 424.024)" fill="#d66f5b"/>
      <circle id="Elipse_5032" data-name="Elipse 5032" cx="1.962" cy="1.962" r="1.962" transform="translate(1241.345 425.986)" fill="#d05643"/>
      <circle id="Elipse_5033" data-name="Elipse 5033" cx="3.924" cy="3.924" r="3.924" transform="translate(1232.451 402.181)" fill="#d66f5b"/>
      <circle id="Elipse_5034" data-name="Elipse 5034" cx="1.962" cy="1.962" r="1.962" transform="translate(1234.413 404.143)" fill="#d05643"/>
      <rect id="Rectángulo_32013" data-name="Rectángulo 32013" width="10.464" height="10.464" transform="translate(1254.948 419.708)" fill="#e5b455"/>
      <path id="Trazado_154592" data-name="Trazado 154592" d="M1262.534,448.613l5.1-18.834h-7.455l-7.978-.654,5.624,19.488Z" fill="#ced4de"/>
      <g id="Grupo_90184" data-name="Grupo 90184">
        <path id="Trazado_154593" data-name="Trazado 154593" d="M1261.88,434.749l1.7-1.7-3.4-3.27-3.4,3.27,1.7,1.7Z" fill="#88c4b7"/>
        <path id="Trazado_154594" data-name="Trazado 154594" d="M1263.319,448.613l-1.439-13.864h-3.4l-1.439,13.864Z" fill="#88c4b7"/>
      </g>
      <path id="Trazado_154595" data-name="Trazado 154595" d="M1265.673,413.3c.262-2.093-.131-4.578-2.223-5.624a9.938,9.938,0,0,0-3.27-.785,6.5,6.5,0,0,0-2.747.131c-3.4,1.046-3.793,4.447-3.531,7.586a14.389,14.389,0,0,0-.262,2.354c0,4.578,2.878,8.24,6.278,8.24s6.278-3.662,6.278-8.24A8.3,8.3,0,0,0,1265.673,413.3Z" fill="#f2cf64"/>
      <path id="Trazado_154596" data-name="Trazado 154596" d="M1253.64,415.392a4.032,4.032,0,0,0,.131,1.177h.261a12.677,12.677,0,0,1,.131-2.224,5.682,5.682,0,0,0,.131-2.615c-.131-.916-.261-1.962.785-2.224s2.877.523,4.97-.131c1.962-.654,3.531-1.177,4.185-.261a3.783,3.783,0,0,1,.654,3.008,6.655,6.655,0,0,0,.393,2.223c.131.524.131,1.57.261,2.093h.262a5.4,5.4,0,0,1,.523-2.223,15.276,15.276,0,0,0,.785-6.017c-.262-1.569-2.747-4.447-7.063-4.447-4.447-.131-6.147,1.7-6.671,2.747a13.348,13.348,0,0,0-.784,5.493C1252.855,413.037,1253.64,414.868,1253.64,415.392Z" fill="#4b5a6a"/>
      <g id="Grupo_90185" data-name="Grupo 90185">
        <ellipse id="Elipse_5035" data-name="Elipse 5035" cx="2.485" cy="1.177" rx="2.485" ry="1.177" transform="translate(1264.618 418.56) rotate(-80.125)" fill="#f2cf64"/>
        <ellipse id="Elipse_5036" data-name="Elipse 5036" cx="1.177" cy="2.485" rx="1.177" ry="2.485" transform="translate(1252.144 414.153) rotate(-9.875)" fill="#f2cf64"/>
      </g>
      <path id="Trazado_154597" data-name="Trazado 154597" d="M1274.044,448.613c0-1.831,0-3.662.131-5.1.392-4.708,3.662-12.425,3.662-12.425-3.4-.785-9.417-3.008-9.417-3.008,0,.785-3.924,14.518-5.755,20.535h11.379Z" fill="#3e4b5e"/>
      <path id="Trazado_154598" data-name="Trazado 154598" d="M1267.112,428.733l-3.924,5.624-3.008-4.578a24.454,24.454,0,0,0,3.531-2.093,4.452,4.452,0,0,0,1.831-2.877c.393.131.524.261.654.785A24.032,24.032,0,0,0,1267.112,428.733Z" fill="#f2f2f2"/>
      <g id="Grupo_90186" data-name="Grupo 90186">
        <path id="Trazado_154599" data-name="Trazado 154599" d="M1263.711,448.613c1.177-2.485,2.355-4.708,2.747-5.754,1.308-3.009,3.662-8.894,3.662-8.894l-2.093-1.832,1.832-.915a10.958,10.958,0,0,0-1.57-3.008c-.654-.785-1.7-1.439-2.093-2.224,0,0-.131,2.093-.261,3.662-.262,1.57-2.485,11.641-3.009,13.472-.13.523-.653,2.878-1.438,5.494h2.223Z" fill="#4b5a6a"/>
        <path id="Trazado_154600" data-name="Trazado 154600" d="M1273.782,448.613h8.764a36.89,36.89,0,0,1-.654-3.793c0-.523-.131-.784-.916-3.269a59.445,59.445,0,0,1-1.569-7.848c-.393-2.224-1.7-2.616-1.7-2.616a72.582,72.582,0,0,0-3.139,9.286h0a21.709,21.709,0,0,0-.654,4.447,24.789,24.789,0,0,0-.261,3.663A.127.127,0,0,0,1273.782,448.613Z" fill="#4b5a6a"/>
      </g>
      <path id="Trazado_154601" data-name="Trazado 154601" d="M1246.315,448.613h11.38c-1.962-5.885-5.886-19.619-5.755-20.534,0,0-6.017,2.223-9.418,3.008,0,0,3.27,7.717,3.663,12.425A21.6,21.6,0,0,1,1246.315,448.613Z" fill="#3e4b5e"/>
      <path id="Trazado_154602" data-name="Trazado 154602" d="M1253.248,428.733l3.924,5.624,3.008-4.578a24.428,24.428,0,0,1-3.532-2.093,4.457,4.457,0,0,1-1.831-2.877c-.392.131-.523.261-.654.785A24.054,24.054,0,0,1,1253.248,428.733Z" fill="#f2f2f2"/>
      <g id="Grupo_90187" data-name="Grupo 90187">
        <path id="Trazado_154603" data-name="Trazado 154603" d="M1253.9,442.859c.523,1.046,1.569,3.269,2.746,5.754h2.224c-.654-2.615-1.308-4.97-1.439-5.624-.392-1.831-2.747-11.9-3.008-13.472a26.958,26.958,0,0,1-.262-3.662c-.523.785-1.438,1.308-2.092,2.224a16.867,16.867,0,0,0-1.57,3.008l1.831.916-2.093,1.831C1250.239,433.964,1252.594,439.85,1253.9,442.859Z" fill="#4b5a6a"/>
        <path id="Trazado_154604" data-name="Trazado 154604" d="M1246.577,448.613v-.13c.131-.393-.261-1.962-.261-3.663a15.219,15.219,0,0,0-.654-4.447h0a72.752,72.752,0,0,0-3.139-9.286s-1.178.392-1.7,2.616a64.1,64.1,0,0,1-1.569,7.847c-.785,2.486-.916,2.616-.916,3.27a36.89,36.89,0,0,1-.654,3.793Z" fill="#4b5a6a"/>
      </g>
      <g id="Grupo_90188" data-name="Grupo 90188">
        <path id="Trazado_154605" data-name="Trazado 154605" d="M1259.688,445.537l-13.174-23.4-.006-.01a2.441,2.441,0,0,0-4.193,0l-.006.01-13.175,23.4a2.441,2.441,0,0,0,2.1,3.685h26.355a2.44,2.44,0,0,0,2.1-3.685Z" fill="#e4927a"/>
        <path id="Trazado_154606" data-name="Trazado 154606" d="M1234.652,447.27a2.441,2.441,0,0,1-2.1-3.685l12.673-22.514a2.459,2.459,0,0,0-.815-.138,2.419,2.419,0,0,0-2.1,1.191l-.006.01-13.175,23.4a2.441,2.441,0,0,0,2.1,3.685h26.355a2.415,2.415,0,0,0,2.122-1.235,2.465,2.465,0,0,0,.271-.718h-25.33Z" fill="#e0785b"/>
        <path id="Trazado_154607" data-name="Trazado 154607" d="M1244.411,437.018a4.882,4.882,0,1,0,4.882,4.882A4.887,4.887,0,0,0,1244.411,437.018Z" fill="#fff"/>
        <path id="Trazado_154608" data-name="Trazado 154608" d="M1245.681,441.436a.489.489,0,0,0,.488-.488v-.317a1.442,1.442,0,0,0-1.27-1.43v-.474a.488.488,0,0,0-.976,0v.5a1.6,1.6,0,0,0,.33,3.163h.317a.622.622,0,0,1,0,1.245h-.476a.464.464,0,0,1-.464-.464.488.488,0,1,0-.976,0,1.442,1.442,0,0,0,1.269,1.43v.474a.489.489,0,0,0,.977,0v-.5a1.6,1.6,0,0,0-.33-3.163h-.317a.622.622,0,1,1,0-1.245h.476a.464.464,0,0,1,.463.464v.317A.489.489,0,0,0,1245.681,441.436Z" fill="#f2d869"/>
        <path id="Trazado_154609" data-name="Trazado 154609" d="M1245.876,425.791h-2.929a.487.487,0,0,0-.488.488v8.787a.488.488,0,0,0,.488.488h2.929a.489.489,0,0,0,.488-.488v-8.787A.488.488,0,0,0,1245.876,425.791Z" fill="#fff"/>
      </g>
    </g>
  </g>
</svg>
