<svg xmlns="http://www.w3.org/2000/svg" width="161" height="161" viewBox="0 0 161 161">
  <g id="Group_125326" data-name="Group 125326" transform="translate(-930 -10333.621)">
    <circle id="Ellipse_4806" data-name="Ellipse 4806" cx="80.5" cy="80.5" r="80.5" transform="translate(930 10333.621)" fill="#fff"/>
    <g id="noun_Tool_1631819" transform="translate(964.75 10352.913)">
      <g id="Group_125274" data-name="Group 125274" transform="translate(13.25 4.421)">
        <path id="Path_175709" data-name="Path 175709" d="M40.722,55.824H30.8V18.212h3.76V4.421H23.28V18.212h3.762V55.824H13.25v3.761h3.761v48.478c0,5.87,4.446,10.644,9.911,10.644h4c5.465,0,9.911-4.775,9.911-10.644V59.586h4.231V55.824H40.722ZM27.041,8.182H30.8v6.269H27.041Zm10.03,99.882c0,3.8-2.758,6.883-6.15,6.883h-4c-3.391,0-6.15-3.088-6.15-6.883V59.586h16.3v48.478Z" transform="translate(-13.25 -4.421)" fill="#5c22c3"/>
        <rect id="Rectangle_39332" data-name="Rectangle 39332" width="3.761" height="42.63" transform="translate(10.031 61.432)" fill="#5c22c3"/>
        <rect id="Rectangle_39333" data-name="Rectangle 39333" width="3.761" height="42.63" transform="translate(17.554 61.432)" fill="#5c22c3"/>
        <path id="Path_175710" data-name="Path 175710" d="M67.316,62.318c.06-.191.119-.387.2-.683l.272-1.061a26.561,26.561,0,0,0-25.831-32.7v3.761a22.8,22.8,0,0,1,22.164,28.1l-.255.979c-.043.152-.089.308-.15.5a22.688,22.688,0,0,1-21.759,16v3.761A26.441,26.441,0,0,0,67.316,62.318Z" transform="translate(-5.965 1.531)" fill="#5c22c3"/>
        <path id="Path_175711" data-name="Path 175711" d="M98.02,70.591V49.83l-12.208-2.8a45.271,45.271,0,0,0-3.489-8.366L88.957,28.1,74.192,13.429,63.563,20.018a45.839,45.839,0,0,0-8.439-3.474L52.3,4.421H42.333V8.182h6.978l2.654,11.384,1.083.295a42.126,42.126,0,0,1,9.645,3.969l.969.549,9.984-6.188L84.172,28.645l-6.226,9.912.562.979A41.53,41.53,0,0,1,82.5,49.111l.3,1.081,11.459,2.634V67.6L82.8,70.231l-.3,1.082a41.544,41.544,0,0,1-3.994,9.575l-.562.979,6.229,9.91L73.648,102.23l-9.985-6.186-.969.549a42.192,42.192,0,0,1-9.645,3.969l-1.083.293-2.652,11.386H42.339V116H52.3l2.823-12.124a45.88,45.88,0,0,0,8.439-3.474l10.628,6.587L88.96,92.326,82.322,81.764A45.238,45.238,0,0,0,85.811,73.4Z" transform="translate(-5.87 -4.421)" fill="#5c22c3"/>
      </g>
    </g>
  </g>
</svg>
