<svg xmlns="http://www.w3.org/2000/svg" width="257.311" height="214.52" viewBox="0 0 257.311 214.52">
  <g id="Group_125331" data-name="Group 125331" transform="translate(-369.188 -7118.587)">
    <g id="Group_125121" data-name="Group 125121" transform="translate(369.188 7118.587)">
      <path id="Path_145976" data-name="Path 145976" d="M48.7,0A48.7,48.7,0,1,1,0,48.7,48.7,48.7,0,0,1,48.7,0Z" transform="translate(159.914 105.43)" fill="#a689d9" style="mix-blend-mode: multiply;isolation: isolate"/>
      <path id="Path_145977" data-name="Path 145977" d="M33.276,0A33.276,33.276,0,1,1,0,33.276,33.276,33.276,0,0,1,33.276,0Z" transform="translate(0 0)" fill="#a689d9" style="mix-blend-mode: multiply;isolation: isolate"/>
      <path id="Path_145978" data-name="Path 145978" d="M89.817,0A89.817,89.817,0,1,1,0,89.817,89.817,89.817,0,0,1,89.817,0Z" transform="translate(28.977 7.329)" fill="#5c22c3"/>
      <path id="Path_145979" data-name="Path 145979" d="M18.09,0A18.09,18.09,0,1,1,0,18.09,18.09,18.09,0,0,1,18.09,0Z" transform="translate(0 161.275)" fill="#a689d9" style="mix-blend-mode: multiply;isolation: isolate"/>
    </g>
    <g id="Group_125122" data-name="Group 125122" transform="translate(-136.784 -551.844)">
      <rect id="Rectangle_39013" data-name="Rectangle 39013" width="195.885" height="60.758" transform="translate(539 7817.302)" fill="#525252"/>
      <rect id="Rectangle_39014" data-name="Rectangle 39014" width="183.194" height="48.033" transform="translate(545.345 7823.647)" fill="#262626"/>
      <rect id="Rectangle_39015" data-name="Rectangle 39015" width="178.964" height="43.803" transform="translate(547.495 7825.763)" fill="#6e6e6e"/>
      <rect id="Rectangle_39016" data-name="Rectangle 39016" width="15.351" height="6.891" transform="translate(551.486 7878.06)" fill="#262626"/>
      <rect id="Rectangle_39017" data-name="Rectangle 39017" width="15.351" height="6.891" transform="translate(707.047 7878.06)" fill="#262626"/>
      <rect id="Rectangle_39018" data-name="Rectangle 39018" width="152.594" height="6.004" transform="translate(560.663 7811.298)" fill="#262626"/>
      <rect id="Rectangle_39019" data-name="Rectangle 39019" width="159.996" height="25.961" transform="translate(556.944 7775.785)" fill="#a8a8a8"/>
      <path id="Path_174198" data-name="Path 174198" d="M111.849,155a6.379,6.379,0,0,0-6.379,6.345v33.91H265.5V155Z" transform="translate(451.474 7580.7)" fill="#dbdbdb"/>
      <rect id="Rectangle_39020" data-name="Rectangle 39020" width="92.109" height="17.842" transform="translate(618.487 7752.928)" fill="#a8a8a8"/>
      <path id="Path_174199" data-name="Path 174199" d="M125.92,173.418V153.9a4.264,4.264,0,0,1,4.23-4.264h81.874a4.264,4.264,0,0,1,4.264,4.264v19.513Z" transform="translate(500.788 7567.775)" fill="#dbdbdb"/>
      <rect id="Rectangle_39021" data-name="Rectangle 39021" width="152.594" height="9.552" transform="translate(560.663 7801.746)" fill="#919191"/>
      <rect id="Rectangle_39022" data-name="Rectangle 39022" width="152.594" height="3.446" transform="translate(560.663 7801.746)" fill="#dbdbdb"/>
      <rect id="Rectangle_39023" data-name="Rectangle 39023" width="77.883" height="38.686" rx="1.24" transform="translate(556.944 7674.431)" fill="#dbdbdb"/>
      <path id="Path_174200" data-name="Path 174200" d="M105.47,149.132a4.264,4.264,0,0,0,4.264,4.264h69.389a4.23,4.23,0,0,0,4.23-4.264V146.3H105.47Z" transform="translate(451.474 7559.721)" fill="#dbdbdb"/>
      <rect id="Rectangle_39024" data-name="Rectangle 39024" width="24.904" height="4.333" transform="translate(583.451 7713.116)" fill="#c7c7c7"/>
      <rect id="Rectangle_39025" data-name="Rectangle 39025" width="24.904" height="2.149" transform="translate(583.451 7713.116)" fill="#dbdbdb"/>
      <rect id="Rectangle_39026" data-name="Rectangle 39026" width="16.955" height="18.115" transform="translate(587.408 7717.415)" fill="#dbdbdb"/>
      <rect id="Rectangle_39027" data-name="Rectangle 39027" width="16.955" height="2.081" transform="translate(587.408 7717.415)" fill="#dbdbdb"/>
      <rect id="Rectangle_39028" data-name="Rectangle 39028" width="5.458" height="18.115" transform="translate(598.905 7717.415)" fill="#dbdbdb"/>
      <rect id="Rectangle_39029" data-name="Rectangle 39029" width="16.955" height="4.912" transform="translate(587.408 7730.617)" fill="#dbdbdb"/>
      <rect id="Rectangle_39030" data-name="Rectangle 39030" width="62.532" height="9.723" transform="translate(564.62 7684.085)" fill="#0da22e"/>
      <rect id="Rectangle_39031" data-name="Rectangle 39031" width="62.532" height="2.9" transform="translate(564.62 7684.085)" fill="#dbdbdb"/>
      <rect id="Rectangle_39032" data-name="Rectangle 39032" width="62.532" height="2.9" transform="translate(564.62 7681.186)" fill="#dbdbdb"/>
      <rect id="Rectangle_39033" data-name="Rectangle 39033" width="62.532" height="2.9" transform="translate(564.62 7693.808)" fill="#545454"/>
      <rect id="Rectangle_39034" data-name="Rectangle 39034" width="84.263" height="25.245" rx="0.62" transform="translate(629.71 7720.178)" fill="#b3b3b3"/>
      <rect id="Rectangle_39035" data-name="Rectangle 39035" width="7.062" height="6.004" transform="translate(575.332 7811.298)" fill="#919191"/>
      <rect id="Rectangle_39036" data-name="Rectangle 39036" width="7.062" height="6.004" transform="translate(691.184 7811.298)" fill="#919191"/>
      <rect id="Rectangle_39037" data-name="Rectangle 39037" width="11.36" height="3.889" transform="translate(619.817 7761.832)" fill="#ededed"/>
      <rect id="Rectangle_39038" data-name="Rectangle 39038" width="11.394" height="3.889" transform="translate(632.849 7761.832)" fill="#ededed"/>
      <rect id="Rectangle_39039" data-name="Rectangle 39039" width="11.394" height="3.889" transform="translate(645.846 7761.832)" fill="#ededed"/>
      <rect id="Rectangle_39040" data-name="Rectangle 39040" width="11.394" height="3.889" transform="translate(658.878 7761.832)" fill="#ededed"/>
      <rect id="Rectangle_39041" data-name="Rectangle 39041" width="11.394" height="3.889" transform="translate(671.91 7761.832)" fill="#ededed"/>
      <rect id="Rectangle_39042" data-name="Rectangle 39042" width="24.358" height="3.889" transform="translate(684.907 7761.832)" fill="#c0dea2"/>
      <rect id="Rectangle_39043" data-name="Rectangle 39043" width="44.144" height="30.191" transform="translate(567.725 7740.681)" fill="#4a4a4a"/>
      <rect id="Rectangle_39044" data-name="Rectangle 39044" width="11.36" height="3.889" transform="translate(619.817 7765.721)" fill="#dbdbdb"/>
      <rect id="Rectangle_39045" data-name="Rectangle 39045" width="11.394" height="3.889" transform="translate(632.849 7765.721)" fill="#dbdbdb"/>
      <rect id="Rectangle_39046" data-name="Rectangle 39046" width="11.394" height="3.889" transform="translate(645.846 7765.721)" fill="#dbdbdb"/>
      <rect id="Rectangle_39047" data-name="Rectangle 39047" width="11.394" height="3.889" transform="translate(658.878 7765.721)" fill="#dbdbdb"/>
      <rect id="Rectangle_39048" data-name="Rectangle 39048" width="11.394" height="3.889" transform="translate(671.91 7765.721)" fill="#dbdbdb"/>
      <rect id="Rectangle_39049" data-name="Rectangle 39049" width="24.358" height="3.889" transform="translate(684.907 7765.721)" fill="#dbdbdb"/>
      <rect id="Rectangle_39050" data-name="Rectangle 39050" width="11.36" height="3.889" transform="translate(619.817 7756.886)" fill="#ededed"/>
      <rect id="Rectangle_39051" data-name="Rectangle 39051" width="11.394" height="3.889" transform="translate(632.849 7756.886)" fill="#ededed"/>
      <rect id="Rectangle_39052" data-name="Rectangle 39052" width="11.394" height="3.889" transform="translate(645.846 7756.886)" fill="#ededed"/>
      <rect id="Rectangle_39053" data-name="Rectangle 39053" width="11.394" height="3.889" transform="translate(658.878 7756.886)" fill="#ededed"/>
      <rect id="Rectangle_39054" data-name="Rectangle 39054" width="11.394" height="3.889" transform="translate(671.91 7756.886)" fill="#ededed"/>
      <rect id="Rectangle_39055" data-name="Rectangle 39055" width="11.394" height="3.889" transform="translate(684.907 7756.886)" fill="#ededed"/>
      <rect id="Rectangle_39056" data-name="Rectangle 39056" width="11.36" height="3.889" transform="translate(619.817 7751.768)" fill="#ededed"/>
      <rect id="Rectangle_39057" data-name="Rectangle 39057" width="11.394" height="3.889" transform="translate(632.849 7751.768)" fill="#ededed"/>
      <rect id="Rectangle_39058" data-name="Rectangle 39058" width="11.394" height="3.889" transform="translate(645.846 7751.768)" fill="#ededed"/>
      <rect id="Rectangle_39059" data-name="Rectangle 39059" width="11.394" height="3.889" transform="translate(658.878 7751.768)" fill="#ededed"/>
      <rect id="Rectangle_39060" data-name="Rectangle 39060" width="11.394" height="3.889" transform="translate(671.91 7751.768)" fill="#ffd8ab"/>
      <rect id="Rectangle_39061" data-name="Rectangle 39061" width="11.394" height="3.889" transform="translate(684.907 7751.768)" fill="#ededed"/>
      <rect id="Rectangle_39062" data-name="Rectangle 39062" width="11.394" height="3.889" transform="translate(697.939 7756.886)" fill="#ededed"/>
      <rect id="Rectangle_39063" data-name="Rectangle 39063" width="11.394" height="3.889" transform="translate(697.939 7751.768)" fill="#ededed"/>
      <rect id="Rectangle_39064" data-name="Rectangle 39064" width="33.91" height="10.78" transform="translate(572.841 7756.715)" fill="#9e9e9e"/>
      <rect id="Rectangle_39065" data-name="Rectangle 39065" width="33.91" height="5.39" transform="translate(572.841 7756.715)" fill="#c9c9c9"/>
      <rect id="Rectangle_39066" data-name="Rectangle 39066" width="159.996" height="2.252" transform="translate(556.944 7787.656)" fill="#919191"/>
      <rect id="Rectangle_39067" data-name="Rectangle 39067" width="159.996" height="2.217" transform="translate(556.944 7789.908)" fill="#333"/>
      <rect id="Rectangle_39068" data-name="Rectangle 39068" width="159.996" height="2.217" transform="translate(556.944 7773.567)" fill="#6e6e6e"/>
      <rect id="Rectangle_39069" data-name="Rectangle 39069" width="62.532" height="9.723" transform="translate(640.593 7727.922)" fill="#0da22e"/>
      <rect id="Rectangle_39070" data-name="Rectangle 39070" width="62.532" height="2.9" transform="translate(640.593 7727.922)" fill="#dbdbdb"/>
      <rect id="Rectangle_39071" data-name="Rectangle 39071" width="62.532" height="2.9" transform="translate(640.593 7725.022)" fill="#dbdbdb"/>
      <rect id="Rectangle_39072" data-name="Rectangle 39072" width="62.532" height="2.9" transform="translate(640.593 7737.645)" fill="#545454"/>
      <path id="Path_174201" data-name="Path 174201" d="M148.369,195.85a11.394,11.394,0,1,1-11.36-11.36A11.394,11.394,0,0,1,148.369,195.85Z" transform="translate(499.968 7651.813)" fill="#c9c9c9"/>
      <path id="Path_174202" data-name="Path 174202" d="M146.4,195.054a10.234,10.234,0,1,1-10.234-10.234A10.234,10.234,0,0,1,146.4,195.054Z" transform="translate(500.813 7652.609)" fill="#a8a8a8"/>
      <path id="Path_174203" data-name="Path 174203" d="M128.682,185.77a10.234,10.234,0,0,0,.478,14.465l7.028-7.471Z" transform="translate(500.789 7654.9)" fill="#dbdbdb"/>
      <path id="Path_174204" data-name="Path 174204" d="M136.28,200.129a10.234,10.234,0,0,0-.478-14.5L128.98,193.1Z" transform="translate(508.167 7654.563)" fill="#dbdbdb"/>
      <path id="Path_174205" data-name="Path 174205" d="M141.323,192.932a7.266,7.266,0,1,1-7.266-7.232,7.266,7.266,0,0,1,7.266,7.232Z" transform="translate(502.886 7654.731)" fill="#525252"/>
      <path id="Path_174206" data-name="Path 174206" d="M130.268,197.054a1.876,1.876,0,0,1-1.876-1.876v-6.823a1.876,1.876,0,1,1,3.718,0v6.823a1.876,1.876,0,0,1-1.842,1.876Z" transform="translate(506.708 7656)" fill="#262626"/>
    </g>
  </g>
</svg>
