<svg xmlns="http://www.w3.org/2000/svg" width="202.811" height="223.709" viewBox="0 0 202.811 223.709">
  <g id="Group_111904" data-name="Group 111904" transform="translate(21694.193 21560.947)">
    <g id="Group_111789" data-name="Group 111789" transform="translate(-21694.193 -21553.523)">
      <g id="Group_111775" data-name="Group 111775" transform="translate(0 4.543)">
        <path id="Path_172582" data-name="Path 172582" d="M1425.976,898.458l-79.5,4.43a.292.292,0,0,0-.275.308l5.8,104.11a.291.291,0,0,0,.307.275l79.391-4.426a.289.289,0,0,0,.274-.307l-5.808-104.223A.178.178,0,0,0,1425.976,898.458Z" transform="translate(-1346.197 -898.458)" fill="#072b08"/>
      </g>
      <g id="Group_111776" data-name="Group 111776" transform="translate(2.653 7.125)">
        <path id="Path_172583" data-name="Path 172583" d="M1425.407,999.458l-67.343,4.226a3.665,3.665,0,0,1-3.887-3.428l-5.742-91.507a3.665,3.665,0,0,1,3.428-3.887l67.343-4.226a3.666,3.666,0,0,1,3.887,3.428l5.743,91.507A3.666,3.666,0,0,1,1425.407,999.458Z" transform="translate(-1348.428 -900.629)" fill="#ebfaf4"/>
      </g>
      <g id="Group_111787" data-name="Group 111787" transform="translate(10.584 21.089)">
        <g id="Group_111777" data-name="Group 111777">
          <path id="Path_172584" data-name="Path 172584" d="M1397.57,913.51l-42.364,2.659a.04.04,0,0,1-.042-.037l-.067-1.058a.039.039,0,0,1,.037-.042l42.363-2.659a.039.039,0,0,1,.042.037l.067,1.058A.04.04,0,0,1,1397.57,913.51Z" transform="translate(-1355.098 -912.373)" fill="#1c551f"/>
        </g>
        <g id="Group_111778" data-name="Group 111778" transform="translate(0.571 9.095)">
          <path id="Path_172585" data-name="Path 172585" d="M1398.05,921.159l-42.365,2.659a.039.039,0,0,1-.04-.037l-.067-1.058a.038.038,0,0,1,.037-.042l42.364-2.659a.039.039,0,0,1,.042.037l.067,1.059A.039.039,0,0,1,1398.05,921.159Z" transform="translate(-1355.578 -920.022)" fill="#1c551f"/>
        </g>
        <g id="Group_111779" data-name="Group 111779" transform="translate(0.285 3.533)">
          <path id="Path_172586" data-name="Path 172586" d="M1413.995,916.481l-58.549,3.674a.04.04,0,0,1-.042-.037l-.067-1.059a.04.04,0,0,1,.037-.042l58.549-3.673a.038.038,0,0,1,.042.036l.066,1.059A.04.04,0,0,1,1413.995,916.481Z" transform="translate(-1355.338 -915.344)" fill="#1c551f"/>
        </g>
        <g id="Group_111780" data-name="Group 111780" transform="translate(3.886 38.018)">
          <path id="Path_172587" data-name="Path 172587" d="M1387.175,945.483l-28.6,1.8-.151-.134-.055-.854.132-.149,28.606-1.8.15.133.053.854Z" transform="translate(-1358.366 -944.346)" fill="#1c551f"/>
        </g>
        <g id="Group_111781" data-name="Group 111781" transform="translate(3.6 32.779)">
          <path id="Path_172588" data-name="Path 172588" d="M1397.952,941.077l-39.62,2.486-.152-.134-.053-.851.134-.151,39.621-2.486.15.132.055.855Z" transform="translate(-1358.126 -939.94)" fill="#1c551f"/>
        </g>
        <g id="Group_111782" data-name="Group 111782" transform="translate(4 42.235)">
          <path id="Path_172589" data-name="Path 172589" d="M1400.934,949.03l-42.364,2.659a.04.04,0,0,1-.042-.037l-.066-1.058a.039.039,0,0,1,.037-.042l42.363-2.659a.04.04,0,0,1,.042.037l.067,1.058A.04.04,0,0,1,1400.934,949.03Z" transform="translate(-1358.462 -947.893)" fill="#1c551f"/>
        </g>
        <g id="Group_111783" data-name="Group 111783" transform="translate(4.292 46.493)">
          <path id="Path_172590" data-name="Path 172590" d="M1405.792,952.611l-46.866,2.941-.165-.145-.052-.826.146-.165,46.866-2.941.164.144.052.829Z" transform="translate(-1358.708 -951.474)" fill="#1c551f"/>
        </g>
        <g id="Group_111784" data-name="Group 111784" transform="translate(5.052 55.516)">
          <path id="Path_172591" data-name="Path 172591" d="M1389.647,960.2l-30.093,1.888-.156-.137-.052-.844.137-.156,30.093-1.888.155.135.052.847Z" transform="translate(-1359.347 -959.062)" fill="#1c551f"/>
        </g>
        <g id="Group_111785" data-name="Group 111785" transform="translate(5.623 64.611)">
          <path id="Path_172592" data-name="Path 172592" d="M1390.128,967.849l-30.093,1.888-.155-.138-.053-.847.134-.152,30.094-1.889.156.138.053.845Z" transform="translate(-1359.827 -966.711)" fill="#1c551f"/>
        </g>
        <g id="Group_111786" data-name="Group 111786" transform="translate(5.338 59.336)">
          <path id="Path_172593" data-name="Path 172593" d="M1401.475,963.413l-41.68,2.615-.155-.137-.053-.845.136-.155,41.681-2.616.155.137.052.847Z" transform="translate(-1359.587 -962.275)" fill="#1c551f"/>
        </g>
      </g>
      <g id="Group_111788" data-name="Group 111788" transform="translate(16.84)">
        <path id="Path_172594" data-name="Path 172594" d="M1401.638,894.644l-37.076,2.067a4.284,4.284,0,0,0-4.2,4.357l.313,5.6a.99.99,0,0,0,1.076.893l43.882-2.445a.992.992,0,0,0,.97-1.007l-.313-5.6A4.283,4.283,0,0,0,1401.638,894.644Z" transform="translate(-1360.359 -894.637)" fill="#ff8c64"/>
      </g>
    </g>
    <g id="Group_111814" data-name="Group 111814" transform="translate(-21659.781 -21560.947)">
      <g id="Group_111790" data-name="Group 111790" transform="translate(85.164 47.117)">
        <path id="Path_172595" data-name="Path 172595" d="M1452.291,933.333s-.771-1.732-1.27-2.554-2.631-3.225-2.994-2.68-1.814,4.208-1.044,5.234-.05,2.811,3.786,3.892Z" transform="translate(-1446.761 -928.019)" fill="#ffb27d"/>
      </g>
      <g id="Group_111791" data-name="Group 111791" transform="translate(88.658 41.488)">
        <path id="Path_172596" data-name="Path 172596" d="M1494.359,923.285s-19.635,16.39-27.291,14.873c-5.986-1.187-15.45-4.189-15.45-4.189s-2.5,2.376-1.792,5.224c0,0,12.058,11.346,20.649,11.42,13.428.114,19.762-6.655,19.762-6.655Z" transform="translate(-1449.7 -923.285)" fill="#fff4d1"/>
      </g>
      <g id="Group_111792" data-name="Group 111792" transform="translate(145.166 211.406)">
        <path id="Path_172597" data-name="Path 172597" d="M1519.81,1069.145s-.57,9.195-2.348,9.327c-.237.018-9.023.018-9.023.018l-11.215-.065a3.637,3.637,0,0,1,3.351-3.274c3.278-.571,8.766-2.875,10.753-7.208C1513.415,1063.384,1519.81,1069.145,1519.81,1069.145Z" transform="translate(-1497.224 -1066.188)" fill="#072c09"/>
      </g>
      <g id="Group_111793" data-name="Group 111793" transform="translate(130.35 101.489)">
        <path id="Path_172598" data-name="Path 172598" d="M1522.813,1087.26a23.365,23.365,0,0,1-6.071,1.141,22.275,22.275,0,0,1-5.668-.81s-.642-6.207-4.175-19.885c-1.851-7.169-4.5-16.386-8.258-27.839-10.4-31.655-13.567-50.172-13.856-51.926-.016-.093-.021-.138-.021-.138l.035-.017,31.983-14.042s-3.953,43.626,1.09,60.372a70.814,70.814,0,0,1,1.83,8.022C1522.886,1060.33,1522.813,1087.26,1522.813,1087.26Z" transform="translate(-1484.763 -973.746)" fill="#1c551f"/>
      </g>
      <g id="Group_111794" data-name="Group 111794" transform="translate(130.371 101.489)">
        <path id="Path_172599" data-name="Path 172599" d="M1506.895,1067.707c-1.851-7.169-4.5-16.386-8.258-27.839-10.4-31.655-13.567-50.172-13.856-51.926,0-.052.006-.1.013-.155l31.983-14.042s-3.953,43.626,1.09,60.372C1518.574,1036.459,1506.895,1067.707,1506.895,1067.707Z" transform="translate(-1484.781 -973.746)" fill="#072c09"/>
      </g>
      <g id="Group_111795" data-name="Group 111795" transform="translate(120.186 211.406)">
        <path id="Path_172600" data-name="Path 172600" d="M1498.8,1069.145s-.571,9.195-2.35,9.327c-.237.018-9.022.018-9.022.018l-11.215-.065a3.639,3.639,0,0,1,3.352-3.274c3.278-.571,8.766-2.875,10.751-7.208C1492.407,1063.384,1498.8,1069.145,1498.8,1069.145Z" transform="translate(-1476.215 -1066.188)" fill="#072c09"/>
      </g>
      <g id="Group_111796" data-name="Group 111796" transform="translate(124.63 102.516)">
        <path id="Path_172601" data-name="Path 172601" d="M1479.961,974.61a455.36,455.36,0,0,0,4.477,62.983c4.891,34.711,3.233,49.445,3.233,49.445a33.308,33.308,0,0,0,4.717,1.2,21.411,21.411,0,0,0,7-.811s7-34.724,4.994-52.1,9.587-59.618,9.587-59.618Z" transform="translate(-1479.953 -974.61)" fill="#1c551f"/>
      </g>
      <g id="Group_111797" data-name="Group 111797" transform="translate(134.058 22.384)">
        <path id="Path_172602" data-name="Path 172602" d="M1501.141,921.193l-6.242,4.094-5.687-1.608c-1.039-1.483-1.315-4.341-1.329-6.818a42.5,42.5,0,0,1,.222-4.54l8.423-3.718,3.143-1.385c-.008.049-.245,2.58-.278,2.951A21.506,21.506,0,0,0,1501.141,921.193Z" transform="translate(-1487.881 -907.218)" fill="#ffb27d"/>
      </g>
      <g id="Group_111798" data-name="Group 111798" transform="translate(124.366 33.987)">
        <path id="Path_172603" data-name="Path 172603" d="M1479.86,993.365c7.771,7.5,37.179,6.241,38.991-2.025s-1.976-70.369-15.251-74.271c-2.754-.81-17.48,3.95-17.48,3.95a93.468,93.468,0,0,0-3.826,13.741c-.294,1.5-1.152,17.369-1.794,32.215-.3,6.944-.553,13.666-.684,18.587C1479.7,990.172,1479.693,993.2,1479.86,993.365Z" transform="translate(-1479.731 -916.977)" fill="#fff4d1"/>
      </g>
      <g id="Group_111799" data-name="Group 111799" transform="translate(134.058 23.768)">
        <path id="Path_172604" data-name="Path 172604" d="M1498.763,910.064c-1.71,2.889-7.705,5.417-10.881,6.577a42.5,42.5,0,0,1,.222-4.54l8.423-3.718C1498.39,908.359,1499.524,908.774,1498.763,910.064Z" transform="translate(-1487.881 -908.382)" fill="#fca56b"/>
      </g>
      <g id="Group_111800" data-name="Group 111800" transform="translate(129.408 4.637)">
        <path id="Path_172605" data-name="Path 172605" d="M1485.667,914.629s13.572,4.233,16.078-4.258,5.945-13.666-2.614-16.728-11.207-.321-12.732,2.31S1482.2,913.309,1485.667,914.629Z" transform="translate(-1483.971 -892.293)" fill="#ffb27d"/>
      </g>
      <g id="Group_111801" data-name="Group 111801" transform="translate(131.093)">
        <path id="Path_172606" data-name="Path 172606" d="M1486.664,895.873s.866,9.882,2.91,9.453,4.292-1.347,3.994,1.633,1.987,8.086,4.935,8.073c6.32-.025,13.188-16.244,11.457-19.319C1504.967,886.839,1479.449,885.048,1486.664,895.873Z" transform="translate(-1485.388 -888.393)" fill="#072c09"/>
      </g>
      <g id="Group_111802" data-name="Group 111802" transform="translate(130.756 30.127)">
        <path id="Path_172607" data-name="Path 172607" d="M1488.714,917.9c.176-.074,10.1-4.527,11.264-4.144s2.609,3.93,2.609,3.93l-17.481,3.951S1486.481,918.838,1488.714,917.9Z" transform="translate(-1485.105 -913.73)" fill="#e5d090"/>
      </g>
      <g id="Group_111808" data-name="Group 111808" transform="translate(0 6.258)">
        <g id="Group_111803" data-name="Group 111803" transform="translate(71.376 70.81)">
          <path id="Path_172608" data-name="Path 172608" d="M1436.347,958.53l44.046,41.47L1492,1010.928c1.09,1.027,2.467,1.354,3.057.727l1.879-2c.59-.627.181-1.98-.91-3.007l-8.6-8.094-47.056-44.3c-1.09-1.027-2.466-1.354-3.057-.728l-1.879,2C1434.846,956.15,1435.255,957.5,1436.347,958.53Z" transform="translate(-1435.166 -953.208)" fill="#072c09"/>
        </g>
        <g id="Group_111804" data-name="Group 111804" transform="translate(103.787 101.26)">
          <path id="Path_172609" data-name="Path 172609" d="M1462.424,983.093l24.422,22.994c1.09,1.027,2.467,1.354,3.057.727l1.879-2c.59-.627.181-1.98-.91-3.007l-24.422-22.994Z" transform="translate(-1462.424 -978.817)" fill="#318335"/>
        </g>
        <g id="Group_111805" data-name="Group 111805">
          <path id="Path_172610" data-name="Path 172610" d="M1450.525,907.385a43.614,43.614,0,0,0-61.655-1.876c-.232.216-.461.436-.685.66a43.622,43.622,0,1,0,62.339,1.216Zm-4.237,59.154a40.18,40.18,0,1,1,1.73-56.794A40.133,40.133,0,0,1,1446.288,966.539Z" transform="translate(-1375.138 -893.656)" fill="#072c09"/>
        </g>
        <g id="Group_111807" data-name="Group 111807" transform="translate(3.444 3.444)" opacity="0.5">
          <g id="Group_111806" data-name="Group 111806">
            <path id="Path_172611" data-name="Path 172611" d="M1388.949,964.258a40.179,40.179,0,1,0,1.731-56.791A39.993,39.993,0,0,0,1388.949,964.258Z" transform="translate(-1378.034 -896.553)" fill="#f9e3b3"/>
          </g>
        </g>
      </g>
      <g id="Group_111809" data-name="Group 111809" transform="translate(124.452 51.563)">
        <path id="Path_172612" data-name="Path 172612" d="M1479.8,982.768c30.666-21.851,28.116-51.01,28.116-51.01-11.208,6.322-22.33,20.3-27.432,32.423C1480.187,971.125,1479.934,977.847,1479.8,982.768Z" transform="translate(-1479.803 -931.758)" fill="#e5d090"/>
      </g>
      <g id="Group_111812" data-name="Group 111812" transform="translate(85.377 38.031)">
        <g id="Group_111810" data-name="Group 111810" transform="translate(0 52.171)">
          <path id="Path_172613" data-name="Path 172613" d="M1455.751,966.674a8.363,8.363,0,0,1-3.917-2.42s-.923.063.151,2.031c.09.164.289.587.44.886a.191.191,0,0,1-.161.275c-1.248.1-2.5-.4-4.906.1-.332.069-.429.863-.416,1.2a3.07,3.07,0,0,0,.647,2.1c.386.51,1.467,1.061,3.874,2.03.918.369,3.539.09,6-.754l1.963-.91-.609-3.648-.494.1C1457.537,967.831,1456.568,966.875,1455.751,966.674Z" transform="translate(-1446.941 -964.254)" fill="#feb27d"/>
        </g>
        <g id="Group_111811" data-name="Group 111811" transform="translate(11.058)">
          <path id="Path_172614" data-name="Path 172614" d="M1502.856,920.378s27.553,5.247-8.107,45.147c-5.7,6.382-36.516,14.691-36.516,14.691s-3.125-2.659-1.549-4.812c0,0,21.215-15.405,25.883-17.856,2.1-1.1,8.15-24.588,11.573-30.245A15.433,15.433,0,0,1,1502.856,920.378Z" transform="translate(-1456.241 -920.378)" fill="#fff4d1"/>
        </g>
      </g>
      <g id="Group_111813" data-name="Group 111813" transform="translate(86.21 46.2)">
        <path id="Path_172615" data-name="Path 172615" d="M1451.377,933.963a14.027,14.027,0,0,1-1.077-2.63,14.542,14.542,0,0,0-1.778-4.025c-.188-.187-.8.055-.877.857a4.681,4.681,0,0,0,.443,1.743,19.646,19.646,0,0,1,.583,3.463C1449.1,934.759,1451.377,933.963,1451.377,933.963Z" transform="translate(-1447.641 -927.248)" fill="#ffb27d"/>
      </g>
    </g>
  </g>
</svg>
