<svg xmlns="http://www.w3.org/2000/svg" width="178.756" height="166.177" viewBox="0 0 178.756 166.177">
  <g id="Grupo_83709" data-name="Grupo 83709" transform="translate(-559.251 -3268)">
    <g id="Grupo_81653" data-name="Grupo 81653" transform="translate(559.251 3268)">
      <g id="interface" transform="translate(8.356 136.886)">
        <g id="Grupo_81634" data-name="Grupo 81634">
          <g id="Grupo_81632" data-name="Grupo 81632">
            <rect id="Rectángulo_14913" data-name="Rectángulo 14913" width="44.305" height="28.816" fill="#3bedc3"/>
            <rect id="Rectángulo_14914" data-name="Rectángulo 14914" width="44.305" height="28.816" fill="#fff" opacity="0.6" style="isolation: isolate"/>
          </g>
          <rect id="Rectángulo_14915" data-name="Rectángulo 14915" width="41.063" height="21.972" transform="translate(1.621 5.403)" fill="#3bedc3"/>
          <g id="Grupo_81633" data-name="Grupo 81633" transform="translate(4.967 8.686)">
            <rect id="Rectángulo_14916" data-name="Rectángulo 14916" width="30.375" height="0.945" fill="#fff"/>
            <rect id="Rectángulo_14917" data-name="Rectángulo 14917" width="14.574" height="0.945" transform="translate(0 2.895)" fill="#fff"/>
            <rect id="Rectángulo_14918" data-name="Rectángulo 14918" width="18.356" height="0.945" transform="translate(0 5.79)" fill="#fff"/>
            <rect id="Rectángulo_14919" data-name="Rectángulo 14919" width="6.469" height="0.945" transform="translate(0 8.685)" fill="#fff"/>
            <rect id="Rectángulo_14920" data-name="Rectángulo 14920" width="4.189" height="0.945" transform="translate(0 11.579)" fill="#fff"/>
          </g>
        </g>
      </g>
      <g id="Monitor" transform="translate(0)">
        <g id="Grupo_81652" data-name="Grupo 81652">
          <g id="Grupo_81635" data-name="Grupo 81635" transform="translate(71.344 118.229)">
            <path id="Trazado_101946" data-name="Trazado 101946" d="M-740.15,391.517h-36.069l6.108-47.947h23.854Z" transform="translate(776.219 -343.57)" fill="#3bedc3"/>
            <path id="Trazado_101947" data-name="Trazado 101947" d="M-740.152,391.518h-36.066l4.179-32.8,1.928-15.145h23.85l2.847,22.342Z" transform="translate(776.219 -343.57)" fill="#fff" opacity="0.6"/>
            <path id="Trazado_101948" data-name="Trazado 101948" d="M-741.258,365.912l-28.626-7.2,1.929-15.145h23.85Z" transform="translate(774.064 -343.57)" opacity="0.1" style="isolation: isolate"/>
          </g>
          <g id="Grupo_81636" data-name="Grupo 81636">
            <path id="Trazado_101949" data-name="Trazado 101949" d="M-709.943,164.382H-880a4.351,4.351,0,0,0-4.352,4.351V283.857A4.351,4.351,0,0,0-880,288.209h170.053a4.352,4.352,0,0,0,4.352-4.351V168.733A4.352,4.352,0,0,0-709.943,164.382Z" transform="translate(884.348 -164.382)" fill="#3bedc3"/>
            <path id="Trazado_101950" data-name="Trazado 101950" d="M-709.943,164.382H-880a4.351,4.351,0,0,0-4.352,4.351V283.857A4.351,4.351,0,0,0-880,288.209h170.053a4.352,4.352,0,0,0,4.352-4.351V168.733A4.352,4.352,0,0,0-709.943,164.382Z" transform="translate(884.348 -164.382)" fill="#fff" opacity="0.7"/>
          </g>
          <rect id="Rectángulo_14921" data-name="Rectángulo 14921" width="167.306" height="111.012" transform="translate(5.726 4.262)" fill="#3bedc3"/>
          <g id="Grupo_81637" data-name="Grupo 81637" transform="translate(58.404 162.573)">
            <rect id="Rectángulo_14922" data-name="Rectángulo 14922" width="61.949" height="3.545" rx="1.037" fill="#3bedc3"/>
            <rect id="Rectángulo_14923" data-name="Rectángulo 14923" width="61.949" height="3.545" rx="1.037" fill="#fff" opacity="0.7"/>
          </g>
          <g id="Grupo_81647" data-name="Grupo 81647" transform="translate(5.726 4.367)">
            <rect id="Rectángulo_14924" data-name="Rectángulo 14924" width="167.306" height="16.546" opacity="0.2" style="isolation: isolate"/>
            <rect id="Rectángulo_14925" data-name="Rectángulo 14925" width="71.696" height="94.164" transform="translate(0 16.743)" fill="#fff" opacity="0.4"/>
            <g id="Grupo_81641" data-name="Grupo 81641" transform="translate(77.947 5.194)">
              <rect id="Rectángulo_14926" data-name="Rectángulo 14926" width="62.565" height="36.173" transform="translate(1.046 1.046)" fill="none" stroke="#fff" stroke-miterlimit="10" stroke-width="1" stroke-dasharray="5"/>
              <g id="Grupo_81638" data-name="Grupo 81638">
                <rect id="Rectángulo_14927" data-name="Rectángulo 14927" width="2.092" height="2.092" transform="translate(62.565)" fill="#3bedc3" stroke="#fff" stroke-miterlimit="10" stroke-width="1"/>
                <rect id="Rectángulo_14928" data-name="Rectángulo 14928" width="2.092" height="2.092" transform="translate(62.565 36.173)" fill="#3bedc3" stroke="#fff" stroke-miterlimit="10" stroke-width="1"/>
                <rect id="Rectángulo_14929" data-name="Rectángulo 14929" width="2.092" height="2.092" fill="#3bedc3" stroke="#fff" stroke-miterlimit="10" stroke-width="1"/>
                <rect id="Rectángulo_14930" data-name="Rectángulo 14930" width="2.092" height="2.092" transform="translate(0 36.173)" fill="#3bedc3" stroke="#fff" stroke-miterlimit="10" stroke-width="1"/>
              </g>
              <g id="Grupo_81639" data-name="Grupo 81639" transform="translate(31.282)">
                <rect id="Rectángulo_14931" data-name="Rectángulo 14931" width="2.092" height="2.092" fill="#3bedc3" stroke="#fff" stroke-miterlimit="10" stroke-width="1"/>
                <rect id="Rectángulo_14932" data-name="Rectángulo 14932" width="2.092" height="2.092" transform="translate(0 36.173)" fill="#3bedc3" stroke="#fff" stroke-miterlimit="10" stroke-width="1"/>
              </g>
              <g id="Grupo_81640" data-name="Grupo 81640" transform="translate(0 18.086)">
                <rect id="Rectángulo_14933" data-name="Rectángulo 14933" width="2.092" height="2.092" transform="translate(62.565)" fill="#3bedc3" stroke="#fff" stroke-miterlimit="10" stroke-width="1"/>
                <rect id="Rectángulo_14934" data-name="Rectángulo 14934" width="2.092" height="2.092" fill="#3bedc3" stroke="#fff" stroke-miterlimit="10" stroke-width="1"/>
              </g>
            </g>
            <path id="Rectángulo_14935" data-name="Rectángulo 14935" d="M1.893,0h14.02a1.894,1.894,0,0,1,1.894,1.894V4.7a1.894,1.894,0,0,1-1.894,1.894H1.893A1.893,1.893,0,0,1,0,4.7v-2.8A1.893,1.893,0,0,1,1.893,0Z" transform="translate(119.318 18.39)" fill="#fff" opacity="0.7"/>
            <path id="Rectángulo_14936" data-name="Rectángulo 14936" d="M1.893,0h14.02a1.894,1.894,0,0,1,1.894,1.894V4.7a1.893,1.893,0,0,1-1.893,1.893H1.894A1.894,1.894,0,0,1,0,4.7v-2.8A1.893,1.893,0,0,1,1.893,0Z" transform="translate(92.926 18.39)" fill="#fff" opacity="0.7"/>
            <path id="Rectángulo_14937" data-name="Rectángulo 14937" d="M1.894,0h14.02a1.894,1.894,0,0,1,1.894,1.894V4.7a1.893,1.893,0,0,1-1.893,1.893H1.894A1.894,1.894,0,0,1,0,4.7v-2.8A1.894,1.894,0,0,1,1.894,0Z" transform="translate(58.947 98.614)" fill="#fff" opacity="0.7"/>
            <g id="Grupo_81642" data-name="Grupo 81642" transform="translate(156.267 5.884)">
              <line id="Línea_10501" data-name="Línea 10501" x2="5.568" fill="none" stroke="#fff" stroke-linecap="round" stroke-linejoin="round" stroke-width="1.5"/>
              <line id="Línea_10502" data-name="Línea 10502" x2="5.568" transform="translate(0 2.639)" fill="none" stroke="#fff" stroke-linecap="round" stroke-linejoin="round" stroke-width="1.5"/>
              <line id="Línea_10503" data-name="Línea 10503" x2="5.568" transform="translate(0 5.278)" fill="none" stroke="#fff" stroke-linecap="round" stroke-linejoin="round" stroke-width="1.5"/>
            </g>
            <rect id="Rectángulo_14938" data-name="Rectángulo 14938" width="56.118" height="56.118" transform="translate(11.342 31.339)" fill="#fff" opacity="0.5"/>
            <g id="Grupo_81643" data-name="Grupo 81643" transform="translate(33.788 34.883)">
              <line id="Línea_10504" data-name="Línea 10504" y2="48.403" transform="translate(1.046 1.046)" fill="none" stroke="#3bedc3" stroke-miterlimit="10" stroke-width="1"/>
              <path id="Trazado_101951" data-name="Trazado 101951" d="M-798.673,273.858h0a24.2,24.2,0,0,1-24.2-24.2h0a24.2,24.2,0,0,1,24.2-24.2h0" transform="translate(823.921 -224.409)" fill="none" stroke="#3bedc3" stroke-miterlimit="10" stroke-width="1"/>
              <rect id="Rectángulo_14939" data-name="Rectángulo 14939" width="2.092" height="2.092" transform="translate(24.202)" fill="#fff" stroke="#3bedc3" stroke-miterlimit="10" stroke-width="1"/>
              <rect id="Rectángulo_14940" data-name="Rectángulo 14940" width="2.092" height="2.092" transform="translate(24.202 48.403)" fill="#fff" stroke="#3bedc3" stroke-miterlimit="10" stroke-width="1"/>
              <rect id="Rectángulo_14941" data-name="Rectángulo 14941" width="2.092" height="2.092" transform="translate(0 24.202)" fill="#fff" stroke="#3bedc3" stroke-miterlimit="10" stroke-width="1"/>
              <path id="Trazado_101952" data-name="Trazado 101952" d="M-822.613,225.175a.542.542,0,0,1-.542.542.542.542,0,0,1-.542-.542.543.543,0,0,1,.542-.542A.542.542,0,0,1-822.613,225.175Z" transform="translate(824.201 -224.129)" fill="#fff" stroke="#3bedc3" stroke-miterlimit="10" stroke-width="1"/>
              <path id="Trazado_101953" data-name="Trazado 101953" d="M-822.613,298.536a.542.542,0,0,1-.542.542.542.542,0,0,1-.542-.542.542.542,0,0,1,.542-.542A.541.541,0,0,1-822.613,298.536Z" transform="translate(824.201 -249.086)" fill="#fff" stroke="#3bedc3" stroke-miterlimit="10" stroke-width="1"/>
            </g>
            <path id="Trazado_101954" data-name="Trazado 101954" d="M-693.248,316.607h-16.987a4.909,4.909,0,0,1-4.909-4.909h0a4.909,4.909,0,0,1,4.909-4.909h16.987a4.909,4.909,0,0,1,4.909,4.909h0A4.909,4.909,0,0,1-693.248,316.607Z" transform="translate(821.059 -217.196)" fill="#fff" opacity="0.7"/>
            <path id="Trazado_101955" data-name="Trazado 101955" d="M-686.948,257.112h-52.48a1.073,1.073,0,0,1-1.074-1.073h0a1.073,1.073,0,0,1,1.074-1.073h52.48a1.073,1.073,0,0,1,1.073,1.073h0A1.073,1.073,0,0,1-686.948,257.112Z" transform="translate(829.686 -199.566)" fill="#fff" opacity="0.7"/>
            <path id="Trazado_101956" data-name="Trazado 101956" d="M-686.948,268.988h-52.48a1.073,1.073,0,0,1-1.074-1.073h0a1.073,1.073,0,0,1,1.074-1.073h52.48a1.073,1.073,0,0,1,1.073,1.073h0A1.073,1.073,0,0,1-686.948,268.988Z" transform="translate(829.686 -203.606)" fill="#fff" opacity="0.7"/>
            <path id="Trazado_101957" data-name="Trazado 101957" d="M-676.742,280.865h-32.687a1.073,1.073,0,0,1-1.073-1.073h0a1.073,1.073,0,0,1,1.073-1.073h32.687a1.073,1.073,0,0,1,1.073,1.073h0A1.073,1.073,0,0,1-676.742,280.865Z" transform="translate(819.48 -207.646)" fill="#fff" opacity="0.7"/>
            <g id="Grupo_81644" data-name="Grupo 81644" transform="translate(5.284 4.587)">
              <rect id="Rectángulo_14942" data-name="Rectángulo 14942" width="3.707" height="3.707" opacity="0.4" style="isolation: isolate"/>
              <path id="Rectángulo_14943" data-name="Rectángulo 14943" d="M1.439,0h.828a1.44,1.44,0,0,1,1.44,1.44v.828a1.44,1.44,0,0,1-1.44,1.44H1.44A1.44,1.44,0,0,1,0,2.268V1.439A1.439,1.439,0,0,1,1.439,0Z" transform="translate(7.209)" opacity="0.4" style="isolation: isolate"/>
              <path id="Rectángulo_14944" data-name="Rectángulo 14944" d="M1.854,0h0A1.854,1.854,0,0,1,3.707,1.854v0A1.854,1.854,0,0,1,1.854,3.707h0A1.854,1.854,0,0,1,0,1.854v0A1.854,1.854,0,0,1,1.854,0Z" transform="translate(14.417)" opacity="0.4" style="isolation: isolate"/>
            </g>
            <g id="Grupo_81646" data-name="Grupo 81646" transform="translate(7.558 90.733)">
              <g id="Grupo_81645" data-name="Grupo 81645">
                <path id="Trazado_101958" data-name="Trazado 101958" d="M-855.12,313.785V312.34l-.744-.07a3.858,3.858,0,0,0-.555-1.335l.478-.577-1.021-1.021-.577.478a3.854,3.854,0,0,0-1.334-.555l-.071-.744h-1.444l-.071.744a3.854,3.854,0,0,0-1.334.555l-.577-.478-1.021,1.021.478.577a3.851,3.851,0,0,0-.555,1.335l-.744.07v1.445l.744.07a3.846,3.846,0,0,0,.555,1.334l-.478.577,1.021,1.022.577-.478a3.85,3.85,0,0,0,1.334.555l.071.744h1.444l.071-.744a3.85,3.85,0,0,0,1.334-.555l.577.478,1.021-1.022-.478-.577a3.853,3.853,0,0,0,.555-1.334Zm-4.547,1.233a1.956,1.956,0,0,1-1.956-1.956,1.956,1.956,0,0,1,1.956-1.956,1.956,1.956,0,0,1,1.956,1.956A1.956,1.956,0,0,1-859.667,315.018Z" transform="translate(864.214 -308.516)" fill="#fff" opacity="0.9"/>
                <path id="Trazado_101959" data-name="Trazado 101959" d="M-845.23,320.554v-1.132l-.583-.055a3.016,3.016,0,0,0-.435-1.045l.375-.453-.8-.8-.452.374a3.032,3.032,0,0,0-1.046-.435l-.055-.583h-1.132l-.055.583a3.029,3.029,0,0,0-1.046.435l-.453-.374-.8.8.374.453a3.04,3.04,0,0,0-.435,1.045l-.583.055v1.132l.583.055a3.044,3.044,0,0,0,.435,1.046l-.374.452.8.8.453-.375a3.019,3.019,0,0,0,1.046.435l.055.583h1.132l.055-.583a3.022,3.022,0,0,0,1.046-.435l.452.375.8-.8-.375-.452a3.019,3.019,0,0,0,.435-1.046Zm-3.563.967a1.533,1.533,0,0,1-1.533-1.533,1.533,1.533,0,0,1,1.533-1.533,1.533,1.533,0,0,1,1.533,1.533A1.533,1.533,0,0,1-848.793,321.521Z" transform="translate(860.18 -311.207)" fill="#fff" opacity="0.6"/>
                <path id="Trazado_101960" data-name="Trazado 101960" d="M-853.517,325.766v-.951l-.49-.046a2.53,2.53,0,0,0-.365-.878l.315-.38-.672-.672-.38.315a2.542,2.542,0,0,0-.878-.366l-.046-.49h-.952l-.046.49a2.537,2.537,0,0,0-.879.366l-.38-.315-.672.672.315.38a2.538,2.538,0,0,0-.365.878l-.49.046v.951l.49.046a2.546,2.546,0,0,0,.365.878l-.315.38.672.672.38-.314a2.548,2.548,0,0,0,.879.365l.046.49h.952l.046-.49a2.553,2.553,0,0,0,.878-.365l.38.314.672-.672-.315-.38a2.544,2.544,0,0,0,.366-.878Zm-2.993.812a1.287,1.287,0,0,1-1.287-1.287A1.288,1.288,0,0,1-856.51,324a1.287,1.287,0,0,1,1.287,1.288A1.287,1.287,0,0,1-856.51,326.578Z" transform="translate(862.611 -313.205)" fill="#fff" opacity="0.4"/>
              </g>
            </g>
          </g>
          <g id="Grupo_81649" data-name="Grupo 81649" transform="translate(146.898 10.233)">
            <g id="Grupo_81648" data-name="Grupo 81648" transform="translate(0 0)">
              <path id="Trazado_101961" data-name="Trazado 101961" d="M-661.709,179.892l2.8,7.481,4.682-4.682Z" transform="translate(661.709 -179.892)" fill="#3bedc3"/>
              <rect id="Rectángulo_14945" data-name="Rectángulo 14945" width="1.475" height="3.278" transform="translate(3.46 4.503) rotate(-45)" fill="#3bedc3"/>
            </g>
            <path id="Trazado_101962" data-name="Trazado 101962" d="M-654.228,182.691l-7.481-2.8,2.8,7.481,1.819-1.819,1.159,1.159,1.043-1.043-1.159-1.159Z" transform="translate(661.709 -179.892)" fill="#fff" opacity="0.4"/>
          </g>
          <g id="Grupo_81650" data-name="Grupo 81650" transform="translate(31.514 31.524)">
            <path id="Trazado_101963" data-name="Trazado 101963" d="M-835.819,217.608l7.038,2.634-3.69-3.69a.719.719,0,0,1-.864-.111.729.729,0,0,1,0-1.031.728.728,0,0,1,1.03,0,.718.718,0,0,1,.111.864l3.69,3.691-2.634-7.039-2.331.517-.092-.842-.441-.441-2.584,2.584.441.441.842.091Z" transform="translate(836.586 -212.16)" fill="#26382d"/>
            <path id="Trazado_101964" data-name="Trazado 101964" d="M-835.819,217.608l7.038,2.634-3.69-3.69a.719.719,0,0,1-.864-.111.729.729,0,0,1,0-1.031.728.728,0,0,1,1.03,0,.718.718,0,0,1,.111.864l3.69,3.691-2.634-7.039-2.331.517-.092-.842-.441-.441-2.584,2.584.441.441.842.091Z" transform="translate(836.586 -212.16)" fill="#fff" opacity="0.2"/>
          </g>
          <g id="Grupo_81651" data-name="Grupo 81651" transform="translate(5.399 4.262)" opacity="0.1">
            <path id="Trazado_101965" data-name="Trazado 101965" d="M-851.37,170.841l-24.8,92.65v-92.65Z" transform="translate(876.166 -170.841)" fill="#fff"/>
            <path id="Trazado_101966" data-name="Trazado 101966" d="M-822.048,170.841l-29.711,111.012h-20.467l29.7-111.012Z" transform="translate(874.826 -170.841)" fill="#fff"/>
            <path id="Trazado_101967" data-name="Trazado 101967" d="M-771.168,170.841l-29.711,111.012h-9.257l29.711-111.012Z" transform="translate(853.703 -170.841)" fill="#fff"/>
            <path id="Trazado_101968" data-name="Trazado 101968" d="M-726.573,170.841l-29.711,111.012H-759.6l29.711-111.012Z" transform="translate(836.509 -170.841)" fill="#fff"/>
          </g>
        </g>
      </g>
    </g>
  </g>
</svg>
