<svg xmlns="http://www.w3.org/2000/svg" width="66.612" height="66.587" viewBox="0 0 66.612 66.587">
  <g id="Grupo_79884" data-name="Grupo 79884" transform="translate(0)">
    <g id="caja" transform="translate(0 0)">
      <g id="Grupo_13468" data-name="Grupo 13468" transform="translate(29.087 0)">
        <g id="Grupo_13467" data-name="Grupo 13467" transform="translate(0 0)">
          <path id="Trazado_15073" data-name="Trazado 15073" d="M214.707.508a1.15,1.15,0,0,0-1.776,0L209.6,4.949l1.776,1.332L212.709,4.5v8.882h2.22V4.5l1.332,1.776,1.776-1.332Z" transform="translate(-209.6 -0.089)" fill="#97181a"/>
        </g>
      </g>
      <g id="Grupo_13470" data-name="Grupo 13470" transform="translate(29.087 53.264)">
        <g id="Grupo_13469" data-name="Grupo 13469">
          <path id="Trazado_15074" data-name="Trazado 15074" d="M216.261,391.016l-1.332,1.776v-8.882h-2.22v8.882l-1.332-1.776-1.776,1.332,3.331,4.441a1.11,1.11,0,0,0,1.776,0l3.331-4.441Z" transform="translate(-209.6 -383.911)" fill="#97181a"/>
        </g>
      </g>
      <g id="Grupo_13472" data-name="Grupo 13472" transform="translate(32.196 15.518)">
        <g id="Grupo_13471" data-name="Grupo 13471">
          <rect id="Rectángulo_3114" data-name="Rectángulo 3114" width="2.22" height="2.22" fill="#97181a"/>
        </g>
      </g>
      <g id="Grupo_13474" data-name="Grupo 13474" transform="translate(32.196 48.824)">
        <g id="Grupo_13473" data-name="Grupo 13473">
          <rect id="Rectángulo_3115" data-name="Rectángulo 3115" width="2.22" height="2.22" fill="#97181a"/>
        </g>
      </g>
      <g id="Grupo_13476" data-name="Grupo 13476" transform="translate(0 29.062)">
        <g id="Grupo_13475" data-name="Grupo 13475" transform="translate(0)">
          <path id="Trazado_15075" data-name="Trazado 15075" d="M13.322,212.62H4.44l1.776-1.332-1.332-1.776L.444,212.842a1.11,1.11,0,0,0,0,1.776l4.441,3.331,1.332-1.776L4.44,214.84h8.882Z" transform="translate(0.001 -209.511)" fill="#97181a"/>
        </g>
      </g>
      <g id="Grupo_13478" data-name="Grupo 13478" transform="translate(53.289 29.062)">
        <g id="Grupo_13477" data-name="Grupo 13477">
          <path id="Trazado_15076" data-name="Trazado 15076" d="M397.1,213.064a1.114,1.114,0,0,0-.222-.222l-4.441-3.331-1.332,1.776,1.776,1.332H384v2.22h8.882l-1.776,1.332,1.332,1.776,4.441-3.331A1.11,1.11,0,0,0,397.1,213.064Z" transform="translate(-384 -209.511)" fill="#97181a"/>
        </g>
      </g>
      <g id="Grupo_13480" data-name="Grupo 13480" transform="translate(15.543 32.171)">
        <g id="Grupo_13479" data-name="Grupo 13479">
          <rect id="Rectángulo_3116" data-name="Rectángulo 3116" width="2.22" height="2.22" fill="#97181a"/>
        </g>
      </g>
      <g id="Grupo_13482" data-name="Grupo 13482" transform="translate(48.848 32.171)">
        <g id="Grupo_13481" data-name="Grupo 13481">
          <rect id="Rectángulo_3117" data-name="Rectángulo 3117" width="2.22" height="2.22" fill="#97181a"/>
        </g>
      </g>
      <g id="Grupo_13484" data-name="Grupo 13484" transform="translate(9.425 9.4)">
        <g id="Grupo_13483" data-name="Grupo 13483">
          <path id="Trazado_15077" data-name="Trazado 15077" d="M78.449,76.789,72.169,70.51l2.2.313.314-2.2-5.494-.789A1.11,1.11,0,0,0,67.925,69.1l.785,5.494,2.2-.314-.313-2.2,6.279,6.279Z" transform="translate(-67.913 -67.823)" fill="#97181a"/>
        </g>
      </g>
      <g id="Grupo_13486" data-name="Grupo 13486" transform="translate(46.651 46.629)">
        <g id="Grupo_13485" data-name="Grupo 13485">
          <path id="Trazado_15078" data-name="Trazado 15078" d="M346.689,345.355l-.785-5.494-2.2.316.313,2.2-6.279-6.279-1.57,1.57,6.279,6.279-2.195-.315-.314,2.2,5.494.785a1.1,1.1,0,0,0,.158.011,1.11,1.11,0,0,0,1.11-1.11A1.094,1.094,0,0,0,346.689,345.355Z" transform="translate(-336.168 -336.095)" fill="#97181a"/>
        </g>
      </g>
      <g id="Grupo_13488" data-name="Grupo 13488" transform="translate(19.961 19.936)">
        <g id="Grupo_13487" data-name="Grupo 13487" transform="translate(0 0)">
          <rect id="Rectángulo_3118" data-name="Rectángulo 3118" width="2.22" height="2.22" transform="translate(0 1.57) rotate(-45)" fill="#97181a"/>
        </g>
      </g>
      <g id="Grupo_13490" data-name="Grupo 13490" transform="translate(43.512 43.486)">
        <g id="Grupo_13489" data-name="Grupo 13489" transform="translate(0 0)">
          <rect id="Rectángulo_3119" data-name="Rectángulo 3119" width="2.22" height="2.22" transform="translate(0 1.57) rotate(-45)" fill="#97181a"/>
        </g>
      </g>
      <g id="Grupo_13492" data-name="Grupo 13492" transform="translate(9.425 46.627)">
        <g id="Grupo_13491" data-name="Grupo 13491">
          <path id="Trazado_15079" data-name="Trazado 15079" d="M72.169,343.928l6.279-6.279-1.565-1.57L70.6,342.358l.313-2.2-2.2-.314-.789,5.494a1.11,1.11,0,0,0,1.1,1.268,1.09,1.09,0,0,0,.158-.011l5.494-.785-.314-2.2Z" transform="translate(-67.918 -336.079)" fill="#97181a"/>
        </g>
      </g>
      <g id="Grupo_13494" data-name="Grupo 13494" transform="translate(46.651 9.404)">
        <g id="Grupo_13493" data-name="Grupo 13493">
          <path id="Trazado_15080" data-name="Trazado 15080" d="M346.373,68.183a1.1,1.1,0,0,0-.943-.314l-5.494.785.314,2.2,2.2-.313-6.279,6.279,1.57,1.57,6.279-6.279L343.7,74.3l2.2.316.785-5.494A1.11,1.11,0,0,0,346.373,68.183Z" transform="translate(-336.168 -67.857)" fill="#97181a"/>
        </g>
      </g>
      <g id="Grupo_13496" data-name="Grupo 13496" transform="translate(19.962 43.487)">
        <g id="Grupo_13495" data-name="Grupo 13495" transform="translate(0 0)">
          <rect id="Rectángulo_3120" data-name="Rectángulo 3120" width="2.22" height="2.22" transform="translate(0 1.57) rotate(-45)" fill="#97181a"/>
        </g>
      </g>
      <g id="Grupo_13498" data-name="Grupo 13498" transform="translate(43.512 19.932)">
        <g id="Grupo_13497" data-name="Grupo 13497" transform="translate(0 0)">
          <rect id="Rectángulo_3121" data-name="Rectángulo 3121" width="2.22" height="2.22" transform="translate(0 1.57) rotate(-45)" fill="#97181a"/>
        </g>
      </g>
    </g>
    <g id="distribucion" transform="translate(15.853 18.779)">
      <path id="Trazado_15081" data-name="Trazado 15081" d="M48,368h2.921v1.948H48Z" transform="translate(-44.105 -359.236)" fill="#97181a"/>
      <path id="Trazado_15082" data-name="Trazado 15082" d="M120,368h2.921v1.948H120Z" transform="translate(-107.341 -359.236)" fill="#97181a"/>
      <path id="Trazado_15083" data-name="Trazado 15083" d="M48,408h2.921v1.948H48Z" transform="translate(-44.105 -394.367)" fill="#97181a"/>
      <path id="Trazado_15084" data-name="Trazado 15084" d="M120,408h2.921v1.948H120Z" transform="translate(-107.341 -394.367)" fill="#97181a"/>
      <path id="Trazado_15085" data-name="Trazado 15085" d="M48,448h2.921v1.948H48Z" transform="translate(-44.105 -429.499)" fill="#97181a"/>
      <path id="Trazado_15086" data-name="Trazado 15086" d="M120,448h2.921v1.948H120Z" transform="translate(-107.341 -429.499)" fill="#97181a"/>
      <path id="Trazado_15087" data-name="Trazado 15087" d="M200,408h1.947v1.948H200Z" transform="translate(-177.604 -394.367)" fill="#97181a"/>
      <path id="Trazado_15088" data-name="Trazado 15088" d="M232,408h1.948v1.948H232Z" transform="translate(-205.708 -394.367)" fill="#97181a"/>
      <path id="Trazado_15089" data-name="Trazado 15089" d="M264,408h1.948v1.948H264Z" transform="translate(-233.813 -394.367)" fill="#97181a"/>
      <path id="Trazado_15090" data-name="Trazado 15090" d="M264,440h1.948v1.948H264Z" transform="translate(-233.813 -422.472)" fill="#97181a"/>
      <path id="Trazado_15091" data-name="Trazado 15091" d="M232,440h1.948v1.948H232Z" transform="translate(-205.708 -422.472)" fill="#97181a"/>
      <path id="Trazado_15092" data-name="Trazado 15092" d="M200,440h1.947v1.948H200Z" transform="translate(-177.604 -422.472)" fill="#97181a"/>
      <path id="Trazado_15093" data-name="Trazado 15093" d="M16.974,155.006H52.029a.974.974,0,0,0,.974-.974V140.4a.968.968,0,0,0-.2-.584h0l-2.921-3.9a.974.974,0,0,0-.779-.39H35.475v-3.9a.974.974,0,0,0-1.447-.851l-7.317,4.065v-3.214a.974.974,0,0,0-1.447-.851l-2.448,1.36s-2.022.824-1.948,1.082l-4.357,2.42-.006,0-.005,0h0a.973.973,0,0,0-.5.851v17.528a.974.974,0,0,0,.974.974Zm.974-17.528h6.816v15.58H17.947Zm15.58,15.58H26.711v-15.58h6.816Zm17.528,0H35.475V141.373h15.58Zm-.974-13.633H35.475v-1.948H48.621Zm-16.554-3.9H29.5l4.032-2.24Zm-8.764,0H20.732l4.032-2.24Z" transform="translate(-16 -130.662)" fill="#97181a"/>
    </g>
  </g>
</svg>
