<svg xmlns="http://www.w3.org/2000/svg" width="172.149" height="147.276" viewBox="0 0 172.149 147.276">
  <g id="Grupo_80962" data-name="Grupo 80962" transform="translate(1671.684 -1189.192)">
    <g id="Grupo_80940" data-name="Grupo 80940">
      <path id="Rectángulo_5395" data-name="Rectángulo 5395" d="M-1645.659,1240.459h122.843a2.514,2.514,0,0,1,2.514,2.514h0v88.834h-127.872v-88.834a2.514,2.514,0,0,1,2.515-2.514Z" fill="#263835"/>
      <rect id="Rectángulo_5396" data-name="Rectángulo 5396" width="122.836" height="78.51" transform="translate(-1645.656 1246.099)" fill="#40d8ff"/>
      <g id="Grupo_80938" data-name="Grupo 80938">
        <circle id="Elipse_4006" data-name="Elipse 4006" cx="1.225" cy="1.225" r="1.225" transform="translate(-1586.581 1242.275)" fill="#fff" opacity="0.2" style="isolation: isolate"/>
        <circle id="Elipse_4007" data-name="Elipse 4007" cx="0.922" cy="0.922" r="0.922" transform="translate(-1583.739 1242.577)" fill="#fff" opacity="0.2" style="isolation: isolate"/>
      </g>
      <path id="Trazado_101215" data-name="Trazado 101215" d="M-1583.736,1326.216a1.6,1.6,0,0,0-2.022,1.027,1.6,1.6,0,0,0,1.027,2.021,1.6,1.6,0,0,0,2.021-1.027,1.583,1.583,0,0,0,.079-.5c0-.03-.007-.059-.009-.088A1.6,1.6,0,0,1-1583.736,1326.216Z" fill="#fff" opacity="0.2" style="isolation: isolate"/>
      <g id="Grupo_80939" data-name="Grupo 80939">
        <path id="Trazado_101216" data-name="Trazado 101216" d="M-1510.773,1330.561v1.155a1.708,1.708,0,0,1-1.214,1.627l-8.908,2.629a11.873,11.873,0,0,1-3.407.5h-119.87a11.838,11.838,0,0,1-3.4-.5l-8.911-2.628a1.709,1.709,0,0,1-1.22-1.627v-1.156Z" fill="#263835"/>
        <path id="Trazado_101217" data-name="Trazado 101217" d="M-1510.773,1330.561v1.155a1.708,1.708,0,0,1-1.214,1.627l-8.908,2.629a11.873,11.873,0,0,1-3.407.5h-119.87a11.838,11.838,0,0,1-3.4-.5l-8.911-2.628a1.709,1.709,0,0,1-1.22-1.627v-1.156Z" fill="#fff" opacity="0.2" style="isolation: isolate"/>
        <path id="Trazado_101218" data-name="Trazado 101218" d="M-1510.773,1330.561v1.155a1.676,1.676,0,0,1-.241.867h-146.447a1.678,1.678,0,0,1-.242-.867v-1.155Z" fill="#fff" opacity="0.2" style="isolation: isolate"/>
        <path id="Trazado_101219" data-name="Trazado 101219" d="M-1573.9,1330.561v.507a.5.5,0,0,1-.5.5h-19.668a.5.5,0,0,1-.506-.5v-.511Z" opacity="0.2" style="isolation: isolate"/>
      </g>
      <path id="Trazado_101220" data-name="Trazado 101220" d="M-1522.821,1246.1s-16.985,67.426-122.835,78.51V1246.1Z" fill="#fff" opacity="0.1" style="isolation: isolate"/>
    </g>
    <g id="Grupo_80946" data-name="Grupo 80946">
      <g id="Grupo_80941" data-name="Grupo 80941">
        <path id="Trazado_101221" data-name="Trazado 101221" d="M-1534.455,1215.362v73.844l-12.3,12.3h-48.614a1.9,1.9,0,0,1-1.893-1.9h0v-84.243a1.9,1.9,0,0,1,1.893-1.9h59.015A1.9,1.9,0,0,1-1534.455,1215.362Z" fill="#40d8ff"/>
        <path id="Trazado_101222" data-name="Trazado 101222" d="M-1534.455,1218.585v70.621l-12.3,12.3h-48.614a1.9,1.9,0,0,1-1.893-1.9h0v-81.02Z" fill="#fff" opacity="0.6" style="isolation: isolate"/>
        <path id="Trazado_101223" data-name="Trazado 101223" d="M-1536.1,1215.809a.916.916,0,0,1-.916.916.916.916,0,0,1-.916-.916.916.916,0,0,1,.916-.916h0A.916.916,0,0,1-1536.1,1215.809Z" fill="#fff" opacity="0.6" style="isolation: isolate"/>
        <path id="Trazado_101224" data-name="Trazado 101224" d="M-1539.6,1215.809a.916.916,0,0,1-.916.916.916.916,0,0,1-.916-.916.916.916,0,0,1,.916-.916h0A.916.916,0,0,1-1539.6,1215.809Z" fill="#fff" opacity="0.6" style="isolation: isolate"/>
        <path id="Trazado_101225" data-name="Trazado 101225" d="M-1543.095,1215.809a.916.916,0,0,1-.916.916.916.916,0,0,1-.916-.916.916.916,0,0,1,.916-.916h0A.916.916,0,0,1-1543.095,1215.809Z" fill="#fff" opacity="0.6" style="isolation: isolate"/>
      </g>
      <g id="Grupo_80942" data-name="Grupo 80942">
        <path id="Trazado_101226" data-name="Trazado 101226" d="M-1559.086,1224.277h-33.664a.59.59,0,0,1-.59-.589.589.589,0,0,1,.59-.589h33.664a.589.589,0,0,1,.589.589A.589.589,0,0,1-1559.086,1224.277Z" fill="#40d8ff"/>
        <path id="Trazado_101227" data-name="Trazado 101227" d="M-1568.6,1227.5h-24.147a.589.589,0,0,1-.59-.589.59.59,0,0,1,.59-.589h24.147a.589.589,0,0,1,.589.589A.588.588,0,0,1-1568.6,1227.5Z" fill="#40d8ff"/>
      </g>
      <g id="Grupo_80943" data-name="Grupo 80943">
        <path id="Trazado_101228" data-name="Trazado 101228" d="M-1542.507,1277.292h-43.048a.59.59,0,0,1-.589-.59.589.589,0,0,1,.589-.589h43.048a.589.589,0,0,1,.589.589A.59.59,0,0,1-1542.507,1277.292Z" fill="#40d8ff"/>
        <path id="Trazado_101229" data-name="Trazado 101229" d="M-1549.7,1290.174h-43.048a.589.589,0,0,1-.59-.589.59.59,0,0,1,.59-.59h43.047a.589.589,0,0,1,.589.59.589.589,0,0,1-.589.589Z" fill="#40d8ff"/>
        <path id="Trazado_101230" data-name="Trazado 101230" d="M-1542.507,1280.512h-50.243a.589.589,0,0,1-.59-.589.59.59,0,0,1,.59-.589h50.243a.589.589,0,0,1,.589.589A.589.589,0,0,1-1542.507,1280.512Z" fill="#40d8ff"/>
        <path id="Trazado_101231" data-name="Trazado 101231" d="M-1542.507,1283.733h-50.243a.59.59,0,0,1-.59-.589.589.589,0,0,1,.59-.589h50.243a.589.589,0,0,1,.589.589A.589.589,0,0,1-1542.507,1283.733Z" fill="#40d8ff"/>
        <path id="Trazado_101232" data-name="Trazado 101232" d="M-1542.507,1286.953h-50.243a.59.59,0,0,1-.59-.589.589.589,0,0,1,.59-.589h50.243a.589.589,0,0,1,.589.589A.589.589,0,0,1-1542.507,1286.953Z" fill="#40d8ff"/>
      </g>
      <path id="Trazado_101233" data-name="Trazado 101233" d="M-1534.455,1289.206l-12.3,12.3v-12.3Z" fill="#40d8ff" opacity="0.5" style="isolation: isolate"/>
      <rect id="Rectángulo_5397" data-name="Rectángulo 5397" width="3.474" height="70.62" transform="translate(-1537.929 1218.585)" opacity="0.4" style="isolation: isolate"/>
      <path id="Trazado_101234" data-name="Trazado 101234" d="M-1536.193,1255.484h0a1.279,1.279,0,0,1-1.28-1.277v-7.215a1.279,1.279,0,0,1,1.278-1.279h0a1.279,1.279,0,0,1,1.279,1.279h0v7.213A1.279,1.279,0,0,1-1536.193,1255.484Z" fill="#40d8ff"/>
      <g id="Grupo_80944" data-name="Grupo 80944">
        <path id="Trazado_101235" data-name="Trazado 101235" d="M-1542.507,1259.606h-43.048a.589.589,0,0,1-.589-.589.589.589,0,0,1,.589-.589h43.048a.589.589,0,0,1,.589.589A.589.589,0,0,1-1542.507,1259.606Z" fill="#40d8ff"/>
        <path id="Trazado_101236" data-name="Trazado 101236" d="M-1549.7,1272.488h-43.048a.59.59,0,0,1-.59-.589.589.589,0,0,1,.59-.589h43.047a.588.588,0,0,1,.589.589.589.589,0,0,1-.589.589Z" fill="#40d8ff"/>
        <path id="Trazado_101237" data-name="Trazado 101237" d="M-1542.507,1262.826h-50.243a.59.59,0,0,1-.59-.589.589.589,0,0,1,.59-.589h50.243a.589.589,0,0,1,.589.589A.589.589,0,0,1-1542.507,1262.826Z" fill="#40d8ff"/>
        <path id="Trazado_101238" data-name="Trazado 101238" d="M-1542.507,1266.047h-50.243a.59.59,0,0,1-.59-.589.59.59,0,0,1,.59-.589h50.243a.589.589,0,0,1,.589.589A.589.589,0,0,1-1542.507,1266.047Z" fill="#40d8ff"/>
        <path id="Trazado_101239" data-name="Trazado 101239" d="M-1542.507,1269.267h-50.243a.589.589,0,0,1-.59-.589.59.59,0,0,1,.59-.589h50.243a.589.589,0,0,1,.589.589A.589.589,0,0,1-1542.507,1269.267Z" fill="#40d8ff"/>
      </g>
      <rect id="Rectángulo_5398" data-name="Rectángulo 5398" width="50.395" height="18.803" transform="translate(-1592.902 1231.339)" fill="#40d8ff"/>
      <path id="Trazado_101240" data-name="Trazado 101240" d="M-1592.9,1247.125h1.369v-3.417h1.579v-6.751h2.2v4.153h3.032v5.526h3.615v-3.85h2.987l1.979-1.978v-4.582h1.2v6.562h3.044v2.334h3.149v-11.911l.87-.871v3.267h2.013v1.467l1.93,1.93v3.485h2.768v-2.757h7.231v-2.062h1.632v-3.594h.583v5.651h.923l2.079-2.08h1.96v-1.88h.985v1.9h1.283v7.8h1.391v-3.888l.589.036v-10.276h-50.4Z" opacity="0.2" style="isolation: isolate"/>
      <g id="Grupo_80945" data-name="Grupo 80945">
        <path id="Trazado_101241" data-name="Trazado 101241" d="M-1542.507,1253.12h-13.571a.588.588,0,0,1-.589-.589.589.589,0,0,1,.589-.589h13.571a.589.589,0,0,1,.589.589A.589.589,0,0,1-1542.507,1253.12Z" fill="#40d8ff"/>
      </g>
      <path id="Trazado_101242" data-name="Trazado 101242" d="M-1572.94,1213.464v61.029l-9.279,9.279h-15.04v-68.41a1.9,1.9,0,0,1,1.893-1.9h22.426Z" opacity="0.2" style="isolation: isolate"/>
      <path id="Trazado_101243" data-name="Trazado 101243" d="M-1536.193,1255.484h0a1.279,1.279,0,0,1-1.28-1.277v-7.215a1.279,1.279,0,0,1,1.278-1.279h0a1.279,1.279,0,0,1,1.279,1.279h0v7.213A1.279,1.279,0,0,1-1536.193,1255.484Z" fill="#fff" opacity="0.4" style="isolation: isolate"/>
    </g>
    <g id="Grupo_80953" data-name="Grupo 80953">
      <g id="Grupo_80947" data-name="Grupo 80947">
        <path id="Trazado_101244" data-name="Trazado 101244" d="M-1608.879,1224.564v73.847l-12.3,12.3h-48.613a1.9,1.9,0,0,1-1.892-1.9v-84.243a1.9,1.9,0,0,1,1.892-1.9h59.013A1.9,1.9,0,0,1-1608.879,1224.564Z" fill="#40d8ff"/>
        <path id="Trazado_101245" data-name="Trazado 101245" d="M-1608.88,1227.792v70.62l-12.3,12.3h-48.613a1.9,1.9,0,0,1-1.892-1.9h0v-81.019Z" fill="#fff" opacity="0.6" style="isolation: isolate"/>
        <path id="Trazado_101246" data-name="Trazado 101246" d="M-1610.523,1225.016a.916.916,0,0,1-.915.916.916.916,0,0,1-.916-.916.916.916,0,0,1,.916-.915.915.915,0,0,1,.915.915Z" fill="#fff" opacity="0.6" style="isolation: isolate"/>
        <path id="Trazado_101247" data-name="Trazado 101247" d="M-1614.021,1225.016a.917.917,0,0,1-.915.917.917.917,0,0,1-.917-.916.915.915,0,0,1,.915-.916h0A.915.915,0,0,1-1614.021,1225.016Z" fill="#fff" opacity="0.6" style="isolation: isolate"/>
        <path id="Trazado_101248" data-name="Trazado 101248" d="M-1617.52,1225.016a.916.916,0,0,1-.915.917.917.917,0,0,1-.917-.916.916.916,0,0,1,.916-.916h0A.915.915,0,0,1-1617.52,1225.016Z" fill="#fff" opacity="0.6" style="isolation: isolate"/>
      </g>
      <g id="Grupo_80948" data-name="Grupo 80948">
        <path id="Trazado_101249" data-name="Trazado 101249" d="M-1656.719,1233.8h-10.456a.588.588,0,0,1-.589-.589.589.589,0,0,1,.589-.589h10.456a.589.589,0,0,1,.589.589A.589.589,0,0,1-1656.719,1233.8Z" fill="#40d8ff"/>
        <path id="Trazado_101250" data-name="Trazado 101250" d="M-1651.787,1237.02h-15.388a.588.588,0,0,1-.589-.589.589.589,0,0,1,.589-.589h15.388a.589.589,0,0,1,.589.589A.589.589,0,0,1-1651.787,1237.02Z" fill="#40d8ff"/>
        <path id="Trazado_101251" data-name="Trazado 101251" d="M-1656.545,1240.242h-10.63a.589.589,0,0,1-.589-.589.589.589,0,0,1,.589-.59h10.63a.59.59,0,0,1,.589.59A.589.589,0,0,1-1656.545,1240.242Z" fill="#40d8ff"/>
      </g>
      <g id="Grupo_80949" data-name="Grupo 80949">
        <path id="Trazado_101252" data-name="Trazado 101252" d="M-1616.933,1292.983h-43.047a.589.589,0,0,1-.589-.589.589.589,0,0,1,.589-.589h43.047a.589.589,0,0,1,.589.589A.589.589,0,0,1-1616.933,1292.983Z" fill="#40d8ff"/>
        <path id="Trazado_101253" data-name="Trazado 101253" d="M-1640.514,1296.2h-26.661a.588.588,0,0,1-.589-.589.589.589,0,0,1,.589-.589h26.661a.589.589,0,0,1,.589.589A.589.589,0,0,1-1640.514,1296.2Z" fill="#40d8ff"/>
      </g>
      <path id="Trazado_101254" data-name="Trazado 101254" d="M-1608.881,1298.412l-12.3,12.3v-12.3Z" fill="#40d8ff" opacity="0.5" style="isolation: isolate"/>
      <rect id="Rectángulo_5399" data-name="Rectángulo 5399" width="3.474" height="70.62" transform="translate(-1612.355 1227.792)" opacity="0.4" style="isolation: isolate"/>
      <path id="Trazado_101255" data-name="Trazado 101255" d="M-1610.618,1293.579h0a1.279,1.279,0,0,1-1.279-1.279h0v-7.214a1.279,1.279,0,0,1,1.279-1.279h0a1.279,1.279,0,0,1,1.279,1.279v7.214A1.279,1.279,0,0,1-1610.618,1293.579Z" fill="#40d8ff"/>
      <g id="Grupo_80950" data-name="Grupo 80950">
        <path id="Trazado_101256" data-name="Trazado 101256" d="M-1616.933,1233.8h-8.1a.588.588,0,0,1-.589-.589.589.589,0,0,1,.589-.589h8.1a.589.589,0,0,1,.589.589.589.589,0,0,1-.589.589Z" fill="#40d8ff"/>
        <path id="Trazado_101257" data-name="Trazado 101257" d="M-1616.932,1237.02h-4.187a.589.589,0,0,1-.589-.589.589.589,0,0,1,.589-.589h4.187a.589.589,0,0,1,.589.589A.589.589,0,0,1-1616.932,1237.02Z" fill="#40d8ff"/>
      </g>
      <g id="Grupo_80951" data-name="Grupo 80951">
        <path id="Trazado_101258" data-name="Trazado 101258" d="M-1616.933,1248.768h-43.047a.589.589,0,0,1-.589-.589.589.589,0,0,1,.589-.589h43.047a.589.589,0,0,1,.589.589A.589.589,0,0,1-1616.933,1248.768Z" fill="#40d8ff"/>
        <path id="Trazado_101259" data-name="Trazado 101259" d="M-1616.933,1251.988h-50.242a.589.589,0,0,1-.589-.589.589.589,0,0,1,.589-.589h50.242a.589.589,0,0,1,.589.589A.589.589,0,0,1-1616.933,1251.988Z" fill="#40d8ff"/>
        <path id="Trazado_101260" data-name="Trazado 101260" d="M-1646.409,1255.209h-20.766a.588.588,0,0,1-.589-.589.589.589,0,0,1,.589-.589h20.766a.589.589,0,0,1,.589.589A.589.589,0,0,1-1646.409,1255.209Z" fill="#40d8ff"/>
      </g>
      <g id="Grupo_80952" data-name="Grupo 80952">
        <rect id="Rectángulo_5400" data-name="Rectángulo 5400" width="19.794" height="5.303" transform="translate(-1658.839 1259.483)" fill="#40d8ff" opacity="0.7" style="isolation: isolate"/>
        <rect id="Rectángulo_5401" data-name="Rectángulo 5401" width="8.969" height="19.59" transform="translate(-1658.839 1265.965)" fill="#40d8ff" opacity="0.3" style="isolation: isolate"/>
        <rect id="Rectángulo_5402" data-name="Rectángulo 5402" width="10.302" height="19.59" transform="translate(-1637.866 1265.965)" fill="#40d8ff" opacity="0.3" style="isolation: isolate"/>
        <rect id="Rectángulo_5403" data-name="Rectángulo 5403" width="20.934" height="5.303" transform="translate(-1637.866 1259.483)" fill="#40d8ff" opacity="0.7" style="isolation: isolate"/>
        <rect id="Rectángulo_5404" data-name="Rectángulo 5404" width="9.453" height="19.59" transform="translate(-1626.385 1265.965)" fill="#40d8ff" opacity="0.3" style="isolation: isolate"/>
        <rect id="Rectángulo_5405" data-name="Rectángulo 5405" width="7.157" height="19.59" transform="translate(-1667.175 1265.965)" fill="#40d8ff" opacity="0.5" style="isolation: isolate"/>
        <rect id="Rectángulo_5406" data-name="Rectángulo 5406" width="7.157" height="5.303" transform="translate(-1667.175 1259.483)" fill="#40d8ff"/>
        <rect id="Rectángulo_5407" data-name="Rectángulo 5407" width="9.646" height="19.59" transform="translate(-1648.691 1265.965)" fill="#40d8ff" opacity="0.3" style="isolation: isolate"/>
      </g>
      <path id="Trazado_101261" data-name="Trazado 101261" d="M-1610.618,1293.579h0a1.279,1.279,0,0,1-1.279-1.279h0v-7.214a1.279,1.279,0,0,1,1.279-1.279h0a1.279,1.279,0,0,1,1.279,1.279v7.214A1.279,1.279,0,0,1-1610.618,1293.579Z" fill="#fff" opacity="0.4" style="isolation: isolate"/>
      <path id="Trazado_101262" data-name="Trazado 101262" d="M-1608.879,1224.564v61.43h-35.566a1.9,1.9,0,0,1-1.893-1.9h0v-61.429h35.561A1.9,1.9,0,0,1-1608.879,1224.564Z" opacity="0.2" style="isolation: isolate"/>
    </g>
    <g id="Grupo_80959" data-name="Grupo 80959">
      <g id="Grupo_80954" data-name="Grupo 80954">
        <path id="Trazado_101263" data-name="Trazado 101263" d="M-1577.656,1191.089v73.845l-12.3,12.3h-48.613a1.9,1.9,0,0,1-1.893-1.9V1191.09a1.9,1.9,0,0,1,1.893-1.9h59.013A1.9,1.9,0,0,1-1577.656,1191.089Z" fill="#40d8ff"/>
        <path id="Trazado_101264" data-name="Trazado 101264" d="M-1577.656,1194.313v70.621l-12.3,12.3h-48.613a1.9,1.9,0,0,1-1.893-1.9v-81.02Z" fill="#fff" opacity="0.6" style="isolation: isolate"/>
        <circle id="Elipse_4008" data-name="Elipse 4008" cx="0.916" cy="0.916" r="0.916" transform="translate(-1581.13 1190.621)" fill="#fff" opacity="0.6" style="isolation: isolate"/>
        <circle id="Elipse_4009" data-name="Elipse 4009" cx="0.916" cy="0.916" r="0.916" transform="translate(-1584.629 1190.621)" fill="#fff" opacity="0.6" style="isolation: isolate"/>
        <path id="Trazado_101265" data-name="Trazado 101265" d="M-1586.3,1191.537a.914.914,0,0,1-.916.915.915.915,0,0,1-.915-.916.916.916,0,0,1,.916-.915A.917.917,0,0,1-1586.3,1191.537Z" fill="#fff" opacity="0.6" style="isolation: isolate"/>
      </g>
      <g id="Grupo_80955" data-name="Grupo 80955">
        <path id="Trazado_101266" data-name="Trazado 101266" d="M-1604.825,1200.321h-12.009a.589.589,0,0,1-.589-.589.589.589,0,0,1,.589-.589h12.009a.589.589,0,0,1,.589.589A.589.589,0,0,1-1604.825,1200.321Z" fill="#40d8ff"/>
        <path id="Trazado_101267" data-name="Trazado 101267" d="M-1599.893,1203.542h-21.873a.589.589,0,0,1-.589-.589.589.589,0,0,1,.589-.589h21.873a.588.588,0,0,1,.589.589A.589.589,0,0,1-1599.893,1203.542Z" fill="#40d8ff"/>
        <path id="Trazado_101268" data-name="Trazado 101268" d="M-1604.65,1206.762h-12.358a.588.588,0,0,1-.589-.589.589.589,0,0,1,.589-.589h12.357a.589.589,0,0,1,.589.589.589.589,0,0,1-.589.589Z" fill="#40d8ff"/>
      </g>
      <g id="Grupo_80956" data-name="Grupo 80956">
        <path id="Trazado_101269" data-name="Trazado 101269" d="M-1585.708,1215.289h-43.047a.589.589,0,0,1-.589-.589.589.589,0,0,1,.589-.59h43.047a.59.59,0,0,1,.59.59.589.589,0,0,1-.59.589Z" fill="#40d8ff"/>
        <path id="Trazado_101270" data-name="Trazado 101270" d="M-1592.9,1228.17h-43.048a.589.589,0,0,1-.589-.589.589.589,0,0,1,.589-.589h43.048a.589.589,0,0,1,.589.589A.589.589,0,0,1-1592.9,1228.17Z" fill="#40d8ff"/>
        <path id="Trazado_101271" data-name="Trazado 101271" d="M-1585.708,1218.509h-50.243a.589.589,0,0,1-.589-.589.589.589,0,0,1,.589-.589h50.243a.589.589,0,0,1,.589.589A.588.588,0,0,1-1585.708,1218.509Z" fill="#40d8ff"/>
        <path id="Trazado_101272" data-name="Trazado 101272" d="M-1585.708,1221.731h-50.243a.589.589,0,0,1-.589-.589.589.589,0,0,1,.589-.589h50.243a.589.589,0,0,1,.589.589A.589.589,0,0,1-1585.708,1221.731Z" fill="#40d8ff"/>
        <path id="Trazado_101273" data-name="Trazado 101273" d="M-1585.708,1224.951h-50.243a.589.589,0,0,1-.589-.589.589.589,0,0,1,.589-.589h50.243a.588.588,0,0,1,.589.589A.589.589,0,0,1-1585.708,1224.951Z" fill="#40d8ff"/>
      </g>
      <g id="Grupo_80957" data-name="Grupo 80957">
        <path id="Trazado_101274" data-name="Trazado 101274" d="M-1585.708,1247.713h-43.047a.588.588,0,0,1-.589-.589.589.589,0,0,1,.589-.589h43.047a.589.589,0,0,1,.59.589.589.589,0,0,1-.59.589Z" fill="#40d8ff"/>
        <path id="Trazado_101275" data-name="Trazado 101275" d="M-1592.9,1260.6h-43.048a.589.589,0,0,1-.589-.589.589.589,0,0,1,.589-.589h43.048a.589.589,0,0,1,.589.589A.589.589,0,0,1-1592.9,1260.6Z" fill="#40d8ff"/>
        <path id="Trazado_101276" data-name="Trazado 101276" d="M-1585.708,1250.935h-50.243a.589.589,0,0,1-.589-.589.59.59,0,0,1,.589-.59h50.243a.589.589,0,0,1,.589.59A.589.589,0,0,1-1585.708,1250.935Z" fill="#40d8ff"/>
        <path id="Trazado_101277" data-name="Trazado 101277" d="M-1585.708,1254.155h-50.243a.589.589,0,0,1-.589-.589.589.589,0,0,1,.589-.589h50.243a.588.588,0,0,1,.589.589A.589.589,0,0,1-1585.708,1254.155Z" fill="#40d8ff"/>
        <path id="Trazado_101278" data-name="Trazado 101278" d="M-1585.708,1257.375h-50.243a.589.589,0,0,1-.589-.589.589.589,0,0,1,.589-.589h50.243a.589.589,0,0,1,.589.589A.588.588,0,0,1-1585.708,1257.375Z" fill="#40d8ff"/>
      </g>
      <rect id="Rectángulo_5408" data-name="Rectángulo 5408" width="6.031" height="8.03" transform="translate(-1591.739 1199.026)" fill="#40d8ff"/>
      <circle id="Elipse_4010" data-name="Elipse 4010" cx="3.343" cy="3.343" r="3.343" transform="translate(-1635.951 1199.026)" fill="#40d8ff"/>
      <g id="Grupo_80958" data-name="Grupo 80958">
        <path id="Trazado_101279" data-name="Trazado 101279" d="M-1636.142,1232.385a.706.706,0,0,0,.707.707.707.707,0,0,0,.707-.707.708.708,0,0,0-.707-.707.707.707,0,0,0-.707.707Z" fill="#40d8ff"/>
        <path id="Trazado_101280" data-name="Trazado 101280" d="M-1636.142,1235.606a.707.707,0,0,0,.707.707.708.708,0,0,0,.707-.707.708.708,0,0,0-.707-.707.707.707,0,0,0-.707.707Z" fill="#40d8ff"/>
        <path id="Trazado_101281" data-name="Trazado 101281" d="M-1636.142,1238.827a.707.707,0,0,0,.707.707.708.708,0,0,0,.707-.707.707.707,0,0,0-.707-.707.706.706,0,0,0-.707.707Z" fill="#40d8ff"/>
        <path id="Trazado_101282" data-name="Trazado 101282" d="M-1636.142,1242.047a.706.706,0,0,0,.707.707.707.707,0,0,0,.707-.707.708.708,0,0,0-.707-.707.707.707,0,0,0-.707.707Z" fill="#40d8ff"/>
        <path id="Trazado_101283" data-name="Trazado 101283" d="M-1625.328,1232.974H-1633a.589.589,0,0,1-.589-.589.589.589,0,0,1,.589-.589h7.675a.589.589,0,0,1,.589.589A.589.589,0,0,1-1625.328,1232.974Z" fill="#40d8ff"/>
        <path id="Trazado_101284" data-name="Trazado 101284" d="M-1618.132,1236.2H-1633a.589.589,0,0,1-.589-.589.59.59,0,0,1,.589-.59h14.871a.59.59,0,0,1,.589.59A.589.589,0,0,1-1618.132,1236.2Z" fill="#40d8ff"/>
        <path id="Trazado_101285" data-name="Trazado 101285" d="M-1626.978,1239.416H-1633a.589.589,0,0,1-.589-.589.589.589,0,0,1,.589-.589h6.025a.589.589,0,0,1,.589.589A.588.588,0,0,1-1626.978,1239.416Z" fill="#40d8ff"/>
        <path id="Trazado_101286" data-name="Trazado 101286" d="M-1620.49,1242.636H-1633a.589.589,0,0,1-.589-.589.589.589,0,0,1,.589-.589h12.513a.589.589,0,0,1,.589.589A.589.589,0,0,1-1620.49,1242.636Z" fill="#40d8ff"/>
      </g>
      <path id="Trazado_101287" data-name="Trazado 101287" d="M-1577.656,1264.933l-12.3,12.3v-12.3Z" fill="#40d8ff" opacity="0.5" style="isolation: isolate"/>
      <path id="Trazado_101288" data-name="Trazado 101288" d="M-1585.708,1199.026l-6.031,8.03h6.031Z" opacity="0.2" style="isolation: isolate"/>
      <rect id="Rectángulo_5409" data-name="Rectángulo 5409" width="3.906" height="3.906" transform="translate(-1634.56 1200.415)" opacity="0.2" style="isolation: isolate"/>
      <rect id="Rectángulo_5410" data-name="Rectángulo 5410" width="3.474" height="70.62" transform="translate(-1581.13 1194.313)" opacity="0.4" style="isolation: isolate"/>
      <path id="Trazado_101289" data-name="Trazado 101289" d="M-1579.394,1207.631h0a1.279,1.279,0,0,1-1.278-1.279v-7.214a1.279,1.279,0,0,1,1.278-1.279h0a1.279,1.279,0,0,1,1.279,1.279v7.214A1.279,1.279,0,0,1-1579.394,1207.631Z" fill="#40d8ff"/>
      <path id="Trazado_101290" data-name="Trazado 101290" d="M-1579.394,1207.631h0a1.279,1.279,0,0,1-1.278-1.279v-7.214a1.279,1.279,0,0,1,1.278-1.279h0a1.279,1.279,0,0,1,1.279,1.279v7.214A1.279,1.279,0,0,1-1579.394,1207.631Z" fill="#fff" opacity="0.4" style="isolation: isolate"/>
    </g>
    <g id="Grupo_80961" data-name="Grupo 80961">
      <path id="Trazado_101291" data-name="Trazado 101291" d="M-1502.52,1283.586H-1523.1a2.986,2.986,0,0,0-2.986,2.986v20.01a2.986,2.986,0,0,0,2.986,2.986h8.356l-.9,6.028,4.132-6.028h8.993a2.986,2.986,0,0,0,2.986-2.986v-20.01A2.985,2.985,0,0,0-1502.52,1283.586Z" fill="#40d8ff"/>
      <path id="Trazado_101292" data-name="Trazado 101292" d="M-1502.52,1283.586H-1523.1a2.986,2.986,0,0,0-2.986,2.986v20.01a2.986,2.986,0,0,0,2.986,2.986h8.356l-.9,6.028,4.132-6.028h8.993a2.986,2.986,0,0,0,2.986-2.986v-20.01A2.985,2.985,0,0,0-1502.52,1283.586Z" fill="#fff" opacity="0.6" style="isolation: isolate"/>
      <g id="Grupo_80960" data-name="Grupo 80960">
        <path id="Trazado_101293" data-name="Trazado 101293" d="M-1511.938,1292.338a4.25,4.25,0,0,0-.612-1.473l.53-.637-1.129-1.129-.637.53a4.3,4.3,0,0,0-1.473-.612l-.077-.822h-1.6l-.077.822a4.288,4.288,0,0,0-1.473.612l-.638-.53-1.128,1.129.53.637a4.275,4.275,0,0,0-.613,1.473l-.825.077v1.6l.825.077a4.275,4.275,0,0,0,.613,1.473l-.53.638,1.128,1.128.638-.53a4.263,4.263,0,0,0,1.473.613l.077.822h1.6l.077-.822a4.271,4.271,0,0,0,1.473-.613l.637.53,1.129-1.128-.53-.638a4.242,4.242,0,0,0,.612-1.473l.825-.077v-1.6Zm-2.04.875a2.161,2.161,0,0,1-2.16,2.161,2.16,2.16,0,0,1-2.16-2.16,2.16,2.16,0,0,1,2.159-2.161h0a2.161,2.161,0,0,1,2.161,2.16Z" fill="#f5f5f5"/>
        <path id="Trazado_101294" data-name="Trazado 101294" d="M-1512.086,1304.7h1.25l.059-.644a3.318,3.318,0,0,0,1.156-.48l.5.413.884-.884-.412-.5a3.345,3.345,0,0,0,.48-1.155l.644-.059v-1.251l-.644-.059a3.345,3.345,0,0,0-.48-1.155l.412-.5-.884-.884-.5.413a3.338,3.338,0,0,0-1.156-.481l-.059-.643h-1.25l-.059.643a3.341,3.341,0,0,0-1.155.481l-.5-.413-.883.884.412.5a3.347,3.347,0,0,0-.481,1.155l-.644.059v1.251l.644.059a3.347,3.347,0,0,0,.481,1.155l-.412.5.883.884.5-.413a3.361,3.361,0,0,0,1.155.48Zm.625-2.242a1.693,1.693,0,0,1-1.693-1.693,1.693,1.693,0,0,1,1.693-1.694,1.693,1.693,0,0,1,1.693,1.694,1.692,1.692,0,0,1-1.689,1.7h0Z" fill="#f5f5f5"/>
        <path id="Trazado_101295" data-name="Trazado 101295" d="M-1507.863,1297.222l.15.522,1.032-.2-.05-.541a2.807,2.807,0,0,0,.879-.576l.476.264.592-.869-.418-.347a2.818,2.818,0,0,0,.216-1.029l.522-.15-.2-1.032-.541.051a2.78,2.78,0,0,0-.576-.879l.263-.477-.867-.589-.348.419a2.794,2.794,0,0,0-1.028-.216l-.15-.522-1.033.195.05.541a2.8,2.8,0,0,0-.878.576l-.477-.264-.592.869.419.347a2.8,2.8,0,0,0-.216,1.029l-.522.15.2,1.031.541-.05a2.811,2.811,0,0,0,.576.879l-.264.477.869.589.347-.419A2.818,2.818,0,0,0-1507.863,1297.222Zm.316-1.426a1.422,1.422,0,0,1-1.661-1.134,1.423,1.423,0,0,1,1.135-1.661,1.422,1.422,0,0,1,1.66,1.134,1.421,1.421,0,0,1-1.133,1.661Z" fill="#f5f5f5"/>
      </g>
    </g>
  </g>
</svg>
