<svg xmlns="http://www.w3.org/2000/svg" width="341.421" height="282.383" viewBox="0 0 341.421 282.383">
  <g id="Grupo_86651" data-name="Grupo 86651" transform="translate(-119.09 -116.811)">
    <g id="Grupo_86771" data-name="Grupo 86771" transform="translate(334.578 141.099)">
      <g id="Grupo_86666" data-name="Grupo 86666">
        <g id="Grupo_86665" data-name="Grupo 86665">
          <g id="Grupo_86664" data-name="Grupo 86664">
            <g id="Grupo_86657" data-name="Grupo 86657">
              <g id="Grupo_86656" data-name="Grupo 86656">
                <g id="Grupo_86655" data-name="Grupo 86655">
                  <g id="Grupo_86654" data-name="Grupo 86654">
                    <g id="Grupo_86653" data-name="Grupo 86653">
                      <g id="Grupo_86652" data-name="Grupo 86652">
                        <path id="Trazado_140270" data-name="Trazado 140270" d="M378.49,392.108l-87.69-.052a19.1,19.1,0,0,1-19.089-19.1l.042-219.839a19.1,19.1,0,0,1,19.113-19.1l87.69.052a19.1,19.1,0,0,1,19.089,19.1L397.6,373.01A19.1,19.1,0,0,1,378.49,392.108Z" transform="translate(-271.711 -134.013)" fill="#0b1330"/>
                      </g>
                    </g>
                  </g>
                </g>
              </g>
            </g>
            <g id="Grupo_86663" data-name="Grupo 86663" transform="translate(5.81 7.777)">
              <g id="Grupo_86662" data-name="Grupo 86662">
                <g id="Grupo_86661" data-name="Grupo 86661">
                  <g id="Grupo_86660" data-name="Grupo 86660">
                    <g id="Grupo_86659" data-name="Grupo 86659">
                      <g id="Grupo_86658" data-name="Grupo 86658">
                        <path id="Trazado_140271" data-name="Trazado 140271" d="M376.768,139.572l-17-.01a4.223,4.223,0,0,0-4.128,4.313v3.084a4.222,4.222,0,0,1-4.128,4.313l-33.139-.02a4.227,4.227,0,0,1-4.128-4.318v-3.084a4.229,4.229,0,0,0-4.128-4.319l-5.979,0-14.88-.008A13.377,13.377,0,0,0,275.868,152.9l-.042,214.578A13.377,13.377,0,0,0,289.2,380.855l87.515.052a13.378,13.378,0,0,0,13.385-13.375l.042-214.58A13.377,13.377,0,0,0,376.768,139.572Z" transform="translate(-275.826 -139.521)" fill="#fff"/>
                      </g>
                    </g>
                  </g>
                </g>
              </g>
            </g>
          </g>
        </g>
      </g>
      <g id="Grupo_86731" data-name="Grupo 86731" transform="translate(5.466 7.811)">
        <g id="Grupo_86707" data-name="Grupo 86707">
          <g id="Grupo_86677" data-name="Grupo 86677">
            <g id="Grupo_86676" data-name="Grupo 86676">
              <g id="Grupo_86675" data-name="Grupo 86675">
                <g id="Grupo_86674" data-name="Grupo 86674">
                  <g id="Grupo_86673" data-name="Grupo 86673">
                    <g id="Grupo_86672" data-name="Grupo 86672">
                      <g id="Grupo_86671" data-name="Grupo 86671">
                        <g id="Grupo_86670" data-name="Grupo 86670">
                          <g id="Grupo_86669" data-name="Grupo 86669">
                            <g id="Grupo_86668" data-name="Grupo 86668">
                              <g id="Grupo_86667" data-name="Grupo 86667">
                                <path id="Trazado_140272" data-name="Trazado 140272" d="M377.034,139.731s.154,0,.46.014a9.955,9.955,0,0,1,1.36.1,12.64,12.64,0,0,1,5.035,1.739,12.868,12.868,0,0,1,3.062,2.481,13.413,13.413,0,0,1,2.556,4.007,13.911,13.911,0,0,1,1.005,5.449q0,2.971.007,6.327c.011,17.882.027,43.754.045,75.72s.011,70.035.018,112.3q0,7.925,0,16.044,0,2.029,0,4.07a14.341,14.341,0,0,1-.514,4.095,13.579,13.579,0,0,1-1.714,3.781,14.531,14.531,0,0,1-2.8,3.1,13.581,13.581,0,0,1-7.75,3.007c-2.814.083-5.608.021-8.435.038l-17.093-.007-35.078-.018-17.94-.008-9.062-.006a14.178,14.178,0,0,1-8.74-2.414,13.735,13.735,0,0,1-5.32-7.348,14.753,14.753,0,0,1-.561-4.541v-4.525q0-9.033,0-17.945.006-17.82.01-35.087c.008-23,.017-45.191.024-66.329s.02-41.221.03-60.019q.009-14.1.017-27.2,0-1.635,0-3.256c.007-.539.047-1.087.075-1.627.095-.535.137-1.079.275-1.6a13.733,13.733,0,0,1,2.822-5.687,13.622,13.622,0,0,1,10.944-4.849l11.7.013,5.628.007,2.758,0a4.3,4.3,0,0,1,2.642.738,4.444,4.444,0,0,1,1.642,2.156,7.186,7.186,0,0,1,.272,2.652c0,.436,0,.873,0,1.306a9.792,9.792,0,0,0,.042,1.279,4.245,4.245,0,0,0,1,2.246,3.96,3.96,0,0,0,2.052,1.274,4.535,4.535,0,0,0,1.209.119h1.237l4.844.007,17.7.027,7.8.013c.616-.011,1.242.028,1.827-.024a3.924,3.924,0,0,0,1.643-.577,4.25,4.25,0,0,0,1.881-2.7,7.411,7.411,0,0,0,.1-1.629c0-.542,0-1.079,0-1.605a9.169,9.169,0,0,1,.071-1.564,4.57,4.57,0,0,1,.507-1.439,4.23,4.23,0,0,1,2.142-1.893,6.751,6.751,0,0,1,2.666-.285l8.706.024,5.353.021c1.207.008,1.824.021,1.824.021s-.617.013-1.824.018l-5.353.016-8.706.013a6.652,6.652,0,0,0-2.621.285,4.119,4.119,0,0,0-2.074,1.844,4.437,4.437,0,0,0-.487,1.4,9.121,9.121,0,0,0-.064,1.543v1.605a7.619,7.619,0,0,1-.1,1.66,4.4,4.4,0,0,1-1.943,2.805,4.085,4.085,0,0,1-1.707.6c-.621.055-1.223.016-1.847.028l-7.8,0-17.7,0h-6.081a4.8,4.8,0,0,1-1.262-.123,4.185,4.185,0,0,1-2.169-1.343,4.463,4.463,0,0,1-1.059-2.365,9.942,9.942,0,0,1-.047-1.309v-1.306a6.992,6.992,0,0,0-.263-2.571,4.19,4.19,0,0,0-1.554-2.037,4.047,4.047,0,0,0-2.5-.692H289.784a13.339,13.339,0,0,0-10.728,4.761,13.454,13.454,0,0,0-2.759,5.57c-.136.511-.175,1.042-.267,1.566-.028.531-.066,1.059-.073,1.6v3.256q0,13.088.006,27.2c0,18.8,0,38.883.006,60.02s0,43.325,0,66.328q0,17.254,0,35.087,0,8.91,0,17.947v4.524a14.42,14.42,0,0,0,.545,4.433,13.358,13.358,0,0,0,5.173,7.143,13.783,13.783,0,0,0,8.524,2.347l9.062.006,17.941.011,35.076.023,17.093.013c2.817-.017,5.642.045,8.412-.035a13.215,13.215,0,0,0,7.544-2.924,14.154,14.154,0,0,0,2.722-3.02,13.205,13.205,0,0,0,1.67-3.681,14.027,14.027,0,0,0,.5-4v-4.07q0-8.116.007-16.044c.023-42.267.044-80.332.062-112.3s.058-57.838.075-75.72q.006-3.353.01-6.327a13.782,13.782,0,0,0-.978-5.406,13.367,13.367,0,0,0-2.522-3.986,12.839,12.839,0,0,0-3.031-2.479,12.7,12.7,0,0,0-5-1.765,10.952,10.952,0,0,0-1.355-.126C377.188,139.746,377.034,139.731,377.034,139.731Z" transform="translate(-275.582 -139.545)" fill="#263238"/>
                              </g>
                            </g>
                          </g>
                        </g>
                      </g>
                    </g>
                  </g>
                </g>
              </g>
            </g>
          </g>
          <g id="Grupo_86699" data-name="Grupo 86699" transform="translate(94.138 21.851)">
            <g id="Grupo_86684" data-name="Grupo 86684">
              <g id="Grupo_86683" data-name="Grupo 86683">
                <g id="Grupo_86682" data-name="Grupo 86682">
                  <g id="Grupo_86681" data-name="Grupo 86681">
                    <g id="Grupo_86680" data-name="Grupo 86680">
                      <g id="Grupo_86679" data-name="Grupo 86679">
                        <g id="Grupo_86678" data-name="Grupo 86678">
                          <path id="Trazado_140273" data-name="Trazado 140273" d="M352.165,155.093c0,.058-2.218.123-4.953.145s-4.956-.006-4.956-.064,2.217-.123,4.954-.145S352.165,155.035,352.165,155.093Z" transform="translate(-342.256 -155.021)" fill="#263238"/>
                        </g>
                      </g>
                    </g>
                  </g>
                </g>
              </g>
            </g>
            <g id="Grupo_86691" data-name="Grupo 86691" transform="translate(0.021 2.535)">
              <g id="Grupo_86690" data-name="Grupo 86690">
                <g id="Grupo_86689" data-name="Grupo 86689">
                  <g id="Grupo_86688" data-name="Grupo 86688">
                    <g id="Grupo_86687" data-name="Grupo 86687">
                      <g id="Grupo_86686" data-name="Grupo 86686">
                        <g id="Grupo_86685" data-name="Grupo 86685">
                          <path id="Trazado_140274" data-name="Trazado 140274" d="M352.18,156.888c0,.058-2.218.123-4.954.145s-4.954-.006-4.954-.064,2.217-.123,4.953-.144S352.178,156.83,352.18,156.888Z" transform="translate(-342.271 -156.817)" fill="#263238"/>
                        </g>
                      </g>
                    </g>
                  </g>
                </g>
              </g>
            </g>
            <g id="Grupo_86698" data-name="Grupo 86698" transform="translate(0.042 5.07)">
              <g id="Grupo_86697" data-name="Grupo 86697">
                <g id="Grupo_86696" data-name="Grupo 86696">
                  <g id="Grupo_86695" data-name="Grupo 86695">
                    <g id="Grupo_86694" data-name="Grupo 86694">
                      <g id="Grupo_86693" data-name="Grupo 86693">
                        <g id="Grupo_86692" data-name="Grupo 86692">
                          <path id="Trazado_140275" data-name="Trazado 140275" d="M352.195,158.684c0,.058-2.218.123-4.954.145s-4.954-.006-4.954-.064,2.217-.123,4.953-.145S352.193,158.626,352.195,158.684Z" transform="translate(-342.286 -158.612)" fill="#263238"/>
                        </g>
                      </g>
                    </g>
                  </g>
                </g>
              </g>
            </g>
          </g>
          <g id="Grupo_86706" data-name="Grupo 86706" transform="translate(13.82 21.593)">
            <g id="Grupo_86705" data-name="Grupo 86705">
              <g id="Grupo_86704" data-name="Grupo 86704">
                <g id="Grupo_86703" data-name="Grupo 86703">
                  <g id="Grupo_86702" data-name="Grupo 86702">
                    <g id="Grupo_86701" data-name="Grupo 86701">
                      <g id="Grupo_86700" data-name="Grupo 86700">
                        <path id="Trazado_140276" data-name="Trazado 140276" d="M285.476,163.132a1.665,1.665,0,0,1,.2-.013l.575-.02,2.115-.049-.059.059q-.011-.705-.024-1.535c0-.285-.024-.553,0-.882a.814.814,0,0,1,.71-.652c.34-.007.641-.023,1.011-.006a.821.821,0,0,1,.693.817c.008.714.017,1.463.025,2.238l-.1-.1,2.669-.027-.1.1c-.01-1.074-.02-2.187-.03-3.325,0-.284,0-.566-.007-.847a.862.862,0,0,0-.376-.631l-1.166-1.149L290.5,156c-.184-.181-.366-.361-.546-.538s-.335-.368-.552-.412a.717.717,0,0,0-.611.117c-.162.136-.335.329-.5.489-.329.33-.648.654-.957.966-.6.625-1.23,1.2-1.686,1.737a1.886,1.886,0,0,0-.136,1c0,.33,0,.644,0,.94,0,.576-.007,1.082-.01,1.515,0,.387-.007.706-.01.969,0,.223-.008.344-.013.349a2.234,2.234,0,0,1-.018-.321c-.009-.258-.017-.573-.027-.953-.01-.436-.023-.946-.035-1.528q-.008-.453-.017-.959,0-.256-.008-.525a1.118,1.118,0,0,1,.147-.558c.494-.606,1.083-1.141,1.69-1.785l.95-.974c.171-.168.312-.335.515-.51a.907.907,0,0,1,.774-.152,1.438,1.438,0,0,1,.641.457l.548.538,1.128,1.106,1.169,1.148a2.235,2.235,0,0,1,.3.323.876.876,0,0,1,.14.45c0,.281,0,.566.007.851.009,1.138.017,2.251.025,3.325v.1h-.1l-2.669.017h-.1v-.1q-.006-1.163-.011-2.238a.645.645,0,0,0-.539-.648c-.306-.016-.669-.006-.969,0a.655.655,0,0,0-.575.518c-.025.268-.006.582-.011.853v1.6h-.058l-2.152-.014-.561-.01A1.023,1.023,0,0,1,285.476,163.132Z" transform="translate(-285.37 -154.838)" fill="#263238"/>
                      </g>
                    </g>
                  </g>
                </g>
              </g>
            </g>
          </g>
        </g>
        <g id="Grupo_86710" data-name="Grupo 86710" transform="translate(19.098 127.985)">
          <g id="Grupo_86709" data-name="Grupo 86709">
            <g id="Grupo_86708" data-name="Grupo 86708">
              <rect id="Rectángulo_16238" data-name="Rectángulo 16238" width="75.545" height="15.43" fill="#ebebeb"/>
            </g>
          </g>
        </g>
        <g id="Grupo_86713" data-name="Grupo 86713" transform="translate(19.098 150.373)">
          <g id="Grupo_86712" data-name="Grupo 86712">
            <g id="Grupo_86711" data-name="Grupo 86711">
              <rect id="Rectángulo_16239" data-name="Rectángulo 16239" width="75.545" height="15.43" fill="#ebebeb"/>
            </g>
          </g>
        </g>
        <g id="Grupo_86716" data-name="Grupo 86716" transform="translate(31.582 181.463)">
          <g id="Grupo_86715" data-name="Grupo 86715">
            <g id="Grupo_86714" data-name="Grupo 86714">
              <path id="Trazado_140277" data-name="Trazado 140277" d="M343.583,283.5H305.665a7.715,7.715,0,0,1-7.715-7.715h0a7.715,7.715,0,0,1,7.715-7.715h37.918a7.715,7.715,0,0,1,7.716,7.715h0A7.715,7.715,0,0,1,343.583,283.5Z" transform="translate(-297.95 -268.068)" fill="#e87f50"/>
            </g>
          </g>
        </g>
        <g id="Grupo_86723" data-name="Grupo 86723" transform="translate(25.604 133.782)">
          <g id="Grupo_86719" data-name="Grupo 86719" transform="translate(0 2.499)">
            <g id="Grupo_86718" data-name="Grupo 86718">
              <g id="Grupo_86717" data-name="Grupo 86717">
                <path id="Trazado_140278" data-name="Trazado 140278" d="M297.645,238.884h-3.338a.593.593,0,0,1-.592-.593h0a2.223,2.223,0,0,1,2.224-2.224h.073a2.223,2.223,0,0,1,2.224,2.224h0A.593.593,0,0,1,297.645,238.884Z" transform="translate(-293.716 -236.067)" fill="#e0e0e0"/>
              </g>
            </g>
          </g>
          <g id="Grupo_86722" data-name="Grupo 86722" transform="translate(0.932)">
            <g id="Grupo_86721" data-name="Grupo 86721">
              <g id="Grupo_86720" data-name="Grupo 86720">
                <path id="Trazado_140279" data-name="Trazado 140279" d="M297.033,235.626A1.329,1.329,0,1,1,295.7,234.3,1.328,1.328,0,0,1,297.033,235.626Z" transform="translate(-294.376 -234.297)" fill="#e0e0e0"/>
              </g>
            </g>
          </g>
        </g>
        <g id="Grupo_86730" data-name="Grupo 86730" transform="translate(25.374 155.601)">
          <g id="Grupo_86726" data-name="Grupo 86726" transform="translate(0.499 2.733)">
            <g id="Grupo_86725" data-name="Grupo 86725">
              <g id="Grupo_86724" data-name="Grupo 86724">
                <rect id="Rectángulo_16240" data-name="Rectángulo 16240" width="3.983" height="2.817" fill="#e0e0e0"/>
              </g>
            </g>
          </g>
          <g id="Grupo_86729" data-name="Grupo 86729">
            <g id="Grupo_86728" data-name="Grupo 86728">
              <g id="Grupo_86727" data-name="Grupo 86727">
                <path id="Trazado_140280" data-name="Trazado 140280" d="M298.479,253.082h-1.336v-.867a1.127,1.127,0,1,0-2.255,0v.867h-1.336v-.867a2.463,2.463,0,1,1,4.926,0Z" transform="translate(-293.553 -249.751)" fill="#e0e0e0"/>
              </g>
            </g>
          </g>
        </g>
      </g>
      <g id="Grupo_86747" data-name="Grupo 86747" transform="translate(41.99 213.639)">
        <g id="Grupo_86732" data-name="Grupo 86732" transform="translate(0 0.205)">
          <path id="Trazado_140281" data-name="Trazado 140281" d="M301.811,285.781v1.336h1.758v.311h-1.758v1.443h-.36v-3.4h2.333v.311Z" transform="translate(-301.451 -285.47)" fill="#e0e0e0"/>
        </g>
        <g id="Grupo_86733" data-name="Grupo 86733" transform="translate(2.656 1.029)">
          <path id="Trazado_140282" data-name="Trazado 140282" d="M303.332,287.352a1.3,1.3,0,1,1,1.3,1.3A1.258,1.258,0,0,1,303.332,287.352Zm2.249,0a.95.95,0,1,0-.947,1A.931.931,0,0,0,305.581,287.352Z" transform="translate(-303.332 -286.054)" fill="#e0e0e0"/>
        </g>
        <g id="Grupo_86734" data-name="Grupo 86734" transform="translate(5.958 1.029)">
          <path id="Trazado_140283" data-name="Trazado 140283" d="M306.959,286.054v.336c-.03,0-.059,0-.085,0a.826.826,0,0,0-.858.942v1.3h-.345v-2.556H306v.5A.967.967,0,0,1,306.959,286.054Z" transform="translate(-305.671 -286.054)" fill="#e0e0e0"/>
        </g>
        <g id="Grupo_86735" data-name="Grupo 86735" transform="translate(7.583 1.029)">
          <path id="Trazado_140284" data-name="Trazado 140284" d="M309.445,286.074v2.245a1.12,1.12,0,0,1-1.278,1.276,1.777,1.777,0,0,1-1.189-.393l.174-.263a1.52,1.52,0,0,0,1.005.349c.647,0,.943-.3.943-.926v-.326a1.148,1.148,0,0,1-1,.5,1.24,1.24,0,1,1,0-2.478,1.154,1.154,0,0,1,1.01.511v-.491Zm-.335,1.216a.97.97,0,1,0-.971.936A.913.913,0,0,0,309.111,287.289Z" transform="translate(-306.822 -286.054)" fill="#e0e0e0"/>
        </g>
        <g id="Grupo_86736" data-name="Grupo 86736" transform="translate(10.914 1.029)">
          <path id="Trazado_140285" data-name="Trazado 140285" d="M309.181,287.352a1.3,1.3,0,1,1,1.3,1.3A1.258,1.258,0,0,1,309.181,287.352Zm2.249,0a.951.951,0,1,0-.947,1A.931.931,0,0,0,311.43,287.352Z" transform="translate(-309.181 -286.054)" fill="#e0e0e0"/>
        </g>
        <g id="Grupo_86737" data-name="Grupo 86737" transform="translate(13.818 0.491)">
          <path id="Trazado_140286" data-name="Trazado 140286" d="M312.982,288.63a.816.816,0,0,1-.539.181.677.677,0,0,1-.748-.743v-1.545h-.456v-.292h.456v-.558h.346v.558h.777v.292h-.777v1.525a.408.408,0,0,0,.441.466.573.573,0,0,0,.38-.131Z" transform="translate(-311.238 -285.673)" fill="#e0e0e0"/>
        </g>
        <g id="Grupo_86738" data-name="Grupo 86738" transform="translate(17.46 1.029)">
          <path id="Trazado_140287" data-name="Trazado 140287" d="M316.406,287.352a1.238,1.238,0,0,1-1.274,1.3,1.115,1.115,0,0,1-.971-.505v1.423h-.345v-3.5h.33v.505a1.113,1.113,0,0,1,.986-.525A1.237,1.237,0,0,1,316.406,287.352Zm-.346,0a.953.953,0,1,0-.952,1A.941.941,0,0,0,316.061,287.352Z" transform="translate(-313.817 -286.054)" fill="#e0e0e0"/>
        </g>
        <g id="Grupo_86739" data-name="Grupo 86739" transform="translate(20.522 1.029)">
          <path id="Trazado_140288" data-name="Trazado 140288" d="M318.128,287.045v1.584H317.8v-.4a.962.962,0,0,1-.88.424c-.579,0-.933-.3-.933-.743,0-.394.253-.724.987-.724h.81v-.155c0-.438-.247-.675-.724-.675a1.306,1.306,0,0,0-.849.3l-.157-.257a1.621,1.621,0,0,1,1.039-.346A.908.908,0,0,1,318.128,287.045Zm-.344.816v-.418h-.8c-.5,0-.656.195-.656.457,0,.3.237.48.647.48A.818.818,0,0,0,317.783,287.861Z" transform="translate(-315.986 -286.054)" fill="#e0e0e0"/>
        </g>
        <g id="Grupo_86740" data-name="Grupo 86740" transform="translate(23.246 1.029)">
          <path id="Trazado_140289" data-name="Trazado 140289" d="M317.915,288.338l.155-.272a1.551,1.551,0,0,0,.908.287c.487,0,.686-.165.686-.418,0-.665-1.656-.141-1.656-1.151,0-.418.359-.73,1.01-.73a1.734,1.734,0,0,1,.9.239l-.151.277a1.308,1.308,0,0,0-.753-.219c-.46,0-.665.181-.665.424,0,.689,1.656.169,1.656,1.151,0,.442-.388.729-1.055.729A1.722,1.722,0,0,1,317.915,288.338Z" transform="translate(-317.915 -286.054)" fill="#e0e0e0"/>
        </g>
        <g id="Grupo_86741" data-name="Grupo 86741" transform="translate(25.621 1.029)">
          <path id="Trazado_140290" data-name="Trazado 140290" d="M319.6,288.338l.155-.272a1.55,1.55,0,0,0,.908.287c.487,0,.686-.165.686-.418,0-.665-1.656-.141-1.656-1.151,0-.418.359-.73,1.009-.73a1.734,1.734,0,0,1,.9.239l-.151.277a1.308,1.308,0,0,0-.753-.219c-.462,0-.665.181-.665.424,0,.689,1.656.169,1.656,1.151,0,.442-.39.729-1.055.729A1.719,1.719,0,0,1,319.6,288.338Z" transform="translate(-319.597 -286.054)" fill="#e0e0e0"/>
        </g>
        <g id="Grupo_86742" data-name="Grupo 86742" transform="translate(27.858 1.049)">
          <path id="Trazado_140291" data-name="Trazado 140291" d="M325.373,286.068l-.966,2.556h-.326l-.8-2.094-.806,2.094h-.326l-.962-2.556h.33l.8,2.172.82-2.172h.3l.816,2.172.81-2.172Z" transform="translate(-321.182 -286.068)" fill="#e0e0e0"/>
        </g>
        <g id="Grupo_86743" data-name="Grupo 86743" transform="translate(32.238 1.029)">
          <path id="Trazado_140292" data-name="Trazado 140292" d="M324.284,287.352a1.3,1.3,0,1,1,1.3,1.3A1.257,1.257,0,0,1,324.284,287.352Zm2.249,0a.951.951,0,1,0-.949,1A.932.932,0,0,0,326.533,287.352Z" transform="translate(-324.284 -286.054)" fill="#e0e0e0"/>
        </g>
        <g id="Grupo_86744" data-name="Grupo 86744" transform="translate(35.541 1.029)">
          <path id="Trazado_140293" data-name="Trazado 140293" d="M327.909,286.054v.336c-.03,0-.058,0-.083,0a.826.826,0,0,0-.858.942v1.3h-.345v-2.556h.329v.5A.965.965,0,0,1,327.909,286.054Z" transform="translate(-326.623 -286.054)" fill="#e0e0e0"/>
        </g>
        <g id="Grupo_86745" data-name="Grupo 86745" transform="translate(37.166)">
          <path id="Trazado_140294" data-name="Trazado 140294" d="M330.362,285.325v3.6h-.329v-.505a1.107,1.107,0,0,1-.986.53,1.3,1.3,0,0,1,0-2.6,1.118,1.118,0,0,1,.97.505v-1.535Zm-.339,2.327a.951.951,0,1,0-.947,1A.934.934,0,0,0,330.023,287.652Z" transform="translate(-327.774 -285.325)" fill="#e0e0e0"/>
        </g>
        <g id="Grupo_86746" data-name="Grupo 86746" transform="translate(40.297 0.175)">
          <path id="Trazado_140295" data-name="Trazado 140295" d="M331.959,286.348c0-.35-.287-.593-.782-.593a1.129,1.129,0,0,0-.926.394l-.258-.195a1.485,1.485,0,0,1,1.21-.505c.679,0,1.117.326,1.117.846,0,.83-.889.868-.889,1.563h-.359C331.071,287.057,331.959,286.984,331.959,286.348Zm-.962,2.3a.255.255,0,0,1,.51,0,.255.255,0,0,1-.51,0Z" transform="translate(-329.992 -285.449)" fill="#e0e0e0"/>
        </g>
      </g>
      <g id="Grupo_86756" data-name="Grupo 86756" transform="translate(39.205 118.935)">
        <g id="Grupo_86748" data-name="Grupo 86748" transform="translate(0 0.515)">
          <path id="Trazado_140296" data-name="Trazado 140296" d="M304.929,218.615v6.339h-.743l-3.8-4.727v4.727h-.905v-6.339h.743l3.8,4.727v-4.727Z" transform="translate(-299.478 -218.615)" fill="#263238"/>
        </g>
        <g id="Grupo_86749" data-name="Grupo 86749" transform="translate(7.071)">
          <path id="Trazado_140297" data-name="Trazado 140297" d="M304.486,218.82a.572.572,0,0,1,.589-.57.562.562,0,0,1,.587.552.588.588,0,0,1-1.176.018Zm.154,1.485h.868v4.8h-.868Z" transform="translate(-304.486 -218.25)" fill="#263238"/>
        </g>
        <g id="Grupo_86750" data-name="Grupo 86750" transform="translate(9.306 2.011)">
          <path id="Trazado_140298" data-name="Trazado 140298" d="M306.069,222.118a2.4,2.4,0,0,1,2.536-2.444,2.141,2.141,0,0,1,1.956,1.022l-.661.426a1.5,1.5,0,0,0-1.3-.689,1.69,1.69,0,0,0,0,3.379,1.5,1.5,0,0,0,1.3-.689l.661.417a2.145,2.145,0,0,1-1.956,1.032A2.4,2.4,0,0,1,306.069,222.118Z" transform="translate(-306.069 -219.674)" fill="#263238"/>
        </g>
        <g id="Grupo_86751" data-name="Grupo 86751" transform="translate(14.855 0.136)">
          <path id="Trazado_140299" data-name="Trazado 140299" d="M311.864,222.829l-1,.923v1.313H310v-6.719h.87v4.311l2.616-2.39h1.052l-2.02,1.982,2.218,2.817h-1.067Z" transform="translate(-309.999 -218.346)" fill="#263238"/>
        </g>
        <g id="Grupo_86752" data-name="Grupo 86752" transform="translate(20.505 2.056)">
          <path id="Trazado_140300" data-name="Trazado 140300" d="M318.384,221.743v2.762h-.644v-2.7a1.33,1.33,0,0,0-1.43-1.522,1.562,1.562,0,0,0-1.666,1.721v2.5H314v-4.764h.614v.878a2,2,0,0,1,1.811-.913A1.824,1.824,0,0,1,318.384,221.743Z" transform="translate(-314.001 -219.706)" fill="#263238"/>
        </g>
        <g id="Grupo_86753" data-name="Grupo 86753" transform="translate(26.235 2.056)">
          <path id="Trazado_140301" data-name="Trazado 140301" d="M322.052,221.553v2.952h-.616v-.743a1.789,1.789,0,0,1-1.639.788c-1.077,0-1.738-.562-1.738-1.385,0-.734.472-1.35,1.838-1.35h1.511v-.289c0-.816-.46-1.259-1.348-1.259a2.424,2.424,0,0,0-1.584.562l-.289-.48a3.025,3.025,0,0,1,1.937-.642A1.692,1.692,0,0,1,322.052,221.553Zm-.644,1.521V222.3h-1.494c-.923,0-1.221.361-1.221.851,0,.552.443.9,1.2.9A1.521,1.521,0,0,0,321.408,223.073Z" transform="translate(-318.059 -219.706)" fill="#263238"/>
        </g>
        <g id="Grupo_86754" data-name="Grupo 86754" transform="translate(31.974 2.056)">
          <path id="Trazado_140302" data-name="Trazado 140302" d="M329.984,221.743v2.762h-.644v-2.7c0-1.005-.507-1.522-1.367-1.522a1.532,1.532,0,0,0-1.594,1.721v2.5h-.642v-2.7c0-1.005-.508-1.522-1.377-1.522a1.535,1.535,0,0,0-1.593,1.721v2.5h-.644v-4.764h.616v.87a1.927,1.927,0,0,1,1.748-.905,1.71,1.71,0,0,1,1.693,1,2.074,2.074,0,0,1,1.883-1A1.8,1.8,0,0,1,329.984,221.743Z" transform="translate(-322.124 -219.706)" fill="#263238"/>
        </g>
        <g id="Grupo_86755" data-name="Grupo 86755" transform="translate(41.116 2.056)">
          <path id="Trazado_140303" data-name="Trazado 140303" d="M333.227,222.322h-3.984a1.762,1.762,0,0,0,1.874,1.658,1.879,1.879,0,0,0,1.459-.626l.361.417a2.518,2.518,0,0,1-4.337-1.648,2.293,2.293,0,0,1,2.328-2.417,2.269,2.269,0,0,1,2.308,2.417C333.236,222.178,333.227,222.25,333.227,222.322Zm-3.984-.48h3.377a1.692,1.692,0,0,0-3.377,0Z" transform="translate(-328.599 -219.706)" fill="#263238"/>
        </g>
      </g>
      <g id="Grupo_86763" data-name="Grupo 86763" transform="translate(55.857 221.728)">
        <g id="Grupo_86757" data-name="Grupo 86757" transform="translate(0 0.215)">
          <path id="Trazado_140304" data-name="Trazado 140304" d="M311.272,293.968l.162-.343a1.585,1.585,0,0,0,1.015.354c.532,0,.761-.2.761-.474,0-.751-1.864-.277-1.864-1.419,0-.474.37-.88,1.177-.88a1.8,1.8,0,0,1,.988.274l-.144.352a1.584,1.584,0,0,0-.844-.251c-.522,0-.747.22-.747.488,0,.751,1.864.281,1.864,1.411,0,.47-.378.874-1.192.874A1.831,1.831,0,0,1,311.272,293.968Z" transform="translate(-311.272 -291.206)" fill="#e87f50"/>
        </g>
        <g id="Grupo_86758" data-name="Grupo 86758" transform="translate(2.877)">
          <path id="Trazado_140305" data-name="Trazado 140305" d="M313.31,291.331a.278.278,0,0,1,.287-.277.275.275,0,1,1-.287.277Zm.075.721h.422v2.328h-.422Z" transform="translate(-313.31 -291.054)" fill="#e87f50"/>
        </g>
        <g id="Grupo_86759" data-name="Grupo 86759" transform="translate(3.966 0.976)">
          <path id="Trazado_140306" data-name="Trazado 140306" d="M316.524,291.768v2.012a1.059,1.059,0,0,1-1.209,1.2,1.726,1.726,0,0,1-1.113-.347l.2-.325a1.42,1.42,0,0,0,.9.3c.549,0,.8-.254.8-.782v-.184a1.063,1.063,0,0,1-.839.36,1.129,1.129,0,1,1,0-2.255,1.063,1.063,0,0,1,.861.383v-.36Zm-.412,1.1a.8.8,0,1,0-.8.76A.745.745,0,0,0,316.111,292.87Z" transform="translate(-314.081 -291.745)" fill="#e87f50"/>
        </g>
        <g id="Grupo_86760" data-name="Grupo 86760" transform="translate(7.216 0.976)">
          <path id="Trazado_140307" data-name="Trazado 140307" d="M318.593,292.756v1.34h-.421V292.8c0-.457-.229-.681-.628-.681a.691.691,0,0,0-.738.774v1.2h-.422v-2.328h.4v.352a1,1,0,0,1,.84-.374A.9.9,0,0,1,318.593,292.756Z" transform="translate(-316.383 -291.745)" fill="#e87f50"/>
        </g>
        <g id="Grupo_86761" data-name="Grupo 86761" transform="translate(11.376 0.998)">
          <path id="Trazado_140308" data-name="Trazado 140308" d="M321.522,291.761v2.328h-.4v-.35a.953.953,0,0,1-.791.377.916.916,0,0,1-1-1.015v-1.34h.422v1.292c0,.456.227.686.628.686a.686.686,0,0,0,.72-.775v-1.2Z" transform="translate(-319.329 -291.761)" fill="#e87f50"/>
        </g>
        <g id="Grupo_86762" data-name="Grupo 86762" transform="translate(14.376 0.976)">
          <path id="Trazado_140309" data-name="Trazado 140309" d="M323.867,292.932a1.131,1.131,0,0,1-1.177,1.19,1,1,0,0,1-.813-.377v1.2h-.422v-3.181h.405v.369a.99.99,0,0,1,.83-.391A1.13,1.13,0,0,1,323.867,292.932Zm-.426,0a.785.785,0,1,0-.786.82A.771.771,0,0,0,323.441,292.932Z" transform="translate(-321.454 -291.745)" fill="#e87f50"/>
        </g>
      </g>
      <g id="Grupo_86770" data-name="Grupo 86770" transform="translate(56.174 194.888)">
        <g id="Grupo_86764" data-name="Grupo 86764" transform="translate(0 0.274)">
          <path id="Trazado_140310" data-name="Trazado 140310" d="M311.5,275.032l.2-.445a1.7,1.7,0,0,0,1.015.339c.48,0,.681-.171.681-.4,0-.664-1.827-.227-1.827-1.371,0-.5.4-.918,1.24-.918a1.939,1.939,0,0,1,1.024.272l-.181.443a1.714,1.714,0,0,0-.849-.243c-.474,0-.668.185-.668.419,0,.654,1.824.227,1.824,1.357,0,.493-.4.915-1.244.915A1.978,1.978,0,0,1,311.5,275.032Z" transform="translate(-311.497 -272.238)" fill="#fff"/>
        </g>
        <g id="Grupo_86765" data-name="Grupo 86765" transform="translate(2.9)">
          <path id="Trazado_140311" data-name="Trazado 140311" d="M313.551,272.374a.335.335,0,0,1,.35-.33.328.328,0,0,1,.353.318.352.352,0,0,1-.7.013Zm.073.716h.551v2.347h-.551Z" transform="translate(-313.551 -272.044)" fill="#fff"/>
        </g>
        <g id="Grupo_86766" data-name="Grupo 86766" transform="translate(4.052 1.021)">
          <path id="Trazado_140312" data-name="Trazado 140312" d="M316.89,272.792v1.992a1.1,1.1,0,0,1-1.265,1.238,1.863,1.863,0,0,1-1.144-.335l.247-.412a1.417,1.417,0,0,0,.866.281c.518,0,.747-.237.747-.712v-.123a1.035,1.035,0,0,1-.786.312,1.135,1.135,0,1,1,0-2.268,1.016,1.016,0,0,1,.813.338v-.312Zm-.541,1.1a.715.715,0,1,0-.712.672A.659.659,0,0,0,316.349,273.9Z" transform="translate(-314.367 -272.767)" fill="#fff"/>
        </g>
        <g id="Grupo_86767" data-name="Grupo 86767" transform="translate(7.3 1.021)">
          <path id="Trazado_140313" data-name="Trazado 140313" d="M318.978,273.795v1.344h-.549v-1.273c0-.418-.206-.62-.558-.62a.623.623,0,0,0-.655.707v1.186h-.549v-2.347h.522v.3a1.019,1.019,0,0,1,.809-.329A.916.916,0,0,1,318.978,273.795Z" transform="translate(-316.667 -272.767)" fill="#fff"/>
        </g>
        <g id="Grupo_86768" data-name="Grupo 86768" transform="translate(11.455)">
          <path id="Trazado_140314" data-name="Trazado 140314" d="M319.61,272.374a.335.335,0,0,1,.352-.33.328.328,0,0,1,.352.318.352.352,0,0,1-.7.013Zm.075.716h.549v2.347h-.549Z" transform="translate(-319.61 -272.044)" fill="#fff"/>
        </g>
        <g id="Grupo_86769" data-name="Grupo 86769" transform="translate(12.8 1.021)">
          <path id="Trazado_140315" data-name="Trazado 140315" d="M322.874,273.795v1.344h-.549v-1.273c0-.418-.206-.62-.558-.62a.623.623,0,0,0-.655.707v1.186h-.549v-2.347h.522v.3a1.019,1.019,0,0,1,.809-.329A.916.916,0,0,1,322.874,273.795Z" transform="translate(-320.563 -272.767)" fill="#fff"/>
        </g>
      </g>
    </g>
    <g id="Grupo_87006" data-name="Grupo 87006" transform="translate(119.09 116.811)">
      <g id="Grupo_86874" data-name="Grupo 86874" transform="translate(67.555 47.593)">
        <g id="Grupo_86863" data-name="Grupo 86863">
          <g id="Grupo_86785" data-name="Grupo 86785">
            <g id="Grupo_86784" data-name="Grupo 86784">
              <g id="Grupo_86783" data-name="Grupo 86783">
                <g id="Grupo_86782" data-name="Grupo 86782">
                  <g id="Grupo_86781" data-name="Grupo 86781">
                    <g id="Grupo_86780" data-name="Grupo 86780">
                      <g id="Grupo_86779" data-name="Grupo 86779">
                        <g id="Grupo_86774" data-name="Grupo 86774" transform="translate(0.175 0.125)">
                          <g id="Grupo_86773" data-name="Grupo 86773">
                            <g id="Grupo_86772" data-name="Grupo 86772">
                              <path id="Trazado_140316" data-name="Trazado 140316" d="M260.939,150.656l-15.812-.008a3.927,3.927,0,0,0-3.839,4.011v2.868a3.927,3.927,0,0,1-3.84,4.011l-30.821-.018a3.929,3.929,0,0,1-3.838-4.015v-2.868a3.933,3.933,0,0,0-3.839-4.017l-5.56,0-13.84-.008A12.442,12.442,0,0,0,167.1,163.047l-.04,199.564A12.442,12.442,0,0,0,179.5,375.056l81.39.047a12.441,12.441,0,0,0,12.449-12.437l.04-199.564A12.441,12.441,0,0,0,260.939,150.656Z" transform="translate(-167.061 -150.608)" fill="#fff"/>
                            </g>
                          </g>
                        </g>
                        <g id="Grupo_86778" data-name="Grupo 86778">
                          <g id="Grupo_86777" data-name="Grupo 86777">
                            <g id="Grupo_86776" data-name="Grupo 86776">
                              <g id="Grupo_86775" data-name="Grupo 86775">
                                <path id="Trazado_140317" data-name="Trazado 140317" d="M260.99,150.693s.144,0,.426.013a9.4,9.4,0,0,1,1.261.1,11.714,11.714,0,0,1,4.668,1.612,11.926,11.926,0,0,1,2.839,2.3,12.472,12.472,0,0,1,2.369,3.715,12.894,12.894,0,0,1,.932,5.05q0,2.757.007,5.865c.01,16.58.024,40.563.041,70.2s.011,64.928.018,104.112V362.3a13.3,13.3,0,0,1-.477,3.8,12.633,12.633,0,0,1-1.588,3.507,13.492,13.492,0,0,1-2.592,2.876,12.591,12.591,0,0,1-7.185,2.789c-2.609.076-5.2.02-7.819.035l-15.846-.007-32.519-.017-16.632-.008-8.4,0a13.147,13.147,0,0,1-8.1-2.238,12.743,12.743,0,0,1-4.932-6.812,13.694,13.694,0,0,1-.52-4.209q0-2.1,0-4.195,0-8.376,0-16.638.006-16.519.01-32.528c.007-21.326.015-41.9.023-61.492s.018-38.216.027-55.642q.006-13.069.014-25.217l0-3.019c.007-.5.042-1.008.069-1.509.089-.494.127-1,.256-1.483a12.725,12.725,0,0,1,2.616-5.272,12.631,12.631,0,0,1,10.146-4.5l10.845.013,5.218.007,2.556,0a3.98,3.98,0,0,1,2.45.685,4.113,4.113,0,0,1,1.522,2,6.681,6.681,0,0,1,.253,2.458c0,.405,0,.809,0,1.211a8.883,8.883,0,0,0,.04,1.186,3.924,3.924,0,0,0,.928,2.081,3.674,3.674,0,0,0,1.9,1.182,4.237,4.237,0,0,0,1.121.11h1.146l4.491.006,16.405.024,7.233.013c.572-.01,1.152.025,1.694-.021a3.648,3.648,0,0,0,1.523-.537,3.936,3.936,0,0,0,1.744-2.506,6.858,6.858,0,0,0,.1-1.511c0-.5,0-1,0-1.488a8.438,8.438,0,0,1,.065-1.451,4.211,4.211,0,0,1,.47-1.333A3.917,3.917,0,0,1,243.8,150.9a6.228,6.228,0,0,1,2.471-.264l8.071.021,4.963.021c1.118.006,1.69.018,1.69.018s-.572.011-1.69.017l-4.963.016-8.071.011a6.136,6.136,0,0,0-2.43.264,3.816,3.816,0,0,0-1.923,1.71,4.078,4.078,0,0,0-.45,1.295,8.373,8.373,0,0,0-.061,1.43v1.488a6.942,6.942,0,0,1-.1,1.539,4.075,4.075,0,0,1-1.8,2.6,3.788,3.788,0,0,1-1.583.561c-.576.051-1.132.016-1.711.027l-7.233,0-16.406.006h-5.636a4.406,4.406,0,0,1-1.17-.114,3.873,3.873,0,0,1-2.011-1.244,4.148,4.148,0,0,1-.983-2.193,9.482,9.482,0,0,1-.042-1.213v-1.211a6.471,6.471,0,0,0-.243-2.383,3.9,3.9,0,0,0-1.442-1.889,3.749,3.749,0,0,0-2.323-.641H180.1a12.374,12.374,0,0,0-9.946,4.414,12.444,12.444,0,0,0-2.557,5.163c-.127.473-.162.967-.249,1.451-.025.493-.061.983-.068,1.481V166.3q0,12.133,0,25.217c0,17.426,0,36.048.006,55.642s0,40.166,0,61.492q0,15.994,0,32.528,0,8.26,0,16.638v4.195a13.338,13.338,0,0,0,.505,4.11,12.389,12.389,0,0,0,4.795,6.622,12.8,12.8,0,0,0,7.9,2.176l8.4,0,16.632.011,32.519.021,15.846.011c2.611-.016,5.231.041,7.8-.032a12.256,12.256,0,0,0,6.993-2.712,13.128,13.128,0,0,0,2.523-2.8,12.269,12.269,0,0,0,1.549-3.413,13.017,13.017,0,0,0,.466-3.706q0-1.891,0-3.773,0-7.525.006-14.875c.023-39.183.041-74.473.058-104.112s.054-53.619.071-70.2l.008-5.865a12.769,12.769,0,0,0-.908-5.011,12.39,12.39,0,0,0-2.337-3.695,11.933,11.933,0,0,0-2.811-2.3,11.774,11.774,0,0,0-4.635-1.636,9.828,9.828,0,0,0-1.257-.116C261.134,150.707,260.99,150.693,260.99,150.693Z" transform="translate(-166.937 -150.519)" fill="#0b1330"/>
                              </g>
                            </g>
                          </g>
                        </g>
                      </g>
                    </g>
                  </g>
                </g>
              </g>
            </g>
          </g>
          <g id="Grupo_86795" data-name="Grupo 86795" transform="translate(82.735 18.633)">
            <g id="Grupo_86788" data-name="Grupo 86788" transform="translate(1.209)">
              <g id="Grupo_86787" data-name="Grupo 86787">
                <g id="Grupo_86786" data-name="Grupo 86786">
                  <path id="Trazado_140318" data-name="Trazado 140318" d="M238.1,163.955a36.206,36.206,0,0,1-5.857.239,36.207,36.207,0,0,1-5.857-.239,36.015,36.015,0,0,1,5.857-.239A36.015,36.015,0,0,1,238.1,163.955Z" transform="translate(-226.391 -163.716)" fill="#0b1330"/>
                </g>
              </g>
            </g>
            <g id="Grupo_86791" data-name="Grupo 86791" transform="translate(0 1.931)">
              <g id="Grupo_86790" data-name="Grupo 86790">
                <g id="Grupo_86789" data-name="Grupo 86789">
                  <path id="Trazado_140319" data-name="Trazado 140319" d="M237.25,165.323a36.034,36.034,0,0,1-5.857.239,36.031,36.031,0,0,1-5.858-.239,36.221,36.221,0,0,1,5.858-.239A36.224,36.224,0,0,1,237.25,165.323Z" transform="translate(-225.535 -165.084)" fill="#0b1330"/>
                </g>
              </g>
            </g>
            <g id="Grupo_86794" data-name="Grupo 86794" transform="translate(0.604 3.743)">
              <g id="Grupo_86793" data-name="Grupo 86793">
                <g id="Grupo_86792" data-name="Grupo 86792">
                  <path id="Trazado_140320" data-name="Trazado 140320" d="M237.676,166.606a36.014,36.014,0,0,1-5.857.239,36.014,36.014,0,0,1-5.857-.239,36.207,36.207,0,0,1,5.857-.239A36.207,36.207,0,0,1,237.676,166.606Z" transform="translate(-225.963 -166.367)" fill="#0b1330"/>
                </g>
              </g>
            </g>
          </g>
          <g id="Grupo_86806" data-name="Grupo 86806" transform="translate(23.642 36.532)">
            <g id="Grupo_86798" data-name="Grupo 86798">
              <g id="Grupo_86797" data-name="Grupo 86797">
                <g id="Grupo_86796" data-name="Grupo 86796">
                  <path id="Trazado_140321" data-name="Trazado 140321" d="M222.714,177.552s.151.038.438.136l1.272.441c.546.225,1.218.52,2,.887a28.1,28.1,0,0,1,2.589,1.492,28.085,28.085,0,0,1,9.062,9.612c.48.774.86,1.629,1.288,2.488a29.482,29.482,0,0,1,1.049,2.759,26.242,26.242,0,0,1,.825,13.045,29.252,29.252,0,0,1-6.413,13.557,27.275,27.275,0,0,1-6.15,5.392,28.271,28.271,0,0,1-7.814,3.428,30.1,30.1,0,0,1-17.725-.664,29.015,29.015,0,0,1-13.992-10.884,30.261,30.261,0,0,1-5.43-15.64,26.393,26.393,0,0,1,3.408-14.581,23.9,23.9,0,0,1,9.535-8.915,31.509,31.509,0,0,1,10.31-3.3,43.238,43.238,0,0,1,8.175-.361,46.752,46.752,0,0,1,6.924.794s-.155-.006-.456-.042l-1.333-.162c-1.172-.136-2.9-.322-5.142-.4a44.014,44.014,0,0,0-8.128.442,31.416,31.416,0,0,0-10.19,3.331,23.6,23.6,0,0,0-9.353,8.817,26.028,26.028,0,0,0-3.311,14.358,29.887,29.887,0,0,0,5.375,15.4,28.579,28.579,0,0,0,13.768,10.7,29.677,29.677,0,0,0,17.444.662,27.081,27.081,0,0,0,13.749-8.652,28.914,28.914,0,0,0,6.359-13.345,25.948,25.948,0,0,0-.757-12.87c-.274-.959-.672-1.85-1.021-2.732-.418-.85-.788-1.7-1.257-2.467a28.149,28.149,0,0,0-8.9-9.608,29.446,29.446,0,0,0-2.551-1.521c-.772-.378-1.435-.686-1.972-.925l-1.252-.484C222.856,177.621,222.714,177.552,222.714,177.552Z" transform="translate(-183.682 -176.394)" fill="#0b1330"/>
                </g>
              </g>
            </g>
            <g id="Grupo_86805" data-name="Grupo 86805" transform="translate(15.281 8.566)">
              <g id="Grupo_86801" data-name="Grupo 86801" transform="translate(0 13.203)">
                <g id="Grupo_86800" data-name="Grupo 86800">
                  <g id="Grupo_86799" data-name="Grupo 86799">
                    <path id="Trazado_140322" data-name="Trazado 140322" d="M225.5,208.894a2.1,2.1,0,0,1-.219-.467l-.545-1.368c-.474-1.186-1.128-2.918-2.143-4.956a21.387,21.387,0,0,0-4.649-6.4,14.127,14.127,0,0,0-3.89-2.537,10.579,10.579,0,0,0-4.861-.849,13.712,13.712,0,0,0-8.545,4.073,19.391,19.391,0,0,0-4.208,6.677,32.336,32.336,0,0,0-1.508,5.17c-.119.583-.215,1.059-.291,1.44a2.058,2.058,0,0,1-.124.5,2.186,2.186,0,0,1,.028-.515c.034-.336.1-.829.2-1.461a28.727,28.727,0,0,1,1.375-5.255,19.253,19.253,0,0,1,4.213-6.868,14.02,14.02,0,0,1,8.826-4.24,10.97,10.97,0,0,1,5.074.9,14.4,14.4,0,0,1,4,2.643,21.2,21.2,0,0,1,4.657,6.577,47.8,47.8,0,0,1,2.015,5.039l.46,1.4A2.123,2.123,0,0,1,225.5,208.894Z" transform="translate(-194.505 -191.811)" fill="#0b1330"/>
                  </g>
                </g>
              </g>
              <g id="Grupo_86804" data-name="Grupo 86804" transform="translate(8.71)">
                <g id="Grupo_86803" data-name="Grupo 86803">
                  <g id="Grupo_86802" data-name="Grupo 86802">
                    <path id="Trazado_140323" data-name="Trazado 140323" d="M207.369,183.311a.971.971,0,0,1,.342.02,3.62,3.62,0,0,1,.945.268,5.643,5.643,0,0,1,3.353,4.832,4.978,4.978,0,0,1-.741,2.805,5.883,5.883,0,0,1-5.739,2.77,6.022,6.022,0,0,1-4.662-4.361,5.351,5.351,0,0,1,.016-2.9,5.991,5.991,0,0,1,1.214-2.207,6.054,6.054,0,0,1,3.024-1.924,4.107,4.107,0,0,1,.969-.152c.224-.006.34,0,.342.016,0,.048-.469.058-1.257.315a6.167,6.167,0,0,0-2.82,1.964,5.766,5.766,0,0,0-1.091,2.1,4.978,4.978,0,0,0,.028,2.674,5.621,5.621,0,0,0,4.313,4.007,5.476,5.476,0,0,0,5.288-2.53,4.6,4.6,0,0,0,.721-2.561,5.254,5.254,0,0,0-.607-2.273,5.492,5.492,0,0,0-2.428-2.4C207.833,183.41,207.36,183.361,207.369,183.311Z" transform="translate(-200.674 -182.46)" fill="#0b1330"/>
                  </g>
                </g>
              </g>
            </g>
          </g>
          <g id="Grupo_86813" data-name="Grupo 86813" transform="translate(27.885 105.372)">
            <g id="Grupo_86809" data-name="Grupo 86809">
              <g id="Grupo_86808" data-name="Grupo 86808">
                <g id="Grupo_86807" data-name="Grupo 86807">
                  <path id="Trazado_140324" data-name="Trazado 140324" d="M240.868,229.026a3.6,3.6,0,0,1-.641-.222,18.8,18.8,0,0,0-1.838-.589,17.65,17.65,0,0,0-7.023-.409,16.623,16.623,0,0,0-4.662,1.361c-.8.359-1.611.8-2.509,1.146a4.836,4.836,0,0,1-2.976.34c-2.255-.582-2.588-3.54-4.62-3.927-.99-.209-1.9.518-2.639,1.3a17.75,17.75,0,0,1-2.468,2.4,4.019,4.019,0,0,1-1.694.648,3.967,3.967,0,0,1-1.763-.264,11.356,11.356,0,0,1-2.842-1.8,23.284,23.284,0,0,0-2.543-1.869,4.067,4.067,0,0,0-2.759-.658,3.856,3.856,0,0,0-2.293,1.432c-.61.693-1.117,1.461-1.69,2.153a6.036,6.036,0,0,1-2,1.7,5.245,5.245,0,0,1-2.372.514,4.911,4.911,0,0,1-3.692-1.708,5.12,5.12,0,0,1-1.141-2.873,4.679,4.679,0,0,1,.241-1.94,2.4,2.4,0,0,1,.294-.616,5.613,5.613,0,0,0-.35,2.537,5,5,0,0,0,1.159,2.719,4.647,4.647,0,0,0,3.493,1.543,4.932,4.932,0,0,0,2.2-.505,5.717,5.717,0,0,0,1.855-1.62c.551-.678,1.049-1.45,1.682-2.18a4.27,4.27,0,0,1,2.532-1.588,4.5,4.5,0,0,1,3.064.7,23.144,23.144,0,0,1,2.6,1.9,10.981,10.981,0,0,0,2.719,1.725,3.07,3.07,0,0,0,3.023-.335,17.817,17.817,0,0,0,2.4-2.34,6.332,6.332,0,0,1,1.326-1.106,2.514,2.514,0,0,1,1.731-.33,2.675,2.675,0,0,1,1.511.825,9.689,9.689,0,0,1,1.007,1.265,4.139,4.139,0,0,0,2.142,1.875,4.451,4.451,0,0,0,2.711-.309c.868-.323,1.673-.755,2.493-1.115a16.73,16.73,0,0,1,4.781-1.334,17.151,17.151,0,0,1,7.117.565,14.465,14.465,0,0,1,1.826.679A3.636,3.636,0,0,1,240.868,229.026Z" transform="translate(-186.687 -225.15)" fill="#0b1330"/>
                </g>
              </g>
            </g>
            <g id="Grupo_86812" data-name="Grupo 86812" transform="translate(13.751 11.883)">
              <g id="Grupo_86811" data-name="Grupo 86811">
                <g id="Grupo_86810" data-name="Grupo 86810">
                  <path id="Trazado_140325" data-name="Trazado 140325" d="M222.856,233.8c0,.133-5.917.239-13.214.239s-13.216-.106-13.216-.239,5.915-.239,13.216-.239S222.856,233.673,222.856,233.8Z" transform="translate(-196.426 -233.566)" fill="#0b1330"/>
                </g>
              </g>
            </g>
          </g>
          <g id="Grupo_86830" data-name="Grupo 86830" transform="translate(11.195 131.88)">
            <g id="Grupo_86826" data-name="Grupo 86826">
              <g id="Grupo_86816" data-name="Grupo 86816" transform="translate(1.465 1.336)">
                <g id="Grupo_86815" data-name="Grupo 86815">
                  <g id="Grupo_86814" data-name="Grupo 86814">
                    <path id="Trazado_140326" data-name="Trazado 140326" d="M176.043,261.6a73.8,73.8,0,0,1-.1-8.367,73.292,73.292,0,0,1,.374-8.361,73.846,73.846,0,0,1,.1,8.368A73.226,73.226,0,0,1,176.043,261.6Z" transform="translate(-175.903 -244.87)" fill="#0b1330"/>
                  </g>
                </g>
              </g>
              <g id="Grupo_86819" data-name="Grupo 86819" transform="translate(0 17.472)">
                <g id="Grupo_86818" data-name="Grupo 86818">
                  <g id="Grupo_86817" data-name="Grupo 86817">
                    <path id="Trazado_140327" data-name="Trazado 140327" d="M256.157,257.636c0,.133-18.2-.051-40.648-.408s-40.646-.754-40.643-.887,18.2.051,40.65.409S256.158,257.5,256.157,257.636Z" transform="translate(-174.866 -256.299)" fill="#0b1330"/>
                  </g>
                </g>
              </g>
              <g id="Grupo_86822" data-name="Grupo 86822" transform="translate(2.338 0.079)">
                <g id="Grupo_86821" data-name="Grupo 86821">
                  <g id="Grupo_86820" data-name="Grupo 86820">
                    <path id="Trazado_140328" data-name="Trazado 140328" d="M255.139,244.027c0,.131-17.6.507-39.3.837s-39.312.493-39.313.36,17.592-.507,39.306-.837S255.136,243.894,255.139,244.027Z" transform="translate(-176.522 -243.98)" fill="#0b1330"/>
                  </g>
                </g>
              </g>
              <g id="Grupo_86825" data-name="Grupo 86825" transform="translate(80.384)">
                <g id="Grupo_86824" data-name="Grupo 86824">
                  <g id="Grupo_86823" data-name="Grupo 86823">
                    <path id="Trazado_140329" data-name="Trazado 140329" d="M232.038,262.324a88.561,88.561,0,0,1-.239-9.2,88.562,88.562,0,0,1,.239-9.2,89.034,89.034,0,0,1,.239,9.2A89.033,89.033,0,0,1,232.038,262.324Z" transform="translate(-231.799 -243.924)" fill="#0b1330"/>
                  </g>
                </g>
              </g>
            </g>
            <g id="Grupo_86829" data-name="Grupo 86829" transform="translate(8.305 7.4)">
              <g id="Grupo_86828" data-name="Grupo 86828">
                <g id="Grupo_86827" data-name="Grupo 86827">
                  <path id="Trazado_140330" data-name="Trazado 140330" d="M183.548,249.189c0-.021.2-.058.556.047a2.44,2.44,0,0,1,1.223.918,2.691,2.691,0,0,1,.442,2.239,2.659,2.659,0,0,1-4.7.592,2.683,2.683,0,0,1-.127-2.279,2.422,2.422,0,0,1,.957-1.192c.313-.189.521-.2.527-.184a2.991,2.991,0,0,0-1.166,1.488,2.41,2.41,0,0,0,.188,1.941,2.256,2.256,0,0,0,3.9-.491,2.414,2.414,0,0,0-.3-1.926A2.994,2.994,0,0,0,183.548,249.189Z" transform="translate(-180.748 -249.165)" fill="#0b1330"/>
                </g>
              </g>
            </g>
          </g>
          <g id="Grupo_86846" data-name="Grupo 86846" transform="translate(13.409 159.995)">
            <g id="Grupo_86833" data-name="Grupo 86833">
              <g id="Grupo_86832" data-name="Grupo 86832">
                <g id="Grupo_86831" data-name="Grupo 86831">
                  <path id="Trazado_140331" data-name="Trazado 140331" d="M178.528,279.553a66.412,66.412,0,0,1-1.271-7.826,65.915,65.915,0,0,1-.8-7.89,66.349,66.349,0,0,1,1.271,7.826A65.856,65.856,0,0,1,178.528,279.553Z" transform="translate(-176.434 -263.837)" fill="#0b1330"/>
                </g>
              </g>
            </g>
            <g id="Grupo_86836" data-name="Grupo 86836" transform="translate(0.87 0.188)">
              <g id="Grupo_86835" data-name="Grupo 86835">
                <g id="Grupo_86834" data-name="Grupo 86834">
                  <path id="Trazado_140332" data-name="Trazado 140332" d="M251.29,264.209c0,.133-16.621.24-37.119.24s-37.121-.107-37.121-.24,16.617-.239,37.121-.239S251.29,264.077,251.29,264.209Z" transform="translate(-177.05 -263.97)" fill="#0b1330"/>
                </g>
              </g>
            </g>
            <g id="Grupo_86839" data-name="Grupo 86839" transform="translate(77.502 1.324)">
              <g id="Grupo_86838" data-name="Grupo 86838">
                <g id="Grupo_86837" data-name="Grupo 86837">
                  <path id="Trazado_140333" data-name="Trazado 140333" d="M231.564,278.157a47.181,47.181,0,0,1-.239-6.69,47.206,47.206,0,0,1,.239-6.692,47.223,47.223,0,0,1,.239,6.692A47.2,47.2,0,0,1,231.564,278.157Z" transform="translate(-231.325 -264.775)" fill="#0b1330"/>
                </g>
              </g>
            </g>
            <g id="Grupo_86842" data-name="Grupo 86842" transform="translate(3.179 15.366)">
              <g id="Grupo_86841" data-name="Grupo 86841">
                <g id="Grupo_86840" data-name="Grupo 86840">
                  <path id="Trazado_140334" data-name="Trazado 140334" d="M253.916,274.959c0,.133-16.843.24-37.613.24s-37.618-.107-37.618-.24,16.84-.239,37.618-.239S253.916,274.827,253.916,274.959Z" transform="translate(-178.685 -274.72)" fill="#0b1330"/>
                </g>
              </g>
            </g>
            <g id="Grupo_86845" data-name="Grupo 86845" transform="translate(6.071 6.129)">
              <g id="Grupo_86844" data-name="Grupo 86844">
                <g id="Grupo_86843" data-name="Grupo 86843">
                  <path id="Trazado_140335" data-name="Trazado 140335" d="M182.543,269.375c-.014-.018.13-.168.483-.254a1.871,1.871,0,0,1,1.46.325,1.954,1.954,0,0,1,.69.826,1.82,1.82,0,0,1,.054,1.254,2.3,2.3,0,0,1-2.184,1.6,2.489,2.489,0,0,1-2.163-1.641,2.435,2.435,0,0,1,.281-2.2,2.66,2.66,0,0,1,1.122-.973c.323-.141.521-.15.527-.124a3.926,3.926,0,0,0-1.361,1.272,2.14,2.14,0,0,0-.158,1.869,2.085,2.085,0,0,0,1.768,1.322,1.883,1.883,0,0,0,1.749-1.262,1.482,1.482,0,0,0-.525-1.673,1.825,1.825,0,0,0-1.233-.412C182.733,269.326,182.561,269.412,182.543,269.375Z" transform="translate(-180.734 -268.178)" fill="#0b1330"/>
                </g>
              </g>
            </g>
          </g>
          <g id="Grupo_86859" data-name="Grupo 86859" transform="translate(22.365 188.808)">
            <g id="Grupo_86849" data-name="Grupo 86849" transform="translate(0 1.067)">
              <g id="Grupo_86848" data-name="Grupo 86848">
                <g id="Grupo_86847" data-name="Grupo 86847">
                  <path id="Trazado_140336" data-name="Trazado 140336" d="M193.311,302.71c0,.017-.095.042-.285.078a5.07,5.07,0,0,1-.843.1,8.061,8.061,0,0,1-3.089-.466,9.656,9.656,0,0,1-3.883-2.532,8.341,8.341,0,0,1-.98-10.616,9.657,9.657,0,0,1,3.356-3.2,8.054,8.054,0,0,1,2.951-1.022,5,5,0,0,1,.847-.054c.193,0,.3.007.3.023a10.729,10.729,0,0,0-3.921,1.344,9.651,9.651,0,0,0-3.156,3.144,8.029,8.029,0,0,0,.929,10.081,9.65,9.65,0,0,0,3.677,2.513A10.675,10.675,0,0,0,193.311,302.71Z" transform="translate(-182.777 -285)" fill="#48ecff"/>
                </g>
              </g>
            </g>
            <g id="Grupo_86852" data-name="Grupo 86852" transform="translate(14.587 18.107)">
              <g id="Grupo_86851" data-name="Grupo 86851">
                <g id="Grupo_86850" data-name="Grupo 86850">
                  <path id="Trazado_140337" data-name="Trazado 140337" d="M239.611,297.307c0,.133-10.41.239-23.25.239s-23.253-.106-23.253-.239,10.409-.239,23.253-.239S239.611,297.175,239.611,297.307Z" transform="translate(-193.108 -297.068)" fill="#48ecff"/>
                </g>
              </g>
            </g>
            <g id="Grupo_86855" data-name="Grupo 86855" transform="translate(8.563)">
              <g id="Grupo_86854" data-name="Grupo 86854">
                <g id="Grupo_86853" data-name="Grupo 86853">
                  <path id="Trazado_140338" data-name="Trazado 140338" d="M241.854,301.43a10.336,10.336,0,0,0,2.578-1.327,8.472,8.472,0,0,0,2.258-2.5,7.8,7.8,0,0,0,1.069-4.274,8.193,8.193,0,0,0-1.9-4.946,9.971,9.971,0,0,0-5.292-3.043,28.183,28.183,0,0,0-6.9-.627l-7.514.088-26.38.233-7.994.016-2.174-.02a4.462,4.462,0,0,1-.758-.04,4.492,4.492,0,0,1,.758-.056l2.173-.071,7.993-.167,26.377-.373,7.518-.078a28.244,28.244,0,0,1,7.009.668,10.343,10.343,0,0,1,5.485,3.214,8.5,8.5,0,0,1,1.94,5.19,8.028,8.028,0,0,1-1.178,4.424,8.465,8.465,0,0,1-2.378,2.515,7.747,7.747,0,0,1-1.95.99,4.892,4.892,0,0,1-.546.155A.577.577,0,0,1,241.854,301.43Z" transform="translate(-188.842 -284.244)" fill="#48ecff"/>
                </g>
              </g>
            </g>
            <g id="Grupo_86858" data-name="Grupo 86858" transform="translate(10.799 9.965)">
              <g id="Grupo_86857" data-name="Grupo 86857">
                <g id="Grupo_86856" data-name="Grupo 86856">
                  <path id="Trazado_140339" data-name="Trazado 140339" d="M238.142,292.128a2.458,2.458,0,0,1-.545.073l-1.569.119-5.77.346-19.051.963a16.3,16.3,0,0,1-6.277-.505c-.969-.345-1.835-.812-2.719-1.106a3.868,3.868,0,0,0-2.589-.1c-1.608.6-2.752,2.078-4.376,2.457-1.6.548-3.4-.96-2.854-2.371l.147.2a2.078,2.078,0,0,0-1.587,1.007,2.031,2.031,0,0,0-.282,1.5l-.181.023c.013-.627.023-1.135.03-1.538a2.39,2.39,0,0,1,.042-.534,2.234,2.234,0,0,1,.052.532l.059,1.538.03.813-.21-.791a2.209,2.209,0,0,1,.253-1.663,2.323,2.323,0,0,1,1.775-1.176l.236-.021-.089.222a1.426,1.426,0,0,0,.563,1.559,2.064,2.064,0,0,0,1.926.346,6.3,6.3,0,0,0,2.052-1.11,9.352,9.352,0,0,1,2.272-1.392,4.3,4.3,0,0,1,2.873.076c.933.306,1.807.771,2.732,1.094a16.044,16.044,0,0,0,6.1.466l19.057-.823,5.778-.195,1.573-.028A2.319,2.319,0,0,1,238.142,292.128Z" transform="translate(-190.426 -291.302)" fill="#0b1330"/>
                </g>
              </g>
            </g>
          </g>
          <g id="Grupo_86862" data-name="Grupo 86862" transform="translate(24.339 214.693)">
            <g id="Grupo_86861" data-name="Grupo 86861">
              <g id="Grupo_86860" data-name="Grupo 86860">
                <path id="Trazado_140340" data-name="Trazado 140340" d="M246.864,302.816c0,.131-14.034.239-31.343.239s-31.346-.107-31.346-.239,14.032-.239,31.346-.239S246.864,302.683,246.864,302.816Z" transform="translate(-184.175 -302.577)" fill="#48ecff"/>
              </g>
            </g>
          </g>
        </g>
        <g id="Grupo_86873" data-name="Grupo 86873" transform="translate(5.935 14.068)">
          <g id="Grupo_86866" data-name="Grupo 86866" transform="translate(3.681 3.739)">
            <g id="Grupo_86865" data-name="Grupo 86865">
              <g id="Grupo_86864" data-name="Grupo 86864">
                <path id="Trazado_140341" data-name="Trazado 140341" d="M182.1,163.687a8.509,8.509,0,0,1,.229,1.7c.1,1.082.222,2.622.35,4.455l.014.2-.2.024-4.9.572-3.431.371-.243.025-.01-.241c-.079-2.228-.131-4.143-.15-5.5a11.837,11.837,0,0,1,.049-2.163,12.014,12.014,0,0,1,.233,2.15c.1,1.355.21,3.267.322,5.494l-.253-.216,3.43-.394,4.9-.522-.189.226c-.089-1.835-.151-3.379-.178-4.464A8.422,8.422,0,0,1,182.1,163.687Z" transform="translate(-173.748 -163.131)" fill="#0b1330"/>
              </g>
            </g>
          </g>
          <g id="Grupo_86869" data-name="Grupo 86869">
            <g id="Grupo_86868" data-name="Grupo 86868">
              <g id="Grupo_86867" data-name="Grupo 86867">
                <path id="Trazado_140342" data-name="Trazado 140342" d="M178.917,160.49a42.865,42.865,0,0,1-3.843,3.215,43.11,43.11,0,0,1-3.929,3.112,30.793,30.793,0,0,1,7.773-6.327Z" transform="translate(-171.14 -160.483)" fill="#0b1330"/>
              </g>
            </g>
          </g>
          <g id="Grupo_86872" data-name="Grupo 86872" transform="translate(7.777 0.004)">
            <g id="Grupo_86871" data-name="Grupo 86871">
              <g id="Grupo_86870" data-name="Grupo 86870">
                <path id="Trazado_140343" data-name="Trazado 140343" d="M184.062,166.622a24.423,24.423,0,0,1-3.857-2.88,24.439,24.439,0,0,1-3.552-3.25,24.528,24.528,0,0,1,3.857,2.882A24.477,24.477,0,0,1,184.062,166.622Z" transform="translate(-176.649 -160.486)" fill="#0b1330"/>
              </g>
            </g>
          </g>
        </g>
      </g>
      <g id="Grupo_86884" data-name="Grupo 86884" transform="translate(108.315 12.791)">
        <g id="Grupo_86876" data-name="Grupo 86876" transform="translate(0 0)">
          <g id="Grupo_86875" data-name="Grupo 86875">
            <rect id="Rectángulo_16241" data-name="Rectángulo 16241" width="17.525" height="17.525" transform="translate(1.622 0) rotate(5.312)" fill="#48ecff"/>
          </g>
        </g>
        <g id="Grupo_86883" data-name="Grupo 86883" transform="translate(7.392 4.935)">
          <g id="Grupo_86879" data-name="Grupo 86879">
            <g id="Grupo_86878" data-name="Grupo 86878">
              <g id="Grupo_86877" data-name="Grupo 86877">
                <path id="Trazado_140344" data-name="Trazado 140344" d="M202.59,137.681a7.467,7.467,0,0,1-.031-1.9l.042-.962a1.429,1.429,0,0,1,.154-.593,1.3,1.3,0,0,1,.474-.47c.369-.223.761-.33,1.052-.555a2.031,2.031,0,0,0,.69-.915,1.792,1.792,0,0,0-.561-2.011,2.256,2.256,0,0,0-1.752-.531,3.284,3.284,0,0,0-1.614.77c-.024-.014.044-.195.282-.443a2.483,2.483,0,0,1,1.279-.659,2.537,2.537,0,0,1,2.087.527,2.414,2.414,0,0,1,.761,1.082,2.138,2.138,0,0,1-.035,1.433,2.451,2.451,0,0,1-.864,1.127,9.579,9.579,0,0,1-1.1.555.823.823,0,0,0-.46.726l-.1.945A7.463,7.463,0,0,1,202.59,137.681Z" transform="translate(-201.041 -129.365)" fill="#0b1330"/>
              </g>
            </g>
          </g>
          <g id="Grupo_86882" data-name="Grupo 86882" transform="translate(0.956 9.2)">
            <g id="Grupo_86881" data-name="Grupo 86881">
              <g id="Grupo_86880" data-name="Grupo 86880">
                <path id="Trazado_140345" data-name="Trazado 140345" d="M202.061,135.987c.018.062-.008.144.025.2.055.073.028-.007.082.007.03-.007.025-.008.03.017s.03-.01.028-.042c0-.071-.052-.136-.055-.2s.126-.15.308-.023a.381.381,0,0,1,.145.374.453.453,0,0,1-.376.346.464.464,0,0,1-.463-.181.386.386,0,0,1-.021-.4C201.887,135.886,202.054,135.927,202.061,135.987Z" transform="translate(-201.718 -135.881)" fill="#0b1330"/>
              </g>
            </g>
          </g>
        </g>
      </g>
      <g id="Grupo_86909" data-name="Grupo 86909" transform="translate(10.459)">
        <g id="Grupo_86886" data-name="Grupo 86886" transform="translate(0 0.291)">
          <g id="Grupo_86885" data-name="Grupo 86885" transform="translate(0 0)">
            <rect id="Rectángulo_16242" data-name="Rectángulo 16242" width="16.799" height="16.799" transform="translate(0 2.201) rotate(-7.529)" fill="#48ecff"/>
          </g>
        </g>
        <g id="Grupo_86888" data-name="Grupo 86888" transform="translate(19.067 22.614)">
          <g id="Grupo_86887" data-name="Grupo 86887" transform="translate(0 0)">
            <rect id="Rectángulo_16243" data-name="Rectángulo 16243" width="16.799" height="16.799" transform="translate(1.555 0) rotate(5.311)" fill="#48ecff"/>
          </g>
        </g>
        <g id="Grupo_86890" data-name="Grupo 86890" transform="translate(48.968 20.654)">
          <g id="Grupo_86889" data-name="Grupo 86889" transform="translate(0 0)">
            <rect id="Rectángulo_16244" data-name="Rectángulo 16244" width="16.799" height="16.799" transform="matrix(0.996, 0.093, -0.093, 0.996, 1.555, 0)" fill="#0b1330"/>
          </g>
        </g>
        <g id="Grupo_86892" data-name="Grupo 86892" transform="translate(39.618)">
          <g id="Grupo_86891" data-name="Grupo 86891">
            <rect id="Rectángulo_16245" data-name="Rectángulo 16245" width="16.799" height="16.799" fill="#48ecff"/>
          </g>
        </g>
        <g id="Grupo_86894" data-name="Grupo 86894" transform="translate(62.323)">
          <g id="Grupo_86893" data-name="Grupo 86893">
            <rect id="Rectángulo_16246" data-name="Rectángulo 16246" width="16.799" height="16.799" fill="#48ecff"/>
          </g>
        </g>
        <g id="Grupo_86896" data-name="Grupo 86896" transform="translate(20.539 0.291)">
          <g id="Grupo_86895" data-name="Grupo 86895">
            <rect id="Rectángulo_16247" data-name="Rectángulo 16247" width="16.799" height="16.799" fill="#ff8d56"/>
          </g>
        </g>
        <g id="Grupo_86899" data-name="Grupo 86899" transform="translate(38.787 34.431)">
          <g id="Grupo_86898" data-name="Grupo 86898">
            <g id="Grupo_86897" data-name="Grupo 86897">
              <path id="Trazado_140346" data-name="Trazado 140346" d="M161.271,141.436a14.088,14.088,0,0,1-3.651.24,14.088,14.088,0,0,1-3.651-.24,14.2,14.2,0,0,1,3.651-.239A14.2,14.2,0,0,1,161.271,141.436Z" transform="translate(-153.969 -141.197)" fill="#0b1330"/>
            </g>
          </g>
        </g>
        <g id="Grupo_86902" data-name="Grupo 86902" transform="translate(43.363 32.955)">
          <g id="Grupo_86901" data-name="Grupo 86901">
            <g id="Grupo_86900" data-name="Grupo 86900">
              <path id="Trazado_140347" data-name="Trazado 140347" d="M157.214,140.162c.081-.112,1.206.682,2.825,1.155l.412.12-.322.287-.117.106a11.3,11.3,0,0,1-2.6,1.985,11.3,11.3,0,0,1,2.277-2.342l.119-.1.089.407A5.006,5.006,0,0,1,157.214,140.162Z" transform="translate(-157.21 -140.151)" fill="#0b1330"/>
            </g>
          </g>
        </g>
        <g id="Grupo_86905" data-name="Grupo 86905" transform="translate(24.886 44.35)">
          <g id="Grupo_86904" data-name="Grupo 86904">
            <g id="Grupo_86903" data-name="Grupo 86903">
              <path id="Trazado_140348" data-name="Trazado 140348" d="M162.634,175.266a10.737,10.737,0,0,1-1.605.076l-4.37.1c-.921.016-1.92.136-3.029.124a10.633,10.633,0,0,1-3.476-.568,5.825,5.825,0,0,1-3.06-2.427,9.946,9.946,0,0,1-1.231-4c-.577-5.626-1.007-10.7-1.324-14.386-.14-1.782-.256-3.253-.342-4.363a10.174,10.174,0,0,1-.059-1.605,10.532,10.532,0,0,1,.244,1.588c.126,1.106.291,2.571.493,4.347.381,3.749.9,8.786,1.463,14.356a9.578,9.578,0,0,0,1.155,3.814,5.407,5.407,0,0,0,2.815,2.26,10.43,10.43,0,0,0,3.331.585c1.066.027,2.084-.072,3.012-.066,1.851-.02,3.346.017,4.38.049A9.943,9.943,0,0,1,162.634,175.266Z" transform="translate(-144.123 -148.222)" fill="#0b1330"/>
            </g>
          </g>
        </g>
        <g id="Grupo_86908" data-name="Grupo 86908" transform="translate(41.746 69.493)">
          <g id="Grupo_86907" data-name="Grupo 86907">
            <g id="Grupo_86906" data-name="Grupo 86906">
              <path id="Trazado_140349" data-name="Trazado 140349" d="M156.071,170.324a8.34,8.34,0,0,1,2.428-2.5l.165-.127.037.4a6.031,6.031,0,0,1-2.561-2.063c.092-.1,1.178.841,2.776,1.636l.342.169-.3.234-.161.124A27.9,27.9,0,0,1,156.071,170.324Z" transform="translate(-156.064 -166.03)" fill="#0b1330"/>
            </g>
          </g>
        </g>
      </g>
      <g id="Grupo_86932" data-name="Grupo 86932" transform="translate(0 93.955)">
        <g id="Grupo_86911" data-name="Grupo 86911" transform="translate(19.264 69.465)">
          <g id="Grupo_86910" data-name="Grupo 86910" transform="translate(0 0)">
            <rect id="Rectángulo_16248" data-name="Rectángulo 16248" width="16.186" height="16.186" transform="translate(1.498 0) rotate(5.312)" fill="#48ecff"/>
          </g>
        </g>
        <g id="Grupo_86913" data-name="Grupo 86913" transform="translate(0 22.897)">
          <g id="Grupo_86912" data-name="Grupo 86912">
            <rect id="Rectángulo_16249" data-name="Rectángulo 16249" width="16.186" height="16.186" fill="#ff8d56"/>
          </g>
        </g>
        <g id="Grupo_86915" data-name="Grupo 86915" transform="translate(20.929)">
          <g id="Grupo_86914" data-name="Grupo 86914">
            <rect id="Rectángulo_16250" data-name="Rectángulo 16250" width="16.186" height="16.186" fill="#48ecff"/>
          </g>
        </g>
        <g id="Grupo_86917" data-name="Grupo 86917" transform="translate(20.418 21.096)">
          <g id="Grupo_86916" data-name="Grupo 86916" transform="translate(0 0)">
            <rect id="Rectángulo_16251" data-name="Rectángulo 16251" width="16.186" height="16.186" transform="translate(0 1.058) rotate(-3.748)" fill="#fff"/>
          </g>
        </g>
        <g id="Grupo_86919" data-name="Grupo 86919" transform="translate(20.215 44.019)">
          <g id="Grupo_86918" data-name="Grupo 86918" transform="translate(0 0)">
            <rect id="Rectángulo_16252" data-name="Rectángulo 16252" width="16.186" height="16.186" transform="translate(1.498 0) rotate(5.312)" fill="#0b1330"/>
          </g>
        </g>
        <g id="Grupo_86922" data-name="Grupo 86922" transform="translate(39.071 33.525)">
          <g id="Grupo_86921" data-name="Grupo 86921">
            <g id="Grupo_86920" data-name="Grupo 86920">
              <path id="Trazado_140350" data-name="Trazado 140350" d="M148,251.116c-.025-.04.648-.474,1.792-1.353a30.893,30.893,0,0,0,4.443-4.164,31.855,31.855,0,0,0,4.9-7.544,30,30,0,0,0,2.738-10.629,23.048,23.048,0,0,0-1.758-10.767,16.431,16.431,0,0,0-5.6-6.876,14.326,14.326,0,0,0-5.536-2.371c-1.415-.261-2.222-.223-2.22-.278a2.747,2.747,0,0,1,.582-.032,9.709,9.709,0,0,1,1.669.127,13.929,13.929,0,0,1,5.7,2.276,16.545,16.545,0,0,1,5.809,6.975,23.15,23.15,0,0,1,1.833,10.976,29.866,29.866,0,0,1-2.814,10.786,31.311,31.311,0,0,1-5.049,7.583,28.17,28.17,0,0,1-4.586,4.088c-.576.441-1.074.71-1.394.919A2.7,2.7,0,0,1,148,251.116Z" transform="translate(-146.763 -207.1)" fill="#0b1330"/>
            </g>
          </g>
        </g>
        <g id="Grupo_86925" data-name="Grupo 86925" transform="translate(39.522 73.413)">
          <g id="Grupo_86924" data-name="Grupo 86924">
            <g id="Grupo_86923" data-name="Grupo 86923">
              <path id="Trazado_140351" data-name="Trazado 140351" d="M153.155,240.766a35.513,35.513,0,0,1-5.775.565h-.011l-.287.017.035-.285a35.409,35.409,0,0,1,.946-5.711,35.234,35.234,0,0,1-.472,5.77l-.25-.268h.011A35.162,35.162,0,0,1,153.155,240.766Z" transform="translate(-147.082 -235.351)" fill="#0b1330"/>
            </g>
          </g>
        </g>
        <g id="Grupo_86928" data-name="Grupo 86928" transform="translate(42.243 12.51)">
          <g id="Grupo_86927" data-name="Grupo 86927">
            <g id="Grupo_86926" data-name="Grupo 86926">
              <path id="Trazado_140352" data-name="Trazado 140352" d="M190.783,192.455c0,.131-9.351.239-20.885.239s-20.889-.107-20.889-.239,9.351-.239,20.889-.239S190.783,192.322,190.783,192.455Z" transform="translate(-149.009 -192.216)" fill="#0b1330"/>
            </g>
          </g>
        </g>
        <g id="Grupo_86931" data-name="Grupo 86931" transform="translate(81.373 10.404)">
          <g id="Grupo_86930" data-name="Grupo 86930">
            <g id="Grupo_86929" data-name="Grupo 86929">
              <path id="Trazado_140353" data-name="Trazado 140353" d="M177.336,196.072a17.784,17.784,0,0,1,2.451-3.307l.113-.134.058.356a16.917,16.917,0,0,1-3.232-2.253,16.866,16.866,0,0,1,3.482,1.847l.236.144-.178.213-.112.134A17.978,17.978,0,0,1,177.336,196.072Z" transform="translate(-176.723 -190.724)" fill="#0b1330"/>
            </g>
          </g>
        </g>
      </g>
      <g id="Grupo_86939" data-name="Grupo 86939" transform="translate(162.35 212.697)">
        <g id="Grupo_86935" data-name="Grupo 86935" transform="translate(0 3.59)">
          <g id="Grupo_86934" data-name="Grupo 86934">
            <g id="Grupo_86933" data-name="Grupo 86933">
              <path id="Trazado_140354" data-name="Trazado 140354" d="M251.489,270.237a79.118,79.118,0,0,1-8.706.24,79.133,79.133,0,0,1-8.707-.24,79.786,79.786,0,0,1,8.707-.239A79.77,79.77,0,0,1,251.489,270.237Z" transform="translate(-234.076 -269.998)" fill="#0b1330"/>
            </g>
          </g>
        </g>
        <g id="Grupo_86938" data-name="Grupo 86938" transform="translate(15.092)">
          <g id="Grupo_86937" data-name="Grupo 86937">
            <g id="Grupo_86936" data-name="Grupo 86936">
              <path id="Trazado_140355" data-name="Trazado 140355" d="M246.012,275.693a2.936,2.936,0,0,1,.236-1.264,9.463,9.463,0,0,1,1.425-2.825l-.024.251-.213-.405a38.4,38.4,0,0,0-2.666-3.989,9.529,9.529,0,0,1,3.086,3.763l.217.417.068.13-.092.123A26.252,26.252,0,0,0,246.012,275.693Z" transform="translate(-244.765 -267.456)" fill="#0b1330"/>
            </g>
          </g>
        </g>
      </g>
      <g id="Grupo_86965" data-name="Grupo 86965" transform="translate(183.369 206.107)">
        <g id="Grupo_86941" data-name="Grupo 86941" transform="translate(0 0)">
          <g id="Grupo_86940" data-name="Grupo 86940" transform="translate(0)">
            <rect id="Rectángulo_16253" data-name="Rectángulo 16253" width="23.815" height="23.815" transform="translate(0 1.557) rotate(-3.747)" fill="#48ecff"/>
          </g>
        </g>
        <g id="Grupo_86964" data-name="Grupo 86964" transform="translate(6.361 6.52)">
          <g id="Grupo_86963" data-name="Grupo 86963">
            <g id="Grupo_86951" data-name="Grupo 86951">
              <g id="Grupo_86950" data-name="Grupo 86950">
                <g id="Grupo_86943" data-name="Grupo 86943" transform="translate(0.233 0.19)">
                  <g id="Grupo_86942" data-name="Grupo 86942">
                    <path id="Trazado_140356" data-name="Trazado 140356" d="M264.628,273.737a3.579,3.579,0,1,0-5.553-.85h0l-.727.679.174,1.209-1.13-.318-.911.85.174,1.209-1.13-.316-.784.731.106.736-.689-.193-.455.426-.069,1.12,1.67.419,5.418-5.055A3.579,3.579,0,0,0,264.628,273.737Zm-.529-4.4a1.026,1.026,0,1,1-1.45-.051A1.028,1.028,0,0,1,264.1,269.336Z" transform="translate(-253.633 -267.541)" fill="none"/>
                  </g>
                </g>
                <g id="Grupo_86946" data-name="Grupo 86946" transform="translate(8.691 1.497)">
                  <g id="Grupo_86945" data-name="Grupo 86945">
                    <g id="Grupo_86944" data-name="Grupo 86944">
                      <path id="Trazado_140357" data-name="Trazado 140357" d="M261.631,268.955c-.045.061-.333-.236-.836-.152a.876.876,0,0,0-.633.486A.817.817,0,0,0,261.2,270.4a.874.874,0,0,0,.529-.6c.119-.5-.158-.8-.095-.844.01-.055.469.188.426.9a1.183,1.183,0,0,1-.689.946,1.236,1.236,0,0,1-1.6-1.713,1.185,1.185,0,0,1,.99-.623C261.475,268.473,261.686,268.949,261.631,268.955Z" transform="translate(-259.623 -268.466)" fill="#fff"/>
                    </g>
                  </g>
                </g>
                <g id="Grupo_86949" data-name="Grupo 86949">
                  <g id="Grupo_86948" data-name="Grupo 86948">
                    <g id="Grupo_86947" data-name="Grupo 86947">
                      <path id="Trazado_140358" data-name="Trazado 140358" d="M264.7,273.792c.008.01-.054.083-.189.215a3.356,3.356,0,0,1-.686.473,3.649,3.649,0,0,1-3.091.093l.157-.027-5.368,5.106-.085.08-.114-.028-1.672-.412-.179-.044.01-.186c.02-.35.042-.733.064-1.12l.006-.09.066-.063.455-.426.095-.088.126.034.689.192-.294.257-.107-.737-.018-.12.09-.085.781-.731.1-.092.128.037,1.131.315-.3.263-.174-1.209-.018-.123.092-.085.241-.226.669-.624.1-.092.13.037q.57.159,1.13.318l-.3.263-.172-1.21-.017-.121.09-.085q.369-.341.729-.678l-.044.287a3.79,3.79,0,0,1,2.173-5.485,3.742,3.742,0,0,1,4.486,1.951,3.65,3.65,0,0,1-.1,3.342,2.5,2.5,0,0,1-.8.926,7.328,7.328,0,0,0,.657-1,3.535,3.535,0,0,0-.025-3.132,3.447,3.447,0,0,0-1.58-1.533,3.373,3.373,0,0,0-4.4,4.7l.092.158-.136.127c-.24.226-.483.452-.727.682l.073-.206q.087.6.175,1.209l.052.36-.352-.1-1.13-.316.226-.055-.669.624-.241.226.073-.209c.059.415.119.826.174,1.209l.052.363-.352-.1c-.388-.11-.774-.217-1.13-.319l.224-.054-.785.729.073-.2.1.737.051.354-.343-.1-.689-.195.22-.054-.457.424.072-.153c-.025.387-.049.77-.073,1.118l-.168-.23,1.667.428-.2.052,5.465-5,.072-.066.086.039a3.558,3.558,0,0,0,2.906.03A9.4,9.4,0,0,0,264.7,273.792Z" transform="translate(-253.468 -267.406)" fill="#fff"/>
                    </g>
                  </g>
                </g>
              </g>
            </g>
            <g id="Grupo_86962" data-name="Grupo 86962">
              <g id="Grupo_86961" data-name="Grupo 86961">
                <g id="Grupo_86960" data-name="Grupo 86960">
                  <g id="Grupo_86953" data-name="Grupo 86953" transform="translate(0.233 0.19)">
                    <g id="Grupo_86952" data-name="Grupo 86952">
                      <path id="Trazado_140359" data-name="Trazado 140359" d="M264.628,273.737a3.579,3.579,0,1,0-5.553-.85h0l-.727.679.174,1.209-1.13-.318-.911.85.174,1.209-1.13-.316-.784.731.106.736-.689-.193-.455.426-.069,1.12,1.67.419,5.418-5.055A3.579,3.579,0,0,0,264.628,273.737Zm-.529-4.4a1.026,1.026,0,1,1-1.45-.051A1.028,1.028,0,0,1,264.1,269.336Z" transform="translate(-253.633 -267.541)" fill="none"/>
                    </g>
                  </g>
                  <g id="Grupo_86956" data-name="Grupo 86956" transform="translate(8.691 1.497)">
                    <g id="Grupo_86955" data-name="Grupo 86955">
                      <g id="Grupo_86954" data-name="Grupo 86954">
                        <path id="Trazado_140360" data-name="Trazado 140360" d="M261.631,268.955c-.045.061-.333-.236-.836-.152a.876.876,0,0,0-.633.486A.817.817,0,0,0,261.2,270.4a.874.874,0,0,0,.529-.6c.119-.5-.158-.8-.095-.844.01-.055.469.188.426.9a1.183,1.183,0,0,1-.689.946,1.236,1.236,0,0,1-1.6-1.713,1.185,1.185,0,0,1,.99-.623C261.475,268.473,261.686,268.949,261.631,268.955Z" transform="translate(-259.623 -268.466)" fill="#fff"/>
                      </g>
                    </g>
                  </g>
                  <g id="Grupo_86959" data-name="Grupo 86959">
                    <g id="Grupo_86958" data-name="Grupo 86958">
                      <g id="Grupo_86957" data-name="Grupo 86957">
                        <path id="Trazado_140361" data-name="Trazado 140361" d="M264.7,273.792c.008.01-.054.083-.189.215a3.356,3.356,0,0,1-.686.473,3.649,3.649,0,0,1-3.091.093l.157-.027-5.368,5.106-.085.08-.114-.028-1.672-.412-.179-.044.01-.186c.02-.35.042-.733.064-1.12l.006-.09.066-.063.455-.426.095-.088.126.034.689.192-.294.257-.107-.737-.018-.12.09-.085.781-.731.1-.092.128.037,1.131.315-.3.263-.174-1.209-.018-.123.092-.085.241-.226.669-.624.1-.092.13.037q.57.159,1.13.318l-.3.263-.172-1.21-.017-.121.09-.085q.369-.341.729-.678l-.044.287a3.79,3.79,0,0,1,2.173-5.485,3.742,3.742,0,0,1,4.486,1.951,3.65,3.65,0,0,1-.1,3.342,2.5,2.5,0,0,1-.8.926,7.328,7.328,0,0,0,.657-1,3.535,3.535,0,0,0-.025-3.132,3.447,3.447,0,0,0-1.58-1.533,3.373,3.373,0,0,0-4.4,4.7l.092.158-.136.127c-.24.226-.483.452-.727.682l.073-.206q.087.6.175,1.209l.052.36-.352-.1-1.13-.316.226-.055-.669.624-.241.226.073-.209c.059.415.119.826.174,1.209l.052.363-.352-.1c-.388-.11-.774-.217-1.13-.319l.224-.054-.785.729.073-.2.1.737.051.354-.343-.1-.689-.195.22-.054-.457.424.072-.153c-.025.387-.049.77-.073,1.118l-.168-.23,1.667.428-.2.052,5.465-5,.072-.066.086.039a3.558,3.558,0,0,0,2.906.03A9.4,9.4,0,0,0,264.7,273.792Z" transform="translate(-253.468 -267.406)" fill="#fff"/>
                      </g>
                    </g>
                  </g>
                </g>
              </g>
            </g>
          </g>
        </g>
      </g>
      <g id="Grupo_86972" data-name="Grupo 86972" transform="translate(165.706 230.515)">
        <g id="Grupo_86968" data-name="Grupo 86968" transform="translate(2.211)">
          <g id="Grupo_86967" data-name="Grupo 86967">
            <g id="Grupo_86966" data-name="Grupo 86966">
              <path id="Trazado_140362" data-name="Trazado 140362" d="M268.485,280.075a2.889,2.889,0,0,1,.069.592c.027.438.061,1,.1,1.7.076,1.477.161,3.615.222,6.259s.1,5.793.075,9.289c-.013,1.748-.04,3.583-.083,5.485a17.3,17.3,0,0,1-.216,2.93A4.177,4.177,0,0,1,267.116,309a6.419,6.419,0,0,1-2.9,1.028c-.984.138-1.941.243-2.892.342-1.9.195-3.729.34-5.477.431-3.5.186-6.653.188-9.3.1s-4.782-.251-6.253-.4c-.737-.068-1.307-.141-1.693-.192a2.747,2.747,0,0,1-.587-.1,2.7,2.7,0,0,1,.6.007l1.7.1c1.474.089,3.609.2,6.248.246s5.783.009,9.265-.2c1.741-.1,3.566-.256,5.453-.456.942-.1,1.909-.209,2.869-.346a6.009,6.009,0,0,0,2.683-.94,3.713,3.713,0,0,0,1.358-2.383,17.266,17.266,0,0,0,.215-2.848c.038-1.9.075-3.73.11-5.478.047-3.492.047-6.639.028-9.281-.03-2.6-.052-4.72-.071-6.258-.006-.7-.01-1.264-.013-1.7A2.721,2.721,0,0,1,268.485,280.075Z" transform="translate(-238.019 -280.075)" fill="#0b1330"/>
            </g>
          </g>
        </g>
        <g id="Grupo_86971" data-name="Grupo 86971" transform="translate(0 24.823)">
          <g id="Grupo_86970" data-name="Grupo 86970">
            <g id="Grupo_86969" data-name="Grupo 86969">
              <path id="Trazado_140363" data-name="Trazado 140363" d="M244.077,308.178a18.071,18.071,0,0,1-2.087-1.206,50.845,50.845,0,0,0-5.2-2.709l-.336-.151.274-.243.49-.436c1.85-1.643,3.542-3.11,4.785-4.155a14.41,14.41,0,0,1,2.076-1.618,14.34,14.34,0,0,1-1.85,1.868c-1.183,1.11-2.841,2.618-4.692,4.261l-.49.433-.061-.394a35.926,35.926,0,0,1,5.179,2.868A9.781,9.781,0,0,1,244.077,308.178Z" transform="translate(-236.453 -297.656)" fill="#0b1330"/>
            </g>
          </g>
        </g>
      </g>
      <g id="Grupo_86982" data-name="Grupo 86982" transform="translate(143.815 45.938)">
        <g id="Grupo_86975" data-name="Grupo 86975" transform="translate(0 12.682)">
          <g id="Grupo_86974" data-name="Grupo 86974">
            <g id="Grupo_86973" data-name="Grupo 86973">
              <path id="Trazado_140364" data-name="Trazado 140364" d="M232.551,159.106a6.531,6.531,0,0,1,2.557-.031A9.678,9.678,0,0,1,241,162.666a8.889,8.889,0,0,1,1.857,4.473,9.985,9.985,0,0,1-.1,2.725,10.877,10.877,0,0,1-.922,2.736,10.636,10.636,0,0,1-4.169,4.5,10.483,10.483,0,0,1-6.452,1.276,11.925,11.925,0,0,1-6.091-2.515,11.069,11.069,0,0,1-3.542-5.014,10.659,10.659,0,0,1-.449-5.54,8.46,8.46,0,0,1,2.225-4.3,8.883,8.883,0,0,1,3.353-2.173,8,8,0,0,1,2.974-.505,6.624,6.624,0,0,1,1.879.3,3.478,3.478,0,0,1,.614.254,9.188,9.188,0,0,0-2.495-.373,8.032,8.032,0,0,0-2.877.569,8.717,8.717,0,0,0-3.2,2.156,8.157,8.157,0,0,0-2.08,4.141,10.3,10.3,0,0,0,.474,5.319,10.682,10.682,0,0,0,3.418,4.795,11.519,11.519,0,0,0,5.854,2.406,10.056,10.056,0,0,0,6.164-1.207,10.237,10.237,0,0,0,4.01-4.292,10.535,10.535,0,0,0,.9-2.618,9.691,9.691,0,0,0,.117-2.6,8.589,8.589,0,0,0-1.73-4.309,9.671,9.671,0,0,0-5.658-3.616A12.98,12.98,0,0,0,232.551,159.106Z" transform="translate(-220.948 -158.329)" fill="#48ecff"/>
            </g>
          </g>
        </g>
        <g id="Grupo_86978" data-name="Grupo 86978" transform="translate(17.178 1.311)">
          <g id="Grupo_86977" data-name="Grupo 86977">
            <g id="Grupo_86976" data-name="Grupo 86976">
              <path id="Trazado_140365" data-name="Trazado 140365" d="M251.193,150.276a3.447,3.447,0,0,1-.107.981,14.105,14.105,0,0,1-.753,2.582,16.1,16.1,0,0,1-13.557,10.193,14.19,14.19,0,0,1-2.69.006,3.413,3.413,0,0,1-.971-.171c.006-.093,1.4.113,3.624-.171a16.606,16.606,0,0,0,13.282-9.985C250.911,151.657,251.1,150.256,251.193,150.276Z" transform="translate(-233.115 -150.276)" fill="#48ecff"/>
            </g>
          </g>
        </g>
        <g id="Grupo_86981" data-name="Grupo 86981" transform="translate(33.014)">
          <g id="Grupo_86980" data-name="Grupo 86980">
            <g id="Grupo_86979" data-name="Grupo 86979">
              <path id="Trazado_140366" data-name="Trazado 140366" d="M248.26,152.239a9.88,9.88,0,0,1-1.823-2.38l.373.037-.112.114a10.581,10.581,0,0,1-2.361,2.1,10.56,10.56,0,0,1,2.018-2.429l.112-.114.21-.216.161.253A9.823,9.823,0,0,1,248.26,152.239Z" transform="translate(-244.331 -149.347)" fill="#48ecff"/>
            </g>
          </g>
        </g>
      </g>
      <g id="Grupo_86994" data-name="Grupo 86994" transform="translate(163.925 26.042)">
        <g id="Grupo_86984" data-name="Grupo 86984" transform="translate(25.751 33.508)">
          <g id="Grupo_86983" data-name="Grupo 86983">
            <rect id="Rectángulo_16254" data-name="Rectángulo 16254" width="15.068" height="15.068" fill="#48ecff"/>
          </g>
        </g>
        <g id="Grupo_86986" data-name="Grupo 86986" transform="translate(25.09 16.256)">
          <g id="Grupo_86985" data-name="Grupo 86985" transform="translate(0 0)">
            <rect id="Rectángulo_16255" data-name="Rectángulo 16255" width="15.068" height="15.068" transform="translate(0 1.974) rotate(-7.529)" fill="#48ecff"/>
          </g>
        </g>
        <g id="Grupo_86988" data-name="Grupo 86988" transform="translate(22.739 0.058)">
          <g id="Grupo_86987" data-name="Grupo 86987" transform="translate(0 0)">
            <rect id="Rectángulo_16256" data-name="Rectángulo 16256" width="15.068" height="15.068" transform="translate(0 1.974) rotate(-7.529)" fill="#ff8d56"/>
          </g>
        </g>
        <g id="Grupo_86990" data-name="Grupo 86990" transform="translate(0 0)">
          <g id="Grupo_86989" data-name="Grupo 86989">
            <rect id="Rectángulo_16257" data-name="Rectángulo 16257" width="15.068" height="15.068" transform="translate(2.109 0) rotate(8.046)" fill="#48ecff"/>
          </g>
        </g>
        <g id="Grupo_86993" data-name="Grupo 86993" transform="translate(15.881 9.867)">
          <g id="Grupo_86992" data-name="Grupo 86992">
            <g id="Grupo_86991" data-name="Grupo 86991">
              <path id="Trazado_140367" data-name="Trazado 140367" d="M254.216,142.4a31.81,31.81,0,0,1-7.777.206,31.815,31.815,0,0,1,7.777-.206Z" transform="translate(-246.439 -142.244)" fill="#48ecff"/>
            </g>
          </g>
        </g>
      </g>
      <g id="Grupo_87005" data-name="Grupo 87005" transform="translate(68.706 36.66)">
        <g id="Grupo_87001" data-name="Grupo 87001" transform="translate(0 1.706)">
          <g id="Grupo_86997" data-name="Grupo 86997" transform="translate(0 21.308)">
            <g id="Grupo_86996" data-name="Grupo 86996">
              <g id="Grupo_86995" data-name="Grupo 86995">
                <path id="Trazado_140368" data-name="Trazado 140368" d="M182.853,160.706a3.022,3.022,0,0,1,.6.144,6.419,6.419,0,0,1,1.59.791,8.434,8.434,0,0,1,3.468,5.4,8.543,8.543,0,0,1-.367,4.5,10.83,10.83,0,0,1-2.909,4.3,11.674,11.674,0,0,1-5.042,2.722,11.254,11.254,0,0,1-6.146-.148,8.728,8.728,0,0,1-4.847-3.75,10.122,10.122,0,0,1-1.447-5.545,9.909,9.909,0,0,1,1.473-4.974,10.343,10.343,0,0,1,3.2-3.192,11.835,11.835,0,0,1,6.194-1.882,10.139,10.139,0,0,1,1.768.119,2.986,2.986,0,0,1,.6.13c-.006.055-.844-.128-2.365-.064a12.015,12.015,0,0,0-6.015,1.979,10.1,10.1,0,0,0-3.048,3.119,9.566,9.566,0,0,0-1.368,4.777,9.721,9.721,0,0,0,1.4,5.286,8.287,8.287,0,0,0,4.6,3.542,10.84,10.84,0,0,0,5.886.148,11.287,11.287,0,0,0,4.858-2.594,10.492,10.492,0,0,0,2.832-4.106,8.248,8.248,0,0,0,.408-4.308,8.382,8.382,0,0,0-3.242-5.313A9.473,9.473,0,0,0,182.853,160.706Z" transform="translate(-167.752 -159.075)" fill="#48ecff"/>
              </g>
            </g>
          </g>
          <g id="Grupo_87000" data-name="Grupo 87000" transform="translate(20.175)">
            <g id="Grupo_86999" data-name="Grupo 86999">
              <g id="Grupo_86998" data-name="Grupo 86998">
                <path id="Trazado_140369" data-name="Trazado 140369" d="M211.729,143.984a1.811,1.811,0,0,1,.061.479c.013.315.069.779.056,1.379a25.942,25.942,0,0,1-.474,5.062,28.1,28.1,0,0,1-22.411,22.414,25.939,25.939,0,0,1-5.062.474c-.6.013-1.065-.042-1.379-.056a1.943,1.943,0,0,1-.479-.059c0-.042.664-.028,1.855-.069a29.7,29.7,0,0,0,5-.62,28.262,28.262,0,0,0,22.147-22.15,29.505,29.505,0,0,0,.618-5C211.7,144.648,211.687,143.985,211.729,143.984Z" transform="translate(-182.041 -143.984)" fill="#48ecff"/>
              </g>
            </g>
          </g>
        </g>
        <g id="Grupo_87004" data-name="Grupo 87004" transform="translate(46.859)">
          <g id="Grupo_87003" data-name="Grupo 87003">
            <g id="Grupo_87002" data-name="Grupo 87002">
              <path id="Trazado_140370" data-name="Trazado 140370" d="M207.95,148.13a40.618,40.618,0,0,1-3.8-4.775l.4-.023-.181.316a43.875,43.875,0,0,1-3.425,5.482,43.907,43.907,0,0,1,3.01-5.721l.182-.315.184-.319.216.3A40.741,40.741,0,0,1,207.95,148.13Z" transform="translate(-200.94 -142.776)" fill="#48ecff"/>
            </g>
          </g>
        </g>
      </g>
    </g>
    <g id="Grupo_87016" data-name="Grupo 87016" transform="translate(366.967 190.296)">
      <g id="Grupo_87015" data-name="Grupo 87015" transform="translate(0 0)">
        <g id="Grupo_87014" data-name="Grupo 87014">
          <circle id="Elipse_4466" data-name="Elipse 4466" cx="27.282" cy="27.282" r="27.282" transform="matrix(0.129, -0.992, 0.992, 0.129, 0, 54.106)" fill="#e87f50"/>
          <g id="Grupo_87013" data-name="Grupo 87013" transform="translate(21.218 19.573)">
            <g id="Grupo_87009" data-name="Grupo 87009" transform="translate(0 10.347)">
              <g id="Grupo_87008" data-name="Grupo 87008">
                <g id="Grupo_87007" data-name="Grupo 87007">
                  <path id="Trazado_140371" data-name="Trazado 140371" d="M328.4,201.708H309.679v-2.3a9.358,9.358,0,0,1,9.358-9.358h0a9.357,9.357,0,0,1,9.358,9.358Z" transform="translate(-309.679 -190.048)" fill="#fff"/>
                </g>
              </g>
            </g>
            <g id="Grupo_87012" data-name="Grupo 87012" transform="translate(3.857)">
              <g id="Grupo_87011" data-name="Grupo 87011">
                <g id="Grupo_87010" data-name="Grupo 87010">
                  <path id="Trazado_140372" data-name="Trazado 140372" d="M323.413,188.222a5.5,5.5,0,1,1-5.5-5.5A5.5,5.5,0,0,1,323.413,188.222Z" transform="translate(-312.411 -182.72)" fill="#fff"/>
                </g>
              </g>
            </g>
          </g>
        </g>
      </g>
    </g>
  </g>
</svg>
