<svg xmlns="http://www.w3.org/2000/svg" width="86.001" height="86" viewBox="0 0 86.001 86">
  <g id="Filled_outline" data-name="Filled outline" transform="translate(-212.997 -213)">
    <path id="Trazado_117936" data-name="Trazado 117936" d="M248.831,291.833a5.734,5.734,0,0,0,5.734,5.734h37.266a5.734,5.734,0,0,0,5.734-5.734V286.1H248.831Z" fill="#e0e0de"/>
    <path id="Trazado_117937" data-name="Trazado 117937" d="M248.831,223.033h48.734V286.1H248.831Z" fill="#348fd9"/>
    <path id="Trazado_117938" data-name="Trazado 117938" d="M291.831,214.433H254.565a5.734,5.734,0,0,0-5.734,5.734v2.866h48.734v-2.866A5.734,5.734,0,0,0,291.831,214.433Z" fill="#e0e0de"/>
    <path id="Trazado_117939" data-name="Trazado 117939" d="M257.911,297.567h33.92a5.734,5.734,0,0,0,5.734-5.734V286.1H262.056Z" fill="#d6d6d4"/>
    <path id="Trazado_117940" data-name="Trazado 117940" d="M262.056,286.1h35.509V223.033H284.854Z" fill="#3086cd"/>
    <path id="Trazado_117941" data-name="Trazado 117941" d="M291.831,214.433h-3.87l-3.107,8.6h12.711v-2.866A5.734,5.734,0,0,0,291.831,214.433Z" fill="#d6d6d4"/>
    <path id="Trazado_117942" data-name="Trazado 117942" d="M271.765,290.4h2.866v2.867h-2.866Z" fill="#a3a3a1"/>
    <path id="Trazado_117943" data-name="Trazado 117943" d="M235.931,234.5H234.5a7.167,7.167,0,0,0-7.167-7.167H225.9V234.5a10.033,10.033,0,0,0-10.033,10.033v21.5a2.866,2.866,0,0,0,2.866,2.867H221.6l-1.344,1.008a10.975,10.975,0,0,0-1.175,16.539l1.086,1.086h24.366a8.6,8.6,0,0,0,8.6-8.6V251.7A17.2,17.2,0,0,0,235.931,234.5Z" fill="#f35244"/>
    <path id="Trazado_117944" data-name="Trazado 117944" d="M218.7,286.027c.127.14.247.286.381.421l1.086,1.085h24.366a8.6,8.6,0,0,0,8.6-8.6V251.7a17.093,17.093,0,0,0-1.89-7.813C245.5,271.7,228.966,282.158,218.7,286.027Z" fill="#ea4a3b"/>
    <path id="Trazado_117945" data-name="Trazado 117945" d="M219.448,287.533h30.1a5.017,5.017,0,0,1,5.017,5.017h0a5.017,5.017,0,0,1-5.017,5.017h-30.1a5.017,5.017,0,0,1-5.017-5.017h0A5.017,5.017,0,0,1,219.448,287.533Z" fill="#f35244"/>
    <path id="Trazado_117946" data-name="Trazado 117946" d="M249.548,287.533H239.515a5.017,5.017,0,0,1,0,10.034h10.033a5.017,5.017,0,0,0,0-10.034Z" fill="#ea4a3b"/>
    <g id="Grupo_89902" data-name="Grupo 89902">
      <path id="Trazado_117947" data-name="Trazado 117947" d="M227.331,227.333A7.167,7.167,0,0,1,234.5,234.5h1.433a17.2,17.2,0,0,1,17.2,17.2v25.8l5.734-2.867V250.267a22.934,22.934,0,0,0-22.934-22.934Z" fill="#de4132"/>
      <circle id="Elipse_4527" data-name="Elipse 4527" cx="4.3" cy="4.3" r="4.3" transform="translate(283.231 250.267)" fill="#de4132"/>
      <circle id="Elipse_4528" data-name="Elipse 4528" cx="4.3" cy="4.3" r="4.3" transform="translate(283.231 270.333)" fill="#de4132"/>
      <circle id="Elipse_4529" data-name="Elipse 4529" cx="4.3" cy="4.3" r="4.3" transform="translate(283.231 230.2)" fill="#de4132"/>
    </g>
    <path id="Trazado_117948" data-name="Trazado 117948" d="M291.831,213H254.565a7.175,7.175,0,0,0-7.167,7.167V225.9h2.867v-1.433h45.866v60.2h-38.7v2.866h38.7v4.3a4.3,4.3,0,0,1-4.3,4.3h-34.4V299h34.4A7.174,7.174,0,0,0,299,291.833V220.167A7.174,7.174,0,0,0,291.831,213Zm-41.566,8.6v-1.433a4.3,4.3,0,0,1,4.3-4.3h37.266a4.3,4.3,0,0,1,4.3,4.3V221.6Z"/>
    <path id="Trazado_117949" data-name="Trazado 117949" d="M271.765,290.4h2.866v2.867h-2.866Z"/>
    <path id="Trazado_117950" data-name="Trazado 117950" d="M223.772,280.946a3.771,3.771,0,0,1-.741-2.259,3.829,3.829,0,0,1,1.523-3.047l-1.72-2.294a6.712,6.712,0,0,0-2.669,5.341,6.611,6.611,0,0,0,1.305,3.967Z"/>
    <path id="Trazado_117951" data-name="Trazado 117951" d="M251.291,286.341a10.01,10.01,0,0,0,3.274-7.408v-.547l4.941-2.471a1.434,1.434,0,0,0,.792-1.282V250.267A24.4,24.4,0,0,0,235.931,225.9H225.9a1.434,1.434,0,0,0-1.433,1.433v5.823a11.486,11.486,0,0,0-10.034,11.377v21.5a4.31,4.31,0,0,0,3.338,4.192,12.476,12.476,0,0,0-3.338,8.462A12.319,12.319,0,0,0,217.2,286.5a6.45,6.45,0,0,0,2.245,12.5h30.1a6.45,6.45,0,0,0,1.743-12.659Zm6.14-36.074v23.481l-2.866,1.433V251.7a18.654,18.654,0,0,0-18.634-18.633h-.119a8.567,8.567,0,0,0-2.077-4.3h2.2a21.523,21.523,0,0,1,21.5,21.5Zm-36.317,20.787.988-.74a7.176,7.176,0,0,0,6.663-7.147v-3.489l6.471-3.882a1.434,1.434,0,0,0,.7-1.229V247.4h-2.866v6.355l-6.471,3.883a1.432,1.432,0,0,0-.7,1.229v4.3a4.306,4.306,0,0,1-4.3,4.3h-2.867a1.435,1.435,0,0,1-1.433-1.434v-21.5a8.611,8.611,0,0,1,8.6-8.6,1.432,1.432,0,0,0,1.433-1.433v-5.733a5.74,5.74,0,0,1,5.734,5.733,1.433,1.433,0,0,0,1.433,1.433h1.433A15.785,15.785,0,0,1,251.7,251.7v27.233a7.174,7.174,0,0,1-7.167,7.167H220.759l-.666-.666a9.479,9.479,0,0,1-2.795-6.747,9.59,9.59,0,0,1,3.816-7.633Zm28.434,25.079h-30.1a3.583,3.583,0,1,1,0-7.166h30.1a3.583,3.583,0,1,1,0,7.166Z"/>
    <path id="Trazado_117952" data-name="Trazado 117952" d="M221.628,240.71l2.135,1.913a2.872,2.872,0,0,1,2.135-.956V238.8A5.742,5.742,0,0,0,221.628,240.71Z"/>
    <path id="Trazado_117953" data-name="Trazado 117953" d="M220.165,244.533h2.866v10.034h-2.866Z"/>
    <path id="Trazado_117954" data-name="Trazado 117954" d="M287.531,260.3a5.733,5.733,0,1,0-5.733-5.733A5.734,5.734,0,0,0,287.531,260.3Zm0-8.6a2.867,2.867,0,1,1-2.866,2.867A2.866,2.866,0,0,1,287.531,251.7Z"/>
    <path id="Trazado_117955" data-name="Trazado 117955" d="M287.531,280.367a5.734,5.734,0,1,0-5.733-5.734A5.734,5.734,0,0,0,287.531,280.367Zm0-8.6a2.867,2.867,0,1,1-2.866,2.866A2.866,2.866,0,0,1,287.531,271.767Z"/>
    <path id="Trazado_117956" data-name="Trazado 117956" d="M287.531,240.233A5.733,5.733,0,1,0,281.8,234.5,5.734,5.734,0,0,0,287.531,240.233Zm0-8.6a2.867,2.867,0,1,1-2.866,2.867A2.867,2.867,0,0,1,287.531,231.633Z"/>
    <path id="Trazado_117957" data-name="Trazado 117957" d="M263.7,243l10.833-4.334-1.18,2.362,2.563,1.282,2.867-5.734a1.433,1.433,0,0,0-.641-1.923l-5.733-2.866-1.282,2.564L274,235.788l-11.37,4.548Z"/>
    <path id="Trazado_117958" data-name="Trazado 117958" d="M274,273.345l-2.878,1.44,1.282,2.564,5.733-2.867a1.433,1.433,0,0,0,.641-1.923l-2.867-5.733-2.563,1.282,1.18,2.361L263.7,266.136l-1.064,2.662Z"/>
    <path id="Trazado_117959" data-name="Trazado 117959" d="M274.212,259.88l4.3-4.3a1.435,1.435,0,0,0,0-2.027h0l-4.3-4.3-2.027,2.027,1.853,1.853H264.6V256h9.44l-1.853,1.853Z"/>
  </g>
</svg>
