<svg xmlns="http://www.w3.org/2000/svg" width="36.039" height="53.179" viewBox="0 0 36.039 53.179">
  <g id="Grupo_81074" data-name="Grupo 81074" transform="translate(0.25 0.25)">
    <g id="Grupo_81061" data-name="Grupo 81061">
      <path id="Trazado_139774" data-name="Trazado 139774" d="M-229.939,505.83h-17.837a.426.426,0,0,1-.223-.063,17.885,17.885,0,0,1-8.629-15.245,17.79,17.79,0,0,1,17.769-17.77,17.791,17.791,0,0,1,17.77,17.77,17.65,17.65,0,0,1-8.627,15.245A.428.428,0,0,1-229.939,505.83Zm-17.716-.866h17.595a16.788,16.788,0,0,0,8.1-14.442,16.922,16.922,0,0,0-16.9-16.9,16.923,16.923,0,0,0-16.9,16.9A16.792,16.792,0,0,0-247.655,504.964Z" transform="translate(256.629 -472.752)" fill="#97181a" stroke="#97181a" stroke-width="0.5"/>
    </g>
    <g id="Grupo_81062" data-name="Grupo 81062" transform="translate(10.658 32.212)">
      <path id="Trazado_139775" data-name="Trazado 139775" d="M-226.829,537.019h-13.362a.433.433,0,0,1-.433-.433V521.559a.433.433,0,0,1,.433-.433h13.362a.433.433,0,0,1,.433.433v15.027A.433.433,0,0,1-226.829,537.019Zm-12.929-.866h12.5v-14.16h-12.5Z" transform="translate(240.624 -521.126)" fill="#97181a" stroke="#97181a" stroke-width="0.5"/>
    </g>
    <g id="Grupo_81063" data-name="Grupo 81063" transform="translate(4.734 32.212)">
      <path id="Trazado_139776" data-name="Trazado 139776" d="M-223.877,521.992h-25.211a.433.433,0,0,1-.433-.433.433.433,0,0,1,.433-.433h25.211a.433.433,0,0,1,.433.433A.433.433,0,0,1-223.877,521.992Z" transform="translate(249.52 -521.126)" fill="#97181a" stroke="#97181a" stroke-width="0.5"/>
    </g>
    <g id="Grupo_81064" data-name="Grupo 81064" transform="translate(8.073 37.692)">
      <path id="Trazado_139777" data-name="Trazado 139777" d="M-225.544,530.222h-18.529a.433.433,0,0,1-.432-.433.433.433,0,0,1,.432-.433h18.529a.433.433,0,0,1,.433.433A.433.433,0,0,1-225.544,530.222Z" transform="translate(244.505 -529.356)" fill="#97181a" stroke="#97181a" stroke-width="0.5"/>
    </g>
    <g id="Grupo_81065" data-name="Grupo 81065" transform="translate(8.073 41.908)">
      <path id="Trazado_139778" data-name="Trazado 139778" d="M-225.544,536.554h-18.529a.433.433,0,0,1-.432-.433.433.433,0,0,1,.432-.433h18.529a.433.433,0,0,1,.433.433A.433.433,0,0,1-225.544,536.554Z" transform="translate(244.505 -535.688)" fill="#97181a" stroke="#97181a" stroke-width="0.5"/>
    </g>
    <g id="Grupo_81066" data-name="Grupo 81066" transform="translate(13.679 47.238)">
      <path id="Trazado_139779" data-name="Trazado 139779" d="M-232,549.132a4.1,4.1,0,0,1-4.09-4.094,4.041,4.041,0,0,1,.13-1.023.434.434,0,0,1,.419-.324h7.082a.434.434,0,0,1,.419.324,4.031,4.031,0,0,1,.129,1.023A4.1,4.1,0,0,1-232,549.132Zm-3.188-4.574a3.231,3.231,0,0,0-.036.48A3.229,3.229,0,0,0-232,548.266a3.229,3.229,0,0,0,3.224-3.228,3.359,3.359,0,0,0-.034-.48Z" transform="translate(236.086 -543.692)" fill="#97181a" stroke="#97181a" stroke-width="0.5"/>
    </g>
    <g id="Grupo_81067" data-name="Grupo 81067" transform="translate(4.842 3.694)">
      <path id="Trazado_139780" data-name="Trazado 139780" d="M-238.81,503.983a.471.471,0,0,1-.112-.015l-1.761-.47a.433.433,0,0,1-.318-.467l.362-3.224a9.323,9.323,0,0,1-1.245-.721l-2.609,1.931a.433.433,0,0,1-.564-.042l-1.292-1.3a.433.433,0,0,1-.041-.563l1.929-2.609a9.823,9.823,0,0,1-.717-1.243l-3.225.369a.435.435,0,0,1-.467-.318l-.473-1.769a.431.431,0,0,1,.245-.508l2.974-1.294a10.178,10.178,0,0,1,0-1.439l-2.975-1.293a.432.432,0,0,1-.245-.509l.41-1.53a.428.428,0,0,1,.467-.317l3.222.368a10.064,10.064,0,0,1,.717-1.249l-1.927-2.61a.432.432,0,0,1,.043-.563l1.292-1.292a.431.431,0,0,1,.563-.041l2.609,1.93a9.265,9.265,0,0,1,1.245-.72l-.365-3.223a.433.433,0,0,1,.317-.467l1.765-.476a.433.433,0,0,1,.509.246l1.294,2.975a9.622,9.622,0,0,1,1.44,0l1.3-2.976a.437.437,0,0,1,.509-.245l1.763.476a.433.433,0,0,1,.318.467l-.365,3.223a9.748,9.748,0,0,1,1.246.716l2.61-1.926a.434.434,0,0,1,.563.043l1.289,1.292a.432.432,0,0,1,.042.563l-1.929,2.609a9.6,9.6,0,0,1,.72,1.249l3.225-.368a.434.434,0,0,1,.467.318l.469,1.768a.432.432,0,0,1-.246.508l-2.971,1.292a9.941,9.941,0,0,1,0,1.436l2.973,1.3a.432.432,0,0,1,.245.508l-.406,1.53a.433.433,0,0,1-.467.318l-3.224-.369a9.934,9.934,0,0,1-.719,1.249l1.926,2.6a.432.432,0,0,1-.041.562l-1.29,1.3a.434.434,0,0,1-.564.043l-2.608-1.932a10.225,10.225,0,0,1-1.246.721l.364,3.226a.433.433,0,0,1-.319.467l-1.763.47a.434.434,0,0,1-.508-.245l-1.3-2.972a10.059,10.059,0,0,1-1.438,0l-1.3,2.971A.434.434,0,0,1-238.81,503.983Zm3.4-4.123a.432.432,0,0,1,.4.26l1.272,2.916,1.043-.278-.356-3.164a.434.434,0,0,1,.253-.444,9.07,9.07,0,0,0,1.639-.948.434.434,0,0,1,.512,0l2.559,1.9.764-.768-1.89-2.554a.433.433,0,0,1,0-.511,9.072,9.072,0,0,0,.946-1.642.428.428,0,0,1,.445-.255l3.163.362.214-.809-2.919-1.275a.434.434,0,0,1-.258-.443,9.006,9.006,0,0,0,0-1.89.432.432,0,0,1,.258-.44l2.915-1.268-.278-1.047-3.166.362a.427.427,0,0,1-.446-.258,8.686,8.686,0,0,0-.944-1.638.433.433,0,0,1,0-.512l1.893-2.56-.763-.764-2.561,1.89a.436.436,0,0,1-.513,0,8.747,8.747,0,0,0-1.636-.941.431.431,0,0,1-.256-.445l.358-3.164-1.043-.282-1.271,2.92a.443.443,0,0,1-.443.258,8.69,8.69,0,0,0-1.888,0,.427.427,0,0,1-.445-.258l-1.269-2.919-1.045.282.358,3.164a.432.432,0,0,1-.256.445,8.392,8.392,0,0,0-1.631.943.431.431,0,0,1-.515,0l-2.562-1.9-.764.764,1.89,2.56a.432.432,0,0,1,0,.511,9.059,9.059,0,0,0-.944,1.642.429.429,0,0,1-.445.254l-3.162-.362-.218.808,2.918,1.268a.432.432,0,0,1,.258.44,9.3,9.3,0,0,0,0,1.9.433.433,0,0,1-.258.442l-2.918,1.269.28,1.047,3.164-.362a.427.427,0,0,1,.445.254,8.969,8.969,0,0,0,.944,1.635.433.433,0,0,1,0,.512l-1.893,2.561.765.768,2.562-1.9a.431.431,0,0,1,.516,0,8.306,8.306,0,0,0,1.629.945.432.432,0,0,1,.256.444l-.356,3.165,1.042.278,1.271-2.916a.438.438,0,0,1,.444-.257,9.048,9.048,0,0,0,1.89,0A.321.321,0,0,1-235.408,499.859Z" transform="translate(249.358 -478.3)" fill="#97181a" stroke="#97181a" stroke-width="0.5"/>
    </g>
    <g id="Grupo_81068" data-name="Grupo 81068" transform="translate(11.008 9.777)">
      <path id="Trazado_139781" data-name="Trazado 139781" d="M-233.337,500.958A6.769,6.769,0,0,1-240.1,494.2a6.769,6.769,0,0,1,6.761-6.761,6.771,6.771,0,0,1,6.765,6.761A6.771,6.771,0,0,1-233.337,500.958Zm0-12.657a5.9,5.9,0,0,0-5.9,5.894,5.9,5.9,0,0,0,5.9,5.9,5.9,5.9,0,0,0,5.9-5.9A5.9,5.9,0,0,0-233.337,488.3Z" transform="translate(240.098 -487.435)" fill="#97181a" stroke="#97181a" stroke-width="0.5"/>
    </g>
    <g id="Grupo_81069" data-name="Grupo 81069" transform="translate(14.097 9.777)">
      <path id="Trazado_139782" data-name="Trazado 139782" d="M-231.787,500.958c-2.059,0-3.672-2.971-3.672-6.762s1.613-6.761,3.672-6.761,3.674,2.97,3.674,6.761S-229.726,500.958-231.787,500.958Zm0-12.657c-1.522,0-2.806,2.7-2.806,5.894s1.284,5.9,2.806,5.9,2.808-2.7,2.808-5.9S-230.264,488.3-231.787,488.3Z" transform="translate(235.459 -487.435)" fill="#97181a" stroke="#97181a" stroke-width="0.5"/>
    </g>
    <g id="Grupo_81070" data-name="Grupo 81070" transform="translate(11.008 16.105)">
      <path id="Trazado_139783" data-name="Trazado 139783" d="M-227.005,497.8h-12.659a.433.433,0,0,1-.434-.433.433.433,0,0,1,.434-.433h12.659a.433.433,0,0,1,.433.433A.433.433,0,0,1-227.005,497.8Z" transform="translate(240.098 -496.938)" fill="#97181a" stroke="#97181a" stroke-width="0.5"/>
    </g>
    <g id="Grupo_81071" data-name="Grupo 81071" transform="translate(17.336 9.777)">
      <path id="Trazado_139784" data-name="Trazado 139784" d="M-230.162,500.958a.433.433,0,0,1-.434-.433V487.869a.434.434,0,0,1,.434-.433.433.433,0,0,1,.433.433v12.656A.433.433,0,0,1-230.162,500.958Z" transform="translate(230.595 -487.435)" fill="#97181a" stroke="#97181a" stroke-width="0.5"/>
    </g>
    <g id="Grupo_81072" data-name="Grupo 81072" transform="translate(12.206 12.392)">
      <path id="Trazado_139785" data-name="Trazado 139785" d="M-232.72,493.092A16.468,16.468,0,0,1-238,492.2a.434.434,0,0,1-.272-.549.434.434,0,0,1,.549-.272,15.216,15.216,0,0,0,9.983,0,.433.433,0,0,1,.549.27.433.433,0,0,1-.27.549A16.223,16.223,0,0,1-232.72,493.092Z" transform="translate(238.298 -491.361)" fill="#97181a" stroke="#97181a" stroke-width="0.5"/>
    </g>
    <g id="Grupo_81073" data-name="Grupo 81073" transform="translate(12.207 18.82)">
      <path id="Trazado_139786" data-name="Trazado 139786" d="M-237.865,502.741a.434.434,0,0,1-.41-.295A.433.433,0,0,1-238,501.9a16.148,16.148,0,0,1,10.538,0,.432.432,0,0,1,.271.549.431.431,0,0,1-.549.27,15.317,15.317,0,0,0-9.984,0A.421.421,0,0,1-237.865,502.741Z" transform="translate(238.298 -501.014)" fill="#97181a" stroke="#97181a" stroke-width="0.5"/>
    </g>
  </g>
</svg>
