<svg xmlns="http://www.w3.org/2000/svg" xmlns:xlink="http://www.w3.org/1999/xlink" width="131" height="131" viewBox="0 0 131 131">
  <defs>
    <clipPath id="clip-path">
      <circle id="Elipse_154" data-name="Elipse 154" cx="55.5" cy="55.5" r="55.5" transform="translate(0 -0.001)" fill="#17c878" stroke="#707070" stroke-width="1"/>
    </clipPath>
  </defs>
  <g id="Grupo_92840" data-name="Grupo 92840" transform="translate(10 10)">
    <g id="Trazado_148317" data-name="Trazado 148317" transform="translate(0 -0.001)" fill="#fff">
      <path d="M 55.5 116 C 47.33475875854492 116 39.41109848022461 114.3996963500977 31.94914054870605 111.2435607910156 C 28.36318016052246 109.7268218994141 24.90492057800293 107.8498001098633 21.67037963867188 105.6645812988281 C 18.46788024902344 103.5010223388672 15.45654010772705 101.0164566040039 12.7200403213501 98.27996063232422 C 9.983539581298828 95.54345703125 7.498980045318604 92.53211975097656 5.33542013168335 89.32962036132812 C 3.150199890136719 86.09507751464844 1.27318000793457 82.63681793212891 -0.2435600012540817 79.05085754394531 C -3.399699926376343 71.58889770507812 -5 63.66524124145508 -5 55.5 C -5 47.33475875854492 -3.399699926376343 39.41109848022461 -0.2435600012540817 31.94914054870605 C 1.27318000793457 28.36318016052246 3.150199890136719 24.90492057800293 5.33542013168335 21.67037963867188 C 7.498980045318604 18.46788024902344 9.983539581298828 15.45654010772705 12.7200403213501 12.7200403213501 C 15.45654010772705 9.983539581298828 18.46788024902344 7.498980045318604 21.67037963867188 5.33542013168335 C 24.90492057800293 3.150199890136719 28.36318016052246 1.27318000793457 31.94914054870605 -0.2435600012540817 C 39.41109848022461 -3.399699926376343 47.33475875854492 -5 55.5 -5 C 63.66524124145508 -5 71.58889770507812 -3.399699926376343 79.05085754394531 -0.2435600012540817 C 82.63681793212891 1.27318000793457 86.09507751464844 3.150199890136719 89.32962036132812 5.33542013168335 C 92.53211975097656 7.498980045318604 95.54345703125 9.983539581298828 98.27996063232422 12.7200403213501 C 101.0164566040039 15.45654010772705 103.5010223388672 18.46788024902344 105.6645812988281 21.67037963867188 C 107.8498001098633 24.90492057800293 109.7268218994141 28.36318016052246 111.2435607910156 31.94914054870605 C 114.3996963500977 39.41109848022461 116 47.33475875854492 116 55.5 C 116 63.66524124145508 114.3996963500977 71.58889770507812 111.2435607910156 79.05085754394531 C 109.7268218994141 82.63681793212891 107.8498001098633 86.09507751464844 105.6645812988281 89.32962036132812 C 103.5010223388672 92.53211975097656 101.0164566040039 95.54345703125 98.27996063232422 98.27996063232422 C 95.54345703125 101.0164566040039 92.53211975097656 103.5010223388672 89.32962036132812 105.6645812988281 C 86.09507751464844 107.8498001098633 82.63681793212891 109.7268218994141 79.05085754394531 111.2435607910156 C 71.58889770507812 114.3996963500977 63.66524124145508 116 55.5 116 Z" stroke="none"/>
      <path d="M 55.5 0 C 24.84819030761719 0 0 24.84819030761719 0 55.5 C 0 86.15180969238281 24.84819030761719 111 55.5 111 C 86.15180969238281 111 111 86.15180969238281 111 55.5 C 111 24.84819030761719 86.15180969238281 0 55.5 0 M 55.5 -10 C 91.61683654785156 -10 121 19.38316345214844 121 55.5 C 121 91.61683654785156 91.61683654785156 121 55.5 121 C 19.38316345214844 121 -10 91.61683654785156 -10 55.5 C -10 19.38316345214844 19.38316345214844 -10 55.5 -10 Z" stroke="none" fill="#f0d45a"/>
    </g>
    <g id="Grupo_92841" data-name="Grupo 92841" transform="translate(-184 -185)">
      <path id="Trazado_148333" data-name="Trazado 148333" d="M254.667,200H225.333a4,4,0,0,0-4,4v48a4,4,0,0,0,4,4h8v-2.667h-8A1.333,1.333,0,0,1,224,252V204a1.333,1.333,0,0,1,1.333-1.333h29.334A1.333,1.333,0,0,1,256,204v48a1.333,1.333,0,0,1-1.333,1.333h-8V256h8a4,4,0,0,0,4-4V204A4,4,0,0,0,254.667,200Z" fill="#17c878"/>
      <path id="Trazado_148334" data-name="Trazado 148334" d="M204,250.667h14.667V248H204a1.333,1.333,0,0,1-1.333-1.333V209.333A1.333,1.333,0,0,1,204,208h14.667v-2.667H204a4,4,0,0,0-4,4v37.334A4,4,0,0,0,204,250.667Z" fill="#17c878"/>
      <path id="Trazado_148335" data-name="Trazado 148335" d="M232,206.667h2.667v2.666H232Z" fill="#17c878"/>
      <path id="Trazado_148336" data-name="Trazado 148336" d="M237.333,206.667H248v2.666H237.333Z" fill="#17c878"/>
      <path id="Trazado_148337" data-name="Trazado 148337" d="M228,213.333h2.667v5.334H228Z" fill="#17c878"/>
      <path id="Trazado_148338" data-name="Trazado 148338" d="M233.333,213.333H236v5.334h-2.667Z" fill="#17c878"/>
      <path id="Trazado_148339" data-name="Trazado 148339" d="M238.667,213.333h2.666v5.334h-2.666Z" fill="#17c878"/>
      <path id="Trazado_148340" data-name="Trazado 148340" d="M244,213.333h2.667v5.334H244Z" fill="#17c878"/>
      <path id="Trazado_148341" data-name="Trazado 148341" d="M249.333,213.333H252v5.334h-2.667Z" fill="#17c878"/>
      <path id="Trazado_148342" data-name="Trazado 148342" d="M238.667,222.667H248v2.666h-9.333Z" fill="#17c878"/>
      <path id="Trazado_148343" data-name="Trazado 148343" d="M236,246.667h8a4,4,0,0,0,0-8h-8a4,4,0,0,0,0,8Zm0-5.334h8A1.334,1.334,0,0,1,244,244h-8a1.334,1.334,0,0,1,0-2.667Z" fill="#17c878"/>
      <path id="Trazado_148344" data-name="Trazado 148344" d="M214.667,210.667h4v2.666h-4Z" fill="#17c878"/>
      <path id="Trazado_148345" data-name="Trazado 148345" d="M205.333,217.333H208v4h-2.667Z" fill="#17c878"/>
      <path id="Trazado_148346" data-name="Trazado 148346" d="M210.667,217.333h2.666v4h-2.666Z" fill="#17c878"/>
      <path id="Trazado_148347" data-name="Trazado 148347" d="M216,217.333h2.667v4H216Z" fill="#17c878"/>
      <path id="Trazado_148348" data-name="Trazado 148348" d="M209.333,210.667H212v2.666h-2.667Z" fill="#17c878"/>
      <path id="Trazado_148349" data-name="Trazado 148349" d="M210.667,244h8v-2.667h-8a1.333,1.333,0,1,1,0-2.666h8V236h-8a4,4,0,1,0,0,8Z" fill="#17c878"/>
      <path id="Trazado_148350" data-name="Trazado 148350" d="M276,205.333H261.333V208H276a1.333,1.333,0,0,1,1.333,1.333v37.334A1.333,1.333,0,0,1,276,248H261.333v2.667H276a4,4,0,0,0,4-4V209.333A4,4,0,0,0,276,205.333Z" fill="#17c878"/>
      <path id="Trazado_148351" data-name="Trazado 148351" d="M261.333,210.667h9.334v2.666h-9.334Z" fill="#17c878"/>
      <path id="Trazado_148352" data-name="Trazado 148352" d="M272,217.333h2.667v4H272Z" fill="#17c878"/>
      <path id="Trazado_148353" data-name="Trazado 148353" d="M266.667,217.333h2.666v4h-2.666Z" fill="#17c878"/>
      <path id="Trazado_148354" data-name="Trazado 148354" d="M261.333,217.333H264v4h-2.667Z" fill="#17c878"/>
      <path id="Trazado_148355" data-name="Trazado 148355" d="M261.333,236v2.667h8a1.333,1.333,0,1,1,0,2.666h-8V244h8a4,4,0,0,0,0-8Z" fill="#17c878"/>
      <path id="Trazado_148356" data-name="Trazado 148356" d="M260,278.667V264.143a4.112,4.112,0,0,0-3.333-4.09,4.018,4.018,0,0,0-3.252.9,1.015,1.015,0,0,0-.079.068,3.991,3.991,0,0,0-5.333,0,4.152,4.152,0,0,0-4-.793v-6.751a4.112,4.112,0,0,0-3.334-4.089A4,4,0,0,0,236,253.333v16.312l-3.538-2.122a3.662,3.662,0,0,0-3.546-.134l-.212.106a3.688,3.688,0,0,0-.493,6.3l8.348,5.961a1.332,1.332,0,0,0,.774.245h21.334A1.333,1.333,0,0,0,260,278.667Zm-2.667-1.334H237.76l-8-5.713a1.024,1.024,0,0,1,.133-1.746l.213-.1a1.012,1.012,0,0,1,.979.037l5.559,3.333A1.334,1.334,0,0,0,238.667,272V253.333a1.332,1.332,0,0,1,1.566-1.313,1.443,1.443,0,0,1,1.1,1.456V264A1.334,1.334,0,0,0,244,264a1.334,1.334,0,0,1,2.667,0,1.333,1.333,0,1,0,2.666,0A1.334,1.334,0,0,1,252,264a1.334,1.334,0,0,0,2.667,0,1.332,1.332,0,0,1,1.566-1.313,1.443,1.443,0,0,1,1.1,1.456Z" fill="#17c878"/>
      <path id="Trazado_148357" data-name="Trazado 148357" d="M232,222.667h4v2.666h-4Z" fill="#17c878"/>
      <path id="Trazado_148358" data-name="Trazado 148358" d="M232,228h16v2.667H232Z" fill="#17c878"/>
      <path id="Trazado_148359" data-name="Trazado 148359" d="M234.667,233.333h10.666V236H234.667Z" fill="#17c878"/>
      <path id="Trazado_148360" data-name="Trazado 148360" d="M210.667,225.333h8V228h-8Z" fill="#17c878"/>
      <path id="Trazado_148361" data-name="Trazado 148361" d="M213.333,230.667h5.334v2.666h-5.334Z" fill="#17c878"/>
      <path id="Trazado_148362" data-name="Trazado 148362" d="M261.333,225.333H268V228h-6.667Z" fill="#17c878"/>
      <path id="Trazado_148363" data-name="Trazado 148363" d="M261.333,230.667h4v2.666h-4Z" fill="#17c878"/>
    </g>
  </g>
</svg>
