<svg xmlns="http://www.w3.org/2000/svg" width="60.15" height="60.15" viewBox="0 0 60.15 60.15">
  <g id="Grupo_91790" data-name="Grupo 91790" transform="translate(-225.925 -225.925)">
    <path id="Trazado_146738" data-name="Trazado 146738" d="M281.141,230.624h-5.015v-.94a3.76,3.76,0,0,0-7.519,0v.94H252.4v-.94a3.759,3.759,0,0,0-7.519,0v.94h-5.015a4.94,4.94,0,0,0-4.934,4.934v22.88a14.332,14.332,0,1,0,18.4,19.178h27.811a4.939,4.939,0,0,0,4.934-4.934V235.558A4.94,4.94,0,0,0,281.141,230.624Zm-10.184-.94a1.41,1.41,0,0,1,2.819,0v4.23a1.41,1.41,0,0,1-2.819,0Zm-23.731,0a1.41,1.41,0,0,1,2.819,0v4.23a1.41,1.41,0,0,1-2.819,0Zm-7.365,3.29h5.015v.94a3.759,3.759,0,0,0,7.519,0v-.94h16.212v.94a3.76,3.76,0,0,0,7.519,0v-.94h5.015a2.587,2.587,0,0,1,2.584,2.584v7.049H237.277v-7.049a2.587,2.587,0,0,1,2.584-2.584Zm.4,50.751a11.983,11.983,0,1,1,11.983-11.983A12,12,0,0,1,240.258,283.725Zm40.883-8.458h-26.99a14.338,14.338,0,0,0-16.874-17.545V244.957h46.448v27.725A2.588,2.588,0,0,1,281.141,275.267Z" fill="#fb9e36"/>
    <path id="Trazado_146739" data-name="Trazado 146739" d="M242.011,270.559q-.286-.1-.579-.209V266.5a3.617,3.617,0,0,1,.741.381A1.175,1.175,0,0,0,243.585,265a6.046,6.046,0,0,0-2.153-.95v-.768a1.175,1.175,0,1,0-2.349,0v.761c-.11.025-.22.053-.332.086a4.036,4.036,0,0,0-2.769,3.163,3.584,3.584,0,0,0,1.182,3.531,9.132,9.132,0,0,0,1.919,1.108v5.133a3.627,3.627,0,0,1-1.743-.707,1.175,1.175,0,1,0-1.287,1.967,5.808,5.808,0,0,0,3.03,1.1v.775a1.175,1.175,0,1,0,2.349,0v-.914a4.88,4.88,0,0,0,3.5-3.872,4.242,4.242,0,0,0-2.917-4.856Zm-3.4-1.583a1.285,1.285,0,0,1-.324-1.246,1.792,1.792,0,0,1,.792-1.2V269.3A4.6,4.6,0,0,1,238.615,268.976Zm4,6.049a2.533,2.533,0,0,1-1.179,1.737v-3.906A1.9,1.9,0,0,1,242.611,275.025Z" fill="#fb9e36"/>
    <circle id="Elipse_5140" data-name="Elipse 5140" cx="3.759" cy="3.759" r="3.759" transform="translate(269.665 248.481)" fill="#fb9e36"/>
    <circle id="Elipse_5141" data-name="Elipse 5141" cx="3.759" cy="3.759" r="3.759" transform="translate(256.742 248.481)" fill="#fb9e36"/>
    <circle id="Elipse_5142" data-name="Elipse 5142" cx="3.759" cy="3.759" r="3.759" transform="translate(243.819 248.481)" fill="#fb9e36"/>
    <circle id="Elipse_5143" data-name="Elipse 5143" cx="3.759" cy="3.759" r="3.759" transform="translate(269.665 261.404)" fill="#fb9e36"/>
    <circle id="Elipse_5144" data-name="Elipse 5144" cx="3.759" cy="3.759" r="3.759" transform="translate(256.742 261.404)" fill="#fb9e36"/>
  </g>
</svg>
