<svg xmlns="http://www.w3.org/2000/svg" xmlns:xlink="http://www.w3.org/1999/xlink" width="331.462" height="325.03" viewBox="0 0 331.462 325.03">
  <defs>
    <linearGradient id="linear-gradient" x1="-35.209" y1="-35.132" x2="-34.852" y2="-32.715" gradientUnits="objectBoundingBox">
      <stop offset="0" stop-color="#4bf9b7"/>
      <stop offset="0.996" stop-color="#a1d761"/>
    </linearGradient>
    <clipPath id="clip-path">
      <path id="Trazado_149465" data-name="Trazado 149465" d="M1897.013,1921.054c-.016,15.057.587,30.38.652,45.543-7.934,3.3-17.347,6.981-22.391-2.453-7.013-13.116-32.929-10.661-44.436-7.244-14.242,4.229-45.876,10.51-45.833-11.336.035-18.187,7.268-29.379-14.505-33.819s-33.733-16.334-30.729-36.453c3.161-21.171-22.717-40.1-8.867-57.448,24.132-30.231,64.355,15.336,71.722,45.025s21.212,18.274,41.737,17.944c28.021-.45,13.927,30.113,26.978,38.427C1881.572,1925.757,1886.842,1922.257,1897.013,1921.054Z" fill="none"/>
    </clipPath>
    <clipPath id="clip-path-2">
      <path id="Trazado_149474" data-name="Trazado 149474" d="M1833.92,1965.534q20.766-2.528,41.477-5.844c.225.168,4.762-24.737-9.531-37.8-28.264-25.3-9.226-48.011-3.8-61.467,8.692-18.975,4.237-42.037-21.013-37.717-24.6,3.72-28.331-38.2-24.085-70.488,3.623-15.716-14.293-34.786-32.172-39.144-18.253-4.828-36.467,5.055-42.049,36.382-8.451,36.272,23.532,58.146,35.375,76.332,11.653,17.852-15.455,32.3,6.364,48.114,18.353,14.055,41.484,24.158,33.022,41.813C1808.819,1933.171,1810.9,1947.441,1833.92,1965.534Z" fill="none"/>
    </clipPath>
    <linearGradient id="linear-gradient-2" x1="-19.644" y1="-10.591" x2="-20.261" y2="-9.657" gradientUnits="objectBoundingBox">
      <stop offset="0" stop-color="#85ffa3"/>
      <stop offset="1" stop-color="#aafb6f"/>
    </linearGradient>
    <linearGradient id="linear-gradient-3" y1="0.5" x2="1" y2="0.5" gradientUnits="objectBoundingBox">
      <stop offset="0" stop-color="#444b8c"/>
      <stop offset="0.996" stop-color="#26264f"/>
    </linearGradient>
    <linearGradient id="linear-gradient-4" x1="-0.085" y1="0.5" x2="1.065" y2="0.5" gradientUnits="objectBoundingBox">
      <stop offset="0" stop-color="#fcb148"/>
      <stop offset="0.052" stop-color="#fdb946"/>
      <stop offset="0.142" stop-color="#fec144"/>
      <stop offset="0.318" stop-color="#ffc444"/>
      <stop offset="0.485" stop-color="#fdb946"/>
      <stop offset="0.775" stop-color="#f99c4c"/>
      <stop offset="0.866" stop-color="#f8924f"/>
      <stop offset="1" stop-color="#f8924f"/>
    </linearGradient>
    <linearGradient id="linear-gradient-5" x1="0.495" y1="0.179" x2="0.556" y2="4.091" gradientUnits="objectBoundingBox">
      <stop offset="0" stop-color="#ffdb44"/>
      <stop offset="1" stop-color="#feef06"/>
    </linearGradient>
    <linearGradient id="linear-gradient-6" x1="0.492" y1="-0.777" x2="0.511" y2="1.296" xlink:href="#linear-gradient-5"/>
    <linearGradient id="linear-gradient-7" x1="-20.223" y1="20.578" x2="-20.204" y2="23.01" gradientUnits="objectBoundingBox">
      <stop offset="0.004" stop-color="#f36f56"/>
      <stop offset="0.306" stop-color="#f99c4c"/>
      <stop offset="0.545" stop-color="#fdb946"/>
      <stop offset="0.682" stop-color="#ffc444"/>
      <stop offset="0.804" stop-color="#fec144"/>
      <stop offset="0.867" stop-color="#fdb946"/>
      <stop offset="0.916" stop-color="#fbac49"/>
      <stop offset="0.958" stop-color="#f8994d"/>
      <stop offset="0.995" stop-color="#f58152"/>
      <stop offset="1" stop-color="#f57e53"/>
    </linearGradient>
    <linearGradient id="linear-gradient-8" x1="-0.085" y1="0.5" x2="1.065" y2="0.5" xlink:href="#linear-gradient-4"/>
    <linearGradient id="linear-gradient-9" x1="0.495" y1="0.179" x2="0.556" y2="4.091" xlink:href="#linear-gradient-5"/>
    <linearGradient id="linear-gradient-10" x1="0.492" y1="-0.777" x2="0.511" y2="1.295" xlink:href="#linear-gradient-5"/>
    <linearGradient id="linear-gradient-11" x1="-19.941" y1="24.224" x2="-19.922" y2="26.656" xlink:href="#linear-gradient-7"/>
    <linearGradient id="linear-gradient-13" x1="0.495" y1="0.179" x2="0.556" y2="4.091" xlink:href="#linear-gradient-5"/>
    <linearGradient id="linear-gradient-15" x1="-20.185" y1="27.859" x2="-20.166" y2="30.291" xlink:href="#linear-gradient-7"/>
    <linearGradient id="linear-gradient-19" x1="-20.332" y1="31.505" x2="-20.313" y2="33.937" xlink:href="#linear-gradient-7"/>
    <linearGradient id="linear-gradient-23" x1="-20.223" y1="35.439" x2="-20.204" y2="37.87" xlink:href="#linear-gradient-7"/>
    <linearGradient id="linear-gradient-27" x1="-19.941" y1="39.085" x2="-19.922" y2="41.517" xlink:href="#linear-gradient-7"/>
    <linearGradient id="linear-gradient-31" x1="-20.185" y1="42.72" x2="-20.166" y2="45.152" xlink:href="#linear-gradient-7"/>
    <linearGradient id="linear-gradient-35" x1="-20.058" y1="46.366" x2="-20.039" y2="48.798" xlink:href="#linear-gradient-7"/>
    <linearGradient id="linear-gradient-36" x1="-4.719" y1="-4.513" x2="-3.014" y2="-4.513" xlink:href="#linear-gradient-4"/>
    <linearGradient id="linear-gradient-37" x1="-4.572" y1="-5.014" x2="-4.469" y2="-4.393" xlink:href="#linear-gradient-5"/>
    <linearGradient id="linear-gradient-38" x1="-4.565" y1="-5.032" x2="-4.533" y2="-4.842" xlink:href="#linear-gradient-5"/>
    <linearGradient id="linear-gradient-39" x1="-32.961" y1="8.449" x2="-32.929" y2="8.642" xlink:href="#linear-gradient-7"/>
    <linearGradient id="linear-gradient-40" x1="0.468" y1="2.148" x2="0.492" y2="0.807" xlink:href="#linear-gradient-3"/>
    <linearGradient id="linear-gradient-41" x1="0.468" y1="2.148" x2="0.492" y2="0.807" gradientUnits="objectBoundingBox">
      <stop offset="0" stop-color="#aa80f9"/>
      <stop offset="0.996" stop-color="#6165d7"/>
    </linearGradient>
    <linearGradient id="linear-gradient-42" x1="0" y1="0.5" x2="1" y2="0.5" xlink:href="#linear-gradient-41"/>
    <linearGradient id="linear-gradient-44" x1="4.937" y1="-4.188" x2="-3.238" y2="4.445" gradientUnits="objectBoundingBox">
      <stop offset="0" stop-color="#444b8c"/>
      <stop offset="0.996" stop-color="#3e4177"/>
    </linearGradient>
    <linearGradient id="linear-gradient-45" x1="3.971" y1="-3.139" x2="-4.217" y2="5.44" xlink:href="#linear-gradient-44"/>
    <linearGradient id="linear-gradient-46" x1="3.001" y1="-2.104" x2="-5.198" y2="6.425" xlink:href="#linear-gradient-44"/>
    <linearGradient id="linear-gradient-47" x1="2.029" y1="-1.081" x2="-6.183" y2="7.397" xlink:href="#linear-gradient-44"/>
    <linearGradient id="linear-gradient-48" x1="5.34" y1="-4.573" x2="-2.855" y2="4.013" xlink:href="#linear-gradient-44"/>
    <linearGradient id="linear-gradient-49" x1="4.372" y1="-3.527" x2="-3.836" y2="5.005" xlink:href="#linear-gradient-44"/>
    <linearGradient id="linear-gradient-50" x1="3.4" y1="-2.495" x2="-4.819" y2="5.987" xlink:href="#linear-gradient-44"/>
    <linearGradient id="linear-gradient-51" x1="2.427" y1="-1.475" x2="-5.806" y2="6.956" xlink:href="#linear-gradient-44"/>
    <linearGradient id="linear-gradient-52" x1="5.745" y1="-4.954" x2="-2.471" y2="3.586" xlink:href="#linear-gradient-44"/>
    <linearGradient id="linear-gradient-53" x1="4.775" y1="-3.912" x2="-3.453" y2="4.576" xlink:href="#linear-gradient-44"/>
    <linearGradient id="linear-gradient-54" x1="3.802" y1="-2.883" x2="-4.438" y2="5.555" xlink:href="#linear-gradient-44"/>
    <linearGradient id="linear-gradient-55" x1="2.826" y1="-1.866" x2="-5.427" y2="6.521" xlink:href="#linear-gradient-44"/>
    <linearGradient id="linear-gradient-56" x1="6.152" y1="-5.332" x2="-2.084" y2="3.163" xlink:href="#linear-gradient-44"/>
    <linearGradient id="linear-gradient-57" x1="5.18" y1="-4.293" x2="-3.068" y2="4.151" xlink:href="#linear-gradient-44"/>
    <linearGradient id="linear-gradient-58" x1="4.205" y1="-3.268" x2="-4.055" y2="5.128" xlink:href="#linear-gradient-44"/>
    <linearGradient id="linear-gradient-59" x1="6.561" y1="-5.704" x2="-1.696" y2="2.745" xlink:href="#linear-gradient-44"/>
    <linearGradient id="linear-gradient-60" x1="5.588" y1="-4.668" x2="-2.682" y2="3.729" xlink:href="#linear-gradient-44"/>
    <linearGradient id="linear-gradient-61" x1="4.61" y1="-3.646" x2="-3.671" y2="4.703" xlink:href="#linear-gradient-44"/>
    <linearGradient id="linear-gradient-62" x1="3.421" y1="-0.585" x2="-4.85" y2="2.479" xlink:href="#linear-gradient-44"/>
    <linearGradient id="linear-gradient-63" x1="0.524" y1="-0.537" x2="0.388" y2="5.322" xlink:href="#linear-gradient-3"/>
    <linearGradient id="linear-gradient-64" x1="0.524" y1="-0.537" x2="0.388" y2="5.319" xlink:href="#linear-gradient-3"/>
    <linearGradient id="linear-gradient-65" x1="0.524" y1="-0.536" x2="0.387" y2="5.317" xlink:href="#linear-gradient-3"/>
    <linearGradient id="linear-gradient-66" x1="0.524" y1="-0.536" x2="0.386" y2="5.315" xlink:href="#linear-gradient-3"/>
    <linearGradient id="linear-gradient-67" x1="0.524" y1="-0.537" x2="0.388" y2="5.32" xlink:href="#linear-gradient-3"/>
    <linearGradient id="linear-gradient-68" x1="0.524" y1="-0.536" x2="0.387" y2="5.318" xlink:href="#linear-gradient-3"/>
    <linearGradient id="linear-gradient-69" x1="0.524" y1="-0.536" x2="0.386" y2="5.315" xlink:href="#linear-gradient-3"/>
    <linearGradient id="linear-gradient-70" x1="0.525" y1="-0.535" x2="0.385" y2="5.313" xlink:href="#linear-gradient-3"/>
    <linearGradient id="linear-gradient-71" x1="0.524" y1="-0.537" x2="0.387" y2="5.318" xlink:href="#linear-gradient-3"/>
    <linearGradient id="linear-gradient-72" x1="0.524" y1="-0.536" x2="0.386" y2="5.316" xlink:href="#linear-gradient-3"/>
    <linearGradient id="linear-gradient-73" x1="0.525" y1="-0.536" x2="0.385" y2="5.314" xlink:href="#linear-gradient-3"/>
    <linearGradient id="linear-gradient-74" x1="0.525" y1="-0.535" x2="0.384" y2="5.312" xlink:href="#linear-gradient-3"/>
    <linearGradient id="linear-gradient-75" x1="0.524" y1="-0.536" x2="0.386" y2="5.317" xlink:href="#linear-gradient-3"/>
    <linearGradient id="linear-gradient-76" x1="0.525" y1="-0.536" x2="0.385" y2="5.314" xlink:href="#linear-gradient-3"/>
    <linearGradient id="linear-gradient-77" x1="0.525" y1="-0.535" x2="0.384" y2="5.312" xlink:href="#linear-gradient-3"/>
    <linearGradient id="linear-gradient-78" x1="0.525" y1="-0.536" x2="0.385" y2="5.314" xlink:href="#linear-gradient-3"/>
    <linearGradient id="linear-gradient-79" x1="0.525" y1="-0.535" x2="0.384" y2="5.312" xlink:href="#linear-gradient-3"/>
    <linearGradient id="linear-gradient-80" x1="0.525" y1="-0.535" x2="0.383" y2="5.311" xlink:href="#linear-gradient-3"/>
    <linearGradient id="linear-gradient-81" x1="0.565" y1="-0.496" x2="0.195" y2="5.131" xlink:href="#linear-gradient-3"/>
    <linearGradient id="linear-gradient-82" x1="-55.704" y1="-0.046" x2="-54.515" y2="1.189" gradientUnits="objectBoundingBox">
      <stop offset="0" stop-color="#311944"/>
      <stop offset="1" stop-color="#6b3976"/>
    </linearGradient>
    <linearGradient id="linear-gradient-83" x1="6.247" y1="4.345" x2="5.481" y2="-0.689" gradientUnits="objectBoundingBox">
      <stop offset="0.004" stop-color="#e3e08d"/>
      <stop offset="1" stop-color="#f6ca71"/>
    </linearGradient>
    <linearGradient id="linear-gradient-84" x1="-347.71" y1="0.5" x2="-346.71" y2="0.5" xlink:href="#linear-gradient-82"/>
    <linearGradient id="linear-gradient-85" x1="-553.049" y1="1.578" x2="-550.675" y2="-5.324" gradientUnits="objectBoundingBox">
      <stop offset="0" stop-color="#ffe6b0"/>
      <stop offset="0.996" stop-color="#f3c5bd"/>
    </linearGradient>
    <linearGradient id="linear-gradient-86" x1="-568.539" y1="0.5" x2="-567.539" y2="0.5" xlink:href="#linear-gradient-82"/>
    <linearGradient id="linear-gradient-87" x1="-871.593" y1="3.065" x2="-869.093" y2="-0.811" xlink:href="#linear-gradient-85"/>
    <linearGradient id="linear-gradient-88" x1="-166.247" y1="0.092" x2="-165.89" y2="1.42" gradientUnits="objectBoundingBox">
      <stop offset="0" stop-color="#ab316d"/>
      <stop offset="1" stop-color="#792d3d"/>
    </linearGradient>
    <linearGradient id="linear-gradient-89" x1="-63.025" y1="1.066" x2="-62.832" y2="0.491" xlink:href="#linear-gradient-88"/>
    <linearGradient id="linear-gradient-90" x1="-66.163" y1="2.203" x2="-65.961" y2="1.014" xlink:href="#linear-gradient-88"/>
    <linearGradient id="linear-gradient-91" x1="-70.758" y1="0.004" x2="-70.606" y2="2.181" xlink:href="#linear-gradient-88"/>
    <linearGradient id="linear-gradient-92" x1="4.874" y1="4.052" x2="4.146" y2="-0.554" xlink:href="#linear-gradient-83"/>
    <linearGradient id="linear-gradient-93" x1="6.805" y1="25.815" x2="5.785" y2="-10.793" gradientUnits="objectBoundingBox">
      <stop offset="0.004" stop-color="#e38ddd"/>
      <stop offset="1" stop-color="#9571f6"/>
    </linearGradient>
    <linearGradient id="linear-gradient-94" x1="121.416" y1="-32.975" x2="121.468" y2="-34.737" xlink:href="#linear-gradient-85"/>
    <linearGradient id="linear-gradient-95" x1="239.904" y1="-47.663" x2="239.86" y2="-44.492" xlink:href="#linear-gradient-85"/>
    <linearGradient id="linear-gradient-96" x1="-73.515" y1="0.5" x2="-72.515" y2="0.5" gradientUnits="objectBoundingBox">
      <stop offset="0" stop-color="#40447e"/>
      <stop offset="0.996" stop-color="#3c3b6b"/>
    </linearGradient>
    <linearGradient id="linear-gradient-97" x1="-53.327" y1="-0.074" x2="-52.849" y2="0.951" xlink:href="#linear-gradient-96"/>
    <linearGradient id="linear-gradient-98" x1="-67.746" y1="-0.105" x2="-67.142" y2="0.95" xlink:href="#linear-gradient-96"/>
    <linearGradient id="linear-gradient-99" x1="6.969" y1="-0.292" x2="6.743" y2="1.816" xlink:href="#linear-gradient-93"/>
    <linearGradient id="linear-gradient-100" x1="4.836" y1="4.509" x2="3.926" y2="-0.594" xlink:href="#linear-gradient-83"/>
    <linearGradient id="linear-gradient-101" x1="15.624" y1="0.142" x2="14.621" y2="2.239" xlink:href="#linear-gradient-85"/>
  </defs>
  <g id="Grupo_93589" data-name="Grupo 93589" transform="translate(3371 3603)">
    <g id="Grupo_93588" data-name="Grupo 93588" transform="translate(-5081.829 -5295.485)">
      <path id="Trazado_149458" data-name="Trazado 149458" d="M2011.391,1946.409c-67.014,85.718-223.954,87.095-267.4,39.481-17.34-19-21.918-51.634-28.648-99.568a441.375,441.375,0,0,1-3.979-54.437c-.948-43.41-1.42-65.116,5.568-79.884,20.017-42.271,89.552-58.723,134.5-59.487q4.706-.081,9.493.063c52.627,1.568,112.012,23.475,148.638,70.288a157.126,157.126,0,0,1,10.585,15.293C2053.576,1833.132,2047.951,1899.65,2011.391,1946.409Z" fill="#f4f7fa"/>
      <g id="Grupo_93527" data-name="Grupo 93527">
        <g id="Grupo_93515" data-name="Grupo 93515">
          <g id="Grupo_93514" data-name="Grupo 93514">
            <path id="Trazado_149459" data-name="Trazado 149459" d="M1880.193,1966.248c1.981-.936,5.464-4.718,5.966-6.078,3.337-9.053,10.688-25.6,6.983-35.1-.633-1.623-8.524-.766-10.051-1.95-5.164-.675-7-.589-11.59-3.642-13.562-9.014,1.044-38.9-27.116-38.639-20.627.2-34.358,11.765-41.751-17.962s-47.591-75.249-71.73-45.034c-13.854,17.34,12.032,36.278,8.867,57.449-3.008,20.117,8.955,32.008,30.73,36.451s14.528,15.622,14.506,33.822c-.026,21.862,31.54,15.521,45.864,11.351C1842.405,1953.559,1874.041,1952.789,1880.193,1966.248Z" fill="url(#linear-gradient)"/>
            <g id="Grupo_93513" data-name="Grupo 93513">
              <g id="Grupo_93512" data-name="Grupo 93512" clip-path="url(#clip-path)">
                <g id="Grupo_93511" data-name="Grupo 93511" opacity="0.8" style="mix-blend-mode: soft-light;isolation: isolate">
                  <g id="Grupo_93506" data-name="Grupo 93506">
                    <path id="Trazado_149460" data-name="Trazado 149460" d="M1889.666,1943.51a176.186,176.186,0,0,1-52.331-15.926,182.471,182.471,0,0,1-43.869-30.015c-25.828-23.774-45.759-55.265-57.639-91.068l.387-.128c25.073,75.567,82.46,126.682,153.509,136.734Z" fill="#fefdfc"/>
                  </g>
                  <g id="Grupo_93507" data-name="Grupo 93507">
                    <path id="Trazado_149461" data-name="Trazado 149461" d="M1783.937,1954.629l-.24-.329c15.917-11.605,45.649-21.4,66.277-21.838l.009.407C1829.426,1933.3,1799.8,1943.066,1783.937,1954.629Z" fill="#fefdfc"/>
                  </g>
                  <g id="Grupo_93508" data-name="Grupo 93508">
                    <path id="Trazado_149462" data-name="Trazado 149462" d="M1875.752,1941.38c-9.869-4.423-17.116-13.644-21.539-27.407-3.228-10.043-4.906-22.235-4.987-36.235l.407,0c.081,13.959,1.752,26.109,4.968,36.112,4.386,13.648,11.558,22.786,21.317,27.16Z" fill="#fefdfc"/>
                  </g>
                  <g id="Grupo_93509" data-name="Grupo 93509">
                    <path id="Trazado_149463" data-name="Trazado 149463" d="M1789.924,1894.047c-17.832-9.12-38.74-6.339-53.141-2.4l-.107-.393c14.469-3.958,35.486-6.749,53.433,2.43Z" fill="#fefdfc"/>
                  </g>
                  <g id="Grupo_93510" data-name="Grupo 93510">
                    <path id="Trazado_149464" data-name="Trazado 149464" d="M1760.547,1858.459c-8.6-21.193-2.307-44.327,2.206-56.23l.381.144c-4.492,11.848-10.753,34.869-2.21,55.933Z" fill="#fefdfc"/>
                  </g>
                </g>
              </g>
            </g>
          </g>
        </g>
        <g id="Grupo_93526" data-name="Grupo 93526">
          <g id="Grupo_93525" data-name="Grupo 93525">
            <g id="Grupo_93524" data-name="Grupo 93524" clip-path="url(#clip-path-2)">
              <path id="Trazado_149466" data-name="Trazado 149466" d="M1833.92,1965.534q20.766-2.528,41.477-5.844c.225.168,4.762-24.737-9.531-37.8-28.264-25.3-9.226-48.011-3.8-61.467,8.605-18.961,4.079-39.492-19.237-39.8-25.86-.756-30.549-36.182-25.861-68.409,3.623-15.716-14.293-34.786-32.172-39.144-18.253-4.828-36.467,5.055-42.049,36.382-8.451,36.272,23.532,58.146,35.375,76.332,11.653,17.852-15.455,32.3,6.364,48.114,18.353,14.055,41.484,24.158,33.022,41.813C1808.819,1933.171,1810.9,1947.441,1833.92,1965.534Z" fill="url(#linear-gradient-2)"/>
              <g id="Grupo_93523" data-name="Grupo 93523" opacity="0.8" style="mix-blend-mode: soft-light;isolation: isolate">
                <g id="Grupo_93516" data-name="Grupo 93516">
                  <path id="Trazado_149467" data-name="Trazado 149467" d="M1852.458,1967.011c-.17-1.613-14.128-54.563-36-103.461-3.157-8.274-6.579-16.6-9.888-24.651-8.869-21.582-18.041-43.9-22.4-66.139-4.879-24.889-3.139-47.31,5.32-68.544l.485.132c-18.782,47.153-1.363,89.54,17.079,134.415,3.31,8.053,6.732,16.381,9.887,24.649,22.818,51.009,36.034,103.372,36.029,103.593l-.511-.007.256,0Z" fill="#fefdfc"/>
                </g>
                <g id="Grupo_93517" data-name="Grupo 93517">
                  <path id="Trazado_149468" data-name="Trazado 149468" d="M1790.544,1797.066c-15.446-14.205-34.076-34.383-44.085-45.224-4.277-4.633-7.656-8.293-8.056-8.515l.11-.136-.049-.263c.342-.041.668.28,8.4,8.657,10,10.836,28.625,31.005,44.059,45.2Z" fill="#fefdfc"/>
                </g>
                <g id="Grupo_93518" data-name="Grupo 93518">
                  <path id="Trazado_149469" data-name="Trazado 149469" d="M1785.7,1778.179l-.366-.635a63.641,63.641,0,0,1,16.627-32.282c6.7-6.887,13.076-10.19,14.782-10.8.365-.13.524-.149.657-.077l-.285.352a.218.218,0,0,0,.116.03c-.638.056-6.937,2.961-13.856,9.744A65,65,0,0,0,1785.7,1778.179Z" fill="#fefdfc"/>
                </g>
                <g id="Grupo_93519" data-name="Grupo 93519">
                  <path id="Trazado_149470" data-name="Trazado 149470" d="M1830,1896.75c-2.19-15.222,2.09-31.586,12.719-48.636a142.805,142.805,0,0,1,20.981-25.853c.439-.433.786-.775.833-.843l.443.212c-.067.1-.305.332-.884.9-11.652,11.5-38.248,41.741-33.584,74.167Z" fill="#fefdfc"/>
                </g>
                <g id="Grupo_93520" data-name="Grupo 93520">
                  <path id="Trazado_149471" data-name="Trazado 149471" d="M1823.756,1880.81c-16.388-21.915-50.749-23.46-51.335-23.46h-.005l-.022-.209-.082.2-.176-.208.191-.2c.3-.067,35.269,1.461,51.864,23.652Z" fill="#fefdfc"/>
                </g>
                <g id="Grupo_93521" data-name="Grupo 93521">
                  <path id="Trazado_149472" data-name="Trazado 149472" d="M1850.148,1958.465c-.3-6.662,2.567-18,17.884-34.2.36-.38.671-.708.713-.774l.188.083.3-.035c.021.121.021.121-.8.987-15.222,16.094-18.069,27.33-17.776,33.921Z" fill="#fefdfc"/>
                </g>
                <g id="Grupo_93522" data-name="Grupo 93522">
                  <path id="Trazado_149473" data-name="Trazado 149473" d="M1846.632,1946.049c-4.027-11.5-23.59-19.973-34.893-24-.386-.137-.633-.226-.721-.263l.233-.377c.085.036.322.12.69.251,11.386,4.058,31.1,12.607,35.182,24.272Z" fill="#fefdfc"/>
                </g>
              </g>
            </g>
          </g>
        </g>
      </g>
      <g id="Grupo_93545" data-name="Grupo 93545">
        <path id="Trazado_149475" data-name="Trazado 149475" d="M1982.143,1995.234a5.9,5.9,0,0,1-5.35,5.982l-187.988,9.765a5.848,5.848,0,0,1-6.256-5.858v-278.9a5.787,5.787,0,0,1,6.256-5.8l2.519-.134,185.469,11.6a5.961,5.961,0,0,1,5.35,6.031Z" fill="#97a6b7"/>
        <path id="Trazado_149476" data-name="Trazado 149476" d="M1985.847,1995.1a5.893,5.893,0,0,1-5.35,5.981l-187.988,9.765a5.847,5.847,0,0,1-6.256-5.857v-278.9a5.785,5.785,0,0,1,6.256-5.8l187.988,11.469a5.96,5.96,0,0,1,5.35,6.03Z" fill="#d8dee8"/>
        <path id="Trazado_149477" data-name="Trazado 149477" d="M1841.279,1746.511c-4.673,6.008-5.34,17.355,2.67,22.028,17.355,10.68,40.05,7.342,56.737-4,12.282-8.6,7.052-24.537,3.537-37.428l-36.972-2.256C1864.07,1733.742,1847.138,1738.7,1841.279,1746.511Z" fill="#d8dee8" style="mix-blend-mode: multiply;isolation: isolate"/>
        <path id="Trazado_149478" data-name="Trazado 149478" d="M1977.005,1983.942a5.194,5.194,0,0,1-4.753,5.272l-170.215,7.967a5.159,5.159,0,0,1-5.476-5.176V1753.268a5.136,5.136,0,0,1,5.476-5.155l170.215,8.575a5.218,5.218,0,0,1,4.753,5.29Z" fill="#fff"/>
        <path id="Trazado_149479" data-name="Trazado 149479" d="M1930.339,1749.1a3.025,3.025,0,0,0-2.844-2.576l-8.958-.481a7.225,7.225,0,0,1-6.784-7.836l.445-9.828a3.13,3.13,0,0,0-2.916-3.383l-2.892-.179a3.688,3.688,0,0,1-3.358-4.4,6.57,6.57,0,0,0-5.969-7.82,8.088,8.088,0,0,0-8.239,6.912,4.713,4.713,0,0,1-1.631,2.88,4.354,4.354,0,0,1-3.047,1.045l-2.952-.183a3.978,3.978,0,0,0-3.971,3l-2.564,9.849a9.428,9.428,0,0,1-9.341,7.084l-9.425-.506a4.084,4.084,0,0,0-3.785,2.3l-6.765,13.573.582.743,86.764,3.375Zm-34.555-28.051a1.926,1.926,0,0,1-1.757-2.293,2.371,2.371,0,0,1,2.411-2.026,1.928,1.928,0,0,1,1.754,2.294A2.372,2.372,0,0,1,1895.784,1721.045Z" fill="url(#linear-gradient-3)"/>
        <path id="Trazado_149480" data-name="Trazado 149480" d="M1930.921,1749.838a3.026,3.026,0,0,0-2.845-2.575l-8.957-.482a7.225,7.225,0,0,1-6.785-7.836l.445-9.828a3.129,3.129,0,0,0-2.916-3.382l-2.892-.18a3.687,3.687,0,0,1-3.358-4.4,6.57,6.57,0,0,0-5.968-7.82,8.09,8.09,0,0,0-8.24,6.912,4.712,4.712,0,0,1-1.63,2.88,4.354,4.354,0,0,1-3.048,1.045l-2.952-.183a3.979,3.979,0,0,0-3.971,3l-2.564,9.849a9.427,9.427,0,0,1-9.341,7.084l-9.425-.507a4.088,4.088,0,0,0-3.785,2.3l-6.764,13.573,87.346,4.118Zm-34.555-28.05a1.927,1.927,0,0,1-1.758-2.293,2.371,2.371,0,0,1,2.411-2.026,1.927,1.927,0,0,1,1.754,2.294A2.371,2.371,0,0,1,1896.366,1721.788Z" fill="#97a6b7"/>
        <path id="Trazado_149481" data-name="Trazado 149481" d="M1928.076,1747.263l-8.957-.482a7.008,7.008,0,0,1-5.991-3.944c-8.3,1.737-17.046-.078-25.792,1.672-6.007,1.335-5.34,10.68-12.015,11.347-9.574,1.294-19.048,1.384-28.421,1.476l-.975,1.956,87.346,4.118-2.35-13.568A3.026,3.026,0,0,0,1928.076,1747.263Z" fill="#97a6b7" opacity="0.3" style="mix-blend-mode: multiply;isolation: isolate"/>
        <g id="Grupo_93544" data-name="Grupo 93544">
          <path id="Trazado_149482" data-name="Trazado 149482" d="M1964.514,1795.144l-152.284-3.7V1771.5l152.284,4.746Z" fill="#d8dee8"/>
          <g id="Grupo_93535" data-name="Grupo 93535">
            <g id="Grupo_93533" data-name="Grupo 93533">
              <g id="Grupo_93528" data-name="Grupo 93528">
                <path id="Trazado_149483" data-name="Trazado 149483" d="M1964.514,1857.639l-152.284-.229v-50.9l152.284,2.905Zm-149.434-3.071,146.584.365v-42.864l-146.584-2.65Z" fill="#d8dee8"/>
              </g>
              <g id="Grupo_93529" data-name="Grupo 93529">
                <path id="Trazado_149484" data-name="Trazado 149484" d="M1847.655,1855.781H1844.4V1808.34l3.257.053Z" fill="#d8dee8"/>
              </g>
              <g id="Grupo_93532" data-name="Grupo 93532">
                <g id="Grupo_93530" data-name="Grupo 93530">
                  <path id="Trazado_149485" data-name="Trazado 149485" d="M1962.886,1827.53l-116.86-1.462v-2.817l116.86,1.577Z" fill="#d8dee8"/>
                </g>
                <g id="Grupo_93531" data-name="Grupo 93531">
                  <path id="Trazado_149486" data-name="Trazado 149486" d="M1962.886,1842.2l-116.86-.837v-2.817l116.86.952Z" fill="#d8dee8"/>
                </g>
              </g>
            </g>
            <g id="Grupo_93534" data-name="Grupo 93534">
              <path id="Trazado_149487" data-name="Trazado 149487" d="M1933.162,1857.2l-3.257,0V1809.93l3.257.052Z" fill="#d8dee8"/>
            </g>
          </g>
          <g id="Grupo_93543" data-name="Grupo 93543">
            <g id="Grupo_93541" data-name="Grupo 93541">
              <g id="Grupo_93536" data-name="Grupo 93536">
                <path id="Trazado_149488" data-name="Trazado 149488" d="M1964.514,1948.3l-152.284,4.8v-50.9l152.284-2.125Zm-149.434,1.86,146.584-4.474v-42.864l-146.584,2.189Z" fill="#d8dee8"/>
              </g>
              <g id="Grupo_93537" data-name="Grupo 93537">
                <path id="Trazado_149489" data-name="Trazado 149489" d="M1847.655,1950.366l-3.257.105V1902.96l3.257-.052Z" fill="#d8dee8"/>
              </g>
              <g id="Grupo_93540" data-name="Grupo 93540">
                <g id="Grupo_93538" data-name="Grupo 93538">
                  <path id="Trazado_149490" data-name="Trazado 149490" d="M1962.886,1918.238l-116.86,2.4v-2.817l116.86-2.285Z" fill="#d8dee8"/>
                </g>
                <g id="Grupo_93539" data-name="Grupo 93539">
                  <path id="Trazado_149491" data-name="Trazado 149491" d="M1962.886,1932.906l-116.86,3.025v-2.817l116.86-2.91Z" fill="#d8dee8"/>
                </g>
              </g>
            </g>
            <g id="Grupo_93542" data-name="Grupo 93542">
              <path id="Trazado_149492" data-name="Trazado 149492" d="M1933.162,1948.9l-3.257.089v-47.264l3.257-.041Z" fill="#d8dee8"/>
            </g>
          </g>
          <path id="Trazado_149493" data-name="Trazado 149493" d="M1964.514,1873.841l-152.284.67V1868l152.284-.327Z" fill="#d8dee8"/>
          <path id="Trazado_149494" data-name="Trazado 149494" d="M1964.514,1888.5l-152.284,1.483v-6.515l152.284-1.141Z" fill="#d8dee8"/>
          <path id="Trazado_149495" data-name="Trazado 149495" d="M1964.514,1964.5l-152.284,5.7v-6.515l152.284-5.358Z" fill="#d8dee8"/>
        </g>
      </g>
      <g id="Grupo_93564" data-name="Grupo 93564">
        <g id="Grupo_93547" data-name="Grupo 93547">
          <path id="Trazado_149496" data-name="Trazado 149496" d="M1753.86,2000.88v10.495c0,3.391,21.184,6.14,47.316,6.14s47.317-2.749,47.317-6.14V2000.88Z" fill="url(#linear-gradient-4)"/>
          <path id="Trazado_149497" data-name="Trazado 149497" d="M1848.493,2000.88c0,3.391-21.185,6.14-47.317,6.14s-47.316-2.749-47.316-6.14,21.184-6.141,47.316-6.141S1848.493,1997.488,1848.493,2000.88Z" fill="url(#linear-gradient-5)"/>
          <path id="Trazado_149498" data-name="Trazado 149498" d="M1801.176,2007.443c-23.143,0-47.343-2.21-47.343-6.474,0-.234.083-.645.317-.645s.134.322.134.556c0,2.7,19.258,5.716,46.892,5.716s46.893-3.012,46.893-5.716c0-.234.04-.454.274-.454s.177.313.177.547C1848.52,2005.236,1824.319,2007.443,1801.176,2007.443Z" fill="url(#linear-gradient-6)"/>
          <g id="Grupo_93546" data-name="Grupo 93546">
            <path id="Trazado_149499" data-name="Trazado 149499" d="M1796.7,2001.222c.464-.322.958-.638,1.487-.951a9.364,9.364,0,0,1,2.033-.848,19.547,19.547,0,0,1,3.119-.617,39.546,39.546,0,0,1,4.672-.252q2.743-.013,5.15.175a35.1,35.1,0,0,1,4.235.56,13.1,13.1,0,0,1,2.973.923,2.351,2.351,0,0,1,1.359,1.259l5.328.054a5.265,5.265,0,0,1,1.021.095c.3.06.442.137.442.23l0,.439-6.849-.066a3.454,3.454,0,0,1-1.836,1.474,18.635,18.635,0,0,1-3.756,1.159l-2.494-.347a2.979,2.979,0,0,1-.551-.13c-.144-.053-.214-.11-.214-.172,0-.084.192-.18.578-.288s.822-.243,1.307-.4a12.975,12.975,0,0,0,1.429-.565,1.935,1.935,0,0,0,.938-.779l-16.167-.16a14.941,14.941,0,0,1-1.427.921,9.3,9.3,0,0,1-2.1.815,22.038,22.038,0,0,1-3.253.588,46.187,46.187,0,0,1-4.906.24c-1.481.007-2.924-.049-4.337-.168a29.771,29.771,0,0,1-3.764-.537,11.748,11.748,0,0,1-2.7-.884q-1.052-.528-1.176-1.211l-4.386-.045a5.752,5.752,0,0,1-1.036-.091c-.3-.059-.456-.136-.457-.234l0-.438,6,.057a3.211,3.211,0,0,1,1.639-1.208,18.769,18.769,0,0,1,3.043-.916l2.009.276c.61.086.913.186.913.3,0,.062-.123.139-.375.231s-.554.2-.9.33a8.443,8.443,0,0,0-1,.451,2.117,2.117,0,0,0-.731.585Zm-14.795.6a1.591,1.591,0,0,0,.8.743,6.357,6.357,0,0,0,1.524.515,15.485,15.485,0,0,0,2.053.3q1.144.094,2.394.089a24.962,24.962,0,0,0,2.542-.126,14.686,14.686,0,0,0,1.9-.322,8.976,8.976,0,0,0,1.43-.472,7.91,7.91,0,0,0,1.092-.584Zm35.194-.393a1.646,1.646,0,0,0-.871-.766,7.852,7.852,0,0,0-1.752-.553,19.169,19.169,0,0,0-2.485-.333q-1.411-.109-3.122-.1a23.836,23.836,0,0,0-2.616.135,13.511,13.511,0,0,0-1.9.345,6.982,6.982,0,0,0-1.366.505,9.892,9.892,0,0,0-1.047.617Z" fill="#fcb048"/>
          </g>
          <path id="Trazado_149500" data-name="Trazado 149500" d="M1801.183,1995.4c-21.1,0-43.065,1.856-46.579,5.45a4.073,4.073,0,0,1,.384.405c2.962-2.5,21.1-5.008,46.195-5.008,25.738,0,44.167,2.643,46.4,5.2a4.468,4.468,0,0,1,.354-.4C1845.034,1997.329,1822.655,1995.4,1801.183,1995.4Z" fill="url(#linear-gradient-7)"/>
        </g>
        <g id="Grupo_93549" data-name="Grupo 93549">
          <path id="Trazado_149501" data-name="Trazado 149501" d="M1740.707,1989.856v10.495c0,3.391,21.184,6.14,47.316,6.14s47.316-2.749,47.316-6.14v-10.495Z" fill="url(#linear-gradient-8)"/>
          <path id="Trazado_149502" data-name="Trazado 149502" d="M1835.339,1989.856c0,3.391-21.184,6.14-47.316,6.14s-47.316-2.749-47.316-6.14,21.184-6.14,47.316-6.14S1835.339,1986.465,1835.339,1989.856Z" fill="url(#linear-gradient-9)"/>
          <path id="Trazado_149503" data-name="Trazado 149503" d="M1788.023,1996.42c-23.144,0-47.344-2.211-47.344-6.474,0-.235.083-.646.318-.646s.133.322.133.556c0,2.7,19.258,5.717,46.893,5.717s46.892-3.013,46.892-5.717c0-.234.04-.454.274-.454s.178.313.178.547C1835.367,1994.213,1811.166,1996.42,1788.023,1996.42Z" fill="url(#linear-gradient-10)"/>
          <g id="Grupo_93548" data-name="Grupo 93548">
            <path id="Trazado_149504" data-name="Trazado 149504" d="M1783.552,1990.2c.464-.321.958-.638,1.487-.951a9.306,9.306,0,0,1,2.032-.847,19.35,19.35,0,0,1,3.119-.617,39.578,39.578,0,0,1,4.672-.252q2.743-.014,5.15.174a35.028,35.028,0,0,1,4.235.561,13.044,13.044,0,0,1,2.973.922,2.352,2.352,0,0,1,1.359,1.26l5.328.054a5.2,5.2,0,0,1,1.021.094c.3.061.442.137.443.23l0,.439-6.849-.066a3.461,3.461,0,0,1-1.837,1.475,18.588,18.588,0,0,1-3.755,1.158l-2.495-.347a2.894,2.894,0,0,1-.551-.13c-.144-.052-.213-.109-.214-.172q0-.126.579-.288c.386-.108.821-.243,1.306-.4a13.286,13.286,0,0,0,1.43-.566,1.94,1.94,0,0,0,.937-.778l-16.166-.161a15.3,15.3,0,0,1-1.428.922,9.324,9.324,0,0,1-2.1.814,22.015,22.015,0,0,1-3.253.588,46.148,46.148,0,0,1-4.905.24c-1.482.007-2.924-.049-4.337-.168a29.76,29.76,0,0,1-3.764-.537,11.711,11.711,0,0,1-2.7-.884c-.7-.351-1.094-.754-1.175-1.211l-4.386-.045a5.666,5.666,0,0,1-1.037-.091c-.3-.058-.456-.136-.457-.233l0-.439,6,.057a3.225,3.225,0,0,1,1.64-1.208,18.742,18.742,0,0,1,3.043-.915l2.008.275c.61.086.913.186.914.3,0,.063-.124.14-.376.232s-.554.2-.9.33a8.228,8.228,0,0,0-1,.45,2.134,2.134,0,0,0-.731.585Zm-14.8.6a1.6,1.6,0,0,0,.8.744,6.327,6.327,0,0,0,1.524.514,15.5,15.5,0,0,0,2.053.3q1.146.094,2.394.088a25.245,25.245,0,0,0,2.542-.125,14.98,14.98,0,0,0,1.9-.322,8.8,8.8,0,0,0,1.43-.473,7.93,7.93,0,0,0,1.093-.583Zm35.2-.392a1.655,1.655,0,0,0-.872-.767,7.84,7.84,0,0,0-1.752-.553,19.52,19.52,0,0,0-2.484-.333q-1.413-.109-3.123-.1a23.783,23.783,0,0,0-2.616.136,13.356,13.356,0,0,0-1.9.345,6.829,6.829,0,0,0-1.365.505,9.638,9.638,0,0,0-1.048.617Z" fill="#fcb048"/>
          </g>
          <path id="Trazado_149505" data-name="Trazado 149505" d="M1788.029,1984.38c-21.1,0-43.065,1.857-46.578,5.451a4.313,4.313,0,0,1,.384.4c2.962-2.495,21.1-5.007,46.194-5.007,25.738,0,44.168,2.643,46.4,5.2a4.468,4.468,0,0,1,.354-.4C1831.881,1986.305,1809.5,1984.38,1788.029,1984.38Z" fill="url(#linear-gradient-11)"/>
        </g>
        <g id="Grupo_93551" data-name="Grupo 93551">
          <path id="Trazado_149506" data-name="Trazado 149506" d="M1752.056,1978.865v10.494c0,3.392,21.185,6.141,47.317,6.141s47.316-2.749,47.316-6.141v-10.494Z" fill="url(#linear-gradient-4)"/>
          <path id="Trazado_149507" data-name="Trazado 149507" d="M1846.689,1978.865c0,3.391-21.184,6.14-47.316,6.14s-47.317-2.749-47.317-6.14,21.185-6.141,47.317-6.141S1846.689,1975.473,1846.689,1978.865Z" fill="url(#linear-gradient-13)"/>
          <path id="Trazado_149508" data-name="Trazado 149508" d="M1799.372,1985.428c-23.143,0-47.343-2.21-47.343-6.474,0-.234.083-.645.317-.645s.134.321.134.556c0,2.7,19.258,5.716,46.892,5.716s46.893-3.012,46.893-5.716c0-.235.04-.454.274-.454s.178.313.178.547C1846.717,1983.221,1822.516,1985.428,1799.372,1985.428Z" fill="url(#linear-gradient-6)"/>
          <g id="Grupo_93550" data-name="Grupo 93550">
            <path id="Trazado_149509" data-name="Trazado 149509" d="M1794.9,1979.207c.465-.322.959-.638,1.487-.951a9.389,9.389,0,0,1,2.033-.848,19.558,19.558,0,0,1,3.119-.617,39.545,39.545,0,0,1,4.672-.252q2.743-.013,5.15.175a35.076,35.076,0,0,1,4.235.56,13.135,13.135,0,0,1,2.973.922,2.355,2.355,0,0,1,1.359,1.26l5.328.054a5.248,5.248,0,0,1,1.021.095c.3.06.442.137.442.23l0,.439-6.85-.066a3.454,3.454,0,0,1-1.836,1.474,18.63,18.63,0,0,1-3.756,1.159l-2.494-.347a2.9,2.9,0,0,1-.551-.13c-.144-.053-.214-.11-.214-.172q0-.126.579-.288t1.306-.4a12.962,12.962,0,0,0,1.429-.565,1.935,1.935,0,0,0,.938-.779l-16.166-.16a15.092,15.092,0,0,1-1.428.921,9.284,9.284,0,0,1-2.1.815,22.015,22.015,0,0,1-3.253.588,45.955,45.955,0,0,1-4.9.239c-1.482.008-2.925-.048-4.338-.168a29.631,29.631,0,0,1-3.764-.536,11.764,11.764,0,0,1-2.7-.884c-.7-.352-1.094-.755-1.175-1.211l-4.386-.045a5.755,5.755,0,0,1-1.037-.091c-.3-.059-.456-.136-.457-.234l0-.438,6,.057a3.211,3.211,0,0,1,1.639-1.208,18.682,18.682,0,0,1,3.044-.916l2.008.276c.61.086.913.186.913.3,0,.062-.123.139-.375.231s-.554.2-.9.33a8.278,8.278,0,0,0-1,.451,2.125,2.125,0,0,0-.731.585Zm-14.8.6a1.592,1.592,0,0,0,.8.743,6.375,6.375,0,0,0,1.524.515,15.483,15.483,0,0,0,2.053.3q1.145.094,2.394.089a24.948,24.948,0,0,0,2.542-.126,14.66,14.66,0,0,0,1.9-.322,8.8,8.8,0,0,0,1.43-.472,7.967,7.967,0,0,0,1.092-.584Zm35.194-.393a1.646,1.646,0,0,0-.871-.766,7.832,7.832,0,0,0-1.752-.553,19.152,19.152,0,0,0-2.484-.333q-1.413-.109-3.123-.1a24.058,24.058,0,0,0-2.616.136,13.514,13.514,0,0,0-1.9.345,6.986,6.986,0,0,0-1.366.505,9.892,9.892,0,0,0-1.047.617Z" fill="#fcb048"/>
          </g>
          <path id="Trazado_149510" data-name="Trazado 149510" d="M1799.379,1973.389c-21.1,0-43.065,1.856-46.578,5.45a4.312,4.312,0,0,1,.384.405c2.961-2.5,21.1-5.008,46.194-5.008,25.738,0,44.168,2.643,46.4,5.2a4.319,4.319,0,0,1,.354-.4C1843.231,1975.314,1820.851,1973.389,1799.379,1973.389Z" fill="url(#linear-gradient-15)"/>
        </g>
        <g id="Grupo_93553" data-name="Grupo 93553">
          <path id="Trazado_149511" data-name="Trazado 149511" d="M1758.944,1967.841v10.5c0,3.391,21.184,6.14,47.316,6.14s47.316-2.749,47.316-6.14v-10.5Z" fill="url(#linear-gradient-8)"/>
          <ellipse id="Elipse_5257" data-name="Elipse 5257" cx="47.316" cy="6.14" rx="47.316" ry="6.14" transform="translate(1758.944 1961.701)" fill="url(#linear-gradient-5)"/>
          <path id="Trazado_149512" data-name="Trazado 149512" d="M1806.26,1974.405c-23.143,0-47.344-2.211-47.344-6.474,0-.235.084-.646.318-.646s.133.322.133.556c0,2.7,19.258,5.716,46.893,5.716s46.892-3.012,46.892-5.716c0-.234.04-.454.274-.454s.178.313.178.547C1853.6,1972.2,1829.4,1974.405,1806.26,1974.405Z" fill="url(#linear-gradient-10)"/>
          <g id="Grupo_93552" data-name="Grupo 93552">
            <path id="Trazado_149513" data-name="Trazado 149513" d="M1801.789,1968.183c.464-.321.958-.638,1.487-.951a9.353,9.353,0,0,1,2.032-.847,19.352,19.352,0,0,1,3.119-.617,39.594,39.594,0,0,1,4.673-.252q2.742-.014,5.149.174a35.031,35.031,0,0,1,4.235.561,13.046,13.046,0,0,1,2.973.922,2.351,2.351,0,0,1,1.36,1.26l5.327.053a5.276,5.276,0,0,1,1.022.1c.3.061.441.137.442.23l0,.439-6.849-.066a3.458,3.458,0,0,1-1.837,1.475,18.6,18.6,0,0,1-3.755,1.158l-2.495-.347a2.911,2.911,0,0,1-.551-.13c-.143-.052-.213-.109-.213-.172q0-.126.578-.288t1.306-.4a13.266,13.266,0,0,0,1.43-.566,1.939,1.939,0,0,0,.938-.778l-16.167-.161a15.314,15.314,0,0,1-1.428.922,9.309,9.309,0,0,1-2.1.814,21.989,21.989,0,0,1-3.253.588,46.15,46.15,0,0,1-4.905.24c-1.482.007-2.924-.049-4.337-.168a29.761,29.761,0,0,1-3.764-.537,11.709,11.709,0,0,1-2.7-.884c-.7-.351-1.093-.754-1.175-1.211l-4.386-.045a5.648,5.648,0,0,1-1.036-.091c-.3-.058-.457-.136-.457-.234l0-.438,6,.057a3.23,3.23,0,0,1,1.64-1.208,18.79,18.79,0,0,1,3.043-.915l2.008.275c.61.086.913.186.914.3,0,.063-.124.14-.376.232s-.554.2-.9.33a8.288,8.288,0,0,0-1,.45,2.119,2.119,0,0,0-.73.585Zm-14.795.6a1.591,1.591,0,0,0,.8.744,6.341,6.341,0,0,0,1.524.514,15.5,15.5,0,0,0,2.053.3q1.146.094,2.394.088a25.243,25.243,0,0,0,2.542-.125,15.024,15.024,0,0,0,1.9-.322,8.83,8.83,0,0,0,1.429-.473,7.887,7.887,0,0,0,1.093-.583Zm35.194-.392a1.652,1.652,0,0,0-.871-.767,7.856,7.856,0,0,0-1.752-.553,19.561,19.561,0,0,0-2.485-.333q-1.413-.109-3.123-.1a24.1,24.1,0,0,0-2.616.135,13.517,13.517,0,0,0-1.9.346,6.88,6.88,0,0,0-1.365.505,9.65,9.65,0,0,0-1.048.617Z" fill="#fcb048"/>
          </g>
          <path id="Trazado_149514" data-name="Trazado 149514" d="M1806.266,1962.365c-21.1,0-43.064,1.857-46.578,5.451a4.2,4.2,0,0,1,.384.4c2.962-2.495,21.1-5.008,46.194-5.008,25.739,0,44.168,2.644,46.4,5.2a4.449,4.449,0,0,1,.354-.4C1850.118,1964.29,1827.739,1962.365,1806.266,1962.365Z" fill="url(#linear-gradient-19)"/>
        </g>
        <g id="Grupo_93555" data-name="Grupo 93555">
          <path id="Trazado_149515" data-name="Trazado 149515" d="M1753.86,1955.948v10.495c0,3.391,21.184,6.14,47.316,6.14s47.317-2.749,47.317-6.14v-10.495Z" fill="url(#linear-gradient-4)"/>
          <path id="Trazado_149516" data-name="Trazado 149516" d="M1848.493,1955.948c0,3.391-21.185,6.14-47.317,6.14s-47.316-2.749-47.316-6.14,21.184-6.141,47.316-6.141S1848.493,1952.556,1848.493,1955.948Z" fill="url(#linear-gradient-5)"/>
          <path id="Trazado_149517" data-name="Trazado 149517" d="M1801.176,1962.511c-23.143,0-47.343-2.21-47.343-6.474,0-.234.083-.645.317-.645s.134.322.134.556c0,2.7,19.258,5.716,46.892,5.716s46.893-3.012,46.893-5.716c0-.234.04-.454.274-.454s.177.313.177.547C1848.52,1960.3,1824.319,1962.511,1801.176,1962.511Z" fill="url(#linear-gradient-6)"/>
          <g id="Grupo_93554" data-name="Grupo 93554">
            <path id="Trazado_149518" data-name="Trazado 149518" d="M1796.7,1956.29c.464-.322.958-.638,1.487-.951a9.364,9.364,0,0,1,2.033-.848,19.463,19.463,0,0,1,3.119-.616,39.311,39.311,0,0,1,4.672-.253q2.743-.013,5.15.175a34.878,34.878,0,0,1,4.235.56,13.1,13.1,0,0,1,2.973.923,2.351,2.351,0,0,1,1.359,1.259l5.328.054a5.265,5.265,0,0,1,1.021.095c.3.06.442.137.442.23l0,.439-6.849-.066a3.449,3.449,0,0,1-1.836,1.474,18.565,18.565,0,0,1-3.756,1.159l-2.494-.347a2.979,2.979,0,0,1-.551-.13c-.144-.053-.214-.11-.214-.172,0-.084.192-.18.578-.288s.822-.243,1.307-.4a12.951,12.951,0,0,0,1.429-.565,1.94,1.94,0,0,0,.938-.779l-16.167-.16a14.941,14.941,0,0,1-1.427.921,9.3,9.3,0,0,1-2.1.815,22.038,22.038,0,0,1-3.253.588,46.187,46.187,0,0,1-4.906.24c-1.481.007-2.924-.049-4.337-.169a29.605,29.605,0,0,1-3.764-.536,11.748,11.748,0,0,1-2.7-.884q-1.052-.528-1.176-1.211l-4.386-.045a5.842,5.842,0,0,1-1.036-.091c-.3-.059-.456-.136-.457-.234l0-.438,6,.057a3.211,3.211,0,0,1,1.639-1.208,18.769,18.769,0,0,1,3.043-.916l2.009.276c.61.086.913.186.913.3,0,.062-.123.139-.375.231s-.554.2-.9.33a8.422,8.422,0,0,0-1,.451,2.117,2.117,0,0,0-.731.585Zm-14.795.6a1.591,1.591,0,0,0,.8.743,6.314,6.314,0,0,0,1.524.515,15.485,15.485,0,0,0,2.053.3q1.144.094,2.394.089a24.962,24.962,0,0,0,2.542-.126,14.686,14.686,0,0,0,1.9-.322,8.976,8.976,0,0,0,1.43-.472,7.91,7.91,0,0,0,1.092-.584Zm35.194-.393a1.646,1.646,0,0,0-.871-.766,7.852,7.852,0,0,0-1.752-.553,19.169,19.169,0,0,0-2.485-.333q-1.411-.109-3.122-.1a23.836,23.836,0,0,0-2.616.135,13.654,13.654,0,0,0-1.9.345,6.982,6.982,0,0,0-1.366.505,9.892,9.892,0,0,0-1.047.617Z" fill="#fcb048"/>
          </g>
          <path id="Trazado_149519" data-name="Trazado 149519" d="M1801.183,1950.472c-21.1,0-43.065,1.856-46.579,5.45a4.073,4.073,0,0,1,.384.405c2.962-2.5,21.1-5.008,46.195-5.008,25.738,0,44.167,2.643,46.4,5.2a4.337,4.337,0,0,1,.354-.4C1845.034,1952.4,1822.655,1950.472,1801.183,1950.472Z" fill="url(#linear-gradient-23)"/>
        </g>
        <g id="Grupo_93557" data-name="Grupo 93557">
          <path id="Trazado_149520" data-name="Trazado 149520" d="M1740.707,1944.924v10.495c0,3.391,21.184,6.14,47.316,6.14s47.316-2.749,47.316-6.14v-10.495Z" fill="url(#linear-gradient-8)"/>
          <ellipse id="Elipse_5258" data-name="Elipse 5258" cx="47.316" cy="6.14" rx="47.316" ry="6.14" transform="translate(1740.707 1938.784)" fill="url(#linear-gradient-5)"/>
          <path id="Trazado_149521" data-name="Trazado 149521" d="M1788.023,1951.488c-23.144,0-47.344-2.211-47.344-6.474,0-.235.083-.646.318-.646s.133.322.133.556c0,2.7,19.258,5.717,46.893,5.717s46.892-3.013,46.892-5.717c0-.234.04-.454.274-.454s.178.313.178.547C1835.367,1949.281,1811.166,1951.488,1788.023,1951.488Z" fill="url(#linear-gradient-10)"/>
          <g id="Grupo_93556" data-name="Grupo 93556">
            <path id="Trazado_149522" data-name="Trazado 149522" d="M1783.552,1945.266c.464-.321.958-.638,1.487-.951a9.306,9.306,0,0,1,2.032-.847,19.35,19.35,0,0,1,3.119-.617,39.578,39.578,0,0,1,4.672-.252q2.743-.014,5.15.174a35.028,35.028,0,0,1,4.235.561,13.044,13.044,0,0,1,2.973.922,2.355,2.355,0,0,1,1.359,1.26l5.328.054a5.2,5.2,0,0,1,1.021.094c.3.061.442.137.443.23l0,.439-6.849-.066a3.461,3.461,0,0,1-1.837,1.475,18.588,18.588,0,0,1-3.755,1.158l-2.495-.347a2.894,2.894,0,0,1-.551-.13c-.144-.052-.213-.109-.214-.171q0-.127.579-.289c.386-.108.821-.243,1.306-.4a13.286,13.286,0,0,0,1.43-.566,1.94,1.94,0,0,0,.937-.778l-16.166-.161a15.3,15.3,0,0,1-1.428.922,9.324,9.324,0,0,1-2.1.814,22.015,22.015,0,0,1-3.253.588,46.148,46.148,0,0,1-4.905.24c-1.482.007-2.924-.049-4.337-.168a29.76,29.76,0,0,1-3.764-.537,11.711,11.711,0,0,1-2.7-.884c-.7-.351-1.094-.755-1.175-1.211l-4.386-.045a5.666,5.666,0,0,1-1.037-.091c-.3-.058-.456-.136-.457-.233l0-.439,6,.057a3.225,3.225,0,0,1,1.64-1.208,18.742,18.742,0,0,1,3.043-.915l2.008.275c.61.086.913.186.914.3,0,.063-.124.14-.376.232s-.554.2-.9.33a8.228,8.228,0,0,0-1,.45,2.134,2.134,0,0,0-.731.585Zm-14.8.6a1.6,1.6,0,0,0,.8.744,6.327,6.327,0,0,0,1.524.514,15.5,15.5,0,0,0,2.053.3q1.146.094,2.394.088a25.245,25.245,0,0,0,2.542-.125,14.98,14.98,0,0,0,1.9-.322,8.813,8.813,0,0,0,1.43-.473,7.944,7.944,0,0,0,1.093-.583Zm35.2-.392a1.655,1.655,0,0,0-.872-.767,7.84,7.84,0,0,0-1.752-.553,19.52,19.52,0,0,0-2.484-.333q-1.413-.109-3.123-.1a24.053,24.053,0,0,0-2.616.135,13.484,13.484,0,0,0-1.9.346,6.829,6.829,0,0,0-1.365.505,9.464,9.464,0,0,0-1.048.617Z" fill="#fcb048"/>
          </g>
          <path id="Trazado_149523" data-name="Trazado 149523" d="M1788.029,1939.448c-21.1,0-43.065,1.857-46.578,5.45a4.466,4.466,0,0,1,.384.405c2.962-2.495,21.1-5.007,46.194-5.007,25.738,0,44.168,2.643,46.4,5.2a4.468,4.468,0,0,1,.354-.4C1831.881,1941.373,1809.5,1939.448,1788.029,1939.448Z" fill="url(#linear-gradient-27)"/>
        </g>
        <g id="Grupo_93559" data-name="Grupo 93559">
          <path id="Trazado_149524" data-name="Trazado 149524" d="M1752.056,1933.933v10.495c0,3.391,21.185,6.14,47.317,6.14s47.316-2.749,47.316-6.14v-10.495Z" fill="url(#linear-gradient-4)"/>
          <ellipse id="Elipse_5259" data-name="Elipse 5259" cx="47.316" cy="6.14" rx="47.316" ry="6.14" transform="translate(1752.056 1927.792)" fill="url(#linear-gradient-5)"/>
          <path id="Trazado_149525" data-name="Trazado 149525" d="M1799.372,1940.5c-23.143,0-47.343-2.21-47.343-6.474,0-.234.083-.645.317-.645s.134.321.134.556c0,2.7,19.258,5.716,46.892,5.716s46.893-3.012,46.893-5.716c0-.235.04-.454.274-.454s.178.312.178.547C1846.717,1938.289,1822.516,1940.5,1799.372,1940.5Z" fill="url(#linear-gradient-6)"/>
          <g id="Grupo_93558" data-name="Grupo 93558">
            <path id="Trazado_149526" data-name="Trazado 149526" d="M1794.9,1934.275c.465-.322.959-.638,1.487-.951a9.389,9.389,0,0,1,2.033-.848,19.558,19.558,0,0,1,3.119-.617,39.522,39.522,0,0,1,4.672-.252q2.743-.014,5.15.175a34.881,34.881,0,0,1,4.235.56,13.082,13.082,0,0,1,2.973.923,2.351,2.351,0,0,1,1.359,1.259l5.328.054a5.267,5.267,0,0,1,1.021.095c.3.06.442.137.442.23l0,.439-6.85-.066a3.454,3.454,0,0,1-1.836,1.474,18.637,18.637,0,0,1-3.756,1.159l-2.494-.347a2.98,2.98,0,0,1-.551-.13c-.144-.053-.214-.11-.214-.172,0-.084.193-.181.579-.288s.821-.243,1.306-.4a12.962,12.962,0,0,0,1.429-.565,1.94,1.94,0,0,0,.938-.779l-16.166-.16a15.289,15.289,0,0,1-1.428.921,9.278,9.278,0,0,1-2.1.815,21.887,21.887,0,0,1-3.253.587,45.628,45.628,0,0,1-4.9.24c-1.482.008-2.925-.049-4.338-.168a29.631,29.631,0,0,1-3.764-.536,11.758,11.758,0,0,1-2.7-.884c-.7-.352-1.094-.755-1.175-1.211l-4.386-.045a5.856,5.856,0,0,1-1.037-.091c-.3-.059-.456-.137-.457-.234l0-.439,6,.058a3.211,3.211,0,0,1,1.639-1.208,18.779,18.779,0,0,1,3.044-.916l2.008.276c.61.086.913.186.913.3,0,.062-.123.139-.375.231s-.554.2-.9.33a8.433,8.433,0,0,0-1,.451,2.125,2.125,0,0,0-.731.585Zm-14.8.6a1.592,1.592,0,0,0,.8.743,6.375,6.375,0,0,0,1.524.515,15.483,15.483,0,0,0,2.053.3q1.145.094,2.394.089a24.948,24.948,0,0,0,2.542-.126,14.639,14.639,0,0,0,1.9-.322,8.893,8.893,0,0,0,1.43-.472,7.862,7.862,0,0,0,1.092-.584Zm35.194-.393a1.646,1.646,0,0,0-.871-.766,7.838,7.838,0,0,0-1.752-.553,19.31,19.31,0,0,0-2.484-.334q-1.413-.108-3.123-.1a24.024,24.024,0,0,0-2.616.136,13.5,13.5,0,0,0-1.9.345,6.986,6.986,0,0,0-1.366.505,9.728,9.728,0,0,0-1.047.617Z" fill="#fcb048"/>
          </g>
          <path id="Trazado_149527" data-name="Trazado 149527" d="M1799.379,1928.457c-21.1,0-43.065,1.856-46.578,5.45a4.327,4.327,0,0,1,.384.405c2.961-2.5,21.1-5.008,46.194-5.008,25.738,0,44.168,2.643,46.4,5.2a4.319,4.319,0,0,1,.354-.4C1843.231,1930.382,1820.851,1928.457,1799.379,1928.457Z" fill="url(#linear-gradient-31)"/>
        </g>
        <g id="Grupo_93561" data-name="Grupo 93561">
          <path id="Trazado_149528" data-name="Trazado 149528" d="M1746.153,1922.909V1933.4c0,3.391,21.184,6.14,47.316,6.14s47.316-2.749,47.316-6.14v-10.495Z" fill="url(#linear-gradient-8)"/>
          <ellipse id="Elipse_5260" data-name="Elipse 5260" cx="47.316" cy="6.14" rx="47.316" ry="6.14" transform="translate(1746.153 1916.769)" fill="url(#linear-gradient-5)"/>
          <path id="Trazado_149529" data-name="Trazado 149529" d="M1793.469,1929.473c-23.143,0-47.344-2.211-47.344-6.474,0-.235.084-.646.318-.646s.133.322.133.556c0,2.7,19.259,5.717,46.893,5.717s46.892-3.013,46.892-5.717c0-.234.04-.454.274-.454s.178.313.178.547C1840.813,1927.266,1816.612,1929.473,1793.469,1929.473Z" fill="url(#linear-gradient-10)"/>
          <g id="Grupo_93560" data-name="Grupo 93560">
            <path id="Trazado_149530" data-name="Trazado 149530" d="M1789,1923.251c.464-.321.958-.638,1.487-.951a9.317,9.317,0,0,1,2.033-.847,19.321,19.321,0,0,1,3.119-.617,39.534,39.534,0,0,1,4.672-.252q2.742-.014,5.15.174a34.864,34.864,0,0,1,4.235.561,13.06,13.06,0,0,1,2.973.922,2.352,2.352,0,0,1,1.359,1.26l5.327.054a5.2,5.2,0,0,1,1.022.094c.3.061.442.137.442.23l0,.439-6.849-.066a3.454,3.454,0,0,1-1.836,1.475,18.591,18.591,0,0,1-3.756,1.158l-2.495-.347a2.873,2.873,0,0,1-.55-.13c-.144-.052-.214-.109-.214-.172q0-.126.578-.288c.386-.108.822-.243,1.306-.4a13.274,13.274,0,0,0,1.43-.566,1.939,1.939,0,0,0,.938-.778l-16.167-.161a15.282,15.282,0,0,1-1.428.922,9.3,9.3,0,0,1-2.1.814,21.989,21.989,0,0,1-3.253.588,46.134,46.134,0,0,1-4.905.24c-1.482.007-2.924-.049-4.337-.168a29.761,29.761,0,0,1-3.764-.537,11.7,11.7,0,0,1-2.7-.884q-1.051-.526-1.176-1.211l-4.386-.045a5.637,5.637,0,0,1-1.036-.091c-.3-.059-.457-.136-.457-.233l0-.439,6,.057a3.23,3.23,0,0,1,1.64-1.208,18.79,18.79,0,0,1,3.043-.915l2.009.275c.609.086.912.186.913.3,0,.063-.123.14-.376.232s-.554.2-.9.33a8.3,8.3,0,0,0-1,.45,2.119,2.119,0,0,0-.73.585Zm-14.8.6a1.591,1.591,0,0,0,.8.744,6.346,6.346,0,0,0,1.524.514,15.548,15.548,0,0,0,2.053.3q1.146.094,2.394.088a25.243,25.243,0,0,0,2.542-.125,15.024,15.024,0,0,0,1.9-.322,8.875,8.875,0,0,0,1.43-.473,8.037,8.037,0,0,0,1.092-.583Zm35.194-.392a1.652,1.652,0,0,0-.871-.767,7.857,7.857,0,0,0-1.752-.553,19.391,19.391,0,0,0-2.485-.333q-1.413-.109-3.122-.1a24.084,24.084,0,0,0-2.616.135,13.5,13.5,0,0,0-1.9.346,6.874,6.874,0,0,0-1.365.505,9.485,9.485,0,0,0-1.048.617Z" fill="#fcb048"/>
          </g>
          <path id="Trazado_149531" data-name="Trazado 149531" d="M1793.475,1917.433c-21.1,0-43.064,1.857-46.578,5.45a4.3,4.3,0,0,1,.384.4c2.962-2.495,21.1-5.007,46.194-5.007,25.738,0,44.168,2.643,46.4,5.2a4.325,4.325,0,0,1,.353-.4C1837.327,1919.358,1814.948,1917.433,1793.475,1917.433Z" fill="url(#linear-gradient-35)"/>
        </g>
        <g id="Grupo_93563" data-name="Grupo 93563">
          <path id="Trazado_149532" data-name="Trazado 149532" d="M1854.244,1930.308l-8.552,6.083c-2.763,1.965,7.275,20.821,22.422,42.116s29.666,36.964,32.43,35l8.552-6.083Z" fill="url(#linear-gradient-36)"/>
          <path id="Trazado_149533" data-name="Trazado 149533" d="M1909.1,2007.422c-2.764,1.965-17.283-13.7-32.43-35s-25.185-40.151-22.422-42.116,17.283,13.7,32.43,35S1911.859,2005.456,1909.1,2007.422Z" fill="url(#linear-gradient-37)"/>
          <path id="Trazado_149534" data-name="Trazado 149534" d="M1876.321,1972.669c-13.414-18.859-25.64-39.861-22.166-42.332.191-.136.575-.306.711-.115s-.185.295-.376.431c-2.2,1.567,6.5,19.006,22.522,41.525s29.635,36.466,31.838,34.9c.191-.135.393-.23.529-.039s-.152.326-.343.461C1905.562,2009.97,1889.736,1991.528,1876.321,1972.669Z" fill="url(#linear-gradient-38)"/>
          <g id="Grupo_93562" data-name="Grupo 93562">
            <path id="Trazado_149535" data-name="Trazado 149535" d="M1878.8,1965.42c.531.191,1.075.411,1.637.66a9.376,9.376,0,0,1,1.868,1.165,19.434,19.434,0,0,1,2.311,2.184,39.544,39.544,0,0,1,2.913,3.661q1.6,2.227,2.843,4.3a34.833,34.833,0,0,1,2,3.776,13.138,13.138,0,0,1,.972,2.957,2.352,2.352,0,0,1-.239,1.838l3.044,4.372a5.25,5.25,0,0,1,.515.888c.123.277.145.439.069.493l-.356.256-3.917-5.619a3.446,3.446,0,0,1-2.265-.642,18.576,18.576,0,0,1-3.122-2.389l-1.163-2.233a3.013,3.013,0,0,1-.213-.525c-.041-.147-.034-.237.016-.274q.1-.073.57.3t1.085.831a13.215,13.215,0,0,0,1.29.837,1.94,1.94,0,0,0,1.178.313l-9.24-13.267a15.27,15.27,0,0,1-1.578-.629,9.272,9.272,0,0,1-1.88-1.237,21.987,21.987,0,0,1-2.364-2.31,46.079,46.079,0,0,1-3.039-3.858q-1.3-1.8-2.377-3.632a29.731,29.731,0,0,1-1.744-3.378,11.7,11.7,0,0,1-.845-2.713,1.893,1.893,0,0,1,.305-1.66l-2.505-3.6a5.779,5.779,0,0,1-.527-.9c-.127-.281-.153-.451-.074-.508l.356-.256,3.429,4.92a3.217,3.217,0,0,1,1.935.636,18.726,18.726,0,0,1,2.51,1.949l.939,1.8c.284.547.378.852.284.919-.05.036-.185-.02-.406-.172s-.486-.334-.791-.542a8.181,8.181,0,0,0-.946-.553,2.123,2.123,0,0,0-.9-.256Zm-9.063-11.71a1.584,1.584,0,0,0-.144,1.08,6.271,6.271,0,0,0,.464,1.54,15.418,15.418,0,0,0,.949,1.844q.586.989,1.316,2a24.864,24.864,0,0,0,1.575,2,14.708,14.708,0,0,0,1.365,1.363,8.828,8.828,0,0,0,1.213.891,7.865,7.865,0,0,0,1.109.552Zm20.719,28.451a1.647,1.647,0,0,0,.12-1.154,7.915,7.915,0,0,0-.565-1.748,19.432,19.432,0,0,0-1.169-2.218q-.729-1.215-1.727-2.6a24.063,24.063,0,0,0-1.627-2.053,13.372,13.372,0,0,0-1.384-1.349,6.943,6.943,0,0,0-1.2-.82,9.812,9.812,0,0,0-1.11-.5Z" fill="#fcb048"/>
          </g>
          <path id="Trazado_149536" data-name="Trazado 149536" d="M1886.136,1965.7c-12.229-17.192-26.474-34.017-31.44-34.8a4.07,4.07,0,0,1-.107.548c3.75.967,16.311,14.291,30.856,34.74,14.919,20.974,23.447,37.523,22.658,40.825a4.165,4.165,0,0,1,.532.056C1909.985,2002.546,1898.582,1983.193,1886.136,1965.7Z" fill="url(#linear-gradient-39)"/>
        </g>
      </g>
      <g id="Grupo_93581" data-name="Grupo 93581">
        <path id="Trazado_149537" data-name="Trazado 149537" d="M2019.733,1894.033l-.3,102.135a9.739,9.739,0,0,1-9.083,9.617l-71.675,3.708a9.044,9.044,0,0,1-9.692-8.968V1894.789a9.626,9.626,0,0,1,8.777-9.446c.315-.031.635-.042.957-.044l71.952-.343A9,9,0,0,1,2019.733,1894.033Z" fill="url(#linear-gradient-40)"/>
        <path id="Trazado_149538" data-name="Trazado 149538" d="M2025.027,1893.978l-.314,102.046a9.533,9.533,0,0,1-8.856,9.6l-71.528,3.7a9.211,9.211,0,0,1-9.891-8.95l.015-105.635a9.71,9.71,0,0,1,8.868-9.438c.314-.031.743-.043,1.064-.044l71.808-.344A8.808,8.808,0,0,1,2025.027,1893.978Z" fill="url(#linear-gradient-41)"/>
        <g id="Grupo_93565" data-name="Grupo 93565" opacity="0.3" style="mix-blend-mode: multiply;isolation: isolate">
          <path id="Trazado_149539" data-name="Trazado 149539" d="M2025.028,1893.833l-.079,25.65-90.5,1.655,0-26.554a9.624,9.624,0,0,1,8.521-9.321,11.65,11.65,0,0,1,1.411-.011l71.808-.344A8.687,8.687,0,0,1,2025.028,1893.833Z" fill="url(#linear-gradient-42)"/>
          <path id="Trazado_149540" data-name="Trazado 149540" d="M2024.973,1911.6l-.033,10.658c-9.093,2.733-25.648,4.762-44.359,5.155-8.17.172-16.013.017-23.057-.412a144.511,144.511,0,0,1-23.075-2.991v-11.033c2.239-.545,4.3-1.052,6.75-1.525a185.284,185.284,0,0,1,18.92-2.49c6.388-.546,13.362-.891,20.6-.99,9.379-.127,18.156.176,25.752.814.593.049,1.185.1,1.762.155,1.827.169,3.584.358,5.257.567.592.073,1.176.149,1.748.228,1.315.18,2.446.373,3.646.576C2021.186,1910.7,2023.232,1911.132,2024.973,1911.6Z" fill="url(#linear-gradient-42)"/>
        </g>
        <path id="Trazado_149541" data-name="Trazado 149541" d="M2020.43,1914.011a2.823,2.823,0,0,1-2.764,2.8l-74.334,1.278a2.824,2.824,0,0,1-2.922-2.791l.006-17.786a2.917,2.917,0,0,1,2.926-2.87l74.389-.62a2.722,2.722,0,0,1,2.749,2.737Z" fill="#fff"/>
        <path id="Trazado_149542" data-name="Trazado 149542" d="M2018.682,1913.654a1.784,1.784,0,0,1-1.747,1.771L1943,1916.656a1.785,1.785,0,0,1-1.846-1.764l.007-17.709a1.843,1.843,0,0,1,1.847-1.813l73.986-.637a1.719,1.719,0,0,1,1.738,1.729Z" fill="#f4f7fa"/>
        <g id="Grupo_93571" data-name="Grupo 93571">
          <g id="Grupo_93568" data-name="Grupo 93568">
            <g id="Grupo_93566" data-name="Grupo 93566">
              <path id="Trazado_149543" data-name="Trazado 149543" d="M2008.164,1903.371a.809.809,0,0,1-.866.787h-.039a.783.783,0,0,1-.862-.766l.009-3.53a.848.848,0,0,1,.866-.837h.04a.823.823,0,0,1,.861.819Z" fill="#d8dee8"/>
              <path id="Trazado_149544" data-name="Trazado 149544" d="M2015.2,1903.3a.816.816,0,0,1-.861.8h-.039a.789.789,0,0,1-.857-.778l.01-3.53a.853.853,0,0,1,.861-.846h.04a.826.826,0,0,1,.856.827Z" fill="#d8dee8"/>
            </g>
            <g id="Grupo_93567" data-name="Grupo 93567">
              <path id="Trazado_149545" data-name="Trazado 149545" d="M2008.144,1911.273a.948.948,0,0,1-.865.952h-.04a.917.917,0,0,1-.861-.926l.009-3.631a.941.941,0,0,1,.865-.943h.04a.91.91,0,0,1,.861.92Z" fill="#d8dee8"/>
              <path id="Trazado_149546" data-name="Trazado 149546" d="M2015.184,1911.209c0,.474-.387.621-.861.991h-.039a.953.953,0,0,1-.857-.965l.01-3.8c0-.474.387-1.119.861-1.123h.04c.474,0,.857.626.855,1.1Z" fill="#d8dee8"/>
            </g>
          </g>
          <g id="Grupo_93570" data-name="Grupo 93570">
            <path id="Trazado_149547" data-name="Trazado 149547" d="M2013.467,1905.141a.887.887,0,0,1-.873.872l-3.386.048c-.476.006-.683-.372-.683-.847v-.04c0-.475.206-.865.682-.871l3.483-.046a.777.777,0,0,1,.777.844Z" fill="#fff"/>
            <g id="Grupo_93569" data-name="Grupo 93569">
              <path id="Trazado_149548" data-name="Trazado 149548" d="M2013.467,1897.765a.876.876,0,0,1-.863.87l-3.391.036c-.476.005-.688-.375-.688-.851v-.039c0-.476.215-.864.691-.868l3.479-.036a.777.777,0,0,1,.772.848Z" fill="#d8dee8"/>
              <path id="Trazado_149549" data-name="Trazado 149549" d="M2013.467,1912.865a.9.9,0,0,1-.884.874l-3.569.056a.85.85,0,0,1-.868-.846v-.04a.873.873,0,0,1,.861-.87l3.582-.056a.857.857,0,0,1,.878.842Z" fill="#d8dee8"/>
            </g>
          </g>
        </g>
        <path id="Trazado_149550" data-name="Trazado 149550" d="M1986.139,2000.645a19.89,19.89,0,0,1-1.511,4.907c-.26.557-.553,1.138-.875,1.729l-39.424,2.038a9.211,9.211,0,0,1-9.891-8.95l.015-105.785a9.7,9.7,0,0,1,8.521-9.4c.115.034.286.07.4.107,5.01,1.57,10.492,4.508,13.777,10.012a23.8,23.8,0,0,1,3.007,13.659,39.665,39.665,0,0,1-.513,4.743q-.246,1.46-.493,2.978c-.208,1.264-.412,2.557-.611,3.871-.316,2.1-.608,4.263-.842,6.444-.224,2.091-.394,4.2-.479,6.313-.016.407-.03.815-.039,1.222-.033,1.319-.03,2.632.018,3.936q.047,1.338.157,2.657a34.707,34.707,0,0,0,3.814,13.824,27.889,27.889,0,0,0,7.023,7.828c.719.6,1.446,1.182,2.17,1.765a61.969,61.969,0,0,1,6.973,6.4l.155.172a36.227,36.227,0,0,1,2.871,3.6,27.143,27.143,0,0,1,2.5,4.456c.267.595.513,1.2.741,1.815.393,1.053.732,2.132,1.027,3.232q.2.741.387,1.5a.515.515,0,0,1,.014.06,53.375,53.375,0,0,1,1.2,6.237A29.044,29.044,0,0,1,1986.139,2000.645Z" fill="#fff" opacity="0.3" style="mix-blend-mode: soft-light;isolation: isolate"/>
        <g id="Grupo_93580" data-name="Grupo 93580">
          <g id="Grupo_93575" data-name="Grupo 93575" style="mix-blend-mode: multiply;isolation: isolate">
            <g id="Grupo_93572" data-name="Grupo 93572">
              <path id="Trazado_149551" data-name="Trazado 149551" d="M1957.376,1939.595a1.988,1.988,0,0,1-1.949,1.951l-13.056.342a1.881,1.881,0,0,1-1.969-1.861l0-4.824a2,2,0,0,1,1.97-1.958l13.06-.3a1.87,1.87,0,0,1,1.946,1.856Z" fill="url(#linear-gradient-44)"/>
              <path id="Trazado_149552" data-name="Trazado 149552" d="M1978.831,1939.048a1.965,1.965,0,0,1-1.919,1.935l-12.843.337a1.856,1.856,0,0,1-1.936-1.846l0-4.785a1.976,1.976,0,0,1,1.94-1.942l12.847-.294a1.845,1.845,0,0,1,1.913,1.842Z" fill="url(#linear-gradient-45)"/>
              <path id="Trazado_149553" data-name="Trazado 149553" d="M1999.229,1938.529a1.944,1.944,0,0,1-1.89,1.92l-12.643.331a1.834,1.834,0,0,1-1.9-1.832l.009-4.747a1.951,1.951,0,0,1,1.91-1.926l12.647-.29a1.822,1.822,0,0,1,1.882,1.828Z" fill="url(#linear-gradient-46)"/>
              <path id="Trazado_149554" data-name="Trazado 149554" d="M2020.01,1938a1.922,1.922,0,0,1-1.861,1.9l-12.44.325a1.807,1.807,0,0,1-1.872-1.817l.011-4.708a1.931,1.931,0,0,1,1.881-1.911l12.444-.285a1.8,1.8,0,0,1,1.851,1.813Z" fill="url(#linear-gradient-47)"/>
            </g>
            <g id="Grupo_93573" data-name="Grupo 93573">
              <path id="Trazado_149555" data-name="Trazado 149555" d="M1957.362,1954.982a2,2,0,0,1-1.948,1.96l-13.049.418a1.866,1.866,0,0,1-1.968-1.847v-4.819a2.013,2.013,0,0,1,1.97-1.968l13.053-.375a1.857,1.857,0,0,1,1.946,1.843Z" fill="url(#linear-gradient-48)"/>
              <path id="Trazado_149556" data-name="Trazado 149556" d="M1978.807,1954.311a1.979,1.979,0,0,1-1.918,1.944l-12.837.411a1.841,1.841,0,0,1-1.934-1.833l.005-4.779a1.988,1.988,0,0,1,1.939-1.952l12.84-.369a1.831,1.831,0,0,1,1.912,1.829Z" fill="url(#linear-gradient-49)"/>
              <path id="Trazado_149557" data-name="Trazado 149557" d="M1999.195,1953.672a1.956,1.956,0,0,1-1.889,1.929l-12.637.405a1.82,1.82,0,0,1-1.9-1.819l.009-4.742a1.964,1.964,0,0,1,1.909-1.936l12.64-.363a1.809,1.809,0,0,1,1.882,1.814Z" fill="url(#linear-gradient-50)"/>
              <path id="Trazado_149558" data-name="Trazado 149558" d="M2019.966,1953.022a1.934,1.934,0,0,1-1.86,1.913l-12.434.4a1.794,1.794,0,0,1-1.871-1.805l.011-4.7a1.943,1.943,0,0,1,1.88-1.92l12.438-.358a1.786,1.786,0,0,1,1.85,1.8Z" fill="url(#linear-gradient-51)"/>
            </g>
            <g id="Grupo_93574" data-name="Grupo 93574">
              <path id="Trazado_149559" data-name="Trazado 149559" d="M1957.349,1970a2.013,2.013,0,0,1-1.947,1.97l-13.043.492a1.853,1.853,0,0,1-1.967-1.834v-4.814a2.024,2.024,0,0,1,1.969-1.977l13.047-.45a1.842,1.842,0,0,1,1.944,1.83Z" fill="url(#linear-gradient-52)"/>
              <path id="Trazado_149560" data-name="Trazado 149560" d="M1978.783,1969.2a1.989,1.989,0,0,1-1.916,1.953l-12.831.484a1.827,1.827,0,0,1-1.934-1.82l.005-4.774a2,2,0,0,1,1.938-1.961l12.834-.442a1.817,1.817,0,0,1,1.912,1.816Z" fill="url(#linear-gradient-53)"/>
              <path id="Trazado_149561" data-name="Trazado 149561" d="M1999.162,1968.449a1.967,1.967,0,0,1-1.888,1.937l-12.631.477a1.8,1.8,0,0,1-1.9-1.806l.008-4.738a1.978,1.978,0,0,1,1.909-1.944l12.634-.436a1.8,1.8,0,0,1,1.881,1.8Z" fill="url(#linear-gradient-54)"/>
              <path id="Trazado_149562" data-name="Trazado 149562" d="M2019.923,1967.681a1.946,1.946,0,0,1-1.859,1.921l-12.428.469a1.782,1.782,0,0,1-1.871-1.792l.012-4.7a1.955,1.955,0,0,1,1.879-1.928l12.432-.429a1.773,1.773,0,0,1,1.849,1.789Z" fill="url(#linear-gradient-55)"/>
            </g>
            <path id="Trazado_149563" data-name="Trazado 149563" d="M1957.336,1984.639a2.026,2.026,0,0,1-1.946,1.979l-13.037.564a1.839,1.839,0,0,1-1.966-1.821l0-4.81a2.036,2.036,0,0,1,1.968-1.986l13.04-.522a1.828,1.828,0,0,1,1.943,1.818Z" fill="url(#linear-gradient-56)"/>
            <path id="Trazado_149564" data-name="Trazado 149564" d="M1978.76,1983.727a2,2,0,0,1-1.915,1.962l-12.825.555a1.815,1.815,0,0,1-1.933-1.807l.005-4.77a2.013,2.013,0,0,1,1.937-1.97l12.828-.513a1.8,1.8,0,0,1,1.911,1.8Z" fill="url(#linear-gradient-57)"/>
            <path id="Trazado_149565" data-name="Trazado 149565" d="M1999.13,1982.86a1.981,1.981,0,0,1-1.888,1.946l-12.625.547a1.793,1.793,0,0,1-1.9-1.794l.008-4.733a1.99,1.99,0,0,1,1.908-1.953l12.629-.506a1.781,1.781,0,0,1,1.879,1.79Z" fill="url(#linear-gradient-58)"/>
            <path id="Trazado_149566" data-name="Trazado 149566" d="M1957.322,2000.338a2.037,2.037,0,0,1-1.945,1.988l-13.03.642a1.825,1.825,0,0,1-1.965-1.808v-4.8a2.05,2.05,0,0,1,1.967-2l13.034-.6a1.815,1.815,0,0,1,1.943,1.8Z" fill="url(#linear-gradient-59)"/>
            <path id="Trazado_149567" data-name="Trazado 149567" d="M1978.736,1999.3a2.016,2.016,0,0,1-1.915,1.971L1964,2001.9a1.8,1.8,0,0,1-1.931-1.794l.005-4.766a2.025,2.025,0,0,1,1.936-1.979l12.822-.59a1.791,1.791,0,0,1,1.909,1.791Z" fill="url(#linear-gradient-60)"/>
            <path id="Trazado_149568" data-name="Trazado 149568" d="M1999.095,1998.311a1.993,1.993,0,0,1-1.886,1.955l-12.619.622a1.778,1.778,0,0,1-1.9-1.781l.008-4.728a2,2,0,0,1,1.907-1.963l12.622-.581a1.769,1.769,0,0,1,1.879,1.777Z" fill="url(#linear-gradient-61)"/>
            <path id="Trazado_149569" data-name="Trazado 149569" d="M2017.984,1975.537l-12.426.5a2.188,2.188,0,0,0-1.816,2.217l-.007,2.645-.005,2.208-.024,9.969-.007,2.932,0,1.916a1.842,1.842,0,0,0,1.8,1.936l12.418-.612a2.189,2.189,0,0,0,1.921-2.107l.005-1.9.009-2.914.028-9.907.007-2.2.008-2.628A2.055,2.055,0,0,0,2017.984,1975.537Z" fill="url(#linear-gradient-62)"/>
          </g>
          <g id="Grupo_93579" data-name="Grupo 93579">
            <g id="Grupo_93576" data-name="Grupo 93576">
              <path id="Trazado_149570" data-name="Trazado 149570" d="M1958.109,1939.576a1.989,1.989,0,0,1-1.948,1.951l-13.049.341a1.88,1.88,0,0,1-1.968-1.86l0-4.822a2,2,0,0,1,1.97-1.958l13.052-.3a1.869,1.869,0,0,1,1.945,1.856Z" fill="url(#linear-gradient-63)"/>
              <path id="Trazado_149571" data-name="Trazado 149571" d="M1978.831,1939.048a1.965,1.965,0,0,1-1.919,1.935l-12.843.337a1.856,1.856,0,0,1-1.936-1.846l0-4.785a1.976,1.976,0,0,1,1.94-1.942l12.847-.294a1.845,1.845,0,0,1,1.913,1.842Z" fill="url(#linear-gradient-64)"/>
              <path id="Trazado_149572" data-name="Trazado 149572" d="M1999.939,1938.511a1.943,1.943,0,0,1-1.889,1.919l-12.636.331a1.833,1.833,0,0,1-1.9-1.832l.009-4.745a1.952,1.952,0,0,1,1.909-1.926l12.64-.289a1.822,1.822,0,0,1,1.881,1.827Z" fill="url(#linear-gradient-65)"/>
              <path id="Trazado_149573" data-name="Trazado 149573" d="M2020.709,1937.982a1.92,1.92,0,0,1-1.861,1.9l-12.433.326a1.808,1.808,0,0,1-1.871-1.817l.012-4.707a1.929,1.929,0,0,1,1.88-1.91l12.437-.285a1.8,1.8,0,0,1,1.849,1.813Z" fill="url(#linear-gradient-66)"/>
            </g>
            <g id="Grupo_93577" data-name="Grupo 93577">
              <path id="Trazado_149574" data-name="Trazado 149574" d="M1958.095,1954.959a2,2,0,0,1-1.947,1.96l-13.042.418a1.867,1.867,0,0,1-1.967-1.847l0-4.818a2.009,2.009,0,0,1,1.968-1.967l13.046-.375a1.855,1.855,0,0,1,1.944,1.842Z" fill="url(#linear-gradient-67)"/>
              <path id="Trazado_149575" data-name="Trazado 149575" d="M1978.807,1954.311a1.979,1.979,0,0,1-1.918,1.944l-12.837.411a1.841,1.841,0,0,1-1.934-1.833l.005-4.779a1.988,1.988,0,0,1,1.939-1.952l12.84-.369a1.831,1.831,0,0,1,1.912,1.829Z" fill="url(#linear-gradient-68)"/>
              <path id="Trazado_149576" data-name="Trazado 149576" d="M1999.905,1953.65a1.956,1.956,0,0,1-1.888,1.928l-12.63.405a1.818,1.818,0,0,1-1.9-1.819l.008-4.74a1.964,1.964,0,0,1,1.909-1.935l12.633-.364a1.807,1.807,0,0,1,1.88,1.814Z" fill="url(#linear-gradient-69)"/>
              <path id="Trazado_149577" data-name="Trazado 149577" d="M2020.664,1953a1.932,1.932,0,0,1-1.859,1.912l-12.427.4a1.793,1.793,0,0,1-1.87-1.8l.011-4.7a1.942,1.942,0,0,1,1.88-1.919l12.43-.358a1.785,1.785,0,0,1,1.849,1.8Z" fill="url(#linear-gradient-70)"/>
            </g>
            <g id="Grupo_93578" data-name="Grupo 93578">
              <path id="Trazado_149578" data-name="Trazado 149578" d="M1958.081,1969.969a2.011,2.011,0,0,1-1.946,1.969l-13.035.492a1.852,1.852,0,0,1-1.966-1.834v-4.812a2.024,2.024,0,0,1,1.968-1.977l13.04-.449a1.841,1.841,0,0,1,1.943,1.829Z" fill="url(#linear-gradient-71)"/>
              <path id="Trazado_149579" data-name="Trazado 149579" d="M1978.783,1969.2a1.989,1.989,0,0,1-1.916,1.953l-12.831.484a1.827,1.827,0,0,1-1.934-1.82l.005-4.774a2,2,0,0,1,1.938-1.961l12.834-.442a1.817,1.817,0,0,1,1.912,1.816Z" fill="url(#linear-gradient-72)"/>
              <path id="Trazado_149580" data-name="Trazado 149580" d="M1999.871,1968.423a1.968,1.968,0,0,1-1.887,1.937l-12.624.476a1.8,1.8,0,0,1-1.9-1.806l.009-4.736a1.976,1.976,0,0,1,1.907-1.944l12.628-.435a1.794,1.794,0,0,1,1.879,1.8Z" fill="url(#linear-gradient-73)"/>
              <path id="Trazado_149581" data-name="Trazado 149581" d="M2020.621,1967.655a1.946,1.946,0,0,1-1.858,1.921l-12.422.468a1.781,1.781,0,0,1-1.869-1.792l.011-4.7a1.955,1.955,0,0,1,1.879-1.928l12.425-.429a1.772,1.772,0,0,1,1.848,1.788Z" fill="url(#linear-gradient-74)"/>
            </g>
            <path id="Trazado_149582" data-name="Trazado 149582" d="M1958.068,1984.608a2.024,2.024,0,0,1-1.945,1.978l-13.03.564a1.837,1.837,0,0,1-1.964-1.821v-4.808a2.037,2.037,0,0,1,1.967-1.986l13.033-.521a1.828,1.828,0,0,1,1.943,1.817Z" fill="url(#linear-gradient-75)"/>
            <path id="Trazado_149583" data-name="Trazado 149583" d="M1978.76,1983.727a2,2,0,0,1-1.915,1.962l-12.825.555a1.815,1.815,0,0,1-1.933-1.807l.005-4.77a2.013,2.013,0,0,1,1.937-1.97l12.828-.513a1.8,1.8,0,0,1,1.911,1.8Z" fill="url(#linear-gradient-76)"/>
            <path id="Trazado_149584" data-name="Trazado 149584" d="M1999.839,1982.83a1.981,1.981,0,0,1-1.887,1.945l-12.618.547a1.792,1.792,0,0,1-1.9-1.794l.008-4.731a1.989,1.989,0,0,1,1.908-1.953l12.621-.505a1.78,1.78,0,0,1,1.878,1.789Z" fill="url(#linear-gradient-77)"/>
            <path id="Trazado_149585" data-name="Trazado 149585" d="M1958.054,2000.3a2.038,2.038,0,0,1-1.944,1.988l-13.023.642a1.825,1.825,0,0,1-1.964-1.808l0-4.8a2.048,2.048,0,0,1,1.965-1.995l13.027-.6a1.814,1.814,0,0,1,1.941,1.8Z" fill="url(#linear-gradient-78)"/>
            <path id="Trazado_149586" data-name="Trazado 149586" d="M1978.736,1999.3a2.016,2.016,0,0,1-1.915,1.971L1964,2001.9a1.8,1.8,0,0,1-1.931-1.794l.005-4.766a2.025,2.025,0,0,1,1.936-1.979l12.822-.59a1.791,1.791,0,0,1,1.909,1.791Z" fill="url(#linear-gradient-79)"/>
            <path id="Trazado_149587" data-name="Trazado 149587" d="M1999.8,1998.276a1.993,1.993,0,0,1-1.886,1.955l-12.611.621a1.777,1.777,0,0,1-1.9-1.78l.009-4.727a2,2,0,0,1,1.906-1.962l12.615-.58a1.766,1.766,0,0,1,1.877,1.776Z" fill="url(#linear-gradient-80)"/>
            <path id="Trazado_149588" data-name="Trazado 149588" d="M2018.708,1975.508l-12.419.5a2.211,2.211,0,0,0-1.841,2.218l-.006,2.643-.006,2.208-.024,9.966-.007,2.932,0,1.915a1.861,1.861,0,0,0,1.829,1.934l12.41-.612a2.163,2.163,0,0,0,1.9-2.1l.005-1.9.009-2.914.029-9.9.007-2.194.007-2.627A2.033,2.033,0,0,0,2018.708,1975.508Z" fill="url(#linear-gradient-81)"/>
          </g>
        </g>
      </g>
      <g id="Grupo_93587" data-name="Grupo 93587">
        <path id="Trazado_149589" data-name="Trazado 149589" d="M1964.495,1827.313c-1.556-1.008-.138-3.942-.055-10.243.1-7.722-1.948-9.161-.3-12.19,2.015-3.7,7.085-5.237,10.444-5.31.741-.016.914-.42,7.121,1.187,11.183,2.9,13.982-.208,18.99,2.893,4.838,3,2.719,6.278,7.418,9.792,7.615,5.695,15.623-.463,21.066,4.3,5.148,4.506,5.267,15.988-.148,22.253-6.139,7.1-17.208,4.969-24.627,3.561a45.342,45.342,0,0,1-17.655-8.011,47.031,47.031,0,0,1-9.643-9.569,3.48,3.48,0,0,0-2.151-1.261,3.759,3.759,0,0,0-2.522.89C1970.091,1827.228,1966.023,1828.3,1964.495,1827.313Z" fill="url(#linear-gradient-82)"/>
        <path id="Trazado_149590" data-name="Trazado 149590" d="M1970.744,1823.081c-2-1.822-9.136,1.69-13.866,6.35-5.556,5.476-5.129,9.916-9.979,16.718a40.014,40.014,0,0,1-13.866,11.922l1.555,3.888a28.029,28.029,0,0,0,16.977-4.147c4.505-2.941,6.822-6.839,11.274-14.514C1967.307,1835.595,1973.244,1825.359,1970.744,1823.081Z" fill="url(#linear-gradient-83)"/>
        <path id="Trazado_149591" data-name="Trazado 149591" d="M1925.669,1927.226l5.571-3.347h2.515a30.274,30.274,0,0,1,.759,3.347c-1.12,1.836-6.336,3.232-9.591,3.348-.54.019-1.294.022-1.489-.37C1923.1,1929.541,1924.578,1928.149,1925.669,1927.226Z" fill="url(#linear-gradient-84)"/>
        <path id="Trazado_149592" data-name="Trazado 149592" d="M1931.339,1920.226c.358,2.072-.095,3.152-.583,3.758-.344.426-.649.547-2.689,2.31-.674.583-1.018.9-.94,1.059.09.187.685.086,1.97-.223,2.8-.674,4.209-1.025,4.553-1.7.311-.61.036-.886.054-2.549a8.67,8.67,0,0,1,.41-2.528Z" fill="url(#linear-gradient-85)"/>
        <path id="Trazado_149593" data-name="Trazado 149593" d="M1927.312,1903.8s-2.517,3-2.108,6.3,4.818-1.521,5.432-3.148,1.333-3.944,1.333-3.944S1928.878,1901.081,1927.312,1903.8Z" fill="url(#linear-gradient-86)"/>
        <path id="Trazado_149594" data-name="Trazado 149594" d="M1928.272,1899.1s.683,3.5-.62,5.346c-.648.919-1.523,1.7-1.266,2.448a1.389,1.389,0,0,0,1.382.806c1.062-.109,1.65-1.737,2.065-2.885a30.2,30.2,0,0,0,.955-5.325Z" fill="url(#linear-gradient-87)"/>
        <path id="Trazado_149595" data-name="Trazado 149595" d="M1930.278,1902.051l-2.322-.845a26.155,26.155,0,0,1-2.189-12.8c1.266-14.161,14.363-21.665,15.818-22.468,3.569,1.79,7.183,4.316,7.314,7.5.164,4-5.281,6.111-10.4,11.955A37.778,37.778,0,0,0,1930.278,1902.051Z" fill="url(#linear-gradient-88)"/>
        <path id="Trazado_149596" data-name="Trazado 149596" d="M1931.112,1921.845a56.469,56.469,0,0,1-1.166-22.84c1.115-7.1,3.383-21.539,13.024-26.923,2.1-1.176,5.115-2.229,8.783-5.5a31.115,31.115,0,0,0,6.185-7.624c12.893-3.782,24.786-2.249,30.033,4.666a10.022,10.022,0,0,1,2.418,5.087c.663,5.766-5,12.708-11.36,14.157-8.079,1.843-12.766-6.453-19.924-3.693-2,.772-3.7,2.685-7.1,6.512a54.172,54.172,0,0,0-7.666,11.157c-2.735,5.352-4.809,9.3-5.112,14.424a13.831,13.831,0,0,1-1.509,6.2,12.943,12.943,0,0,1-3.608,4.147Z" fill="url(#linear-gradient-89)"/>
        <path id="Trazado_149597" data-name="Trazado 149597" d="M1990.389,1868.713a10.022,10.022,0,0,0-2.418-5.087c-5.247-6.915-17.14-8.448-30.033-4.666a31.115,31.115,0,0,1-6.185,7.624c-3.668,3.269-6.678,4.322-8.783,5.5-5.887,3.288-9.022,9.951-10.827,16.259,2.678-4.153,4.971-5.257,6.745-5.276,2.539-.028,3.674,2.143,6.706,1.846,3.241-.316,3.982-3,6.61-3.3a4.892,4.892,0,0,1,2.916.648,11.519,11.519,0,0,1,3.985-3.078c7.158-2.76,11.845,5.536,19.924,3.693C1985.387,1881.421,1991.052,1874.479,1990.389,1868.713Z" opacity="0.3" fill="url(#linear-gradient-90)" style="mix-blend-mode: multiply;isolation: isolate"/>
        <path id="Trazado_149598" data-name="Trazado 149598" d="M1937.793,1876.55a42.509,42.509,0,0,1,6.417.146c12.865,1.271,16.411,7.635,27.044,9.187,2.515.368,13.714,2,18.564-4.471,3.482-4.647,2.955-12.656-.853-15.806-1.612-1.333-3.208-1.3-13.532-1.2-3.888.036-7.776.048-11.663.1-16.457.209-19.6-.93-22.6,1.792C1939.775,1867.562,1937.732,1870.29,1937.793,1876.55Z" fill="url(#linear-gradient-91)"/>
        <g id="Grupo_93583" data-name="Grupo 93583">
          <g id="Grupo_93582" data-name="Grupo 93582">
            <path id="Trazado_149599" data-name="Trazado 149599" d="M1953.755,1859.848s8.164,1.6,16.772,3.127c9.74,1.73,20.053,3.379,19.78,2.541-2.789-8.555.013-14.178,2.02-20.5a27.405,27.405,0,0,0,1.405-12.805c-1.995-14.06-21.2-8.462-21.2-8.462-6.226.253-6.906.908-7.476,1.54a22.993,22.993,0,0,0-5.089,9.519c-.99,4.589.13,6.352,0,10.237C1959.851,1848.581,1958.7,1853.675,1953.755,1859.848Z" fill="url(#linear-gradient-92)"/>
          </g>
          <path id="Trazado_149600" data-name="Trazado 149600" d="M1984.87,1862.413s-18.015-4.82-28.754-5.422Z" fill="url(#linear-gradient-93)" style="mix-blend-mode: soft-light;isolation: isolate"/>
        </g>
        <g id="Grupo_93584" data-name="Grupo 93584">
          <path id="Trazado_149601" data-name="Trazado 149601" d="M1976.7,1815.323c-.176.822-1.071,5.233.733,6.367a9.575,9.575,0,0,0,2.646.669c.985.184,1.81.3,2.393.367a6.038,6.038,0,0,1-1.187,3.038c-2.393,3.07-7.19,2.276-7.874,2.151a17.976,17.976,0,0,1-5.361-1.641,12.107,12.107,0,0,1-1.965-1.743,34.163,34.163,0,0,1,4.084-2.03,23.409,23.409,0,0,1,2.64-.648l.4-2.556Z" fill="url(#linear-gradient-94)"/>
          <path id="Trazado_149602" data-name="Trazado 149602" d="M1976.79,1817.521a4.4,4.4,0,0,1-3.468,3.8c-2.813.51-4.931-6.288-3.491-8.046a3.764,3.764,0,0,1,2.694-1.115,4.181,4.181,0,0,1,3.505,3.394c.486-.513,1.092-.66,1.39-.445.379.272.176,1.063.13,1.242A2.276,2.276,0,0,1,1976.79,1817.521Z" fill="url(#linear-gradient-95)"/>
        </g>
        <g id="Grupo_93585" data-name="Grupo 93585">
          <path id="Trazado_149603" data-name="Trazado 149603" d="M1949.839,1861.428l29.392,1.43a1.235,1.235,0,0,1,.987.581l.814,1.305a.955.955,0,0,1-.847,1.459l-31.133-1.186Z" fill="url(#linear-gradient-96)"/>
          <path id="Trazado_149604" data-name="Trazado 149604" d="M1919.269,1845.061l30.365.588a2.548,2.548,0,0,1,2.165,1.288l10.515,18.5-32.069-1.277a2.612,2.612,0,0,1-2.136-1.268l-9.742-16.275A1.028,1.028,0,0,1,1919.269,1845.061Z" fill="url(#linear-gradient-97)"/>
          <path id="Trazado_149605" data-name="Trazado 149605" d="M1951.8,1846.937a2.548,2.548,0,0,0-2.165-1.288l-.665-.013a4.735,4.735,0,0,1-1,2.6c-1.872,2.26-4.983.866-7.3,3.258-2.547,2.627-.194,5.755-2.471,8.2-2.4,2.574-6.273.478-10.728,2.125l.641,1.072a2.612,2.612,0,0,0,2.136,1.268l32.069,1.277Z" opacity="0.3" fill="url(#linear-gradient-98)" style="mix-blend-mode: multiply;isolation: isolate"/>
        </g>
        <path id="Trazado_149606" data-name="Trazado 149606" d="M1970.527,1862.975c9.74,1.73,20.053,3.379,19.78,2.541-2.789-8.555.013-14.178,2.02-20.5l-.525-3.257a8.392,8.392,0,0,0-4.508,5.293c-.883,3.73.069,6.515-3.53,7.057-2.288.346-7.154,2.695-10.448,5.562-.175.154-.35.309-.517.468A10.963,10.963,0,0,0,1970.527,1862.975Z" opacity="0.3" fill="url(#linear-gradient-99)" style="mix-blend-mode: multiply;isolation: isolate"/>
        <g id="Grupo_93586" data-name="Grupo 93586">
          <path id="Trazado_149607" data-name="Trazado 149607" d="M1976.836,1860.446q-.575-1.515-1.148-3.031c4.228-1.159,10.076-2.872,16.074-5.015.939-.336,2.055-.751,2.421-1.74,1.025-2.773-5.495-5.646-8.03-11.7-2.344-5.6-1.053-13.37,1.667-14.288,5.661-1.911,25.736,23.078,18.566,33.612C2002.333,1864.239,1989.838,1865.187,1976.836,1860.446Z" fill="url(#linear-gradient-100)"/>
        </g>
        <path id="Trazado_149608" data-name="Trazado 149608" d="M1975.688,1857.415c-2.654-1.41-5.832.036-6.036.132a7.947,7.947,0,0,0-2.29,1.642c-.1.132-1.248,1.728-.829,2.239.336.41,1.638.07,3.2-.9a12.136,12.136,0,0,1,2.8-.069c2.148.2,3.132.877,3.912.291a1.933,1.933,0,0,0,.56-2.009A2.394,2.394,0,0,0,1975.688,1857.415Z" fill="url(#linear-gradient-101)"/>
      </g>
    </g>
  </g>
</svg>
