<svg id="Grupo_94069" data-name="Grupo 94069" xmlns="http://www.w3.org/2000/svg" width="521.848" height="521.848" viewBox="0 0 521.848 521.848">
  <g id="Grupo_94076" data-name="Grupo 94076" transform="translate(20.71 244.888)">
    <g id="Grupo_94070" data-name="Grupo 94070" transform="translate(137.686)">
      <path id="Trazado_150522" data-name="Trazado 150522" d="M165.81,235.218l-2.215-1.48a9.9,9.9,0,0,1-3.934-7.368l-.1-9.712H146.774l-.1,9.712a9.9,9.9,0,0,1-3.936,7.368l-2.215,1.48a9.89,9.89,0,0,0-3.934,7.365v45.44a4.734,4.734,0,0,0,4.733,4.734h23.69a4.735,4.735,0,0,0,4.735-4.734v-45.44A9.888,9.888,0,0,0,165.81,235.218Z" transform="translate(-136.588 -210.295)" fill="#17c878"/>
      <path id="Trazado_150523" data-name="Trazado 150523" d="M150.456,223.609a1.652,1.652,0,0,0-1.649,1.651,12.287,12.287,0,0,1-5.033,9.42l-2.217,1.487a7.485,7.485,0,0,0-2.835,5.307v45.44a1.65,1.65,0,0,0,3.3,0v-45.44a4.524,4.524,0,0,1,1.37-2.562l2.215-1.486a15.427,15.427,0,0,0,6.5-12.166A1.652,1.652,0,0,0,150.456,223.609Z" transform="translate(-136.247 -209.186)" fill="#25e589"/>
      <path id="Rectángulo_36688" data-name="Rectángulo 36688" d="M2.082,0H15.533a2.082,2.082,0,0,1,2.082,2.082v2.2A2.085,2.085,0,0,1,15.53,6.363H2.082A2.082,2.082,0,0,1,0,4.281v-2.2A2.082,2.082,0,0,1,2.082,0Z" transform="translate(7.77)" fill="#25e589"/>
    </g>
    <g id="Grupo_94071" data-name="Grupo 94071" transform="translate(223.635)">
      <path id="Trazado_150524" data-name="Trazado 150524" d="M239.926,235.218l-2.214-1.48a9.9,9.9,0,0,1-3.936-7.368l-.1-9.712H220.889l-.1,9.712a9.9,9.9,0,0,1-3.936,7.368l-2.214,1.48a9.9,9.9,0,0,0-3.935,7.365v45.44a4.734,4.734,0,0,0,4.733,4.734h23.691a4.733,4.733,0,0,0,4.733-4.734v-45.44A9.89,9.89,0,0,0,239.926,235.218Z" transform="translate(-210.704 -210.295)" fill="#17c878"/>
      <path id="Trazado_150525" data-name="Trazado 150525" d="M224.572,223.609a1.652,1.652,0,0,0-1.65,1.651,12.289,12.289,0,0,1-5.034,9.42l-2.215,1.487a7.491,7.491,0,0,0-2.837,5.307v45.44a1.651,1.651,0,0,0,3.3,0v-45.44a4.529,4.529,0,0,1,1.368-2.562l2.217-1.486a15.423,15.423,0,0,0,6.5-12.166A1.649,1.649,0,0,0,224.572,223.609Z" transform="translate(-210.364 -209.186)" fill="#25e589"/>
      <path id="Rectángulo_36689" data-name="Rectángulo 36689" d="M2.082,0H15.534a2.082,2.082,0,0,1,2.082,2.082v2.2a2.085,2.085,0,0,1-2.085,2.085H2.085A2.085,2.085,0,0,1,0,4.278v-2.2A2.082,2.082,0,0,1,2.082,0Z" transform="translate(7.769)" fill="#25e589"/>
    </g>
    <g id="Grupo_94072" data-name="Grupo 94072" transform="translate(309.585)">
      <path id="Trazado_150526" data-name="Trazado 150526" d="M314.045,235.218l-2.217-1.48a9.909,9.909,0,0,1-3.936-7.368l-.1-9.712H295.005l-.1,9.712a9.9,9.9,0,0,1-3.932,7.368l-2.215,1.48a9.9,9.9,0,0,0-3.935,7.365v45.44a4.733,4.733,0,0,0,4.731,4.734h23.69a4.734,4.734,0,0,0,4.736-4.734v-45.44A9.9,9.9,0,0,0,314.045,235.218Z" transform="translate(-284.82 -210.295)" fill="#17c878"/>
      <path id="Trazado_150527" data-name="Trazado 150527" d="M298.686,223.609a1.65,1.65,0,0,0-1.647,1.651A12.284,12.284,0,0,1,292,234.68l-2.214,1.487a7.484,7.484,0,0,0-2.838,5.307v45.44a1.65,1.65,0,0,0,3.3,0v-45.44a4.538,4.538,0,0,1,1.37-2.562l2.218-1.486a15.423,15.423,0,0,0,6.5-12.166A1.65,1.65,0,0,0,298.686,223.609Z" transform="translate(-284.48 -209.186)" fill="#25e589"/>
      <path id="Rectángulo_36690" data-name="Rectángulo 36690" d="M2.082,0H15.533a2.082,2.082,0,0,1,2.082,2.082v2.2A2.085,2.085,0,0,1,15.53,6.363H2.084A2.084,2.084,0,0,1,0,4.279v-2.2A2.082,2.082,0,0,1,2.082,0Z" transform="translate(7.771)" fill="#25e589"/>
    </g>
    <g id="Grupo_94073" data-name="Grupo 94073" transform="translate(388.797 124.839)">
      <rect id="Rectángulo_36691" data-name="Rectángulo 36691" width="14.538" height="55.286" transform="translate(27.017)" fill="#dadada"/>
      <rect id="Rectángulo_36692" data-name="Rectángulo 36692" width="50.534" height="14.538" transform="translate(9.018 48.015)" fill="#dadada"/>
      <rect id="Rectángulo_36693" data-name="Rectángulo 36693" width="9.017" height="17.444" transform="translate(59.552 46.562)" fill="#929292"/>
      <rect id="Rectángulo_36694" data-name="Rectángulo 36694" width="9.018" height="17.444" transform="translate(0 46.562)" fill="#929292"/>
    </g>
    <g id="Grupo_94074" data-name="Grupo 94074" transform="translate(25.266 124.839)">
      <rect id="Rectángulo_36695" data-name="Rectángulo 36695" width="14.538" height="55.286" transform="translate(27.018)" fill="#dadada"/>
      <rect id="Rectángulo_36696" data-name="Rectángulo 36696" width="50.531" height="14.538" transform="translate(9.02 48.015)" fill="#dadada"/>
      <rect id="Rectángulo_36697" data-name="Rectángulo 36697" width="9.023" height="17.444" transform="translate(59.551 46.562)" fill="#929292"/>
      <rect id="Rectángulo_36698" data-name="Rectángulo 36698" width="9.02" height="17.444" transform="translate(0 46.562)" fill="#929292"/>
    </g>
    <g id="Grupo_94075" data-name="Grupo 94075" transform="translate(0 77.038)">
      <path id="Trazado_150528" data-name="Trazado 150528" d="M465.743,280.842H49.715a29.655,29.655,0,1,0,0,59.31H465.743a29.655,29.655,0,1,0,0-59.31Z" transform="translate(-17.508 -277.086)" fill="#929292"/>
      <path id="Trazado_150529" data-name="Trazado 150529" d="M408.464,280.842a29.655,29.655,0,1,0,29.655,29.653A29.654,29.654,0,0,0,408.464,280.842Z" transform="translate(39.772 -277.086)" fill="#b5b5b5"/>
      <path id="Trazado_150530" data-name="Trazado 150530" d="M406.4,293.787a14.642,14.642,0,1,0,14.645,14.641A14.658,14.658,0,0,0,406.4,293.787Z" transform="translate(41.839 -275.019)" fill="#dadada"/>
      <path id="Trazado_150531" data-name="Trazado 150531" d="M405.415,299.939a7.508,7.508,0,1,0,7.507,7.506A7.518,7.518,0,0,0,405.415,299.939Z" transform="translate(42.821 -274.037)" fill="#595959"/>
      <path id="Trazado_150532" data-name="Trazado 150532" d="M49.715,280.842a29.655,29.655,0,1,0,29.657,29.653A29.655,29.655,0,0,0,49.715,280.842Z" transform="translate(-17.508 -277.086)" fill="#b5b5b5"/>
      <path id="Trazado_150533" data-name="Trazado 150533" d="M47.648,293.787a14.642,14.642,0,1,0,14.642,14.641A14.657,14.657,0,0,0,47.648,293.787Z" transform="translate(-15.44 -275.019)" fill="#dadada"/>
      <path id="Trazado_150534" data-name="Trazado 150534" d="M46.666,299.939a7.508,7.508,0,1,0,7.508,7.506A7.519,7.519,0,0,0,46.666,299.939Z" transform="translate(-14.458 -274.037)" fill="#595959"/>
      <path id="Trazado_150535" data-name="Trazado 150535" d="M495.751,311.012a29.641,29.641,0,0,0-1.7-9.919l3.544-1.257a33.309,33.309,0,0,0-12.165-16.075l-2.18,3.065a29.491,29.491,0,0,0-17.092-5.467l-.06-3.756h-18.18v3.756H429.727V277.6H411.54v3.756H393.354V277.6H375.173v3.756H356.989V277.6H338.8v3.756H320.617V277.6H302.432v3.756H284.249V277.6H266.065v3.756H247.878V277.6H229.695v3.756H211.509V277.6H193.324v3.756H175.139V277.6H156.956v3.756H138.77V277.6H120.584v3.756H102.4V277.6H84.216v3.756H66.031V277.6H50.066q-1.254,0-2.487.092l.273,3.755A29.525,29.525,0,0,0,31.24,288.1l-2.385-2.9a33.251,33.251,0,0,0-11,16.906l3.627,1a29.7,29.7,0,0,0,.648,17.887L18.6,322.251a33.292,33.292,0,0,0,12.2,16.054l2.173-3.072a29.532,29.532,0,0,0,17.074,5.435l.028,3.756H68.194v-3.756H86.379v3.756h18.185v-3.756h18.185v3.756h18.185v-3.756h18.186v3.756H177.3v-3.756h18.185v3.756H213.67v-3.756h18.187v3.756h18.186v-3.756h18.185v3.756h18.184v-3.756H304.6v3.756h18.184v-3.756h18.186v3.756H359.15v-3.756h18.186v3.756h18.185v-3.756H413.7v3.756h18.187v-3.756h18.182v3.756h16.021c.814,0,1.62-.03,2.423-.087l-.262-3.757a29.484,29.484,0,0,0,16.619-6.618l2.384,2.906a33.247,33.247,0,0,0,11.028-16.879l-3.626-1.007A29.7,29.7,0,0,0,495.751,311.012Zm-29.657,25.152H50.066a25.153,25.153,0,0,1,0-50.305H466.094a25.153,25.153,0,0,1,0,50.305Z" transform="translate(-17.859 -277.603)" fill="#595959"/>
    </g>
  </g>
  <g id="Grupo_94080" data-name="Grupo 94080" transform="translate(0 355.335)">
    <g id="Grupo_94077" data-name="Grupo 94077" transform="translate(123.169)">
      <path id="Trazado_150536" data-name="Trazado 150536" d="M319.548,382.482v-76.07H168.382v76.07l-62.171,29.353v61.091H381.72V411.835Z" transform="translate(-106.211 -306.412)" fill="#17c878"/>
      <rect id="Rectángulo_36699" data-name="Rectángulo 36699" width="84.65" height="62.486" transform="translate(73.505 8.913)" fill="#25e589"/>
      <rect id="Rectángulo_36700" data-name="Rectángulo 36700" width="23.636" height="10.61" transform="translate(173.719 19.912)" fill="#fef301"/>
      <rect id="Rectángulo_36701" data-name="Rectángulo 36701" width="23.632" height="10.611" transform="translate(173.721 44.493)" fill="#e63715"/>
      <rect id="Rectángulo_36702" data-name="Rectángulo 36702" width="275.509" height="61.091" transform="translate(0 105.423)" fill="#0a9b56"/>
      <path id="Trazado_150537" data-name="Trazado 150537" d="M164.5,380.594l-20,9.443H331.2l-20-9.443Z" transform="translate(-100.097 -294.568)" fill="#25e589"/>
    </g>
    <g id="Grupo_94078" data-name="Grupo 94078" transform="translate(398.678 113.977)">
      <path id="Trazado_150538" data-name="Trazado 150538" d="M393.57,426.885v-7.516a12.33,12.33,0,0,0-12.314-12.314H343.788v5.684h37.468a6.639,6.639,0,0,1,6.631,6.631v7.516A12.328,12.328,0,0,0,400.2,439.2h66.757v-5.684H400.2A6.639,6.639,0,0,1,393.57,426.885Z" transform="translate(-343.788 -404.32)" fill="#17c878"/>
      <path id="Trazado_150539" data-name="Trazado 150539" d="M374.625,443.172v-7.518a12.33,12.33,0,0,0-12.316-12.314H343.788v5.685h18.521a6.639,6.639,0,0,1,6.631,6.63v7.518a12.318,12.318,0,0,0,6.988,11.085h91.03V449.8h-85.7A6.638,6.638,0,0,1,374.625,443.172Z" transform="translate(-343.788 -401.721)" fill="#fb5732"/>
      <path id="Trazado_150540" data-name="Trazado 150540" d="M350.141,404.7h-6.353v11.149h6.353a2.376,2.376,0,0,0,2.377-2.375v-6.4A2.379,2.379,0,0,0,350.141,404.7Z" transform="translate(-343.788 -404.697)" fill="#17c878"/>
      <path id="Trazado_150541" data-name="Trazado 150541" d="M350.141,420.983h-6.353v11.15h6.353a2.379,2.379,0,0,0,2.377-2.378v-6.4A2.377,2.377,0,0,0,350.141,420.983Z" transform="translate(-343.788 -402.097)" fill="#fb5732"/>
    </g>
    <g id="Grupo_94079" data-name="Grupo 94079" transform="translate(0 113.977)">
      <path id="Trazado_150542" data-name="Trazado 150542" d="M79.072,426.885v-7.516a6.639,6.639,0,0,1,6.632-6.631h37.465v-5.684H85.7a12.329,12.329,0,0,0-12.316,12.314v7.516a6.639,6.639,0,0,1-6.631,6.632H0V439.2H66.757A12.328,12.328,0,0,0,79.072,426.885Z" transform="translate(0 -404.32)" fill="#17c878"/>
      <path id="Trazado_150543" data-name="Trazado 150543" d="M98.018,443.172v-7.518a6.639,6.639,0,0,1,6.631-6.63h18.52v-5.685h-18.52a12.328,12.328,0,0,0-12.314,12.314v7.518A6.64,6.64,0,0,1,85.7,449.8H0v4.454H91.03A12.318,12.318,0,0,0,98.018,443.172Z" transform="translate(0 -401.721)" fill="#fb5732"/>
      <path id="Trazado_150544" data-name="Trazado 150544" d="M98.683,407.075v6.4a2.376,2.376,0,0,0,2.377,2.375h6.353V404.7H101.06A2.379,2.379,0,0,0,98.683,407.075Z" transform="translate(15.756 -404.697)" fill="#17c878"/>
      <path id="Trazado_150545" data-name="Trazado 150545" d="M98.683,423.359v6.4a2.379,2.379,0,0,0,2.377,2.378h6.353v-11.15H101.06A2.377,2.377,0,0,0,98.683,423.359Z" transform="translate(15.756 -402.097)" fill="#fb5732"/>
    </g>
  </g>
  <g id="Grupo_94084" data-name="Grupo 94084" transform="translate(26.823 67.489)">
    <g id="Grupo_94081" data-name="Grupo 94081" transform="translate(40.338 153.387)">
      <path id="Trazado_150546" data-name="Trazado 150546" d="M61.852,214.513l2.213-1.482A9.894,9.894,0,0,0,68,205.665l.1-9.716H80.89l.1,9.716a9.9,9.9,0,0,0,3.936,7.366l2.217,1.482a9.9,9.9,0,0,1,3.934,7.366v45.439a4.735,4.735,0,0,1-4.734,4.734H62.65a4.736,4.736,0,0,1-4.736-4.734V221.879A9.9,9.9,0,0,1,61.852,214.513Z" transform="translate(-57.914 -189.59)" fill="#17c878"/>
      <path id="Trazado_150547" data-name="Trazado 150547" d="M74.482,202.906a1.649,1.649,0,0,1,1.651,1.648,12.308,12.308,0,0,0,5.034,9.425l2.216,1.48a7.5,7.5,0,0,1,2.833,5.31v45.439a1.65,1.65,0,0,1-3.3,0V220.768a4.527,4.527,0,0,0-1.368-2.566l-2.218-1.481a15.441,15.441,0,0,1-6.5-12.167A1.65,1.65,0,0,1,74.482,202.906Z" transform="translate(-55.532 -188.479)" fill="#25e589"/>
      <path id="Rectángulo_36703" data-name="Rectángulo 36703" d="M2.083,0H15.535a2.081,2.081,0,0,1,2.081,2.081v2.2a2.083,2.083,0,0,1-2.083,2.083H2.083A2.083,2.083,0,0,1,0,4.276V2.083A2.083,2.083,0,0,1,2.083,0Z" transform="translate(7.775)" fill="#25e589"/>
    </g>
    <g id="Grupo_94083" data-name="Grupo 94083">
      <path id="Trazado_150548" data-name="Trazado 150548" d="M60.019,177.268,77.683,164.6,56.044,134.426l47.353-16.2L99.88,107.94H114.7V68.054H85.06v33.473L35.173,118.6l3.517,10.282-8.832,6.333Z" transform="translate(-22.056 -56.623)" fill="#fef301"/>
      <g id="Grupo_94082" data-name="Grupo 94082" transform="translate(7.802 31.211)">
        <path id="Trazado_150549" data-name="Trazado 150549" d="M57.255,129.9l-1.211-1.687,1.961-.671a19.743,19.743,0,0,0-7.04-20.563l-15.792,5.405,3.517,10.282L29.858,129l9.73,13.565A19.954,19.954,0,0,0,57.255,129.9Z" transform="translate(-29.858 -81.62)" fill="#f4c401"/>
        <path id="Trazado_150550" data-name="Trazado 150550" d="M80.545,120.965l15.98-5.467-3.518-10.282h14.82V91.677a20.009,20.009,0,0,0-29.641,0V98.8l-4.679,1.6a19.919,19.919,0,0,0,7.038,20.561Z" transform="translate(-22.985 -85.111)" fill="#f4c401"/>
      </g>
      <rect id="Rectángulo_36704" data-name="Rectángulo 36704" width="29.64" height="3.31" transform="translate(63.004 11.43)" fill="#f4c401"/>
      <path id="Trazado_150551" data-name="Trazado 150551" d="M69.1,63.913V58.2h49.02v5.716c0,3.155-3.7,5.715-8.277,5.715H77.379C72.809,69.628,69.1,67.068,69.1,63.913Z" transform="translate(-15.79 -58.197)" fill="#595959"/>
      <path id="Trazado_150552" data-name="Trazado 150552" d="M92.551,87.965a16.8,16.8,0,1,1-16.794,16.8A16.8,16.8,0,0,1,92.551,87.965Z" transform="translate(-14.727 -53.444)" fill="#a4a5a8"/>
      <path id="Trazado_150553" data-name="Trazado 150553" d="M80.868,103.945a10.867,10.867,0,1,1,10.867,10.867A10.882,10.882,0,0,1,80.868,103.945Z" transform="translate(-13.911 -52.628)" fill="#595959"/>
      <path id="Trazado_150554" data-name="Trazado 150554" d="M78.534,163.825l.583.321c.344.2.855.5,1.5.885,1.261.777,3.008,1.909,5.025,3.418a49.288,49.288,0,0,1,6.53,5.817,30.387,30.387,0,0,1,3.179,4.112,18.142,18.142,0,0,1,2.263,5.322,11.708,11.708,0,0,1-.206,6.1,12.914,12.914,0,0,1-2.731,4.782,21.87,21.87,0,0,1-3.5,3.08,29.659,29.659,0,0,1-3.39,2.046c-1.049.6-2.063,1.012-2.939,1.416s-1.657.7-2.3.938c-1.28.482-2.015.757-2.015.757a.869.869,0,0,1-.768-1.55l.042-.025s.645-.4,1.773-1.109c.564-.349,1.245-.769,1.98-1.317a29.732,29.732,0,0,0,2.429-1.832,26.958,26.958,0,0,0,2.59-2.363,17.66,17.66,0,0,0,2.215-2.908,7.564,7.564,0,0,0,1.04-3.164,5.538,5.538,0,0,0-.56-2.93,11.576,11.576,0,0,0-1.966-2.748,23.475,23.475,0,0,0-2.819-2.405,40.819,40.819,0,0,0-6.088-3.532c-1.906-.9-3.559-1.554-4.7-1.973-.566-.2-1.011-.353-1.313-.458l-.424-.129a5.787,5.787,0,1,1,3.39-11.066,5.618,5.618,0,0,1,1.067.449Z" transform="translate(-15.668 -41.455)" fill="#595959"/>
      <path id="Trazado_150555" data-name="Trazado 150555" d="M74.325,174.376s-.147.044-.423.13c-.3.106-.747.261-1.314.457-1.143.419-2.795,1.07-4.7,1.973a40.68,40.68,0,0,0-6.087,3.532,23.334,23.334,0,0,0-2.821,2.405,11.6,11.6,0,0,0-1.967,2.75,5.553,5.553,0,0,0-.561,2.929,7.542,7.542,0,0,0,1.043,3.164,17.666,17.666,0,0,0,2.216,2.908,26.775,26.775,0,0,0,2.587,2.362,30.437,30.437,0,0,0,2.429,1.836c.735.547,1.417.966,1.982,1.315l1.771,1.109.043.023a.871.871,0,0,1-.77,1.554l-2.013-.758c-.645-.24-1.426-.528-2.3-.938s-1.891-.815-2.941-1.415a29.586,29.586,0,0,1-3.389-2.046,21.944,21.944,0,0,1-3.5-3.081,12.93,12.93,0,0,1-2.731-4.782,11.745,11.745,0,0,1-.206-6.1,18.264,18.264,0,0,1,2.264-5.322,30.409,30.409,0,0,1,3.179-4.112,49.385,49.385,0,0,1,6.53-5.818c2.017-1.506,3.764-2.641,5.026-3.416l1.495-.885.583-.321.092-.049a5.785,5.785,0,0,1,5.577,10.138A5.924,5.924,0,0,1,74.325,174.376Z" transform="translate(-18.781 -41.455)" fill="#595959"/>
      <path id="Trazado_150556" data-name="Trazado 150556" d="M39.764,139.426A16.632,16.632,0,1,1,56.4,122.794,16.634,16.634,0,0,1,39.764,139.426Z" transform="translate(-23.13 -50.539)" fill="#a4a5a8"/>
      <path id="Trazado_150557" data-name="Trazado 150557" d="M28.243,121.978a10.706,10.706,0,1,1,10.7,10.7A10.718,10.718,0,0,1,28.243,121.978Z" transform="translate(-22.314 -49.723)" fill="#595959"/>
      <rect id="Rectángulo_36705" data-name="Rectángulo 36705" width="21.736" height="17.371" transform="translate(37.964 120.642) rotate(-35.642)" fill="#f3b50c"/>
      <path id="Trazado_150558" data-name="Trazado 150558" d="M79.157,159.3a12.405,12.405,0,0,0-5.221-1.156,12.537,12.537,0,0,0-12.521,12.523c0,.433.022.859.064,1.279L65.105,177l17.663-12.667Z" transform="translate(-17.017 -42.239)" fill="#f29700"/>
      <path id="Trazado_150559" data-name="Trazado 150559" d="M73.708,181.306a10.868,10.868,0,1,1,10.867-10.868A10.868,10.868,0,0,1,73.708,181.306Z" transform="translate(-16.789 -42.011)" fill="#a4a5a8"/>
      <path id="Trazado_150560" data-name="Trazado 150560" d="M73.1,176.247a6.422,6.422,0,1,1,6.421-6.422A6.422,6.422,0,0,1,73.1,176.247Z" transform="translate(-16.178 -41.399)" fill="#595959"/>
    </g>
  </g>
  <g id="Grupo_94087" data-name="Grupo 94087">
    <path id="Trazado_150561" data-name="Trazado 150561" d="M521.658,30.846l.19-.493V26.746L491.287,14.958,521.848,3.171V0h-7.89L483.232,11.852,452.5,0H439.883L409.157,11.852,378.429,0H365.809L335.081,11.852,304.355,0H291.734L261.008,11.852,230.281,0H217.658L186.933,11.852,156.207,0H143.584L112.858,11.852,82.132,0H69.51L38.784,11.852,8.057,0H0V3.107L30.728,14.958,0,26.811V29.92l.357.925H0v5.8H521.848v-5.8Zm-516,0,33.13-12.779,33.13,12.779ZM46.84,14.958,75.821,3.781,104.8,14.958,75.821,26.138ZM79.728,30.846l33.13-12.779,33.13,12.779Zm41.187-15.887L149.9,3.781l28.98,11.178L149.9,26.138ZM153.8,30.846l33.132-12.779,33.13,12.779Zm41.188-15.887L223.97,3.781l28.98,11.178L223.97,26.138Zm32.887,15.887,33.132-12.779,33.132,12.779Zm41.188-15.887L298.045,3.781l28.981,11.178L298.045,26.138Zm32.887,15.887,33.13-12.779,33.133,12.779Zm41.187-15.887L372.12,3.781,401.1,14.958,372.12,26.138Zm32.888,15.887,33.132-12.779,33.132,12.779Zm41.187-15.887L446.194,3.781l28.981,11.178L446.194,26.138ZM450.1,30.846l33.132-12.779,33.132,12.779Z" fill="#b5b5b5"/>
    <g id="Grupo_94086" data-name="Grupo 94086" transform="translate(0 36.644)">
      <rect id="Rectángulo_36706" data-name="Rectángulo 36706" width="104.37" height="15.423" transform="translate(208.739)" fill="#929292"/>
      <path id="Trazado_150562" data-name="Trazado 150562" d="M208.739,56.645a5.8,5.8,0,0,1-5.8,5.8H0V31.6H208.739Z" transform="translate(0 -31.599)" fill="#17c878"/>
      <g id="Grupo_94085" data-name="Grupo 94085" transform="translate(313.109 0)">
        <path id="Trazado_150563" data-name="Trazado 150563" d="M270,56.645a5.8,5.8,0,0,0,5.8,5.8H478.739V31.6H270Z" transform="translate(-270 -31.599)" fill="#17c878"/>
        <rect id="Rectángulo_36707" data-name="Rectángulo 36707" width="198.307" height="7.711" transform="translate(10.432 9.382)" fill="#0a9b56"/>
      </g>
    </g>
  </g>
  <g id="Grupo_94094" data-name="Grupo 94094" transform="translate(390.515 39.392)">
    <g id="Grupo_94092" data-name="Grupo 94092" transform="translate(0 28.096)">
      <path id="Trazado_150564" data-name="Trazado 150564" d="M349.83,185.03v.092H359.4V181.1h-3.95V164.955h21.546V181.1h-3.963v4.022h9.564l4.769-30.537H345.073Z" transform="translate(-335.42 -42.807)" fill="#929292"/>
      <g id="Grupo_94090" data-name="Grupo 94090">
        <path id="Trazado_150565" data-name="Trazado 150565" d="M350.453,136.988l4.538,4.275v17.321h20.816V141.263l4.536-4.275v-7.455h-29.89Z" transform="translate(-334.561 -46.807)" fill="#ffc402"/>
        <rect id="Rectángulo_36708" data-name="Rectángulo 36708" width="29.808" height="51.998" transform="translate(15.892 30.727)" fill="#fef301"/>
        <path id="Trazado_150566" data-name="Trazado 150566" d="M336.749,73.559l15.892,15.364h29.808l15.894-15.364V58.2H336.749Z" transform="translate(-336.749 -58.197)" fill="#ffc402"/>
        <path id="Trazado_150567" data-name="Trazado 150567" d="M364.735,142.979a13.429,13.429,0,0,0-10.369,4.888v8.57h20.816v-8.469A13.434,13.434,0,0,0,364.735,142.979Z" transform="translate(-333.936 -44.66)" fill="#f29700"/>
        <path id="Trazado_150568" data-name="Trazado 150568" d="M380.917,80.581H351.109a4.768,4.768,0,0,0,0,9.536h29.808a4.768,4.768,0,1,0,0-9.536Z" transform="translate(-335.217 -54.623)" fill="#595959"/>
        <g id="Grupo_94088" data-name="Grupo 94088" transform="translate(10.255 22.868)">
          <rect id="Rectángulo_36709" data-name="Rectángulo 36709" width="29.808" height="3.09" transform="translate(5.637 12.626)" fill="#f4c401"/>
          <path id="Trazado_150569" data-name="Trazado 150569" d="M351.229,77.916a7.818,7.818,0,0,0-5.637,2.409l2.217,2.141a4.732,4.732,0,0,1,3.42-1.459h29.808a4.75,4.75,0,0,1,3.424,1.459l2.214-2.142a7.818,7.818,0,0,0-5.638-2.407Z" transform="translate(-345.592 -77.916)" fill="#f29700"/>
        </g>
        <path id="Trazado_150570" data-name="Trazado 150570" d="M380.917,125.421H351.109a4.768,4.768,0,0,0,0,9.536h29.808a4.768,4.768,0,1,0,0-9.536Z" transform="translate(-335.217 -47.464)" fill="#595959"/>
        <g id="Grupo_94089" data-name="Grupo 94089" transform="translate(15.892 74.867)">
          <rect id="Rectángulo_36710" data-name="Rectángulo 36710" width="29.808" height="3.09" transform="translate(0)" fill="#f4c401"/>
          <path id="Trazado_150571" data-name="Trazado 150571" d="M350.453,133.645v2.687l.429.4h29.029l.431-.4v-2.7c-.029,0-.052.008-.081.008Z" transform="translate(-350.453 -121.019)" fill="#f29700"/>
        </g>
        <path id="Trazado_150572" data-name="Trazado 150572" d="M364.735,145.642a10.37,10.37,0,1,0,10.371,10.37A10.369,10.369,0,0,0,364.735,145.642Z" transform="translate(-333.936 -44.235)" fill="#e0e0e0"/>
        <path id="Trazado_150573" data-name="Trazado 150573" d="M364.3,148.381a7.193,7.193,0,1,0,7.19,7.193A7.2,7.2,0,0,0,364.3,148.381Z" transform="translate(-333.499 -43.798)" fill="#595959"/>
      </g>
      <g id="Grupo_94091" data-name="Grupo 94091" transform="translate(14.22 131.967)">
        <path id="Trazado_150574" data-name="Trazado 150574" d="M378.233,196.042l-2.213-1.482a9.894,9.894,0,0,1-3.938-7.366l-.1-9.714H359.194l-.1,9.714a9.9,9.9,0,0,1-3.936,7.366l-2.217,1.482a9.9,9.9,0,0,0-3.932,7.365v45.441a4.736,4.736,0,0,0,4.734,4.733h23.69a4.736,4.736,0,0,0,4.736-4.733V203.407A9.9,9.9,0,0,0,378.233,196.042Z" transform="translate(-349.011 -171.119)" fill="#17c878"/>
        <path id="Trazado_150575" data-name="Trazado 150575" d="M362.881,184.435a1.648,1.648,0,0,0-1.651,1.648,12.3,12.3,0,0,1-5.035,9.425l-2.215,1.481a7.5,7.5,0,0,0-2.834,5.308v45.441a1.65,1.65,0,0,0,3.3,0V202.3a4.53,4.53,0,0,1,1.37-2.565l2.217-1.48a15.439,15.439,0,0,0,6.5-12.168A1.649,1.649,0,0,0,362.881,184.435Z" transform="translate(-348.67 -170.008)" fill="#25e589"/>
        <path id="Rectángulo_36711" data-name="Rectángulo 36711" d="M2.083,0H15.535a2.081,2.081,0,0,1,2.081,2.081v2.2a2.083,2.083,0,0,1-2.083,2.083H2.083A2.083,2.083,0,0,1,0,4.276V2.083A2.083,2.083,0,0,1,2.083,0Z" transform="translate(7.77)" fill="#25e589"/>
      </g>
    </g>
    <g id="Grupo_94093" data-name="Grupo 94093" transform="translate(2.701)">
      <circle id="Elipse_5308" data-name="Elipse 5308" cx="21.463" cy="21.463" r="21.463" transform="matrix(0.387, -0.922, 0.922, 0.387, 0, 39.58)" fill="#b5b5b5"/>
      <path id="Trazado_150576" data-name="Trazado 150576" d="M364.766,49.06a10.6,10.6,0,1,0,10.6,10.6A10.61,10.61,0,0,0,364.766,49.06Z" transform="translate(-336.669 -31.559)" fill="#dadada"/>
      <path id="Trazado_150577" data-name="Trazado 150577" d="M364.055,53.512a5.432,5.432,0,1,0,5.431,5.433A5.44,5.44,0,0,0,364.055,53.512Z" transform="translate(-335.958 -30.848)" fill="#595959"/>
    </g>
  </g>
</svg>
