<svg xmlns="http://www.w3.org/2000/svg" xmlns:xlink="http://www.w3.org/1999/xlink" width="355.014" height="226" viewBox="0 0 355.014 226">
  <defs>
    <linearGradient id="linear-gradient" x1="0.348" y1="1.158" x2="0.705" y2="-0.046" gradientUnits="objectBoundingBox">
      <stop offset="0" stop-color="#dafedf"/>
      <stop offset="1" stop-color="#e9fdeb"/>
    </linearGradient>
    <linearGradient id="linear-gradient-2" x1="0.266" y1="0.887" x2="0.896" y2="-0.138" gradientUnits="objectBoundingBox">
      <stop offset="0" stop-color="#375ed5"/>
      <stop offset="1" stop-color="#8149ef"/>
    </linearGradient>
    <linearGradient id="linear-gradient-3" x1="0.438" y1="1.81" x2="0.601" y2="-1.656" gradientUnits="objectBoundingBox">
      <stop offset="0" stop-color="#7cd4ff"/>
      <stop offset="1" stop-color="#9895f8"/>
    </linearGradient>
    <linearGradient id="linear-gradient-4" x1="0.439" y1="1.783" x2="0.601" y2="-1.604" xlink:href="#linear-gradient-3"/>
    <linearGradient id="linear-gradient-5" x1="0.439" y1="1.808" x2="0.599" y2="-1.653" xlink:href="#linear-gradient-3"/>
    <linearGradient id="linear-gradient-6" x1="0.44" y1="1.786" x2="0.599" y2="-1.606" xlink:href="#linear-gradient-3"/>
    <linearGradient id="linear-gradient-7" x1="0.439" y1="1.708" x2="0.6" y2="-1.486" xlink:href="#linear-gradient-3"/>
    <linearGradient id="linear-gradient-8" x1="0.439" y1="1.687" x2="0.6" y2="-1.445" xlink:href="#linear-gradient-3"/>
    <linearGradient id="linear-gradient-9" x1="0.44" y1="1.707" x2="0.598" y2="-1.485" xlink:href="#linear-gradient-3"/>
    <linearGradient id="linear-gradient-10" x1="0.44" y1="1.688" x2="0.599" y2="-1.443" xlink:href="#linear-gradient-3"/>
    <linearGradient id="linear-gradient-11" x1="0.44" y1="1.619" x2="0.599" y2="-1.338" xlink:href="#linear-gradient-3"/>
    <linearGradient id="linear-gradient-12" x1="0.625" y1="-0.461" x2="0.78" y2="-1.63" gradientUnits="objectBoundingBox">
      <stop offset="0" stop-color="#40e299"/>
      <stop offset="1" stop-color="#4fffaf"/>
    </linearGradient>
    <linearGradient id="linear-gradient-13" x1="0.638" y1="-1.065" x2="0.564" y2="-0.244" xlink:href="#linear-gradient-12"/>
    <linearGradient id="linear-gradient-14" x1="0.497" y1="0.773" x2="0.537" y2="-4.919" xlink:href="#linear-gradient-12"/>
    <linearGradient id="linear-gradient-15" x1="0" y1="0.5" x2="1" y2="0.5" xlink:href="#linear-gradient"/>
    <linearGradient id="linear-gradient-16" x1="0" y1="0.5" x2="1" y2="0.5" xlink:href="#linear-gradient"/>
    <linearGradient id="linear-gradient-18" x1="0" y1="0.5" x2="1" y2="0.5" xlink:href="#linear-gradient"/>
    <linearGradient id="linear-gradient-22" x1="0" y1="0.5" x2="1" y2="0.5" xlink:href="#linear-gradient"/>
    <linearGradient id="linear-gradient-28" x1="0" y1="0.5" x2="1" y2="0.5" xlink:href="#linear-gradient"/>
    <linearGradient id="linear-gradient-29" x1="2.366" y1="-5.21" x2="0.337" y2="0.998" gradientUnits="objectBoundingBox">
      <stop offset="0" stop-color="#febb14"/>
      <stop offset="1" stop-color="#ffda8e"/>
    </linearGradient>
    <linearGradient id="linear-gradient-30" x1="0.6" y1="-0.067" x2="1.171" y2="-2.263" xlink:href="#linear-gradient-29"/>
    <linearGradient id="linear-gradient-31" x1="0.353" y1="0.982" x2="0.51" y2="0.272" xlink:href="#linear-gradient-29"/>
    <linearGradient id="linear-gradient-32" x1="-958.389" y1="-62.449" x2="-960.395" y2="-60.285" gradientUnits="objectBoundingBox">
      <stop offset="0" stop-color="#ff928e"/>
      <stop offset="1" stop-color="#feb3b1"/>
    </linearGradient>
    <linearGradient id="linear-gradient-33" x1="4.122" y1="-2.427" x2="-1.464" y2="2.194" xlink:href="#linear-gradient-32"/>
    <linearGradient id="linear-gradient-34" x1="0.639" y1="-3.999" x2="0.498" y2="0.878" gradientUnits="objectBoundingBox">
      <stop offset="0" stop-color="#09005d"/>
      <stop offset="1" stop-color="#1a0f91"/>
    </linearGradient>
    <linearGradient id="linear-gradient-35" x1="2142.4" y1="156.491" x2="2146.718" y2="149.237" xlink:href="#linear-gradient-32"/>
    <linearGradient id="linear-gradient-36" x1="677.797" y1="0.031" x2="674.9" y2="0.887" xlink:href="#linear-gradient-34"/>
    <linearGradient id="linear-gradient-37" x1="0.86" y1="-5.081" x2="0.511" y2="0.63" xlink:href="#linear-gradient-34"/>
    <linearGradient id="linear-gradient-38" x1="2482.493" y1="118.521" x2="2487.494" y2="112.978" xlink:href="#linear-gradient-32"/>
    <linearGradient id="linear-gradient-39" x1="477.578" y1="-0.035" x2="475.537" y2="0.806" xlink:href="#linear-gradient-34"/>
    <linearGradient id="linear-gradient-40" x1="228.823" y1="0.775" x2="230.435" y2="-0.237" gradientUnits="objectBoundingBox">
      <stop offset="0" stop-color="#ffea62"/>
      <stop offset="1" stop-color="#ffec8e"/>
    </linearGradient>
    <linearGradient id="linear-gradient-41" x1="-319.954" y1="-30.472" x2="-320.627" y2="-29.419" xlink:href="#linear-gradient-32"/>
    <linearGradient id="linear-gradient-42" x1="574.724" y1="1.066" x2="578.773" y2="-1.521" xlink:href="#linear-gradient-40"/>
    <linearGradient id="linear-gradient-43" x1="1.278" y1="-1.103" x2="-0.082" y2="1.942" xlink:href="#linear-gradient-32"/>
    <linearGradient id="linear-gradient-44" x1="-154.437" y1="194.716" x2="-155.365" y2="196.136" xlink:href="#linear-gradient-32"/>
    <linearGradient id="linear-gradient-45" x1="1.211" y1="-0.97" x2="0.986" y2="-0.546" xlink:href="#linear-gradient-34"/>
    <linearGradient id="linear-gradient-46" x1="-504.363" y1="940.572" x2="-507.391" y2="947.453" xlink:href="#linear-gradient-32"/>
    <linearGradient id="linear-gradient-47" x1="1.946" y1="-0.561" x2="1.152" y2="0.012" xlink:href="#linear-gradient-32"/>
    <linearGradient id="linear-gradient-48" x1="4.128" y1="-3.945" x2="2.757" y2="-2.266" xlink:href="#linear-gradient-32"/>
    <linearGradient id="linear-gradient-49" x1="-2850.924" y1="253.133" x2="-2853.64" y2="256.177" xlink:href="#linear-gradient-32"/>
    <linearGradient id="linear-gradient-50" x1="-73.931" y1="-25.362" x2="-73.085" y2="-72.033" xlink:href="#linear-gradient-34"/>
    <linearGradient id="linear-gradient-51" x1="-371.953" y1="-53.648" x2="-372.349" y2="-49.004" xlink:href="#linear-gradient-34"/>
    <linearGradient id="linear-gradient-52" x1="-1421.687" y1="-67.588" x2="-1422.638" y2="-63.446" xlink:href="#linear-gradient-32"/>
    <linearGradient id="linear-gradient-53" x1="-366.266" y1="-300.809" x2="-365.421" y2="-347.48" xlink:href="#linear-gradient-34"/>
    <linearGradient id="linear-gradient-54" x1="-368.757" y1="-52.653" x2="-369.153" y2="-48.045" xlink:href="#linear-gradient-34"/>
    <linearGradient id="linear-gradient-55" x1="-1436.078" y1="-57.117" x2="-1437.044" y2="-53.579" xlink:href="#linear-gradient-32"/>
    <linearGradient id="linear-gradient-56" x1="1.475" y1="-0.209" x2="0.177" y2="0.773" xlink:href="#linear-gradient-34"/>
    <linearGradient id="linear-gradient-57" x1="-3016.393" y1="0.429" x2="-3012.68" y2="-1.257" gradientUnits="objectBoundingBox">
      <stop offset="0" stop-color="#53d8ff"/>
      <stop offset="1" stop-color="#3840f7"/>
    </linearGradient>
    <linearGradient id="linear-gradient-58" x1="-749.803" y1="-23.072" x2="-750.391" y2="-22.452" xlink:href="#linear-gradient-32"/>
    <linearGradient id="linear-gradient-59" x1="1.072" y1="-0.067" x2="-0.913" y2="2.133" xlink:href="#linear-gradient-40"/>
    <linearGradient id="linear-gradient-60" x1="0.654" y1="-1.58" x2="0.577" y2="-0.582" xlink:href="#linear-gradient-32"/>
    <linearGradient id="linear-gradient-61" x1="0.679" y1="-0.2" x2="0.314" y2="2.043" xlink:href="#linear-gradient-32"/>
    <linearGradient id="linear-gradient-62" x1="2.413" y1="0.018" x2="0.896" y2="0.398" xlink:href="#linear-gradient-32"/>
    <linearGradient id="linear-gradient-63" x1="-492.06" y1="-225.367" x2="-490.976" y2="-225.367" xlink:href="#linear-gradient-34"/>
    <linearGradient id="linear-gradient-64" x1="5.959" y1="-1.902" x2="3.298" y2="-0.749" xlink:href="#linear-gradient-32"/>
    <linearGradient id="linear-gradient-65" x1="21.118" y1="-1.394" x2="0.448" y2="0.512" gradientUnits="objectBoundingBox">
      <stop offset="0" stop-color="#f7d724"/>
      <stop offset="1" stop-color="#ffe562"/>
    </linearGradient>
    <linearGradient id="linear-gradient-66" x1="-865.81" y1="0.024" x2="-868.621" y2="1.814" xlink:href="#linear-gradient-34"/>
    <linearGradient id="linear-gradient-67" x1="-4208.875" y1="-1384.85" x2="-4209.804" y2="-1380.535" gradientUnits="objectBoundingBox">
      <stop offset="0" stop-color="#8d55d1"/>
      <stop offset="0.996" stop-color="#1c2873"/>
    </linearGradient>
    <linearGradient id="linear-gradient-68" x1="-1539.033" y1="-50.381" x2="-1540.24" y2="-49.006" xlink:href="#linear-gradient-32"/>
    <linearGradient id="linear-gradient-69" x1="-27.94" y1="1.387" x2="-0.437" y2="0.529" gradientUnits="objectBoundingBox">
      <stop offset="0" stop-color="#005d46"/>
      <stop offset="1" stop-color="#0f916d"/>
    </linearGradient>
    <linearGradient id="linear-gradient-70" x1="-0.365" y1="1.471" x2="0.415" y2="0.595" xlink:href="#linear-gradient-69"/>
    <linearGradient id="linear-gradient-71" x1="0" y1="0.5" x2="1" y2="0.5" xlink:href="#linear-gradient-69"/>
    <linearGradient id="linear-gradient-75" x1="0" y1="0.5" x2="1" y2="0.5" xlink:href="#linear-gradient"/>
    <linearGradient id="linear-gradient-77" x1="0" y1="0.5" x2="1.001" y2="0.5" xlink:href="#linear-gradient"/>
    <linearGradient id="linear-gradient-80" x1="0" y1="0.5" x2="1.001" y2="0.5" xlink:href="#linear-gradient"/>
  </defs>
  <g id="Grupo_92173" data-name="Grupo 92173" transform="translate(-1077.827 -704.418)">
    <path id="Trazado_147337" data-name="Trazado 147337" d="M1421.176,853.43c-5.627-6.123-13.99-9.722-20.088-15.47-9.849-9.283-12.592-23.011-12.2-35.834s3.446-25.526,3.223-38.352-4.392-26.486-15.495-34.545c-11.944-8.671-29.335-8.827-43.831-4.283s-26.929,13.081-39.6,20.874c-6.633,4.079-14.529,8.162-22.261,6.193-7.624-1.943-11.928-8.931-16.158-14.955-4.939-7.033-11.4-13.734-20.18-16.36-17.321-5.181-19.493.751-20.321,5.459-1.241,7.053-3.1,12.154-9.382,14.407s-13.476,1.26-19.81-.88-12.151-5.358-18.4-7.683c-9.994-3.717-21.365-5.055-31.715-2.229S1115.552,740,1112.991,749.45c-4.281,15.8,9.522,32.848,3.084,48.042-4.441,10.481-16.9,16.064-25.259,24.388-16.117,16.043-15.069,42.231-1.648,60.167s36.664,28.36,60.258,32.539,47.9,2.859,71.924,1.84c37.748-1.6,75.557-2.417,113.329-1.393,15.62.424,31.409,1.151,46.741-1.565s30.456-9.33,39.439-20.824S1431.128,864.26,1421.176,853.43Z" fill="url(#linear-gradient)"/>
    <g id="Grupo_92126" data-name="Grupo 92126">
      <g id="Grupo_92100" data-name="Grupo 92100">
        <path id="Trazado_147338" data-name="Trazado 147338" d="M1305.084,739.257a2.963,2.963,0,0,0-3.217-2.884l-82.356,7.134a3,3,0,0,0-2.754,2.952V912.013a2.943,2.943,0,0,0,3.058,2.839h86.239a2.861,2.861,0,0,0,2.962-2.937Z" fill="#91fa9a"/>
        <g id="Grupo_92099" data-name="Grupo 92099" opacity="0.3">
          <path id="Trazado_147339" data-name="Trazado 147339" d="M1233.069,751.673l-6.236.425c-.689.045-.992.682-.992,1.422V904.534c0,.755.053,1.364.75,1.364h6.56a1.327,1.327,0,0,0,1.275-1.371l-.094-151.593A1.209,1.209,0,0,0,1233.069,751.673Z" fill="#fff"/>
          <path id="Trazado_147340" data-name="Trazado 147340" d="M1248.318,750.673l-6.576.431a1.516,1.516,0,0,0-1.37,1.438l.158,151.981a1.422,1.422,0,0,0,1.387,1.375h6.647a1.252,1.252,0,0,0,1.18-1.38l-.254-152.57A1.146,1.146,0,0,0,1248.318,750.673Z" fill="#fff"/>
          <path id="Trazado_147341" data-name="Trazado 147341" d="M1263.766,749.66l-6.662.437a1.287,1.287,0,0,0-1.112,1.43l.323,152.987c0,.765.416,1.384,1.131,1.384h6.734a1.5,1.5,0,0,0,1.474-1.39l-.423-153.583A1.369,1.369,0,0,0,1263.766,749.66Z" fill="#fff"/>
          <path id="Trazado_147342" data-name="Trazado 147342" d="M1279.417,748.634l-6.749.442a1.39,1.39,0,0,0-1.238,1.447l.49,153.982a1.315,1.315,0,0,0,1.26,1.393H1280a1.407,1.407,0,0,0,1.378-1.4l-.591-154.585A1.292,1.292,0,0,0,1279.417,748.634Z" fill="#fff"/>
          <path id="Trazado_147343" data-name="Trazado 147343" d="M1295.275,747.594l-6.839.448a1.5,1.5,0,0,0-1.364,1.464l.66,154.989a1.422,1.422,0,0,0,1.392,1.4h6.915a1.326,1.326,0,0,0,1.28-1.408l-.764-155.6A1.221,1.221,0,0,0,1295.275,747.594Z" fill="#fff"/>
        </g>
      </g>
      <g id="Grupo_92102" data-name="Grupo 92102">
        <path id="Trazado_147344" data-name="Trazado 147344" d="M1164.694,762.464a1.966,1.966,0,0,0-1.909-1.939h-63.109a2.109,2.109,0,0,0-2,2.041V909.851a3.043,3.043,0,0,0,3.042,2.962l63.779-.174a2.978,2.978,0,0,0,2.115-.89,3.044,3.044,0,0,0,.847-2.161Z" fill="#7df494"/>
        <g id="Grupo_92101" data-name="Grupo 92101" opacity="0.5">
          <path id="Trazado_147345" data-name="Trazado 147345" d="M1159.73,766.858h-57.939c-.334,0-.6.418-.6.758l.034,4.364a.648.648,0,0,0,.61.651l57.993.034a.688.688,0,0,0,.706-.6v-4.307C1160.534,767.418,1160.067,766.858,1159.73,766.858Z" fill="#fff"/>
          <path id="Trazado_147346" data-name="Trazado 147346" d="M1159.828,777.821l-57.9-.031a.623.623,0,0,0-.624.614l.022,4.281a.61.61,0,0,0,.6.614l57.907.048a.7.7,0,0,0,.7-.615v-4.294A.7.7,0,0,0,1159.828,777.821Z" fill="#fff"/>
          <path id="Trazado_147347" data-name="Trazado 147347" d="M1159.829,788.471l-57.821-.063a.622.622,0,0,0-.624.612l.022,4.268a.61.61,0,0,0,.6.613l57.825.079a.7.7,0,0,0,.7-.613v-4.281A.7.7,0,0,0,1159.829,788.471Z" fill="#fff"/>
          <path id="Trazado_147348" data-name="Trazado 147348" d="M1159.83,799.089l-57.739-.094a.621.621,0,0,0-.622.61l.021,4.257a.609.609,0,0,0,.6.611l57.742.111a.7.7,0,0,0,.7-.611V799.7A.7.7,0,0,0,1159.83,799.089Z" fill="#fff"/>
          <path id="Trazado_147349" data-name="Trazado 147349" d="M1159.831,809.678l-57.657-.126a.62.62,0,0,0-.621.608l.021,4.245a.608.608,0,0,0,.6.61l57.66.141a.692.692,0,0,0,.7-.609V810.29A.7.7,0,0,0,1159.831,809.678Z" fill="#fff"/>
          <path id="Trazado_147350" data-name="Trazado 147350" d="M1159.832,820.236l-57.575-.156a.618.618,0,0,0-.621.606l.022,4.232a.608.608,0,0,0,.6.609l57.577.172a.692.692,0,0,0,.7-.607v-4.245A.7.7,0,0,0,1159.832,820.236Z" fill="#fff"/>
          <path id="Trazado_147351" data-name="Trazado 147351" d="M1159.833,830.764l-57.493-.187a.615.615,0,0,0-.62.6l.021,4.22a.606.606,0,0,0,.6.607l57.5.2a.688.688,0,0,0,.7-.6v-4.233A.7.7,0,0,0,1159.833,830.764Z" fill="#fff"/>
          <path id="Trazado_147352" data-name="Trazado 147352" d="M1159.834,841.262l-57.412-.217a.614.614,0,0,0-.619.6l.022,4.209a.6.6,0,0,0,.6.605l57.415.234a.689.689,0,0,0,.7-.6V841.87A.7.7,0,0,0,1159.834,841.262Z" fill="#fff"/>
          <path id="Trazado_147353" data-name="Trazado 147353" d="M1159.835,851.73l-57.33-.248a.614.614,0,0,0-.619.6l.022,4.2a.6.6,0,0,0,.6.6l57.333.264a.688.688,0,0,0,.7-.6v-4.209A.7.7,0,0,0,1159.835,851.73Z" fill="#fff"/>
          <path id="Trazado_147354" data-name="Trazado 147354" d="M1159.835,861.4l-57.254-.276a.61.61,0,0,0-.618.6l.021,4.186a.6.6,0,0,0,.6.6l57.259.292a.686.686,0,0,0,.7-.6V862A.7.7,0,0,0,1159.835,861.4Z" fill="#fff"/>
          <path id="Trazado_147355" data-name="Trazado 147355" d="M1159.836,871.808l-57.174-.307a.61.61,0,0,0-.616.6l.021,4.174a.6.6,0,0,0,.595.6l57.178.321a.683.683,0,0,0,.694-.6v-4.186A.7.7,0,0,0,1159.836,871.808Z" fill="#fff"/>
          <path id="Trazado_147356" data-name="Trazado 147356" d="M1159.837,882.189l-57.093-.336a.608.608,0,0,0-.616.594l.021,4.162a.6.6,0,0,0,.595.6l57.1.352a.683.683,0,0,0,.694-.595v-4.174A.7.7,0,0,0,1159.837,882.189Z" fill="#fff"/>
          <path id="Trazado_147357" data-name="Trazado 147357" d="M1159.838,892.541l-57.013-.366a.607.607,0,0,0-.615.592l.021,4.15a.6.6,0,0,0,.594.6l57.016.382a.681.681,0,0,0,.693-.593v-4.162A.694.694,0,0,0,1159.838,892.541Z" fill="#fff"/>
        </g>
      </g>
      <g id="Grupo_92116" data-name="Grupo 92116">
        <path id="Trazado_147358" data-name="Trazado 147358" d="M1406.631,763.5a3.019,3.019,0,0,0-2.962-2.973h-61.022a3.16,3.16,0,0,0-3.058,3.094V909.851a3.043,3.043,0,0,0,3.042,2.962l63.779-.174a2.976,2.976,0,0,0,2.115-.89,3.045,3.045,0,0,0,.848-2.161Z" fill="#7df494"/>
        <g id="Grupo_92115" data-name="Grupo 92115" opacity="0.5">
          <g id="Grupo_92103" data-name="Grupo 92103">
            <path id="Trazado_147359" data-name="Trazado 147359" d="M1360.109,766.156h-15.767c-.469,0-.528,1-.528,1.5v2.854c0,.5.059.909.528.909h15.767a.932.932,0,0,0,.909-.909V767.66C1361.018,767.159,1360.577,766.156,1360.109,766.156Z" fill="#fff"/>
            <path id="Trazado_147360" data-name="Trazado 147360" d="M1381.212,766.156h-15.767c-.469,0-.565,1-.565,1.5v2.854c0,.5.1.909.565.909h15.767c.469,0,.522-.408.522-.909V767.66C1381.734,767.159,1381.681,766.156,1381.212,766.156Z" fill="#fff"/>
            <path id="Trazado_147361" data-name="Trazado 147361" d="M1402.316,766.156h-15.767c-.469,0-.953,1-.953,1.5v2.854a.971.971,0,0,0,.953.909h15.767c.469,0,1.187-.408,1.187-.909V767.66C1403.5,767.159,1402.785,766.156,1402.316,766.156Z" fill="#fff"/>
          </g>
          <g id="Grupo_92104" data-name="Grupo 92104">
            <path id="Trazado_147362" data-name="Trazado 147362" d="M1360.109,778.445h-15.767c-.469,0-.528,0-.528.5V781.8c0,.5.059,1.209.528,1.209h15.767c.468,0,.909-.708.909-1.209v-2.854C1361.018,778.444,1360.577,778.445,1360.109,778.445Z" fill="#fff"/>
            <path id="Trazado_147363" data-name="Trazado 147363" d="M1381.212,778.445h-15.767c-.469,0-.565,0-.565.5V781.8c0,.5.1,1.209.565,1.209h15.767c.469,0,.522-.708.522-1.209v-2.854C1381.734,778.444,1381.681,778.445,1381.212,778.445Z" fill="#fff"/>
            <path id="Trazado_147364" data-name="Trazado 147364" d="M1402.316,778.445h-15.767c-.469,0-.953,0-.953.5V781.8c0,.5.484,1.209.953,1.209h15.767a1.524,1.524,0,0,0,1.187-1.209v-2.854C1403.5,778.444,1402.785,778.445,1402.316,778.445Z" fill="#fff"/>
          </g>
          <g id="Grupo_92105" data-name="Grupo 92105">
            <path id="Trazado_147365" data-name="Trazado 147365" d="M1360.109,789.329h-15.767c-.469,0-.528.4-.528.9v2.854c0,.5.059.808.528.808h15.767a.848.848,0,0,0,.909-.808v-2.854A.926.926,0,0,0,1360.109,789.329Z" fill="#fff"/>
            <path id="Trazado_147366" data-name="Trazado 147366" d="M1381.212,789.329h-15.767c-.469,0-.565.4-.565.9v2.854c0,.5.1.808.565.808h15.767c.469,0,.522-.307.522-.808v-2.854C1381.734,789.73,1381.681,789.329,1381.212,789.329Z" fill="#fff"/>
            <path id="Trazado_147367" data-name="Trazado 147367" d="M1402.316,789.329h-15.767a.965.965,0,0,0-.953.9v2.854a.887.887,0,0,0,.953.808h15.767c.469,0,1.187-.307,1.187-.808v-2.854C1403.5,789.73,1402.785,789.329,1402.316,789.329Z" fill="#fff"/>
          </g>
          <g id="Grupo_92106" data-name="Grupo 92106">
            <path id="Trazado_147368" data-name="Trazado 147368" d="M1360.109,800.916h-15.767c-.469,0-.528.1-.528.6v2.854c0,.5.059,1.108.528,1.108h15.767c.468,0,.909-.607.909-1.108v-2.854C1361.018,801.016,1360.577,800.916,1360.109,800.916Z" fill="#fff"/>
            <path id="Trazado_147369" data-name="Trazado 147369" d="M1381.212,800.916h-15.767c-.469,0-.565.1-.565.6v2.854c0,.5.1,1.108.565,1.108h15.767c.469,0,.522-.607.522-1.108v-2.854C1381.734,801.016,1381.681,800.916,1381.212,800.916Z" fill="#fff"/>
            <path id="Trazado_147370" data-name="Trazado 147370" d="M1402.316,800.916h-15.767c-.469,0-.953.1-.953.6v2.854a1.17,1.17,0,0,0,.953,1.108h15.767a1.409,1.409,0,0,0,1.187-1.108v-2.854C1403.5,801.016,1402.785,800.916,1402.316,800.916Z" fill="#fff"/>
          </g>
          <g id="Grupo_92107" data-name="Grupo 92107">
            <path id="Trazado_147371" data-name="Trazado 147371" d="M1360.109,811.449h-15.767c-.469,0-.528.853-.528,1.355v2.853c0,.5.059.708.528.708h15.767c.468,0,.909-.206.909-.708V812.8C1361.018,812.3,1360.577,811.449,1360.109,811.449Z" fill="#fff"/>
            <path id="Trazado_147372" data-name="Trazado 147372" d="M1381.212,811.449h-15.767c-.469,0-.565.853-.565,1.355v2.853c0,.5.1.708.565.708h15.767c.469,0,.522-.206.522-.708V812.8C1381.734,812.3,1381.681,811.449,1381.212,811.449Z" fill="#fff"/>
            <path id="Trazado_147373" data-name="Trazado 147373" d="M1402.316,811.449h-15.767c-.469,0-.953.853-.953,1.355v2.853c0,.5.484.708.953.708h15.767c.469,0,1.187-.206,1.187-.708V812.8C1403.5,812.3,1402.785,811.449,1402.316,811.449Z" fill="#fff"/>
          </g>
          <g id="Grupo_92108" data-name="Grupo 92108">
            <path id="Trazado_147374" data-name="Trazado 147374" d="M1360.109,823.036h-15.767c-.469,0-.528.552-.528,1.053v2.854c0,.5.059.657.528.657h15.767c.468,0,.909-.155.909-.657v-2.854A1.073,1.073,0,0,0,1360.109,823.036Z" fill="#fff"/>
            <path id="Trazado_147375" data-name="Trazado 147375" d="M1381.212,823.036h-15.767c-.469,0-.565.552-.565,1.053v2.854c0,.5.1.657.565.657h15.767c.469,0,.522-.155.522-.657v-2.854C1381.734,823.588,1381.681,823.036,1381.212,823.036Z" fill="#fff"/>
            <path id="Trazado_147376" data-name="Trazado 147376" d="M1402.316,823.036h-15.767a1.111,1.111,0,0,0-.953,1.053v2.854c0,.5.484.657.953.657h15.767c.469,0,1.187-.155,1.187-.657v-2.854C1403.5,823.588,1402.785,823.036,1402.316,823.036Z" fill="#fff"/>
          </g>
          <g id="Grupo_92109" data-name="Grupo 92109">
            <path id="Trazado_147377" data-name="Trazado 147377" d="M1360.109,833.92h-15.767c-.469,0-.528.954-.528,1.455v2.854c0,.5.059.958.528.958h15.767a.977.977,0,0,0,.909-.958v-2.854C1361.018,834.874,1360.577,833.92,1360.109,833.92Z" fill="#fff"/>
            <path id="Trazado_147378" data-name="Trazado 147378" d="M1381.212,833.92h-15.767c-.469,0-.565.954-.565,1.455v2.854c0,.5.1.958.565.958h15.767c.469,0,.522-.456.522-.958v-2.854C1381.734,834.874,1381.681,833.92,1381.212,833.92Z" fill="#fff"/>
            <path id="Trazado_147379" data-name="Trazado 147379" d="M1402.316,833.92h-15.767c-.469,0-.953.954-.953,1.455v2.854a1.015,1.015,0,0,0,.953.958h15.767c.469,0,1.187-.456,1.187-.958v-2.854C1403.5,834.874,1402.785,833.92,1402.316,833.92Z" fill="#fff"/>
          </g>
          <g id="Grupo_92110" data-name="Grupo 92110">
            <path id="Trazado_147380" data-name="Trazado 147380" d="M1360.109,845.507h-15.767c-.469,0-.528.653-.528,1.154v2.854c0,.5.059,1.259.528,1.259h15.767c.468,0,.909-.757.909-1.259v-2.854C1361.018,846.16,1360.577,845.507,1360.109,845.507Z" fill="#fff"/>
            <path id="Trazado_147381" data-name="Trazado 147381" d="M1381.212,845.507h-15.767c-.469,0-.565.653-.565,1.154v2.854c0,.5.1,1.259.565,1.259h15.767c.469,0,.522-.757.522-1.259v-2.854C1381.734,846.16,1381.681,845.507,1381.212,845.507Z" fill="#fff"/>
            <path id="Trazado_147382" data-name="Trazado 147382" d="M1402.316,845.507h-15.767c-.469,0-.953.653-.953,1.154v2.854c0,.5.484,1.259.953,1.259h15.767a1.584,1.584,0,0,0,1.187-1.259v-2.854A1.46,1.46,0,0,0,1402.316,845.507Z" fill="#fff"/>
          </g>
          <g id="Grupo_92111" data-name="Grupo 92111">
            <path id="Trazado_147383" data-name="Trazado 147383" d="M1360.109,856.742h-15.767c-.469,0-.528.7-.528,1.205V860.8c0,.5.059.857.528.857h15.767a.887.887,0,0,0,.909-.857v-2.854C1361.018,857.446,1360.577,856.742,1360.109,856.742Z" fill="#fff"/>
            <path id="Trazado_147384" data-name="Trazado 147384" d="M1381.212,856.742h-15.767c-.469,0-.565.7-.565,1.205V860.8c0,.5.1.857.565.857h15.767c.469,0,.522-.356.522-.857v-2.854C1381.734,857.446,1381.681,856.742,1381.212,856.742Z" fill="#fff"/>
            <path id="Trazado_147385" data-name="Trazado 147385" d="M1402.316,856.742h-15.767c-.469,0-.953.7-.953,1.205V860.8a.927.927,0,0,0,.953.857h15.767c.469,0,1.187-.356,1.187-.857v-2.854A1.519,1.519,0,0,0,1402.316,856.742Z" fill="#fff"/>
          </g>
          <g id="Grupo_92112" data-name="Grupo 92112">
            <path id="Trazado_147386" data-name="Trazado 147386" d="M1360.109,868.329h-15.767c-.469,0-.528.4-.528.9v2.854c0,.5.059,1.158.528,1.158h15.767c.468,0,.909-.657.909-1.158v-2.854A.927.927,0,0,0,1360.109,868.329Z" fill="#fff"/>
            <path id="Trazado_147387" data-name="Trazado 147387" d="M1381.212,868.329h-15.767c-.469,0-.565.4-.565.9v2.854c0,.5.1,1.158.565,1.158h15.767c.469,0,.522-.657.522-1.158v-2.854C1381.734,868.731,1381.681,868.329,1381.212,868.329Z" fill="#fff"/>
            <path id="Trazado_147388" data-name="Trazado 147388" d="M1402.316,868.329h-15.767a.966.966,0,0,0-.953.9v2.854c0,.5.484,1.158.953,1.158h15.767a1.465,1.465,0,0,0,1.187-1.158v-2.854C1403.5,868.731,1402.785,868.329,1402.316,868.329Z" fill="#fff"/>
          </g>
          <g id="Grupo_92113" data-name="Grupo 92113">
            <path id="Trazado_147389" data-name="Trazado 147389" d="M1360.109,879.916h-15.767c-.469,0-.528.1-.528.6v2.854c0,.5.059.756.528.756h15.767a.809.809,0,0,0,.909-.756v-2.854C1361.018,880.017,1360.577,879.916,1360.109,879.916Z" fill="#fff"/>
            <path id="Trazado_147390" data-name="Trazado 147390" d="M1381.212,879.916h-15.767c-.469,0-.565.1-.565.6v2.854c0,.5.1.756.565.756h15.767c.469,0,.522-.255.522-.756v-2.854C1381.734,880.017,1381.681,879.916,1381.212,879.916Z" fill="#fff"/>
            <path id="Trazado_147391" data-name="Trazado 147391" d="M1402.316,879.916h-15.767c-.469,0-.953.1-.953.6v2.854c0,.5.484.756.953.756h15.767c.469,0,1.187-.255,1.187-.756v-2.854C1403.5,880.017,1402.785,879.916,1402.316,879.916Z" fill="#fff"/>
          </g>
          <g id="Grupo_92114" data-name="Grupo 92114">
            <path id="Trazado_147392" data-name="Trazado 147392" d="M1360.109,890.8h-15.767c-.469,0-.528.5-.528,1.005v2.853c0,.5.059.707.528.707h15.767c.468,0,.909-.205.909-.707V891.8A1.023,1.023,0,0,0,1360.109,890.8Z" fill="#fff"/>
            <path id="Trazado_147393" data-name="Trazado 147393" d="M1381.212,890.8h-15.767c-.469,0-.565.5-.565,1.005v2.853c0,.5.1.707.565.707h15.767c.469,0,.522-.205.522-.707V891.8C1381.734,891.3,1381.681,890.8,1381.212,890.8Z" fill="#fff"/>
            <path id="Trazado_147394" data-name="Trazado 147394" d="M1402.316,890.8h-15.767a1.061,1.061,0,0,0-.953,1.005v2.853c0,.5.484.707.953.707h15.767c.469,0,1.187-.205,1.187-.707V891.8C1403.5,891.3,1402.785,890.8,1402.316,890.8Z" fill="#fff"/>
          </g>
        </g>
      </g>
      <g id="Grupo_92123" data-name="Grupo 92123">
        <path id="Trazado_147395" data-name="Trazado 147395" d="M1222.212,784.159a2.962,2.962,0,0,0-3.081-2.919l-60.676,2.432a1.909,1.909,0,0,0-1.832,1.953l3.08,129.711,61.352-.749a2.964,2.964,0,0,0,2.926-3Z" fill="#7df494"/>
        <g id="Grupo_92122" data-name="Grupo 92122" opacity="0.5">
          <g id="Grupo_92117" data-name="Grupo 92117">
            <path id="Trazado_147396" data-name="Trazado 147396" d="M1173.346,807.918l-9.764-.072-.115-16.761h9.785Z" fill="#fff"/>
            <path id="Trazado_147397" data-name="Trazado 147397" d="M1187.361,807.887l-9.727-.072-.084-16.73h9.749Z" fill="#fff"/>
            <path id="Trazado_147398" data-name="Trazado 147398" d="M1202.1,807.854l-9.689-.072-.052-16.7h9.71Z" fill="#fff"/>
            <path id="Trazado_147399" data-name="Trazado 147399" d="M1216.712,808.009l-9.812-.165-.18-16.759h9.992Z" fill="#fff"/>
          </g>
          <g id="Grupo_92118" data-name="Grupo 92118">
            <path id="Trazado_147400" data-name="Trazado 147400" d="M1173.479,831.759l-9.733.052-.115-16.565,9.755-.031Z" fill="#fff"/>
            <path id="Trazado_147401" data-name="Trazado 147401" d="M1187.451,831.685l-9.7.052-.084-16.534,9.719-.031Z" fill="#fff"/>
            <path id="Trazado_147402" data-name="Trazado 147402" d="M1202.143,831.606l-9.659.052-.052-16.5,9.68-.031Z" fill="#fff"/>
            <path id="Trazado_147403" data-name="Trazado 147403" d="M1216.712,831.53l-9.782.052.059-16.47,9.723-.03Z" fill="#fff"/>
          </g>
          <g id="Grupo_92119" data-name="Grupo 92119">
            <path id="Trazado_147404" data-name="Trazado 147404" d="M1173.616,856.05l-9.7.083-.114-16.459,9.723-.062Z" fill="#fff"/>
            <path id="Trazado_147405" data-name="Trazado 147405" d="M1187.543,855.93l-9.666.083-.083-16.429,9.687-.062Z" fill="#fff"/>
            <path id="Trazado_147406" data-name="Trazado 147406" d="M1202.188,855.8l-9.628.083-.052-16.4,9.649-.062Z" fill="#fff"/>
            <path id="Trazado_147407" data-name="Trazado 147407" d="M1216.712,855.683l-9.751.082.059-16.366,9.692-.061Z" fill="#fff"/>
          </g>
          <g id="Grupo_92120" data-name="Grupo 92120">
            <path id="Trazado_147408" data-name="Trazado 147408" d="M1173.75,879.8l-9.672.114-.11-15.966,9.692-.093Z" fill="#fff"/>
            <path id="Trazado_147409" data-name="Trazado 147409" d="M1187.634,879.635l-9.636.113-.081-15.936,9.656-.093Z" fill="#fff"/>
            <path id="Trazado_147410" data-name="Trazado 147410" d="M1202.233,879.463l-9.6.113-.05-15.906,9.619-.093Z" fill="#fff"/>
            <path id="Trazado_147411" data-name="Trazado 147411" d="M1216.712,879.3l-9.721.112.059-15.876,9.662-.092Z" fill="#fff"/>
          </g>
          <g id="Grupo_92121" data-name="Grupo 92121">
            <path id="Trazado_147412" data-name="Trazado 147412" d="M1173.885,903.783l-9.641.144-.11-15.864,9.661-.124Z" fill="#fff"/>
            <path id="Trazado_147413" data-name="Trazado 147413" d="M1187.725,903.576l-9.605.143-.08-15.835,9.625-.123Z" fill="#fff"/>
            <path id="Trazado_147414" data-name="Trazado 147414" d="M1202.278,903.359l-9.568.143-.05-15.8,9.588-.123Z" fill="#fff"/>
            <path id="Trazado_147415" data-name="Trazado 147415" d="M1216.712,903.148l-9.691.142.06-15.776,9.631-.122Z" fill="#fff"/>
          </g>
        </g>
      </g>
      <g id="Grupo_92125" data-name="Grupo 92125">
        <path id="Trazado_147416" data-name="Trazado 147416" d="M1357.924,803.674a2.963,2.963,0,0,0-3.057-2.909l-64.147,2.05a2.963,2.963,0,0,0-2.867,3.049l3.166,106.237a2.961,2.961,0,0,0,2.989,2.874l62.858-.611a2.962,2.962,0,0,0,2.933-3.014Z" fill="url(#linear-gradient-2)"/>
        <g id="Grupo_92124" data-name="Grupo 92124">
          <path id="Trazado_147417" data-name="Trazado 147417" d="M1351.232,808.64h-57.124a.956.956,0,0,0-.995.938l.054,5.045a1.156,1.156,0,0,0,1.021,1.13l57.286.06a1.108,1.108,0,0,0,.988-1.142l-.174-5.083A1.024,1.024,0,0,0,1351.232,808.64Z" fill="url(#linear-gradient-3)"/>
          <path id="Trazado_147418" data-name="Trazado 147418" d="M1351.6,819.618l-57.372-.095a1.059,1.059,0,0,0-1,1.063l.055,5.1a1.068,1.068,0,0,0,1.024,1.041l57.536.159a1.019,1.019,0,0,0,1-1.045l-.176-5.143A1.14,1.14,0,0,0,1351.6,819.618Z" fill="url(#linear-gradient-4)"/>
          <path id="Trazado_147419" data-name="Trazado 147419" d="M1351.989,831.107l-57.631-.2c-.561,0-1.012.257-1.006.793l.055,5.141a.989.989,0,0,0,1.028.948l57.788.257a.941.941,0,0,0,1-.947l-.177-5.189C1353.032,831.373,1352.56,831.109,1351.989,831.107Z" fill="url(#linear-gradient-5)"/>
          <path id="Trazado_147420" data-name="Trazado 147420" d="M1352.367,842.312l-57.885-.295a.925.925,0,0,0-1.009.9l.056,5.186c.006.543.466.849,1.031.853l58.043.357c.575,0,1.03-.3,1.011-.848l-.178-5.234A1,1,0,0,0,1352.367,842.312Z" fill="url(#linear-gradient-6)"/>
          <path id="Trazado_147421" data-name="Trazado 147421" d="M1352.748,853.615l-58.14-.4a1.013,1.013,0,0,0-1.013,1.014l.056,5.232a1.168,1.168,0,0,0,1.039,1.146l58.309.463a1.1,1.1,0,0,0,1.006-1.14l-.18-5.282A1.1,1.1,0,0,0,1352.748,853.615Z" fill="url(#linear-gradient-7)"/>
          <path id="Trazado_147422" data-name="Trazado 147422" d="M1353.132,865.018l-58.4-.5a1.113,1.113,0,0,0-1.016,1.129l.057,5.278a1.077,1.077,0,0,0,1.043,1.051l58.568.566a1.011,1.011,0,0,0,1.014-1.041l-.182-5.328A1.217,1.217,0,0,0,1353.132,865.018Z" fill="url(#linear-gradient-8)"/>
          <path id="Trazado_147423" data-name="Trazado 147423" d="M1353.533,876.921l-58.667-.606c-.57-.006-1.029.294-1.023.849l.057,5.326a1,1,0,0,0,1.046.954l58.829.671a.932.932,0,0,0,1.023-.939l-.184-5.376A.97.97,0,0,0,1353.533,876.921Z" fill="url(#linear-gradient-9)"/>
          <path id="Trazado_147424" data-name="Trazado 147424" d="M1353.924,888.531l-58.929-.712a.968.968,0,0,0-1.027.963l.058,5.373c.006.563.475.848,1.05.856l59.093.778c.585.008,1.05-.267,1.03-.835l-.185-5.425A1.066,1.066,0,0,0,1353.924,888.531Z" fill="url(#linear-gradient-10)"/>
          <path id="Trazado_147425" data-name="Trazado 147425" d="M1354.319,900.245l-59.194-.82a1.062,1.062,0,0,0-1.03,1.08l.058,5.421a1.178,1.178,0,0,0,1.058,1.159l59.368.892a1.089,1.089,0,0,0,1.025-1.139l-.186-5.474A1.177,1.177,0,0,0,1354.319,900.245Z" fill="url(#linear-gradient-11)"/>
        </g>
      </g>
    </g>
    <g id="Grupo_92130" data-name="Grupo 92130">
      <g id="Grupo_92127" data-name="Grupo 92127">
        <path id="Trazado_147426" data-name="Trazado 147426" d="M1191.878,847.913s1.138-29.834-12.494-38.019-39.7-13.553-40.061-56.42c-.214-25.1-.677-36.075-1.025-40.863a2.826,2.826,0,0,1,3.38-2.978c12.983,2.639,55.13,13.34,63.583,42.333C1215.282,786.338,1191.878,847.913,1191.878,847.913Z" fill="#bdfbc3"/>
        <path id="Trazado_147427" data-name="Trazado 147427" d="M1151.339,721.947c1.937,1.859,3.761,3.813,5.552,5.8.888,1,1.781,2,2.64,3.023l1.3,1.529,1.268,1.555q5.051,6.242,9.573,12.89c1.469,2.238,2.97,4.457,4.341,6.758l1.05,1.712.524.857.5.871,1.994,3.487.5.873.47.888.94,1.775.939,1.776.47.888c.152.3.294.6.442.9l1.755,3.615.439.9c.072.151.148.3.218.453l.2.462.808,1.846c.28.612.515,1.241.765,1.865s.5,1.247.738,1.875l.68,1.9.339.949.309.958.618,1.918.561,1.934.279.968c.09.323.169.649.254.974l.5,1.95a112.855,112.855,0,0,1,2.65,15.868c.257,2.67.437,5.347.517,8.027s.1,5.362.016,8.041-.249,5.356-.5,8.024-.582,5.324-1.08,7.976a.353.353,0,0,1-.694-.124v-.01c.224-1.3.4-2.624.549-3.943s.286-2.646.39-3.972q.321-3.98.39-7.974a129.7,129.7,0,0,0-.65-15.939c-.074-.66-.13-1.323-.219-1.982l-.252-1.978c-.086-.659-.2-1.315-.292-1.972l-.146-.986c-.051-.328-.112-.655-.168-.983l-.341-1.964-.391-1.954c-.066-.325-.127-.652-.2-.977l-.221-.971c-.15-.647-.292-1.3-.447-1.942l-.5-1.929c-.084-.321-.162-.644-.252-.964l-.277-.957-.556-1.912-.613-1.9-.306-.947-.336-.937-.673-1.874c-.235-.621-.487-1.235-.73-1.852s-.481-1.238-.757-1.841l-.8-1.823-.2-.456c-.068-.151-.143-.3-.214-.451l-.431-.9-1.723-3.6c-.145-.3-.284-.6-.433-.9l-.462-.886-.924-1.77-.924-1.771-.462-.885-.489-.871-1.963-3.48-.492-.869-.517-.855-1.034-1.709c-.692-1.138-1.367-2.287-2.1-3.4l-2.159-3.363c-2.952-4.436-6.066-8.767-9.365-12.954a147.8,147.8,0,0,0-10.465-12.079l-.005-.005a.2.2,0,0,1,.282-.285Z" fill="#91fa9a"/>
      </g>
      <g id="Grupo_92128" data-name="Grupo 92128">
        <path id="Trazado_147428" data-name="Trazado 147428" d="M1166.476,915.185c1.868,1.439-14.288-30.277-12.366-74.536.905-20.856,6.013-46.179-3.512-58.275-7.927-10.068-41.565-11.573-52.626-11.8a1.632,1.632,0,0,0-1.313,2.647c4.241,5.336,13.12,17.693,13.894,28.484,1.02,14.223,12.074,25.386,23.057,30.033s16.9,8.192,18.753,27.646S1161.171,911.1,1166.476,915.185Z" fill="#91fa9a"/>
        <path id="Trazado_147429" data-name="Trazado 147429" d="M1111.8,779.372s.327.071.921.23,1.467.4,2.557.771,2.4.846,3.88,1.468a53.083,53.083,0,0,1,10.279,5.707,44.79,44.79,0,0,1,5.488,4.583,39.665,39.665,0,0,1,4.915,5.889,36.277,36.277,0,0,1,3.692,7.026l.353.936.176.468.149.476c.195.638.4,1.268.576,1.913q.492,1.889.98,3.756t.965,3.7c.308,1.222.583,2.442.869,3.635s.561,2.369.832,3.518.5,2.283.737,3.381.463,2.169.683,3.2.4,2.042.587,3,.361,1.887.529,2.766c.15.881.292,1.718.426,2.5.274,1.57.484,2.945.656,4.077s.284,2.026.369,2.634l.115.936a.3.3,0,0,1-.6.092l0-.008-.166-.919c-.116-.6-.285-1.48-.5-2.6s-.485-2.479-.823-4.032c-.166-.777-.341-1.6-.527-2.475s-.4-1.785-.61-2.74-.438-1.947-.669-2.976-.492-2.086-.749-3.177c-.5-2.184-1.078-4.474-1.671-6.842-.3-1.185-.587-2.39-.91-3.608s-.647-2.45-.976-3.693-.659-2.5-.992-3.753c-.169-.609-.371-1.218-.551-1.829l-.141-.458-.166-.449-.334-.9a36.877,36.877,0,0,0-8.171-12.507,45.987,45.987,0,0,0-5.233-4.579,52.187,52.187,0,0,0-5.224-3.44c-1.684-.965-3.266-1.789-4.7-2.457s-2.708-1.2-3.769-1.6-1.9-.7-2.482-.885-.888-.272-.888-.272a.244.244,0,0,1,.116-.473Z" fill="#7df494"/>
      </g>
      <g id="Grupo_92129" data-name="Grupo 92129">
        <path id="Trazado_147430" data-name="Trazado 147430" d="M1164.078,920.834c1.256.663-7.075-13.677-7.714-26.31s-3.489-34.194-14.383-47.092-22.824-14.075-37.857-2.349c-12.527,9.771-20.341,14.7-24.924,15.619a1.731,1.731,0,0,0-1.161,2.525c2.939,5.412,11.249,17.846,25.2,16.97,17.8-1.116,39.367-12.686,45.941-3.034s5.73,15.052,5.932,19.626S1155.766,916.452,1164.078,920.834Z" fill="#bdfbc3"/>
        <path id="Trazado_147431" data-name="Trazado 147431" d="M1109.319,860.732a38.851,38.851,0,0,1,3.14-2.515c1.085-.788,2.2-1.535,3.358-2.22a40.1,40.1,0,0,1,3.561-1.893,29.093,29.093,0,0,1,3.769-1.468,22.847,22.847,0,0,1,3.967-.862,16.77,16.77,0,0,1,4.079-.015l.508.075a5.09,5.09,0,0,1,.505.088c.333.078.672.143,1,.232s.65.185.972.285l.963.316a26.463,26.463,0,0,1,3.721,1.614,23.464,23.464,0,0,1,6.389,4.959,29.354,29.354,0,0,1,4.5,6.7c.6,1.207,1.125,2.444,1.609,3.7s.9,2.531,1.278,3.816a74.479,74.479,0,0,1,1.793,7.827.123.123,0,0,1-.241.046c-.543-2.612-1.174-5.205-1.969-7.746-.211-.631-.406-1.267-.636-1.891-.113-.313-.218-.629-.337-.939l-.358-.93c-.494-1.233-1.032-2.447-1.636-3.628a29.98,29.98,0,0,0-4.472-6.52,22.824,22.824,0,0,0-6.233-4.793,25.738,25.738,0,0,0-3.631-1.556l-.942-.3c-.316-.1-.635-.183-.952-.274s-.634-.15-.951-.227a4.821,4.821,0,0,0-.48-.086l-.483-.074a18.71,18.71,0,0,0-7.771.8,35.238,35.238,0,0,0-7.261,3.183,48.59,48.59,0,0,0-6.585,4.487l0,0a.127.127,0,0,1-.165-.194Z" fill="#91fa9a"/>
      </g>
    </g>
    <g id="Grupo_92134" data-name="Grupo 92134">
      <path id="Trazado_147432" data-name="Trazado 147432" d="M1364.251,795.781l-2.484,105.169,0,.095-.383,16.187a3.882,3.882,0,0,1-3.868,3.869H1148.4a3.883,3.883,0,0,1-3.868-3.869l-.235-16.187v-.095l-1.5-103.886a6.738,6.738,0,0,1,7.093-5.963l129.037-3.339,75.329-1.949a9.752,9.752,0,0,1,10,9.968Z" fill="url(#linear-gradient-12)"/>
      <path id="Trazado_147433" data-name="Trazado 147433" d="M1356.267,913.946a3.656,3.656,0,0,1-3.684,3.605h-199.2a3.656,3.656,0,0,1-3.684-3.605L1148.041,801.8a6.369,6.369,0,0,1,6.755-5.563l194.681-4.935a9.4,9.4,0,0,1,6.8,2.652A8.987,8.987,0,0,1,1359,800.6Z" fill="url(#linear-gradient-13)"/>
      <g id="Grupo_92131" data-name="Grupo 92131">
        <path id="Trazado_147434" data-name="Trazado 147434" d="M1255.372,844.356c-.065,1.847-1.327,3.381-2.82,3.387l-88.794.418a3.344,3.344,0,0,1-3.026-3.6h0a3.418,3.418,0,0,1,3.074-3.62h88.976c1.5,0,2.655,1.565,2.59,3.414Z" fill="#4b9259"/>
        <path id="Trazado_147435" data-name="Trazado 147435" d="M1212.21,858.551a2.8,2.8,0,0,1-2.635,2.825l-45.527.55a2.741,2.741,0,0,1-2.7-2.845V858.9a2.862,2.862,0,0,1,2.746-2.907l45.609-.394a2.6,2.6,0,0,1,2.514,2.777Z" fill="#4b9259"/>
        <path id="Trazado_147436" data-name="Trazado 147436" d="M1211.9,872.189a2.813,2.813,0,0,1-2.624,2.822l-45.336.915a2.7,2.7,0,0,1-2.692-2.8v-.178a2.872,2.872,0,0,1,2.735-2.9l45.416-.762a2.554,2.554,0,0,1,2.5,2.732Z" fill="#4b9259"/>
      </g>
      <path id="Trazado_147437" data-name="Trazado 147437" d="M1361.767,900.982l-.387,16.217a3.821,3.821,0,0,1-3.868,3.8H1148.4a3.822,3.822,0,0,1-3.868-3.8l-.235-16.217Z" fill="url(#linear-gradient-14)"/>
      <path id="Trazado_147438" data-name="Trazado 147438" d="M1148.245,843.213a.164.164,0,0,1-.163-.164v-40.07a7.331,7.331,0,0,1,7.138-7.494h17.6a.164.164,0,1,1,0,.328h-17.6a7,7,0,0,0-6.811,7.166v40.07A.164.164,0,0,1,1148.245,843.213Z" fill="#91fa9a"/>
      <g id="Grupo_92132" data-name="Grupo 92132" opacity="0.14">
        <path id="Trazado_147439" data-name="Trazado 147439" d="M1364.251,795.781l-2.484,105.138,0,.063H1315c0-35.813-6.267-61.066-13.579-78.831a125.583,125.583,0,0,0-7.037-14.479,90.934,90.934,0,0,0-10.284-14.719,41.95,41.95,0,0,0-5.19-5.192h.013l75.329-1.948a9.752,9.752,0,0,1,10,9.969Z" fill="#fff"/>
      </g>
      <path id="Trazado_147440" data-name="Trazado 147440" d="M1327.917,808.061l-161.99-1.813c-5.281-.059-9.247,3.894-8.8,8.785.445,4.841,5.048,8.683,10.224,8.626l159.376-1.754c3.246-.036,6.132-3.1,6.479-6.872C1333.558,811.231,1331.2,808.1,1327.917,808.061Z" fill="#58985e"/>
      <g id="Grupo_92133" data-name="Grupo 92133">
        <path id="Trazado_147441" data-name="Trazado 147441" d="M1277.759,881.1a7.546,7.546,0,1,1,7.546-7.547A7.555,7.555,0,0,1,1277.759,881.1Zm0-14.074a6.527,6.527,0,1,0,6.527,6.527A6.534,6.534,0,0,0,1277.759,867.031Z" fill="url(#linear-gradient-15)"/>
        <path id="Trazado_147442" data-name="Trazado 147442" d="M1277.573,877.46a3.538,3.538,0,1,1,3.537-3.538A3.542,3.542,0,0,1,1277.573,877.46Zm0-6.055a2.517,2.517,0,1,0,2.518,2.517A2.52,2.52,0,0,0,1277.573,871.405Z" fill="url(#linear-gradient-16)"/>
        <path id="Trazado_147443" data-name="Trazado 147443" d="M1334.3,881.1a7.546,7.546,0,1,1,7.547-7.547A7.555,7.555,0,0,1,1334.3,881.1Zm0-14.074a6.527,6.527,0,1,0,6.527,6.527A6.534,6.534,0,0,0,1334.3,867.031Z" fill="url(#linear-gradient-15)"/>
        <path id="Trazado_147444" data-name="Trazado 147444" d="M1334.114,877.46a3.538,3.538,0,1,1,3.538-3.538A3.542,3.542,0,0,1,1334.114,877.46Zm0-6.055a2.517,2.517,0,1,0,2.518,2.517A2.52,2.52,0,0,0,1334.114,871.405Z" fill="url(#linear-gradient-18)"/>
        <path id="Trazado_147445" data-name="Trazado 147445" d="M1286.139,875.364a.51.51,0,0,1-.009-1.02l40.036-.712h.009a.51.51,0,0,1,.009,1.02l-40.036.712Z" fill="url(#linear-gradient-15)"/>
        <path id="Trazado_147446" data-name="Trazado 147446" d="M1269.674,876.8H1267.8a2.981,2.981,0,0,1-2.975-2.691l-2.173-21.644a10.51,10.51,0,0,1,9.571-11.52c12.151-1.029,35.652-2.566,56.524-1.3a10.841,10.841,0,0,1,10.041,9.321c.21,1.524.418,3.037.591,4.317a3.944,3.944,0,0,0,3.006,3.3c.566.13,1.116.264,1.635.4a7.72,7.72,0,0,1,5.757,7.135l.234,6.092a3.875,3.875,0,0,1-3.872,4.023h-2.993a.51.51,0,0,1,0-1.02h2.993a2.855,2.855,0,0,0,2.853-2.964l-.234-6.092a6.692,6.692,0,0,0-4.992-6.186c-.51-.132-1.052-.263-1.61-.391a4.971,4.971,0,0,1-3.788-4.16c-.173-1.278-.38-2.79-.59-4.313a9.818,9.818,0,0,0-9.093-8.443c-20.808-1.266-44.253.267-56.376,1.294a9.489,9.489,0,0,0-8.643,10.4l2.173,21.644a1.964,1.964,0,0,0,1.961,1.773h1.874a.51.51,0,0,1,0,1.02Z" fill="url(#linear-gradient-15)"/>
        <path id="Trazado_147447" data-name="Trazado 147447" d="M1269.119,857.965a3.053,3.053,0,0,1-3.173-2.361,18.322,18.322,0,0,1,.168-6.522c.521-2.434,3.054-4.222,6.024-4.252l37.687-.379h.036a2.8,2.8,0,0,1,2.955,2.353l.558,7.491a2.523,2.523,0,0,1-.686,1.9,3.548,3.548,0,0,1-2.575,1.094l-40.93.678Zm.056-.51h0Zm40.685-11.985h-.025l-37.687.379c-2.5.026-4.615,1.475-5.037,3.446a17.306,17.306,0,0,0-.156,6.161,2.087,2.087,0,0,0,2.211,1.489h0l40.93-.677a2.537,2.537,0,0,0,1.84-.762,1.512,1.512,0,0,0,.421-1.136l-.558-7.491A1.817,1.817,0,0,0,1309.86,845.47Z" fill="url(#linear-gradient-15)"/>
        <path id="Trazado_147448" data-name="Trazado 147448" d="M1266.5,862.058a.51.51,0,0,1-.019-1.019l48.026-1.845a.509.509,0,1,1,.039,1.018l-48.026,1.845Z" fill="url(#linear-gradient-22)"/>
        <path id="Trazado_147449" data-name="Trazado 147449" d="M1265.964,864.352a.51.51,0,0,1-.018-1.019l48.559-1.683a.51.51,0,1,1,.036,1.019l-48.559,1.683Z" fill="url(#linear-gradient-15)"/>
        <path id="Trazado_147450" data-name="Trazado 147450" d="M1317.877,874.456a.508.508,0,0,1-.505-.453l-2.934-26.1a3.074,3.074,0,0,1,2.981-3.509l6.67-.135h.079a3.874,3.874,0,0,1,3.856,3.561l1.826,20.616a.51.51,0,0,1-1.016.09l-1.825-20.621a2.857,2.857,0,0,0-2.842-2.627h-.058l-6.67.134a2.054,2.054,0,0,0-1.991,2.351l0,.017,2.935,26.11a.51.51,0,0,1-.45.564A.548.548,0,0,1,1317.877,874.456Z" fill="url(#linear-gradient-15)"/>
        <path id="Trazado_147451" data-name="Trazado 147451" d="M1320.726,872.985a1.564,1.564,0,0,1-1.554-1.379l-2.775-23.222a1.565,1.565,0,0,1,1.509-1.75l.881-.024a1.568,1.568,0,0,1,1.6,1.42h0l2.143,23.246a1.565,1.565,0,0,1-1.551,1.708h-.254Zm-1.9-25.356h-.015l-.88.024a.542.542,0,0,0-.4.189.536.536,0,0,0-.129.421l2.775,23.222a.547.547,0,0,0,.542.481h.249a.545.545,0,0,0,.541-.6l-2.143-23.245A.546.546,0,0,0,1318.83,847.629Z" fill="url(#linear-gradient-15)"/>
        <path id="Trazado_147452" data-name="Trazado 147452" d="M1325.1,872.8a1.557,1.557,0,0,1-1.559-1.422c-.275-3.027-1.671-18.361-2.065-22.947a1.564,1.564,0,0,1,1.748-1.686l1.564.191a1.572,1.572,0,0,1,1.375,1.518l.5,22.747a1.564,1.564,0,0,1-1.564,1.6Zm-2.066-25.047a.544.544,0,0,0-.542.591h0c.394,4.583,1.789,19.915,2.065,22.941a.545.545,0,0,0,1.088-.061l-.5-22.747a.548.548,0,0,0-.479-.529l-1.564-.191A.494.494,0,0,0,1323.031,847.75Z" fill="url(#linear-gradient-15)"/>
        <path id="Trazado_147453" data-name="Trazado 147453" d="M1333.212,857.422a3.3,3.3,0,0,1-3.254-2.748l-1.007-5.874a3.046,3.046,0,0,1,2.849-3.557l5.315-.277a.51.51,0,1,1,.053,1.019l-5.316.276a2.028,2.028,0,0,0-1.9,2.367l1.007,5.874a2.28,2.28,0,0,0,2.394,1.895l7.087-.44a.51.51,0,1,1,.064,1.017l-7.088.441C1333.35,857.419,1333.281,857.422,1333.212,857.422Z" fill="url(#linear-gradient-15)"/>
        <path id="Trazado_147454" data-name="Trazado 147454" d="M1346.639,868.235c-1.1,0-1.922-1.547-1.922-3.6s.826-3.6,1.922-3.6,1.921,1.547,1.921,3.6S1347.734,868.235,1346.639,868.235Zm0-6.177c-.319,0-.9.979-.9,2.579s.584,2.579.9,2.579.9-.979.9-2.579S1346.957,862.058,1346.639,862.058Z" fill="url(#linear-gradient-28)"/>
      </g>
      <path id="Trazado_147455" data-name="Trazado 147455" d="M1352.464,917.648H1330.12a.164.164,0,0,1,0-.327h22.344a5.5,5.5,0,0,0,5.582-5.255V843.751a.164.164,0,0,1,.327,0v68.315A5.83,5.83,0,0,1,1352.464,917.648Z" fill="#91fa9a"/>
    </g>
    <g id="Grupo_92138" data-name="Grupo 92138">
      <g id="Grupo_92135" data-name="Grupo 92135">
        <path id="Trazado_147456" data-name="Trazado 147456" d="M1394.536,919.224a2.583,2.583,0,0,1-4.234.674,78.742,78.742,0,0,1-19.8-64.656c4.014-29.22,3.414-45.446,2.631-52.794a1.62,1.62,0,0,1,2.8-1.264C1387.583,813.891,1422.191,858.808,1394.536,919.224Z" fill="#91fa9a"/>
        <path id="Trazado_147457" data-name="Trazado 147457" d="M1391.714,918.736a.329.329,0,0,1-.312-.227,240.611,240.611,0,0,1-6.377-26.454c-2.694-14.42-5.494-36.086-3.539-57.41a.327.327,0,1,1,.651.06c-1.947,21.249.846,42.85,3.531,57.23a239.86,239.86,0,0,0,6.357,26.373.327.327,0,0,1-.211.412A.315.315,0,0,1,1391.714,918.736Z" fill="#7df494"/>
      </g>
      <g id="Grupo_92137" data-name="Grupo 92137">
        <path id="Trazado_147458" data-name="Trazado 147458" d="M1394.89,921.728c12.508-4.626,46.416-23.3,25.391-85.593a1.815,1.815,0,0,0-3.5.227c-1.662,8.586-4.882,23.42-10.711,30.912-18.06,23.211-17.814,42.826-16.522,51.3A4,4,0,0,0,1394.89,921.728Z" fill="#bdfbc3"/>
        <g id="Grupo_92136" data-name="Grupo 92136" opacity="0.5">
          <path id="Trazado_147459" data-name="Trazado 147459" d="M1392.58,921.077a.722.722,0,0,1-.531-1.209,102.72,102.72,0,0,0,23.006-42.253,92.259,92.259,0,0,0,3.434-20.941.721.721,0,0,1,1.442.014,93.966,93.966,0,0,1-3.485,21.307,104.18,104.18,0,0,1-23.336,42.849A.72.72,0,0,1,1392.58,921.077Z" fill="#91fa9a"/>
        </g>
      </g>
    </g>
    <g id="Grupo_92140" data-name="Grupo 92140">
      <circle id="Elipse_5185" data-name="Elipse 5185" cx="7.989" cy="7.989" r="7.989" transform="translate(1382.968 834.446) rotate(-76.718)" fill="url(#linear-gradient-29)"/>
      <g id="Grupo_92139" data-name="Grupo 92139">
        <path id="Trazado_147460" data-name="Trazado 147460" d="M1432.841,740.294c0,15.2-22.887,53.962-34.809,73.084-.925,1.484-2.918,2.385-6.608,2.385-1.749,0-1.061-.905-1.986-2.389-11.923-19.124-34.807-57.887-34.807-73.08,0-19.814,17.508-35.876,39.1-35.876S1432.841,720.48,1432.841,740.294Z" fill="url(#linear-gradient-30)"/>
        <path id="Trazado_147461" data-name="Trazado 147461" d="M1430.528,740.294c0,15.2-22.886,53.961-34.808,73.084a5.062,5.062,0,0,1-8.595,0c-11.923-19.124-34.806-57.887-34.806-73.08,0-19.814,17.508-35.876,39.1-35.876S1430.528,720.48,1430.528,740.294Z" fill="url(#linear-gradient-31)"/>
        <circle id="Elipse_5186" data-name="Elipse 5186" cx="23.867" cy="23.867" r="23.867" transform="translate(1366.911 764.095) rotate(-86.018)" fill="#fff" opacity="0.36"/>
        <circle id="Elipse_5187" data-name="Elipse 5187" cx="17.353" cy="17.353" r="17.353" transform="translate(1365.925 744.014) rotate(-55.368)" fill="#fff" opacity="0.36"/>
        <path id="Trazado_147462" data-name="Trazado 147462" d="M1391.424,772.022a28.85,28.85,0,0,1-28.817-28.817.327.327,0,0,1,.655,0,28.158,28.158,0,1,0,5.574-16.822.327.327,0,1,1-.525-.391,29.073,29.073,0,0,1,9.978-8.443,28.506,28.506,0,0,1,13.135-3.161,28.817,28.817,0,0,1,0,57.634Z" fill="#fff" opacity="0.36"/>
      </g>
    </g>
    <g id="Grupo_92145" data-name="Grupo 92145">
      <g id="Grupo_92141" data-name="Grupo 92141">
        <path id="Trazado_147463" data-name="Trazado 147463" d="M1198.742,846.444c.075.236-.784.594-1.289-.369-.018-.462-.3-2.44-.023-2.816a36.851,36.851,0,0,1,4.32-4.516.678.678,0,0,1,.084.942l-1.382,1.44a6.7,6.7,0,0,1,.807,1.6,1.935,1.935,0,0,1-.193,1.425c-.243.437-.574,1.005-.887,1.45A1.911,1.911,0,0,1,1198.742,846.444Z" fill="url(#linear-gradient-32)"/>
        <path id="Trazado_147464" data-name="Trazado 147464" d="M1199.847,842.059l-1.259,1.068-.4,1.063,1.123,1.246a14.483,14.483,0,0,1,.659-2.566C1200.254,842.414,1200.109,842.193,1199.847,842.059Z" fill="url(#linear-gradient-33)"/>
      </g>
      <g id="Grupo_92144" data-name="Grupo 92144">
        <path id="Trazado_147465" data-name="Trazado 147465" d="M1174,925.084s-.318,1.8-.474,3.585A1.228,1.228,0,0,0,1174.7,930c2.375.1,7.455.292,9.278.21a.4.4,0,0,0,.352-.547h0a.894.894,0,0,0-.458-.483l-8.391-3.856Z" fill="url(#linear-gradient-34)"/>
        <path id="Trazado_147466" data-name="Trazado 147466" d="M1173.739,924.026l.255,2.155a2.674,2.674,0,0,0,2.474-.087l-.609-2.4Z" fill="url(#linear-gradient-35)"/>
        <path id="Trazado_147467" data-name="Trazado 147467" d="M1173.931,883.513c-.111.563-.593,28.082,2.349,40.414a.419.419,0,0,1-.246.487,7.283,7.283,0,0,1-2.4.487.721.721,0,0,1-.715-.517c-.841-2.862-4.87-17.2-5.4-30.892-.587-15.3,0-.521,0-.521l.345-9.459Z" fill="url(#linear-gradient-36)"/>
        <path id="Trazado_147468" data-name="Trazado 147468" d="M1164.347,926.024a12.948,12.948,0,0,0-1,3.326.749.749,0,0,0,.659.9c.784.077,1.992.176,2.959.17a.749.749,0,0,0,.74-.834,6.3,6.3,0,0,0-1.472-3.457Z" fill="url(#linear-gradient-37)"/>
        <path id="Trazado_147469" data-name="Trazado 147469" d="M1163.9,923.252l.6,3.259a2.1,2.1,0,0,0,1.759.121l-.285-3.506Z" fill="url(#linear-gradient-38)"/>
        <path id="Trazado_147470" data-name="Trazado 147470" d="M1162.288,884.358c-2.406,14.519.522,35.885,1.509,40.067a.655.655,0,0,0,.527.5,4.375,4.375,0,0,0,1.881-.076.6.6,0,0,0,.43-.55c.133-3.381-.106-24.137,2.136-32.34a1.855,1.855,0,0,1,.719-1.027l4.351-3.094.333-5Z" fill="url(#linear-gradient-39)"/>
        <g id="Grupo_92142" data-name="Grupo 92142">
          <path id="Trazado_147471" data-name="Trazado 147471" d="M1177.618,856.846a67.783,67.783,0,0,0-15.165,1.893c-2.149,12.54-.376,27-.376,27,5.582,1.464,11.878-.895,11.878-.895.928-5.241,5.256-19.992,5.256-19.992a23.763,23.763,0,0,0,8.815-2.8,15.459,15.459,0,0,1-3.056-6.391A24.184,24.184,0,0,1,1177.618,856.846Z" fill="url(#linear-gradient-40)"/>
          <path id="Trazado_147472" data-name="Trazado 147472" d="M1198.914,846.227a1.378,1.378,0,0,0-1.6-.451c-1.061,4.482-6.624,8.115-12.34,9.892a15.459,15.459,0,0,0,3.056,6.391C1197.511,856.726,1198.914,846.227,1198.914,846.227Z" fill="url(#linear-gradient-41)"/>
        </g>
        <path id="Trazado_147473" data-name="Trazado 147473" d="M1165.218,865.721l-2.765-6.982s-6.735,4.576-7.842,10.378a15.91,15.91,0,0,1,5.854,1.569C1160.963,867.946,1165.218,865.721,1165.218,865.721Z" fill="url(#linear-gradient-42)"/>
        <path id="Trazado_147474" data-name="Trazado 147474" d="M1170.315,850.993l-2.294,6.634a.239.239,0,0,0,.109.288,5.392,5.392,0,0,0,5.593-.376,1.125,1.125,0,0,0,.518-.8l.743-5.742Z" fill="url(#linear-gradient-43)"/>
        <g id="Grupo_92143" data-name="Grupo 92143">
          <path id="Trazado_147475" data-name="Trazado 147475" d="M1175.306,844.85s2.519,4.742,2.2,6.657-3.445,1.778-6.172.222l-1.905-5.12Z" fill="url(#linear-gradient-44)"/>
          <path id="Trazado_147476" data-name="Trazado 147476" d="M1171.452,849.215a.2.2,0,0,0,.085-.286,5.121,5.121,0,0,1-.7-1.488s-.452-.29,1.153-.675,4-.98,4.5-2.347c.491-1.332-.8-4.683-2.855-2.013a.2.2,0,0,1-.31,0,2.015,2.015,0,0,0-2.454-.8,1.848,1.848,0,0,0-1.266,1.786.193.193,0,0,1-.23.2,2.255,2.255,0,0,0-2.632,1.227,1.813,1.813,0,0,0,.13,2.176.2.2,0,0,1-.083.324,1.173,1.173,0,0,0-.828,1.338c.069,1.239,1.455,1.13,1.849,1.074a.2.2,0,0,1,.174.061,6.662,6.662,0,0,0,3.512,2.156.2.2,0,0,0,.207-.261l-.714-2.075a.2.2,0,0,1,.106-.243Z" fill="url(#linear-gradient-45)"/>
          <path id="Trazado_147477" data-name="Trazado 147477" d="M1171.739,849.509s-1.794-1.23-1.925-.194,1.615,1.5,2.48,1.115Z" fill="url(#linear-gradient-46)"/>
        </g>
        <path id="Trazado_147478" data-name="Trazado 147478" d="M1160.465,870.686s-2.354,10.618-.221,16.588c-2.614,1.212-2.131.984-2.131.984s-5.172-15.109-3.5-19.141C1157.9,868.767,1159.535,869.652,1160.465,870.686Z" fill="url(#linear-gradient-47)"/>
        <path id="Trazado_147479" data-name="Trazado 147479" d="M1160.244,887.274s1.347,1.744,1.239,2.438-.134.977-.134.977-.676-.463-.634-1.054c.094,1.877.723,4.012.151,3.909s-3.529-2.829-2.86-5.735C1159.523,886.754,1159.949,886.869,1160.244,887.274Z" fill="url(#linear-gradient-48)"/>
      </g>
    </g>
    <g id="Grupo_92153" data-name="Grupo 92153">
      <path id="Trazado_147480" data-name="Trazado 147480" d="M1350.292,849.914a3.355,3.355,0,0,0,.416-1.52c-.05-.679.372-1.674-.077-1.6s-.543.014-.665.828S1348.746,851.435,1350.292,849.914Z" fill="url(#linear-gradient-49)"/>
      <g id="Grupo_92146" data-name="Grupo 92146">
        <path id="Trazado_147481" data-name="Trazado 147481" d="M1372.007,927.365a8.858,8.858,0,0,1-2.923-.418c0,.163,0,.329.005.5a.324.324,0,0,0,.309.329l8.993-.058a.411.411,0,0,0,.33-.6C1377.542,927.218,1374.539,927.436,1372.007,927.365Z" fill="url(#linear-gradient-50)"/>
        <path id="Trazado_147482" data-name="Trazado 147482" d="M1369.468,923.917a1.649,1.649,0,0,1,1.64-1.2l.751.023a11.461,11.461,0,0,1,6.814,4.278.4.4,0,0,1,.036.068c-1.179.1-4.182.315-6.714.245a8.855,8.855,0,0,1-2.923-.418A11.259,11.259,0,0,1,1369.468,923.917Z" fill="url(#linear-gradient-51)"/>
      </g>
      <path id="Trazado_147483" data-name="Trazado 147483" d="M1373.122,920.157l-.628,3.024a.5.5,0,0,1-.422.407,4.247,4.247,0,0,1-.974-.016.621.621,0,0,1-.492-.73l.437-2.685Z" fill="url(#linear-gradient-52)"/>
      <g id="Grupo_92147" data-name="Grupo 92147">
        <path id="Trazado_147484" data-name="Trazado 147484" d="M1360.108,927.365a8.858,8.858,0,0,0,2.923-.418c0,.163,0,.329-.005.5a.324.324,0,0,1-.309.329l-8.993-.058a.411.411,0,0,1-.33-.6C1354.573,927.218,1357.576,927.436,1360.108,927.365Z" fill="url(#linear-gradient-53)"/>
        <path id="Trazado_147485" data-name="Trazado 147485" d="M1353.394,927.121a.436.436,0,0,1,.035-.068,11.46,11.46,0,0,1,6.815-4.278l1.917-.061a9.2,9.2,0,0,1,.87,4.233,8.858,8.858,0,0,1-2.923.418C1357.576,927.436,1354.573,927.218,1353.394,927.121Z" fill="url(#linear-gradient-54)"/>
      </g>
      <path id="Trazado_147486" data-name="Trazado 147486" d="M1362.517,919.808c-.022.143-.284,2.316-.386,3.158a.417.417,0,0,1-.352.377,4.386,4.386,0,0,1-1.317-.021.566.566,0,0,1-.43-.569v-3.41Z" fill="url(#linear-gradient-55)"/>
      <path id="Trazado_147487" data-name="Trazado 147487" d="M1364.055,880.164a170.715,170.715,0,0,0-4.541,39.7.855.855,0,0,0,.679.834,9.989,9.989,0,0,0,2.144.248.8.8,0,0,0,.757-.663c.648-3.8,4.37-25.227,6.49-28.706,0,0,1.4,19.082.95,28.981a.468.468,0,0,0,.413.488,7.844,7.844,0,0,0,1.722-.005.627.627,0,0,0,.559-.533c.462-3.218,3.121-22.376,3.008-36.177-.007-.778-2.058-4.162-2.058-4.162Z" fill="url(#linear-gradient-56)"/>
      <path id="Trazado_147488" data-name="Trazado 147488" d="M1378.472,864.877a19.45,19.45,0,0,0,.8-7.636l-.347.039a19.043,19.043,0,0,1-.777,7.478Z" fill="url(#linear-gradient-57)"/>
      <g id="Grupo_92148" data-name="Grupo 92148">
        <path id="Trazado_147489" data-name="Trazado 147489" d="M1346.246,866.316c-1.038-5.646.452-14.952.452-14.952l2.029,2.1s.342,7.6,1.787,10.741A7.022,7.022,0,0,0,1346.246,866.316Z" fill="url(#linear-gradient-58)"/>
        <path id="Trazado_147490" data-name="Trazado 147490" d="M1350.514,864.207a2.587,2.587,0,0,0,.94,1.224c1.3.716,3.834-3.37,5.72-6.911,1.356-2.546,2.38-4.809,2.38-4.809,1.356-1.532,4.715-1.742,7.84-1.547a47.748,47.748,0,0,1,6.464.89l.013,0c1.5.2,2.8.362,3.737.482a4.484,4.484,0,0,1,2.827,1.519c2.871,3.322,9.172,12.42,1.755,21.587a13.808,13.808,0,0,1-3.213-2.349c.82-2.314.887-5.269-.831-8.895-.059.289-.133.573-.22.853a52.673,52.673,0,0,0-2.491,15.2.473.473,0,0,1-.3.444c-3.118,1.25-9.124.506-11.138.206a.678.678,0,0,1-.568-.77c.6-4.355-1.04-10.417-2.719-15.167-9.856,9.766-13.376,6.079-14.465.154A7.022,7.022,0,0,1,1350.514,864.207Z" fill="url(#linear-gradient-59)"/>
      </g>
      <path id="Trazado_147491" data-name="Trazado 147491" d="M1373.468,880.6a12.56,12.56,0,0,0,5.509-6.3,13.817,13.817,0,0,0,3.214,2.35,26.673,26.673,0,0,1-5.874,5.223h0c-.09,1.954-1.592,2.677-1.935,3.31s.144.488-.073,1.284-2.495-1.266-3.037-1.736-.217-1.772-.217-1.772a7.648,7.648,0,0,0-.181-.814C1370.729,881.6,1373.457,880.6,1373.468,880.6Z" fill="url(#linear-gradient-60)"/>
      <g id="Grupo_92150" data-name="Grupo 92150">
        <path id="Trazado_147492" data-name="Trazado 147492" d="M1372.228,847.413l.6,6.141s-3.455,1.041-5.968-.732l1.767-5.582Z" fill="url(#linear-gradient-61)"/>
        <g id="Grupo_92149" data-name="Grupo 92149">
          <path id="Trazado_147493" data-name="Trazado 147493" d="M1366.363,842.178c-.041.107-.214,7.656-.214,7.656l4.312.007,1.228-7.13S1367.05,840.394,1366.363,842.178Z" fill="url(#linear-gradient-62)"/>
          <path id="Trazado_147494" data-name="Trazado 147494" d="M1370.211,843.6a.622.622,0,0,1,.193.511l-.347,3.749a.623.623,0,0,1-.038.165c-.115.294-.556,1.2-1.474.7a5.45,5.45,0,0,0-2.1-.828.618.618,0,0,0-.634.61,22.994,22.994,0,0,0,.167,3.408.617.617,0,0,0,.651.526,17.144,17.144,0,0,0,3.822-.633.618.618,0,0,0,.42-.478c.183-.99.706-3.762.975-4.522.249-.705,1.217-.95,1.67-1.027a.62.62,0,0,0,.417-.273,1.364,1.364,0,0,0-.436-2.094.62.62,0,0,1-.192-.842,1.371,1.371,0,0,0-.369-1.98,1.93,1.93,0,0,0-2.329-.017.643.643,0,0,1-.771-.046.409.409,0,0,0-.4-.088.6.6,0,0,1-.745-.426,1.587,1.587,0,0,0-1.586-1.255c-1.909-.1-2.582,1.885-2.369,3.188s2.289,1.3,3.416.924A2.241,2.241,0,0,1,1370.211,843.6Z" fill="url(#linear-gradient-63)"/>
          <path id="Trazado_147495" data-name="Trazado 147495" d="M1371.709,848.19s-.273-2.288.621-2.629,1.983.191,1.38,1.665C1372.96,849.061,1371.709,848.19,1371.709,848.19Z" fill="url(#linear-gradient-64)"/>
        </g>
      </g>
      <g id="Grupo_92151" data-name="Grupo 92151">
        <path id="Trazado_147496" data-name="Trazado 147496" d="M1360.639,865.956h.014a.109.109,0,0,0,.094-.121c-.006-.048-.591-4.79-.273-6.156a.109.109,0,0,0-.212-.049c-.326,1.4.245,6.035.27,6.232A.107.107,0,0,0,1360.639,865.956Z" fill="url(#linear-gradient-65)"/>
      </g>
      <g id="Grupo_92152" data-name="Grupo 92152">
        <path id="Trazado_147497" data-name="Trazado 147497" d="M1346.894,844.881a.43.43,0,0,1,.524-.4l3.1.706a.241.241,0,0,1,.187.263l-.9,8.061a.131.131,0,0,1-.146.116l-2.708-.328a.429.429,0,0,1-.376-.443Z" fill="url(#linear-gradient-66)"/>
        <path id="Trazado_147498" data-name="Trazado 147498" d="M1347.767,845.346a.242.242,0,0,1,.3-.222l2.04.51a.245.245,0,0,1,.183.263l-.775,6.865a.131.131,0,0,1-.052.09.129.129,0,0,1-.1.024l-1.882-.335a.132.132,0,0,1-.108-.136Z" fill="#7d97f4"/>
        <path id="Trazado_147499" data-name="Trazado 147499" d="M1348.939,845.161c-.005.025.028.052.075.062l.682.141c.046.01.088,0,.093-.027l.005-.023c.005-.025-.029-.052-.075-.062l-.682-.141c-.046-.01-.088,0-.093.027Z" fill="url(#linear-gradient-67)"/>
      </g>
      <path id="Trazado_147500" data-name="Trazado 147500" d="M1345.817,846.929c.5-.185,1.482-1.881,1.67-1.323s-.08,1.323,0,1.56.621,1.557.377,2.164a23.429,23.429,0,0,0-.615,2.5.512.512,0,0,1-1,0C1346.227,851.736,1345.316,847.114,1345.817,846.929Z" fill="url(#linear-gradient-68)"/>
    </g>
    <g id="Grupo_92156" data-name="Grupo 92156">
      <g id="Grupo_92154" data-name="Grupo 92154">
        <path id="Trazado_147501" data-name="Trazado 147501" d="M1351.836,753.335a.931.931,0,0,1,.233.229c.1.154.182.395.319.6a7.078,7.078,0,0,1,.457.793l0,.005c.082.131.126.258-.014.351a.254.254,0,0,1-.369-.088s-.241-.395-.5-.778c-.064-.1-.118-.2-.178-.289s-.09-.149-.129-.213a1.116,1.116,0,0,0-.092-.153c-.03-.04-.046-.064-.046-.064l-.075-.1a.243.243,0,0,1,.032-.366.237.237,0,0,1,.359.075Z" fill="#7df494"/>
        <path id="Trazado_147502" data-name="Trazado 147502" d="M1354.081,756.333l1.147,1.444a.285.285,0,0,1-.066.4.3.3,0,0,1-.412-.034L1353.6,756.7a.286.286,0,0,1,.066-.4.3.3,0,0,1,.414.035Z" fill="#7df494"/>
        <path id="Trazado_147503" data-name="Trazado 147503" d="M1356.351,759.184l1.3,1.33a.269.269,0,0,1-.015.393.288.288,0,0,1-.4-.006l-1.264-1.344a.263.263,0,0,1,0-.389c.123-.11.246-.03.381.016Z" fill="#7df494"/>
        <path id="Trazado_147504" data-name="Trazado 147504" d="M1358.862,761.889l1.457,1.169a.241.241,0,0,1,.037.366.278.278,0,0,1-.394.016l-1.382-1.232c-.114-.1-.18-.224-.067-.342s.217-.022.349.023Z" fill="#7df494"/>
        <path id="Trazado_147505" data-name="Trazado 147505" d="M1362.179,763.385l1.335,1.462c.123.088.052.451-.048.577s-.327.251-.451.163l-1.539-1.035c-.124-.088.026-.617.126-.744s.45-.466.576-.423Z" fill="#7df494"/>
        <path id="Trazado_147506" data-name="Trazado 147506" d="M1364.935,766.173l1.617.924a.266.266,0,0,1,.074.383.313.313,0,0,1-.4.115l-1.646-.9a.276.276,0,0,1-.064-.393.394.394,0,0,1,.419-.127Z" fill="#7df494"/>
        <path id="Trazado_147507" data-name="Trazado 147507" d="M1368.577,767.408l1.575.938c.141.055.107.338.039.478a.4.4,0,0,1-.425.217l-1.787-.657c-.142-.055-.026-.446.042-.588s.079-.179.556-.388Z" fill="#7df494"/>
        <path id="Trazado_147508" data-name="Trazado 147508" d="M1371.813,768.876l1.827.575a.312.312,0,0,1,.167.392.336.336,0,0,1-.361.231l-1.863-.433c-.149-.035-.2-.3-.155-.447s.245-.365.384-.318Z" fill="#7df494"/>
        <path id="Trazado_147509" data-name="Trazado 147509" d="M1375.391,770.042l1.92.354a.251.251,0,0,1,.214.306.287.287,0,0,1-.334.2l-1.878-.378c-.149-.03-.273-.15-.231-.3s.254-.277.309-.189Z" fill="#7df494"/>
        <path id="Trazado_147510" data-name="Trazado 147510" d="M1379.2,770.641l1.921.29a.264.264,0,0,1,.219.316.3.3,0,0,1-.325.234l-1.908-.257a.28.28,0,0,1-.226-.328c.032-.147.2-.294.318-.255Z" fill="#7df494"/>
        <path id="Trazado_147511" data-name="Trazado 147511" d="M1383.129,770.86l1.9.223c.151.007.236.2.219.347a.34.34,0,0,1-.315.289l-1.947-.064c-.151-.006-.218-.261-.2-.408s.211-.434.348-.388Z" fill="#7df494"/>
        <path id="Trazado_147512" data-name="Trazado 147512" d="M1386.936,771.039a7.822,7.822,0,0,0,.955-.027c.473-.073.936-.112.936-.112l.013.014a.251.251,0,0,1,.293.226.294.294,0,0,1-.249.3l-1,.157-.977.1c-.151.015-.255-.157-.26-.3s.159-.4.288-.357Z" fill="#7df494"/>
        <path id="Trazado_147513" data-name="Trazado 147513" d="M1390.329,770.332a1.5,1.5,0,0,0,.455-.074c.085-.036.275-.053.369-.1s.246-.089.351-.141c.2-.121.438-.227.579-.335s.254-.167.254-.167l.025-.012a.271.271,0,0,1,.376.051.263.263,0,0,1-.077.365l-.268.188a7,7,0,0,1-.611.374l-.348.173c-.112.059-.21.1-.3.133l-.287.12a.511.511,0,0,1-.515-.178.56.56,0,0,1-.006-.393Z" fill="#7df494"/>
        <path id="Trazado_147514" data-name="Trazado 147514" d="M1393.292,768.153a.822.822,0,0,0,.289-.274,2.317,2.317,0,0,0,.2-.271c.021-.048.072-.1.094-.151.007-.016.05-.069.045-.057l.03-.088a1.418,1.418,0,0,0,.055-.168c.007-.047.018-.093.025-.138a2.589,2.589,0,0,0,.021-.266c-.005-.16-.012-.267-.012-.267v-.013a.283.283,0,0,1,.25-.291.245.245,0,0,1,.285.218s.01.127.015.318a3.264,3.264,0,0,1-.024.338l-.033.2c-.014.064-.032.117-.048.176l-.025.087c-.024.069-.028.07-.043.109l-.074.174a2.566,2.566,0,0,1-.139.3l-.143.269a.5.5,0,0,1-.509.137c-.131-.058-.293-.23-.257-.339Z" fill="#7df494"/>
        <path id="Trazado_147515" data-name="Trazado 147515" d="M1393.348,764.917a6.646,6.646,0,0,0-.443-.808c-.284-.336-.538-.691-.538-.691l0-.03a.242.242,0,0,1,.069-.346c.116-.094.177-.264.388.039l0,0s.3.348.611.716c.253.385.5.759.5.759.077.116-.028.31-.154.392s-.358.091-.432-.027Z" fill="#7df494"/>
        <path id="Trazado_147516" data-name="Trazado 147516" d="M1391.218,761.739s-.2.207-.354.123c-.076-.038-.217.03-.31,0s-.218-.014-.318-.056a3.064,3.064,0,0,0-.321-.058,1.049,1.049,0,0,0-.279-.039c-.161-.018-.271-.021-.271-.021h-.05a.234.234,0,0,1-.21-.279.283.283,0,0,1,.3-.222s.133.015.333.035a1.445,1.445,0,0,1,.328.066,3.282,3.282,0,0,1,.362.108l.347.145a2.344,2.344,0,0,1,.273.14l.258.141c.123.066.257-.043.178.082s-.141-.118-.268-.161Z" fill="#7df494"/>
        <path id="Trazado_147517" data-name="Trazado 147517" d="M1387.856,762.32a.748.748,0,0,0-.329.142c-.036.03-.119.035-.16.069a1.343,1.343,0,0,0-.126.095c-.07.076-.155.149-.229.23s-.142.183-.206.271a2.62,2.62,0,0,0-.2.231,1.047,1.047,0,0,1-.181.233l-.013.021a.248.248,0,0,1-.324.13.222.222,0,0,1-.076-.328s.073-.107.17-.274a2.319,2.319,0,0,1,.182-.277c.072-.1.151-.2.229-.31s.188-.2.276-.3a1.745,1.745,0,0,1,.247-.225l.242-.2a.392.392,0,0,1,.454.074.454.454,0,0,1,.04.411Z" fill="#7df494"/>
        <path id="Trazado_147518" data-name="Trazado 147518" d="M1385.723,765.327a8.345,8.345,0,0,1-.142.955c-.066.457-.1.925-.1.925l.014.023a.274.274,0,0,1-.285.235.228.228,0,0,1-.216-.265s.071-.483.141-.967c.1-.467.2-.934.2-.934.03-.137.106-.254.246-.235s.183.131.138.263Z" fill="#7df494"/>
        <path id="Trazado_147519" data-name="Trazado 147519" d="M1385.688,768.761a6.214,6.214,0,0,0-.07,1.086,8.667,8.667,0,0,1,.046.982l-.029.051a.3.3,0,0,1-.242.307.237.237,0,0,1-.291-.188s-.06-.469-.117-.943c-.028-.468-.058-.933-.058-.933a.589.589,0,0,1,.365-.428.932.932,0,0,1,.4.066Z" fill="#7df494"/>
        <path id="Trazado_147520" data-name="Trazado 147520" d="M1386.036,772.216l.493,2.014a.432.432,0,0,1-.194.435c-.135.046-.285.039-.323-.089l-.538-1.743c-.038-.128.075-.494.211-.54s.508-.394.351-.077Z" fill="#7df494"/>
        <path id="Trazado_147521" data-name="Trazado 147521" d="M1387.243,775.963l.722,1.777a.327.327,0,0,1-.157.378.25.25,0,0,1-.343-.079l-.779-1.663a.4.4,0,0,1,.178-.424.488.488,0,0,1,.379.01Z" fill="#7df494"/>
        <path id="Trazado_147522" data-name="Trazado 147522" d="M1388.763,779.458l.14.252c.087.148.2.347.316.545l.464.8a.256.256,0,0,1-.44.259l-.465-.8-.32-.551-.14-.252a.249.249,0,0,1,.107-.333.245.245,0,0,1,.338.08Z" fill="#7df494"/>
        <path id="Trazado_147523" data-name="Trazado 147523" d="M1390.643,782.608l1.014,1.539a.253.253,0,0,1-.423.276l-1.016-1.538a.255.255,0,0,1,.425-.278Z" fill="#7df494"/>
        <path id="Trazado_147524" data-name="Trazado 147524" d="M1392.71,785.642l1.111,1.472a.238.238,0,0,1-.062.333.245.245,0,0,1-.341-.036l-1.113-1.471a.238.238,0,0,1,.062-.334.247.247,0,0,1,.343.036Z" fill="#7df494"/>
        <path id="Trazado_147525" data-name="Trazado 147525" d="M1394.974,788.534l1.217,1.388a.233.233,0,0,1-.038.332.246.246,0,0,1-.341-.014l-1.22-1.387a.233.233,0,0,1,.039-.333.247.247,0,0,1,.343.014Z" fill="#7df494"/>
        <path id="Trazado_147526" data-name="Trazado 147526" d="M1397.5,791.22l1.312,1.3a.238.238,0,0,1-.023.336.255.255,0,0,1-.346.016l-1.338-1.28a.246.246,0,0,1,.032-.343c.1-.095.3-.131.363-.027Z" fill="#7df494"/>
        <path id="Trazado_147527" data-name="Trazado 147527" d="M1400.14,793.8l1.325,1.292a.225.225,0,0,1-.014.325.243.243,0,0,1-.336.011l-1.327-1.291a.225.225,0,0,1,.013-.326.246.246,0,0,1,.339-.011Z" fill="#7df494"/>
        <path id="Trazado_147528" data-name="Trazado 147528" d="M1402.768,796.414l1.268,1.344a.225.225,0,0,1-.026.323.24.24,0,0,1-.332,0l-1.271-1.342a.226.226,0,0,1,.026-.324.242.242,0,0,1,.335,0Z" fill="#7df494"/>
        <path id="Trazado_147529" data-name="Trazado 147529" d="M1405.281,799.135l1.208,1.4a.224.224,0,0,1-.039.319.236.236,0,0,1-.328-.015l-1.21-1.4a.225.225,0,0,1,.039-.32.237.237,0,0,1,.33.015Z" fill="#7df494"/>
        <path id="Trazado_147530" data-name="Trazado 147530" d="M1407.671,801.96l1.142,1.448a.223.223,0,0,1-.052.315.232.232,0,0,1-.323-.028l-1.145-1.447a.224.224,0,0,1,.053-.316.232.232,0,0,1,.324.028Z" fill="#7df494"/>
        <path id="Trazado_147531" data-name="Trazado 147531" d="M1409.927,804.889l1.073,1.5a.223.223,0,0,1-.065.31.229.229,0,0,1-.318-.041l-1.075-1.5a.223.223,0,0,1,.066-.311.229.229,0,0,1,.319.041Z" fill="#7df494"/>
        <path id="Trazado_147532" data-name="Trazado 147532" d="M1412.042,807.92l1,1.549a.232.232,0,0,1-.39.25l-1-1.547a.234.234,0,0,1,.392-.252Z" fill="#7df494"/>
        <path id="Trazado_147533" data-name="Trazado 147533" d="M1414.006,811.05l.919,1.6a.222.222,0,0,1-.092.3.219.219,0,0,1-.3-.068l-.922-1.6a.232.232,0,0,1,.4-.232Z" fill="#7df494"/>
        <path id="Trazado_147534" data-name="Trazado 147534" d="M1415.808,814.277l.836,1.643a.223.223,0,0,1-.106.293.215.215,0,0,1-.3-.082l-.838-1.642a.223.223,0,0,1,.106-.294.217.217,0,0,1,.3.081Z" fill="#7df494"/>
        <path id="Trazado_147535" data-name="Trazado 147535" d="M1417.44,817.595l.747,1.688a.222.222,0,0,1-.119.285.211.211,0,0,1-.287-.095l-.749-1.686a.223.223,0,0,1,.119-.287.213.213,0,0,1,.289.095Z" fill="#7df494"/>
        <path id="Trazado_147536" data-name="Trazado 147536" d="M1418.892,821l.654,1.73a.222.222,0,0,1-.133.277.207.207,0,0,1-.278-.108l-.656-1.729a.224.224,0,0,1,.133-.279.209.209,0,0,1,.28.109Z" fill="#7df494"/>
        <path id="Trazado_147537" data-name="Trazado 147537" d="M1420.154,824.491l.554,1.768a.222.222,0,0,1-.146.268.2.2,0,0,1-.268-.122l-.556-1.767a.222.222,0,0,1,.146-.269.2.2,0,0,1,.27.122Z" fill="#7df494"/>
        <path id="Trazado_147538" data-name="Trazado 147538" d="M1421.213,828.055l.448,1.8a.222.222,0,0,1-.159.258.2.2,0,0,1-.257-.136l-.45-1.8a.223.223,0,0,1,.159-.26.2.2,0,0,1,.259.136Z" fill="#7df494"/>
        <path id="Trazado_147539" data-name="Trazado 147539" d="M1422.056,831.684l.172.915c.043.226.087.461.115.633l.048.287a.219.219,0,0,1-.174.245.194.194,0,0,1-.242-.151l-.049-.287c-.028-.173-.071-.395-.115-.627-.086-.457-.173-.914-.173-.914a.222.222,0,0,1,.172-.249.2.2,0,0,1,.246.148Z" fill="#7df494"/>
        <path id="Trazado_147540" data-name="Trazado 147540" d="M1422.666,835.374l.213,1.856a.222.222,0,0,1-.185.235.192.192,0,0,1-.231-.162l-.214-1.856a.221.221,0,0,1,.185-.236.193.193,0,0,1,.232.163Z" fill="#7df494"/>
        <path id="Trazado_147541" data-name="Trazado 147541" d="M1423.028,839.11l.083,1.874a.221.221,0,0,1-.2.221.188.188,0,0,1-.215-.176l-.085-1.874a.221.221,0,0,1,.2-.222.188.188,0,0,1,.216.176Z" fill="#7df494"/>
        <path id="Trazado_147542" data-name="Trazado 147542" d="M1423.125,842.879l-.058,1.885a.219.219,0,0,1-.211.205.184.184,0,0,1-.2-.188l.056-1.885a.22.22,0,0,1,.211-.207.186.186,0,0,1,.2.19Z" fill="#7df494"/>
        <path id="Trazado_147543" data-name="Trazado 147543" d="M1422.933,846.666l-.209,1.886a.216.216,0,0,1-.222.187.18.18,0,0,1-.179-.2l.206-1.886a.219.219,0,0,1,.224-.189.183.183,0,0,1,.18.2Z" fill="#7df494"/>
        <path id="Trazado_147544" data-name="Trazado 147544" d="M1422.434,850.449l-.37,1.873a.216.216,0,0,1-.234.169.179.179,0,0,1-.158-.215l.367-1.873a.218.218,0,0,1,.235-.17.18.18,0,0,1,.16.216Z" fill="#7df494"/>
        <path id="Trazado_147545" data-name="Trazado 147545" d="M1421.606,854.2l-.539,1.845a.215.215,0,0,1-.245.147.175.175,0,0,1-.135-.225l.538-1.847a.216.216,0,0,1,.245-.148.178.178,0,0,1,.137.228Z" fill="#7df494"/>
        <path id="Trazado_147546" data-name="Trazado 147546" d="M1420.432,857.889l-.588,1.487a.212.212,0,0,1-.254.124.174.174,0,0,1-.11-.236l.586-1.488a.212.212,0,0,1,.254-.125.175.175,0,0,1,.112.237Z" fill="#7df494"/>
      </g>
      <g id="Grupo_92155" data-name="Grupo 92155">
        <path id="Trazado_147547" data-name="Trazado 147547" d="M1348.449,742.749l-1.021,6.846-4.2-3.634Z" fill="#7df494"/>
        <path id="Trazado_147548" data-name="Trazado 147548" d="M1318.251,734.229,1334.32,753.2a1.753,1.753,0,0,0,2.519.161l18.441-16.852a.7.7,0,0,0-.454-1.22Z" fill="#91fa9a"/>
        <path id="Trazado_147549" data-name="Trazado 147549" d="M1348.446,742.749l-30.2-8.52,27.228,11.249-.2,1.91Z" fill="#7df494"/>
        <path id="Trazado_147550" data-name="Trazado 147550" d="M1343.707,747.082l3.721,2.512-1.949-4.116Z" fill="#7df494"/>
      </g>
    </g>
    <g id="Grupo_92159" data-name="Grupo 92159">
      <rect id="Rectngulo_35904" data-name="Rectngulo 35904" width="2.809" height="79" transform="translate(1114.89 838.485)" fill="url(#linear-gradient-69)"/>
      <circle id="Elipse_5188" data-name="Elipse 5188" cx="15.517" cy="15.517" r="15.517" transform="translate(1100.602 812.192)" fill="url(#linear-gradient-70)"/>
      <path id="Trazado_147551" data-name="Trazado 147551" d="M1123.569,925.248l-3.444-9.977a1.387,1.387,0,0,0-1.286-.946h-7.25a1.388,1.388,0,0,0-1.346,1.184l-1.509,9.824a.485.485,0,0,0,.131.419.54.54,0,0,0,.435.159h13.728a.533.533,0,0,0,.466-.192A.481.481,0,0,0,1123.569,925.248Z" fill="url(#linear-gradient-71)"/>
      <g id="Grupo_92157" data-name="Grupo 92157">
        <path id="Trazado_147552" data-name="Trazado 147552" d="M1116.279,841.319a13.154,13.154,0,1,1,13.153-13.154A13.169,13.169,0,0,1,1116.279,841.319Zm0-25.587a12.433,12.433,0,1,0,12.433,12.433A12.447,12.447,0,0,0,1116.279,815.732Z" fill="#91fa9a"/>
      </g>
      <g id="Grupo_92158" data-name="Grupo 92158">
        <path id="Trazado_147553" data-name="Trazado 147553" d="M1120.926,836.141l-.056,0-.352-.018a1.018,1.018,0,0,1-.97-.877v-1.066h-6.859V835.2c0,.51-.469.738-.933.738h-.235c-.457,0-1.1-.229-1.1-.738v-1.017h-.484c-.141,0-.258-.126-.351-.227-.015-.017-.029-.032-.043-.046a.823.823,0,0,1-.156-.5l.171-6.441a39.65,39.65,0,0,1,.635-4.979,1.07,1.07,0,0,1,.369-.659c4.231-3.476,9.493-1.137,11.006-.338a1.022,1.022,0,0,1,.512.787v0l.793,5.387v6.357c0,.029,0,.057,0,.084a.353.353,0,0,1-.094.329l-.015.014a.339.339,0,0,1-.322.115l-.626-.085v1.286a.891.891,0,0,1-.892.88Zm-8.319-2.127h7.023a.082.082,0,0,1,.082.082v1.148c0,.373.438.69.815.714l.353.017a.727.727,0,0,0,.775-.714v-1.379a.081.081,0,0,1,.092-.081l.719.1c.089.012.105,0,.192-.076l.016-.014c.046-.04.045-.095.038-.2,0-.031,0-.063,0-.095v-6.345l-.792-5.375a.863.863,0,0,0-.427-.668c-1.489-.787-6.673-3.092-10.825.32a.909.909,0,0,0-.312.56,39.709,39.709,0,0,0-.633,4.955l-.171,6.441a.687.687,0,0,0,.111.385l.045.049c.068.073.161.174.231.174h.566a.082.082,0,0,1,.082.082v1.1c0,.392.56.574.938.574h.235c.383,0,.77-.177.77-.574v-1.1A.082.082,0,0,1,1112.607,834.014Z" fill="#bdfbc3"/>
        <path id="Trazado_147554" data-name="Trazado 147554" d="M1121.438,827.862h-.026l-10.133-.583h0a.547.547,0,0,1-.508-.632l.557-3.63c.038-.241.253-.589.54-.589h9.007c.295,0,.508.354.542.6l.57,4.166a.616.616,0,0,1-.14.478A.571.571,0,0,1,1121.438,827.862Zm-10.15-.747,10.133.583a.4.4,0,0,0,.3-.139.456.456,0,0,0,.1-.345l-.57-4.165c-.029-.208-.205-.458-.38-.458h-9.007c-.17,0-.346.246-.378.45l-.557,3.631a.384.384,0,0,0,.356.443Z" fill="#bdfbc3"/>
        <path id="Trazado_147555" data-name="Trazado 147555" d="M1113.323,821.9a.43.43,0,0,1-.416-.361l-.037-.234a.529.529,0,0,1,.093-.388l.025-.029c.072-.089.171-.211.3-.211h5.758c.128,0,.227.122.3.211l.024.029a.638.638,0,0,1,.092.433l-.007.043a.419.419,0,0,1-.4.346l-5.714.161Zm-.037-1.06c-.049,0-.129.1-.171.151l-.026.032a.362.362,0,0,0-.057.256l.036.233a.266.266,0,0,0,.262.224l5.715-.161a.256.256,0,0,0,.247-.211l.007-.042a.5.5,0,0,0-.057-.3l-.025-.031c-.043-.052-.123-.151-.173-.151Z" fill="#bdfbc3"/>
        <path id="Trazado_147556" data-name="Trazado 147556" d="M1111.826,832.025a1.138,1.138,0,1,1,1.137-1.138A1.139,1.139,0,0,1,1111.826,832.025Zm0-2.112a.974.974,0,1,0,.974.974A.975.975,0,0,0,1111.826,829.913Z" fill="#bdfbc3"/>
        <path id="Trazado_147557" data-name="Trazado 147557" d="M1120.74,832.025a1.138,1.138,0,1,1,1.137-1.138A1.139,1.139,0,0,1,1120.74,832.025Zm0-2.112a.974.974,0,1,0,.973.974A.975.975,0,0,0,1120.74,829.913Z" fill="#bdfbc3"/>
      </g>
    </g>
    <g id="Grupo_92172" data-name="Grupo 92172">
      <g id="Grupo_92163" data-name="Grupo 92163">
        <g id="Grupo_92160" data-name="Grupo 92160">
          <path id="Trazado_147558" data-name="Trazado 147558" d="M1185.229,772.315c.751-.629,3.6-5.41,8.164,0,.494.257,1.77-.464,1.608-.97-5.339-7.786-11.988-.478-11.336.323S1184.355,773.047,1185.229,772.315Z" fill="url(#linear-gradient-15)"/>
        </g>
        <g id="Grupo_92161" data-name="Grupo 92161">
          <path id="Trazado_147559" data-name="Trazado 147559" d="M1198.221,769.073c1-.117,1.932-.8,1.652-1.667s-9.778-11.959-20.362.555a.754.754,0,0,0,.093,1.067,1.858,1.858,0,0,0,1.425.6C1190.714,758.651,1197.225,769.189,1198.221,769.073Z" fill="url(#linear-gradient-15)"/>
        </g>
        <g id="Grupo_92162" data-name="Grupo 92162">
          <path id="Trazado_147560" data-name="Trazado 147560" d="M1203.168,765.756c.707.142,2.153-.39,1.779-1.552-16.726-18.2-31.621.876-31.075,1.645a1.776,1.776,0,0,0,2.1.539C1189.289,749.306,1202.46,765.615,1203.168,765.756Z" fill="url(#linear-gradient-15)"/>
        </g>
      </g>
      <g id="Grupo_92167" data-name="Grupo 92167">
        <g id="Grupo_92164" data-name="Grupo 92164">
          <path id="Trazado_147561" data-name="Trazado 147561" d="M1206.8,775.772a.18.18,0,0,1-.149-.281q.254-.371.487-.749a.18.18,0,1,1,.306.189q-.238.387-.495.762A.178.178,0,0,1,1206.8,775.772Z" fill="url(#linear-gradient-75)"/>
        </g>
        <g id="Grupo_92165" data-name="Grupo 92165">
          <path id="Trazado_147562" data-name="Trazado 147562" d="M1190.249,784.52c-.557,0-1.119-.023-1.674-.069a.18.18,0,0,1,.029-.359c.545.045,1.1.068,1.643.068h.1a.18.18,0,1,1,0,.36Zm1.858-.087a.18.18,0,0,1-.016-.359c.577-.054,1.158-.134,1.728-.238a.182.182,0,0,1,.21.145.18.18,0,0,1-.145.21c-.581.106-1.173.187-1.76.242Zm-5.264-.2a.165.165,0,0,1-.031,0c-.582-.1-1.166-.227-1.736-.376a.18.18,0,0,1,.092-.349c.559.147,1.133.271,1.705.369a.18.18,0,0,1-.03.358Zm8.725-.428a.18.18,0,0,1-.048-.354c.558-.154,1.117-.335,1.66-.538a.18.18,0,0,1,.126.338c-.553.206-1.122.39-1.69.547A.2.2,0,0,1,1195.568,783.8Zm-12.127-.466a.188.188,0,0,1-.061-.011c-.555-.2-1.108-.425-1.643-.673a.179.179,0,0,1-.088-.239.181.181,0,0,1,.239-.088c.526.243,1.069.465,1.614.661a.18.18,0,0,1-.061.35Zm15.423-.765a.18.18,0,0,1-.078-.343c.523-.25,1.041-.527,1.539-.822a.18.18,0,1,1,.184.31c-.508.3-1.035.582-1.567.837A.184.184,0,0,1,1198.864,782.571Zm-18.615-.71a.183.183,0,0,1-.09-.024c-.511-.293-1.015-.613-1.5-.951a.18.18,0,1,1,.206-.295c.475.331.97.645,1.473.934a.18.18,0,0,1-.09.336Zm21.643-1.082a.18.18,0,0,1-.1-.326q.337-.242.667-.5.361-.282.707-.578a.18.18,0,0,1,.234.274q-.351.3-.72.589-.335.261-.678.506A.178.178,0,0,1,1201.892,780.779Zm-24.526-.93a.173.173,0,0,1-.115-.043c-.451-.377-.891-.781-1.309-1.2a.18.18,0,0,1,.254-.255c.411.411.844.808,1.286,1.178a.18.18,0,0,1-.116.319Zm27.2-1.358a.184.184,0,0,1-.127-.051.18.18,0,0,1,0-.255c.407-.415.8-.852,1.165-1.3a.183.183,0,0,1,.254-.025.181.181,0,0,1,.025.254c-.373.455-.773.9-1.187,1.322A.179.179,0,0,1,1204.565,778.491Zm-29.684-1.131a.183.183,0,0,1-.139-.064c-.153-.183-.3-.369-.452-.559-.216-.277-.428-.564-.629-.85a.18.18,0,1,1,.3-.207c.2.282.406.563.618.836q.219.279.445.548a.181.181,0,0,1-.138.3Zm-2.019-2.881a.18.18,0,0,1-.156-.091c-.3-.511-.571-1.041-.82-1.576a.18.18,0,0,1,.327-.152c.244.525.515,1.046.8,1.548a.18.18,0,0,1-.066.246A.173.173,0,0,1,1172.862,774.479Zm-1.484-3.191a.178.178,0,0,1-.169-.119c-.2-.555-.379-1.125-.53-1.7a.18.18,0,0,1,.348-.092c.148.56.323,1.121.52,1.666a.18.18,0,0,1-.108.231A.187.187,0,0,1,1171.378,771.288Z" fill="url(#linear-gradient-15)"/>
        </g>
        <g id="Grupo_92166" data-name="Grupo 92166">
          <path id="Trazado_147563" data-name="Trazado 147563" d="M1170.475,767.865a.181.181,0,0,1-.178-.15c-.051-.3-.095-.6-.132-.9a.18.18,0,1,1,.357-.044q.055.443.13.883a.181.181,0,0,1-.147.208Z" fill="url(#linear-gradient-77)"/>
        </g>
      </g>
      <g id="Grupo_92171" data-name="Grupo 92171">
        <g id="Grupo_92168" data-name="Grupo 92168">
          <path id="Trazado_147564" data-name="Trazado 147564" d="M1174.132,752.531a.187.187,0,0,1-.108-.035.18.18,0,0,1-.037-.252q.27-.365.558-.718a.181.181,0,0,1,.28.228c-.189.232-.372.466-.549.7A.177.177,0,0,1,1174.132,752.531Z" fill="url(#linear-gradient-28)"/>
        </g>
        <g id="Grupo_92169" data-name="Grupo 92169">
          <path id="Trazado_147565" data-name="Trazado 147565" d="M1209.807,760.142a.181.181,0,0,1-.176-.141c-.132-.6-.295-1.2-.484-1.79a.181.181,0,0,1,.344-.11c.192.6.357,1.21.492,1.822a.179.179,0,0,1-.137.215A.172.172,0,0,1,1209.807,760.142Zm-1.144-3.558a.181.181,0,0,1-.166-.109c-.243-.566-.515-1.127-.81-1.668a.18.18,0,0,1,.317-.172c.3.55.577,1.122.824,1.7a.181.181,0,0,1-.094.237A.2.2,0,0,1,1208.663,756.584Zm-1.788-3.281a.181.181,0,0,1-.15-.08c-.262-.389-.542-.775-.833-1.148-.09-.115-.181-.229-.272-.341a.18.18,0,1,1,.279-.228c.093.114.186.23.277.348.3.379.582.772.848,1.168a.18.18,0,0,1-.049.25A.178.178,0,0,1,1206.875,753.3Zm-30.941-2.876a.179.179,0,0,1-.128-.306c.439-.446.905-.877,1.385-1.282a.18.18,0,0,1,.233.275c-.473.4-.931.822-1.361,1.259A.181.181,0,0,1,1175.934,750.427Zm28.577-.021a.178.178,0,0,1-.128-.054c-.432-.439-.889-.863-1.36-1.26a.18.18,0,1,1,.232-.275c.48.4.945.836,1.385,1.283a.18.18,0,0,1-.129.306Zm-25.718-2.388a.18.18,0,0,1-.1-.328c.514-.359,1.052-.7,1.6-1.006a.18.18,0,1,1,.178.313c-.536.3-1.064.636-1.569.989A.189.189,0,0,1,1178.793,748.018Zm22.862-.02a.177.177,0,0,1-.1-.032c-.505-.35-1.034-.681-1.57-.983a.18.18,0,1,1,.176-.314c.547.307,1.085.644,1.6,1a.18.18,0,0,1-.1.328Zm-19.609-1.822a.18.18,0,0,1-.074-.345c.572-.256,1.163-.488,1.757-.69a.18.18,0,1,1,.116.341c-.584.2-1.164.426-1.726.678A.175.175,0,0,1,1182.046,746.176Zm16.353-.01a.183.183,0,0,1-.073-.015c-.563-.25-1.143-.477-1.727-.674a.18.18,0,1,1,.115-.341c.594.2,1.186.431,1.758.686a.18.18,0,0,1-.073.344Zm-12.814-1.192a.18.18,0,0,1-.042-.355c.608-.145,1.232-.263,1.855-.351a.18.18,0,0,1,.051.357c-.612.087-1.225.2-1.822.344A.154.154,0,0,1,1185.585,744.974Zm9.273,0a.147.147,0,0,1-.041-.005c-.6-.142-1.215-.257-1.822-.342a.18.18,0,1,1,.05-.357c.618.087,1.242.2,1.854.349a.18.18,0,0,1-.041.355Zm-3.7-.519h-.008q-.926-.042-1.854,0a.18.18,0,1,1-.017-.359c.629-.03,1.26-.029,1.887,0a.18.18,0,0,1-.008.36Z" fill="url(#linear-gradient-15)"/>
        </g>
        <g id="Grupo_92170" data-name="Grupo 92170">
          <path id="Trazado_147566" data-name="Trazado 147566" d="M1210.217,762.9a.18.18,0,0,1-.18-.166q-.034-.444-.089-.888a.18.18,0,0,1,.358-.044c.037.3.067.6.09.9a.179.179,0,0,1-.165.193Z" fill="url(#linear-gradient-80)"/>
        </g>
      </g>
    </g>
  </g>
</svg>
