<svg xmlns="http://www.w3.org/2000/svg" width="86.018" height="86" viewBox="0 0 86.018 86">
  <g id="Grupo_90744" data-name="Grupo 90744" transform="translate(-213.041 -213)">
    <rect id="Rectángulo_35448" data-name="Rectángulo 35448" width="45.867" height="83.133" rx="5.733" transform="translate(214.474 214.433)" fill="#57a4ff"/>
    <path id="Trazado_143917" data-name="Trazado 143917" d="M214.474,257.433v34.4a5.734,5.734,0,0,0,5.733,5.734H249.48C230.671,291.365,214.474,275.751,214.474,257.433Z" fill="#2488ff"/>
    <path id="Trazado_143918" data-name="Trazado 143918" d="M235.974,261.733h43v17.2h-43a2.867,2.867,0,0,1-2.867-2.866V264.6A2.868,2.868,0,0,1,235.974,261.733Z" fill="#ffcd00"/>
    <circle id="Elipse_5018" data-name="Elipse 5018" cx="12.9" cy="12.9" r="12.9" transform="translate(271.807 257.433)" fill="#d1e7f8"/>
    <path id="Trazado_143919" data-name="Trazado 143919" d="M244.574,233.067h41.567a2.866,2.866,0,0,1,2.866,2.866V247.4a2.867,2.867,0,0,1-2.866,2.867H244.574v-17.2Z" fill="#ff3051"/>
    <circle id="Elipse_5019" data-name="Elipse 5019" cx="12.9" cy="12.9" r="12.9" transform="translate(224.507 228.767)" fill="#d1e7f8"/>
    <path id="Trazado_143920" data-name="Trazado 143920" d="M227.374,223.033h20.067a2.866,2.866,0,0,0,2.866-2.866v-5.734h-25.8v5.734A2.867,2.867,0,0,0,227.374,223.033Z" fill="#6d6e71"/>
    <circle id="Elipse_5020" data-name="Elipse 5020" cx="4.3" cy="4.3" r="4.3" transform="translate(233.107 234.5)" fill="none"/>
    <path id="Trazado_143921" data-name="Trazado 143921" d="M238.841,244.533h-2.867a5.734,5.734,0,0,0-5.733,5.734v2.124a12.89,12.89,0,0,0,14.333,0v-2.124A5.734,5.734,0,0,0,238.841,244.533Z" fill="#9cdd05"/>
    <circle id="Elipse_5021" data-name="Elipse 5021" cx="4.3" cy="4.3" r="4.3" transform="translate(280.407 263.167)" fill="none"/>
    <path id="Trazado_143922" data-name="Trazado 143922" d="M286.141,273.2h-2.867a5.733,5.733,0,0,0-5.733,5.733v2.125a12.894,12.894,0,0,0,14.333,0v-2.125A5.733,5.733,0,0,0,286.141,273.2Z" fill="#ff3051"/>
    <circle id="Elipse_5022" data-name="Elipse 5022" cx="4.3" cy="4.3" r="4.3" transform="translate(233.107 234.5)" fill="#9cdd05"/>
    <circle id="Elipse_5023" data-name="Elipse 5023" cx="4.3" cy="4.3" r="4.3" transform="translate(280.407 263.167)" fill="#ff3051"/>
    <path id="Trazado_143923" data-name="Trazado 143923" d="M223.074,291.833a1.434,1.434,0,0,0,1.433,1.434h25.8a1.434,1.434,0,1,0,0-2.867h-25.8A1.434,1.434,0,0,0,223.074,291.833Z"/>
    <path id="Trazado_143924" data-name="Trazado 143924" d="M284.707,256a14.28,14.28,0,0,0-10.218,4.3H261.774v-8.6h24.367a4.3,4.3,0,0,0,4.3-4.3V235.933a4.3,4.3,0,0,0-4.3-4.3H261.774V220.167A7.176,7.176,0,0,0,254.607,213h-34.4a7.175,7.175,0,0,0-7.166,7.167v71.666A7.175,7.175,0,0,0,220.207,299h34.4a7.176,7.176,0,0,0,7.167-7.167V280.367h12.715A14.333,14.333,0,1,0,284.707,256Zm2.867-20.067V247.4a1.433,1.433,0,0,1-1.433,1.433H249.8a14.21,14.21,0,0,0,0-14.333h36.34A1.434,1.434,0,0,1,287.574,235.933Zm-38.7,5.734a11.407,11.407,0,0,1-2.961,7.662,7.141,7.141,0,0,0-5.121-5.925,5.734,5.734,0,1,0-6.769,0,7.141,7.141,0,0,0-5.121,5.925,11.459,11.459,0,1,1,19.972-7.662Zm-11.467,0a2.867,2.867,0,1,1,2.867-2.867A2.867,2.867,0,0,1,237.407,241.667Zm-5.733,8.6a4.3,4.3,0,0,1,4.3-4.3h2.867a4.3,4.3,0,0,1,4.3,4.3v1.315a11.373,11.373,0,0,1-11.467,0Zm-5.733-34.4h22.933v4.3a1.434,1.434,0,0,1-1.433,1.433H227.374a1.434,1.434,0,0,1-1.433-1.433Zm32.966,75.966a4.3,4.3,0,0,1-4.3,4.3h-34.4a4.3,4.3,0,0,1-4.3-4.3V220.167a4.3,4.3,0,0,1,4.3-4.3h2.867v4.3a4.3,4.3,0,0,0,4.3,4.3h20.067a4.3,4.3,0,0,0,4.3-4.3v-4.3h2.866a4.3,4.3,0,0,1,4.3,4.3v11.466H247.626a14.333,14.333,0,1,0-.2,20.27c.068-.067.136-.135.2-.2h11.281v8.6H235.974a4.3,4.3,0,0,0-4.3,4.3v11.467a4.3,4.3,0,0,0,4.3,4.3h22.933ZM235.974,277.5a1.434,1.434,0,0,1-1.433-1.433V264.6a1.433,1.433,0,0,1,1.433-1.433h36.339a14.215,14.215,0,0,0,0,14.333Zm43,2.749v-1.316a4.3,4.3,0,0,1,4.3-4.3h2.867a4.3,4.3,0,0,1,4.3,4.3v1.316A11.373,11.373,0,0,1,278.974,280.249Zm5.733-9.916a2.867,2.867,0,1,1,2.867-2.866A2.866,2.866,0,0,1,284.707,270.333ZM293.213,278a7.14,7.14,0,0,0-5.121-5.925,5.734,5.734,0,1,0-6.769,0A7.14,7.14,0,0,0,276.2,278a11.467,11.467,0,1,1,17.011,0Z"/>
    <path id="Trazado_143925" data-name="Trazado 143925" d="M257.474,237.367h2.867v2.866h-2.867Z"/>
    <path id="Trazado_143926" data-name="Trazado 143926" d="M263.207,237.367h17.2v2.866h-17.2Z"/>
    <path id="Trazado_143927" data-name="Trazado 143927" d="M257.474,243.1h2.867v2.867h-2.867Z"/>
    <path id="Trazado_143928" data-name="Trazado 143928" d="M263.207,243.1h17.2v2.867h-17.2Z"/>
    <path id="Trazado_143929" data-name="Trazado 143929" d="M240.274,266.033h2.867V268.9h-2.867Z"/>
    <path id="Trazado_143930" data-name="Trazado 143930" d="M246.007,266.033h17.2V268.9h-17.2Z"/>
    <path id="Trazado_143931" data-name="Trazado 143931" d="M240.274,271.767h2.867v2.866h-2.867Z"/>
    <path id="Trazado_143932" data-name="Trazado 143932" d="M246.007,271.767h17.2v2.866h-17.2Z"/>
  </g>
</svg>
