<svg id="Grupo_83715" data-name="Grupo 83715" xmlns="http://www.w3.org/2000/svg" width="170.478" height="162.665" viewBox="0 0 170.478 162.665">
  <g id="Grupo_83298" data-name="Grupo 83298" transform="translate(28.174 52.605)">
    <path id="Trazado_111866" data-name="Trazado 111866" d="M675.51,1042.557l.076-5.7-78.165-40.495a4.217,4.217,0,0,0-4.2-.014L536.2,1028.82l-2.9-3.314-.014,7.052.018-.014v0a4.2,4.2,0,0,0,2.045,4.018l23.6,14.066c.094.054.181.112.268.17a4.23,4.23,0,0,1-.337,7.131l-10.7,6.106-4.814,2.747.163-.177-4.221-1.962.011,6.6a4.2,4.2,0,0,0,2.092,3.963l37.724,21.9,2.186,1.27a4.221,4.221,0,0,0,4.232.008l39.265-22.669,7.395-4.271,40.245-22.721a6.769,6.769,0,0,0,2.329-2.2A6.572,6.572,0,0,0,675.51,1042.557Z" transform="translate(-533.282 -988.884)" fill="#d6f9ff"/>
    <path id="Trazado_111867" data-name="Trazado 111867" d="M679.975,1110.216v6.912l7.4-4.27v-6.912Z" transform="translate(-588.442 -1030.303)" fill="#fff"/>
    <path id="Trazado_111868" data-name="Trazado 111868" d="M694.271,1103.579v6.912l2.749-1.587v-6.912Z" transform="translate(-593.818 -1028.816)" fill="#fff"/>
    <path id="Trazado_111869" data-name="Trazado 111869" d="M586.25,1131.181v6.83l-3.49-1.763-37.724-21.9a4.2,4.2,0,0,1-2.092-3.963l-.011-6.6a4.185,4.185,0,0,1,2.132-3.674l.373-.213c2.012,1.064,4.34,2.277,6.367,3.28a31.745,31.745,0,0,0,4.81,2.113c1.947.348,27.549,23.962,29.515,25.776Z" transform="translate(-536.911 -1028.031)" fill="#bbf3fd"/>
    <path id="Trazado_111870" data-name="Trazado 111870" d="M673.777,1036.343c-.1.072-.207.137-.319.2l-41.249,23.817-7.395,4.267-39.266,22.67a4.216,4.216,0,0,1-3.047.46,4.144,4.144,0,0,1-1.184-.463l-39.526-22.945-.384-.224c-.1-.062-.206-.127-.3-.2a4.223,4.223,0,0,1,.333-7.127l.373-.213,17.07-9.74a3.439,3.439,0,0,0,.337-.217,4.22,4.22,0,0,0-.268-7.08L536.214,1026l-.869-.518c-.091-.054-.181-.112-.265-.17a4.15,4.15,0,0,1-1.785-3.134,4.031,4.031,0,0,1,0-.663c0-.054.007-.109.015-.159a4.181,4.181,0,0,1,2.107-3.175l57.8-32.913a4.226,4.226,0,0,1,4.2.014l76.041,43.946A4.225,4.225,0,0,1,673.777,1036.343Z" transform="translate(-533.282 -984.718)" fill="#fff"/>
  </g>
  <g id="Grupo_83299" data-name="Grupo 83299" transform="translate(0 97.368)">
    <path id="Trazado_111871" data-name="Trazado 111871" d="M530.675,1073.07v5.778l-.03-.022a1.813,1.813,0,0,1-.892,1.283l-19.416,11.21a1.852,1.852,0,0,1-1.846,0l-19.438-11.254a1.826,1.826,0,0,1-.918-1.6v-5.395l4.076,1.982,16.25-9.357a1.846,1.846,0,0,1,1.844,0l12.554,7.239,3.258,1.878Z" transform="translate(-488.131 -1059.838)" fill="#bbf3fd"/>
    <path id="Trazado_111872" data-name="Trazado 111872" d="M543.494,1077.582v5.778l-.031-.022a1.813,1.813,0,0,1-.892,1.283l-19.416,11.21a1.839,1.839,0,0,1-.932.246v-6.956l13.452-11.673,3.258,1.877Z" transform="translate(-500.95 -1064.35)" fill="#d6f9ff"/>
    <path id="Trazado_111873" data-name="Trazado 111873" d="M508.457,1056.981l-19.4,11.17a1.846,1.846,0,0,0,0,3.2l19.436,11.253a1.847,1.847,0,0,0,1.849,0l19.416-11.209a1.847,1.847,0,0,0,0-3.2l-19.45-11.213A1.843,1.843,0,0,0,508.457,1056.981Z" transform="translate(-488.13 -1056.561)" fill="#fff"/>
    <path id="Trazado_111874" data-name="Trazado 111874" d="M508.457,1056.7l-19.4,11.17a1.847,1.847,0,0,0,0,3.2l19.436,11.253a1.847,1.847,0,0,0,1.849,0l19.416-11.21a1.847,1.847,0,0,0,0-3.2L510.3,1056.7A1.847,1.847,0,0,0,508.457,1056.7Z" transform="translate(-488.13 -1056.457)" fill="#fff"/>
  </g>
  <g id="Grupo_83302" data-name="Grupo 83302" transform="translate(5.913 70.944)">
    <g id="Grupo_83300" data-name="Grupo 83300" transform="translate(0.158 15.622)">
      <path id="Trazado_111875" data-name="Trazado 111875" d="M497.861,1070.467l14.9-8.722,15.319,8.722-15.107,8.722Z" transform="translate(-497.861 -1047.644)" fill="#15465c" opacity="0.33" style="mix-blend-mode: multiply;isolation: isolate"/>
      <path id="Trazado_111876" data-name="Trazado 111876" d="M497.861,1047.868l14.9-8.722,15.319,8.722-15.107,8.722Z" transform="translate(-497.861 -1039.146)" fill="#d6fafb"/>
      <path id="Trazado_111877" data-name="Trazado 111877" d="M497.861,1062.072v-8.948l15.108,8.722-.158,8.813Z" transform="translate(-497.861 -1044.402)" fill="#77d6e0"/>
      <path id="Trazado_111878" data-name="Trazado 111878" d="M537.084,1053.124l-15.108,8.722-.158,8.813,15.107-8.588Z" transform="translate(-506.869 -1044.402)" fill="#a9e4ea"/>
    </g>
    <g id="Grupo_83301" data-name="Grupo 83301">
      <path id="Trazado_111879" data-name="Trazado 111879" d="M497.607,1022.832l14.9-8.722,15.319,8.722-15.107,8.722Z" transform="translate(-497.607 -1014.11)" fill="#bbf3fd"/>
      <path id="Trazado_111880" data-name="Trazado 111880" d="M497.607,1037.036v-8.948l15.108,8.723-.158,8.814Z" transform="translate(-497.607 -1019.366)" fill="#77d6e0"/>
      <path id="Trazado_111881" data-name="Trazado 111881" d="M536.831,1028.088l-15.107,8.723-.158,8.814,15.108-8.588Z" transform="translate(-506.616 -1019.366)" fill="#a9e4ea"/>
    </g>
  </g>
  <g id="Grupo_83303" data-name="Grupo 83303" transform="translate(42.275)">
    <path id="Trazado_111882" data-name="Trazado 111882" d="M618.7,1030.446v-1.8l-1.27.794-12.788-7.372a.964.964,0,0,0-.96,0l-16.286,9.284-1.272-.75v1.986l.041-.031a.577.577,0,0,0,.274.359l13.75,7.963a.964.964,0,0,0,.967,0l17.3-9.986A.493.493,0,0,0,618.7,1030.446Z" transform="translate(-567.254 -946.111)" fill="#184a61"/>
    <path id="Trazado_111883" data-name="Trazado 111883" d="M603.681,1018.95l-17.24,9.828a.588.588,0,0,0,0,1.02l13.75,7.963a.966.966,0,0,0,.967,0l17.3-9.988a.5.5,0,0,0,0-.862l-13.81-7.961A.965.965,0,0,0,603.681,1018.95Z" transform="translate(-567.26 -944.938)" fill="#d6fafb"/>
    <path id="Trazado_111884" data-name="Trazado 111884" d="M614.281,1013.391l-1.355,10.146-9.208,7.506-1.376-.775a1.029,1.029,0,0,1-.588-.93l.019-9.345a1.246,1.246,0,0,1,.622-1.078l10.044-5.845a1.154,1.154,0,0,1,1.07-.048Z" transform="translate(-573.131 -942.716)" fill="#184a61"/>
    <path id="Trazado_111885" data-name="Trazado 111885" d="M616.562,1013l-.031,11.306-11.726,6.772.01-11.244Z" transform="translate(-574.277 -942.747)" fill="#3c869e"/>
    <path id="Trazado_111886" data-name="Trazado 111886" d="M617.6,900.738l2.719,1.464-4.066,54.425-56.3,36.6-2.234-1.2a3.484,3.484,0,0,1-1.833-3.068V936.9a2.7,2.7,0,0,1,1.335-2.328l57.713-33.791a2.726,2.726,0,0,1,2.668-.047Z" transform="translate(-555.881 -900.412)" fill="#a9e4ea"/>
    <path id="Trazado_111887" data-name="Trazado 111887" d="M622.766,903.28v56.615L562.4,994.3V938.625Z" transform="translate(-558.331 -901.49)" fill="#d6fafb"/>
    <path id="Trazado_111888" data-name="Trazado 111888" d="M622.646,914.278v45.386l-7.145,4.072-2.146,1.224-14.67,8.361-8.126,4.63L577.8,985.224l-12.394,7.064v-44.5l12.132-7.1,6.567-3.846,10.361-6.066,12.467-7.3,7.764-4.545,5.667-3.317Z" transform="translate(-559.462 -905.626)" fill="#184a61"/>
  </g>
  <g id="Grupo_83308" data-name="Grupo 83308" transform="translate(132.927 74.564)">
    <g id="Grupo_83306" data-name="Grupo 83306">
      <g id="Grupo_83304" data-name="Grupo 83304" transform="translate(0 10.92)">
        <path id="Trazado_111889" data-name="Trazado 111889" d="M701.785,1051.112l13.922-8.152a1.258,1.258,0,0,1,1.258-.008l14.343,8.167a1.257,1.257,0,0,1,.006,2.182l-14.119,8.152a1.258,1.258,0,0,1-1.258,0l-14.146-8.167A1.258,1.258,0,0,1,701.785,1051.112Z" transform="translate(-701.163 -1039.433)" fill="#15465c" opacity="0.33" style="mix-blend-mode: multiply;isolation: isolate"/>
        <path id="Trazado_111890" data-name="Trazado 111890" d="M737.025,1047.646l-11.06,6.385-.116,6.452,11.06-6.287Z" transform="translate(-710.446 -1041.26)" fill="#a9e4ea"/>
        <path id="Trazado_111891" data-name="Trazado 111891" d="M708.31,1043.8l10.905-6.385,11.214,6.385-11.06,6.385Z" transform="translate(-703.85 -1037.412)" fill="#bbf3fd"/>
        <path id="Trazado_111892" data-name="Trazado 111892" d="M715.983,1045.5l6.07-3.554,6.242,3.554-6.156,3.554Z" transform="translate(-706.736 -1039.119)" fill="#15465c"/>
        <path id="Trazado_111893" data-name="Trazado 111893" d="M708.31,1054.2v-6.551l11.06,6.385-.116,6.452Z" transform="translate(-703.85 -1041.26)" fill="#77d6e0"/>
      </g>
      <g id="Grupo_83305" data-name="Grupo 83305" transform="translate(8.401)">
        <path id="Trazado_111894" data-name="Trazado 111894" d="M726.905,1034.43a7.755,7.755,0,0,1-2.367,2.323c-2.463,1.979-6.9,1.5-8.142-.886a5.562,5.562,0,0,1-1.734-4.681,5.5,5.5,0,0,0,1.957,2.456c-2.032-1.734-.737-6.809-.737-6.809a8.011,8.011,0,0,0,2.553,4.019,17.865,17.865,0,0,1,.171-6.646,7.721,7.721,0,0,1,2.516-4.294,12.14,12.14,0,0,0,2.076,8.462,7.309,7.309,0,0,0,1.3-5.1s2.478,4.756,1.34,8.38a5.569,5.569,0,0,0,2.456-1.979A8.555,8.555,0,0,1,726.905,1034.43Z" transform="translate(-714.627 -1019.911)" fill="#77d6e0"/>
        <path id="Trazado_111895" data-name="Trazado 111895" d="M726.905,1037.018a7.759,7.759,0,0,1-2.367,2.322,5.6,5.6,0,0,1-2.069,1.012c-2.359.625-5.127-.1-6.072-1.9a5.562,5.562,0,0,1-1.734-4.681,5.5,5.5,0,0,0,1.957,2.456c-2.032-1.734-.737-6.81-.737-6.81a8.089,8.089,0,0,0,2.553,4.019,17.864,17.864,0,0,1,.171-6.646C718.6,1034.071,722.336,1037.122,726.905,1037.018Z" transform="translate(-714.627 -1022.499)" fill="#77d6e0" opacity="0.33" style="mix-blend-mode: multiply;isolation: isolate"/>
        <path id="Trazado_111896" data-name="Trazado 111896" d="M722.469,1041.936c-2.359.625-5.127-.1-6.072-1.9a5.562,5.562,0,0,1-1.734-4.681,5.5,5.5,0,0,0,1.957,2.456c-2.032-1.734-.737-6.809-.737-6.809a7.532,7.532,0,0,0,.9,2.083A11.254,11.254,0,0,0,722.469,1041.936Z" transform="translate(-714.627 -1024.082)" fill="#77d6e0" opacity="0.33" style="mix-blend-mode: multiply;isolation: isolate"/>
      </g>
    </g>
    <g id="Grupo_83307" data-name="Grupo 83307" transform="translate(12.886 4.737)">
      <path id="Trazado_111897" data-name="Trazado 111897" d="M722.539,1035.035a4.022,4.022,0,0,0,1.228,1.205c1.279,1.027,3.58.776,4.225-.459a2.886,2.886,0,0,0,.9-2.429,2.856,2.856,0,0,1-1.015,1.274c1.054-.9.382-3.533.382-3.533a4.158,4.158,0,0,1-1.325,2.085,9.275,9.275,0,0,0-.089-3.449,4.006,4.006,0,0,0-1.306-2.228,6.3,6.3,0,0,1-1.078,4.39,3.794,3.794,0,0,1-.676-2.645s-1.285,2.467-.7,4.348a2.892,2.892,0,0,1-1.274-1.027A4.443,4.443,0,0,0,722.539,1035.035Z" transform="translate(-721.815 -1027.502)" fill="#77d6e0"/>
      <path id="Trazado_111898" data-name="Trazado 111898" d="M722.975,1036.378a4.022,4.022,0,0,0,1.228,1.2,2.908,2.908,0,0,0,1.074.525,2.814,2.814,0,0,0,3.151-.985,2.886,2.886,0,0,0,.9-2.429,2.857,2.857,0,0,1-1.015,1.274c1.054-.9.383-3.533.383-3.533a4.2,4.2,0,0,1-1.325,2.085,9.273,9.273,0,0,0-.089-3.449C727.285,1034.848,725.346,1036.432,722.975,1036.378Z" transform="translate(-722.251 -1028.844)" fill="#77d6e0" opacity="0.33" style="mix-blend-mode: multiply;isolation: isolate"/>
      <path id="Trazado_111899" data-name="Trazado 111899" d="M726.664,1038.929a2.814,2.814,0,0,0,3.151-.985,2.886,2.886,0,0,0,.9-2.429,2.856,2.856,0,0,1-1.015,1.274c1.054-.9.382-3.533.382-3.533a3.913,3.913,0,0,1-.467,1.081A5.841,5.841,0,0,1,726.664,1038.929Z" transform="translate(-723.638 -1029.666)" fill="#77d6e0" opacity="0.33" style="mix-blend-mode: multiply;isolation: isolate"/>
    </g>
  </g>
  <g id="Grupo_83318" data-name="Grupo 83318" transform="translate(114.363 11.944)">
    <g id="Grupo_83312" data-name="Grupo 83312" transform="translate(30.971 26.785)">
      <path id="Trazado_111900" data-name="Trazado 111900" d="M737.361,971.5v17.937l-.507.405-15.3-9.424-.507-17.531.507-.405Z" transform="translate(-721.046 -962.482)" fill="#184a61"/>
      <path id="Trazado_111901" data-name="Trazado 111901" d="M721.046,963.131v17.936l15.808,9.019V972.15Z" transform="translate(-721.046 -962.726)" fill="#184a61"/>
      <path id="Trazado_111902" data-name="Trazado 111902" d="M721.046,963.131v3.749l15.808,9.019V972.15Z" transform="translate(-721.046 -962.726)" fill="#3c869e"/>
      <g id="Grupo_83311" data-name="Grupo 83311" transform="translate(1.096 7.499)">
        <path id="Trazado_111903" data-name="Trazado 111903" d="M722.8,974.5l.007,1.247,8.589,4.976-.053-1.282Z" transform="translate(-722.803 -974.499)" fill="#feb000"/>
        <path id="Trazado_111904" data-name="Trazado 111904" d="M729.691,991.16l.008,1.247,8.589,4.976-.053-1.282Z" transform="translate(-725.393 -980.764)" fill="#feb000"/>
        <g id="Grupo_83309" data-name="Grupo 83309" transform="translate(9.584 5.559)">
          <path id="Trazado_111905" data-name="Trazado 111905" d="M738.162,983.409v1.209l3.228,1.872v-1.208Z" transform="translate(-738.162 -983.409)" fill="#77d6e0"/>
        </g>
        <g id="Grupo_83310" data-name="Grupo 83310" transform="translate(1.389 6.188)">
          <path id="Trazado_111906" data-name="Trazado 111906" d="M725.028,984.417v1.209l3.229,1.872v-1.208Z" transform="translate(-725.028 -984.417)" fill="#77d6e0"/>
        </g>
        <path id="Trazado_111907" data-name="Trazado 111907" d="M723.353,987.88v1.209l3.229,1.872v-1.209Z" transform="translate(-723.01 -979.531)" fill="#fff"/>
        <path id="Trazado_111908" data-name="Trazado 111908" d="M731.3,983.409l7.5,4.328v1.251l-7.511-4.371Z" transform="translate(-725.993 -977.85)" fill="#fff"/>
        <path id="Trazado_111909" data-name="Trazado 111909" d="M731.3,987.628l7.5,4.328v1.252l-7.511-4.371Z" transform="translate(-725.993 -979.436)" fill="#fff"/>
      </g>
    </g>
    <g id="Grupo_83317" data-name="Grupo 83317">
      <path id="Trazado_111910" data-name="Trazado 111910" d="M696.821,933.6v42.364l-.789.631L672.2,961.918l-.789-41.732.789-.631Z" transform="translate(-671.411 -919.555)" fill="#184a61"/>
      <path id="Trazado_111911" data-name="Trazado 111911" d="M671.411,920.567V962.93l24.621,14.047V934.613Z" transform="translate(-671.411 -919.935)" fill="#a9e4ea"/>
      <path id="Trazado_111912" data-name="Trazado 111912" d="M671.411,920.567v5.84l24.621,14.047v-5.839Z" transform="translate(-671.411 -919.935)" fill="#3c869e"/>
      <g id="Grupo_83316" data-name="Grupo 83316" transform="translate(2.556 12.528)">
        <g id="Grupo_83315" data-name="Grupo 83315">
          <path id="Trazado_111913" data-name="Trazado 111913" d="M675.507,939.633l.012,1.943,13.377,7.75-.082-2Z" transform="translate(-675.507 -939.633)" fill="#feb000"/>
          <path id="Trazado_111914" data-name="Trazado 111914" d="M686.236,965.58l.012,1.943,13.378,7.75-.082-2Z" transform="translate(-679.541 -949.39)" fill="#feb000"/>
          <g id="Grupo_83313" data-name="Grupo 83313" transform="translate(14.927 8.658)">
            <path id="Trazado_111915" data-name="Trazado 111915" d="M699.429,953.509v1.883l5.028,2.916v-1.882Z" transform="translate(-699.429 -953.509)" fill="#77d6e0"/>
          </g>
          <g id="Grupo_83314" data-name="Grupo 83314" transform="translate(2.163 9.638)">
            <path id="Trazado_111916" data-name="Trazado 111916" d="M678.973,955.079v1.883L684,959.877V958Z" transform="translate(-678.973 -955.079)" fill="#77d6e0"/>
          </g>
          <path id="Trazado_111917" data-name="Trazado 111917" d="M676.364,960.472v1.883l5.028,2.916v-1.882Z" transform="translate(-675.829 -947.469)" fill="#fff"/>
          <path id="Trazado_111918" data-name="Trazado 111918" d="M688.744,953.509l11.676,6.741V962.2l-11.7-6.807Z" transform="translate(-680.476 -944.85)" fill="#fff"/>
          <path id="Trazado_111919" data-name="Trazado 111919" d="M688.744,960.079l11.676,6.741v1.949l-11.7-6.807Z" transform="translate(-680.476 -947.321)" fill="#fff"/>
        </g>
        <path id="Trazado_111920" data-name="Trazado 111920" d="M675.507,966.836l.012,1.943,13.377,7.75-.082-2Z" transform="translate(-675.507 -949.862)" fill="#feb000"/>
        <path id="Trazado_111921" data-name="Trazado 111921" d="M686.236,987.343l.012,1.943,13.378,7.75-.082-2Z" transform="translate(-679.541 -957.573)" fill="#feb000"/>
        <path id="Trazado_111922" data-name="Trazado 111922" d="M699.429,980.712v1.883l5.028,2.915v-1.882Z" transform="translate(-684.502 -955.079)" fill="#77d6e0"/>
        <path id="Trazado_111923" data-name="Trazado 111923" d="M678.973,976.841v1.883L684,981.64v-1.882Z" transform="translate(-676.81 -953.624)" fill="#77d6e0"/>
        <path id="Trazado_111924" data-name="Trazado 111924" d="M676.364,982.235v1.883l5.028,2.916v-1.882Z" transform="translate(-675.829 -955.652)" fill="#fff"/>
        <path id="Trazado_111925" data-name="Trazado 111925" d="M688.744,981.842l11.676,6.741v1.949l-11.7-6.807Z" transform="translate(-680.476 -955.504)" fill="#fff"/>
      </g>
    </g>
  </g>
  <g id="Grupo_83322" data-name="Grupo 83322" transform="translate(51.834 29.639)">
    <path id="Trazado_111926" data-name="Trazado 111926" d="M580.01,996.4l-1.223.716-2.632,1.541-4.862,2.846v2.154l4.862-2.846,2.632-1.541,1.223-.716Z" transform="translate(-571.236 -966.145)" fill="#fff"/>
    <g id="Grupo_83319" data-name="Grupo 83319" transform="translate(0.058 27.231)">
      <path id="Trazado_111927" data-name="Trazado 111927" d="M598.071,992.09l-2.271,1.329-3.111,1.821-5,2.926-3.757,2.2v2.154l3.757-2.2,5-2.926,3.111-1.821,2.271-1.329.915-.536v-2.154Z" transform="translate(-576.047 -991.554)" fill="#f020d0"/>
      <path id="Trazado_111928" data-name="Trazado 111928" d="M578.519,1006.3l-2.364,1.384-4.862,2.846v2.154l4.862-2.846,2.364-1.384Z" transform="translate(-571.294 -997.098)" fill="#fff"/>
    </g>
    <g id="Grupo_83320" data-name="Grupo 83320" transform="translate(0.058 35.848)">
      <path id="Trazado_111929" data-name="Trazado 111929" d="M582.5,1016.376l-3.709,2.171-2.632,1.541-4.862,2.846v2.154l4.862-2.846,2.632-1.541,3.709-2.172Z" transform="translate(-571.294 -1009.504)" fill="#feb000"/>
      <path id="Trazado_111930" data-name="Trazado 111930" d="M600.467,1005.9l-2.271,1.329-3.111,1.822-4.776,2.8V1014l4.776-2.8,3.111-1.821,2.271-1.329.915-.536v-2.154Z" transform="translate(-578.444 -1005.363)" fill="#fff"/>
    </g>
    <g id="Grupo_83321" data-name="Grupo 83321" transform="translate(0.058 31.54)">
      <path id="Trazado_111931" data-name="Trazado 111931" d="M589.032,1006.206,586,1007.984l-4.152,2.431-2.422,1.418v2.154l2.422-1.418,4.152-2.431,3.036-1.778Z" transform="translate(-574.35 -1001.372)" fill="#fff"/>
      <path id="Trazado_111932" data-name="Trazado 111932" d="M575.7,1015.846l-4.409,2.581v2.154L575.7,1018Z" transform="translate(-571.294 -1004.997)" fill="#fff"/>
      <path id="Trazado_111933" data-name="Trazado 111933" d="M602.565,998.995l-2.271,1.329-3.111,1.821-1.3.759v2.154l1.3-.759,3.111-1.821,2.271-1.329.915-.536v-2.154Z" transform="translate(-580.541 -998.459)" fill="#fff"/>
    </g>
    <path id="Trazado_111934" data-name="Trazado 111934" d="M601.385,947.912l-.014,2.431-16.742,9.7.1-2.5Z" transform="translate(-576.25 -947.912)" fill="#feb000"/>
    <path id="Trazado_111935" data-name="Trazado 111935" d="M587.957,980.385l-.015,2.431-16.742,9.7.1-2.5Z" transform="translate(-571.201 -960.123)" fill="#fff"/>
    <path id="Trazado_111936" data-name="Trazado 111936" d="M577.752,965.278v2.357l-6.293,3.649v-2.355Z" transform="translate(-571.298 -954.442)" fill="#f020d0"/>
    <path id="Trazado_111937" data-name="Trazado 111937" d="M603.353,967.243V969.6l-6.293,3.649v-2.355Z" transform="translate(-580.925 -955.181)" fill="#f020d0"/>
    <path id="Trazado_111938" data-name="Trazado 111938" d="M606.617,973.993v2.357L600.324,980v-2.355Z" transform="translate(-582.152 -957.719)" fill="#fff"/>
    <path id="Trazado_111939" data-name="Trazado 111939" d="M618.3,967.243V969.6l-6.293,3.649v-2.355Z" transform="translate(-586.545 -955.181)" fill="#fff"/>
    <path id="Trazado_111940" data-name="Trazado 111940" d="M586.095,965.278l-14.612,8.436v2.44l14.64-8.519Z" transform="translate(-571.307 -954.442)" fill="#fff"/>
    <path id="Trazado_111941" data-name="Trazado 111941" d="M586.095,973.5l-14.612,8.436v2.44l14.64-8.52Z" transform="translate(-571.307 -957.534)" fill="#fff"/>
  </g>
  <path id="Trazado_111942" data-name="Trazado 111942" d="M631.783,964.811v-10.5l-9.229,5.368v10.6Z" transform="translate(-538.677 -920.679)" fill="#3c869e"/>
  <path id="Trazado_111943" data-name="Trazado 111943" d="M649.186,954.949v-10.5l-9.229,5.368v10.6Z" transform="translate(-545.221 -916.971)" fill="#3c869e"/>
  <path id="Trazado_111944" data-name="Trazado 111944" d="M631.783,985.694v-10.5l-9.229,5.368v10.6Z" transform="translate(-538.677 -928.531)" fill="#3c869e"/>
  <path id="Trazado_111945" data-name="Trazado 111945" d="M649.186,975.832v-10.5l-9.229,5.368v10.6Z" transform="translate(-545.221 -924.823)" fill="#3c869e"/>
  <g id="Grupo_83323" data-name="Grupo 83323" transform="translate(63.404 122.343)">
    <path id="Trazado_111946" data-name="Trazado 111946" d="M620.3,1122.274l-.1.055-15.185,8.768-.1-.055-15.183-8.768,4.626-2.71,10.439-6.112,10.8,6.15,4.6,2.618Z" transform="translate(-589.743 -1102.864)" fill="#15465c" opacity="0.33" style="mix-blend-mode: multiply;isolation: isolate"/>
    <path id="Trazado_111947" data-name="Trazado 111947" d="M605.021,1112.429l-.1,5.325-.064,3.588-15.119-8.686v-3.669l4.626-2.71Z" transform="translate(-589.743 -1100.166)" fill="#184a61"/>
    <path id="Trazado_111948" data-name="Trazado 111948" d="M629.319,1108.957l0,.109-.064,3.614-15.28,8.686.064-3.588.1-5.325,10.588-6.114Z" transform="translate(-598.854 -1100.189)" fill="#23607c"/>
    <path id="Trazado_111949" data-name="Trazado 111949" d="M620.3,1105.3l-.1.056-15.185,8.768-.1-.056-15.183-8.768,4.626-2.71,10.439-6.112,10.8,6.15,4.6,2.618Z" transform="translate(-589.743 -1096.483)" fill="#3c869e"/>
    <path id="Trazado_111950" data-name="Trazado 111950" d="M597.489,1106.98l10.249-6,10.592,6.03-10.395,6Z" transform="translate(-592.656 -1098.174)" fill="#ffc861"/>
    <path id="Trazado_111951" data-name="Trazado 111951" d="M599.7,1107.459l8.872-5.194,9.191,5.233-9,5.2Z" transform="translate(-593.488 -1098.657)" fill="#5bb7d3"/>
    <path id="Trazado_111952" data-name="Trazado 111952" d="M610.889,1109.9l2.016-1.18,2.088,1.189-2.044,1.18Z" transform="translate(-597.694 -1101.085)" fill="#bbf3fd"/>
    <path id="Trazado_111953" data-name="Trazado 111953" d="M608.575,1102.959l8.586,4.888.605-.349-9.191-5.233-8.872,5.194.6.345Z" transform="translate(-593.488 -1098.657)" fill="#184a61"/>
  </g>
  <g id="Grupo_83326" data-name="Grupo 83326" transform="translate(45.103 102.435)">
    <g id="Grupo_83324" data-name="Grupo 83324" transform="translate(0.116 11.426)">
      <path id="Trazado_111954" data-name="Trazado 111954" d="M560.6,1105.8l10.9-6.38,11.2,6.38-11.05,6.38Z" transform="translate(-560.598 -1089.105)" fill="#15465c" opacity="0.33" style="mix-blend-mode: multiply;isolation: isolate"/>
      <path id="Trazado_111955" data-name="Trazado 111955" d="M560.6,1089.269l10.9-6.38,11.2,6.38-11.05,6.38Z" transform="translate(-560.598 -1082.889)" fill="#d6fafb"/>
      <path id="Trazado_111956" data-name="Trazado 111956" d="M560.6,1099.658v-6.544l11.05,6.379-.116,6.447Z" transform="translate(-560.598 -1086.734)" fill="#77d6e0"/>
      <path id="Trazado_111957" data-name="Trazado 111957" d="M589.287,1093.114l-11.05,6.379-.116,6.447,11.05-6.281Z" transform="translate(-567.187 -1086.734)" fill="#a9e4ea"/>
    </g>
    <g id="Grupo_83325" data-name="Grupo 83325">
      <path id="Trazado_111958" data-name="Trazado 111958" d="M560.413,1070.958l10.9-6.38,11.2,6.38-11.05,6.379Z" transform="translate(-560.413 -1064.578)" fill="#bbf3fd"/>
      <path id="Trazado_111959" data-name="Trazado 111959" d="M560.413,1081.346V1074.8l11.05,6.38-.116,6.446Z" transform="translate(-560.413 -1068.422)" fill="#77d6e0"/>
      <path id="Trazado_111960" data-name="Trazado 111960" d="M589.1,1074.8l-11.05,6.38-.116,6.446,11.05-6.281Z" transform="translate(-567.002 -1068.422)" fill="#a9e4ea"/>
    </g>
  </g>
  <g id="Grupo_83332" data-name="Grupo 83332" transform="translate(88.667 78.184)">
    <path id="Trazado_111961" data-name="Trazado 111961" d="M658.31,1056.175l16.571,9.654-27.954,16.282-16.427-9.8Z" transform="translate(-630.332 -1037.167)" fill="#15465c" opacity="0.33" style="mix-blend-mode: multiply;isolation: isolate"/>
    <g id="Grupo_83327" data-name="Grupo 83327" transform="translate(28.157 12.677)">
      <rect id="Rect치ngulo_14762" data-name="Rect치ngulo 14762" width="1.009" height="18.141" transform="translate(0 0.873) rotate(-59.98)" fill="#77d6e0"/>
    </g>
    <g id="Grupo_83328" data-name="Grupo 83328" transform="translate(43.396 9.798)">
      <path id="Trazado_111962" data-name="Trazado 111962" d="M700.355,1060.867a.576.576,0,0,0,.576-.577v-18.3a.576.576,0,0,0-1.152,0v18.3A.576.576,0,0,0,700.355,1060.867Z" transform="translate(-699.779 -1041.415)" fill="#77d6e0"/>
    </g>
    <path id="Trazado_111963" data-name="Trazado 111963" d="M701,1065.662v3.723a.745.745,0,0,1-1.489,0v-3.723Z" transform="translate(-656.281 -1040.734)" fill="#1c5e7e"/>
    <g id="Grupo_83329" data-name="Grupo 83329" transform="translate(0.168 16.283)">
      <path id="Trazado_111964" data-name="Trazado 111964" d="M631.076,1071.259a.577.577,0,0,0,.577-.577v-18.3a.577.577,0,0,0-1.153,0v18.3A.577.577,0,0,0,631.076,1071.259Z" transform="translate(-630.5 -1051.807)" fill="#77d6e0"/>
    </g>
    <path id="Trazado_111965" data-name="Trazado 111965" d="M631.72,1076.054v3.723a.744.744,0,1,1-1.489,0v-3.723Z" transform="translate(-630.231 -1044.642)" fill="#1c5e7e"/>
    <g id="Grupo_83330" data-name="Grupo 83330" transform="translate(16.018 25.649)">
      <path id="Trazado_111966" data-name="Trazado 111966" d="M656.479,1086.269a.576.576,0,0,0,.577-.576v-18.3a.577.577,0,1,0-1.153,0v18.3A.576.576,0,0,0,656.479,1086.269Z" transform="translate(-655.902 -1066.817)" fill="#77d6e0"/>
    </g>
    <path id="Trazado_111967" data-name="Trazado 111967" d="M658.31,1028.252l16.571,8.069v1.585l-27.954,16.282-16.427-9.8v-1.585Z" transform="translate(-630.332 -1026.667)" fill="#a9e4ea"/>
    <path id="Trazado_111968" data-name="Trazado 111968" d="M658.31,1025.712l16.571,9.654-27.954,16.282-16.427-9.8Z" transform="translate(-630.332 -1025.712)" fill="#bbf3fd"/>
    <path id="Trazado_111969" data-name="Trazado 111969" d="M657.122,1091.064v3.723a.744.744,0,1,1-1.489,0v-3.723Z" transform="translate(-639.783 -1050.286)" fill="#1c5e7e"/>
    <g id="Grupo_83331" data-name="Grupo 83331" transform="translate(0.492 29.103)">
      <rect id="Rect치ngulo_14763" data-name="Rect치ngulo 14763" width="1.009" height="18.141" transform="matrix(0.5, -0.866, 0.866, 0.5, 0, 0.873)" fill="#77d6e0"/>
    </g>
  </g>
  <g id="Grupo_83334" data-name="Grupo 83334" transform="translate(101.257 87.956)">
    <circle id="Elipse_4085" data-name="Elipse 4085" cx="0.607" cy="0.607" r="0.607" transform="translate(11.581 7.842)" fill="#053e54"/>
    <path id="Trazado_111970" data-name="Trazado 111970" d="M660.121,1044.213l-4.763,2.8-4.95,2.148v.747l7.285,4.109,4.857-2.8,4.857-2.8v-.747Z" transform="translate(-650.408 -1042.442)" fill="#053e54"/>
    <path id="Trazado_111971" data-name="Trazado 111971" d="M670.359,1051.85l3.77-4.578.269,1.616Z" transform="translate(-657.91 -1043.592)" fill="#3c869e"/>
    <path id="Trazado_111972" data-name="Trazado 111972" d="M669.953,1045.054l-.7.846-3.048,3.7-.025.031-6.928-4.02.007-.007.066-.062,4.343-4.168Z" transform="translate(-653.735 -1041.374)" fill="#fff"/>
    <path id="Trazado_111973" data-name="Trazado 111973" d="M663,1052.174l-.2.025-4.74.6-5.483-3.046-1.788-.994,5.165-.6.121-.014h.007l.092-.011Z" transform="translate(-650.553 -1043.916)" fill="#fff"/>
    <g id="Grupo_83333" data-name="Grupo 83333" transform="translate(5.406 4.168)">
      <path id="Trazado_111974" data-name="Trazado 111974" d="M666.14,1052.114l-.025.031-.2.025-6.8-4.008-.051-.031.121-.014.065-.062.023.013Z" transform="translate(-659.072 -1048.055)" fill="#184a61"/>
    </g>
    <path id="Trazado_111975" data-name="Trazado 111975" d="M650.795,1049.142v1.77l7.271,4.065v-1.8Z" transform="translate(-650.553 -1044.295)" fill="#77d6e0"/>
    <path id="Trazado_111976" data-name="Trazado 111976" d="M662.447,1055.237v1.8l4.937-2.424Z" transform="translate(-654.935 -1046.351)" fill="#3c869e"/>
  </g>
  <g id="Grupo_83338" data-name="Grupo 83338" transform="translate(110.174 77.46)">
    <path id="Trazado_111977" data-name="Trazado 111977" d="M687.679,1087.891l-8.849,5.177-9.073-5.65,8.936-4.874Z" transform="translate(-666.601 -1046.358)" fill="#15465c" opacity="0.33" style="mix-blend-mode: multiply;isolation: isolate"/>
    <path id="Trazado_111978" data-name="Trazado 111978" d="M664.777,1084.916c.176-.616,2.9-.792,2.9-.792l2.552,1.144c-.088,1.408-.352,1.76-.968,1.76-4.048-.44-4.488-1.232-4.488-1.232A1.119,1.119,0,0,1,664.777,1084.916Z" transform="translate(-664.699 -1046.953)" fill="#053e54"/>
    <path id="Trazado_111979" data-name="Trazado 111979" d="M671.859,1082.425c.176-.616,2.9-.792,2.9-.792l2.552,1.144c-.088,1.408-.353,1.76-.968,1.76-4.048-.44-4.488-1.232-4.488-1.232A1.119,1.119,0,0,1,671.859,1082.425Z" transform="translate(-667.362 -1046.016)" fill="#053e54"/>
    <path id="Trazado_111980" data-name="Trazado 111980" d="M675.957,1061.052l-4.124,2.253-.077,1-.306,12.308c-1.689.981-2.3-.474-2.3-.474l-.907-12.375h0a1.914,1.914,0,0,1,1.633-1.811Z" transform="translate(-666.029 -1038.277)" fill="#f9b6ae"/>
    <path id="Trazado_111981" data-name="Trazado 111981" d="M678.01,1075.911c-1.592,1.13-2.336-.264-2.336-.264l-1.752-11.663-.1-.589-.025-.537h3.567l.009.758Z" transform="translate(-668.118 -1038.956)" fill="#f9b6ae"/>
    <g id="Grupo_83335" data-name="Grupo 83335" transform="translate(11.653 36.182)">
      <path id="Trazado_111982" data-name="Trazado 111982" d="M683.662,1093.354a.288.288,0,0,1-.288-.288v-10.239a.288.288,0,1,1,.577,0v10.239A.288.288,0,0,1,683.662,1093.354Z" transform="translate(-683.374 -1082.539)" fill="#77d6e0"/>
    </g>
    <path id="Trazado_111983" data-name="Trazado 111983" d="M683.239,1096.757v1.861a.372.372,0,1,0,.744,0v-1.861Z" transform="translate(-671.67 -1051.703)" fill="#1c5e7e"/>
    <g id="Grupo_83336" data-name="Grupo 83336" transform="translate(21.078 31.006)">
      <path id="Trazado_111984" data-name="Trazado 111984" d="M698.767,1085.059a.289.289,0,0,1-.288-.288v-10.239a.288.288,0,0,1,.577,0v10.239A.289.289,0,0,1,698.767,1085.059Z" transform="translate(-698.479 -1074.243)" fill="#77d6e0"/>
    </g>
    <path id="Trazado_111985" data-name="Trazado 111985" d="M698.344,1088.46v1.862a.373.373,0,0,0,.745,0v-1.862Z" transform="translate(-677.35 -1048.583)" fill="#1c5e7e"/>
    <g id="Grupo_83337" data-name="Grupo 83337" transform="translate(2.851 31.115)">
      <path id="Trazado_111986" data-name="Trazado 111986" d="M669.556,1085.232a.288.288,0,0,1-.288-.288v-10.239a.288.288,0,0,1,.577,0v10.239A.288.288,0,0,1,669.556,1085.232Z" transform="translate(-669.268 -1074.417)" fill="#77d6e0"/>
    </g>
    <path id="Trazado_111987" data-name="Trazado 111987" d="M678.873,1079.932h0a.624.624,0,0,1-.93.427l-8.747-5.145v-.88Z" transform="translate(-666.39 -1043.271)" fill="#a9e4ea"/>
    <path id="Trazado_111988" data-name="Trazado 111988" d="M680.742,1067.347l-2.524-1.28-8.957,5.2,8.957,5.279Z" transform="translate(-666.414 -1040.163)" fill="#bbf3fd"/>
    <path id="Trazado_111989" data-name="Trazado 111989" d="M669.134,1088.635v1.861a.372.372,0,0,0,.744,0v-1.861Z" transform="translate(-666.366 -1048.649)" fill="#1c5e7e"/>
    <path id="Trazado_111990" data-name="Trazado 111990" d="M669.1,1051.792a1.536,1.536,0,0,0-.1-1.222c-.352-.437-.7.213-.7.213-1.358-1.055-1.634-.534-1.634-.534-.874.7-.522,1.14-.522,1.14.248.632,2,1.565,2,1.565Z" transform="translate(-665.215 -1034.167)" fill="#f4c2ab"/>
    <path id="Trazado_111991" data-name="Trazado 111991" d="M693,1038.05c.963-.1,1.808.391,2.067,2.979s.178,7.09.178,7.09l-1.754,8.1-1.935-.259.822-8.207-.91-6.444S691.069,1038.243,693,1038.05Z" transform="translate(-674.75 -1029.623)" fill="#ffc861"/>
    <path id="Trazado_111992" data-name="Trazado 111992" d="M681.834,1069.853c-6.309,3.562-12.925-5.049-13.49-5.806-.025-.036-.039-.054-.039-.054l.923-1.14a8.812,8.812,0,0,1,7.525-3.24l8.568-1.538c.072.192.141.38.2.568C688.3,1066.834,681.834,1069.853,681.834,1069.853Z" transform="translate(-666.055 -1037.157)" fill="#f124d1"/>
    <path id="Trazado_111993" data-name="Trazado 111993" d="M681.858,1070.2c-6.309,3.562-12.926-5.049-13.49-5.806,8.25,5.068,14.689,4.919,17.179-5.4C688.327,1067.177,681.858,1070.2,681.858,1070.2Z" transform="translate(-666.078 -1037.5)" fill="#f124d1" opacity="0.44" style="mix-blend-mode: multiply;isolation: isolate"/>
    <path id="Trazado_111994" data-name="Trazado 111994" d="M680.862,1042.408l.739,2.9a12.74,12.74,0,0,1-.739,8.4h0s7.216,1.149,10.009-2.775l-.154-.922a13.784,13.784,0,0,1-.655-6.435l.655-4.8a2.64,2.64,0,0,0-.731-1.347,1.971,1.971,0,0,0-1.131-.552,2.033,2.033,0,0,0-1.241.233l-5.346,2.922a2.7,2.7,0,0,0-1.406,2.37Z" transform="translate(-670.776 -1029.183)" fill="#feb000"/>
    <path id="Trazado_111995" data-name="Trazado 111995" d="M677.517,1042.752c.967.052,1.727.663,1.587,3.26-.081,1.515-.58,4.652-.982,7a2.076,2.076,0,0,1-3.1,1.438l-5.991-4.117,1.353-1.8,4.961,2.706.162-5.5S675.584,1042.648,677.517,1042.752Z" transform="translate(-666.327 -1031.394)" fill="#ffc861"/>
    <path id="Trazado_111996" data-name="Trazado 111996" d="M682.536,1028.095s-.616,6.776,2.024,6.16,3.344-3.784,3.344-3.784l-1.848-2.376Z" transform="translate(-671.383 -1025.884)" fill="#f9b6ae"/>
    <path id="Trazado_111997" data-name="Trazado 111997" d="M686.716,1035.495l-.264,2.816s2.024.616,2.9-.352v-2.464Z" transform="translate(-672.879 -1028.667)" fill="#f4c2ab"/>
    <path id="Trazado_111998" data-name="Trazado 111998" d="M684.15,1032.243a.994.994,0,1,0,.994-.995A.994.994,0,0,0,684.15,1032.243Z" transform="translate(-672.013 -1027.07)" fill="#f4c2ab"/>
    <path id="Trazado_111999" data-name="Trazado 111999" d="M687.795,1027.346a3.4,3.4,0,0,0-.325-1.023c-1.056-2.024-4.488-1.76-4.488-1.76s-1.76.352-1.76,1.584a2.074,2.074,0,0,0,1.135,1.658c1.017,4.111-1.741,5.69-1.741,5.69s4.453,2.457,7.216-.153C689.939,1031.352,688.567,1028.561,687.795,1027.346Z" transform="translate(-670.684 -1024.552)" fill="#053e54"/>
    <path id="Trazado_112000" data-name="Trazado 112000" d="M683.487,1071.645l3.039-12.476,9.357-5.918.76.52-3.879,12.516-8.517,5.8Z" transform="translate(-671.764 -1035.343)" fill="#a9e4ea"/>
    <path id="Trazado_112001" data-name="Trazado 112001" d="M684.769,1072.414l3.039-12.476,9.357-5.918-3.119,13.036Z" transform="translate(-672.246 -1035.632)" fill="#bbf3fd"/>
  </g>
  <path id="Trazado_112002" data-name="Trazado 112002" d="M631.783,943.927v-10.5l-9.229,5.368v10.6Z" transform="translate(-538.677 -912.826)" fill="#3c869e"/>
  <path id="Trazado_112003" data-name="Trazado 112003" d="M649.186,934.066v-10.5l-9.229,5.368v10.6Z" transform="translate(-545.221 -909.118)" fill="#3c869e"/>
</svg>
