<svg xmlns="http://www.w3.org/2000/svg" width="124.164" height="116.985" viewBox="0 0 124.164 116.985">
  <g id="Grupo_90965" data-name="Grupo 90965" transform="translate(-180.113 -184.5)">
    <path id="Trazado_144969" data-name="Trazado 144969" d="M301.721,273.985l-43.884-80.609a18.22,18.22,0,0,0-31.283,0l-43.884,80.609a18.166,18.166,0,0,0-.145,18.334,17.949,17.949,0,0,0,15.786,9.167h87.768a17.949,17.949,0,0,0,15.786-9.167A18.166,18.166,0,0,0,301.721,273.985Z" transform="translate(0 0)" fill="#495a79"/>
    <path id="Trazado_144970" data-name="Trazado 144970" d="M315.671,292.319a17.949,17.949,0,0,1-15.786,9.167H256V184.5a18.162,18.162,0,0,1,15.642,8.876l43.884,80.609A18.166,18.166,0,0,1,315.671,292.319Z" transform="translate(-13.805 0)" fill="#42516d"/>
    <path id="Trazado_144971" data-name="Trazado 144971" d="M297.082,279.313,253.2,198.7a10.948,10.948,0,0,0-18.77,0l-43.884,80.609a10.96,10.96,0,0,0,9.386,16.515H287.7a10.959,10.959,0,0,0,9.385-16.515Z" transform="translate(-1.618 -1.618)" fill="#ffde33"/>
    <path id="Trazado_144972" data-name="Trazado 144972" d="M309.342,290.3a10.736,10.736,0,0,1-9.458,5.529H256V193.393a10.8,10.8,0,0,1,9.385,5.311l43.884,80.609A10.8,10.8,0,0,1,309.342,290.3Z" transform="translate(-13.805 -1.618)" fill="#ffbc33"/>
    <g id="Grupo_90963" data-name="Grupo 90963" transform="translate(234.919 214.183)">
      <path id="Trazado_144973" data-name="Trazado 144973" d="M254.382,306.478a7.275,7.275,0,1,1,7.275-7.275A7.285,7.285,0,0,1,254.382,306.478Z" transform="translate(-247.107 -233.727)" fill="#495a79"/>
      <path id="Trazado_144974" data-name="Trazado 144974" d="M261.657,264.435a7.275,7.275,0,0,1-14.55,0V228.059a7.275,7.275,0,0,1,14.55,0Z" transform="translate(-247.107 -220.784)" fill="#495a79"/>
    </g>
    <g id="Grupo_90964" data-name="Grupo 90964" transform="translate(242.195 214.183)">
      <path id="Trazado_144975" data-name="Trazado 144975" d="M263.275,299.2A7.285,7.285,0,0,0,256,291.928v14.55A7.285,7.285,0,0,0,263.275,299.2Z" transform="translate(-256 -233.727)" fill="#42516d"/>
      <path id="Trazado_144976" data-name="Trazado 144976" d="M263.275,264.435V228.059A7.285,7.285,0,0,0,256,220.784V271.71A7.285,7.285,0,0,0,263.275,264.435Z" transform="translate(-256 -220.784)" fill="#42516d"/>
    </g>
  </g>
</svg>
