<svg xmlns="http://www.w3.org/2000/svg" width="65.333" height="80" viewBox="0 0 65.333 80">
  <g id="Grupo_92177" data-name="Grupo 92177" transform="translate(-223.4 -216)">
    <path id="Trazado_147569" data-name="Trazado 147569" d="M235.4,217.334a10.7,10.7,0,0,0-1.334.092c-2.99.015-6.084,2.505-7.625,4.906a11.947,11.947,0,0,0-1.708,6.726v52.248A2.7,2.7,0,0,0,227.425,284h58.641V217.334Z" fill="#b02721"/>
    <path id="Trazado_147570" data-name="Trazado 147570" d="M235.4,270.667a10.667,10.667,0,1,0,0,21.333h52V270.667Z" fill="#f2ecbf"/>
    <path id="Trazado_147571" data-name="Trazado 147571" d="M235.4,276a5.333,5.333,0,0,0,0,10.667h9.333v-5.334h8v5.334H287.4V276Z" fill="#c6b864"/>
    <path id="Trazado_147572" data-name="Trazado 147572" d="M224.733,228v53.333A10.7,10.7,0,0,1,235.4,270.667h52V217.334h-52A10.7,10.7,0,0,0,224.733,228Z" fill="#dd352e"/>
    <path id="Trazado_147573" data-name="Trazado 147573" d="M234.066,217.426A10.7,10.7,0,0,0,224.733,228v53.333a10.7,10.7,0,0,1,9.333-10.573Z" fill="#b02721"/>
    <path id="Trazado_147574" data-name="Trazado 147574" d="M224.733,237.147v8.186a10.7,10.7,0,0,1,9.333-10.573v-8.187A10.7,10.7,0,0,0,224.733,237.147Z" fill="#870000"/>
    <path id="Trazado_147575" data-name="Trazado 147575" d="M224.733,258.573v8.187a10.7,10.7,0,0,1,9.333-10.573V248A10.7,10.7,0,0,0,224.733,258.573Z" fill="#870000"/>
    <path id="Trazado_147576" data-name="Trazado 147576" d="M252.733,294.666l-4-4-4,4V280h8Z" fill="#366db6"/>
    <path id="Trazado_147577" data-name="Trazado 147577" d="M282.066,244a21.333,21.333,0,1,1-21.333-21.333A21.333,21.333,0,0,1,282.066,244Z" fill="#fff"/>
    <path id="Trazado_147578" data-name="Trazado 147578" d="M272.6,233.43l.137-.1-4-4c-4,2.667-8,0-8,0s-4,2.667-8,0l-4,4,.137.1a6.919,6.919,0,0,1,1.7,9.32,10.214,10.214,0,0,0-1.836,5.25,4.67,4.67,0,0,0,2.216,3.98c3.468,2.146,9.784,6.45,9.784,9.353,0-2.9,6.316-7.207,9.784-9.353a4.67,4.67,0,0,0,2.216-3.98,10.2,10.2,0,0,0-1.836-5.25A6.92,6.92,0,0,1,272.6,233.43Z" fill="#ebba16"/>
    <g id="Grupo_92176" data-name="Grupo 92176">
      <path id="Trazado_147579" data-name="Trazado 147579" d="M224.733,282.667a1.334,1.334,0,0,1-1.333-1.334V228a12.013,12.013,0,0,1,12-12h52a1.335,1.335,0,0,1,1.333,1.334v53.333A1.334,1.334,0,0,1,287.4,272h-52a9.344,9.344,0,0,0-9.334,9.333A1.334,1.334,0,0,1,224.733,282.667Zm10.667-64A9.344,9.344,0,0,0,226.066,228v45.8a11.992,11.992,0,0,1,9.334-4.465h50.666V218.667Z"/>
      <path id="Trazado_147580" data-name="Trazado 147580" d="M244.733,282.667H235.4a1.333,1.333,0,1,1,0-2.667h9.333a1.333,1.333,0,0,1,0,2.667Z"/>
      <path id="Trazado_147581" data-name="Trazado 147581" d="M260.733,282.667h-8a1.333,1.333,0,0,1,0-2.667h8a1.333,1.333,0,0,1,0,2.667Z"/>
      <path id="Trazado_147582" data-name="Trazado 147582" d="M287.4,282.667h-6.667a1.333,1.333,0,0,1,0-2.667H287.4a1.333,1.333,0,0,1,0,2.667Z"/>
      <path id="Trazado_147583" data-name="Trazado 147583" d="M224.733,282.667a1.334,1.334,0,0,1-1.333-1.334V228a12.019,12.019,0,0,1,10.5-11.9,1.334,1.334,0,0,1,1.5,1.322V270.76a1.333,1.333,0,0,1-1.167,1.323,9.346,9.346,0,0,0-8.167,9.25A1.334,1.334,0,0,1,224.733,282.667Zm8-63.6A9.352,9.352,0,0,0,226.066,228v45.809a12.01,12.01,0,0,1,6.667-4.166Z"/>
      <path id="Trazado_147584" data-name="Trazado 147584" d="M224.733,246.667a1.333,1.333,0,0,1-1.333-1.334v-8.186a12.02,12.02,0,0,1,10.5-11.9,1.334,1.334,0,0,1,1.5,1.323v8.187a1.332,1.332,0,0,1-1.167,1.322,9.348,9.348,0,0,0-8.167,9.251A1.333,1.333,0,0,1,224.733,246.667Zm8-18.454a9.352,9.352,0,0,0-6.667,8.935v.663a12.006,12.006,0,0,1,6.667-4.167Z"/>
      <path id="Trazado_147585" data-name="Trazado 147585" d="M224.733,268.094a1.334,1.334,0,0,1-1.333-1.334v-8.187a12.019,12.019,0,0,1,10.5-11.9A1.333,1.333,0,0,1,235.4,248v8.187a1.332,1.332,0,0,1-1.167,1.322,9.347,9.347,0,0,0-8.167,9.251A1.334,1.334,0,0,1,224.733,268.094Zm8-18.455a9.35,9.35,0,0,0-6.667,8.934v.663a12.006,12.006,0,0,1,6.667-4.167Z"/>
      <path id="Trazado_147586" data-name="Trazado 147586" d="M252.733,296a1.335,1.335,0,0,1-.943-.391l-3.057-3.057-3.057,3.057a1.333,1.333,0,0,1-2.276-.943V281.333A1.333,1.333,0,0,1,244.733,280h8a1.333,1.333,0,0,1,1.333,1.333v13.333a1.337,1.337,0,0,1-.822,1.233A1.36,1.36,0,0,1,252.733,296Zm-4-6.667a1.331,1.331,0,0,1,.943.391l1.724,1.724v-8.781h-5.334v8.781l1.725-1.724A1.329,1.329,0,0,1,248.733,289.333Z"/>
      <path id="Trazado_147587" data-name="Trazado 147587" d="M287.4,288H252.733a1.333,1.333,0,0,1-1.333-1.333v-4h-5.334v4A1.333,1.333,0,0,1,244.733,288H235.4a6.667,6.667,0,0,1,0-13.334h52A1.335,1.335,0,0,1,288.733,276v10.667A1.334,1.334,0,0,1,287.4,288Zm-33.334-2.667h32v-8H235.4a4,4,0,1,0,0,8h8v-4A1.333,1.333,0,0,1,244.733,280h8a1.333,1.333,0,0,1,1.333,1.333Z"/>
      <path id="Trazado_147588" data-name="Trazado 147588" d="M287.4,293.333H252.733A1.333,1.333,0,0,1,251.4,292v-9.333h-5.334V292a1.333,1.333,0,0,1-1.333,1.333H235.4a12,12,0,1,1,0-24h52a1.335,1.335,0,0,1,1.333,1.334V292A1.334,1.334,0,0,1,287.4,293.333Zm-33.334-2.666h32V272H235.4a9.333,9.333,0,1,0,0,18.667h8v-9.334A1.333,1.333,0,0,1,244.733,280h8a1.333,1.333,0,0,1,1.333,1.333Z"/>
      <path id="Trazado_147589" data-name="Trazado 147589" d="M260.733,266.667A22.667,22.667,0,1,1,283.4,244,22.691,22.691,0,0,1,260.733,266.667Zm0-42.667a20,20,0,1,0,20,20A20.023,20.023,0,0,0,260.733,224Z"/>
      <path id="Trazado_147590" data-name="Trazado 147590" d="M260.733,262.667a1.334,1.334,0,0,1-1.333-1.334c0-1.273-2.829-4.308-9.152-8.218A5.976,5.976,0,0,1,247.4,248a11.238,11.238,0,0,1,2.047-5.969,5.582,5.582,0,0,0-1.362-7.523,1.443,1.443,0,0,1-.636-1.009,1.364,1.364,0,0,1,.342-1.109l4-4a1.334,1.334,0,0,1,1.683-.167,6.181,6.181,0,0,0,6.522,0,1.33,1.33,0,0,1,1.478,0,6.149,6.149,0,0,0,6.522,0,1.333,1.333,0,0,1,1.682.167l4,4a1.335,1.335,0,0,1-.209,2.058l-.084.06a5.58,5.58,0,0,0-1.363,7.523A11.251,11.251,0,0,1,274.066,248a5.976,5.976,0,0,1-2.848,5.115c-6.322,3.91-9.152,6.945-9.152,8.218A1.334,1.334,0,0,1,260.733,262.667ZM250.7,233.255a8.269,8.269,0,0,1,.995,10.216A8.8,8.8,0,0,0,250.067,248a3.327,3.327,0,0,0,1.584,2.847q6.669,4.125,9.082,7.3,2.4-3.159,9.083-7.3A3.327,3.327,0,0,0,271.4,248a8.8,8.8,0,0,0-1.626-4.529,8.271,8.271,0,0,1,1-10.216L268.515,231a8.735,8.735,0,0,1-7.782-.143,8.723,8.723,0,0,1-7.781.143Z"/>
      <path id="Trazado_147591" data-name="Trazado 147591" d="M264.733,241.333h-8a1.333,1.333,0,1,1,0-2.666h8a1.333,1.333,0,1,1,0,2.666Z"/>
      <path id="Trazado_147592" data-name="Trazado 147592" d="M264.733,246.667h-8a1.334,1.334,0,0,1,0-2.667h8a1.334,1.334,0,0,1,0,2.667Z"/>
    </g>
  </g>
</svg>
