<svg xmlns="http://www.w3.org/2000/svg" width="85.201" height="86" viewBox="0 0 85.201 86">
  <g id="Filledotuline" transform="translate(-211.17 -213)">
    <path id="Trazado_144977" data-name="Trazado 144977" d="M222.637,293.267v-73.1h47.3L279.97,230.2v63.067Z" fill="#85bb40"/>
    <path id="Trazado_144978" data-name="Trazado 144978" d="M222.637,220.167l57.333,73.1H222.637Z" fill="#85b140"/>
    <path id="Trazado_144979" data-name="Trazado 144979" d="M269.937,220.167V230.2H279.97Z" fill="#d1df87"/>
    <path id="Trazado_144980" data-name="Trazado 144980" d="M254.17,268.9v28.667H216.9V268.9l18.634-10.033Z" fill="#e4e4e3"/>
    <path id="Trazado_144981" data-name="Trazado 144981" d="M224.07,277.5h8.6v20.067h-8.6Z" fill="#0093b9"/>
    <path id="Trazado_144982" data-name="Trazado 144982" d="M238.4,280.367H247v7.166h-8.6Z" fill="#0093b9"/>
    <path id="Trazado_144983" data-name="Trazado 144983" d="M254.17,268.9v3.852L235.537,264.6,216.9,272.752V268.9l18.634-10.033Z" fill="#cacac9"/>
    <path id="Trazado_144984" data-name="Trazado 144984" d="M212.6,264.6l22.934-10.033L258.47,264.6v7.167l-22.933-10.034L212.6,271.767Z" fill="#0093b9"/>
    <path id="Trazado_144985" data-name="Trazado 144985" d="M257.037,281.8c-2.867,0-4.3,2.867-4.3,5.733s-2.867,2.867-2.867,5.775,2.867,4.259,4.3,4.259H259.9c1.434,0,4.3-1.351,4.3-4.259s-2.866-2.908-2.866-5.775S259.9,281.8,257.037,281.8Z" fill="#0093b9"/>
    <path id="Trazado_144986" data-name="Trazado 144986" d="M294.435,245.616l-23.286,34.432-5.587,3.143.838-6.355L289.686,242.4a2.867,2.867,0,1,1,4.749,3.212Z" fill="#fbbe1f"/>
    <path id="Trazado_144987" data-name="Trazado 144987" d="M224.07,221.6h4.3v5.733a4.3,4.3,0,0,0,8.6,0v-2.866H234.1v2.866a1.433,1.433,0,1,1-2.866,0v-8.6a2.867,2.867,0,0,1,5.733,0H234.1V221.6h34.4v8.6a1.433,1.433,0,0,0,1.434,1.433h8.6v17.2H281.4V230.2a1.434,1.434,0,0,0-.42-1.014L270.95,219.153a1.432,1.432,0,0,0-1.013-.42h-30.1a5.734,5.734,0,0,0-11.467,0h-5.733a1.434,1.434,0,0,0-1.434,1.434v34.4h2.867Zm47.3,2.027,5.14,5.14h-5.14Z"/>
    <path id="Trazado_144988" data-name="Trazado 144988" d="M278.537,291.833H268.5V294.7H279.97a1.434,1.434,0,0,0,1.433-1.433V274.633h-2.866Z"/>
    <path id="Trazado_144989" data-name="Trazado 144989" d="M238.4,278.933a1.434,1.434,0,0,0-1.433,1.434v7.166a1.434,1.434,0,0,0,1.433,1.434H247a1.434,1.434,0,0,0,1.434-1.434v-7.166A1.434,1.434,0,0,0,247,278.933Zm7.167,7.167h-5.733v-4.3h5.733Z"/>
    <path id="Trazado_144990" data-name="Trazado 144990" d="M226.937,270.333H229.8V273.2h-2.866Z"/>
    <path id="Trazado_144991" data-name="Trazado 144991" d="M262.77,287.533c0-3.561-1.97-7.166-5.733-7.166s-5.734,3.6-5.734,7.166c0,.8-.309,1.15-1.009,1.855a5.17,5.17,0,0,0-1.857,3.92,5.344,5.344,0,0,0,.792,2.825H234.1V277.5a1.433,1.433,0,0,0-1.433-1.433h-8.6a1.432,1.432,0,0,0-1.433,1.433v18.633h-4.3v-25.31l17.2-7.525,17.2,7.525v8.11H255.6v-6.856l2.292,1a1.433,1.433,0,0,0,2.008-1.313V264.6a1.433,1.433,0,0,0-.859-1.313l-22.933-10.033a1.427,1.427,0,0,0-1.149,0l-22.933,10.033a1.433,1.433,0,0,0-.859,1.313v7.167a1.434,1.434,0,0,0,2.008,1.313l2.292-1v24.056h-4.3V299H259.9a6.163,6.163,0,0,0,3.571-1.344,5.441,5.441,0,0,0,2.163-4.348,5.17,5.17,0,0,0-1.858-3.92c-.7-.7-1.009-1.051-1.009-1.855Zm-48.733-17.958v-4.038l21.5-9.406,21.5,9.406v4.038l-1.434-.627V268.9h-.109l-19.383-8.48a1.435,1.435,0,0,0-1.149,0L215.58,268.9h-.11v.048Zm11.466,9.358h5.734v17.2H225.5Zm34.4,17.2H254.17a3.089,3.089,0,0,1-2.867-2.825c0-.833.314-1.185,1.025-1.9a5.123,5.123,0,0,0,1.842-3.874c0-3.4,1.875-4.3,2.867-4.3,2.267,0,2.866,2.813,2.866,4.3a5.123,5.123,0,0,0,1.842,3.874c.71.717,1.025,1.068,1.025,1.9A3.089,3.089,0,0,1,259.9,296.133Z"/>
    <path id="Trazado_144992" data-name="Trazado 144992" d="M292.234,251.428l3.388-5.009a4.3,4.3,0,1,0-7.1-4.849l-.021.031-23.286,34.432a1.438,1.438,0,0,0-.233.615L264.142,283a1.433,1.433,0,0,0,2.124,1.436l5.586-3.143a1.429,1.429,0,0,0,.484-.447l18.243-26.974,1.973,2.2-5.8,8.572,2.375,1.606,6.424-9.5a1.434,1.434,0,0,0-.121-1.76Zm-1.362-8.221a1.434,1.434,0,1,1,2.382,1.6l-.007.01-2.986,4.416-1.974-2.2Zm-20.72,35.757-2.794,1.572.419-3.178L271.6,271.7l2.375,1.606Zm5.431-8.03-2.375-1.606,13.425-19.852,1.973,2.2Z"/>
    <path id="Trazado_144993" data-name="Trazado 144993" d="M232.67,235.933h2.867V238.8H232.67Z"/>
    <path id="Trazado_144994" data-name="Trazado 144994" d="M238.4,235.933h34.4V238.8H238.4Z"/>
    <path id="Trazado_144995" data-name="Trazado 144995" d="M229.8,241.667h43v2.866h-43Z"/>
    <path id="Trazado_144996" data-name="Trazado 144996" d="M229.8,247.4h43v2.867h-43Z"/>
    <path id="Trazado_144997" data-name="Trazado 144997" d="M251.3,253.133h21.5V256H251.3Z"/>
    <path id="Trazado_144998" data-name="Trazado 144998" d="M262.77,258.867h4.3v2.866h-4.3Z"/>
  </g>
</svg>
