<svg xmlns="http://www.w3.org/2000/svg" width="85" height="85" viewBox="0 0 85 85">
  <g id="Grupo_54898" data-name="Grupo 54898" transform="translate(-5115.163 476.971)">
    <circle id="Elipse_4175" data-name="Elipse 4175" cx="42.5" cy="42.5" r="42.5" transform="translate(5115.163 -476.971)" fill="#ffd947"/>
    <rect id="Rect치ngulo_6240" data-name="Rect치ngulo 6240" width="5.524" height="13.95" transform="translate(5154.675 -413.965)" fill="#f5f5f5"/>
    <rect id="Rect치ngulo_6241" data-name="Rect치ngulo 6241" width="2.96" height="13.95" transform="translate(5154.675 -413.965)" fill="#cfd8dc"/>
    <path id="Trazado_103143" data-name="Trazado 103143" d="M5278.308-3.261v-7.152a2.032,2.032,0,0,1,2.033-2.032h28.809a2.033,2.033,0,0,1,2.032,2.032v7.152a.908.908,0,0,1-.909.908h-31.057A.908.908,0,0,1,5278.308-3.261Z" transform="translate(-137.307 -390.728)" fill="#f5f5f5"/>
    <path id="Trazado_103144" data-name="Trazado 103144" d="M5286.612-12.445h-6.3a2.033,2.033,0,0,0-2.008,2.031v7.152a.908.908,0,0,0,.908.908h5.364v-8.06A2.034,2.034,0,0,1,5286.612-12.445Z" transform="translate(-137.307 -390.728)" fill="#cfd8dc"/>
    <path id="Trazado_103145" data-name="Trazado 103145" d="M5307.692-193.172a13.078,13.078,0,0,1-8.822-3.418,13.085,13.085,0,0,1-4.227-8.381l-.139-1.394h27.743l-.139,1.394a13.085,13.085,0,0,1-4.227,8.381,13.078,13.078,0,0,1-8.822,3.418Z" transform="translate(-150.939 -227.52)" fill="#e8e8e8"/>
    <path id="Trazado_103146" data-name="Trazado 103146" d="M5300.1-206.369h-5.077a.312.312,0,0,0-.311.344l.105,1.051c.017.166.038.331.061.495.01.074.021.149.033.223s.022.131.034.2q.053.311.122.617h0a13.1,13.1,0,0,0,3.977,6.848,13.078,13.078,0,0,0,8.821,3.418h1.389a.312.312,0,0,0,.092-.609,13.086,13.086,0,0,1-4.88-2.809,13.132,13.132,0,0,1-2.652-3.353,2.348,2.348,0,0,1,2.044-3.5h17.921a.312.312,0,0,0,.307-.248,12.937,12.937,0,0,0,.2-1.285l.1-1.051a.312.312,0,0,0-.311-.344H5300.1Z" transform="translate(-151.114 -227.517)" fill="#afafaf"/>
    <path id="Trazado_103147" data-name="Trazado 103147" d="M5371.336-179.394a1.932,1.932,0,0,1-1.93-1.93,1.932,1.932,0,0,1,1.93-1.93,1.932,1.932,0,0,1,1.93,1.93A1.932,1.932,0,0,1,5371.336-179.394Z" transform="translate(-213.977 -246.971)" fill="#00cca7"/>
    <path id="Trazado_103148" data-name="Trazado 103148" d="M5294.973-350.222v-10.214a13.813,13.813,0,0,1,13.8-13.8,13.813,13.813,0,0,1,13.8,13.8v10.214Z" transform="translate(-151.332 -86.238)" fill="#00ffd1"/>
    <path id="Trazado_103149" data-name="Trazado 103149" d="M5308.51-374.221l-.161,0a14.1,14.1,0,0,0-13.376,13.987v10.011a.008.008,0,0,0,.008.007h5.407a.008.008,0,0,0,.008-.007v-10.207a13.817,13.817,0,0,1,8.358-12.68A.582.582,0,0,0,5308.51-374.221Z" transform="translate(-151.332 -86.248)" fill="#00cca7"/>
    <path id="Trazado_103150" data-name="Trazado 103150" d="M5280.625-230a2.32,2.32,0,0,1-2.317-2.317,2.32,2.32,0,0,1,2.317-2.317h28.239a2.32,2.32,0,0,1,2.317,2.317,2.32,2.32,0,0,1-2.317,2.317Z" transform="translate(-137.307 -203.731)" fill="#f200d4"/>
    <path id="Trazado_103151" data-name="Trazado 103151" d="M5283.729-232.314a2.32,2.32,0,0,1,2.317-2.317h-5.421a2.32,2.32,0,0,0-2.317,2.317,2.32,2.32,0,0,0,2.317,2.317h5.421A2.32,2.32,0,0,1,5283.729-232.314Z" transform="translate(-137.307 -203.731)" fill="#b3009d"/>
    <g id="Grupo_54826" data-name="Grupo 54826" transform="translate(5151.064 -454.235)">
      <path id="Trazado_103152" data-name="Trazado 103152" d="M5394.46-332.325l-1.651,1.651a.516.516,0,0,1-.729,0l-1.651-1.651a.516.516,0,0,1,0-.729l1.651-1.651a.516.516,0,0,1,.729,0l1.651,1.651A.516.516,0,0,1,5394.46-332.325Z" transform="translate(-5382.608 334.856)" fill="#00cca7"/>
      <path id="Trazado_103153" data-name="Trazado 103153" d="M5422.96-303.825l-1.651,1.651a.516.516,0,0,1-.729,0l-1.65-1.651a.515.515,0,0,1,0-.729l1.65-1.651a.516.516,0,0,1,.729,0l1.651,1.651A.515.515,0,0,1,5422.96-303.825Z" transform="translate(-5406.595 310.87)" fill="#00cca7"/>
      <path id="Trazado_103154" data-name="Trazado 103154" d="M5392.3-273.164l-1.651,1.651a.515.515,0,0,1-.729,0l-1.651-1.651a.515.515,0,0,1,0-.729l1.651-1.651a.515.515,0,0,1,.729,0l1.651,1.651A.515.515,0,0,1,5392.3-273.164Z" transform="translate(-5380.79 285.065)" fill="#00cca7"/>
      <path id="Trazado_103155" data-name="Trazado 103155" d="M5345.931-313.46l-1.524,1.524a.605.605,0,0,1-.856,0l-1.524-1.524a.606.606,0,0,1,0-.856l1.524-1.524a.605.605,0,0,1,.856,0l1.524,1.524A.606.606,0,0,1,5345.931-313.46Z" transform="translate(-5341.849 319.001)" fill="#00cca7"/>
    </g>
    <path id="Trazado_103156" data-name="Trazado 103156" d="M5430.407-395.755a1.189,1.189,0,0,0,1.189,1.189,1.189,1.189,0,0,0,1.189-1.189,13.153,13.153,0,0,0-13.139-13.138,1.189,1.189,0,0,0-1.188,1.189,1.189,1.189,0,0,0,1.188,1.189A10.773,10.773,0,0,1,5430.407-395.755Z" transform="translate(-255.261 -57.067)" fill="#12263f"/>
    <path id="Trazado_103157" data-name="Trazado 103157" d="M5419.646-453.715a1.189,1.189,0,0,0-1.188,1.189,1.189,1.189,0,0,0,1.188,1.189,17.88,17.88,0,0,1,17.86,17.859,1.189,1.189,0,0,0,1.188,1.189,1.189,1.189,0,0,0,1.189-1.189A20.26,20.26,0,0,0,5419.646-453.715Z" transform="translate(-255.261 -19.344)" fill="#12263f"/>
    <path id="Trazado_103158" data-name="Trazado 103158" d="M5262.736-314.009h-8.816V-320.8a3.142,3.142,0,0,0-3.142-3.142h-10.533v-8.764a21.5,21.5,0,0,0,17.6-21.119V-355.7a1.189,1.189,0,0,0-1.188-1.189h-2.947a3.441,3.441,0,0,0-2.426-2.146v-3.086a1.189,1.189,0,0,0-1.189-1.189h0a1.189,1.189,0,0,0-1.188,1.189v2.994h-25.059v-7.048a12.7,12.7,0,0,1,12.529-12.684,12.549,12.549,0,0,1,12.28,10.051,1.188,1.188,0,0,0,1.164.957h0a1.188,1.188,0,0,0,1.168-1.415,14.934,14.934,0,0,0-14.543-11.97,15.1,15.1,0,0,0-14.981,15.095v7.107a3.439,3.439,0,0,0-2.426,2.146h-2.947a1.189,1.189,0,0,0-1.189,1.189v1.878a21.5,21.5,0,0,0,17.6,21.119v8.764H5221.97a3.142,3.142,0,0,0-3.142,3.142v6.792h-8.636a1.222,1.222,0,0,0-1.238,1.152,1.189,1.189,0,0,0,1.188,1.225h52.645a1.189,1.189,0,0,0,1.188-1.225A1.222,1.222,0,0,0,5262.736-314.009Zm-40.482-42.744h28.239a1.05,1.05,0,0,1,1.049,1.049,1.05,1.05,0,0,1-1.049,1.049h-28.239a1.051,1.051,0,0,1-1.049-1.049A1.051,1.051,0,0,1,5222.254-356.753Zm26.59,4.476a11.862,11.862,0,0,1-11.787,10.657h-1.368a11.863,11.863,0,0,1-11.787-10.657Zm-31.562-1.549v-.689h1.758a3.439,3.439,0,0,0,2.469,2.156,14.242,14.242,0,0,0,14.18,13.117h1.368a14.242,14.242,0,0,0,14.181-13.117,3.441,3.441,0,0,0,2.469-2.156h1.758v.689a19.114,19.114,0,0,1-19.092,19.092A19.113,19.113,0,0,1,5217.282-353.826Zm20.586,21.469v8.414h-2.988v-8.414Zm13.674,18.348h-30.337V-320.8a.765.765,0,0,1,.765-.764h28.809a.766.766,0,0,1,.765.764v6.792Z" transform="translate(-78.936 -80.34)" fill="#12263f"/>
  </g>
</svg>
