<svg id="Grupo_53764" data-name="Grupo 53764" xmlns="http://www.w3.org/2000/svg" xmlns:xlink="http://www.w3.org/1999/xlink" width="399.93" height="141" viewBox="0 0 399.93 141">
  <defs>
    <clipPath id="clip-path">
      <rect id="Rectángulo_5172" data-name="Rectángulo 5172" width="399.93" height="141" fill="none"/>
    </clipPath>
    <linearGradient id="linear-gradient" y1="0.5" x2="1" y2="0.5" gradientUnits="objectBoundingBox">
      <stop offset="0" stop-color="#3e815b"/>
      <stop offset="1" stop-color="#277455"/>
    </linearGradient>
    <linearGradient id="linear-gradient-2" y1="0.5" x2="1" y2="0.5" gradientUnits="objectBoundingBox">
      <stop offset="0" stop-color="#214a35"/>
      <stop offset="1" stop-color="#022b1d"/>
    </linearGradient>
    <linearGradient id="linear-gradient-3" y1="0.5" x2="1" y2="0.5" gradientUnits="objectBoundingBox">
      <stop offset="0" stop-color="#c8a34e"/>
      <stop offset="1" stop-color="#5b9a3e"/>
    </linearGradient>
    <linearGradient id="linear-gradient-5" y1="0.5" x2="1" y2="0.5" gradientUnits="objectBoundingBox">
      <stop offset="0" stop-color="#cbce55"/>
      <stop offset="1" stop-color="#217b4f"/>
    </linearGradient>
    <linearGradient id="linear-gradient-6" x1="0" y1="0.5" x2="1" y2="0.5" xlink:href="#linear-gradient-5"/>
    <linearGradient id="linear-gradient-7" x1="0" y1="0.5" x2="1" y2="0.5" xlink:href="#linear-gradient-5"/>
    <linearGradient id="linear-gradient-8" x1="0" y1="0.5" x2="1" y2="0.5" xlink:href="#linear-gradient-5"/>
    <linearGradient id="linear-gradient-9" x1="0" y1="0.5" x2="1" y2="0.5" xlink:href="#linear-gradient-5"/>
  </defs>
  <g id="Grupo_53831" data-name="Grupo 53831">
    <g id="Grupo_53830" data-name="Grupo 53830" clip-path="url(#clip-path)">
      <g id="Grupo_53829" data-name="Grupo 53829">
        <g id="Grupo_53766" data-name="Grupo 53766">
          <g id="Grupo_53765" data-name="Grupo 53765">
            <path id="Trazado_101478" data-name="Trazado 101478" d="M404.062,95.455c-1.076,17.049,23.8,45.567,2.818,58.124-6.129,3.149-5.161,4.965-12.706,4.96-133.532.585-332.021-1.223-466.348-1.313-57.02-24.509-45-92.782-3.877-100.192C.793,43.188-.992-57.759,104.218-53.049c41.513,1.859,121.318,5.98,153.07.518C533.2-100,398.3,45.661,404.062,95.455Z" fill="#97f9e3"/>
            <g id="Grupo_53764-2" data-name="Grupo 53764">
              <path id="Trazado_101479" data-name="Trazado 101479" d="M22.893,74.375c0-5.3,6.681-9.651,15.114-9.836,16.365-.358,42.292.075,58.471,5.361,25.08,8.194,60.909,5.673,85.392,4.728s35.9,5.042,46.017,4.412,26.6,2.635,26.432,2.634H22.893Z" fill="url(#linear-gradient)"/>
              <path id="Trazado_101480" data-name="Trazado 101480" d="M407.529,65.173s-40.761-3.467-61.837,4.727-51.185,5.673-71.76,4.728-30.169,5.042-38.67,4.412-22.354,2.635-22.212,2.634H407.529Z" fill="url(#linear-gradient-2)"/>
              <path id="Trazado_101481" data-name="Trazado 101481" d="M-3.136,93.265c-.017-6.673,8.531-12.109,19.156-12.181,42.487-.289,143.461-.844,177.779.141,43.913,1.26,213.714,0,213.714,0v61.54H10.064c-7.226,0-13.086-3.675-13.1-8.213Z" fill="url(#linear-gradient-3)"/>
              <path id="Trazado_101482" data-name="Trazado 101482" d="M171.342,92.372H-3.139c-.014-16.049,22.716-28.35,47.985-25.958,26.82,2.539,56.312,4.509,69.51,2.353,17.1-3.289,30.867.167,33,5.862s-2.373,9.156,11.873,8.871S171.342,92.372,171.342,92.372Z" fill="url(#linear-gradient-2)"/>
            </g>
          </g>
        </g>
        <g id="Grupo_53770" data-name="Grupo 53770">
          <g id="Grupo_53767" data-name="Grupo 53767">
            <path id="Trazado_101483" data-name="Trazado 101483" d="M316.776,75.025s21.627-1.9,27.506,0,8.819,10.715,7.979,17.153-2.8,11.9-6.579,11.758-30.515,0-30.515,0Z" fill="#01644c"/>
            <path id="Trazado_101484" data-name="Trazado 101484" d="M321.193,74.694s4.577-.853,7.692-1.168a16.142,16.142,0,0,0-2.753.759s6.649-1,9.075-.759,5.751.656,5.751.656l3.7-.247s-3.079.373-2.916.42a15.669,15.669,0,0,1,3.92.979,17.1,17.1,0,0,1,3.429,1.424,10.189,10.189,0,0,0-3.15-1.074s5.129,3.558,5.143,6.946-22.056-5.1-22.056-5.1Z" fill="#01644c"/>
          </g>
          <g id="Grupo_53768" data-name="Grupo 53768">
            <path id="Trazado_101485" data-name="Trazado 101485" d="M319.869,74.855s-8.608-.655-14.067,6.274-1.05,22.972,6.089,23.034,15.931-1.036,17.833-10.355S327.638,75.089,319.869,74.855Z" fill="#b8db70"/>
            <path id="Trazado_101486" data-name="Trazado 101486" d="M302.242,88.679s3.08-3.546,3.406-4.526l.467.98Z" fill="#b8db70"/>
            <path id="Trazado_101487" data-name="Trazado 101487" d="M304.465,83.429s.39-2.542,1.51-3.475a5.426,5.426,0,0,0-.755,3.126C305.483,84.5,304.465,83.429,304.465,83.429Z" fill="#b8db70"/>
            <path id="Trazado_101488" data-name="Trazado 101488" d="M305.975,101.417c.056.136-1.656-4.654-1.1-5.564l.326,0A28.234,28.234,0,0,0,305.975,101.417Z" fill="#b8db70"/>
            <path id="Trazado_101489" data-name="Trazado 101489" d="M304.6,95.188a3.054,3.054,0,0,0-2.007,0,2.169,2.169,0,0,1,1.913.373C305.229,96.267,304.6,95.188,304.6,95.188Z" fill="#b8db70"/>
          </g>
          <g id="Grupo_53769" data-name="Grupo 53769">
            <path id="Trazado_101490" data-name="Trazado 101490" d="M316.463,103.92a12.31,12.31,0,0,1-6.4-1.581,9.534,9.534,0,0,1-4.268-6.448c-1.079-4.993-.549-9.09,1.575-12.177,1.986-2.885,5.34-4.764,9.7-5.433a7.634,7.634,0,0,1,7.365,2.749c2.712,3.252,3.491,8.745,1.895,13.358-1.128,3.26-4.14,5.274-8.057,5.387-.112,0-.224,0-.335,0-3.946,0-7.5-2.018-8.724-4.982a9.283,9.283,0,0,1,.181-8.324c1.384-2.382,4-3.931,7.356-4.363a5.346,5.346,0,0,1,5.523,2.282,9.032,9.032,0,0,1,.531,8.264c-1.047,1.831-3.946,3.245-6.463,3.157a4.247,4.247,0,0,1-3.9-2.367,5.285,5.285,0,0,1,.162-5.325,3.961,3.961,0,0,1,3.33-1.886A2.243,2.243,0,0,1,318,88.449c.075.857-.217,1.811-.921,1.976-1.31.305-1.775-.41-1.794-.44,0,0-.707-1.168.173-1.336,1.008-.192.743.591.743.591.014.021-.249,1.078.8.834.431-.1.714-.8.644-1.594a1.874,1.874,0,0,0-1.733-1.884,3.589,3.589,0,0,0-3.011,1.726,4.937,4.937,0,0,0-.137,4.969,3.9,3.9,0,0,0,3.593,2.164c2.4.082,5.15-1.25,6.137-2.977a8.625,8.625,0,0,0-.517-7.885,5.044,5.044,0,0,0-5.178-2.125c-3.247.417-5.764,1.9-7.09,4.187a8.932,8.932,0,0,0-.161,8.006c1.2,2.913,4.787,4.868,8.716,4.754,3.762-.109,6.651-2.032,7.727-5.144,1.557-4.5.8-9.851-1.83-13.011a7.3,7.3,0,0,0-7.034-2.624c-4.258.654-7.528,2.481-9.456,5.283-2.066,3-2.577,7-1.52,11.9a9.185,9.185,0,0,0,4.1,6.217c4.266,2.611,10.995,1.03,11.054,1.015l-.761.411A17.849,17.849,0,0,1,316.463,103.92Z" fill="#847d3d"/>
          </g>
        </g>
        <g id="Grupo_53774" data-name="Grupo 53774">
          <g id="Grupo_53771" data-name="Grupo 53771">
            <path id="Trazado_101491" data-name="Trazado 101491" d="M351.978,67.048s27.547-2.415,35.035,0S398.246,80.7,397.176,88.9s-3.566,15.155-8.38,14.977-38.868,0-38.868,0Z" fill="#01644c"/>
            <path id="Trazado_101492" data-name="Trazado 101492" d="M357.6,66.626s5.83-1.086,9.8-1.487a20.611,20.611,0,0,0-3.507.966s8.469-1.278,11.56-.966,7.325.836,7.325.836l4.71-.316s-3.923.476-3.715.535,3.834.5,4.993,1.248c0,0,3.6,1.129,4.368,1.813,0,0-2.883-1.456-4.012-1.367,0,0,6.532,4.531,6.55,8.848s-28.094-6.5-28.094-6.5Z" fill="#01644c"/>
          </g>
          <g id="Grupo_53772" data-name="Grupo 53772">
            <path id="Trazado_101493" data-name="Trazado 101493" d="M355.917,66.831S344.953,66,338,74.823s-1.337,29.261,7.755,29.339,20.293-1.319,22.716-13.19S365.812,67.13,355.917,66.831Z" fill="#b8db70"/>
            <path id="Trazado_101494" data-name="Trazado 101494" d="M333.465,84.44s3.923-4.517,4.339-5.765l.594,1.248Z" fill="#b8db70"/>
            <path id="Trazado_101495" data-name="Trazado 101495" d="M336.3,77.753s.5-3.238,1.924-4.427a6.913,6.913,0,0,0-.962,3.982C337.593,79.119,336.3,77.753,336.3,77.753Z" fill="#b8db70"/>
            <path id="Trazado_101496" data-name="Trazado 101496" d="M338.22,100.665c.071.173-2.11-5.929-1.4-7.088l.415,0S337.521,98.971,338.22,100.665Z" fill="#b8db70"/>
            <path id="Trazado_101497" data-name="Trazado 101497" d="M336.466,92.73a3.893,3.893,0,0,0-2.555,0,2.766,2.766,0,0,1,2.437.476C337.27,94.105,336.466,92.73,336.466,92.73Z" fill="#b8db70"/>
          </g>
          <g id="Grupo_53773" data-name="Grupo 53773">
            <path id="Trazado_101498" data-name="Trazado 101498" d="M351.579,103.852a15.671,15.671,0,0,1-8.146-2.013A12.137,12.137,0,0,1,338,93.626c-1.375-6.36-.7-11.578,2.006-15.51,2.53-3.675,6.8-6.069,12.353-6.921a9.729,9.729,0,0,1,9.381,3.5c3.454,4.143,4.446,11.139,2.413,17.016-1.436,4.152-5.273,6.717-10.263,6.861q-.213.006-.426.006c-5.026,0-9.557-2.569-11.112-6.345-1.586-3.85-1.5-7.615.231-10.6,1.762-3.034,5.089-5.008,9.369-5.557,3.875-.5,5.965,1.306,7.035,2.906,2.066,3.088,2.061,8.1.677,10.526-1.334,2.333-5.026,4.134-8.233,4.023a5.415,5.415,0,0,1-4.973-3.016,6.732,6.732,0,0,1,.207-6.783,5.047,5.047,0,0,1,4.241-2.4,2.857,2.857,0,0,1,2.64,2.819c.1,1.092-.277,2.307-1.174,2.516-1.668.389-2.26-.521-2.284-.56,0,0-.9-1.487.22-1.7,1.284-.245.946.752.946.752.018.027-.317,1.374,1.014,1.063.549-.128.909-1.02.821-2.03a2.389,2.389,0,0,0-2.208-2.4,4.572,4.572,0,0,0-3.835,2.2,6.283,6.283,0,0,0-.174,6.33,4.965,4.965,0,0,0,4.576,2.755c3.052.105,6.56-1.591,7.817-3.791,1.166-2.04,1.48-6.847-.659-10.044a6.423,6.423,0,0,0-6.6-2.706c-4.135.531-7.343,2.425-9.031,5.332-1.662,2.862-1.735,6.484-.205,10.2s6.1,6.2,11.1,6.056c4.792-.139,8.471-2.588,9.843-6.553,1.983-5.732,1.024-12.547-2.332-16.572a9.3,9.3,0,0,0-8.96-3.342c-5.423.833-9.588,3.16-12.044,6.728-2.631,3.823-3.283,8.921-1.936,15.153a11.7,11.7,0,0,0,5.228,7.919c5.434,3.325,14.005,1.312,14.08,1.293l-.97.524A22.871,22.871,0,0,1,351.579,103.852Z" fill="#847d3d"/>
          </g>
        </g>
        <path id="Trazado_101499" data-name="Trazado 101499" d="M240.6,35.018s2.674-7.154,9.067-6.359c0,0,9.282-11.924,19.18-1.59,0,0,10.522-2.561,18.314,2.217,5.195,3.186,6.911,6.527,6.911,6.527Z" fill="#f6fbff"/>
        <path id="Trazado_101500" data-name="Trazado 101500" d="M120.7,35.018s2.674-7.154,9.067-6.359c0,0,9.282-11.924,19.18-1.59,0,0,10.522-2.561,18.314,2.217,5.195,3.186,6.911,6.527,6.911,6.527Z" fill="#f6fbff"/>
        <path id="Trazado_101501" data-name="Trazado 101501" d="M271.518,16.96s.938-2.626,3.183-2.334c0,0,3.258-4.376,6.733-.584,0,0,3.694-.939,6.43.814a6.872,6.872,0,0,1,2.426,2.4Z" fill="#f6fbff"/>
        <path id="Trazado_101502" data-name="Trazado 101502" d="M400,13.274v7.048l-59.585-.611A12.7,12.7,0,0,1,352.632,13.8s12.508-11.079,25.844-1.477C378.476,12.325,390.028,10.387,400,13.274Z" fill="#f6fbff"/>
        <path id="Trazado_101503" data-name="Trazado 101503" d="M178,5.61a6.3,6.3,0,0,1,6.064-2.933s6.208-5.5,12.829-.733c0,0,7.037-1.181,12.249,1.022,3.474,1.469,4.622,3.01,4.622,3.01Z" fill="#f6fbff"/>
        <path id="Trazado_101504" data-name="Trazado 101504" d="M338.748,5.976A2.151,2.151,0,1,1,340.9,8.127,2.151,2.151,0,0,1,338.748,5.976Z" fill="#f6fbff"/>
        <g id="Grupo_53776" data-name="Grupo 53776">
          <path id="Trazado_101505" data-name="Trazado 101505" d="M400,102.911l-.017,5.4-.011,3.472,0,1.526-.017,5.529,0,.739L400,140.918H7.394A14.788,14.788,0,0,1-7.394,126.13V115.4c4.44.137,195.422.147,199.9.059q1.131-.022,2.26-.053.958-.024,1.914-.057.78-.025,1.557-.055.745-.027,1.489-.058l.995-.043c6.676-.3,13.166-.775,19.164-1.329,12.963-1.2,23.626-2.752,28.886-3.609,1.8-.293,2.964-.5,3.377-.59,46.867-9.92,107.928-8.663,134.514-7.489q1.272.056,2.435.111,1.017.048,1.95.1.775.039,1.49.077l1.423.076.845.048C398.152,102.776,400,102.911,400,102.911Z" fill="url(#linear-gradient-5)"/>
          <g id="Grupo_53775" data-name="Grupo 53775">
            <path id="Trazado_101506" data-name="Trazado 101506" d="M389.946,103.622s2.379-7.881,3.451-6.16S389.946,103.622,389.946,103.622Z" fill="url(#linear-gradient-6)"/>
            <path id="Trazado_101507" data-name="Trazado 101507" d="M391.238,103.531s3.35-4.153,3.926-3.6S391.238,103.531,391.238,103.531Z" fill="url(#linear-gradient-7)"/>
            <path id="Trazado_101508" data-name="Trazado 101508" d="M389.224,103.622c0-.075.918-6.347-.995-5.8S389.224,103.622,389.224,103.622Z" fill="url(#linear-gradient-8)"/>
          </g>
        </g>
        <g id="Grupo_53781" data-name="Grupo 53781">
          <g id="Grupo_53778" data-name="Grupo 53778">
            <rect id="Rectángulo_5168" data-name="Rectángulo 5168" width="21.826" height="30.602" transform="translate(243.615 55.744)" fill="#01644c"/>
            <rect id="Rectángulo_5169" data-name="Rectángulo 5169" width="16.955" height="30.604" transform="translate(226.66 55.744)" fill="#067254"/>
            <path id="Trazado_101509" data-name="Trazado 101509" d="M238.067,43.03l7.151,14.723h21.726L255.617,43.084Z" fill="#e65924"/>
            <path id="Trazado_101510" data-name="Trazado 101510" d="M237.21,43.03l7.151,14.723h21.726L254.76,43.084Z" fill="#01644c"/>
            <path id="Rectángulo_5170" data-name="Rectángulo 5170" d="M0,0H5.979a0,0,0,0,1,0,0V7.542a2.4,2.4,0,0,1-2.4,2.4h-1.1A2.477,2.477,0,0,1,0,7.462V0A0,0,0,0,1,0,0Z" transform="translate(257.828 60.33) rotate(180)" fill="#002822"/>
            <g id="Grupo_53777" data-name="Grupo 53777">
              <path id="Trazado_101511" data-name="Trazado 101511" d="M224.3,58.57h19.721l11.656-15.54h-6.562l-12.819,0Z" fill="#fd9c28"/>
              <path id="Trazado_101512" data-name="Trazado 101512" d="M224.3,58.57h3.613l21.2-15.539-12.819,0Z" fill="#e65924"/>
            </g>
          </g>
          <g id="Grupo_53780" data-name="Grupo 53780">
            <path id="Trazado_101513" data-name="Trazado 101513" d="M257.128,61.865l5.091,10.482h15.467L269.623,61.9Z" fill="#e65924"/>
            <g id="Grupo_53779" data-name="Grupo 53779">
              <path id="Trazado_101514" data-name="Trazado 101514" d="M256.665,61.865l5.091,10.482h15.468L269.159,61.9Z" fill="#01644c"/>
              <path id="Trazado_101515" data-name="Trazado 101515" d="M261.79,72.347v13.97l15.433.03v-14Z" fill="#01644c"/>
              <rect id="Rectángulo_5171" data-name="Rectángulo 5171" width="13.069" height="13.97" transform="translate(248.721 72.347)" fill="#067254"/>
              <path id="Trazado_101516" data-name="Trazado 101516" d="M247.284,72.967h14.04l8.3-11.064h-4.182l-9.616,0Z" fill="#fd9c28"/>
              <path id="Trazado_101517" data-name="Trazado 101517" d="M266.372,74.674V86.348h6.5V74.781a3.3,3.3,0,0,0-3.3-3.3,3.2,3.2,0,0,0-3.2,3.2Z" fill="#002822"/>
              <path id="Trazado_101518" data-name="Trazado 101518" d="M270.353,67.722a.73.73,0,1,0-.73.73A.729.729,0,0,0,270.353,67.722Z" fill="#002822"/>
              <path id="Trazado_101519" data-name="Trazado 101519" d="M247.284,72.967h2.665L265.441,61.9l-9.616,0Z" fill="#e65924"/>
            </g>
          </g>
        </g>
        <g id="Grupo_53785" data-name="Grupo 53785">
          <g id="Grupo_53782" data-name="Grupo 53782">
            <path id="Trazado_101520" data-name="Trazado 101520" d="M229.665,79.179s-7.247-.635-9.217,0-2.955,3.59-2.673,5.748.938,3.987,2.2,3.94,10.225,0,10.225,0Z" fill="#067254"/>
            <path id="Trazado_101521" data-name="Trazado 101521" d="M228.185,79.068s-1.534-.285-2.577-.391a5.4,5.4,0,0,1,.922.254,20,20,0,0,0-3.041-.254c-.813.082-1.927.22-1.927.22l-1.239-.083s1.032.125.977.141a5.207,5.207,0,0,0-1.313.328,5.713,5.713,0,0,0-1.149.477,3.424,3.424,0,0,1,1.055-.36s-1.718,1.192-1.723,2.328,7.391-1.71,7.391-1.71Z" fill="#067254"/>
          </g>
          <g id="Grupo_53783" data-name="Grupo 53783">
            <path id="Trazado_101522" data-name="Trazado 101522" d="M228.629,79.122a5.863,5.863,0,0,1,4.713,2.1c1.83,2.321.352,7.7-2.04,7.718s-5.338-.347-5.976-3.47S226.026,79.2,228.629,79.122Z" fill="#4ac195"/>
            <path id="Trazado_101523" data-name="Trazado 101523" d="M234.535,83.754a10.733,10.733,0,0,1-1.141-1.516l-.156.328Z" fill="#4ac195"/>
            <path id="Trazado_101524" data-name="Trazado 101524" d="M233.79,82a2.321,2.321,0,0,0-.506-1.164,1.81,1.81,0,0,1,.253,1.047C233.449,82.355,233.79,82,233.79,82Z" fill="#4ac195"/>
            <path id="Trazado_101525" data-name="Trazado 101525" d="M233.284,88.023c-.018.045.555-1.56.368-1.865h-.109A9.453,9.453,0,0,1,233.284,88.023Z" fill="#ffcd76"/>
            <path id="Trazado_101526" data-name="Trazado 101526" d="M233.746,85.936a1.02,1.02,0,0,1,.672,0,.725.725,0,0,0-.641.125C233.534,86.3,233.746,85.936,233.746,85.936Z" fill="#ffcd76"/>
          </g>
          <g id="Grupo_53784" data-name="Grupo 53784">
            <path id="Trazado_101527" data-name="Trazado 101527" d="M229.77,88.861a4.124,4.124,0,0,0,2.143-.529,3.192,3.192,0,0,0,1.43-2.161,5.1,5.1,0,0,0-.527-4.08,4.64,4.64,0,0,0-3.25-1.821,2.56,2.56,0,0,0-2.468.921,4.837,4.837,0,0,0-.635,4.476,2.774,2.774,0,0,0,2.7,1.805l.112,0a3.013,3.013,0,0,0,2.863-4.458,3.2,3.2,0,0,0-2.465-1.462,1.792,1.792,0,0,0-1.851.764,3.029,3.029,0,0,0-.178,2.769,2.58,2.58,0,0,0,2.166,1.058,1.421,1.421,0,0,0,1.308-.793,1.77,1.77,0,0,0-.054-1.784,1.327,1.327,0,0,0-1.116-.632.75.75,0,0,0-.694.741c-.025.288.072.607.308.662.439.1.6-.137.6-.147s.237-.391-.057-.447c-.338-.065-.249.2-.249.2s.083.362-.267.28c-.145-.034-.239-.268-.216-.534a.628.628,0,0,1,.581-.632,1.206,1.206,0,0,1,1.009.579,1.653,1.653,0,0,1,.045,1.665,1.306,1.306,0,0,1-1.2.725,2.455,2.455,0,0,1-2.057-1,2.891,2.891,0,0,1,.173-2.642,1.692,1.692,0,0,1,1.735-.712,3.083,3.083,0,0,1,2.376,1.4,2.9,2.9,0,0,1-2.866,4.276,2.661,2.661,0,0,1-2.59-1.724,4.711,4.711,0,0,1,.614-4.359,2.446,2.446,0,0,1,2.357-.88,4.521,4.521,0,0,1,3.168,1.77,4.985,4.985,0,0,1,.509,3.987,3.076,3.076,0,0,1-1.375,2.083,5.784,5.784,0,0,1-3.7.34l.255.138A6.013,6.013,0,0,0,229.77,88.861Z" fill="#067254"/>
          </g>
        </g>
        <g id="Grupo_53789" data-name="Grupo 53789">
          <g id="Grupo_53786" data-name="Grupo 53786">
            <path id="Trazado_101528" data-name="Trazado 101528" d="M221.832,77.341s-8.611-.755-10.952,0-3.511,4.266-3.177,6.83,1.115,4.737,2.62,4.682,12.15,0,12.15,0Z" fill="#067254"/>
            <path id="Trazado_101529" data-name="Trazado 101529" d="M220.073,77.209s-1.822-.339-3.062-.465a6.463,6.463,0,0,1,1.1.3,23.809,23.809,0,0,0-3.613-.3c-.966.1-2.29.261-2.29.261l-1.472-.1s1.226.149,1.161.167a6.275,6.275,0,0,0-1.561.39,6.779,6.779,0,0,0-1.365.567,4.056,4.056,0,0,1,1.254-.427s-2.042,1.416-2.048,2.765,8.782-2.032,8.782-2.032Z" fill="#067254"/>
          </g>
          <g id="Grupo_53787" data-name="Grupo 53787">
            <path id="Trazado_101530" data-name="Trazado 101530" d="M220.6,77.273a6.971,6.971,0,0,1,5.6,2.5c2.173,2.759.418,9.147-2.425,9.172s-6.343-.413-7.1-4.123S217.507,77.367,220.6,77.273Z" fill="#4ac195"/>
            <path id="Trazado_101531" data-name="Trazado 101531" d="M227.619,82.778a12.746,12.746,0,0,1-1.356-1.8l-.186.391Z" fill="#4ac195"/>
            <path id="Trazado_101532" data-name="Trazado 101532" d="M226.734,80.687a2.771,2.771,0,0,0-.6-1.384,2.162,2.162,0,0,1,.3,1.245C226.329,81.114,226.734,80.687,226.734,80.687Z" fill="#4ac195"/>
            <path id="Trazado_101533" data-name="Trazado 101533" d="M226.133,87.849c-.023.055.659-1.853.436-2.215h-.129A11.25,11.25,0,0,1,226.133,87.849Z" fill="#4ac195"/>
            <path id="Trazado_101534" data-name="Trazado 101534" d="M226.681,85.369a1.217,1.217,0,0,1,.8,0,.866.866,0,0,0-.762.149C226.43,85.8,226.681,85.369,226.681,85.369Z" fill="#4ac195"/>
          </g>
          <g id="Grupo_53788" data-name="Grupo 53788">
            <path id="Trazado_101535" data-name="Trazado 101535" d="M221.957,88.846a4.9,4.9,0,0,0,2.546-.63,3.793,3.793,0,0,0,1.7-2.567,6.065,6.065,0,0,0-.627-4.848,5.514,5.514,0,0,0-3.862-2.164,3.041,3.041,0,0,0-2.932,1.1,5.747,5.747,0,0,0-.755,5.319,3.3,3.3,0,0,0,3.208,2.145h.134a3.581,3.581,0,0,0,3.4-5.3,3.8,3.8,0,0,0-2.929-1.738,2.13,2.13,0,0,0-2.2.909,3.594,3.594,0,0,0-.211,3.29A3.067,3.067,0,0,0,222,85.619a1.694,1.694,0,0,0,1.555-.943,2.1,2.1,0,0,0-.065-2.12,1.576,1.576,0,0,0-1.326-.751.894.894,0,0,0-.825.881c-.03.341.087.721.367.787.522.121.707-.163.714-.176s.282-.464-.069-.531c-.4-.077-.295.235-.295.235s.1.429-.317.332c-.172-.04-.285-.319-.257-.634a.747.747,0,0,1,.69-.751,1.429,1.429,0,0,1,1.2.687,1.968,1.968,0,0,1,.055,1.979,1.553,1.553,0,0,1-1.431.861,2.913,2.913,0,0,1-2.444-1.185,3.437,3.437,0,0,1,.206-3.139,2.008,2.008,0,0,1,2.062-.846,3.663,3.663,0,0,1,2.823,1.667,3.446,3.446,0,0,1-3.406,5.08A3.161,3.161,0,0,1,218.163,85a5.6,5.6,0,0,1,.729-5.18,2.9,2.9,0,0,1,2.8-1.045,5.375,5.375,0,0,1,3.765,2.1,5.927,5.927,0,0,1,.605,4.737,3.658,3.658,0,0,1-1.634,2.475c-1.7,1.04-4.378.41-4.4.4l.3.164A7.083,7.083,0,0,0,221.957,88.846Z" fill="#067254"/>
          </g>
        </g>
        <g id="Grupo_53792" data-name="Grupo 53792">
          <g id="Grupo_53790" data-name="Grupo 53790">
            <path id="Trazado_101536" data-name="Trazado 101536" d="M290.611,122.939l.524,3.845h.283v-3.76Z" fill="#f89b31"/>
            <path id="Trazado_101537" data-name="Trazado 101537" d="M291.206,126.836a5.124,5.124,0,0,0,2.441.221s-2.048-.32-2.306-.753Z" fill="#f89b31"/>
            <path id="Trazado_101538" data-name="Trazado 101538" d="M290.363,127.041c-.051,0,.671-.4.749-.673l.282.344S291.241,127.138,290.363,127.041Z" fill="#f89b31"/>
          </g>
          <g id="Grupo_53791" data-name="Grupo 53791">
            <path id="Trazado_101539" data-name="Trazado 101539" d="M286.45,122.915l-.811,3.795.267.1,1.275-3.537Z" fill="#f89b31"/>
            <path id="Trazado_101540" data-name="Trazado 101540" d="M285.806,126.836a5.124,5.124,0,0,0,2.441.221s-2.049-.32-2.307-.753Z" fill="#f89b31"/>
            <path id="Trazado_101541" data-name="Trazado 101541" d="M284.963,127.041c-.051,0,.671-.4.749-.673l.282.344S285.841,127.138,284.963,127.041Z" fill="#f89b31"/>
          </g>
          <path id="Trazado_101542" data-name="Trazado 101542" d="M289.546,118.3s0,6.08,1.71,6.08c.842,0,3.094-4.549,2.329-6.08S290.1,116.986,289.546,118.3Z" fill="#c9fce9"/>
          <path id="Trazado_101543" data-name="Trazado 101543" d="M286.739,117.794s-1.806,5.806-.173,6.314c.8.25,4.306-3.425,4.03-5.114S287.658,116.7,286.739,117.794Z" fill="#c9fce9"/>
          <path id="Trazado_101544" data-name="Trazado 101544" d="M296.294,101.553s.34-1.842,1.5-2.267a2.11,2.11,0,0,1,1.814,0,1.96,1.96,0,0,1,1.275-.029,1.122,1.122,0,0,1,.454.907s.878.142.935.709-1.49,1.984-3.424,1.616A5.646,5.646,0,0,1,296.294,101.553Z" fill="#e65924"/>
          <path id="Trazado_101545" data-name="Trazado 101545" d="M280.889,116.188a8.724,8.724,0,0,0,5.347,5.221c1.486.594,8.372,1.087,11.8-3.013a5.512,5.512,0,0,0,.743-1.15c2.029-4.174-1.2-10.248-.743-11.278.508-1.131,1.64-1.319,1.42-2.951s-2.23-1.885-2.23-1.885a3.55,3.55,0,0,0-2.763,1.319c-1.506,1.508-1.18,4.987-1.787,6.373-.411.934-2.886,1.986-5.367,1.655a6.341,6.341,0,0,1-1.138-.253c-1.534-.5-4.978-2.269-5.385-.708-.033.13-.066.261-.1.4A11.4,11.4,0,0,0,280.889,116.188Z" fill="#eaf7f9"/>
          <path id="Trazado_101546" data-name="Trazado 101546" d="M299.427,102.662s1.5.44,1.8,1.151c0,0-1.783.708-2.207.193A.9.9,0,0,1,299.427,102.662Z" fill="#f89b31"/>
          <path id="Trazado_101547" data-name="Trazado 101547" d="M299.754,104.187s.547.9,0,1.511-1.717.256-1.568-.531a1.8,1.8,0,0,1,.83-1.161Z" fill="#e65924"/>
          <path id="Trazado_101548" data-name="Trazado 101548" d="M277.663,113.9a4.216,4.216,0,0,0,3.226,2.292,3.632,3.632,0,0,0,1.674-.352,12.275,12.275,0,0,0,1.707-.963A26.1,26.1,0,0,0,287.7,112.1s-.139-.643-.389-1.616c-.8-3.137-2.75-9.709-4.9-9.339-2.813.485-1.067,3.589-3.153,4.462a2.481,2.481,0,0,0-.613.354c-.024.019-.048.039-.071.061l0,0a1.424,1.424,0,0,0-.33.43v0c-.458.926.253,2.147.145,3.079C278.245,110.792,276.886,112.587,277.663,113.9Z" fill="#eaf7f9"/>
          <path id="Trazado_101549" data-name="Trazado 101549" d="M297.584,102.281a.309.309,0,1,1,.146.413A.31.31,0,0,1,297.584,102.281Z" fill="#080435"/>
          <path id="Trazado_101550" data-name="Trazado 101550" d="M278.65,105.956c-.024.019-.048.039-.071.061l.01-.006A.185.185,0,0,0,278.65,105.956Z" fill="#d44b40"/>
          <path id="Trazado_101551" data-name="Trazado 101551" d="M277.663,113.9a4.216,4.216,0,0,0,3.226,2.292,8.724,8.724,0,0,0,5.347,5.221c1.486.594,8.372,1.087,11.8-3.013a5.512,5.512,0,0,0,.743-1.15v0a12.513,12.513,0,0,1-9.237,1.061,9.388,9.388,0,0,1-5.276-3.432c-.635-.8-1.064-1.481-1.707-1.76-1.134-.493-1.271-1.963-1.869-3.2a3.328,3.328,0,0,0-.977-1.254c-1.191-.9-1.606-1.689-1.472-2.206-.458.926.253,2.147.145,3.079C278.245,110.792,276.886,112.587,277.663,113.9Z" fill="#c9fce9"/>
        </g>
        <g id="Grupo_53795" data-name="Grupo 53795">
          <g id="Grupo_53793" data-name="Grupo 53793">
            <path id="Trazado_101552" data-name="Trazado 101552" d="M262.132,94.31l.108.8h.059v-.777Z" fill="#fd9c28"/>
            <path id="Trazado_101553" data-name="Trazado 101553" d="M262.255,95.116a1.057,1.057,0,0,0,.505.046s-.424-.066-.477-.156Z" fill="#fd9c28"/>
            <path id="Trazado_101554" data-name="Trazado 101554" d="M262.081,95.159c-.011,0,.139-.082.155-.14l.058.071S262.262,95.179,262.081,95.159Z" fill="#fd9c28"/>
          </g>
          <g id="Grupo_53794" data-name="Grupo 53794">
            <path id="Trazado_101555" data-name="Trazado 101555" d="M261.272,94.305l-.168.785.055.02.264-.731Z" fill="#fd9c28"/>
            <path id="Trazado_101556" data-name="Trazado 101556" d="M261.138,95.116a1.057,1.057,0,0,0,.505.046s-.423-.066-.477-.156Z" fill="#fd9c28"/>
            <path id="Trazado_101557" data-name="Trazado 101557" d="M260.964,95.159c-.01,0,.139-.082.155-.14l.058.071S261.146,95.179,260.964,95.159Z" fill="#fd9c28"/>
          </g>
          <path id="Trazado_101558" data-name="Trazado 101558" d="M261.912,93.352s0,1.257.353,1.257a1.5,1.5,0,0,0,.482-1.257A.5.5,0,0,0,261.912,93.352Z" fill="#c9fce9"/>
          <path id="Trazado_101559" data-name="Trazado 101559" d="M261.331,93.246s-.373,1.2-.035,1.306c.166.052.89-.708.833-1.057A.505.505,0,0,0,261.331,93.246Z" fill="#c9fce9"/>
          <path id="Trazado_101560" data-name="Trazado 101560" d="M263.307,89.888s.07-.381.311-.469a.436.436,0,0,1,.375,0,.411.411,0,0,1,.264-.006.234.234,0,0,1,.093.188s.182.029.194.146-.308.411-.708.335A1.176,1.176,0,0,1,263.307,89.888Z" fill="#e65924"/>
          <path id="Trazado_101561" data-name="Trazado 101561" d="M260.122,92.914a1.8,1.8,0,0,0,1.1,1.08,2.594,2.594,0,0,0,2.441-.623,1.136,1.136,0,0,0,.154-.238c.419-.863-.249-2.119-.154-2.332.105-.234.339-.273.294-.61s-.461-.39-.461-.39a.734.734,0,0,0-.572.273c-.311.312-.244,1.031-.369,1.318a1.383,1.383,0,0,1-1.345.289c-.317-.1-1.03-.469-1.114-.146-.007.027-.014.054-.02.082A2.353,2.353,0,0,0,260.122,92.914Z" fill="#eaf7f9"/>
          <path id="Trazado_101562" data-name="Trazado 101562" d="M263.955,90.117s.31.091.371.239c0,0-.368.146-.456.039A.187.187,0,0,1,263.955,90.117Z" fill="#f89b31"/>
          <path id="Trazado_101563" data-name="Trazado 101563" d="M264.023,90.433s.113.185,0,.312-.355.053-.325-.11a.377.377,0,0,1,.172-.24Z" fill="#e65924"/>
          <path id="Trazado_101564" data-name="Trazado 101564" d="M259.455,92.44a.87.87,0,0,0,.667.474.76.76,0,0,0,.346-.072,2.557,2.557,0,0,0,.353-.2,5.382,5.382,0,0,0,.709-.574s-.028-.133-.08-.334c-.166-.649-.569-2.008-1.013-1.931-.581.1-.22.742-.652.922a.544.544,0,0,0-.126.073l-.015.013h0a.311.311,0,0,0-.068.089h0c-.1.192.052.444.03.637C259.575,91.8,259.294,92.17,259.455,92.44Z" fill="#eaf7f9"/>
          <path id="Trazado_101565" data-name="Trazado 101565" d="M263.574,90.039a.064.064,0,1,1,.115.055.064.064,0,1,1-.115-.055Z" fill="#080435"/>
          <path id="Trazado_101566" data-name="Trazado 101566" d="M259.659,90.8l-.015.013h0A.038.038,0,0,0,259.659,90.8Z" fill="#d44b40"/>
          <path id="Trazado_101567" data-name="Trazado 101567" d="M259.455,92.44a.87.87,0,0,0,.667.474,1.8,1.8,0,0,0,1.1,1.08,2.594,2.594,0,0,0,2.441-.623,1.136,1.136,0,0,0,.154-.238h0a2.588,2.588,0,0,1-1.91.219,1.931,1.931,0,0,1-1.091-.71c-.132-.165-.22-.306-.353-.363-.235-.1-.263-.406-.387-.662a.678.678,0,0,0-.2-.26c-.246-.185-.332-.349-.3-.456-.1.192.052.444.03.637C259.575,91.8,259.294,92.17,259.455,92.44Z" fill="#c9fce9"/>
        </g>
        <g id="Grupo_53798" data-name="Grupo 53798">
          <g id="Grupo_53796" data-name="Grupo 53796">
            <path id="Trazado_101568" data-name="Trazado 101568" d="M267.545,96.873l-.108.8h-.059v-.778Z" fill="#fd9c28"/>
            <path id="Trazado_101569" data-name="Trazado 101569" d="M267.422,97.679a1.049,1.049,0,0,1-.5.046s.423-.066.477-.156Z" fill="#f89b31"/>
            <path id="Trazado_101570" data-name="Trazado 101570" d="M267.6,97.722c.01,0-.139-.082-.155-.14l-.058.071S267.415,97.742,267.6,97.722Z" fill="#f89b31"/>
          </g>
          <g id="Grupo_53797" data-name="Grupo 53797">
            <path id="Trazado_101571" data-name="Trazado 101571" d="M268.406,96.868l.168.785-.055.02-.264-.731Z" fill="#f89b31"/>
            <path id="Trazado_101572" data-name="Trazado 101572" d="M268.539,97.679a1.057,1.057,0,0,1-.505.046s.424-.066.477-.156Z" fill="#f89b31"/>
            <path id="Trazado_101573" data-name="Trazado 101573" d="M268.713,97.722c.011,0-.138-.082-.154-.14l-.059.071S268.532,97.742,268.713,97.722Z" fill="#f89b31"/>
          </g>
          <path id="Trazado_101574" data-name="Trazado 101574" d="M267.766,95.915s0,1.257-.354,1.257a1.492,1.492,0,0,1-.481-1.257A.5.5,0,0,1,267.766,95.915Z" fill="#c9fce9"/>
          <path id="Trazado_101575" data-name="Trazado 101575" d="M268.346,95.809s.374,1.2.036,1.306c-.166.052-.891-.708-.833-1.057A.5.5,0,0,1,268.346,95.809Z" fill="#c9fce9"/>
          <path id="Trazado_101576" data-name="Trazado 101576" d="M266.37,92.451s-.07-.381-.31-.469a.435.435,0,0,0-.375,0,.411.411,0,0,0-.264-.006.233.233,0,0,0-.094.188s-.182.029-.193.146.308.411.708.334A1.168,1.168,0,0,0,266.37,92.451Z" fill="#e65924"/>
          <path id="Trazado_101577" data-name="Trazado 101577" d="M269.556,95.477a1.8,1.8,0,0,1-1.106,1.08,2.6,2.6,0,0,1-2.441-.623,1.221,1.221,0,0,1-.154-.238c-.419-.863.25-2.119.154-2.332-.105-.234-.339-.273-.293-.61s.461-.39.461-.39a.732.732,0,0,1,.571.273c.312.312.244,1.031.37,1.318a1.217,1.217,0,0,0,1.109.342,1.235,1.235,0,0,0,.236-.053c.317-.1,1.029-.469,1.113-.146.007.027.014.054.02.082A2.362,2.362,0,0,1,269.556,95.477Z" fill="#eaf7f9"/>
          <path id="Trazado_101578" data-name="Trazado 101578" d="M265.722,92.68s-.309.091-.371.238c0,0,.369.147.456.04A.187.187,0,0,0,265.722,92.68Z" fill="#f89b31"/>
          <path id="Trazado_101579" data-name="Trazado 101579" d="M265.655,93s-.113.185,0,.312.355.053.324-.11a.377.377,0,0,0-.172-.24Z" fill="#e65924"/>
          <path id="Trazado_101580" data-name="Trazado 101580" d="M270.223,95a.872.872,0,0,1-.667.474.751.751,0,0,1-.347-.073,2.494,2.494,0,0,1-.352-.2,5.351,5.351,0,0,1-.71-.574s.029-.133.08-.334c.166-.649.569-2.008,1.013-1.931.582.1.221.742.652.922a.553.553,0,0,1,.127.073l.014.013h0a.3.3,0,0,1,.069.089h0c.094.192-.053.444-.031.637C270.1,94.361,270.383,94.733,270.223,95Z" fill="#eaf7f9"/>
          <path id="Trazado_101581" data-name="Trazado 101581" d="M266.1,92.6a.063.063,0,0,0-.085-.03.064.064,0,0,0,.055.115A.063.063,0,0,0,266.1,92.6Z" fill="#080435"/>
          <path id="Trazado_101582" data-name="Trazado 101582" d="M270.019,93.361l.014.013h0A.027.027,0,0,1,270.019,93.361Z" fill="#d44b40"/>
          <path id="Trazado_101583" data-name="Trazado 101583" d="M270.223,95a.872.872,0,0,1-.667.474,1.8,1.8,0,0,1-1.106,1.08,2.6,2.6,0,0,1-2.441-.623,1.221,1.221,0,0,1-.154-.238h0a2.592,2.592,0,0,0,1.911.219,1.944,1.944,0,0,0,1.091-.71c.131-.166.22-.306.352-.363.235-.1.263-.407.387-.662a.687.687,0,0,1,.2-.26c.246-.185.332-.349.3-.456.094.192-.053.444-.031.637C270.1,94.361,270.383,94.733,270.223,95Z" fill="#c9fce9"/>
        </g>
        <g id="Grupo_53801" data-name="Grupo 53801">
          <path id="Trazado_101584" data-name="Trazado 101584" d="M373.008,91.168c-.3,1.937-.246,4.043,1.073,5.619,2.963,3.542,8.908,3.115,10.19,2.6,5.484-2.19,5.509-7.164,4.7-10.263-.351-1.347-3.324.182-4.648.611-2.424.786-5.206-.28-5.614-1.211a6.9,6.9,0,0,1-.351-1.725v-.006a11.466,11.466,0,0,0-.564-2.767h0a2.942,2.942,0,0,0-.627-1,3.055,3.055,0,0,0-2.384-1.138s-1.735.216-1.925,1.625.786,1.572,1.224,2.548C374.324,86.6,373.386,88.755,373.008,91.168Z" fill="#002822"/>
          <path id="Trazado_101585" data-name="Trazado 101585" d="M375.589,82.251s-.293-1.591-1.3-1.957a1.817,1.817,0,0,0-1.566,0,1.694,1.694,0,0,0-1.1-.025.968.968,0,0,0-.392.783s-.758.122-.807.612,1.287,1.712,2.955,1.394A4.877,4.877,0,0,0,375.589,82.251Z" fill="#e65924"/>
          <path id="Trazado_101586" data-name="Trazado 101586" d="M373.008,91.168a2.029,2.029,0,0,0,1.226-.145c.855-.359,1,.635,2.072.525s.69-.967,1.766-1.256.637-1.766.637-1.766-.174-1.5-.271-2a20.735,20.735,0,0,0-.566-2.491,2.969,2.969,0,0,0-.742-1.221c-1.3-1.3-2.348-.931-2.348-.931s-1.735.216-1.925,1.625.786,1.572,1.224,2.548C374.324,86.6,373.386,88.755,373.008,91.168Z" fill="#eaf7f9"/>
          <path id="Trazado_101587" data-name="Trazado 101587" d="M372.884,83.208s-1.292.38-1.55.994c0,0,1.539.611,1.906.166A.781.781,0,0,0,372.884,83.208Z" fill="#f89b31"/>
          <path id="Trazado_101588" data-name="Trazado 101588" d="M372.6,84.524s-.473.773,0,1.305,1.482.22,1.353-.459a1.558,1.558,0,0,0-.716-1Z" fill="#e65924"/>
          <path id="Trazado_101589" data-name="Trazado 101589" d="M383.006,91.351a19.087,19.087,0,0,0,4.435,3.228c2.133.963,3.561-.544,4.231-1.674a1.449,1.449,0,0,0,.18-.495.484.484,0,0,1,.008-.048,2.407,2.407,0,0,0-.063-.875c-.194-.82-.675-1.675-.754-2.35-.125-1.089,1.047-2.638-.753-3.391s-.293-3.433-2.721-3.852c-.587-.1-1.157.4-1.684,1.215C384.233,85.672,383.006,91.351,383.006,91.351Z" fill="#002822"/>
          <g id="Grupo_53799" data-name="Grupo 53799">
            <path id="Trazado_101590" data-name="Trazado 101590" d="M380.494,100.71l-.452,3.319H379.8v-3.245Z" fill="#f89b31"/>
            <path id="Trazado_101591" data-name="Trazado 101591" d="M379.981,104.074a4.433,4.433,0,0,1-2.107.191s1.768-.277,1.991-.65Z" fill="#f89b31"/>
            <path id="Trazado_101592" data-name="Trazado 101592" d="M380.709,104.251c.043,0-.58-.343-.647-.581l-.243.3S379.95,104.335,380.709,104.251Z" fill="#f89b31"/>
          </g>
          <g id="Grupo_53800" data-name="Grupo 53800">
            <path id="Trazado_101593" data-name="Trazado 101593" d="M384.086,100.69l.7,3.276-.23.083-1.1-3.053Z" fill="#f89b31"/>
            <path id="Trazado_101594" data-name="Trazado 101594" d="M384.642,104.074a4.433,4.433,0,0,1-2.107.191s1.768-.277,1.991-.65Z" fill="#f89b31"/>
            <path id="Trazado_101595" data-name="Trazado 101595" d="M385.37,104.251c.043,0-.58-.343-.647-.581l-.243.3S384.611,104.335,385.37,104.251Z" fill="#f89b31"/>
          </g>
          <path id="Trazado_101596" data-name="Trazado 101596" d="M381.414,96.71s0,5.248-1.477,5.247c-.726,0-2.67-3.926-2.009-5.247A2.107,2.107,0,0,1,381.414,96.71Z" fill="#002822"/>
          <path id="Trazado_101597" data-name="Trazado 101597" d="M383.837,96.269s1.558,5.012.148,5.45c-.693.216-3.716-2.956-3.477-4.414A2.108,2.108,0,0,1,383.837,96.269Z" fill="#002822"/>
          <path id="Trazado_101598" data-name="Trazado 101598" d="M374.742,83.093a.267.267,0,1,0-.126.355A.267.267,0,0,0,374.742,83.093Z" fill="#1e3865"/>
          <path id="Trazado_101599" data-name="Trazado 101599" d="M377.793,95.053a9.868,9.868,0,0,0,5.8,1.49c2.983-.359,1.8-1.05,1.8-1.05s1.02-.192.964-1.02a1.189,1.189,0,0,0,.244-1.38c-.437-.69-.36,1.009-1.568,1.9C383.936,95.794,381.86,96.357,377.793,95.053Z" fill="#e65924"/>
          <path id="Trazado_101600" data-name="Trazado 101600" d="M385.885,83.109h0s2.132-1.07,2.128,1.42.948,1.7,1.155,3.236c.173,1.283,2.176,2.3,2.629,3.721-.194-.82-.675-1.675-.754-2.35-.125-1.089,1.047-2.638-.753-3.391s-.293-3.433-2.721-3.852C386.982,81.793,386.412,82.293,385.885,83.109Z" fill="#eaf7f9"/>
        </g>
        <g id="Grupo_53808" data-name="Grupo 53808">
          <g id="man">
            <g id="Grupo_53802" data-name="Grupo 53802">
              <path id="Trazado_101601" data-name="Trazado 101601" d="M229.349,103.195s-.755.7-.608,1.2.829.829.921,1.437.46.939.791.939h1.58s.244-.428-.345-.557-.811-.843-.774-1.5a11.969,11.969,0,0,0-.056-1.547l-1.252-.295Z" fill="#002822"/>
              <path id="Trazado_101602" data-name="Trazado 101602" d="M238.609,105.1s-.184,1.473.148,1.639a38.864,38.864,0,0,0,4.289.11s0-.5-.681-.607-1.878-.516-2.08-1.418S238.609,105.1,238.609,105.1Z" fill="#002822"/>
              <path id="Trazado_101603" data-name="Trazado 101603" d="M242.19,82.611s-.224,2.791-.487,6.146c-.357,4.557-.787,10.155-.829,11.216-.074,1.841-.369,4.787-.369,4.787a2.317,2.317,0,0,1-2.1.4,48.136,48.136,0,0,1-1.6-8.654l-.016-.22c-.332-4.529-.847-14.066-.847-14.066Z" fill="#b8db70"/>
              <path id="Trazado_101604" data-name="Trazado 101604" d="M242.19,82.611s-.224,2.791-.487,6.146l-4.9,7.754-.016-.22c-.332-4.529-.847-14.066-.847-14.066Z" fill="#97c157"/>
              <path id="Trazado_101605" data-name="Trazado 101605" d="M241.169,82.943S237.136,93.05,234.485,97.8s-3.479,6.076-3.479,6.076-1.519-.608-1.657-1.022c0,0,1.013-9.17,2.789-11.406a16.8,16.8,0,0,0,2.237-6.379c.055-1.326.359-3.949.359-3.949Z" fill="#b8db70"/>
            </g>
            <g id="Grupo_53803" data-name="Grupo 53803">
              <path id="Trazado_101606" data-name="Trazado 101606" d="M249.081,81.544a17.121,17.121,0,0,1,1.615.858,3.734,3.734,0,0,1,.628,1.1c-.037.065-.108.085-.237,0s-.49-.462-.5-.392.966,1.221.793,1.465-1.155.172-1.715-.227-1.121-1.864-1.205-1.944C247.741,81.721,249.081,81.544,249.081,81.544Z" fill="#f5c99d"/>
              <path id="Trazado_101607" data-name="Trazado 101607" d="M249.145,82.275c.395-.343.406-.43.406-.43s-2.523-4.363-2.742-4.783-1.571-6.972-1.571-6.972l-4.674-1.355s3.292,8.514,3.867,9.567c.951,1.739,4.053,4.3,4.053,4.3A1.461,1.461,0,0,0,249.145,82.275Z" fill="#e65924"/>
            </g>
            <path id="Trazado_101608" data-name="Trazado 101608" d="M242.945,67.03s1.645,2.9,3.253,3.272a4.387,4.387,0,0,0-.459-1.637c.161-.189.3-.363.423-.518a9.88,9.88,0,0,0,.6-.836l-.546-1.468-.37-1a4.846,4.846,0,0,1-.579.834A3.939,3.939,0,0,1,242.945,67.03Z" fill="#f5c99d"/>
            <path id="Trazado_101609" data-name="Trazado 101609" d="M245.265,65.682a3.055,3.055,0,0,0,.9,2.465,9.88,9.88,0,0,0,.6-.836l-.546-1.468A3.112,3.112,0,0,0,245.265,65.682Z" fill="#d8a982"/>
            <path id="Trazado_101610" data-name="Trazado 101610" d="M247.193,67.524s-2.458-.958-1.838-2.479.721-2.67,2.317-2.123,1.662,1.252,1.578,1.81S247.849,67.734,247.193,67.524Z" fill="#f5c99d"/>
            <path id="Trazado_101611" data-name="Trazado 101611" d="M234.5,81.884c.991,1.425,8.4,3.33,8.316,2.343a10.858,10.858,0,0,1,0-1.946c.019-.211.046-.436.079-.672a15.52,15.52,0,0,1,1.634-4.894c.075-.145.153-.29.234-.438a15.043,15.043,0,0,0,1.027-2.309,7.1,7.1,0,0,0,.462-3.833l0-.013c-1.549-.717-2.15-3.5-2.15-3.5s-5.287.949-8.249,8c0,0-.284.774-.609,1.824a20.638,20.638,0,0,0-.928,4.151A2.167,2.167,0,0,0,234.5,81.884Z" fill="#fd9c28"/>
            <path id="Trazado_101612" data-name="Trazado 101612" d="M245,62.218c-.018-.034-.068-.07-.19-.108a.519.519,0,0,1,.248-.009.649.649,0,0,1,.551-.457.389.389,0,0,0-.247.228c.431-.274,1.231-.353,3.226.311,2.629.876,1.315,2.4.917,2.525s-1.132-.663-1.792-.77-1.017.812-1.269.888-.108-.133-.371-.342-.415.283-.409.629-.508.674-.508.674l-.3-.552a4.894,4.894,0,0,1,.069-2.92Z" fill="#070707"/>
            <g id="Grupo_53804" data-name="Grupo 53804">
              <path id="Trazado_101613" data-name="Trazado 101613" d="M244.665,62.58s.3-2.446,2.073-2.31a2.472,2.472,0,0,1,2.635,2.407Z" fill="#e65924"/>
              <path id="Trazado_101614" data-name="Trazado 101614" d="M242.856,63.462c-.017.526.727,1.015,1.87,1.323-.018-.11-.031-.23-.041-.356-.012-.209.01-1.133.01-1.133a4.859,4.859,0,0,1,2.387-.418,5.172,5.172,0,0,1,2.255.506c.277.161.437.348.43.544a1.444,1.444,0,0,1-.511.765,1.877,1.877,0,0,1-.085.31c1.376-.208,2.2-.685,2.215-1.271.018-.554-.808-1.065-2.053-1.369q-.156-.037-.321-.072l-.245-.046a11.152,11.152,0,0,0-1.6-.16,10.712,10.712,0,0,0-2.172.139l-.077.014-.2.041C243.609,62.518,242.873,62.949,242.856,63.462Z" fill="#fd9c28"/>
            </g>
            <path id="Trazado_101615" data-name="Trazado 101615" d="M234.309,80.6c6.379-1.924,7.394-9.53,7.394-9.53s-3.632,2.776-6.466,5.379A20.638,20.638,0,0,0,234.309,80.6Z" fill="#e65924"/>
            <path id="Trazado_101616" data-name="Trazado 101616" d="M228.055,92.139l5.182.557a1.206,1.206,0,0,0,1.323-1.067l.641-5.969-.923-.1a2.885,2.885,0,0,0-5.726-.615l-.923-.1-.641,5.969A1.206,1.206,0,0,0,228.055,92.139Zm6-6.6-5.27-.566a2.657,2.657,0,0,1,5.27.566Z" fill="#45391d"/>
            <g id="Grupo_53805" data-name="Grupo 53805">
              <path id="Trazado_101617" data-name="Trazado 101617" d="M232.56,80.847a13.055,13.055,0,0,1,.109,1.4,2.521,2.521,0,0,1-.322.786c-.057,0-.231.01-.226-.111s.083-.233.033-.213-.065.475-.3.464-.907-.267-.879-.8a5.528,5.528,0,0,1,.766-1.586C231.891,80.049,232.56,80.847,232.56,80.847Z" fill="#f5c99d"/>
              <path id="Trazado_101618" data-name="Trazado 101618" d="M232.177,81.051c.507.231.694-.005.694-.005s2.949-4.923,3.259-5.319A60.123,60.123,0,0,1,241.883,73s2.215-.847,2.3-2.191a2.421,2.421,0,0,0-1.313-2.317,2.449,2.449,0,0,0-2.755.178,65.151,65.151,0,0,0-5.894,4.932c-1.268,1.683-2.673,6.959-2.673,6.959A1.768,1.768,0,0,0,232.177,81.051Z" fill="#fd9c28"/>
            </g>
            <path id="Trazado_101619" data-name="Trazado 101619" d="M253.843,88.249a.212.212,0,1,0-.212.212A.211.211,0,0,0,253.843,88.249Z" fill="#fd9c28"/>
            <path id="Trazado_101620" data-name="Trazado 101620" d="M249.551,84.5a.212.212,0,1,0-.212.211A.212.212,0,0,0,249.551,84.5Z" fill="#fd9c28"/>
            <path id="Trazado_101621" data-name="Trazado 101621" d="M250.033,89.635a.212.212,0,1,0-.212.212A.211.211,0,0,0,250.033,89.635Z" fill="#fd9c28"/>
            <path id="Trazado_101622" data-name="Trazado 101622" d="M254.793,97.564a.212.212,0,1,0-.212.212A.212.212,0,0,0,254.793,97.564Z" fill="#fd9c28"/>
            <path id="Trazado_101623" data-name="Trazado 101623" d="M250.982,93.753a.212.212,0,1,0-.212.212A.211.211,0,0,0,250.982,93.753Z" fill="#fd9c28"/>
            <path id="Trazado_101624" data-name="Trazado 101624" d="M249.551,85.536a.212.212,0,1,0-.212.212A.212.212,0,0,0,249.551,85.536Z" fill="#fd9c28"/>
          </g>
          <g id="Grupo_53806" data-name="Grupo 53806">
            <path id="Trazado_101625" data-name="Trazado 101625" d="M261.411,102.98s1.1,2.6.931,3.159-1.494.661-1.494.661H263.1a3.771,3.771,0,0,0-.2-1.028,28.624,28.624,0,0,1-.392-3.135Z" fill="#fd9c28"/>
            <path id="Trazado_101626" data-name="Trazado 101626" d="M260.145,103.347s-.973,2.883-1.469,3.085a9.344,9.344,0,0,1-1.322.368h1.965s-.275-.408-.1-.6,1.779-2.62,1.779-2.62Z" fill="#fd9c28"/>
            <path id="Trazado_101627" data-name="Trazado 101627" d="M252.917,94.18c-.058.25.585.3,1.094.367a3.534,3.534,0,0,1,.434.084,2.3,2.3,0,0,0,.935.042c.426,1.043.242,3.74.56,6.136.208,1.536,1.536,2.355,3.147,2.705l-.008.009a.239.239,0,0,1,.05.008c.084.017.159.033.242.042.142.042.276.092.268.167a5.534,5.534,0,0,0,.066.8l.543.176s.793-.977.977-.977c.008,0,.008,0,.008-.008h.15l-.025.008s.418.559.568.576a4.321,4.321,0,0,0,.735-.117,7.305,7.305,0,0,0,.442-.609l.142-.026a3.908,3.908,0,0,0,2.806-2.738h.008a7.448,7.448,0,0,0,.384-1.486,2.653,2.653,0,0,1-1.945,0c-4.225-1.687-7.247.509-7.448-1.795a11.208,11.208,0,0,0-.968-3.749,1.072,1.072,0,0,0-.4-.818.818.818,0,0,0-.944.133,1.824,1.824,0,0,1-.325.226C253.852,93.646,252.976,93.9,252.917,94.18Z" fill="#eaf7f9"/>
            <path id="Trazado_101628" data-name="Trazado 101628" d="M254.212,93.795c-.2.09-.211.5-.2.755-.516-.069-1.155-.123-1.1-.373.06-.269.936-.53,1.5-.841A.42.42,0,0,1,254.212,93.795Z" fill="#f89b31"/>
            <path id="Trazado_101629" data-name="Trazado 101629" d="M255.38,94.673c.426,1.043.242,3.74.56,6.136.208,1.536,1.536,2.355,3.147,2.705l-.008.009a.239.239,0,0,1,.05.008c.084.017.159.033.242.042.142.042.276.092.268.167a5.534,5.534,0,0,0,.066.8l.543.176s.793-.977.977-.977c.008,0,.008,0,.008-.008h.15l-.025.008s.418.559.568.576a4.321,4.321,0,0,0,.735-.117,7.305,7.305,0,0,0,.442-.609l.142-.026a3.908,3.908,0,0,0,2.806-2.738,4.131,4.131,0,0,1-3.6,1.027c-2.346-.343-4.784-.518-5.36-.919S255.965,94.389,255.38,94.673Z" fill="#c9fce9"/>
          </g>
          <g id="Grupo_53807" data-name="Grupo 53807">
            <path id="Trazado_101630" data-name="Trazado 101630" d="M248.668,104.26a7.377,7.377,0,0,0-.619,2.1c.114.375.993.44.993.44h-1.5a2.521,2.521,0,0,1,.13-.684,18.957,18.957,0,0,0,.261-2.084Z" fill="#fd9c28"/>
            <path id="Trazado_101631" data-name="Trazado 101631" d="M249.51,104.5s.647,1.917.977,2.052a6.225,6.225,0,0,0,.879.244H250.06s.182-.271.063-.4-1.184-1.742-1.184-1.742Z" fill="#fd9c28"/>
            <path id="Trazado_101632" data-name="Trazado 101632" d="M254.317,98.407c.039.167-.389.2-.727.244a2.523,2.523,0,0,0-.289.056,1.535,1.535,0,0,1-.622.028c-.283.694-.161,2.487-.372,4.081-.139,1.022-1.022,1.566-2.093,1.8l0,.006a.168.168,0,0,0-.033,0c-.056.011-.106.022-.161.028-.1.027-.184.061-.178.111a3.721,3.721,0,0,1-.044.533l-.361.117s-.528-.65-.65-.65c-.006,0-.006,0-.006-.006h-.1l.016.006s-.278.372-.377.383a2.9,2.9,0,0,1-.489-.078,4.72,4.72,0,0,1-.294-.4l-.1-.017a2.6,2.6,0,0,1-1.865-1.821h-.006a4.948,4.948,0,0,1-.255-.989,1.758,1.758,0,0,0,1.293,0c2.81-1.121,4.82.339,4.953-1.193a7.479,7.479,0,0,1,.644-2.493.716.716,0,0,1,.267-.545.544.544,0,0,1,.627.089,1.232,1.232,0,0,0,.217.15C253.7,98.052,254.278,98.224,254.317,98.407Z" fill="#eaf7f9"/>
            <path id="Trazado_101633" data-name="Trazado 101633" d="M253.456,98.151c.132.06.14.332.131.5.344-.046.769-.082.732-.248s-.623-.352-1-.56A.279.279,0,0,0,253.456,98.151Z" fill="#fd9c28"/>
            <path id="Trazado_101634" data-name="Trazado 101634" d="M252.679,98.735c-.283.694-.161,2.487-.372,4.081-.139,1.022-1.022,1.566-2.093,1.8l0,.006a.168.168,0,0,0-.033,0c-.056.011-.106.022-.161.028-.1.027-.184.061-.178.111a3.721,3.721,0,0,1-.044.533l-.361.117s-.528-.65-.65-.65c-.006,0-.006,0-.006-.006h-.1l.016.006s-.278.372-.377.383a2.9,2.9,0,0,1-.489-.078,4.72,4.72,0,0,1-.294-.4l-.1-.017a2.6,2.6,0,0,1-1.865-1.821,2.746,2.746,0,0,0,2.393.683,17.393,17.393,0,0,0,3.565-.611C251.924,102.633,252.29,98.546,252.679,98.735Z" fill="#c9fce9"/>
          </g>
        </g>
        <g id="Grupo_53811" data-name="Grupo 53811">
          <g id="Grupo_53809" data-name="Grupo 53809">
            <path id="Trazado_101635" data-name="Trazado 101635" d="M231.476,129.652l.512,3.753h.277v-3.67Z" fill="#fd9c28"/>
            <path id="Trazado_101636" data-name="Trazado 101636" d="M232.056,133.456a5,5,0,0,0,2.383.217s-2-.313-2.251-.735Z" fill="#fd9c28"/>
            <path id="Trazado_101637" data-name="Trazado 101637" d="M231.233,133.657c-.049-.005.656-.387.732-.657l.275.335S232.091,133.751,231.233,133.657Z" fill="#fd9c28"/>
          </g>
          <g id="Grupo_53810" data-name="Grupo 53810">
            <path id="Trazado_101638" data-name="Trazado 101638" d="M227.414,129.63l-.792,3.7.26.094,1.245-3.453Z" fill="#fd9c28"/>
            <path id="Trazado_101639" data-name="Trazado 101639" d="M226.785,133.456a5,5,0,0,0,2.383.217s-2-.313-2.251-.735Z" fill="#fd9c28"/>
            <path id="Trazado_101640" data-name="Trazado 101640" d="M225.962,133.657c-.049-.005.656-.387.732-.657l.275.335S226.82,133.751,225.962,133.657Z" fill="#fd9c28"/>
          </g>
          <path id="Trazado_101641" data-name="Trazado 101641" d="M230.436,125.129s0,5.935,1.67,5.934c.821,0,3.019-4.44,2.272-5.934S230.975,123.842,230.436,125.129Z" fill="#c9fce9"/>
          <path id="Trazado_101642" data-name="Trazado 101642" d="M227.7,124.631s-1.763,5.667-.168,6.163c.784.243,4.2-3.343,3.933-4.992S228.593,123.563,227.7,124.631Z" fill="#c9fce9"/>
          <path id="Trazado_101643" data-name="Trazado 101643" d="M238.727,125.218a7.042,7.042,0,0,1-1.514,1.493,8.416,8.416,0,0,1-1.658.933,13.526,13.526,0,0,1-8.35.515,4.894,4.894,0,0,1-3.144-4.951,12.037,12.037,0,0,1,.175-2.094c.5-3.057,1.943-6.266,2.406-8.04,0,0,5.888,3.646,7.189,4.529,1.188.806,2.461,1.6,3.5,2.425h0a6.674,6.674,0,0,1,1.822,2.018A2.805,2.805,0,0,1,238.727,125.218Z" fill="#eaf7f9"/>
          <path id="Trazado_101644" data-name="Trazado 101644" d="M229.332,117.661a21.561,21.561,0,0,1-3.9,4.821c-.054.044-.107.086-.161.126a3.53,3.53,0,0,1-1.206.6,4.058,4.058,0,0,1-3.743-1.321c-1.062-1.039-.234-3.074-.414-4.3s-1.913-2.577-.166-3.925-.681-3.837,1.849-5c1.327-.611,3.392,1.893,5.055,4.413C228.152,115.361,229.332,117.661,229.332,117.661Z" fill="#eaf7f9"/>
          <path id="Trazado_101645" data-name="Trazado 101645" d="M243.283,130.273a2.621,2.621,0,0,1-1.041.112c-1.75-.15-5.9-2.323-6.687-2.741l-.13-.069.441-1.751,1.46-5.8h0c.032.035.8.89,1.822,2.018,1.728,1.912,4.181,4.606,4.975,5.4A1.662,1.662,0,0,1,243.283,130.273Z" fill="#eaf7f9"/>
          <path id="Trazado_101646" data-name="Trazado 101646" d="M242.533,125.635s1.245-1.339,2.425-1.081a2.06,2.06,0,0,1,1.494.95s.825.2,1.065.644a1.093,1.093,0,0,1-.1.985s.65.577.4,1.073-2.267.854-3.667-.461A5.518,5.518,0,0,1,242.533,125.635Z" fill="#e65924"/>
          <path id="Trazado_101647" data-name="Trazado 101647" d="M244.3,129.5s.721,1.343.431,2.037c0,0-1.714-.754-1.647-1.4A.882.882,0,0,1,244.3,129.5Z" fill="#fd9c28"/>
          <path id="Trazado_101648" data-name="Trazado 101648" d="M243.679,130.72s-.247.994-1.051,1.036-1.354-1.018-.705-1.454a1.762,1.762,0,0,1,1.375-.219Z" fill="#e65924"/>
          <path id="Trazado_101649" data-name="Trazado 101649" d="M242.731,127.763a.3.3,0,1,1,.143.4A.3.3,0,0,1,242.731,127.763Z" fill="#080435"/>
          <path id="Trazado_101650" data-name="Trazado 101650" d="M243.679,129.468l-.4.8a2.621,2.621,0,0,1-1.041.112c-1.75-.15-5.9-2.323-6.687-2.741a13.526,13.526,0,0,1-8.35.515,4.894,4.894,0,0,1-3.144-4.951,4.058,4.058,0,0,1-3.743-1.321c-1.062-1.039-.234-3.074-.414-4.3s-1.913-2.577-.166-3.925c-.974,2.147,2.255,4.28,4.5,7.451q.308.435.585.893a3.869,3.869,0,0,0,.446.6c2.268,2.516,7.556,1.874,10.6,3.216a4.367,4.367,0,0,1,1.21.764c.045.041.09.083.137.123A12.689,12.689,0,0,0,243.679,129.468Z" fill="#c9fce9"/>
        </g>
        <g id="Grupo_53814" data-name="Grupo 53814">
          <g id="Grupo_53812" data-name="Grupo 53812">
            <path id="Trazado_101651" data-name="Trazado 101651" d="M363.391,125.752l-.522,3.83h-.282v-3.745Z" fill="#f89b31"/>
            <path id="Trazado_101652" data-name="Trazado 101652" d="M362.8,129.634a5.124,5.124,0,0,1-2.432.22s2.041-.319,2.3-.75Z" fill="#f89b31"/>
            <path id="Trazado_101653" data-name="Trazado 101653" d="M363.639,129.838c.05-.005-.669-.4-.747-.67l-.28.342S362.763,129.935,363.639,129.838Z" fill="#f89b31"/>
          </g>
          <g id="Grupo_53813" data-name="Grupo 53813">
            <path id="Trazado_101654" data-name="Trazado 101654" d="M367.536,125.729l.808,3.78-.266.1-1.27-3.523Z" fill="#f89b31"/>
            <path id="Trazado_101655" data-name="Trazado 101655" d="M368.178,129.634a5.124,5.124,0,0,1-2.432.22s2.041-.319,2.3-.75Z" fill="#f89b31"/>
            <path id="Trazado_101656" data-name="Trazado 101656" d="M369.018,129.838c.05-.005-.669-.4-.747-.67l-.28.342S368.143,129.935,369.018,129.838Z" fill="#f89b31"/>
          </g>
          <path id="Trazado_101657" data-name="Trazado 101657" d="M364.453,121.136s0,6.056-1.7,6.055c-.838,0-3.082-4.531-2.32-6.055S363.9,119.823,364.453,121.136Z" fill="#c9fce9"/>
          <path id="Trazado_101658" data-name="Trazado 101658" d="M367.248,120.628s1.8,5.782.172,6.288c-.8.249-4.288-3.411-4.013-5.093S366.333,119.538,367.248,120.628Z" fill="#c9fce9"/>
          <path id="Trazado_101659" data-name="Trazado 101659" d="M355.992,121.226a7.171,7.171,0,0,0,1.545,1.524,8.58,8.58,0,0,0,1.692.952,13.8,13.8,0,0,0,8.52.526,5,5,0,0,0,3.209-5.053,12.236,12.236,0,0,0-.179-2.136c-.514-3.119-1.982-6.394-2.455-8.205,0,0-6.008,3.721-7.336,4.622-1.213.823-2.511,1.628-3.567,2.475h0a6.815,6.815,0,0,0-1.859,2.059A2.861,2.861,0,0,0,355.992,121.226Z" fill="#eaf7f9"/>
          <path id="Trazado_101660" data-name="Trazado 101660" d="M365.579,113.515a22,22,0,0,0,3.984,4.92c.055.045.109.088.164.128a3.611,3.611,0,0,0,1.231.612,4.141,4.141,0,0,0,3.82-1.348c1.083-1.06.238-3.136.422-4.387s1.952-2.629.169-4.005.7-3.915-1.887-5.1c-1.354-.623-3.461,1.932-5.158,4.5C366.783,111.168,365.579,113.515,365.579,113.515Z" fill="#eaf7f9"/>
          <path id="Trazado_101661" data-name="Trazado 101661" d="M351.343,126.385a2.688,2.688,0,0,0,1.062.115c1.786-.153,6.023-2.371,6.824-2.8l.132-.071-.45-1.786-1.49-5.914h0c-.032.036-.817.908-1.859,2.059-1.764,1.951-4.266,4.7-5.076,5.512A1.7,1.7,0,0,0,351.343,126.385Z" fill="#eaf7f9"/>
          <path id="Trazado_101662" data-name="Trazado 101662" d="M352.108,121.653s-1.27-1.367-2.474-1.1a2.1,2.1,0,0,0-1.525.969s-.842.2-1.087.658a1.119,1.119,0,0,0,.1,1s-.663.588-.408,1.1,2.313.872,3.742-.471A5.628,5.628,0,0,0,352.108,121.653Z" fill="#e65924"/>
          <path id="Trazado_101663" data-name="Trazado 101663" d="M350.309,125.6s-.735,1.37-.44,2.079c0,0,1.749-.769,1.681-1.43A.9.9,0,0,0,350.309,125.6Z" fill="#f89b31"/>
          <path id="Trazado_101664" data-name="Trazado 101664" d="M350.939,126.841s.251,1.014,1.072,1.057,1.382-1.039.72-1.483a1.8,1.8,0,0,0-1.4-.224Z" fill="#e65924"/>
          <path id="Trazado_101665" data-name="Trazado 101665" d="M351.906,123.824a.308.308,0,1,0-.145.41A.307.307,0,0,0,351.906,123.824Z" fill="#080435"/>
          <path id="Trazado_101666" data-name="Trazado 101666" d="M350.939,125.563l.4.822a2.688,2.688,0,0,0,1.062.115c1.786-.153,6.023-2.371,6.824-2.8a13.8,13.8,0,0,0,8.52.526,5,5,0,0,0,3.209-5.053,4.141,4.141,0,0,0,3.82-1.348c1.083-1.06.238-3.136.422-4.387s1.952-2.629.169-4.005c1,2.191-2.3,4.367-4.59,7.6q-.313.442-.6.911a4,4,0,0,1-.456.613c-2.314,2.568-7.71,1.913-10.816,3.282a4.51,4.51,0,0,0-1.235.78c-.046.042-.092.084-.139.125A12.949,12.949,0,0,1,350.939,125.563Z" fill="#c9fce9"/>
        </g>
        <g id="Grupo_53817" data-name="Grupo 53817">
          <g id="Grupo_53815" data-name="Grupo 53815">
            <path id="Trazado_101667" data-name="Trazado 101667" d="M246.655,94.929l.1.7h.052v-.687Z" fill="#fd9c28"/>
            <path id="Trazado_101668" data-name="Trazado 101668" d="M246.764,95.64a.934.934,0,0,0,.446.041s-.374-.059-.421-.138Z" fill="#fd9c28"/>
            <path id="Trazado_101669" data-name="Trazado 101669" d="M246.61,95.678c-.009,0,.123-.073.137-.123l.051.063S246.77,95.7,246.61,95.678Z" fill="#fd9c28"/>
          </g>
          <g id="Grupo_53816" data-name="Grupo 53816">
            <path id="Trazado_101670" data-name="Trazado 101670" d="M245.9,94.924l-.148.693.049.018.233-.646Z" fill="#fd9c28"/>
            <path id="Trazado_101671" data-name="Trazado 101671" d="M245.777,95.64a.934.934,0,0,0,.446.041s-.374-.059-.421-.138Z" fill="#fd9c28"/>
            <path id="Trazado_101672" data-name="Trazado 101672" d="M245.623,95.678c-.009,0,.123-.073.137-.123l.052.063S245.784,95.7,245.623,95.678Z" fill="#fd9c28"/>
          </g>
          <path id="Trazado_101673" data-name="Trazado 101673" d="M246.461,94.082s0,1.111.312,1.111a1.319,1.319,0,0,0,.425-1.111A.445.445,0,0,0,246.461,94.082Z" fill="#c9fce9"/>
          <path id="Trazado_101674" data-name="Trazado 101674" d="M245.948,93.989s-.33,1.06-.032,1.153c.147.046.787-.626.736-.934A.445.445,0,0,0,245.948,93.989Z" fill="#c9fce9"/>
          <path id="Trazado_101675" data-name="Trazado 101675" d="M248.012,94.1a1.312,1.312,0,0,1-.283.279,1.611,1.611,0,0,1-.31.175,2.539,2.539,0,0,1-1.563.1.915.915,0,0,1-.588-.927,2.2,2.2,0,0,1,.032-.391,13.284,13.284,0,0,1,.451-1.505s1.1.682,1.345.848c.222.15.461.3.654.453h0a1.238,1.238,0,0,1,.341.378A.526.526,0,0,1,248.012,94.1Z" fill="#eaf7f9"/>
          <path id="Trazado_101676" data-name="Trazado 101676" d="M246.254,92.684a4.044,4.044,0,0,1-.731.9l-.03.023a.648.648,0,0,1-.225.112.759.759,0,0,1-.7-.247c-.2-.194-.044-.575-.077-.8s-.358-.483-.031-.735-.128-.718.346-.936c.248-.114.634.354.946.826C246.033,92.254,246.254,92.684,246.254,92.684Z" fill="#eaf7f9"/>
          <path id="Trazado_101677" data-name="Trazado 101677" d="M248.865,95.045a.512.512,0,0,1-.2.021,5.306,5.306,0,0,1-1.251-.513l-.025-.013.083-.328.273-1.085h0l.341.378c.324.358.783.862.931,1.011A.311.311,0,0,1,248.865,95.045Z" fill="#eaf7f9"/>
          <path id="Trazado_101678" data-name="Trazado 101678" d="M248.725,94.177s.232-.251.453-.2a.388.388,0,0,1,.28.178s.155.037.2.121a.2.2,0,0,1-.019.184s.122.108.075.2-.424.16-.686-.087A1.024,1.024,0,0,1,248.725,94.177Z" fill="#e65924"/>
          <path id="Trazado_101679" data-name="Trazado 101679" d="M249.055,94.9s.134.251.08.381c0,0-.321-.141-.308-.262A.165.165,0,0,1,249.055,94.9Z" fill="#fd9c28"/>
          <path id="Trazado_101680" data-name="Trazado 101680" d="M248.939,95.128s-.046.186-.2.194-.253-.19-.132-.272a.334.334,0,0,1,.258-.041Z" fill="#e65924"/>
          <path id="Trazado_101681" data-name="Trazado 101681" d="M248.762,94.575a.057.057,0,0,1,.075-.027.058.058,0,0,1,.027.076.057.057,0,0,1-.076.026A.055.055,0,0,1,248.762,94.575Z" fill="#080435"/>
          <path id="Trazado_101682" data-name="Trazado 101682" d="M248.939,94.894l-.074.151a.512.512,0,0,1-.2.021,5.306,5.306,0,0,1-1.251-.513,2.539,2.539,0,0,1-1.563.1.915.915,0,0,1-.588-.927.759.759,0,0,1-.7-.247c-.2-.194-.044-.575-.077-.8s-.358-.483-.031-.735c-.183.4.422.8.841,1.4.039.054.075.109.11.167a.664.664,0,0,0,.083.112c.425.471,1.414.351,1.984.6a.821.821,0,0,1,.226.143l.026.023A2.38,2.38,0,0,0,248.939,94.894Z" fill="#c9fce9"/>
        </g>
        <g id="Grupo_53823" data-name="Grupo 53823">
          <g id="Grupo_53818" data-name="Grupo 53818">
            <path id="Trazado_101683" data-name="Trazado 101683" d="M309.919,68.769l1.835.34s5.022-7.742,5.166-10.1c.139-2.254,4.665-12.12-.633-18.28a9.888,9.888,0,0,0-.78-.813.272.272,0,0,0-.03-.029s-.01.014-.027.043a11.916,11.916,0,0,0-1.021,2.622c-.773,2.628-1.727,7.506-1.953,15.932C312.476,58.481,311.243,65.695,309.919,68.769Z" fill="#f5c99d"/>
            <path id="Trazado_101684" data-name="Trazado 101684" d="M309.919,68.769s-1.967,2.219-2.027,3.118a2.352,2.352,0,0,0,1.592,2.226c.874.193.328-1.194.46-1.751s.7-1.4.667-1.151-.384,1.243-.276,1.4.39.184.5-.346.988-1.147.815-1.715a2.781,2.781,0,0,1,.207-1.767c.238-.762.638-1.676.638-1.676l-1.418-.3Z" fill="#f5c99d"/>
          </g>
          <path id="Trazado_101685" data-name="Trazado 101685" d="M323.193,28.7s.044.936-.518,1.119.579,2.2.489,3.569a2.885,2.885,0,0,1-.693,1.913,2.241,2.241,0,0,0,.128-1.215,1.846,1.846,0,0,1-.679,1.452c-.705.487-.516.909-.516.909s-1.593-.478-1.638-1.673a3.164,3.164,0,0,0-.013.764,3.744,3.744,0,0,1-1.442-2.223,2.311,2.311,0,0,1,1.607-2.214c.523-.018,1.69-1.045,1.659-1.433S323.193,28.7,323.193,28.7Z" fill="#070707"/>
          <path id="Trazado_101686" data-name="Trazado 101686" d="M318.79,22.007c.927-1.408,4.608-.62,8.222,1.76s5.792,5.451,4.865,6.858-4.609.62-8.223-1.76S317.862,23.415,318.79,22.007Z" fill="#e65924"/>
          <path id="Trazado_101687" data-name="Trazado 101687" d="M310.841,125.894l1.949.725s8.465-11.74,9.507-22.069a15.677,15.677,0,0,0-.279-5.28s.083-.473.228-1.308c.067-.39.15-.859.243-1.4.276-1.577.654-3.734,1.087-6.191,1-5.653,2.286-12.879,3.289-18.192l-.525-.169-5.682-1.832-1.174-3.73-4.231-1.113s-.945,1.848-1.79,10.582c-.155,1.145-.3,2.408-.4,3.778a74.792,74.792,0,0,0,.4,15.3q.291,2.277.743,4.695a20.927,20.927,0,0,1,.162,4.637C313.941,112.771,310.841,125.894,310.841,125.894Z" fill="#01483f"/>
          <path id="Trazado_101688" data-name="Trazado 101688" d="M313.059,79.7l9.187,18.264c.067-.39.15-.859.243-1.4.276-1.577.654-3.734,1.087-6.191,1-5.653,2.286-12.879,3.289-18.192l-.525-.169-5.682-1.832-1.174-3.73-5.054-1.5s-.122,2.238-.967,10.972C313.308,77.065,313.166,78.328,313.059,79.7Z" fill="#002822"/>
          <path id="Trazado_101689" data-name="Trazado 101689" d="M315.307,65.8c-.28-.335,2.006.062,2.006.062,3.563.946,13.083-2.645,13.083-2.645s3.452,3.034,3,10.307c-.222,3.55-.626,18.634-1.048,23.1-.152,1.618-.286,2.769-.34,3.229l0,0a.646.646,0,0,0,.1.4,20.981,20.981,0,0,1,1.558,3.275c4.142,11.038-.638,24.63-.638,24.63l-1.241-.5s-2.72-15.127-4.93-21.809a13.254,13.254,0,0,0-1.064-2.557,28.841,28.841,0,0,1-2.662-7.1,174.392,174.392,0,0,1-3.581-18.833C319.438,77.359,318.259,69.334,315.307,65.8Z" fill="#01483f"/>
          <path id="Trazado_101690" data-name="Trazado 101690" d="M320.824,22.167l6.5,9.856s.742-1.455,1.567-.933c1.287.813,4.052-1.97,3.476-5.9q-.057-.385-.134-.733c-1.3-1.868-2.735-3.947-3.768-5.409C325.479,17.247,320.824,22.167,320.824,22.167Z" fill="#070707"/>
          <path id="Trazado_101691" data-name="Trazado 101691" d="M317.969,42.078a11.115,11.115,0,0,0,3.62,2.158c5.737,2.174,8.688-2.524,10.007-5.844a5.132,5.132,0,0,0-1.922-.889c-.422-.109-.867-.2-1.238-.273-.6-.6-1.3-2.819-1.082-6.086l-.288.037-4.842.643s.012,1.512-.074,2.929a5.592,5.592,0,0,1-.441,2.387c-.375.03-.6.052-.6.052l0,0A30.3,30.3,0,0,0,317.969,42.078Z" fill="#f5c99d"/>
          <path id="Trazado_101692" data-name="Trazado 101692" d="M315.292,45.444c.007.13.02.259.035.393.467,3.655,1.145,15.453,1.145,15.453-1.144,2.248,15.842,7.457,16.576,5.312,1.1-1.678,0-4.89-.948-7.352-.233-.6-.285-1.242-.492-1.707a5.514,5.514,0,0,1-.316-.919,5.433,5.433,0,0,1-.055-2.414A54.206,54.206,0,0,1,332.8,48.5c.249-.778.475-1.466.647-2.04-.245-.341-.486-.659-.71-.96a8.665,8.665,0,0,1-.826-1.287,1.786,1.786,0,0,1-.2-1.231,6.059,6.059,0,0,1,.3-.882c.059-.137.122-.271.188-.4a12.612,12.612,0,0,1,1.744-2.558,11.5,11.5,0,0,0-4.271-1.638s-.047.156-.126.41c-.313,1.02-1.153,3.63-1.636,4.021-.6.486-8.922.815-9.051-.147-.127-.944,2.158-4.458,2.244-4.59l0,0-.263.018c-.429.035-.814.108-1.167.122-2.265.1-2.671.711-2.671.711C318.2,39.5,315.108,41.985,315.292,45.444Z" fill="#fd9c28"/>
          <path id="Trazado_101693" data-name="Trazado 101693" d="M322.224,31.824s.013,1.512-.074,2.93c2.68.095,4.25-2.256,4.915-3.572Z" fill="#d8a982"/>
          <path id="Trazado_101694" data-name="Trazado 101694" d="M321.245,33.11s6.324.507,6.579-3.436,1.244-6.533-2.783-7.024-4.91.963-5.316,2.259S319.606,32.876,321.245,33.11Z" fill="#f5c99d"/>
          <path id="Trazado_101695" data-name="Trazado 101695" d="M320.053,22.728c1.054-1.124,1.777-.817,2.169-.434a4.434,4.434,0,0,1,5.632,1.273,7.546,7.546,0,0,0,2.181,4.607s-1.2.639-3.816-.214a4.531,4.531,0,0,1-2.06-1.624A14.77,14.77,0,0,0,326.5,29.6c-3.084-1.671-4.079-6.171-4.176-6.647a4.981,4.981,0,0,0-1.5,1.752c-.379.985-.653,3.043-1.251,2.934C319.578,27.641,318.473,24.413,320.053,22.728Z" fill="#070707"/>
          <path id="Trazado_101696" data-name="Trazado 101696" d="M325.817,129.165h9.816a5.385,5.385,0,0,0-.278-2.63c-.491-1.089-1.26-1.584-1.076-2.9a3.535,3.535,0,0,1-3.059,1.17,10.791,10.791,0,0,1-1.7,2.208C328.875,127.472,326.015,127.308,325.817,129.165Z" fill="#002822"/>
          <path id="Trazado_101697" data-name="Trazado 101697" d="M304.743,129.165h9.815a4.075,4.075,0,0,0-.278-2.63,1.894,1.894,0,0,1,.071-2.26,3.815,3.815,0,0,1-1.653.312,3.465,3.465,0,0,1-1.46-.514,35.178,35.178,0,0,1-2.8,2.938C307.8,127.472,304.94,127.308,304.743,129.165Z" fill="#002822"/>
          <path id="Trazado_101698" data-name="Trazado 101698" d="M332.5,27.13s2.942-5.854-1.168-8.168-7.118-1.405-9.379,1.425Z" fill="#e65924"/>
          <path id="Trazado_101699" data-name="Trazado 101699" d="M319.242,26.015a5.653,5.653,0,0,1,.1-1.919,1.6,1.6,0,0,1-.107-1.527c.276-.442.9-.621,1.755-.565a13.691,13.691,0,0,1,5.731,2.213c2.785,1.738,4.725,3.863,4.908,5.231a1.122,1.122,0,0,1-.135.767,1.3,1.3,0,0,1-.945.536,1.465,1.465,0,0,1-1.657.339c-.432-.273-.842-.005-1.134.314,3.6,1.483,6.585,1.711,7.436.348.766-1.227-.388-3.442-2.753-5.754a28.212,28.212,0,0,0-4.742-3.665,29.511,29.511,0,0,0-4.376-2.264c-3.572-1.463-6.531-1.681-7.378-.325C315.118,21.063,316.511,23.522,319.242,26.015Z" fill="#fd9c28"/>
          <path id="Trazado_101700" data-name="Trazado 101700" d="M325.5,57.9a29.127,29.127,0,0,0,6.719,1.257c-.233-.6-.406-1.146-.613-1.611a5.514,5.514,0,0,1-.316-.919,5.433,5.433,0,0,1-.055-2.414c.436-2.129,1.6-5.761,2.11-7.362-1.373-3.061-2.791-1.391-2.791-1.391s-4.148,1.86-5.914,5.29S323.391,57.22,325.5,57.9Z" fill="#e65924"/>
          <path id="Trazado_101701" data-name="Trazado 101701" d="M330.8,37.737a12.556,12.556,0,0,0-4.961,7.847l-1.194-.38s.462-3.8,5.032-7.7Z" fill="#01483f"/>
          <path id="Trazado_101702" data-name="Trazado 101702" d="M316.845,45.718l1.25.083a12.7,12.7,0,0,1,2.75-8.591c-.429.034-.818.076-1.167.122C316.4,42.072,316.845,45.718,316.845,45.718Z" fill="#01483f"/>
          <path id="Trazado_101703" data-name="Trazado 101703" d="M325.716,48.536c.078-.329.843-3.524.843-3.524s.177-1-1.579-1.1S317,43.487,317,43.487a1.941,1.941,0,0,0-.861,1.564c-.013,1.05-.86,7.063-.86,7.063L314.4,65.338l18.99,8.182s1.3-6.683-.156-11.342c-.851-2.716-1.947-5.553-1.947-5.553S324.535,53.557,325.716,48.536Z" fill="#01483f"/>
          <g id="Grupo_53820" data-name="Grupo 53820">
            <g id="Grupo_53819" data-name="Grupo 53819">
              <path id="Trazado_101704" data-name="Trazado 101704" d="M325.886,45.119a.525.525,0,1,0-.659.341A.525.525,0,0,0,325.886,45.119Z" fill="#067254"/>
              <path id="Trazado_101705" data-name="Trazado 101705" d="M325.8,45.091a.525.525,0,1,0-.659.341A.526.526,0,0,0,325.8,45.091Z" fill="#4ac195"/>
            </g>
            <path id="Trazado_101706" data-name="Trazado 101706" d="M325.621,44.931a.077.077,0,1,0-.076.077A.076.076,0,0,0,325.621,44.931Z" fill="#067254"/>
            <path id="Trazado_101707" data-name="Trazado 101707" d="M325.123,44.932a.076.076,0,1,0-.076.077A.077.077,0,0,0,325.123,44.932Z" fill="#067254"/>
          </g>
          <g id="Grupo_53822" data-name="Grupo 53822">
            <g id="Grupo_53821" data-name="Grupo 53821">
              <path id="Trazado_101708" data-name="Trazado 101708" d="M318.164,44.453a.525.525,0,1,0-.659.341A.525.525,0,0,0,318.164,44.453Z" fill="#067254"/>
              <path id="Trazado_101709" data-name="Trazado 101709" d="M318.074,44.424a.525.525,0,1,0-.658.341A.523.523,0,0,0,318.074,44.424Z" fill="#4ac195"/>
            </g>
            <path id="Trazado_101710" data-name="Trazado 101710" d="M317.9,44.265a.076.076,0,1,0-.076.076A.076.076,0,0,0,317.9,44.265Z" fill="#067254"/>
            <path id="Trazado_101711" data-name="Trazado 101711" d="M317.4,44.266a.077.077,0,0,0-.077-.076.076.076,0,1,0,.077.076Z" fill="#067254"/>
          </g>
          <path id="Trazado_101712" data-name="Trazado 101712" d="M331.625,29.448s.044.936-.518,1.12.579,2.2.489,3.568a2.885,2.885,0,0,1-.693,1.913,2.241,2.241,0,0,0,.128-1.215,1.847,1.847,0,0,1-.679,1.453c-.7.487-.516.908-.516.908s-1.594-.477-1.638-1.673a3.111,3.111,0,0,0-.013.764,3.744,3.744,0,0,1-1.442-2.223,2.309,2.309,0,0,1,1.606-2.213c.523-.019,1.691-1.046,1.66-1.434S331.625,29.448,331.625,29.448Z" fill="#070707"/>
          <path id="Trazado_101713" data-name="Trazado 101713" d="M331.618,60.813A14.215,14.215,0,0,1,329.448,62c-.649-.024-1.931-1.442-3-.787s-2.112,1.749-1.743,2.186,1.623-.078,2.225.009,2.083.825,3.129.478a22.745,22.745,0,0,0,3.179-1.7Z" fill="#f5c99d"/>
          <path id="Trazado_101714" data-name="Trazado 101714" d="M333.945,39.14s7.046,8.322,9.377,13.01c0,0-2.8,6.1-11.892,11.063a3.146,3.146,0,0,1-1.02-.529c-.962-.687.1-1.19.314-1.326,2.306-1.494,6.335-7.927,6.451-8.485s-5.049-5.565-6.619-7.416S331.5,38.187,333.945,39.14Z" fill="#f5c99d"/>
          <path id="Trazado_101715" data-name="Trazado 101715" d="M323.194,30.906a3.4,3.4,0,0,1-1.613.5c-.664-.066-1.026-.867-1.026-.867A5.572,5.572,0,0,1,323.194,30.906Z" fill="#fff1e7"/>
          <path id="Trazado_101716" data-name="Trazado 101716" d="M333.945,39.14l3.165,3.092A6.4,6.4,0,0,1,331.6,47.4s-3.931-3.148-1.582-6.427S333.945,39.14,333.945,39.14Z" fill="#fd9c28"/>
          <path id="Trazado_101717" data-name="Trazado 101717" d="M317.007,38.042s-2.438,1.128-3.225,5.065c0,0,.045,1.252,1.924,1.9,0,0,2.469-6.65,2.117-6.96A.712.712,0,0,0,317.007,38.042Z" fill="#fd9c28"/>
          <path id="Trazado_101718" data-name="Trazado 101718" d="M329.448,62a1.007,1.007,0,0,0-.513-.64c-.407-.182-.786-.577-.819-.461a.534.534,0,0,0,.152.54A1.356,1.356,0,0,0,329.448,62Z" fill="#f5c99d"/>
        </g>
        <g id="Grupo_53824" data-name="Grupo 53824">
          <path id="Trazado_101719" data-name="Trazado 101719" d="M254.516,123.362s-5.626-10.98-6.39-8.129S254.516,123.362,254.516,123.362Z" fill="url(#linear-gradient-9)"/>
          <path id="Trazado_101720" data-name="Trazado 101720" d="M252.867,123.6s-5.59-5.19-6.124-4.2S252.867,123.6,252.867,123.6Z" fill="url(#linear-gradient-8)"/>
          <path id="Trazado_101721" data-name="Trazado 101721" d="M255.419,123.157c-.02-.112-3.281-9.127-.7-8.856S255.419,123.157,255.419,123.157Z" fill="url(#linear-gradient-8)"/>
        </g>
        <g id="Grupo_53825" data-name="Grupo 53825">
          <path id="Trazado_101722" data-name="Trazado 101722" d="M399.958,130.551l.014-5.529c-1.782.013-3.62.1-5.492.283-.584.057-1.172.122-1.762.2l-.3.04a30.594,30.594,0,0,0-3.062.594,38.07,38.07,0,0,0-10.167,2.89,14.294,14.294,0,0,1,3.833-.685c-.034.017-.067.031-.1.046a25.689,25.689,0,0,0-9.17,3.457,13.252,13.252,0,0,1,4.581-1.082l-.069.04c-1.2.134-4.029,1-8.1,5.714-.64.529-1.221,1.031-1.74,1.492-.664.59-1.225,1.114-1.671,1.542-.794.761-1.224,1.222-1.224,1.222l12.855.041,21.554.067.022-8.3,0-1.288Z" fill="#01644c"/>
          <path id="Trazado_101723" data-name="Trazado 101723" d="M399.977,123.5l-.005,1.526-.014,5.529,0,.739,0,1.288-.022,8.3V141l-21.576-.047c.006-.046.014-.092.022-.138a12.409,12.409,0,0,1,2.729-5.82,17.279,17.279,0,0,1,4.565-3.914,14.979,14.979,0,0,0-9,5.234,8.765,8.765,0,0,0-.614.842,7.45,7.45,0,0,1,.311-.756c2.149-4.517,8.566-6.716,8.566-6.716a26.9,26.9,0,0,0-7.954,3.04c3.352-2.9,9.269-5.3,15.434-7.181.658-.2,1.321-.395,1.983-.585C396.281,124.423,398.161,123.935,399.977,123.5Z" fill="#4ac195"/>
          <path id="Trazado_101724" data-name="Trazado 101724" d="M394.4,128.219a18.684,18.684,0,0,0,5.555,3.071l0,1.288A22.247,22.247,0,0,1,394.4,128.219Z" fill="#01644c"/>
          <path id="Trazado_101725" data-name="Trazado 101725" d="M399.986,120.024l-.009,3.472-.005,1.526-.014,5.529c-2.142-1.159-4.845-3.014-5.478-5.246a3.376,3.376,0,0,1-.08-.345h0C394.083,123.225,396.6,121.353,399.986,120.024Z" fill="#01644c"/>
        </g>
        <g id="Grupo_53828" data-name="Grupo 53828">
          <g id="Grupo_53826" data-name="Grupo 53826">
            <path id="Trazado_101726" data-name="Trazado 101726" d="M350.222,111.032l.476,3.492h.257v-3.415Z" fill="#f89b31"/>
            <path id="Trazado_101727" data-name="Trazado 101727" d="M350.762,114.572a4.672,4.672,0,0,0,2.217.2s-1.86-.291-2.1-.684Z" fill="#f89b31"/>
            <path id="Trazado_101728" data-name="Trazado 101728" d="M350,114.758c-.046-.005.61-.36.681-.611l.256.312S350.794,114.846,350,114.758Z" fill="#f89b31"/>
          </g>
          <g id="Grupo_53827" data-name="Grupo 53827">
            <path id="Trazado_101729" data-name="Trazado 101729" d="M346.442,111.011l-.737,3.447.242.087,1.158-3.213Z" fill="#f89b31"/>
            <path id="Trazado_101730" data-name="Trazado 101730" d="M345.857,114.572a4.672,4.672,0,0,0,2.217.2s-1.861-.291-2.1-.684Z" fill="#f89b31"/>
            <path id="Trazado_101731" data-name="Trazado 101731" d="M345.091,114.758c-.046-.005.61-.36.681-.611l.255.312S345.889,114.846,345.091,114.758Z" fill="#f89b31"/>
          </g>
          <path id="Trazado_101732" data-name="Trazado 101732" d="M349.254,106.822s0,5.523,1.554,5.523c.764,0,2.81-4.132,2.115-5.523S349.756,105.625,349.254,106.822Z" fill="#c9fce9"/>
          <path id="Trazado_101733" data-name="Trazado 101733" d="M346.7,106.359s-1.641,5.273-.157,5.735c.73.227,3.91-3.111,3.66-4.645S347.54,105.365,346.7,106.359Z" fill="#c9fce9"/>
          <path id="Trazado_101734" data-name="Trazado 101734" d="M355.383,91.607s.309-1.673,1.365-2.06a1.916,1.916,0,0,1,1.647,0,1.783,1.783,0,0,1,1.159-.025,1.019,1.019,0,0,1,.412.824s.8.128.849.643-1.353,1.8-3.109,1.468A5.139,5.139,0,0,1,355.383,91.607Z" fill="#e65924"/>
          <path id="Trazado_101735" data-name="Trazado 101735" d="M341.391,104.9a7.924,7.924,0,0,0,4.856,4.742c1.35.54,7.6.988,10.723-2.737a5.024,5.024,0,0,0,.675-1.044c1.842-3.791-1.1-9.309-.675-10.244.46-1.027,1.489-1.2,1.289-2.68s-2.025-1.713-2.025-1.713a3.229,3.229,0,0,0-2.51,1.2c-1.368,1.37-1.072,4.53-1.623,5.789-.374.848-2.622,1.8-4.875,1.5a5.724,5.724,0,0,1-1.034-.231c-1.393-.45-4.521-2.06-4.891-.642-.03.117-.06.237-.087.358A10.356,10.356,0,0,0,341.391,104.9Z" fill="#eaf7f9"/>
          <path id="Trazado_101736" data-name="Trazado 101736" d="M358.23,92.614s1.36.4,1.631,1.046c0,0-1.62.643-2.005.175A.821.821,0,0,1,358.23,92.614Z" fill="#f89b31"/>
          <path id="Trazado_101737" data-name="Trazado 101737" d="M358.526,94s.5.813,0,1.373-1.559.232-1.424-.482a1.641,1.641,0,0,1,.754-1.055Z" fill="#e65924"/>
          <path id="Trazado_101738" data-name="Trazado 101738" d="M338.461,102.818a3.829,3.829,0,0,0,2.93,2.082,3.3,3.3,0,0,0,1.521-.32,11.106,11.106,0,0,0,1.55-.875,23.64,23.64,0,0,0,3.117-2.523s-.126-.584-.353-1.467c-.729-2.85-2.5-8.819-4.448-8.484-2.555.441-.969,3.261-2.864,4.054a2.258,2.258,0,0,0-.557.321l-.064.055,0,0a1.321,1.321,0,0,0-.3.391v0c-.416.841.23,1.95.132,2.8C338.989,100,337.755,101.629,338.461,102.818Z" fill="#eaf7f9"/>
          <path id="Trazado_101739" data-name="Trazado 101739" d="M356.556,92.269a.28.28,0,1,1,.132.374A.28.28,0,0,1,356.556,92.269Z" fill="#080435"/>
          <path id="Trazado_101740" data-name="Trazado 101740" d="M339.357,95.606l-.064.055.009-.005A.16.16,0,0,0,339.357,95.606Z" fill="#d44b40"/>
          <path id="Trazado_101741" data-name="Trazado 101741" d="M338.461,102.818a3.829,3.829,0,0,0,2.93,2.082,7.924,7.924,0,0,0,4.856,4.742c1.35.54,7.6.988,10.723-2.737a5.024,5.024,0,0,0,.675-1.044v0a11.367,11.367,0,0,1-8.391.964,8.525,8.525,0,0,1-4.792-3.118c-.577-.728-.966-1.344-1.55-1.6-1.03-.448-1.155-1.783-1.7-2.907a3.024,3.024,0,0,0-.887-1.139c-1.083-.814-1.459-1.534-1.338-2-.416.841.23,1.95.132,2.8C338.989,100,337.755,101.629,338.461,102.818Z" fill="#c9fce9"/>
        </g>
      </g>
    </g>
  </g>
</svg>
