<svg xmlns="http://www.w3.org/2000/svg" width="117" height="117" viewBox="0 0 117 117">
  <g id="Grupo_53869" data-name="Grupo 53869" transform="translate(-197.5 -197.5)">
    <g id="Grupo_53856" data-name="Grupo 53856">
      <circle id="Elipse_4055" data-name="Elipse 4055" cx="58.5" cy="58.5" r="58.5" transform="translate(197.5 197.5)" fill="#fccc00"/>
      <circle id="Elipse_4056" data-name="Elipse 4056" cx="46.992" cy="46.992" r="46.992" transform="translate(209.008 209.008)" fill="#f4d969"/>
    </g>
    <g id="Grupo_53867" data-name="Grupo 53867">
      <g id="Grupo_53857" data-name="Grupo 53857">
        <path id="Trazado_104232" data-name="Trazado 104232" d="M284.92,273.2l-4.615,4.615a2.019,2.019,0,0,1-.212.185,1.857,1.857,0,0,1-2.727-.606l-4.465-8.15,3.449-3.449,2.164,1.185,5.986,3.279a1.857,1.857,0,0,1,.42,2.941Z" fill="#098955"/>
        <path id="Trazado_104233" data-name="Trazado 104233" d="M284.92,273.2l-4.615,4.615a2.019,2.019,0,0,1-.212.185l-3.659-6.68a2.219,2.219,0,0,1,.377-2.637l1.7-1.7,5.986,3.279a1.857,1.857,0,0,1,.42,2.941Z" fill="#14a36d"/>
      </g>
      <g id="Grupo_53866" data-name="Grupo 53866">
        <g id="Grupo_53858" data-name="Grupo 53858">
          <path id="Trazado_104234" data-name="Trazado 104234" d="M264.671,250.31v7.316h-7.315a27.94,27.94,0,0,1-27.94-27.94v-7.314l3.918,0h3.4a27.94,27.94,0,0,1,27.94,27.94Z" fill="#51c441"/>
          <path id="Trazado_104235" data-name="Trazado 104235" d="M264.671,250.31v.471l-.46.1A27.943,27.943,0,0,1,230.97,229.52l-1.553-7.148,3.918,0h3.4a27.94,27.94,0,0,1,27.94,27.94Z" fill="#65e856"/>
          <ellipse id="Elipse_4057" data-name="Elipse 4057" cx="2.937" cy="5.014" rx="2.937" ry="5.014" transform="translate(234.597 227.712) rotate(-59.537)" fill="#92f784"/>
        </g>
        <g id="Grupo_53859" data-name="Grupo 53859">
          <path id="Trazado_104236" data-name="Trazado 104236" d="M267.276,258.011l2.469,4.278.562.973-5.251,3.032a23.158,23.158,0,0,1-31.634-8.477l-3.032-5.251,3.634-2.1,1.618-.933A23.158,23.158,0,0,1,267.276,258.011Z" fill="#65e856"/>
          <path id="Trazado_104237" data-name="Trazado 104237" d="M267.276,258.011l2.469,4.278-1.616.932a23.157,23.157,0,0,1-31.634-8.477l-2.471-4.277,1.618-.933A23.158,23.158,0,0,1,267.276,258.011Z" fill="#92f784"/>
          <ellipse id="Elipse_4058" data-name="Elipse 4058" cx="5.272" cy="2.833" rx="5.272" ry="2.833" transform="matrix(0.994, -0.11, 0.11, 0.994, 239.521, 249.032)" fill="#cfffc7"/>
        </g>
        <g id="Grupo_53860" data-name="Grupo 53860">
          <path id="Trazado_104238" data-name="Trazado 104238" d="M265.057,260.231l4.278,2.469.973.562,3.032-5.251a23.159,23.159,0,0,0-8.477-31.634l-5.252-3.031-2.1,3.633-.933,1.618A23.158,23.158,0,0,0,265.057,260.231Z" fill="#51c441"/>
          <path id="Trazado_104239" data-name="Trazado 104239" d="M265.057,260.231l4.278,2.469.932-1.616a23.157,23.157,0,0,0-8.477-31.634l-4.277-2.471-.933,1.618A23.158,23.158,0,0,0,265.057,260.231Z" fill="#65e856"/>
          <ellipse id="Elipse_4059" data-name="Elipse 4059" cx="5.272" cy="2.833" rx="5.272" ry="2.833" transform="matrix(0.11, -0.994, 0.994, 0.11, 254.935, 242.948)" fill="#92f784"/>
        </g>
        <g id="Grupo_53861" data-name="Grupo 53861">
          <path id="Trazado_104240" data-name="Trazado 104240" d="M270.308,257.2v6.063h-6.064A23.158,23.158,0,0,1,241.086,240.1v-6.063h6.062A23.159,23.159,0,0,1,270.308,257.2Z" fill="#65e856"/>
          <path id="Trazado_104241" data-name="Trazado 104241" d="M270.308,257.2v.389l-.382.083a23.159,23.159,0,0,1-27.552-17.7l-1.287-5.925h6.062A23.159,23.159,0,0,1,270.308,257.2Z" fill="#92f784"/>
          <ellipse id="Elipse_4060" data-name="Elipse 4060" cx="2.434" cy="4.156" rx="2.434" ry="4.156" transform="translate(245.38 238.464) rotate(-59.537)" fill="#cfffc7"/>
        </g>
        <g id="Grupo_53863" data-name="Grupo 53863">
          <path id="Trazado_104242" data-name="Trazado 104242" d="M270.308,263.262l4.287,4.287-4.287,4.288a23.158,23.158,0,0,1-32.75,0l-4.287-4.288,4.287-4.287A23.157,23.157,0,0,1,270.308,263.262Z" fill="#098955"/>
          <path id="Trazado_104243" data-name="Trazado 104243" d="M270.308,263.262l4.287,4.287-1.261,1.262a23.158,23.158,0,0,1-32.75,0l-4.288-4.287,1.262-1.262a23.157,23.157,0,0,1,32.75,0Z" fill="#14a36d"/>
          <g id="Grupo_53862" data-name="Grupo 53862">
            <ellipse id="Elipse_4061" data-name="Elipse 4061" cx="5.921" cy="3.284" rx="5.921" ry="3.284" transform="matrix(0.983, -0.183, 0.183, 0.983, 241.693, 260.713)" fill="#15be79"/>
            <ellipse id="Elipse_4062" data-name="Elipse 4062" cx="1.815" cy="4.265" rx="1.815" ry="4.265" transform="translate(255.319 264.179) rotate(-74.991)" fill="#15be79"/>
          </g>
        </g>
        <g id="Grupo_53865" data-name="Grupo 53865">
          <path id="Trazado_104244" data-name="Trazado 104244" d="M270.308,263.262l4.287,4.287,4.287-4.287a23.157,23.157,0,0,0,0-32.749l-4.287-4.288-4.287,4.288A23.156,23.156,0,0,0,270.308,263.262Z" fill="#14a36d"/>
          <path id="Trazado_104245" data-name="Trazado 104245" d="M270.308,263.262l4.287,4.287,1.261-1.261a23.157,23.157,0,0,0,0-32.749l-4.287-4.288-1.261,1.262A23.156,23.156,0,0,0,270.308,263.262Z" fill="#15be79"/>
          <g id="Grupo_53864" data-name="Grupo 53864">
            <ellipse id="Elipse_4063" data-name="Elipse 4063" cx="5.921" cy="3.284" rx="5.921" ry="3.284" transform="matrix(0.183, -0.983, 0.983, 0.183, 265.606, 246.303)" fill="#27e090"/>
            <ellipse id="Elipse_4064" data-name="Elipse 4064" cx="1.815" cy="4.265" rx="1.815" ry="4.265" transform="translate(267.726 249.189) rotate(-15.009)" fill="#27e090"/>
          </g>
        </g>
      </g>
    </g>
    <g id="Grupo_53868" data-name="Grupo 53868">
      <path id="Trazado_104246" data-name="Trazado 104246" d="M287.4,281.194a2,2,0,0,1-.151.162l-.057.057c-1.556,1.561-2.9,3.06-4.115,4.493-8.757,10.352-10.371,17.152-31.709,17.152-12.621,0-14.717,1.506-17.374,7.16-.832-.339-1.653-.693-2.464-1.07a58.259,58.259,0,0,1-11.33-6.883q-1.462-1.131-2.851-2.356c3.736-3.734,7.531-7.529,11.046-11.044,14.568-14.565,19.4-11.556,22.018-11.556,1.359,0,3.411-1.25,5.066-2.452,1.528-1.106,2.719-2.171,2.719-2.171a4.8,4.8,0,0,1,2.267-1.414c1.828-.4,2.964,1.366,2.763,3.389a5.127,5.127,0,0,1-1.5,3.112c-1.308,1.3-11.056,7.077-11.056,7.077h14.611c5.338,0,9.888-11.9,14.966-11.9,2.653,0,3.919.669,4.522,1.309a1.817,1.817,0,0,1,.553,1.14l-.585.7v0l-.018.021-.071.086-.018.023-1.89,2.267h.014a.25.25,0,0,0,.054,0h0a13.565,13.565,0,0,1,4.07.843c.831.4,1.254.994.516,1.844Z" fill="#eea47d"/>
      <path id="Trazado_104247" data-name="Trazado 104247" d="M286.722,280.892l-.3-.121h0l0,0-.009,0c-.167-.067-.332-.128-.489-.188a.47.47,0,0,1-.06-.023h0c-.473-.171-.878-.3-1.136-.388a8.373,8.373,0,0,0-3.035-.261l1.074-1.337,0,0,.048-.06,1.765-2.193.016-.023.041-.053.018-.023.071-.086c-.135-.108-.3-.247-.5-.377l0-.005-.005,0a2.684,2.684,0,0,0-.464-.249,2.131,2.131,0,0,0-.834-.172c-5.075,0-10.48,12.923-15.818,12.923H252.483s2.795-1.657,5.594-3.4h-7.406s9.748-5.772,11.056-7.077a5.127,5.127,0,0,0,1.5-3.112c-.857-.2-1.968.169-3.22,1.421,0,0-5.169,4.623-7.786,4.623s-7.449-3.01-22.015,11.554L220.2,302.265a58.259,58.259,0,0,0,11.33,6.883c.811.377,1.632.731,2.464,1.07,2.657-5.654,4.753-7.16,17.374-7.16,21.338,0,22.952-6.8,31.709-17.152,1.211-1.433,2.559-2.932,4.115-4.493l.057-.057a2,2,0,0,0,.151-.162c-.224-.108-.45-.208-.676-.3Z" fill="#d48d77"/>
      <path id="Trazado_104248" data-name="Trazado 104248" d="M286.882,279.35c-.2.244-.4.5-.611.772l-.347.45v0l0,0q-1.893,2.443-3.588,4.522c-11.892,14.555-17.233,16.241-27,16.241-18.841,0-21.015,1.2-23.8,7.806.811.377,1.632.731,2.464,1.07,2.657-5.654,4.753-7.16,17.374-7.16,21.338,0,22.952-6.8,31.709-17.152,1.211-1.433,2.559-2.932,4.115-4.493l.057-.057a2,2,0,0,0,.151-.162c.738-.85.315-1.44-.516-1.844Z" fill="#eea47d"/>
      <path id="Trazado_104249" data-name="Trazado 104249" d="M285.323,275.4l-.583.7v0l-.09.107-.017.022-1.88,2.267-1.885,2.273-6.06,7.311c-2.767,2.768-5.543,5.932-9.911,5.932,0,0,7.228-3.277,10.327-7.7,1.235-1.761,3.092-4.143,4.88-6.369l0,0,.1-.119c1.253-1.559,2.465-3.034,3.394-4.156l.089-.108h0c.019-.025.039-.049.06-.073.411-.5.76-.917,1.026-1.234a1.822,1.822,0,0,1,.552,1.141Z" fill="#eea47d"/>
      <path id="Trazado_104250" data-name="Trazado 104250" d="M260.236,274.124l-1.187,1.187a2.205,2.205,0,0,1-3.12,0l-.406-.406c-.015-.015-.031-.031-.045-.047,1.528-1.106,2.718-2.172,2.718-2.172a4.824,4.824,0,0,1,2.267-1.415,2.205,2.205,0,0,1-.227,2.853Z" fill="#f3c3b1"/>
      <path id="Trazado_104251" data-name="Trazado 104251" d="M284.808,276.17a2.206,2.206,0,0,0-3.119,0l-1.187,1.187a2.161,2.161,0,0,0,.369,3.422Z" fill="#f5b890"/>
      <path id="Trazado_104252" data-name="Trazado 104252" d="M284.74,276.109a2.187,2.187,0,0,0-1.057-.541l-3.578,4.384a1.914,1.914,0,0,0,.765.827Z" fill="#f3c3b1"/>
      <path id="Trazado_104253" data-name="Trazado 104253" d="M287.19,281.414c-1.556,1.56-2.9,3.06-4.116,4.493l-.048-.047-.407-.406c-.029-.03-.058-.06-.084-.091-.048-.054-.094-.109-.136-.165-.022-.033-.045-.065-.066-.1a2.209,2.209,0,0,1,.286-2.768l1.187-1.186a2.2,2.2,0,0,1,2.05-.591h0l.065.016a2.112,2.112,0,0,1,.494.2l0,0h0a.15.15,0,0,1,.03.018,1.965,1.965,0,0,1,.216.137l.046.036c.026.021.052.04.077.061s.034.03.05.046.055.05.082.077Z" fill="#f5b890"/>
      <path id="Trazado_104254" data-name="Trazado 104254" d="M287.19,281.414c-1.556,1.56-2.9,3.06-4.116,4.493l-.048-.047-.407-.406c-.029-.03-.058-.06-.084-.091-.048-.054-.094-.109-.136-.165-.022-.033-.045-.065-.066-.1q1.7-2.079,3.586-4.521h0l0,0a2.211,2.211,0,0,1,.486.191l.008,0,0,0a.245.245,0,0,1,.032.018,2.314,2.314,0,0,1,.216.137l.046.036c.026.021.052.04.077.061s.034.03.05.046.055.05.082.077Z" fill="#f3c3b1"/>
    </g>
  </g>
</svg>
