<svg xmlns="http://www.w3.org/2000/svg" xmlns:xlink="http://www.w3.org/1999/xlink" width="151.702" height="147.1" viewBox="0 0 151.702 147.1">
  <defs>
    <linearGradient id="linear-gradient" x1="0.842" y1="0.134" x2="0.095" y2="0.623" gradientUnits="objectBoundingBox">
      <stop offset="0.004" stop-color="#2c79e3"/>
      <stop offset="1" stop-color="#71aaf6"/>
    </linearGradient>
    <linearGradient id="linear-gradient-2" x1="0.636" y1="0.08" x2="0.353" y2="1.059" gradientUnits="objectBoundingBox">
      <stop offset="0" stop-color="#80a3f9"/>
      <stop offset="0.996" stop-color="#61d4d7"/>
    </linearGradient>
    <clipPath id="clip-path">
      <path id="Trazado_112748" data-name="Trazado 112748" d="M1607.583,1894.223c-3.228-7.536-6.859-19.155-4.98-32.573,2.158-15.408,9.611-19.107,15.123-35.859,7.868-23.913-4.791-39.622,4.83-47.564,4.692-3.873,12.545-4.565,17.688-1.542,14.676,8.625,14.652,51.81-5.8,70.456-9.248,8.433-17.975,8.295-24.553,18.734C1604.082,1875.1,1605.6,1886.463,1607.583,1894.223Z" transform="translate(-1602.088 -1774.802)" fill="url(#linear-gradient)"/>
    </clipPath>
    <clipPath id="clip-path-2">
      <path id="Trazado_112754" data-name="Trazado 112754" d="M1574.8,1916.639c-.873-6.476-1.185-16.559,4.329-25.4,9.62-15.43,26.146-9.723,42.614-26.071,13.283-13.184,9.539-23.851,24.078-32.443,2.433-1.438,15.3-9.368,24.538-4.085,5.2,2.977,6.947,8.821,7.275,9.919,4.947,16.584-12.546,41.793-34.7,52.9-12.726,6.382-16.7,4.054-38.979,11.275A124.066,124.066,0,0,0,1574.8,1916.639Z" transform="translate(-1574.305 -1826.843)" fill="url(#linear-gradient-2)"/>
    </clipPath>
    <linearGradient id="linear-gradient-5" x1="-6.715" y1="1.573" x2="-7.992" y2="3.027" gradientUnits="objectBoundingBox">
      <stop offset="0.004" stop-color="#f36f56"/>
      <stop offset="1" stop-color="#ffc444"/>
    </linearGradient>
    <linearGradient id="linear-gradient-6" x1="0.491" y1="0.477" x2="0.209" y2="0.496" gradientUnits="objectBoundingBox">
      <stop offset="0" stop-color="#2f638c"/>
      <stop offset="0.996" stop-color="#05224f"/>
    </linearGradient>
    <linearGradient id="linear-gradient-7" x1="0.708" y1="0.034" x2="0.013" y2="1.514" gradientUnits="objectBoundingBox">
      <stop offset="0" stop-color="#444b8c"/>
      <stop offset="0.996" stop-color="#26264f"/>
    </linearGradient>
    <linearGradient id="linear-gradient-8" x1="1.227" y1="-1.493" x2="-27.994" y2="78.648" gradientUnits="objectBoundingBox">
      <stop offset="0" stop-color="#ffc444"/>
      <stop offset="0.996" stop-color="#f36f56"/>
    </linearGradient>
    <linearGradient id="linear-gradient-9" x1="0.602" y1="-0.466" x2="-0.015" y2="5.323" gradientUnits="objectBoundingBox">
      <stop offset="0" stop-color="#311944"/>
      <stop offset="1" stop-color="#6b3976"/>
    </linearGradient>
    <linearGradient id="linear-gradient-10" x1="0.704" y1="-1.354" x2="0.086" y2="4.22" xlink:href="#linear-gradient-9"/>
    <linearGradient id="linear-gradient-11" x1="0.992" y1="-1.6" x2="0.393" y2="0.938" xlink:href="#linear-gradient-9"/>
    <linearGradient id="linear-gradient-12" x1="1.242" y1="-1.766" x2="0.006" y2="1.998" xlink:href="#linear-gradient-9"/>
    <linearGradient id="linear-gradient-13" x1="1.105" y1="-1.317" x2="-0.179" y2="2.526" xlink:href="#linear-gradient-9"/>
    <linearGradient id="linear-gradient-14" x1="-0.074" y1="8.894" x2="0.216" y2="4.642" xlink:href="#linear-gradient-5"/>
    <linearGradient id="linear-gradient-15" x1="0.704" y1="-1.354" x2="0.086" y2="4.22" gradientUnits="objectBoundingBox">
      <stop offset="0" stop-color="#ff9085"/>
      <stop offset="1" stop-color="#fb6fbb"/>
    </linearGradient>
    <linearGradient id="linear-gradient-16" x1="0.222" y1="2.324" x2="0.504" y2="0.461" xlink:href="#linear-gradient-5"/>
    <linearGradient id="linear-gradient-17" x1="-0.287" y1="4.233" x2="0.295" y2="1.469" xlink:href="#linear-gradient-5"/>
    <linearGradient id="linear-gradient-18" x1="-0.395" y1="4.676" x2="0.209" y2="1.854" xlink:href="#linear-gradient-5"/>
    <linearGradient id="linear-gradient-19" x1="-225.637" y1="26.087" x2="-226.423" y2="19.203" xlink:href="#linear-gradient-7"/>
    <linearGradient id="linear-gradient-20" x1="-795.231" y1="22.857" x2="-795.231" y2="13.023" xlink:href="#linear-gradient-8"/>
    <linearGradient id="linear-gradient-21" x1="-545.812" y1="21.317" x2="-545.812" y2="11.848" xlink:href="#linear-gradient-8"/>
    <linearGradient id="linear-gradient-22" x1="-291.055" y1="13.573" x2="-292.079" y2="9.782" xlink:href="#linear-gradient-7"/>
    <linearGradient id="linear-gradient-23" x1="-96.738" y1="1.063" x2="-96.901" y2="2.022" gradientUnits="objectBoundingBox">
      <stop offset="0" stop-color="#311944"/>
      <stop offset="1" stop-color="#893976"/>
    </linearGradient>
    <linearGradient id="linear-gradient-24" x1="-103.074" y1="1.063" x2="-103.249" y2="2.022" xlink:href="#linear-gradient-23"/>
    <linearGradient id="linear-gradient-25" x1="-84.842" y1="1.402" x2="-87.565" y2="1.368" xlink:href="#linear-gradient-23"/>
    <linearGradient id="linear-gradient-26" x1="-26.033" y1="2.488" x2="-25.467" y2="1.259" xlink:href="#linear-gradient-15"/>
    <linearGradient id="linear-gradient-27" x1="17.189" y1="9.002" x2="17.646" y2="10.939" xlink:href="#linear-gradient-15"/>
    <linearGradient id="linear-gradient-28" x1="-164.593" y1="5.398" x2="-165.251" y2="6.264" xlink:href="#linear-gradient-8"/>
    <linearGradient id="linear-gradient-29" x1="-64.987" y1="2.834" x2="-65.529" y2="3.781" xlink:href="#linear-gradient-7"/>
    <linearGradient id="linear-gradient-30" x1="-221.368" y1="19.474" x2="-220.931" y2="17.433" xlink:href="#linear-gradient-5"/>
    <linearGradient id="linear-gradient-31" x1="-146.923" y1="16.827" x2="-145.91" y2="16.827" xlink:href="#linear-gradient-7"/>
    <linearGradient id="linear-gradient-32" x1="-147.866" y1="16.269" x2="-146.852" y2="16.269" xlink:href="#linear-gradient-7"/>
    <linearGradient id="linear-gradient-33" x1="-263.085" y1="23.844" x2="-262.068" y2="23.844" xlink:href="#linear-gradient-7"/>
    <linearGradient id="linear-gradient-34" x1="-263.319" y1="23.869" x2="-262.303" y2="23.869" xlink:href="#linear-gradient-7"/>
    <linearGradient id="linear-gradient-35" x1="-491.302" y1="10.807" x2="-492.283" y2="11.728" xlink:href="#linear-gradient-8"/>
    <linearGradient id="linear-gradient-36" x1="-71.719" y1="5.566" x2="-70.13" y2="2.849" xlink:href="#linear-gradient-15"/>
    <linearGradient id="linear-gradient-37" x1="-33.053" y1="3.54" x2="-31.915" y2="1.055" xlink:href="#linear-gradient-7"/>
    <linearGradient id="linear-gradient-38" x1="1.841" y1="1.034" x2="-0.253" y2="0.187" gradientUnits="objectBoundingBox">
      <stop offset="0" stop-color="#448c88"/>
      <stop offset="0.996" stop-color="#264a4f"/>
    </linearGradient>
    <linearGradient id="linear-gradient-39" x1="2.404" y1="1.028" x2="-1.086" y2="0.111" xlink:href="#linear-gradient-38"/>
    <linearGradient id="linear-gradient-40" x1="0.495" y1="0.117" x2="0.513" y2="1.536" gradientUnits="objectBoundingBox">
      <stop offset="0" stop-color="#809ff9"/>
      <stop offset="0.996" stop-color="#61d0d7"/>
    </linearGradient>
  </defs>
  <g id="Grupo_83612" data-name="Grupo 83612" transform="translate(-1510.063 -1774.802)">
    <path id="Trazado_112742" data-name="Trazado 112742" d="M1570.689,1776.611s-52.343,2.274-55.313,48.282-16.7,89.784,16.706,92.4,111.738,7.689,122.875-19.721S1671.661,1766.958,1570.689,1776.611Z" transform="translate(0 -0.305)" fill="#8bf1fa"/>
    <g id="Grupo_83600" data-name="Grupo 83600" transform="translate(1557.594 1774.802)">
      <g id="Grupo_83594" data-name="Grupo 83594" transform="translate(20.556)">
        <g id="Grupo_83593" data-name="Grupo 83593">
          <path id="Trazado_112743" data-name="Trazado 112743" d="M1607.583,1894.223c-3.228-7.536-6.859-19.155-4.98-32.573,2.158-15.408,9.611-19.107,15.123-35.859,7.868-23.913-4.791-39.622,4.83-47.564,4.692-3.873,12.545-4.565,17.688-1.542,14.676,8.625,14.652,51.81-5.8,70.456-9.248,8.433-17.975,8.295-24.553,18.734C1604.082,1875.1,1605.6,1886.463,1607.583,1894.223Z" transform="translate(-1602.088 -1774.802)" fill="url(#linear-gradient)"/>
          <g id="Grupo_83592" data-name="Grupo 83592" clip-path="url(#clip-path)">
            <g id="Grupo_83591" data-name="Grupo 83591" transform="translate(1.918 -3.724)" opacity="0.5" style="mix-blend-mode: soft-light;isolation: isolate">
              <path id="Trazado_112744" data-name="Trazado 112744" d="M1605.046,1873.535l-.366-.06a59.449,59.449,0,0,1,2.494-9.874c2.55-7.358,5.7-11.55,9.693-16.858a137.5,137.5,0,0,0,8.824-12.86c6.173-10.31,8.053-13.9,9.518-19.544a54.265,54.265,0,0,0,.34-25.593,52.922,52.922,0,0,0-8.525-18.76l.3-.216a53.281,53.281,0,0,1,8.584,18.891,54.644,54.644,0,0,1-.341,25.771c-1.478,5.685-3.365,9.3-9.559,19.642a137.619,137.619,0,0,1-8.846,12.892c-3.971,5.282-7.107,9.454-9.639,16.757A59.1,59.1,0,0,0,1605.046,1873.535Z" transform="translate(-1604.68 -1769.769)" fill="#fff"/>
              <path id="Trazado_112745" data-name="Trazado 112745" d="M1640.682,1809.237l-.032-.3c-.839-7.941-6.376-12.646-10.874-15.195a35.042,35.042,0,0,0-9.7-3.676l.067-.365a35.423,35.423,0,0,1,9.8,3.714c4.518,2.558,10.067,7.258,11.033,15.171a29.214,29.214,0,0,0,6.834-7.275,26.1,26.1,0,0,0,3.395-21.538l.359-.094a26.462,26.462,0,0,1-3.451,21.848,28.962,28.962,0,0,1-7.182,7.545Z" transform="translate(-1608.686 -1772.346)" fill="#fff"/>
              <path id="Trazado_112746" data-name="Trazado 112746" d="M1640.657,1846.113h-.093a26.5,26.5,0,0,1-7.931-1.207l-.147-.053.027-.154c1.363-8-.918-13.6-3.072-16.888a18.757,18.757,0,0,0-5.058-5.287l.2-.315a19.129,19.129,0,0,1,5.163,5.384c2.182,3.327,4.493,8.973,3.164,17.012a26.634,26.634,0,0,0,7.674,1.137,21.987,21.987,0,0,0,15.239-5.735l.253.272A22.291,22.291,0,0,1,1640.657,1846.113Z" transform="translate(-1609.805 -1783.41)" fill="#fff"/>
              <path id="Trazado_112747" data-name="Trazado 112747" d="M1631.132,1867.468a21.448,21.448,0,0,1-3.8-.328,14.748,14.748,0,0,1-5.988-2.287l-.106-.081.042-.126c1.444-4.3.479-9.765-.586-13.592a49.653,49.653,0,0,0-2.69-7.362l.334-.161c.061.127,6.048,12.716,3.337,21.1a15.252,15.252,0,0,0,5.747,2.146c3.5.627,9.25.635,16.764-2.883l.157.337A31.124,31.124,0,0,1,1631.132,1867.468Z" transform="translate(-1608.145 -1788.956)" fill="#fff"/>
            </g>
          </g>
        </g>
      </g>
      <g id="Grupo_83598" data-name="Grupo 83598" transform="translate(0 38.503)">
        <g id="Grupo_83597" data-name="Grupo 83597">
          <path id="Trazado_112749" data-name="Trazado 112749" d="M1574.8,1916.639c-.873-6.476-1.185-16.559,4.329-25.4,9.62-15.43,26.146-9.723,42.614-26.071,13.283-13.184,9.539-23.851,24.078-32.443,2.433-1.438,15.3-9.368,24.538-4.085,5.2,2.977,6.947,8.821,7.275,9.919,4.947,16.584-12.546,41.793-34.7,52.9-12.726,6.382-16.7,4.054-38.979,11.275A124.066,124.066,0,0,0,1574.8,1916.639Z" transform="translate(-1574.305 -1826.843)" fill="url(#linear-gradient-2)"/>
          <g id="Grupo_83596" data-name="Grupo 83596" clip-path="url(#clip-path-2)">
            <g id="Grupo_83595" data-name="Grupo 83595" transform="translate(-1.916 -5.794)" opacity="0.5" style="mix-blend-mode: soft-light;isolation: isolate">
              <path id="Trazado_112750" data-name="Trazado 112750" d="M1572.076,1922.313l-.361-.087c3.671-15.328,10.074-25.511,19.031-30.265,4.388-2.329,7.832-2.615,11.478-2.918,3.906-.324,7.945-.66,13.353-3.713,5.253-2.966,7.194-5.917,9.651-9.654a60.8,60.8,0,0,1,11.052-13.083,64.838,64.838,0,0,1,12.553-9.019c3.66-2.118,6.551-3.792,9.964-8,5.577-6.873,8.652-15.811,9.138-26.564l.371.017c-.49,10.833-3.592,19.843-9.221,26.781-3.456,4.259-6.372,5.948-10.066,8.086a64.443,64.443,0,0,0-12.488,8.972,60.477,60.477,0,0,0-10.992,13.013c-2.484,3.778-4.447,6.763-9.779,9.773-5.478,3.093-9.558,3.432-13.5,3.76-3.608.3-7.015.583-11.336,2.877C1582.061,1896.992,1575.722,1907.093,1572.076,1922.313Z" transform="translate(-1571.715 -1819.012)" fill="#fff"/>
              <path id="Trazado_112751" data-name="Trazado 112751" d="M1676.626,1856.576q-1.3,0-2.645-.081l-.249-.015.085-.234a68.781,68.781,0,0,0,2.894-11.8c.876-5.882,1.09-13.883-2.865-18.6l.284-.238c2.233,2.661,4.557,8.1,2.948,18.9a69.881,69.881,0,0,1-2.83,11.628,41.641,41.641,0,0,0,25.792-7.134,39.326,39.326,0,0,0,8.945-8.143l.3.22a39.7,39.7,0,0,1-9.036,8.231A42,42,0,0,1,1676.626,1856.576Z" transform="translate(-1598.252 -1820.729)" fill="#fff"/>
              <path id="Trazado_112752" data-name="Trazado 112752" d="M1671.229,1881.048a52.378,52.378,0,0,1-6.563-.414,48.955,48.955,0,0,1-13.729-3.68l-.144-.069.047-.153c3.407-11.04,1.166-26.97,1.143-27.13l.368-.052c.023.159,2.255,16.023-1.108,27.138a50.872,50.872,0,0,0,43.938-2.2l.181.323A49.048,49.048,0,0,1,1671.229,1881.048Z" transform="translate(-1592.286 -1826.956)" fill="#fff"/>
              <path id="Trazado_112753" data-name="Trazado 112753" d="M1652.146,1913.706a68.787,68.787,0,0,1-25.672-4.971,41.971,41.971,0,0,1-8.955-4.845l-.154-.121.128-.147c8.753-10.057,5.969-27.2,5.94-27.368l.366-.062a47.475,47.475,0,0,1,.352,9.965c-.347,5.089-1.715,12.244-6.247,17.558a43.436,43.436,0,0,0,8.728,4.683,68.429,68.429,0,0,0,25.517,4.937Z" transform="translate(-1583.59 -1833.886)" fill="#fff"/>
            </g>
          </g>
        </g>
      </g>
      <g id="Grupo_83599" data-name="Grupo 83599" transform="translate(8.229 76.47)">
        <path id="Trazado_112755" data-name="Trazado 112755" d="M1585.427,1931.443a69.6,69.6,0,0,1,15.39-12.125c12.894-7.462,19.757-5.752,24.515-12.676,4.925-7.166-.1-12.387,5.886-20.48.5-.68,6.967-9.183,14.49-7.865,5.263.923,8.22,6.156,9.607,8.612,5.383,9.531,6.241,25.42-3.2,35.092-8.947,9.17-22.626,8.138-26.975,7.781-7.629-.626-9.877-3.136-17.591-3.551A42.839,42.839,0,0,0,1585.427,1931.443Z" transform="translate(-1585.427 -1878.158)" fill="url(#linear-gradient-5)"/>
      </g>
    </g>
    <g id="Grupo_83608" data-name="Grupo 83608" transform="translate(1515.852 1782.348)">
      <g id="Grupo_83602" data-name="Grupo 83602">
        <path id="Trazado_112756" data-name="Trazado 112756" d="M1589.893,1789.761l14.945,124.217a3.273,3.273,0,0,1-2.857,3.711l-62.247,6.834c-3.812.237-5.9-1.711-6.136-3.691l-15.69-132.063c-.234-1.97,1.637-3.753,5.466-3.753l62.813,1.323A3.959,3.959,0,0,1,1589.893,1789.761Z" transform="translate(-1517.888 -1785.005)" fill="url(#linear-gradient-6)"/>
        <path id="Trazado_112757" data-name="Trazado 112757" d="M1593.58,1789.544l15.026,124.838a3.287,3.287,0,0,1-2.867,3.73l-64.532,6.425a3.773,3.773,0,0,1-4.114-3.253l-15.779-132.746a3.131,3.131,0,0,1,3.3-3.536l65.247,1.1A3.978,3.978,0,0,1,1593.58,1789.544Z" transform="translate(-1518.773 -1785.001)" fill="url(#linear-gradient-7)"/>
        <path id="Trazado_112758" data-name="Trazado 112758" d="M1593.477,1799.094l13.927,115.75a3.066,3.066,0,0,1-2.685,3.477l-60.69,5.9a3.518,3.518,0,0,1-3.824-3.036l-14.581-122.626a2.933,2.933,0,0,1,3.06-3.315l61.313.653A3.691,3.691,0,0,1,1593.477,1799.094Z" transform="translate(-1519.894 -1787.666)" fill="#d8dee8"/>
        <path id="Trazado_112759" data-name="Trazado 112759" d="M1572.5,1790.6a1.033,1.033,0,0,1-1.066,1.188,1.422,1.422,0,0,1-1.356-1.221,1.033,1.033,0,0,1,1.068-1.188A1.424,1.424,0,0,1,1572.5,1790.6Z" transform="translate(-1531.461 -1786.139)" fill="url(#linear-gradient-8)"/>
        <g id="Grupo_83601" data-name="Grupo 83601" transform="translate(2.517)" style="mix-blend-mode: soft-light;isolation: isolate">
          <path id="Trazado_112760" data-name="Trazado 112760" d="M1581.863,1874.128c-12.425-22.971-30.985-29.847-36.573-53.521-3.021-12.8-.963-25.045,2.5-35.213l-23.182-.391a3.131,3.131,0,0,0-3.3,3.536l15.779,132.746a3.773,3.773,0,0,0,4.114,3.253l50.728-5.05C1592.31,1898.9,1587.4,1884.368,1581.863,1874.128Z" transform="translate(-1521.29 -1785.001)" fill="#fff"/>
        </g>
      </g>
      <g id="Grupo_83607" data-name="Grupo 83607" transform="translate(12.776 12.475)">
        <path id="Trazado_112761" data-name="Trazado 112761" d="M1598.975,1802.521l-60.415.775a3.4,3.4,0,0,0-3.377,3.9l1.2,10.028a4.331,4.331,0,0,0,4.291,3.764l60.346-1.349a3.255,3.255,0,0,0,3.13-3.79l-1.152-9.664A4.156,4.156,0,0,0,1598.975,1802.521Z" transform="translate(-1535.156 -1802.034)" fill="url(#linear-gradient-9)"/>
        <path id="Trazado_112762" data-name="Trazado 112762" d="M1609.661,1827.216l-60.33,1.486a3.441,3.441,0,0,0-3.372,3.944l1.2,10.028a4.268,4.268,0,0,0,4.285,3.719l60.262-2.06a3.3,3.3,0,0,0,3.125-3.831l-1.152-9.664A4.1,4.1,0,0,0,1609.661,1827.216Z" transform="translate(-1537.959 -1808.458)" fill="url(#linear-gradient-10)"/>
        <path id="Trazado_112763" data-name="Trazado 112763" d="M1611.01,1902.531l-60.12,3.255a3.562,3.562,0,0,0-3.358,4.056l3.724,31.237a4.057,4.057,0,0,0,4.266,3.562l59.97-4.516a3.463,3.463,0,0,0,3.107-3.977l-3.589-30.1A3.947,3.947,0,0,0,1611.01,1902.531Z" transform="translate(-1538.368 -1828.048)" fill="url(#linear-gradient-11)"/>
        <path id="Trazado_112764" data-name="Trazado 112764" d="M1548.978,1890.6l24.521-1.265a3.466,3.466,0,0,0,3.251-3.974l-2.325-19.506a4.151,4.151,0,0,0-4.16-3.646l-24.564.9a3.492,3.492,0,0,0-3.366,3.99l2.367,19.848A4.176,4.176,0,0,0,1548.978,1890.6Z" transform="translate(-1537.016 -1817.56)" fill="url(#linear-gradient-12)"/>
        <path id="Trazado_112765" data-name="Trazado 112765" d="M1618.873,1860.439l-23.611.867a3.388,3.388,0,0,0-3.225,3.908l2.32,19.455a4.055,4.055,0,0,0,4.119,3.584l23.568-1.216a3.368,3.368,0,0,0,3.118-3.893l-2.28-19.127A4.034,4.034,0,0,0,1618.873,1860.439Z" transform="translate(-1549.945 -1817.1)" fill="url(#linear-gradient-13)"/>
        <path id="Trazado_112766" data-name="Trazado 112766" d="M1599.974,1801.863l-60.415.775a3.4,3.4,0,0,0-3.377,3.9l1.2,10.027a4.33,4.33,0,0,0,4.29,3.764l60.347-1.349a3.255,3.255,0,0,0,3.13-3.79l-1.152-9.663A4.156,4.156,0,0,0,1599.974,1801.863Z" transform="translate(-1535.416 -1801.863)" fill="url(#linear-gradient-14)"/>
        <path id="Trazado_112767" data-name="Trazado 112767" d="M1610.66,1826.558l-60.331,1.486a3.441,3.441,0,0,0-3.371,3.943l1.2,10.028a4.267,4.267,0,0,0,4.285,3.719l60.262-2.059a3.3,3.3,0,0,0,3.125-3.832l-1.153-9.664A4.1,4.1,0,0,0,1610.66,1826.558Z" transform="translate(-1538.219 -1808.286)" fill="url(#linear-gradient-15)"/>
        <path id="Trazado_112768" data-name="Trazado 112768" d="M1612.008,1901.873l-60.119,3.256a3.562,3.562,0,0,0-3.357,4.056l3.724,31.237a4.057,4.057,0,0,0,4.266,3.563l59.97-4.516a3.463,3.463,0,0,0,3.107-3.976l-3.589-30.1A3.948,3.948,0,0,0,1612.008,1901.873Z" transform="translate(-1538.628 -1827.877)" fill="url(#linear-gradient-16)"/>
        <path id="Trazado_112769" data-name="Trazado 112769" d="M1549.977,1889.944l24.521-1.265a3.466,3.466,0,0,0,3.251-3.974l-2.325-19.506a4.151,4.151,0,0,0-4.16-3.647l-24.565.9a3.49,3.49,0,0,0-3.365,3.989l2.367,19.849A4.176,4.176,0,0,0,1549.977,1889.944Z" transform="translate(-1537.276 -1817.389)" fill="url(#linear-gradient-17)"/>
        <path id="Trazado_112770" data-name="Trazado 112770" d="M1549.977,1889.944l24.521-1.265a3.466,3.466,0,0,0,3.251-3.974l-2.325-19.506a4.151,4.151,0,0,0-4.16-3.647l-24.565.9a3.49,3.49,0,0,0-3.365,3.989l2.367,19.849A4.176,4.176,0,0,0,1549.977,1889.944Z" transform="translate(-1537.276 -1817.389)" fill="#fff" opacity="0.5" style="mix-blend-mode: soft-light;isolation: isolate"/>
        <path id="Trazado_112771" data-name="Trazado 112771" d="M1619.872,1859.781l-23.611.867a3.388,3.388,0,0,0-3.225,3.908l2.32,19.456a4.056,4.056,0,0,0,4.119,3.584l23.569-1.216a3.369,3.369,0,0,0,3.118-3.893l-2.28-19.127A4.035,4.035,0,0,0,1619.872,1859.781Z" transform="translate(-1550.205 -1816.928)" fill="url(#linear-gradient-18)"/>
        <g id="Grupo_83603" data-name="Grupo 83603" transform="translate(8.712 19.009)" opacity="0.5" style="mix-blend-mode: soft-light;isolation: isolate">
          <path id="Trazado_112772" data-name="Trazado 112772" d="M1550.329,1828.3a3.441,3.441,0,0,0-3.371,3.943l1.2,10.028a4.268,4.268,0,0,0,4.285,3.719l42.349-1.447c-4.552-6.318-10.462-11.2-14.091-16.991Z" transform="translate(-1546.931 -1827.555)" fill="#fff"/>
        </g>
        <g id="Grupo_83604" data-name="Grupo 83604" transform="translate(9.876 75.368)" opacity="0.5" style="mix-blend-mode: soft-light;isolation: isolate">
          <path id="Trazado_112773" data-name="Trazado 112773" d="M1586.684,1903.729l-34.795,1.885a3.562,3.562,0,0,0-3.357,4.056l3.724,31.237a4.057,4.057,0,0,0,4.266,3.563l26.969-2.031a44.729,44.729,0,0,1-3.3-16.1C1580.07,1916.667,1583.34,1909.93,1586.684,1903.729Z" transform="translate(-1548.503 -1903.729)" fill="#fff"/>
        </g>
        <g id="Grupo_83605" data-name="Grupo 83605" transform="translate(42.804 43.485)" opacity="0.5" style="mix-blend-mode: soft-light;isolation: isolate">
          <path id="Trazado_112774" data-name="Trazado 112774" d="M1604.849,1868.073a30.011,30.011,0,0,0-2.2-7.436l-6.392.234a3.388,3.388,0,0,0-3.225,3.908l2.32,19.456a4.056,4.056,0,0,0,4.119,3.584l1.349-.07C1603.832,1881.956,1606.127,1876.086,1604.849,1868.073Z" transform="translate(-1593.009 -1860.637)" fill="#fff"/>
        </g>
        <g id="Grupo_83606" data-name="Grupo 83606" transform="translate(0.739 0.405)" opacity="0.5" style="mix-blend-mode: soft-light;isolation: isolate">
          <path id="Trazado_112775" data-name="Trazado 112775" d="M1566.674,1809.5a22.47,22.47,0,0,1,1.767-7.085l-28.882.371a3.4,3.4,0,0,0-3.377,3.9l1.2,10.027a4.33,4.33,0,0,0,4.29,3.764l27.116-.606A19,19,0,0,1,1566.674,1809.5Z" transform="translate(-1536.154 -1802.41)" fill="#fff"/>
        </g>
      </g>
    </g>
    <g id="Grupo_83610" data-name="Grupo 83610" transform="translate(1592.692 1815.645)">
      <path id="Trazado_112776" data-name="Trazado 112776" d="M1668.958,1964.522c.527.881.434,1.287.336,1.469-.286.537-1.118.122-3.164.54a3.482,3.482,0,0,1-1.285.062c-.5-.075-1.109-.289-1.1-.424.005-.049.091-.075.124-.086.564-.17,4.06-1.571,4.06-1.571Z" transform="translate(-1632.67 -1864.994)" fill="url(#linear-gradient-19)"/>
      <path id="Trazado_112777" data-name="Trazado 112777" d="M1670.369,1961.764l-.149,2.081s-.83.7-1.125-.04a10.665,10.665,0,0,1-.33-2Z" transform="translate(-1633.975 -1864.279)" fill="url(#linear-gradient-20)"/>
      <path id="Trazado_112778" data-name="Trazado 112778" d="M1656.969,1964.252l1.063,2.292,1.242-.306-.475-2.165Z" transform="translate(-1630.906 -1864.88)" fill="url(#linear-gradient-21)"/>
      <path id="Trazado_112779" data-name="Trazado 112779" d="M1657.979,1968.311c.549-.773,1.1-.753,1.167-1.259a1.022,1.022,0,0,0-.6-1.008,1.386,1.386,0,0,0-1.239.339c-.892.691-.555,1.628-1.409,2.117a2.393,2.393,0,0,0-.723.516c-.117.129-.406.45-.316.647.1.228.664.172,1.2.121a2.332,2.332,0,0,0,1.248-.312C1657.707,1969.17,1657.556,1968.909,1657.979,1968.311Z" transform="translate(-1630.353 -1865.378)" fill="url(#linear-gradient-22)"/>
      <path id="Trazado_112780" data-name="Trazado 112780" d="M1670.167,1894.609a68.046,68.046,0,0,1-.678,12.32c-.539,3.646-.943,4.3-1.027,6.8-.181,5.448,1.612,6.114,2.312,12.215a37.353,37.353,0,0,1-1.272,14.313,38.859,38.859,0,0,1-1.487,4.35c-.587.579-1.547.43-2.558.288-.748-6.107-1.564-11.847-2.311-17.955q-2.637-13.723-5.275-27.445Z" transform="translate(-1631.141 -1846.81)" fill="url(#linear-gradient-23)"/>
      <path id="Trazado_112781" data-name="Trazado 112781" d="M1665.457,1944.9c-.748-6.107-1.564-11.847-2.311-17.955q-2.637-13.723-5.275-27.445l12.3-4.886c.011.317.014.625.021.937-5.554,5.46-6.452,9.569-6.225,12.32.277,3.336,2.206,4.879,2.149,9.744-.04,3.479-1.043,4.153-.849,7.278.25,4.023,2.117,6.179,3.1,8.452.951,2.2,1.438,5.362.149,9.987-.177.48-.346.91-.5,1.28C1667.429,1945.185,1666.468,1945.037,1665.457,1944.9Z" transform="translate(-1631.141 -1846.81)" opacity="0.3" fill="url(#linear-gradient-24)" style="mix-blend-mode: multiply;isolation: isolate"/>
      <path id="Trazado_112782" data-name="Trazado 112782" d="M1659.778,1899.547a71.889,71.889,0,0,0-4.98,12.159,17.283,17.283,0,0,0-.872,5.321,16.473,16.473,0,0,0,1.185,6,31.738,31.738,0,0,1,1.973,5.952,33.618,33.618,0,0,1-.843,17.323l-2.179.964a123.1,123.1,0,0,1-6.444-19.312,66.731,66.731,0,0,1-2.208-12.427,52.747,52.747,0,0,1,3.226-21.43Z" transform="translate(-1627.874 -1846.677)" fill="url(#linear-gradient-25)"/>
      <path id="Trazado_112783" data-name="Trazado 112783" d="M1655.555,1846.056c-4.678,1.105-8.225,2.173-9.679,4.749-1.535,2.72,1.285,4.522,2.375,10.215,1.668,8.716-3.181,12.311-1.179,21.067a22.912,22.912,0,0,0,2.612,6.52,24.1,24.1,0,0,0,7.505,3.651c4.9,1.38,7.2.258,13.676.227,10.588-.05,12.357,2.911,17.007.735,4.7-2.2,7.868-7.555,6.71-9.688-.693-1.277-2.573-.336-5.441-1.779-3.7-1.859-3.273-4.737-6.319-6.993-4.375-3.242-8.156.54-11.9-2.283-3.788-2.855-4.681-10.314-3.429-14.865.819-2.973.641-6.139,1.2-9.172a1.922,1.922,0,0,0-.112-1.09c-.7-1.68-3.857-1.815-6.245-1.894A27.15,27.15,0,0,0,1655.555,1846.056Z" transform="translate(-1627.904 -1834.02)" fill="url(#linear-gradient-26)"/>
      <path id="Trazado_112784" data-name="Trazado 112784" d="M1687.517,1898.859c-1.521-.883-.9-3.691-3.155-5.022-2.092-1.235-3.548.64-6.563-.084-3.868-.929-3.9-4.595-7.606-5.536-2.667-.677-3.353,1.042-7.121,1.347a15.027,15.027,0,0,1-12.169-4.742,13.47,13.47,0,0,1-2.8-5.026c-.806,3.315-1.7,6.529-.63,11.228a22.918,22.918,0,0,0,2.612,6.52,24.093,24.093,0,0,0,7.505,3.65c4.9,1.38,7.2.259,13.676.228,10.588-.05,12.357,2.911,17.007.735a13.711,13.711,0,0,0,6.4-6.418C1690.693,1899.031,1688.621,1899.5,1687.517,1898.859Z" transform="translate(-1628.309 -1842.957)" opacity="0.3" fill="url(#linear-gradient-27)" style="mix-blend-mode: multiply;isolation: isolate"/>
      <path id="Trazado_112785" data-name="Trazado 112785" d="M1654.271,1835.441a12.831,12.831,0,0,0-1.128,4.248c.025,1.721,1.953,1.476,1.953,1.476l-.006,1.088a2.35,2.35,0,0,1-1.4,2.14l-.747.329s5.054.759,7.659-1.334l-.79-.028a2.351,2.351,0,0,1-2.236-1.967l-.076-.461S1658.031,1835.528,1654.271,1835.441Z" transform="translate(-1629.858 -1831.419)" fill="url(#linear-gradient-28)"/>
      <g id="Grupo_83609" data-name="Grupo 83609" transform="translate(0 18.299)">
        <path id="Trazado_112786" data-name="Trazado 112786" d="M1640.5,1868.185l-7.306-13.229a.425.425,0,0,0-.459-.21L1622.079,1857a.425.425,0,0,0-.276.633l8.5,14.243a.423.423,0,0,0,.5.184l9.388-3.171Z" transform="translate(-1621.743 -1854.737)" fill="url(#linear-gradient-29)"/>
        <path id="Trazado_112787" data-name="Trazado 112787" d="M1639.274,1867.027l-5.915-10.711a.343.343,0,0,0-.371-.17l-8.626,1.828a.343.343,0,0,0-.223.511l6.882,11.533a.343.343,0,0,0,.4.15l7.6-2.567Z" transform="translate(-1622.353 -1855.101)" fill="#fff"/>
        <path id="Trazado_112788" data-name="Trazado 112788" d="M1632.238,1856.132l-.47-.859a.309.309,0,0,0-.333-.156l-4.437.9a.31.31,0,0,0-.209.456l.522.934a.311.311,0,0,0,.338.152l4.384-.977A.31.31,0,0,0,1632.238,1856.132Z" transform="translate(-1623.045 -1854.834)" fill="url(#linear-gradient-30)"/>
        <path id="Trazado_112789" data-name="Trazado 112789" d="M1626.179,1860.534l.021,0,7.812-1.673a.179.179,0,0,0,.137-.212.182.182,0,0,0-.212-.138l-7.812,1.673a.179.179,0,0,0,.055.353Z" transform="translate(-1622.846 -1855.717)" fill="url(#linear-gradient-31)"/>
        <path id="Trazado_112790" data-name="Trazado 112790" d="M1626.817,1861.54l.022,0,7.766-1.746a.179.179,0,0,0-.078-.349l-7.766,1.746a.179.179,0,0,0,.056.353Z" transform="translate(-1623.012 -1855.959)" fill="url(#linear-gradient-32)"/>
        <path id="Trazado_112791" data-name="Trazado 112791" d="M1632.3,1863.025l.027,0,4.225-1.071a.179.179,0,1,0-.088-.347l-4.225,1.071a.179.179,0,0,0,.061.351Z" transform="translate(-1624.438 -1856.521)" fill="url(#linear-gradient-33)"/>
        <path id="Trazado_112792" data-name="Trazado 112792" d="M1633.088,1864.464a.138.138,0,0,0,.027-.005l4.225-1.071a.179.179,0,1,0-.088-.347l-4.225,1.071a.179.179,0,0,0,.061.352Z" transform="translate(-1624.643 -1856.895)" fill="url(#linear-gradient-34)"/>
      </g>
      <path id="Trazado_112793" data-name="Trazado 112793" d="M1629.628,1871.687s-1.854-1.047-2.129-1.87a12.2,12.2,0,0,1-.355-2.412l1.209,2.145a1.2,1.2,0,0,0,.633-.936c.152-.752.568-.11.469.458A16.387,16.387,0,0,0,1629.628,1871.687Z" transform="translate(-1623.148 -1839.733)" fill="url(#linear-gradient-35)"/>
      <path id="Trazado_112794" data-name="Trazado 112794" d="M1642.388,1851.475a13.109,13.109,0,0,0-3.3,3.452c-3.133,4.842-1.359,9.574-4.123,11.53-.79.56-2.217,1.08-4.928.369l-.965.621s-.709,6.376,6.927,5.974,10.642-10.187,10.642-10.187Z" transform="translate(-1623.646 -1835.59)" fill="url(#linear-gradient-36)"/>
      <path id="Trazado_112795" data-name="Trazado 112795" d="M1655.263,1836.411c.256-.037.449-.377.632-.291s.2.568.06.912a1.2,1.2,0,0,1-.437.53,3.171,3.171,0,0,1,.637,1.23,4.387,4.387,0,0,1-.525,2.863c-1.073,2.707,1.107,6.748,3.346,8.717,1.82,1.6,2.578.865,3.688,2.2,2.16,2.59-.4,5.744.852,9.332,1.911,5.457,10.784,6.566,11.151,6.607.145.017.242.027.393.041,3.972.382,9.994.959,13.993-2.53a12.268,12.268,0,0,0,3.705-10.593,11.985,11.985,0,0,0-3.847-7.482c-.507-.449-3.515-3.1-7.344-2.9-2.028.107-2.393.847-3.97.5-2.16-.473-3.587-2.321-4.472-3.468-1.628-2.109-1.051-2.617-2.191-3.634-2.234-1.991-4.6-.172-6.96-1.905-2.328-1.708-1.148-4.295-3.384-5.76-2.307-1.511-6.489-.674-7.266,1.344C1652.655,1833.855,1654.477,1836.525,1655.263,1836.411Z" transform="translate(-1629.92 -1830.004)" fill="url(#linear-gradient-37)"/>
    </g>
    <g id="Grupo_83611" data-name="Grupo 83611" transform="translate(1514.641 1867.315)">
      <path id="Trazado_112796" data-name="Trazado 112796" d="M1556.707,1937.714a4.028,4.028,0,0,0,3.636-7.161c-.095-.048-.192-.088-.288-.127a23.245,23.245,0,0,0,.766-3.3c.1,0,.209,0,.316-.011a4.2,4.2,0,0,0,3.694-4.276,3.559,3.559,0,0,0-3.852-3.6c-.109.01-.216.027-.323.046a21.253,21.253,0,0,0-.892-3.152c.1-.056.191-.114.284-.179a4.2,4.2,0,0,0,1.273-5.506,3.559,3.559,0,0,0-5.183-.983c-.091.065-.178.133-.262.2a18.89,18.89,0,0,0-2.312-2.158c.059-.1.116-.194.169-.3,1-1.978,2.316-4.137.475-5.036-4.257-2.079-6.085-.3-7.089,1.678-.052.1-.1.206-.14.311a18.861,18.861,0,0,0-3.107-.594c.007-.109.012-.219.01-.331-.044-2.176.6-3.354-1.489-3.395-4.561-.089-6.1,1.891-6.056,4.067,0,.114.012.225.023.335a21.3,21.3,0,0,0-3.07,1.139c-.047-.1-.1-.193-.153-.287a3.558,3.558,0,0,0-5.182-.983,4.2,4.2,0,0,0-1.273,5.505c.056.092.116.178.178.263a23.15,23.15,0,0,0-2.211,2.566c-.089-.056-.178-.109-.273-.158a4.028,4.028,0,0,0-3.636,7.161c.095.048.192.088.288.127a23.241,23.241,0,0,0-.766,3.3c-.1,0-.209,0-.316.011a4.2,4.2,0,0,0-3.694,4.276,3.558,3.558,0,0,0,3.852,3.6c.109-.01.216-.027.323-.045a21.252,21.252,0,0,0,.891,3.151c-.1.056-.191.114-.284.179a4.2,4.2,0,0,0-1.273,5.505c1.08,1.792,4.654,2.624,6.436,1.375.092-.063-1.076-.525-.991-.6a18.844,18.844,0,0,0,2.312,2.158c-.059.1-.116.194-.169.3a3.72,3.72,0,1,0,6.614,3.358c.052-.1.1-.207.14-.31a18.826,18.826,0,0,0,3.106.593c-.006.11-.011.22-.009.331a3.558,3.558,0,0,0,3.852,3.6,4.2,4.2,0,0,0,3.693-4.276c0-.114-.012-.225-.023-.335a21.344,21.344,0,0,0,3.07-1.14c.047.1.1.193.153.287a3.558,3.558,0,0,0,5.182.983,4.2,4.2,0,0,0,1.273-5.506c-.055-.092-.116-.177-.177-.262a23.09,23.09,0,0,0,2.212-2.567C1556.523,1937.612,1556.613,1937.666,1556.707,1937.714Zm-22.766.289c-6.631-3.366-9.051-11.916-5.406-19.1s11.976-10.27,18.606-6.9,9.051,11.916,5.405,19.1S1540.572,1941.37,1533.941,1938Z" transform="translate(-1516.251 -1899.841)" fill="url(#linear-gradient-38)"/>
      <path id="Trazado_112797" data-name="Trazado 112797" d="M1567.972,1928.556a4.2,4.2,0,0,0,3.694-4.277,3.559,3.559,0,0,0-3.852-3.6c-.109.01-.216.027-.323.046a21.3,21.3,0,0,0-.892-3.152c.1-.055.191-.114.284-.179,1.782-1.249,3.988-4.267,2.73-5.938-2.387-3.172-4.857-1.8-6.639-.55-.091.064-.178.133-.262.2a18.88,18.88,0,0,0-2.312-2.158c.059-.1.116-.194.169-.3a4.153,4.153,0,0,0,.234-3.272q-2.584,4.546-5.089,9.134c5.289,3.876,6.974,11.515,3.668,18.027a14.6,14.6,0,0,1-13.81,8.229c-.243.629-.481,1.261-.741,1.885-.705,1.691-1.505,3.347-2.307,5,.5.1,1.011.17,1.518.223-.006.11-.011.22-.009.332.044,2.176,1.364,4.025,5.141,3.825,2.089-.111,2.448-2.322,2.4-4.5,0-.114-.012-.225-.023-.335a21.314,21.314,0,0,0,3.07-1.139c.048.1.1.193.153.287,1.08,1.792,4.825,2.553,6.607,1.3s.928-4.035-.152-5.827c-.056-.092-.116-.177-.178-.262a23.133,23.133,0,0,0,2.212-2.566c.089.055.178.109.273.157a4.028,4.028,0,0,0,3.636-7.161c-.094-.048-.191-.088-.288-.126a23.253,23.253,0,0,0,.767-3.3C1567.76,1928.567,1567.865,1928.565,1567.972,1928.556Z" transform="translate(-1523.085 -1901.282)" fill="url(#linear-gradient-39)"/>
      <path id="Trazado_112798" data-name="Trazado 112798" d="M1559.362,1937.939a4.028,4.028,0,0,0,3.636-7.161c-.095-.048-.192-.088-.289-.127a23.139,23.139,0,0,0,.767-3.3c.1,0,.209,0,.316-.011a4.2,4.2,0,0,0,3.694-4.276,3.558,3.558,0,0,0-3.851-3.6c-.11.01-.216.027-.323.046a21.183,21.183,0,0,0-.892-3.152c.1-.056.192-.114.285-.179a4.2,4.2,0,0,0,1.273-5.506,3.558,3.558,0,0,0-5.182-.983c-.092.065-.178.133-.263.2a18.813,18.813,0,0,0-2.311-2.158c.059-.1.116-.194.168-.3a3.72,3.72,0,1,0-6.613-3.357c-.052.1-.1.206-.14.311a18.835,18.835,0,0,0-3.107-.593c.007-.11.012-.22.01-.332a3.558,3.558,0,0,0-3.852-3.6,4.2,4.2,0,0,0-3.693,4.276c0,.114.012.225.023.335a21.349,21.349,0,0,0-3.071,1.139c-.047-.1-.1-.193-.153-.287a3.558,3.558,0,0,0-5.183-.983,4.2,4.2,0,0,0-1.273,5.505c.056.092.116.178.178.262a23.265,23.265,0,0,0-2.212,2.567c-.088-.056-.178-.11-.272-.158a4.028,4.028,0,0,0-3.636,7.161c.095.048.191.088.288.126a23.243,23.243,0,0,0-.766,3.3c-.1,0-.209,0-.317.011a4.2,4.2,0,0,0-3.694,4.277,3.558,3.558,0,0,0,3.852,3.6c.109-.01.216-.027.322-.046a21.329,21.329,0,0,0,.892,3.152c-.1.056-.191.114-.284.179a4.2,4.2,0,0,0-1.273,5.505,3.558,3.558,0,0,0,5.183.983c.091-.064.177-.133.262-.2a18.809,18.809,0,0,0,2.312,2.158c-.059.1-.117.194-.169.3a3.72,3.72,0,1,0,6.614,3.358c.052-.1.1-.207.14-.311a18.827,18.827,0,0,0,3.106.594c-.007.109-.011.22-.009.331a3.558,3.558,0,0,0,3.851,3.6,4.2,4.2,0,0,0,3.694-4.276c0-.114-.012-.225-.024-.335a21.322,21.322,0,0,0,3.071-1.14c.047.1.1.193.153.287a3.558,3.558,0,0,0,5.182.982,4.2,4.2,0,0,0,1.273-5.505c-.056-.092-.116-.177-.177-.262a23.14,23.14,0,0,0,2.211-2.567C1559.178,1937.837,1559.268,1937.891,1559.362,1937.939Zm-22.766.289c-6.631-3.366-9.051-11.916-5.406-19.1s11.976-10.27,18.606-6.9,9.05,11.916,5.405,19.1S1543.227,1941.594,1536.6,1938.227Z" transform="translate(-1516.941 -1899.842)" fill="url(#linear-gradient-40)"/>
    </g>
  </g>
</svg>
