<svg id="Grupo_83717" data-name="Grupo 83717" xmlns="http://www.w3.org/2000/svg" width="121" height="121" viewBox="0 0 121 121">
  <circle id="Elipse_4392" data-name="Elipse 4392" cx="60.5" cy="60.5" r="60.5" fill="#34c7d9"/>
  <path id="Trazado_107120" data-name="Trazado 107120" d="M53.993,0A53.993,53.993,0,1,1,0,53.993,53.993,53.993,0,0,1,53.993,0Z" transform="translate(7 7)" fill="#fff"/>
  <g id="Grupo_83846" data-name="Grupo 83846" transform="translate(-1266.49 -2118.282)">
    <g id="Grupo_83858" data-name="Grupo 83858" transform="translate(1302.323 2145.506)">
      <g id="Grupo_83846-2" data-name="Grupo 83846">
        <path id="Trazado_113416" data-name="Trazado 113416" d="M1342.659,2212.429h-39.786a.55.55,0,0,1-.551-.55v-65.824a.55.55,0,0,1,.551-.549h39.786a.55.55,0,0,1,.55.549v22.613a.55.55,0,0,1-.55.55h-12a1.053,1.053,0,0,0-1.056,1.048v17.4a1.072,1.072,0,0,0,1.056,1.06h12a.55.55,0,0,1,.55.549v22.6A.55.55,0,0,1,1342.659,2212.429Zm-39.236-1.1h38.687v-21.5h-11.451a2.161,2.161,0,0,1-2.156-2.159v-17.4a2.155,2.155,0,0,1,2.156-2.147h11.451V2146.6h-38.687Z" transform="translate(-1302.323 -2145.506)" fill="#656565"/>
      </g>
      <g id="Grupo_83847" data-name="Grupo 83847" transform="translate(0 9.582)">
        <path id="Trazado_113417" data-name="Trazado 113417" d="M1342.659,2157.936h-39.786a.549.549,0,1,1,0-1.1h39.786a.549.549,0,1,1,0,1.1Z" transform="translate(-1302.323 -2156.838)" fill="#656565"/>
      </g>
      <g id="Grupo_83848" data-name="Grupo 83848" transform="translate(0 56.242)">
        <path id="Trazado_113418" data-name="Trazado 113418" d="M1342.659,2213.12h-39.786a.55.55,0,1,1,0-1.1h39.786a.55.55,0,1,1,0,1.1Z" transform="translate(-1302.323 -2212.021)" fill="#656565"/>
      </g>
      <g id="Grupo_83849" data-name="Grupo 83849" transform="translate(17.186 58.33)">
        <path id="Trazado_113419" data-name="Trazado 113419" d="M1325.906,2221.006a3.257,3.257,0,1,1,3.259-3.257A3.261,3.261,0,0,1,1325.906,2221.006Zm0-5.416a2.158,2.158,0,1,0,2.16,2.159A2.161,2.161,0,0,0,1325.906,2215.59Z" transform="translate(-1322.648 -2214.491)" fill="#656565"/>
      </g>
      <g id="Grupo_83850" data-name="Grupo 83850" transform="translate(16.566 4.795)">
        <path id="Trazado_113420" data-name="Trazado 113420" d="M1329.126,2152.276h-6.661a.55.55,0,0,1,0-1.1h6.661a.55.55,0,1,1,0,1.1Z" transform="translate(-1321.915 -2151.177)" fill="#656565"/>
      </g>
      <g id="Grupo_83851" data-name="Grupo 83851" transform="translate(26.179 22.613)">
        <path id="Trazado_113421" data-name="Trazado 113421" d="M1363.429,2193.959H1335.44a2.161,2.161,0,0,1-2.156-2.16v-17.4a2.154,2.154,0,0,1,2.156-2.147h27.989a2.156,2.156,0,0,1,2.16,2.147v17.4A2.162,2.162,0,0,1,1363.429,2193.959Zm-27.989-20.611a1.053,1.053,0,0,0-1.056,1.048v17.4a1.072,1.072,0,0,0,1.056,1.06h27.989a1.061,1.061,0,0,0,1.06-1.06v-17.4a1.055,1.055,0,0,0-1.06-1.048Z" transform="translate(-1333.284 -2172.249)" fill="#656565"/>
      </g>
      <g id="Grupo_83852" data-name="Grupo 83852" transform="translate(26.179 29.041)">
        <path id="Trazado_113422" data-name="Trazado 113422" d="M1365.04,2180.95h-31.206a.55.55,0,0,1,0-1.1h31.206a.55.55,0,0,1,0,1.1Z" transform="translate(-1333.284 -2179.851)" fill="#656565"/>
      </g>
      <g id="Grupo_83853" data-name="Grupo 83853" transform="translate(26.179 33.673)">
        <path id="Trazado_113423" data-name="Trazado 113423" d="M1365.04,2186.429h-31.206a.55.55,0,0,1,0-1.1h31.206a.55.55,0,0,1,0,1.1Z" transform="translate(-1333.284 -2185.33)" fill="#656565"/>
      </g>
      <g id="Grupo_83854" data-name="Grupo 83854" transform="translate(47.215 36.676)">
        <path id="Trazado_113424" data-name="Trazado 113424" d="M1362.317,2193.526a2.262,2.262,0,0,1-.917-.193,2.288,2.288,0,0,1-.915.193,2.322,2.322,0,1,1,0-4.645,2.284,2.284,0,0,0,1.832,0,2.322,2.322,0,1,1,0,4.645Zm-.918-1.361a.551.551,0,0,1,.283.079,1.223,1.223,0,1,0,0-2.082.553.553,0,0,1-.57,0,1.2,1.2,0,0,0-.627-.181,1.223,1.223,0,1,0,0,2.447,1.207,1.207,0,0,0,.627-.18A.549.549,0,0,1,1361.4,2192.165Z" transform="translate(-1358.162 -2188.881)" fill="#656565"/>
      </g>
      <g id="Grupo_83855" data-name="Grupo 83855" transform="translate(30.967 38.447)">
        <path id="Trazado_113425" data-name="Trazado 113425" d="M1341.53,2192.075H1339.5a.55.55,0,1,1,0-1.1h2.033a.55.55,0,0,1,0,1.1Z" transform="translate(-1338.946 -2190.976)" fill="#656565"/>
      </g>
      <g id="Grupo_83856" data-name="Grupo 83856" transform="translate(35.665 38.447)">
        <path id="Trazado_113426" data-name="Trazado 113426" d="M1347.081,2192.075h-2.029a.55.55,0,0,1,0-1.1h2.029a.55.55,0,0,1,0,1.1Z" transform="translate(-1344.502 -2190.976)" fill="#656565"/>
      </g>
      <g id="Grupo_83857" data-name="Grupo 83857" transform="translate(40.358 38.447)">
        <path id="Trazado_113427" data-name="Trazado 113427" d="M1352.631,2192.075H1350.6a.55.55,0,0,1,0-1.1h2.029a.55.55,0,1,1,0,1.1Z" transform="translate(-1350.053 -2190.976)" fill="#656565"/>
      </g>
    </g>
  </g>
</svg>
