<svg xmlns="http://www.w3.org/2000/svg" width="217.045" height="203.225" viewBox="0 0 217.045 203.225">
  <g id="Grupo_86565" data-name="Grupo 86565" transform="translate(-55.849 -40.476)">
    <g id="Grupo_86502" data-name="Grupo 86502" transform="translate(70.888 53.865)">
      <path id="Trazado_140030" data-name="Trazado 140030" d="M268.286,182.346a93.632,93.632,0,1,0-183.349,0Z" transform="translate(-82.979 -66.84)" fill="none" stroke="aqua" stroke-linecap="round" stroke-miterlimit="10" stroke-width="4" stroke-dasharray="0 9"/>
      <g id="Grupo_86501" data-name="Grupo 86501" transform="translate(6.79 0)">
        <line id="Línea_10553" data-name="Línea 10553" x2="83.833" y2="30.313" transform="translate(0 75.832)" fill="none" stroke="#70f1ff" stroke-linecap="round" stroke-miterlimit="10" stroke-width="4" stroke-dasharray="0 9"/>
        <line id="Línea_10554" data-name="Línea 10554" x2="62.97" y2="75.375" transform="translate(25.966 25.954)" fill="none" stroke="#70f1ff" stroke-linecap="round" stroke-miterlimit="10" stroke-width="4" stroke-dasharray="0 9"/>
        <line id="Línea_10555" data-name="Línea 10555" y2="97.086" transform="translate(86.819)" fill="none" stroke="#70f1ff" stroke-linecap="round" stroke-miterlimit="10" stroke-width="4" stroke-dasharray="0 9"/>
        <line id="Línea_10556" data-name="Línea 10556" x1="57.38" y2="67.892" transform="translate(91.172 25.807)" fill="none" stroke="#70f1ff" stroke-linecap="round" stroke-miterlimit="10" stroke-width="4" stroke-dasharray="0 9"/>
        <line id="Línea_10557" data-name="Línea 10557" x1="62.452" y2="18.532" transform="translate(115.829 76.992)" fill="none" stroke="#70f1ff" stroke-linecap="round" stroke-miterlimit="10" stroke-width="4" stroke-dasharray="0 9"/>
      </g>
    </g>
    <g id="Grupo_86506" data-name="Grupo 86506" transform="translate(76.835 144.452)">
      <g id="Grupo_86505" data-name="Grupo 86505">
        <path id="Trazado_140031" data-name="Trazado 140031" d="M263.457,317.385c0,5.057-3.775,9.156-8.431,9.156H124.652c-4.656,0-8.431-4.1-8.431-9.156V237.2c0-5.056,3.775-9.156,8.431-9.156H255.026c4.656,0,8.431,4.1,8.431,9.156Z" transform="translate(-103.741 -228.047)" fill="#11162a"/>
        <rect id="Rectángulo_16094" data-name="Rectángulo 16094" width="131.91" height="77.387" transform="translate(20.017 8.292)" fill="#00bbbf"/>
        <g id="Grupo_86503" data-name="Grupo 86503" transform="translate(0 89.952)">
          <path id="Trazado_140032" data-name="Trazado 140032" d="M95.622,390.318a1.914,1.914,0,0,0-1.914,1.914h0c0,4.078,4.465,7.383,9.972,7.383H257.858c5.508,0,9.972-3.3,9.972-7.383h0a1.913,1.913,0,0,0-1.914-1.914Z" transform="translate(-93.708 -390.318)" fill="#002133"/>
          <path id="Trazado_140033" data-name="Trazado 140033" d="M95.175,390.318a1.467,1.467,0,0,0-1.467,1.467v.447a5.937,5.937,0,0,0,1.28,3.613H266.55a5.94,5.94,0,0,0,1.28-3.613v-.447a1.467,1.467,0,0,0-1.467-1.467Z" transform="translate(-93.708 -390.318)" fill="#fffeff"/>
          <path id="Trazado_140034" data-name="Trazado 140034" d="M252.52,396.154H227.394a.879.879,0,0,1-.879-.879h0a.879.879,0,0,1,.879-.879H252.52a.88.88,0,0,1,.88.879h0A.88.88,0,0,1,252.52,396.154Z" transform="translate(-152.896 -392.135)" fill="#617478"/>
        </g>
        <g id="Grupo_86504" data-name="Grupo 86504" transform="translate(20.017 8.292)">
          <path id="Trazado_140035" data-name="Trazado 140035" d="M185.413,243l-55.6,55.6v21.792h10.237L217.442,243Z" transform="translate(-129.818 -243.005)" fill="#00cacf"/>
          <path id="Trazado_140036" data-name="Trazado 140036" d="M148.72,243l-18.9,18.9v14.3L163.024,243Z" transform="translate(-129.818 -243.005)" fill="#00cacf"/>
          <path id="Trazado_140037" data-name="Trazado 140037" d="M278.963,243l-77.387,77.387h12.749L291.712,243Z" transform="translate(-161.798 -243.005)" fill="#00cacf"/>
          <path id="Trazado_140038" data-name="Trazado 140038" d="M323.958,284.28l-54.507,54.507h18.035l36.472-36.472Z" transform="translate(-192.048 -261.4)" fill="#00cacf"/>
        </g>
      </g>
    </g>
    <g id="Grupo_86524" data-name="Grupo 86524" transform="translate(206.191 164.859)">
      <path id="Trazado_140039" data-name="Trazado 140039" d="M388.044,274.395v-2.078a1.885,1.885,0,0,0-1.885-1.885H328.948a1.885,1.885,0,0,0-1.885,1.885v2.078h0v7.191h0v6.551h0v32.628a2.226,2.226,0,0,0,2.226,2.226h56.521a2.226,2.226,0,0,0,2.226-2.226V288.137h0v-6.551h0v-7.191Z" transform="translate(-327.063 -267.343)" opacity="0.15"/>
      <g id="Grupo_86523" data-name="Grupo 86523" transform="translate(2.593)">
        <path id="Trazado_140040" data-name="Trazado 140040" d="M390.5,317.418H333.975a2.226,2.226,0,0,1-2.226-2.226V267.052a2.192,2.192,0,0,1,2.192-2.192H390.53a2.192,2.192,0,0,1,2.192,2.192v48.141A2.226,2.226,0,0,1,390.5,317.418Z" transform="translate(-331.745 -264.86)" fill="#3df4ff"/>
        <rect id="Rectángulo_16095" data-name="Rectángulo 16095" width="60.973" height="6.55" transform="translate(0.004 11.154)" fill="#d60063"/>
        <g id="Grupo_86508" data-name="Grupo 86508">
          <path id="Trazado_140041" data-name="Trazado 140041" d="M392.722,268.823H331.741v-2.079a1.884,1.884,0,0,1,1.885-1.884h57.212a1.884,1.884,0,0,1,1.885,1.884Z" transform="translate(-331.741 -264.86)" fill="#8592a3"/>
          <g id="Grupo_86507" data-name="Grupo 86507" transform="translate(3.453 0.912)">
            <path id="Trazado_140042" data-name="Trazado 140042" d="M340.109,267.574a1.069,1.069,0,1,0-1.069,1.069A1.07,1.07,0,0,0,340.109,267.574Z" transform="translate(-337.97 -266.505)" fill="#fd0"/>
            <path id="Trazado_140043" data-name="Trazado 140043" d="M346.831,267.574a1.069,1.069,0,1,0-1.069,1.069A1.07,1.07,0,0,0,346.831,267.574Z" transform="translate(-340.966 -266.505)" fill="#fd0"/>
            <path id="Trazado_140044" data-name="Trazado 140044" d="M353.553,267.574a1.069,1.069,0,1,0-1.069,1.069A1.069,1.069,0,0,0,353.553,267.574Z" transform="translate(-343.962 -266.505)" fill="#fd0"/>
          </g>
        </g>
        <g id="Grupo_86509" data-name="Grupo 86509" transform="translate(11.8 12.653)">
          <rect id="Rectángulo_16096" data-name="Rectángulo 16096" width="35.374" height="3.473" fill="#fff"/>
          <rect id="Rectángulo_16097" data-name="Rectángulo 16097" width="4.638" height="3.472" transform="translate(30.735 0.001)" fill="#a1a1a1"/>
          <circle id="Elipse_4455" data-name="Elipse 4455" cx="0.871" cy="0.871" r="0.871" transform="translate(32.183 0.866)" fill="#fff"/>
        </g>
        <g id="Grupo_86510" data-name="Grupo 86510" transform="translate(3.038 6.296)">
          <path id="Trazado_140045" data-name="Trazado 140045" d="M339.748,277.48a1.263,1.263,0,1,0-1.263,1.263A1.263,1.263,0,0,0,339.748,277.48Z" transform="translate(-337.222 -276.217)" fill="#fff"/>
          <path id="Trazado_140046" data-name="Trazado 140046" d="M372.383,278.743H347.2a1.263,1.263,0,0,1-1.263-1.263h0a1.263,1.263,0,0,1,1.263-1.263h25.183a1.263,1.263,0,0,1,1.263,1.263h0A1.263,1.263,0,0,1,372.383,278.743Z" transform="translate(-341.106 -276.217)" fill="#fff"/>
        </g>
        <g id="Grupo_86522" data-name="Grupo 86522" transform="translate(1.89 20.545)">
          <g id="Grupo_86512" data-name="Grupo 86512" transform="translate(11.834 0.103)">
            <rect id="Rectángulo_16098" data-name="Rectángulo 16098" width="31.785" height="11.602" rx="1.842" fill="#fff"/>
            <g id="Grupo_86511" data-name="Grupo 86511" transform="translate(2.707 1.348)">
              <rect id="Rectángulo_16099" data-name="Rectángulo 16099" width="26.371" height="5.947" rx="1.725" transform="translate(0 2.958)" fill="#8baab7"/>
              <path id="Trazado_140047" data-name="Trazado 140047" d="M387.116,305.815h-25.1a.638.638,0,0,1-.638-.637h0a.637.637,0,0,1,.638-.637h25.1a.637.637,0,0,1,.637.637h0A.638.638,0,0,1,387.116,305.815Z" transform="translate(-361.382 -304.541)" fill="#8baab7"/>
            </g>
          </g>
          <g id="Grupo_86514" data-name="Grupo 86514" transform="translate(11.834 14.649)">
            <rect id="Rectángulo_16100" data-name="Rectángulo 16100" width="31.785" height="11.602" rx="1.842" fill="#fff"/>
            <g id="Grupo_86513" data-name="Grupo 86513" transform="translate(2.707 1.348)">
              <rect id="Rectángulo_16101" data-name="Rectángulo 16101" width="26.371" height="5.947" rx="1.725" transform="translate(0 2.958)" fill="#8baab7"/>
              <path id="Trazado_140048" data-name="Trazado 140048" d="M387.116,332.055h-25.1a.637.637,0,0,1-.638-.637h0a.637.637,0,0,1,.638-.637h25.1a.637.637,0,0,1,.637.637h0A.637.637,0,0,1,387.116,332.055Z" transform="translate(-361.382 -330.781)" fill="#8baab7"/>
            </g>
          </g>
          <g id="Grupo_86517" data-name="Grupo 86517" transform="translate(45.72)">
            <rect id="Rectángulo_16102" data-name="Rectángulo 16102" width="11.481" height="11.602" rx="2.064" fill="#fff"/>
            <g id="Grupo_86516" data-name="Grupo 86516" transform="translate(1.01 0.987)">
              <g id="Grupo_86515" data-name="Grupo 86515" transform="translate(1.101 0.51)">
                <path id="Trazado_140049" data-name="Trazado 140049" d="M431.014,305.806h-4.927a.591.591,0,0,1-.591-.591h0a.592.592,0,0,1,.591-.591h4.927a.592.592,0,0,1,.591.591h0A.591.591,0,0,1,431.014,305.806Z" transform="translate(-423.246 -304.623)" fill="#8baab7"/>
                <rect id="Rectángulo_16103" data-name="Rectángulo 16103" width="8.36" height="2.884" rx="1.418" transform="translate(0 2.795)" fill="#8baab7"/>
              </g>
              <circle id="Elipse_4456" data-name="Elipse 4456" cx="1.101" cy="1.101" r="1.101" fill="#004668"/>
            </g>
          </g>
          <g id="Grupo_86520" data-name="Grupo 86520" transform="translate(45.72 14.649)">
            <rect id="Rectángulo_16104" data-name="Rectángulo 16104" width="11.481" height="11.602" rx="2.064" fill="#fff"/>
            <g id="Grupo_86519" data-name="Grupo 86519" transform="translate(1.01 0.987)">
              <g id="Grupo_86518" data-name="Grupo 86518" transform="translate(1.101 0.51)">
                <path id="Trazado_140050" data-name="Trazado 140050" d="M431.014,332.232h-4.927a.592.592,0,0,1-.591-.591h0a.592.592,0,0,1,.591-.592h4.927a.592.592,0,0,1,.591.592h0A.592.592,0,0,1,431.014,332.232Z" transform="translate(-423.246 -331.049)" fill="#8baab7"/>
                <rect id="Rectángulo_16105" data-name="Rectángulo 16105" width="8.36" height="2.884" rx="1.418" transform="translate(0 2.795)" fill="#8baab7"/>
              </g>
              <circle id="Elipse_4457" data-name="Elipse 4457" cx="1.101" cy="1.101" r="1.101" fill="#004668"/>
            </g>
          </g>
          <g id="Grupo_86521" data-name="Grupo 86521" transform="translate(0 2.356)">
            <path id="Trazado_140051" data-name="Trazado 140051" d="M337.677,307.435a1.263,1.263,0,1,0-1.263,1.263A1.263,1.263,0,0,0,337.677,307.435Z" transform="translate(-335.151 -306.172)" fill="#00abdb"/>
            <path id="Trazado_140052" data-name="Trazado 140052" d="M337.677,319.591a1.263,1.263,0,1,0-1.263,1.263A1.263,1.263,0,0,0,337.677,319.591Z" transform="translate(-335.151 -311.59)" fill="#00abdb"/>
            <path id="Trazado_140053" data-name="Trazado 140053" d="M337.677,331.748a1.263,1.263,0,1,0-1.263,1.263A1.263,1.263,0,0,0,337.677,331.748Z" transform="translate(-335.151 -317.008)" fill="#00abdb"/>
            <path id="Trazado_140054" data-name="Trazado 140054" d="M337.677,343.9a1.263,1.263,0,1,0-1.263,1.263A1.263,1.263,0,0,0,337.677,343.9Z" transform="translate(-335.151 -322.425)" fill="#00abdb"/>
            <path id="Trazado_140055" data-name="Trazado 140055" d="M346.941,308.524h-4.552a.842.842,0,0,1-.842-.842h0a.842.842,0,0,1,.842-.842h4.552a.842.842,0,0,1,.842.842h0A.842.842,0,0,1,346.941,308.524Z" transform="translate(-338.001 -306.47)" fill="#fff"/>
            <path id="Trazado_140056" data-name="Trazado 140056" d="M346.941,320.772h-4.552a.842.842,0,0,1-.842-.843h0a.842.842,0,0,1,.842-.842h4.552a.842.842,0,0,1,.842.842h0A.842.842,0,0,1,346.941,320.772Z" transform="translate(-338.001 -311.928)" fill="#fff"/>
            <path id="Trazado_140057" data-name="Trazado 140057" d="M346.941,333.019h-4.552a.842.842,0,0,1-.842-.842h0a.842.842,0,0,1,.842-.842h4.552a.842.842,0,0,1,.842.842h0A.842.842,0,0,1,346.941,333.019Z" transform="translate(-338.001 -317.386)" fill="#fff"/>
            <path id="Trazado_140058" data-name="Trazado 140058" d="M346.941,345.267h-4.552a.842.842,0,0,1-.842-.842h0a.842.842,0,0,1,.842-.842h4.552a.842.842,0,0,1,.842.842h0A.842.842,0,0,1,346.941,345.267Z" transform="translate(-338.001 -322.845)" fill="#fff"/>
          </g>
        </g>
      </g>
    </g>
    <g id="Grupo_86533" data-name="Grupo 86533" transform="translate(55.849 162.784)">
      <path id="Trazado_140059" data-name="Trazado 140059" d="M110.839,266.69H57.486a1.638,1.638,0,0,0-1.637,1.638v55.5a2.051,2.051,0,0,0,2.051,2.052h52.526a2.051,2.051,0,0,0,2.051-2.052v-55.5A1.638,1.638,0,0,0,110.839,266.69Z" transform="translate(-55.849 -263.601)" opacity="0.15"/>
      <g id="Grupo_86532" data-name="Grupo 86532" transform="translate(2.593)">
        <rect id="Rectángulo_16106" data-name="Rectángulo 16106" width="56.628" height="59.191" rx="3.7" fill="#ea7a00"/>
        <g id="Grupo_86526" data-name="Grupo 86526" transform="translate(0 0)">
          <path id="Trazado_140060" data-name="Trazado 140060" d="M117.155,265.47H60.527v-2.715a1.638,1.638,0,0,1,1.637-1.637h53.352a1.638,1.638,0,0,1,1.638,1.637Z" transform="translate(-60.527 -261.118)" fill="#00cacf"/>
          <g id="Grupo_86525" data-name="Grupo 86525" transform="translate(2.187 1.204)">
            <path id="Trazado_140061" data-name="Trazado 140061" d="M66.418,264.262a.972.972,0,1,0-.972.972A.972.972,0,0,0,66.418,264.262Z" transform="translate(-64.473 -263.29)" fill="#fff69d"/>
            <path id="Trazado_140062" data-name="Trazado 140062" d="M72.531,264.262a.972.972,0,1,0-.972.972A.972.972,0,0,0,72.531,264.262Z" transform="translate(-67.197 -263.29)" fill="#fff69d"/>
            <path id="Trazado_140063" data-name="Trazado 140063" d="M78.644,264.262a.972.972,0,1,0-.972.972A.972.972,0,0,0,78.644,264.262Z" transform="translate(-69.922 -263.29)" fill="#fff69d"/>
          </g>
        </g>
        <g id="Grupo_86527" data-name="Grupo 86527" transform="translate(4.509 8.253)">
          <path id="Trazado_140064" data-name="Trazado 140064" d="M79.448,278.058H69.686a1.026,1.026,0,0,1-1.026-1.026h0a1.026,1.026,0,0,1,1.026-1.026h9.762a1.026,1.026,0,0,1,1.026,1.026h0A1.026,1.026,0,0,1,79.448,278.058Z" transform="translate(-68.66 -276.006)" fill="#d0d958"/>
          <path id="Trazado_140065" data-name="Trazado 140065" d="M127.085,278.058H96.254a1.026,1.026,0,0,1-1.026-1.026h0a1.026,1.026,0,0,1,1.026-1.026h30.832a1.026,1.026,0,0,1,1.026,1.026h0A1.026,1.026,0,0,1,127.085,278.058Z" transform="translate(-80.501 -276.006)" fill="#fff"/>
        </g>
        <g id="Grupo_86530" data-name="Grupo 86530" transform="translate(4.578 14.659)">
          <g id="Grupo_86528" data-name="Grupo 86528">
            <path id="Trazado_140066" data-name="Trazado 140066" d="M72.1,289.221a1.658,1.658,0,1,0-1.658,1.659A1.658,1.658,0,0,0,72.1,289.221Z" transform="translate(-68.785 -287.562)" fill="#e8861e"/>
            <path id="Trazado_140067" data-name="Trazado 140067" d="M72.1,298.664a1.658,1.658,0,1,0-1.658,1.659A1.658,1.658,0,0,0,72.1,298.664Z" transform="translate(-68.785 -291.77)" fill="#e8861e"/>
            <path id="Trazado_140068" data-name="Trazado 140068" d="M72.1,308.107a1.658,1.658,0,1,0-1.658,1.659A1.658,1.658,0,0,0,72.1,308.107Z" transform="translate(-68.785 -295.979)" fill="#e8861e"/>
          </g>
          <g id="Grupo_86529" data-name="Grupo 86529" transform="translate(5.069 0.855)">
            <path id="Trazado_140069" data-name="Trazado 140069" d="M98.721,290.711H78.732a.8.8,0,0,1-.8-.8h0a.8.8,0,0,1,.8-.8H98.721a.8.8,0,0,1,.8.8h0A.8.8,0,0,1,98.721,290.711Z" transform="translate(-77.929 -289.105)" fill="#fff"/>
            <path id="Trazado_140070" data-name="Trazado 140070" d="M98.721,300.154H78.732a.8.8,0,0,1-.8-.8h0a.8.8,0,0,1,.8-.8H98.721a.8.8,0,0,1,.8.8h0A.8.8,0,0,1,98.721,300.154Z" transform="translate(-77.929 -293.313)" fill="#fff"/>
            <path id="Trazado_140071" data-name="Trazado 140071" d="M98.721,309.6H78.732a.8.8,0,0,1-.8-.8h0a.8.8,0,0,1,.8-.8H98.721a.8.8,0,0,1,.8.8h0A.8.8,0,0,1,98.721,309.6Z" transform="translate(-77.929 -297.522)" fill="#fff"/>
          </g>
          <rect id="Rectángulo_16107" data-name="Rectángulo 16107" width="17.414" height="12.075" rx="2.828" transform="translate(30.059 0.855)" fill="#58ae67"/>
        </g>
        <g id="Grupo_86531" data-name="Grupo 86531" transform="translate(6.91 41.816)">
          <path id="Trazado_140072" data-name="Trazado 140072" d="M115.023,338.108H73.769a.778.778,0,0,1-.777-.778h0a.777.777,0,0,1,.777-.777h41.254a.777.777,0,0,1,.777.777h0A.778.778,0,0,1,115.023,338.108Z" transform="translate(-72.992 -336.553)" fill="#00a1a5"/>
          <path id="Trazado_140073" data-name="Trazado 140073" d="M115.023,343.741H73.769a.777.777,0,0,1-.777-.777h0a.778.778,0,0,1,.777-.778h41.254a.777.777,0,0,1,.777.778h0A.777.777,0,0,1,115.023,343.741Z" transform="translate(-72.992 -339.063)" fill="#00a1a5"/>
          <path id="Trazado_140074" data-name="Trazado 140074" d="M115.023,349.375H73.769a.778.778,0,0,1-.777-.778h0a.777.777,0,0,1,.777-.777h41.254a.777.777,0,0,1,.777.777h0A.778.778,0,0,1,115.023,349.375Z" transform="translate(-72.992 -341.574)" fill="#00a1a5"/>
          <rect id="Rectángulo_16108" data-name="Rectángulo 16108" width="42.808" height="1.555" rx="0.777" transform="translate(0 9.369)" fill="#00a1a5"/>
        </g>
        <path id="Trazado_140075" data-name="Trazado 140075" d="M112.612,327.15H83.764a2.264,2.264,0,0,1-2.264-2.264h0a2.264,2.264,0,0,1,2.264-2.264h28.848a2.264,2.264,0,0,1,2.264,2.264h0A2.264,2.264,0,0,1,112.612,327.15Z" transform="translate(-69.874 -288.528)" fill="#d0d958"/>
      </g>
    </g>
    <g id="Grupo_86550" data-name="Grupo 86550" transform="translate(119.274 111.641)">
      <path id="Trazado_140076" data-name="Trazado 140076" d="M249.344,174.429H173.486a3.218,3.218,0,0,0-3.219,3.219v93.126a2.465,2.465,0,0,0,2.465,2.465H250.1a2.465,2.465,0,0,0,2.465-2.465V177.648A3.219,3.219,0,0,0,249.344,174.429Z" transform="translate(-170.267 -171.34)" opacity="0.15"/>
      <g id="Grupo_86549" data-name="Grupo 86549" transform="translate(2.593)">
        <path id="Trazado_140077" data-name="Trazado 140077" d="M254.776,267.667H177.41a2.466,2.466,0,0,1-2.465-2.466V173.18a4.324,4.324,0,0,1,4.324-4.324h73.647a4.324,4.324,0,0,1,4.324,4.324V265.2A2.466,2.466,0,0,1,254.776,267.667Z" transform="translate(-174.945 -168.856)" fill="#ea7a00"/>
        <path id="Trazado_140078" data-name="Trazado 140078" d="M254.585,264.765h-71.6a2,2,0,0,1-2-2V168.856h75.6v93.909A2,2,0,0,1,254.585,264.765Z" transform="translate(-177.639 -168.856)" fill="#fff"/>
        <path id="Trazado_140079" data-name="Trazado 140079" d="M257.241,177.179h-82.3v-5.1a3.219,3.219,0,0,1,3.219-3.219h75.858a3.219,3.219,0,0,1,3.219,3.219Z" transform="translate(-174.945 -168.856)" fill="#525251"/>
        <rect id="Rectángulo_16109" data-name="Rectángulo 16109" width="75.677" height="35.807" transform="translate(3.309 34.057)" fill="#ffc61a"/>
        <g id="Grupo_86534" data-name="Grupo 86534" transform="translate(7.123 48.708)">
          <path id="Trazado_140080" data-name="Trazado 140080" d="M187.888,260.538a.378.378,0,0,1,0-.5l1.612-1.849,1.166-1.338a.378.378,0,0,1,.663.248v6.378a.378.378,0,0,1-.663.248L189.5,262.39Z" transform="translate(-187.795 -256.724)" fill="#fff"/>
          <path id="Trazado_140081" data-name="Trazado 140081" d="M307.622,260.042a.378.378,0,0,1,0,.5l-1.612,1.851-1.166,1.338a.378.378,0,0,1-.663-.248V257.1a.378.378,0,0,1,.663-.248l1.166,1.338Z" transform="translate(-239.665 -256.724)" fill="#fff"/>
        </g>
        <g id="Grupo_86539" data-name="Grupo 86539" transform="translate(14.148 39.322)">
          <g id="Grupo_86535" data-name="Grupo 86535">
            <rect id="Rectángulo_16110" data-name="Rectángulo 16110" width="15.455" height="18.626" rx="2.938" fill="#d60063"/>
            <path id="Trazado_140082" data-name="Trazado 140082" d="M211.11,246.476c.006.677,0,6.1-4.815,1.693-4.772-4.364-5.809,9.735-5.827,9.979a1.628,1.628,0,0,0,1.628,1.62h7.17l5.36-.034a1.627,1.627,0,0,0,1.273-1.364l.023-14.1C212.63,240.72,211.093,244.572,211.11,246.476Z" transform="translate(-200.468 -241.143)" fill="#667bb6"/>
          </g>
          <g id="Grupo_86536" data-name="Grupo 86536" transform="translate(19.272)">
            <rect id="Rectángulo_16111" data-name="Rectángulo 16111" width="15.456" height="18.626" rx="2.938" transform="translate(0)" fill="#fdf4f9"/>
            <path id="Trazado_140083" data-name="Trazado 140083" d="M235.234,241.845v15.369a1.629,1.629,0,0,0,1.629,1.629h12.2a1.62,1.62,0,0,0,1.192-.526l-14.582-17.574A1.618,1.618,0,0,0,235.234,241.845Z" transform="translate(-235.234 -240.216)" fill="#667bb6"/>
            <path id="Trazado_140084" data-name="Trazado 140084" d="M250.713,258.436l-11.146-13.449,11.16,0Z" transform="translate(-237.165 -242.107)" fill="#95d1ea"/>
          </g>
          <g id="Grupo_86538" data-name="Grupo 86538" transform="translate(38.545)">
            <rect id="Rectángulo_16112" data-name="Rectángulo 16112" width="15.456" height="18.626" rx="2.938" fill="#fdf4f9"/>
            <g id="Grupo_86537" data-name="Grupo 86537" transform="translate(1.539 2.361)">
              <path id="Trazado_140085" data-name="Trazado 140085" d="M282.471,257.914a4.278,4.278,0,1,1-4.277-4.3A4.29,4.29,0,0,1,282.471,257.914Z" transform="translate(-273.285 -248.313)" fill="#d0d958"/>
              <path id="Trazado_140086" data-name="Trazado 140086" d="M288.966,251.118a3.819,3.819,0,1,1-3.818-3.839A3.828,3.828,0,0,1,288.966,251.118Z" transform="translate(-276.589 -245.49)" fill="#701e43"/>
              <path id="Trazado_140087" data-name="Trazado 140087" d="M280.415,247.892a3.819,3.819,0,1,1-3.818-3.84A3.829,3.829,0,0,1,280.415,247.892Z" transform="translate(-272.778 -244.052)" fill="#e25028"/>
            </g>
          </g>
        </g>
        <g id="Grupo_86541" data-name="Grupo 86541" transform="translate(7.362 13.28)">
          <path id="Trazado_140088" data-name="Trazado 140088" d="M251.959,200.489H192.065a3.838,3.838,0,0,1-3.839-3.839h0a3.838,3.838,0,0,1,3.839-3.838h59.894a3.838,3.838,0,0,1,3.839,3.838h0A3.838,3.838,0,0,1,251.959,200.489Z" transform="translate(-188.226 -192.812)" fill="#ffc61a"/>
          <g id="Grupo_86540" data-name="Grupo 86540" transform="translate(4.301 2.624)">
            <path id="Trazado_140089" data-name="Trazado 140089" d="M265.677,199.974H223.985a1.215,1.215,0,0,1-1.215-1.215h0a1.215,1.215,0,0,1,1.215-1.215h41.693a1.215,1.215,0,0,1,1.215,1.215h0A1.215,1.215,0,0,1,265.677,199.974Z" transform="translate(-207.922 -197.545)" fill="#fff"/>
            <path id="Trazado_140090" data-name="Trazado 140090" d="M206.993,199.974H197.2a1.215,1.215,0,0,1-1.215-1.215h0a1.215,1.215,0,0,1,1.215-1.215h9.793a1.215,1.215,0,0,1,1.215,1.215h0A1.215,1.215,0,0,1,206.993,199.974Z" transform="translate(-195.985 -197.545)" fill="#f28e0f"/>
          </g>
        </g>
        <g id="Grupo_86542" data-name="Grupo 86542" transform="translate(14.145 61.605)">
          <path id="Trazado_140091" data-name="Trazado 140091" d="M215.047,281.629H201.281a.82.82,0,0,1-.819-.819h0a.82.82,0,0,1,.819-.819h13.766a.819.819,0,0,1,.819.819h0A.819.819,0,0,1,215.047,281.629Z" transform="translate(-200.462 -279.99)" fill="#e25028"/>
          <path id="Trazado_140092" data-name="Trazado 140092" d="M249.41,281.629H235.644a.82.82,0,0,1-.819-.819h0a.82.82,0,0,1,.819-.819H249.41a.819.819,0,0,1,.819.819h0A.819.819,0,0,1,249.41,281.629Z" transform="translate(-215.777 -279.99)" fill="#e25028"/>
          <path id="Trazado_140093" data-name="Trazado 140093" d="M284.685,281.629H270.92a.819.819,0,0,1-.819-.819h0a.819.819,0,0,1,.819-.819h13.765a.82.82,0,0,1,.819.819h0A.82.82,0,0,1,284.685,281.629Z" transform="translate(-231.498 -279.99)" fill="#e25028"/>
          <path id="Rectángulo_16113" data-name="Rectángulo 16113" d="M.82,0H14.583a.82.82,0,0,1,.82.82v0a.82.82,0,0,1-.82.82H.82A.82.82,0,0,1,0,.82v0A.82.82,0,0,1,.82,0Z" transform="translate(0 3.329)" fill="#e25028"/>
          <rect id="Rectángulo_16114" data-name="Rectángulo 16114" width="15.404" height="1.641" rx="0.82" transform="translate(19.049 3.329)" fill="#e25028"/>
          <path id="Rectángulo_16115" data-name="Rectángulo 16115" d="M.82,0H14.583a.82.82,0,0,1,.82.82v0a.821.821,0,0,1-.821.821H.821A.821.821,0,0,1,0,.82v0A.82.82,0,0,1,.82,0Z" transform="translate(38.603 3.329)" fill="#e25028"/>
        </g>
        <g id="Grupo_86543" data-name="Grupo 86543" transform="translate(6.944 2.031)">
          <circle id="Elipse_4458" data-name="Elipse 4458" cx="2.218" cy="2.218" r="2.218" transform="translate(0 0)" fill="#d0d958"/>
          <path id="Trazado_140094" data-name="Trazado 140094" d="M205.855,174.737a2.218,2.218,0,1,0-2.218,2.218A2.219,2.219,0,0,0,205.855,174.737Z" transform="translate(-193.688 -172.519)" fill="#d0d958"/>
          <circle id="Elipse_4459" data-name="Elipse 4459" cx="2.218" cy="2.218" r="2.218" transform="translate(15.462 0)" fill="#d0d958"/>
        </g>
        <g id="Grupo_86548" data-name="Grupo 86548" transform="translate(10.948 78.857)">
          <g id="Grupo_86544" data-name="Grupo 86544">
            <rect id="Rectángulo_16116" data-name="Rectángulo 16116" width="12.879" height="6.245" rx="2.232" transform="translate(0 3.497)" fill="#667bb6"/>
            <path id="Trazado_140095" data-name="Trazado 140095" d="M206.749,312.754h-11.19a.821.821,0,0,1-.82-.821h0a.821.821,0,0,1,.82-.82h11.19a.821.821,0,0,1,.82.82h0A.821.821,0,0,1,206.749,312.754Z" transform="translate(-194.714 -311.113)" fill="#e25028"/>
          </g>
          <g id="Grupo_86545" data-name="Grupo 86545" transform="translate(15.84)">
            <rect id="Rectángulo_16117" data-name="Rectángulo 16117" width="12.88" height="6.245" rx="2.232" transform="translate(0 3.497)" fill="#667bb6"/>
            <path id="Trazado_140096" data-name="Trazado 140096" d="M235.324,312.754h-11.19a.82.82,0,0,1-.82-.821h0a.82.82,0,0,1,.82-.82h11.19a.82.82,0,0,1,.82.82h0A.82.82,0,0,1,235.324,312.754Z" transform="translate(-223.289 -311.113)" fill="#e25028"/>
          </g>
          <g id="Grupo_86546" data-name="Grupo 86546" transform="translate(31.681)">
            <rect id="Rectángulo_16118" data-name="Rectángulo 16118" width="12.878" height="6.245" rx="2.232" transform="translate(0 3.497)" fill="#667bb6"/>
            <path id="Trazado_140097" data-name="Trazado 140097" d="M263.9,312.754h-11.19a.821.821,0,0,1-.82-.821h0a.821.821,0,0,1,.82-.82H263.9a.821.821,0,0,1,.82.82h0A.821.821,0,0,1,263.9,312.754Z" transform="translate(-251.866 -311.113)" fill="#e25028"/>
          </g>
          <g id="Grupo_86547" data-name="Grupo 86547" transform="translate(47.52)">
            <rect id="Rectángulo_16119" data-name="Rectángulo 16119" width="12.88" height="6.245" rx="2.232" transform="translate(0 3.497)" fill="#667bb6"/>
            <path id="Trazado_140098" data-name="Trazado 140098" d="M292.475,312.754h-11.19a.82.82,0,0,1-.82-.821h0a.82.82,0,0,1,.82-.82h11.19a.821.821,0,0,1,.82.82h0A.821.821,0,0,1,292.475,312.754Z" transform="translate(-280.44 -311.113)" fill="#e25028"/>
          </g>
        </g>
      </g>
    </g>
    <g id="Grupo_86553" data-name="Grupo 86553" transform="translate(56.98 114.718)">
      <circle id="Elipse_4460" data-name="Elipse 4460" cx="16.138" cy="16.138" r="16.138" fill="#fff"/>
      <g id="Grupo_86552" data-name="Grupo 86552" transform="translate(8.812 4.198)">
        <path id="Trazado_140099" data-name="Trazado 140099" d="M88.439,189.308A7.327,7.327,0,1,0,77,195.371l.849,6.033,6.525.048.843-6.073A7.321,7.321,0,0,0,88.439,189.308Z" transform="translate(-73.786 -181.981)" fill="#ffc61a"/>
        <path id="Trazado_140100" data-name="Trazado 140100" d="M86.983,181.981l-.026,0v19.445l3.287.024.843-6.073a7.328,7.328,0,0,0-4.1-13.4Z" transform="translate(-79.656 -181.981)" fill="#ff9c1a"/>
        <path id="Trazado_140101" data-name="Trazado 140101" d="M87.1,210.341H83.608V199.665l1.967,1.968,1.524-1.968Z" transform="translate(-78.163 -189.862)" fill="none" stroke="#002133" stroke-linejoin="round" stroke-width="1"/>
        <g id="Grupo_86551" data-name="Grupo 86551" transform="translate(2.824 15.261)">
          <path id="Trazado_140102" data-name="Trazado 140102" d="M88.158,210.4c0,.491-.2.889-.452.889H79.419c-.251,0-.453-.4-.453-.889h0c0-.492.2-.891.453-.891h8.287c.248,0,.452.4.452.891Z" transform="translate(-78.919 -209.511)" fill="#b9c1cb"/>
          <path id="Trazado_140103" data-name="Trazado 140103" d="M88.073,213.1c0,.491-.2.889-.454.889H79.334c-.25,0-.453-.4-.453-.889h0c0-.492.2-.89.453-.89h8.286c.251,0,.454.4.454.89Z" transform="translate(-78.881 -210.716)" fill="#8592a3"/>
          <path id="Trazado_140104" data-name="Trazado 140104" d="M88.073,216.143c0,.49-.2.889-.454.889H79.334c-.25,0-.453-.4-.453-.889h0c0-.491.2-.89.453-.89h8.286c.251,0,.454.4.454.89Z" transform="translate(-78.881 -212.07)" fill="#b9c1cb"/>
          <path id="Trazado_140105" data-name="Trazado 140105" d="M87.893,222.3c0,.491-.135.889-.3.889H82.077c-.167,0-.3-.4-.3-.889h0c0-.49.135-.888.3-.888h5.514c.167,0,.3.4.3.888Z" transform="translate(-80.171 -214.817)" fill="#b9c1cb"/>
          <path id="Trazado_140106" data-name="Trazado 140106" d="M88.008,219.351c0,.492-.178.891-.4.891h-7.3c-.221,0-.4-.4-.4-.891h0c0-.49.178-.888.4-.888h7.3c.22,0,.4.4.4.888Z" transform="translate(-79.341 -213.501)" fill="#8592a3"/>
        </g>
      </g>
    </g>
    <g id="Grupo_86557" data-name="Grupo 86557" transform="translate(87.666 63.68)">
      <circle id="Elipse_4461" data-name="Elipse 4461" cx="16.138" cy="16.138" r="16.138" transform="translate(0)" fill="#fff"/>
      <g id="Grupo_86556" data-name="Grupo 86556" transform="translate(5.939 8.563)">
        <g id="Grupo_86554" data-name="Grupo 86554">
          <path id="Trazado_140107" data-name="Trazado 140107" d="M144.358,104.287a6.5,6.5,0,0,0-6.5-6.5h-7.391a6.5,6.5,0,0,0,0,13.007h5.594l2.487,3.252.718-3.409A6.5,6.5,0,0,0,144.358,104.287Z" transform="translate(-123.96 -97.783)" fill="#b9c1cb"/>
          <path id="Trazado_140108" data-name="Trazado 140108" d="M134.208,97.783h-3.745a6.5,6.5,0,0,0,0,13.007h3.745Z" transform="translate(-123.96 -97.783)" fill="#8592a3"/>
        </g>
        <g id="Grupo_86555" data-name="Grupo 86555" transform="translate(3.104 3.457)">
          <path id="Trazado_140109" data-name="Trazado 140109" d="M143.32,104.019H129.99a.43.43,0,0,0-.43.43h0a.43.43,0,0,0,.43.43H143.32a.43.43,0,0,0,.43-.43h0A.43.43,0,0,0,143.32,104.019Z" transform="translate(-129.56 -104.019)" fill="#fff"/>
          <path id="Trazado_140110" data-name="Trazado 140110" d="M143.32,107.964H129.99a.43.43,0,0,0-.43.43h0a.43.43,0,0,0,.43.43H143.32a.43.43,0,0,0,.43-.43h0A.43.43,0,0,0,143.32,107.964Z" transform="translate(-129.56 -105.777)" fill="#fff"/>
          <path id="Trazado_140111" data-name="Trazado 140111" d="M143.32,111.909H129.99a.43.43,0,0,0-.43.43h0a.43.43,0,0,0,.43.43H143.32a.43.43,0,0,0,.43-.43h0A.43.43,0,0,0,143.32,111.909Z" transform="translate(-129.56 -107.535)" fill="#fff"/>
        </g>
      </g>
    </g>
    <g id="Grupo_86559" data-name="Grupo 86559" transform="translate(148.358 40.476)">
      <circle id="Elipse_4462" data-name="Elipse 4462" cx="16.138" cy="16.138" r="16.138" fill="#fff"/>
      <g id="Grupo_86558" data-name="Grupo 86558" transform="translate(4.817 4.625)">
        <path id="Trazado_140112" data-name="Trazado 140112" d="M247.336,70.52a12.049,12.049,0,0,1-5.89,1.326c-5.424,0-10.023-3.971-10.023-10.324,0-6.815,4.73-12.7,12.077-12.7a9.188,9.188,0,0,1,9.628,9.563c0,4.962-2.78,7.871-5.889,7.871-1.326,0-2.548-.894-2.449-2.909h-.131a5.2,5.2,0,0,1-4.665,2.909c-1.918,0-3.573-1.555-3.573-4.166a7.811,7.811,0,0,1,7.84-7.843,8.714,8.714,0,0,1,3.539.695l-1.123,5.989c-.5,2.514-.1,3.672.991,3.7,1.688.034,3.574-2.215,3.574-6.053,0-4.8-2.88-8.237-8.008-8.237-5.39,0-9.924,4.268-9.924,10.982,0,5.528,3.609,8.933,8.5,8.933a10.3,10.3,0,0,0,5-1.159Zm-1.819-14.291A5.76,5.76,0,0,0,243.863,56c-2.912,0-5.261,2.746-5.261,5.957,0,1.455.728,2.513,2.184,2.513,1.918,0,3.674-2.448,4.038-4.5Z" transform="translate(-231.423 -48.819)" fill="#d60063"/>
      </g>
    </g>
    <g id="Grupo_86561" data-name="Grupo 86561" transform="translate(203.407 57.217)">
      <circle id="Elipse_4463" data-name="Elipse 4463" cx="16.138" cy="16.138" r="16.138" transform="translate(0 22.823) rotate(-45)" fill="#fff"/>
      <g id="Grupo_86560" data-name="Grupo 86560" transform="translate(13.129 15.86)">
        <rect id="Rectángulo_16120" data-name="Rectángulo 16120" width="19.388" height="13.927" fill="#8592a3"/>
        <path id="Trazado_140113" data-name="Trazado 140113" d="M355.779,107.6l-4.722-4.009-4.722-4.009h18.886l-4.721,4.009Z" transform="translate(-345.997 -99.417)" fill="#b9c1cb"/>
      </g>
    </g>
    <g id="Grupo_86564" data-name="Grupo 86564" transform="translate(240.617 114.718)">
      <circle id="Elipse_4464" data-name="Elipse 4464" cx="16.138" cy="16.138" r="16.138" transform="translate(0)" fill="#fff"/>
      <g id="Grupo_86563" data-name="Grupo 86563" transform="translate(8.793 3.268)">
        <g id="Grupo_86562" data-name="Grupo 86562">
          <path id="Trazado_140114" data-name="Trazado 140114" d="M412.375,180.3l3.672,6.36,3.672,6.361H405.03l3.673-6.361Z" transform="translate(-405.03 -180.303)" fill="#f5c8a1"/>
          <path id="Trazado_140115" data-name="Trazado 140115" d="M414.4,184.025h4.3l-2.149-3.722Z" transform="translate(-409.207 -180.303)" fill="#11162a"/>
        </g>
        <path id="Trazado_140116" data-name="Trazado 140116" d="M405.128,213.817a12.738,12.738,0,0,0,14.62-.123v-10.52h-14.62Z" transform="translate(-405.073 -190.496)" fill="#ff9c1a"/>
        <path id="Trazado_140117" data-name="Trazado 140117" d="M418.253,203.174V216.06a12.677,12.677,0,0,0,7.345-2.366v-10.52Z" transform="translate(-410.923 -190.496)" fill="#ffc61a"/>
      </g>
    </g>
  </g>
</svg>
