<svg xmlns="http://www.w3.org/2000/svg" xmlns:xlink="http://www.w3.org/1999/xlink" width="182.773" height="181.84" viewBox="0 0 182.773 181.84">
  <defs>
    <linearGradient id="linear-gradient" x1="-13.802" y1="-15.311" x2="-13.238" y2="-13.932" gradientUnits="objectBoundingBox">
      <stop offset="0" stop-color="#a0f980"/>
      <stop offset="0.996" stop-color="#c4d761"/>
    </linearGradient>
    <clipPath id="clip-path">
      <path id="Trazado_150588" data-name="Trazado 150588" d="M1843.673,1897.989l10.261,14.414s12.823-.089,13.427-7.058,12.238-8.73,18.287-10.423c16.412-4.592,7.583-22.284,28.1-29.966,5.457-2.044,16.651-4,19.017-10.516,2.7-7.422-3.812-9.676-1.121-14.806,4.2-8.018,2.845-17.973-6.013-20.9-8.743-2.892-19.2,8.492-23.179,28.57-4.456,13.957-7.018,15.1-13.762,16.655-4.723,1.086-18.25.9-20.294,9.112s-5.081,15.039-11.157,14.438C1847.995,1886.59,1843.673,1897.989,1843.673,1897.989Z" fill="none"/>
    </clipPath>
    <linearGradient id="linear-gradient-2" x1="-15.637" y1="-0.364" x2="-15.828" y2="-1.314" gradientUnits="objectBoundingBox">
      <stop offset="0.004" stop-color="#61e3ab"/>
      <stop offset="1" stop-color="#a3f671"/>
    </linearGradient>
    <clipPath id="clip-path-2">
      <path id="Trazado_150595" data-name="Trazado 150595" d="M1853.314,1878.748,1870.7,1900.8c3.994-1,10.787-3.579,8.505-9.233-3.173-7.86,7.574-16.21,12.8-17.336,6.462-1.393,21.426-4.951,16.708-17.169-3.928-10.17-8.5-16.049,1.245-24.312s11.581-18.878,3.464-28.093c-8.541-9.7-2.074-27.8-12.88-32.878-18.829-8.841-31.068,21.254-23.854,43.829s-6.741,17.027-15.452,22.838c-11.893,7.933,3.048,22.207,1.879,29.834C1862.2,1874.259,1856.876,1877.288,1853.314,1878.748Z" fill="none"/>
    </clipPath>
    <linearGradient id="linear-gradient-3" y1="0.5" x2="1" y2="0.5" gradientUnits="objectBoundingBox">
      <stop offset="0" stop-color="#444b8c"/>
      <stop offset="0.996" stop-color="#26264f"/>
    </linearGradient>
    <linearGradient id="linear-gradient-4" x1="-1.287" y1="1.265" x2="-0.874" y2="2.293" gradientUnits="objectBoundingBox">
      <stop offset="0.004" stop-color="#ebeff2"/>
      <stop offset="1" stop-color="#fff"/>
    </linearGradient>
    <linearGradient id="linear-gradient-5" x1="0.329" y1="0.554" x2="-0.255" y2="0.738" gradientUnits="objectBoundingBox">
      <stop offset="0" stop-color="#fcb148"/>
      <stop offset="0.052" stop-color="#fdb946"/>
      <stop offset="0.142" stop-color="#fec144"/>
      <stop offset="0.318" stop-color="#ffc444"/>
      <stop offset="0.485" stop-color="#fdb946"/>
      <stop offset="0.775" stop-color="#f99c4c"/>
      <stop offset="0.866" stop-color="#f8924f"/>
      <stop offset="1" stop-color="#f8924f"/>
    </linearGradient>
    <linearGradient id="linear-gradient-6" x1="0.727" y1="0.007" x2="0.207" y2="1.135" gradientUnits="objectBoundingBox">
      <stop offset="0" stop-color="#ffdb44"/>
      <stop offset="1" stop-color="#feef06"/>
    </linearGradient>
    <linearGradient id="linear-gradient-7" x1="0.636" y1="1.231" x2="0.531" y2="0.666" xlink:href="#linear-gradient-5"/>
    <linearGradient id="linear-gradient-8" x1="0.409" y1="0.31" x2="0.858" y2="1.247" xlink:href="#linear-gradient-5"/>
    <linearGradient id="linear-gradient-9" x1="0.253" y1="0.019" x2="0.711" y2="1.039" xlink:href="#linear-gradient-6"/>
    <linearGradient id="linear-gradient-10" x1="0.464" y1="0.369" x2="1.215" y2="1.306" xlink:href="#linear-gradient-5"/>
    <linearGradient id="linear-gradient-14" x1="0.409" y1="0.31" x2="0.858" y2="1.247" xlink:href="#linear-gradient-5"/>
    <linearGradient id="linear-gradient-16" x1="0.464" y1="0.369" x2="1.215" y2="1.306" xlink:href="#linear-gradient-5"/>
    <linearGradient id="linear-gradient-17" x1="172.522" y1="2.841" x2="172.838" y2="-0.255" gradientUnits="objectBoundingBox">
      <stop offset="0" stop-color="#ffc444"/>
      <stop offset="0.996" stop-color="#f36f56"/>
    </linearGradient>
    <linearGradient id="linear-gradient-18" x1="51.9" y1="3.226" x2="51.969" y2="-0.328" gradientUnits="objectBoundingBox">
      <stop offset="0.1" stop-color="#311944"/>
      <stop offset="0.267" stop-color="#361b47"/>
      <stop offset="0.48" stop-color="#462050"/>
      <stop offset="0.719" stop-color="#602a5f"/>
      <stop offset="0.974" stop-color="#843773"/>
      <stop offset="1" stop-color="#893976"/>
    </linearGradient>
    <linearGradient id="linear-gradient-19" x1="1020.115" y1="0.558" x2="1035.625" y2="2.494" xlink:href="#linear-gradient-18"/>
    <linearGradient id="linear-gradient-20" x1="190.647" y1="2.889" x2="191.064" y2="-0.297" xlink:href="#linear-gradient-17"/>
    <linearGradient id="linear-gradient-21" x1="181.319" y1="7.212" x2="179.713" y2="-22.685" gradientUnits="objectBoundingBox">
      <stop offset="0.1" stop-color="#311944"/>
      <stop offset="0.685" stop-color="#6d2e66"/>
      <stop offset="1" stop-color="#893976"/>
    </linearGradient>
    <linearGradient id="linear-gradient-22" x1="48.544" y1="0.844" x2="45.789" y2="0.303" gradientUnits="objectBoundingBox">
      <stop offset="0" stop-color="#311944"/>
      <stop offset="1" stop-color="#893976"/>
    </linearGradient>
    <linearGradient id="linear-gradient-23" x1="61.548" y1="0.096" x2="62.649" y2="0.583" xlink:href="#linear-gradient-22"/>
    <linearGradient id="linear-gradient-24" x1="13.867" y1="-0.486" x2="13.948" y2="0.929" xlink:href="#linear-gradient-21"/>
    <linearGradient id="linear-gradient-25" x1="15.172" y1="0.298" x2="15.895" y2="0.958" xlink:href="#linear-gradient-22"/>
    <linearGradient id="linear-gradient-26" x1="14.092" y1="0.494" x2="14.382" y2="0.468" xlink:href="#linear-gradient-21"/>
    <linearGradient id="linear-gradient-27" x1="14.432" y1="2.576" x2="14.34" y2="0.159" xlink:href="#linear-gradient-18"/>
    <linearGradient id="linear-gradient-28" x1="14.478" y1="3.216" x2="14.321" y2="-0.204" xlink:href="#linear-gradient-22"/>
    <linearGradient id="linear-gradient-29" x1="89.15" y1="1.624" x2="86.041" y2="-0.064" xlink:href="#linear-gradient-17"/>
    <linearGradient id="linear-gradient-30" x1="86.405" y1="0.203" x2="89.599" y2="1.379" xlink:href="#linear-gradient-17"/>
    <linearGradient id="linear-gradient-31" x1="115.795" y1="-5.216" x2="117.133" y2="3.966" xlink:href="#linear-gradient-22"/>
    <linearGradient id="linear-gradient-32" x1="393.106" y1="2.445" x2="393.171" y2="-1.732" xlink:href="#linear-gradient-17"/>
    <linearGradient id="linear-gradient-33" x1="119.184" y1="-6.625" x2="120.523" y2="2.557" xlink:href="#linear-gradient-22"/>
    <linearGradient id="linear-gradient-34" x1="405.174" y1="1.793" x2="405.239" y2="-2.385" xlink:href="#linear-gradient-17"/>
    <linearGradient id="linear-gradient-35" x1="70.363" y1="0.5" x2="71.363" y2="0.5" xlink:href="#linear-gradient-3"/>
    <linearGradient id="linear-gradient-36" x1="101.864" y1="0.5" x2="103.312" y2="0.5" xlink:href="#linear-gradient-3"/>
    <linearGradient id="linear-gradient-37" x1="47.613" y1="1.16" x2="47.888" y2="0.531" xlink:href="#linear-gradient-3"/>
    <linearGradient id="linear-gradient-38" x1="100.732" y1="-0.136" x2="102.224" y2="3.031" xlink:href="#linear-gradient-17"/>
    <linearGradient id="linear-gradient-39" x1="25.966" y1="-0.667" x2="24.295" y2="1.457" gradientUnits="objectBoundingBox">
      <stop offset="0" stop-color="#ff9085"/>
      <stop offset="1" stop-color="#fb6fbb"/>
    </linearGradient>
    <linearGradient id="linear-gradient-40" x1="1.448" y1="1.439" x2="0.274" y2="0.275" xlink:href="#linear-gradient-39"/>
    <linearGradient id="linear-gradient-41" x1="32.056" y1="1.573" x2="30.549" y2="0.138" xlink:href="#linear-gradient-39"/>
    <linearGradient id="linear-gradient-42" x1="0.992" y1="1.301" x2="0.273" y2="0.255" xlink:href="#linear-gradient-17"/>
    <linearGradient id="linear-gradient-43" x1="122.824" y1="1.731" x2="122.095" y2="0.129" gradientUnits="objectBoundingBox">
      <stop offset="0" stop-color="#444b8c"/>
      <stop offset="0.996" stop-color="#3e4177"/>
    </linearGradient>
    <linearGradient id="linear-gradient-44" x1="-392.087" y1="-15.459" x2="-391.133" y2="-8.326" xlink:href="#linear-gradient-17"/>
    <linearGradient id="linear-gradient-45" x1="29.513" y1="-23.966" x2="29.896" y2="-22.034" gradientUnits="objectBoundingBox">
      <stop offset="0" stop-color="#648c44"/>
      <stop offset="0.996" stop-color="#324f26"/>
    </linearGradient>
    <linearGradient id="linear-gradient-46" x1="5.762" y1="7.029" x2="6.771" y2="7.029" xlink:href="#linear-gradient-45"/>
    <linearGradient id="linear-gradient-47" x1="261.878" y1="-118.293" x2="265.99" y2="-106.842" xlink:href="#linear-gradient-45"/>
    <linearGradient id="linear-gradient-48" x1="283.04" y1="-104.376" x2="287.727" y2="-94.022" xlink:href="#linear-gradient-45"/>
    <linearGradient id="linear-gradient-49" x1="284.153" y1="-106.103" x2="288.839" y2="-95.66" xlink:href="#linear-gradient-45"/>
    <linearGradient id="linear-gradient-50" x1="260.828" y1="-122.828" x2="264.961" y2="-111.497" xlink:href="#linear-gradient-45"/>
    <linearGradient id="linear-gradient-51" x1="102.248" y1="-58.12" x2="102.512" y2="-57.181" xlink:href="#linear-gradient-45"/>
    <linearGradient id="linear-gradient-52" x1="11.72" y1="-6.852" x2="12.838" y2="-6.852" xlink:href="#linear-gradient-45"/>
    <linearGradient id="linear-gradient-53" x1="32.465" y1="-23.491" x2="33.488" y2="-23.491" xlink:href="#linear-gradient-45"/>
    <linearGradient id="linear-gradient-54" x1="29.508" y1="-23.96" x2="29.89" y2="-22.028" gradientUnits="objectBoundingBox">
      <stop offset="0" stop-color="#4af970"/>
      <stop offset="0.996" stop-color="#8bd761"/>
    </linearGradient>
    <linearGradient id="linear-gradient-55" x1="261.825" y1="-118.258" x2="265.937" y2="-106.808" xlink:href="#linear-gradient-54"/>
    <linearGradient id="linear-gradient-56" x1="283.004" y1="-104.343" x2="287.692" y2="-93.99" xlink:href="#linear-gradient-54"/>
    <linearGradient id="linear-gradient-57" x1="284.095" y1="-106.069" x2="288.781" y2="-95.626" xlink:href="#linear-gradient-54"/>
    <linearGradient id="linear-gradient-58" x1="260.774" y1="-122.789" x2="264.908" y2="-111.458" xlink:href="#linear-gradient-54"/>
    <linearGradient id="linear-gradient-59" x1="102.227" y1="-58.105" x2="102.491" y2="-57.166" xlink:href="#linear-gradient-54"/>
    <linearGradient id="linear-gradient-60" x1="32.459" y1="-23.484" x2="33.482" y2="-23.484" xlink:href="#linear-gradient-54"/>
    <linearGradient id="linear-gradient-61" x1="870.017" y1="235.329" x2="871.068" y2="236.778" xlink:href="#linear-gradient-3"/>
    <linearGradient id="linear-gradient-62" x1="1175.662" y1="95.136" x2="1175.662" y2="93.72" xlink:href="#linear-gradient-17"/>
    <linearGradient id="linear-gradient-63" x1="1101.469" y1="289.935" x2="1102.801" y2="291.723" xlink:href="#linear-gradient-3"/>
    <linearGradient id="linear-gradient-64" x1="974.351" y1="-0.515" x2="975.445" y2="0.793" xlink:href="#linear-gradient-3"/>
    <linearGradient id="linear-gradient-65" x1="995.769" y1="-41.692" x2="995.769" y2="-43.056" xlink:href="#linear-gradient-17"/>
    <linearGradient id="linear-gradient-66" x1="1210.598" y1="-1.298" x2="1211.959" y2="0.479" xlink:href="#linear-gradient-3"/>
    <linearGradient id="linear-gradient-67" x1="-1.313" y1="-0.081" x2="1.499" y2="0.747" xlink:href="#linear-gradient-3"/>
    <linearGradient id="linear-gradient-68" y1="0.5" x2="1" y2="0.5" gradientUnits="objectBoundingBox">
      <stop offset="0" stop-color="#311944"/>
      <stop offset="1" stop-color="#6b3976"/>
    </linearGradient>
    <linearGradient id="linear-gradient-69" x1="-0.598" y1="0.055" x2="1.238" y2="0.827" xlink:href="#linear-gradient-3"/>
    <linearGradient id="linear-gradient-70" x1="-218.189" y1="-139.243" x2="-218.542" y2="-137.266" xlink:href="#linear-gradient-17"/>
    <linearGradient id="linear-gradient-71" x1="1.253" y1="1.43" x2="0.316" y2="0.173" xlink:href="#linear-gradient-22"/>
    <linearGradient id="linear-gradient-72" x1="301.684" y1="-34.835" x2="302.864" y2="-33.287" xlink:href="#linear-gradient-17"/>
    <linearGradient id="linear-gradient-73" x1="3273.094" y1="-283.016" x2="3287.42" y2="-269.228" xlink:href="#linear-gradient-17"/>
    <linearGradient id="linear-gradient-74" x1="-0.124" y1="0.253" x2="0.63" y2="0.79" xlink:href="#linear-gradient-22"/>
    <linearGradient id="linear-gradient-75" x1="1.611" y1="3" x2="0.552" y2="0.49" xlink:href="#linear-gradient-22"/>
    <linearGradient id="linear-gradient-76" x1="0.199" y1="0.08" x2="1.076" y2="1.288" xlink:href="#linear-gradient-17"/>
    <linearGradient id="linear-gradient-77" x1="1.3" y1="1.616" x2="0.183" y2="0.294" xlink:href="#linear-gradient-39"/>
    <linearGradient id="linear-gradient-78" x1="951.951" y1="-2.803" x2="952.214" y2="2.035" xlink:href="#linear-gradient-68"/>
    <linearGradient id="linear-gradient-79" x1="385.299" y1="0.663" x2="385.299" y2="-0.546" xlink:href="#linear-gradient-68"/>
    <linearGradient id="linear-gradient-80" x1="-0.046" y1="0.221" x2="1.452" y2="1.539" xlink:href="#linear-gradient-39"/>
  </defs>
  <g id="Grupo_94096" data-name="Grupo 94096" transform="translate(-1763.613 -1755.959)">
    <path id="Trazado_150578" data-name="Trazado 150578" d="M1946.348,1865.223a87.905,87.905,0,0,1-1.44,13.995c-2.257,11.92-7.436,23.531-17.775,33.365-8.782,8.356-21.289,15.431-38.894,20.322q-.506.141-1.018.279a128.706,128.706,0,0,1-42.006,4.21c-.694-.055-1.391-.107-2.085-.156-6.407-.46-12.825-.734-19.221-1.331-19.244-1.79-41.3-7.407-50.338-26.472a43.12,43.12,0,0,1-1.862-4.6c-3.853-11.245-3.168-23.47-2.63-35.255q.04-.9.081-1.79c.482-11.064-1.277-22.209-3.883-32.976a59.676,59.676,0,0,1,9.185-48.23,67.707,67.707,0,0,1,43.343-27.518c30.033-5.616,60.5-1.911,60.5-1.911,40.126,4.168,60.439,44.007,65.393,76.433C1945.152,1843.1,1946.647,1854.047,1946.348,1865.223Z" fill="#f4f7fa"/>
    <g id="Grupo_94107" data-name="Grupo 94107">
      <g id="Grupo_94102" data-name="Grupo 94102">
        <path id="Trazado_150579" data-name="Trazado 150579" d="M1857.239,1887.506c-5.314-.527-8.9,3.206-11.079,6.314a5.377,5.377,0,0,1,.262,1.321c.765,4.708,2.094,6.554,3.581,11.075a24.846,24.846,0,0,0,2.934,4.548l1.532,1.846s12.288-.3,12.892-7.265,12.238-8.73,18.287-10.423c3.715-1.039,5.08-2.7,6.384-3.305,13.8-6.363,19.65-3.743,22.866-8.568,3.55-5.327-2.564-10.044.992-16.043,4.015-6.774,14.508-5.307,16.875-12.566a10.012,10.012,0,0,0,.636-4.274c-.38-4.293-3.849-6.543-1.757-10.532,4.2-8.018,2.845-17.973-6.013-20.9-8.743-2.892-19.2,8.492-23.179,28.57-4.456,13.957-7.018,15.1-13.762,16.655-4.723,1.086-18.25.9-20.294,9.112S1863.315,1888.108,1857.239,1887.506Z" fill="url(#linear-gradient)"/>
        <g id="Grupo_94101" data-name="Grupo 94101">
          <g id="Grupo_94100" data-name="Grupo 94100" clip-path="url(#clip-path)">
            <g id="Grupo_94099" data-name="Grupo 94099" opacity="0.5" style="mix-blend-mode: soft-light;isolation: isolate">
              <path id="Trazado_150580" data-name="Trazado 150580" d="M1848.905,1903.983l.169.307c1.707-.912,3.418-1.856,5.082-2.8a188.739,188.739,0,0,0,33.186-23.78,154.089,154.089,0,0,0,21.629-24,132.6,132.6,0,0,0,12.566-21.244,109.729,109.729,0,0,0,5.835-15.178c.258-.865.474-1.769.683-2.643.278-1.164.566-2.368.956-3.491l-.314-.135c-.4,1.138-.685,2.35-.965,3.522-.208.87-.423,1.769-.678,2.626a109.555,109.555,0,0,1-5.818,15.132,132.291,132.291,0,0,1-12.537,21.193,153.719,153.719,0,0,1-21.586,23.954,188.359,188.359,0,0,1-33.132,23.741C1852.319,1902.129,1850.611,1903.071,1848.905,1903.983Z" fill="#fefefc"/>
              <path id="Trazado_150581" data-name="Trazado 150581" d="M1900.8,1863.48l.248.245c9.465-10.342,33.482-13.329,33.724-13.358l-.061-.341C1934.468,1850.055,1910.339,1853.055,1900.8,1863.48Z" fill="#fefefc"/>
              <path id="Trazado_150582" data-name="Trazado 150582" d="M1871.7,1889.83l.222.272c7.28-6.192,6.989-25.561,6.985-25.756l-.332-.017C1878.583,1864.522,1878.872,1883.735,1871.7,1889.83Z" fill="#fefefc"/>
              <path id="Trazado_150583" data-name="Trazado 150583" d="M1867.255,1892.952l.174.3c5.429-3.057,14.614-4.1,25.863-2.952.566.058.566.058.62.029l-.17-.307.085.153-.025-.17c-.038,0-.252-.022-.5-.047C1881.989,1888.8,1872.738,1889.864,1867.255,1892.952Z" fill="#fefefc"/>
              <path id="Trazado_150584" data-name="Trazado 150584" d="M1852,1902.269l.248.247c4.677-5.067,2.989-15.789,2.972-15.9l-.328.034C1854.906,1886.76,1856.566,1897.318,1852,1902.269Z" fill="#fefefc"/>
              <path id="Trazado_150585" data-name="Trazado 150585" d="M1849.08,1904.482c5.564-.67,11.607.309,18.472,2.992l.1-.321c-6.919-2.7-13.013-3.689-18.631-3.013Z" fill="#fefefc"/>
              <path id="Trazado_150586" data-name="Trazado 150586" d="M1919.162,1836.532l.26.231a85.463,85.463,0,0,1,13.733-12.854c.527-.405.712-.549.767-.611l-.252-.242c-.043.047-.344.279-.725.573A85.647,85.647,0,0,0,1919.162,1836.532Z" fill="#fefefc"/>
              <path id="Trazado_150587" data-name="Trazado 150587" d="M1912.641,1847.743l.31.146c2.7-6.974-3.346-21.457-3.6-22.071l-.3.119C1909.106,1826.086,1915.29,1840.9,1912.641,1847.743Z" fill="#fefefc"/>
            </g>
          </g>
        </g>
      </g>
      <g id="Grupo_94106" data-name="Grupo 94106">
        <path id="Trazado_150589" data-name="Trazado 150589" d="M1852.8,1883.621c.859.857-4.679,11.314,3.747,9.206,2.1-.527,8.143-3.953,13.859,2.9l3.328,3.988c3.984-1.207,7.516-3.083,5.473-8.144-3.173-7.86,7.574-16.21,12.8-17.335,6.462-1.394,21.426-4.952,16.708-17.169-3.928-10.171-8.5-16.05,1.245-24.313s11.581-18.878,3.464-28.093c-8.541-9.7-2.075-27.8-12.88-32.878-18.829-8.841-31.068,21.254-23.854,43.829s-6.741,17.027-15.452,22.838a18.045,18.045,0,0,0-3.093,2.954c-7.1,8.631-1.609,18.774-3.671,30.679C1851.659,1888.314,1851.354,1882.177,1852.8,1883.621Z" fill="url(#linear-gradient-2)"/>
        <g id="Grupo_94105" data-name="Grupo 94105">
          <g id="Grupo_94104" data-name="Grupo 94104" clip-path="url(#clip-path-2)">
            <g id="Grupo_94103" data-name="Grupo 94103" opacity="0.5" style="mix-blend-mode: soft-light;isolation: isolate">
              <path id="Trazado_150590" data-name="Trazado 150590" d="M1864.814,1886.591l.458.4c27.413-31.854,38.448-77.788,28.8-119.878l-.577.1C1903.1,1809.127,1892.114,1854.869,1864.814,1886.591Z" fill="#fefefc"/>
              <path id="Trazado_150591" data-name="Trazado 150591" d="M1878.2,1867.854l.374.479c13.159-9.995,32.635-5.995,32.83-5.953l.091-.579C1911.294,1861.759,1891.563,1857.7,1878.2,1867.854Z" fill="#fefefc"/>
              <path id="Trazado_150592" data-name="Trazado 150592" d="M1869.689,1880.584l.547.257c6.558-15.549-11.616-42.184-11.8-42.451l-.481.317C1858.138,1838.971,1876.122,1865.331,1869.689,1880.584Z" fill="#fefefc"/>
              <path id="Trazado_150593" data-name="Trazado 150593" d="M1893.391,1829.177l.526.3c6.263-11.783,26.389-16.5,26.591-16.545l-.162-.577C1920.141,1812.4,1899.77,1817.176,1893.391,1829.177Z" fill="#fefefc"/>
              <path id="Trazado_150594" data-name="Trazado 150594" d="M1896.89,1802.148l.586-.046c-2.092-15.55-18.6-29.556-18.769-29.7l-.364.444C1878.508,1772.989,1894.83,1786.84,1896.89,1802.148Z" fill="#fefefc"/>
            </g>
          </g>
        </g>
      </g>
    </g>
    <g id="Grupo_94112" data-name="Grupo 94112">
      <g id="Grupo_94109" data-name="Grupo 94109">
        <path id="Trazado_150596" data-name="Trazado 150596" d="M1878.085,1780.944l-100.8-5.831c-2.321-.114-4.411,2.42-4.411,4.547v129.8c0,2.95,3.013,3.543,5.335,3.306l99.874-10.2a3.789,3.789,0,0,0,3.3-3.729V1784.5A3.548,3.548,0,0,0,1878.085,1780.944Z" fill="#97a6b7"/>
        <path id="Trazado_150597" data-name="Trazado 150597" d="M1879.743,1779.913l-101-4.969a3.83,3.83,0,0,0-4.212,3.675v130.81a3.6,3.6,0,0,0,4.212,3.448l101-10.395a3.811,3.811,0,0,0,3.3-3.759V1783.494A3.564,3.564,0,0,0,1879.743,1779.913Z" fill="#d8dee8"/>
        <path id="Trazado_150598" data-name="Trazado 150598" d="M1778.746,1911.1a1.948,1.948,0,0,1-2.273-1.866V1778.706a2.073,2.073,0,0,1,2.273-1.988l101,4.771a1.931,1.931,0,0,1,1.787,1.937v115.446a2.062,2.062,0,0,1-1.787,2.033Z" fill="#97a6b7" opacity="0.1" style="mix-blend-mode: multiply;isolation: isolate"/>
        <path id="Trazado_150599" data-name="Trazado 150599" d="M1873.234,1897.809l-86.383,8.323V1785.706l86.383,3.253Z" fill="#fff"/>
        <path id="Trazado_150600" data-name="Trazado 150600" d="M1838.683,1789.549l-34.523.432.774-7.786a2.109,2.109,0,0,1,1.753-1.99l5.846-.9a2.1,2.1,0,0,0,1.582-1.214l.634-1.377,15.293.945Z" fill="#97a6b7" opacity="0.3" style="mix-blend-mode: multiply;isolation: isolate"/>
        <path id="Trazado_150601" data-name="Trazado 150601" d="M1857.119,1784.5a1.847,1.847,0,0,0-1.759-1.539l-5.517-.248a4.429,4.429,0,0,1-4.247-4.722l.213-5.971a1.938,1.938,0,0,0-1.833-2.054l-1.812-.108a2.294,2.294,0,0,1-2.109-2.71,4.093,4.093,0,0,0-3.793-4.753,4.967,4.967,0,0,0-5.13,4.208,2.778,2.778,0,0,1-.384,1.064,2.835,2.835,0,0,1-2.544,1.357l-1.869-.111a2.477,2.477,0,0,0-2.5,1.846l-1.555,6.06a5.938,5.938,0,0,1-5.9,4.4l-6.052-.272a2.631,2.631,0,0,0-2.42,1.439l-3.646,7.236a.836.836,0,0,0,.72,1.254l52.478,1.743a.974.974,0,0,0,.956-1.122Zm-21.6-16.937a1.2,1.2,0,0,1-1.119-1.4,1.455,1.455,0,0,1,1.5-1.237,1.2,1.2,0,0,1,1.116,1.4A1.457,1.457,0,0,1,1835.518,1767.561Z" fill="url(#linear-gradient-3)"/>
        <path id="Trazado_150602" data-name="Trazado 150602" d="M1857.43,1784.659a1.849,1.849,0,0,0-1.759-1.539l-5.517-.247a4.429,4.429,0,0,1-4.247-4.723l.213-5.97a1.938,1.938,0,0,0-1.833-2.054l-1.813-.108a2.3,2.3,0,0,1-2.108-2.71,4.093,4.093,0,0,0-3.793-4.753,4.966,4.966,0,0,0-5.13,4.208,2.77,2.77,0,0,1-.384,1.063,2.834,2.834,0,0,1-2.544,1.358l-1.869-.111a2.479,2.479,0,0,0-2.5,1.846l-1.554,6.06a5.938,5.938,0,0,1-5.9,4.4l-6.052-.272a2.629,2.629,0,0,0-2.42,1.439l-3.646,7.236a.836.836,0,0,0,.72,1.254l52.477,1.743a.974.974,0,0,0,.956-1.122Zm-21.6-16.937a1.2,1.2,0,0,1-1.119-1.4,1.455,1.455,0,0,1,1.5-1.237,1.2,1.2,0,0,1,1.116,1.4A1.456,1.456,0,0,1,1835.829,1767.722Z" fill="#97a6b7"/>
        <g id="Grupo_94108" data-name="Grupo 94108">
          <path id="Trazado_150603" data-name="Trazado 150603" d="M1848.449,1787.985c-4.681-2.89-8.273-.841-11.191-4.1-3.123-3.489-1.016-8.082-4.248-10.249-2.069-1.388-3.914-.164-6.32-.54a6.638,6.638,0,0,1-2.8-1.17l-1.3,5.054a5.938,5.938,0,0,1-5.9,4.4l-6.052-.272a2.631,2.631,0,0,0-2.42,1.439l-3.646,7.236a.837.837,0,0,0,.72,1.254l47.691,1.584A14.223,14.223,0,0,0,1848.449,1787.985Z" fill="#fff" opacity="0.5" style="mix-blend-mode: soft-light;isolation: isolate"/>
        </g>
      </g>
      <g id="Grupo_94111" data-name="Grupo 94111">
        <path id="Trazado_150604" data-name="Trazado 150604" d="M1868.636,1804.043l-40.854-.511v-3.578l40.854.652Z" fill="#d8dee8"/>
        <path id="Trazado_150605" data-name="Trazado 150605" d="M1868.636,1811.147l-40.854-.219v-3.578l40.854.36Z" fill="#d8dee8"/>
        <path id="Trazado_150606" data-name="Trazado 150606" d="M1868.636,1836.652l-77.02,1.778v-3.7l77.02-1.511Z" fill="#d8dee8"/>
        <path id="Trazado_150607" data-name="Trazado 150607" d="M1868.636,1843.756l-77.02,2.329v-3.7l77.02-2.062Z" fill="#d8dee8"/>
        <path id="Trazado_150608" data-name="Trazado 150608" d="M1868.636,1850.859l-77.02,2.881v-3.7l77.02-2.614Z" fill="#d8dee8"/>
        <path id="Trazado_150609" data-name="Trazado 150609" d="M1868.636,1857.963l-77.02,3.432v-3.7l77.02-3.165Z" fill="#d8dee8"/>
        <path id="Trazado_150610" data-name="Trazado 150610" d="M1868.636,1869.191l-77.02,4.3v-3.7l77.02-4.037Z" fill="#d8dee8"/>
        <path id="Trazado_150611" data-name="Trazado 150611" d="M1868.636,1876.294l-77.02,4.855v-3.7l77.02-4.588Z" fill="#d8dee8"/>
        <path id="Trazado_150612" data-name="Trazado 150612" d="M1868.636,1883.4l-77.02,5.406v-3.7l77.02-5.14Z" fill="#d8dee8"/>
        <path id="Trazado_150613" data-name="Trazado 150613" d="M1868.636,1890.5l-77.02,5.958v-3.7l77.02-5.691Z" fill="#d8dee8"/>
        <g id="Grupo_94110" data-name="Grupo 94110">
          <path id="Trazado_150614" data-name="Trazado 150614" d="M1823.317,1825.716l-31.7.368V1796.7l31.7.5Z" fill="#d8dee8"/>
          <path id="Trazado_150615" data-name="Trazado 150615" d="M1813.929,1806.888a6.105,6.105,0,0,1-6.107,6.12,6.2,6.2,0,0,1-6.178-6.2,6.1,6.1,0,0,1,6.178-6.12A6.2,6.2,0,0,1,1813.929,1806.888Z" fill="#fff"/>
          <path id="Trazado_150616" data-name="Trazado 150616" d="M1819.056,1823.361a11.562,11.562,0,0,0-11.234-8.732,11.9,11.9,0,0,0-11.478,8.942Z" fill="#fff"/>
        </g>
      </g>
    </g>
    <g id="Grupo_94114" data-name="Grupo 94114">
      <path id="Trazado_150617" data-name="Trazado 150617" d="M1895.693,1910.166c-.3,0-.588-.01-.863-.023-10.877-.53-38.41.234-45.364-23.713-6.39-21.994,22.986-53.807,27.817-58.846.43-.448.665-.684.665-.684s-1.165-.948,23.348-.7c27.047,22.92,30.656,40.2,30.656,40.2C1939.186,1901.789,1907.372,1910.255,1895.693,1910.166Z" fill="#d8dee8"/>
      <path id="Trazado_150618" data-name="Trazado 150618" d="M1895.693,1910.166c-.3,0-.588-.01-.863-.023-10.877-.53-38.41.234-45.364-23.713-6.39-21.994,22.986-53.807,27.817-58.846a7.39,7.39,0,0,1,3.348.37C1881.033,1828.1,1820.083,1898.713,1895.693,1910.166Z" fill="#d8dee8" opacity="0.5" style="mix-blend-mode: multiply;isolation: isolate"/>
      <path id="Trazado_150619" data-name="Trazado 150619" d="M1874.2,1808.192s4.942-7.537,11.244-4.364,11.388,5.57,14.887,3.694,5.357-3.408,6.083,1.123-12.7,14.93-12.7,14.93S1874.032,1822.615,1874.2,1808.192Z" fill="#97a6b7"/>
      <path id="Trazado_150620" data-name="Trazado 150620" d="M1874.031,1811.6s4.942-7.538,11.244-4.365,11.388,5.571,14.887,3.695,5.357-3.408,6.083,1.123-12.695,14.93-12.695,14.93S1873.866,1826.02,1874.031,1811.6Z" fill="#d8dee8" opacity="0.5" style="mix-blend-mode: multiply;isolation: isolate"/>
      <path id="Trazado_150621" data-name="Trazado 150621" d="M1906.788,1820.818c-1.958,2.624-4.2,4.846-6.123,5.712-2.409,1.085-6.632,1.609-10.817,1.71a43.367,43.367,0,0,1-10.6-.835l0,0a5.149,5.149,0,0,1-1.3-.5s-6.8-12.066-6.642-17.533c.049-1.736.8-2.807,2.691-2.616,7.855.79,7.82,5.191,13.248,4.227s9.763-8.94,13.083-3.455,7.535-1.885,10.637.723C1912.967,1809.929,1910.352,1816.04,1906.788,1820.818Z" fill="#d8dee8"/>
      <path id="Trazado_150622" data-name="Trazado 150622" d="M1877.55,1826.176s14.289,4.86,24.032-.146a9.029,9.029,0,0,0,1.174,1.424s-7.272,6.017-25.881.56C1876.875,1828.014,1877.4,1826.69,1877.55,1826.176Z" fill="#97a6b7"/>
      <path id="Trazado_150623" data-name="Trazado 150623" d="M1906.788,1820.818c-1.958,2.624-4.2,4.846-6.123,5.712-2.409,1.085-6.632,1.609-10.817,1.71l-10.6-.835,0,0a5.149,5.149,0,0,1-1.3-.5s-6.8-12.066-6.642-17.533c.094-.092,3.142-3.012,6.3,3.721,3.207,6.839,4.2,12.712,8.52,10.118s11.311-13.273,12.2-8.041-3.547,10.009-.455,9.334C1900.272,1823.973,1905.028,1820.643,1906.788,1820.818Z" fill="#d8dee8" opacity="0.5" style="mix-blend-mode: multiply;isolation: isolate"/>
      <g id="Grupo_94113" data-name="Grupo 94113" opacity="0.9">
        <path id="Trazado_150624" data-name="Trazado 150624" d="M1895.342,1845.363h0a1.547,1.547,0,0,1,1.609,1.457l-.017,2.717a50.123,50.123,0,0,1,5.374.43q1.98.266,3.928.687a1.471,1.471,0,0,1,1.232,1.542l-.37,3.453a1.58,1.58,0,0,1-2.079,1.227,23.176,23.176,0,0,0-2.65-.672,26.293,26.293,0,0,0-5.013-.448l-.461,0-.05,7.934c4.724.8,8.184,2.1,10.422,3.907a8.818,8.818,0,0,1,3.363,7.176,10.417,10.417,0,0,1-3.682,8.177c-2.508,2.229-6.043,3.682-10.636,4.347l-.022,3.212a1.754,1.754,0,0,1-1.7,1.648l-.03,0a1.506,1.506,0,0,1-1.68-1.46l.03-3.174-.749.038a54.074,54.074,0,0,1-6.238-.029,42.927,42.927,0,0,1-4.321-.5,1.489,1.489,0,0,1-1.33-1.611l.562-4.719a1.846,1.846,0,0,1,2.33-1.415,34.2,34.2,0,0,0,3.767.78,35.514,35.514,0,0,0,6.016.373l.116-9.088c-4.592-.631-8.027-1.846-10.267-3.645a8.661,8.661,0,0,1-3.28-7.327,9.27,9.27,0,0,1,3.834-7.563c2.457-1.858,5.907-2.939,10.324-3.254l.025-2.781A1.535,1.535,0,0,1,1895.342,1845.363Zm-1.722,10.559a6.534,6.534,0,0,0-3.293,1.264,3.118,3.118,0,0,0-1.211,2.474,2.752,2.752,0,0,0,1.066,2.295,7.417,7.417,0,0,0,3.372,1.26Zm2.794,15.876-.055,8.32a6,6,0,0,0,3.565-1.306,3.717,3.717,0,0,0,1.243-2.908,3.292,3.292,0,0,0-1.136-2.63A7.891,7.891,0,0,0,1896.414,1871.8Z" fill="url(#linear-gradient-4)"/>
      </g>
    </g>
    <g id="Grupo_94117" data-name="Grupo 94117">
      <g id="Grupo_94116" data-name="Grupo 94116">
        <path id="Trazado_150625" data-name="Trazado 150625" d="M1912.091,1816.149a12.258,12.258,0,0,1-12.681,12.5,14.353,14.353,0,0,1-13.631-14.274,12.223,12.223,0,0,1,13.631-12.436A14.446,14.446,0,0,1,1912.091,1816.149Z" fill="url(#linear-gradient-5)"/>
        <path id="Trazado_150626" data-name="Trazado 150626" d="M1914.013,1815.535a12.257,12.257,0,0,1-12.681,12.5,14.352,14.352,0,0,1-13.631-14.274,12.223,12.223,0,0,1,13.631-12.436A14.446,14.446,0,0,1,1914.013,1815.535Z" fill="url(#linear-gradient-6)"/>
        <path id="Trazado_150627" data-name="Trazado 150627" d="M1913.455,1815.5a11.7,11.7,0,0,1-12.123,11.93,13.7,13.7,0,0,1-12.988-13.623,11.666,11.666,0,0,1,12.988-11.871A13.785,13.785,0,0,1,1913.455,1815.5Z" fill="url(#linear-gradient-7)"/>
        <path id="Trazado_150628" data-name="Trazado 150628" d="M1913.055,1815.47a11.3,11.3,0,0,1-11.723,11.522,13.233,13.233,0,0,1-12.53-13.157,11.268,11.268,0,0,1,12.53-11.467A13.313,13.313,0,0,1,1913.055,1815.47Z" fill="url(#linear-gradient-8)"/>
        <g id="Grupo_94115" data-name="Grupo 94115">
          <path id="Trazado_150629" data-name="Trazado 150629" d="M1901.265,1804.607h0a.716.716,0,0,1,.633.7v1.211a17.764,17.764,0,0,1,2.1.365q.776.181,1.541.433a.709.709,0,0,1,.482.727l-.149,1.52a.569.569,0,0,1-.813.472,8.771,8.771,0,0,0-1.033-.385,9.437,9.437,0,0,0-1.949-.364l-.178-.015v3.47a9.123,9.123,0,0,1,4.028,2.06,4.356,4.356,0,0,1,1.29,3.215,4.234,4.234,0,0,1-1.427,3.343,6.5,6.5,0,0,1-4.037,1.421v1.338a.608.608,0,0,1-.633.617h-.011a.672.672,0,0,1-.635-.671v-1.319l-.282-.012a18.488,18.488,0,0,1-2.339-.25,15.476,15.476,0,0,1-1.616-.371.7.7,0,0,1-.507-.72l.175-1.953a.618.618,0,0,1,.864-.51,12.715,12.715,0,0,0,1.421.467,12.45,12.45,0,0,0,2.272.379l.012-3.86a8.355,8.355,0,0,1-3.922-1.924,4.407,4.407,0,0,1-1.3-3.275,3.83,3.83,0,0,1,1.408-3.18,6.244,6.244,0,0,1,3.97-1.109v-1.239A.572.572,0,0,1,1901.265,1804.607Zm-.635,4.632a2.133,2.133,0,0,0-1.264.445,1.3,1.3,0,0,0-.454,1.042,1.4,1.4,0,0,0,.42,1.035,2.964,2.964,0,0,0,1.3.663Zm1.122,6.989v3.539a1.958,1.958,0,0,0,1.354-.421,1.515,1.515,0,0,0,.471-1.191,1.629,1.629,0,0,0-.438-1.165A3.21,3.21,0,0,0,1901.752,1816.228Z" fill="url(#linear-gradient-9)"/>
        </g>
        <path id="Trazado_150630" data-name="Trazado 150630" d="M1899.211,1817.082c.4-3.912,3.991-5.568,3.522-9.166-.289-2.218-1.97-4.087-3.845-5.546a11.269,11.269,0,0,0-10.086,11.465,13.233,13.233,0,0,0,12.53,13.157,11.89,11.89,0,0,0,1.937-.094C1900.562,1824.2,1898.871,1820.443,1899.211,1817.082Z" opacity="0.3" fill="url(#linear-gradient-10)" style="mix-blend-mode: multiply;isolation: isolate"/>
      </g>
    </g>
    <g id="Grupo_94120" data-name="Grupo 94120">
      <g id="Grupo_94119" data-name="Grupo 94119">
        <path id="Trazado_150631" data-name="Trazado 150631" d="M1937.645,1780.786a19.266,19.266,0,0,1-19.931,19.647c-11.637-.358-21.425-10.408-21.425-22.435a19.213,19.213,0,0,1,21.425-19.547C1928.9,1759.616,1937.645,1769.6,1937.645,1780.786Z" fill="url(#linear-gradient-5)"/>
        <path id="Trazado_150632" data-name="Trazado 150632" d="M1940.667,1779.821a19.266,19.266,0,0,1-19.931,19.647c-11.638-.357-21.425-10.408-21.425-22.435a19.211,19.211,0,0,1,21.425-19.546C1931.918,1758.651,1940.667,1768.632,1940.667,1779.821Z" fill="url(#linear-gradient-6)"/>
        <path id="Trazado_150633" data-name="Trazado 150633" d="M1939.789,1779.762a18.385,18.385,0,0,1-19.053,18.75c-11.1-.36-20.414-9.951-20.414-21.411a18.336,18.336,0,0,1,20.414-18.658A21.666,21.666,0,0,1,1939.789,1779.762Z" fill="url(#linear-gradient-7)"/>
        <path id="Trazado_150634" data-name="Trazado 150634" d="M1939.16,1779.719a17.757,17.757,0,0,1-18.424,18.11c-10.712-.36-19.694-9.624-19.694-20.679a17.71,17.71,0,0,1,19.694-18.024A20.923,20.923,0,0,1,1939.16,1779.719Z" fill="url(#linear-gradient-14)"/>
        <g id="Grupo_94118" data-name="Grupo 94118">
          <path id="Trazado_150635" data-name="Trazado 150635" d="M1920.63,1762.645h0a1.125,1.125,0,0,1,.994,1.1v1.905a27.8,27.8,0,0,1,3.3.572q1.22.287,2.421.682a1.116,1.116,0,0,1,.759,1.143l-.234,2.388a.9.9,0,0,1-1.278.742,13.706,13.706,0,0,0-1.624-.6,14.751,14.751,0,0,0-3.063-.573l-.281-.023v5.454a14.324,14.324,0,0,1,6.331,3.237,6.846,6.846,0,0,1,2.028,5.054,6.652,6.652,0,0,1-2.243,5.254,10.236,10.236,0,0,1-6.345,2.234v2.1a.957.957,0,0,1-.994.972h-.018a1.057,1.057,0,0,1-1-1.054v-2.073l-.442-.02a29.266,29.266,0,0,1-3.676-.392,24.108,24.108,0,0,1-2.54-.584,1.1,1.1,0,0,1-.8-1.132l.275-3.07a.971.971,0,0,1,1.357-.8,20.069,20.069,0,0,0,2.234.734,19.626,19.626,0,0,0,3.572.6l.017-6.066a13.144,13.144,0,0,1-6.164-3.025,6.928,6.928,0,0,1-2.041-5.147,6.016,6.016,0,0,1,2.213-5,9.819,9.819,0,0,1,6.24-1.743v-1.946A.9.9,0,0,1,1920.63,1762.645Zm-1,7.28a3.358,3.358,0,0,0-1.988.7,2.045,2.045,0,0,0-.713,1.637,2.2,2.2,0,0,0,.66,1.627,4.681,4.681,0,0,0,2.041,1.042Zm1.763,10.985v5.563a3.078,3.078,0,0,0,2.128-.661,2.382,2.382,0,0,0,.741-1.873,2.557,2.557,0,0,0-.688-1.831A5.054,5.054,0,0,0,1921.4,1780.91Z" fill="url(#linear-gradient-9)"/>
        </g>
        <path id="Trazado_150636" data-name="Trazado 150636" d="M1917.4,1782.252c.623-6.148,6.273-8.751,5.536-14.406-.455-3.486-3.1-6.423-6.044-8.717a17.712,17.712,0,0,0-15.851,18.021c0,11.055,8.982,20.319,19.694,20.679a18.515,18.515,0,0,0,3.043-.149C1919.525,1793.447,1916.867,1787.534,1917.4,1782.252Z" opacity="0.3" fill="url(#linear-gradient-16)" style="mix-blend-mode: multiply;isolation: isolate"/>
      </g>
    </g>
    <g id="Grupo_94123" data-name="Grupo 94123">
      <path id="Trazado_150637" data-name="Trazado 150637" d="M1846.892,1884.871s-3.036.887-3.359,5.469c.5-.036,1.654,0,1.654,0s-.214-3.332,1.945-3.98A6.686,6.686,0,0,1,1846.892,1884.871Z" fill="url(#linear-gradient-17)"/>
      <path id="Trazado_150638" data-name="Trazado 150638" d="M1858.033,1884.6q-.114,1.253-.228,2.5a21.459,21.459,0,0,0-11.173-.36,1.771,1.771,0,0,1-.341-.771,2.369,2.369,0,0,1,.129-1.314,20.578,20.578,0,0,1,3.1-.738A19.82,19.82,0,0,1,1858.033,1884.6Z" fill="url(#linear-gradient-18)"/>
      <path id="Trazado_150639" data-name="Trazado 150639" d="M1858.174,1885.319c-.005-.3-.03-.678-.141-.723s-.247.231-.308.383a2.258,2.258,0,0,0-.117.7,3.408,3.408,0,0,0,.056,1.125c.029.115.074.288.141.292s.1-.106.171-.317A4.385,4.385,0,0,0,1858.174,1885.319Z" fill="url(#linear-gradient-19)"/>
      <path id="Trazado_150640" data-name="Trazado 150640" d="M1860.939,1890.591c-.629.108-2.158.431-2.158.431s1-2.931-.883-4.284a2.788,2.788,0,0,1,.186-1.764C1858.882,1885.387,1860.62,1886.777,1860.939,1890.591Z" fill="url(#linear-gradient-20)"/>
      <path id="Trazado_150641" data-name="Trazado 150641" d="M1873.951,1891.363s-.077-1.539-2.7-1.539c-.413.281-.434,1.539-.434,1.539Z" fill="url(#linear-gradient-21)"/>
      <path id="Trazado_150642" data-name="Trazado 150642" d="M1876.28,1921.62l-7.18,4.057-4.35-14.9,7.168-19.972,2.033.556,3.084,28.684A1.605,1.605,0,0,1,1876.28,1921.62Z" fill="url(#linear-gradient-22)"/>
      <path id="Trazado_150643" data-name="Trazado 150643" d="M1864.75,1910.779l7.168-19.972,2.033.556a36.446,36.446,0,0,0-.854,6.231c-.48,6.8-2.076,8.692-1.3,13.436.643,3.944,2.047,4.48,1.924,7.134-.134,2.89-1.94,5.31-4.088,7.213l-.53.3Z" opacity="0.3" fill="url(#linear-gradient-23)" style="mix-blend-mode: multiply;isolation: isolate"/>
      <path id="Trazado_150644" data-name="Trazado 150644" d="M1871.918,1890.807H1832.5l-6.207,31.658,42.812,3.212Z" fill="url(#linear-gradient-24)"/>
      <g id="Grupo_94121" data-name="Grupo 94121" opacity="0.2" style="mix-blend-mode: multiply;isolation: isolate">
        <path id="Trazado_150645" data-name="Trazado 150645" d="M1832.495,1890.807h13.281a21.461,21.461,0,0,0,1.164,2.562c5.94,11.05,19.536,12.443,19.29,14.259-.367,2.714-30.644-1.139-31.417,2.591-.373,1.8,6.021,5.894,12.7,7.443,8,1.856,13.877-.483,17.787,3.686a9.51,9.51,0,0,1,2.193,4.184l-41.206-3.067Z" fill="url(#linear-gradient-25)"/>
      </g>
      <path id="Trazado_150646" data-name="Trazado 150646" d="M1871.25,1889.824a3.251,3.251,0,0,1,1.741.318,2.711,2.711,0,0,1,.383.255l-.311-.1a1.33,1.33,0,0,0-1.447.514,8.836,8.836,0,0,0-.5,2.567c-.2,1.877-1.407,13.552-1.407,13.552a1.841,1.841,0,0,1-1.838,1.711l-36.671-1.78a1.378,1.378,0,0,1-.783-.251,1.492,1.492,0,0,1-.585-1.5l1.858-13.906a1.664,1.664,0,0,1,1.611-1.373Z" fill="url(#linear-gradient-26)"/>
      <path id="Trazado_150647" data-name="Trazado 150647" d="M1870.858,1889.824a5.817,5.817,0,0,1,1.558.091,1.688,1.688,0,0,1,.523.2s-1.245-.277-1.716.692a10.086,10.086,0,0,0-.5,2.567c-.2,1.877-1.406,13.552-1.406,13.552a1.842,1.842,0,0,1-1.838,1.711l-37.085-.744a1.4,1.4,0,0,1-.783-.251,1.492,1.492,0,0,1-.585-1.5l2.271-14.942a1.665,1.665,0,0,1,1.612-1.373Z" fill="url(#linear-gradient-27)"/>
      <path id="Trazado_150648" data-name="Trazado 150648" d="M1829.026,1906.139l2.271-14.942a1.665,1.665,0,0,1,1.612-1.373h37.949a5.817,5.817,0,0,1,1.558.091,1.688,1.688,0,0,1,.523.2s-1.245-.277-1.716.692a2.353,2.353,0,0,0-.125.33c-3.6.133-7.208.037-10.812.254-7.124.418-14.328.418-21.052,3.094-2.151.856-3.626,3.932-3.042,5.352.42,1.025,1.856.943,2.357,2.288.527,1.413-.736,2.374-.206,3.366.555,1.04,2.242.545,4.973,1.287a13.516,13.516,0,0,1,3.379,1.442l-16.3-.327a1.4,1.4,0,0,1-.783-.251A1.492,1.492,0,0,1,1829.026,1906.139Z" opacity="0.1" fill="url(#linear-gradient-28)" style="mix-blend-mode: multiply;isolation: isolate"/>
      <g id="Grupo_94122" data-name="Grupo 94122">
        <path id="Trazado_150649" data-name="Trazado 150649" d="M1846.773,1910.675l4.644,1.039.49.037a.893.893,0,0,0,.941-.882l.2-4.945a.9.9,0,0,0-.865-.964l-.493-.007-4.668.552c-.446-.006-.821-.227-.841.264l-.192,4.637C1845.973,1910.9,1846.329,1910.641,1846.773,1910.675Z" fill="url(#linear-gradient-29)"/>
        <path id="Trazado_150650" data-name="Trazado 150650" d="M1846.42,1911.36l5.145.391a.894.894,0,0,0,.941-.882l.2-4.945a.9.9,0,0,0-.865-.964l-5.158-.072a.884.884,0,0,0-.845.881l-.191,4.637A.892.892,0,0,0,1846.42,1911.36Z" fill="url(#linear-gradient-30)"/>
      </g>
    </g>
    <g id="Grupo_94140" data-name="Grupo 94140">
      <path id="Trazado_150651" data-name="Trazado 150651" d="M1793.185,1922.212a17.39,17.39,0,0,0-.39,2.177c-.012.579,6.087,1.386,6.182.959s-.926-1.2-1.663-1.508-2.9-1.138-2.9-1.138Z" fill="url(#linear-gradient-31)"/>
      <path id="Trazado_150652" data-name="Trazado 150652" d="M1794.794,1920.722l-.349,2a1.345,1.345,0,0,1-1.346,0l-.146-2.218Z" fill="url(#linear-gradient-32)"/>
      <path id="Trazado_150653" data-name="Trazado 150653" d="M1782.061,1923.922a17.435,17.435,0,0,0-.389,2.177c-.012.579,6.087,1.386,6.182.96s-.926-1.2-1.663-1.509-2.9-1.137-2.9-1.137Z" fill="url(#linear-gradient-33)"/>
      <path id="Trazado_150654" data-name="Trazado 150654" d="M1783.671,1922.432l-.35,2a1.343,1.343,0,0,1-1.346,0l-.145-2.217Z" fill="url(#linear-gradient-34)"/>
      <path id="Trazado_150655" data-name="Trazado 150655" d="M1797.716,1868.065q.888,2.337,1.778,4.673c-.087,8.6-.518,17.924-1.462,27.854-.7,7.388-1.619,14.366-2.668,20.9l-2.868-.378a31.285,31.285,0,0,1-2.208-12.88c.273-5.624,1.959-6.233,2.268-11.614.4-6.974-2.253-9.066-3.1-17.567a46.975,46.975,0,0,1,.459-12.5Z" fill="url(#linear-gradient-35)"/>
      <path id="Trazado_150656" data-name="Trazado 150656" d="M1789.916,1866.549l4.212.819c2.194,4.847,2.535,9.729,1.924,11.825-.864,2.966-2.612,3.792-2.753,6.83-.139,3.007,1.493,3.926,2.3,7.55.555,2.509.186,4.742-.574,9.106-1.531,8.792-3.787,11.331-2.294,14.38a6.415,6.415,0,0,0,2.891,2.818c-.084.54-.167,1.082-.253,1.615l-2.868-.378a31.285,31.285,0,0,1-2.208-12.88c.273-5.624,1.959-6.233,2.268-11.614.4-6.974-2.253-9.066-3.1-17.566A46.981,46.981,0,0,1,1789.916,1866.549Z" opacity="0.3" fill="url(#linear-gradient-36)" style="mix-blend-mode: multiply;isolation: isolate"/>
      <path id="Trazado_150657" data-name="Trazado 150657" d="M1793.7,1870.444c-1.909,7.456-3.7,15.456-5.278,23.967-1.9,10.278-3.24,20-4.168,29.062l-3.167-.171c-3.491-8.923-3.3-14.758-2.41-18.494a57.112,57.112,0,0,0,1.659-8.509,63.4,63.4,0,0,0,.3-8c-.04-6.018-.545-7.374-.281-11.953.247-4.3.4-6.469,1.667-7.638C1785.371,1865.628,1793.115,1870.1,1793.7,1870.444Z" fill="url(#linear-gradient-37)"/>
      <path id="Trazado_150658" data-name="Trazado 150658" d="M1824.345,1853.124s2.319-.208,2.654-.6a4.086,4.086,0,0,0,.9-1.381c.051-.36.5.178.092.958s.747.616.926.6a8.267,8.267,0,0,1,1.946.01c-.046.1.187.553-.933,1.083a6.4,6.4,0,0,1-2.786.194l-.637.032-1.691.135Z" fill="url(#linear-gradient-38)"/>
      <path id="Trazado_150659" data-name="Trazado 150659" d="M1825.7,1851.992l.306,2.422a17.052,17.052,0,0,1-9.655,4.289c-8.327.678-16.586-5.76-18.123-13-.762-3.586-.14-8.618,1.994-9.427.592-.225,1.482-.193,3.316,1.094,4.9,3.435,5.312,7.947,8.016,11C1813.505,1850.563,1817.331,1852.788,1825.7,1851.992Z" fill="url(#linear-gradient-39)"/>
      <path id="Trazado_150660" data-name="Trazado 150660" d="M1803.392,1857.144a27.775,27.775,0,0,1-1.953,5.22v0a9.616,9.616,0,0,0-1.146,3.264,10.185,10.185,0,0,0-.141,1.914,20.938,20.938,0,0,0,.352,3.344c.228,1.4.367,2.452-.322,3.452-.854,1.243-2.369,1.528-5.856,1.754-8.89.575-13.335.863-14.6-1.557-.522-1.005-.2-1.791.425-4.912.649-3.25,1.649-8.261,1.559-11.581a11.747,11.747,0,0,0-1.6-5.744c-1.678-2.944-4.005-4.7-3.453-8.336.817-5.368,6.905-8.194,7.2-8.326,2-.894,4.58-.819,9.742-.671,4.176.123,6.294.2,7.767,1.276,2.856,2.077,3.413,5.93,3.742,8.2C1805.8,1849.182,1804.622,1853.082,1803.392,1857.144Z" fill="url(#linear-gradient-40)"/>
      <path id="Trazado_150661" data-name="Trazado 150661" d="M1788.023,1857.384c-.481,1.4-1.9,2.354-3.1,5.752-.258.734-2.1,5.959-.344,7.43,1.014.849,2.086-.51,4.7-.48,4.533.052,6.378,4.19,9.406,3.356a4.039,4.039,0,0,0,1.974-1.351,3.226,3.226,0,0,1-.483,2.249c-.853,1.242-2.369,1.528-5.856,1.754-8.89.575-13.335.863-14.594-1.558-.523-1-.2-1.79.424-4.911.649-3.25,1.649-8.261,1.558-11.582-.2-7.4-5.877-8.615-5.047-14.079a8.74,8.74,0,0,1,1.62-3.808C1785.322,1843.839,1789.536,1852.991,1788.023,1857.384Z" fill="url(#linear-gradient-41)"/>
      <path id="Trazado_150662" data-name="Trazado 150662" d="M1798.859,1836.162c0-.328-1.147-.469-2.053-.905-1.146-.552-1.643-3.02-1.351-4.1s-1.7-1.631-1.7-1.631a12.716,12.716,0,0,1-.95,3.443c-.642,1.31-3.534,1.979-4.13,2.233-.1.042-.133.237-.122.237h-.007s0-.049.008-.042c.017.089.1.168.227.283a13.655,13.655,0,0,0,6.263,4.034c2.293-1.508,3.864-2.672,3.819-3.543Z" fill="url(#linear-gradient-42)"/>
      <path id="Trazado_150663" data-name="Trazado 150663" d="M1796.423,1829.022c.925-.809,1.053-.9,1.17-1.2a2.991,2.991,0,0,0-1.469-3.452c-.06-.026-.837-.36-1.17-.024-.282.286.066.742-.16,1.319-.212.54-.675.543-1.583,1.2-.748.54-1.213.875-1.354,1.39a2.549,2.549,0,0,0,1.95,2.78C1794.207,1831.053,1794.331,1830.85,1796.423,1829.022Z" fill="url(#linear-gradient-43)"/>
      <g id="Grupo_94124" data-name="Grupo 94124">
        <path id="Trazado_150664" data-name="Trazado 150664" d="M1793.9,1831.211a2.407,2.407,0,0,0,2.246.915c1.269-.216,1.18-3.225.306-3.778a1.556,1.556,0,0,0-1.275-.043c-.255.1-.333.226-.752.385-.387.148-.5.113-.613.23-.137.147-.217.481.113,1.33a.676.676,0,0,0-.766-.18.448.448,0,0,0-.154.19C1792.861,1830.62,1793.2,1831.026,1793.9,1831.211Z" fill="url(#linear-gradient-44)"/>
      </g>
      <g id="Grupo_94135" data-name="Grupo 94135">
        <g id="Grupo_94129" data-name="Grupo 94129">
          <path id="Trazado_150665" data-name="Trazado 150665" d="M1898.641,1845.912l-9.192,42.046c-24.463-19.445-57.75,1.473-82.214-17.973l9.192-42.045C1840.89,1847.385,1874.177,1826.467,1898.641,1845.912Z" fill="url(#linear-gradient-45)"/>
          <path id="Trazado_150666" data-name="Trazado 150666" d="M1887.3,1882.778c-23.2-15.233-53.353,1.361-76.551-13.873q3.912-17.892,7.823-35.785c23.2,15.233,53.353-1.361,76.551,13.873Q1891.213,1864.885,1887.3,1882.778Z" fill="url(#linear-gradient-46)"/>
          <g id="Grupo_94127" data-name="Grupo 94127">
            <g id="Grupo_94125" data-name="Grupo 94125">
              <path id="Trazado_150667" data-name="Trazado 150667" d="M1824.444,1835.731c-.034.158-.071.3-.115.449l-.012.038a5.278,5.278,0,0,1-3.021,3.519,4.77,4.77,0,0,1-4.094-.341,6.9,6.9,0,0,1-.626-.385,8.981,8.981,0,0,1-2.112-2.091q.981-4.491,1.963-8.98a37.93,37.93,0,0,0,8.079,4.929A7.322,7.322,0,0,1,1824.444,1835.731Z" fill="url(#linear-gradient-47)"/>
              <path id="Trazado_150668" data-name="Trazado 150668" d="M1816.439,1872.352a6.564,6.564,0,0,1-1.168,2.543,37.944,37.944,0,0,1-8.036-4.91q1.005-4.593,2.009-9.188a9.369,9.369,0,0,1,2.311,1.18c.208.143.413.293.613.449,2.98,2.333,4.914,6.082,4.344,9.542l-.007.041C1816.487,1872.122,1816.463,1872.242,1816.439,1872.352Z" fill="url(#linear-gradient-48)"/>
            </g>
            <g id="Grupo_94126" data-name="Grupo 94126">
              <path id="Trazado_150669" data-name="Trazado 150669" d="M1898.641,1845.912l-1.963,8.98a9.341,9.341,0,0,1-2.311-1.18q-.313-.215-.613-.449c-2.949-2.31-4.878-5.991-4.363-9.423.023-.16.046-.293.081-.45a5.759,5.759,0,0,1,1.09-2.407A38.018,38.018,0,0,1,1898.641,1845.912Z" fill="url(#linear-gradient-49)"/>
              <path id="Trazado_150670" data-name="Trazado 150670" d="M1891.458,1878.77q-1.005,4.594-2.009,9.188a38,38,0,0,0-8.035-4.91,8.384,8.384,0,0,1,.052-3.038c.024-.109.052-.227.082-.335l.011-.039a5.427,5.427,0,0,1,2.737-3.521,4.718,4.718,0,0,1,4.421.191,6.732,6.732,0,0,1,.628.379A8.956,8.956,0,0,1,1891.458,1878.77Z" fill="url(#linear-gradient-50)"/>
            </g>
          </g>
          <path id="Trazado_150671" data-name="Trazado 150671" d="M1865.754,1857.833c-1.468,6.712-8.356,12.027-15.473,12.271s-11.616-5.372-10.136-12.143c1.468-6.712,8.356-12.028,15.473-12.271S1867.234,1851.061,1865.754,1857.833Z" fill="url(#linear-gradient-51)"/>
          <g id="Grupo_94128" data-name="Grupo 94128">
            <path id="Trazado_150672" data-name="Trazado 150672" d="M1857.15,1857.912a5.907,5.907,0,0,0-3.288-1.687l.652-2.985.186.008a7.818,7.818,0,0,1,1.709.269,6.64,6.64,0,0,1,.87.31.651.651,0,0,0,.829-.421l.423-1.309a.471.471,0,0,0-.3-.617c-.43-.136-.893-.249-1.339-.343a14.376,14.376,0,0,0-1.86-.265l.228-1.044a.457.457,0,0,0-.416-.59.651.651,0,0,0-.661.517l-.233,1.065a7.14,7.14,0,0,0-3.8,1.037,4.287,4.287,0,0,0-1.872,2.758,3.057,3.057,0,0,0,.559,2.8,5.775,5.775,0,0,0,3.191,1.575l-.735,3.321a10.407,10.407,0,0,1-1.988-.277,9.385,9.385,0,0,1-1.2-.374.7.7,0,0,0-.877.452l-.525,1.684a.464.464,0,0,0,.323.612,12.005,12.005,0,0,0,1.394.29,16.405,16.405,0,0,0,2.087.163l.268,0-.248,1.135a.423.423,0,0,0,.419.562h.01a.7.7,0,0,0,.66-.544l.252-1.151a8.514,8.514,0,0,0,2.931-.719,5.955,5.955,0,0,0,1.016-.589,4.7,4.7,0,0,0,1.911-2.9A3.022,3.022,0,0,0,1857.15,1857.912Zm-4.053,1.312a2.333,2.333,0,0,1,1.128.625,1.13,1.13,0,0,1,.186.991,1.7,1.7,0,0,1-.662,1.037,2.246,2.246,0,0,1-1.318.393Zm-1.326-3.788a.962.962,0,0,1-.185-.881,1.463,1.463,0,0,1,.606-.906,2.651,2.651,0,0,1,1.23-.412l-.6,2.74A1.969,1.969,0,0,1,1851.771,1855.436Z" fill="url(#linear-gradient-52)"/>
          </g>
          <path id="Trazado_150673" data-name="Trazado 150673" d="M1889.479,1887.822l-.03.136c-24.463-19.445-57.75,1.473-82.214-17.973q4.5-20.577,9-41.156a41.5,41.5,0,0,1,2.55,4.427,38.847,38.847,0,0,1,2.513,6.481,46.885,46.885,0,0,1,1.662,9.491c1.361,18.043,8.845,19.566,19.1,17.52,2.731-.517,5.652-1.255,8.682-1.885,1.333-.277,2.7-.52,4.07-.718a48.546,48.546,0,0,1,8.123-.521c9.1.077,17.354,4.195,21.363,12.491a25.823,25.823,0,0,1,1.825,4.834,13.38,13.38,0,0,0,.451,1.362A35.678,35.678,0,0,0,1889.479,1887.822Z" opacity="0.2" fill="url(#linear-gradient-53)" style="mix-blend-mode: multiply;isolation: isolate"/>
        </g>
        <g id="Grupo_94134" data-name="Grupo 94134">
          <path id="Trazado_150674" data-name="Trazado 150674" d="M1897.239,1843.234l-9.192,42.046c-24.463-19.446-57.75,1.472-82.213-17.973q4.594-21.023,9.191-42.046C1839.488,1844.707,1872.775,1823.788,1897.239,1843.234Z" fill="url(#linear-gradient-54)"/>
          <path id="Trazado_150675" data-name="Trazado 150675" d="M1885.9,1880.1c-23.2-15.234-53.353,1.36-76.551-13.873q3.912-17.894,7.823-35.786c23.2,15.234,53.353-1.361,76.551,13.873Q1889.811,1862.208,1885.9,1880.1Z" fill="#fff"/>
          <g id="Grupo_94132" data-name="Grupo 94132">
            <g id="Grupo_94130" data-name="Grupo 94130">
              <path id="Trazado_150676" data-name="Trazado 150676" d="M1823.042,1833.052c-.034.158-.071.3-.115.449l-.012.039a5.282,5.282,0,0,1-3.021,3.519,4.773,4.773,0,0,1-4.094-.341,6.93,6.93,0,0,1-.626-.386,8.964,8.964,0,0,1-2.112-2.091l1.963-8.98a37.977,37.977,0,0,0,8.079,4.93A7.317,7.317,0,0,1,1823.042,1833.052Z" fill="url(#linear-gradient-55)"/>
              <path id="Trazado_150677" data-name="Trazado 150677" d="M1815.037,1869.673a6.576,6.576,0,0,1-1.168,2.544,37.954,37.954,0,0,1-8.035-4.91q1-4.594,2.008-9.189a9.378,9.378,0,0,1,2.311,1.181c.208.142.413.293.613.449,2.98,2.333,4.915,6.081,4.344,9.542l-.007.04C1815.085,1869.444,1815.061,1869.563,1815.037,1869.673Z" fill="url(#linear-gradient-56)"/>
            </g>
            <g id="Grupo_94131" data-name="Grupo 94131">
              <path id="Trazado_150678" data-name="Trazado 150678" d="M1897.239,1843.234q-.983,4.49-1.963,8.98a9.339,9.339,0,0,1-2.311-1.181q-.313-.213-.613-.449c-2.949-2.309-4.878-5.991-4.363-9.422.023-.161.046-.293.081-.451a5.761,5.761,0,0,1,1.09-2.407A38.032,38.032,0,0,1,1897.239,1843.234Z" fill="url(#linear-gradient-57)"/>
              <path id="Trazado_150679" data-name="Trazado 150679" d="M1890.056,1876.091q-1.005,4.595-2.009,9.189a38,38,0,0,0-8.035-4.91,8.383,8.383,0,0,1,.052-3.038c.024-.11.052-.228.082-.336l.011-.039a5.43,5.43,0,0,1,2.737-3.521,4.718,4.718,0,0,1,4.421.191,6.991,6.991,0,0,1,.628.379A8.96,8.96,0,0,1,1890.056,1876.091Z" fill="url(#linear-gradient-58)"/>
            </g>
          </g>
          <path id="Trazado_150680" data-name="Trazado 150680" d="M1864.352,1855.154c-1.468,6.712-8.356,12.028-15.473,12.271s-11.616-5.371-10.136-12.143c1.468-6.712,8.356-12.027,15.473-12.271S1865.832,1848.383,1864.352,1855.154Z" fill="url(#linear-gradient-59)"/>
          <g id="Grupo_94133" data-name="Grupo 94133">
            <path id="Trazado_150681" data-name="Trazado 150681" d="M1855.748,1855.233a5.914,5.914,0,0,0-3.288-1.687l.652-2.985.186.008a7.815,7.815,0,0,1,1.709.27,6.548,6.548,0,0,1,.871.31.651.651,0,0,0,.828-.421l.423-1.31a.471.471,0,0,0-.3-.617c-.43-.135-.893-.249-1.339-.342a14.351,14.351,0,0,0-1.86-.266l.228-1.043a.456.456,0,0,0-.416-.59.651.651,0,0,0-.661.517l-.233,1.065a7.132,7.132,0,0,0-3.8,1.036,4.288,4.288,0,0,0-1.872,2.759,3.056,3.056,0,0,0,.559,2.8,5.775,5.775,0,0,0,3.192,1.574q-.369,1.661-.736,3.321a10.416,10.416,0,0,1-1.988-.276,9.388,9.388,0,0,1-1.2-.375.7.7,0,0,0-.877.453l-.525,1.683a.464.464,0,0,0,.323.612,12.048,12.048,0,0,0,1.394.29,16.4,16.4,0,0,0,2.087.164l.268,0-.248,1.136a.423.423,0,0,0,.419.562h.01a.7.7,0,0,0,.66-.543l.252-1.151a8.563,8.563,0,0,0,2.931-.719,6.083,6.083,0,0,0,1.016-.589,4.708,4.708,0,0,0,1.911-2.9A3.022,3.022,0,0,0,1855.748,1855.233Zm-4.053,1.313a2.334,2.334,0,0,1,1.128.624,1.132,1.132,0,0,1,.186.992,1.7,1.7,0,0,1-.662,1.036,2.245,2.245,0,0,1-1.318.393Zm-1.326-3.788a.962.962,0,0,1-.185-.881,1.461,1.461,0,0,1,.606-.906,2.664,2.664,0,0,1,1.23-.413l-.6,2.741A1.981,1.981,0,0,1,1850.369,1852.758Z" fill="#fff"/>
          </g>
          <path id="Trazado_150682" data-name="Trazado 150682" d="M1888.077,1885.143l-.03.137c-24.463-19.446-57.75,1.472-82.213-17.973l9-41.157a41.485,41.485,0,0,1,2.55,4.427,38.824,38.824,0,0,1,2.513,6.482,46.874,46.874,0,0,1,1.662,9.491c1.361,18.043,8.845,19.566,19.1,17.52,2.731-.518,5.652-1.255,8.682-1.886,1.333-.276,2.695-.52,4.07-.718a48.456,48.456,0,0,1,8.123-.52c9.1.077,17.354,4.195,21.363,12.49a25.831,25.831,0,0,1,1.825,4.834,13.532,13.532,0,0,0,.451,1.362A35.624,35.624,0,0,0,1888.077,1885.143Z" opacity="0.2" fill="url(#linear-gradient-60)" style="mix-blend-mode: multiply;isolation: isolate"/>
        </g>
      </g>
      <g id="Grupo_94138" data-name="Grupo 94138">
        <path id="Trazado_150683" data-name="Trazado 150683" d="M1918.045,1932.856c.083-.459,1.567-.875,2.3-.26.365.306.616.925.405,1.205-.077.1.238.28-.064.284C1919.688,1934.1,1917.962,1933.312,1918.045,1932.856Z" fill="url(#linear-gradient-61)"/>
        <path id="Trazado_150684" data-name="Trazado 150684" d="M1919.667,1932.858l1.539.077c-.533-.969.108-3.605.108-3.605l-1.662.049s.041.765.142,1.9A7.163,7.163,0,0,1,1919.667,1932.858Z" fill="url(#linear-gradient-62)"/>
        <path id="Trazado_150685" data-name="Trazado 150685" d="M1919.464,1932.835s1.837-.423,2.036-.059.353,1.34-.813,1.309S1919.361,1933.144,1919.464,1932.835Z" fill="url(#linear-gradient-63)"/>
        <path id="Trazado_150686" data-name="Trazado 150686" d="M1898.567,1936.188c.146-.443,1.673-.648,2.315.064.318.354.48,1,.232,1.249-.09.091.2.312-.1.273C1900.02,1937.646,1898.421,1936.628,1898.567,1936.188Z" fill="url(#linear-gradient-64)"/>
        <path id="Trazado_150687" data-name="Trazado 150687" d="M1900.371,1936.614l1.512.3c-.389-1.036.624-3.553.624-3.553l-1.652-.19s-.069.764-.132,1.9A7.187,7.187,0,0,1,1900.371,1936.614Z" fill="url(#linear-gradient-65)"/>
        <path id="Trazado_150688" data-name="Trazado 150688" d="M1899.975,1936.366s1.878-.162,2.023.226.162,1.376-.987,1.182S1899.829,1936.657,1899.975,1936.366Z" fill="url(#linear-gradient-66)"/>
        <path id="Trazado_150689" data-name="Trazado 150689" d="M1913.865,1883.4q.617,10.56,1.765,21.938c.9,8.777,1.992,17.164,3.218,25.135a4.743,4.743,0,0,0,2.907,0s1.766-2.894,3.115-10.583c.865-4.935.924-4.872.934-5.733.049-4.342-1.475-5.6-1.765-9.481-.269-3.591.874-4.666,1.557-8.709a30.612,30.612,0,0,0-.934-13.56Z" fill="url(#linear-gradient-67)"/>
        <path id="Trazado_150690" data-name="Trazado 150690" d="M1913.865,1883.4q.617,10.56,1.765,21.938c.9,8.777,1.992,17.164,3.218,25.135a4.743,4.743,0,0,0,2.907,0c-.019-.738-.071-1.85-.225-3.193-.408-3.562-1.06-4.575-1.127-6.761-.085-2.8.927-2.882,1.127-5.635.311-4.267-2.032-5.279-2.254-9.015-.233-3.948,2.239-5.247,4.132-10.142a26.03,26.03,0,0,0,1.254-13.32Z" opacity="0.3" fill="url(#linear-gradient-68)" style="mix-blend-mode: multiply;isolation: isolate"/>
        <path id="Trazado_150691" data-name="Trazado 150691" d="M1906.286,1883.18a148.107,148.107,0,0,0-5.814,51.262l1.972.552a20.491,20.491,0,0,0,5.71-10.363c.772-3.973-.391-5.32.623-9.812.234-1.033.562-2.143,4.361-9.591,3.626-7.108,4.369-8.14,4.983-10.693a23.376,23.376,0,0,0,.312-9.04Z" fill="url(#linear-gradient-69)"/>
        <path id="Trazado_150692" data-name="Trazado 150692" d="M1875.238,1861.53l-1.474-1.036-2.159-.523a1.857,1.857,0,0,1-.793-.412,11.888,11.888,0,0,1-.719-2.435c.089-.337,2.841.776,2.862,1.1s1.686,1.326,1.678,1.63l.929.712Z" fill="url(#linear-gradient-70)"/>
        <path id="Trazado_150693" data-name="Trazado 150693" d="M1896.423,1851.807a10.126,10.126,0,0,1,4.127-4.438c2.551-1.672,4.185-1.367,10.044-2.258,7.809-1.188,8.744-2.314,11.369-1.4,3.447,1.2,5.248,4.328,6.073,5.762,4.16,7.23-.7,10.905.545,25.307.51,5.881,1.818,10.992-1.324,14.015a9.443,9.443,0,0,1-2.881,1.635,26.735,26.735,0,0,1-14.327,1.869c-3.518-.348-5.3-.548-6.229-1.791-1.49-1.985.044-4.509.311-8.876.193-3.136-.52-5.621-1.946-10.59C1898.87,1859.487,1894.566,1856.346,1896.423,1851.807Z" fill="url(#linear-gradient-71)"/>
        <g id="Grupo_94137" data-name="Grupo 94137">
          <g id="Grupo_94136" data-name="Grupo 94136">
            <path id="Trazado_150694" data-name="Trazado 150694" d="M1909.494,1840.849a3.753,3.753,0,0,1,.4-2.692c.573-1.058.72-1.2.994-1.386l.38-.235.046-.017a4.392,4.392,0,0,1,1.244-.076c.539.115,1.112,2.308.949,5.41.022.118.043.237.064.357.085.49.152.97.205,1.44.049.449.686.438,1.137.41,1.83-.117,2.725.038,2.8.311.146.511-2.025,2.18-4.7,2.556-3.6.027-6.522-.356-6.208-.923.14-.251,2.927-.979,3.71-1.7a2.4,2.4,0,0,0,.719-1.832C1911.017,1842.358,1909.756,1841.782,1909.494,1840.849Z" fill="url(#linear-gradient-72)"/>
            <path id="Trazado_150695" data-name="Trazado 150695" d="M1910.155,1835.655a3.612,3.612,0,0,0,.687,2.152,1.607,1.607,0,0,1,.348.38.5.5,0,0,1,.055.114c.21.6-.753,1.318-.567,1.589.135.2.789-.067.867.1s-.47.491-.387.682c.063.145.4.013.608.234.106.11.075.2.186.535a2.971,2.971,0,0,0,.22.515c.332.564,1.272.77,1.453.545.051-.063.007-.116.059-.327a1.7,1.7,0,0,1,.184-.422,4.362,4.362,0,0,1,1.138-.9,3.109,3.109,0,0,0,1.187-1.352c.026-.065.042-.114.053-.149a3.577,3.577,0,0,0-.089-2.389c-.534-1.071-1.737-.562-2.722-1.624-1.136-1.225-.459-2.9-1.076-3.085C1911.68,1832.056,1910.149,1833.878,1910.155,1835.655Z" fill="#26264f"/>
            <path id="Trazado_150696" data-name="Trazado 150696" d="M1911.024,1839.664c.235-.324.649-.02.651.4s-.4.854-.8.771S1910.707,1840.1,1911.024,1839.664Z" fill="url(#linear-gradient-73)"/>
          </g>
          <path id="Trazado_150697" data-name="Trazado 150697" d="M1911.215,1838.964l-.547.71s-.589.871-.932.394c-.281-.39-.354-.381-.371-.365l-.005.008c-.005,0,.041-.194.082-.364a3.2,3.2,0,0,0-.467,1,1.772,1.772,0,0,0,.006,1.371,1.36,1.36,0,0,0,.8.628,3.6,3.6,0,0,0,1.055-.1s-.933-.677-.947-.837c-.039-.438.568-.674,1.018-1.57A3.632,3.632,0,0,0,1911.215,1838.964Z" fill="#26264f"/>
        </g>
        <path id="Trazado_150698" data-name="Trazado 150698" d="M1913.086,1888.17c-1.035-2.061,1.5-4.8-.156-7.942-1.407-2.668-3.963-2.071-5.139-4.516-1.42-2.954,1.668-5.162,1.557-9.655-.132-5.373-4.754-10.75-7.475-10.279-1.76.305-1.986,2.931-3.224,5.806a65.375,65.375,0,0,1,3.536,9.456c1.426,4.969,2.139,7.454,1.946,10.59-.267,4.367-1.8,6.891-.311,8.876.933,1.243,2.711,1.443,6.229,1.791a26.735,26.735,0,0,0,14.327-1.869c.743-.334,1.3-.584,1.753-.831C1916.961,1890.974,1913.907,1889.805,1913.086,1888.17Z" opacity="0.1" fill="url(#linear-gradient-74)" style="mix-blend-mode: multiply;isolation: isolate"/>
        <path id="Trazado_150699" data-name="Trazado 150699" d="M1874.356,1861.536l1.128-1.46c9.459,2.828,13.655,1.467,15.709-.484a22.13,22.13,0,0,0,2.972-4.125c2.433-3.9,3.078-6.472,5.762-7.631a2.609,2.609,0,0,1,1.713-.35c2.595.634,3.453,7.4,2.725,12.458-.4,2.792-1.317,8.434-5.8,11.1-6.239,3.7-14.5-1.307-16.865-2.74A25.66,25.66,0,0,1,1874.356,1861.536Z" fill="url(#linear-gradient-75)"/>
      </g>
      <path id="Trazado_150700" data-name="Trazado 150700" d="M1805.834,1860.6s.267.261.441-.754,1.392-.87,1.392-.87l-.175.744s3.211-1.338,3.259-.751a3.4,3.4,0,0,1-1.667,2.557,10.637,10.637,0,0,1-3.1.524Z" fill="url(#linear-gradient-76)"/>
      <path id="Trazado_150701" data-name="Trazado 150701" d="M1791.811,1872.217c3.014.654,6.487-.68,8.693-1.329.228,1.4.367,2.452-.322,3.452-.854,1.243-2.369,1.528-5.856,1.754-8.89.575-13.335.863-14.6-1.557-.522-1.005-.2-1.791.425-4.912.649-3.25,1.649-8.261,1.559-11.581a11.747,11.747,0,0,0-1.6-5.744c1.992-2.645,4.832-3.942,8.516.29,0,0,5.308,6.018,9.285,6.234a3.409,3.409,0,0,1,3.519,3.54v0a8.678,8.678,0,0,1-1.146,3.264,10.419,10.419,0,0,1-1.431,1.689C1794.82,1871.217,1787.146,1871.2,1791.811,1872.217Z" opacity="0.4" fill="url(#linear-gradient-77)" style="mix-blend-mode: multiply;isolation: isolate"/>
      <g id="Grupo_94139" data-name="Grupo 94139">
        <path id="Trazado_150702" data-name="Trazado 150702" d="M1793.236,1838.97s.674,2.185,1.239,2.223a9.74,9.74,0,0,1,.979.113l.851-2.449c-.227.07-.7.223-.966.274A8.237,8.237,0,0,1,1793.236,1838.97Z" fill="url(#linear-gradient-78)"/>
        <path id="Trazado_150703" data-name="Trazado 150703" d="M1794.206,1841.032s-1.257,14.114-5.663,16.373c.113.452,0,4.124,0,4.124s4.108-1.237,4.342-1.155,4.974-7.776,2.569-19.068Z" fill="url(#linear-gradient-79)"/>
      </g>
      <path id="Trazado_150704" data-name="Trazado 150704" d="M1781.828,1836.842s4.563-1.7,5.955,7.347,1.321,15.389,5.919,15.621,12.132,0,12.132,0l.354,3.171s-21.112,8.816-23.9,1.315S1770.855,1840.713,1781.828,1836.842Z" fill="url(#linear-gradient-80)"/>
    </g>
  </g>
</svg>
