<svg xmlns="http://www.w3.org/2000/svg" width="54.616" height="54.424" viewBox="0 0 54.616 54.424">
  <g id="Grupo_85760" data-name="Grupo 85760" transform="translate(-1718.148 -2527.31)">
    <g id="Grupo_83750" data-name="Grupo 83750" transform="translate(1718.148 2557.471)">
      <path id="Trazado_113304" data-name="Trazado 113304" d="M1769.536,2563.678h-48.161a3.227,3.227,0,0,1,0-6.453h48.161a3.227,3.227,0,1,1,0,6.453Zm-48.161-5.731a2.5,2.5,0,1,0,0,5.009h48.161a2.5,2.5,0,1,0,0-5.009Z" transform="translate(-1718.148 -2557.224)" fill="#f57c22"/>
    </g>
    <g id="Grupo_83751" data-name="Grupo 83751" transform="translate(1718.148 2566.7)">
      <path id="Trazado_113305" data-name="Trazado 113305" d="M1769.536,2572.832h-48.161a3.227,3.227,0,0,1,0-6.454h48.161a3.227,3.227,0,1,1,0,6.454Zm-48.161-5.731a2.5,2.5,0,1,0,0,5.008h48.161a2.5,2.5,0,1,0,0-5.008Z" transform="translate(-1718.148 -2566.378)" fill="#f57c22"/>
    </g>
    <g id="Grupo_83752" data-name="Grupo 83752" transform="translate(1728.35 2569.172)">
      <path id="Trazado_113306" data-name="Trazado 113306" d="M1730.284,2569.838a1.009,1.009,0,1,1-1.009-1.008A1.009,1.009,0,0,1,1730.284,2569.838Z" transform="translate(-1728.267 -2568.83)" fill="#f57c22"/>
    </g>
    <g id="Grupo_83753" data-name="Grupo 83753" transform="translate(1731.809 2569.172)">
      <path id="Trazado_113307" data-name="Trazado 113307" d="M1733.715,2569.838a1.009,1.009,0,1,1-1.009-1.008A1.009,1.009,0,0,1,1733.715,2569.838Z" transform="translate(-1731.697 -2568.83)" fill="#f57c22"/>
    </g>
    <g id="Grupo_83754" data-name="Grupo 83754" transform="translate(1735.268 2569.172)">
      <path id="Trazado_113308" data-name="Trazado 113308" d="M1737.145,2569.838a1.009,1.009,0,1,1-1.008-1.008A1.009,1.009,0,0,1,1737.145,2569.838Z" transform="translate(-1735.128 -2568.83)" fill="#f57c22"/>
    </g>
    <g id="Grupo_83755" data-name="Grupo 83755" transform="translate(1738.727 2569.172)">
      <path id="Trazado_113309" data-name="Trazado 113309" d="M1740.576,2569.838a1.009,1.009,0,1,1-1.009-1.008A1.009,1.009,0,0,1,1740.576,2569.838Z" transform="translate(-1738.559 -2568.83)" fill="#f57c22"/>
    </g>
    <g id="Grupo_83756" data-name="Grupo 83756" transform="translate(1742.185 2569.172)">
      <path id="Trazado_113310" data-name="Trazado 113310" d="M1744.006,2569.838a1.009,1.009,0,1,1-1.008-1.008A1.009,1.009,0,0,1,1744.006,2569.838Z" transform="translate(-1741.989 -2568.83)" fill="#f57c22"/>
    </g>
    <g id="Grupo_83757" data-name="Grupo 83757" transform="translate(1745.645 2569.172)">
      <path id="Trazado_113311" data-name="Trazado 113311" d="M1747.437,2569.838a1.009,1.009,0,1,1-1.009-1.008A1.009,1.009,0,0,1,1747.437,2569.838Z" transform="translate(-1745.42 -2568.83)" fill="#f57c22"/>
    </g>
    <g id="Grupo_83758" data-name="Grupo 83758" transform="translate(1749.103 2569.172)">
      <path id="Trazado_113312" data-name="Trazado 113312" d="M1750.868,2569.838a1.009,1.009,0,1,1-1.009-1.008A1.009,1.009,0,0,1,1750.868,2569.838Z" transform="translate(-1748.85 -2568.83)" fill="#f57c22"/>
    </g>
    <g id="Grupo_83759" data-name="Grupo 83759" transform="translate(1752.562 2569.172)">
      <path id="Trazado_113313" data-name="Trazado 113313" d="M1754.3,2569.838a1.009,1.009,0,1,1-1.008-1.008A1.009,1.009,0,0,1,1754.3,2569.838Z" transform="translate(-1752.281 -2568.83)" fill="#f57c22"/>
    </g>
    <g id="Grupo_83760" data-name="Grupo 83760" transform="translate(1756.022 2569.172)">
      <path id="Trazado_113314" data-name="Trazado 113314" d="M1757.729,2569.838a1.009,1.009,0,1,1-1.009-1.008A1.009,1.009,0,0,1,1757.729,2569.838Z" transform="translate(-1755.712 -2568.83)" fill="#f57c22"/>
    </g>
    <g id="Grupo_83761" data-name="Grupo 83761" transform="translate(1734.04 2527.31)">
      <path id="Trazado_113315" data-name="Trazado 113315" d="M1745.341,2550.175a11.432,11.432,0,1,1,11.432-11.432A11.445,11.445,0,0,1,1745.341,2550.175Zm0-22.142a10.71,10.71,0,1,0,10.71,10.709A10.722,10.722,0,0,0,1745.341,2528.033Z" transform="translate(-1733.91 -2527.31)" fill="#f57c22"/>
    </g>
    <g id="Grupo_83762" data-name="Grupo 83762" transform="translate(1741.995 2531.313)">
      <path id="Trazado_113316" data-name="Trazado 113316" d="M1745.292,2538.264a3.5,3.5,0,0,0,2.716-1.33,3.41,3.41,0,0,0,.748-2.162,3.478,3.478,0,1,0-6.957,0,3.4,3.4,0,0,0,.749,2.162A3.508,3.508,0,0,0,1745.292,2538.264Z" transform="translate(-1741.8 -2531.28)" fill="#f57c22"/>
    </g>
    <g id="Grupo_83763" data-name="Grupo 83763" transform="translate(1739.317 2539.263)">
      <path id="Trazado_113317" data-name="Trazado 113317" d="M1751.45,2544.421c0,2.2-12.306,2.2-12.306,0l0-2.567c.486-3.511,11.3-3.658,12.306,0Z" transform="translate(-1739.144 -2539.166)" fill="#f57c22"/>
    </g>
    <g id="Grupo_83764" data-name="Grupo 83764" transform="translate(1721.337 2568.117)">
      <path id="Trazado_113318" data-name="Trazado 113318" d="M1723.737,2569.065v-.153a1.127,1.127,0,1,0-2.254,0v.153h-.171v2.032c0,.351,2.6.351,2.6,0v-2.032Zm-1.852-.153a.73.73,0,1,1,1.459,0v.153h-1.459Zm.918,1.177v.587a.188.188,0,0,1-.2.181.174.174,0,0,1-.18-.181v-.587a.344.344,0,0,1-.18-.3.361.361,0,1,1,.558.3Z" transform="translate(-1721.311 -2567.784)" fill="#f57c22"/>
    </g>
    <g id="Grupo_83765" data-name="Grupo 83765" transform="translate(1721.902 2559.016)">
      <path id="Trazado_113319" data-name="Trazado 113319" d="M1722.608,2560.231a.74.74,0,0,0,.573-.281.717.717,0,0,0,.158-.456.734.734,0,1,0-1.468,0,.719.719,0,0,0,.158.456A.743.743,0,0,0,1722.608,2560.231Z" transform="translate(-1721.871 -2558.757)" fill="#f57c22"/>
    </g>
    <g id="Grupo_83766" data-name="Grupo 83766" transform="translate(1721.323 2560.694)">
      <path id="Trazado_113320" data-name="Trazado 113320" d="M1723.907,2561.53c0,.465-2.61.465-2.61,0l.014-.542c.1-.74,2.385-.771,2.6,0Z" transform="translate(-1721.297 -2560.421)" fill="#f57c22"/>
    </g>
    <g id="Grupo_83767" data-name="Grupo 83767" transform="translate(1728.114 2559.857)">
      <path id="Trazado_113321" data-name="Trazado 113321" d="M1739.427,2561.272h-10.554a.843.843,0,0,1-.841-.84h0a.843.843,0,0,1,.841-.841h10.554a.843.843,0,0,1,.841.841h0A.843.843,0,0,1,1739.427,2561.272Z" transform="translate(-1728.032 -2559.591)" fill="#f57c22"/>
    </g>
    <g id="Grupo_83768" data-name="Grupo 83768" transform="translate(1742.033 2559.857)">
      <path id="Trazado_113322" data-name="Trazado 113322" d="M1753.233,2561.272h-10.554a.844.844,0,0,1-.841-.84h0a.844.844,0,0,1,.841-.841h10.554a.843.843,0,0,1,.841.841h0A.843.843,0,0,1,1753.233,2561.272Z" transform="translate(-1741.838 -2559.591)" fill="#f57c22"/>
    </g>
    <g id="Grupo_83769" data-name="Grupo 83769" transform="translate(1736.966 2576.824)">
      <rect id="Rectángulo_14855" data-name="Rectángulo 14855" width="14.475" height="4.91" rx="2.435" fill="#f57c22"/>
    </g>
  </g>
</svg>
