<svg xmlns="http://www.w3.org/2000/svg" width="347.618" height="159.181" viewBox="0 0 347.618 159.181">
  <g id="Grupo_86497" data-name="Grupo 86497" transform="translate(382.606 -74.967)">
    <g id="Grupo_86453" data-name="Grupo 86453" transform="translate(-167.473 180.018)">
      <g id="Grupo_86452" data-name="Grupo 86452" transform="translate(0 0)">
        <path id="Trazado_140004" data-name="Trazado 140004" d="M158.493,330.8V366.03a3.534,3.534,0,0,1-3.534,3.534H138.2a3.534,3.534,0,0,1-3.534-3.534V330.8a3.534,3.534,0,0,1,3.534-3.533h7.007l.007.025c.207.746.684,1.231,1.214,1.231h.3c.529,0,1.006-.485,1.214-1.231l.008-.025h7.006A3.534,3.534,0,0,1,158.493,330.8Z" transform="translate(-134.667 -327.264)" fill="none" stroke="#011c21" stroke-linecap="round" stroke-linejoin="round" stroke-width="1"/>
      </g>
      <rect id="Rectángulo_15991" data-name="Rectángulo 15991" width="19.1" height="1.661" transform="translate(1.819 5.609)" fill="none" stroke="#011c21" stroke-linecap="round" stroke-linejoin="round" stroke-width="1"/>
      <rect id="Rectángulo_15992" data-name="Rectángulo 15992" width="19.1" height="1.661" transform="translate(1.819 10.176)" fill="none" stroke="#011c21" stroke-linecap="round" stroke-linejoin="round" stroke-width="1"/>
      <rect id="Rectángulo_15993" data-name="Rectángulo 15993" width="19.1" height="1.661" transform="translate(1.819 14.744)" fill="none" stroke="#011c21" stroke-linecap="round" stroke-linejoin="round" stroke-width="1"/>
      <rect id="Rectángulo_15994" data-name="Rectángulo 15994" width="19.1" height="1.661" transform="translate(1.819 23.878)" fill="none" stroke="#011c21" stroke-linecap="round" stroke-linejoin="round" stroke-width="1"/>
      <rect id="Rectángulo_15995" data-name="Rectángulo 15995" width="19.1" height="1.661" transform="translate(1.819 28.446)" fill="none" stroke="#011c21" stroke-linecap="round" stroke-linejoin="round" stroke-width="1"/>
      <rect id="Rectángulo_15996" data-name="Rectángulo 15996" width="19.1" height="1.661" transform="translate(1.819 33.013)" fill="none" stroke="#011c21" stroke-linecap="round" stroke-linejoin="round" stroke-width="1"/>
    </g>
    <g id="Grupo_86460" data-name="Grupo 86460" transform="translate(-69.481 76.208)">
      <g id="Grupo_86454" data-name="Grupo 86454">
        <path id="Trazado_140005" data-name="Trazado 140005" d="M394.493,80.784v35.233a3.534,3.534,0,0,1-3.534,3.534H374.2a3.534,3.534,0,0,1-3.534-3.534V80.784a3.534,3.534,0,0,1,3.534-3.533h7.007l.007.025c.207.746.684,1.231,1.214,1.231h.3c.529,0,1.006-.485,1.214-1.231l.008-.025h7.006A3.534,3.534,0,0,1,394.493,80.784Z" transform="translate(-370.667 -77.251)" fill="none" stroke="#011c21" stroke-linecap="round" stroke-linejoin="round" stroke-width="1"/>
      </g>
      <g id="Grupo_86455" data-name="Grupo 86455" transform="translate(2.331 25.322)">
        <rect id="Rectángulo_15997" data-name="Rectángulo 15997" width="19.308" height="13.094" fill="none" stroke="#011c21" stroke-linecap="round" stroke-linejoin="round" stroke-width="1"/>
        <line id="Línea_10518" data-name="Línea 10518" y1="13.094" x2="19.308" fill="none" stroke="#011c21" stroke-linecap="round" stroke-linejoin="round" stroke-width="1"/>
        <line id="Línea_10519" data-name="Línea 10519" x1="19.308" y1="13.094" fill="none" stroke="#011c21" stroke-linecap="round" stroke-linejoin="round" stroke-width="1"/>
      </g>
      <g id="Grupo_86456" data-name="Grupo 86456" transform="translate(2.331 18.664)">
        <rect id="Rectángulo_15998" data-name="Rectángulo 15998" width="19.308" height="3.329" fill="none" stroke="#011c21" stroke-linecap="round" stroke-linejoin="round" stroke-width="1"/>
        <line id="Línea_10520" data-name="Línea 10520" y1="3.329" x2="19.308" fill="none" stroke="#011c21" stroke-linecap="round" stroke-linejoin="round" stroke-width="1"/>
        <line id="Línea_10521" data-name="Línea 10521" x1="19.308" y1="3.329" fill="none" stroke="#011c21" stroke-linecap="round" stroke-linejoin="round" stroke-width="1"/>
      </g>
      <g id="Grupo_86457" data-name="Grupo 86457" transform="translate(2.331 12.339)">
        <rect id="Rectángulo_15999" data-name="Rectángulo 15999" width="19.308" height="3.329" fill="none" stroke="#011c21" stroke-linecap="round" stroke-linejoin="round" stroke-width="1"/>
        <line id="Línea_10522" data-name="Línea 10522" y1="3.329" x2="19.308" fill="none" stroke="#011c21" stroke-linecap="round" stroke-linejoin="round" stroke-width="1"/>
        <line id="Línea_10523" data-name="Línea 10523" x1="19.308" y1="3.329" fill="none" stroke="#011c21" stroke-linecap="round" stroke-linejoin="round" stroke-width="1"/>
      </g>
      <g id="Grupo_86458" data-name="Grupo 86458" transform="translate(2.331 6.014)">
        <rect id="Rectángulo_16000" data-name="Rectángulo 16000" width="19.308" height="3.329" fill="none" stroke="#011c21" stroke-linecap="round" stroke-linejoin="round" stroke-width="1"/>
        <line id="Línea_10524" data-name="Línea 10524" y1="3.329" x2="19.308" fill="none" stroke="#011c21" stroke-linecap="round" stroke-linejoin="round" stroke-width="1"/>
        <line id="Línea_10525" data-name="Línea 10525" x1="19.308" y1="3.329" fill="none" stroke="#011c21" stroke-linecap="round" stroke-linejoin="round" stroke-width="1"/>
      </g>
      <g id="Grupo_86459" data-name="Grupo 86459" transform="translate(25.606 21.965)">
        <circle id="Elipse_4444" data-name="Elipse 4444" cx="3.766" cy="3.766" r="3.766" transform="translate(0 0.786)" fill="none" stroke="#011c21" stroke-linecap="round" stroke-linejoin="round" stroke-width="1"/>
        <path id="Trazado_140006" data-name="Trazado 140006" d="M436.739,133.682l1.883,2.119,4.473-5.65" transform="translate(-434.91 -130.151)" fill="none" stroke="#011c21" stroke-linecap="round" stroke-linejoin="round" stroke-width="1"/>
      </g>
    </g>
    <g id="Grupo_86463" data-name="Grupo 86463" transform="translate(-69.409 166.138)">
      <g id="Grupo_86461" data-name="Grupo 86461">
        <path id="Trazado_140007" data-name="Trazado 140007" d="M394.667,297.368V332.6a3.534,3.534,0,0,1-3.534,3.534H374.375a3.534,3.534,0,0,1-3.534-3.534V297.368a3.533,3.533,0,0,1,3.534-3.532h7.007l.007.025c.207.746.684,1.231,1.213,1.231h.3c.529,0,1.006-.485,1.213-1.231l.008-.025h7.006A3.533,3.533,0,0,1,394.667,297.368Z" transform="translate(-370.841 -293.836)" fill="none" stroke="#011c21" stroke-linecap="round" stroke-linejoin="round" stroke-width="1"/>
      </g>
      <rect id="Rectángulo_16001" data-name="Rectángulo 16001" width="11.626" height="10.796" transform="translate(6.1 10.176)" fill="none" stroke="#011c21" stroke-linecap="round" stroke-linejoin="round" stroke-width="1"/>
      <rect id="Rectángulo_16002" data-name="Rectángulo 16002" width="16.788" height="6.262" transform="translate(3.519 29.907)" fill="none" stroke="#011c21" stroke-linecap="round" stroke-linejoin="round" stroke-width="1"/>
      <g id="Grupo_86462" data-name="Grupo 86462" transform="translate(8.421 23.952)">
        <path id="Trazado_140008" data-name="Trazado 140008" d="M392.766,352.342a.822.822,0,1,1-.821-.822A.822.822,0,0,1,392.766,352.342Z" transform="translate(-391.123 -351.52)" fill="none" stroke="#011c21" stroke-linecap="round" stroke-linejoin="round" stroke-width="1"/>
        <path id="Trazado_140009" data-name="Trazado 140009" d="M399.2,352.342a.822.822,0,1,1-.822-.822A.822.822,0,0,1,399.2,352.342Z" transform="translate(-394.883 -351.52)" fill="none" stroke="#011c21" stroke-linecap="round" stroke-linejoin="round" stroke-width="1"/>
        <circle id="Elipse_4445" data-name="Elipse 4445" cx="0.821" cy="0.821" r="0.821" transform="translate(5.34 0)" fill="none" stroke="#011c21" stroke-linecap="round" stroke-linejoin="round" stroke-width="1"/>
      </g>
      <line id="Línea_10526" data-name="Línea 10526" x2="23.412" transform="translate(0.18 5.263)" fill="none" stroke="#011c21" stroke-linecap="round" stroke-linejoin="round" stroke-width="1"/>
    </g>
    <g id="Grupo_86487" data-name="Grupo 86487" transform="translate(-159.342 75.467)">
      <g id="Grupo_86477" data-name="Grupo 86477" transform="translate(3.519 0)">
        <g id="Grupo_86464" data-name="Grupo 86464" transform="translate(3.299 2.402)">
          <path id="Trazado_140010" data-name="Trazado 140010" d="M241.477,91.75V196.462a10.5,10.5,0,0,1-10.5,10.5H181.169a10.5,10.5,0,0,1-10.5-10.5V91.75a10.5,10.5,0,0,1,10.5-10.5h20.825l.021.076c.616,2.216,2.034,3.658,3.606,3.658h.9c1.573,0,2.99-1.442,3.606-3.658l.024-.076h20.822A10.5,10.5,0,0,1,241.477,91.75Z" transform="translate(-170.667 -81.251)" fill="#fff"/>
        </g>
        <rect id="Rectángulo_16003" data-name="Rectángulo 16003" width="55.78" height="59.739" transform="translate(3.426 30.322)" fill="#011c21" stroke="#011c21" stroke-linecap="round" stroke-linejoin="round" stroke-width="1"/>
        <path id="Trazado_140011" data-name="Trazado 140011" d="M210.313,81.327c-.616,2.216-2.033,3.658-3.606,3.658h-.9c-1.572,0-2.99-1.442-3.606-3.658l-.021-.076H181.353A10.5,10.5,0,0,0,170.981,90.1h70.55a10.5,10.5,0,0,0-10.372-8.848H210.337Z" transform="translate(-167.552 -78.849)" fill="#bec1c3"/>
        <g id="Grupo_86476" data-name="Grupo 86476">
          <path id="Trazado_140012" data-name="Trazado 140012" d="M241.334,116.311V103h-1.2V85.968a10.5,10.5,0,0,0-10.5-10.5H173.223a10.5,10.5,0,0,0-10.5,10.5V200.581a10.5,10.5,0,0,0,10.5,10.5h56.406a10.5,10.5,0,0,0,10.5-10.5V127.652h1.2v-7.863h-1.2v-3.478Zm-4.5,76.768a10.5,10.5,0,0,1-10.5,10.5H176.523a10.5,10.5,0,0,1-10.5-10.5V88.367a10.5,10.5,0,0,1,10.5-10.5h20.825l.021.076c.616,2.216,2.034,3.658,3.606,3.658h.9c1.573,0,2.99-1.442,3.606-3.658l.024-.076h20.822a10.5,10.5,0,0,1,10.5,10.5Z" transform="translate(-162.722 -75.467)" fill="#263238" stroke="#011c21" stroke-linejoin="round" stroke-width="1"/>
          <path id="Trazado_140013" data-name="Trazado 140013" d="M230.126,78.951H176.151a10.5,10.5,0,0,0-10.5,10.5v111.72a10.5,10.5,0,0,0,10.5,10.5h53.974a10.5,10.5,0,0,0,10.5-10.5V89.452A10.5,10.5,0,0,0,230.126,78.951Zm8.418,116.166a10.5,10.5,0,0,1-10.5,10.5H178.235a10.5,10.5,0,0,1-10.5-10.5V90.4a10.5,10.5,0,0,1,10.5-10.5h20.825l.021.076c.616,2.216,2.034,3.658,3.606,3.658h.9c1.573,0,2.99-1.442,3.606-3.658l.024-.076h20.822a10.5,10.5,0,0,1,10.5,10.5Z" transform="translate(-164.434 -77.504)" fill="#011c21" stroke="#011c21" stroke-linejoin="round" stroke-width="1"/>
          <path id="Trazado_140014" data-name="Trazado 140014" d="M255.012,81.071a.986.986,0,1,0-.986.986A.986.986,0,0,0,255.012,81.071Z" transform="translate(-215.539 -78.168)" fill="#fff"/>
          <g id="Grupo_86475" data-name="Grupo 86475" transform="translate(8.104 5.44)">
            <g id="Grupo_86465" data-name="Grupo 86465" transform="translate(0 0.405)">
              <path id="Trazado_140015" data-name="Trazado 140015" d="M183.729,90.38c0,1-1.12,1.357-1.125,2.118v.052h1.087v.336H182.24V92.6c0-1.068,1.12-1.276,1.12-2.208,0-.34-.114-.519-.388-.519s-.388.193-.388.487v.293h-.345v-.269c0-.506.232-.842.742-.842S183.729,89.874,183.729,90.38Z" transform="translate(-182.24 -89.543)" fill="#011c21"/>
              <path id="Trazado_140016" data-name="Trazado 140016" d="M188.09,90.375v.085a.657.657,0,0,1-.4.681.658.658,0,0,1,.4.686v.255c0,.506-.236.837-.747.837s-.742-.331-.742-.837v-.227h.345v.25c0,.3.123.477.387.477s.388-.175.388-.51v-.255c0-.326-.137-.482-.416-.492h-.2v-.331h.217a.4.4,0,0,0,.4-.453v-.152c0-.34-.118-.515-.388-.515s-.387.184-.387.482v.17H186.6v-.151c0-.506.236-.832.742-.832S188.09,89.869,188.09,90.375Z" transform="translate(-184.79 -89.543)" fill="#011c21"/>
              <path id="Trazado_140017" data-name="Trazado 140017" d="M191.408,92.15v.459h-.355V92.15Zm0,1.8v.459h-.355v-.459Z" transform="translate(-187.394 -91.068)" fill="#011c21"/>
              <path id="Trazado_140018" data-name="Trazado 140018" d="M193.167,90.97a.532.532,0,0,1,.492-.274c.425,0,.614.312.614.785v.648c0,.506-.241.837-.747.837s-.742-.331-.742-.837v-.222h.345v.245c0,.3.123.478.387.478s.388-.179.388-.478v-.643c0-.3-.123-.478-.388-.478a.357.357,0,0,0-.373.355v.076H192.8l.09-1.839h1.3v.331h-.974Z" transform="translate(-188.406 -89.59)" fill="#011c21"/>
              <path id="Trazado_140019" data-name="Trazado 140019" d="M198.675,90.37v.061h-.345v-.085c0-.3-.123-.473-.392-.473s-.4.179-.4.534v.742a.533.533,0,0,1,.534-.355c.425,0,.615.307.615.785v.5c0,.506-.251.837-.757.837s-.761-.331-.761-.837V90.394c0-.524.237-.851.761-.851S198.675,89.865,198.675,90.37Zm-1.139,1.239v.5c0,.3.123.477.392.477s.392-.179.392-.477v-.5c0-.3-.127-.477-.392-.477S197.536,91.311,197.536,91.609Z" transform="translate(-190.969 -89.543)" fill="#011c21"/>
            </g>
            <g id="Grupo_86474" data-name="Grupo 86474" transform="translate(42.894)">
              <rect id="Rectángulo_16004" data-name="Rectángulo 16004" width="0.934" height="2.336" transform="translate(0 1.378)" fill="#011c21"/>
              <rect id="Rectángulo_16005" data-name="Rectángulo 16005" width="0.934" height="2.804" transform="translate(1.246 0.91)" fill="#011c21"/>
              <rect id="Rectángulo_16006" data-name="Rectángulo 16006" width="0.934" height="3.136" transform="translate(2.491 0.578)" fill="#011c21"/>
              <rect id="Rectángulo_16007" data-name="Rectángulo 16007" width="0.934" height="3.714" transform="translate(3.737)" fill="#011c21"/>
              <g id="Grupo_86469" data-name="Grupo 86469" transform="translate(10.627 0.224)">
                <g id="Grupo_86466" data-name="Grupo 86466">
                  <path id="Trazado_140020" data-name="Trazado 140020" d="M316.743,92.532h-5.605V89.106h5.605Zm-5.294-.311h4.983v-2.8h-4.983Z" transform="translate(-311.138 -89.106)" fill="#011c21"/>
                </g>
                <g id="Grupo_86467" data-name="Grupo 86467" transform="translate(0.778 0.651)">
                  <rect id="Rectángulo_16008" data-name="Rectángulo 16008" width="2.958" height="2.125" fill="#011c21"/>
                </g>
                <g id="Grupo_86468" data-name="Grupo 86468" transform="translate(5.411 1.309)">
                  <rect id="Rectángulo_16009" data-name="Rectángulo 16009" width="0.705" height="0.807" fill="#011c21"/>
                </g>
              </g>
              <g id="Grupo_86470" data-name="Grupo 86470" transform="translate(6.192 2.14)">
                <path id="Trazado_140021" data-name="Trazado 140021" d="M302.836,94.486a.209.209,0,0,1-.107-.029,1.634,1.634,0,0,0-1.926-.022.209.209,0,0,1-.276-.315,2.034,2.034,0,0,1,2.416-.023.209.209,0,0,1-.107.389Z" transform="translate(-300.456 -93.722)" fill="#011c21"/>
              </g>
              <g id="Grupo_86471" data-name="Grupo 86471" transform="translate(5.77 1.31)">
                <path id="Trazado_140022" data-name="Trazado 140022" d="M302.663,92.613a.21.21,0,0,1-.107-.029,2.363,2.363,0,0,0-2.769-.023.209.209,0,0,1-.277-.314,2.786,2.786,0,0,1,3.26-.023.209.209,0,0,1-.107.389Z" transform="translate(-299.439 -91.723)" fill="#011c21"/>
              </g>
              <g id="Grupo_86472" data-name="Grupo 86472" transform="translate(5.387 0.375)">
                <path id="Trazado_140023" data-name="Trazado 140023" d="M302.507,90.482a.208.208,0,0,1-.107-.029,2.987,2.987,0,0,0-3.536-.022.209.209,0,0,1-.276-.315,3.444,3.444,0,0,1,4.026-.023.209.209,0,0,1-.107.389Z" transform="translate(-298.517 -89.472)" fill="#011c21"/>
              </g>
              <g id="Grupo_86473" data-name="Grupo 86473" transform="translate(6.891 2.73)">
                <path id="Trazado_140024" data-name="Trazado 140024" d="M303.191,95.667a.525.525,0,1,1-.525-.525A.525.525,0,0,1,303.191,95.667Z" transform="translate(-302.14 -95.142)" fill="#011c21"/>
              </g>
            </g>
          </g>
        </g>
      </g>
      <g id="Grupo_86486" data-name="Grupo 86486" transform="translate(0 18.447)">
        <g id="Grupo_86480" data-name="Grupo 86480" transform="translate(0 9.717)">
          <rect id="Rectángulo_16010" data-name="Rectángulo 16010" width="60.458" height="58.659" fill="aqua" stroke="#011c21" stroke-linecap="round" stroke-linejoin="round" stroke-width="1"/>
          <g id="Grupo_86478" data-name="Grupo 86478" transform="translate(4.425 4.888)">
            <rect id="Rectángulo_16011" data-name="Rectángulo 16011" width="50.382" height="37.577" transform="translate(0.613)" fill="#fff" stroke="#011c21" stroke-linecap="round" stroke-linejoin="round" stroke-width="1"/>
            <line id="Línea_10527" data-name="Línea 10527" x1="50.382" y2="37.577" fill="none" stroke="#011c21" stroke-linecap="round" stroke-linejoin="round" stroke-width="1"/>
            <line id="Línea_10528" data-name="Línea 10528" x2="50.382" y2="37.577" transform="translate(0.613)" fill="none" stroke="#011c21" stroke-linecap="round" stroke-linejoin="round" stroke-width="1"/>
          </g>
          <g id="Grupo_86479" data-name="Grupo 86479" transform="translate(21.592 46.423)">
            <circle id="Elipse_4446" data-name="Elipse 4446" cx="1.799" cy="1.799" r="1.799" fill="#fff" stroke="#011c21" stroke-linecap="round" stroke-linejoin="round" stroke-width="1"/>
            <circle id="Elipse_4447" data-name="Elipse 4447" cx="1.799" cy="1.799" r="1.799" transform="translate(6.838)" fill="#fff" stroke="#011c21" stroke-linecap="round" stroke-linejoin="round" stroke-width="1"/>
            <circle id="Elipse_4448" data-name="Elipse 4448" cx="1.799" cy="1.799" r="1.799" transform="translate(13.675)" fill="#fff" stroke="#011c21" stroke-linecap="round" stroke-linejoin="round" stroke-width="1"/>
          </g>
        </g>
        <g id="Grupo_86482" data-name="Grupo 86482" transform="translate(12.595 73.774)">
          <rect id="Rectángulo_16012" data-name="Rectángulo 16012" width="28.537" height="31.669" fill="aqua" stroke="#011c21" stroke-linecap="round" stroke-linejoin="round" stroke-width="1"/>
          <g id="Grupo_86481" data-name="Grupo 86481" transform="translate(2.266 11.156)">
            <rect id="Rectángulo_16013" data-name="Rectángulo 16013" width="23.16" height="17.274" transform="translate(0.282)" fill="#fff" stroke="#011c21" stroke-linecap="round" stroke-linejoin="round" stroke-width="1"/>
            <line id="Línea_10529" data-name="Línea 10529" x1="23.16" y2="17.274" fill="none" stroke="#011c21" stroke-linecap="round" stroke-linejoin="round" stroke-width="1"/>
            <line id="Línea_10530" data-name="Línea 10530" x2="23.16" y2="17.274" transform="translate(0.282)" fill="none" stroke="#011c21" stroke-linecap="round" stroke-linejoin="round" stroke-width="1"/>
          </g>
          <rect id="Rectángulo_16014" data-name="Rectángulo 16014" width="17.634" height="3.599" transform="translate(5.145 3.239)" fill="#fff" stroke="#011c21" stroke-linecap="round" stroke-linejoin="round" stroke-width="1"/>
        </g>
        <g id="Grupo_86484" data-name="Grupo 86484" transform="translate(44.371 73.774)">
          <rect id="Rectángulo_16015" data-name="Rectángulo 16015" width="28.683" height="31.669" fill="aqua" stroke="#011c21" stroke-linecap="round" stroke-linejoin="round" stroke-width="1"/>
          <g id="Grupo_86483" data-name="Grupo 86483" transform="translate(2.519 11.156)">
            <rect id="Rectángulo_16016" data-name="Rectángulo 16016" width="23.16" height="17.274" transform="translate(0.282)" fill="#fff" stroke="#011c21" stroke-linecap="round" stroke-linejoin="round" stroke-width="1"/>
            <line id="Línea_10531" data-name="Línea 10531" x1="23.16" y2="17.274" fill="none" stroke="#011c21" stroke-linecap="round" stroke-linejoin="round" stroke-width="1"/>
            <line id="Línea_10532" data-name="Línea 10532" x2="23.16" y2="17.274" transform="translate(0.282)" fill="none" stroke="#011c21" stroke-linecap="round" stroke-linejoin="round" stroke-width="1"/>
          </g>
          <rect id="Rectángulo_16017" data-name="Rectángulo 16017" width="17.634" height="3.599" transform="translate(5.398 3.239)" fill="#fff" stroke="#011c21" stroke-linecap="round" stroke-linejoin="round" stroke-width="1"/>
        </g>
        <g id="Grupo_86485" data-name="Grupo 86485" transform="translate(13.062)">
          <line id="Línea_10533" data-name="Línea 10533" x2="7.917" fill="none" stroke="#011c21" stroke-linecap="round" stroke-linejoin="round" stroke-width="1"/>
          <line id="Línea_10534" data-name="Línea 10534" x2="7.917" transform="translate(0 2.519)" fill="none" stroke="#011c21" stroke-linecap="round" stroke-linejoin="round" stroke-width="1"/>
          <line id="Línea_10535" data-name="Línea 10535" x2="7.917" transform="translate(0 5.038)" fill="none" stroke="#011c21" stroke-linecap="round" stroke-linejoin="round" stroke-width="1"/>
        </g>
        <rect id="Rectángulo_16018" data-name="Rectángulo 16018" width="34.908" height="5.398" transform="translate(27.097)" fill="aqua" stroke="#011c21" stroke-linecap="round" stroke-linejoin="round" stroke-width="1"/>
      </g>
    </g>
    <g id="Grupo_86494" data-name="Grupo 86494" transform="translate(-382.006 102.55)">
      <path id="Rectángulo_16019" data-name="Rectángulo 16019" d="M12.736,0H175.25a12.736,12.736,0,0,1,12.736,12.736V122.019a0,0,0,0,1,0,0H0a0,0,0,0,1,0,0V12.736A12.736,12.736,0,0,1,12.736,0Z" transform="translate(15.634 0)" fill="#fff" stroke="#011c21" stroke-linecap="round" stroke-linejoin="round" stroke-width="1.201"/>
      <rect id="Rectángulo_16020" data-name="Rectángulo 16020" width="129.194" height="6.365" transform="translate(45.461 116.145)" fill="#011c21" stroke="#011c21" stroke-linecap="round" stroke-linejoin="round" stroke-width="1.201"/>
      <rect id="Rectángulo_16021" data-name="Rectángulo 16021" width="129.194" height="3.301" transform="translate(45.461 119.21)" fill="#fff" stroke="#011c21" stroke-linecap="round" stroke-linejoin="round" stroke-width="1.201"/>
      <path id="Trazado_140025" data-name="Trazado 140025" d="M-380.967,444.828s2.122,2.593,8.488,4.715H-170.2s4.715-1.179,6.837-4.479Z" transform="translate(381.398 -318.545)" fill="#011c21" stroke="#011c21" stroke-linecap="round" stroke-linejoin="round" stroke-width="1.201"/>
      <rect id="Rectángulo_16022" data-name="Rectángulo 16022" width="218.491" height="4.957" rx="2.479" transform="translate(0 121.638)" fill="#fff" stroke="#011c21" stroke-linecap="round" stroke-linejoin="round" stroke-width="1.201"/>
      <path id="Trazado_140026" data-name="Trazado 140026" d="M-118.756,147.256a1.65,1.65,0,0,0-1.651-1.65,1.65,1.65,0,0,0-1.65,1.65,1.65,1.65,0,0,0,1.65,1.65A1.65,1.65,0,0,0-118.756,147.256Z" transform="translate(229.993 -143.566)" fill="#011c21"/>
      <path id="Trazado_140027" data-name="Trazado 140027" d="M-340.75,202.806h0a.472.472,0,0,1-.472-.472V188.661a.472.472,0,0,1,.472-.472h0a.471.471,0,0,1,.471.472v13.674A.472.472,0,0,1-340.75,202.806Z" transform="translate(358.156 -168.468)" fill="#011c21" stroke="#fff" stroke-linejoin="round" stroke-width="0.831"/>
      <g id="Grupo_86488" data-name="Grupo 86488" transform="translate(23.26 9.533)">
        <rect id="Rectángulo_16023" data-name="Rectángulo 16023" width="172.734" height="97.616" fill="#babdbf" stroke="#011c21" stroke-linejoin="round" stroke-width="1.201"/>
        <rect id="Rectángulo_16024" data-name="Rectángulo 16024" width="144.026" height="5.773" transform="translate(28.708)" fill="#011c21"/>
      </g>
      <g id="Grupo_86493" data-name="Grupo 86493" transform="translate(24.677 18.643)">
        <circle id="Elipse_4449" data-name="Elipse 4449" cx="4.128" cy="4.128" r="4.128" transform="matrix(0.924, -0.383, 0.383, 0.924, 0, 11.216)" fill="none" stroke="#011c21" stroke-linejoin="round" stroke-width="1.201"/>
        <circle id="Elipse_4450" data-name="Elipse 4450" cx="4.128" cy="4.128" r="4.128" transform="translate(1.266 21.174)" fill="none" stroke="#011c21" stroke-linejoin="round" stroke-width="1.201"/>
        <circle id="Elipse_4451" data-name="Elipse 4451" cx="4.128" cy="4.128" r="4.128" transform="matrix(0.924, -0.383, 0.383, 0.924, 0, 34.92)" fill="none" stroke="#011c21" stroke-linejoin="round" stroke-width="1.201"/>
        <circle id="Elipse_4452" data-name="Elipse 4452" cx="4.128" cy="4.128" r="4.128" transform="translate(1.266 44.877)" fill="none" stroke="#011c21" stroke-linejoin="round" stroke-width="1.201"/>
        <circle id="Elipse_4453" data-name="Elipse 4453" cx="4.128" cy="4.128" r="4.128" transform="translate(1.266 56.729)" fill="none" stroke="#011c21" stroke-linejoin="round" stroke-width="1.201"/>
        <circle id="Elipse_4454" data-name="Elipse 4454" cx="4.128" cy="4.128" r="4.128" transform="matrix(0.16, -0.987, 0.987, 0.16, 0.658, 76.123)" fill="none" stroke="#011c21" stroke-linejoin="round" stroke-width="1.201"/>
        <rect id="Rectángulo_16025" data-name="Rectángulo 16025" width="141.957" height="86.026" transform="translate(18.844)" fill="none" stroke="#011c21" stroke-linejoin="round" stroke-width="1.201"/>
        <line id="Línea_10536" data-name="Línea 10536" x2="141.902" transform="translate(19.068 51.398)" fill="none" stroke="#011c21" stroke-linejoin="round" stroke-width="1.201"/>
        <g id="Grupo_86489" data-name="Grupo 86489" transform="translate(100.9 56.608)">
          <line id="Línea_10537" data-name="Línea 10537" x2="48.425" transform="translate(0)" fill="none" stroke="#011c21" stroke-linejoin="round" stroke-width="1.201"/>
          <line id="Línea_10538" data-name="Línea 10538" x2="48.425" transform="translate(0 4.291)" fill="none" stroke="#011c21" stroke-linejoin="round" stroke-width="1.201"/>
          <line id="Línea_10539" data-name="Línea 10539" x2="48.425" transform="translate(0 8.582)" fill="none" stroke="#011c21" stroke-linejoin="round" stroke-width="1.201"/>
          <line id="Línea_10540" data-name="Línea 10540" x2="48.425" transform="translate(0 12.872)" fill="none" stroke="#011c21" stroke-linejoin="round" stroke-width="1.201"/>
          <line id="Línea_10541" data-name="Línea 10541" x2="48.425" transform="translate(0 17.163)" fill="none" stroke="#011c21" stroke-linejoin="round" stroke-width="1.201"/>
          <line id="Línea_10542" data-name="Línea 10542" x2="48.425" transform="translate(0 21.454)" fill="none" stroke="#011c21" stroke-linejoin="round" stroke-width="1.201"/>
        </g>
        <line id="Línea_10543" data-name="Línea 10543" y2="47.362" transform="translate(87.577 2.131)" fill="none" stroke="#011c21" stroke-linejoin="round" stroke-width="1.201" stroke-dasharray="2.402"/>
        <g id="Grupo_86490" data-name="Grupo 86490" transform="translate(85.446 48.739)">
          <path id="Trazado_140028" data-name="Trazado 140028" d="M-112.528,305.105a2.131,2.131,0,0,0-2.131-2.13,2.13,2.13,0,0,0-2.13,2.13,2.131,2.131,0,0,0,2.13,2.131A2.131,2.131,0,0,0-112.528,305.105Z" transform="translate(116.789 -302.975)" fill="#fff" stroke="#011c21" stroke-linejoin="round" stroke-width="1.201"/>
          <line id="Línea_10544" data-name="Línea 10544" y2="2.856" transform="translate(2.099 0.753)" fill="none" stroke="#011c21" stroke-linejoin="round" stroke-width="0.6"/>
          <line id="Línea_10545" data-name="Línea 10545" x1="2.856" transform="translate(0.671 2.181)" fill="none" stroke="#011c21" stroke-linejoin="round" stroke-width="0.6"/>
        </g>
        <path id="Trazado_140029" data-name="Trazado 140029" d="M-207.108,245.175h-33.558a2.531,2.531,0,0,1-2.53-2.53h0a2.531,2.531,0,0,1,2.53-2.53h33.558a2.53,2.53,0,0,1,2.53,2.53h0A2.53,2.53,0,0,1-207.108,245.175Z" transform="translate(276.155 -217.476)" fill="none" stroke="#011c21" stroke-linejoin="round" stroke-width="1.201"/>
        <g id="Grupo_86491" data-name="Grupo 86491" transform="translate(21.795 55.995)">
          <rect id="Rectángulo_16026" data-name="Rectángulo 16026" width="33.572" height="23.98" fill="aqua" stroke="#011c21" stroke-linejoin="round" stroke-width="1.201"/>
          <line id="Línea_10546" data-name="Línea 10546" y1="23.98" x2="33.572" fill="none" stroke="#011c21" stroke-linejoin="round" stroke-width="1.201"/>
          <line id="Línea_10547" data-name="Línea 10547" x2="33.572" y2="23.98" fill="none" stroke="#011c21" stroke-linejoin="round" stroke-width="1.201"/>
        </g>
        <g id="Grupo_86492" data-name="Grupo 86492" transform="translate(60.106 55.995)">
          <rect id="Rectángulo_16027" data-name="Rectángulo 16027" width="33.572" height="23.98" fill="aqua" stroke="#011c21" stroke-linejoin="round" stroke-width="1.201"/>
          <line id="Línea_10548" data-name="Línea 10548" y1="23.98" x2="33.572" fill="none" stroke="#011c21" stroke-linejoin="round" stroke-width="1.201"/>
          <line id="Línea_10549" data-name="Línea 10549" x2="33.572" y2="23.98" fill="none" stroke="#011c21" stroke-linejoin="round" stroke-width="1.201"/>
        </g>
        <line id="Línea_10550" data-name="Línea 10550" x2="9.077" transform="translate(9.522 37.154)" fill="none" stroke="#011c21" stroke-linejoin="round" stroke-width="1.201"/>
      </g>
    </g>
    <g id="Grupo_86496" data-name="Grupo 86496" transform="translate(-266.574 124.123)">
      <g id="Grupo_86495" data-name="Grupo 86495" transform="translate(0)">
        <rect id="Rectángulo_16028" data-name="Rectángulo 16028" width="61.523" height="43.945" fill="aqua" stroke="#011c21" stroke-linejoin="round" stroke-width="1.201"/>
        <line id="Línea_10551" data-name="Línea 10551" y1="43.945" x2="61.523" fill="none" stroke="#011c21" stroke-linejoin="round" stroke-width="1.201"/>
        <line id="Línea_10552" data-name="Línea 10552" x2="61.523" y2="43.945" fill="none" stroke="#011c21" stroke-linejoin="round" stroke-width="1.201"/>
      </g>
    </g>
  </g>
</svg>
