<svg xmlns="http://www.w3.org/2000/svg" width="65" height="45.687" viewBox="0 0 65 45.687">
  <g id="Grupo_85748" data-name="Grupo 85748" transform="translate(-360.502 -412.505)">
    <g id="Grupo_85756" data-name="Grupo 85756" transform="translate(360.502 412.505)">
      <g id="Grupo_85748-2" data-name="Grupo 85748">
        <path id="Trazado_138530" data-name="Trazado 138530" d="M422.677,458.191H363.323a2.829,2.829,0,0,1-2.821-2.831V415.336a2.829,2.829,0,0,1,2.821-2.831h59.354a2.832,2.832,0,0,1,2.825,2.831v40.025A2.831,2.831,0,0,1,422.677,458.191Zm-59.354-44.618a1.759,1.759,0,0,0-1.752,1.762v40.025a1.759,1.759,0,0,0,1.752,1.762h59.354a1.761,1.761,0,0,0,1.756-1.762V415.336a1.761,1.761,0,0,0-1.756-1.762Z" transform="translate(-360.502 -412.505)" fill="#f57c22"/>
      </g>
      <g id="Grupo_85749" data-name="Grupo 85749" transform="translate(0 8.174)">
        <path id="Trazado_138531" data-name="Trazado 138531" d="M424.968,423.522H361.036a.534.534,0,0,1,0-1.069h63.932a.534.534,0,0,1,0,1.069Z" transform="translate(-360.502 -422.453)" fill="#f57c22"/>
      </g>
      <g id="Grupo_85750" data-name="Grupo 85750" transform="translate(2.689 2.395)">
        <path id="Trazado_138532" data-name="Trazado 138532" d="M367.693,419.872H364.31a.534.534,0,0,1-.535-.534v-3.384a.534.534,0,0,1,.535-.534h3.384a.534.534,0,0,1,.534.534v3.384A.534.534,0,0,1,367.693,419.872Zm-2.849-1.069h2.315v-2.315h-2.315Z" transform="translate(-363.775 -415.42)" fill="#f57c22"/>
      </g>
      <g id="Grupo_85751" data-name="Grupo 85751" transform="translate(9.271 2.395)">
        <path id="Trazado_138533" data-name="Trazado 138533" d="M375.7,419.872h-3.38a.534.534,0,0,1-.534-.534v-3.384a.534.534,0,0,1,.534-.534h3.38a.534.534,0,0,1,.534.534v3.384A.534.534,0,0,1,375.7,419.872Zm-2.845-1.069h2.31v-2.315h-2.31Z" transform="translate(-371.785 -415.42)" fill="#f57c22"/>
      </g>
      <g id="Grupo_85752" data-name="Grupo 85752" transform="translate(15.847 2.395)">
        <path id="Trazado_138534" data-name="Trazado 138534" d="M383.7,419.872h-3.382a.534.534,0,0,1-.534-.534v-3.384a.534.534,0,0,1,.534-.534H383.7a.534.534,0,0,1,.534.534v3.384A.534.534,0,0,1,383.7,419.872Zm-2.847-1.069h2.312v-2.315h-2.312Z" transform="translate(-379.789 -415.42)" fill="#f57c22"/>
      </g>
      <g id="Grupo_85753" data-name="Grupo 85753" transform="translate(10.302 15.541)">
        <path id="Trazado_138535" data-name="Trazado 138535" d="M386.982,454.189a.534.534,0,0,1-.342-.124l-13.408-11.149a.535.535,0,0,1,0-.822l12.689-10.552a.534.534,0,0,1,.684.822L374.41,442.505l12.915,10.738a.535.535,0,0,1-.342.946Z" transform="translate(-373.04 -431.42)" fill="#f57c22"/>
      </g>
      <g id="Grupo_85754" data-name="Grupo 85754" transform="translate(40.219 15.541)">
        <path id="Trazado_138536" data-name="Trazado 138536" d="M409.986,454.189a.535.535,0,0,1-.342-.946l12.909-10.738-12.191-10.142a.535.535,0,0,1,.684-.822l12.684,10.552a.535.535,0,0,1,0,.822l-13.4,11.149A.538.538,0,0,1,409.986,454.189Z" transform="translate(-409.452 -431.42)" fill="#f57c22"/>
      </g>
      <g id="Grupo_85755" data-name="Grupo 85755" transform="translate(25.264 13.146)">
        <path id="Trazado_138537" data-name="Trazado 138537" d="M391.783,456.064a.535.535,0,0,1-.477-.774l13.283-26.49a.534.534,0,0,1,.955.478l-13.283,26.491A.535.535,0,0,1,391.783,456.064Z" transform="translate(-391.25 -428.504)" fill="#f57c22"/>
      </g>
    </g>
  </g>
</svg>
