<svg xmlns="http://www.w3.org/2000/svg" xmlns:xlink="http://www.w3.org/1999/xlink" width="263.15" height="256.751" viewBox="0 0 263.15 256.751">
  <defs>
    <linearGradient id="linear-gradient" x1="1.13" y1="1.295" x2="0.236" y2="0.19" gradientUnits="objectBoundingBox">
      <stop offset="0" stop-color="#dbfaff"/>
      <stop offset="1" stop-color="#ebfdff"/>
    </linearGradient>
    <linearGradient id="linear-gradient-2" x1="0.935" y1="-0.077" x2="-0.19" y2="1.417" gradientUnits="objectBoundingBox">
      <stop offset="0" stop-color="#4fc4ff"/>
      <stop offset="1" stop-color="#48c5fe"/>
    </linearGradient>
    <linearGradient id="linear-gradient-3" x1="1.214" y1="-0.447" x2="-0.632" y2="2.005" xlink:href="#linear-gradient-2"/>
    <linearGradient id="linear-gradient-4" x1="0.931" y1="-2.902" x2="0.666" y2="-0.811" gradientUnits="objectBoundingBox">
      <stop offset="0" stop-color="#ffb796"/>
      <stop offset="1" stop-color="#ff7641"/>
    </linearGradient>
    <linearGradient id="linear-gradient-5" x1="947.19" y1="18.988" x2="939.19" y2="19.846" gradientUnits="objectBoundingBox">
      <stop offset="0" stop-color="#004182"/>
      <stop offset="1" stop-color="#1365b6"/>
    </linearGradient>
    <linearGradient id="linear-gradient-6" x1="125.12" y1="92.137" x2="124.801" y2="95.61" xlink:href="#linear-gradient-5"/>
    <linearGradient id="linear-gradient-7" x1="1033.449" y1="-9.899" x2="1030.608" y2="-3.626" xlink:href="#linear-gradient-5"/>
    <linearGradient id="linear-gradient-8" x1="4153.829" y1="-17.739" x2="4154.844" y2="-17.739" gradientUnits="objectBoundingBox">
      <stop offset="0" stop-color="#fedecb"/>
      <stop offset="1" stop-color="#ffb796"/>
    </linearGradient>
    <linearGradient id="linear-gradient-9" x1="1350.661" y1="-1.177" x2="1347.504" y2="-0.323" xlink:href="#linear-gradient-5"/>
    <linearGradient id="linear-gradient-10" x1="2556.036" y1="-13.46" x2="2549.011" y2="-5.94" xlink:href="#linear-gradient-5"/>
    <linearGradient id="linear-gradient-11" x1="4879.145" y1="-13.367" x2="4880.174" y2="-13.367" xlink:href="#linear-gradient-8"/>
    <linearGradient id="linear-gradient-12" x1="852.316" y1="-1.233" x2="850.324" y2="-0.388" xlink:href="#linear-gradient-5"/>
    <linearGradient id="linear-gradient-13" x1="23.76" y1="-19.675" x2="22.724" y2="-18.993" xlink:href="#linear-gradient-4"/>
    <linearGradient id="linear-gradient-14" x1="790.372" y1="-2.629" x2="791.359" y2="-2.629" xlink:href="#linear-gradient-8"/>
    <linearGradient id="linear-gradient-15" x1="60.624" y1="-49.872" x2="58.015" y2="-48.143" xlink:href="#linear-gradient-4"/>
    <linearGradient id="linear-gradient-16" x1="635.335" y1="-4.961" x2="636.339" y2="-4.961" xlink:href="#linear-gradient-8"/>
    <linearGradient id="linear-gradient-17" x1="392.924" y1="435.848" x2="393.128" y2="437.032" xlink:href="#linear-gradient-5"/>
    <linearGradient id="linear-gradient-18" x1="572.316" y1="-0.032" x2="572.825" y2="2.468" xlink:href="#linear-gradient-5"/>
    <linearGradient id="linear-gradient-19" x1="1977.9" y1="0.629" x2="1978.897" y2="0.629" xlink:href="#linear-gradient-8"/>
    <linearGradient id="linear-gradient-20" x1="-359.089" y1="63.969" x2="-359.701" y2="64.587" xlink:href="#linear-gradient-5"/>
    <linearGradient id="linear-gradient-21" x1="1.815" y1="-0.609" x2="0.995" y2="0.109" xlink:href="#linear-gradient-4"/>
    <linearGradient id="linear-gradient-22" x1="-1107.275" y1="195.877" x2="-1109.159" y2="197.779" xlink:href="#linear-gradient-5"/>
    <linearGradient id="linear-gradient-23" x1="473.251" y1="1.812" x2="474.671" y2="0.679" xlink:href="#linear-gradient-8"/>
    <linearGradient id="linear-gradient-24" x1="1127.196" y1="2.474" x2="1128.186" y2="2.474" xlink:href="#linear-gradient-5"/>
    <linearGradient id="linear-gradient-25" x1="845.41" y1="0.962" x2="841.625" y2="1.293" xlink:href="#linear-gradient-8"/>
    <linearGradient id="linear-gradient-26" x1="942.295" y1="2.822" x2="943.28" y2="2.822" xlink:href="#linear-gradient-5"/>
    <linearGradient id="linear-gradient-27" x1="1.979" y1="-0.26" x2="0.955" y2="0.286" xlink:href="#linear-gradient-5"/>
    <linearGradient id="linear-gradient-28" x1="601.98" y1="16.477" x2="604.938" y2="14.301" xlink:href="#linear-gradient-8"/>
    <linearGradient id="linear-gradient-29" x1="361.086" y1="65.946" x2="360.678" y2="67.08" xlink:href="#linear-gradient-5"/>
    <linearGradient id="linear-gradient-30" x1="1006.896" y1="103.653" x2="1008.032" y2="103.653" xlink:href="#linear-gradient-8"/>
    <linearGradient id="linear-gradient-31" x1="144.115" y1="18.459" x2="144.806" y2="17.542" xlink:href="#linear-gradient-5"/>
    <linearGradient id="linear-gradient-32" x1="316.517" y1="89.461" x2="315.279" y2="92.973" xlink:href="#linear-gradient-5"/>
    <linearGradient id="linear-gradient-33" x1="307.634" y1="148.248" x2="308.566" y2="148.248" xlink:href="#linear-gradient-2"/>
    <linearGradient id="linear-gradient-34" x1="847.248" y1="109.181" x2="848.146" y2="109.181" xlink:href="#linear-gradient-8"/>
    <linearGradient id="linear-gradient-35" x1="114.927" y1="15.237" x2="114.957" y2="14.251" xlink:href="#linear-gradient-5"/>
    <linearGradient id="linear-gradient-36" x1="270.674" y1="53.68" x2="271.668" y2="53.68" xlink:href="#linear-gradient-8"/>
    <linearGradient id="linear-gradient-37" x1="-0.872" y1="1.243" x2="0.466" y2="0.562" xlink:href="#linear-gradient-4"/>
    <linearGradient id="linear-gradient-38" x1="457.496" y1="57.879" x2="458.622" y2="57.879" xlink:href="#linear-gradient-8"/>
    <linearGradient id="linear-gradient-39" x1="-2.664" y1="1.796" x2="-0.403" y2="0.863" xlink:href="#linear-gradient-4"/>
    <linearGradient id="linear-gradient-40" x1="309.483" y1="18.447" x2="310.764" y2="18.447" xlink:href="#linear-gradient-5"/>
    <linearGradient id="linear-gradient-41" x1="864.752" y1="69.642" x2="867.163" y2="66.958" xlink:href="#linear-gradient-8"/>
    <linearGradient id="linear-gradient-42" x1="423.33" y1="240.765" x2="422.591" y2="242.955" xlink:href="#linear-gradient-5"/>
    <linearGradient id="linear-gradient-43" x1="326.105" y1="0.136" x2="325.702" y2="0.792" xlink:href="#linear-gradient-5"/>
  </defs>
  <g id="Grupo_85927" data-name="Grupo 85927" transform="translate(1140.26 -176.779)">
    <path id="Trazado_138744" data-name="Trazado 138744" d="M-911.558,390.912A84.77,84.77,0,0,1-924.637,401.7c-42.614,29.92-92.579,20.56-103.2,18.29-15.677-3.351-45.979-9.829-67.668-35.871-32.814-39.4-27.013-100.884-.834-141.242,4.789-7.382,30.1-48.367,80.766-54.463,30.66-3.69,66.27,4.748,91.9,26.668C-869.882,261.092-874.685,352.881-911.558,390.912Z" transform="translate(4.058 1.975)" fill="url(#linear-gradient)"/>
    <g id="Grupo_85898" data-name="Grupo 85898" transform="translate(-1140.26 176.779)">
      <g id="Grupo_85896" data-name="Grupo 85896">
        <circle id="Elipse_4412" data-name="Elipse 4412" cx="90.775" cy="90.775" r="90.775" transform="translate(0 128.375) rotate(-45)" fill="#c0f9ff"/>
        <g id="Grupo_85893" data-name="Grupo 85893" transform="translate(47.022 47.022)">
          <circle id="Elipse_4413" data-name="Elipse 4413" cx="77.473" cy="77.473" r="77.473" transform="translate(3.881 3.88)" fill="url(#linear-gradient-2)"/>
          <path id="Trazado_138745" data-name="Trazado 138745" d="M-1019.991,379.231a81.447,81.447,0,0,1-80.517-82.182,81.445,81.445,0,0,1,82.182-80.517,81.445,81.445,0,0,1,80.517,82.181A81.446,81.446,0,0,1-1019.991,379.231Zm1.625-158.819a77.559,77.559,0,0,0-78.261,76.675,77.559,77.559,0,0,0,76.676,78.262,77.56,77.56,0,0,0,78.262-76.676A77.561,77.561,0,0,0-1018.365,220.413Z" transform="translate(1100.512 -216.528)" fill="#fff"/>
        </g>
        <g id="Grupo_85894" data-name="Grupo 85894" transform="translate(71.2 71.2)">
          <circle id="Elipse_4414" data-name="Elipse 4414" cx="47.231" cy="47.231" r="47.231" transform="translate(0 91.709) rotate(-76.131)" fill="url(#linear-gradient-3)"/>
          <path id="Trazado_138746" data-name="Trazado 138746" d="M-1024.358,344.314a51.17,51.17,0,0,1-50.586-51.633,51.17,51.17,0,0,1,51.632-50.585,51.169,51.169,0,0,1,50.586,51.632A51.17,51.17,0,0,1-1024.358,344.314Zm.966-94.458a43.4,43.4,0,0,0-43.793,42.905,43.4,43.4,0,0,0,42.905,43.792,43.4,43.4,0,0,0,43.792-42.905A43.4,43.4,0,0,0-1023.392,249.856Z" transform="translate(1081.011 -236.028)" fill="#fff"/>
        </g>
        <g id="Grupo_85895" data-name="Grupo 85895" transform="translate(106.196 106.196)">
          <circle id="Elipse_4415" data-name="Elipse 4415" cx="18.299" cy="18.299" r="18.299" transform="matrix(0.24, -0.971, 0.971, 0.24, 0.028, 35.558)" fill="url(#linear-gradient-4)"/>
          <path id="Trazado_138747" data-name="Trazado 138747" d="M-1028.538,310.907a22.2,22.2,0,0,1-21.951-22.4,22.2,22.2,0,0,1,22.406-21.951,22.2,22.2,0,0,1,21.951,22.4A22.2,22.2,0,0,1-1028.538,310.907Zm.375-36.6a14.434,14.434,0,0,0-14.566,14.27,14.437,14.437,0,0,0,14.27,14.566,14.436,14.436,0,0,0,14.566-14.271A14.434,14.434,0,0,0-1028.163,274.311Z" transform="translate(1050.49 -266.55)" fill="#fff"/>
        </g>
      </g>
      <g id="Grupo_85897" data-name="Grupo 85897" transform="translate(127.981 33.098)">
        <rect id="Rectángulo_15637" data-name="Rectángulo 15637" width="2.726" height="103.216" transform="translate(16.07 83.968) rotate(-134.415)" fill="url(#linear-gradient-5)"/>
        <path id="Trazado_138748" data-name="Trazado 138748" d="M-1016.5,270.2c1.117-1.094,6.276,4.172,5.159,5.267l-19.488,15a.768.768,0,0,1-1.067-1.09Z" transform="translate(1032.074 -192.812)" fill="url(#linear-gradient-6)"/>
        <path id="Trazado_138749" data-name="Trazado 138749" d="M-953.006,214.712l9.808,1.075-13.616,13.342a20.841,20.841,0,0,1-16.856,5.829h0Z" transform="translate(1042.761 -202.937)" fill="#65daff"/>
        <path id="Trazado_138750" data-name="Trazado 138750" d="M-954.6,214.586l-.875-9.828L-969.1,218.1a20.84,20.84,0,0,0-6.173,16.733h0Z" transform="translate(1042.453 -204.758)" fill="#65daff"/>
      </g>
    </g>
    <g id="Grupo_85909" data-name="Grupo 85909" transform="translate(-1107.052 189.253)">
      <g id="Grupo_85903" data-name="Grupo 85903" transform="translate(0 6.062)">
        <g id="Grupo_85899" data-name="Grupo 85899" opacity="0.3">
          <path id="Trazado_138751" data-name="Trazado 138751" d="M-1064.3,201.869a.7.7,0,0,1-.994-.011c-.528-.538-1.086-1.062-1.661-1.557a.7.7,0,0,1-.083-.979l.01-.011a.7.7,0,0,1,.99-.075c.6.521,1.192,1.072,1.747,1.638a.7.7,0,0,1,.04.939C-1064.266,201.834-1064.282,201.852-1064.3,201.869Zm-5.614-3.781c-.636-.41-1.3-.8-1.961-1.152a.7.7,0,0,1-.29-.95.7.7,0,0,1,.95-.29c.7.371,1.395.78,2.064,1.213a.7.7,0,0,1,.208.971.717.717,0,0,1-.05.067A.7.7,0,0,1-1069.914,198.088Zm-5.335-2.656c-.71-.259-1.44-.49-2.168-.686a.7.7,0,0,1-.5-.861.7.7,0,0,1,.861-.5c.768.207,1.537.451,2.283.723a.7.7,0,0,1,.42.9.707.707,0,0,1-.118.208A.7.7,0,0,1-1075.249,195.433Zm-5.8-1.4c-.751-.093-1.514-.155-2.269-.183a.7.7,0,0,1-.674-.729.7.7,0,0,1,.729-.675c.794.031,1.6.1,2.387.194a.7.7,0,0,1,.61.783.707.707,0,0,1-.155.361A.7.7,0,0,1-1081.045,194.036Zm-5.963-.07c-.75.075-1.508.183-2.252.323a.7.7,0,0,1-.819-.562.7.7,0,0,1,.561-.82c.783-.146,1.58-.26,2.371-.34a.7.7,0,0,1,.769.629.7.7,0,0,1-.157.518A.7.7,0,0,1-1087.008,193.966Zm-5.828,1.25c-.717.24-1.431.513-2.125.813a.7.7,0,0,1-.924-.366.7.7,0,0,1,.366-.924c.731-.316,1.483-.6,2.237-.855a.7.7,0,0,1,.89.442.7.7,0,0,1-.126.672A.7.7,0,0,1-1092.837,195.216Zm-18.109,18.771a.7.7,0,0,1-.495-.862c.208-.767.453-1.534.728-2.283a.7.7,0,0,1,.9-.418.7.7,0,0,1,.418.9c-.26.71-.493,1.44-.691,2.167a.685.685,0,0,1-.136.264A.7.7,0,0,1-1110.946,213.988Zm12.705-16.261c-.645.393-1.28.819-1.889,1.265a.7.7,0,0,1-.982-.15.7.7,0,0,1,.151-.982c.64-.471,1.309-.919,1.988-1.332a.7.7,0,0,1,.965.234.7.7,0,0,1-.058.814A.731.731,0,0,1-1098.24,197.727Zm-10.594,10.515a.7.7,0,0,1-.289-.951c.375-.7.784-1.395,1.219-2.062a.7.7,0,0,1,.971-.207.7.7,0,0,1,.207.971c-.412.635-.8,1.294-1.157,1.96a.757.757,0,0,1-.079.117A.7.7,0,0,1-1108.834,208.242Zm5.888-6.861c-.541.526-1.066,1.084-1.56,1.656a.7.7,0,0,1-.99.072.7.7,0,0,1-.082-.979l.01-.011c.521-.6,1.073-1.19,1.641-1.744a.7.7,0,0,1,.994.012.7.7,0,0,1,.039.938C-1102.912,201.344-1102.929,201.363-1102.946,201.381Z" transform="translate(1112.32 -192.448)" fill="#2eadff"/>
          <path id="Trazado_138752" data-name="Trazado 138752" d="M-1110.943,214.918a.708.708,0,0,0,.159-.388c.029-.361.068-.728.113-1.088a.7.7,0,0,0-.609-.784.7.7,0,0,0-.784.609c-.049.381-.089.765-.121,1.145a.7.7,0,0,0,.641.759A.7.7,0,0,0-1110.943,214.918Z" transform="translate(1112.188 -188.751)" fill="#2eadff"/>
        </g>
        <g id="Grupo_85900" data-name="Grupo 85900" transform="translate(5.957 28.383)" opacity="0.3">
          <path id="Trazado_138753" data-name="Trazado 138753" d="M-1105.184,232.076a.7.7,0,0,0-.014-.91c-.239-.272-.475-.555-.7-.838a.7.7,0,0,0-.988-.105.7.7,0,0,0-.105.988c.241.3.491.6.743.881a.7.7,0,0,0,.991.065A.869.869,0,0,0-1105.184,232.076Z" transform="translate(1107.152 -213.947)" fill="#2eadff"/>
          <path id="Trazado_138754" data-name="Trazado 138754" d="M-1064.987,234.3a.7.7,0,0,1-.993.045.7.7,0,0,1-.044-.992c.5-.545.981-1.12,1.441-1.715a.7.7,0,0,1,.985-.125.7.7,0,0,1,.126.985c-.2.257-.4.511-.608.759C-1064.373,233.612-1064.678,233.964-1064.987,234.3Zm2.687-4.726a.7.7,0,0,1-.258-.958c.371-.646.719-1.314,1.034-1.986a.7.7,0,0,1,.935-.338.7.7,0,0,1,.338.935c-.332.707-.7,1.411-1.09,2.09a.722.722,0,0,1-.069.1A.7.7,0,0,1-1062.3,229.575Zm-5.456,7.368c-.6.5-1.231.98-1.875,1.428a.7.7,0,0,1-.977-.175.7.7,0,0,1,.174-.977c.612-.426,1.21-.881,1.78-1.356a.7.7,0,0,1,.99.091.7.7,0,0,1,0,.9A.681.681,0,0,1-1067.756,236.942Zm8.009-12.823a.7.7,0,0,1-.463-.879c.22-.71.413-1.439.571-2.164a.7.7,0,0,1,.838-.536.7.7,0,0,1,.535.836c-.168.764-.37,1.532-.6,2.28a.71.71,0,0,1-.13.239A.7.7,0,0,1-1059.747,224.119Zm-13.164,16.217c-.7.355-1.417.684-2.142.981a.7.7,0,0,1-.916-.386.7.7,0,0,1,.386-.916c.689-.282,1.374-.594,2.035-.931a.7.7,0,0,1,.944.306.7.7,0,0,1-.084.768A.73.73,0,0,1-1072.911,240.336Zm-5.775,2.18c-.758.2-1.533.36-2.3.49a.7.7,0,0,1-.809-.575.7.7,0,0,1,.575-.81c.732-.124,1.469-.28,2.19-.465a.7.7,0,0,1,.855.506.7.7,0,0,1-.14.622A.7.7,0,0,1-1078.687,242.517Zm-6.114.871c-.782.025-1.576.017-2.355-.024a.7.7,0,0,1-.665-.738.7.7,0,0,1,.737-.665c.742.039,1.5.046,2.239.022a.7.7,0,0,1,.724.68.7.7,0,0,1-.161.47A.7.7,0,0,1-1084.8,243.387Zm-6.157-.484c-.769-.147-1.541-.329-2.294-.541a.7.7,0,0,1-.487-.866.7.7,0,0,1,.866-.486c.716.2,1.449.373,2.18.513a.7.7,0,0,1,.557.821.7.7,0,0,1-.148.316A.705.705,0,0,1-1090.958,242.9Zm-5.9-1.827c-.717-.312-1.429-.659-2.118-1.032a.7.7,0,0,1-.284-.952.7.7,0,0,1,.951-.284c.654.354,1.331.684,2.012.981a.7.7,0,0,1,.363.924.725.725,0,0,1-.1.168A.7.7,0,0,1-1096.861,241.077Zm-5.353-3.075c-.465-.34-.926-.7-1.369-1.063-.16-.134-.318-.267-.476-.4a.694.694,0,0,1-.071-.99.7.7,0,0,1,.99-.072c.149.129.3.257.452.383.421.349.859.689,1.3,1.011a.7.7,0,0,1,.153.982l-.026.034A.7.7,0,0,1-1102.214,238Z" transform="translate(1107.673 -215.693)" fill="#2eadff"/>
          <path id="Trazado_138755" data-name="Trazado 138755" d="M-1064.851,218.711a.7.7,0,0,0,.158-.392c.031-.379.053-.767.067-1.15a.7.7,0,0,0-.675-.729.7.7,0,0,0-.729.675c-.013.364-.035.732-.064,1.092a.7.7,0,0,0,.645.756A.7.7,0,0,0-1064.851,218.711Z" transform="translate(1114.664 -216.441)" fill="#2eadff"/>
        </g>
        <g id="Grupo_85902" data-name="Grupo 85902" transform="translate(6.668 6.797)">
          <path id="Trazado_138756" data-name="Trazado 138756" d="M-1065.257,212.883a.328.328,0,0,0-.277-.261l-3.958-.547a17.379,17.379,0,0,0-3.124-4.694l1.021-3.86a.33.33,0,0,0-.135-.357l-3.981-2.669a.327.327,0,0,0-.381.012l-3.183,2.41a17.43,17.43,0,0,0-5.529-1.106l-2.009-3.453a.328.328,0,0,0-.348-.157l-4.7.927a.328.328,0,0,0-.261.278l-.547,3.957a17.4,17.4,0,0,0-4.7,3.124l-3.86-1.021a.329.329,0,0,0-.356.135l-2.669,3.981a.329.329,0,0,0,.01.381l2.411,3.183a17.376,17.376,0,0,0-1.106,5.529l-3.454,2.009a.329.329,0,0,0-.156.348l.927,4.7a.329.329,0,0,0,.277.263l3.958.547a17.4,17.4,0,0,0,3.124,4.694l-1.021,3.86a.327.327,0,0,0,.135.356l3.981,2.669a.329.329,0,0,0,.381-.011l3.183-2.411a17.394,17.394,0,0,0,5.529,1.107l2.009,3.453a.328.328,0,0,0,.347.157l4.7-.929a.328.328,0,0,0,.261-.277l.547-3.958a17.4,17.4,0,0,0,4.694-3.123l3.861,1.02a.327.327,0,0,0,.356-.134l2.669-3.982a.329.329,0,0,0-.01-.381l-2.411-3.182a17.406,17.406,0,0,0,1.106-5.529l3.454-2.01a.327.327,0,0,0,.156-.347Z" transform="translate(1106.551 -198.194)" fill="#2eadff"/>
          <g id="Grupo_85901" data-name="Grupo 85901" transform="translate(16.296 16.3)">
            <path id="Trazado_138757" data-name="Trazado 138757" d="M-1084.735,220.367a4.823,4.823,0,0,1-6.8-.357,4.791,4.791,0,0,1-1.23-3.476,4.79,4.79,0,0,1,1.588-3.328,4.823,4.823,0,0,1,6.8.357,4.825,4.825,0,0,1,.134,6.292A4.846,4.846,0,0,1-1084.735,220.367Zm-6.911-3.774a3.661,3.661,0,0,0,.944,2.664,3.7,3.7,0,0,0,5.216.274,3.7,3.7,0,0,0,.273-5.217,3.7,3.7,0,0,0-5.216-.273,3.744,3.744,0,0,0-.38.4A3.675,3.675,0,0,0-1091.646,216.594Z" transform="translate(1092.776 -211.972)" fill="#c0efff"/>
          </g>
          <path id="Trazado_138758" data-name="Trazado 138758" d="M-1077.845,225.454a11.9,11.9,0,0,0,.728-.975h0c.072-.108.142-.215.211-.324a11.906,11.906,0,0,0,.874-1.685l.01-.024.029-.067.053-.133a.28.28,0,0,0-.082-.319.258.258,0,0,0-.076-.045.281.281,0,0,0-.364.157,11.415,11.415,0,0,1-1.12,2.126,11.282,11.282,0,0,1-9.651,4.993,11.211,11.211,0,0,1-6-1.9,11.255,11.255,0,0,1-.931-.694,11.192,11.192,0,0,1-3.855-6.492,11.209,11.209,0,0,1,1.7-8.468,11.3,11.3,0,0,1,15.654-3.09,11.444,11.444,0,0,1,.919.686,11.258,11.258,0,0,1,3,3.868.276.276,0,0,0,.074.1.28.28,0,0,0,.3.038.28.28,0,0,0,.134-.374,11.812,11.812,0,0,0-3.153-4.062q-.461-.382-.964-.719a11.86,11.86,0,0,0-16.435,3.243,11.771,11.771,0,0,0-1.782,8.89,11.75,11.75,0,0,0,4.048,6.816,11.979,11.979,0,0,0,.977.729,11.773,11.773,0,0,0,8.889,1.783A11.755,11.755,0,0,0-1077.845,225.454Z" transform="translate(1107.969 -196.758)" fill="#c0efff"/>
        </g>
      </g>
      <g id="Grupo_85908" data-name="Grupo 85908" transform="translate(45.745)">
        <g id="Grupo_85904" data-name="Grupo 85904" opacity="0.3">
          <path id="Trazado_138759" data-name="Trazado 138759" d="M-1046.363,194.983a.433.433,0,0,0,.025-.519c-.206-.305-.423-.609-.648-.9a.433.433,0,0,0-.608-.08.433.433,0,0,0-.08.608c.214.279.421.568.619.859a.434.434,0,0,0,.6.117A.439.439,0,0,0-1046.363,194.983Z" transform="translate(1078.231 -186.213)" fill="#2eadff"/>
          <path id="Trazado_138760" data-name="Trazado 138760" d="M-1043.794,193.543a.434.434,0,0,1-.613,0,18.109,18.109,0,0,0-1.341-1.23q-.147-.122-.3-.241a.436.436,0,0,1-.071-.61.45.45,0,0,1,.61-.07c.105.084.209.168.312.253a19.075,19.075,0,0,1,1.406,1.291.432.432,0,0,1,.026.58A.444.444,0,0,1-1043.794,193.543Zm-4.059-2.739a18,18,0,0,0-1.946-1.03.435.435,0,0,1-.216-.575.435.435,0,0,1,.575-.215,18.785,18.785,0,0,1,2.04,1.081.433.433,0,0,1,.144.6.512.512,0,0,1-.037.051A.432.432,0,0,1-1047.853,190.8Zm-4.005-1.813a17.709,17.709,0,0,0-2.141-.522.433.433,0,0,1-.35-.5.433.433,0,0,1,.5-.351,18.709,18.709,0,0,1,2.245.547.435.435,0,0,1,.286.543.427.427,0,0,1-.08.148A.435.435,0,0,1-1051.859,188.991Zm-4.33-.775a17.774,17.774,0,0,0-2.2.019.433.433,0,0,1-.463-.4.434.434,0,0,1,.4-.464,18.8,18.8,0,0,1,2.309-.019.434.434,0,0,1,.41.457.435.435,0,0,1-.1.253A.43.43,0,0,1-1056.188,188.216Zm-4.386.306a18.091,18.091,0,0,0-2.133.552.434.434,0,0,1-.547-.278.432.432,0,0,1,.278-.547,18.9,18.9,0,0,1,2.235-.58.433.433,0,0,1,.509.343.431.431,0,0,1-.091.36A.434.434,0,0,1-1060.575,188.522Zm-4.181,1.362a17.634,17.634,0,0,0-1.931,1.055.435.435,0,0,1-.6-.136.436.436,0,0,1,.136-.6,18.742,18.742,0,0,1,2.025-1.106.434.434,0,0,1,.577.208.434.434,0,0,1-.059.461A.434.434,0,0,1-1064.755,189.884Zm-3.718,2.341a17.9,17.9,0,0,0-1.614,1.5.435.435,0,0,1-.614.014.437.437,0,0,1-.015-.613,18.788,18.788,0,0,1,1.694-1.571.435.435,0,0,1,.61.06.435.435,0,0,1,0,.551A.407.407,0,0,1-1068.474,192.225Zm-4.825,5.194a.434.434,0,0,1-.163-.591,18.569,18.569,0,0,1,1.081-1.689c.059-.083.118-.164.179-.246a.429.429,0,0,1,.608-.089.434.434,0,0,1,.089.607c-.057.076-.112.153-.169.232a17.8,17.8,0,0,0-1.033,1.614.5.5,0,0,1-.044.063A.433.433,0,0,1-1073.3,197.42Z" transform="translate(1073.519 -187.323)" fill="#2eadff"/>
        </g>
        <g id="Grupo_85905" data-name="Grupo 85905" transform="translate(11.818 19.006)" opacity="0.3">
          <path id="Trazado_138761" data-name="Trazado 138761" d="M-1044.721,214.76a18.882,18.882,0,0,1-1.572,1.638.434.434,0,0,1-.613-.025.436.436,0,0,1,.024-.613,17.671,17.671,0,0,0,1.5-1.563.434.434,0,0,1,.612-.05.434.434,0,0,1,.053.607Zm.764-1.694a.435.435,0,0,1-.123-.6,18.236,18.236,0,0,0,1.086-1.876.435.435,0,0,1,.582-.194.435.435,0,0,1,.194.582,19.02,19.02,0,0,1-1.138,1.966.235.235,0,0,1-.028.038A.433.433,0,0,1-1043.957,213.066Zm-4.1,4.769a18.784,18.784,0,0,1-1.922,1.21.434.434,0,0,1-.589-.173.433.433,0,0,1,.172-.588,17.92,17.92,0,0,0,1.835-1.155.433.433,0,0,1,.6.1.435.435,0,0,1-.018.53A.453.453,0,0,1-1048.055,217.835Zm6.174-8.685a.433.433,0,0,1-.264-.554,17.979,17.979,0,0,0,.6-2.082.433.433,0,0,1,.517-.329.432.432,0,0,1,.329.517,18.418,18.418,0,0,1-.629,2.185.435.435,0,0,1-.074.131A.433.433,0,0,1-1041.881,209.149Zm-10.151,10.862a18.853,18.853,0,0,1-2.157.712.433.433,0,0,1-.53-.309.432.432,0,0,1,.309-.53,18.274,18.274,0,0,0,2.057-.679.433.433,0,0,1,.563.243.437.437,0,0,1-.069.438A.437.437,0,0,1-1052.032,220.011Zm-4.383,1.159a18.907,18.907,0,0,1-2.265.176.435.435,0,0,1-.441-.427.435.435,0,0,1,.427-.441,18.135,18.135,0,0,0,2.16-.167.434.434,0,0,1,.49.37.437.437,0,0,1-.1.336A.435.435,0,0,1-1056.415,221.171Zm-4.536.077a18.814,18.814,0,0,1-2.242-.374.432.432,0,0,1-.325-.519.434.434,0,0,1,.519-.327,17.547,17.547,0,0,0,2.138.356.435.435,0,0,1,.387.477.438.438,0,0,1-.1.232A.436.436,0,0,1-1060.95,221.247Z" transform="translate(1063.529 -202.88)" fill="#2eadff"/>
          <path id="Trazado_138762" data-name="Trazado 138762" d="M-1043.886,205.181a.434.434,0,0,0,.1-.234c.036-.369.06-.742.075-1.106a.435.435,0,0,0-.418-.451.435.435,0,0,0-.45.418c-.013.348-.037.7-.071,1.055a.434.434,0,0,0,.389.474A.436.436,0,0,0-1043.886,205.181Z" transform="translate(1066.982 -203.39)" fill="#2eadff"/>
        </g>
        <g id="Grupo_85907" data-name="Grupo 85907" transform="translate(2.113 4.526)">
          <path id="Trazado_138763" data-name="Trazado 138763" d="M-1044.1,200.979a.217.217,0,0,0-.186-.175l-2.647-.367a11.678,11.678,0,0,0-2.091-3.141l.684-2.584a.22.22,0,0,0-.09-.238l-2.664-1.786a.223.223,0,0,0-.256.007l-2.129,1.614a11.642,11.642,0,0,0-3.7-.741l-1.344-2.31a.219.219,0,0,0-.233-.105l-3.145.621a.219.219,0,0,0-.175.185l-.365,2.649a11.659,11.659,0,0,0-3.142,2.09l-2.582-.683a.22.22,0,0,0-.239.09l-1.786,2.664a.219.219,0,0,0,.008.254l1.612,2.131a11.643,11.643,0,0,0-.74,3.7l-2.31,1.345a.219.219,0,0,0-.105.232l.621,3.147a.219.219,0,0,0,.186.175l2.648.366a11.66,11.66,0,0,0,2.091,3.142l-.684,2.582a.222.222,0,0,0,.09.239l2.664,1.785a.221.221,0,0,0,.256-.007l2.129-1.614a11.61,11.61,0,0,0,3.7.741l1.344,2.312a.222.222,0,0,0,.233.105l3.146-.621a.219.219,0,0,0,.175-.186l.365-2.649a11.633,11.633,0,0,0,3.142-2.09l2.582.684a.221.221,0,0,0,.239-.091l1.786-2.663a.22.22,0,0,0-.008-.256l-1.612-2.129a11.683,11.683,0,0,0,.74-3.7l2.31-1.344a.22.22,0,0,0,.105-.233Z" transform="translate(1071.732 -191.149)" fill="#2eadff"/>
          <g id="Grupo_85906" data-name="Grupo 85906" transform="translate(10.849 10.849)">
            <path id="Trazado_138764" data-name="Trazado 138764" d="M-1057.086,206.038a3.258,3.258,0,0,1-2.367.839,3.261,3.261,0,0,1-2.267-1.081,3.286,3.286,0,0,1,.242-4.635,3.285,3.285,0,0,1,4.634.244,3.256,3.256,0,0,1,.839,2.367,3.26,3.26,0,0,1-.744,1.915A3.371,3.371,0,0,1-1057.086,206.038Zm-3.99-.823a2.4,2.4,0,0,0,1.668.8,2.4,2.4,0,0,0,1.741-.618h0a2.4,2.4,0,0,0,.8-1.667,2.4,2.4,0,0,0-.618-1.741,2.416,2.416,0,0,0-3.408-.18,2.4,2.4,0,0,0-.246.256A2.42,2.42,0,0,0-1061.076,205.215Z" transform="translate(1062.561 -200.32)" fill="#c0efff"/>
          </g>
          <path id="Trazado_138765" data-name="Trazado 138765" d="M-1052.29,209.58q.262-.318.5-.666a8.186,8.186,0,0,0,.782-1.47l.028-.069a.435.435,0,0,0-.127-.494.444.444,0,0,0-.117-.07.435.435,0,0,0-.563.244,7.281,7.281,0,0,1-.724,1.376h0l-.048.071a7.245,7.245,0,0,1-2.684,2.365,7.357,7.357,0,0,1-1.856.651l-.017,0-.048.009a7.258,7.258,0,0,1-5.481-1.1,7.4,7.4,0,0,1-.6-.45,7.249,7.249,0,0,1-2.5-4.2,7.261,7.261,0,0,1,1.1-5.482,7.266,7.266,0,0,1,4.653-3.1,7.261,7.261,0,0,1,5.482,1.1c.206.138.4.287.595.444a7.276,7.276,0,0,1,1.944,2.506.451.451,0,0,0,.116.149.434.434,0,0,0,.461.058.435.435,0,0,0,.208-.577,8.167,8.167,0,0,0-2.175-2.8,8.285,8.285,0,0,0-.665-.5,8.124,8.124,0,0,0-6.134-1.229,8.105,8.105,0,0,0-5.205,3.467,8.11,8.11,0,0,0-1.229,6.133,8.106,8.106,0,0,0,2.792,4.7q.323.266.674.5A8.184,8.184,0,0,0-1052.29,209.58Z" transform="translate(1072.643 -190.227)" fill="#c0efff"/>
        </g>
      </g>
    </g>
    <g id="Grupo_85915" data-name="Grupo 85915" transform="translate(-1111.51 292.661)">
      <path id="Trazado_138766" data-name="Trazado 138766" d="M-1093.1,380.341s-.515,2.614-.794,5.206a1.79,1.79,0,0,0,1.674,1.973c3.454.212,10.847.639,13.5.573a.582.582,0,0,0,.528-.788,1.3,1.3,0,0,0-.653-.714l-12.108-5.858Z" transform="translate(1119.992 -255.414)" fill="url(#linear-gradient-7)"/>
      <path id="Trazado_138767" data-name="Trazado 138767" d="M-1093.52,379.1l.31,3.146s2.121,1.039,3.606-.054l-.818-3.515Z" transform="translate(1120.063 -255.719)" fill="url(#linear-gradient-8)"/>
      <path id="Trazado_138768" data-name="Trazado 138768" d="M-1090.782,329.2c-.177.816-1.671,40.874,2.256,58.917a.609.609,0,0,1-.371.7,10.613,10.613,0,0,1-3.5.64,1.048,1.048,0,0,1-1.026-.774c-1.143-4.191-6.6-25.182-6.968-45.139-.414-22.3.015-.758.015-.758l.774-13.764Z" transform="translate(1118.772 -264.805)" fill="url(#linear-gradient-9)"/>
      <path id="Trazado_138769" data-name="Trazado 138769" d="M-1104.885,381.263a18.847,18.847,0,0,0-1.547,4.815,1.091,1.091,0,0,0,.935,1.326c1.139.135,2.895.315,4.3.332a1.088,1.088,0,0,0,1.1-1.192,9.181,9.181,0,0,0-2.043-5.077Z" transform="translate(1117.695 -255.246)" fill="url(#linear-gradient-10)"/>
      <path id="Trazado_138770" data-name="Trazado 138770" d="M-1105.609,377.86l.776,4.761a3.064,3.064,0,0,0,2.558.227l-.315-5.114Z" transform="translate(1117.851 -255.891)" fill="url(#linear-gradient-11)"/>
      <path id="Trazado_138771" data-name="Trazado 138771" d="M-1106.376,330.215c-3.922,21.072-.273,52.27,1.043,58.388a.95.95,0,0,0,.752.736,6.359,6.359,0,0,0,2.742-.056.87.87,0,0,0,.642-.789c.29-4.919.541-35.15,4.041-47.029a2.712,2.712,0,0,1,1.077-1.476l6.425-4.378.629-7.272Z" transform="translate(1117.387 -264.929)" fill="url(#linear-gradient-12)"/>
      <g id="Grupo_85910" data-name="Grupo 85910" transform="translate(10.001 9.988)">
        <path id="Trazado_138772" data-name="Trazado 138772" d="M-1083.377,296.666c-10.5-.381-22.137,2.32-22.137,2.32-3.491,18.2-1.325,39.311-1.325,39.311,8.086,2.293,17.321-.961,17.321-.961,1.5-7.606,8.23-28.961,8.23-28.961a34.574,34.574,0,0,0,12.916-3.819,22.516,22.516,0,0,1-4.265-9.394A35.217,35.217,0,0,1-1083.377,296.666Z" transform="translate(1107.503 -280.988)" fill="url(#linear-gradient-13)"/>
        <path id="Trazado_138773" data-name="Trazado 138773" d="M-1057.453,284.008a2.011,2.011,0,0,0-2.324-.7c-1.674,6.5-9.879,11.626-18.252,14.049a22.516,22.516,0,0,0,4.265,9.394C-1059.8,299.255-1057.453,284.008-1057.453,284.008Z" transform="translate(1112.896 -283.18)" fill="url(#linear-gradient-14)"/>
      </g>
      <g id="Grupo_85911" data-name="Grupo 85911" transform="translate(63.167 0)">
        <path id="Trazado_138774" data-name="Trazado 138774" d="M-1060.541,285.864c.1.345-1.159.843-1.867-.574-.013-.673-.365-3.562.047-4.1a53.73,53.73,0,0,1,6.42-6.451.988.988,0,0,1,.1,1.375l-2.054,2.057a9.729,9.729,0,0,1,1.129,2.346,2.818,2.818,0,0,1-.322,2.07c-.365.629-.865,1.448-1.333,2.087A2.784,2.784,0,0,1-1060.541,285.864Z" transform="translate(1062.56 -274.737)" fill="#fedecb"/>
        <path id="Trazado_138775" data-name="Trazado 138775" d="M-1059,278.773l-1.866,1.519-.607,1.537,1.6,1.847a21.144,21.144,0,0,1,1.032-3.718C-1058.422,279.3-1058.627,278.975-1059,278.773Z" transform="translate(1062.758 -273.999)" fill="#fedecb"/>
      </g>
      <path id="Trazado_138776" data-name="Trazado 138776" d="M-1100.184,308.64l-3.826-10.246s-9.938,6.47-11.719,14.885a23.2,23.2,0,0,1,8.479,2.453C-1106.444,311.758-1100.184,308.64-1100.184,308.64Z" transform="translate(1115.999 -270.408)" fill="url(#linear-gradient-15)"/>
      <path id="Trazado_138777" data-name="Trazado 138777" d="M-1091.762,316.073s-11.133,6-14.743.617a4.181,4.181,0,0,1-.7-3.26,23.2,23.2,0,0,0-8.479-2.453,11.668,11.668,0,0,0,1.11,8.018c6.272,12.032,24.218-.179,24.218-.179Z" transform="translate(1115.957 -268.106)" fill="url(#linear-gradient-16)"/>
      <path id="Trazado_138778" data-name="Trazado 138778" d="M-1095.406,289.051l-3.532,9.594a.349.349,0,0,0,.151.422,7.852,7.852,0,0,0,8.155-.387,1.64,1.64,0,0,0,.777-1.156l1.247-8.34Z" transform="translate(1119.067 -272.118)" fill="#fedecb"/>
      <g id="Grupo_85912" data-name="Grupo 85912" transform="translate(17.39 3.056)">
        <path id="Trazado_138779" data-name="Trazado 138779" d="M-1088.331,281.61s3.532,6.977,3.007,9.757-5.068,2.49-8.993.147l-2.626-7.511Z" transform="translate(1102.046 -276.536)" fill="#fedecb"/>
        <path id="Trazado_138780" data-name="Trazado 138780" d="M-1093.279,288.64a.285.285,0,0,0,.132-.414,7.426,7.426,0,0,1-.978-2.186s-.651-.435,1.7-.949,5.852-1.313,6.625-3.289c.754-1.926-1.028-6.842-4.1-3.014a.286.286,0,0,1-.452-.006,2.934,2.934,0,0,0-3.55-1.231,2.69,2.69,0,0,0-1.894,2.565.284.284,0,0,1-.342.283,3.283,3.283,0,0,0-3.867,1.711c-.816,1.7-.327,2.688.126,3.173a.284.284,0,0,1-.131.468,1.708,1.708,0,0,0-1.243,1.925c.064,1.806,2.086,1.688,2.662,1.617a.286.286,0,0,1,.251.093c.481.555,2.656,2.914,5.052,3.24a.287.287,0,0,0,.309-.373l-.981-3.043a.286.286,0,0,1,.162-.351Z" transform="translate(1101.257 -277.321)" fill="url(#linear-gradient-17)"/>
        <path id="Trazado_138781" data-name="Trazado 138781" d="M-1093.732,287.4s-2.577-1.843-2.8-.338,2.309,2.232,3.58,1.694Z" transform="translate(1102.119 -275.646)" fill="#fedecb"/>
      </g>
      <g id="Grupo_85914" data-name="Grupo 85914" transform="translate(21.808 35.048)">
        <g id="Grupo_85913" data-name="Grupo 85913">
          <path id="Trazado_138782" data-name="Trazado 138782" d="M-1097.5,326.928l6.246-21a.613.613,0,0,1,.523-.438c1.094-.116,4.265-.441,7.922-.713a89.847,89.847,0,0,1,12.576-.289.617.617,0,0,1,.5.892c-1.774,3.5-9.068,17.724-12.694,22.371a.615.615,0,0,1-.5.239l-13.99-.273A.615.615,0,0,1-1097.5,326.928Z" transform="translate(1097.522 -304.364)" fill="url(#linear-gradient-18)"/>
          <path id="Trazado_138783" data-name="Trazado 138783" d="M-1096.141,320.257s-.8-3.464-.453-4.686,1.025-2.791,3.209-2.418a32.063,32.063,0,0,1,4.757,1.32,1.253,1.253,0,0,1-1.805,1.064l1.023.808s-.161,1.278-1.558.58l.949,1.068a1.118,1.118,0,0,1-1.641.36C-1092.687,317.669-1093.214,320.7-1096.141,320.257Z" transform="translate(1097.676 -302.766)" fill="url(#linear-gradient-19)"/>
        </g>
        <path id="Trazado_138784" data-name="Trazado 138784" d="M-1085.475,310.3a1.771,1.771,0,0,0,1.752,1.789,1.771,1.771,0,0,0,1.789-1.752,1.77,1.77,0,0,0-1.752-1.789A1.771,1.771,0,0,0-1085.475,310.3Z" transform="translate(1099.726 -303.599)" fill="#65daff"/>
        <path id="Trazado_138785" data-name="Trazado 138785" d="M-1091.627,311.945l1.271-4.152a1.426,1.426,0,0,1,1.082-.991c3.857-.764,14.392-.827,14.5-.827l0-.471c-.434,0-10.686.064-14.586.836a1.9,1.9,0,0,0-1.442,1.314l-1.271,4.152Z" transform="translate(1098.518 -304.156)" fill="#c0f9ff"/>
      </g>
    </g>
    <g id="Grupo_85926" data-name="Grupo 85926" transform="translate(-1008.765 293.375)">
      <g id="Grupo_85916" data-name="Grupo 85916" transform="translate(82.358)">
        <path id="Trazado_138786" data-name="Trazado 138786" d="M-958.836,285.861a.4.4,0,0,1,.736.086c.344,1.291,1.188,3.547,3,4.362.091.041.177.083.26.125a.922.922,0,0,0-.1-.836c-.556-.87.476-2.037.476-2.037a2.627,2.627,0,0,0,.839,1.7,2.524,2.524,0,0,1,.512,2.849c-1.022,3.809-2.546,8.844,3.15,12.592s13.88-6.821,13.88-6.821l-4.138,12.664s-6.232,4.5-13.362-1.991-2.266-15.784-2.266-15.784S-961.322,290.5-958.836,285.861Z" transform="translate(959.484 -273.455)" fill="#fedecb"/>
        <path id="Trazado_138787" data-name="Trazado 138787" d="M-938.259,281.109s-1.585-7.468,6.93-5.409c0,0,4.15-.634,4.32,3.278,0,0,2.653,1.788.664,5.152,0,0,7.968-2.985,11.355,4.008s.169,10.788-3.174,11.75a3.319,3.319,0,0,1,1.377,4.431c-1.31,3.047-7.8,5.139-11.588,1.377,0,0-10.893,1.327-10.6-6.355,0,0-5.025-3.319.354-9.615S-938.259,281.109-938.259,281.109Z" transform="translate(962.847 -275.341)" fill="url(#linear-gradient-20)"/>
        <path id="Trazado_138788" data-name="Trazado 138788" d="M-938.193,294.88a11.708,11.708,0,0,1,11.43,3.037,2.944,2.944,0,0,1,.817,2.94c-1.324,4.685-4.832,18.528-1.942,24.562,0,0-5.261,5.681-10.887,1,0,0-2.433-11.122-5.719-16.028-2.268-3.386,3.8-12.592,5.335-14.814A1.772,1.772,0,0,1-938.193,294.88Z" transform="translate(962.135 -271.844)" fill="url(#linear-gradient-21)"/>
        <path id="Trazado_138789" data-name="Trazado 138789" d="M-934.634,286.966s2.463,7.2,2.621,10.369a5.425,5.425,0,0,1-5.436-.933s-.2-7.169-.592-8.457Z" transform="translate(963.408 -273.214)" fill="#fedecb"/>
        <path id="Trazado_138790" data-name="Trazado 138790" d="M-937.432,278.672s-6.73,9.217-2.791,11.954,8.728-3.813,8.728-3.813,1.592-5.065,0-6.807S-937.432,278.672-937.432,278.672Z" transform="translate(962.782 -274.739)" fill="#fedecb"/>
        <path id="Trazado_138791" data-name="Trazado 138791" d="M-934.895,276.834s-3.054.691-3.5,2.065,4.3,2.7,5.626,2.778l1.015,5.577s3.224-5.2,2-8.239S-934.895,276.834-934.895,276.834Z" transform="translate(963.338 -275.088)" fill="url(#linear-gradient-22)"/>
        <path id="Trazado_138792" data-name="Trazado 138792" d="M-934.117,285.219s2.613-2.965,3.62-1-2.359,3.389-3.51,2.42Z" transform="translate(964.126 -273.84)" fill="#fedecb"/>
        <path id="Trazado_138793" data-name="Trazado 138793" d="M-945.306,341.113c.014.5-.911,4.491-1.414,6.616a3.514,3.514,0,0,0,.351,2.522l16.383,28.228a3.8,3.8,0,0,1,.427,1.1,24.076,24.076,0,0,1,.531,7.486l-.88,1.782,3.738-.808.914-10.008-1.049-.655a5.015,5.015,0,0,1-2.005-2.4c-1.47-3.677-5.118-13.036-6.037-17.588-1.043-5.173-6.734-9.425-6.734-9.425l1.032-2.371Z" transform="translate(961.802 -263.307)" fill="url(#linear-gradient-23)"/>
        <path id="Trazado_138794" data-name="Trazado 138794" d="M-924.429,379.04a22.815,22.815,0,0,1-2.206-4.459c-.224-1.246-.861-3.447-2.109-2.8a72.929,72.929,0,0,0-.47,8.394c.177,2.361-2.69,2.256-2.69,2.256a2.678,2.678,0,0,0-1.377.676.672.672,0,0,0,.439,1.134,16.173,16.173,0,0,0,4-.186,1.222,1.222,0,0,0,1-1.118l.484-6.944,2.508,3.233Z" transform="translate(964.244 -257.717)" fill="url(#linear-gradient-24)"/>
        <path id="Trazado_138795" data-name="Trazado 138795" d="M-936.555,345.078s.331,25.1.374,28.667-.68,11.458-4.278,13.783l1.544,1.166a20.8,20.8,0,0,0,3.891-4.79,29.308,29.308,0,0,1,2.82-4.195l-.693-1.456a3.188,3.188,0,0,1-.237-2.047c.809-3.729,3.512-16.133,4.242-18.8a12.055,12.055,0,0,0-1.886-10.932C-933.627,342.91-936.555,345.078-936.555,345.078Z" transform="translate(962.965 -262.701)" fill="url(#linear-gradient-25)"/>
        <path id="Trazado_138796" data-name="Trazado 138796" d="M-933.44,384.515a.221.221,0,0,0,.222-.187,32.478,32.478,0,0,1,1.071-5.049c.474-.99,2.032-5.161.056-5.536,0,0-5,7.143-5.953,8.1a1.852,1.852,0,0,1-2.141.317,3.555,3.555,0,0,0-1.627,1.143.652.652,0,0,0,.5,1.053l3.316.065a2.333,2.333,0,0,0,2.2-1.447c.6-1.453,1.623-3.581,2.8-4.518l-.666,5.808a.221.221,0,0,0,.215.247Z" transform="translate(962.692 -257.337)" fill="url(#linear-gradient-26)"/>
        <path id="Trazado_138797" data-name="Trazado 138797" d="M-939.16,319.417a11.764,11.764,0,0,1-.465,6.3l-7.377,24.8a.77.77,0,0,0,.472.942,47.519,47.519,0,0,0,18.671,2.458,1.086,1.086,0,0,0,1-.835c.659-2.829,2.908-12.48,3.37-14.464,1.764-7.557,3.73-15.705-4.5-20.729C-931.827,319.485-935.4,320.412-939.16,319.417Z" transform="translate(961.762 -267.556)" fill="url(#linear-gradient-27)"/>
        <path id="Trazado_138798" data-name="Trazado 138798" d="M-927.928,298.272s8.035,6.817,9.951,16.041-11.946,10.059-11.946,10.059-1.858-2.119-4.1-1.392-.135-3.667,2.477-3.629,1.38,2.091,5.093.455c3.616-1.593,5.894-6.613-3.213-14.352a4.164,4.164,0,0,1-1.2-1.663C-932.6,299.28-931.154,296.35-927.928,298.272Z" transform="translate(963.97 -271.255)" fill="url(#linear-gradient-28)"/>
      </g>
      <g id="Grupo_85925" data-name="Grupo 85925" transform="translate(0 22.29)">
        <g id="Grupo_85919" data-name="Grupo 85919" transform="translate(49.138 65.338)">
          <g id="Grupo_85917" data-name="Grupo 85917" transform="translate(14.639 7.596)">
            <rect id="Rectángulo_15638" data-name="Rectángulo 15638" width="31.261" height="2.891" transform="translate(0 31.259) rotate(-89.414)" fill="#26c8ff"/>
          </g>
          <g id="Grupo_85918" data-name="Grupo 85918" transform="translate(3.42 37.464)">
            <path id="Trazado_138799" data-name="Trazado 138799" d="M-959.358,383.224l-25.317-.259.018-1.673a.208.208,0,0,1,.211-.207l24.9.254a.209.209,0,0,1,.206.212Z" transform="translate(984.675 -381.085)" fill="#26c8ff"/>
          </g>
          <rect id="Rectángulo_15639" data-name="Rectángulo 15639" width="9.595" height="33.83" rx="2.793" transform="translate(0 9.594) rotate(-89.414)" fill="#26c8ff"/>
        </g>
        <g id="Grupo_85921" data-name="Grupo 85921" transform="translate(22.995)">
          <path id="Trazado_138800" data-name="Trazado 138800" d="M-994.169,374.135s-9.386,3.93-8.894,8.147c0,0,9.678-1.753,11.436-4.5s.821-4.352.821-4.352Z" transform="translate(1010.87 -279.683)" fill="url(#linear-gradient-29)"/>
          <path id="Trazado_138801" data-name="Trazado 138801" d="M-992.949,370.159l.433,4.106a1.357,1.357,0,0,1-.873,1.431,3.514,3.514,0,0,1-1.185.168A1.579,1.579,0,0,1-996.1,374.7l-.885-3.327Z" transform="translate(1011.985 -280.282)" fill="url(#linear-gradient-30)"/>
          <path id="Trazado_138802" data-name="Trazado 138802" d="M-971.47,343.762s-17.179-.971-25.783,3.929.137,28.93.137,28.93a8.689,8.689,0,0,0,5.464-1.183s-4.411-17.571,3.594-20.538a45.905,45.905,0,0,1,18.264-2.407l-1.634-8.189Z" transform="translate(1011.243 -285.126)" fill="url(#linear-gradient-31)"/>
          <path id="Trazado_138803" data-name="Trazado 138803" d="M-1000.924,379.787c1.959-.408,7.779-2.75,8.659-2.709s2.113,1.373,2.113,1.373a2.337,2.337,0,0,1-.432,1.751,16.228,16.228,0,0,1-8.487,3.451,6.278,6.278,0,0,1-5.333-2.039A7.66,7.66,0,0,1-1000.924,379.787Z" transform="translate(1010.628 -279.016)" fill="url(#linear-gradient-32)"/>
          <path id="Trazado_138804" data-name="Trazado 138804" d="M-998.939,383.17a16.228,16.228,0,0,0,8.487-3.451,7.3,7.3,0,0,1-2.785,2.375c-3.8,2.1-10.045,1.721-11.277,1.228-.989-.4-.673-1.319.242-2.192A6.278,6.278,0,0,0-998.939,383.17Z" transform="translate(1010.496 -278.533)" fill="url(#linear-gradient-33)"/>
          <path id="Trazado_138805" data-name="Trazado 138805" d="M-989.781,376.786a13.962,13.962,0,0,1-2.316,2.724,1.563,1.563,0,0,1-1.453.421,4,4,0,0,1-1.033-.375,1.01,1.01,0,0,1-.377-1.378l2.039-3.62Z" transform="translate(1012.332 -279.477)" fill="url(#linear-gradient-34)"/>
          <path id="Trazado_138806" data-name="Trazado 138806" d="M-955.626,342.678s1.391,10.659-2.968,12.79-13.889,3.458-17.223,8.944-9.33,16.261-14.719,19.319c0,0-3.048-1.026-3.927-2.54,0,0,6.529-16.647,9.223-20.682,2.333-3.495,5.743-8.528,10.538-10.672,1.372-.614,1.494-2.062,1.269-3.548l-.411-2.707Z" transform="translate(1012.447 -285.31)" fill="url(#linear-gradient-35)"/>
          <path id="Trazado_138807" data-name="Trazado 138807" d="M-995.307,334.561c6.064,1.8,8.961-15.29,8.941-15.706l9.213,11s-5.656,9.719-14.056,10.674a9.9,9.9,0,0,1-5.435-.854A8.718,8.718,0,0,0-995.307,334.561Z" transform="translate(1012.047 -289.669)" fill="#fd7641"/>
          <path id="Trazado_138808" data-name="Trazado 138808" d="M-1004.13,327.344c2.662-1.062,4.888,1.134,4.888,1.134,2.6,2.715,4.668,4.093,6.317,4.583a8.718,8.718,0,0,1-1.337,5.112,13.556,13.556,0,0,1-5.911-6.111,1.139,1.139,0,0,0-1.5-.524c-.564.266-1.147.674-1.19,1.237-.083,1.108-1.4,1.16-1.408.751a16.426,16.426,0,0,1,1.049-2.592s-3.065,1.922-4.259,2.657a1.746,1.746,0,0,1-2.19-.509S-1006.792,328.406-1004.13,327.344Z" transform="translate(1009.665 -288.169)" fill="url(#linear-gradient-36)"/>
          <path id="Trazado_138809" data-name="Trazado 138809" d="M-958.774,313.4s-8.115-5.658-27.957,4.223a6.422,6.422,0,0,0-1.136,5.47c.922,2.915,12.48,18.755,12.86,26.14,0,0,7.963,4.8,18.409.229C-956.6,349.465-952.91,330.012-958.774,313.4Z" transform="translate(1013.61 -290.962)" fill="url(#linear-gradient-37)"/>
          <path id="Trazado_138810" data-name="Trazado 138810" d="M-976.638,306.981l3.164,6.361a1.8,1.8,0,0,1-.206,1.939,5.14,5.14,0,0,1-5.932,1.585,2.774,2.774,0,0,1-1.87-2.031l-1.6-7.081Z" transform="translate(1014.529 -291.842)" fill="url(#linear-gradient-38)"/>
          <path id="Trazado_138811" data-name="Trazado 138811" d="M-956.918,335.314c.593-3.841-9.5-11.4-9.5-11.4l3.671-10.759s19.256,14.042,15.06,25.3a7.9,7.9,0,0,1-2.558,3.613C-952.251,337.837-955.02,336.058-956.918,335.314Z" transform="translate(1017.579 -290.713)" fill="url(#linear-gradient-39)"/>
          <path id="Trazado_138812" data-name="Trazado 138812" d="M-969.038,332.809s11.467,3.33,13.888-.147a1.822,1.822,0,0,0,.3-.776c1.9.744,4.667,2.523,6.678,6.757-5.5,4.239-15.982-.684-18.827-2.157a2.026,2.026,0,0,0-1.513-.142,13.791,13.791,0,0,1-3.77.718c-1.436-.093-3.032,5.083-5.464,3.744C-977.742,340.807-976.539,331.946-969.038,332.809Z" transform="translate(1015.506 -287.285)" fill="#fedecb"/>
          <g id="Grupo_85920" data-name="Grupo 85920" transform="translate(26.903)">
            <path id="Trazado_138813" data-name="Trazado 138813" d="M-979.969,298.242c-.1.088-4.44,7.485-6.647,11.255a2.231,2.231,0,0,0,1.028,3.169l.935.412c1.279.563,4.034,1.053,5.129.186l6.923-7.158S-977.646,296.273-979.969,298.242Z" transform="translate(986.923 -293.489)" fill="#fedecb"/>
            <path id="Trazado_138814" data-name="Trazado 138814" d="M-971.389,304.847a2.208,2.208,0,0,0,1.1-3.107,3.115,3.115,0,0,0-3.377-1.792.849.849,0,0,1-.9-.622.673.673,0,0,0-.592-.487.837.837,0,0,1-.649-1.055,2.542,2.542,0,0,0-1.236-3.057c-2.591-1.6-5.05.662-5.749,2.649s2.209,3.565,4.072,3.9c1.416.256,2.091,1.9,2.335,2.672a.849.849,0,0,1-.108.724l-2.115,3.142c.565.726,1.066,1.493,1.558,2.269.189-.2.355-.367.484-.483.913-.82,2.516-.375,3.176-.141a.837.837,0,0,0,.658-.041,2.2,2.2,0,0,0,1.019-3.39A.852.852,0,0,1-971.389,304.847Z" transform="translate(987.659 -294.184)" fill="url(#linear-gradient-40)"/>
            <path id="Trazado_138815" data-name="Trazado 138815" d="M-978.609,309.257s1.366-3.408,2.878-3.2,2.627,1.78.658,3.382C-977.523,311.432-978.609,309.257-978.609,309.257Z" transform="translate(988.444 -292.013)" fill="url(#linear-gradient-41)"/>
          </g>
        </g>
        <g id="Grupo_85922" data-name="Grupo 85922" transform="translate(2.071 27.781)">
          <path id="Trazado_138816" data-name="Trazado 138816" d="M-978.511,339.147h-.062l-26.864-.3a1.2,1.2,0,0,1-1.189-1.216,1.2,1.2,0,0,1,1.216-1.189l26.864.3a1.2,1.2,0,0,1,1.189,1.216A1.2,1.2,0,0,1-978.511,339.147Z" transform="translate(1031.145 -314.233)" fill="url(#linear-gradient-42)"/>
          <path id="Trazado_138817" data-name="Trazado 138817" d="M-1025.545,317.668l22.372.228a4.264,4.264,0,0,1,3.832,2.485l10.119,22.038-27.8-.285a2.592,2.592,0,0,1-2.394-1.663l-7.812-20.377A1.786,1.786,0,0,1-1025.545,317.668Z" transform="translate(1027.353 -317.668)" fill="url(#linear-gradient-43)"/>
          <path id="Trazado_138818" data-name="Trazado 138818" d="M-1012.046,327.66c.469,1.511.1,2.97-.834,3.259s-2.064-.7-2.533-2.213-.1-2.97.833-3.259S-1012.516,326.148-1012.046,327.66Z" transform="translate(1029.5 -316.254)" fill="#65daff"/>
        </g>
        <g id="Grupo_85924" data-name="Grupo 85924" transform="translate(0 51.893)">
          <g id="Grupo_85923" data-name="Grupo 85923" transform="translate(5.548 2.495)">
            <path id="Trazado_138819" data-name="Trazado 138819" d="M-1023.3,395.567a1.168,1.168,0,0,1-.445-.093,1.08,1.08,0,0,1-.576-1.442l24.223-53.043a1.143,1.143,0,0,1,1.488-.557,1.081,1.081,0,0,1,.576,1.442l-24.221,53.043A1.131,1.131,0,0,1-1023.3,395.567Z" transform="translate(1024.414 -340.126)" fill="#65daff"/>
            <path id="Trazado_138820" data-name="Trazado 138820" d="M-997.171,395.873a1.131,1.131,0,0,1-1.03-.672l-23.131-53.528a1.078,1.078,0,0,1,.606-1.429,1.142,1.142,0,0,1,1.476.587l23.132,53.528a1.08,1.08,0,0,1-.606,1.429A1.168,1.168,0,0,1-997.171,395.873Z" transform="translate(1024.961 -340.159)" fill="#65daff"/>
            <path id="Trazado_138821" data-name="Trazado 138821" d="M-961.343,396.2a1.164,1.164,0,0,1-.445-.093,1.08,1.08,0,0,1-.576-1.442l24.221-53.043a1.145,1.145,0,0,1,1.489-.557,1.081,1.081,0,0,1,.576,1.442L-960.3,395.551A1.131,1.131,0,0,1-961.343,396.2Z" transform="translate(1035.749 -340.01)" fill="#65daff"/>
            <path id="Trazado_138822" data-name="Trazado 138822" d="M-935.218,396.507a1.133,1.133,0,0,1-1.031-.672l-23.131-53.528a1.08,1.08,0,0,1,.606-1.429,1.143,1.143,0,0,1,1.478.587l23.131,53.528a1.079,1.079,0,0,1-.606,1.429A1.159,1.159,0,0,1-935.218,396.507Z" transform="translate(1036.297 -340.043)" fill="#65daff"/>
          </g>
          <path id="Trazado_138823" data-name="Trazado 138823" d="M-919.122,340.582a1.3,1.3,0,0,0-.214-.988,1.021,1.021,0,0,0-.817-.441l-107.71-1.1a1.2,1.2,0,0,0-1.04.622,1.517,1.517,0,0,0-.093,1.314l1.138,2.84a1.636,1.636,0,0,0,1.473,1.078l105.434,1.079a1.281,1.281,0,0,0,1.226-1.11Z" transform="translate(1029.103 -338.05)" fill="#65daff"/>
        </g>
      </g>
    </g>
  </g>
</svg>
