<svg xmlns="http://www.w3.org/2000/svg" xmlns:xlink="http://www.w3.org/1999/xlink" width="384.202" height="230.789" viewBox="0 0 384.202 230.789">
  <defs>
    <linearGradient id="linear-gradient" y1="0.5" x2="1" y2="0.5" gradientUnits="objectBoundingBox">
      <stop offset="0" stop-color="#bae5f5"/>
      <stop offset="1" stop-color="#95ddf8"/>
    </linearGradient>
    <linearGradient id="linear-gradient-2" x1="0.293" y1="-0.006" x2="1.134" y2="2.115" gradientUnits="objectBoundingBox">
      <stop offset="0" stop-color="#fc7705"/>
      <stop offset="1" stop-color="#6d3224"/>
    </linearGradient>
    <linearGradient id="linear-gradient-3" x1="33.278" y1="-79.779" x2="32.943" y2="-78.246" gradientUnits="objectBoundingBox">
      <stop offset="0" stop-color="#3790d5"/>
      <stop offset="1" stop-color="#ef497a"/>
    </linearGradient>
    <linearGradient id="linear-gradient-4" x1="-4.45" y1="-3.46" x2="-3.771" y2="-3.46" gradientUnits="objectBoundingBox">
      <stop offset="0" stop-color="#cb236d"/>
      <stop offset="1" stop-color="#24426d"/>
    </linearGradient>
    <linearGradient id="linear-gradient-5" y1="0.5" x2="1" y2="0.5" gradientUnits="objectBoundingBox">
      <stop offset="0" stop-color="#2b3582"/>
      <stop offset="1" stop-color="#150e42"/>
    </linearGradient>
    <linearGradient id="linear-gradient-6" x1="0.122" y1="0.018" x2="0.838" y2="0.951" gradientUnits="objectBoundingBox">
      <stop offset="0.013" stop-color="#6affff"/>
      <stop offset="0.071" stop-color="#7cf9ff"/>
      <stop offset="0.169" stop-color="#95f1ff"/>
      <stop offset="0.228" stop-color="#9fefff"/>
      <stop offset="0.277" stop-color="#98ecff"/>
      <stop offset="0.347" stop-color="#84e7ff"/>
      <stop offset="0.431" stop-color="#65ddff"/>
      <stop offset="0.472" stop-color="#53d8ff"/>
      <stop offset="0.964" stop-color="#3840f7"/>
    </linearGradient>
    <linearGradient id="linear-gradient-7" x1="0.19" y1="-11.283" x2="0.912" y2="-3.147" xlink:href="#linear-gradient-5"/>
    <linearGradient id="linear-gradient-8" x1="0.499" y1="-1.168" x2="1.201" y2="0.668" gradientUnits="objectBoundingBox">
      <stop offset="0" stop-color="#ffd153"/>
      <stop offset="1" stop-color="#3840f7"/>
    </linearGradient>
    <linearGradient id="linear-gradient-9" x1="0.343" y1="-0.814" x2="1.327" y2="0.446" gradientUnits="objectBoundingBox">
      <stop offset="0" stop-color="#ffd753"/>
      <stop offset="1" stop-color="#3840f7"/>
    </linearGradient>
    <linearGradient id="linear-gradient-10" x1="0.381" y1="-1.998" x2="1.379" y2="-1.998" xlink:href="#linear-gradient-5"/>
    <linearGradient id="linear-gradient-11" x1="-1.078" y1="-4.832" x2="3.437" y2="10.422" gradientUnits="objectBoundingBox">
      <stop offset="0" stop-color="#53d8ff"/>
      <stop offset="1" stop-color="#3840f7"/>
    </linearGradient>
    <linearGradient id="linear-gradient-12" x1="-1.478" y1="-6.182" x2="3.037" y2="9.072" xlink:href="#linear-gradient-11"/>
    <linearGradient id="linear-gradient-13" x1="1.933" y1="-4.539" x2="3.023" y2="-3.073" xlink:href="#linear-gradient-11"/>
    <linearGradient id="linear-gradient-14" x1="1.934" y1="-4.646" x2="3.025" y2="-3.179" xlink:href="#linear-gradient-11"/>
    <linearGradient id="linear-gradient-15" x1="6.101" y1="-11.956" x2="5.467" y2="-6.25" xlink:href="#linear-gradient-11"/>
    <linearGradient id="linear-gradient-16" x1="2.912" y1="-4.073" x2="3.886" y2="-4.073" xlink:href="#linear-gradient-5"/>
    <linearGradient id="linear-gradient-17" x1="7.531" y1="-5.278" x2="6.794" y2="-2.981" xlink:href="#linear-gradient-11"/>
    <linearGradient id="linear-gradient-18" x1="5.893" y1="-10.605" x2="5.259" y2="-4.899" xlink:href="#linear-gradient-11"/>
    <linearGradient id="linear-gradient-19" x1="2.96" y1="-4.18" x2="3.959" y2="-4.18" xlink:href="#linear-gradient-5"/>
    <linearGradient id="linear-gradient-20" x1="6.321" y1="-4.876" x2="5.683" y2="-2.514" xlink:href="#linear-gradient-11"/>
    <linearGradient id="linear-gradient-21" x1="0.684" y1="-8.659" x2="2.939" y2="7.313" xlink:href="#linear-gradient-11"/>
    <linearGradient id="linear-gradient-22" x1="0.13" y1="-3.472" x2="1.335" y2="-0.554" xlink:href="#linear-gradient-11"/>
    <linearGradient id="linear-gradient-23" x1="-0.097" y1="-3.856" x2="2.017" y2="-0.355" gradientUnits="objectBoundingBox">
      <stop offset="0" stop-color="#ffa953"/>
      <stop offset="1" stop-color="#3840f7"/>
    </linearGradient>
    <linearGradient id="linear-gradient-24" x1="-3.028" y1="-45.887" x2="41.473" y2="-1.929" gradientUnits="objectBoundingBox">
      <stop offset="0" stop-color="#ffa253"/>
      <stop offset="1" stop-color="#f7c438"/>
    </linearGradient>
    <linearGradient id="linear-gradient-27" x1="0.32" y1="0.221" x2="1.594" y2="2.202" xlink:href="#linear-gradient-11"/>
    <linearGradient id="linear-gradient-28" x1="0.333" y1="0.261" x2="2.028" y2="2.686" xlink:href="#linear-gradient-11"/>
    <linearGradient id="linear-gradient-29" x1="1.063" y1="-0.44" x2="0.221" y2="0.966" xlink:href="#linear-gradient-11"/>
    <linearGradient id="linear-gradient-30" x1="0.885" y1="-0.116" x2="0.077" y2="1.176" xlink:href="#linear-gradient-11"/>
    <linearGradient id="linear-gradient-31" x1="0" y1="0.5" x2="1" y2="0.5" xlink:href="#linear-gradient-11"/>
    <linearGradient id="linear-gradient-32" x1="0.299" y1="0.008" x2="1.248" y2="2.327" xlink:href="#linear-gradient-11"/>
    <linearGradient id="linear-gradient-33" x1="0.304" y1="0.072" x2="1.473" y2="3.841" gradientUnits="objectBoundingBox">
      <stop offset="0" stop-color="#f9b776"/>
      <stop offset="1" stop-color="#f47960"/>
    </linearGradient>
    <linearGradient id="linear-gradient-34" x1="-74.572" y1="0.5" x2="-73.553" y2="0.5" xlink:href="#linear-gradient-5"/>
    <linearGradient id="linear-gradient-35" x1="-73.182" y1="0.5" x2="-72.182" y2="0.5" xlink:href="#linear-gradient-11"/>
    <linearGradient id="linear-gradient-36" x1="-164.931" y1="0.5" x2="-163.931" y2="0.5" xlink:href="#linear-gradient-5"/>
    <linearGradient id="linear-gradient-37" x1="-170.009" y1="0.5" x2="-169.009" y2="0.5" xlink:href="#linear-gradient-11"/>
    <linearGradient id="linear-gradient-38" x1="-253.433" y1="0.5" x2="-252.433" y2="0.5" xlink:href="#linear-gradient-33"/>
    <linearGradient id="linear-gradient-39" x1="-291.527" y1="0.5" x2="-290.527" y2="0.5" xlink:href="#linear-gradient-33"/>
    <linearGradient id="linear-gradient-40" x1="0.492" y1="0.809" x2="0.525" y2="-0.418" xlink:href="#linear-gradient-5"/>
    <linearGradient id="linear-gradient-41" x1="-405.777" y1="-3.524" x2="-411.514" y2="3.756" xlink:href="#linear-gradient-5"/>
    <linearGradient id="linear-gradient-42" x1="-136.278" y1="1.331" x2="-136.042" y2="0.355" xlink:href="#linear-gradient-33"/>
    <linearGradient id="linear-gradient-43" x1="-98.708" y1="0.35" x2="-99.82" y2="1.106" xlink:href="#linear-gradient-33"/>
    <linearGradient id="linear-gradient-44" x1="-72.01" y1="0.154" x2="-71.281" y2="1.105" xlink:href="#linear-gradient-5"/>
    <linearGradient id="linear-gradient-45" x1="-407.577" y1="-0.685" x2="-412.128" y2="1.784" xlink:href="#linear-gradient-33"/>
    <linearGradient id="linear-gradient-46" x1="0.096" y1="1.899" x2="0.706" y2="-0.263" xlink:href="#linear-gradient-11"/>
    <linearGradient id="linear-gradient-47" x1="-21.695" y1="7.779" x2="-20.992" y2="9.401" xlink:href="#linear-gradient-11"/>
    <linearGradient id="linear-gradient-48" x1="-21.132" y1="9.431" x2="-20.626" y2="11.032" xlink:href="#linear-gradient-11"/>
    <linearGradient id="linear-gradient-49" x1="-9.291" y1="6.941" x2="-9.081" y2="8.909" xlink:href="#linear-gradient-11"/>
    <linearGradient id="linear-gradient-50" x1="0.256" y1="0.268" x2="2.785" y2="2.005" xlink:href="#linear-gradient-33"/>
    <linearGradient id="linear-gradient-51" x1="0.127" y1="-0.777" x2="2.098" y2="6.835" xlink:href="#linear-gradient-33"/>
    <linearGradient id="linear-gradient-52" x1="-0.356" y1="-0.364" x2="2.175" y2="2.061" xlink:href="#linear-gradient-33"/>
    <linearGradient id="linear-gradient-55" x1="0" y1="0.5" x2="1" y2="0.5" xlink:href="#linear-gradient-33"/>
    <linearGradient id="linear-gradient-59" x1="-0.289" y1="1.193" x2="1.375" y2="0.002" xlink:href="#linear-gradient-5"/>
    <linearGradient id="linear-gradient-60" x1="-1.502" y1="5.021" x2="-1.144" y2="4.213" xlink:href="#linear-gradient-11"/>
    <linearGradient id="linear-gradient-61" x1="1.381" y1="0.1" x2="-1.008" y2="1.142" xlink:href="#linear-gradient-33"/>
    <linearGradient id="linear-gradient-63" x1="0.504" y1="-0.004" x2="0.489" y2="1.888" xlink:href="#linear-gradient-33"/>
    <linearGradient id="linear-gradient-65" y1="0.5" x2="1" y2="0.5" gradientUnits="objectBoundingBox">
      <stop offset="0" stop-color="#7ca9ff"/>
      <stop offset="1" stop-color="#95ddf8"/>
    </linearGradient>
    <linearGradient id="linear-gradient-67" x1="-18.845" y1="74.492" x2="-20.365" y2="75.829" xlink:href="#linear-gradient-33"/>
    <linearGradient id="linear-gradient-68" x1="-11.016" y1="47.584" x2="-9.994" y2="47.584" xlink:href="#linear-gradient-5"/>
    <linearGradient id="linear-gradient-69" x1="-55.635" y1="213.019" x2="-52.345" y2="210.663" xlink:href="#linear-gradient-33"/>
    <linearGradient id="linear-gradient-70" x1="1.114" y1="-1.222" x2="-0.579" y2="3.819" xlink:href="#linear-gradient-33"/>
    <linearGradient id="linear-gradient-72" x1="14.935" y1="0.23" x2="-65.87" y2="1.744" xlink:href="#linear-gradient-5"/>
    <linearGradient id="linear-gradient-73" x1="20.832" y1="0.119" x2="-59.959" y2="1.633" xlink:href="#linear-gradient-5"/>
    <linearGradient id="linear-gradient-74" y1="0.5" x2="1" y2="0.5" gradientUnits="objectBoundingBox">
      <stop offset="0" stop-color="#9cfffb"/>
      <stop offset="1" stop-color="#9bfffa"/>
    </linearGradient>
    <linearGradient id="linear-gradient-80" x1="0" y1="0.5" x2="1" y2="0.5" xlink:href="#linear-gradient-74"/>
    <linearGradient id="linear-gradient-82" x1="-35.633" y1="10.622" x2="-34.442" y2="10.92" xlink:href="#linear-gradient-65"/>
  </defs>
  <g id="Grupo_54260" data-name="Grupo 54260" transform="translate(-4257.61 -448.179)">
    <g id="Grupo_54259" data-name="Grupo 54259" transform="translate(4257.61 456.134)">
      <path id="Trazado_101694" data-name="Trazado 101694" d="M4350.617,484.887c-5.416,1.739-13.516,9.646-20.619,22.257-8.736,15.513-13.927,16.872-26.287,9.229s-26.879-2.508-37.387,17.842,7.9,36.172,24.961,60.964-17,18.379-28.039,47.336,4.528,61.44,55.735,61.053c51.277-.387,128.792.355,128.792.355s71.885,6.845,98.062-10.842-6.021-26.288,18.326-37.6,49.759-12.072,39.113-41.3-25.712-23.177-35.435-30.993-15.572-16.3-1.669-30.211,24.545-23.282,17.517-41.712c-10.083-26.441-34.554-29.853-61.438-18.645s-52.025,56.5-74.441,45.036S4396.738,470.076,4350.617,484.887Z" transform="translate(-4259.36 -482.415)" opacity="0.5" fill="url(#linear-gradient)"/>
      <g id="Grupo_54207" data-name="Grupo 54207" transform="translate(247.143 169.056)">
        <path id="Trazado_101695" data-name="Trazado 101695" d="M5321.176,1215.753l.675,40.179a5.719,5.719,0,0,0,5.718,5.624h78.861a5.719,5.719,0,0,0,5.72-5.72v-37.6a5.72,5.72,0,0,0-5.535-5.717l-79.536-2.574A5.72,5.72,0,0,0,5321.176,1215.753Z" transform="translate(-5321.175 -1209.937)" fill="url(#linear-gradient-2)"/>
        <path id="Trazado_101696" data-name="Trazado 101696" d="M5349.261,1242.74l1.711,36.948a2.624,2.624,0,0,0,2.668,2.5l71.81-1.265a2.625,2.625,0,0,0,2.579-2.625v-32.043a2.625,2.625,0,0,0-2.5-2.622l-73.521-3.64A2.625,2.625,0,0,0,5349.261,1242.74Z" transform="translate(-5342.732 -1233.009)" fill="#fff" opacity="0.6"/>
        <path id="Trazado_101697" data-name="Trazado 101697" d="M5373.914,1261.177v2.661a1.68,1.68,0,0,0,1.707,1.679l61.937-1.011a1.68,1.68,0,0,0,1.652-1.679h0a1.68,1.68,0,0,0-1.635-1.679l-61.937-1.651A1.679,1.679,0,0,0,5373.914,1261.177Z" transform="translate(-5361.659 -1247.981)" fill="#fff" opacity="0.6"/>
        <path id="Trazado_101698" data-name="Trazado 101698" d="M5377.893,1303.2v2.441a1.68,1.68,0,0,0,1.738,1.679l58.991-2.055a1.68,1.68,0,0,0,1.622-1.678v-.761a1.68,1.68,0,0,0-1.69-1.68l-58.992.375A1.679,1.679,0,0,0,5377.893,1303.2Z" transform="translate(-5364.713 -1279.954)" fill="#fff" opacity="0.6"/>
      </g>
      <g id="Grupo_54213" data-name="Grupo 54213" transform="translate(0 6.791)">
        <path id="Trazado_101699" data-name="Trazado 101699" d="M5260.346,532.117a104.255,104.255,0,0,0-6.591-19.1,2.336,2.336,0,0,0-4.322.142c-2.775,8.184-9.772,15.051-17.4,19.892-9.713,6.165-20.841,10.134-30.241,16.732-19.346,13.58-29.048,36.6-34.149,59.225s-6.57,46.1-14,68.087c-3.544,10.485-8.578,20.751-16.661,28.511-7.938,7.622-19.2,12.55-30.366,11.264a.519.519,0,0,0-.595.518h0a.524.524,0,0,0,.283.447c12.474,6.535,28.82,1.409,38.285-8.66,9.535-10.144,13.462-24.052,15.838-37.6s3.557-27.494,8.837-40.23a68.842,68.842,0,0,1,26.433-31.357c10.758-6.878,23.245-10.766,34.848-16.236s22.9-13.167,28.019-24.616C5262.311,550.743,5262.322,541.113,5260.346,532.117Z" transform="translate(-4908.872 -511.642)" fill="#f3a84a"/>
        <g id="Grupo_54209" data-name="Grupo 54209" transform="translate(218.486 64.558)">
          <path id="Trazado_101700" data-name="Trazado 101700" d="M5197.851,1435.552l0-1.76.2.028c.739.1,1.493.174,2.242.209l.648.031-.578.294c-.83.422-1.571.779-2.268,1.09Zm.345-1.365v.835c.455-.207.932-.435,1.441-.687C5199.154,1434.3,5198.672,1434.249,5198.2,1434.186Z" transform="translate(-5197.851 -1284.067)" fill="url(#linear-gradient-3)"/>
          <g id="Grupo_54208" data-name="Grupo 54208" transform="translate(2.432)" opacity="0.6">
            <path id="Trazado_101701" data-name="Trazado 101701" d="M5367.943,789.927c-9.763,7.325-22.721,10.937-35.156,13.25-16.263,3.025-33.4,4.8-47.32,13.378-14.54,8.958-23.61,24.241-29.706,39.84s-9.783,32.06-16.595,47.374c-6.478,14.565-16.416,28.478-30.85,35.827,11.264.525,21.907-6.758,28.168-15.924,6.678-9.777,9.519-21.472,13-32.715s8.02-22.733,17.05-30.547c17.718-15.331,45.841-11.472,67.1-21.84,11-5.364,19.7-14.385,26.312-24.412a149.742,149.742,0,0,0,11.46-21.611A2.251,2.251,0,0,0,5367.943,789.927Z" transform="translate(-5208.317 -789.462)" fill="#1c73d5"/>
          </g>
        </g>
        <path id="Trazado_101702" data-name="Trazado 101702" d="M5457.276,595.032c-.248.6-.518,1.171-.808,1.738l-.441.845-.475.826c-.637,1.1-1.322,2.168-2.047,3.21-.349.531-.731,1.037-1.111,1.545s-.755,1.021-1.167,1.5l-1.212,1.468c-.417.478-.848.944-1.272,1.416-.832.961-1.756,1.832-2.642,2.743-.437.462-.923.871-1.385,1.306l-1.4,1.286c-.972.817-1.961,1.613-2.941,2.42l-3.06,2.266c-1.045.719-2.111,1.409-3.166,2.115-.521.363-1.077.671-1.62,1l-1.637.971c-1.087.664-2.2,1.251-3.3,1.863l-3.3,1.83a142.118,142.118,0,0,0-12.8,7.872,69.464,69.464,0,0,0-16.058,15.568c-1.474,2.017-2.877,4.089-4.161,6.237a134.02,134.02,0,0,0-11.984,27.557.26.26,0,0,1-.5-.154c1.427-4.836,3.053-9.62,4.949-14.3a103.54,103.54,0,0,1,6.627-13.638c1.276-2.189,2.674-4.307,4.148-6.373a67.789,67.789,0,0,1,16.228-15.949,143.3,143.3,0,0,1,12.892-7.995l3.3-1.846c1.1-.613,2.209-1.217,3.279-1.853l1.619-.943c.538-.318,1.088-.616,1.6-.969,1.043-.687,2.1-1.357,3.132-2.057l3.027-2.205c.969-.786,1.949-1.561,2.911-2.357l1.406-1.236c.464-.417.953-.808,1.393-1.252.89-.873,1.822-1.709,2.661-2.634.428-.455.863-.9,1.285-1.363l1.227-1.415c.419-.464.794-.963,1.189-1.446s.79-.969,1.153-1.477c.752-1,1.468-2.022,2.136-3.077l.5-.793.473-.807c.312-.538.61-1.093.872-1.643l.006-.012a.26.26,0,0,1,.476.211Z" transform="translate(-5118.249 -575.379)" fill="#fff" opacity="0.5"/>
        <g id="Grupo_54210" data-name="Grupo 54210" transform="translate(75.583 14.746)" opacity="0.98">
          <path id="Trazado_101703" data-name="Trazado 101703" d="M4596.987,575.729c-6.116,12.081-38.837,83.837,22.982,126.636,0,0,33.7-41.694-21-126.742A1.145,1.145,0,0,0,4596.987,575.729Z" transform="translate(-4582.877 -575.1)" fill="#f3a84a"/>
          <path id="Trazado_101704" data-name="Trazado 101704" d="M4650.013,634.62c-.512,8.622-.757,17.268-.838,25.908s.048,17.284.436,25.913,1.037,17.245,2.15,25.8q.814,6.418,2.1,12.753a108.243,108.243,0,0,0,3.249,12.466v0a.687.687,0,1,1-1.3.434l0-.005a109.351,109.351,0,0,1-3.194-12.647q-1.25-6.392-2.015-12.855c-1.053-8.607-1.633-17.256-1.961-25.907s-.376-17.31-.238-25.963.458-17.3,1.038-25.939a.291.291,0,0,1,.58.037Z" transform="translate(-4633.116 -620.55)" fill="#fff" opacity="0.86"/>
        </g>
        <g id="Grupo_54211" data-name="Grupo 54211" transform="translate(39.661 48.583)" opacity="0.93">
          <path id="Trazado_101705" data-name="Trazado 101705" d="M4431.089,720.992a1.626,1.626,0,0,0-2.526,1.257c-1.153,19.189-3.3,131.132,101.38,152.017C4529.944,874.267,4550.33,800.935,4431.089,720.992Z" transform="translate(-4428.29 -720.716)" fill="#1c73d5"/>
          <path id="Trazado_101706" data-name="Trazado 101706" d="M4475.36,795.451c1.873,6.173,4.008,12.279,6.259,18.332s4.66,12.051,7.211,17.985a343.078,343.078,0,0,0,17.182,34.7,223.453,223.453,0,0,0,21.811,31.907c2.052,2.484,4.2,4.887,6.4,7.233s4.491,4.612,6.864,6.783a103.745,103.745,0,0,0,15.269,11.713l0,0a.687.687,0,0,1-.729,1.164l0,0a105.04,105.04,0,0,1-15.406-11.941q-3.579-3.309-6.894-6.882c-2.211-2.377-4.361-4.81-6.414-7.321a224.439,224.439,0,0,1-21.754-32.174,343.626,343.626,0,0,1-17.049-34.878q-3.788-8.938-7.132-18.054c-2.225-6.078-4.329-12.2-6.179-18.406a.291.291,0,0,1,.557-.168Z" transform="translate(-4463.984 -777.922)" fill="#fff" opacity="0.86"/>
        </g>
        <g id="Grupo_54212" data-name="Grupo 54212" transform="translate(0 131.49)" opacity="0.89">
          <path id="Trazado_101707" data-name="Trazado 101707" d="M4259.1,1077.5a1.472,1.472,0,0,0-1.288,2.205c8.649,15.094,62.57,100.876,152.155,64.737C4409.963,1144.443,4389,1078.831,4259.1,1077.5Z" transform="translate(-4257.61 -1077.501)" fill="url(#linear-gradient-4)"/>
          <path id="Trazado_101708" data-name="Trazado 101708" d="M4327.258,1115.046c4.428,3.613,9.006,7.057,13.63,10.425s9.339,6.616,14.11,9.775,9.618,6.2,14.529,9.135,9.882,5.766,14.948,8.419a242.539,242.539,0,0,0,31.28,13.972l1,.369,1.015.34,2.031.677,2.03.676c.677.226,1.366.412,2.048.62,1.37.4,2.731.826,4.107,1.2l4.142,1.066a128.678,128.678,0,0,0,16.823,2.909h.009a.687.687,0,0,1-.139,1.366h0a129.985,129.985,0,0,1-16.994-3.039l-4.172-1.1c-1.385-.386-2.754-.824-4.131-1.234-.686-.214-1.379-.405-2.06-.637l-2.041-.693-2.041-.693-1.019-.348-1.009-.377a243.538,243.538,0,0,1-31.339-14.215c-5.067-2.691-10.03-5.57-14.942-8.529s-9.747-6.044-14.508-9.24-9.459-6.481-14.08-9.874-9.174-6.873-13.6-10.529a.291.291,0,0,1,.369-.45Z" transform="translate(-4310.707 -1106.269)" fill="#fff" opacity="0.86"/>
        </g>
      </g>
      <g id="Grupo_54214" data-name="Grupo 54214" transform="translate(123.37 15.126)">
        <path id="Trazado_101709" data-name="Trazado 101709" d="M4791.072,558.09c-.819,33.08-3.479,147.184-2.209,187.618a8.118,8.118,0,0,0,7.852,7.862c21.187.693,82.134,2.451,116.788,1a13.67,13.67,0,0,0,13.107-13.372c.72-34.721,2.309-132.379-1.468-177.116a11.155,11.155,0,0,0-10.012-10.164c-23.073-2.308-84.354-7.95-114.293-6.008A10.456,10.456,0,0,0,4791.072,558.09Z" transform="translate(-4788.524 -547.507)" fill="url(#linear-gradient-5)"/>
        <path id="Trazado_101710" data-name="Trazado 101710" d="M4823.742,607.7c-1.158,27.092-4.807,117.22-3.649,150.548a9.43,9.43,0,0,0,8.875,9.095c20.035,1.172,71.421,3.758,100.807,1.4a10.6,10.6,0,0,0,9.729-10c1.489-27.639,5.765-111.562,4.654-144.516a10.418,10.418,0,0,0-9.489-10.021c-21.673-1.946-77.339-6.576-102.311-5.214A9.111,9.111,0,0,0,4823.742,607.7Z" transform="translate(-4812.585 -586.842)" fill="url(#linear-gradient-6)"/>
        <path id="Trazado_101711" data-name="Trazado 101711" d="M5024.817,567.628h0a1.9,1.9,0,0,0,1.8,1.905c5,.262,19.1,1,25.4,1.369a1.906,1.906,0,0,0,1.981-2.266l-.041-.208a1.906,1.906,0,0,0-1.7-1.539c-4.258-.39-17.108-1.472-25.622-1.168A1.9,1.9,0,0,0,5024.817,567.628Z" transform="translate(-4969.909 -561.447)" fill="#fff" opacity="0.5"/>
      </g>
      <g id="Grupo_54218" data-name="Grupo 54218" transform="translate(157.671 45.459)">
        <path id="Trazado_101712" data-name="Trazado 101712" d="M5021.1,878.364l-47.7-1.654a3.874,3.874,0,0,1-3.727-3.994h0a3.874,3.874,0,0,1,3.995-3.726l47.7,1.654a3.874,3.874,0,0,1,3.726,3.995h0A3.874,3.874,0,0,1,5021.1,878.364Z" transform="translate(-4961.884 -824.617)" fill="url(#linear-gradient-7)"/>
        <path id="Trazado_101713" data-name="Trazado 101713" d="M5010.541,750.142a9.04,9.04,0,0,1-9.32,8.7l-52.33-1.815a9.039,9.039,0,0,1-8.694-9.32l.415-11.982a16.472,16.472,0,0,1,16.983-15.845l37.517,1.3a16.472,16.472,0,0,1,15.845,16.983Z" transform="translate(-4939.249 -710.148)" fill="url(#linear-gradient-8)"/>
        <path id="Trazado_101714" data-name="Trazado 101714" d="M4945.355,888.555l53.035,1.839a8.685,8.685,0,0,1,8.354,8.955l-.241,6.958c-.671,19.345-17.655,52.124-37,51.453h0c-19.345-.671-34.017-34.548-33.346-53.893l.241-6.958A8.686,8.686,0,0,1,4945.355,888.555Z" transform="translate(-4936.137 -839.634)" fill="url(#linear-gradient-9)"/>
        <g id="Grupo_54216" data-name="Grupo 54216" transform="translate(8.924 22.657)">
          <path id="Trazado_101715" data-name="Trazado 101715" d="M5027.409,785.55a5.067,5.067,0,0,1-4.756,4.887,236.006,236.006,0,0,1-43.681-1.528,5.074,5.074,0,0,1-4.428-5.208l.1-2.744a5.07,5.07,0,0,1,4.736-4.885,208.164,208.164,0,0,1,43.82,1.449,5.067,5.067,0,0,1,4.313,5.192Z" transform="translate(-4974.542 -775.548)" fill="url(#linear-gradient-10)"/>
          <g id="Grupo_54215" data-name="Grupo 54215" transform="translate(8.402 3.403)">
            <circle id="Elipse_4050" data-name="Elipse 4050" cx="3.213" cy="3.213" r="3.213" transform="translate(0 6.284) rotate(-77.915)" fill="url(#linear-gradient-11)"/>
            <circle id="Elipse_4051" data-name="Elipse 4051" cx="3.213" cy="3.213" r="3.213" transform="translate(29.086 7.969) rotate(-89.143)" fill="url(#linear-gradient-12)"/>
          </g>
          <path id="Trazado_101716" data-name="Trazado 101716" d="M5011.741,795.764a.189.189,0,0,1,.182-.2h0a.19.19,0,0,1,.2.186h0a.188.188,0,0,1-.186.193h-.01A.186.186,0,0,1,5011.741,795.764Zm-.968.073a.194.194,0,0,1-.143-.228h0a.19.19,0,0,1,.228-.143h0a.192.192,0,0,1,.144.228h0a.191.191,0,0,1-.191.148h0C5010.8,795.841,5010.787,795.837,5010.773,795.837Zm2.079-.2a.186.186,0,0,1,.131-.232h0a.185.185,0,0,1,.233.128h0a.19.19,0,0,1-.128.236h0a.189.189,0,0,1-.059.005h0A.187.187,0,0,1,5012.852,795.637Zm-3.175-.2a.186.186,0,0,1-.08-.254h0a.185.185,0,0,1,.253-.084h0a.187.187,0,0,1,.081.254h0a.182.182,0,0,1-.175.1h0A.175.175,0,0,1,5009.677,795.438Zm4.223-.2a.19.19,0,0,1,.067-.262h0a.193.193,0,0,1,.259.067h0a.193.193,0,0,1-.068.262h0a.185.185,0,0,1-.1.024h0A.187.187,0,0,1,5013.9,795.241Zm-5.186-.462a.19.19,0,0,1-.015-.269h0a.194.194,0,0,1,.269-.015h0a.193.193,0,0,1,.015.268h0a.194.194,0,0,1-.15.063h0A.181.181,0,0,1,5008.714,794.779Zm6.1-.184a.194.194,0,0,1,0-.271h0a.19.19,0,0,1,.268,0h0a.19.19,0,0,1,0,.268h0a.179.179,0,0,1-.139.053h0A.2.2,0,0,1,5014.812,794.6Zm-6.868-.692a.19.19,0,0,1,.05-.263h0a.192.192,0,0,1,.266.05h0a.187.187,0,0,1-.054.263h0a.184.184,0,0,1-.111.034h0A.192.192,0,0,1,5007.944,793.9Zm7.595-.163a.192.192,0,0,1-.067-.26h0a.193.193,0,0,1,.26-.067h0a.189.189,0,0,1,.067.26h0a.188.188,0,0,1-.172.094h0A.173.173,0,0,1,5015.539,793.741Zm-8.122-.876h0a.193.193,0,0,1,.115-.243h0a.194.194,0,0,1,.243.115h0a.193.193,0,0,1-.115.243h0a.264.264,0,0,1-.073.011h0A.19.19,0,0,1,5007.417,792.865Zm8.614-.131a.186.186,0,0,1-.13-.235h0a.194.194,0,0,1,.235-.129h0a.188.188,0,0,1,.129.234h0v0h0a.19.19,0,0,1-.19.134h0A.188.188,0,0,1,5016.031,792.735Zm-8.867-1.008a.192.192,0,0,1,.172-.207h0a.192.192,0,0,1,.207.172h0a.192.192,0,0,1-.172.207h-.024A.192.192,0,0,1,5007.164,791.726Zm8.908-.282v-.007h0v-.014h0a.189.189,0,0,1,.2-.182h0a.191.191,0,0,1,.183.2h0v.01h0v.01h0a.188.188,0,0,1-.2.182h0A.19.19,0,0,1,5016.072,791.444Zm0-.021h0v0h0Zm-8.71-.646a.191.191,0,0,1-.161-.215h0a.189.189,0,0,1,.218-.157h0a.187.187,0,0,1,.158.215h0a.189.189,0,0,1-.194.161h0C5007.376,790.782,5007.369,790.778,5007.362,790.778Zm8.61-.42a.188.188,0,0,1,.142-.225h0a.192.192,0,0,1,.229.142h0a.193.193,0,0,1-.146.229h0a.221.221,0,0,1-.048,0h0A.187.187,0,0,1,5015.972,790.358Zm-8.346-.667a.192.192,0,0,1-.1-.251h0a.191.191,0,0,1,.251-.1h0a.192.192,0,0,1,.1.251h0a.2.2,0,0,1-.183.114h0A.269.269,0,0,1,5007.626,789.691Zm7.982-.338h0a.189.189,0,0,1,.081-.255h0a.187.187,0,0,1,.255.081h0a.187.187,0,0,1-.081.255h0a.19.19,0,0,1-.094.021h0A.189.189,0,0,1,5015.609,789.353Zm-7.451-.647a.193.193,0,0,1-.035-.269h0a.191.191,0,0,1,.266-.032h0a.188.188,0,0,1,.035.266h0a.191.191,0,0,1-.157.074h0A.185.185,0,0,1,5008.158,788.706Zm6.846-.24h0a.19.19,0,0,1,.016-.267h0a.194.194,0,0,1,.271.016h0a.19.19,0,0,1-.017.267h0a.2.2,0,0,1-.132.047h0A.187.187,0,0,1,5015,788.466Zm-6.088-.586a.194.194,0,0,1,.034-.267h0a.193.193,0,0,1,.267.033h0a.193.193,0,0,1-.033.267h0a.189.189,0,0,1-.125.04h0A.194.194,0,0,1,5008.916,787.881Zm5.285-.122h0a.19.19,0,0,1-.05-.263h0a.191.191,0,0,1,.264-.052h0a.2.2,0,0,1,.052.266h0a.2.2,0,0,1-.165.08h0A.19.19,0,0,1,5014.2,787.758Zm-4.346-.487a.192.192,0,0,1,.1-.251h0a.191.191,0,0,1,.25.1h0a.187.187,0,0,1-.1.247h0a.157.157,0,0,1-.08.018h0A.188.188,0,0,1,5009.854,787.271Zm3.394,0h0a.194.194,0,0,1-.115-.244h0a.187.187,0,0,1,.245-.112h0a.183.183,0,0,1,.116.241h0a.187.187,0,0,1-.183.128h0A.163.163,0,0,1,5013.249,787.272Zm-2.334-.359a.186.186,0,0,1,.159-.214h0a.188.188,0,0,1,.218.155h0a.194.194,0,0,1-.158.218h0a.152.152,0,0,1-.039,0h0A.19.19,0,0,1,5010.915,786.912Zm1.287.127h0a.192.192,0,0,1-.171-.209h0a.194.194,0,0,1,.208-.171h0a.194.194,0,0,1,.172.209h0a.194.194,0,0,1-.2.172h-.014Z" transform="translate(-4999.583 -784.077)" fill="url(#linear-gradient-13)"/>
          <path id="Trazado_101717" data-name="Trazado 101717" d="M5134.461,800.02a.188.188,0,0,1,.182-.2h0a.189.189,0,0,1,.2.185h0a.189.189,0,0,1-.186.193h-.01A.186.186,0,0,1,5134.461,800.02Zm-.968.073a.194.194,0,0,1-.144-.228h0a.191.191,0,0,1,.229-.143h0a.192.192,0,0,1,.143.228h0a.191.191,0,0,1-.19.148h0C5133.517,800.1,5133.507,800.093,5133.494,800.093Zm2.078-.2a.187.187,0,0,1,.132-.233h0a.185.185,0,0,1,.233.128h0a.189.189,0,0,1-.128.236h0a.184.184,0,0,1-.059,0h0A.188.188,0,0,1,5135.572,799.893Zm-3.174-.2a.186.186,0,0,1-.08-.254h0a.185.185,0,0,1,.253-.084h0a.187.187,0,0,1,.081.254h0a.183.183,0,0,1-.176.1h0A.175.175,0,0,1,5132.4,799.694Zm4.223-.2a.191.191,0,0,1,.067-.262h0a.193.193,0,0,1,.259.067h0a.193.193,0,0,1-.067.262h0a.187.187,0,0,1-.1.024h0A.188.188,0,0,1,5136.62,799.5Zm-5.186-.462a.19.19,0,0,1-.015-.268h0a.193.193,0,0,1,.269-.015h0a.193.193,0,0,1,.014.269h0a.192.192,0,0,1-.149.063h0A.18.18,0,0,1,5131.435,799.035Zm6.1-.184a.194.194,0,0,1,0-.271h0a.19.19,0,0,1,.268,0h0a.191.191,0,0,1,0,.268h0a.18.18,0,0,1-.139.053h0A.2.2,0,0,1,5137.532,798.852Zm-6.868-.692a.191.191,0,0,1,.05-.263h0a.192.192,0,0,1,.267.05h0a.188.188,0,0,1-.054.263h0a.184.184,0,0,1-.111.034h0A.194.194,0,0,1,5130.664,798.16Zm7.6-.163a.191.191,0,0,1-.067-.26h0a.192.192,0,0,1,.26-.066h0a.189.189,0,0,1,.067.26h0a.187.187,0,0,1-.171.094h0A.173.173,0,0,1,5138.259,798Zm-8.123-.876h0a.193.193,0,0,1,.115-.243h0a.194.194,0,0,1,.243.115h0a.192.192,0,0,1-.115.244h0a.267.267,0,0,1-.073.011h0A.191.191,0,0,1,5130.137,797.121Zm8.614-.131a.185.185,0,0,1-.129-.235h0a.193.193,0,0,1,.234-.129h0a.189.189,0,0,1,.129.235h0v0h0a.191.191,0,0,1-.19.134h0A.193.193,0,0,1,5138.751,796.991Zm-8.867-1.008a.193.193,0,0,1,.172-.207h0a.192.192,0,0,1,.207.172h0a.191.191,0,0,1-.172.207h-.024A.192.192,0,0,1,5129.884,795.982Zm8.908-.282v-.007h0v-.014h0a.188.188,0,0,1,.2-.182h0a.19.19,0,0,1,.182.2h0v.01h0v.01h0a.188.188,0,0,1-.2.182h0A.191.191,0,0,1,5138.792,795.7Zm0-.02h0v0h0Zm-8.711-.646a.191.191,0,0,1-.161-.215h0a.19.19,0,0,1,.218-.157h0a.186.186,0,0,1,.157.215h0a.189.189,0,0,1-.194.161h0C5130.1,795.038,5130.089,795.034,5130.082,795.034Zm8.61-.419a.188.188,0,0,1,.142-.225h0a.191.191,0,0,1,.229.142h0a.193.193,0,0,1-.145.229h0a.222.222,0,0,1-.048,0h0A.187.187,0,0,1,5138.692,794.615Zm-8.346-.667a.192.192,0,0,1-.1-.251h0a.192.192,0,0,1,.251-.1h0a.191.191,0,0,1,.1.251h0a.2.2,0,0,1-.183.114h0A.258.258,0,0,1,5130.347,793.947Zm7.982-.338h0a.189.189,0,0,1,.082-.255h0a.187.187,0,0,1,.255.081h0a.187.187,0,0,1-.082.255h0a.189.189,0,0,1-.093.021h0A.19.19,0,0,1,5138.329,793.609Zm-7.45-.647a.193.193,0,0,1-.035-.269h0a.191.191,0,0,1,.266-.032h0a.188.188,0,0,1,.035.266h0a.193.193,0,0,1-.157.073h0A.184.184,0,0,1,5130.879,792.962Zm6.845-.24h0a.19.19,0,0,1,.016-.268h0a.194.194,0,0,1,.271.016h0a.19.19,0,0,1-.016.267h0a.2.2,0,0,1-.132.047h0A.187.187,0,0,1,5137.724,792.722Zm-6.088-.586a.194.194,0,0,1,.033-.267h0a.194.194,0,0,1,.267.033h0a.193.193,0,0,1-.033.267h0a.189.189,0,0,1-.125.04h0A.191.191,0,0,1,5131.636,792.137Zm5.284-.122h0a.189.189,0,0,1-.049-.263h0a.19.19,0,0,1,.263-.053h0a.194.194,0,0,1,.053.266h0a.2.2,0,0,1-.165.08h0A.2.2,0,0,1,5136.92,792.014Zm-4.346-.488a.193.193,0,0,1,.1-.251h0a.191.191,0,0,1,.25.1h0a.188.188,0,0,1-.1.247h0a.16.16,0,0,1-.08.018h0A.189.189,0,0,1,5132.574,791.527Zm3.395,0h0a.194.194,0,0,1-.115-.244h0a.186.186,0,0,1,.244-.112h0a.184.184,0,0,1,.116.241h0a.187.187,0,0,1-.184.128h0A.158.158,0,0,1,5135.969,791.528Zm-2.334-.359a.186.186,0,0,1,.158-.214h0a.189.189,0,0,1,.218.155h0a.194.194,0,0,1-.159.218h0a.135.135,0,0,1-.038,0h0A.19.19,0,0,1,5133.635,791.168Zm1.287.127h0a.191.191,0,0,1-.171-.209h0a.193.193,0,0,1,.208-.171h0a.194.194,0,0,1,.171.209h0a.194.194,0,0,1-.2.172h-.014Z" transform="translate(-5093.786 -787.344)" fill="url(#linear-gradient-14)"/>
        </g>
        <path id="Trazado_101718" data-name="Trazado 101718" d="M4954.772,679.89a1.783,1.783,0,1,1-1.72-1.844A1.783,1.783,0,0,1,4954.772,679.89Z" transform="translate(-4947.706 -678.045)" fill="url(#linear-gradient-15)"/>
        <path id="Trazado_101719" data-name="Trazado 101719" d="M4956.684,722.338s4.236.692,6.756-4.783l-1.05-2.371a1.585,1.585,0,0,0-2.108-.8l-2.485,1.137a1.584,1.584,0,0,0-.925,1.386Z" transform="translate(-4951.909 -705.83)" fill="url(#linear-gradient-16)"/>
        <path id="Trazado_101720" data-name="Trazado 101720" d="M4959.646,689.107a.1.1,0,0,0-.19.05l1.2,7.872a.539.539,0,0,0,.817.378l.464-.286a.941.941,0,0,0,.382-1.14Z" transform="translate(-4954.036 -686.488)" fill="url(#linear-gradient-17)"/>
        <path id="Trazado_101721" data-name="Trazado 101721" d="M5227.28,689.341a1.783,1.783,0,1,0,1.844-1.72A1.783,1.783,0,0,0,5227.28,689.341Z" transform="translate(-5159.625 -685.395)" fill="url(#linear-gradient-18)"/>
        <path id="Trazado_101722" data-name="Trazado 101722" d="M5211.583,730.99s-4.274.4-6.409-5.239l1.212-2.292a1.584,1.584,0,0,1,2.158-.651l2.4,1.306a1.585,1.585,0,0,1,.827,1.447Z" transform="translate(-5142.658 -712.257)" fill="url(#linear-gradient-19)"/>
        <path id="Trazado_101723" data-name="Trazado 101723" d="M5222.834,698.661l-1.73,7.737a.562.562,0,0,1-.877.334l-.414-.3a.94.94,0,0,1-.3-1.163l3.138-6.673A.1.1,0,0,1,5222.834,698.661Z" transform="translate(-5153.593 -693.777)" fill="url(#linear-gradient-20)"/>
        <path id="Trazado_101724" data-name="Trazado 101724" d="M5002.72,745.236a1.888,1.888,0,0,1-.034-3.773,208.828,208.828,0,0,1,38.332,1.208,1.888,1.888,0,1,1-.484,3.746,205.16,205.16,0,0,0-37.645-1.183C5002.833,745.238,5002.776,745.238,5002.72,745.236Z" transform="translate(-4985.851 -726.449)" fill="url(#linear-gradient-21)"/>
        <path id="Trazado_101725" data-name="Trazado 101725" d="M4996.833,788.311c-7.627-.265-15.3-.909-22.973-1.932a5.667,5.667,0,0,1-4.75-5.974l.106-3.058a5.677,5.677,0,0,1,5.107-5.627,201.621,201.621,0,0,1,45.648,1.5,5.69,5.69,0,0,1,4.625,5.956l-.109,3.163a5.666,5.666,0,0,1-5.129,5.628A224.527,224.527,0,0,1,4996.833,788.311Zm1.542-16.739a226.577,226.577,0,0,0-24.026.5,5.324,5.324,0,0,0-4.777,5.285l-.105,3.058a5.314,5.314,0,0,0,4.441,5.61,230.145,230.145,0,0,0,45.428,1.591,5.312,5.312,0,0,0,4.8-5.286l.11-3.163a5.335,5.335,0,0,0-4.325-5.592A181.186,181.186,0,0,0,4998.375,771.572Z" transform="translate(-4961.445 -749.473)" fill="url(#linear-gradient-22)"/>
        <path id="Trazado_101726" data-name="Trazado 101726" d="M5043.869,931.487l-24.707-.857a4.3,4.3,0,0,1-4.141-4.438l.244-7.034a4.3,4.3,0,0,1,4.438-4.141l24.707.857a4.3,4.3,0,0,1,4.14,4.438l-.244,7.034A4.3,4.3,0,0,1,5043.869,931.487Zm-24.177-16.127a3.952,3.952,0,0,0-4.083,3.809l-.244,7.035a3.953,3.953,0,0,0,3.809,4.083l24.707.857a3.952,3.952,0,0,0,4.083-3.809l.245-7.035a3.954,3.954,0,0,0-3.81-4.083Z" transform="translate(-4996.689 -859.95)" fill="url(#linear-gradient-23)"/>
        <g id="Grupo_54217" data-name="Grupo 54217" transform="translate(24.547 58.074)">
          <path id="Trazado_101727" data-name="Trazado 101727" d="M5042.436,929.327a.618.618,0,0,1-.133-.018.554.554,0,0,1-.125-.042.593.593,0,0,1-.118-.07.5.5,0,0,1-.1-.089.684.684,0,0,1,.034-.971.715.715,0,0,1,.971.034,1.228,1.228,0,0,1,.082.109.782.782,0,0,1,.058.119.628.628,0,0,1,.034.132.594.594,0,0,1,.009.134.653.653,0,0,1-.018.133.56.56,0,0,1-.042.126.653.653,0,0,1-.066.118.839.839,0,0,1-.089.1.5.5,0,0,1-.109.082.56.56,0,0,1-.119.061.576.576,0,0,1-.131.033A.6.6,0,0,1,5042.436,929.327Z" transform="translate(-5041.773 -927.963)" fill="url(#linear-gradient-24)"/>
          <path id="Trazado_101728" data-name="Trazado 101728" d="M5068.692,929.523a.685.685,0,0,1,.706-.663h0a.69.69,0,0,1,.667.71h0a.69.69,0,0,1-.714.662h0A.685.685,0,0,1,5068.692,929.523Zm-3.243-.112a.689.689,0,0,1,.71-.663h0a.687.687,0,0,1,.663.71h0a.687.687,0,0,1-.71.662h0A.689.689,0,0,1,5065.449,929.41Zm-3.239-.112a.687.687,0,0,1,.71-.663h0a.689.689,0,0,1,.662.71h0a.688.688,0,0,1-.71.663h0A.687.687,0,0,1,5062.209,929.3Zm-3.243-.112a.689.689,0,0,1,.71-.663h0a.687.687,0,0,1,.663.71h0a.686.686,0,0,1-.71.662h0A.689.689,0,0,1,5058.967,929.186Zm-3.239-.112a.686.686,0,0,1,.71-.663h0a.688.688,0,0,1,.663.71h0a.689.689,0,0,1-.71.663h0A.687.687,0,0,1,5055.728,929.073Z" transform="translate(-5052.485 -928.306)" fill="url(#linear-gradient-24)"/>
          <path id="Trazado_101729" data-name="Trazado 101729" d="M5126.12,932.2a.673.673,0,0,1-.477-.219.48.48,0,0,1-.082-.106.758.758,0,0,1-.061-.119.628.628,0,0,1-.033-.132.593.593,0,0,1-.009-.134.675.675,0,0,1,.219-.477.506.506,0,0,1,.105-.082.656.656,0,0,1,.251-.094.685.685,0,0,1,.8.7.6.6,0,0,1-.019.133.627.627,0,0,1-.042.129.559.559,0,0,1-.069.114.618.618,0,0,1-.086.1.59.59,0,0,1-.109.082.559.559,0,0,1-.119.061.629.629,0,0,1-.132.033A.6.6,0,0,1,5126.12,932.2Z" transform="translate(-5106.011 -930.165)" fill="url(#linear-gradient-24)"/>
        </g>
      </g>
      <g id="Grupo_54222" data-name="Grupo 54222" transform="translate(122.455 127.623)">
        <g id="Grupo_54219" data-name="Grupo 54219" opacity="0.64">
          <path id="Trazado_101730" data-name="Trazado 101730" d="M4791.877,1272.75a.859.859,0,0,1-.823-.617q-.2-.67-.373-1.349a.858.858,0,0,1,1.662-.432q.17.652.359,1.3a.859.859,0,0,1-.824,1.1Z" transform="translate(-4789.244 -1214.387)" fill="#fff"/>
          <path id="Trazado_101731" data-name="Trazado 101731" d="M4785.951,1084.272a.859.859,0,0,1-.848-.729c-.142-.925-.255-1.867-.338-2.8a.858.858,0,1,1,1.71-.152c.08.9.189,1.8.326,2.691a.859.859,0,0,1-.719.978A.885.885,0,0,1,4785.951,1084.272Zm-.5-7.234h-.01a.859.859,0,0,1-.848-.869c.011-.86.046-1.732.106-2.592l.016-.223a.859.859,0,0,1,1.712.126l-.016.215c-.057.828-.091,1.668-.1,2.5A.859.859,0,0,1,4785.448,1077.038Zm.676-7.218a.876.876,0,0,1-.15-.013.859.859,0,0,1-.7-.994c.163-.922.357-1.851.576-2.758a.859.859,0,0,1,1.669.4c-.211.873-.4,1.766-.554,2.653A.858.858,0,0,1,4786.124,1069.82Zm1.839-7.011a.859.859,0,0,1-.81-1.144c.312-.883.655-1.767,1.021-2.627a.858.858,0,0,1,1.58.672c-.352.828-.683,1.677-.982,2.526A.858.858,0,0,1,4787.963,1062.809Zm2.969-6.615a.859.859,0,0,1-.75-1.274c.453-.82.938-1.637,1.441-2.426a.858.858,0,1,1,1.447.923c-.484.759-.95,1.544-1.386,2.333A.858.858,0,0,1,4790.932,1056.194Zm4.018-6.039a.858.858,0,0,1-.673-1.391c.582-.735,1.193-1.46,1.817-2.156a.859.859,0,0,1,1.278,1.147c-.6.669-1.189,1.366-1.748,2.073A.857.857,0,0,1,4794.95,1050.155Zm4.948-5.3a.859.859,0,0,1-.578-1.494c.692-.63,1.413-1.245,2.143-1.83a.858.858,0,1,1,1.074,1.339c-.7.563-1.4,1.155-2.061,1.761A.855.855,0,0,1,4799.9,1044.854Zm5.743-4.426a.859.859,0,0,1-.468-1.579c.784-.508,1.6-1,2.41-1.457a.859.859,0,1,1,.842,1.5c-.785.441-1.565.913-2.319,1.4A.852.852,0,0,1,4805.641,1040.428Zm44.166-2.234a.856.856,0,0,1-.391-.095c-.8-.411-1.625-.8-2.45-1.16a.859.859,0,1,1,.686-1.574c.858.374,1.715.78,2.548,1.207a.859.859,0,0,1-.393,1.622Zm-37.782-1.2a.858.858,0,0,1-.343-1.646c.858-.374,1.738-.724,2.615-1.043a.858.858,0,1,1,.586,1.614c-.844.306-1.689.643-2.515,1A.855.855,0,0,1,4812.025,1037Zm31.079-1.569a.856.856,0,0,1-.26-.041c-.857-.273-1.735-.522-2.608-.742a.858.858,0,1,1,.417-1.665c.909.227,1.821.487,2.712.771a.858.858,0,0,1-.261,1.676Zm-24.221-.768a.858.858,0,0,1-.208-1.691c.907-.228,1.833-.429,2.754-.6a.858.858,0,0,1,.312,1.688c-.885.163-1.776.357-2.648.576A.854.854,0,0,1,4818.883,1034.661Zm17.154-.857a.865.865,0,0,1-.125-.009c-.889-.129-1.8-.232-2.695-.306a.859.859,0,1,1,.141-1.711c.934.077,1.876.184,2.8.318a.859.859,0,0,1-.123,1.708Zm-10-.32a.858.858,0,0,1-.068-1.714c.933-.075,1.879-.122,2.814-.139h.016a.858.858,0,0,1,.015,1.717c-.9.016-1.811.061-2.708.134C4826.082,1033.483,4826.059,1033.484,4826.036,1033.484Z" transform="translate(-4784.59 -1031.631)" fill="#fff"/>
          <path id="Trazado_101732" data-name="Trazado 101732" d="M5080.386,1064.724a.855.855,0,0,1-.489-.154q-.552-.384-1.117-.751a.858.858,0,0,1,.936-1.439q.587.382,1.161.781a.858.858,0,0,1-.491,1.563Z" transform="translate(-5010.118 -1055.128)" fill="#fff"/>
        </g>
        <g id="Grupo_54220" data-name="Grupo 54220" transform="translate(17.338 35.378)" opacity="0.64">
          <path id="Trazado_101733" data-name="Trazado 101733" d="M5162.363,1186.943a.859.859,0,0,1-.845-.714q-.114-.665-.247-1.323a.858.858,0,1,1,1.683-.342q.138.685.256,1.376a.857.857,0,0,1-.7.99A.848.848,0,0,1,5162.363,1186.943Z" transform="translate(-5091.066 -1183.876)" fill="#fff"/>
          <path id="Trazado_101734" data-name="Trazado 101734" d="M4902.973,1257.576c-.562,0-1.13-.01-1.692-.032a.858.858,0,1,1,.063-1.715c.89.033,1.786.039,2.669.018a.858.858,0,0,1,.041,1.716Q4903.515,1257.576,4902.973,1257.576Zm5.466-.338a.859.859,0,0,1-.1-1.71c.878-.109,1.765-.248,2.635-.411a.858.858,0,1,1,.317,1.687c-.9.17-1.826.314-2.74.428A.873.873,0,0,1,4908.439,1257.238Zm-11.53-.073a.883.883,0,0,1-.117-.008c-.913-.125-1.833-.279-2.735-.459a.858.858,0,0,1,.336-1.684c.868.173,1.753.322,2.631.442a.858.858,0,0,1-.115,1.709Zm18.515-1.381a.858.858,0,0,1-.242-1.682c.848-.25,1.7-.53,2.529-.832a.858.858,0,1,1,.586,1.614c-.864.314-1.75.6-2.63.865A.851.851,0,0,1,4915.424,1255.784Zm-25.485-.15a.86.86,0,0,1-.252-.038c-.881-.27-1.765-.571-2.625-.894a.858.858,0,0,1,.6-1.607c.828.311,1.678.6,2.526.86a.859.859,0,0,1-.251,1.679Zm32.138-2.414a.859.859,0,0,1-.374-1.632c.8-.384,1.593-.8,2.365-1.23a.859.859,0,0,1,.839,1.5c-.8.45-1.631.88-2.458,1.279A.86.86,0,0,1,4922.077,1253.22Zm-38.77-.225a.854.854,0,0,1-.381-.09c-.824-.408-1.647-.849-2.446-1.308a.858.858,0,0,1,.856-1.488c.768.441,1.559.865,2.353,1.258a.859.859,0,0,1-.382,1.628Zm44.924-3.378a.858.858,0,0,1-.492-1.562c.725-.507,1.444-1.043,2.138-1.594a.858.858,0,1,1,1.068,1.344c-.721.573-1.469,1.131-2.223,1.657A.856.856,0,0,1,4928.232,1249.617Zm5.5-4.543a.858.858,0,0,1-.6-1.474c.635-.617,1.259-1.262,1.856-1.917a.858.858,0,0,1,1.27,1.156c-.621.681-1.27,1.351-1.93,1.992A.856.856,0,0,1,4933.731,1245.074Zm4.7-5.366a.859.859,0,0,1-.688-1.371c.528-.711,1.042-1.448,1.525-2.191a.859.859,0,0,1,1.439.937c-.5.772-1.037,1.539-1.586,2.277A.858.858,0,0,1,4938.434,1239.708Zm3.78-6.054a.859.859,0,0,1-.762-1.253c.407-.787.794-1.6,1.152-2.41a.859.859,0,0,1,1.571.692c-.372.844-.775,1.687-1.2,2.506A.858.858,0,0,1,4942.214,1233.654Zm2.752-6.587a.859.859,0,0,1-.816-1.124c.273-.842.524-1.7.745-2.561a.858.858,0,1,1,1.662.429c-.229.891-.49,1.787-.774,2.663A.859.859,0,0,1,4944.966,1227.067Zm1.648-6.94a.87.87,0,0,1-.131-.01.859.859,0,0,1-.718-.978c.134-.875.243-1.766.324-2.648a.858.858,0,1,1,1.709.156c-.083.917-.2,1.843-.337,2.751A.858.858,0,0,1,4946.615,1220.126Zm.516-7.116a.858.858,0,0,1-.858-.852c-.006-.887-.041-1.784-.1-2.667a.858.858,0,0,1,1.713-.117c.063.918.1,1.85.1,2.771a.858.858,0,0,1-.852.865Z" transform="translate(-4875.206 -1202.835)" fill="#fff"/>
          <path id="Trazado_101735" data-name="Trazado 101735" d="M4861.163,1375.457a.855.855,0,0,1-.5-.161q-.568-.409-1.124-.834a.858.858,0,1,1,1.045-1.362q.534.409,1.081.8a.858.858,0,0,1-.5,1.555Z" transform="translate(-4859.203 -1328.993)" fill="#fff"/>
        </g>
        <g id="Grupo_54221" data-name="Grupo 54221" transform="translate(10.863 10.48)">
          <path id="Trazado_101736" data-name="Trazado 101736" d="M4841.663,1135.46a.531.531,0,0,0,.594.163l6.061-2.229a28.148,28.148,0,0,0,8.023,4.321l1.479,6.281a.531.531,0,0,0,.462.406l7.706.781a.531.531,0,0,0,.535-.305l2.708-5.857a28.131,28.131,0,0,0,8.727-2.624l5.491,3.4a.53.53,0,0,0,.614-.04l6-4.9a.53.53,0,0,0,.163-.594L4888,1128.2a28.105,28.105,0,0,0,4.321-8.024l6.281-1.478a.529.529,0,0,0,.406-.463l.781-7.706a.53.53,0,0,0-.306-.535l-5.857-2.708a28.114,28.114,0,0,0-2.624-8.727l3.4-5.49a.531.531,0,0,0-.04-.615l-4.9-6a.532.532,0,0,0-.595-.163l-6.06,2.229a28.135,28.135,0,0,0-8.023-4.321l-1.479-6.281a.53.53,0,0,0-.463-.406l-7.706-.781a.53.53,0,0,0-.535.305l-2.708,5.857a28.134,28.134,0,0,0-8.727,2.624l-5.49-3.4a.53.53,0,0,0-.614.04l-6,4.9a.53.53,0,0,0-.163.594l2.229,6.06a28.11,28.11,0,0,0-4.321,8.023l-6.282,1.478a.531.531,0,0,0-.406.463l-.78,7.706a.53.53,0,0,0,.305.535l5.857,2.708a28.116,28.116,0,0,0,2.624,8.727l-3.4,5.49a.53.53,0,0,0,.04.615Z" transform="translate(-4831.335 -1076.732)" fill="url(#linear-gradient-27)"/>
          <path id="Trazado_101737" data-name="Trazado 101737" d="M4953.634,1206.6a7.57,7.57,0,1,1,1.107-.081h0A7.581,7.581,0,0,1,4953.634,1206.6Zm1.007-.761h0Zm-.989-13a6.282,6.282,0,0,0-.916.067,6.191,6.191,0,1,0,1.805,12.249h0a6.191,6.191,0,0,0-.89-12.316Z" transform="translate(-4919.411 -1164.806)" fill="#fff"/>
          <path id="Trazado_101738" data-name="Trazado 101738" d="M4916.3,1179.693a19.316,19.316,0,0,1-5.429-.779q-.245-.072-.49-.151a.343.343,0,0,1-.238-.326.35.35,0,0,1,.017-.106.344.344,0,0,1,.433-.221,18.465,18.465,0,0,0,3.823.8h0a18.209,18.209,0,0,0,12.484-3.3q.492-.351.964-.736a18.346,18.346,0,1,0-29.852-16.062,18.351,18.351,0,0,0,1.638,9.634.344.344,0,0,1-.165.457.343.343,0,0,1-.457-.165,19.034,19.034,0,1,1,36.27-8.095,19.176,19.176,0,0,1-.1,1.936,19.037,19.037,0,0,1-18.9,17.116Z" transform="translate(-4881.919 -1126.546)" fill="#fff"/>
        </g>
      </g>
      <g id="Grupo_54226" data-name="Grupo 54226" transform="translate(214.879 99.184)">
        <path id="Trazado_101739" data-name="Trazado 101739" d="M5212.016,966.586l3.4-1.566a16.3,16.3,0,0,0,4.833,2.128l1.143,3.561a.307.307,0,0,0,.286.214l4.488.1a.307.307,0,0,0,.295-.2l1.295-3.508a16.3,16.3,0,0,0,4.921-1.917L5236,967.1a.307.307,0,0,0,.353-.051l3.242-3.1a.308.308,0,0,0,.067-.351l-1.566-3.4a16.317,16.317,0,0,0,2.127-4.834l3.561-1.143a.307.307,0,0,0,.214-.286l.1-4.488a.307.307,0,0,0-.2-.3l-3.508-1.3a16.306,16.306,0,0,0-1.917-4.921l1.711-3.328a.307.307,0,0,0-.051-.353l-3.1-3.242a.308.308,0,0,0-.351-.066l-3.4,1.566a16.3,16.3,0,0,0-4.834-2.128l-1.143-3.561a.308.308,0,0,0-.286-.214l-4.488-.1a.306.306,0,0,0-.294.2l-1.3,3.508a16.3,16.3,0,0,0-4.921,1.917l-3.328-1.711a.308.308,0,0,0-.354.051l-3.242,3.1a.308.308,0,0,0-.066.351l1.565,3.4a16.323,16.323,0,0,0-2.127,4.834l-3.561,1.142a.307.307,0,0,0-.213.286l-.1,4.488a.308.308,0,0,0,.2.3l3.508,1.3a16.3,16.3,0,0,0,1.917,4.921l-1.711,3.328a.307.307,0,0,0,.051.353l3.1,3.242A.308.308,0,0,0,5212.016,966.586Z" transform="translate(-5199.419 -926.34)" fill="url(#linear-gradient-28)"/>
        <path id="Trazado_101740" data-name="Trazado 101740" d="M5275.295,1006.544a4.334,4.334,0,1,1,.969-.11h0A4.326,4.326,0,0,1,5275.295,1006.544Zm0-7.972a3.643,3.643,0,1,0,.814,7.193h0a3.643,3.643,0,0,0-.814-7.193Z" transform="translate(-5250.369 -977.288)" fill="#fff" opacity="0.56"/>
        <g id="Grupo_54225" data-name="Grupo 54225">
          <g id="Grupo_54223" data-name="Grupo 54223" opacity="0.64">
            <path id="Trazado_101741" data-name="Trazado 101741" d="M5197.752,1067.456a.858.858,0,0,1-.719-.388c-.258-.394-.509-.8-.745-1.211a.859.859,0,0,1,1.488-.857c.22.381.453.761.693,1.127a.859.859,0,0,1-.717,1.329Z" transform="translate(-5192.956 -1028.477)" fill="#fff"/>
            <path id="Trazado_101742" data-name="Trazado 101742" d="M5184.505,942.882a.859.859,0,0,1-.812-.58,25.264,25.264,0,0,1-.729-2.552l-.059-.265a.858.858,0,1,1,1.677-.365l.055.246a23.677,23.677,0,0,0,.679,2.378.859.859,0,0,1-.812,1.137Zm-1.312-7.272a.859.859,0,0,1-.857-.837q-.008-.311-.008-.62c0-.766.036-1.541.107-2.3a.858.858,0,0,1,1.709.16c-.067.71-.1,1.431-.1,2.144q0,.288.007.577a.858.858,0,0,1-.836.88Zm.96-7.326a.859.859,0,0,1-.824-1.1,25.028,25.028,0,0,1,.986-2.754.858.858,0,1,1,1.58.673,23.3,23.3,0,0,0-.918,2.564A.859.859,0,0,1,5184.153,928.284Zm3.139-6.688a.859.859,0,0,1-.711-1.338,25.144,25.144,0,0,1,1.771-2.327.858.858,0,0,1,1.3,1.118,23.408,23.408,0,0,0-1.65,2.167A.857.857,0,0,1,5187.292,921.6Zm5.013-5.426a.858.858,0,0,1-.534-1.531,24.9,24.9,0,0,1,2.393-1.679.859.859,0,0,1,.9,1.461,23.053,23.053,0,0,0-2.227,1.562A.855.855,0,0,1,5192.3,916.17Zm6.424-3.642a.859.859,0,0,1-.3-1.662,25.184,25.184,0,0,1,2.792-.871.858.858,0,0,1,.415,1.666,23.5,23.5,0,0,0-2.6.812A.855.855,0,0,1,5198.729,912.528Zm10.054-1.516-.055,0A23.108,23.108,0,0,0,5206,911a.858.858,0,1,1-.094-1.714,24.821,24.821,0,0,1,2.925.012.858.858,0,0,1-.053,1.715Z" transform="translate(-5182.328 -909.247)" fill="#fff"/>
            <path id="Trazado_101743" data-name="Trazado 101743" d="M5314.206,914.7a.856.856,0,0,1-.265-.042c-.419-.136-.847-.261-1.27-.372a.858.858,0,0,1,.434-1.661c.456.119.915.253,1.365.4a.859.859,0,0,1-.264,1.675Z" transform="translate(-5281.89 -911.818)" fill="#fff"/>
          </g>
          <g id="Grupo_54224" data-name="Grupo 54224" transform="translate(15.627 12.623)" opacity="0.64">
            <path id="Trazado_101744" data-name="Trazado 101744" d="M5378.5,966.513a.859.859,0,0,1-.778-.495c-.187-.4-.387-.8-.595-1.182a.858.858,0,1,1,1.51-.816c.224.415.439.842.639,1.27a.858.858,0,0,1-.414,1.141A.848.848,0,0,1,5378.5,966.513Z" transform="translate(-5347.408 -963.57)" fill="#fff"/>
            <path id="Trazado_101745" data-name="Trazado 101745" d="M5277.854,1018.884h-.09a24.78,24.78,0,0,1-2.786-.158.858.858,0,0,1,.194-1.706,23.1,23.1,0,0,0,2.6.147h.075a.858.858,0,1,1,.01,1.717Zm4.483-.439a.859.859,0,0,1-.161-1.7q.4-.077.806-.17c.6-.139,1.207-.3,1.792-.486a.858.858,0,1,1,.515,1.637c-.628.2-1.275.373-1.922.522q-.434.1-.867.183A.851.851,0,0,1,5282.338,1018.445Zm6.852-2.43a.859.859,0,0,1-.407-1.615,23.074,23.074,0,0,0,2.282-1.4.858.858,0,0,1,.982,1.408,24.788,24.788,0,0,1-2.452,1.507A.852.852,0,0,1,5289.189,1016.015Zm5.8-4.371a.858.858,0,0,1-.614-1.458,23.168,23.168,0,0,0,1.757-2.021.859.859,0,0,1,1.358,1.05,25.036,25.036,0,0,1-1.888,2.17A.856.856,0,0,1,5294.994,1011.644Zm4.237-5.9a.858.858,0,0,1-.764-1.249,23.434,23.434,0,0,0,1.078-2.453.858.858,0,1,1,1.609.6,25.153,25.153,0,0,1-1.158,2.634A.86.86,0,0,1,5299.231,1005.74Zm2.292-6.9a.847.847,0,0,1-.145-.012.859.859,0,0,1-.7-.99,23.038,23.038,0,0,0,.295-2.663.858.858,0,0,1,1.714.089,24.943,24.943,0,0,1-.316,2.862A.859.859,0,0,1,5301.522,998.84Zm.112-7.269a.859.859,0,0,1-.85-.742c-.094-.689-.221-1.384-.378-2.065q-.065-.285-.137-.567a.858.858,0,1,1,1.663-.424q.078.3.147.607c.168.73.3,1.476.406,2.215a.858.858,0,0,1-.733.967A.849.849,0,0,1,5301.635,991.572Z" transform="translate(-5268.491 -981.653)" fill="#fff"/>
            <path id="Trazado_101746" data-name="Trazado 101746" d="M5251.733,1111.971a.86.86,0,0,1-.256-.039c-.45-.14-.9-.3-1.344-.462a.858.858,0,1,1,.6-1.607c.412.155.833.3,1.251.43a.859.859,0,0,1-.255,1.678Z" transform="translate(-5249.576 -1075.826)" fill="#fff"/>
          </g>
        </g>
        <path id="Trazado_101747" data-name="Trazado 101747" d="M5252.69,990.778l-.248,0h0a11.264,11.264,0,0,1-2.359-.3.343.343,0,0,1-.264-.334.319.319,0,0,1,.01-.08.343.343,0,0,1,.413-.254,10.5,10.5,0,0,0,12.927-9.975c0-.076,0-.152,0-.228a10.488,10.488,0,0,0-20.973-.225c0,.076,0,.152,0,.228a10.47,10.47,0,0,0,1.372,5.188.343.343,0,1,1-.6.34,11.152,11.152,0,0,1-1.462-5.528c0-.081,0-.162,0-.243a11.175,11.175,0,0,1,22.347.24c0,.081,0,.162,0,.243a11.176,11.176,0,0,1-11.166,10.933Z" transform="translate(-5227.757 -954.676)" fill="#fff" opacity="0.56"/>
      </g>
      <g id="Grupo_54230" data-name="Grupo 54230" transform="translate(93.709 179.873)">
        <g id="Grupo_54227" data-name="Grupo 54227" opacity="0.64">
          <path id="Trazado_101748" data-name="Trazado 101748" d="M4663.78,1360.045a.343.343,0,0,1-.329-.247q-.123-.418-.227-.843a.343.343,0,1,1,.667-.163q.1.41.218.813a.342.342,0,0,1-.232.426A.331.331,0,0,1,4663.78,1360.045Z" transform="translate(-4662.671 -1334.818)" fill="#fff"/>
          <path id="Trazado_101749" data-name="Trazado 101749" d="M4661.438,1279.236a.344.344,0,0,1-.339-.291c-.086-.563-.147-1.136-.184-1.7a.343.343,0,0,1,.686-.044c.035.547.094,1.1.178,1.643a.343.343,0,0,1-.288.391A.307.307,0,0,1,4661.438,1279.236Zm-.213-3.356h-.008a.343.343,0,0,1-.335-.351q.011-.447.042-.9.029-.408.073-.811a.344.344,0,0,1,.683.075q-.044.389-.071.783-.031.435-.041.866A.343.343,0,0,1,4661.224,1275.88Zm.37-3.341a.351.351,0,0,1-.067-.007.343.343,0,0,1-.27-.4c.111-.558.249-1.118.41-1.663a.343.343,0,1,1,.658.193c-.154.526-.287,1.066-.395,1.6A.343.343,0,0,1,4661.594,1272.539Zm.947-3.225a.344.344,0,0,1-.319-.469c.208-.529.442-1.056.7-1.565a.343.343,0,0,1,.615.306c-.245.491-.471,1-.671,1.51A.344.344,0,0,1,4662.541,1269.314Zm1.5-3.009a.343.343,0,0,1-.292-.523c.3-.484.621-.961.96-1.418a.343.343,0,0,1,.551.409c-.328.441-.64.9-.926,1.369A.344.344,0,0,1,4664.041,1266.3Zm2.006-2.7a.343.343,0,0,1-.257-.571c.378-.426.78-.839,1.193-1.229a.343.343,0,0,1,.471.5c-.4.376-.786.775-1.151,1.186A.342.342,0,0,1,4666.047,1263.605Zm2.444-2.309a.343.343,0,0,1-.213-.613c.446-.353.913-.691,1.388-1a.343.343,0,1,1,.377.574c-.458.3-.909.627-1.339.968A.343.343,0,0,1,4668.491,1261.3Zm2.809-1.849a.343.343,0,0,1-.163-.646c.5-.27,1.021-.521,1.542-.745a.343.343,0,0,1,.272.631c-.5.217-1,.458-1.488.719A.346.346,0,0,1,4671.3,1259.448Zm17.8-.185a.341.341,0,0,1-.156-.038c-.489-.25-.994-.482-1.5-.688a.343.343,0,0,1,.257-.636c.527.214,1.052.453,1.559.713a.343.343,0,0,1-.157.649Zm-14.715-1.143a.344.344,0,0,1-.107-.67c.541-.178,1.1-.334,1.648-.463a.343.343,0,1,1,.156.669c-.533.125-1.068.275-1.59.447A.342.342,0,0,1,4674.387,1258.12Zm11.6-.119a.344.344,0,0,1-.1-.015c-.524-.16-1.063-.3-1.6-.412a.343.343,0,1,1,.142-.672c.557.118,1.115.261,1.659.427a.343.343,0,0,1-.1.672Zm-8.326-.646a.343.343,0,0,1-.048-.683c.562-.08,1.136-.136,1.7-.166a.343.343,0,1,1,.037.686c-.549.029-1.1.083-1.645.16A.386.386,0,0,1,4677.659,1257.354Zm5.037-.049-.042,0c-.323-.039-.653-.071-.98-.093-.223-.016-.446-.027-.668-.035a.343.343,0,0,1-.332-.355.339.339,0,0,1,.354-.332q.346.012.692.036c.339.023.681.056,1.016.1a.343.343,0,0,1-.041.684Z" transform="translate(-4660.88 -1256.488)" fill="#fff"/>
          <path id="Trazado_101750" data-name="Trazado 101750" d="M4788.29,1270.269a.347.347,0,0,1-.2-.061q-.344-.24-.7-.465a.343.343,0,0,1,.366-.581q.371.233.729.482a.344.344,0,0,1-.2.625Z" transform="translate(-4757.872 -1266.175)" fill="#fff"/>
        </g>
        <g id="Grupo_54228" data-name="Grupo 54228" transform="translate(7.51 15.323)" opacity="0.64">
          <path id="Trazado_101751" data-name="Trazado 101751" d="M4824.59,1323.962a.344.344,0,0,1-.339-.29q-.065-.418-.149-.83a.344.344,0,0,1,.673-.136q.086.427.154.86a.344.344,0,0,1-.339.4Z" transform="translate(-4793.678 -1322.43)" fill="#fff"/>
          <path id="Trazado_101752" data-name="Trazado 101752" d="M4712.167,1354.324h-.06a.344.344,0,0,1-.34-.346.334.334,0,0,1,.347-.34h.054c.521,0,1.049-.022,1.568-.065a.343.343,0,1,1,.058.684C4713.255,1354.3,4712.708,1354.324,4712.167,1354.324Zm-1.711-.075h-.031c-.558-.049-1.12-.123-1.671-.22a.343.343,0,1,1,.119-.676c.532.093,1.075.164,1.613.212a.343.343,0,0,1-.03.685Zm4.949-.2a.343.343,0,0,1-.058-.682c.532-.091,1.066-.208,1.589-.345a.343.343,0,1,1,.175.664c-.541.142-1.1.262-1.647.357A.333.333,0,0,1,4715.406,1354.049Zm-8.209-.373a.338.338,0,0,1-.088-.012c-.542-.144-1.083-.314-1.608-.5a.343.343,0,1,1,.233-.646c.507.183,1.029.347,1.552.486a.344.344,0,0,1-.088.676Zm11.408-.469a.344.344,0,0,1-.116-.667c.508-.182,1.014-.389,1.5-.615a.343.343,0,1,1,.287.624c-.508.234-1.033.448-1.56.637A.342.342,0,0,1,4718.6,1353.208Zm-14.52-.658a.341.341,0,0,1-.144-.032c-.507-.235-1.011-.5-1.5-.775a.343.343,0,0,1,.342-.6c.469.269.954.521,1.443.748a.343.343,0,0,1-.145.655Zm17.525-.724a.343.343,0,0,1-.17-.642c.469-.267.933-.558,1.377-.864a.343.343,0,1,1,.39.565c-.461.318-.941.619-1.427.9A.341.341,0,0,1,4721.61,1351.826Zm2.723-1.878a.344.344,0,0,1-.219-.608c.417-.344.823-.709,1.209-1.088a.343.343,0,1,1,.48.49c-.4.392-.821.771-1.252,1.127A.343.343,0,0,1,4724.333,1349.948Zm2.362-2.316a.344.344,0,0,1-.261-.567c.353-.411.69-.841,1.005-1.279a.343.343,0,0,1,.558.4c-.326.454-.677.9-1.042,1.325A.343.343,0,0,1,4726.7,1347.632Zm1.93-2.687a.344.344,0,0,1-.295-.519c.276-.464.535-.946.77-1.433a.344.344,0,0,1,.619.3c-.244.5-.512,1-.8,1.485A.344.344,0,0,1,4728.625,1344.945Zm1.438-2.98a.338.338,0,0,1-.122-.023.343.343,0,0,1-.2-.443c.191-.5.362-1.023.509-1.544a.343.343,0,1,1,.661.187c-.152.54-.33,1.078-.527,1.6A.345.345,0,0,1,4730.063,1341.964Zm.9-3.183a.343.343,0,0,1-.337-.408c.1-.528.18-1.07.236-1.609a.343.343,0,0,1,.683.07c-.058.559-.14,1.12-.244,1.667A.344.344,0,0,1,4730.962,1338.782Zm.34-3.29h-.006a.344.344,0,0,1-.337-.349c0-.113,0-.225,0-.337,0-.428-.015-.862-.044-1.288a.343.343,0,0,1,.685-.047c.03.442.046.891.046,1.335q0,.174,0,.349A.344.344,0,0,1,4731.3,1335.491Z" transform="translate(-4700.163 -1330.659)" fill="#fff"/>
          <path id="Trazado_101753" data-name="Trazado 101753" d="M4694.233,1405.55a.341.341,0,0,1-.2-.062q-.359-.25-.7-.516a.343.343,0,0,1,.418-.545q.334.256.68.5a.343.343,0,0,1-.2.625Z" transform="translate(-4693.199 -1385.319)" fill="#fff"/>
        </g>
        <g id="Grupo_54229" data-name="Grupo 54229" transform="translate(4.675 4.505)">
          <path id="Trazado_101754" data-name="Trazado 101754" d="M4685.473,1301.326a.23.23,0,0,0,.257.07l2.627-.966a12.189,12.189,0,0,0,3.477,1.872l.641,2.722a.229.229,0,0,0,.2.176l3.339.338a.231.231,0,0,0,.232-.132l1.173-2.538a12.194,12.194,0,0,0,3.782-1.137l2.379,1.473a.23.23,0,0,0,.266-.017l2.6-2.122a.229.229,0,0,0,.07-.258l-.966-2.626a12.173,12.173,0,0,0,1.873-3.477l2.722-.641a.231.231,0,0,0,.177-.2l.337-3.339a.229.229,0,0,0-.132-.232l-2.538-1.173a12.187,12.187,0,0,0-1.137-3.782l1.473-2.379a.23.23,0,0,0-.017-.266l-2.122-2.6a.23.23,0,0,0-.257-.07l-2.626.966a12.185,12.185,0,0,0-3.478-1.873l-.641-2.722a.23.23,0,0,0-.2-.176l-3.339-.338a.23.23,0,0,0-.232.132l-1.173,2.538a12.2,12.2,0,0,0-3.782,1.137l-2.379-1.473a.23.23,0,0,0-.267.017l-2.6,2.122a.23.23,0,0,0-.071.258l.966,2.626a12.2,12.2,0,0,0-1.873,3.477l-2.722.641a.23.23,0,0,0-.177.2l-.338,3.339a.229.229,0,0,0,.132.232l2.539,1.173a12.2,12.2,0,0,0,1.137,3.782l-1.473,2.379a.23.23,0,0,0,.017.266Z" transform="translate(-4680.998 -1275.875)" fill="url(#linear-gradient-29)"/>
          <path id="Trazado_101755" data-name="Trazado 101755" d="M4733.847,1332.049a3.328,3.328,0,1,1,.486-.036h0A3.328,3.328,0,0,1,4733.847,1332.049Zm.436-.376h0Zm-.433-5.586a2.637,2.637,0,1,0,2.607,2.253A2.659,2.659,0,0,0,4733.85,1326.088Z" transform="translate(-4719.016 -1313.893)" fill="#fff" opacity="0.56"/>
          <path id="Trazado_101756" data-name="Trazado 101756" d="M4717.167,1320.045a8.457,8.457,0,0,1-.857-.043h0c-.117-.012-.234-.026-.35-.043a8.5,8.5,0,0,1-1.409-.326.344.344,0,0,1-.238-.326.335.335,0,0,1,.017-.106.343.343,0,0,1,.432-.221,7.809,7.809,0,0,0,1.617.338h0a7.761,7.761,0,0,0,8.478-6.757c.007-.059.014-.118.02-.177a7.677,7.677,0,0,0,.04-.789,7.756,7.756,0,0,0-15.472-.775,7.6,7.6,0,0,0-.04.787,7.721,7.721,0,0,0,.732,3.286.338.338,0,0,1,.032.146.343.343,0,0,1-.654.146,8.443,8.443,0,1,1,7.652,4.86Z" transform="translate(-4702.276 -1296.819)" fill="#fff" opacity="0.56"/>
        </g>
      </g>
      <g id="Grupo_54234" data-name="Grupo 54234" transform="translate(270.538 95.141)">
        <g id="Grupo_54231" data-name="Grupo 54231" opacity="0.64">
          <path id="Trazado_101757" data-name="Trazado 101757" d="M5427.462,1082.256a.859.859,0,0,1-.823-.617c-.131-.448-.255-.9-.37-1.357a.859.859,0,0,1,1.666-.418c.108.431.227.866.352,1.292a.859.859,0,0,1-.582,1.065A.873.873,0,0,1,5427.462,1082.256Z" transform="translate(-5425.224 -1035.676)" fill="#fff"/>
          <path id="Trazado_101758" data-name="Trazado 101758" d="M5422.928,932.735a.859.859,0,0,1-.852-.758c-.109-.923-.184-1.863-.22-2.795a.858.858,0,1,1,1.715-.068c.035.887.106,1.782.21,2.661a.859.859,0,0,1-.751.953A.838.838,0,0,1,5422.928,932.735Zm-.11-7.171c-.025,0-.05,0-.075,0a.859.859,0,0,1-.782-.929c.08-.928.2-1.863.347-2.78a.859.859,0,0,1,1.694.279c-.144.873-.255,1.764-.331,2.648A.858.858,0,0,1,5422.817,925.564Zm1.336-7.043a.868.868,0,0,1-.247-.036.858.858,0,0,1-.576-1.068c.266-.892.571-1.784.907-2.652a.859.859,0,0,1,1.6.619c-.32.826-.61,1.675-.864,2.524A.858.858,0,0,1,5424.153,918.521Zm2.75-6.623a.858.858,0,0,1-.754-1.268c.444-.818.925-1.629,1.433-2.411a.859.859,0,0,1,1.44.935c-.482.744-.941,1.516-1.364,2.294A.859.859,0,0,1,5426.9,911.9Zm4.049-5.921a.858.858,0,0,1-.655-1.413c.6-.709,1.237-1.4,1.892-2.067a.858.858,0,1,1,1.22,1.208c-.624.631-1.23,1.293-1.8,1.968A.856.856,0,0,1,5430.952,905.977Zm5.167-4.973a.858.858,0,0,1-.53-1.534c.732-.574,1.5-1.126,2.271-1.641a.858.858,0,0,1,.95,1.43c-.737.49-1.465,1.016-2.163,1.563A.855.855,0,0,1,5436.119,901Zm6.065-3.821a.859.859,0,0,1-.381-1.628c.833-.413,1.694-.8,2.557-1.144a.858.858,0,0,1,.639,1.594c-.821.33-1.641.7-2.434,1.089A.857.857,0,0,1,5442.184,897.184Zm30.418-.292a.858.858,0,0,1-.365-.082c-.8-.377-1.627-.728-2.457-1.041a.858.858,0,0,1,.606-1.606c.872.329,1.74.7,2.582,1.094a.858.858,0,0,1-.366,1.635Zm-23.7-2.212a.858.858,0,0,1-.214-1.689c.9-.233,1.822-.434,2.739-.6a.858.858,0,0,1,.3,1.691c-.873.154-1.75.345-2.607.567A.854.854,0,0,1,5448.9,894.68Zm16.936-.158a.853.853,0,0,1-.2-.023c-.861-.2-1.742-.378-2.619-.516a.858.858,0,0,1,.266-1.7c.92.144,1.846.326,2.75.542a.858.858,0,0,1-.2,1.694Zm-9.847-.917a.858.858,0,0,1-.041-1.716c.924-.044,1.864-.052,2.8-.024a.858.858,0,0,1-.052,1.716c-.893-.027-1.788-.019-2.669.023Z" transform="translate(-5421.855 -891.85)" fill="#fff"/>
          <path id="Trazado_101759" data-name="Trazado 101759" d="M5655.372,917.925a.852.852,0,0,1-.489-.154c-.363-.253-.739-.5-1.114-.743a.858.858,0,1,1,.924-1.447c.4.252.789.515,1.169.78a.858.858,0,0,1-.49,1.563Z" transform="translate(-5599.574 -909.963)" fill="#fff"/>
        </g>
        <g id="Grupo_54232" data-name="Grupo 54232" transform="translate(13.705 28.021)" opacity="0.64">
          <path id="Trazado_101760" data-name="Trazado 101760" d="M5721.129,1015.5a.858.858,0,0,1-.846-.721c-.072-.44-.152-.883-.241-1.317a.858.858,0,1,1,1.683-.342c.093.456.178.921.252,1.384a.86.86,0,0,1-.848,1Z" transform="translate(-5664.443 -1012.436)" fill="#fff"/>
          <path id="Trazado_101761" data-name="Trazado 101761" d="M5518.719,1074.981h-.008c-.732-.006-1.475-.035-2.206-.086q-.275-.019-.55-.042a.858.858,0,0,1,.145-1.711c.174.015.349.028.524.041.7.048,1.4.076,2.1.082a.858.858,0,0,1-.007,1.717Zm4.364-.235a.858.858,0,0,1-.1-1.711c.865-.1,1.737-.238,2.593-.405a.858.858,0,1,1,.331,1.685c-.9.176-1.815.319-2.724.425A.805.805,0,0,1,5523.083,1074.746Zm-11.38-.526a.857.857,0,0,1-.178-.019c-.9-.189-1.8-.416-2.676-.674a.858.858,0,1,1,.483-1.647c.837.245,1.694.461,2.547.641a.858.858,0,0,1-.176,1.7Zm18.268-1a.859.859,0,0,1-.269-1.674c.826-.274,1.653-.583,2.457-.92a.858.858,0,1,1,.664,1.583c-.844.354-1.713.679-2.581.967A.862.862,0,0,1,5529.971,1073.22Zm-24.991-1.151a.855.855,0,0,1-.342-.072c-.838-.366-1.674-.77-2.483-1.2a.858.858,0,1,1,.805-1.516c.771.41,1.567.794,2.365,1.142a.859.859,0,0,1-.344,1.645Zm31.428-1.73a.858.858,0,0,1-.429-1.6c.755-.434,1.5-.9,2.224-1.4a.858.858,0,0,1,.967,1.418c-.756.516-1.542,1.009-2.335,1.465A.856.856,0,0,1,5536.408,1070.339Zm5.73-4.113a.858.858,0,0,1-.568-1.5c.655-.577,1.295-1.187,1.9-1.811a.858.858,0,0,1,1.231,1.2c-.638.656-1.309,1.3-2,1.9A.854.854,0,0,1,5542.138,1066.226Zm4.8-5.175a.858.858,0,0,1-.684-1.376c.525-.7,1.031-1.421,1.5-2.155a.859.859,0,0,1,1.446.926c-.495.771-1.025,1.533-1.578,2.263A.857.857,0,0,1,5546.934,1061.051Zm3.664-6.033a.858.858,0,0,1-.775-1.228c.375-.787.724-1.6,1.037-2.414a.858.858,0,0,1,1.6.616c-.329.856-.7,1.709-1.089,2.536A.859.859,0,0,1,5550.6,1055.019Zm2.372-6.646a.858.858,0,0,1-.834-1.063c.208-.846.386-1.711.528-2.572a.858.858,0,0,1,1.694.28c-.149.9-.336,1.813-.554,2.7A.859.859,0,0,1,5552.97,1048.372Zm.987-6.985h-.035a.859.859,0,0,1-.823-.893c.02-.468.029-.943.029-1.412q0-.61-.021-1.214a.859.859,0,0,1,1.716-.061q.021.635.022,1.275c0,.493-.01.991-.03,1.482A.859.859,0,0,1,5553.957,1041.387Z" transform="translate(-5496.85 -1031.276)" fill="#fff"/>
          <path id="Trazado_101762" data-name="Trazado 101762" d="M5482.8,1164.671a.856.856,0,0,1-.494-.157c-.38-.268-.761-.548-1.133-.834a.858.858,0,0,1,1.044-1.362c.354.271.717.538,1.078.793a.858.858,0,0,1-.5,1.56Z" transform="translate(-5480.833 -1127.353)" fill="#fff"/>
        </g>
        <g id="Grupo_54233" data-name="Grupo 54233" transform="translate(8.755 8.483)">
          <path id="Trazado_101763" data-name="Trazado 101763" d="M5467.711,974.863a.421.421,0,0,0,.471.129l4.8-1.765a22.279,22.279,0,0,0,6.354,3.422l1.171,4.974a.419.419,0,0,0,.366.322l6.1.618a.421.421,0,0,0,.424-.241l2.144-4.639a22.269,22.269,0,0,0,6.911-2.078l4.348,2.692a.42.42,0,0,0,.486-.032l4.752-3.878a.42.42,0,0,0,.129-.471l-1.765-4.8a22.289,22.289,0,0,0,3.421-6.354l4.975-1.17a.421.421,0,0,0,.322-.366l.618-6.1a.419.419,0,0,0-.242-.424l-4.638-2.144a22.263,22.263,0,0,0-2.078-6.911l2.691-4.348a.42.42,0,0,0-.032-.487l-3.878-4.752a.42.42,0,0,0-.471-.129l-4.8,1.765a22.27,22.27,0,0,0-6.354-3.422l-1.17-4.974a.421.421,0,0,0-.367-.322l-6.1-.618a.42.42,0,0,0-.424.242l-2.144,4.639a22.271,22.271,0,0,0-6.911,2.078l-4.348-2.692a.42.42,0,0,0-.487.032l-4.752,3.878a.421.421,0,0,0-.129.471l1.765,4.8a22.265,22.265,0,0,0-3.421,6.354l-4.975,1.171a.419.419,0,0,0-.321.366l-.619,6.1a.42.42,0,0,0,.242.424l4.639,2.144a22.265,22.265,0,0,0,2.078,6.911l-2.692,4.348a.42.42,0,0,0,.032.487Z" transform="translate(-5459.533 -928.357)" fill="url(#linear-gradient-30)"/>
          <path id="Trazado_101764" data-name="Trazado 101764" d="M5554.762,1030.078a6.5,6.5,0,1,1,.958-.071A6.524,6.524,0,0,1,5554.762,1030.078Zm.023-10.894a4.417,4.417,0,1,0,.635,8.786,4.417,4.417,0,0,0-.635-8.786Z" transform="translate(-5527.671 -996.496)" fill="#fff" opacity="0.56"/>
          <path id="Trazado_101765" data-name="Trazado 101765" d="M5526.563,1009.726a15.256,15.256,0,0,1-1.538-.078h0a15.262,15.262,0,0,1-2.816-.556l-.1-.03-.239-.076a.343.343,0,0,1-.238-.326.336.336,0,0,1,.017-.106.343.343,0,0,1,.432-.221,14.529,14.529,0,0,0,3.013.631h0a14.45,14.45,0,1,0-11.636-8.248.332.332,0,0,1,.033.146.343.343,0,0,1-.654.146,15.106,15.106,0,0,1-1.429-6.417,15.143,15.143,0,1,1,15.155,15.134Z" transform="translate(-5499.354 -967.568)" fill="#fff" opacity="0.56"/>
        </g>
      </g>
      <g id="Grupo_54238" data-name="Grupo 54238" transform="translate(322.229 75.972)">
        <g id="Grupo_54235" data-name="Grupo 54235" opacity="0.64">
          <path id="Trazado_101766" data-name="Trazado 101766" d="M5647.216,909.692a.859.859,0,0,1-.823-.617c-.134-.458-.253-.926-.353-1.392a.859.859,0,1,1,1.679-.361c.091.425.2.852.322,1.269a.859.859,0,0,1-.824,1.1Z" transform="translate(-5645.621 -884.038)" fill="#fff"/>
          <path id="Trazado_101767" data-name="Trazado 101767" d="M5645.16,828.917h-.039a.858.858,0,0,1-.819-.9q.011-.256.028-.513a20.033,20.033,0,0,1,.342-2.543.858.858,0,1,1,1.683.338,18.105,18.105,0,0,0-.312,2.323q-.017.236-.027.47A.858.858,0,0,1,5645.16,828.917Zm1.888-7.452a.859.859,0,0,1-.771-1.236,19.641,19.641,0,0,1,1.569-2.653.859.859,0,0,1,1.4.988,17.843,17.843,0,0,0-1.432,2.42A.859.859,0,0,1,5647.048,821.466Zm4.725-6.066a.858.858,0,0,1-.556-1.513,19.862,19.862,0,0,1,2.5-1.8.858.858,0,0,1,.894,1.466,18.061,18.061,0,0,0-2.28,1.647A.854.854,0,0,1,5651.772,815.4Zm6.75-3.673a.858.858,0,0,1-.246-1.68,19.567,19.567,0,0,1,3.012-.651.858.858,0,1,1,.229,1.7,17.832,17.832,0,0,0-2.747.594A.864.864,0,0,1,5658.522,811.727Zm10.549-.074a.85.85,0,0,1-.234-.033,18.034,18.034,0,0,0-2.758-.553.858.858,0,0,1,.205-1.7,19.744,19.744,0,0,1,3.021.605.858.858,0,0,1-.234,1.684Z" transform="translate(-5644.301 -809.357)" fill="#fff"/>
          <path id="Trazado_101768" data-name="Trazado 101768" d="M5768.2,822.458a.854.854,0,0,1-.489-.154c-.358-.249-.729-.487-1.1-.708a.858.858,0,1,1,.875-1.477c.408.242.815.5,1.207.776a.858.858,0,0,1-.491,1.563Z" transform="translate(-5737.866 -817.526)" fill="#fff"/>
        </g>
        <g id="Grupo_54236" data-name="Grupo 54236" transform="translate(7.351 14.9)" opacity="0.64">
          <path id="Trazado_101769" data-name="Trazado 101769" d="M5805.369,876.552a.859.859,0,0,1-.851-.75c-.055-.432-.127-.867-.213-1.293a.858.858,0,0,1,1.682-.341c.095.467.174.944.234,1.417a.859.859,0,0,1-.743.96A.872.872,0,0,1,5805.369,876.552Z" transform="translate(-5774.462 -873.48)" fill="#fff"/>
          <path id="Trazado_101770" data-name="Trazado 101770" d="M5707.37,917.688a.858.858,0,0,1-.064-1.714,17.889,17.889,0,0,0,2.731-.423.858.858,0,1,1,.394,1.671,19.586,19.586,0,0,1-2.995.464Zm-4.694-.227a.873.873,0,0,1-.148-.013,19.663,19.663,0,0,1-2.937-.749.859.859,0,0,1,.553-1.626,17.9,17.9,0,0,0,2.679.684.858.858,0,0,1-.146,1.7Zm11.961-1.861a.859.859,0,0,1-.4-1.619,18.1,18.1,0,0,0,2.342-1.47.858.858,0,0,1,1.021,1.38,19.722,19.722,0,0,1-2.566,1.61A.853.853,0,0,1,5714.637,915.6Zm5.854-4.786a.858.858,0,0,1-.665-1.4,18.01,18.01,0,0,0,1.576-2.272.858.858,0,1,1,1.481.867,19.626,19.626,0,0,1-1.728,2.49A.856.856,0,0,1,5720.491,910.814Zm3.5-6.705a.859.859,0,0,1-.827-1.093,18,18,0,0,0,.548-2.71.858.858,0,0,1,1.7.21,19.927,19.927,0,0,1-.6,2.969A.86.86,0,0,1,5723.988,904.109Z" transform="translate(-5693.647 -893.494)" fill="#fff"/>
          <path id="Trazado_101771" data-name="Trazado 101771" d="M5677.911,956.323a.856.856,0,0,1-.47-.141c-.4-.262-.792-.541-1.17-.831a.858.858,0,0,1,1.045-1.362c.344.264.7.519,1.068.759a.859.859,0,0,1-.473,1.576Z" transform="translate(-5675.935 -935.144)" fill="#fff"/>
        </g>
        <g id="Grupo_54237" data-name="Grupo 54237" transform="translate(5.093 4.814)">
          <path id="Trazado_101772" data-name="Trazado 101772" d="M5670.606,855.029a.225.225,0,0,0,.252.069l2.575-.947a11.947,11.947,0,0,0,3.409,1.836l.628,2.669a.226.226,0,0,0,.2.173l3.274.332a.227.227,0,0,0,.228-.13l1.15-2.489a11.953,11.953,0,0,0,3.708-1.115l2.333,1.444a.226.226,0,0,0,.261-.017l2.55-2.081a.226.226,0,0,0,.069-.252l-.947-2.575a11.942,11.942,0,0,0,1.836-3.409l2.669-.628a.225.225,0,0,0,.172-.2l.332-3.275a.226.226,0,0,0-.13-.227l-2.489-1.151a11.951,11.951,0,0,0-1.115-3.708l1.444-2.333a.225.225,0,0,0-.018-.261l-2.081-2.55a.225.225,0,0,0-.252-.069l-2.576.947a11.946,11.946,0,0,0-3.41-1.836l-.628-2.669a.226.226,0,0,0-.2-.173l-3.274-.332a.226.226,0,0,0-.228.13l-1.15,2.489a11.949,11.949,0,0,0-3.708,1.115l-2.333-1.444a.225.225,0,0,0-.261.017l-2.55,2.081a.226.226,0,0,0-.069.252l.947,2.575a11.929,11.929,0,0,0-1.836,3.409l-2.669.628a.226.226,0,0,0-.173.2l-.332,3.274a.225.225,0,0,0,.129.228l2.489,1.15a11.952,11.952,0,0,0,1.115,3.708l-1.444,2.333a.226.226,0,0,0,.017.261Z" transform="translate(-5666.218 -830.073)" fill="url(#linear-gradient-31)"/>
          <path id="Trazado_101773" data-name="Trazado 101773" d="M5715.747,883.557a3.955,3.955,0,1,1,.579-.042A3.958,3.958,0,0,1,5715.747,883.557Zm.007-5.846a1.925,1.925,0,0,0-.28.021,1.892,1.892,0,1,0,.552,3.745h0a1.893,1.893,0,0,0-.271-3.765Z" transform="translate(-5701.205 -865.06)" fill="#fff" opacity="0.56"/>
          <path id="Trazado_101774" data-name="Trazado 101774" d="M5701.671,873.372a8.4,8.4,0,0,1-2.161-.282l-.017,0-.077-.021c-.109-.03-.216-.062-.323-.1a.344.344,0,0,1-.238-.326.349.349,0,0,1,.017-.106.343.343,0,0,1,.432-.221,7.653,7.653,0,0,0,1.584.332,7.6,7.6,0,0,0,8.326-6.794q.039-.389.039-.773a7.6,7.6,0,1,0-14.48,3.231.332.332,0,0,1,.032.146.343.343,0,0,1-.654.146,8.264,8.264,0,0,1-.782-3.511,8.285,8.285,0,1,1,16.528.829,8.287,8.287,0,0,1-8.228,7.451Z" transform="translate(-5687.061 -850.59)" fill="#fff" opacity="0.56"/>
        </g>
      </g>
      <g id="Grupo_54242" data-name="Grupo 54242" transform="translate(180.461 115.321)">
        <g id="Grupo_54239" data-name="Grupo 54239" opacity="0.64">
          <path id="Trazado_101775" data-name="Trazado 101775" d="M5036.66,1067.687a.342.342,0,0,1-.329-.247q-.123-.419-.225-.846a.344.344,0,0,1,.668-.159q.1.41.215.812a.343.343,0,0,1-.233.426A.334.334,0,0,1,5036.66,1067.687Z" transform="translate(-5035.659 -1045.843)" fill="#fff"/>
          <path id="Trazado_101776" data-name="Trazado 101776" d="M5034.689,998.043a.344.344,0,0,1-.341-.3,17.02,17.02,0,0,1-.135-1.722.343.343,0,1,1,.687-.019,16.211,16.211,0,0,0,.129,1.652.344.344,0,0,1-.3.385A.319.319,0,0,1,5034.689,998.043Zm-.092-3.378h-.026a.343.343,0,0,1-.317-.368c.043-.573.115-1.15.214-1.712a.344.344,0,0,1,.677.12,16.213,16.213,0,0,0-.206,1.644A.344.344,0,0,1,5034.6,994.665Zm.59-3.326a.339.339,0,0,1-.094-.013.344.344,0,0,1-.236-.425,16.96,16.96,0,0,1,.56-1.634.344.344,0,0,1,.638.256,16.028,16.028,0,0,0-.537,1.567A.345.345,0,0,1,5035.187,991.339Zm1.257-3.137a.344.344,0,0,1-.3-.5,16.736,16.736,0,0,1,.883-1.485.343.343,0,0,1,.571.38,16.38,16.38,0,0,0-.847,1.424A.343.343,0,0,1,5036.444,988.2Zm1.874-2.813a.343.343,0,0,1-.264-.562,16.915,16.915,0,0,1,1.166-1.274.343.343,0,0,1,.482.489,16.352,16.352,0,0,0-1.119,1.222A.343.343,0,0,1,5038.318,985.389Zm2.406-2.373a.343.343,0,0,1-.215-.611,16.908,16.908,0,0,1,1.4-1.011.343.343,0,1,1,.373.577,16.091,16.091,0,0,0-1.342.97A.343.343,0,0,1,5040.724,983.016Zm2.836-1.837a.343.343,0,0,1-.157-.649,16.827,16.827,0,0,1,1.576-.706.343.343,0,1,1,.248.64,16.273,16.273,0,0,0-1.511.677A.345.345,0,0,1,5043.56,981.179Zm14.7-.151a.344.344,0,0,1-.149-.034,16.129,16.129,0,0,0-1.526-.645.343.343,0,1,1,.234-.646,16.914,16.914,0,0,1,1.591.672.343.343,0,0,1-.15.652Zm-11.548-1.069a.343.343,0,0,1-.09-.675,16.847,16.847,0,0,1,1.687-.368.343.343,0,1,1,.112.678,16.119,16.119,0,0,0-1.618.353A.346.346,0,0,1,5046.709,979.959Zm8.372-.084a.343.343,0,0,1-.083-.01,16.364,16.364,0,0,0-1.626-.319.343.343,0,0,1,.1-.68,17.108,17.108,0,0,1,1.7.332.343.343,0,0,1-.083.677Zm-5.038-.465a.343.343,0,0,1-.021-.686,16.947,16.947,0,0,1,1.727-.016.343.343,0,1,1-.028.686,16.5,16.5,0,0,0-1.657.015Z" transform="translate(-5034.213 -978.693)" fill="#fff"/>
          <path id="Trazado_101777" data-name="Trazado 101777" d="M5143.716,990.5a.34.34,0,0,1-.2-.062q-.344-.239-.7-.461a.343.343,0,1,1,.362-.583q.372.231.731.481a.343.343,0,0,1-.2.625Z" transform="translate(-5117.457 -986.864)" fill="#fff"/>
        </g>
        <g id="Grupo_54240" data-name="Grupo 54240" transform="translate(6.47 13.214)" opacity="0.64">
          <path id="Trazado_101778" data-name="Trazado 101778" d="M5175.349,1037.091a.343.343,0,0,1-.339-.292q-.062-.417-.146-.827a.343.343,0,0,1,.673-.137c.058.285.109.575.152.863a.344.344,0,0,1-.289.39A.379.379,0,0,1,5175.349,1037.091Z" transform="translate(-5148.646 -1035.559)" fill="#fff"/>
          <path id="Trazado_101779" data-name="Trazado 101779" d="M5079.477,1064.316c-.39,0-.787-.014-1.18-.041-.15-.01-.3-.023-.447-.037a.343.343,0,0,1,.065-.684c.143.014.286.026.429.036.377.026.759.039,1.133.039h.067a.343.343,0,1,1,0,.687Zm1.73-.091a.343.343,0,0,1-.035-.685,16.089,16.089,0,0,0,1.609-.252.343.343,0,1,1,.141.672,16.806,16.806,0,0,1-1.679.263Zm-4.971-.226a.35.35,0,0,1-.067-.006,16.939,16.939,0,0,1-1.648-.414.343.343,0,1,1,.2-.657,16.2,16.2,0,0,0,1.581.4.343.343,0,0,1-.066.68Zm8.225-.455a.344.344,0,0,1-.1-.671,16.157,16.157,0,0,0,1.525-.572.343.343,0,0,1,.274.63,16.878,16.878,0,0,1-1.591.6A.346.346,0,0,1,5084.461,1063.545Zm-11.405-.517a.341.341,0,0,1-.133-.027,16.776,16.776,0,0,1-1.531-.738.343.343,0,1,1,.329-.6,16.073,16.073,0,0,0,1.469.707.344.344,0,0,1-.133.66Zm14.455-.806a.343.343,0,0,1-.168-.643,16.185,16.185,0,0,0,1.38-.866.344.344,0,0,1,.395.563c-.463.324-.947.628-1.439.9A.34.34,0,0,1,5087.51,1062.222Zm2.723-1.906a.343.343,0,0,1-.224-.6,16.227,16.227,0,0,0,1.18-1.124.343.343,0,0,1,.5.473,16.84,16.84,0,0,1-1.23,1.172A.34.34,0,0,1,5090.233,1060.316Zm2.289-2.411a.344.344,0,0,1-.271-.554,16.251,16.251,0,0,0,.932-1.337.343.343,0,1,1,.583.364,16.905,16.905,0,0,1-.972,1.394A.344.344,0,0,1,5092.522,1057.9Zm1.76-2.821a.343.343,0,0,1-.308-.495,16.108,16.108,0,0,0,.644-1.5.343.343,0,0,1,.644.239,16.72,16.72,0,0,1-.671,1.562A.343.343,0,0,1,5094.282,1055.084Zm1.156-3.118a.344.344,0,0,1-.333-.429,16.187,16.187,0,0,0,.329-1.6.343.343,0,1,1,.678.1,16.974,16.974,0,0,1-.342,1.664A.343.343,0,0,1,5095.438,1051.967Zm.506-3.285h-.018a.344.344,0,0,1-.325-.361c.015-.289.023-.583.023-.871q0-.381-.018-.759a.343.343,0,1,1,.686-.032q.018.394.019.791c0,.3-.008.606-.024.908A.343.343,0,0,1,5095.944,1048.682Z" transform="translate(-5069.085 -1043.827)" fill="#fff"/>
          <path id="Trazado_101780" data-name="Trazado 101780" d="M5063.094,1107.351a.341.341,0,0,1-.194-.06c-.238-.164-.477-.337-.709-.515a.343.343,0,1,1,.418-.545q.333.255.68.494a.343.343,0,0,1-.194.626Z" transform="translate(-5062.056 -1089.754)" fill="#fff"/>
        </g>
        <g id="Grupo_54241" data-name="Grupo 54241" transform="translate(4.074 3.939)">
          <path id="Trazado_101781" data-name="Trazado 101781" d="M5055.6,1017.577a.2.2,0,0,0,.222.061l2.264-.832a10.493,10.493,0,0,0,3,1.614l.553,2.346a.2.2,0,0,0,.172.152l2.878.292a.2.2,0,0,0,.2-.114l1.011-2.187a10.5,10.5,0,0,0,3.259-.98l2.051,1.269a.2.2,0,0,0,.229-.015l2.241-1.829a.2.2,0,0,0,.061-.222l-.832-2.263a10.513,10.513,0,0,0,1.613-3l2.346-.552a.2.2,0,0,0,.152-.173l.292-2.878a.2.2,0,0,0-.114-.2l-2.188-1.011a10.5,10.5,0,0,0-.979-3.259l1.269-2.05a.2.2,0,0,0-.015-.229l-1.829-2.241a.2.2,0,0,0-.222-.061l-2.264.832a10.5,10.5,0,0,0-3-1.614l-.552-2.346a.2.2,0,0,0-.173-.152l-2.877-.292a.2.2,0,0,0-.2.114l-1.011,2.188a10.508,10.508,0,0,0-3.259.98l-2.05-1.269a.2.2,0,0,0-.229.015l-2.241,1.829a.2.2,0,0,0-.061.222l.832,2.263a10.5,10.5,0,0,0-1.613,3l-2.346.552a.2.2,0,0,0-.151.173l-.292,2.878a.2.2,0,0,0,.114.2l2.188,1.011a10.513,10.513,0,0,0,.98,3.259l-1.269,2.05a.2.2,0,0,0,.015.23Z" transform="translate(-5051.747 -995.645)" fill="url(#linear-gradient-32)"/>
          <path id="Trazado_101782" data-name="Trazado 101782" d="M5097.13,1043.945a2.913,2.913,0,1,1,.427-.031h0A2.922,2.922,0,0,1,5097.13,1043.945Zm0-5.137a2.254,2.254,0,0,0-.326.024,2.225,2.225,0,0,0,.649,4.4h0a2.225,2.225,0,0,0-.323-4.427Z" transform="translate(-5084.351 -1028.251)" fill="#fff" opacity="0.56"/>
          <path id="Trazado_101783" data-name="Trazado 101783" d="M5082.758,1033.6a7.34,7.34,0,0,1-.743-.037h0a7.368,7.368,0,0,1-1.526-.32.343.343,0,1,1,.212-.653,6.68,6.68,0,0,0,1.383.29l.068.007a6.637,6.637,0,0,0,7.184-5.776c.007-.055.014-.109.019-.164a6.636,6.636,0,1,0-13.2-1.338,6.484,6.484,0,0,0-.035.673,6.615,6.615,0,0,0,.626,2.811.339.339,0,0,1,.032.146.343.343,0,0,1-.654.146,7.3,7.3,0,0,1-.691-3.1,7.426,7.426,0,0,1,.038-.743,7.323,7.323,0,1,1,7.291,8.061Z" transform="translate(-5069.927 -1013.537)" fill="#fff" opacity="0.56"/>
        </g>
      </g>
      <g id="Grupo_54247" data-name="Grupo 54247" transform="translate(226.197 134.911)">
        <g id="Grupo_54243" data-name="Grupo 54243" transform="translate(36.967 22.116)">
          <path id="Trazado_101784" data-name="Trazado 101784" d="M5390.118,1203.829l1.969,1.941a14.123,14.123,0,0,0,6.6-2.241,15.586,15.586,0,0,0-2.8-4.8A16.2,16.2,0,0,1,5390.118,1203.829Z" transform="translate(-5390.118 -1189.301)" fill="url(#linear-gradient-33)"/>
          <path id="Trazado_101785" data-name="Trazado 101785" d="M5422.882,1165.434l-4.646-7.264a18.318,18.318,0,0,1-3.286,9.424,15.588,15.588,0,0,1,2.8,4.8A12.781,12.781,0,0,0,5422.882,1165.434Z" transform="translate(-5409.18 -1158.17)" fill="#fd392f"/>
        </g>
        <path id="Trazado_101786" data-name="Trazado 101786" d="M5450.345,1423.053c-2.316.107-4.559.04-6.056-.037a30.394,30.394,0,0,1,7.13-3.921l1.8-.108a7.354,7.354,0,0,1,.829,3.057C5453.753,1422.417,5452.88,1422.937,5450.345,1423.053Z" transform="translate(-5394.734 -1336.265)" fill="url(#linear-gradient-34)"/>
        <path id="Trazado_101787" data-name="Trazado 101787" d="M5443.769,1433.127l.019-.013c1.5.077,3.739.144,6.056.037,2.535-.117,3.409-.637,3.708-1.01.01.1.02.2.028.3a.844.844,0,0,1-.776.912c-1.9.144-6.6.468-8.869.349A.317.317,0,0,1,5443.769,1433.127Z" transform="translate(-5394.233 -1346.362)" fill="url(#linear-gradient-35)"/>
        <path id="Trazado_101788" data-name="Trazado 101788" d="M5541.6,1422.78a17.5,17.5,0,0,1,.651-3.061c.33-.63,1.458,0,1.458,0a3,3,0,0,1,1.157.985c.232.393.875,1.51,1.311,2.268a.514.514,0,0,1,.069.27l-4.52.158A.9.9,0,0,1,5541.6,1422.78Z" transform="translate(-5469.429 -1336.611)" fill="url(#linear-gradient-36)"/>
        <path id="Trazado_101789" data-name="Trazado 101789" d="M5546.708,1435.805a.515.515,0,0,1-.5.5l-3.22.089a.908.908,0,0,1-.8-.431Z" transform="translate(-5469.885 -1349.175)" fill="url(#linear-gradient-37)"/>
        <path id="Trazado_101790" data-name="Trazado 101790" d="M5540.155,1403.227c.039.13.623,2.961.878,4.2a.71.71,0,0,0,.73.567c.191-.009.414-.027.647-.057a.856.856,0,0,0,.745-.816,11.586,11.586,0,0,0-.338-3.988C5542.267,1402.02,5540.155,1403.227,5540.155,1403.227Z" transform="translate(-5468.324 -1323.734)" fill="url(#linear-gradient-38)"/>
        <path id="Trazado_101791" data-name="Trazado 101791" d="M5475.943,1405.6c-.25-.008.1,1.293-.279,2.572a.657.657,0,0,1-.6.519c-.2,0-.426,0-.661-.02a.727.727,0,0,1-.669-.654l-.308-3.317Z" transform="translate(-5417.1 -1325.3)" fill="url(#linear-gradient-39)"/>
        <path id="Trazado_101792" data-name="Trazado 101792" d="M5454.114,1251.516c.112.544,4.058,23.559,4.3,35.469a.4.4,0,0,0,.348.395,7.957,7.957,0,0,0,2.422-.016.287.287,0,0,0,.236-.262c.138-2.219,1.247-20.984-.112-29.817,0,0,11.219,23.613,12.92,30.124a.343.343,0,0,0,.35.256,8.477,8.477,0,0,0,2.273-.4.6.6,0,0,0,.375-.7c-.95-3.9-7.609-30.742-12.13-36.657Z" transform="translate(-5402.276 -1206.473)" fill="url(#linear-gradient-40)"/>
        <path id="Trazado_101793" data-name="Trazado 101793" d="M5479.617,1276.246a.145.145,0,0,0,.1-.042.147.147,0,0,0,0-.208l-1.5-1.536a.147.147,0,0,0-.211.206l1.5,1.536A.147.147,0,0,0,5479.617,1276.246Z" transform="translate(-5420.586 -1225.287)" fill="url(#linear-gradient-41)"/>
        <path id="Trazado_101794" data-name="Trazado 101794" d="M5422.463,1127.152c2.881-.755,8.2-1.937,12.429-1.685a1.916,1.916,0,0,1,1.806,1.8c.639,11.271,1.513,21.272,3.158,27.091a21.281,21.281,0,0,1-10.98,1.61,121.484,121.484,0,0,1-7.1-20.111s-1.187-6.068-.034-8.091A1.194,1.194,0,0,1,5422.463,1127.152Z" transform="translate(-5377.039 -1110.924)" fill="#fd392f"/>
        <path id="Trazado_101795" data-name="Trazado 101795" d="M5442.064,1098.857s.728,4.341.944,6.349a.786.786,0,0,1-.426.785,5.749,5.749,0,0,1-4.344.464.733.733,0,0,1-.5-.715l.127-5.8Z" transform="translate(-5389.708 -1090.524)" fill="url(#linear-gradient-42)"/>
        <g id="Grupo_54244" data-name="Grupo 54244" transform="translate(45.791)">
          <path id="Trazado_101796" data-name="Trazado 101796" d="M5430.679,1078.156a20.7,20.7,0,0,0-1.5,4.918c-.094,1.693-.459,2.791,1.5,3.132a4.161,4.161,0,0,0,4.5-2.32s1.4-2.6,1.085-3.663S5430.679,1078.156,5430.679,1078.156Z" transform="translate(-5428.859 -1074.633)" fill="url(#linear-gradient-43)"/>
          <path id="Trazado_101797" data-name="Trazado 101797" d="M5433.742,1071.037h-.248s1.02-2.091.124-2.459-4.444-1.091-5.21-2.35a2.341,2.341,0,0,1,.9-3.221.131.131,0,0,1,.167.062l.082.154a.133.133,0,0,0,.245-.025h0a.132.132,0,0,1,.238-.036c.234.377.869.989,2.571,1.3,2.415.446,4.012,1.423,4.051,3.093a.133.133,0,0,0,.207.109c.178-.109.463-.16.844.161.664.557.392,2-1.062,3.194a.132.132,0,0,0,.007.213c.263.172.656.58-.362,1.124a2.713,2.713,0,0,1-1.891.436.133.133,0,0,1-.1-.137l.092-1.479a.133.133,0,0,0-.133-.141Z" transform="translate(-5428.092 -1062.996)" fill="url(#linear-gradient-44)"/>
          <path id="Trazado_101798" data-name="Trazado 101798" d="M5452.146,1093.694s.535-2.06,1.459-1.483-.479,2.308-1.223,2.385Z" transform="translate(-5446.557 -1085.344)" fill="url(#linear-gradient-45)"/>
        </g>
        <g id="Grupo_54245" data-name="Grupo 54245" transform="translate(0 16.122)">
          <path id="Trazado_101799" data-name="Trazado 101799" d="M5387.021,1203.888l-56.832-11.783-1.437,5.683,55.6,16.637q.187.056.375.1l1.9.479c3.253.823,6.341-.289,6.9-2.483l.66-2.608c.554-2.194-1.634-4.639-4.888-5.462l-1.9-.479C5387.274,1203.943,5387.148,1203.914,5387.021,1203.888Zm3.331,6.447c-.367,1.456-2.652,2.134-5.1,1.515s-4.137-2.3-3.769-3.757,2.652-2.134,5.1-1.515S5390.721,1208.88,5390.352,1210.335Z" transform="translate(-5306.046 -1178.226)" fill="url(#linear-gradient-46)"/>
          <path id="Trazado_101800" data-name="Trazado 101800" d="M5237.556,1138.535l11,2.781a2.6,2.6,0,0,1,1.752,1.49l1.646,3.8a2.6,2.6,0,0,1-.779,3.081l-3.255,2.562a2.6,2.6,0,0,1-2.249.479l-11-2.781a2,2,0,0,0-2.287,2.835,14.98,14.98,0,0,0,9.692,7.627c7.913,2,14.916-2.794,16.839-10.4s-1.96-15.157-9.873-17.157a14.98,14.98,0,0,0-12.152,2.106A2,2,0,0,0,5237.556,1138.535Z" transform="translate(-5231.9 -1132.378)" fill="url(#linear-gradient-47)"/>
          <path id="Trazado_101801" data-name="Trazado 101801" d="M5236.428,1143l11,2.781a2.6,2.6,0,0,1,1.751,1.49l1.646,3.8a2.605,2.605,0,0,1-.779,3.082l-3.255,2.562a2.6,2.6,0,0,1-2.25.478l-11-2.781a2,2,0,0,0-2.286,2.835,14.981,14.981,0,0,0,9.692,7.627c7.913,2,14.916-2.794,16.84-10.405s-1.96-15.157-9.873-17.157a14.981,14.981,0,0,0-12.152,2.106A2,2,0,0,0,5236.428,1143Z" transform="translate(-5231.034 -1135.803)" fill="url(#linear-gradient-48)"/>
          <path id="Trazado_101802" data-name="Trazado 101802" d="M5386.121,1207.448l-56.832-11.783-1.436,5.683,55.6,16.637c.123.037.248.072.374.1l1.9.479c3.254.823,6.341-.289,6.9-2.483l.659-2.608c.555-2.194-1.634-4.639-4.888-5.462l-1.9-.479C5386.374,1207.5,5386.247,1207.474,5386.121,1207.448Zm3.331,6.447c-.367,1.456-2.652,2.134-5.1,1.515s-4.138-2.3-3.77-3.757,2.652-2.134,5.1-1.514S5389.82,1212.439,5389.452,1213.9Z" transform="translate(-5305.355 -1180.959)" fill="url(#linear-gradient-49)"/>
        </g>
        <g id="Grupo_54246" data-name="Grupo 54246" transform="translate(58.295 14.715)">
          <path id="Trazado_101803" data-name="Trazado 101803" d="M5519.869,1195.479a17.988,17.988,0,0,1,.623,8.285l1.878.5s2.427-2.886,1.872-9.292A9.161,9.161,0,0,0,5519.869,1195.479Z" transform="translate(-5511.046 -1178.955)" fill="url(#linear-gradient-50)"/>
          <path id="Trazado_101804" data-name="Trazado 101804" d="M5495.1,1142.338c-.062-.72-.161-1.483-.306-2.293-1.27-7.064-10.326-12.5-12.458-13.688a.291.291,0,0,0-.432.266l.3,9.6c5.044.678,7.431,3.564,8.52,6.618A9.161,9.161,0,0,1,5495.1,1142.338Z" transform="translate(-5481.901 -1126.32)" fill="#fd392f"/>
        </g>
        <path id="Trazado_101805" data-name="Trazado 101805" d="M5369.364,1226.76a1.22,1.22,0,0,1-.787-.681c-.288-.646-.613-1.681.081-2,1.033-.469,2.912,1.456,2.912,1.456l.917,1.487.839.408A9.1,9.1,0,0,1,5369.364,1226.76Z" transform="translate(-5336.359 -1186.594)" fill="url(#linear-gradient-51)"/>
        <path id="Trazado_101806" data-name="Trazado 101806" d="M5515.416,1229.042h-2.323s1.884,1.13,1.947,2.318a11.952,11.952,0,0,1-1.127,4.32c-.415.733,5.259-1.091,3.256-6.638Z" transform="translate(-5447.55 -1190.458)" fill="url(#linear-gradient-52)"/>
      </g>
      <g id="Grupo_54257" data-name="Grupo 54257" transform="translate(36.316 64.334)">
        <g id="Grupo_54255" data-name="Grupo 54255" transform="translate(34.292)">
          <g id="Grupo_54253" data-name="Grupo 54253" transform="translate(0 11.84)">
            <g id="Grupo_54248" data-name="Grupo 54248" transform="translate(16.163 59.901)">
              <path id="Trazado_101807" data-name="Trazado 101807" d="M4638.9,1088.675c-1.389.12-3.8.315-5.7.4a5.491,5.491,0,0,1-2.179-.213c0,.042,0,.083,0,.12a.393.393,0,0,0,.373.371,66.813,66.813,0,0,0,7.463.007.279.279,0,0,0,.228-.42A2.279,2.279,0,0,0,4638.9,1088.675Z" transform="translate(-4631.025 -1083.872)" fill="url(#linear-gradient-31)"/>
              <path id="Trazado_101808" data-name="Trazado 101808" d="M4633.2,1079.809c1.9-.084,4.312-.279,5.7-.4-1.366-1.675-5.7-2.8-5.7-2.8h-1.224a5.132,5.132,0,0,0-.955,2.99A5.488,5.488,0,0,0,4633.2,1079.809Z" transform="translate(-4631.024 -1074.607)" fill="url(#linear-gradient-5)"/>
              <path id="Trazado_101809" data-name="Trazado 101809" d="M4634.247,1068.005l.115,2.267a.518.518,0,0,0,.442.487,2.01,2.01,0,0,0,.919-.076.613.613,0,0,0,.412-.471l.4-2.207Z" transform="translate(-4633.498 -1068.005)" fill="url(#linear-gradient-55)"/>
            </g>
            <g id="Grupo_54250" data-name="Grupo 54250" transform="translate(0 57.783)">
              <g id="Grupo_54249" data-name="Grupo 54249" transform="translate(0 2.104)">
                <path id="Trazado_101810" data-name="Trazado 101810" d="M4562.479,1087.9a1.1,1.1,0,0,1-.989-.732l0,.009a.783.783,0,0,0,.528.893,3.452,3.452,0,0,0,1.46.229,1.453,1.453,0,0,0,1.1-.505l0,0A3.678,3.678,0,0,1,4562.479,1087.9Z" transform="translate(-4561.468 -1082.702)" fill="url(#linear-gradient-31)"/>
                <path id="Trazado_101811" data-name="Trazado 101811" d="M4565.395,1067.942h-1.01c-1.538-.031-2.5,3.212-2.82,4.468a1.1,1.1,0,0,0,.989.732,3.677,3.677,0,0,0,2.095-.111,9.639,9.639,0,0,0,1.441-3.629A1.274,1.274,0,0,0,4565.395,1067.942Z" transform="translate(-4561.542 -1067.942)" fill="url(#linear-gradient-5)"/>
              </g>
              <path id="Trazado_101812" data-name="Trazado 101812" d="M4572.345,1058.888l-.561,2.23a.6.6,0,0,0,.315.686,2.147,2.147,0,0,0,1.161.281.505.505,0,0,0,.413-.337l.823-2.346Z" transform="translate(-4569.373 -1058.888)" fill="url(#linear-gradient-55)"/>
            </g>
            <path id="Trazado_101813" data-name="Trazado 101813" d="M4571.379,956.939c.7.619,2.966.7,2.966.7,8.172-19.613,11.514-22.4,11.514-22.4-1.18,7.4-.19,23.792-.19,23.792a4.9,4.9,0,0,0,3.087,0,126.292,126.292,0,0,1,4.173-31.021c-5.523-.124-8.46-2.014-9.419-2.773C4578.906,932.66,4571.379,956.939,4571.379,956.939Z" transform="translate(-4569.076 -898.512)" fill="url(#linear-gradient-59)"/>
            <path id="Trazado_101814" data-name="Trazado 101814" d="M4623.289,827.731c-1.045,5.214-.67,14.547-.424,18.8a8.424,8.424,0,0,1-1.441,3.987.355.355,0,0,0,.144.5,24.621,24.621,0,0,0,9.4,2.605.633.633,0,0,0,.637-.473,123.556,123.556,0,0,1,7.116-20.146C4634.495,826.266,4623.289,827.731,4623.289,827.731Z" transform="translate(-4607.452 -823.559)" fill="#fd392f"/>
            <path id="Trazado_101815" data-name="Trazado 101815" d="M4635.231,955.592a.262.262,0,0,1-.224-.4,8.216,8.216,0,0,1,3.24-2.813.262.262,0,0,1,.228.471,7.821,7.821,0,0,0-3.021,2.614A.262.262,0,0,1,4635.231,955.592Z" transform="translate(-4617.89 -919.328)" fill="url(#linear-gradient-60)"/>
            <g id="Grupo_54251" data-name="Grupo 54251" transform="translate(9.145 4.172)">
              <path id="Trazado_101816" data-name="Trazado 101816" d="M4601.4,891.38a17.945,17.945,0,0,0,3.313,7.893l.754-.615a23.294,23.294,0,0,1-.376-7.544A9.032,9.032,0,0,0,4601.4,891.38Z" transform="translate(-4601.267 -876.415)" fill="url(#linear-gradient-61)"/>
              <path id="Trazado_101817" data-name="Trazado 101817" d="M4608.682,834.609l-1.168-6.434s-7.8,5.963-6.557,14.965a9.028,9.028,0,0,1,3.691-.265A12.627,12.627,0,0,1,4608.682,834.609Z" transform="translate(-4600.822 -828.175)" fill="#fd392f"/>
            </g>
            <g id="Grupo_54252" data-name="Grupo 54252" transform="translate(28.253 9.448)">
              <path id="Trazado_101818" data-name="Trazado 101818" d="M4686.063,850.882l-3.012,6.485c.487,3.915,2.591,5.608,4.858,6.258a13.773,13.773,0,0,1,1.011-4.223C4686.023,856.41,4686.063,850.882,4686.063,850.882Z" transform="translate(-4683.052 -850.882)" fill="#fd392f"/>
              <path id="Trazado_101819" data-name="Trazado 101819" d="M4704.97,887.547a13.774,13.774,0,0,0-1.011,4.223c6.051,2.348,7.652-2.205,7.652-2.205l-1.118-.2A6.34,6.34,0,0,1,4704.97,887.547Z" transform="translate(-4699.101 -879.027)" fill="url(#linear-gradient-55)"/>
            </g>
            <path id="Trazado_101820" data-name="Trazado 101820" d="M4665.333,811.664l-1.454,5.344a1.04,1.04,0,0,1-1.391.692,21.026,21.026,0,0,1-2.1-.957,1.4,1.4,0,0,1-.495-2.013l3.023-4.507Z" transform="translate(-4636.843 -810.223)" fill="url(#linear-gradient-63)"/>
          </g>
          <path id="Trazado_101821" data-name="Trazado 101821" d="M4619.557,880.841,4582.3,894.4a2.852,2.852,0,0,0-1.621,3.861l.113.249a2.651,2.651,0,0,0,3.527,1.309l36.171-16.733Z" transform="translate(-4576.021 -852.592)" fill="url(#linear-gradient-5)"/>
          <ellipse id="Elipse_4052" data-name="Elipse 4052" cx="18.39" cy="18.058" rx="18.39" ry="18.058" transform="translate(42.269 2.036)" opacity="0.5" fill="url(#linear-gradient-65)"/>
          <path id="Trazado_101822" data-name="Trazado 101822" d="M4754.912,759.271a20.1,20.1,0,1,0,20.463,20.094A20.281,20.281,0,0,0,4754.912,759.271Zm0,37.236a17.145,17.145,0,1,1,17.457-17.142A17.3,17.3,0,0,1,4754.912,796.507Z" transform="translate(-4694.253 -759.271)" fill="url(#linear-gradient-5)"/>
          <path id="Trazado_101823" data-name="Trazado 101823" d="M4740.16,785.885a.172.172,0,0,1-.17-.15c-.061-.476-.1-.961-.127-1.443a.172.172,0,0,1,.343-.017c.023.474.065.95.125,1.417a.171.171,0,0,1-.148.192Zm.14-5.619a.167.167,0,0,1-.03,0,.172.172,0,0,1-.139-.2,18.549,18.549,0,0,1,1.106-3.785h0a19.157,19.157,0,0,1,17.829-11.8,19.421,19.421,0,0,1,10.324,2.95.172.172,0,1,1-.182.291,19.079,19.079,0,0,0-10.142-2.9,18.815,18.815,0,0,0-17.512,11.589h0a18.165,18.165,0,0,0-1.085,3.715A.172.172,0,0,1,4740.3,780.267Z" transform="translate(-4698.409 -763.268)" fill="#fff"/>
          <g id="Grupo_54254" data-name="Grupo 54254" transform="translate(24.913 6.35)">
            <path id="Trazado_101824" data-name="Trazado 101824" d="M4682.472,796.118c.014.092-1.212,6.1-1.212,6.1l-3.415-.773.316-5.866S4682.25,794.581,4682.472,796.118Z" transform="translate(-4675.715 -793.247)" fill="url(#linear-gradient-67)"/>
            <path id="Trazado_101825" data-name="Trazado 101825" d="M4672.066,790.235l-.408,3.075a.4.4,0,0,0,0,.118c.034.241.213,1.062,1.042.827a3.9,3.9,0,0,1,1.917-.25.433.433,0,0,1,.3.5,18.773,18.773,0,0,1-.786,2.8.433.433,0,0,1-.525.255,13.958,13.958,0,0,1-3.01-1.232.433.433,0,0,1-.211-.39c.032-.776.124-3.136.047-3.8-.072-.621-.833-.993-1.165-1.126a.425.425,0,0,1-.237-.238,1.123,1.123,0,0,1,.756-1.637.434.434,0,0,0,.275-.561,1.125,1.125,0,0,1,.63-1.555,1.587,1.587,0,0,1,1.894.456.433.433,0,0,0,.552.065.343.343,0,0,1,.39.013.428.428,0,0,0,.6-.183,1.293,1.293,0,0,1,1.5-.749c1.531.262,1.7,1.958,1.3,2.952s-2.046.615-2.871.114a1.854,1.854,0,0,0-1.793.232A.428.428,0,0,0,4672.066,790.235Z" transform="translate(-4668.853 -786.597)" fill="url(#linear-gradient-68)"/>
            <path id="Trazado_101826" data-name="Trazado 101826" d="M4670.121,807.369s.629-1.762-.017-2.193-1.6-.208-1.393,1.069C4668.974,807.832,4670.121,807.369,4670.121,807.369Z" transform="translate(-4668.681 -800.705)" fill="url(#linear-gradient-69)"/>
          </g>
          <path id="Trazado_101827" data-name="Trazado 101827" d="M4615.279,922.49l3.522-.287,1.525,1.406s-.361.5-1.489.212a16.161,16.161,0,0,0-2.673-.357s-1.557.7-1.577-.612Z" transform="translate(-4602.244 -884.342)" fill="url(#linear-gradient-70)"/>
          <path id="Trazado_101828" data-name="Trazado 101828" d="M4733.753,891.01c.305.238,1.348-.259,1.986-.6a.735.735,0,0,0,.355-.868c-.154-.484-.41-1.11-.725-1.189C4734.847,888.22,4732.5,890.029,4733.753,891.01Z" transform="translate(-4693.439 -858.351)" fill="url(#linear-gradient-55)"/>
          <path id="Trazado_101829" data-name="Trazado 101829" d="M4585.387,940.722a.176.176,0,0,1-.057-.009c-1.474-.51-1.816-1.383-1.844-2.026a2.249,2.249,0,0,1,1.467-2.169l4.473-1.744a.172.172,0,1,1,.124.32l-4.473,1.744a1.906,1.906,0,0,0-1.248,1.834c.034.781.576,1.359,1.613,1.717a.172.172,0,0,1-.056.334Z" transform="translate(-4578.369 -893.982)" fill="#fff"/>
          <path id="Trazado_101830" data-name="Trazado 101830" d="M4614.688,932.044a.172.172,0,0,1-.062-.332l.58-.226a.172.172,0,0,1,.125.32l-.58.226A.177.177,0,0,1,4614.688,932.044Z" transform="translate(-4602.189 -891.459)" fill="#fff"/>
        </g>
        <g id="Grupo_54256" data-name="Grupo 54256" transform="translate(0 77.329)">
          <path id="Trazado_101831" data-name="Trazado 101831" d="M4678.314,1173.588a.654.654,0,0,1-.654-.654v-78.205a.654.654,0,1,1,1.309,0v78.205A.654.654,0,0,1,4678.314,1173.588Z" transform="translate(-4616.368 -1093.604)" fill="url(#linear-gradient-72)"/>
          <path id="Trazado_101832" data-name="Trazado 101832" d="M4602.011,1173.588a.655.655,0,0,1-.654-.654v-78.205a.655.655,0,0,1,1.309,0v78.205A.654.654,0,0,1,4602.011,1173.588Z" transform="translate(-4557.795 -1093.604)" fill="url(#linear-gradient-73)"/>
          <path id="Trazado_101833" data-name="Trazado 101833" d="M4414.547,1174.085a.655.655,0,0,1-.6-.911l33.458-78.7a.654.654,0,1,1,1.2.512l-33.458,78.7A.654.654,0,0,1,4414.547,1174.085Z" transform="translate(-4413.893 -1093.604)" fill="url(#linear-gradient-74)"/>
          <path id="Trazado_101834" data-name="Trazado 101834" d="M4503.485,1174.085a.655.655,0,0,1-.6-.911l33.458-78.7a.654.654,0,0,1,1.2.512l-33.458,78.7A.654.654,0,0,1,4503.485,1174.085Z" transform="translate(-4482.164 -1093.604)" fill="url(#linear-gradient-74)"/>
          <rect id="Rectngulo_5288" data-name="Rectngulo 5288" width="32.493" height="1.844" rx="0.922" transform="translate(31.392)" fill="url(#linear-gradient-74)"/>
          <path id="Trazado_101835" data-name="Trazado 101835" d="M4557.244,1147.171h-20.728a.654.654,0,1,1,0-1.309h20.728a.654.654,0,1,1,0,1.309Z" transform="translate(-4507.52 -1133.358)" fill="url(#linear-gradient-74)"/>
          <rect id="Rectngulo_5289" data-name="Rectngulo 5289" width="20.728" height="1.309" transform="translate(22.636 27.389)" fill="url(#linear-gradient-74)"/>
          <rect id="Rectngulo_5290" data-name="Rectngulo 5290" width="20.728" height="1.309" transform="translate(16.479 42.273)" fill="url(#linear-gradient-74)"/>
          <path id="Trazado_101836" data-name="Trazado 101836" d="M4476.246,1338.679a.655.655,0,0,1-.655.654h-20.728a.654.654,0,1,1,0-1.308h20.728A.655.655,0,0,1,4476.246,1338.679Z" transform="translate(-4444.841 -1280.867)" fill="url(#linear-gradient-80)"/>
          <path id="Trazado_101837" data-name="Trazado 101837" d="M4449.381,1402.734a.654.654,0,0,1-.654.654H4428a.654.654,0,1,1,0-1.308h20.728A.654.654,0,0,1,4449.381,1402.734Z" transform="translate(-4424.219 -1330.038)" fill="url(#linear-gradient-74)"/>
        </g>
      </g>
      <g id="Grupo_54258" data-name="Grupo 54258" transform="translate(65.933 22.712)" opacity="0.6">
        <path id="Trazado_101838" data-name="Trazado 101838" d="M4598.875,584.443H4543.49a2.143,2.143,0,0,1-2.143-2.143h0a2.143,2.143,0,0,1,2.143-2.143h55.385a2.143,2.143,0,0,1,2.143,2.143h0A2.143,2.143,0,0,1,4598.875,584.443Z" transform="translate(-4541.347 -580.157)" fill="#fff" opacity="0.6"/>
        <path id="Trazado_101839" data-name="Trazado 101839" d="M4627.513,620.57h-55.385a2.143,2.143,0,0,1-2.143-2.143h0a2.143,2.143,0,0,1,2.143-2.143h55.385a2.143,2.143,0,0,1,2.143,2.143h0A2.143,2.143,0,0,1,4627.513,620.57Z" transform="translate(-4563.331 -607.889)" fill="#fff" opacity="0.53"/>
        <path id="Trazado_101840" data-name="Trazado 101840" d="M4611.763,692.824h-39.635a2.143,2.143,0,0,1-2.143-2.143h0a2.143,2.143,0,0,1,2.143-2.143h39.635a2.143,2.143,0,0,1,2.143,2.143h0A2.143,2.143,0,0,1,4611.763,692.824Z" transform="translate(-4563.331 -663.353)" fill="#fff" opacity="0.53"/>
        <path id="Trazado_101841" data-name="Trazado 101841" d="M4654.242,656.7h-55.384a2.143,2.143,0,0,1-2.144-2.143h0a2.143,2.143,0,0,1,2.144-2.143h55.384a2.143,2.143,0,0,1,2.143,2.143h0A2.143,2.143,0,0,1,4654.242,656.7Z" transform="translate(-4583.848 -635.621)" fill="#fff" opacity="0.6"/>
      </g>
    </g>
    <path id="Trazado_101842" data-name="Trazado 101842" d="M5452.159,455.708c-2.928-7.16-14.711-13.233-22.3,1.6-2.043-3.044-22.535-5.074-18.358,19.692-3.918-4.477-13.565,3.88-10.953,13.559-5.271.046-9.533,15.989,4.62,10.9,18.076-6.495,56.252-27.465,56.947-42.79S5452.159,455.708,5452.159,455.708Z" transform="translate(-873.534 0)" opacity="0.5" fill="url(#linear-gradient-82)"/>
  </g>
</svg>
