<svg xmlns="http://www.w3.org/2000/svg" width="141.489" height="94.578" viewBox="0 0 141.489 94.578">
  <g id="Grupo_54572" data-name="Grupo 54572" transform="translate(1128.654 -158.457)">
    <g id="Grupo_54478" data-name="Grupo 54478">
      <g id="Grupo_54422" data-name="Grupo 54422">
        <path id="Trazado_102555" data-name="Trazado 102555" d="M-1038.6,164.049l-.029,83.253a4.952,4.952,0,0,1-4.952,4.95h0l-43.52-.015a4.951,4.951,0,0,1-4.95-4.952h0l.029-83.253a4.949,4.949,0,0,1,4.953-4.949h0l43.52.015A4.951,4.951,0,0,1-1038.6,164.049Z" fill="#739af0"/>
      </g>
      <g id="Grupo_54423" data-name="Grupo 54423">
        <path id="Trazado_102556" data-name="Trazado 102556" d="M-1043.584,252.871l-43.52-.015a5.579,5.579,0,0,1-5.571-5.575l.029-83.253a5.579,5.579,0,0,1,5.575-5.571l43.52.015a5.579,5.579,0,0,1,5.571,5.575l-.029,83.253A5.581,5.581,0,0,1-1043.584,252.871Zm-43.485-93.168a4.334,4.334,0,0,0-4.332,4.328l-.029,83.253a4.336,4.336,0,0,0,4.328,4.332l43.52.015a4.337,4.337,0,0,0,4.332-4.329l.029-83.253a4.334,4.334,0,0,0-4.328-4.331Z" fill="#163560"/>
      </g>
      <g id="Grupo_54424" data-name="Grupo 54424">
        <path id="Trazado_102557" data-name="Trazado 102557" d="M-1043.315,212.219v30.81a3.7,3.7,0,0,1-3.7,3.7h-35.838a3.7,3.7,0,0,1-3.7-3.7v-30.81a3.7,3.7,0,0,1,3.7-3.7h35.838A3.7,3.7,0,0,1-1043.315,212.219Z" fill="#ebf2ff"/>
      </g>
      <g id="Grupo_54440" data-name="Grupo 54440">
        <g id="Grupo_54425" data-name="Grupo 54425">
          <path id="Rectángulo_5398" data-name="Rectángulo 5398" d="M-1077.731,187.777h25.594a8.821,8.821,0,0,1,8.821,8.821h0a8.822,8.822,0,0,1-8.821,8.821h-25.594a8.821,8.821,0,0,1-8.821-8.821h0a8.821,8.821,0,0,1,8.821-8.821Z" fill="#ebf2ff"/>
        </g>
        <g id="Grupo_54428" data-name="Grupo 54428">
          <g id="Grupo_54426" data-name="Grupo 54426">
            <path id="Trazado_102558" data-name="Trazado 102558" d="M-1060.611,194.686h-10.432a.233.233,0,0,1-.234-.232h0a.233.233,0,0,1,.233-.233h10.433a.233.233,0,0,1,.233.233h0a.234.234,0,0,1-.233.233h0Z" fill="#2b478b"/>
          </g>
          <g id="Grupo_54427" data-name="Grupo 54427">
            <path id="Trazado_102559" data-name="Trazado 102559" d="M-1053.631,196.373h-17.412a.233.233,0,0,1-.234-.232h0a.233.233,0,0,1,.233-.233h17.413a.233.233,0,0,1,.234.232h0a.235.235,0,0,1-.232.234h0Z" fill="#2b478b"/>
          </g>
        </g>
        <g id="Grupo_54429" data-name="Grupo 54429">
          <rect id="Rectángulo_5399" data-name="Rectángulo 5399" width="9.977" height="9.977" transform="translate(-1083.558 192.024)" fill="#c2cfff"/>
        </g>
        <g id="Grupo_54432" data-name="Grupo 54432">
          <g id="Grupo_54430" data-name="Grupo 54430">
            <path id="Trazado_102560" data-name="Trazado 102560" d="M-1081.708,199.387l2.179-3.927,1.6,2.185.8-.875,1.7,2.617Z" fill="#aabdf2"/>
          </g>
          <g id="Grupo_54431" data-name="Grupo 54431">
            <path id="Trazado_102561" data-name="Trazado 102561" d="M-1078.491,194.9a.563.563,0,0,1,.564-.564.564.564,0,0,1,.564.564.565.565,0,0,1-.564.564h0A.564.564,0,0,1-1078.491,194.9Z" fill="#aabdf2"/>
          </g>
        </g>
        <g id="Grupo_54433" data-name="Grupo 54433">
          <rect id="Rectángulo_5400" data-name="Rectángulo 5400" width="17.582" height="1.023" rx="0.511" transform="translate(-1071.307 192.024)" fill="#2b478b"/>
        </g>
        <g id="Grupo_54439" data-name="Grupo 54439">
          <g id="Grupo_54434" data-name="Grupo 54434">
            <path id="Trazado_102562" data-name="Trazado 102562" d="M-1068.754,199.21l1.438.207-1.039,1.015.247,1.431-1.286-.675-1.285.677.244-1.431-1.041-1.013,1.436-.21.642-1.3Z" fill="#f73533"/>
          </g>
          <g id="Grupo_54435" data-name="Grupo 54435">
            <path id="Trazado_102563" data-name="Trazado 102563" d="M-1063.775,199.21l1.437.207-1.038,1.015.247,1.431-1.285-.675-1.285.677.244-1.431-1.041-1.013,1.437-.21.641-1.3Z" fill="#f73533"/>
          </g>
          <g id="Grupo_54436" data-name="Grupo 54436">
            <path id="Trazado_102564" data-name="Trazado 102564" d="M-1058.8,199.21l1.438.207-1.039,1.015.247,1.431-1.286-.675-1.285.677.244-1.431-1.041-1.013,1.436-.21.642-1.3Z" fill="#f73533"/>
          </g>
          <g id="Grupo_54437" data-name="Grupo 54437">
            <path id="Trazado_102565" data-name="Trazado 102565" d="M-1053.822,199.21l1.438.207-1.038,1.015.247,1.431-1.286-.675-1.285.677.244-1.431-1.041-1.013,1.436-.21.642-1.3Z" fill="#f73533"/>
          </g>
          <g id="Grupo_54438" data-name="Grupo 54438">
            <path id="Trazado_102566" data-name="Trazado 102566" d="M-1048.844,199.21l1.437.207-1.038,1.015.247,1.431-1.286-.675-1.284.677.244-1.431-1.041-1.013,1.437-.21.641-1.3Z" fill="#f73533"/>
          </g>
        </g>
      </g>
      <g id="Grupo_54456" data-name="Grupo 54456">
        <g id="Grupo_54441" data-name="Grupo 54441">
          <path id="Rectángulo_5401" data-name="Rectángulo 5401" d="M-1077.731,167.335h25.594a8.821,8.821,0,0,1,8.821,8.821h0a8.822,8.822,0,0,1-8.821,8.821h-25.594a8.821,8.821,0,0,1-8.821-8.821h0a8.821,8.821,0,0,1,8.821-8.821Z" fill="#ebf2ff"/>
        </g>
        <g id="Grupo_54444" data-name="Grupo 54444">
          <g id="Grupo_54442" data-name="Grupo 54442">
            <path id="Trazado_102567" data-name="Trazado 102567" d="M-1060.611,174.244h-10.432a.233.233,0,0,1-.234-.232h0a.233.233,0,0,1,.234-.234h10.432a.233.233,0,0,1,.233.233h0a.234.234,0,0,1-.233.233Z" fill="#2b478b"/>
          </g>
          <g id="Grupo_54443" data-name="Grupo 54443">
            <path id="Trazado_102568" data-name="Trazado 102568" d="M-1053.631,175.931h-17.412a.233.233,0,0,1-.234-.232h0a.233.233,0,0,1,.233-.233h17.413a.233.233,0,0,1,.234.232h0a.234.234,0,0,1-.233.233h0Z" fill="#2b478b"/>
          </g>
        </g>
        <g id="Grupo_54445" data-name="Grupo 54445">
          <rect id="Rectángulo_5402" data-name="Rectángulo 5402" width="9.977" height="9.977" transform="translate(-1083.558 171.581)" fill="#c2cfff"/>
        </g>
        <g id="Grupo_54448" data-name="Grupo 54448">
          <g id="Grupo_54446" data-name="Grupo 54446">
            <path id="Trazado_102569" data-name="Trazado 102569" d="M-1081.708,178.947l2.179-3.929,1.6,2.185.8-.875,1.7,2.617Z" fill="#aabdf2"/>
          </g>
          <g id="Grupo_54447" data-name="Grupo 54447">
            <path id="Trazado_102570" data-name="Trazado 102570" d="M-1078.491,174.454a.563.563,0,0,1,.564-.564.564.564,0,0,1,.564.564.565.565,0,0,1-.564.564h0A.564.564,0,0,1-1078.491,174.454Z" fill="#aabdf2"/>
          </g>
        </g>
        <g id="Grupo_54449" data-name="Grupo 54449">
          <rect id="Rectángulo_5403" data-name="Rectángulo 5403" width="17.582" height="1.023" rx="0.511" transform="translate(-1071.307 171.581)" fill="#2b478b"/>
        </g>
        <g id="Grupo_54455" data-name="Grupo 54455">
          <g id="Grupo_54450" data-name="Grupo 54450">
            <path id="Trazado_102571" data-name="Trazado 102571" d="M-1068.754,178.764l1.438.208-1.039,1.015.247,1.43-1.286-.675-1.285.677.244-1.432-1.041-1.013,1.436-.21.642-1.3Z" fill="#f73533"/>
          </g>
          <g id="Grupo_54451" data-name="Grupo 54451">
            <path id="Trazado_102572" data-name="Trazado 102572" d="M-1063.775,178.764l1.437.208-1.038,1.015.247,1.43-1.285-.675-1.285.677.244-1.432-1.041-1.013,1.437-.21.641-1.3Z" fill="#f73533"/>
          </g>
          <g id="Grupo_54452" data-name="Grupo 54452">
            <path id="Trazado_102573" data-name="Trazado 102573" d="M-1058.8,178.764l1.438.208-1.039,1.015.247,1.43-1.286-.675-1.285.677.244-1.432-1.041-1.013,1.436-.21.642-1.3Z" fill="#f73533"/>
          </g>
          <g id="Grupo_54453" data-name="Grupo 54453">
            <path id="Trazado_102574" data-name="Trazado 102574" d="M-1053.822,178.764l1.438.208-1.038,1.015.247,1.43-1.286-.675-1.285.677.244-1.432-1.041-1.013,1.436-.21.642-1.3Z" fill="#f73533"/>
          </g>
          <g id="Grupo_54454" data-name="Grupo 54454">
            <path id="Trazado_102575" data-name="Trazado 102575" d="M-1048.844,178.764l1.437.208-1.038,1.015.247,1.43-1.286-.675-1.284.677.244-1.432-1.041-1.013,1.437-.21.641-1.3Z" fill="#f73533"/>
          </g>
        </g>
      </g>
      <g id="Grupo_54477" data-name="Grupo 54477" opacity="0.3">
        <g id="Grupo_54457" data-name="Grupo 54457">
          <path id="Trazado_102576" data-name="Trazado 102576" d="M-1070.391,220.263a6.335,6.335,0,0,0-.87-.058h-.143a6.526,6.526,0,0,0-6.386,6.664,6.528,6.528,0,0,0,6.386,6.387h.143a6.523,6.523,0,0,0,6.45-5.513,6.643,6.643,0,0,0,.078-1.015A6.527,6.527,0,0,0-1070.391,220.263Zm0,10.779a4.465,4.465,0,0,1-.87.087h-.143a4.4,4.4,0,0,1-4.207-4.582,4.4,4.4,0,0,1,4.207-4.207h.143a4.4,4.4,0,0,1,4.378,4.419,4.4,4.4,0,0,1-3.508,4.288Z" fill="#739af0"/>
        </g>
        <g id="Grupo_54458" data-name="Grupo 54458">
          <path id="Trazado_102577" data-name="Trazado 102577" d="M-1075.657,226.735a4.39,4.39,0,0,0,.117,1.014h-8.091v-1.014Z" fill="#739af0"/>
        </g>
        <g id="Grupo_54459" data-name="Grupo 54459">
          <path id="Trazado_102578" data-name="Trazado 102578" d="M-1046.235,226.735v1.014h-20.748a4.444,4.444,0,0,0,.117-1.014Z" fill="#739af0"/>
        </g>
        <g id="Grupo_54460" data-name="Grupo 54460">
          <path id="Trazado_102579" data-name="Trazado 102579" d="M-1070.391,209.912v12.51a4.389,4.389,0,0,0-.87-.087h-.139V209.91Z" fill="#739af0"/>
        </g>
        <g id="Grupo_54461" data-name="Grupo 54461">
          <path id="Trazado_102580" data-name="Trazado 102580" d="M-1070.391,231.046v13.528h-1.009V231.131h.143A4.492,4.492,0,0,0-1070.391,231.046Z" fill="#739af0"/>
        </g>
        <g id="Grupo_54462" data-name="Grupo 54462">
          <path id="Trazado_102581" data-name="Trazado 102581" d="M-1047.249,209.917v18.456h1.015V209.991Z" fill="#739af0"/>
        </g>
        <g id="Grupo_54463" data-name="Grupo 54463">
          <rect id="Rectángulo_5404" data-name="Rectángulo 5404" width="1.014" height="34.661" transform="translate(-1058.688 209.912)" fill="#739af0"/>
        </g>
        <g id="Grupo_54464" data-name="Grupo 54464">
          <rect id="Rectángulo_5405" data-name="Rectángulo 5405" width="5.014" height="7.786" transform="translate(-1069.062 211.198)" fill="#739af0"/>
        </g>
        <g id="Grupo_54465" data-name="Grupo 54465">
          <rect id="Rectángulo_5406" data-name="Rectángulo 5406" width="4.887" height="5.595" transform="translate(-1083.632 217.057)" fill="#739af0"/>
        </g>
        <g id="Grupo_54466" data-name="Grupo 54466">
          <rect id="Rectángulo_5407" data-name="Rectángulo 5407" width="9.835" height="4.887" transform="translate(-1083.632 211.198)" fill="#739af0"/>
        </g>
        <g id="Grupo_54467" data-name="Grupo 54467">
          <rect id="Rectángulo_5408" data-name="Rectángulo 5408" width="3.507" height="4.84" transform="translate(-1063.202 211.198)" fill="#739af0"/>
        </g>
        <g id="Grupo_54468" data-name="Grupo 54468">
          <rect id="Rectángulo_5409" data-name="Rectángulo 5409" width="3.507" height="8.088" transform="translate(-1063.202 217.057)" fill="#739af0"/>
        </g>
        <g id="Grupo_54469" data-name="Grupo 54469">
          <rect id="Rectángulo_5410" data-name="Rectángulo 5410" width="3.507" height="4.788" transform="translate(-1063.202 228.71)" fill="#739af0"/>
        </g>
        <g id="Grupo_54470" data-name="Grupo 54470">
          <rect id="Rectángulo_5411" data-name="Rectángulo 5411" width="2.83" height="13.947" transform="translate(-1055.423 211.198)" fill="#739af0"/>
        </g>
        <g id="Grupo_54471" data-name="Grupo 54471">
          <rect id="Rectángulo_5412" data-name="Rectángulo 5412" width="3.507" height="13.947" transform="translate(-1051.675 211.198)" fill="#739af0"/>
        </g>
        <g id="Grupo_54472" data-name="Grupo 54472">
          <rect id="Rectángulo_5413" data-name="Rectángulo 5413" width="9.725" height="15.354" transform="translate(-1055.959 229.219)" fill="#739af0"/>
        </g>
        <g id="Grupo_54473" data-name="Grupo 54473">
          <rect id="Rectángulo_5414" data-name="Rectángulo 5414" width="9.679" height="5.807" transform="translate(-1069.373 238.766)" fill="#739af0"/>
        </g>
        <g id="Grupo_54474" data-name="Grupo 54474">
          <rect id="Rectángulo_5415" data-name="Rectángulo 5415" width="9.679" height="3.078" transform="translate(-1069.373 234.594)" fill="#739af0"/>
        </g>
        <g id="Grupo_54475" data-name="Grupo 54475">
          <rect id="Rectángulo_5416" data-name="Rectángulo 5416" width="8.693" height="9.98" transform="translate(-1083.632 234.594)" fill="#739af0"/>
        </g>
        <g id="Grupo_54476" data-name="Grupo 54476">
          <rect id="Rectángulo_5417" data-name="Rectángulo 5417" width="3.66" height="5.378" transform="translate(-1083.632 228.292)" fill="#739af0"/>
        </g>
      </g>
    </g>
    <g id="Grupo_54521" data-name="Grupo 54521">
      <g id="Grupo_54492" data-name="Grupo 54492">
        <g id="Grupo_54479" data-name="Grupo 54479">
          <rect id="Rectángulo_5418" data-name="Rectángulo 5418" width="1.636" height="2.229" transform="translate(-1106.056 248.805)" fill="#163560"/>
        </g>
        <g id="Grupo_54480" data-name="Grupo 54480">
          <rect id="Rectángulo_5419" data-name="Rectángulo 5419" width="1.636" height="2.229" transform="translate(-1096.799 248.805)" fill="#163560"/>
        </g>
        <g id="Grupo_54481" data-name="Grupo 54481">
          <path id="Trazado_102582" data-name="Trazado 102582" d="M-1106.4,251.374a1.164,1.164,0,0,1,1.166-1.164h0a1.165,1.165,0,0,1,1.164,1.166,1.165,1.165,0,0,1-1.165,1.164,1.165,1.165,0,0,1-1.165-1.165h0Z" fill="#1f4777"/>
        </g>
        <g id="Grupo_54482" data-name="Grupo 54482">
          <path id="Trazado_102583" data-name="Trazado 102583" d="M-1105.947,251.369a.706.706,0,0,1,.708-.706h0a.707.707,0,0,1,.706.708h0a.707.707,0,0,1-.707.706.707.707,0,0,1-.707-.707h0Z" fill="#163560"/>
        </g>
        <g id="Grupo_54483" data-name="Grupo 54483">
          <path id="Trazado_102584" data-name="Trazado 102584" d="M-1097.145,251.374a1.164,1.164,0,0,1,1.166-1.164h0a1.165,1.165,0,0,1,1.163,1.166,1.164,1.164,0,0,1-1.164,1.164h0a1.165,1.165,0,0,1-1.165-1.165h0Z" fill="#1f4777"/>
        </g>
        <g id="Grupo_54484" data-name="Grupo 54484">
          <path id="Trazado_102585" data-name="Trazado 102585" d="M-1096.688,251.369a.706.706,0,0,1,.708-.706h0a.707.707,0,0,1,.7.708.707.707,0,0,1-.707.706.707.707,0,0,1-.707-.707h0Z" fill="#163560"/>
        </g>
        <g id="Grupo_54485" data-name="Grupo 54485">
          <path id="Rectángulo_5420" data-name="Rectángulo 5420" d="M-1111.936,246.729h22.609v.25a3.077,3.077,0,0,1-3.075,3.077h-16.208a3.327,3.327,0,0,1-3.327-3.327h0Z" fill="#c62c21"/>
        </g>
        <g id="Grupo_54486" data-name="Grupo 54486">
          <path id="Trazado_102586" data-name="Trazado 102586" d="M-1088.551,218.8v26.983a4.306,4.306,0,0,1-.1.947h-3.165a2.483,2.483,0,0,0-2.483,2.485h0v.841h-12.4v-.841a2.481,2.481,0,0,0-2.475-2.485h-3.423a4.313,4.313,0,0,1-.1-.947V218.8a4.272,4.272,0,0,1,4.269-4.274h15.621A4.271,4.271,0,0,1-1088.551,218.8Z" fill="#f92740"/>
        </g>
        <g id="Grupo_54487" data-name="Grupo 54487">
          <path id="Trazado_102587" data-name="Trazado 102587" d="M-1096.084,214.514a12.99,12.99,0,0,0-6.89-.844,8.645,8.645,0,0,0-2.648.831l-.2-.351a8.845,8.845,0,0,1,2.763-.876,13.388,13.388,0,0,1,7.125.864Z" fill="#163560"/>
        </g>
        <g id="Grupo_54488" data-name="Grupo 54488">
          <path id="Trazado_102588" data-name="Trazado 102588" d="M-1107.818,214.527v32.611a2.468,2.468,0,0,0-.623-.3V214.527Z" fill="#ed1614"/>
        </g>
        <g id="Grupo_54489" data-name="Grupo 54489">
          <rect id="Rectángulo_5421" data-name="Rectángulo 5421" width="0.623" height="35.53" transform="translate(-1103.459 214.525)" fill="#ed1614"/>
        </g>
        <g id="Grupo_54490" data-name="Grupo 54490">
          <rect id="Rectángulo_5422" data-name="Rectángulo 5422" width="0.623" height="35.53" transform="translate(-1098.81 214.525)" fill="#ed1614"/>
        </g>
        <g id="Grupo_54491" data-name="Grupo 54491">
          <path id="Trazado_102589" data-name="Trazado 102589" d="M-1093.155,214.527v32.587a2.421,2.421,0,0,0-.623.567V214.527Z" fill="#ed1614"/>
        </g>
      </g>
      <g id="Grupo_54520" data-name="Grupo 54520">
        <g id="Grupo_54493" data-name="Grupo 54493">
          <path id="Trazado_102590" data-name="Trazado 102590" d="M-1126.207,200.554c0-.046.681-1.456.465-1.564s-.6-.092-.651.155A8.576,8.576,0,0,0-1126.207,200.554Z" fill="#ffb67d"/>
        </g>
        <g id="Grupo_54494" data-name="Grupo 54494">
          <path id="Trazado_102591" data-name="Trazado 102591" d="M-1125.949,201.4a8.292,8.292,0,0,0-.516-2.667c-.356-.42-1.083-1.017-1.31-1a2.246,2.246,0,0,0-.854,2.115,7.491,7.491,0,0,0,1.4,2.141Z" fill="#ffb67d"/>
        </g>
        <g id="Grupo_54497" data-name="Grupo 54497">
          <g id="Grupo_54495" data-name="Grupo 54495">
            <path id="Trazado_102592" data-name="Trazado 102592" d="M-1124.593,198.84l-2.071.621a.131.131,0,0,1-.162-.087h0l-1.183-3.95a.129.129,0,0,1,.087-.162h0l2.071-.621a.13.13,0,0,1,.162.087h0l1.184,3.95a.13.13,0,0,1-.087.162h0Z" fill="#f1503a"/>
          </g>
          <g id="Grupo_54496" data-name="Grupo 54496">
            <path id="Rectángulo_5423" data-name="Rectángulo 5423" d="M-1127.329,195.085h0a1.211,1.211,0,0,1,1.508.812h0l.563,1.878a1.212,1.212,0,0,1-.812,1.508h0a1.211,1.211,0,0,1-1.508-.813h0l-.563-1.878a1.21,1.21,0,0,1,.812-1.508Z" fill="#d81708"/>
          </g>
        </g>
        <g id="Grupo_54498" data-name="Grupo 54498">
          <path id="Trazado_102593" data-name="Trazado 102593" d="M-1127.99,197.884s.863-1.328,1.073-1.254c.3.1-.781,1.789-.781,1.789s.8-1.259.928-1.163c.286.216-.169,1.006-.62,1.612,0,0,.807-.739.833-.606.092.466-.886,1.6-.886,1.6l-.547-1.249Z" fill="#ffb67d"/>
        </g>
        <g id="Grupo_54499" data-name="Grupo 54499">
          <path id="Trazado_102594" data-name="Trazado 102594" d="M-1128.636,199.117a30.2,30.2,0,0,1,.343-3.031c.091.3.3,1.963.3,1.963Z" fill="#ffb67d"/>
        </g>
        <g id="Grupo_54500" data-name="Grupo 54500">
          <path id="Trazado_102595" data-name="Trazado 102595" d="M-1114.871,198.243a23.5,23.5,0,0,1-1.084,6.227c-.785,2.2-2.133,3.978-4.447,3.32q-.356-.1-.688-.218h0a10.583,10.583,0,0,1-6.221-5.385,2.417,2.417,0,0,1,1.365-.79c.947.051,5.106,1.817,5.371,1.871.962.194,1.74-5.1,2.364-6.925s3.184-2.651,3.184-2.651Z" fill="#739af0"/>
        </g>
        <g id="Grupo_54501" data-name="Grupo 54501">
          <path id="Trazado_102596" data-name="Trazado 102596" d="M-1115.865,201.986l-.092,2.483c-.785,2.2-2.133,3.978-4.448,3.32q-.355-.1-.688-.218c.074.01,1.491.2,2.082-.392.609-.61.546-2.63,1.667-3.977S-1115.865,201.986-1115.865,201.986Z" fill="#5283db"/>
        </g>
        <g id="Grupo_54502" data-name="Grupo 54502">
          <path id="Trazado_102597" data-name="Trazado 102597" d="M-1115.736,247.393s1.157,1.056.931,1.806-1.27,1.25-1.41,2.167-.706,1.417-1.214,1.417h-2.421s-.374-.645.529-.84,1.244-1.272,1.187-2.272a17.64,17.64,0,0,1,.085-2.333l1.918-.444Z" fill="#0b2442"/>
        </g>
        <g id="Grupo_54503" data-name="Grupo 54503">
          <path id="Trazado_102598" data-name="Trazado 102598" d="M-1128.48,252.59h7.129a.517.517,0,0,0,.517-.5,3.643,3.643,0,0,0-.255-1.538c-.381-.844-.621-.991.987-3.446-.483.5-1.786.27-2.886.122a34.978,34.978,0,0,1-2.625,3.694C-1126.111,251.282-1128.327,251.155-1128.48,252.59Z" fill="#0b2442"/>
        </g>
        <g id="Grupo_54504" data-name="Grupo 54504">
          <path id="Trazado_102599" data-name="Trazado 102599" d="M-1117.373,213.059s-5.169,9.753-6.573,15.124c-1.091,4.169,5.563,20.293,5.563,20.293a5.342,5.342,0,0,0,1.43-.385,2.326,2.326,0,0,0,1.2-1.261s-.4-11.532-1.742-17.112c-.3-1.253,1.465-5.292,4.447-7.5s4.223-9.331,2.448-9.813S-1117.373,213.059-1117.373,213.059Z" fill="#163560"/>
        </g>
        <g id="Grupo_54505" data-name="Grupo 54505">
          <path id="Trazado_102600" data-name="Trazado 102600" d="M-1112.947,210.29s-5.434,19.919-7.083,24.392-4.263,13.967-4.263,13.967a6.9,6.9,0,0,0,3.769.409s7.945-11.64,8.291-16.785c.16-2.378,8.152-11.8,7.261-17.952Z" fill="#1c468a"/>
        </g>
        <g id="Grupo_54506" data-name="Grupo 54506">
          <path id="Trazado_102601" data-name="Trazado 102601" d="M-1104.984,216.511a9.48,9.48,0,0,1-3.2.755h0a17.682,17.682,0,0,1-10.115-2.525s-1.191-.982.272-5.154c1.108-3.159,1.646-9.82,3-15.9,0,0,4.385-1.375,7.9-.187,2.688.909,2.42,5.034,2.917,9.33q.069.6.162,1.2C-1103.315,208.738-1104.984,216.511-1104.984,216.511Z" fill="#739af0"/>
        </g>
        <g id="Grupo_54507" data-name="Grupo 54507">
          <path id="Trazado_102602" data-name="Trazado 102602" d="M-1116.576,184.7s2.993-4.871,5.31-2.364c0,0,1.516.387,2.383,2.746.886,2.407-.494,4.531-1.414,4.189-.591-.22-.867.8-.867.8Z" fill="#233862"/>
        </g>
        <g id="Grupo_54508" data-name="Grupo 54508">
          <path id="Trazado_102603" data-name="Trazado 102603" d="M-1111.723,181.955s.206-2.016,3.153-1.82c0,0-1.393.025-1.692.606a2.264,2.264,0,0,1,1.753-.335c.74.318,1.052,1.7,1.012,2.141s-.607,1.816-1.1,1.887a2.317,2.317,0,0,1-1.147-.28Z" fill="#233862"/>
        </g>
        <g id="Grupo_54509" data-name="Grupo 54509">
          <path id="Trazado_102604" data-name="Trazado 102604" d="M-1110.241,193.38a13.58,13.58,0,0,1-1.02-3.868l-.177.062-2.975,1.047s.209.954.342,1.862c.055.371.093,1.034.119,1.611s.608.647,1.2.62C-1111.18,194.644-1110.313,194.055-1110.241,193.38Z" fill="#ffb67d"/>
        </g>
        <g id="Grupo_54510" data-name="Grupo 54510">
          <path id="Trazado_102605" data-name="Trazado 102605" d="M-1114.411,190.621s.209.954.342,1.862c1.707-.3,2.388-1.989,2.633-2.909Z" fill="#e85c5b"/>
        </g>
        <g id="Grupo_54511" data-name="Grupo 54511">
          <path id="Trazado_102606" data-name="Trazado 102606" d="M-1111.167,189.2a9.111,9.111,0,0,0,.734-2.793c.029-.889-.875-4.036-4.035-3.108a4.421,4.421,0,0,0-1.718.949c-.632.574-1.5,1.741.038,4.381l.43.9Z" fill="#233862"/>
        </g>
        <g id="Grupo_54512" data-name="Grupo 54512">
          <path id="Trazado_102607" data-name="Trazado 102607" d="M-1114.859,191.564s4.064-.518,3.7-3.043-.08-4.3-2.69-4.069-2.975,1.259-3.06,2.131S-1115.927,191.629-1114.859,191.564Z" fill="#ffb67d"/>
        </g>
        <g id="Grupo_54513" data-name="Grupo 54513">
          <path id="Trazado_102608" data-name="Trazado 102608" d="M-1115.7,184.655s1.538,2.8,3.3,3a3.391,3.391,0,0,0,2.44-.371,4.876,4.876,0,0,1-1.989-2.623S-1115.069,183.124-1115.7,184.655Z" fill="#233862"/>
        </g>
        <g id="Grupo_54514" data-name="Grupo 54514">
          <path id="Trazado_102609" data-name="Trazado 102609" d="M-1115.393,184.856a3.611,3.611,0,0,0-.843,1.453c-.109.672-.01,2.009-.4,2.019,0,0-1.127-1.893-.351-3.168C-1116.171,183.809-1115.393,184.856-1115.393,184.856Z" fill="#233862"/>
        </g>
        <g id="Grupo_54515" data-name="Grupo 54515">
          <path id="Trazado_102610" data-name="Trazado 102610" d="M-1115.532,184.978s1.239,2.989,3.531,3.673c0,0-2.424-1.6-2.9-3.619S-1115.532,184.978-1115.532,184.978Z" fill="#233862"/>
        </g>
        <g id="Grupo_54516" data-name="Grupo 54516">
          <path id="Trazado_102611" data-name="Trazado 102611" d="M-1104.982,216.505a9.5,9.5,0,0,1-3.2.755h0a3.583,3.583,0,0,1,.2-4.466c1.873-2.36-.146-6.714,1.3-9.082,1-1.648,1.981-1.265,2.484-.88q.069.6.162,1.2C-1103.314,208.74-1104.982,216.505-1104.982,216.505Z" fill="#5283db"/>
        </g>
        <g id="Grupo_54517" data-name="Grupo 54517">
          <path id="Trazado_102612" data-name="Trazado 102612" d="M-1097.609,213.006s.249.58.6.619a7.273,7.273,0,0,1,1.82.641c.461.273.43,1.5-.031,1.611s-.691-.911-2.13-1.186c-.488-.093-1.2.244-1.487-.926Z" fill="#ffb67d"/>
        </g>
        <g id="Grupo_54518" data-name="Grupo 54518">
          <path id="Trazado_102613" data-name="Trazado 102613" d="M-1107.128,193.5c4.185,1.539,4.34,8.952,6.2,12.217,1.923,3.367,3.8,7.8,3.8,7.8s-.034.133-.752.338a3.016,3.016,0,0,1-1.032.083,65.875,65.875,0,0,1-5.027-4.987c-1.074-1.411-3.607-7.956-3.607-7.956S-1108.788,192.892-1107.128,193.5Z" fill="#739af0"/>
        </g>
        <g id="Grupo_54519" data-name="Grupo 54519">
          <path id="Trazado_102614" data-name="Trazado 102614" d="M-1098.738,214.055a1.585,1.585,0,0,0,.719.9c.617.4,1.112.806,1.172.557s-.343-.518-.439-.979S-1098.738,214.055-1098.738,214.055Z" fill="#ffb67d"/>
        </g>
      </g>
    </g>
    <g id="Grupo_54558" data-name="Grupo 54558">
      <g id="man">
        <g id="Grupo_54522" data-name="Grupo 54522">
          <path id="Trazado_102615" data-name="Trazado 102615" d="M-1048.284,192.452a4.034,4.034,0,0,0,1.487,2.151,2.3,2.3,0,0,1,.955.694l.544-.316.65-.378s-.015-.072-.047-.19-.08-.28-.146-.461a.628.628,0,0,1-.077-.578,1.341,1.341,0,0,0-.111-1.121c-.208-.3-.41-1.05-.535-1.027-.3.052.149,1.078.019,1.269a.226.226,0,0,1-.292.1h-.005c-.853-.375-1.886-2.4-2.344-2.123A4.076,4.076,0,0,0-1048.284,192.452Z" fill="#ffb67d"/>
        </g>
        <g id="Grupo_54525" data-name="Grupo 54525">
          <g id="Grupo_54523" data-name="Grupo 54523">
            <path id="Trazado_102616" data-name="Trazado 102616" d="M-1045.332,193.676l-1.068.751a.168.168,0,0,1-.234-.041l-2.736-3.894a.168.168,0,0,1,.041-.234l1.068-.751a.167.167,0,0,1,.234.041l2.736,3.893a.169.169,0,0,1-.04.234Z" fill="#2b478b"/>
          </g>
          <g id="Grupo_54524" data-name="Grupo 54524">
            <path id="Rectángulo_5424" data-name="Rectángulo 5424" d="M-1049.555,190.415h0a.51.51,0,0,1,.711.124l2.342,3.332a.51.51,0,0,1-.119.712h0a.511.511,0,0,1-.71-.124h0l-2.343-3.333a.51.51,0,0,1,.124-.71Z" fill="#233862"/>
          </g>
        </g>
        <g id="Grupo_54526" data-name="Grupo 54526">
          <path id="Trazado_102617" data-name="Trazado 102617" d="M-1030.012,188.089s-5.435,9.479-7.406,11.223l-7.23-5.39a2.637,2.637,0,0,0-1.509,1.374s5.556,8.954,8.713,9.324c4.31.5,10.389-10.721,10.389-10.721Z" fill="#233862"/>
        </g>
        <g id="Grupo_54532" data-name="Grupo 54532">
          <g id="Grupo_54527" data-name="Grupo 54527">
            <path id="Trazado_102618" data-name="Trazado 102618" d="M-1019.857,252.72h3.14a1.9,1.9,0,0,0,.858-1.439c.154-1.012,1.288-1.563,1.533-2.391s-1.012-1.991-1.012-1.991l-.21-.271-.219-.281-2.084.491s-.052.5-.083,1.129q-.04.722-.009,1.445c.061,1.1-.309,2.291-1.29,2.506C-1019.956,252.076-1019.924,252.506-1019.857,252.72Z" fill="#2d4c7f"/>
          </g>
          <g id="Grupo_54528" data-name="Grupo 54528">
            <path id="Trazado_102619" data-name="Trazado 102619" d="M-1035.938,252.562h7.181c.345-.422.218-1.978.166-2.484l-.018-.162s-2.452-1.961-2.789-.46c-.01.047-.023.093-.036.139-.424,1.4-2.327,2.043-3.427,2.222A1.244,1.244,0,0,0-1035.938,252.562Z" fill="#2d4c7f"/>
          </g>
          <g id="Grupo_54529" data-name="Grupo 54529">
            <path id="Trazado_102620" data-name="Trazado 102620" d="M-1034.57,212.477s.372,4.645.81,10.23c.6,7.586,1.31,16.9,1.38,18.67.123,3.066.614,7.968.614,7.968a3.859,3.859,0,0,0,3.5.674,80.294,80.294,0,0,0,2.669-14.4c.009-.121.019-.244.028-.366.552-7.539,1.41-23.415,1.41-23.415Z" fill="#f92740"/>
          </g>
          <g id="Grupo_54530" data-name="Grupo 54530">
            <path id="Trazado_102621" data-name="Trazado 102621" d="M-1034.57,212.477s.372,4.645.81,10.23l8.157,12.907c.009-.121.019-.244.028-.366.552-7.54,1.409-23.415,1.409-23.415Z" fill="#ed1614"/>
          </g>
          <g id="Grupo_54531" data-name="Grupo 54531">
            <path id="Trazado_102622" data-name="Trazado 102622" d="M-1032.751,211.719s5.63,17.167,9.509,25.3,5.1,10.415,5.1,10.415,2.532-.871,2.8-1.547c0,0-1.344-14.28-4.03-18.158-1.518-2.191-2.538-9.652-2.5-11.86s-.217-6.6-.217-6.6Z" fill="#f92740"/>
          </g>
        </g>
        <g id="Grupo_54533" data-name="Grupo 54533">
          <path id="Trazado_102623" data-name="Trazado 102623" d="M-1031.2,188.5c2.623.828,7.161-1.406,7.161-1.406a6.83,6.83,0,0,1-2.291-5.588l-2.028,1.634-1.378,1.109a16.473,16.473,0,0,0,.156,1.8v.009a1.609,1.609,0,0,1-.617,1.494A5.812,5.812,0,0,0-1031.2,188.5Z" fill="#ffb67d"/>
        </g>
        <g id="Grupo_54534" data-name="Grupo 54534">
          <path id="Trazado_102624" data-name="Trazado 102624" d="M-1029.734,184.244a16.473,16.473,0,0,0,.156,1.8c1.527-.262,3.258-2.729,3.258-2.729a4.839,4.839,0,0,0-2.036-.182Z" fill="#ed9d5d"/>
        </g>
        <g id="Grupo_54535" data-name="Grupo 54535">
          <path id="Trazado_102625" data-name="Trazado 102625" d="M-1030.536,184.188s4.332.72,4.739-1.985,1.24-4.434-1.509-5.007-3.443.377-3.8,1.247S-1031.654,183.931-1030.536,184.188Z" fill="#ffb67d"/>
        </g>
        <g id="Grupo_54536" data-name="Grupo 54536">
          <path id="Trazado_102626" data-name="Trazado 102626" d="M-1034.859,212.863a.428.428,0,0,0,.276.1,42.738,42.738,0,0,0,6.287.284,18.144,18.144,0,0,0,5.809-1.677c.259-.116.854-.434.841-.723-.009-.317-.04-.776-.08-1.353a72.434,72.434,0,0,1-.144-9.456c.042-.743.064-1.48.067-2.2.02-5.4-1.052-10.16-3.206-11.769-.184-.132-1.314.42-2.351.932a3.682,3.682,0,0,1-2.6.336l-1.129.807a9.051,9.051,0,0,0-2.837,4.531,51,51,0,0,0-.854,8.406c-.066,1.524-.118,3.06-.132,4.519v.052c-.013.144-.013.3-.013.447C-1034.978,209.843-1034.925,212.81-1034.859,212.863Z" fill="#2b478b"/>
        </g>
        <g id="Grupo_54537" data-name="Grupo 54537">
          <path id="Trazado_102627" data-name="Trazado 102627" d="M-1021.726,209.5a72.434,72.434,0,0,1-.144-9.456c.042-.743.064-1.479.067-2.2-.9-2.176-1.63-3.755-1.63-3.755h-2.261S-1027.353,205.41-1021.726,209.5Z" fill="#233862"/>
        </g>
        <g id="Grupo_54538" data-name="Grupo 54538">
          <path id="Trazado_102628" data-name="Trazado 102628" d="M-1025.793,181.943s-.445-.074-.373-.687.071-1.413-.427-1.264-.523.548-.727.315-.208-1.214-1.689-1.282-2.083.448-2.772.145-.725-1.346-.725-1.346a1.188,1.188,0,0,0,.492.491s-1.15-1.573.181-2.65,2.687-.372,3.458-.326c1.7.1,2.793.2,3.347,1.32S-1024.707,180.869-1025.793,181.943Z" fill="#2b478b"/>
        </g>
        <g id="Grupo_54554" data-name="Grupo 54554">
          <g id="Grupo_54539" data-name="Grupo 54539">
            <path id="Trazado_102629" data-name="Trazado 102629" d="M-992.8,250.675a2.166,2.166,0,0,0,1.406,2.172,1.289,1.289,0,0,0,1.755-.486h0a1.33,1.33,0,0,0,.143-.389A2.164,2.164,0,0,0-990.9,249.8a1.288,1.288,0,0,0-1.756.488v0A1.262,1.262,0,0,0-992.8,250.675Z" fill="#1c468a"/>
          </g>
          <g id="Grupo_54540" data-name="Grupo 54540">
            <path id="Trazado_102630" data-name="Trazado 102630" d="M-1004.388,250.7a2.166,2.166,0,0,0,1.406,2.172,1.29,1.29,0,0,0,1.757-.489,1.313,1.313,0,0,0,.143-.386,2.167,2.167,0,0,0-1.408-2.173,1.289,1.289,0,0,0-1.756.49h0A1.246,1.246,0,0,0-1004.388,250.7Z" fill="#1c468a"/>
          </g>
          <g id="Grupo_54541" data-name="Grupo 54541">
            <path id="Trazado_102631" data-name="Trazado 102631" d="M-989.514,250.462l-2.078.851a1.819,1.819,0,0,1-.692.127l-13.061-.109-2.043-2.416Z" fill="#739af0"/>
          </g>
          <g id="Grupo_54543" data-name="Grupo 54543">
            <g id="Grupo_54542" data-name="Grupo 54542">
              <path id="Trazado_102632" data-name="Trazado 102632" d="M-1002.884,222.474l-5-7.317-.007-.014c-.031-.065-.828-1.632-5.058-2.057h-.02l-3.484-.471a4.844,4.844,0,0,0-2.329.071.546.546,0,0,0-.3.654c.114.608,3.435,5.353,5.639,8.4l-.656.165c-.566-.782-5.536-7.658-5.7-8.533a.894.894,0,0,1,.533-1.033,5.912,5.912,0,0,1,2.961-.151l3.437.464c4.555.46,5.558,2.185,5.658,2.382l4.98,7.293Z" fill="#1c468a"/>
            </g>
          </g>
          <g id="Grupo_54544" data-name="Grupo 54544">
            <path id="Trazado_102633" data-name="Trazado 102633" d="M-1011.458,221.025l-6.659,1.456s-1.83.86-.478,4.545c1.19,3.242,7.429,21.434,7.429,21.434s1.3,3.786,8.9,2.671Z" fill="#739af0"/>
          </g>
          <g id="Grupo_54545" data-name="Grupo 54545">
            <path id="Trazado_102634" data-name="Trazado 102634" d="M-1014.07,226.04l7.121,20.373a6.235,6.235,0,0,0,1.368,2.215,5.932,5.932,0,0,0,4.141,1.943l6.53.028h.162l4.09.017a3.989,3.989,0,0,0,1.144-.156c.082-.024.162-.051.24-.08a3.274,3.274,0,0,0,2.1-3.119,4.943,4.943,0,0,0-.39-1.969l-7.964-19.493a6.341,6.341,0,0,0-5-3.867l-1.181-.111-.281-.026h0l-.237-.022-3.947-.37-.485-.045-3.808-.356a4.056,4.056,0,0,0-1.631.161l-.095.032-.2.076C-1014.037,221.982-1014.824,223.881-1014.07,226.04Z" fill="#83b0ff"/>
          </g>
          <g id="Grupo_54546" data-name="Grupo 54546" opacity="0.5">
            <path id="Trazado_102635" data-name="Trazado 102635" d="M-1005.582,248.626a5.932,5.932,0,0,0,4.141,1.943l6.53.028h.162l4.089.017a3.988,3.988,0,0,0,1.144-.156c.082-.024.162-.051.24-.08a3.6,3.6,0,0,0,2.014-4.106s-13.838-.156-16.6.307A2.029,2.029,0,0,0-1005.582,248.626Z" fill="#739af0"/>
          </g>
          <g id="Grupo_54553" data-name="Grupo 54553">
            <g id="Grupo_54548" data-name="Grupo 54548">
              <g id="Grupo_54547" data-name="Grupo 54547">
                <path id="Trazado_102636" data-name="Trazado 102636" d="M-1002.226,221.779c.033.018,3.542,1.9,4.366,3.562.846,1.707,8.683,21.593,8.762,21.793a3.954,3.954,0,0,1-.612,3.374l.194-.051c.082-.024.162-.051.24-.08a3.684,3.684,0,0,0,.412-3.278c-.323-.821-7.921-20.1-8.773-21.823-.748-1.505-3.264-3-4.072-3.454l-.281-.026h0Z" fill="#739af0"/>
              </g>
            </g>
            <g id="Grupo_54550" data-name="Grupo 54550">
              <g id="Grupo_54549" data-name="Grupo 54549">
                <path id="Trazado_102637" data-name="Trazado 102637" d="M-1006.656,221.365a8.609,8.609,0,0,1,3.473,3.982c1.135,2.8,7.984,23.161,8.053,23.366v.012l.008.014a2.215,2.215,0,0,1,.043,1.857h.326a2.211,2.211,0,0,0-.146-1.922c-.212-.63-6.93-20.593-8.055-23.37a8.931,8.931,0,0,0-3.222-3.9Z" fill="#739af0"/>
              </g>
            </g>
            <g id="Grupo_54552" data-name="Grupo 54552">
              <g id="Grupo_54551" data-name="Grupo 54551">
                <path id="Trazado_102638" data-name="Trazado 102638" d="M-1012.385,221.278a7.29,7.29,0,0,1,1.439,1,8.042,8.042,0,0,1,2.094,2.967c1.135,2.8,7.63,23.092,7.7,23.292v.016l.008.014a2.849,2.849,0,0,1-.1,2h.411a3.212,3.212,0,0,0-.093-2.063c-.208-.649-6.573-20.524-7.7-23.3a8.2,8.2,0,0,0-3.477-4.036c-.032.01-.063.021-.095.033Z" fill="#739af0"/>
              </g>
            </g>
          </g>
        </g>
        <g id="Grupo_54555" data-name="Grupo 54555">
          <path id="Trazado_102639" data-name="Trazado 102639" d="M-1017.133,208.647s.291,2.076.311,2.346c.136,1.827-.122,2,.874,2.325a1.479,1.479,0,0,0,1.456-.438s-.7-.044-.576-1.048c.138-1.156.066-.829-.635-1.772l-.163-1.735Z" fill="#ffb67d"/>
        </g>
        <g id="Grupo_54556" data-name="Grupo 54556">
          <path id="Trazado_102640" data-name="Trazado 102640" d="M-1016.189,210.4a7.5,7.5,0,0,1-1.7.1s-2.418-7.468-2.729-8.151-7.181-8.757-7.181-8.757l2.862-7.162s7.431,12.413,8.185,14.156c1.246,2.882,1.679,9.344,1.679,9.344A3.121,3.121,0,0,1-1016.189,210.4Z" fill="#2b478b"/>
        </g>
        <g id="Grupo_54557" data-name="Grupo 54557">
          <path id="Trazado_102641" data-name="Trazado 102641" d="M-1016.822,210.992a3.035,3.035,0,0,0-.182.67c-.019.686-.21,1-.089,1.064.253.125.5-.411.6-.876A1.037,1.037,0,0,0-1016.822,210.992Z" fill="#ffb67d"/>
        </g>
      </g>
    </g>
    <g id="Grupo_54563" data-name="Grupo 54563">
      <g id="Grupo_54559" data-name="Grupo 54559">
        <path id="Trazado_102642" data-name="Trazado 102642" d="M-1045.239,164.834a.56.56,0,0,0-.56-.56h0a.559.559,0,0,0-.56.56h0a.561.561,0,0,0,.559.56A.562.562,0,0,0-1045.239,164.834Z" fill="#163560"/>
      </g>
      <g id="Grupo_54560" data-name="Grupo 54560">
        <path id="Trazado_102643" data-name="Trazado 102643" d="M-1044.792,164.231a.193.193,0,0,1-.128-.051,1.254,1.254,0,0,0-.906-.4,1.3,1.3,0,0,0-.821.39.188.188,0,0,1-.264,0,.186.186,0,0,1-.013-.245,1.66,1.66,0,0,1,1.079-.513,1.612,1.612,0,0,1,1.181.5.188.188,0,0,1,.007.264.2.2,0,0,1-.136.059Z" fill="#163560"/>
      </g>
      <g id="Grupo_54561" data-name="Grupo 54561">
        <path id="Trazado_102644" data-name="Trazado 102644" d="M-1044.214,163.421a.188.188,0,0,1-.128-.051,2.084,2.084,0,0,0-1.515-.664,2.17,2.17,0,0,0-1.373.653.189.189,0,0,1-.265.006h0a.186.186,0,0,1-.013-.256,2.525,2.525,0,0,1,1.631-.776,2.442,2.442,0,0,1,1.789.765.187.187,0,0,1,.008.264.189.189,0,0,1-.136.059Z" fill="#163560"/>
      </g>
      <g id="Grupo_54562" data-name="Grupo 54562">
        <path id="Trazado_102645" data-name="Trazado 102645" d="M-1043.6,162.632a.188.188,0,0,1-.128-.051,2.97,2.97,0,0,0-2.156-.941,3.091,3.091,0,0,0-1.956.93.188.188,0,0,1-.264.006.186.186,0,0,1-.014-.256,3.426,3.426,0,0,1,2.214-1.053,3.322,3.322,0,0,1,2.432,1.041.187.187,0,0,1,.008.264.2.2,0,0,1-.136.059Z" fill="#163560"/>
      </g>
    </g>
    <g id="Grupo_54567" data-name="Grupo 54567">
      <g id="Grupo_54564" data-name="Grupo 54564">
        <path id="Trazado_102646" data-name="Trazado 102646" d="M-1081.731,162.462h-3.649a.243.243,0,0,1-.243-.243h0a.243.243,0,0,1,.243-.243h3.649a.243.243,0,0,1,.243.243h0a.243.243,0,0,1-.243.243Z" fill="#163560"/>
      </g>
      <g id="Grupo_54565" data-name="Grupo 54565">
        <path id="Trazado_102647" data-name="Trazado 102647" d="M-1081.731,163.536h-3.649a.243.243,0,0,1-.243-.243h0a.243.243,0,0,1,.243-.243h3.649a.243.243,0,0,1,.243.243h0a.243.243,0,0,1-.243.243Z" fill="#163560"/>
      </g>
      <g id="Grupo_54566" data-name="Grupo 54566">
        <path id="Trazado_102648" data-name="Trazado 102648" d="M-1081.731,164.676h-3.649a.243.243,0,0,1-.243-.243h0a.243.243,0,0,1,.243-.243h3.649a.243.243,0,0,1,.243.243h0a.243.243,0,0,1-.243.243Z" fill="#163560"/>
      </g>
    </g>
    <g id="Grupo_54571" data-name="Grupo 54571">
      <g id="Grupo_54568" data-name="Grupo 54568">
        <circle id="Elipse_4053" data-name="Elipse 4053" cx="5.938" cy="5.938" r="5.938" transform="translate(-1067.978 215.792)" fill="#ebf2ff"/>
      </g>
      <g id="Grupo_54570" data-name="Grupo 54570">
        <g id="Grupo_54569" data-name="Grupo 54569">
          <path id="Trazado_102649" data-name="Trazado 102649" d="M-1070.948,222.561c.171,5.114,9.057,13,9.057,13s8.339-8.463,8.167-13.578-4.166-9.133-8.923-8.973S-1071.117,217.447-1070.948,222.561Zm3.52-.662a5.077,5.077,0,0,1,4.9-5.245,5.078,5.078,0,0,1,5.245,4.9,5.078,5.078,0,0,1-4.9,5.244h0a5.087,5.087,0,0,1-5.245-4.9Z" fill="#f74c48"/>
        </g>
      </g>
    </g>
  </g>
</svg>
