<svg xmlns="http://www.w3.org/2000/svg" xmlns:xlink="http://www.w3.org/1999/xlink" width="153.457" height="155.5" viewBox="0 0 153.457 155.5">
  <defs>
    <linearGradient id="linear-gradient" y1="0.5" x2="1" y2="0.5" gradientUnits="objectBoundingBox">
      <stop offset="0" stop-color="#febbba"/>
      <stop offset="1" stop-color="#ff928e"/>
    </linearGradient>
    <linearGradient id="linear-gradient-2" x1="0" y1="0.5" x2="1" y2="0.5" xlink:href="#linear-gradient"/>
    <linearGradient id="linear-gradient-3" x1="0" y1="0.5" x2="1" y2="0.5" xlink:href="#linear-gradient"/>
    <linearGradient id="linear-gradient-5" x1="0" y1="0.5" x2="1" y2="0.5" xlink:href="#linear-gradient"/>
    <linearGradient id="linear-gradient-6" x1="3.462" y1="-5.346" x2="2.776" y2="-3.993" gradientUnits="objectBoundingBox">
      <stop offset="0" stop-color="#ffa980"/>
      <stop offset="1" stop-color="#fe3736"/>
    </linearGradient>
    <linearGradient id="linear-gradient-7" x1="3.564" y1="-5.547" x2="2.855" y2="-4.147" xlink:href="#linear-gradient-6"/>
    <linearGradient id="linear-gradient-8" x1="-286.989" y1="0.236" x2="-287.216" y2="1.551" xlink:href="#linear-gradient-6"/>
    <linearGradient id="linear-gradient-9" x1="-318.44" y1="1.484" x2="-318.476" y2="0.181" xlink:href="#linear-gradient-6"/>
    <linearGradient id="linear-gradient-10" x1="-3774.279" y1="10.591" x2="-3774.175" y2="-1.041" xlink:href="#linear-gradient-6"/>
    <linearGradient id="linear-gradient-11" x1="-4836.817" y1="13.063" x2="-4836.684" y2="-0.573" xlink:href="#linear-gradient-6"/>
    <linearGradient id="linear-gradient-12" x1="-3034.585" y1="17.871" x2="-3034.501" y2="-0.089" xlink:href="#linear-gradient-6"/>
    <linearGradient id="linear-gradient-13" x1="-9663.915" y1="28.989" x2="-9663.647" y2="-0.607" xlink:href="#linear-gradient-6"/>
    <linearGradient id="linear-gradient-14" x1="-4284.299" y1="11.826" x2="-4284.181" y2="0.029" xlink:href="#linear-gradient-6"/>
    <linearGradient id="linear-gradient-15" x1="-10439.588" y1="21.042" x2="-10439.299" y2="-0.525" xlink:href="#linear-gradient-6"/>
    <linearGradient id="linear-gradient-16" x1="-9072.048" y1="22.199" x2="-9071.796" y2="-0.469" xlink:href="#linear-gradient-6"/>
    <linearGradient id="linear-gradient-17" x1="-11921.548" y1="22.501" x2="-11921.218" y2="-3.583" xlink:href="#linear-gradient-6"/>
    <linearGradient id="linear-gradient-18" x1="-9839.229" y1="18.92" x2="-9838.957" y2="-2.201" xlink:href="#linear-gradient-6"/>
    <linearGradient id="linear-gradient-19" x1="-330.932" y1="-0.205" x2="-330.895" y2="0.742" xlink:href="#linear-gradient-6"/>
    <linearGradient id="linear-gradient-20" x1="-339.507" y1="-0.261" x2="-339.479" y2="0.744" xlink:href="#linear-gradient-6"/>
    <linearGradient id="linear-gradient-21" x1="-265.151" y1="190.678" x2="-265.078" y2="192.542" xlink:href="#linear-gradient-6"/>
    <linearGradient id="linear-gradient-22" x1="-265.308" y1="250.487" x2="-265.234" y2="252.939" xlink:href="#linear-gradient-6"/>
    <linearGradient id="linear-gradient-23" x1="15.344" y1="-35.694" x2="10.018" y2="-22.546" gradientUnits="objectBoundingBox">
      <stop offset="0" stop-color="#ffbb9a"/>
      <stop offset="1" stop-color="#fe3632"/>
    </linearGradient>
    <linearGradient id="linear-gradient-24" x1="3.46" y1="-9.529" x2="2.302" y2="-5.602" xlink:href="#linear-gradient-23"/>
    <linearGradient id="linear-gradient-25" x1="3.96" y1="-6.328" x2="3.274" y2="-4.974" gradientUnits="objectBoundingBox">
      <stop offset="0" stop-color="#9a80ff"/>
      <stop offset="1" stop-color="#3669fe"/>
    </linearGradient>
    <linearGradient id="linear-gradient-26" x1="4.079" y1="-6.563" x2="3.369" y2="-5.163" xlink:href="#linear-gradient-25"/>
    <linearGradient id="linear-gradient-27" x1="-14.355" y1="333.375" x2="-13.358" y2="333.375" xlink:href="#linear-gradient-25"/>
    <linearGradient id="linear-gradient-28" x1="1500.629" y1="1512.272" x2="1500.731" y2="1513.728" xlink:href="#linear-gradient-25"/>
    <linearGradient id="linear-gradient-29" x1="1326.251" y1="992.237" x2="1327.486" y2="995.03" xlink:href="#linear-gradient-25"/>
    <linearGradient id="linear-gradient-30" x1="-7.598" y1="144.249" x2="-6.628" y2="144.249" xlink:href="#linear-gradient-25"/>
    <linearGradient id="linear-gradient-31" x1="1186.556" y1="1319.293" x2="1187.593" y2="1319.293" xlink:href="#linear-gradient-25"/>
    <linearGradient id="linear-gradient-32" x1="961.139" y1="580.283" x2="962.397" y2="580.283" xlink:href="#linear-gradient-25"/>
    <linearGradient id="linear-gradient-33" x1="1869.726" y1="696.685" x2="1875.867" y2="694.8" xlink:href="#linear-gradient-25"/>
    <linearGradient id="linear-gradient-34" x1="-17.352" y1="351.516" x2="-16.345" y2="351.516" xlink:href="#linear-gradient-25"/>
    <linearGradient id="linear-gradient-35" x1="1719.041" y1="1917.129" x2="1719.896" y2="1917.129" xlink:href="#linear-gradient-25"/>
    <linearGradient id="linear-gradient-36" x1="-14.202" y1="257.32" x2="-13.229" y2="257.32" xlink:href="#linear-gradient-25"/>
    <linearGradient id="linear-gradient-37" x1="2220.342" y1="981.007" x2="2221.752" y2="981.007" xlink:href="#linear-gradient-25"/>
    <linearGradient id="linear-gradient-38" x1="-12.804" y1="262.775" x2="-11.801" y2="262.775" xlink:href="#linear-gradient-25"/>
    <linearGradient id="linear-gradient-39" x1="1263.865" y1="1170.568" x2="1264.786" y2="1170.568" xlink:href="#linear-gradient-25"/>
    <linearGradient id="linear-gradient-40" x1="3202.504" y1="4495.504" x2="3202.469" y2="4499.875" xlink:href="#linear-gradient-25"/>
    <linearGradient id="linear-gradient-41" x1="3.462" y1="-5.346" x2="2.776" y2="-3.993" xlink:href="#linear-gradient-25"/>
    <linearGradient id="linear-gradient-42" x1="3.564" y1="-5.547" x2="2.855" y2="-4.147" xlink:href="#linear-gradient-25"/>
    <linearGradient id="linear-gradient-43" x1="-499.246" y1="0.236" x2="-499.473" y2="1.551" xlink:href="#linear-gradient-25"/>
    <linearGradient id="linear-gradient-44" x1="-553.793" y1="1.484" x2="-553.828" y2="0.18" xlink:href="#linear-gradient-25"/>
    <linearGradient id="linear-gradient-45" x1="-6564.637" y1="10.6" x2="-6564.533" y2="-1.042" xlink:href="#linear-gradient-25"/>
    <linearGradient id="linear-gradient-46" x1="-8406.885" y1="13.061" x2="-8406.751" y2="-0.574" xlink:href="#linear-gradient-25"/>
    <linearGradient id="linear-gradient-47" x1="-5272.824" y1="17.879" x2="-5272.74" y2="-0.088" xlink:href="#linear-gradient-25"/>
    <linearGradient id="linear-gradient-48" x1="-16761.428" y1="28.928" x2="-16761.16" y2="-0.604" xlink:href="#linear-gradient-25"/>
    <linearGradient id="linear-gradient-49" x1="-7454.887" y1="11.831" x2="-7454.768" y2="0.029" xlink:href="#linear-gradient-25"/>
    <linearGradient id="linear-gradient-50" x1="-18201.156" y1="21.025" x2="-18200.867" y2="-0.525" xlink:href="#linear-gradient-25"/>
    <linearGradient id="linear-gradient-51" x1="-15746.802" y1="22.259" x2="-15746.551" y2="-0.472" xlink:href="#linear-gradient-25"/>
    <linearGradient id="linear-gradient-52" x1="-20697.082" y1="22.514" x2="-20696.752" y2="-3.587" xlink:href="#linear-gradient-25"/>
    <linearGradient id="linear-gradient-53" x1="-17129.305" y1="18.919" x2="-17129.031" y2="-2.2" xlink:href="#linear-gradient-25"/>
    <linearGradient id="linear-gradient-54" x1="-575.529" y1="-0.205" x2="-575.493" y2="0.742" xlink:href="#linear-gradient-25"/>
    <linearGradient id="linear-gradient-55" x1="-590.349" y1="-0.261" x2="-590.321" y2="0.744" xlink:href="#linear-gradient-25"/>
    <linearGradient id="linear-gradient-56" x1="-461.372" y1="334.496" x2="-461.299" y2="336.36" xlink:href="#linear-gradient-25"/>
    <linearGradient id="linear-gradient-57" x1="-461.705" y1="439.658" x2="-461.631" y2="442.11" xlink:href="#linear-gradient-25"/>
    <linearGradient id="linear-gradient-58" x1="3.89" y1="-6.192" x2="3.205" y2="-4.838" xlink:href="#linear-gradient-25"/>
    <linearGradient id="linear-gradient-59" x1="4.007" y1="-6.422" x2="3.298" y2="-5.022" xlink:href="#linear-gradient-25"/>
    <linearGradient id="linear-gradient-60" x1="0.342" y1="0.665" x2="1.168" y2="-0.105" xlink:href="#linear-gradient-25"/>
    <linearGradient id="linear-gradient-61" x1="0.294" y1="0.71" x2="0.907" y2="0.142" xlink:href="#linear-gradient-25"/>
    <linearGradient id="linear-gradient-62" x1="0.386" y1="0.647" x2="1.092" y2="-0.008" xlink:href="#linear-gradient-25"/>
    <linearGradient id="linear-gradient-63" x1="108.558" y1="-68.536" x2="108.112" y2="-67.734" xlink:href="#linear-gradient-25"/>
    <linearGradient id="linear-gradient-64" x1="240.672" y1="-151.025" x2="240.672" y2="-148.199" xlink:href="#linear-gradient-25"/>
    <linearGradient id="linear-gradient-65" x1="1031.278" y1="-5.808" x2="1032.285" y2="-5.808" gradientUnits="objectBoundingBox">
      <stop offset="0" stop-color="#fed4ba"/>
      <stop offset="1" stop-color="#ffbb9a"/>
    </linearGradient>
    <linearGradient id="linear-gradient-66" x1="1370.492" y1="-10.649" x2="1371.495" y2="-10.649" gradientUnits="objectBoundingBox">
      <stop offset="0" stop-color="#000c5d"/>
      <stop offset="1" stop-color="#0f2091"/>
    </linearGradient>
    <linearGradient id="linear-gradient-67" x1="1392.127" y1="-93.977" x2="1388.43" y2="-67.869" gradientUnits="objectBoundingBox">
      <stop offset="0" stop-color="#5382ff"/>
      <stop offset="1" stop-color="#3856f7"/>
    </linearGradient>
    <linearGradient id="linear-gradient-68" x1="3689.72" y1="-17.656" x2="3689.204" y2="-14.445" xlink:href="#linear-gradient-65"/>
    <linearGradient id="linear-gradient-69" x1="949.508" y1="-68.473" x2="946.991" y2="-47.714" xlink:href="#linear-gradient-67"/>
    <linearGradient id="linear-gradient-70" x1="952.51" y1="-11.926" x2="953.51" y2="-11.926" xlink:href="#linear-gradient-66"/>
    <linearGradient id="linear-gradient-71" x1="3680.591" y1="-14.809" x2="3680.078" y2="-12.034" xlink:href="#linear-gradient-65"/>
    <linearGradient id="linear-gradient-72" x1="566.743" y1="-1.738" x2="564.22" y2="-0.189" xlink:href="#linear-gradient-66"/>
    <linearGradient id="linear-gradient-73" x1="301.997" y1="-13.878" x2="300.904" y2="-12.411" xlink:href="#linear-gradient-23"/>
    <linearGradient id="linear-gradient-74" x1="1531.814" y1="-9.108" x2="1530.998" y2="-5.905" xlink:href="#linear-gradient-65"/>
    <linearGradient id="linear-gradient-75" x1="843.401" y1="373.54" x2="842.32" y2="374.821" xlink:href="#linear-gradient-65"/>
    <linearGradient id="linear-gradient-76" x1="597.185" y1="247.504" x2="598.1" y2="247.504" xlink:href="#linear-gradient-66"/>
    <linearGradient id="linear-gradient-77" x1="2398.53" y1="1237.595" x2="2401.003" y2="1234.957" xlink:href="#linear-gradient-65"/>
    <linearGradient id="linear-gradient-78" x1="64.647" y1="-12.906" x2="37.144" y2="-7.162" xlink:href="#linear-gradient-23"/>
    <linearGradient id="linear-gradient-79" x1="2498.905" y1="-16.945" x2="2497.969" y2="-15.265" xlink:href="#linear-gradient-66"/>
    <linearGradient id="linear-gradient-80" x1="387.427" y1="-30.17" x2="386.028" y2="-26.951" xlink:href="#linear-gradient-23"/>
    <linearGradient id="linear-gradient-81" x1="894.697" y1="-9.083" x2="891.483" y2="-4.165" xlink:href="#linear-gradient-65"/>
    <linearGradient id="linear-gradient-82" x1="897.736" y1="-10.544" x2="894.515" y2="-4.376" xlink:href="#linear-gradient-65"/>
    <linearGradient id="linear-gradient-83" x1="-12.669" y1="-7.682" x2="1.792" y2="0.974" gradientUnits="objectBoundingBox">
      <stop offset="0" stop-color="#4f7fff"/>
      <stop offset="1" stop-color="#406be2"/>
    </linearGradient>
    <linearGradient id="linear-gradient-84" x1="-1.262" y1="-3.335" x2="1.039" y2="1.632" xlink:href="#linear-gradient-83"/>
    <linearGradient id="linear-gradient-85" x1="28.69" y1="-55.548" x2="27.597" y2="-54.346" gradientUnits="objectBoundingBox">
      <stop offset="0" stop-color="#fed6ba"/>
      <stop offset="1" stop-color="#ffb48e"/>
    </linearGradient>
    <linearGradient id="linear-gradient-86" x1="87.316" y1="-46.848" x2="86.704" y2="-46.228" gradientUnits="objectBoundingBox">
      <stop offset="0" stop-color="#000e5d"/>
      <stop offset="1" stop-color="#0f2491"/>
    </linearGradient>
    <linearGradient id="linear-gradient-87" x1="1.975" y1="-0.37" x2="-1.314" y2="1.446" xlink:href="#linear-gradient-83"/>
    <linearGradient id="linear-gradient-88" x1="385.748" y1="-139.058" x2="385.972" y2="-139.968" xlink:href="#linear-gradient-85"/>
    <linearGradient id="linear-gradient-89" x1="221.924" y1="-118.358" x2="223.133" y2="-117.194" xlink:href="#linear-gradient-85"/>
    <linearGradient id="linear-gradient-90" x1="265.673" y1="-144.634" x2="263.792" y2="-142.729" xlink:href="#linear-gradient-86"/>
    <linearGradient id="linear-gradient-91" x1="620.887" y1="-441.872" x2="624.262" y2="-437.552" xlink:href="#linear-gradient-85"/>
    <linearGradient id="linear-gradient-92" x1="1.496" y1="-1.235" x2="2.897" y2="-2.371" xlink:href="#linear-gradient-85"/>
    <linearGradient id="linear-gradient-93" x1="4.748" y1="-8.991" x2="5.743" y2="-8.991" xlink:href="#linear-gradient-86"/>
    <linearGradient id="linear-gradient-94" x1="5.55" y1="-2.314" x2="1.653" y2="-1.983" xlink:href="#linear-gradient-85"/>
    <linearGradient id="linear-gradient-95" x1="3.976" y1="-10.634" x2="4.968" y2="-10.634" xlink:href="#linear-gradient-86"/>
    <linearGradient id="linear-gradient-96" x1="2.612" y1="-3.33" x2="1.585" y2="-1.753" xlink:href="#linear-gradient-86"/>
    <linearGradient id="linear-gradient-97" x1="37.679" y1="-53.48" x2="40.649" y2="-55.657" xlink:href="#linear-gradient-85"/>
    <linearGradient id="linear-gradient-98" x1="42.635" y1="3.667" x2="41.318" y2="1.152" xlink:href="#linear-gradient-83"/>
    <linearGradient id="linear-gradient-99" x1="196.225" y1="14.724" x2="190.058" y2="1.067" xlink:href="#linear-gradient-83"/>
  </defs>
  <g id="Grupo_55483" data-name="Grupo 55483" transform="translate(1264.899 -33.52)">
    <g id="Grupo_55274" data-name="Grupo 55274" transform="translate(-1145.402 61.522)">
      <g id="Grupo_55273" data-name="Grupo 55273">
        <g id="Grupo_55268" data-name="Grupo 55268" transform="translate(10.621 0.138)" opacity="0.3">
          <path id="Trazado_104835" data-name="Trazado 104835" d="M-1162.787,74.069a.426.426,0,0,1-.257-.544c.153-.429.291-.871.408-1.314a.424.424,0,0,1,.512-.3l.008,0a.424.424,0,0,1,.3.52c-.123.465-.267.932-.429,1.383a.425.425,0,0,1-.5.27Zm.572-4.053c.055-.456.091-.916.107-1.372a.425.425,0,0,1,.44-.409.422.422,0,0,1,.41.44c-.016.48-.054.964-.114,1.444a.425.425,0,0,1-.473.369l-.049-.008A.424.424,0,0,1-1162.215,70.016Zm.034-3.606c-.048-.456-.115-.913-.2-1.362a.426.426,0,0,1,.338-.5.426.426,0,0,1,.5.337c.091.473.162.956.211,1.434a.426.426,0,0,1-.379.467.432.432,0,0,1-.144-.01A.423.423,0,0,1-1162.181,66.41Zm-.774-3.522c-.149-.433-.317-.865-.5-1.282a.426.426,0,0,1,.218-.561.425.425,0,0,1,.561.219c.194.44.369.894.526,1.35a.424.424,0,0,1-.265.539.414.414,0,0,1-.237.011A.422.422,0,0,1-1162.955,62.887Zm-1.54-3.262c-.24-.389-.5-.772-.771-1.14a.424.424,0,0,1,.088-.595.424.424,0,0,1,.595.088c.286.389.559.791.812,1.2a.424.424,0,0,1-.139.584.417.417,0,0,1-.323.051A.422.422,0,0,1-1164.5,59.626Zm-2.222-2.841c-.32-.326-.657-.643-1-.94a.425.425,0,0,1-.045-.6.425.425,0,0,1,.6-.045c.365.313.72.646,1.057.99a.426.426,0,0,1-.007.6.423.423,0,0,1-.4.109A.413.413,0,0,1-1166.718,56.784Zm-15-4.885a.425.425,0,0,1,.338-.5c.472-.09.955-.16,1.434-.208a.424.424,0,0,1,.465.379.423.423,0,0,1-.379.465c-.455.046-.913.114-1.362.2a.422.422,0,0,1-.179,0A.425.425,0,0,1-1181.719,51.9Zm12.206,2.609c-.384-.246-.784-.48-1.188-.692a.426.426,0,0,1-.177-.574.425.425,0,0,1,.574-.177c.425.224.846.468,1.25.729a.423.423,0,0,1,.128.587.425.425,0,0,1-.457.184A.46.46,0,0,1-1169.513,54.509Zm-8.522-2.98a.426.426,0,0,1,.441-.409c.48.019.966.058,1.444.117a.425.425,0,0,1,.37.475.426.426,0,0,1-.475.369c-.454-.056-.914-.094-1.372-.112a.371.371,0,0,1-.085-.011A.424.424,0,0,1-1178.035,51.528Zm5.289,1.386c-.429-.154-.872-.293-1.313-.409a.426.426,0,0,1-.3-.52.426.426,0,0,1,.512-.3l.008,0c.465.125.931.269,1.383.432a.425.425,0,0,1,.256.544.423.423,0,0,1-.5.269Z" transform="translate(1184.597 -51.119)" fill="url(#linear-gradient)"/>
          <path id="Trazado_104836" data-name="Trazado 104836" d="M-1183.2,52.729a.43.43,0,0,0,.253-.016c.2-.08.414-.155.622-.227a.425.425,0,0,0,.265-.539.425.425,0,0,0-.539-.265c-.219.075-.44.155-.656.238a.427.427,0,0,0-.243.55A.427.427,0,0,0-1183.2,52.729Z" transform="translate(1183.522 -50.795)" fill="url(#linear-gradient-2)"/>
        </g>
        <g id="Grupo_55269" data-name="Grupo 55269" transform="translate(0.025 9.63)" opacity="0.3">
          <path id="Trazado_104837" data-name="Trazado 104837" d="M-1189.013,58.513a.425.425,0,0,0,.492-.248c.085-.2.174-.406.269-.6a.427.427,0,0,0-.2-.566.424.424,0,0,0-.565.2c-.1.209-.193.424-.283.636a.425.425,0,0,0,.227.556A.338.338,0,0,0-1189.013,58.513Z" transform="translate(1190.635 -57.055)" fill="url(#linear-gradient-3)"/>
          <path id="Trazado_104838" data-name="Trazado 104838" d="M-1178.016,79.759a.424.424,0,0,1-.286-.528.423.423,0,0,1,.528-.286c.429.126.87.237,1.314.329a.427.427,0,0,1,.329.5.426.426,0,0,1-.5.329c-.193-.04-.385-.083-.574-.13C-1177.479,79.911-1177.751,79.839-1178.016,79.759Zm3.283.211a.424.424,0,0,1,.453-.393c.449.03.9.043,1.354.037a.425.425,0,0,1,.432.419.426.426,0,0,1-.419.432c-.473.006-.953-.006-1.426-.04a.341.341,0,0,1-.07-.011A.424.424,0,0,1-1174.734,79.97Zm-5.452-1.019c-.43-.2-.859-.411-1.273-.641a.425.425,0,0,1-.163-.579.425.425,0,0,1,.579-.163c.392.219.8.424,1.207.609a.424.424,0,0,1,.213.563.424.424,0,0,1-.488.237A.521.521,0,0,1-1180.186,78.952Zm9.095.964a.426.426,0,0,1,.357-.484c.445-.067.892-.155,1.329-.261a.422.422,0,0,1,.512.313.425.425,0,0,1-.313.513c-.459.11-.931.2-1.4.275a.438.438,0,0,1-.165-.008A.426.426,0,0,1-1171.091,79.916Zm-12.3-2.87c-.377-.286-.747-.59-1.1-.907a.425.425,0,0,1-.033-.6.425.425,0,0,1,.6-.034c.334.3.686.59,1.044.86a.428.428,0,0,1,.083.6.427.427,0,0,1-.44.157A.46.46,0,0,1-1183.4,77.046Zm-2.715-2.565c-.305-.361-.6-.74-.876-1.126a.425.425,0,0,1,.1-.592.423.423,0,0,1,.593.1c.261.365.541.724.833,1.068a.424.424,0,0,1-.05.6.428.428,0,0,1-.376.09A.431.431,0,0,1-1186.11,74.481Zm-2.09-3.1c-.221-.421-.427-.854-.611-1.289a.425.425,0,0,1,.225-.556.423.423,0,0,1,.556.225c.176.413.371.825.58,1.223a.425.425,0,0,1-.178.574.427.427,0,0,1-.3.037A.424.424,0,0,1-1188.2,71.385Zm-1.365-3.478c-.125-.459-.23-.926-.313-1.393a.423.423,0,0,1,.342-.492.425.425,0,0,1,.494.342c.08.441.179.886.3,1.321a.426.426,0,0,1-.3.521.43.43,0,0,1-.211,0A.424.424,0,0,1-1189.565,67.908Zm-.569-3.7c-.019-.473-.019-.951,0-1.425a.426.426,0,0,1,.443-.408.427.427,0,0,1,.406.443c-.019.451-.019.905,0,1.354a.425.425,0,0,1-.406.441.409.409,0,0,1-.118-.011A.425.425,0,0,1-1190.135,64.212Zm.257-3.726c.061-.344.134-.688.216-1.027.031-.122.061-.243.093-.365a.421.421,0,0,1,.521-.3.425.425,0,0,1,.3.52c-.031.115-.061.23-.088.347-.078.321-.149.649-.206.975a.426.426,0,0,1-.494.342l-.025,0A.425.425,0,0,1-1189.877,60.487Z" transform="translate(1190.149 -56.022)" fill="url(#linear-gradient)"/>
          <path id="Trazado_104839" data-name="Trazado 104839" d="M-1175.7,72.034a.423.423,0,0,0,.254-.018c.214-.085.432-.174.644-.267a.427.427,0,0,0,.218-.561.427.427,0,0,0-.561-.217c-.2.09-.408.174-.611.254a.426.426,0,0,0-.24.552A.427.427,0,0,0-1175.7,72.034Z" transform="translate(1198.608 -48.742)" fill="url(#linear-gradient-5)"/>
        </g>
        <g id="Grupo_55272" data-name="Grupo 55272">
          <circle id="Elipse_4204" data-name="Elipse 4204" cx="16.942" cy="16.942" r="16.942" fill="url(#linear-gradient-6)"/>
          <circle id="Elipse_4205" data-name="Elipse 4205" cx="16.378" cy="16.378" r="16.378" transform="translate(0.563 0.563)" fill="url(#linear-gradient-7)"/>
          <path id="Trazado_104840" data-name="Trazado 104840" d="M-1188.953,62.05h-.01a.155.155,0,0,1-.146-.163,15.422,15.422,0,0,1,.221-1.919.157.157,0,0,1,.181-.125.155.155,0,0,1,.125.181,15.388,15.388,0,0,0-.217,1.879A.153.153,0,0,1-1188.953,62.05Z" transform="translate(1190.797 -45.756)" fill="#fff" opacity="0.7"/>
          <path id="Trazado_104841" data-name="Trazado 104841" d="M-1187.957,60.7a.156.156,0,0,1-.07-.016.157.157,0,0,1-.069-.209,15.214,15.214,0,0,1,13.644-8.4,15.383,15.383,0,0,1,2.755.249.153.153,0,0,1,.125.179.152.152,0,0,1-.179.125,15.091,15.091,0,0,0-2.7-.243,14.9,14.9,0,0,0-13.367,8.231A.157.157,0,0,1-1187.957,60.7Z" transform="translate(1191.393 -50.408)" fill="#fff" opacity="0.7"/>
          <circle id="Elipse_4206" data-name="Elipse 4206" cx="13.862" cy="13.862" r="13.862" transform="translate(3.436 3.436)" fill="#fff" opacity="0.78"/>
          <g id="Grupo_55271" data-name="Grupo 55271" transform="translate(6.355 9.309)">
            <path id="Trazado_104842" data-name="Trazado 104842" d="M-1183.483,66.094c-1.682-.544-2.314-.991-2.575-1.636-.745-1.853,1.78-4.848,4.31-6.309,2.326-1.345,4.536-1.319,7.635-1.284,3,.034,5.158.059,7.082,1.564,1.444,1.13,3.046,3.323,2.423,4.96-.355.927-1.326,1.417-3.587,2.08C-1177.034,68.059-1182.321,66.47-1183.483,66.094Z" transform="translate(1186.19 -56.854)" fill="url(#linear-gradient-8)"/>
            <path id="Trazado_104843" data-name="Trazado 104843" d="M-1180.243,60.681c-4.391.437-5.376,1.8-5.286,3.028a8.883,8.883,0,0,0,1.654.678c1.162.376,6.448,1.965,15.287-.625a13.205,13.205,0,0,0,2.421-.894C-1164.519,58.1-1172.729,59.932-1180.243,60.681Z" transform="translate(1186.583 -55.147)" fill="url(#linear-gradient-9)"/>
            <path id="Trazado_104844" data-name="Trazado 104844" d="M-1182.221,57.679c-.443.123-1.057.448-1.007.678.047.213.66.371,1.1.149.392-.2.638-.686.518-.846C-1181.7,57.532-1182.018,57.621-1182.221,57.679Z" transform="translate(1187.962 -56.411)" fill="url(#linear-gradient-10)"/>
            <path id="Trazado_104845" data-name="Trazado 104845" d="M-1181.037,57.281c-.339.048-.787.267-.769.5.015.193.349.376.635.345.434-.046.74-.584.635-.769C-1180.615,57.221-1180.923,57.265-1181.037,57.281Z" transform="translate(1188.816 -56.61)" fill="url(#linear-gradient-11)"/>
            <path id="Trazado_104846" data-name="Trazado 104846" d="M-1179.568,57.029c-.2.016-.888.075-.9.249s.534.424,1.071.387c.515-.035,1.017-.345.985-.5C-1178.453,56.978-1179.225,57-1179.568,57.029Z" transform="translate(1189.615 -56.761)" fill="url(#linear-gradient-12)"/>
            <path id="Trazado_104847" data-name="Trazado 104847" d="M-1178.577,57.143c-.232-.026-.406.237-.366.326.056.126.6.078.638-.074C-1178.281,57.307-1178.42,57.16-1178.577,57.143Z" transform="translate(1190.527 -56.683)" fill="url(#linear-gradient-13)"/>
            <path id="Trazado_104848" data-name="Trazado 104848" d="M-1177.007,57.12c-.44-.305-1.068-.021-1.1.192-.04.312,1.161.867,1.4.616C-1176.561,57.782-1176.7,57.334-1177.007,57.12Z" transform="translate(1191.033 -56.775)" fill="url(#linear-gradient-14)"/>
            <path id="Trazado_104849" data-name="Trazado 104849" d="M-1176.488,57.2a.3.3,0,0,0-.232.307c.038.217.494.3.577.193S-1176.269,57.178-1176.488,57.2Z" transform="translate(1191.861 -56.647)" fill="url(#linear-gradient-15)"/>
            <path id="Trazado_104850" data-name="Trazado 104850" d="M-1175.6,57.213c-.217-.093-.456.064-.462.173-.008.171.536.409.654.289C-1175.329,57.595-1175.375,57.307-1175.6,57.213Z" transform="translate(1192.257 -56.657)" fill="url(#linear-gradient-16)"/>
            <path id="Trazado_104851" data-name="Trazado 104851" d="M-1183.874,58.225c-.021-.136.339-.358.462-.27a.277.277,0,0,1-.038.385A.3.3,0,0,1-1183.874,58.225Z" transform="translate(1187.577 -56.207)" fill="url(#linear-gradient-17)"/>
            <path id="Trazado_104852" data-name="Trazado 104852" d="M-1180.458,57.747a.33.33,0,0,0-.134.422.411.411,0,0,0,.6,0C-1179.938,58.023-1180.257,57.673-1180.458,57.747Z" transform="translate(1189.524 -56.326)" fill="url(#linear-gradient-18)"/>
            <path id="Trazado_104853" data-name="Trazado 104853" d="M-1183.469,65.413c-.643-.13-1.623-.353-1.767-.932-.216-.871,1.556-2.186,3.12-2.856s2.136-.357,6.127-.852c1.21-.15,1.94-.275,3.882-.494,1.887-.213,3.161-.313,4.458.329.411.2,1.148.582,1.233,1.207.1.742-.777,1.418-1.194,1.733C-1171,66.1-1178.243,66.465-1183.469,65.413Z" transform="translate(1186.75 -54.9)" fill="url(#linear-gradient-19)"/>
            <path id="Trazado_104854" data-name="Trazado 104854" d="M-1183.217,64.833c-.627-.093-1.583-.251-1.722-.662-.211-.619,1.517-1.551,3.04-2.026s2.084-.253,5.974-.6c1.18-.106,1.89-.2,3.785-.35a9.955,9.955,0,0,1,4.344.233c.4.144,1.121.413,1.2.855.1.528-.756,1.007-1.164,1.231C-1171.064,65.321-1178.123,65.579-1183.217,64.833Z" transform="translate(1186.928 -54.326)" opacity="0.3" fill="url(#linear-gradient-20)" style="mix-blend-mode: multiply;isolation: isolate"/>
            <path id="Trazado_104855" data-name="Trazado 104855" d="M-1179.526,63.491c-.043-.4.841-.838,1.172-.972,1-.4,1.349.133,2.595-.257a4.539,4.539,0,0,1,1.422-.365,5.54,5.54,0,0,1,.865.077c1.082.069,1.463-.716,2.422-.9,1.182-.23,2.6.571,2.614,1.191.013.576-1.186,1.036-1.93,1.314C-1174.48,65.112-1179.429,64.415-1179.526,63.491Z" transform="translate(1190.18 -54.354)" fill="red"/>
            <path id="Trazado_104856" data-name="Trazado 104856" d="M-1184.923,67.514a2.449,2.449,0,0,1-.718-.871,2.246,2.246,0,0,1,.059-1.908,3,3,0,0,1,2.141-1.247,50.062,50.062,0,0,1,7.024-1.086,54.811,54.811,0,0,1,7.05-.118c3.06.2,4.071.59,4.515,1.382a2.546,2.546,0,0,1-.1,2.472c-1.167,1.834-4.188.326-9.936.958C-1178.067,67.444-1183.462,68.6-1184.923,67.514Z" transform="translate(1186.408 -53.644)" fill="url(#linear-gradient-21)"/>
            <path id="Trazado_104857" data-name="Trazado 104857" d="M-1182.729,62.4a10.08,10.08,0,0,0-1.033.71c-.855.558-1.214.379-1.5.825a.952.952,0,0,0-.077,1c.27.349.983.192,1.5.07,1.412-.326,1.594-.852,2.974-1.337a9.627,9.627,0,0,1,2.4-.483,6.58,6.58,0,0,0,1.749-.115c1.015-.312,1.76-1.118,1.653-1.326-.085-.163-.62.166-1.615.115-.929-.048-.948-.361-1.73-.385-1.063-.03-1.1.547-2.29.531a3.675,3.675,0,0,0-1.349.091A3.763,3.763,0,0,0-1182.729,62.4Z" transform="translate(1186.633 -54.086)" fill="red"/>
            <g id="Grupo_55270" data-name="Grupo 55270" transform="translate(0.595 9.95)" opacity="0.3" style="mix-blend-mode: multiply;isolation: isolate">
              <path id="Trazado_104858" data-name="Trazado 104858" d="M-1166.5,64.6a4.632,4.632,0,0,1-1.912-.633c-2.736-1.458-7.5-.948-10.595.216-2.72,1.022-3.625,2.344-5.457,1.908a3.872,3.872,0,0,1-1.358-.636,2.172,2.172,0,0,0,.173.668,2.45,2.45,0,0,0,.718.871c1.461,1.084,6.856-.07,10.035-.419,5.748-.632,8.769.876,9.936-.958a2.529,2.529,0,0,0,.373-1.286A4.494,4.494,0,0,1-1166.5,64.6Z" transform="translate(1185.818 -63.077)" fill="url(#linear-gradient-22)"/>
            </g>
          </g>
        </g>
      </g>
    </g>
    <g id="Grupo_55275" data-name="Grupo 55275" transform="translate(-1217.417 67.938)">
      <path id="Trazado_104859" data-name="Trazado 104859" d="M-1230.713,61.846l-4.49,4.506,7.8-.467Z" transform="translate(1235.203 -50.972)" fill="url(#linear-gradient-23)"/>
      <path id="Trazado_104860" data-name="Trazado 104860" d="M-1197.817,69.159l-33.367.974a1.36,1.36,0,0,1-1.308-1.407v-10.6a1.366,1.366,0,0,1,1.247-1.405l33.285-1.671a1.354,1.354,0,0,1,1.367,1.405V66.976C-1196.592,67.753-1197.1,69.159-1197.817,69.159Z" transform="translate(1236.827 -55.045)" fill="url(#linear-gradient-24)"/>
      <path id="Trazado_104861" data-name="Trazado 104861" d="M-1199.179,68.347l-31.594.892a1.264,1.264,0,0,1-1.238-1.289v-9.7a1.266,1.266,0,0,1,1.18-1.286l31.517-1.529a1.26,1.26,0,0,1,1.3,1.286V66.35C-1198.018,67.062-1198.5,68.347-1199.179,68.347Z" transform="translate(1237.115 -54.814)" fill="#fff" opacity="0.78"/>
    </g>
    <g id="Grupo_55279" data-name="Grupo 55279" transform="translate(-1264.899 55.074)">
      <circle id="Elipse_4207" data-name="Elipse 4207" cx="9.748" cy="9.748" r="9.748" fill="url(#linear-gradient-25)"/>
      <circle id="Elipse_4208" data-name="Elipse 4208" cx="9.424" cy="9.424" r="9.424" transform="translate(0.324 0.324)" fill="url(#linear-gradient-26)"/>
      <path id="Trazado_104862" data-name="Trazado 104862" d="M-1264.2,53.341h0a.09.09,0,0,1-.085-.094,8.817,8.817,0,0,1,.128-1.1.09.09,0,0,1,.1-.072.091.091,0,0,1,.072.1,8.463,8.463,0,0,0-.125,1.082A.092.092,0,0,1-1264.2,53.341Z" transform="translate(1265.262 -43.964)" fill="#fff" opacity="0.7"/>
      <path id="Trazado_104863" data-name="Trazado 104863" d="M-1263.628,52.563a.087.087,0,0,1-.04-.01.089.089,0,0,1-.04-.12,8.752,8.752,0,0,1,7.851-4.834,8.888,8.888,0,0,1,1.585.142.089.089,0,0,1,.072.1.087.087,0,0,1-.1.072,8.678,8.678,0,0,0-1.553-.139,8.575,8.575,0,0,0-7.691,4.735A.089.089,0,0,1-1263.628,52.563Z" transform="translate(1265.606 -46.641)" fill="#fff" opacity="0.7"/>
      <circle id="Elipse_4209" data-name="Elipse 4209" cx="7.976" cy="7.976" r="7.976" transform="translate(1.977 1.977)" fill="#fff" opacity="0.78"/>
      <g id="Grupo_55278" data-name="Grupo 55278" transform="translate(3.356 4.003)">
        <path id="Trazado_104864" data-name="Trazado 104864" d="M-1261.884,54.861a2.621,2.621,0,0,0-.168.838.985.985,0,0,0,.187.772.824.824,0,0,0,.141.128.905.905,0,0,1,.179.118c.077.086.085.238.138.341a1.032,1.032,0,0,0,.608.51.58.58,0,0,1,.185.08,1.048,1.048,0,0,1,.146.177.607.607,0,0,0,.345.209,1.376,1.376,0,0,0,.4.014l.467-.034c.153-.013.308-.021.464-.037a.87.87,0,0,0,.368-.1.885.885,0,0,0,.264-.3.442.442,0,0,1,.134-.147.439.439,0,0,1,.192-.034,1.306,1.306,0,0,0,.739-.2.786.786,0,0,0,.338-.585c0-.021,0-.042,0-.062a.115.115,0,0,0,.067-.05,1.165,1.165,0,0,0-.134-1.358,2.042,2.042,0,0,0-.315-.246.9.9,0,0,1-.2-.315.687.687,0,0,0-.625-.286.576.576,0,0,1-.317-.088c-.11-.078-.2-.182-.307-.261a.652.652,0,0,0-.374-.134,2.824,2.824,0,0,1-.368.006,1.652,1.652,0,0,1-.376-.171,1.381,1.381,0,0,0-.357-.1,1.3,1.3,0,0,0-.764.118.808.808,0,0,0-.317.27.843.843,0,0,0-.086.19.312.312,0,0,1-.086.158,1.83,1.83,0,0,1-.181.107.835.835,0,0,0-.158.131A1.077,1.077,0,0,0-1261.884,54.861Z" transform="translate(1263.243 -47.094)" fill="url(#linear-gradient-27)"/>
        <path id="Trazado_104865" data-name="Trazado 104865" d="M-1261.473,54.051c.134.483.32.956.449,1.441a1.8,1.8,0,0,0,.515.7,1.017,1.017,0,0,0,.863.224c.6-.082,1.055-.512,1.695-.446a3.19,3.19,0,0,1,1.186.35.8.8,0,0,1-.336.558,1.306,1.306,0,0,1-.739.2.439.439,0,0,0-.192.034.442.442,0,0,0-.134.147.885.885,0,0,1-.264.3.87.87,0,0,1-.368.1c-.155.016-.31.024-.464.037l-.467.034a1.376,1.376,0,0,1-.4-.014.607.607,0,0,1-.345-.209.989.989,0,0,0-.146-.177.58.58,0,0,0-.185-.08,1.032,1.032,0,0,1-.608-.51c-.053-.1-.061-.254-.138-.341a.905.905,0,0,0-.179-.118.824.824,0,0,1-.141-.128.985.985,0,0,1-.187-.772,2.621,2.621,0,0,1,.168-.838,1.077,1.077,0,0,1,.224-.347.835.835,0,0,1,.158-.131Z" transform="translate(1263.243 -46.78)" opacity="0.2" fill="url(#linear-gradient-28)" style="mix-blend-mode: multiply;isolation: isolate"/>
        <path id="Trazado_104866" data-name="Trazado 104866" d="M-1257.079,53.585a1.6,1.6,0,0,0-.795-.724.938.938,0,0,0-.136-1.055,1.378,1.378,0,0,0-1.334-.352,1.69,1.69,0,0,0-1.143-.192,1.68,1.68,0,0,0-1.311,1.8,1.074,1.074,0,0,0-.872.555,1.141,1.141,0,0,0,.142,1.263,6.571,6.571,0,0,0,.486.5,2.335,2.335,0,0,1,.39.609,1.588,1.588,0,0,0,1.144.836,1.552,1.552,0,0,0,1.214-.336,1.264,1.264,0,0,0,.854.309,1.465,1.465,0,0,0,1.132-.552A2.573,2.573,0,0,0-1257.079,53.585Z" transform="translate(1262.8 -48.468)" fill="url(#linear-gradient-29)"/>
        <g id="Grupo_55276" data-name="Grupo 55276" transform="translate(1.934)">
          <path id="Trazado_104867" data-name="Trazado 104867" d="M-1255.108,59.394a2.618,2.618,0,0,0,1.325-.289c.433-.275.529-1,.713-1.15s.636-.184.988-.464a1.442,1.442,0,0,0,.593-1.537c-.086-.206-.387-.574-.28-.827a1.472,1.472,0,0,0,.67-1.081,2.042,2.042,0,0,0-1.27-2.24c-.216-.2-.062-.748-.651-1.159s-1.087-.086-1.293-.277a3.181,3.181,0,0,0-1.276-.8,2.436,2.436,0,0,0-2,.435,2.56,2.56,0,0,0-.411.365c-.051.056-.067.077-.141.064-.089-.014-.173-.035-.262-.045a2.381,2.381,0,0,0-1.022.062,2.147,2.147,0,0,0-1.295,1.4c-.158.552.182,1.681.086,1.836s-.8.574-.919,1.252a2.206,2.206,0,0,0,.8,2.2c.305.24,1.2.664,1.41.886s-.013,1.007.3,1.447c.339.478.809.555,1.5.513.374-.022.576.07.919-.107a1.2,1.2,0,0,0,1.135-.123C-1255.325,59.656-1255.344,59.376-1255.108,59.394Z" transform="translate(1261.59 -49.503)" fill="url(#linear-gradient-30)"/>
        </g>
        <g id="Grupo_55277" data-name="Grupo 55277" transform="translate(1.934)">
          <path id="Trazado_104868" data-name="Trazado 104868" d="M-1254.044,52.648c-.864-.325-1.673.277-2.525.2s-.809-1.209-1.143-1.869a1.22,1.22,0,0,0-.484-.593,2.158,2.158,0,0,0-1-.238,2,2,0,0,1,.182-.144,2.436,2.436,0,0,1,2-.435,3.179,3.179,0,0,1,1.276.8c.206.19.705-.133,1.293.277s.435.961.651,1.159a2.02,2.02,0,0,1,1.292,1.93l-.043-.051A3.263,3.263,0,0,0-1254.044,52.648Z" transform="translate(1263.023 -49.503)" fill="url(#linear-gradient-31)"/>
          <path id="Trazado_104869" data-name="Trazado 104869" d="M-1259.42,50.127a1.941,1.941,0,0,1,.707-.086c-.416.219-1,.5-.859.975.23.79.942,1.412.988,2.294.038.939-.955,1.3-1.738,1.476a.429.429,0,0,0-.315.548,2.082,2.082,0,0,0,1.164,1.6c1.482.662,3.049.544,4.642.788.424.054.72.437.984.744.177-.1.35-.2.52-.313a1.347,1.347,0,0,1-.454.632,2.618,2.618,0,0,1-1.325.289c-.237-.018-.218.262-.373.358a1.2,1.2,0,0,1-1.135.123c-.344.177-.545.085-.919.107-.691.042-1.161-.035-1.5-.513-.312-.44-.086-1.226-.3-1.447s-1.1-.646-1.41-.886a2.206,2.206,0,0,1-.8-2.2c.122-.678.822-1.1.919-1.252s-.245-1.284-.086-1.836A2.147,2.147,0,0,1-1259.42,50.127Z" transform="translate(1261.59 -49.183)" fill="url(#linear-gradient-32)"/>
        </g>
        <path id="Trazado_104870" data-name="Trazado 104870" d="M-1260.246,53.739a10.034,10.034,0,0,1,1.81,5.777l2.422-.863c-2.179-3.991-1.194-5.224-.9-6.66,0,0-.1-.387-.312-.014a6.111,6.111,0,0,0-.453,2.015c-.465-1.172-.16-2.039-.339-2.365-.062-.11-.294-.134-.294-.134a18.282,18.282,0,0,0,.538,5.371,15.259,15.259,0,0,0-1.6-3.612c-.131-.139-.265-.03-.195.24a7.955,7.955,0,0,1,.531,1.356c-.595-.8-.683-.977-.9-1.249S-1260.311,53.472-1260.246,53.739Z" transform="translate(1264.321 -48.311)" fill="url(#linear-gradient-33)"/>
        <path id="Trazado_104871" data-name="Trazado 104871" d="M-1253.573,55.087a.781.781,0,0,0,.689-.515,1.615,1.615,0,0,0,0-1.142,1.679,1.679,0,0,0-1.581-1.084.686.686,0,0,0-.449-.484.639.639,0,0,0-.572.1,1.273,1.273,0,0,0-.355-.045.689.689,0,0,0-.649.489,1.177,1.177,0,0,0-.836.87,1,1,0,0,0,.054.838c.069.1.181.147.161.278a1.249,1.249,0,0,0-.008.377,1.116,1.116,0,0,0,.377.649.993.993,0,0,0,.285.171,3.444,3.444,0,0,1,.384.09c.061.034.109.118.155.169a.834.834,0,0,0,.149.131.873.873,0,0,0,.34.133,1.452,1.452,0,0,0,.7-.088A1.814,1.814,0,0,0-1253.573,55.087Z" transform="translate(1266.035 -48.108)" fill="url(#linear-gradient-34)"/>
        <path id="Trazado_104872" data-name="Trazado 104872" d="M-1256.813,53.653c.082.141.2.385.286.339.849-.453,1.672.182,2.437.51.451.185.811-.272,1.024-.59a2.763,2.763,0,0,0,.281-.492,1.458,1.458,0,0,1-.1.635.781.781,0,0,1-.691.515,1.808,1.808,0,0,1-1.16.937,1.452,1.452,0,0,1-.7.088.873.873,0,0,1-.34-.133.834.834,0,0,1-.149-.131c-.046-.051-.094-.136-.155-.169a3.443,3.443,0,0,0-.384-.09.993.993,0,0,1-.285-.171,1.116,1.116,0,0,1-.377-.649,1.249,1.249,0,0,1,.008-.377c.019-.131-.093-.174-.161-.278a1,1,0,0,1-.054-.838l.019-.061C-1257.148,53.012-1257,53.333-1256.813,53.653Z" transform="translate(1266.035 -47.591)" opacity="0.2" fill="url(#linear-gradient-35)" style="mix-blend-mode: multiply;isolation: isolate"/>
        <path id="Trazado_104873" data-name="Trazado 104873" d="M-1257.732,52.615a3.026,3.026,0,0,0-.755-.627,1.125,1.125,0,0,0-.883-.233.912.912,0,0,0-.2.072,1.026,1.026,0,0,1-.217.117c-.13.03-.288-.045-.421-.046a1.185,1.185,0,0,0-.846.334.647.647,0,0,1-.181.142,1.091,1.091,0,0,1-.259.051.693.693,0,0,0-.4.233,1.526,1.526,0,0,0-.232.392c-.075.163-.147.326-.221.489s-.149.325-.217.488a.991.991,0,0,0-.094.429,1.023,1.023,0,0,0,.158.432.48.48,0,0,1,.075.216.518.518,0,0,1-.072.213,1.516,1.516,0,0,0-.2.855.911.911,0,0,0,.406.66c.021.013.042.024.062.035a.137.137,0,0,0,.014.1,1.338,1.338,0,0,0,1.444.606,2.335,2.335,0,0,0,.42-.184,1.036,1.036,0,0,1,.427-.03c.315-.01.477-.233.632-.475a.678.678,0,0,1,.261-.272c.139-.069.292-.1.432-.168a.754.754,0,0,0,.339-.3,3.194,3.194,0,0,1,.195-.376,1.888,1.888,0,0,1,.377-.285,1.586,1.586,0,0,0,.3-.305,1.493,1.493,0,0,0,.3-.835.915.915,0,0,0-.1-.468.923.923,0,0,0-.144-.19.345.345,0,0,1-.112-.174,1.935,1.935,0,0,1-.01-.241,1.029,1.029,0,0,0-.046-.232A1.276,1.276,0,0,0-1257.732,52.615Z" transform="translate(1262.857 -48.169)" fill="url(#linear-gradient-36)"/>
        <path id="Trazado_104874" data-name="Trazado 104874" d="M-1261.5,52.358a1.091,1.091,0,0,0,.259-.051.647.647,0,0,0,.181-.142,1.192,1.192,0,0,1,.656-.323l-.077.078a.68.68,0,0,0-.107.16c-.352.4-.923.817-.772,1.338.066.281.387.465.467.734.152.393-.088.809-.1,1.225-.022.3-.15.627.155.823a2.733,2.733,0,0,0,1.709.4.9.9,0,0,0-.167.209c-.155.241-.317.465-.632.475a1.036,1.036,0,0,0-.427.03,2.334,2.334,0,0,1-.42.184,1.338,1.338,0,0,1-1.444-.606.137.137,0,0,1-.014-.1c-.021-.011-.042-.022-.062-.035a.911.911,0,0,1-.406-.66,1.516,1.516,0,0,1,.2-.855.518.518,0,0,0,.072-.213.48.48,0,0,0-.075-.216,1.023,1.023,0,0,1-.158-.432.991.991,0,0,1,.094-.429c.069-.163.145-.325.217-.488s.146-.326.221-.489a1.526,1.526,0,0,1,.232-.392A.692.692,0,0,1-1261.5,52.358Z" transform="translate(1262.857 -48.103)" opacity="0.2" fill="url(#linear-gradient-37)" style="mix-blend-mode: multiply;isolation: isolate"/>
        <path id="Trazado_104875" data-name="Trazado 104875" d="M-1255.593,50.74a1.652,1.652,0,0,0-1.108.11.965.965,0,0,0-.9-.625,1.423,1.423,0,0,0-1.193.782,1.761,1.761,0,0,0-.938.747,1.739,1.739,0,0,0,.478,2.253,1.112,1.112,0,0,0-.176,1.054,1.182,1.182,0,0,0,1.07.766,6.856,6.856,0,0,0,.724-.027,2.465,2.465,0,0,1,.737.122,1.641,1.641,0,0,0,1.434-.3,1.611,1.611,0,0,0,.582-1.166,1.309,1.309,0,0,0,.827-.443,1.514,1.514,0,0,0,.358-1.25A2.662,2.662,0,0,0-1255.593,50.74Z" transform="translate(1264.496 -49.071)" fill="url(#linear-gradient-38)"/>
        <path id="Trazado_104876" data-name="Trazado 104876" d="M-1259.557,52.5c.107.632.752.871,1.327.987.675.115.791.891,1.255,1.324a.257.257,0,0,0,.323.054c.566-.389.6-1.074.662-1.712,0-.257.236-.387.5-.411a.7.7,0,0,1,.518.339,1.968,1.968,0,0,0,.593-1.98,2.452,2.452,0,0,1,.678,1.292,1.514,1.514,0,0,1-.358,1.25,1.309,1.309,0,0,1-.827.443,1.611,1.611,0,0,1-.582,1.166,1.641,1.641,0,0,1-1.434.3,2.465,2.465,0,0,0-.737-.122,6.856,6.856,0,0,1-.724.027,1.182,1.182,0,0,1-1.07-.766,1.112,1.112,0,0,1,.176-1.054,1.739,1.739,0,0,1-.478-2.253,1.7,1.7,0,0,1,.537-.552A2.381,2.381,0,0,0-1259.557,52.5Z" transform="translate(1264.496 -48.705)" opacity="0.2" fill="url(#linear-gradient-39)" style="mix-blend-mode: multiply;isolation: isolate"/>
        <path id="Trazado_104877" data-name="Trazado 104877" d="M-1256.7,55.968c-.245-.315-2.328.107-2.424.863S-1256.22,56.59-1256.7,55.968Z" transform="translate(1264.999 -45.694)" fill="url(#linear-gradient-40)"/>
      </g>
    </g>
    <g id="Grupo_55282" data-name="Grupo 55282" transform="translate(-1247.311 39.929)">
      <circle id="Elipse_4210" data-name="Elipse 4210" cx="9.748" cy="9.748" r="9.748" fill="url(#linear-gradient-41)"/>
      <circle id="Elipse_4211" data-name="Elipse 4211" cx="9.424" cy="9.424" r="9.424" transform="translate(0.324 0.324)" fill="url(#linear-gradient-42)"/>
      <path id="Trazado_104878" data-name="Trazado 104878" d="M-1253.2,43.869h0a.092.092,0,0,1-.085-.094,9.124,9.124,0,0,1,.128-1.1.091.091,0,0,1,.1-.072.09.09,0,0,1,.072.1,8.828,8.828,0,0,0-.125,1.083A.091.091,0,0,1-1253.2,43.869Z" transform="translate(1254.263 -34.492)" fill="#fff" opacity="0.7"/>
      <path id="Trazado_104879" data-name="Trazado 104879" d="M-1252.63,43.091a.091.091,0,0,1-.04-.01.089.089,0,0,1-.038-.12,8.749,8.749,0,0,1,7.849-4.834,8.907,8.907,0,0,1,1.586.142.091.091,0,0,1,.072.1.089.089,0,0,1-.1.072,8.71,8.71,0,0,0-1.554-.139,8.575,8.575,0,0,0-7.691,4.735A.088.088,0,0,1-1252.63,43.091Z" transform="translate(1254.606 -37.169)" fill="#fff" opacity="0.7"/>
      <circle id="Elipse_4212" data-name="Elipse 4212" cx="7.976" cy="7.976" r="7.976" transform="translate(1.977 1.977)" fill="#fff" opacity="0.78"/>
      <g id="Grupo_55281" data-name="Grupo 55281" transform="translate(3.657 5.356)">
        <path id="Trazado_104880" data-name="Trazado 104880" d="M-1250.055,46.194c-.967-.313-1.332-.571-1.481-.942-.43-1.067,1.023-2.79,2.478-3.63,1.339-.774,2.61-.76,4.394-.739,1.728.019,2.968.034,4.074.9.83.651,1.752,1.912,1.393,2.854-.2.534-.763.815-2.063,1.2C-1246.345,47.325-1249.386,46.41-1250.055,46.194Z" transform="translate(1251.612 -40.878)" fill="url(#linear-gradient-43)"/>
        <path id="Trazado_104881" data-name="Trazado 104881" d="M-1248.19,43.079c-2.526.251-3.092,1.035-3.043,1.741a5.114,5.114,0,0,0,.953.392c.668.216,3.71,1.13,8.8-.36a7.649,7.649,0,0,0,1.393-.515C-1239.143,41.6-1243.868,42.649-1248.19,43.079Z" transform="translate(1251.837 -39.896)" fill="url(#linear-gradient-44)"/>
        <path id="Trazado_104882" data-name="Trazado 104882" d="M-1249.329,41.352c-.256.07-.608.257-.579.39s.379.213.633.085c.225-.114.368-.395.3-.486C-1249.03,41.268-1249.212,41.319-1249.329,41.352Z" transform="translate(1252.632 -40.623)" fill="url(#linear-gradient-45)"/>
        <path id="Trazado_104883" data-name="Trazado 104883" d="M-1248.647,41.123c-.2.029-.453.154-.443.288.008.112.2.217.364.2.251-.027.427-.336.366-.443C-1248.406,41.089-1248.583,41.115-1248.647,41.123Z" transform="translate(1253.122 -40.738)" fill="url(#linear-gradient-46)"/>
        <path id="Trazado_104884" data-name="Trazado 104884" d="M-1247.8,40.978c-.115.01-.51.045-.52.144s.307.243.617.222.585-.2.566-.289S-1247.606,40.961-1247.8,40.978Z" transform="translate(1253.583 -40.825)" fill="url(#linear-gradient-47)"/>
        <path id="Trazado_104885" data-name="Trazado 104885" d="M-1247.232,41.043c-.134-.014-.233.136-.211.189.032.072.344.045.368-.043C-1247.061,41.139-1247.141,41.055-1247.232,41.043Z" transform="translate(1254.107 -40.78)" fill="url(#linear-gradient-48)"/>
        <path id="Trazado_104886" data-name="Trazado 104886" d="M-1246.329,41.031c-.254-.176-.615-.013-.63.11-.024.179.668.5.806.353C-1246.073,41.411-1246.151,41.154-1246.329,41.031Z" transform="translate(1254.399 -40.833)" fill="url(#linear-gradient-49)"/>
        <path id="Trazado_104887" data-name="Trazado 104887" d="M-1246.031,41.078a.169.169,0,0,0-.133.177c.022.125.283.174.331.11S-1245.9,41.064-1246.031,41.078Z" transform="translate(1254.874 -40.759)" fill="url(#linear-gradient-50)"/>
        <path id="Trazado_104888" data-name="Trazado 104888" d="M-1245.519,41.084c-.125-.053-.262.037-.265.1,0,.1.309.235.377.166C-1245.364,41.3-1245.391,41.138-1245.519,41.084Z" transform="translate(1255.103 -40.764)" fill="url(#linear-gradient-51)"/>
        <path id="Trazado_104889" data-name="Trazado 104889" d="M-1250.28,41.666c-.011-.078.2-.206.266-.155a.157.157,0,0,1-.021.221A.171.171,0,0,1-1250.28,41.666Z" transform="translate(1252.41 -40.506)" fill="url(#linear-gradient-52)"/>
        <path id="Trazado_104890" data-name="Trazado 104890" d="M-1248.314,41.391a.189.189,0,0,0-.077.243.236.236,0,0,0,.342,0C-1248.015,41.551-1248.2,41.348-1248.314,41.391Z" transform="translate(1253.53 -40.574)" fill="url(#linear-gradient-53)"/>
        <path id="Trazado_104891" data-name="Trazado 104891" d="M-1250.048,45.8c-.369-.075-.934-.2-1.016-.537-.125-.5.9-1.257,1.794-1.642s1.229-.206,3.526-.491c.7-.086,1.116-.158,2.234-.285a4.336,4.336,0,0,1,2.565.19c.237.117.66.334.71.694.057.427-.448.815-.687,1C-1242.873,46.2-1247.04,46.407-1250.048,45.8Z" transform="translate(1251.935 -39.754)" fill="url(#linear-gradient-54)"/>
        <path id="Trazado_104892" data-name="Trazado 104892" d="M-1249.9,45.469c-.361-.053-.91-.146-.991-.381-.122-.357.873-.892,1.749-1.166a17.511,17.511,0,0,1,3.438-.349c.678-.061,1.087-.112,2.176-.2a5.735,5.735,0,0,1,2.5.134c.23.083.645.238.692.492.056.3-.436.579-.67.708C-1242.91,45.75-1246.971,45.9-1249.9,45.469Z" transform="translate(1252.036 -39.423)" opacity="0.3" fill="url(#linear-gradient-55)" style="mix-blend-mode: multiply;isolation: isolate"/>
        <path id="Trazado_104893" data-name="Trazado 104893" d="M-1247.779,44.7c-.024-.232.485-.483.675-.56.573-.233.777.077,1.494-.149a2.63,2.63,0,0,1,.819-.209,3.139,3.139,0,0,1,.5.045c.622.04.841-.413,1.393-.52.681-.133,1.5.328,1.5.684.008.333-.683.6-1.11.756C-1244.875,45.629-1247.723,45.227-1247.779,44.7Z" transform="translate(1253.907 -39.439)" fill="#04f"/>
        <path id="Trazado_104894" data-name="Trazado 104894" d="M-1250.884,47.011a1.406,1.406,0,0,1-.413-.5,1.3,1.3,0,0,1,.034-1.1,1.726,1.726,0,0,1,1.231-.718,28.621,28.621,0,0,1,4.042-.624,31.467,31.467,0,0,1,4.057-.069c1.76.112,2.342.339,2.6.795a1.465,1.465,0,0,1-.059,1.423c-.67,1.055-2.41.187-5.717.55C-1246.939,46.971-1250.043,47.635-1250.884,47.011Z" transform="translate(1251.738 -39.031)" fill="url(#linear-gradient-56)"/>
        <path id="Trazado_104895" data-name="Trazado 104895" d="M-1249.62,44.071a5.512,5.512,0,0,0-.595.408c-.492.321-.7.217-.864.475a.548.548,0,0,0-.043.576c.155.2.564.11.865.04.811-.189.916-.491,1.711-.769a5.517,5.517,0,0,1,1.383-.278,3.75,3.75,0,0,0,1.006-.066c.585-.179,1.014-.643.951-.763-.048-.094-.356.1-.929.066-.534-.027-.545-.208-.995-.221-.612-.019-.631.313-1.317.305a2.124,2.124,0,0,0-.777.051A2.082,2.082,0,0,0-1249.62,44.071Z" transform="translate(1251.867 -39.285)" fill="#04f"/>
        <g id="Grupo_55280" data-name="Grupo 55280" transform="translate(0.342 5.725)" opacity="0.3" style="mix-blend-mode: multiply;isolation: isolate">
          <path id="Trazado_104896" data-name="Trazado 104896" d="M-1240.282,45.337a2.691,2.691,0,0,1-1.1-.365c-1.573-.839-4.312-.545-6.1.123-1.565.588-2.087,1.35-3.14,1.1a2.2,2.2,0,0,1-.78-.366,1.262,1.262,0,0,0,.1.385,1.406,1.406,0,0,0,.413.5c.841.624,3.945-.04,5.774-.241,3.307-.363,5.046.505,5.716-.55a1.435,1.435,0,0,0,.214-.74A2.585,2.585,0,0,1-1240.282,45.337Z" transform="translate(1251.398 -44.458)" fill="url(#linear-gradient-57)"/>
        </g>
      </g>
    </g>
    <g id="Grupo_55284" data-name="Grupo 55284" transform="translate(-1243.716 62.472)">
      <circle id="Elipse_4213" data-name="Elipse 4213" cx="9.748" cy="9.748" r="9.748" fill="url(#linear-gradient-58)"/>
      <circle id="Elipse_4214" data-name="Elipse 4214" cx="9.424" cy="9.424" r="9.424" transform="translate(0.324 0.324)" fill="url(#linear-gradient-59)"/>
      <path id="Trazado_104897" data-name="Trazado 104897" d="M-1250.953,57.966h0a.089.089,0,0,1-.085-.094,8.792,8.792,0,0,1,.128-1.1.09.09,0,0,1,.1-.072.091.091,0,0,1,.072.1,8.8,8.8,0,0,0-.126,1.081A.088.088,0,0,1-1250.953,57.966Z" transform="translate(1252.015 -48.591)" fill="#fff" opacity="0.7"/>
      <path id="Trazado_104898" data-name="Trazado 104898" d="M-1250.38,57.19a.086.086,0,0,1-.04-.01.089.089,0,0,1-.04-.12,8.751,8.751,0,0,1,7.851-4.834,8.888,8.888,0,0,1,1.585.142.087.087,0,0,1,.072.1.088.088,0,0,1-.1.072,8.683,8.683,0,0,0-1.553-.141,8.574,8.574,0,0,0-7.691,4.736A.093.093,0,0,1-1250.38,57.19Z" transform="translate(1252.358 -51.267)" fill="#fff" opacity="0.7"/>
      <circle id="Elipse_4215" data-name="Elipse 4215" cx="7.976" cy="7.976" r="7.976" transform="translate(1.977 1.977)" fill="#fff" opacity="0.78"/>
      <g id="Grupo_55283" data-name="Grupo 55283" transform="translate(5.002 5.204)">
        <path id="Trazado_104899" data-name="Trazado 104899" d="M-1239.43,58.128a4.352,4.352,0,0,0-.924-1.463,3.607,3.607,0,0,0-1.463-.875,5.771,5.771,0,0,0-4.359.369,3.937,3.937,0,0,0-2.326,3.19,4.259,4.259,0,0,0,.875,3.043,4.15,4.15,0,0,0,1.223,1.07,4.181,4.181,0,0,0,1.661.5c2.02.2,4.781-.365,5.517-2.568A4.845,4.845,0,0,0-1239.43,58.128Z" transform="translate(1248.522 -54.495)" fill="url(#linear-gradient-60)"/>
        <path id="Trazado_104900" data-name="Trazado 104900" d="M-1239.793,61.763c-.4-.2-.36-.761-.68-1-.641-.48-1.521.08-2.28.16a3.565,3.565,0,0,1-3.12-1.719c-.6-.839-.2-1.92.08-2.84a3.845,3.845,0,0,1,.264-.622,4.725,4.725,0,0,0-.648.289,3.937,3.937,0,0,0-2.326,3.19,4.259,4.259,0,0,0,.875,3.043,4.15,4.15,0,0,0,1.223,1.07,4.181,4.181,0,0,0,1.661.5c1.84.179,4.3-.272,5.275-2.021A.966.966,0,0,1-1239.793,61.763Z" transform="translate(1248.522 -54.366)" opacity="0.25" fill="url(#linear-gradient-61)" style="mix-blend-mode: multiply;isolation: isolate"/>
        <path id="Trazado_104901" data-name="Trazado 104901" d="M-1240.306,58.128a4.353,4.353,0,0,0-.924-1.463,3.605,3.605,0,0,0-1.463-.875,5.841,5.841,0,0,0-3.711.08,3.823,3.823,0,0,0-.264.622c-.28.919-.68,2-.08,2.84a3.565,3.565,0,0,0,3.12,1.719c.76-.08,1.639-.64,2.28-.16.32.24.28.8.68,1a.966.966,0,0,0,.324.045,3.263,3.263,0,0,0,.241-.547A4.843,4.843,0,0,0-1240.306,58.128Z" transform="translate(1249.398 -54.495)" fill="url(#linear-gradient-62)"/>
        <path id="Trazado_104902" data-name="Trazado 104902" d="M-1246.984,57.67a2.3,2.3,0,0,1,1.226-.476c.956-.069,1.266.321,1.266.321s.112-.157-.593-.91a1.746,1.746,0,0,1-.337-1.724,4.489,4.489,0,0,0,.51,1.19c.318.46.843.382,1.051,1.086a1.067,1.067,0,0,0,.28-.894,2.289,2.289,0,0,1,.053-1.092,2.617,2.617,0,0,0,.521,1.035c.436.561-.042,1.252-.2,1.449a1.037,1.037,0,0,1,1.073.045c.654.345,1.706-.382,1.706-.382s-.509.763-1.094.851a2.579,2.579,0,0,1-1.791-.077s-.213.15.545.731-.029,1.5-.029,1.5a1.823,1.823,0,0,0-.556-1.3c-.548-.411-.776-.624-.776-.624s-1.318.206-1.183,1.063a3.77,3.77,0,0,0,.449,1.055s-1.1-.414-1.041-1.191,1.038-1.318,1.038-1.318a2.492,2.492,0,0,0-.947-.361A5.371,5.371,0,0,0-1246.984,57.67Z" transform="translate(1249.444 -54.881)" fill="url(#linear-gradient-63)"/>
        <path id="Trazado_104903" data-name="Trazado 104903" d="M-1245.192,57.569s1.167-1.948,2.64-2.312a.558.558,0,0,1,.291.609,6.619,6.619,0,0,0-2.408,1.791C-1244.928,58.036-1245.192,57.569-1245.192,57.569Z" transform="translate(1250.517 -54.656)" fill="url(#linear-gradient-64)"/>
      </g>
    </g>
    <g id="Grupo_55285" data-name="Grupo 55285" transform="translate(-1223.808 33.52)">
      <path id="Trazado_104904" data-name="Trazado 104904" d="M-1150.193,67.076c-13.852-40.252-74.28-44.667-88.349-11.205l5.108,1.439c16.466-30.527,67.681-24.865,81.894,13.019l.7-.611A2.469,2.469,0,0,0-1150.193,67.076Z" transform="translate(1239.594 -33.52)" fill="#fd3632"/>
      <path id="Trazado_104905" data-name="Trazado 104905" d="M-1228.369,47.047l-8.917-4.351a.779.779,0,0,0-1.083.737l-.83,13.693a.776.776,0,0,0,1.276.721l9.749-9.341A.925.925,0,0,0-1228.369,47.047Z" transform="translate(1239.2 -28.068)" fill="#fd3632"/>
    </g>
    <g id="Grupo_55288" data-name="Grupo 55288" transform="translate(-1199.881 66.94)">
      <path id="Trazado_104906" data-name="Trazado 104906" d="M-1180.073,85.354a18.638,18.638,0,0,0,4.384,3.1,35.96,35.96,0,0,1-7.806,7.171l-.945,2.215-3.2-3.711S-1182.051,91.232-1180.073,85.354Z" transform="translate(1246.156 -35.893)" fill="url(#linear-gradient-65)"/>
      <path id="Trazado_104907" data-name="Trazado 104907" d="M-1192.695,132.717a.8.8,0,0,1,.018-.2c.951-4.047,5.958-6.639,5.958-6.639l2,.125a13.854,13.854,0,0,1,.924,6.688.463.463,0,0,1-.019.08A47.481,47.481,0,0,1-1192.695,132.717Z" transform="translate(1243.128 -11.624)" fill="url(#linear-gradient-66)"/>
      <path id="Trazado_104908" data-name="Trazado 104908" d="M-1183.811,130.2a.868.868,0,0,1-.624.652,27.472,27.472,0,0,1-7.644.014.729.729,0,0,1-.616-.716A47.483,47.483,0,0,0-1183.811,130.2Z" transform="translate(1243.128 -9.061)" fill="url(#linear-gradient-67)"/>
      <path id="Trazado_104909" data-name="Trazado 104909" d="M-1185.979,124.08l-.782,4.09a.666.666,0,0,1-.561.558,5.589,5.589,0,0,1-1.313,0,.838.838,0,0,1-.68-.974l.531-3.63Z" transform="translate(1245.147 -12.698)" fill="url(#linear-gradient-68)"/>
      <path id="Trazado_104910" data-name="Trazado 104910" d="M-1194.7,130.57a11.944,11.944,0,0,0,3.933-.627c0,.221.006.443,0,.675a.436.436,0,0,1-.409.451l-12.128.117a.555.555,0,0,1-.459-.8A90.48,90.48,0,0,0-1194.7,130.57Z" transform="translate(1236.471 -9.187)" fill="url(#linear-gradient-69)"/>
      <path id="Trazado_104911" data-name="Trazado 104911" d="M-1203.776,132.517a.691.691,0,0,1,.047-.091,15.459,15.459,0,0,1,9.1-5.918l2.584-.123a12.4,12.4,0,0,1,1.266,5.689,11.943,11.943,0,0,1-3.933.627A90.469,90.469,0,0,1-1203.776,132.517Z" transform="translate(1236.491 -11.318)" fill="url(#linear-gradient-70)"/>
      <path id="Trazado_104912" data-name="Trazado 104912" d="M-1194.922,124.145c-.026.192-.333,3.128-.452,4.266a.56.56,0,0,1-.465.515,5.876,5.876,0,0,1-1.778,0,.765.765,0,0,1-.592-.758l-.073-4.6Z" transform="translate(1239.781 -13.003)" fill="url(#linear-gradient-71)"/>
      <path id="Trazado_104913" data-name="Trazado 104913" d="M-1193.435,90.558a230.242,230.242,0,0,0-5.262,53.626,1.153,1.153,0,0,0,.934,1.11,13.331,13.331,0,0,0,2.9.288,1.069,1.069,0,0,0,1.006-.91c.792-5.142,5.345-34.114,8.129-38.85,0,0,2.3,25.7,1.909,39.059a.633.633,0,0,0,.569.649,10.649,10.649,0,0,0,2.32-.045.846.846,0,0,0,.744-.731c.553-4.349,3.722-30.241,3.27-48.85-.025-1.049-2.867-5.568-2.867-5.568Z" transform="translate(1239.507 -32.909)" fill="url(#linear-gradient-72)"/>
      <path id="Trazado_104914" data-name="Trazado 104914" d="M-1201.136,75.86a25.935,25.935,0,0,0,2.576-4.073c1-1.973.1,1.266.352-.948,7.667-5.724,19.394-3.078,23.922-2.582a6.034,6.034,0,0,1,3.846,1.986c3.944,4.42,12.638,16.549,2.836,29.072a18.641,18.641,0,0,1-4.384-3.1c1.057-3.137,1.083-7.125-1.314-11.975a11.426,11.426,0,0,1-.278,1.153,71.161,71.161,0,0,0-3.028,20.547.644.644,0,0,1-.393.606c-4.178,1.752-12.291.879-15.016.518a.915.915,0,0,1-.782-1.025c1.178-9.685-5.922-25.473-7.795-29.426A2.69,2.69,0,0,0-1201.136,75.86Z" transform="translate(1238.072 -46.758)" fill="url(#linear-gradient-73)"/>
      <path id="Trazado_104915" data-name="Trazado 104915" d="M-1186.306,62.909l.945,8.27s-4.637,1.479-8.064-.859l2.261-7.565Z" transform="translate(1242.69 -49.429)" fill="url(#linear-gradient-74)"/>
      <g id="Grupo_55286" data-name="Grupo 55286" transform="translate(44.83)">
        <path id="Trazado_104916" data-name="Trazado 104916" d="M-1190.732,57.138c-.11.107-4.584,9.255-4.584,9.255l5.277,2.445,5.529-8.041S-1188.883,55.341-1190.732,57.138Z" transform="translate(1196.728 -53.011)" fill="url(#linear-gradient-75)"/>
        <path id="Trazado_104917" data-name="Trazado 104917" d="M-1186.3,62.464a.833.833,0,0,1-.051.736l-2.541,4.4a.777.777,0,0,1-.141.181,1.371,1.371,0,0,1-2.2.021,7.375,7.375,0,0,0-2.1-2.2.836.836,0,0,0-1.121.39,30.992,30.992,0,0,0-1.719,4.269.83.83,0,0,0,.5,1.011,23.176,23.176,0,0,0,5.038,1.383.835.835,0,0,0,.785-.349c.782-1.11,2.989-4.208,3.745-4.987.7-.724,2.029-.476,2.626-.315a.843.843,0,0,0,.667-.1,1.84,1.84,0,0,0,.648-2.811.835.835,0,0,1,.24-1.14,1.849,1.849,0,0,0,.667-2.633,2.608,2.608,0,0,0-2.845-1.337.864.864,0,0,1-.918-.491.553.553,0,0,0-.437-.333.81.81,0,0,1-.672-.942,2.14,2.14,0,0,0-1.234-2.432c-2.28-1.206-4.226.851-4.7,2.568s2.071,2.883,3.663,3.059C-1187.224,60.539-1186.562,61.8-1186.3,62.464Z" transform="translate(1196.199 -54.421)" fill="url(#linear-gradient-76)"/>
        <path id="Trazado_104918" data-name="Trazado 104918" d="M-1190.477,64.571s.958-2.956,2.245-2.87,2.322,1.353.75,2.819C-1189.436,66.342-1190.477,64.571-1190.477,64.571Z" transform="translate(1199.626 -50.062)" fill="url(#linear-gradient-77)"/>
      </g>
      <path id="Trazado_104919" data-name="Trazado 104919" d="M-1183.3,81.251a26.183,26.183,0,0,0,.906-10.315l-.465.061a25.717,25.717,0,0,1-.886,10.1Z" transform="translate(1248.486 -44.529)" fill="url(#linear-gradient-78)"/>
      <path id="Trazado_104920" data-name="Trazado 104920" d="M-1190.378,101.476a.235.235,0,0,0,.224-.181c.486-2,4.323-4.256,4.362-4.279a.237.237,0,0,0,.084-.323.234.234,0,0,0-.321-.085c-.165.1-4.05,2.379-4.581,4.576a.236.236,0,0,0,.173.285A.25.25,0,0,0-1190.378,101.476Z" transform="translate(1244.373 -29.171)" fill="url(#linear-gradient-79)"/>
      <g id="Grupo_55287" data-name="Grupo 55287" transform="translate(8.694 21.163)">
        <path id="Trazado_104921" data-name="Trazado 104921" d="M-1210.542,78.455c8.8,1.175,14.424-4.453,18.632-7.88,5.555-4.525,9.966-2.438,9.966-2.438l-5.815,11.548c-8.823,8.593-18.041,6.864-23.876,4.22A11.143,11.143,0,0,1-1210.542,78.455Z" transform="translate(1223.079 -67.657)" fill="url(#linear-gradient-80)"/>
        <path id="Trazado_104922" data-name="Trazado 104922" d="M-1218.678,71.261l2.934,1.517a25.447,25.447,0,0,0,9.482,3.518,11.143,11.143,0,0,0-1.092,5.449,26.835,26.835,0,0,1-6.061-3.737C-1220.069,74.184-1218.678,71.261-1218.678,71.261Z" transform="translate(1218.799 -65.498)" fill="url(#linear-gradient-81)"/>
      </g>
      <path id="Trazado_104923" data-name="Trazado 104923" d="M-1223.927,76.575a2.145,2.145,0,0,1,1.233-1.393l5.866-2.47s.077-.758-1.268-1.252a1.778,1.778,0,0,1-1.057-2s1.84.8,4.535,2.083a6.259,6.259,0,0,1,2.892,3.048l-1.489,2.024a27.026,27.026,0,0,1-11.022,1.046Z" transform="translate(1224.236 -45.411)" fill="url(#linear-gradient-82)"/>
    </g>
    <g id="Grupo_55289" data-name="Grupo 55289" transform="translate(-1190.844 47.259)">
      <path id="Trazado_104924" data-name="Trazado 104924" d="M-1198.328,52.176l6.125,6.509V49.918Z" transform="translate(1230.717 -37.438)" fill="url(#linear-gradient-83)"/>
      <path id="Trazado_104925" data-name="Trazado 104925" d="M-1181.808,57.388l-35.225-1.844a1.675,1.675,0,0,1-1.551-1.7V43.821a1.669,1.669,0,0,1,1.671-1.708l35.225.852a1.675,1.675,0,0,1,1.6,1.708V55.682A1.668,1.668,0,0,1-1181.808,57.388Z" transform="translate(1218.584 -42.113)" fill="url(#linear-gradient-84)"/>
      <path id="Trazado_104926" data-name="Trazado 104926" d="M-1182.892,56.155l-33.932-1.639A1.542,1.542,0,0,1-1218.318,53V44.087a1.548,1.548,0,0,1,1.61-1.517l33.932.758a1.546,1.546,0,0,1,1.536,1.519V54.64A1.549,1.549,0,0,1-1182.892,56.155Z" transform="translate(1218.743 -41.84)" fill="#7dc8f4"/>
    </g>
    <g id="Grupo_55290" data-name="Grupo 55290" transform="translate(-1246.235 72.682)">
      <path id="Trazado_104927" data-name="Trazado 104927" d="M-1217.621,65.329a.363.363,0,0,0-.672.072c-.326,1.174-1.116,3.223-2.774,3.951-.083.037-.162.074-.238.112a.842.842,0,0,1,.1-.763c.515-.787-.416-1.863-.416-1.863a2.4,2.4,0,0,1-.78,1.543,2.306,2.306,0,0,0-.494,2.6c.9,3.484,2.24,8.091-2.992,11.457s-12.6-6.353-12.6-6.353l3.657,11.592s5.644,4.165,12.21-1.692S-1220.4,71.6-1220.4,71.6-1215.4,69.582-1217.621,65.329Z" transform="translate(1262.057 -53.747)" fill="url(#linear-gradient-85)"/>
      <path id="Trazado_104928" data-name="Trazado 104928" d="M-1230.569,63.314s1.516-6.8-6.271-5c0,0-3.78-.617-3.972,2.95,0,0-2.437,1.605-.654,4.695,0,0-7.242-2.8-10.4,3.55s-.254,9.84,2.785,10.75a3.028,3.028,0,0,0-1.3,4.029c1.166,2.792,7.071,4.762,10.558,1.366,0,0,9.926,1.311,9.726-5.7,0,0,4.618-2.98-.232-8.773S-1230.569,63.314-1230.569,63.314Z" transform="translate(1253.226 -58.012)" fill="url(#linear-gradient-86)"/>
      <path id="Trazado_104929" data-name="Trazado 104929" d="M-1234.547,71.34A10.686,10.686,0,0,0-1245,74a2.684,2.684,0,0,0-.772,2.675c1.164,4.285,4.234,16.947,1.542,22.425,0,0,4.745,5.232,9.923,1.015,0,0,2.323-10.125,5.366-14.57,2.1-3.068-3.35-11.522-4.729-13.566A1.614,1.614,0,0,0-1234.547,71.34Z" transform="translate(1257.634 -50.28)" fill="url(#linear-gradient-87)"/>
      <path id="Trazado_104930" data-name="Trazado 104930" d="M-1240.557,65.859s-2.315,6.546-2.49,9.434a4.948,4.948,0,0,0,4.968-.8,73,73,0,0,1,.619-7.71Z" transform="translate(1259.323 -53.313)" fill="url(#linear-gradient-88)"/>
      <path id="Trazado_104931" data-name="Trazado 104931" d="M-1237.2,60.3s6.054,8.471,2.435,10.932-7.928-3.559-7.928-3.559-1.405-4.637.064-6.21S-1237.2,60.3-1237.2,60.3Z" transform="translate(1259.176 -56.674)" fill="url(#linear-gradient-89)"/>
      <path id="Trazado_104932" data-name="Trazado 104932" d="M-1239.367,59.053s2.781.659,3.171,1.917-3.945,2.424-5.158,2.482l-.979,5.077s-2.891-4.776-1.746-7.534S-1239.367,59.053-1239.367,59.053Z" transform="translate(1258.545 -57.457)" fill="url(#linear-gradient-90)"/>
      <path id="Trazado_104933" data-name="Trazado 104933" d="M-1240.881,65.079s-2.357-2.729-3.294-.95,2.12,3.113,3.181,2.24Z" transform="translate(1258.542 -54.709)" fill="url(#linear-gradient-91)"/>
      <path id="Trazado_104934" data-name="Trazado 104934" d="M-1227.879,102.477c-.018.459.79,4.1,1.228,6.049a3.2,3.2,0,0,1-.344,2.3l-15.209,25.6a3.44,3.44,0,0,0-.4.995,21.924,21.924,0,0,0-.555,6.824l.787,1.634-3.4-.772-.74-9.138.963-.588a4.577,4.577,0,0,0,1.851-2.167c1.375-3.342,4.791-11.845,5.67-15.99,1-4.709,6.231-8.535,6.231-8.535l-.918-2.171Z" transform="translate(1257.246 -31.38)" fill="url(#linear-gradient-92)"/>
      <path id="Trazado_104935" data-name="Trazado 104935" d="M-1248.418,129.676a20.742,20.742,0,0,0,2.054-4.047c.216-1.134.819-3.137,1.951-2.534a66.562,66.562,0,0,1,.35,7.662c-.184,2.152,2.433,2.083,2.433,2.083a2.438,2.438,0,0,1,1.249.628.613.613,0,0,1-.411,1.031,14.83,14.83,0,0,1-3.646-.206,1.115,1.115,0,0,1-.9-1.03l-.377-6.34-2.318,2.928Z" transform="translate(1256.106 -19.097)" fill="url(#linear-gradient-93)"/>
      <path id="Trazado_104936" data-name="Trazado 104936" d="M-1237.711,105.258s-.537,22.9-.609,26.149.513,10.459,3.774,12.613l-1.418,1.051a18.929,18.929,0,0,1-3.5-4.407,26.747,26.747,0,0,0-2.535-3.852l.646-1.322a2.922,2.922,0,0,0,.235-1.866c-.7-3.409-3.054-14.75-3.7-17.192a11,11,0,0,1,1.823-9.957C-1240.363,103.253-1237.711,105.258-1237.711,105.258Z" transform="translate(1257.992 -30.084)" fill="url(#linear-gradient-94)"/>
      <path id="Trazado_104937" data-name="Trazado 104937" d="M-1241.662,134.258a.2.2,0,0,1-.2-.173,29.486,29.486,0,0,0-.931-4.616c-.422-.907-1.805-4.727,0-5.051,0,0,4.492,6.564,5.355,7.448a1.691,1.691,0,0,0,1.951.309,3.254,3.254,0,0,1,1.473,1.059.6.6,0,0,1-.469.956l-3.025.029a2.129,2.129,0,0,1-2-1.342,11.38,11.38,0,0,0-2.514-4.148l.553,5.305A.2.2,0,0,1-1241.662,134.258Z" transform="translate(1258.933 -18.238)" fill="url(#linear-gradient-95)"/>
      <path id="Trazado_104938" data-name="Trazado 104938" d="M-1232.271,88.2a10.749,10.749,0,0,0,.366,5.753l6.5,22.691a.7.7,0,0,1-.439.855,43.371,43.371,0,0,1-17.056,2.067.99.99,0,0,1-.9-.771c-.574-2.587-2.536-11.413-2.939-13.227-1.538-6.911-3.257-14.363,4.3-18.869C-1238.961,88.193-1235.713,89.072-1232.271,88.2Z" transform="translate(1256.31 -40.829)" fill="url(#linear-gradient-96)"/>
      <path id="Trazado_104939" data-name="Trazado 104939" d="M-1242.19,73.584s-7.394,6.145-9.228,14.541,10.8,9.288,10.8,9.288,1.716-1.916,3.753-1.233.156-3.343-2.226-3.334-1.279,1.895-4.651.368c-3.284-1.487-5.313-6.089,3.065-13.062a3.792,3.792,0,0,0,1.107-1.508C-1237.938,74.546-1239.229,71.86-1242.19,73.584Z" transform="translate(1254.201 -49.004)" fill="url(#linear-gradient-97)"/>
    </g>
    <g id="Grupo_55291" data-name="Grupo 55291" transform="translate(-1262.016 100.973)">
      <path id="Trazado_104940" data-name="Trazado 104940" d="M-1263.1,75.81c2.456,46.375,33.29,67.444,70.549,57.7l-1.4-5.488c-41.005,8.927-63.71-14.76-67.433-51.328a1.107,1.107,0,0,0-1.324-.966Z" transform="translate(1263.096 -75.706)" fill="url(#linear-gradient-98)"/>
      <path id="Trazado_104941" data-name="Trazado 104941" d="M-1223.356,108.892l4.763,9.015a.812.812,0,0,0,1.318.17l8.673-9.45a.813.813,0,0,0-.625-1.362l-13.436.435A.813.813,0,0,0-1223.356,108.892Z" transform="translate(1286.842 -56.804)" fill="url(#linear-gradient-99)"/>
    </g>
  </g>
</svg>
