<svg xmlns="http://www.w3.org/2000/svg" xmlns:xlink="http://www.w3.org/1999/xlink" width="81.561" height="64.979" viewBox="0 0 81.561 64.979">
  <defs>
    <linearGradient id="linear-gradient" x1="0.596" y1="-0.318" x2="0.446" y2="0.782" gradientUnits="objectBoundingBox">
      <stop offset="0" stop-color="#000c5d"/>
      <stop offset="1" stop-color="#0f2291"/>
    </linearGradient>
    <linearGradient id="linear-gradient-2" x1="0.929" y1="0.092" x2="0.074" y2="0.883" gradientUnits="objectBoundingBox">
      <stop offset="0" stop-color="#4067e2"/>
      <stop offset="1" stop-color="#4f7aff"/>
    </linearGradient>
    <linearGradient id="linear-gradient-3" y1="0.5" x2="1" y2="0.5" gradientUnits="objectBoundingBox">
      <stop offset="0" stop-color="#daf2fe"/>
      <stop offset="1" stop-color="#e9f7fd"/>
    </linearGradient>
    <linearGradient id="linear-gradient-4" x1="-72.615" y1="0.5" x2="-71.615" y2="0.5" xlink:href="#linear-gradient"/>
    <linearGradient id="linear-gradient-5" x1="-179.033" y1="0.5" x2="-178.033" y2="0.5" gradientUnits="objectBoundingBox">
      <stop offset="0" stop-color="#ffb78e"/>
      <stop offset="1" stop-color="#fecfb1"/>
    </linearGradient>
    <linearGradient id="linear-gradient-6" x1="-46.28" y1="0.5" x2="-45.28" y2="0.5" xlink:href="#linear-gradient"/>
    <linearGradient id="linear-gradient-7" x1="-180.049" y1="0.5" x2="-179.049" y2="0.5" xlink:href="#linear-gradient-5"/>
    <linearGradient id="linear-gradient-8" x1="1.176" y1="-1.152" x2="0.928" y2="-0.529" xlink:href="#linear-gradient"/>
    <linearGradient id="linear-gradient-9" x1="1.272" y1="-1.975" x2="2.617" y2="-6.288" xlink:href="#linear-gradient"/>
    <linearGradient id="linear-gradient-10" x1="0.215" y1="1.756" x2="-0.28" y2="4.244" gradientUnits="objectBoundingBox">
      <stop offset="0" stop-color="#e11d2c"/>
      <stop offset="1" stop-color="#e93850"/>
    </linearGradient>
    <linearGradient id="linear-gradient-11" x1="-48.443" y1="0.5" x2="-47.443" y2="0.5" xlink:href="#linear-gradient-5"/>
    <linearGradient id="linear-gradient-12" x1="0.224" y1="0.105" x2="1.16" y2="2.049" gradientUnits="objectBoundingBox">
      <stop offset="0" stop-color="#fe3332"/>
      <stop offset="1" stop-color="#ffb78e"/>
    </linearGradient>
    <linearGradient id="linear-gradient-13" x1="-49.371" y1="-1.615" x2="-51.655" y2="1.548" xlink:href="#linear-gradient-5"/>
    <linearGradient id="linear-gradient-14" x1="-40.103" y1="-2.795" x2="-41.943" y2="5.663" xlink:href="#linear-gradient-5"/>
    <linearGradient id="linear-gradient-15" x1="-59.639" y1="-1.143" x2="-62.288" y2="2.815" xlink:href="#linear-gradient-5"/>
    <linearGradient id="linear-gradient-16" x1="-122.988" y1="111.887" x2="-124.206" y2="113.183" xlink:href="#linear-gradient-5"/>
    <linearGradient id="linear-gradient-17" x1="-260.408" y1="-0.451" x2="-260.311" y2="2.181" xlink:href="#linear-gradient"/>
    <linearGradient id="linear-gradient-18" x1="-344.652" y1="353.753" x2="-341.95" y2="351.215" xlink:href="#linear-gradient-5"/>
    <linearGradient id="linear-gradient-20" x1="-56.386" y1="0.231" x2="-59.223" y2="6.619" xlink:href="#linear-gradient"/>
    <linearGradient id="linear-gradient-21" x1="-231.906" y1="1.832" x2="-230.898" y2="1.832" xlink:href="#linear-gradient-5"/>
    <linearGradient id="linear-gradient-22" x1="-71.089" y1="0.122" x2="-74.105" y2="0.977" xlink:href="#linear-gradient-10"/>
    <linearGradient id="linear-gradient-23" x1="-144.862" y1="-1.353" x2="-151.882" y2="6.211" xlink:href="#linear-gradient"/>
    <linearGradient id="linear-gradient-24" x1="-278.963" y1="1.543" x2="-277.949" y2="1.543" xlink:href="#linear-gradient-5"/>
    <linearGradient id="linear-gradient-25" x1="-48.041" y1="0.053" x2="-50.059" y2="0.895" xlink:href="#linear-gradient-10"/>
    <linearGradient id="linear-gradient-26" x1="0.664" y1="0.005" x2="0.06" y2="2.053" xlink:href="#linear-gradient-12"/>
    <linearGradient id="linear-gradient-27" x1="-81.035" y1="-54.206" x2="-79.761" y2="-52.426" xlink:href="#linear-gradient-5"/>
    <linearGradient id="linear-gradient-28" x1="-64.47" y1="20.223" x2="-60.686" y2="23.877" xlink:href="#linear-gradient-5"/>
    <linearGradient id="linear-gradient-29" x1="4.108" y1="-4.984" x2="-2.085" y2="4.187" xlink:href="#linear-gradient-5"/>
    <linearGradient id="linear-gradient-30" x1="0.698" y1="0.045" x2="-0.82" y2="5.26" xlink:href="#linear-gradient-12"/>
    <linearGradient id="linear-gradient-31" x1="-36.99" y1="0.924" x2="-35.988" y2="0.924" xlink:href="#linear-gradient-5"/>
    <linearGradient id="linear-gradient-32" x1="0.384" y1="-0.355" x2="0.72" y2="1.97" xlink:href="#linear-gradient-5"/>
    <linearGradient id="linear-gradient-33" x1="-230.748" y1="-52.589" x2="-231.454" y2="-51.698" xlink:href="#linear-gradient-5"/>
    <linearGradient id="linear-gradient-34" x1="-197.535" y1="-11.363" x2="-197.33" y2="-10.18" xlink:href="#linear-gradient"/>
    <linearGradient id="linear-gradient-35" x1="-753.748" y1="-256.352" x2="-756.045" y2="-252.063" xlink:href="#linear-gradient-5"/>
    <linearGradient id="linear-gradient-36" x1="-35.304" y1="-0.062" x2="-34.791" y2="2.428" xlink:href="#linear-gradient"/>
    <linearGradient id="linear-gradient-37" x1="-124.943" y1="0.5" x2="-123.943" y2="0.5" xlink:href="#linear-gradient-5"/>
    <linearGradient id="linear-gradient-38" x1="0.734" y1="-26.815" x2="0.644" y2="-16.423" xlink:href="#linear-gradient"/>
    <linearGradient id="linear-gradient-39" x1="0.772" y1="-6.693" x2="0.499" y2="0.843" xlink:href="#linear-gradient-2"/>
    <linearGradient id="linear-gradient-40" x1="0" y1="0.5" x2="1" y2="0.5" xlink:href="#linear-gradient-5"/>
    <linearGradient id="linear-gradient-41" x1="0.739" y1="-2.035" x2="0.628" y2="-0.847" xlink:href="#linear-gradient"/>
    <linearGradient id="linear-gradient-42" x1="0.734" y1="-1.867" x2="0.424" y2="1.1" xlink:href="#linear-gradient-2"/>
    <linearGradient id="linear-gradient-43" x1="0.499" y1="0.212" x2="0.425" y2="1.259" xlink:href="#linear-gradient"/>
    <linearGradient id="linear-gradient-45" x1="0.964" y1="0.704" x2="0.31" y2="0.204" xlink:href="#linear-gradient"/>
    <linearGradient id="linear-gradient-46" x1="0.865" y1="-0.157" x2="-0.116" y2="1.681" xlink:href="#linear-gradient-5"/>
    <linearGradient id="linear-gradient-47" x1="0.311" y1="0.465" x2="0.881" y2="1.703" xlink:href="#linear-gradient-12"/>
    <linearGradient id="linear-gradient-49" x1="32.976" y1="15.18" x2="33.366" y2="16.319" xlink:href="#linear-gradient-5"/>
    <linearGradient id="linear-gradient-50" x1="30.754" y1="22.631" x2="31.523" y2="23.525" xlink:href="#linear-gradient"/>
    <linearGradient id="linear-gradient-51" x1="134.002" y1="51.509" x2="135.604" y2="55.469" xlink:href="#linear-gradient-5"/>
    <linearGradient id="linear-gradient-52" x1="-109.317" y1="-1011.898" x2="-110.547" y2="-997.564" gradientUnits="objectBoundingBox">
      <stop offset="0" stop-color="#2b4f82"/>
      <stop offset="1" stop-color="#0e1342"/>
    </linearGradient>
    <linearGradient id="linear-gradient-53" x1="-164.171" y1="-152.25" x2="-166.797" y2="-150.951" xlink:href="#linear-gradient-52"/>
    <linearGradient id="linear-gradient-54" x1="0.518" y1="0.895" x2="0.538" y2="1.708" xlink:href="#linear-gradient-5"/>
    <linearGradient id="linear-gradient-55" x1="0.532" y1="0.006" x2="0.328" y2="3.202" xlink:href="#linear-gradient-2"/>
    <linearGradient id="linear-gradient-57" x1="0.567" y1="0.037" x2="0.176" y2="3.145" xlink:href="#linear-gradient-12"/>
    <linearGradient id="linear-gradient-58" x1="0.554" y1="-2.158" x2="0.395" y2="6.275" xlink:href="#linear-gradient-2"/>
    <linearGradient id="linear-gradient-59" x1="-94.576" y1="-0.099" x2="-95.731" y2="1.076" xlink:href="#linear-gradient"/>
    <linearGradient id="linear-gradient-60" x1="0.388" y1="1.04" x2="-0.124" y2="2.891" xlink:href="#linear-gradient-12"/>
    <linearGradient id="linear-gradient-61" x1="0.183" y1="-0.437" x2="1.075" y2="2.302" xlink:href="#linear-gradient-5"/>
    <linearGradient id="linear-gradient-62" x1="0.644" y1="-4.984" x2="0.583" y2="-2.613" xlink:href="#linear-gradient-5"/>
    <linearGradient id="linear-gradient-63" x1="-34.755" y1="-2.965" x2="-33.453" y2="-2.185" xlink:href="#linear-gradient-5"/>
    <linearGradient id="linear-gradient-64" x1="-235.937" y1="-2.941" x2="-239.012" y2="0.125" xlink:href="#linear-gradient"/>
    <linearGradient id="linear-gradient-65" x1="-86.056" y1="-204.432" x2="-82.14" y2="-201.108" xlink:href="#linear-gradient-5"/>
    <linearGradient id="linear-gradient-66" x1="-0.321" y1="49.213" x2="-1.06" y2="51.65" xlink:href="#linear-gradient"/>
    <linearGradient id="linear-gradient-67" x1="0.118" y1="1.22" x2="0.499" y2="0.524" xlink:href="#linear-gradient"/>
    <linearGradient id="linear-gradient-68" x1="-423.514" y1="-12.545" x2="-423.545" y2="-10.173" xlink:href="#linear-gradient"/>
    <linearGradient id="linear-gradient-69" x1="-1335.052" y1="1.164" x2="-1335.314" y2="-0.58" xlink:href="#linear-gradient-5"/>
    <linearGradient id="linear-gradient-70" x1="-763.327" y1="-12.506" x2="-763.382" y2="-10.272" xlink:href="#linear-gradient"/>
    <linearGradient id="linear-gradient-71" x1="-1497.565" y1="1.13" x2="-1497.85" y2="-0.791" xlink:href="#linear-gradient-5"/>
    <linearGradient id="linear-gradient-72" x1="0.915" y1="0.008" x2="0.357" y2="1.115" xlink:href="#linear-gradient"/>
    <linearGradient id="linear-gradient-73" x1="-6485.171" y1="2.369" x2="-6483.79" y2="1.878" xlink:href="#linear-gradient-2"/>
    <linearGradient id="linear-gradient-74" x1="-161.042" y1="0.571" x2="-161.635" y2="2.042" xlink:href="#linear-gradient-12"/>
    <linearGradient id="linear-gradient-75" x1="-2762.26" y1="-58.162" x2="-2765.364" y2="-55.324" xlink:href="#linear-gradient-5"/>
    <linearGradient id="linear-gradient-76" x1="-373.273" y1="0.5" x2="-372.273" y2="0.5" xlink:href="#linear-gradient-5"/>
    <linearGradient id="linear-gradient-77" x1="-198.434" y1="0.5" x2="-197.434" y2="0.5" xlink:href="#linear-gradient-5"/>
    <linearGradient id="linear-gradient-78" x1="0.202" y1="-0.385" x2="0.73" y2="1.496" xlink:href="#linear-gradient-5"/>
    <linearGradient id="linear-gradient-79" x1="-604.168" y1="0.175" x2="-605.485" y2="1.493" xlink:href="#linear-gradient-5"/>
    <linearGradient id="linear-gradient-80" x1="-384.504" y1="0.5" x2="-383.504" y2="0.5" xlink:href="#linear-gradient"/>
    <linearGradient id="linear-gradient-81" x1="-1874.769" y1="2.763" x2="-1871.507" y2="0.44" xlink:href="#linear-gradient-5"/>
    <linearGradient id="linear-gradient-82" x1="-499.043" y1="-22.428" x2="-499.603" y2="-21.335" xlink:href="#linear-gradient-5"/>
    <linearGradient id="linear-gradient-83" x1="0.478" y1="1.191" x2="0.675" y2="-5.902" xlink:href="#linear-gradient-12"/>
    <linearGradient id="linear-gradient-85" x1="0.338" y1="0.228" x2="1.424" y2="1.312" xlink:href="#linear-gradient-3"/>
  </defs>
  <g id="Grupo_54985" data-name="Grupo 54985" transform="translate(-7168.175 -2926.211)">
    <g id="Grupo_54985-2" data-name="Grupo 54985" transform="translate(7168.175 2926.21)">
      <path id="Trazado_104067" data-name="Trazado 104067" d="M7171.622,2927.641l65.736-1.43c2.646-.058,4.771,2.865,4.613,6.346l-2.263,50.093c-.124,2.741-1.836,4.889-3.92,4.915l-63.188.8c-1.561.02-2.85-1.6-2.91-3.656l-1.511-52.281C7168.1,2929.847,7169.657,2927.684,7171.622,2927.641Z" transform="translate(-7168.176 -2926.21)" fill="url(#linear-gradient)"/>
      <path id="Trazado_104068" data-name="Trazado 104068" d="M7188.606,2948.5l64.02-1.361c2.578-.055,4.647,2.726,4.494,6.038l-2.2,47.658c-.121,2.608-1.788,4.651-3.818,4.677l-61.539.765c-1.52.019-2.775-1.522-2.834-3.478l-1.472-49.74C7185.18,2950.6,7186.693,2948.545,7188.606,2948.5Z" transform="translate(-7184.153 -2945.797)" fill="url(#linear-gradient-2)"/>
      <path id="Trazado_104069" data-name="Trazado 104069" d="M7209.563,2975l60.962-1.3c2.455-.052,4.425,2.6,4.279,5.75l-2.1,45.382c-.114,2.484-1.7,4.429-3.636,4.453l-58.6.729c-1.448.018-2.643-1.45-2.7-3.312l-1.4-47.364C7206.3,2977,7207.741,2975.042,7209.563,2975Z" transform="translate(-7203.912 -2970.654)" opacity="0.1" fill="url(#linear-gradient-3)"/>
      <path id="Trazado_104070" data-name="Trazado 104070" d="M7203.406,3076.444a.27.27,0,0,1,0-.524l69-.194h0a.27.27,0,0,1,0,.524l-69,.194Z" transform="translate(-7200.95 -3066.115)" fill="#bde9fb"/>
      <path id="Trazado_104071" data-name="Trazado 104071" d="M7460.725,3057.852a.237.237,0,0,1-.2-.258l-.587-53.234a.24.24,0,0,1,.2-.266h0a.237.237,0,0,1,.2.258l.587,53.234a.24.24,0,0,1-.2.266Z" transform="translate(-7441.179 -2999.088)" fill="#bde9fb"/>
      <path id="Trazado_104072" data-name="Trazado 104072" d="M7757.654,3042.085a.239.239,0,0,1-.2-.262v-54.317a.21.21,0,1,1,.407,0v54.317A.238.238,0,0,1,7757.654,3042.085Z" transform="translate(-7719.569 -2983.32)" fill="#bde9fb"/>
      <path id="Trazado_104073" data-name="Trazado 104073" d="M8037.863,3042.084a.237.237,0,0,1-.2-.259l-.521-54.318a.24.24,0,0,1,.2-.265.236.236,0,0,1,.206.259l.521,54.317a.241.241,0,0,1-.2.265Z" transform="translate(-7981.277 -2983.319)" fill="#bde9fb"/>
      <path id="Trazado_104074" data-name="Trazado 104074" d="M7232.675,3021.988h0c0,.709.2,1.284.453,1.284h11.055c.25,0,.453-.575.453-1.284h0c0-.709-.2-1.283-.453-1.283h-11.055C7232.877,3020.7,7232.675,3021.279,7232.675,3021.988Z" transform="translate(-7228.529 -3014.63)" fill="#91defa"/>
      <path id="Trazado_104075" data-name="Trazado 104075" d="M7496.645,3021.988h0c0,.709.248,1.284.554,1.284h13.51c.306,0,.554-.575.554-1.284h0c0-.709-.248-1.283-.554-1.283H7497.2C7496.893,3020.7,7496.645,3021.279,7496.645,3021.988Z" transform="translate(-7475.529 -3014.63)" fill="#fff" opacity="0.6"/>
      <path id="Trazado_104076" data-name="Trazado 104076" d="M7789.138,3019.019h0c0,.708.257,1.283.575,1.283h14.034c.317,0,.574-.575.574-1.283h0c0-.709-.257-1.284-.574-1.284h-14.034C7789.4,3017.735,7789.138,3018.31,7789.138,3019.019Z" transform="translate(-7749.219 -3011.852)" fill="#91defa"/>
      <path id="Trazado_104077" data-name="Trazado 104077" d="M8075.416,3019.019h0c0,.708.2,1.283.453,1.283h11.055c.25,0,.453-.575.453-1.283h0c0-.709-.2-1.284-.453-1.284h-11.055C8075.618,3017.735,8075.416,3018.31,8075.416,3019.019Z" transform="translate(-8017.093 -3011.852)" fill="#91defa"/>
    </g>
    <g id="Grupo_54990" data-name="Grupo 54990" transform="translate(7172.932 2943.581)">
      <g id="Grupo_54986" data-name="Grupo 54986" transform="translate(0 25.521)">
        <path id="Trazado_104078" data-name="Trazado 104078" d="M7437.837,3615.509a.32.32,0,0,1-.327-.2l-5.15-21.618c-.03-.128.091-.249.271-.27a.338.338,0,0,1,.382.192l5.151,21.617c.03.128-.091.249-.271.27A.478.478,0,0,1,7437.837,3615.509Z" transform="translate(-7420.129 -3593.423)" fill="#7dc5f4"/>
        <path id="Trazado_104079" data-name="Trazado 104079" d="M7242.5,3619.6a.426.426,0,0,1-.065,0c-.18-.026-.3-.149-.259-.276l6.072-21.336a.344.344,0,0,1,.39-.184c.179.026.3.149.26.276l-6.072,21.336A.324.324,0,0,1,7242.5,3619.6Z" transform="translate(-7242.165 -3597.513)" fill="#7dc5f4"/>
        <path id="Trazado_104080" data-name="Trazado 104080" d="M7323.551,3673.953h-8.8c-.183,0-.331-.1-.331-.234s.148-.235.331-.235h8.8c.183,0,.332.1.332.235S7323.734,3673.953,7323.551,3673.953Z" transform="translate(-7309.773 -3668.337)" fill="#7dc5f4"/>
        <path id="Trazado_104081" data-name="Trazado 104081" d="M7325.892,3673.953h-8.481c-.177,0-.32-.1-.32-.234s.143-.235.32-.235h8.481c.177,0,.32.1.32.235S7326.069,3673.953,7325.892,3673.953Z" transform="translate(-7312.274 -3668.337)" fill="#7dc5f4"/>
        <path id="Trazado_104082" data-name="Trazado 104082" d="M7323.551,3734.756h-8.8c-.183,0-.331-.1-.331-.235s.148-.234.331-.234h8.8c.183,0,.332.1.332.234S7323.734,3734.756,7323.551,3734.756Z" transform="translate(-7309.773 -3725.231)" fill="#7dc5f4"/>
        <path id="Trazado_104083" data-name="Trazado 104083" d="M7308.776,3734.756H7298.1c-.183,0-.331-.1-.331-.235s.148-.234.331-.234h10.671c.183,0,.331.1.331.234S7308.959,3734.756,7308.776,3734.756Z" transform="translate(-7294.2 -3725.231)" fill="#7dc5f4"/>
        <path id="Trazado_104084" data-name="Trazado 104084" d="M7323.551,3795.56h-8.8c-.183,0-.331-.105-.331-.235s.148-.234.331-.234h8.8c.183,0,.332.1.332.234S7323.734,3795.56,7323.551,3795.56Z" transform="translate(-7309.773 -3782.126)" fill="#7dc5f4"/>
        <path id="Trazado_104085" data-name="Trazado 104085" d="M7294.034,3795.56h-12.773c-.183,0-.332-.105-.332-.235s.149-.234.332-.234h12.773c.183,0,.331.1.331.234S7294.217,3795.56,7294.034,3795.56Z" transform="translate(-7278.437 -3782.126)" fill="#7dc5f4"/>
        <path id="Trazado_104086" data-name="Trazado 104086" d="M7277.269,3856.362h-11.981c-.183,0-.332-.1-.332-.235s.149-.234.332-.234h11.981c.184,0,.332.1.332.234S7277.452,3856.362,7277.269,3856.362Z" transform="translate(-7263.491 -3839.02)" fill="#7dc5f4"/>
        <path id="Trazado_104087" data-name="Trazado 104087" d="M7279.912,3856.362h-14.624c-.183,0-.332-.1-.332-.235s.149-.234.332-.234h14.624c.183,0,.332.1.332.234S7280.094,3856.362,7279.912,3856.362Z" transform="translate(-7263.491 -3839.02)" fill="#7dc5f4"/>
      </g>
      <g id="Grupo_54988" data-name="Grupo 54988" transform="translate(5.186 6.377)">
        <path id="Trazado_104088" data-name="Trazado 104088" d="M7327.64,3710.251a2.957,2.957,0,0,0-.269,1.287.153.153,0,0,0,.152.164h1.681a.1.1,0,0,0,.094-.13,2.692,2.692,0,0,0-1.06-1.408Z" transform="translate(-7327.08 -3683.515)" fill="url(#linear-gradient-4)"/>
        <path id="Trazado_104089" data-name="Trazado 104089" d="M7330.42,3700.251l.1.8a.15.15,0,0,0,.131.132,1.336,1.336,0,0,0,.355,0,.246.246,0,0,0,.2-.244v-.769Z" transform="translate(-7329.934 -3674.157)" fill="url(#linear-gradient-5)"/>
        <path id="Trazado_104090" data-name="Trazado 104090" d="M7391.633,3710.164a2.347,2.347,0,0,0-.314,1.186.3.3,0,0,0,.3.291h2.609a.125.125,0,0,0,.072-.227,11.322,11.322,0,0,0-2.166-1.249Z" transform="translate(-7386.917 -3683.515)" fill="url(#linear-gradient-6)"/>
        <path id="Trazado_104091" data-name="Trazado 104091" d="M7392.036,3691.214l.2.984a.2.2,0,0,0,.24.16.731.731,0,0,0,.229-.1.232.232,0,0,0,.1-.238l-.21-1.192Z" transform="translate(-7387.587 -3665.426)" fill="url(#linear-gradient-7)"/>
        <path id="Trazado_104092" data-name="Trazado 104092" d="M7323.7,3483.959a2.827,2.827,0,0,0-.838,1.369c-.132.748.376,12.9.376,12.9a1.975,1.975,0,0,0,1.068-.1s.431-7.885.759-9.707c0,0,1.717,8.167,2.193,9.643a2.233,2.233,0,0,0,.9-.046s-.45-10.587-1.015-12.47Z" transform="translate(-7322.843 -3471.852)" fill="url(#linear-gradient-8)"/>
        <path id="Trazado_104093" data-name="Trazado 104093" d="M7342.207,3524.277a.079.079,0,0,1-.076-.059l-.292-1.119-.62-.4a.079.079,0,0,1,.085-.132l.646.415a.083.083,0,0,1,.034.046l.3,1.148a.078.078,0,0,1-.057.1Z" transform="translate(-7340.004 -3507.968)" fill="url(#linear-gradient-9)"/>
        <path id="Trazado_104094" data-name="Trazado 104094" d="M7389.923,3370.426c-2.966-.247-3.742.367-3.742.367l1.425,2.251a9.563,9.563,0,0,0,5-1.667,5.076,5.076,0,0,1-.836-1.248A3.931,3.931,0,0,1,7389.923,3370.426Z" transform="translate(-7382.11 -3365.338)" fill="url(#linear-gradient-10)"/>
        <path id="Trazado_104095" data-name="Trazado 104095" d="M7475.976,3305.75a.09.09,0,0,0-.172-.035l-.378.808a.839.839,0,0,0-.067.5l.132.47a.809.809,0,0,1-.166.646,5.65,5.65,0,0,1-2.143,1.667,5.058,5.058,0,0,0,.836,1.249,5.118,5.118,0,0,0,1.78-2.473.4.4,0,0,0,.281-.395Z" transform="translate(-7463.517 -3305.017)" fill="url(#linear-gradient-11)"/>
        <path id="Trazado_104096" data-name="Trazado 104096" d="M7340.066,3367.985a8.05,8.05,0,0,0-4.185-1.843,1.056,1.056,0,0,0-1.181.67c-.519,1.393-1.928,5.018-2.2,5.641-.225.511-.458,1.01-.607,1.323a.374.374,0,0,0,.175.5,27.356,27.356,0,0,0,3.419,1.2.242.242,0,0,0,.311-.233.757.757,0,0,1,.108-.39l2.677-4.461c1.668,1.85,3.129,2.02,4.252,1.615a8.453,8.453,0,0,1-.373-1.753C7340.8,3369.969,7340.066,3367.985,7340.066,3367.985Z" transform="translate(-7331.276 -3361.593)" fill="url(#linear-gradient-12)"/>
        <path id="Trazado_104097" data-name="Trazado 104097" d="M7499.6,3419.7l-.3-.4a3.308,3.308,0,0,1-2.442.71,8.519,8.519,0,0,0,.372,1.753A5.216,5.216,0,0,0,7499.6,3419.7Z" transform="translate(-7485.672 -3411.349)" fill="url(#linear-gradient-13)"/>
        <path id="Trazado_104098" data-name="Trazado 104098" d="M7533.807,3413.172l1.686.065,1.552-.867a4.571,4.571,0,0,0-1.483.146s-1.317-.2-1.674-.2c-.3,0-.254.425-.231.57,0,.029.008.047.008.047Z" transform="translate(-7520.091 -3404.815)" fill="url(#linear-gradient-14)"/>
        <path id="Trazado_104099" data-name="Trazado 104099" d="M7406.167,3334.244l-.889,2.171a3.563,3.563,0,0,0,1.845.64l.443-1.952Z" transform="translate(-7399.979 -3331.761)" fill="url(#linear-gradient-15)"/>
        <g id="Grupo_54987" data-name="Grupo 54987" transform="translate(5.48)">
          <path id="Trazado_104100" data-name="Trazado 104100" d="M7419.828,3309.366c.021.029.644,2.28.644,2.28l-1.293.329-.908-2.046S7419.486,3308.883,7419.828,3309.366Z" transform="translate(-7417.616 -3308.363)" fill="url(#linear-gradient-16)"/>
          <path id="Trazado_104101" data-name="Trazado 104101" d="M7409.229,3297.5l.394,1.114a.157.157,0,0,0,.021.04c.053.076.256.323.5.1a1.48,1.48,0,0,1,.607-.417.165.165,0,0,1,.188.118,7.188,7.188,0,0,1,.218,1.086.165.165,0,0,1-.134.178,5.328,5.328,0,0,1-1.235.1.166.166,0,0,1-.139-.1c-.124-.269-.5-1.086-.641-1.3s-.455-.193-.59-.181a.162.162,0,0,1-.122-.04.428.428,0,0,1-.026-.687.166.166,0,0,0,0-.238.429.429,0,0,1-.055-.637.6.6,0,0,1,.722-.173.165.165,0,0,0,.2-.073.131.131,0,0,1,.135-.063.163.163,0,0,0,.174-.167.492.492,0,0,1,.38-.514c.564-.176.917.37.952.777s-.589.563-.955.535c-.279-.021-.486.255-.569.389A.166.166,0,0,0,7409.229,3297.5Z" transform="translate(-7408.088 -3295.619)" fill="url(#linear-gradient-17)"/>
          <path id="Trazado_104102" data-name="Trazado 104102" d="M7413.045,3334.726s-.091-.707-.385-.742-.581.207-.288.6C7412.735,3335.082,7413.045,3334.726,7413.045,3334.726Z" transform="translate(-7411.982 -3331.514)" fill="url(#linear-gradient-18)"/>
        </g>
      </g>
      <g id="Grupo_54989" data-name="Grupo 54989" transform="translate(17.676 0)">
        <path id="Trazado_104103" data-name="Trazado 104103" d="M7517.425,3196.58l13.575-.155c.164,0,.3.426.294.954l-.029,12.747c0,.531-.139.955-.3.939l-13.5-.686c-.157-.015-.283-.427-.285-.935l-.047-11.905C7517.131,3197.013,7517.262,3196.583,7517.425,3196.58Z" transform="translate(-7517.134 -3196.425)" fill="#91defa"/>
        <path id="Trazado_104104" data-name="Trazado 104104" d="M7534.41,3222.308l-13.5-.686c-.049,0-.053-.09-.053-.116l-.048-11.905a.241.241,0,0,1,.01-.072q.014-.047.047-.048l13.576-.155c.016,0,.036.008.048.047a.257.257,0,0,1,.009.072l-.03,12.746C7534.467,3222.219,7534.462,3222.308,7534.41,3222.308Zm-13.487-.745,13.476.685a.181.181,0,0,0,.008-.057l.03-12.746a.212.212,0,0,0-.006-.054.01.01,0,0,0,0,0l-13.553.155a.037.037,0,0,1,0,.005.159.159,0,0,0-.006.054l.047,11.905A.167.167,0,0,0,7520.923,3221.563Z" transform="translate(-7520.571 -3208.497)" fill="url(#linear-gradient-3)"/>
      </g>
    </g>
    <g id="Grupo_55019" data-name="Grupo 55019" transform="translate(7201.092 2958.612)">
      <g id="Grupo_54996" data-name="Grupo 54996" transform="translate(8.422 0)">
        <path id="Trazado_104105" data-name="Trazado 104105" d="M7912.918,3887.2s.114.614.173,1.222a.419.419,0,0,1-.4.458c-.81.042-2.543.123-3.166.1a.136.136,0,0,1-.122-.186h0a.3.3,0,0,1,.155-.166l2.851-1.344Z" transform="translate(-7903.087 -3857.821)" fill="url(#linear-gradient-20)"/>
        <path id="Trazado_104106" data-name="Trazado 104106" d="M7952.023,3880.01l-.08.736a.913.913,0,0,1-.845-.021l.2-.821Z" transform="translate(-7942.106 -3850.997)" fill="url(#linear-gradient-21)"/>
        <path id="Trazado_104107" data-name="Trazado 104107" d="M7952.605,3666.213c.039.192.294,9.582-.67,13.8a.144.144,0,0,0,.085.165,2.487,2.487,0,0,0,.819.158.247.247,0,0,0,.243-.179,48.34,48.34,0,0,0,1.741-10.56c.15-5.224,0-.178,0-.178l-.148-3.227Z" transform="translate(-7942.886 -3651.025)" fill="url(#linear-gradient-22)"/>
        <path id="Trazado_104108" data-name="Trazado 104108" d="M7998.892,3891.7a4.424,4.424,0,0,1,.351,1.132.256.256,0,0,1-.222.309c-.267.029-.679.066-1.009.068a.256.256,0,0,1-.255-.282,2.149,2.149,0,0,1,.491-1.185Z" transform="translate(-7985.764 -3862.032)" fill="url(#linear-gradient-23)"/>
        <path id="Trazado_104109" data-name="Trazado 104109" d="M8006.118,3876.428l-.193,1.115a.722.722,0,0,1-.6.047l.086-1.2Z" transform="translate(-7992.846 -3847.712)" fill="url(#linear-gradient-24)"/>
        <path id="Trazado_104110" data-name="Trazado 104110" d="M7965.146,3663.4c.868,4.947-.061,12.249-.385,13.679a.223.223,0,0,1-.178.171,1.5,1.5,0,0,1-.643-.02.2.2,0,0,1-.148-.187c-.056-1.153-.043-8.237-.834-11.03a.634.634,0,0,0-.249-.348l-1.5-1.041-.13-1.705Z" transform="translate(-7951.451 -3647.959)" fill="url(#linear-gradient-25)"/>
        <g id="Grupo_54991" data-name="Grupo 54991" transform="translate(1.072 2.355)">
          <path id="Trazado_104111" data-name="Trazado 104111" d="M7890.035,3519.622a23.138,23.138,0,0,1,5.181.6,37.06,37.06,0,0,1,.216,9.214,7.728,7.728,0,0,1-4.057-.267c-.333-1.786-1.859-6.805-1.859-6.805a8.1,8.1,0,0,1-3.017-.926,5.286,5.286,0,0,0,1.022-2.191A8.242,8.242,0,0,0,7890.035,3519.622Z" transform="translate(-7882.733 -3515.877)" fill="url(#linear-gradient-26)"/>
          <path id="Trazado_104112" data-name="Trazado 104112" d="M7827.894,3467.065a.472.472,0,0,1,.546-.159c.377,1.526,2.287,2.748,4.244,3.336a5.28,5.28,0,0,1-1.022,2.191A7.9,7.9,0,0,1,7827.894,3467.065Z" transform="translate(-7827.894 -3466.875)" fill="url(#linear-gradient-27)"/>
        </g>
        <g id="Grupo_54992" data-name="Grupo 54992">
          <path id="Trazado_104113" data-name="Trazado 104113" d="M7812.355,3432.866c-.024.081.27.2.439-.13a3.108,3.108,0,0,0,0-.961,12.585,12.585,0,0,0-1.488-1.527.232.232,0,0,0-.026.322l.477.487a2.287,2.287,0,0,0-.27.547.659.659,0,0,0,.07.486c.084.148.2.341.308.492A.651.651,0,0,0,7812.355,3432.866Z" transform="translate(-7811.224 -3430.248)" fill="url(#linear-gradient-28)"/>
          <path id="Trazado_104114" data-name="Trazado 104114" d="M7821.364,3447.756l.433.36.139.361-.38.429a4.953,4.953,0,0,0-.232-.874C7821.226,3447.878,7821.275,3447.8,7821.364,3447.756Z" transform="translate(-7820.624 -3446.631)" fill="url(#linear-gradient-29)"/>
        </g>
        <path id="Trazado_104115" data-name="Trazado 104115" d="M8007.761,3536.8l.921-2.391s2.313,1.54,2.71,3.516a5.444,5.444,0,0,0-1.993.555C8009.221,3537.547,8007.761,3536.8,8007.761,3536.8Z" transform="translate(-7995.127 -3527.714)" fill="url(#linear-gradient-30)"/>
        <path id="Trazado_104116" data-name="Trazado 104116" d="M7971.971,3590.238s2.594,1.433,3.453.18a.979.979,0,0,0,.172-.762,5.45,5.45,0,0,1,1.993-.554,2.734,2.734,0,0,1-.279,1.876c-1.5,2.8-5.675-.1-5.675-.1Z" transform="translate(-7961.323 -3578.889)" fill="url(#linear-gradient-31)"/>
        <path id="Trazado_104117" data-name="Trazado 104117" d="M7956.765,3493.686l.8,2.256a.083.083,0,0,1-.036.1,1.84,1.84,0,0,1-1.91-.11.385.385,0,0,1-.18-.273l-.272-1.957Z" transform="translate(-7945.917 -3489.608)" fill="url(#linear-gradient-32)"/>
        <g id="Grupo_54993" data-name="Grupo 54993" transform="translate(8.385 0.821)">
          <path id="Trazado_104118" data-name="Trazado 104118" d="M7942.4,3461.325a6.014,6.014,0,0,0-.728,2.279c.116.652,1.181.6,2.106.056l.633-1.754Z" transform="translate(-7941.657 -3460.148)" fill="url(#linear-gradient-33)"/>
          <path id="Trazado_104119" data-name="Trazado 104119" d="M7948.021,3445.667a.067.067,0,0,1-.03-.1,1.719,1.719,0,0,0,.234-.51s.154-.1-.4-.226-1.368-.322-1.544-.786.257-1.6.968-.7a.066.066,0,0,0,.105,0,.687.687,0,0,1,.835-.28.631.631,0,0,1,.438.605.067.067,0,0,0,.079.067.769.769,0,0,1,.9.41.618.618,0,0,1-.037.743.066.066,0,0,0,.029.11.4.4,0,0,1,.287.454c-.02.423-.493.39-.628.373a.066.066,0,0,0-.059.021,2.268,2.268,0,0,1-1.191.747.066.066,0,0,1-.071-.088l.236-.711a.066.066,0,0,0-.037-.083Z" transform="translate(-7945.952 -3443.012)" fill="url(#linear-gradient-34)"/>
          <path id="Trazado_104120" data-name="Trazado 104120" d="M7969.609,3482.785s.608-.426.657-.073-.546.518-.843.388Z" transform="translate(-7967.638 -3480.03)" fill="url(#linear-gradient-35)"/>
        </g>
        <g id="Grupo_54995" data-name="Grupo 54995" transform="translate(4.709 8.269)">
          <g id="Grupo_54994" data-name="Grupo 54994">
            <path id="Trazado_104121" data-name="Trazado 104121" d="M7890.943,3564.224l-1.414-4.935a.144.144,0,0,0-.122-.1c-.256-.03-1-.114-1.854-.186a21.051,21.051,0,0,0-2.946-.1.145.145,0,0,0-.118.208,49.5,49.5,0,0,0,2.921,5.272.146.146,0,0,0,.117.057l3.279-.031A.145.145,0,0,0,7890.943,3564.224Z" transform="translate(-7884.474 -3558.878)" fill="url(#linear-gradient-36)"/>
            <path id="Trazado_104122" data-name="Trazado 104122" d="M7954.369,3598.987a3.584,3.584,0,0,0,.118-1.1c-.08-.287-.233-.656-.746-.574a7.5,7.5,0,0,0-1.118.3.294.294,0,0,0,.42.253l-.241.187s.034.3.363.14l-.225.248a.262.262,0,0,0,.384.088C7953.566,3598.373,7953.682,3599.084,7954.369,3598.987Z" transform="translate(-7948.241 -3594.834)" fill="url(#linear-gradient-37)"/>
          </g>
          <path id="Trazado_104123" data-name="Trazado 104123" d="M7921.764,3577.628a.415.415,0,1,1-.415-.415A.415.415,0,0,1,7921.764,3577.628Z" transform="translate(-7918.591 -3576.034)" fill="#7dc5f4"/>
          <path id="Trazado_104124" data-name="Trazado 104124" d="M7903.368,3565.4l-.288-.976a.337.337,0,0,0-.253-.237,28.9,28.9,0,0,0-3.4-.229l0-.1a28.962,28.962,0,0,1,3.415.231.443.443,0,0,1,.333.31l.287.976Z" transform="translate(-7898.47 -3563.536)" fill="#bde9fb"/>
        </g>
      </g>
      <g id="Grupo_55000" data-name="Grupo 55000" transform="translate(0 22.837)">
        <g id="Grupo_54997" data-name="Grupo 54997" transform="translate(0.063 1.11)">
          <path id="Trazado_104125" data-name="Trazado 104125" d="M7682.033,3802.764a67.172,67.172,0,0,0-.843,7.134.22.22,0,0,0,.22.231h0a.221.221,0,0,0,.219-.187l1.1-7.018Z" transform="translate(-7681.189 -3802.764)" fill="#7dc5f4"/>
        </g>
        <g id="Grupo_54998" data-name="Grupo 54998" transform="translate(5.029 1.11)">
          <path id="Trazado_104126" data-name="Trazado 104126" d="M7759.13,3802.764a67.042,67.042,0,0,1,.843,7.134.22.22,0,0,1-.221.231h0a.221.221,0,0,1-.218-.187l-1.095-7.018Z" transform="translate(-7758.439 -3802.764)" fill="#7dc5f4"/>
        </g>
        <g id="Grupo_54999" data-name="Grupo 54999">
          <path id="Trazado_104127" data-name="Trazado 104127" d="M7680.212,3786.216v.055a.751.751,0,0,0,.765.728l5.061.086a.757.757,0,0,0,.793-.687l0-.051a.748.748,0,0,0-.763-.757l-5.064-.09A.754.754,0,0,0,7680.212,3786.216Z" transform="translate(-7680.212 -3785.5)" fill="#7dc5f4"/>
        </g>
      </g>
      <g id="Grupo_55004" data-name="Grupo 55004" transform="translate(1.503 7.836)">
        <g id="Grupo_55001" data-name="Grupo 55001" transform="translate(7.675 22.142)">
          <path id="Trazado_104128" data-name="Trazado 104128" d="M7824.6,3908.736a4.523,4.523,0,0,1-1.476-.148.341.341,0,0,0,.332.265h3.183a.155.155,0,0,0,.149-.2C7826.43,3908.686,7825.659,3908.736,7824.6,3908.736Z" transform="translate(-7823.119 -3907.816)" fill="url(#linear-gradient-38)"/>
          <path id="Trazado_104129" data-name="Trazado 104129" d="M7826.66,3897.423a.155.155,0,0,0-.026-.054,1.836,1.836,0,0,0-1.392-.786,11.172,11.172,0,0,1-2.064.006l-.178.59a.337.337,0,0,0,0,.176,4.531,4.531,0,0,0,1.475.147C7825.526,3897.5,7826.3,3897.452,7826.66,3897.423Z" transform="translate(-7822.986 -3896.582)" fill="url(#linear-gradient-39)"/>
        </g>
        <path id="Trazado_104130" data-name="Trazado 104130" d="M7826.2,3886.789l-.219.743a1.285,1.285,0,0,0,.91.043l.083-.644Z" transform="translate(-7818.112 -3865.277)" fill="url(#linear-gradient-40)"/>
        <g id="Grupo_55002" data-name="Grupo 55002" transform="translate(13.106 21.068)">
          <path id="Trazado_104131" data-name="Trazado 104131" d="M7913.921,3882.761a4.558,4.558,0,0,1-1.243.81.342.342,0,0,0,.424,0l2.481-1.994a.154.154,0,0,0-.005-.245C7915.314,3881.579,7914.744,3882.1,7913.921,3882.761Z" transform="translate(-7912.344 -3881.236)" fill="url(#linear-gradient-41)"/>
          <path id="Trazado_104132" data-name="Trazado 104132" d="M7910.709,3879.971a.143.143,0,0,0-.054-.026,1.836,1.836,0,0,0-1.575.261,11.246,11.246,0,0,1-1.6,1.3l.229.569a.338.338,0,0,0,.105.14,4.561,4.561,0,0,0,1.243-.81C7909.875,3880.742,7910.445,3880.221,7910.709,3879.971Z" transform="translate(-7907.475 -3879.878)" fill="url(#linear-gradient-42)"/>
        </g>
        <path id="Trazado_104133" data-name="Trazado 104133" d="M7741.6,3755.126s5.387.44,6.493.96-.9,7.812-.9,7.812a1.444,1.444,0,0,1-.97-.063s.687-5.381.175-6.548l-5.833-.954Z" transform="translate(-7738.183 -3742.078)" fill="url(#linear-gradient-43)"/>
        <path id="Trazado_104134" data-name="Trazado 104134" d="M7899.149,3884.619c.05.046.535,1.024.535,1.024s.54-.117.65-.459l-.486-.883Z" transform="translate(-7886.578 -3862.949)" fill="url(#linear-gradient-40)"/>
        <path id="Trazado_104135" data-name="Trazado 104135" d="M7703.765,3754.426a2.729,2.729,0,0,0-.169.984,1.478,1.478,0,0,0,1.409,1.445l6.369.29a.3.3,0,0,1,.281.229c.149.579.882,2.356,4.458,5.9a.288.288,0,0,0,.356.039l.509-.322a.117.117,0,0,0,.038-.158l-3.708-6.332a1.433,1.433,0,0,0-.872-.646l-5.427-1.388Z" transform="translate(-7703.596 -3741.423)" fill="url(#linear-gradient-45)"/>
        <path id="Trazado_104136" data-name="Trazado 104136" d="M7783.792,3600.563a8.012,8.012,0,0,1-1.378,1.79l1.438.8s.324-1.277,1.064-1.651Z" transform="translate(-7777.348 -3597.45)" fill="url(#linear-gradient-46)"/>
        <path id="Trazado_104137" data-name="Trazado 104137" d="M7704.419,3633.62a7.877,7.877,0,0,0,3.36,0s2.3-3.087,3.185-3.927a6.321,6.321,0,0,0,4.571,2.553l.176-.393s-2.511-1.157-3.284-2.936-1.083-2.537-1.787-3c-.437-.289-.7-.487-.835-.594a.226.226,0,0,0-.258-.016A11.823,11.823,0,0,0,7704.419,3633.62Z" transform="translate(-7704.367 -3620.571)" fill="url(#linear-gradient-47)"/>
        <path id="Trazado_104138" data-name="Trazado 104138" d="M7874.387,3719.246l.355-.095,1.078-.25a.5.5,0,0,1,.379.064l.927.583-2.559,0Z" transform="translate(-7863.408 -3708.17)" fill="url(#linear-gradient-40)"/>
        <g id="Grupo_55003" data-name="Grupo 55003" transform="translate(4.671)">
          <path id="Trazado_104139" data-name="Trazado 104139" d="M7792.6,3572.426a7.574,7.574,0,0,1,.778,1.711c.115.609.3.99-.394,1.207a1.521,1.521,0,0,1-1.742-.626s-.632-.875-.568-1.276S7792.6,3572.426,7792.6,3572.426Z" transform="translate(-7789.742 -3571.123)" fill="url(#linear-gradient-49)"/>
          <path id="Trazado_104140" data-name="Trazado 104140" d="M7777.938,3555.272l.09-.012s-.469-.709-.162-.885,1.559-.608,1.777-1.1a.857.857,0,0,0-.482-1.124.048.048,0,0,0-.058.03l-.022.06a.049.049,0,0,1-.09,0h0a.048.048,0,0,0-.088,0c-.067.148-.268.4-.87.6-.854.277-1.387.708-1.321,1.314a.049.049,0,0,1-.069.049c-.07-.031-.176-.036-.3.1-.213.234-.046.745.538,1.107a.049.049,0,0,1,.008.078c-.088.075-.21.241.185.39a.99.99,0,0,0,.706.068.049.049,0,0,0,.031-.055l-.1-.532a.049.049,0,0,1,.041-.057Z" transform="translate(-7776.255 -3552.148)" fill="url(#linear-gradient-50)"/>
          <path id="Trazado_104141" data-name="Trazado 104141" d="M7793.038,3594.852s-.292-.721-.6-.468.284.814.557.806Z" transform="translate(-7791.316 -3591.618)" fill="url(#linear-gradient-51)"/>
        </g>
      </g>
      <g id="Grupo_55007" data-name="Grupo 55007" transform="translate(11.261 14.232)">
        <g id="Grupo_55005" data-name="Grupo 55005" transform="translate(0 4.992)">
          <path id="Trazado_104142" data-name="Trazado 104142" d="M7855.621,3729.777h.013l5.468-.006a.244.244,0,1,0,0-.488l-5.468.005a.244.244,0,0,0-.012.488Z" transform="translate(-7855.389 -3729.284)" fill="url(#linear-gradient-52)"/>
        </g>
        <g id="Grupo_55006" data-name="Grupo 55006" transform="translate(5.501)">
          <path id="Trazado_104143" data-name="Trazado 104143" d="M7943.3,3651.764a.046.046,0,0,0-.006.011l-2.3,4.96a.244.244,0,1,0,.443.205l2.3-4.96a.244.244,0,0,0-.437-.217Z" transform="translate(-7940.967 -3651.634)" fill="url(#linear-gradient-53)"/>
        </g>
      </g>
      <g id="Grupo_55012" data-name="Grupo 55012" transform="translate(20.788 6.396)">
        <g id="Grupo_55008" data-name="Grupo 55008" transform="translate(9.256 16.908)">
          <rect id="Rect치ngulo_5561" data-name="Rect치ngulo 5561" width="0.577" height="6.241" transform="translate(2.789 1.398)" fill="#7dc5f4"/>
          <path id="Trazado_104144" data-name="Trazado 104144" d="M8161.179,3908h-5.054a.376.376,0,0,1,.375-.376h4.3a.375.375,0,0,1,.375.376Z" transform="translate(-8155.574 -3900.238)" fill="#7dc5f4"/>
          <rect id="Rect치ngulo_5562" data-name="Rect치ngulo 5562" width="6.355" height="1.802" rx="0.901" fill="#7dc5f4"/>
        </g>
        <g id="Grupo_55009" data-name="Grupo 55009" transform="translate(0.62 12.973)">
          <path id="Trazado_104145" data-name="Trazado 104145" d="M8099.506,3749.778a5.019,5.019,0,0,0-1.822.777.48.48,0,0,0-.212.459,20.351,20.351,0,0,0,2.155,6.766.73.73,0,0,1,.07.5l-.272,1.265-.5.473h1.3l.865-2.341-.37-.117a.7.7,0,0,1-.489-.655l-.043-2.511a2.854,2.854,0,0,0-.686-1.89l2.075-.1Z" transform="translate(-8092.052 -3748.606)" fill="url(#linear-gradient-54)"/>
          <path id="Trazado_104146" data-name="Trazado 104146" d="M8112.073,3873.44c-.119.155,1.273.359,1.976.021a7.786,7.786,0,0,0,.975-2.569s-.077-.178-.649-.138c0,0-.327,2.008-.673,2.233a1.38,1.38,0,0,1-.967.022A2.038,2.038,0,0,0,8112.073,3873.44Z" transform="translate(-8105.711 -3861.8)" fill="url(#linear-gradient-55)"/>
          <path id="Trazado_104147" data-name="Trazado 104147" d="M8031.178,3757.232c-.011-.019-2.233-.267-2.233-.267a5.12,5.12,0,0,1-.156,1.606c-.227.93-3.49,4.961-3.49,4.961l.343,1.085a5.505,5.505,0,0,1-3.123.188l2.12-1.272s1.984-6.763,3.2-7.969l2.228-.771Z" transform="translate(-8021.922 -3753.297)" fill="url(#linear-gradient-40)"/>
          <path id="Trazado_104148" data-name="Trazado 104148" d="M8113.933,3731.544a10.523,10.523,0,0,1,1.386,2.773c.1.869-.351,1.222-1.695,1.28s-4.93.057-4.93.057l-3.062-2.616s2.231-.8,2.811-1.021S8113.933,3731.544,8113.933,3731.544Z" transform="translate(-8099.692 -3731.544)" fill="url(#linear-gradient-57)"/>
          <path id="Trazado_104149" data-name="Trazado 104149" d="M8016.813,3901.94a.627.627,0,0,1,.12.754,15.37,15.37,0,0,1-3.71.283s.165-.376,1.057-.8l-.066.05a.107.107,0,0,0,.071.191A8.209,8.209,0,0,0,8016.813,3901.94Z" transform="translate(-8013.222 -3890.986)" fill="url(#linear-gradient-58)"/>
        </g>
        <g id="Grupo_55010" data-name="Grupo 55010" transform="translate(8.065)">
          <path id="Trazado_104150" data-name="Trazado 104150" d="M8144.383,3554.115c0,.177,1.6,6.749,1.6,6.749l4.554,1.339a2.047,2.047,0,0,0,2.309-.873h0a4.116,4.116,0,0,0-1.293-5.678l-.645-.406a12.1,12.1,0,0,1-3.49-3.329l-.243-.349Z" transform="translate(-8143.396 -3550.166)" fill="url(#linear-gradient-59)"/>
          <path id="Trazado_104151" data-name="Trazado 104151" d="M8196.3,3574.229a.025.025,0,0,1-.022-.013.026.026,0,0,1,.009-.036,1.562,1.562,0,0,0,.583-1.353,3.511,3.511,0,0,0-.458-1.7,7.214,7.214,0,0,0-2.33-2.18l-.185-.127a5.749,5.749,0,0,1-2.317-2.509.026.026,0,0,1,.049-.019,5.7,5.7,0,0,0,2.3,2.484l.184.127a7.252,7.252,0,0,1,2.347,2.2,3.576,3.576,0,0,1,.465,1.729,1.608,1.608,0,0,1-.608,1.4A.029.029,0,0,1,8196.3,3574.229Z" transform="translate(-8187.56 -3563.925)" fill="#91defa"/>
          <path id="Trazado_104152" data-name="Trazado 104152" d="M8205.451,3599.25h-.006a.026.026,0,0,1-.021-.031,3.15,3.15,0,0,0-.054-1.613,4.122,4.122,0,0,0-1.64-1.884c-.124-.088-.25-.175-.377-.262a6.831,6.831,0,0,1-1.6-1.36.027.027,0,0,1,.006-.037.025.025,0,0,1,.036,0,6.8,6.8,0,0,0,1.587,1.349c.126.087.253.174.377.262a4.17,4.17,0,0,1,1.66,1.911,3.2,3.2,0,0,1,.054,1.64A.025.025,0,0,1,8205.451,3599.25Z" transform="translate(-8197.076 -3589.923)" fill="#91defa"/>
          <path id="Trazado_104153" data-name="Trazado 104153" d="M8142.369,3627.13a29.312,29.312,0,0,1-2.225-2.36,2,2,0,0,1-.338-1.8,24.8,24.8,0,0,1,.985-2.481c.083-.279,1.755-.267,1.755-.267a12.821,12.821,0,0,1,4.583,5.752l-1.452.452a16.953,16.953,0,0,0-1.708-2.357,9.362,9.362,0,0,1,1.521,2.734Z" transform="translate(-8139.036 -3614.41)" fill="url(#linear-gradient-60)"/>
          <path id="Trazado_104154" data-name="Trazado 104154" d="M8149.345,3588.248c.017.058.7,1.888.735,1.918a2.44,2.44,0,0,0,1.392-.217l-1.078-2.108Z" transform="translate(-8148.039 -3584.106)" fill="url(#linear-gradient-61)"/>
          <path id="Trazado_104155" data-name="Trazado 104155" d="M8133.627,3710.967l1.1-1.056,1.515.64a7.48,7.48,0,0,0,2.372,0l.864-.234,1.951-.608.307.866a.523.523,0,0,1-.191.6,3.435,3.435,0,0,1-.493.307c-.257.113-6.334-.078-6.334-.078Z" transform="translate(-8133.332 -3698.141)" fill="url(#linear-gradient-62)"/>
          <path id="Trazado_104156" data-name="Trazado 104156" d="M8130.514,3546.171a3.035,3.035,0,0,0-1.274,1.59c-.484,1.2-.042,1.718.479,1.763a2.42,2.42,0,0,0,2.066-.813C8132.559,3547.909,8131.544,3545.706,8130.514,3546.171Z" transform="translate(-8129.031 -3545.055)" fill="url(#linear-gradient-63)"/>
          <path id="Trazado_104157" data-name="Trazado 104157" d="M8140.165,3532.8s.514-1.747-1.005-1.681l-.343.27a.974.974,0,0,1,.277-1.423,1.947,1.947,0,0,1,2.734,1.031,2.267,2.267,0,0,1-.337,2.644c-.614.626-.918-.027-.918-.027s.321-.571.161-.858-.471.088-.471.088Z" transform="translate(-8137.997 -3529.742)" fill="url(#linear-gradient-64)"/>
          <path id="Trazado_104158" data-name="Trazado 104158" d="M8161.4,3576.2s.708-.752.966-.213-.7.673-1.066.694Z" transform="translate(-8159.226 -3572.832)" fill="url(#linear-gradient-65)"/>
        </g>
        <g id="Grupo_55011" data-name="Grupo 55011" transform="translate(0 7.554)">
          <path id="Trazado_104159" data-name="Trazado 104159" d="M8101.266,3728.629h-.014l-6.356-.007a.284.284,0,0,1,0-.568l6.355.007a.284.284,0,0,1,.014.568Z" transform="translate(-8088.76 -3722.859)" fill="url(#linear-gradient-66)"/>
          <path id="Trazado_104160" data-name="Trazado 104160" d="M8004,3647.247h5.293a1.009,1.009,0,0,1,.913.579l2.446,5.188h-6.577a.613.613,0,0,1-.57-.388l-1.9-4.8A.423.423,0,0,1,8004,3647.247Z" transform="translate(-8003.58 -3647.247)" fill="url(#linear-gradient-67)"/>
          <path id="Trazado_104161" data-name="Trazado 104161" d="M8055.866,3680.913c.115.356.031.7-.189.773s-.49-.161-.6-.518-.029-.7.19-.773S8055.751,3680.556,8055.866,3680.913Z" transform="translate(-8051.714 -3678.252)" fill="#7dc5f4"/>
        </g>
      </g>
      <g id="Grupo_55016" data-name="Grupo 55016" transform="translate(33.221 1.506)">
        <g id="Grupo_55013" data-name="Grupo 55013" transform="translate(3.882 13.923)">
          <path id="Trazado_104162" data-name="Trazado 104162" d="M8260.822,3897.216a7.489,7.489,0,0,1,.093.81.349.349,0,0,1-.314.368,15.467,15.467,0,0,1-3.077.043.159.159,0,0,1-.087-.273,4.913,4.913,0,0,1,2.881-1.224Z" transform="translate(-8257.386 -3882.367)" fill="url(#linear-gradient-68)"/>
          <path id="Trazado_104163" data-name="Trazado 104163" d="M8299.516,3883.171l-.328.806a.269.269,0,0,1-.276.167,1.488,1.488,0,0,1-.269-.052.353.353,0,0,1-.234-.439l.248-.83Z" transform="translate(-8295.758 -3869.158)" fill="url(#linear-gradient-69)"/>
          <path id="Trazado_104164" data-name="Trazado 104164" d="M8389.751,3911.217a3.452,3.452,0,0,0-.915,1.258.3.3,0,0,0,.286.4h1.354a.32.32,0,0,0,.316-.374C8390.706,3912.012,8390.458,3911.219,8389.751,3911.217Z" transform="translate(-8380.369 -3895.727)" fill="url(#linear-gradient-70)"/>
          <path id="Trazado_104165" data-name="Trazado 104165" d="M8401.323,3898.6s-.132.589-.234.978a.125.125,0,0,1-.163.085,1.134,1.134,0,0,0-.493-.09.1.1,0,0,1-.106-.1l-.013-.978Z" transform="translate(-8391.125 -3883.826)" fill="url(#linear-gradient-71)"/>
          <path id="Trazado_104166" data-name="Trazado 104166" d="M8303.227,3671.78,8299.221,3684a3.026,3.026,0,0,0,1.135.482l4.758-9.821a56.082,56.082,0,0,1,.43,10.4l1.363.1s2.216-11.1.538-14.906Z" transform="translate(-8296.531 -3670.256)" fill="url(#linear-gradient-72)"/>
          <path id="Trazado_104167" data-name="Trazado 104167" d="M8387.656,3718.052h0a.039.039,0,0,0,.034-.043l-.155-1.234a.039.039,0,0,0-.078.01l.155,1.234A.04.04,0,0,0,8387.656,3718.052Z" transform="translate(-8379.1 -3713.753)" fill="url(#linear-gradient-73)"/>
        </g>
        <path id="Trazado_104168" data-name="Trazado 104168" d="M8293.087,3526.673s3.245.289,2.787,2.6a31.589,31.589,0,0,1,2.633,7.354.235.235,0,0,1-.189.278l-5.405.925a.29.29,0,0,1-.331-.214l-1.291-4.991-.5,2.321-1.6-.417,1.347-6.819S8290.721,3526.716,8293.087,3526.673Z" transform="translate(-8283.26 -3521.98)" fill="url(#linear-gradient-74)"/>
        <path id="Trazado_104169" data-name="Trazado 104169" d="M8314.318,3584.513h.009a.04.04,0,0,0,.03-.048l-.45-2.069a.04.04,0,0,0-.048-.031.04.04,0,0,0-.031.048l.451,2.069A.039.039,0,0,0,8314.318,3584.513Z" transform="translate(-8306.316 -3574.091)" fill="url(#linear-gradient-75)"/>
        <path id="Trazado_104170" data-name="Trazado 104170" d="M8310.259,3659.742a.773.773,0,0,1,.559-.073l.376.094a.136.136,0,0,0,.168-.117l.39-3.464a3.187,3.187,0,0,0,1.42.187l-.9,4.083h-3.134Z" transform="translate(-8301.931 -3643.164)" fill="url(#linear-gradient-76)"/>
        <path id="Trazado_104171" data-name="Trazado 104171" d="M8196.992,3560.4l.095-.315a.624.624,0,0,1,.364-.4l1.713-.689s.026-.22-.361-.369a.515.515,0,0,1-.3-.583s.53.242,1.307.625a1.819,1.819,0,0,1,.824.9l3.883,4.733-.457.313a1.216,1.216,0,0,1-1.764-.433l-2.1-4.033A7.835,7.835,0,0,1,8196.992,3560.4Z" transform="translate(-8196.992 -3551.339)" fill="url(#linear-gradient-77)"/>
        <g id="Grupo_55015" data-name="Grupo 55015" transform="translate(5.03)">
          <path id="Trazado_104172" data-name="Trazado 104172" d="M8318.45,3491.849l1,2.794s-.884.691-1.529.457l-.5-1.6S8317.8,3491.541,8318.45,3491.849Z" transform="translate(-8314.704 -3489.364)" fill="url(#linear-gradient-78)"/>
          <g id="Grupo_55014" data-name="Grupo 55014">
            <path id="Trazado_104173" data-name="Trazado 104173" d="M8287.152,3468.628c0,.043.962,2.722.962,2.722l1.518-.582-.533-2.675S8287.152,3467.907,8287.152,3468.628Z" transform="translate(-8286.386 -3467.146)" fill="url(#linear-gradient-79)"/>
            <path id="Trazado_104174" data-name="Trazado 104174" d="M8277.684,3455.268l.39,1.386a.169.169,0,0,1,.008.054c0,.113-.027.5-.424.449a1.809,1.809,0,0,0-.9.012.2.2,0,0,0-.1.25,8.571,8.571,0,0,0,.548,1.234.2.2,0,0,0,.257.083,6.48,6.48,0,0,0,1.3-.766.2.2,0,0,0,.071-.193c-.066-.354-.265-1.433-.273-1.742-.008-.29.317-.511.461-.595a.2.2,0,0,0,.094-.125.522.522,0,0,0-.456-.7.2.2,0,0,1-.163-.24.524.524,0,0,0-.394-.673.735.735,0,0,0-.84.335.2.2,0,0,1-.25.066.16.16,0,0,0-.179.032.2.2,0,0,1-.289-.044.6.6,0,0,0-.741-.244.959.959,0,0,0-.4,1.442c.251.43.981.147,1.327-.138a.859.859,0,0,1,.839-.012A.205.205,0,0,1,8277.684,3455.268Z" transform="translate(-8275.237 -3453.669)" fill="url(#linear-gradient-80)"/>
            <path id="Trazado_104175" data-name="Trazado 104175" d="M8325.735,3481.654s-.407-.768-.138-1.009.724-.2.71.4C8326.293,3481.79,8325.735,3481.654,8325.735,3481.654Z" transform="translate(-8322.274 -3478.781)" fill="url(#linear-gradient-81)"/>
          </g>
        </g>
        <path id="Trazado_104176" data-name="Trazado 104176" d="M8347.407,3578.662c.222,0,.38-.017.4-.019l.028,0,1.182-5.51a.039.039,0,0,0-.03-.048.04.04,0,0,0-.048.031l-1.169,5.453a2.864,2.864,0,0,1-1.611-.273l1.023-4.787-.214-.4a.04.04,0,1,0-.07.038l.2.377-1.028,4.809.021.016A2.348,2.348,0,0,0,8347.407,3578.662Z" transform="translate(-8336.483 -3565.405)" fill="url(#linear-gradient-82)"/>
      </g>
      <g id="Grupo_55017" data-name="Grupo 55017" transform="translate(8.511 20.155)">
        <path id="Trazado_104177" data-name="Trazado 104177" d="M7812.809,3755.181a.194.194,0,0,1-.081-.018.233.233,0,0,1-.107-.3l4.318-10.958a.2.2,0,0,1,.271-.118.234.234,0,0,1,.107.3L7813,3755.045A.206.206,0,0,1,7812.809,3755.181Z" transform="translate(-7812.603 -3743.774)" fill="#bde9fb"/>
        <path id="Trazado_104178" data-name="Trazado 104178" d="M7825.626,3755.18a.206.206,0,0,1-.189-.136l-4.318-10.957a.234.234,0,0,1,.107-.3.2.2,0,0,1,.271.118l4.317,10.957a.233.233,0,0,1-.107.3A.188.188,0,0,1,7825.626,3755.18Z" transform="translate(-7820.555 -3743.773)" fill="#bde9fb"/>
        <path id="Trazado_104179" data-name="Trazado 104179" d="M8268.724,3755.181a.2.2,0,0,1-.081-.018.233.233,0,0,1-.107-.3l4.317-10.958a.2.2,0,0,1,.271-.118.234.234,0,0,1,.107.3l-4.318,10.958A.207.207,0,0,1,8268.724,3755.181Z" transform="translate(-8239.21 -3743.774)" fill="#bde9fb"/>
        <path id="Trazado_104180" data-name="Trazado 104180" d="M8281.54,3755.18a.207.207,0,0,1-.189-.136l-4.318-10.957a.232.232,0,0,1,.108-.3.2.2,0,0,1,.27.118l4.318,10.957a.232.232,0,0,1-.107.3A.192.192,0,0,1,8281.54,3755.18Z" transform="translate(-8247.16 -3743.773)" fill="#bde9fb"/>
      </g>
      <g id="Grupo_55018" data-name="Grupo 55018" transform="translate(37.208 18.726)">
        <path id="Trazado_104181" data-name="Trazado 104181" d="M8261.972,3724.455h6.255v-.646h-6.255C8262.105,3723.809,8262.105,3724.455,8261.972,3724.455Z" transform="translate(-8261.78 -3723.663)" fill="#bde9fb"/>
        <path id="Trazado_104182" data-name="Trazado 104182" d="M8265.4,3722.33a.055.055,0,0,0,.055-.055v-.536a.055.055,0,0,0-.055-.055h-6.335a.055.055,0,0,1-.056-.055v-.036a.055.055,0,0,1,.056-.055h6.748a.27.27,0,0,1,.271.27v.413a.255.255,0,0,1-.256.255h-6.763a.055.055,0,0,1-.056-.055v-.036a.055.055,0,0,1,.056-.055Z" transform="translate(-8259.005 -3721.538)" fill="url(#linear-gradient-83)"/>
      </g>
      <path id="Trazado_104183" data-name="Trazado 104183" d="M7816.353,3736.36a.19.19,0,0,0-.078-.2.466.466,0,0,0-.286-.089h-37.478a.506.506,0,0,0-.36.131.2.2,0,0,0-.027.271l.406.583a.634.634,0,0,0,.516.219h36.686a.423.423,0,0,0,.423-.231Z" transform="translate(-7771.792 -3716.407)" fill="url(#linear-gradient-3)"/>
    </g>
    <path id="Trazado_104184" data-name="Trazado 104184" d="M7982.334,3227.562c0-3.993-4.978-7.23-11.119-7.23s-11.119,3.237-11.119,7.23,4.978,7.23,11.119,7.23a16.988,16.988,0,0,0,2.261-.15,1.5,1.5,0,0,1,1.688,1.618,7.5,7.5,0,0,1-.556,2.2.292.292,0,0,0,.41.369,7.2,7.2,0,0,0,3.353-5.135,1.516,1.516,0,0,1,.669-.992C7981.074,3231.387,7982.334,3229.57,7982.334,3227.562Z" transform="translate(-741.012 -275.214)" fill="url(#linear-gradient-85)"/>
    <path id="Trazado_104185" data-name="Trazado 104185" d="M7821.905,3159.834c-5.066,0-9.174,2.813-9.174,6.283a5.058,5.058,0,0,0,1.7,3.641,1.642,1.642,0,0,1,.5,1.285,7.116,7.116,0,0,0,2.29,5.972.777.777,0,0,0,1.282-.672,10.853,10.853,0,0,1-.007-2.609,1.66,1.66,0,0,1,1.847-1.427,13.36,13.36,0,0,0,1.568.092c5.067,0,9.175-2.813,9.175-6.282S7826.973,3159.834,7821.905,3159.834Z" transform="translate(-603.121 -218.605)" fill="#bde9fb"/>
    <path id="Trazado_104186" data-name="Trazado 104186" d="M7586,3399.946h-.024a.052.052,0,0,1,0-.1H7586c.167,0,.333,0,.5,0a.049.049,0,0,1,.053.052.052.052,0,0,1-.051.053Q7586.25,3399.946,7586,3399.946Zm-.548,0h0q-.261,0-.524-.012a.052.052,0,1,1,0-.1q.261.008.523.012a.052.052,0,0,1,0,.1Zm1.571-.011a.052.052,0,0,1,0-.1q.261-.008.523-.02a.051.051,0,0,1,.055.05.053.053,0,0,1-.05.055c-.175.008-.35.015-.524.02Zm-2.619-.022h0c-.175-.009-.349-.018-.524-.029a.052.052,0,0,1-.049-.056.052.052,0,0,1,.056-.049c.174.011.348.021.522.029a.052.052,0,0,1,0,.1Zm3.666-.026a.053.053,0,0,1,0-.1c.174-.011.349-.023.522-.036a.051.051,0,0,1,.057.048.053.053,0,0,1-.048.056c-.174.014-.349.026-.524.037Zm-4.711-.04h0q-.261-.021-.523-.045a.052.052,0,0,1,.01-.1q.26.025.521.045a.052.052,0,0,1,0,.1Zm5.756-.041a.052.052,0,0,1,0-.1q.261-.024.521-.053a.053.053,0,0,1,.058.046.053.053,0,0,1-.046.058c-.174.019-.348.037-.523.053Zm-6.8-.058h-.006q-.261-.029-.521-.062a.053.053,0,0,1,.013-.1c.173.022.346.042.52.062a.053.053,0,0,1,.046.058A.052.052,0,0,1,7582.315,3399.744Zm7.841-.055a.052.052,0,0,1-.006-.1c.173-.022.346-.044.519-.069a.053.053,0,0,1,.015.1q-.26.036-.521.069Zm-8.881-.076h-.007q-.26-.037-.519-.078a.052.052,0,0,1,.016-.1c.172.027.344.053.517.078a.052.052,0,0,1-.007.1Zm-1.035-.164h-.009q-.259-.045-.517-.095a.052.052,0,0,1,.02-.1q.257.049.515.094a.052.052,0,0,1-.009.1Zm-1.029-.2h-.011l-.154-.032-.358-.078a.053.053,0,0,1-.04-.063.054.054,0,0,1,.063-.04l.357.078.154.032a.052.052,0,0,1-.011.1Zm-1.022-.229h-.012q-.255-.062-.509-.127a.052.052,0,1,1,.026-.1c.168.043.338.085.507.126a.052.052,0,0,1,.039.063A.052.052,0,0,1,7578.189,3399.022Zm-1.014-.26-.014,0q-.253-.069-.5-.142a.053.053,0,0,1,.029-.1q.251.073.5.141a.052.052,0,0,1-.014.1Zm-1.006-.291-.015,0c-.167-.051-.334-.1-.5-.157a.052.052,0,1,1,.032-.1c.166.053.333.105.5.156a.053.053,0,0,1-.015.1Zm-1-.32-.017,0q-.249-.084-.5-.171a.052.052,0,0,1,.035-.1q.246.087.494.171a.052.052,0,0,1-.017.1Zm-.988-.349a.052.052,0,0,1-.018,0c-.164-.061-.327-.123-.491-.186a.052.052,0,0,1,.038-.1q.245.094.49.185a.053.053,0,0,1,.031.067A.053.053,0,0,1,7574.183,3397.8Zm-.977-.378a.053.053,0,0,1-.02,0q-.244-.1-.485-.2a.053.053,0,0,1,.041-.1q.241.1.484.2a.052.052,0,0,1-.02.1Zm-.966-.405a.056.056,0,0,1-.021,0q-.24-.1-.479-.213a.052.052,0,0,1,.043-.1c.16.072.318.143.479.213a.052.052,0,0,1-.021.1Zm-.955-.433a.05.05,0,0,1-.022-.005q-.238-.112-.474-.227a.053.053,0,0,1,.046-.094q.235.115.472.226a.052.052,0,0,1,.025.07A.053.053,0,0,1,7571.285,3396.586Zm-.943-.459a.05.05,0,0,1-.023-.006q-.234-.118-.467-.239a.052.052,0,1,1,.048-.093q.232.121.465.239a.052.052,0,0,1-.024.1Zm-.928-.485a.054.054,0,0,1-.025-.006c-.154-.083-.307-.167-.46-.252a.052.052,0,0,1,.051-.091q.229.127.459.251a.052.052,0,0,1,.021.071A.051.051,0,0,1,7569.414,3395.642Zm-.917-.51a.051.051,0,0,1-.026-.007q-.228-.131-.454-.264a.052.052,0,0,1,.054-.09c.15.089.3.177.453.264a.053.053,0,0,1,.019.072A.053.053,0,0,1,7568.5,3395.133Zm-.9-.534a.051.051,0,0,1-.027-.008q-.224-.137-.446-.277a.052.052,0,1,1,.055-.088c.148.093.3.185.445.276a.052.052,0,0,1-.027.1Zm-.888-.558a.054.054,0,0,1-.028-.009q-.22-.143-.439-.288a.053.053,0,1,1,.059-.087c.145.1.291.193.438.287a.053.053,0,0,1-.029.1Zm-.872-.581a.053.053,0,0,1-.03-.01c-.145-.1-.288-.2-.431-.3a.052.052,0,0,1-.012-.073.052.052,0,0,1,.072-.012q.215.15.43.3a.052.052,0,0,1,.014.073A.053.053,0,0,1,7565.836,3393.46Zm-.857-.6a.053.053,0,0,1-.031-.01q-.212-.154-.423-.311a.052.052,0,1,1,.063-.084q.21.156.422.309a.053.053,0,0,1,.012.073A.053.053,0,0,1,7564.979,3392.856Zm-.841-.626a.052.052,0,0,1-.032-.01q-.209-.159-.415-.321a.052.052,0,1,1,.064-.083q.206.161.414.32a.052.052,0,0,1,.01.073A.051.051,0,0,1,7564.138,3392.23Zm-.825-.646a.053.053,0,0,1-.033-.012q-.2-.164-.406-.331a.052.052,0,0,1,.066-.081q.2.167.406.331a.052.052,0,0,1-.033.093Zm-.808-.667a.055.055,0,0,1-.034-.012q-.2-.17-.4-.342a.052.052,0,0,1,.069-.079q.2.172.4.341a.053.053,0,0,1,.006.074A.051.051,0,0,1,7562.505,3390.917Zm-.791-.687a.052.052,0,0,1-.035-.013q-.2-.175-.39-.352a.052.052,0,0,1,.07-.077q.194.177.389.351a.052.052,0,0,1,0,.074A.053.053,0,0,1,7561.714,3390.229Zm-.774-.707a.052.052,0,0,1-.036-.014c-.128-.12-.254-.24-.381-.361a.053.053,0,0,1,0-.074.052.052,0,0,1,.074,0q.189.181.38.36a.052.052,0,0,1-.036.091Zm-.756-.726a.052.052,0,0,1-.037-.015q-.187-.184-.371-.37a.052.052,0,1,1,.074-.074q.185.186.37.37a.052.052,0,0,1-.037.09Zm-.737-.744a.052.052,0,0,1-.038-.016q-.182-.189-.362-.379a.053.053,0,0,1,.077-.072q.179.19.361.379a.052.052,0,0,1-.038.089Zm-.718-.763a.053.053,0,0,1-.039-.017q-.177-.193-.353-.388a.053.053,0,0,1,0-.074.052.052,0,0,1,.074,0c.117.13.233.259.352.387a.053.053,0,0,1,0,.074A.054.054,0,0,1,7558.729,3387.289Zm-.7-.78a.053.053,0,0,1-.04-.018q-.173-.2-.343-.4a.052.052,0,1,1,.08-.068q.17.2.342.4a.052.052,0,0,1,0,.074A.054.054,0,0,1,7558.029,3386.509Zm-.68-.8a.053.053,0,0,1-.041-.019q-.167-.2-.333-.405a.052.052,0,1,1,.082-.066q.165.2.332.4a.053.053,0,0,1-.007.074A.052.052,0,0,1,7557.349,3385.712Zm-.66-.813a.053.053,0,0,1-.041-.02q-.1-.13-.206-.262l-.117-.152a.052.052,0,1,1,.083-.064l.117.151.205.261a.052.052,0,0,1-.009.073A.05.05,0,0,1,7556.689,3384.9Zm-.64-.829a.052.052,0,0,1-.042-.021q-.157-.209-.314-.42a.052.052,0,1,1,.084-.062q.156.211.313.42a.053.053,0,0,1-.042.084Zm-.624-.843a.052.052,0,0,1-.043-.022q-.155-.212-.307-.425a.052.052,0,0,1,.012-.073.052.052,0,0,1,.073.012l.307.425a.052.052,0,0,1-.011.073A.054.054,0,0,1,7555.426,3383.227Zm-.612-.851a.053.053,0,0,1-.043-.022l-.3-.428a.052.052,0,0,1,.086-.06q.151.214.3.427a.052.052,0,0,1-.013.073A.051.051,0,0,1,7554.814,3382.376Zm-.6-.857a.053.053,0,0,1-.043-.022l-.3-.43a.052.052,0,1,1,.085-.06l.3.429a.052.052,0,0,1-.043.083Zm-.6-.859a.05.05,0,0,1-.042-.022l-.3-.429a.052.052,0,0,1,.086-.06l.3.43a.052.052,0,0,1-.013.073A.051.051,0,0,1,7553.61,3380.66Zm-.6-.858a.052.052,0,0,1-.042-.022l-.3-.428a.052.052,0,0,1,.012-.073.053.053,0,0,1,.073.012l.3.428a.052.052,0,0,1-.013.073A.054.054,0,0,1,7553.008,3379.8Zm-.606-.854a.053.053,0,0,1-.042-.022c-.1-.142-.2-.284-.307-.425a.052.052,0,1,1,.084-.062q.155.212.308.425a.052.052,0,0,1-.043.083Zm-.617-.847a.053.053,0,0,1-.042-.021q-.155-.211-.313-.419a.053.053,0,0,1,.01-.073.054.054,0,0,1,.074.01q.157.209.313.42a.052.052,0,0,1-.011.073A.052.052,0,0,1,7551.785,3378.1Zm-.631-.836a.053.053,0,0,1-.042-.02q-.16-.207-.322-.412a.052.052,0,1,1,.082-.065q.163.206.323.413a.053.053,0,0,1-.009.073A.055.055,0,0,1,7551.154,3377.265Zm-.649-.822a.053.053,0,0,1-.041-.019q-.165-.2-.333-.4a.053.053,0,0,1,.081-.067q.168.2.333.4a.052.052,0,0,1-.008.073A.051.051,0,0,1,7550.5,3376.443Zm-.673-.8a.051.051,0,0,1-.04-.018q-.171-.2-.346-.392a.052.052,0,1,1,.078-.07q.175.2.346.394a.052.052,0,0,1,0,.074A.052.052,0,0,1,7549.832,3375.64Zm-.7-.78a.052.052,0,0,1-.038-.017q-.178-.192-.36-.379a.052.052,0,1,1,.075-.073c.122.126.243.253.361.381a.052.052,0,0,1-.039.088Zm-.729-.752a.05.05,0,0,1-.036-.015q-.187-.183-.376-.364a.052.052,0,1,1,.072-.076q.191.181.377.365a.052.052,0,0,1-.037.09Zm-.762-.72a.05.05,0,0,1-.035-.013c-.129-.116-.262-.231-.395-.343a.052.052,0,1,1,.067-.08c.133.113.267.229.4.345a.053.053,0,0,1,0,.074A.053.053,0,0,1,7547.641,3373.388Zm-.8-.676a.05.05,0,0,1-.033-.012c-.135-.107-.274-.214-.415-.318a.052.052,0,0,1,.062-.084c.141.1.281.212.417.32a.052.052,0,0,1,.008.074A.051.051,0,0,1,7546.839,3372.712Zm-.842-.625a.051.051,0,0,1-.03-.009c-.143-.1-.289-.2-.434-.292a.052.052,0,0,1,.057-.088c.146.095.293.194.437.293a.053.053,0,0,1,.014.073A.054.054,0,0,1,7546,3372.087Zm-.879-.571a.052.052,0,0,1-.027-.008c-.148-.09-.3-.178-.451-.263a.053.053,0,0,1-.02-.071.052.052,0,0,1,.071-.02c.152.085.305.175.454.265a.052.052,0,0,1-.027.1Zm-.913-.514a.054.054,0,0,1-.024-.006c-.154-.08-.311-.159-.467-.233a.053.053,0,0,1,.045-.095c.157.075.314.154.47.235a.053.053,0,0,1,.022.071A.052.052,0,0,1,7544.206,3371Zm-.945-.452a.054.054,0,0,1-.021,0c-.159-.07-.321-.137-.482-.2a.052.052,0,0,1,.039-.1c.162.064.325.132.485.2a.052.052,0,0,1,.027.069A.053.053,0,0,1,7543.261,3370.55Zm-8.638-.323a.052.052,0,0,1-.022-.1c.16-.072.324-.14.487-.2a.054.054,0,0,1,.068.031.053.053,0,0,1-.031.068c-.161.061-.323.128-.481.2A.056.056,0,0,1,7534.623,3370.226Zm7.664-.062-.018,0c-.164-.058-.33-.113-.495-.165a.053.053,0,1,1,.031-.1c.166.052.334.108.5.166a.052.052,0,0,1-.017.1Zm-6.685-.309a.053.053,0,0,1-.016-.1c.167-.052.338-.1.507-.141a.053.053,0,0,1,.064.038.052.052,0,0,1-.038.063c-.168.041-.337.088-.5.139Zm5.685,0-.013,0c-.168-.045-.338-.087-.507-.124a.052.052,0,0,1-.039-.063.053.053,0,0,1,.062-.04c.169.038.341.08.511.126a.052.052,0,0,1-.014.1Zm-1.022-.229h-.009c-.171-.031-.344-.058-.515-.08a.052.052,0,0,1,.014-.1c.172.023.348.05.52.081a.051.051,0,0,1,.042.061A.052.052,0,0,1,7540.265,3369.625Zm-3.646-.021a.052.052,0,0,1-.01-.1c.172-.032.347-.059.521-.081a.052.052,0,0,1,.058.045.053.053,0,0,1-.045.059c-.172.021-.345.049-.515.08Zm2.609-.117h0c-.173-.015-.347-.025-.52-.031a.053.053,0,0,1-.051-.054.054.054,0,0,1,.054-.051c.174.006.351.017.525.032a.052.052,0,0,1,0,.1Zm-1.57-.014a.052.052,0,0,1,0-.1c.173-.012.35-.02.526-.022a.052.052,0,0,1,.053.052.052.052,0,0,1-.052.053c-.174,0-.349.01-.521.022Z" transform="translate(-342.841 -414.649)" fill="#fff"/>
    <path id="Trazado_104187" data-name="Trazado 104187" d="M7597.393,3430.913a.052.052,0,0,1,0-.1,4.863,4.863,0,0,0,.517-.038.052.052,0,0,1,.059.045.053.053,0,0,1-.045.059,4.955,4.955,0,0,1-.528.039Zm-.523-.017h0a4.947,4.947,0,0,1-.524-.074.052.052,0,1,1,.02-.1,4.843,4.843,0,0,0,.513.073.052.052,0,0,1,.048.056A.053.053,0,0,1,7596.87,3430.9Zm1.561-.117a.052.052,0,0,1-.013-.1,4.413,4.413,0,0,0,.495-.152.053.053,0,0,1,.068.031.051.051,0,0,1-.031.067,4.492,4.492,0,0,1-.507.156Zm-2.587-.087-.016,0c-.087-.028-.174-.059-.26-.092s-.157-.063-.234-.1a.053.053,0,0,1-.027-.069.052.052,0,0,1,.069-.026q.114.05.231.1c.083.032.168.062.253.09a.052.052,0,0,1-.016.1Zm3.564-.282a.052.052,0,0,1-.024-.1,3.757,3.757,0,0,0,.438-.274.051.051,0,0,1,.072.011.052.052,0,0,1-.011.073,3.771,3.771,0,0,1-.45.281A.05.05,0,0,1,7599.408,3430.41Zm-4.521-.137a.058.058,0,0,1-.026-.006c-.151-.084-.3-.177-.451-.275a.053.053,0,0,1,.058-.088c.145.1.294.188.443.271a.052.052,0,0,1-.025.1Zm5.363-.48a.051.051,0,0,1-.037-.015.052.052,0,0,1,0-.074,3.235,3.235,0,0,0,.333-.393.052.052,0,1,1,.084.061,3.219,3.219,0,0,1-.343.406A.054.054,0,0,1,7600.249,3429.792Zm-6.234-.1a.05.05,0,0,1-.032-.011c-.136-.106-.271-.22-.4-.34a.052.052,0,1,1,.07-.078c.13.118.264.231.4.335a.053.053,0,0,1,.008.073A.052.052,0,0,1,7594.015,3429.693Zm-.778-.7a.052.052,0,0,1-.038-.016c-.121-.123-.24-.253-.357-.387a.052.052,0,0,1,.005-.074.051.051,0,0,1,.073.005c.116.133.235.261.354.383a.053.053,0,0,1,0,.074A.052.052,0,0,1,7593.237,3428.992Zm-.689-.789a.053.053,0,0,1-.041-.02c-.106-.135-.213-.276-.316-.421a.052.052,0,0,1,.085-.061c.1.143.208.284.313.417a.052.052,0,0,1-.041.084Zm-.612-.851a.053.053,0,0,1-.043-.023c-.095-.144-.189-.292-.282-.444a.053.053,0,0,1,.018-.072.052.052,0,0,1,.072.017c.091.151.186.3.279.441a.052.052,0,0,1-.014.073A.053.053,0,0,1,7591.936,3427.352Zm-.546-.894a.053.053,0,0,1-.046-.027c-.086-.152-.171-.306-.254-.459a.053.053,0,0,1,.021-.071.052.052,0,0,1,.071.021c.083.153.167.306.253.457a.052.052,0,0,1-.02.072A.051.051,0,0,1,7591.39,3426.458Zm-.5-.923a.053.053,0,0,1-.047-.029q-.119-.235-.232-.471a.053.053,0,0,1,.025-.07.053.053,0,0,1,.07.024q.113.235.23.469a.052.052,0,0,1-.023.071A.049.049,0,0,1,7590.894,3425.535Zm-.453-.944a.052.052,0,0,1-.048-.031c-.072-.159-.144-.32-.212-.48a.052.052,0,0,1,.027-.069.052.052,0,0,1,.068.027q.1.24.211.478a.052.052,0,0,1-.025.07A.053.053,0,0,1,7590.441,3424.59Zm-.415-.962a.052.052,0,0,1-.049-.032c-.066-.162-.131-.325-.2-.487a.052.052,0,0,1,.03-.068.052.052,0,0,1,.067.029q.1.244.195.486a.053.053,0,0,1-.028.069A.054.054,0,0,1,7590.026,3423.628Zm-.383-.976a.053.053,0,0,1-.049-.034q-.092-.246-.18-.493a.052.052,0,1,1,.1-.035c.059.164.12.328.18.491a.053.053,0,0,1-.031.068A.052.052,0,0,1,7589.644,3422.652Zm-.354-.986a.051.051,0,0,1-.049-.036q-.086-.247-.169-.5a.053.053,0,0,1,.1-.033q.082.248.168.5a.052.052,0,0,1-.033.066A.049.049,0,0,1,7589.289,3421.666Zm-.333-.994a.053.053,0,0,1-.05-.036c-.054-.167-.106-.333-.16-.5a.052.052,0,1,1,.1-.031q.079.249.16.5a.052.052,0,0,1-.034.066Zm-.315-1a.052.052,0,0,1-.05-.037l-.154-.5a.053.053,0,0,1,.1-.031c.05.167.1.334.153.5a.052.052,0,0,1-.034.065Zm-.3-1a.053.053,0,0,1-.051-.037c-.049-.167-.1-.335-.149-.5a.053.053,0,0,1,.035-.065.052.052,0,0,1,.065.035l.15.5a.053.053,0,0,1-.035.065A.046.046,0,0,1,7588.336,3418.67Zm-.3-1a.052.052,0,0,1-.05-.038l-.148-.5a.052.052,0,1,1,.1-.03l.15.5a.053.053,0,0,1-.036.065Zm-.3-1a.054.054,0,0,1-.05-.038q-.075-.251-.151-.5a.053.053,0,0,1,.1-.03l.151.5a.052.052,0,0,1-.035.065Zm-.3-1a.052.052,0,0,1-.05-.037q-.077-.25-.156-.5a.053.053,0,0,1,.1-.031q.078.25.156.5a.053.053,0,0,1-.034.065Zm-.316-1a.052.052,0,0,1-.05-.036q-.081-.249-.164-.5a.053.053,0,0,1,.1-.033q.083.249.164.5a.053.053,0,0,1-.034.066Zm-.333-.994a.052.052,0,0,1-.05-.035c-.057-.165-.116-.329-.175-.494a.052.052,0,0,1,.031-.067.053.053,0,0,1,.068.032c.06.164.118.329.176.494a.052.052,0,0,1-.032.067A.053.053,0,0,1,7586.785,3413.666Zm-.358-.986a.052.052,0,0,1-.049-.034c-.062-.163-.125-.326-.189-.488a.052.052,0,0,1,.029-.068.053.053,0,0,1,.068.029q.1.244.188.49a.053.053,0,0,1-.031.068Zm-.385-.975a.053.053,0,0,1-.049-.032c-.067-.161-.134-.322-.2-.481a.052.052,0,1,1,.1-.042c.07.161.138.322.205.483a.052.052,0,0,1-.029.069A.051.051,0,0,1,7586.042,3411.705Zm-.417-.961a.052.052,0,0,1-.048-.031c-.073-.158-.146-.316-.222-.473a.053.053,0,0,1,.095-.046c.076.158.149.317.222.476a.052.052,0,0,1-.025.069A.057.057,0,0,1,7585.625,3410.744Zm-.454-.944a.052.052,0,0,1-.047-.029q-.118-.233-.241-.464a.052.052,0,1,1,.092-.049c.082.154.163.31.242.465a.051.051,0,0,1-.023.071A.047.047,0,0,1,7585.171,3409.8Zm-.494-.924a.052.052,0,0,1-.046-.026c-.086-.152-.173-.3-.263-.451a.052.052,0,1,1,.09-.053q.135.224.265.454a.053.053,0,0,1-.02.071A.054.054,0,0,1,7584.677,3408.876Zm-.539-.9a.051.051,0,0,1-.044-.024c-.094-.148-.19-.294-.287-.436a.052.052,0,1,1,.087-.059c.1.143.193.29.288.438a.052.052,0,0,1-.043.081Zm-.588-.866a.051.051,0,0,1-.042-.022c-.1-.142-.208-.283-.313-.418a.052.052,0,0,1,.009-.073.053.053,0,0,1,.074.01c.1.136.211.278.314.421a.052.052,0,0,1-.042.083Zm-.641-.829a.051.051,0,0,1-.04-.019c-.112-.135-.226-.268-.34-.4a.053.053,0,0,1,0-.074.052.052,0,0,1,.074,0c.115.13.23.264.342.4a.052.052,0,0,1-.007.074A.054.054,0,0,1,7582.91,3406.284Zm-.7-.783a.054.054,0,0,1-.038-.016c-.121-.126-.244-.251-.367-.371a.052.052,0,1,1,.072-.075c.125.121.25.246.371.373a.053.053,0,0,1-.039.089Zm-.752-.729a.048.048,0,0,1-.035-.014c-.13-.116-.262-.23-.4-.34a.052.052,0,1,1,.066-.081c.134.111.269.226.4.344a.052.052,0,0,1,0,.074A.05.05,0,0,1,7581.461,3404.771Zm-.808-.667a.053.053,0,0,1-.038-.015c-.136-.1-.279-.2-.418-.3a.052.052,0,0,1-.015-.073.053.053,0,0,1,.073-.015c.14.094.285.2.428.305a.054.054,0,0,1,.022.043A.052.052,0,0,1,7580.653,3404.1Zm-.873-.579a.047.047,0,0,1-.025-.007c-.155-.087-.311-.167-.462-.236a.052.052,0,1,1,.043-.1c.155.07.313.151.471.24a.053.053,0,0,1,.021.071A.055.055,0,0,1,7579.78,3403.524Zm-.955-.427-.015,0a3.831,3.831,0,0,0-.5-.126.052.052,0,1,1,.018-.1,3.807,3.807,0,0,1,.514.129.052.052,0,0,1-.017.1Zm-1.549-.134a.053.053,0,0,1-.009-.1,2.926,2.926,0,0,1,.5-.044h.029a.052.052,0,0,1,0,.1h-.029a2.785,2.785,0,0,0-.483.042Z" transform="translate(-382.753 -445.966)" fill="#fff"/>
    <text id="_30_" data-name="30춷" transform="translate(7192.045 2950.761)" fill="#000c5d" font-size="5" font-family="SegoeUI, Segoe UI"><tspan x="0" y="0">30춷</tspan></text>
  </g>
</svg>
