<svg xmlns="http://www.w3.org/2000/svg" width="55.368" height="52.636" viewBox="0 0 55.368 52.636">
  <g id="Grupo_79886" data-name="Grupo 79886" transform="translate(0)">
    <path id="Trazado_17148" data-name="Trazado 17148" d="M55.268,124.864a4.714,4.714,0,0,0-5.667-3.636l-5.771,1.321v-2.359a22.8,22.8,0,0,0,3.22-3.815,22.365,22.365,0,0,0,3.161-7.445,22.813,22.813,0,0,0,.044-9.684,1.082,1.082,0,0,0-2.115.453,20.623,20.623,0,0,1-.039,8.759,20.211,20.211,0,0,1-2.857,6.728,19.252,19.252,0,0,1-1.413,1.865V105.064a1.081,1.081,0,0,0-1.081-1.081H34.193V92.434a1.082,1.082,0,0,0-1.078-1.081L23.48,91.32h0A1.082,1.082,0,0,0,22.4,92.4v6.007H13.839a1.082,1.082,0,0,0-1.081,1.081V110.2h-2.41v-1.469a1.081,1.081,0,0,0-1.081-1.081H8.158a20.467,20.467,0,0,1,.883-10.606c.2-.556.43-1.11.68-1.647a1.081,1.081,0,1,0-1.96-.913c-.277.594-.53,1.207-.753,1.822A22.6,22.6,0,0,0,5.964,107.65H1.081A1.081,1.081,0,0,0,0,108.731v19.008a1.081,1.081,0,0,0,1.081,1.081H9.267a1.081,1.081,0,0,0,1.081-1.081v-1.028h4.068l16.478,6.463a13.016,13.016,0,0,0,8,.5l12.916-3.283a4.7,4.7,0,0,0,3.454-5.528Zm-13.6-18.719v16.9l-2.891.662c-.311.071-.625.127-.941.171a10.978,10.978,0,0,1-3.626-.105l-.015,0v-1.64a5.008,5.008,0,0,0,.666-4.213,4.856,4.856,0,0,0-.509-1.134q-.074-.12-.155-.236l0,0v-10.4h7.474ZM24.558,93.487l7.473.025v21.314L27.854,113.1l-3.3-1.365Zm-9.637,7.085h7.473v10.264l-1.341-.555a1.08,1.08,0,0,0-.414-.082H14.921ZM8.185,126.658H2.162V109.812H8.185Zm43.1,1.638-12.916,3.283a10.868,10.868,0,0,1-6.681-.418l-16.669-6.538a1.08,1.08,0,0,0-.395-.074H10.348V112.362H20.423l7,2.9,3.829,1.585a2.705,2.705,0,0,1,1.448,3.5,3.092,3.092,0,0,1-.433.76,2.788,2.788,0,0,1-2.834.978l-.025-.006c-.063-.016-.125-.034-.186-.054l-7.276-2.8-.09-.035a1.081,1.081,0,1,0-.776,2.019s4.1,1.577,7.231,2.784c.063.024.125.047.188.068l2.4.924a19.863,19.863,0,0,0,2.2.75,13.12,13.12,0,0,0,6.157.077l3.73-.854.011,0,7.082-1.621a2.551,2.551,0,0,1,1.2,4.959Zm0,0" transform="translate(0 -81.445)" fill="#97181a"/>
    <path id="Trazado_17149" data-name="Trazado 17149" d="M118.958,7.692a1.077,1.077,0,0,0,.724-.279A20.321,20.321,0,0,1,134.7,2.206a20.283,20.283,0,0,1,5.9,1.284,1.081,1.081,0,0,0,.77-2.021A22.441,22.441,0,0,0,134.84.048a22.486,22.486,0,0,0-16.606,5.759,1.081,1.081,0,0,0,.725,1.884Zm0,0" transform="translate(-105.129 0)" fill="#97181a"/>
    <path id="Trazado_17150" data-name="Trazado 17150" d="M351.818,42.379a1.082,1.082,0,0,0,1.526-.107l8.9-10.242a1.081,1.081,0,1,0-1.632-1.419l-8.9,10.242A1.081,1.081,0,0,0,351.818,42.379Zm0,0" transform="translate(-313.44 -26.97)" fill="#97181a"/>
    <path id="Trazado_17151" data-name="Trazado 17151" d="M406.226,99.738a2.715,2.715,0,1,0,2.715,2.715A2.718,2.718,0,0,0,406.226,99.738Zm0,3.267a.552.552,0,1,1,.552-.552A.553.553,0,0,1,406.226,103.005Zm0,0" transform="translate(-359.875 -88.953)" fill="#97181a"/>
    <path id="Trazado_17152" data-name="Trazado 17152" d="M350.7,32.7a2.715,2.715,0,1,0-2.715-2.715A2.718,2.718,0,0,0,350.7,32.7Zm0-3.267a.552.552,0,1,1-.552.553A.553.553,0,0,1,350.7,29.428Zm0,0" transform="translate(-310.349 -24.317)" fill="#97181a"/>
    <path id="Trazado_17153" data-name="Trazado 17153" d="M91.662,82.318a1.081,1.081,0,1,0,.4-1.313,1.09,1.09,0,0,0-.4,1.313Zm0,0" transform="translate(-81.677 -72.085)" fill="#97181a"/>
  </g>
</svg>
