<svg xmlns="http://www.w3.org/2000/svg" width="57.276" height="57.137" viewBox="0 0 57.276 57.137">
  <g id="Grupo_81868" data-name="Grupo 81868" transform="translate(-1024.5 -16518.648)">
    <g id="Grupo_81867" data-name="Grupo 81867">
      <g id="Grupo_81449" data-name="Grupo 81449" transform="translate(1025 16519.148)">
        <g id="Grupo_81448" data-name="Grupo 81448">
          <g id="Grupo_81433" data-name="Grupo 81433" transform="translate(6.257)">
            <g id="Grupo_81429" data-name="Grupo 81429" transform="translate(16.71)">
              <path id="Trazado_140527" data-name="Trazado 140527" d="M528.65,300.056h-.007a.46.46,0,0,1-.328-.143c-.148-.155-.3-.31-.464-.465a16.656,16.656,0,1,1,22.73.362.485.485,0,0,1-.338.119.46.46,0,0,1-.322-.159l-.083-.1a.467.467,0,0,1-.112-.3v-.416a5.782,5.782,0,0,0-5.776-5.776H542.4l-2.533,5.132a.46.46,0,0,1-.414.257h0a.463.463,0,0,1-.414-.257l-2.534-5.126H534.63a5.766,5.766,0,0,0-5.454,5.769v.576a.462.462,0,0,1-.137.328l-.063.063A.46.46,0,0,1,528.65,300.056Zm10.758-28.343a15.742,15.742,0,0,0-11.146,26.843,6.693,6.693,0,0,1,6.344-6.292h2.183a.462.462,0,0,1,.414.258l2.246,4.543,2.247-4.552a.461.461,0,0,1,.414-.256h1.839a6.708,6.708,0,0,1,6.683,6.223,15.739,15.739,0,0,0-11.224-26.767Zm.048,17.675a6.205,6.205,0,1,1,6.206-6.2A6.219,6.219,0,0,1,539.457,289.388Zm0-11.487a5.282,5.282,0,1,0,5.282,5.283A5.294,5.294,0,0,0,539.457,277.9Z" transform="translate(-522.758 -270.79)" fill="#97181a" stroke="#97181a" stroke-width="1"/>
            </g>
            <g id="Grupo_81430" data-name="Grupo 81430" transform="translate(27.191 6.188)">
              <path id="Trazado_140528" data-name="Trazado 140528" d="M543.723,291.908a6.205,6.205,0,1,1,6.206-6.2A6.219,6.219,0,0,1,543.723,291.908Zm0-11.487a5.282,5.282,0,1,0,5.282,5.283A5.294,5.294,0,0,0,543.723,280.42Z" transform="translate(-537.505 -279.497)" fill="#97181a" stroke="#97181a" stroke-width="1"/>
            </g>
            <g id="Grupo_81431" data-name="Grupo 81431" transform="translate(0 46.073)">
              <path id="Trazado_140529" data-name="Trazado 140529" d="M509.646,345.683a16.48,16.48,0,0,1-10.223-3.508.462.462,0,0,1-.076-.654l.085-.106a6.69,6.69,0,0,1,6.269-5.788h2.139a.464.464,0,0,1,.414.257l2.218,4.489,2.219-4.5a.46.46,0,0,1,.414-.258h1.826a6.689,6.689,0,0,1,6.321,4.626l.043.047a.461.461,0,0,1-.013.646A16.544,16.544,0,0,1,509.646,345.683Zm-9.32-3.983a15.724,15.724,0,0,0,20.047-1.17,5.76,5.76,0,0,0-5.442-3.988h-1.539l-2.506,5.077a.463.463,0,0,1-.414.257h0a.462.462,0,0,1-.414-.257l-2.5-5.07h-1.831a5.754,5.754,0,0,0-5.388,5.1C500.332,341.668,500.329,341.684,500.326,341.7Z" transform="translate(-499.245 -335.62)" fill="#97181a" stroke="#97181a" stroke-width="1"/>
            </g>
            <g id="Grupo_81432" data-name="Grupo 81432" transform="translate(5.022 32.134)">
              <path id="Trazado_140530" data-name="Trazado 140530" d="M512.516,328.417a6.206,6.206,0,1,1,6.206-6.206A6.212,6.212,0,0,1,512.516,328.417Zm0-11.487a5.282,5.282,0,1,0,5.282,5.282A5.287,5.287,0,0,0,512.516,316.93Z" transform="translate(-506.311 -316.006)" fill="#97181a" stroke="#97181a" stroke-width="1"/>
            </g>
          </g>
          <g id="Grupo_81447" data-name="Grupo 81447">
            <g id="Grupo_81434" data-name="Grupo 81434">
              <path id="Trazado_140531" data-name="Trazado 140531" d="M507.1,326.927a16.661,16.661,0,0,1-16.658-16.665A16.656,16.656,0,0,1,507.1,293.6a.462.462,0,1,1,0,.924,15.737,15.737,0,0,0-9.655,28.161,15.735,15.735,0,0,0,25.388-12.428,14.284,14.284,0,0,0-3.866-10.348c-.148-.155-.3-.31-.464-.465a16.655,16.655,0,1,1,11.557,4.664.462.462,0,1,1,0-.924,15.725,15.725,0,1,0-10.916-4.406c.171.164.336.328.493.493a15.169,15.169,0,0,1,4.121,10.986A16.667,16.667,0,0,1,507.1,326.927Z" transform="translate(-490.441 -270.79)" fill="#97181a" stroke="#97181a" stroke-width="1"/>
            </g>
            <g id="Grupo_81435" data-name="Grupo 81435" transform="translate(19.661 46.073)">
              <path id="Trazado_140532" data-name="Trazado 140532" d="M526.3,340.947a.461.461,0,0,1-.442-.328,5.76,5.76,0,0,0-5.47-4.076h-1.819a.462.462,0,1,1,0-.923h1.819a6.689,6.689,0,0,1,6.354,4.732.463.463,0,0,1-.442.6Z" transform="translate(-518.106 -335.62)" fill="#97181a" stroke="#97181a" stroke-width="1"/>
            </g>
            <g id="Grupo_81436" data-name="Grupo 81436" transform="translate(6.424 46.073)">
              <path id="Trazado_140533" data-name="Trazado 140533" d="M499.943,342.064l-.05,0a.463.463,0,0,1-.411-.509,6.69,6.69,0,0,1,6.285-5.926c.1-.007.212-.007.32-.007H507.9a.462.462,0,1,1,0,.923h-1.814c-.081,0-.179,0-.264.006a5.76,5.76,0,0,0-5.422,5.1A.462.462,0,0,1,499.943,342.064Z" transform="translate(-499.48 -335.62)" fill="#97181a" stroke="#97181a" stroke-width="1"/>
            </g>
            <g id="Grupo_81437" data-name="Grupo 81437" transform="translate(14.389 46.06)">
              <path id="Trazado_140534" data-name="Trazado 140534" d="M513.782,341.871h0a.462.462,0,0,1-.414-.257l-2.632-5.327a.462.462,0,0,1,.829-.409l2.218,4.489,2.2-4.455a.4.4,0,0,1,.026-.059.468.468,0,0,1,.628-.2.457.457,0,0,1,.219.569.366.366,0,0,1-.023.058l-2.633,5.335A.463.463,0,0,1,513.782,341.871Z" transform="translate(-510.688 -335.601)" fill="#97181a" stroke="#97181a" stroke-width="1"/>
            </g>
            <g id="Grupo_81438" data-name="Grupo 81438" transform="translate(11.278 32.134)">
              <path id="Trazado_140535" data-name="Trazado 140535" d="M512.516,328.417a6.206,6.206,0,1,1,6.206-6.206A6.212,6.212,0,0,1,512.516,328.417Zm0-11.487a5.282,5.282,0,1,0,5.282,5.282A5.287,5.287,0,0,0,512.516,316.93Z" transform="translate(-506.311 -316.006)" fill="#97181a" stroke="#97181a" stroke-width="1"/>
            </g>
            <g id="Grupo_81439" data-name="Grupo 81439" transform="translate(41.864 21.467)">
              <path id="Trazado_140536" data-name="Trazado 140536" d="M557.88,308.573a.462.462,0,0,1-.462-.462v-.416a5.782,5.782,0,0,0-5.776-5.776H549.81a.462.462,0,1,1,0-.923h1.833a6.707,6.707,0,0,1,6.7,6.7v.416A.462.462,0,0,1,557.88,308.573Z" transform="translate(-549.348 -300.996)" fill="#97181a" stroke="#97181a" stroke-width="1"/>
            </g>
            <g id="Grupo_81440" data-name="Grupo 81440" transform="translate(28.46 21.467)">
              <path id="Trazado_140537" data-name="Trazado 140537" d="M530.95,308.732a.462.462,0,0,1-.463-.462v-.576A6.694,6.694,0,0,1,536.843,301c.107-.007.229-.007.343-.007h1.834a.462.462,0,1,1,0,.923h-1.834c-.092,0-.194,0-.289.006a5.771,5.771,0,0,0-5.485,5.769v.576A.462.462,0,0,1,530.95,308.732Z" transform="translate(-530.487 -300.996)" fill="#97181a" stroke="#97181a" stroke-width="1"/>
            </g>
            <g id="Grupo_81441" data-name="Grupo 81441" transform="translate(36.537 21.46)">
              <path id="Trazado_140538" data-name="Trazado 140538" d="M544.975,307.306a.463.463,0,0,1-.414-.257l-2.661-5.383a.462.462,0,1,1,.829-.409l2.246,4.543,2.248-4.552a.468.468,0,0,1,.605-.223.456.456,0,0,1,.243.586l-2.681,5.437a.461.461,0,0,1-.414.257Z" transform="translate(-541.852 -300.987)" fill="#97181a" stroke="#97181a" stroke-width="1"/>
            </g>
            <g id="Grupo_81442" data-name="Grupo 81442" transform="translate(33.447 6.188)">
              <path id="Trazado_140539" data-name="Trazado 140539" d="M543.723,291.908a6.205,6.205,0,1,1,6.206-6.2A6.219,6.219,0,0,1,543.723,291.908Zm0-11.487a5.282,5.282,0,1,0,5.282,5.283A5.294,5.294,0,0,0,543.723,280.42Z" transform="translate(-537.505 -279.497)" fill="#97181a" stroke="#97181a" stroke-width="1"/>
            </g>
            <g id="Grupo_81443" data-name="Grupo 81443" transform="translate(1.834 22.814)">
              <path id="Trazado_140540" data-name="Trazado 140540" d="M507.845,303.816H493.483a.462.462,0,0,1,0-.924h14.362a.462.462,0,1,1,0,.924Z" transform="translate(-493.021 -302.892)" fill="#97181a" stroke="#97181a" stroke-width="1"/>
            </g>
            <g id="Grupo_81444" data-name="Grupo 81444" transform="translate(1.508 20.182)">
              <path id="Trazado_140541" data-name="Trazado 140541" d="M495.259,305.383a.461.461,0,0,1-.353-.164l-2.235-2.639a.462.462,0,0,1,0-.6l2.235-2.632a.462.462,0,1,1,.7.6l-1.982,2.333,1.983,2.34a.462.462,0,0,1-.353.76Z" transform="translate(-492.562 -299.189)" fill="#97181a" stroke="#97181a" stroke-width="1"/>
            </g>
            <g id="Grupo_81445" data-name="Grupo 81445" transform="translate(39.155 32.398)">
              <path id="Trazado_140542" data-name="Trazado 140542" d="M560.369,317.3H546a.462.462,0,1,1,0-.924h14.37a.462.462,0,1,1,0,.924Z" transform="translate(-545.536 -316.378)" fill="#97181a" stroke="#97181a" stroke-width="1"/>
            </g>
            <g id="Grupo_81446" data-name="Grupo 81446" transform="translate(51.802 29.759)">
              <path id="Trazado_140543" data-name="Trazado 140543" d="M563.794,318.859a.462.462,0,0,1-.352-.761l1.988-2.332-1.988-2.34a.462.462,0,0,1,.7-.6l2.243,2.639a.463.463,0,0,1,0,.6l-2.243,2.632A.462.462,0,0,1,563.794,318.859Z" transform="translate(-563.332 -312.664)" fill="#97181a" stroke="#97181a" stroke-width="1"/>
            </g>
          </g>
        </g>
      </g>
    </g>
  </g>
</svg>
