<svg xmlns="http://www.w3.org/2000/svg" width="317.154" height="318.356" viewBox="0 0 317.154 318.356">
  <g id="Grupo_12505" data-name="Grupo 12505" transform="translate(225.561 -99.749)">
    <g id="Grupo_12473" data-name="Grupo 12473">
      <g id="Grupo_12471" data-name="Grupo 12471">
        <path id="Trazado_11239" data-name="Trazado 11239" d="M-185.4,100.534a45.553,45.553,0,0,0-36.286,53.14,45.55,45.55,0,0,0,53.136,36.286,45.558,45.558,0,0,0,36.287-53.136A45.556,45.556,0,0,0-185.4,100.534Z" fill="#e9f4ff"/>
      </g>
      <g id="Grupo_12472" data-name="Grupo 12472">
        <path id="Trazado_11240" data-name="Trazado 11240" d="M-136.531,124.576l-2.434,7.638-3.976,14.373-5.692-7.4-5.345,5.288-5.536-6.61-2.664,5.125-1.856-.1-6.093-1.132,2.225,5.7,4.675.9-4.031,20.063-2.931,2.774-4.371-6.336-4.214-11.212-5.755.84-3.271-3.829,1.526-9.474,4.558-2.02,3.337,1.39,6.7-3.045-8.533-2.789-6.66.122-.706-1.883,5.539-4.775-3.413-3.568,5.228-6.925,7.182,1.09,10.524-5.61s4.119-3.3,8.729-6.955A45.547,45.547,0,0,1-136.531,124.576Z" fill="#d4e8ff"/>
        <path id="Trazado_11241" data-name="Trazado 11241" d="M-211.589,115.824l-1.715,4.869L-216.2,129.6a.711.711,0,0,0,.15.688l4.037,4.372a.781.781,0,0,0,.651.207.715.715,0,0,0,.517-.437l1.795-4.79,6.483,5.409-8.479,11.055-5.674,1.637a.71.71,0,0,0-.5.57l-.566,3.768a.7.7,0,0,0,.228.634l4.794,4.185-6.773-1.687-2.179-1.812A45.388,45.388,0,0,1-211.589,115.824Z" fill="#d4e8ff"/>
        <path id="Trazado_11242" data-name="Trazado 11242" d="M-202.529,170.7l-5.413-6.95,2.358-10.072,14.212,8.684-6.241,22.943-2.993-4.366L-202.393,171A.711.711,0,0,0-202.529,170.7Z" fill="#d4e8ff"/>
        <path id="Trazado_11243" data-name="Trazado 11243" d="M-200.242,126.6l-7.037-9.583c6.587-5.09,11.322-6.846,13.171-7.387l-.319,10.126Z" fill="#d4e8ff"/>
      </g>
    </g>
    <path id="Trazado_11357" data-name="Trazado 11357" d="M-82.813,122.528A117.722,117.722,0,0,1,34.909,240.25,117.722,117.722,0,0,1-82.813,357.972,117.722,117.722,0,0,1-200.535,240.25h0A117.722,117.722,0,0,1-82.813,122.528Z" fill="#fec70f"/>
    <g id="Grupo_12478" data-name="Grupo 12478">
      <g id="Grupo_12474" data-name="Grupo 12474">
        <path id="Trazado_11244" data-name="Trazado 11244" d="M-19.7,220.172A57.885,57.885,0,0,0,2.7,177.308c.064-1.069.115-2.141.135-3.231v-.011a57.287,57.287,0,0,0-2.68-18.615c-.057-.169-.12-.331-.169-.5.049.165.109.322.16.487l-17.716,5.486A41.481,41.481,0,0,1-15.717,173.8h0a41.535,41.535,0,0,1-17.624,33.4l10.693,15.165C-21.639,221.662-20.656,220.925-19.7,220.172Z" fill="#971d18"/>
        <path id="Trazado_11245" data-name="Trazado 11245" d="M-91.305,197.187a41.432,41.432,0,0,1-7.6-24.557,41.6,41.6,0,0,1,42.186-41.006h0a41.607,41.607,0,0,1,39.153,29.3L.15,155.438c-.051-.165-.111-.322-.16-.487-.239-.747-.484-1.481-.745-2.211-.074-.206-.158-.413-.233-.623A59.04,59.04,0,0,0-54,113.154c-.573-.031-1.139-.043-1.71-.056-.252-.007-.5-.023-.754-.03-.046,0-.092.006-.144.006-.8-.008-1.6,0-2.408.023-.237.011-.477.008-.717.02-.629.024-1.25.071-1.873.115-.435.028-.868.054-1.3.1-.347.033-.7.08-1.037.117-.718.081-1.439.162-2.152.262-.04.008-.079.016-.122.022a60.072,60.072,0,0,0-14.671,4.148c-.567.246-1.138.485-1.7.745a.282.282,0,0,0-.049.025,60.161,60.161,0,0,0-34.389,47.427c-.017.12-.029.239-.042.358-.082.709-.142,1.425-.2,2.136-.027.368-.054.731-.076,1.1-.034.478-.042.965-.061,1.449-.01.42-.039.83-.046,1.251a59.855,59.855,0,0,0,10.99,35.509Z" fill="#f9a21c"/>
        <path id="Trazado_11246" data-name="Trazado 11246" d="M-22.646,222.373l-10.693-15.165a41.4,41.4,0,0,1-24.56,7.6h0a41.523,41.523,0,0,1-33.406-17.624l-15.163,10.69.014.015c.675.96,1.376,1.892,2.09,2.8a57.748,57.748,0,0,0,40.012,22.277c.11.01.22.017.332.029.822.087,1.648.17,2.485.223a.721.721,0,0,1,.135.008c.243.016.493.016.735.028.835.049,1.664.1,2.507.112a59.855,59.855,0,0,0,34.9-10.552C-22.041,221.978-21.639,221.662-22.646,222.373Z" fill="#e9f4ff"/>
      </g>
      <g id="Grupo_12477" data-name="Grupo 12477">
        <g id="Grupo_12476" data-name="Grupo 12476">
          <g id="Grupo_12475" data-name="Grupo 12475">
            <path id="Trazado_11247" data-name="Trazado 11247" d="M-56.1,172.422,9.3,193.677a68.766,68.766,0,0,0-44.148-86.65h0A65.446,65.446,0,0,0-56.1,103.664Z" fill="#d64e26"/>
          </g>
        </g>
      </g>
    </g>
    <g id="Grupo_12482" data-name="Grupo 12482">
      <path id="Trazado_11248" data-name="Trazado 11248" d="M-127.787,267.485l-24.646.632-5.477,26.331s27.806.843,33.073-2.317S-127.787,267.485-127.787,267.485Z" fill="#004ccb"/>
      <g id="Grupo_12479" data-name="Grupo 12479">
        <path id="Trazado_11249" data-name="Trazado 11249" d="M-125.376,245.27c4.8,4.033,10.449,24.29,10.449,24.29s2.588,13.514-11.779-16.521C-130.265,245.587-126.56,244.275-125.376,245.27Z" fill="#e9d8b8"/>
        <path id="Trazado_11250" data-name="Trazado 11250" d="M-112.768,288.239l1.356-2.344.551-2.144-.492-3.563a23.922,23.922,0,0,0-1.862-4.965c-.874-1.262-1.949-6.834-2.3-7.47s-4.122-2.094-4.122-2.094,2.875,6.8,3.794,9.035,1.129,5.886,1.458,6.777a10.57,10.57,0,0,0,1.426,2.622s-.444-2.506-.636-3.148.626-.518.626-.518a21.087,21.087,0,0,1,.856,4.359,5.725,5.725,0,0,1-.567,1.819Z" fill="#e9d8b8"/>
        <path id="Trazado_11251" data-name="Trazado 11251" d="M-132.169,232.705l6.415,28.853.21,1.7,8.3-1.524c-5.89-16.615-7.16-19.9-7.661-23.039-.182-1.144-1.552-10.511-1.642-12.222a9.528,9.528,0,0,0-6-8.728C-137.75,215.454-132.169,232.705-132.169,232.705Z" fill="#3867ff"/>
      </g>
      <g id="Grupo_12481" data-name="Grupo 12481">
        <path id="Trazado_11252" data-name="Trazado 11252" d="M-149.615,214.526A11.6,11.6,0,0,0-137.894,226a11.6,11.6,0,0,0,11.721-11.477,11.6,11.6,0,0,0-11.721-11.477A11.6,11.6,0,0,0-149.615,214.526Z" fill="#163759"/>
        <g id="Grupo_12480" data-name="Grupo 12480">
          <path id="Trazado_11253" data-name="Trazado 11253" d="M-140.259,369.051l-.122,14.041s5.006,6.1,6.837,7.08,1.588.122,1.466-.366-3.176-4.029-3.663-5.982.61-13.918.487-14.529S-140.259,369.051-140.259,369.051Z" fill="#e9d8b8"/>
          <path id="Trazado_11254" data-name="Trazado 11254" d="M-153.445,370.516a102.89,102.89,0,0,0-1.954,10.622c-.122,2.686.367,3.541-.366,4.4s-5.86,7.57-7.081,7.57a1.2,1.2,0,0,1-1.221-1.179v-.042s4.029-5.127,4.64-7.081.733-12.819.733-13.918S-153.445,370.516-153.445,370.516Z" fill="#e9d8b8"/>
          <path id="Trazado_11255" data-name="Trazado 11255" d="M-155.234,246.834s1.969.254.934,10.8-4.924,25.794-4.924,25.794l.318-24.527S-158.377,249.52-155.234,246.834Z" fill="#e9d8b8"/>
          <path id="Trazado_11256" data-name="Trazado 11256" d="M-138.712,271.864l-.815,50.465-1.627,48.349,7.162.325s5.047-48.836,5.7-53.07,7.977-38.255,3.744-46.72S-138.712,271.864-138.712,271.864Z" fill="#193f66"/>
          <path id="Trazado_11257" data-name="Trazado 11257" d="M-124.55,271.213a7.5,7.5,0,0,1,.356.849c-4.589,7.129-8.911,13.154-9.9,14.693-.566.881-2.459,4.1-4.993,8.444l.377-23.335S-128.782,262.749-124.55,271.213Z" fill="#163759"/>
          <path id="Trazado_11258" data-name="Trazado 11258" d="M-155.317,270.725s-2.116,21.489-2.116,36.14-1.465,57.464-1.465,57.464v7.489l5.534-.163,8.628-54.7,7.162-46.233Z" fill="#193f66"/>
          <path id="Trazado_11259" data-name="Trazado 11259" d="M-157.922,213.994A11.6,11.6,0,0,0-146.2,225.471h0a11.6,11.6,0,0,0,11.72-11.477,11.6,11.6,0,0,0-11.72-11.477,11.6,11.6,0,0,0-11.722,11.477Z" fill="#163759"/>
          <path id="Trazado_11260" data-name="Trazado 11260" d="M-149.781,202.069c0,6.046,4.591,10.947,10.255,10.947s10.257-4.9,10.257-10.947-4.592-10.948-10.257-10.948S-149.781,196.023-149.781,202.069Z" fill="#163759"/>
          <path id="Trazado_11261" data-name="Trazado 11261" d="M-137.735,205.284s-.976,5.861-.162,7.489,6.348,5.372,7.163,6.512-1.628,9.931-9.6,8.627-15.139-6.348-15.139-7.651.163-2.6,2.767-3.581,6.837-1.628,7.977-2.93a9.657,9.657,0,0,0,1.79-7.977C-143.759,202.354-137.735,205.284-137.735,205.284Z" fill="#e9d8b8"/>
          <path id="Trazado_11262" data-name="Trazado 11262" d="M-151.491,232.551l-2.808,29.426v1.708l-8.425-.488s2.443-22.709,2.808-23.808a94.526,94.526,0,0,0,1.1-12.332c-.122-1.709.245-10.255,5.861-9.4S-151.491,232.551-151.491,232.551Z" fill="#3867ff"/>
          <path id="Trazado_11263" data-name="Trazado 11263" d="M-142.073,193.607c.167-.047.336-.085.511-.117a11.021,11.021,0,0,0,4.432,6.265,14.686,14.686,0,0,0,1.837,1.182v1.889a5.18,5.18,0,0,1-5.291,5.063,5.18,5.18,0,0,1-5.291-5.063v-4.257A11.315,11.315,0,0,0-142.073,193.607Z" fill="#e9d8b8"/>
          <path id="Trazado_11264" data-name="Trazado 11264" d="M-153.078,272.476h26.246l-3.79-22.25.86-26.1a36.727,36.727,0,0,1-9.157,2.149c-2.8.177-8.791-2.149-8.791-2.149Z" fill="#8dc2ff"/>
          <path id="Trazado_11265" data-name="Trazado 11265" d="M-159.434,283.754a29.192,29.192,0,0,0,1.034,4.6c.288.49,2.028,2.573,2.028,2.573a5.3,5.3,0,0,0-.763-2.326A44.444,44.444,0,0,1-159.434,283.754Z" fill="#e9d8b8"/>
          <path id="Trazado_11266" data-name="Trazado 11266" d="M-128.376,221.075s-.814,16.115-.325,21.976,3.551,16.536,4.987,28.226c.942,7.677.865,20.832.865,20.832a12.654,12.654,0,0,1-3.256,1.465c-1.139.163-3.312-.935-4.069-4.883-.937-4.884-3.325-39.5-3.9-42.546-.814-4.314-.227-16.792-.315-18.543-.063-1.249-.888-6.422-.562-7.724a17.941,17.941,0,0,0,.062-4.175S-129.678,217.982-128.376,221.075Z" fill="#004ccb"/>
          <path id="Trazado_11267" data-name="Trazado 11267" d="M-146.6,214.681a6,6,0,0,0,1.829,2.364c.977.489.488,5.861,0,6.594s-1.343,17.214-1.466,21.121-2.14,39.155-2.75,41.964-.245,6.1-3.175,7.2a21.956,21.956,0,0,1-6.593,1.1s2.995-29.51,3.728-32.807,3.052-11.232,3.3-16.238-.488-12.575-.732-16.6-2.442-10.5-2.686-11.232S-147.582,215.047-146.6,214.681Z" fill="#004ccb"/>
          <path id="Trazado_11268" data-name="Trazado 11268" d="M-140.5,382.363a3.057,3.057,0,0,0-.349,1.757c.113.733.716,2.881.716,2.881l1.342.61v-.975a31.341,31.341,0,0,0,3.664,3.784c1.221.855,3.78,2.983,5.25,2.443a.891.891,0,0,0,.488-.611s-2.321-2.565-2.685-2.93-1.222.365-2.2-.244a36.164,36.164,0,0,1-4.518-4.15A15.317,15.317,0,0,1-140.5,382.363Z" fill="#161711"/>
          <path id="Trazado_11269" data-name="Trazado 11269" d="M-155.358,383.684a4.857,4.857,0,0,1,.14,1.816,8.813,8.813,0,0,1-.665,1.906l-1.224.692a32.158,32.158,0,0,1-3.426,3.7c-1.134.854-3.512,2.985-4.878,2.443a.891.891,0,0,1-.453-.611s2.155-2.563,2.5-2.93,1.134.367,2.041-.244a34.458,34.458,0,0,0,4.2-4.152A25.923,25.923,0,0,0-155.358,383.684Z" fill="#161711"/>
          <path id="Trazado_11270" data-name="Trazado 11270" d="M-157.361,275.177c-.572,5.007,1.464,7.4,1.945,9.459a36.382,36.382,0,0,0,1.318,4.155c-1.82-1.324-1.691-2.948-2.231-3.824s-.245-.633-.569,1.135c-.186,1.006,1.238,2.963,1.991,4.343a4.287,4.287,0,0,1,.636,1.9,20.717,20.717,0,0,1-2.63-3.267,25.857,25.857,0,0,1-2.566-5.382,21.583,21.583,0,0,1,.58-6.822C-158.255,274.215-156.95,271.57-157.361,275.177Z" fill="#e9d8b8"/>
        </g>
      </g>
      <path id="Trazado_11271" data-name="Trazado 11271" d="M-136.354,214.4a49.193,49.193,0,0,0,.561,7.724c.558,4.688,1.264,4.634,1.124,12.639a117.382,117.382,0,0,0,1.685,18.4S-132.5,235-132,229.991c.281-2.809.281-6.179.281-6.179l-2.808-2.387,2.668.843a25.517,25.517,0,0,1-.842-3.371,14.7,14.7,0,0,0-.984-3.23Z" fill="#3867ff"/>
      <path id="Trazado_11272" data-name="Trazado 11272" d="M-145.016,213.749l-2.432,1.213-.14,5.337,1.685.141-1.966,1.264,1.123,31.177s.422-1.123.562-9.409a171.489,171.489,0,0,1,1.965-22.751Z" fill="#3867ff"/>
    </g>
    <g id="Grupo_12484" data-name="Grupo 12484">
      <path id="Trazado_11273" data-name="Trazado 11273" d="M77.867,391.693l.416,4.858.89,4.035,1.636,1.085,1.23.37.355.683,4.245,2.808a7.377,7.377,0,0,0,4.716.287c.668-.16-.261-1.978-.5-2.252a33.573,33.573,0,0,0-3.383-3.3l-3.311-4.076-3.743-5.1Z" fill="#161711"/>
      <path id="Trazado_11274" data-name="Trazado 11274" d="M40.042,386.409l1.061,1.947.575,2.194-.078,3.5-1.884.278-1.429-.3-.93.656S32.01,395.752,30,395.826c-3.331.115-5.157-.221-5.813-.866-.366-.358,1.184-1.069,1.7-1.144a19.619,19.619,0,0,0,6.066-2.362l2.433-2.762.466-1.951Z" fill="#161711"/>
      <path id="Trazado_11275" data-name="Trazado 11275" d="M54.961,280.584l30.652,115.4-7.787.5L62.949,359.769l-3.6-11.071L41.666,305.262,38.26,281.371Z" fill="#0241a2"/>
      <path id="Trazado_11276" data-name="Trazado 11276" d="M41.507,386.759l-2.2-44.364,1.934-20.331,2.349-27.9-3.554-18.679-12.175,1.95-1.375,30.087.756,28.535.6,10.753,4.6,42.344Z" fill="#0241a2"/>
      <path id="Trazado_11277" data-name="Trazado 11277" d="M8.109,232.236s-7.015-1.757-15.148-12.629c-2.747-3.671-1.514.212-1.261,4.647S-.444,236.165,8.4,239.1,8.109,232.236,8.109,232.236Z" fill="#e9d8b8"/>
      <path id="Trazado_11278" data-name="Trazado 11278" d="M-6.489,222.385s1.654-4.642,1-5.86-3.334-5.5-3.334-5.5L-9.6,210s-1.532.308.3,3.162.227,1.994.227,1.994l-2.58-1.9-3.329-2.066-1.368-1.118s-.732-.7-1.038-.7c-.887-.014-.574.72-.574.72l4.971,4.838-5.722-3.112s-.794-.267-1.072.1c-.259.351-.027.5-.027.5l5.692,5.167-3.123-1.248s-.785-.24-1.069.106c-.312.38-.4.473-.4.473l11.4,6.6Z" fill="#e9d8b8"/>
      <rect id="Rectángulo_2975" data-name="Rectángulo 2975" width="6.063" height="4.883" transform="matrix(0.835, -0.551, 0.551, 0.835, -9.719, 224.563)" fill="#fff"/>
      <path id="Trazado_11279" data-name="Trazado 11279" d="M-13.877,215.828l-4.147-1.937a3.493,3.493,0,0,0-1.44-.517.633.633,0,0,0-.642.624v0l5.981,3.582Z" fill="#e9d8b8"/>
      <path id="Trazado_11280" data-name="Trazado 11280" d="M43.9,225.481s.566,3.746-13.716,17.955c-7.981,7.94-12.784,13.082-17.5,11.515-8.084-2.686-22.917-24.88-22.917-24.88l7.527-8.019S9.3,236.272,14.728,236.171c1.27-.024,8.992-7.07,16.8-16.724C34.825,215.366,43.046,224.417,43.9,225.481Z" fill="#122e4a"/>
      <path id="Trazado_11281" data-name="Trazado 11281" d="M23.068,304.865l4.521,4.683,3.669-12.3,3.6,14.2,28.8-3.88s-4.263-25.074-6.994-36.7L65.909,241.7s7.865-20.566-4.975-21.544-27.653-1.792-27.653-1.792S15.245,267.216,23.068,304.865Z" fill="#163759"/>
      <path id="Trazado_11282" data-name="Trazado 11282" d="M41.674,219.506,39.547,246.9l14.226-21.812.247-5.659Z" fill="#e9f4ff"/>
      <path id="Trazado_11283" data-name="Trazado 11283" d="M59.831,293.9,64.2,291.77l.532-.5-.539-.974-.939.063.319-2.752-4.4-1.033-2.217-1.194,1.688,7.607" fill="#e9d8b8"/>
      <path id="Trazado_11284" data-name="Trazado 11284" d="M73.427,267.238,57.062,285.053s.4,2.751,1.714,1.373c.158-.162-.553-.752.407-1.211,3.883-1.848,12.9-4.526,16.356-7.509a54.736,54.736,0,0,0,7.87-8.651Z" fill="#e9d8b8"/>
      <rect id="Rectángulo_2976" data-name="Rectángulo 2976" width="6.063" height="5.5" transform="translate(60.531 280.52) rotate(-43.866)" fill="#e7f2fe"/>
      <path id="Trazado_11285" data-name="Trazado 11285" d="M44.531,223.927s-9.044,20.6-3.457,41.637c.441,1.656,2.583,2.637,2.583,2.637l2.486-2.717S43.206,241.287,44.531,223.927Z" fill="#3867ff"/>
      <path id="Trazado_11286" data-name="Trazado 11286" d="M45.523,223.062l.549,3.547,7.917-5.431.06-1.752Z" fill="#d1d8ea"/>
      <path id="Trazado_11287" data-name="Trazado 11287" d="M44.169,219.245l-1.819,6.913,1.8-2.368Z" fill="#d1d8ea"/>
      <path id="Trazado_11288" data-name="Trazado 11288" d="M64.779,241.024l7.081,24.72L61.8,278.75s3.968,5.891,5.615,5.2c11.4-4.769,20.415-21.123,20.415-21.123L77.515,229.244s-4.308-7.179-14.692-8.9C55.3,219.091,64.287,238.973,64.779,241.024Z" fill="#122e4a"/>
      <path id="Trazado_11289" data-name="Trazado 11289" d="M55.245,214.966a27.093,27.093,0,0,1-1.557,4.526c-.943,1.829-8.342,3.844-9.474,4.05s.591-5.621.666-6.96c.055-1.025.7-.668-.016-2.188Z" fill="#e9d8b8"/>
      <path id="Trazado_11290" data-name="Trazado 11290" d="M44.364,218.749l-2.193,6.119-2.813,23.459-4.044-18.439L38.64,226.7l-1.8-2.968,3.977-4.84Z" fill="#193f66"/>
      <path id="Trazado_11291" data-name="Trazado 11291" d="M31.353,283.309l-.336,12.93,2.537-11.671,23.869,15.363s1.975-17.434-.756-29.055L65.912,241.7s7.865-20.566-4.975-21.544c-1.809-.137-3.656-.271-5.495-.4-2.6-.182-7.449,7.276-8.618,9.417-1.25,2.293-9.371,23.1-9.371,23.1Z" fill="#122e4a"/>
      <path id="Trazado_11292" data-name="Trazado 11292" d="M54.57,219.256l4.255.949L55.4,226.593l-4.884,2.9.032,5.528L37.855,253.134l8.291-23.882Z" fill="#163759"/>
      <path id="Trazado_11293" data-name="Trazado 11293" d="M54.57,218.918l4.256.949-3.407,6.409-4.876,2.767.046,5.287-12.65,17.294L46.171,228.8Z" fill="#193f66"/>
      <path id="Trazado_11294" data-name="Trazado 11294" d="M44.216,223.542l1.308-.141-.132,3.22-1.575,1.117-.9-1.353Z" fill="#3867ff"/>
      <g id="Grupo_12483" data-name="Grupo 12483">
        <path id="Trazado_11295" data-name="Trazado 11295" d="M43,212.2a2.109,2.109,0,0,0,1.606,2.513h0l9.292,2.021a2.115,2.115,0,0,0,2.512-1.616L59.4,201.365a2.112,2.112,0,0,0-1.613-2.514h0L48.5,196.835a2.108,2.108,0,0,0-2.511,1.607v.006Z" fill="#e9d8b8"/>
        <path id="Trazado_11296" data-name="Trazado 11296" d="M45.357,201.281a8.024,8.024,0,0,1-1.009-2.472,3.147,3.147,0,0,1,1.88-2.292c1.164-.375,1.778.927,1.778.927s-1.847.559-2.006.884S45.357,201.281,45.357,201.281Z" fill="#163759"/>
        <path id="Trazado_11297" data-name="Trazado 11297" d="M59,207.76s2.551-4.98,2.633-6.583.139-2.719-1.712-3.3c-2.776-.871-2.943-.278-4.131-1.44s-3.213-3.768-4.018-4.158a2.9,2.9,0,0,0-4.334,1.985,3.04,3.04,0,0,1-1.821,2.247c.059.263.525.6,1.328,1.247,2.3,1.852,3.793,2.448,5.881,2.359s6.016-.4,6.128,1.154-1.031,5.99-.937,6.371S58.6,207.948,59,207.76Z" fill="#193f66"/>
        <path id="Trazado_11298" data-name="Trazado 11298" d="M55.178,211.255a.708.708,0,0,0,.54.839l2.006.435a.7.7,0,0,0,.837-.528l0-.008.8-3.668a.709.709,0,0,0-.538-.842l-2.007-.434a.7.7,0,0,0-.835.533v0Z" fill="#e9d8b8"/>
        <path id="Trazado_11299" data-name="Trazado 11299" d="M43.216,208.648a.7.7,0,0,0,.528.837l.007,0,2,.437a.706.706,0,0,0,.84-.539v0l.8-3.667a.7.7,0,0,0-.531-.836h-.006l-2.007-.439a.709.709,0,0,0-.836.542Z" fill="#e9d8b8"/>
        <path id="Trazado_11300" data-name="Trazado 11300" d="M57.851,208.775,56.281,216c-.355,1.634-1.788,5.075-11.01,3.064-5.459-1.183-4.388-5.153-4.1-6.472a11.965,11.965,0,0,1,2.709-4.213c.024-.013-.485,2.237-.485,2.237a4.467,4.467,0,0,1,4.2-1.366c4.187.909,4.6,3.567,6.459,3.926C55.488,213.448,57.056,211.365,57.851,208.775Z" fill="#193f66"/>
        <path id="Trazado_11301" data-name="Trazado 11301" d="M48.545,213.174l-2.865-.624a.7.7,0,0,1-.539-.83l0-.009.087-.4,4.242.927-.088.4A.706.706,0,0,1,48.545,213.174Z" fill="#e9d8b8"/>
      </g>
      <rect id="Rectángulo_2977" data-name="Rectángulo 2977" width="3.048" height="10.054" transform="matrix(0.145, -0.989, 0.989, 0.145, 51.389, 242.205)" fill="#193f66"/>
    </g>
    <g id="Grupo_12500" data-name="Grupo 12500">
      <g id="Grupo_12488" data-name="Grupo 12488">
        <g id="Grupo_12487" data-name="Grupo 12487">
          <g id="Grupo_12485" data-name="Grupo 12485">
            <path id="Trazado_11302" data-name="Trazado 11302" d="M-75.568,367.426l-3.064,4.671,25.726,8.241s1.718-1.644-4.6-4.943C-64.849,371.548-75.568,367.426-75.568,367.426Z" fill="#88b4da"/>
            <path id="Trazado_11303" data-name="Trazado 11303" d="M-80.135,367.426l3.062,4.671-25.723,8.241s-1.719-1.644,4.594-4.943C-90.854,371.548-80.135,367.426-80.135,367.426Z" fill="#88b4da"/>
          </g>
          <rect id="Rectángulo_2978" data-name="Rectángulo 2978" width="5.375" height="19.138" transform="translate(-80.539 353.532)" fill="#88b4da"/>
          <g id="Grupo_12486" data-name="Grupo 12486">
            <path id="Trazado_11304" data-name="Trazado 11304" d="M-75.222,368.41l-2.623,4.457,22.019,7.864s1.472-1.568-3.929-4.719A172.118,172.118,0,0,0-75.222,368.41Z" fill="#accdf4"/>
            <path id="Trazado_11305" data-name="Trazado 11305" d="M-80.479,368.41l2.62,4.457-22.022,7.864s-1.469-1.568,3.933-4.719A172.022,172.022,0,0,1-80.479,368.41Z" fill="#accdf4"/>
          </g>
          <path id="Trazado_11306" data-name="Trazado 11306" d="M-58.318,382.5a1.867,1.867,0,0,0,1.867,1.867h0a1.867,1.867,0,0,0,1.867-1.867,1.869,1.869,0,0,0-1.867-1.868A1.87,1.87,0,0,0-58.318,382.5Z" fill="#001746"/>
          <path id="Trazado_11307" data-name="Trazado 11307" d="M-100.985,382.5a1.869,1.869,0,0,0,1.868,1.867,1.866,1.866,0,0,0,1.868-1.864v0a1.868,1.868,0,0,0-1.868-1.868A1.87,1.87,0,0,0-100.985,382.5Z" fill="#001746"/>
          <path id="Trazado_11308" data-name="Trazado 11308" d="M-53.8,382.5a1.868,1.868,0,0,0,1.869,1.867A1.869,1.869,0,0,0-50.06,382.5a1.87,1.87,0,0,0-1.868-1.868A1.87,1.87,0,0,0-53.8,382.5Z" fill="#366782"/>
          <path id="Trazado_11309" data-name="Trazado 11309" d="M-105.506,382.5a1.867,1.867,0,0,0,1.867,1.867h0a1.869,1.869,0,0,0,1.868-1.867,1.87,1.87,0,0,0-1.868-1.868A1.868,1.868,0,0,0-105.506,382.5Z" fill="#366782"/>
        </g>
        <rect id="Rectángulo_2979" data-name="Rectángulo 2979" width="3.932" height="6.882" transform="translate(-79.749 346.519)" fill="#003bdf"/>
        <path id="Trazado_11310" data-name="Trazado 11310" d="M-82.7,342.883a3.836,3.836,0,0,0,3.835,3.835H-76.7a3.836,3.836,0,0,0,3.834-3.835h0a3.834,3.834,0,0,0-3.834-3.832h-2.162a3.833,3.833,0,0,0-3.835,3.831Z" fill="#003bdf"/>
        <path id="Trazado_11311" data-name="Trazado 11311" d="M-107.007,339.378c-.093-.451-.148-3.281-.148-3.767,0-3.1,2-5.606,4.469-5.606h49.8c2.469,0,4.469,2.509,4.469,5.606,0,.486-.054,3.316-.148,3.767Z" fill="#8cb6ff"/>
        <path id="Trazado_11312" data-name="Trazado 11312" d="M-47.952,340.895c0,.948-.553,1.715-1.237,1.715h-57.187c-.683,0-1.238-.767-1.238-1.715h0c0-.949.555-1.717,1.238-1.717h57.187C-48.505,339.178-47.952,339.946-47.952,340.895Z" fill="#003bdf"/>
      </g>
      <g id="Grupo_12498" data-name="Grupo 12498">
        <path id="Trazado_11313" data-name="Trazado 11313" d="M-67.15,329.613s-30.9.066-42.828.246c-8.253.126-9-11.64-5.748-13.412,9.881-5.377,40.715-8.144,40.715-8.144l20.973,19.264S-55.215,327.535-67.15,329.613Z" fill="#193f66"/>
        <path id="Trazado_11314" data-name="Trazado 11314" d="M-31.643,388.7c.476.577.128,2.094.128,2.094s-8.318.927-10.994.3a14.113,14.113,0,0,1-2.976-1.4c-.188-.108-.518-.745-.7-.851-.334-.2-.509.133-.8-.047a9.305,9.305,0,0,1-1.269-.878c-.731-3.814.24-5.353.24-5.353s7.081-2.354,8.41-.713C-36.475,385.713-32.684,387.435-31.643,388.7Z" fill="#161711"/>
        <path id="Trazado_11315" data-name="Trazado 11315" d="M-109.384,384.547l-.575,6.283-6.291.616s-.436-.839-.966-.786c-.449.043-.942.974-1.553,1.035l-3.378.329c-1.181.117-12.623,1.235-12.623,1.235s-.411-1.268-.108-1.75a6.1,6.1,0,0,1,1.85-1.014c3.162-1.23,12.182-4.99,13.5-8.258C-117.939,378.268-109.384,384.547-109.384,384.547Z" fill="#161711"/>
        <path id="Trazado_11316" data-name="Trazado 11316" d="M-51.592,318.234s2.048,19.423,1.755,29.688c-.222,7.745-.243,22.59,1.6,35.24.113.775,10.009.192,10.009.192s3.548-48.151,4.6-56.081S-35.638,313.625-51.592,318.234Z" fill="#193f66"/>
        <path id="Trazado_11317" data-name="Trazado 11317" d="M-113.815,322.914s3.189,5.035,11.934,6.227c3.161.43-5.1,56.362-5.1,56.362l-12.918-4.137,2.494-61.853Z" fill="#163759"/>
        <path id="Trazado_11318" data-name="Trazado 11318" d="M-78.173,329.142s16.889,2.409,28.164,3.593c4.133.432,7.712-11.138,8.193-11.641a8.515,8.515,0,0,1,5.891-2.875c-2.442-2.641-15.091-5.089-28.308-8.19s-15.233-1.148-15.233-1.148Z" fill="#163759"/>
        <path id="Trazado_11319" data-name="Trazado 11319" d="M-49.72,329l1.294,37.792,1.293,8.768.143-8.768-.285-5.46,3.015-8.476,1.582-19.689-2.3.863.287-8.622Z" fill="#163759"/>
        <path id="Trazado_11320" data-name="Trazado 11320" d="M-113.379,318.219l-3.161.864-1.152,45.409,6.612,16.239-3.16-11.065,1.291-22.849s4.6,11.066,4.6,10.49-3.878-24-3.878-24,4.31,3.593,3.878,3.449S-110.937,320.374-113.379,318.219Z" fill="#193f66"/>
        <path id="Trazado_11321" data-name="Trazado 11321" d="M-64.233,310.029c13.218,3.1,25.866,5.549,28.308,8.19a8.507,8.507,0,0,0-5.891,2.875c-.131.139-.892,3.846-1.437,5.175,2.154-3.882-28.911-14.832-35.622-17.668C-77.623,308.2-73.966,307.746-64.233,310.029Z" fill="#193f66"/>
        <path id="Trazado_11322" data-name="Trazado 11322" d="M-61.272,265.129s12.056,1.993,13.432,4.552a273.434,273.434,0,0,1,15.51,34.314c1.182,3.414,4.271,16.112-3.451,17.051-1.345.163-6.694-1.126-6.694-1.126l-3.784-1.293,1.579-3.036.087-2.4s-4.826-11.638-10.751-22.643S-61.272,265.129-61.272,265.129Z" fill="#d4e8ff"/>
        <path id="Trazado_11323" data-name="Trazado 11323" d="M-92.73,266.56s-9.471.187-11.4,8.152c-3.823,15.781-3.313,18.621-4.1,33.634-.077,1.469.083,5.395,8.961,5.583,3.6.075,3.435-6.65,3.435-6.65a167.391,167.391,0,0,0,4.767-17.633C-88.607,278.561-92.73,266.56-92.73,266.56Z" fill="#d4e8ff"/>
        <path id="Trazado_11324" data-name="Trazado 11324" d="M-99.767,268.248l17.571-7.38,15.424-1.037,16.807,7.855s2.69.421,1.685,13.667c-1.049,13.827-4.358,31.1-4.358,31.1l-43.594,1.395s1.146-25.19-.914-36.423C-97.871,273.47-97.866,270.519-99.767,268.248Z" fill="#e9f4ff"/>
        <g id="Grupo_12489" data-name="Grupo 12489">
          <path id="Trazado_11325" data-name="Trazado 11325" d="M-99.872,305l21.27,8.688s-15.086,2.151-24.522.229C-109.5,312.615-100.161,304.722-99.872,305Z" fill="#e9d8b8"/>
        </g>
        <g id="Grupo_12491" data-name="Grupo 12491">
          <path id="Trazado_11326" data-name="Trazado 11326" d="M-42.614,309.364l-22.043,1.15s21.23,9.742,21.933,8.063C-38.746,309.062-42.614,309.364-42.614,309.364Z" fill="#e9d8b8"/>
          <g id="Grupo_12490" data-name="Grupo 12490">
            <path id="Trazado_11327" data-name="Trazado 11327" d="M-54.742,308.686c-1.288-.619-1.171-.63-1.171-.63a5.275,5.275,0,0,1-2.883,1.66c-.847.131-3.582.165-3.582.165l-4.059.1-1.884-.1a3.486,3.486,0,0,0-1.346.041c-.819.527-.118.949-.118.949l7.277,1.032-6.994.865s-.877.261-.919.735c-.037.446.255.429.255.429l8.122.869-3.561.851s-.853.273-.917.736c-.072.5-.1.637-.1.637l7.47-.731S-53.456,309.309-54.742,308.686Z" fill="#e9d8b8"/>
            <path id="Trazado_11328" data-name="Trazado 11328" d="M-62.806,313.184l-4.887.892a4.059,4.059,0,0,0-1.614.438.652.652,0,0,0-.244.889l.013.022,7.493-.629Z" fill="#e9d8b8"/>
          </g>
        </g>
        <path id="Trazado_11329" data-name="Trazado 11329" d="M-40.228,320.107s7.114,3.932,6.74-10.3c-.062-2.368-9.321-1.682-9.321-1.682l-10.9.56-3.37,8.238Z" fill="#d4e8ff"/>
        <path id="Trazado_11330" data-name="Trazado 11330" d="M-43.581,314.1-55.309,312.6l1.6-3.907,10.9-.56s1.083-.377,5.576,1.308C-30.493,313.74-43.581,314.1-43.581,314.1Z" fill="#e9f4ff"/>
        <path id="Trazado_11331" data-name="Trazado 11331" d="M-105.946,313.679s-2.114-2.9-1.972-3.795c.849-5.317,7.04-6.321,7.04-6.321l16.277,4.374-3.745,8.238Z" fill="#d4e8ff"/>
        <path id="Trazado_11332" data-name="Trazado 11332" d="M-64.756,263.564s-17.787-5.429-18.161.188,2.809,29.581,4.493,33.325,7.489-2.995,10.3-15.165A154.113,154.113,0,0,0-64.756,263.564Z" fill="#7db5f5"/>
        <path id="Trazado_11333" data-name="Trazado 11333" d="M-67.071,265.666l-3.863,16.059-.375,13.481,7.676-21.344-2.059-2.059,3.183-.187s-.188-7.677-2.247-10.111-5.746-2.2-3.932-.562C-66.815,262.629-67.071,265.666-67.071,265.666Z" fill="#d4e8ff"/>
        <path id="Trazado_11334" data-name="Trazado 11334" d="M-81.606,260.943s-2.808-.188-3.745,2.246a51.055,51.055,0,0,0-1.685,8.051l2.808,1.311-2.246,2.059,8.426,23.216s-.562-18.722-1.311-22.467S-81.606,260.943-81.606,260.943Z" fill="#d4e8ff"/>
        <g id="Grupo_12494" data-name="Grupo 12494">
          <g id="Grupo_12492" data-name="Grupo 12492">
            <path id="Trazado_11335" data-name="Trazado 11335" d="M-81.331,265.666c.3,2.357,2.225,4.4,4.249,4.5h5.76c2.023-.095,3.948-2.139,4.247-4.5q.707-5.826,1.415-11.655c.316-2.328-1.069-7.009-4.132-8.39a11.01,11.01,0,0,0-8.82,0c-3.064,1.381-4.449,6.062-4.135,8.39Q-82.031,259.843-81.331,265.666Z" fill="#e2c79c"/>
          </g>
          <g id="Grupo_12493" data-name="Grupo 12493">
            <path id="Trazado_11336" data-name="Trazado 11336" d="M-73.326,238.227a4.6,4.6,0,0,1,3.855,2.084h1.582a3.572,3.572,0,0,1,3.571,3.573h0V252.7h-2.511v-3.585a2.515,2.515,0,0,0-2.514-2.513h-.677A4.608,4.608,0,0,1-74.629,242h0v-3.77Z" fill="#163759"/>
            <path id="Trazado_11337" data-name="Trazado 11337" d="M-68.874,255.99a2.183,2.183,0,0,0,2.181,2.185h.188a2.185,2.185,0,0,0,2.186-2.184h0v-2.656a2.188,2.188,0,0,0-2.186-2.183h-.183a2.189,2.189,0,0,0-2,1.3" fill="#e2c79c"/>
            <path id="Trazado_11338" data-name="Trazado 11338" d="M-71.37,241.734v-3.507h-7.567a4.608,4.608,0,0,0-4.608,4.608h0v3.5h7.568a4.6,4.6,0,0,0,4.607-4.593Z" fill="#163759"/>
            <path id="Trazado_11339" data-name="Trazado 11339" d="M-82.9,259.339c.009,1.835,1.409,4.936,3.727,5.918a13.387,13.387,0,0,0,10.042,0c2.324-.98,3.716-4.079,3.727-5.917v-15.6c.014-1.843-1.824-3.393-4.1-3.437h-9.3c-2.268.042-4.112,1.591-4.1,3.437Z" fill="#e9d8b8"/>
            <path id="Trazado_11340" data-name="Trazado 11340" d="M-75.938,238.227a4.6,4.6,0,0,0-3.855,2.084h-1.582a3.571,3.571,0,0,0-3.571,3.573h0V252.7h2.513v-3.585a2.513,2.513,0,0,1,2.513-2.513h3.209A4.607,4.607,0,0,0-72.1,242v-3.773Z" fill="#163759"/>
            <path id="Trazado_11341" data-name="Trazado 11341" d="M-80.425,253.333a2.185,2.185,0,0,0-2.185-2.183h-.182a2.184,2.184,0,0,0-2.186,2.182h0v2.657a2.186,2.186,0,0,0,2.186,2.185h.181a2.186,2.186,0,0,0,2-1.3" fill="#e9d8b8"/>
            <path id="Trazado_11342" data-name="Trazado 11342" d="M-72.1,242.638a4.611,4.611,0,0,1-.092-.9v-3.507h3.264a4.608,4.608,0,0,1,4.608,4.608h0v3.5h-3.266a4.607,4.607,0,0,1-.944-.1A4.609,4.609,0,0,0-72.1,242.638Z" fill="#163759"/>
          </g>
        </g>
        <g id="Grupo_12497" data-name="Grupo 12497">
          <path id="Trazado_11343" data-name="Trazado 11343" d="M-93.451,317.028a.326.326,0,0,0-.025-.045l.025-1.389h43.428v1.389a.069.069,0,0,1,0,.045l-.147.259c-.739,1.207-2.066,1.422-3.587,1.422h-35.96c-1.518,0-2.845-.215-3.587-1.422Z" fill="#b6c0c9"/>
          <g id="Grupo_12495" data-name="Grupo 12495">
            <rect id="Rectángulo_2980" data-name="Rectángulo 2980" width="28.758" height="0.98" transform="translate(-86.126 315.917)" fill="#8798a6"/>
          </g>
          <g id="Grupo_12496" data-name="Grupo 12496">
            <path id="Trazado_11344" data-name="Trazado 11344" d="M-93.425,315.743l-.118-28.473a1.353,1.353,0,0,1,1.348-1.358h40.658a1.364,1.364,0,0,1,1.364,1.358l.116,28.473Z" fill="#d7dee2"/>
            <path id="Trazado_11345" data-name="Trazado 11345" d="M-74.433,300.827a2.647,2.647,0,0,0,2.643,2.634,2.622,2.622,0,0,0,2.623-2.621v-.013a2.648,2.648,0,0,0-2.646-2.631,2.617,2.617,0,0,0-2.62,2.614Z" fill="#b6c0c9"/>
          </g>
        </g>
      </g>
      <g id="Grupo_12499" data-name="Grupo 12499">
        <path id="Trazado_11346" data-name="Trazado 11346" d="M-14.029,418.105h6.218l-10.258-99.342h-9.014Z" fill="#93c3f5"/>
        <path id="Trazado_11347" data-name="Trazado 11347" d="M-26.482,323.341l3.954,30.085L-17.839,321l-.23-2.242h-7.879Z" fill="#86b2d8"/>
        <path id="Trazado_11348" data-name="Trazado 11348" d="M-179.816,418.105h-6.218l10.257-99.342h9.015Z" fill="#93c3f5"/>
        <path id="Trazado_11349" data-name="Trazado 11349" d="M-167.363,323.341-179.428,354l3.422-33,.23-2.242h7.879Z" fill="#86b2d8"/>
        <rect id="Rectángulo_2981" data-name="Rectángulo 2981" width="180.407" height="5.806" transform="translate(-191.063 315.538)" fill="#8cb6ff"/>
      </g>
    </g>
    <path id="Trazado_11350" data-name="Trazado 11350" d="M-122,169.376l-.1-4.775-4.254-.263a12.966,12.966,0,0,0-1.766-4.3l2.764-3.41-3.446-3.307-3.193,2.819a12.9,12.9,0,0,0-4.29-1.791l-.457-4.369-4.779.1-.264,4.252a12.984,12.984,0,0,0-4.3,1.765l-3.412-2.764-3.306,3.448,2.821,3.195a12.9,12.9,0,0,0-1.792,4.289l-4.368.458.1,4.774,4.251.268a12.882,12.882,0,0,0,1.766,4.3l-2.765,3.412,3.448,3.306,3.193-2.818a12.872,12.872,0,0,0,4.293,1.789l.454,4.369,4.78-.1.264-4.253a12.968,12.968,0,0,0,4.3-1.767l3.412,2.766,3.307-3.447-2.821-3.2a13.063,13.063,0,0,0,1.792-4.291Zm-16.938,3.981a6.31,6.31,0,0,1-6.444-6.173v0a6.309,6.309,0,0,1,6.173-6.442h0a6.309,6.309,0,0,1,6.441,6.174h0a6.307,6.307,0,0,1-6.166,6.443h-.008Z" fill="#f9a21c"/>
    <g id="Grupo_12501" data-name="Grupo 12501">
      <path id="Trazado_11351" data-name="Trazado 11351" d="M-139.646,170.168l-2.037-2.036,1.064-1.065.973.973,3.23-3.231,1.064,1.065Z" fill="#fff"/>
    </g>
    <g id="Grupo_12503" data-name="Grupo 12503">
      <path id="Trazado_11352" data-name="Trazado 11352" d="M-206.384,192.894l-4.872-4.869,9.561-9.559,4.866,4.872Z" fill="#0241a2"/>
      <g id="Grupo_12502" data-name="Grupo 12502">
        <path id="Trazado_11353" data-name="Trazado 11353" d="M-199.219,180.857" fill="#d9e0e4"/>
      </g>
      <path id="Trazado_11354" data-name="Trazado 11354" d="M-162.469,166.751a22.467,22.467,0,0,0-6.668-16.04,22.542,22.542,0,0,0-15.988-6.61,22.682,22.682,0,0,0-22.647,22.659,22.517,22.517,0,0,0,6.675,16.049,22.53,22.53,0,0,0,15.982,6.6,22.489,22.489,0,0,0,16.011-6.646A22.505,22.505,0,0,0-162.469,166.751Zm-22.605,17.941a17.823,17.823,0,0,1-12.729-5.246,17.945,17.945,0,0,1,0-25.366,17.8,17.8,0,0,1,12.653-5.248,17.8,17.8,0,0,1,12.715,5.24,17.8,17.8,0,0,1,5.252,12.689,17.829,17.829,0,0,1-5.243,12.688,17.791,17.791,0,0,1-12.649,5.243Z" fill="#004ccb"/>
      <rect id="Rectángulo_2982" data-name="Rectángulo 2982" width="21.353" height="11.985" transform="translate(-224.957 198.119) rotate(-45)" fill="#004ccb"/>
      <path id="Trazado_11355" data-name="Trazado 11355" d="M-216.48,206.6l-8.478-8.478,11.926-11.926,8.475,8.479Z" fill="#3867ff"/>
      <line id="Línea_138" data-name="Línea 138" y1="6.355" x2="6.357" transform="translate(-214.049 192.344)" fill="none" stroke="#fff" stroke-width="4.449"/>
      <path id="Trazado_11356" data-name="Trazado 11356" d="M-219.019,207.2a6.544,6.544,0,0,1-6.542-6.543l1.57-1.569q3.271,3.273,6.542,6.54Q-218.232,206.413-219.019,207.2Z" fill="#004ccb"/>
    </g>
    <g id="Grupo_12504" data-name="Grupo 12504">
      <path id="Trazado_11361" data-name="Trazado 11361" d="M-29.333,141.452h4.381v4.5h-4.381Z" fill="#971d18"/>
      <rect id="Rectángulo_2984" data-name="Rectángulo 2984" width="4.379" height="10.072" transform="translate(-20.571 135.883)" fill="#f9a21c"/>
      <path id="Trazado_11358" data-name="Trazado 11358" d="M-11.813,127.427h4.382v18.528h-4.382Z" fill="#fff8a2"/>
      <path id="Trazado_11360" data-name="Trazado 11360" d="M-3.049,132.3H1.33v13.655H-3.049Z" fill="#ffd45e"/>
      <rect id="Rectángulo_2987" data-name="Rectángulo 2987" width="4.379" height="23.404" transform="translate(5.713 122.55)" fill="#f9a21c"/>
      <rect id="Rectángulo_2988" data-name="Rectángulo 2988" width="4.381" height="11.632" transform="translate(14.472 134.322)" fill="#d64e26"/>
      <rect id="Rectángulo_2989" data-name="Rectángulo 2989" width="4.38" height="34.637" transform="translate(23.233 111.318)" fill="#971d18"/>
      <path id="Trazado_11359" data-name="Trazado 11359" d="M32,135.518h4.38v10.437H32Z" fill="#b52924"/>
      <rect id="Rectángulo_2991" data-name="Rectángulo 2991" width="4.381" height="16.461" transform="translate(40.755 129.494)" fill="#f9a21c"/>
    </g>
  </g>
</svg>
