<svg xmlns="http://www.w3.org/2000/svg" xmlns:xlink="http://www.w3.org/1999/xlink" width="204" height="195" viewBox="0 0 204 195">
  <defs>
    <linearGradient id="linear-gradient" x1="1.13" y1="1.295" x2="0.236" y2="0.19" gradientUnits="objectBoundingBox">
      <stop offset="0" stop-color="#daf3fe"/>
      <stop offset="1" stop-color="#e9f8fd"/>
    </linearGradient>
    <linearGradient id="linear-gradient-2" x1="-11.114" y1="1.253" x2="-10.47" y2="0.319" gradientUnits="objectBoundingBox">
      <stop offset="0" stop-color="#000e5d"/>
      <stop offset="1" stop-color="#0f2491"/>
    </linearGradient>
    <linearGradient id="linear-gradient-3" y1="0.5" x2="1" y2="0.5" gradientUnits="objectBoundingBox">
      <stop offset="0" stop-color="#4f7eff"/>
      <stop offset="1" stop-color="#406ae2"/>
    </linearGradient>
    <clipPath id="clip-path">
      <path id="Trazado_137897" data-name="Trazado 137897" d="M-167.583,1049.873c-.978-.568-3.467-3.108-7.025-10.469a164.1,164.1,0,0,1-9.659-26.778,164.067,164.067,0,0,1-5.381-27.954c-.7-8.146.137-11.6.688-12.589.978.567,3.467,3.108,7.025,10.469,3.438,7.114,16.994,13.841,19.785,24s-5.424,22.864-4.745,30.736C-166.191,1045.429-167.032,1048.885-167.583,1049.873Z" transform="translate(189.916 -972.082)" fill="none"/>
    </clipPath>
    <linearGradient id="linear-gradient-5" x1="-19.088" y1="1.566" x2="-21.479" y2="1.701" xlink:href="#linear-gradient-2"/>
    <linearGradient id="linear-gradient-6" x1="-16.37" y1="0.997" x2="-16.443" y2="-0.498" xlink:href="#linear-gradient-2"/>
    <linearGradient id="linear-gradient-7" x1="2.125" y1="-4.82" x2="-12.942" y2="44.522" gradientUnits="objectBoundingBox">
      <stop offset="0" stop-color="#cb1c40"/>
      <stop offset="1" stop-color="#3a246d"/>
    </linearGradient>
    <linearGradient id="linear-gradient-8" x1="1.01" y1="-1.181" x2="0.399" y2="0.558" gradientUnits="objectBoundingBox">
      <stop offset="0" stop-color="#feccba"/>
      <stop offset="1" stop-color="#ffac8e"/>
    </linearGradient>
    <linearGradient id="linear-gradient-9" x1="1.107" y1="-0.006" x2="-0.123" y2="0.733" gradientUnits="objectBoundingBox">
      <stop offset="0" stop-color="#e11d16"/>
      <stop offset="1" stop-color="#e9281c"/>
    </linearGradient>
    <linearGradient id="linear-gradient-10" x1="1.314" y1="-0.073" x2="0.004" y2="0.944" xlink:href="#linear-gradient-8"/>
    <linearGradient id="linear-gradient-11" x1="0.7" y1="0.019" x2="-1.5" y2="3.348" xlink:href="#linear-gradient-8"/>
    <linearGradient id="linear-gradient-12" x1="0.194" y1="1.269" x2="0.635" y2="0.132" gradientUnits="objectBoundingBox">
      <stop offset="0" stop-color="#ff5e58"/>
      <stop offset="1" stop-color="#fe332a"/>
    </linearGradient>
    <linearGradient id="linear-gradient-13" x1="0.181" y1="1.219" x2="0.572" y2="0.33" xlink:href="#linear-gradient-8"/>
    <linearGradient id="linear-gradient-14" x1="0.53" y1="0.549" x2="0.112" y2="1.263" xlink:href="#linear-gradient-8"/>
    <linearGradient id="linear-gradient-15" x1="0" y1="0.5" x2="1" y2="0.5" xlink:href="#linear-gradient-9"/>
    <linearGradient id="linear-gradient-17" x1="0.821" y1="0.35" x2="-0.291" y2="1.106" xlink:href="#linear-gradient-8"/>
    <linearGradient id="linear-gradient-18" x1="1.641" y1="-1.928" x2="0.076" y2="1.27" xlink:href="#linear-gradient-9"/>
    <linearGradient id="linear-gradient-19" x1="2.74" y1="-0.685" x2="-1.811" y2="1.784" xlink:href="#linear-gradient-8"/>
    <linearGradient id="linear-gradient-20" x1="0" y1="0.5" x2="1" y2="0.5" xlink:href="#linear-gradient-8"/>
    <linearGradient id="linear-gradient-21" x1="0.479" y1="0.158" x2="0.541" y2="1.532" xlink:href="#linear-gradient-3"/>
    <linearGradient id="linear-gradient-22" x1="0.035" y1="0.333" x2="1.461" y2="0.835" xlink:href="#linear-gradient-3"/>
    <linearGradient id="linear-gradient-23" x1="0.589" y1="0.833" x2="0.309" y2="-0.234" xlink:href="#linear-gradient-8"/>
    <linearGradient id="linear-gradient-24" x1="-0.653" y1="0.098" x2="2.14" y2="1.033" xlink:href="#linear-gradient-3"/>
    <linearGradient id="linear-gradient-25" x1="0.958" y1="-2.704" x2="0.8" y2="-1.6" xlink:href="#linear-gradient-3"/>
    <linearGradient id="linear-gradient-26" x1="0.724" y1="0.148" x2="-0.021" y2="1.392" xlink:href="#linear-gradient-8"/>
    <linearGradient id="linear-gradient-27" x1="171.669" y1="148.279" x2="170.596" y2="149.561" xlink:href="#linear-gradient-8"/>
    <linearGradient id="linear-gradient-28" x1="121.018" y1="98.619" x2="121.925" y2="98.619" xlink:href="#linear-gradient-2"/>
    <linearGradient id="linear-gradient-29" x1="484.023" y1="493.762" x2="486.481" y2="491.113" xlink:href="#linear-gradient-8"/>
    <linearGradient id="linear-gradient-30" y1="0.5" x2="1" y2="0.5" gradientUnits="objectBoundingBox">
      <stop offset="0" stop-color="#ff676f"/>
      <stop offset="1" stop-color="#fe3944"/>
    </linearGradient>
    <linearGradient id="linear-gradient-35" x1="0.481" y1="1.429" x2="0.525" y2="-0.765" xlink:href="#linear-gradient-30"/>
    <linearGradient id="linear-gradient-36" x1="0" y1="0.5" x2="1" y2="0.5" xlink:href="#linear-gradient-30"/>
    <linearGradient id="linear-gradient-39" x1="0" y1="0.5" x2="1" y2="0.5" xlink:href="#linear-gradient-30"/>
    <linearGradient id="linear-gradient-40" x1="0.468" y1="1.102" x2="0.578" y2="-0.966" xlink:href="#linear-gradient-30"/>
  </defs>
  <g id="Grupo_80412" data-name="Grupo 80412" transform="translate(-276 -22109)">
    <rect id="Rectángulo_5923" data-name="Rectángulo 5923" width="204" height="195" transform="translate(276 22109)" fill="none"/>
    <g id="Grupo_79988" data-name="Grupo 79988" transform="translate(689.011 21187)">
      <path id="Trazado_137888" data-name="Trazado 137888" d="M-250.618,1077.1a57.381,57.381,0,0,1-8.784,7.4c-28.654,20.56-62.56,14.567-69.766,13.1-10.641-2.161-31.209-6.339-46.08-23.827-22.5-26.457-19-68.141-1.544-95.656,3.192-5.033,20.054-32.967,54.325-37.448,20.741-2.711,44.917,2.757,62.425,17.425C-223.291,988.885-225.907,1051.087-250.618,1077.1Z" transform="translate(0 0)" fill="url(#linear-gradient)"/>
      <g id="Grupo_79988-2" data-name="Grupo 79988" transform="translate(-389.651 943.242)">
        <path id="Trazado_137889" data-name="Trazado 137889" d="M-386.3,947.253c-.179-.761.892-1.266,1.547-.735,6.655,5.4,22.644,21.555,18.659,49.8-5,35.431,3.547,48.359,14.187,56.245,0,0-14.611-3.708-23.8-16.827C-398.281,1003.522-383.122,960.78-386.3,947.253Z" transform="translate(388.369 -946.298)" fill="#91e1fa"/>
        <path id="Trazado_137890" data-name="Trazado 137890" d="M-374.515,969.419c.832,3.944,1.574,7.9,2.148,11.875q.9,5.957,1.369,11.947c.3,3.992.5,7.989.516,11.986.033,4-.133,7.992-.317,12a108.593,108.593,0,0,0-.048,12.112,35.909,35.909,0,0,0,2.838,11.988c.424.956.869,1.909,1.375,2.831.486.93,1.021,1.841,1.574,2.743a43.2,43.2,0,0,0,3.775,5.193,47.614,47.614,0,0,0,9.939,8.7,1,1,0,0,0,1.259-.143.7.7,0,0,0-.145-1.072h0c-.889-.625-1.769-1.257-2.613-1.921-.428-.326-.839-.668-1.257-1-.4-.348-.821-.683-1.211-1.042a43.009,43.009,0,0,1-4.39-4.512,43.214,43.214,0,0,1-6.456-10.368,35.06,35.06,0,0,1-1.882-5.65,38.548,38.548,0,0,1-.908-5.851,107.353,107.353,0,0,1-.051-11.954c.117-4.01.2-8.041.1-12.068q-.07-3.02-.266-6.036c-.058-1.005-.14-2.01-.218-3.014s-.186-2.007-.292-3.009q-.648-6.011-1.724-11.976c-.741-3.97-1.6-7.922-2.641-11.839a.244.244,0,0,0-.288-.156A.211.211,0,0,0-374.515,969.419Z" transform="translate(381.649 -957.398)" fill="#fff" style="mix-blend-mode: soft-light;isolation: isolate"/>
      </g>
      <g id="Grupo_79990" data-name="Grupo 79990" transform="translate(-377.411 951.972)">
        <g id="Grupo_79989" data-name="Grupo 79989">
          <path id="Trazado_137891" data-name="Trazado 137891" d="M-357.524,1040.288a1.675,1.675,0,0,1-2.742-.467,51.082,51.082,0,0,1,1.285-43.851c8.548-17.12,11.556-27.216,12.6-31.894a1.051,1.051,0,0,1,1.987-.193C-339.878,974.115-327.958,1008.918-357.524,1040.288Z" transform="translate(364.593 -963.256)" fill="#bdebfb"/>
          <path id="Trazado_137892" data-name="Trazado 137892" d="M-354.256,1060.36a.475.475,0,0,1-.09.007.465.465,0,0,1-.457-.472c0-.291.57-29.354,11.379-53.7a.465.465,0,0,1,.613-.236.464.464,0,0,1,.236.613c-10.731,24.164-11.3,53.044-11.3,53.333A.464.464,0,0,1-354.256,1060.36Z" transform="translate(359.843 -983.959)" fill="#fff" style="mix-blend-mode: soft-light;isolation: isolate"/>
        </g>
      </g>
      <g id="Grupo_79993" data-name="Grupo 79993" transform="translate(-385.397 951.999)">
        <path id="Trazado_137893" data-name="Trazado 137893" d="M-363.651,1132.088s23.883,32.714,30.345,39.109c7.5,7.423,20.789-2.272,18.022-9.449s-28.477-32.921-28.477-32.921Z" transform="translate(372.122 -1043.619)" fill="url(#linear-gradient-2)"/>
        <path id="Trazado_137894" data-name="Trazado 137894" d="M-341.507,1023.082l77.864-53.491,21.287,81-92.878,4.522Z" transform="translate(361.377 -966.357)" fill="url(#linear-gradient-3)"/>
        <ellipse id="Elipse_4459" data-name="Elipse 4459" cx="8.769" cy="43.037" rx="8.769" ry="43.037" transform="translate(89.116 4.647) rotate(-15.366)" fill="#7dc8f4"/>
        <path id="Trazado_137895" data-name="Trazado 137895" d="M-167.583,1049.873c-.978-.568-3.467-3.108-7.025-10.469a164.1,164.1,0,0,1-9.659-26.778,164.067,164.067,0,0,1-5.381-27.954c-.7-8.146.137-11.6.688-12.589.978.567,3.467,3.108,7.025,10.469a164.143,164.143,0,0,1,9.66,26.779,164.093,164.093,0,0,1,5.381,27.954C-166.191,1045.429-167.032,1048.885-167.583,1049.873Z" transform="translate(287.824 -967.566)" fill="url(#linear-gradient-3)"/>
        <g id="Grupo_79992" data-name="Grupo 79992" transform="translate(97.908 4.516)">
          <g id="Grupo_79991" data-name="Grupo 79991" clip-path="url(#clip-path)">
            <path id="Trazado_137896" data-name="Trazado 137896" d="M-170.327,1031.685c1.937,7.051-.29,13.811-7.808,15.877s-15.183-1.975-17.12-9.026,2.586-14.442,10.1-16.508S-172.264,1024.635-170.327,1031.685Z" transform="translate(192.724 -996.078)" fill="url(#linear-gradient-5)"/>
          </g>
        </g>
        <path id="Trazado_137898" data-name="Trazado 137898" d="M-374.593,1074.11a50,50,0,0,1,16.351-3.634,89.338,89.338,0,0,0,9.9,33.548l-17.7,4.865a5.95,5.95,0,0,1-7-3.281c-2.418-5.346-6.078-14.443-7-22.3A8.806,8.806,0,0,1-374.593,1074.11Z" transform="translate(380.106 -1015.307)" fill="url(#linear-gradient-6)"/>
        <path id="Trazado_137899" data-name="Trazado 137899" d="M-358.9,1084.6l-13.794,3.79a1.287,1.287,0,0,1-1.285-.353,1.287,1.287,0,0,1-.3-1.3.369.369,0,0,1,.462-.24.368.368,0,0,1,.24.462.561.561,0,0,0,.132.566.563.563,0,0,0,.561.154l13.794-3.791a.57.57,0,0,0,.4-.7l-.27-.981a.569.569,0,0,0-.7-.4l-13.9,3.819a.367.367,0,0,1-.452-.257.367.367,0,0,1,.257-.452l13.9-3.819a1.306,1.306,0,0,1,1.6.912l.27.982A1.306,1.306,0,0,1-358.9,1084.6Z" transform="translate(377.311 -1020.439)" fill="#7dc8f4"/>
        <path id="Trazado_137900" data-name="Trazado 137900" d="M-358.027,1097.121l-13.794,3.79a1.286,1.286,0,0,1-1.285-.353,1.287,1.287,0,0,1-.3-1.3.368.368,0,0,1,.462-.24.368.368,0,0,1,.24.462.561.561,0,0,0,.132.566.562.562,0,0,0,.561.154l13.794-3.791a.57.57,0,0,0,.4-.7l-.27-.981a.57.57,0,0,0-.7-.4l-13.9,3.819a.367.367,0,0,1-.452-.257.367.367,0,0,1,.257-.452l13.9-3.819a1.306,1.306,0,0,1,1.6.912l.27.982A1.307,1.307,0,0,1-358.027,1097.121Z" transform="translate(376.888 -1026.515)" fill="#7dc8f4"/>
        <path id="Trazado_137901" data-name="Trazado 137901" d="M-351.819,1110.362l-13.794,3.791a1.287,1.287,0,0,1-1.285-.353,1.286,1.286,0,0,1-.3-1.3.368.368,0,0,1,.461-.24.368.368,0,0,1,.24.462.562.562,0,0,0,.133.566.561.561,0,0,0,.561.154l13.794-3.791a.569.569,0,0,0,.4-.7l-.27-.982a.569.569,0,0,0-.7-.4l-13.9,3.819a.368.368,0,0,1-.453-.257.368.368,0,0,1,.257-.452l13.9-3.819a1.305,1.305,0,0,1,1.6.912l.27.981A1.305,1.305,0,0,1-351.819,1110.362Z" transform="translate(373.875 -1032.94)" fill="#7dc8f4"/>
        <path id="Trazado_137902" data-name="Trazado 137902" d="M-345.07,1125.1l-13.794,3.79a1.286,1.286,0,0,1-1.285-.353,1.287,1.287,0,0,1-.3-1.3.369.369,0,0,1,.462-.24.368.368,0,0,1,.239.462.563.563,0,0,0,.133.566.562.562,0,0,0,.561.154l13.794-3.791a.57.57,0,0,0,.4-.7l-.27-.981a.57.57,0,0,0-.7-.4l-13.9,3.819a.367.367,0,0,1-.452-.257.368.368,0,0,1,.257-.452l13.9-3.819a1.307,1.307,0,0,1,1.6.912l.27.982A1.307,1.307,0,0,1-345.07,1125.1Z" transform="translate(370.601 -1040.091)" fill="#7dc8f4"/>
        <path id="Trazado_137903" data-name="Trazado 137903" d="M-309.42,1182.089a9.314,9.314,0,0,1-1.976.319,9.205,9.205,0,0,1-7.658-3.352L-336.8,1157.6a.368.368,0,0,1,.049-.518.368.368,0,0,1,.518.049l17.749,21.456a8.478,8.478,0,0,0,7.052,3.086,8.3,8.3,0,0,0,6.552-3.739c.079-.119.158-.242.236-.366a.368.368,0,0,1,.508-.115.368.368,0,0,1,.115.507c-.082.13-.163.256-.246.38A9,9,0,0,1-309.42,1182.089Z" transform="translate(359.136 -1057.288)" fill="#7dc8f4"/>
        <path id="Trazado_137904" data-name="Trazado 137904" d="M-343.386,1149.3a.368.368,0,0,1-.381-.12l-1.98-2.393a.368.368,0,0,1,.049-.518.368.368,0,0,1,.518.049l1.98,2.393a.368.368,0,0,1-.049.518A.364.364,0,0,1-343.386,1149.3Z" transform="translate(363.476 -1052.042)" fill="url(#linear-gradient-7)"/>
        <path id="Trazado_137905" data-name="Trazado 137905" d="M-165.672,1033.766a.368.368,0,0,1-.444-.232c-1.194-3.388-3.1-5.634-5.663-6.678-4.432-1.8-9.39.6-9.439.621a.367.367,0,0,1-.493-.167.368.368,0,0,1,.167-.493c.214-.106,5.307-2.571,10.043-.643,2.767,1.126,4.812,3.52,6.079,7.115a.368.368,0,0,1-.224.469Z" transform="translate(283.862 -993.455)" fill="#91e1fa"/>
      </g>
      <g id="Grupo_79999" data-name="Grupo 79999" transform="translate(-390.01 1016.233)">
        <path id="Trazado_137906" data-name="Trazado 137906" d="M-259.919,1138.745a3.327,3.327,0,0,1,2.983-.771c1.937.353,3.66,1.026,4.867,0s1.63.351,1.63.351l-3.613,2.746Z" transform="translate(326.404 -1112.107)" fill="url(#linear-gradient-8)"/>
        <g id="Grupo_79995" data-name="Grupo 79995">
          <path id="Trazado_137907" data-name="Trazado 137907" d="M-327.712,1142.4l.621,16.666a45.908,45.908,0,0,0,5.038,1.431,50.349,50.349,0,0,1,5-10.1A24.711,24.711,0,0,1-327.712,1142.4Z" transform="translate(359.298 -1114.44)" fill="url(#linear-gradient-9)"/>
          <path id="Trazado_137908" data-name="Trazado 137908" d="M-289.321,1141.852c-9.083,9.806-16.434,10.384-22.4,8.276a50.35,50.35,0,0,0-5,10.1c24.256,5.347,29.967-16.951,29.967-16.951Z" transform="translate(353.964 -1114.173)" fill="url(#linear-gradient-10)"/>
          <path id="Trazado_137909" data-name="Trazado 137909" d="M-264.116,1141.085s.717-3,2.877-2.587,7.065,3.078,8.329,2.587,2.88-1.667,3.71-1.252l-1.46,1.816s3.755-2.166,4.4-.835l-6.248,3.516S-261.649,1143.415-264.116,1141.085Z" transform="translate(328.441 -1112.527)" fill="url(#linear-gradient-11)"/>
          <path id="Trazado_137910" data-name="Trazado 137910" d="M-388.924,1193.417s-3.1-44.245,19.493-58c0,0,6.316-4.17,14.187,3.906s5.336,16.465-1.269,24.328-13.332,21.908-11.731,29.77Z" transform="translate(389.068 -1110.527)" fill="url(#linear-gradient-12)"/>
          <path id="Trazado_137911" data-name="Trazado 137911" d="M-335.9,1113.018c-.006.528-7.529,11.214-7.529,11.214s1.35,2.659,7.8,4.818l5.565-11.441Z" transform="translate(366.924 -1100.182)" fill="url(#linear-gradient-13)"/>
          <path id="Trazado_137912" data-name="Trazado 137912" d="M-334.552,1175.8s14.274,11.955,29.687,6.738a3.669,3.669,0,0,1,2.894.218l4.431,2.34a3.955,3.955,0,0,0,5.242-1.468,8.319,8.319,0,0,0,1.246-3.333l-8.671-3.51.639-1.063s-4.233-.359-5.342,2.675c0,0-8.063,3.354-21.661-11.6C-326.086,1166.794-332.257,1172.041-334.552,1175.8Z" transform="translate(362.617 -1126.275)" fill="url(#linear-gradient-14)"/>
          <path id="Trazado_137913" data-name="Trazado 137913" d="M-344.614,1173.624a.316.316,0,0,1-.177-.054,27.541,27.541,0,0,1-8.891-10.712.316.316,0,0,1,.167-.414.316.316,0,0,1,.414.167,26.868,26.868,0,0,0,8.663,10.435.316.316,0,0,1,.085.439A.317.317,0,0,1-344.614,1173.624Z" transform="translate(371.91 -1124.152)" fill="url(#linear-gradient-15)"/>
          <path id="Trazado_137914" data-name="Trazado 137914" d="M-333.536,1153.581a.315.315,0,0,1-.266-.145c-.018-.028-1.855-2.888-5.353-9.152a6.98,6.98,0,0,0-4.156-3.589,8.121,8.121,0,0,0-5.541.736.316.316,0,0,1-.43-.119.315.315,0,0,1,.118-.43,8.625,8.625,0,0,1,6.018-.8,7.581,7.581,0,0,1,4.543,3.891c3.487,6.243,5.315,9.09,5.333,9.119a.316.316,0,0,1-.095.437A.315.315,0,0,1-333.536,1153.581Z" transform="translate(369.784 -1113.193)" fill="url(#linear-gradient-15)"/>
          <g id="Grupo_79994" data-name="Grupo 79994" transform="translate(21.407)">
            <path id="Trazado_137915" data-name="Trazado 137915" d="M-327.417,1101.124s2.677,6.149,2.857,9.377.875,5.322-2.857,5.972a7.933,7.933,0,0,1-8.579-4.424s-2.669-4.954-2.07-6.983S-327.417,1101.124-327.417,1101.124Z" transform="translate(342.957 -1094.411)" fill="url(#linear-gradient-17)"/>
            <path id="Trazado_137916" data-name="Trazado 137916" d="M-339.248,1103.41l.213-.094a.512.512,0,0,0,.25-.7c-.526-1.017-1.552-3.347-.227-3.89,1.708-.7,8.474-2.08,9.933-4.481a4.467,4.467,0,0,0-1.708-6.133.258.258,0,0,0-.337.11l-.156.295a.254.254,0,0,1-.468-.048h0a.252.252,0,0,0-.457-.065c-.449.718-1.66,1.883-4.9,2.48-4.6.85-7.648,2.713-7.723,5.894a.254.254,0,0,1-.392.209c-.34-.207-.884-.3-1.611.307-1.264,1.063-.747,3.821,2.025,6.089a.252.252,0,0,1-.012.406c-.5.327-1.251,1.105.689,2.143a6.538,6.538,0,0,0,4.084.89.252.252,0,0,0,.2-.3l-.616-2.8a.253.253,0,0,1,.248-.308Z" transform="translate(347.484 -1088.085)" fill="url(#linear-gradient-18)"/>
            <path id="Trazado_137917" data-name="Trazado 137917" d="M-334.431,1116.153s-1.021-3.928-2.782-2.827.914,4.4,2.33,4.548Z" transform="translate(342.782 -1100.238)" fill="url(#linear-gradient-19)"/>
          </g>
        </g>
        <g id="Grupo_79998" data-name="Grupo 79998" transform="translate(61.098 0.737)">
          <g id="Grupo_79996" data-name="Grupo 79996" transform="translate(0 25.561)">
            <path id="Trazado_137918" data-name="Trazado 137918" d="M-261.962,1182.667s-1.3-3.416-2.813-3.1a10.36,10.36,0,0,0-3.173,1.478l-2.435,3.293s6.835,2.692,9.238,1.15a52.594,52.594,0,0,0,15.8-.24,34.568,34.568,0,0,1-2.483-7.486A36.778,36.778,0,0,1-261.962,1182.667Z" transform="translate(270.384 -1157.892)" fill="url(#linear-gradient-20)"/>
            <path id="Trazado_137919" data-name="Trazado 137919" d="M-203.727,1139.169s-10,12.589-22.849,19.865a34.572,34.572,0,0,0,2.483,7.486,41.269,41.269,0,0,0,20.928-9.508Z" transform="translate(249.128 -1139.169)" fill="url(#linear-gradient-21)"/>
          </g>
          <path id="Trazado_137920" data-name="Trazado 137920" d="M-172.144,1193.255a73.305,73.305,0,0,0-9.293-32.4,26.381,26.381,0,0,1-3.026-16.981l1.015-6.558a49.113,49.113,0,0,1,26.819-.181s19.55,16.136,6.484,57.406Z" transform="translate(228.848 -1111.753)" fill="url(#linear-gradient-22)"/>
          <path id="Trazado_137921" data-name="Trazado 137921" d="M-177.985,1120.925l3.3,7.924a1.579,1.579,0,0,0,1.193.949c1.9.326,6.5.835,9.521-1.151a.768.768,0,0,0,.205-1.08l-6.094-8.748Z" transform="translate(225.551 -1103.734)" fill="url(#linear-gradient-23)"/>
          <path id="Trazado_137922" data-name="Trazado 137922" d="M-123.392,1173.635c2.378-17.967-11.468-31.783-11.468-31.783l-8.238,9.6c6.255,7.8,9.228,14.94,10.586,20.551C-130.711,1171.483-126.374,1170.654-123.392,1173.635Z" transform="translate(208.624 -1114.91)" fill="url(#linear-gradient-24)"/>
          <path id="Trazado_137923" data-name="Trazado 137923" d="M-132.711,1181.071a.211.211,0,0,1-.2-.161,52.822,52.822,0,0,0-10.546-20.469.211.211,0,0,1,.032-.3.211.211,0,0,1,.3.032,53.242,53.242,0,0,1,10.626,20.634.211.211,0,0,1-.155.254A.24.24,0,0,1-132.711,1181.071Z" transform="translate(208.822 -1123.763)" fill="url(#linear-gradient-25)"/>
          <path id="Trazado_137924" data-name="Trazado 137924" d="M-130.458,1199.94a33.008,33.008,0,0,1,.937,10.964,1.446,1.446,0,0,1-1.338,1.3c-.8.056-1.884.129-2.854.185a5.326,5.326,0,0,1-3.042-1.176.476.476,0,0,0-.7.6,8.424,8.424,0,0,0,3.124,2.79.493.493,0,0,1-.114.9l-4.42,1.253c7.263,6.843,12.059-.813,12.059-.813a34.644,34.644,0,0,0,5.469-14.374C-124.321,1198.587-128.658,1199.416-130.458,1199.94Z" transform="translate(206.571 -1142.843)" fill="url(#linear-gradient-26)"/>
          <g id="Grupo_79997" data-name="Grupo 79997" transform="translate(43.334)">
            <path id="Trazado_137925" data-name="Trazado 137925" d="M-176.869,1098.954c-.138.131-5.846,11.339-5.846,11.339l6.469,3.123,6.988-9.819S-174.55,1096.771-176.869,1098.954Z" transform="translate(184.512 -1093.887)" fill="url(#linear-gradient-27)"/>
            <path id="Trazado_137926" data-name="Trazado 137926" d="M-173.892,1100.4l-3.226,5.378a1.006,1.006,0,0,1-.177.22c-.384.358-1.7,1.4-2.714-.019a9.1,9.1,0,0,0-2.549-2.756,1.031,1.031,0,0,0-1.392.458,38.541,38.541,0,0,0-2.208,5.238,1.026,1.026,0,0,0,.6,1.259,28.6,28.6,0,0,0,6.2,1.807,1.031,1.031,0,0,0,.976-.414c.988-1.354,3.774-5.138,4.725-6.085.883-.88,2.514-.548,3.248-.337a1.04,1.04,0,0,0,.825-.109,2.273,2.273,0,0,0,.856-3.459,1.033,1.033,0,0,1,.319-1.4,2.283,2.283,0,0,0,.875-3.239,3.218,3.218,0,0,0-3.485-1.706,1.072,1.072,0,0,1-1.124-.625.682.682,0,0,0-.532-.42,1,1,0,0,1-.81-1.176,2.643,2.643,0,0,0-1.476-3.028c-2.791-1.535-5.236.966-5.858,3.077s2.5,3.6,4.462,3.852c1.442.183,2.233,1.756,2.551,2.579A1.033,1.033,0,0,1-173.892,1100.4Z" transform="translate(186.206 -1089.516)" fill="url(#linear-gradient-28)"/>
            <path id="Trazado_137927" data-name="Trazado 137927" d="M-164.2,1121.085s1.241-3.631,2.83-3.5,2.839,1.716.87,3.495C-162.946,1123.295-164.2,1121.085-164.2,1121.085Z" transform="translate(175.527 -1103.134)" fill="url(#linear-gradient-29)"/>
          </g>
        </g>
      </g>
      <g id="Grupo_80008" data-name="Grupo 80008" transform="translate(-365.621 949.189)">
        <g id="Grupo_80003" data-name="Grupo 80003" transform="translate(21.071)">
          <g id="Grupo_80000" data-name="Grupo 80000" opacity="0.3">
            <path id="Trazado_137928" data-name="Trazado 137928" d="M-299.543,989.767a.656.656,0,0,1-.7-.524c-.146-.726-.263-1.469-.347-2.209a.656.656,0,0,1,.577-.726H-300a.655.655,0,0,1,.713.579c.08.7.191,1.409.331,2.1a.656.656,0,0,1-.513.772A.65.65,0,0,1-299.543,989.767Zm-.5-5.692a.752.752,0,0,1-.078,0,.656.656,0,0,1-.64-.671c.018-.744.067-1.494.147-2.231a.656.656,0,0,1,.723-.581.656.656,0,0,1,.581.723c-.076.7-.122,1.413-.139,2.119A.656.656,0,0,1-300.04,984.075Zm.769-5.66a.659.659,0,0,1-.223-.017.655.655,0,0,1-.475-.8c.182-.72.4-1.441.641-2.143a.657.657,0,0,1,.834-.405.656.656,0,0,1,.4.834c-.231.667-.436,1.351-.608,2.035A.657.657,0,0,1-299.271,978.416Zm2.015-5.347a.654.654,0,0,1-.36-.069.656.656,0,0,1-.285-.883c.339-.661.71-1.316,1.1-1.945a.657.657,0,0,1,.9-.208.656.656,0,0,1,.208.9c-.374.6-.726,1.219-1.048,1.848A.656.656,0,0,1-297.256,973.069Zm3.157-4.763a.651.651,0,0,1-.482-.15.656.656,0,0,1-.082-.924c.476-.568.982-1.124,1.506-1.652a.655.655,0,0,1,.927,0,.656.656,0,0,1,0,.928c-.5.5-.98,1.03-1.432,1.57A.653.653,0,0,1-294.1,968.306Zm4.132-3.945a.657.657,0,0,1-.584-.255.656.656,0,0,1,.125-.919c.59-.449,1.208-.88,1.835-1.278a.656.656,0,0,1,.905.2.656.656,0,0,1-.2.905c-.6.378-1.182.787-1.743,1.214A.652.652,0,0,1-289.967,964.36Zm23.777-3.821a.659.659,0,0,1-.275-.033c-.666-.23-1.351-.433-2.036-.605a.656.656,0,0,1-.477-.8.656.656,0,0,1,.8-.477c.721.181,1.443.4,2.145.637a.656.656,0,0,1,.406.834A.656.656,0,0,1-266.19,960.539Zm-18.877.891a.656.656,0,0,1-.659-.381.656.656,0,0,1,.326-.869c.676-.307,1.373-.589,2.073-.837a.656.656,0,0,1,.837.4.656.656,0,0,1-.4.837c-.665.235-1.327.5-1.969.794A.661.661,0,0,1-285.067,961.43Zm13.3-2.133a.675.675,0,0,1-.132,0c-.7-.075-1.415-.12-2.121-.135a.656.656,0,0,1-.641-.67.655.655,0,0,1,.67-.642c.743.016,1.494.064,2.232.143a.656.656,0,0,1,.583.722A.656.656,0,0,1-271.766,959.3Zm-7.869.371a.656.656,0,0,1-.7-.522.656.656,0,0,1,.512-.773c.727-.148,1.47-.267,2.208-.352l.014,0a.656.656,0,0,1,.713.578.656.656,0,0,1-.576.727c-.7.081-1.407.194-2.1.335C-279.588,959.663-279.611,959.666-279.635,959.669Z" transform="translate(300.758 -957.85)" fill="url(#linear-gradient-30)"/>
            <path id="Trazado_137929" data-name="Trazado 137929" d="M-227,965.042a.654.654,0,0,1-.383-.082c-.294-.166-.6-.328-.9-.483a.655.655,0,0,1-.285-.882.655.655,0,0,1,.882-.285c.319.163.637.334.947.508a.656.656,0,0,1,.25.893A.654.654,0,0,1-227,965.042Z" transform="translate(265.765 -960.463)" fill="url(#linear-gradient-30)"/>
          </g>
          <g id="Grupo_80001" data-name="Grupo 80001" transform="translate(11.994 18.098)" opacity="0.3">
            <path id="Trazado_137930" data-name="Trazado 137930" d="M-202.689,995.324a.656.656,0,0,1-.7-.489c-.085-.327-.178-.658-.276-.984a.655.655,0,0,1,.437-.818.655.655,0,0,1,.818.437c.1.343.2.691.291,1.036a.656.656,0,0,1-.471.8A.649.649,0,0,1-202.689,995.324Z" transform="translate(241.666 -993.006)" fill="url(#linear-gradient-30)"/>
            <path id="Trazado_137931" data-name="Trazado 137931" d="M-256.949,1031.351q-.451.042-.906.07a.655.655,0,0,1-.694-.615.656.656,0,0,1,.615-.694c.7-.043,1.4-.114,2.08-.213a.656.656,0,0,1,.743.556.656.656,0,0,1-.555.743C-256.089,1031.259-256.521,1031.311-256.949,1031.351Zm-4.369.044a.62.62,0,0,1-.112,0c-.729-.055-1.465-.141-2.186-.256a.655.655,0,0,1-.544-.751.656.656,0,0,1,.752-.544c.684.11,1.383.191,2.077.243a.656.656,0,0,1,.6.7A.656.656,0,0,1-261.318,1031.395Zm9.024-.927a.656.656,0,0,1-.691-.471.656.656,0,0,1,.448-.812c.666-.192,1.333-.415,1.982-.663a.656.656,0,0,1,.847.378.656.656,0,0,1-.379.847c-.683.262-1.385.5-2.086.7A.624.624,0,0,1-252.294,1030.468Zm-14.551-.109a.656.656,0,0,1-.253-.026c-.7-.214-1.4-.46-2.076-.731a.656.656,0,0,1-.365-.852.655.655,0,0,1,.853-.365c.644.258,1.308.491,1.972.694a.655.655,0,0,1,.436.818A.655.655,0,0,1-266.845,1030.36Zm19.745-2.035a.656.656,0,0,1-.637-.337.656.656,0,0,1,.259-.891c.607-.334,1.208-.7,1.787-1.082a.655.655,0,0,1,.909.183.655.655,0,0,1-.183.909c-.61.405-1.242.789-1.882,1.14A.656.656,0,0,1-247.1,1028.324Zm4.6-3.232a.655.655,0,0,1-.554-.219.656.656,0,0,1,.058-.926c.521-.46,1.029-.947,1.509-1.447a.655.655,0,0,1,.927-.019.656.656,0,0,1,.019.928c-.505.527-1.039,1.039-1.588,1.522A.65.65,0,0,1-242.5,1025.092Zm3.783-4.158a.654.654,0,0,1-.447-.122.655.655,0,0,1-.145-.916c.409-.563.8-1.148,1.158-1.741a.656.656,0,0,1,.9-.221.656.656,0,0,1,.221.9c-.378.624-.788,1.241-1.219,1.832A.653.653,0,0,1-238.719,1020.935Zm2.787-4.883a.651.651,0,0,1-.321-.051.656.656,0,0,1-.342-.862c.276-.637.528-1.294.748-1.952a.656.656,0,0,1,.83-.413.656.656,0,0,1,.413.83c-.233.692-.5,1.384-.788,2.055A.656.656,0,0,1-235.933,1016.052Zm1.647-5.378a.669.669,0,0,1-.183-.009.655.655,0,0,1-.523-.766c.128-.682.229-1.377.3-2.068a.656.656,0,0,1,.719-.586.655.655,0,0,1,.586.719c-.074.728-.18,1.46-.315,2.177A.657.657,0,0,1-234.285,1010.674Zm.425-5.605-.04,0a.655.655,0,0,1-.677-.633c-.018-.511-.05-1.027-.1-1.536q-.026-.276-.059-.55a.656.656,0,0,1,.576-.727.648.648,0,0,1,.727.576q.034.288.061.578c.05.534.085,1.078.1,1.615A.656.656,0,0,1-233.86,1005.069Z" transform="translate(273.64 -997.185)" fill="url(#linear-gradient-30)"/>
            <path id="Trazado_137932" data-name="Trazado 137932" d="M-275.842,1051.365a.656.656,0,0,1-.386-.083c-.309-.176-.619-.362-.923-.552a.656.656,0,0,1-.208-.9.655.655,0,0,1,.9-.208c.289.181.584.357.877.524a.655.655,0,0,1,.245.895A.656.656,0,0,1-275.842,1051.365Z" transform="translate(277.46 -1020.426)" fill="url(#linear-gradient-30)"/>
          </g>
          <g id="Grupo_80002" data-name="Grupo 80002" transform="translate(6.524 6.324)">
            <path id="Trazado_137933" data-name="Trazado 137933" d="M-280.835,1005.192a.307.307,0,0,0,.351.061l3.364-1.612a16.258,16.258,0,0,0,4.85,2.048l1.193,3.532a.306.306,0,0,0,.288.208l4.475.029a.308.308,0,0,0,.291-.2l1.238-3.517a16.237,16.237,0,0,0,4.877-1.985l3.343,1.656a.305.305,0,0,0,.351-.057l3.185-3.143a.307.307,0,0,0,.061-.351l-1.612-3.364a16.26,16.26,0,0,0,2.048-4.85L-249,992.45a.306.306,0,0,0,.208-.288l.029-4.475a.306.306,0,0,0-.2-.291l-3.517-1.238a16.24,16.24,0,0,0-1.985-4.877l1.656-3.343a.306.306,0,0,0-.057-.352l-3.143-3.185a.306.306,0,0,0-.351-.061l-3.364,1.612a16.248,16.248,0,0,0-4.85-2.048l-1.193-3.532a.307.307,0,0,0-.288-.209l-4.475-.029a.306.306,0,0,0-.291.2l-1.238,3.517a16.244,16.244,0,0,0-4.877,1.985l-3.343-1.656a.305.305,0,0,0-.351.057l-3.185,3.143a.307.307,0,0,0-.061.351l1.612,3.364a16.249,16.249,0,0,0-2.048,4.85l-3.533,1.193a.306.306,0,0,0-.208.288l-.029,4.475a.307.307,0,0,0,.2.291l3.517,1.238a16.246,16.246,0,0,0,1.985,4.877l-1.656,3.343a.306.306,0,0,0,.057.351Z" transform="translate(288.086 -970.135)" fill="url(#linear-gradient-35)"/>
            <path id="Trazado_137934" data-name="Trazado 137934" d="M-253.711,1008.566a4.505,4.505,0,0,1-4.79-3.406,4.5,4.5,0,0,1,3.3-5.441,4.467,4.467,0,0,1,3.4.521,4.469,4.469,0,0,1,2.038,2.775,4.5,4.5,0,0,1-3.3,5.441A4.589,4.589,0,0,1-253.711,1008.566Zm-.739-7.913a3.555,3.555,0,0,0-.5.085,3.453,3.453,0,0,0-2.527,4.172,3.451,3.451,0,0,0,4.171,2.527,3.452,3.452,0,0,0,2.527-4.171,3.424,3.424,0,0,0-1.562-2.128A3.423,3.423,0,0,0-254.45,1000.653Z" transform="translate(273.794 -984.425)" fill="#fff" opacity="0.7"/>
            <path id="Trazado_137935" data-name="Trazado 137935" d="M-259.133,1008.774a11.2,11.2,0,0,1-1.135.05h0q-.181,0-.36-.008a11.114,11.114,0,0,1-1.759-.208l-.024,0-.067-.014-.13-.028a.262.262,0,0,1-.2-.231.259.259,0,0,1,.005-.082.263.263,0,0,1,.313-.2,10.6,10.6,0,0,0,2.229.251,10.536,10.536,0,0,0,8.922-4.83,10.471,10.471,0,0,0,1.681-5.637,10.659,10.659,0,0,0-.047-1.084,10.455,10.455,0,0,0-2.99-6.386,10.465,10.465,0,0,0-7.429-3.134,10.546,10.546,0,0,0-10.6,10.467c0,.358.014.715.047,1.069a10.5,10.5,0,0,0,1.411,4.35.255.255,0,0,1,.036.109.261.261,0,0,1-.128.25.262.262,0,0,1-.359-.092,11.034,11.034,0,0,1-1.482-4.567q-.053-.558-.049-1.122A11.074,11.074,0,0,1-260.125,986.7a10.986,10.986,0,0,1,7.8,3.29,10.978,10.978,0,0,1,3.139,6.7c.036.375.052.755.05,1.137a10.99,10.99,0,0,1-3.29,7.8A10.978,10.978,0,0,1-259.133,1008.774Z" transform="translate(279.92 -978.174)" fill="#fff" opacity="0.7"/>
          </g>
        </g>
        <g id="Grupo_80007" data-name="Grupo 80007" transform="translate(0 26.998)">
          <g id="Grupo_80004" data-name="Grupo 80004" opacity="0.3">
            <path id="Trazado_137936" data-name="Trazado 137936" d="M-339.255,1055.715a.4.4,0,0,1-.414-.253c-.128-.32-.248-.647-.356-.974a.405.405,0,0,1,.257-.512.4.4,0,0,1,.512.257c.1.311.217.623.339.928a.405.405,0,0,1-.226.527A.417.417,0,0,1-339.255,1055.715Z" transform="translate(340.892 -1031.479)" fill="url(#linear-gradient-36)"/>
            <path id="Trazado_137937" data-name="Trazado 137937" d="M-340.938,1031.543a.4.4,0,0,1-.435-.324,17.553,17.553,0,0,1-.258-1.763q-.018-.186-.031-.374a.42.42,0,0,1,.374-.434.405.405,0,0,1,.434.374q.013.179.03.357a16.7,16.7,0,0,0,.246,1.681.405.405,0,0,1-.318.477Zm-.308-4.194a.384.384,0,0,1-.058,0,.405.405,0,0,1-.385-.424,17.457,17.457,0,0,1,.236-2.143.406.406,0,0,1,.468-.33.4.4,0,0,1,.33.468,16.786,16.786,0,0,0-.225,2.044A.405.405,0,0,1-341.246,1027.348Zm.718-4.144a.416.416,0,0,1-.156-.016.405.405,0,0,1-.269-.506,17.434,17.434,0,0,1,.756-2.021.4.4,0,0,1,.535-.2.405.405,0,0,1,.2.535,16.645,16.645,0,0,0-.721,1.927A.406.406,0,0,1-340.528,1023.2Zm1.715-3.841a.406.406,0,0,1-.247-.057.4.4,0,0,1-.137-.556,17.647,17.647,0,0,1,1.227-1.774.406.406,0,0,1,.569-.067.406.406,0,0,1,.067.569,16.736,16.736,0,0,0-1.17,1.691A.406.406,0,0,1-338.813,1019.364Zm2.6-3.3a.407.407,0,0,1-.326-.118.4.4,0,0,1,0-.572,17.736,17.736,0,0,1,1.62-1.422.4.4,0,0,1,.568.073.4.4,0,0,1-.072.568,16.943,16.943,0,0,0-1.546,1.357A.406.406,0,0,1-336.212,1016.059Zm3.324-2.573a.406.406,0,0,1-.387-.2.406.406,0,0,1,.142-.555,17.375,17.375,0,0,1,1.918-.983.405.405,0,0,1,.533.209.4.4,0,0,1-.21.533,16.653,16.653,0,0,0-1.828.937A.4.4,0,0,1-332.888,1013.485Zm3.851-1.682a.4.4,0,0,1-.426-.288.406.406,0,0,1,.273-.5,17.61,17.61,0,0,1,2.1-.483.407.407,0,0,1,.466.334.406.406,0,0,1-.333.466,16.7,16.7,0,0,0-2,.46A.4.4,0,0,1-329.036,1011.8Zm6.256-.645a.368.368,0,0,1-.072,0,16.8,16.8,0,0,0-1.788-.049c-.091,0-.18,0-.268.009a.406.406,0,0,1-.422-.388.4.4,0,0,1,.388-.422c.095,0,.189-.007.284-.009a17.738,17.738,0,0,1,1.872.052.4.4,0,0,1,.371.437A.4.4,0,0,1-322.781,1011.159Z" transform="translate(341.69 -1010.294)" fill="url(#linear-gradient-30)"/>
          </g>
          <g id="Grupo_80005" data-name="Grupo 80005" transform="translate(8.01 23.28)" opacity="0.3">
            <path id="Trazado_137938" data-name="Trazado 137938" d="M-312.171,1067.124a.4.4,0,0,1-.441-.36.405.405,0,0,1,.359-.446,16.79,16.79,0,0,0,1.994-.338.407.407,0,0,1,.486.3.405.405,0,0,1-.3.486,17.651,17.651,0,0,1-2.091.354Zm-2.07.1-.044,0a17.821,17.821,0,0,1-2.116-.153.4.4,0,0,1-.347-.455.406.406,0,0,1,.455-.349,16.845,16.845,0,0,0,2.019.147.4.4,0,0,1,.4.41A.4.4,0,0,1-314.241,1067.221Zm6.1-1.036a.405.405,0,0,1-.419-.264.405.405,0,0,1,.241-.519,16.784,16.784,0,0,0,1.854-.81.405.405,0,0,1,.545.176.405.405,0,0,1-.177.545,17.5,17.5,0,0,1-1.943.849A.4.4,0,0,1-308.143,1066.186Zm-10.2.486a.4.4,0,0,1-.141-.011,17.35,17.35,0,0,1-2.017-.66.4.4,0,0,1-.227-.526.405.405,0,0,1,.526-.227,16.743,16.743,0,0,0,1.923.63.4.4,0,0,1,.29.494A.405.405,0,0,1-318.343,1066.672Zm13.881-2.37a.4.4,0,0,1-.374-.177.405.405,0,0,1,.109-.563,16.568,16.568,0,0,0,1.6-1.232.4.4,0,0,1,.571.04.405.405,0,0,1-.04.571,17.63,17.63,0,0,1-1.682,1.292A.409.409,0,0,1-304.462,1064.3Zm3.123-2.712a.4.4,0,0,1-.31-.1.4.4,0,0,1-.029-.572,17.047,17.047,0,0,0,1.264-1.581.4.4,0,0,1,.564-.1.4.4,0,0,1,.1.564,17.681,17.681,0,0,1-1.325,1.657A.4.4,0,0,1-301.339,1061.59Zm2.383-3.383a.4.4,0,0,1-.23-.046.4.4,0,0,1-.165-.549,16.557,16.557,0,0,0,.847-1.837.4.4,0,0,1,.524-.23.4.4,0,0,1,.231.524,17.338,17.338,0,0,1-.889,1.927A.4.4,0,0,1-298.956,1058.207Z" transform="translate(323.522 -1055.517)" fill="url(#linear-gradient-30)"/>
            <path id="Trazado_137939" data-name="Trazado 137939" d="M-324.813,1072.963a.4.4,0,0,1-.232-.048c-.3-.166-.6-.342-.894-.523a.406.406,0,0,1-.129-.558.406.406,0,0,1,.559-.128c.275.172.562.34.852.5a.405.405,0,0,1,.161.55A.405.405,0,0,1-324.813,1072.963Z" transform="translate(326.129 -1063.342)" fill="url(#linear-gradient-39)"/>
          </g>
          <g id="Grupo_80006" data-name="Grupo 80006" transform="translate(4.316 4.202)">
            <path id="Trazado_137940" data-name="Trazado 137940" d="M-328.454,1041.915a.206.206,0,0,0,.235.041l2.251-1.079a10.861,10.861,0,0,0,3.246,1.37l.8,2.364a.2.2,0,0,0,.193.14l2.994.019a.2.2,0,0,0,.195-.137l.829-2.353a10.878,10.878,0,0,0,3.263-1.328l2.237,1.108a.205.205,0,0,0,.235-.038l2.131-2.1a.205.205,0,0,0,.041-.234l-1.079-2.251a10.871,10.871,0,0,0,1.37-3.246l2.364-.8a.206.206,0,0,0,.14-.193l.019-2.995a.2.2,0,0,0-.137-.195l-2.353-.828a10.869,10.869,0,0,0-1.328-3.263l1.108-2.237a.205.205,0,0,0-.038-.235l-2.1-2.131a.2.2,0,0,0-.234-.041l-2.251,1.078a10.882,10.882,0,0,0-3.246-1.37l-.8-2.363a.205.205,0,0,0-.193-.139l-2.995-.02a.2.2,0,0,0-.195.137l-.828,2.353a10.882,10.882,0,0,0-3.263,1.328l-2.237-1.108a.2.2,0,0,0-.235.038l-2.131,2.1a.2.2,0,0,0-.041.235l1.078,2.251a10.871,10.871,0,0,0-1.37,3.246l-2.363.8a.2.2,0,0,0-.139.193l-.02,2.994a.2.2,0,0,0,.137.195l2.353.829a10.879,10.879,0,0,0,1.328,3.263l-1.108,2.237a.205.205,0,0,0,.038.235Z" transform="translate(333.306 -1018.457)" fill="url(#linear-gradient-40)"/>
            <path id="Trazado_137941" data-name="Trazado 137941" d="M-310.354,1044.178a3.04,3.04,0,0,1-1.87-.43,3.044,3.044,0,0,1-1.388-1.89,3.068,3.068,0,0,1,2.244-3.706,3.068,3.068,0,0,1,3.707,2.245,3.044,3.044,0,0,1-.355,2.318,3.04,3.04,0,0,1-1.89,1.388A3.041,3.041,0,0,1-310.354,1044.178Zm-.494-5.3a2.318,2.318,0,0,0-.326.055,2.257,2.257,0,0,0-1.651,2.726,2.239,2.239,0,0,0,1.021,1.391,2.243,2.243,0,0,0,1.705.261h0a2.241,2.241,0,0,0,1.39-1.021,2.24,2.24,0,0,0,.261-1.706A2.258,2.258,0,0,0-310.848,1038.883Z" transform="translate(323.794 -1027.97)" fill="#fff" opacity="0.7"/>
            <path id="Trazado_137942" data-name="Trazado 137942" d="M-314.135,1044.325a7.671,7.671,0,0,1-.775.034,7.667,7.667,0,0,1-1.546-.167l-.068-.015a.4.4,0,0,1-.316-.356.409.409,0,0,1,.008-.127.406.406,0,0,1,.483-.307,6.825,6.825,0,0,0,1.443.162h.08a6.754,6.754,0,0,0,3.235-.831,6.854,6.854,0,0,0,1.476-1.091l.011-.011.033-.032a6.777,6.777,0,0,0,2.029-4.81,6.879,6.879,0,0,0-.031-.7,6.767,6.767,0,0,0-1.936-4.134,6.774,6.774,0,0,0-4.809-2.028,6.781,6.781,0,0,0-4.836,1.966,6.774,6.774,0,0,0-2.028,4.81,6.585,6.585,0,0,0,.03.692,6.791,6.791,0,0,0,.913,2.816.412.412,0,0,1,.055.168.406.406,0,0,1-.2.387.405.405,0,0,1-.555-.143,7.612,7.612,0,0,1-1.022-3.15,7.615,7.615,0,0,1-.034-.774,7.578,7.578,0,0,1,2.27-5.381,7.572,7.572,0,0,1,5.41-2.2,7.577,7.577,0,0,1,5.381,2.27,7.573,7.573,0,0,1,2.166,4.625c.024.258.036.521.035.784A7.642,7.642,0,0,1-314.135,1044.325Z" transform="translate(328.058 -1023.62)" fill="#fff" opacity="0.7"/>
          </g>
        </g>
      </g>
      <g id="Grupo_80009" data-name="Grupo 80009" transform="translate(-267.996 970.885)">
        <rect id="Rectángulo_5923-2" data-name="Rectángulo 5923" width="28.701" height="5.276" rx="1.515" transform="translate(0 8.788) rotate(-17.829)" fill="#7dc8f4"/>
        <rect id="Rectángulo_5924" data-name="Rectángulo 5924" width="32.604" height="5.276" rx="1.515" transform="translate(4.64 18.875) rotate(-17.829)" fill="#7dc8f4"/>
        <rect id="Rectángulo_5925" data-name="Rectángulo 5925" width="29.809" height="5.276" rx="1.515" transform="translate(5.524 30.381) rotate(-17.829)" fill="#7dc8f4"/>
      </g>
    </g>
  </g>
</svg>
