<svg xmlns="http://www.w3.org/2000/svg" width="132.36" height="188.441" viewBox="0 0 132.36 188.441">
  <g id="Grupo_79879" data-name="Grupo 79879" transform="translate(-804.534 -18.363)">
    <ellipse id="Elipse_4409" data-name="Elipse 4409" cx="13.486" cy="23.359" rx="13.486" ry="23.359" transform="translate(890.031 204.677) rotate(-89.689)" fill="#c7c7c7"/>
    <path id="Trazado_107630" data-name="Trazado 107630" d="M864.684,172.028H831.166L804.535,156.8,845.2,137.091l25.4.184Z" transform="translate(0 34.776)" fill="#c7c7c7"/>
    <g id="Grupo_56150" data-name="Grupo 56150" transform="translate(844.252 151.456)">
      <path id="Trazado_107631" data-name="Trazado 107631" d="M855.686,153.94v17.453l-20.432-11.83V142.11l2.4.82,6.317-3.672Z" transform="translate(-835.254 -116.046)" fill="#954f1d"/>
      <path id="Trazado_107632" data-name="Trazado 107632" d="M835.255,147.36l20.424,11.846,44.8-26.074L880.056,121.3Z" transform="translate(-835.254 -121.304)" fill="#e3ae71"/>
      <path id="Trazado_107633" data-name="Trazado 107633" d="M851.058,156.519v17.453l44.795-26.067V130.453Z" transform="translate(-830.625 -118.625)" fill="#bf8649"/>
    </g>
    <g id="Grupo_56151" data-name="Grupo 56151" transform="translate(886.24 18.363)">
      <path id="Trazado_107634" data-name="Trazado 107634" d="M867.73,19.859V153.727l18.578,10.81V30.675Z" transform="translate(-867.73 -17.925)" fill="#989696"/>
      <path id="Trazado_107635" data-name="Trazado 107635" d="M882.1,28.665V162.524l3.35-1.939V26.726Z" transform="translate(-863.52 -15.913)" fill="#cccbcb"/>
      <path id="Trazado_107636" data-name="Trazado 107636" d="M886.31,31.114,867.73,20.3l3.35-1.939,18.58,10.812Z" transform="translate(-867.73 -18.363)" fill="#f9f9f9"/>
    </g>
    <g id="Grupo_56152" data-name="Grupo 56152" transform="translate(881.576 144.925)">
      <path id="Trazado_107637" data-name="Trazado 107637" d="M875.547,126.179v14l-11.424-6.627v-14l.472.161,1.24-.721Z" transform="translate(-864.123 -115.45)" fill="#7a3f0d"/>
      <path id="Trazado_107638" data-name="Trazado 107638" d="M864.123,120.354l11.423,6.63,7.053-4.1-11.423-6.626Z" transform="translate(-864.122 -116.252)" fill="#a86828"/>
      <path id="Trazado_107639" data-name="Trazado 107639" d="M872.959,125.481v14l7.051-4.1v-14Z" transform="translate(-861.534 -114.751)" fill="#a86828"/>
    </g>
    <g id="Grupo_56153" data-name="Grupo 56153" transform="translate(866.274 153.811)">
      <path id="Trazado_107640" data-name="Trazado 107640" d="M862.4,134.662v9.587l-10.113-5.866V128.8l.81.277,2.129-1.238Z" transform="translate(-852.287 -121.746)" fill="#7a3f0d"/>
      <path id="Trazado_107641" data-name="Trazado 107641" d="M874.5,129l-12.1,7.046-1.125-.646-8.986-5.223,12.115-7.046,8.934,5.2Z" transform="translate(-852.286 -123.126)" fill="#cc8d39"/>
      <path id="Trazado_107642" data-name="Trazado 107642" d="M873.337,128.323,861.274,135.4l-8.986-5.223,12.115-7.046Z" transform="translate(-852.286 -123.126)" fill="#a86828"/>
      <path id="Trazado_107643" data-name="Trazado 107643" d="M860.108,134.711V144.3l12.107-7.046v-9.587Z" transform="translate(-849.996 -121.796)" fill="#a86828"/>
    </g>
    <g id="Grupo_56154" data-name="Grupo 56154" transform="translate(861.115 168.111)">
      <path id="Trazado_107644" data-name="Trazado 107644" d="M854.186,140.9v8.837l-5.89-3.416v-8.837l.472.161,1.24-.721Z" transform="translate(-848.297 -133.384)" fill="#7a3f0d"/>
      <path id="Trazado_107645" data-name="Trazado 107645" d="M861.24,137.6l-7.059,4.1-5.883-3.413,2.469-1.435,4.577-2.663,1.836,1.06Z" transform="translate(-848.296 -134.186)" fill="#cc8d39"/>
      <path id="Trazado_107646" data-name="Trazado 107646" d="M854.785,134.186l1.836,1.06-4.4,2.573-2.017-.97Z" transform="translate(-847.737 -134.186)" fill="#a86828"/>
      <path id="Trazado_107647" data-name="Trazado 107647" d="M852.852,140.928v8.837l7.051-4.1v-8.837Z" transform="translate(-846.963 -133.413)" fill="#a86828"/>
    </g>
    <g id="Grupo_56155" data-name="Grupo 56155" transform="translate(847.624 130.259)">
      <path id="Trazado_107648" data-name="Trazado 107648" d="M853.287,132.314v2.641l-15.425-8.926v-2.641l2.135.729,5.61-3.261Z" transform="translate(-837.862 -100.239)" fill="#954f1d"/>
      <path id="Trazado_107649" data-name="Trazado 107649" d="M837.862,128.051l15.418,8.94,39.792-23.158-15.418-8.923Z" transform="translate(-837.862 -104.909)" fill="#e3ae71"/>
      <path id="Trazado_107650" data-name="Trazado 107650" d="M849.792,134.963V137.6l39.786-23.152v-2.641Z" transform="translate(-834.367 -102.888)" fill="#bf8649"/>
    </g>
    <g id="Grupo_56156" data-name="Grupo 56156" transform="translate(881.576 117.125)">
      <path id="Trazado_107651" data-name="Trazado 107651" d="M875.547,104.678v14l-11.424-6.627v-14l.472.161,1.24-.721Z" transform="translate(-864.123 -93.948)" fill="#7a3f0d"/>
      <path id="Trazado_107652" data-name="Trazado 107652" d="M864.123,98.852l11.423,6.63,7.053-4.1-11.423-6.626Z" transform="translate(-864.122 -94.751)" fill="#a86828"/>
      <path id="Trazado_107653" data-name="Trazado 107653" d="M872.959,103.979v14l7.051-4.1v-14Z" transform="translate(-861.534 -93.25)" fill="#a86828"/>
    </g>
    <g id="Grupo_56157" data-name="Grupo 56157" transform="translate(866.274 126.014)">
      <path id="Trazado_107654" data-name="Trazado 107654" d="M862.4,113.16v9.587l-10.113-5.866v-9.587l.81.277,2.129-1.238Z" transform="translate(-852.287 -100.247)" fill="#7a3f0d"/>
      <path id="Trazado_107655" data-name="Trazado 107655" d="M874.5,107.5l-12.1,7.046-1.125-.646-8.986-5.223,12.115-7.046,8.934,5.2Z" transform="translate(-852.286 -101.626)" fill="#cc8d39"/>
      <path id="Trazado_107656" data-name="Trazado 107656" d="M873.337,106.823,861.274,113.9l-8.986-5.223,12.115-7.046Z" transform="translate(-852.286 -101.626)" fill="#a86828"/>
      <path id="Trazado_107657" data-name="Trazado 107657" d="M860.108,113.21V122.8l12.107-7.046v-9.587Z" transform="translate(-849.996 -100.296)" fill="#a86828"/>
    </g>
    <g id="Grupo_56158" data-name="Grupo 56158" transform="translate(861.115 140.313)">
      <path id="Trazado_107658" data-name="Trazado 107658" d="M854.186,119.4v8.837l-5.89-3.416v-8.837l.472.161,1.24-.721Z" transform="translate(-848.297 -111.885)" fill="#7a3f0d"/>
      <path id="Trazado_107659" data-name="Trazado 107659" d="M861.24,116.1l-7.059,4.1-5.883-3.413,2.469-1.435,4.577-2.663,1.836,1.06Z" transform="translate(-848.296 -112.686)" fill="#cc8d39"/>
      <path id="Trazado_107660" data-name="Trazado 107660" d="M854.785,112.686l1.836,1.06-4.4,2.573-2.017-.97Z" transform="translate(-847.737 -112.686)" fill="#a86828"/>
      <path id="Trazado_107661" data-name="Trazado 107661" d="M852.852,119.426v8.837l7.051-4.1v-8.837Z" transform="translate(-846.963 -111.913)" fill="#a86828"/>
    </g>
    <g id="Grupo_56159" data-name="Grupo 56159" transform="translate(847.624 94.78)">
      <path id="Trazado_107662" data-name="Trazado 107662" d="M853.287,104.872v2.641l-15.425-8.926V95.947l2.135.729,5.61-3.261Z" transform="translate(-837.862 -72.797)" fill="#954f1d"/>
      <path id="Trazado_107663" data-name="Trazado 107663" d="M837.862,100.61l15.418,8.94,39.792-23.158-15.418-8.923Z" transform="translate(-837.862 -77.468)" fill="#e3ae71"/>
      <path id="Trazado_107664" data-name="Trazado 107664" d="M849.792,107.522v2.641L889.578,87.01V84.37Z" transform="translate(-834.367 -75.446)" fill="#bf8649"/>
    </g>
    <g id="Grupo_56160" data-name="Grupo 56160" transform="translate(881.576 81.277)">
      <path id="Trazado_107665" data-name="Trazado 107665" d="M875.547,76.951v14l-11.424-6.627v-14l.472.161,1.24-.721Z" transform="translate(-864.123 -66.221)" fill="#7a3f0d"/>
      <path id="Trazado_107666" data-name="Trazado 107666" d="M864.123,71.125l11.423,6.63,7.053-4.1-11.423-6.626Z" transform="translate(-864.122 -67.024)" fill="#a86828"/>
      <path id="Trazado_107667" data-name="Trazado 107667" d="M872.959,76.253v14l7.051-4.1v-14Z" transform="translate(-861.534 -65.523)" fill="#a86828"/>
    </g>
    <g id="Grupo_56161" data-name="Grupo 56161" transform="translate(866.274 90.174)">
      <path id="Trazado_107668" data-name="Trazado 107668" d="M862.4,85.434V95.02l-10.113-5.866V79.568l.81.277,2.129-1.238Z" transform="translate(-852.287 -72.529)" fill="#7a3f0d"/>
      <path id="Trazado_107669" data-name="Trazado 107669" d="M874.5,79.763l-12.1,7.046-1.125-.646-8.986-5.223L864.4,73.906l8.934,5.185Z" transform="translate(-852.286 -73.906)" fill="#cc8d39"/>
      <path id="Trazado_107670" data-name="Trazado 107670" d="M873.337,79.09l-12.063,7.072-8.986-5.223L864.4,73.906Z" transform="translate(-852.286 -73.906)" fill="#a86828"/>
      <path id="Trazado_107671" data-name="Trazado 107671" d="M860.108,85.483V95.07l12.107-7.046V78.438Z" transform="translate(-849.996 -72.578)" fill="#a86828"/>
    </g>
    <g id="Grupo_56162" data-name="Grupo 56162" transform="translate(861.115 104.461)">
      <path id="Trazado_107672" data-name="Trazado 107672" d="M854.186,91.671v8.837l-5.89-3.416V88.255l.472.161,1.24-.721Z" transform="translate(-848.297 -84.154)" fill="#7a3f0d"/>
      <path id="Trazado_107673" data-name="Trazado 107673" d="M861.24,88.369l-7.059,4.112L848.3,89.054l2.469-1.435,4.577-2.663,1.836,1.06Z" transform="translate(-848.296 -84.956)" fill="#cc8d39"/>
      <path id="Trazado_107674" data-name="Trazado 107674" d="M854.785,84.956l1.836,1.06-4.4,2.573-2.017-.97Z" transform="translate(-847.737 -84.956)" fill="#a86828"/>
      <path id="Trazado_107675" data-name="Trazado 107675" d="M852.852,91.7v8.837l7.051-4.1V87.6Z" transform="translate(-846.963 -84.182)" fill="#a86828"/>
    </g>
    <g id="Grupo_56163" data-name="Grupo 56163" transform="translate(847.624 59.301)">
      <path id="Trazado_107676" data-name="Trazado 107676" d="M853.287,77.431v2.641l-15.425-8.926V68.505l2.135.729,5.61-3.261Z" transform="translate(-837.862 -45.355)" fill="#954f1d"/>
      <path id="Trazado_107677" data-name="Trazado 107677" d="M837.862,73.168l15.418,8.94L893.073,58.95l-15.418-8.924Z" transform="translate(-837.862 -50.026)" fill="#e3ae71"/>
      <path id="Trazado_107678" data-name="Trazado 107678" d="M849.792,80.08v2.641l39.786-23.152V56.928Z" transform="translate(-834.367 -48.005)" fill="#bf8649"/>
    </g>
    <g id="Grupo_56164" data-name="Grupo 56164" transform="translate(847.624 23.821)">
      <path id="Trazado_107679" data-name="Trazado 107679" d="M853.287,49.989V52.63L837.862,43.7V41.064l2.135.729,5.61-3.261Z" transform="translate(-837.862 -17.914)" fill="#954f1d"/>
      <path id="Trazado_107680" data-name="Trazado 107680" d="M837.862,45.727l15.418,8.94,39.792-23.158-15.418-8.924Z" transform="translate(-837.862 -22.585)" fill="#e3ae71"/>
      <path id="Trazado_107681" data-name="Trazado 107681" d="M849.792,52.639v2.641l39.786-23.152V29.487Z" transform="translate(-834.367 -20.563)" fill="#bf8649"/>
    </g>
    <g id="Grupo_56166" data-name="Grupo 56166" transform="translate(863.489 47.807)">
      <path id="Trazado_107682" data-name="Trazado 107682" d="M905.722,151.209a.526.526,0,0,1,.614.431,9.121,9.121,0,0,1-.013,1.842,7.452,7.452,0,0,1-2.959,1.418c-1.717.365-4.6-1.086-5.446-1.775a20.994,20.994,0,0,0-4.1-2.643,27.836,27.836,0,0,1-4.354-1.831c-1.062-.741-.8-3.526.231-3.858s7.659,1.345,7.728,1.422,1.423,1.264,1.443,1.339S905.722,151.209,905.722,151.209Z" transform="translate(-838.812 -10.787)" fill="#2c2921"/>
      <path id="Trazado_107683" data-name="Trazado 107683" d="M879.047,150.231a2.226,2.226,0,0,0-1.321.855,9.217,9.217,0,0,0-.659,3.081,4.7,4.7,0,0,0,1.517,3.8c1.548,1.223,2.767,1.788,6.419,2.744s3.439,1.656,6.833,2.426,4.74-1.608,4.865-2.067a3.2,3.2,0,0,0-.3-2.4c-.529-.646-5.434-1.611-5.434-1.611Z" transform="translate(-842.246 -9.182)" fill="#2c2921"/>
      <path id="Trazado_107684" data-name="Trazado 107684" d="M905.911,148.122a5.105,5.105,0,0,1,.791,1.951,9.312,9.312,0,0,1-.149,2.485,4.57,4.57,0,0,1-3.892,1.389c-2.4-.168-5.455-2.687-6.2-3.075s-5.325-2.653-6.52-3.217-2.768-1.764-2.7-2.987,2.384-2.462,4.417-2.34,7.222,2.054,7.222,2.054Z" transform="translate(-839.263 -11.499)" fill="#524b45"/>
      <path id="Trazado_107685" data-name="Trazado 107685" d="M899.4,163.057c-.256-.056-.5-.116-.732-.178-5.064-1.352-4.824-4-4.843-4.378-.025-.4-1.713-22.7-1.85-23.894-.111-.97-.864-10.835-1.232-15.036-.082-.944-.145-1.6-.175-1.806-.176-1.139-.326-15.89,2.89-18.7s8.507-1.7,8.507-1.7a52.025,52.025,0,0,1,2.582,11.8c.716,6.872-1.9,17.674-.263,25.682s1.036,26.109,1.036,26.109S905.224,164.341,899.4,163.057Z" transform="translate(-838.311 -24.73)" fill="#305b8f"/>
      <path id="Trazado_107686" data-name="Trazado 107686" d="M902.129,103.694,898.88,105.9l.583,7.966,1.754,2.763a33.026,33.026,0,0,0,.888-4.929C902.283,109.455,903.458,106.5,902.129,103.694Z" transform="translate(-835.855 -22.813)" fill="#4078bd"/>
      <path id="Trazado_107687" data-name="Trazado 107687" d="M898.615,158.133c-5.064-1.352-4.824-4-4.843-4.378-.025-.4-1.713-22.7-1.85-23.894-.111-.97-.864-10.835-1.232-15.036,2.526-.9,4.569-1.471,4.569-1.471l2.434,1.09s-.627,4.027-1.22,4.879-2.128,2.719-1.665,7.319,2.08,13.687,2.075,15.357C896.883,143.147,898.035,151.79,898.615,158.133Z" transform="translate(-838.254 -19.984)" fill="#dedcdb" style="mix-blend-mode: multiply;isolation: isolate"/>
      <path id="Trazado_107688" data-name="Trazado 107688" d="M895.529,156.2a11,11,0,0,1,.69,2,9.088,9.088,0,0,1,.052,1.581s-.471,1.716-3.248,2.14-4.632-1.409-9.509-2.856-5.425-3.347-5.823-4.5a4.511,4.511,0,0,1,.441-3.659,3.122,3.122,0,0,1,3.376-1.394c2.022.294,2.988,1.383,6.069,2.453S895.57,155.329,895.529,156.2Z" transform="translate(-842.119 -9.41)" fill="#524b45"/>
      <path id="Trazado_107689" data-name="Trazado 107689" d="M897.486,124.205c-.571.555-2.595,19.547-1.783,23.184s.777,23.1.75,23.533-.6,2.669-5.956,1.851c-.062-.008-.124-.019-.186-.03-5.155-.84-4.569-3.455-4.529-4.132s-3.2-21.959-3.353-22.754-5.336-21.6-5.859-28.412a70.1,70.1,0,0,1,.348-13.2s.753-.238,1.974-.617c5.031-1.562,18.042-5.545,19.419-5.424,1.708.154,4.68,12.861,4.174,18.039S898.063,123.651,897.486,124.205Z" transform="translate(-842.439 -24.42)" fill="#34629b"/>
      <path id="Trazado_107690" data-name="Trazado 107690" d="M897.084,107.481s-6.832,1.487-7.6,1.664-5.3,1.257-5.3,1.257l1.588,7.423,6.851,2.736,4.466-4.874Z" transform="translate(-840.162 -21.704)" fill="#4078bd"/>
      <path id="Trazado_107691" data-name="Trazado 107691" d="M885.781,167.383c.041-.685-3.2-21.959-3.353-22.754s-5.336-21.6-5.859-28.412a70.1,70.1,0,0,1,.348-13.2s.753-.238,1.974-.617c-.076,1.659-.343,8.152-.06,12.917.327,5.5,3.813,19.471,4.5,23.248s1.457,9.588,2.808,14.32a182.043,182.043,0,0,1,4.167,18.624C885.155,170.675,885.741,168.061,885.781,167.383Z" transform="translate(-842.439 -23.19)" fill="#dedcdb" style="mix-blend-mode: multiply;isolation: isolate"/>
      <path id="Trazado_107692" data-name="Trazado 107692" d="M877.192,65.149a3.1,3.1,0,0,0-2.03,1.058,6.434,6.434,0,0,0-.944,4.267c.2.963,5.422,5.174,7.157,6.851S888.667,72.618,888.7,72s-2.1-2.054-2.1-2.054S878.739,66.65,877.192,65.149Z" transform="translate(-843.097 -34.103)" fill="#fafafa"/>
      <path id="Trazado_107693" data-name="Trazado 107693" d="M910.379,76.041c-.336,3.959-4.058,20.937-4.17,22.794s1.756,10.036,1.319,11.628-3.312,2.8-5.884,4.711-9.692,4.281-11.861,4.4-9.769-2.6-9.769-2.6l-.436-.14-3.085-1s.937-6.58.7-8.316.228-13.643-.666-16.7a35.156,35.156,0,0,1-.4-7.816c.084-4.2.4-8.577.584-9.546.325-1.722,9.49-7.072,12.424-8.469s13.4-2.145,14.734-2.356,3.656,1.3,3.656,1.3C910.885,66.736,910.715,72.083,910.379,76.041Z" transform="translate(-842.529 -34.847)" fill="#dedede"/>
      <path id="Trazado_107694" data-name="Trazado 107694" d="M875.93,71.659s-.063-.043-.169-.111c-.344-.23-1.134-.756-1.6-1.122a5.982,5.982,0,0,1-1.981-2.234c-.208-.539-.605-1.263-.913-1.954l-.008-.008a3.737,3.737,0,0,1-.416-1.508c.053-.886,1.413-1.488,1.592-2.436a2.709,2.709,0,0,0-.552-2.247c-.533-.963.7-.913.7-.913a13.191,13.191,0,0,1,2.144,2.338,12.461,12.461,0,0,1,1.716,3.762,7.868,7.868,0,0,0,1.87,2.4C880.077,71.342,875.93,71.659,875.93,71.659Z" transform="translate(-844.068 -35.867)" fill="#fcc7aa"/>
      <path id="Trazado_107695" data-name="Trazado 107695" d="M876.345,71.446c-.344-.23-1.134-.756-1.6-1.122a5.982,5.982,0,0,1-1.981-2.234c-.208-.539-.605-1.263-.913-1.954l-.008-.008a46.1,46.1,0,0,1-2.534-4.362,1.958,1.958,0,0,1-.458-.94,3.424,3.424,0,0,1,.022-.643c.612-.29,1.179-.524,1.5-.641a3.549,3.549,0,0,1,2.088.4l1.274,1.767.207.287a.772.772,0,0,0-.154.4c0,.013,0,.025,0,.036.018.221-1.163,3.205-1.163,3.205s.068.173.19.424c.283.587.84,1.6,1.427,1.831a20.532,20.532,0,0,1,2.257,1.169C876.454,70.021,876.4,70.808,876.345,71.446Z" transform="translate(-844.653 -35.765)" fill="#fad3be" style="mix-blend-mode: multiply;isolation: isolate"/>
      <path id="Trazado_107696" data-name="Trazado 107696" d="M873.965,64.163a8.3,8.3,0,0,1-1.012,2.247c-.3.371-.636.512-.971.083l-.008-.008a46.1,46.1,0,0,1-2.534-4.362,1.958,1.958,0,0,1-.458-.94A3.424,3.424,0,0,1,869,60.54a.685.685,0,0,0,0-.091c-.018-.175-.067-.127-.447-.74a1.151,1.151,0,0,1,.074-1.226,9.565,9.565,0,0,1,2.808-.173,3.66,3.66,0,0,1,1.855,1.071,7.278,7.278,0,0,1,.578,2.68c.021.237.039.467.053.683,0,.013,0,.025,0,.036A11.17,11.17,0,0,1,873.965,64.163Z" transform="translate(-844.782 -36.122)" fill="#fad3be" style="mix-blend-mode: multiply;isolation: isolate"/>
      <g id="Grupo_56165" data-name="Grupo 56165" transform="translate(1.043 9.095)">
        <path id="Trazado_107697" data-name="Trazado 107697" d="M865.944,63.183V77.407l-15-8.7V54.48l1.2.41,3.159-1.836Z" transform="translate(-850.94 -46.741)" fill="#7a3f0d"/>
        <path id="Trazado_107698" data-name="Trazado 107698" d="M850.94,55.906l15,8.711,13.306-7.744-15-8.7Z" transform="translate(-850.94 -48.171)" fill="#cc8d39"/>
        <path id="Trazado_107699" data-name="Trazado 107699" d="M875.53,55.166l-13.514,7.621-8.433-4.9V53.92l9.889-5.749Z" transform="translate(-850.166 -48.171)" fill="#a86828"/>
        <path id="Trazado_107700" data-name="Trazado 107700" d="M862.545,62.642V76.866l13.3-7.741V54.9Z" transform="translate(-847.54 -46.2)" fill="#a86828"/>
      </g>
      <path id="Trazado_107701" data-name="Trazado 107701" d="M888.079,67.794a10.089,10.089,0,0,0-.314-2.55c-.314-.9-2.808-1.105-3.04-1.744a12.527,12.527,0,0,1-.847-4.729,9.229,9.229,0,0,0-.365-3.338,10.9,10.9,0,0,0,.553-2.67,3.93,3.93,0,0,1,.061-1.839c.239-.7.352-5.852,2.283-6.939s12.724-.343,13.675.574,1.726,10.963,1.011,12.246a21.988,21.988,0,0,0-1.659,5.527c-.048.808.07,4.157.045,4.573s-2.789,1.037-4.979,1.077S888.079,67.794,888.079,67.794Z" transform="translate(-840.356 -40.46)" fill="#fcc7aa"/>
      <path id="Trazado_107702" data-name="Trazado 107702" d="M900.113,60.1a13.485,13.485,0,0,1,.767,1.544,14.677,14.677,0,0,1-.006,2.555,9.466,9.466,0,0,1-3.188.743c-1.725.069-4.68-.356-6.567.023s-6.081,1.531-6.081,1.531.093-1.1.1-1.717,1.589-2.755,1.589-2.755l.817-.507a33.41,33.41,0,0,1,6.038-.335c2.791.167,5.448.074,5.448.074l-.025-1.223A7.333,7.333,0,0,1,900.113,60.1Z" transform="translate(-839.909 -35.602)" fill="#fafafa"/>
      <path id="Trazado_107703" data-name="Trazado 107703" d="M892.241,59.812a16.413,16.413,0,0,0,1.275,1.78c.124.006,2.508-.407,3.682.22a3.346,3.346,0,0,0,1.9.513,40.107,40.107,0,0,0,3.385-6.715c1.251-3.4,1.411-6.6.53-8.845s-4.621-4.34-4.621-4.34a9.665,9.665,0,0,0-5.516-1.248c-3.011.31-5.664,1.954-6.77,2.345s-1.046,2.116-1.046,2.116.831-.163.921.53-.879,2.634-.941,3.678a20.244,20.244,0,0,0,.242,3.06s.25,4.044.243,4.142.708.207.708.207-.71-4.007,1.33-3.623,3.328,1.325,3.636,2.746A33.024,33.024,0,0,0,892.241,59.812Z" transform="translate(-839.911 -41.136)" fill="#4a2727"/>
      <path id="Trazado_107704" data-name="Trazado 107704" d="M888.2,52a3.46,3.46,0,0,1,.805,2.145,13.928,13.928,0,0,1-.507,2.984.7.7,0,0,1-.734.5c-.375-.023-.742-.716-.763-.931a8.01,8.01,0,0,0,.131-2.171,18.3,18.3,0,0,1-.662-2.627c-.084-.513.155-.679.7-.547A2.422,2.422,0,0,1,888.2,52Z" transform="translate(-839.495 -38.158)" fill="#ffd6bf"/>
      <path id="Trazado_107705" data-name="Trazado 107705" d="M888.487,79.47s-3.217,3.345-4.661,4.5-4.242,2.694-4.2,4.336.807,9.613.588,12.155c-.134,1.572-.418,7.734-.637,12.526l-3.085-1s.937-6.58.7-8.316.228-13.643-.666-16.7a35.156,35.156,0,0,1-.4-7.816c3.747-1.694,7.627-3.345,7.782-3.371C884.19,75.742,889.408,75,888.487,79.47Z" transform="translate(-842.529 -31.008)" fill="#dedede" style="mix-blend-mode: multiply;isolation: isolate"/>
      <path id="Trazado_107706" data-name="Trazado 107706" d="M902.867,92.972s-2.286.059-5.753-.017a35.832,35.832,0,0,1-7.081-1.015l-1.864-.588-.065,1.078.791,1.015-2.01-1.431-3.525-4.6s-1,.256-.64.84a7.4,7.4,0,0,1,.622,1.648s-3.548-.933-2.672-.226,6.042,5.212,6.79,5.845a61.353,61.353,0,0,0,6.286,2.932L889.57,94.4s2.953-.281,3.15-.269a74.415,74.415,0,0,0,7.891.211C902.482,94.13,902.867,92.972,902.867,92.972Z" transform="translate(-841.23 -27.582)" fill="#dedede" style="mix-blend-mode: multiply;isolation: isolate"/>
      <path id="Trazado_107707" data-name="Trazado 107707" d="M901.481,86.993s-2.457,1.621-3.21,2.166-6.126,1.991-6.126,1.991a39.645,39.645,0,0,0,4.94.3c1.448-.11,3.433-3.069,3.433-3.069Z" transform="translate(-837.828 -27.705)" fill="#dedede" style="mix-blend-mode: multiply;isolation: isolate"/>
      <path id="Trazado_107708" data-name="Trazado 107708" d="M903.628,94.687s-3.391,3.784-3.9,3.928-4.654,1.85-4.654,1.85l-10.17-.021,4.94,1.028-7.5,0-2.5.9,6.417.385,6.528.392-.755-1.617,4.455.005,5.843-2.369.737-1.365,1.783-1.334-1.317-.341,1.048-2.82Z" transform="translate(-841.428 -25.856)" fill="#dedede" style="mix-blend-mode: multiply;isolation: isolate"/>
      <path id="Trazado_107709" data-name="Trazado 107709" d="M875.138,63.528a2.231,2.231,0,0,0-1.167-.61c-.587-.035-1.548.089-1.939.025a5.689,5.689,0,0,1-1.972-.776,1,1,0,0,0-1.432.136c-.271.425.611,1.264,1.229,1.621s1.034.774,1.6.808a4.173,4.173,0,0,1,1.461.628,2.41,2.41,0,0,0,1.065,1.882c1.023.577,2.217.723,2.59-.164S876.482,64.887,875.138,63.528Z" transform="translate(-844.731 -35.046)" fill="#fcc7aa"/>
      <path id="Trazado_107710" data-name="Trazado 107710" d="M862.559,70.5c.118.447.759,2.875.759,2.875l-.464,3.223-1.288,2.251a12.057,12.057,0,0,0-1.917-2.442c-.184-.141-.482-.415-.835-.758a30.05,30.05,0,0,1-3.246-3.674,17.224,17.224,0,0,0-2.976-2.8c-.063-.054-.123-.11-.18-.164a2.276,2.276,0,0,1-.521-.746,1.157,1.157,0,0,1-.094-.639l0,0c-.1-.1-1.707-1.778-1.658-2.184s.526-.582.526-.582l.176-.456.021-.341c.01-.172.246-.822.716-.865s1.47,1.24,1.7,1.549a5.871,5.871,0,0,0,1.963,1.226c.768.29,1.907.972,2.61,1.164a8.433,8.433,0,0,0,1.982.119,17.426,17.426,0,0,1,1.42-2.349,1.638,1.638,0,0,1,1.546-.815s1.068.209,1.05.526-.459.688-.649.972a13.573,13.573,0,0,0-.775,1.844,2.868,2.868,0,0,0-.065,1.077A16.872,16.872,0,0,0,862.559,70.5Z" transform="translate(-850.133 -34.676)" fill="#fcc7aa"/>
      <path id="Trazado_107711" data-name="Trazado 107711" d="M851.855,66.262l-1.178-2.06.021-.341,1.593,2.215L854.767,68l-1.373-.641Z" transform="translate(-849.974 -34.48)" fill="#fad3be" style="mix-blend-mode: multiply;isolation: isolate"/>
      <path id="Trazado_107712" data-name="Trazado 107712" d="M852.488,67.7l-.859-.689-.114.246a1.157,1.157,0,0,1-.094-.639L853.583,68l.95.533Z" transform="translate(-849.759 -33.672)" fill="#fad3be" style="mix-blend-mode: multiply;isolation: isolate"/>
      <path id="Trazado_107713" data-name="Trazado 107713" d="M858.3,74.334a30.05,30.05,0,0,1-3.246-3.674,17.224,17.224,0,0,0-2.976-2.8c-.063-.054-.123-.11-.18-.164,0,0,1.2.772,1.635.994a18.715,18.715,0,0,1,2.331,2.617,16.343,16.343,0,0,0,2.352,2.335C858.376,73.686,858.432,74,858.3,74.334Z" transform="translate(-849.617 -33.358)" fill="#fad3be" style="mix-blend-mode: multiply;isolation: isolate"/>
      <path id="Trazado_107714" data-name="Trazado 107714" d="M894.275,81.526c-.905.866-5.531,3.733-5.531,3.733-5.531,3.73-15.551,5.834-18.928,5.631s-6.855-5.376-8.229-6.193-5.252-9.114-5.252-9.114a10.891,10.891,0,0,1,.55-1.429,5.565,5.565,0,0,1,2.047-2.543,3.37,3.37,0,0,1,3.1-.159s2.619,3.058,3.352,3.936,5.148,4.291,5.148,4.291a3.026,3.026,0,0,0,2.062-.5c1.284-.71,8.911-6.608,9.119-6.793a14.43,14.43,0,0,1,6.18-3.627c2.584-.734,5.022,5.033,6.029,9.072C894.4,79.734,894.562,81.25,894.275,81.526Z" transform="translate(-848.316 -33.064)" fill="#fafafa"/>
      <path id="Trazado_107715" data-name="Trazado 107715" d="M894.275,80.29c-.905.866-5.531,3.733-5.531,3.733-5.531,3.73-15.551,5.834-18.928,5.631s-6.855-5.376-8.229-6.193-5.252-9.114-5.252-9.114a10.891,10.891,0,0,1,.55-1.429,39.243,39.243,0,0,1,2.967,5.918c.213.5,1.038.652,1.466.921s1.3,2.044,2.251,3.429,4.534,4.691,7.273,4.907,8.593-2.335,10.186-2.679,9.169-3.775,9.959-4.616a45.042,45.042,0,0,0,2.8-4.093c.049-.036.094-.074.14-.106C894.4,78.5,894.562,80.013,894.275,80.29Z" transform="translate(-848.316 -31.827)" fill="#dedede" style="mix-blend-mode: multiply;isolation: isolate"/>
    </g>
    <g id="Grupo_56167" data-name="Grupo 56167" transform="translate(846.019 41.659)">
      <path id="Trazado_107716" data-name="Trazado 107716" d="M836.621,37.877V171.745l18.578,10.81V48.693Z" transform="translate(-836.621 -35.943)" fill="#989696"/>
      <path id="Trazado_107717" data-name="Trazado 107717" d="M850.991,46.683V180.542l3.35-1.939V44.744Z" transform="translate(-832.411 -33.932)" fill="#cccbcb"/>
      <path id="Trazado_107718" data-name="Trazado 107718" d="M855.2,49.132,836.621,38.32l3.35-1.939,18.58,10.812Z" transform="translate(-836.621 -36.381)" fill="#f9f9f9"/>
    </g>
  </g>
</svg>
