<svg xmlns="http://www.w3.org/2000/svg" width="214.344" height="141.483" viewBox="0 0 214.344 141.483">
  <g id="Grupo_56029" data-name="Grupo 56029" transform="translate(-282 -606.5)">
    <path id="Trazado_106793" data-name="Trazado 106793" d="M443.51,1008.783a.211.211,0,0,0-.134-.267l-1.248-.416-.949-.316a.119.119,0,0,0-.151.076l-1.2,3.591a.119.119,0,0,0,.075.151l.49.163h0a19.43,19.43,0,0,1-3.743,1.081c-.15-1.177-.267-2.258-.288-3.139,0-.018.005-.035.008-.053.012-.071.022-.14.033-.209s.025-.164.036-.244c.007-.052.014-.1.021-.154.014-.1.027-.207.038-.308,0-.019,0-.038.006-.057a15.332,15.332,0,0,0,.1-2.063,6.387,6.387,0,0,0-1.262-4.213l-.026-.027a1.828,1.828,0,0,0-.913-.294,6.287,6.287,0,0,0-1.354-.195h0s-.13-.015-.2-.019l-.155-.014c-.174-.091-.22-.818-.218-1.585,0-.115,0-.231,0-.346s0-.228.008-.339c0-.129.009-.252.014-.369.376.032.627.028.627.028.7-.055,1.144-1.941,1.3-3.466h0s.847-2.041-.105-3.195a1.871,1.871,0,0,0-.494-.443q-.065-.065-.131-.123c-.656-.727-3.316-3.45-5.062-1.875-.045-.157-.617-1.933-3.387-1.344,0,0,1.387-.175,1.767.36a2.273,2.273,0,0,0-1.788-.082c-.688.421-.8,1.839-.7,2.27s.863,1.716,1.366,1.716a1.493,1.493,0,0,0,.574-.142,6.645,6.645,0,0,0-.2.748c-.535,2.516,1.138,4.428,2,3.955.555-.3.975.668.975.668l0,0a8.7,8.7,0,0,1-.372,2.254,8.277,8.277,0,0,0-3.915-.237c-4.188.565-4.612,1.977-4.988,4.518s-.988,14.165-.659,14.965c.091.22.453.418.982.571-.407,1.422-.864,2.932-1.291,3.994a2.835,2.835,0,0,1-.72,1.029c-.39.246-.945.842-.842,1.315s.206,1.212.7,1.212,1.644-2.178,1.787-2.589.267-.493.267-.493h0s1.227-2.036,2.394-4.162a11.971,11.971,0,0,0,1.238-.035,17.861,17.861,0,0,0-.492,2.729,1.836,1.836,0,0,0,.048.618.772.772,0,0,0,.357.447c-.054.557-.09,1.139-.11,1.74A83.856,83.856,0,0,0,425.1,1041.5a.006.006,0,0,0,0,0,.4.4,0,0,1-.051.259,17.741,17.741,0,0,0-1.471,9.616,20.118,20.118,0,0,0,1.572,6.137l-.008-.01a.863.863,0,0,0-.2.27.914.914,0,0,0-.079.564,3.657,3.657,0,0,1-.263,1.362c-.086.252-.158.431-.158.431s-.041.208.7.3h.865c.29-.045.5-.129.8-.168a.8.8,0,0,1,.7.168l.008.009h3.674a.263.263,0,0,0,.038-.144c.062-.013.126-.024.2-.033a.8.8,0,0,1,.7.168l.008.009h3.674c.092-.132,0-.438-.083-.663a.523.523,0,0,0-.344-.314,3.962,3.962,0,0,1-1.861-.85c-.4-.358-1.911-1.315-1.911-1.315l-.008,0h-.007a41.359,41.359,0,0,1-.325-5.526,31.109,31.109,0,0,1,1.576-9.882,59,59,0,0,0,3.423-17.57,2.172,2.172,0,0,0,1.139-1.6,31.718,31.718,0,0,0-.434-7.5,23.333,23.333,0,0,0,4.327-2.664s.238-.113.556-.294l.252.084a.211.211,0,0,0,.267-.134l.116-.348a3.553,3.553,0,0,0,.738-.649,2.159,2.159,0,0,0,.118-1.922Zm-15.561,43.246a41.81,41.81,0,0,0,1.8,5.473.871.871,0,0,0-.2.268.913.913,0,0,0-.079.564,1.89,1.89,0,0,1-.058.651,3,3,0,0,1-.515-.375c-.4-.358-1.911-1.315-1.911-1.315l-.007,0c.2-1.328.445-3.089.653-4.964.04-.36.081-.722.124-1.083Q427.852,1051.641,427.949,1052.029Z" transform="translate(-106.339 -312.454)" fill="#ffc0c0"/>
    <path id="Trazado_106794" data-name="Trazado 106794" d="M301.854,1297.11h-92.7a1.092,1.092,0,0,0-1.089,1.089v12.393c.032.161.063.322.1.482l.018.089q.134.648.272,1.284.254,1.145.526,2.247l.1.4c.485,1.917,1.011,3.728,1.552,5.417q.135.422.271.834.367,1.111.737,2.143.263.735.525,1.428h0c.934,2.482,1.833,4.544,2.558,6.1.979,2.1,1.64,3.26,1.64,3.26l19.138.062,19.386.063,5.121.017,17.751.058,7.279.024,10.442.035,7.458.024a.911.911,0,0,0,.01-.139V1298.2A1.092,1.092,0,0,0,301.854,1297.11Z" transform="translate(80.287 -587.372)" fill="#ffc0c0"/>
    <g id="Grupo_55778" data-name="Grupo 55778" transform="translate(367.084 699.677)">
      <g id="Grupo_55777" data-name="Grupo 55777">
        <path id="Trazado_106795" data-name="Trazado 106795" d="M957.3,1213.022a20.339,20.339,0,0,0-2.79-.854c-.993-.168-1.579-5.3-1.685-5.949s-1.282-1.715-1.282-1.715l.732,7.811,1.639,1.969h2.973Z" transform="translate(-949.501 -1204.503)" fill="#7c1818"/>
        <path id="Trazado_106796" data-name="Trazado 106796" d="M941.509,1214.556l0,.007h-5.672c-.455-.738-1.1-3.969-1.591-4.612-.032-.042-.067-.092-.1-.147l-.049,4.759h-.518a62.245,62.245,0,0,0-.364-6.494,3.316,3.316,0,0,1-.436-1.667c.2-.6,2.019-1.9,2.019-1.9a.029.029,0,0,0,0,.005c.04.245,1.315,8.082,2.074,8.307a8.908,8.908,0,0,0,3.683.208S941.882,1213.783,941.509,1214.556Z" transform="translate(-932.748 -1204.499)" fill="#aa413e"/>
      </g>
    </g>
    <g id="Grupo_55780" data-name="Grupo 55780" transform="translate(363.697 699.677)">
      <g id="Grupo_55779" data-name="Grupo 55779">
        <path id="Trazado_106797" data-name="Trazado 106797" d="M926.131,1213.022a20.333,20.333,0,0,0-2.791-.854c-.993-.168-1.579-5.3-1.685-5.949s-1.282-1.715-1.282-1.715l.732,7.811,1.639,1.969h2.973Z" transform="translate(-918.331 -1204.503)" fill="#7c1818"/>
        <path id="Trazado_106798" data-name="Trazado 106798" d="M910.339,1214.556l0,.007h-5.672c-.455-.738-1.1-3.969-1.591-4.612-.032-.042-.067-.092-.1-.147l-.049,4.759H902.4a62.224,62.224,0,0,0-.364-6.494,3.315,3.315,0,0,1-.436-1.667c.2-.6,2.019-1.9,2.019-1.9a.024.024,0,0,0,0,.005c.04.245,1.315,8.082,2.074,8.307a8.908,8.908,0,0,0,3.683.208S910.712,1213.783,910.339,1214.556Z" transform="translate(-901.578 -1204.499)" fill="#aa413e"/>
      </g>
    </g>
    <g id="Grupo_55781" data-name="Grupo 55781" transform="translate(334.607 702.162)">
      <path id="Trazado_106799" data-name="Trazado 106799" d="M635.707,1275.824s-2.282.087-1.818-1.652c.237-.89,1.269-.927,2.782-.927h23.477s1.22.421,1.22,1.284a1.279,1.279,0,0,1-.878,1.284C650.111,1275.81,635.707,1275.824,635.707,1275.824Z" transform="translate(-633.827 -1268.261)" fill="#74acbe"/>
      <path id="Trazado_106800" data-name="Trazado 106800" d="M635.707,1254.494s-2.282.087-1.818-1.652c.237-.89,1.269-.927,2.782-.927h23.477s1.22.421,1.22,1.284a1.279,1.279,0,0,1-.878,1.285C660.1,1254.7,635.707,1254.494,635.707,1254.494Z" transform="translate(-633.827 -1249.248)" fill="#5e97a5"/>
      <path id="Trazado_106801" data-name="Trazado 106801" d="M635.827,1230.049s-2.383-.011-1.919-1.751c.237-.89,1.269-.927,2.782-.927h23.477s1.22.421,1.22,1.284-.83,1.169-1.22,1.382S635.827,1230.049,635.827,1230.049Z" transform="translate(-633.846 -1227.371)" fill="#74acbe"/>
    </g>
    <path id="Trazado_106802" data-name="Trazado 106802" d="M235.713,1298.322a1.132,1.132,0,0,0-1.021-1.212H194.4c.013.619.032,1.241.061,1.868.815,18.519,8.635,33.09,9.719,35.769h31.537Z" transform="translate(92.47 -587.372)" fill="#f2a0a4"/>
    <path id="Rectángulo_5782" data-name="Rectángulo 5782" d="M.585,0H91.562a.585.585,0,0,1,.585.585v0a.585.585,0,0,1-.585.585H.585A.585.585,0,0,1,0,.585v0A.585.585,0,0,1,.585,0Z" transform="translate(291.084 729.543)" fill="#f2a0a4"/>
    <g id="Grupo_55784" data-name="Grupo 55784" transform="translate(332.934 713.552)">
      <path id="Trazado_106803" data-name="Trazado 106803" d="M619.44,1377.135l-.992,8.21a2.589,2.589,0,0,0,2.57,2.9h8.854l4.183-11.11Z" transform="translate(-618.428 -1372.253)" fill="#99332b"/>
      <g id="Grupo_55782" data-name="Grupo 55782" transform="translate(3.469)">
        <path id="Trazado_106804" data-name="Trazado 106804" d="M650.974,1337.91c0-.052.45-5.182,3.525-5.086,3.122.094,3.927,4.654,3.935,4.7l.611-.1a9.653,9.653,0,0,0-.866-2.53,4.3,4.3,0,0,0-3.661-2.685c-1.543-.046-2.747.937-3.5,2.843a10.891,10.891,0,0,0-.663,2.813Z" transform="translate(-650.356 -1332.204)" fill="#99332b"/>
      </g>
      <path id="Trazado_106805" data-name="Trazado 106805" d="M651.672,1377.135H638.193l1.938,8.51a3.342,3.342,0,0,0,3.259,2.6h8.193a2.638,2.638,0,0,0,2.515-3.433Z" transform="translate(-636.046 -1372.253)" fill="#c65447"/>
      <path id="Trazado_106806" data-name="Trazado 106806" d="M651.672,1377.135s-.1,3.331-4.545,3.486-8.934-3.486-8.934-3.486Z" transform="translate(-636.046 -1372.253)" fill="#c4453b"/>
      <g id="Grupo_55783" data-name="Grupo 55783" transform="translate(4.543)">
        <path id="Trazado_106807" data-name="Trazado 106807" d="M660.857,1337.91c0-.052.45-5.182,3.525-5.086,3.122.094,3.927,4.654,3.935,4.7l.611-.1a9.636,9.636,0,0,0-.866-2.53,4.3,4.3,0,0,0-3.661-2.685c-1.543-.046-2.748.937-3.5,2.843a10.9,10.9,0,0,0-.662,2.813Z" transform="translate(-660.239 -1332.204)" fill="#c4453b"/>
      </g>
    </g>
    <g id="Grupo_55785" data-name="Grupo 55785" transform="translate(340.439 684.734)">
      <path id="Trazado_106808" data-name="Trazado 106808" d="M688.606,1115.964l-1.082,8.955a2.824,2.824,0,0,0,2.8,3.163h9.656l4.562-12.118Z" transform="translate(-687.503 -1110.64)" fill="#d86713"/>
      <path id="Trazado_106809" data-name="Trazado 106809" d="M730.859,1069.889a4.692,4.692,0,0,0-3.993-2.929c-1.682-.051-3,1.021-3.816,3.1a11.874,11.874,0,0,0-.723,3.068l.674.053c0-.057.491-5.652,3.844-5.547,3.405.1,4.283,5.075,4.292,5.126l.666-.113A10.52,10.52,0,0,0,730.859,1069.889Z" transform="translate(-718.544 -1066.958)" fill="#99332b"/>
      <path id="Trazado_106810" data-name="Trazado 106810" d="M726.409,1124.338l-2.647-8.374h-14.7l2.114,9.282a3.645,3.645,0,0,0,3.554,2.836h8.936A2.877,2.877,0,0,0,726.409,1124.338Z" transform="translate(-706.719 -1110.64)" fill="#ee9849"/>
      <path id="Trazado_106811" data-name="Trazado 106811" d="M709.061,1115.964s4.9,3.971,9.744,3.8,4.957-3.8,4.957-3.8Z" transform="translate(-706.719 -1110.64)" fill="#c4453b"/>
      <path id="Trazado_106812" data-name="Trazado 106812" d="M741.638,1069.889a4.692,4.692,0,0,0-3.993-2.929c-1.682-.051-3,1.021-3.816,3.1a11.885,11.885,0,0,0-.723,3.068l.674.053c0-.057.491-5.652,3.844-5.547,3.405.1,4.283,5.075,4.292,5.126l.666-.113A10.511,10.511,0,0,0,741.638,1069.889Z" transform="translate(-728.151 -1066.958)" fill="#c4453b"/>
    </g>
    <g id="Grupo_55788" data-name="Grupo 55788" transform="translate(359.022 713.533)">
      <path id="Trazado_106813" data-name="Trazado 106813" d="M859.556,1376.972l-.992,8.21a2.589,2.589,0,0,0,2.571,2.9h8.853l4.183-11.11Z" transform="translate(-858.545 -1372.09)" fill="#5e97a5"/>
      <g id="Grupo_55786" data-name="Grupo 55786" transform="translate(3.469)">
        <path id="Trazado_106814" data-name="Trazado 106814" d="M891.091,1337.747c0-.052.45-5.182,3.524-5.086,3.122.095,3.927,4.653,3.935,4.7l.611-.1a9.646,9.646,0,0,0-.866-2.53,4.3,4.3,0,0,0-3.661-2.685c-1.542-.046-2.747.937-3.5,2.843a10.892,10.892,0,0,0-.662,2.813Z" transform="translate(-890.473 -1332.041)" fill="#5e97a5"/>
      </g>
      <path id="Trazado_106815" data-name="Trazado 106815" d="M891.789,1376.972H878.31l1.938,8.51a3.342,3.342,0,0,0,3.259,2.6H891.7a2.638,2.638,0,0,0,2.515-3.433Z" transform="translate(-876.163 -1372.09)" fill="#74acbe"/>
      <g id="Grupo_55787" data-name="Grupo 55787" transform="translate(4.543)">
        <path id="Trazado_106816" data-name="Trazado 106816" d="M900.974,1337.747c0-.052.45-5.182,3.525-5.086,3.122.095,3.927,4.653,3.935,4.7l.611-.1a9.647,9.647,0,0,0-.866-2.53,4.3,4.3,0,0,0-3.661-2.685c-1.543-.046-2.748.937-3.5,2.843a10.887,10.887,0,0,0-.663,2.813Z" transform="translate(-900.356 -1332.041)" fill="#74acbe"/>
      </g>
    </g>
    <g id="Grupo_55790" data-name="Grupo 55790" transform="translate(301.536 697.973)">
      <path id="Trazado_106817" data-name="Trazado 106817" d="M424.488,1199.617c.293-.37.736-.485,1.515-.512h-.223s-1.621.049-1.292-.925c.169-.5.9-.519,1.977-.519H427.9c-1.293-.028-2.118-.049-2.118-.049s-1.621.049-1.292-.925c.169-.5.9-.519,1.977-.519h3.96c-2.126-.011-3.627-.021-3.627-.021s-1.621.049-1.292-.925c.168-.5.9-.519,1.977-.519h1.926c-2.126-.011-3.627-.021-3.627-.021s-1.621.049-1.292-.925c.169-.5.9-.519,1.977-.519.147,0,.573-.014,1.2-.037l-1.882-.011s-1.621.049-1.292-.925c.169-.5.9-.519,1.977-.519h.087c-.44-.031-1.294-.186-1.047-.918.146-.433.72-.506,1.574-.517-.812-.03-1.3-.051-1.3-.051s-1.621.049-1.292-.925c.169-.5.9-.52,1.977-.52h16.679s.867.236.867.719-.347.6-.624.719a4.027,4.027,0,0,1-.436.055h1.21s.867.236.867.719-.347.6-.624.719c-.041.018-.457.03-1.136.039.239.086.743.31.743.679,0,.483-.347.6-.624.72a3.118,3.118,0,0,1-.435.026l.193.028s.867.236.867.719-.347.6-.624.719a3.254,3.254,0,0,1-.454.027h1.228s.867.236.867.719-.347.6-.624.719c-.043.018-.49.031-1.216.04.175.055.823.288.823.706,0,.483-.4.655-.673.774a.755.755,0,0,1-.134.018c.194.063.807.294.807.7,0,.483-.347.6-.624.719a1.027,1.027,0,0,1-.187.017c.19.061.811.293.811.7,0,.483-.347.6-.624.719s-18.551,0-18.551,0S424.142,1200.054,424.488,1199.617Z" transform="translate(-414.074 -1188.811)" fill="#99332b"/>
      <g id="Grupo_55789" data-name="Grupo 55789">
        <path id="Trazado_106818" data-name="Trazado 106818" d="M329.885,1284.971s-.7-.523-.358-.96.9-.519,1.976-.519h16.679s.867.236.867.719-.347.6-.624.719S329.885,1284.971,329.885,1284.971Z" transform="translate(-329.43 -1273.205)" fill="#c4453b"/>
        <path id="Trazado_106819" data-name="Trazado 106819" d="M331.381,1271.842s-1.738-.1-1.409-1.072c.169-.5.9-.519,1.977-.519h16.679s.867.236.867.719-.347.6-.624.719S331.381,1271.842,331.381,1271.842Z" transform="translate(-329.876 -1261.402)" fill="#c4453b"/>
        <path id="Trazado_106820" data-name="Trazado 106820" d="M331.269,1258s-1.644,0-1.314-.974c.169-.5.9-.519,1.976-.519h16.679s.867.236.867.719-.36.635-.637.754S331.269,1258,331.269,1258Z" transform="translate(-329.859 -1249.151)" fill="#e57970"/>
        <path id="Trazado_106821" data-name="Trazado 106821" d="M340.628,1244.518s-1.641-.006-1.312-.98c.168-.5.9-.519,1.977-.519h16.679s.867.236.867.719-.347.6-.624.719S340.628,1244.518,340.628,1244.518Z" transform="translate(-338.203 -1237.129)" fill="#c4453b"/>
        <path id="Trazado_106822" data-name="Trazado 106822" d="M331.253,1231.024s-1.63,0-1.3-.974c.169-.5.9-.52,1.976-.52h16.679s.867.236.867.719-.368.627-.645.746S331.253,1231.024,331.253,1231.024Z" transform="translate(-329.856 -1225.106)" fill="#c65447"/>
        <path id="Trazado_106823" data-name="Trazado 106823" d="M331.247,1217.287s-1.625-.009-1.3-.983c.169-.5.9-.519,1.976-.519h16.679s.867.236.867.719-.368.643-.645.762S331.247,1217.287,331.247,1217.287Z" transform="translate(-329.856 -1212.854)" fill="#c4453b"/>
        <path id="Trazado_106824" data-name="Trazado 106824" d="M340.6,1204s-1.621.049-1.292-.925c.169-.5.9-.519,1.977-.519h16.679s.867.236.867.719-.347.6-.624.719S340.6,1204,340.6,1204Z" transform="translate(-338.2 -1201.064)" fill="#c65447"/>
        <path id="Trazado_106825" data-name="Trazado 106825" d="M331.258,1190.3s-1.635,0-1.305-.974c.169-.5.9-.52,1.976-.52h16.679s.867.236.867.719-.449.672-.726.792S331.258,1190.3,331.258,1190.3Z" transform="translate(-329.857 -1188.811)" fill="#e57970"/>
      </g>
    </g>
    <g id="Grupo_55792" data-name="Grupo 55792" transform="translate(432.051 648.791)">
      <g id="Grupo_55791" data-name="Grupo 55791" transform="translate(0 0)">
        <path id="Trazado_106826" data-name="Trazado 106826" d="M1556.309,772.2h-25.582V736.129h25.582Zm-24.851-.731h24.121V736.86h-24.121Z" transform="translate(-1530.727 -736.129)" fill="#ffd4d4"/>
      </g>
      <rect id="Rectángulo_5783" data-name="Rectángulo 5783" width="22.371" height="33.332" transform="translate(1.489 1.29)" fill="#ffd4d4" opacity="0.6"/>
    </g>
    <g id="Grupo_55793" data-name="Grupo 55793" transform="translate(415.815 613.72)">
      <path id="Trazado_106828" data-name="Trazado 106828" d="M1492.458,413.325v14.01a.873.873,0,0,1-.871.87h-.126a.873.873,0,0,1-.87-.87V414.091Q1491.509,413.7,1492.458,413.325Z" transform="translate(-1478.714 -413.325)" fill="#f2a0a4"/>
      <path id="Trazado_106829" data-name="Trazado 106829" d="M1393.6,504.568c-6.806,0-12.324,5.834-12.324,13.031h24.648C1405.925,510.4,1400.407,504.568,1393.6,504.568Z" transform="translate(-1381.277 -494.655)" fill="#ff9843"/>
      <path id="Trazado_106830" data-name="Trazado 106830" d="M1428.989,505.064a5.076,5.076,0,0,0-1.082-.118c-4.435,0-8.03,5.816-8.03,12.99h2.165C1422.042,511.356,1425.066,505.919,1428.989,505.064Z" transform="translate(-1415.683 -494.992)" fill="#ffc48a"/>
    </g>
    <g id="Grupo_55794" data-name="Grupo 55794" transform="translate(460.483 606.5)">
      <path id="Trazado_106831" data-name="Trazado 106831" d="M1901.738,346.872V368.1a.872.872,0,0,0,.87.87h.126a.873.873,0,0,0,.871-.87V346.883Q1902.671,346.871,1901.738,346.872Z" transform="translate(-1889.861 -346.872)" fill="#f2a0a4"/>
      <path id="Trazado_106832" data-name="Trazado 106832" d="M1804.746,504.568c-6.806,0-12.324,5.834-12.324,13.031h24.648C1817.07,510.4,1811.552,504.568,1804.746,504.568Z" transform="translate(-1792.422 -487.435)" fill="#ff9843"/>
      <path id="Trazado_106833" data-name="Trazado 106833" d="M1840.135,505.064a5.077,5.077,0,0,0-1.083-.118c-4.435,0-8.029,5.816-8.029,12.99h2.165C1833.188,511.356,1836.212,505.919,1840.135,505.064Z" transform="translate(-1826.829 -487.772)" fill="#ffc48a"/>
    </g>
    <g id="Grupo_55795" data-name="Grupo 55795" transform="translate(318.619 645.27)">
      <path id="Trazado_106834" data-name="Trazado 106834" d="M499.649,762.605H486.662a6.7,6.7,0,0,1,6.257-6.861v-7.335q.493-.236.984-.46v7.836A6.742,6.742,0,0,1,499.649,762.605Z" transform="translate(-486.662 -743.144)" fill="#ffc0c0"/>
      <path id="Trazado_106835" data-name="Trazado 106835" d="M716.272,723.188H703.285c0-4.058,2.781-7.364,6.258-7.508V703.727q.494,0,.984.012v11.986C713.761,716.154,716.272,719.331,716.272,723.188Z" transform="translate(-679.75 -703.727)" fill="#ffc0c0"/>
      <path id="Trazado_106836" data-name="Trazado 106836" d="M929.877,750.552H916.89a6.705,6.705,0,0,1,6.258-6.862v-9.264q.5.1.984.2v9.11A6.741,6.741,0,0,1,929.877,750.552Z" transform="translate(-870.148 -731.091)" fill="#ffc0c0"/>
    </g>
    <g id="Grupo_55803" data-name="Grupo 55803" transform="translate(282 674.551)">
      <g id="Grupo_55799" data-name="Grupo 55799" transform="translate(93.921 15.062)">
        <g id="Grupo_55796" data-name="Grupo 55796">
          <rect id="Rectángulo_5784" data-name="Rectángulo 5784" width="80.474" height="1.582" transform="translate(87.785 3.132) rotate(180)" fill="#e8b491"/>
          <path id="Trazado_106837" data-name="Trazado 106837" d="M1068.368,1184.27h1.642v-51.579a.821.821,0,0,0-.821-.821h0a.821.821,0,0,0-.821.821Z" transform="translate(-1062.471 -1129.697)" fill="#ce8d6a"/>
          <path id="Trazado_106838" data-name="Trazado 106838" d="M1814.525,1166.411h1.642v-53.72a.821.821,0,0,0-.821-.821h0a.821.821,0,0,0-.821.821Z" transform="translate(-1727.561 -1111.87)" fill="#ce8d6a"/>
          <path id="Trazado_106839" data-name="Trazado 106839" d="M1014.907,1610.285h11.8a.821.821,0,0,0,.821-.821h0a.821.821,0,0,0-.821-.821h-11.8a.821.821,0,0,0-.821.821h0A.821.821,0,0,0,1014.907,1610.285Z" transform="translate(-1014.086 -1554.671)" fill="#ce8d6a"/>
          <path id="Trazado_106840" data-name="Trazado 106840" d="M1761.064,1610.285h11.795a.821.821,0,0,0,.821-.821h0a.821.821,0,0,0-.821-.821h-11.795a.821.821,0,0,0-.821.821h0A.821.821,0,0,0,1761.064,1610.285Z" transform="translate(-1679.177 -1554.671)" fill="#ce8d6a"/>
        </g>
        <g id="Grupo_55797" data-name="Grupo 55797" transform="translate(0.967 55.614)">
          <path id="Trazado_106841" data-name="Trazado 106841" d="M1024.044,1623.757h.971a1.06,1.06,0,0,1,0,2.12h-.971a1.06,1.06,0,0,1,0-2.12Z" transform="translate(-1022.984 -1623.757)" fill="#ce8d6a"/>
          <path id="Trazado_106842" data-name="Trazado 106842" d="M1024.1,1625.813a.938.938,0,1,0,.938-.938A.938.938,0,0,0,1024.1,1625.813Z" transform="translate(-1023.981 -1624.753)" fill="#e8b491"/>
          <path id="Trazado_106843" data-name="Trazado 106843" d="M1101.482,1623.757h.971a1.06,1.06,0,1,1,0,2.12h-.971a1.06,1.06,0,0,1,0-2.12Z" transform="translate(-1092.009 -1623.757)" fill="#ce8d6a"/>
          <path id="Trazado_106844" data-name="Trazado 106844" d="M1101.539,1625.813a.938.938,0,1,0,.938-.938A.938.938,0,0,0,1101.539,1625.813Z" transform="translate(-1093.004 -1624.753)" fill="#e8b491"/>
        </g>
        <g id="Grupo_55798" data-name="Grupo 55798" transform="translate(82.033 55.614)">
          <path id="Trazado_106845" data-name="Trazado 106845" d="M1770.2,1623.757h.971a1.06,1.06,0,1,1,0,2.12h-.971a1.06,1.06,0,0,1,0-2.12Z" transform="translate(-1769.142 -1623.757)" fill="#ce8d6a"/>
          <path id="Trazado_106846" data-name="Trazado 106846" d="M1847.639,1623.757h.971a1.06,1.06,0,0,1,0,2.12h-.971a1.06,1.06,0,1,1,0-2.12Z" transform="translate(-1838.166 -1623.757)" fill="#ce8d6a"/>
          <path id="Trazado_106847" data-name="Trazado 106847" d="M1847.7,1625.813a.938.938,0,1,0,.938-.938A.938.938,0,0,0,1847.7,1625.813Z" transform="translate(-1839.161 -1624.753)" fill="#e8b491"/>
        </g>
        <path id="Trazado_106848" data-name="Trazado 106848" d="M1615.3,1129.05a18.123,18.123,0,0,1,8.616-3.023v-3.043c0-.328.16-.959.764-1a.857.857,0,0,0,.6-.31.977.977,0,0,0,.244-.68,1.072,1.072,0,0,0-1.122-1.049.6.6,0,0,0-.485.256h-.543a1.114,1.114,0,0,1,1.028-.723,1.528,1.528,0,0,1,1.587,1.473,1.443,1.443,0,0,1-.354,1.027,1.327,1.327,0,0,1-.93.472c-.318.019-.325.51-.325.53v3.038a17.806,17.806,0,0,1,8.44,2.822.889.889,0,0,1-.467,1.646h-16.635a.782.782,0,0,1-.422-1.44Zm.352.679a.065.065,0,0,0,.07.052h16.635a.172.172,0,0,0,.174-.132.167.167,0,0,0-.078-.2c-1.667-1.021-4.932-2.719-8.208-2.719h-.132a17.24,17.24,0,0,0-8.43,2.917A.065.065,0,0,0,1615.649,1129.729Z" transform="translate(-1549.656 -1118.655)" fill="#ce8d6a"/>
        <path id="Trazado_106849" data-name="Trazado 106849" d="M1231.683,1127.312a18.119,18.119,0,0,1,8.616-3.023v-3.043c0-.328.16-.959.764-1a.858.858,0,0,0,.6-.31.977.977,0,0,0,.244-.68,1.072,1.072,0,0,0-1.122-1.049.687.687,0,0,0-.6.445h-.506a1.175,1.175,0,0,1,1.109-.911,1.528,1.528,0,0,1,1.587,1.473,1.445,1.445,0,0,1-.354,1.027,1.329,1.329,0,0,1-.931.472c-.318.019-.325.509-.325.53v3.038a17.8,17.8,0,0,1,8.44,2.823.889.889,0,0,1-.467,1.646h-16.635a.782.782,0,0,1-.422-1.44Zm.352.679a.066.066,0,0,0,.07.052h16.635a.172.172,0,0,0,.174-.132.167.167,0,0,0-.078-.2c-1.667-1.022-4.932-2.719-8.208-2.719h-.132a17.236,17.236,0,0,0-8.43,2.917A.065.065,0,0,0,1232.035,1127.991Z" transform="translate(-1207.72 -1117.106)" fill="#ce8d6a"/>
        <path id="Trazado_106850" data-name="Trazado 106850" d="M1182.543,1127.312a18.121,18.121,0,0,1,8.616-3.023v-3.043c0-.328.16-.959.764-1a.857.857,0,0,0,.6-.31.977.977,0,0,0,.244-.68,1.072,1.072,0,0,0-1.122-1.049.686.686,0,0,0-.6.445h-.506a1.175,1.175,0,0,1,1.109-.911,1.527,1.527,0,0,1,1.586,1.473,1.443,1.443,0,0,1-.354,1.027,1.328,1.328,0,0,1-.93.472c-.318.019-.325.509-.326.53v3.038a17.8,17.8,0,0,1,8.44,2.823.889.889,0,0,1-.466,1.646h-16.635a.782.782,0,0,1-.422-1.44Zm.352.679a.066.066,0,0,0,.07.052H1199.6a.172.172,0,0,0,.173-.132.167.167,0,0,0-.078-.2c-1.667-1.022-4.932-2.719-8.208-2.719h-.132a17.237,17.237,0,0,0-8.43,2.917A.065.065,0,0,0,1182.895,1127.991Z" transform="translate(-1163.919 -1117.106)" fill="#ce8d6a"/>
        <path id="Trazado_106851" data-name="Trazado 106851" d="M1235.128,1189.3a9.734,9.734,0,0,1-6.327,2.171,8.244,8.244,0,0,1-5.509-2.008s-2.942,1.494-3.549,2.335-.887,9.432-.887,9.432a8.554,8.554,0,0,0,2.942.514l.607-1.821-1.84,30.544a8.2,8.2,0,0,0,3.645-.692c1.32-.757,3.308.251,5.082.49s2.793-1.112,4.536-.552a9.794,9.794,0,0,0,4.825.374l-2.8-30.251.758,1.769s2.6,0,3.442-.888c0,0-1-9.136-1.556-9.7A19.124,19.124,0,0,0,1235.128,1189.3Z" transform="translate(-1196.609 -1180.888)" fill="#80bdcc"/>
        <path id="Trazado_106852" data-name="Trazado 106852" d="M1185.988,1188.7a9.734,9.734,0,0,1-6.327,2.171,8.245,8.245,0,0,1-5.51-2.008s-2.942,1.494-3.549,2.335-.887,9.432-.887,9.432a8.558,8.558,0,0,0,2.942.514l.607-1.821-1.94,34.859a7.314,7.314,0,0,0,3.745-.476c1.32-.757,3.308.251,5.082.49s2.793-.465,4.536.1a9.8,9.8,0,0,0,4.825.374l-2.8-35.429.758,1.769s2.6,0,3.442-.888c0,0-1-9.136-1.556-9.7A19.124,19.124,0,0,0,1185.988,1188.7Z" transform="translate(-1152.808 -1180.357)" fill="#233862"/>
        <path id="Trazado_106853" data-name="Trazado 106853" d="M1618.743,1191.039a9.733,9.733,0,0,1-6.327,2.171,8.246,8.246,0,0,1-5.51-2.008s-2.942,1.494-3.549,2.334-.887,9.432-.887,9.432a8.561,8.561,0,0,0,2.942.514l-.135-1.71-1.1,30.433a8.194,8.194,0,0,0,3.645-.692c1.32-.757,3.308.251,5.082.49s2.793-1.112,4.536-.552a9.8,9.8,0,0,0,4.825.374l-2.8-30.251.758,1.77s2.6,0,3.442-.888c0,0-1-9.136-1.556-9.7A19.137,19.137,0,0,0,1618.743,1191.039Z" transform="translate(-1538.546 -1182.438)" fill="#a8d29f"/>
        <path id="Trazado_106854" data-name="Trazado 106854" d="M1499.8,1129.05a22.694,22.694,0,0,1,3.109-1.667,18.576,18.576,0,0,1,1.853-.7,13.562,13.562,0,0,1,3.654-.658h0v-3.042c0-.328.16-.959.764-1a.857.857,0,0,0,.6-.31.976.976,0,0,0,.244-.68,1.072,1.072,0,0,0-1.121-1.049.6.6,0,0,0-.485.256h-.543a1.114,1.114,0,0,1,1.028-.723,1.528,1.528,0,0,1,1.587,1.473,1.444,1.444,0,0,1-.354,1.027,1.327,1.327,0,0,1-.93.472c-.318.019-.325.51-.326.53v3.038a13.456,13.456,0,0,1,4.068.751c.589.2,1.152.421,1.679.655a23.412,23.412,0,0,1,2.693,1.418.889.889,0,0,1-.466,1.646h-16.636a.782.782,0,0,1-.421-1.44Zm.351.679a.066.066,0,0,0,.07.052h16.636a.172.172,0,0,0,.174-.132.168.168,0,0,0-.078-.2,22.442,22.442,0,0,0-2.619-1.376c-.522-.232-1.081-.453-1.665-.646a12.609,12.609,0,0,0-3.924-.7h-.131a12.775,12.775,0,0,0-3.621.623,18.417,18.417,0,0,0-2.026.779,22.314,22.314,0,0,0-2.785,1.515A.065.065,0,0,0,1500.147,1129.729Z" transform="translate(-1446.704 -1118.655)" fill="#ce8d6a"/>
        <path id="Trazado_106855" data-name="Trazado 106855" d="M1413.2,1129.23a23.362,23.362,0,0,1,2.693-1.417c.526-.233,1.09-.457,1.679-.655a13.45,13.45,0,0,1,4.068-.751v-3.038c0-.02-.008-.51-.325-.53a1.328,1.328,0,0,1-.93-.472,1.444,1.444,0,0,1-.354-1.027,1.528,1.528,0,0,1,1.586-1.473,1.1,1.1,0,0,1,1.008.681h-.557a.587.587,0,0,0-.451-.214,1.072,1.072,0,0,0-1.121,1.049.977.977,0,0,0,.244.681.857.857,0,0,0,.6.31c.6.037.764.667.764,1v3.042h0a13.564,13.564,0,0,1,3.654.658,18.63,18.63,0,0,1,1.853.7,22.681,22.681,0,0,1,3.109,1.667.781.781,0,0,1-.421,1.44h-16.635a.888.888,0,0,1-.466-1.646Zm.292.8a.172.172,0,0,0,.174.133H1430.3a.072.072,0,0,0,.039-.134,22.281,22.281,0,0,0-2.785-1.515,18.364,18.364,0,0,0-2.025-.779,12.764,12.764,0,0,0-3.621-.623h-.131a12.6,12.6,0,0,0-3.924.7c-.583.193-1.143.415-1.665.646a22.405,22.405,0,0,0-2.618,1.377A.167.167,0,0,0,1413.5,1130.034Z" transform="translate(-1369.463 -1118.998)" fill="#ce8d6a"/>
        <path id="Trazado_106856" data-name="Trazado 106856" d="M1526.235,1221.053a2.724,2.724,0,0,1-2.786.634,5.432,5.432,0,0,0-3.8.219c-1.99,1.239-4.166,1.367-5.074-.218-.606-1.058-2.521,1.121-6.492.3,0,0,3.281-20.037,3.375-22.412s-1.942-5.182-.635-9.9c0,0,.006-.033.014-.092.017-.131.049-.391.07-.709a5.977,5.977,0,0,0-.092-1.709,1.549,1.549,0,0,0-.3-.645c.526-.234,1.09-.457,1.679-.655.073.173.168.4.282.654.286.645.692,1.508,1.163,2.355.132.239.271.477.414.709.742,1.211,1.592,2.241,2.369,2.334,0,0,1.022-.137,2.312-2.334.127-.216.256-.451.388-.709a20.8,20.8,0,0,0,1.031-2.427c.077-.215.154-.438.231-.67a18.62,18.62,0,0,1,1.853.7.953.953,0,0,1,.069.118s-.063.245-.127.632a9.259,9.259,0,0,0-.125,1.648,6.506,6.506,0,0,0,.052.709c0,.031.008.062.013.092a6.544,6.544,0,0,1,.423,3.33c-.187,2.148-1.06,4.34-1,6.567C1521.635,1202.564,1526.141,1217.411,1526.235,1221.053Zm-15.025-31.133-.325-.206C1510.948,1189.756,1511.059,1189.828,1511.21,1189.92Z" transform="translate(-1454.415 -1177.748)" fill="#fc7972"/>
        <path id="Trazado_106857" data-name="Trazado 106857" d="M1437.2,1218.2a2.724,2.724,0,0,1-2.786.634,5.433,5.433,0,0,0-3.8.219c-1.99,1.24-4.166,1.368-5.074-.218-.605-1.057-2.521,1.121-6.492.3,0,0,4.034-16.8,4.127-19.179s-2.7-5.18-1.388-9.9c0,0,.006-.033.014-.092.018-.131.049-.391.07-.709a5.991,5.991,0,0,0-.092-1.709,1.547,1.547,0,0,0-.3-.645c.527-.233,1.09-.457,1.679-.655.073.173.168.4.282.654.286.645.692,1.508,1.163,2.355.133.239.271.477.414.709.742,1.211,1.592,2.241,2.369,2.333,0,0,1.022-.137,2.312-2.333.127-.216.256-.451.388-.709a20.847,20.847,0,0,0,1.031-2.427c.077-.215.154-.438.231-.67a18.6,18.6,0,0,1,1.853.7.924.924,0,0,1,.069.118s-.064.245-.127.632a9.27,9.27,0,0,0-.125,1.648,6.6,6.6,0,0,0,.052.709c0,.031.009.062.013.092a6.541,6.541,0,0,1,.423,3.33c-.187,2.148-1.06,4.34-1,6.567C1432.6,1202.948,1437.1,1214.56,1437.2,1218.2Zm-15.025-27.9-.325-.206C1421.909,1190.141,1422.02,1190.213,1422.172,1190.305Z" transform="translate(-1375.051 -1178.091)" fill="#4d8693"/>
      </g>
      <g id="Grupo_55802" data-name="Grupo 55802">
        <g id="Grupo_55801" data-name="Grupo 55801">
          <path id="Trazado_106858" data-name="Trazado 106858" d="M212.008,1133.442c.445,2.048,4.553,6.916,4.567,6.925a.442.442,0,0,0,.161.053h.008a2.843,2.843,0,0,1,1.364.341,2.082,2.082,0,0,0,1.928.209c.348-.279-.116-.766-.6-1.487s-1.463-.511-1.765-.464c-.18.027-.335-.134-.431-.27l-.006-.008c-.018-.027-.035-.052-.048-.074-.415-1.214-1.351-2.953-2.318-5.016a1.344,1.344,0,0,1,.077-1.283c.646-1.032,1.957-3.175,2.8-4.9.1-.5.2-.965.272-1.319a3.747,3.747,0,0,1-2.868-1.906C214.271,1125.95,211.569,1131.423,212.008,1133.442Z" transform="translate(-205.187 -1107.844)" fill="#e88f62"/>
          <path id="Trazado_106859" data-name="Trazado 106859" d="M356.5,1113c1.779,1.108,8.132,1.555,8.149,1.551a.44.44,0,0,0,.15-.078l.006,0c.278-.2.722-.694,1.2-.741.574-.057,1.452-.2,1.5-.645s-.881-.7-1.738-.856a1.152,1.152,0,0,0-1.314.6.505.505,0,0,1-.493.121h-.009l-.087-.017c-1.16-.549-3.059-1.089-5.212-1.834a1.61,1.61,0,0,1-.866-.949c-.664-1.444-1.345-2.308-2.014-3.92a2.5,2.5,0,0,0-.552-.825c-.483-.475-1.189-1.084-1.335-1.3-1.505,1.121-2.361.99-2.879.833C351.608,1106.748,354.75,1111.91,356.5,1113Z" transform="translate(-329.121 -1089.885)" fill="#e88f62"/>
          <path id="Trazado_106860" data-name="Trazado 106860" d="M283.284,1021.08c.257-.132.39-1.266.453-2.068,0-.036.006-.07.008-.1l.007-.1c0-.048.007-.094.01-.138l0-.043.081,0-.029-.028c-.914-.874-.182-1.409-.547-4.1-.163-1.208,1.066-1.756,3.5-1.545,1.325.116,1.964.453,2.108,1.2a15.34,15.34,0,0,1-.173,2.37c-.027.915,0,1.552-.466,1.966a6.89,6.89,0,0,1-.977.731c.038.9.029,1.73.344,1.818.029.008,1.1.165,1.1.165l-3.544,2.527s-3.361-1.754-3.732-2.023A4.3,4.3,0,0,1,283.284,1021.08Z" transform="translate(-267.112 -1008.599)" fill="#e88f62"/>
          <path id="Trazado_106861" data-name="Trazado 106861" d="M280.551,977.543a3.047,3.047,0,0,1,1.281-1.031c-.661-.435-.475-1.039-.442-1.7a1.365,1.365,0,0,1,.787-1.095,1.689,1.689,0,0,0-.614.269c.269-.538,1.018-.807,2.285-.749a2.187,2.187,0,0,1,1.786.98c0-.365-.576-.98-.576-.98a3,3,0,0,1,1.69,2.074,1.093,1.093,0,0,1-.5,1.063,2.419,2.419,0,0,1,1.9,1.718c.376,1.879-.944,2.657-1.1,3.062,0,0-.275.175-.455-.347s-.762-.168-.492.375a1.612,1.612,0,0,1-.544,1.957c-.723.566-2.3.466-2.422.738a8.737,8.737,0,0,0-1.173-1.108C280.849,981.966,279.215,979.455,280.551,977.543Z" transform="translate(-265.879 -973.232)" fill="#103663"/>
          <path id="Trazado_106862" data-name="Trazado 106862" d="M308.184,1297.633a1.453,1.453,0,0,1-.131.781c-1.615,3.411-.18,3.4-.18,3.4s1.206-.007,2.491-.007c1.152,0,.594-1.5.372-2.165-.139-.414-.312-.932-.421-1.26a1.354,1.354,0,0,1-.051-.658q.232-1.36.414-2.545c1.466-9.513.691-11,.615-12.033-.083-1.131,2.683-16,2.6-16.9s-1.454-6.063-1.454-6.063c-2.447.336-7.269,5.688-7.269,5.688s2.116,15.869,1.893,17.873c-.153,1.38.459,7.643.856,11.407C308.032,1296.258,308.13,1297.144,308.184,1297.633Z" transform="translate(-288.268 -1229.015)" fill="#2b478b"/>
          <path id="Trazado_106863" data-name="Trazado 106863" d="M149.616,1326.692h7.016a1.5,1.5,0,0,0,.334-1.591,5.066,5.066,0,0,1-.113-1.454,3.518,3.518,0,0,1,.471-1.572c.335-.579.872-1.553,1.443-2.776,1.209-2.592,2.572-6.3,2.484-9.726,0,0,4.944-11.22,5.417-14.866s-6.18-6.61-6.18-6.61a168.109,168.109,0,0,0-3.048,20.07c-.136,1.508-1.088,6.934-1.779,10.766-.267,1.481-.494,2.724-.621,3.412a2.039,2.039,0,0,1-.514,1.021,13.66,13.66,0,0,1-2.572,2.347C151.286,1325.936,149.616,1325.918,149.616,1326.692Z" transform="translate(-149.616 -1253.889)" fill="#2b478b"/>
          <path id="Trazado_106864" data-name="Trazado 106864" d="M237.151,1269.232a11.356,11.356,0,0,0,1.168.308,31.66,31.66,0,0,0,6.064.668l.435-1.3a.018.018,0,0,1,0-.01.071.071,0,0,1,.043-.057.083.083,0,0,1,.1.022.078.078,0,0,1,.017.045l.26,1.32a14.743,14.743,0,0,0,1.757.1c.209,0,.415,0,.614-.006.373-.011.728-.035,1.064-.068a12.9,12.9,0,0,0,2.508-.494c1.233-.379,1.421-.028,1.421-.028.028-.151.416-2.171.439-2.351a15.98,15.98,0,0,0,.225-3.525,11.783,11.783,0,0,0-.405-1.732c-.437-1.469-1.051-3.032-1.051-3.032-2.886.912-12.972-.133-12.972-.133Z" transform="translate(-227.641 -1227.924)" fill="#2b478b"/>
          <path id="Trazado_106865" data-name="Trazado 106865" d="M325.242,1588.7s1.206-.007,2.491-.007c1.153,0,.594-1.5.372-2.165-.139-.414-.312-.932-.421-1.26a1.354,1.354,0,0,1-.051-.658q.232-1.36.414-2.545a8.2,8.2,0,0,1-2.761-.024c.115,1.1.213,1.985.267,2.474a1.453,1.453,0,0,1-.131.781C323.806,1588.709,325.242,1588.7,325.242,1588.7Z" transform="translate(-305.637 -1515.899)" fill="#99332b"/>
          <path id="Trazado_106866" data-name="Trazado 106866" d="M149.616,1579.684h7.016a1.5,1.5,0,0,0,.334-1.591,5.065,5.065,0,0,1-.113-1.454,3.518,3.518,0,0,1,.471-1.572c.335-.579.872-1.553,1.443-2.776a6.05,6.05,0,0,1-3.106-.365c-.267,1.481-.494,2.724-.621,3.412a2.039,2.039,0,0,1-.514,1.021,13.65,13.65,0,0,1-2.572,2.347C151.286,1578.928,149.616,1578.911,149.616,1579.684Z" transform="translate(-149.616 -1506.881)" fill="#99332b"/>
          <path id="Trazado_106867" data-name="Trazado 106867" d="M264.861,1262.521a7.952,7.952,0,0,1-6.769,2.514,13.944,13.944,0,0,1-6.732-2.207Z" transform="translate(-240.305 -1231.091)" fill="#233862"/>
          <path id="Trazado_106868" data-name="Trazado 106868" d="M241.68,1093.428l-.007-.046a4.209,4.209,0,0,1-2.67-2.3,18.4,18.4,0,0,1,2.581-3.5.621.621,0,0,1,.237-.258c1.064-.565,7.791-1.743,12.122.409a10.633,10.633,0,0,1,2.307,3.387,4.455,4.455,0,0,1-3.057,2.248c-.3,1.123-1.651,6.241-1.5,6.984.167.835,2.491,3.744,2.157,5.262-.16.73-4.2,1.768-8.755,1.34a19.187,19.187,0,0,1-4.746-1.032c-.331-.12-.3-.8-.182-1.128.233-.642.942-1.872,2.091-4.524a44.923,44.923,0,0,0-.575-6.847Z" transform="translate(-229.292 -1074.192)" fill="#e9f3fe"/>
          <g id="Grupo_55800" data-name="Grupo 55800" transform="translate(12.388 16.968)">
            <path id="Trazado_106869" data-name="Trazado 106869" d="M301.642,1214.09c.167.835,2.491,3.744,2.157,5.262-.16.73-4.2,1.768-8.755,1.34C301.5,1220.587,301.642,1214.09,301.642,1214.09Z" transform="translate(-291.632 -1204.89)" fill="#d1e2f2"/>
            <path id="Trazado_106870" data-name="Trazado 106870" d="M370.18,1129.423c.434-.1,1.208.436,1.726.854a4.225,4.225,0,0,1-2.426,1.351C369.486,1131.312,369.553,1129.575,370.18,1129.423Z" transform="translate(-357.98 -1129.409)" fill="#d1e2f2"/>
            <path id="Trazado_106871" data-name="Trazado 106871" d="M263.641,1150.135a1.734,1.734,0,0,1,1.933,1.337c.546,1.614-1.008,5.262-1.359,5.512a44.919,44.919,0,0,0-.575-6.847Z" transform="translate(-263.641 -1147.867)" fill="#d1e2f2"/>
          </g>
        </g>
        <path id="Trazado_106872" data-name="Trazado 106872" d="M303.586,1342.731a2.566,2.566,0,0,1,3.031-2.446s-2.205,1.59-2.126,2.711C304.491,1343,304.13,1342.323,303.586,1342.731Z" transform="translate(-286.858 -1300.393)" fill="#233862"/>
      </g>
    </g>
    <g id="Grupo_55804" data-name="Grupo 55804" transform="translate(370.048 674.449)">
      <path id="Trazado_106873" data-name="Trazado 106873" d="M1004.006,1569.62a38.178,38.178,0,0,0,3.262-4.229l1.978-3.653,2.59.64-3.287,4.658-3.433,2.9Z" transform="translate(-999.229 -1497.697)" fill="#ffb27d"/>
      <path id="Trazado_106874" data-name="Trazado 106874" d="M1139.335,972.841a3.349,3.349,0,0,1,1.814-.347.848.848,0,0,0-.383-.182,2.811,2.811,0,0,1,1,.262c4.319-1.664,5,4.695,4.907,6.172s1.451,1.959,3.7,3.123c4.287,2.221,4.664,5.195,4.664,5.195-.034.02-.068.042-.106.068-.212-.36-.651-1.037-1.02-1.139a15.278,15.278,0,0,1,.594,1.447c-1.265.962-3.63,3.094-5.279,4.605a2.426,2.426,0,0,0-.112-.936l-.2,1.227c-.882.811-1.491,1.382-1.491,1.382.109-1.194-5.4-7.494-8.273-9.38a8.315,8.315,0,0,1-.967-2.993,7.85,7.85,0,0,0,.588,2.708C1136.335,981.812,1137.751,973.741,1139.335,972.841Z" transform="translate(-1118.183 -972.299)" fill="#163560"/>
      <path id="Trazado_106875" data-name="Trazado 106875" d="M1154.557,1049.057a3.979,3.979,0,0,0,2.442.446,3.169,3.169,0,0,0,1.626-1.559c-.42-.083-.541-.661-.532-3.141l-.19.037-3.193.632s.073,1,.075,1.951C1154.787,1048.218,1154.739,1048.972,1154.557,1049.057Z" transform="translate(-1133.423 -1036.925)" fill="#9c5f33"/>
      <path id="Trazado_106876" data-name="Trazado 106876" d="M1158.647,980.545a2.552,2.552,0,0,0-3.553-.086A13.844,13.844,0,0,1,1158.647,980.545Z" transform="translate(-1133.902 -978.962)" fill="#a8d29f"/>
      <path id="Trazado_106877" data-name="Trazado 106877" d="M1142.993,988.121a9.386,9.386,0,0,0,1.161-2.745c.161-.9-.3-4.251-3.664-3.769a4.571,4.571,0,0,0-1.9.717c-.73.493-1.785,1.558-.606,4.48l.306.987Z" transform="translate(-1118.183 -980.554)" fill="#163560"/>
      <path id="Trazado_106878" data-name="Trazado 106878" d="M1038.829,1283.145l1.693.052,1.832.056a36.166,36.166,0,0,0,6.605-12.264q.083-.263.176-.533c1.3-3.788,3.992-8.543,5.411-12.846.226-.685.429-1.331.611-1.941q.088-.293.169-.577a45.668,45.668,0,0,0,1.628-8.569l-10.248.082A191.026,191.026,0,0,1,1038.829,1283.145Z" transform="translate(-1030.268 -1216.729)" fill="#80bdcc"/>
      <path id="Trazado_106879" data-name="Trazado 106879" d="M1117.948,1091.084a13.77,13.77,0,0,0,9.6.588c.061-.019-.344-20.158-1.823-20.713a3.211,3.211,0,0,1-2.25.827c-1.039-.023-1.376-.467-1.322-.953-1.107.616-1.99,1.2-1.99,1.2C1119.225,1073.666,1117.948,1091.084,1117.948,1091.084Z" transform="translate(-1100.792 -1060.129)" fill="#c8e5c1"/>
      <path id="Trazado_106880" data-name="Trazado 106880" d="M1193.022,1128.55c.448.634,1.307,4.488,3.443,4.972-1.1-2.746-1.937-3.951-2.068-4.8a20.828,20.828,0,0,1-.127-4.746c-.715-1.254-1.249-2.113-1.249-2.113-.056-.2-1.137-3.544-1.483-.557A13.8,13.8,0,0,0,1193.022,1128.55Z" transform="translate(-1166.336 -1104.02)" fill="#5f9aa8"/>
      <path id="Trazado_106881" data-name="Trazado 106881" d="M1138.925,1000.692s4.228.07,4.23-2.564.551-4.4-2.148-4.554-3.225.848-3.439,1.727S1137.825,1000.606,1138.925,1000.692Z" transform="translate(-1118.234 -991.249)" fill="#ab7041"/>
      <path id="Trazado_106882" data-name="Trazado 106882" d="M1151.916,988.388s1.158,3.089,2.934,3.546a3.5,3.5,0,0,0,2.547-.019,31.457,31.457,0,0,0-.329-3.188S1152.789,986.917,1151.916,988.388Z" transform="translate(-1131.069 -986.126)" fill="#163560"/>
      <path id="Trazado_106883" data-name="Trazado 106883" d="M1137,991.289a3.737,3.737,0,0,0-1.075,1.36c-.211.671-.305,2.051-.708,2,0,0-.872-2.1.108-3.288C1136.36,990.106,1137,991.289,1137,991.289Z" transform="translate(-1115.862 -988.777)" fill="#163560"/>
      <path id="Trazado_106884" data-name="Trazado 106884" d="M1179.363,1572.738c.144-.791.418-2.16.418-2.16l-.063-4.855h2.949l-1.1,4.647a4.731,4.731,0,0,0,.227,1.94s.283,1.29-.988,1.314S1179.219,1573.529,1179.363,1572.738Z" transform="translate(-1155.505 -1501.25)" fill="#ffb27d"/>
      <path id="Trazado_106885" data-name="Trazado 106885" d="M1178.518,1628.032h2.643a7.114,7.114,0,0,0-.1-1.943c-1.438,1.394-2.339-.035-2.339-.035A7.194,7.194,0,0,0,1178.518,1628.032Z" transform="translate(-1154.78 -1555.027)" fill="#233862"/>
      <path id="Trazado_106886" data-name="Trazado 106886" d="M992.647,1608.049H995.9a5.428,5.428,0,0,0,.883-1.457,1.575,1.575,0,0,1,1.061-.727v2.184h.675l.62-2.323a2.2,2.2,0,0,0-.195-2.1c-.34,0-1.317.232-3.048,2.23a2.245,2.245,0,0,1-1.82.87.147.147,0,0,1-.026.014A2.429,2.429,0,0,0,992.647,1608.049Z" transform="translate(-989.104 -1535.034)" fill="#233862"/>
      <path id="Trazado_106887" data-name="Trazado 106887" d="M990.284,1073.942s2.775,1.552,3.766,2c.565.255,1.865.864,2.782,1.294a1.43,1.43,0,0,0,1.695-.365c1.5-1.757,5.42-5.569,9.442-6.036,0,0-2.446,6.042-2.518,7.265s-.288,20-.288,20,.144.863-1.511.5a5.554,5.554,0,0,1-2.086-.719s1.582-11.581,1.151-15.609a8.986,8.986,0,0,1,.171-2.608,20.6,20.6,0,0,1-5.35,2.153,30.038,30.038,0,0,1-5.131-3.117,17.785,17.785,0,0,1-2.565-3.281Z" transform="translate(-986.604 -1060.129)" fill="#ee9849"/>
      <path id="Trazado_106888" data-name="Trazado 106888" d="M1054.408,1344.105l1.832.056a36.162,36.162,0,0,0,6.605-12.264q.083-.263.176-.533c1.3-3.788,3.992-8.543,5.411-12.846.226-.685.429-1.331.611-1.941.058-.2.115-.388.169-.577l-1.509-1.146s-4.531,7.337-5.934,14.242C1060.551,1335.094,1055.671,1342.31,1054.408,1344.105Z" transform="translate(-1044.155 -1277.637)" fill="#5f9aa8"/>
      <path id="Trazado_106889" data-name="Trazado 106889" d="M1167.067,1313.765c-.026,3.358.144,11.077.581,14.273h1.623c.9,0,1.344-.013,1.344-.013,1.1-5.557,1.878-10.155,2.446-14.116.466-3.251.88-6.039,1.2-8.438.321-2.415.544-4.437.624-6.145.012-.269.022-.531.027-.785s.006-.5,0-.745l-8.855-.863C1166.172,1302.816,1167.082,1311.814,1167.067,1313.765Z" transform="translate(-1143.676 -1261.663)" fill="#80bdcc"/>
      <path id="Trazado_106890" data-name="Trazado 106890" d="M1195.615,1347.666c.9,0,1.344-.013,1.344-.013,1.1-5.557,1.877-10.155,2.446-14.116.466-3.251.88-6.039,1.2-8.438s.544-4.437.623-6.145l-3.249,1.911s2.074.731,1.282,6.27S1196.716,1346.882,1195.615,1347.666Z" transform="translate(-1170.02 -1281.291)" fill="#5f9aa8"/>
      <path id="Trazado_106891" data-name="Trazado 106891" d="M1166.941,1098.766a2.635,2.635,0,0,0,2.781,1.965,25.977,25.977,0,0,0,5.227-1.582s-.923-2.914-2.069-6.742c-.012-.04-.024-.081-.037-.122-1.353-4.52-3.007-10.275-3.829-14.019-.018-.08-.035-.159-.052-.237a23.246,23.246,0,0,1-.44-2.569l-1.823-3.471s-2.636,5.989-2.781,7.5S1166.941,1098.766,1166.941,1098.766Z" transform="translate(-1141.765 -1061.158)" fill="#ee9849"/>
      <path id="Trazado_106892" data-name="Trazado 106892" d="M1143.169,1079.266l-2.4-7.274a36.078,36.078,0,0,1,4.515,1.64,10.43,10.43,0,0,1,1.516,3.992s.612,6.686-.755,9.132c0,0-4.316.863-11.221-1.511v-1.582s7.553.4,9.1.575Z" transform="translate(-1115.838 -1061.161)" fill="#ab7041"/>
      <path id="Trazado_106893" data-name="Trazado 106893" d="M1194.542,1134.153c.1,2.413.657,7.066,5.6,9.632-1.353-4.52-3.007-10.275-3.829-14.019C1195.417,1131.142,1194.494,1132.88,1194.542,1134.153Z" transform="translate(-1169.063 -1112.658)" fill="#d86713"/>
      <path id="Trazado_106894" data-name="Trazado 106894" d="M1187.742,1071.992s4.413.306,5.468,2.656,1.391,10.166.048,12.468a12.225,12.225,0,0,1-5.118-.085l-.121-.023s-1.043-2.554-.108-3.057c0,0,2.757.144,2.47-.767S1187.742,1071.992,1187.742,1071.992Z" transform="translate(-1162.806 -1061.161)" fill="#ee9849"/>
      <path id="Trazado_106895" data-name="Trazado 106895" d="M974.127,1100.68s1.409,25.226,1.994,29.908a5.674,5.674,0,0,0,3.568.418l2.118-18.53,2.09,18.68a6.947,6.947,0,0,0,4.766-.373l1.1-23.3-2-.342a26.723,26.723,0,0,1-11.11-4.646Z" transform="translate(-972.596 -1086.732)" fill="#233862"/>
      <path id="Trazado_106896" data-name="Trazado 106896" d="M963.714,1084.071a2.638,2.638,0,0,0-2.957-1.844c-.271.085-1.063.4-.557,1.248.373.625.535.3,1.121,1.142a1.87,1.87,0,0,0,1.952.929Z" transform="translate(-960.035 -1070.258)" fill="#ab7041"/>
      <path id="Trazado_106897" data-name="Trazado 106897" d="M1110.964,1158.672a3.776,3.776,0,0,1-.73-1.474,1.6,1.6,0,0,0-1.565-1.433c-1.039-.136-1.485-.151-1.482.141a7.752,7.752,0,0,0,2.339,3.557C1111.015,1160.684,1110.964,1158.672,1110.964,1158.672Z" transform="translate(-1091.199 -1135.749)" fill="#ab7041"/>
    </g>
    <path id="Trazado_106898" data-name="Trazado 106898" d="M615.545,1531.845s.226-.007.617-.017a.182.182,0,0,1-.05-.01.713.713,0,0,1-.457-.719c0-.483.634-.719.634-.719l.182-.008a2.131,2.131,0,0,1-.36-.046.713.713,0,0,1-.457-.719c0-.369.369-.593.544-.679a6.174,6.174,0,0,1-.831-.039.713.713,0,0,1-.457-.719c0-.483.634-.72.634-.72l.7-.027a.648.648,0,0,1-.129-.027.713.713,0,0,1-.457-.719c0-.483.634-.719.634-.719h29.633c.787,0,1.323.021,1.447.52.232.935-.854,9.138-.94,9.786a1.05,1.05,0,0,1,.94.5c.254.437-.254.919-.254.919h-31a.713.713,0,0,1-.457-.719c0-.4.427-.627.58-.7a.567.567,0,0,1-.123-.023.713.713,0,0,1-.457-.719c0-.483.634-.719.634-.719l.194,0a2.229,2.229,0,0,1-.371-.05.713.713,0,0,1-.457-.719c0-.387.405-.615.568-.69a6.347,6.347,0,0,1-.855-.056.713.713,0,0,1-.457-.719C614.911,1532.082,615.545,1531.845,615.545,1531.845Z" transform="translate(-282.359 -791.355)" fill="#99332b"/>
    <g id="Grupo_55805" data-name="Grupo 55805" transform="translate(340.104 734.601)">
      <path id="Trazado_106899" data-name="Trazado 106899" d="M705.225,1622.1s.589-.5.336-.94-.66-.519-1.447-.519H691.907s-.635.236-.635.719a.713.713,0,0,0,.457.719C691.932,1622.195,705.225,1622.1,705.225,1622.1Z" transform="translate(-690.528 -1610.35)" fill="#c4453b"/>
      <path id="Trazado_106900" data-name="Trazado 106900" d="M704.615,1608.84s1.187.049.946-.925c-.123-.5-.66-.519-1.447-.519H691.907s-.635.236-.635.719a.713.713,0,0,0,.457.719C691.932,1608.953,704.615,1608.84,704.615,1608.84Z" transform="translate(-690.528 -1598.547)" fill="#c4453b"/>
      <path id="Trazado_106901" data-name="Trazado 106901" d="M704.6,1595.144s1.2,0,.962-.976c-.123-.5-.66-.519-1.447-.519H691.907s-.635.236-.635.719a.852.852,0,0,0,.5.792C691.977,1595.28,704.6,1595.144,704.6,1595.144Z" transform="translate(-690.528 -1586.294)" fill="#e57970"/>
      <path id="Trazado_106902" data-name="Trazado 106902" d="M697.811,1581.654s1.138,0,.9-.974c-.123-.5-.66-.519-1.447-.519H685.054s-.634.236-.634.72a.713.713,0,0,0,.457.719C685.08,1581.719,697.811,1581.654,697.811,1581.654Z" transform="translate(-684.42 -1574.272)" fill="#c4453b"/>
      <path id="Trazado_106903" data-name="Trazado 106903" d="M704.615,1568.12s1.187.049.946-.925c-.123-.5-.66-.519-1.447-.519H691.907s-.635.236-.635.719a.713.713,0,0,0,.457.719C691.932,1568.233,704.615,1568.12,704.615,1568.12Z" transform="translate(-690.528 -1562.251)" fill="#c65447"/>
      <path id="Trazado_106904" data-name="Trazado 106904" d="M704.557,1554.43s1.245-.006,1-.98c-.123-.5-.66-.519-1.447-.519H691.907s-.635.236-.635.719a.831.831,0,0,0,.514.774C691.989,1554.543,704.557,1554.43,704.557,1554.43Z" transform="translate(-690.528 -1549.999)" fill="#c4453b"/>
      <path id="Trazado_106905" data-name="Trazado 106905" d="M697.763,1541.146s1.187.048.946-.925c-.123-.5-.66-.519-1.447-.519H685.054s-.634.236-.634.719a.713.713,0,0,0,.457.719C685.08,1541.259,697.763,1541.146,697.763,1541.146Z" transform="translate(-684.42 -1538.208)" fill="#c65447"/>
      <path id="Trazado_106906" data-name="Trazado 106906" d="M704.616,1527.449s1.185,0,.944-.974c-.123-.5-.66-.52-1.447-.52H691.907s-.635.236-.635.719a.858.858,0,0,0,.514.792C691.989,1527.586,704.616,1527.449,704.616,1527.449Z" transform="translate(-690.528 -1525.956)" fill="#e57970"/>
    </g>
    <g id="Grupo_55807" data-name="Grupo 55807" transform="translate(357.529 734.601)">
      <g id="Grupo_55806" data-name="Grupo 55806" transform="translate(0 0)">
        <path id="Trazado_106907" data-name="Trazado 106907" d="M865.693,1622.076s.508-.482.254-.919-.66-.519-1.447-.519H852.293s-.634.236-.634.719a.713.713,0,0,0,.457.719C852.319,1622.195,865.693,1622.076,865.693,1622.076Z" transform="translate(-850.915 -1610.35)" fill="#c4453b"/>
        <path id="Trazado_106908" data-name="Trazado 106908" d="M865,1608.84s1.187.049.946-.925c-.123-.5-.66-.519-1.447-.519H852.293s-.634.236-.634.719a.713.713,0,0,0,.457.719C852.319,1608.953,865,1608.84,865,1608.84Z" transform="translate(-850.915 -1598.547)" fill="#c4453b"/>
        <path id="Trazado_106909" data-name="Trazado 106909" d="M864.977,1595.15s1.211-.008.97-.982c-.123-.5-.66-.519-1.447-.519H852.293s-.634.236-.634.719a.915.915,0,0,0,.584.8C852.446,1595.283,864.977,1595.15,864.977,1595.15Z" transform="translate(-850.915 -1586.294)" fill="#e57970"/>
        <path id="Trazado_106910" data-name="Trazado 106910" d="M858.256,1581.627s1.08.028.839-.946c-.123-.5-.66-.519-1.447-.519H845.441s-.634.236-.634.72a.713.713,0,0,0,.457.719C845.467,1581.719,858.256,1581.627,858.256,1581.627Z" transform="translate(-844.807 -1574.272)" fill="#c4453b"/>
        <path id="Trazado_106911" data-name="Trazado 106911" d="M865,1568.169s1.187,0,.946-.974c-.123-.5-.66-.519-1.447-.519H852.293s-.634.236-.634.719a.713.713,0,0,0,.457.719C852.319,1568.233,865,1568.169,865,1568.169Z" transform="translate(-850.915 -1562.251)" fill="#c65447"/>
        <path id="Trazado_106912" data-name="Trazado 106912" d="M864.99,1554.432s1.2-.008.957-.982c-.123-.5-.66-.519-1.447-.519H852.293s-.634.236-.634.719a.915.915,0,0,0,.584.8C852.446,1554.565,864.99,1554.432,864.99,1554.432Z" transform="translate(-850.915 -1549.999)" fill="#c4453b"/>
        <path id="Trazado_106913" data-name="Trazado 106913" d="M858.15,1541.146s1.187.048.946-.925c-.123-.5-.66-.519-1.447-.519H845.441s-.634.236-.634.719a.713.713,0,0,0,.457.719C845.467,1541.259,858.15,1541.146,858.15,1541.146Z" transform="translate(-844.807 -1538.208)" fill="#c65447"/>
        <path id="Trazado_106914" data-name="Trazado 106914" d="M864.965,1527.449s1.223,0,.982-.974c-.123-.5-.66-.52-1.447-.52H852.293s-.634.236-.634.719a.818.818,0,0,0,.5.774C852.358,1527.569,864.965,1527.449,864.965,1527.449Z" transform="translate(-850.915 -1525.956)" fill="#e57970"/>
      </g>
    </g>
    <g id="Grupo_55811" data-name="Grupo 55811" transform="translate(426.468 675.02)">
      <path id="Trazado_106915" data-name="Trazado 106915" d="M1573.484,1560.637l1.2,5.054,1.8-.01.066-5.044Z" transform="translate(-1563.256 -1497.288)" fill="#ffb27d"/>
      <path id="Trazado_106916" data-name="Trazado 106916" d="M1712.649,1557.161l3.414,4.839,1.331-1.709-2.055-3.8Z" transform="translate(-1687.301 -1493.597)" fill="#ffb27d"/>
      <path id="Trazado_106917" data-name="Trazado 106917" d="M1492.414,977.8a3.483,3.483,0,0,0-1.919.019.881.881,0,0,1,.353-.263,2.922,2.922,0,0,0-.969.472c-4.74-.808-4.125,5.807-3.729,7.293s-1.076,2.294-3.125,3.94c-3.91,3.142-3.683,6.248-3.683,6.248.038.013.078.029.121.047.142-.411.45-1.19.8-1.369a15.777,15.777,0,0,0-.308,1.6c7.685,6.41,12.466-3.8,15.005-6.313a8.632,8.632,0,0,0,.37-3.246,8.16,8.16,0,0,1-.043,2.878C1497.31,986.321,1494.211,978.393,1492.414,977.8Z" transform="translate(-1479.339 -977.557)" fill="#163560"/>
      <path id="Trazado_106918" data-name="Trazado 106918" d="M1582.264,1055.557a4.134,4.134,0,0,1-2.537.463,3.292,3.292,0,0,1-1.69-1.62c.437-.087.562-.687.553-3.263l.2.039,3.317.657s-.076,1.044-.078,2.027C1582.025,1054.686,1582.075,1055.469,1582.264,1055.557Z" transform="translate(-1567.314 -1043.143)" fill="#ffb27d"/>
      <path id="Trazado_106919" data-name="Trazado 106919" d="M1567.965,986.48a2.652,2.652,0,0,1,3.6-.817A14.385,14.385,0,0,0,1567.965,986.48Z" transform="translate(-1558.336 -984.437)" fill="#5fabb7"/>
      <path id="Trazado_106920" data-name="Trazado 106920" d="M1588.262,1052.151s-.075,1.044-.078,2.027c-1.856-.052-2.837-1.746-3.239-2.684Z" transform="translate(-1573.471 -1043.461)" fill="#ef9e67"/>
      <path id="Trazado_106921" data-name="Trazado 106921" d="M1562.835,993.845a9.754,9.754,0,0,1-1.746-2.557c-.349-.887-.568-4.391,2.958-4.59a4.748,4.748,0,0,1,2.078.341c.845.353,2.137,1.221,1.537,4.438l-.109,1.068Z" transform="translate(-1552.044 -985.695)" fill="#163560"/>
      <path id="Trazado_106922" data-name="Trazado 106922" d="M1597.085,1267.293s-.882.152-1.606.207c-.161.012-.313.019-.447.019a7.862,7.862,0,0,1-1.4-.229l-.032-.007c-.185-.044-.326-.08-.379-.093l-.022-.006a37.557,37.557,0,0,1-6.862-12.741q-.086-.274-.182-.554c-1.35-3.936-4.148-8.875-5.622-13.346-.235-.712-.446-1.382-.634-2.017q-.092-.3-.176-.6a47.366,47.366,0,0,1-1.691-8.9l8.865,2.256S1590.62,1247.415,1597.085,1267.293Z" transform="translate(-1567.311 -1201.704)" fill="#2b478b"/>
      <path id="Trazado_106923" data-name="Trazado 106923" d="M1576.241,1004.31s-4.291.939-4.834-1.742-1.463-4.366,1.253-5.079,3.458.2,3.857,1.053S1577.343,1004,1576.241,1004.31Z" transform="translate(-1560.87 -995.095)" fill="#ffb27d"/>
      <path id="Trazado_106924" data-name="Trazado 106924" d="M1565.932,992.08s-.545,3.384-2.26,4.214a3.634,3.634,0,0,1-2.6.5,10.362,10.362,0,0,0,.511-3.657S1564.74,990.762,1565.932,992.08Z" transform="translate(-1552.194 -990.147)" fill="#163560"/>
      <path id="Trazado_106925" data-name="Trazado 106925" d="M1603.57,992.653a3.879,3.879,0,0,1,1.374,1.165c.352.64.732,2.026,1.132,1.9,0,0,.457-2.317-.785-3.326C1603.975,991.318,1603.57,992.653,1603.57,992.653Z" transform="translate(-1590.073 -990.406)" fill="#163560"/>
      <path id="Trazado_106926" data-name="Trazado 106926" d="M1581.866,1604.557a4.871,4.871,0,0,1-.229,2.072s-.294,1.34,1.026,1.365,1.644-.1,1.494-.922-.434-2.243-.434-2.243Z" transform="translate(-1570.498 -1536.436)" fill="#ffb27d"/>
      <path id="Trazado_106927" data-name="Trazado 106927" d="M1580.691,1623.348a6.469,6.469,0,0,0-.095,1.938,2.389,2.389,0,0,0,1.358.3,2.755,2.755,0,0,0,1.382-.3,7.018,7.018,0,0,0-.215-1.972S1582.185,1624.718,1580.691,1623.348Z" transform="translate(-1569.552 -1553.155)" fill="#233862"/>
      <path id="Trazado_106928" data-name="Trazado 106928" d="M1744.658,1595.506a33.035,33.035,0,0,1-3.181-4.076l-1.81.927,4.046,3.8.946-.125Z" transform="translate(-1711.384 -1524.736)" fill="#ffb27d"/>
      <path id="Trazado_106929" data-name="Trazado 106929" d="M1742.288,1604.7s-2.616,0-3.064-.05-.809-.7-1.295-1.669a1.635,1.635,0,0,0-1.1-.737l.029,2.456h-.691l-.683-2.6a2.193,2.193,0,0,1,.2-2.136c.353,0,1.375.241,3.172,2.267a2.358,2.358,0,0,0,1.891.882.146.146,0,0,0,.027.014C1742.264,1603.8,1742.288,1604.7,1742.288,1604.7Z" transform="translate(-1707.468 -1532.341)" fill="#233862"/>
      <path id="Trazado_106930" data-name="Trazado 106930" d="M1609.351,1330.777c-.161.012-.313.019-.447.019a7.859,7.859,0,0,1-1.4-.229l-.031-.007-.379-.093-.022-.006a37.56,37.56,0,0,1-6.862-12.741q-.086-.274-.182-.554c-1.35-3.936-4.148-8.875-5.622-13.346q-.352-1.068-.634-2.017-.092-.3-.176-.6l1.567-1.19s4.708,7.622,6.165,14.8C1602.537,1320.755,1607.737,1328.463,1609.351,1330.777Z" transform="translate(-1581.184 -1264.981)" fill="#233862"/>
      <path id="Trazado_106931" data-name="Trazado 106931" d="M1542.639,1298.882c.026,3.488-.15,11.508-.6,14.828a2.364,2.364,0,0,1-1.5.385,2.577,2.577,0,0,1-1.583-.4c-1.14-5.773-1.951-10.549-2.541-14.665-.484-3.378-.914-6.274-1.245-8.766-.293-2.209-.509-4.1-.612-5.734q-.02-.333-.036-.65c-.013-.28-.023-.552-.028-.815s-.006-.524,0-.774l.038,0,2.2-.214,6.959-.678C1543.568,1287.507,1542.623,1296.854,1542.639,1298.882Z" transform="translate(-1528.493 -1248.384)" fill="#2b478b"/>
      <path id="Trazado_106932" data-name="Trazado 106932" d="M1540.531,1307.891a2.718,2.718,0,0,1-1.583-.4c-1.14-5.773-1.951-10.55-2.541-14.665-.484-3.378-.915-6.274-1.245-8.767-.293-2.208-.509-4.1-.612-5.734-.012-.8-.021-1.575-.03-2.243s-.021-1.25-.04-1.649l2.242,1.435,2.359,1.509a10.171,10.171,0,0,0-2.524,8.8C1537.378,1291.93,1539.387,1307.076,1540.531,1307.891Z" transform="translate(-1528.489 -1242.18)" fill="#233862"/>
      <path id="Trazado_106933" data-name="Trazado 106933" d="M1606.959,1079.043s3.576-.567,4.776.627c1.471,1.463,4.233,9.853,4.123,10.81-.042.366-1.493.2-1.991-.326C1611.387,1087.553,1607.831,1080.99,1606.959,1079.043Z" transform="translate(-1593.094 -1067.897)" fill="#bc3f3f"/>
      <path id="Trazado_106934" data-name="Trazado 106934" d="M1545.826,1101.822c-2.669.694-15.126,2.063-15.234-1.057-.026-.761,0-1.68.06-2.675.186-3.082.692-6.891.934-8.986.111-.961-.258-5.263.025-7.607a5.3,5.3,0,0,1,.172-.9c.538-1.769,2.956-2.249,4.2-2.292l3.745-.127s3.867,4.32,4.405,5.647.714,5.87,1.132,8.071S1547.125,1101.484,1545.826,1101.822Z" transform="translate(-1525.015 -1067.25)" fill="#bc3f3f"/>
      <g id="Grupo_55808" data-name="Grupo 55808" transform="translate(15.935 20.844)">
        <path id="Trazado_106935" data-name="Trazado 106935" d="M1627.041,1173.74l.385.085c-.01-.163-.066-4-1.117-4.367l-.3-.044c.4.142.685.875.933,2.205A9.2,9.2,0,0,1,1627.041,1173.74Z" transform="translate(-1626.012 -1169.414)" fill="#2e3552"/>
      </g>
      <path id="Trazado_106936" data-name="Trazado 106936" d="M1539.048,1118.474s-2.082,6.394-7.817,6.812c.186-3.082.692-6.891.934-8.986.111-.961-.258-5.263.025-7.607.075.016.142.057.22.073C1538.725,1109.985,1539.622,1117.141,1539.048,1118.474Z" transform="translate(-1525.593 -1094.446)" fill="#a53d38"/>
      <path id="Trazado_106937" data-name="Trazado 106937" d="M1603.474,1167.435a12.683,12.683,0,0,1-8.339-.745,7.578,7.578,0,0,0-1.867.04s.133-1.237.738-1.574,3.209.391,3.988.284C1599.7,1165.207,1602.66,1165.024,1603.474,1167.435Z" transform="translate(-1580.89 -1144.694)" fill="#ef9e67"/>
      <path id="Trazado_106938" data-name="Trazado 106938" d="M1649.455,1120.034s.353-3.055-.843-4.9a.637.637,0,0,1,.725.335c.3.478,2.414,5.016,1.409,5.35S1649.455,1120.034,1649.455,1120.034Z" transform="translate(-1630.221 -1100.172)" fill="#a53d38"/>
      <path id="Trazado_106939" data-name="Trazado 106939" d="M1587.748,1165.066a9.458,9.458,0,0,0-2.08.44c-.305.215-.036.969.538,1.04S1587.748,1165.066,1587.748,1165.066Z" transform="translate(-1574.002 -1144.694)" fill="#ef9e67"/>
      <path id="Trazado_106940" data-name="Trazado 106940" d="M1562.543,1167.186a70.681,70.681,0,0,0,9.351-1.04s.813.007.717.717-7.709,4.685-9.383,3.919Z" transform="translate(-1553.503 -1145.657)" fill="#ffb27d"/>
      <path id="Trazado_106941" data-name="Trazado 106941" d="M1648.612,1161s.52-.628.843-.628a1.878,1.878,0,0,1,1.291.789c.125.377-1,.108-1.417.556S1648.612,1161,1648.612,1161Z" transform="translate(-1630.221 -1140.506)" fill="#ffb27d"/>
      <path id="Trazado_106942" data-name="Trazado 106942" d="M1539.838,1079.357s-4.12.01-4.723,1.49c-1.1,2.7,2.525,11.667,3.482,12.576.411.391,2.317-.225,2.317-2.807C1540.914,1089.276,1540.818,1081.453,1539.838,1079.357Z" transform="translate(-1528.872 -1068.297)" fill="#bc3f3f"/>
      <g id="Grupo_55809" data-name="Grupo 55809" transform="translate(12.86 24.493)">
        <path id="Trazado_106943" data-name="Trazado 106943" d="M1602.834,1208.314l-3.457.528a1.266,1.266,0,0,1-1.439-1.057l-.216-1.418a1.266,1.266,0,0,1,1.057-1.439l3.457-.528a1.266,1.266,0,0,1,1.439,1.057l.217,1.419A1.266,1.266,0,0,1,1602.834,1208.314Z" transform="translate(-1597.708 -1204.234)" fill="#2e3552"/>
        <path id="Trazado_106944" data-name="Trazado 106944" d="M1611.928,1206.925l-3.457.528a1.267,1.267,0,0,1-1.439-1.058l-.217-1.418a1.267,1.267,0,0,1,1.058-1.439l3.457-.528a1.266,1.266,0,0,1,1.439,1.057l.217,1.418A1.266,1.266,0,0,1,1611.928,1206.925Z" transform="translate(-1605.814 -1202.996)" fill="#2b478b"/>
      </g>
      <g id="Grupo_55810" data-name="Grupo 55810" transform="translate(14.844 20.844)">
        <path id="Trazado_106945" data-name="Trazado 106945" d="M1616.348,1173.74l-.385.085c.011-.163.066-4,1.117-4.367l.3-.044c-.4.142-.685.875-.932,2.205A9.169,9.169,0,0,0,1616.348,1173.74Z" transform="translate(-1615.963 -1169.414)" fill="#2b478b"/>
      </g>
    </g>
    <g id="Grupo_55813" data-name="Grupo 55813" transform="translate(469.494 674.015)">
      <path id="Trazado_106946" data-name="Trazado 106946" d="M1906.712,969.518a2.618,2.618,0,0,0-3.458-.869c-2.159,1.137-5.089.468-5.9,4.013s1.788,5.99,0,7.089c-3.183,1.956.151,7.641,3.287,7.774s6.383-4.7,6.383-4.7Z" transform="translate(-1893.816 -968.299)" fill="#912f2f"/>
      <path id="Trazado_106947" data-name="Trazado 106947" d="M1981.8,1308.668a33.506,33.506,0,0,0,2.471,5.743l1.74-.129a43.046,43.046,0,0,1-.849-6.2,31.9,31.9,0,0,1,.651-10.24c3.016-12.209,1.531-20.745,1.531-20.745l-7.694,1.649-.359.077c.307,3.576.675,8.436.954,12.237.252,3.419.432,5.98.432,5.98C1979.484,1300.4,1980.459,1304.9,1981.8,1308.668Z" transform="translate(-1967.997 -1243.547)" fill="#163560"/>
      <path id="Trazado_106948" data-name="Trazado 106948" d="M1914.357,1294.528a41.663,41.663,0,0,0-.861,9.2l1.44.339a31.161,31.161,0,0,1,2.788-7.469c2.007-3.648,3.757-6.841,4.414-8.075,2.606-4.894,2.716-22.883,2.716-22.883l-7.924-.393a13.565,13.565,0,0,0-1.227,6.036A86,86,0,0,0,1917.2,1287a0,0,0,0,0,0,0,.416.416,0,0,1-.052.266A23.952,23.952,0,0,0,1914.357,1294.528Z" transform="translate(-1909.344 -1232.988)" fill="#1c468a"/>
      <path id="Trazado_106949" data-name="Trazado 106949" d="M1956.4,1077.71c-1.992-.023-7.413-.126-8.716-.561a2.994,2.994,0,0,1-1.973-2.274c0-.036.131-.773.34-1.915a4.894,4.894,0,0,0,.637-1.958,3.175,3.175,0,0,0-.117-.88c-.173-.671-.53-1.553-1.058-3.014a8.1,8.1,0,0,1-.394-1.576c-.625-4.2,1.807-8.748,3.318-9.057.42-.111,1.132-1.63,1.123-4.076l.19.037,3.181.63s-.072,1-.074,1.944c0,.785.045,1.531.224,1.625.229.02.364.034.364.034l.009.012c.606.039,2.214.182,2.427.617l-.588,1.786-.17.52a13.649,13.649,0,0,1,1.077,3.217,8.529,8.529,0,0,1,.12.959,6.852,6.852,0,0,1,.007.781c-.127,2.914-1.961,4.676.011,10.979A3.246,3.246,0,0,1,1956.4,1077.71Z" transform="translate(-1937.447 -1043.262)" fill="#ffb27d"/>
      <path id="Trazado_106950" data-name="Trazado 106950" d="M2020.119,1110.306c3.185.1,7.769-3.57,7.769-3.57l-.628-.965c-1.158.772-5.26,1.5-5.26,1.5.287-.928.507-1.786.671-2.578,1.113-5.381-.369-7.706-.8-8.247a1.318,1.318,0,0,0-.112-.128l-.037.109c-.052.154-.157.465-.3.894C2020.39,1100.508,2017.458,1110.225,2020.119,1110.306Z" transform="translate(-2003.422 -1082.405)" fill="#ffb27d"/>
      <path id="Trazado_106951" data-name="Trazado 106951" d="M1962.265,1130.983c-.993,1.345-6.845,1.344-8.148.91-1.605-.536-2.541-3.577-2.541-3.745,0-.036.131-.773.34-1.915.143-.786.322-1.766.52-2.838.868-4.712,2.078-11.23,2.078-11.23s2.633,2.28,4.391,1.806a3.247,3.247,0,0,0,2.234-1.672l.018.058a27.527,27.527,0,0,1,.885,3.52c.006.05.013.122.022.217.03.339.074.951.127,1.74-.127,2.914-1.961,4.676.011,10.979A3.248,3.248,0,0,1,1962.265,1130.983Z" transform="translate(-1943.295 -1096.535)" fill="#1c468a"/>
      <path id="Trazado_106952" data-name="Trazado 106952" d="M1965.666,978.9s-3.76-4.519-5.751-1.627c0,0-1.485.616-2.022,3.144-.548,2.579,1.167,4.54,2.054,4.055.569-.311,1,.685,1,.685Z" transform="translate(-1948.831 -975.436)" fill="#912f2f"/>
      <path id="Trazado_106953" data-name="Trazado 106953" d="M1991.928,1057.416s-.072,1-.074,1.944c-1.78-.05-2.721-1.674-3.107-2.574Z" transform="translate(-1976.428 -1047.172)" fill="#ef9e67"/>
      <path id="Trazado_106954" data-name="Trazado 106954" d="M1976.008,995.922a9.361,9.361,0,0,1-1.157-2.734c-.16-.9.3-4.236,3.65-3.755a4.553,4.553,0,0,1,1.889.714c.728.492,1.778,1.553.6,4.463l-.3.983Z" transform="translate(-1964.018 -987.095)" fill="#912f2f"/>
      <path id="Trazado_106955" data-name="Trazado 106955" d="M1988.533,1013.749s-4.212.07-4.215-2.554-.548-4.382,2.141-4.537,3.213.845,3.427,1.721S1989.629,1013.664,1988.533,1013.749Z" transform="translate(-1972.439 -1002.477)" fill="#ffb27d"/>
      <path id="Trazado_106956" data-name="Trazado 106956" d="M1977.267,1001.544s-1.153,3.078-2.923,3.533a3.485,3.485,0,0,1-2.537-.019,6.861,6.861,0,0,0,1.354-3.144S1976.4,1000.079,1977.267,1001.544Z" transform="translate(-1961.328 -997.426)" fill="#912f2f"/>
      <path id="Trazado_106957" data-name="Trazado 106957" d="M2019.435,1004.381a3.719,3.719,0,0,1,1.071,1.355c.21.668.3,2.043.705,2,0,0,.869-2.092-.108-3.276C2020.068,1003.2,2019.435,1004.381,2019.435,1004.381Z" transform="translate(-2003.782 -1000.013)" fill="#912f2f"/>
      <path id="Trazado_106958" data-name="Trazado 106958" d="M1889.826,1112.6l1.264.379s4.171-6.921,4.55-8.721c.124-.586.427-1.76.781-3.074.732-2.722,1.678-6.053,1.678-6.053l.311-1.349,1.062-4.6a10.519,10.519,0,0,0-3.271.842,2.452,2.452,0,0,0-.935.9c-.874,1.921-1.561,6.321-2.174,9.779-.342,1.927-.6,3.423-.738,3.74C1891.975,1105.332,1890.816,1110.2,1889.826,1112.6Z" transform="translate(-1888.255 -1076.051)" fill="#ffb27d"/>
      <path id="Trazado_106959" data-name="Trazado 106959" d="M1995.846,1002.581s-.822,3.223-3.055,4.255c0,0,2.233-1.98,2.423-4.108S1995.846,1002.581,1995.846,1002.581Z" transform="translate(-1980.033 -998.11)" fill="#912f2f"/>
      <path id="Trazado_106960" data-name="Trazado 106960" d="M2078.921,1644.143l.008.009h.435a.742.742,0,0,0-.115-.009Z" transform="translate(-2056.805 -1570.716)" fill="#283250"/>
      <path id="Trazado_106961" data-name="Trazado 106961" d="M2094.771,1162.213c.048-.121.651-1.906,1.11-2.147a3.1,3.1,0,0,1,1.5-.41,2.115,2.115,0,0,1,0,2.147,7.024,7.024,0,0,1-1.978,1.375Z" transform="translate(-2070.933 -1138.847)" fill="#ffb27d"/>
      <path id="Trazado_106962" data-name="Trazado 106962" d="M1918.1,1120.973c-.808,1.771-2.52,10.788-2.9,13.131a11.713,11.713,0,0,1-7.265-3.674,62.194,62.194,0,0,0,2.033-10.814c.053-.791.136-1.761.242-2.861.426-4.473,1.222-11.095,1.9-16.562.672-5.379,1.237-9.641,1.237-9.641l1.37-.279s2.388,1.81,2.746,7.962S1920.021,1116.756,1918.1,1120.973Z" transform="translate(-1904.393 -1077.021)" fill="#f99746"/>
      <path id="Trazado_106963" data-name="Trazado 106963" d="M2022.749,1091.7s1.214,3.592,1.672,4.99c.978,2.985.132,6.519.376,12.213.357,8.316,1.2,15.859,1.2,15.859s3.062-9.45,2.265-16.094c-1.484-12.366-3.691-16.713-4.413-16.816Z" transform="translate(-2006.736 -1078.296)" fill="#f99746"/>
      <path id="Trazado_106964" data-name="Trazado 106964" d="M2022.749,1091.7a5.424,5.424,0,0,1,2.324.5c.61.468,2.282,3.656,1.931,8.4,0,0-.109,1.507.276,1.783s1.271.047,1.271.047.476,4.5-.895,6.473c0,0-1.992-5.873-1.966-7.066S2027.154,1094.354,2022.749,1091.7Z" transform="translate(-2006.735 -1078.289)" fill="#f99746"/>
      <path id="Trazado_106965" data-name="Trazado 106965" d="M1908.628,1618.117a14.454,14.454,0,0,0,2.215,1.459c.64.234,1.51.455,1.51.886h-3.043s-.828-.384-1.174-.219a2.916,2.916,0,0,1-1.415.227c-.386,0-.412-1.3-.086-1.748a5.3,5.3,0,0,0,.566-1.148Z" transform="translate(-1903.035 -1547.035)" fill="#1c468a"/>
      <path id="Trazado_106966" data-name="Trazado 106966" d="M2024.333,1618.409a14.587,14.587,0,0,0,2.386,1.806c.64.234,1.51.455,1.51.886h-3.043s-.828-.385-1.174-.219a2.914,2.914,0,0,1-1.415.228c-.386,0-.411-1.3-.085-1.748a1.11,1.11,0,0,0-.017-1.07Z" transform="translate(-2006.322 -1547.673)" fill="#163560"/>
      <path id="Trazado_106967" data-name="Trazado 106967" d="M1877.021,1302.77a3.293,3.293,0,0,1-.785,1.159c-.4.253-.969.864-.864,1.348s.211,1.243.716,1.243,1.686-2.233,1.833-2.655.274-.506.274-.506Z" transform="translate(-1875.36 -1266.431)" fill="#ffb27d"/>
      <g id="Grupo_55812" data-name="Grupo 55812" transform="translate(23.115 18.415)">
        <path id="Trazado_106968" data-name="Trazado 106968" d="M2088.2,1142.076l1.782.594a.125.125,0,0,0,.158-.079l1.343-4.034a.126.126,0,0,0-.079-.159l-1.782-.593a.126.126,0,0,0-.159.079l-1.343,4.033A.125.125,0,0,0,2088.2,1142.076Z" transform="translate(-2088.113 -1137.798)" fill="#f1a34f"/>
        <path id="Trazado_106969" data-name="Trazado 106969" d="M2092.043,1143.5l1.6.532a.222.222,0,0,0,.281-.141l1.282-3.85a.222.222,0,0,0-.14-.281l-1.6-.532a.222.222,0,0,0-.281.141l-1.282,3.849A.222.222,0,0,0,2092.043,1143.5Z" transform="translate(-2091.48 -1139.059)" fill="#d86713"/>
      </g>
      <path id="Trazado_106970" data-name="Trazado 106970" d="M2108.1,1157.238s-.362-.748-1.026-.446-.374,1.435.012,1.834a3.9,3.9,0,0,1,.494.579Z" transform="translate(-2081.544 -1136.249)" fill="#ffb27d"/>
      <path id="Trazado_106971" data-name="Trazado 106971" d="M1928.873,1193.113c.426-4.473,1.222-11.095,1.9-16.562a3.8,3.8,0,0,1,1.153-.613S1935.694,1186.842,1928.873,1193.113Z" transform="translate(-1923.059 -1153.379)" fill="#ed7d2b"/>
      <path id="Trazado_106972" data-name="Trazado 106972" d="M1900.187,1092.836a3.942,3.942,0,0,0-2.28,1.431c-.967,1.464-2.608,12.288-3.461,14.144s-1.254,2.658-1.254,2.658a4.7,4.7,0,0,0,2.407,4.575s3.461-6.28,3.912-7.183S1901.414,1094.766,1900.187,1092.836Z" transform="translate(-1891.232 -1079.306)" fill="#f99746"/>
    </g>
  </g>
</svg>
