<svg xmlns="http://www.w3.org/2000/svg" width="117.735" height="160.594" viewBox="0 0 117.735 160.594">
  <g id="Grupo_80410" data-name="Grupo 80410" transform="translate(-304.51 -8274)">
    <g id="Grupo_56170" data-name="Grupo 56170" transform="translate(304.51 8274)">
      <g id="Grupo_56169" data-name="Grupo 56169" transform="translate(0 2.496)">
        <path id="Trazado_107719" data-name="Trazado 107719" d="M848.561,222.052c-.393.97-3.506,2.455-5,2.544a1.187,1.187,0,0,1-.587-.077.869.869,0,0,1-.167-.113c-1.036-.808-2.878-4.533-3.419-6.121-.258-.742-.93-4.417-1.6-8.269-.833-4.808-1.66-9.891-1.66-9.891a6.735,6.735,0,0,1,3.651.717c1.467.926,2.7,3.114,4.014,9.878s3.5,8.345,3.672,8.8c.123.307.784.838,1.062,1.5A1.3,1.3,0,0,1,848.561,222.052Z" transform="translate(-809.741 -177.861)" fill="#fcc7aa"/>
        <path id="Trazado_107720" data-name="Trazado 107720" d="M864.577,225.28c-.622,0-2.276-.122-2.276-.122a1.562,1.562,0,0,0,.334.957c.355.445,3.165,2.538,3.165,2.538s.512.191.574.2a1.115,1.115,0,0,1,.239.748v.018a.477.477,0,0,1-.379.468.5.5,0,0,1-.184.217,7.265,7.265,0,0,1-1.134-.037s-.071.349-.278.427a10.425,10.425,0,0,1-1.684-.108.491.491,0,0,1,.054.265c-.011.156-.332.3-.522.353S859,230.007,859,230.007s-.856-.206-1.641-.481c-.748-.265-1.445-1.312-2.467-1.747-.052-.022-.109-.045-.164-.064-1.111-.39-7.075-1.649-9.691-3.455s-3.5-2.942-3.463-3.685v-.007a.912.912,0,0,1,.3-.518,8.343,8.343,0,0,1,1.949-1.23s2.94-1.819,3.477-1.638h0a13.2,13.2,0,0,1,3.348,2.141c1.758,1.411,3.6,2.9,4.789,3.643s1.717,1.061,2.2.851l0,0a13.745,13.745,0,0,1,2.471-.639,25.253,25.253,0,0,1,3.394.333,21.325,21.325,0,0,0,2.662-.11c.348-.053,1.079.126.84.887S865.2,225.281,864.577,225.28Z" transform="translate(-808.516 -174.023)" fill="#fcc7aa"/>
        <path id="Trazado_107721" data-name="Trazado 107721" d="M864.6,223.1c-.01.028-.015.058-.025.087-.24.757-1.82,1-2.439,1s-2.276-.122-2.276-.122a1.555,1.555,0,0,0,.07.457,1.616,1.616,0,0,0,.265.5c.355.445,3.165,2.538,3.165,2.538s.512.191.574.2a1.115,1.115,0,0,1,.239.748v.018a.477.477,0,0,1-.379.468.5.5,0,0,1-.184.217,7.265,7.265,0,0,1-1.134-.037s-.071.349-.278.427a10.425,10.425,0,0,1-1.684-.108.491.491,0,0,1,.054.265c-.011.156-.332.3-.522.353s-3.482-1.193-3.482-1.193-.856-.206-1.641-.481c-.748-.265-1.445-1.312-2.467-1.747-.048-.965.109-2.153.567-2.451.643-.421,2.092-1.447,2.182-1.51l0,0a13.745,13.745,0,0,1,2.471-.639,25.253,25.253,0,0,1,3.394.333,21.325,21.325,0,0,0,2.662-.11C864.064,222.249,864.753,222.408,864.6,223.1Z" transform="translate(-806.072 -172.923)" fill="#fcc7aa"/>
        <path id="Trazado_107722" data-name="Trazado 107722" d="M863.875,232.775a.491.491,0,0,1,.054.265c-.011.156-.332.3-.522.353s-3.482-1.193-3.482-1.193-.856-.206-1.641-.481-1.519-1.426-2.631-1.81-7.075-1.649-9.691-3.455-3.5-2.942-3.463-3.685v-.007c-1.036-.808-2.878-4.533-3.419-6.121-.258-.742-.93-4.417-1.6-8.269.317-.592.511-.946.511-.946s1.5-.082,2.224,3.31.459,5.652.87,7.643a13.551,13.551,0,0,0,1.709,3.865c.16.257.313.5.454.708a9.239,9.239,0,0,0,.583.781,12.206,12.206,0,0,0,4.707,3.451,50.261,50.261,0,0,0,6.741,2.09c.341.074.241-.448.265-.748.021-.282.744-.925.835-1a2.415,2.415,0,0,0-.277,1.3,1.99,1.99,0,0,0,.5,1.038,9.242,9.242,0,0,0,1.826,1.449c.675.3,4.377,1.7,4.745,1.753A.9.9,0,0,0,863.875,232.775Z" transform="translate(-809.436 -176.215)" fill="#fad3be" style="mix-blend-mode: multiply;isolation: isolate"/>
        <path id="Trazado_107723" data-name="Trazado 107723" d="M863.082,227.682a.477.477,0,0,1-.379.468.5.5,0,0,1-.184.217,7.265,7.265,0,0,1-1.134-.037s-.071.349-.278.427a10.425,10.425,0,0,1-1.684-.108,6.053,6.053,0,0,0-.593-.6c-.222-.173-1.557-.817-1.557-.817l.385.043s1.619.838,1.906.937a4.54,4.54,0,0,0,1.264.341c.3-.022.494-.41.494-.41s.087-.321-.348-.54-1.716-.732-1.716-.732l-1.1-.582.779.214,2.327,1.028s.391.4.365.543.621.184.8.075-.132-.712-.132-.712l-.581-.322-2.271-1.225.056-.119s2.386,1.341,2.491,1.383.665.326.7.492C862.711,227.755,862.845,227.809,863.082,227.682Z" transform="translate(-804.985 -172.09)" fill="#fad3be" style="mix-blend-mode: multiply;isolation: isolate"/>
        <path id="Trazado_107724" data-name="Trazado 107724" d="M863.34,222.907c-.01.028-.015.058-.025.087-.24.757-1.82,1-2.439,1s-2.276-.122-2.276-.122a1.555,1.555,0,0,0,.07.457,7.671,7.671,0,0,1-.568-.822.73.73,0,0,1-.064-.437,4.729,4.729,0,0,0,2.082.42,6.422,6.422,0,0,0,3.2-.57Z" transform="translate(-804.815 -172.733)" fill="#fad3be" style="mix-blend-mode: multiply;isolation: isolate"/>
        <path id="Trazado_107725" data-name="Trazado 107725" d="M836.838,277.112a4.671,4.671,0,0,1,3.284,1.365c1.749,1.529,3.918,4.922,3.931,6.415s-2.567,1.919-3.681,1.867-3.9-2.342-4.939-3.756-1.251-1.957-2.2-2.5-3.05-1.285-3.5-2a3.316,3.316,0,0,1,.45-3.182C830.854,274.458,836.838,277.112,836.838,277.112Z" transform="translate(-811.235 -160.983)" fill="#524b45"/>
        <path id="Trazado_107726" data-name="Trazado 107726" d="M828.473,280.763a10.736,10.736,0,0,1,3.538,2.129c1.807,1.595,5.432,5.036,5.512,5.632s.289.7-.1,1.358-1.939,1.409-4.6,1.334-4.488-1.89-5.892-3.051-3.693-2.544-4.165-2.891a8.8,8.8,0,0,1-1.618-1.612,4.127,4.127,0,0,1,.85-3.386C822.747,279.651,828.473,280.763,828.473,280.763Z" transform="translate(-813.137 -159.873)" fill="#524b45"/>
        <path id="Trazado_107727" data-name="Trazado 107727" d="M829.794,277.007a2.787,2.787,0,0,0-.138,1.853c.337.74.327.872,1.008,1.307s2.624.643,3.079,1.205,2.771,2.816,3.674,3.629,3.024,1.935,4.38,1.665,2.163-.677,2.379-1.064-.38-2.223-.38-2.223Z" transform="translate(-811.224 -160.565)" fill="#524b45"/>
        <path id="Trazado_107728" data-name="Trazado 107728" d="M837.2,288.169s.868.469.726.893-.554,1.356-2.9,2.02a9.069,9.069,0,0,1-5.654-.424c-.963-.414-3.584-3.158-4.283-3.769-.289-.254-.886-.467-1.459-.855a19.268,19.268,0,0,0-1.8-1.127,3.058,3.058,0,0,1-.708-1.857c.042-.556,6.118.023,6.118.023Z" transform="translate(-813.117 -159.26)" fill="#524b45"/>
        <path id="Trazado_107729" data-name="Trazado 107729" d="M827.566,290.891a6.2,6.2,0,0,1-3.959-1.358v0a4.036,4.036,0,0,1-1.643-2.457c.055-.741.816-2.783.837-3.061s-2.789-10.692-3.011-13.318,2.1-15.038,2.1-15.038l6.976,3.337s-.378,5.489-.752,10.379c-.124,1.65-.249,3.232-.364,4.51-.442,5.063.752,11.117.731,11.4s2.93,2.549,3,2.834S831.442,290.9,827.566,290.891Z" transform="translate(-813.418 -165.368)" fill="#fcc7aa"/>
        <path id="Trazado_107730" data-name="Trazado 107730" d="M838.994,283.391c.007.511-1.2,1.633-2.588,1.622s-3.707-1.583-4.149-1.851c-.169-.1-.543-.334-.938-.614-.659-.463-1.376-1.055-1.311-1.369a11.79,11.79,0,0,0,.639-3.307c-.034-1.445-1.278-8.436-1.672-12.521-.2-2.063,1.38-5.056,3-7.52a48.343,48.343,0,0,1,3.2-4.319l.789,3.541,1.406,6.316-.021.274c-.086,1.1-.414,5.327-.7,9.052-.2,2.68-.382,5.1-.425,5.919C836.116,280.753,838.988,282.877,838.994,283.391Z" transform="translate(-811.354 -165.849)" fill="#fcc7aa"/>
        <path id="Trazado_107731" data-name="Trazado 107731" d="M837.369,262.719l-.021.274c-.086,1.1-.414,5.327-.7,9.052a12.865,12.865,0,0,1-4.41,1.287s.142,6.163-.147,6.931c-.163.429-.528.982-.778,1.635-.659-.463-1.376-1.055-1.311-1.369a11.79,11.79,0,0,0,.639-3.307c-.034-1.445-1.278-8.436-1.672-12.521-.2-2.063,1.38-5.056,3-7.52,1.213-.263,2.6-.554,3.991-.778Z" transform="translate(-811.354 -165.199)" fill="#fad3be" style="mix-blend-mode: multiply;isolation: isolate"/>
        <path id="Trazado_107732" data-name="Trazado 107732" d="M828.119,269.369a7.258,7.258,0,0,1-2.071.53,47.727,47.727,0,0,1-5.234-.392s.408,5.951,1.433,8.638,1.846,7.31,2.048,7.7-.393,1.559-.393,1.559l.459.638a2.724,2.724,0,0,0-.752,1.487,4.036,4.036,0,0,1-1.643-2.457c.055-.741.816-2.783.837-3.061s-2.789-10.692-3.011-13.318,2.1-15.038,2.1-15.038l6.976,3.337S828.492,264.479,828.119,269.369Z" transform="translate(-813.418 -165.368)" fill="#fad3be" style="mix-blend-mode: multiply;isolation: isolate"/>
        <path id="Trazado_107733" data-name="Trazado 107733" d="M821.7,195.4l-.931,2.167s-1.573,3.89-2.222,5.706-.441,7.144-.541,7.229,12.184-8.361,12.256-12.132a15.624,15.624,0,0,0-.614-5.5l-4.157-1.1S822.884,188.892,821.7,195.4Z" transform="translate(-813.817 -179.879)" fill="#4a2727"/>
        <path id="Trazado_107734" data-name="Trazado 107734" d="M849.913,268.987c-.059.078-.121.167-.187.262a4.845,4.845,0,0,0-.495,1.968c-.151,1.372-.209,2.948-.777,3.506a2.313,2.313,0,0,1-1.93.545c-.527-.039-1.1-.145-1.684-.208-1.41-.153-1.831.494-1.837.583,0,.048.114.966.216,1.943a.167.167,0,0,1,0,.023,14.14,14.14,0,0,1,.124,2.186c-.1.712-1.63,1.857-4.851,1.594-2.9-.236-2.324-.427-3.838-1.078-.165-.072-.358-.149-.583-.234a5.583,5.583,0,0,0-2.611-.415c-.829.072-1.672.319-2.966.512a10.44,10.44,0,0,1-5.327-.4c-1.3-.448-.7-.031-2.135-.16a3,3,0,0,1-.909-.217,1.32,1.32,0,0,1-.767-.7s-.277-19.66-.507-26.529.939-11.3,1.317-15.093c.3-3.019,1.115-3.843,1.562-5.129a5.217,5.217,0,0,0,.26-1.121c.247-2.122-2.56-6.24-4.956-11.589l0-.012c-2.395-5.354-.734-12.2-.127-12.841a36.641,36.641,0,0,1,5.455-4.375,32.653,32.653,0,0,1,5.288-2.959,45.979,45.979,0,0,1,7.441-.654,39.177,39.177,0,0,1,7.124,1.9A24.559,24.559,0,0,1,844,205.026c.294,1.7,1.122,8.659,1.24,11.464s-1.154,4.8-1.2,5.409-.464,1.221-.414,7.376c2.766,5.381,4.119,7.861,4.917,15.281s2.1,21.992,2.18,22.815C850.8,268.119,850.535,268.143,849.913,268.987Z" transform="translate(-814.318 -178.251)" fill="#f90"/>
        <path id="Trazado_107735" data-name="Trazado 107735" d="M832.576,214.863l-7.171.756-.538-4.5,7.169-.757Z" transform="translate(-812.274 -175.555)" fill="#fff"/>
        <path id="Trazado_107736" data-name="Trazado 107736" d="M833.694,204.087l0,.018c-.009.066-.017.133-.026.2-.011.051-.02.107-.031.162a2.679,2.679,0,0,1-2.465,2.544c-3.208.225-8.011-4.141-7.874-4.389a15.845,15.845,0,0,0,1.8-3.846,11.039,11.039,0,0,0-.26-4c5.244-8.485,7.183.664,7.653,1.692.026.054.046.085.065.091.342.118,1.147,2.416,1.147,2.416s-.015,3.026-.026,3.166A9.463,9.463,0,0,1,833.694,204.087Z" transform="translate(-812.627 -179.862)" fill="#fcc7aa"/>
        <path id="Trazado_107737" data-name="Trazado 107737" d="M816.69,204.919l0,0v0Z" transform="translate(-814.113 -176.778)" fill="#f5d9a9"/>
        <path id="Trazado_107738" data-name="Trazado 107738" d="M825.965,251.543l-.366-.638a1.382,1.382,0,0,1,.207.22A.608.608,0,0,1,825.965,251.543Z" transform="translate(-812.109 -166.436)" fill="#f5d9a9"/>
        <path id="Trazado_107739" data-name="Trazado 107739" d="M831.757,201.947c0-.015.006-.029.011-.044-.011.051-.02.107-.031.162A.72.72,0,0,1,831.757,201.947Z" transform="translate(-810.728 -177.457)" fill="#f5d9a9"/>
        <path id="Trazado_107740" data-name="Trazado 107740" d="M849.354,263.313c-.059.078-.121.167-.187.262a4.845,4.845,0,0,0-.495,1.968c-.151,1.372-.209,2.948-.777,3.506a2.313,2.313,0,0,1-1.93.545c-.527-.039-1.1-.145-1.684-.208-1.41-.153-1.831.494-1.837.583,0,.04.081.708.169,1.507.016.142.032.289.047.436a.167.167,0,0,1,0,.023,14.14,14.14,0,0,1,.124,2.186c-.1.712-1.63,1.857-4.851,1.594-2.9-.236-2.324-.427-3.838-1.078-.165-.072-.358-.149-.583-.234a5.583,5.583,0,0,0-2.612-.415c-.829.072-1.672.319-2.965.512a10.44,10.44,0,0,1-5.327-.4c-1.3-.448-.7-.031-2.135-.16a3,3,0,0,1-.909-.217,1.32,1.32,0,0,1-.767-.7s-.277-19.66-.507-26.529.939-11.3,1.317-15.093c.3-3.019,1.115-3.843,1.562-5.129,3.984,1.171,9.314,3.863,16.141,2.324s5.761-4.993,5.761-4.993c2.766,5.381,4.119,7.861,4.917,15.281s2.1,21.992,2.18,22.815C850.243,262.444,849.976,262.469,849.354,263.313Z" transform="translate(-813.759 -172.577)" fill="#f57200"/>
        <path id="Trazado_107741" data-name="Trazado 107741" d="M831.563,263.756c.114,2.32.208,4.19.274,5.545-.165-.072-.358-.149-.583-.234a5.582,5.582,0,0,0-2.612-.415s-.448-13.582-.311-15.413.38-5.914.38-5.914S831.31,258.581,831.563,263.756Z" transform="translate(-811.5 -167.241)" fill="#ebb249" style="mix-blend-mode: multiply;isolation: isolate"/>
        <path id="Trazado_107742" data-name="Trazado 107742" d="M838.888,248.428c.538,2.888,2.754,15.309,3.068,18.527-.527-.039-1.1-.145-1.684-.208-1.41-.153-1.831.494-1.837.583,0,.048.114.966.216,1.943a107.024,107.024,0,0,1-1.243-13.5c-.191-7.117-1.257-19.663-1.322-20.44C836.239,236.009,838.331,245.453,838.888,248.428Z" transform="translate(-809.751 -169.938)" fill="#ebb249" style="mix-blend-mode: multiply;isolation: isolate"/>
        <path id="Trazado_107743" data-name="Trazado 107743" d="M844.035,259.134c-.059.078-.121.167-.187.262a4.845,4.845,0,0,0-.495,1.968l-1.444-19.185C841.96,242.628,843.469,254.984,844.035,259.134Z" transform="translate(-808.441 -168.398)" fill="#ebb249" style="mix-blend-mode: multiply;isolation: isolate"/>
        <path id="Trazado_107744" data-name="Trazado 107744" d="M827.329,258.623s.747,2.915.3,3.318a8.145,8.145,0,0,1-3.038.951,3.376,3.376,0,0,1-1.576-.119c-.45-.219-1.15-1.857-1.15-1.857l-1.079-.318-.5-2.376s-.325,15.135-.379,17.494c0,.261-.01.524-.007.79a1.32,1.32,0,0,1-.767-.7s-.277-19.66-.507-26.529.939-11.3,1.317-15.093,1.564-4.122,1.821-6.249-2.56-6.24-4.956-11.589l5.01-5.105,2.267,3.711s-1.3,4.026.032,6.2,4.963,2.318,4.963,2.318-3.892,2.191-4.427,4.515-2.391,11.314-2.643,13.037,2.074,7.549,2.074,7.549,3.871,4.871,3.573,5.609A26.874,26.874,0,0,0,827.329,258.623Z" transform="translate(-814.088 -175.358)" fill="#ebb249" style="mix-blend-mode: multiply;isolation: isolate"/>
        <path id="Trazado_107745" data-name="Trazado 107745" d="M828.442,261.893c-.02.17-.178.282-.379.334a3.351,3.351,0,0,1-.366.061l-.023,0c-.007,0-.015,0-.026,0-.592.076-1.531.14-1.531.14a3.263,3.263,0,0,1-.549.145,5.279,5.279,0,0,1-1.41-.478l-.567.1a3.8,3.8,0,0,1-.666-.554l0,0a2.553,2.553,0,0,1-.262-.329A21.872,21.872,0,0,1,820.79,257a37.545,37.545,0,0,1,.145-3.833c.047-1.208-3.517-9.631-4.352-13.423s-.322-4.4-.87-7.052a102.683,102.683,0,0,1-1-19.6c.339-5.022,1.514-7.081,2.107-7.816l0,0a1.918,1.918,0,0,1,.336-.344h0l.007-.01c4.642-.551,6.2,7.074,6.069,8.462s-.854,5.834-1.145,10.663a114.446,114.446,0,0,0,.54,14.248c.239,3.328,1.82,12.089,2.038,12.9a7.646,7.646,0,0,0,1.564,2.469,21.8,21.8,0,0,1,1.614,2.686s.135,3.179-.25,3.337c-.366.152-1.068-.229-1.135-.268l-.007,0,.713,1.38.336.141a1.562,1.562,0,0,1,.555.317l.014.009a1.379,1.379,0,0,1,.207.22A.608.608,0,0,1,828.442,261.893Z" transform="translate(-814.586 -176.785)" fill="#fcc7aa"/>
        <path id="Trazado_107746" data-name="Trazado 107746" d="M821.125,257.486a30.014,30.014,0,0,0,1.8,4.143,2.553,2.553,0,0,1-.262-.329,21.872,21.872,0,0,1-1.869-4.312,37.545,37.545,0,0,1,.145-3.833c.047-1.208-3.517-9.631-4.352-13.423s-.322-4.4-.87-7.052a102.683,102.683,0,0,1-1-19.6c.339-5.022,1.514-7.081,2.107-7.816l0,0c.157-.16.262-.267.315-.32-.185.225-1.165,1.621-1.721,6.795a93.186,93.186,0,0,0,.594,20.686c.959,7.111,2.738,11.389,4.031,15.871s1.412,4.781,1.311,6.137S821.186,257.077,821.125,257.486Z" transform="translate(-814.586 -176.774)" fill="#fad3be" style="mix-blend-mode: multiply;isolation: isolate"/>
        <path id="Trazado_107747" data-name="Trazado 107747" d="M821.572,249.857l1.135,2.273-.567.1-1.1-3.02Z" transform="translate(-813.134 -166.817)" fill="#fad3be" style="mix-blend-mode: multiply;isolation: isolate"/>
        <path id="Trazado_107748" data-name="Trazado 107748" d="M823.984,252.211s1.65.124,1.957.1c-.592.076-1.531.14-1.531.14a3.263,3.263,0,0,1-.549.145l-1.684-3.339a5.812,5.812,0,0,1,.841.9C823.031,250.3,823.984,252.211,823.984,252.211Z" transform="translate(-812.879 -166.806)" fill="#fad3be" style="mix-blend-mode: multiply;isolation: isolate"/>
        <path id="Trazado_107749" data-name="Trazado 107749" d="M825.41,251.579a1.562,1.562,0,0,1,.555.317l-1.086-.334-.813-1.575a21.125,21.125,0,0,1-.109-3.526s.483,1.621.592,2.352a2.072,2.072,0,0,1-.186,1.246l.713,1.38Z" transform="translate(-812.488 -167.435)" fill="#fad3be" style="mix-blend-mode: multiply;isolation: isolate"/>
        <path id="Trazado_107750" data-name="Trazado 107750" d="M833.076,203.12a6.114,6.114,0,0,0-.648-2.3,8.723,8.723,0,0,1-3.235-.619,7.372,7.372,0,0,1-3.149-2.738s3.138-1.085,5.831-1.952c.026.054.046.085.065.091.342.118,1.147,2.416,1.147,2.416s-.015,3.026-.026,3.166A9.463,9.463,0,0,1,833.076,203.12Z" transform="translate(-812.009 -178.895)" fill="#fad3be" style="mix-blend-mode: multiply;isolation: isolate"/>
        <path id="Trazado_107751" data-name="Trazado 107751" d="M836.372,197.918c-.85,2.94-.671,3.931-2.243,4.559s-6.679-1.806-7.59-2.408-2.261-4.339-2.594-7.043.018-7.108,3.431-8.459a7.593,7.593,0,0,1,5.79-.2,5.75,5.75,0,0,1,2.956,3.485,15.1,15.1,0,0,1,.6,2.311c.255,1.384.217,2.291.289,2.58a4.316,4.316,0,0,1,.069.936A16.26,16.26,0,0,1,836.372,197.918Z" transform="translate(-812.503 -181.503)" fill="#fcc7aa"/>
        <path id="Trazado_107752" data-name="Trazado 107752" d="M833.748,186.591s-.191-.247-2.409.752a8.159,8.159,0,0,0-5.092,7.634c-.023.931-.083,2.044-.091,2.137s-.257-1.535-.257-1.535-1.023-1.964-1.416-1.97-.9,2.1-.948,2.725-2.409,4.177-2.409,4.177l-.866-.881s.539-6.577,1.352-10.594,2.643-5.417,4-6.365a3.567,3.567,0,0,1,2.921-.434s.442-.619,2.311-.06a13.682,13.682,0,0,1,4.791,2.62c1.091.966,1.3,3.5,1.3,3.5s-1.145-1.81-1.891-1.819A6.132,6.132,0,0,0,833.748,186.591Z" transform="translate(-813.31 -181.945)" fill="#4a2727"/>
        <path id="Trazado_107753" data-name="Trazado 107753" d="M825.127,194.778s.179,1.147-.571.982-1.556-.8-1.515-1.341a20.63,20.63,0,0,1,.361-2.738.726.726,0,0,1,.527-.315l.72,1.011a8.35,8.35,0,0,1,.3.834A7.552,7.552,0,0,1,825.127,194.778Z" transform="translate(-812.685 -179.826)" fill="#ffd6bf"/>
        <path id="Trazado_107754" data-name="Trazado 107754" d="M833.1,186.255a18.344,18.344,0,0,1,.818,3.169c.176,1.379.393,1.4.176,1.379s-1.848-.2-2.564-.191-3.266.719-3.607,1.283a2.726,2.726,0,0,0,.97,2.745c.759.3,2.839.74,2.859.9s-.182,1.6-1.049,1.957a6.228,6.228,0,0,1-2.669-.029,17.292,17.292,0,0,0-1.7-2.547c-.386-.251-.547-.973-.655-2.449s1.366-3.312,2.609-4.151S830.21,186.319,833.1,186.255Z" transform="translate(-812.092 -180.976)" fill="#ffd6bf"/>
        <path id="Trazado_107755" data-name="Trazado 107755" d="M831.96,189.479l.975,3.987a13.86,13.86,0,0,0-1.053,1.412c-.131.3.358.415.4.419s1.722.238,1.83-.174a11.776,11.776,0,0,0-.838-2.706l-.571-2.34Z" transform="translate(-810.701 -180.251)" fill="#ffd6bf"/>
      </g>
      <path id="Trazado_107756" data-name="Trazado 107756" d="M836.791,192.662l-1.02-.086-.473.247s-1.519.935-2.473,1.42a5.152,5.152,0,0,1-3.915-.4,41.93,41.93,0,0,1-3.762-2.734s8.885-2.183,10.424-2.589a2.113,2.113,0,0,1,.656-.071h0s.088.287.2.7c.255,1.384.217,2.291.289,2.58A4.318,4.318,0,0,1,836.791,192.662Z" transform="translate(-812.21 -177.987)" fill="#fad3be" style="mix-blend-mode: multiply;isolation: isolate"/>
      <path id="Trazado_107757" data-name="Trazado 107757" d="M825.664,192.44a15.657,15.657,0,0,1-3.105.524,3.346,3.346,0,0,0-1.518.219,25.758,25.758,0,0,1-.642-6.221,7.384,7.384,0,0,1,5.146-6.482c2.634-.79,5.081-.955,7.256.761a17.267,17.267,0,0,1,3.95,5.075c.126.293.622,1.837.622,1.837S829.445,193.348,825.664,192.44Z" transform="translate(-813.281 -179.907)" fill="#f90"/>
      <path id="Trazado_107758" data-name="Trazado 107758" d="M835.725,186.257s-4.684,1.038-6.64,2.209-4.614,2.616-4.614,2.616a17.862,17.862,0,0,0,5.739,2.54c2.692.464,4.816-1.126,6.463-2.3a5.191,5.191,0,0,1,4-1.087c.663.223,1.189.86,1.46.643a.34.34,0,0,0,.05-.49l-5.81-3.915Z" transform="translate(-812.363 -178.479)" fill="#e86d00"/>
    </g>
    <g id="Grupo_56187" data-name="Grupo 56187" transform="translate(314.817 8324.321)">
      <g id="Grupo_56186" data-name="Grupo 56186">
        <g id="Grupo_56180" data-name="Grupo 56180">
          <g id="Grupo_56179" data-name="Grupo 56179">
            <g id="Grupo_56178" data-name="Grupo 56178">
              <g id="Grupo_56171" data-name="Grupo 56171" transform="translate(0.846)">
                <path id="Trazado_107760" data-name="Trazado 107760" d="M920.06,236.323v47.1l-71.838,42.2V278.527Z" transform="translate(-818.173 -217.54)" fill="#e6e6e6"/>
                <path id="Trazado_107761" data-name="Trazado 107761" d="M921.3,239.849v1.888l-71.838,41.808L842.7,252.8Z" transform="translate(-819.415 -216.747)" fill="#9da4b0"/>
                <path id="Trazado_107762" data-name="Trazado 107762" d="M823.7,256.555v47.1l30.036,17.421V273.977Z" transform="translate(-823.688 -212.99)" fill="#969696"/>
                <path id="Trazado_107763" data-name="Trazado 107763" d="M893.512,254.965l-40.03,23.288-28.646-18.228.979-.569,1.429-.831,36.227-21.078Z" transform="translate(-823.433 -217.265)" fill="#f2d49c"/>
                <path id="Trazado_107764" data-name="Trazado 107764" d="M853.732,273.068v5.917L823.691,261.56v-5.917l2.407.821,6.325-3.676Z" transform="translate(-823.691 -213.837)" fill="#954f1d"/>
                <path id="Trazado_107765" data-name="Trazado 107765" d="M823.692,262.787l30.033,17.44,71.853-41.816-30.033-17.422-46.557,27.082-1.372.808-10.468,6.089-2.086,1.222L826.1,261.4l-1.428.827Z" transform="translate(-823.691 -220.989)" fill="#e3ae71"/>
                <path id="Trazado_107766" data-name="Trazado 107766" d="M870.01,258.3H864.6l-3.824-2.006-1.022.159,1.173,1.042-1.679.606s-10.817-5.268-10.763-5.239S860.475,246,860.475,246l8.484.018Z" transform="translate(-818.115 -215.364)" fill="#954f1d"/>
                <path id="Trazado_107767" data-name="Trazado 107767" d="M848.216,277.021v5.917l71.846-41.809v-5.917Z" transform="translate(-818.175 -217.79)" fill="#bf8649"/>
              </g>
              <g id="Grupo_56172" data-name="Grupo 56172" transform="translate(30.894 60.95)">
                <path id="Trazado_107768" data-name="Trazado 107768" d="M920.336,271.152v5.588L848.93,318.292V312.71Z" transform="translate(-848.063 -270.657)" fill="#bf8649"/>
                <path id="Trazado_107769" data-name="Trazado 107769" d="M849.086,305.172v5.578l-.864-.5v-5.578Z" transform="translate(-848.222 -263.118)" fill="#954f1d"/>
                <path id="Trazado_107770" data-name="Trazado 107770" d="M849.086,312.8,920.5,271.248l-.865-.5L848.222,312.3Z" transform="translate(-848.222 -270.748)" fill="#e3ae71"/>
              </g>
              <g id="Grupo_56173" data-name="Grupo 56173" transform="translate(30.894 47.521)">
                <path id="Trazado_107771" data-name="Trazado 107771" d="M920.336,260.189v5.588L848.93,307.329v-5.582Z" transform="translate(-848.063 -259.694)" fill="#bf8649"/>
                <path id="Trazado_107772" data-name="Trazado 107772" d="M849.086,294.209v5.578l-.864-.5v-5.578Z" transform="translate(-848.222 -252.155)" fill="#954f1d"/>
                <path id="Trazado_107773" data-name="Trazado 107773" d="M849.086,301.839,920.5,260.285l-.865-.5-71.409,41.554Z" transform="translate(-848.222 -259.785)" fill="#e3ae71"/>
              </g>
              <g id="Grupo_56177" data-name="Grupo 56177" transform="translate(0 34.093)">
                <path id="Trazado_107774" data-name="Trazado 107774" d="M920.336,249.226v5.588L848.93,296.366v-5.582Z" transform="translate(-817.169 -248.731)" fill="#bf8649"/>
                <path id="Trazado_107775" data-name="Trazado 107775" d="M849.086,283.247v5.578l-.864-.5v-5.578Z" transform="translate(-817.328 -241.192)" fill="#954f1d"/>
                <g id="Grupo_56174" data-name="Grupo 56174" transform="translate(0 50.885)">
                  <path id="Trazado_107776" data-name="Trazado 107776" d="M823,290.768v5.588l30.894,18.026V308.8Z" transform="translate(-823 -290.273)" fill="#954f1d"/>
                  <path id="Trazado_107777" data-name="Trazado 107777" d="M848.224,305.582v5.578l.864-.5v-5.578Z" transform="translate(-817.327 -287.054)" fill="#bf8649"/>
                  <path id="Trazado_107778" data-name="Trazado 107778" d="M853.9,308.892,823,290.865l.864-.5,30.9,18.028Z" transform="translate(-823 -290.364)" fill="#e3ae71"/>
                </g>
                <g id="Grupo_56175" data-name="Grupo 56175" transform="translate(0 37.457)">
                  <path id="Trazado_107779" data-name="Trazado 107779" d="M823,279.805v5.588l30.894,18.026v-5.582Z" transform="translate(-823 -279.311)" fill="#954f1d"/>
                  <path id="Trazado_107780" data-name="Trazado 107780" d="M848.224,294.62V300.2l.864-.5v-5.578Z" transform="translate(-817.327 -276.091)" fill="#bf8649"/>
                  <path id="Trazado_107781" data-name="Trazado 107781" d="M853.9,297.93,823,279.9l.864-.5,30.9,18.028Z" transform="translate(-823 -279.401)" fill="#e3ae71"/>
                </g>
                <g id="Grupo_56176" data-name="Grupo 56176" transform="translate(0 24.028)">
                  <path id="Trazado_107782" data-name="Trazado 107782" d="M823,268.843v5.588l30.894,18.026v-5.582Z" transform="translate(-823 -268.348)" fill="#954f1d"/>
                  <path id="Trazado_107783" data-name="Trazado 107783" d="M848.224,283.657v5.578l.864-.5v-5.578Z" transform="translate(-817.327 -265.129)" fill="#bf8649"/>
                  <path id="Trazado_107784" data-name="Trazado 107784" d="M853.9,286.967,823,268.939l.864-.5,30.9,18.028Z" transform="translate(-823 -268.439)" fill="#e3ae71"/>
                </g>
                <path id="Trazado_107785" data-name="Trazado 107785" d="M849.086,290.876,920.5,249.323l-.865-.5-71.409,41.554Z" transform="translate(-817.328 -248.822)" fill="#e3ae71"/>
              </g>
            </g>
            <path id="Trazado_107786" data-name="Trazado 107786" d="M847.258,247.872h-.164a.311.311,0,0,1-.078-.007C847.094,247.865,847.173,247.865,847.258,247.872Z" transform="translate(-817.599 -214.945)" fill="#fff"/>
          </g>
        </g>
        <g id="Grupo_56185" data-name="Grupo 56185" transform="translate(43.969 17.422)">
          <g id="Grupo_56184" data-name="Grupo 56184">
            <path id="Trazado_107787" data-name="Trazado 107787" d="M879.046,250.18v2.357l-11.4,6.583V257.78c0-1.388-.385-1.547-1.084-2.7a7.463,7.463,0,0,0-2.179-2.3l-5.489-3.741.783-.452,10.615-6.131,6.368,3.736.244.23c.154.147.3.3.441.457a6.709,6.709,0,0,1,.964,1.416C878.79,249.234,879.046,249.105,879.046,250.18Z" transform="translate(-858.896 -233.583)" fill="#484c52"/>
            <path id="Trazado_107788" data-name="Trazado 107788" d="M877.638,249.107v2.357l-11.4,6.583v-1.339c0-1.388-.385-1.547-1.084-2.7l11.747-6.782C877.382,248.162,877.638,248.033,877.638,249.107Z" transform="translate(-857.488 -232.51)" fill="#3d3e47"/>
            <path id="Trazado_107789" data-name="Trazado 107789" d="M877.218,246.867l-10.342,5.964-7.325-4.257,10.614-6.131,6.368,3.736.244.23C876.931,246.557,877.081,246.709,877.218,246.867Z" transform="translate(-858.749 -233.586)" fill="#1a1b1b"/>
            <g id="Grupo_56181" data-name="Grupo 56181" transform="translate(3.946 12.701)">
              <path id="Trazado_107790" data-name="Trazado 107790" d="M865.6,246v1.239l-2.126,1.239V247.24Z" transform="translate(-861.811 -245.487)" fill="#2b3434"/>
              <path id="Trazado_107791" data-name="Trazado 107791" d="M865.758,246.113l-.921-.532-2.126,1.239.92.532Z" transform="translate(-861.984 -245.581)" fill="#1a1b1b"/>
              <path id="Trazado_107792" data-name="Trazado 107792" d="M862.864,246.578l-.746.807,1.667.964V247.11Z" transform="translate(-862.117 -245.357)" fill="#0c0d0d"/>
            </g>
            <path id="Trazado_107793" data-name="Trazado 107793" d="M865.526,251.783l-.218-.2-6.4-3.762v5.034l8.755,5.043v-2.359C867.664,253.667,866.89,253.058,865.526,251.783Z" transform="translate(-858.893 -232.378)" fill="#070707"/>
            <g id="Grupo_56182" data-name="Grupo 56182" transform="translate(1.277)">
              <path id="Trazado_107794" data-name="Trazado 107794" d="M859.939,243.178l12.867-7.422,1.287-.543-12.867,7.422Z" transform="translate(-859.939 -235.212)" fill="#484c52"/>
              <path id="Trazado_107795" data-name="Trazado 107795" d="M859.939,241.815l6.019,11.956,1.35-.372-6.083-12.127Z" transform="translate(-859.939 -233.85)" fill="#070707"/>
              <path id="Trazado_107796" data-name="Trazado 107796" d="M879.941,247.337l-7.511,4.334-5.359,3.091-6.081-12.128,8.529-4.921,4.337-2.5Z" transform="translate(-859.703 -235.212)" fill="#4b4c59"/>
              <path id="Trazado_107797" data-name="Trazado 107797" d="M872.43,251.212l-5.359,3.091-6.081-12.128,8.529-4.921Z" transform="translate(-859.703 -234.753)" fill="#616273"/>
              <path id="Trazado_107798" data-name="Trazado 107798" d="M878.323,246.665l-6.637,3.83-4.431,2.555L862.1,242.777l7.114-4.106,3.954-2.279Z" transform="translate(-859.452 -234.947)" fill="#8198ed"/>
              <path id="Trazado_107799" data-name="Trazado 107799" d="M871.436,249.813l-4.235,2.443-4.925-9.82,6.8-3.924Z" transform="translate(-859.413 -234.47)" fill="#9bbefa"/>
              <path id="Trazado_107800" data-name="Trazado 107800" d="M872.245,236.393l-.34.2,5.054,10.075-10.729,6.189.1.2,11.069-6.385Z" transform="translate(-858.524 -234.947)" fill="#586074"/>
            </g>
            <path id="Trazado_107801" data-name="Trazado 107801" d="M876.355,246.664h-.439l-5.054-10.075.34-.2Z" transform="translate(-856.205 -234.947)" fill="#070707"/>
            <path id="Trazado_107802" data-name="Trazado 107802" d="M877.111,245.976l-5.788,3.343-4.213,2.431L862.794,243l6.437-3.716,3.56-2.058Z" transform="translate(-858.019 -234.759)" fill="#e7efed"/>
            <g id="Grupo_56183" data-name="Grupo 56183" transform="translate(7.678 5.651)">
              <path id="Trazado_107803" data-name="Trazado 107803" d="M865.164,243.354l2.005,3.917.669-.4-1-1.976s1.064-.181,1.246-.911S867.807,241.3,865.164,243.354Z" transform="translate(-865.164 -239.238)" fill="#10614c"/>
              <path id="Trazado_107804" data-name="Trazado 107804" d="M868.873,246.239l-.757-4.65,3.464,3.039Z" transform="translate(-864.5 -239.43)" fill="#10614c"/>
              <path id="Trazado_107805" data-name="Trazado 107805" d="M869.357,245.269l-.123-.825.7-.488.8.492Z" transform="translate(-864.249 -238.897)" fill="#e7efed"/>
              <path id="Trazado_107806" data-name="Trazado 107806" d="M868.6,241.773l2.8,1.094,1.068,1.577.611-.431-.98-1.541-.065-2.646Z" transform="translate(-864.392 -239.826)" fill="#10614c"/>
            </g>
            <path id="Trazado_107807" data-name="Trazado 107807" d="M871.323,248.941l-4.213,2.431-4.317-8.747,6.437-3.716Z" transform="translate(-858.019 -234.381)" fill="#2e384a" style="mix-blend-mode: screen;isolation: isolate"/>
          </g>
        </g>
      </g>
    </g>
    <g id="Grupo_56188" data-name="Grupo 56188" transform="translate(369.292 8288.954)">
      <path id="Trazado_107808" data-name="Trazado 107808" d="M908.916,304.485a1.477,1.477,0,0,1,1.014.625c.309.538-.087,1.956-.087,1.956a3.749,3.749,0,0,1-2.3,1.213A7.48,7.48,0,0,1,903.1,307.1a25.166,25.166,0,0,1-4.023-3.31,22.256,22.256,0,0,0-3.621-2.261l.574-2.363a26.63,26.63,0,0,1,3.676.365C900.293,299.761,908.916,304.485,908.916,304.485Z" transform="translate(-861.18 -168.038)" fill="#2c2921"/>
      <path id="Trazado_107809" data-name="Trazado 107809" d="M885.1,302.708s-.327-.385-.66.793-.4,2.947.292,3.688a8.1,8.1,0,0,0,4.867,3.04c3.324.881,4.6.883,6.483,1.585s3.225,1.431,5.477.9,2.016-2.341,2.016-2.341.563-1.053.239-1.594-12.509-2.74-12.509-2.74Z" transform="translate(-863.712 -167.256)" fill="#2c2921"/>
      <path id="Trazado_107810" data-name="Trazado 107810" d="M883.1,238.739l-.6.06a26.933,26.933,0,0,0-3.692.554c-.834.293-4.738-.495-5.006-.622a2.612,2.612,0,0,1-.507-.441,10.347,10.347,0,0,1-1.916-2.977c-.078-.179-.153-.364-.227-.561v0c-.029-.071-.057-.146-.082-.219a3.565,3.565,0,0,1-.193-.853c-.2-2.1,1.787-3.231,1.7-3.55-.1-.364.829-.646,1.635-.171s3.617,1.431,3.971,1.966a18.57,18.57,0,0,0,2.3,2.043l.354.65,1.881,3.432Z" transform="translate(-866.709 -183.661)" fill="#fcc7aa"/>
      <path id="Trazado_107811" data-name="Trazado 107811" d="M872.557,230.384c.081.1,1.651,1.082,1.651,1.082l1.717.96.281.752,1.445,2.131.114.653-1.883.828-2.821.781-.3-4.337Z" transform="translate(-866.329 -183.509)" fill="#fad3be" style="mix-blend-mode: multiply;isolation: isolate"/>
      <path id="Trazado_107812" data-name="Trazado 107812" d="M878.728,236.3l-4.523,1.733-6.732-7.439.046-.744,4.621-1.505,6.655,7.425Z" transform="translate(-867.473 -183.968)" fill="#414848"/>
      <path id="Trazado_107813" data-name="Trazado 107813" d="M867.518,229.572l6.645,7.577,4.631-1.657-.066.53-4.523,1.733-6.732-7.439Z" transform="translate(-867.473 -183.691)" fill="#212929"/>
      <path id="Trazado_107814" data-name="Trazado 107814" d="M872.011,228.745l-3.879,1.3,5.832,6.576,3.857-1.371Z" transform="translate(-867.324 -183.877)" fill="#0084d1"/>
      <path id="Trazado_107815" data-name="Trazado 107815" d="M876.172,233.39l-3.934,1.366.8.818L876.9,234.2Z" transform="translate(-866.401 -182.833)" fill="#212929"/>
      <path id="Trazado_107816" data-name="Trazado 107816" d="M872.385,229.846l-2.135.731.67.7,2.148-.751Z" transform="translate(-866.848 -183.63)" fill="#e7efed"/>
      <path id="Trazado_107817" data-name="Trazado 107817" d="M872.034,230.959l-2.135.731,1.366,1.528,2.148-.751Z" transform="translate(-866.927 -183.379)" fill="#e7ef3d"/>
      <path id="Trazado_107818" data-name="Trazado 107818" d="M869.55,229.76l-1.069.313.646.729,1.031-.367Z" transform="translate(-867.246 -183.649)" fill="#e7efed"/>
      <path id="Trazado_107819" data-name="Trazado 107819" d="M870.536,229.42l-1.036.351.613.691,1.031-.367Z" transform="translate(-867.017 -183.725)" fill="#e7a44c"/>
      <path id="Trazado_107820" data-name="Trazado 107820" d="M871.531,229.076l-1.042.343.619.7,1.031-.367Z" transform="translate(-866.795 -183.803)" fill="#72cced"/>
      <path id="Trazado_107821" data-name="Trazado 107821" d="M872.825,230.61l-1.042.343.619.7,1.031-.367Z" transform="translate(-866.504 -183.458)" fill="#e76374"/>
      <path id="Trazado_107822" data-name="Trazado 107822" d="M873.456,231.29l-1.042.343.619.7,1.031-.367Z" transform="translate(-866.362 -183.305)" fill="#e7efed"/>
      <path id="Trazado_107823" data-name="Trazado 107823" d="M870.241,230.52l-1.019.369.626.706,1.031-.367Z" transform="translate(-867.079 -183.478)" fill="#79ef1f"/>
      <path id="Trazado_107824" data-name="Trazado 107824" d="M873.235,232.377l-2.135.731.67.7,2.148-.751Z" transform="translate(-866.657 -183.06)" fill="#e7efed"/>
      <path id="Trazado_107825" data-name="Trazado 107825" d="M873.753,233.042l-1.021.378.6.664,1.031-.367Z" transform="translate(-866.29 -182.911)" fill="#e7efed"/>
      <path id="Trazado_107826" data-name="Trazado 107826" d="M874.532,233.958l-.6.224.354.393.611-.217Z" transform="translate(-866.021 -182.705)" fill="#10614c"/>
      <path id="Trazado_107827" data-name="Trazado 107827" d="M874.744,232.7l-1.016.383.593.659,1.031-.367Z" transform="translate(-866.066 -182.987)" fill="#e7a44c"/>
      <path id="Trazado_107828" data-name="Trazado 107828" d="M874.149,232.033l-1.042.343.619.7,1.031-.367Z" transform="translate(-866.206 -183.138)" fill="#72cced"/>
      <path id="Trazado_107829" data-name="Trazado 107829" d="M872.763,233.4l-1.019.369.626.706,1.032-.367Z" transform="translate(-866.512 -182.83)" fill="#79ef1f"/>
      <path id="Trazado_107830" data-name="Trazado 107830" d="M874.323,237.97a1.061,1.061,0,0,1-.126.168,6.886,6.886,0,0,1-1.676-.568,2.854,2.854,0,0,1-.515-.892l-.306-.038a.185.185,0,0,1-.113-.088.05.05,0,0,0,0-.012,1.771,1.771,0,0,1-.174-.463,1.66,1.66,0,0,1-.686-.51,2.6,2.6,0,0,1-.153-1.034s-1.114-.326-1.319-.692a1.883,1.883,0,0,1-.037-1.207c.061-.258.263-.312.691-.289s.506.639.506.639.441.033.788.076a.163.163,0,0,1,.072.023c.287.137.35.861.276,1.072v0c-.08.227.15.615.15.615l.077-.054.1-.071a1.475,1.475,0,0,1,.771-.2.491.491,0,0,1,.388.641c-.072.223-.581.516-.581.516s.055.063.322.358.768.845.768.845a4.625,4.625,0,0,0,.626.452A.476.476,0,0,1,874.323,237.97Z" transform="translate(-867.099 -183.069)" fill="#fcc7aa"/>
      <path id="Trazado_107831" data-name="Trazado 107831" d="M882.665,237.145c-.04.142-.084.29-.13.441-.032.109-.064.213-.091.311a26.933,26.933,0,0,0-3.692.554c-.834.293-4.738-.495-5.006-.622a6.886,6.886,0,0,1-1.676-.568,2.854,2.854,0,0,1-.515-.892l-.306-.038a.185.185,0,0,1-.113-.088.05.05,0,0,0,0-.012,9.315,9.315,0,0,1,.112-1.765l.258,1.448.536.954,1.2.521.633.273,2.364.294a25.482,25.482,0,0,0,2.632-.075,5.946,5.946,0,0,0,1.167-.533c.018-.021.045-.06.081-.111a4.569,4.569,0,0,0,.682-3.441l-.016-.082Z" transform="translate(-866.649 -182.76)" fill="#fad3be" style="mix-blend-mode: multiply;isolation: isolate"/>
      <path id="Trazado_107832" data-name="Trazado 107832" d="M870.3,232.866l.16,1.548-.693-.258-.112-.606Z" transform="translate(-866.983 -182.95)" fill="#fad3be" style="mix-blend-mode: multiply;isolation: isolate"/>
      <path id="Trazado_107833" data-name="Trazado 107833" d="M892.125,229.96a43.594,43.594,0,0,1-4.287,2.09,26.63,26.63,0,0,0-2.887.25c-2.235.5-5.573,1.509-5.573,1.509a7.993,7.993,0,0,1-.147,3.072,7.4,7.4,0,0,1-1.079,2.654,57.33,57.33,0,0,0,6.733.837c1.784-.038,11.039-2.917,11.039-2.917Z" transform="translate(-865.071 -183.604)" fill="#fafafa"/>
      <path id="Trazado_107834" data-name="Trazado 107834" d="M909.468,301.358a26.361,26.361,0,0,1,.448,2.929l-.225,1.813a4.746,4.746,0,0,1-2.793,1.371c-2.117.454-6.393-3.323-6.947-3.892s-5.363-2.82-5.148-4.042a3.6,3.6,0,0,1,2.983-3.157c2.006-.314,8.709,2.517,8.709,2.517Z" transform="translate(-861.328 -168.671)" fill="#524b45"/>
      <path id="Trazado_107835" data-name="Trazado 107835" d="M908.729,312.515s-.718,2.765-4.491,1.831a9.386,9.386,0,0,1-1.69-.6c-2.634-1.237-3.937-3.408-4.027-4.28-.1-1.044.19-26.013.282-26.751s.639-8.163,1.421-11.437c.141-.6.287-1.523.429-2.645.654-5.017,1.372-13.964,2.417-14.984,1.279-1.246,8.372-4.065,8.372-4.065a25.273,25.273,0,0,1,1.448,9.455c-.293,4.973-3.764,17.841-3.865,19.795s2.208,11.232,1.913,14.006S908.729,312.515,908.729,312.515Z" transform="translate(-860.495 -179.19)" fill="#305b8f"/>
      <path id="Trazado_107836" data-name="Trazado 107836" d="M902.727,309.459c-.062.385-.12.752-.179,1.1-2.634-1.237-3.937-3.408-4.027-4.28-.1-1.044.19-26.013.282-26.751s.639-8.163,1.421-11.437c.141-.6.287-1.523.429-2.645a21.106,21.106,0,0,1,7.478-1.715,30.746,30.746,0,0,1-.333,4.7c-.344,1.774-2.748,2.787-3.609,6.426a46.119,46.119,0,0,0-.976,12.9C903.527,292.014,903.811,302.693,902.727,309.459Z" transform="translate(-860.495 -176.007)" fill="#dedcdb" style="mix-blend-mode: multiply;isolation: isolate"/>
      <path id="Trazado_107837" data-name="Trazado 107837" d="M896.609,302.208l-.123,0c-.588.013-3.126.072-4,.045-1-.029-5.034-1.437-6.176-1.047a3.019,3.019,0,0,0-1.731,2.625c-.2,1.1,1.3,3.627,3.293,4.4s6.948,2.206,8.96,2.675,3.19,1.051,4.807.6a2.944,2.944,0,0,0,2.073-2.615c.007-.561-.5-4.026-.5-4.026Z" transform="translate(-863.63 -167.595)" fill="#524b45"/>
      <path id="Trazado_107838" data-name="Trazado 107838" d="M903.761,290.462c.834,5.348-.456,27.793-.456,27.793s-.954,2.129-5.364.955a9.7,9.7,0,0,1-1.594-.561c-2.815-1.279-2.806-3.223-2.767-3.54.047-.369-2.662-22.808-5.412-38.884s-1.1-19.306-1.1-19.306c.076-.125.156-.25.249-.374,3.982-5.571,20.874-7.166,21.659-6.581s3.01,9.428,2.553,13.1-1.38,6.588-2.746,7.542S902.927,285.114,903.761,290.462Z" transform="translate(-863.175 -179.13)" fill="#34629b"/>
      <path id="Trazado_107839" data-name="Trazado 107839" d="M896.348,317.42c-2.815-1.279-2.806-3.223-2.767-3.54.047-.369-2.662-22.808-5.412-38.884s-1.1-19.306-1.1-19.306c.076-.125.156-.25.249-.374,2.73.343,6.144.965,10.42,1.95a36.085,36.085,0,0,1-1.645,4.947,12.931,12.931,0,0,1-2.338,2.988,9.6,9.6,0,0,0-1.028,2.306c-.353,1.268.087,1.652-.332,2.675s.227,2.118.122,2.48-1.732,1.1-1.732,1.1a6.68,6.68,0,0,0-.443,3.568c.265,2.157,2.482,16.481,3.137,19.747C893.95,299.4,895.515,310.711,896.348,317.42Z" transform="translate(-863.175 -177.901)" fill="#dedcdb" style="mix-blend-mode: multiply;isolation: isolate"/>
      <path id="Trazado_107840" data-name="Trazado 107840" d="M892.98,195.122a6.06,6.06,0,0,0-1.945,3.223,36.273,36.273,0,0,0-.359,5.9c.173.49.679,5.1,1.008,6.588s1.8,4.345,2.458,4.707a16.664,16.664,0,0,0,2.238.84,10.992,10.992,0,0,1,1.505,2.2c-.039.323,6.345-1.693,7.67-2.184a6.538,6.538,0,0,0,2.069-1.2s-.875-4.651-.794-5.3,1.39-6.289,1.314-7.563-4.2-5.767-5.435-6.014S892.98,195.122,892.98,195.122Z" transform="translate(-862.265 -191.439)" fill="#fcc7aa"/>
      <path id="Trazado_107841" data-name="Trazado 107841" d="M901.858,192.373a8.131,8.131,0,0,0-2-.249,20.293,20.293,0,0,0-7.2,2.914,5.209,5.209,0,0,0-2.044,4.647l.293.538s.783,3.873,1.036,4.342,1.148,3.327,1.148,3.327l.88-.3s-.086-2.571.536-2.806,2.412-.824,4.336,2.537,1.892,2.858,3.061,3,1.906-.512,3.224-.317a8.755,8.755,0,0,1,1.94.459,48.528,48.528,0,0,0,1.383-5.853c.263-2.122,1.091-5.016-.263-7.931S901.858,192.373,901.858,192.373Z" transform="translate(-862.273 -192.116)" fill="#4a2727"/>
      <path id="Trazado_107842" data-name="Trazado 107842" d="M894.555,207.222a11.883,11.883,0,0,0-.949-3.5,2.473,2.473,0,0,1-.321-1.331c.2-.654.476-.635,1.5,0a2.884,2.884,0,0,1,1.336,2.62,4.5,4.5,0,0,1-.764,2.574c-.443.367-.469.574-.731.238Z" transform="translate(-861.672 -189.913)" fill="#ffd6bf"/>
      <path id="Trazado_107843" data-name="Trazado 107843" d="M913.153,215.792s-1.766-2.749-3.658-2.984-6.762-.98-9.671,1.328-3.038,3.275-4.2,5.285a35.54,35.54,0,0,1-3.358,5.39,19.031,19.031,0,0,0-3.808,10.3c-.48,5.372-.655,16.589-.815,20.128s-1.387,11.16-1.387,11.16a33.2,33.2,0,0,0,4.429,2.049,18.3,18.3,0,0,0,12.572-.187c3.834-1.709,6.938-3.071,8.535-4.87s3.371-3.516,3.425-3.945a50.405,50.405,0,0,0-.812-6.532c-.37-1.545.982-10.429,1.182-11.529s.811-15.071.539-18.914A11.979,11.979,0,0,0,913.153,215.792Z" transform="translate(-863.247 -187.53)" fill="#dedede"/>
      <path id="Trazado_107844" data-name="Trazado 107844" d="M892.261,271.43a1.511,1.511,0,0,1-.477.124,5.319,5.319,0,0,1-1.176,0,2.2,2.2,0,0,1-1,.113,2.555,2.555,0,0,0-1.044.1l-.508-.062-.938-.349-.583-.646-.515-.57a.9.9,0,0,1-.554-.4,12.812,12.812,0,0,1-.69-3.316.7.7,0,0,1,.039-.126c.263-.706,1.833-3.563,1.923-3.96.025-.109.11-.38.224-.725v0c.345-1.04.957-2.755.957-2.755l4.092.978s.344,2.147.458,2.349a6.728,6.728,0,0,1-.115,1.379c-.2,1.47-.6,3.607-.9,3.787-.457.27-.293,1.6-.293,1.6l.41,1.224.329-.007a.9.9,0,0,1,.483.246A.609.609,0,0,1,892.261,271.43Z" transform="translate(-863.581 -177.105)" fill="#fcc7aa"/>
      <path id="Trazado_107845" data-name="Trazado 107845" d="M906.784,261l-1.461,6.235-4.889,4.87-5.314-2.158-.157-6.782S904.353,261.978,906.784,261Z" transform="translate(-861.29 -176.623)" fill="#4078bd"/>
      <path id="Trazado_107846" data-name="Trazado 107846" d="M910.123,256.753l-2.6,1.64.355,4.975,1.8,2.136,1.059-4.8.35-4.82Z" transform="translate(-858.464 -177.774)" fill="#4078bd"/>
      <path id="Trazado_107847" data-name="Trazado 107847" d="M885.695,267.888l.843,1.453-.515-.57a.9.9,0,0,1-.554-.4,12.812,12.812,0,0,1-.69-3.316.7.7,0,0,1,.039-.126c-.024.2-.036.311-.036.311l.888.331Z" transform="translate(-863.581 -175.739)" fill="#fad3be" style="mix-blend-mode: multiply;isolation: isolate"/>
      <path id="Trazado_107848" data-name="Trazado 107848" d="M887.244,261.846l-.68-.234v0c.345-1.04.957-2.755.957-2.755l4.092.978s.344,2.147.458,2.349a6.728,6.728,0,0,1-.115,1.379,9.988,9.988,0,0,0-2.009-.628A15.535,15.535,0,0,1,887.244,261.846Z" transform="translate(-863.179 -177.105)" fill="#fad3be" style="mix-blend-mode: multiply;isolation: isolate"/>
      <path id="Trazado_107849" data-name="Trazado 107849" d="M891.353,269.823a5.319,5.319,0,0,1-1.176,0,2.2,2.2,0,0,1-1,.113,2.555,2.555,0,0,0-1.044.1l-.508-.062-.931-3.424.933,2.734.925.4,1.089.04-1.077-2.163,1.5,1.779Z" transform="translate(-863.149 -175.375)" fill="#fad3be" style="mix-blend-mode: multiply;isolation: isolate"/>
      <path id="Trazado_107850" data-name="Trazado 107850" d="M893.626,229.118l-.7,5.673s.22,5.085.19,5.331-2.1,12.309-2.1,12.309-3.66,9.007-3.845,10.88,9.691,2.479,9.691,2.479,1.9-2.926,2.461-3.606a51.6,51.6,0,0,0,2.485-5.123s5.936-1.482,7.305-1.982,2.6-2.844,2.6-2.844l-3.133,1.608-5.9,1.764,2.217-4.532s3.264-2.4,4.5-3.311,2.727-1.847,2.727-1.847l1.241-1.033a17.893,17.893,0,0,0-3.839.835c-.614.423-2.1,2.3-2.911,2.822S904,249.965,904,249.965a29.255,29.255,0,0,1,.789-4.335c.306-.461,3.885-3.138,5.48-7.935a48.958,48.958,0,0,1,2.969-7.311s-3.5,6.058-3.922,7.443-3.912,5.712-3.912,5.712,1.832-10.9,1.475-11.883-6-2.806-6-2.806Z" transform="translate(-863.043 -183.854)" fill="#dedede" style="mix-blend-mode: multiply;isolation: isolate"/>
      <path id="Trazado_107851" data-name="Trazado 107851" d="M906.5,210.124a2.132,2.132,0,0,1,1.335.593c.381.514.239,3.541.239,3.541a32.256,32.256,0,0,0-3.454.671c-1.24.361-4.83.8-6.34,1.835s-4,2.368-4,2.368.739-3.1.9-3.454a10.527,10.527,0,0,1,5.1-3.043c2.714-.67,6.367-1.665,6.367-1.665Z" transform="translate(-861.444 -188.065)" fill="#fafafa"/>
      <path id="Trazado_107852" data-name="Trazado 107852" d="M905.373,239.43s5.01-12.685-2-16.054-8.231-.586-9.007.63-.762,8.647-.643,13.719a88.773,88.773,0,0,1-1.006,12.113c-.076,1.115-5.681,16.589-5.766,17.265s.087,2.321,2.37,3.541,3.382.42,3.382.42,5.968-7.438,7.025-10.117a56.1,56.1,0,0,0,2.959-7.936C903.353,250.16,905.373,239.43,905.373,239.43Z" transform="translate(-863.096 -185.446)" fill="#fafafa"/>
    </g>
  </g>
</svg>
