<svg xmlns="http://www.w3.org/2000/svg" width="90" height="90.989" viewBox="0 0 90 90.989">
  <g id="voltimetro_2_" data-name="voltimetro (2)" transform="translate(-2.783)">
    <path id="Trazado_103278" data-name="Trazado 103278" d="M22.126,98.163a8.223,8.223,0,0,1-8.213-8.213V19.343a8.223,8.223,0,0,1,8.213-8.213H91.744a8.223,8.223,0,0,1,8.213,8.213V89.95a8.223,8.223,0,0,1-8.213,8.213H22.126Zm45.688-22.3A5.934,5.934,0,1,0,73.748,81.8,5.941,5.941,0,0,0,67.814,75.866Zm-21.758,0A5.934,5.934,0,1,0,51.99,81.8,5.941,5.941,0,0,0,46.056,75.866ZM22.812,20.031l0,45.516H91.056V20.031H22.812Z" transform="translate(-9.152 -9.152)" fill="#f6f6f6"/>
    <path id="Trazado_103279" data-name="Trazado 103279" d="M82.592,0H12.974A10.2,10.2,0,0,0,2.783,10.191V80.8A10.2,10.2,0,0,0,12.974,90.989H82.592A10.2,10.2,0,0,0,92.783,80.8V10.191A10.2,10.2,0,0,0,82.592,0Zm6.235,80.8a6.242,6.242,0,0,1-6.235,6.235H12.974A6.243,6.243,0,0,1,6.739,80.8V10.191a6.243,6.243,0,0,1,6.235-6.235H82.592a6.242,6.242,0,0,1,6.235,6.235V80.8h0Z" transform="translate(0)" fill="#12263f"/>
    <path id="Trazado_103280" data-name="Trazado 103280" d="M106.619,106.733l-.312-1.6a8.342,8.342,0,0,0-9.436-6.647l-1.3.2-.068-.112L93.81,99.6a8.37,8.37,0,0,0-3.873,5.537l-.312,1.6H64V61.217h68.242v45.516H106.619Z" transform="translate(-50.339 -50.338)" fill="#ffd947"/>
    <path id="Trazado_103281" data-name="Trazado 103281" d="M206.615,278.747l.851-2.594a8.339,8.339,0,0,1,15.851,0l.851,2.594Z" transform="translate(-167.608 -222.351)" fill="#ecf0f1"/>
    <path id="Trazado_103282" data-name="Trazado 103282" d="M167.326,387.271a5.934,5.934,0,1,1,5.934-5.934A5.941,5.941,0,0,1,167.326,387.271Z" transform="translate(-130.422 -308.689)" fill="#00cca7"/>
    <path id="Trazado_103283" data-name="Trazado 103283" d="M158.173,364.272a7.912,7.912,0,1,0,7.912,7.912A7.921,7.921,0,0,0,158.173,364.272Zm0,11.868a3.956,3.956,0,1,1,3.956-3.956A3.961,3.961,0,0,1,158.173,376.14Z" transform="translate(-121.269 -299.536)" fill="#12263f"/>
    <path id="Trazado_103284" data-name="Trazado 103284" d="M289.761,387.271a5.934,5.934,0,1,1,5.934-5.934A5.941,5.941,0,0,1,289.761,387.271Z" transform="translate(-231.099 -308.689)" fill="#b3009d"/>
    <g id="Grupo_54878" data-name="Grupo 54878" transform="translate(11.684 8.901)">
      <path id="Trazado_103285" data-name="Trazado 103285" d="M280.608,364.272a7.912,7.912,0,1,0,7.912,7.912A7.921,7.921,0,0,0,280.608,364.272Zm0,11.868a3.956,3.956,0,1,1,3.956-3.956A3.961,3.961,0,0,1,280.608,376.14Z" transform="translate(-233.63 -308.437)" fill="#12263f"/>
      <path id="Trazado_103286" data-name="Trazado 103286" d="M100.694,202.011a1.975,1.975,0,1,0-1.4-.58A1.981,1.981,0,0,0,100.694,202.011Z" transform="translate(-90.569 -171.759)" fill="#12263f"/>
      <path id="Trazado_103287" data-name="Trazado 103287" d="M328.4,147.139a1.954,1.954,0,0,0,.845.192,1.981,1.981,0,1,0-.845-.192Z" transform="translate(-278.502 -126.795)" fill="#12263f"/>
      <path id="Trazado_103288" data-name="Trazado 103288" d="M204.607,133.762a2.065,2.065,0,0,0,.421-.046,1.974,1.974,0,1,0-.421.046Z" transform="translate(-176.017 -115.637)" fill="#12263f"/>
      <path id="Trazado_103289" data-name="Trazado 103289" d="M246.825,129.3a1.978,1.978,0,1,0-1.978-1.978A1.978,1.978,0,0,0,246.825,129.3Z" transform="translate(-210.73 -111.967)" fill="#12263f"/>
      <path id="Trazado_103290" data-name="Trazado 103290" d="M363.712,169.692a1.979,1.979,0,1,0-.235-2.787A1.978,1.978,0,0,0,363.712,169.692Z" transform="translate(-307.894 -145.566)" fill="#12263f"/>
      <path id="Trazado_103291" data-name="Trazado 103291" d="M288.616,133.7a2.03,2.03,0,0,0,.419.046,1.982,1.982,0,1,0-.419-.046Z" transform="translate(-245.438 -115.628)" fill="#12263f"/>
      <path id="Trazado_103292" data-name="Trazado 103292" d="M128.668,170.193a1.979,1.979,0,1,0-1.513-.7A1.968,1.968,0,0,0,128.668,170.193Z" transform="translate(-113.57 -145.594)" fill="#12263f"/>
      <path id="Trazado_103293" data-name="Trazado 103293" d="M393,202.011a1.979,1.979,0,1,0-1.4-.58A1.988,1.988,0,0,0,393,202.011Z" transform="translate(-330.929 -171.759)" fill="#12263f"/>
      <path id="Trazado_103294" data-name="Trazado 103294" d="M123.091,50.087H54.849a1.978,1.978,0,0,0-1.978,1.978V97.581a1.978,1.978,0,0,0,1.978,1.978h68.242a1.978,1.978,0,0,0,1.978-1.978V52.065A1.978,1.978,0,0,0,123.091,50.087ZM88.97,91.219A6.373,6.373,0,0,1,95.016,95.6H82.924A6.373,6.373,0,0,1,88.97,91.219ZM121.113,95.6H99.1a10.32,10.32,0,0,0-11.672-8.225L73.861,65.006a1.978,1.978,0,1,0-3.383,2.051l13.154,21.7A10.347,10.347,0,0,0,78.844,95.6H56.827V54.043h64.286Z" transform="translate(-52.871 -50.087)" fill="#12263f"/>
    </g>
  </g>
</svg>
