<svg xmlns="http://www.w3.org/2000/svg" width="92" height="92" viewBox="0 0 92 92">
  <g id="Grupo_100681" data-name="Grupo 100681" transform="translate(-210 -210)">
    <g id="Grupo_86382" data-name="Grupo 86382">
      <circle id="Elipse_5014" data-name="Elipse 5014" cx="46" cy="46" r="46" transform="translate(210 210)" fill="#96f008"/>
      <circle id="Elipse_5015" data-name="Elipse 5015" cx="39.292" cy="39.292" r="39.292" transform="translate(216.708 216.708)" fill="#ebffcc"/>
      <g id="Grupo_100709" data-name="Grupo 100709" transform="translate(901.784 -1824.588)">
        <g id="Grupo_100728" data-name="Grupo 100728" transform="translate(-672.981 2054.634)">
          <g id="Grupo_100709-2" data-name="Grupo 100709">
            <path id="Trazado_160122" data-name="Trazado 160122" d="M-621.431,2054.694h-49.746a1.742,1.742,0,0,0-1.742,1.742v4.41l.629.116h51.931l.671-.116v-4.41a1.742,1.742,0,0,0-1.743-1.742Z" transform="translate(672.92 -2054.694)" fill="#036666"/>
          </g>
          <g id="Grupo_100727" data-name="Grupo 100727">
            <g id="Grupo_100710" data-name="Grupo 100710">
              <path id="Trazado_160123" data-name="Trazado 160123" d="M-664.365,2054.694h-6.813a1.742,1.742,0,0,0-1.742,1.743v4.409h8.555Z" transform="translate(672.92 -2054.694)" fill="#044745"/>
            </g>
            <path id="Trazado_160124" data-name="Trazado 160124" d="M-672.92,2061.311v31.338a1.161,1.161,0,0,0,1.161,1.162h1.478c-.017-.242-.026-.488-.026-.735a10.633,10.633,0,0,1,10.634-10.633,10.633,10.633,0,0,1,10.633,10.633c0,.247-.009.492-.026.735h28.216a1.162,1.162,0,0,0,1.161-1.162v-31.338Z" transform="translate(672.92 -2055.158)" fill="#fef0ae"/>
            <path id="Trazado_160125" data-name="Trazado 160125" d="M-670.307,2093.076a10.58,10.58,0,0,1,1.725-5.806v-25.959h-4.338v31.338a1.161,1.161,0,0,0,1.161,1.162h1.478c-.017-.242-.026-.488-.026-.735Z" transform="translate(672.92 -2055.158)" fill="#fee97d"/>
            <g id="Grupo_100716" data-name="Grupo 100716" transform="translate(9.897 6.153)">
              <g id="Grupo_100712" data-name="Grupo 100712">
                <path id="Trazado_160126" data-name="Trazado 160126" d="M-634.525,2061.311h-4.495v.107a9.173,9.173,0,0,1,1.857,5.55v1.719a6.244,6.244,0,0,1,4.761,6.064v8.39a11.638,11.638,0,0,1-4.761,9.4v1.273h9.689v-22.837a10.191,10.191,0,0,0-7.051-9.664Z" transform="translate(660.644 -2061.311)" fill="#f46700"/>
                <g id="Grupo_100711" data-name="Grupo 100711">
                  <path id="Trazado_160127" data-name="Trazado 160127" d="M-657.347,2080.044a5.748,5.748,0,0,1,5.748-5.748h1.975a1.8,1.8,0,0,0,1.326-.585l3.843-4.2a3.071,3.071,0,0,1,2.266-1h1.912a6.262,6.262,0,0,1,1.589.2v-1.745a9.329,9.329,0,0,0-1.91-5.657h-17.049a14.165,14.165,0,0,0-4.629,10.464v11.207a10.638,10.638,0,0,1,3.349-.538,10.678,10.678,0,0,1,1.58.117Z" transform="translate(662.276 -2061.311)" fill="#fe7701"/>
                </g>
                <path id="Trazado_160128" data-name="Trazado 160128" d="M-658.927,2082.444c.093,0,.186,0,.279,0v-10.673a14.169,14.169,0,0,1,4.628-10.464h-3.627a14.165,14.165,0,0,0-4.629,10.464v11.207A10.638,10.638,0,0,1-658.927,2082.444Z" transform="translate(662.276 -2061.311)" fill="#f46700"/>
              </g>
              <g id="Grupo_100713" data-name="Grupo 100713" transform="translate(27.765 15.795)">
                <path id="Trazado_160129" data-name="Trazado 160129" d="M-631.662,2078.3h-.385v6.036a11.512,11.512,0,0,1-.368,2.892h.753a4.464,4.464,0,0,0,4.464-4.464,4.465,4.465,0,0,0-4.464-4.464Z" transform="translate(632.415 -2078.298)" fill="#fed2a4"/>
              </g>
              <g id="Grupo_100715" data-name="Grupo 100715" transform="translate(4.929 7.198)">
                <path id="Trazado_160130" data-name="Trazado 160130" d="M-639.905,2069.052h-1.912a3.068,3.068,0,0,0-2.265,1l-3.844,4.2a1.8,1.8,0,0,1-1.326.585h-1.975a5.748,5.748,0,0,0-5.748,5.748v2.516a10.636,10.636,0,0,1,9.054,10.516c0,.247-.009.492-.026.735h7.324a11.658,11.658,0,0,0,6.961-10.67v-8.39a6.243,6.243,0,0,0-6.243-6.243Z" transform="translate(656.975 -2069.052)" fill="#ffe5c2"/>
                <g id="Grupo_100714" data-name="Grupo 100714" transform="translate(0 5.787)">
                  <path id="Trazado_160131" data-name="Trazado 160131" d="M-653.547,2084.676c-.011-.219-.019-.438-.019-.661v-3.182a5.907,5.907,0,0,1,3.9-5.557h-1.565a5.748,5.748,0,0,0-5.748,5.748v2.517a10.537,10.537,0,0,1,3.428,1.135Z" transform="translate(656.975 -2075.276)" fill="#fed2a4"/>
                </g>
              </g>
            </g>
            <g id="Grupo_100717" data-name="Grupo 100717" transform="translate(2.613 27.285)">
              <circle id="Elipse_5259" data-name="Elipse 5259" cx="10.633" cy="10.633" r="10.633" fill="#ddffa7"/>
            </g>
            <g id="Grupo_100718" data-name="Grupo 100718" transform="translate(5.518 30.19)">
              <path id="Trazado_160132" data-name="Trazado 160132" d="M-659.257,2102.62a7.737,7.737,0,0,1-7.728-7.729,7.736,7.736,0,0,1,7.728-7.728,7.737,7.737,0,0,1,7.729,7.728A7.738,7.738,0,0,1-659.257,2102.62Z" transform="translate(666.985 -2087.163)" fill="#ffe5c2"/>
            </g>
            <g id="Grupo_100719" data-name="Grupo 100719" transform="translate(5.518 30.19)">
              <path id="Trazado_160133" data-name="Trazado 160133" d="M-663.347,2094.891a7.741,7.741,0,0,1,5.909-7.51,7.737,7.737,0,0,0-1.82-.218,7.736,7.736,0,0,0-7.728,7.728,7.737,7.737,0,0,0,7.728,7.729,7.737,7.737,0,0,0,1.82-.219A7.742,7.742,0,0,1-663.347,2094.891Z" transform="translate(666.985 -2087.163)" fill="#fed2a4"/>
            </g>
            <g id="Grupo_100722" data-name="Grupo 100722" transform="translate(9.257 32.786)">
              <g id="Grupo_100720" data-name="Grupo 100720" transform="translate(2.968)">
                <path id="Trazado_160134" data-name="Trazado 160134" d="M-656.505,2092.493V2090.3a.348.348,0,0,0-.348-.349h-2.571a.348.348,0,0,0-.348.349v2.57a.348.348,0,0,0,.348.349h2.19a.348.348,0,0,1,.348.349v2.189a.349.349,0,0,0,.349.349h2.57a.349.349,0,0,0,.349-.349v-2.57a.349.349,0,0,0-.349-.349h-2.189a.349.349,0,0,1-.349-.349Z" transform="translate(659.772 -2089.955)" fill="#ffbd86"/>
              </g>
              <g id="Grupo_100721" data-name="Grupo 100721" transform="translate(0 5.854)">
                <path id="Trazado_160135" data-name="Trazado 160135" d="M-660.045,2099.518h-2.57a.348.348,0,0,1-.349-.348V2096.6a.348.348,0,0,1,.349-.348h2.57a.348.348,0,0,1,.349.348v2.571A.348.348,0,0,1-660.045,2099.518Z" transform="translate(662.964 -2096.251)" fill="#ffbd86"/>
              </g>
            </g>
            <g id="Grupo_100724" data-name="Grupo 100724" transform="translate(41.8 22.728)">
              <g id="Grupo_100723" data-name="Grupo 100723">
                <path id="Trazado_160136" data-name="Trazado 160136" d="M-620.631,2083.227c-2.046.511-2.734,1.2-3.245,3.245a.312.312,0,0,1-.606,0c-.511-2.046-1.2-2.734-3.245-3.245a.312.312,0,0,1,0-.606c2.046-.511,2.734-1.2,3.245-3.246a.312.312,0,0,1,.606,0c.511,2.047,1.2,2.735,3.245,3.246A.312.312,0,0,1-620.631,2083.227Z" transform="translate(627.965 -2079.138)" fill="#fed402"/>
              </g>
            </g>
            <g id="Grupo_100726" data-name="Grupo 100726" transform="translate(5.867 9.586)">
              <g id="Grupo_100725" data-name="Grupo 100725">
                <path id="Trazado_160137" data-name="Trazado 160137" d="M-659.276,2069.092c-2.046.511-2.734,1.2-3.245,3.245a.312.312,0,0,1-.606,0c-.511-2.046-1.2-2.734-3.245-3.245a.312.312,0,0,1,0-.606c2.046-.512,2.734-1.2,3.245-3.245a.312.312,0,0,1,.606,0c.511,2.045,1.2,2.733,3.245,3.245A.312.312,0,0,1-659.276,2069.092Z" transform="translate(666.61 -2065.003)" fill="#fed402"/>
              </g>
            </g>
          </g>
        </g>
        <g id="Grupo_100733" data-name="Grupo 100733" transform="translate(-647.034 2096.664)">
          <g id="Grupo_100729" data-name="Grupo 100729">
            <path id="Trazado_160138" data-name="Trazado 160138" d="M-618.31,2109.26h-26.123a.581.581,0,0,1-.581-.58v-8.2a.581.581,0,0,1,.581-.581h26.122a.581.581,0,0,1,.581.581v8.2a.58.58,0,0,1-.58.58Z" transform="translate(645.015 -2099.897)" fill="#ddffa7"/>
          </g>
          <g id="Grupo_100730" data-name="Grupo 100730">
            <path id="Trazado_160139" data-name="Trazado 160139" d="M-640.49,2108.678v-8.2a.581.581,0,0,1,.581-.581h-4.525a.581.581,0,0,0-.581.581v8.2a.581.581,0,0,0,.581.581h4.525A.581.581,0,0,1-640.49,2108.678Z" transform="translate(645.015 -2099.897)" fill="#b3ff1f"/>
          </g>
          <g id="Grupo_100731" data-name="Grupo 100731" transform="translate(16.318 3.01)">
            <circle id="Elipse_5260" data-name="Elipse 5260" cx="1.672" cy="1.672" r="1.672" fill="#ff4b52"/>
          </g>
          <g id="Grupo_100732" data-name="Grupo 100732" transform="translate(16.317 3.01)">
            <path id="Trazado_160140" data-name="Trazado 160140" d="M-625.87,2104.805a1.671,1.671,0,0,1,.874-1.47,1.667,1.667,0,0,0-.8-.2,1.672,1.672,0,0,0-1.672,1.671,1.672,1.672,0,0,0,1.672,1.672,1.662,1.662,0,0,0,.8-.2A1.67,1.67,0,0,1-625.87,2104.805Z" transform="translate(627.466 -2103.134)" fill="#f90013"/>
          </g>
        </g>
        <g id="Grupo_100734" data-name="Grupo 100734" transform="translate(-673.784 2053.83)">
          <path id="Trazado_160141" data-name="Trazado 160141" d="M-621.492,2053.83h-49.746a2.549,2.549,0,0,0-2.546,2.547v35.748a1.967,1.967,0,0,0,1.965,1.966h.752a11.454,11.454,0,0,0,11.333,9.9,11.454,11.454,0,0,0,11.333-9.9h27.491a1.967,1.967,0,0,0,1.965-1.966v-35.748a2.549,2.549,0,0,0-2.546-2.547Zm-50.685,2.547a.94.94,0,0,1,.75-.92.9.9,0,0,1,.189-.02h6.01v4.546h-6.95Zm1.007,36.107h-.649a.359.359,0,0,1-.359-.359V2061.59h11.841a15.1,15.1,0,0,0-1.874,2.807c-.011-.044-.023-.088-.035-.135a1.115,1.115,0,0,0-1.082-.846,1.116,1.116,0,0,0-1.082.846c-.438,1.751-.91,2.224-2.661,2.661a1.115,1.115,0,0,0-.846,1.083,1.114,1.114,0,0,0,.846,1.083c1.751.438,2.223.91,2.661,2.661a1.112,1.112,0,0,0,.523.695v9.453A11.457,11.457,0,0,0-671.17,2092.483Zm8.89-20.622a1.034,1.034,0,0,0,.035-.113c.438-1.751.91-2.223,2.661-2.661a1.114,1.114,0,0,0,.846-1.083,1.115,1.115,0,0,0-.846-1.083,4.113,4.113,0,0,1-1.7-.721,13.493,13.493,0,0,1,3.141-4.612h16.322a8.474,8.474,0,0,1,1.517,4.854v.782a7.081,7.081,0,0,0-.786-.045H-643a3.882,3.882,0,0,0-2.858,1.26l-3.844,4.2a1,1,0,0,1-.733.324h-1.975a6.559,6.559,0,0,0-6.552,6.551v1.624q-.385-.026-.776-.027a11.426,11.426,0,0,0-2.546.285v-9.54Zm-1.047-1.912a3.73,3.73,0,0,0-1.943-1.944,3.73,3.73,0,0,0,1.943-1.943,3.73,3.73,0,0,0,1.943,1.943A3.73,3.73,0,0,0-663.327,2069.949Zm3.593,32.433a9.841,9.841,0,0,1-9.83-9.83,9.841,9.841,0,0,1,9.83-9.829,9.841,9.841,0,0,1,9.83,9.829A9.841,9.841,0,0,1-659.734,2102.381Zm11.436-9.9a11.456,11.456,0,0,0-9.053-11.117v-1.847a4.949,4.949,0,0,1,4.945-4.945h1.975a2.6,2.6,0,0,0,1.918-.846l3.844-4.2a2.273,2.273,0,0,1,1.673-.737h1.912a5.445,5.445,0,0,1,5.44,5.44v8.39a10.863,10.863,0,0,1-6.329,9.867Zm17.581,0H-638.9a12.479,12.479,0,0,0,4.293-6.171h.037a5.247,5.247,0,0,0,3.848-1.676Zm-.42-10.253.033.009a3.669,3.669,0,0,1-3.108,2.448,12.446,12.446,0,0,0,.174-2.071v-5.191a3.668,3.668,0,0,1,2.993,2.616l-.092.024a1.115,1.115,0,0,0-.845,1.082A1.115,1.115,0,0,0-631.138,2082.23Zm.42-4.776a5.252,5.252,0,0,0-3.321-1.649v-1.579a7.057,7.057,0,0,0-4.654-6.627v-1.157a10.051,10.051,0,0,0-1.24-4.854h2.838a9.494,9.494,0,0,1,4.539,3.313,9.244,9.244,0,0,1,1.837,5.547Zm10.165-17.472h-4.391a.8.8,0,0,0-.8.8.8.8,0,0,0,.8.8h4.391v30.535a.359.359,0,0,1-.358.359h-8.2v-9.177a4.515,4.515,0,0,1,.634,1.585,1.115,1.115,0,0,0,1.082.845,1.115,1.115,0,0,0,1.082-.845c.438-1.751.91-2.224,2.661-2.661a1.115,1.115,0,0,0,.846-1.083,1.114,1.114,0,0,0-.846-1.082c-1.751-.438-2.223-.91-2.661-2.661a1.115,1.115,0,0,0-1.082-.846,1.115,1.115,0,0,0-1.082.846,4.511,4.511,0,0,1-.634,1.584v-8.539a10.839,10.839,0,0,0-2.154-6.5,11.065,11.065,0,0,0-2.387-2.355h4.96a.8.8,0,0,0,.8-.8.8.8,0,0,0-.8-.8h-34.93v-4.546h42.13a.94.94,0,0,1,.939.939Zm-8.785,21.165a3.73,3.73,0,0,0,1.943-1.943,3.73,3.73,0,0,0,1.943,1.943,3.73,3.73,0,0,0-1.943,1.944A3.73,3.73,0,0,0-629.338,2081.148Z" transform="translate(673.784 -2053.83)"/>
          <path id="Trazado_160142" data-name="Trazado 160142" d="M-643.984,2086.682a.8.8,0,0,0-.269-1.1l-1.63-.991,1.93-3.856a.8.8,0,0,0-.359-1.077.8.8,0,0,0-1.078.359l-2.261,4.517a.8.8,0,0,0,.3,1.046l2.262,1.375a.794.794,0,0,0,.417.117A.8.8,0,0,0-643.984,2086.682Z" transform="translate(671.956 -2055.637)"/>
          <path id="Trazado_160143" data-name="Trazado 160143" d="M-650.457,2079.149a.8.8,0,0,0-.8.8v2.811a.8.8,0,0,0,.8.8.8.8,0,0,0,.8-.8v-2.811a.8.8,0,0,0-.8-.8Z" transform="translate(672.203 -2055.607)"/>
          <path id="Trazado_160144" data-name="Trazado 160144" d="M-638.543,2079.149a.8.8,0,0,0-.8.8v2.811a.8.8,0,0,0,.8.8.8.8,0,0,0,.8-.8v-2.811a.8.8,0,0,0-.8-.8Z" transform="translate(671.367 -2055.607)"/>
          <path id="Trazado_160145" data-name="Trazado 160145" d="M-635.91,2077.352a.8.8,0,0,0,0-1.136,3.918,3.918,0,0,0-2.789-1.156,3.918,3.918,0,0,0-2.79,1.156.8.8,0,0,0,0,1.136.8.8,0,0,0,1.136,0,2.321,2.321,0,0,1,1.653-.686,2.321,2.321,0,0,1,1.653.686.8.8,0,0,0,.568.235.8.8,0,0,0,.568-.235Z" transform="translate(671.534 -2055.32)"/>
          <path id="Trazado_160146" data-name="Trazado 160146" d="M-638.892,2086.795a.8.8,0,0,0-.8.8,3.83,3.83,0,0,1-3.826,3.826.8.8,0,0,0-.8.8.8.8,0,0,0,.8.8,5.438,5.438,0,0,0,5.432-5.433A.8.8,0,0,0-638.892,2086.795Z" transform="translate(671.717 -2056.144)"/>
          <path id="Trazado_160147" data-name="Trazado 160147" d="M-659.318,2086.3a8.541,8.541,0,0,0-8.531,8.531,8.541,8.541,0,0,0,8.531,8.532,8.529,8.529,0,0,0,8.265-6.416.8.8,0,0,0-.578-.977.8.8,0,0,0-.977.578,6.924,6.924,0,0,1-6.71,5.208,6.933,6.933,0,0,1-6.925-6.926,6.933,6.933,0,0,1,6.925-6.925,6.907,6.907,0,0,1,6.726,5.283.8.8,0,0,0,.971.589.8.8,0,0,0,.59-.971,8.512,8.512,0,0,0-8.287-6.509Z" transform="translate(673.367 -2056.109)"/>
          <path id="Trazado_160148" data-name="Trazado 160148" d="M-656.6,2096.851h2.571a1.153,1.153,0,0,0,1.151-1.152v-2.57a1.153,1.153,0,0,0-1.151-1.152h-1.735v-1.734a1.153,1.153,0,0,0-1.151-1.152h-2.57a1.153,1.153,0,0,0-1.152,1.152v2.57a1.153,1.153,0,0,0,1.152,1.152h1.734v1.734A1.153,1.153,0,0,0-656.6,2096.851Zm.455-3.267h1.661v1.661h-1.661Zm-2.885-1.225v-1.66h1.661v1.66Z" transform="translate(672.861 -2056.305)"/>
          <path id="Trazado_160149" data-name="Trazado 160149" d="M-662.676,2095.387a1.153,1.153,0,0,0-1.152,1.151v2.571a1.153,1.153,0,0,0,1.152,1.151h2.57a1.153,1.153,0,0,0,1.152-1.151v-2.571a1.153,1.153,0,0,0-1.152-1.151Zm2.115,3.267h-1.661v-1.661h1.661Z" transform="translate(673.085 -2056.747)"/>
          <path id="Trazado_160150" data-name="Trazado 160150" d="M-622.257,2072.956h-.933a.8.8,0,0,0-.8.8.8.8,0,0,0,.8.8h.933v.932a.8.8,0,0,0,.8.8.8.8,0,0,0,.8-.8v-.932h.932a.8.8,0,0,0,.8-.8.8.8,0,0,0-.8-.8h-.932v-.932a.8.8,0,0,0-.8-.8.8.8,0,0,0-.8.8Z" transform="translate(670.29 -2055.051)"/>
          <path id="Trazado_160151" data-name="Trazado 160151" d="M-667.239,2078.3v-.932h.932a.8.8,0,0,0,.8-.8.8.8,0,0,0-.8-.8h-.932v-.933a.8.8,0,0,0-.8-.8.8.8,0,0,0-.8.8v.933h-.933a.8.8,0,0,0-.8.8.8.8,0,0,0,.8.8h.933v.932a.8.8,0,0,0,.8.8A.8.8,0,0,0-667.239,2078.3Z" transform="translate(673.559 -2055.248)"/>
          <path id="Trazado_160152" data-name="Trazado 160152" d="M-618.371,2099.033h-26.123a1.386,1.386,0,0,0-1.385,1.385v8.2a1.386,1.386,0,0,0,1.385,1.385h5.872a.8.8,0,0,0,.8-.8.8.8,0,0,0-.8-.8h-5.65v-7.756h25.678v7.756h-16.28a.8.8,0,0,0-.8.8.8.8,0,0,0,.8.8h16.5a1.386,1.386,0,0,0,1.384-1.385v-8.2a1.386,1.386,0,0,0-1.384-1.385Z" transform="translate(671.826 -2057.002)"/>
          <path id="Trazado_160153" data-name="Trazado 160153" d="M-626.864,2107.22a2.477,2.477,0,0,0,2.34-1.672h4.013a.8.8,0,0,0,.8-.8.8.8,0,0,0-.8-.8h-4.013a2.477,2.477,0,0,0-2.34-1.672,2.479,2.479,0,0,0-2.34,1.672h-12.706a.8.8,0,0,0-.8.8.8.8,0,0,0,.8.8H-629.2A2.479,2.479,0,0,0-626.864,2107.22Zm0-3.343a.869.869,0,0,1,.868.868.87.87,0,0,1-.868.869.869.869,0,0,1-.868-.869A.869.869,0,0,1-626.864,2103.877Z" transform="translate(671.603 -2057.23)"/>
        </g>
      </g>
    </g>
  </g>
</svg>
