<svg xmlns="http://www.w3.org/2000/svg" width="92" height="92" viewBox="0 0 92 92">
  <g id="Grupo_102021" data-name="Grupo 102021" transform="translate(-360 -4733.242)">
    <circle id="Elipse_5255" data-name="Elipse 5255" cx="46" cy="46" r="46" transform="translate(360 4733.242)" fill="#ff4b52"/>
    <circle id="Elipse_5256" data-name="Elipse 5256" cx="39.292" cy="39.292" r="39.292" transform="translate(367 4739.951)" fill="#fdb8ba"/>
    <g id="Layer_13" data-name="Layer 13" transform="translate(1123.235 2660.225)">
      <rect id="Rectángulo_24331" data-name="Rectángulo 24331" width="51.29" height="44.452" rx="2.565" transform="translate(-742.381 2094.63)" fill="#f5ffe1"/>
      <path id="Trazado_160154" data-name="Trazado 160154" d="M-739.816,2094.63a2.565,2.565,0,0,0-2.565,2.565v37.612h45.307a2.564,2.564,0,0,0,2.564-2.564V2094.63Z" fill="#ddffa7"/>
      <path id="Trazado_160155" data-name="Trazado 160155" d="M-703.058,2128.824h-1.71v-1.71a11.967,11.967,0,0,0-11.967-11.968,11.968,11.968,0,0,0-11.968,11.968v1.71h-1.71v-1.71a13.677,13.677,0,0,1,13.678-13.677,13.677,13.677,0,0,1,13.677,13.677Z" fill="#c8cded"/>
      <path id="Trazado_160156" data-name="Trazado 160156" d="M-720.155,2127.114l3.42-6.839,3.419,6.839Z" fill="#939393"/>
      <path id="Trazado_160157" data-name="Trazado 160157" d="M-720.155,2127.114h6.839v18.806h-6.839Z" fill="#474747"/>
      <path id="Trazado_160158" data-name="Trazado 160158" d="M-715.881,2141.646v-14.532h-4.274v16.242h2.565A1.71,1.71,0,0,0-715.881,2141.646Z" fill="#686868"/>
      <path id="Trazado_160159" data-name="Trazado 160159" d="M-691.09,2101.469h-51.291V2097.2a2.565,2.565,0,0,1,2.565-2.565h46.161a2.565,2.565,0,0,1,2.565,2.565Z" fill="#044745"/>
      <path id="Trazado_160160" data-name="Trazado 160160" d="M-694.51,2097.2v-2.565h-45.306a2.565,2.565,0,0,0-2.565,2.565v1.709h46.162A1.709,1.709,0,0,0-694.51,2097.2Z" fill="#036666"/>
      <path id="Trazado_160161" data-name="Trazado 160161" d="M-742.381,2101.469h6.839v6.838h-6.839Z" fill="#f0ae42"/>
      <path id="Trazado_160162" data-name="Trazado 160162" d="M-738.106,2104.888v-3.419h-4.275v4.274h3.42A.855.855,0,0,0-738.106,2104.888Z" fill="#f9d266"/>
      <path id="Trazado_160163" data-name="Trazado 160163" d="M-735.542,2101.469h6.839v6.838h-6.839Z" fill="#559b2d"/>
      <path id="Trazado_160164" data-name="Trazado 160164" d="M-728.7,2101.469h6.839v6.838H-728.7Z" fill="#b52f28"/>
      <path id="Trazado_160165" data-name="Trazado 160165" d="M-721.864,2101.469h6.838v6.838h-6.838Z" fill="#5e87ca"/>
      <g id="Grupo_100735" data-name="Grupo 100735">
        <path id="Trazado_160166" data-name="Trazado 160166" d="M-739.816,2097.2h22.226v1.709h-22.226Z" fill="#e2e7f6"/>
        <path id="Trazado_160167" data-name="Trazado 160167" d="M-715.881,2097.2h5.129v1.709h-5.129Z" fill="#e2e7f6"/>
        <path id="Trazado_160168" data-name="Trazado 160168" d="M-698.784,2097.2h1.71v1.709h-1.71Z" fill="#e2e7f6"/>
      </g>
      <path id="Trazado_160169" data-name="Trazado 160169" d="M-731.268,2104.888v-3.419h-4.274v4.274h3.419A.855.855,0,0,0-731.268,2104.888Z" fill="#6bc13b"/>
      <path id="Trazado_160170" data-name="Trazado 160170" d="M-724.429,2104.888v-3.419H-728.7v4.274h3.419A.855.855,0,0,0-724.429,2104.888Z" fill="#d23f34"/>
      <path id="Trazado_160171" data-name="Trazado 160171" d="M-717.59,2104.888v-3.419h-4.274v4.274h3.419A.855.855,0,0,0-717.59,2104.888Z" fill="#78a0d4"/>
      <path id="Trazado_160172" data-name="Trazado 160172" d="M-729.558,2113.437h25.645v1.709h-25.645Z" fill="#c8cded"/>
      <circle id="Elipse_5261" data-name="Elipse 5261" cx="2.565" cy="2.565" r="2.565" transform="translate(-719.3 2111.727)" fill="#559b2d"/>
      <circle id="Elipse_5262" data-name="Elipse 5262" cx="2.565" cy="2.565" r="2.565" transform="translate(-704.768 2111.727)" fill="#f0ae42"/>
      <path id="Trazado_160173" data-name="Trazado 160173" d="M-704.768,2114.291a2.539,2.539,0,0,0,.382,1.329,2.54,2.54,0,0,0,1.328.381,2.564,2.564,0,0,0,2.564-2.564,2.528,2.528,0,0,0-.381-1.329,2.528,2.528,0,0,0-1.328-.381A2.564,2.564,0,0,0-704.768,2114.291Z" fill="#f9d266"/>
      <path id="Trazado_160174" data-name="Trazado 160174" d="M-719.3,2114.291a2.547,2.547,0,0,0,.381,1.329,2.547,2.547,0,0,0,1.329.381,2.564,2.564,0,0,0,2.564-2.564,2.528,2.528,0,0,0-.381-1.329,2.528,2.528,0,0,0-1.328-.381A2.564,2.564,0,0,0-719.3,2114.291Z" fill="#6bc13b"/>
      <circle id="Elipse_5263" data-name="Elipse 5263" cx="2.565" cy="2.565" r="2.565" transform="translate(-733.832 2111.727)" fill="#f0ae42"/>
      <circle id="Elipse_5264" data-name="Elipse 5264" cx="2.565" cy="2.565" r="2.565" transform="translate(-732.123 2127.114)" fill="#559b2d"/>
      <circle id="Elipse_5265" data-name="Elipse 5265" cx="2.565" cy="2.565" r="2.565" transform="translate(-706.477 2127.114)" fill="#559b2d"/>
      <path id="Trazado_160175" data-name="Trazado 160175" d="M-733.832,2114.291a2.528,2.528,0,0,0,.381,1.329,2.546,2.546,0,0,0,1.328.381,2.564,2.564,0,0,0,2.565-2.564,2.547,2.547,0,0,0-.381-1.329,2.529,2.529,0,0,0-1.329-.381A2.564,2.564,0,0,0-733.832,2114.291Z" fill="#f9d266"/>
      <path id="Trazado_160176" data-name="Trazado 160176" d="M-732.123,2129.678a2.539,2.539,0,0,0,.382,1.329,2.528,2.528,0,0,0,1.328.381,2.565,2.565,0,0,0,2.565-2.564,2.536,2.536,0,0,0-.382-1.329,2.541,2.541,0,0,0-1.328-.381A2.565,2.565,0,0,0-732.123,2129.678Z" fill="#6bc13b"/>
      <path id="Trazado_160177" data-name="Trazado 160177" d="M-706.477,2129.678a2.528,2.528,0,0,0,.381,1.329,2.528,2.528,0,0,0,1.328.381,2.564,2.564,0,0,0,2.565-2.564,2.545,2.545,0,0,0-.381-1.329,2.545,2.545,0,0,0-1.329-.381A2.564,2.564,0,0,0-706.477,2129.678Z" fill="#6bc13b"/>
      <path id="Trazado_160178" data-name="Trazado 160178" d="M-693.655,2093.775h-46.161a3.419,3.419,0,0,0-3.419,3.42v39.322a3.419,3.419,0,0,0,3.419,3.42h18.806v5.983a.855.855,0,0,0,.855.855h6.839a.855.855,0,0,0,.855-.855v-5.983h18.806a3.42,3.42,0,0,0,3.42-3.42V2097.2A3.42,3.42,0,0,0-693.655,2093.775Zm-46.161,1.71h46.161a1.71,1.71,0,0,1,1.71,1.71v3.419h-49.581V2097.2A1.71,1.71,0,0,1-739.816,2095.485Zm-1.71,11.968v-5.129h5.129v5.129Zm6.839-5.129h5.129v5.129h-5.129Zm6.839,0h5.129v5.129h-5.129Zm6.838,0h5.129v5.129h-5.129Zm1.71,42.742v-17.1h5.129v17.1Zm.528-18.807,2.037-4.072,2.036,4.072Zm25.117,11.968h-18.806v-11.113a.858.858,0,0,0-.086-.382l-3.419-6.839a.891.891,0,0,0-1.221-.309.887.887,0,0,0-.309.309l-3.42,6.839a.873.873,0,0,0-.094.382v11.113h-18.806a1.711,1.711,0,0,1-1.71-1.71v-27.355h26.5a.855.855,0,0,0,.855-.855v-5.983h22.226v34.193A1.711,1.711,0,0,1-693.655,2138.227Z"/>
      <path id="Trazado_160179" data-name="Trazado 160179" d="M-739.816,2097.2h22.226v1.709h-22.226Z"/>
      <path id="Trazado_160180" data-name="Trazado 160180" d="M-715.881,2097.2h5.129v1.709h-5.129Z"/>
      <path id="Trazado_160181" data-name="Trazado 160181" d="M-698.784,2097.2h1.71v1.709h-1.71Z"/>
      <path id="Trazado_160182" data-name="Trazado 160182" d="M-702.2,2110.872a3.418,3.418,0,0,0-3.3,2.565h-7.936a3.4,3.4,0,0,0-4.138-2.459,3.4,3.4,0,0,0-2.458,2.459h-7.937a3.418,3.418,0,0,0-4.165-2.456,3.419,3.419,0,0,0-2.456,4.165,3.419,3.419,0,0,0,4.165,2.456,3.418,3.418,0,0,0,2.456-2.456h4.637a13.722,13.722,0,0,0-7.047,11.224,3.427,3.427,0,0,0-2.513,4.144,3.427,3.427,0,0,0,4.143,2.514,3.427,3.427,0,0,0,2.514-4.144,3.427,3.427,0,0,0-2.434-2.493,11.994,11.994,0,0,1,8.772-10.817,3.412,3.412,0,0,0,4.444,1.881,3.407,3.407,0,0,0,1.881-1.881,11.994,11.994,0,0,1,8.773,10.813,3.413,3.413,0,0,0-2.4,4.188,3.413,3.413,0,0,0,4.188,2.4,3.412,3.412,0,0,0,2.4-4.188,3.411,3.411,0,0,0-2.478-2.419,13.719,13.719,0,0,0-7.047-11.221h4.637a3.412,3.412,0,0,0,4.164,2.442,3.412,3.412,0,0,0,2.442-4.163,3.413,3.413,0,0,0-3.308-2.553ZM-731.268,2116a1.709,1.709,0,0,1-1.709-1.71,1.709,1.709,0,0,1,1.709-1.709,1.709,1.709,0,0,1,1.71,1.709A1.709,1.709,0,0,1-731.268,2116Zm3.42,13.677a1.71,1.71,0,0,1-1.71,1.71,1.71,1.71,0,0,1-1.71-1.71,1.71,1.71,0,0,1,1.71-1.709A1.71,1.71,0,0,1-727.848,2129.678Zm25.645,0a1.71,1.71,0,0,1-1.71,1.71,1.71,1.71,0,0,1-1.71-1.71,1.71,1.71,0,0,1,1.71-1.709A1.71,1.71,0,0,1-702.2,2129.678ZM-716.735,2116a1.709,1.709,0,0,1-1.71-1.71,1.709,1.709,0,0,1,1.71-1.709,1.709,1.709,0,0,1,1.709,1.709A1.709,1.709,0,0,1-716.735,2116Zm14.532,0a1.71,1.71,0,0,1-1.71-1.71,1.71,1.71,0,0,1,1.71-1.709,1.709,1.709,0,0,1,1.709,1.709A1.709,1.709,0,0,1-702.2,2116Z"/>
    </g>
  </g>
</svg>
