<svg xmlns="http://www.w3.org/2000/svg" xmlns:xlink="http://www.w3.org/1999/xlink" width="321.436" height="320" viewBox="0 0 321.436 320">
  <defs>
    <linearGradient id="linear-gradient" x1="0.632" y1="-0.107" x2="0.364" y2="1.119" gradientUnits="objectBoundingBox">
      <stop offset="0" stop-color="#ffc444"/>
      <stop offset="0.996" stop-color="#f36f56"/>
    </linearGradient>
    <linearGradient id="linear-gradient-2" x1="0.622" y1="0.17" x2="0.379" y2="0.85" xlink:href="#linear-gradient"/>
    <linearGradient id="linear-gradient-3" x1="0.415" y1="0.034" x2="0.61" y2="0.985" gradientUnits="objectBoundingBox">
      <stop offset="0" stop-color="#f99180"/>
      <stop offset="0.996" stop-color="#d76184"/>
    </linearGradient>
    <clipPath id="clip-path">
      <path id="Trazado_149907" data-name="Trazado 149907" d="M1816.424,1872.5l-4.826-28.148s13.531-7.774,24.9-2.623c23.2,10.509,30.788-10.547,35.284-18.891,6.781-12.583,17.161-19.4,26.726-7.3,10.822,13.684,30.457-3.379,38.479-25.279,7.849-21.431,50.475-19.844,37.743,28.1-7.6,28.633-36.463,29.3-50.957,33.1s-11.96,25.894-31.218,21.486c-16.45-3.765-29.729-14-38.694-2.916S1833.231,1884.1,1816.424,1872.5Z" transform="translate(-1811.598 -1777.07)" fill="url(#linear-gradient)"/>
    </clipPath>
    <linearGradient id="linear-gradient-5" x1="-56.96" y1="7.471" x2="-56.096" y2="8.651" gradientUnits="objectBoundingBox">
      <stop offset="0.004" stop-color="#2ee359"/>
      <stop offset="1" stop-color="#8ef671"/>
    </linearGradient>
    <clipPath id="clip-path-2">
      <path id="Trazado_149917" data-name="Trazado 149917" d="M1751.046,1870.894l-25.262-4.058s-8.108-16.677.538-21.928,3.468-21.462,1.784-30.387c-4.571-24.217,24.02-24.117,20.823-55.636-.851-8.383-5.492-24.147,1.435-31.392,7.892-8.252,14.987-1.264,19.91-8.04,7.7-10.591,21.472-15.212,30.949-5.609,9.355,9.477,1.306,30.332-22.168,48.362-15.232,14.725-15.078,18.782-12.763,28.517,1.623,6.818,10.536,24.232,1.2,32.147s-16.234,16.23-11.559,23.718C1763.05,1857.982,1751.046,1870.894,1751.046,1870.894Z" transform="translate(-1722.335 -1708.604)" fill="none"/>
    </clipPath>
    <linearGradient id="linear-gradient-6" x1="11.349" y1="2.818" x2="11.961" y2="3.754" gradientUnits="objectBoundingBox">
      <stop offset="0" stop-color="#8df980"/>
      <stop offset="0.996" stop-color="#b1d761"/>
    </linearGradient>
    <clipPath id="clip-path-3">
      <path id="Trazado_149924" data-name="Trazado 149924" d="M1877.406,1875.249l-40.448-3.618c-1.945-5.629-4.194-15.891,4.455-17.6,12.025-2.373,13.638-21.987,10.873-29.2-3.422-8.927-10.944-29.858,7.579-33.805,15.419-3.285,26.15-2.4,28.452-20.73s13.7-28.947,31.276-26.4c18.495,2.675,35.305-19.472,49.992-10.4,25.592,15.808-1.171,54.42-34.209,63.534s-15.285,21.625-15.433,36.766c-.2,20.672-29.3,13.866-37.61,21.312C1875.819,1860.945,1876.357,1869.781,1877.406,1875.249Z" transform="translate(-1835.168 -1731.299)" fill="none"/>
    </clipPath>
    <clipPath id="clip-path-4">
      <path id="Trazado_149933" data-name="Trazado 149933" d="M1834.152,1847.618l14.982-24.187s-9.588-12.238-22.016-11.735c-25.356,1.029-24.487-21.251-25.518-30.637-1.556-14.155-8.595-24.327-21.95-16.736-15.11,8.589-26.861-14.509-26.08-37.731.766-22.725-39.189-37.2-45.361,11.835-3.686,29.282,22.715,40.691,34.677,49.621s1.362,28.383,20.793,31.514c16.6,2.674,32.687-1.812,36.821,11.777S1814.293,1852.051,1834.152,1847.618Z" transform="translate(-1707.86 -1705.591)" fill="url(#linear-gradient-2)"/>
    </clipPath>
    <linearGradient id="linear-gradient-8" x1="16.335" y1="-73.242" x2="16.759" y2="-70.478" gradientUnits="objectBoundingBox">
      <stop offset="0.004" stop-color="#76beae"/>
      <stop offset="1" stop-color="#78d160"/>
    </linearGradient>
    <clipPath id="clip-path-5">
      <path id="Trazado_149943" data-name="Trazado 149943" d="M1852.526,1820.4l2.158,25.4s-14.171,11.853-21.329,4.758-21.582,1.813-29.805,5.591c-22.311,10.248-29.1-17.416-58.8-6.738-7.9,2.84-22.022,11.122-30.693,6.169-9.878-5.643-4.83-14.184-12.565-17.313-12.092-4.89-19.875-17.095-12.873-28.569,6.911-11.325,29.009-8.563,52.09,9.79,17.9,11.181,21.787,10.055,30.641,5.474,6.2-3.21,20.89-16.018,30.788-8.9s19.6,11.788,25.712,5.465C1837.155,1811.905,1852.526,1820.4,1852.526,1820.4Z" transform="translate(-1685.973 -1802.965)" fill="none"/>
    </clipPath>
    <linearGradient id="linear-gradient-9" x1="57.008" y1="-41.679" x2="57.512" y2="-40.423" gradientUnits="objectBoundingBox">
      <stop offset="0" stop-color="#77d46d"/>
      <stop offset="0.996" stop-color="#91b250"/>
    </linearGradient>
    <clipPath id="clip-path-6">
      <path id="Trazado_149950" data-name="Trazado 149950" d="M1845.941,1823.115l6.238,39.974c-4.972,3.234-14.351,7.88-18.083-.071-5.189-11.054-24.539-7.892-30.846-3.483-7.807,5.458-26.23,17.768-34.5.811-6.888-14.115-8.617-24.7-26.891-22.516s-31.282-6.278-33.055-23.88c-1.866-18.523-27.322-29.443-22.086-45.826,9.122-28.545,52.892-11.967,69.656,17.778s24.584,9.573,39.258,6.072c20.032-4.78,20.457,24.986,29.656,31.227C1832.495,1828.093,1840.907,1825.446,1845.941,1823.115Z" transform="translate(-1686.006 -1753.346)" fill="none"/>
    </clipPath>
    <linearGradient id="linear-gradient-10" y1="0.5" x2="1" y2="0.5" gradientUnits="objectBoundingBox">
      <stop offset="0" stop-color="#fff"/>
      <stop offset="0.996" stop-color="#ebeff2"/>
    </linearGradient>
    <linearGradient id="linear-gradient-11" x1="0.507" y1="-1.064" x2="0.495" y2="1.512" gradientUnits="objectBoundingBox">
      <stop offset="0" stop-color="#ff9085"/>
      <stop offset="1" stop-color="#fb6fbb"/>
    </linearGradient>
    <linearGradient id="linear-gradient-12" x1="0.76" y1="-0.091" x2="-0.082" y2="2.144" gradientUnits="objectBoundingBox">
      <stop offset="0" stop-color="#97f980"/>
      <stop offset="0.996" stop-color="#bbd761"/>
    </linearGradient>
    <linearGradient id="linear-gradient-13" x1="0.568" y1="-2.001" x2="0.457" y2="5.136" gradientUnits="objectBoundingBox">
      <stop offset="0" stop-color="#828c44"/>
      <stop offset="0.996" stop-color="#434f26"/>
    </linearGradient>
    <linearGradient id="linear-gradient-14" x1="0.707" y1="0.244" x2="0.2" y2="1.522" xlink:href="#linear-gradient-13"/>
    <linearGradient id="linear-gradient-15" x1="-3.091" y1="-10.739" x2="2.525" y2="9.497" xlink:href="#linear-gradient-13"/>
    <linearGradient id="linear-gradient-16" x1="-0.563" y1="-1.633" x2="5.053" y2="18.641" gradientUnits="objectBoundingBox">
      <stop offset="0" stop-color="#ff5147"/>
      <stop offset="1" stop-color="#fb9893"/>
    </linearGradient>
    <linearGradient id="linear-gradient-17" x1="-1.176" y1="-3.825" x2="4.44" y2="16.353" xlink:href="#linear-gradient-16"/>
    <linearGradient id="linear-gradient-18" x1="-1.789" y1="-5.995" x2="3.827" y2="14.085" xlink:href="#linear-gradient-16"/>
    <linearGradient id="linear-gradient-19" x1="-4.321" y1="-14.975" x2="1.295" y2="5.009" xlink:href="#linear-gradient-13"/>
    <linearGradient id="linear-gradient-20" x1="0.474" y1="1.227" x2="1.282" y2="6.502" gradientUnits="objectBoundingBox">
      <stop offset="0" stop-color="#444b8c"/>
      <stop offset="0.996" stop-color="#26264f"/>
    </linearGradient>
    <linearGradient id="linear-gradient-21" x1="0.219" y1="-0.436" x2="1.032" y2="4.773" xlink:href="#linear-gradient-20"/>
    <linearGradient id="linear-gradient-22" x1="0.353" y1="0.436" x2="1.155" y2="5.557" xlink:href="#linear-gradient-20"/>
    <linearGradient id="linear-gradient-23" x1="0.099" y1="-1.17" x2="0.906" y2="3.89" xlink:href="#linear-gradient-20"/>
    <linearGradient id="linear-gradient-24" x1="1.043" y1="1.388" x2="0.324" y2="4.404" xlink:href="#linear-gradient-12"/>
    <linearGradient id="linear-gradient-25" x1="0.01" y1="0.141" x2="1.393" y2="1.5" xlink:href="#linear-gradient-13"/>
    <linearGradient id="linear-gradient-26" x1="0.396" y1="3.149" x2="2.245" y2="6.91" xlink:href="#linear-gradient-12"/>
    <linearGradient id="linear-gradient-27" x1="0.397" y1="3.155" x2="2.243" y2="6.916" xlink:href="#linear-gradient-12"/>
    <linearGradient id="linear-gradient-28" x1="0.397" y1="3.152" x2="2.241" y2="6.903" xlink:href="#linear-gradient-12"/>
    <linearGradient id="linear-gradient-29" x1="1.064" y1="0.23" x2="-0.06" y2="1.214" xlink:href="#linear-gradient"/>
    <linearGradient id="linear-gradient-30" x1="-36.969" y1="20.989" x2="-35.918" y2="22.438" xlink:href="#linear-gradient-20"/>
    <linearGradient id="linear-gradient-31" x1="-319.627" y1="116.672" x2="-319.627" y2="115.257" xlink:href="#linear-gradient"/>
    <linearGradient id="linear-gradient-32" x1="-46.338" y1="25.438" x2="-45.006" y2="27.227" xlink:href="#linear-gradient-20"/>
    <linearGradient id="linear-gradient-33" x1="7.113" y1="-0.514" x2="8.207" y2="0.793" xlink:href="#linear-gradient-20"/>
    <linearGradient id="linear-gradient-34" x1="-165.385" y1="85.759" x2="-165.385" y2="84.395" xlink:href="#linear-gradient"/>
    <linearGradient id="linear-gradient-35" x1="9.365" y1="-1.298" x2="10.725" y2="0.479" xlink:href="#linear-gradient-20"/>
    <linearGradient id="linear-gradient-36" x1="-870.514" y1="0.168" x2="-871.203" y2="1.411" xlink:href="#linear-gradient"/>
    <linearGradient id="linear-gradient-37" x1="-65.25" y1="0.278" x2="-64.637" y2="0.68" gradientUnits="objectBoundingBox">
      <stop offset="0.004" stop-color="#e38f8c"/>
      <stop offset="1" stop-color="#f63333"/>
    </linearGradient>
    <linearGradient id="linear-gradient-38" x1="70.658" y1="26.911" x2="71.838" y2="28.459" xlink:href="#linear-gradient"/>
    <linearGradient id="linear-gradient-39" x1="762.512" y1="211.719" x2="776.839" y2="225.507" xlink:href="#linear-gradient"/>
    <linearGradient id="linear-gradient-40" x1="-80.619" y1="0.253" x2="-79.865" y2="0.79" xlink:href="#linear-gradient-37"/>
    <linearGradient id="linear-gradient-41" x1="-120.983" y1="0.574" x2="-119.861" y2="1.364" xlink:href="#linear-gradient-37"/>
    <linearGradient id="linear-gradient-42" x1="-52.052" y1="0.132" x2="-52.456" y2="0.499" xlink:href="#linear-gradient-20"/>
    <linearGradient id="linear-gradient-43" x1="-53.124" y1="0.5" x2="-52.124" y2="0.5" xlink:href="#linear-gradient-20"/>
    <linearGradient id="linear-gradient-44" y1="0.5" x2="1" y2="0.5" gradientUnits="objectBoundingBox">
      <stop offset="0" stop-color="#8c4445"/>
      <stop offset="0.996" stop-color="#4f2926"/>
    </linearGradient>
    <linearGradient id="linear-gradient-45" y1="0.5" x2="1" y2="0.5" gradientUnits="objectBoundingBox">
      <stop offset="0" stop-color="#f9a580"/>
      <stop offset="0.996" stop-color="#d76661"/>
    </linearGradient>
    <linearGradient id="linear-gradient-46" x1="-98.679" y1="0.5" x2="-97.679" y2="0.5" xlink:href="#linear-gradient-45"/>
    <linearGradient id="linear-gradient-47" x1="-747.211" y1="0.5" x2="-746.211" y2="0.5" xlink:href="#linear-gradient-45"/>
    <linearGradient id="linear-gradient-48" y1="0.5" x2="1" y2="0.5" gradientUnits="objectBoundingBox">
      <stop offset="0" stop-color="#448c4d"/>
      <stop offset="0.996" stop-color="#264f31"/>
    </linearGradient>
    <linearGradient id="linear-gradient-50" x1="81.099" y1="-2.569" x2="81.266" y2="2.836" gradientUnits="objectBoundingBox">
      <stop offset="0.004" stop-color="#26264f"/>
      <stop offset="1" stop-color="#444b8c"/>
    </linearGradient>
    <linearGradient id="linear-gradient-51" x1="-210.662" y1="-55.684" x2="-210.777" y2="-62.183" xlink:href="#linear-gradient"/>
    <linearGradient id="linear-gradient-52" x1="81.098" y1="-2.569" x2="81.264" y2="2.836" xlink:href="#linear-gradient-50"/>
    <linearGradient id="linear-gradient-53" x1="-210.553" y1="-54.766" x2="-210.668" y2="-61.264" xlink:href="#linear-gradient"/>
    <linearGradient id="linear-gradient-54" x1="0.74" y1="-0.103" x2="0.57" y2="0.191" gradientUnits="objectBoundingBox">
      <stop offset="0" stop-color="#893976"/>
      <stop offset="1" stop-color="#311944"/>
    </linearGradient>
    <linearGradient id="linear-gradient-55" x1="0" y1="0.5" x2="1" y2="0.5" xlink:href="#linear-gradient-54"/>
    <linearGradient id="linear-gradient-56" x1="0.155" y1="0.296" x2="0.802" y2="0.712" xlink:href="#linear-gradient-11"/>
    <linearGradient id="linear-gradient-57" x1="0.521" y1="0.074" x2="0.461" y2="1.2" xlink:href="#linear-gradient"/>
    <linearGradient id="linear-gradient-58" x1="265.639" y1="-30.354" x2="266.82" y2="-28.806" xlink:href="#linear-gradient"/>
    <linearGradient id="linear-gradient-59" x1="2880.711" y1="-245.159" x2="2895.023" y2="-231.37" xlink:href="#linear-gradient"/>
    <linearGradient id="linear-gradient-60" x1="-0.124" y1="0.253" x2="0.63" y2="0.79" xlink:href="#linear-gradient-11"/>
    <linearGradient id="linear-gradient-61" x1="0.672" y1="0.619" x2="1.587" y2="1.527" xlink:href="#linear-gradient-11"/>
    <linearGradient id="linear-gradient-62" y1="0.5" x2="1" y2="0.5" gradientUnits="objectBoundingBox">
      <stop offset="0" stop-color="#8c444f"/>
      <stop offset="0.996" stop-color="#4f2626"/>
    </linearGradient>
    <linearGradient id="linear-gradient-63" y1="0.5" x2="1" y2="0.5" gradientUnits="objectBoundingBox">
      <stop offset="0" stop-color="#f99e80"/>
      <stop offset="0.996" stop-color="#d76167"/>
    </linearGradient>
    <linearGradient id="linear-gradient-64" x1="2.469" y1="0.5" x2="3.469" y2="0.5" xlink:href="#linear-gradient-63"/>
    <linearGradient id="linear-gradient-65" x1="18.662" y1="0.5" x2="19.662" y2="0.5" xlink:href="#linear-gradient-63"/>
  </defs>
  <g id="Visual_storytelling" data-name="Visual storytelling" transform="translate(-1685.973 -1701.289)">
    <path id="Trazado_149898" data-name="Trazado 149898" d="M1845.464,1705.994c-33.394,13.279-36.593,47.22-66.66,50.133-26.2,2.537-36.157-22.031-54.54-17.63-28,6.706-45.608,73.467-34.362,128.361,11.612,56.682,60.405,132.033,141.237,137.176,90.753,5.773,159.42-80.926,163.614-157.009.453-8.227,3.131-77.168-49.575-117.894C1942.544,1727.1,1890.607,1688.045,1845.464,1705.994Z" transform="translate(0.091)" opacity="0.1" fill="url(#linear-gradient-3)"/>
    <g id="Grupo_94119" data-name="Grupo 94119" transform="translate(1685.973 1706.388)">
      <g id="Grupo_94097" data-name="Grupo 94097" transform="translate(148.888 84.716)">
        <g id="Grupo_94096" data-name="Grupo 94096">
          <path id="Trazado_149899" data-name="Trazado 149899" d="M1816.424,1872.5l-4.826-28.148s13.531-7.774,24.9-2.623c23.2,10.509,30.788-10.547,35.284-18.891,6.781-12.583,17.161-19.4,26.726-7.3,10.822,13.684,30.457-3.379,38.479-25.279,7.849-21.431,50.475-19.844,37.743,28.1-7.6,28.633-36.463,29.3-50.957,33.1s-11.96,25.894-31.218,21.486c-16.45-3.765-29.729-14-38.694-2.916S1833.231,1884.1,1816.424,1872.5Z" transform="translate(-1811.598 -1777.07)" fill="url(#linear-gradient)"/>
          <g id="Grupo_94095" data-name="Grupo 94095" clip-path="url(#clip-path)">
            <g id="Grupo_94094" data-name="Grupo 94094" transform="translate(0.126 -6.47)" opacity="0.5" style="mix-blend-mode: soft-light;isolation: isolate">
              <path id="Trazado_149900" data-name="Trazado 149900" d="M1811.7,1861.775l.006-.6c.375,0,37.759.3,74.908-10.583,34.223-10.025,75.245-31.866,76.316-78.978l.6.014c-.476,20.972-8.773,38.765-24.656,52.885-12.687,11.28-30.219,20.25-52.105,26.661C1849.541,1862.076,1812.077,1861.779,1811.7,1861.775Z" transform="translate(-1811.704 -1771.611)" fill="#beb8f2"/>
              <path id="Trazado_149901" data-name="Trazado 149901" d="M1913.2,1823.154l-.027-.6c20.045-.921,46.642-13.178,46.908-13.3l.254.546C1960.066,1809.922,1933.362,1822.228,1913.2,1823.154Z" transform="translate(-1792.914 -1764.641)" fill="#beb8f2"/>
              <path id="Trazado_149902" data-name="Trazado 149902" d="M1921.945,1819.09c9.033-22.14-.151-39.8-.244-39.98l.531-.283c.1.178,9.415,18.079.271,40.491Z" transform="translate(-1791.334 -1770.275)" fill="#beb8f2"/>
              <path id="Trazado_149903" data-name="Trazado 149903" d="M1854.093,1851.134c26.878-11.446,27.215-50.728,27.187-51.112l.6-.084c.064.373-.431,40.2-27.546,51.751Z" transform="translate(-1803.854 -1766.365)" fill="#beb8f2"/>
              <path id="Trazado_149904" data-name="Trazado 149904" d="M1864.136,1841.667l.021-.6c18.63.658,34.353,18.048,34.509,18.223l-.449.4C1898.062,1859.515,1882.506,1842.314,1864.136,1841.667Z" transform="translate(-1801.994 -1758.75)" fill="#beb8f2"/>
              <path id="Trazado_149905" data-name="Trazado 149905" d="M1816.674,1850.225c10.758-2.726,16.723-19.775,16.782-19.947l.57.2c-.245.715-6.13,17.529-17.2,20.335Z" transform="translate(-1810.784 -1760.747)" fill="#beb8f2"/>
              <path id="Trazado_149906" data-name="Trazado 149906" d="M1824.143,1847.361v-.6c8.774-.006,20.48,11.251,24.327,14.951.544.522,1.012.974,1.112,1.038l-.319.511a13.981,13.981,0,0,1-1.211-1.114C1844.249,1858.486,1832.674,1847.355,1824.143,1847.361Z" transform="translate(-1809.401 -1757.695)" fill="#beb8f2"/>
            </g>
          </g>
        </g>
      </g>
      <g id="Grupo_94101" data-name="Grupo 94101" transform="translate(42.917 3.571)">
        <path id="Trazado_149908" data-name="Trazado 149908" d="M1755.963,1846.587c4.09,6.552,1.554,13.6-1.08,18.41a7.8,7.8,0,0,0-1.881.507c-6.592,2.028-9.837,1.489-16.651,2.462-1.467.209-5.959-.486-7.776-.888l-3.375-.8s-7.5-16.116,1.15-21.368,3.468-21.462,1.784-30.387c-1.035-5.48.248-8.319.191-10.393-.6-21.965-7.749-27.869-3.557-35.131,4.628-8.018,14.663-3.118,20.157-11.573,6.2-9.548-2.425-22.207,5.466-29.931a14.476,14.476,0,0,1,5.132-3.564c5.809-2.261,10.95.793,14.778-4.477,7.7-10.591,21.472-15.212,30.949-5.609,9.355,9.477,1.306,30.332-22.168,48.362-15.232,14.725-15.078,18.782-12.763,28.517,1.623,6.818,10.536,24.232,1.2,32.147S1751.287,1839.1,1755.963,1846.587Z" transform="translate(-1722.185 -1708.604)" fill="url(#linear-gradient-5)"/>
        <g id="Grupo_94100" data-name="Grupo 94100" transform="translate(0.178)">
          <g id="Grupo_94099" data-name="Grupo 94099" clip-path="url(#clip-path-2)">
            <g id="Grupo_94098" data-name="Grupo 94098" transform="translate(1.106 -4.003)" opacity="0.5" style="mix-blend-mode: soft-light;isolation: isolate">
              <path id="Trazado_149909" data-name="Trazado 149909" d="M1737.253,1868.58l-.506-.02c.088-2.8.213-5.621.375-8.386a272.9,272.9,0,0,1,9.542-58.26,222.773,222.773,0,0,1,17.241-43.424,191.746,191.746,0,0,1,19.477-29.91,158.709,158.709,0,0,1,15.93-17.3c.957-.89,1.989-1.749,2.988-2.58,1.331-1.107,2.707-2.252,3.912-3.476l.377.319c-1.222,1.242-2.608,2.4-3.947,3.509-.994.827-2.022,1.682-2.969,2.562a158.381,158.381,0,0,0-15.883,17.244,191.453,191.453,0,0,0-19.431,29.838,222.449,222.449,0,0,0-17.205,43.339,272.494,272.494,0,0,0-9.526,58.167C1737.468,1862.967,1737.341,1865.784,1737.253,1868.58Z" transform="translate(-1720.772 -1705.227)" fill="#fefefc"/>
              <path id="Trazado_149910" data-name="Trazado 149910" d="M1754.141,1772.608l-.478-.166c7.336-18.9-4.193-51.944-4.31-52.275l.483-.141C1749.953,1720.359,1761.537,1753.557,1754.141,1772.608Z" transform="translate(-1718.437 -1702.486)" fill="#fefefc"/>
              <path id="Trazado_149911" data-name="Trazado 149911" d="M1740.393,1814.478l-.493-.113c3.356-13.407,28.648-25.449,28.9-25.569l.235.42C1768.785,1789.335,1743.7,1801.28,1740.393,1814.478Z" transform="translate(-1720.188 -1689.751)" fill="#fefefc"/>
              <path id="Trazado_149912" data-name="Trazado 149912" d="M1741.45,1822.691l-.506-.03c.481-9-4.05-21.574-12.757-35.416-.438-.7-.438-.7-.435-.785l.507.024-.254-.012.237-.076c.024.048.19.312.382.616C1737.381,1800.933,1741.938,1813.6,1741.45,1822.691Z" transform="translate(-1722.438 -1690.196)" fill="#fefefc"/>
              <path id="Trazado_149913" data-name="Trazado 149913" d="M1737.451,1840.969l-.479-.163c3.569-9.311,18.548-14,18.7-14.044l.166.447C1755.687,1827.253,1740.938,1831.87,1737.451,1840.969Z" transform="translate(-1720.73 -1682.721)" fill="#fefefc"/>
              <path id="Trazado_149914" data-name="Trazado 149914" d="M1738.991,1846.628c-2.7-7.641-7.844-14.845-15.723-22.024l.353-.333c7.939,7.234,13.125,14.5,15.85,22.216Z" transform="translate(-1723.268 -1683.182)" fill="#fefefc"/>
              <path id="Trazado_149915" data-name="Trazado 149915" d="M1773,1734.045l-.467-.19c4.713-10.289,7.078-22.145,7.854-26.041.189-.943.256-1.275.3-1.387l.475.171c-.033.085-.141.625-.277,1.307C1780.109,1711.815,1777.737,1723.709,1773,1734.045Z" transform="translate(-1714.144 -1705.005)" fill="#fefefc"/>
              <path id="Trazado_149916" data-name="Trazado 149916" d="M1764.257,1744.455l-.388-.308c7.308-7.97,29.957-9.422,30.917-9.48l.041.469C1794.594,1735.15,1771.428,1736.633,1764.257,1744.455Z" transform="translate(-1715.749 -1699.775)" fill="#fefefc"/>
            </g>
          </g>
        </g>
      </g>
      <g id="Grupo_94105" data-name="Grupo 94105" transform="translate(176.495 30.469)">
        <path id="Trazado_149918" data-name="Trazado 149918" d="M1871.962,1879.723c-1.716-.361-10,14.611-14.107,2.741-1.028-2.965-1.652-12.984-14.464-14.49l-7.461-.877c-1.689-5.778-2.209-11.537,5.534-13.064,12.025-2.373,13.639-21.987,10.873-29.2-3.422-8.927-10.944-29.858,7.578-33.805,15.42-3.285,26.151-2.4,28.454-20.73s13.7-28.947,31.276-26.4c18.495,2.675,35.305-19.472,49.992-10.4,25.592,15.808-1.171,54.421-34.209,63.534s-15.285,21.625-15.433,36.766a26.2,26.2,0,0,1-1.132,6.081c-4.834,15.424-21.46,16.792-34.245,28.7C1867.183,1884.816,1874.854,1880.332,1871.962,1879.723Z" transform="translate(-1834.891 -1731.299)" fill="url(#linear-gradient-6)"/>
        <g id="Grupo_94104" data-name="Grupo 94104" transform="translate(0.328)">
          <g id="Grupo_94103" data-name="Grupo 94103" clip-path="url(#clip-path-3)">
            <g id="Grupo_94102" data-name="Grupo 94102" transform="translate(16.131 6.341)" opacity="0.5" style="mix-blend-mode: soft-light;isolation: isolate">
              <path id="Trazado_149919" data-name="Trazado 149919" d="M1855.256,1866.535l-.849-.237c16.9-58.377,63.788-108.056,122.381-129.648l.334.777C1918.776,1758.928,1872.079,1808.4,1855.256,1866.535Z" transform="translate(-1847.735 -1736.649)" fill="#fefefc"/>
              <path id="Trazado_149920" data-name="Trazado 149920" d="M1868.4,1827.116l-.877-.075c1.7-23.836-18.543-44.255-18.749-44.457l.629-.568C1849.615,1782.222,1870.128,1802.9,1868.4,1827.116Z" transform="translate(-1848.778 -1728.248)" fill="#fefefc"/>
              <path id="Trazado_149921" data-name="Trazado 149921" d="M1858.123,1840.337l-.743-.459c13.642-20.234,60.26-19.288,60.729-19.276l0,.833C1917.641,1821.424,1871.505,1820.489,1858.123,1840.337Z" transform="translate(-1847.185 -1721.104)" fill="#fefefc"/>
              <path id="Trazado_149922" data-name="Trazado 149922" d="M1894.991,1785.921l-.781-.4c9.315-16.9-.888-45-.992-45.278l.828-.259C1894.152,1740.272,1904.478,1768.71,1894.991,1785.921Z" transform="translate(-1840.549 -1736.031)" fill="#fefefc"/>
              <path id="Trazado_149923" data-name="Trazado 149923" d="M1920.057,1757.969l-.409-.745c20.483-9.761,50.494-.845,50.795-.754l-.25.793C1969.895,1757.172,1940.22,1748.36,1920.057,1757.969Z" transform="translate(-1835.654 -1733.684)" fill="#fefefc"/>
            </g>
          </g>
        </g>
      </g>
      <g id="Grupo_94118" data-name="Grupo 94118">
        <g id="Grupo_94109" data-name="Grupo 94109" transform="translate(25.94)">
          <g id="Grupo_94108" data-name="Grupo 94108">
            <path id="Trazado_149925" data-name="Trazado 149925" d="M1834.152,1847.618l14.982-24.187s-9.588-12.238-22.016-11.735c-25.356,1.029-24.487-21.251-25.518-30.637-1.556-14.155-8.595-24.327-21.95-16.736-15.11,8.589-26.861-14.509-26.08-37.731.766-22.725-39.189-37.2-45.361,11.835-3.686,29.282,22.715,40.691,34.677,49.621s1.362,28.383,20.793,31.514c16.6,2.674,32.687-1.812,36.821,11.777S1814.293,1852.051,1834.152,1847.618Z" transform="translate(-1707.86 -1705.591)" fill="url(#linear-gradient-2)"/>
            <g id="Grupo_94107" data-name="Grupo 94107" clip-path="url(#clip-path-4)">
              <g id="Grupo_94106" data-name="Grupo 94106" transform="translate(-2.75 -7.072)" opacity="0.5" style="mix-blend-mode: soft-light;isolation: isolate">
                <path id="Trazado_149926" data-name="Trazado 149926" d="M1839.188,1839.645l.219-.559c-.346-.135-34.978-13.842-65.214-37.782-27.854-22.055-57.568-57.562-40.941-101.466l-.562-.213c-7.4,19.545-6.4,39.077,2.993,58.056,7.5,15.16,20.333,30,38.146,44.1C1804.136,1825.775,1838.841,1839.509,1839.188,1839.645Z" transform="translate(-1701.418 -1699.624)" fill="#beb8f2"/>
                <path id="Trazado_149927" data-name="Trazado 149927" d="M1744.072,1759.9l.25-.545c-18.165-8.347-38.143-29.609-38.342-29.824l-.44.41C1705.742,1730.158,1725.8,1751.508,1744.072,1759.9Z" transform="translate(-1705.54 -1694.086)" fill="#beb8f2"/>
                <path id="Trazado_149928" data-name="Trazado 149928" d="M1733.16,1750.169c-.063-23.822,15.022-36.7,15.175-36.826l-.385-.461c-.156.129-15.455,13.175-15.391,37.288Z" transform="translate(-1700.537 -1697.169)" fill="#beb8f2"/>
                <path id="Trazado_149929" data-name="Trazado 149929" d="M1786.154,1806.723c-20.538-20.62-6.163-57.02-5.993-57.363l-.519-.3c-.2.321-14.634,37.285,6.087,58.089Z" transform="translate(-1692.758 -1690.469)" fill="#beb8f2"/>
                <path id="Trazado_149930" data-name="Trazado 149930" d="M1781.665,1792.93l.2-.564c-17.448-6.36-38.47,3.82-38.68,3.924l.266.538C1743.663,1796.726,1764.459,1786.659,1781.665,1792.93Z" transform="translate(-1698.568 -1682.837)" fill="#beb8f2"/>
                <path id="Trazado_149931" data-name="Trazado 149931" d="M1818.767,1819.238c-8.915-6.54-8.047-24.513-8.038-24.695l-.6-.032c-.042.75-.895,18.479,8.282,25.211Z" transform="translate(-1686.179 -1682.052)" fill="#beb8f2"/>
                <path id="Trazado_149932" data-name="Trazado 149932" d="M1815.023,1812.965l.226-.556c-8.1-3.287-23.12,2.732-28.056,4.709-.7.28-1.3.521-1.415.543l.1.592a14.021,14.021,0,0,0,1.536-.576C1792.3,1815.721,1807.148,1809.77,1815.023,1812.965Z" transform="translate(-1690.681 -1678.916)" fill="#beb8f2"/>
              </g>
            </g>
          </g>
        </g>
        <g id="Grupo_94113" data-name="Grupo 94113" transform="translate(0 115.406)">
          <path id="Trazado_149934" data-name="Trazado 149934" d="M1827.851,1821.526c5.348-5.531,12.772-4.775,18.056-3.387a7.8,7.8,0,0,0,.943,1.7c3.547,5.886,3.807,9.152,6.387,15.5.556,1.368.966,5.877,1.014,7.731l.037,3.456s-13.777,11.127-20.934,4.032-21.582,1.813-29.805,5.591c-5.05,2.319-8.1,1.762-10.094,2.317-21.089,5.868-25.076,14.2-33.106,11.894-8.865-2.543-6.543-13.424-16.04-16.7-10.725-3.7-20.885,7.69-30.251,1.921a14.411,14.411,0,0,1-4.68-4.1c-3.585-5.07-1.87-10.776-7.885-13.209-12.092-4.89-19.875-17.095-12.873-28.569,6.911-11.325,29.009-8.563,52.09,9.79,17.9,11.181,21.787,10.055,30.641,5.474,6.2-3.21,20.89-16.018,30.788-8.9S1821.737,1827.849,1827.851,1821.526Z" transform="translate(-1685.973 -1802.965)" fill="url(#linear-gradient-8)"/>
          <g id="Grupo_94112" data-name="Grupo 94112">
            <g id="Grupo_94111" data-name="Grupo 94111" clip-path="url(#clip-path-5)">
              <g id="Grupo_94110" data-name="Grupo 94110" transform="translate(-8.129 -0.805)" opacity="0.5" style="mix-blend-mode: soft-light;isolation: isolate">
                <path id="Trazado_149935" data-name="Trazado 149935" d="M1853.632,1831.689l.1.494c-2.727.589-5.485,1.146-8.2,1.657a271.854,271.854,0,0,1-58.62,4.8,222.021,222.021,0,0,1-46.129-6.214,191.152,191.152,0,0,1-33.6-11.63,158.3,158.3,0,0,1-20.555-11.237c-1.089-.711-2.169-1.5-3.213-2.269-1.39-1.019-2.828-2.074-4.3-2.945l.218-.441c1.5.883,2.943,1.945,4.343,2.971,1.038.762,2.112,1.549,3.192,2.253a157.85,157.85,0,0,0,20.493,11.2,190.643,190.643,0,0,0,33.524,11.6,221.527,221.527,0,0,0,46.037,6.2,271.374,271.374,0,0,0,58.526-4.792C1848.154,1832.833,1850.909,1832.277,1853.632,1831.689Z" transform="translate(-1679.114 -1801.985)" fill="#d9d9d7"/>
                <path id="Trazado_149936" data-name="Trazado 149936" d="M1754.192,1830.641l-.044.5c-20.037-2.543-49.208,16.557-49.5,16.75l-.251-.432C1704.691,1847.266,1734,1828.077,1754.192,1830.641Z" transform="translate(-1674.432 -1797.078)" fill="#d9d9d7"/>
                <path id="Trazado_149937" data-name="Trazado 149937" d="M1799.048,1835.532l.01.5c-13.769-.018-31.5-21.57-31.677-21.787l.35-.328C1767.908,1814.137,1785.494,1835.515,1799.048,1835.532Z" transform="translate(-1662.768 -1800.13)" fill="#d9d9d7"/>
                <path id="Trazado_149938" data-name="Trazado 149938" d="M1805.666,1831.55l.092.5c-8.812,1.7-19.881,9.107-31.166,20.857-.568.591-.568.591-.655.609l-.1-.5.05.248-.132-.211c.043-.036.257-.258.5-.517C1785.611,1840.721,1796.764,1833.267,1805.666,1831.55Z" transform="translate(-1661.588 -1796.866)" fill="#d9d9d7"/>
                <path id="Trazado_149939" data-name="Trazado 149939" d="M1824.983,1830.45l-.043.5c-9.861-1.209-18-14.561-18.079-14.7l.392-.268C1807.334,1816.121,1815.348,1829.269,1824.983,1830.45Z" transform="translate(-1655.457 -1799.748)" fill="#d9d9d7"/>
                <path id="Trazado_149940" data-name="Trazado 149940" d="M1829.393,1828.015c-6.736,4.449-12.463,11.155-17.506,20.5l-.408-.261c5.083-9.418,10.86-16.179,17.663-20.672Z" transform="translate(-1654.602 -1797.6)" fill="#d9d9d7"/>
                <path id="Trazado_149941" data-name="Trazado 149941" d="M1712.662,1820.3l-.071.5c-11.08-2.081-23.112-1.512-27.066-1.326-.956.046-1.294.06-1.413.044l.052-.5c.09.012.637-.014,1.33-.047C1689.461,1818.783,1701.531,1818.213,1712.662,1820.3Z" transform="translate(-1678.188 -1799.235)" fill="#d9d9d7"/>
                <path id="Trazado_149942" data-name="Trazado 149942" d="M1725.687,1829.594l-.2.449c-9.465-5.146-16.32-26.693-16.608-27.607l.444-.151C1709.389,1802.507,1716.4,1824.544,1725.687,1829.594Z" transform="translate(-1673.603 -1802.285)" fill="#d9d9d7"/>
              </g>
            </g>
          </g>
        </g>
        <g id="Grupo_94117" data-name="Grupo 94117" transform="translate(0.038 56.599)">
          <path id="Trazado_149944" data-name="Trazado 149944" d="M1851.589,1827.35c.063,1.746,16.532,6.15,6.046,12.979-2.619,1.707-12.154,4.723-10.526,17.471q.473,3.712.947,7.424c-5.179,3.022-10.62,4.912-13.961-2.206-5.189-11.054-24.539-7.892-30.846-3.483-7.807,5.458-26.23,17.768-34.5.812-6.888-14.117-8.617-24.7-26.891-22.518s-31.282-6.278-33.055-23.88c-1.865-18.523-27.321-29.443-22.086-45.826,9.122-28.545,52.892-11.967,69.656,17.779s24.584,9.572,39.258,6.071a26.041,26.041,0,0,1,6.151-.37c16.075.961,21.4,16.7,35.987,26.2C1857.662,1830.745,1851.481,1824.408,1851.589,1827.35Z" transform="translate(-1686.006 -1753.346)" fill="url(#linear-gradient-9)"/>
          <g id="Grupo_94116" data-name="Grupo 94116">
            <g id="Grupo_94115" data-name="Grupo 94115" clip-path="url(#clip-path-6)">
              <g id="Grupo_94114" data-name="Grupo 94114" transform="translate(2.124 -7.658)" opacity="0.5" style="mix-blend-mode: soft-light;isolation: isolate">
                <path id="Trazado_149945" data-name="Trazado 149945" d="M1842.616,1842.5l-.025.876c-60.5-2.279-119.815-35.655-154.793-87.1l.671-.51C1723.3,1806.992,1782.366,1840.227,1842.616,1842.5Z" transform="translate(-1687.798 -1745.241)" fill="#d9d9d7"/>
                <path id="Trazado_149946" data-name="Trazado 149946" d="M1796.765,1825.37l.139.865c-23.452,4.1-38.318,28.58-38.465,28.826l-.7-.472C1757.886,1854.339,1772.944,1829.53,1796.765,1825.37Z" transform="translate(-1674.846 -1732.351)" fill="#d9d9d7"/>
                <path id="Trazado_149947" data-name="Trazado 149947" d="M1814.28,1836.669l-.265.828c-22.843-8.318-33.15-53.612-33.252-54.068l.806-.2C1781.67,1783.685,1791.87,1828.51,1814.28,1836.669Z" transform="translate(-1670.582 -1740.154)" fill="#d9d9d7"/>
                <path id="Trazado_149948" data-name="Trazado 149948" d="M1750.549,1807.063l-.2.851c-18.579-4.937-43.285,11.69-43.533,11.858l-.45-.739C1706.619,1818.863,1731.627,1802.035,1750.549,1807.063Z" transform="translate(-1684.359 -1735.915)" fill="#d9d9d7"/>
                <path id="Trazado_149949" data-name="Trazado 149949" d="M1718.8,1795.233l-.622.575c-14.367-17.451-12.971-48.61-12.955-48.923l.827.051C1706.035,1747.245,1704.659,1778.054,1718.8,1795.233Z" transform="translate(-1684.579 -1746.885)" fill="#d9d9d7"/>
              </g>
            </g>
          </g>
        </g>
      </g>
    </g>
    <g id="Grupo_94144" data-name="Grupo 94144" transform="translate(1719.722 1741.382)">
      <path id="Trazado_149951" data-name="Trazado 149951" d="M1956.87,1753.865a12.405,12.405,0,0,0-9.039-12.141c-.184-.046-.388-.088-.575-.123a10.793,10.793,0,0,0-1.729-.19l-108.856-3.144-108.853-3.144c-.23-.006-.46-.007-.687,0a13.009,13.009,0,0,0-7.738,2.732c-.038.031-.078.06-.117.091q-.459.366-.884.773l-.02.019c-.167.16-.328.327-.487.5a12.792,12.792,0,0,0-3.435,8.769v9.512h0v149.3a12.941,12.941,0,0,0,.423,3.3,12.611,12.611,0,0,0,.63,1.825,12.742,12.742,0,0,0,9.6,7.473,13.263,13.263,0,0,0,2.718.177l166-6.065h0l51.742-1.889c6.24-.228,11.315-5.842,11.315-12.539V1762.564h0Z" transform="translate(-1714.449 -1735.117)" fill="#d8dee8"/>
      <g id="Grupo_94143" data-name="Grupo 94143" transform="translate(3.386 0.001)">
        <path id="Trazado_149952" data-name="Trazado 149952" d="M1948.373,1741.411l-217.7-6.287A12.87,12.87,0,0,0,1717.306,1748v158.812a12.752,12.752,0,0,0,13.365,12.773l217.7-7.954c6.241-.228,11.278-5.842,11.278-12.539V1753.865C1959.651,1747.167,1954.614,1741.591,1948.373,1741.411Z" transform="translate(-1717.306 -1735.118)" fill="#fff"/>
        <path id="Trazado_149953" data-name="Trazado 149953" d="M1730,1914.712a8.691,8.691,0,0,1-9.084-8.695V1747.444a8.77,8.77,0,0,1,9.084-8.764l217.7,5.963c4.245.116,7.688,3.918,7.688,8.477v145.428c0,4.558-3.443,8.388-7.688,8.537Z" transform="translate(-1716.637 -1734.459)" fill="url(#linear-gradient-10)"/>
        <path id="Trazado_149954" data-name="Trazado 149954" d="M1948.373,1741.411l-217.7-6.287A12.87,12.87,0,0,0,1717.306,1748v9.512l242.345,5.052v-8.7C1959.651,1747.167,1954.614,1741.591,1948.373,1741.411Z" transform="translate(-1717.306 -1735.118)" fill="#d8dee8"/>
        <path id="Trazado_149955" data-name="Trazado 149955" d="M1738.7,1746.088a4.2,4.2,0,0,1-4.328,4.2,4.455,4.455,0,0,1-4.341-4.418,4.2,4.2,0,0,1,4.341-4.2A4.455,4.455,0,0,1,1738.7,1746.088Z" transform="translate(-1714.949 -1733.905)" fill="#fff"/>
        <path id="Trazado_149956" data-name="Trazado 149956" d="M1751.427,1746.4a4.163,4.163,0,0,1-4.282,4.181,4.418,4.418,0,0,1-4.3-4.393,4.163,4.163,0,0,1,4.3-4.181A4.419,4.419,0,0,1,1751.427,1746.4Z" transform="translate(-1712.576 -1733.843)" fill="#fff"/>
        <path id="Trazado_149957" data-name="Trazado 149957" d="M1764.014,1746.7a4.13,4.13,0,0,1-4.236,4.161,4.383,4.383,0,0,1-4.249-4.37,4.129,4.129,0,0,1,4.249-4.16A4.383,4.383,0,0,1,1764.014,1746.7Z" transform="translate(-1710.228 -1733.782)" fill="#fff"/>
        <path id="Trazado_149958" data-name="Trazado 149958" d="M1944.052,1892.3l-213.6,6.81V1774.372l213.6,2.648Z" transform="translate(-1714.872 -1727.849)" fill="url(#linear-gradient-11)"/>
        <g id="Grupo_94120" data-name="Grupo 94120" transform="translate(15.578 29.592)">
          <path id="Trazado_149959" data-name="Trazado 149959" d="M1845.888,1762.047l-115.438-1.96v6.738l115.438,1.684Z" transform="translate(-1730.45 -1760.086)" fill="#d8dee8"/>
          <path id="Trazado_149960" data-name="Trazado 149960" d="M1900.495,1762.974v6.256l12.068.176v-6.227Z" transform="translate(-1698.96 -1759.552)" fill="#d8dee8"/>
        </g>
        <g id="Grupo_94121" data-name="Grupo 94121" opacity="0.5" style="mix-blend-mode: soft-light;isolation: isolate">
          <path id="Trazado_149961" data-name="Trazado 149961" d="M1864.2,1822.606c-25.4-36.538-69.5-24.586-97.468-65.1a88.273,88.273,0,0,1-10.833-21.651l-25.227-.728A12.87,12.87,0,0,0,1717.306,1748v158.812a12.753,12.753,0,0,0,13.365,12.774l166-6.066a135.5,135.5,0,0,1-13.333-23.586C1868.545,1856.29,1879.5,1844.616,1864.2,1822.606Z" transform="translate(-1717.306 -1735.118)" fill="#fff"/>
        </g>
        <g id="Grupo_94142" data-name="Grupo 94142" transform="translate(14.328 42.304)">
          <path id="Trazado_149962" data-name="Trazado 149962" d="M1731.012,1905.181a1.49,1.49,0,0,1-1.617-1.425V1772.272a1.531,1.531,0,0,1,1.617-1.46l212.545,2.859a1.393,1.393,0,0,1,1.372,1.384v121.113a1.431,1.431,0,0,1-1.372,1.415Z" transform="translate(-1729.395 -1770.812)" fill="url(#linear-gradient-12)"/>
          <g id="Grupo_94123" data-name="Grupo 94123" transform="translate(10.499 6.84)">
            <path id="Trazado_149963" data-name="Trazado 149963" d="M1934.315,1787.147l-196.062-1.5v-9.063l196.062,2.154Z" transform="translate(-1738.253 -1776.583)" fill="url(#linear-gradient-13)"/>
            <g id="Grupo_94122" data-name="Grupo 94122" transform="translate(4.468 3.578)">
              <path id="Trazado_149964" data-name="Trazado 149964" d="M1744.223,1780.7a1.079,1.079,0,0,1-1.1,1.074,1.1,1.1,0,0,1-1.1-1.094,1.081,1.081,0,0,1,1.1-1.074A1.1,1.1,0,0,1,1744.223,1780.7Z" transform="translate(-1742.023 -1779.602)" fill="#a0f179"/>
              <path id="Trazado_149965" data-name="Trazado 149965" d="M1748.035,1780.732a1.077,1.077,0,0,1-1.1,1.071,1.1,1.1,0,0,1-1.1-1.092,1.076,1.076,0,0,1,1.1-1.071A1.1,1.1,0,0,1,1748.035,1780.732Z" transform="translate(-1741.316 -1779.595)" fill="#a0f179"/>
              <path id="Trazado_149966" data-name="Trazado 149966" d="M1751.832,1780.766a1.074,1.074,0,0,1-1.091,1.07,1.1,1.1,0,0,1-1.093-1.09,1.074,1.074,0,0,1,1.093-1.069A1.1,1.1,0,0,1,1751.832,1780.766Z" transform="translate(-1740.611 -1779.588)" fill="#a0f179"/>
            </g>
          </g>
          <path id="Trazado_149967" data-name="Trazado 149967" d="M1926.139,1886.542l-143.732,4.671V1787.525l143.732.912Z" transform="translate(-1719.578 -1767.717)" fill="#fff" opacity="0.68"/>
          <path id="Trazado_149968" data-name="Trazado 149968" d="M1786.444,1865.247l-48.191,1.566v-79.568l48.191.306Z" transform="translate(-1727.755 -1767.769)" fill="url(#linear-gradient-14)"/>
          <g id="Grupo_94134" data-name="Grupo 94134" transform="translate(14.86 22.75)">
            <g id="Grupo_94125" data-name="Grupo 94125">
              <path id="Trazado_149969" data-name="Trazado 149969" d="M1748.122,1796.407l-5.465-.015a.7.7,0,0,1-.724-.67v-5.05a.694.694,0,0,1,.724-.665l5.465.029a.7.7,0,0,1,.722.671v5.036A.694.694,0,0,1,1748.122,1796.407Z" transform="translate(-1741.933 -1790.007)" fill="url(#linear-gradient-15)"/>
              <g id="Grupo_94124" data-name="Grupo 94124" transform="translate(9.102 0.043)" opacity="0.3">
                <path id="Trazado_149970" data-name="Trazado 149970" d="M1777.481,1792.5l-27.868-.12v-2.334l27.868.143Z" transform="translate(-1749.613 -1790.043)" fill="#fff"/>
                <path id="Trazado_149971" data-name="Trazado 149971" d="M1776.95,1792.49l-2.467-.01v-2.308l2.467.013Z" transform="translate(-1745.007 -1790.02)" fill="#fff"/>
                <path id="Trazado_149972" data-name="Trazado 149972" d="M1767.031,1795.827l-17.418-.048v-2.334l17.418.064Z" transform="translate(-1749.613 -1789.414)" fill="#fff"/>
              </g>
            </g>
            <g id="Grupo_94127" data-name="Grupo 94127" transform="translate(0 15.397)">
              <path id="Trazado_149973" data-name="Trazado 149973" d="M1748.122,1809.387l-5.465.016a.7.7,0,0,1-.724-.666v-5.05a.7.7,0,0,1,.724-.668l5.465,0a.7.7,0,0,1,.722.667v5.036A.7.7,0,0,1,1748.122,1809.387Z" transform="translate(-1741.933 -1802.995)" fill="url(#linear-gradient-16)"/>
              <g id="Grupo_94126" data-name="Grupo 94126" transform="translate(9.102 0)" opacity="0.3">
                <path id="Trazado_149974" data-name="Trazado 149974" d="M1777.481,1805.311l-27.868.039v-2.334l27.868-.015Z" transform="translate(-1749.613 -1802.997)" fill="#fff"/>
                <rect id="Rectángulo_24307" data-name="Rectángulo 24307" width="2.467" height="2.307" transform="matrix(1, -0.001, 0.001, 1, 29.474, 0.003)" fill="#fff"/>
                <path id="Trazado_149975" data-name="Trazado 149975" d="M1767.031,1808.7l-17.418.05v-2.334l17.418-.035Z" transform="translate(-1749.613 -1802.371)" fill="#fff"/>
              </g>
            </g>
            <g id="Grupo_94129" data-name="Grupo 94129" transform="translate(0 30.588)">
              <path id="Trazado_149976" data-name="Trazado 149976" d="M1748.122,1822.37l-5.465.047a.692.692,0,0,1-.724-.663v-5.05a.7.7,0,0,1,.724-.673l5.465-.033a.691.691,0,0,1,.722.662v5.036A.7.7,0,0,1,1748.122,1822.37Z" transform="translate(-1741.933 -1815.782)" fill="url(#linear-gradient-17)"/>
              <g id="Grupo_94128" data-name="Grupo 94128" transform="translate(9.102)" opacity="0.3">
                <path id="Trazado_149977" data-name="Trazado 149977" d="M1777.481,1818.147l-27.868.2v-2.334l27.868-.173Z" transform="translate(-1749.613 -1815.811)" fill="#fff"/>
                <path id="Trazado_149978" data-name="Trazado 149978" d="M1776.95,1818.122l-2.467.017v-2.308l2.467-.015Z" transform="translate(-1745.007 -1815.816)" fill="#fff"/>
                <path id="Trazado_149979" data-name="Trazado 149979" d="M1767.031,1821.59l-17.418.149v-2.334l17.418-.134Z" transform="translate(-1749.613 -1815.176)" fill="#fff"/>
              </g>
            </g>
            <g id="Grupo_94131" data-name="Grupo 94131" transform="translate(0 45.778)">
              <path id="Trazado_149980" data-name="Trazado 149980" d="M1748.122,1835.354l-5.465.077a.686.686,0,0,1-.724-.658v-5.049a.709.709,0,0,1,.724-.678l5.465-.065a.687.687,0,0,1,.722.659v5.037A.709.709,0,0,1,1748.122,1835.354Z" transform="translate(-1741.933 -1828.567)" fill="url(#linear-gradient-18)"/>
              <g id="Grupo_94130" data-name="Grupo 94130" transform="translate(9.102)" opacity="0.3">
                <path id="Trazado_149981" data-name="Trazado 149981" d="M1777.481,1830.983l-27.868.355V1829l27.868-.331Z" transform="translate(-1749.613 -1828.625)" fill="#fff"/>
                <path id="Trazado_149982" data-name="Trazado 149982" d="M1776.95,1830.939l-2.467.031v-2.308l2.467-.029Z" transform="translate(-1745.007 -1828.632)" fill="#fff"/>
                <path id="Trazado_149983" data-name="Trazado 149983" d="M1767.031,1834.476l-17.418.248v-2.334l17.418-.233Z" transform="translate(-1749.613 -1827.979)" fill="#fff"/>
              </g>
            </g>
            <g id="Grupo_94133" data-name="Grupo 94133" transform="translate(0 60.968)">
              <path id="Trazado_149984" data-name="Trazado 149984" d="M1748.122,1848.336l-5.465.109a.681.681,0,0,1-.724-.654v-5.049a.713.713,0,0,1,.724-.681l5.465-.1a.682.682,0,0,1,.722.654v5.037A.712.712,0,0,1,1748.122,1848.336Z" transform="translate(-1741.933 -1841.353)" fill="url(#linear-gradient-19)"/>
              <g id="Grupo_94132" data-name="Grupo 94132" transform="translate(9.102)" opacity="0.3">
                <path id="Trazado_149985" data-name="Trazado 149985" d="M1777.481,1843.819l-27.868.513V1842l27.868-.489Z" transform="translate(-1749.613 -1841.438)" fill="#fff"/>
                <path id="Trazado_149986" data-name="Trazado 149986" d="M1776.95,1843.755l-2.467.045v-2.309l2.467-.043Z" transform="translate(-1745.007 -1841.449)" fill="#fff"/>
                <path id="Trazado_149987" data-name="Trazado 149987" d="M1767.031,1847.362l-17.418.347v-2.334l17.418-.332Z" transform="translate(-1749.613 -1840.783)" fill="#fff"/>
              </g>
            </g>
          </g>
          <path id="Trazado_149988" data-name="Trazado 149988" d="M1839.25,1859.582l-52.723,1.335v-12.751l52.723-1.083Z" transform="translate(-1718.815 -1756.688)" opacity="0.3" fill="url(#linear-gradient-20)" style="mix-blend-mode: multiply;isolation: isolate"/>
          <path id="Trazado_149989" data-name="Trazado 149989" d="M1883.7,1858.408l-50.582,1.281V1847.2l50.582-1.039Z" transform="translate(-1710.188 -1756.858)" opacity="0.3" fill="url(#linear-gradient-21)" style="mix-blend-mode: multiply;isolation: isolate"/>
          <path id="Trazado_149990" data-name="Trazado 149990" d="M1839.25,1872.51l-52.723,1.645V1861.4l52.723-1.392Z" transform="translate(-1718.815 -1754.294)" opacity="0.3" fill="url(#linear-gradient-22)" style="mix-blend-mode: multiply;isolation: isolate"/>
          <path id="Trazado_149991" data-name="Trazado 149991" d="M1883.7,1871.073l-50.582,1.578v-12.487l50.582-1.336Z" transform="translate(-1710.188 -1754.513)" opacity="0.3" fill="url(#linear-gradient-23)" style="mix-blend-mode: multiply;isolation: isolate"/>
          <path id="Trazado_149992" data-name="Trazado 149992" d="M1903.582,1869.046l-14.045.438v-4.4l14.045-.414Z" transform="translate(-1699.739 -1753.432)" fill="url(#linear-gradient-24)"/>
          <path id="Trazado_149993" data-name="Trazado 149993" d="M1905.757,1870.471l-27.964.738v-79.576l27.964.132Z" transform="translate(-1701.914 -1766.956)" fill="url(#linear-gradient-25)"/>
          <path id="Trazado_149994" data-name="Trazado 149994" d="M1905.757,1863.991l-27.964.805v-4.751l27.964-.753Z" transform="translate(-1701.914 -1754.427)" fill="#fff" opacity="0.68"/>
          <g id="Grupo_94136" data-name="Grupo 94136" transform="translate(178.333 27.692)">
            <path id="Trazado_149995" data-name="Trazado 149995" d="M1883.1,1797.983l-2.591,0a.637.637,0,0,1-.641-.631V1794.8a.632.632,0,0,1,.641-.626l2.591.01a.636.636,0,0,1,.639.629v2.541A.632.632,0,0,1,1883.1,1797.983Z" transform="translate(-1879.864 -1794.177)" opacity="0.5" fill="url(#linear-gradient-26)"/>
            <g id="Grupo_94135" data-name="Grupo 94135" transform="translate(5.099 0.016)" opacity="0.73">
              <path id="Trazado_149996" data-name="Trazado 149996" d="M1899.865,1795.628l-15.7-.047v-1.391l15.7.056Z" transform="translate(-1884.167 -1794.19)" fill="#fff" opacity="0.52"/>
              <path id="Trazado_149997" data-name="Trazado 149997" d="M1899.576,1795.626l-1.4,0v-1.382l1.4,0Z" transform="translate(-1881.572 -1794.181)" fill="#fff" opacity="0.52"/>
              <path id="Trazado_149998" data-name="Trazado 149998" d="M1893.963,1797.629l-9.8-.02v-1.391l9.8.026Z" transform="translate(-1884.167 -1793.815)" fill="#fff" opacity="0.52"/>
            </g>
          </g>
          <g id="Grupo_94138" data-name="Grupo 94138" transform="translate(178.333 34.283)">
            <path id="Trazado_149999" data-name="Trazado 149999" d="M1883.1,1803.536h-2.591a.634.634,0,0,1-.641-.628v-2.545a.633.633,0,0,1,.641-.627l2.591,0a.634.634,0,0,1,.639.628v2.541A.634.634,0,0,1,1883.1,1803.536Z" transform="translate(-1879.864 -1799.738)" opacity="0.5" fill="url(#linear-gradient-27)"/>
            <g id="Grupo_94137" data-name="Grupo 94137" transform="translate(5.099 0.011)" opacity="0.73">
              <rect id="Rectángulo_24308" data-name="Rectángulo 24308" width="15.698" height="1.387" fill="#fff" opacity="0.52"/>
              <rect id="Rectángulo_24309" data-name="Rectángulo 24309" width="1.396" height="1.382" transform="translate(16.608 0.009)" fill="#fff" opacity="0.52"/>
              <rect id="Rectángulo_24310" data-name="Rectángulo 24310" width="9.796" height="1.388" transform="translate(0 2.395)" fill="#fff" opacity="0.52"/>
            </g>
          </g>
          <g id="Grupo_94140" data-name="Grupo 94140" transform="translate(178.333 40.836)">
            <path id="Trazado_150000" data-name="Trazado 150000" d="M1883.1,1809.091l-2.591.008a.632.632,0,0,1-.641-.626v-2.546a.636.636,0,0,1,.641-.629l2.591,0a.632.632,0,0,1,.639.626v2.541A.635.635,0,0,1,1883.1,1809.091Z" transform="translate(-1879.864 -1805.262)" opacity="0.5" fill="url(#linear-gradient-28)"/>
            <g id="Grupo_94139" data-name="Grupo 94139" transform="translate(5.099)" opacity="0.73">
              <path id="Trazado_150001" data-name="Trazado 150001" d="M1899.865,1806.653l-15.7.034V1805.3l15.7-.026Z" transform="translate(-1884.167 -1805.267)" fill="#fff" opacity="0.52"/>
              <path id="Trazado_150002" data-name="Trazado 150002" d="M1899.576,1806.649l-1.4,0v-1.382l1.4,0Z" transform="translate(-1881.572 -1805.267)" fill="#fff" opacity="0.52"/>
              <path id="Trazado_150003" data-name="Trazado 150003" d="M1893.963,1808.684l-9.8.03v-1.391l9.8-.025Z" transform="translate(-1884.167 -1804.892)" fill="#fff" opacity="0.52"/>
            </g>
          </g>
          <g id="Grupo_94141" data-name="Grupo 94141" transform="translate(67.712 24.166)">
            <path id="Trazado_150004" data-name="Trazado 150004" d="M1892.322,1852.5l-105.8,2.015V1791.2l105.8.5Z" transform="translate(-1786.527 -1791.202)" fill="url(#linear-gradient-29)"/>
          </g>
          <path id="Trazado_150005" data-name="Trazado 150005" d="M1821.988,1805.966v27.264l28.143-13.225Z" transform="translate(-1712.248 -1764.302)" fill="#fff" opacity="0.3"/>
        </g>
      </g>
    </g>
    <g id="Grupo_94161" data-name="Grupo 94161" transform="translate(1725.313 1890.353)">
      <g id="Grupo_94146" data-name="Grupo 94146" transform="translate(13.797 36.464)">
        <path id="Trazado_150006" data-name="Trazado 150006" d="M1840.831,1960.556a.341.341,0,0,1-.339-.309l-6.183-66.816a.342.342,0,1,1,.68-.063l5.5,59.458v-60.907a.341.341,0,0,1,.681,0v68.3a.34.34,0,0,1-.325.341Z" transform="translate(-1711.64 -1891.579)" fill="#b7c0ce"/>
        <g id="Grupo_94145" data-name="Grupo 94145" transform="translate(0 0.218)">
          <path id="Trazado_150007" data-name="Trazado 150007" d="M1928.941,1899.194l-67.827-7.432-130.307,5.923,68.246,8.172Z" transform="translate(-1730.807 -1891.763)" fill="#d8dee8"/>
          <path id="Trazado_150008" data-name="Trazado 150008" d="M1799.054,1904.933l129.887-6.664v3.219l-129.887,6.664-68.246-8.172v-3.219Z" transform="translate(-1730.807 -1890.838)" fill="#b7c0ce"/>
        </g>
        <path id="Trazado_150009" data-name="Trazado 150009" d="M1788.833,1981.3h-.013a.341.341,0,0,1-.328-.341v-75.19a.341.341,0,1,1,.683,0v66.452l5.2-66.479a.341.341,0,0,1,.68.053l-5.88,75.19A.341.341,0,0,1,1788.833,1981.3Z" transform="translate(-1720.125 -1889.015)" fill="#b7c0ce"/>
        <path id="Trazado_150010" data-name="Trazado 150010" d="M1731.49,1969.122h-.013a.341.341,0,0,1-.328-.34v-69.4a.341.341,0,1,1,.683,0v60.7l4.768-60.725a.341.341,0,1,1,.68.053l-5.449,69.4A.341.341,0,0,1,1731.49,1969.122Z" transform="translate(-1730.744 -1890.198)" fill="#b7c0ce"/>
        <path id="Trazado_150011" data-name="Trazado 150011" d="M1898.4,1969.121a.341.341,0,0,1-.339-.313l-5.786-69.4a.341.341,0,0,1,.679-.057l5.106,61.233v-59.518a.341.341,0,1,1,.681,0v67.714a.34.34,0,0,1-.327.34Z" transform="translate(-1700.906 -1890.197)" fill="#b7c0ce"/>
      </g>
      <g id="Grupo_94150" data-name="Grupo 94150" transform="translate(7.019)">
        <path id="Trazado_150012" data-name="Trazado 150012" d="M1772.491,1951.788c-.113-.62-2.113-1.18-3.1-.351-.492.412-.831,1.247-.547,1.624.1.138-.32.379.087.384C1770.275,1953.46,1772.6,1952.4,1772.491,1951.788Z" transform="translate(-1717.005 -1844.107)" fill="url(#linear-gradient-30)"/>
        <path id="Trazado_150013" data-name="Trazado 150013" d="M1770.406,1952.414l-2.075.1c.718-1.307-.146-4.863-.146-4.863l2.241.065s-.056,1.032-.192,2.566A9.707,9.707,0,0,0,1770.406,1952.414Z" transform="translate(-1717.107 -1844.73)" fill="url(#linear-gradient-31)"/>
        <path id="Trazado_150014" data-name="Trazado 150014" d="M1770.747,1951.688s-2.477-.571-2.745-.079-.475,1.808,1.1,1.765S1770.887,1952.1,1770.747,1951.688Z" transform="translate(-1717.175 -1844.035)" fill="url(#linear-gradient-32)"/>
        <path id="Trazado_150015" data-name="Trazado 150015" d="M1783.128,1953.882c-.2-.6-2.258-.873-3.122.087-.429.478-.648,1.351-.313,1.685.121.121-.264.42.138.368C1781.168,1955.848,1783.325,1954.475,1783.128,1953.882Z" transform="translate(-1715.006 -1843.678)" fill="url(#linear-gradient-33)"/>
        <path id="Trazado_150016" data-name="Trazado 150016" d="M1780.963,1955.008l-2.039.4c.524-1.4-.842-4.792-.842-4.792l2.228-.256s.093,1.029.178,2.566A9.636,9.636,0,0,0,1780.963,1955.008Z" transform="translate(-1715.274 -1844.229)" fill="url(#linear-gradient-34)"/>
        <path id="Trazado_150017" data-name="Trazado 150017" d="M1781.4,1954.006s-2.532-.218-2.728.306-.219,1.856,1.331,1.594S1781.6,1954.4,1781.4,1954.006Z" transform="translate(-1715.182 -1843.562)" fill="url(#linear-gradient-35)"/>
        <g id="Grupo_94147" data-name="Grupo 94147" transform="translate(36.601 21.484)">
          <path id="Trazado_150018" data-name="Trazado 150018" d="M1774.757,1905.84l8.751-20.5a1.8,1.8,0,0,0-1.233-2.458l-16.03-3.893a1.8,1.8,0,0,0-2.093,1.07l-8.048,19.7a1.8,1.8,0,0,0,1.14,2.4l15.328,4.69A1.8,1.8,0,0,0,1774.757,1905.84Z" transform="translate(-1755.971 -1878.939)" fill="#264f2a"/>
          <path id="Trazado_150019" data-name="Trazado 150019" d="M1774.23,1904.731l8.174-19.147a1.685,1.685,0,0,0-1.151-2.3l-14.973-3.636a1.682,1.682,0,0,0-1.954,1l-7.519,18.4a1.683,1.683,0,0,0,1.065,2.246l14.317,4.38A1.682,1.682,0,0,0,1774.23,1904.731Z" transform="translate(-1755.839 -1878.816)" fill="#f2f6ef"/>
        </g>
        <path id="Trazado_150020" data-name="Trazado 150020" d="M1775.99,1897.443l.262-2.416,1.391-2.653a2.516,2.516,0,0,0,.289-1.171v-2.635l-1.681,3.886a12.614,12.614,0,0,0-1.523-1.208c-.42-.21-.368.63-.052.944s-.157,2.888.158,3.151l-.105,1.575Z" transform="translate(-1715.951 -1855.672)" fill="url(#linear-gradient-36)"/>
        <path id="Trazado_150021" data-name="Trazado 150021" d="M1771.516,1884.852c-1.306-3.2-4.111-5.033-5.566-5.986-3.442-2.255-5.645-1.843-13.548-3.046-10.532-1.6-11.792-3.121-15.333-1.891-4.649,1.617-7.078,5.837-8.192,7.771-5.611,9.751.949,14.708-.735,34.132-.687,7.932-2.451,14.825,1.786,18.9a12.761,12.761,0,0,0,3.885,2.206c7.914,3.561,15.012,2.947,19.323,2.521,4.746-.47,7.144-.74,8.4-2.415,2.01-2.679-.059-6.082-.42-11.973-.259-4.229.7-7.58,2.625-14.283C1768.216,1895.209,1774.021,1890.973,1771.516,1884.852Z" transform="translate(-1724.815 -1858.466)" fill="url(#linear-gradient-37)"/>
        <g id="Grupo_94149" data-name="Grupo 94149" transform="translate(17.969)">
          <g id="Grupo_94148" data-name="Grupo 94148">
            <path id="Trazado_150022" data-name="Trazado 150022" d="M1751.352,1871.536a5.065,5.065,0,0,0-.543-3.63c-.774-1.428-.972-1.622-1.342-1.87l-.513-.317-.061-.023a5.936,5.936,0,0,0-1.678-.1c-.726.156-1.5,3.114-1.28,7.3-.03.159-.058.32-.086.483-.115.66-.205,1.307-.276,1.94-.066.606-.926.592-1.533.553-2.468-.158-3.675.052-3.781.42-.2.688,2.731,2.94,6.345,3.448,4.851.036,8.8-.481,8.374-1.244-.189-.339-3.947-1.322-5-2.295a3.238,3.238,0,0,1-.969-2.471C1749.3,1873.572,1751,1872.795,1751.352,1871.536Z" transform="translate(-1740.249 -1859.931)" fill="url(#linear-gradient-38)"/>
            <path id="Trazado_150023" data-name="Trazado 150023" d="M1750.182,1865.413a4.864,4.864,0,0,1-.926,2.9,2.149,2.149,0,0,0-.469.512.657.657,0,0,0-.073.153c-.284.817,1.014,1.778.763,2.144-.182.266-1.064-.09-1.169.14-.1.214.634.661.523.92-.085.194-.537.017-.821.315-.142.148-.1.267-.25.721a4.112,4.112,0,0,1-.3.7c-.448.761-1.716,1.038-1.96.734-.069-.084-.01-.156-.079-.441a2.265,2.265,0,0,0-.248-.569,5.888,5.888,0,0,0-1.535-1.208,4.2,4.2,0,0,1-1.6-1.824c-.035-.088-.056-.154-.07-.2a4.816,4.816,0,0,1,.12-3.221c.719-1.445,2.342-.759,3.67-2.19,1.532-1.652.62-3.911,1.451-4.161C1748.126,1860.558,1750.19,1863.016,1750.182,1865.413Z" transform="translate(-1739.971 -1860.812)" fill="#26264f"/>
            <path id="Trazado_150024" data-name="Trazado 150024" d="M1748.013,1869.285c-.318-.436-.876-.026-.878.538s.544,1.152,1.074,1.041S1748.441,1869.871,1748.013,1869.285Z" transform="translate(-1738.974 -1859.277)" fill="url(#linear-gradient-39)"/>
          </g>
          <path id="Trazado_150025" data-name="Trazado 150025" d="M1747.659,1868.459l.737.958s.794,1.174,1.257.532c.379-.526.478-.514.5-.493l.007.011c.007,0-.056-.262-.111-.489a4.315,4.315,0,0,1,.63,1.352,2.39,2.39,0,0,1-.008,1.85,1.836,1.836,0,0,1-1.083.847,4.875,4.875,0,0,1-1.423-.141s1.259-.913,1.277-1.129c.052-.589-.766-.908-1.372-2.117A4.884,4.884,0,0,1,1747.659,1868.459Z" transform="translate(-1738.877 -1859.396)" fill="#26264f"/>
        </g>
        <path id="Trazado_150026" data-name="Trazado 150026" d="M1748.279,1931.287c1.395-2.779-2.025-6.473.21-10.712,1.9-3.6,5.345-2.792,6.931-6.091,1.915-3.985-2.249-6.962-2.1-13.023.178-7.245,6.413-14.5,10.081-13.862,2.374.411,2.68,3.953,4.349,7.829a88.106,88.106,0,0,0-4.769,12.754c-1.924,6.7-2.885,10.054-2.625,14.282.36,5.891,2.43,9.294.419,11.973-1.257,1.676-3.656,1.945-8.4,2.415-4.312.427-11.409,1.041-19.323-2.521-1-.45-1.752-.788-2.363-1.121C1743.052,1935.069,1747.17,1933.493,1748.279,1931.287Z" transform="translate(-1724.051 -1855.859)" opacity="0.3" fill="url(#linear-gradient-40)" style="mix-blend-mode: multiply;isolation: isolate"/>
        <path id="Trazado_150027" data-name="Trazado 150027" d="M1780.028,1898.907l-2.31-1c-1.3,1.332-2.962,2.626-4.358,2.206-2.083-.626-1.562-4.456-4.1-11.184-2.872-7.623-6.13-9.583-7.771-10.292a3.521,3.521,0,0,0-2.311-.472c-3.5.856-4.658,9.977-3.675,16.8.554,3.846,1.638,11.386,7.824,14.966.879.508,5.716,3.308,10.5,1.1C1777.922,1909.154,1780.449,1904.322,1780.028,1898.907Z" transform="translate(-1719.517 -1857.61)" fill="url(#linear-gradient-41)"/>
        <path id="Trazado_150028" data-name="Trazado 150028" d="M1779.743,1954.8l-3.84.427a25.813,25.813,0,0,1-5.689-9.957c-2.643-9,1.495-14.907-1.28-17.21-3.2-2.655-9.518,4.518-23.469,6.543-4.489.651-14.457,2.1-18.49-3.272a9.562,9.562,0,0,1-1.28-8.96c2.32-5.582,9.96-4.912,35.131-9.815,9.7-1.888,11.229-2.507,13.533-1.407C1785.751,1916.589,1781,1947.341,1779.743,1954.8Z" transform="translate(-1725.088 -1851.591)" fill="url(#linear-gradient-42)"/>
        <path id="Trazado_150029" data-name="Trazado 150029" d="M1789.384,1957.854q-1.92.213-3.84.427a25.793,25.793,0,0,1-5.69-9.956c-2.642-9,1.494-14.907-1.28-17.21-3.2-2.655-9.518,4.518-23.468,6.542-4.49.652-14.457,2.1-18.49-3.271a9.558,9.558,0,0,1-1.28-8.96c2.319-5.583,9.96-4.912,35.131-9.814,9.7-1.888,11.228-2.507,13.531-1.407C1795.391,1919.644,1790.64,1950.4,1789.384,1957.854Z" transform="translate(-1723.303 -1851.026)" fill="url(#linear-gradient-43)"/>
      </g>
      <g id="Grupo_94152" data-name="Grupo 94152" transform="translate(0 46.335)">
        <ellipse id="Elipse_5020" data-name="Elipse 5020" cx="21.229" cy="8.664" rx="21.229" ry="8.664" transform="translate(8.051 67.273)" fill="url(#linear-gradient-44)"/>
        <path id="Trazado_150030" data-name="Trazado 150030" d="M1725.959,1964.983c0,4.517,9.505,8.179,21.23,8.179s21.229-3.662,21.229-8.179-9.505-11.908-21.229-11.908S1725.959,1960.466,1725.959,1964.983Z" transform="translate(-1717.908 -1890.062)" fill="url(#linear-gradient-45)"/>
        <path id="Trazado_150031" data-name="Trazado 150031" d="M1725.959,1964.983c0-4.517,9.505-11.908,21.23-11.908a28.807,28.807,0,0,1,14.1,3.718,3.086,3.086,0,0,1,.334,1.615c-.243,2.541-4.389,4.1-6.767,4.62-5.991,1.3-8.917-2.286-13.857-2.149-3.054.084-7.286,1.619-12.307,8.116C1726.956,1967.81,1725.959,1966.442,1725.959,1964.983Z" transform="translate(-1717.908 -1890.062)" opacity="0.3" fill="url(#linear-gradient-46)" style="mix-blend-mode: multiply;isolation: isolate"/>
        <path id="Trazado_150032" data-name="Trazado 150032" d="M1743.078,1960.507a4.815,4.815,0,0,0,2.383.014,1.535,1.535,0,0,0,1.139-1.493V1935.09h-4.721V1959A1.561,1.561,0,0,0,1743.078,1960.507Z" transform="translate(-1714.96 -1893.392)" fill="#fff"/>
        <path id="Trazado_150033" data-name="Trazado 150033" d="M1743.078,1960.507a4.815,4.815,0,0,0,2.383.014,1.535,1.535,0,0,0,1.139-1.493V1935.09h-4.721V1959A1.561,1.561,0,0,0,1743.078,1960.507Z" transform="translate(-1714.96 -1893.392)" opacity="0.65" fill="url(#linear-gradient-47)" style="mix-blend-mode: multiply;isolation: isolate"/>
        <g id="Grupo_94151" data-name="Grupo 94151">
          <path id="Trazado_150034" data-name="Trazado 150034" d="M1773.39,1931.531l-7.212-4.559c-.3-1.7-3.7-19.518-17.5-25.113-5.612-2.274-11.651-2.005-14.966-1.857-6.615.3-11.336.507-13.606,3.663-2.914,4.052,1.974,7.727.962,19.32-.414,4.728-1.463,6.828-.155,9.959,1.567,3.751,5.2,5.831,8.022,7a41.113,41.113,0,0,0,17.019,5.434,42.357,42.357,0,0,0,26.2-6.61,4.323,4.323,0,0,0,2.932-3.245A3.811,3.811,0,0,0,1773.39,1931.531Z" transform="translate(-1719.166 -1899.907)" fill="#015256"/>
        </g>
        <path id="Trazado_150035" data-name="Trazado 150035" d="M1768.887,1934.4c-.267-1.6-4.735-.274-8.961-3.413-6.317-4.693-3.039-12.642-8.533-20.268-5.043-7-15.2-10.561-18.348-7.894-4.2,3.549,6.071,16.823,0,25.389-2.95,4.16-7.444,3.96-7.468,6.4-.037,3.855,11.149,8.3,21.762,8.107C1758.748,1942.512,1769.31,1936.946,1768.887,1934.4Z" transform="translate(-1717.979 -1899.531)" fill="#fff" opacity="0.26" style="mix-blend-mode: soft-light;isolation: isolate"/>
      </g>
      <g id="Grupo_94158" data-name="Grupo 94158" transform="translate(137.388 4.157)">
        <g id="Grupo_94155" data-name="Grupo 94155" transform="translate(0 20.78)">
          <g id="Grupo_94154" data-name="Grupo 94154">
            <path id="Trazado_150036" data-name="Trazado 150036" d="M1882.083,1899.172l-46.6-.346v1.025a.564.564,0,0,0,.478.558l13.178,2.021a2.2,2.2,0,0,0,.473.019l31.968-2.3a.545.545,0,0,0,.506-.544Z" transform="translate(-1835.014 -1878.71)" fill="url(#linear-gradient-48)"/>
            <g id="Grupo_94153" data-name="Grupo 94153">
              <path id="Trazado_150037" data-name="Trazado 150037" d="M1865.244,1900.619l-29.21,1.877a.84.84,0,0,1-.947-.8v-18.988a.906.906,0,0,1,.947-.858h29.21a.777.777,0,0,1,.779.775v17.165A.84.84,0,0,1,1865.244,1900.619Z" transform="translate(-1835.087 -1881.853)" fill="url(#linear-gradient-48)"/>
              <path id="Trazado_150038" data-name="Trazado 150038" d="M1865.637,1900.619l-29.21,1.877a.84.84,0,0,1-.947-.8v-18.988a.906.906,0,0,1,.947-.858h29.21a.777.777,0,0,1,.778.775v17.165A.84.84,0,0,1,1865.637,1900.619Z" transform="translate(-1835.014 -1881.853)" fill="#264f31"/>
              <path id="Trazado_150039" data-name="Trazado 150039" d="M1864.528,1899.237l-27.206,1.631a.688.688,0,0,1-.77-.654v-16.625a.742.742,0,0,1,.77-.7l27.206-.1a.637.637,0,0,1,.642.635v15.142A.688.688,0,0,1,1864.528,1899.237Z" transform="translate(-1834.816 -1881.681)" fill="#f1f6ef"/>
              <path id="Trazado_150040" data-name="Trazado 150040" d="M1849.577,1882.341a.336.336,0,1,1-.336-.32A.329.329,0,0,1,1849.577,1882.341Z" transform="translate(-1832.528 -1881.822)" fill="#fff"/>
              <path id="Trazado_150041" data-name="Trazado 150041" d="M1858.718,1895.421c-2.264-1.1-4.044.294-5.761-1.084-1.041-.836-.53-1.458-1.811-2.707-1.419-1.383-2.343-.918-3.769-2.163-1.8-1.574-.9-2.8-2.454-3.929-1.885-1.371-3.917-.1-5.71-1.418a3.891,3.891,0,0,1-1.42-2.267h-1.755a.532.532,0,0,0-.557.5v19.7a.493.493,0,0,0,.557.468l29.921-1.922a.49.49,0,0,0,.36-.2,7.133,7.133,0,0,1-4.4-1.423C1860.24,1897.63,1860.532,1896.305,1858.718,1895.421Z" transform="translate(-1835.014 -1881.853)" fill="#fff" opacity="0.48" style="mix-blend-mode: soft-light;isolation: isolate"/>
            </g>
            <path id="Trazado_150042" data-name="Trazado 150042" d="M1866.8,1897.644l-31.321,1.976,13.656,2.094a2.107,2.107,0,0,0,.473.019l32.474-2.341-14.784-1.735A2.79,2.79,0,0,0,1866.8,1897.644Z" transform="translate(-1835.014 -1878.93)" fill="#264f31"/>
            <path id="Trazado_150043" data-name="Trazado 150043" d="M1839.336,1899.585l26.076-1.669,8.07.939-25.851,1.785Z" transform="translate(-1834.3 -1878.879)" fill="#dbe8d8" opacity="0.47"/>
          </g>
        </g>
        <path id="Trazado_150044" data-name="Trazado 150044" d="M1868,1949.8s-6.85.475-6.951.923,4.651,2.176,6.31,2.241,3.026-.427,2.875-1.129-.731-2.472-.731-2.472Z" transform="translate(-1830.28 -1848.571)" fill="url(#linear-gradient-50)"/>
        <path id="Trazado_150045" data-name="Trazado 150045" d="M1866.658,1947.162l-.121,3.233a2.507,2.507,0,0,0,1.869.25l.92-3.408Z" transform="translate(-1829.263 -1848.978)" fill="url(#linear-gradient-51)"/>
        <path id="Trazado_150046" data-name="Trazado 150046" d="M1851.833,1948.7s-6.852.475-6.952.923,4.651,2.176,6.31,2.24,3.026-.425,2.875-1.128-.731-2.473-.731-2.473Z" transform="translate(-1833.274 -1848.775)" fill="url(#linear-gradient-52)"/>
        <path id="Trazado_150047" data-name="Trazado 150047" d="M1850.493,1946.062l-.122,3.233a2.507,2.507,0,0,0,1.869.25l.921-3.408Z" transform="translate(-1832.257 -1849.182)" fill="url(#linear-gradient-53)"/>
        <path id="Trazado_150048" data-name="Trazado 150048" d="M1866.346,1954.417l3.84.427a25.8,25.8,0,0,0,5.69-9.957c2.66-9.057-1.192-15.585,1.28-17.21,3.5-2.3,11.083,10.939,23.256,10.6,4.995-.14,11.513-2.586,14.018-7.912.378-.8,2.237-5.015.427-8.961-1.868-4.075-11.135-5.848-29.594-9.229-7.923-1.451-11.924-2.174-13.531-1.407C1860.338,1916.205,1865.089,1946.957,1866.346,1954.417Z" transform="translate(-1829.679 -1855.776)" fill="url(#linear-gradient-54)"/>
        <path id="Trazado_150049" data-name="Trazado 150049" d="M1849.534,1953.925l3.973.691c1.608-2.369,4.042-6.08,6.764-10.79,5.673-9.817,5.57-11.81,8.192-13.075,5.55-2.674,9.743,4.551,23.469,6.543,4.49.652,14.457,2.1,18.49-3.272a9.565,9.565,0,0,0,1.28-8.96c-2.321-5.582-9.96-4.913-35.131-9.815-9.817-1.911-11.155-2.252-13.532-1.407C1849.759,1918.563,1849.5,1947.476,1849.534,1953.925Z" transform="translate(-1832.412 -1855.23)" fill="url(#linear-gradient-55)"/>
        <path id="Trazado_150050" data-name="Trazado 150050" d="M1872.83,1884.144c1.307-3.2,4.111-5.034,5.567-5.986a12.124,12.124,0,0,1,2.082-1.113,28.228,28.228,0,0,1,11.464-1.933c2.275.171,7.893.591,12.057,4.2,2.015,1.745,3.625,4.183,5.974,17.921,3.275,19.16.617,17.2,3.2,24.962,1.367,4.109,3.5,8.823,1.245,11.835-.728.972-1.767,1.251-3.886,2.2-7.915,3.561-15.011,2.949-19.323,2.521-4.745-.469-7.143-.739-8.4-2.416-2.009-2.678.059-6.081.421-11.971.258-4.23-.7-7.581-2.626-14.283C1876.131,1894.5,1870.327,1890.266,1872.83,1884.144Z" transform="translate(-1828.209 -1862.327)" fill="url(#linear-gradient-56)"/>
        <path id="Trazado_150051" data-name="Trazado 150051" d="M1855.565,1898.987l-5.057-.973a3.067,3.067,0,0,0-1.1-.01l-4.375.752a11.986,11.986,0,0,0,5.262.785,9.786,9.786,0,0,1,5.059,1Z" transform="translate(-1833.246 -1858.09)" fill="url(#linear-gradient-57)"/>
        <g id="Grupo_94157" data-name="Grupo 94157" transform="translate(52.623)">
          <g id="Grupo_94156" data-name="Grupo 94156">
            <path id="Trazado_150052" data-name="Trazado 150052" d="M1882.674,1873.249c-.851-1.285.422-3.757.926-4.736.018-.033.04-.077.088-.165.773-1.427.972-1.622,1.341-1.869l.513-.318.06-.023a5.884,5.884,0,0,1,1.679-.1c.727.154,1.5,3.113,1.279,7.3.03.16.059.32.087.482q.172.99.276,1.942c.068.606.926.591,1.534.552,2.468-.158,3.675.053,3.781.421.2.688-2.73,2.94-6.345,3.446-4.851.037-8.8-.48-8.372-1.244.187-.339,3.947-1.322,5-2.295a3.234,3.234,0,0,0,.969-2.47C1884.991,1874.194,1883.322,1874.229,1882.674,1873.249Z" transform="translate(-1879.488 -1864.005)" fill="url(#linear-gradient-58)"/>
            <path id="Trazado_150053" data-name="Trazado 150053" d="M1883.461,1865.288c-.4.88.569,2.647.926,2.9a2.14,2.14,0,0,1,.469.512.629.629,0,0,1,.074.154c.284.817-1.015,1.778-.763,2.143.181.265,1.064-.089,1.169.14s-.634.661-.522.92c.084.2.536.016.82.315a1.09,1.09,0,0,1,.251.722c.034,1.16-2.6,5.354-3.147,7.245-.581,2.006.46,3.916,4.238,9.193,5.377,7.506,8.065,11.259,9.56,12.332,7.3,5.243,15.892,4.6,19.415,4.055,4.231-.658,12.972-2.016,15.788-8.748,3.236-7.738-3.136-18.328-9.672-20.126-2.989-.822-4.581.427-8.462-.924-4.288-1.492-3.769-4.13-7.738-5.688-5.294-2.079-8.71,1.637-12.318-1.069-1.963-1.472-1.639-3.088-4.054-4.267C1887.113,1863.937,1883.984,1864.135,1883.461,1865.288Z" transform="translate(-1878.914 -1864.32)" fill="#26264f"/>
            <path id="Trazado_150054" data-name="Trazado 150054" d="M1884.388,1869.728c.318-.436.876-.026.88.538s-.544,1.152-1.075,1.041S1883.96,1870.315,1884.388,1869.728Z" transform="translate(-1878.669 -1863.352)" fill="url(#linear-gradient-59)"/>
          </g>
        </g>
        <path id="Trazado_150055" data-name="Trazado 150055" d="M1894.742,1930.942c-1.4-2.781,2.024-6.475-.21-10.712-1.9-3.6-5.346-2.793-6.932-6.092-1.914-3.984,2.25-6.962,2.1-13.022-.179-7.246-6.413-14.5-10.083-13.863-2.374.411-2.678,3.953-4.349,7.831a87.992,87.992,0,0,1,4.769,12.754c1.924,6.7,2.885,10.053,2.627,14.283-.361,5.89-2.43,9.294-.421,11.971,1.259,1.677,3.656,1.946,8.4,2.416,4.312.427,11.409,1.04,19.323-2.52,1-.452,1.752-.789,2.364-1.122C1899.967,1934.722,1895.849,1933.146,1894.742,1930.942Z" transform="translate(-1827.646 -1860.08)" opacity="0.3" fill="url(#linear-gradient-60)" style="mix-blend-mode: multiply;isolation: isolate"/>
        <path id="Trazado_150056" data-name="Trazado 150056" d="M1852.833,1904.2l.43-1.937c9.716,1.742,13.965-.213,16.018-2.5,1.883-2.1,1.081-3.181,4.1-11.185,2.872-7.624,6.13-9.583,7.771-10.292a3.514,3.514,0,0,1,2.31-.473c3.5.856,4.658,9.978,3.677,16.8-.554,3.845-1.639,11.386-7.825,14.965-.114.065-.294.169-.531.3-.78.417-3.874,1.906-9.971.806C1861.62,1909.394,1854.607,1905.274,1852.833,1904.2Z" transform="translate(-1831.801 -1861.831)" fill="url(#linear-gradient-61)"/>
      </g>
      <g id="Grupo_94160" data-name="Grupo 94160" transform="translate(176.692 42.865)">
        <ellipse id="Elipse_5021" data-name="Elipse 5021" cx="21.229" cy="8.664" rx="21.229" ry="8.664" transform="translate(5.488 67.273)" fill="url(#linear-gradient-62)"/>
        <path id="Trazado_150057" data-name="Trazado 150057" d="M1915.339,1962.054c0,4.517-9.5,8.179-21.229,8.179s-21.229-3.662-21.229-8.179,9.5-11.907,21.229-11.907S1915.339,1957.538,1915.339,1962.054Z" transform="translate(-1867.392 -1887.133)" fill="url(#linear-gradient-63)"/>
        <path id="Trazado_150058" data-name="Trazado 150058" d="M1914.279,1962.054c0-4.517-9.5-11.907-21.229-11.907a28.8,28.8,0,0,0-14.1,3.718,3.08,3.08,0,0,0-.335,1.615c.244,2.541,4.389,4.1,6.769,4.619,5.991,1.3,8.917-2.285,13.857-2.147,3.054.084,7.287,1.619,12.306,8.116C1913.284,1964.882,1914.279,1963.513,1914.279,1962.054Z" transform="translate(-1866.333 -1887.133)" opacity="0.3" fill="url(#linear-gradient-64)" style="mix-blend-mode: multiply;isolation: isolate"/>
        <path id="Trazado_150059" data-name="Trazado 150059" d="M1892.325,1957.58a4.823,4.823,0,0,1-2.385.014,1.535,1.535,0,0,1-1.139-1.493v-23.938h4.721v23.91A1.562,1.562,0,0,1,1892.325,1957.58Z" transform="translate(-1864.444 -1890.464)" fill="#fff"/>
        <path id="Trazado_150060" data-name="Trazado 150060" d="M1892.325,1957.58a4.823,4.823,0,0,1-2.385.014,1.535,1.535,0,0,1-1.139-1.493v-23.938h4.721v23.91A1.562,1.562,0,0,1,1892.325,1957.58Z" transform="translate(-1864.444 -1890.464)" opacity="0.65" fill="url(#linear-gradient-65)" style="mix-blend-mode: multiply;isolation: isolate"/>
        <g id="Grupo_94159" data-name="Grupo 94159">
          <path id="Trazado_150061" data-name="Trazado 150061" d="M1870.024,1928.6l7.212-4.559c.3-1.7,3.7-19.519,17.5-25.113,5.613-2.274,11.653-2.005,14.966-1.857,6.617.3,11.336.508,13.606,3.664,2.916,4.052-1.973,7.727-.961,19.32.412,4.728,1.463,6.828.155,9.959-1.567,3.751-5.2,5.831-8.024,7a41.1,41.1,0,0,1-17.018,5.434,42.352,42.352,0,0,1-26.2-6.61,4.321,4.321,0,0,1-2.932-3.245A3.809,3.809,0,0,1,1870.024,1928.6Z" transform="translate(-1868.25 -1896.979)" fill="#015256"/>
        </g>
        <path id="Trazado_150062" data-name="Trazado 150062" d="M1872.547,1931.473c.266-1.6,4.733-.274,8.96-3.413,6.318-4.693,3.039-12.642,8.535-20.268,5.043-7,15.2-10.561,18.348-7.895,4.2,3.55-6.073,16.824,0,25.389,2.95,4.16,7.444,3.96,7.467,6.4.037,3.855-11.148,8.3-21.761,8.107C1882.685,1939.584,1872.124,1934.018,1872.547,1931.473Z" transform="translate(-1867.456 -1896.603)" fill="#fff" opacity="0.26" style="mix-blend-mode: soft-light;isolation: isolate"/>
      </g>
    </g>
  </g>
</svg>
