<svg id="Grupo_101140" data-name="Grupo 101140" xmlns="http://www.w3.org/2000/svg" width="164.246" height="151.041" viewBox="0 0 164.246 151.041">
  <g id="Grupo_26115" data-name="Grupo 26115" transform="translate(92.649 38.208)">
    <g id="Grupo_26114" data-name="Grupo 26114">
      <g id="Grupo_26113" data-name="Grupo 26113" style="isolation: isolate">
        <g id="Grupo_26107" data-name="Grupo 26107" transform="translate(15.884)">
          <path id="Trazado_13152" data-name="Trazado 13152" d="M762.728-13.862l-.18,9.54L740.278-17.786l.18-9.54Z" transform="translate(-740.278 27.325)" fill="#233959"/>
        </g>
        <g id="Grupo_26108" data-name="Grupo 26108" transform="translate(46.255 20.11)">
          <path id="Trazado_13153" data-name="Trazado 13153" d="M768.529-10.654l-.18,9.54L765.456.679l.18-9.54Z" transform="translate(-765.456 10.654)" fill="#32517d"/>
        </g>
        <g id="Grupo_26109" data-name="Grupo 26109" transform="translate(49.147 20.11)">
          <path id="Trazado_13154" data-name="Trazado 13154" d="M790.3,2.809l-.18,9.54L767.854-1.115l.18-9.54Z" transform="translate(-767.854 10.654)" fill="#233959"/>
        </g>
        <g id="Grupo_26110" data-name="Grupo 26110" transform="translate(0 37.119)">
          <path id="Trazado_13155" data-name="Trazado 13155" d="M738.285,10.094l-.18,9.54-10.994-6.647.18-9.54Z" transform="translate(-727.111 -3.447)" fill="#233959"/>
        </g>
        <g id="Grupo_26111" data-name="Grupo 26111" transform="translate(10.994 21.903)">
          <path id="Trazado_13156" data-name="Trazado 13156" d="M771.666-9.167l-.18,9.54-35.26,21.863.18-9.54Z" transform="translate(-736.225 9.167)" fill="#32517d"/>
        </g>
        <g id="Grupo_26112" data-name="Grupo 26112" transform="translate(0.18)">
          <path id="Trazado_13157" data-name="Trazado 13157" d="M743.144-27.325l54.659.112.874,33.461L776.407-7.215l-2.892,1.793L738.255,16.44,727.26,9.794l35.26-21.863,2.892-1.793Z" transform="translate(-727.26 27.325)" fill="#3a5e92"/>
        </g>
      </g>
    </g>
  </g>
  <g id="Grupo_26123" data-name="Grupo 26123" transform="translate(0 97.735)">
    <g id="Grupo_26122" data-name="Grupo 26122">
      <g id="Grupo_26121" data-name="Grupo 26121" style="isolation: isolate">
        <g id="Grupo_26116" data-name="Grupo 26116" transform="translate(36.156 6.647)">
          <path id="Trazado_13158" data-name="Trazado 13158" d="M715.718,27.534l-.18,9.54-35.26,21.863.18-9.54Z" transform="translate(-680.277 -27.534)" fill="#32517d"/>
        </g>
        <g id="Grupo_26117" data-name="Grupo 26117" transform="translate(33.264 28.509)">
          <path id="Trazado_13159" data-name="Trazado 13159" d="M680.952,45.658l-.18,9.54-2.892,1.793.18-9.54Z" transform="translate(-677.88 -45.658)" fill="#32517d"/>
        </g>
        <g id="Grupo_26118" data-name="Grupo 26118" transform="translate(0.874 43.654)">
          <path id="Trazado_13160" data-name="Trazado 13160" d="M705.868,58.325l-.18,9.54-54.659-.112.18-9.54Z" transform="translate(-651.028 -58.213)" fill="#2d4972"/>
        </g>
        <g id="Grupo_26119" data-name="Grupo 26119" transform="translate(0 10.193)">
          <path id="Trazado_13161" data-name="Trazado 13161" d="M651.358,63.934l-.18,9.54L650.3,40.013l.18-9.54Z" transform="translate(-650.304 -30.474)" fill="#213653"/>
        </g>
        <g id="Grupo_26120" data-name="Grupo 26120" transform="translate(0.18)">
          <path id="Trazado_13162" data-name="Trazado 13162" d="M650.453,32.216,672.722,45.68l2.892-1.793,35.26-21.863L721.87,28.67l-35.26,21.863-2.892,1.793,22.269,13.463-54.659-.112Z" transform="translate(-650.453 -22.024)" fill="#3a5e92"/>
        </g>
      </g>
    </g>
  </g>
  <g id="Grupo_26129" data-name="Grupo 26129" transform="translate(16.299 0)">
    <path id="Trazado_13163" data-name="Trazado 13163" d="M672.355,16.6l19-10.634a1.675,1.675,0,0,1,.866-.152l-.007-.007.064.006c.04,0,.08.006.121.011l15.256,1.337c-3.65-4.24-3.315-8.814,1.56-11.541,3.4-1.9,8.332-2.527,13.508-2.01l.008-.006s8.959.556,12.4,1.154a35.583,35.583,0,0,1,11.591,4.1c6.819,3.95,9.33,9.141,6.956,12.99q.23.018.46.04l0,0s8.914.549,12.432,1.146a35.651,35.651,0,0,1,11.74,4.13c8.724,5.053,10.437,12.149,3.825,15.849a19.1,19.1,0,0,1-7.733,2.09l.186.109c.655.379.783.911.287,1.188l-11,6.154,8.235,1.121,4.675-5.79c.711.063,6.2.462,6.772.615s6.178,3.205,9.188,4.984l2.415.214a14.648,14.648,0,0,1,2.462.414c2.1.558,2.826,1.406,1.735,2.017l-12.319,6.894c-1.064.6-30.558,17.065-30.558,17.065H746.146l-.9-9.587a14.668,14.668,0,0,1-2.463-.413c-2.1-.558-2.825-1.406-1.733-2.018l.8-.449c-1.316-1.936-3.552-5.24-3.577-5.358-.041-.2.083-.392.388-.563l-5.1-6.41-15.125-1.332c-.077,0-.151-.01-.229-.019l-.117-.011-.006-.013a2.64,2.64,0,0,1-.86-.292L672.642,17.791C671.988,17.412,671.859,16.88,672.355,16.6Z" transform="translate(-662.117 69.815)" opacity="0.12"/>
    <path id="Trazado_13164" data-name="Trazado 13164" d="M696.266-27.944l52.4,30.252a3.075,3.075,0,0,1,1.392,2.411V38.743a.908.908,0,0,1-.532.957c-.236.078-24.483,14.118-24.483,14.118L696.266,9.295c-.768-.444-25.5-23.165-25.5-23.165S695.082-27.99,695.406-28.1A1.068,1.068,0,0,1,696.266-27.944Z" transform="translate(-662.382 65.366)" fill="#3b3b3b"/>
    <path id="Trazado_13165" data-name="Trazado 13165" d="M671.884-16.247,724.281,14a3.076,3.076,0,0,1,1.393,2.411V50.44c0,.888-.624,1.247-1.393.8l-52.4-30.252a3.078,3.078,0,0,1-1.392-2.411V-15.444C670.492-16.332,671.116-16.691,671.884-16.247Z" transform="translate(-662.439 67.778)" fill="#636363"/>
    <path id="Trazado_13166" data-name="Trazado 13166" d="M725.006-36.68c10.251,5.918,18.561,20.312,18.561,32.149,0,5.191-1.6,9.026-4.256,11.2a71.249,71.249,0,0,1-8.075,4.966s-4.379-4.381-6.23-5.45C714.754.267,706.444-14.126,706.444-25.963a69.727,69.727,0,0,0-.837-8.2s5.713-3.957,8.36-4.692C717.052-39.711,720.871-39.067,725.006-36.68Z" transform="translate(-655.196 63.081)" fill="#0f343b"/>
    <path id="Trazado_13167" data-name="Trazado 13167" d="M694.21-54.448c10.251,5.919,18.561,20.312,18.561,32.149s-8.31,16.634-18.561,10.716-18.562-20.312-18.562-32.149A78.838,78.838,0,0,0,674.934-52s5.746-3.966,8.35-4.655C686.349-57.462,690.126-56.806,694.21-54.448Z" transform="translate(-661.523 59.416)" fill="#0f343b"/>
    <path id="Trazado_13168" data-name="Trazado 13168" d="M704.227-24.939,723.36-4.969,722.268,6.9,685.146-14.536l19.107-10.691Z" transform="translate(-659.417 65.966)" fill="#6a8186"/>
    <path id="Trazado_13169" data-name="Trazado 13169" d="M719.526-33.438c10.251,5.918,18.562,20.312,18.562,32.148s-8.311,16.635-18.562,10.716-18.561-20.311-18.561-32.148S709.275-39.358,719.526-33.438Z" transform="translate(-656.154 63.749)" fill="#415e64"/>
    <ellipse id="Elipse_1887" data-name="Elipse 1887" cx="15.155" cy="26.249" rx="15.155" ry="26.249" transform="matrix(0.866, -0.5, 0.5, 0.866, 0, 15.155)" fill="#415e64"/>
    <path id="Trazado_13170" data-name="Trazado 13170" d="M730.259,14.616c2.359-1.359,4.488-1.5,6.061-.659l.008-.017.086.055.059.03,17.3,10.043-1.086.96c-5.5,4.893-11.081,9.709-16.842,14.3-.707.563-1.423,1.115-2.134,1.672l-9.573-5.544c-.042-.025-.084-.047-.124-.072l-.071-.039,0-.012c-1.5-.944-2.44-2.853-2.44-5.564C721.512,24.189,725.43,17.4,730.259,14.616Z" transform="translate(-651.916 73.94)" fill="#6e6e6e"/>
    <g id="Grupo_26124" data-name="Grupo 26124" transform="translate(72.996 85.493)">
      <path id="Trazado_13171" data-name="Trazado 13171" d="M726.566,29.287l29.445-17a2.889,2.889,0,0,1,1.451-.413c.7,0,17.253,4.3,17.253,4.3L762.932,33.607A4.735,4.735,0,0,1,760.7,37.48L734.25,63.931s-9.371-11.661-9.563-12a2.947,2.947,0,0,1-.356-1.445V33.161A4.737,4.737,0,0,1,726.566,29.287Z" transform="translate(-724.331 -11.875)" fill="#484848"/>
    </g>
    <g id="Grupo_26125" data-name="Grupo 26125" transform="translate(82.029 88.631)">
      <path id="Trazado_13172" data-name="Trazado 13172" d="M734.529,35.585l35.7-20.609a3.493,3.493,0,0,1,1.76-.5,2.98,2.98,0,0,1,2.935,3.211v21a5.74,5.74,0,0,1-2.71,4.695l-35.7,20.61a3.5,3.5,0,0,1-1.759.5,2.981,2.981,0,0,1-2.936-3.211v-21A5.743,5.743,0,0,1,734.529,35.585Z" transform="translate(-731.819 -14.476)" fill="#4ba2d2"/>
    </g>
    <g id="Grupo_26126" data-name="Grupo 26126" transform="translate(88.709 91.591)">
      <path id="Trazado_13173" data-name="Trazado 13173" d="M761.964,17.378a6.009,6.009,0,0,1,1.392-.448l-1.9,29.416L752.5,51.313l3.392-29.955Z" transform="translate(-734.234 -16.93)" fill="#76b8dc"/>
      <path id="Trazado_13174" data-name="Trazado 13174" d="M750.467,24.536,747.806,52.4l-3.123,3.994-7.326,4.229c2.017-10.744,3.745-21.528,4.928-32.4Z" transform="translate(-737.357 -15.361)" fill="#76b8dc"/>
    </g>
    <g id="Grupo_26127" data-name="Grupo 26127" transform="translate(80.947 87.374)">
      <path id="Trazado_13175" data-name="Trazado 13175" d="M730.922,40.536V62.593A3.129,3.129,0,0,0,734,65.964a3.672,3.672,0,0,0,1.848-.525l37.49-21.645a6.031,6.031,0,0,0,2.847-4.931V16.807a3.131,3.131,0,0,0-3.083-3.373,3.677,3.677,0,0,0-1.848.526L733.768,35.6A6.029,6.029,0,0,0,730.922,40.536Zm4.168,0a2,2,0,0,1,.762-1.322L772.02,18.333v20.53a1.993,1.993,0,0,1-.762,1.321L735.09,61.067Z" transform="translate(-730.922 -13.434)" fill="#636363"/>
    </g>
    <path id="Trazado_13176" data-name="Trazado 13176" d="M715.141,25.7l-24.213-13.98V1.123L715.141,15.1Z" transform="translate(-658.224 71.401)" fill="#b3b3b3"/>
    <g id="Grupo_26128" data-name="Grupo 26128" transform="translate(23.37 82.026)">
      <path id="Trazado_13177" data-name="Trazado 13177" d="M703.344,20.057a2.908,2.908,0,0,1,1.316,2.28V32.93c0,.84-.589,1.18-1.316.76a2.911,2.911,0,0,1-1.316-2.28V20.817C702.028,19.977,702.618,19.637,703.344,20.057Z" transform="translate(-679.305 -6.758)" fill="#4f4f4f"/>
      <path id="Trazado_13178" data-name="Trazado 13178" d="M698.635,17.338a2.911,2.911,0,0,1,1.316,2.28V30.211c0,.84-.59,1.18-1.316.76a2.908,2.908,0,0,1-1.316-2.28V18.1C697.319,17.258,697.908,16.918,698.635,17.338Z" transform="translate(-680.276 -7.319)" fill="#4f4f4f"/>
      <path id="Trazado_13179" data-name="Trazado 13179" d="M693.925,14.619a2.908,2.908,0,0,1,1.316,2.28V27.492c0,.84-.589,1.18-1.316.76a2.911,2.911,0,0,1-1.316-2.28V15.379C692.609,14.539,693.2,14.2,693.925,14.619Z" transform="translate(-681.247 -7.879)" fill="#4f4f4f"/>
      <path id="Trazado_13180" data-name="Trazado 13180" d="M689.216,11.9a2.911,2.911,0,0,1,1.316,2.28V24.773c0,.84-.59,1.18-1.316.76a2.908,2.908,0,0,1-1.316-2.28V12.66C687.9,11.82,688.489,11.48,689.216,11.9Z" transform="translate(-682.219 -8.44)" fill="#4f4f4f"/>
      <path id="Trazado_13181" data-name="Trazado 13181" d="M684.506,9.181a2.908,2.908,0,0,1,1.316,2.28V22.054c0,.84-.589,1.18-1.316.76a2.911,2.911,0,0,1-1.316-2.28V9.941C683.19,9.1,683.78,8.761,684.506,9.181Z" transform="translate(-683.19 -9.001)" fill="#4f4f4f"/>
      <path id="Trazado_13182" data-name="Trazado 13182" d="M708.054,22.776a2.911,2.911,0,0,1,1.316,2.28V35.649c0,.84-.59,1.18-1.316.76a2.908,2.908,0,0,1-1.316-2.28V23.536C706.738,22.7,707.327,22.356,708.054,22.776Z" transform="translate(-678.333 -6.197)" fill="#4f4f4f"/>
    </g>
  </g>
</svg>
