<svg xmlns="http://www.w3.org/2000/svg" xmlns:xlink="http://www.w3.org/1999/xlink" width="286.122" height="284.526" viewBox="0 0 286.122 284.526">
  <defs>
    <linearGradient id="linear-gradient" x1="110.384" y1="0.5" x2="111.384" y2="0.5" gradientUnits="objectBoundingBox">
      <stop offset="0" stop-color="#7fe578"/>
      <stop offset="1" stop-color="#c1e164"/>
    </linearGradient>
    <linearGradient id="linear-gradient-2" x1="0.375" y1="-0.235" x2="0.444" y2="0.155" gradientUnits="objectBoundingBox">
      <stop offset="0.004" stop-color="#7ecb9a"/>
      <stop offset="0.356" stop-color="#75ce76"/>
      <stop offset="1" stop-color="#a9de66"/>
    </linearGradient>
    <linearGradient id="linear-gradient-3" x1="0.613" y1="-0.017" x2="0.196" y2="2.011" xlink:href="#linear-gradient-2"/>
    <linearGradient id="linear-gradient-4" x1="0.562" y1="-2.36" x2="0.485" y2="1.393" xlink:href="#linear-gradient-2"/>
    <linearGradient id="linear-gradient-5" x1="0.209" y1="8.205" x2="-0.479" y2="26.381" xlink:href="#linear-gradient-2"/>
    <linearGradient id="linear-gradient-6" x1="0.405" y1="0.312" x2="-0.18" y2="1.022" gradientUnits="objectBoundingBox">
      <stop offset="0" stop-color="#ab316d"/>
      <stop offset="1" stop-color="#792d3d"/>
    </linearGradient>
    <linearGradient id="linear-gradient-7" x1="0.171" y1="0.593" x2="1.436" y2="-0.86" gradientUnits="objectBoundingBox">
      <stop offset="0" stop-color="#ffc444"/>
      <stop offset="0.996" stop-color="#f36f56"/>
    </linearGradient>
    <linearGradient id="linear-gradient-8" x1="-0.254" y1="0.5" x2="0.746" y2="0.5" xlink:href="#linear-gradient-7"/>
    <linearGradient id="linear-gradient-9" x1="1353.377" y1="0.806" x2="1354.202" y2="2.913" xlink:href="#linear-gradient-7"/>
    <linearGradient id="linear-gradient-10" x1="1320.57" y1="1.393" x2="1321.4" y2="3.374" xlink:href="#linear-gradient-7"/>
    <linearGradient id="linear-gradient-11" x1="2128.288" y1="-1.509" x2="2130.258" y2="1.845" xlink:href="#linear-gradient-7"/>
    <linearGradient id="linear-gradient-12" x1="1277.066" y1="-0.724" x2="1278.242" y2="3.619" xlink:href="#linear-gradient-7"/>
    <linearGradient id="linear-gradient-13" x1="301.487" y1="0.729" x2="300.181" y2="0.29" gradientUnits="objectBoundingBox">
      <stop offset="0" stop-color="#444b8c"/>
      <stop offset="0.996" stop-color="#3e4177"/>
    </linearGradient>
    <linearGradient id="linear-gradient-14" x1="344.341" y1="0.729" x2="342.849" y2="0.29" xlink:href="#linear-gradient-13"/>
    <linearGradient id="linear-gradient-15" x1="224.239" y1="0.498" x2="222.794" y2="0.393" xlink:href="#linear-gradient-13"/>
    <linearGradient id="linear-gradient-16" x1="59.071" y1="-0.177" x2="59.307" y2="0.869" gradientUnits="objectBoundingBox">
      <stop offset="0" stop-color="#ff9085"/>
      <stop offset="1" stop-color="#fb6fbb"/>
    </linearGradient>
    <linearGradient id="linear-gradient-17" x1="370.792" y1="0.469" x2="371.061" y2="1.605" xlink:href="#linear-gradient-7"/>
    <linearGradient id="linear-gradient-18" x1="880.854" y1="21.221" x2="881.581" y2="22.844" xlink:href="#linear-gradient-7"/>
    <linearGradient id="linear-gradient-19" x1="4051.938" y1="141.99" x2="4060.406" y2="152.61" xlink:href="#linear-gradient-7"/>
    <linearGradient id="linear-gradient-20" x1="75.579" y1="-0.718" x2="75.883" y2="0.884" xlink:href="#linear-gradient-16"/>
    <linearGradient id="linear-gradient-21" x1="183.373" y1="8.618" x2="182.759" y2="8.274" gradientUnits="objectBoundingBox">
      <stop offset="0" stop-color="#311944"/>
      <stop offset="1" stop-color="#893976"/>
    </linearGradient>
    <linearGradient id="linear-gradient-22" x1="345.798" y1="8.473" x2="346.088" y2="8.542" xlink:href="#linear-gradient-21"/>
    <linearGradient id="linear-gradient-23" x1="0.885" y1="0.976" x2="-0.554" y2="-0.772" xlink:href="#linear-gradient-16"/>
  </defs>
  <g id="Grupo_101499" data-name="Grupo 101499" transform="translate(2038.438 -1344.023)">
    <path id="Trazado_162733" data-name="Trazado 162733" d="M-1756.524,1465.554c-7.755-50.762-39.55-113.126-102.368-119.653,0,0-47.694-5.8-94.71,2.992-27.9,5.218-52.371,20.752-67.852,43.077a93.427,93.427,0,0,0-14.378,75.5c4.077,16.857,6.831,34.3,6.076,51.626-1.316,30.147-.559,58.287,28.7,76.266,26.124,16.053,59,30.211,90.364,32.691,21.315,1.686,45.22-1.042,65.762-6.591C-1740.238,1593.182-1748.768,1516.314-1756.524,1465.554Z" fill="#f4f7fa"/>
    <g id="Grupo_101476" data-name="Grupo 101476" transform="translate(-1990.143 1345.329)">
      <g id="Grupo_101473" data-name="Grupo 101473" transform="translate(34.124)">
        <path id="Trazado_162734" data-name="Trazado 162734" d="M-1930.475,1536.36a34.465,34.465,0,0,0,45.019-10.618c6.234-8.852,10.195-21.334,12.455-31.82,14.063-65.219-23.221-27.109-22.058-67.086s-.175-66.464-51.428-80.377c0,0-45.948-13.915-31.042,42.527,2.733,10.344,6.816,20.62,13.478,29.09,7,8.9,16.3,15.578,24.97,22.718,10.378,8.546,3.154,22.726-.747,32.757-4.847,12.467-9.61,25.1-7.373,38.713A32.978,32.978,0,0,0-1930.475,1536.36Z" transform="translate(1980.504 -1344.941)" fill="url(#linear-gradient)"/>
        <g id="Grupo_101472" data-name="Grupo 101472" transform="translate(47.354 54.617)" opacity="0.8" style="mix-blend-mode: soft-light;isolation: isolate">
          <path id="Trazado_162735" data-name="Trazado 162735" d="M-1930.633,1518.5a.419.419,0,0,0,.4-.308,286.986,286.986,0,0,0,8.446-54.8c.852-17.129-.327-32.181-3.5-44.74-3.983-15.744-11.136-27.6-21.26-35.236a.418.418,0,0,0-.585.083.419.419,0,0,0,.081.586c22.6,17.05,25.762,52.516,24.432,79.266a286.054,286.054,0,0,1-8.416,54.615.417.417,0,0,0,.292.514A.369.369,0,0,0-1930.633,1518.5Z" transform="translate(1947.217 -1383.333)" fill="#fff"/>
        </g>
      </g>
      <g id="Grupo_101475" data-name="Grupo 101475" transform="translate(0 44.76)">
        <path id="Trazado_162736" data-name="Trazado 162736" d="M-1886.766,1559.657c1.948-.275,3.737-1.621,5.235-4.454,6.221-11.767-5.4-29.585-5.653-41.943-.25-12.427,2.474-24.543,5.49-36.5,3.108-12.326,4.708-25.427-3.751-36.064-7.292-9.172-19.806-16.161-31.183-9.361-21.072,12.59-20.517-8.468-24.161-22.67-4.192-16.347-22.5-35.338-40.678-31.845-16.3,3.133-23.017,26.226-23.022,40.545,0,7.477,2.75,18.9,8.489,24.267,13.206,12.363,43.124,12.277,31.568,36.24-3.9,8.081-7.557,16.727-.165,24.1,7.573,7.55,20.093,8.211,29.559,12,10.768,4.3,18.055,13.139,24.582,22.342C-1907.285,1540.783-1895.453,1560.878-1886.766,1559.657Z" transform="translate(2004.49 -1376.404)" fill="#bfc8d6"/>
        <g id="Grupo_101474" data-name="Grupo 101474" transform="translate(39.81 42.508)" opacity="0.8" style="mix-blend-mode: soft-light;isolation: isolate">
          <path id="Trazado_162737" data-name="Trazado 162737" d="M-1897.463,1543.289a.422.422,0,0,0,.116-.024.417.417,0,0,0,.25-.536c-.094-.259-9.557-26.25-23.917-55.892a419.965,419.965,0,0,0-25.119-45.325c-10.3-15.847-20.294-27.667-29.7-35.136a.418.418,0,0,0-.588.067.417.417,0,0,0,.068.588c21.15,16.8,41.356,52.871,54.582,80.171,14.342,29.6,23.791,55.555,23.885,55.814A.417.417,0,0,0-1897.463,1543.289Z" transform="translate(1976.507 -1406.284)" fill="#fff"/>
        </g>
      </g>
    </g>
    <g id="Grupo_101481" data-name="Grupo 101481" transform="translate(-1935.963 1357.306)">
      <g id="Grupo_101479" data-name="Grupo 101479">
        <g id="Grupo_101478" data-name="Grupo 101478">
          <path id="Trazado_162738" data-name="Trazado 162738" d="M-1934.431,1362.3l-28.114,233.676a6.158,6.158,0,0,0,5.376,6.981l117.1,12.855c7.173.447,11.1-3.218,11.543-6.944l29.515-248.437c.441-3.7-3.078-7.059-10.283-7.059l-118.162,2.488A7.448,7.448,0,0,0-1934.431,1362.3Z" transform="translate(1968.017 -1353.354)" fill="#abc"/>
          <path id="Trazado_162739" data-name="Trazado 162739" d="M-1938.089,1361.907l-28.269,234.843a6.185,6.185,0,0,0,5.395,7.017l121.4,12.087a7.1,7.1,0,0,0,7.739-6.119l29.682-249.72a5.892,5.892,0,0,0-6.2-6.654l-122.742,2.072A7.482,7.482,0,0,0-1938.089,1361.907Z" transform="translate(1966.406 -1353.36)" fill="#bfc8d6"/>
          <path id="Trazado_162740" data-name="Trazado 162740" d="M-1937.085,1370.625l-26.2,217.748a5.769,5.769,0,0,0,5.052,6.543l114.17,11.1a6.618,6.618,0,0,0,7.194-5.712l27.431-230.684a5.519,5.519,0,0,0-5.757-6.235l-115.341,1.229A6.943,6.943,0,0,0-1937.085,1370.625Z" transform="translate(1967.705 -1349.125)" fill="#eaedf3"/>
          <path id="Trazado_162741" data-name="Trazado 162741" d="M-1901.842,1359.936a1.943,1.943,0,0,0,2.006,2.235,2.676,2.676,0,0,0,2.552-2.3,1.943,1.943,0,0,0-2.01-2.235A2.678,2.678,0,0,0-1901.842,1359.936Z" transform="translate(1993.686 -1351.552)" fill="#fff"/>
          <g id="Grupo_101477" data-name="Grupo 101477" transform="translate(31.372)" style="mix-blend-mode: soft-light;isolation: isolate">
            <path id="Trazado_162742" data-name="Trazado 162742" d="M-1925.366,1521.027c23.372-43.214,58.288-56.148,68.8-100.685,5.682-24.074,1.81-47.115-4.71-66.243l43.609-.737a5.892,5.892,0,0,1,6.2,6.654l-29.682,249.72a7.1,7.1,0,0,1-7.739,6.119l-95.43-9.5C-1945.021,1567.632-1935.786,1540.289-1925.366,1521.027Z" transform="translate(1944.354 -1353.36)" fill="#fff"/>
          </g>
        </g>
      </g>
      <g id="Grupo_101480" data-name="Grupo 101480" transform="translate(43.345 51.245)">
        <path id="Trazado_162743" data-name="Trazado 162743" d="M-1910.86,1435.42l-6.089,2.783a1.942,1.942,0,0,0-1,2.522l1.517,3.469a31.007,31.007,0,0,0-4.171,3.35l-3.03-2.2a1.91,1.91,0,0,0-2.65.451l-3.938,5.351a1.911,1.911,0,0,0,.356,2.667l2.987,2.235a31.392,31.392,0,0,0-2,4.99l-3.715-.415a1.944,1.944,0,0,0-2.113,1.71l-.855,6.661a1.912,1.912,0,0,0,1.627,2.171l3.7.457a31.749,31.749,0,0,0,.72,5.433l-3.479,1.516a2.024,2.024,0,0,0-1.034,2.6l2.544,6.389a1.92,1.92,0,0,0,2.532,1.1l3.531-1.511a32.3,32.3,0,0,0,3.342,4.505l-2.327,3.168a2.129,2.129,0,0,0,.385,2.887l5.486,4.443a1.936,1.936,0,0,0,2.808-.337l2.376-3.237a32.628,32.628,0,0,0,5.227,2.286l-.448,4.134a2.211,2.211,0,0,0,1.811,2.416l7.106,1.124a1.981,1.981,0,0,0,2.293-1.792l.425-4.208a31.6,31.6,0,0,0,5.7-.7l1.753,4.006a2.218,2.218,0,0,0,2.818,1.227l6.733-2.726a2.067,2.067,0,0,0,1.05-2.81l-1.826-4.044a31.219,31.219,0,0,0,4.528-3.538l3.589,2.683a2.149,2.149,0,0,0,3.036-.364l4.3-5.877a2.166,2.166,0,0,0-.562-3.014l-3.66-2.662a31.547,31.547,0,0,0,1.989-5.366l4.446.548a2.051,2.051,0,0,0,2.353-1.841l.575-7.244a2.223,2.223,0,0,0-2.006-2.327l-4.423-.494a31.889,31.889,0,0,0-1.071-5.59l3.992-1.708a1.978,1.978,0,0,0,1.016-2.719l-3.187-6.446a2.2,2.2,0,0,0-2.831-1.013l-3.932,1.713a32.4,32.4,0,0,0-3.67-4.252l2.45-3.34a1.937,1.937,0,0,0-.516-2.774l-5.85-3.916a2.11,2.11,0,0,0-2.854.485l-2.416,3.288a32.531,32.531,0,0,0-5.19-1.845l.4-3.956a1.922,1.922,0,0,0-1.8-2.088l-6.827-.539a2.008,2.008,0,0,0-2.165,1.751l-.42,3.871a31.544,31.544,0,0,0-5.326.913l-1.581-3.5A1.907,1.907,0,0,0-1910.86,1435.42Zm20.08,53.68a20.723,20.723,0,0,1-27-11.215,20.23,20.23,0,0,1,10.32-26.344,20.731,20.731,0,0,1,27.08,10.193A20.174,20.174,0,0,1-1890.78,1489.1Z" transform="translate(1936.09 -1370.825)" fill="#fff"/>
        <path id="Trazado_162744" data-name="Trazado 162744" d="M-1922.355,1393.22l-3.911,2.753a1.33,1.33,0,0,0-.414,1.824l1.443,2.073a23.4,23.4,0,0,0-2.522,2.852l-2.357-1a1.442,1.442,0,0,0-1.8.7l-2.148,4.16a1.223,1.223,0,0,0,.551,1.72l2.339,1.024a21.655,21.655,0,0,0-.832,3.625l-2.643.3a1.46,1.46,0,0,0-1.286,1.467l.154,4.565a1.228,1.228,0,0,0,1.385,1.187l2.642-.282a19.742,19.742,0,0,0,1.114,3.49l-2.258,1.561a1.4,1.4,0,0,0-.43,1.891l2.5,3.83a1.333,1.333,0,0,0,1.888.323l2.286-1.568a19.938,19.938,0,0,0,2.824,2.44l-1.259,2.47a1.343,1.343,0,0,0,.59,1.845l4.292,2.039a1.454,1.454,0,0,0,1.9-.678l1.278-2.517a22.25,22.25,0,0,0,3.845.66l.15,2.788a1.376,1.376,0,0,0,1.509,1.292l4.979-.418a1.481,1.481,0,0,0,1.364-1.544l-.172-2.823a23.749,23.749,0,0,0,3.8-1.369l1.625,2.335a1.482,1.482,0,0,0,2.042.349l4.247-2.851a1.416,1.416,0,0,0,.4-2l-1.67-2.344a23.514,23.514,0,0,0,2.665-3.017l2.7,1.182a1.554,1.554,0,0,0,2-.711l2.244-4.487a1.354,1.354,0,0,0-.7-1.871l-2.737-1.165a21.7,21.7,0,0,0,.753-3.8l3.031-.323a1.5,1.5,0,0,0,1.374-1.554l-.4-4.791a1.384,1.384,0,0,0-1.591-1.211l-3.015.344a19.678,19.678,0,0,0-1.323-3.481l2.492-1.709a1.343,1.343,0,0,0,.387-1.921l-2.833-3.729a1.484,1.484,0,0,0-2.013-.243l-2.46,1.7a20.1,20.1,0,0,0-2.942-2.238l1.292-2.546a1.229,1.229,0,0,0-.652-1.74l-4.386-1.713a1.538,1.538,0,0,0-1.885.735l-1.282,2.514a22.685,22.685,0,0,0-3.74-.45l-.164-2.662a1.234,1.234,0,0,0-1.46-1.112l-4.74.644a1.473,1.473,0,0,0-1.293,1.475l.141,2.618a23.6,23.6,0,0,0-3.568,1.4l-1.481-2.081A1.335,1.335,0,0,0-1922.355,1393.22Zm19.708,32.275c-6.7,4.554-15.562,3.091-19.754-3.12-4.11-6.089-2.218-14.534,4.189-19,6.453-4.5,15.219-3.387,19.621,2.612C-1894.1,1412.113-1895.9,1420.911-1902.647,1425.5Z" transform="translate(1935.938 -1389.382)" fill="#fff"/>
      </g>
    </g>
    <g id="Grupo_101490" data-name="Grupo 101490" transform="translate(-1946.414 1384.479)">
      <g id="Grupo_101483" data-name="Grupo 101483">
        <path id="Trazado_162745" data-name="Trazado 162745" d="M-1819.96,1379.095l-19.758,201.516a7.089,7.089,0,0,1-7.659,6.339l-120.815-10.677a6.26,6.26,0,0,1-5.514-7.119l21.783-190.437a7.158,7.158,0,0,1,6.888-6.255l118.868.021A6.008,6.008,0,0,1-1819.96,1379.095Z" transform="translate(1973.752 -1372.461)" fill="url(#linear-gradient-2)"/>
        <path id="Trazado_162746" data-name="Trazado 162746" d="M-1822.193,1378.614l-19.788,201.369a5.274,5.274,0,0,1-5.7,4.72l-120.8-10.587a4.66,4.66,0,0,1-4.11-5.3l21.761-190.57a5.326,5.326,0,0,1,5.133-4.659l118.883.1A4.471,4.471,0,0,1-1822.193,1378.614Z" transform="translate(1974.229 -1371.986)" fill="url(#linear-gradient-3)"/>
        <path id="Trazado_162747" data-name="Trazado 162747" d="M-1828.239,1378.614l-1.31,13.333-128.767-1.068,1.443-12.633a5.326,5.326,0,0,1,5.133-4.659l118.883.1A4.471,4.471,0,0,1-1828.239,1378.614Z" transform="translate(1980.276 -1371.986)" fill="url(#linear-gradient-4)"/>
        <g id="Grupo_101482" data-name="Grupo 101482" transform="translate(28.702 6.312)">
          <path id="Trazado_162748" data-name="Trazado 162748" d="M-1947.278,1380.089a3.613,3.613,0,0,1-3.5,3.165,2.781,2.781,0,0,1-2.776-3.192,3.615,3.615,0,0,1,3.494-3.164A2.782,2.782,0,0,1-1947.278,1380.089Z" transform="translate(1953.577 -1376.898)" fill="#fff"/>
          <path id="Trazado_162749" data-name="Trazado 162749" d="M-1938.939,1380.129a3.632,3.632,0,0,1-3.531,3.182,2.806,2.806,0,0,1-2.81-3.209,3.635,3.635,0,0,1,3.522-3.18A2.807,2.807,0,0,1-1938.939,1380.129Z" transform="translate(1957.075 -1376.888)" fill="#fff"/>
          <path id="Trazado_162750" data-name="Trazado 162750" d="M-1930.515,1380.17a3.653,3.653,0,0,1-3.561,3.2,2.832,2.832,0,0,1-2.844-3.225,3.654,3.654,0,0,1,3.551-3.2A2.833,2.833,0,0,1-1930.515,1380.17Z" transform="translate(1960.608 -1376.878)" fill="#fff"/>
        </g>
      </g>
      <g id="Grupo_101489" data-name="Grupo 101489" transform="translate(7.916 25.051)">
        <path id="Trazado_162751" data-name="Trazado 162751" d="M-1880.779,1408.211l-72.563-1.529a1.741,1.741,0,0,0-1.714,1.535l-5.9,52a1.447,1.447,0,0,0,1.363,1.656l72.875,3.269a1.769,1.769,0,0,0,1.814-1.566l5.592-53.71A1.475,1.475,0,0,0-1880.779,1408.211Z" transform="translate(1971.24 -1383.05)" fill="#fff"/>
        <g id="Grupo_101484" data-name="Grupo 101484" transform="translate(16.646)">
          <path id="Trazado_162752" data-name="Trazado 162752" d="M-1883.355,1399.509l-72.565-1.054.952-8.385,72.517.792Z" transform="translate(1956.727 -1390.07)" fill="#fff"/>
          <path id="Trazado_162753" data-name="Trazado 162753" d="M-1927.588,1402.622l-28.9-.508.44-3.879,28.891.46Z" transform="translate(1956.487 -1386.62)" fill="#fff"/>
        </g>
        <g id="Grupo_101487" data-name="Grupo 101487" transform="translate(94.537 25.36)">
          <g id="Grupo_101485" data-name="Grupo 101485" transform="translate(3.286)">
            <path id="Trazado_162754" data-name="Trazado 162754" d="M-1867.184,1412.635l-31.069-.706.416-4.032,31.059.654Z" transform="translate(1899.921 -1407.896)" fill="#fff"/>
            <path id="Trazado_162755" data-name="Trazado 162755" d="M-1867.749,1418.419l-31.09-.811.417-4.04,31.079.759Z" transform="translate(1899.674 -1405.5)" fill="#fff"/>
            <path id="Trazado_162756" data-name="Trazado 162756" d="M-1868.315,1424.215l-31.111-.917.418-4.048,31.1.864Z" transform="translate(1899.426 -1403.098)" fill="#fff"/>
          </g>
          <g id="Grupo_101486" data-name="Grupo 101486" transform="translate(0 31.692)">
            <path id="Trazado_162757" data-name="Trazado 162757" d="M-1869.4,1435.356l-31.15-1.119.419-4.063,31.14,1.066Z" transform="translate(1902.235 -1430.173)" fill="#fff"/>
            <path id="Trazado_162758" data-name="Trazado 162758" d="M-1869.974,1441.186l-31.17-1.226.42-4.072,31.16,1.173Z" transform="translate(1901.986 -1427.758)" fill="#fff"/>
            <path id="Trazado_162759" data-name="Trazado 162759" d="M-1870.544,1447.028l-31.191-1.333.421-4.08,31.181,1.279Z" transform="translate(1901.736 -1425.337)" fill="#fff"/>
          </g>
        </g>
        <path id="Trazado_162760" data-name="Trazado 162760" d="M-1846.248,1455.832a1.114,1.114,0,0,1-1.156.986l-113.807-5.477a.9.9,0,0,1-.845-1.033h0a1.056,1.056,0,0,1,1.068-.942l113.791,5.379a.985.985,0,0,1,.95,1.087Z" transform="translate(1970.776 -1365.01)" fill="#fff"/>
        <path id="Trazado_162761" data-name="Trazado 162761" d="M-1851.669,1513.667a1.088,1.088,0,0,1-1.167.972l-114.5-9.33a.954.954,0,0,1-.848-1.084h0a1.03,1.03,0,0,1,1.077-.927l114.479,9.227a1.04,1.04,0,0,1,.956,1.142Z" transform="translate(1968.188 -1342.218)" fill="#fff"/>
        <g id="Grupo_101488" data-name="Grupo 101488" transform="translate(108.804 0.992)">
          <path id="Trazado_162762" data-name="Trazado 162762" d="M-1867.522,1395.43l-24.185-.308.445-4.354,24.177.264Z" transform="translate(1891.707 -1390.768)" fill="#fff"/>
          <path id="Trazado_162763" data-name="Trazado 162763" d="M-1870.17,1394.084l-18.334-.226.239-2.349,18.33.208Z" transform="translate(1893.061 -1390.454)" fill="url(#linear-gradient-5)"/>
        </g>
        <path id="Trazado_162764" data-name="Trazado 162764" d="M-1913.73,1522.4l-53.467-4.177,7.237-63.773,53.21,2.683Z" transform="translate(1968.606 -1362.862)" fill="#fff"/>
        <path id="Trazado_162765" data-name="Trazado 162765" d="M-1869.072,1526.382l-56.286-4.4,6.95-65.437,55.993,2.823Z" transform="translate(1986.289 -1361.975)" fill="#fff"/>
      </g>
      <path id="Trazado_162766" data-name="Trazado 162766" d="M-1839.333,1576.687l-.384,3.924a7.089,7.089,0,0,1-7.659,6.339l-120.815-10.677a6.26,6.26,0,0,1-5.514-7.119l21.783-190.437a7.158,7.158,0,0,1,6.888-6.255l14.535,0c-.1.538-.191,1.073-.283,1.61q-.449,2.635-.8,5.284c-.232,1.755-.431,3.515-.588,5.275-.208,2.295-.35,4.591-.413,6.88a88.776,88.776,0,0,0,.576,13.451c3.244,26.367,39.026,30.73,36.737,61.809-1.182,16.079-9.47,31.519-9.291,47.822.36,32.371,33.476,35.257,54.633,51.385a54.255,54.255,0,0,1,8.992,8.673C-1840.379,1575.32-1839.844,1576-1839.333,1576.687Z" transform="translate(1973.752 -1372.461)" fill="#fff" opacity="0.5" style="mix-blend-mode: soft-light;isolation: isolate"/>
    </g>
    <g id="Grupo_101497" data-name="Grupo 101497" transform="translate(-2014.789 1430.566)">
      <g id="Grupo_101493" data-name="Grupo 101493" transform="translate(6.46)">
        <path id="Trazado_162767" data-name="Trazado 162767" d="M-1928.707,1458.62c0,2.792-2.059,5.281-4.362,5.281h-79.973c-2.3,0-4.232-2.488-4.232-5.281v-48.892c0-2.794,1.928-4.873,4.232-4.873h79.973a4.643,4.643,0,0,1,4.362,4.873Z" transform="translate(2017.274 -1404.856)" fill="url(#linear-gradient-6)"/>
        <path id="Trazado_162768" data-name="Trazado 162768" d="M-1927.151,1409.73v48.89a5.638,5.638,0,0,1-2.074,4.523,3.549,3.549,0,0,1-2.067.758h-79.973c-2.3,0-4.453-2.488-4.453-5.281v-48.89a4.713,4.713,0,0,1,4.453-4.874h79.973C-1928.987,1404.856-1927.151,1406.935-1927.151,1409.73Z" transform="translate(2017.932 -1404.856)" fill="url(#linear-gradient-7)"/>
        <g id="Grupo_101491" data-name="Grupo 101491" transform="translate(14.99 7.66)">
          <path id="Trazado_162769" data-name="Trazado 162769" d="M-1943.551,1448.891l-15.507-21.836a.858.858,0,0,0-.7-.353.863.863,0,0,0-.7.353l-8.917,12.552-14.6-20.565a.862.862,0,0,0-.7-.353.86.86,0,0,0-.7.353l-21.2,29.85a.912.912,0,0,0-.038.9.957.957,0,0,0,.743.512h61.638a.957.957,0,0,0,.743-.512A.915.915,0,0,0-1943.551,1448.891Z" transform="translate(2006.737 -1406.669)" fill="#fff"/>
          <circle id="Elipse_5323" data-name="Elipse 5323" cx="6.682" cy="6.682" r="6.682" transform="translate(38.42)" fill="#fff"/>
        </g>
        <g id="Grupo_101492" data-name="Grupo 101492" transform="translate(2.214)" opacity="0.3" style="mix-blend-mode: multiply;isolation: isolate">
          <path id="Trazado_162770" data-name="Trazado 162770" d="M-1929.209,1463.143a3.6,3.6,0,0,1-2.083.758h-79.973c-2.3,0-4.453-2.488-4.453-5.281v-48.89a4.713,4.713,0,0,1,4.453-4.874h.807a92.058,92.058,0,0,0,5.619,9.163c20.977,28.332,54.138,20.157,73.3,45.8C-1930.677,1460.979-1929.9,1462.071-1929.209,1463.143Z" transform="translate(2015.718 -1404.856)" fill="url(#linear-gradient-8)"/>
        </g>
      </g>
      <g id="Grupo_101496" data-name="Grupo 101496" transform="translate(0 37.209)">
        <path id="Trazado_162771" data-name="Trazado 162771" d="M-2014.791,1442.991v-4.857a9.362,9.362,0,0,0,1.065-3.6c.366-2.566-.3-1.549-.627-.481a1.761,1.761,0,0,1-.505.76.965.965,0,0,1-1.6-.583l-.459-3.215s-1.865,1.906-.517,6.676a19.57,19.57,0,0,1,0,5.094Z" transform="translate(2023.458 -1431.011)" fill="url(#linear-gradient-9)"/>
        <path id="Trazado_162772" data-name="Trazado 162772" d="M-1955.939,1445.614l1.223-4.729a4.893,4.893,0,0,1-.612-3.666c.565-1.852.225-1.194.68,0s1.354-.828,2.057-2.667,1.063.989.891,2.667-.233,2.676-1.236,3.9-.8,5.578-.8,5.578Z" transform="translate(2049.656 -1429.768)" fill="url(#linear-gradient-10)"/>
        <path id="Trazado_162773" data-name="Trazado 162773" d="M-2002.689,1533.89c-.039-1.042-2.55-.832-4.2-.674s-2.37.818-2.626,1.436-.064,2.138,1.455,1.5C-2006.808,1535.629-2002.655,1534.812-2002.689,1533.89Z" transform="translate(2026.974 -1387.871)" fill="#26264f"/>
        <path id="Trazado_162774" data-name="Trazado 162774" d="M-2006.06,1530.876l-1.171,4.036s-1.171.805-1.555.406l.435-4.652Z" transform="translate(2027.321 -1388.894)" fill="url(#linear-gradient-11)"/>
        <path id="Trazado_162775" data-name="Trazado 162775" d="M-1999.907,1529.136l-3.875,1.69.65,1.961,3.881-1.01Z" transform="translate(2029.436 -1389.541)" fill="url(#linear-gradient-12)"/>
        <path id="Trazado_162776" data-name="Trazado 162776" d="M-1999.278,1536.416s-2.583.668-3.725-.858a14.222,14.222,0,0,1-1.689-3.713,1.151,1.151,0,0,1,.67-1.424c.819-.326,1.933-.679,2.409-.411.794.447.05,3.417.4,4.192S-1999.18,1535.473-1999.278,1536.416Z" transform="translate(2029.028 -1389.211)" fill="#26264f"/>
        <path id="Trazado_162777" data-name="Trazado 162777" d="M-1990.937,1486.67a215.675,215.675,0,0,1-4.44,32.1,215.676,215.676,0,0,1-9.643,32.224,4.237,4.237,0,0,1-1.717.417,4.262,4.262,0,0,1-1.962-.417c-.634-4.826-.96-8.9-1.142-11.926-.479-7.99-.7-12.082.391-16.837,1.021-4.461,1.842-4.113,2.908-9.044.948-4.386.968-7.759.97-12.7a111.725,111.725,0,0,0-.809-13.407Z" transform="translate(2026.709 -1407.488)" fill="url(#linear-gradient-13)"/>
        <path id="Trazado_162778" data-name="Trazado 162778" d="M-2006.243,1547.7c1.027-3.3-1-4.814-.761-9.008.289-5.124,3.444-5.276,4.442-11.038.8-4.629-1.151-5.029-.635-10.657.548-5.981,2.9-7.193,2.41-10.783-.275-2-1.438-4.719-5.52-7.685a111.845,111.845,0,0,0-.79-11.441l15.444-.412a215.675,215.675,0,0,1-4.44,32.1,215.676,215.676,0,0,1-9.643,32.224,4.237,4.237,0,0,1-1.717.417,4.137,4.137,0,0,1-1.09-.115A8.584,8.584,0,0,0-2006.243,1547.7Z" transform="translate(2027.424 -1407.488)" opacity="0.3" fill="url(#linear-gradient-14)" style="mix-blend-mode: multiply;isolation: isolate"/>
        <path id="Trazado_162779" data-name="Trazado 162779" d="M-1981.924,1485.511a92.178,92.178,0,0,0,1.344,9.775c1.781,9.251,3.825,12.215,4.365,18.264a34.709,34.709,0,0,1-2.03,14.716c-5,14.417-18.733,21.126-22.367,22.769q-.617-2-1.23-3.992a36.633,36.633,0,0,0,3.545-5.8c2.179-4.452,2.326-7.073,3.813-11.457,2.683-7.908,4.722-6.789,5.211-10.815.777-6.38-4.374-8.957-9.017-21.157a65.913,65.913,0,0,1-2.538-8.247Z" transform="translate(2030.256 -1407.978)" fill="url(#linear-gradient-15)"/>
        <path id="Trazado_162780" data-name="Trazado 162780" d="M-2012.3,1438.255l-3.934-.635a29.293,29.293,0,0,0-5.456,19.412,25.465,25.465,0,0,0,7.678,16.123,25.021,25.021,0,0,0,12.2,6.231c0,11.388-.212,18.568-.6,22.866a55.9,55.9,0,0,0,.138,10.476,11.3,11.3,0,0,0,.508,3.044c3.243,6.547,21.843,1.358,26.868-.812a5.549,5.549,0,0,0,3.2-2.74c.73-1.787.031-3.406-.253-4.821-.7-3.477,1.37-6.1,5.514-12.846,1.753-2.853,4.3-7.133,7.27-12.693,3.441,1,11.549,2.8,19.486-.983,11.664-5.565,18.319-20.974,14.926-37.674l-3.552-1.016a35.183,35.183,0,0,1-5.39,12.005c-1.878,2.67-3.441,4.894-6.154,6.137-4.261,1.952-8.045-.03-13.576-1.4-8.715-2.151-16-1.349-24.855-.373-9.671,1.065-12.321,3.052-19.393,1.717-3.146-.594-7.082-1.39-10.306-4.515C-2014.333,1449.614-2012.568,1439.627-2012.3,1438.255Z" transform="translate(2021.815 -1428.217)" fill="url(#linear-gradient-16)"/>
        <path id="Trazado_162781" data-name="Trazado 162781" d="M-1987.384,1447.012s.579,2.322-.238,3.362-3.544,5.028-4.433,5.222c-.5.111-1.772.3-2.77.447a.532.532,0,0,0-.149,1.01,14.254,14.254,0,0,0,5.743.831,20.139,20.139,0,0,0,9.357-2.553.231.231,0,0,0-.134-.431l-1.953.146a2.678,2.678,0,0,1-2.863-2.968l.121-1.087Z" transform="translate(2033.027 -1424.249)" fill="url(#linear-gradient-17)"/>
        <g id="Grupo_101495" data-name="Grupo 101495" transform="translate(41.047 19.15)">
          <g id="Grupo_101494" data-name="Grupo 101494">
            <path id="Trazado_162782" data-name="Trazado 162782" d="M-1987.6,1452.533c.269-.148,2.451-.413,2.753-1.586.408-1.593-1.024-3.532-1.2-3.845-.747-1.306-.935-1.482-1.282-1.7l-.482-.283-.057-.02a5.469,5.469,0,0,0-1.558-.06c-.67.158-1.325,2.916-1.033,6.789-.024.148-.048.3-.07.448C-1990.591,1452.664-1987.581,1452.671-1987.6,1452.533Z" transform="translate(1993.989 -1444.246)" fill="url(#linear-gradient-18)"/>
            <path id="Trazado_162783" data-name="Trazado 162783" d="M-1984.522,1445.1c.1.474-1.158,1.416-1.693,1.823a1.98,1.98,0,0,0-.425.485.589.589,0,0,0-.064.144c-.246.762.977,1.626.752,1.97-.164.249-.989-.061-1.081.154s.6.6.5.841c-.074.183-.5.027-.754.31-.128.141-.087.249-.218.673a3.78,3.78,0,0,1-.259.65c-.4.716-1.569,1-1.8.723-.065-.078-.013-.145-.083-.407a2.119,2.119,0,0,0-.242-.522,5.493,5.493,0,0,0-1.448-1.088,3.887,3.887,0,0,1-1.522-1.656l-.029-.071a1.089,1.089,0,0,1-.041-.114c-.236-.768.74-2.1.74-2.1a8.307,8.307,0,0,1,2.562-2.209,11.252,11.252,0,0,1,3.438-.158C-1985.52,1444.61-1984.6,1444.721-1984.522,1445.1Z" transform="translate(1992.962 -1444.472)" fill="#26264f"/>
            <path id="Trazado_162784" data-name="Trazado 162784" d="M-1985.9,1447.779s-.925,1.108-2.145-.223l-.6.178s1.474,3.242,1.79,3.242a9.627,9.627,0,0,0,1.235-.209.776.776,0,0,0,.461-.879A12.787,12.787,0,0,0-1985.9,1447.779Z" transform="translate(1994.787 -1443.169)" fill="#26264f"/>
            <path id="Trazado_162785" data-name="Trazado 162785" d="M-1988.187,1447.874c-.3-.4-.812-.006-.8.518s.528,1.056,1.019.94S-1987.779,1448.411-1988.187,1447.874Z" transform="translate(1994.64 -1443.102)" fill="url(#linear-gradient-19)"/>
          </g>
        </g>
        <path id="Trazado_162786" data-name="Trazado 162786" d="M-2002.559,1505.48c6.3,2.221,13.645-1.026,15.478-5.454,1.356-3.275-1.541-6.4.506-9.769,1.973-3.246,5.535-1.792,7.994-5.076,2.679-3.578-.474-6.746,1.9-11.545,1.788-3.609,6.07-6.858,10.277-6.851,5,.009,6.868,4.612,11.165,3.68,2.245-.488,2.192-1.844,5.329-4.06,5.441-3.848,9.092-2.236,13.575-4.948a13.644,13.644,0,0,0,4.154-3.983c-2.677,6.8-7.311,12.183-13.245,15.014-7.937,3.786-16.044,1.987-19.486.983-2.972,5.56-5.517,9.84-7.27,12.693-4.144,6.745-6.211,9.369-5.514,12.846.284,1.415.983,3.034.253,4.821a5.549,5.549,0,0,1-3.2,2.74c-5.025,2.171-23.624,7.359-26.868.813a11.3,11.3,0,0,1-.508-3.044c-.113-1.066-.188-2.084-.236-3.04A12.407,12.407,0,0,0-2002.559,1505.48Z" transform="translate(2027.547 -1419.828)" opacity="0.3" fill="url(#linear-gradient-20)" style="mix-blend-mode: multiply;isolation: isolate"/>
      </g>
    </g>
    <g id="Grupo_101498" data-name="Grupo 101498" transform="translate(-1844.55 1553.265)">
      <path id="Trazado_162787" data-name="Trazado 162787" d="M-1892.41,1539.715a29.436,29.436,0,0,0,2.339,4.38c-.129.128-.257.256-.378.4-2.408,2.749-2.559,6.9-.28,9.246,2.3,2.372,6.14,1.948,8.517-.92.124-.149.236-.3.347-.458a27.721,27.721,0,0,0,4.377,2.34c-.057.185-.111.371-.155.562-.849,3.709,1.085,7.27,4.337,7.884s6.49-1.965,7.221-5.693c.038-.189.063-.377.085-.563a28.367,28.367,0,0,0,4.99-.571c.037.181.078.363.129.542,1.017,3.508,4.375,5.294,7.456,3.945,3.049-1.334,4.6-5.208,3.511-8.613-.057-.174-.122-.342-.189-.507a31.144,31.144,0,0,0,3.936-3.169c.113.124-1.731.7-1.609.819,2.423,2.266,7.946,1.41,9.858-1.312a6.772,6.772,0,0,0-.952-8.718c-.124-.112-.253-.213-.383-.312a33.1,33.1,0,0,0,1.794-4.58c.149.043.3.083.452.113a5.093,5.093,0,0,0,5.955-4.693,5.946,5.946,0,0,0-4.551-6.515c-.145-.029-.29-.046-.434-.06a31.416,31.416,0,0,0-.568-4.6c.138-.038.276-.08.411-.131a5.047,5.047,0,0,0,2.73-6.7,5.255,5.255,0,0,0-6.536-3.143c-.132.048-.26.1-.387.162a28.624,28.624,0,0,0-2.508-3.531c.1-.1.189-.195.277-.3a4.878,4.878,0,0,0-.75-6.861,4.955,4.955,0,0,0-6.88.445c-.091.1-.174.212-.255.323a27.572,27.572,0,0,0-3.761-1.794c.037-.131.073-.26.1-.4.5-2.553-1.064-5.063-6.921-5.605-2.695-.249-2.145,1.2-2.727,3.743-.03.131-.051.262-.068.393a27.848,27.848,0,0,0-4.207.261c-.03-.131-.061-.26-.1-.39-.791-2.468-2.686-4.79-8.8-2.986-2.68.791-1.609,3.544-.876,6.073.039.132.085.259.135.384a30.631,30.631,0,0,0-3.774,2.322c-.093-.1-.187-.2-.289-.29a5.416,5.416,0,0,0-7.345.475,4.969,4.969,0,0,0-.218,7.2c.105.1.218.188.33.275a33.1,33.1,0,0,0-2.407,4.039c-.142-.042-.287-.08-.437-.108a6.289,6.289,0,0,0-6.9,4.342,4.88,4.88,0,0,0,3.6,6.541c.152.03.3.047.457.063a32.247,32.247,0,0,0-.21,4.9c-.159.044-.319.09-.478.146a7,7,0,0,0-4.466,7.714,5.038,5.038,0,0,0,6.978,3.693C-1892.725,1539.861-1892.566,1539.789-1892.41,1539.715Zm8.3-9.274a21.482,21.482,0,0,1,13.7-25.332,18.72,18.72,0,0,1,23.675,11.6,21.462,21.462,0,0,1-11.937,26.883C-1869.628,1548.03-1881.252,1541.922-1884.107,1530.441Z" transform="translate(1903.063 -1491.105)" fill="url(#linear-gradient-21)"/>
      <path id="Trazado_162788" data-name="Trazado 162788" d="M-1895.17,1522.471a4.88,4.88,0,0,1-3.6-6.541,6.289,6.289,0,0,1,6.9-4.342c.149.028.295.067.437.108a33.1,33.1,0,0,1,2.407-4.039c-.112-.087-.225-.177-.33-.275-2.016-1.878-3.935-6.043-1.607-7.953,4.325-3.549,7.178-1.521,9.17.273.1.093.2.191.289.29a30.631,30.631,0,0,1,3.774-2.322c-.05-.125-.1-.252-.135-.384a4.715,4.715,0,0,1,.672-3.962q2.072,5.823,4.12,11.953a21.571,21.571,0,0,0-11.035,24.223,18.741,18.741,0,0,0,17.876,14.573c.182,1.036.357,2.083.569,3.123.582,2.851,1.329,5.7,2.089,8.584-.81.09-1.619.146-2.426.166-.023.186-.047.374-.085.563-.731,3.729-3.406,6.779-9.351,5.9-3.295-.484-3.057-4.385-2.208-8.093.044-.191.1-.377.155-.562a27.721,27.721,0,0,1-4.377-2.34c-.111.155-.223.309-.347.457-2.377,2.869-8.608,3.643-10.9,1.264-2.272-2.356.258-6.84,2.666-9.588.121-.139.249-.268.378-.4a29.436,29.436,0,0,1-2.339-4.38c-.156.075-.316.146-.479.208a5.036,5.036,0,0,1-6.978-3.692,7,7,0,0,1,4.466-7.714c.159-.057.319-.1.478-.146a32.247,32.247,0,0,1,.21-4.9C-1894.865,1522.518-1895.017,1522.5-1895.17,1522.471Z" transform="translate(1903.063 -1490.166)" fill="url(#linear-gradient-22)"/>
      <path id="Trazado_162789" data-name="Trazado 162789" d="M-1837.434,1523.35c-.145-.027-.29-.044-.435-.06a31.284,31.284,0,0,0-.532-4.6c.138-.039.276-.08.413-.131a5.089,5.089,0,0,0,2.794-6.711,5.237,5.237,0,0,0-6.533-3.147c-.134.048-.263.1-.39.162a28.409,28.409,0,0,0-2.488-3.537c.1-.1.19-.2.28-.3a4.872,4.872,0,0,0-.7-6.874,4.985,4.985,0,0,0-6.907.445c-.091.105-.175.214-.258.324a27.33,27.33,0,0,0-3.76-1.8c.038-.131.075-.262.1-.4a4.7,4.7,0,0,0-3.817-5.52,5.017,5.017,0,0,0-5.848,3.655c-.031.131-.053.262-.073.393a28.253,28.253,0,0,0-4.222.263c-.028-.131-.06-.26-.1-.39a4.842,4.842,0,0,0-6.17-2.972,5.068,5.068,0,0,0-3.567,6.063c.037.132.084.26.132.385a30.975,30.975,0,0,0-3.807,2.325c-.091-.1-.183-.2-.286-.29a5.448,5.448,0,0,0-7.375.477,4.973,4.973,0,0,0-.279,7.216c.105.1.216.188.33.276a33.28,33.28,0,0,0-2.45,4.046c-.144-.042-.287-.08-.438-.108a6.37,6.37,0,0,0-6.961,4.349,4.85,4.85,0,0,0,3.558,6.555c.152.029.3.047.458.061a31.958,31.958,0,0,0-.253,4.909c-.159.043-.32.088-.481.145a7.077,7.077,0,0,0-4.547,7.73,5.019,5.019,0,0,0,6.974,3.7c.165-.062.324-.135.482-.209a29.25,29.25,0,0,0,2.312,4.39c-.131.126-.26.256-.384.4-2.44,2.754-2.626,6.913-.358,9.267,2.291,2.376,6.148,1.952,8.558-.925.124-.149.239-.3.352-.459a27.4,27.4,0,0,0,4.375,2.346c-.058.185-.115.373-.161.565-.884,3.716,1.03,7.285,4.289,7.9s6.531-1.97,7.3-5.706c.039-.191.066-.378.09-.566a28.509,28.509,0,0,0,5.012-.572c.037.182.077.364.128.545.99,3.515,4.346,5.3,7.45,3.952a7.172,7.172,0,0,0,3.594-8.631c-.056-.175-.12-.343-.185-.509a31.738,31.738,0,0,0,3.976-3.176c.112.124.226.246.35.363a5.172,5.172,0,0,0,7.933-.858,6.762,6.762,0,0,0-.886-8.736c-.124-.111-.252-.212-.381-.312a33.331,33.331,0,0,0,1.838-4.588c.149.043.3.083.452.112a5.156,5.156,0,0,0,6.013-4.7A5.9,5.9,0,0,0-1837.434,1523.35Zm-23.32,20.317a18.582,18.582,0,0,1-25.419-13.178,21.7,21.7,0,0,1,13.953-25.378,18.648,18.648,0,0,1,23.664,11.62A21.651,21.651,0,0,1-1860.753,1543.667Z" transform="translate(1902.15 -1491.103)" fill="url(#linear-gradient-23)"/>
    </g>
  </g>
</svg>
