<svg xmlns="http://www.w3.org/2000/svg" xmlns:xlink="http://www.w3.org/1999/xlink" width="258.49" height="256.059" viewBox="0 0 258.49 256.059">
  <defs>
    <linearGradient id="linear-gradient" x1="0.723" y1="0.099" x2="0.415" y2="0.757" gradientUnits="objectBoundingBox">
      <stop offset="0" stop-color="#ffc444"/>
      <stop offset="0.996" stop-color="#f36f56"/>
    </linearGradient>
    <clipPath id="clip-path">
      <path id="Trazado_162834" data-name="Trazado 162834" d="M-2143.054,1521.317c-8.062-7.565-18.7-19.854-23.514-37.227-6.315-22.787,2.938-34.3,1.895-72.878-.659-24.392-1.366-41.408-13.663-50.51-9.637-7.132-25.237-8.551-34.706-1.94-7.872,5.5-12.427,17.188-13.817,25.533-1.133,6.8-.223,11.74-4.143,15.323-4.007,3.661-8.332,1.589-12.079,4.3-7.6,5.5-3.2,23.719-2.488,26.662,7.91,32.753,38.089,54.843,51.368,64.319A204.126,204.126,0,0,0-2143.054,1521.317Z" transform="translate(2247.48 -1354.501)" fill="#d8dee8"/>
    </clipPath>
    <clipPath id="clip-path-2">
      <path id="Trazado_162839" data-name="Trazado 162839" d="M-2178.161,1511.541c-17.457.15-39.715-2.151-61.047-11.753-5.444-2.452-39.073-17.59-35.133-32.9,1.389-5.392,6.266-6.253,8.249-13.432,2.348-8.506-3-12.744-6.715-23.333-2.219-6.318-8.712-24.81,2.355-35.074,6.613-6.134,19.2-9.053,28.785-6.833,14.063,3.257,18.92,16.931,26.738,40.209,6.93,20.634,5.168,25.706,10.417,40.478C-2200.616,1479.865-2193.289,1494.956-2178.161,1511.541Z" transform="translate(2276.724 -1387.474)" fill="url(#linear-gradient)"/>
    </clipPath>
    <linearGradient id="linear-gradient-3" x1="0.434" y1="1.819" x2="0.507" y2="0.645" gradientUnits="objectBoundingBox">
      <stop offset="0" stop-color="#444b8c"/>
      <stop offset="0.996" stop-color="#26264f"/>
    </linearGradient>
    <linearGradient id="linear-gradient-4" x1="0.378" y1="0.48" x2="0.132" y2="0.522" gradientUnits="objectBoundingBox">
      <stop offset="0" stop-color="#444b8c"/>
      <stop offset="0.395" stop-color="#383c74"/>
      <stop offset="0.996" stop-color="#26264f"/>
    </linearGradient>
    <linearGradient id="linear-gradient-5" x1="0.788" y1="-0.179" x2="0.128" y2="1.287" xlink:href="#linear-gradient-3"/>
    <linearGradient id="linear-gradient-6" x1="0.788" y1="-0.253" x2="-0.045" y2="1.885" gradientUnits="objectBoundingBox">
      <stop offset="0" stop-color="#77e78f"/>
      <stop offset="0.996" stop-color="#80c559"/>
    </linearGradient>
    <linearGradient id="linear-gradient-7" x1="0.413" y1="-2.15" x2="0.584" y2="3.478" xlink:href="#linear-gradient-6"/>
    <linearGradient id="linear-gradient-8" x1="0" y1="0.5" x2="1" y2="0.5" xlink:href="#linear-gradient-6"/>
    <linearGradient id="linear-gradient-9" y1="0.5" x2="1" y2="0.5" gradientUnits="objectBoundingBox">
      <stop offset="0" stop-color="#311944"/>
      <stop offset="1" stop-color="#893976"/>
    </linearGradient>
    <linearGradient id="linear-gradient-11" x1="0.42" y1="-0.384" x2="0.628" y2="1.969" gradientUnits="objectBoundingBox">
      <stop offset="0" stop-color="#ff9085"/>
      <stop offset="1" stop-color="#fb6fbb"/>
    </linearGradient>
    <linearGradient id="linear-gradient-12" x1="-0.459" y1="-4.298" x2="1.049" y2="3.284" xlink:href="#linear-gradient-11"/>
    <linearGradient id="linear-gradient-13" x1="0" y1="0.5" x2="1" y2="0.5" xlink:href="#linear-gradient-11"/>
    <linearGradient id="linear-gradient-14" x1="-0.008" y1="0.35" x2="0.749" y2="0.573" xlink:href="#linear-gradient-9"/>
    <linearGradient id="linear-gradient-15" x1="96.054" y1="0.094" x2="96.703" y2="1.596" xlink:href="#linear-gradient"/>
    <linearGradient id="linear-gradient-16" x1="139.451" y1="-0.027" x2="140.379" y2="2" xlink:href="#linear-gradient"/>
    <linearGradient id="linear-gradient-17" x1="-0.008" y1="0.35" x2="0.749" y2="0.573" xlink:href="#linear-gradient-9"/>
    <linearGradient id="linear-gradient-18" x1="96.018" y1="0.094" x2="96.667" y2="1.596" xlink:href="#linear-gradient"/>
    <linearGradient id="linear-gradient-19" x1="139.393" y1="-0.027" x2="140.321" y2="2" xlink:href="#linear-gradient"/>
    <linearGradient id="linear-gradient-21" x1="85.542" y1="0.094" x2="86.191" y2="1.596" xlink:href="#linear-gradient"/>
    <linearGradient id="linear-gradient-22" x1="124.105" y1="-0.027" x2="125.033" y2="2" xlink:href="#linear-gradient"/>
    <linearGradient id="linear-gradient-23" x1="1147.198" y1="0.5" x2="1148.197" y2="0.5" gradientUnits="objectBoundingBox">
      <stop offset="0" stop-color="#aa80f9"/>
      <stop offset="0.996" stop-color="#6165d7"/>
    </linearGradient>
    <linearGradient id="linear-gradient-24" x1="3298.196" y1="0.5" x2="3299.195" y2="0.5" gradientUnits="objectBoundingBox">
      <stop offset="0.004" stop-color="#f36f56"/>
      <stop offset="1" stop-color="#ffc444"/>
    </linearGradient>
    <linearGradient id="linear-gradient-25" x1="1488.524" y1="0.5" x2="1489.523" y2="0.5" xlink:href="#linear-gradient-23"/>
    <linearGradient id="linear-gradient-26" x1="1669.438" y1="0.5" x2="1670.438" y2="0.5" xlink:href="#linear-gradient-24"/>
    <linearGradient id="linear-gradient-27" x1="494.637" y1="0.046" x2="493.014" y2="0.301" xlink:href="#linear-gradient-9"/>
    <linearGradient id="linear-gradient-28" x1="341.197" y1="0.163" x2="340.082" y2="0.436" xlink:href="#linear-gradient-9"/>
    <linearGradient id="linear-gradient-29" x1="153.793" y1="0.683" x2="153.577" y2="0.44" xlink:href="#linear-gradient-3"/>
    <linearGradient id="linear-gradient-30" x1="119.277" y1="0.023" x2="119.415" y2="0.824" xlink:href="#linear-gradient-11"/>
    <linearGradient id="linear-gradient-31" x1="183.387" y1="-0.146" x2="183.6" y2="0.812" xlink:href="#linear-gradient-11"/>
    <linearGradient id="linear-gradient-32" x1="328.6" y1="-0.061" x2="328.982" y2="1.755" xlink:href="#linear-gradient-11"/>
    <linearGradient id="linear-gradient-33" x1="231.795" y1="0.162" x2="230.939" y2="2.45" xlink:href="#linear-gradient-3"/>
    <linearGradient id="linear-gradient-34" x1="488.054" y1="-262.855" x2="487.923" y2="-262.241" xlink:href="#linear-gradient-24"/>
    <linearGradient id="linear-gradient-35" x1="1648.048" y1="-450.88" x2="1646.554" y2="-449.23" xlink:href="#linear-gradient-24"/>
    <linearGradient id="linear-gradient-36" x1="252.454" y1="0.5" x2="253.454" y2="0.5" xlink:href="#linear-gradient-3"/>
    <linearGradient id="linear-gradient-37" x1="2008.682" y1="2.058" x2="2008.307" y2="1.072" xlink:href="#linear-gradient-24"/>
  </defs>
  <g id="Grupo_101552" data-name="Grupo 101552" transform="translate(2281.426 -1350.446)">
    <path id="Trazado_162827" data-name="Trazado 162827" d="M-2033.929,1423.213c6.814-62.067-53.359-83.63-96.018-67.738-43,16.02-52.973-10.537-113.445-2.948-61.23,7.683-30.142,103.8-30.142,103.8s9.743,83.579,21.285,122.1c11.48,38.316,121.368,24.454,148.1,23.31,26.578-1.137,49.673,1.058,72.8-41.014C-2008.271,1518.73-2040.721,1485.074-2033.929,1423.213Z" transform="translate(0 0)" fill="#f4f7fa"/>
    <path id="Trazado_162828" data-name="Trazado 162828" d="M-2084.608,1403.441l-4.965.336a38.728,38.728,0,0,0-2.248-6.4l4.12-2.766a2.445,2.445,0,0,0,.645-3.409l-4.8-7.067a2.492,2.492,0,0,0-3.434-.687l-4.174,2.786a39.834,39.834,0,0,0-5.149-4.448l2.2-4.519a2.484,2.484,0,0,0-1.16-3.306l-7.736-3.806a2.472,2.472,0,0,0-3.323,1.106l-2.217,4.533a39.627,39.627,0,0,0-6.708-1.328l-.385-5.084a2.541,2.541,0,0,0-2.685-2.325l-8.646.51a2.451,2.451,0,0,0-2.321,2.627l.388,5.1a39.367,39.367,0,0,0-6.5,2.138l-2.916-4.25a2.569,2.569,0,0,0-3.514-.7l-7.236,4.751a2.454,2.454,0,0,0-.668,3.458l2.925,4.253a39.026,39.026,0,0,0-4.54,5.115l-4.682-2.261a2.552,2.552,0,0,0-3.4,1.132l-3.831,7.75a2.5,2.5,0,0,0,1.192,3.352l4.648,2.23a38.2,38.2,0,0,0-1.31,6.741l-5.144.347a2.507,2.507,0,0,0-2.362,2.672l.655,8.636a2.55,2.55,0,0,0,2.74,2.321l5.1-.36a38.66,38.66,0,0,0,2.291,6.531l-4.2,2.8a2.474,2.474,0,0,0-.673,3.48l4.961,7.143a2.574,2.574,0,0,0,3.539.654l4.165-2.8a39.971,39.971,0,0,0,5.315,4.512l-2.177,4.453a2.474,2.474,0,0,0,1.184,3.33l7.878,3.71a2.549,2.549,0,0,0,3.372-1.177l2.148-4.412a39.8,39.8,0,0,0,6.869,1.252l.37,4.876a2.491,2.491,0,0,0,2.694,2.281l8.632-.681a2.5,2.5,0,0,0,2.306-2.668l-.369-4.863a39.244,39.244,0,0,0,6.542-2.279l2.756,4.006a2.494,2.494,0,0,0,3.457.638l7.08-4.827a2.465,2.465,0,0,0,.649-3.431l-2.764-4.029a39.212,39.212,0,0,0,4.461-5.185l4.417,2.12a2.469,2.469,0,0,0,3.294-1.15l3.687-7.654a2.463,2.463,0,0,0-1.154-3.285l-4.426-2.138a38.288,38.288,0,0,0,1.23-6.673l4.924-.347a2.443,2.443,0,0,0,2.267-2.623l-.643-8.464A2.483,2.483,0,0,0-2084.608,1403.441Zm-44.753-15.208a25.411,25.411,0,0,1,27.018,23.264,24.99,24.99,0,0,1-23.224,26.728,25.4,25.4,0,0,1-27.3-23.245A24.983,24.983,0,0,1-2129.361,1388.233Z" transform="translate(29.954 4.656)" fill="#bfc8d6" opacity="0.3" style="mix-blend-mode: multiply;isolation: isolate"/>
    <g id="Grupo_101522" data-name="Grupo 101522" transform="translate(-2275.405 1355.638)">
      <g id="Grupo_101514" data-name="Grupo 101514" transform="translate(37.44)">
        <g id="Grupo_101513" data-name="Grupo 101513">
          <path id="Trazado_162829" data-name="Trazado 162829" d="M-2143.054,1521.317c-8.062-7.565-18.7-19.854-23.514-37.227-6.315-22.787,2.938-34.3,1.895-72.878-.659-24.392-1.366-41.408-13.663-50.51-9.637-7.132-25.237-8.551-34.706-1.94-7.872,5.5-12.427,17.188-13.817,25.533-1.133,6.8-.223,11.74-4.143,15.323-4.007,3.661-8.332,1.589-12.079,4.3-7.6,5.5-3.2,23.719-2.488,26.662,7.91,32.753,38.089,54.843,51.368,64.319A204.126,204.126,0,0,0-2143.054,1521.317Z" transform="translate(2247.48 -1354.501)" fill="#d8dee8"/>
          <g id="Grupo_101512" data-name="Grupo 101512" clip-path="url(#clip-path)">
            <g id="Grupo_101511" data-name="Grupo 101511" transform="translate(-36.583 -8.779)" opacity="0.5" style="mix-blend-mode: soft-light;isolation: isolate">
              <g id="Grupo_101507" data-name="Grupo 101507" transform="translate(82.971)">
                <path id="Trazado_162830" data-name="Trazado 162830" d="M-2143.989,1529.273c-14.055-5.341-26.154-11.713-35.958-18.938-14.512-10.7-23.551-22.981-26.865-36.518-2.592-10.587-1.63-22.059-.412-36.584a204.033,204.033,0,0,1,4.4-27.919c2.057-9.644,3.682-17.263,2.554-28.278a83.964,83.964,0,0,0-10.973-33.079l.549-.312a84.56,84.56,0,0,1,11.053,33.326c1.138,11.115-.5,18.776-2.566,28.475a203.612,203.612,0,0,0-4.384,27.84c-1.26,15.033-2.171,25.9.4,36.381,3.278,13.389,12.236,25.554,26.626,36.159,9.759,7.192,21.806,13.535,35.809,18.856Z" transform="translate(2211.248 -1347.644)" fill="#fff"/>
              </g>
              <g id="Grupo_101508" data-name="Grupo 101508" transform="translate(43.864 25.837)">
                <path id="Trazado_162831" data-name="Trazado 162831" d="M-2197.594,1423.135l-.1-.342c-6.49-21.784-18.143-35.414-26.776-43.012-9.346-8.224-17.244-11.337-17.322-11.368l.228-.589c.079.031,8.083,3.184,17.512,11.483,8.649,7.611,20.307,21.23,26.859,42.955a57.807,57.807,0,0,0,15.534-11.512c7.277-7.495,16.049-20.577,16.516-40.339l.633.015c-.473,19.979-9.35,33.206-16.713,40.784a57.228,57.228,0,0,1-16.041,11.783Z" transform="translate(2241.793 -1367.825)" fill="#fff"/>
              </g>
              <g id="Grupo_101509" data-name="Grupo 101509" transform="translate(33.714 46.51)">
                <path id="Trazado_162832" data-name="Trazado 162832" d="M-2197.195,1451.11l-.22-.065c-10.6-3.11-22.622-15.3-35.744-36.248a291.031,291.031,0,0,1-16.562-30.566l.575-.26a290.706,290.706,0,0,0,16.526,30.5c8.914,14.223,22.229,31.953,35.165,35.9a166.521,166.521,0,0,1,18.1-21.5c10.271-10.077,34.176-13.557,34.416-13.591l.088.626c-.238.033-23.94,3.485-34.061,13.416a165.47,165.47,0,0,0-18.148,21.6Z" transform="translate(2249.721 -1383.972)" fill="#fff"/>
              </g>
              <g id="Grupo_101510" data-name="Grupo 101510" transform="translate(0 88.371)">
                <path id="Trazado_162833" data-name="Trazado 162833" d="M-2165.716,1488.03l-.625-.074a146.614,146.614,0,0,1-27.593-6.9c-14.366-5.009-34.874-14.52-51-31.388l-31.125-32.564.457-.437,31.125,32.564c16.035,16.777,36.446,26.242,50.746,31.228a150.154,150.154,0,0,0,26.836,6.784,29.1,29.1,0,0,1-3.581-18.734,37.946,37.946,0,0,1,6.679-15.873,64.869,64.869,0,0,1,14.472-14.714l.36.521a64.117,64.117,0,0,0-14.322,14.567,37.322,37.322,0,0,0-6.566,15.6,28.63,28.63,0,0,0,3.818,18.873Z" transform="translate(2276.054 -1416.668)" fill="#fff"/>
              </g>
            </g>
          </g>
        </g>
      </g>
      <g id="Grupo_101521" data-name="Grupo 101521" transform="translate(0 42.215)">
        <g id="Grupo_101520" data-name="Grupo 101520">
          <path id="Trazado_162835" data-name="Trazado 162835" d="M-2178.161,1511.541c-17.457.15-39.715-2.151-61.047-11.753-5.444-2.452-39.073-17.59-35.133-32.9,1.389-5.392,6.266-6.253,8.249-13.432,2.348-8.506-3-12.744-6.715-23.333-2.219-6.318-8.712-24.81,2.355-35.074,6.613-6.134,19.2-9.053,28.785-6.833,14.063,3.257,18.92,16.931,26.738,40.209,6.93,20.634,5.168,25.706,10.417,40.478C-2200.616,1479.865-2193.289,1494.956-2178.161,1511.541Z" transform="translate(2276.724 -1387.474)" fill="url(#linear-gradient)"/>
          <g id="Grupo_101519" data-name="Grupo 101519" clip-path="url(#clip-path-2)">
            <g id="Grupo_101518" data-name="Grupo 101518" transform="translate(-2.739 -18.345)" opacity="0.5" style="mix-blend-mode: soft-light;isolation: isolate">
              <g id="Grupo_101515" data-name="Grupo 101515" transform="translate(26.627)">
                <path id="Trazado_162836" data-name="Trazado 162836" d="M-2139.719,1524.913a104.928,104.928,0,0,1-24.487-2.861c-23.565-5.641-44.015-19.706-60.782-41.8-17.43-22.971-26.513-48.876-31.066-66.564-3.171-12.321-2.592-25.962,1.725-40.539l.605.179c-4.282,14.467-4.86,27.992-1.718,40.2,4.537,17.631,13.592,43.452,30.958,66.34,16.676,21.979,37.007,35.965,60.426,41.571,17.581,4.208,36.185,3.743,55.293-1.382l.164.611A120.052,120.052,0,0,1-2139.719,1524.913Z" transform="translate(2258.065 -1373.145)" fill="#fff"/>
              </g>
              <g id="Grupo_101516" data-name="Grupo 101516" transform="translate(4.33 14.714)">
                <path id="Trazado_162837" data-name="Trazado 162837" d="M-2238.624,1445.36l-.239-.154c-37.673-24.271-37.339-52.259-36.339-60.26.02-.158.033-.26.034-.3l.633,0c0,.062-.01.147-.04.388-.986,7.89-1.3,35.459,35.811,59.491a72.338,72.338,0,0,0,8.615-15.132c3.6-8.516,7.113-21.564,3.45-35.36l.61-.162c3.713,13.977.154,27.175-3.485,35.785a71.722,71.722,0,0,1-8.872,15.49Z" transform="translate(2275.481 -1384.638)" fill="#fff"/>
              </g>
              <g id="Grupo_101517" data-name="Grupo 101517" transform="translate(0 26.565)">
                <path id="Trazado_162838" data-name="Trazado 162838" d="M-2233.478,1475.274c-15,0-25.484-3.912-32.109-7.692a45.44,45.44,0,0,1-10.156-7.788,25.588,25.588,0,0,1-3.12-3.791l.536-.334c.037.062,3.912,6.161,13.088,11.384,15.282,8.7,33.323,8.356,45.828,6.517.885-1.97,9.79-22.63,7.664-50.27l-2.259-29.357.63-.049,2.258,29.357c2.239,29.1-7.691,50.529-7.792,50.742l-.072.153-.168.025A97.35,97.35,0,0,1-2233.478,1475.274Z" transform="translate(2278.863 -1393.894)" fill="#fff"/>
              </g>
            </g>
          </g>
        </g>
      </g>
    </g>
    <g id="Grupo_101526" data-name="Grupo 101526" transform="translate(-2266.831 1427.843)">
      <g id="Grupo_101523" data-name="Grupo 101523" transform="translate(81.64 125.765)">
        <path id="Trazado_162840" data-name="Trazado 162840" d="M-2152.217,1539.134a9.159,9.159,0,0,1-6.073-6.894l-4.513-22.336-38.6,1.371-4.751,23.268c-.666,3.259,2,6.528,5.065,7.729l16.152,6.319a21,21,0,0,0,9.442,1.369l34.134-2.92a2.118,2.118,0,0,0,1.914-1.876c.115-1.006.814-2.137-.137-2.452Z" transform="translate(2206.26 -1508.913)" fill="#97a6b7"/>
        <path id="Trazado_162841" data-name="Trazado 162841" d="M-2152.12,1537.993a9.08,9.08,0,0,1-6.066-6.807l-4.508-22.056-37.664,1.356-4.746,22.976a6.723,6.723,0,0,0,4.158,7.629l16.135,6.24a21.219,21.219,0,0,0,9.433,1.352l34.1-2.883a2.1,2.1,0,0,0,1.913-1.853,2.1,2.1,0,0,0-1.434-2.243Z" transform="translate(2206.544 -1509.13)" fill="url(#linear-gradient-3)"/>
      </g>
      <g id="Grupo_101525" data-name="Grupo 101525">
        <g id="Grupo_101524" data-name="Grupo 101524">
          <path id="Trazado_162842" data-name="Trazado 162842" d="M-2262.415,1552.5c-4.187.25-7.611-2.466-7.611-6.054v-129.36c0-3.589,3.424-6.36,7.611-6.179l193.6,8.388a5.852,5.852,0,0,1,5.563,5.777v110.019a5.971,5.971,0,0,1-5.563,5.868Z" transform="translate(2270.026 -1410.899)" fill="url(#linear-gradient-4)"/>
          <path id="Trazado_162843" data-name="Trazado 162843" d="M-2261.056,1552.5c-4.187.25-7.612-2.466-7.612-6.054v-129.36c0-3.589,3.425-6.36,7.612-6.179l193.6,8.388a5.852,5.852,0,0,1,5.563,5.777v110.019a5.971,5.971,0,0,1-5.563,5.868Z" transform="translate(2270.407 -1410.899)" fill="url(#linear-gradient-5)"/>
          <path id="Trazado_162844" data-name="Trazado 162844" d="M-2068.231,1421.223l-193.6-7.963c-2.238-.092-4.059,1.386-4.059,3.3v129.025c0,1.917,1.821,3.366,4.059,3.238l193.6-11.118a3.187,3.187,0,0,0,2.98-3.137v-110.26A3.125,3.125,0,0,0-2068.231,1421.223Z" transform="translate(2271.185 -1410.238)" fill="#d8dee8" opacity="0.3" style="mix-blend-mode: multiply;isolation: isolate"/>
          <path id="Trazado_162845" data-name="Trazado 162845" d="M-2262.376,1537.374a1.4,1.4,0,0,1-1.581-1.274V1416.2a1.414,1.414,0,0,1,1.581-1.289l193.6,7.668a1.221,1.221,0,0,1,1.165,1.206v102.807a1.236,1.236,0,0,1-1.165,1.216Z" transform="translate(2271.727 -1409.775)" fill="#d8dee8"/>
        </g>
        <path id="Trazado_162846" data-name="Trazado 162846" d="M-2087.665,1532.952c-16.288-10.076-4.911-38.723-23.2-53.115-18.442-14.511-44.39,3.286-57.309-11.742-9.619-11.189,1.636-24.7-7.547-35.223-14.4-16.5-51.272,6.194-68.212-10.063a22.787,22.787,0,0,1-6.213-11.429l-10.908-.472c-4.187-.182-7.612,2.59-7.612,6.179v129.36c0,3.589,3.425,6.3,7.612,6.054l193.6-11.541a5.971,5.971,0,0,0,5.563-5.868v-1.956C-2074.746,1537.5-2082.6,1536.081-2087.665,1532.952Z" transform="translate(2270.407 -1410.899)" fill="#fff" opacity="0.6" style="mix-blend-mode: soft-light;isolation: isolate"/>
      </g>
    </g>
    <g id="Grupo_101531" data-name="Grupo 101531" transform="translate(-2236.16 1414.404)">
      <g id="Grupo_101530" data-name="Grupo 101530">
        <path id="Trazado_162847" data-name="Trazado 162847" d="M-2097.474,1405.26l-140.058-4.852a8.289,8.289,0,0,0-8.538,8.429v104.489a8.362,8.362,0,0,0,8.538,8.494l140.058-3.787c4.042-.11,7.305-3.8,7.305-8.235v-96.247C-2090.169,1409.111-2093.432,1405.4-2097.474,1405.26Z" transform="translate(2246.07 -1400.402)" fill="url(#linear-gradient-6)"/>
        <path id="Trazado_162848" data-name="Trazado 162848" d="M-2243.934,1510.5V1410.441a7.678,7.678,0,0,1,7.893-7.812l136.162,4.525c3.753.125,6.786,3.564,6.786,7.683v92.412c0,4.119-3.032,7.534-6.786,7.63l-136.162,3.492A7.748,7.748,0,0,1-2243.934,1510.5Z" transform="translate(2246.669 -1399.78)" fill="#fff" opacity="0.74" style="mix-blend-mode: soft-light;isolation: isolate"/>
        <path id="Trazado_162849" data-name="Trazado 162849" d="M-2097.474,1405.26l-140.058-4.852a8.289,8.289,0,0,0-8.538,8.429v6.259l155.9,4.219v-5.765C-2090.169,1409.111-2093.432,1405.4-2097.474,1405.26Z" transform="translate(2246.07 -1400.402)" fill="url(#linear-gradient-7)"/>
        <path id="Trazado_162850" data-name="Trazado 162850" d="M-2233,1407.334a2.7,2.7,0,0,1-2.768,2.753,2.911,2.911,0,0,1-2.775-2.923,2.7,2.7,0,0,1,2.775-2.753A2.911,2.911,0,0,1-2233,1407.334Z" transform="translate(2248.18 -1399.279)" fill="#fff"/>
        <path id="Trazado_162851" data-name="Trazado 162851" d="M-2225.467,1407.562a2.685,2.685,0,0,1-2.74,2.74,2.891,2.891,0,0,1-2.749-2.908,2.684,2.684,0,0,1,2.749-2.74A2.891,2.891,0,0,1-2225.467,1407.562Z" transform="translate(2250.307 -1399.211)" fill="#fff"/>
        <path id="Trazado_162852" data-name="Trazado 162852" d="M-2218.007,1407.788a2.666,2.666,0,0,1-2.714,2.727,2.869,2.869,0,0,1-2.72-2.893,2.665,2.665,0,0,1,2.72-2.727A2.871,2.871,0,0,1-2218.007,1407.788Z" transform="translate(2252.413 -1399.144)" fill="#fff"/>
        <path id="Trazado_162853" data-name="Trazado 162853" d="M-2100.876,1472.881l-137.42,1v-41.3l137.42,1.886Z" transform="translate(2248.249 -1391.384)" fill="url(#linear-gradient-8)"/>
        <path id="Trazado_162854" data-name="Trazado 162854" d="M-2100.876,1472.537l-137.42,1.729v-4.435l137.42-1.419Z" transform="translate(2248.249 -1381.339)" fill="#fff"/>
        <path id="Trazado_162855" data-name="Trazado 162855" d="M-2100.876,1480.442l-137.42,2.489V1478.5l137.42-2.179Z" transform="translate(2248.249 -1379.124)" fill="#fff"/>
        <g id="Grupo_101527" data-name="Grupo 101527" transform="translate(9.953 30.764)">
          <path id="Trazado_162856" data-name="Trazado 162856" d="M-2164.248,1425.84l-74.048-1.409v4.435l74.048,1.242Z" transform="translate(2238.296 -1424.431)" fill="#fff"/>
          <path id="Trazado_162857" data-name="Trazado 162857" d="M-2137.062,1426.357v4.143l7.812.131v-4.125Z" transform="translate(2266.671 -1423.891)" fill="#fff"/>
        </g>
        <g id="Grupo_101528" data-name="Grupo 101528" opacity="0.5" style="mix-blend-mode: soft-light;isolation: isolate">
          <path id="Trazado_162858" data-name="Trazado 162858" d="M-2151.844,1458.639c-16.356-24.251-44.682-16.553-62.615-43.373a59.188,59.188,0,0,1-6.936-14.3l-16.137-.559a8.289,8.289,0,0,0-8.538,8.429v104.489a8.362,8.362,0,0,0,8.538,8.494l106.628-2.883a91.421,91.421,0,0,1-8.6-15.685C-2149.044,1480.922-2141.981,1473.265-2151.844,1458.639Z" transform="translate(2246.07 -1400.402)" fill="#fff"/>
        </g>
        <g id="Grupo_101529" data-name="Grupo 101529" transform="translate(12.409 46.467)" style="mix-blend-mode: soft-light;isolation: isolate">
          <path id="Trazado_162859" data-name="Trazado 162859" d="M-2219.58,1441.758l-16.8-.156V1436.7l16.8.2Z" transform="translate(2236.377 -1436.696)" fill="#fff"/>
          <path id="Trazado_162860" data-name="Trazado 162860" d="M-2136.153,1442.519l-78.736-.732v-4.839l78.736.921Z" transform="translate(2242.401 -1436.626)" fill="#fff"/>
          <path id="Trazado_162861" data-name="Trazado 162861" d="M-2198.539,1448.328l-16.349-.085V1443.4l16.349.124Z" transform="translate(2242.401 -1434.816)" fill="#fff"/>
          <path id="Trazado_162862" data-name="Trazado 162862" d="M-2117.277,1448.736l-76.695-.4v-4.775l76.695.583Z" transform="translate(2248.264 -1434.771)" fill="#fff"/>
          <path id="Trazado_162863" data-name="Trazado 162863" d="M-2198.539,1454.718l-16.349-.018v-4.839l16.349.057Z" transform="translate(2242.401 -1433.006)" fill="#fff"/>
          <path id="Trazado_162864" data-name="Trazado 162864" d="M-2117.277,1454.792l-76.695-.083v-4.775l76.695.267Z" transform="translate(2248.264 -1432.986)" fill="#fff"/>
          <path id="Trazado_162865" data-name="Trazado 162865" d="M-2219.58,1461.188l-16.8.051v-4.906l16.8-.01Z" transform="translate(2236.377 -1431.195)" fill="#fff"/>
          <path id="Trazado_162866" data-name="Trazado 162866" d="M-2136.153,1460.93l-78.736.238v-4.839l78.736-.049Z" transform="translate(2242.401 -1431.207)" fill="#fff"/>
        </g>
      </g>
    </g>
    <g id="Grupo_101534" data-name="Grupo 101534" transform="translate(-2195.187 1377.053)">
      <g id="Grupo_101532" data-name="Grupo 101532">
        <path id="Trazado_162867" data-name="Trazado 162867" d="M-2129.281,1380.693l-.035,29.814-.006,4.788c0,2.806-1.912,2.123-4.507,2.073l-9.551.114-1.245.016-8.614.1-1.417.018-53.882.645-.353.005a5.43,5.43,0,0,1-5.169-5.474l-.006-36.328a5,5,0,0,1,5.009-5.139l.163,0,2.053.114,72.854,3.925A5.207,5.207,0,0,1-2129.281,1380.693Z" transform="translate(2214.067 -1371.201)" fill="url(#linear-gradient-9)"/>
        <path id="Trazado_162868" data-name="Trazado 162868" d="M-2156.331,1406.118l-1.3,1.838-1.781,2.514-6.842,9.664-1.379-.656-.022-9.23-.006-2.17-.007-2.711,1.427.093Z" transform="translate(2227.072 -1361.66)" fill="url(#linear-gradient-9)"/>
        <path id="Trazado_162869" data-name="Trazado 162869" d="M-2128.011,1380.618l-.039,29.882-.007,4.9a4.824,4.824,0,0,1-4.737,5.019l-12.912-.349-.959-.026-6.833-.183-1.411-.04-53.051-1.431a4.672,4.672,0,0,1-.838-.094,5.494,5.494,0,0,1-4.345-5.4l-.006-36.5a5.09,5.09,0,0,1,3.833-5.028,4.842,4.842,0,0,1,1.355-.129l.864.047,74.358,3.992A5.229,5.229,0,0,1-2128.011,1380.618Z" transform="translate(2214.324 -1371.228)" fill="url(#linear-gradient-11)"/>
        <path id="Trazado_162870" data-name="Trazado 162870" d="M-2155.171,1406.07l-1.524,1.883-2.067,2.555-7.8,9.639.008-9.846v-4.979Z" transform="translate(2227.381 -1361.672)" fill="url(#linear-gradient-12)"/>
      </g>
      <g id="Grupo_101533" data-name="Grupo 101533" transform="translate(23.68 13.261)">
        <path id="Trazado_162871" data-name="Trazado 162871" d="M-2182.015,1400.211l-13.556-7.6V1390.3l13.556-7.053v3.779l-9.267,4.49,9.267,4.929Z" transform="translate(2195.571 -1381.12)" fill="#fff"/>
        <path id="Trazado_162872" data-name="Trazado 162872" d="M-2172.231,1381.852l-7.006,22.234-3.631-.122,7.1-22.378Z" transform="translate(2199.132 -1381.586)" fill="#fff"/>
        <path id="Trazado_162873" data-name="Trazado 162873" d="M-2172.583,1396.937l8.463-3.84-8.463-5.308v-3.672l12.2,8.271v2.138l-12.2,6.067Z" transform="translate(2202.014 -1380.877)" fill="#fff"/>
      </g>
      <path id="Trazado_162874" data-name="Trazado 162874" d="M-2127.792,1410.5l-.007,4.9a4.824,4.824,0,0,1-4.737,5.019l-12.912-.349-7.8,9.638-1.379-.656-.021-9.231-53.05-1.431a4.669,4.669,0,0,1-.839-.094l-.353.005a5.43,5.43,0,0,1-5.169-5.475l-.006-36.324a5.016,5.016,0,0,1,5.009-5.135,4.841,4.841,0,0,1,1.355-.129l.865.047c0,.064,0,.128,0,.195-.021,7.122,2.646,17.249,17.671,18.441,23.475,1.859,29.526,7.083,38.349,17.44,5.763,6.762,14.612,3.564,21.506,3.177C-2128.8,1410.5-2128.286,1410.492-2127.792,1410.5Z" transform="translate(2214.067 -1371.228)" opacity="0.2" fill="url(#linear-gradient-13)" style="mix-blend-mode: multiply;isolation: isolate"/>
    </g>
    <g id="Grupo_101537" data-name="Grupo 101537" transform="translate(-2085.17 1502.19)">
      <path id="Trazado_162875" data-name="Trazado 162875" d="M-2106.569,1468.981c10.055.31,18.5,6.448,20.146,14.219l.006.031q.134.638.2,1.291l.01.086c.021.2.037.407.049.612,0,.037,0,.074,0,.112.01.208.017.419.017.63,0,9.03-9.217,15.874-20.437,15.293-.3-.016-.594-.037-.89-.063l-.087-.006c-.279-.026-.557-.056-.832-.089l-.129-.017c-.268-.033-.532-.073-.8-.115l-.148-.024q-.39-.063-.772-.141l-.155-.032q-.382-.077-.758-.166l-.145-.036c-.25-.061-.5-.124-.741-.192l-.132-.038q-.33-.094-.656-.2l-.165-.051q-.331-.107-.656-.223l-.142-.049h0c-7.459-2.69-12.7-8.746-12.7-15.516C-2126.473,1475.5-2117.626,1468.641-2106.569,1468.981Z" transform="translate(2128.602 -1468.969)" fill="url(#linear-gradient-14)"/>
      <path id="Trazado_162876" data-name="Trazado 162876" d="M-2128.136,1484.3c0,8.8,8.848,16.384,19.906,16.956,11.219.581,20.436-6.264,20.436-15.293s-9.217-16.635-20.436-16.979C-2119.288,1468.641-2128.136,1475.5-2128.136,1484.3Z" transform="translate(2128.136 -1468.969)" fill="url(#linear-gradient-15)"/>
      <g id="Grupo_101535" data-name="Grupo 101535" transform="translate(8.739 5.095)">
        <path id="Trazado_162877" data-name="Trazado 162877" d="M-2101.2,1478.361v12.886l-11.049,5-.057-.089-9-6.483.078-10.624,9.085-6.02-.015-.082Z" transform="translate(2121.311 -1472.948)" fill="#fff"/>
        <path id="Trazado_162878" data-name="Trazado 162878" d="M-2112.144,1473.008l-.088,23.141-9.072-6.493.074-10.624Z" transform="translate(2121.312 -1472.932)" fill="#f4f7fa"/>
      </g>
      <g id="Grupo_101536" data-name="Grupo 101536" transform="translate(12.7 6.924)" opacity="0.3" style="mix-blend-mode: multiply;isolation: isolate">
        <path id="Trazado_162879" data-name="Trazado 162879" d="M-2115.892,1495.388c2.421-4.638-.026-9.191,3.249-12.127,3.342-2.995,7.706.095,12.432-2.276,1.835-.922,3.879-2.745,5.4-6.608a14.763,14.763,0,0,1,4.234,10.067c0,9.03-9.217,15.874-20.436,15.293a25.072,25.072,0,0,1-7.206-1.439A9.891,9.891,0,0,0-2115.892,1495.388Z" transform="translate(2118.216 -1474.377)" fill="url(#linear-gradient-16)"/>
      </g>
    </g>
    <g id="Grupo_101543" data-name="Grupo 101543" transform="translate(-2084.444 1411.985)">
      <path id="Trazado_162880" data-name="Trazado 162880" d="M-2106,1398.525c10.055.309,18.5,6.448,20.145,14.219l.007.031q.133.637.205,1.289l.009.086c.021.2.037.407.048.612,0,.037,0,.074.006.112.01.21.016.42.016.63,0,9.031-9.217,15.874-20.436,15.294-.3-.015-.6-.037-.89-.063l-.087-.008c-.279-.024-.557-.055-.833-.09l-.128-.015q-.4-.052-.8-.115l-.15-.024c-.258-.044-.516-.091-.771-.141l-.156-.032c-.253-.052-.506-.108-.757-.168l-.145-.036c-.25-.06-.5-.124-.743-.192l-.131-.037q-.332-.094-.657-.2l-.166-.051c-.22-.07-.438-.146-.654-.223l-.143-.047v0c-7.458-2.69-12.7-8.745-12.7-15.516C-2125.907,1405.044-2117.059,1398.185-2106,1398.525Z" transform="translate(2128.035 -1398.512)" fill="url(#linear-gradient-17)"/>
      <path id="Trazado_162881" data-name="Trazado 162881" d="M-2127.569,1413.84c0,8.8,8.847,16.385,19.905,16.957,11.22.58,20.437-6.263,20.437-15.294s-9.217-16.634-20.437-16.978C-2118.722,1398.185-2127.569,1405.044-2127.569,1413.84Z" transform="translate(2127.569 -1398.512)" fill="url(#linear-gradient-18)"/>
      <g id="Grupo_101538" data-name="Grupo 101538" transform="translate(12.699 6.923)" opacity="0.3" style="mix-blend-mode: multiply;isolation: isolate">
        <path id="Trazado_162882" data-name="Trazado 162882" d="M-2115.325,1424.931c2.421-4.639-.027-9.191,3.25-12.127,3.342-2.995,7.706.1,12.432-2.276,1.834-.921,3.879-2.744,5.4-6.608a14.771,14.771,0,0,1,4.234,10.067c0,9.031-9.217,15.875-20.437,15.295a25.125,25.125,0,0,1-7.205-1.439A9.9,9.9,0,0,0-2115.325,1424.931Z" transform="translate(2117.65 -1403.92)" fill="url(#linear-gradient-19)"/>
      </g>
      <g id="Grupo_101542" data-name="Grupo 101542" transform="translate(8.403 5.515)">
        <g id="Grupo_101541" data-name="Grupo 101541" transform="translate(0 0.642)">
          <g id="Grupo_101539" data-name="Grupo 101539">
            <path id="Trazado_162883" data-name="Trazado 162883" d="M-2110.956,1424.217a10.646,10.646,0,0,1-10.051-10.658,10.118,10.118,0,0,1,10.051-10.237,10.612,10.612,0,0,1,10.447,10.667A10.091,10.091,0,0,1-2110.956,1424.217Zm0-19.99a9.239,9.239,0,0,0-9.195,9.35,9.723,9.723,0,0,0,9.195,9.735,9.218,9.218,0,0,0,9.527-9.342A9.7,9.7,0,0,0-2110.956,1404.226Z" transform="translate(2121.006 -1403.321)" fill="#f4f7fa"/>
          </g>
          <g id="Grupo_101540" data-name="Grupo 101540" transform="translate(4.959 5.205)">
            <path id="Trazado_162884" data-name="Trazado 162884" d="M-2106.85,1412.739a5.06,5.06,0,0,1-5.192,5.134,5.332,5.332,0,0,1-5.092-5.35,5.066,5.066,0,0,1,5.092-5.135A5.322,5.322,0,0,1-2106.85,1412.739Z" transform="translate(2117.133 -1407.387)" fill="#f4f7fa"/>
          </g>
        </g>
        <path id="Trazado_162885" data-name="Trazado 162885" d="M-2106.62,1405.076a2.223,2.223,0,0,1-2.233,2.237,2.247,2.247,0,0,1-2.213-2.256,2.224,2.224,0,0,1,2.213-2.237A2.246,2.246,0,0,1-2106.62,1405.076Z" transform="translate(2123.792 -1402.82)" fill="#f4f7fa"/>
      </g>
    </g>
    <g id="Grupo_101549" data-name="Grupo 101549" transform="translate(-2072.43 1454.239)">
      <path id="Trazado_162886" data-name="Trazado 162886" d="M-2094.145,1431.529c11.206.343,20.619,7.186,22.454,15.848l.006.035c.1.474.177.954.229,1.438l.01.1c.023.227.041.453.054.681,0,.042.005.083.006.125.011.233.019.466.019.7,0,10.066-10.273,17.693-22.779,17.046-.333-.016-.663-.041-.993-.069l-.1-.008c-.311-.028-.619-.063-.928-.1l-.144-.018c-.3-.038-.594-.081-.887-.128l-.166-.028q-.434-.071-.861-.156l-.173-.036q-.424-.086-.844-.186l-.163-.041c-.277-.068-.553-.138-.826-.214l-.147-.042q-.369-.1-.731-.219c-.062-.019-.124-.037-.186-.058q-.367-.119-.73-.248c-.052-.018-.106-.034-.157-.052v0c-8.313-3-14.157-9.747-14.157-17.294C-2116.332,1438.8-2106.47,1431.15-2094.145,1431.529Z" transform="translate(2118.704 -1431.516)" fill="url(#linear-gradient-14)"/>
      <path id="Trazado_162887" data-name="Trazado 162887" d="M-2118.185,1448.6c0,9.8,9.862,18.262,22.186,18.9,12.506.648,22.779-6.98,22.779-17.046s-10.273-18.54-22.779-18.924C-2108.323,1431.15-2118.185,1438.8-2118.185,1448.6Z" transform="translate(2118.185 -1431.516)" fill="url(#linear-gradient-21)"/>
      <g id="Grupo_101544" data-name="Grupo 101544" transform="translate(14.155 7.717)" opacity="0.3" style="mix-blend-mode: multiply;isolation: isolate">
        <path id="Trazado_162888" data-name="Trazado 162888" d="M-2104.538,1460.962c2.7-5.171-.029-10.245,3.622-13.517,3.724-3.338,8.589.106,13.857-2.537,2.045-1.027,4.323-3.059,6.022-7.365a16.464,16.464,0,0,1,4.718,11.221c0,10.066-10.273,17.694-22.779,17.046a27.96,27.96,0,0,1-8.031-1.6A11.023,11.023,0,0,0-2104.538,1460.962Z" transform="translate(2107.129 -1437.543)" fill="url(#linear-gradient-22)"/>
      </g>
      <g id="Grupo_101548" data-name="Grupo 101548" transform="translate(9.221 6.905)">
        <path id="Trazado_162889" data-name="Trazado 162889" d="M-2099.178,1446.1a1.778,1.778,0,0,1-1.8,1.8,1.862,1.862,0,0,1-1.8-1.867,1.778,1.778,0,0,1,1.793-1.8A1.863,1.863,0,0,1-2099.178,1446.1Z" transform="translate(2113.282 -1434.856)" fill="#fff"/>
        <g id="Grupo_101545" data-name="Grupo 101545" transform="translate(3.159)">
          <path id="Trazado_162890" data-name="Trazado 162890" d="M-2103.908,1459.217a4.487,4.487,0,0,1-2.616-.894c-3.138-2.392-2.5-8.678,1.451-14.391,2.947-4.256,6.976-7.023,10.274-7.023a4.581,4.581,0,0,1,2.707.814c3.312,2.352,2.657,8.833-1.481,14.672C-2096.6,1456.664-2100.66,1459.331-2103.908,1459.217Zm9.112-21.152c-2.9-.005-6.659,2.631-9.368,6.537-3.49,5.03-4.274,10.87-1.721,12.809a3.382,3.382,0,0,0,1.975.658c2.849.095,6.626-2.454,9.394-6.367,3.628-5.127,4.44-11.124,1.76-13.033A3.456,3.456,0,0,0-2094.8,1438.065Z" transform="translate(2108.516 -1436.909)" fill="#fff"/>
        </g>
        <g id="Grupo_101546" data-name="Grupo 101546" transform="translate(3.154)">
          <path id="Trazado_162891" data-name="Trazado 162891" d="M-2094.74,1459.538h0c-3.31-.116-7.36-3.043-10.323-7.419-3.965-5.854-4.6-12.145-1.476-14.413a4.332,4.332,0,0,1,2.606-.8c3.237,0,7.3,2.792,10.337,7.151,4.174,5.98,4.874,12.5,1.567,14.753A4.436,4.436,0,0,1-2094.74,1459.538Zm-9.191-21.49a3.278,3.278,0,0,0-1.969.585c-2.544,1.841-1.755,7.691,1.745,12.848,2.725,4.014,6.507,6.8,9.412,6.893a3.349,3.349,0,0,0,2.044-.536c2.675-1.824,1.825-7.868-1.833-13.119C-2097.315,1440.721-2101.092,1438.054-2103.932,1438.049Z" transform="translate(2108.52 -1436.909)" fill="#fff"/>
        </g>
        <g id="Grupo_101547" data-name="Grupo 101547" transform="translate(0 4.255)">
          <path id="Trazado_162892" data-name="Trazado 162892" d="M-2098.439,1453.8h0l-.336.16a18.969,18.969,0,0,1-8.588-2.187c-2.366-1.379-3.645-3.132-3.618-5.02.055-3.715,5.291-6.569,12.049-6.524l.336.015c4.65.1,8.943,1.588,11.16,3.89a4.57,4.57,0,0,1,1.537,3.285C-2085.944,1451.291-2091.511,1454.416-2098.439,1453.8Zm-.494-12.4c-6.045-.051-10.916,2.385-10.959,5.432-.022,1.449,1.059,2.881,3.051,4.038a17.848,17.848,0,0,0,8.079,2.11l.321.012c6.183.164,11.331-2.273,11.366-5.434a3.724,3.724,0,0,0-1.2-2.613c-2-2.088-5.98-3.44-10.338-3.54Z" transform="translate(2110.983 -1440.233)" fill="#fff"/>
        </g>
      </g>
    </g>
    <g id="Grupo_101551" data-name="Grupo 101551" transform="translate(-2254.872 1459.488)">
      <path id="Trazado_162893" data-name="Trazado 162893" d="M-2220.923,1546.563a10.942,10.942,0,0,0-.074,2.387c.151.6,5.349,1.032,7.115.824s-1.051-2.011-2.175-2.349S-2220.923,1546.563-2220.923,1546.563Z" transform="translate(2271.796 -1404.518)" fill="url(#linear-gradient-23)"/>
      <path id="Trazado_162894" data-name="Trazado 162894" d="M-2218.317,1544.268l-.548,3.587s-1.4.628-2.069.008l-.074-3.755Z" transform="translate(2271.807 -1405.206)" fill="url(#linear-gradient-24)"/>
      <path id="Trazado_162895" data-name="Trazado 162895" d="M-2240.669,1544.16s1.1.82.809,1.8-2.868,4.909-4.7,6.022-1.259-1.207-.725-2.654a27.827,27.827,0,0,1,2.43-5.167C-2242.324,1543.626-2240.669,1544.16-2240.669,1544.16Z" transform="translate(2264.854 -1405.258)" fill="url(#linear-gradient-25)"/>
      <path id="Trazado_162896" data-name="Trazado 162896" d="M-2239.073,1541.03c-.534,1.487-1.046,2.708-1.447,3.609a12.878,12.878,0,0,1-1.923,3.391c-.479.565-1.613,1.771-1.918,1.57s.521-1.67,2.12-5.962c.232-.622.965-2.608.965-2.608h2.2Z" transform="translate(2265.244 -1406.069)" fill="url(#linear-gradient-26)"/>
      <path id="Trazado_162897" data-name="Trazado 162897" d="M-2206.556,1492.548a92.9,92.9,0,0,1,.2,16.571c-.712,9.168-2.545,14.969-4.843,24.744-1.406,5.974-3.3,14.767-5.012,25.763a4.827,4.827,0,0,1-3.073.6,4.641,4.641,0,0,1-1.845-.7c-4.5-13.736-3.167-22.248-1-27.551.924-2.261,2.046-4.044,2.645-7.519.792-4.6-.188-7.167-1.586-17.817-1-7.589-.823-8.762-.16-9.9C-2218.579,1492.19-2210.472,1492.278-2206.556,1492.548Z" transform="translate(2270.933 -1419.688)" fill="url(#linear-gradient-27)"/>
      <path id="Trazado_162898" data-name="Trazado 162898" d="M-2216.741,1493.773c-2.754,14.22-5.456,21.689-7.5,25.915a70.837,70.837,0,0,0-3.778,9.222,75.289,75.289,0,0,0-2.3,8.784c-.949,4.359-3.3,10.724-9.609,19.073a2.4,2.4,0,0,1-2.184.111,2.111,2.111,0,0,1-.884-.917c.825-7.981,1.773-14.689,2.6-19.865.172-1.086.932-5.836,2.125-12.11.466-2.455,1.149-6.054,1.968-9.749,1.019-4.6,2.582-10.865,4.992-18.367Q-2224.028,1494.82-2216.741,1493.773Z" transform="translate(2265.645 -1419.315)" fill="url(#linear-gradient-28)"/>
      <path id="Trazado_162899" data-name="Trazado 162899" d="M-2209.436,1453.825c1.562-1.444,4.549-3.107,6.048-6.976.45-1.165,2.048-5.29-.309-8.446a6.74,6.74,0,0,0-6.289-2.695c-1.958.384-2.264,1.748-5.59,4.491a23.532,23.532,0,0,1-5.692,3.74c-3.968,1.635-6.352.1-10.336.271-4.895.216-10.58,2.947-13.319,6.92-4.862,7.049,2.181,14.2-3.145,22.459-1.745,2.706-2.605,2.1-6.738,7.337s-6.208,7.866-5.839,11.08c.511,4.46,5.315,8.72,9.838,9.009,4.42.284,7.229-3.193,9.478-1.672,1.6,1.082.685,3.187,2.385,5.716,2.193,3.261,6.5,3.911,7.2,4.016,6.459.974,15.167-6.6,18.866-15.572C-2206.21,1477.323-2217.926,1461.673-2209.436,1453.825Z" transform="translate(2260.686 -1435.616)" fill="url(#linear-gradient-29)"/>
      <path id="Trazado_162900" data-name="Trazado 162900" d="M-2183.564,1455.6c.045-4.516-10.215-8.126-14.909-9.289a33.226,33.226,0,0,0-14.571-.372,32.539,32.539,0,0,0-16.913,9.692,22.823,22.823,0,0,1,8.96,11.2c.743,2.05,2.938,9.058-.2,15.622-1.81,3.782-5.011,6.622-7.442,8.779-3.646,3.235-5.535,3.732-6.757,6.631-1.332,3.156.01,4.695-1.643,6.854-1.775,2.321-3.856,1.242-6.866,3.589-3.083,2.4-1.986,4.381-4.791,7.038-4.076,3.859-9.48,2.605-9.732,4.342-.217,1.494,3.624,3.521,6.888,4.343,6.462,1.627,12.1-1.1,13.775-1.946,4.641-2.331,3.84-3.841,7.377-5.618,5.925-2.977,9.973.335,23.468.676,7.308.186,11,.227,13.027-2.245,1.849-2.259.877-4.736-.233-15.411-.527-5.081-.719-10.191-1.108-15.285-1.1-14.407-1.134-15.675-.157-17.667C-2191.891,1459.394-2183.6,1459.652-2183.564,1455.6Z" transform="translate(2261.316 -1432.899)" fill="url(#linear-gradient-30)"/>
      <g id="Grupo_101550" data-name="Grupo 101550" transform="translate(2.878 22.125)" opacity="0.3" style="mix-blend-mode: multiply;isolation: isolate">
        <path id="Trazado_162901" data-name="Trazado 162901" d="M-2248.7,1513.216c2.805-2.657,1.708-4.635,4.791-7.038,3.01-2.347,5.091-1.267,6.866-3.589,1.653-2.16.312-3.7,1.643-6.855,1.222-2.9,3.111-3.4,6.757-6.631,2.431-2.157,5.632-5,7.442-8.779,3.139-6.564.944-13.572.2-15.622a22.82,22.82,0,0,0-8.96-11.2c.167-.182.366-.388.578-.605,11.518,1.583,18.231,8.237,19.062,10.208,1.921,4.555-1.119,6.229-1.2,19.365-.039,6.28.639,8.759-1.4,11.38-2.33,3-5.015,2.07-8.385,5.989-2.589,3.011-2.175,4.92-4.593,6.189-2.6,1.364-4.254-.225-7.186.4-4.9,1.045-5.946,6.692-9.184,9.783-2.449,2.337-6.976,3.97-15.905,2.216a1.245,1.245,0,0,1-.266-.869C-2258.177,1515.821-2252.773,1517.074-2248.7,1513.216Z" transform="translate(2258.438 -1452.897)" fill="url(#linear-gradient-31)"/>
      </g>
      <path id="Trazado_162902" data-name="Trazado 162902" d="M-2217.673,1468.224c1.225,2.6-4.4,8.655-10.655,11.531-1.274.586-10.423,4.792-14.5.748-3.37-3.343-1.2-10.254-.419-12.722,3.812-12.117,15.518-18.28,20.424-20.5,3.662,9.155,1.506,13.234.657,14.508a48.8,48.8,0,0,1-5.989,6.588c-1.849,1.732-3,2.574-2.845,2.845.192.337,2.36-.3,10.776-4.4A3.272,3.272,0,0,1-2217.673,1468.224Z" transform="translate(2265.179 -1432.347)" fill="url(#linear-gradient-32)"/>
      <path id="Trazado_162903" data-name="Trazado 162903" d="M-2187.7,1452.413l-4.13,20.567a1.685,1.685,0,0,1-1.3,1.317l-30.792,6.609a1.688,1.688,0,0,1-2.037-1.781l1.625-20.916a1.69,1.69,0,0,1,1.278-1.508c4.884-1.2,23.685-5.72,33.6-6.307A1.688,1.688,0,0,1-2187.7,1452.413Z" transform="translate(2270.419 -1431.474)" fill="url(#linear-gradient-33)"/>
      <path id="Trazado_162904" data-name="Trazado 162904" d="M-2218.51,1440.24s-.581,4.642-2.294,5.706-4.485,2.453-4.79,2.831,10.616,1.552,16.029-1.181h0c-1.784-.371-2.269-.508-2.269-.508a10.054,10.054,0,0,1-2.293-.908,7.785,7.785,0,0,1-2.52-2.33l.019-2.572Z" transform="translate(2270.52 -1434.32)" fill="url(#linear-gradient-34)"/>
      <path id="Trazado_162905" data-name="Trazado 162905" d="M-2220.036,1442.459a2.571,2.571,0,0,0,2.871.895c1.568-.572.632-4.626-.612-5.088a2.2,2.2,0,0,0-1.687.233,2.441,2.441,0,0,0-.767,2.745c-.4-.115-.745-.011-.832.186-.111.248.224.588.3.665A1.331,1.331,0,0,0-2220.036,1442.459Z" transform="translate(2271.785 -1434.895)" fill="url(#linear-gradient-35)"/>
      <path id="Trazado_162906" data-name="Trazado 162906" d="M-2216.135,1470.2c3.307-.932,6.049,1.383,8.684-.449,2.7-1.877.937-5.083,3.743-8.235,3-3.371,6.806-1.719,9.583-4.791,1.031-1.141,1.958-3,1.972-6.167.7-.068,1.362-.121,1.992-.159a1.688,1.688,0,0,1,1.755,2.019l-4.13,20.567a1.687,1.687,0,0,1-1.3,1.317l-29.593,6.35C-2221.339,1473.318-2218.55,1470.877-2216.135,1470.2Z" transform="translate(2271.129 -1431.474)" opacity="0.3" fill="url(#linear-gradient-36)" style="mix-blend-mode: multiply;isolation: isolate"/>
      <path id="Trazado_162907" data-name="Trazado 162907" d="M-2197.284,1462.33a7.371,7.371,0,0,0,2.178-3.924,4.071,4.071,0,0,0-2.7-4.228c-1.437-.43-2.2.2-1.239,2.281S-2196.555,1459.884-2197.284,1462.33Z" transform="translate(2277.842 -1430.449)" fill="url(#linear-gradient-37)"/>
    </g>
  </g>
</svg>
