<svg xmlns="http://www.w3.org/2000/svg" width="200" height="200" viewBox="0 0 200 200">
  <g id="Grupo_101500" data-name="Grupo 101500" transform="translate(1763.009 -2158.78)">
    <path id="Trazado_162790" data-name="Trazado 162790" d="M-1759.676,2162.113h193.334v193.334h-193.334Z" fill="#044745"/>
    <path id="Trazado_162791" data-name="Trazado 162791" d="M-1759.676,2162.113h193.334v26.667h-193.334Z" fill="#036666"/>
    <path id="Trazado_162792" data-name="Trazado 162792" d="M-1579.676,2188.78h13.334v166.667h-13.334Z" fill="#ddffa7"/>
    <path id="Trazado_162793" data-name="Trazado 162793" d="M-1579.676,2215.447h13.334v20h-13.334Z" fill="#6bc13b"/>
    <path id="Trazado_162794" data-name="Trazado 162794" d="M-1759.676,2188.78h63.334v26.667h116.666v140h-180Z" fill="#ddffa7"/>
    <path id="Trazado_162795" data-name="Trazado 162795" d="M-1696.342,2188.78h63.333v26.667h-63.333Z" fill="#036666"/>
    <path id="Trazado_162796" data-name="Trazado 162796" d="M-1759.676,2358.78h193.334a3.333,3.333,0,0,0,3.333-3.333h0V2162.113a3.333,3.333,0,0,0-3.333-3.333h-193.334a3.333,3.333,0,0,0-3.333,3.333h0v193.334a3.333,3.333,0,0,0,3.333,3.333Zm183.334-140h6.666v13.333h-6.666Zm6.666-53.333v46.666h-6.666V2198.78h-6.667v146.667h6.667V2238.78h6.666v113.333h-186.666v-160h56.666v23.334a3.334,3.334,0,0,0,3.334,3.333h106.666v-6.667h-40V2198.78h-6.666v13.333h-56.667v-20h116.667v-6.666h-180v-20Z"/>
    <circle id="Elipse_5324" data-name="Elipse 5324" cx="3.333" cy="3.333" r="3.333" transform="translate(-1749.676 2172.113)"/>
    <circle id="Elipse_5325" data-name="Elipse 5325" cx="3.333" cy="3.333" r="3.333" transform="translate(-1736.342 2172.113)"/>
    <circle id="Elipse_5326" data-name="Elipse 5326" cx="3.333" cy="3.333" r="3.333" transform="translate(-1723.009 2172.113)"/>
    <path id="Trazado_162797" data-name="Trazado 162797" d="M-1736.342,2198.78h30v6.667h-30Z"/>
    <circle id="Elipse_5327" data-name="Elipse 5327" cx="3.333" cy="3.333" r="3.333" transform="translate(-1749.676 2198.78)"/>
    <path id="Trazado_162798" data-name="Trazado 162798" d="M-1673.009,2198.78h30v6.667h-30Z"/>
    <circle id="Elipse_5328" data-name="Elipse 5328" cx="3.333" cy="3.333" r="3.333" transform="translate(-1686.342 2198.78)"/>
    <path id="Trazado_162799" data-name="Trazado 162799" d="M-1699.676,2172.113h73.334v6.667h-73.334Z"/>
    <path id="Trazado_162800" data-name="Trazado 162800" d="M-1722.032,2243.09l-10,10a3.332,3.332,0,0,0,0,4.713h0l10,10,4.713-4.714-7.643-7.643,7.643-7.643Z"/>
    <path id="Trazado_162801" data-name="Trazado 162801" d="M-1680.652,2267.8l10-10a3.334,3.334,0,0,0,0-4.714h0l-10-10-4.714,4.714,7.643,7.643-7.643,7.643Z"/>
    <path id="Trazado_162802" data-name="Trazado 162802" d="M-1712.71,2270.622l16.659-33.317,5.96,2.98-16.659,33.317Z"/>
    <path id="Trazado_162803" data-name="Trazado 162803" d="M-1656.342,2252.113h13.333v6.667h-13.333Z"/>
    <path id="Trazado_162804" data-name="Trazado 162804" d="M-1636.342,2252.113h33.333v6.667h-33.333Z"/>
    <path id="Trazado_162805" data-name="Trazado 162805" d="M-1666.342,2268.78h13.333v6.667h-13.333Z"/>
    <path id="Trazado_162806" data-name="Trazado 162806" d="M-1646.342,2268.78h23.333v6.667h-23.333Z"/>
    <path id="Trazado_162807" data-name="Trazado 162807" d="M-1616.342,2268.78h13.333v6.667h-13.333Z"/>
    <path id="Trazado_162808" data-name="Trazado 162808" d="M-1673.009,2282.113h13.333v6.667h-13.333Z"/>
    <path id="Trazado_162809" data-name="Trazado 162809" d="M-1653.009,2282.113h13.333v6.667h-13.333Z"/>
    <path id="Trazado_162810" data-name="Trazado 162810" d="M-1633.009,2282.113h30v6.667h-30Z"/>
    <path id="Trazado_162811" data-name="Trazado 162811" d="M-1699.676,2282.113h20v6.667h-20Z"/>
    <path id="Trazado_162812" data-name="Trazado 162812" d="M-1736.342,2282.113h6.666v6.667h-6.666Z"/>
    <path id="Trazado_162813" data-name="Trazado 162813" d="M-1723.009,2282.113h16.667v6.667h-16.667Z"/>
  </g>
</svg>
