<svg xmlns="http://www.w3.org/2000/svg" xmlns:xlink="http://www.w3.org/1999/xlink" width="329.566" height="320" viewBox="0 0 329.566 320">
  <defs>
    <linearGradient id="linear-gradient" x1="-74.474" y1="-11.652" x2="-73.321" y2="-11.652" gradientUnits="objectBoundingBox">
      <stop offset="0" stop-color="#ffc444"/>
      <stop offset="0.996" stop-color="#f36f56"/>
    </linearGradient>
    <linearGradient id="linear-gradient-2" x1="-28.489" y1="-89.587" x2="-27.502" y2="-89.587" xlink:href="#linear-gradient"/>
    <linearGradient id="linear-gradient-3" y1="0.5" x2="1" y2="0.5" gradientUnits="objectBoundingBox">
      <stop offset="0" stop-color="#f99180"/>
      <stop offset="0.996" stop-color="#d76184"/>
    </linearGradient>
    <clipPath id="clip-path">
      <path id="Trazado_150077" data-name="Trazado 150077" d="M5269.53,2000.973l15.355-24.79s-9.827-12.543-22.564-12.027c-25.988,1.054-25.1-21.781-26.155-31.4-1.6-14.508-9.328-26.6-23.015-15.2s-27.012-16.828-26.211-40.629c.784-23.291-40.166-38.124-46.491,12.131-3.778,30.012,23.281,41.7,35.542,50.857s1.4,29.09,21.311,32.3c17.012,2.741,33.5-1.857,37.738,12.071S5249.176,2005.516,5269.53,2000.973Z" fill="url(#linear-gradient)"/>
    </clipPath>
    <linearGradient id="linear-gradient-5" x1="-29.695" y1="20.862" x2="-30.096" y2="21.985" xlink:href="#linear-gradient"/>
    <linearGradient id="linear-gradient-6" x1="-0.206" y1="-15.834" x2="0.218" y2="-13.07" gradientUnits="objectBoundingBox">
      <stop offset="0.004" stop-color="#6cad9e"/>
      <stop offset="1" stop-color="#6fc058"/>
    </linearGradient>
    <clipPath id="clip-path-2">
      <path id="Trazado_150087" data-name="Trazado 150087" d="M5284.207,1991.561l2.212,26.03s-14.524,12.149-21.86,4.878-22.119,1.858-30.547,5.729c-22.868,10.5-29.823-17.85-60.264-6.906-8.1,2.911-22.571,11.4-31.458,6.323-10.124-5.784-4.949-14.538-12.878-17.744-12.393-5.012-20.371-17.521-13.194-29.281,7.082-11.607,29.732-8.777,53.388,10.033,18.348,11.46,22.33,10.306,31.4,5.61,6.356-3.289,21.41-16.416,31.555-9.121s20.087,12.081,26.353,5.6C5268.453,1982.852,5284.207,1991.561,5284.207,1991.561Z" fill="none"/>
    </clipPath>
    <linearGradient id="linear-gradient-7" x1="31.822" y1="-7.326" x2="32.326" y2="-6.069" gradientUnits="objectBoundingBox">
      <stop offset="0" stop-color="#6ec364"/>
      <stop offset="0.996" stop-color="#85a149"/>
    </linearGradient>
    <clipPath id="clip-path-3">
      <path id="Trazado_150094" data-name="Trazado 150094" d="M5277.464,1984.924l6.394,40.969c-5.1,3.316-14.71,8.077-18.535-.072-5.317-11.33-25.15-8.089-31.614-3.57-8,5.593-26.884,18.211-35.365.831-7.059-14.468-8.831-25.318-27.56-23.078s-32.061-6.434-33.878-24.475c-1.913-18.985-28-30.178-22.637-46.968,9.35-29.257,54.211-12.266,71.391,18.221s25.2,9.81,40.237,6.222c20.532-4.9,20.967,25.609,30.4,32.006C5263.683,1990.025,5272.305,1987.312,5277.464,1984.924Z" fill="none"/>
    </clipPath>
    <clipPath id="clip-path-4">
      <path id="Trazado_150104" data-name="Trazado 150104" d="M5271.05,2034.692l-4.946-28.849s13.867-7.967,25.524-2.688c23.781,10.771,31.555-10.81,36.164-19.362,6.949-12.9,18.7-21.231,27.137-5.467s31.471-5.48,39.693-27.925c8.045-21.965,51.733-20.338,38.684,28.8-7.793,29.346-37.372,30.03-52.227,33.927s-12.258,26.539-32,22.021c-16.86-3.859-30.47-14.349-39.658-2.987S5288.275,2046.588,5271.05,2034.692Z" fill="url(#linear-gradient-2)"/>
    </clipPath>
    <linearGradient id="linear-gradient-9" x1="-33.399" y1="-63.641" x2="-33.742" y2="-62.07" xlink:href="#linear-gradient"/>
    <linearGradient id="linear-gradient-10" x1="-127.857" y1="6.619" x2="-126.993" y2="7.799" gradientUnits="objectBoundingBox">
      <stop offset="0.004" stop-color="#8de3c8"/>
      <stop offset="1" stop-color="#96f671"/>
    </linearGradient>
    <clipPath id="clip-path-5">
      <path id="Trazado_150114" data-name="Trazado 150114" d="M5187.1,2020.052l-25.891-4.159s-8.31-17.092.551-22.474,3.555-22,1.828-31.144c-4.685-24.821,24.619-24.718,21.341-57.023-.871-8.592-5.628-24.749,1.472-32.174,8.088-8.459,15.36-1.3,20.406-8.24,7.887-10.856,22.006-15.592,31.72-5.75,9.587,9.713,1.338,31.088-22.721,49.567-15.611,15.093-15.453,19.251-13.08,29.228,1.662,6.989,10.8,24.836,1.232,32.948s-16.639,16.634-11.847,24.31C5199.4,2006.819,5187.1,2020.052,5187.1,2020.052Z" fill="none"/>
    </clipPath>
    <linearGradient id="linear-gradient-11" x1="-37.37" y1="0.525" x2="-36.759" y2="1.461" gradientUnits="objectBoundingBox">
      <stop offset="0" stop-color="#94f980"/>
      <stop offset="0.996" stop-color="#b8d761"/>
    </linearGradient>
    <clipPath id="clip-path-6">
      <path id="Trazado_150121" data-name="Trazado 150121" d="M5338.025,2028.824l-41.456-3.709c-1.993-5.768-4.3-16.286,4.566-18.035,12.325-2.432,13.978-22.535,11.144-29.928-3.508-9.149-11.218-30.6,7.767-34.647,15.8-3.367,26.8-2.462,29.162-21.247s14.043-29.668,32.056-27.063c18.955,2.742,36.185-19.956,51.238-10.658,26.229,16.2-1.2,55.778-35.062,65.118s-15.666,22.163-15.819,37.682c-.207,21.187-30.029,14.212-38.546,21.844C5336.4,2014.164,5336.95,2023.22,5338.025,2028.824Z" fill="none"/>
    </clipPath>
    <linearGradient id="linear-gradient-12" y1="0.5" x2="1" y2="0.5" gradientUnits="objectBoundingBox">
      <stop offset="0" stop-color="#fff"/>
      <stop offset="0.996" stop-color="#ebeff2"/>
    </linearGradient>
    <linearGradient id="linear-gradient-13" x1="0.507" y1="-1.064" x2="0.495" y2="1.512" gradientUnits="objectBoundingBox">
      <stop offset="0" stop-color="#97f980"/>
      <stop offset="0.996" stop-color="#bbd761"/>
    </linearGradient>
    <linearGradient id="linear-gradient-14" x1="-19.46" y1="6.929" x2="-20.158" y2="8.506" gradientUnits="objectBoundingBox">
      <stop offset="0.004" stop-color="#6fb37c"/>
      <stop offset="1" stop-color="#a8c65b"/>
    </linearGradient>
    <linearGradient id="linear-gradient-15" x1="-25.186" y1="16.707" x2="-25.017" y2="18.164" xlink:href="#linear-gradient-14"/>
    <linearGradient id="linear-gradient-16" x1="-58.474" y1="28.228" x2="-58.401" y2="29.843" xlink:href="#linear-gradient-14"/>
    <linearGradient id="linear-gradient-17" x1="-46.596" y1="14.777" x2="-46.451" y2="16.901" xlink:href="#linear-gradient-14"/>
    <linearGradient id="linear-gradient-18" x1="-209.696" y1="-0.598" x2="-210.776" y2="4.867" xlink:href="#linear-gradient-3"/>
    <linearGradient id="linear-gradient-19" x1="-306.95" y1="-10.344" x2="-305.954" y2="-10.344" gradientUnits="objectBoundingBox">
      <stop offset="0" stop-color="#444b8c"/>
      <stop offset="0.996" stop-color="#26264f"/>
    </linearGradient>
    <linearGradient id="linear-gradient-20" x1="469.429" y1="0.5" x2="470.429" y2="0.5" xlink:href="#linear-gradient"/>
    <linearGradient id="linear-gradient-21" x1="-229.583" y1="-128.64" x2="-228.62" y2="-128.64" xlink:href="#linear-gradient-19"/>
    <linearGradient id="linear-gradient-22" x1="380.169" y1="0.5" x2="381.17" y2="0.5" xlink:href="#linear-gradient"/>
    <linearGradient id="linear-gradient-23" x1="-124.285" y1="-0.249" x2="-124.923" y2="1.807" xlink:href="#linear-gradient-3"/>
    <linearGradient id="linear-gradient-24" x1="-130.333" y1="1.627" x2="-130.08" y2="0.675" xlink:href="#linear-gradient-3"/>
    <linearGradient id="linear-gradient-25" x1="-161.966" y1="-0.53" x2="-162.792" y2="2.631" xlink:href="#linear-gradient-3"/>
    <linearGradient id="linear-gradient-26" x1="150.31" y1="0.5" x2="151.31" y2="0.5" xlink:href="#linear-gradient"/>
    <linearGradient id="linear-gradient-27" x1="222.817" y1="0.5" x2="223.817" y2="0.5" xlink:href="#linear-gradient"/>
    <linearGradient id="linear-gradient-28" x1="84.519" y1="0.448" x2="84.499" y2="2.095" xlink:href="#linear-gradient"/>
    <linearGradient id="linear-gradient-29" x1="396.805" y1="-184.54" x2="397.823" y2="-184.54" xlink:href="#linear-gradient"/>
    <linearGradient id="linear-gradient-30" x1="1961.64" y1="-1426.849" x2="1962.746" y2="-1426.849" xlink:href="#linear-gradient"/>
    <linearGradient id="linear-gradient-31" x1="-153.168" y1="-24.404" x2="-152.426" y2="-22.762" xlink:href="#linear-gradient"/>
    <linearGradient id="linear-gradient-32" x1="30.046" y1="-23.441" x2="30.77" y2="-21.961" xlink:href="#linear-gradient"/>
    <linearGradient id="linear-gradient-33" x1="52.882" y1="-26.471" x2="54.127" y2="-24.716" xlink:href="#linear-gradient"/>
    <linearGradient id="linear-gradient-34" x1="-97.54" y1="16.973" x2="-96.799" y2="18.619" gradientUnits="objectBoundingBox">
      <stop offset="0" stop-color="#80f989"/>
      <stop offset="0.996" stop-color="#9bd761"/>
    </linearGradient>
    <linearGradient id="linear-gradient-35" x1="-36.01" y1="18.075" x2="-35.287" y2="19.554" xlink:href="#linear-gradient-34"/>
    <linearGradient id="linear-gradient-36" x1="-48.159" y1="25.865" x2="-47.224" y2="28.116" xlink:href="#linear-gradient-34"/>
    <linearGradient id="linear-gradient-37" x1="-0.6" y1="0.5" x2="0.4" y2="0.5" gradientUnits="objectBoundingBox">
      <stop offset="0.004" stop-color="#26264f"/>
      <stop offset="1" stop-color="#444b8c"/>
    </linearGradient>
    <linearGradient id="linear-gradient-38" x1="-733.214" y1="-28.475" x2="-733.01" y2="-23.701" xlink:href="#linear-gradient-37"/>
    <linearGradient id="linear-gradient-39" x1="-2621.258" y1="1.152" x2="-2621.394" y2="-5.073" gradientUnits="objectBoundingBox">
      <stop offset="0" stop-color="#893976"/>
      <stop offset="1" stop-color="#311944"/>
    </linearGradient>
    <linearGradient id="linear-gradient-40" x1="-1104.322" y1="0.389" x2="-1104.002" y2="3.363" xlink:href="#linear-gradient-37"/>
    <linearGradient id="linear-gradient-41" x1="-1844.071" y1="1.353" x2="-1844.167" y2="-3.033" xlink:href="#linear-gradient-39"/>
    <linearGradient id="linear-gradient-42" x1="-439.338" y1="0.5" x2="-438.338" y2="0.5" gradientUnits="objectBoundingBox">
      <stop offset="0" stop-color="#ab316d"/>
      <stop offset="1" stop-color="#792d3d"/>
    </linearGradient>
    <linearGradient id="linear-gradient-43" x1="-471.919" y1="0.5" x2="-470.919" y2="0.5" xlink:href="#linear-gradient-42"/>
    <linearGradient id="linear-gradient-44" x1="-217.465" y1="0.5" x2="-216.465" y2="0.5" xlink:href="#linear-gradient-42"/>
    <linearGradient id="linear-gradient-45" x1="0.577" y1="0.398" x2="1.253" y2="-0.235" xlink:href="#linear-gradient-37"/>
    <linearGradient id="linear-gradient-46" x1="-931.7" y1="-412.26" x2="-931.055" y2="-412.26" xlink:href="#linear-gradient-39"/>
    <linearGradient id="linear-gradient-47" x1="-181.89" y1="-114.813" x2="-181.324" y2="-110.628" gradientUnits="objectBoundingBox">
      <stop offset="0" stop-color="#ff9085"/>
      <stop offset="1" stop-color="#fb6fbb"/>
    </linearGradient>
    <linearGradient id="linear-gradient-48" x1="-101.695" y1="0.133" x2="-101.324" y2="1.569" xlink:href="#linear-gradient-47"/>
    <linearGradient id="linear-gradient-49" x1="-282.774" y1="0.342" x2="-283.176" y2="0.984" gradientUnits="objectBoundingBox">
      <stop offset="0.004" stop-color="#6165d7"/>
      <stop offset="1" stop-color="#aa80f9"/>
    </linearGradient>
    <linearGradient id="linear-gradient-50" x1="-284.849" y1="0.302" x2="-285.854" y2="0.823" xlink:href="#linear-gradient-37"/>
    <linearGradient id="linear-gradient-51" x1="-1015.217" y1="-2.99" x2="-1015.641" y2="0.705" gradientUnits="objectBoundingBox">
      <stop offset="0" stop-color="#aa80f9"/>
      <stop offset="0.996" stop-color="#6165d7"/>
    </linearGradient>
    <linearGradient id="linear-gradient-52" x1="-393.55" y1="0.247" x2="-394.93" y2="0.781" xlink:href="#linear-gradient-37"/>
    <linearGradient id="linear-gradient-53" x1="-778.737" y1="0.5" x2="-777.737" y2="0.5" xlink:href="#linear-gradient-39"/>
    <linearGradient id="linear-gradient-54" x1="0" y1="0.5" x2="1" y2="0.5" xlink:href="#linear-gradient-47"/>
    <linearGradient id="linear-gradient-55" x1="-239.399" y1="0.179" x2="-238.526" y2="2.375" xlink:href="#linear-gradient-47"/>
    <linearGradient id="linear-gradient-56" x1="-440.215" y1="-66.17" x2="-439.457" y2="-67.83" xlink:href="#linear-gradient-39"/>
    <linearGradient id="linear-gradient-57" x1="-1308.013" y1="-103.644" x2="-1304.039" y2="-105.534" xlink:href="#linear-gradient-39"/>
    <linearGradient id="linear-gradient-58" y1="0.5" x2="1" y2="0.5" gradientUnits="objectBoundingBox">
      <stop offset="0" stop-color="#85ffa4"/>
      <stop offset="1" stop-color="#a9fb6f"/>
    </linearGradient>
    <linearGradient id="linear-gradient-59" x1="54.983" y1="-78.022" x2="54.474" y2="-77.009" xlink:href="#linear-gradient-58"/>
    <linearGradient id="linear-gradient-61" x1="293.845" y1="-287.189" x2="293.264" y2="-285.544" xlink:href="#linear-gradient-58"/>
    <linearGradient id="linear-gradient-63" x1="442.822" y1="-470.152" x2="442.336" y2="-468.658" xlink:href="#linear-gradient-58"/>
    <linearGradient id="linear-gradient-65" x1="584.675" y1="-674.893" x2="584.277" y2="-673.563" xlink:href="#linear-gradient-58"/>
    <linearGradient id="linear-gradient-67" x1="209.911" y1="-195.928" x2="209.271" y2="-194.2" xlink:href="#linear-gradient-58"/>
    <linearGradient id="linear-gradient-69" x1="231.53" y1="-218.36" x2="230.902" y2="-216.648" xlink:href="#linear-gradient-58"/>
    <linearGradient id="linear-gradient-71" x1="198.951" y1="-184.561" x2="198.301" y2="-182.82" xlink:href="#linear-gradient-58"/>
    <linearGradient id="linear-gradient-73" x1="256.918" y1="-245.08" x2="256.302" y2="-243.386" xlink:href="#linear-gradient-58"/>
    <linearGradient id="linear-gradient-75" x1="377.568" y1="-382.563" x2="377.024" y2="-380.973" xlink:href="#linear-gradient-58"/>
    <linearGradient id="linear-gradient-76" x1="-59.071" y1="34.658" x2="-58.317" y2="36.271" gradientUnits="objectBoundingBox">
      <stop offset="0" stop-color="#498c58"/>
      <stop offset="1" stop-color="#5f883c"/>
    </linearGradient>
    <linearGradient id="linear-gradient-77" x1="-94.14" y1="36.262" x2="-93.404" y2="37.712" xlink:href="#linear-gradient-76"/>
    <linearGradient id="linear-gradient-78" x1="-111.015" y1="65.253" x2="-110.173" y2="68.022" xlink:href="#linear-gradient-76"/>
    <linearGradient id="linear-gradient-79" x1="-242.696" y1="-44.063" x2="-241.949" y2="-42.434" xlink:href="#linear-gradient-58"/>
    <linearGradient id="linear-gradient-80" x1="68.81" y1="-42.671" x2="69.538" y2="-41.201" xlink:href="#linear-gradient-58"/>
    <linearGradient id="linear-gradient-81" x1="127.489" y1="-46.226" x2="128.803" y2="-44.552" xlink:href="#linear-gradient-58"/>
  </defs>
  <g id="Grupo_94162" data-name="Grupo 94162" transform="translate(-5113.385 -1844.834)">
    <g id="Grupo_94191" data-name="Grupo 94191">
      <path id="Trazado_150067" data-name="Trazado 150067" d="M5277.062,1849.656c-34.226,13.609-37.5,48.4-68.321,51.382-26.851,2.6-37.057-22.581-55.9-18.069-28.7,6.874-46.744,75.3-35.217,131.561,11.9,58.094,61.909,135.323,144.757,140.594,93.014,5.917,163.393-82.942,167.69-160.921.465-8.433,3.209-79.092-50.811-120.832C5376.562,1871.285,5323.331,1831.259,5277.062,1849.656Z" opacity="0.1" fill="url(#linear-gradient-3)"/>
      <g id="Grupo_94173" data-name="Grupo 94173">
        <g id="Grupo_94164" data-name="Grupo 94164">
          <path id="Trazado_150068" data-name="Trazado 150068" d="M5269.53,2000.973l15.355-24.79s-9.827-12.543-22.564-12.027c-25.988,1.054-25.1-21.781-26.155-31.4-1.6-14.508-9.328-26.6-23.015-15.2s-27.012-16.828-26.211-40.629c.784-23.291-40.166-38.124-46.491,12.131-3.778,30.012,23.281,41.7,35.542,50.857s1.4,29.09,21.311,32.3c17.012,2.741,33.5-1.857,37.738,12.071S5249.176,2005.516,5269.53,2000.973Z" fill="url(#linear-gradient)"/>
          <g id="Grupo_94163" data-name="Grupo 94163" clip-path="url(#clip-path)">
            <path id="Trazado_150069" data-name="Trazado 150069" d="M5269.53,2000.973l15.355-24.79s-9.827-12.543-22.564-12.027c-25.988,1.054-25.1-21.781-26.155-31.4-1.6-14.508-8.809-24.934-22.5-17.153-15.486,8.8-27.531-14.871-26.73-38.672.784-23.291-40.166-38.124-46.491,12.131-3.778,30.012,23.281,41.7,35.542,50.857s1.4,29.09,21.311,32.3c17.012,2.741,33.5-1.857,37.738,12.071S5249.176,2005.516,5269.53,2000.973Z" fill="url(#linear-gradient-5)"/>
            <g id="Grupo_94162-2" data-name="Grupo 94162" opacity="0.5" style="mix-blend-mode: soft-light;isolation: isolate">
              <path id="Trazado_150070" data-name="Trazado 150070" d="M5278.476,1991.669l.225-.573c-.355-.139-35.85-14.188-66.839-38.724-28.548-22.6-59-59-41.961-103.995l-.576-.218c-7.586,20.031-6.554,40.05,3.067,59.5,7.686,15.538,20.84,30.746,39.1,45.2C5242.55,1977.453,5278.121,1991.529,5278.476,1991.669Z" fill="#beb8f2"/>
              <path id="Trazado_150071" data-name="Trazado 150071" d="M5176.764,1915.616l.256-.56c-18.618-8.554-39.092-30.347-39.3-30.566l-.45.42C5137.479,1885.13,5158.036,1907.011,5176.764,1915.616Z" fill="#beb8f2"/>
              <path id="Trazado_150072" data-name="Trazado 150072" d="M5170.708,1902.479c-.064-24.416,15.4-37.613,15.554-37.744l-.4-.472c-.158.132-15.839,13.5-15.774,38.218Z" fill="#beb8f2"/>
              <path id="Trazado_150073" data-name="Trazado 150073" d="M5233,1967.309c-21.049-21.134-6.315-58.441-6.141-58.793l-.532-.308c-.2.329-15,38.214,6.237,59.535Z" fill="#beb8f2"/>
              <path id="Trazado_150074" data-name="Trazado 150074" d="M5222.44,1960.995l.211-.579c-17.884-6.517-39.429,3.916-39.645,4.022l.272.552C5183.492,1964.885,5204.806,1954.568,5222.44,1960.995Z" fill="#beb8f2"/>
              <path id="Trazado_150075" data-name="Trazado 150075" d="M5273.164,1988.762c-9.136-6.7-8.248-25.124-8.238-25.31l-.615-.033c-.042.77-.917,18.939,8.489,25.839Z" fill="#beb8f2"/>
              <path id="Trazado_150076" data-name="Trazado 150076" d="M5264.714,1985.548l.231-.57c-8.3-3.369-23.695,2.8-28.754,4.827-.715.286-1.332.534-1.45.556l.1.606a14.212,14.212,0,0,0,1.574-.591C5241.421,1988.372,5256.642,1982.273,5264.714,1985.548Z" fill="#beb8f2"/>
            </g>
          </g>
        </g>
        <g id="Grupo_94168" data-name="Grupo 94168">
          <path id="Trazado_150078" data-name="Trazado 150078" d="M5258.918,1992.712c5.482-5.668,13.089-4.894,18.507-3.471a7.97,7.97,0,0,0,.966,1.738c3.636,6.032,3.9,9.38,6.547,15.891.569,1.4.989,6.024,1.039,7.923l.038,3.543s-14.12,11.4-21.456,4.132-22.119,1.859-30.547,5.73c-5.176,2.377-8.3,1.806-10.346,2.375-21.615,6.014-25.7,14.553-33.932,12.191-9.085-2.607-6.706-13.759-16.439-17.118-10.992-3.792-21.4,7.882-31,1.969a14.785,14.785,0,0,1-4.8-4.206c-3.673-5.2-1.916-11.045-8.081-13.539-12.393-5.011-20.371-17.52-13.194-29.28,7.082-11.607,29.732-8.777,53.388,10.033,18.348,11.46,22.33,10.306,31.4,5.61,6.356-3.288,21.41-16.416,31.555-9.121S5252.652,1999.193,5258.918,1992.712Z" fill="url(#linear-gradient-6)"/>
          <g id="Grupo_94167" data-name="Grupo 94167">
            <g id="Grupo_94166" data-name="Grupo 94166" clip-path="url(#clip-path-2)">
              <g id="Grupo_94165" data-name="Grupo 94165" opacity="0.5" style="mix-blend-mode: soft-light;isolation: isolate">
                <path id="Trazado_150079" data-name="Trazado 150079" d="M5284.04,2003.307l.1.507c-2.795.6-5.621,1.175-8.4,1.7a278.6,278.6,0,0,1-60.08,4.918,227.552,227.552,0,0,1-47.28-6.369,195.786,195.786,0,0,1-34.441-11.919,162.2,162.2,0,0,1-21.067-11.518c-1.117-.728-2.223-1.539-3.293-2.324-1.425-1.045-2.9-2.126-4.41-3.019l.224-.452c1.532.905,3.016,1.993,4.451,3.046,1.064.78,2.165,1.587,3.27,2.308a161.518,161.518,0,0,0,21,11.483,195.286,195.286,0,0,0,34.359,11.891,227.04,227.04,0,0,0,47.185,6.356A278.162,278.162,0,0,0,5275.65,2005C5278.426,2004.48,5281.248,2003.91,5284.04,2003.307Z" fill="#c8c8c7"/>
                <path id="Trazado_150080" data-name="Trazado 150080" d="M5186.921,2007.262l-.046.514c-20.536-2.607-50.434,16.97-50.733,17.168l-.258-.443C5136.185,2024.3,5166.22,2004.635,5186.921,2007.262Z" fill="#c8c8c7"/>
                <path id="Trazado_150081" data-name="Trazado 150081" d="M5244.849,2009.147l.01.517c-14.112-.018-32.284-22.108-32.466-22.331l.359-.336C5212.932,1987.218,5230.957,2009.129,5244.849,2009.147Z" fill="#c8c8c7"/>
                <path id="Trazado_150082" data-name="Trazado 150082" d="M5252.841,2008.412l.1.509c-9.032,1.742-20.377,9.334-31.943,21.377-.582.606-.582.606-.671.625l-.1-.509.051.255-.134-.217c.043-.035.262-.264.517-.529C5232.287,2017.811,5243.718,2010.171,5252.841,2008.412Z" fill="#c8c8c7"/>
                <path id="Trazado_150083" data-name="Trazado 150083" d="M5278.923,2004.33l-.044.514c-10.106-1.239-18.446-14.924-18.529-15.062l.4-.274C5260.834,1989.644,5269.048,2003.12,5278.923,2004.33Z" fill="#c8c8c7"/>
                <path id="Trazado_150084" data-name="Trazado 150084" d="M5284.32,2004.036c-6.9,4.561-12.774,11.434-17.944,21.012l-.417-.267c5.209-9.652,11.131-16.583,18.1-21.187Z" fill="#c8c8c7"/>
                <path id="Trazado_150085" data-name="Trazado 150085" d="M5140.5,1994.456l-.073.509c-11.357-2.132-23.688-1.55-27.74-1.358-.981.046-1.327.061-1.448.044l.052-.513c.093.012.654-.014,1.364-.048C5116.725,1992.9,5129.1,1992.314,5140.5,1994.456Z" fill="#c8c8c7"/>
                <path id="Trazado_150086" data-name="Trazado 150086" d="M5158.554,2000.852l-.209.461c-9.7-5.275-16.726-27.358-17.021-28.3l.455-.156C5141.851,1973.089,5149.035,1995.676,5158.554,2000.852Z" fill="#c8c8c7"/>
              </g>
            </g>
          </g>
        </g>
        <g id="Grupo_94172" data-name="Grupo 94172">
          <path id="Trazado_150088" data-name="Trazado 150088" d="M5283.253,1989.264c.066,1.79,16.944,6.3,6.2,13.3-2.685,1.749-12.457,4.841-10.788,17.906q.486,3.8.971,7.609c-5.308,3.1-10.886,5.035-14.31-2.26-5.317-11.33-25.15-8.089-31.614-3.57-8,5.593-26.884,18.211-35.364.831-7.06-14.468-8.832-25.318-27.561-23.078s-32.061-6.434-33.878-24.475c-1.913-18.985-28-30.178-22.637-46.968,9.35-29.256,54.211-12.266,71.392,18.221s25.2,9.81,40.236,6.222a26.7,26.7,0,0,1,6.3-.379c16.476.985,21.932,17.121,36.885,26.85C5289.479,1992.743,5283.144,1986.248,5283.253,1989.264Z" fill="url(#linear-gradient-7)"/>
          <g id="Grupo_94171" data-name="Grupo 94171">
            <g id="Grupo_94170" data-name="Grupo 94170" clip-path="url(#clip-path-3)">
              <g id="Grupo_94169" data-name="Grupo 94169" opacity="0.5" style="mix-blend-mode: soft-light;isolation: isolate">
                <path id="Trazado_150089" data-name="Trazado 150089" d="M5274.4,2005.247l-.026.9c-62.01-2.337-122.8-36.544-158.652-89.272l.688-.523C5152.107,1968.856,5212.645,2002.919,5274.4,2005.247Z" fill="#c8c8c7"/>
                <path id="Trazado_150090" data-name="Trazado 150090" d="M5240.678,2000.905l.142.887c-24.036,4.2-39.273,29.291-39.424,29.544l-.718-.484C5200.831,2030.6,5216.263,2005.169,5240.678,2000.905Z" fill="#c8c8c7"/>
                <path id="Trazado_150091" data-name="Trazado 150091" d="M5263,2004.487l-.272.85c-23.413-8.524-33.977-54.948-34.081-55.416l.826-.2C5229.576,1950.182,5240.032,1996.125,5263,2004.487Z" fill="#c8c8c7"/>
                <path id="Trazado_150092" data-name="Trazado 150092" d="M5183.56,1978.49l-.2.872c-19.043-5.061-44.364,11.98-44.618,12.152l-.461-.756C5138.535,1990.583,5164.166,1973.335,5183.56,1978.49Z" fill="#c8c8c7"/>
                <path id="Trazado_150093" data-name="Trazado 150093" d="M5150.8,1955.121l-.639.589c-14.724-17.886-13.294-49.822-13.277-50.143l.847.053C5137.712,1905.936,5136.3,1937.513,5150.8,1955.121Z" fill="#c8c8c7"/>
              </g>
            </g>
          </g>
        </g>
      </g>
      <g id="Grupo_94185" data-name="Grupo 94185">
        <g id="Grupo_94176" data-name="Grupo 94176">
          <path id="Trazado_150095" data-name="Trazado 150095" d="M5271.05,2034.692l-4.946-28.849s13.867-7.967,25.524-2.688c23.781,10.771,31.555-10.81,36.164-19.362,6.949-12.9,18.7-21.231,27.137-5.467s31.471-5.48,39.693-27.925c8.045-21.965,51.733-20.338,38.684,28.8-7.793,29.346-37.372,30.03-52.227,33.927s-12.258,26.539-32,22.021c-16.86-3.859-30.47-14.349-39.658-2.987S5288.275,2046.588,5271.05,2034.692Z" fill="url(#linear-gradient-2)"/>
          <g id="Grupo_94175" data-name="Grupo 94175" clip-path="url(#clip-path-4)">
            <path id="Trazado_150096" data-name="Trazado 150096" d="M5271.05,2034.692l-4.946-28.849s13.867-7.967,25.524-2.688c23.781,10.771,31.555-10.81,36.164-19.362,6.949-12.9,17.588-19.878,27.391-7.483,11.092,14.025,31.217-3.464,39.439-25.909,8.045-21.965,51.733-20.338,38.684,28.8-7.793,29.346-37.372,30.03-52.227,33.927s-12.258,26.539-32,22.021c-16.86-3.859-30.47-14.349-39.658-2.987S5288.275,2046.588,5271.05,2034.692Z" fill="url(#linear-gradient-9)"/>
            <g id="Grupo_94174" data-name="Grupo 94174" opacity="0.5" style="mix-blend-mode: soft-light;isolation: isolate">
              <path id="Trazado_150097" data-name="Trazado 150097" d="M5266.232,2022.666l.007-.618c.382,0,38.7.306,76.774-10.847,35.077-10.276,77.121-32.66,78.219-80.946l.618.014c-.489,21.495-8.991,39.731-25.271,54.2-13,11.561-30.972,20.754-53.405,27.324C5305.012,2022.974,5266.615,2022.67,5266.232,2022.666Z" fill="#beb8f2"/>
              <path id="Trazado_150098" data-name="Trazado 150098" d="M5389.515,1990.227l-.028-.618c20.545-.944,47.8-13.506,48.077-13.633l.261.561C5437.55,1976.664,5410.18,1989.277,5389.515,1990.227Z" fill="#beb8f2"/>
              <path id="Trazado_150099" data-name="Trazado 150099" d="M5400.1,1980.287c9.258-22.692-.155-40.8-.251-40.976l.545-.291c.1.182,9.65,18.53.278,41.5Z" fill="#beb8f2"/>
              <path id="Trazado_150100" data-name="Trazado 150100" d="M5317.723,2017.136c27.547-11.732,27.894-51.993,27.864-52.385l.611-.087c.066.383-.441,41.2-28.233,53.041Z" fill="#beb8f2"/>
              <path id="Trazado_150101" data-name="Trazado 150101" d="M5329.923,2015.238l.022-.617c19.093.673,35.208,18.5,35.369,18.677l-.461.411C5364.694,2033.531,5348.75,2015.9,5329.923,2015.238Z" fill="#beb8f2"/>
              <path id="Trazado_150102" data-name="Trazado 150102" d="M5272.269,2021.962c11.026-2.794,17.139-20.267,17.2-20.443l.584.2c-.251.732-6.281,17.966-17.632,20.842Z" fill="#beb8f2"/>
              <path id="Trazado_150103" data-name="Trazado 150103" d="M5281.342,2022.156v-.618c8.994-.006,20.992,11.532,24.934,15.324.557.536,1.038,1,1.14,1.064l-.327.524a14.432,14.432,0,0,1-1.241-1.143C5301.949,2033.558,5290.086,2022.15,5281.342,2022.156Z" fill="#beb8f2"/>
            </g>
          </g>
        </g>
        <g id="Grupo_94180" data-name="Grupo 94180">
          <path id="Trazado_150105" data-name="Trazado 150105" d="M5192.111,1995.141c4.192,6.714,1.593,13.936-1.107,18.868a8.047,8.047,0,0,0-1.927.519c-6.757,2.079-10.083,1.526-17.066,2.523-1.5.214-6.107-.5-7.969-.909l-3.46-.823s-7.683-16.518,1.178-21.9,3.555-22,1.828-31.144c-1.06-5.617.254-8.526.2-10.653-.616-22.512-7.942-28.563-3.645-36.006,4.743-8.217,15.028-3.195,20.66-11.862,6.359-9.786-2.486-22.76,5.6-30.676a14.825,14.825,0,0,1,5.26-3.653c5.953-2.317,11.222.813,15.146-4.587,7.887-10.856,22.006-15.592,31.72-5.75,9.587,9.713,1.338,31.088-22.721,49.567-15.611,15.093-15.453,19.251-13.08,29.228,1.662,6.989,10.8,24.836,1.232,32.948S5187.319,1987.465,5192.111,1995.141Z" fill="url(#linear-gradient-10)"/>
          <g id="Grupo_94179" data-name="Grupo 94179">
            <g id="Grupo_94178" data-name="Grupo 94178" clip-path="url(#clip-path-5)">
              <g id="Grupo_94177" data-name="Grupo 94177" opacity="0.5" style="mix-blend-mode: soft-light;isolation: isolate">
                <path id="Trazado_150106" data-name="Trazado 150106" d="M5175.7,2017.04l-.519-.021c.09-2.869.219-5.76.384-8.594a279.682,279.682,0,0,1,9.78-59.713,228.329,228.329,0,0,1,17.67-44.506,196.508,196.508,0,0,1,19.963-30.656,162.814,162.814,0,0,1,16.327-17.727c.981-.911,2.039-1.792,3.063-2.643,1.363-1.135,2.773-2.308,4.01-3.564l.386.328c-1.254,1.273-2.673,2.454-4.046,3.6-1.019.847-2.072,1.723-3.042,2.625a162.332,162.332,0,0,0-16.279,17.674,196.109,196.109,0,0,0-19.915,30.583,227.883,227.883,0,0,0-17.634,44.418,279.124,279.124,0,0,0-9.764,59.617C5175.918,2011.288,5175.789,2014.175,5175.7,2017.04Z" fill="#fefefc"/>
                <path id="Trazado_150107" data-name="Trazado 150107" d="M5195.4,1921.485l-.489-.169c7.519-19.37-4.3-53.239-4.418-53.579l.494-.144C5191.108,1867.935,5202.98,1901.96,5195.4,1921.485Z" fill="#fefefc"/>
                <path id="Trazado_150108" data-name="Trazado 150108" d="M5179.516,1977.451l-.506-.115c3.44-13.742,29.362-26.084,29.624-26.207l.241.431C5208.615,1951.682,5182.9,1963.925,5179.516,1977.451Z" fill="#fefefc"/>
                <path id="Trazado_150109" data-name="Trazado 150109" d="M5178.293,1985.414l-.519-.031c.494-9.22-4.149-22.111-13.075-36.3-.448-.713-.448-.713-.445-.8l.519.025-.259-.013.243-.078c.024.05.194.32.39.632C5174.123,1963.115,5178.792,1976.1,5178.293,1985.414Z" fill="#fefefc"/>
                <path id="Trazado_150110" data-name="Trazado 150110" d="M5175.944,2011.808l-.49-.167c3.657-9.543,19.009-14.347,19.164-14.4l.17.458C5194.635,1997.751,5179.518,2002.483,5175.944,2011.808Z" fill="#fefefc"/>
                <path id="Trazado_150111" data-name="Trazado 150111" d="M5174.921,2017.136c-2.767-7.831-8.038-15.215-16.114-22.573l.362-.341c8.137,7.414,13.451,14.863,16.245,22.77Z" fill="#fefefc"/>
                <path id="Trazado_150112" data-name="Trazado 150112" d="M5219.131,1879.381l-.479-.194c4.832-10.545,7.255-22.7,8.051-26.691.193-.966.262-1.306.308-1.421l.487.176c-.034.087-.144.64-.284,1.34C5226.415,1856.6,5223.985,1868.788,5219.131,1879.381Z" fill="#fefefc"/>
                <path id="Trazado_150113" data-name="Trazado 150113" d="M5208.524,1895.41l-.4-.315c7.489-8.169,30.7-9.657,31.688-9.717l.041.481C5239.616,1885.874,5215.874,1887.394,5208.524,1895.41Z" fill="#fefefc"/>
              </g>
            </g>
          </g>
        </g>
        <g id="Grupo_94184" data-name="Grupo 94184">
          <path id="Trazado_150115" data-name="Trazado 150115" d="M5332.393,2033.41c-1.759-.371-10.248,14.975-14.459,2.81-1.053-3.04-1.694-13.308-14.825-14.851l-7.646-.9c-1.731-5.922-2.265-11.825,5.672-13.39,12.324-2.432,13.978-22.535,11.144-29.928-3.508-9.149-11.218-30.6,7.767-34.647,15.8-3.367,26.8-2.462,29.162-21.247s14.043-29.668,32.056-27.063c18.955,2.742,36.185-19.956,51.238-10.658,26.229,16.2-1.2,55.778-35.062,65.118s-15.666,22.164-15.819,37.682a26.768,26.768,0,0,1-1.16,6.233c-4.955,15.808-22,17.21-35.1,29.415C5327.5,2038.63,5335.357,2034.034,5332.393,2033.41Z" fill="url(#linear-gradient-11)"/>
          <g id="Grupo_94183" data-name="Grupo 94183">
            <g id="Grupo_94182" data-name="Grupo 94182" clip-path="url(#clip-path-6)">
              <g id="Grupo_94181" data-name="Grupo 94181" opacity="0.5" style="mix-blend-mode: soft-light;isolation: isolate">
                <path id="Trazado_150116" data-name="Trazado 150116" d="M5318.973,2020.908l-.869-.243c17.316-59.832,65.378-110.748,125.431-132.879l.342.8C5384.077,1910.62,5336.217,1961.325,5318.973,2020.908Z" fill="#fefefc"/>
                <path id="Trazado_150117" data-name="Trazado 150117" d="M5331.381,1989.117l-.9-.076c1.741-24.43-19-45.357-19.215-45.566l.645-.581C5312.125,1943.1,5333.149,1964.3,5331.381,1989.117Z" fill="#fefefc"/>
                <path id="Trazado_150118" data-name="Trazado 150118" d="M5322.477,2009.991l-.762-.472c13.982-20.737,61.761-19.767,62.242-19.755l0,.854C5383.478,1990.6,5336.193,1989.647,5322.477,2009.991Z" fill="#fefefc"/>
                <path id="Trazado_150119" data-name="Trazado 150119" d="M5367.066,1938.92l-.8-.409c9.548-17.32-.909-46.117-1.016-46.406l.849-.266C5366.206,1892.131,5376.79,1921.279,5367.066,1938.92Z" fill="#fefefc"/>
                <path id="Trazado_150120" data-name="Trazado 150120" d="M5397.773,1912.676l-.419-.765c20.993-10,51.752-.866,52.06-.772l-.256.813C5448.853,1911.859,5418.439,1902.827,5397.773,1912.676Z" fill="#fefefc"/>
              </g>
            </g>
          </g>
        </g>
      </g>
      <g id="Grupo_94190" data-name="Grupo 94190">
        <path id="Trazado_150122" data-name="Trazado 150122" d="M5396.557,1905.14a12.716,12.716,0,0,0-9.264-12.444c-.189-.047-.4-.089-.589-.126a11.191,11.191,0,0,0-1.773-.194l-111.569-3.222-111.566-3.223c-.235-.006-.471-.007-.7,0a13.331,13.331,0,0,0-7.931,2.8c-.039.032-.08.062-.12.094-.314.25-.617.514-.906.792l-.021.019q-.256.247-.5.509a13.1,13.1,0,0,0-3.52,8.986v9.751h0V2061.9a13.333,13.333,0,0,0,.432,3.382,13,13,0,0,0,10.481,9.529,13.72,13.72,0,0,0,2.786.181l170.134-6.216h0l53.032-1.936c6.4-.234,11.6-5.987,11.6-12.852v-139.93h0Z" fill="#d8dee8"/>
        <g id="Grupo_94188" data-name="Grupo 94188">
          <path id="Trazado_150123" data-name="Trazado 150123" d="M5388.39,1892.376l-223.127-6.445a13.191,13.191,0,0,0-13.7,13.2V2061.9a13.071,13.071,0,0,0,13.7,13.092l223.127-8.152c6.4-.234,11.56-5.987,11.56-12.852V1905.14C5399.95,1898.275,5394.787,1892.561,5388.39,1892.376Z" fill="#fff"/>
          <path id="Trazado_150124" data-name="Trazado 150124" d="M5165.263,2070.671a8.908,8.908,0,0,1-9.31-8.912V1899.234a8.989,8.989,0,0,1,9.31-8.983l223.127,6.111c4.351.12,7.88,4.017,7.88,8.689V2054.1c0,4.672-3.529,8.6-7.88,8.749Z" fill="url(#linear-gradient-12)"/>
          <path id="Trazado_150125" data-name="Trazado 150125" d="M5388.39,1892.376l-223.127-6.445a13.191,13.191,0,0,0-13.7,13.2v9.751l248.385,5.177v-8.916C5399.95,1898.275,5394.787,1892.561,5388.39,1892.376Z" fill="#d8dee8"/>
          <path id="Trazado_150126" data-name="Trazado 150126" d="M5175.911,1898.412a4.3,4.3,0,0,1-4.436,4.308,4.565,4.565,0,0,1-4.45-4.528,4.3,4.3,0,0,1,4.45-4.308A4.566,4.566,0,0,1,5175.911,1898.412Z" fill="#fff"/>
          <path id="Trazado_150127" data-name="Trazado 150127" d="M5191.384,1898.793a4.267,4.267,0,0,1-4.389,4.286,4.528,4.528,0,0,1-4.4-4.5,4.266,4.266,0,0,1,4.4-4.285A4.528,4.528,0,0,1,5191.384,1898.793Z" fill="#fff"/>
          <path id="Trazado_150128" data-name="Trazado 150128" d="M5206.692,1899.17a4.232,4.232,0,0,1-4.342,4.264,4.49,4.49,0,0,1-4.355-4.478,4.231,4.231,0,0,1,4.355-4.263A4.491,4.491,0,0,1,5206.692,1899.17Z" fill="#fff"/>
          <path id="Trazado_150129" data-name="Trazado 150129" d="M5386.457,2054.476l-218.926,6.979V1933.609l218.926,2.714Z" fill="url(#linear-gradient-13)"/>
          <g id="Grupo_94186" data-name="Grupo 94186" opacity="0.5">
            <path id="Trazado_150130" data-name="Trazado 150130" d="M5285.846,1922.378l-118.315-2.009v6.906L5285.846,1929Z" fill="#fff"/>
            <path id="Trazado_150131" data-name="Trazado 150131" d="M5374.087,1923.876v6.412l12.369.18v-6.382Z" fill="#fff"/>
          </g>
          <g id="Grupo_94187" data-name="Grupo 94187" opacity="0.5" style="mix-blend-mode: soft-light;isolation: isolate">
            <path id="Trazado_150132" data-name="Trazado 150132" d="M5302.118,1975.595c-26.036-37.45-71.227-25.2-99.9-66.727a90.411,90.411,0,0,1-11.1-22.19l-25.856-.747a13.191,13.191,0,0,0-13.7,13.2V2061.9a13.071,13.071,0,0,0,13.7,13.092l170.134-6.216a138.975,138.975,0,0,1-13.666-24.174C5306.573,2010.117,5317.8,1998.152,5302.118,1975.595Z" fill="#fff"/>
          </g>
        </g>
        <g id="Grupo_94189" data-name="Grupo 94189">
          <path id="Trazado_150133" data-name="Trazado 150133" d="M5255.016,2039.852a8.942,8.942,0,0,1-8.746,8.8,8.44,8.44,0,0,1-8.8-8.383,8.941,8.941,0,0,1,8.8-8.8A8.441,8.441,0,0,1,5255.016,2039.852Z" fill="#fff"/>
          <path id="Trazado_150134" data-name="Trazado 150134" d="M5290.065,2039.014a8.766,8.766,0,0,1-8.52,8.685,8.272,8.272,0,0,1-8.574-8.276,8.764,8.764,0,0,1,8.574-8.687A8.275,8.275,0,0,1,5290.065,2039.014Z" fill="#fff"/>
          <path id="Trazado_150135" data-name="Trazado 150135" d="M5324.21,2038.2a8.6,8.6,0,0,1-8.3,8.57,8.111,8.111,0,0,1-8.353-8.172,8.593,8.593,0,0,1,8.353-8.572A8.115,8.115,0,0,1,5324.21,2038.2Z" fill="#fff"/>
        </g>
      </g>
    </g>
    <g id="Grupo_94241" data-name="Grupo 94241">
      <g id="Grupo_94197" data-name="Grupo 94197">
        <path id="Trazado_150136" data-name="Trazado 150136" d="M5291.4,1889.84l-96.882,40.1c-3.158,1.307-4.81,4.422-3.682,6.955l32.579,73.165c1.128,2.533,4.567,3.43,7.673,2.007l95.3-43.641c2.836-1.3,4.259-4.3,3.185-6.714l-31.018-69.66C5297.486,1889.636,5294.284,1888.646,5291.4,1889.84Z" fill="url(#linear-gradient-14)"/>
        <path id="Trazado_150137" data-name="Trazado 150137" d="M5296.885,1892.745l31.042,69.713a3.622,3.622,0,0,1-2.164,4.571l-43.78,20.011-51.59,23.582c-2.115.966-4.494.373-5.262-1.351l-32.552-73.1c-.767-1.722.4-3.86,2.547-4.751l96.873-40.17a3.93,3.93,0,0,1,4.387.746A2.852,2.852,0,0,1,5296.885,1892.745Z" fill="#fff" opacity="0.74" style="mix-blend-mode: soft-light;isolation: isolate"/>
        <g id="Grupo_94192" data-name="Grupo 94192">
          <path id="Trazado_150138" data-name="Trazado 150138" d="M5253.042,1924.438l-50.372,21.279,1.04,2.336,50.349-21.331Z" fill="#fff"/>
          <path id="Trazado_150139" data-name="Trazado 150139" d="M5291.892,1908.027l1,2.243,5.534-2.344-1-2.237Z" fill="#fff"/>
        </g>
        <g id="Grupo_94193" data-name="Grupo 94193" style="mix-blend-mode: soft-light;isolation: isolate">
          <path id="Trazado_150140" data-name="Trazado 150140" d="M5216.727,1949.192l-10.512,4.485-1.073-2.409,10.517-4.474Z" fill="#fff"/>
          <path id="Trazado_150141" data-name="Trazado 150141" d="M5273.985,1924.761l-50.515,21.553-1.064-2.39,50.539-21.5Z" fill="#fff"/>
          <path id="Trazado_150142" data-name="Trazado 150142" d="M5235.63,1945.962l-10.342,4.435-1.064-2.39,10.347-4.424Z" fill="#fff"/>
          <path id="Trazado_150143" data-name="Trazado 150143" d="M5291.977,1921.8l-49.711,21.319-1.056-2.372,49.735-21.266Z" fill="#fff"/>
          <path id="Trazado_150144" data-name="Trazado 150144" d="M5237.44,1950.026l-10.333,4.454-1.064-2.39,10.338-4.443Z" fill="#fff"/>
          <path id="Trazado_150145" data-name="Trazado 150145" d="M5293.74,1925.757l-49.67,21.411-1.056-2.372,49.694-21.357Z" fill="#fff"/>
          <path id="Trazado_150146" data-name="Trazado 150146" d="M5222.2,1961.477l-10.485,4.543-1.073-2.409,10.491-4.532Z" fill="#fff"/>
          <path id="Trazado_150147" data-name="Trazado 150147" d="M5279.315,1936.73l-50.391,21.832-1.064-2.39,50.415-21.778Z" fill="#fff"/>
          <path id="Trazado_150148" data-name="Trazado 150148" d="M5241.059,1958.153l-10.316,4.492-1.064-2.39,10.321-4.481Z" fill="#fff"/>
          <path id="Trazado_150149" data-name="Trazado 150149" d="M5297.267,1933.676l-49.589,21.594-1.056-2.372,49.612-21.541Z" fill="#fff"/>
          <path id="Trazado_150150" data-name="Trazado 150150" d="M5242.868,1962.216l-10.308,4.511-1.064-2.39,10.313-4.5Z" fill="#fff"/>
          <path id="Trazado_150151" data-name="Trazado 150151" d="M5299.03,1937.636l-49.548,21.686-1.056-2.372L5298,1935.318Z" fill="#fff"/>
          <path id="Trazado_150152" data-name="Trazado 150152" d="M5244.678,1966.28l-10.3,4.531-1.064-2.39,10.3-4.519Z" fill="#fff"/>
          <path id="Trazado_150153" data-name="Trazado 150153" d="M5300.793,1941.6l-49.507,21.778L5250.23,1961l49.531-21.724Z" fill="#fff"/>
          <path id="Trazado_150154" data-name="Trazado 150154" d="M5263.382,1962.874l-10.132,4.48-1.056-2.372,10.137-4.469Z" fill="#fff"/>
          <path id="Trazado_150155" data-name="Trazado 150155" d="M5310.359,1942.105,5269.884,1960l-1.048-2.354,40.5-17.85Z" fill="#fff"/>
          <path id="Trazado_150156" data-name="Trazado 150156" d="M5231.314,1981.953l-10.442,4.64-1.073-2.409,10.448-4.629Z" fill="#fff"/>
          <path id="Trazado_150157" data-name="Trazado 150157" d="M5288.2,1956.678l-50.184,22.3-1.064-2.39,50.208-22.243Z" fill="#fff"/>
          <path id="Trazado_150158" data-name="Trazado 150158" d="M5250.106,1978.471l-10.273,4.588-1.064-2.39,10.279-4.577Z" fill="#fff"/>
          <path id="Trazado_150159" data-name="Trazado 150159" d="M5306.083,1953.475l-49.384,22.052-1.056-2.372,49.408-22Z" fill="#fff"/>
          <path id="Trazado_150160" data-name="Trazado 150160" d="M5251.916,1982.534l-10.265,4.607-1.064-2.39,10.271-4.6Z" fill="#fff"/>
          <path id="Trazado_150161" data-name="Trazado 150161" d="M5307.846,1957.434l-49.344,22.144-1.056-2.372,49.368-22.091Z" fill="#fff"/>
          <path id="Trazado_150162" data-name="Trazado 150162" d="M5236.785,1994.238l-10.417,4.7-1.073-2.409,10.422-4.687Z" fill="#fff"/>
          <path id="Trazado_150163" data-name="Trazado 150163" d="M5293.527,1968.647l-50.059,22.577-1.064-2.39,50.083-22.522Z" fill="#fff"/>
          <path id="Trazado_150164" data-name="Trazado 150164" d="M5255.535,1990.662l-10.249,4.645-1.064-2.39,10.253-4.634Z" fill="#fff"/>
          <path id="Trazado_150165" data-name="Trazado 150165" d="M5311.373,1965.354l-49.262,22.328-1.056-2.372,49.286-22.274Z" fill="#fff"/>
        </g>
        <path id="Trazado_150166" data-name="Trazado 150166" d="M5296.885,1892.745l31.042,69.713a3.622,3.622,0,0,1-2.164,4.571l-43.776,20.01-32.974-74.051,47.392-21A2.83,2.83,0,0,1,5296.885,1892.745Z" fill="#fff"/>
        <path id="Trazado_150167" data-name="Trazado 150167" d="M5291.4,1889.84l-96.882,40.1c-3.158,1.307-4.81,4.422-3.682,6.955l1.465,3.29,107.652-45-1.394-3.132C5297.486,1889.636,5294.284,1888.646,5291.4,1889.84Z" fill="url(#linear-gradient-15)"/>
        <g id="Grupo_94194" data-name="Grupo 94194">
          <path id="Trazado_150168" data-name="Trazado 150168" d="M5200.421,1932.388a1.667,1.667,0,0,1-1,2.181,1.782,1.782,0,0,1-2.331-.808,1.668,1.668,0,0,1,1-2.183A1.781,1.781,0,0,1,5200.421,1932.388Z" fill="#fff"/>
          <path id="Trazado_150169" data-name="Trazado 150169" d="M5206.234,1929.989a1.659,1.659,0,0,1-.988,2.172,1.773,1.773,0,0,1-2.318-.808,1.659,1.659,0,0,1,.991-2.173A1.773,1.773,0,0,1,5206.234,1929.989Z" fill="#fff"/>
          <path id="Trazado_150170" data-name="Trazado 150170" d="M5212.01,1927.6a1.65,1.65,0,0,1-.979,2.163,1.765,1.765,0,0,1-2.306-.807,1.652,1.652,0,0,1,.983-2.165A1.763,1.763,0,0,1,5212.01,1927.6Z" fill="#fff"/>
        </g>
        <g id="Grupo_94195" data-name="Grupo 94195" opacity="0.5" style="mix-blend-mode: soft-light;isolation: isolate">
          <path id="Trazado_150171" data-name="Trazado 150171" d="M5266.3,1935.315c-17.027-8.06-34.488,4.506-52.9-4.383a31.891,31.891,0,0,1-8.008-5.495l-10.871,4.5c-3.158,1.307-4.81,4.423-3.682,6.955l32.579,73.165c1.128,2.533,4.567,3.43,7.673,2.008l91.72-42c-3.283-1.542-26.256-2.658-37.29-14.485C5275.455,1944.791,5276.624,1940.2,5266.3,1935.315Z" fill="#fff"/>
        </g>
        <g id="Grupo_94196" data-name="Grupo 94196" opacity="0.8">
          <path id="Trazado_150172" data-name="Trazado 150172" d="M5260.421,1932.222l40.627-17.229a.558.558,0,0,0,.293-.744l-5.693-12.785a.567.567,0,0,0-.735-.294l-40.774,16.9a.545.545,0,0,0-.3.306.557.557,0,0,0,.011.431l5.842,13.121A.561.561,0,0,0,5260.421,1932.222Z" fill="url(#linear-gradient-16)"/>
          <path id="Trazado_150173" data-name="Trazado 150173" d="M5303.842,1920.671l-40.991,17.548a.536.536,0,0,0-.293.3.554.554,0,0,0,.012.427l18.251,40.988a.57.57,0,0,0,.318.3.555.555,0,0,0,.433-.011l40.553-18.532a.55.55,0,0,0,.275-.728l-17.813-40A.572.572,0,0,0,5303.842,1920.671Z" fill="url(#linear-gradient-17)"/>
        </g>
      </g>
      <g id="Grupo_94204" data-name="Grupo 94204">
        <path id="Trazado_150174" data-name="Trazado 150174" d="M5368.609,2043.363c-2.575-2.749,4.554-13.077,8.369-17.6,3.333-3.954,6.759-8.018,10.966-7.5,3.693.452,7.287,4.347,7.5,8.08C5396.026,2036.38,5372.27,2047.271,5368.609,2043.363Z" fill="url(#linear-gradient-18)"/>
        <path id="Trazado_150175" data-name="Trazado 150175" d="M5399.526,2149.5c.484.394.574,1.378.632,2.021a1.6,1.6,0,0,1,.007.532c-.234.74-1.67.818-3.921,1.048-3.557.364-4.616.644-4.894.114-.261-.5.37-1.308.441-1.4a3.27,3.27,0,0,1,1.759-.955c1.678-.552,2.812-.855,3.155-.946C5398.849,2149.338,5399.207,2149.236,5399.526,2149.5Z" fill="url(#linear-gradient-19)"/>
        <path id="Trazado_150176" data-name="Trazado 150176" d="M5397.41,2146.245l-.356,4.054a2.2,2.2,0,0,0,2.263.279l.915-3.985Z" fill="url(#linear-gradient-20)"/>
        <path id="Trazado_150177" data-name="Trazado 150177" d="M5371.314,2148.974a2,2,0,0,1,.208,2.4c-.5.572-1.243.143-3.361.206-2.268.068-2.86.6-4.4.178-.623-.172-1.722-.589-1.7-1.034.015-.313.575-.474,2.445-1.1a24.231,24.231,0,0,1,3.207-1.031C5369.125,2148.362,5370.546,2148.127,5371.314,2148.974Z" fill="url(#linear-gradient-21)"/>
        <path id="Trazado_150178" data-name="Trazado 150178" d="M5369.86,2145.274l-1.137,3.785a2.2,2.2,0,0,0,2.235.451l1.689-3.673Z" fill="url(#linear-gradient-22)"/>
        <path id="Trazado_150179" data-name="Trazado 150179" d="M5379.969,2062.391a354.644,354.644,0,0,1-11.2,83.985l4.354,1.172a36.935,36.935,0,0,0,10.57-16.478c1.391-4.741.928-7.177,1.81-13.009,1.4-9.285,4.251-14.149,7.193-21.636a123.209,123.209,0,0,0,7.443-29.8Z" fill="#26264f"/>
        <path id="Trazado_150180" data-name="Trazado 150180" d="M5393.071,2061.178q1.334,24.263,2.173,49.42.624,18.875.924,37.267l4.448.549a51.872,51.872,0,0,0,4.639-11.973c1.583-6.348,1.217-10.118,1.911-16.7.779-7.379,1.91-8.987,3.915-18.3,4.069-18.892,6.1-28.339,1.564-34.215C5411.172,2065.325,5406.554,2060.539,5393.071,2061.178Z" fill="#26264f"/>
        <path id="Trazado_150181" data-name="Trazado 150181" d="M5414.68,2020.524a69.076,69.076,0,0,0-14.793-2.47c-8.889-.5-13.334-.754-16.483,1.363-7.275,4.889-1.643,16.173-4.621,44.145-.425,3.995-.52,8.018-.828,12.023-.51,6.632-.626,6.992-.165,7.664,2.894,4.214,13.69-2.142,29.513.37,8.854,1.406,12.869,4.645,15.295,2.309,2.828-2.725.4-10.052-1.687-16.36-2.4-7.24-3.878-7.333-5.239-12.786-1.423-5.7-.562-8.634-.341-17.622A159.074,159.074,0,0,0,5414.68,2020.524Z" fill="url(#linear-gradient-23)"/>
        <g id="Grupo_94198" data-name="Grupo 94198">
          <path id="Trazado_150182" data-name="Trazado 150182" d="M5393.163,2073.038c4.136-.324,6.819,2.015,10.389.192,4.9-2.5,6.468-10.273,6.156-15.775-.474-8.36-5.248-10.564-4.425-15.968.445-2.922,2.532-6.8,10.023-10.766.1,3.336.081,6.18.025,8.439-.221,8.988-1.082,11.922.341,17.622,1.361,5.453,2.842,5.546,5.239,12.786,2.089,6.308,4.515,13.635,1.687,16.36-2.426,2.336-6.441-.9-15.295-2.309-13.634-2.165-23.53,2.249-27.86.818C5384.675,2075.791,5389.421,2073.331,5393.163,2073.038Z" fill="url(#linear-gradient-24)"/>
        </g>
        <path id="Trazado_150183" data-name="Trazado 150183" d="M5409.039,2021.1c2.954-2.427,8.893.32,10.481,1.055,8.853,4.1,16.8,15.13,14.832,26.793-.295,1.749-1.665,9.93-8.592,13.894-6.251,3.576-14.691,2.656-21.453-2.409l-2.773-2.461-2.727-2.948a21.868,21.868,0,0,1,7.268-4c4.5-1.451,7.77,1.152,9.856-.827,1.44-1.366,1.443-3.779,1.088-5.241-.717-2.947-3.315-3.776-5.483-5.868C5406.441,2034.168,5405.5,2024,5409.039,2021.1Z" fill="url(#linear-gradient-25)"/>
        <g id="Grupo_94199" data-name="Grupo 94199">
          <path id="Trazado_150184" data-name="Trazado 150184" d="M5367.123,2059.076l35.764-.534-9.51,4.59-26.345-1.724Z" fill="#444b8c"/>
          <path id="Trazado_150185" data-name="Trazado 150185" d="M5404.149,2059.493h0a1.593,1.593,0,0,1-1.048,1.5l-11.427,4.48-.052-3.106,11.265-3.82A.988.988,0,0,1,5404.149,2059.493Z" fill="#26264f"/>
        </g>
        <path id="Trazado_150186" data-name="Trazado 150186" d="M5401.483,2057.289c.243-.055-1.183-2.9-2.3-2.569s-6.6,3.5-7.1,4.81l-.5,1.307a12.25,12.25,0,0,0,3.871-.311C5396.939,2060.028,5399.507,2057.729,5401.483,2057.289Z" fill="url(#linear-gradient-26)"/>
        <g id="Grupo_94201" data-name="Grupo 94201">
          <g id="Grupo_94200" data-name="Grupo 94200">
            <path id="Trazado_150187" data-name="Trazado 150187" d="M5390.673,2040.571l2.521,22.953a2.165,2.165,0,0,1-1.818,1.934l-36.982-2.27a1.3,1.3,0,0,1-1.216-1.076l-4.642-22.169c-.139-.806,1.312-1.64,2.13-1.617l38.755,1.09A1.3,1.3,0,0,1,5390.673,2040.571Z" fill="#26264f"/>
            <path id="Trazado_150188" data-name="Trazado 150188" d="M5389.828,2041.24l2.521,22.953a1.3,1.3,0,0,1-1.351,1.437l-37.449-1.773a1.3,1.3,0,0,1-1.217-1.075l-3.826-22.271a1.3,1.3,0,0,1,1.315-1.515l38.754,1.089A1.3,1.3,0,0,1,5389.828,2041.24Z" fill="#26264f"/>
          </g>
          <path id="Trazado_150189" data-name="Trazado 150189" d="M5367.837,2058.479c3.27-1.386,2.116-4.029,5.977-7.323,5.1-4.344,10.287-2.46,12.1-5.827.566-1.049.836-2.681-.15-5.322l2.806.078a1.3,1.3,0,0,1,1.253,1.155l2.521,22.953a1.3,1.3,0,0,1-1.351,1.437l-37.449-1.773a1.3,1.3,0,0,1-1.217-1.075l-.528-3.074a14.142,14.142,0,0,1,4.079-1.528C5361.377,2057.065,5364.073,2060.074,5367.837,2058.479Z" fill="#26264f" opacity="0.3" style="mix-blend-mode: multiply;isolation: isolate"/>
        </g>
        <path id="Trazado_150190" data-name="Trazado 150190" d="M5350.8,2060.441a.323.323,0,0,1,.29-.427,8.182,8.182,0,0,1,4.031.624c1.457.893,3.341,2.522,1.754,3.344l-1.481.768a.316.316,0,0,1-.217.029c-.527-.115-2.743-.607-2.985-.729A22.264,22.264,0,0,1,5350.8,2060.441Z" fill="url(#linear-gradient-27)"/>
        <g id="Grupo_94203" data-name="Grupo 94203">
          <path id="Trazado_150191" data-name="Trazado 150191" d="M5399.223,2008.342a30.827,30.827,0,0,0,.55,6.156,4.775,4.775,0,0,0,.841,2.408c.441.517,1.11.951,4.886,1.888,2.055.509,2.319.495,2.365.7.221.995-5.383,4.385-11.172,3.568-3.543-.5-6.766-2.521-6.568-3.583s3.738-.495,4.793-2.427c.733-1.345-.089-3.253-1.061-4.834C5394.8,2010.452,5398.281,2010.106,5399.223,2008.342Z" fill="url(#linear-gradient-28)"/>
          <g id="Grupo_94202" data-name="Grupo 94202">
            <path id="Trazado_150192" data-name="Trazado 150192" d="M5394.123,2007.881a3.725,3.725,0,0,1,1.5-4,4.056,4.056,0,0,1,3.18-.244c2.221.512,4.595,2.36,4.832,4.655.141,1.361-1.918,3.351-2.26,3.719-.388.415-.834.447-1.323.691-.677.339-1.743.883-3.494,1.8a9.27,9.27,0,0,0,.031-1.62,8.271,8.271,0,0,0-.408-2.06C5395.555,2009.072,5394.517,2009.138,5394.123,2007.881Z" fill="#26264f"/>
            <path id="Trazado_150193" data-name="Trazado 150193" d="M5398.775,2013.992a5.058,5.058,0,0,1-4.947.627c-2.442-1.052-.814-6.787,1.205-7.408a3.343,3.343,0,0,1,2.58.559c.461.325.559.6,1.323,1.117.7.478.954.47,1.118.75.206.351.2,1.032-.867,2.5a1.442,1.442,0,0,1,1.624.041.9.9,0,0,1,.218.442C5401.151,2013.382,5400.275,2013.991,5398.775,2013.992Z" fill="url(#linear-gradient-29)"/>
            <path id="Trazado_150194" data-name="Trazado 150194" d="M5400.287,2009.342c-.153.047.056.628-.143,1.274a3.247,3.247,0,0,1-3.485,1.965c-.78-.194-.826-.722-2.026-1.3a6.077,6.077,0,0,0-1.856-.542,3.191,3.191,0,0,0-.3,3.647,3.323,3.323,0,0,0,2.708,1.069,3.8,3.8,0,0,0,2.583-.774c.987-.851.619-1.706,1.573-2.179a6.167,6.167,0,0,0,1.7-.777,3.69,3.69,0,0,0,.422-.384C5401.058,2010.43,5400.507,2009.274,5400.287,2009.342Z" fill="#26264f"/>
            <path id="Trazado_150195" data-name="Trazado 150195" d="M5393.506,2011.566a3.229,3.229,0,0,0,1.391.754c.046.013.091.044.089.07a1.216,1.216,0,0,1-1.246-.071c-.352-.25-.525-.729-.439-.8C5393.337,2011.483,5393.424,2011.52,5393.506,2011.566Z" fill="url(#linear-gradient-30)"/>
          </g>
        </g>
      </g>
      <g id="Grupo_94208" data-name="Grupo 94208">
        <path id="Trazado_150196" data-name="Trazado 150196" d="M5319.536,1967.7c2.527-10.886,14.542-17.053,26.411-13.887a22.661,22.661,0,0,1,14.621,11.641l0,0c.017.033.031.068.048.1.045.094.088.19.132.284.08.173.159.346.234.521.044.1.088.207.13.311.071.173.139.347.205.522.038.1.076.2.112.3.072.2.139.4.2.607.024.074.05.147.072.22q.126.413.234.829c.019.074.034.148.052.222q.076.312.143.625c.021.1.04.206.06.309q.053.276.1.555c.017.107.034.215.049.323q.04.285.069.57c.011.1.023.2.032.3q.031.358.049.718c0,.05.007.1.01.15q.017.434.013.868c0,.086-.005.172-.007.257,0,.207-.011.415-.023.623-.006.106-.015.212-.023.318q-.021.287-.053.575c-.011.107-.023.215-.037.323-.026.2-.056.4-.089.6-.016.094-.029.187-.046.281q-.078.441-.179.88c-1.622,6.986-7.283,12.166-14.392,13.993q-.981.252-2,.418c-.339.055-.681.1-1.025.143a23.993,23.993,0,0,1-7.533-.323h0c-.355-.072-.705-.152-1.053-.238-.117-.029-.232-.062-.348-.093-.229-.06-.458-.12-.684-.187-.138-.041-.274-.085-.411-.128-.2-.063-.4-.126-.6-.194-.145-.05-.288-.1-.432-.155-.186-.068-.372-.136-.556-.208-.147-.057-.292-.117-.437-.177-.177-.074-.354-.148-.528-.226-.146-.064-.291-.131-.435-.2q-.255-.118-.506-.243-.216-.108-.428-.217c-.165-.086-.327-.174-.489-.264-.14-.076-.279-.153-.416-.233-.051-.029-.1-.056-.153-.086l0,0C5321.965,1984.515,5317.587,1976.094,5319.536,1967.7Z" fill="url(#linear-gradient-31)"/>
        <g id="Grupo_94207" data-name="Grupo 94207">
          <path id="Trazado_150197" data-name="Trazado 150197" d="M5363.5,1977.912c-2.521,10.858-14.487,17.049-26.307,13.939-11.379-2.995-18.389-13.559-16.036-23.7s13.308-16.561,24.852-14.273C5358,1956.258,5366.026,1967.054,5363.5,1977.912Z" fill="url(#linear-gradient-32)"/>
          <g id="Grupo_94205" data-name="Grupo 94205">
            <path id="Trazado_150198" data-name="Trazado 150198" d="M5335.824,1977.028l-7.491-6.3.323-1.392,9.638-2.947-.551,2.37-6.606,1.775,5.235,4.13Z" fill="#fff"/>
            <path id="Trazado_150199" data-name="Trazado 150199" d="M5347.777,1966.572l-8.222,13.48-2.422-.588,8.171-13.431Z" fill="#fff"/>
            <path id="Trazado_150200" data-name="Trazado 150200" d="M5347.2,1977.216l6.867-1.392-5.471-4.618.56-2.412,7.9,7.064-.338,1.459-10.078,2.3Z" fill="#fff"/>
          </g>
          <g id="Grupo_94206" data-name="Grupo 94206" opacity="0.3" style="mix-blend-mode: multiply;isolation: isolate">
            <path id="Trazado_150201" data-name="Trazado 150201" d="M5343.471,1988.327c-1.263-6.284,2.568-10.932-.072-15.388-2.652-4.475-7.939-2.095-12.02-6.131-1.561-1.543-3.075-4.155-3.534-8.924a18.158,18.158,0,0,0-6.683,10.271c-2.353,10.137,4.657,20.7,16.036,23.7a23.97,23.97,0,0,0,7.927.732A13.4,13.4,0,0,1,5343.471,1988.327Z" fill="url(#linear-gradient-33)"/>
          </g>
        </g>
      </g>
      <g id="Grupo_94212" data-name="Grupo 94212">
        <g id="Grupo_94211" data-name="Grupo 94211">
          <path id="Trazado_150202" data-name="Trazado 150202" d="M5204.383,1892.113c-2.083-9.563,5.112-18.95,15.693-20.9a19.847,19.847,0,0,1,15.938,3.728v0l.076.063c.071.057.141.117.211.175.129.107.256.214.381.324.074.065.147.131.219.2.121.111.241.223.358.337.068.065.136.13.2.2q.2.2.389.4c.046.049.094.1.14.147.169.186.335.375.495.568.043.052.083.105.125.156.118.146.235.292.348.442.055.073.108.147.163.222.1.132.192.266.284.4.054.079.107.158.16.238.092.14.181.282.269.425.045.075.092.149.137.225.106.181.209.364.308.55.021.038.043.076.064.115.117.224.229.452.336.682.032.068.061.137.091.206.074.166.147.332.215.5.035.086.068.173.1.259.06.158.118.316.173.475q.047.135.092.27c.055.169.106.34.156.512.023.08.048.159.07.239.068.252.132.507.188.764,1.337,6.137-1.2,12.36-6.142,16.472q-.681.569-1.424,1.08-.371.257-.757.5a21.005,21.005,0,0,1-6.083,2.57h0c-.307.076-.615.145-.922.207-.1.021-.207.038-.311.057-.2.038-.408.076-.611.108-.125.02-.249.036-.373.053-.183.025-.366.051-.548.072-.133.015-.266.026-.4.039-.173.016-.346.032-.518.044-.138.01-.275.017-.413.024-.168.008-.335.015-.5.019-.14,0-.28.006-.419.007q-.245,0-.492,0c-.14,0-.28-.006-.42-.011-.162-.007-.324-.015-.485-.025-.14-.009-.279-.017-.417-.029l-.154-.01,0-.005C5212.612,1904.509,5205.989,1899.486,5204.383,1892.113Z" fill="url(#linear-gradient-34)"/>
          <g id="Grupo_94210" data-name="Grupo 94210">
            <path id="Trazado_150203" data-name="Trazado 150203" d="M5243.011,1883.7c2.078,9.539-5.07,18.927-15.591,20.9-10.129,1.9-19.64-3.833-21.579-12.738s4.32-18.1,14.313-20.619C5230.535,1868.627,5240.933,1874.163,5243.011,1883.7Z" fill="url(#linear-gradient-35)"/>
            <g id="Grupo_94209" data-name="Grupo 94209" opacity="0.2" style="mix-blend-mode: multiply;isolation: isolate">
              <path id="Trazado_150204" data-name="Trazado 150204" d="M5231.062,1899.459c-3.356-4.5-2.068-9.615-5.829-12.151-3.777-2.547-7.068,1.32-11.812-.344-1.814-.636-3.992-2.135-6.145-5.737a15.909,15.909,0,0,0-1.435,10.636c1.939,8.9,11.45,14.636,21.579,12.738a21,21,0,0,0,6.548-2.394A11.785,11.785,0,0,1,5231.062,1899.459Z" fill="url(#linear-gradient-36)"/>
            </g>
          </g>
        </g>
        <path id="Trazado_150205" data-name="Trazado 150205" d="M5219.2,1882.865l2.778,12.756c.179.819.983,1.179,1.5.673l9.221-9.033a1.259,1.259,0,0,0-.431-1.98l-12-3.73C5219.6,1881.342,5219.023,1882.046,5219.2,1882.865Z" fill="#fff"/>
      </g>
      <g id="Grupo_94224" data-name="Grupo 94224">
        <g id="Grupo_94221" data-name="Grupo 94221">
          <g id="Grupo_94213" data-name="Grupo 94213">
            <path id="Trazado_150206" data-name="Trazado 150206" d="M5206.911,2158.615a.5.5,0,0,0,.5-.5V2053.857a.5.5,0,1,0-.993,0v104.261A.5.5,0,0,0,5206.911,2158.615Z" fill="#26264f"/>
          </g>
          <g id="Grupo_94214" data-name="Grupo 94214">
            <path id="Trazado_150207" data-name="Trazado 150207" d="M5178.823,2152.065a.5.5,0,0,0,.5-.5V2051.228a.5.5,0,1,0-.993,0v100.341A.5.5,0,0,0,5178.823,2152.065Z" fill="#26264f"/>
          </g>
          <g id="Grupo_94215" data-name="Grupo 94215">
            <path id="Trazado_150208" data-name="Trazado 150208" d="M5113.882,2156.738a.5.5,0,0,0,.466-.327l37.549-103.463a.5.5,0,1,0-.934-.338l-37.548,103.462a.5.5,0,0,0,.3.636A.5.5,0,0,0,5113.882,2156.738Z" fill="#26264f"/>
          </g>
          <g id="Grupo_94216" data-name="Grupo 94216">
            <path id="Trazado_150209" data-name="Trazado 150209" d="M5141.6,2164.834a.5.5,0,0,0,.474-.35l33.7-109.083a.5.5,0,0,0-.948-.293l-33.7,109.083a.5.5,0,0,0,.474.643Z" fill="#26264f"/>
          </g>
          <path id="Trazado_150210" data-name="Trazado 150210" d="M5179.131,2051.124l28.178,2.085v.634l-32.2,1.444-24.069-2.949v-.634Z" fill="#26264f"/>
          <path id="Trazado_150211" data-name="Trazado 150211" d="M5179.131,2050.49l28.178,2.719-32.2,1.444-24.069-2.949Z" fill="url(#linear-gradient-37)"/>
          <g id="Grupo_94217" data-name="Grupo 94217">
            <path id="Trazado_150212" data-name="Trazado 150212" d="M5148.892,2141.235a.5.5,0,0,0,.126-.977l-26.83-7.038a.5.5,0,0,0-.252.96l26.83,7.039A.5.5,0,0,0,5148.892,2141.235Z" fill="#26264f"/>
          </g>
          <g id="Grupo_94218" data-name="Grupo 94218">
            <path id="Trazado_150213" data-name="Trazado 150213" d="M5156.493,2116.543a.5.5,0,0,0,.086-.985l-26.331-4.663a.5.5,0,0,0-.173.978l26.33,4.662A.524.524,0,0,0,5156.493,2116.543Z" fill="#26264f"/>
          </g>
          <g id="Grupo_94219" data-name="Grupo 94219">
            <path id="Trazado_150214" data-name="Trazado 150214" d="M5164.394,2091.02l-.059,0-25.483-3.285a.461.461,0,1,1,.118-.914l25.483,3.285a.46.46,0,0,1-.059.917Z" fill="#26264f"/>
          </g>
          <g id="Grupo_94220" data-name="Grupo 94220">
            <path id="Trazado_150215" data-name="Trazado 150215" d="M5169.458,2073.334a.591.591,0,0,1-.072,0l-23.959-3.75a.461.461,0,0,1,.142-.91l23.96,3.749a.461.461,0,0,1-.071.916Z" fill="#26264f"/>
          </g>
        </g>
        <g id="Grupo_94223" data-name="Grupo 94223">
          <path id="Trazado_150216" data-name="Trazado 150216" d="M5191.617,2048.135s6.643,3.7,6.732,4.257-4.35-.352-6.177-.343-3.3-.651-3.106-1.508.921-3.006.921-3.006Z" fill="url(#linear-gradient-38)"/>
          <path id="Trazado_150217" data-name="Trazado 150217" d="M5192.295,2045.324l-.412,3.413a2.162,2.162,0,0,1-1.795-.078l-.307-3.743Z" fill="url(#linear-gradient-39)"/>
          <path id="Trazado_150218" data-name="Trazado 150218" d="M5160.5,2045.253l-.789,1.415a1.865,1.865,0,0,0-.18,1.324c.276,1.177.827,3.471,1.067,4.069.327.815,4.714,1.3,4.714,1.3s.392-.615-.519-1.359-1.5-.86-1.818-1.958a31.78,31.78,0,0,1-.536-4.2Z" fill="url(#linear-gradient-40)"/>
          <path id="Trazado_150219" data-name="Trazado 150219" d="M5163.782,2041.656a49.209,49.209,0,0,0-1.7,5.039s-.456.652-1.322-.311-.392-.431-.392-.431l.162-4.7Z" fill="url(#linear-gradient-41)"/>
          <path id="Trazado_150220" data-name="Trazado 150220" d="M5196.16,1976.6c.357,10.182.372,21.243-.152,33.06-.59,13.307-1.775,25.606-3.269,36.755-.556.02-1.139.023-1.749,0-.412-.013-.811-.036-1.2-.065a92.051,92.051,0,0,1-2.512-8.983,95.394,95.394,0,0,1-1.754-10.519c-1.306-11.532.224-12.538-.836-21.084-.938-7.569-2.273-7.864-3.839-18.61-1.7-11.66-.435-13.409.181-14.041C5183.653,1970.426,5189.807,1972.257,5196.16,1976.6Z" fill="url(#linear-gradient-42)"/>
          <path id="Trazado_150221" data-name="Trazado 150221" d="M5181.034,1973.116c2.5-2.566,8.212-1.013,14.247,2.9-6.942,8.386-7.7,13.827-6.867,17.357.941,3.99,3.8,5.139,3.79,9.5-.014,5.361-4.341,6.781-4.249,12.455.061,3.751,1.962,3.712,2.411,8.346.532,5.482-1.953,7.371-1.148,11.427a11.068,11.068,0,0,0,4.148,6.375c-.2,1.665-.411,3.314-.628,4.932-.555.019-1.138.023-1.748,0-.412-.013-.811-.036-1.2-.065a92.051,92.051,0,0,1-2.512-8.983,95.394,95.394,0,0,1-1.754-10.519c-1.306-11.532.224-12.538-.836-21.084-.938-7.569-2.273-7.864-3.839-18.61C5179.153,1975.5,5180.418,1973.748,5181.034,1973.116Z" opacity="0.3" fill="url(#linear-gradient-43)" style="mix-blend-mode: multiply;isolation: isolate"/>
          <path id="Trazado_150222" data-name="Trazado 150222" d="M5191.859,1976.428a237.7,237.7,0,0,0-18.192,36.521,246.824,246.824,0,0,0-9.839,30.56,3.324,3.324,0,0,1-2,.346,3.657,3.657,0,0,1-2.267-1.369,73.56,73.56,0,0,1-.52-16.234,61.931,61.931,0,0,1,2.042-12.2c1.65-5.952,2.785-6.287,4.938-12.584,2.235-6.536,1.694-8.167,3.834-16.346a116.4,116.4,0,0,1,4.779-14.341Z" fill="url(#linear-gradient-44)"/>
          <path id="Trazado_150223" data-name="Trazado 150223" d="M5203.071,1911.951a6.006,6.006,0,0,0-7.962,1.033c-2.282,2.461-2.422,6.131-5.143,8.325-3.633,2.93-8.367,2.365-11.57,1.982-7.715-.922-9.719-5.248-13.315-3.755-4.5,1.871-3.372,9.5-7.951,10.923-3.06.951-4.477-2.173-8.769-2.233-5.043-.071-9.695,4.151-11.882,8.574-4,8.083-.435,18.191,4.264,23.844,3.861,4.645,11.091,9.414,15.88,7.086,3.783-1.839,4.051-7.138,7.588-7.342,2.515-.145,3.148,2.49,6.315,3.263,5.2,1.27,10.175-4.2,11.532-5.7,3.868-4.256,2.707-6.232,7.207-14.1a52.484,52.484,0,0,1,8.769-11.972c5-4.961,7.571-5.033,8.551-8.767.861-3.283.214-7.466-2.13-9.993A7.648,7.648,0,0,0,5203.071,1911.951Z" fill="url(#linear-gradient-45)"/>
          <path id="Trazado_150224" data-name="Trazado 150224" d="M5248.46,1934.972s1.679-.929,2.817-1.672a45.249,45.249,0,0,1,5.523-2.262s.005.575-.994,1.016-2.959,1.077-2.907,1.767.7,1.584-.419,2.3-1.883-.5-2.835.053-1.953,1.174-1.953,1.174Z" fill="url(#linear-gradient-46)"/>
          <path id="Trazado_150225" data-name="Trazado 150225" d="M5248.506,1933.865q.2,2.21.394,4.418a41.01,41.01,0,0,1-8.3,6.964,37.919,37.919,0,0,1-13.283,5.194c-9.015,1.584-23.408.211-24.566-6.6-1.034-6.078,6.4-13.868,8.217-15.226,3.571,1.755,6.516,4.945,10.434,7.2a23.806,23.806,0,0,0,9.2,3.152C5239.018,1939.933,5246.027,1935.574,5248.506,1933.865Z" fill="url(#linear-gradient-47)"/>
          <path id="Trazado_150226" data-name="Trazado 150226" d="M5215.212,1933.206c-.375,1.885-6.24.874-7.45,4.3-.649,1.837.73,3,.787,6.122.065,3.491-1.6,5.474-2.876,8.221-1.869,4.023-1.876,7.967-1.89,15.853-.02,11.227,2.462,13.484.344,17.1-2.759,4.71-9.382,5.011-11.172,5.092-6.122.279-6.848-2.974-13.491-3.362-7.587-.444-8.667,3.68-14.093,1.921-4.957-1.606-6.625-5.88-10.484-4.995-2.412.552-3.052,2.518-5.328,2.3a5.707,5.707,0,0,1-4.812-4.8c-.2-2.889,2.957-6.527,7.906-6.533a14.064,14.064,0,0,0,8.851.673c5.94-1.628,9.029-7.276,12.46-13.548,2.374-4.338,6.737-12.313,6.789-22.77.021-4.313-.708-5.574.344-7.879,3.413-7.485,16.655-6.368,17.777-6.26C5207.9,1925.51,5215.665,1930.929,5215.212,1933.206Z" fill="url(#linear-gradient-48)"/>
          <g id="Grupo_94222" data-name="Grupo 94222">
            <path id="Trazado_150227" data-name="Trazado 150227" d="M5218.17,1942.625l-16.633.726a.457.457,0,0,0-.405.331l-7.835,24.3c-.113.349.24,1.221.569,1.181l16.445-2.5a.46.46,0,0,0,.371-.319l8.152-22.685C5218.95,1943.326,5218.492,1942.611,5218.17,1942.625Z" fill="url(#linear-gradient-49)"/>
            <path id="Trazado_150228" data-name="Trazado 150228" d="M5218.428,1943.22l-16.633.726a.457.457,0,0,0-.4.331l-7.835,24.3a.489.489,0,0,0,.47.669l16.544-1.989a.46.46,0,0,0,.371-.319l7.925-23.041A.5.5,0,0,0,5218.428,1943.22Z" fill="url(#linear-gradient-50)"/>
            <path id="Trazado_150229" data-name="Trazado 150229" d="M5213.88,1944.125l.641-1.937a.266.266,0,0,0-.225-.361h-6.054a.245.245,0,0,0-.229.187l-.608,2.143a.263.263,0,0,0,.235.349l6.023-.206A.242.242,0,0,0,5213.88,1944.125Z" fill="url(#linear-gradient-51)"/>
            <path id="Trazado_150230" data-name="Trazado 150230" d="M5203.641,1963.367c1.08-3.917-.7-6.468,1.117-9.512,2.567-4.306,8.082-2.483,9.8-5.958a6.117,6.117,0,0,0,.06-4.511l3.814-.166a.5.5,0,0,1,.437.682l-7.925,23.04a.46.46,0,0,1-.371.319l-10.055,1.209A11.216,11.216,0,0,0,5203.641,1963.367Z" opacity="0.3" fill="url(#linear-gradient-52)" style="mix-blend-mode: multiply;isolation: isolate"/>
          </g>
          <path id="Trazado_150231" data-name="Trazado 150231" d="M5191.494,1960.456a13.666,13.666,0,0,0,3.483-1.241c.97-.683,2-1.779,3.427-1.719s2.867.872,2.207,1.059-1.893,1.65-2.836,2.227a8.183,8.183,0,0,1-3.5.6,7.789,7.789,0,0,0-1.983,1.033Z" fill="url(#linear-gradient-53)"/>
          <path id="Trazado_150232" data-name="Trazado 150232" d="M5204.858,1979.95c-1.124,1.2-10.368-5.625-12.332-4.806,1.12-3.974-5.271-6.884-5.028-12.826.2-4.952,4.8-6.884,3.867-10.088-.866-2.971-5.021-2.012-6.7-5.477-1.755-3.618,1.617-7.047.9-11.241-.294-1.724-1.3-3.686-3.892-5.646a7.961,7.961,0,0,0-.576,1.034c-1.052,2.3-.323,3.566-.344,7.879-.052,10.457-4.415,18.432-6.789,22.77-3.431,6.272-6.521,11.92-12.46,13.548a14.064,14.064,0,0,1-8.851-.673c-4.949.006-8.106,3.644-7.906,6.533a5.707,5.707,0,0,0,4.812,4.8c2.276.213,2.916-1.753,5.328-2.3,3.859-.885,5.527,3.389,10.484,4.995,5.426,1.759,6.506-2.365,14.093-1.921,6.643.388,7.369,3.641,13.491,3.362,1.79-.081,8.413-.382,11.172-5.092A6.848,6.848,0,0,0,5204.858,1979.95Z" opacity="0.3" fill="url(#linear-gradient-54)" style="mix-blend-mode: multiply;isolation: isolate"/>
          <path id="Trazado_150233" data-name="Trazado 150233" d="M5191.559,1959.291q1.159,2.307,2.32,4.612c-1.192.653-13.94,7.4-23.18.721a15.828,15.828,0,0,1-5.816-7.315c-1.8-4.735-.792-9.138-.135-12,1.625-7.078,6.22-14.5,12.739-17.486a37.316,37.316,0,0,1,8.228-2.259c2.359-.459,6.066-1.023,6.145-.624.038.195-.823.444-1.421.822-3.674,2.323.99,11.919-3.327,16.52-4.136,4.408-9.5,3.68-10.369,7.675a6.543,6.543,0,0,0,.8,4.273C5179.614,1958.386,5185.184,1960.244,5191.559,1959.291Z" fill="url(#linear-gradient-55)"/>
          <path id="Trazado_150234" data-name="Trazado 150234" d="M5200.211,1917.739s-1.5,4.866-3.361,5.624-4.812,1.627-5.183,1.965,9.907,4.067,15.668,2.35h0c-1.641-.8-2.081-1.06-2.081-1.06a9.879,9.879,0,0,1-2.023-1.494,8.594,8.594,0,0,1-1.955-3.078l.538-2.763Z" fill="url(#linear-gradient-56)"/>
          <path id="Trazado_150235" data-name="Trazado 150235" d="M5199.539,1919.864s.868,2.156,2.926,1.825c1.842-.3,1.748-5.478.5-6.361a2.224,2.224,0,0,0-1.894-.149,3.118,3.118,0,0,0-1.465,3.152c-.406-.242-.81-.2-.95.013-.178.275.11.775.176.888A1.52,1.52,0,0,0,5199.539,1919.864Z" fill="url(#linear-gradient-57)"/>
        </g>
      </g>
      <g id="Grupo_94227" data-name="Grupo 94227">
        <g id="Grupo_94225" data-name="Grupo 94225">
          <path id="Trazado_150236" data-name="Trazado 150236" d="M5361.235,1953.367a2.771,2.771,0,0,1-1.679-.551l-46.279-34.671a2.953,2.953,0,0,1-1.158-1.994,3.278,3.278,0,0,1,.684-2.437l20.673-26.341,49.91,39.55-19.614,25.175a3.269,3.269,0,0,1-2.537,1.269Z" fill="url(#linear-gradient-58)"/>
          <path id="Trazado_150237" data-name="Trazado 150237" d="M5333.69,1889.2l-19.864,25.311a1.812,1.812,0,0,0,.231,2.589l46.278,34.671a1.776,1.776,0,0,0,2.414-.48l18.817-23.978Z" fill="#fff"/>
          <path id="Trazado_150238" data-name="Trazado 150238" d="M5383.588,1923.965l-46.953-37.618a1.872,1.872,0,0,0-2.64.364l-2.035,2.593,49.87,39.6,1.928-2.457A1.776,1.776,0,0,0,5383.588,1923.965Z" fill="url(#linear-gradient-59)"/>
          <path id="Trazado_150239" data-name="Trazado 150239" d="M5336.78,1889.538a.817.817,0,0,1-1.145.183.834.834,0,0,1-.087-1.166.817.817,0,0,1,1.146-.183A.832.832,0,0,1,5336.78,1889.538Z" fill="#fff"/>
        </g>
        <g id="Grupo_94226" data-name="Grupo 94226">
          <path id="Trazado_150240" data-name="Trazado 150240" d="M5325.024,1920.1l-3.576-2.7,14.809-18.87,3.519,2.772Z" opacity="0.2" fill="url(#linear-gradient-58)" style="mix-blend-mode: multiply;isolation: isolate"/>
          <path id="Trazado_150241" data-name="Trazado 150241" d="M5325.024,1920.1l-3.576-2.7,7.031-8.959,3.548,2.734Z" fill="url(#linear-gradient-61)"/>
          <path id="Trazado_150242" data-name="Trazado 150242" d="M5329.953,1923.816l-3.537-2.67,14.729-18.768,3.48,2.743Z" opacity="0.2" fill="url(#linear-gradient-58)" style="mix-blend-mode: multiply;isolation: isolate"/>
          <path id="Trazado_150243" data-name="Trazado 150243" d="M5329.953,1923.816l-3.537-2.67,3.5-4.455,3.524,2.687Z" fill="url(#linear-gradient-63)"/>
          <path id="Trazado_150244" data-name="Trazado 150244" d="M5334.829,1927.5l-3.5-2.642,14.65-18.667,3.443,2.713Z" opacity="0.2" fill="url(#linear-gradient-58)" style="mix-blend-mode: multiply;isolation: isolate"/>
          <path id="Trazado_150245" data-name="Trazado 150245" d="M5334.829,1927.5l-3.5-2.642,1.826-2.327,3.493,2.651Z" fill="url(#linear-gradient-65)"/>
          <path id="Trazado_150246" data-name="Trazado 150246" d="M5339.653,1931.139l-3.462-2.614,14.572-18.568,3.406,2.685Z" opacity="0.2" fill="url(#linear-gradient-58)" style="mix-blend-mode: multiply;isolation: isolate"/>
          <path id="Trazado_150247" data-name="Trazado 150247" d="M5339.653,1931.139l-3.462-2.614,11.416-14.546,3.418,2.669Z" fill="url(#linear-gradient-67)"/>
          <path id="Trazado_150248" data-name="Trazado 150248" d="M5344.426,1934.742l-3.426-2.586,14.5-18.469,3.37,2.656Z" opacity="0.2" fill="url(#linear-gradient-58)" style="mix-blend-mode: multiply;isolation: isolate"/>
          <path id="Trazado_150249" data-name="Trazado 150249" d="M5344.426,1934.742l-3.426-2.586,10.065-12.824,3.387,2.635Z" fill="url(#linear-gradient-69)"/>
          <path id="Trazado_150250" data-name="Trazado 150250" d="M5349.149,1938.307l-3.39-2.559,14.418-18.372,3.335,2.628Z" opacity="0.2" fill="url(#linear-gradient-58)" style="mix-blend-mode: multiply;isolation: isolate"/>
          <path id="Trazado_150251" data-name="Trazado 150251" d="M5349.149,1938.307l-3.39-2.559,12.322-15.7,3.343,2.618Z" fill="url(#linear-gradient-71)"/>
          <path id="Trazado_150252" data-name="Trazado 150252" d="M5353.823,1941.835l-3.354-2.532,14.342-18.275,3.3,2.6Z" opacity="0.2" fill="url(#linear-gradient-58)" style="mix-blend-mode: multiply;isolation: isolate"/>
          <path id="Trazado_150253" data-name="Trazado 150253" d="M5353.823,1941.835l-3.354-2.532,8.81-11.225,3.321,2.574Z" fill="url(#linear-gradient-73)"/>
          <path id="Trazado_150254" data-name="Trazado 150254" d="M5358.448,1945.327l-3.319-2.506,14.268-18.18,3.266,2.574Z" opacity="0.2" fill="url(#linear-gradient-58)" style="mix-blend-mode: multiply;isolation: isolate"/>
          <path id="Trazado_150255" data-name="Trazado 150255" d="M5358.448,1945.327l-3.319-2.506,4.954-6.312,3.3,2.529Z" fill="url(#linear-gradient-75)"/>
        </g>
      </g>
      <g id="Grupo_94233" data-name="Grupo 94233">
        <g id="Grupo_94231" data-name="Grupo 94231">
          <g id="Grupo_94230" data-name="Grupo 94230">
            <path id="Trazado_150256" data-name="Trazado 150256" d="M5232.462,1982.442c-4.085-7.79-.087-17.639,8.617-21.848a17.838,17.838,0,0,1,14.7-.568v0c.027.011.054.024.081.036.075.032.15.067.224.1q.206.093.407.19l.238.119q.2.1.39.206c.074.04.148.08.221.122.147.083.291.169.434.257.052.032.1.062.156.094.191.121.38.246.565.375.049.034.1.07.145.105.137.1.273.2.407.3.065.05.129.1.194.153.115.092.23.186.342.281l.195.168c.113.1.225.2.335.3.057.054.115.107.172.162.135.132.268.266.4.4.027.029.056.056.083.085.155.166.306.337.454.511.043.051.085.1.128.156q.156.189.306.384c.05.066.1.134.149.2.09.122.178.245.264.37.048.07.1.141.144.212.088.133.173.269.257.406.039.064.079.127.117.191.12.2.235.407.346.617a15.162,15.162,0,0,1-1.4,15.737q-.456.654-.977,1.275-.26.311-.537.612a18.849,18.849,0,0,1-4.658,3.676h0c-.248.14-.5.272-.749.4-.085.043-.171.082-.256.123-.167.082-.335.164-.5.24-.1.047-.207.09-.311.134-.152.066-.3.132-.457.193-.112.045-.224.087-.337.129-.146.056-.292.111-.439.162-.117.041-.234.08-.352.119-.143.047-.286.093-.43.137-.12.036-.241.071-.361.1-.143.04-.285.078-.427.115-.122.031-.245.061-.367.09-.142.033-.284.064-.427.094-.122.026-.245.052-.367.075-.046.008-.091.019-.136.027v0C5242.547,1991.221,5235.611,1988.448,5232.462,1982.442Z" fill="url(#linear-gradient-76)"/>
            <g id="Grupo_94229" data-name="Grupo 94229">
              <path id="Trazado_150257" data-name="Trazado 150257" d="M5263.928,1965.947c4.074,7.77.118,17.608-8.529,21.824-8.324,4.059-17.931,1.36-21.734-5.894s-.57-16.712,7.489-21.277C5249.524,1955.858,5259.854,1958.176,5263.928,1965.947Z" fill="url(#linear-gradient-77)"/>
              <g id="Grupo_94228" data-name="Grupo 94228" opacity="0.3" style="mix-blend-mode: multiply;isolation: isolate">
                <path id="Trazado_150258" data-name="Trazado 150258" d="M5257.33,1982.448c-3.981-3.1-4.084-7.838-7.947-9.14-3.88-1.307-5.81,2.829-10.317,2.518-1.724-.119-3.968-.9-6.692-3.506a14.3,14.3,0,0,0,1.291,9.557c3.8,7.254,13.41,9.953,21.734,5.894a18.872,18.872,0,0,0,5.1-3.635A10.562,10.562,0,0,1,5257.33,1982.448Z" fill="url(#linear-gradient-78)"/>
              </g>
            </g>
          </g>
        </g>
        <g id="Grupo_94232" data-name="Grupo 94232">
          <path id="Trazado_150259" data-name="Trazado 150259" d="M5260.264,1973.144l-8.374-3.768a.276.276,0,0,0-.388.246l-.1,5.279-7.887-3.549a.275.275,0,0,0-.388.246l-.226,12.551c0,.1,0,.118.091.168s.148-.031.233-.085l8-5.071,4.1-2.6,4.866-3.085c.086-.054.184-.074.176-.175S5260.356,1973.185,5260.264,1973.144Z" fill="#fff"/>
          <path id="Trazado_150260" data-name="Trazado 150260" d="M5252.06,1963.038a2.8,2.8,0,1,1-3.86-.865A2.8,2.8,0,0,1,5252.06,1963.038Z" fill="#fff"/>
        </g>
      </g>
      <g id="Grupo_94240" data-name="Grupo 94240">
        <g id="Grupo_94238" data-name="Grupo 94238">
          <g id="Grupo_94237" data-name="Grupo 94237">
            <g id="Grupo_94236" data-name="Grupo 94236">
              <path id="Trazado_150261" data-name="Trazado 150261" d="M5286.411,1863.111c2.629-7.34,11.451-10.644,19.42-7.494a15.806,15.806,0,0,1,9.193,9.245l0,0,.024.074c.024.069.046.139.069.208.042.126.082.252.12.38.023.075.044.15.065.225q.053.189.1.379c.018.072.037.145.054.217.033.145.064.291.092.437.011.053.023.106.032.159.037.2.068.4.095.593.007.052.012.1.019.158.018.148.035.3.048.444.007.073.011.146.017.219.009.131.017.261.022.392,0,.076.006.152.008.228,0,.134,0,.267,0,.4,0,.07,0,.14,0,.21,0,.167-.013.334-.024.5,0,.035,0,.07-.006.1q-.023.3-.06.6c-.008.059-.018.118-.026.177-.02.143-.041.286-.066.43-.013.072-.027.145-.042.218-.025.132-.053.263-.083.394-.016.074-.033.147-.052.221-.034.137-.071.274-.11.411-.018.064-.035.128-.054.192q-.09.3-.195.6a13.436,13.436,0,0,1-11.1,8.535q-.7.1-1.417.129c-.24.011-.48.016-.722.017a16.731,16.731,0,0,1-5.193-.832h0q-.36-.117-.711-.249c-.079-.03-.155-.062-.234-.093-.154-.06-.307-.12-.459-.185-.092-.039-.182-.081-.274-.121-.134-.06-.268-.12-.4-.183-.1-.046-.191-.094-.286-.142-.124-.062-.248-.125-.369-.189q-.146-.078-.289-.159-.176-.1-.348-.2c-.1-.057-.191-.114-.285-.173-.111-.068-.222-.138-.331-.209-.094-.061-.187-.122-.279-.185q-.16-.109-.318-.222-.135-.1-.269-.195c-.033-.024-.067-.047-.1-.072l0,0C5286.739,1874.957,5284.385,1868.769,5286.411,1863.111Z" fill="url(#linear-gradient-79)"/>
              <g id="Grupo_94235" data-name="Grupo 94235">
                <path id="Trazado_150262" data-name="Trazado 150262" d="M5316.054,1873.73c-2.622,7.321-11.412,10.646-19.351,7.538-7.643-2.993-11.649-10.878-9.2-17.712s10.556-10.4,18.37-7.887C5313.988,1858.282,5318.676,1866.41,5316.054,1873.73Z" fill="url(#linear-gradient-80)"/>
                <g id="Grupo_94234" data-name="Grupo 94234" opacity="0.3" style="mix-blend-mode: multiply;isolation: isolate">
                  <path id="Trazado_150263" data-name="Trazado 150263" d="M5301.333,1879.332c-.368-4.457,2.661-7.368,1.191-10.668s-5.332-2.092-7.835-5.218c-.957-1.2-1.795-3.127-1.729-6.468a12.678,12.678,0,0,0-5.458,6.578c-2.448,6.834,1.558,14.719,9.2,17.712a16.718,16.718,0,0,0,5.434,1.146A9.358,9.358,0,0,1,5301.333,1879.332Z" fill="url(#linear-gradient-81)"/>
                </g>
              </g>
            </g>
          </g>
        </g>
        <g id="Grupo_94239" data-name="Grupo 94239">
          <path id="Trazado_150264" data-name="Trazado 150264" d="M5312.488,1868.8l-.422-.1a5.174,5.174,0,0,0-.121-1.072l.415-.133a.386.386,0,0,0,.233-.511l-.268-.736a.427.427,0,0,0-.52-.271l-.437.138a5.682,5.682,0,0,0-.622-.9l.3-.356a.422.422,0,0,0-.058-.582l-.593-.531a.4.4,0,0,0-.572.018l-.311.366a5.511,5.511,0,0,0-.958-.5l.079-.494a.452.452,0,0,0-.34-.5l-.763-.18a.379.379,0,0,0-.471.31l-.078.495a5.013,5.013,0,0,0-1.05.028l-.18-.483a.445.445,0,0,0-.535-.28l-.728.226a.389.389,0,0,0-.237.521l.178.473a4.651,4.651,0,0,0-.872.559l-.376-.33a.41.41,0,0,0-.585.019l-.491.574a.424.424,0,0,0,.065.59l.359.314a4.688,4.688,0,0,0-.454.961l-.439-.1a.383.383,0,0,0-.475.312l-.117.765a.451.451,0,0,0,.35.5l.414.092a5.225,5.225,0,0,0,.107,1.113l-.373.118a.387.387,0,0,0-.236.519l.286.742a.444.444,0,0,0,.538.27l.353-.113a5.665,5.665,0,0,0,.659.953l-.228.268a.414.414,0,0,0,.064.58l.606.52a.409.409,0,0,0,.578-.027l.219-.257a5.519,5.519,0,0,0,1.033.52l-.053.335a.437.437,0,0,0,.341.485l.759.162a.382.382,0,0,0,.465-.311l.054-.335a4.951,4.951,0,0,0,1.112-.057l.124.329a.426.426,0,0,0,.523.262l.71-.232a.385.385,0,0,0,.233-.509l-.127-.341a4.747,4.747,0,0,0,.884-.607l.285.25a.4.4,0,0,0,.566-.027l.477-.562a.414.414,0,0,0-.057-.573l-.3-.263a4.788,4.788,0,0,0,.427-.974l.4.089a.376.376,0,0,0,.46-.308l.122-.746A.435.435,0,0,0,5312.488,1868.8Zm-5.982,2.657a3.341,3.341,0,0,1-2.587-3.7,2.863,2.863,0,0,1,3.544-2.341,3.339,3.339,0,0,1,2.55,3.709A2.864,2.864,0,0,1,5306.506,1871.452Z" fill="#fff"/>
          <path id="Trazado_150265" data-name="Trazado 150265" d="M5300.556,1870.507l-.311-.067a3.731,3.731,0,0,0-.1-.773l.3-.1a.275.275,0,0,0,.167-.368l-.2-.529a.317.317,0,0,0-.384-.194l-.32.1a4.153,4.153,0,0,0-.464-.642l.219-.257a.3.3,0,0,0-.048-.418l-.439-.379a.3.3,0,0,0-.42.016l-.225.263a4.117,4.117,0,0,0-.705-.353l.053-.354a.324.324,0,0,0-.253-.356l-.559-.126a.275.275,0,0,0-.342.223l-.053.355a3.83,3.83,0,0,0-.767.024l-.136-.345a.326.326,0,0,0-.392-.2l-.53.165a.275.275,0,0,0-.168.373l.133.338a3.423,3.423,0,0,0-.633.4l-.276-.235a.3.3,0,0,0-.426.015l-.354.413a.3.3,0,0,0,.052.422l.263.223a3.335,3.335,0,0,0-.324.69l-.321-.07a.278.278,0,0,0-.344.225l-.08.548a.326.326,0,0,0,.258.355l.3.065a3.666,3.666,0,0,0,.086.8l-.272.085a.275.275,0,0,0-.168.373l.213.532a.328.328,0,0,0,.394.193l.257-.082a4.159,4.159,0,0,0,.487.684l-.165.193a.3.3,0,0,0,.051.417l.447.373a.3.3,0,0,0,.422-.02l.159-.185a4.018,4.018,0,0,0,.759.373l-.036.242a.318.318,0,0,0,.253.349l.558.116a.276.276,0,0,0,.339-.224l.036-.241a3.685,3.685,0,0,0,.816-.042l.093.238a.32.32,0,0,0,.387.189l.52-.168a.275.275,0,0,0,.167-.368l-.1-.246a3.354,3.354,0,0,0,.645-.438l.212.18a.3.3,0,0,0,.416-.02l.347-.406a.3.3,0,0,0-.047-.413l-.223-.19a3.389,3.389,0,0,0,.306-.7l.293.064a.275.275,0,0,0,.337-.223l.082-.538A.317.317,0,0,0,5300.556,1870.507Zm-4.371,1.923a2.425,2.425,0,0,1-1.919-2.656,2.077,2.077,0,0,1,2.573-1.689,2.423,2.423,0,0,1,1.9,2.659A2.077,2.077,0,0,1,5296.185,1872.43Z" fill="#fff"/>
        </g>
      </g>
    </g>
  </g>
</svg>
