<svg id="Grupo_84060" data-name="Grupo 84060" xmlns="http://www.w3.org/2000/svg" width="315.648" height="136.568" viewBox="0 0 315.648 136.568">
  <g id="Grupo_84043" data-name="Grupo 84043" transform="translate(264.423 119.703)">
    <g id="Grupo_84040" data-name="Grupo 84040" transform="translate(0 0)">
      <g id="Grupo_84039" data-name="Grupo 84039" transform="translate(0.486 11.778)">
        <path id="Trazado_147516" data-name="Trazado 147516" d="M345,211.238l-3.914,2.088,1.957-5.088" transform="translate(-341.087 -208.237)" fill="#7762ef"/>
      </g>
      <path id="Trazado_147517" data-name="Trazado 147517" d="M357.211,206.3a8.273,8.273,0,1,1-8.273-8.273A8.273,8.273,0,0,1,357.211,206.3Z" transform="translate(-340.665 -198.027)" fill="#7762ef"/>
    </g>
    <g id="Grupo_84042" data-name="Grupo 84042" transform="translate(3.415 2.718)">
      <g id="Grupo_84041" data-name="Grupo 84041" transform="translate(3.312)">
        <path id="Trazado_147518" data-name="Trazado 147518" d="M346.564,209.9c1.8.031,3.628.055,5.286-.06.525-.036.978-.87.34-1.133a1.182,1.182,0,0,0,.657-.571.564.564,0,0,0-.318-.745c.625.155.871-.837.383-1.158a1.461,1.461,0,0,0,.528-.844.849.849,0,0,0-.381-.875,1.363,1.363,0,0,0-.651-.112l-2.249-.017a5.184,5.184,0,0,0-.332-3.482c-.179-.31-.662-.682-1.045-.443-.359.224-.258.78-.241,1.132a3.962,3.962,0,0,1-2.045,3.615S346.582,208.314,346.564,209.9Z" transform="translate(-346.497 -200.383)" fill="#fefefe"/>
      </g>
      <rect id="Rectángulo_32346" data-name="Rectángulo 32346" width="2.725" height="4.69" transform="translate(0 4.823)" fill="#fefefe"/>
    </g>
  </g>
  <g id="Grupo_84048" data-name="Grupo 84048" transform="translate(228.685 3.787)" opacity="0.3">
    <g id="Grupo_84045" data-name="Grupo 84045">
      <g id="Grupo_84044" data-name="Grupo 84044" transform="translate(0.745 18.04)">
        <path id="Trazado_147519" data-name="Trazado 147519" d="M316.324,117.773l-6,3.2,3-7.794" transform="translate(-310.328 -113.176)" fill="#5c37d4"/>
      </g>
      <circle id="Elipse_4229" data-name="Elipse 4229" cx="12.672" cy="12.672" r="12.672" fill="#5c37d4"/>
    </g>
    <g id="Grupo_84047" data-name="Grupo 84047" transform="translate(5.231 4.162)">
      <g id="Grupo_84046" data-name="Grupo 84046" transform="translate(5.074)">
        <path id="Trazado_147520" data-name="Trazado 147520" d="M318.718,115.723c2.761.047,5.557.085,8.1-.091.8-.055,1.5-1.332.523-1.736a1.806,1.806,0,0,0,1.007-.874.864.864,0,0,0-.489-1.141c.959.238,1.336-1.283.588-1.773a2.241,2.241,0,0,0,.809-1.3,1.3,1.3,0,0,0-.583-1.339,2.094,2.094,0,0,0-1-.172l-3.445-.025a7.95,7.95,0,0,0-.509-5.335c-.276-.475-1.015-1.045-1.6-.679-.55.344-.4,1.2-.37,1.734a6.067,6.067,0,0,1-3.132,5.537S318.746,113.294,318.718,115.723Z" transform="translate(-318.616 -101.145)" fill="#fefefe"/>
      </g>
      <rect id="Rectángulo_32347" data-name="Rectángulo 32347" width="4.174" height="7.184" transform="translate(0 7.387)" fill="#fefefe"/>
    </g>
  </g>
  <g id="Grupo_84053" data-name="Grupo 84053" transform="translate(0 42.051)" opacity="0.3">
    <g id="Grupo_84050" data-name="Grupo 84050">
      <g id="Grupo_84049" data-name="Grupo 84049" transform="translate(13.49 13.082)">
        <path id="Trazado_147521" data-name="Trazado 147521" d="M123.124,145.383l4.348,2.319L125.3,142.05" transform="translate(-123.124 -142.05)" fill="#5c37d4"/>
      </g>
      <circle id="Elipse_4230" data-name="Elipse 4230" cx="9.189" cy="9.189" r="9.189" fill="#5c37d4"/>
    </g>
    <g id="Grupo_84052" data-name="Grupo 84052" transform="translate(3.18 3.019)">
      <g id="Grupo_84051" data-name="Grupo 84051">
        <path id="Trazado_147522" data-name="Trazado 147522" d="M121.837,143.9c-2,.035-4.03.062-5.871-.066-.584-.04-1.087-.967-.378-1.258a1.312,1.312,0,0,1-.73-.634.625.625,0,0,1,.354-.827c-.694.172-.969-.931-.427-1.286a1.631,1.631,0,0,1-.586-.939.942.942,0,0,1,.423-.971,1.494,1.494,0,0,1,.721-.125l2.5-.018a5.773,5.773,0,0,1,.369-3.869c.2-.345.736-.758,1.162-.493.4.248.287.866.268,1.256a4.4,4.4,0,0,0,2.271,4.016S121.816,142.135,121.837,143.9Z" transform="translate(-114.186 -133.326)" fill="#fefefe"/>
      </g>
      <rect id="Rectángulo_32348" data-name="Rectángulo 32348" width="3.027" height="5.21" transform="translate(11.404 10.567) rotate(180)" fill="#fefefe"/>
    </g>
  </g>
  <g id="Grupo_84056" data-name="Grupo 84056" transform="translate(73.023)" opacity="0.3">
    <g id="Grupo_84055" data-name="Grupo 84055">
      <g id="Grupo_84054" data-name="Grupo 84054" transform="translate(18.908 18.336)">
        <path id="Trazado_147523" data-name="Trazado 147523" d="M191.126,114.822l6.094,3.25-3.047-7.922" transform="translate(-191.126 -110.15)" fill="#5c37d4"/>
      </g>
      <circle id="Elipse_4231" data-name="Elipse 4231" cx="12.88" cy="12.88" r="12.88" fill="#5c37d4"/>
    </g>
    <path id="Trazado_147524" data-name="Trazado 147524" d="M181.318,102.489a3.142,3.142,0,0,1,4.447.047l.8.818.825-.812a3.144,3.144,0,1,1,4.412,4.481l-3.059,3.013-.016.021a3.146,3.146,0,0,1-4.448-.047l-3.008-3.073A3.145,3.145,0,0,1,181.318,102.489Z" transform="translate(-173.869 -93.127)" fill="#fff"/>
  </g>
  <g id="Grupo_84059" data-name="Grupo 84059" transform="translate(297.661 94.446)" opacity="0.3">
    <g id="Grupo_84058" data-name="Grupo 84058" transform="translate(0)">
      <g id="Grupo_84057" data-name="Grupo 84057" transform="translate(0.53 12.804)">
        <path id="Trazado_147525" data-name="Trazado 147525" d="M374.194,190.493l-4.255,2.269,2.128-5.532" transform="translate(-369.939 -187.231)" fill="#5c37d4"/>
      </g>
      <path id="Trazado_147526" data-name="Trazado 147526" d="M387.468,185.125a8.994,8.994,0,1,1-8.994-8.994A8.992,8.992,0,0,1,387.468,185.125Z" transform="translate(-369.48 -176.131)" fill="#5c37d4"/>
    </g>
    <path id="Trazado_147527" data-name="Trazado 147527" d="M381.627,181.882a2.193,2.193,0,0,0-3.105.032l-.559.571-.576-.566a2.2,2.2,0,1,0-3.081,3.129l2.136,2.1.012.014a2.2,2.2,0,0,0,3.105-.032l2.1-2.147A2.2,2.2,0,0,0,381.627,181.882Z" transform="translate(-368.84 -175.345)" fill="#fff"/>
  </g>
</svg>
