<svg xmlns="http://www.w3.org/2000/svg" width="85.578" height="86" viewBox="0 0 85.578 86">
  <g id="Grupo_108602" data-name="Grupo 108602" transform="translate(-210.049 -211.004)">
    <path id="Trazado_166630" data-name="Trazado 166630" d="M211.548,212.5h67.365v70.232H211.548Z" transform="translate(-0.067 -0.067)" fill="#ffe5aa"/>
    <g id="Grupo_108601" data-name="Grupo 108601" transform="translate(211.481 212.437)">
      <path id="Trazado_166631" data-name="Trazado 166631" d="M237.048,230.5H255.68v8.6H237.048Z" transform="translate(-212.681 -213.304)" fill="#8f52f5"/>
      <path id="Trazado_166632" data-name="Trazado 166632" d="M217.548,245.5h17.2V256.97h-17.2Z" transform="translate(-211.815 -213.971)" fill="#8f52f5"/>
      <path id="Trazado_166633" data-name="Trazado 166633" d="M217.548,265h17.2V276.47h-17.2Z" transform="translate(-211.815 -214.838)" fill="#8f52f5"/>
      <path id="Trazado_166634" data-name="Trazado 166634" d="M211.548,212.5h67.365v11.467H211.548Z" transform="translate(-211.548 -212.504)" fill="#ffb206"/>
    </g>
    <path id="Trazado_166635" data-name="Trazado 166635" d="M276.047,224.5h5.733v58.765h-5.733Z" transform="translate(-2.934 -0.6)" fill="#ffe5aa"/>
    <path id="Trazado_166636" data-name="Trazado 166636" d="M276.047,236.5h5.733v8.6h-5.733Z" transform="translate(-2.934 -1.133)" fill="#feb22a"/>
    <path id="Trazado_166637" data-name="Trazado 166637" d="M285.481,282.336V276.6h-3.364a8.617,8.617,0,0,0-.346-.837l2.377-2.377-4.054-4.054-.553.553-1.824,1.824q-.409-.194-.836-.346V268h-5.733v3.363q-.427.152-.837.346l-2.377-2.377-4.054,4.054,2.377,2.377a7.989,7.989,0,0,0-.346.837h-3.363v5.733h3.363a7.974,7.974,0,0,0,.346.836l-2.377,2.377,4.054,4.055.727-.73,1.65-1.648a8.621,8.621,0,0,0,.837.346v3.364h5.733v-3.364q.427-.153.836-.346l2.377,2.378,4.054-4.055-2.377-2.377a8.507,8.507,0,0,0,.346-.836Zm-11.508.041a2.867,2.867,0,1,1,2.867-2.867,2.866,2.866,0,0,1-2.867,2.867Z" transform="translate(-2.334 -2.534)" fill="gray"/>
    <path id="Trazado_166638" data-name="Trazado 166638" d="M211.482,284.1h34.4v-2.867H212.916v-55.9h61.632v-2.867H212.916v-8.6h64.5v20.067h-2.867V228.2h-2.867V254h2.867v-8.6h2.867V254h2.867V212.437A1.434,1.434,0,0,0,278.848,211H211.482a1.433,1.433,0,0,0-1.433,1.433h0v70.232a1.433,1.433,0,0,0,1.433,1.433Zm63.065-41.566V236.8h2.867v5.732Z"/>
    <path id="Trazado_166639" data-name="Trazado 166639" d="M255.615,240.47a1.433,1.433,0,0,0,1.433-1.432h0v-8.6A1.433,1.433,0,0,0,255.615,229H236.981a1.433,1.433,0,0,0-1.433,1.433h0v8.6a1.433,1.433,0,0,0,1.433,1.432h18.633Zm-17.2-8.6h15.767V237.6H238.415Z" transform="translate(-1.133 -0.8)"/>
    <path id="Trazado_166640" data-name="Trazado 166640" d="M236.115,245.436A1.433,1.433,0,0,0,234.681,244h-17.2a1.433,1.433,0,0,0-1.433,1.433h0V256.9a1.433,1.433,0,0,0,1.433,1.433h17.2a1.433,1.433,0,0,0,1.433-1.433h0Zm-2.867,10.033H218.916v-8.6h14.332Z" transform="translate(-0.267 -1.467)"/>
    <path id="Trazado_166641" data-name="Trazado 166641" d="M255.048,244h15.767v2.867H255.048Z" transform="translate(-2 -1.467)"/>
    <path id="Trazado_166642" data-name="Trazado 166642" d="M246.048,244h5.733v2.867h-5.733Z" transform="translate(-1.6 -1.467)"/>
    <path id="Trazado_166643" data-name="Trazado 166643" d="M240.048,250h30.1v2.867h-30.1Z" transform="translate(-1.333 -1.733)"/>
    <path id="Trazado_166644" data-name="Trazado 166644" d="M240.048,256h18.633v2.867H240.048Z" transform="translate(-1.333 -2)"/>
    <path id="Trazado_166645" data-name="Trazado 166645" d="M252.048,263.5h2.867v2.867h-2.867Z" transform="translate(-1.867 -2.334)"/>
    <path id="Trazado_166646" data-name="Trazado 166646" d="M243.048,263.5h5.733v2.867h-5.733Z" transform="translate(-1.467 -2.334)"/>
    <path id="Trazado_166647" data-name="Trazado 166647" d="M240.048,269.5h10.033v2.867H240.048Z" transform="translate(-1.333 -2.6)"/>
    <path id="Trazado_166648" data-name="Trazado 166648" d="M261.048,276.536v5.733a1.433,1.433,0,0,0,1.433,1.433h1.085l-.767.767a1.433,1.433,0,0,0,0,2.027h0l4.053,4.054a1.434,1.434,0,0,0,2.028,0h0l.767-.768v1.086a1.433,1.433,0,0,0,1.433,1.433h5.733a1.434,1.434,0,0,0,1.433-1.433h0v-1.085l.767.767a1.433,1.433,0,0,0,2.027,0L285.1,286.5a1.433,1.433,0,0,0,0-2.027h0l-.768-.767h1.086a1.434,1.434,0,0,0,1.433-1.433h0v-5.733a1.433,1.433,0,0,0-1.433-1.433h-1.086l.768-.767a1.434,1.434,0,0,0,0-2.028h0l-4.054-4.053a1.433,1.433,0,0,0-2.027,0h0l-.767.767v-1.086a1.434,1.434,0,0,0-1.433-1.433h-5.733a1.433,1.433,0,0,0-1.433,1.433h0v1.086l-.767-.767a1.434,1.434,0,0,0-2.028,0h0l-4.053,4.053a1.433,1.433,0,0,0,0,2.027h0l.767.767h-1.085a1.433,1.433,0,0,0-1.433,1.433Zm2.867,1.433h1.93a1.434,1.434,0,0,0,1.351-.956,6.9,6.9,0,0,1,.288-.7,1.434,1.434,0,0,0-.28-1.632l-1.364-1.364,2.027-2.027,1.364,1.364a1.434,1.434,0,0,0,1.632.28,7.1,7.1,0,0,1,.7-.288,1.434,1.434,0,0,0,.956-1.351v-1.93h2.867v1.93a1.433,1.433,0,0,0,.955,1.351,6.919,6.919,0,0,1,.7.288,1.434,1.434,0,0,0,1.632-.28l1.365-1.364,2.027,2.027-1.364,1.364a1.434,1.434,0,0,0-.28,1.632,7.366,7.366,0,0,1,.288.7,1.433,1.433,0,0,0,1.351.956h1.93v2.867h-1.93a1.432,1.432,0,0,0-1.351.955,7.159,7.159,0,0,1-.288.7,1.435,1.435,0,0,0,.279,1.632l1.365,1.365-2.027,2.027-1.365-1.364a1.434,1.434,0,0,0-1.632-.28,7.033,7.033,0,0,1-.7.288,1.433,1.433,0,0,0-.955,1.351v1.93h-2.867v-1.93a1.433,1.433,0,0,0-.956-1.351,7.125,7.125,0,0,1-.7-.288,1.434,1.434,0,0,0-1.632.28l-1.364,1.364-2.027-2.027,1.364-1.365a1.434,1.434,0,0,0,.28-1.632,6.715,6.715,0,0,1-.288-.7,1.433,1.433,0,0,0-1.351-.955h-1.93Z" transform="translate(-2.267 -2.467)"/>
    <path id="Trazado_166649" data-name="Trazado 166649" d="M274.3,284.146a4.3,4.3,0,1,0-4.3-4.3,4.3,4.3,0,0,0,4.3,4.3Zm0-5.733a1.433,1.433,0,1,1-1.433,1.433A1.433,1.433,0,0,1,274.3,278.413Z" transform="translate(-2.665 -2.869)"/>
    <path id="Trazado_166650" data-name="Trazado 166650" d="M273.686,259a20.024,20.024,0,0,0-18.528,12.349l2.646,1.1a17.2,17.2,0,0,1,33.07,6.009l-1.841-1.841-2.027,2.027,4.3,4.3a1.433,1.433,0,0,0,2.027,0h0l4.3-4.3-2.027-2.027-1.862,1.862A20.09,20.09,0,0,0,273.686,259Z" transform="translate(-2.005 -2.134)"/>
    <path id="Trazado_166651" data-name="Trazado 166651" d="M253.461,281.8a20.069,20.069,0,0,0,37.778,7.329l-2.542-1.325a17.2,17.2,0,0,1-32.327-5.774l1.717,1.717,2.028-2.027-4.3-4.3a1.434,1.434,0,0,0-2.028,0l-4.3,4.3,2.028,2.027Z" transform="translate(-1.753 -2.934)"/>
    <path id="Trazado_166652" data-name="Trazado 166652" d="M234.681,263.5h-17.2a1.433,1.433,0,0,0-1.433,1.433h0V276.4a1.433,1.433,0,0,0,1.433,1.433h17.2a1.433,1.433,0,0,0,1.433-1.433h0V264.936a1.433,1.433,0,0,0-1.433-1.433Zm-1.433,11.467H218.916v-8.6h14.332Z" transform="translate(-0.267 -2.334)"/>
    <circle id="Elipse_5042" data-name="Elipse 5042" cx="1.433" cy="1.433" r="1.433" transform="translate(215.782 216.737)"/>
    <circle id="Elipse_5043" data-name="Elipse 5043" cx="1.433" cy="1.433" r="1.433" transform="translate(221.515 216.737)"/>
    <circle id="Elipse_5044" data-name="Elipse 5044" cx="1.433" cy="1.433" r="1.433" transform="translate(227.248 216.737)"/>
  </g>
</svg>
