<svg xmlns="http://www.w3.org/2000/svg" xmlns:xlink="http://www.w3.org/1999/xlink" width="190" height="105.668" viewBox="0 0 190 105.668">
  <defs>
    <linearGradient id="linear-gradient" x1="0.5" x2="0.5" y2="1" gradientUnits="objectBoundingBox">
      <stop offset="0" stop-color="#f95d2c" stop-opacity="0"/>
      <stop offset="0.091" stop-color="#f96826" stop-opacity="0.133"/>
      <stop offset="0.283" stop-color="#fb7e1d" stop-opacity="0.392"/>
      <stop offset="0.465" stop-color="#fc9014" stop-opacity="0.612"/>
      <stop offset="0.633" stop-color="#fd9f0e" stop-opacity="0.78"/>
      <stop offset="0.784" stop-color="#fea909" stop-opacity="0.898"/>
      <stop offset="0.911" stop-color="#feaf07" stop-opacity="0.973"/>
      <stop offset="1" stop-color="#ffb206"/>
    </linearGradient>
    <linearGradient id="linear-gradient-2" x1="0.5" x2="0.5" y2="1" gradientUnits="objectBoundingBox">
      <stop offset="0" stop-color="#ea3065" stop-opacity="0"/>
      <stop offset="0.091" stop-color="#ea3065" stop-opacity="0.133"/>
      <stop offset="0.283" stop-color="#ea3065" stop-opacity="0.392"/>
      <stop offset="0.465" stop-color="#ea3065" stop-opacity="0.612"/>
      <stop offset="0.633" stop-color="#ea3065" stop-opacity="0.78"/>
      <stop offset="0.784" stop-color="#ea3065" stop-opacity="0.898"/>
      <stop offset="0.911" stop-color="#ea3065" stop-opacity="0.973"/>
      <stop offset="1" stop-color="#ea3065"/>
    </linearGradient>
  </defs>
  <g id="Grupo_108688" data-name="Grupo 108688" transform="translate(-180 -2203.7)">
    <g id="Grupo_108628" data-name="Grupo 108628" transform="translate(180 2263.035)">
      <rect id="Rect치ngulo_5242" data-name="Rect치ngulo 5242" width="12" height="46.333" transform="translate(0 0)" fill="url(#linear-gradient)"/>
    </g>
    <g id="Grupo_108629" data-name="Grupo 108629" transform="translate(370 2255.7) rotate(180)">
      <rect id="Rect치ngulo_5242-2" data-name="Rect치ngulo 5242" width="12" height="52" transform="translate(0 0)" fill="url(#linear-gradient-2)"/>
    </g>
    <g id="Grupo_108634" data-name="Grupo 108634" transform="translate(23 2001.002)">
      <g id="Grupo_108634-2" data-name="Grupo 108634">
        <path id="Trazado_166709" data-name="Trazado 166709" d="M298.547,226.883v38.756l-4.224,1.288h-73.4l-7.47-1.288V226.883a5.152,5.152,0,0,1,5.152-5.152h74.79a5.152,5.152,0,0,1,5.152,5.152Z" fill="#d7c0fd"/>
        <path id="Trazado_166710" data-name="Trazado 166710" d="M223.757,221.731a5.152,5.152,0,0,0-5.152,5.152v38.756l-1.16.993h-2.923l-1.069-.993V226.883a5.152,5.152,0,0,1,5.152-5.152Z" fill="#8f52f5"/>
        <path id="Trazado_166711" data-name="Trazado 166711" d="M247.714,268.215h16.573v23.012H247.714Z" fill="#e8edf2"/>
        <path id="Trazado_166712" data-name="Trazado 166712" d="M247.714,268.215h5.152v23.013h-5.152Z" fill="#d9e7ec"/>
        <path id="Trazado_166713" data-name="Trazado 166713" d="M275.321,294.833H236.68a3.091,3.091,0,0,1-3.091-3.091v-2.061a3.091,3.091,0,0,1,3.091-3.091h38.641a3.091,3.091,0,0,1,3.091,3.091v2.061A3.09,3.09,0,0,1,275.321,294.833Z" fill="#f5f8f9"/>
        <path id="Trazado_166714" data-name="Trazado 166714" d="M298.547,265.639v6.011a5.151,5.151,0,0,1-5.152,5.152H218.6a5.151,5.151,0,0,1-5.152-5.152v-6.011Z" fill="#f5f8f9"/>
        <path id="Trazado_166715" data-name="Trazado 166715" d="M241.832,294.834H236.68a3.091,3.091,0,0,1-3.091-3.091v-2.061a3.091,3.091,0,0,1,3.091-3.091h5.152a3.091,3.091,0,0,0-3.091,3.091v2.061A3.091,3.091,0,0,0,241.832,294.834Z" fill="#e8edf2"/>
        <path id="Trazado_166716" data-name="Trazado 166716" d="M223.757,276.8H218.6a5.151,5.151,0,0,1-5.152-5.152v-6.011H218.6v6.011A5.151,5.151,0,0,0,223.757,276.8Z" fill="#e8edf2"/>
        <path id="Trazado_166717" data-name="Trazado 166717" d="M266.733,235.2h-5.152v-7.3a5.581,5.581,0,1,0-11.162,0v7.3h-5.152v-7.3a10.733,10.733,0,1,1,21.466,0Z" fill="#685e68"/>
        <path id="Trazado_166718" data-name="Trazado 166718" d="M213.453,240.092h85.094V252.8H213.453Z" fill="#ffe177"/>
        <path id="Trazado_166719" data-name="Trazado 166719" d="M258.585,217.477a10.753,10.753,0,0,0-8.165,10.275c0,.05,0,.1,0,.148v7.3h-5.152v-7.3A10.746,10.746,0,0,1,256,217.166,10.9,10.9,0,0,1,258.585,217.477Z" fill="#554e56"/>
        <path id="Trazado_166720" data-name="Trazado 166720" d="M266.58,258.21H245.42a2.729,2.729,0,0,1-2.729-2.729V236.038a2.729,2.729,0,0,1,2.729-2.729h21.16a2.73,2.73,0,0,1,2.73,2.729v19.443a2.731,2.731,0,0,1-2.73,2.729Z" fill="#fe646f"/>
        <path id="Trazado_166721" data-name="Trazado 166721" d="M258.676,252.09h-5.352a.5.5,0,0,1-.494-.555l.791-7.042a1.052,1.052,0,0,0-.147-.654,2.928,2.928,0,1,1,5.053,0,1.055,1.055,0,0,0-.148.655l.791,7.042a.5.5,0,0,1-.494.555Z" fill="#554e56"/>
        <path id="Trazado_166722" data-name="Trazado 166722" d="M250.571,258.21h-5.152a2.729,2.729,0,0,1-2.728-2.728V236.038a2.728,2.728,0,0,1,2.728-2.729h5.152a2.728,2.728,0,0,0-2.728,2.729v19.444A2.729,2.729,0,0,0,250.571,258.21Z" fill="#fd4755"/>
        <path id="Trazado_166723" data-name="Trazado 166723" d="M213.453,240.092H218.6V252.8h-5.152Z" fill="#ffd15b"/>
      </g>
      <g id="Grupo_108635" data-name="Grupo 108635">
        <path id="Trazado_166724" data-name="Trazado 166724" d="M298.547,231.7a1.288,1.288,0,0,0,1.288-1.288v-3.651a6.447,6.447,0,0,0-6.44-6.44H265.229c-.23-.276-.472-.544-.73-.8a12.01,12.01,0,0,0-17.721.8H218.6a6.447,6.447,0,0,0-6.44,6.44v44.767a6.447,6.447,0,0,0,6.44,6.44h6.826a1.288,1.288,0,1,0,0-2.576H218.6a3.868,3.868,0,0,1-3.864-3.864V266.8h82.518v4.723a3.868,3.868,0,0,1-3.864,3.864H231.442a1.288,1.288,0,1,0,0,2.576h14.984v7.213H236.68a4.383,4.383,0,0,0-4.379,4.379v2.061A4.383,4.383,0,0,0,236.68,296h38.64a4.383,4.383,0,0,0,4.379-4.379V289.56a4.383,4.383,0,0,0-4.379-4.379h-9.746v-7.213h27.821a6.447,6.447,0,0,0,6.44-6.44V236.423a1.288,1.288,0,1,0-2.576,0v2.5H270.6v-2.765a4.023,4.023,0,0,0-2.576-3.749v-4.391a11.977,11.977,0,0,0-1.141-5.124h26.515a3.868,3.868,0,0,1,3.864,3.864v3.651a1.288,1.288,0,0,0,1.288,1.288Zm-21.424,57.86v2.061a1.805,1.805,0,0,1-1.8,1.8H236.68a1.805,1.805,0,0,1-1.8-1.8V289.56a1.805,1.805,0,0,1,1.8-1.8h38.64A1.805,1.805,0,0,1,277.123,289.56ZM263,285.181H249v-7.213h14Zm-7-66.6a9.444,9.444,0,0,1,9.445,9.445v4.122h-2.576v-4.122a6.869,6.869,0,1,0-13.738,0v4.122h-2.576v-4.122A9.456,9.456,0,0,1,256,218.576Zm-10.58,16.143h21.16a1.444,1.444,0,0,1,1.442,1.442V255.6a1.444,1.444,0,0,1-1.442,1.442H245.42a1.443,1.443,0,0,1-1.441-1.442V236.161a1.443,1.443,0,0,1,1.441-1.442Zm14.873-2.576h-8.586v-4.122a4.293,4.293,0,1,1,8.586,0ZM218.6,222.9h26.524a11.932,11.932,0,0,0-1.15,5.124v4.391a4.022,4.022,0,0,0-2.576,3.749v2.765H214.741V226.761A3.868,3.868,0,0,1,218.6,222.9Zm-3.864,18.6H241.4v10.133H214.741Zm0,22.727V254.211H241.4V255.6a4.022,4.022,0,0,0,4.017,4.018h21.16A4.023,4.023,0,0,0,270.6,255.6v-1.392h26.661v10.018ZM297.259,241.5v10.133H270.6V241.5Z"/>
        <path id="Trazado_166725" data-name="Trazado 166725" d="M253.324,253.5h5.352a1.786,1.786,0,0,0,1.774-1.987l-.781-6.955a4.216,4.216,0,1,0-7.338,0l-.78,6.949a1.787,1.787,0,0,0,1.773,1.992Zm1.267-10.18a1.64,1.64,0,1,1,2.826-.013,2.339,2.339,0,0,0-.318,1.453l.693,6.164h-3.584l.691-6.146a2.345,2.345,0,0,0-.308-1.458Z"/>
      </g>
    </g>
  </g>
</svg>
