<svg xmlns="http://www.w3.org/2000/svg" width="48.93" height="48.93" viewBox="0 0 48.93 48.93">
  <g id="Grupo_108397" data-name="Grupo 108397" transform="translate(-223.535 -223.535)">
    <path id="Trazado_165987" data-name="Trazado 165987" d="M262.693,231.427l-3.022-6.044a3.343,3.343,0,0,0-5.98,0l-3.022,6.044H223.535v41.038h48.93V231.427Zm8.194,1.578v4.735H265.85l-2.367-4.735ZM255.1,226.089a1.764,1.764,0,0,1,3.157,0l9.148,18.3a3.039,3.039,0,0,1-2.72,4.4H248.674a3.04,3.04,0,0,1-2.72-4.4Zm-5.223,6.916-2.368,4.735h-22.4v-4.735Zm-24.767,37.882V239.319h21.61l-2.181,4.362a4.62,4.62,0,0,0,4.132,6.687h16.014a4.62,4.62,0,0,0,4.132-6.687l-2.181-4.362h4.248v31.568Z" fill="#8f52f5"/>
    <path id="Trazado_165988" data-name="Trazado 165988" d="M226.692,234.584h1.578v1.578h-1.578Z" fill="#8f52f5"/>
    <path id="Trazado_165989" data-name="Trazado 165989" d="M229.849,234.584h1.578v1.578h-1.578Z" fill="#8f52f5"/>
    <path id="Trazado_165990" data-name="Trazado 165990" d="M233.005,234.584h1.579v1.578h-1.579Z" fill="#8f52f5"/>
    <path id="Trazado_165991" data-name="Trazado 165991" d="M243.03,256.007l-3.037-3.037-1.826.913-.647-1.937h-4.294l-.646,1.937-1.826-.913-3.037,3.037.914,1.827-1.939.646v4.294l1.938.645-.914,1.827,3.037,3.037,1.826-.913.646,1.938h4.295l.646-1.937,1.826.913,3.037-3.037-.914-1.827,1.939-.645V258.48l-1.938-.645Zm-.554,3.611v2.019l-1.814.605-.132.351c-.039.1-.078.2-.121.3l-.153.342.853,1.706-1.428,1.428-1.706-.854-.342.153c-.1.045-.2.083-.3.123l-.348.133-.6,1.81h-2.019l-.6-1.811-.348-.133c-.1-.04-.2-.079-.3-.122l-.342-.153-1.706.853-1.428-1.428.853-1.706-.153-.342c-.043-.1-.082-.2-.121-.3l-.132-.351-1.813-.605v-2.019l1.814-.605.132-.351c.038-.1.078-.2.121-.3l.153-.341-.854-1.706,1.428-1.428,1.706.854.342-.153c.1-.045.2-.083.3-.123l.348-.133.6-1.811h2.019l.6,1.811.348.133c.1.04.2.079.3.123l.342.153,1.706-.854,1.428,1.428-.854,1.706.153.342c.044.1.083.2.121.3l.133.351Z" fill="#8f52f5"/>
    <path id="Trazado_165992" data-name="Trazado 165992" d="M235.373,256.681a3.946,3.946,0,1,0,3.946,3.946A3.95,3.95,0,0,0,235.373,256.681Zm0,6.314a2.367,2.367,0,1,1,2.367-2.368A2.372,2.372,0,0,1,235.373,262.995Z" fill="#8f52f5"/>
    <path id="Trazado_165993" data-name="Trazado 165993" d="M242.476,240.9H226.692v9.471h15.784Zm-1.579,7.892H228.27v-6.313H240.9Z" fill="#8f52f5"/>
    <path id="Trazado_165994" data-name="Trazado 165994" d="M267.73,267.73h1.578v1.578H267.73Z" fill="#8f52f5"/>
    <path id="Trazado_165995" data-name="Trazado 165995" d="M247.211,267.73h18.94v1.578h-18.94Z" fill="#8f52f5"/>
    <path id="Trazado_165996" data-name="Trazado 165996" d="M247.211,264.573h22.1v1.578h-22.1Z" fill="#8f52f5"/>
    <path id="Trazado_165997" data-name="Trazado 165997" d="M247.211,261.416h22.1v1.579h-22.1Z" fill="#8f52f5"/>
    <path id="Trazado_165998" data-name="Trazado 165998" d="M247.211,258.26h6.313v1.578h-6.313Z" fill="#8f52f5"/>
    <path id="Trazado_165999" data-name="Trazado 165999" d="M255.1,258.26h14.205v1.578H255.1Z" fill="#8f52f5"/>
    <path id="Trazado_166000" data-name="Trazado 166000" d="M250.368,255.1h18.94v1.578h-18.94Z" fill="#8f52f5"/>
    <path id="Trazado_166001" data-name="Trazado 166001" d="M247.211,255.1h1.578v1.578h-1.578Z" fill="#8f52f5"/>
    <path id="Trazado_166002" data-name="Trazado 166002" d="M256.681,238.776a1.968,1.968,0,0,0-1.184,3.543v2.771h2.368v-2.771a1.968,1.968,0,0,0-1.184-3.543Zm.591,2.992-.2.114V244.3h-.789v-2.419l-.2-.114a1.173,1.173,0,0,1-.593-1.019,1.184,1.184,0,0,1,2.368,0A1.173,1.173,0,0,1,257.272,241.768Z" fill="#8f52f5"/>
    <path id="Trazado_166003" data-name="Trazado 166003" d="M256.681,230.884a4.346,4.346,0,0,0-4.34,4.341v3.3a5.523,5.523,0,1,0,8.681,0v-3.3A4.347,4.347,0,0,0,256.681,230.884Zm-3.551,4.341a3.551,3.551,0,1,1,7.1,0v2.483a5.5,5.5,0,0,0-.789-.552v-1.931a2.762,2.762,0,1,0-5.524,0v1.931a5.567,5.567,0,0,0-.789.551Zm5.524,0v1.554a5.445,5.445,0,0,0-3.946,0v-1.554a1.973,1.973,0,1,1,3.946,0Zm2.762,6.708a4.735,4.735,0,1,1-4.735-4.735A4.74,4.74,0,0,1,261.416,241.933Z" fill="#8f52f5"/>
  </g>
</svg>
