<svg xmlns="http://www.w3.org/2000/svg" width="179.011" height="180" viewBox="0 0 179.011 180">
  <g id="Grupo_108651" data-name="Grupo 108651" transform="translate(-553 -595)">
    <ellipse id="Elipse_5016" data-name="Elipse 5016" cx="89.506" cy="90" rx="89.506" ry="90" transform="translate(553 595)" fill="#fff"/>
    <g id="Grupo_108433" data-name="Grupo 108433" transform="translate(8899 11261)">
      <g id="Grupo_107188" data-name="Grupo 107188" transform="translate(-8512 -10832)">
        <g id="Grupo_107186" data-name="Grupo 107186">
          <g id="Grupo_107183" data-name="Grupo 107183">
            <path id="Trazado_163963" data-name="Trazado 163963" d="M299.75,269.574H263.421a1.954,1.954,0,0,0-1.953,1.953V300.61H301.7V271.527A1.954,1.954,0,0,0,299.75,269.574Z" fill="#f8f7f7"/>
            <path id="Trazado_163964" data-name="Trazado 163964" d="M301.7,296.508v4.1H261.468V271.527a1.954,1.954,0,0,1,1.953-1.953h1.563v26.153a.781.781,0,0,0,.781.781Z" fill="#e8e8e8"/>
            <path id="Trazado_163965" data-name="Trazado 163965" d="M303.851,302.036a4.7,4.7,0,0,1-4.268,2.3H263.617a4.567,4.567,0,0,1-4.091-2.537l-.532-1.071c-.107-.215-.162-.061-.162-.3a1.558,1.558,0,0,1,1.558-1.559l1.09-.2h15.027l5.176.478,4.981-.478h16.312a1.559,1.559,0,0,1,1.559,1.559v.081a1.562,1.562,0,0,1-.169.706Z" fill="#b6c4cf"/>
            <path id="Trazado_163966" data-name="Trazado 163966" d="M303.871,302l-.02.039a4.569,4.569,0,0,1-4.072,2.5H286.664l-4.971-.393-5.186.393H263.421A4.566,4.566,0,0,1,259.33,302l-.532-1.07a1.56,1.56,0,0,1,1.4-2.252h1.285l.389.783A4.566,4.566,0,0,0,265.961,302Z" fill="#9facba"/>
            <path id="Trazado_163967" data-name="Trazado 163967" d="M286.664,298.676v5.859l-5.078-.608-5.079.608v-5.859Z" fill="#9facba"/>
            <path id="Trazado_163968" data-name="Trazado 163968" d="M276.507,302h10.157v2.539H276.507Z" fill="#8d9ca8"/>
          </g>
          <g id="Grupo_107184" data-name="Grupo 107184">
            <path id="Trazado_163969" data-name="Trazado 163969" d="M248.578,269.574H212.25a1.954,1.954,0,0,0-1.954,1.953V300.61h40.235V271.527A1.954,1.954,0,0,0,248.578,269.574Z" fill="#f8f7f7"/>
            <path id="Trazado_163970" data-name="Trazado 163970" d="M250.531,296.508v4.1H210.3V271.527a1.954,1.954,0,0,1,1.954-1.953h1.562v26.153a.781.781,0,0,0,.781.781Z" fill="#e8e8e8"/>
            <path id="Trazado_163971" data-name="Trazado 163971" d="M252.679,302.036a4.7,4.7,0,0,1-4.268,2.3H212.445a4.567,4.567,0,0,1-4.091-2.537l-.532-1.071c-.107-.215-.162-.061-.162-.3a1.559,1.559,0,0,1,1.559-1.559l1.089-.2h15.028l5.175.478,4.981-.478H251.8a1.559,1.559,0,0,1,1.559,1.559v.081a1.562,1.562,0,0,1-.169.706Z" fill="#b6c4cf"/>
            <path id="Trazado_163972" data-name="Trazado 163972" d="M252.7,302l-.02.039a4.569,4.569,0,0,1-4.072,2.5H235.492l-4.971-.393-5.185.393H212.25A4.566,4.566,0,0,1,208.158,302l-.531-1.07a1.559,1.559,0,0,1,1.4-2.252h1.285l.389.783A4.566,4.566,0,0,0,214.789,302Z" fill="#9facba"/>
            <path id="Trazado_163973" data-name="Trazado 163973" d="M235.492,298.676v5.859l-5.078-.608-5.078.608v-5.859Z" fill="#9facba"/>
            <path id="Trazado_163974" data-name="Trazado 163974" d="M225.336,302h10.156v2.539H225.336Z" fill="#8d9ca8"/>
          </g>
          <path id="Trazado_163975" data-name="Trazado 163975" d="M274.173,207.465H237.845a1.953,1.953,0,0,0-1.953,1.953V238.5h40.235V209.418A1.953,1.953,0,0,0,274.173,207.465Z" fill="#f8f7f7"/>
          <path id="Trazado_163976" data-name="Trazado 163976" d="M276.127,234.4v4.1H235.892V209.418a1.953,1.953,0,0,1,1.953-1.953h1.563v26.152a.781.781,0,0,0,.781.781Z" fill="#e8e8e8"/>
          <path id="Trazado_163977" data-name="Trazado 163977" d="M278.275,239.926a4.7,4.7,0,0,1-4.268,2.3H238.04a4.567,4.567,0,0,1-4.091-2.536l-.531-1.071c-.107-.215-.163-.062-.163-.3a1.559,1.559,0,0,1,1.559-1.559l1.09-.195h15.027l5.176.477,4.98-.477H277.4a1.557,1.557,0,0,1,1.558,1.558v.082a1.542,1.542,0,0,1-.169.705Z" fill="#b6c4cf"/>
          <path id="Trazado_163978" data-name="Trazado 163978" d="M278.3,239.887l-.02.039a4.57,4.57,0,0,1-4.072,2.5H261.087l-4.97-.394-5.186.394H237.845a4.574,4.574,0,0,1-4.092-2.537l-.531-1.071a1.56,1.56,0,0,1,1.4-2.252H235.9l.389.784a4.571,4.571,0,0,0,4.091,2.537Z" fill="#9facba"/>
          <path id="Trazado_163979" data-name="Trazado 163979" d="M261.087,236.566v5.86l-5.078-.609-5.078.609v-5.86Z" fill="#9facba"/>
          <path id="Trazado_163980" data-name="Trazado 163980" d="M250.931,239.887h10.156v2.539H250.931Z" fill="#8d9ca8"/>
          <circle id="Elipse_4989" data-name="Elipse 4989" cx="3.711" cy="3.711" r="3.711" transform="translate(252.289 252.289)" fill="#8f52f5"/>
          <path id="Trazado_163981" data-name="Trazado 163981" d="M244.086,283.148V285.1a1.954,1.954,0,0,1-1.954,1.953h-8.984l-.885-2.93.885-2.93h8.984A1.954,1.954,0,0,1,244.086,283.148Z" fill="#e8e8e8"/>
          <path id="Trazado_163982" data-name="Trazado 163982" d="M233.148,281.2v5.86H218.7a1.954,1.954,0,0,1-1.953-1.953v-1.954A1.954,1.954,0,0,1,218.7,281.2Z" fill="#8f52f5"/>
          <path id="Trazado_163983" data-name="Trazado 163983" d="M295.257,283.246V285.2a1.954,1.954,0,0,1-1.953,1.953H278.461l-1.28-3.027,1.28-2.832H293.3A1.954,1.954,0,0,1,295.257,283.246Z" fill="#e8e8e8"/>
          <path id="Trazado_163984" data-name="Trazado 163984" d="M269.574,220.941V222.9a1.954,1.954,0,0,1-1.953,1.953h-5.078l-1.091-2.533,1.091-3.327h5.078A1.954,1.954,0,0,1,269.574,220.941Z" fill="#e8e8e8"/>
          <g id="Grupo_107185" data-name="Grupo 107185">
            <path id="Trazado_163985" data-name="Trazado 163985" d="M262.543,218.988v5.86h-18.36a1.954,1.954,0,0,1-1.953-1.953v-1.954a1.954,1.954,0,0,1,1.953-1.953Z" fill="#8f52f5"/>
            <path id="Trazado_163986" data-name="Trazado 163986" d="M278.461,281.293v5.859h-8.594a1.954,1.954,0,0,1-1.953-1.953v-1.953a1.954,1.954,0,0,1,1.953-1.953Z" fill="#8f52f5"/>
          </g>
        </g>
        <g id="Grupo_107187" data-name="Grupo 107187">
          <path id="Trazado_163987" data-name="Trazado 163987" d="M303.168,297.221V271.527a3.423,3.423,0,0,0-3.418-3.418h-16.7v-3.3a3.414,3.414,0,0,0-2.322-3.237l-4.253-1.44a1.465,1.465,0,1,0-.939,2.775l4.253,1.44a.489.489,0,0,1,.332.462v3.3h-16.7A3.422,3.422,0,0,0,260,271.527v25.694a3.019,3.019,0,0,0-2.517,4.358l.531,1.071a6,6,0,0,0,5.4,3.35h36.357a6.005,6.005,0,0,0,5.379-3.3l.515-1.014a3.571,3.571,0,0,0,.327-1.45,3.023,3.023,0,0,0-2.831-3.014Zm-42.526,4.126-.531-1.071a.086.086,0,0,1-.01-.041.094.094,0,0,1,.094-.094h14.848v2.929H263.421A3.085,3.085,0,0,1,260.642,301.347Zm24.557-1.206v2.929h-7.227v-2.929Zm17.871.175a.1.1,0,0,1-.01.042l-.515,1.014a3.088,3.088,0,0,1-2.767,1.7H288.129v-2.93h2.753a1.465,1.465,0,1,0,0-2.929H262.933V271.527a.489.489,0,0,1,.488-.488H299.75a.489.489,0,0,1,.488.488v25.684h-2.514a1.465,1.465,0,0,0,0,2.93h5.252a.094.094,0,0,1,.094.094v.081Z"/>
          <path id="Trazado_163988" data-name="Trazado 163988" d="M232.21,264.343l18.984-6.426a5.173,5.173,0,0,0,9.612,0l8.183,2.77a1.465,1.465,0,0,0,.939-2.775l-8.869-3a5.192,5.192,0,0,0-3.594-3.873v-7.146h16.728a6,6,0,0,0,5.378-3.3,8.421,8.421,0,0,0,.843-2.383,3.12,3.12,0,0,0-2.832-3.1V209.418A3.422,3.422,0,0,0,274.164,206H237.836a3.421,3.421,0,0,0-3.418,3.418v7.512a1.465,1.465,0,1,0,2.929,0v-7.512a.489.489,0,0,1,.489-.488h36.328a.489.489,0,0,1,.488.488V235.1H237.347V223.766a1.465,1.465,0,1,0-2.929,0v11.345a3.026,3.026,0,0,0-2.832,3.014,6.964,6.964,0,0,0,.846,2.415,6,6,0,0,0,5.4,3.351h16.7v7.146a5.192,5.192,0,0,0-3.6,3.873l-19.669,6.658a3.414,3.414,0,0,0-2.322,3.237v3.3h-16.7a3.422,3.422,0,0,0-3.418,3.418v25.694a3.021,3.021,0,0,0-2.517,4.358l.531,1.071a6,6,0,0,0,5.4,3.35h36.356a6.005,6.005,0,0,0,5.379-3.3l.515-1.014a3.585,3.585,0,0,0,.328-1.45,3.025,3.025,0,0,0-2.833-3.014v-9.789a1.465,1.465,0,1,0-2.929,0v9.779h-37.3V271.527a.489.489,0,0,1,.488-.488h36.329a.489.489,0,0,1,.488.488v9.062a1.465,1.465,0,1,0,2.929,0v-9.062a3.422,3.422,0,0,0-3.417-3.418h-16.7v-3.3a.489.489,0,0,1,.332-.462Zm20.176-23.382v-2.93h7.227v2.93Zm25.1-2.755a.1.1,0,0,1-.01.043l-.515,1.014a3.09,3.09,0,0,1-2.767,1.7H262.543v-2.93H277.39a.094.094,0,0,1,.094.094Zm-42.428,1.032-.531-1.071a.1.1,0,0,1-.01-.042.094.094,0,0,1,.094-.094h14.848v2.93H237.836A3.085,3.085,0,0,1,235.056,239.238ZM256,253.754A2.246,2.246,0,1,1,253.754,256,2.249,2.249,0,0,1,256,253.754Zm-46.53,47.593-.531-1.071a.1.1,0,0,1-.01-.041.094.094,0,0,1,.094-.094h14.848v2.929H212.25A3.085,3.085,0,0,1,209.47,301.347Zm17.33-1.206h7.227v2.929H226.8Zm25.1.175a.1.1,0,0,1-.01.042l-.515,1.014a3.088,3.088,0,0,1-2.767,1.7H236.957v-2.93H251.8a.1.1,0,0,1,.094.094Z"/>
          <path id="Trazado_163989" data-name="Trazado 163989" d="M267.621,226.312a3.422,3.422,0,0,0,3.418-3.417v-1.954a3.423,3.423,0,0,0-3.418-3.418H244.183a3.423,3.423,0,0,0-3.418,3.418V222.9a3.422,3.422,0,0,0,3.418,3.417Zm.488-5.371V222.9a.489.489,0,0,1-.488.488h-3.614v-2.93h3.614A.489.489,0,0,1,268.109,220.941ZM243.7,222.9v-1.954a.489.489,0,0,1,.488-.488h16.9v2.93h-16.9A.489.489,0,0,1,243.7,222.9Z"/>
          <path id="Trazado_163990" data-name="Trazado 163990" d="M218.7,279.73a3.422,3.422,0,0,0-3.418,3.418V285.1a3.422,3.422,0,0,0,3.418,3.418h23.437a3.422,3.422,0,0,0,3.418-3.418v-1.954a3.422,3.422,0,0,0-3.418-3.418Zm-.488,5.372v-1.954a.489.489,0,0,1,.488-.488h12.988v2.93H218.7A.489.489,0,0,1,218.207,285.1Zm24.414-1.954V285.1a.489.489,0,0,1-.489.488h-7.519v-2.93h7.519A.489.489,0,0,1,242.621,283.148Z"/>
          <path id="Trazado_163991" data-name="Trazado 163991" d="M296.722,283.246a3.422,3.422,0,0,0-3.418-3.418H269.867a3.422,3.422,0,0,0-3.418,3.418V285.2a3.421,3.421,0,0,0,3.418,3.418H293.3a3.421,3.421,0,0,0,3.418-3.418ZM269.379,285.2v-1.953a.489.489,0,0,1,.488-.488H277v2.929h-7.129A.488.488,0,0,1,269.379,285.2Zm24.414,0a.489.489,0,0,1-.489.488H279.925v-2.929H293.3a.49.49,0,0,1,.489.488Z"/>
        </g>
      </g>
    </g>
  </g>
</svg>
