<svg xmlns="http://www.w3.org/2000/svg" xmlns:xlink="http://www.w3.org/1999/xlink" width="190" height="141.333" viewBox="0 0 190 141.333">
  <defs>
    <linearGradient id="linear-gradient" x1="0.5" x2="0.5" y2="1" gradientUnits="objectBoundingBox">
      <stop offset="0" stop-color="#f95d2c" stop-opacity="0"/>
      <stop offset="0.091" stop-color="#f96826" stop-opacity="0.133"/>
      <stop offset="0.283" stop-color="#fb7e1d" stop-opacity="0.392"/>
      <stop offset="0.465" stop-color="#fc9014" stop-opacity="0.612"/>
      <stop offset="0.633" stop-color="#fd9f0e" stop-opacity="0.78"/>
      <stop offset="0.784" stop-color="#fea909" stop-opacity="0.898"/>
      <stop offset="0.911" stop-color="#feaf07" stop-opacity="0.973"/>
      <stop offset="1" stop-color="#ffb206"/>
    </linearGradient>
    <linearGradient id="linear-gradient-2" x1="0.5" x2="0.5" y2="1" gradientUnits="objectBoundingBox">
      <stop offset="0" stop-color="#ea3065" stop-opacity="0"/>
      <stop offset="0.091" stop-color="#ea3065" stop-opacity="0.133"/>
      <stop offset="0.283" stop-color="#ea3065" stop-opacity="0.392"/>
      <stop offset="0.465" stop-color="#ea3065" stop-opacity="0.612"/>
      <stop offset="0.633" stop-color="#ea3065" stop-opacity="0.78"/>
      <stop offset="0.784" stop-color="#ea3065" stop-opacity="0.898"/>
      <stop offset="0.911" stop-color="#ea3065" stop-opacity="0.973"/>
      <stop offset="1" stop-color="#ea3065"/>
    </linearGradient>
  </defs>
  <g id="Grupo_108686" data-name="Grupo 108686" transform="translate(-179 -1398.002)">
    <g id="Grupo_108611" data-name="Grupo 108611" transform="translate(179 1493.002)">
      <rect id="Rect치ngulo_5242" data-name="Rect치ngulo 5242" width="12" height="46.333" transform="translate(0 0)" fill="url(#linear-gradient)"/>
    </g>
    <g id="Grupo_108612" data-name="Grupo 108612" transform="translate(369 1450.002) rotate(180)">
      <rect id="Rect치ngulo_5242-2" data-name="Rect치ngulo 5242" width="12" height="52" transform="translate(0 0)" fill="url(#linear-gradient-2)"/>
    </g>
    <g id="Grupo_108613" data-name="Grupo 108613" transform="translate(27.927 1217)">
      <g id="Grupo_108613-2" data-name="Grupo 108613" transform="translate(204.048 212.389)">
        <path id="Trazado_166702" data-name="Trazado 166702" d="M242.237,216.995l-36.556,58.316a9.453,9.453,0,0,0,8.009,14.475H286.8a9.454,9.454,0,0,0,8.01-14.475l-36.556-58.316a9.454,9.454,0,0,0-16.02,0Z" transform="translate(-204.223 -212.563)" fill="#ffe07d"/>
      </g>
      <g id="Grupo_108614" data-name="Grupo 108614" transform="translate(237.43 250.138)">
        <path id="Trazado_166703" data-name="Trazado 166703" d="M298.985,280.029l-15.671-25A52.541,52.541,0,0,1,241.777,294.5h49.2a9.453,9.453,0,0,0,8.009-14.475Z" transform="translate(-241.777 -255.03)" fill="#ffd064"/>
      </g>
      <g id="Grupo_108617" data-name="Grupo 108617" transform="translate(232.766 233.788)">
        <g id="Grupo_108615" data-name="Grupo 108615">
          <path id="Trazado_166704" data-name="Trazado 166704" d="M267.307,250.413a13.716,13.716,0,0,0-13.448-13.776,13.561,13.561,0,0,0-9.773,3.984l3.5,3.5-11.052,10.2,3.571,4.761,10.2-2.72v.4a9.239,9.239,0,0,1-5.119,8.27,9.238,9.238,0,0,0-5.119,8.269v5.242h27.243V250.413Z" transform="translate(-236.53 -236.636)" fill="#5766cb"/>
        </g>
        <g id="Grupo_108616" data-name="Grupo 108616" transform="translate(3.534 14.404)">
          <path id="Trazado_166705" data-name="Trazado 166705" d="M240.6,273.814a9.252,9.252,0,0,0-.091,1.289v5.242h27.243v-27.5A32.581,32.581,0,0,1,240.6,273.814Z" transform="translate(-240.506 -252.841)" fill="#3d4fc3"/>
        </g>
      </g>
      <g id="Grupo_108621" data-name="Grupo 108621" transform="translate(271.588 256.239)">
        <g id="Grupo_108618" data-name="Grupo 108618" transform="translate(0 0)">
          <circle id="Elipse_5053" data-name="Elipse 5053" cx="2.993" cy="2.993" r="2.993" fill="#95d6a4"/>
        </g>
        <g id="Grupo_108619" data-name="Grupo 108619" transform="translate(0 20.206)">
          <circle id="Elipse_5054" data-name="Elipse 5054" cx="2.993" cy="2.993" r="2.993" fill="#95d6a4"/>
        </g>
        <g id="Grupo_108620" data-name="Grupo 108620" transform="translate(5.987 10.103)">
          <circle id="Elipse_5055" data-name="Elipse 5055" cx="2.993" cy="2.993" r="2.993" fill="#95d6a4"/>
        </g>
      </g>
      <g id="Grupo_108625" data-name="Grupo 108625" transform="translate(216.583 256.239)">
        <g id="Grupo_108622" data-name="Grupo 108622" transform="translate(5.987 0)">
          <circle id="Elipse_5056" data-name="Elipse 5056" cx="2.993" cy="2.993" r="2.993" fill="#95d6a4"/>
        </g>
        <g id="Grupo_108623" data-name="Grupo 108623" transform="translate(5.987 20.206)">
          <circle id="Elipse_5057" data-name="Elipse 5057" cx="2.993" cy="2.993" r="2.993" fill="#95d6a4"/>
        </g>
        <g id="Grupo_108624" data-name="Grupo 108624" transform="translate(0 10.103)">
          <circle id="Elipse_5058" data-name="Elipse 5058" cx="2.993" cy="2.993" r="2.993" fill="#95d6a4"/>
        </g>
      </g>
      <g id="Grupo_108626" data-name="Grupo 108626" transform="translate(202.652 211)">
        <path id="Trazado_166706" data-name="Trazado 166706" d="M217.278,288.222h-3.762a8.064,8.064,0,0,1-6.832-12.348l36.555-58.315a8.066,8.066,0,0,1,13.667,0L268.7,236.37a1.389,1.389,0,0,0,2.354-1.476l-11.791-18.811a10.843,10.843,0,0,0-18.374,0L204.33,274.4a10.841,10.841,0,0,0,9.186,16.6h3.761a1.389,1.389,0,0,0,0-2.778Z" transform="translate(-202.652 -211)"/>
        <path id="Trazado_166707" data-name="Trazado 166707" d="M298.28,277.991l-21.322-34.014a1.389,1.389,0,1,0-2.354,1.476l21.322,34.014a8.063,8.063,0,0,1-6.832,12.347H226.224a1.389,1.389,0,0,0,0,2.779h62.869a10.842,10.842,0,0,0,9.186-16.6Z" transform="translate(-205.117 -214.592)"/>
        <path id="Trazado_166708" data-name="Trazado 166708" d="M234.054,276.982a1.389,1.389,0,0,0-1.311.93l-.984,2.812h-.472a4.382,4.382,0,1,0,0,2.779h1.458a1.39,1.39,0,0,0,1.311-.931l.984-2.812H248.4a1.389,1.389,0,0,0,0-2.779h-9.142v-3.852a7.846,7.846,0,0,1,4.349-7.026,10.558,10.558,0,0,0,5.8-8.158l.969.242a6.407,6.407,0,0,0,7.96-6.215v-.716a1.389,1.389,0,0,0-2.779,0v.716a3.627,3.627,0,0,1-4.508,3.52l-2.608-.652h0a1.391,1.391,0,0,0-.694,0l-9.3,2.479-2.255-3.006,10.13-9.352a1.391,1.391,0,0,0,.04-2l-2.46-2.46a12.074,12.074,0,0,1,7.74-2.65,12.344,12.344,0,0,1,12.074,12.388v26.742h-8.84a1.389,1.389,0,0,0,0,2.778h13.36l.984,2.812a1.39,1.39,0,0,0,1.311.93h1.458a4.383,4.383,0,1,0,0-2.778h-.472l-.984-2.812a1.39,1.39,0,0,0-1.311-.931H266.5V273.4h11.481a4.383,4.383,0,1,0,0-2.778H266.5v-3.583h2.727a1.39,1.39,0,0,0,1.311-.931l.984-2.812h.472a4.383,4.383,0,1,0,0-2.778h-1.458a1.389,1.389,0,0,0-1.311.93l-.984,2.812H266.5v-14.02a15.131,15.131,0,0,0-14.821-15.164,14.867,14.867,0,0,0-10.772,4.391,1.388,1.388,0,0,0,0,1.964l2.475,2.475-9.989,9.222a1.389,1.389,0,0,0-.169,1.854l3.571,4.76a1.39,1.39,0,0,0,1.469.509l8.324-2.22a7.8,7.8,0,0,1-4.22,5.588,10.676,10.676,0,0,0-1.113.643h-6.215l-.984-2.812a1.39,1.39,0,0,0-1.311-.93h-1.458a4.383,4.383,0,1,0,0,2.778h.472l.984,2.812a1.39,1.39,0,0,0,1.311.931H238.4c-.114.163-.225.328-.33.5a10.658,10.658,0,0,0-1.29,3.085H225.3a4.382,4.382,0,1,0,0,2.779h11.179v3.583Zm-6.923,6.735a1.6,1.6,0,1,1,1.6-1.6A1.607,1.607,0,0,1,227.131,283.718Zm49.019-3.209a1.6,1.6,0,1,1-1.6,1.6A1.606,1.606,0,0,1,276.15,280.509Zm5.987-10.1a1.6,1.6,0,1,1-1.6,1.6A1.607,1.607,0,0,1,282.136,270.406Zm-5.987-10.1a1.6,1.6,0,1,1-1.6,1.6A1.606,1.606,0,0,1,276.15,260.3Zm-49.019,3.209a1.6,1.6,0,1,1,1.6-1.6A1.607,1.607,0,0,1,227.131,263.511Zm-5.987,10.1a1.6,1.6,0,1,1,1.6-1.6A1.607,1.607,0,0,1,221.144,273.614Z" transform="translate(-204.22 -213.675)"/>
      </g>
    </g>
  </g>
</svg>
