<svg xmlns="http://www.w3.org/2000/svg" xmlns:xlink="http://www.w3.org/1999/xlink" width="155.552" height="142.384" viewBox="0 0 155.552 142.384">
  <defs>
    <linearGradient id="linear-gradient" x1="0.087" y1="0.521" x2="1.244" y2="0.349" gradientUnits="objectBoundingBox">
      <stop offset="0.056" stop-color="#9992b0"/>
      <stop offset="1" stop-color="#fff"/>
    </linearGradient>
    <linearGradient id="linear-gradient-2" x1="0.086" y1="0.52" x2="1.229" y2="0.351" xlink:href="#linear-gradient"/>
    <linearGradient id="linear-gradient-3" x1="0.085" y1="0.518" x2="1.215" y2="0.353" xlink:href="#linear-gradient"/>
    <linearGradient id="linear-gradient-4" x1="0.085" y1="0.517" x2="1.2" y2="0.355" xlink:href="#linear-gradient"/>
    <linearGradient id="linear-gradient-5" x1="0.084" y1="0.516" x2="1.185" y2="0.357" xlink:href="#linear-gradient"/>
    <linearGradient id="linear-gradient-6" x1="0.083" y1="0.515" x2="1.17" y2="0.359" xlink:href="#linear-gradient"/>
    <linearGradient id="linear-gradient-7" x1="0.082" y1="0.514" x2="1.156" y2="0.361" xlink:href="#linear-gradient"/>
    <linearGradient id="linear-gradient-8" x1="0.081" y1="0.513" x2="1.141" y2="0.363" xlink:href="#linear-gradient"/>
    <linearGradient id="linear-gradient-9" x1="0.081" y1="0.512" x2="1.126" y2="0.365" xlink:href="#linear-gradient"/>
    <linearGradient id="linear-gradient-10" x1="0.08" y1="0.51" x2="1.112" y2="0.367" xlink:href="#linear-gradient"/>
    <linearGradient id="linear-gradient-11" x1="0.079" y1="0.509" x2="1.097" y2="0.369" xlink:href="#linear-gradient"/>
    <linearGradient id="linear-gradient-12" x1="0.078" y1="0.508" x2="1.082" y2="0.371" xlink:href="#linear-gradient"/>
    <linearGradient id="linear-gradient-13" x1="0.077" y1="0.507" x2="1.068" y2="0.373" xlink:href="#linear-gradient"/>
    <linearGradient id="linear-gradient-14" x1="0.076" y1="0.505" x2="1.053" y2="0.374" xlink:href="#linear-gradient"/>
    <linearGradient id="linear-gradient-15" x1="0.075" y1="0.504" x2="1.038" y2="0.376" xlink:href="#linear-gradient"/>
    <linearGradient id="linear-gradient-16" x1="0.074" y1="0.503" x2="1.024" y2="0.378" xlink:href="#linear-gradient"/>
    <linearGradient id="linear-gradient-17" x1="0.073" y1="0.502" x2="1.009" y2="0.38" xlink:href="#linear-gradient"/>
    <linearGradient id="linear-gradient-18" x1="0.072" y1="0.501" x2="0.995" y2="0.382" xlink:href="#linear-gradient"/>
    <linearGradient id="linear-gradient-19" x1="0.071" y1="0.5" x2="0.981" y2="0.385" xlink:href="#linear-gradient"/>
    <linearGradient id="linear-gradient-20" x1="0.07" y1="0.499" x2="0.967" y2="0.387" xlink:href="#linear-gradient"/>
    <linearGradient id="linear-gradient-21" x1="0.069" y1="0.499" x2="0.953" y2="0.39" xlink:href="#linear-gradient"/>
    <linearGradient id="linear-gradient-22" x1="0.069" y1="0.499" x2="0.939" y2="0.393" xlink:href="#linear-gradient"/>
    <radialGradient id="radial-gradient" cx="0.5" cy="0.5" r="0.31" gradientTransform="matrix(-1.221, -0.709, -1.221, 0.701, 991.702, 311.172)" xlink:href="#linear-gradient"/>
  </defs>
  <g id="Grupo_108147" data-name="Grupo 108147" transform="translate(-383.879 -521.798)">
    <g id="Grupo_108116" data-name="Grupo 108116" transform="translate(411.916 521.798)">
      <g id="Grupo_108115" data-name="Grupo 108115">
        <path id="Trazado_165759" data-name="Trazado 165759" d="M470.661,634.658l-65.348-37.729c-2.581-1.489-2.257-4.092.722-5.814L443.123,569.7c2.979-1.72,7.487-1.907,10.068-.417l65.348,37.729c2.58,1.491,2.257,4.094-.723,5.814L480.729,634.24C477.749,635.96,473.243,636.148,470.661,634.658Z" transform="translate(-403.57 -502.097)" fill="#a292d1" opacity="0.2"/>
        <path id="Trazado_165760" data-name="Trazado 165760" d="M470.661,632.9l-65.348-37.729a3.01,3.01,0,0,1-1.743-2.479v-3.236c.021-1.13.856.832,2.465-.1l37.088-21.412c2.979-1.72,7.487-1.906,10.068-.417l65.348,37.729c.861.5,1.486-1.613,1.71-.943.074.224.027,3.185.031,3.417.026,1.158-.81,2.384-2.465,3.339l-37.087,21.411C477.749,634.2,473.243,634.387,470.661,632.9Z" transform="translate(-403.57 -502.843)" fill="#4626ab"/>
        <path id="Trazado_165761" data-name="Trazado 165761" d="M470.661,630.666l-65.348-37.73c-2.581-1.489-2.257-4.092.722-5.812l37.088-21.412c2.979-1.721,7.487-1.908,10.068-.419l65.348,37.73c2.58,1.489,2.257,4.092-.723,5.812l-37.087,21.413C477.749,631.969,473.243,632.155,470.661,630.666Z" transform="translate(-403.57 -503.789)" fill="#dcd1ff"/>
        <path id="Trazado_165762" data-name="Trazado 165762" d="M450.69,614.208c2.581,1.491,7.088,1.3,10.068-.417v-3.177c-2.98,1.72-7.487,1.906-10.068.417Z" transform="translate(-383.599 -484.155)" fill="#623fd1" opacity="0.5"/>
        <path id="Trazado_165763" data-name="Trazado 165763" d="M470.661,622.947l-65.348-37.73a2.909,2.909,0,0,1-1.729-2.715,1.189,1.189,0,0,0-.014.178v3.238a3.01,3.01,0,0,0,1.743,2.477l65.348,37.729Z" transform="translate(-403.57 -496.07)" fill="#623fd1"/>
        <path id="Trazado_165764" data-name="Trazado 165764" d="M517.816,600.61l-37.087,21.413c-2.98,1.72-7.487,1.906-10.068.417l-65.348-37.73a3.086,3.086,0,0,1-1.723-2.287,2.879,2.879,0,0,0,1.723,2.826l65.348,37.73c2.581,1.489,7.088,1.3,10.068-.417l37.087-21.413c1.744-1.007,2.57-2.314,2.446-3.525A4.4,4.4,0,0,1,517.816,600.61Z" transform="translate(-403.57 -496.103)" fill="#fff"/>
        <path id="Trazado_165765" data-name="Trazado 165765" d="M447.26,607.536,424,594.108c-.466-.269-.407-.738.131-1.048l8.731-5.042a2.019,2.019,0,0,1,1.817-.076l23.258,13.428c.466.268.407.738-.131,1.048l-8.731,5.042A2.019,2.019,0,0,1,447.26,607.536Z" transform="translate(-395.044 -493.84)" fill="#fff" opacity="0.3"/>
        <path id="Trazado_165766" data-name="Trazado 165766" d="M424.131,593.611l8.731-5.042a2.019,2.019,0,0,1,1.817-.075l23.258,13.428a.726.726,0,0,1,.215.188.486.486,0,0,0-.215-.739l-23.258-13.428a2.019,2.019,0,0,0-1.817.076l-8.731,5.04c-.429.248-.547.594-.346.861A1.007,1.007,0,0,1,424.131,593.611Z" transform="translate(-395.042 -493.84)" fill="#baa8f0"/>
        <path id="Trazado_165767" data-name="Trazado 165767" d="M442.1,568.781l4.008,2.314a2.029,2.029,0,0,0,1.84,0c.507-.292.5-.767-.006-1.062l-4.008-2.314a2.028,2.028,0,0,0-1.84,0C441.592,568.011,441.594,568.487,442.1,568.781Zm6.863,3.961,1.9,1.1a2.034,2.034,0,0,0,1.84,0,.561.561,0,0,0-.006-1.062l-1.9-1.1a2.036,2.036,0,0,0-1.841,0A.561.561,0,0,0,448.967,572.743Zm4.753,2.745,1.9,1.1a2.041,2.041,0,0,0,1.841,0c.505-.292.5-.767-.007-1.062l-1.9-1.1a2.028,2.028,0,0,0-1.84,0C453.207,574.717,453.21,575.193,453.72,575.488Zm4.753,2.744,1.9,1.1a2.031,2.031,0,0,0,1.841,0c.507-.292.5-.767-.006-1.062l-1.9-1.1a2.037,2.037,0,0,0-1.84,0C457.96,577.461,457.963,577.937,458.473,578.231Zm4.753,2.744,1.9,1.1a2.033,2.033,0,0,0,1.84,0,.562.562,0,0,0-.006-1.064l-1.9-1.095a2.036,2.036,0,0,0-1.841,0A.561.561,0,0,0,463.225,580.975Zm4.753,2.745,1.9,1.1a2.037,2.037,0,0,0,1.84,0,.561.561,0,0,0-.006-1.062l-1.9-1.1a2.031,2.031,0,0,0-1.841,0A.561.561,0,0,0,467.978,583.72Zm4.754,2.744,1.9,1.1a2.028,2.028,0,0,0,1.84,0c.507-.292.5-.767-.006-1.062l-1.9-1.1a2.037,2.037,0,0,0-1.84,0C472.22,585.694,472.223,586.169,472.732,586.464Zm4.753,2.744,1.9,1.1a2.036,2.036,0,0,0,1.841,0,.562.562,0,0,0-.006-1.064l-1.9-1.095a2.033,2.033,0,0,0-1.84,0A.561.561,0,0,0,477.485,589.208Zm4.753,2.745,1.9,1.1a2.037,2.037,0,0,0,1.84,0,.561.561,0,0,0-.006-1.062l-1.9-1.1a2.029,2.029,0,0,0-1.84,0C481.725,591.183,481.728,591.658,482.238,591.953Zm4.753,2.744,1.9,1.1a2.028,2.028,0,0,0,1.84,0c.507-.292.5-.767-.006-1.062l-1.9-1.1a2.036,2.036,0,0,0-1.841,0C486.478,593.926,486.481,594.4,486.991,594.7Zm4.753,2.744,1.9,1.1a2.033,2.033,0,0,0,1.84,0,.562.562,0,0,0-.006-1.064l-1.9-1.095a2.036,2.036,0,0,0-1.841,0A.561.561,0,0,0,491.743,597.44Zm4.754,2.745,1.9,1.1a2.04,2.04,0,0,0,1.841,0,.561.561,0,0,0-.007-1.062l-1.9-1.1a2.029,2.029,0,0,0-1.84,0C495.985,599.415,495.988,599.891,496.5,600.186Zm4.851,2.8,1.9,1.1a2.028,2.028,0,0,0,1.84,0c.507-.292.5-.767-.006-1.062l-1.9-1.1a2.04,2.04,0,0,0-1.841,0A.561.561,0,0,0,501.349,602.986ZM437.828,571.4l1.645.948a2.319,2.319,0,0,0,2.094,0l1.633-.944a.638.638,0,0,0-.007-1.209l-1.643-.948a2.311,2.311,0,0,0-2.094,0l-1.633.943A.639.639,0,0,0,437.828,571.4Zm8.492,3.7,1.633-.943a.638.638,0,0,0-.007-1.209l-1.643-.95a2.319,2.319,0,0,0-2.094,0l-1.633.944a.638.638,0,0,0,.007,1.209l1.643.948A2.311,2.311,0,0,0,446.32,575.093Zm1.015,1.791,1.643.95a2.315,2.315,0,0,0,2.094,0l1.633-.943a.638.638,0,0,0-.006-1.209l-1.645-.95a2.315,2.315,0,0,0-2.094,0l-1.633.943A.638.638,0,0,0,447.335,576.884Zm4.753,2.745,1.643.948a2.319,2.319,0,0,0,2.094,0l1.633-.944a.638.638,0,0,0-.006-1.209l-1.645-.948a2.307,2.307,0,0,0-2.093,0l-1.635.943A.639.639,0,0,0,452.088,579.63Zm10.118,1.544-1.643-.948a2.319,2.319,0,0,0-2.094,0l-1.633.944a.638.638,0,0,0,.006,1.209l1.645.948a2.307,2.307,0,0,0,2.093,0l1.635-.943A.639.639,0,0,0,462.206,581.173Zm4.753,2.745-1.643-.95a2.315,2.315,0,0,0-2.094,0l-1.633.943a.638.638,0,0,0,.006,1.209l1.645.95a2.315,2.315,0,0,0,2.094,0l1.633-.943A.638.638,0,0,0,466.959,583.918Zm4.753,2.744-1.643-.948a2.311,2.311,0,0,0-2.094,0l-1.633.943a.638.638,0,0,0,.007,1.209l1.643.95a2.319,2.319,0,0,0,2.094,0l1.633-.944A.638.638,0,0,0,471.711,586.662Zm4.754,2.744-1.645-.948a2.319,2.319,0,0,0-2.094,0l-1.633.944a.638.638,0,0,0,.007,1.209l1.643.948a2.31,2.31,0,0,0,2.094,0l1.633-.943A.639.639,0,0,0,476.466,589.406Zm4.753,2.745-1.645-.95a2.312,2.312,0,0,0-2.093,0l-1.635.943a.638.638,0,0,0,.007,1.209l1.643.95a2.315,2.315,0,0,0,2.094,0l1.633-.943A.638.638,0,0,0,481.218,592.151Zm4.753,2.744-1.643-.948a2.311,2.311,0,0,0-2.094,0l-1.633.943a.638.638,0,0,0,.006,1.209l1.645.95a2.317,2.317,0,0,0,2.093,0l1.635-.944A.638.638,0,0,0,485.971,594.895Zm-.611,3.944,1.643.948a2.315,2.315,0,0,0,2.094,0l1.633-.943c.577-.333.574-.874-.007-1.21l-1.643-.948a2.315,2.315,0,0,0-2.094,0l-1.633.944A.638.638,0,0,0,485.36,598.839Zm10.118,1.545-1.645-.95a2.315,2.315,0,0,0-2.094,0l-1.633.943a.638.638,0,0,0,.007,1.209l1.643.95a2.315,2.315,0,0,0,2.094,0l1.633-.943A.638.638,0,0,0,495.478,600.383Zm6.961,4.02-3.753-2.167a2.31,2.31,0,0,0-2.094,0l-1.633.943a.638.638,0,0,0,.006,1.209l3.753,2.167a2.311,2.311,0,0,0,2.094,0l1.633-.943A.638.638,0,0,0,502.439,604.4Zm-69.013-30.465,3.753,2.167a2.315,2.315,0,0,0,2.094,0l1.633-.943a.638.638,0,0,0-.006-1.209l-3.753-2.167a2.315,2.315,0,0,0-2.094,0l-1.633.943A.639.639,0,0,0,433.426,573.938Zm6.863,3.961,1.645.95a2.317,2.317,0,0,0,2.093,0l1.635-.944a.638.638,0,0,0-.007-1.209l-1.643-.948a2.31,2.31,0,0,0-2.094,0l-1.633.943A.638.638,0,0,0,440.289,577.9Zm6.4,3.693a2.315,2.315,0,0,0,2.094,0l1.633-.943c.577-.333.574-.874-.007-1.21l-1.643-.948a2.315,2.315,0,0,0-2.094,0l-1.633.944c-.577.332-.574.873.006,1.209Zm4.753,2.745a2.315,2.315,0,0,0,2.094,0l1.633-.943a.638.638,0,0,0-.007-1.209l-1.643-.95a2.315,2.315,0,0,0-2.094,0l-1.633.943a.638.638,0,0,0,.007,1.209Zm4.736-.357-1.633.943a.638.638,0,0,0,.007,1.209l1.643.95a2.319,2.319,0,0,0,2.094,0l1.633-.944a.638.638,0,0,0-.006-1.209l-1.645-.948A2.31,2.31,0,0,0,456.174,583.981Zm4.854,2.685-1.834,1.059a.577.577,0,0,0,.006,1.094l1.845,1.065a2.093,2.093,0,0,0,1.894,0l1.834-1.059a.577.577,0,0,0-.006-1.094l-1.845-1.065A2.093,2.093,0,0,0,461.028,586.666Zm4.753,2.745-1.834,1.059c-.521.3-.518.789.006,1.092l1.847,1.066a2.094,2.094,0,0,0,1.892,0l1.834-1.059a.576.576,0,0,0-.006-1.092l-1.845-1.066A2.093,2.093,0,0,0,465.781,589.411Zm4.754,2.744-1.835,1.059a.576.576,0,0,0,.006,1.092l1.847,1.066a2.1,2.1,0,0,0,1.892,0l1.834-1.059a.576.576,0,0,0-.006-1.092l-1.845-1.066A2.1,2.1,0,0,0,470.535,592.155Zm4.753,2.744-1.834,1.059a.577.577,0,0,0,.006,1.094l1.845,1.065a2.09,2.09,0,0,0,1.892,0l1.835-1.059a.577.577,0,0,0-.006-1.094L477.18,594.9A2.09,2.09,0,0,0,475.288,594.9Zm4.753,2.745-1.834,1.059c-.521.3-.518.789.006,1.092l1.845,1.065a2.093,2.093,0,0,0,1.894,0l1.834-1.059a.576.576,0,0,0-.006-1.092l-1.847-1.066A2.09,2.09,0,0,0,480.041,597.644Zm6.664,5.964,1.834-1.059c.521-.3.518-.789-.006-1.092l-1.845-1.066a2.1,2.1,0,0,0-1.894,0l-1.834,1.059a.576.576,0,0,0,.006,1.092l1.847,1.066A2.1,2.1,0,0,0,486.7,603.608Zm4.753,2.745,1.834-1.059a.577.577,0,0,0-.006-1.094l-1.845-1.065a2.09,2.09,0,0,0-1.892,0l-1.835,1.059a.577.577,0,0,0,.006,1.094l1.847,1.065A2.09,2.09,0,0,0,491.457,606.354Zm6.681.649-1.847-1.067a2.1,2.1,0,0,0-1.892,0l-1.834,1.059c-.521.3-.518.789.006,1.092l1.845,1.066a2.1,2.1,0,0,0,1.894,0l1.834-1.059A.576.576,0,0,0,498.138,607Zm-69.216-30.581,5.96,3.44a2.09,2.09,0,0,0,1.892,0l1.835-1.059a.577.577,0,0,0-.007-1.094l-5.959-3.44a2.086,2.086,0,0,0-1.892,0l-1.835,1.058A.577.577,0,0,0,428.922,576.422Zm8.868,5.119,1.845,1.066a2.1,2.1,0,0,0,1.892,0l1.835-1.059a.576.576,0,0,0-.006-1.092l-1.847-1.066a2.1,2.1,0,0,0-1.892,0l-1.834,1.059A.576.576,0,0,0,437.79,581.54Zm4.753,2.744,1.845,1.066a2.089,2.089,0,0,0,1.894,0l1.834-1.058a.577.577,0,0,0-.006-1.094l-1.847-1.065a2.09,2.09,0,0,0-1.892,0l-1.834,1.059A.576.576,0,0,0,442.543,584.284Zm4.753,2.745,1.847,1.065a2.09,2.09,0,0,0,1.892,0l1.834-1.059a.577.577,0,0,0-.006-1.094l-1.845-1.065a2.089,2.089,0,0,0-1.894,0l-1.834,1.058A.577.577,0,0,0,447.3,587.029Zm8.492,3.813,1.834-1.059a.576.576,0,0,0-.006-1.092l-1.845-1.066a2.1,2.1,0,0,0-1.892,0l-1.835,1.059a.576.576,0,0,0,.006,1.092l1.847,1.066A2.1,2.1,0,0,0,455.787,590.842Zm4.753,2.744,1.835-1.058c.521-.3.518-.79-.007-1.094l-1.845-1.065a2.09,2.09,0,0,0-1.892,0l-1.834,1.059a.576.576,0,0,0,.006,1.092l1.845,1.066A2.086,2.086,0,0,0,460.54,593.586Zm4.754,2.745,1.834-1.059a.577.577,0,0,0-.006-1.094l-1.847-1.065a2.086,2.086,0,0,0-1.892,0l-1.834,1.058a.577.577,0,0,0,.006,1.094l1.845,1.065A2.093,2.093,0,0,0,465.294,596.331Zm4.753,2.744,1.834-1.059a.576.576,0,0,0-.006-1.092l-1.845-1.066a2.1,2.1,0,0,0-1.894,0l-1.834,1.059a.576.576,0,0,0,.006,1.092l1.845,1.066A2.1,2.1,0,0,0,470.047,599.075Zm4.753,2.744,1.834-1.058a.577.577,0,0,0-.006-1.094l-1.845-1.065a2.093,2.093,0,0,0-1.894,0l-1.834,1.059a.576.576,0,0,0,.006,1.092l1.847,1.066A2.09,2.09,0,0,0,474.8,601.819Zm4.753,2.745,1.834-1.059a.577.577,0,0,0-.006-1.094l-1.845-1.065a2.09,2.09,0,0,0-1.892,0l-1.835,1.059c-.521.3-.518.79.007,1.094l1.845,1.065A2.09,2.09,0,0,0,479.552,604.564Zm1.015,1.674,1.845,1.067a2.1,2.1,0,0,0,1.892,0l1.835-1.059a.576.576,0,0,0-.006-1.092l-1.847-1.066a2.1,2.1,0,0,0-1.892,0l-1.834,1.059C480.041,605.447,480.044,605.935,480.568,606.238Zm13.168,3.306-4.694-2.71a2.091,2.091,0,0,0-1.892,0l-1.834,1.059a.576.576,0,0,0,.006,1.092l4.694,2.711a2.1,2.1,0,0,0,1.892,0l1.834-1.059A.576.576,0,0,0,493.735,609.544Zm-69.2-30.45,8.456,4.882a2.368,2.368,0,0,0,2.139,0l1.589-.918c.589-.339.585-.893-.007-1.234l-8.455-4.882a2.363,2.363,0,0,0-2.139,0l-1.589.917A.651.651,0,0,0,424.538,579.094Zm11.61,6.7,1.6.923a2.359,2.359,0,0,0,2.139,0l1.589-.918a.65.65,0,0,0-.006-1.233l-1.6-.924a2.365,2.365,0,0,0-2.137,0l-1.59.918A.652.652,0,0,0,436.148,585.8Zm4.753,2.744,1.6.924a2.361,2.361,0,0,0,2.137,0l1.59-.917a.652.652,0,0,0-.007-1.234l-1.6-.924a2.365,2.365,0,0,0-2.137,0l-1.59.918A.652.652,0,0,0,440.9,588.541Zm4.753,2.744,1.6.924a2.365,2.365,0,0,0,2.137,0l1.59-.918a.652.652,0,0,0-.007-1.234l-1.6-.924a2.364,2.364,0,0,0-2.139,0l-1.59.917A.652.652,0,0,0,445.654,591.285Zm4.753,2.745,1.6.923a2.359,2.359,0,0,0,2.139,0l1.589-.918c.588-.339.585-.891-.007-1.234l-1.6-.923a2.363,2.363,0,0,0-2.139,0l-1.589.918A.651.651,0,0,0,450.407,594.03Zm4.754,2.744,1.6.924a2.363,2.363,0,0,0,2.139,0l1.589-.917a.651.651,0,0,0-.006-1.234l-1.6-.924a2.368,2.368,0,0,0-2.139,0l-1.589.918A.652.652,0,0,0,455.161,596.774Zm4.753,2.744,1.6.924a2.368,2.368,0,0,0,2.139,0l1.59-.918a.652.652,0,0,0-.007-1.234l-1.6-.924a2.36,2.36,0,0,0-2.137,0l-1.59.917A.652.652,0,0,0,459.914,599.518Zm4.753,2.745,1.6.923a2.36,2.36,0,0,0,2.137,0l1.59-.918c.588-.339.585-.891-.007-1.234l-1.6-.923a2.36,2.36,0,0,0-2.137,0l-1.59.918C464.071,601.367,464.074,601.92,464.666,602.263Zm4.753,2.744,1.6.924a2.361,2.361,0,0,0,2.137,0l1.59-.917a.652.652,0,0,0-.007-1.234l-1.6-.924a2.368,2.368,0,0,0-2.139,0l-1.589.918A.651.651,0,0,0,469.419,605.007Zm4.753,2.744,1.6.924a2.368,2.368,0,0,0,2.139,0l1.589-.918a.652.652,0,0,0-.007-1.234l-1.6-.924a2.363,2.363,0,0,0-2.139,0l-1.589.917A.652.652,0,0,0,474.172,607.75Zm4.754,2.745,1.6.923a2.363,2.363,0,0,0,2.139,0l1.589-.918c.589-.339.587-.891-.006-1.234l-1.6-.923a2.36,2.36,0,0,0-2.137,0l-1.59.918C478.331,609.6,478.334,610.152,478.926,610.5Zm10.179,1.579-1.6-.923a2.361,2.361,0,0,0-2.137,0l-1.59.918a.652.652,0,0,0,.007,1.234l1.6.923a2.356,2.356,0,0,0,2.137,0l1.59-.918C489.7,612.97,489.7,612.418,489.1,612.075ZM427.567,581.63l-3.709-2.141a2.359,2.359,0,0,0-2.139,0l-1.589.918a.65.65,0,0,0,.006,1.233l3.711,2.143a2.36,2.36,0,0,0,2.137,0l1.59-.917A.652.652,0,0,0,427.567,581.63Zm4.753,2.744-1.6-.924a2.363,2.363,0,0,0-2.139,0l-1.589.917A.651.651,0,0,0,427,585.6l1.6.924a2.365,2.365,0,0,0,2.137,0l1.59-.918A.652.652,0,0,0,432.32,584.374Zm4.753,2.744-1.6-.923a2.358,2.358,0,0,0-2.139,0l-1.589.918c-.589.339-.585.891.006,1.234l1.6.923a2.363,2.363,0,0,0,2.139,0l1.589-.918A.652.652,0,0,0,437.072,587.118Zm33.272,19.21-30.118-17.389a2.365,2.365,0,0,0-2.137,0l-1.59.918a.652.652,0,0,0,.007,1.234l30.118,17.388a2.356,2.356,0,0,0,2.137,0l1.59-.918A.651.651,0,0,0,470.345,606.328Zm4.753,2.744-1.6-.924a2.368,2.368,0,0,0-2.139,0l-1.589.918a.651.651,0,0,0,.006,1.234l1.6.924a2.36,2.36,0,0,0,2.137,0l1.59-.917A.652.652,0,0,0,475.1,609.072Zm4.753,2.744-1.6-.923a2.359,2.359,0,0,0-2.139,0l-1.589.917a.651.651,0,0,0,.006,1.234l1.6.924a2.368,2.368,0,0,0,2.139,0l1.589-.918A.652.652,0,0,0,479.85,611.815Zm4.852,2.8-1.6-.924a2.365,2.365,0,0,0-2.137,0l-1.59.918a.652.652,0,0,0,.007,1.234l1.6.924a2.361,2.361,0,0,0,2.137,0l1.59-.917A.652.652,0,0,0,484.7,614.618Z" transform="translate(-396.738 -502.428)" fill="#8e72e8"/>
        <path id="Trazado_165768" data-name="Trazado 165768" d="M442.1,568.47l4.008,2.314a2.028,2.028,0,0,0,1.84,0c.507-.292.5-.767-.006-1.062l-4.008-2.314a2.029,2.029,0,0,0-1.84,0C441.592,567.7,441.594,568.176,442.1,568.47Zm6.863,3.963,1.9,1.095a2.033,2.033,0,0,0,1.84,0,.561.561,0,0,0-.006-1.062l-1.9-1.1a2.036,2.036,0,0,0-1.841,0A.562.562,0,0,0,448.967,572.433Zm4.753,2.744,1.9,1.1a2.04,2.04,0,0,0,1.841,0c.505-.292.5-.767-.007-1.062l-1.9-1.1a2.029,2.029,0,0,0-1.84,0C453.207,574.406,453.21,574.882,453.72,575.177Zm4.753,2.744,1.9,1.1a2.031,2.031,0,0,0,1.841,0c.507-.292.5-.767-.006-1.062l-1.9-1.1a2.038,2.038,0,0,0-1.84,0C457.96,577.15,457.963,577.626,458.473,577.92Zm4.753,2.744,1.9,1.1a2.033,2.033,0,0,0,1.84,0,.561.561,0,0,0-.006-1.062l-1.9-1.1a2.036,2.036,0,0,0-1.841,0A.561.561,0,0,0,463.225,580.664Zm4.753,2.745,1.9,1.1a2.037,2.037,0,0,0,1.84,0c.507-.292.5-.767-.006-1.062l-1.9-1.1a2.032,2.032,0,0,0-1.841,0A.561.561,0,0,0,467.978,583.409Zm4.754,2.744,1.9,1.1a2.029,2.029,0,0,0,1.84,0c.507-.292.5-.767-.006-1.062l-1.9-1.1a2.037,2.037,0,0,0-1.84,0C472.22,585.383,472.223,585.858,472.732,586.153Zm4.753,2.744,1.9,1.1a2.036,2.036,0,0,0,1.841,0,.561.561,0,0,0-.006-1.062l-1.9-1.1a2.033,2.033,0,0,0-1.84,0A.561.561,0,0,0,477.485,588.9Zm4.753,2.745,1.9,1.1a2.037,2.037,0,0,0,1.84,0c.507-.292.5-.767-.006-1.062l-1.9-1.1a2.029,2.029,0,0,0-1.84,0C481.725,590.872,481.728,591.347,482.238,591.642Zm4.753,2.744,1.9,1.1a2.029,2.029,0,0,0,1.84,0c.507-.292.5-.767-.006-1.062l-1.9-1.1a2.04,2.04,0,0,0-1.841,0C486.478,593.615,486.481,594.091,486.991,594.386Zm4.753,2.744,1.9,1.1a2.033,2.033,0,0,0,1.84,0,.562.562,0,0,0-.006-1.064l-1.9-1.095a2.036,2.036,0,0,0-1.841,0A.561.561,0,0,0,491.743,597.129Zm4.754,2.745,1.9,1.1a2.04,2.04,0,0,0,1.841,0,.561.561,0,0,0-.007-1.062l-1.9-1.1a2.028,2.028,0,0,0-1.84,0C495.985,599.1,495.988,599.58,496.5,599.875Zm4.851,2.8,1.9,1.1a2.028,2.028,0,0,0,1.84,0c.507-.292.5-.767-.006-1.062l-1.9-1.1a2.04,2.04,0,0,0-1.841,0A.561.561,0,0,0,501.349,602.675Zm-63.52-31.589,1.645.948a2.314,2.314,0,0,0,2.094,0l1.633-.944a.638.638,0,0,0-.007-1.209l-1.643-.948a2.315,2.315,0,0,0-2.094,0l-1.633.943A.639.639,0,0,0,437.828,571.086Zm8.492,3.7,1.633-.943a.638.638,0,0,0-.007-1.209l-1.643-.95a2.319,2.319,0,0,0-2.094,0l-1.633.944a.638.638,0,0,0,.007,1.209l1.643.948A2.31,2.31,0,0,0,446.32,574.782Zm1.015,1.791,1.643.95a2.315,2.315,0,0,0,2.094,0l1.633-.943a.638.638,0,0,0-.006-1.209l-1.645-.95a2.315,2.315,0,0,0-2.094,0l-1.633.943A.638.638,0,0,0,447.335,576.573Zm4.753,2.745,1.643.948a2.32,2.32,0,0,0,2.094,0l1.633-.944a.638.638,0,0,0-.006-1.209l-1.645-.948a2.308,2.308,0,0,0-2.093,0l-1.635.943A.639.639,0,0,0,452.088,579.319Zm10.118,1.545-1.643-.95a2.32,2.32,0,0,0-2.094,0l-1.633.944a.638.638,0,0,0,.006,1.209l1.645.948a2.308,2.308,0,0,0,2.093,0l1.635-.943A.638.638,0,0,0,462.206,580.863Zm4.753,2.744-1.643-.95a2.315,2.315,0,0,0-2.094,0l-1.633.943a.638.638,0,0,0,.006,1.209l1.645.95a2.315,2.315,0,0,0,2.094,0l1.633-.943A.638.638,0,0,0,466.959,583.607Zm4.753,2.744-1.643-.948a2.31,2.31,0,0,0-2.094,0l-1.633.943c-.577.333-.574.874.007,1.21l1.643.948a2.319,2.319,0,0,0,2.094,0l1.633-.944A.638.638,0,0,0,471.711,586.351Zm4.754,2.744-1.645-.948a2.319,2.319,0,0,0-2.094,0l-1.633.944a.638.638,0,0,0,.007,1.209l1.643.948a2.311,2.311,0,0,0,2.094,0l1.633-.943A.639.639,0,0,0,476.466,589.095Zm4.753,2.745-1.645-.95a2.312,2.312,0,0,0-2.093,0l-1.635.943a.638.638,0,0,0,.007,1.209l1.643.95a2.315,2.315,0,0,0,2.094,0l1.633-.943A.638.638,0,0,0,481.218,591.84Zm4.753,2.744-1.643-.948a2.31,2.31,0,0,0-2.094,0l-1.633.943a.639.639,0,0,0,.006,1.21l1.645.948a2.316,2.316,0,0,0,2.093,0l1.635-.944A.638.638,0,0,0,485.971,594.584Zm-.611,3.944,1.643.948a2.31,2.31,0,0,0,2.094,0l1.633-.943a.639.639,0,0,0-.007-1.21l-1.643-.948a2.319,2.319,0,0,0-2.094,0l-1.633.944A.638.638,0,0,0,485.36,598.528Zm10.118,1.545-1.645-.95a2.315,2.315,0,0,0-2.094,0l-1.633.943a.638.638,0,0,0,.007,1.209l1.643.95a2.315,2.315,0,0,0,2.094,0l1.633-.943A.638.638,0,0,0,495.478,600.072Zm6.961,4.019-3.753-2.167a2.311,2.311,0,0,0-2.094,0l-1.633.943a.639.639,0,0,0,.006,1.21l3.753,2.166a2.31,2.31,0,0,0,2.094,0l1.633-.943A.638.638,0,0,0,502.439,604.092Zm-69.013-30.464,3.753,2.167a2.315,2.315,0,0,0,2.094,0l1.633-.943a.638.638,0,0,0-.006-1.209l-3.753-2.167a2.315,2.315,0,0,0-2.094,0l-1.633.944A.638.638,0,0,0,433.426,573.628Zm6.863,3.961,1.645.95a2.316,2.316,0,0,0,2.093,0l1.635-.944a.638.638,0,0,0-.007-1.209l-1.643-.948a2.311,2.311,0,0,0-2.094,0l-1.633.943A.638.638,0,0,0,440.289,577.589Zm6.4,3.693a2.315,2.315,0,0,0,2.094,0l1.633-.943c.577-.333.574-.874-.007-1.21l-1.643-.948a2.315,2.315,0,0,0-2.094,0l-1.633.944a.638.638,0,0,0,.006,1.209Zm4.753,2.745a2.315,2.315,0,0,0,2.094,0l1.633-.943a.638.638,0,0,0-.007-1.209l-1.643-.95a2.315,2.315,0,0,0-2.094,0l-1.633.943a.638.638,0,0,0,.007,1.209Zm4.736-.357-1.633.943a.638.638,0,0,0,.007,1.209l1.643.95a2.32,2.32,0,0,0,2.094,0l1.633-.944a.638.638,0,0,0-.006-1.209l-1.645-.948A2.311,2.311,0,0,0,456.174,583.67Zm4.854,2.685-1.834,1.059a.577.577,0,0,0,.006,1.094l1.845,1.065a2.093,2.093,0,0,0,1.894,0l1.834-1.059a.577.577,0,0,0-.006-1.094l-1.845-1.065A2.093,2.093,0,0,0,461.028,586.355Zm4.753,2.745-1.834,1.059c-.521.3-.518.789.006,1.092l1.847,1.066a2.1,2.1,0,0,0,1.892,0l1.834-1.059a.576.576,0,0,0-.006-1.092l-1.845-1.066A2.1,2.1,0,0,0,465.781,589.1Zm4.754,2.744L468.7,592.9a.576.576,0,0,0,.006,1.092l1.847,1.066a2.091,2.091,0,0,0,1.892,0l1.834-1.059a.576.576,0,0,0-.006-1.092l-1.845-1.065A2.09,2.09,0,0,0,470.535,591.844Zm4.753,2.744-1.834,1.059a.577.577,0,0,0,.006,1.093l1.845,1.065a2.09,2.09,0,0,0,1.892,0l1.835-1.059a.577.577,0,0,0-.006-1.094l-1.847-1.065A2.09,2.09,0,0,0,475.288,594.588Zm4.753,2.745-1.834,1.059c-.521.3-.518.789.006,1.092l1.845,1.066a2.1,2.1,0,0,0,1.894,0l1.834-1.059a.576.576,0,0,0-.006-1.092l-1.847-1.066A2.1,2.1,0,0,0,480.041,597.333ZM486.7,603.3l1.834-1.059c.521-.3.518-.789-.006-1.092l-1.845-1.065a2.093,2.093,0,0,0-1.894,0l-1.834,1.059a.576.576,0,0,0,.006,1.092l1.847,1.066A2.091,2.091,0,0,0,486.7,603.3Zm4.753,2.745,1.834-1.059a.577.577,0,0,0-.006-1.093l-1.845-1.065a2.091,2.091,0,0,0-1.892,0l-1.835,1.059a.577.577,0,0,0,.006,1.094l1.847,1.065A2.09,2.09,0,0,0,491.457,606.043Zm6.681.649-1.847-1.066a2.1,2.1,0,0,0-1.892,0l-1.834,1.059a.576.576,0,0,0,.006,1.092l1.845,1.066a2.1,2.1,0,0,0,1.894,0l1.834-1.059A.576.576,0,0,0,498.138,606.692Zm-69.216-30.581,5.96,3.44a2.09,2.09,0,0,0,1.892,0l1.835-1.059a.576.576,0,0,0-.007-1.092l-5.959-3.441a2.086,2.086,0,0,0-1.892,0l-1.835,1.058A.577.577,0,0,0,428.922,576.111Zm8.868,5.119,1.845,1.066a2.1,2.1,0,0,0,1.892,0l1.835-1.059a.576.576,0,0,0-.006-1.092l-1.847-1.066a2.1,2.1,0,0,0-1.892,0l-1.834,1.059A.576.576,0,0,0,437.79,581.229Zm4.753,2.745,1.845,1.065a2.089,2.089,0,0,0,1.894,0l1.834-1.058a.577.577,0,0,0-.006-1.094l-1.847-1.065a2.09,2.09,0,0,0-1.892,0l-1.834,1.059A.577.577,0,0,0,442.543,583.975Zm4.753,2.744,1.847,1.065a2.09,2.09,0,0,0,1.892,0l1.834-1.059a.577.577,0,0,0-.006-1.094l-1.845-1.065a2.089,2.089,0,0,0-1.894,0l-1.834,1.058A.577.577,0,0,0,447.3,586.718Zm8.492,3.813,1.834-1.059a.576.576,0,0,0-.006-1.092l-1.845-1.067a2.1,2.1,0,0,0-1.892,0l-1.835,1.059a.576.576,0,0,0,.006,1.092l1.847,1.066A2.1,2.1,0,0,0,455.787,590.531Zm4.753,2.744,1.835-1.058c.521-.3.518-.79-.007-1.094l-1.845-1.065a2.091,2.091,0,0,0-1.892,0l-1.834,1.059a.576.576,0,0,0,.006,1.092l1.845,1.066A2.086,2.086,0,0,0,460.54,593.275Zm4.754,2.745,1.834-1.059a.577.577,0,0,0-.006-1.093l-1.847-1.065a2.086,2.086,0,0,0-1.892,0l-1.834,1.058a.577.577,0,0,0,.006,1.094l1.845,1.065A2.093,2.093,0,0,0,465.294,596.02Zm4.753,2.744,1.834-1.059a.576.576,0,0,0-.006-1.092l-1.845-1.066a2.1,2.1,0,0,0-1.894,0L466.3,596.6a.576.576,0,0,0,.006,1.092l1.845,1.066A2.1,2.1,0,0,0,470.047,598.764Zm4.753,2.744,1.834-1.058a.577.577,0,0,0-.006-1.094l-1.845-1.065a2.093,2.093,0,0,0-1.894,0l-1.834,1.059a.576.576,0,0,0,.006,1.092l1.847,1.066A2.085,2.085,0,0,0,474.8,601.508Zm4.753,2.745,1.834-1.059a.577.577,0,0,0-.006-1.094l-1.845-1.065a2.086,2.086,0,0,0-1.892,0l-1.835,1.058c-.521.3-.518.79.007,1.094l1.845,1.065A2.09,2.09,0,0,0,479.552,604.253Zm1.015,1.674,1.845,1.066a2.1,2.1,0,0,0,1.892,0l1.835-1.059a.576.576,0,0,0-.006-1.092l-1.847-1.066a2.094,2.094,0,0,0-1.892,0l-1.834,1.059A.576.576,0,0,0,480.568,605.927Zm13.168,3.306-4.694-2.71a2.09,2.09,0,0,0-1.892,0l-1.834,1.059a.576.576,0,0,0,.006,1.092l4.694,2.711a2.1,2.1,0,0,0,1.892,0l1.834-1.059A.576.576,0,0,0,493.735,609.233Zm-69.2-30.45,8.456,4.882a2.367,2.367,0,0,0,2.139,0l1.589-.918c.589-.339.585-.893-.007-1.234l-8.455-4.881a2.359,2.359,0,0,0-2.139,0l-1.589.917A.651.651,0,0,0,424.538,578.783Zm11.61,6.7,1.6.923a2.359,2.359,0,0,0,2.139,0l1.589-.917a.651.651,0,0,0-.006-1.234l-1.6-.924a2.365,2.365,0,0,0-2.137,0l-1.59.918A.652.652,0,0,0,436.148,585.487Zm4.753,2.744,1.6.924a2.36,2.36,0,0,0,2.137,0l1.59-.917a.652.652,0,0,0-.007-1.234l-1.6-.924a2.36,2.36,0,0,0-2.137,0l-1.59.917A.652.652,0,0,0,440.9,588.23Zm4.753,2.744,1.6.924a2.365,2.365,0,0,0,2.137,0l1.59-.918a.652.652,0,0,0-.007-1.234l-1.6-.923a2.359,2.359,0,0,0-2.139,0l-1.59.917A.652.652,0,0,0,445.654,590.974Zm4.753,2.745,1.6.923a2.359,2.359,0,0,0,2.139,0l1.589-.918a.651.651,0,0,0-.007-1.233l-1.6-.924a2.368,2.368,0,0,0-2.139,0l-1.589.918A.651.651,0,0,0,450.407,593.719Zm4.754,2.744,1.6.924a2.363,2.363,0,0,0,2.139,0l1.589-.917a.651.651,0,0,0-.006-1.234l-1.6-.924a2.368,2.368,0,0,0-2.139,0l-1.589.918A.652.652,0,0,0,455.161,596.463Zm4.753,2.744,1.6.924a2.368,2.368,0,0,0,2.139,0l1.59-.918a.652.652,0,0,0-.007-1.234l-1.6-.923a2.356,2.356,0,0,0-2.137,0l-1.59.917A.652.652,0,0,0,459.914,599.207Zm4.753,2.745,1.6.923a2.356,2.356,0,0,0,2.137,0l1.59-.918a.651.651,0,0,0-.007-1.233l-1.6-.924a2.361,2.361,0,0,0-2.137,0l-1.59.918A.652.652,0,0,0,464.666,601.952Zm4.753,2.744,1.6.924a2.36,2.36,0,0,0,2.137,0l1.59-.917a.652.652,0,0,0-.007-1.234l-1.6-.924a2.368,2.368,0,0,0-2.139,0l-1.589.918A.651.651,0,0,0,469.419,604.7Zm4.753,2.744,1.6.924a2.367,2.367,0,0,0,2.139,0l1.589-.918a.652.652,0,0,0-.007-1.234l-1.6-.924a2.363,2.363,0,0,0-2.139,0l-1.589.917A.652.652,0,0,0,474.172,607.439Zm4.754,2.745,1.6.923a2.359,2.359,0,0,0,2.139,0l1.589-.918c.589-.339.587-.891-.006-1.234l-1.6-.923a2.36,2.36,0,0,0-2.137,0l-1.59.918A.652.652,0,0,0,478.926,610.185Zm10.179,1.58-1.6-.924a2.365,2.365,0,0,0-2.137,0l-1.59.918a.652.652,0,0,0,.007,1.234l1.6.923a2.356,2.356,0,0,0,2.137,0l1.59-.918A.651.651,0,0,0,489.1,611.765Zm-61.538-30.446-3.709-2.141a2.363,2.363,0,0,0-2.139,0l-1.589.918c-.589.339-.587.891.006,1.234l3.711,2.141a2.36,2.36,0,0,0,2.137,0l1.59-.917A.652.652,0,0,0,427.567,581.319Zm4.753,2.744-1.6-.924a2.363,2.363,0,0,0-2.139,0l-1.589.917a.651.651,0,0,0,.006,1.234l1.6.924a2.365,2.365,0,0,0,2.137,0l1.59-.918A.652.652,0,0,0,432.32,584.063Zm4.753,2.744-1.6-.923a2.364,2.364,0,0,0-2.139,0l-1.589.918c-.589.339-.585.891.006,1.234l1.6.923a2.363,2.363,0,0,0,2.139,0l1.589-.918C437.667,587.7,437.665,587.15,437.072,586.807Zm33.272,19.21-30.118-17.389a2.365,2.365,0,0,0-2.137,0l-1.59.918a.652.652,0,0,0,.007,1.234l30.118,17.388a2.356,2.356,0,0,0,2.137,0l1.59-.917A.652.652,0,0,0,470.345,606.017Zm4.753,2.744-1.6-.924a2.363,2.363,0,0,0-2.139,0l-1.589.917a.651.651,0,0,0,.006,1.234l1.6.924a2.365,2.365,0,0,0,2.137,0L475.1,610A.652.652,0,0,0,475.1,608.761Zm4.753,2.744-1.6-.923a2.359,2.359,0,0,0-2.139,0l-1.589.918a.65.65,0,0,0,.006,1.233l1.6.924a2.368,2.368,0,0,0,2.139,0l1.589-.918A.652.652,0,0,0,479.85,611.5Zm4.852,2.8-1.6-.924a2.364,2.364,0,0,0-2.137,0l-1.59.918a.652.652,0,0,0,.007,1.234l1.6.924a2.36,2.36,0,0,0,2.137,0l1.59-.917A.652.652,0,0,0,484.7,614.307Z" transform="translate(-396.738 -502.56)" fill="#baa8f0"/>
        <g id="Grupo_108114" data-name="Grupo 108114" transform="translate(46.555)">
          <path id="Trazado_165769" data-name="Trazado 165769" d="M503.646,620.333l-62.965-36.375c-2.438-1.407-4.414-5.183-4.414-8.433V526.132c0-3.251,1.976-4.744,4.414-3.338l62.965,36.373c2.438,1.408,4.414,5.184,4.414,8.433V617C508.06,620.246,506.083,621.74,503.646,620.333Z" transform="translate(-436.267 -521.6)" fill="#baa8f0"/>
          <path id="Trazado_165770" data-name="Trazado 165770" d="M503.476,616.948l-62.293-35.982a7.508,7.508,0,0,1-3.175-6.288V525.045a.783.783,0,0,1,1.179-.674l.138.081,62.343,36.016c2.335,1.346,3.175,3.738,3.175,6.286v49.518a.845.845,0,0,1-1.264.733Z" transform="translate(-435.529 -520.753)" fill="#24036e"/>
          <path id="Trazado_165771" data-name="Trazado 165771" d="M501.668,560.468l-62.343-36.016-.138-.081a.783.783,0,0,0-1.179.674v49.634a7.508,7.508,0,0,0,3.175,6.288l62.293,35.982.1.058a.845.845,0,0,0,1.264-.733V566.755C504.843,564.206,504,561.814,501.668,560.468Zm2.678,55.8a.35.35,0,0,1-.35.35.339.339,0,0,1-.171-.047l-62.394-36.04a6.991,6.991,0,0,1-2.926-5.858V525.045a.288.288,0,0,1,.288-.286.278.278,0,0,1,.144.04l62.482,36.1a6.4,6.4,0,0,1,2.927,5.858Z" transform="translate(-435.529 -520.753)" fill="#1a0252"/>
          <path id="Trazado_165772" data-name="Trazado 165772" d="M504.4,558.7l-62.964-36.375a2.983,2.983,0,0,0-2.583-.379c-.093.036-1.323.689-1.41.738l0,0a2.883,2.883,0,0,1,2.745.3l62.965,36.373c2.438,1.408,4.414,5.184,4.414,8.433v49.394c0,2.029-.77,3.373-1.942,3.755a.729.729,0,0,0,.387-.131c.055-.033,1.391-.786,1.445-.823a4.076,4.076,0,0,0,1.36-3.464V567.136C508.813,563.885,506.837,560.109,504.4,558.7Z" transform="translate(-435.77 -521.798)" fill="#623fd1"/>
          <path id="Trazado_165773" data-name="Trazado 165773" d="M504.4,558.7l-62.964-36.375a2.983,2.983,0,0,0-2.583-.379c-.093.036-1.323.689-1.41.738l0,0a2.883,2.883,0,0,1,2.745.3l62.965,36.373Z" transform="translate(-435.77 -521.798)" fill="#704fdb"/>
          <path id="Trazado_165774" data-name="Trazado 165774" d="M503.272,559.093l-62.965-36.373a2.928,2.928,0,0,0-2.658-.34,3.264,3.264,0,0,1,2.129.5l62.965,36.375c2.438,1.407,4.412,5.183,4.412,8.433v49.393c0,1.918-.691,3.218-1.754,3.678,1.361-.216,2.284-1.616,2.284-3.836V567.526C507.685,564.276,505.71,560.5,503.272,559.093Z" transform="translate(-435.681 -521.63)" fill="#fff" style="mix-blend-mode: screen;isolation: isolate"/>
        </g>
      </g>
    </g>
    <path id="Trazado_165775" data-name="Trazado 165775" d="M517.114,558.791l-52.636-29.909c-.134,7.007-.013,28.962-.051,36.136-.064,11.616-1.8,20.765-15.212,31.262-4.266,3.34-23.092,13.6-38.368,21.624-6.2,3.256-6.668,4.63-9.8,7.284a62.111,62.111,0,0,1-9.058,5.758l52.288,30.234a62.189,62.189,0,0,0,9.4-5.96c3.134-2.654,3.6-5.486,9.8-8.742,15.276-8.028,41.448-24.1,46.1-26.889,5.96-3.575,7.485-5.828,7.485-15.232C517.06,597.142,516.976,565.668,517.114,558.791Z" transform="translate(3.436 3.002)" fill="#180046" opacity="0.1"/>
    <path id="Trazado_165776" data-name="Trazado 165776" d="M516.888,558.94l-52.636-29.909c-.134,3.35-.013,31.144-.051,38.318-.064,11.616-1.8,14.926-15.212,25.423-4.266,3.34-23.092,13.6-38.368,21.624-6.2,3.256-7.2,7.412-10.331,10.067-3.037,2.573-6.4,3.276-7.767,4.069l52.286,30.235c.978-.579,4.774-1.444,8.114-4.273,3.134-2.654,4.133-6.81,10.331-10.066,15.276-8.028,34.1-18.283,38.368-21.624,13.411-10.5,15.148-13.807,15.212-25.423C516.873,590.166,516.749,562.161,516.888,558.94Z" transform="translate(3.663 3.066)" fill="#fff"/>
    <g id="Grupo_108118" data-name="Grupo 108118" transform="translate(408.254 555.287)">
      <path id="Trazado_165777" data-name="Trazado 165777" d="M419.774,590.118c-.551.3-1.092.587-1.625.873l37.035,21.444,1.652-.877Z" transform="translate(-393.729 -526.33)" fill="#baa8f0"/>
      <path id="Trazado_165778" data-name="Trazado 165778" d="M422.186,588.816l-1.62.876,37.072,21.444,1.647-.88Z" transform="translate(-392.704 -526.882)" fill="#baa8f0"/>
      <path id="Trazado_165779" data-name="Trazado 165779" d="M426.982,586.191q-.8.442-1.607.886l37.149,21.447q.829-.448,1.637-.89Z" transform="translate(-390.667 -527.995)" fill="#baa8f0"/>
      <path id="Trazado_165780" data-name="Trazado 165780" d="M424.59,587.507l-1.615.881,37.109,21.444q.831-.446,1.643-.886Z" transform="translate(-391.683 -527.437)" fill="#baa8f0"/>
      <path id="Trazado_165781" data-name="Trazado 165781" d="M429.357,584.866c-.527.3-1.061.594-1.6.893l37.192,21.45q.829-.455,1.629-.9Z" transform="translate(-389.655 -528.556)" fill="#baa8f0"/>
      <path id="Trazado_165782" data-name="Trazado 165782" d="M410.719,589.764c-.572.3-1.838.891-2.351,1.162L437.2,607.506c.481-.318,1.71-.927,2.258-1.233Z" transform="translate(-397.874 -526.48)" fill="#0f10ba"/>
      <path id="Trazado_165783" data-name="Trazado 165783" d="M407.558,591.259l-.729.384c-.31.162-.6.329-.878.5l44.707,25.779q.594-.547,1.28-1.089Z" transform="translate(-398.899 -525.846)" fill="#baa8f0"/>
      <path id="Trazado_165784" data-name="Trazado 165784" d="M427.565,580.521c-.52.3-1.82.987-2.356,1.29l30.124,17.265c.551-.3,1.867-1,2.395-1.29Z" transform="translate(-390.736 -530.398)" fill="#0f10ba"/>
      <path id="Trazado_165785" data-name="Trazado 165785" d="M402.006,596.233c-.318.411-.652.822-1.008,1.226l44.972,25.988c.241-.175.48-.36.713-.558a6.975,6.975,0,0,0,.56-.534Z" transform="translate(-400.998 -523.738)" fill="#baa8f0"/>
      <path id="Trazado_165786" data-name="Trazado 165786" d="M445.739,548.455l27.254,15.251c0-.776,0-2.123,0-2.869l-27.255-15.518v.853Z" transform="translate(-382.037 -545.318)" fill="#0f10ba"/>
      <path id="Trazado_165787" data-name="Trazado 165787" d="M445.742,550.729l44.444,25.02q0-.547,0-1.1v-.73l-44.445-24.985Q445.741,549.851,445.742,550.729Z" transform="translate(-382.035 -543.785)" fill="#baa8f0"/>
      <path id="Trazado_165788" data-name="Trazado 165788" d="M405.194,592.652a13.975,13.975,0,0,0-1.227,1.1l45.194,26.078q.489-.6,1.057-1.217Z" transform="translate(-399.74 -525.256)" fill="#baa8f0"/>
      <path id="Trazado_165789" data-name="Trazado 165789" d="M403.417,594.363c-.333.411-.649.829-.964,1.252l45.307,26.163c.177-.232.355-.471.54-.72l.416-.555Z" transform="translate(-400.381 -524.531)" fill="#baa8f0"/>
      <path id="Trazado_165790" data-name="Trazado 165790" d="M443.863,566.477c-.256.446-.537.889-.836,1.33l45.537,25.857a14.826,14.826,0,0,0,.854-1.35Z" transform="translate(-383.185 -536.35)" fill="#baa8f0"/>
      <path id="Trazado_165791" data-name="Trazado 165791" d="M444.79,564.357c-.182.5-.386.981-.608,1.461l45.5,25.806a13.512,13.512,0,0,0,.5-1.552Z" transform="translate(-382.695 -537.249)" fill="#baa8f0"/>
      <path id="Trazado_165792" data-name="Trazado 165792" d="M445.361,561.348c-.108.545-.231,2.06-.37,2.579l36.792,20.748c.08-.551.14-2.109.185-2.714Z" transform="translate(-382.352 -538.524)" fill="#0f10ba"/>
      <path id="Trazado_165793" data-name="Trazado 165793" d="M445.742,551.608v1.8l44.448,25.055q0-.9,0-1.83Z" transform="translate(-382.034 -542.652)" fill="#baa8f0"/>
      <path id="Trazado_165794" data-name="Trazado 165794" d="M445.742,554.282c0,.669,0,1.273,0,1.794l44.456,25.092q0-.88,0-1.83Z" transform="translate(-382.035 -541.519)" fill="#baa8f0"/>
      <path id="Trazado_165795" data-name="Trazado 165795" d="M445.741,556.948c-.013.608-.033,1.195-.06,1.766l44.535,25.169c0-.554,0-1.167,0-1.83Z" transform="translate(-382.06 -540.389)" fill="#baa8f0"/>
      <path id="Trazado_165796" data-name="Trazado 165796" d="M435.562,575.1c-.43.345-.871.693-1.327,1.051L479.006,601.7c.577-.367,1.072-.693,1.494-.982Z" transform="translate(-386.911 -532.696)" fill="#baa8f0"/>
      <path id="Trazado_165797" data-name="Trazado 165797" d="M433.591,576.638c-.431.3-.923.625-1.462.972l44.511,25.43q.833-.493,1.563-.938Z" transform="translate(-387.803 -532.043)" fill="#baa8f0"/>
      <path id="Trazado_165798" data-name="Trazado 165798" d="M431.4,578.065q-.728.451-1.532.933l44.39,25.384q.829-.476,1.593-.921Z" transform="translate(-388.76 -531.439)" fill="#baa8f0"/>
      <path id="Trazado_165799" data-name="Trazado 165799" d="M442.6,568.411c-.322.407-.656.816-1.018,1.227l45.4,25.808c.4-.411.765-.813,1.1-1.207Z" transform="translate(-383.798 -535.53)" fill="#baa8f0"/>
      <path id="Trazado_165800" data-name="Trazado 165800" d="M439.921,571.446c-.4.362-1.391,1.363-1.821,1.737l32.145,18.286c.457-.374,1.475-1.37,1.892-1.723Z" transform="translate(-385.273 -534.244)" fill="#0f10ba"/>
      <path id="Trazado_165801" data-name="Trazado 165801" d="M437.489,573.516q-.626.523-1.293,1.069l45,25.662q.7-.549,1.346-1.066Z" transform="translate(-386.08 -533.367)" fill="#baa8f0"/>
      <g id="Grupo_108117" data-name="Grupo 108117" transform="translate(22.369 54.831)">
        <path id="Trazado_165802" data-name="Trazado 165802" d="M428.5,585.226a2.217,2.217,0,0,1-2,0,.611.611,0,0,1-.007-1.158,2.219,2.219,0,0,1,2,0A.611.611,0,0,1,428.5,585.226Z" transform="translate(-412.735 -583.827)" fill="#0f10ba"/>
        <path id="Trazado_165803" data-name="Trazado 165803" d="M426.161,586.517a2.215,2.215,0,0,1-2,0c-.555-.322-.558-.839-.006-1.158a2.215,2.215,0,0,1,2,0C426.711,585.682,426.714,586.2,426.161,586.517Z" transform="translate(-413.729 -583.28)" fill="#0f10ba"/>
        <path id="Trazado_165804" data-name="Trazado 165804" d="M423.818,587.81a2.22,2.22,0,0,1-2,0,.611.611,0,0,1-.006-1.158,2.212,2.212,0,0,1,2,0A.611.611,0,0,1,423.818,587.81Z" transform="translate(-414.722 -582.733)" fill="#0f10ba"/>
        <path id="Trazado_165805" data-name="Trazado 165805" d="M421.474,589.1a2.208,2.208,0,0,1-2,0,.61.61,0,0,1-.007-1.156,2.215,2.215,0,0,1,2,0A.611.611,0,0,1,421.474,589.1Z" transform="translate(-415.715 -582.186)" fill="#0f10ba"/>
        <path id="Trazado_165806" data-name="Trazado 165806" d="M419.131,590.391a2.215,2.215,0,0,1-2,0,.611.611,0,0,1-.006-1.158,2.211,2.211,0,0,1,2,0A.61.61,0,0,1,419.131,590.391Z" transform="translate(-416.708 -581.638)" fill="#0f10ba"/>
      </g>
    </g>
    <g id="Grupo_108128" data-name="Grupo 108128" transform="translate(425.592 524.965)">
      <g id="Grupo_108119" data-name="Grupo 108119" transform="translate(28.232)">
        <path id="Trazado_165807" data-name="Trazado 165807" d="M433,599.426s20.253-.587,27.852-4.385,11.4-14.9,11.4-20.458.876-19,.876-19a60.339,60.339,0,0,1-19.289-11.106c-5.624-4.771-16.074-20.458-16.074-20.458V574C437.766,584.518,433,599.426,433,599.426Z" transform="translate(-433.003 -524.022)" opacity="0.1" fill="url(#linear-gradient)" style="mix-blend-mode: multiply;isolation: isolate"/>
        <path id="Trazado_165808" data-name="Trazado 165808" d="M433,599.139s19.8-.7,27.238-4.459c7.589-3.869,11.267-14.8,11.267-20.248s.86-19.105.86-19.105a54.308,54.308,0,0,1-18.923-10.561c-5.517-4.682-15.769-20.069-15.769-20.069v49.5C437.676,584.515,433,599.139,433,599.139Z" transform="translate(-433.003 -523.736)" opacity="0.143" fill="url(#linear-gradient-2)" style="mix-blend-mode: multiply;isolation: isolate"/>
        <path id="Trazado_165809" data-name="Trazado 165809" d="M433,598.854s19.366-.792,26.626-4.535c7.592-3.911,11.134-14.694,11.134-20.036s.844-19.215.844-19.215a48.936,48.936,0,0,1-18.558-10.015c-5.411-4.59-15.464-19.682-15.464-19.682v49.018C437.585,584.511,433,598.854,433,598.854Z" transform="translate(-433.003 -523.45)" opacity="0.186" fill="url(#linear-gradient-3)" style="mix-blend-mode: multiply;isolation: isolate"/>
        <path id="Trazado_165810" data-name="Trazado 165810" d="M433,598.568s18.921-.9,26.014-4.609c7.588-3.97,11-14.589,11-19.825s.826-19.324.826-19.324a44.1,44.1,0,0,1-18.191-9.47c-5.305-4.5-15.16-19.295-15.16-19.295v48.542C437.5,584.509,433,598.568,433,598.568Z" transform="translate(-433.003 -523.164)" opacity="0.229" fill="url(#linear-gradient-4)" style="mix-blend-mode: multiply;isolation: isolate"/>
        <path id="Trazado_165811" data-name="Trazado 165811" d="M433,598.282s18.477-1,25.4-4.683c7.582-4.028,10.871-14.485,10.871-19.616s.81-19.433.81-19.433a39.8,39.8,0,0,1-17.826-8.925c-5.2-4.41-14.853-18.906-14.853-18.906v48.063C437.406,584.506,433,598.282,433,598.282Z" transform="translate(-433.003 -522.878)" opacity="0.271" fill="url(#linear-gradient-5)" style="mix-blend-mode: multiply;isolation: isolate"/>
        <path id="Trazado_165812" data-name="Trazado 165812" d="M433,598s18.031-1.111,24.789-4.757c7.578-4.088,10.739-14.379,10.739-19.405s.794-19.542.794-19.542-8.731-.971-17.461-8.379c-5.092-4.32-14.55-18.518-14.55-18.518v47.585C437.314,584.5,433,598,433,598Z" transform="translate(-433.003 -522.593)" opacity="0.314" fill="url(#linear-gradient-6)" style="mix-blend-mode: multiply;isolation: isolate"/>
        <path id="Trazado_165813" data-name="Trazado 165813" d="M433,597.71s17.586-1.22,24.177-4.831c7.572-4.149,10.608-14.274,10.608-19.195s.776-19.652.776-19.652-8.547-.581-17.093-7.834c-4.985-4.229-14.245-18.13-14.245-18.13v47.106C437.225,584.5,433,597.71,433,597.71Z" transform="translate(-433.003 -522.307)" opacity="0.357" fill="url(#linear-gradient-7)" style="mix-blend-mode: multiply;isolation: isolate"/>
        <path id="Trazado_165814" data-name="Trazado 165814" d="M433,597.425s17.14-1.33,23.565-4.905c7.566-4.212,10.475-14.169,10.475-18.985s.76-19.761.76-19.761-8.364-.189-16.729-7.287c-4.878-4.139-13.941-17.742-13.941-17.742v46.629C437.134,584.5,433,597.425,433,597.425Z" transform="translate(-433.003 -522.021)" opacity="0.4" fill="url(#linear-gradient-8)" style="mix-blend-mode: multiply;isolation: isolate"/>
        <path id="Trazado_165815" data-name="Trazado 165815" d="M433,597.139s16.693-1.441,22.952-4.979c7.559-4.274,10.343-14.065,10.343-18.775s.745-19.871.745-19.871-8.181.2-16.363-6.742c-4.771-4.048-13.636-17.354-13.636-17.354v46.149C437.044,584.493,433,597.139,433,597.139Z" transform="translate(-433.003 -521.735)" opacity="0.443" fill="url(#linear-gradient-9)" style="mix-blend-mode: multiply;isolation: isolate"/>
        <path id="Trazado_165816" data-name="Trazado 165816" d="M433,596.853s16.246-1.553,22.34-5.053c7.552-4.339,10.212-13.959,10.212-18.564s.726-19.981.726-19.981-8,.591-16-6.2c-4.664-3.958-13.331-16.967-13.331-16.967v45.672C436.953,584.49,433,596.853,433,596.853Z" transform="translate(-433.003 -521.449)" opacity="0.486" fill="url(#linear-gradient-10)" style="mix-blend-mode: multiply;isolation: isolate"/>
        <path id="Trazado_165817" data-name="Trazado 165817" d="M433,596.567s15.8-1.667,21.728-5.129c7.545-4.4,10.079-13.853,10.079-18.353s.711-20.089.711-20.089-7.815.981-15.631-5.651c-4.559-3.867-13.027-16.579-13.027-16.579V575.96C436.863,584.487,433,596.567,433,596.567Z" transform="translate(-433.003 -521.164)" opacity="0.529" fill="url(#linear-gradient-11)" style="mix-blend-mode: multiply;isolation: isolate"/>
        <path id="Trazado_165818" data-name="Trazado 165818" d="M433,596.281s15.349-1.781,21.116-5.2c7.536-4.469,9.947-13.749,9.947-18.143s.695-20.2.695-20.2-7.633,1.371-15.266-5.106c-4.451-3.776-12.721-16.19-12.721-16.19v44.716C436.773,584.483,433,596.281,433,596.281Z" transform="translate(-433.003 -520.878)" opacity="0.571" fill="url(#linear-gradient-12)" style="mix-blend-mode: multiply;isolation: isolate"/>
        <path id="Trazado_165819" data-name="Trazado 165819" d="M433,596s14.9-1.9,20.5-5.277c7.528-4.538,9.816-13.643,9.816-17.932s.676-20.308.676-20.308-7.45,1.761-14.9-4.561c-4.346-3.686-12.417-15.8-12.417-15.8v44.239C436.682,584.481,433,596,433,596Z" transform="translate(-433.003 -520.592)" opacity="0.614" fill="url(#linear-gradient-13)" style="mix-blend-mode: multiply;isolation: isolate"/>
        <path id="Trazado_165820" data-name="Trazado 165820" d="M433,595.709s14.449-2.015,19.891-5.351c7.516-4.607,9.684-13.538,9.684-17.722s.661-20.416.661-20.416-7.267,2.151-14.535-4.015c-4.237-3.6-12.111-15.414-12.111-15.414v43.759C436.592,584.477,433,595.709,433,595.709Z" transform="translate(-433.003 -520.306)" opacity="0.657" fill="url(#linear-gradient-14)" style="mix-blend-mode: multiply;isolation: isolate"/>
        <path id="Trazado_165821" data-name="Trazado 165821" d="M433,595.424s14-2.133,19.279-5.425c7.505-4.68,9.553-13.434,9.553-17.512s.644-20.526.644-20.526-7.085,2.542-14.169-3.47c-4.132-3.505-11.808-15.027-11.808-15.027v43.282C436.5,584.474,433,595.424,433,595.424Z" transform="translate(-433.003 -520.02)" opacity="0.7" fill="url(#linear-gradient-15)" style="mix-blend-mode: multiply;isolation: isolate"/>
        <path id="Trazado_165822" data-name="Trazado 165822" d="M433,595.138s13.546-2.253,18.667-5.5c7.494-4.753,9.42-13.328,9.42-17.3s.628-20.634.628-20.634-6.9,2.932-13.8-2.925c-4.024-3.414-11.5-14.64-11.5-14.64v42.8C436.412,584.471,433,595.138,433,595.138Z" transform="translate(-433.003 -519.734)" opacity="0.743" fill="url(#linear-gradient-16)" style="mix-blend-mode: multiply;isolation: isolate"/>
        <path id="Trazado_165823" data-name="Trazado 165823" d="M433,594.852s13.094-2.372,18.053-5.573c7.481-4.828,9.289-13.223,9.289-17.092s.611-20.744.611-20.744a12.686,12.686,0,0,1-13.437-2.379c-3.918-3.325-11.2-14.251-11.2-14.251v42.325C436.321,584.468,433,594.852,433,594.852Z" transform="translate(-433.003 -519.448)" opacity="0.786" fill="url(#linear-gradient-17)" style="mix-blend-mode: multiply;isolation: isolate"/>
        <path id="Trazado_165824" data-name="Trazado 165824" d="M433,594.566s12.641-2.493,17.441-5.647a20.977,20.977,0,0,0,9.158-16.881c0-3.763.594-20.854.594-20.854a11.7,11.7,0,0,1-13.072-1.834c-3.81-3.234-10.892-13.864-10.892-13.864v41.848C436.231,584.464,433,594.566,433,594.566Z" transform="translate(-433.003 -519.163)" opacity="0.829" fill="url(#linear-gradient-18)" style="mix-blend-mode: multiply;isolation: isolate"/>
        <path id="Trazado_165825" data-name="Trazado 165825" d="M433,594.28s12.187-2.616,16.828-5.722a20.717,20.717,0,0,0,9.026-16.67c0-3.658.578-20.962.578-20.962a10.838,10.838,0,0,1-12.706-1.289c-3.7-3.144-10.588-13.475-10.588-13.475V577.53C436.141,584.461,433,594.28,433,594.28Z" transform="translate(-433.003 -518.877)" opacity="0.871" fill="url(#linear-gradient-19)" style="mix-blend-mode: multiply;isolation: isolate"/>
        <path id="Trazado_165826" data-name="Trazado 165826" d="M433,593.995s11.732-2.739,16.216-5.8a20.461,20.461,0,0,0,8.893-16.46c0-3.552.561-21.071.561-21.071a10.082,10.082,0,0,1-12.34-.743c-3.6-3.053-10.283-13.088-10.283-13.088v40.891C436.05,584.458,433,593.995,433,593.995Z" transform="translate(-433.003 -518.591)" opacity="0.914" fill="url(#linear-gradient-20)" style="mix-blend-mode: multiply;isolation: isolate"/>
        <path id="Trazado_165827" data-name="Trazado 165827" d="M433,593.708s11.277-2.863,15.6-5.87a20.214,20.214,0,0,0,8.762-16.249c0-3.447.544-21.182.544-21.182s-5.987,4.884-11.974-.2c-3.491-2.963-9.978-12.7-9.978-12.7v40.411C435.96,584.455,433,593.708,433,593.708Z" transform="translate(-433.003 -518.305)" opacity="0.957" fill="url(#linear-gradient-21)" style="mix-blend-mode: multiply;isolation: isolate"/>
        <path id="Trazado_165828" data-name="Trazado 165828" d="M433,593.423s10.82-2.989,14.992-5.944a19.972,19.972,0,0,0,8.63-16.04c0-3.342.528-21.291.528-21.291s-5.8,5.274-11.609.349c-3.386-2.872-9.675-12.312-9.675-12.312v39.934C435.869,584.451,433,593.423,433,593.423Z" transform="translate(-433.003 -518.019)" fill="url(#linear-gradient-22)" style="mix-blend-mode: multiply;isolation: isolate"/>
      </g>
      <path id="Trazado_165829" data-name="Trazado 165829" d="M460.035,555.836c-7.381-4.176-14.6-11.3-20.648-20.378l-.081-.047c-6.048,2.092-13.266.883-20.648-3.466l-.282-.165.4,13.793c1.4,21.38,8.693,30.687,20.429,50.565l.286.165c11.737-6.325,19.03-7.21,20.431-26.975l.4-13.333Z" transform="translate(-410.971 -520.734)" fill="#baa8f0"/>
      <path id="Trazado_165830" data-name="Trazado 165830" d="M464.176,553.608c-7.383-4.176-14.6-11.3-20.648-20.378l-.083-.048c-6.048,2.093-13.266.884-20.648-3.464l-.282-.167-4.085,3.221.2.118c7.383,4.348,14.6,5.557,20.648,3.466l.081.047c6.05,9.077,13.267,16.2,20.65,20.378l.282.159-.4,13.333c-.914,12.9-4.34,17.757-9.871,21.333,6.911-4.082,13.007-10.007,14.035-24.506l.4-13.333Z" transform="translate(-410.948 -521.679)" fill="#dcd1ff"/>
      <path id="Trazado_165831" data-name="Trazado 165831" d="M458.251,552.687l-.282-.16c-7.383-4.176-14.6-11.3-20.648-20.378l-.083-.048-4.163,3.174.081.047c6.05,9.077,13.267,16.2,20.65,20.378l.282.159Z" transform="translate(-404.741 -520.598)" fill="#dcd1ff"/>
      <path id="Trazado_165832" data-name="Trazado 165832" d="M450.89,549.731l-.4,13.333c-.914,12.9-4.34,17.757-9.871,21.333,6.911-4.082,13.007-10.007,14.035-24.506l.4-13.333Z" transform="translate(-401.543 -514.47)" fill="#8e72e8"/>
      <path id="Trazado_165833" data-name="Trazado 165833" d="M436.559,584.917c-9.111-15.114-13.694-22.717-14.8-39.3l-.252-8.708c5.851,2.645,11.458,3.488,16.511,2.483a73.56,73.56,0,0,0,16.509,16.581l-.252,8.418c-1.1,15.312-5.688,17.624-14.8,22.218-.477.241-.961.485-1.457.738Q437.273,586.105,436.559,584.917Z" transform="translate(-409.643 -518.562)" fill="#300894"/>
      <ellipse id="Elipse_4995" data-name="Elipse 4995" cx="12.626" cy="21.87" rx="12.626" ry="21.87" transform="translate(5.765 30.418) rotate(-30.311)" fill="url(#radial-gradient)" style="mix-blend-mode: multiply;isolation: isolate"/>
      <path id="Trazado_165834" data-name="Trazado 165834" d="M440.221,585.945c-.476.242-.961.486-1.457.738q-.745-1.237-1.459-2.425c-9.111-15.113-13.694-22.716-14.8-39.3l-.224-7.713c-.258-.11-.515-.219-.775-.336l.252,8.708c1.1,16.586,5.688,24.19,14.8,39.3q.715,1.188,1.459,2.425c.5-.252.98-.5,1.457-.738,3.718-1.874,6.682-3.369,8.963-5.522A43,43,0,0,1,440.221,585.945Z" transform="translate(-409.643 -518.562)" fill="#180046"/>
      <path id="Trazado_165835" data-name="Trazado 165835" d="M460.218,555.6c-7.383-4.176-14.6-11.3-20.65-20.378l-.081-.047c-6.05,2.092-13.266.883-20.648-3.466l-.269.285c7.368,4.33,14.572,5.533,20.61,3.444l.083.047c6.048,9.077,13.266,16.2,20.648,20.378l.282.159-.4,13.333c-.759,10.7-3.246,15.87-7.233,19.363,4.166-3.5,6.762-8.648,7.541-19.626l.4-13.333Z" transform="translate(-410.889 -520.763)" fill="#fff"/>
      <g id="Grupo_108120" data-name="Grupo 108120" transform="translate(0 20.616)">
        <path id="Trazado_165836" data-name="Trazado 165836" d="M413.468,552.943a.292.292,0,0,1-.293-.292q0-.6.029-1.182a.292.292,0,1,1,.582.027c-.017.377-.026.763-.026,1.155A.291.291,0,0,1,413.468,552.943Zm.174-2.915-.037,0a.291.291,0,0,1-.253-.325c.05-.4.11-.792.181-1.173a.292.292,0,0,1,.574.107q-.1.555-.175,1.138A.292.292,0,0,1,413.642,550.028Zm.58-2.859a.268.268,0,0,1-.081-.013.291.291,0,0,1-.2-.362c.112-.384.238-.765.374-1.129a.293.293,0,1,1,.548.205c-.131.35-.253.716-.362,1.088A.293.293,0,0,1,414.222,547.169Zm1.086-2.707a.3.3,0,0,1-.138-.034.294.294,0,0,1-.121-.4c.189-.353.394-.7.612-1.028a.293.293,0,0,1,.488.323c-.208.313-.4.642-.584.98A.294.294,0,0,1,415.308,544.462Zm1.683-2.378a.291.291,0,0,1-.214-.491,9.764,9.764,0,0,1,.873-.827.292.292,0,1,1,.374.447,9.4,9.4,0,0,0-.822.78A.289.289,0,0,1,416.991,542.085Zm2.284-1.8a.293.293,0,0,1-.142-.548,9.6,9.6,0,0,1,1.083-.523.292.292,0,0,1,.222.541,8.842,8.842,0,0,0-1.019.491A.294.294,0,0,1,419.275,540.285ZM422,539.264a.292.292,0,0,1-.06-.578,11.02,11.02,0,0,1,1.186-.184.3.3,0,0,1,.319.262.293.293,0,0,1-.262.32,10.234,10.234,0,0,0-1.122.174A.307.307,0,0,1,422,539.264Z" transform="translate(-413.175 -538.501)" fill="#baa8f0"/>
      </g>
      <g id="Grupo_108121" data-name="Grupo 108121" transform="translate(3.186 48.633)">
        <path id="Trazado_165837" data-name="Trazado 165837" d="M424.2,571.976a.293.293,0,0,1-.215-.094c-.263-.288-.525-.581-.784-.877a.293.293,0,1,1,.441-.384q.382.44.773.866a.292.292,0,0,1-.215.49Zm-1.9-2.216a.3.3,0,0,1-.228-.11q-.367-.457-.725-.927a.292.292,0,1,1,.464-.355c.236.309.474.614.716.916a.291.291,0,0,1-.046.41A.284.284,0,0,1,422.3,569.761Zm-1.754-2.336a.29.29,0,0,1-.239-.124q-.337-.481-.665-.971a.292.292,0,0,1,.486-.325q.322.485.658.96a.292.292,0,0,1-.239.46Zm-1.608-2.44a.3.3,0,0,1-.249-.14c-.205-.333-.406-.671-.6-1.008a.293.293,0,1,1,.505-.295q.29.5.6,1a.293.293,0,0,1-.249.446Zm-1.457-2.534a.292.292,0,0,1-.258-.154c-.185-.346-.366-.695-.541-1.044a.292.292,0,1,1,.521-.263c.174.346.353.689.535,1.031a.292.292,0,0,1-.12.4A.3.3,0,0,1,417.478,562.449Zm-1.3-2.618a.291.291,0,0,1-.265-.169q-.246-.536-.477-1.076a.292.292,0,0,1,.537-.229q.229.532.471,1.062a.292.292,0,0,1-.144.387A.31.31,0,0,1,416.178,559.831Z" transform="translate(-415.412 -558.178)" fill="#baa8f0"/>
      </g>
      <g id="Grupo_108122" data-name="Grupo 108122" transform="translate(4.951 26.888)">
        <path id="Trazado_165838" data-name="Trazado 165838" d="M431.494,579.2c-8.184-4.724-14.842-16.209-14.842-25.6,0-4.593,1.569-8.028,4.418-9.674,2.873-1.659,6.678-1.289,10.716,1.042a23.945,23.945,0,0,1,3.97,2.907l-.389.436a23.436,23.436,0,0,0-3.873-2.838c-3.849-2.221-7.447-2.591-10.132-1.041-2.66,1.536-4.125,4.791-4.125,9.167,0,9.2,6.527,20.462,14.549,25.094Z" transform="translate(-416.652 -542.906)" fill="#f79261"/>
      </g>
      <path id="Trazado_165839" data-name="Trazado 165839" d="M428.288,568.986c-.023.481-.353.691-.738.468a1.5,1.5,0,0,1-.654-1.271c.023-.481.352-.691.736-.469A1.51,1.51,0,0,1,428.288,568.986Z" transform="translate(-407.359 -505.541)" fill="#eb7b46"/>
      <g id="Grupo_108123" data-name="Grupo 108123" transform="translate(22.156 30.319)">
        <path id="Trazado_165840" data-name="Trazado 165840" d="M431.218,547.688l-2.26-.565a.292.292,0,1,1,.141-.567l1.186.3-.423-1.142a.292.292,0,1,1,.548-.2Z" transform="translate(-428.736 -545.316)" fill="#f79261"/>
      </g>
      <g id="Grupo_108127" data-name="Grupo 108127" transform="translate(8.58 30.892)">
        <g id="Grupo_108124" data-name="Grupo 108124" transform="translate(0.108)">
          <path id="Trazado_165841" data-name="Trazado 165841" d="M422.149,555.235c.161-5.856,4.418-8.184,9.641-5.17a19.822,19.822,0,0,1,6.873,7.28l1.928-.484a24.924,24.924,0,0,0-8.8-9.5c-6.572-3.794-11.926-.794-12.007,6.679l1.542,1.4Z" transform="translate(-419.063 -545.718)" fill="#f5d500"/>
          <path id="Trazado_165842" data-name="Trazado 165842" d="M436.844,570.539a8.293,8.293,0,0,1-4.84-1.287c-4.948-2.856-9.031-9.507-9.585-15.336l-2.358-1.187c0,.043-.789.2-.785.245.682,7.256,6.568,15.426,12.728,18.981,2.237,1.291,3.75,1.971,5.544,1.78.075-.009.732-.2.806-.205Z" transform="translate(-419.277 -542.747)" fill="#f5d500"/>
          <path id="Trazado_165843" data-name="Trazado 165843" d="M434.212,555.272a18.444,18.444,0,0,1,1.87,7.6c0,3.5-1.427,5.8-3.642,6.551l1.492,2.954c2.744-.943,4.5-3.8,4.5-8.146a22.94,22.94,0,0,0-2.308-9.444Z" transform="translate(-413.698 -541.874)" fill="#f5d500"/>
        </g>
        <path id="Trazado_165844" data-name="Trazado 165844" d="M433.024,561.79a8.223,8.223,0,0,1-1.693-2.028c-.281-.468-.271-.977,0-1.136a2.159,2.159,0,0,0,.864-.964c.3.083.665-.027.665-.434a1.608,1.608,0,0,0-.429-1.095,5.384,5.384,0,0,0-2.722-4.781,2.536,2.536,0,0,0-1.655-.467c-.094.017-.9.231-.982.27-.554.275-.044.87-.085,1.834-.245-.056-.429.185-.429.6a1.963,1.963,0,0,0,.665,1.2,9.609,9.609,0,0,0,.864,1.962c.272.473.282.992,0,1.138a2.232,2.232,0,0,1-1.693.073,1.264,1.264,0,0,0-.708-.029c-.06.016-.787.205-.841.232-.379.189.054.466.054,1.111v1.832a1.233,1.233,0,0,0,.56.965l7.851,5.2c.135.078.907-.2,1-.232a.365.365,0,0,0,.2-.377v-1.831A4.36,4.36,0,0,0,433.024,561.79Z" transform="translate(-416.873 -543.537)" fill="#f5d500"/>
        <g id="Grupo_108125" data-name="Grupo 108125" transform="translate(0.302 0.151)">
          <path id="Trazado_165845" data-name="Trazado 165845" d="M421.779,555.341c.159-5.856,4.417-8.186,9.639-5.17a19.837,19.837,0,0,1,6.874,7.28l1.926-.484a24.914,24.914,0,0,0-8.8-9.5c-6.572-3.794-11.926-.794-12.006,6.679Z" transform="translate(-419.413 -545.824)" fill="#fff"/>
          <path id="Trazado_165846" data-name="Trazado 165846" d="M436.241,570.645a8.3,8.3,0,0,1-4.841-1.287c-4.946-2.856-9.031-9.507-9.585-15.336l-2.358-1.188c.634,7.286,5.748,15.649,11.943,19.226a10.086,10.086,0,0,0,6.35,1.575Z" transform="translate(-419.394 -542.854)" fill="#fff"/>
          <path id="Trazado_165847" data-name="Trazado 165847" d="M433.841,555.378a18.42,18.42,0,0,1,1.87,7.6c0,3.5-1.427,5.8-3.642,6.551l1.492,2.954c2.744-.943,4.505-3.8,4.505-8.146a22.92,22.92,0,0,0-2.31-9.444Z" transform="translate(-414.049 -541.98)" fill="#fff"/>
        </g>
        <path id="Trazado_165848" data-name="Trazado 165848" d="M432.591,561.9a8.25,8.25,0,0,1-1.693-2.026c-.281-.468-.271-.977,0-1.136a2.167,2.167,0,0,0,.864-.964c.3.083.665-.027.665-.434A1.608,1.608,0,0,0,432,556.24a5.389,5.389,0,0,0-2.724-4.783c-2.043-1.179-2.65-.054-2.722,1.639-.245-.056-.429.185-.429.6a1.974,1.974,0,0,0,.665,1.2,9.689,9.689,0,0,0,.864,1.962c.272.473.282.992,0,1.138a2.235,2.235,0,0,1-1.694.073c-.857-.261-1.5.258-1.5,1.314v1.831a1.231,1.231,0,0,0,.561.967l8.5,4.905c.309.179.56.036.56-.319v-1.832A4.36,4.36,0,0,0,432.591,561.9Z" transform="translate(-416.968 -543.493)" fill="#fff"/>
        <g id="Grupo_108126" data-name="Grupo 108126" transform="translate(0 0.226)">
          <path id="Trazado_165849" data-name="Trazado 165849" d="M421.567,555.394c.159-5.856,4.417-8.186,9.639-5.17a19.836,19.836,0,0,1,6.874,7.28l1.926-.484a24.9,24.9,0,0,0-8.8-9.5c-6.572-3.794-11.926-.794-12.006,6.679Z" transform="translate(-419.201 -545.877)" fill="#ffef0f"/>
          <path id="Trazado_165850" data-name="Trazado 165850" d="M436.029,570.7a8.3,8.3,0,0,1-4.841-1.287c-4.946-2.856-9.031-9.507-9.585-15.336l-2.358-1.187c.634,7.284,5.748,15.649,11.943,19.226a10.089,10.089,0,0,0,6.352,1.575Z" transform="translate(-419.182 -542.907)" fill="#ffef0f"/>
          <path id="Trazado_165851" data-name="Trazado 165851" d="M433.63,555.431a18.441,18.441,0,0,1,1.868,7.6c0,3.5-1.425,5.8-3.642,6.551l1.492,2.954c2.744-.943,4.505-3.8,4.505-8.146a22.921,22.921,0,0,0-2.309-9.444Z" transform="translate(-413.837 -542.033)" fill="#ffef0f"/>
        </g>
        <path id="Trazado_165852" data-name="Trazado 165852" d="M432.379,561.948a8.251,8.251,0,0,1-1.693-2.026c-.279-.469-.269-.977,0-1.136a2.167,2.167,0,0,0,.864-.964c.3.083.665-.027.665-.434a1.608,1.608,0,0,0-.429-1.095,5.387,5.387,0,0,0-2.724-4.783c-2.043-1.179-2.65-.054-2.722,1.639-.245-.056-.429.185-.429.6a1.974,1.974,0,0,0,.665,1.2,9.641,9.641,0,0,0,.864,1.961c.272.474.282.994,0,1.139a2.233,2.233,0,0,1-1.693.073c-.859-.261-1.5.258-1.5,1.314v1.831a1.235,1.235,0,0,0,.561.967l8.5,4.905c.309.179.56.036.56-.319v-1.833A4.36,4.36,0,0,0,432.379,561.948Z" transform="translate(-417.058 -543.47)" fill="#ffef0f"/>
      </g>
    </g>
    <g id="Grupo_108131" data-name="Grupo 108131" transform="translate(507.074 578.247)">
      <path id="Trazado_165853" data-name="Trazado 165853" d="M495.464,586.893l-22.717-13.136a5.617,5.617,0,0,1-2.345-4.479v-5.384c0-1.727,1.051-2.52,2.345-1.773l22.717,13.136a5.614,5.614,0,0,1,2.345,4.479v5.384C497.809,586.847,496.76,587.64,495.464,586.893Z" transform="translate(-470.402 -561.276)" fill="#0f10ba"/>
      <path id="Trazado_165854" data-name="Trazado 165854" d="M495.374,583.969l-22.36-12.927a3.99,3.99,0,0,1-1.687-3.34v-3.859a.416.416,0,0,1,.627-.357l.074.043,22.385,12.946a3.606,3.606,0,0,1,1.687,3.34v3.8a.448.448,0,0,1-.671.389Z" transform="translate(-470.01 -560.603)" fill="#300894"/>
      <path id="Trazado_165855" data-name="Trazado 165855" d="M495.8,583.693l-.054-.031-22.361-12.928a3.984,3.984,0,0,1-1.686-3.339v-3.859a.439.439,0,0,1,.014-.107.415.415,0,0,0-.39.413V567.7a3.99,3.99,0,0,0,1.687,3.34l22.36,12.927.056.031a.447.447,0,0,0,.648-.253A.441.441,0,0,1,495.8,583.693Z" transform="translate(-470.01 -560.602)" fill="#180046"/>
      <path id="Trazado_165856" data-name="Trazado 165856" d="M496.305,574.861l-22.717-13.136a1.588,1.588,0,0,0-1.373-.2c-.048.019-1.142.577-1.189.6h0a1.53,1.53,0,0,1,1.458.161L495.2,575.425a5.614,5.614,0,0,1,2.345,4.479v5.384c0,1.078-.409,1.791-1.031,1.995a.39.39,0,0,0,.205-.07c.03-.017,1.179-.628,1.207-.648a2.163,2.163,0,0,0,.723-1.84v-5.384A5.618,5.618,0,0,0,496.305,574.861Z" transform="translate(-470.138 -561.444)" fill="#0b0ca1"/>
      <path id="Trazado_165857" data-name="Trazado 165857" d="M496.305,574.861l-22.717-13.136a1.588,1.588,0,0,0-1.373-.2c-.048.019-1.142.577-1.189.6h0a1.53,1.53,0,0,1,1.458.161L495.2,575.425Z" transform="translate(-470.138 -561.444)" fill="#3e3fcf"/>
      <path id="Trazado_165858" data-name="Trazado 165858" d="M495.266,575.216,472.548,562.08a1.554,1.554,0,0,0-1.412-.18,1.723,1.723,0,0,1,1.132.265L494.985,575.3a5.614,5.614,0,0,1,2.344,4.479v5.384a1.97,1.97,0,0,1-.933,1.953c.725-.115,1.214-.859,1.214-2.037V579.7A5.614,5.614,0,0,0,495.266,575.216Z" transform="translate(-470.091 -561.292)" fill="#fff" opacity="0.7"/>
      <g id="Grupo_108129" data-name="Grupo 108129" transform="translate(5.228 6.858)">
        <path id="Trazado_165859" data-name="Trazado 165859" d="M484.317,573.211a3.114,3.114,0,0,0,1.414,2.438c.78.451,1.414.091,1.414-.806a3.117,3.117,0,0,0-1.414-2.438C484.951,571.953,484.317,572.315,484.317,573.211Z" transform="translate(-469.733 -563.738)" fill="#180046"/>
        <path id="Trazado_165860" data-name="Trazado 165860" d="M481.756,571.723a3.117,3.117,0,0,0,1.414,2.439c.78.451,1.414.09,1.414-.806a3.119,3.119,0,0,0-1.414-2.439C482.39,570.467,481.756,570.827,481.756,571.723Z" transform="translate(-470.818 -564.369)" fill="#180046"/>
        <path id="Trazado_165861" data-name="Trazado 165861" d="M479.2,570.236a3.115,3.115,0,0,0,1.414,2.438c.782.451,1.414.091,1.414-.806a3.11,3.11,0,0,0-1.414-2.438C479.829,568.978,479.2,569.34,479.2,570.236Z" transform="translate(-471.904 -564.999)" fill="#180046"/>
        <path id="Trazado_165862" data-name="Trazado 165862" d="M476.634,568.748a3.119,3.119,0,0,0,1.414,2.439c.782.45,1.414.09,1.414-.806a3.113,3.113,0,0,0-1.414-2.439C477.268,567.492,476.634,567.852,476.634,568.748Z" transform="translate(-472.989 -565.63)" fill="#180046"/>
        <path id="Trazado_165863" data-name="Trazado 165863" d="M474.074,567.261a3.111,3.111,0,0,0,1.414,2.438c.78.451,1.412.09,1.412-.806a3.113,3.113,0,0,0-1.412-2.438C474.706,566,474.074,566.364,474.074,567.261Z" transform="translate(-474.074 -566.26)" fill="#180046"/>
      </g>
      <g id="Grupo_108130" data-name="Grupo 108130" transform="translate(4.79 6.887)">
        <path id="Trazado_165864" data-name="Trazado 165864" d="M484.01,573.231a3.113,3.113,0,0,0,1.414,2.439c.78.451,1.412.09,1.412-.806a3.118,3.118,0,0,0-1.412-2.439C484.642,571.975,484.01,572.335,484.01,573.231Z" transform="translate(-469.424 -563.759)" fill="#baa8f0"/>
        <path id="Trazado_165865" data-name="Trazado 165865" d="M481.449,571.744a3.111,3.111,0,0,0,1.414,2.438c.78.451,1.414.091,1.414-.806a3.114,3.114,0,0,0-1.414-2.438C482.081,570.486,481.449,570.848,481.449,571.744Z" transform="translate(-470.51 -564.39)" fill="#baa8f0"/>
        <path id="Trazado_165866" data-name="Trazado 165866" d="M478.888,570.256a3.117,3.117,0,0,0,1.414,2.439c.78.45,1.414.09,1.414-.806a3.119,3.119,0,0,0-1.414-2.439C479.522,569,478.888,569.36,478.888,570.256Z" transform="translate(-471.595 -565.02)" fill="#baa8f0"/>
        <path id="Trazado_165867" data-name="Trazado 165867" d="M476.327,568.769a3.114,3.114,0,0,0,1.414,2.438c.78.451,1.414.09,1.414-.806a3.114,3.114,0,0,0-1.414-2.438C476.961,567.511,476.327,567.873,476.327,568.769Z" transform="translate(-472.681 -565.65)" fill="#baa8f0"/>
        <path id="Trazado_165868" data-name="Trazado 165868" d="M473.766,567.281a3.119,3.119,0,0,0,1.414,2.439c.782.45,1.414.09,1.414-.806a3.113,3.113,0,0,0-1.414-2.439C474.4,566.025,473.766,566.385,473.766,567.281Z" transform="translate(-473.766 -566.281)" fill="#baa8f0"/>
      </g>
    </g>
    <g id="Grupo_108136" data-name="Grupo 108136" transform="translate(406.107 588.543)">
      <path id="Trazado_165869" data-name="Trazado 165869" d="M429.787,602.879c0,.451.628.817,1.4.817s1.4-.366,1.4-.817-.629-.817-1.4-.817S429.787,602.428,429.787,602.879Z" transform="translate(-386.649 -554.524)" fill="#eb7b46"/>
      <path id="Trazado_165870" data-name="Trazado 165870" d="M450.908,618.594l-1.936,1.571,3.507,1.169Z" transform="translate(-378.518 -547.517)" fill="#eb7b46"/>
      <g id="Grupo_108132" data-name="Grupo 108132" transform="translate(127.254)">
        <path id="Trazado_165871" data-name="Trazado 165871" d="M493.491,577.185a.292.292,0,0,1-.292-.292v-1.169a.292.292,0,1,1,.584,0v1.169A.292.292,0,0,1,493.491,577.185Zm0-2.923a.292.292,0,0,1-.293-.286,4.048,4.048,0,0,0-.164-1.076.293.293,0,0,1,.562-.164,4.782,4.782,0,0,1,.187,1.229.291.291,0,0,1-.286.3Zm-.984-2.694a.293.293,0,0,1-.228-.108,4.056,4.056,0,0,0-.792-.746.293.293,0,0,1,.342-.476,4.711,4.711,0,0,1,.9.853.292.292,0,0,1-.043.411A.288.288,0,0,1,492.508,571.568Zm-2.346-1.71a.3.3,0,0,1-.149-.041l-1.005-.6a.292.292,0,0,1,.3-.5l1.005.6a.293.293,0,0,1-.149.544Z" transform="translate(-488.864 -568.675)" fill="#baa8f0"/>
      </g>
      <g id="Grupo_108133" data-name="Grupo 108133" transform="translate(45.806 48.988)">
        <path id="Trazado_165872" data-name="Trazado 165872" d="M458.987,627.289a.285.285,0,0,1-.155-.046l-.463-.289a.291.291,0,0,1,.309-.494l.464.288a.293.293,0,0,1-.155.541Zm-1.951-1.217a.292.292,0,0,1-.155-.044l-.991-.619a.29.29,0,0,1-.094-.4.3.3,0,0,1,.4-.094l.991.619a.292.292,0,0,1-.154.54Zm-2.48-1.546a.288.288,0,0,1-.154-.044l-.992-.619a.292.292,0,1,1,.309-.5l.992.619a.292.292,0,0,1-.155.54Zm-2.479-1.546a.292.292,0,0,1-.155-.044l-.992-.619a.292.292,0,1,1,.31-.5l.991.619a.292.292,0,0,1-.154.54Zm-2.1-1.9a.292.292,0,0,1-.283-.225,2.026,2.026,0,0,1-.054-.463v-.77a.292.292,0,1,1,.584,0v.77a1.435,1.435,0,0,0,.038.329.291.291,0,0,1-.216.35A.282.282,0,0,1,449.973,621.08Zm-.046-2.919a.291.291,0,0,1-.292-.292V616.7a.292.292,0,1,1,.584,0v1.169A.292.292,0,0,1,449.927,618.161Zm-.013-2.922a.294.294,0,0,1-.29-.259,1.888,1.888,0,0,0-.37-.93.292.292,0,0,1,.466-.353,2.5,2.5,0,0,1,.487,1.216.3.3,0,0,1-.258.325Zm-1.838-2.093a.289.289,0,0,1-.148-.04l-1.008-.592a.292.292,0,0,1,.3-.5l1.008.592a.292.292,0,0,1-.148.544Zm-2.519-1.481a.286.286,0,0,1-.149-.041l-1.007-.592a.292.292,0,1,1,.3-.5l1.008.592a.292.292,0,0,1-.148.544Zm-2.519-1.482a.3.3,0,0,1-.149-.04l-1.008-.594a.292.292,0,0,1,.3-.5l1.008.592a.293.293,0,0,1,.1.4A.289.289,0,0,1,443.039,610.183Zm-2.52-1.481a.294.294,0,0,1-.148-.041l-1.008-.592a.292.292,0,1,1,.3-.5l1.007.592a.292.292,0,0,1-.148.544ZM438,607.22a.289.289,0,0,1-.148-.04l-1.008-.594a.292.292,0,1,1,.3-.5l1.008.592a.292.292,0,0,1-.148.544Zm-2.519-1.481a.291.291,0,0,1-.148-.041l-1.008-.592a.292.292,0,1,1,.3-.5l1.008.592a.292.292,0,0,1-.148.544Zm-2.52-1.482a.294.294,0,0,1-.148-.04l-1.008-.594a.292.292,0,0,1,.3-.5l1.007.592a.292.292,0,0,1-.148.544Z" transform="translate(-431.661 -603.08)" fill="#eb7b46"/>
      </g>
      <g id="Grupo_108134" data-name="Grupo 108134" transform="translate(13.172 11.062)">
        <path id="Trazado_165873" data-name="Trazado 165873" d="M429.808,588.6a.3.3,0,0,1-.148-.04l-.816-.477a.293.293,0,0,1,.295-.505l.816.477a.293.293,0,0,1-.147.545Zm-2.331-1.361a.287.287,0,0,1-.147-.04l-1.011-.589a.292.292,0,0,1,.295-.5l1.009.588a.293.293,0,0,1-.147.545Zm-2.524-1.474a.289.289,0,0,1-.147-.04l-1.009-.589a.292.292,0,1,1,.295-.5l1.009.589a.292.292,0,0,1-.148.544ZM422.43,584.3a.3.3,0,0,1-.148-.04l-1.01-.589a.292.292,0,0,1,.295-.5l1.01.589a.292.292,0,0,1-.147.544Zm-2.524-1.474a.275.275,0,0,1-.147-.04l-1.01-.589a.292.292,0,1,1,.295-.5l1.01.589a.292.292,0,0,1-.148.544Zm-2.523-1.474a.3.3,0,0,1-.148-.04l-1.009-.589a.292.292,0,1,1,.295-.5l1.009.589a.292.292,0,0,1-.147.544Zm-2.524-1.472a.278.278,0,0,1-.147-.041l-1.011-.589a.292.292,0,0,1,.295-.5l1.01.589a.293.293,0,0,1-.147.545Zm-2.524-1.475a.275.275,0,0,1-.147-.04l-1.01-.588a.293.293,0,0,1,.295-.505l1.01.589a.292.292,0,0,1-.148.544Zm-3.3-.621a.292.292,0,0,1-.292-.292,1.049,1.049,0,0,1,1.028-1.044h0a.293.293,0,0,1,0,.585.46.46,0,0,0-.451.458A.293.293,0,0,1,409.033,577.78Z" transform="translate(-408.741 -576.444)" fill="#0f10ba"/>
      </g>
      <g id="Grupo_108135" data-name="Grupo 108135" transform="translate(0.458 6.855)">
        <path id="Trazado_165874" data-name="Trazado 165874" d="M411.2,580.577a.3.3,0,0,1-.148-.04l-1.008-.591a.293.293,0,1,1,.295-.505l1.009.592a.292.292,0,0,1-.148.544Zm-2.522-1.478a.3.3,0,0,1-.148-.04l-1.008-.591a.293.293,0,0,1,.3-.506l1.008.592a.292.292,0,0,1-.148.544Zm-2.52-1.478a.292.292,0,0,1-.148-.04L405,576.99a.293.293,0,0,1,.3-.505l1.008.591a.293.293,0,0,1-.147.545Zm-2.522-1.478a.289.289,0,0,1-.148-.04l-1.008-.591a.293.293,0,0,1,.295-.505l1.01.591a.293.293,0,0,1-.148.545Zm-2.522-1.478a.3.3,0,0,1-.148-.04l-1.008-.592a.292.292,0,1,1,.295-.5l1.009.592a.292.292,0,0,1-.148.544Z" transform="translate(-399.812 -573.489)" fill="#0f10ba"/>
      </g>
      <path id="Trazado_165875" data-name="Trazado 165875" d="M402.531,574.1l-1.8,1.315L399.49,573.3Z" transform="translate(-399.49 -566.714)" fill="#0f10ba"/>
    </g>
    <g id="Grupo_108140" data-name="Grupo 108140" transform="translate(509.379 607.044)">
      <path id="Trazado_165876" data-name="Trazado 165876" d="M491.224,618.763l-17.943-10.329c-1.867-1.078-1.633-2.962.523-4.206h0c2.157-1.245,9.289-1.252,11.156-.174l15.909,9.181c2.866,1.69.029,4.012-2.358,5.226h0A8.1,8.1,0,0,1,491.224,618.763Z" transform="translate(-472.021 -572.513)" fill="#a292d1" opacity="0.2"/>
      <path id="Trazado_165877" data-name="Trazado 165877" d="M498.147,601.8,472.2,592.121v19.242a1.694,1.694,0,0,0,1.014,1.676l17.543,10.16a6.588,6.588,0,0,0,5.929-.246h0a2.5,2.5,0,0,0,1.451-1.87l.009,0Z" transform="translate(-471.949 -577.238)" fill="#8e72e8"/>
      <path id="Trazado_165878" data-name="Trazado 165878" d="M490.759,604.664,473.216,594.5c-1.521-.879-1.33-2.411.426-3.424h0a6.593,6.593,0,0,1,5.929-.245l17.543,10.16c1.521.877,1.33,2.409-.426,3.423h0A6.588,6.588,0,0,1,490.759,604.664Z" transform="translate(-471.949 -578.034)" fill="#baa8f0"/>
      <path id="Trazado_165879" data-name="Trazado 165879" d="M496.687,603.382a6.588,6.588,0,0,1-5.929.246l-17.543-10.16a1.815,1.815,0,0,1-1.017-1.357,1.7,1.7,0,0,0,1.017,1.653l17.543,10.161a6.588,6.588,0,0,0,5.929-.246c1.024-.591,1.511-1.357,1.442-2.067A2.576,2.576,0,0,1,496.687,603.382Z" transform="translate(-471.949 -577.242)" fill="#fff"/>
      <g id="Grupo_108139" data-name="Grupo 108139" transform="translate(3.936)">
        <path id="Trazado_165880" data-name="Trazado 165880" d="M485.8,582.66h0a7.349,7.349,0,0,0-11.018,6.369V597h0v.011c0,.782,1.079,1.411,2.412,1.411s2.412-.629,2.412-1.405v-.027h.026v-6.933a3.114,3.114,0,0,1,4.666-2.7h0a7.767,7.767,0,0,1,3.9,6.733V604.72h.026c.027.763,1.095,1.377,2.411,1.377s2.4-.622,2.411-1.391h0V595.19A14.459,14.459,0,0,0,485.8,582.66Z" transform="translate(-474.785 -581.668)" fill="#4626ab"/>
        <g id="Grupo_108137" data-name="Grupo 108137" transform="translate(10.425 4.448)">
          <path id="Trazado_165881" data-name="Trazado 165881" d="M482.557,585.017a4.146,4.146,0,0,0-.45-.225,8.465,8.465,0,0,1,3.736,7.008v12.473a2.98,2.98,0,0,0,.943.345V592.333A8.464,8.464,0,0,0,482.557,585.017Z" transform="translate(-482.107 -584.792)" fill="#623fd1"/>
        </g>
        <g id="Grupo_108138" data-name="Grupo 108138" transform="translate(2.002 3.394)">
          <path id="Trazado_165882" data-name="Trazado 165882" d="M480.165,584.052A3.953,3.953,0,0,0,476.217,588v8.325l-.026.863a3.4,3.4,0,0,0,1.383-.165l.026-.864v-8.325a3.954,3.954,0,0,1,2.791-3.775C480.315,584.055,480.24,584.052,480.165,584.052Z" transform="translate(-476.191 -584.052)" fill="#300894"/>
        </g>
        <path id="Trazado_165883" data-name="Trazado 165883" d="M482.883,583.108a7.628,7.628,0,0,1,3.588.9,13.4,13.4,0,0,0-1.33-.876,6.421,6.421,0,0,0-3.244-.881,6.546,6.546,0,0,0-6.531,6.531v.017A7.886,7.886,0,0,1,482.883,583.108Z" transform="translate(-474.538 -581.421)" fill="#623fd1"/>
        <path id="Trazado_165884" data-name="Trazado 165884" d="M486.3,593.265v9.328a2.987,2.987,0,0,0,1.207-.42.824.824,0,0,0,.083-.327v-9.514C487.592,588.217,486.3,589.072,486.3,593.265Z" transform="translate(-469.904 -578.287)" fill="#300894"/>
      </g>
      <path id="Trazado_165885" data-name="Trazado 165885" d="M482.848,604.08a5.239,5.239,0,0,0-2.379-4.1c-1.314-.759-2.379-.152-2.379,1.356a5.176,5.176,0,0,0,1.2,3.065v4.776l2.352,1.358v-4.776C482.363,605.7,482.848,605.1,482.848,604.08Z" transform="translate(-469.448 -574.046)" fill="#300894"/>
      <path id="Trazado_165886" data-name="Trazado 165886" d="M479.7,608.99v-4.776a5.173,5.173,0,0,1-1.2-3.064,1.7,1.7,0,0,1,.624-1.478c-.625.131-1.035.719-1.035,1.653a5.176,5.176,0,0,0,1.2,3.066v4.776l2.352,1.358v-.413Z" transform="translate(-469.448 -574.038)" fill="#180046"/>
    </g>
    <g id="Grupo_108141" data-name="Grupo 108141" transform="translate(387.185 583.182)">
      <path id="Trazado_165887" data-name="Trazado 165887" d="M396.557,572.31a1.736,1.736,0,0,1-1.569,0,.274.274,0,0,0-.245,0l-6.115,3.531-.819-.473c-.068-.039-.067-.1,0-.141l6.934-4a.274.274,0,0,1,.245,0,1.736,1.736,0,0,0,1.569,0,.557.557,0,0,0,.326-.446h0v1.069l-.006,0A.542.542,0,0,1,396.557,572.31Z" transform="translate(-385.541 -562.422)" fill="#300894"/>
      <path id="Trazado_165888" data-name="Trazado 165888" d="M395.324,569.9a1.165,1.165,0,0,0,.692.99,1.733,1.733,0,0,0,1.568,0,.478.478,0,0,0,.006-.906.075.075,0,0,1,0-.141l6.934-4a.27.27,0,0,1,.245,0l3.96,2.285a.074.074,0,0,1,0,.141l-.817.473-3.141-1.813a.27.27,0,0,0-.245,0l-6.6,3.812v.773l-.014-.007a.54.54,0,0,1-.325.473,1.733,1.733,0,0,1-1.568,0,1.219,1.219,0,0,1-.678-.873l-.024-.023V569.9Z" transform="translate(-382.339 -564.529)" fill="#300894"/>
      <path id="Trazado_165889" data-name="Trazado 165889" d="M392.758,574.742a2.163,2.163,0,0,0,1.961,0l8.852-5.11a.6.6,0,0,0,.006-1.132,2.167,2.167,0,0,0-1.961,0l-8.852,5.112A.6.6,0,0,0,392.758,574.742Z" transform="translate(-383.593 -563.488)" fill="#623fd1"/>
      <path id="Trazado_165890" data-name="Trazado 165890" d="M395.715,572.853c.068.038.068.1,0,.142l-.332.191v-.854l.021,0A.507.507,0,0,0,395.715,572.853Z" transform="translate(-382.31 -561.764)" fill="#300894"/>
      <path id="Trazado_165891" data-name="Trazado 165891" d="M386.893,575.465l3.958,2.287a3.738,3.738,0,0,0,3.382-.007l6.934-4a1.155,1.155,0,0,0,.695-1.041h.011v1.219l-.013,0a1.227,1.227,0,0,1-.693.911l-6.934,4a3.738,3.738,0,0,1-3.382.007l-3.958-2.287a1.22,1.22,0,0,1-.679-.874l-.006-.007v-1.115A1.2,1.2,0,0,0,386.893,575.465Z" transform="translate(-386.198 -561.607)" fill="#300894"/>
      <path id="Trazado_165892" data-name="Trazado 165892" d="M392.757,574.468a2.163,2.163,0,0,0,1.961,0l8.852-5.11a.772.772,0,0,0,.389-.446v.836c.067.245-.06.507-.389.7l-8.852,5.11a2.163,2.163,0,0,1-1.961,0,.766.766,0,0,1-.383-.437h0v-.028a.445.445,0,0,1,0-.194V574A.737.737,0,0,0,392.757,574.468Z" transform="translate(-383.592 -563.215)" fill="#300894"/>
      <path id="Trazado_165893" data-name="Trazado 165893" d="M396.014,571.272a1.733,1.733,0,0,0,1.568,0,.478.478,0,0,0,.006-.906.075.075,0,0,1,0-.141l6.934-4a.27.27,0,0,1,.245,0l3.96,2.285a.074.074,0,0,1,0,.141l-6.934,4a.27.27,0,0,1-.245,0,1.736,1.736,0,0,0-1.569,0,.478.478,0,0,0,0,.906,3.743,3.743,0,0,0,3.382-.006l6.934-4a1.031,1.031,0,0,0,.011-1.952l-3.958-2.285a3.746,3.746,0,0,0-3.383.006l-6.934,4A1.031,1.031,0,0,0,396.014,571.272Z" transform="translate(-382.337 -564.909)" fill="#623fd1"/>
      <path id="Trazado_165894" data-name="Trazado 165894" d="M398.686,572.484a3.743,3.743,0,0,0,3.382-.006l6.934-4a1.163,1.163,0,0,0,.7-1.024l.013-.009v1.234l-.023.006a1.242,1.242,0,0,1-.688.879l-6.934,4a3.743,3.743,0,0,1-3.382.006.578.578,0,0,1-.312-.384h-.02v-1.152l.01,0A.548.548,0,0,0,398.686,572.484Z" transform="translate(-381.05 -563.836)" fill="#300894"/>
      <path id="Trazado_165895" data-name="Trazado 165895" d="M386.9,576.537l3.958,2.285a3.738,3.738,0,0,0,3.382-.007l6.934-4a1.032,1.032,0,0,0,.011-1.953,1.735,1.735,0,0,0-1.569,0,.478.478,0,0,0-.006.906.075.075,0,0,1,0,.142l-6.934,4a.27.27,0,0,1-.245,0l-3.958-2.287c-.068-.039-.067-.1,0-.141l6.934-4a.274.274,0,0,1,.245,0,1.736,1.736,0,0,0,1.569,0,.478.478,0,0,0,.006-.906,3.746,3.746,0,0,0-3.383.006l-6.934,4A1.032,1.032,0,0,0,386.9,576.537Z" transform="translate(-386.201 -562.678)" fill="#623fd1"/>
      <path id="Trazado_165896" data-name="Trazado 165896" d="M392.754,574.406a2.171,2.171,0,0,0,1.961,0l8.852-5.11a.778.778,0,0,0,.389-.447.479.479,0,0,1,.007.09.737.737,0,0,1-.4.488l-8.852,5.11a2.163,2.163,0,0,1-1.961,0,.718.718,0,0,1-.389-.481.363.363,0,0,1,.006-.088A.764.764,0,0,0,392.754,574.406Z" transform="translate(-383.589 -563.241)" fill="#8e72e8"/>
      <path id="Trazado_165897" data-name="Trazado 165897" d="M407.962,568.14l-3.867-2.233a.269.269,0,0,0-.245,0L397,569.864a.717.717,0,0,0-.083-.058l-.014-.013.014-.014,6.934-4a.27.27,0,0,1,.245,0l3.96,2.287.014.011-.016.014Z" transform="translate(-381.666 -564.555)" fill="#8e72e8"/>
      <path id="Trazado_165898" data-name="Trazado 165898" d="M398.68,572.37a3.743,3.743,0,0,0,3.382-.006l6.934-4a1.254,1.254,0,0,0,.685-.859.665.665,0,0,1,0,.075,1.2,1.2,0,0,1-.689.914l-6.934,4a3.743,3.743,0,0,1-3.382.006.58.58,0,0,1-.312-.386.424.424,0,0,1,.01-.073A.63.63,0,0,0,398.68,572.37Z" transform="translate(-381.045 -563.811)" fill="#8e72e8"/>
      <path id="Trazado_165899" data-name="Trazado 165899" d="M396.009,569.569a1.733,1.733,0,0,0,1.568,0,.644.644,0,0,0,.308-.332.421.421,0,0,1,.009.073.586.586,0,0,1-.316.39,1.733,1.733,0,0,1-1.568,0,1.19,1.19,0,0,1-.679-.9c0-.026,0-.05,0-.076A1.242,1.242,0,0,0,396.009,569.569Z" transform="translate(-382.332 -563.294)" fill="#8e72e8"/>
      <path id="Trazado_165900" data-name="Trazado 165900" d="M394.733,571.131a.27.27,0,0,1,.245,0,1.736,1.736,0,0,0,1.569,0,.641.641,0,0,0,.306-.332.423.423,0,0,1,.01.073.586.586,0,0,1-.316.39,1.736,1.736,0,0,1-1.569,0,.274.274,0,0,0-.245,0l-6.843,3.951-.091-.053-.016-.013.016-.013Z" transform="translate(-385.531 -562.415)" fill="#8e72e8"/>
      <path id="Trazado_165901" data-name="Trazado 165901" d="M386.891,575.349l3.958,2.285a3.743,3.743,0,0,0,3.382-.006l6.934-4a1.254,1.254,0,0,0,.685-.859.68.68,0,0,1,0,.075,1.209,1.209,0,0,1-.689.916l-6.934,4a3.738,3.738,0,0,1-3.382.007l-3.958-2.287a1.188,1.188,0,0,1-.679-.9c0-.024,0-.05,0-.074A1.243,1.243,0,0,0,386.891,575.349Z" transform="translate(-386.197 -561.58)" fill="#8e72e8"/>
    </g>
    <g id="Grupo_108146" data-name="Grupo 108146" transform="translate(383.879 606.37)">
      <path id="Trazado_165902" data-name="Trazado 165902" d="M384.611,597.6a1.071,1.071,0,0,1-.01-2.029l7.984-4.609a5.423,5.423,0,0,1,4.9.008c1.355.783,1.363,2.052.016,2.829l-7.132,4.119a.6.6,0,0,1-.544,0c-.149-.087-.151-.228,0-.313l7.132-4.118a1.163,1.163,0,0,0-.011-2.2,4.224,4.224,0,0,0-3.816-.007l-7.983,4.609a.741.741,0,0,0,.007,1.4,2.694,2.694,0,0,0,2.429,0l7.646-4.415a.335.335,0,0,0,0-.634,1.213,1.213,0,0,0-1.1,0l-6.372,3.678c-.034.02-.033.053,0,.073a.135.135,0,0,0,.124,0l4.686-2.705a.6.6,0,0,1,.544,0,.166.166,0,0,1,0,.315l-4.686,2.705a1.337,1.337,0,0,1-1.21,0,.369.369,0,0,1,0-.7l6.37-3.678a2.419,2.419,0,0,1,2.184,0,.665.665,0,0,1,.007,1.26l-7.647,4.415A3.892,3.892,0,0,1,384.611,597.6Z" transform="translate(-383.879 -577.303)" fill="#a292d1" opacity="0.2"/>
      <path id="Trazado_165903" data-name="Trazado 165903" d="M384.611,597.453a1.071,1.071,0,0,1-.01-2.029l7.984-4.609a5.418,5.418,0,0,1,4.9.008c1.355.783,1.363,2.052.016,2.829l-7.132,4.118a.6.6,0,0,1-.544,0c-.149-.087-.151-.228,0-.313l7.132-4.119a1.163,1.163,0,0,0-.011-2.2,4.224,4.224,0,0,0-3.816-.006l-7.983,4.609a.74.74,0,0,0,.007,1.4,2.689,2.689,0,0,0,2.429.006l7.646-4.415a.335.335,0,0,0,0-.634,1.213,1.213,0,0,0-1.1,0l-6.372,3.678c-.034.02-.033.051,0,.071a.14.14,0,0,0,.124,0l4.686-2.705a.6.6,0,0,1,.544,0c.149.087.151.228,0,.313l-4.686,2.705a1.337,1.337,0,0,1-1.21,0,.369.369,0,0,1,0-.7l6.37-3.678a2.418,2.418,0,0,1,2.184,0,.666.666,0,0,1,.007,1.261l-7.647,4.414A3.888,3.888,0,0,1,384.611,597.453Z" transform="translate(-383.879 -577.365)" fill="#4626ab"/>
      <g id="Grupo_108142" data-name="Grupo 108142" transform="translate(0.011 13.107)">
        <path id="Trazado_165904" data-name="Trazado 165904" d="M394.076,591.437a1.214,1.214,0,0,0-1.1,0l-6.372,3.679c-.034.02-.033.051,0,.071a.136.136,0,0,0,.124,0l4.686-2.705a.511.511,0,0,1,.179-.041l1.381-.8a1.21,1.21,0,0,1,1.1,0,.43.43,0,0,1,.2.216A.332.332,0,0,0,394.076,591.437Z" transform="translate(-382.744 -590.017)" fill="#300894"/>
        <path id="Trazado_165905" data-name="Trazado 165905" d="M386.293,595.276a1.342,1.342,0,0,0,1.21,0l4.686-2.705c.121-.07.138-.175.061-.258a.253.253,0,0,1-.061.053l-4.686,2.705a1.342,1.342,0,0,1-1.21,0,.469.469,0,0,1-.218-.249C386.016,594.981,386.078,595.152,386.293,595.276Z" transform="translate(-382.968 -589.59)" fill="#300894"/>
        <path id="Trazado_165906" data-name="Trazado 165906" d="M396.713,590.86a4.224,4.224,0,0,0-3.816-.007l-7.983,4.61a.786.786,0,0,0-.481.8.9.9,0,0,1,.481-.594l7.983-4.61a4.229,4.229,0,0,1,3.816.007,1.394,1.394,0,0,1,.777,1A1.278,1.278,0,0,0,396.713,590.86Z" transform="translate(-383.659 -590.401)" fill="#300894"/>
        <path id="Trazado_165907" data-name="Trazado 165907" d="M395.763,592.88,388.631,597a.6.6,0,0,1-.544,0,.272.272,0,0,1-.063-.056c-.077.084-.06.189.063.261a.6.6,0,0,0,.544,0l7.132-4.118a1.636,1.636,0,0,0,.988-1.512A1.745,1.745,0,0,1,395.763,592.88Z" transform="translate(-382.152 -589.904)" fill="#300894"/>
        <path id="Trazado_165908" data-name="Trazado 165908" d="M396.2,591.7a.815.815,0,0,1-.43.523l-7.647,4.415a3.888,3.888,0,0,1-3.514-.006,1.291,1.291,0,0,1-.715-.917,1.177,1.177,0,0,0,.715,1.122,3.888,3.888,0,0,0,3.514.006l7.647-4.414A.7.7,0,0,0,396.2,591.7Z" transform="translate(-383.887 -589.852)" fill="#300894"/>
      </g>
      <g id="Grupo_108144" data-name="Grupo 108144" transform="translate(1.396)">
        <path id="Trazado_165909" data-name="Trazado 165909" d="M398.755,588.591a1.071,1.071,0,0,0,.011-2.029l-7.984-4.61a5.431,5.431,0,0,0-4.9.008c-1.355.783-1.363,2.053-.016,2.831L393,588.909a.6.6,0,0,0,.542,0,.165.165,0,0,0,0-.313l-7.132-4.118a1.163,1.163,0,0,1,.011-2.2,4.224,4.224,0,0,1,3.816-.007l7.983,4.61a.74.74,0,0,1-.007,1.4,2.686,2.686,0,0,1-2.428,0l-7.647-4.414a.335.335,0,0,1,0-.634,1.213,1.213,0,0,1,1.1,0l6.37,3.678a.039.039,0,0,1,0,.073.139.139,0,0,1-.125,0l-4.686-2.705a.6.6,0,0,0-.543,0,.165.165,0,0,0,0,.313l4.686,2.705a1.337,1.337,0,0,0,1.21,0,.368.368,0,0,0,0-.7l-6.372-3.679a2.416,2.416,0,0,0-2.183,0,.665.665,0,0,0-.007,1.26l7.646,4.415A3.888,3.888,0,0,0,398.755,588.591Z" transform="translate(-384.86 -581.121)" fill="#a292d1" opacity="0.2"/>
        <path id="Trazado_165910" data-name="Trazado 165910" d="M398.755,588.414a1.071,1.071,0,0,0,.011-2.029l-7.984-4.609a5.43,5.43,0,0,0-4.9.008c-1.355.783-1.363,2.052-.016,2.831L393,588.733a.6.6,0,0,0,.542,0,.165.165,0,0,0,0-.313l-7.132-4.118a1.163,1.163,0,0,1,.011-2.2,4.224,4.224,0,0,1,3.816-.007l7.983,4.609a.741.741,0,0,1-.007,1.4,2.691,2.691,0,0,1-2.428,0l-7.647-4.415a.335.335,0,0,1,0-.634,1.217,1.217,0,0,1,1.1,0l6.37,3.678a.038.038,0,0,1,0,.073.138.138,0,0,1-.125,0L390.8,584.1a.6.6,0,0,0-.543,0,.165.165,0,0,0,0,.313l4.686,2.705a1.337,1.337,0,0,0,1.21,0,.369.369,0,0,0,0-.7l-6.372-3.678a2.416,2.416,0,0,0-2.183,0,.665.665,0,0,0-.007,1.26l7.646,4.415A3.892,3.892,0,0,0,398.755,588.414Z" transform="translate(-384.86 -581.195)" fill="#8e72e8"/>
        <g id="Grupo_108143" data-name="Grupo 108143" transform="translate(0.012 0.261)">
          <path id="Trazado_165911" data-name="Trazado 165911" d="M397.99,586.439l-7.983-4.609a4.224,4.224,0,0,0-3.816.007,1.287,1.287,0,0,0-.779,1.2,1.386,1.386,0,0,1,.779-1.014,4.224,4.224,0,0,1,3.816-.007l7.983,4.609a.891.891,0,0,1,.484.607A.793.793,0,0,0,397.99,586.439Z" transform="translate(-384.64 -581.379)" fill="#623fd1"/>
          <path id="Trazado_165912" data-name="Trazado 165912" d="M387.23,582.6a1.213,1.213,0,0,1,1.1,0l1.448.836a.457.457,0,0,1,.111.027l4.686,2.705a.139.139,0,0,0,.125,0,.039.039,0,0,0,0-.073l-6.37-3.678a1.212,1.212,0,0,0-1.1,0c-.194.112-.251.266-.2.41A.424.424,0,0,1,387.23,582.6Z" transform="translate(-383.959 -580.996)" fill="#623fd1"/>
          <path id="Trazado_165913" data-name="Trazado 165913" d="M394.579,586.051a1.338,1.338,0,0,1-1.21,0l-4.686-2.707a.245.245,0,0,1-.076-.064c-.064.083-.041.181.076.248l4.686,2.705a1.337,1.337,0,0,0,1.21,0,.372.372,0,0,0,.222-.443A.464.464,0,0,1,394.579,586.051Z" transform="translate(-383.298 -580.571)" fill="#623fd1"/>
          <path id="Trazado_165914" data-name="Trazado 165914" d="M393.615,587.911a.274.274,0,0,1-.077.067.6.6,0,0,1-.542,0l-7.132-4.119a1.739,1.739,0,0,1-.991-1.319,1.645,1.645,0,0,0,.991,1.5L393,588.162a.6.6,0,0,0,.542,0C393.654,588.094,393.679,587.994,393.615,587.911Z" transform="translate(-384.868 -580.885)" fill="#623fd1"/>
          <path id="Trazado_165915" data-name="Trazado 165915" d="M398.072,587.609a3.892,3.892,0,0,1-3.514.007l-7.646-4.415a.8.8,0,0,1-.433-.535.707.707,0,0,0,.433.718l7.646,4.415a3.892,3.892,0,0,0,3.514-.007,1.182,1.182,0,0,0,.718-1.109A1.285,1.285,0,0,1,398.072,587.609Z" transform="translate(-384.189 -580.833)" fill="#623fd1"/>
        </g>
      </g>
      <path id="Trazado_165916" data-name="Trazado 165916" d="M399.847,590.429a3.725,3.725,0,0,1-3.214-.863l-4.195-5.546c-.709-.937.151-1.919,1.915-2.191s3.775.266,4.482,1.2l3.748,4.955c.078.1-.017.214-.212.243a.575.575,0,0,1-.5-.134l-3.748-4.955a4.047,4.047,0,0,0-3.49-.935c-1.373.212-2.042.977-1.491,1.706l4.195,5.546a2.573,2.573,0,0,0,2.221.6c.873-.135,1.3-.622.948-1.086l-4.017-5.312a1.165,1.165,0,0,0-1-.269c-.4.061-.588.282-.429.491l3.346,4.425a.131.131,0,0,0,.114.031c.046-.007.067-.033.05-.056l-2.462-3.256c-.078-.1.016-.212.212-.242a.578.578,0,0,1,.5.132l2.462,3.256c.175.231-.037.474-.473.541a1.279,1.279,0,0,1-1.106-.3l-3.347-4.425c-.316-.417.067-.856.853-.977a2.317,2.317,0,0,1,2,.535l4.018,5.312C401.727,589.529,401.112,590.234,399.847,590.429Z" transform="translate(-380.357 -580.957)" fill="#a292d1" opacity="0.2"/>
      <path id="Trazado_165917" data-name="Trazado 165917" d="M399.847,590.253a3.724,3.724,0,0,1-3.214-.863l-4.195-5.546c-.709-.937.151-1.919,1.915-2.193s3.775.268,4.482,1.2l3.748,4.955c.078.1-.017.212-.212.244a.575.575,0,0,1-.5-.134l-3.748-4.955a4.043,4.043,0,0,0-3.49-.937c-1.373.212-2.042.978-1.491,1.707l4.195,5.546a2.577,2.577,0,0,0,2.221.6c.873-.135,1.3-.622.948-1.086l-4.017-5.312a1.166,1.166,0,0,0-1-.269c-.4.061-.588.281-.429.491l3.346,4.425a.136.136,0,0,0,.114.031c.046-.007.067-.033.05-.057l-2.462-3.255c-.078-.1.016-.212.212-.242a.569.569,0,0,1,.5.132l2.462,3.256c.175.231-.037.473-.473.541a1.283,1.283,0,0,1-1.106-.3l-3.347-4.425c-.316-.417.067-.856.853-.977a2.312,2.312,0,0,1,2,.535l4.018,5.312C401.727,589.352,401.112,590.057,399.847,590.253Z" transform="translate(-380.357 -581.032)" fill="#4626ab"/>
      <g id="Grupo_108145" data-name="Grupo 108145" transform="translate(11.846 0.713)">
        <path id="Trazado_165918" data-name="Trazado 165918" d="M394.991,583.751c-.065.048-.088.111-.04.175l2.315,3.061a.135.135,0,0,0,.1.023c.046-.007.067-.033.05-.057Z" transform="translate(-391.043 -580.826)" fill="#300894"/>
        <path id="Trazado_165919" data-name="Trazado 165919" d="M399.67,588.151l-4.017-5.312a1.165,1.165,0,0,0-1-.269c-.376.058-.558.259-.44.458a.6.6,0,0,1,.44-.231,1.165,1.165,0,0,1,1,.269l4.017,5.312a.588.588,0,0,1,.1.209A.5.5,0,0,0,399.67,588.151Z" transform="translate(-391.362 -581.333)" fill="#300894"/>
        <path id="Trazado_165920" data-name="Trazado 165920" d="M402.311,587.709a.38.38,0,0,1-.171.067.571.571,0,0,1-.5-.132l-3.748-4.955a4.043,4.043,0,0,0-3.49-.937c-1.116.172-1.753.712-1.662,1.3.087-.494.693-.92,1.662-1.071a4.043,4.043,0,0,1,3.49.937l3.748,4.955a.575.575,0,0,0,.5.134c.2-.031.29-.14.211-.244Z" transform="translate(-391.971 -581.696)" fill="#300894"/>
        <path id="Trazado_165921" data-name="Trazado 165921" d="M393.74,583.267l3.347,4.425a1.283,1.283,0,0,0,1.106.3c.406-.064.6-.279.49-.494a.647.647,0,0,1-.49.265,1.278,1.278,0,0,1-1.106-.3l-3.347-4.425a.577.577,0,0,1-.09-.177A.448.448,0,0,0,393.74,583.267Z" transform="translate(-391.59 -581.202)" fill="#300894"/>
        <path id="Trazado_165922" data-name="Trazado 165922" d="M399.844,589.586a3.72,3.72,0,0,1-3.214-.861l-4.2-5.547a1.124,1.124,0,0,1-.225-.562,1.037,1.037,0,0,0,.225.792l4.2,5.546a3.724,3.724,0,0,0,3.214.863c1.034-.161,1.623-.662,1.528-1.207C401.287,589.059,400.731,589.449,399.844,589.586Z" transform="translate(-392.199 -581.307)" fill="#300894"/>
      </g>
    </g>
  </g>
</svg>
