<svg xmlns="http://www.w3.org/2000/svg" width="179.011" height="180" viewBox="0 0 179.011 180">
  <g id="Grupo_108653" data-name="Grupo 108653" transform="translate(-1181 -595)">
    <ellipse id="Elipse_5016" data-name="Elipse 5016" cx="89.506" cy="90" rx="89.506" ry="90" transform="translate(1181 595)" fill="#fff"/>
    <g id="Grupo_108435" data-name="Grupo 108435" transform="translate(9403 11266)">
      <g id="Grupo_107197" data-name="Grupo 107197" transform="translate(-8177 -10626)">
        <g id="Grupo_107195" data-name="Grupo 107195" transform="translate(1.356 1.318)">
          <circle id="Elipse_4990" data-name="Elipse 4990" cx="25.488" cy="25.488" r="25.488" transform="translate(18.067 18.193)" fill="#f8f7f7"/>
          <path id="Trazado_163992" data-name="Trazado 163992" d="M232.641,223.949V209.223a1.758,1.758,0,0,0-1.759-1.758H212.25a1.758,1.758,0,0,0-1.758,1.758v14.726Z" transform="translate(-207.894 -207.465)" fill="#f8f7f7"/>
          <path id="Trazado_163993" data-name="Trazado 163993" d="M232.641,220.434v3.515H210.492V209.223a1.758,1.758,0,0,1,1.758-1.758h1.758v12.266a.7.7,0,0,0,.7.7Z" transform="translate(-207.894 -207.465)" fill="#e8e8e8"/>
          <path id="Trazado_163994" data-name="Trazado 163994" d="M234.144,226.719a4.11,4.11,0,0,1-3.665,2.249H212.172a4.112,4.112,0,0,1-3.683-2.283l-.478-.963c-.1-.194-.047-.071-.047-.288a1.4,1.4,0,0,1,1.4-1.4l2.2-.161h6.059l3.823.5,3.56-.5h8.529a1.4,1.4,0,0,1,1.4,1.4v.073a1.406,1.406,0,0,1-.152.635l-.267.526Z" transform="translate(-207.64 -209.106)" fill="#b6c4cf"/>
          <path id="Trazado_163995" data-name="Trazado 163995" d="M234.488,226.508l-.2.386a4.112,4.112,0,0,1-3.665,2.25h-5.652l-3.9-.342-3.482.342h-5.625a4.109,4.109,0,0,1-3.682-2.283l-.479-.963a1.4,1.4,0,0,1,1.257-2.027h2.47l.176.354a4.111,4.111,0,0,0,3.681,2.283Z" transform="translate(-207.611 -209.106)" fill="#9facba"/>
          <path id="Trazado_163996" data-name="Trazado 163996" d="M226.078,223.871v5.273l-3.493-.526-3.89.526v-5.273Z" transform="translate(-208.714 -209.106)" fill="#9facba"/>
          <path id="Trazado_163997" data-name="Trazado 163997" d="M218.7,226.8h7.383v2.636H218.7Z" transform="translate(-208.714 -209.399)" fill="#8d9ca8"/>
          <g id="Grupo_107190" data-name="Grupo 107190" transform="translate(64.337)">
            <path id="Trazado_163998" data-name="Trazado 163998" d="M297.665,208.7v7.032l-.176,2.109h-18.2v-8.965a1.229,1.229,0,0,1,1.23-1.23l.7-.176h15.215A1.229,1.229,0,0,1,297.665,208.7Z" transform="translate(-279.109 -207.465)" fill="#7dc3ee"/>
            <path id="Trazado_163999" data-name="Trazado 163999" d="M297.645,215.727v2.109l-10.364.675-8.191-.675V208.7a1.23,1.23,0,0,1,1.23-1.23h.879V215.2a.528.528,0,0,0,.527.527Z" transform="translate(-279.09 -207.465)" fill="#64acdc"/>
            <path id="Trazado_164000" data-name="Trazado 164000" d="M297.665,218.988v8.262l-.176.7a1.23,1.23,0,0,1-1.23,1.23H280.515a1.229,1.229,0,0,1-1.23-1.23v-8.965Z" transform="translate(-279.109 -208.617)" fill="#7dc3ee"/>
            <path id="Trazado_164001" data-name="Trazado 164001" d="M297.645,227.192v.879a1.23,1.23,0,0,1-1.23,1.23H280.32a1.23,1.23,0,0,1-1.23-1.23V218.93l.76-.525,1.35.525v7.735a.527.527,0,0,0,.527.527Z" transform="translate(-279.09 -208.559)" fill="#64acdc"/>
          </g>
          <path id="Trazado_164002" data-name="Trazado 164002" d="M229.657,302.055H213.914a1.23,1.23,0,0,1-1.23-1.23v-17.93a1.23,1.23,0,0,1,1.23-1.23l.879-.176h15.039a1.23,1.23,0,0,1,1.23,1.23v17.227l-.175.879a1.23,1.23,0,0,1-1.23,1.23Z" transform="translate(-208.113 -214.867)" fill="#7dc3ee"/>
          <path id="Trazado_164003" data-name="Trazado 164003" d="M231.043,299.945V301a1.23,1.23,0,0,1-1.23,1.23H213.718a1.23,1.23,0,0,1-1.23-1.23V282.718a1.23,1.23,0,0,1,1.23-1.23h1.055v17.93a.528.528,0,0,0,.527.527Z" transform="translate(-208.093 -214.867)" fill="#64acdc"/>
          <path id="Trazado_164004" data-name="Trazado 164004" d="M218.348,297.016v-9.14a.527.527,0,0,1,.527-.527h6.953a.527.527,0,0,1,.527.527v9.14a.528.528,0,0,1-.527.527h-6.953A.528.528,0,0,1,218.348,297.016Z" transform="translate(-208.679 -215.453)" fill="#f8f7f7"/>
          <g id="Grupo_107192" data-name="Grupo 107192" transform="translate(28.966 24.565)">
            <path id="Trazado_164005" data-name="Trazado 164005" d="M260.435,249.576v-4.182a5.66,5.66,0,0,0-1.814-4.05,5.584,5.584,0,0,0-3.1-1.265,5.477,5.477,0,0,0-.646-.039,5.361,5.361,0,0,0-5.354,5.355v4.181h-4.774v-4.181c0-5.87,4.26-10.495,10.129-10.495a10.922,10.922,0,0,1,1.177-.068,10.629,10.629,0,0,1,9.451,10.563v4.181Z" transform="translate(-240.285 -234.766)" fill="#ffd163"/>
            <path id="Trazado_164006" data-name="Trazado 164006" d="M263.991,245.973v4.182h-2.637v-4.182a5.225,5.225,0,0,0-1.922-4.106A5.35,5.35,0,0,0,256,240.619h2.637a5.359,5.359,0,0,1,5.354,5.354Z" transform="translate(-241.41 -235.346)" fill="#ffb65f"/>
            <path id="Trazado_164007" data-name="Trazado 164007" d="M256.138,234.843a10.626,10.626,0,0,0-9.31,10.544v4.182h-2.637v-4.182a10.628,10.628,0,0,1,10.628-10.627A10.464,10.464,0,0,1,256.138,234.843Z" transform="translate(-240.229 -234.76)" fill="#ffb65f"/>
            <path id="Trazado_164008" data-name="Trazado 164008" d="M241.837,249.365l.608-.25H267.23a1.758,1.758,0,0,1,1.758,1.758v1.451l-.5,1.412.5,1.224v10.679a5.251,5.251,0,0,1-.707,2.638c-.912,1.575-2.99,2.276-4.941,2.276l-18.085.068a5.274,5.274,0,0,1-5.274-5.273l.1-14.225a1.758,1.758,0,0,1,1.758-1.758Z" transform="translate(-239.808 -236.195)" fill="#9facba"/>
            <g id="Grupo_107191" data-name="Grupo 107191" transform="translate(0 12.92)">
              <path id="Trazado_164009" data-name="Trazado 164009" d="M268.26,268.275a5.262,5.262,0,0,1-4.565,2.637H245.062a5.273,5.273,0,0,1-5.273-5.273V254.96l.7-1.318-.7-1.319v-1.451a1.758,1.758,0,0,1,1.758-1.758h.879v16.7a2.463,2.463,0,0,0,2.461,2.461Z" transform="translate(-239.789 -249.115)" fill="#8d9ca8"/>
              <circle id="Elipse_4991" data-name="Elipse 4991" cx="2.988" cy="2.988" r="2.988" transform="translate(11.69 8.921)" fill="#8d9ca8"/>
            </g>
          </g>
          <g id="Grupo_107193" data-name="Grupo 107193" transform="translate(78.662 39.375)">
            <path id="Trazado_164010" data-name="Trazado 164010" d="M295.007,255.61a4.215,4.215,0,0,1,2.434-4.034,4.4,4.4,0,0,1,5.8,5.744,4.139,4.139,0,0,1-4.05,2.374,3.961,3.961,0,0,1-4.18-4.084Z" transform="translate(-295.007 -251.215)" fill="#8f52f5"/>
          </g>
          <path id="Trazado_164012" data-name="Trazado 164012" d="M294.325,302.23H282.8a1.757,1.757,0,0,1-1.758-1.758V283.246a1.758,1.758,0,0,1,1.758-1.758h11.525a1.758,1.758,0,0,1,1.758,1.758v17.227A1.758,1.758,0,0,1,294.325,302.23Z" transform="translate(-214.949 -214.867)" fill="#f8f7f7"/>
          <path id="Trazado_164013" data-name="Trazado 164013" d="M296.083,299.593v.879a1.758,1.758,0,0,1-1.758,1.758H282.8a1.758,1.758,0,0,1-1.758-1.758V283.246a1.758,1.758,0,0,1,1.758-1.758h.879v17.4a.7.7,0,0,0,.7.7Z" transform="translate(-214.949 -214.867)" fill="#e8e8e8"/>
          <g id="Grupo_107194" data-name="Grupo 107194" transform="translate(0 39.375)">
            <path id="Trazado_164014" data-name="Trazado 164014" d="M207.843,255.61a4.215,4.215,0,0,1,2.433-4.034,4.4,4.4,0,0,1,5.8,5.744,4.139,4.139,0,0,1-4.05,2.374,3.961,3.961,0,0,1-4.18-4.084Z" transform="translate(-207.629 -251.215)" fill="#8f52f5"/>
            <path id="Trazado_164015" data-name="Trazado 164015" d="M216.033,257.4a4.395,4.395,0,1,1-5.78-5.78,4.4,4.4,0,0,0,5.78,5.78Z" transform="translate(-207.605 -251.255)" fill="#8f52f5"/>
          </g>
        </g>
        <g id="Grupo_107196" data-name="Grupo 107196" transform="translate(0 0)">
          <path id="Trazado_164016" data-name="Trazado 164016" d="M293.922,211.762h-5.157a1.318,1.318,0,1,0,0,2.636h5.157a1.318,1.318,0,1,0,0-2.636Z" transform="translate(-214.233 -206.576)"/>
          <path id="Trazado_164017" data-name="Trazado 164017" d="M293.922,223.285h-5.157a1.318,1.318,0,1,0,0,2.637h5.157a1.318,1.318,0,0,0,0-2.637Z" transform="translate(-214.233 -207.729)"/>
          <path id="Trazado_164018" data-name="Trazado 164018" d="M218.1,298.715h8.008a1.319,1.319,0,0,0,1.318-1.319V287.2a1.318,1.318,0,0,0-1.318-1.319H218.1a1.318,1.318,0,0,0-1.318,1.319v10.2A1.319,1.319,0,0,0,218.1,298.715Zm1.318-10.2h5.372v7.558h-5.372Z" transform="translate(-207.167 -213.988)"/>
          <path id="Trazado_164019" data-name="Trazado 164019" d="M254.134,233.295a11.959,11.959,0,0,0-11.946,11.946v.974H241.3a3.08,3.08,0,0,0-3.076,3.076v14.766a6.6,6.6,0,0,0,6.592,6.592h18.633a6.6,6.6,0,0,0,6.592-6.592V249.291a3.08,3.08,0,0,0-3.076-3.076h-.886v-.974a11.96,11.96,0,0,0-11.947-11.946Zm-9.309,11.946a9.309,9.309,0,0,1,18.618,0v.974h-2.637v-.974a6.673,6.673,0,1,0-13.345,0v.974h-2.636Zm13.345,0v.974H250.1v-.974a4.036,4.036,0,0,1,8.072,0Zm8.8,3.611a.44.44,0,0,1,.439.439v1.451H252.9a1.318,1.318,0,1,0,0,2.636h14.5v10.679a3.959,3.959,0,0,1-3.955,3.955H244.819a3.96,3.96,0,0,1-3.956-3.955V253.378h5.889a1.318,1.318,0,1,0,0-2.636h-5.889v-1.451a.44.44,0,0,1,.44-.439Z" transform="translate(-209.311 -208.729)"/>
          <path id="Trazado_164020" data-name="Trazado 164020" d="M254.2,265.969v1.349a1.318,1.318,0,1,0,2.637,0v-1.349a4.307,4.307,0,1,0-2.637,0Zm1.318-5.77a1.67,1.67,0,1,1-1.669,1.67A1.672,1.672,0,0,1,255.521,260.2Z" transform="translate(-210.61 -211.156)"/>
          <path id="Trazado_164021" data-name="Trazado 164021" d="M290.209,245.375a5.722,5.722,0,0,0-5.513,4.219h-7.008a26.644,26.644,0,0,0-4.538-13.583,1.318,1.318,0,1,0-2.185,1.476,24.188,24.188,0,1,1-3.792-4.378,1.318,1.318,0,1,0,1.773-1.951,26.729,26.729,0,0,0-11.52-6.165v-5.546a.44.44,0,0,1,.439-.439h12.52v7.823a2.552,2.552,0,0,0,2.549,2.549h16.094a2.552,2.552,0,0,0,2.549-2.549V208.549A2.552,2.552,0,0,0,289.028,206H272.934a2.552,2.552,0,0,0-2.549,2.549v7.822h-12.52a3.08,3.08,0,0,0-3.076,3.076v5.027a26.938,26.938,0,0,0-7.91.024v-5.051a3.08,3.08,0,0,0-3.076-3.076H233.432v-7.294A3.08,3.08,0,0,0,230.356,206H211.723a3.079,3.079,0,0,0-3.076,3.076v2.549a1.318,1.318,0,1,0,2.636,0v-2.549a.441.441,0,0,1,.44-.439h18.633a.44.44,0,0,1,.439.439v11.689H211.283v-2.988a1.318,1.318,0,1,0-2.636,0v3a2.723,2.723,0,0,0-2.549,2.713,6.075,6.075,0,0,0,.761,2.174,5.4,5.4,0,0,0,4.864,3.015h18.658a5.4,5.4,0,0,0,4.841-2.971,6.128,6.128,0,0,0,.759-2.218,2.724,2.724,0,0,0-2.549-2.713v-1.767H243.8a.44.44,0,0,1,.439.439v5.589a26.864,26.864,0,0,0-20.09,24.558h-6.828a5.71,5.71,0,1,0,.085,2.636h6.736a26.861,26.861,0,0,0,20.1,24.734v5.589a.44.44,0,0,1-.439.439H231.635v-7.823a2.552,2.552,0,0,0-2.549-2.549H212.992a2.552,2.552,0,0,0-2.549,2.549v18.282A2.552,2.552,0,0,0,212.992,296h16.095a2.552,2.552,0,0,0,2.549-2.549v-7.822H243.8a3.08,3.08,0,0,0,3.076-3.076V277.5a26.939,26.939,0,0,0,7.91.024v5.026a3.08,3.08,0,0,0,3.076,3.076h14.278v7.294A3.079,3.079,0,0,0,275.219,296h11.524a3.079,3.079,0,0,0,3.076-3.076v-4.546a1.318,1.318,0,0,0-2.637,0v4.546a.44.44,0,0,1-.439.439H275.219a.44.44,0,0,1-.44-.439V275.7a.44.44,0,0,1,.44-.439h11.524a.44.44,0,0,1,.439.439v6.065a1.318,1.318,0,0,0,2.637,0V275.7a3.08,3.08,0,0,0-3.076-3.076H275.219a3.08,3.08,0,0,0-3.076,3.076v7.3H257.865a.44.44,0,0,1-.439-.439v-5.546A26.86,26.86,0,0,0,277.7,252.23h6.912a5.713,5.713,0,1,0,5.6-6.855Zm-17.188-36.738H288.94v7.734H273.021Zm0,10.371H288.94v7.735H273.021Zm-56.992,7.032h-4.306a2.776,2.776,0,0,1-2.5-1.551l-.479-.964a.09.09,0,0,1-.009-.038.085.085,0,0,1,.085-.085h7.211Zm7.383,0h-4.747V223.4h4.747Zm9.932-2.48a.094.094,0,0,1-.009.039l-.464.913a2.78,2.78,0,0,1-2.49,1.527h-4.332V223.4h7.21a.085.085,0,0,1,.085.085Zm-21.533,30.6a3.076,3.076,0,1,1,3.076-3.076A3.08,3.08,0,0,1,211.81,254.164ZM229,293.363H213.08V275.258H229v18.105Zm61.211-39.2a3.076,3.076,0,1,1,3.076-3.076A3.08,3.08,0,0,1,290.209,254.164Z" transform="translate(-206.098 -206)"/>
          <circle id="Elipse_4992" data-name="Elipse 4992" cx="1.318" cy="1.318" r="1.318" transform="translate(68.757 5.186)"/>
          <circle id="Elipse_4993" data-name="Elipse 4993" cx="1.318" cy="1.318" r="1.318" transform="translate(68.757 15.557)"/>
          <circle id="Elipse_4994" data-name="Elipse 4994" cx="1.318" cy="1.318" r="1.318" transform="translate(73.564 82.969)"/>
        </g>
      </g>
    </g>
  </g>
</svg>
