<svg xmlns="http://www.w3.org/2000/svg" width="179.011" height="180" viewBox="0 0 179.011 180">
  <g id="Grupo_108652" data-name="Grupo 108652" transform="translate(-867 -595)">
    <ellipse id="Elipse_5016" data-name="Elipse 5016" cx="89.506" cy="90" rx="89.506" ry="90" transform="translate(867 595)" fill="#fff"/>
    <g id="Grupo_108434" data-name="Grupo 108434" transform="translate(707.322 434.21)">
      <path id="Trazado_164022" data-name="Trazado 164022" d="M279.486,294.482H221.445a4.708,4.708,0,0,1-4.694-4.694V212.12a4.708,4.708,0,0,1,4.694-4.694h58.041a4.708,4.708,0,0,1,4.694,4.694v77.667A4.708,4.708,0,0,1,279.486,294.482Z" transform="translate(-1.807 -0.164)" fill="#d0cfd1"/>
      <path id="Trazado_164023" data-name="Trazado 164023" d="M285.955,207.426h-4.513a4.707,4.707,0,0,1,4.694,4.694v77.667a4.707,4.707,0,0,1-4.694,4.694h4.513a4.708,4.708,0,0,0,4.694-4.694V212.12A4.708,4.708,0,0,0,285.955,207.426Z" transform="translate(-8.276 -0.164)" fill="#a0a0a0"/>
      <path id="Trazado_164024" data-name="Trazado 164024" d="M228.051,215.9a3.1,3.1,0,1,1-3.1-3.1A3.1,3.1,0,0,1,228.051,215.9Z" transform="translate(-2.317 -0.7)" fill="#646464"/>
      <path id="Trazado_164025" data-name="Trazado 164025" d="M285.838,215.9a3.1,3.1,0,1,1-3.1-3.1A3.1,3.1,0,0,1,285.838,215.9Z" transform="translate(-8.095 -0.7)" fill="#646464"/>
      <path id="Trazado_164026" data-name="Trazado 164026" d="M228.051,294.679a3.1,3.1,0,1,1-3.1-3.1A3.1,3.1,0,0,1,228.051,294.679Z" transform="translate(-2.317 -8.579)" fill="#646464"/>
      <path id="Trazado_164027" data-name="Trazado 164027" d="M285.838,294.679a3.1,3.1,0,1,1-3.1-3.1A3.1,3.1,0,0,1,285.838,294.679Z" transform="translate(-8.095 -8.579)" fill="#646464"/>
      <path id="Trazado_164028" data-name="Trazado 164028" d="M307.873,218.475a3.679,3.679,0,1,1-3.679-3.679A3.679,3.679,0,0,1,307.873,218.475Z" transform="translate(-10.184 -0.901)" fill="#8f52f5"/>
      <path id="Trazado_164029" data-name="Trazado 164029" d="M306.239,292.889a3.68,3.68,0,1,1-3.679-3.68A3.68,3.68,0,0,1,306.239,292.889Z" transform="translate(-10.02 -8.342)" fill="#8f52f5"/>
      <path id="Trazado_164030" data-name="Trazado 164030" d="M207.672,294.661a3.679,3.679,0,1,1-3.679-3.679A3.679,3.679,0,0,1,207.672,294.661Z" transform="translate(-0.164 -8.519)" fill="#8f52f5"/>
      <path id="Trazado_164031" data-name="Trazado 164031" d="M208.217,220.248a3.68,3.68,0,1,1-3.679-3.679A3.68,3.68,0,0,1,208.217,220.248Z" transform="translate(-0.218 -1.078)" fill="#8f52f5"/>
      <path id="Trazado_164032" data-name="Trazado 164032" d="M271.255,237.577a19.092,19.092,0,1,1-19.093-19.092A19.093,19.093,0,0,1,271.255,237.577Z" transform="translate(-3.439 -1.27)" fill="#fff4f1"/>
      <path id="Trazado_164033" data-name="Trazado 164033" d="M254.033,218.485a19.261,19.261,0,0,0-2.256.133,19.093,19.093,0,0,1,0,37.918,19.092,19.092,0,1,0,2.256-38.051Z" transform="translate(-5.31 -1.27)" fill="#ecedef"/>
      <path id="Trazado_164034" data-name="Trazado 164034" d="M256.556,249H250.37a4.31,4.31,0,0,1-4.3-4.3v-5.194a4.31,4.31,0,0,1,4.3-4.3h6.186a4.31,4.31,0,0,1,4.3,4.3V244.7A4.31,4.31,0,0,1,256.556,249Z" transform="translate(-4.74 -2.942)" fill="#f9cd45"/>
      <path id="Trazado_164035" data-name="Trazado 164035" d="M257.219,235.209h-4.514a4.31,4.31,0,0,1,4.3,4.3V244.7a4.31,4.31,0,0,1-4.3,4.3h4.514a4.31,4.31,0,0,0,4.3-4.3v-5.194A4.31,4.31,0,0,0,257.219,235.209Z" transform="translate(-5.403 -2.942)" fill="#f8b53c"/>
      <path id="Trazado_164036" data-name="Trazado 164036" d="M242.831,274.871A8.832,8.832,0,1,1,234,266.039,8.833,8.833,0,0,1,242.831,274.871Z" transform="translate(-2.649 -6.025)" fill="#00bf9e"/>
      <path id="Trazado_164037" data-name="Trazado 164037" d="M234.73,266.039a8.808,8.808,0,0,0-2.257.293,8.833,8.833,0,0,1,0,17.078,8.832,8.832,0,1,0,2.257-17.371Z" transform="translate(-3.38 -6.025)" fill="#00a983"/>
      <path id="Trazado_164038" data-name="Trazado 164038" d="M281.439,274.871a8.832,8.832,0,1,1-8.833-8.832A8.833,8.833,0,0,1,281.439,274.871Z" transform="translate(-6.51 -6.025)" fill="#d0b6fc"/>
      <path id="Trazado_164039" data-name="Trazado 164039" d="M273.337,266.039a8.814,8.814,0,0,0-2.257.293,8.832,8.832,0,0,1,0,17.078,8.832,8.832,0,1,0,2.257-17.371Z" transform="translate(-7.24 -6.025)" fill="#ae82f7"/>
      <g id="Grupo_107198" data-name="Grupo 107198" transform="translate(198.678 205.79)">
        <path id="Trazado_164040" data-name="Trazado 164040" d="M224.784,220.307a4.576,4.576,0,1,0-4.576-4.576A4.581,4.581,0,0,0,224.784,220.307Zm0-6.207a1.632,1.632,0,1,1-1.632,1.632A1.634,1.634,0,0,1,224.784,214.1Z" transform="translate(-200.831 -206.327)" fill="#18191b"/>
        <path id="Trazado_164041" data-name="Trazado 164041" d="M282.571,211.155a4.576,4.576,0,1,0,4.576,4.576A4.581,4.581,0,0,0,282.571,211.155Zm0,6.208a1.632,1.632,0,1,1,1.632-1.632A1.634,1.634,0,0,1,282.571,217.363Z" transform="translate(-206.61 -206.326)" fill="#18191b"/>
        <path id="Trazado_164042" data-name="Trazado 164042" d="M224.784,299.092a4.576,4.576,0,1,0-4.576-4.577A4.582,4.582,0,0,0,224.784,299.092Zm0-6.208a1.632,1.632,0,1,1-1.632,1.632A1.634,1.634,0,0,1,224.784,292.884Z" transform="translate(-200.831 -214.205)" fill="#18191b"/>
        <path id="Trazado_164043" data-name="Trazado 164043" d="M282.571,299.092a4.576,4.576,0,1,0-4.576-4.577A4.581,4.581,0,0,0,282.571,299.092Zm0-6.208a1.632,1.632,0,1,1-1.633,1.632A1.633,1.633,0,0,1,282.571,292.884Z" transform="translate(-206.61 -214.205)" fill="#18191b"/>
        <path id="Trazado_164044" data-name="Trazado 164044" d="M292.539,283.535a5.16,5.16,0,0,0-4.936,3.679h-3.757V261.69a1.472,1.472,0,0,0-2.944,0v32.073a3.224,3.224,0,0,1-3.222,3.222H219.638a3.225,3.225,0,0,1-3.222-3.222V248.657a1.472,1.472,0,1,0-2.944,0V270.47H203.83a1.472,1.472,0,0,0-1.471,1.472v13.4a5.151,5.151,0,1,0,2.944,0V273.414h8.17v20.35a6.172,6.172,0,0,0,6.166,6.166h58.041a6.173,6.173,0,0,0,6.166-6.166v-3.605H287.6a5.151,5.151,0,1,0,4.936-6.623Zm-86.5,6.746a2.208,2.208,0,1,1-2.208-2.208A2.21,2.21,0,0,1,206.037,290.281Zm86.5.612a2.209,2.209,0,0,1-2.207-2.206h0v0a2.207,2.207,0,1,1,2.207,2.209Z" transform="translate(-198.678 -209.93)" fill="#18191b"/>
        <path id="Trazado_164045" data-name="Trazado 164045" d="M204.375,224.322a5.16,5.16,0,0,0,4.936-3.679h4.216V238.63a1.472,1.472,0,0,0,2.944,0V211.957a3.226,3.226,0,0,1,3.223-3.223h58.041a3.225,3.225,0,0,1,3.222,3.223v39.706a1.472,1.472,0,1,0,2.944,0V237.387h10.165a1.472,1.472,0,0,0,1.472-1.472v-13.4a5.152,5.152,0,1,0-2.944,0v11.932H283.9V211.957a6.173,6.173,0,0,0-6.166-6.167H219.693a6.173,6.173,0,0,0-6.166,6.167V217.7H209.31a5.151,5.151,0,1,0-4.936,6.623Zm87.483-6.747a2.208,2.208,0,1,1,2.208,2.209A2.21,2.21,0,0,1,291.857,217.575Zm-87.483-.611a2.207,2.207,0,1,1-2.209,2.207A2.21,2.21,0,0,1,204.375,216.964Z" transform="translate(-198.732 -205.79)" fill="#18191b"/>
        <path id="Trazado_164046" data-name="Trazado 164046" d="M252,257.977a20.564,20.564,0,1,0-20.564-20.564A20.586,20.586,0,0,0,252,257.977Zm0-38.184a17.62,17.62,0,1,1-17.62,17.62A17.64,17.64,0,0,1,252,219.793Z" transform="translate(-201.954 -206.896)" fill="#18191b"/>
        <path id="Trazado_164047" data-name="Trazado 164047" d="M250.207,249.357h6.186a5.776,5.776,0,0,0,5.769-5.769v-5.194a5.779,5.779,0,0,0-3.576-5.335v-3.51a5.465,5.465,0,0,0-10.93,0v3.673a5.776,5.776,0,0,0-3.218,5.172v5.194A5.777,5.777,0,0,0,250.207,249.357Zm2.913-22.329a2.525,2.525,0,0,1,2.523,2.521v3.075H250.6v-3.075A2.525,2.525,0,0,1,253.12,227.028Zm-5.738,11.366a2.828,2.828,0,0,1,2.825-2.825h6.186a2.829,2.829,0,0,1,2.825,2.825v5.194a2.829,2.829,0,0,1-2.825,2.825h-6.186a2.828,2.828,0,0,1-2.825-2.825Z" transform="translate(-203.254 -207.619)" fill="#18191b"/>
        <path id="Trazado_164048" data-name="Trazado 164048" d="M243.771,277.432h14.877a10.306,10.306,0,1,0-.364-2.944H244.134a10.3,10.3,0,1,0-.363,2.944Zm24.811-10.085a7.36,7.36,0,1,1-7.359,7.36A7.368,7.368,0,0,1,268.582,267.347Zm-42.107,7.36a7.36,7.36,0,1,1,7.36,7.359A7.368,7.368,0,0,1,226.476,274.707Z" transform="translate(-201.163 -211.651)" fill="#18191b"/>
        <path id="Trazado_164049" data-name="Trazado 164049" d="M239.5,271.643a1.472,1.472,0,0,0-2.078-.13l-4.456,3.938-.771-.979a1.472,1.472,0,1,0-2.313,1.821l1.735,2.2a1.475,1.475,0,0,0,1.024.555,1.3,1.3,0,0,0,.132.005,1.472,1.472,0,0,0,.975-.368l5.624-4.969A1.471,1.471,0,0,0,239.5,271.643Z" transform="translate(-201.767 -212.325)" fill="#18191b"/>
        <path id="Trazado_164050" data-name="Trazado 164050" d="M269.879,279.06a1.473,1.473,0,0,0,2.083,0l1.417-1.422,1.4,1.447a1.472,1.472,0,1,0,2.117-2.046l-1.438-1.488,1.455-1.461a1.472,1.472,0,0,0-2.085-2.078l-1.417,1.422-1.4-1.447a1.472,1.472,0,0,0-2.117,2.047l1.438,1.487-1.454,1.461A1.472,1.472,0,0,0,269.879,279.06Z" transform="translate(-205.755 -212.364)" fill="#18191b"/>
      </g>
    </g>
  </g>
</svg>
