<svg xmlns="http://www.w3.org/2000/svg" width="239.906" height="241.231" viewBox="0 0 239.906 241.231">
  <g id="Grupo_108661" data-name="Grupo 108661" transform="translate(-679 -3733)">
    <ellipse id="Elipse_5019" data-name="Elipse 5019" cx="119.953" cy="120.616" rx="119.953" ry="120.616" transform="translate(679 3733)" fill="#fff"/>
    <g id="Grupo_108459" data-name="Grupo 108459" transform="translate(539.935 3596)">
      <path id="Trazado_166079" data-name="Trazado 166079" d="M306.594,235.527H209.531a2.976,2.976,0,0,1-2.976-2.976V221.123a2.976,2.976,0,0,1,2.976-2.976h97.063a2.976,2.976,0,0,1,2.976,2.976v11.428A2.976,2.976,0,0,1,306.594,235.527Z" transform="translate(0.529 0.303)" fill="#ff7043"/>
      <path id="Trazado_166080" data-name="Trazado 166080" d="M302.838,218.147h-7.565a2.976,2.976,0,0,1,2.976,2.976v11.428a2.976,2.976,0,0,1-2.976,2.976h7.565a2.976,2.976,0,0,0,2.976-2.976V221.123A2.976,2.976,0,0,0,302.838,218.147Z" transform="translate(4.284 0.303)" fill="#ff5722"/>
      <path id="Trazado_166081" data-name="Trazado 166081" d="M321.211,233.236V297.8a5.043,5.043,0,0,1-5.041,5.045H200.92a5.043,5.043,0,0,1-5.041-5.045V217.86a5.043,5.043,0,0,1,5.041-5.045h40.768a8.174,8.174,0,0,1,5.48,2.111l12.326,11.154a8.167,8.167,0,0,0,5.479,2.111h51.2A5.043,5.043,0,0,1,321.211,233.236Z" transform="translate(0.077 0.077)" fill="#ffd740"/>
      <path id="Trazado_166082" data-name="Trazado 166082" d="M250.378,226.08a8.165,8.165,0,0,0,5.477,2.111h7.562a8.169,8.169,0,0,1-5.479-2.111l-12.326-11.154a8.169,8.169,0,0,0-5.479-2.111h-7.562a8.164,8.164,0,0,1,5.477,2.111Z" transform="translate(1.63 0.077)" fill="#ffc400"/>
      <path id="Trazado_166083" data-name="Trazado 166083" d="M311.592,227.566H304.03a5.044,5.044,0,0,1,5.042,5.046v69.6h2.519a5.043,5.043,0,0,0,5.042-5.045v-64.56A5.043,5.043,0,0,0,311.592,227.566Z" transform="translate(4.655 0.701)" fill="#ffc400"/>
      <path id="Trazado_166084" data-name="Trazado 166084" d="M316.167,300.318H200.923a5.043,5.043,0,0,1-5.044-5.043v-22.85H321.211v22.85A5.043,5.043,0,0,1,316.167,300.318Z" transform="translate(0.077 2.6)" fill="#ddc9fd"/>
      <path id="Trazado_166085" data-name="Trazado 166085" d="M309.072,272.425v22.848a5.044,5.044,0,0,1-5.042,5.045h7.562a5.043,5.043,0,0,0,5.041-5.045V272.425Z" transform="translate(4.655 2.6)" fill="#8f52f5"/>
      <path id="Trazado_166086" data-name="Trazado 166086" d="M284.882,241.9H273.034a7.575,7.575,0,0,0-7.567,7.567v11.346a3.783,3.783,0,0,0,7.565,0l0-11.348,11.85,0v11.346a3.783,3.783,0,1,0,7.565,0V249.466A7.576,7.576,0,0,0,284.882,241.9Z" transform="translate(3.023 1.308)" fill="#cfd8dc"/>
      <path id="Trazado_166087" data-name="Trazado 166087" d="M284.4,241.9h-7.565a7.576,7.576,0,0,1,7.568,7.567v11.346a3.783,3.783,0,1,0,7.565,0V249.466A7.576,7.576,0,0,0,284.4,241.9Z" transform="translate(3.504 1.308)" fill="#b0bec5"/>
      <path id="Trazado_166088" data-name="Trazado 166088" d="M295.045,287.961H263.27a2.522,2.522,0,0,1-2.521-2.522V261.356a2.522,2.522,0,0,1,2.521-2.522h31.775a2.522,2.522,0,0,1,2.522,2.522v24.082A2.523,2.523,0,0,1,295.045,287.961Z" transform="translate(2.823 2.025)" fill="#ff7043"/>
      <path id="Trazado_166089" data-name="Trazado 166089" d="M293.959,258.834h-7.565a2.522,2.522,0,0,1,2.521,2.522v24.082a2.523,2.523,0,0,1-2.521,2.522h7.565a2.523,2.523,0,0,0,2.522-2.522V261.356A2.522,2.522,0,0,0,293.959,258.834Z" transform="translate(3.909 2.025)" fill="#ff5722"/>
      <path id="Trazado_166090" data-name="Trazado 166090" d="M321.288,289.006a1.889,1.889,0,0,0,1.891-1.891v-53.8a6.942,6.942,0,0,0-6.932-6.938H311.99v-4.95a4.873,4.873,0,0,0-4.868-4.868h-4.055a1.891,1.891,0,0,0,0,3.783h4.055a1.086,1.086,0,0,1,1.085,1.085v4.95h-43.16a6.264,6.264,0,0,1-4.21-1.622l-4.877-4.413H295a1.891,1.891,0,1,0,0-3.783H251.781l-3.269-2.958a10.043,10.043,0,0,0-6.748-2.6H201a6.942,6.942,0,0,0-6.932,6.937v7.606a1.891,1.891,0,0,0,3.783,0v-7.606A3.155,3.155,0,0,1,201,214.783h40.768a6.258,6.258,0,0,1,4.209,1.623L258.3,227.559a10.04,10.04,0,0,0,6.747,2.6h51.2a3.156,3.156,0,0,1,3.149,3.155v39.821H302.281v-9.753a4.418,4.418,0,0,0-4.413-4.413h-.5v-8.195a9.469,9.469,0,0,0-9.458-9.459h-11.85a9.469,9.469,0,0,0-9.457,9.459v8.195h-.5a4.417,4.417,0,0,0-4.413,4.413v9.753H197.848V233.7a1.891,1.891,0,0,0-3.783,0v64.177A6.942,6.942,0,0,0,201,304.81H316.247a6.942,6.942,0,0,0,6.932-6.937V295.1a1.891,1.891,0,0,0-3.783,0v2.773a3.155,3.155,0,0,1-3.149,3.154H201a3.155,3.155,0,0,1-3.149-3.154V276.917H261.68v10.546a4.418,4.418,0,0,0,4.413,4.413h31.775a4.418,4.418,0,0,0,4.413-4.413V276.917H319.4v10.2A1.89,1.89,0,0,0,321.288,289.006ZM270.38,250.773a5.682,5.682,0,0,1,5.674-5.677h11.85a5.683,5.683,0,0,1,5.676,5.677v8.195H289.8v-8.195a1.892,1.892,0,0,0-1.89-1.892l-11.852,0h0a1.891,1.891,0,0,0-1.892,1.892v8.2H270.38Zm15.635,8.195h-8.07v-6.306l8.07,0Zm12.483,28.5a.631.631,0,0,1-.631.631H266.093a.631.631,0,0,1-.631-.631V263.381a.631.631,0,0,1,.631-.631h31.775a.631.631,0,0,1,.631.631Z" transform="translate(0 0)"/>
      <path id="Trazado_166091" data-name="Trazado 166091" d="M278.64,263.891a5.674,5.674,0,0,0-1.891,11.024v4.762a1.891,1.891,0,0,0,3.783,0v-4.762a5.674,5.674,0,0,0-1.892-11.024Zm0,7.565a1.891,1.891,0,1,1,1.892-1.891A1.892,1.892,0,0,1,278.64,271.456Z" transform="translate(3.34 2.239)"/>
    </g>
  </g>
</svg>
