<svg xmlns="http://www.w3.org/2000/svg" width="86" height="86" viewBox="0 0 86 86">
  <g id="Grupo_108690" data-name="Grupo 108690" transform="translate(-4015 8624)">
    <g id="Grupo_108643" data-name="Grupo 108643" transform="translate(3802 -8837)">
      <path id="Trazado_166750" data-name="Trazado 166750" d="M297.567,224.467h-51.6V217.3a2.867,2.867,0,0,1,2.866-2.867H294.7a2.868,2.868,0,0,1,2.867,2.867Z" fill="#ffb206"/>
      <path id="Trazado_166751" data-name="Trazado 166751" d="M297.567,224.467V273.2a2.867,2.867,0,0,1-2.867,2.867H248.833a2.867,2.867,0,0,1-2.866-2.867V224.467Z" fill="#fce3ab"/>
      <path id="Trazado_166752" data-name="Trazado 166752" d="M231.633,261.733v-2.866A2.867,2.867,0,0,0,234.5,256v-7.167H224.467v12.9Z" fill="#ffceb6"/>
      <path id="Trazado_166753" data-name="Trazado 166753" d="M224.467,256l-2.867-4.3v-2.867a5.733,5.733,0,0,1,5.733-5.733H234.5a2.866,2.866,0,1,1,0,5.733h-2.867L228.767,256Z" fill="#c47220"/>
      <path id="Trazado_166754" data-name="Trazado 166754" d="M267.2,249.634l-1.167,3.5v5.734L256.858,271.1a12.414,12.414,0,0,1-14.545,4.078l-.75-.3-4.2-1.677v12.9l-1.434,4.3H215.867l-1.434-4.3V268.9a7.169,7.169,0,0,1,7.167-7.167h15.847a5.748,5.748,0,0,1,2.564.606l5.7,2.852,1.686.842,10.033-8.6v-2.866a2.863,2.863,0,0,1,2.859-2.867h.008l4.787-3.59a1.365,1.365,0,0,1,2.113,1.524Z" fill="#ffceb6"/>
      <path id="Trazado_166755" data-name="Trazado 166755" d="M215.867,290.4h20.066V299H215.867Z" fill="#718799"/>
      <path id="Trazado_166756" data-name="Trazado 166756" d="M245.714,265.191l-4.151,9.686-4.2-1.677v12.9l-1.434,4.3H215.867l-1.434-4.3V268.9a7.169,7.169,0,0,1,7.167-7.167h15.847a5.748,5.748,0,0,1,2.564.606Z" fill="#e01650"/>
      <path id="Trazado_166757" data-name="Trazado 166757" d="M267.18,259.727a1.434,1.434,0,0,0,.287-.86v-5.5l1.093-3.279a2.8,2.8,0,0,0-4.334-3.123l-4.445,3.334A4.307,4.307,0,0,0,256,254.567v2.207l-8.81,7.552-6.538-3.269a7.192,7.192,0,0,0-3.2-.757h-4.38v-.246A4.307,4.307,0,0,0,235.933,256v-5.98a4.3,4.3,0,0,0-1.433-8.353h-7.167a7.173,7.173,0,0,0-7.166,7.166V251.7a1.431,1.431,0,0,0,.24.795l2.626,3.939V260.3H221.6a8.61,8.61,0,0,0-8.6,8.6v17.2a1.451,1.451,0,0,0,.073.453l1.36,4.08V299H217.3v-7.167h17.2V299h2.867v-8.367l1.36-4.08a1.452,1.452,0,0,0,.073-.453V275.317l2.981,1.192a13.849,13.849,0,0,0,16.224-4.549Zm-44.147-10.894a4.306,4.306,0,0,1,4.3-4.3H234.5a1.433,1.433,0,0,1,0,2.867h-2.867a1.432,1.432,0,0,0-1.33.9l-2.507,6.266h-2.562l-2.2-3.3Zm2.867,8.6h2.867a1.43,1.43,0,0,0,1.33-.9l2.507-6.265h.463V256a1.435,1.435,0,0,1-1.434,1.433,1.434,1.434,0,0,0-1.433,1.434V260.3h-4.3Zm12,14.436a1.435,1.435,0,0,0-1.966,1.331v12.667l-1.033,3.1h-18l-1.033-3.1V268.9a5.738,5.738,0,0,1,5.733-5.733h15.847a4.312,4.312,0,0,1,1.923.454l4.494,2.247-3.069,7.16Zm17.813-1.629a10.975,10.975,0,0,1-12.245,3.833l2.965-6.921.327.163a1.434,1.434,0,0,0,1.574-.193l10.033-8.6a1.435,1.435,0,0,0,.5-1.089v-2.866a1.435,1.435,0,0,1,1.433-1.434,1.433,1.433,0,0,0,.86-.286l4.611-3.458-1.1,3.291a1.451,1.451,0,0,0-.073.453v5.256Z"/>
      <path id="Trazado_166758" data-name="Trazado 166758" d="M294.7,213H248.833a4.306,4.306,0,0,0-4.3,4.3v43H247.4V225.9h48.733v47.3a1.435,1.435,0,0,1-1.433,1.433H257.433V277.5H294.7a4.3,4.3,0,0,0,4.3-4.3V217.3A4.3,4.3,0,0,0,294.7,213Zm-47.3,10.033V217.3a1.435,1.435,0,0,1,1.433-1.433H294.7a1.435,1.435,0,0,1,1.433,1.433v5.733Z"/>
      <circle id="Elipse_5059" data-name="Elipse 5059" cx="1.433" cy="1.433" r="1.433" transform="translate(248.833 217.3)"/>
      <circle id="Elipse_5060" data-name="Elipse 5060" cx="1.433" cy="1.433" r="1.433" transform="translate(253.133 217.3)"/>
      <circle id="Elipse_5061" data-name="Elipse 5061" cx="1.433" cy="1.433" r="1.433" transform="translate(257.433 217.3)"/>
      <path id="Trazado_166759" data-name="Trazado 166759" d="M256,234.5v-2.867h-2.867a1.434,1.434,0,0,0-1.433,1.434v8.6a1.434,1.434,0,0,0,1.433,1.433h8.6a1.434,1.434,0,0,0,1.434-1.433V233.66l2.447-2.446-2.028-2.027-8.6,8.6,2.028,2.027,3.286-3.287v3.706h-5.733V234.5Z"/>
      <path id="Trazado_166760" data-name="Trazado 166760" d="M267.467,233.067H273.2v2.866h-5.733Z"/>
      <path id="Trazado_166761" data-name="Trazado 166761" d="M276.067,233.067h15.766v2.866H276.067Z"/>
      <path id="Trazado_166762" data-name="Trazado 166762" d="M267.467,238.8h11.466v2.867H267.467Z"/>
      <path id="Trazado_166763" data-name="Trazado 166763" d="M281.8,238.8h2.867v2.867H281.8Z"/>
      <path id="Trazado_166764" data-name="Trazado 166764" d="M283.233,247.4h8.6v2.867h-8.6Z"/>
      <path id="Trazado_166765" data-name="Trazado 166765" d="M271.767,247.4h8.6v2.867h-8.6Z"/>
      <path id="Trazado_166766" data-name="Trazado 166766" d="M270.333,253.133h14.334V256H270.333Z"/>
      <path id="Trazado_166767" data-name="Trazado 166767" d="M287.533,253.133H290.4V256h-2.867Z"/>
      <path id="Trazado_166768" data-name="Trazado 166768" d="M283.233,261.733h8.6V264.6h-8.6Z"/>
      <path id="Trazado_166769" data-name="Trazado 166769" d="M271.767,261.733h8.6V264.6h-8.6Z"/>
      <path id="Trazado_166770" data-name="Trazado 166770" d="M270.333,267.467h14.334v2.866H270.333Z"/>
      <path id="Trazado_166771" data-name="Trazado 166771" d="M287.533,267.467H290.4v2.866h-2.867Z"/>
    </g>
  </g>
</svg>
