<svg xmlns="http://www.w3.org/2000/svg" width="85" height="85" viewBox="0 0 85 85">
  <g id="Grupo_108641" data-name="Grupo 108641" transform="translate(-583 -3120)">
    <g id="Grupo_108642" data-name="Grupo 108642" transform="translate(583 3120)">
      <path id="Trazado_166726" data-name="Trazado 166726" d="M214.509,230.581h61.982a1.351,1.351,0,0,1,1.348,1.353V276.6H256.28a9.176,9.176,0,0,1-6.506,2.708h-8.546a9.171,9.171,0,0,1-6.505-2.708H213.161V231.934A1.351,1.351,0,0,1,214.509,230.581Z" transform="translate(-203 -204.469)" fill="#fcdc94"/>
      <path id="Trazado_166727" data-name="Trazado 166727" d="M286.548,279.935v5.807a5.645,5.645,0,0,1-5.473,5.806H209.925a5.645,5.645,0,0,1-5.473-5.806v-5.807h30.1a9.09,9.09,0,0,0,6.609,2.9h8.674a9.09,9.09,0,0,0,6.609-2.9Z" transform="translate(-203 -208)" fill="#838f9b"/>
      <path id="Trazado_166728" data-name="Trazado 166728" d="M288.645,230.207v46.178h-5.806v-44.82a1.412,1.412,0,0,0-1.452-1.358h-5.806a16.731,16.731,0,0,0,1.393-5.433h5.865A5.627,5.627,0,0,1,288.645,230.207Z" transform="translate(-208 -204.451)" fill="#aab2bd"/>
      <path id="Trazado_166729" data-name="Trazado 166729" d="M240.742,230.207H214.613a1.412,1.412,0,0,0-1.452,1.358v44.82h-5.806V230.207a5.627,5.627,0,0,1,5.806-5.433h26.187A16.757,16.757,0,0,0,240.742,230.207Z" transform="translate(-203 -204.451)" fill="#aab2bd"/>
      <path id="Trazado_166730" data-name="Trazado 166730" d="M274.129,265.419a2.9,2.9,0,1,1-2.323,1.161A2.948,2.948,0,0,1,274.129,265.419Z" transform="translate(-207.052 -206.707)" fill="#8f52f5"/>
      <path id="Trazado_166731" data-name="Trazado 166731" d="M277.032,223.323c0,.493-.014.972-.058,1.451a18.846,18.846,0,0,1-12.847,16.447l-.159-.479-5.807-17.419L271.5,209.982A18.819,18.819,0,0,1,277.032,223.323Z" transform="translate(-206.878 -203)" fill="#ffb206"/>
      <path id="Trazado_166732" data-name="Trazado 166732" d="M271.5,209.982l-13.341,13.341-17.419-7.258a18.865,18.865,0,0,1,30.76-6.083Z" transform="translate(-206.186 -203)" fill="#69d6f4"/>
      <g id="Grupo_108641-2" data-name="Grupo 108641" transform="translate(33.449 12.065)">
        <path id="Trazado_166733" data-name="Trazado 166733" d="M260.252,261.427a2.843,2.843,0,0,1-.639-1.814,2.9,2.9,0,1,1,5.226,1.742,2.942,2.942,0,0,1-2.323,1.161A2.892,2.892,0,0,1,260.252,261.427Z" transform="translate(-240.582 -220.065)" fill="#8f52f5"/>
        <path id="Trazado_166734" data-name="Trazado 166734" d="M263.968,240.742l.159.479a18.412,18.412,0,0,1-5.966.973,18.847,18.847,0,0,1-15.648-8.318,18.442,18.442,0,0,1-1.771-3.3,18.9,18.9,0,0,1-1.394-5.807c-.044-.479-.058-.958-.058-1.451a18.878,18.878,0,0,1,1.452-7.258l17.419,7.258Z" transform="translate(-239.29 -216.065)" fill="#8f52f5"/>
        <path id="Trazado_166735" data-name="Trazado 166735" d="M250.265,269.411a2.851,2.851,0,0,1,.638,1.815,2.9,2.9,0,0,1-5.806,0,2.817,2.817,0,0,1,.493-1.611,2.9,2.9,0,0,1,4.675-.2Z" transform="translate(-238.485 -219.065)" fill="#8f52f5"/>
      </g>
      <path id="Trazado_166736" data-name="Trazado 166736" d="M239.29,250.9v2.9H218.968V236.387H239.29Z" transform="translate(-204.146 -205.3)" fill="#f59ab4"/>
      <path id="Trazado_166737" data-name="Trazado 166737" d="M237.839,262.516a2.818,2.818,0,0,1-.494,1.611,2.893,2.893,0,0,1-4.819,0,2.818,2.818,0,0,1-.494-1.611,2.9,2.9,0,0,1,5.807,0Z" transform="translate(-204.724 -206.362)" fill="#8f52f5"/>
      <path id="Trazado_166738" data-name="Trazado 166738" d="M224.281,269.615a2.817,2.817,0,0,1,.493,1.611,2.914,2.914,0,1,1-.493-1.611Z" transform="translate(-203.948 -206.879)" fill="#8f52f5"/>
      <path id="Trazado_166739" data-name="Trazado 166739" d="M211.71,284.29h2.9v2.9h-2.9Z" transform="translate(-203 -208)"/>
      <path id="Trazado_166740" data-name="Trazado 166740" d="M217.516,284.29h2.9v2.9h-2.9Z" transform="translate(-203 -208)"/>
      <path id="Trazado_166741" data-name="Trazado 166741" d="M223.323,284.29h2.9v2.9h-2.9Z" transform="translate(-204.167 -208)"/>
      <path id="Trazado_166742" data-name="Trazado 166742" d="M272.677,284.29H284.29v2.9H272.677Z" transform="translate(-208 -208)"/>
      <path id="Trazado_166743" data-name="Trazado 166743" d="M285.258,274.29V229.049a6.863,6.863,0,0,0-6.855-6.855H274.29a19.193,19.193,0,1,0-38.387,0H212.6a6.863,6.863,0,0,0-6.855,6.855V274.29H203v6.855A6.863,6.863,0,0,0,209.855,288h71.29A6.863,6.863,0,0,0,288,281.145V274.29ZM278.4,224.936a4.119,4.119,0,0,1,4.113,4.113V274.29h-2.743V230.419a2.745,2.745,0,0,0-2.742-2.742h-3.55a18.981,18.981,0,0,0,.588-2.742Zm-38.962-7.78,14.551,6.063,4.983,14.945a16.427,16.427,0,0,1-19.534-21.008Zm22.139,20.153-4.915-14.744,10.981-10.982a16.419,16.419,0,0,1-6.066,25.726ZM255.1,205.742a16.383,16.383,0,0,1,10.614,3.9l-10.933,10.932L240.5,214.628A16.456,16.456,0,0,1,255.1,205.742Zm-46.613,23.307a4.119,4.119,0,0,1,4.113-4.113h23.526a18.983,18.983,0,0,0,.589,2.742H213.968a2.744,2.744,0,0,0-2.742,2.742V274.29h-2.743Zm76.775,52.1a4.118,4.118,0,0,1-4.113,4.113h-71.29a4.118,4.118,0,0,1-4.113-4.113v-4.113h28.245a10.655,10.655,0,0,0,7.166,2.742h8.7a10.651,10.651,0,0,0,7.166-2.742H274.29V274.29H255.9l-.4.4a7.94,7.94,0,0,1-5.652,2.34h-8.7a7.94,7.94,0,0,1-5.652-2.34l-.4-.4H213.968V230.419h23.814a19.152,19.152,0,0,0,34.63,0h4.62v46.613h8.226Z" transform="translate(-203 -203)"/>
      <path id="Trazado_166744" data-name="Trazado 166744" d="M269.486,263.968a3.744,3.744,0,0,0-2.213.733l-4.65-3.8a4.642,4.642,0,0,0,.2-1.291,4.012,4.012,0,1,0-8,0,4.666,4.666,0,0,0,.236,1.42l-7.463,6.5a3.658,3.658,0,0,0-4.484.214l-5.746-4.174a4.622,4.622,0,0,0,.134-1.061,4.012,4.012,0,1,0-7.995,0,4.621,4.621,0,0,0,.134,1.061l-5.746,4.174a3.749,3.749,0,0,0-2.384-.88,4.371,4.371,0,1,0,4,4.355,4.622,4.622,0,0,0-.135-1.061l5.746-4.174a3.671,3.671,0,0,0,4.769,0l5.746,4.174a4.637,4.637,0,0,0-.135,1.061,4.012,4.012,0,1,0,8,0,4.661,4.661,0,0,0-.236-1.42l7.463-6.505a3.675,3.675,0,0,0,4.314-.066l4.65,3.8a4.637,4.637,0,0,0-.2,1.291,4.012,4.012,0,1,0,4-4.355Zm-47.972,8.709a1.457,1.457,0,1,1,1.333-1.451A1.4,1.4,0,0,1,221.514,272.677Zm11.993-8.709a1.457,1.457,0,1,1,1.333-1.452A1.4,1.4,0,0,1,233.506,263.968Zm11.994,8.709a1.457,1.457,0,1,1,1.333-1.451A1.4,1.4,0,0,1,245.5,272.677Zm13.326-11.612a1.457,1.457,0,1,1,1.333-1.452A1.4,1.4,0,0,1,258.826,261.065Zm10.661,8.709a1.457,1.457,0,1,1,1.333-1.451A1.4,1.4,0,0,1,269.486,269.774Z" transform="translate(-203 -206.75)"/>
      <path id="Trazado_166745" data-name="Trazado 166745" d="M240.742,234.935H217.516v20.323h23.226Zm-2.9,17.42h-17.42V237.839h17.42Z" transform="translate(-204.087 -205.292)"/>
      <path id="Trazado_166746" data-name="Trazado 166746" d="M223.323,240.742h11.612v2.9H223.323Z" transform="translate(-204.296 -205.167)"/>
      <path id="Trazado_166747" data-name="Trazado 166747" d="M223.323,246.548h11.612v2.9H223.323Z" transform="translate(-204.296 -205.5)"/>
      <path id="Trazado_166748" data-name="Trazado 166748" d="M243.645,249.452h2.9v2.9h-2.9Z" transform="translate(-205.333 -205.667)"/>
      <path id="Trazado_166749" data-name="Trazado 166749" d="M249.452,249.452h29.032v2.9H249.452Z" transform="translate(-206.81 -205.667)"/>
    </g>
  </g>
</svg>
