<svg id="Grupo_83728" data-name="Grupo 83728" xmlns="http://www.w3.org/2000/svg" width="121" height="121" viewBox="0 0 121 121">
  <circle id="Elipse_4392" data-name="Elipse 4392" cx="60.5" cy="60.5" r="60.5" fill="#34c7d9"/>
  <path id="Trazado_107120" data-name="Trazado 107120" d="M53.993,0A53.993,53.993,0,1,1,0,53.993,53.993,53.993,0,0,1,53.993,0Z" transform="translate(7 7)" fill="#fff"/>
  <g id="Grupo_83812" data-name="Grupo 83812" transform="translate(-1056.115 -1943.305)">
    <g id="Grupo_83831" data-name="Grupo 83831" transform="translate(1093.518 1972.756)">
      <g id="Grupo_83812-2" data-name="Grupo 83812" transform="translate(8.311 8.009)">
        <path id="Trazado_113384" data-name="Trazado 113384" d="M1125.5,2032.813h-21.153a.524.524,0,0,1-.524-.524v-49.081a.525.525,0,0,1,.524-.525h26.839a.526.526,0,0,1,.371.154l8.947,8.943a.525.525,0,0,1,.154.371v28.766a.525.525,0,0,1-1.05,0v-28.549l-8.641-8.636h-26.1v48.031H1125.5a.525.525,0,0,1,0,1.05Z" transform="translate(-1103.819 -1982.683)" fill="#656565"/>
      </g>
      <g id="Grupo_83813" data-name="Grupo 83813">
        <path id="Trazado_113385" data-name="Trazado 113385" d="M1094.042,2022.877a.524.524,0,0,1-.524-.525v-49.072a.524.524,0,0,1,.524-.524h35.787a.524.524,0,0,1,0,1.049h-35.261v48.547A.525.525,0,0,1,1094.042,2022.877Z" transform="translate(-1093.518 -1972.756)" fill="#656565"/>
      </g>
      <g id="Grupo_83814" data-name="Grupo 83814" transform="translate(35.148 8.01)">
        <path id="Trazado_113386" data-name="Trazado 113386" d="M1146.573,1992.676h-8.963a.525.525,0,0,1-.525-.524v-8.943a.525.525,0,0,1,.9-.371l8.879,8.875a.525.525,0,0,1-.287.964Zm-8.439-1.05h7.156l-7.156-7.153Z" transform="translate(-1137.085 -1982.684)" fill="#656565"/>
      </g>
      <g id="Grupo_83815" data-name="Grupo 83815" transform="translate(31.267 43.922)">
        <path id="Trazado_113387" data-name="Trazado 113387" d="M1140.638,2043.924a8.363,8.363,0,1,1,8.362-8.362A8.373,8.373,0,0,1,1140.638,2043.924Zm0-15.676a7.314,7.314,0,1,0,7.313,7.314A7.323,7.323,0,0,0,1140.638,2028.248Z" transform="translate(-1132.274 -2027.198)" fill="#656565"/>
      </g>
      <g id="Grupo_83816" data-name="Grupo 83816" transform="translate(37.068 40.749)">
        <path id="Trazado_113388" data-name="Trazado 113388" d="M1144.063,2027.762a.491.491,0,0,1-.141-.02,7.2,7.2,0,0,0-3.793,0,.521.521,0,0,1-.458-.087.528.528,0,0,1-.207-.418v-3.446a.525.525,0,0,1,.525-.525h4.074a.525.525,0,0,1,.525.525v3.446a.525.525,0,0,1-.525.525Zm-3.55-3.447v2.263a8.329,8.329,0,0,1,3.025,0v-2.263Z" transform="translate(-1139.464 -2023.265)" fill="#656565"/>
      </g>
      <g id="Grupo_83817" data-name="Grupo 83817" transform="translate(44.642 44.494)">
        <path id="Trazado_113389" data-name="Trazado 113389" d="M1151.415,2034.207a.528.528,0,0,1-.507-.391,7.368,7.368,0,0,0-1.9-3.295.524.524,0,0,1,.109-.825l2.984-1.719a.527.527,0,0,1,.716.192l2.037,3.532a.523.523,0,0,1,.053.4.529.529,0,0,1-.245.319l-2.984,1.719A.529.529,0,0,1,1151.415,2034.207Zm-1.208-3.931a8.487,8.487,0,0,1,1.514,2.624l1.962-1.129-1.514-2.624Z" transform="translate(-1148.852 -2027.907)" fill="#656565"/>
      </g>
      <g id="Grupo_83818" data-name="Grupo 83818" transform="translate(44.642 53.778)">
        <path id="Trazado_113390" data-name="Trazado 113390" d="M1152.361,2045.723a.522.522,0,0,1-.261-.07l-2.984-1.718a.524.524,0,0,1-.11-.824,7.352,7.352,0,0,0,1.168-1.526,7.223,7.223,0,0,0,.734-1.775.522.522,0,0,1,.3-.352.514.514,0,0,1,.465.03l2.984,1.726a.524.524,0,0,1,.191.716l-2.038,3.531A.525.525,0,0,1,1152.361,2045.723Zm-2.154-2.37,1.962,1.13,1.514-2.624-1.96-1.134a8.54,8.54,0,0,1-.64,1.383A8.421,8.421,0,0,1,1150.207,2043.353Z" transform="translate(-1148.852 -2039.415)" fill="#656565"/>
      </g>
      <g id="Grupo_83819" data-name="Grupo 83819" transform="translate(37.068 59.337)">
        <path id="Trazado_113391" data-name="Trazado 113391" d="M1144.063,2050.792h-4.074a.524.524,0,0,1-.525-.524v-3.438a.524.524,0,0,1,.658-.507,7.547,7.547,0,0,0,3.809,0,.524.524,0,0,1,.658.507v3.438A.524.524,0,0,1,1144.063,2050.792Zm-3.55-1.049h3.025v-2.262a8.546,8.546,0,0,1-3.025,0Z" transform="translate(-1139.464 -2046.305)" fill="#656565"/>
      </g>
      <g id="Grupo_83820" data-name="Grupo 83820" transform="translate(28.549 53.786)">
        <path id="Trazado_113392" data-name="Trazado 113392" d="M1131.468,2045.725a.525.525,0,0,1-.454-.262l-2.038-3.531a.521.521,0,0,1-.053-.4.527.527,0,0,1,.245-.319l2.983-1.719a.525.525,0,0,1,.768.319,7.385,7.385,0,0,0,1.9,3.3.524.524,0,0,1-.11.824l-2.983,1.718A.52.52,0,0,1,1131.468,2045.725Zm-1.322-3.864,1.514,2.623,1.96-1.129a8.359,8.359,0,0,1-.877-1.246,8.516,8.516,0,0,1-.636-1.378Z" transform="translate(-1128.905 -2039.425)" fill="#656565"/>
      </g>
      <g id="Grupo_83821" data-name="Grupo 83821" transform="translate(28.549 44.494)">
        <path id="Trazado_113393" data-name="Trazado 113393" d="M1132.412,2034.207a.53.53,0,0,1-.261-.07l-2.983-1.719a.529.529,0,0,1-.245-.319.522.522,0,0,1,.053-.4l2.038-3.532a.526.526,0,0,1,.715-.192l2.983,1.719a.525.525,0,0,1,.11.825,7.31,7.31,0,0,0-1.169,1.524,7.479,7.479,0,0,0-.734,1.773.526.526,0,0,1-.507.389Zm-2.266-2.436,1.961,1.13a8.6,8.6,0,0,1,.636-1.379,8.415,8.415,0,0,1,.877-1.246l-1.96-1.13Z" transform="translate(-1128.905 -2027.907)" fill="#656565"/>
      </g>
      <g id="Grupo_83822" data-name="Grupo 83822" transform="translate(35.186 47.845)">
        <path id="Trazado_113394" data-name="Trazado 113394" d="M1141.576,2040.949a4.444,4.444,0,1,1,4.442-4.448A4.452,4.452,0,0,1,1141.576,2040.949Zm0-7.839a3.394,3.394,0,1,0,3.392,3.391A3.4,3.4,0,0,0,1141.576,2033.111Z" transform="translate(-1137.131 -2032.061)" fill="#656565"/>
      </g>
      <g id="Grupo_83823" data-name="Grupo 83823" transform="translate(16.371 20.503)">
        <path id="Trazado_113395" data-name="Trazado 113395" d="M1117.635,2007a.521.521,0,0,1-.4-.186l-3.3-3.9a.525.525,0,0,1-.01-.666l3.1-3.888a.525.525,0,0,1,.821.653l-2.829,3.551,3.022,3.57a.524.524,0,0,1-.4.863Z" transform="translate(-1113.81 -1998.169)" fill="#656565"/>
      </g>
      <g id="Grupo_83824" data-name="Grupo 83824" transform="translate(27.996 20.503)">
        <path id="Trazado_113396" data-name="Trazado 113396" d="M1128.744,2007a.525.525,0,0,1-.4-.863l3.024-3.57-2.828-3.551a.524.524,0,1,1,.82-.653l3.1,3.888a.524.524,0,0,1-.01.666l-3.3,3.9A.522.522,0,0,1,1128.744,2007Z" transform="translate(-1128.219 -1998.169)" fill="#656565"/>
      </g>
      <g id="Grupo_83825" data-name="Grupo 83825" transform="translate(21.838 20.357)">
        <path id="Trazado_113397" data-name="Trazado 113397" d="M1121.11,2006.408a.525.525,0,0,1-.452-.791l4.337-7.37a.525.525,0,0,1,.9.532l-4.337,7.37A.527.527,0,0,1,1121.11,2006.408Z" transform="translate(-1120.586 -1997.989)" fill="#656565"/>
      </g>
      <g id="Grupo_83826" data-name="Grupo 83826" transform="translate(12.26 38.041)">
        <path id="Trazado_113398" data-name="Trazado 113398" d="M1126.577,2020.958h-17.337a.525.525,0,1,1,0-1.05h17.337a.525.525,0,0,1,0,1.05Z" transform="translate(-1108.714 -2019.908)" fill="#656565"/>
      </g>
      <g id="Grupo_83827" data-name="Grupo 83827" transform="translate(12.26 41.966)">
        <path id="Trazado_113399" data-name="Trazado 113399" d="M1126.577,2025.823h-17.337a.525.525,0,1,1,0-1.05h17.337a.525.525,0,0,1,0,1.05Z" transform="translate(-1108.714 -2024.773)" fill="#656565"/>
      </g>
      <g id="Grupo_83828" data-name="Grupo 83828" transform="translate(12.26 45.88)">
        <path id="Trazado_113400" data-name="Trazado 113400" d="M1113.622,2030.675h-4.383a.525.525,0,1,1,0-1.05h4.383a.525.525,0,1,1,0,1.05Z" transform="translate(-1108.714 -2029.625)" fill="#656565"/>
      </g>
      <g id="Grupo_83829" data-name="Grupo 83829" transform="translate(12.26 49.804)">
        <path id="Trazado_113401" data-name="Trazado 113401" d="M1117.71,2035.539h-8.47a.525.525,0,1,1,0-1.05h8.47a.525.525,0,0,1,0,1.05Z" transform="translate(-1108.714 -2034.489)" fill="#656565"/>
      </g>
      <g id="Grupo_83830" data-name="Grupo 83830" transform="translate(19.113 45.88)">
        <path id="Trazado_113402" data-name="Trazado 113402" d="M1122.122,2030.675h-4.388a.525.525,0,1,1,0-1.05h4.388a.525.525,0,1,1,0,1.05Z" transform="translate(-1117.209 -2029.625)" fill="#656565"/>
      </g>
    </g>
  </g>
</svg>
