<svg id="Grupo_83711" data-name="Grupo 83711" xmlns="http://www.w3.org/2000/svg" width="121" height="121" viewBox="0 0 121 121">
  <circle id="Elipse_4392" data-name="Elipse 4392" cx="60.5" cy="60.5" r="60.5" fill="#34c7d9"/>
  <path id="Trazado_107120" data-name="Trazado 107120" d="M53.993,0A53.993,53.993,0,1,1,0,53.993,53.993,53.993,0,0,1,53.993,0Z" transform="translate(7 7)" fill="#fff"/>
  <g id="Grupo_83770" data-name="Grupo 83770" transform="translate(-1525.394 -2118.48)">
    <g id="Grupo_83780" data-name="Grupo 83780" transform="translate(1546.716 2153.667)">
      <g id="Grupo_83770-2" data-name="Grupo 83770" transform="translate(13.702)">
        <path id="Trazado_113323" data-name="Trazado 113323" d="M1617.68,2200.7h-44.764a.572.572,0,0,1-.535-.775,10.183,10.183,0,0,0,.6-2.472.572.572,0,0,1,.568-.508h2.437v-2.055h-2.544a.574.574,0,0,1-.563-.469,10.149,10.149,0,0,0-2.032-4.471.573.573,0,0,1,.043-.761l1.722-1.726-1.453-1.453-1.8,1.8a.569.569,0,0,1-.728.066,10.186,10.186,0,0,0-4.6-1.721.572.572,0,0,1-.508-.568v-2.44h-.67a.572.572,0,0,1-.573-.572v-28.334a.572.572,0,0,1,.573-.572h54.827a.572.572,0,0,1,.573.572v45.891A.572.572,0,0,1,1617.68,2200.7Zm-43.965-1.145h43.393v-44.746h-53.682V2182h.67a.572.572,0,0,1,.572.573v2.513a11.33,11.33,0,0,1,4.214,1.584l1.878-1.872a.57.57,0,0,1,.809,0l2.26,2.262a.571.571,0,0,1,0,.808l-1.774,1.778a11.313,11.313,0,0,1,1.857,4.1h2.651a.573.573,0,0,1,.573.572v3.2a.573.573,0,0,1-.573.573h-2.51A11.27,11.27,0,0,1,1573.715,2199.558Z" transform="translate(-1562.28 -2153.667)" fill="#656565"/>
      </g>
      <g id="Grupo_83771" data-name="Grupo 83771" transform="translate(13.702 10.704)">
        <path id="Trazado_113324" data-name="Trazado 113324" d="M1617.684,2166.971h-54.831a.573.573,0,1,1,0-1.145h54.831a.573.573,0,0,1,0,1.145Z" transform="translate(-1562.28 -2165.826)" fill="#656565"/>
      </g>
      <g id="Grupo_83772" data-name="Grupo 83772" transform="translate(19.478 3.618)">
        <path id="Trazado_113325" data-name="Trazado 113325" d="M1571.146,2162.389a2.306,2.306,0,1,1,2.307-2.3A2.306,2.306,0,0,1,1571.146,2162.389Zm0-3.467a1.161,1.161,0,1,0,1.162,1.166A1.164,1.164,0,0,0,1571.146,2158.922Z" transform="translate(-1568.841 -2157.777)" fill="#656565"/>
      </g>
      <g id="Grupo_83773" data-name="Grupo 83773" transform="translate(31.144 3.618)">
        <path id="Trazado_113326" data-name="Trazado 113326" d="M1584.4,2162.389a2.306,2.306,0,1,1,2.3-2.3A2.307,2.307,0,0,1,1584.4,2162.389Zm0-3.467a1.161,1.161,0,1,0,1.159,1.166A1.165,1.165,0,0,0,1584.4,2158.922Z" transform="translate(-1582.093 -2157.777)" fill="#656565"/>
      </g>
      <g id="Grupo_83774" data-name="Grupo 83774" transform="translate(42.813 3.618)">
        <path id="Trazado_113327" data-name="Trazado 113327" d="M1597.652,2162.389a2.306,2.306,0,1,1,2.3-2.3A2.305,2.305,0,0,1,1597.652,2162.389Zm0-3.467a1.161,1.161,0,1,0,1.157,1.166A1.163,1.163,0,0,0,1597.652,2158.922Z" transform="translate(-1595.347 -2157.777)" fill="#656565"/>
      </g>
      <g id="Grupo_83775" data-name="Grupo 83775" transform="translate(0 28.333)">
        <path id="Trazado_113328" data-name="Trazado 113328" d="M1562.951,2214.412h-3.2a.573.573,0,0,1-.573-.573v-2.513a11.348,11.348,0,0,1-4.214-1.584l-1.877,1.874a.572.572,0,0,1-.809,0l-2.259-2.263a.572.572,0,0,1,0-.808l1.774-1.778a11.285,11.285,0,0,1-1.858-4.1h-2.647a.572.572,0,0,1-.572-.572v-3.2a.572.572,0,0,1,.572-.573h2.508a11.285,11.285,0,0,1,1.593-4.218l-1.876-1.872a.57.57,0,0,1,0-.809l2.26-2.264a.572.572,0,0,1,.4-.168h0a.575.575,0,0,1,.405.167l1.778,1.779a11.331,11.331,0,0,1,4.107-1.859v-2.651a.572.572,0,0,1,.572-.573h3.194a.572.572,0,0,1,.572.573v2.513a11.33,11.33,0,0,1,4.214,1.584l1.878-1.872a.57.57,0,0,1,.809,0l2.26,2.262a.571.571,0,0,1,0,.808l-1.774,1.778a11.313,11.313,0,0,1,1.857,4.1h2.651a.573.573,0,0,1,.573.572v3.2a.573.573,0,0,1-.573.573h-2.51a11.4,11.4,0,0,1-1.59,4.218l1.873,1.875a.57.57,0,0,1,0,.808l-2.262,2.263a.575.575,0,0,1-.4.167h0a.572.572,0,0,1-.4-.168l-1.776-1.778a11.325,11.325,0,0,1-4.1,1.858v2.652A.573.573,0,0,1,1562.951,2214.412Zm-2.626-1.146h2.054v-2.547a.573.573,0,0,1,.47-.563,10.157,10.157,0,0,0,4.475-2.034.571.571,0,0,1,.76.045l1.724,1.725,1.453-1.452-1.8-1.8a.574.574,0,0,1-.067-.729,10.23,10.23,0,0,0,1.728-4.607.571.571,0,0,1,.568-.507h2.437v-2.055h-2.544a.574.574,0,0,1-.563-.469,10.149,10.149,0,0,0-2.032-4.471.573.573,0,0,1,.043-.761l1.722-1.726-1.453-1.453-1.8,1.8a.569.569,0,0,1-.728.066,10.186,10.186,0,0,0-4.6-1.721.572.572,0,0,1-.508-.568V2187h-2.049v2.546a.571.571,0,0,1-.47.563,10.181,10.181,0,0,0-4.479,2.034.573.573,0,0,1-.76-.044l-1.726-1.726-1.451,1.453,1.8,1.8a.574.574,0,0,1,.066.732,10.127,10.127,0,0,0-1.731,4.6.572.572,0,0,1-.569.507h-2.433v2.055h2.542a.572.572,0,0,1,.563.47,10.137,10.137,0,0,0,2.033,4.469.573.573,0,0,1-.043.761l-1.722,1.726,1.452,1.454,1.8-1.8a.571.571,0,0,1,.728-.067,10.189,10.189,0,0,0,4.6,1.722.571.571,0,0,1,.508.568Z" transform="translate(-1546.716 -2185.851)" fill="#656565"/>
      </g>
      <g id="Grupo_83776" data-name="Grupo 83776" transform="translate(7.213 35.553)">
        <path id="Trazado_113329" data-name="Trazado 113329" d="M1561.971,2208.174a7.061,7.061,0,1,1,7.066-7.061A7.07,7.07,0,0,1,1561.971,2208.174Zm0-12.977a5.916,5.916,0,1,0,5.92,5.916A5.923,5.923,0,0,0,1561.971,2195.2Z" transform="translate(-1554.909 -2194.052)" fill="#656565"/>
      </g>
      <g id="Grupo_83777" data-name="Grupo 83777" transform="translate(32.53 18.912)">
        <path id="Trazado_113330" data-name="Trazado 113330" d="M1608.655,2176.294H1584.24a.573.573,0,1,1,0-1.146h24.415a.573.573,0,0,1,0,1.146Z" transform="translate(-1583.667 -2175.149)" fill="#656565"/>
      </g>
      <g id="Grupo_83778" data-name="Grupo 83778" transform="translate(34.531 29.189)">
        <path id="Trazado_113331" data-name="Trazado 113331" d="M1608.927,2187.969h-22.415a.573.573,0,0,1,0-1.146h22.415a.573.573,0,0,1,0,1.146Z" transform="translate(-1585.94 -2186.823)" fill="#656565"/>
      </g>
      <g id="Grupo_83779" data-name="Grupo 83779" transform="translate(41.666 39.473)">
        <path id="Trazado_113332" data-name="Trazado 113332" d="M1609.9,2199.649h-15.28a.572.572,0,1,1,0-1.145h15.28a.572.572,0,0,1,0,1.145Z" transform="translate(-1594.044 -2198.505)" fill="#656565"/>
      </g>
    </g>
  </g>
</svg>
