<svg xmlns="http://www.w3.org/2000/svg" width="163.786" height="146.407" viewBox="0 0 163.786 146.407">
  <g id="Grupo_80937" data-name="Grupo 80937" transform="translate(1863.252 -1186.534)">
    <g id="Grupo_80906" data-name="Grupo 80906">
      <rect id="Rectángulo_5370" data-name="Rectángulo 5370" width="92.204" height="133.178" rx="2.946" transform="translate(-1834.174 1199.763)" fill="#f0f0f0"/>
      <rect id="Rectángulo_5371" data-name="Rectángulo 5371" width="51.05" height="74.222" transform="translate(-1829.406 1222.475)" fill="#fff"/>
      <g id="Grupo_80905" data-name="Grupo 80905">
        <path id="Trazado_101199" data-name="Trazado 101199" d="M-1744.708,1199.763h-86.729a2.737,2.737,0,0,0-2.737,2.737v15.751h92.206V1202.5a2.737,2.737,0,0,0-2.737-2.737Z" fill="#66e0ff"/>
        <g id="Grupo_80904" data-name="Grupo 80904">
          <g id="T" style="isolation: isolate">
            <text id="T-2" data-name="T" transform="translate(-1821.933 1235.877)" fill="#66e0ff" font-size="12.371" font-family="SegoeUI, Segoe UI" style="isolation: isolate"><tspan x="0" y="0">T</tspan></text>
          </g>
          <rect id="Rectángulo_5372" data-name="Rectángulo 5372" width="30.136" height="1.534" transform="translate(-1813.874 1229.787)" fill="#45645f"/>
          <rect id="Rectángulo_5373" data-name="Rectángulo 5373" width="20.301" height="1.534" transform="translate(-1813.874 1232.937)" fill="#45645f"/>
          <rect id="Rectángulo_5374" data-name="Rectángulo 5374" width="30.136" height="1.534" transform="translate(-1813.874 1236.24)" fill="#45645f"/>
          <rect id="Rectángulo_5375" data-name="Rectángulo 5375" width="40.286" height="1.534" transform="translate(-1824.024 1239.555)" fill="#45645f"/>
          <rect id="Rectángulo_5376" data-name="Rectángulo 5376" width="34.366" height="1.534" transform="translate(-1824.024 1242.819)" fill="#45645f"/>
          <rect id="Rectángulo_5377" data-name="Rectángulo 5377" width="37.604" height="1.534" transform="translate(-1824.024 1246.083)" fill="#45645f"/>
          <rect id="Rectángulo_5378" data-name="Rectángulo 5378" width="40.286" height="1.534" transform="translate(-1824.024 1269.48)" fill="#45645f"/>
          <rect id="Rectángulo_5379" data-name="Rectángulo 5379" width="34.366" height="1.534" transform="translate(-1824.024 1272.744)" fill="#45645f"/>
          <rect id="Rectángulo_5380" data-name="Rectángulo 5380" width="37.604" height="1.534" transform="translate(-1824.024 1276.008)" fill="#45645f"/>
          <rect id="Rectángulo_5381" data-name="Rectángulo 5381" width="34.366" height="1.534" transform="translate(-1824.024 1282.397)" fill="#45645f"/>
          <rect id="Rectángulo_5382" data-name="Rectángulo 5382" width="37.604" height="1.534" transform="translate(-1824.024 1285.661)" fill="#45645f"/>
          <rect id="Rectángulo_5383" data-name="Rectángulo 5383" width="40.236" height="17.044" transform="translate(-1823.973 1249.886)" fill="#66e0ff"/>
        </g>
        <rect id="Rectángulo_5384" data-name="Rectángulo 5384" width="29.44" height="7.312" transform="translate(-1775.066 1222.475)" fill="#66e0ff"/>
        <rect id="Rectángulo_5385" data-name="Rectángulo 5385" width="29.44" height="7.312" transform="translate(-1775.066 1276.948)" fill="#66e0ff"/>
        <rect id="Rectángulo_5386" data-name="Rectángulo 5386" width="83.779" height="7.312" transform="translate(-1829.406 1299.754)" fill="#66e0ff"/>
        <rect id="Rectángulo_5387" data-name="Rectángulo 5387" width="29.44" height="43.463" transform="translate(-1775.066 1231.363)" fill="#afafaf"/>
        <path id="Rectángulo_5388" data-name="Rectángulo 5388" d="M-1829.406,1307.066h83.779v14.689a5.243,5.243,0,0,1-5.243,5.243h-73.292a5.243,5.243,0,0,1-5.244-5.243h0v-14.689Z" fill="#afafaf"/>
      </g>
    </g>
    <g id="Grupo_80936" data-name="Grupo 80936">
      <g id="Grupo_80935" data-name="Grupo 80935">
        <g id="Grupo_80914" data-name="Grupo 80914">
          <rect id="Rectángulo_5389" data-name="Rectángulo 5389" width="35.367" height="20.068" transform="translate(-1734.833 1186.534)" fill="#66e0ff"/>
          <g id="Grupo_80909" data-name="Grupo 80909">
            <g id="Grupo_80907" data-name="Grupo 80907">
              <circle id="Elipse_4004" data-name="Elipse 4004" cx="5.299" cy="5.299" r="5.299" transform="translate(-1722.445 1190.988)" fill="#248296"/>
            </g>
            <g id="Grupo_80908" data-name="Grupo 80908">
              <path id="Trazado_101200" data-name="Trazado 101200" d="M-1718.1,1195.151v2.47a.521.521,0,0,0,.521.521.517.517,0,0,0,.317-.108l1.642-1.259a.521.521,0,0,0,.1-.73.53.53,0,0,0-.1-.1l-1.642-1.212a.522.522,0,0,0-.729.109A.529.529,0,0,0-1718.1,1195.151Z" fill="#f0f0f0"/>
            </g>
          </g>
          <g id="Grupo_80913" data-name="Grupo 80913">
            <path id="Trazado_101201" data-name="Trazado 101201" d="M-1702.948,1204.183h-29.445a.407.407,0,0,1-.406-.407h0a.407.407,0,0,1,.406-.407h29.445a.407.407,0,0,1,.407.407h0a.408.408,0,0,1-.406.407Z" fill="#248296"/>
            <g id="Grupo_80910" data-name="Grupo 80910">
              <path id="Trazado_101202" data-name="Trazado 101202" d="M-1702.948,1203.369h-20.522v.814h20.522a.407.407,0,0,0,.407-.407h0a.407.407,0,0,0-.407-.407Z" fill="#f0f0f0"/>
            </g>
            <path id="Trazado_101203" data-name="Trazado 101203" d="M-1723.514,1203.369h-8.879a.407.407,0,0,0-.406.407h0a.406.406,0,0,0,.4.407h8.88Z" fill="#248296"/>
            <g id="Grupo_80912" data-name="Grupo 80912">
              <path id="Trazado_101204" data-name="Trazado 101204" d="M-1722.446,1203.776a1.013,1.013,0,0,1-1.013,1.013,1.013,1.013,0,0,1-1.013-1.013,1.013,1.013,0,0,1,1.013-1.014,1.013,1.013,0,0,1,1.013,1.014Z" fill="#248296"/>
              <g id="Grupo_80911" data-name="Grupo 80911">
                <path id="Trazado_101205" data-name="Trazado 101205" d="M-1722.977,1203.776a.482.482,0,0,1-.482.482.483.483,0,0,1-.483-.482.483.483,0,0,1,.483-.483.482.482,0,0,1,.482.483Z" fill="#8ce8ff"/>
              </g>
            </g>
          </g>
        </g>
        <g id="Grupo_80919" data-name="Grupo 80919">
          <path id="Trazado_101206" data-name="Trazado 101206" d="M-1756.876,1312.423v11.514a1.8,1.8,0,0,0,1.8,1.8h20.942a1.8,1.8,0,0,1,1.095.371l4.6,3.516a1.8,1.8,0,0,0,2.527-.337,1.8,1.8,0,0,0,.37-1.095v-15.771a1.8,1.8,0,0,0-1.8-1.8h-27.731A1.8,1.8,0,0,0-1756.876,1312.423Z" fill="#66e0ff"/>
          <g id="Grupo_80918" data-name="Grupo 80918">
            <g id="Grupo_80915" data-name="Grupo 80915">
              <circle id="Elipse_4005" data-name="Elipse 4005" cx="1.2" cy="1.2" r="1.2" transform="translate(-1747.213 1317.207)" fill="#f0f0f0"/>
            </g>
            <g id="Grupo_80916" data-name="Grupo 80916">
              <path id="Trazado_101207" data-name="Trazado 101207" d="M-1739.6,1318.407a1.2,1.2,0,0,1-1.2,1.2,1.2,1.2,0,0,1-1.2-1.2,1.2,1.2,0,0,1,1.2-1.2h0A1.2,1.2,0,0,1-1739.6,1318.407Z" fill="#f0f0f0"/>
            </g>
            <g id="Grupo_80917" data-name="Grupo 80917">
              <path id="Trazado_101208" data-name="Trazado 101208" d="M-1734.383,1318.407a1.2,1.2,0,0,1-1.2,1.2,1.2,1.2,0,0,1-1.2-1.2,1.2,1.2,0,0,1,1.2-1.2,1.2,1.2,0,0,1,1.2,1.2Z" fill="#f0f0f0"/>
            </g>
          </g>
        </g>
        <g id="Grupo_80930" data-name="Grupo 80930">
          <path id="Trazado_101209" data-name="Trazado 101209" d="M-1829.406,1268.556v11.953a1.582,1.582,0,0,1-1.582,1.583h-23.748a1.589,1.589,0,0,0-.961.325l-5.011,3.83a1.583,1.583,0,0,1-2.219-.3,1.583,1.583,0,0,1-.325-.961v-16.437a1.582,1.582,0,0,1,1.582-1.583h30.682a1.582,1.582,0,0,1,1.582,1.583Z" fill="#66e0ff"/>
          <g id="Grupo_80929" data-name="Grupo 80929">
            <g id="Grupo_80920" data-name="Grupo 80920">
              <path id="Trazado_101210" data-name="Trazado 101210" d="M-1854.009,1274.475a3.107,3.107,0,0,1-3.108,3.108,3.108,3.108,0,0,1-3.108-3.108,3.108,3.108,0,0,1,3.108-3.108,3.107,3.107,0,0,1,3.108,3.108Z" fill="#359aaf"/>
            </g>
            <g id="Grupo_80928" data-name="Grupo 80928">
              <g id="Grupo_80922" data-name="Grupo 80922">
                <g id="Grupo_80921" data-name="Grupo 80921">
                  <path id="Trazado_101211" data-name="Trazado 101211" d="M-1851.758,1273.482l.513-1.511h.825l-.407,1.511Zm1.164,0,.512-1.511h.828l-.408,1.511Z" fill="#fff"/>
                </g>
              </g>
              <g id="Grupo_80924" data-name="Grupo 80924">
                <g id="Grupo_80923" data-name="Grupo 80923">
                  <path id="Trazado_101212" data-name="Trazado 101212" d="M-1836.239,1277.284l.512-1.512h.828l-.408,1.512Zm1.162,0,.513-1.512h.825l-.407,1.512Z" fill="#fff"/>
                </g>
              </g>
              <g id="Grupo_80925" data-name="Grupo 80925">
                <rect id="Rectángulo_5390" data-name="Rectángulo 5390" width="16.049" height="0.716" transform="translate(-1848.679 1272.489)" fill="#248296"/>
              </g>
              <g id="Grupo_80926" data-name="Grupo 80926">
                <rect id="Rectángulo_5391" data-name="Rectángulo 5391" width="18.233" height="0.716" transform="translate(-1851.758 1274.229)" fill="#248296"/>
              </g>
              <g id="Grupo_80927" data-name="Grupo 80927">
                <rect id="Rectángulo_5392" data-name="Rectángulo 5392" width="15.028" height="0.716" transform="translate(-1851.758 1275.97)" fill="#248296"/>
              </g>
            </g>
          </g>
        </g>
        <g id="Grupo_80934" data-name="Grupo 80934">
          <rect id="Rectángulo_5393" data-name="Rectángulo 5393" width="39.203" height="22.244" transform="translate(-1767.938 1246.549)" fill="#66e0ff"/>
          <g id="Grupo_80931" data-name="Grupo 80931">
            <rect id="Rectángulo_5394" data-name="Rectángulo 5394" width="35.204" height="18.161" transform="translate(-1766.09 1248.542)" fill="#359aaf"/>
          </g>
          <g id="Grupo_80932" data-name="Grupo 80932">
            <path id="Trazado_101213" data-name="Trazado 101213" d="M-1766.09,1266.7l9.975-13.39a2.73,2.73,0,0,1,3.82-.557,2.733,2.733,0,0,1,.54.534l7.322,9.619,4.034-3.794a2.731,2.731,0,0,1,3.859.119,2.784,2.784,0,0,1,.191.227l5.461,7.241Z" fill="#248296"/>
          </g>
          <g id="Grupo_80933" data-name="Grupo 80933">
            <path id="Trazado_101214" data-name="Trazado 101214" d="M-1741.208,1254.111a2.9,2.9,0,0,1-2.9,2.905,2.9,2.9,0,0,1-2.9-2.9,2.9,2.9,0,0,1,2.9-2.9h0A2.9,2.9,0,0,1-1741.208,1254.111Z" fill="#fff"/>
          </g>
        </g>
      </g>
    </g>
  </g>
</svg>
