<svg xmlns="http://www.w3.org/2000/svg" width="80.187" height="65.092" viewBox="0 0 80.187 65.092">
  <g id="Grupo_81510" data-name="Grupo 81510" transform="translate(-619.94 -537.737)">
    <g id="Grupo_81509" data-name="Grupo 81509">
      <g id="Grupo_81479" data-name="Grupo 81479">
        <path id="Trazado_140572" data-name="Trazado 140572" d="M684.212,578.226H635.855a.65.65,0,0,1-.65-.651V560.911a.646.646,0,0,1,.213-.48c.9-.823,1.682-1.515,2.357-2.115,4.1-3.64,4.1-3.64,4.009-8.9-.014-.811-.03-1.739-.036-2.814-2.7.262-4.794-.257-6.313-1.542a.654.654,0,0,1-.23-.5v-.583a5.75,5.75,0,0,1,5.744-5.742h38.17a5.75,5.75,0,0,1,5.743,5.742v15.979a.651.651,0,0,1-.387.6,3.225,3.225,0,0,0-1.938,2.939v1.991a.65.65,0,0,1-.65.651h-1.7v7.386a.591.591,0,0,0,.592.589h3.43a.65.65,0,0,1,.65.651v2.814A.65.65,0,0,1,684.212,578.226Zm-47.706-1.3h47.055v-1.514h-2.779a1.893,1.893,0,0,1-1.892-1.89v-8.037a.65.65,0,0,1,.65-.65h1.7v-1.341a4.521,4.521,0,0,1,2.325-3.935V543.98a4.446,4.446,0,0,0-4.442-4.441h-38.17a4.447,4.447,0,0,0-4.443,4.441v.27c1.358,1.019,3.265,1.336,5.8.975a.651.651,0,0,1,.742.643c0,1.384.02,2.541.037,3.525.1,5.748.018,5.933-4.445,9.9-.619.549-1.326,1.176-2.133,1.909Z" fill="#97181a" stroke="#97181a" stroke-width="1"/>
      </g>
      <g id="Grupo_81480" data-name="Grupo 81480">
        <path id="Trazado_140573" data-name="Trazado 140573" d="M690.626,575.411h-9.844a1.893,1.893,0,0,1-1.892-1.89v-8.037a.65.65,0,0,1,.65-.65h12.411a.651.651,0,0,1,.651.65v7.952A1.978,1.978,0,0,1,690.626,575.411Zm-10.436-9.276v7.386a.591.591,0,0,0,.592.589h9.844a.675.675,0,0,0,.675-.674v-7.3Z" fill="#97181a" stroke="#97181a" stroke-width="1"/>
      </g>
      <g id="Grupo_81481" data-name="Grupo 81481">
        <path id="Trazado_140574" data-name="Trazado 140574" d="M689.6,566.135h-7.714a.65.65,0,0,1-.651-.651v-1.991a4.507,4.507,0,0,1,9.015,0v1.991A.65.65,0,0,1,689.6,566.135Zm-7.064-1.3h6.413v-1.341a3.207,3.207,0,0,0-6.413,0Z" fill="#97181a" stroke="#97181a" stroke-width="1"/>
      </g>
      <g id="Grupo_81482" data-name="Grupo 81482">
        <path id="Trazado_140575" data-name="Trazado 140575" d="M683.717,572.772a.65.65,0,0,1-.456-1.113l4.057-4a.65.65,0,0,1,.912.926l-4.057,4A.645.645,0,0,1,683.717,572.772Z" fill="#97181a" stroke="#97181a" stroke-width="1"/>
      </g>
      <g id="Grupo_81483" data-name="Grupo 81483">
        <path id="Trazado_140576" data-name="Trazado 140576" d="M687.769,572.772a.649.649,0,0,1-.457-.187l-4.049-4a.651.651,0,0,1,.914-.926l4.05,4a.65.65,0,0,1-.458,1.113Z" fill="#97181a" stroke="#97181a" stroke-width="1"/>
      </g>
      <g id="Grupo_81484" data-name="Grupo 81484">
        <path id="Trazado_140577" data-name="Trazado 140577" d="M635.861,561.561a.649.649,0,0,1-.436-.168c-.971-.879-1.8-1.6-2.507-2.221-4.278-3.736-4.358-3.93-4.3-10.416.007-.842.016-1.8.016-2.888a.649.649,0,0,1,.234-.5.666.666,0,0,1,.533-.141,7.938,7.938,0,0,0,6.1-1.206.649.649,0,0,1,.781.045c1.37,1.164,3.344,1.54,6.023,1.158a.651.651,0,0,1,.742.643c0,1.385.02,2.543.037,3.527.1,5.747.018,5.931-4.442,9.894-.671.6-1.447,1.285-2.342,2.1A.651.651,0,0,1,635.861,561.561Zm-5.927-14.94c0,.789-.009,1.5-.015,2.148-.055,6.011-.055,6.011,3.854,9.424.6.527,1.295,1.13,2.086,1.841.719-.651,1.356-1.217,1.919-1.717,4.1-3.641,4.1-3.641,4.006-8.9-.014-.811-.03-1.74-.036-2.816a8.431,8.431,0,0,1-5.926-1.245A9.152,9.152,0,0,1,629.934,546.621Z" fill="#97181a" stroke="#97181a" stroke-width="1"/>
      </g>
      <g id="Grupo_81485" data-name="Grupo 81485">
        <path id="Trazado_140578" data-name="Trazado 140578" d="M659.906,556.479a5.375,5.375,0,1,1,5.378-5.372A5.38,5.38,0,0,1,659.906,556.479Zm0-9.45a4.075,4.075,0,1,0,4.077,4.078A4.081,4.081,0,0,0,659.906,547.029Z" fill="#97181a" stroke="#97181a" stroke-width="1"/>
      </g>
      <g id="Grupo_81487" data-name="Grupo 81487">
        <g id="Grupo_81486" data-name="Grupo 81486">
          <path id="Trazado_140579" data-name="Trazado 140579" d="M668.706,570.728a.651.651,0,0,1-.65-.651v-7.009a4.39,4.39,0,0,0-4.387-4.384H656.4a4.389,4.389,0,0,0-4.386,4.384v7.009a.651.651,0,1,1-1.3,0v-7.009a5.693,5.693,0,0,1,5.687-5.685h7.265a5.693,5.693,0,0,1,5.687,5.685v7.009A.651.651,0,0,1,668.706,570.728Zm-3.148,0a.651.651,0,0,1-.651-.651v-3.834a.651.651,0,0,1,1.3,0v3.834A.651.651,0,0,1,665.558,570.728Zm-11.047,0a.651.651,0,0,1-.651-.651v-3.834a.651.651,0,0,1,1.3,0v3.834A.651.651,0,0,1,654.511,570.728Z" fill="#97181a" stroke="#97181a" stroke-width="1"/>
        </g>
      </g>
      <g id="Grupo_81488" data-name="Grupo 81488">
        <path id="Trazado_140580" data-name="Trazado 140580" d="M660.035,568.116a.65.65,0,0,1-.65-.65v-6.375h-1.14a.651.651,0,0,1,0-1.3h3.578a.651.651,0,1,1,0,1.3h-1.138v6.375A.65.65,0,0,1,660.035,568.116Z" fill="#97181a" stroke="#97181a" stroke-width="1"/>
      </g>
      <g id="Grupo_81489" data-name="Grupo 81489">
        <path id="Trazado_140581" data-name="Trazado 140581" d="M668.706,570.728H651.367a.651.651,0,0,1,0-1.3h17.339a.651.651,0,0,1,0,1.3Z" fill="#97181a" stroke="#97181a" stroke-width="1"/>
      </g>
      <g id="Grupo_81490" data-name="Grupo 81490">
        <path id="Trazado_140582" data-name="Trazado 140582" d="M698.977,578.226H621.091a.651.651,0,1,1,0-1.3h77.886a.651.651,0,0,1,0,1.3Z" fill="#97181a" stroke="#97181a" stroke-width="1"/>
      </g>
      <g id="Grupo_81491" data-name="Grupo 81491">
        <path id="Trazado_140583" data-name="Trazado 140583" d="M698.977,583.021H621.091a.651.651,0,1,1,0-1.3h77.886a.651.651,0,0,1,0,1.3Z" fill="#97181a" stroke="#97181a" stroke-width="1"/>
      </g>
      <g id="Grupo_81492" data-name="Grupo 81492">
        <path id="Trazado_140584" data-name="Trazado 140584" d="M635.855,600.692a.65.65,0,0,1-.65-.65v-9.906a.65.65,0,1,1,1.3,0v9.906A.65.65,0,0,1,635.855,600.692Z" fill="#97181a" stroke="#97181a" stroke-width="1"/>
      </g>
      <g id="Grupo_81493" data-name="Grupo 81493">
        <path id="Trazado_140585" data-name="Trazado 140585" d="M641.9,602.33a.65.65,0,0,1-.65-.65V585.461a.651.651,0,1,1,1.3,0V601.68A.65.65,0,0,1,641.9,602.33Z" fill="#97181a" stroke="#97181a" stroke-width="1"/>
      </g>
      <g id="Grupo_81494" data-name="Grupo 81494">
        <path id="Trazado_140586" data-name="Trazado 140586" d="M647.947,592a.65.65,0,0,1-.65-.65v-5.889a.651.651,0,1,1,1.3,0v5.889A.65.65,0,0,1,647.947,592Z" fill="#97181a" stroke="#97181a" stroke-width="1"/>
      </g>
      <g id="Grupo_81495" data-name="Grupo 81495">
        <path id="Trazado_140587" data-name="Trazado 140587" d="M653.992,602.33a.65.65,0,0,1-.65-.65V585.461a.651.651,0,1,1,1.3,0V601.68A.65.65,0,0,1,653.992,602.33Z" fill="#97181a" stroke="#97181a" stroke-width="1"/>
      </g>
      <g id="Grupo_81496" data-name="Grupo 81496">
        <path id="Trazado_140588" data-name="Trazado 140588" d="M660.035,600.692a.65.65,0,0,1-.65-.65v-9.906a.65.65,0,1,1,1.3,0v9.906A.65.65,0,0,1,660.035,600.692Z" fill="#97181a" stroke="#97181a" stroke-width="1"/>
      </g>
      <g id="Grupo_81497" data-name="Grupo 81497">
        <path id="Trazado_140589" data-name="Trazado 140589" d="M666.081,602.33a.65.65,0,0,1-.65-.65V585.461a.65.65,0,1,1,1.3,0V601.68A.65.65,0,0,1,666.081,602.33Z" fill="#97181a" stroke="#97181a" stroke-width="1"/>
      </g>
      <g id="Grupo_81498" data-name="Grupo 81498">
        <path id="Trazado_140590" data-name="Trazado 140590" d="M672.121,596.008a.65.65,0,0,1-.65-.651v-9.9a.65.65,0,1,1,1.3,0v9.9A.65.65,0,0,1,672.121,596.008Z" fill="#97181a" stroke="#97181a" stroke-width="1"/>
      </g>
      <g id="Grupo_81499" data-name="Grupo 81499">
        <path id="Trazado_140591" data-name="Trazado 140591" d="M678.167,602.33a.65.65,0,0,1-.65-.65v-8.609a.65.65,0,0,1,1.3,0v8.609A.65.65,0,0,1,678.167,602.33Z" fill="#97181a" stroke="#97181a" stroke-width="1"/>
      </g>
      <g id="Grupo_81500" data-name="Grupo 81500">
        <path id="Trazado_140592" data-name="Trazado 140592" d="M684.212,597.96a.65.65,0,0,1-.651-.65V585.461a.651.651,0,1,1,1.3,0V597.31A.65.65,0,0,1,684.212,597.96Z" fill="#97181a" stroke="#97181a" stroke-width="1"/>
      </g>
      <g id="Grupo_81501" data-name="Grupo 81501">
        <path id="Trazado_140593" data-name="Trazado 140593" d="M635.855,589.38a.65.65,0,0,1-.65-.651v-3.268a.65.65,0,1,1,1.3,0v3.268A.65.65,0,0,1,635.855,589.38Z" fill="#97181a" stroke="#97181a" stroke-width="1"/>
      </g>
      <g id="Grupo_81502" data-name="Grupo 81502">
        <path id="Trazado_140594" data-name="Trazado 140594" d="M647.947,600.692a.65.65,0,0,1-.65-.65v-3.278a.651.651,0,1,1,1.3,0v3.278A.65.65,0,0,1,647.947,600.692Z" fill="#97181a" stroke="#97181a" stroke-width="1"/>
      </g>
      <g id="Grupo_81503" data-name="Grupo 81503">
        <path id="Trazado_140595" data-name="Trazado 140595" d="M660.035,589.38a.65.65,0,0,1-.65-.651v-3.268a.65.65,0,1,1,1.3,0v3.268A.65.65,0,0,1,660.035,589.38Z" fill="#97181a" stroke="#97181a" stroke-width="1"/>
      </g>
      <g id="Grupo_81504" data-name="Grupo 81504">
        <path id="Trazado_140596" data-name="Trazado 140596" d="M672.121,600.692a.65.65,0,0,1-.65-.65v-3.278a.65.65,0,1,1,1.3,0v3.278A.65.65,0,0,1,672.121,600.692Z" fill="#97181a" stroke="#97181a" stroke-width="1"/>
      </g>
      <g id="Grupo_81505" data-name="Grupo 81505">
        <path id="Trazado_140597" data-name="Trazado 140597" d="M633.667,554.48a.651.651,0,0,1-.6-.4l-1.266-3.055a.65.65,0,0,1,1.2-.5l.994,2.4,5.8-3.039a.65.65,0,1,1,.6,1.152l-6.428,3.369A.657.657,0,0,1,633.667,554.48Z" fill="#97181a" stroke="#97181a" stroke-width="1"/>
      </g>
      <g id="Grupo_81506" data-name="Grupo 81506">
        <path id="Trazado_140598" data-name="Trazado 140598" d="M647.947,595.675a.65.65,0,0,1-.65-.651v-1.87a.651.651,0,0,1,1.3,0v1.87A.65.65,0,0,1,647.947,595.675Z" fill="#97181a" stroke="#97181a" stroke-width="1"/>
      </g>
      <g id="Grupo_81507" data-name="Grupo 81507">
        <path id="Trazado_140599" data-name="Trazado 140599" d="M678.167,592.471a.65.65,0,0,1-.65-.651v-3.276a.65.65,0,1,1,1.3,0v3.276A.65.65,0,0,1,678.167,592.471Z" fill="#97181a" stroke="#97181a" stroke-width="1"/>
      </g>
      <g id="Grupo_81508" data-name="Grupo 81508">
        <path id="Trazado_140600" data-name="Trazado 140600" d="M678.167,587.777a.65.65,0,0,1-.65-.65v-1.7a.65.65,0,1,1,1.3,0v1.7A.65.65,0,0,1,678.167,587.777Z" fill="#97181a" stroke="#97181a" stroke-width="1"/>
      </g>
    </g>
  </g>
</svg>
