<svg xmlns="http://www.w3.org/2000/svg" width="47.942" height="49.954" viewBox="0 0 47.942 49.954">
  <g id="Grupo_81095" data-name="Grupo 81095" transform="translate(0.25 0.25)">
    <g id="Grupo_81086" data-name="Grupo 81086">
      <path id="Trazado_139787" data-name="Trazado 139787" d="M257.5,577.741h-3.344a.406.406,0,0,1-.4-.346l-.924-6.149a17.322,17.322,0,0,1-3.02-.806l-3.873,4.865a.405.405,0,0,1-.521.1l-2.9-1.674a.406.406,0,0,1-.175-.5l2.279-5.789a17.835,17.835,0,0,1-2.207-2.21l-5.793,2.278a.406.406,0,0,1-.5-.174l-1.675-2.9a.408.408,0,0,1,.1-.521l4.865-3.876a17.171,17.171,0,0,1-.806-3.017l-6.152-.923a.407.407,0,0,1-.346-.4v-2.9a.406.406,0,0,1,.346-.4l6.151-.919a17.369,17.369,0,0,1,.806-3.021l-4.865-3.87a.407.407,0,0,1-.1-.521l1.675-2.9a.407.407,0,0,1,.5-.174l5.793,2.277a17.452,17.452,0,0,1,2.206-2.209l-2.279-5.79a.405.405,0,0,1,.175-.5l2.9-1.674a.407.407,0,0,1,.521.1l3.873,4.865a17.367,17.367,0,0,1,3.02-.806l.924-6.154a.406.406,0,0,1,.4-.346H257.5a.406.406,0,0,1,.4.346l.923,6.154a17.4,17.4,0,0,1,3.018.806l3.872-4.865a.407.407,0,0,1,.521-.1l2.9,1.674a.406.406,0,0,1,.174.5l-2.279,5.79a17.522,17.522,0,0,1,2.209,2.209l5.79-2.278a.4.4,0,0,1,.5.174l1.678,2.9a.407.407,0,0,1-.1.521l-4.868,3.87a17.555,17.555,0,0,1,.809,3.022l6.153.925a.406.406,0,0,1,.346.4V555.7a.406.406,0,0,1-.346.4l-6.153.923a17.322,17.322,0,0,1-.809,3.017l4.869,3.876a.407.407,0,0,1,.1.521l-1.678,2.9a.406.406,0,0,1-.5.174l-5.79-2.279a17.477,17.477,0,0,1-2.209,2.2l2.279,5.795a.406.406,0,0,1-.174.5l-2.9,1.674a.405.405,0,0,1-.521-.1l-3.872-4.865a17.3,17.3,0,0,1-3.018.806l-.923,6.149A.406.406,0,0,1,257.5,577.741Zm-2.994-.813h2.645l.915-6.1a.406.406,0,0,1,.339-.341,16.433,16.433,0,0,0,3.425-.915.41.41,0,0,1,.464.126l3.839,4.822,2.292-1.324-2.259-5.744a.4.4,0,0,1,.123-.465,16.817,16.817,0,0,0,2.509-2.5.4.4,0,0,1,.464-.122l5.739,2.258,1.327-2.292-4.825-3.843a.4.4,0,0,1-.125-.465,16.618,16.618,0,0,0,.918-3.423.405.405,0,0,1,.341-.338l6.1-.916v-2.192l-6.1-.916a.406.406,0,0,1-.341-.338,16.8,16.8,0,0,0-.919-3.43.405.405,0,0,1,.126-.465l4.825-3.837-1.327-2.292-5.739,2.258a.4.4,0,0,1-.464-.122,16.82,16.82,0,0,0-2.509-2.509.405.405,0,0,1-.123-.465l2.259-5.739-2.292-1.324L262.3,538.8a.407.407,0,0,1-.464.126,16.53,16.53,0,0,0-3.425-.915.405.405,0,0,1-.339-.341l-.915-6.1H254.51l-.916,6.1a.407.407,0,0,1-.34.341,16.516,16.516,0,0,0-3.427.915.405.405,0,0,1-.464-.126l-3.838-4.823-2.292,1.324,2.259,5.739a.406.406,0,0,1-.124.465,16.588,16.588,0,0,0-2.5,2.508.4.4,0,0,1-.465.123l-5.742-2.258-1.324,2.292L240.154,548a.407.407,0,0,1,.126.465,16.533,16.533,0,0,0-.916,3.429.406.406,0,0,1-.341.339l-6.1.911v2.2l6.1.916a.406.406,0,0,1,.341.339,16.383,16.383,0,0,0,.915,3.422.407.407,0,0,1-.125.465l-4.824,3.843,1.325,2.292,5.742-2.258a.4.4,0,0,1,.465.123A16.92,16.92,0,0,0,245.369,567a.408.408,0,0,1,.123.465l-2.259,5.737,2.292,1.324,3.838-4.822a.409.409,0,0,1,.464-.126,16.406,16.406,0,0,0,3.427.915.407.407,0,0,1,.34.341Z" transform="translate(-232.112 -530.752)" fill="#97181a" stroke="#97181a" stroke-width="0.5"/>
    </g>
    <g id="Grupo_81087" data-name="Grupo 81087" transform="translate(11.717 11.489)">
      <path id="Trazado_139788" data-name="Trazado 139788" d="M262.858,573.141a12.005,12.005,0,1,1,12.005-12A12.017,12.017,0,0,1,262.858,573.141Zm0-23.2a11.192,11.192,0,1,0,11.192,11.192A11.2,11.2,0,0,0,262.858,549.944Z" transform="translate(-250.856 -549.131)" fill="#97181a" stroke="#97181a" stroke-width="0.5"/>
    </g>
    <g id="Grupo_81088" data-name="Grupo 81088" transform="translate(17.377 11.489)">
      <path id="Trazado_139789" data-name="Trazado 139789" d="M266.252,573.141c-3.557,0-6.343-5.274-6.343-12s2.786-12.006,6.343-12.006,6.346,5.274,6.346,12.006S269.81,573.141,266.252,573.141Zm0-23.2c-3.049,0-5.53,5.02-5.53,11.192s2.48,11.191,5.53,11.191c3,0,5.533-5.125,5.533-11.191S269.251,549.944,266.252,549.944Z" transform="translate(-259.909 -549.131)" fill="#97181a" stroke="#97181a" stroke-width="0.5"/>
    </g>
    <g id="Grupo_81089" data-name="Grupo 81089" transform="translate(11.717 23.088)">
      <path id="Trazado_139790" data-name="Trazado 139790" d="M274.457,568.5H251.262a.407.407,0,0,1,0-.813h23.194a.407.407,0,1,1,0,.813Z" transform="translate(-250.856 -567.685)" fill="#97181a" stroke="#97181a" stroke-width="0.5"/>
    </g>
    <g id="Grupo_81090" data-name="Grupo 81090" transform="translate(23.313 11.489)">
      <path id="Trazado_139791" data-name="Trazado 139791" d="M269.812,573.141a.406.406,0,0,1-.407-.406v-23.2a.407.407,0,0,1,.813,0v23.2A.406.406,0,0,1,269.812,573.141Z" transform="translate(-269.405 -549.131)" fill="#97181a" stroke="#97181a" stroke-width="0.5"/>
    </g>
    <g id="Grupo_81091" data-name="Grupo 81091" transform="translate(13.912 16.292)">
      <path id="Trazado_139792" data-name="Trazado 139792" d="M264.207,559.207a29.97,29.97,0,0,1-9.563-1.6.406.406,0,0,1,.259-.77,28.385,28.385,0,0,0,18.541,0,.406.406,0,1,1,.261.769A29.381,29.381,0,0,1,264.207,559.207Z" transform="translate(-254.367 -556.814)" fill="#97181a" stroke="#97181a" stroke-width="0.5"/>
    </g>
    <g id="Grupo_81092" data-name="Grupo 81092" transform="translate(13.912 28.064)">
      <path id="Trazado_139793" data-name="Trazado 139793" d="M254.773,578.039a.407.407,0,0,1-.129-.792,29.142,29.142,0,0,1,19.061,0,.406.406,0,0,1-.261.77,28.342,28.342,0,0,0-18.541,0A.392.392,0,0,1,254.773,578.039Z" transform="translate(-254.367 -575.645)" fill="#97181a" stroke="#97181a" stroke-width="0.5"/>
    </g>
    <g id="Grupo_81093" data-name="Grupo 81093" transform="translate(0.81 46.175)">
      <path id="Trazado_139794" data-name="Trazado 139794" d="M278.82,605.43H233.813a.407.407,0,0,1,0-.813H278.82a.407.407,0,0,1,0,.813Z" transform="translate(-233.407 -604.617)" fill="#97181a" stroke="#97181a" stroke-width="0.5"/>
    </g>
    <g id="Grupo_81094" data-name="Grupo 81094" transform="translate(6.441 48.641)">
      <path id="Trazado_139795" data-name="Trazado 139795" d="M276.566,609.374H242.822a.407.407,0,0,1,0-.813h33.743a.407.407,0,0,1,0,.813Z" transform="translate(-242.416 -608.561)" fill="#97181a" stroke="#97181a" stroke-width="0.5"/>
    </g>
  </g>
</svg>
