<svg id="Grupo_55932" data-name="Grupo 55932" xmlns="http://www.w3.org/2000/svg" width="121" height="121" viewBox="0 0 121 121">
  <circle id="Elipse_796" data-name="Elipse 796" cx="60.5" cy="60.5" r="60.5" fill="#b52426"/>
  <path id="Trazado_14875" data-name="Trazado 14875" d="M53.993,0A53.993,53.993,0,1,1,0,53.993,53.993,53.993,0,0,1,53.993,0Z" transform="translate(7 7)" fill="#fff"/>
  <g id="meeting" transform="translate(26.999 26.999)">
    <path id="Trazado_14861" data-name="Trazado 14861" d="M165.272,182.8l2.049,2.049a1.814,1.814,0,0,0,2.566,0l1.282-1.282c.206.094.417.181.629.261v1.813a1.817,1.817,0,0,0,1.815,1.815h2.9a1.817,1.817,0,0,0,1.815-1.815v-1.813c.213-.079.424-.167.629-.261l1.282,1.282a1.817,1.817,0,0,0,2.566,0l2.049-2.049a1.817,1.817,0,0,0,0-2.566l-1.282-1.282c.094-.206.181-.417.261-.629h1.813a1.817,1.817,0,0,0,1.815-1.815v-2.9a1.817,1.817,0,0,0-1.815-1.815H183.83c-.079-.213-.167-.424-.261-.629l1.282-1.282a1.817,1.817,0,0,0,0-2.566l-2.049-2.049a1.817,1.817,0,0,0-2.566,0l-1.282,1.282c-.206-.094-.417-.181-.629-.261v-1.813a1.817,1.817,0,0,0-1.815-1.815h-2.9a1.817,1.817,0,0,0-1.815,1.815V166.3c-.213.079-.424.167-.629.261l-1.282-1.282a1.813,1.813,0,0,0-2.566,0l-2.049,2.049a1.817,1.817,0,0,0,0,2.566l1.282,1.282c-.094.206-.181.417-.261.629h-1.813a1.817,1.817,0,0,0-1.815,1.815v2.9a1.817,1.817,0,0,0,1.815,1.815h1.813c.079.213.167.424.261.629l-1.282,1.282A1.817,1.817,0,0,0,165.272,182.8Zm1.147-6.47h-1.761v-2.542h1.761a1.814,1.814,0,0,0,1.707-1.2,7.324,7.324,0,0,1,.283-.684,1.815,1.815,0,0,0-.357-2.057l-1.245-1.245,1.8-1.8,1.245,1.245a1.815,1.815,0,0,0,2.057.357,7.368,7.368,0,0,1,.683-.283,1.814,1.814,0,0,0,1.2-1.707V164.66h2.542v1.761a1.814,1.814,0,0,0,1.2,1.707,7.323,7.323,0,0,1,.684.283,1.815,1.815,0,0,0,2.057-.357l1.245-1.245,1.8,1.8-1.245,1.245a1.815,1.815,0,0,0-.357,2.057,7.354,7.354,0,0,1,.283.684,1.814,1.814,0,0,0,1.707,1.2h1.761v2.542h-1.761a1.814,1.814,0,0,0-1.707,1.2,7.353,7.353,0,0,1-.283.684,1.815,1.815,0,0,0,.357,2.057l1.245,1.245-1.8,1.8-1.245-1.245a1.815,1.815,0,0,0-2.057-.357,7.293,7.293,0,0,1-.683.283,1.814,1.814,0,0,0-1.2,1.707v1.761h-2.542v-1.761a1.814,1.814,0,0,0-1.2-1.707,7.354,7.354,0,0,1-.684-.283,1.815,1.815,0,0,0-2.057.357l-1.245,1.245-1.8-1.8,1.245-1.245a1.815,1.815,0,0,0,.357-2.057,7.321,7.321,0,0,1-.283-.683,1.814,1.814,0,0,0-1.707-1.2Z" transform="translate(-141.062 -141.063)" fill="#656565"/>
    <path id="Trazado_14862" data-name="Trazado 14862" d="M221.287,226.6a5.317,5.317,0,1,0-5.317-5.317A5.323,5.323,0,0,0,221.287,226.6Zm0-8.641a3.324,3.324,0,1,1-3.324,3.324A3.328,3.328,0,0,1,221.287,217.962Z" transform="translate(-187.286 -187.286)" fill="#656565"/>
    <path id="Trazado_14863" data-name="Trazado 14863" d="M12.514,25.027A12.514,12.514,0,1,0,0,12.514,12.522,12.522,0,0,0,12.514,25.027Zm6.668-4.381a10.5,10.5,0,0,1-13.335,0A3.437,3.437,0,0,1,9.28,17.151h6.466a3.436,3.436,0,0,1,3.434,3.495ZM12.514,1.992a10.514,10.514,0,0,1,8.38,16.875,5.435,5.435,0,0,0-5.146-3.708H9.28a5.435,5.435,0,0,0-5.146,3.708A10.514,10.514,0,0,1,12.514,1.992Z" transform="translate(0 0)" fill="#656565"/>
    <path id="Trazado_14864" data-name="Trazado 14864" d="M336.076,323.562a12.514,12.514,0,1,0,12.513,12.514A12.528,12.528,0,0,0,336.076,323.562Zm6.668,20.646a10.5,10.5,0,0,1-13.335,0,3.436,3.436,0,0,1,3.434-3.495h6.467A3.436,3.436,0,0,1,342.743,344.208Zm1.712-1.779a5.435,5.435,0,0,0-5.146-3.708h-6.466a5.435,5.435,0,0,0-5.146,3.708,10.521,10.521,0,1,1,16.759,0Z" transform="translate(-280.588 -280.588)" fill="#656565"/>
    <path id="Trazado_14865" data-name="Trazado 14865" d="M65.857,36.691a4.867,4.867,0,0,0,0-6.887h0a4.87,4.87,0,1,0,0,6.887Zm-5.478-5.478a2.881,2.881,0,0,1,4.07,0h0a2.878,2.878,0,1,1-4.07,0Z" transform="translate(-49.9 -24.608)" fill="#656565"/>
    <path id="Trazado_14866" data-name="Trazado 14866" d="M58.992,360.276a4.87,4.87,0,0,0,6.887-6.887h0a4.87,4.87,0,1,0-6.887,6.887ZM60.4,354.8a2.878,2.878,0,1,1,0,4.07A2.881,2.881,0,0,1,60.4,354.8Z" transform="translate(-49.922 -305.219)" fill="#656565"/>
    <path id="Trazado_14867" data-name="Trazado 14867" d="M382.556,29.825a4.87,4.87,0,1,0,6.887,0h0A4.875,4.875,0,0,0,382.556,29.825Zm5.478,5.478a2.878,2.878,0,1,1,0-4.07h0A2.876,2.876,0,0,1,388.034,35.3Z" transform="translate(-330.512 -24.629)" fill="#656565"/>
    <path id="Trazado_14868" data-name="Trazado 14868" d="M389.443,353.388a4.87,4.87,0,1,0,0,6.887A4.876,4.876,0,0,0,389.443,353.388Zm-1.409,5.478a2.878,2.878,0,1,1,0-4.07A2.881,2.881,0,0,1,388.034,358.867Z" transform="translate(-330.512 -305.218)" fill="#656565"/>
    <path id="Trazado_14869" data-name="Trazado 14869" d="M214.839,88.71a1,1,0,1,0,0-1.992H202.3a1,1,0,1,0,0,1.992Z" transform="translate(-174.571 -75.201)" fill="#656565"/>
    <path id="Trazado_14870" data-name="Trazado 14870" d="M202.305,410.281a1,1,0,0,0,0,1.992H214.84a1,1,0,1,0,0-1.992Z" transform="translate(-174.572 -355.79)" fill="#656565"/>
    <path id="Trazado_14871" data-name="Trazado 14871" d="M88.71,214.839V202.3a1,1,0,1,0-1.992,0v12.535a1,1,0,1,0,1.992,0Z" transform="translate(-75.201 -174.571)" fill="#656565"/>
    <path id="Trazado_14872" data-name="Trazado 14872" d="M412.272,214.839V202.3a1,1,0,1,0-1.992,0v12.535a1,1,0,1,0,1.992,0Z" transform="translate(-355.789 -174.571)" fill="#656565"/>
    <path id="Trazado_14873" data-name="Trazado 14873" d="M346.4,10.483a1,1,0,1,0,1.955-.382,12.513,12.513,0,1,0-.046,5.048,1,1,0,0,0-1.948-.418,10.4,10.4,0,0,1-1.908,4.131,5.435,5.435,0,0,0-5.145-3.7h-6.467a5.435,5.435,0,0,0-5.146,3.708,10.519,10.519,0,1,1,18.7-8.384Zm-13.558,6.668h6.466a3.438,3.438,0,0,1,3.434,3.434v.049a10.479,10.479,0,0,1-13.335.012A3.437,3.437,0,0,1,332.842,17.151Z" transform="translate(-280.588 0)" fill="#656565"/>
    <path id="Trazado_14874" data-name="Trazado 14874" d="M12.514,350.121a12.515,12.515,0,0,0,2.524-24.772,1,1,0,0,0-.4,1.952,10.515,10.515,0,0,1,6.255,16.66,5.435,5.435,0,0,0-5.146-3.708H9.28a5.435,5.435,0,0,0-5.146,3.708,10.515,10.515,0,0,1,6.255-16.66,1,1,0,0,0-.4-1.952,12.515,12.515,0,0,0,2.524,24.772ZM9.28,342.245h6.466a3.436,3.436,0,0,1,3.434,3.495,10.5,10.5,0,0,1-13.335,0,3.436,3.436,0,0,1,3.434-3.495Z" transform="translate(0 -282.12)" fill="#656565"/>
  </g>
</svg>
