<svg id="Grupo_80107" data-name="Grupo 80107" xmlns="http://www.w3.org/2000/svg" xmlns:xlink="http://www.w3.org/1999/xlink" width="444" height="444" viewBox="0 0 444 444">
  <defs>
    <clipPath id="clip-path">
      <rect id="Rectángulo_6028" data-name="Rectángulo 6028" width="444" height="444" fill="none"/>
    </clipPath>
  </defs>
  <g id="Grupo_80034" data-name="Grupo 80034" transform="translate(21.551 276.76)">
    <path id="Trazado_137975" data-name="Trazado 137975" d="M144.659,412.68,142.323,408V332.307a4.122,4.122,0,0,0-2.913-3.943,3.92,3.92,0,0,0-1.217-.186H102.479l-1.172-2.353-3.428-6.873a4.119,4.119,0,0,0-5.532-1.847l-17.476,8.72-9.111,4.547-.044.018v0L33.552,346.444a4.122,4.122,0,0,0-1.847,5.532l10.683,21.4a2.721,2.721,0,0,0-.577,2.827L65.73,439.886a2.729,2.729,0,0,0,3.516,1.6l1.661-.623a4.1,4.1,0,0,0,1.584.327h3.738l2.256,4.52a4.119,4.119,0,0,0,5.532,1.847l12.761-6.367h41.416a4.127,4.127,0,0,0,4.129-4.129V418.461l.488-.249A4.124,4.124,0,0,0,144.659,412.68Z" transform="translate(-25.053 -312.227)" opacity="0.12"/>
    <g id="Grupo_80033" data-name="Grupo 80033">
      <path id="Trazado_137976" data-name="Trazado 137976" d="M135.812,413.212l-.488.249-2.6,1.3L94.493,433.832l-4.715,2.353-12.761,6.367a4.119,4.119,0,0,1-5.532-1.847l-2.256-4.52-1.172-2.353-6.687-13.391-2.611-5.23L24.7,346.977a4.122,4.122,0,0,1,1.847-5.532L58.76,325.371l9.111-4.547,17.476-8.72a4.119,4.119,0,0,1,5.532,1.847l3.428,6.873,1.172,2.353,3.445,6.891,3.543,7.1,1.749,3.5,28.5,57.116,2.6,5.213,2.335,4.68A4.124,4.124,0,0,1,135.812,413.212Z" transform="translate(-24.269 -311.667)" fill="#fff"/>
      <g id="Grupo_80018" data-name="Grupo 80018" transform="translate(37.102 11.511)">
        <path id="Trazado_137977" data-name="Trazado 137977" d="M140,328.759V433.508a4.127,4.127,0,0,1-4.129,4.129H70.17a4.1,4.1,0,0,1-3.792-2.531,3.989,3.989,0,0,1-.329-1.6V328.759a4.125,4.125,0,0,1,4.12-4.129h65.7a3.92,3.92,0,0,1,1.217.186A4.122,4.122,0,0,1,140,328.759Z" transform="translate(-66.05 -324.63)" fill="#fff"/>
        <path id="Trazado_137978" data-name="Trazado 137978" d="M127.53,344.045l-49.686-.108a1.258,1.258,0,0,1-1.255-1.261h0a1.258,1.258,0,0,1,1.261-1.255l49.685.107a1.259,1.259,0,0,1,1.256,1.261h0A1.258,1.258,0,0,1,127.53,344.045Z" transform="translate(-67.23 -326.511)" fill="#453945"/>
        <path id="Trazado_137979" data-name="Trazado 137979" d="M101.432,349.114l-23.588-.052a1.258,1.258,0,0,1-1.255-1.261h0a1.258,1.258,0,0,1,1.261-1.255l23.587.051a1.258,1.258,0,0,1,1.256,1.261h0A1.258,1.258,0,0,1,101.432,349.114Z" transform="translate(-67.23 -327.085)" fill="#453945"/>
        <path id="Trazado_137980" data-name="Trazado 137980" d="M93.205,337.47l-15.362-.034a1.257,1.257,0,0,1-1.255-1.26h0a1.258,1.258,0,0,1,1.261-1.256l15.361.034a1.257,1.257,0,0,1,1.255,1.26h0A1.257,1.257,0,0,1,93.205,337.47Z" transform="translate(-67.23 -325.783)" fill="#453945"/>
        <rect id="Rectángulo_5932" data-name="Rectángulo 5932" width="37.839" height="7.092" transform="translate(7.419 6.826) rotate(0.125)" fill="#34dce0" opacity="0.35"/>
      </g>
      <g id="Grupo_80032" data-name="Grupo 80032" transform="translate(9.581 8.057)">
        <path id="Trazado_137981" data-name="Trazado 137981" d="M134.487,405.015l-23.92-63.679a2.73,2.73,0,0,0-3.516-1.6L62.9,356.324v-28a4.125,4.125,0,0,1,4.12-4.129H97.013l-1.172-2.353-.551-1.1H71.616l-2.211,1.1-9.111,4.547-.044.018v30.916l-20.512,7.705a2.729,2.729,0,0,0-1.6,3.516L62.061,432.22a2.73,2.73,0,0,0,3.516,1.6l67.315-25.285A2.731,2.731,0,0,0,134.487,405.015Z" transform="translate(-35.384 -320.74)" opacity="0.08"/>
        <g id="Grupo_80031" data-name="Grupo 80031" transform="translate(0 21.723)">
          <rect id="Rectángulo_5933" data-name="Rectángulo 5933" width="77.367" height="73.482" rx="3.074" transform="translate(0 27.206) rotate(-20.588)" fill="#fff"/>
          <g id="Grupo_80019" data-name="Grupo 80019" transform="translate(5.621 29.754)">
            <rect id="Rectángulo_5934" data-name="Rectángulo 5934" width="16.428" height="16.428" transform="translate(0 5.777) rotate(-20.588)" fill="#fe5693"/>
            <path id="Trazado_137982" data-name="Trazado 137982" d="M56.768,378.71l.456,1.214L43.05,385.248l5.321,14.165-1.205.453-5.777-15.379Z" transform="translate(-41.389 -378.71)" fill="#fe77a8"/>
            <path id="Trazado_137983" data-name="Trazado 137983" d="M57.654,379.45l5.53,14.722-15.379,5.776-.7-1.87C52.451,397.417,60.522,394.081,57.654,379.45Z" transform="translate(-42.029 -378.793)" fill="#f74887"/>
          </g>
          <g id="Grupo_80020" data-name="Grupo 80020" transform="translate(23.179 23.159)">
            <rect id="Rectángulo_5935" data-name="Rectángulo 5935" width="16.428" height="16.428" transform="matrix(0.936, -0.352, 0.352, 0.936, 0, 5.777)" fill="#ff78aa"/>
            <path id="Trazado_137984" data-name="Trazado 137984" d="M76.54,371.283,77,372.5l-14.173,5.324,5.321,14.165-1.205.453L61.161,377.06Z" transform="translate(-61.161 -371.283)" fill="#ff8fb8"/>
            <path id="Trazado_137985" data-name="Trazado 137985" d="M77.426,372.023l5.53,14.722-15.379,5.776-.7-1.87C72.223,389.99,80.294,386.654,77.426,372.023Z" transform="translate(-61.801 -371.366)" fill="#ff639c"/>
          </g>
          <g id="Grupo_80021" data-name="Grupo 80021" transform="translate(40.736 16.564)">
            <rect id="Rectángulo_5936" data-name="Rectángulo 5936" width="16.428" height="16.428" transform="matrix(0.936, -0.352, 0.352, 0.936, 0, 5.777)" fill="#ffa6c7"/>
            <path id="Trazado_137986" data-name="Trazado 137986" d="M96.311,363.857l.456,1.214-14.173,5.324,5.321,14.165-1.205.453-5.777-15.379Z" transform="translate(-80.933 -363.856)" fill="#ffb5d0"/>
            <path id="Trazado_137987" data-name="Trazado 137987" d="M97.2,364.6l5.53,14.722-15.378,5.776-.7-1.87C91.995,382.563,100.066,379.227,97.2,364.6Z" transform="translate(-81.573 -363.939)" fill="#ff9cc0"/>
          </g>
          <g id="Grupo_80022" data-name="Grupo 80022" transform="translate(58.294 9.969)">
            <rect id="Rectángulo_5937" data-name="Rectángulo 5937" width="16.428" height="16.428" transform="translate(0 5.777) rotate(-20.588)" fill="#ffc4da"/>
            <path id="Trazado_137988" data-name="Trazado 137988" d="M116.083,356.43l.456,1.214-14.173,5.324,5.321,14.165-1.205.453L100.7,362.206Z" transform="translate(-100.704 -356.43)" fill="#ffd1e2"/>
            <path id="Trazado_137989" data-name="Trazado 137989" d="M116.97,357.169l5.53,14.722-15.378,5.776-.7-1.87C111.767,375.136,119.838,371.8,116.97,357.169Z" transform="translate(-101.345 -356.512)" fill="#ffa8c9"/>
          </g>
          <g id="Grupo_80023" data-name="Grupo 80023" transform="translate(12.217 47.313)">
            <rect id="Rectángulo_5938" data-name="Rectángulo 5938" width="16.428" height="16.428" transform="translate(0 5.777) rotate(-20.588)" fill="#eb3677"/>
            <path id="Trazado_137990" data-name="Trazado 137990" d="M64.2,398.484l.456,1.214-14.173,5.324L55.8,419.186l-1.205.453L48.816,404.26Z" transform="translate(-48.816 -398.484)" fill="#eb558b"/>
            <path id="Trazado_137991" data-name="Trazado 137991" d="M65.082,399.223l5.53,14.722-15.378,5.776-.7-1.87C59.878,417.19,67.95,413.855,65.082,399.223Z" transform="translate(-49.456 -398.566)" fill="#e0286b"/>
          </g>
          <g id="Grupo_80024" data-name="Grupo 80024" transform="translate(29.774 40.718)">
            <rect id="Rectángulo_5939" data-name="Rectángulo 5939" width="16.428" height="16.428" transform="translate(0 5.777) rotate(-20.588)" fill="#eb5088"/>
            <path id="Trazado_137992" data-name="Trazado 137992" d="M83.967,391.057l.456,1.214-14.173,5.324,5.321,14.165-1.205.453-5.777-15.379Z" transform="translate(-68.588 -391.057)" fill="#eb6a98"/>
            <path id="Trazado_137993" data-name="Trazado 137993" d="M84.854,391.8l5.53,14.722-15.378,5.776-.7-1.87C79.65,409.763,87.722,406.427,84.854,391.8Z" transform="translate(-69.228 -391.139)" fill="#e0487f"/>
          </g>
          <g id="Grupo_80025" data-name="Grupo 80025" transform="translate(47.332 34.123)">
            <rect id="Rectángulo_5940" data-name="Rectángulo 5940" width="16.428" height="16.428" transform="translate(0 5.777) rotate(-20.588)" fill="#ff7baa"/>
            <path id="Trazado_137994" data-name="Trazado 137994" d="M103.739,383.63l.456,1.214-14.173,5.324,5.321,14.165-1.205.453L88.36,389.406Z" transform="translate(-88.36 -383.63)" fill="#ff8fb7"/>
            <path id="Trazado_137995" data-name="Trazado 137995" d="M104.625,384.369l5.53,14.722-15.379,5.776-.7-1.87C99.422,402.336,107.493,399,104.625,384.369Z" transform="translate(-89 -383.712)" fill="#f06093"/>
          </g>
          <g id="Grupo_80026" data-name="Grupo 80026" transform="translate(64.889 27.527)">
            <rect id="Rectángulo_5941" data-name="Rectángulo 5941" width="16.428" height="16.428" transform="translate(0 5.777) rotate(-20.588)" fill="#ffbdd5"/>
            <path id="Trazado_137996" data-name="Trazado 137996" d="M123.511,376.2l.456,1.214-14.173,5.324,5.321,14.165-1.205.453-5.777-15.379Z" transform="translate(-108.132 -376.203)" fill="#ffc9dd"/>
            <path id="Trazado_137997" data-name="Trazado 137997" d="M124.4,376.942l5.53,14.722-15.379,5.777-.7-1.871C119.194,394.909,127.265,391.574,124.4,376.942Z" transform="translate(-108.772 -376.285)" fill="#ffabc9"/>
          </g>
          <g id="Grupo_80027" data-name="Grupo 80027" transform="translate(18.813 64.871)">
            <rect id="Rectángulo_5942" data-name="Rectángulo 5942" width="16.428" height="16.428" transform="translate(0 5.777) rotate(-20.588)" fill="#d41e5f"/>
            <path id="Trazado_137998" data-name="Trazado 137998" d="M71.623,418.257l.456,1.214-14.173,5.324,5.321,14.165-1.205.453-5.777-15.379Z" transform="translate(-56.244 -418.257)" fill="#e33975"/>
            <path id="Trazado_137999" data-name="Trazado 137999" d="M72.509,419l5.53,14.722L62.66,439.5l-.7-1.871C67.306,436.963,75.377,433.628,72.509,419Z" transform="translate(-56.884 -418.339)" fill="#c41654"/>
          </g>
          <g id="Grupo_80028" data-name="Grupo 80028" transform="translate(36.37 58.276)">
            <rect id="Rectángulo_5943" data-name="Rectángulo 5943" width="16.428" height="16.428" transform="translate(0 5.777) rotate(-20.588)" fill="#e63775"/>
            <path id="Trazado_138000" data-name="Trazado 138000" d="M91.394,410.83l.456,1.214-14.173,5.324L83,431.533l-1.205.453-5.777-15.379Z" transform="translate(-76.016 -410.83)" fill="#f5518b"/>
            <path id="Trazado_138001" data-name="Trazado 138001" d="M92.281,411.569l5.53,14.722-15.379,5.777-.7-1.871C87.078,429.536,95.149,426.2,92.281,411.569Z" transform="translate(-76.656 -410.913)" fill="#de2c6c"/>
          </g>
          <g id="Grupo_80029" data-name="Grupo 80029" transform="translate(53.927 51.681)">
            <rect id="Rectángulo_5944" data-name="Rectángulo 5944" width="16.428" height="16.428" transform="translate(0 5.777) rotate(-20.588)" fill="#f5538c"/>
            <path id="Trazado_138002" data-name="Trazado 138002" d="M111.166,403.4l.456,1.214L97.449,409.94l5.321,14.165-1.205.453L95.788,409.18Z" transform="translate(-95.788 -403.403)" fill="#ff72a4"/>
            <path id="Trazado_138003" data-name="Trazado 138003" d="M112.053,404.142l5.53,14.722L102.2,424.641l-.7-1.871C106.85,422.109,114.921,418.774,112.053,404.142Z" transform="translate(-96.428 -403.486)" fill="#f73c7d"/>
          </g>
          <g id="Grupo_80030" data-name="Grupo 80030" transform="translate(71.485 45.086)">
            <rect id="Rectángulo_5945" data-name="Rectángulo 5945" width="16.428" height="16.428" transform="translate(0 5.777) rotate(-20.588)" fill="#ff91b8"/>
            <path id="Trazado_138004" data-name="Trazado 138004" d="M130.938,395.976l.456,1.214-14.173,5.324,5.321,14.165-1.205.453-5.777-15.379Z" transform="translate(-115.559 -395.976)" fill="#ff9ec0"/>
            <path id="Trazado_138005" data-name="Trazado 138005" d="M131.825,396.715l5.53,14.722-15.378,5.777-.7-1.871C126.621,414.682,134.693,411.347,131.825,396.715Z" transform="translate(-116.199 -396.059)" fill="#ff7dab"/>
          </g>
        </g>
      </g>
    </g>
  </g>
  <g id="Grupo_80036" data-name="Grupo 80036" transform="translate(336.071 336.051)">
    <path id="Trazado_138006" data-name="Trazado 138006" d="M442.192,422.866l-5.316-12.547-.025-.059-10.645-25.124,0,0-.453-1.066a.649.649,0,0,0-.362-.353.658.658,0,0,0-.506,0l-38.8,16.438a.644.644,0,0,0-.217.148.723.723,0,0,0-.134.717l16.438,38.8a.66.66,0,0,0,.865.351l38.8-16.438A.66.66,0,0,0,442.192,422.866Z" transform="translate(-379.269 -379.022)" opacity="0.12"/>
    <g id="Grupo_80035" data-name="Grupo 80035" transform="translate(0 0)">
      <rect id="Rectángulo_5946" data-name="Rectángulo 5946" width="43.455" height="43.455" rx="0.743" transform="translate(0 16.953) rotate(-22.962)" fill="#ffd112"/>
      <path id="Trazado_138007" data-name="Trazado 138007" d="M424.5,428.64s7.992-7.7,2.368-14.355c0,0,4.825-.249,8.111-5.674C434.979,408.61,440.853,421.711,424.5,428.64Z" transform="translate(-383.615 -381.816)" fill="#ffb412"/>
      <path id="Trazado_138008" data-name="Trazado 138008" d="M381.31,396.91l15.984,37.722-1.252.533a.655.655,0,0,1-.861-.346l-16.437-38.8a.652.652,0,0,1,.346-.861l38.8-16.437a.662.662,0,0,1,.87.346l.453,1.066-37.554,15.913A.652.652,0,0,0,381.31,396.91Z" transform="translate(-378.484 -378.462)" fill="#ffdd4f"/>
      <path id="Trazado_138009" data-name="Trazado 138009" d="M419.165,394.219,390.8,406.237a1.258,1.258,0,0,1-1.649-.667h0a1.259,1.259,0,0,1,.667-1.65L418.183,391.9a1.257,1.257,0,0,1,1.649.668h0A1.258,1.258,0,0,1,419.165,394.219Z" transform="translate(-379.645 -379.933)" fill="#453945"/>
      <path id="Trazado_138010" data-name="Trazado 138010" d="M406.829,406.315l-14.143,5.993a1.258,1.258,0,0,1-1.649-.668h0a1.257,1.257,0,0,1,.667-1.649L405.847,404a1.257,1.257,0,0,1,1.649.667h0A1.257,1.257,0,0,1,406.829,406.315Z" transform="translate(-379.856 -381.288)" fill="#453945"/>
    </g>
  </g>
  <g id="Grupo_80040" data-name="Grupo 80040" transform="translate(252.475 160.28)">
    <path id="Trazado_138011" data-name="Trazado 138011" d="M315.964,187.5l-.344-.192h0l-2.18-1.215h0l-.545-.3a2.334,2.334,0,0,0-3.175.9l-.345.621h0l-1.027,1.843h0a.285.285,0,0,0-.392.112l-2.109,3.786a.07.07,0,0,0-.012.033.282.282,0,0,0,.123.36L292.04,218.434l-.513,6.466-.207,2.6a.339.339,0,0,0,.54.3l.647-.473v0l2.543-1.867,4.142-3.043L313.13,197.4a.273.273,0,0,0,.287-.123l2.109-3.786a.278.278,0,0,0,.014-.25c-.01-.026-.039-.042-.057-.064l1.389-2.494A2.336,2.336,0,0,0,315.964,187.5Z" transform="translate(-285.103 -181.055)" opacity="0.12"/>
    <g id="Grupo_80039" data-name="Grupo 80039">
      <g id="Grupo_80037" data-name="Grupo 80037" transform="translate(16.514)">
        <path id="Trazado_138012" data-name="Trazado 138012" d="M311.955,185.677l-1.887,3.388-7.152-3.984,1.886-3.387a2.334,2.334,0,0,1,3.176-.9l3.069,1.709A2.336,2.336,0,0,1,311.955,185.677Z" transform="translate(-302.916 -180.495)" fill="#ff4c38"/>
        <path id="Trazado_138013" data-name="Trazado 138013" d="M312.852,185.906l-.366.656a2.43,2.43,0,0,1-.266-.128,2.511,2.511,0,0,1-.976-3.413,2.253,2.253,0,0,1,.355-.484l.344.192A2.336,2.336,0,0,1,312.852,185.906Z" transform="translate(-303.813 -180.724)" fill="#ff6554"/>
        <path id="Trazado_138014" data-name="Trazado 138014" d="M308.493,181.65a2.506,2.506,0,0,1-3.412.971,2.27,2.27,0,0,1-.431-.306l.345-.621a2.334,2.334,0,0,1,3.176-.9l.545.3A2.257,2.257,0,0,1,308.493,181.65Z" transform="translate(-303.11 -180.495)" fill="#ff6554"/>
      </g>
      <path id="Trazado_138015" data-name="Trazado 138015" d="M307,191.633l-14.809,26.587-7.332,5.387a.339.339,0,0,1-.54-.3l.72-9.07,14.808-26.586Z" transform="translate(-284.319 -181.296)" fill="#991f59"/>
      <path id="Trazado_138016" data-name="Trazado 138016" d="M285.507,223.133l-.647.473a.339.339,0,0,1-.54-.3l.72-9.07,14.808-26.586,1.126.627-14.809,26.586Z" transform="translate(-284.319 -181.296)" fill="#d42c7c"/>
      <g id="Grupo_80038" data-name="Grupo 80038" transform="translate(14.492 3.625)">
        <path id="Trazado_138017" data-name="Trazado 138017" d="M310.354,188.943l-2.109,3.786a.289.289,0,0,1-.393.112l-7.067-3.937a.282.282,0,0,1-.123-.36.069.069,0,0,1,.012-.033l2.109-3.786a.285.285,0,0,1,.392-.112l7.067,3.936a.291.291,0,0,1,.112.393Z" transform="translate(-300.638 -184.577)" fill="#ffd112"/>
        <path id="Trazado_138018" data-name="Trazado 138018" d="M310.354,189.444l-2.109,3.786a.289.289,0,0,1-.393.112l-7.067-3.937a.282.282,0,0,1-.123-.36c3.2,1.736,8.118.587,9.706.148A.278.278,0,0,1,310.354,189.444Z" transform="translate(-300.638 -185.077)" fill="#ffc412"/>
      </g>
      <path id="Trazado_138019" data-name="Trazado 138019" d="M292.192,221.312l-4.142,3.043L284.86,226.7a.339.339,0,0,1-.54-.3l.207-2.6.513-6.467,2.637-2.063-.2,3.421,2.935-1.9-.265,3.384,2.652-2.054Z" transform="translate(-284.319 -184.389)" fill="#ffc7a8"/>
      <path id="Trazado_138020" data-name="Trazado 138020" d="M288.05,225.431l-3.191,2.343a.339.339,0,0,1-.54-.3l.207-2.6Z" transform="translate(-284.319 -185.465)" fill="#991f59"/>
    </g>
  </g>
  <g id="Grupo_80044" data-name="Grupo 80044" transform="translate(219.507 159.747)">
    <path id="Trazado_138021" data-name="Trazado 138021" d="M285.487,241.762l0,0-.1-3.154-.156-5.138-20.045-40.39a.273.273,0,0,0,.054-.3l-1.921-3.885a.277.277,0,0,0-.2-.153c-.027-.007-.056.008-.085.01l-.932-1.885h0l-.333-.673a2.336,2.336,0,0,0-3.132-1.055l-2.589,1.28h0l-.559.277a2.335,2.335,0,0,0-1.058,3.127l.315.638h0l.934,1.89h0a.286.286,0,0,0-.131.387l1.921,3.885a.08.08,0,0,0,.021.028.283.283,0,0,0,.366.1l.01,0L277.9,237.1l5.033,4.092,2.026,1.646a.339.339,0,0,0,.554-.273Z" transform="translate(-247.976 -180.455)" opacity="0.12"/>
    <g id="Grupo_80043" data-name="Grupo 80043">
      <g id="Grupo_80041" data-name="Grupo 80041">
        <path id="Trazado_138022" data-name="Trazado 138022" d="M254.773,181.194l1.719,3.475-7.339,3.63-1.718-3.476a2.335,2.335,0,0,1,1.058-3.127l3.149-1.558A2.336,2.336,0,0,1,254.773,181.194Z" transform="translate(-247.192 -179.895)" fill="#ff4c38"/>
        <path id="Trazado_138023" data-name="Trazado 138023" d="M255.29,181.194l.333.673a2.431,2.431,0,0,1-.256.147A2.51,2.51,0,0,1,252,180.88a2.251,2.251,0,0,1-.2-.567l.353-.174A2.336,2.336,0,0,1,255.29,181.194Z" transform="translate(-247.709 -179.895)" fill="#ff6554"/>
        <path id="Trazado_138024" data-name="Trazado 138024" d="M249.383,182.112a2.505,2.505,0,0,1-1.137,3.359,2.282,2.282,0,0,1-.5.182l-.315-.638a2.335,2.335,0,0,1,1.058-3.127l.559-.277A2.276,2.276,0,0,1,249.383,182.112Z" transform="translate(-247.192 -180.088)" fill="#ff6554"/>
      </g>
      <path id="Trazado_138025" data-name="Trazado 138025" d="M258.267,188.338l20.385,41.075.275,9.095a.339.339,0,0,1-.554.274l-7.06-5.738-20.385-41.075Z" transform="translate(-247.611 -180.841)" fill="#ff4c38"/>
      <path id="Trazado_138026" data-name="Trazado 138026" d="M278.905,238.093l.022.8a.339.339,0,0,1-.554.273l-7.06-5.738-20.385-41.075,1.154-.571,20.385,41.074Z" transform="translate(-247.611 -181.227)" fill="#ff7263"/>
      <g id="Grupo_80042" data-name="Grupo 80042" transform="translate(1.33 3.839)">
        <path id="Trazado_138027" data-name="Trazado 138027" d="M256.49,184.38l1.921,3.885a.29.29,0,0,1-.131.387l-7.251,3.586a.283.283,0,0,1-.366-.1.08.08,0,0,1-.021-.028l-1.921-3.885a.286.286,0,0,1,.131-.387l7.251-3.586a.267.267,0,0,1,.188-.022A.277.277,0,0,1,256.49,184.38Z" transform="translate(-248.69 -184.219)" fill="#ffd112"/>
        <path id="Trazado_138028" data-name="Trazado 138028" d="M256.739,184.381l1.921,3.885a.29.29,0,0,1-.131.387l-7.251,3.586a.283.283,0,0,1-.366-.1c3.245-1.65,5.089-6.353,5.628-7.909A.278.278,0,0,1,256.739,184.381Z" transform="translate(-248.939 -184.22)" fill="#ffc412"/>
      </g>
      <path id="Trazado_138029" data-name="Trazado 138029" d="M281.2,234.3l.156,5.138.119,3.957a.339.339,0,0,1-.554.273l-2.026-1.646-5.033-4.092-.2-3.342,2.7,2.105.1-3.493,2.637,2.138-.187-3.35Z" transform="translate(-250.156 -185.73)" fill="#ffc7a8"/>
      <path id="Trazado_138030" data-name="Trazado 138030" d="M282.015,240.38l.119,3.957a.339.339,0,0,1-.554.273l-2.026-1.646Z" transform="translate(-250.817 -186.67)" fill="#ff4c38"/>
    </g>
  </g>
  <g id="Grupo_80046" data-name="Grupo 80046" transform="translate(182.287 77.854)">
    <path id="Trazado_138031" data-name="Trazado 138031" d="M269.123,113.693a25.536,25.536,0,0,0-31.506-10.687L233.4,95.881a3.037,3.037,0,0,0-4.16-1.067l-1.407.833a3.036,3.036,0,0,0-1.067,4.16l4.215,7.125a25.531,25.531,0,1,0,38.141,6.761Z" transform="translate(-207.108 -88.426)" opacity="0.12"/>
    <g id="Grupo_80045" data-name="Grupo 80045" transform="translate(0 0)">
      <path id="Rectángulo_5947" data-name="Rectángulo 5947" d="M3.42,0h.869A3.42,3.42,0,0,1,7.71,3.42v8.847a3.42,3.42,0,0,1-3.42,3.42H3.421A3.421,3.421,0,0,1,0,12.267V3.42A3.42,3.42,0,0,1,3.42,0Z" transform="matrix(0.861, -0.509, 0.509, 0.861, 11.896, 4.327)" fill="#ff4c38"/>
      <circle id="Elipse_4460" data-name="Elipse 4460" cx="25.53" cy="25.53" r="25.53" transform="matrix(0.975, -0.222, 0.222, 0.975, 3.266, 14.602)" fill="#ff7d6e"/>
      <circle id="Elipse_4461" data-name="Elipse 4461" cx="24.716" cy="24.716" r="24.716" transform="translate(0 25.024) rotate(-30.412)" fill="#ff4c38"/>
      <circle id="Elipse_4462" data-name="Elipse 4462" cx="18.537" cy="18.537" r="18.537" transform="translate(8.849 41.785) rotate(-62.671)" fill="#731e00"/>
      <path id="Trazado_138032" data-name="Trazado 138032" d="M256.175,114.693a17.427,17.427,0,1,1-23.874-6.119A17.362,17.362,0,0,1,256.175,114.693Z" transform="translate(-207.346 -89.742)" fill="#852300"/>
      <path id="Trazado_138033" data-name="Trazado 138033" d="M258.693,124.182a17.427,17.427,0,0,1-33.666,7.587C235.011,134.9,249.151,136.254,258.693,124.182Z" transform="translate(-207.49 -91.762)" fill="#5c1800"/>
    </g>
  </g>
  <g id="Grupo_80054" data-name="Grupo 80054" transform="translate(343.229 79.785)">
    <path id="Trazado_138034" data-name="Trazado 138034" d="M461.325,150.548,460.15,141h0l-3.822-31.074-1.489.183h0l-15.652,1.925L427.078,96.4h0l-1.2-1.547-1.186.919h0l-31.174,24.141,16.514,21.324h0l1.3,1.681,7.245,9.355,1.57-1.216.552,4.492Z" transform="translate(-387.303 -90.408)" opacity="0.12"/>
    <g id="Grupo_80053" data-name="Grupo 80053" transform="translate(0 0)">
      <g id="Grupo_80049" data-name="Grupo 80049">
        <g id="Grupo_80047" data-name="Grupo 80047">
          <rect id="Rectángulo_5948" data-name="Rectángulo 5948" width="40.929" height="40.929" transform="matrix(0.791, -0.612, 0.612, 0.791, 0, 25.06)" fill="#fff"/>
          <rect id="Rectángulo_5949" data-name="Rectángulo 5949" width="40.929" height="31.308" transform="translate(0 25.06) rotate(-37.754)" fill="#34dce0"/>
          <path id="Trazado_138035" data-name="Trazado 138035" d="M418.879,89.848l1.2,1.547-31.468,24.369,17.971,23.207-.892.691-19.169-24.754Z" transform="translate(-386.519 -89.848)" fill="#52ebf0"/>
          <path id="Trazado_138036" data-name="Trazado 138036" d="M420.962,89.848,440.132,114.6l-32.361,25.059-2.655-3.429c9.573-5.887,33.073-23.5,14.66-45.466Z" transform="translate(-388.602 -89.848)" fill="#30d5d9"/>
        </g>
        <g id="Grupo_80048" data-name="Grupo 80048" transform="translate(21.094 40.49)">
          <path id="Trazado_138037" data-name="Trazado 138037" d="M411.35,145.647c.688-.5,1.207-.642,1.624-.067.453.622.091,1.133-.62,1.649l-.029.021.713.981.457-.333.051.069-1.409,1.026-.051-.07.238-.173-1.762-2.423-.238.173-.051-.07Zm.924,1.534.076-.056c.308-.224.234-.495-.075-.919l-.128-.176c-.3-.414-.495-.5-.773-.295l-.1.072Z" transform="translate(-410.274 -136.538)" fill="#695569"/>
          <path id="Trazado_138038" data-name="Trazado 138038" d="M415.066,145.671l-.725.527.293,1,.274-.2.051.069-.56.408-.05-.069.171-.125-.894-3.194.3-.218,2.751,1.844.168-.122.051.069-1.2.87-.051-.069.26-.189Zm-.751.423.663-.482-1.016-.727Z" transform="translate(-410.649 -136.388)" fill="#695569"/>
          <path id="Trazado_138039" data-name="Trazado 138039" d="M417.879,142.262l-.069.051c-.632-.453-.923-.615-1.256-.374l-.044.032,1.751,2.409.312-.226.056.076-1.336.971-.056-.076.311-.226-1.751-2.409-.047.035c-.334.242-.258.607-.033,1.31l-.069.051-.631-.945,2.16-1.571Z" transform="translate(-410.805 -136.109)" fill="#695569"/>
          <path id="Trazado_138040" data-name="Trazado 138040" d="M418.979,140.084a1.4,1.4,0,0,1,2.142.452,1.42,1.42,0,0,1-.266,2.22,1.378,1.378,0,0,1-2.137-.4A1.476,1.476,0,0,1,418.979,140.084Zm1.305.887c-.546-.75-.839-1.108-1.279-.789s-.19.731.355,1.482l.192.263c.5.688.832,1.052,1.26.741.41-.3.2-.691-.331-1.426Z" transform="translate(-411.174 -135.928)" fill="#695569"/>
          <path id="Trazado_138041" data-name="Trazado 138041" d="M424.638,139.851l-.512.373-2.977-1.456,1.671,2.3.2-.146.051.069-.5.364-.051-.069.2-.147-1.762-2.423-.2.147-.051-.07,1.011-.734,2.3,1.141-1.286-1.769-.2.147-.051-.069.5-.365.051.069-.2.147Z" transform="translate(-411.443 -135.635)" fill="#695569"/>
          <path id="Trazado_138042" data-name="Trazado 138042" d="M425.358,135.445l.564.7-.066.048c-.551-.333-.843-.373-1.285-.051l-.129.093.822,1.13.125-.09a.635.635,0,0,0,.1-.81l.055-.04.788,1.083-.062.045c-.354-.3-.6-.344-.853-.157l-.088.064.855,1.175.139-.1a1.142,1.142,0,0,0,.376-1.369l.073-.053.551.82-2.01,1.461-.059-.08.217-.157-1.747-2.4-.216.157-.059-.081Z" transform="translate(-411.75 -135.445)" fill="#695569"/>
        </g>
      </g>
      <g id="Grupo_80052" data-name="Grupo 80052" transform="translate(22.186 15.076)">
        <g id="Grupo_80050" data-name="Grupo 80050" transform="translate(0)">
          <rect id="Rectángulo_5950" data-name="Rectángulo 5950" width="40.929" height="40.929" transform="matrix(0.993, -0.122, 0.122, 0.993, 0, 4.997)" fill="#fff"/>
          <rect id="Rectángulo_5951" data-name="Rectángulo 5951" width="40.929" height="31.308" transform="translate(0 4.997) rotate(-7.012)" fill="#ff4c38"/>
          <path id="Trazado_138043" data-name="Trazado 138043" d="M452.127,106.826l.239,1.942-39.5,4.858,3.583,29.132-1.12.138L411.5,111.823Z" transform="translate(-411.504 -106.826)" fill="#ff7654"/>
          <path id="Trazado_138044" data-name="Trazado 138044" d="M452.542,106.826l3.822,31.075-40.622,5-.53-4.305c11.237-.166,40.439-3.291,35.842-31.582Z" transform="translate(-411.919 -106.826)" fill="#fa3a30"/>
        </g>
        <g id="Grupo_80051" data-name="Grupo 80051" transform="translate(5.185 35.997)">
          <path id="Trazado_138045" data-name="Trazado 138045" d="M418.669,148.965c.847-.079,1.365.065,1.431.773.07.765-.5,1.019-1.376,1.1l-.036,0,.111,1.208.564-.052.007.086-1.735.16-.008-.085.293-.028-.275-2.984-.293.028-.008-.086Zm.011,1.789.094-.009c.379-.035.454-.305.406-.828l-.02-.217c-.047-.51-.171-.679-.514-.648l-.122.012Z" transform="translate(-417.343 -147.54)" fill="#695569"/>
          <path id="Trazado_138046" data-name="Trazado 138046" d="M421.78,150.789l-.892.082-.258,1.006.337-.031.008.085-.689.064-.008-.086.212-.02.863-3.2.369-.034,1.422,2.991.208-.019.007.085-1.473.137-.008-.086.32-.029Zm-.861-.021.815-.075-.5-1.145Z" transform="translate(-417.672 -147.507)" fill="#695569"/>
          <path id="Trazado_138047" data-name="Trazado 138047" d="M425.988,149.417l-.086.008c-.311-.712-.479-1-.889-.963l-.054,0,.273,2.966.384-.036.009.1-1.645.152-.009-.1.384-.036-.274-2.965-.059.005c-.409.037-.532.39-.7,1.11l-.086.007-.059-1.135,2.659-.246Z" transform="translate(-417.997 -147.467)" fill="#695569"/>
          <path id="Trazado_138048" data-name="Trazado 138048" d="M428.024,148.045c.969-.09,1.516.46,1.61,1.484a1.419,1.419,0,0,1-1.364,1.771,1.377,1.377,0,0,1-1.632-1.436A1.475,1.475,0,0,1,428.024,148.045Zm.669,1.43c-.085-.924-.155-1.382-.7-1.332s-.538.532-.453,1.455l.03.325c.078.847.178,1.329.705,1.281.5-.047.527-.49.444-1.4Z" transform="translate(-418.383 -147.438)" fill="#695569"/>
          <path id="Trazado_138049" data-name="Trazado 138049" d="M433.025,150.807l-.631.058-1.815-2.773.261,2.83.248-.023.008.086-.617.057-.008-.085.248-.023-.275-2.984-.248.023-.008-.086,1.244-.115,1.39,2.153-.2-2.176-.249.022-.007-.085.617-.057.008.085-.248.023Z" transform="translate(-418.782 -147.393)" fill="#695569"/>
          <path id="Trazado_138050" data-name="Trazado 138050" d="M435.913,147.363l.127.889-.081.007c-.3-.567-.534-.75-1.079-.7l-.157.015.129,1.392.153-.014c.293-.027.459-.292.5-.642l.067-.006.123,1.335-.077.006c-.149-.44-.337-.6-.653-.571l-.107.01L435,150.53l.171-.015a1.144,1.144,0,0,0,1.023-.986l.09-.009.055.987-2.475.228-.009-.1.266-.024-.273-2.957-.266.025-.01-.1Z" transform="translate(-419.16 -147.363)" fill="#695569"/>
        </g>
      </g>
    </g>
  </g>
  <g id="Grupo_80056" data-name="Grupo 80056" transform="translate(30.176 24.999)">
    <path id="Trazado_138051" data-name="Trazado 138051" d="M174.844,101.358,154.087,84.468l3.568-1.511a.661.661,0,0,0,.35-.866L142.019,44.362l0,0-.453-1.066a.666.666,0,0,0-.868-.35L115.947,53.433,93.593,35.244a4.128,4.128,0,0,0-5.808.6L46.317,86.8a4.128,4.128,0,0,0,.6,5.808l81.249,66.114a4.129,4.129,0,0,0,5.808-.6l41.469-50.962A4.128,4.128,0,0,0,174.844,101.358Z" transform="translate(-35.259 -28.843)" opacity="0.12"/>
    <rect id="Rectángulo_5952" data-name="Rectángulo 5952" width="73.959" height="113.007" rx="4.649" transform="translate(0 57.367) rotate(-50.864)" fill="#fff"/>
    <g id="Grupo_80055" data-name="Grupo 80055" transform="translate(59.823 9.404)">
      <rect id="Rectángulo_5953" data-name="Rectángulo 5953" width="43.455" height="43.455" rx="0.743" transform="translate(0 16.953) rotate(-22.962)" fill="#ffd112"/>
      <path id="Trazado_138052" data-name="Trazado 138052" d="M104.2,57.217l15.984,37.722-1.252.533a.655.655,0,0,1-.861-.346l-16.437-38.8a.652.652,0,0,1,.346-.861l38.8-16.437a.662.662,0,0,1,.87.346l.453,1.066L104.547,56.355A.652.652,0,0,0,104.2,57.217Z" transform="translate(-101.375 -38.769)" fill="#ffdd4f"/>
    </g>
  </g>
  <g id="Grupo_80060" data-name="Grupo 80060" transform="translate(376.541 371.235)">
    <path id="Trazado_138053" data-name="Trazado 138053" d="M473.17,432.187l-11.255-8.512a3.055,3.055,0,0,0-4.284.6l-11.87,15.695a.558.558,0,0,0,.108.784l5.077,3.839-4.968-3.746s-1.5,1.971-3.536,4.974c-.035.051-.07.1-.1.155q-.228.334-.463.686l-.249.374c-.138.206-.274.413-.415.626-.114.172-.228.349-.344.526s-.243.372-.367.564q-.336.52-.677,1.059c-.1.156-.2.317-.3.476-.162.258-.324.518-.487.781q-.163.265-.326.535c-.146.239-.29.478-.436.721q-.173.288-.345.579-.213.36-.424.724c-.114.2-.227.391-.34.588q-.221.388-.44.779c-.1.185-.207.367-.31.552q-.345.626-.682,1.259c-.1.2-.205.394-.308.591-.129.249-.258.5-.384.745-.112.22-.22.44-.329.661s-.223.453-.331.68-.218.457-.325.686-.2.432-.3.649c-.1.233-.21.465-.311.7s-.182.433-.273.649q-.217.522-.417,1.037c-.107.277-.216.555-.315.829-.079.219-.15.435-.224.653s-.141.414-.207.619-.132.435-.2.651q-.087.3-.165.588c-.057.213-.111.424-.161.634-.046.194-.086.385-.125.577s-.085.4-.119.6-.06.408-.088.611c-.037.28-.067.554-.086.823-.018.23-.035.461-.038.683,0,.163.007.318.012.476.005.179.012.359.028.532.014.155.036.306.059.456.025.166.056.328.092.487.032.141.066.282.107.417.049.161.108.313.171.465.048.119.091.242.147.354a4.634,4.634,0,0,0,.341.569c.046.067.087.137.137.2a2.547,2.547,0,0,0,1.379,1.043l-.005-.008c8.85,3.492,27.215-23,27.427-23.31l.169.129a.557.557,0,0,0,.784-.109l11.87-15.695A3.056,3.056,0,0,0,473.17,432.187Z" transform="translate(-424.818 -418.617)" opacity="0.12"/>
    <g id="Grupo_80059" data-name="Grupo 80059">
      <g id="Grupo_80057" data-name="Grupo 80057" transform="translate(0 17.79)">
        <path id="Trazado_138054" data-name="Trazado 138054" d="M425.729,472.3a4.071,4.071,0,0,1-.641-.7c-4.9-6.578,8.717-26.4,12.787-32.013.691-.957,1.1-1.5,1.1-1.5l14.967,11.286S434.272,477.865,425.729,472.3Z" transform="translate(-424.033 -438.091)" fill="#34dce0"/>
        <path id="Trazado_138055" data-name="Trazado 138055" d="M426.514,472.71a4.028,4.028,0,0,1-.786-.4c-7.685-6.68,13.25-34.214,13.25-34.214l1.4,1.061S420.683,465.049,426.514,472.71Z" transform="translate(-424.033 -438.091)" fill="#48eaf0"/>
        <path id="Trazado_138056" data-name="Trazado 138056" d="M425.861,472.3a4.071,4.071,0,0,1-.641-.7c7.815-3.066,18.843-15.6,23.106-20.692a2.671,2.671,0,0,0-.434-3.846l-9.884-7.475c.691-.957,1.1-1.5,1.1-1.5l14.967,11.286S434.4,477.865,425.861,472.3Z" transform="translate(-424.166 -438.091)" fill="#19d0d4"/>
      </g>
      <g id="Grupo_80058" data-name="Grupo 80058" transform="translate(14.614)">
        <path id="Trazado_138057" data-name="Trazado 138057" d="M468.6,431.473l-11.87,15.694a.557.557,0,0,1-.784.109l-15.235-11.522a.558.558,0,0,1-.108-.784l11.87-15.695a3.055,3.055,0,0,1,4.284-.6l11.255,8.512A3.056,3.056,0,0,1,468.6,431.473Z" transform="translate(-440.49 -418.057)" fill="#453945"/>
        <path id="Trazado_138058" data-name="Trazado 138058" d="M453.948,420.39l-11.87,15.7a.558.558,0,0,0,.108.784l-1.473-1.114a.558.558,0,0,1-.108-.784l11.87-15.695a3.055,3.055,0,0,1,4.284-.6l1.48,1.12A3.058,3.058,0,0,0,453.948,420.39Z" transform="translate(-440.49 -418.057)" fill="#594959"/>
        <path id="Trazado_138059" data-name="Trazado 138059" d="M468.6,432.386l-11.87,15.694a.557.557,0,0,1-.784.109l-15.235-11.522a.558.558,0,0,1-.108-.784l1.521-2.011c13.3,15.549,21.237-1.863,23.387-7.663l2.5,1.891A3.056,3.056,0,0,1,468.6,432.386Z" transform="translate(-440.49 -418.97)" fill="#3b313b"/>
      </g>
    </g>
  </g>
  <g id="Grupo_80106" data-name="Grupo 80106">
    <g id="Grupo_80105" data-name="Grupo 80105" clip-path="url(#clip-path)">
      <g id="Grupo_80082" data-name="Grupo 80082" transform="translate(-34.129 107.321)">
        <path id="Trazado_138060" data-name="Trazado 138060" d="M224.495,258.378a6.123,6.123,0,0,0-.373-1.436l-5.313-13.321h0l-2.107-5.284-17.891-44.861h0l-2.793-7L184.349,157.21l-4.826-12.1h0l-4.38-10.983-1.754-4.4h0l0,0a6.153,6.153,0,0,0-7.98-3.432l-43.355,17.295-32.106,12.8L76.366,140.445a5.512,5.512,0,1,0-8.392,7.148l3.977,4.672,0,0,.955,1.122h0l3.042,3.574s.1.115.293.329l2.9,3.409-3.224,1.286a6.2,6.2,0,0,0-.838.418l-.1.062a6.038,6.038,0,0,0-.693.49c-.018.014-.04.026-.058.041l.022-.009a6.149,6.149,0,0,0-2.176,4.3l-.6.123,4.634,11.621q-.617.569-1.256,1.16c-4.915,4.545-10.678,9.984-14.894,13.982a29.613,29.613,0,0,1-3.089,2.557c-.51.367-1.033.715-1.565,1.049-.032.02-.062.043-.1.063-.141.088-.29.164-.433.25a29.842,29.842,0,0,1-4.6,2.245c-.114.044-.224.1-.338.138h0a29.854,29.854,0,0,1-3.849,1.138l-17.634,3.95-.617-.745a3.536,3.536,0,0,0-.917-.786,3.49,3.49,0,0,0-2.456-.41c-10.058,1.992-54.022,10.978-55.662,15.644-1.855,5.273,15.465,72.579,18.33,72.989,1.447.2,16.814-12.524,31.775-26,14.623-13.185,28.847-27.068,29.253-30.243a9.13,9.13,0,0,0-1.193-4.382c1.859-.854,4.461-2.175,7.064-3.54,4.524-2.369,11.207-5.731,11.207-5.731l-.006,0c10.885,1.929,19.818-9.071,22.576-12.923l.508-.035,14.2,35.6h0l5.03,12.611,15.779,39.567a6.139,6.139,0,0,0,7.977,3.429l89.4-35.653.089-.035A6.136,6.136,0,0,0,224.495,258.378Z" transform="translate(37.649 -121.417)" opacity="0.12"/>
        <g id="Grupo_80076" data-name="Grupo 80076" transform="translate(102.909)">
          <path id="Trazado_138061" data-name="Trazado 138061" d="M226.746,259.92l-89.491,35.688a6.139,6.139,0,0,1-7.977-3.429L78.545,164.962a6.139,6.139,0,0,1,3.429-7.977l89.49-35.689a6.14,6.14,0,0,1,7.977,3.429l50.734,127.217A6.141,6.141,0,0,1,226.746,259.92Z" transform="translate(-77.528 -120.857)" fill="#453945"/>
          <path id="Trazado_138062" data-name="Trazado 138062" d="M227.021,259.92l-.532.207a6.127,6.127,0,0,0,1.758-6.97L177.516,125.943a6.147,6.147,0,0,0-7.981-3.437L80.554,158a6.246,6.246,0,0,1,1.7-1.007l89.485-35.7a6.147,6.147,0,0,1,7.981,3.437l50.731,127.214A6.136,6.136,0,0,1,227.021,259.92Z" transform="translate(-77.802 -120.857)" fill="#695569"/>
          <rect id="Rectángulo_5954" data-name="Rectángulo 5954" width="97.603" height="139.793" rx="2.305" transform="translate(5.609 40.748) rotate(-21.742)" fill="#fb0"/>
          <rect id="Rectángulo_5955" data-name="Rectángulo 5955" width="70.84" height="101.461" rx="1.673" transform="translate(25.139 53.594) rotate(-21.742)" fill="#fff"/>
          <rect id="Rectángulo_5956" data-name="Rectángulo 5956" width="97.603" height="5.289" rx="1.606" transform="translate(5.609 40.748) rotate(-21.742)" fill="#fff"/>
          <g id="Grupo_80074" data-name="Grupo 80074" transform="translate(37.517 39.556)">
            <g id="Grupo_80061" data-name="Grupo 80061" transform="translate(20.783 20.819)">
              <path id="Trazado_138063" data-name="Trazado 138063" d="M176.777,200.984l3.909-1.522-.435-1.118-9.723,3.786.435,1.118,4.415-1.719q.7,1.906,1.259,4.011a44.252,44.252,0,0,1,.966,4.514,42.636,42.636,0,0,0-7.135-2.112c-1.253-.281-2.515-.531-3.771-.783q-3.138-.611-5.467-1.15c5.317-4.515,6.966-8.7,5.467-12.555-1.7-4.358-6.24-6.127-14.064-3.081-6.537,2.546-11.632,8.131-8.652,15.787,1.543,3.965,4.441,6.124,8.678,7.753a20.577,20.577,0,0,0-2.509,1.94c-3.71,3.379-4.155,6.874-2.6,10.858,2.98,7.655,11.16,7.685,20.04,4.228,6.094-2.373,8.711-5.9,10.01-9.491a13.378,13.378,0,0,1,6.053,6.775c1.828,4.7,1.6,9.739-2.2,11.217-2.236.87-3.073-.285-3.163-2.177l1.954-.761a8.012,8.012,0,0,0-.446-2.142c-1.023-2.628-3.191-3.395-6.038-2.287a4.8,4.8,0,0,0-2.811,6.5c1.371,3.522,4.995,4.555,9.852,2.664,7.262-2.827,10.976-12.959,7.864-20.951-2.132-5.476-5.442-7.531-9.273-9.448a43.01,43.01,0,0,0-1.293-5.868C177.707,203.634,177.261,202.3,176.777,200.984Zm-23.855-9.373c3.184-1.24,5.685.232,7.425,4.7,1.434,3.684,2.358,6.222-.385,9.411-6.454-1.542-8.614-2.953-9.96-6.412C148.24,194.786,150.574,192.525,152.921,191.611Zm15.667,37.268c-5.7,2.219-9.852.809-12.94-7.122-1.5-3.858-1.982-5.922-1.877-7.315a105.5,105.5,0,0,0,12.949,3.192,41.641,41.641,0,0,1,9.469,3.008A11.949,11.949,0,0,1,168.588,228.879Z" transform="translate(-143.109 -188.847)" fill="#991f59"/>
            </g>
            <g id="Grupo_80064" data-name="Grupo 80064" transform="translate(46.276)">
              <g id="Grupo_80062" data-name="Grupo 80062">
                <path id="Trazado_138064" data-name="Trazado 138064" d="M174.523,171.826a.336.336,0,0,1-.434-.191l-2.248-5.776a.335.335,0,1,1,.624-.243l2.248,5.776A.335.335,0,0,1,174.523,171.826Z" transform="translate(-171.817 -165.402)" fill="#991f59"/>
              </g>
              <g id="Grupo_80063" data-name="Grupo 80063" transform="translate(3.291 5.279)">
                <path id="Trazado_138065" data-name="Trazado 138065" d="M175.545,174.053a.336.336,0,0,1,.191-.434l5.776-2.248a.335.335,0,1,1,.243.624l-5.776,2.248A.335.335,0,0,1,175.545,174.053Z" transform="translate(-175.523 -171.347)" fill="#991f59"/>
              </g>
            </g>
            <g id="Grupo_80067" data-name="Grupo 80067" transform="translate(0 16.806)">
              <g id="Grupo_80065" data-name="Grupo 80065" transform="translate(3.11)">
                <path id="Trazado_138066" data-name="Trazado 138066" d="M125.912,190.751a.334.334,0,0,0,.191-.433l-2.248-5.776a.335.335,0,1,0-.624.243l2.248,5.776A.334.334,0,0,0,125.912,190.751Z" transform="translate(-123.207 -184.328)" fill="#991f59"/>
              </g>
              <g id="Grupo_80066" data-name="Grupo 80066" transform="translate(0 7.771)">
                <path id="Trazado_138067" data-name="Trazado 138067" d="M126.128,193.292a.336.336,0,0,0-.434-.191l-5.776,2.248a.335.335,0,0,0,.243.625l5.776-2.249A.335.335,0,0,0,126.128,193.292Z" transform="translate(-119.705 -193.079)" fill="#991f59"/>
              </g>
            </g>
            <g id="Grupo_80070" data-name="Grupo 80070" transform="translate(23.342 84.532)">
              <g id="Grupo_80068" data-name="Grupo 80068" transform="translate(6.817 1.752)">
                <path id="Trazado_138068" data-name="Trazado 138068" d="M153.881,262.591a.335.335,0,0,1,.434.191l2.248,5.776a.335.335,0,0,1-.624.243l-2.248-5.776A.334.334,0,0,1,153.881,262.591Z" transform="translate(-153.668 -262.568)" fill="#991f59"/>
              </g>
              <g id="Grupo_80069" data-name="Grupo 80069">
                <path id="Trazado_138069" data-name="Trazado 138069" d="M152.414,260.809a.335.335,0,0,1-.191.434l-5.776,2.248a.335.335,0,0,1-.243-.624l5.776-2.249A.335.335,0,0,1,152.414,260.809Z" transform="translate(-145.991 -260.595)" fill="#991f59"/>
              </g>
            </g>
            <g id="Grupo_80073" data-name="Grupo 80073" transform="translate(72.908 65.234)">
              <g id="Grupo_80071" data-name="Grupo 80071" transform="translate(0.417 4.244)">
                <path id="Trazado_138070" data-name="Trazado 138070" d="M202.492,243.666a.335.335,0,0,0-.191.433l2.248,5.776a.335.335,0,0,0,.625-.243l-2.249-5.776A.334.334,0,0,0,202.492,243.666Z" transform="translate(-202.279 -243.643)" fill="#991f59"/>
              </g>
              <g id="Grupo_80072" data-name="Grupo 80072">
                <path id="Trazado_138071" data-name="Trazado 138071" d="M201.831,241.57a.335.335,0,0,0,.434.19l5.776-2.248a.335.335,0,0,0-.242-.624l-5.776,2.248A.336.336,0,0,0,201.831,241.57Z" transform="translate(-201.809 -238.864)" fill="#991f59"/>
              </g>
            </g>
            <path id="Trazado_138072" data-name="Trazado 138072" d="M189.117,222.32c3.112,7.993-.6,18.125-7.864,20.951-4.857,1.891-8.481.858-9.852-2.664a4.8,4.8,0,0,1,2.811-6.5c2.847-1.108,5.015-.342,6.038,2.287a8.011,8.011,0,0,1,.446,2.142l-1.954.761c.09,1.892.927,3.048,3.163,2.177,3.8-1.479,4.026-6.521,2.2-11.217a13.378,13.378,0,0,0-6.053-6.775c-1.3,3.59-3.916,7.118-10.01,9.491-8.879,3.457-17.059,3.428-20.039-4.228-1.551-3.984-1.106-7.479,2.6-10.858l3.622-1.41c-.1,1.393.375,3.457,1.877,7.315,3.088,7.931,7.239,9.341,12.94,7.122a11.949,11.949,0,0,0,7.6-8.237,41.643,41.643,0,0,0-9.469-3.008,105.5,105.5,0,0,1-12.949-3.192l16.7-6.5a42.634,42.634,0,0,1,7.135,2.112,44.252,44.252,0,0,0-.966-4.514l1.461-.569a43.012,43.012,0,0,1,1.293,5.868C183.675,214.789,186.985,216.844,189.117,222.32Z" transform="translate(-122.779 -170.062)" fill="#fe5693"/>
            <rect id="Rectángulo_5957" data-name="Rectángulo 5957" width="4.075" height="4.075" transform="translate(53.611 11.272) rotate(-21.272)" fill="#ffd112"/>
            <rect id="Rectángulo_5958" data-name="Rectángulo 5958" width="4.075" height="4.075" transform="translate(55.089 15.069) rotate(-21.272)" fill="#ff8c00"/>
            <rect id="Rectángulo_5959" data-name="Rectángulo 5959" width="4.075" height="4.075" transform="matrix(0.932, -0.363, 0.363, 0.932, 56.567, 18.866)" fill="#ff2e2e"/>
          </g>
          <g id="Grupo_80075" data-name="Grupo 80075" transform="translate(0 19.253)">
            <path id="Trazado_138073" data-name="Trazado 138073" d="M193.847,163.462,85.8,185.766l-8.344-20.924,108.047-22.3Z" transform="translate(-77.455 -142.538)" fill="#fff" opacity="0.11"/>
            <path id="Trazado_138074" data-name="Trazado 138074" d="M228.691,250.835l-108.047,22.3L112.3,252.215l108.047-22.3Z" transform="translate(-81.358 -152.324)" fill="#fff" opacity="0.11"/>
            <path id="Trazado_138075" data-name="Trazado 138075" d="M206.447,195.056,98.4,217.36l-6.16-15.447,108.047-22.3Z" transform="translate(-79.111 -146.69)" fill="#fff" opacity="0.11"/>
          </g>
        </g>
        <g id="Grupo_80081" data-name="Grupo 80081" transform="translate(0 12.652)">
          <g id="Grupo_80079" data-name="Grupo 80079" transform="translate(53.708)">
            <path id="Trazado_138076" data-name="Trazado 138076" d="M107.722,172.027l8.069.7a16.041,16.041,0,0,1,14.2,12.093c2.167,8.722,4.538,20.4,3.582,26.651a2.442,2.442,0,0,1-3.19,1.91c-3.254-1.043-8.641-3.859-9.52-11.174-1.274-10.6-10.65-19.982-10.65-19.982Z" transform="translate(-31.644 -139.24)" fill="#ff9d66"/>
            <path id="Trazado_138077" data-name="Trazado 138077" d="M45.769,202.156a29.722,29.722,0,0,0,13.965-7.441c8.32-7.89,22.668-21.4,24.622-22.553,1.93-1.146,10.371-1.608,17.844-1.77,1.6-.036,3.15-.057,4.588-.066l0-.011h8.1a16.064,16.064,0,0,1,15.206,10.858c2.9,8.475,6.255,19.835,5.866,26.149a2.458,2.458,0,0,1-3.008,2.231c-3.331-.756-8.949-3.093-10.46-10.309-1.418-6.775-6.186-12.744-9.363-16.1-8.19,3.5-22.731,9.853-22.331,10.656l.028.041L66.716,220.209a11.871,11.871,0,0,1-3.194,3.065s-.046.034-.139.089c-.621.394-5.149,2.9-9.673,5.269-4.23,2.22-8.47,4.326-9.492,4.488-5.69.863-22.167-25.652-22.167-25.652Z" transform="translate(-22.049 -139.049)" fill="#ffb288"/>
            <path id="Trazado_138078" data-name="Trazado 138078" d="M22.049,207.468S31.261,222.3,38.288,229.41c-6.857-7.438-15.181-20.84-15.181-20.84l23.717-5.312a29.734,29.734,0,0,0,13.969-7.44c8.32-7.887,22.664-21.4,24.622-22.552,1.927-1.148,10.371-1.609,17.848-1.771,1.6-.036,3.148-.055,4.586-.069l-.005-.006,2.644,0a1.354,1.354,0,0,1,.157,0l.327.007,4.967-.005a16.089,16.089,0,0,1,11.015,4.345,16.053,16.053,0,0,0-12.072-5.447l-4.967.005-.327-.006a1.176,1.176,0,0,0-.157,0l-2.644,0,.006.006c-1.439.014-2.984.033-4.586.069-7.477.162-15.921.622-17.848,1.771-1.958,1.154-16.3,14.664-24.622,22.552a29.738,29.738,0,0,1-13.969,7.44Z" transform="translate(-22.049 -139.048)" fill="#ffc7a8"/>
            <path id="Trazado_138079" data-name="Trazado 138079" d="M101.482,194.8l-7.495.158s-2.052-4.642,2.986-6.113,24.163-4.085,24.163-4.085Z" transform="translate(-30.06 -140.666)" fill="#ff9d66"/>
            <g id="Grupo_80077" data-name="Grupo 80077" transform="translate(44.381)">
              <path id="Trazado_138080" data-name="Trazado 138080" d="M144.51,220.761,131.5,212.468,81.614,153.886c-.2-.213-.293-.329-.293-.329l-7.975-9.368a5.512,5.512,0,0,1,8.392-7.148l57.081,67.017,1.074,1.261,6.128,14.164A1.035,1.035,0,0,1,144.51,220.761Z" transform="translate(-72.028 -135.105)" fill="#453945"/>
              <rect id="Rectángulo_5960" data-name="Rectángulo 5960" width="11.024" height="1.474" transform="matrix(0.761, -0.648, 0.648, 0.761, 5.294, 13.758)" fill="#362c36"/>
              <path id="Trazado_138081" data-name="Trazado 138081" d="M145.719,223.13l-13.009-8.294L82.823,156.255c3.711,4.076,41.407,45.279,57.2,50.172l1.074,1.261,6.128,14.164A1.035,1.035,0,0,1,145.719,223.13Z" transform="translate(-73.237 -137.474)" fill="#362c36"/>
              <path id="Trazado_138082" data-name="Trazado 138082" d="M89.867,149.518c4.591,4.477,8.763,9.314,12.868,14.206s8.14,9.844,12,14.95a.445.445,0,0,1-.676.576c-4.433-4.613-8.687-9.378-12.868-14.206s-8.3-9.709-12-14.949a.446.446,0,0,1,.676-.576Z" transform="translate(-73.941 -136.705)" fill="#524352"/>
              <path id="Trazado_138083" data-name="Trazado 138083" d="M76.584,141.637a2.7,2.7,0,0,1-.686-4.88,4.118,4.118,0,0,1,4.129-.527,7.984,7.984,0,0,1,3.16,3.485,1.191,1.191,0,0,1-.8,1.7A13.087,13.087,0,0,1,76.584,141.637Z" transform="translate(-72.319 -135.19)" fill="#524352"/>
            </g>
            <g id="Grupo_80078" data-name="Grupo 80078" transform="translate(29.112 54.095)">
              <path id="Trazado_138084" data-name="Trazado 138084" d="M73.3,196.818s34.165-1.522,37.663-.353S118,203,115.605,207.215s-11.379,4.83-15.648,5.1c-1.7.107-4.9.321-8.14.541-2.951,4.12-12.983,16.441-24.908,12.318l-6.2-6.458L77.526,204.96Z" transform="translate(-55.491 -196.023)" fill="#ffb288"/>
              <path id="Trazado_138085" data-name="Trazado 138085" d="M67.591,225.118l.09.094c11.926,4.125,21.955-8.2,24.908-12.32,3.233-.219,6.437-.435,8.139-.543,4.27-.261,13.253-.885,15.652-5.094s-1.149-9.578-4.646-10.755a4.547,4.547,0,0,0-.575-.131c3.212,1.639,6.061,6.523,3.851,10.417-2.4,4.21-11.382,4.833-15.652,5.1-1.7.107-4.906.323-8.139.543C88.372,216.4,78.941,227.989,67.591,225.118Z" transform="translate(-56.261 -196.062)" fill="#ffc7a8"/>
              <path id="Trazado_138086" data-name="Trazado 138086" d="M58.335,218.443s-7.2,10.255-.955,15.58c4.525-2.369,11.208-5.731,11.208-5.731S61.576,224.251,58.335,218.443Z" transform="translate(-54.832 -198.534)" fill="#ff9d66"/>
            </g>
          </g>
          <g id="Grupo_80080" data-name="Grupo 80080" transform="translate(0 65.047)">
            <path id="Trazado_138087" data-name="Trazado 138087" d="M41.064,240.816c-.407,3.175-14.631,17.058-29.253,30.243-14.961,13.475-30.329,26.2-31.775,26-2.866-.41-20.185-67.716-18.33-72.989,1.639-4.666,45.6-13.652,55.662-15.644a3.49,3.49,0,0,1,2.456.41,3.535,3.535,0,0,1,.916.786C25.571,215.427,41.76,235.358,41.064,240.816Z" transform="translate(38.433 -208.356)" fill="#34dce0"/>
            <path id="Trazado_138088" data-name="Trazado 138088" d="M11.811,271.059c-14.961,13.475-30.329,26.2-31.775,26-2.866-.41-20.185-67.716-18.33-72.989,1.639-4.666,45.6-13.652,55.662-15.644a3.49,3.49,0,0,1,2.456.41C12.594,226.895.853,261.307,11.811,271.059Z" transform="translate(38.433 -208.356)" fill="#0acbcf"/>
          </g>
        </g>
      </g>
      <g id="Grupo_80088" data-name="Grupo 80088" transform="translate(260.803 -2.731)">
        <path id="Trazado_138089" data-name="Trazado 138089" d="M444.151,1.925,392.66,30.189l-15.243,8.368a1.148,1.148,0,0,0-.475,1.519l.524,1.052-6.251,4.666a.649.649,0,0,0-.189.816L374.3,53l-2.335,2.287a21.634,21.634,0,0,1-10.081,5.573c-11.111,2.663-34.478,8.349-36.8,9.495-2.128,1.056-7.405,8.282-11.843,14.815-.669.983-1.317,1.949-1.93,2.873-2.866,3.574-5.038,6.993-5.7,9.284-2.621,9.138-5.563,21.389-4.8,28.036a2.575,2.575,0,0,0,3.3,2.137c3.482-.973,9.283-3.746,10.492-11.44a33.632,33.632,0,0,1,3.012-9.031c-.382.8-.745,1.618-1.076,2.437.083.086.167.173.26.252,7.056,6.363,16.773,14.393,23.084,16.614a2.577,2.577,0,0,0,3.363-2.022,14.116,14.116,0,0,0-2.835-11.891l-.008-.009a9.324,9.324,0,0,0,1.275-.547,15.822,15.822,0,0,0,2.935-2.026c5.332,1.784,10.463,3.1,14.091,3.118a2.582,2.582,0,0,0,2.525-3.015A13.973,13.973,0,0,0,353.69,99.1l1.7-2.28,1.44-1.922c5.006-.23,19.909-1.825,24.463-12.595v.009s2.888-1.689,6.2-3.6l4.147,8.083a.648.648,0,0,0,.781.32l2.676-.886h0l4.169-1.381.2.406a1.148,1.148,0,0,0,1.682.431L515.149,5.4ZM338.421,90.583l.067-.037-.04.06ZM335.8,83.116c-.137.118-.281.248-.429.385C335.516,83.363,335.66,83.234,335.8,83.116Zm-.674.616c-.07.067-.139.132-.211.2C334.984,83.864,335.053,83.8,335.123,83.732Zm-.527.515c-.053.053-.107.107-.161.163C334.49,84.354,334.543,84.3,334.6,84.247Zm-.639.656.1-.1Zm-13.673,17.174c.423-.713.85-1.407,1.275-2.073C321.134,100.67,320.707,101.365,320.284,102.077Zm-2.61,4.842q.562-1.172,1.175-2.311C318.443,105.366,318.048,106.138,317.675,106.919Zm1.3-2.533q.569-1.048,1.162-2.053Q319.541,103.337,318.971,104.387Z" transform="translate(-294.481 2.515)" opacity="0.12"/>
        <g id="Grupo_80087" data-name="Grupo 80087">
          <g id="Grupo_80084" data-name="Grupo 80084" transform="translate(0 33.471)">
            <path id="Trazado_138090" data-name="Trazado 138090" d="M317.383,84.175l-.609,8.544a16.965,16.965,0,0,0,10.275,16.838c8.751,3.712,20.552,8.127,27.244,8.167a2.582,2.582,0,0,0,2.525-3.015c-.549-3.572-2.6-9.668-10.091-11.8-10.858-3.09-19.1-14.442-19.1-14.442Z" transform="translate(-296.277 -40.167)" fill="#f5925a"/>
            <path id="Trazado_138091" data-name="Trazado 138091" d="M338.255,129.369a2.577,2.577,0,0,1-3.363,2.022c-6.311-2.221-16.028-10.25-23.084-16.614-.093-.079-.177-.166-.26-.252a59.849,59.849,0,0,1,5.012-9.46l.01-.008c.127-.172,1.972-2.612,4.366-5.622,3.235-4.075,7.48-9.211,9.861-11.258,4.208-3.625,7.143.862,7.143.862l-4,5.9-.448.67-11.357,6.344a44.6,44.6,0,0,0,3.979,6.49,28.485,28.485,0,0,0,6.464,6.475,15.144,15.144,0,0,1,2.846,2.562A14.116,14.116,0,0,1,338.255,129.369Z" transform="translate(-295.696 -40.457)" fill="#ff9d66"/>
            <path id="Trazado_138092" data-name="Trazado 138092" d="M395.279,69.047c-.732.813-5.036,3.365-9.445,5.847-4.706,2.65-9.533,5.219-10.247,5.542-.1.052-.152.075-.152.075-.3.131-.59.235-.876.33-4.2,11.384-19.616,13.047-24.724,13.276-2.057,2.752-4.09,5.469-5.162,6.92-2.7,3.634-8.419,11.247-13.533,10.945s-7.848-6.533-6.87-10.308c.362-1.392,3.458-6.281,7.218-11.907l.448-.67,4-5.9s-2.935-4.487-7.143-.862c-4.144,3.568-13.927,16.474-14.228,16.88l-.01.008c-2.982,4.677-6.1,10.624-6.948,16.054-1.209,7.695-7.01,10.467-10.492,11.44a2.575,2.575,0,0,1-3.3-2.137c-.766-6.647,2.176-18.9,4.8-28.036.661-2.291,2.834-5.71,5.7-9.284.614-.924,1.262-1.89,1.931-2.873,4.438-6.532,9.716-13.759,11.843-14.815,2.319-1.146,25.687-6.831,36.8-9.494a21.634,21.634,0,0,0,10.081-5.573l20.306-19.89S399.324,64.5,395.279,69.047Z" transform="translate(-293.697 -34.617)" fill="#ffb288"/>
            <g id="Grupo_80083" data-name="Grupo 80083" transform="translate(30.377 32.146)">
              <path id="Trazado_138093" data-name="Trazado 138093" d="M378.9,84.574l.031.133c-3.2,12.957-19.91,14.764-25.269,15.01-2.057,2.742-4.092,5.461-5.168,6.91-2.69,3.638-8.415,11.25-13.53,10.955s-7.837-6.533-6.869-10.313a4.776,4.776,0,0,1,.215-.586c-.394,3.794,2.3,9.133,7.026,9.414,5.117.295,10.841-7.317,13.531-10.955,1.076-1.448,3.112-4.167,5.168-6.91C359.206,98,374.917,96.3,378.9,84.574Z" transform="translate(-327.905 -72.358)" fill="#ffc7a8"/>
              <path id="Trazado_138094" data-name="Trazado 138094" d="M381.269,70.822s13.244-.486,14.374,8.122c-4.707,2.652-11.537,6.647-11.537,6.647S384.557,77.042,381.269,70.822Z" transform="translate(-333.882 -70.817)" fill="#ff9d66"/>
            </g>
          </g>
          <g id="Grupo_80085" data-name="Grupo 80085" transform="translate(70.258 38.97)">
            <path id="Trazado_138095" data-name="Trazado 138095" d="M372.888,46.526l20.618,40.188a.648.648,0,0,0,.781.32l7.23-2.395L379.64,40.81l-6.564,4.9A.649.649,0,0,0,372.888,46.526Z" transform="translate(-372.816 -40.81)" fill="#fff"/>
            <path id="Trazado_138096" data-name="Trazado 138096" d="M380.5,40.81l17.322,45.337,4.555-1.508Z" transform="translate(-373.677 -40.81)" fill="#e8f6fc"/>
          </g>
          <g id="Grupo_80086" data-name="Grupo 80086" transform="translate(76.125)">
            <path id="Trazado_138097" data-name="Trazado 138097" d="M517.75.4,403.756,80.688a1.148,1.148,0,0,1-1.682-.431l-4.012-8.047L379.544,35.076a1.148,1.148,0,0,1,.475-1.519l15.243-8.368L446.752-3.075Z" transform="translate(-379.423 3.075)" fill="#91e05c"/>
            <path id="Trazado_138098" data-name="Trazado 138098" d="M519.748.4,405.754,80.688a1.148,1.148,0,0,1-1.682-.431l-4.012-8.047c25.9-12.042,66.813-29.748,57.88-41.871-8.956-12.165-41.127-8.628-60.681-5.15L448.75-3.075Z" transform="translate(-381.42 3.075)" fill="#85d64d"/>
          </g>
        </g>
      </g>
      <g id="Grupo_80096" data-name="Grupo 80096" transform="translate(291.38 157.057)">
        <path id="Trazado_138099" data-name="Trazado 138099" d="M502.672,350.233v0h0l-.123-1.656h0l-2.885-38.925-35.246,3.519c-2.068-8.359-18.073-17.083-25.708-17.7-.909-.073-2.13-.258-3.53-.485V253.546c.136-.036.289-.079.414-.108,7.462-1.731,22.006-12.72,22.818-21.292l35.38-1.717-3.009-40.583s-28.37,8.988-31.853,9.485c-.6.085-2,.282-3.9.547l-19.853,2.763V196.2a6.776,6.776,0,0,0-6.776-6.776H342.875V185.74a3.861,3.861,0,0,0-2.859-3.722l.028-.011c-.06-.016-.123-.024-.183-.037s-.1-.023-.155-.033a3.869,3.869,0,0,0-4.575,3.8V349.417A3.872,3.872,0,0,0,339,353.29c.049,0,.093-.012.141-.014a3.765,3.765,0,0,0,.506-.052c.091-.015.179-.034.267-.055.042-.01.086-.015.127-.026l-.02-.007a3.862,3.862,0,0,0,2.85-3.719v-3.684H428.4a6.717,6.717,0,0,0,.961-.076c3.747.23,6.274.219,6.274.219s20.89-.206,30.137-.294l3.994-.035C473.286,345.525,502.672,350.233,502.672,350.233Zm-64.642-40.8a3.38,3.38,0,0,1-2.851,2.247v-6.333C439.4,306.6,438.03,309.431,438.03,309.431Z" transform="translate(-328.915 -177.426)" opacity="0.12"/>
        <g id="Grupo_80095" data-name="Grupo 80095">
          <g id="Grupo_80092" data-name="Grupo 80092">
            <g id="Grupo_80089" data-name="Grupo 80089">
              <path id="Trazado_138100" data-name="Trazado 138100" d="M332,348.29h0a3.872,3.872,0,0,1-3.872-3.873V180.741A3.872,3.872,0,0,1,332,176.868h0a3.872,3.872,0,0,1,3.873,3.873V344.418A3.873,3.873,0,0,1,332,348.29Z" transform="translate(-328.131 -176.866)" fill="#dedede"/>
              <path id="Trazado_138101" data-name="Trazado 138101" d="M332.006,176.866a3.966,3.966,0,0,1,1.039.142,3.855,3.855,0,0,0-2.842,3.73V344.414a3.855,3.855,0,0,0,2.842,3.73,3.966,3.966,0,0,1-1.039.142,3.869,3.869,0,0,1-3.872-3.872V180.738A3.869,3.869,0,0,1,332.006,176.866Z" transform="translate(-328.131 -176.866)" fill="#ededed"/>
            </g>
            <path id="Rectángulo_5961" data-name="Rectángulo 5961" d="M0,0H85.051a7.631,7.631,0,0,1,7.631,7.631V148.679a7.631,7.631,0,0,1-7.631,7.631H0a0,0,0,0,1,0,0V0A0,0,0,0,1,0,0Z" transform="translate(7.365 7.557)" fill="#dedede"/>
            <path id="Trazado_138102" data-name="Trazado 138102" d="M427.524,185.376h5.008a6.774,6.774,0,0,1,6.775,6.775V334.906a6.769,6.769,0,0,1-6.775,6.775h-5.008a6.776,6.776,0,0,0,6.784-6.775V192.151A6.782,6.782,0,0,0,427.524,185.376Z" transform="translate(-339.263 -177.819)" fill="#ededed"/>
            <rect id="Rectángulo_5962" data-name="Rectángulo 5962" width="8.323" height="156.31" transform="translate(7.365 7.557)" fill="#d1d1d1"/>
            <g id="Grupo_80090" data-name="Grupo 80090" transform="translate(65.512 64.071)">
              <rect id="Rectángulo_5963" data-name="Rectángulo 5963" width="43.282" height="28.467" rx="1.622" transform="translate(0 43.282) rotate(-90)" fill="#453945"/>
              <path id="Trazado_138103" data-name="Trazado 138103" d="M403.359,249.031h25.564a1.441,1.441,0,0,1,1.44,1.44v40.39a1.441,1.441,0,0,1-1.44,1.44h-4.741V277.475a22.263,22.263,0,0,0-22.263-22.262h0v-4.741A1.441,1.441,0,0,1,403.359,249.031Z" transform="translate(-401.908 -249.02)" fill="#362c36"/>
              <path id="Trazado_138104" data-name="Trazado 138104" d="M403.359,249.031h1.069v40.947h25.935v.884a1.441,1.441,0,0,1-1.44,1.44H403.359a1.441,1.441,0,0,1-1.44-1.44v-40.39A1.441,1.441,0,0,1,403.359,249.031Z" transform="translate(-401.908 -249.02)" fill="#6b586b"/>
            </g>
            <rect id="Rectángulo_5964" data-name="Rectángulo 5964" width="137.223" height="48.398" rx="2.011" transform="translate(13.613 154.324) rotate(-90)" fill="#362c36"/>
            <g id="Grupo_80091" data-name="Grupo 80091" transform="translate(15.059 21.726)">
              <rect id="Rectángulo_5965" data-name="Rectángulo 5965" width="10.323" height="4.107" rx="0.688" transform="translate(0 127.983) rotate(-90)" fill="#544554"/>
              <rect id="Rectángulo_5966" data-name="Rectángulo 5966" width="10.323" height="4.107" rx="0.688" transform="translate(0 116.217) rotate(-90)" fill="#544554"/>
              <rect id="Rectángulo_5967" data-name="Rectángulo 5967" width="10.323" height="4.107" rx="0.688" transform="translate(0 104.451) rotate(-90)" fill="#544554"/>
              <rect id="Rectángulo_5968" data-name="Rectángulo 5968" width="10.323" height="4.107" rx="0.688" transform="translate(0 92.685) rotate(-90)" fill="#544554"/>
              <rect id="Rectángulo_5969" data-name="Rectángulo 5969" width="10.323" height="4.107" rx="0.688" transform="translate(0 80.919) rotate(-90)" fill="#544554"/>
              <rect id="Rectángulo_5970" data-name="Rectángulo 5970" width="10.323" height="4.107" rx="0.688" transform="translate(0 69.153) rotate(-90)" fill="#544554"/>
              <rect id="Rectángulo_5971" data-name="Rectángulo 5971" width="10.323" height="4.107" rx="0.688" transform="translate(0 57.387) rotate(-90)" fill="#544554"/>
              <rect id="Rectángulo_5972" data-name="Rectángulo 5972" width="10.323" height="4.107" rx="0.688" transform="translate(0 45.621) rotate(-90)" fill="#544554"/>
              <rect id="Rectángulo_5973" data-name="Rectángulo 5973" width="10.323" height="4.107" rx="0.688" transform="translate(0 33.855) rotate(-90)" fill="#544554"/>
              <rect id="Rectángulo_5974" data-name="Rectángulo 5974" width="10.323" height="4.107" rx="0.688" transform="translate(0 22.089) rotate(-90)" fill="#544554"/>
              <rect id="Rectángulo_5975" data-name="Rectángulo 5975" width="10.323" height="4.107" rx="0.688" transform="translate(0 10.323) rotate(-90)" fill="#544554"/>
              <rect id="Rectángulo_5976" data-name="Rectángulo 5976" width="10.323" height="6.921" rx="0.574" transform="translate(5.513 127.983) rotate(-90)" fill="#544554"/>
              <rect id="Rectángulo_5977" data-name="Rectángulo 5977" width="10.323" height="6.921" rx="0.574" transform="translate(5.513 116.217) rotate(-90)" fill="#544554"/>
              <rect id="Rectángulo_5978" data-name="Rectángulo 5978" width="10.323" height="6.921" rx="0.574" transform="translate(13.736 122.028) rotate(-90)" fill="#544554"/>
              <rect id="Rectángulo_5979" data-name="Rectángulo 5979" width="10.323" height="6.921" rx="0.574" transform="translate(13.736 110.595) rotate(-90)" fill="#544554"/>
              <rect id="Rectángulo_5980" data-name="Rectángulo 5980" width="10.323" height="6.921" rx="0.574" transform="translate(13.736 99.162) rotate(-90)" fill="#544554"/>
              <rect id="Rectángulo_5981" data-name="Rectángulo 5981" width="10.323" height="6.921" rx="0.574" transform="translate(13.736 87.729) rotate(-90)" fill="#544554"/>
              <rect id="Rectángulo_5982" data-name="Rectángulo 5982" width="10.323" height="6.921" rx="0.574" transform="translate(13.736 76.296) rotate(-90)" fill="#544554"/>
              <rect id="Rectángulo_5983" data-name="Rectángulo 5983" width="10.323" height="6.921" rx="0.574" transform="translate(13.736 64.863) rotate(-90)" fill="#544554"/>
              <rect id="Rectángulo_5984" data-name="Rectángulo 5984" width="10.323" height="6.921" rx="0.574" transform="translate(13.736 53.43) rotate(-90)" fill="#544554"/>
              <rect id="Rectángulo_5985" data-name="Rectángulo 5985" width="10.323" height="6.921" rx="0.574" transform="translate(13.736 41.997) rotate(-90)" fill="#544554"/>
              <path id="Trazado_138105" data-name="Trazado 138105" d="M360.557,211.985V231.94a.734.734,0,0,0,.734.734h5.452a.734.734,0,0,0,.734-.734V221.574H374.7a.623.623,0,0,0,.622-.622v-9.078a.623.623,0,0,0-.622-.622H361.291A.735.735,0,0,0,360.557,211.985Z" transform="translate(-346.821 -202.443)" fill="#544554"/>
              <rect id="Rectángulo_5986" data-name="Rectángulo 5986" width="7.291" height="6.921" rx="0.482" transform="translate(13.736 7.291) rotate(-90)" fill="#544554"/>
              <rect id="Rectángulo_5987" data-name="Rectángulo 5987" width="7.291" height="6.921" rx="0.482" transform="translate(21.578 7.291) rotate(-90)" fill="#544554"/>
              <rect id="Rectángulo_5988" data-name="Rectángulo 5988" width="10.323" height="6.921" rx="0.574" transform="translate(5.513 104.451) rotate(-90)" fill="#544554"/>
              <rect id="Rectángulo_5989" data-name="Rectángulo 5989" width="10.323" height="6.921" rx="0.574" transform="translate(5.513 92.685) rotate(-90)" fill="#544554"/>
              <rect id="Rectángulo_5990" data-name="Rectángulo 5990" width="10.323" height="6.921" rx="0.574" transform="translate(5.513 80.919) rotate(-90)" fill="#544554"/>
              <rect id="Rectángulo_5991" data-name="Rectángulo 5991" width="10.323" height="6.921" rx="0.574" transform="translate(5.513 69.153) rotate(-90)" fill="#544554"/>
              <rect id="Rectángulo_5992" data-name="Rectángulo 5992" width="10.323" height="6.921" rx="0.574" transform="translate(5.513 57.387) rotate(-90)" fill="#544554"/>
              <rect id="Rectángulo_5993" data-name="Rectángulo 5993" width="10.323" height="6.921" rx="0.574" transform="translate(5.513 45.621) rotate(-90)" fill="#544554"/>
              <rect id="Rectángulo_5994" data-name="Rectángulo 5994" width="22.089" height="6.921" rx="0.84" transform="translate(5.513 33.855) rotate(-90)" fill="#544554"/>
              <rect id="Rectángulo_5995" data-name="Rectángulo 5995" width="10.323" height="6.921" rx="0.574" transform="translate(5.513 10.323) rotate(-90)" fill="#544554"/>
              <rect id="Rectángulo_5996" data-name="Rectángulo 5996" width="4.882" height="6.921" rx="0.47" transform="translate(13.736 127.983) rotate(-90)" fill="#544554"/>
              <rect id="Rectángulo_5997" data-name="Rectángulo 5997" width="10.323" height="6.921" rx="0.574" transform="translate(30.181 122.028) rotate(-90)" fill="#544554"/>
              <rect id="Rectángulo_5998" data-name="Rectángulo 5998" width="10.323" height="6.921" rx="0.574" transform="translate(30.181 110.595) rotate(-90)" fill="#544554"/>
              <rect id="Rectángulo_5999" data-name="Rectángulo 5999" width="10.323" height="6.921" rx="0.574" transform="translate(30.181 99.162) rotate(-90)" fill="#544554"/>
              <rect id="Rectángulo_6000" data-name="Rectángulo 6000" width="10.323" height="6.921" rx="0.574" transform="translate(30.181 87.729) rotate(-90)" fill="#544554"/>
              <rect id="Rectángulo_6001" data-name="Rectángulo 6001" width="10.323" height="6.921" rx="0.574" transform="translate(30.181 76.296) rotate(-90)" fill="#544554"/>
              <rect id="Rectángulo_6002" data-name="Rectángulo 6002" width="10.323" height="6.921" rx="0.574" transform="translate(30.181 64.863) rotate(-90)" fill="#544554"/>
              <rect id="Rectángulo_6003" data-name="Rectángulo 6003" width="10.323" height="6.921" rx="0.574" transform="translate(30.181 53.43) rotate(-90)" fill="#544554"/>
              <rect id="Rectángulo_6004" data-name="Rectángulo 6004" width="10.323" height="6.921" rx="0.574" transform="translate(30.181 41.997) rotate(-90)" fill="#544554"/>
              <rect id="Rectángulo_6005" data-name="Rectángulo 6005" width="10.323" height="6.921" rx="0.574" transform="translate(30.181 30.564) rotate(-90)" fill="#544554"/>
              <rect id="Rectángulo_6006" data-name="Rectángulo 6006" width="7.698" height="6.921" rx="0.496" transform="translate(38.404 7.698) rotate(-90)" fill="#544554"/>
              <rect id="Rectángulo_6007" data-name="Rectángulo 6007" width="7.698" height="6.921" rx="0.496" transform="translate(38.404 17.819) rotate(-90)" fill="#544554"/>
              <rect id="Rectángulo_6008" data-name="Rectángulo 6008" width="7.698" height="6.921" rx="0.496" transform="translate(38.404 27.217) rotate(-90)" fill="#544554"/>
              <rect id="Rectángulo_6009" data-name="Rectángulo 6009" width="7.698" height="6.921" rx="0.496" transform="translate(30.181 7.698) rotate(-90)" fill="#544554"/>
              <rect id="Rectángulo_6010" data-name="Rectángulo 6010" width="7.698" height="6.921" rx="0.496" transform="translate(30.181 17.819) rotate(-90)" fill="#544554"/>
              <rect id="Rectángulo_6011" data-name="Rectángulo 6011" width="4.882" height="6.921" rx="0.47" transform="translate(30.181 127.983) rotate(-90)" fill="#544554"/>
              <rect id="Rectángulo_6012" data-name="Rectángulo 6012" width="11.117" height="6.921" rx="0.488" transform="translate(21.959 127.983) rotate(-90)" fill="#544554"/>
              <rect id="Rectángulo_6013" data-name="Rectángulo 6013" width="11.117" height="6.921" rx="0.488" transform="translate(21.959 115.568) rotate(-90)" fill="#544554"/>
              <rect id="Rectángulo_6014" data-name="Rectángulo 6014" width="11.117" height="6.921" rx="0.488" transform="translate(21.959 103.152) rotate(-90)" fill="#544554"/>
              <rect id="Rectángulo_6015" data-name="Rectángulo 6015" width="11.117" height="6.921" rx="0.488" transform="translate(21.959 90.737) rotate(-90)" fill="#544554"/>
              <rect id="Rectángulo_6016" data-name="Rectángulo 6016" width="11.117" height="6.921" rx="0.488" transform="translate(21.959 78.321) rotate(-90)" fill="#544554"/>
              <rect id="Rectángulo_6017" data-name="Rectángulo 6017" width="11.117" height="6.921" rx="0.488" transform="translate(21.959 65.906) rotate(-90)" fill="#544554"/>
              <rect id="Rectángulo_6018" data-name="Rectángulo 6018" width="11.117" height="6.921" rx="0.488" transform="translate(21.959 53.49) rotate(-90)" fill="#544554"/>
              <rect id="Rectángulo_6019" data-name="Rectángulo 6019" width="11.117" height="6.921" rx="0.488" transform="translate(21.959 41.075) rotate(-90)" fill="#544554"/>
              <rect id="Rectángulo_6020" data-name="Rectángulo 6020" width="8.474" height="6.921" rx="0.426" transform="translate(21.959 28.659) rotate(-90)" fill="#544554"/>
              <path id="Rectángulo_6021" data-name="Rectángulo 6021" d="M.461,0h9.4a.46.46,0,0,1,.46.46v6a.461.461,0,0,1-.461.461H.461A.461.461,0,0,1,0,6.46v-6A.461.461,0,0,1,.461,0Z" transform="translate(38.404 127.983) rotate(-90)" fill="#544554"/>
              <rect id="Rectángulo_6022" data-name="Rectángulo 6022" width="10.323" height="6.921" rx="0.461" transform="translate(38.404 116.866) rotate(-90)" fill="#544554"/>
              <rect id="Rectángulo_6023" data-name="Rectángulo 6023" width="10.323" height="6.921" rx="0.461" transform="translate(38.404 105.75) rotate(-90)" fill="#544554"/>
              <rect id="Rectángulo_6024" data-name="Rectángulo 6024" width="10.323" height="6.921" rx="0.461" transform="translate(38.404 94.633) rotate(-90)" fill="#544554"/>
              <rect id="Rectángulo_6025" data-name="Rectángulo 6025" width="54.988" height="6.921" rx="1.063" transform="translate(38.404 83.147) rotate(-90)" fill="#544554"/>
            </g>
            <path id="Trazado_138106" data-name="Trazado 138106" d="M391.86,256.75v12.012l-48.4,43.847V300.6Z" transform="translate(-329.848 -185.813)" fill="#fff" opacity="0.09"/>
            <path id="Trazado_138107" data-name="Trazado 138107" d="M391.86,205.549v12.012l-48.4,43.847V249.4Z" transform="translate(-329.848 -180.078)" fill="#fff" opacity="0.09"/>
            <path id="Trazado_138108" data-name="Trazado 138108" d="M391.86,283.155v12.012l-48.4,43.847V327Z" transform="translate(-329.848 -188.77)" fill="#fff" opacity="0.09"/>
          </g>
          <g id="Grupo_80093" data-name="Grupo 80093" transform="translate(52.53 111.358)">
            <path id="Trazado_138109" data-name="Trazado 138109" d="M415.049,302.621a2.28,2.28,0,0,0-1.5,2.873c.81,3.841,4.2,6.488,8.527,7.72a14.109,14.109,0,0,0,2.26.506l.006,0h0a15.753,15.753,0,0,0,3.087.143c12.815-.713,10.225,4.612,10.225,4.612-1.566,5.277-15.1,1.078-25.835-3.992-5.084-2.4-8.915-3.282-11.636-3.189a11.777,11.777,0,0,0-6.715,2.007,2.02,2.02,0,0,0-.448,3.044,23.639,23.639,0,0,0,3.753,3.2,5.751,5.751,0,0,0-1.653-.213,11.635,11.635,0,0,0-6.885,2.019,2.06,2.06,0,0,0-.447,3.08,31.415,31.415,0,0,0,6.339,4.98c.07.054.139.107.2.149a11.989,11.989,0,0,0-5.707,2.483,2.059,2.059,0,0,0-.2,3.106c2.013,1.93,5.5,3.941,9.367,5.807.742.386,1.441.705,2.035.956q.618.282,1.24.556a10.566,10.566,0,0,0-2.25,1.569,1.654,1.654,0,0,0,.033,2.5,18.433,18.433,0,0,0,4.093,2.328,40.668,40.668,0,0,0,11.826,4.054l.034.01v0a114.584,114.584,0,0,0,20.465,1.993s30.613-.3,34.132-.325,32.9,4.685,32.9,4.685l-3.009-40.584-35.246,3.519c-2.068-8.359-18.073-17.083-25.708-17.7-2.451-.2-7.149-1.21-11.565-1.642v-.016C422.251,302.257,417.934,302.013,415.049,302.621Z" transform="translate(-387.286 -302.269)" fill="#ffb288"/>
            <path id="Trazado_138110" data-name="Trazado 138110" d="M399.815,349.886a1.391,1.391,0,0,0,.291.326,18.146,18.146,0,0,0,4.09,2.323,40.7,40.7,0,0,0,11.823,4.057c.018,0,.027.006.036.006a105.031,105.031,0,0,0,13.977,1.759c3.865.248,6.49.232,6.49.232s30.609-.3,34.134-.322,32.9,4.684,32.9,4.684l.123,1.656s-29.386-4.7-32.9-4.684-34.133.331-34.133.331a114.285,114.285,0,0,1-20.467-2v.009c-.009-.008-.018-.007-.036-.015A40.674,40.674,0,0,1,404.32,354.2a18.468,18.468,0,0,1-4.091-2.332A1.622,1.622,0,0,1,399.815,349.886Z" transform="translate(-388.67 -307.602)" fill="#ffc7a8"/>
            <path id="Trazado_138111" data-name="Trazado 138111" d="M473.634,324.638s-.529,5.361-.7,7.006,7.9-7.724,7.9-7.724Z" transform="translate(-396.878 -304.694)" fill="#ff9d66"/>
            <path id="Trazado_138112" data-name="Trazado 138112" d="M398.111,321.764s13.847,8.492,27.988,10.263C426.1,332.028,399.069,322.683,398.111,321.764Z" transform="translate(-388.499 -304.452)" fill="#ff9d66"/>
            <path id="Trazado_138113" data-name="Trazado 138113" d="M395.646,333.286s17.318,9.926,31.946,9.065C427.592,342.351,408.824,344.362,395.646,333.286Z" transform="translate(-388.223 -305.743)" fill="#ff9d66"/>
            <path id="Trazado_138114" data-name="Trazado 138114" d="M403.443,347.69s18.475,5.552,26.244,3.752C429.687,351.442,415.8,354.211,403.443,347.69Z" transform="translate(-389.096 -307.356)" fill="#ff9d66"/>
          </g>
          <g id="Grupo_80094" data-name="Grupo 80094" transform="translate(46.159 7.98)">
            <path id="Trazado_138115" data-name="Trazado 138115" d="M411.663,254.754a2.28,2.28,0,0,1-1.906-2.62c.234-3.919,3.2-7.037,7.295-8.893a14.011,14.011,0,0,1,2.161-.834l.006,0h0a15.832,15.832,0,0,1,3.033-.6c12.78-1.184,9.433-6.069,9.433-6.069-2.327-4.989-15.1,1.161-24.963,7.757-4.674,3.126-8.334,4.561-11.04,4.871a11.774,11.774,0,0,1-6.938-1,2.02,2.02,0,0,1-.891-2.945,23.615,23.615,0,0,1,3.24-3.715,5.778,5.778,0,0,1-1.6.454,11.628,11.628,0,0,1-7.107-.982,2.059,2.059,0,0,1-.9-2.98,31.444,31.444,0,0,1,5.536-5.861c.061-.063.122-.126.175-.177a11.981,11.981,0,0,1-6.011-1.614,2.06,2.06,0,0,1-.659-3.042c1.707-2.2,4.86-4.709,8.408-7.124.677-.491,1.321-.909,1.872-1.246q.569-.369,1.144-.733a10.537,10.537,0,0,1-2.456-1.22,1.654,1.654,0,0,1-.337-2.478,18.407,18.407,0,0,1,3.7-2.906,40.692,40.692,0,0,1,11.1-5.752l.032-.015,0,0a114.652,114.652,0,0,1,19.947-4.989s30.323-4.215,33.806-4.712,31.853-9.485,31.853-9.485l3.009,40.583-35.38,1.717c-.813,8.573-15.356,19.562-22.818,21.292-2.395.556-6.893,2.252-11.2,3.33l0,.016C418.841,254.053,414.606,254.93,411.663,254.754Z" transform="translate(-380.111 -185.852)" fill="#ffb288"/>
            <path id="Trazado_138116" data-name="Trazado 138116" d="M390.133,215.731a1.392,1.392,0,0,1,.24-.365,18.13,18.13,0,0,1,3.7-2.9,40.673,40.673,0,0,1,11.1-5.755c.018,0,.026-.012.035-.012a104.975,104.975,0,0,1,13.564-3.8c3.786-.815,6.386-1.186,6.386-1.186s30.319-4.215,33.808-4.714,31.852-9.485,31.852-9.485l-.123-1.656s-28.371,8.987-31.851,9.485-33.809,4.706-33.809,4.706a114.219,114.219,0,0,0-19.949,5v-.009c-.008.009-.017.01-.034.02a40.689,40.689,0,0,0-11.1,5.746,18.5,18.5,0,0,0-3.7,2.91A1.622,1.622,0,0,0,390.133,215.731Z" transform="translate(-381.201 -185.852)" fill="#ffc7a8"/>
            <path id="Trazado_138117" data-name="Trazado 138117" d="M466.739,232.6s-1.314-5.224-1.73-6.826,8.95,6.476,8.95,6.476Z" transform="translate(-389.619 -190.3)" fill="#ff9d66"/>
            <path id="Trazado_138118" data-name="Trazado 138118" d="M392.611,245.767s12.443-10.44,26.168-14.277C418.779,231.49,393.424,244.718,392.611,245.767Z" transform="translate(-381.511 -190.963)" fill="#ff9d66"/>
            <path id="Trazado_138119" data-name="Trazado 138119" d="M388.473,234.811s15.665-12.372,30.26-13.676C418.733,221.135,399.874,221.913,388.473,234.811Z" transform="translate(-381.048 -189.804)" fill="#ff9d66"/>
            <path id="Trazado_138120" data-name="Trazado 138120" d="M394.062,220.179s17.454-8.215,25.4-7.58C419.466,212.6,405.326,211.907,394.062,220.179Z" transform="translate(-381.674 -188.844)" fill="#ff9d66"/>
          </g>
        </g>
      </g>
      <g id="Grupo_80104" data-name="Grupo 80104" transform="translate(111.544 254.017)">
        <path id="Trazado_138121" data-name="Trazado 138121" d="M330.933,447.891s-.075-35.47-.755-38.37c-.471-2.018-5.559-7.935-10.23-13.016-1.434-1.562-2.824-3.041-4.042-4.3-.209-.224-.418-.448-.628-.665-1.584-1.644-2.749-2.809-3.108-3.13a1.218,1.218,0,0,0-.86-.225,3.908,3.908,0,0,0-.594.08V291.055H174.222v97.4c-.407.374-1.533,1.5-3.052,3.078-.209.217-.418.441-.628.665-1.217,1.263-2.607,2.742-4.042,4.3-4.67,5.081-9.758,11-10.229,13.016-.68,2.9-.755,38.37-.755,38.37l-22.9,37.813s30.426,4.341,33.489,0c.545-.784,6.958-15.433,8.184-19.67,1-3.437,2.408-8.061,3.032-10.093H309.131c.622,2.032,2.033,6.656,3.031,10.093,1.225,4.237,5.131,20.057,5.676,20.842,3.064,4.341,35.686-1.686,35.686-1.686Z" transform="translate(-126.397 -286.615)" opacity="0.12"/>
        <g id="Grupo_80103" data-name="Grupo 80103">
          <g id="Grupo_80097" data-name="Grupo 80097" transform="translate(0 97.125)">
            <path id="Trazado_138122" data-name="Trazado 138122" d="M125.613,492.954s30.426,4.341,33.489,0c.545-.784,6.958-15.433,8.184-19.67,1.315-4.528,2.541-9.146,2.676-9.811.022-.1.029-.15.029-.15a10.955,10.955,0,0,0,0-4.087l-2.152-32.915-.045-.007c-1.1-.344,9.116-26.765,9.116-26.765s-5.342-3.453-8.16-4.035a3.966,3.966,0,0,0-.613-.083,1.216,1.216,0,0,0-.859.225c-.359.321-1.525,1.487-3.109,3.13-.209.217-.418.441-.628.665-1.217,1.263-2.607,2.743-4.042,4.3-4.67,5.081-9.758,11-10.229,13.016-.68,2.9-.755,38.37-.755,38.37Z" transform="translate(-125.613 -395.43)" fill="#ffb288"/>
            <path id="Trazado_138123" data-name="Trazado 138123" d="M156.317,414.4l15.855-18.882a3.967,3.967,0,0,0-.613-.083,1.216,1.216,0,0,0-.859.225c-.359.321-1.525,1.487-3.109,3.13-.209.217-.418.441-.628.665-.852.9-1.756,1.868-2.682,2.877-3.266,4.745-6.546,9.624-8.092,11.94C156.123,414.366,156.243,414.485,156.317,414.4Z" transform="translate(-129.035 -395.43)" fill="#ff9d66"/>
            <path id="Trazado_138124" data-name="Trazado 138124" d="M173.635,426.6l-4.687,5.092s-4.4-1.6-2.161-5.9a39.137,39.137,0,0,1,6.489-8.394Z" transform="translate(-130.153 -397.891)" fill="#ff9d66"/>
          </g>
          <g id="Grupo_80098" data-name="Grupo 80098" transform="translate(169.925 97.125)">
            <path id="Trazado_138125" data-name="Trazado 138125" d="M367.956,492.44s-32.622,6.028-35.686,1.686c-.545-.785-4.451-16.606-5.676-20.842-1.315-4.528-2.541-9.146-2.675-9.811-.022-.1-.03-.15-.03-.15a10.978,10.978,0,0,1,0-4.087l2.153-32.915.044-.007c1.1-.344-9.116-26.765-9.116-26.765s5.343-3.453,8.16-4.035a4,4,0,0,1,.613-.083,1.218,1.218,0,0,1,.86.225c.359.321,1.524,1.487,3.108,3.13.21.217.419.441.628.665,1.218,1.263,2.608,2.743,4.042,4.3,4.671,5.081,9.759,11,10.23,13.016.68,2.9.755,38.37.755,38.37Z" transform="translate(-316.97 -395.43)" fill="#ffb288"/>
            <path id="Trazado_138126" data-name="Trazado 138126" d="M342.015,414.4l-15.856-18.882a4,4,0,0,1,.613-.083,1.218,1.218,0,0,1,.86.225c.359.321,1.524,1.487,3.108,3.13.21.217.419.441.628.665.852.9,1.757,1.868,2.683,2.877,3.265,4.745,6.545,9.624,8.092,11.94C342.21,414.366,342.09,414.485,342.015,414.4Z" transform="translate(-317.999 -395.43)" fill="#ff9d66"/>
            <path id="Trazado_138127" data-name="Trazado 138127" d="M325.772,426.6l4.686,5.092s4.4-1.6,2.162-5.9a39.139,39.139,0,0,0-6.489-8.394Z" transform="translate(-317.956 -397.891)" fill="#ff9d66"/>
          </g>
          <rect id="Rectángulo_6026" data-name="Rectángulo 6026" width="136.491" height="164.886" transform="translate(41.609)" fill="#fff"/>
          <g id="Grupo_80100" data-name="Grupo 80100" transform="translate(41.608)">
            <path id="Trazado_138128" data-name="Trazado 138128" d="M308.964,286.055V450.939h-136.5V421.4h0A106.95,106.95,0,0,0,279.42,314.453v-28.4Z" transform="translate(-172.469 -286.055)" fill="#e8f6fc"/>
            <rect id="Rectángulo_6027" data-name="Rectángulo 6027" width="3.413" height="164.886" transform="translate(0.001)" fill="ivory"/>
            <g id="Grupo_80099" data-name="Grupo 80099" transform="translate(20.88 27.289)">
              <path id="Trazado_138129" data-name="Trazado 138129" d="M244.106,316.786a48.123,48.123,0,1,0,48.123,48.123A48.123,48.123,0,0,0,244.106,316.786Zm0,85.052a36.926,36.926,0,1,1,36.924-36.928A36.929,36.929,0,0,1,244.106,401.838Z" transform="translate(-195.983 -316.786)" fill="#4ba310"/>
              <path id="Trazado_138130" data-name="Trazado 138130" d="M247.851,412.2V423.4a47.868,47.868,0,0,1-18.379-3.643l4.12-10.41A36.76,36.76,0,0,0,247.851,412.2Z" transform="translate(-199.734 -327.153)" fill="#fe5693"/>
              <path id="Trazado_138131" data-name="Trazado 138131" d="M231.5,408.215l-4.12,10.41a48.052,48.052,0,0,1-16.614-11.454l7.923-7.923A36.862,36.862,0,0,0,231.5,408.215Z" transform="translate(-197.638 -326.022)" fill="#fe4268"/>
              <path id="Trazado_138132" data-name="Trazado 138132" d="M217.441,397.72l-7.923,7.923a48.014,48.014,0,0,1-9.858-15.58l10.282-4.454A36.7,36.7,0,0,0,217.441,397.72Z" transform="translate(-196.395 -324.494)" fill="#ff2e2e"/>
              <path id="Trazado_138133" data-name="Trazado 138133" d="M210.486,353.248a36.793,36.793,0,0,0-3.251,13.31h-11.2a47.839,47.839,0,0,1,4.036-17.431Z" transform="translate(-195.988 -320.408)" fill="#ff552b"/>
              <path id="Trazado_138134" data-name="Trazado 138134" d="M219.517,339.488a36.923,36.923,0,0,0-8.522,11.794l-10.42-4.12a48,48,0,0,1,11.019-15.6Z" transform="translate(-196.497 -318.441)" fill="#ff6200"/>
              <path id="Trazado_138135" data-name="Trazado 138135" d="M232.058,331.171a36.984,36.984,0,0,0-11.152,7.122l-7.923-7.922a48.045,48.045,0,0,1,14.625-9.477Z" transform="translate(-197.887 -317.246)" fill="#ff8c00"/>
              <path id="Trazado_138136" data-name="Trazado 138136" d="M267.207,319.893l-4.12,10.415a36.83,36.83,0,0,0-12.912-2.323h-.005v-11.2h.005A47.886,47.886,0,0,1,267.207,319.893Z" transform="translate(-202.052 -316.786)" fill="#ffd112"/>
              <path id="Trazado_138137" data-name="Trazado 138137" d="M284.825,330.3l-7.923,7.922a36.778,36.778,0,0,0-12.186-7.524l4.12-10.415A47.972,47.972,0,0,1,284.825,330.3Z" transform="translate(-203.681 -317.178)" fill="#91e05c"/>
              <path id="Trazado_138138" data-name="Trazado 138138" d="M296.76,345.794l-10.293,4.454a36.85,36.85,0,0,0-8.028-10.76l7.923-7.922A48.064,48.064,0,0,1,296.76,345.794Z" transform="translate(-205.218 -318.441)" fill="#73c43d"/>
              <path id="Trazado_138139" data-name="Trazado 138139" d="M302.709,370.73a48,48,0,0,1-2.725,16L289.558,382.6a36.8,36.8,0,0,0,1.952-11.873c0-.663-.016-1.32-.053-1.973h11.21C302.693,369.41,302.709,370.067,302.709,370.73Z" transform="translate(-206.463 -322.607)" fill="#34dce0"/>
              <path id="Trazado_138140" data-name="Trazado 138140" d="M298.988,388.475a47.99,47.99,0,0,1-10.4,17.027l-7.917-7.917a36.853,36.853,0,0,0,7.9-13.236Z" transform="translate(-205.468 -324.353)" fill="#24bae0"/>
              <path id="Trazado_138141" data-name="Trazado 138141" d="M287.109,407.171a48.058,48.058,0,0,1-15.161,10.834L267.5,407.723a36.918,36.918,0,0,0,11.693-8.469Z" transform="translate(-203.993 -326.022)" fill="#197ecc"/>
              <path id="Trazado_138142" data-name="Trazado 138142" d="M209.531,383.722l-10.282,4.454a47.89,47.89,0,0,1-3.266-17.446c0-.663.016-1.32.042-1.973h11.2c-.036.653-.052,1.31-.052,1.973A36.786,36.786,0,0,0,209.531,383.722Z" transform="translate(-195.983 -322.607)" fill="#ff4c38"/>
              <path id="Trazado_138143" data-name="Trazado 138143" d="M270.007,419.073a48.012,48.012,0,0,1-19.833,4.263h-.005V412.142h.005a36.728,36.728,0,0,0,15.384-3.351Z" transform="translate(-202.052 -327.091)" fill="#991f59"/>
              <path id="Trazado_138144" data-name="Trazado 138144" d="M247.849,316.786v11.2a36.836,36.836,0,0,0-13.946,2.725l-4.449-10.277A47.832,47.832,0,0,1,247.849,316.786Z" transform="translate(-199.732 -316.786)" fill="#fb0"/>
              <path id="Trazado_138145" data-name="Trazado 138145" d="M246.758,338.578l-27.1,46.937h54.2Z" transform="translate(-198.635 -319.227)" fill="#ffd112"/>
              <path id="Trazado_138146" data-name="Trazado 138146" d="M246.658,373.522v14.657H219.684l14.593-25.817Z" transform="translate(-198.638 -321.891)" fill="#ff2e2e"/>
              <path id="Trazado_138147" data-name="Trazado 138147" d="M250.06,373.522v14.657h26.973L262.44,362.363Z" transform="translate(-202.04 -321.891)" fill="#24bae0"/>
            </g>
          </g>
          <g id="Grupo_80101" data-name="Grupo 80101" transform="translate(158.734 116.633)">
            <path id="Trazado_138148" data-name="Trazado 138148" d="M338.533,443.4S317.7,419.674,314.69,418.092s-8.852-.509-10.128,3.78,4.057,10.667,6.608,13.681c1.017,1.2,2.921,3.471,4.844,5.768-.858,4.6-2.649,19.158,7.719,24.463H332l-1.59-19.992Z" transform="translate(-304.367 -417.399)" fill="#ffb288"/>
            <path id="Trazado_138149" data-name="Trazado 138149" d="M325.661,465.784h-1.928c-10.371-5.3-8.578-19.861-7.718-24.464-1.921-2.294-3.826-4.566-4.842-5.768-2.556-3.011-7.883-9.392-6.613-13.681,1.009-3.393,4.88-4.775,7.943-4.409-2.586.276-5.208,1.7-6.015,4.409-1.278,4.289,4.057,10.67,6.606,13.681,1.016,1.2,2.922,3.475,4.849,5.768C317.083,445.923,315.29,460.479,325.661,465.784Z" transform="translate(-304.367 -417.399)" fill="#ffc7a8"/>
            <path id="Trazado_138150" data-name="Trazado 138150" d="M337.152,471.1s-2.226,11.35-9.766,10.6c-1.315-4.528-3.349-11.128-3.349-11.128S331.212,472.658,337.152,471.1Z" transform="translate(-306.57 -423.354)" fill="#ff9d66"/>
          </g>
          <g id="Grupo_80102" data-name="Grupo 80102" transform="translate(28.324 116.633)">
            <path id="Trazado_138151" data-name="Trazado 138151" d="M157.509,443.4s20.828-23.726,23.842-25.308,8.853-.509,10.129,3.78-4.058,10.667-6.609,13.681c-1.017,1.2-2.922,3.471-4.844,5.768.858,4.6,2.649,19.158-7.719,24.463h-8.264l1.59-19.992Z" transform="translate(-157.509 -417.398)" fill="#ffb288"/>
            <path id="Trazado_138152" data-name="Trazado 138152" d="M174.04,465.783h.12c10.371-5.3,8.578-19.861,7.718-24.463,1.92-2.294,3.826-4.566,4.842-5.768,2.555-3.011,7.883-9.392,6.612-13.681s-7.113-5.358-10.132-3.781a4.212,4.212,0,0,0-.456.3c3.146-1.091,8.219.134,9.4,4.095,1.27,4.289-4.058,10.67-6.613,13.681-1.017,1.2-2.922,3.475-4.842,5.768C181.52,446.371,183.209,460.06,174.04,465.783Z" transform="translate(-159.36 -417.398)" fill="#ffc7a8"/>
            <path id="Trazado_138153" data-name="Trazado 138153" d="M161.544,471.1s2.227,11.35,9.766,10.6c1.315-4.528,3.35-11.128,3.35-11.128S167.485,472.658,161.544,471.1Z" transform="translate(-157.961 -423.354)" fill="#ff9d66"/>
          </g>
        </g>
      </g>
    </g>
  </g>
</svg>
