<svg xmlns="http://www.w3.org/2000/svg" width="96.666" height="100" viewBox="0 0 96.666 100">
  <g id="filled_outline" data-name="filled outline" transform="translate(-199.667 -206)">
    <path id="Trazado_164906" data-name="Trazado 164906" d="M294.666,281,293,279.333H241.333V291l3.334-1.667L248,291l3.333-1.667L254.667,291,258,289.333,261.333,291l3.334-1.667L268,291l3.333-1.667L274.666,291,278,289.333,281.333,291l3.333-1.667L288,291l3.333-1.667L294.666,291Z" fill="#6cbae5"/>
    <g id="Grupo_103450" data-name="Grupo 103450">
      <path id="Trazado_164907" data-name="Trazado 164907" d="M266.333,212.667h3.334v6.667h-3.334Z" fill="#428dc5"/>
      <path id="Trazado_164908" data-name="Trazado 164908" d="M259.667,212.667H263v6.667h-3.333Z" fill="#428dc5"/>
      <path id="Trazado_164909" data-name="Trazado 164909" d="M253,212.667h3.333v6.667H253Z" fill="#428dc5"/>
      <path id="Trazado_164910" data-name="Trazado 164910" d="M246.333,212.667h3.334v6.667h-3.334Z" fill="#428dc5"/>
      <path id="Trazado_164911" data-name="Trazado 164911" d="M286.333,212.667h3.333v6.667h-3.333Z" fill="#428dc5"/>
      <path id="Trazado_164912" data-name="Trazado 164912" d="M279.666,212.667H283v6.667h-3.334Z" fill="#428dc5"/>
      <path id="Trazado_164913" data-name="Trazado 164913" d="M273,212.667h3.333v6.667H273Z" fill="#428dc5"/>
      <path id="Trazado_164914" data-name="Trazado 164914" d="M286.333,279.333h3.333V286h-3.333Z" fill="#428dc5"/>
      <path id="Trazado_164915" data-name="Trazado 164915" d="M279.666,279.333H283V286h-3.334Z" fill="#428dc5"/>
      <path id="Trazado_164916" data-name="Trazado 164916" d="M273,279.333h3.333V286H273Z" fill="#428dc5"/>
    </g>
    <path id="Trazado_164917" data-name="Trazado 164917" d="M294.666,217.667l-3.333,1.667h-50V207.667l3.334,1.667L248,207.667l3.333,1.667,3.334-1.667L258,209.334l3.333-1.667,3.334,1.667L268,207.667l3.333,1.667,3.333-1.667L278,209.334l3.333-1.667,3.333,1.667L288,207.667l3.333,1.667,3.333-1.667Z" fill="#6cbae5"/>
    <path id="Trazado_164918" data-name="Trazado 164918" d="M294.666,281H241.333L243,269.333l-.835-10.018a125,125,0,0,1-.063-19.968l.9-11.68-1.667-10h53.333l-1.666,10,.9,11.68a125,125,0,0,1-.064,19.968L293,269.333Z" fill="#4799cf"/>
    <circle id="Elipse_5371" data-name="Elipse 5371" cx="18.333" cy="18.333" r="18.333" transform="translate(249.667 231)" fill="#428dc5"/>
    <ellipse id="Elipse_5372" data-name="Elipse 5372" cx="7.5" cy="8.333" rx="7.5" ry="8.333" transform="translate(256.333 241)" fill="#a45e14"/>
    <path id="Trazado_164919" data-name="Trazado 164919" d="M254.667,286H201.334L203,279.333V232.667L201.334,226h53.333L253,232.667v46.666Z" fill="#fbb540"/>
    <path id="Trazado_164920" data-name="Trazado 164920" d="M254.667,226H201.334v-8.333l3.333,1.667L208,217.667l3.334,1.667,3.333-1.667L218,219.334l3.334-1.667,3.333,1.667L228,217.667l3.333,1.667,3.334-1.667L238,219.334l3.333-1.667,3.334,1.667L248,217.667l3.333,1.667,3.334-1.667Z" fill="#ea9d2d"/>
    <path id="Trazado_164921" data-name="Trazado 164921" d="M254.667,286H201.334v8.333l3.333-1.666L208,294.333l3.334-1.666,3.333,1.666L218,292.667l3.334,1.666,3.333-1.666L228,294.333l3.333-1.666,3.334,1.666L238,292.667l3.333,1.666,3.334-1.666L248,294.333l3.333-1.666,3.334,1.666Z" fill="#ea9d2d"/>
    <circle id="Elipse_5373" data-name="Elipse 5373" cx="13.333" cy="13.333" r="13.333" transform="translate(214.667 241)" fill="#6b9777"/>
    <path id="Trazado_164922" data-name="Trazado 164922" d="M240.917,261H222.052a17.841,17.841,0,0,0-12.385,5V251.417A5.417,5.417,0,0,1,215.084,246h20.848a17.839,17.839,0,0,0,9.9-3l.5-.337v12.917A5.416,5.416,0,0,1,240.917,261Z" fill="#ea9d2d"/>
    <path id="Trazado_164923" data-name="Trazado 164923" d="M279.666,249.334a8.333,8.333,0,1,1-16.666,0Z" fill="#ea9d2d"/>
    <path id="Trazado_164924" data-name="Trazado 164924" d="M269.667,304.333,263,301H231.333L223,304.333v-30l8.333,3.334H263l6.667-3.334Z" fill="#dc4d41"/>
    <path id="Trazado_164925" data-name="Trazado 164925" d="M223,287.667h5V291h-5Z" fill="#b94137"/>
    <path id="Trazado_164926" data-name="Trazado 164926" d="M223,294.333h5v3.334h-5Z" fill="#b94137"/>
    <path id="Trazado_164927" data-name="Trazado 164927" d="M223,281h5v3.333h-5Z" fill="#b94137"/>
    <path id="Trazado_164928" data-name="Trazado 164928" d="M264.667,287.667h5V291h-5Z" fill="#b94137"/>
    <path id="Trazado_164929" data-name="Trazado 164929" d="M264.667,294.333h5v3.334h-5Z" fill="#b94137"/>
    <path id="Trazado_164930" data-name="Trazado 164930" d="M264.667,281h5v3.333h-5Z" fill="#b94137"/>
    <circle id="Elipse_5374" data-name="Elipse 5374" cx="6.667" cy="6.667" r="6.667" transform="translate(239.667 282.667)" fill="#fd9226"/>
    <path id="Trazado_164931" data-name="Trazado 164931" d="M296.327,217.8c0-.027.006-10.129.006-10.129a1.667,1.667,0,0,0-2.412-1.49l-2.588,1.294-2.588-1.294a1.665,1.665,0,0,0-1.491,0l-2.588,1.294-2.588-1.294a1.663,1.663,0,0,0-1.49,0L278,207.471l-2.588-1.294a1.665,1.665,0,0,0-1.491,0l-2.588,1.294-2.588-1.294a1.665,1.665,0,0,0-1.491,0l-2.587,1.294-2.588-1.294a1.665,1.665,0,0,0-1.491,0L258,207.471l-2.588-1.294a1.665,1.665,0,0,0-1.491,0l-2.588,1.294-2.588-1.294a1.663,1.663,0,0,0-1.49,0l-2.588,1.294-2.588-1.294a1.666,1.666,0,0,0-2.412,1.49v8.97l-1.667.834-2.588-1.294a1.665,1.665,0,0,0-1.491,0l-2.588,1.294-2.587-1.294a1.665,1.665,0,0,0-1.491,0l-2.588,1.294-2.588-1.294a1.665,1.665,0,0,0-1.491,0L218,217.471l-2.588-1.294a1.663,1.663,0,0,0-1.49,0l-2.588,1.294-2.588-1.294a1.665,1.665,0,0,0-1.491,0l-2.588,1.294-2.588-1.294a1.666,1.666,0,0,0-2.412,1.49s.048,8.729.05,8.738l1.617,6.467v46.256s-1.667,6.836-1.667,6.857v8.348a1.667,1.667,0,0,0,2.412,1.491l2.588-1.294,2.588,1.294a1.665,1.665,0,0,0,1.491,0l2.588-1.294,2.588,1.294a1.663,1.663,0,0,0,1.49,0L218,294.53l2.588,1.294a1.658,1.658,0,0,0,.744.176h0v8.334a1.667,1.667,0,0,0,2.285,1.547l8.035-3.214h30.952l6.315,3.157a1.666,1.666,0,0,0,2.412-1.491V291.2l2.588,1.294a1.671,1.671,0,0,0,1.491,0L278,291.2l2.588,1.294a1.669,1.669,0,0,0,1.49,0l2.588-1.294,2.588,1.294a1.671,1.671,0,0,0,1.491,0l2.588-1.294,2.588,1.294A1.667,1.667,0,0,0,296.333,291s-.015-10.226-.017-10.236l-1.64-11.48.82-9.831a127.13,127.13,0,0,0,.062-20.232l-.882-11.479s1.648-9.912,1.651-9.946Zm-24.994,61.537v-5a1.667,1.667,0,0,0-2.412-1.49L262.606,276h-7.939V264.235a20,20,0,1,0,0-29.8v-1.56l1.616-6.467.005-.024c.01-.041.045-7.047.045-7.047H292.7s-1.371,8.327-1.361,8.461l.9,11.681a123.635,123.635,0,0,1-.063,19.7s-.84,10.269-.823,10.393l1.395,9.764Zm-49.267-6.38a1.666,1.666,0,0,0-.732,1.38v10H203.468l1.149-4.6c.033-.133.05-47.071.05-47.071,0-.136-1.2-5-1.2-5h49.064s-1.2,4.864-1.2,5V276H231.655l-8.036-3.214A1.667,1.667,0,0,0,222.066,272.953Zm32.6-33.617a16.666,16.666,0,1,1,0,20Zm-10.746-28.511a1.671,1.671,0,0,0,1.491,0L248,209.531l2.588,1.294a1.671,1.671,0,0,0,1.491,0l2.588-1.294,2.588,1.294a1.669,1.669,0,0,0,1.49,0l2.588-1.294,2.588,1.294a1.671,1.671,0,0,0,1.491,0L268,209.531l2.588,1.294a1.671,1.671,0,0,0,1.491,0l2.587-1.294,2.588,1.294a1.671,1.671,0,0,0,1.491,0l2.588-1.294,2.588,1.294a1.671,1.671,0,0,0,1.491,0L288,209.531l2.588,1.294a1.669,1.669,0,0,0,1.49,0l.922-.461V216h-3.334v-3.334h-3.333V216H283v-3.334h-3.334V216h-3.333v-3.334H273V216h-3.333v-3.334h-3.334V216H263v-3.334h-3.333V216h-3.334v-3.334H253V216h-3.333v-3.334h-3.334V216H243v-5.637Zm-40,10a1.663,1.663,0,0,0,1.49,0L208,219.531l2.588,1.293a1.665,1.665,0,0,0,1.491,0l2.588-1.293,2.588,1.293a1.665,1.665,0,0,0,1.491,0l2.588-1.293,2.587,1.293a1.665,1.665,0,0,0,1.491,0L228,219.531l2.588,1.293a1.665,1.665,0,0,0,1.491,0l2.588-1.293,2.588,1.293a1.663,1.663,0,0,0,1.49,0l2.588-1.293,2.588,1.293a1.665,1.665,0,0,0,1.491,0L248,219.531l2.588,1.293a1.665,1.665,0,0,0,1.491,0l.921-.46v3.97H203v-3.97Zm14.824,70.352a1.665,1.665,0,0,0-1.491,0l-2.588,1.294-2.588-1.294a1.665,1.665,0,0,0-1.491,0L208,292.47l-2.588-1.294a1.663,1.663,0,0,0-1.49,0l-.922.461v-3.97h18.334v4.8Zm45,8.333a1.673,1.673,0,0,0-.745-.176H231.333a1.673,1.673,0,0,0-.618.119l-6.048,2.42v-4.205H228v-3.334h-3.333V291H228v-3.333h-3.333v-3.334H228V281h-3.333v-4.2l6.048,2.419a1.653,1.653,0,0,0,.618.119H263a1.659,1.659,0,0,0,.745-.176L268,277.03V281h-3.333v3.333H268v3.334h-3.333V291H268v3.333h-3.333v3.334H268v3.97ZM293,288.3l-.922-.46a1.663,1.663,0,0,0-1.49,0L288,289.137l-2.588-1.294a1.665,1.665,0,0,0-1.491,0l-2.588,1.294-2.588-1.294a1.665,1.665,0,0,0-1.491,0l-2.588,1.294-2.587-1.294a1.667,1.667,0,0,0-.746-.176v-5H273V286h3.333v-3.333h3.333V286H283v-3.333h3.333V286h3.333v-3.333H293Z"/>
    <path id="Trazado_164932" data-name="Trazado 164932" d="M263.833,259.334a8.556,8.556,0,0,0,3.584-.8,10,10,0,0,0,13.916-9.2,1.667,1.667,0,0,0-1.667-1.667h-6.8c-.729-4.723-4.5-8.333-9.037-8.333-5.054,0-9.166,4.486-9.166,10S258.779,259.334,263.833,259.334Zm7.5-3.334a6.675,6.675,0,0,1-6.455-5h12.911A6.677,6.677,0,0,1,271.333,256Zm-7.5-13.333a6.046,6.046,0,0,1,5.649,5H263a1.667,1.667,0,0,0-1.667,1.667A9.96,9.96,0,0,0,263.886,256l-.053,0c-3.216,0-5.833-2.99-5.833-6.666S260.617,242.667,263.833,242.667Z"/>
    <path id="Trazado_164933" data-name="Trazado 164933" d="M246.333,281a8.333,8.333,0,1,0,8.334,8.333A8.333,8.333,0,0,0,246.333,281Zm0,13.333a5,5,0,1,1,5-5A5,5,0,0,1,246.333,294.333Z"/>
    <path id="Trazado_164934" data-name="Trazado 164934" d="M240.474,262.667h.443A7.09,7.09,0,0,0,248,255.584V242.667a1.666,1.666,0,0,0-2.591-1.387l-.506.337a16.11,16.11,0,0,1-5.979,2.438,15,15,0,0,0-21.2-.647q-.471.444-.9.926h-1.735A7.091,7.091,0,0,0,208,251.417V266a1.667,1.667,0,0,0,2.824,1.2,16.134,16.134,0,0,1,5.478-3.478,15,15,0,0,0,24.172-1.055Zm-12.474-20a11.642,11.642,0,0,1,6.012,1.667H221.988A11.623,11.623,0,0,1,228,242.667Zm-16.666,8.75a3.754,3.754,0,0,1,3.75-3.75h20.848a19.451,19.451,0,0,0,8.735-2.062v9.979a3.755,3.755,0,0,1-3.75,3.75H222.052a19.4,19.4,0,0,0-10.718,3.2Zm8.648,11.385a16.282,16.282,0,0,1,2.07-.135H236.16A11.653,11.653,0,0,1,219.982,262.8Z"/>
  </g>
</svg>
