<svg xmlns="http://www.w3.org/2000/svg" width="93.686" height="86" viewBox="0 0 93.686 86">
  <g id="Grupo_103312" data-name="Grupo 103312" transform="translate(-5240.687 9367)">
    <g id="Grupo_102935" data-name="Grupo 102935" transform="translate(5031.529 -9579.999)">
      <g id="Grupo_102981" data-name="Grupo 102981">
        <g id="Grupo_102979" data-name="Grupo 102979">
          <path id="Trazado_163979" data-name="Trazado 163979" d="M248.315,224.547h15.37v11.162h-15.37Z" fill="#ffd15b"/>
          <path id="Trazado_163980" data-name="Trazado 163980" d="M245.021,264.986a2.745,2.745,0,0,1-2.744-2.745V240.1a4.391,4.391,0,0,1,4.391-4.392h1.1v26.532A2.745,2.745,0,0,1,245.021,264.986Z" fill="#ffcebf"/>
          <path id="Trazado_163981" data-name="Trazado 163981" d="M247.766,246.688h-5.489V240.1a4.391,4.391,0,0,1,4.391-4.392h1.1Z" fill="#5f99d7"/>
          <path id="Trazado_163982" data-name="Trazado 163982" d="M266.979,264.986a2.744,2.744,0,0,0,2.744-2.745V240.1a4.391,4.391,0,0,0-4.391-4.392h-1.1v26.532A2.745,2.745,0,0,0,266.979,264.986Z" fill="#ffcebf"/>
          <path id="Trazado_163983" data-name="Trazado 163983" d="M264.234,246.688h5.489V240.1a4.391,4.391,0,0,0-4.391-4.392h-1.1Z" fill="#3c87d0"/>
          <path id="Trazado_163984" data-name="Trazado 163984" d="M247.766,235.709h16.468v20.128H247.766Z" fill="#ee6161"/>
          <path id="Trazado_163985" data-name="Trazado 163985" d="M258.745,235.709h5.489v20.128h-5.489Z" fill="#e94444"/>
          <path id="Trazado_163986" data-name="Trazado 163986" d="M247.766,270.2h5.489v18.573h-5.489Z" fill="#ffcebf"/>
          <path id="Trazado_163987" data-name="Trazado 163987" d="M258.745,270.2h5.489v18.573h-5.489Z" fill="#ffcebf"/>
          <path id="Trazado_163988" data-name="Trazado 163988" d="M256,239.369a2.745,2.745,0,0,1-2.745-2.745v-6.4h5.49v6.4A2.745,2.745,0,0,1,256,239.369Z" fill="#ffb09e"/>
          <path id="Trazado_163989" data-name="Trazado 163989" d="M256,232.964a5.488,5.488,0,0,1-5.489-5.489v-2.928a5.489,5.489,0,0,1,10.978,0v2.928A5.488,5.488,0,0,1,256,232.964Z" fill="#ffcebf"/>
          <path id="Trazado_163990" data-name="Trazado 163990" d="M253.255,291.152h-5.489v-3.111a2.744,2.744,0,1,1,5.489,0Z" fill="#ee6161"/>
          <path id="Trazado_163991" data-name="Trazado 163991" d="M264.234,291.152h-5.489v-3.111a2.745,2.745,0,1,1,5.489,0Z" fill="#ee6161"/>
          <path id="Trazado_163992" data-name="Trazado 163992" d="M263.685,224.547h-15.37V224a7.137,7.137,0,0,1,7.137-7.137h1.1A7.137,7.137,0,0,1,263.685,224v.548Z" fill="#ffe177"/>
          <path id="Trazado_163993" data-name="Trazado 163993" d="M256.548,216.862h-1.1a7.151,7.151,0,0,0-2.2.346A7.139,7.139,0,0,1,258.2,224v.549h5.489V224A7.137,7.137,0,0,0,256.548,216.862Z" fill="#ffd15b"/>
          <path id="Trazado_163994" data-name="Trazado 163994" d="M247.766,255.837h16.468V270.2H247.766Z" fill="#5f99d7"/>
          <path id="Trazado_163995" data-name="Trazado 163995" d="M258.745,255.837h5.489V270.2h-5.489Z" fill="#3c87d0"/>
        </g>
        <path id="Trazado_163996" data-name="Trazado 163996" d="M213.275,265.606a2.745,2.745,0,0,1-2.745-2.745v-22.14a4.391,4.391,0,0,1,4.391-4.392h1.1v26.532A2.745,2.745,0,0,1,213.275,265.606Z" fill="#e8916f"/>
        <path id="Trazado_163997" data-name="Trazado 163997" d="M235.232,265.606a2.745,2.745,0,0,0,2.745-2.745v-22.14a4.392,4.392,0,0,0-4.392-4.392h-1.1v26.532A2.745,2.745,0,0,0,235.232,265.606Z" fill="#e8916f"/>
        <path id="Trazado_163998" data-name="Trazado 163998" d="M232.487,256.457H216.019V236.329h16.468Z" fill="#5f99d7"/>
        <path id="Trazado_163999" data-name="Trazado 163999" d="M227,236.329h5.489v20.128H227Z" fill="#3c87d0"/>
        <path id="Trazado_164000" data-name="Trazado 164000" d="M216.019,256.457v32.936h5.49v-24.7a2.744,2.744,0,1,1,5.489,0v24.7h5.489V256.457Z" fill="#7a6d79"/>
        <path id="Trazado_164001" data-name="Trazado 164001" d="M224.253,239.989A2.745,2.745,0,0,0,227,237.244v-6.4h-5.489v6.4A2.744,2.744,0,0,0,224.253,239.989Z" fill="#d78878"/>
        <path id="Trazado_164002" data-name="Trazado 164002" d="M224.253,233.458a5.49,5.49,0,0,0,5.49-5.49v-2.927a5.489,5.489,0,1,0-10.979,0v2.927A5.49,5.49,0,0,0,224.253,233.458Z" fill="#e8916f"/>
        <path id="Trazado_164003" data-name="Trazado 164003" d="M227,291.772h5.489v-3.111a2.744,2.744,0,0,0-5.489,0Z" fill="#9b5e5e"/>
        <path id="Trazado_164004" data-name="Trazado 164004" d="M216.019,291.772h5.49v-3.111a2.745,2.745,0,0,0-5.49,0Z" fill="#9b5e5e"/>
        <path id="Trazado_164005" data-name="Trazado 164005" d="M276.768,265.606a2.745,2.745,0,0,1-2.745-2.745v-22.14a4.392,4.392,0,0,1,4.392-4.392h1.1v26.532A2.745,2.745,0,0,1,276.768,265.606Z" fill="#fed2a4"/>
        <path id="Trazado_164006" data-name="Trazado 164006" d="M298.725,265.606a2.745,2.745,0,0,0,2.745-2.745v-22.14a4.391,4.391,0,0,0-4.391-4.392h-1.1v26.532A2.745,2.745,0,0,0,298.725,265.606Z" fill="#fed2a4"/>
        <path id="Trazado_164007" data-name="Trazado 164007" d="M295.981,256.457H279.513V236.329h16.468Z" fill="#5f99d7"/>
        <path id="Trazado_164008" data-name="Trazado 164008" d="M290.491,236.329h5.49v20.128h-5.49Z" fill="#3c87d0"/>
        <path id="Trazado_164009" data-name="Trazado 164009" d="M279.513,256.457v32.936H285v-24.7a2.744,2.744,0,1,1,5.489,0v24.7h5.49V256.457Z" fill="#7a6d79"/>
        <path id="Trazado_164010" data-name="Trazado 164010" d="M287.747,239.989a2.744,2.744,0,0,0,2.744-2.745v-6.4H285v6.4A2.745,2.745,0,0,0,287.747,239.989Z" fill="#ffbd86"/>
        <path id="Trazado_164011" data-name="Trazado 164011" d="M287.747,233.458a5.489,5.489,0,0,0,5.489-5.49v-2.927a5.49,5.49,0,1,0-10.979,0v2.927A5.49,5.49,0,0,0,287.747,233.458Z" fill="#fed2a4"/>
        <g id="Grupo_102980" data-name="Grupo 102980">
          <path id="Trazado_164012" data-name="Trazado 164012" d="M290.491,291.772h5.49v-3.111a2.745,2.745,0,0,0-5.49,0Z" fill="#9b5e5e"/>
          <path id="Trazado_164013" data-name="Trazado 164013" d="M279.513,291.772H285v-3.111a2.745,2.745,0,0,0-5.489,0Z" fill="#9b5e5e"/>
          <path id="Trazado_164014" data-name="Trazado 164014" d="M229.749,225.351H218.757a5.5,5.5,0,0,1-5.482-5.483v-.013a5.5,5.5,0,0,1,5.482-5.483h10.992a5.5,5.5,0,0,1,5.483,5.483v.013A5.5,5.5,0,0,1,229.749,225.351Z" fill="#9b5e5e"/>
        </g>
        <path id="Trazado_164015" data-name="Trazado 164015" d="M229.749,214.372H224.26a5.5,5.5,0,0,1,5.482,5.482v.014a5.5,5.5,0,0,1-5.482,5.483h5.489a5.5,5.5,0,0,0,5.483-5.483v-.014A5.5,5.5,0,0,0,229.749,214.372Z" fill="#855151"/>
        <path id="Trazado_164016" data-name="Trazado 164016" d="M293.782,224.7H281.711a1.649,1.649,0,0,1-1.65-1.649v-.919a5.117,5.117,0,0,1,5.117-5.117h5.137a5.117,5.117,0,0,1,5.117,5.117v.919A1.65,1.65,0,0,1,293.782,224.7Z" fill="#9b5e5e"/>
        <path id="Trazado_164017" data-name="Trazado 164017" d="M290.315,217.012h-5.137c-.059,0-.117,0-.176.005a5.115,5.115,0,0,1,4.94,5.112v.919a1.649,1.649,0,0,1-1.649,1.649h5.489a1.65,1.65,0,0,0,1.65-1.649v-.919A5.117,5.117,0,0,0,290.315,217.012Z" fill="#855151"/>
        <path id="Trazado_164018" data-name="Trazado 164018" d="M298.542,297.627H213.458a2.928,2.928,0,1,1,0-5.855h85.084a2.928,2.928,0,1,1,0,5.855Z" fill="#7a6d79"/>
        <path id="Trazado_164019" data-name="Trazado 164019" d="M298.542,291.772h-5.489a2.928,2.928,0,1,1,0,5.855h5.489a2.928,2.928,0,1,0,0-5.855Z" fill="#685e68"/>
      </g>
      <g id="Grupo_102982" data-name="Grupo 102982">
        <path id="Trazado_164020" data-name="Trazado 164020" d="M301.47,247.97a1.373,1.373,0,0,0,1.372-1.373v-5.876a5.77,5.77,0,0,0-5.763-5.764h-5.215v-1.5a6.857,6.857,0,0,0,2.744-5.486v-2.014a3.027,3.027,0,0,0,2.2-2.907v-.919a6.5,6.5,0,0,0-6.489-6.489h-5.137a6.5,6.5,0,0,0-6.489,6.489v.919a3.027,3.027,0,0,0,2.2,2.907v2.014a6.855,6.855,0,0,0,2.745,5.486v1.5h-5.215a5.771,5.771,0,0,0-5.764,5.764v22.14a4.138,4.138,0,0,0,5.489,3.882V290.4H265.606V266.123a4.139,4.139,0,0,0,5.49-3.882V240.1a5.77,5.77,0,0,0-5.764-5.764h-.275V224a8.518,8.518,0,0,0-8.509-8.509h-1.1A8.518,8.518,0,0,0,246.943,224v10.338h-.275A5.77,5.77,0,0,0,240.9,240.1v22.14a4.139,4.139,0,0,0,5.49,3.882V290.4H233.86V266.743a4.138,4.138,0,0,0,5.489-3.882v-22.14a5.77,5.77,0,0,0-5.764-5.764H228.37v-1.5a6.855,6.855,0,0,0,2.745-5.486v-1.383A6.867,6.867,0,0,0,229.75,213H218.757a6.867,6.867,0,0,0-1.365,13.587v1.383a6.857,6.857,0,0,0,2.744,5.486v1.5h-5.215a5.77,5.77,0,0,0-5.763,5.764v22.14a4.138,4.138,0,0,0,5.489,3.882v6.419a1.373,1.373,0,0,0,2.745,0V257.829h13.723v26.95a4.155,4.155,0,0,0-2.745,0V264.691a4.078,4.078,0,0,0-1.205-2.908,4.126,4.126,0,0,0-7.029,2.908v20.088a4.152,4.152,0,0,0-2.744,0v-5.124a1.373,1.373,0,0,0-2.745,0V290.4h-1.189a4.3,4.3,0,0,0,0,8.6h55.9a1.372,1.372,0,0,0,0-2.744h-55.9a1.556,1.556,0,0,1,0-3.111h85.084a1.556,1.556,0,0,1,0,3.111H275.719a1.372,1.372,0,0,0,0,2.744h22.823a4.3,4.3,0,0,0,0-8.6h-1.189V266.743a4.138,4.138,0,0,0,5.489-3.882v-9.7a1.372,1.372,0,0,0-2.744,0v9.7a1.373,1.373,0,0,1-2.745,0V237.714a3.024,3.024,0,0,1,2.745,3.007V246.6a1.373,1.373,0,0,0,1.372,1.373Zm-6.862,36.809a4.152,4.152,0,0,0-2.744,0V264.691a4.079,4.079,0,0,0-1.205-2.908,4.126,4.126,0,0,0-7.029,2.908v20.088a4.155,4.155,0,0,0-2.745,0v-26.95h13.723Zm-8.234-20.088a1.376,1.376,0,0,1,2.344-.967,1.354,1.354,0,0,1,.4.967V290.4h-2.745Zm8.234-9.606H280.885V237.7h2.77a4.12,4.12,0,0,0,8.183,0h2.77v17.383Zm-4.765-23.573c-.026.013-.05.028-.075.043a4.149,4.149,0,0,1-4.043,0c-.024-.015-.049-.03-.074-.043a4.12,4.12,0,0,1-2.021-3.543v-1.9h8.234v1.9A4.12,4.12,0,0,1,289.843,231.512Zm-8.409-9.383a3.748,3.748,0,0,1,3.744-3.744h5.137a3.748,3.748,0,0,1,3.745,3.744v.919a.278.278,0,0,1-.278.277H281.711a.277.277,0,0,1-.277-.277v-.919Zm6.313,12.7a6.886,6.886,0,0,0,1.372-.138v2.551a1.373,1.373,0,0,1-2.745,0v-2.551a6.9,6.9,0,0,0,1.373.138Zm-10.979,29.4a1.374,1.374,0,0,1-1.372-1.373v-22.14a3.024,3.024,0,0,1,2.744-3.007v25.147A1.374,1.374,0,0,1,276.768,264.234Zm-24.885,19.925a4.155,4.155,0,0,0-2.745,0V271.573h2.745Zm-2.745,3.882a1.373,1.373,0,0,1,2.745,0v1.738h-2.745Zm0-19.213V257.209h13.724v11.619Zm10.979-42.908v1.555a4.117,4.117,0,0,1-8.234,0V225.92Zm-10.979,11.161h2.77a4.12,4.12,0,0,0,8.184,0h2.77v17.383H249.138V237.081Zm8.234-.457a1.372,1.372,0,0,1-2.744,0V234.2a6.871,6.871,0,0,0,2.744,0Zm2.745-2.287v-1.375a6.9,6.9,0,0,0,2.2-2.806v4.181Zm-10.43-4.18a6.883,6.883,0,0,0,2.2,2.805v1.375h-2.2Zm10.43,57.884a1.373,1.373,0,0,1,2.745,0v1.738h-2.745Zm1.372-4.117a4.1,4.1,0,0,0-1.372.235V271.573h2.745v12.586A4.111,4.111,0,0,0,261.489,283.924Zm5.49-20.311a1.374,1.374,0,0,1-1.373-1.372V248.06h2.745v14.181A1.373,1.373,0,0,1,266.979,263.613Zm1.372-23.512v5.214h-2.745v-8.221A3.023,3.023,0,0,1,268.351,240.1Zm-12.9-21.866h1.1a5.774,5.774,0,0,1,5.706,4.94H249.746a5.774,5.774,0,0,1,5.706-4.94Zm-9.058,18.859v8.222h-2.745V240.1A3.023,3.023,0,0,1,246.394,237.094Zm-1.373,26.519a1.374,1.374,0,0,1-1.372-1.372V248.06h2.745v14.181A1.374,1.374,0,0,1,245.021,263.613Zm9.607,7.959h2.744V290.4h-2.744ZM236.6,240.721v22.14a1.372,1.372,0,0,1-2.744,0V237.714A3.024,3.024,0,0,1,236.6,240.721Zm-10.255-9.209c-.025.013-.05.028-.074.043a4.149,4.149,0,0,1-4.043,0c-.024-.015-.049-.03-.074-.043a4.121,4.121,0,0,1-2.022-3.543v-1.246h8.234v1.246A4.12,4.12,0,0,1,226.349,231.512Zm-11.7-11.657a4.115,4.115,0,0,1,4.11-4.111h10.992a4.117,4.117,0,0,1,0,8.234H218.757A4.118,4.118,0,0,1,214.647,219.855Zm9.606,14.976a6.9,6.9,0,0,0,1.373-.138v2.551a1.373,1.373,0,0,1-2.745,0v-2.551a6.886,6.886,0,0,0,1.372.138Zm-10.978,29.4a1.375,1.375,0,0,1-1.373-1.373v-22.14a3.024,3.024,0,0,1,2.745-3.007v25.147A1.374,1.374,0,0,1,213.275,264.234Zm4.117-9.149V237.7h2.77a4.12,4.12,0,0,0,8.183,0h2.77v17.383Zm5.489,9.606a1.376,1.376,0,0,1,2.343-.967,1.355,1.355,0,0,1,.4.967V290.4h-2.745ZM217.392,290.4v-1.738a1.372,1.372,0,0,1,2.744,0V290.4Zm10.978,0v-1.738a1.373,1.373,0,0,1,2.745,0V290.4Zm52.515,0v-1.738a1.373,1.373,0,0,1,2.745,0V290.4Zm10.979,0v-1.738a1.372,1.372,0,0,1,2.744,0V290.4Z"/>
      </g>
    </g>
  </g>
</svg>
