<svg xmlns="http://www.w3.org/2000/svg" width="117.702" height="69.587" viewBox="0 0 117.702 69.587">
  <g id="Grupo_103467" data-name="Grupo 103467" transform="translate(-206 -226.439)">
    <path id="Trazado_165008" data-name="Trazado 165008" d="M280.227,263.006H266.434a4.936,4.936,0,0,1-4.928-4.66l-1.55-27.759a2.544,2.544,0,0,1,2.926-2.654,70.187,70.187,0,0,0,20.9,0,2.544,2.544,0,0,1,2.926,2.654l-1.55,27.759a4.937,4.937,0,0,1-4.928,4.66Z" transform="translate(9.551 0.259)" fill="#aad880"/>
    <path id="Trazado_165009" data-name="Trazado 165009" d="M283.528,227.933q-.713.106-1.427.2l-1.476,26.4a4.935,4.935,0,0,1-4.927,4.66H261.9a4.951,4.951,0,0,1-.532-.031,4.932,4.932,0,0,0,4.809,3.848h13.794a4.935,4.935,0,0,0,4.927-4.66l1.551-27.759a2.544,2.544,0,0,0-2.926-2.654Z" transform="translate(9.802 0.259)" fill="#80bc93"/>
    <path id="Trazado_165010" data-name="Trazado 165010" d="M249.59,263.006H235.8a4.935,4.935,0,0,1-4.927-4.66l-1.551-27.759a2.545,2.545,0,0,1,2.926-2.654,70.187,70.187,0,0,0,20.9,0,2.545,2.545,0,0,1,2.927,2.654l-1.551,27.759a4.937,4.937,0,0,1-4.928,4.66Z" transform="translate(4.127 0.259)" fill="#aad880"/>
    <path id="Trazado_165011" data-name="Trazado 165011" d="M252.891,227.933q-.713.106-1.427.2l-1.475,26.4a4.936,4.936,0,0,1-4.928,4.66H231.268a4.967,4.967,0,0,1-.532-.031,4.932,4.932,0,0,0,4.809,3.848h13.794a4.936,4.936,0,0,0,4.928-4.66l1.55-27.759a2.544,2.544,0,0,0-2.926-2.654Z" transform="translate(4.379 0.259)" fill="#80bc93"/>
    <path id="Trazado_165012" data-name="Trazado 165012" d="M274.436,267.114h-5.264a.6.6,0,0,1-.6-.6v-8.788h6.463v8.788A.6.6,0,0,1,274.436,267.114Z" transform="translate(11.077 5.539)" fill="#365e7d"/>
    <path id="Trazado_165013" data-name="Trazado 165013" d="M268.573,257.727h6.463v3.649h-6.463Z" transform="translate(11.077 5.539)" fill="#2b4d66"/>
    <path id="Trazado_165014" data-name="Trazado 165014" d="M243.8,267.114h-5.262a.6.6,0,0,1-.6-.6v-8.788H244.4v8.788A.6.6,0,0,1,243.8,267.114Z" transform="translate(5.653 5.539)" fill="#365e7d"/>
    <path id="Trazado_165015" data-name="Trazado 165015" d="M237.936,257.727H244.4v3.649h-6.463Z" transform="translate(5.653 5.539)" fill="#2b4d66"/>
    <path id="Trazado_165016" data-name="Trazado 165016" d="M321.718,258.979H207.465v-3.385a4.383,4.383,0,0,1,4.383-4.383H317.335a4.383,4.383,0,0,1,4.383,4.383Z" transform="translate(0.259 4.385)" fill="#ecb780"/>
    <path id="Trazado_165017" data-name="Trazado 165017" d="M301.77,251.211h-6.379a4.384,4.384,0,0,1,4.383,4.383v3.385h6.379v-3.385A4.383,4.383,0,0,0,301.77,251.211Z" transform="translate(15.824 4.385)" fill="#e29375"/>
    <path id="Trazado_165018" data-name="Trazado 165018" d="M228.411,277.336h-5.264a.6.6,0,0,1-.6-.6v-8.786h6.463v8.786A.6.6,0,0,1,228.411,277.336Z" transform="translate(2.929 7.348)" fill="#365e7d"/>
    <path id="Trazado_165019" data-name="Trazado 165019" d="M222.547,267.949h6.463V271.6h-6.463Z" transform="translate(2.929 7.348)" fill="#2b4d66"/>
    <path id="Trazado_165020" data-name="Trazado 165020" d="M234.2,273.228H220.408a4.935,4.935,0,0,1-4.927-4.66L213.93,240.81a2.545,2.545,0,0,1,2.926-2.655,70.187,70.187,0,0,0,20.9,0,2.545,2.545,0,0,1,2.926,2.655l-1.551,27.759A4.935,4.935,0,0,1,234.2,273.228Z" transform="translate(1.403 2.069)" fill="#b3e59f"/>
    <path id="Trazado_165021" data-name="Trazado 165021" d="M237.5,238.154c-.476.072-.951.137-1.427.2l-1.475,26.4a4.935,4.935,0,0,1-4.928,4.66H215.879a4.952,4.952,0,0,1-.532-.031,4.931,4.931,0,0,0,4.809,3.848H233.95a4.935,4.935,0,0,0,4.928-4.66l1.55-27.759a2.545,2.545,0,0,0-2.926-2.654Z" transform="translate(1.655 2.069)" fill="#95d6a4"/>
    <path id="Trazado_165022" data-name="Trazado 165022" d="M259.118,277.336h-5.264a.6.6,0,0,1-.6-.6v-8.786h6.462v8.786A.6.6,0,0,1,259.118,277.336Z" transform="translate(8.365 7.348)" fill="#365e7d"/>
    <path id="Trazado_165023" data-name="Trazado 165023" d="M253.255,267.949h6.462V271.6h-6.462Z" transform="translate(8.365 7.348)" fill="#2b4d66"/>
    <path id="Trazado_165024" data-name="Trazado 165024" d="M264.909,273.228H251.115a4.936,4.936,0,0,1-4.927-4.66l-1.55-27.759a2.545,2.545,0,0,1,2.926-2.655,70.187,70.187,0,0,0,20.9,0,2.546,2.546,0,0,1,2.926,2.655l-1.551,27.759A4.936,4.936,0,0,1,264.909,273.228Z" transform="translate(6.839 2.069)" fill="#b3e59f"/>
    <path id="Trazado_165025" data-name="Trazado 165025" d="M268.209,238.154c-.476.072-.951.137-1.427.2l-1.475,26.4a4.934,4.934,0,0,1-4.927,4.66H246.587a4.974,4.974,0,0,1-.533-.031,4.933,4.933,0,0,0,4.811,3.848h13.793a4.934,4.934,0,0,0,4.927-4.66l1.551-27.759a2.546,2.546,0,0,0-2.927-2.654Z" transform="translate(7.09 2.069)" fill="#95d6a4"/>
    <path id="Trazado_165026" data-name="Trazado 165026" d="M289.825,277.336h-5.264a.6.6,0,0,1-.6-.6v-8.786h6.463v8.786A.6.6,0,0,1,289.825,277.336Z" transform="translate(13.801 7.348)" fill="#365e7d"/>
    <path id="Trazado_165027" data-name="Trazado 165027" d="M283.962,267.949h6.463V271.6h-6.463Z" transform="translate(13.801 7.348)" fill="#2b4d66"/>
    <path id="Trazado_165028" data-name="Trazado 165028" d="M295.616,273.228H281.823a4.936,4.936,0,0,1-4.928-4.66l-1.55-27.759a2.545,2.545,0,0,1,2.926-2.655,70.187,70.187,0,0,0,20.9,0,2.545,2.545,0,0,1,2.926,2.655l-1.55,27.759A4.937,4.937,0,0,1,295.616,273.228Z" transform="translate(12.275 2.069)" fill="#b3e59f"/>
    <path id="Trazado_165029" data-name="Trazado 165029" d="M298.917,238.154c-.477.072-.951.137-1.428.2l-1.475,26.4a4.934,4.934,0,0,1-4.927,4.66H277.294a4.935,4.935,0,0,1-.532-.031,4.931,4.931,0,0,0,4.809,3.848h13.794a4.934,4.934,0,0,0,4.927-4.66l1.551-27.759a2.546,2.546,0,0,0-2.926-2.654Z" transform="translate(12.526 2.069)" fill="#95d6a4"/>
    <path id="Trazado_165030" data-name="Trazado 165030" d="M317.595,253.872h-2.113l.609-10.9a4.27,4.27,0,0,0-4.9-4.456,68.7,68.7,0,0,1-13.671.67l.46-8.245a4.269,4.269,0,0,0-4.9-4.455,68.811,68.811,0,0,1-12.575.719,1.724,1.724,0,0,0-.121,3.446,72.248,72.248,0,0,0,13.207-.756.822.822,0,0,1,.686.206.805.805,0,0,1,.264.647l-.457,8.176q-1.642-.166-3.278-.408a4.27,4.27,0,0,0-4.9,4.456l.609,10.9h-7.167l.609-10.9a4.27,4.27,0,0,0-4.9-4.456q-1.676.251-3.359.417l-.458-8.184a.805.805,0,0,1,.264-.647.827.827,0,0,1,.686-.206c.379.057.759.109,1.138.16a1.724,1.724,0,1,0,.458-3.418c-.361-.048-.724-.1-1.085-.152a4.268,4.268,0,0,0-4.9,4.455l.46,8.249q-3.392.168-6.788,0l.46-8.249a4.268,4.268,0,0,0-4.9-4.455,69.216,69.216,0,0,1-9.984.762,1.724,1.724,0,0,0,0,3.447h.006a72.6,72.6,0,0,0,10.484-.8.815.815,0,0,1,.685.207.8.8,0,0,1,.265.646l-.458,8.184q-1.683-.168-3.359-.417a4.27,4.27,0,0,0-4.9,4.456l.609,10.9H243.2l.609-10.9a4.27,4.27,0,0,0-4.9-4.456q-1.635.245-3.277.408l-.458-8.176a.805.805,0,0,1,.264-.647.823.823,0,0,1,.686-.206c1.266.189,2.566.348,3.862.472a1.724,1.724,0,1,0,.328-3.432c-1.236-.118-2.473-.27-3.679-.45a4.269,4.269,0,0,0-4.9,4.455l.461,8.245a68.872,68.872,0,0,1-13.671-.669,4.268,4.268,0,0,0-4.9,4.455l.61,10.9h-2.113A6.115,6.115,0,0,0,206,259.979v3.385a1.724,1.724,0,0,0,1.724,1.724h7.122l.315,5.644a6.663,6.663,0,0,0,6.649,6.289h1.941v7.063a2.327,2.327,0,0,0,2.325,2.323h.907v3.564a32.153,32.153,0,0,0-7.465,1.317,1.725,1.725,0,0,0-1.23,1.651V294.3a1.724,1.724,0,0,0,3.449,0v-.049a27.955,27.955,0,0,1,13.939,0v.049a1.724,1.724,0,1,0,3.449,0v-1.361a1.725,1.725,0,0,0-1.23-1.651,32.152,32.152,0,0,0-7.465-1.317v-3.564h.907a2.327,2.327,0,0,0,2.325-2.323v-7.063H235.6a6.665,6.665,0,0,0,6.305-4.52,2.326,2.326,0,0,0,2.279,1.875h.907v3.564a32.163,32.163,0,0,0-7.465,1.317,1.724,1.724,0,0,0-1.229,1.653v1.361a1.724,1.724,0,0,0,3.449,0v-.051a27.951,27.951,0,0,1,13.938,0v.051a1.724,1.724,0,0,0,3.449,0V280.91a1.725,1.725,0,0,0-1.229-1.653,32.164,32.164,0,0,0-7.465-1.317v-3.564h.908a2.325,2.325,0,0,0,2.245-1.734,6.666,6.666,0,0,0,6.257,4.379h1.941v7.063a2.327,2.327,0,0,0,2.325,2.323h.908v3.563a32.218,32.218,0,0,0-7.465,1.318,1.725,1.725,0,0,0-1.23,1.651V294.3a1.724,1.724,0,0,0,3.449,0v-.049a27.955,27.955,0,0,1,13.939,0v.049a1.724,1.724,0,1,0,3.448,0v-1.361a1.723,1.723,0,0,0-1.229-1.651,32.218,32.218,0,0,0-7.465-1.318v-3.563h.907a2.326,2.326,0,0,0,2.323-2.323v-7.063h1.942A6.666,6.666,0,0,0,278,272.643a2.325,2.325,0,0,0,2.245,1.734h.909v3.564a32.174,32.174,0,0,0-7.466,1.317,1.725,1.725,0,0,0-1.229,1.653v1.361a1.724,1.724,0,0,0,3.449,0v-.051a27.955,27.955,0,0,1,13.939,0v.051a1.724,1.724,0,0,0,3.447,0V280.91a1.725,1.725,0,0,0-1.229-1.653,32.152,32.152,0,0,0-7.465-1.317v-3.564h.907a2.326,2.326,0,0,0,2.279-1.875,6.665,6.665,0,0,0,6.305,4.52h1.942v7.063a2.326,2.326,0,0,0,2.323,2.323h.907v3.564a32.153,32.153,0,0,0-7.465,1.317,1.725,1.725,0,0,0-1.23,1.651V294.3a1.724,1.724,0,1,0,3.449,0v-.049a27.955,27.955,0,0,1,13.939,0v.049a1.724,1.724,0,0,0,3.449,0v-1.361a1.725,1.725,0,0,0-1.23-1.651,32.153,32.153,0,0,0-7.465-1.317v-3.564h.907a2.326,2.326,0,0,0,2.323-2.323v-7.063h1.942a6.629,6.629,0,0,0,3.752-1.163,1.724,1.724,0,0,0-1.946-2.847,3.194,3.194,0,0,1-1.807.561H294.1a3.212,3.212,0,0,1-3.206-3.032l-1.551-27.759a.8.8,0,0,1,.264-.646.826.826,0,0,1,.686-.207,72.183,72.183,0,0,0,21.408,0,.815.815,0,0,1,.686.207.8.8,0,0,1,.264.646l-1.387,24.82a1.724,1.724,0,0,0,3.443.192l.151-2.7h7.123a1.725,1.725,0,0,0,1.724-1.724v-3.385a6.115,6.115,0,0,0-6.108-6.108ZM302.5,277.02v5.939h-3.014V277.02Zm-18.113-6.092h-3.014v-5.839h3.014Zm2.31-13.608.241,4.32H278.9l.241-4.32Zm-38.371,13.608h-3.014v-5.839h3.014Zm2.228-13.608.241,4.32h-8.035l.241-4.32Zm-41.107,4.32v-1.661a2.661,2.661,0,0,1,2.659-2.659h2.3l.242,4.32Zm20.766,21.319H227.2V277.02h3.014v5.939Zm5.39-9.387H221.811a3.213,3.213,0,0,1-3.206-3.032l-1.551-27.759a.8.8,0,0,1,.265-.646.821.821,0,0,1,.554-.217.855.855,0,0,1,.131.009,72.231,72.231,0,0,0,21.409,0,.815.815,0,0,1,.685.207.8.8,0,0,1,.264.646l-1.55,27.759A3.213,3.213,0,0,1,235.6,273.573Zm30.753,9.387h-3.013V277.02h3.013Zm5.39-9.387H257.954a3.212,3.212,0,0,1-3.205-3.032L253.2,242.782a.8.8,0,0,1,.264-.646.821.821,0,0,1,.554-.217.87.87,0,0,1,.132.009,72.26,72.26,0,0,0,21.408,0,.816.816,0,0,1,.686.207.8.8,0,0,1,.264.646l-1.551,27.759a3.212,3.212,0,0,1-3.206,3.032Zm48.506-11.933h-5.206l.242-4.32H317.6a2.661,2.661,0,0,1,2.658,2.659Z" transform="translate(0)"/>
  </g>
</svg>
