<svg xmlns="http://www.w3.org/2000/svg" width="117" height="117" viewBox="0 0 117 117">
  <g id="Grupo_102803" data-name="Grupo 102803" transform="translate(-197.5 -197.5)">
    <g id="BULINE">
      <path id="Trazado_163524" data-name="Trazado 163524" d="M314.5,256a58.5,58.5,0,1,1-17.134-41.366A58.321,58.321,0,0,1,314.5,256Z" fill="#ffb74d"/>
    </g>
    <g id="Icons">
      <g id="Grupo_102802" data-name="Grupo 102802">
        <g id="Grupo_102800" data-name="Grupo 102800">
          <path id="Trazado_163525" data-name="Trazado 163525" d="M223.9,292.126h-2.217a1.676,1.676,0,0,1-1.676-1.676v-2.191h5.569v2.191a1.676,1.676,0,0,1-1.676,1.676Z" fill="#27273d"/>
          <path id="Trazado_163526" data-name="Trazado 163526" d="M249.231,292.126h-2.218a1.676,1.676,0,0,1-1.676-1.676v-2.191h5.57v2.191a1.676,1.676,0,0,1-1.676,1.676Z" fill="#27273d"/>
          <path id="Trazado_163527" data-name="Trazado 163527" d="M226.176,253.067a1.142,1.142,0,0,1-1.143-1.142v-9.846a1.142,1.142,0,1,1,2.285,0v9.846A1.142,1.142,0,0,1,226.176,253.067Z" fill="#fff"/>
          <path id="Trazado_163528" data-name="Trazado 163528" d="M242.629,253.067a1.142,1.142,0,0,1-1.143-1.142v-9.846a1.143,1.143,0,1,1,2.285,0v9.846A1.142,1.142,0,0,1,242.629,253.067Z" fill="#fff"/>
          <path id="Trazado_163529" data-name="Trazado 163529" d="M224.662,244.877h2.685a1.685,1.685,0,0,0,1.685-1.685v-.867H239.6v.867a1.687,1.687,0,0,0,1.685,1.685h2.685a1.687,1.687,0,0,0,1.686-1.685v-5.561a1.361,1.361,0,0,0-1.362-1.361H224.338a1.359,1.359,0,0,0-1.361,1.361v5.561a1.685,1.685,0,0,0,1.685,1.685Z" fill="#c4336f"/>
          <path id="Trazado_163530" data-name="Trazado 163530" d="M245.657,241.134v2.057a1.688,1.688,0,0,1-1.684,1.686h-2.686a1.688,1.688,0,0,1-1.686-1.686v-.867H229.032v.867a1.687,1.687,0,0,1-1.684,1.686h-2.685a1.687,1.687,0,0,1-1.686-1.686v-2.057a1.685,1.685,0,0,0,1.686,1.686h2.685a1.685,1.685,0,0,0,1.684-1.686v-.866H239.6v.866a1.687,1.687,0,0,0,1.686,1.686h2.686a1.687,1.687,0,0,0,1.684-1.686Z" fill="#ad2d68"/>
          <path id="Trazado_163531" data-name="Trazado 163531" d="M256.615,288.935H213.789a3.609,3.609,0,0,1-3.609-3.609V254.934a3.609,3.609,0,0,1,3.609-3.609h42.826a3.611,3.611,0,0,1,3.61,3.609v30.392a3.611,3.611,0,0,1-3.61,3.609Z" fill="#32314b"/>
          <path id="Trazado_163532" data-name="Trazado 163532" d="M220.533,285.379h-1.055a2.443,2.443,0,0,1-2.443-2.443V257.324a2.443,2.443,0,0,1,2.443-2.443h1.055a2.443,2.443,0,0,1,2.443,2.443v25.612a2.443,2.443,0,0,1-2.443,2.443Z" fill="#27273d"/>
          <path id="Trazado_163533" data-name="Trazado 163533" d="M221.4,285.222a2.307,2.307,0,0,1-.418.118,2.505,2.505,0,0,1-.445.04h-1.056a2.445,2.445,0,0,1-2.443-2.445v-25.61a2.445,2.445,0,0,1,2.443-2.445h1.056a2.505,2.505,0,0,1,.445.04,2.389,2.389,0,0,1,.418.117,2.448,2.448,0,0,0-1.576,2.288v25.61a2.446,2.446,0,0,0,1.576,2.287Z" fill="#1f1f30"/>
          <g id="Grupo_102799" data-name="Grupo 102799">
            <path id="Trazado_163534" data-name="Trazado 163534" d="M230.512,285.379h-1.055a2.445,2.445,0,0,1-2.444-2.443V257.324a2.445,2.445,0,0,1,2.444-2.443h1.055a2.445,2.445,0,0,1,2.443,2.443v25.612a2.445,2.445,0,0,1-2.443,2.443Z" fill="#27273d"/>
            <path id="Trazado_163535" data-name="Trazado 163535" d="M240.49,285.379h-1.055a2.445,2.445,0,0,1-2.443-2.443V257.324a2.445,2.445,0,0,1,2.443-2.443h1.055a2.443,2.443,0,0,1,2.443,2.443v25.612a2.443,2.443,0,0,1-2.443,2.443Z" fill="#27273d"/>
            <path id="Trazado_163536" data-name="Trazado 163536" d="M250.469,285.379h-1.056a2.445,2.445,0,0,1-2.443-2.443V257.324a2.445,2.445,0,0,1,2.443-2.443h1.056a2.445,2.445,0,0,1,2.443,2.443v25.612a2.445,2.445,0,0,1-2.443,2.443Z" fill="#27273d"/>
          </g>
          <path id="Trazado_163537" data-name="Trazado 163537" d="M231.376,285.222a2.354,2.354,0,0,1-.418.118,2.525,2.525,0,0,1-.446.04h-1.055a2.443,2.443,0,0,1-2.443-2.445v-25.61a2.443,2.443,0,0,1,2.443-2.445h1.055a2.525,2.525,0,0,1,.446.04,2.438,2.438,0,0,1,.418.117,2.447,2.447,0,0,0-1.577,2.288v25.61a2.445,2.445,0,0,0,1.577,2.287Z" fill="#1f1f30"/>
          <path id="Trazado_163538" data-name="Trazado 163538" d="M241.354,285.222a2.308,2.308,0,0,1-.418.118,2.505,2.505,0,0,1-.445.04h-1.056a2.445,2.445,0,0,1-2.443-2.445v-25.61a2.445,2.445,0,0,1,2.443-2.445h1.056a2.505,2.505,0,0,1,.445.04,2.389,2.389,0,0,1,.418.117,2.448,2.448,0,0,0-1.576,2.288v25.61a2.446,2.446,0,0,0,1.576,2.287Z" fill="#1f1f30"/>
          <path id="Trazado_163539" data-name="Trazado 163539" d="M251.333,285.222a2.353,2.353,0,0,1-.418.118,2.525,2.525,0,0,1-.446.04h-1.056a2.443,2.443,0,0,1-2.442-2.445v-25.61a2.443,2.443,0,0,1,2.442-2.445h1.056a2.525,2.525,0,0,1,.446.04,2.438,2.438,0,0,1,.418.117,2.447,2.447,0,0,0-1.577,2.288v25.61a2.445,2.445,0,0,0,1.577,2.287Z" fill="#1f1f30"/>
          <path id="Trazado_163540" data-name="Trazado 163540" d="M258.282,258.3a8.36,8.36,0,0,1-.524,3.077c-.324.787-.772,1.274-1.266,1.274s-.941-.487-1.266-1.274a9.293,9.293,0,0,1,0-6.153c.324-.787.772-1.274,1.266-1.274s.942.487,1.266,1.274A8.358,8.358,0,0,1,258.282,258.3Z" fill="#464666"/>
          <path id="Trazado_163541" data-name="Trazado 163541" d="M258.282,263.366a5.479,5.479,0,0,1-.524,2.454,1.3,1.3,0,0,1-2.532,0,6.006,6.006,0,0,1,0-4.907,1.3,1.3,0,0,1,2.532,0A5.478,5.478,0,0,1,258.282,263.366Z" fill="#515172"/>
        </g>
        <g id="Grupo_102801" data-name="Grupo 102801">
          <path id="Trazado_163542" data-name="Trazado 163542" d="M273.593,232.274a1.143,1.143,0,0,1-1.143-1.143V211.993a1.142,1.142,0,1,1,2.285,0v19.138A1.142,1.142,0,0,1,273.593,232.274Z" fill="#fff"/>
          <path id="Trazado_163543" data-name="Trazado 163543" d="M290.046,232.274a1.143,1.143,0,0,1-1.143-1.143V211.993a1.142,1.142,0,1,1,2.285,0v19.138A1.142,1.142,0,0,1,290.046,232.274Z" fill="#fff"/>
          <path id="Trazado_163544" data-name="Trazado 163544" d="M297.482,288.259H266.157a3.191,3.191,0,0,1-3.19-3.19v-52.8a3.191,3.191,0,0,1,3.19-3.191h31.325a3.192,3.192,0,0,1,3.19,3.191v52.8a3.192,3.192,0,0,1-3.19,3.19Z" fill="#cd45fe"/>
          <path id="Trazado_163545" data-name="Trazado 163545" d="M270.051,292.126h-2.218a1.676,1.676,0,0,1-1.676-1.676v-2.191h5.569v2.191a1.675,1.675,0,0,1-1.675,1.676Z" fill="#27273d"/>
          <path id="Trazado_163546" data-name="Trazado 163546" d="M295.382,292.126h-2.218a1.676,1.676,0,0,1-1.675-1.676v-2.191h5.569v2.191a1.676,1.676,0,0,1-1.676,1.676Z" fill="#27273d"/>
          <path id="Trazado_163547" data-name="Trazado 163547" d="M270.394,281.386a3.2,3.2,0,0,1-3.2-3.2V238.882a3.2,3.2,0,1,1,6.4,0v39.305a3.2,3.2,0,0,1-3.2,3.2Z" fill="#9233c4"/>
          <path id="Trazado_163548" data-name="Trazado 163548" d="M271.611,281.147a3.193,3.193,0,0,1-.587.178,3.276,3.276,0,0,1-.63.061,3.2,3.2,0,0,1-3.2-3.2v-39.3a3.2,3.2,0,0,1,4.417-2.96,3.2,3.2,0,0,0-1.981,2.96v39.3a3.181,3.181,0,0,0,.555,1.8,3.217,3.217,0,0,0,1.426,1.16Z" fill="#7b2dad"/>
          <path id="Trazado_163549" data-name="Trazado 163549" d="M281.819,281.386a3.2,3.2,0,0,1-3.2-3.2V238.882a3.2,3.2,0,0,1,6.4,0v39.305a3.2,3.2,0,0,1-3.2,3.2Z" fill="#9233c4"/>
          <path id="Trazado_163550" data-name="Trazado 163550" d="M293.245,281.386a3.2,3.2,0,0,1-3.2-3.2V238.882a3.2,3.2,0,0,1,6.4,0v39.305a3.2,3.2,0,0,1-3.2,3.2Z" fill="#9233c4"/>
          <path id="Trazado_163551" data-name="Trazado 163551" d="M286.808,234.787H276.64a1.009,1.009,0,0,1-1.01-1.009V232.14a1.011,1.011,0,0,1,1.01-1.009h10.168a1.011,1.011,0,0,1,1.01,1.009v1.638a1.009,1.009,0,0,1-1.01,1.009Z" fill="#fff"/>
          <path id="Trazado_163552" data-name="Trazado 163552" d="M272.079,214.791h2.685a1.685,1.685,0,0,0,1.685-1.685v-.867h10.569v.867a1.687,1.687,0,0,0,1.685,1.685h2.685a1.687,1.687,0,0,0,1.686-1.685v-5.561a1.361,1.361,0,0,0-1.362-1.361H271.755a1.359,1.359,0,0,0-1.361,1.361v5.561a1.685,1.685,0,0,0,1.685,1.685Z" fill="#27273d"/>
          <path id="Trazado_163553" data-name="Trazado 163553" d="M283.037,281.147a3.216,3.216,0,0,1-.587.178,3.279,3.279,0,0,1-.631.061,3.2,3.2,0,0,1-3.2-3.2v-39.3a3.2,3.2,0,0,1,4.417-2.96,3.2,3.2,0,0,0-1.981,2.96v39.3a3.2,3.2,0,0,0,1.981,2.96Z" fill="#7b2dad"/>
          <path id="Trazado_163554" data-name="Trazado 163554" d="M294.463,281.147a3.217,3.217,0,0,1-.587.178,3.279,3.279,0,0,1-.631.061,3.2,3.2,0,0,1-3.2-3.2v-39.3a3.2,3.2,0,0,1,4.417-2.96,3.2,3.2,0,0,0-1.981,2.96v39.3a3.181,3.181,0,0,0,.554,1.8,3.214,3.214,0,0,0,1.427,1.16Z" fill="#7b2dad"/>
          <path id="Trazado_163555" data-name="Trazado 163555" d="M293.225,231.131a6.121,6.121,0,0,1,2.247.383c.575.237.931.564.931.925s-.356.688-.931.925a6.786,6.786,0,0,1-4.495,0c-.575-.237-.931-.564-.931-.925s.356-.688.931-.925A6.123,6.123,0,0,1,293.225,231.131Z" fill="#ce68fc"/>
          <path id="Trazado_163556" data-name="Trazado 163556" d="M296.922,231.131a4.016,4.016,0,0,1,1.793.383.948.948,0,0,1,0,1.85,4.388,4.388,0,0,1-3.586,0,.948.948,0,0,1,0-1.85A4.016,4.016,0,0,1,296.922,231.131Z" fill="#d68ff9"/>
        </g>
        <path id="Trazado_163557" data-name="Trazado 163557" d="M308.936,292.126v.041h-6.954a58.517,58.517,0,0,1-91.964,0l-.017-.02-.017-.021h98.952Z" fill="#a04830"/>
        <path id="Trazado_163558" data-name="Trazado 163558" d="M301.982,292.167a58.805,58.805,0,0,1-8.3,8.581H218.318a58.8,58.8,0,0,1-8.3-8.581h91.964Z" fill="#8c3f2d"/>
      </g>
    </g>
  </g>
</svg>
