<svg xmlns="http://www.w3.org/2000/svg" width="100" height="100" viewBox="0 0 100 100">
  <g id="Grupo_103475" data-name="Grupo 103475" transform="translate(-316.165 -2333)">
    <g id="Grupo_103435" data-name="Grupo 103435" transform="translate(128.165 2145)">
      <path id="Trazado_151973" data-name="Trazado 151973" d="M302.839,290.581v4.838a8.065,8.065,0,1,1-16.129,0v-4.838Z" transform="translate(-16.452 -17.097)" fill="#969faa"/>
      <path id="Trazado_151974" data-name="Trazado 151974" d="M294.774,275.1a8.041,8.041,0,0,1,8.065,8.064V288H286.71v-4.839A8.068,8.068,0,0,1,294.774,275.1Z" transform="translate(-16.452 -14.516)" fill="#ccd1d9"/>
      <path id="Trazado_151975" data-name="Trazado 151975" d="M251.226,283.807H196.387a6.45,6.45,0,0,1-6.452-6.452V269.29h67.742v8.065A6.45,6.45,0,0,1,251.226,283.807Z" transform="translate(-0.322 -13.548)" fill="#838f9b"/>
      <path id="Trazado_151976" data-name="Trazado 151976" d="M265.419,223.484v37.1h-6.452v-37.1H240.419l-4.033-1.612v-4.839h22.581A6.45,6.45,0,0,1,265.419,223.484Z" transform="translate(-8.064 -4.839)" fill="#aab2bd"/>
      <path id="Trazado_151977" data-name="Trazado 151977" d="M218.967,217.032v4.839l-4.033,1.612H196.387v37.1h-6.452v-37.1a6.45,6.45,0,0,1,6.452-6.452Z" transform="translate(-0.322 -4.839)" fill="#aab2bd"/>
      <path id="Trazado_151978" data-name="Trazado 151978" d="M233.968,224.774h18.548v37.1H197.677v-37.1h18.548l-4.032,1.613v3.226H238v-3.226Z" transform="translate(-1.613 -6.129)" fill="#69d6f4"/>
      <path id="Trazado_151979" data-name="Trazado 151979" d="M220.9,256.065V239.936l1.613-1.613h25.806a1.618,1.618,0,0,1,1.613,1.613v16.129a1.618,1.618,0,0,1-1.613,1.612H222.516Z" transform="translate(-5.484 -8.387)" fill="#ffeaa7"/>
      <path id="Trazado_151980" data-name="Trazado 151980" d="M218.322,239.936v16.129l-1.613,1.612h-9.678a1.618,1.618,0,0,1-1.613-1.612V239.936a1.618,1.618,0,0,1,1.613-1.613h9.678Z" transform="translate(-2.903 -8.387)" fill="#e6e9ed"/>
      <g id="Grupo_94955" data-name="Grupo 94955" transform="translate(202.516 199.29)">
        <path id="Trazado_151981" data-name="Trazado 151981" d="M223.161,222.839l3.226,6.452H215.1v-3.226Z" transform="translate(-207.032 -205.096)" fill="#fcd770"/>
        <path id="Trazado_151982" data-name="Trazado 151982" d="M243.807,226.065v3.226H232.516l3.226-6.452Z" transform="translate(-209.935 -205.096)" fill="#fcd770"/>
        <path id="Trazado_151983" data-name="Trazado 151983" d="M252.516,204.774V208H236.387v-6.452Z" transform="translate(-210.58 -201.548)" fill="#fcd770"/>
        <path id="Trazado_151984" data-name="Trazado 151984" d="M221.548,201.548V208H205.419v-3.226Z" transform="translate(-205.419 -201.548)" fill="#fcd770"/>
      </g>
      <path id="Trazado_151985" data-name="Trazado 151985" d="M234.451,212.516v4.839l-3.226,6.452H228l-3.226-6.452V194.774a4.839,4.839,0,0,1,9.677,0Z" transform="translate(-6.129 -0.322)" fill="#e6e9ed"/>
      <path id="Trazado_151986" data-name="Trazado 151986" d="M279.936,259.112v-.145a4.845,4.845,0,0,0-4.839-4.838H258.967V218.645a8.073,8.073,0,0,0-8.064-8.064H229.936v-3.226h16.128v-6.161l-16.128-3.226v-3.517a6.452,6.452,0,1,0-12.9,0v3.517L200.9,201.194v6.161h16.129v3.226H196.064A8.074,8.074,0,0,0,188,218.645v45.162a8.074,8.074,0,0,0,8.064,8.064H250.9a8.073,8.073,0,0,0,8.064-8.064v-3.226h-3.226v3.226a4.844,4.844,0,0,1-4.838,4.838H196.064a4.844,4.844,0,0,1-4.838-4.838v-6.452H275.1a1.615,1.615,0,0,1,1.613,1.612v.145a9.684,9.684,0,0,0-8.065,9.533v9.677a9.678,9.678,0,1,0,19.355,0v-9.677A9.687,9.687,0,0,0,279.936,259.112ZM250.9,213.807a4.844,4.844,0,0,1,4.838,4.838v35.484h-3.226v-37.1h-19.85l-2.73-1.092v-2.134Zm-16.129,7.543v.521h-7.068l1.4-2.79Zm8.064-17.512v.291h-12.9v-2.871Zm-22.58-9.387a3.226,3.226,0,1,1,6.452,0v22.2l-2.61,5.219h-1.232l-2.61-5.219Zm-8.065,26.9,5.673-2.269,1.394,2.79h-7.067Zm-8.064-17.221v-.291l12.9-2.58v2.871Zm-12.9,50V218.645a4.844,4.844,0,0,1,4.838-4.838h20.968v2.134l-2.731,1.092h-19.85v37.1Zm6.452-33.871h11.29V225.1H238v-4.838h11.29v33.871H197.677Zm80.645,41.935a6.458,6.458,0,0,1,6.452,6.452v3.226h-4.838v-6.452H276.71v6.452h-4.839v-3.226A6.458,6.458,0,0,1,278.322,262.193Zm0,22.581a6.458,6.458,0,0,1-6.452-6.452V275.1h12.9v3.226A6.458,6.458,0,0,1,278.322,284.774Z" transform="translate(0 0)"/>
      <path id="Trazado_151987" data-name="Trazado 151987" d="M261.548,277.032h3.226v3.226h-3.226Z" transform="translate(-12.258 -14.839)"/>
      <path id="Trazado_151988" data-name="Trazado 151988" d="M253.806,277.032h3.226v3.226h-3.226Z" transform="translate(-10.968 -14.839)"/>
      <path id="Trazado_151989" data-name="Trazado 151989" d="M245.419,236.387H218.945l-.945.945-.945-.945H206.71a3.229,3.229,0,0,0-3.226,3.226v16.129a3.229,3.229,0,0,0,3.226,3.226h10.345l.945-.945.945.945h26.474a3.229,3.229,0,0,0,3.226-3.226V239.613A3.229,3.229,0,0,0,245.419,236.387ZM206.71,255.742V239.613h9.009l.668.668v14.793l-.668.668Zm13.571,0-.667-.668V240.28l.667-.668h25.138l0,16.129Z" transform="translate(-2.581 -8.064)"/>
      <path id="Trazado_151990" data-name="Trazado 151990" d="M211.226,244.129h3.226v9.678h-3.226Z" transform="translate(-3.871 -9.355)"/>
      <path id="Trazado_151991" data-name="Trazado 151991" d="M226.71,244.129h19.354v3.226H226.71Z" transform="translate(-6.452 -9.355)"/>
      <path id="Trazado_151992" data-name="Trazado 151992" d="M226.71,251.871h19.354V255.1H226.71Z" transform="translate(-6.452 -10.645)"/>
    </g>
  </g>
</svg>
