<svg xmlns="http://www.w3.org/2000/svg" width="76.434" height="86" viewBox="0 0 76.434 86">
  <g id="Grupo_103313" data-name="Grupo 103313" transform="translate(-5243 9226)">
    <g id="Grupo_102934" data-name="Grupo 102934" transform="translate(5025.217 -9439)">
      <path id="Trazado_163963" data-name="Trazado 163963" d="M271.581,236.123a18.919,18.919,0,0,1-4.729,6.113H242.033a11.59,11.59,0,0,1-5.223-5.759c-1.176-2.738-1.662-6.6-.062-11.881,4.052-13.382,31.2-13.586,35.456-1.723A16.546,16.546,0,0,1,271.581,236.123Z" fill="#f9a13e"/>
      <g id="Grupo_102975" data-name="Grupo 102975">
        <path id="Trazado_163964" data-name="Trazado 163964" d="M271.581,236.123a18.919,18.919,0,0,1-4.729,6.113h-6.623a7.321,7.321,0,0,1,11.352-6.113Z" fill="#e2780e"/>
        <path id="Trazado_163965" data-name="Trazado 163965" d="M248.654,242.236h-6.621a11.6,11.6,0,0,1-5.224-5.759,7.322,7.322,0,0,1,11.845,5.759Z" fill="#e2780e"/>
      </g>
      <path id="Trazado_163966" data-name="Trazado 163966" d="M270.864,276.459v14.62h-32.71v-14.62a16.355,16.355,0,1,1,32.71,0Z" fill="#d2e3f1"/>
      <path id="Trazado_163967" data-name="Trazado 163967" d="M266.217,265.039l-5.965,5.605-5.742-5.605-5.742,5.605-5.964-5.605a16.351,16.351,0,0,1,23.271-.145Z" fill="#5a9bcc"/>
      <g id="Grupo_102976" data-name="Grupo 102976">
        <path id="Trazado_163968" data-name="Trazado 163968" d="M254.509,265.039h0a3.622,3.622,0,0,1-3.622-3.622v-6.248h7.245v6.248A3.623,3.623,0,0,1,254.509,265.039Z" fill="#fcce99"/>
        <circle id="Elipse_5310" data-name="Elipse 5310" cx="4.816" cy="4.816" r="4.816" transform="translate(262.737 237.42)" fill="#fcce99"/>
        <circle id="Elipse_5311" data-name="Elipse 5311" cx="4.816" cy="4.816" r="4.816" transform="translate(236.514 237.42)" fill="#fcce99"/>
      </g>
      <path id="Trazado_163969" data-name="Trazado 163969" d="M267.554,229.383l-.544,6.514-.082.971-.841,10.074q-.045.548-.14,1.077a11.686,11.686,0,0,1-22.992.1,11.3,11.3,0,0,1-.158-1.175l-.881-10.564-.05-.6-.535-6.4Z" fill="#fee6cc"/>
      <g id="Grupo_102977" data-name="Grupo 102977">
        <path id="Trazado_163970" data-name="Trazado 163970" d="M242.329,241.333l.467,5.609a11.571,11.571,0,0,0,.159,1.175,7.965,7.965,0,0,0,11.425-2.734,7.966,7.966,0,0,0,11.567,2.636q.095-.529.14-1.077l.468-5.609Z" fill="#fcce99"/>
        <path id="Trazado_163971" data-name="Trazado 163971" d="M267.553,229.384l-.624,7.483a32.9,32.9,0,0,1-6.1.566,35.393,35.393,0,0,1-15.049-3.427,16.012,16.012,0,0,1-3.868,2.373l-.584-6.995Z" fill="#fcce99"/>
      </g>
      <path id="Trazado_163972" data-name="Trazado 163972" d="M265.12,225.635c4.055,3.066,11.152,4.539,11.152,4.539a31.17,31.17,0,0,1-31.021.1,12.475,12.475,0,0,1-5.467,3.672v-8.311Z" fill="#f9a13e"/>
      <g id="Grupo_102978" data-name="Grupo 102978">
        <circle id="Elipse_5312" data-name="Elipse 5312" cx="5.468" cy="5.468" r="5.468" transform="translate(241.945 236.04)" fill="#fff4eb"/>
        <circle id="Elipse_5313" data-name="Elipse 5313" cx="5.468" cy="5.468" r="5.468" transform="translate(255.879 236.04)" fill="#fff4eb"/>
      </g>
      <rect id="Rect치ngulo_26075" data-name="Rect치ngulo 26075" width="39.729" height="7.707" transform="translate(234.563 283.371)" fill="#5a9bcc"/>
      <rect id="Rect치ngulo_26076" data-name="Rect치ngulo 26076" width="73.925" height="4.536" transform="translate(219.038 290.577)" fill="#e8a96b"/>
      <path id="Trazado_163973" data-name="Trazado 163973" d="M274.291,285.593H234.562V265.814a1.728,1.728,0,0,1,1.728-1.728h36.273a1.728,1.728,0,0,1,1.728,1.728v19.779Z" fill="#a5c6e3"/>
      <circle id="Elipse_5314" data-name="Elipse 5314" cx="3.455" cy="3.455" r="3.455" transform="translate(250.987 272.138)" fill="#fce790"/>
      <path id="Trazado_163974" data-name="Trazado 163974" d="M248.224,242.738a1.253,1.253,0,0,0,1.254-1.253v-.258a1.254,1.254,0,1,0-2.507,0v.258A1.253,1.253,0,0,0,248.224,242.738Z"/>
      <path id="Trazado_163975" data-name="Trazado 163975" d="M260.629,242.738a1.253,1.253,0,0,0,1.253-1.253v-.258a1.253,1.253,0,1,0-2.507,0v.258A1.253,1.253,0,0,0,260.629,242.738Z"/>
      <path id="Trazado_163976" data-name="Trazado 163976" d="M258.289,250.045a1.253,1.253,0,1,0-1.523-1.991,3.924,3.924,0,0,1-4.262,0,1.253,1.253,0,1,0-1.523,1.991,6.4,6.4,0,0,0,7.308,0Z"/>
      <path id="Trazado_163977" data-name="Trazado 163977" d="M292.963,289.324h-12.81v-1.495a1.253,1.253,0,0,0-1.253-1.254h-3.357V272.786a1.254,1.254,0,0,0-2.507,0V284.34h-37.22V265.813a.474.474,0,0,1,.474-.473h36.273a.474.474,0,0,1,.474.473v2.318a1.254,1.254,0,0,0,2.507,0v-2.318a2.984,2.984,0,0,0-2.981-2.98h-6.9a17.615,17.615,0,0,0-6.277-3.3v-1.609a12.931,12.931,0,0,0,7.787-9.636c.127.007.254.014.382.014a6.066,6.066,0,0,0,4.4-10.24,18.589,18.589,0,0,0,2.157-5.37q1.379-.633,2.781-1.435a1.253,1.253,0,0,0-.369-2.314c-.023-.005-.811-.172-1.991-.5a19.073,19.073,0,0,0-1.152-6c-2.045-5.7-9.091-9.408-17.951-9.448a27.317,27.317,0,0,0-11.845,2.508,14.79,14.79,0,0,0-7.8,8.021,1.254,1.254,0,1,0,2.352.868c2.281-6.184,10.32-8.918,17.286-8.89a23.611,23.611,0,0,1,9.891,2.072,10.559,10.559,0,0,1,5.711,5.716,16.889,16.889,0,0,1,.958,4.356,23.082,23.082,0,0,1-6.1-3.017,1.254,1.254,0,1,0-1.513,2,28.449,28.449,0,0,0,8.42,3.917l-.226.1c-.028.011-.055.023-.083.036a29.44,29.44,0,0,1-5.4,1.775,1.248,1.248,0,0,0-.306.068,30.318,30.318,0,0,1-20.845-3.313,1.259,1.259,0,0,0-1.667.288,11.38,11.38,0,0,1-4.884,3.255,1.253,1.253,0,1,0,.817,2.37c.119-.041.234-.084.349-.127l.1,1.2a6.025,6.025,0,0,0-2.226.708,13.3,13.3,0,0,1-1.273-8.319,1.254,1.254,0,0,0-2.486-.333,15.521,15.521,0,0,0,1.829,10.322,6.066,6.066,0,0,0,4.845,9.722,1.27,1.27,0,0,0,.373-.056,12.94,12.94,0,0,0,7.929,9.734v1.554a17.615,17.615,0,0,0-6.274,3.3H236.29a2.984,2.984,0,0,0-2.981,2.981v23.51H219.037a1.255,1.255,0,0,0-1.254,1.254v4.536a1.254,1.254,0,0,0,1.254,1.254h6.3a1.254,1.254,0,1,0,0-2.507h-5.049v-2.029h57.355v2.029H229.995a1.254,1.254,0,0,0,0,2.507h47.651v1.379a1.254,1.254,0,0,0,2.507,0v-1.379h12.81a1.254,1.254,0,0,0,1.254-1.254v-4.536A1.255,1.255,0,0,0,292.963,289.324Zm-33.791-26.491a5,5,0,0,0,.157-.687,15.079,15.079,0,0,1,1.691.687ZM265.71,236.4a6.776,6.776,0,0,0-1.461-.956c.512-.056,1.031-.125,1.558-.21Zm-4.364.892a4.215,4.215,0,1,1-4.214,4.214A4.22,4.22,0,0,1,261.346,237.293Zm6.208,8.506c-.038,0-.075,0-.113,0l.151-1.808a6.7,6.7,0,0,0,.326-3.891l.115-1.387a3.561,3.561,0,0,1-.479,7.09Zm2.336-9.165a6.05,6.05,0,0,0-1.648-.428l.125-1.493q1.377-.339,2.8-.831A16.536,16.536,0,0,1,269.89,236.634ZM245.5,231.859a33.317,33.317,0,0,0,12.772,3.677,6.737,6.737,0,0,0-3.524,4.718h-.728a6.716,6.716,0,0,0-10.851-3.951l-.206-2.477A14.116,14.116,0,0,0,245.5,231.859Zm-2.3,9.648a4.215,4.215,0,1,1,4.214,4.215A4.22,4.22,0,0,1,243.2,241.507Zm-5.432.73a3.567,3.567,0,0,1,3.083-3.528l.085,1.012a6.7,6.7,0,0,0,.386,4.621l.122,1.463a1.037,1.037,0,0,0-.112-.006A3.567,3.567,0,0,1,237.767,242.237Zm6.336,5.117a6.715,6.715,0,0,0,9.913-4.593h.728a6.717,6.717,0,0,0,10.047,4.516,10.431,10.431,0,0,1-20.688.077Zm10.339,11.556a12.98,12.98,0,0,0,2.435-.23v1.8h0v.931a2.376,2.376,0,0,1-.473,1.417h-3.79a2.352,2.352,0,0,1-.474-1.417V258.7A12.968,12.968,0,0,0,254.442,258.91Zm-4.754,3.237a4.7,4.7,0,0,0,.154.686H248A14.875,14.875,0,0,1,249.688,262.147Zm-13.872,24.7h37.22v2.477h-3.469v-.381a1.253,1.253,0,1,0-2.507,0v.381h-.5v-.381a1.254,1.254,0,1,0-2.507,0v.381H235.816Zm39.727,2.477v-.242h2.1v.242Zm16.166,4.537H280.153v-2.03h11.556Z"/>
      <path id="Trazado_163978" data-name="Trazado 163978" d="M249.734,275.591a4.709,4.709,0,1,0,4.708-4.708A4.714,4.714,0,0,0,249.734,275.591Zm6.909,0a2.2,2.2,0,1,1-2.2-2.2A2.2,2.2,0,0,1,256.643,275.591Z"/>
    </g>
  </g>
</svg>
