<svg xmlns="http://www.w3.org/2000/svg" width="300.491" height="274" viewBox="0 0 300.491 274">
  <g id="Grupo_103317" data-name="Grupo 103317" transform="translate(-1060.165 -1075)">
    <g id="Grupo_103002" data-name="Grupo 103002" transform="translate(523.911 941)">
      <g id="Grupo_103187" data-name="Grupo 103187">
        <g id="Grupo_103186" data-name="Grupo 103186">
          <circle id="Elipse_5316" data-name="Elipse 5316" cx="65.982" cy="65.982" r="65.982" transform="translate(596.201 271) rotate(-45)" fill="#8c6df2"/>
          <path id="Trazado_164213" data-name="Trazado 164213" d="M805.073,304.1h0c-20.209-14.682-20.209-41.478,0-56.16h0a31.228,31.228,0,0,0-31.023-53.8c-22.876,9.686-51.1-7.083-53.452-31.856h0a31.224,31.224,0,0,0-62.081-.811c-3.081,24.68-36.644,43.336-59.262,33.02a31.228,31.228,0,0,0-30.1,54.6c20.938,13.448,22.542,40.3,3.325,56.155A31.227,31.227,0,0,0,607.223,356.8c21.947-11.468,47.11.844,51.511,25.24a31.227,31.227,0,0,0,61.56,0c4.4-24.4,29.564-36.709,51.511-25.242a31.226,31.226,0,0,0,33.268-52.7ZM704.428,349.339a31.264,31.264,0,0,0-29.828,0c-21.947,11.467-47.11-.845-51.511-25.241a31.242,31.242,0,0,0-14.114-21.148c-20.94-13.448-22.545-40.3-3.327-56.156a31.177,31.177,0,0,0,11.168-20.361c3.081-24.679,36.642-43.335,59.26-33.021a31.285,31.285,0,0,0,26.107.355c22.876-9.688,51.105,7.082,53.453,31.855h0a31.19,31.19,0,0,0,12.731,22.314h0c20.209,14.682,20.209,41.478,0,56.16h0a31.221,31.221,0,0,0-12.427,20C751.539,348.495,726.376,360.807,704.428,349.339Z" fill="#8c6df2"/>
        </g>
        <path id="Trazado_164214" data-name="Trazado 164214" d="M686.269,380.073h-.1a.615.615,0,1,1,0-1.231h.1c1.327,0,2.666-.022,3.981-.067h.022a.616.616,0,0,1,.02,1.232C688.962,380.051,687.609,380.073,686.269,380.073Zm-4.2-.074h-.022c-1.358-.047-2.743-.118-4.116-.214a.616.616,0,0,1,.086-1.228c1.358.094,2.728.165,4.072.211a.616.616,0,0,1-.02,1.231Zm12.293-.2a.615.615,0,0,1-.041-1.229c1.347-.093,2.714-.208,4.065-.346a.616.616,0,0,1,.124,1.225c-1.364.139-2.745.256-4.106.349Zm-20.474-.368-.064,0c-1.366-.142-2.742-.31-4.091-.5a.616.616,0,1,1,.171-1.22c1.334.186,2.7.352,4.047.493a.616.616,0,0,1-.063,1.228Zm28.63-.468a.615.615,0,0,1-.084-1.225c1.341-.185,2.7-.4,4.031-.627a.616.616,0,1,1,.21,1.214c-1.348.233-2.718.446-4.072.633A.615.615,0,0,1,702.522,378.964Zm-36.748-.664a.555.555,0,0,1-.107-.01c-1.35-.236-2.712-.5-4.047-.782a.616.616,0,0,1,.255-1.2c1.322.281,2.669.541,4,.775a.616.616,0,0,1-.105,1.222Zm44.825-.737a.616.616,0,0,1-.126-1.219c1.315-.276,2.653-.582,3.977-.908a.616.616,0,0,1,.295,1.2c-1.338.33-2.69.638-4.018.917A.626.626,0,0,1,710.6,377.563Zm-52.846-.961a.641.641,0,0,1-.15-.018c-1.331-.332-2.67-.69-3.981-1.066a.615.615,0,0,1,.339-1.183c1.3.371,2.623.726,3.94,1.053a.616.616,0,0,1-.148,1.214Zm60.808-1.005a.616.616,0,0,1-.169-1.209c1.3-.37,2.613-.769,3.9-1.185a.616.616,0,0,1,.379,1.172c-1.3.421-2.63.824-3.944,1.2A.578.578,0,0,1,718.561,375.6Zm-68.691-1.254a.6.6,0,0,1-.19-.031c-1.3-.423-2.613-.875-3.9-1.343a.616.616,0,0,1,.423-1.158c1.27.464,2.567.911,3.855,1.33a.616.616,0,0,1-.191,1.2Zm76.491-1.27a.616.616,0,0,1-.211-1.2c1.272-.461,2.553-.953,3.808-1.461a.616.616,0,1,1,.462,1.142c-1.269.513-2.564,1.01-3.849,1.476A.6.6,0,0,1,726.361,373.073Zm-84.192-1.542a.611.611,0,0,1-.232-.046c-1.261-.511-2.536-1.056-3.791-1.619a.615.615,0,1,1,.5-1.123c1.242.556,2.5,1.1,3.751,1.6a.616.616,0,0,1-.231,1.187ZM733.963,370a.616.616,0,0,1-.251-1.179c1.248-.558,2.494-1.141,3.705-1.734a.615.615,0,1,1,.542,1.1c-1.223.6-2.483,1.191-3.745,1.754A.623.623,0,0,1,733.963,370Zm-99.277-1.825a.615.615,0,0,1-.271-.064c-1.229-.605-2.463-1.24-3.665-1.886a.616.616,0,0,1,.583-1.085c1.19.64,2.41,1.268,3.626,1.866a.616.616,0,0,1-.273,1.169Zm106.662-1.8a.616.616,0,0,1-.292-1.159c1.194-.64,2.395-1.311,3.569-1.995a.616.616,0,0,1,.62,1.064c-1.187.692-2.4,1.37-3.607,2.017A.609.609,0,0,1,741.348,366.38ZM627.475,364.3a.61.61,0,0,1-.31-.084c-1.186-.694-2.368-1.414-3.511-2.14a.615.615,0,1,1,.66-1.039c1.131.718,2.3,1.43,3.472,2.115a.616.616,0,0,1-.311,1.148Zm120.974-2.061a.616.616,0,0,1-.33-1.136c1.147-.725,2.295-1.482,3.414-2.248a.616.616,0,0,1,.7,1.016c-1.131.775-2.292,1.54-3.451,2.273A.618.618,0,0,1,748.449,362.238Zm-127.88-2.32a.615.615,0,0,1-.348-.108c-1.132-.776-2.258-1.58-3.348-2.389a.615.615,0,1,1,.734-.988c1.077.8,2.192,1.594,3.311,2.361a.616.616,0,0,1-.349,1.124ZM755.228,357.6a.616.616,0,0,1-.367-1.111c1.089-.806,2.179-1.644,3.239-2.49a.616.616,0,0,1,.768.963c-1.072.855-2.173,1.7-3.275,2.517A.613.613,0,0,1,755.228,357.6ZM614,355.046a.613.613,0,0,1-.384-.134c-1.071-.856-2.136-1.74-3.166-2.628a.616.616,0,1,1,.8-.933c1.019.878,2.072,1.752,3.132,2.6a.615.615,0,0,1-.386,1.1Zm147.65-2.576a.616.616,0,0,1-.4-1.082c1.029-.885,2.054-1.8,3.047-2.721a.616.616,0,0,1,.836.9c-1,.93-2.039,1.855-3.078,2.75A.617.617,0,0,1,761.647,352.47ZM607.8,349.7a.619.619,0,0,1-.42-.164c-1.005-.933-2-1.894-2.964-2.855a.616.616,0,1,1,.87-.871c.952.951,1.938,1.9,2.933,2.823a.616.616,0,0,1-.419,1.067Zm159.87-2.815a.616.616,0,0,1-.435-1.052c.963-.96,1.916-1.949,2.833-2.937a.616.616,0,0,1,.9.838c-.928,1-1.892,2-2.866,2.971A.614.614,0,0,1,767.667,346.888Zm-165.662-2.972a.615.615,0,0,1-.451-.2c-.931-1-1.855-2.036-2.746-3.07a.616.616,0,0,1,.934-.8c.881,1.023,1.794,2.045,2.714,3.036a.615.615,0,0,1-.451,1.034Zm171.249-3.042a.614.614,0,0,1-.467-1.017c.884-1.026,1.76-2.083,2.6-3.141a.616.616,0,0,1,.963.768c-.853,1.07-1.739,2.139-2.633,3.177A.615.615,0,0,1,773.254,340.874ZM596.661,337.71a.611.611,0,0,1-.481-.232c-.859-1.077-1.7-2.178-2.508-3.27a.616.616,0,0,1,.992-.731c.8,1.08,1.629,2.168,2.478,3.234a.615.615,0,0,1-.481,1Zm181.706-3.249a.615.615,0,0,1-.495-.981c.8-1.087,1.594-2.206,2.354-3.327a.616.616,0,0,1,1.02.692c-.77,1.133-1.572,2.266-2.383,3.366A.612.612,0,0,1,778.367,334.461ZM591.8,331.113a.619.619,0,0,1-.511-.27c-.766-1.129-1.524-2.291-2.251-3.454a.617.617,0,0,1,1.046-.653c.717,1.15,1.466,2.3,2.225,3.415a.616.616,0,0,1-.509.962Zm191.172-3.434a.616.616,0,0,1-.522-.942c.714-1.143,1.417-2.32,2.091-3.5a.615.615,0,0,1,1.068.611c-.68,1.191-1.392,2.381-2.113,3.538A.615.615,0,0,1,782.974,327.679ZM587.46,324.157a.616.616,0,0,1-.536-.31c-.681-1.191-1.346-2.41-1.976-3.621a.616.616,0,0,1,1.093-.568c.622,1.2,1.279,2.4,1.953,3.579a.614.614,0,0,1-.534.92Zm199.579-3.59a.617.617,0,0,1-.546-.9c.629-1.206,1.238-2.434,1.809-3.646a.616.616,0,0,1,1.115.525c-.579,1.228-1.2,2.469-1.831,3.691A.618.618,0,0,1,787.039,320.567Zm-203.367-3.685a.616.616,0,0,1-.558-.353c-.583-1.235-1.151-2.5-1.687-3.768a.616.616,0,0,1,1.135-.481c.529,1.251,1.09,2.5,1.666,3.723a.616.616,0,0,1-.556.879Zm206.86-3.718a.616.616,0,0,1-.567-.857c.531-1.252,1.04-2.522,1.513-3.774a.616.616,0,1,1,1.153.436c-.48,1.267-.995,2.552-1.532,3.819A.617.617,0,0,1,790.532,313.164Zm-210.064-3.838a.615.615,0,0,1-.576-.4c-.485-1.286-.951-2.6-1.382-3.893a.616.616,0,0,1,1.168-.389c.427,1.281.887,2.576,1.366,3.848a.616.616,0,0,1-.359.794A.635.635,0,0,1,580.468,309.326Zm212.957-3.812a.637.637,0,0,1-.2-.032.617.617,0,0,1-.389-.779c.428-1.286.836-2.594,1.21-3.891a.616.616,0,1,1,1.183.343c-.379,1.311-.791,2.636-1.225,3.938A.616.616,0,0,1,793.425,305.514Zm-215.55-3.985a.617.617,0,0,1-.591-.445c-.379-1.311-.737-2.656-1.066-4a.616.616,0,0,1,1.2-.294c.325,1.325.679,2.653,1.053,3.948a.617.617,0,0,1-.42.763A.648.648,0,0,1,577.875,301.529ZM795.7,297.64a.633.633,0,0,1-.148-.019.614.614,0,0,1-.45-.745c.324-1.322.625-2.659.893-3.975a.615.615,0,1,1,1.206.245c-.271,1.333-.574,2.686-.9,4.025A.617.617,0,0,1,795.7,297.64Zm-219.784-4.084a.615.615,0,0,1-.6-.494c-.273-1.341-.521-2.706-.739-4.057a.616.616,0,0,1,.51-.706.609.609,0,0,1,.706.51c.215,1.335.46,2.684.729,4.008a.615.615,0,0,1-.48.726A.662.662,0,0,1,575.919,293.556Zm221.421-3.949a.659.659,0,0,1-.1-.008.615.615,0,0,1-.509-.706c.217-1.342.409-2.7.57-4.034a.616.616,0,0,1,1.223.147c-.163,1.352-.357,2.726-.578,4.083A.616.616,0,0,1,797.34,289.607Zm-222.726-4.144a.616.616,0,0,1-.611-.542c-.162-1.352-.3-2.733-.41-4.1a.616.616,0,1,1,1.228-.1c.108,1.354.245,2.718.406,4.054a.617.617,0,0,1-.538.685A.642.642,0,0,1,574.614,285.463Zm223.711-3.994a.421.421,0,0,1-.05,0,.616.616,0,0,1-.565-.663c.109-1.355.192-2.724.246-4.068a.626.626,0,0,1,.64-.59.615.615,0,0,1,.591.64c-.055,1.36-.139,2.745-.249,4.116A.615.615,0,0,1,798.325,281.469Zm-224.363-4.177a.616.616,0,0,1-.615-.592c-.054-1.38-.08-2.766-.08-4.121a.615.615,0,1,1,1.231,0c0,1.338.026,2.709.08,4.074a.616.616,0,0,1-.592.639Zm224.7-4.015a.615.615,0,0,1-.615-.615v-.074c0-1.338-.026-2.678-.077-4a.614.614,0,0,1,.591-.639.621.621,0,0,1,.64.591c.051,1.338.077,2.694.077,4.032v.09A.615.615,0,0,1,798.657,273.277Zm-224.694-4.183h-.024a.616.616,0,0,1-.592-.639c.054-1.368.136-2.753.245-4.118a.624.624,0,0,1,.663-.564.615.615,0,0,1,.565.663c-.107,1.347-.189,2.716-.242,4.067A.616.616,0,0,1,573.963,269.094Zm224.375-4.007a.616.616,0,0,1-.613-.567c-.1-1.341-.241-2.7-.4-4.055a.616.616,0,0,1,1.224-.145c.162,1.366.3,2.746.406,4.1a.616.616,0,0,1-.566.663Zm-223.724-4.165a.626.626,0,0,1-.074,0,.616.616,0,0,1-.538-.685c.163-1.357.356-2.731.574-4.083a.616.616,0,0,1,1.216.2c-.215,1.337-.406,2.694-.567,4.035A.615.615,0,0,1,574.614,260.922Zm222.753-3.975a.615.615,0,0,1-.607-.518c-.215-1.34-.46-2.689-.726-4.009a.616.616,0,0,1,1.208-.244c.269,1.337.517,2.7.734,4.058a.615.615,0,0,1-.511.7A.547.547,0,0,1,797.367,256.947Zm-221.448-4.116a.65.65,0,0,1-.123-.013.615.615,0,0,1-.481-.725c.271-1.342.574-2.7.9-4.025a.616.616,0,0,1,1.2.293c-.321,1.313-.621,2.651-.89,3.976A.615.615,0,0,1,575.919,252.831Zm219.826-3.918a.617.617,0,0,1-.6-.471c-.32-1.309-.673-2.637-1.049-3.949a.616.616,0,1,1,1.184-.34c.381,1.327.738,2.672,1.061,4a.617.617,0,0,1-.6.762ZM577.869,244.87a.631.631,0,0,1-.17-.025.616.616,0,0,1-.422-.762c.375-1.3.786-2.627,1.222-3.94a.616.616,0,0,1,1.168.389c-.43,1.3-.836,2.6-1.206,3.892A.617.617,0,0,1,577.869,244.87Zm215.606-3.856a.619.619,0,0,1-.585-.423c-.429-1.295-.887-2.59-1.362-3.848a.616.616,0,0,1,1.153-.435c.48,1.274.944,2.584,1.379,3.9a.616.616,0,0,1-.391.778A.626.626,0,0,1,793.475,241.014ZM580.449,237.1a.617.617,0,0,1-.577-.833c.481-1.276.995-2.561,1.529-3.822a.616.616,0,1,1,1.134.481c-.527,1.245-1.035,2.515-1.51,3.775A.615.615,0,0,1,580.449,237.1Zm210.133-3.771a.617.617,0,0,1-.568-.376c-.527-1.248-1.087-2.5-1.663-3.725a.616.616,0,1,1,1.115-.525c.582,1.239,1.149,2.507,1.683,3.769a.617.617,0,0,1-.567.857Zm-206.946-3.765a.617.617,0,0,1-.556-.879c.584-1.239,1.2-2.481,1.827-3.691a.616.616,0,0,1,1.093.568c-.622,1.2-1.229,2.423-1.806,3.648A.616.616,0,0,1,583.636,229.564Zm203.453-3.66a.617.617,0,0,1-.547-.332c-.627-1.208-1.283-2.412-1.95-3.581a.616.616,0,0,1,1.07-.611c.675,1.183,1.338,2.4,1.973,3.624a.616.616,0,0,1-.546.9ZM587.412,222.3a.616.616,0,0,1-.534-.921c.679-1.189,1.389-2.38,2.112-3.539a.616.616,0,1,1,1.045.651c-.715,1.146-1.416,2.323-2.087,3.5A.616.616,0,0,1,587.412,222.3Zm195.615-3.518a.614.614,0,0,1-.523-.29c-.715-1.146-1.462-2.3-2.222-3.417a.616.616,0,0,1,1.019-.691c.769,1.135,1.525,2.3,2.248,3.457a.615.615,0,0,1-.522.941Zm-191.281-3.438a.615.615,0,0,1-.508-.961c.766-1.13,1.566-2.263,2.379-3.368a.616.616,0,0,1,.992.729c-.8,1.093-1.6,2.214-2.352,3.33A.617.617,0,0,1,591.746,215.341Zm186.682-3.347a.611.611,0,0,1-.5-.251c-.792-1.076-1.625-2.165-2.476-3.235a.616.616,0,1,1,.964-.766c.86,1.082,1.7,2.183,2.5,3.272a.615.615,0,0,1-.495.98Zm-181.822-3.26a.616.616,0,0,1-.482-1c.852-1.069,1.736-2.139,2.63-3.179a.616.616,0,0,1,.934.8c-.883,1.028-1.758,2.086-2.6,3.143A.614.614,0,0,1,596.606,208.734Zm176.721-3.15a.612.612,0,0,1-.467-.214c-.88-1.024-1.793-2.045-2.712-3.037a.616.616,0,1,1,.9-.838c.93,1,1.854,2.037,2.743,3.072a.615.615,0,0,1-.065.868A.607.607,0,0,1,773.327,205.584Zm-171.372-3.071a.616.616,0,0,1-.451-1.035c.923-.995,1.886-2,2.862-2.972a.616.616,0,1,1,.872.87c-.966.965-1.918,1.955-2.832,2.94A.612.612,0,0,1,601.955,202.513Zm165.8-2.935a.614.614,0,0,1-.436-.18c-.958-.958-1.943-1.909-2.929-2.826a.616.616,0,1,1,.838-.9c1,.927,1.994,1.888,2.963,2.858a.615.615,0,0,1-.436,1.05Zm-160-2.872a.615.615,0,0,1-.419-1.066c1-.931,2.039-1.858,3.077-2.753a.616.616,0,1,1,.8.933c-1.027.886-2.05,1.8-3.043,2.722A.615.615,0,0,1,607.758,196.706Zm154.005-2.7a.616.616,0,0,1-.4-.149c-1.013-.874-2.066-1.75-3.129-2.6a.616.616,0,1,1,.77-.961c1.075.861,2.139,1.746,3.164,2.631a.615.615,0,0,1-.4,1.081Zm-147.784-2.661a.616.616,0,0,1-.386-1.1c1.071-.856,2.172-1.7,3.273-2.521a.616.616,0,0,1,.734.99c-1.089.808-2.179,1.647-3.237,2.493A.614.614,0,0,1,613.979,191.345Zm141.4-2.455a.611.611,0,0,1-.366-.121c-1.077-.8-2.189-1.6-3.31-2.366a.616.616,0,1,1,.7-1.014c1.132.779,2.257,1.583,3.345,2.391a.616.616,0,0,1-.368,1.11Zm-134.8-2.438a.616.616,0,0,1-.35-1.123c1.126-.773,2.286-1.539,3.449-2.276a.616.616,0,0,1,.66,1.04c-1.151.729-2.3,1.486-3.412,2.251A.612.612,0,0,1,620.579,186.452Zm128.056-2.2a.61.61,0,0,1-.329-.1c-1.145-.727-2.313-1.44-3.472-2.119a.616.616,0,0,1,.624-1.062c1.171.686,2.351,1.407,3.508,2.142a.615.615,0,0,1-.331,1.135ZM627.52,182.05a.615.615,0,0,1-.312-1.147c1.185-.692,2.4-1.372,3.607-2.02a.616.616,0,0,1,.582,1.085c-1.2.642-2.4,1.314-3.567,2A.624.624,0,0,1,627.52,182.05Zm114.061-1.928a.621.621,0,0,1-.292-.074c-1.2-.648-2.421-1.277-3.623-1.868a.616.616,0,1,1,.544-1.1c1.215.6,2.448,1.234,3.664,1.889a.616.616,0,0,1-.293,1.158Zm-106.817-1.959a.616.616,0,0,1-.272-1.169c1.235-.606,2.494-1.2,3.743-1.756a.615.615,0,1,1,.5,1.123c-1.235.554-2.482,1.138-3.7,1.738A.612.612,0,0,1,634.764,178.163Zm99.464-1.668a.628.628,0,0,1-.252-.054c-1.237-.556-2.5-1.1-3.749-1.6a.616.616,0,1,1,.465-1.141c1.263.514,2.538,1.06,3.789,1.622a.616.616,0,0,1-.253,1.178Zm-91.97-1.686a.617.617,0,0,1-.231-1.188c1.268-.512,2.563-1.01,3.848-1.479a.616.616,0,0,1,.422,1.158c-1.272.463-2.553.955-3.808,1.464A.624.624,0,0,1,642.258,174.809Zm84.377-1.4a.605.605,0,0,1-.212-.038c-1.284-.47-2.58-.919-3.853-1.333a.616.616,0,0,1,.381-1.171c1.287.419,2.6.872,3.9,1.348a.616.616,0,0,1-.212,1.194ZM649.964,172a.616.616,0,0,1-.189-1.2c1.31-.425,2.636-.829,3.941-1.2a.616.616,0,1,1,.338,1.185c-1.291.369-2.6.769-3.9,1.188A.6.6,0,0,1,649.964,172Zm68.877-1.141a.6.6,0,0,1-.171-.025c-1.308-.376-2.633-.731-3.938-1.056a.616.616,0,1,1,.3-1.2c1.319.328,2.659.687,3.981,1.068a.616.616,0,0,1-.17,1.208Zm-60.995-1.111a.616.616,0,0,1-.147-1.214c1.328-.329,2.68-.638,4.018-.92a.616.616,0,1,1,.253,1.205c-1.323.279-2.66.585-3.975.911A.639.639,0,0,1,657.846,169.749Zm53.04-.875a.627.627,0,0,1-.129-.013c-1.334-.284-2.681-.545-4-.778a.615.615,0,0,1,.214-1.212c1.337.234,2.7.5,4.046.785a.616.616,0,0,1-.127,1.218Zm-45.016-.816a.616.616,0,0,1-.1-1.222c1.342-.235,2.712-.449,4.071-.637a.616.616,0,1,1,.169,1.22c-1.345.186-2.7.4-4.029.63A.548.548,0,0,1,665.87,168.058Zm36.941-.606a.634.634,0,0,1-.086-.006c-1.34-.189-2.7-.355-4.047-.5a.615.615,0,0,1,.128-1.224c1.36.142,2.736.31,4.091.5a.616.616,0,0,1-.086,1.226Zm-28.82-.519a.616.616,0,0,1-.062-1.228c1.368-.142,2.75-.261,4.1-.353a.615.615,0,0,1,.085,1.228c-1.342.092-2.709.21-4.064.35Q674.023,166.933,673.991,166.933Zm20.667-.338a.332.332,0,0,1-.044,0c-1.345-.093-2.715-.166-4.073-.214a.616.616,0,0,1-.593-.638.625.625,0,0,1,.638-.594c1.37.05,2.755.123,4.114.218a.616.616,0,0,1-.042,1.23Zm-12.489-.224a.616.616,0,0,1-.02-1.231c1.361-.046,2.747-.069,4.12-.069h.2a.616.616,0,0,1,0,1.231h-.2c-1.359,0-2.731.023-4.078.069Z" fill="#fff" opacity="0.7"/>
      </g>
      <g id="Grupo_103275" data-name="Grupo 103275">
        <g id="Grupo_103193" data-name="Grupo 103193">
          <g id="Grupo_103191" data-name="Grupo 103191" opacity="0.7">
            <path id="Trazado_164215" data-name="Trazado 164215" d="M547.373,283.556l.086-.938.664-5.745-2.745-.073-3.215-.085-.009,2.144.487,2.286.366,2.783.985,2.556.059.624a5.075,5.075,0,0,1,2.287-1.6A2.054,2.054,0,0,1,547.373,283.556Z" fill="#8c6df2"/>
            <path id="Trazado_164216" data-name="Trazado 164216" d="M550.429,275.608l.879,1.415.051.451.137,1.088-1.892.947-.695-3.356Z" fill="#8c6df2"/>
            <g id="Grupo_103188" data-name="Grupo 103188">
              <path id="Trazado_164217" data-name="Trazado 164217" d="M546,258.239l2.525.357,1.084,1.751-.883,2.336-.522-.147-.588-.167-.087.6-.128.889-1.539-.479.118-.941.013-.1-.027-.1-.639-2.422.673-1.578Zm-.331-.587-.905,2.124.686,2.6h0l-.174,1.384,2.564.8.218-1.51.994.282,1.15-3.041-1.355-2.188-3.178-.45Z" fill="#8c6df2"/>
            </g>
            <path id="Trazado_164218" data-name="Trazado 164218" d="M549.8,257.13l-2.7-.466-2.088.758-.539,2.359.953,2.776.734-.8-.089-1.105-.241-.741.767-.1.48.71.8-1.372,1.219-.646Z" fill="#8c6df2"/>
            <path id="Trazado_164219" data-name="Trazado 164219" d="M547.375,266.864l2.827,5.7,4.174,1-.455,1.781-5.8-1.553-2.291-3.232-1.358-3.362,1.358-2.408Z" fill="#8c6df2"/>
            <g id="Grupo_103189" data-name="Grupo 103189">
              <path id="Trazado_164220" data-name="Trazado 164220" d="M547.833,266.583l1.347,2.716-.843-3.68-.988.315Z" fill="#8c6df2"/>
              <path id="Trazado_164221" data-name="Trazado 164221" d="M548.376,274.418l.769,2.455,1.283-1.265-.124-.674Z" fill="#8c6df2"/>
            </g>
            <path id="Trazado_164222" data-name="Trazado 164222" d="M547.8,274.263l-2.438-3.441-1.477-3.658,1.887-3.347,2.063,2.766,1.236,2.492.018-.559-.952-4.322-2.3-.42-.864-.157-1.989,2.55-.823,10.569,3.224.064,2.745.073.547-2.376Z" fill="#8c6df2"/>
            <path id="Trazado_164223" data-name="Trazado 164223" d="M553.549,273.437l1.267-.428.455.289,1.719.174v1.878l-2.558-.043-.449-.247Z" fill="#8c6df2"/>
            <g id="Grupo_103190" data-name="Grupo 103190">
              <path id="Trazado_164224" data-name="Trazado 164224" d="M568.005,262.733l-11.814,10.121,1.333.135v2.9l-3.234-.053-1.2-.328-16.837,14.423v7.318h25.067l7-5.191V262.733Zm-19.187,23.162-5.33,4.692-.442-.5,5.331-4.692-1.122-.376,3.39-1.176-1.6,3.215Zm14.978,3.127-.16-.8-3.7,3.252-.306-.347,3.7-3.253-.778-.261,2.35-.815Zm-1.249-4.57-.494-2.491-11.434,10.065-.947-1.075,11.434-10.065-2.406-.8,7.271-2.522Z" fill="#8c6df2"/>
            </g>
          </g>
          <path id="Trazado_164225" data-name="Trazado 164225" d="M836.274,294.729l-1.91.86-5.521-12.24,1.912-.861a.8.8,0,0,1,1.057.4l4.863,10.782a.8.8,0,0,1-.4,1.059ZM808.733,254.6a.823.823,0,0,0,.042.27,7.1,7.1,0,0,0-.267,1.524c-.363.494-1.072.643-1.176,1.1-.034.415.474.375.8.7a1.123,1.123,0,0,1-.207.525c-.006.1.068.162.218.218-.152.011-.274.1-.284.186-.016.108.234.2.22.375a.967.967,0,0,1-.146.441.323.323,0,0,0,.268.469,6.807,6.807,0,0,0,1.8.162,1.987,1.987,0,0,1,.758.889,2.026,2.026,0,0,0-.171.134c.225.641,0,.77,0,1.334-1.9,2.833-1.9,4.089-1.74,7.552-.053.222-.1.422-.153.591-.885.823-2.075,2.392-3.392,3.062l-3.308.9a1.819,1.819,0,0,0,1.574,1.879l2.453-1.275,2.955-1.923c.024.924.038,1.961.03,3.14l7.127.09a10.082,10.082,0,0,0-.358-2.85,17.817,17.817,0,0,1-.46-5.606l-.31-.176c-.886-.5-1.769-1.056-2.61-1.63a2.852,2.852,0,0,1-1.272-1.824,2.124,2.124,0,0,1,.491-1.794,2.171,2.171,0,0,1,2.611-.388c.392.184.781.378,1.161.586a3.591,3.591,0,0,0-.8-2.033,2.9,2.9,0,0,1-.481-1.1c-.116.017-.235.039-.358.066a2.6,2.6,0,0,1-.182-1.184c.839-1.531,1.587-3,.727-4.393a3.376,3.376,0,0,0-5.556-.01Zm5.267,8.55a18.16,18.16,0,0,1,3.346,1.993l-.1.093a15.251,15.251,0,0,1,3.5,2.89l1.761,4.4h0l.77,2.655a1.82,1.82,0,0,1-2.15,1.177l-.235-3.42c-.4-1.422-1.705-2.9-2.339-3.925-.686-.355-1.919-.86-3.129-1.394-.053.076-.1.148-.153.215-.637-.361-1.486-.881-2.249-1.387-.138-.082-.266-.162-.38-.24a2.176,2.176,0,0,1-.952-1.286A1.546,1.546,0,0,1,814,263.145Zm3.061,2.278a15.153,15.153,0,0,1,3.452,2.835l1.741,4.355.738,2.545a1.565,1.565,0,0,1-1.614.978l-.223-3.244-.008-.027c-.427-1.518-1.56-2.68-2.37-3.992l-.037-.063-.067-.034c-.979-.507-2.072-.929-3.086-1.375l-.011-.005a15.886,15.886,0,0,1,1.485-1.973Zm-3.527-5.191a10.538,10.538,0,0,0-2.592,1.1,2.215,2.215,0,0,0-.842-.96l-.05-.026-.057,0a6.686,6.686,0,0,1-1.749-.158c-.106-.023-.166-.066-.117-.174a1.153,1.153,0,0,0,.163-.515.4.4,0,0,0-.163-.355.125.125,0,0,1,.031-.005l.557-.159-.5-.255-.039-.016a1.365,1.365,0,0,0,.165-.5l.014-.105-.075-.075a1.536,1.536,0,0,0-.476-.3.769.769,0,0,1-.244-.146.115.115,0,0,1-.017-.068.223.223,0,0,1,.017-.043,1.263,1.263,0,0,1,.436-.38,2.476,2.476,0,0,0,.685-.579l.023-.033.011-.039a3.059,3.059,0,0,0,.084-.638,2.6,2.6,0,0,1,.119-.722c.493.463,1.824.182,2.134,2.334l.2.035c.188-.562,1.224-.462,1.121.226a2.249,2.249,0,0,0,.3,1.2.661.661,0,0,0,.669.241,2.832,2.832,0,0,0,.175,1.067l.018.048Zm-4.648,11.013c.03.639.06,1.347.084,2.143l-3.08,2.005-2.352,1.222a1.566,1.566,0,0,1-1.275-1.393l3.137-.852.025-.013c1.406-.716,2.324-2.054,3.452-3.1l.009-.008Zm.576,6.128.054.457c.674,3.155,1.678,6.739,3.52,9.224,2.239,3.022,4.56,4.233,5.666,6.689l.846-.5a3.27,3.27,0,0,1-.758,2.034c-.447.5-1.221.523-1.639.949a.669.669,0,0,0-.15.491h2.485l4.1-2.952a6.017,6.017,0,0,0-1.439-2.061l.987-.586a22.252,22.252,0,0,0-5.646-6.3c-1.519-1.023-1.942-2.836-2.351-4.665a11.669,11.669,0,0,0,.9-2.777Zm-1.755,19.641v.343a.135.135,0,0,0,.129.135h7.256a.136.136,0,0,0,.136-.135c0-.124.013-.243.019-.343Zm7.518-.249h-7.479a.716.716,0,0,1,.4-.84,10.44,10.44,0,0,1,1.9-.785l.879-.532h-1.358a133.775,133.775,0,0,1-.334-15.589,23.114,23.114,0,0,0,3.373,8.352,23.841,23.841,0,0,0,2.328,2.648c.185,1.535.424,3.064.676,4.589h-.463a4.977,4.977,0,0,1,.071,2.152l.005.005Zm1.751.217h2.552l.078-.026,4.167-3c.065.092.134.268.24.439a.135.135,0,0,1-.044.186l-3.325,2.262-.938.654-2.719,0-.011-.514Zm14.929.51a.974.974,0,0,0,1.256-.567l.01-.023.007-.024.007-.024.007-.024.007-.024.005-.024,0-.023.005-.025,0-.024,0-.024v-.024h0l0-.023v-.1l0-.024h0v-.047l0-.023h0l0-.023-.005-.024,0-.023-.005-.023-.006-.022-.007-.023,0-.022h0l-.007-.023-.007-.022h0l-.008-.021-.01-.022-.008-.022-.01-.021h0l-.011-.021-.011-.021-.011-.02-.011-.02h0l-.013-.02-.012-.02-.014-.019-.014-.019h0l-.014-.019-.015-.018h0l-.016-.018-.015-.018-.017-.017-.015-.017h0l-.018-.017-.017-.016-.018-.015-.018-.016-.018-.015-.019-.015-.02-.014-.021-.013-.019-.014-.021-.013-.021-.012-.022-.012-.022-.011-.023-.01-.022-.011-.022-.01-.024-.009a.975.975,0,1,0-.69,1.824Zm.178-.473a.47.47,0,0,1,.333-.878l.011,0,.011.005.011.005.011.005.01.006.011.005.01.006.01.006.009.007.01.006.01.007.008.007.01.007.01.008.008.008.007.007.008.008h0l.009.008.008.009.007.008.007.009h0l.008.009.006.009h0l.007.009.007.009.005.01.007.009h0l.006.01.005.01,0,.01.006.01h0l0,.01.006.01,0,.011,0,.01h0l0,.011,0,.011h0l0,.011,0,.01,0,.011,0,.011,0,.011v.012l0,.011h0v.023l0,.011h0v.057l0,.012h0v.023l0,.011v.012l0,.012,0,.011,0,.012,0,.011,0,.012-.005.011,0,.011a.469.469,0,0,1-.6.273Zm1.277-.977.613-.276-5.519-12.241-2.11.951-3.569-7.915a2.212,2.212,0,0,1-.623.245l3.643,8.076a.8.8,0,0,0-.043.74l4.861,10.781a.788.788,0,0,0,.425.41,1.218,1.218,0,0,1,.058-.67,1.236,1.236,0,0,1,1.594-.716l.029.012.028.012.029.013.029.014.027.014.027.015.028.016.025.016.027.017.025.017.025.018.023.019.024.019.024.019.022.021.022.02.021.021.022.022.018.021.021.023.02.023.018.023.018.025.016.023.017.025.017.024.015.025.015.027.014.025.014.026Z" fill="#8c6df2" fill-rule="evenodd" opacity="0.7"/>
          <g id="Grupo_103192" data-name="Grupo 103192" opacity="0.7">
            <path id="Trazado_164226" data-name="Trazado 164226" d="M592.366,159.008l37.078-19.357a1.463,1.463,0,0,1,1.969.618l7.953,15.233a1.465,1.465,0,0,1-.618,1.969l-1.581.826-6.276-12.02a2.035,2.035,0,0,0-2.74-.86l-34.989,18.268-1.413-2.708A1.463,1.463,0,0,1,592.366,159.008Z" fill="#8c6df2" fill-rule="evenodd"/>
            <path id="Trazado_164227" data-name="Trazado 164227" d="M591.338,165.282l37.078-19.358a1.461,1.461,0,0,1,1.968.618l7.954,15.233a1.465,1.465,0,0,1-.618,1.969L600.642,183.1a1.462,1.462,0,0,1-1.968-.618L590.72,167.25a1.463,1.463,0,0,1,.618-1.968Zm.26.5a.9.9,0,0,0-.381,1.212l7.953,15.234a.9.9,0,0,0,1.213.38l37.077-19.358a.9.9,0,0,0,.381-1.212L629.888,146.8a.9.9,0,0,0-1.213-.38Z" fill="#8c6df2" fill-rule="evenodd"/>
            <path id="Trazado_164228" data-name="Trazado 164228" d="M595.87,168.922c.037.044.157.042.326.01a4.7,4.7,0,0,1,.338,1.538.7.7,0,0,0,.408-.541l.264-1.3c.482-.172.843-.348,1.023-.424l2.081-.883c.426.636.117,3.218.081,4.054.253.074.462-.3.569-.577l.224-1.008.062-.277.316-1.421a1.594,1.594,0,0,0,.485-.143l.139-.072-.171-.328-.139.072a1.624,1.624,0,0,0-.248.174l.3-1.244c.024-.189.176-.263.364-.363l.022-.012.744-.469c.359-.228,1.185-.872,1.1-1.107-.142-.209-1.142.1-1.535.267l-.81.341-.022.011c-.191.1-.338.179-.506.092l-1.194-.464a1.622,1.622,0,0,0,.284-.1l.139-.073-.171-.327-.139.073a1.612,1.612,0,0,0-.4.315l-1.346-.552-.262-.108-.956-.392c-.286-.069-.714-.113-.8.138.706.447,3,1.669,3.28,2.382l-1.914,1.2c-.166.1-.517.3-.933.6l-1.221-.53a.713.713,0,0,0-.678.026,4.674,4.674,0,0,1,1.07,1.157C595.926,168.769,595.855,168.867,595.87,168.922Z" fill="#8c6df2" fill-rule="evenodd"/>
            <rect id="Rectángulo_26220" data-name="Rectángulo 26220" width="3.242" height="0.162" transform="translate(592.446 170.556) rotate(-27.571)" fill="#8c6df2"/>
            <rect id="Rectángulo_26221" data-name="Rectángulo 26221" width="3.242" height="0.162" transform="translate(592.296 170.268) rotate(-27.56)" fill="#8c6df2"/>
            <rect id="Rectángulo_26222" data-name="Rectángulo 26222" width="3.242" height="0.162" transform="matrix(0.886, -0.463, 0.463, 0.886, 592.596, 170.843)" fill="#8c6df2"/>
            <rect id="Rectángulo_26223" data-name="Rectángulo 26223" width="3.242" height="0.162" transform="translate(629.236 151.348) rotate(-27.571)" fill="#8c6df2"/>
            <rect id="Rectángulo_26224" data-name="Rectángulo 26224" width="3.242" height="0.162" transform="translate(629.086 151.06) rotate(-27.574)" fill="#8c6df2"/>
            <rect id="Rectángulo_26225" data-name="Rectángulo 26225" width="3.242" height="0.162" transform="translate(629.386 151.635) rotate(-27.568)" fill="#8c6df2"/>
            <path id="Trazado_164229" data-name="Trazado 164229" d="M621.6,153.687l-.144.075-.75-1.436.144-.075Z" fill="#8c6df2" fill-rule="evenodd"/>
            <path id="Trazado_164230" data-name="Trazado 164230" d="M622.576,155.555l-.144.075-.75-1.437.144-.075Z" fill="#8c6df2" fill-rule="evenodd"/>
            <rect id="Rectángulo_26226" data-name="Rectángulo 26226" width="0.162" height="1.621" transform="translate(622.657 156.062) rotate(-27.612)" fill="#8c6df2"/>
            <path id="Trazado_164231" data-name="Trazado 164231" d="M624.527,159.291l-.144.075-.75-1.438.144-.075Z" fill="#8c6df2" fill-rule="evenodd"/>
            <rect id="Rectángulo_26227" data-name="Rectángulo 26227" width="0.162" height="1.62" transform="matrix(0.888, -0.46, 0.46, 0.888, 624.61, 159.796)" fill="#8c6df2"/>
            <path id="Trazado_164232" data-name="Trazado 164232" d="M626.477,163.027l-.144.075-.75-1.437.144-.075Z" fill="#8c6df2" fill-rule="evenodd"/>
            <rect id="Rectángulo_26228" data-name="Rectángulo 26228" width="0.162" height="1.621" transform="translate(626.559 163.532) rotate(-27.505)" fill="#8c6df2"/>
            <rect id="Rectángulo_26229" data-name="Rectángulo 26229" width="0.162" height="1.621" transform="translate(627.533 165.401) rotate(-27.612)" fill="#8c6df2"/>
            <path id="Trazado_164233" data-name="Trazado 164233" d="M629.036,168.278l-.527-1.01.144-.075.527,1.009Z" fill="#8c6df2" fill-rule="evenodd"/>
            <path id="Trazado_164234" data-name="Trazado 164234" d="M620.626,151.819l-.144.075-.75-1.436.144-.075Z" fill="#8c6df2" fill-rule="evenodd"/>
            <rect id="Rectángulo_26230" data-name="Rectángulo 26230" width="14.992" height="1.228" rx="0.178" transform="matrix(0.886, -0.463, 0.463, 0.886, 605.976, 160.566)" fill="#8c6df2"/>
            <path id="Rectángulo_26231" data-name="Rectángulo 26231" d="M.179,0H14.814a.178.178,0,0,1,.178.178V1.05a.178.178,0,0,1-.178.178H.178A.178.178,0,0,1,0,1.05V.179A.179.179,0,0,1,.179,0Z" transform="translate(607.074 162.669) rotate(-27.569)" fill="#8c6df2"/>
            <path id="Rectángulo_26232" data-name="Rectángulo 26232" d="M.178,0H14.815a.177.177,0,0,1,.177.177V1.05a.178.178,0,0,1-.178.178H.178A.178.178,0,0,1,0,1.05V.178A.178.178,0,0,1,.178,0Z" transform="translate(608.172 164.772) rotate(-27.568)" fill="#8c6df2"/>
            <path id="Rectángulo_26233" data-name="Rectángulo 26233" d="M.179,0H14.814a.178.178,0,0,1,.178.178V1.05a.178.178,0,0,1-.178.178H.179A.179.179,0,0,1,0,1.05V.179A.179.179,0,0,1,.179,0Z" transform="translate(609.27 166.875) rotate(-27.569)" fill="#8c6df2"/>
            <path id="Rectángulo_26234" data-name="Rectángulo 26234" d="M.179,0H9.792A.178.178,0,0,1,9.97.178V1.05a.178.178,0,0,1-.178.178H.178A.178.178,0,0,1,0,1.05V.179A.179.179,0,0,1,.179,0Z" transform="translate(610.368 168.977) rotate(-27.565)" fill="#8c6df2"/>
            <rect id="Rectángulo_26235" data-name="Rectángulo 26235" width="0.259" height="2.805" transform="translate(599.681 176.925) rotate(-27.612)" fill="#8c6df2"/>
            <path id="Trazado_164235" data-name="Trazado 164235" d="M600.141,176.685l.23-.12,1.3,2.487-.23.119Z" fill="#8c6df2" fill-rule="evenodd"/>
            <rect id="Rectángulo_26236" data-name="Rectángulo 26236" width="0.259" height="2.806" transform="translate(601.519 175.965) rotate(-27.595)" fill="#8c6df2"/>
            <path id="Trazado_164236" data-name="Trazado 164236" d="M602.9,175.245l.23-.119,1.3,2.487-.229.119Z" fill="#8c6df2" fill-rule="evenodd"/>
            <rect id="Rectángulo_26237" data-name="Rectángulo 26237" width="0.259" height="2.805" transform="translate(604.098 174.619) rotate(-27.612)" fill="#8c6df2"/>
            <rect id="Rectángulo_26238" data-name="Rectángulo 26238" width="0.13" height="2.805" transform="matrix(0.886, -0.465, 0.465, 0.886, 600.477, 176.51)" fill="#8c6df2"/>
            <rect id="Rectángulo_26239" data-name="Rectángulo 26239" width="0.13" height="2.805" transform="matrix(0.887, -0.462, 0.462, 0.887, 601.858, 175.788)" fill="#8c6df2"/>
            <rect id="Rectángulo_26240" data-name="Rectángulo 26240" width="0.129" height="2.805" transform="matrix(0.887, -0.462, 0.462, 0.887, 603.237, 175.069)" fill="#8c6df2"/>
            <path id="Trazado_164237" data-name="Trazado 164237" d="M604.436,174.442l.115-.06,1.3,2.487-.115.061Z" fill="#8c6df2" fill-rule="evenodd"/>
            <rect id="Rectángulo_26241" data-name="Rectángulo 26241" width="0.259" height="2.805" transform="translate(600.862 176.309) rotate(-27.612)" fill="#8c6df2"/>
            <rect id="Rectángulo_26242" data-name="Rectángulo 26242" width="0.259" height="2.805" transform="translate(602.24 175.589) rotate(-27.641)" fill="#8c6df2"/>
            <rect id="Rectángulo_26243" data-name="Rectángulo 26243" width="0.259" height="2.805" transform="translate(603.62 174.868) rotate(-27.53)" fill="#8c6df2"/>
            <path id="Trazado_164238" data-name="Trazado 164238" d="M604.82,174.242l.229-.12,1.3,2.487-.23.119Z" fill="#8c6df2" fill-rule="evenodd"/>
            <path id="Trazado_164239" data-name="Trazado 164239" d="M600.673,176.407l.115-.06,1.527,2.925-.115.06Z" fill="#8c6df2" fill-rule="evenodd"/>
            <path id="Trazado_164240" data-name="Trazado 164240" d="M602.052,175.687l.115-.06,1.3,2.487-.115.06Z" fill="#8c6df2" fill-rule="evenodd"/>
            <rect id="Rectángulo_26244" data-name="Rectángulo 26244" width="0.129" height="2.805" transform="translate(603.43 174.967) rotate(-27.548)" fill="#8c6df2"/>
            <path id="Trazado_164241" data-name="Trazado 164241" d="M604.63,174.341l.115-.06,1.3,2.487-.115.06Z" fill="#8c6df2" fill-rule="evenodd"/>
            <path id="Trazado_164242" data-name="Trazado 164242" d="M599.975,176.771l.115-.06,1.3,2.487-.115.06Z" fill="#8c6df2" fill-rule="evenodd"/>
            <rect id="Rectángulo_26245" data-name="Rectángulo 26245" width="0.129" height="2.805" transform="translate(601.353 176.052) rotate(-27.575)" fill="#8c6df2"/>
            <rect id="Rectángulo_26246" data-name="Rectángulo 26246" width="0.129" height="2.805" transform="translate(602.731 175.332) rotate(-27.572)" fill="#8c6df2"/>
            <rect id="Rectángulo_26247" data-name="Rectángulo 26247" width="0.129" height="2.805" transform="matrix(0.888, -0.461, 0.461, 0.888, 603.935, 174.704)" fill="#8c6df2"/>
            <rect id="Rectángulo_26248" data-name="Rectángulo 26248" width="0.259" height="2.805" transform="translate(605.286 173.999) rotate(-27.459)" fill="#8c6df2"/>
            <path id="Trazado_164243" data-name="Trazado 164243" d="M605.621,173.824l.115-.06,1.3,2.487-.115.06Z" fill="#8c6df2" fill-rule="evenodd"/>
            <rect id="Rectángulo_26249" data-name="Rectángulo 26249" width="0.259" height="2.805" transform="translate(606.006 173.623) rotate(-27.532)" fill="#8c6df2"/>
            <path id="Trazado_164244" data-name="Trazado 164244" d="M605.816,173.722l.115-.061,1.3,2.487-.115.06Z" fill="#8c6df2" fill-rule="evenodd"/>
            <rect id="Rectángulo_26250" data-name="Rectángulo 26250" width="0.129" height="2.806" transform="translate(605.119 174.085) rotate(-27.488)" fill="#8c6df2"/>
            <rect id="Rectángulo_26251" data-name="Rectángulo 26251" width="0.259" height="2.805" transform="translate(627.933 162.165) rotate(-27.597)" fill="#8c6df2"/>
            <path id="Trazado_164245" data-name="Trazado 164245" d="M628.393,161.925l.23-.119,1.3,2.487-.23.119Z" fill="#8c6df2" fill-rule="evenodd"/>
            <rect id="Rectángulo_26252" data-name="Rectángulo 26252" width="0.259" height="2.806" transform="translate(629.772 161.204) rotate(-27.501)" fill="#8c6df2"/>
            <rect id="Rectángulo_26253" data-name="Rectángulo 26253" width="0.259" height="2.806" transform="translate(631.15 160.486) rotate(-27.53)" fill="#8c6df2"/>
            <rect id="Rectángulo_26254" data-name="Rectángulo 26254" width="0.259" height="2.805" transform="translate(632.349 159.86) rotate(-27.612)" fill="#8c6df2"/>
            <path id="Trazado_164246" data-name="Trazado 164246" d="M628.731,161.748l.115-.06,1.3,2.487-.115.06Z" fill="#8c6df2" fill-rule="evenodd"/>
            <path id="Trazado_164247" data-name="Trazado 164247" d="M630.109,161.029l.115-.06,1.3,2.487-.115.06Z" fill="#8c6df2" fill-rule="evenodd"/>
            <path id="Trazado_164248" data-name="Trazado 164248" d="M631.487,160.31l.115-.06,1.3,2.487-.115.06Z" fill="#8c6df2" fill-rule="evenodd"/>
            <rect id="Rectángulo_26255" data-name="Rectángulo 26255" width="0.129" height="2.805" transform="translate(632.689 159.682) rotate(-27.488)" fill="#8c6df2"/>
            <rect id="Rectángulo_26256" data-name="Rectángulo 26256" width="0.259" height="2.805" transform="translate(629.114 161.548) rotate(-27.612)" fill="#8c6df2"/>
            <rect id="Rectángulo_26257" data-name="Rectángulo 26257" width="0.259" height="2.806" transform="matrix(0.887, -0.462, 0.462, 0.887, 630.494, 160.827)" fill="#8c6df2"/>
            <rect id="Rectángulo_26258" data-name="Rectángulo 26258" width="0.259" height="2.805" transform="translate(631.872 160.108) rotate(-27.502)" fill="#8c6df2"/>
            <rect id="Rectángulo_26259" data-name="Rectángulo 26259" width="0.259" height="2.805" transform="translate(633.07 159.483) rotate(-27.641)" fill="#8c6df2"/>
            <path id="Trazado_164249" data-name="Trazado 164249" d="M628.925,161.647l.115-.06,1.528,2.925-.115.06Z" fill="#8c6df2" fill-rule="evenodd"/>
            <path id="Trazado_164250" data-name="Trazado 164250" d="M630.3,160.928l.115-.06,1.3,2.487-.115.06Z" fill="#8c6df2" fill-rule="evenodd"/>
            <rect id="Rectángulo_26260" data-name="Rectángulo 26260" width="0.129" height="2.805" transform="matrix(0.887, -0.462, 0.462, 0.887, 631.682, 160.208)" fill="#8c6df2"/>
            <rect id="Rectángulo_26261" data-name="Rectángulo 26261" width="0.129" height="2.805" transform="matrix(0.886, -0.463, 0.463, 0.886, 632.882, 159.581)" fill="#8c6df2"/>
            <rect id="Rectángulo_26262" data-name="Rectángulo 26262" width="0.129" height="2.805" transform="translate(628.225 162.012) rotate(-27.63)" fill="#8c6df2"/>
            <rect id="Rectángulo_26263" data-name="Rectángulo 26263" width="0.129" height="2.805" transform="translate(629.607 161.291) rotate(-27.488)" fill="#8c6df2"/>
            <path id="Trazado_164251" data-name="Trazado 164251" d="M630.983,160.572l.115-.06L632.4,163l-.115.06Z" fill="#8c6df2" fill-rule="evenodd"/>
            <path id="Trazado_164252" data-name="Trazado 164252" d="M632.183,159.945l.115-.06,1.3,2.487-.115.06Z" fill="#8c6df2" fill-rule="evenodd"/>
            <rect id="Rectángulo_26264" data-name="Rectángulo 26264" width="0.259" height="2.805" transform="matrix(0.886, -0.463, 0.463, 0.886, 633.535, 159.241)" fill="#8c6df2"/>
            <rect id="Rectángulo_26265" data-name="Rectángulo 26265" width="0.129" height="2.806" transform="matrix(0.885, -0.466, 0.466, 0.885, 633.868, 159.066)" fill="#8c6df2"/>
            <rect id="Rectángulo_26266" data-name="Rectángulo 26266" width="0.259" height="2.805" transform="translate(634.255 158.865) rotate(-27.641)" fill="#8c6df2"/>
            <path id="Trazado_164253" data-name="Trazado 164253" d="M634.067,158.962l.115-.06,1.3,2.487-.115.061Z" fill="#8c6df2" fill-rule="evenodd"/>
            <rect id="Rectángulo_26267" data-name="Rectángulo 26267" width="0.13" height="2.806" transform="matrix(0.887, -0.462, 0.462, 0.887, 633.37, 159.326)" fill="#8c6df2"/>
          </g>
          <path id="Trazado_164254" data-name="Trazado 164254" d="M745.168,375.672v-.687h3.885v.687Zm4.387,0V374.7h-.006v-.891a.143.143,0,0,0-.142-.142h-4.6a.143.143,0,0,0-.142.142v1.86h-4.33v15.377H753.9V375.672h-4.347Zm6.783,15.377h.686a.945.945,0,0,0,.942-.943V376.615a.945.945,0,0,0-.942-.943h-2.106v15.377h1.42Zm-18.454,0H737.2a.946.946,0,0,1-.943-.943V376.615a.946.946,0,0,1,.943-.943H739.3v15.377h-1.42Zm21.939,0h14.142a.911.911,0,0,0,.908-.908v-2.158H758.915v2.158a.912.912,0,0,0,.908.908Zm5.138-23.021v-.685h3.865v.685Zm4.365,0v-.965h-.006v-.886a.142.142,0,0,0-.142-.141H764.6a.142.142,0,0,0-.142.141V367.2h0v.826h-4.639a.912.912,0,0,0-.908.907v2.456h15.958v-2.456a.911.911,0,0,0-.908-.907Zm5.547,19.132V372.215H758.915V387.16Zm-42.513,4.775h46.273a3.343,3.343,0,0,1,3.334,3.334h0a3.343,3.343,0,0,1-3.334,3.334H732.36a3.344,3.344,0,0,1-3.334-3.334h0a3.344,3.344,0,0,1,3.334-3.334ZM780.2,393.7a2.223,2.223,0,1,0,0,3.144,2.222,2.222,0,0,0,0-3.144Zm-2.3,2.3a1.031,1.031,0,1,0,0-1.458,1.03,1.03,0,0,0,0,1.458Zm-43.978-2.3a2.223,2.223,0,1,0,0,3.144,2.222,2.222,0,0,0,0-3.144Zm-2.3,2.3a1.031,1.031,0,1,0,0-1.458,1.03,1.03,0,0,0,0,1.458Zm44.931,1.126h.189l.016.017a2.647,2.647,0,1,0,0-3.743l-.016.016h-.189a.306.306,0,1,0-.612,0h-.87a.306.306,0,1,0-.612,0h-.87a.306.306,0,1,0-.612,0h-.871a.306.306,0,1,0-.612,0h-.87a.306.306,0,1,0-.612,0h-.87a.306.306,0,1,0-.612,0h-.871a.306.306,0,1,0-.611,0h-.871a.306.306,0,1,0-.612,0h-.87a.306.306,0,1,0-.612,0h-.871a.306.306,0,1,0-.611,0h-.871a.306.306,0,1,0-.612,0h-.87a.306.306,0,1,0-.612,0h-.871a.306.306,0,1,0-.612,0h-.87a.306.306,0,1,0-.612,0h-.87a.306.306,0,1,0-.612,0h-.871a.306.306,0,1,0-.611,0h-.871a.306.306,0,1,0-.612,0h-.87a.306.306,0,1,0-.612,0h-.87a.306.306,0,1,0-.612,0h-.871a.306.306,0,1,0-.611,0h-.871a.306.306,0,1,0-.612,0h-.87a.306.306,0,1,0-.612,0h-.871a.306.306,0,1,0-.611,0h-.871a.306.306,0,1,0-.612,0h-.87a.306.306,0,1,0-.612,0h-.87a.306.306,0,1,0-.612,0h-.871a.306.306,0,1,0-.612,0h-.87a.306.306,0,1,0-.612,0h-.87a.306.306,0,1,0-.612,0h-.2l-.017-.016a2.647,2.647,0,1,0,0,3.743l.017-.017h.2a.306.306,0,1,0,.612,0h.87a.306.306,0,1,0,.612,0h.87a.306.306,0,1,0,.612,0h.871a.306.306,0,1,0,.612,0h.87a.306.306,0,1,0,.612,0h.87a.306.306,0,1,0,.612,0h.871a.306.306,0,1,0,.611,0h.871a.306.306,0,1,0,.612,0h.87a.306.306,0,1,0,.612,0h.871a.306.306,0,1,0,.611,0h.871a.306.306,0,1,0,.612,0h.87a.306.306,0,1,0,.612,0h.87a.306.306,0,1,0,.612,0h.871a.306.306,0,1,0,.611,0h.871a.306.306,0,1,0,.612,0h.87a.306.306,0,1,0,.612,0h.87a.306.306,0,1,0,.612,0h.871a.306.306,0,1,0,.612,0h.87a.306.306,0,1,0,.612,0h.871a.306.306,0,1,0,.611,0h.871a.306.306,0,1,0,.612,0h.87a.306.306,0,1,0,.612,0h.871a.306.306,0,1,0,.611,0h.871a.306.306,0,1,0,.612,0h.87a.306.306,0,1,0,.612,0h.87a.306.306,0,1,0,.612,0h.871a.306.306,0,1,0,.612,0h.87a.306.306,0,1,0,.612,0h.87a.306.306,0,1,0,.612,0Z" fill="#8c6df2" fill-rule="evenodd" opacity="0.7"/>
          <path id="Trazado_164255" data-name="Trazado 164255" d="M761.109,161.2v-8.019c-3.333.3-5.806,3.288-7.112,6.494a19.575,19.575,0,0,0,7.112,1.525Zm14.042-13.4,0,0,0,.005,0,.005,0,0,0,.006,0,0,0,.005,0,0,0,.006,0,.005,0,.006,0,.005,0,0,0,.005,0,.005,0,.005,0,.006,0,0,0,.005,0,.005,0,.006,0,.005,0,0,0,.005,0,.006h0l0,.005,0,.006h0l0,.005,0,.005,0,.006,0,0h0l0,.005,0,.006,0,.005h0l0,.006,0,.005h0l0,.006h0l0,.005,0,0,0,.006h0l0,0h0l0,.006,0,0,0,.005h0l0,.006,0,.005h0l0,.005,0,.006,0,.005,0,.005h0l0,.005,0,.006h0l0,.006,0,.005,0,.005,0,.006,0,.006,0,.005,0,.006,0,.006,0,.005,0,.006,0,.005h0l0,.006,0,0h0v0l0,0v0h0v0l0,0v0h0l0,0v.006h0v0h0v0h0v.005l0,0h0v0l0,.006h0v.006l0,0v.006l0,0v0h0l0,0v0h0v0l0,0v0l-.005.008,0,0h0v0h0v0l0,0v0h0v0l0,0v0l0,0h0a6.673,6.673,0,0,1-.443.561l2.081.255,1.868-1.868c.687-.569,1.212-.718,1.576-.453q.4.548-.453,1.577l-1.868,1.867.255,2.081a6.609,6.609,0,0,1,.56-.443h0v0l0,0h.006v0h0l0,0h0l0,0h0l0,0h.007l0,0h0l0,0h.005v0h.006l0,0h0l0,0h0l0,0h0v0h0l0,0h.005l0,0h0l0,0h.006v0h0l0,0h0l0,0,0,0h0v0h0l.006,0,.006,0,.005,0,.005,0h0l.007,0,.011-.007h0a3.326,3.326,0,0,1,.3-.173l.006,0,.317.318.317.316,0,.005,0,.005h0c-.048.092-.1.189-.169.289h0l-.01.017h0l0,0,0,.006,0,.006,0,0,0,.006,0,0v0l0,0v0h0l0,0h0v0h0l0,0v0h0v.006l0,0v0l0,0h0v0h0v0l0,0v0h0l0,0v0h0l0,0h0v0l0,0h0v.005l0,0h0v0l0,0h0v0l0,0v.006l0,0v0l0,0v0h0v0l0,0h0v0l0,0v0l0,0v0a7.148,7.148,0,0,1-.791.931q-.19.19-.381.357l.342,2.795c.307-.258.534-.4.582-.353.077.076-.343.619-.937,1.213s-1.136,1.013-1.213.937c-.049-.049.1-.289.376-.61l-1.768-5.563-1.8,1.8a17.2,17.2,0,0,1-2.26,1.763c.067.645.292,2.535.292,2.535l-.574.573L770.3,156.6l-.923.718.718-.923-2.424-.823.574-.574s1.89.225,2.535.291a17.246,17.246,0,0,1,1.761-2.259l1.8-1.8-5.564-1.768c-.322.272-.561.426-.609.377-.077-.077.342-.62.937-1.214s1.136-1.013,1.213-.937c.047.048-.1.275-.353.582l2.795.343c.11-.127.231-.255.358-.381l.014-.015.007-.009.007-.007.015-.014h0l.014-.013.009-.01.005,0,.015-.015,0,0,.01-.01.012-.012,0,0,.014-.014,0,0,.01-.009.013-.013.017-.015.006-.007.008-.007.015-.014h0l.014-.013.009-.009.007-.005.015-.014v0l.013-.011.011-.01.005,0,.014-.013,0,0,.011-.01.012-.01,0,0,.016-.014.005-.005.009-.008.014-.013h0l.015-.013.007-.007.008-.006.014-.012h0l.013-.012.01-.008.005,0,.016-.013v0l.013-.01.01-.009,0,0,.016-.011,0,0,.011-.008.013-.01v0l.015-.012.007-.005.007-.007.014-.012h0l.016-.012.007-.006.007-.005.014-.012h0l.014-.01.01-.008.005,0,.014-.011,0,0,.012-.009.011-.008,0,0,.015-.011,0,0,.01-.007.013-.01h0l.014-.011.006-.005.008-.005.014-.011h0l.014-.011.009-.006.005,0,.028-.02.011-.008,0,0,.014-.01,0,0,.01-.007.011-.008,0,0,.014-.01.005,0,.008-.006.013-.008v0h0l0,0h0l0,0h.006v0h.008l0,0h.005l0,0h0l0,0h.005l0,0h.005v0l0,0h0v0h0l0,0h0v0h0l0,0v0h0v0h.012l0,0h0l0,0h0v0h0v0l0,0h0l.005,0h0l.006,0h0l.005,0h0l.005,0h0l0,0h0l.005,0c.1-.067.207-.126.3-.175h0l.005,0,.005,0,.317.317.317.317Zm6.976-3.033a10.425,10.425,0,0,0-14.744,0c-.218.218-.423.444-.618.676h0a10.433,10.433,0,0,0-1.557,10.883c.769,3.155-1.432,6.728-1.363,6.772s4.033-2.26,6.809-1.375a10.434,10.434,0,0,0,10.741-1.546h0q.378-.315.734-.668a10.423,10.423,0,0,0,0-14.743Zm-14.848,1.023-.007.009a9.823,9.823,0,0,0-1.466,10.247l.02.049.013.051a8.636,8.636,0,0,1-.353,4.648c-.115.359-.245.711-.389,1.059l.068-.028a13.208,13.208,0,0,1,2.9-.849,6.167,6.167,0,0,1,2.814.131l.028.009.027.011a9.823,9.823,0,0,0,10.112-1.455l.077-.064c.213-.18.418-.368.616-.566a9.816,9.816,0,0,0-13.882-13.881q-.3.3-.577.629Zm-10.65,33.983a13.426,13.426,0,0,1-3.568-5.154l-1.933,1.222a13.807,13.807,0,0,0,5.5,3.932Zm4.48.916c-3.338-.3-5.815-3.3-7.12-6.512a19.6,19.6,0,0,1,7.12-1.526v8.038Zm1.028,0c3.412-.287,5.923-3.386,7.217-6.663a19.931,19.931,0,0,0-7.217-1.389v8.052Zm10.176-5.041a13.812,13.812,0,0,1-5.659,4.122,13.548,13.548,0,0,0,3.637-5.326l2.022,1.2Zm-.648-8.2a20.67,20.67,0,0,1-1.02,6.027l2.289,1.355a13.711,13.711,0,0,0,2.475-7.382Zm-9.528,0h8.5a19.708,19.708,0,0,1-.934,5.612,21.027,21.027,0,0,0-7.565-1.451v-4.161Zm-9.49,0a19.64,19.64,0,0,0,.984,5.763,20.7,20.7,0,0,1,7.478-1.592v-4.171Zm-1.029,0a20.6,20.6,0,0,0,1.079,6.2l-2.2,1.381a13.688,13.688,0,0,1-2.619-7.582Zm-.48-9.431a13.793,13.793,0,0,1,5.491-3.92,13.411,13.411,0,0,0-3.561,5.137l-1.93-1.217Zm.48,8.4A20.582,20.582,0,0,1,752.7,160.2l-2.2-1.377a13.714,13.714,0,0,0-2.628,7.595Zm9.491,0h-8.462a19.572,19.572,0,0,1,.991-5.78,20.708,20.708,0,0,0,7.471,1.589v4.191Zm9.527,0h-8.5v-4.181q.774-.01,1.528-.07l-.029.06c-.175.371-.621,1-.084,1.336.318.2.631-.006.911-.139.309-.147.619-.289.933-.421a12.373,12.373,0,0,1,2.806-.847,5.57,5.57,0,0,1,1.88-.01,20.052,20.052,0,0,1,.554,4.272Zm.586-3.889a10.957,10.957,0,0,0,3.661.582,13.772,13.772,0,0,1,.526,3.307h-3.744a21.365,21.365,0,0,0-.443-3.889Zm-9.085-9.353a6.16,6.16,0,0,1,1.737.406,10.961,10.961,0,0,0,.807,2.918,7.8,7.8,0,0,1-.416,4.2c-.046.133-.093.264-.144.4-.646.067-1.31.107-1.984.116Z" fill="#8c6df2" fill-rule="evenodd" opacity="0.7"/>
          <path id="Trazado_164256" data-name="Trazado 164256" d="M620.686,372.685a14.2,14.2,0,0,1,4.693,2.258,2.2,2.2,0,1,1,2.8,2.711,14.2,14.2,0,1,1-15.24-4.87v-.937h-.4c-1.71,0-1.71-3.5,0-3.5h8.549c1.707,0,1.707,3.5,0,3.5h-.4v.838Zm-4.8,5.938v5.628a2.2,2.2,0,1,0,2.2,0v-5.628a1.113,1.113,0,0,0-2.2,0Zm1.1-3.227a11,11,0,1,0,11,11A11,11,0,0,0,616.986,375.4Z" fill="#8c6df2" fill-rule="evenodd" opacity="0.7"/>
        </g>
        <g id="Grupo_103274" data-name="Grupo 103274">
          <g id="Grupo_103213" data-name="Grupo 103213">
            <g id="Grupo_103194" data-name="Grupo 103194" opacity="0.7" style="mix-blend-mode: multiply;isolation: isolate">
              <path id="Trazado_164257" data-name="Trazado 164257" d="M614.985,338.685H573.026l-4.518-29.7a2,2,0,0,0-1.926-1.452H554.121a2,2,0,0,0-2,1.955.372.372,0,0,0-.005.047,2,2,0,0,0,2,2h10.951l4.517,29.7a2,2,0,0,0,1.927,1.452h4.441V344.6a6.678,6.678,0,1,0,7.782,8.293h17.809a6.675,6.675,0,1,0,7.673-8.309V342.69h5.764a2,2,0,0,0,2-1.941c0-.021.006-.04.006-.062A2,2,0,0,0,614.985,338.685ZM577.3,353.816a2.674,2.674,0,1,1,2.675-2.675A2.679,2.679,0,0,1,577.3,353.816Zm33.359-2.675a2.673,2.673,0,1,1-2.674-2.672A2.678,2.678,0,0,1,610.659,351.141Zm-4.123-6.515a6.692,6.692,0,0,0-5,4.8H583.748a6.7,6.7,0,0,0-5.1-4.826V342.69h27.893Z" fill="#7b7b7b"/>
              <path id="Trazado_164258" data-name="Trazado 164258" d="M577.789,337.13h2.187V338.3h5.008V337.13H604.77V338.3h5.009V337.13h2.187a2.7,2.7,0,0,0,2.7-2.7V313.651a2.7,2.7,0,0,0-2.7-2.7H600.947V308.2a.944.944,0,0,0-.27-.661l-1.144-1.165a.95.95,0,0,0-.674-.283h-7.846a.943.943,0,0,0-.612.225l-1.263,1.075a.942.942,0,0,0-.332.719v2.845H577.789a2.7,2.7,0,0,0-2.7,2.7v20.781A2.7,2.7,0,0,0,577.789,337.13ZM590.7,308.544l.665-.566h7.1l.595.607v2.368H590.7Z" fill="#7b7b7b"/>
            </g>
            <g id="Grupo_103212" data-name="Grupo 103212">
              <rect id="Rectángulo_26268" data-name="Rectángulo 26268" width="2.685" height="5.505" transform="translate(605.75 340.373)" fill="#373250"/>
              <rect id="Rectángulo_26269" data-name="Rectángulo 26269" width="2.686" height="5.505" transform="translate(575.171 340.373)" fill="#373250"/>
              <g id="Grupo_103199" data-name="Grupo 103199">
                <g id="Grupo_103195" data-name="Grupo 103195">
                  <path id="Trazado_164259" data-name="Trazado 164259" d="M581.07,352.105h21.573a1.733,1.733,0,0,0,0-3.466H581.07a1.733,1.733,0,1,0,0,3.466Z" fill="#fff"/>
                </g>
                <g id="Grupo_103198" data-name="Grupo 103198">
                  <g id="Grupo_103196" data-name="Grupo 103196">
                    <path id="Trazado_164260" data-name="Trazado 164260" d="M609.873,350.355a2.677,2.677,0,0,0-2.674-2.672v-4.005a6.678,6.678,0,1,1,0,13.356v-4.005A2.677,2.677,0,0,0,609.873,350.355Z" fill="#484172"/>
                    <path id="Trazado_164261" data-name="Trazado 164261" d="M607.2,343.678v4.005a2.673,2.673,0,0,0,0,5.346v4.005a6.678,6.678,0,0,1,0-13.356Z" fill="#373250"/>
                  </g>
                  <g id="Grupo_103197" data-name="Grupo 103197">
                    <path id="Trazado_164262" data-name="Trazado 164262" d="M576.514,343.678v4.005a2.673,2.673,0,1,0,0,5.346v4.005a6.678,6.678,0,1,1,0-13.356Z" fill="#373250"/>
                    <path id="Trazado_164263" data-name="Trazado 164263" d="M579.189,350.355a2.677,2.677,0,0,0-2.675-2.672v-4.005a6.678,6.678,0,1,1,0,13.356v-4.005A2.678,2.678,0,0,0,579.189,350.355Z" fill="#484172"/>
                  </g>
                  <path id="Trazado_164264" data-name="Trazado 164264" d="M551.338,308.7a2,2,0,0,1,2-1.955H565.8a2,2,0,0,1,1.926,1.452l4.518,29.7H614.2a2,2,0,0,1,2,2c0,.021-.007.041-.007.061a2,2,0,0,1-2,1.941H570.73a2,2,0,0,1-1.926-1.452l-4.518-29.7h-10.95a2,2,0,0,1-2-2A.369.369,0,0,1,551.338,308.7Z" fill="#484172"/>
                </g>
              </g>
              <g id="Grupo_103211" data-name="Grupo 103211">
                <g id="Grupo_103200" data-name="Grupo 103200">
                  <path id="Trazado_164265" data-name="Trazado 164265" d="M588.02,315.165v-7.843a.94.94,0,0,1,.333-.719l1.262-1.075a.945.945,0,0,1,.612-.225h7.846a.95.95,0,0,1,.674.283l1.144,1.165a.945.945,0,0,1,.27.661v7.753a.944.944,0,0,1-.944.944H588.964A.944.944,0,0,1,588.02,315.165Zm10.252-7.366-.595-.607h-7.1l-.665.566v6.462h8.363Z" fill="#373250"/>
                </g>
                <g id="Grupo_103201" data-name="Grupo 103201">
                  <path id="Trazado_164266" data-name="Trazado 164266" d="M611.18,310.167a2.7,2.7,0,0,1,2.7,2.7v20.782a2.7,2.7,0,0,1-2.7,2.7H594.091V310.167Z" fill="#e9bc2e"/>
                  <path id="Trazado_164267" data-name="Trazado 164267" d="M577,310.167h17.088v26.178H577a2.7,2.7,0,0,1-2.7-2.7V312.865A2.7,2.7,0,0,1,577,310.167Z" fill="#e9ae26"/>
                </g>
                <g id="Grupo_103204" data-name="Grupo 103204">
                  <g id="Grupo_103202" data-name="Grupo 103202">
                    <rect id="Rectángulo_26270" data-name="Rectángulo 26270" width="29.803" height="1.079" transform="translate(579.19 316.697)" fill="#484172"/>
                  </g>
                  <g id="Grupo_103203" data-name="Grupo 103203">
                    <rect id="Rectángulo_26271" data-name="Rectángulo 26271" width="29.803" height="1.079" transform="translate(579.19 317.689)" fill="#373250"/>
                  </g>
                </g>
                <g id="Grupo_103207" data-name="Grupo 103207">
                  <g id="Grupo_103205" data-name="Grupo 103205">
                    <rect id="Rectángulo_26272" data-name="Rectángulo 26272" width="29.803" height="1.079" transform="translate(579.19 320.807)" fill="#484172"/>
                  </g>
                  <g id="Grupo_103206" data-name="Grupo 103206">
                    <rect id="Rectángulo_26273" data-name="Rectángulo 26273" width="29.803" height="1.079" transform="translate(579.19 321.798)" fill="#373250"/>
                  </g>
                </g>
                <g id="Grupo_103210" data-name="Grupo 103210">
                  <g id="Grupo_103208" data-name="Grupo 103208">
                    <rect id="Rectángulo_26274" data-name="Rectángulo 26274" width="29.803" height="1.079" transform="translate(579.19 324.916)" fill="#484172"/>
                  </g>
                  <g id="Grupo_103209" data-name="Grupo 103209">
                    <rect id="Rectángulo_26275" data-name="Rectángulo 26275" width="29.803" height="1.079" transform="translate(579.19 325.908)" fill="#373250"/>
                  </g>
                </g>
                <rect id="Rectángulo_26276" data-name="Rectángulo 26276" width="3.998" height="26.178" transform="translate(579.19 310.167)" fill="#fff"/>
                <rect id="Rectángulo_26277" data-name="Rectángulo 26277" width="3.998" height="26.178" transform="translate(604.995 310.167)" fill="#fff"/>
                <rect id="Rectángulo_26278" data-name="Rectángulo 26278" width="5.008" height="1.17" transform="translate(603.984 336.345)" fill="#373250"/>
                <rect id="Rectángulo_26279" data-name="Rectángulo 26279" width="5.009" height="1.17" transform="translate(579.19 336.345)" fill="#373250"/>
              </g>
            </g>
          </g>
          <g id="Grupo_103222" data-name="Grupo 103222">
            <path id="Trazado_164268" data-name="Trazado 164268" d="M723.3,350.45H678.158a5.44,5.44,0,0,0-5.434,5.434v8.359h-14.4a5.44,5.44,0,0,0-5.434,5.434v19.448a5.44,5.44,0,0,0,5.434,5.434h45.145a5.44,5.44,0,0,0,5.435-5.434v-8.292l1.811.021v-.088H723.3a5.441,5.441,0,0,0,5.434-5.434V355.884A5.44,5.44,0,0,0,723.3,350.45Z" fill="#7b7b7b" opacity="0.7" style="mix-blend-mode: multiply;isolation: isolate"/>
            <g id="Grupo_103221" data-name="Grupo 103221">
              <g id="Grupo_103217" data-name="Grupo 103217">
                <path id="Rectángulo_26280" data-name="Rectángulo 26280" d="M5.435,0H50.579a5.434,5.434,0,0,1,5.434,5.434V24.882a5.434,5.434,0,0,1-5.434,5.434H5.434A5.434,5.434,0,0,1,0,24.882V5.435A5.435,5.435,0,0,1,5.435,0Z" transform="translate(671.938 349.664)" fill="#373250"/>
                <g id="Grupo_103214" data-name="Grupo 103214">
                  <path id="Trazado_164269" data-name="Trazado 164269" d="M722.517,350.569H699.945v28.505h22.572a4.528,4.528,0,0,0,4.529-4.528V355.1A4.529,4.529,0,0,0,722.517,350.569Z" fill="#e4e4e4"/>
                  <path id="Trazado_164270" data-name="Trazado 164270" d="M677.373,350.569a4.529,4.529,0,0,0-4.529,4.529v19.448a4.528,4.528,0,0,0,4.529,4.528h22.572V350.569Z" fill="#fff"/>
                </g>
                <g id="Grupo_103215" data-name="Grupo 103215">
                  <rect id="Rectángulo_26281" data-name="Rectángulo 26281" width="20.918" height="2.309" transform="translate(675.935 358.809)" fill="#373250"/>
                  <rect id="Rectángulo_26282" data-name="Rectángulo 26282" width="14.023" height="2.309" transform="translate(682.83 363.966)" fill="#373250"/>
                  <rect id="Rectángulo_26283" data-name="Rectángulo 26283" width="7.011" height="2.31" transform="translate(689.843 368.525)" fill="#373250"/>
                </g>
                <g id="Grupo_103216" data-name="Grupo 103216">
                  <rect id="Rectángulo_26284" data-name="Rectángulo 26284" width="20.918" height="2.309" transform="translate(703.035 358.809)" fill="#373250"/>
                  <rect id="Rectángulo_26285" data-name="Rectángulo 26285" width="14.022" height="2.309" transform="translate(709.931 363.966)" fill="#373250"/>
                  <rect id="Rectángulo_26286" data-name="Rectángulo 26286" width="7.01" height="2.31" transform="translate(716.943 368.525)" fill="#373250"/>
                </g>
              </g>
              <path id="Trazado_164271" data-name="Trazado 164271" d="M671.938,361.646h30.741a7.253,7.253,0,0,1,7.246,7.245v11.178l-37.987-.441Z" fill="#5b5b5b" opacity="0.21" style="mix-blend-mode: multiply;isolation: isolate"/>
              <rect id="Rectángulo_26287" data-name="Rectángulo 26287" width="56.013" height="30.316" rx="5.434" transform="translate(652.1 363.457)" fill="#373250"/>
              <g id="Grupo_103218" data-name="Grupo 103218">
                <path id="Trazado_164272" data-name="Trazado 164272" d="M702.679,364.363H680.106v28.505h22.573a4.529,4.529,0,0,0,4.529-4.529V368.891A4.528,4.528,0,0,0,702.679,364.363Z" fill="#e4e4e4"/>
                <path id="Trazado_164273" data-name="Trazado 164273" d="M657.535,364.363a4.529,4.529,0,0,0-4.529,4.528v19.448a4.529,4.529,0,0,0,4.529,4.529h22.571V364.363Z" fill="#fff"/>
              </g>
              <g id="Grupo_103219" data-name="Grupo 103219">
                <path id="Trazado_164274" data-name="Trazado 164274" d="M702.679,391.283H657.535a2.947,2.947,0,0,1-2.944-2.944V368.891a2.946,2.946,0,0,1,2.944-2.943h45.144a2.947,2.947,0,0,1,2.945,2.943v19.448A2.948,2.948,0,0,1,702.679,391.283ZM657.535,366.4a2.494,2.494,0,0,0-2.491,2.491v19.448a2.493,2.493,0,0,0,2.491,2.491h45.144a2.493,2.493,0,0,0,2.491-2.491V368.891a2.494,2.494,0,0,0-2.491-2.491Z" fill="#373250"/>
              </g>
              <path id="Trazado_164275" data-name="Trazado 164275" d="M701.982,379.272c-.475-.414-1.109-.961-1.768-1.518v-.942l-1.155-.874v.856c-.242-.2-.476-.385-.7-.56v-.686l-.675-.466v.635c-.089-.066-.174-.126-.253-.181a6.275,6.275,0,0,1-2.117-2.884,9.761,9.761,0,0,0-.345-2.085c-.172-.545-.743-1.866-1.314-1.866s-1.141,1.321-1.314,1.866a9.773,9.773,0,0,0-.344,2.087,6.285,6.285,0,0,1-2.118,2.882c-.078.055-.164.115-.251.181v-.635l-.677.466v.686c-.221.175-.456.363-.7.56v-.856l-1.152.874v.942c-.66.557-1.294,1.1-1.768,1.518-.5.435-.825.723-.825.723l.491.358.22.159,2.28-.536v.284c0,.072.081.132.179.132s.18-.06.18-.132v-.368l1.314-.31v.265c0,.048.053.087.118.087s.12-.039.12-.087v-.32l2.684-.631c.254,3.643.712,6.954.712,6.954a21.01,21.01,0,0,0-1.823,1.508,1.565,1.565,0,0,0-.5.956l2.858-.47a1.412,1.412,0,0,0,.083.409c.08.194.235.314.235.264,0,.05.157-.07.235-.264a1.447,1.447,0,0,0,.084-.408l2.859.469a1.573,1.573,0,0,0-.5-.956,21.062,21.062,0,0,0-1.827-1.508s.461-3.311.716-6.954l2.682.631v.32c0,.048.053.087.12.087s.118-.039.118-.087v-.265l1.315.31v.368c0,.072.08.132.18.132s.179-.06.179-.132v-.284l2.28.536.219-.159.492-.358S702.481,379.707,701.982,379.272Z" fill="#373250"/>
              <path id="Trazado_164276" data-name="Trazado 164276" d="M694.174,386.96l-.014-.169-.506.083-.5-.082-.014.167-.371.061c.2-.161.886-.675.886-.675l.309.231c.171.128.374.283.58.445Zm-.517-1.585c-.123-.943-.459-3.652-.66-6.542l-.074-1.061-2.845.668-3.294.774c.286-.246,1.223-1.04,1.223-1.04v-.015l1.8-1.448.591-.431a7.159,7.159,0,0,0,2.454-3.321l.041-.115.008-.121a8.912,8.912,0,0,1,.306-1.884,4.961,4.961,0,0,1,.45-.992,4.888,4.888,0,0,1,.451.993,8.775,8.775,0,0,1,.3,1.881l.01.123.042.115a7.179,7.179,0,0,0,2.453,3.322l.558.407s.774.614,1.012.808l.822.669v.009s.936.794,1.221,1.04l-3.294-.775-2.844-.668-.074,1.062C694.116,381.723,693.78,384.433,693.657,385.375Z" fill="#f6c83c"/>
              <g id="Grupo_103220" data-name="Grupo 103220">
                <rect id="Rectángulo_26288" data-name="Rectángulo 26288" width="20.918" height="2.309" transform="translate(657.003 372.602)" fill="#373250"/>
                <rect id="Rectángulo_26289" data-name="Rectángulo 26289" width="14.023" height="2.31" transform="translate(663.898 377.759)" fill="#373250"/>
                <rect id="Rectángulo_26290" data-name="Rectángulo 26290" width="7.01" height="2.309" transform="translate(670.911 382.319)" fill="#373250"/>
              </g>
            </g>
          </g>
          <g id="Grupo_103225" data-name="Grupo 103225">
            <path id="Trazado_164277" data-name="Trazado 164277" d="M698.728,156.644h-4.022v-2.752h6.706c3.019,0,7.355,3.192,7.355,7.129l-.022.092.224,2.891h11.91q-.068-1.476-.205-2.891c-1.191-12.124-6.908-20.79-30.439-20.79s-29.249,8.666-30.439,20.79q-.138,1.416-.205,2.891H671.5l.224-2.891-.023-.092c0-3.937,4.335-7.129,7.356-7.129h6.706v2.752h-4.175c-2.6,0-5.651,2.276-6.8,5.081l-9.05,22.094v7.337a2.838,2.838,0,0,0,2.548,3.058h43.742a2.838,2.838,0,0,0,2.549-3.058v-7.337l-9.049-22.094C704.379,158.919,701.334,156.644,698.728,156.644Z" fill="#7b7b7b" opacity="0.7" style="mix-blend-mode: multiply;isolation: isolate"/>
            <g id="Grupo_103224" data-name="Grupo 103224">
              <path id="Trazado_164278" data-name="Trazado 164278" d="M689.449,183.033h24.343l-9.05-22.094c-1.149-2.806-4.193-5.081-6.8-5.081h-8.493Z" fill="#373250"/>
              <path id="Trazado_164279" data-name="Trazado 164279" d="M680.8,155.858c-2.6,0-5.651,2.276-6.8,5.081l-9.05,22.094h24.5V155.858Z" fill="#484172"/>
              <g id="Grupo_103223" data-name="Grupo 103223">
                <path id="Trazado_164280" data-name="Trazado 164280" d="M658.8,163.218h11.91l.224-2.89H659.01Q658.872,161.742,658.8,163.218Z" fill="#484172"/>
                <path id="Trazado_164281" data-name="Trazado 164281" d="M708.183,163.218h11.91q-.066-1.476-.2-2.89h-11.93Z" fill="#373250"/>
              </g>
              <rect id="Rectángulo_26291" data-name="Rectángulo 26291" width="8.942" height="8.34" transform="translate(684.978 147.518)" fill="#373250"/>
              <path id="Trazado_164282" data-name="Trazado 164282" d="M664.953,190.37a2.838,2.838,0,0,0,2.548,3.058h21.948V183.033h-24.5Z" fill="#edc752"/>
              <path id="Trazado_164283" data-name="Trazado 164283" d="M711.243,193.428a2.838,2.838,0,0,0,2.549-3.058v-7.337H689.449v10.395Z" fill="#e8b106"/>
              <path id="Trazado_164284" data-name="Trazado 164284" d="M659.01,160.328h11.929l-.023-.093c0-3.937,4.335-7.129,7.356-7.129h11.177V139.537C665.919,139.537,660.2,148.2,659.01,160.328Z" fill="#edc752"/>
              <path id="Trazado_164285" data-name="Trazado 164285" d="M707.981,160.235l-.022.093h11.93c-1.192-12.125-6.909-20.791-30.44-20.791v13.569h11.177C703.645,153.106,707.981,156.3,707.981,160.235Z" fill="#e8b106"/>
              <path id="Trazado_164286" data-name="Trazado 164286" d="M698.777,171.227c0,3.4-4.176,6.164-9.328,6.164s-9.328-2.759-9.328-6.164,4.176-6.164,9.328-6.164S698.777,167.824,698.777,171.227Z" fill="#d6d6d6"/>
              <path id="Trazado_164287" data-name="Trazado 164287" d="M698.777,169.445c0,3.4-4.176,6.165-9.328,6.165s-9.328-2.761-9.328-6.165,4.176-6.165,9.328-6.165S698.777,166.041,698.777,169.445Z" fill="#fff"/>
            </g>
          </g>
          <g id="Grupo_103242" data-name="Grupo 103242">
            <g id="Grupo_103226" data-name="Grupo 103226" opacity="0.7" style="mix-blend-mode: multiply;isolation: isolate">
              <path id="Trazado_164288" data-name="Trazado 164288" d="M802.925,246.281l-2.862.039-1.566-1.6.227.057,1.674-9.369,1.671-4.687-1.1-2.941-15.673-1.147-.807.078.074-.76h12.823l.719.4,4.212.07v-3.089l-1.574-.16-.178-1.659-1.755-.415-.726-.182-2.688.539h0l-8.626-2.35-1.887-6.227-1.265-5.739-.389-.071.261-1.815,1.638.465,1.892-5.007-1.815-2.932,1.158-2.269-4.448-.769-3.438,1.249-.885,3.883,1.568,4.57-.231,1.842-.526-.1-2.632,3.374c-1.347-3.406-7.759-4.586-7.759-4.586l1.68,33.864v12.928h2.173V238.838h12.418a5.793,5.793,0,0,1,3.379,5.315v7.613h2.357v-7.613a7.883,7.883,0,0,0-1.954-5.315h5.284l.64-3.95.841.4-1.539,9.489,1.561.245h0l-1.561-.245L791.943,248v1.65l2.192.139,3.444.071,3.1.295,3.01-1.065-.72-1.22.742-.262Zm-5.676-1.875-.055-.009,0-.005Zm-22.484-13.877,1.428,3.428a5.542,5.542,0,0,1-1.3-2.514A8.611,8.611,0,0,1,774.765,230.529Zm4.632-26.347,1.1.22.009,0-1.11-.223Z" fill="#7b7b7b"/>
              <path id="Trazado_164289" data-name="Trazado 164289" d="M807.1,187.212l-.082,0a9.485,9.485,0,0,0,0,18.97l.082,0a9.487,9.487,0,1,0,0-18.974Z" fill="#7b7b7b"/>
            </g>
            <g id="Grupo_103241" data-name="Grupo 103241">
              <g id="Grupo_103239" data-name="Grupo 103239">
                <g id="Grupo_103230" data-name="Grupo 103230">
                  <path id="Trazado_164290" data-name="Trazado 164290" d="M794.436,243.3l3.139.494,1.7,1.739,2.862-.04.781,1.325-2.456.869-4.281-1.009-1.474.444-1.755-.1Z" fill="#212121"/>
                  <path id="Trazado_164291" data-name="Trazado 164291" d="M800.148,231.628l-2.21,12.363-3.154-.793.721-8-5.637-2.686,6-1.306Z" fill="#2d2850"/>
                  <g id="Grupo_103229" data-name="Grupo 103229">
                    <path id="Trazado_164292" data-name="Trazado 164292" d="M783.209,213.479l1.961,8.677,9.4,1.169.034-2.659-8.626-2.35-2.916-9.622-2.274.727Z" fill="#e8b106"/>
                    <path id="Trazado_164293" data-name="Trazado 164293" d="M794.608,220.665l2.688-.54.727.182,1.755.415.37,3.463-5.574-.862Z" fill="#e4a57d"/>
                    <path id="Trazado_164294" data-name="Trazado 164294" d="M782.344,206.95l-4.22-1.316.286-2.278,4.328.867Z" fill="#e4b496"/>
                    <path id="Trazado_164295" data-name="Trazado 164295" d="M779.713,203.616l4.627,1.312,1.893-5.006-2.23-3.6-5.232-.74-1.49,3.5,1.129,4.278Z" fill="#e4b496"/>
                    <g id="Grupo_103227" data-name="Grupo 103227">
                      <path id="Trazado_164296" data-name="Trazado 164296" d="M777.615,205.4l-3.275,4.2-1.355,17.4,6.053-.584V205.659Z" fill="#71b7d1"/>
                      <path id="Trazado_164297" data-name="Trazado 164297" d="M782.83,206.35l-3.793-.691v20.752l4.661-.45.43-4.466.27-8.03Z" fill="#8cc6de"/>
                    </g>
                    <path id="Trazado_164298" data-name="Trazado 164298" d="M785.576,194.721l-4.448-.768-3.438,1.249-.885,3.883,1.568,4.57,1.208-1.312-.147-1.819-.4-1.22,1.263-.16.787,1.169,1.322-2.259,2.007-1.063Z" fill="#383838"/>
                    <path id="Trazado_164299" data-name="Trazado 164299" d="M781.58,210.744l4,9.785,10.5,1.966.714,2.67H781.756l-2.717-8.331-1.349-5.462,1.349-4.034Z" fill="#edc752"/>
                    <path id="Trazado_164300" data-name="Trazado 164300" d="M792.5,243.991l3.846.605,2.085,2.131,3.506-.048.957,1.624-3.009,1.065-3.1-.3-3.444-.07-2.192-.14v-1.65Z" fill="#383838"/>
                    <path id="Trazado_164301" data-name="Trazado 164301" d="M795.865,222.483l2.086-.7.749.475,2.829.287v3.089l-4.212-.07-.739-.407Z" fill="#e4b496"/>
                    <g id="Grupo_103228" data-name="Grupo 103228">
                      <path id="Trazado_164302" data-name="Trazado 164302" d="M773.978,229.742l1.785,4.285,8.85.94,9.766-2.548L792.5,243.991l2.025.318,3.41-14.817Z" fill="#373250"/>
                      <path id="Trazado_164303" data-name="Trazado 164303" d="M801.283,229.935l-1.1-2.941-15.673-1.147L773,226.959l.978,2.783,23.96-.249-3.41,14.817,1.545.243Z" fill="#484172"/>
                    </g>
                    <path id="Trazado_164304" data-name="Trazado 164304" d="M768.9,238.052h23.656l.788-4.864H768.9Z" fill="#fff"/>
                    <path id="Trazado_164305" data-name="Trazado 164305" d="M773.769,238.052l3.322-3.511a6.177,6.177,0,0,1-2.985-3.884,44.738,44.738,0,0,1-.337-4.81s1.464-11.82,1.464-15.783c0-4.4-8.009-5.876-8.009-5.876l1.681,33.864Z" fill="#fff"/>
                  </g>
                </g>
                <g id="Grupo_103238" data-name="Grupo 103238">
                  <g id="Grupo_103237" data-name="Grupo 103237">
                    <g id="Grupo_103232" data-name="Grupo 103232">
                      <g id="Grupo_103231" data-name="Grupo 103231">
                        <path id="Trazado_164306" data-name="Trazado 164306" d="M806.313,186.426l-.082,0v1.826c.028,0,.055,0,.082,0a7.662,7.662,0,1,1,0,15.325c-.027,0-.054,0-.082,0V205.4l.082,0a9.487,9.487,0,1,0,0-18.974Z" fill="#373250"/>
                        <path id="Trazado_164307" data-name="Trazado 164307" d="M798.651,195.913a7.67,7.67,0,0,1,7.58-7.659v-1.826a9.485,9.485,0,0,0,0,18.97v-1.826A7.669,7.669,0,0,1,798.651,195.913Z" fill="#484172"/>
                        <path id="Trazado_164308" data-name="Trazado 164308" d="M806.313,188.615a7.3,7.3,0,1,1,0,14.6c-.027,0-.054,0-.082,0v.365c.028,0,.055,0,.082,0a7.662,7.662,0,1,0,0-15.325c-.027,0-.054,0-.082,0v.365C806.259,188.619,806.286,188.615,806.313,188.615Z" fill="#e0e0e0"/>
                        <path id="Trazado_164309" data-name="Trazado 164309" d="M798.651,195.913a7.669,7.669,0,0,0,7.58,7.659v-.365a7.294,7.294,0,0,1,0-14.588v-.365A7.67,7.67,0,0,0,798.651,195.913Z" fill="#fff"/>
                        <path id="Trazado_164310" data-name="Trazado 164310" d="M799.016,195.913a7.3,7.3,0,0,0,7.215,7.294V188.619A7.3,7.3,0,0,0,799.016,195.913Z" fill="#8cc6de"/>
                        <path id="Trazado_164311" data-name="Trazado 164311" d="M813.611,195.913a7.306,7.306,0,0,0-7.3-7.3c-.027,0-.054,0-.082,0v14.588c.028,0,.055,0,.082,0A7.306,7.306,0,0,0,813.611,195.913Z" fill="#71b7d1"/>
                      </g>
                    </g>
                    <g id="Grupo_103236" data-name="Grupo 103236">
                      <g id="Grupo_103234" data-name="Grupo 103234">
                        <g id="Grupo_103233" data-name="Grupo 103233">
                          <path id="Trazado_164312" data-name="Trazado 164312" d="M806.261,196.635l4.932-3.93Z"/>
                        </g>
                        <path id="Trazado_164313" data-name="Trazado 164313" d="M806.261,197.23a.595.595,0,0,1-.371-1.06l4.933-3.93a.595.595,0,0,1,.741.93l-4.932,3.93A.6.6,0,0,1,806.261,197.23Z" fill="#fff"/>
                      </g>
                      <g id="Grupo_103235" data-name="Grupo 103235">
                        <path id="Trazado_164314" data-name="Trazado 164314" d="M805.681,196.767l-.638-5.5,1.8,5.232a.6.6,0,1,1-1.132.389A.678.678,0,0,1,805.681,196.767Z" fill="#fff"/>
                      </g>
                    </g>
                  </g>
                  <path id="Trazado_164315" data-name="Trazado 164315" d="M806.914,189.525a.626.626,0,1,1-.626-.626A.627.627,0,0,1,806.914,189.525Z" fill="#fff"/>
                  <path id="Trazado_164316" data-name="Trazado 164316" d="M806.914,202.164a.626.626,0,1,1-.626-.625A.627.627,0,0,1,806.914,202.164Z" fill="#fff"/>
                  <path id="Trazado_164317" data-name="Trazado 164317" d="M813.3,195.913a.626.626,0,1,1-.626-.626A.627.627,0,0,1,813.3,195.913Z" fill="#fff"/>
                  <path id="Trazado_164318" data-name="Trazado 164318" d="M800.524,195.913a.626.626,0,1,1-.626-.626A.627.627,0,0,1,800.524,195.913Z" fill="#fff"/>
                </g>
              </g>
              <rect id="Rectángulo_26292" data-name="Rectángulo 26292" width="2.172" height="12.929" transform="translate(768.905 238.052)" fill="#fff"/>
              <g id="Grupo_103240" data-name="Grupo 103240">
                <path id="Trazado_164319" data-name="Trazado 164319" d="M789.232,250.98h-2.358v-7.612c0-4.47-4.264-5.7-4.446-5.75l.613-2.277a8.4,8.4,0,0,1,6.191,8.027Z" fill="#fff"/>
              </g>
            </g>
          </g>
          <g id="Grupo_103252" data-name="Grupo 103252">
            <path id="Trazado_164320" data-name="Trazado 164320" d="M625.446,224.251H613.072l5.4-2.866.063-.038a2.686,2.686,0,0,0,1.363-2.779,2.886,2.886,0,0,0-.86-1.55,3.236,3.236,0,0,0-1.592-.832,3.135,3.135,0,0,0-3.285,1.507l-.035.056-2.715,4.862-2.715-4.862-.033-.056a3.613,3.613,0,0,0-1.436-1.275V205.581H595.677v-7.792a2.7,2.7,0,0,0-2.687-2.687h-6.771a2.7,2.7,0,0,0-2.687,2.687v7.792H571.984v12.141h-5.546v-5.393a1.866,1.866,0,0,0-1.86-1.86h-4.686a1.865,1.865,0,0,0-1.859,1.86v5.393H550.04V245H624.5V229.52h.944Zm-66-11.922a.446.446,0,0,1,.446-.445h4.686a.447.447,0,0,1,.447.445v5.393h-5.579Zm47.78,10.584,2.522,1.338h-2.522Zm8.151-4.414a1.662,1.662,0,0,1,2.653-.424,1.411,1.411,0,0,1,.432.751,1.307,1.307,0,0,1-.713,1.286l-4.651,2.469Zm-7.934,0,2.28,4.082-2.5-1.325v-3.032A2.509,2.509,0,0,1,607.443,218.5Zm-21.868-20.71a.646.646,0,0,1,.644-.644h6.771a.646.646,0,0,1,.645.644v7.792h-8.06Z" fill="#7b7b7b" fill-rule="evenodd" opacity="0.7" style="mix-blend-mode: multiply;isolation: isolate"/>
            <g id="Grupo_103251" data-name="Grupo 103251">
              <g id="Grupo_103249" data-name="Grupo 103249">
                <g id="Grupo_103245" data-name="Grupo 103245">
                  <rect id="Rectángulo_26293" data-name="Rectángulo 26293" width="24.39" height="27.282" transform="translate(549.254 216.936)" fill="#edc02b"/>
                  <g id="Grupo_103243" data-name="Grupo 103243">
                    <path id="Trazado_164321" data-name="Trazado 164321" d="M557.869,233.688c.047.034.167,0,.33-.069a4.843,4.843,0,0,1,.7,1.459.729.729,0,0,0,.28-.64l-.048-1.368c.442-.286.761-.548.924-.668l1.871-1.38c.578.535.885,3.193,1.048,4.038.272.013.39-.414.432-.714l-.016-1.062-.005-.292-.022-1.5a1.661,1.661,0,0,0,.451-.259l.122-.106-.25-.287-.121.106a1.581,1.581,0,0,0-.207.232l.006-1.317c-.021-.193.113-.3.277-.45l.019-.017.631-.647c.307-.314.98-1.155.834-1.37-.192-.173-1.12.374-1.473.634l-.729.535-.019.017c-.167.142-.3.26-.485.212l-1.3-.179a1.57,1.57,0,0,0,.258-.172l.122-.106-.249-.286-.122.1a1.65,1.65,0,0,0-.319.41l-1.479-.231-.288-.046-1.051-.164c-.3,0-.741.058-.766.328.813.279,3.4.955,3.851,1.6l-1.628,1.661c-.141.143-.446.424-.791.82l-1.348-.239a.731.731,0,0,0-.672.189,4.805,4.805,0,0,1,1.346.9C557.888,233.521,557.841,233.636,557.869,233.688Z" fill="#484172" fill-rule="evenodd"/>
                    <path id="Trazado_164322" data-name="Trazado 164322" d="M556.944,225.391a6.869,6.869,0,1,1-2.347,4.7,6.849,6.849,0,0,1,2.347-4.7Zm4.968-1.4a6.6,6.6,0,1,0,4.523,2.257A6.578,6.578,0,0,0,561.912,223.99Z" fill="#484172" fill-rule="evenodd"/>
                  </g>
                  <g id="Grupo_103244" data-name="Grupo 103244">
                    <path id="Trazado_164323" data-name="Trazado 164323" d="M559.106,209.684h4.686a1.865,1.865,0,0,1,1.86,1.859v5.393h-1.413v-5.393a.447.447,0,0,0-.447-.445h-4.686a.447.447,0,0,0-.446.445v5.393h-1.413v-5.393A1.865,1.865,0,0,1,559.106,209.684Z" fill="#373250" fill-rule="evenodd"/>
                    <rect id="Rectángulo_26294" data-name="Rectángulo 26294" width="1.115" height="1.116" transform="translate(557.396 217.587)" fill="#373250"/>
                    <rect id="Rectángulo_26295" data-name="Rectángulo 26295" width="1.116" height="1.116" transform="translate(564.422 217.587)" fill="#373250"/>
                  </g>
                </g>
                <g id="Grupo_103248" data-name="Grupo 103248">
                  <rect id="Rectángulo_26296" data-name="Rectángulo 26296" width="35.243" height="39.423" transform="translate(571.198 204.795)" fill="#fff"/>
                  <g id="Grupo_103246" data-name="Grupo 103246">
                    <path id="Trazado_164324" data-name="Trazado 164324" d="M585.883,223.462c.043.032.155,0,.3-.065a4.466,4.466,0,0,1,.653,1.352.674.674,0,0,0,.26-.592l-.044-1.268c.408-.265.7-.507.854-.619l1.734-1.278c.536.495.821,2.958.972,3.74.251.014.361-.382.4-.66l-.015-.984,0-.271-.021-1.387a1.517,1.517,0,0,0,.418-.24l.113-.1-.232-.266-.112.1a1.5,1.5,0,0,0-.191.215l.005-1.22c-.02-.18.1-.282.257-.417l.018-.015.585-.6c.284-.291.907-1.071.771-1.269-.177-.162-1.036.346-1.364.587l-.676.5-.018.016c-.154.131-.273.239-.448.2l-1.209-.165a1.405,1.405,0,0,0,.239-.16l.114-.1-.232-.266-.113.1a1.591,1.591,0,0,0-.295.38l-1.371-.214-.266-.041-.974-.153c-.28,0-.687.054-.71.3.755.258,3.153.884,3.569,1.485l-1.509,1.538c-.131.133-.412.392-.732.76l-1.249-.221a.676.676,0,0,0-.623.173,4.5,4.5,0,0,1,1.247.837C585.9,223.308,585.857,223.412,585.883,223.462Z" fill="#484172" fill-rule="evenodd"/>
                    <path id="Trazado_164325" data-name="Trazado 164325" d="M585.026,215.775a6.364,6.364,0,1,1-2.175,4.359,6.346,6.346,0,0,1,2.175-4.359Zm4.6-1.3a6.118,6.118,0,1,0,4.191,2.091A6.1,6.1,0,0,0,589.628,214.476Z" fill="#484172" fill-rule="evenodd"/>
                  </g>
                  <g id="Grupo_103247" data-name="Grupo 103247">
                    <path id="Trazado_164326" data-name="Trazado 164326" d="M585.434,194.316h6.77A2.7,2.7,0,0,1,594.891,197v7.791h-2.042V197a.646.646,0,0,0-.645-.645h-6.77a.647.647,0,0,0-.645.645v7.791h-2.043V197A2.7,2.7,0,0,1,585.434,194.316Z" fill="#373250" fill-rule="evenodd"/>
                    <rect id="Rectángulo_26297" data-name="Rectángulo 26297" width="1.613" height="1.612" transform="translate(582.961 205.738)" fill="#373250"/>
                    <rect id="Rectángulo_26298" data-name="Rectángulo 26298" width="1.613" height="1.612" transform="translate(593.114 205.738)" fill="#373250"/>
                  </g>
                </g>
              </g>
              <g id="Grupo_103250" data-name="Grupo 103250">
                <rect id="Rectángulo_26299" data-name="Rectángulo 26299" width="25.597" height="16.596" transform="translate(598.119 227.622)" fill="#e48344"/>
                <rect id="Rectángulo_26300" data-name="Rectángulo 26300" width="27.486" height="5.269" transform="translate(597.174 223.465)" fill="#71b7d1"/>
                <path id="Trazado_164327" data-name="Trazado 164327" d="M609.907,223.11l3.432-6.147.035-.056a3.136,3.136,0,0,1,3.285-1.507,3.236,3.236,0,0,1,1.592.832,2.887,2.887,0,0,1,.86,1.55,2.687,2.687,0,0,1-1.362,2.779l-.064.038-6.615,3.512-.266-.5-.9-.5Zm4.685-5.4-2.28,4.082,4.651-2.468a1.307,1.307,0,0,0,.713-1.287,1.412,1.412,0,0,0-.432-.751,1.661,1.661,0,0,0-2.652.424Z" fill="#edc02b" fill-rule="evenodd"/>
                <path id="Trazado_164328" data-name="Trazado 164328" d="M611.342,223.11l-3.433-6.147-.033-.056a3.14,3.14,0,0,0-3.286-1.507,3.241,3.241,0,0,0-1.592.832,2.887,2.887,0,0,0-.86,1.55,2.685,2.685,0,0,0,1.362,2.779l.063.038,6.616,3.512.266-.5.9-.5Zm-4.685-5.4,2.28,4.082-4.65-2.468a1.309,1.309,0,0,1-.715-1.287,1.42,1.42,0,0,1,.433-.751,1.661,1.661,0,0,1,2.652.424Z" fill="#edc02b" fill-rule="evenodd"/>
                <rect id="Rectángulo_26301" data-name="Rectángulo 26301" width="3.586" height="20.753" transform="translate(608.751 223.465)" fill="#fff"/>
              </g>
            </g>
          </g>
          <g id="Grupo_103268" data-name="Grupo 103268">
            <g id="Grupo_103253" data-name="Grupo 103253" opacity="0.7" style="mix-blend-mode: multiply;isolation: isolate">
              <path id="Trazado_164329" data-name="Trazado 164329" d="M743.258,299.708h-.723a4.258,4.258,0,0,0,.607-1.992l1.181-26.055a3.886,3.886,0,0,0-3.934-3.933h-3.517a3.593,3.593,0,0,0-2.577-1.168h-1.7l.32-7.049a3.1,3.1,0,0,0-3.143-3.141h-2.81a2.873,2.873,0,0,0-2.06-.933H711.077a2.871,2.871,0,0,0-2.06.933h-2.811a3.1,3.1,0,0,0-3.142,3.141l.389,8.58a4.006,4.006,0,0,0-1.652-.363h-.088l.372-8.217a3.1,3.1,0,0,0-3.141-3.141h-2.811a2.871,2.871,0,0,0-2.059-.933H680.245a2.869,2.869,0,0,0-2.058.933h-2.81a3.1,3.1,0,0,0-3.143,3.141l.372,8.217h-.3a3.991,3.991,0,0,0-1.431.271l.384-8.488a3.1,3.1,0,0,0-3.143-3.141H665.3a2.873,2.873,0,0,0-2.06-.933H649.418a2.871,2.871,0,0,0-2.059.933h-2.811a3.1,3.1,0,0,0-3.142,3.141l.319,7.049h-1.91a3.594,3.594,0,0,0-2.578,1.168H633.72a3.884,3.884,0,0,0-3.933,3.933l1.18,26.055a4.269,4.269,0,0,0,.606,1.992h-.722a1.325,1.325,0,0,0-1.321,1.323v5.724a1.326,1.326,0,0,0,1.321,1.323h2.407L631.7,325.109h2.1l1.446-15.816h26.445l1.445,15.816h2.1l-1.557-17.031h2.408a1.327,1.327,0,0,0,1.321-1.323v-.421h.707v.421a1.327,1.327,0,0,0,1.321,1.323h2.408l-1.557,17.031h2.1l1.446-15.816h26.444l1.446,15.816h2.1l-1.556-17.031h2.405a1.327,1.327,0,0,0,1.322-1.323v-.421h.711v.421a1.327,1.327,0,0,0,1.323,1.323h2.406l-1.558,17.031h2.1l1.446-15.816h26.444l1.445,15.816h2.1l-1.558-17.031h2.408a1.328,1.328,0,0,0,1.322-1.323v-5.724A1.327,1.327,0,0,0,743.258,299.708Z" fill="#7b7b7b" fill-rule="evenodd"/>
              <path id="Trazado_164330" data-name="Trazado 164330" d="M687.055,245.725a15.213,15.213,0,1,0-15.214-15.214A15.215,15.215,0,0,0,687.055,245.725Z" fill="#7b7b7b" fill-rule="evenodd"/>
            </g>
            <g id="Grupo_103267" data-name="Grupo 103267">
              <g id="Grupo_103264" data-name="Grupo 103264">
                <rect id="Rectángulo_26302" data-name="Rectángulo 26302" width="91.682" height="28.187" transform="translate(641.464 277.361)" fill="#db7736"/>
                <path id="Trazado_164331" data-name="Trazado 164331" d="M643.762,255.584h23.566a3.1,3.1,0,0,1,3.143,3.141l-.942,20.819a3.2,3.2,0,0,1-3.142,3.143H644.705a3.205,3.205,0,0,1-3.143-3.143l-.942-20.819A3.1,3.1,0,0,1,643.762,255.584Z" fill="#e47f3e" fill-rule="evenodd"/>
                <path id="Trazado_164332" data-name="Trazado 164332" d="M649.576,262.2h11.94c1.329,0,1.98-1.16,2.416-2.415l.942-2.716c.436-1.255-1.087-2.416-2.415-2.416H648.633c-1.329,0-2.851,1.161-2.415,2.416l.942,2.716C647.6,261.038,648.246,262.2,649.576,262.2Z" fill="#db6a1f" fill-rule="evenodd"/>
                <path id="Trazado_164333" data-name="Trazado 164333" d="M674.591,255.584h23.567a3.1,3.1,0,0,1,3.141,3.141l-.942,20.819a3.2,3.2,0,0,1-3.143,3.143H675.533a3.2,3.2,0,0,1-3.141-3.143l-.944-20.819A3.1,3.1,0,0,1,674.591,255.584Z" fill="#e47f3e" fill-rule="evenodd"/>
                <path id="Trazado_164334" data-name="Trazado 164334" d="M680.4,262.2h11.942c1.328,0,1.978-1.16,2.416-2.415l.942-2.716c.436-1.255-1.088-2.416-2.415-2.416H679.459c-1.327,0-2.849,1.161-2.415,2.416l.944,2.716C678.423,261.038,679.074,262.2,680.4,262.2Z" fill="#db6a1f" fill-rule="evenodd"/>
                <path id="Trazado_164335" data-name="Trazado 164335" d="M705.421,255.584h23.567a3.1,3.1,0,0,1,3.143,3.141l-.944,20.819a3.2,3.2,0,0,1-3.143,3.143h-21.68a3.205,3.205,0,0,1-3.143-3.143l-.943-20.819A3.1,3.1,0,0,1,705.421,255.584Z" fill="#e47f3e" fill-rule="evenodd"/>
                <path id="Trazado_164336" data-name="Trazado 164336" d="M711.233,262.2h11.942c1.328,0,1.981-1.16,2.415-2.415l.944-2.716c.435-1.255-1.088-2.416-2.416-2.416H710.291c-1.329,0-2.851,1.161-2.415,2.416l.942,2.716C709.253,261.038,709.906,262.2,711.233,262.2Z" fill="#db6a1f" fill-rule="evenodd"/>
                <g id="Grupo_103263" data-name="Grupo 103263">
                  <g id="Grupo_103255" data-name="Grupo 103255">
                    <g id="Grupo_103254" data-name="Grupo 103254">
                      <path id="Trazado_164337" data-name="Trazado 164337" d="M632.934,266.942h29.5a3.883,3.883,0,0,1,3.933,3.933l-1.18,26.055a4.01,4.01,0,0,1-3.932,3.932H634.113a4.009,4.009,0,0,1-3.932-3.932L629,270.875A3.884,3.884,0,0,1,632.934,266.942Z" fill="#e48344" fill-rule="evenodd"/>
                      <path id="Trazado_164338" data-name="Trazado 164338" d="M640.209,275.22h14.946c1.663,0,2.478-1.453,3.023-3.023l1.181-3.4c.545-1.57-1.361-3.023-3.024-3.023H639.029c-1.663,0-3.567,1.453-3.023,3.023l1.18,3.4C637.732,273.767,638.547,275.22,640.209,275.22Z" fill="#db7129" fill-rule="evenodd"/>
                    </g>
                    <path id="Rectángulo_26303" data-name="Rectángulo 26303" d="M1.321,0H36.556a1.321,1.321,0,0,1,1.321,1.321V7.047A1.323,1.323,0,0,1,36.555,8.37H1.323A1.323,1.323,0,0,1,0,7.047V1.321A1.321,1.321,0,0,1,1.321,0Z" transform="translate(628.744 298.922)" fill="#db7129"/>
                  </g>
                  <g id="Grupo_103257" data-name="Grupo 103257">
                    <g id="Grupo_103256" data-name="Grupo 103256">
                      <path id="Trazado_164339" data-name="Trazado 164339" d="M671.518,266.942h29.5a3.882,3.882,0,0,1,3.932,3.933l-1.18,26.055a4.008,4.008,0,0,1-3.931,3.932H672.7a4.006,4.006,0,0,1-3.931-3.932l-1.18-26.055A3.883,3.883,0,0,1,671.518,266.942Z" fill="#e48344" fill-rule="evenodd"/>
                      <path id="Trazado_164340" data-name="Trazado 164340" d="M678.794,275.22h14.945c1.664,0,2.478-1.453,3.023-3.023l1.18-3.4c.546-1.57-1.36-3.023-3.023-3.023h-17.3c-1.663,0-3.569,1.453-3.023,3.023l1.18,3.4C676.316,273.767,677.131,275.22,678.794,275.22Z" fill="#db7129" fill-rule="evenodd"/>
                    </g>
                    <path id="Rectángulo_26304" data-name="Rectángulo 26304" d="M1.323,0H36.555a1.321,1.321,0,0,1,1.321,1.321V7.047A1.323,1.323,0,0,1,36.554,8.37H1.321A1.321,1.321,0,0,1,0,7.048V1.323A1.323,1.323,0,0,1,1.323,0Z" transform="translate(667.328 298.922)" fill="#db7129"/>
                  </g>
                  <g id="Grupo_103259" data-name="Grupo 103259">
                    <g id="Grupo_103258" data-name="Grupo 103258">
                      <path id="Trazado_164341" data-name="Trazado 164341" d="M710.107,266.942h29.5a3.886,3.886,0,0,1,3.934,3.933l-1.181,26.055a4.01,4.01,0,0,1-3.933,3.932H711.287a4.011,4.011,0,0,1-3.934-3.932l-1.18-26.055A3.886,3.886,0,0,1,710.107,266.942Z" fill="#e48344" fill-rule="evenodd"/>
                      <path id="Trazado_164342" data-name="Trazado 164342" d="M717.381,275.22h14.948c1.662,0,2.477-1.453,3.023-3.023l1.18-3.4c.544-1.57-1.362-3.023-3.023-3.023H716.2c-1.663,0-3.568,1.453-3.023,3.023l1.179,3.4C714.905,273.767,715.72,275.22,717.381,275.22Z" fill="#db7129" fill-rule="evenodd"/>
                    </g>
                    <rect id="Rectángulo_26305" data-name="Rectángulo 26305" width="37.878" height="8.37" rx="1.323" transform="translate(705.916 298.922)" fill="#db7129"/>
                  </g>
                  <g id="Grupo_103260" data-name="Grupo 103260">
                    <rect id="Rectángulo_26306" data-name="Rectángulo 26306" width="30.42" height="1.215" transform="translate(632.472 307.292)" fill="#373250"/>
                    <path id="Trazado_164343" data-name="Trazado 164343" d="M630.915,324.323l1.557-17.031,2.082.189-1.539,16.843Z" fill="#373250" fill-rule="evenodd"/>
                    <path id="Trazado_164344" data-name="Trazado 164344" d="M664.449,324.323l-1.556-17.031-2.081.189,1.539,16.843Z" fill="#373250" fill-rule="evenodd"/>
                  </g>
                  <g id="Grupo_103261" data-name="Grupo 103261">
                    <rect id="Rectángulo_26307" data-name="Rectángulo 26307" width="30.421" height="1.215" transform="translate(671.057 307.292)" fill="#373250"/>
                    <path id="Trazado_164345" data-name="Trazado 164345" d="M669.5,324.323l1.556-17.031,2.082.189-1.54,16.843Z" fill="#373250" fill-rule="evenodd"/>
                    <path id="Trazado_164346" data-name="Trazado 164346" d="M703.034,324.323l-1.556-17.031-2.082.189,1.54,16.843Z" fill="#373250" fill-rule="evenodd"/>
                  </g>
                  <g id="Grupo_103262" data-name="Grupo 103262">
                    <rect id="Rectángulo_26308" data-name="Rectángulo 26308" width="30.419" height="1.215" transform="translate(709.645 307.292)" fill="#373250"/>
                    <path id="Trazado_164347" data-name="Trazado 164347" d="M708.087,324.323l1.558-17.031,2.082.189-1.54,16.843Z" fill="#373250" fill-rule="evenodd"/>
                    <path id="Trazado_164348" data-name="Trazado 164348" d="M741.622,324.323l-1.558-17.031-2.081.189,1.539,16.843Z" fill="#373250" fill-rule="evenodd"/>
                  </g>
                </g>
              </g>
              <g id="Grupo_103266" data-name="Grupo 103266">
                <path id="Trazado_164349" data-name="Trazado 164349" d="M686.269,244.94a15.214,15.214,0,0,0,0-30.427Z" fill="#373250" fill-rule="evenodd"/>
                <path id="Trazado_164350" data-name="Trazado 164350" d="M686.269,214.513a15.214,15.214,0,1,0,0,30.427Z" fill="#484172" fill-rule="evenodd"/>
                <path id="Trazado_164351" data-name="Trazado 164351" d="M686.253,217.8a11.936,11.936,0,0,1,0,23.871Z" fill="#e0e0e0" fill-rule="evenodd"/>
                <path id="Trazado_164352" data-name="Trazado 164352" d="M686.253,241.675a11.936,11.936,0,0,1,0-23.871Z" fill="#fff" fill-rule="evenodd"/>
                <g id="Grupo_103265" data-name="Grupo 103265">
                  <path id="Trazado_164353" data-name="Trazado 164353" d="M690.62,222.917h0a.724.724,0,0,1,.263.988l-3.619,6.267a.725.725,0,0,1-.989.263h0a.722.722,0,0,1-.263-.987l3.619-6.266A.726.726,0,0,1,690.62,222.917Z" fill="#71b7d1" fill-rule="evenodd"/>
                  <path id="Trazado_164354" data-name="Trazado 164354" d="M680.412,221.365h0a.941.941,0,0,1,1.306.232l5.363,7.691a.939.939,0,0,1-.23,1.306h0a.94.94,0,0,1-1.3-.232l-5.364-7.693A.94.94,0,0,1,680.412,221.365Z" fill="#71b7d1" fill-rule="evenodd"/>
                  <path id="Trazado_164355" data-name="Trazado 164355" d="M685.037,227.995a2.126,2.126,0,1,1-.528,2.96A2.124,2.124,0,0,1,685.037,227.995Z" fill="#373250" fill-rule="evenodd"/>
                </g>
              </g>
            </g>
          </g>
          <g id="Grupo_103273" data-name="Grupo 103273">
            <g id="Grupo_103270" data-name="Grupo 103270">
              <path id="Trazado_164356" data-name="Trazado 164356" d="M794.124,304.13v-2.273H791.59l-4.547-3.573H764.116l-4.547,3.573h-2.533v2.273h.975v4.288h-.975v2.273H758.5l2.308,14.372h0l.107.665,3.822,23.808h.713v1.526h20.266v-1.526h.714l3.628-22.6.3-1.875h0l2.307-14.372h1.462v-2.273h-.975V304.13Z" fill="#7b7b7b" fill-rule="evenodd" opacity="0.7" style="mix-blend-mode: multiply;isolation: isolate"/>
              <g id="Grupo_103269" data-name="Grupo 103269">
                <path id="Trazado_164357" data-name="Trazado 164357" d="M774.794,348.75H763.947l-6.237-38.845h17.084Z" fill="#edc752" fill-rule="evenodd"/>
                <path id="Trazado_164358" data-name="Trazado 164358" d="M760.018,324.278h14.776v10.9H761.771Z" fill="#484172" fill-rule="evenodd"/>
                <rect id="Rectángulo_26309" data-name="Rectángulo 26309" width="10.134" height="1.527" transform="translate(764.661 348.75)" fill="#484172"/>
                <rect id="Rectángulo_26310" data-name="Rectángulo 26310" width="18.545" height="2.273" transform="translate(756.249 307.632)" fill="#fff"/>
                <rect id="Rectángulo_26311" data-name="Rectángulo 26311" width="17.57" height="4.288" transform="translate(757.224 303.344)" fill="#ececec"/>
                <rect id="Rectángulo_26312" data-name="Rectángulo 26312" width="18.545" height="2.273" transform="translate(756.249 301.071)" fill="#fff"/>
                <path id="Trazado_164359" data-name="Trazado 164359" d="M774.794,301.071H758.783l4.547-3.573h11.464Z" fill="#ececec" fill-rule="evenodd"/>
                <path id="Trazado_164360" data-name="Trazado 164360" d="M774.794,348.75h10.846l6.236-38.845H774.794Z" fill="#e8b106" fill-rule="evenodd"/>
                <path id="Trazado_164361" data-name="Trazado 164361" d="M789.57,324.278H774.794v10.9h13.023Z" fill="#373250" fill-rule="evenodd"/>
                <rect id="Rectángulo_26313" data-name="Rectángulo 26313" width="10.132" height="1.527" transform="translate(774.794 348.75)" fill="#373250"/>
                <rect id="Rectángulo_26314" data-name="Rectángulo 26314" width="18.544" height="2.273" transform="translate(774.794 307.632)" fill="#e8e8e8"/>
                <rect id="Rectángulo_26315" data-name="Rectángulo 26315" width="17.569" height="4.288" transform="translate(774.794 303.344)" fill="#e0e0e0"/>
                <rect id="Rectángulo_26316" data-name="Rectángulo 26316" width="18.544" height="2.273" transform="translate(774.794 301.071)" fill="#e8e8e8"/>
                <path id="Trazado_164362" data-name="Trazado 164362" d="M774.794,301.071H790.8l-4.547-3.573H774.794Z" fill="#e0e0e0" fill-rule="evenodd"/>
              </g>
            </g>
            <g id="Grupo_103272" data-name="Grupo 103272">
              <path id="Trazado_164363" data-name="Trazado 164363" d="M811.5,350.464h.46a.84.84,0,0,0,.837-.838v-1.3c4.156-1.959,9.236-6.443,8.8-12.789-.068-1-.362-1.47-1.365-1.471l-7.434,0v-1.172a.839.839,0,0,0-.837-.836H779.482a.839.839,0,0,0-.837.836v16.741a.84.84,0,0,0,.837.838h.46c.521.2,4.227,1.989,4.227,2.529H774.5c0,1.432,2.551,2.606,5.679,2.619l1.933.864h27.216l1.933-.864c3.128-.013,5.679-1.187,5.679-2.619h-9.668C807.273,352.453,810.979,350.668,811.5,350.464Zm1.4-13.814,6.119,0c-.182,3.719-2.953,6.848-6.222,8.445v-8.088Z" fill="#7b7b7b" fill-rule="evenodd" opacity="0.7" style="mix-blend-mode: multiply;isolation: isolate"/>
              <g id="Grupo_103271" data-name="Grupo 103271">
                <path id="Trazado_164364" data-name="Trazado 164364" d="M807.019,348.322c1.578,1.8,14.5-3.586,13.815-13.552-.068-1-.363-1.47-1.365-1.471l-8.522,0c-2.806,0-2.594,3.659-2.594,5.213s.027.6.077.885h0l-2.32,1.106.909,7.824Zm2.277-6.47,2.11-.509-.081-.459.181-.087-.4-1.293,1.03-3.616,6.119,0c-.216,4.412-4.074,8-8.087,9.177-.253.074-.385.941-.826,1.016l-.421-3.251Z" fill="#ececec" fill-rule="evenodd"/>
                <path id="Rectángulo_26317" data-name="Rectángulo 26317" d="M.836,0H33.315a.838.838,0,0,1,.838.838v16.74a.838.838,0,0,1-.838.838H.837A.837.837,0,0,1,0,17.579V.836A.836.836,0,0,1,.836,0Z" transform="translate(777.883 331.286)" fill="#e8e8e8"/>
                <path id="Trazado_164365" data-name="Trazado 164365" d="M794.959,349.7V331.286H811.2a.84.84,0,0,1,.838.836v16.742a.84.84,0,0,1-.838.838Z" fill="#fff" fill-rule="evenodd"/>
                <path id="Trazado_164366" data-name="Trazado 164366" d="M779.18,349.7h15.779v2.529H783.407C783.407,351.691,779.7,349.906,779.18,349.7Z" fill="#e0e0e0" fill-rule="evenodd"/>
                <path id="Trazado_164367" data-name="Trazado 164367" d="M810.738,349.7H794.959v2.529h11.552C806.511,351.691,810.217,349.906,810.738,349.7Z" fill="#ececec" fill-rule="evenodd"/>
                <path id="Trazado_164368" data-name="Trazado 164368" d="M816.179,352.231c0,1.44-2.58,2.62-5.732,2.62H779.47c-3.152,0-5.732-1.18-5.732-2.62Z" fill="#e8e8e8" fill-rule="evenodd"/>
                <path id="Trazado_164369" data-name="Trazado 164369" d="M794.959,354.851v-2.62h21.22c0,1.44-2.58,2.62-5.732,2.62Z" fill="#fff" fill-rule="evenodd"/>
                <path id="Trazado_164370" data-name="Trazado 164370" d="M779.325,354.808h31.267l-2.026.906H781.351Z" fill="#e0e0e0" fill-rule="evenodd"/>
                <path id="Trazado_164371" data-name="Trazado 164371" d="M794.959,355.714v-.906h15.634l-2.026.906Z" fill="#ececec" fill-rule="evenodd"/>
              </g>
            </g>
          </g>
        </g>
      </g>
    </g>
  </g>
</svg>
