<svg xmlns="http://www.w3.org/2000/svg" width="72.208" height="80" viewBox="0 0 72.208 80">
  <g id="Grupo_103351" data-name="Grupo 103351" transform="translate(-221.367 -221.497)">
    <g id="Grupo_103345" data-name="Grupo 103345">
      <circle id="Elipse_5317" data-name="Elipse 5317" cx="29.847" cy="29.847" r="29.847" transform="translate(221.367 234.522)" fill="#ffdc72"/>
      <path id="Trazado_164596" data-name="Trazado 164596" d="M244.076,239.713a3.192,3.192,0,0,0-.781.106,7.784,7.784,0,1,0-15.44-1.4c0,.082.01.161.012.243a3.85,3.85,0,0,0-1.31-.243,3.894,3.894,0,0,0,0,7.787h17.519a3.244,3.244,0,0,0,0-6.489Z" fill="#fff"/>
      <path id="Trazado_164597" data-name="Trazado 164597" d="M244.076,247.5H226.557a5.19,5.19,0,1,1,.093-10.38,9.084,9.084,0,0,1,18.075,1.3v.046a4.542,4.542,0,0,1-.649,9.038Zm-17.519-7.786a2.6,2.6,0,0,0,0,5.191h17.519a1.947,1.947,0,1,0,0-3.893,1.971,1.971,0,0,0-.471.067,1.3,1.3,0,0,1-1.587-1.494,6.43,6.43,0,0,0,.112-1.169,6.489,6.489,0,0,0-12.977,0c0,.018.011.184.012.2a1.3,1.3,0,0,1-1.733,1.262A2.615,2.615,0,0,0,226.557,239.713Z"/>
      <path id="Trazado_164598" data-name="Trazado 164598" d="M226.557,298.109l2.387-6.855a27.077,27.077,0,0,0,1.506-8.9V269.363a19.964,19.964,0,0,1,5.042-13.261l5.34-6.007V269.56l7.786.6V280.1a8.408,8.408,0,0,1-6.688,8.23l-2.795,9.783H226.557Z" fill="#e7d1c4"/>
      <path id="Trazado_164599" data-name="Trazado 164599" d="M239.135,299.407H226.557a1.3,1.3,0,0,1-1.226-1.725l2.387-6.855a25.705,25.705,0,0,0,1.434-8.478V269.362a21.23,21.23,0,0,1,5.37-14.122l5.339-6.007a1.3,1.3,0,0,1,2.268.861v18.264l6.588.507a1.3,1.3,0,0,1,1.2,1.294V280.1a9.753,9.753,0,0,1-6.942,9.3l-2.591,9.065A1.3,1.3,0,0,1,239.135,299.407Zm-10.751-2.6h9.772l2.526-8.84a1.3,1.3,0,0,1,.982-.914,7.141,7.141,0,0,0,5.656-6.961v-8.735l-6.588-.507a1.3,1.3,0,0,1-1.2-1.294V253.508l-3.072,3.456a18.642,18.642,0,0,0-4.714,12.4V282.35a28.327,28.327,0,0,1-1.578,9.332Z"/>
      <path id="Trazado_164600" data-name="Trazado 164600" d="M234.026,241.61l43.3,15.446-8.942,25.069-43.3-15.445Z" fill="#e5efef"/>
      <path id="Trazado_164601" data-name="Trazado 164601" d="M268.392,283.406a1.336,1.336,0,0,1-.436-.074l-43.3-15.437a1.3,1.3,0,0,1-.787-1.659l8.938-25.069a1.293,1.293,0,0,1,.666-.736,1.312,1.312,0,0,1,.992-.051l43.3,15.438a1.3,1.3,0,0,1,.786,1.659l-8.938,25.067a1.3,1.3,0,0,1-1.222.862Zm-41.64-17.521,40.854,14.566,8.065-22.622-40.853-14.567Z"/>
      <path id="Trazado_164602" data-name="Trazado 164602" d="M261.51,251.4l15.821,5.644-8.91,24.982L252.6,276.383Z" fill="#9dc1e4"/>
      <path id="Trazado_164603" data-name="Trazado 164603" d="M268.427,283.307a1.335,1.335,0,0,1-.436-.074l-15.82-5.641a1.3,1.3,0,0,1-.787-1.659l8.906-24.979a1.3,1.3,0,0,1,1.658-.787l15.821,5.641a1.3,1.3,0,0,1,.787,1.658l-8.906,24.98a1.3,1.3,0,0,1-1.223.861Zm-14.162-7.725,13.376,4.77,8.034-22.534-13.376-4.77Z"/>
      <path id="Trazado_164604" data-name="Trazado 164604" d="M264.45,256.316l8.239,2.939-2.032,5.7-8.24-2.939Z" fill="#fc8c29"/>
      <path id="Trazado_164605" data-name="Trazado 164605" d="M270.661,266.236a1.311,1.311,0,0,1-.436-.075l-8.239-2.937a1.3,1.3,0,0,1-.786-1.659l2.031-5.7a1.3,1.3,0,0,1,1.658-.787l8.239,2.938a1.3,1.3,0,0,1,.787,1.659l-2.032,5.7a1.3,1.3,0,0,1-1.222.862Zm-6.581-5.022,5.8,2.067,1.159-3.253-5.794-2.067Z"/>
      <path id="Trazado_164606" data-name="Trazado 164606" d="M264.257,268.682a1.311,1.311,0,0,1-.436-.075l-3.331-1.187a1.3,1.3,0,0,1,.871-2.446l3.332,1.187a1.3,1.3,0,0,1-.436,2.521Z"/>
      <path id="Trazado_164607" data-name="Trazado 164607" d="M268.065,273.794a1.312,1.312,0,0,1-.436-.075L259.3,270.75a1.3,1.3,0,0,1,.872-2.446l8.327,2.97a1.3,1.3,0,0,1-.436,2.52Z"/>
      <path id="Trazado_164608" data-name="Trazado 164608" d="M266.878,277.125a1.3,1.3,0,0,1-.436-.075l-8.327-2.969a1.3,1.3,0,0,1,.872-2.446l8.326,2.969a1.3,1.3,0,0,1-.435,2.521Z"/>
      <path id="Trazado_164609" data-name="Trazado 164609" d="M238.53,247.877l-.594,1.665" fill="#fff"/>
      <path id="Trazado_164610" data-name="Trazado 164610" d="M237.936,250.84a1.312,1.312,0,0,1-.436-.075,1.3,1.3,0,0,1-.786-1.659l.593-1.665a1.3,1.3,0,1,1,2.445.872l-.594,1.665a1.3,1.3,0,0,1-1.222.862Z"/>
      <path id="Trazado_164611" data-name="Trazado 164611" d="M236.749,252.873l-.594,1.665" fill="#fff"/>
      <path id="Trazado_164612" data-name="Trazado 164612" d="M236.155,255.836a1.312,1.312,0,0,1-.436-.075,1.3,1.3,0,0,1-.786-1.659l.593-1.665a1.3,1.3,0,1,1,2.445.872l-.594,1.665A1.3,1.3,0,0,1,236.155,255.836Z"/>
      <path id="Trazado_164613" data-name="Trazado 164613" d="M234.968,257.869l-.594,1.665" fill="#fff"/>
      <path id="Trazado_164614" data-name="Trazado 164614" d="M234.374,260.832a1.327,1.327,0,0,1-.436-.074,1.3,1.3,0,0,1-.787-1.659l.594-1.665a1.3,1.3,0,0,1,2.445.871l-.594,1.666a1.3,1.3,0,0,1-1.222.861Z"/>
      <path id="Trazado_164615" data-name="Trazado 164615" d="M233.186,262.865l-.593,1.665" fill="#fff"/>
      <path id="Trazado_164616" data-name="Trazado 164616" d="M232.593,265.828a1.3,1.3,0,0,1-1.223-1.734l.594-1.665a1.3,1.3,0,1,1,2.444.872l-.593,1.665a1.3,1.3,0,0,1-1.222.862Z"/>
      <path id="Trazado_164617" data-name="Trazado 164617" d="M239.135,272.954l6-11.991a2.559,2.559,0,0,1,4.809,1.582l-1.321,7.614v7.779" fill="#e7d1c4"/>
      <g id="Grupo_103344" data-name="Grupo 103344">
        <path id="Trazado_164618" data-name="Trazado 164618" d="M248.618,279.236a1.3,1.3,0,0,1-1.3-1.3v-7.779a1.281,1.281,0,0,1,.02-.222l1.321-7.615a1.261,1.261,0,0,0-2.37-.779L240.3,273.534a1.3,1.3,0,0,1-2.322-1.161l6-11.991a3.875,3.875,0,0,1,4.668-1.933,3.833,3.833,0,0,1,2.58,4.317l-1.3,7.5v7.668a1.3,1.3,0,0,1-1.3,1.3Z"/>
        <path id="Trazado_164619" data-name="Trazado 164619" d="M258.352,295.514h-.009a4.542,4.542,0,0,1,.007-9.084h.009a4.542,4.542,0,0,1-.007,9.084Zm0-6.489a1.947,1.947,0,0,0,0,3.893h0a1.946,1.946,0,0,0,1.945-1.942,1.95,1.95,0,0,0-1.943-1.951Z"/>
        <path id="Trazado_164620" data-name="Trazado 164620" d="M288.2,255.285h-.009a4.542,4.542,0,0,1,.006-9.083h.01a4.542,4.542,0,0,1-.007,9.083Zm0-6.488a1.948,1.948,0,0,0-1.945,1.943,1.95,1.95,0,0,0,1.943,1.95h.005a1.948,1.948,0,0,0,1.945-1.943,1.95,1.95,0,0,0-1.943-1.95Z"/>
        <circle id="Elipse_5318" data-name="Elipse 5318" cx="1.469" cy="1.469" r="1.469" transform="translate(225.795 223.312)"/>
        <circle id="Elipse_5319" data-name="Elipse 5319" cx="1.469" cy="1.469" r="1.469" transform="translate(286.787 266.136)"/>
      </g>
      <path id="Trazado_164621" data-name="Trazado 164621" d="M267.715,231.535l-7.065-8.74,4.191.023a13.424,13.424,0,0,1,8.231,2.866l6.6,5.853Z" fill="#c1dbdc"/>
      <path id="Trazado_164622" data-name="Trazado 164622" d="M279.675,232.834h-11.96a1.3,1.3,0,0,1-1.01-.481l-7.064-8.741a1.3,1.3,0,0,1,1.009-2.114h.007l4.19.023a14.768,14.768,0,0,1,9.028,3.145l6.66,5.9a1.3,1.3,0,0,1-.86,2.268Zm-11.341-2.6h7.919l-4.042-3.584a12.136,12.136,0,0,0-7.378-2.539l-1.453-.008Z"/>
      <path id="Trazado_164623" data-name="Trazado 164623" d="M284.066,230.635a8.072,8.072,0,0,1,7.388,4.085,2.036,2.036,0,0,1-1.21,2.96c-6.535,1.826-27.621,3.959-40.259-.818L247,228.275l1.347.008a6.366,6.366,0,0,1,5.689,3.659Z" fill="#e5efef"/>
      <path id="Trazado_164624" data-name="Trazado 164624" d="M270.142,241.067c-7.14,0-14.716-.761-20.616-2.991a1.3,1.3,0,0,1-.767-.787L245.77,228.7a1.3,1.3,0,0,1,1.225-1.725H247l1.347.007a7.59,7.59,0,0,1,6.43,3.626l29.229-1.271a9.429,9.429,0,0,1,8.577,4.746,3.333,3.333,0,0,1,.171,2.925,3.29,3.29,0,0,1-2.164,1.92c-3.507.98-11.647,2.137-20.451,2.137Zm-19.134-5.213c12.5,4.429,33.055,2.207,38.886.577a.706.706,0,0,0,.467-.417.755.755,0,0,0-.039-.66,6.805,6.805,0,0,0-6.2-3.422l-30.033,1.307a1.271,1.271,0,0,1-1.226-.736,5.06,5.06,0,0,0-4.029-2.9Z"/>
      <path id="Trazado_164625" data-name="Trazado 164625" d="M278.132,235.885l-12.092,9.561a3.554,3.554,0,0,1-2.2.756h-4.192l7.611-10.317" fill="#e5efef"/>
      <path id="Trazado_164626" data-name="Trazado 164626" d="M263.84,247.5h-4.193a1.3,1.3,0,0,1-1.044-2.068l7.612-10.317a1.3,1.3,0,1,1,2.088,1.541l-6.085,8.249h1.622a2.252,2.252,0,0,0,1.4-.477l12.092-9.56a1.3,1.3,0,0,1,1.609,2.035l-12.091,9.562a4.869,4.869,0,0,1-3.006,1.035Z"/>
      <path id="Trazado_164627" data-name="Trazado 164627" d="M283.95,234.248a1.3,1.3,0,0,1-.772-2.341l2.4-1.773a1.3,1.3,0,1,1,1.543,2.086l-2.4,1.773a1.288,1.288,0,0,1-.77.255Z"/>
    </g>
    <g id="Grupo_103347" data-name="Grupo 103347">
      <path id="Trazado_164628" data-name="Trazado 164628" d="M292.922,283.549a17.3,17.3,0,1,1-17.295-17.3A17.3,17.3,0,0,1,292.922,283.549Z" fill="#6b4f5b"/>
      <path id="Trazado_164629" data-name="Trazado 164629" d="M275.627,301.5a17.948,17.948,0,1,1,17.948-17.948A17.968,17.968,0,0,1,275.627,301.5Zm0-34.591a16.643,16.643,0,1,0,16.642,16.643A16.662,16.662,0,0,0,275.627,266.906Z"/>
      <path id="Trazado_164630" data-name="Trazado 164630" d="M288.7,283.549a13.069,13.069,0,1,1-13.069-13.069A13.069,13.069,0,0,1,288.7,283.549Z" fill="#fff"/>
      <g id="Grupo_103346" data-name="Grupo 103346">
        <path id="Trazado_164631" data-name="Trazado 164631" d="M275.627,297.271a13.722,13.722,0,1,1,13.722-13.722A13.737,13.737,0,0,1,275.627,297.271Zm0-26.138a12.417,12.417,0,1,0,12.416,12.416A12.43,12.43,0,0,0,275.627,271.133Z"/>
        <path id="Trazado_164632" data-name="Trazado 164632" d="M275.653,273.759a.653.653,0,0,1-.652-.653v-2.381a.652.652,0,1,1,1.3,0v2.381A.653.653,0,0,1,275.653,273.759Z"/>
        <path id="Trazado_164633" data-name="Trazado 164633" d="M275.653,296.973a.652.652,0,0,1-.652-.653v-2.38a.652.652,0,1,1,1.3,0v2.38A.653.653,0,0,1,275.653,296.973Z"/>
        <path id="Trazado_164634" data-name="Trazado 164634" d="M265.534,283.878h-2.976a.653.653,0,1,1,0-1.306h2.976a.653.653,0,1,1,0,1.306Z"/>
        <path id="Trazado_164635" data-name="Trazado 164635" d="M288.154,283.878h-2.381a.653.653,0,1,1,0-1.306h2.381a.653.653,0,0,1,0,1.306Z"/>
        <path id="Trazado_164636" data-name="Trazado 164636" d="M266.668,293.578a.653.653,0,0,1-.469-1.107l1.656-1.711a.653.653,0,0,1,.938.909l-1.656,1.71A.651.651,0,0,1,266.668,293.578Z"/>
        <path id="Trazado_164637" data-name="Trazado 164637" d="M282.815,276.9a.653.653,0,0,1-.469-1.106L284,274.081a.653.653,0,0,1,.939.907l-1.656,1.711A.653.653,0,0,1,282.815,276.9Z"/>
        <path id="Trazado_164638" data-name="Trazado 164638" d="M268.092,277.558a.651.651,0,0,1-.454-.183L265.5,275.3a.653.653,0,1,1,.908-.938l2.139,2.069a.653.653,0,0,1-.454,1.122Z"/>
        <path id="Trazado_164639" data-name="Trazado 164639" d="M284.344,293.291a.651.651,0,0,1-.454-.184l-1.711-1.656a.653.653,0,0,1,.908-.938l1.711,1.656a.653.653,0,0,1-.454,1.122Z"/>
        <path id="Trazado_164640" data-name="Trazado 164640" d="M278.034,287.449a2.441,2.441,0,0,1-2.438-2.438V282.63a2.438,2.438,0,1,1,4.877,0v2.381A2.441,2.441,0,0,1,278.034,287.449Zm0-5.952a1.134,1.134,0,0,0-1.132,1.133v2.381a1.132,1.132,0,1,0,2.265,0V282.63A1.134,1.134,0,0,0,278.034,281.5Z"/>
        <path id="Trazado_164641" data-name="Trazado 164641" d="M272.681,287.449a2.437,2.437,0,0,1-2.442-2.438v-2.927a3.462,3.462,0,0,1,3.458-3.459.652.652,0,1,1,0,1.3,2.156,2.156,0,0,0-2.153,2.154v.488h1.133a2.439,2.439,0,1,1,0,4.877Zm-1.137-3.571v1.133a1.134,1.134,0,0,0,1.344,1.114,1.147,1.147,0,0,0,.9-.9,1.135,1.135,0,0,0-1.115-1.343Z"/>
      </g>
    </g>
  </g>
</svg>
