<svg xmlns="http://www.w3.org/2000/svg" width="98.743" height="77.249" viewBox="0 0 98.743 77.249">
  <g id="Grupo_103314" data-name="Grupo 103314" transform="translate(-5242 9086)">
    <g id="Grupo_102933" data-name="Grupo 102933" transform="translate(5040.964 -9299)">
      <g id="Grupo_102932" data-name="Grupo 102932" transform="translate(203.291 230.59)">
        <path id="Trazado_163928" data-name="Trazado 163928" d="M218.69,232.583c-12.248,0-15.031,13.341-15.144,28.04a1.557,1.557,0,0,0,.945,1.42,29.446,29.446,0,0,0,7.013,2.035l14.331.008a29.553,29.553,0,0,0,7.056-2.043,1.557,1.557,0,0,0,.945-1.42C233.722,245.925,230.938,232.583,218.69,232.583Z" transform="translate(-203.546 -232.583)" fill="#5a4146"/>
      </g>
      <g id="Grupo_102933-2" data-name="Grupo 102933" transform="translate(201.607 255.831)">
        <path id="Trazado_163929" data-name="Trazado 163929" d="M235.327,277.511v-2.118a5.049,5.049,0,0,0-2.544-4.383l-7.54-4.309a3.366,3.366,0,0,1-1.7-2.922v-3.1h-10.1v3.1a3.364,3.364,0,0,1-1.7,2.922l-7.54,4.309a5.049,5.049,0,0,0-2.544,4.383v2.118a3.366,3.366,0,0,0,3.366,3.366h26.924A3.365,3.365,0,0,0,235.327,277.511Z" transform="translate(-201.672 -260.683)" fill="#d29b6e"/>
      </g>
      <g id="Grupo_102934" data-name="Grupo 102934" transform="translate(210.022 240.687)">
        <path id="Trazado_163930" data-name="Trazado 163930" d="M227.867,247.189v8.92a5.051,5.051,0,0,1-2.45,4.33l-4.232,2.538a3.365,3.365,0,0,1-3.463,0l-4.232-2.538a5.048,5.048,0,0,1-2.45-4.33v-8.92s10.1,0,13.462-3.366Z" transform="translate(-211.04 -243.823)" fill="#f0c087"/>
      </g>
      <g id="Grupo_102935" data-name="Grupo 102935" transform="translate(201.607 263.35)">
        <path id="Trazado_163931" data-name="Trazado 163931" d="M232.784,271.861l-4.912-2.807c-.929,1.317-4.445,5.92-9.372,7.626-4.927-1.706-8.444-6.309-9.371-7.626l-4.913,2.807a5.049,5.049,0,0,0-2.544,4.383v2.118a3.366,3.366,0,0,0,3.366,3.366h26.924a3.366,3.366,0,0,0,3.366-3.366v-2.118A5.049,5.049,0,0,0,232.784,271.861Z" transform="translate(-201.672 -269.054)" fill="#d7deed"/>
      </g>
      <g id="Grupo_102936" data-name="Grupo 102936" transform="translate(216.753 247.417)">
        <path id="Trazado_163932" data-name="Trazado 163932" d="M225.264,259.73h-5.048a1.682,1.682,0,1,1,0-3.365h5.048A3.37,3.37,0,0,0,228.629,253,1.683,1.683,0,1,1,232,253,6.738,6.738,0,0,1,225.264,259.73Z" transform="translate(-218.533 -251.316)" fill="#5b5d6e"/>
      </g>
      <g id="Grupo_102937" data-name="Grupo 102937" transform="translate(216.752 252.466)">
        <circle id="Elipse_5307" data-name="Elipse 5307" cx="1.683" cy="1.683" r="1.683" fill="#707487"/>
      </g>
      <g id="Grupo_102938" data-name="Grupo 102938" transform="translate(258.821 256.568)">
        <path id="Trazado_163933" data-name="Trazado 163933" d="M302.478,267.952l-8-3a3.778,3.778,0,0,1-2.184-3.448H278.829a3.778,3.778,0,0,1-2.184,3.448l-8,3a5.048,5.048,0,0,0-3.276,4.727v4.915a3.365,3.365,0,0,0,3.366,3.366h33.655a3.365,3.365,0,0,0,3.366-3.366v-4.915A5.048,5.048,0,0,0,302.478,267.952Z" transform="translate(-265.367 -261.503)" fill="#d29b6e"/>
      </g>
      <g id="Grupo_102939" data-name="Grupo 102939" transform="translate(258.822 260.59)">
        <path id="Trazado_163934" data-name="Trazado 163934" d="M302.478,268.408l-6.473-2.427-8.29,6.908a3.366,3.366,0,0,1-4.31,0l-8.29-6.908-6.473,2.427a5.048,5.048,0,0,0-3.275,4.727v4.915a3.365,3.365,0,0,0,3.365,3.366h33.655a3.366,3.366,0,0,0,3.366-3.366v-4.915A5.05,5.05,0,0,0,302.478,268.408Z" transform="translate(-265.368 -265.981)" fill="#c7cfe2"/>
      </g>
      <g id="Grupo_102940" data-name="Grupo 102940" transform="translate(267.699 228.907)">
        <path id="Trazado_163935" data-name="Trazado 163935" d="M297.867,237.888l-1.05,15.751a5.05,5.05,0,0,1-2.008,3.7l-3.531,2.648a5.042,5.042,0,0,1-3.029,1.01h-3.365a5.049,5.049,0,0,1-3.03-1.01l-3.53-2.648a5.047,5.047,0,0,1-2.008-3.7l-1.05-15.751a6.731,6.731,0,0,1,6.716-7.179h9.169A6.732,6.732,0,0,1,297.867,237.888Z" transform="translate(-275.25 -230.709)" fill="#f0c087"/>
      </g>
      <g id="Grupo_102941" data-name="Grupo 102941" transform="translate(277.331 244.499)">
        <path id="Trazado_163936" data-name="Trazado 163936" d="M293.246,257.717h-5.589a1.683,1.683,0,1,1,0-3.366h5.589a5.188,5.188,0,0,0,5.036-4.712,1.683,1.683,0,0,1,3.359.224A8.541,8.541,0,0,1,293.246,257.717Z" transform="translate(-285.974 -248.067)" fill="#5b5d6e"/>
      </g>
      <g id="Grupo_102942" data-name="Grupo 102942" transform="translate(267.699 228.907)">
        <path id="Trazado_163937" data-name="Trazado 163937" d="M291.151,230.709h-9.169a6.731,6.731,0,0,0-6.716,7.179l.419,6.28c.578-.04,15.012-1.078,22.081-4.748l.1-1.532A6.731,6.731,0,0,0,291.151,230.709Z" transform="translate(-275.25 -230.709)" fill="#7d5a50"/>
      </g>
      <g id="Grupo_102943" data-name="Grupo 102943" transform="translate(277.332 250.783)">
        <circle id="Elipse_5308" data-name="Elipse 5308" cx="1.683" cy="1.683" r="1.683" fill="#707487"/>
      </g>
      <g id="Grupo_102944" data-name="Grupo 102944" transform="translate(201.036 230.018)">
        <path id="Trazado_163938" data-name="Trazado 163938" d="M231.9,278.525H204.973a3.942,3.942,0,0,1-3.937-3.938v-2.118a5.633,5.633,0,0,1,2.831-4.88l5.777-3.3A28.245,28.245,0,0,1,204,262.5a2.133,2.133,0,0,1-1.283-1.947c.067-8.681,1.071-15.143,3.069-19.755,2.545-5.874,6.8-8.852,12.647-8.852s10.1,2.979,12.647,8.853c2,4.612,3,11.074,3.069,19.754a2.132,2.132,0,0,1-1.282,1.947,28.236,28.236,0,0,1-5.644,1.788l5.777,3.3a5.621,5.621,0,0,1,1.114.838h0a5.645,5.645,0,0,1,1.718,4.042v2.118A3.943,3.943,0,0,1,231.9,278.525Zm-20.6-15.083h2.132l-9,5.141a4.486,4.486,0,0,0-2.256,3.887v2.118a2.8,2.8,0,0,0,2.794,2.794H231.9a2.8,2.8,0,0,0,2.794-2.794v-2.118a4.5,4.5,0,0,0-1.368-3.219h0a4.506,4.506,0,0,0-.887-.667l-8.507-4.861,1.575-.268a29.168,29.168,0,0,0,6.9-2,.99.99,0,0,0,.606-.894c-.145-18.743-4.775-27.473-14.573-27.473s-14.429,8.73-14.572,27.473a.987.987,0,0,0,.606.894A29.1,29.1,0,0,0,211.3,263.441Z" transform="translate(-201.036 -231.946)" fill="#1d1d1b"/>
      </g>
      <g id="Grupo_102945" data-name="Grupo 102945" transform="translate(258.249 228.336)">
        <path id="Trazado_163939" data-name="Trazado 163939" d="M302.323,278.334H268.668a3.943,3.943,0,0,1-3.938-3.938v-4.915a5.646,5.646,0,0,1,3.647-5.262l8-3a3.142,3.142,0,0,0,1.788-2.541l-1.258-.943a5.611,5.611,0,0,1-2.236-4.122l-1.05-15.751a7.3,7.3,0,0,1,7.287-7.788h9.169a7.251,7.251,0,0,1,4.181,1.316,7.29,7.29,0,0,1,3.105,6.473l-.534,8.02a2.185,2.185,0,0,1,1.128-.21,2.257,2.257,0,0,1,2.09,2.4,9.067,9.067,0,0,1-3.972,6.824,5.65,5.65,0,0,1-2,2.84l-1.258.943a3.139,3.139,0,0,0,1.788,2.541l8,3a5.6,5.6,0,0,1,1.152.59h0a5.611,5.611,0,0,1,2.5,4.672V274.4A3.942,3.942,0,0,1,302.323,278.334Zm-21.412-47.118a6.161,6.161,0,0,0-6.146,6.569l1.05,15.75a4.472,4.472,0,0,0,1.781,3.284l1.744,1.308-.009.3a4.317,4.317,0,0,1-2.551,3.865l-8,3a4.5,4.5,0,0,0-2.9,4.191V274.4a2.8,2.8,0,0,0,2.794,2.794h33.655a2.8,2.8,0,0,0,2.794-2.794v-4.915a4.477,4.477,0,0,0-2.9-4.191l-8-3a4.319,4.319,0,0,1-2.551-3.864l-.009-.3,1.745-1.309a4.5,4.5,0,0,0,1.639-2.433l.057-.213.185-.119a7.926,7.926,0,0,0,3.633-6.06,1.111,1.111,0,0,0-2.2-.264l-1.134-.136.654-9.809a6.16,6.16,0,0,0-6.146-6.569Z" transform="translate(-264.73 -230.073)"/>
      </g>
      <g id="Grupo_102974" data-name="Grupo 102974" transform="translate(215.99 213)">
        <g id="Grupo_102946" data-name="Grupo 102946" transform="translate(0.763 56.188)">
          <path id="Trazado_163940" data-name="Trazado 163940" d="M281.046,279.267l-12.323-3.714H235.732l-12.4,3.714a6.732,6.732,0,0,0-4.8,6.448v6.771a3.366,3.366,0,0,0,3.366,3.366h60.579a3.366,3.366,0,0,0,3.366-3.366v-6.771A6.732,6.732,0,0,0,281.046,279.267Z" transform="translate(-218.533 -275.553)" fill="#e4eaf6"/>
        </g>
        <g id="Grupo_102947" data-name="Grupo 102947" transform="translate(22.638 44.514)">
          <path id="Trazado_163941" data-name="Trazado 163941" d="M266.445,262.557v9.4l-11.779,7.432-11.779-7.432v-9.4Z" transform="translate(-242.887 -262.557)" fill="#e6af78"/>
        </g>
        <g id="Grupo_102948" data-name="Grupo 102948" transform="translate(22.638 44.514)">
          <path id="Trazado_163942" data-name="Trazado 163942" d="M242.887,262.557v9.4l3.632,2.291a19.177,19.177,0,0,0,19.857-10.565l.013-1.122Z" transform="translate(-242.887 -262.557)" fill="#d29b6e"/>
        </g>
        <g id="Grupo_102951" data-name="Grupo 102951" transform="translate(0.763 61.589)">
          <g id="Grupo_102949" data-name="Grupo 102949" transform="translate(0 0.013)">
            <path id="Trazado_163943" data-name="Trazado 163943" d="M228.5,288.22l-7.994-6.639a6.72,6.72,0,0,0-1.968,4.747V293.1a3.365,3.365,0,0,0,3.365,3.366h8.414V292.1A5.047,5.047,0,0,0,228.5,288.22Z" transform="translate(-218.533 -281.581)" fill="#d7deed"/>
          </g>
          <g id="Grupo_102950" data-name="Grupo 102950" transform="translate(55.53)">
            <path id="Trazado_163944" data-name="Trazado 163944" d="M292.134,293.1v-6.771a6.723,6.723,0,0,0-1.98-4.761l-7.983,6.653a5.046,5.046,0,0,0-1.817,3.878v4.366h8.414A3.366,3.366,0,0,0,292.134,293.1Z" transform="translate(-280.354 -281.566)" fill="#d7deed"/>
          </g>
        </g>
        <g id="Grupo_102952" data-name="Grupo 102952" transform="translate(21.876 43.752)">
          <path id="Trazado_163945" data-name="Trazado 163945" d="M254.579,280.2l-12.541-7.913V261.708h25.084v10.579Zm-7.915-6.8,7.915,4.994,11.017-6.951v-8.213H243.563v8.213Z" transform="translate(-242.038 -261.708)"/>
        </g>
        <g id="Grupo_102953" data-name="Grupo 102953" transform="translate(14.864 0.763)">
          <path id="Trazado_163946" data-name="Trazado 163946" d="M260.238,263.162l6.753-5.628a6.734,6.734,0,0,0,2.338-4.108l3.838-23.988a13.462,13.462,0,0,0-13.293-15.589H247.7A13.462,13.462,0,0,0,234.4,229.438l3.838,23.988a6.733,6.733,0,0,0,2.337,4.108l6.754,5.628a5.053,5.053,0,0,0,3.232,1.17h6.441A5.051,5.051,0,0,0,260.238,263.162Z" transform="translate(-234.231 -213.849)" fill="#f0c087"/>
        </g>
        <g id="Grupo_102954" data-name="Grupo 102954" transform="translate(15.772 15.436)">
          <path id="Trazado_163947" data-name="Trazado 163947" d="M250.3,238.39a88.444,88.444,0,0,0,19.1-5.013s-.949-3.194-.935-3.192l-1.119.471a80.059,80.059,0,0,1-25.241,5.049h-6.866l3.1,19.383a6.733,6.733,0,0,0,2.337,4.108l6.754,5.628a5.051,5.051,0,0,0,3.232,1.17h1.538l-2.5-7.506a16.847,16.847,0,0,1-.863-5.321V240.049A1.684,1.684,0,0,1,250.3,238.39Z" transform="translate(-235.243 -230.185)" fill="#e6af78"/>
        </g>
        <g id="Grupo_102957" data-name="Grupo 102957" transform="translate(13 27.687)">
          <g id="Grupo_102955" data-name="Grupo 102955">
            <path id="Trazado_163948" data-name="Trazado 163948" d="M236.006,243.823H233.84a1.683,1.683,0,0,0-1.683,1.683v6.731a1.683,1.683,0,0,0,1.683,1.682h3.782Z" transform="translate(-232.157 -243.823)" fill="#707487"/>
          </g>
          <g id="Grupo_102956" data-name="Grupo 102956" transform="translate(37.37)">
            <path id="Trazado_163949" data-name="Trazado 163949" d="M278,243.823h-2.626l-1.615,10.1H278a1.683,1.683,0,0,0,1.683-1.682v-6.731A1.684,1.684,0,0,0,278,243.823Z" transform="translate(-273.76 -243.823)" fill="#707487"/>
          </g>
        </g>
        <g id="Grupo_102958" data-name="Grupo 102958" transform="translate(14.103)">
          <path id="Trazado_163950" data-name="Trazado 163950" d="M242.006,234.042a80.044,80.044,0,0,0,25.241-5.048l1.477,10.334a1.683,1.683,0,0,0,1.666,1.445h.964l1.814-11.335a13.463,13.463,0,0,0-13.293-15.589H247.7A13.462,13.462,0,0,0,234.4,229.438l1.814,11.335H237.6a1.684,1.684,0,0,0,1.505-.93Z" transform="translate(-233.471 -213.086)" fill="#5a4146"/>
          <path id="Trazado_163951" data-name="Trazado 163951" d="M271.918,241.449H270.3a2.457,2.457,0,0,1-2.421-2.1l-1.342-9.393a82.155,82.155,0,0,1-24.144,4.75l-2.7,5.391a2.432,2.432,0,0,1-2.187,1.352h-2.034l-1.916-11.977A14.225,14.225,0,0,1,247.611,213h12.178a14.225,14.225,0,0,1,14.046,16.472Zm-4.14-13.614,1.615,11.3a.924.924,0,0,0,.911.79h.313l1.71-10.693a12.7,12.7,0,0,0-12.54-14.706H247.611a12.7,12.7,0,0,0-12.54,14.706l1.711,10.693h.733a.914.914,0,0,0,.823-.508l3.107-6.213.46-.009a79.934,79.934,0,0,0,24.971-4.993Z" transform="translate(-233.385 -213)"/>
        </g>
        <g id="Grupo_102959" data-name="Grupo 102959" transform="translate(14.103)">
          <path id="Trazado_163952" data-name="Trazado 163952" d="M256.921,265.008h-6.442a5.82,5.82,0,0,1-3.72-1.346l-6.754-5.628a7.486,7.486,0,0,1-2.6-4.573l-3.838-23.988A14.225,14.225,0,0,1,247.611,213h12.178a14.225,14.225,0,0,1,14.046,16.472L270,253.46a7.5,7.5,0,0,1-2.6,4.573l-6.754,5.628A5.818,5.818,0,0,1,256.921,265.008Zm-9.31-50.482a12.7,12.7,0,0,0-12.54,14.706l3.838,23.988a5.966,5.966,0,0,0,2.073,3.642l6.754,5.628a4.291,4.291,0,0,0,2.743.993h6.442a4.291,4.291,0,0,0,2.742-.993l6.754-5.628a5.964,5.964,0,0,0,2.072-3.642l3.838-23.988a12.7,12.7,0,0,0-12.54-14.706Z" transform="translate(-233.385 -213)"/>
        </g>
        <g id="Grupo_102960" data-name="Grupo 102960" transform="translate(14.485 0.381)">
          <path id="Trazado_163953" data-name="Trazado 163953" d="M271.636,241.112h-1.289a2.075,2.075,0,0,1-2.043-1.773l-1.408-9.86a81.569,81.569,0,0,1-24.694,4.9l-2.8,5.6a2.052,2.052,0,0,1-1.846,1.141h-1.708l-1.865-11.657a13.844,13.844,0,0,1,13.67-16.031h12.178a13.844,13.844,0,0,1,13.67,16.031Zm-4.123-12.7,1.545,10.817a1.309,1.309,0,0,0,1.289,1.118h.639l1.762-11.014a13.082,13.082,0,0,0-12.917-15.148H247.654a13.082,13.082,0,0,0-12.917,15.148l1.762,11.014h1.058a1.294,1.294,0,0,0,1.164-.719l3-6.007.23,0a80.294,80.294,0,0,0,25.106-5.02Z" transform="translate(-233.81 -213.424)"/>
        </g>
        <g id="Grupo_102963" data-name="Grupo 102963" transform="translate(12.239 26.924)">
          <g id="Grupo_102961" data-name="Grupo 102961">
            <path id="Trazado_163954" data-name="Trazado 163954" d="M238.43,254.6h-4.676a2.448,2.448,0,0,1-2.445-2.445V245.42a2.448,2.448,0,0,1,2.445-2.446h2.816Zm-4.676-10.1a.922.922,0,0,0-.921.921v6.731a.922.922,0,0,0,.921.921h2.888l-1.373-8.572Z" transform="translate(-231.309 -242.974)"/>
          </g>
          <g id="Grupo_102962" data-name="Grupo 102962" transform="translate(37.238)">
            <path id="Trazado_163955" data-name="Trazado 163955" d="M277.9,254.6h-5.134l1.859-11.622H277.9a2.448,2.448,0,0,1,2.445,2.445v6.731A2.448,2.448,0,0,1,277.9,254.6Zm-3.347-1.524H277.9a.922.922,0,0,0,.921-.921V245.42a.923.923,0,0,0-.921-.921h-1.975Z" transform="translate(-272.765 -242.974)"/>
          </g>
        </g>
        <g id="Grupo_102964" data-name="Grupo 102964" transform="translate(34.75 34.611)">
          <path id="Trazado_163956" data-name="Trazado 163956" d="M258.052,263.117a1.683,1.683,0,0,1,0-3.366c12.828,0,14.937-6.714,15.02-7a1.683,1.683,0,0,1,3.247.884C276.216,254.024,273.618,263.117,258.052,263.117Z" transform="translate(-256.37 -251.531)" fill="#464655"/>
        </g>
        <g id="Grupo_102965" data-name="Grupo 102965" transform="translate(34.75 42.831)">
          <circle id="Elipse_5309" data-name="Elipse 5309" cx="1.683" cy="1.683" r="1.683" fill="#5b5d6e"/>
        </g>
        <g id="Grupo_102966" data-name="Grupo 102966" transform="translate(34.177 34.039)">
          <path id="Trazado_163957" data-name="Trazado 163957" d="M257.988,263.625a2.255,2.255,0,1,1,0-4.509c12.4,0,14.393-6.321,14.472-6.59a2.254,2.254,0,0,1,4.348,1.191C276.7,254.123,273.968,263.625,257.988,263.625Zm16.641-11.586a1.121,1.121,0,0,0-1.072.808c-.089.3-2.324,7.413-15.569,7.413a1.111,1.111,0,0,0,0,2.221c15.113,0,17.616-8.688,17.715-9.058a1.1,1.1,0,0,0-.78-1.344A1.109,1.109,0,0,0,274.629,252.039Z" transform="translate(-255.733 -250.895)"/>
        </g>
        <g id="Grupo_102967" data-name="Grupo 102967" transform="translate(0 55.39)">
          <path id="Trazado_163958" data-name="Trazado 163958" d="M282.391,296.524H221.812a4.133,4.133,0,0,1-4.128-4.128v-6.771a7.447,7.447,0,0,1,5.34-7.178l12.624-3.781,16.782,5.151,16.2-5.152,12.548,3.783a7.448,7.448,0,0,1,5.339,7.177V292.4A4.133,4.133,0,0,1,282.391,296.524Zm-46.748-20.264-12.18,3.649a5.931,5.931,0,0,0-4.253,5.716V292.4a2.606,2.606,0,0,0,2.6,2.6h60.579a2.606,2.606,0,0,0,2.6-2.6v-6.771a5.931,5.931,0,0,0-4.253-5.716h0l-12.1-3.646-16.205,5.154Z" transform="translate(-217.684 -274.665)"/>
        </g>
        <g id="Grupo_102970" data-name="Grupo 102970" transform="translate(17.59 51.976)">
          <g id="Grupo_102968" data-name="Grupo 102968">
            <path id="Trazado_163959" data-name="Trazado 163959" d="M254.094,280.23l-12.039-9.03a1.682,1.682,0,0,0-2.409.413l-2.379,3.568,7.381,10.333a1.682,1.682,0,0,0,2.42.336Z" transform="translate(-237.267 -270.863)" fill="#d7deed"/>
          </g>
          <g id="Grupo_102969" data-name="Grupo 102969" transform="translate(16.827)">
            <path id="Trazado_163960" data-name="Trazado 163960" d="M256,280.23l12.039-9.03a1.683,1.683,0,0,1,2.41.413l2.379,3.568-7.381,10.333a1.682,1.682,0,0,1-2.42.336Z" transform="translate(-256 -270.863)" fill="#d7deed"/>
          </g>
        </g>
        <g id="Grupo_102973" data-name="Grupo 102973" transform="translate(16.663 51.214)">
          <g id="Grupo_102971" data-name="Grupo 102971">
            <path id="Trazado_163961" data-name="Trazado 163961" d="M245.909,286.895a2.423,2.423,0,0,1-.332-.022,2.458,2.458,0,0,1-1.655-1l-7.687-10.762,2.671-4.006a2.445,2.445,0,0,1,3.5-.6l12.826,9.62-7.795,6.236A2.455,2.455,0,0,1,245.909,286.895Zm-7.821-11.815,7.075,9.9a.921.921,0,0,0,1.324.183l6.257-5.006-11.251-8.439a.92.92,0,0,0-1.318.226Z" transform="translate(-236.235 -270.015)"/>
          </g>
          <g id="Grupo_102972" data-name="Grupo 102972" transform="translate(16.509)">
            <path id="Trazado_163962" data-name="Trazado 163962" d="M263.94,286.895a2.457,2.457,0,0,1-1.531-.535l-7.795-6.236,12.827-9.62a2.445,2.445,0,0,1,3.5.6l2.671,4.006-7.687,10.762a2.461,2.461,0,0,1-1.655,1A2.423,2.423,0,0,1,263.94,286.895Zm-6.836-6.732,6.258,5.006a.92.92,0,0,0,1.323-.183l7.076-9.9-2.087-3.13a.92.92,0,0,0-1.318-.226Z" transform="translate(-254.614 -270.015)"/>
          </g>
        </g>
      </g>
    </g>
  </g>
</svg>
