<svg xmlns="http://www.w3.org/2000/svg" width="79.879" height="80" viewBox="0 0 79.879 80">
  <g id="Grupo_103472" data-name="Grupo 103472" transform="translate(-810 -4779)">
    <g id="covid-test_1_" data-name="covid-test (1)" transform="translate(815 4788.572)">
      <path id="Trazado_2267" data-name="Trazado 2267" d="M27.671,70.369l51.072-5.335a30.1,30.1,0,1,0-51.072,5.335Z" transform="translate(-18.903 -19.29)" fill="#5c45bf"/>
      <path id="Trazado_2268" data-name="Trazado 2268" d="M264.915,261.921a13.662,13.662,0,0,1-1.972,1.885,7.22,7.22,0,0,1-6.623,1.169l.149.781a7.481,7.481,0,0,1-1.447,3.888,3.62,3.62,0,0,0-.409.129,9.873,9.873,0,0,0,9.944-1.258,19.927,19.927,0,0,0,1.785-1.569C265.255,265.669,264.969,263.478,264.915,261.921Z" transform="translate(-223.402 -229.75)" fill="#73c3f9"/>
      <path id="Trazado_2269" data-name="Trazado 2269" d="M224.165,261.921c-.054,1.557-.34,3.747-1.426,5.025a19.926,19.926,0,0,0,1.785,1.569,9.762,9.762,0,0,0,2.389,1.363,2.618,2.618,0,0,1,.255-.069,7.584,7.584,0,0,0,1.528-4.067l-.135-.706a7.191,7.191,0,0,1-2.423-1.23A13.69,13.69,0,0,1,224.165,261.921Z" transform="translate(-195.443 -229.75)" fill="#49b1f7"/>
      <path id="Trazado_2270" data-name="Trazado 2270" d="M266.847,4.064c-5.18-3.742-8.995-4.9-13.337-3.471l.034.014a9.542,9.542,0,0,0-.632,3.086,5.07,5.07,0,0,0,2.865,4.976,2.309,2.309,0,0,0-.116.321A11.537,11.537,0,0,1,263.685,11a5.754,5.754,0,0,1,1.969,2.825l.537,2.086,1.142,2.564a2.041,2.041,0,0,1,1.648-.246h0L269.5,10.2a6.929,6.929,0,0,0-2.65-6.138Z" transform="translate(-221.909 0)" fill="#73c3f9"/>
      <path id="Trazado_2271" data-name="Trazado 2271" d="M196.145,12.2c-4.824-2.262-2.241-8.079-2.241-8.079a23.113,23.113,0,0,0-6.58,3.559,6.929,6.929,0,0,0-2.65,6.138l.516,8.025h0a2.041,2.041,0,0,1,1.648.246l1.142-2.564.537-2.086a5.754,5.754,0,0,1,1.969-2.826,11.2,11.2,0,0,1,5.493-2.029A1.992,1.992,0,0,1,196.145,12.2Z" transform="translate(-162.028 -3.611)" fill="#49b1f7"/>
      <path id="Trazado_2272" data-name="Trazado 2272" d="M284.768,74.467a5.754,5.754,0,0,0-1.969-2.825,11.535,11.535,0,0,0-8-2.012c.032.017.061.035.093.051a1.865,1.865,0,0,0-.135,1.239,1.451,1.451,0,0,0,.655.83c-.041.058-.088.13-.136.213a14.128,14.128,0,0,1,7.524,1.581,4.642,4.642,0,0,1,1.969,2.173l.761,1.709Z" transform="translate(-241.024 -61.011)" fill="#9bd8f9"/>
      <path id="Trazado_2273" data-name="Trazado 2273" d="M218.914,72a1.436,1.436,0,0,1-.546-2.095,11.222,11.222,0,0,0-5.659,2.044,5.753,5.753,0,0,0-1.969,2.826l-.761,2.959.761-1.709a4.642,4.642,0,0,1,1.969-2.174,13.619,13.619,0,0,1,6.013-1.591A2.272,2.272,0,0,1,218.914,72Z" transform="translate(-184.252 -61.316)" fill="#73c3f9"/>
      <path id="Trazado_2274" data-name="Trazado 2274" d="M366.617,145.64a2.03,2.03,0,0,0-2.05.055,6.052,6.052,0,0,1,.018,1.783l-.508,3.7c0,.3-.009.591-.027.879a1.677,1.677,0,0,0,2.081-1.5,5.673,5.673,0,0,1,.219-.969c.33-1.03,1.52-2.8.266-3.948Z" transform="translate(-319.397 -127.523)" fill="#73c3f9"/>
      <path id="Trazado_2275" data-name="Trazado 2275" d="M183.88,145.64a2.03,2.03,0,0,1,2.05.055,6.056,6.056,0,0,0-.018,1.783l.508,3.7c0,.3.009.591.027.879a1.677,1.677,0,0,1-2.081-1.5,5.7,5.7,0,0,0-.219-.969C183.816,148.557,182.626,146.788,183.88,145.64Z" transform="translate(-160.865 -127.523)" fill="#49b1f7"/>
      <path id="Trazado_2276" data-name="Trazado 2276" d="M287.419,94.025l-.925-2.078-.537-1.205a4.641,4.641,0,0,0-1.969-2.173,14.1,14.1,0,0,0-7.44-1.585l.052.036a2.346,2.346,0,0,0,.024,2.948,1.241,1.241,0,0,0-.331.806,1.006,1.006,0,0,0,.348.715c-.309.586-1.354,2.906.436,4.506a1.4,1.4,0,0,0,.068,1.79v7.637a7.014,7.014,0,0,0,1.519,4.405,7.206,7.206,0,0,0,1.935,1.664,7.168,7.168,0,0,0,1.154-.73,13.608,13.608,0,0,0,5.26-10.822l.509-3.7a6.009,6.009,0,0,0-.1-2.212Z" transform="translate(-242.212 -76.283)" fill="#ffc7ab"/>
      <path id="Trazado_2277" data-name="Trazado 2277" d="M216.681,111.432a7.059,7.059,0,0,1-1.985-1.679,6.813,6.813,0,0,1-1.478-4.289V97.753a1.287,1.287,0,0,1,0-1.743c-2.162-1.751-.454-4.521-.454-4.521a.912.912,0,0,1,0-1.474,2.214,2.214,0,0,1-.006-3,13.689,13.689,0,0,0-6.2,1.6,4.641,4.641,0,0,0-1.969,2.174l-.537,1.205h0l-.924,2.074a6,6,0,0,0-.1,2.214l.508,3.7a13.608,13.608,0,0,0,5.261,10.822,7.227,7.227,0,0,0,7.887.629Z" transform="translate(-178.101 -76.324)" fill="#ffaa7b"/>
      <g id="Grupo_20679" data-name="Grupo 20679" transform="translate(23.789 17.304)">
        <path id="Trazado_2278" data-name="Trazado 2278" d="M197.216,146.333l-2.938-4.6a.553.553,0,0,1,.932-.595l2.938,4.6a.553.553,0,1,1-.932.595Z" transform="translate(-194.191 -140.879)" fill="#d3dcfb"/>
      </g>
      <g id="Grupo_20680" data-name="Grupo 20680" transform="translate(42.591 17.304)">
        <path id="Trazado_2279" data-name="Trazado 2279" d="M347.524,146.468a.553.553,0,0,1-.169-.763l2.918-4.572a.553.553,0,0,1,.932.595l-2.918,4.572A.552.552,0,0,1,347.524,146.468Z" transform="translate(-347.269 -140.878)" fill="#d3dcfb"/>
      </g>
      <path id="Trazado_2280" data-name="Trazado 2280" d="M290.42,165.072a10.393,10.393,0,0,1-5.366-1.28,5.019,5.019,0,0,0-2.95-.665,1.325,1.325,0,0,0,.247,1.449v7.637a7.014,7.014,0,0,0,1.519,4.405,7.257,7.257,0,0,0,2.157,1.792,7.166,7.166,0,0,0,.932-.612,13.836,13.836,0,0,0,3.2-3.556,4.881,4.881,0,0,0,.73-2.36l.229-5.821C291.147,165.514,290.822,165.059,290.42,165.072Z" transform="translate(-247.418 -143.072)" fill="#deeeff"/>
      <path id="Trazado_2281" data-name="Trazado 2281" d="M225.092,179.346a7.222,7.222,0,0,0,3.681-1.007,7.106,7.106,0,0,1-2.2-1.8,6.813,6.813,0,0,1-1.478-4.289v-7.711a1.152,1.152,0,0,1-.221-1.39,5.114,5.114,0,0,0-2.3.68,10.393,10.393,0,0,1-5.366,1.28c-.4-.013-.726.443-.7.988l.229,5.821a4.881,4.881,0,0,0,.73,2.36,13.833,13.833,0,0,0,3.2,3.556,7.213,7.213,0,0,0,4.423,1.512Z" transform="translate(-189.974 -143.109)" fill="#d3dcfb"/>
      <path id="Trazado_2282" data-name="Trazado 2282" d="M191.81,329.919l4.114-3.844a30.139,30.139,0,0,0,4.665-7.026c-2.706-4.916-12.629-7.473-12.629-7.473h-.2a23.733,23.733,0,0,1-3.583,3.459A13.579,13.579,0,0,1,170,316.544c.009.059.016.118.027.178a13.8,13.8,0,0,0-4.691,1.122,7.9,7.9,0,0,0-4.951,7.639v7.745a30.109,30.109,0,0,0,31.424-3.309Z" transform="translate(-140.749 -273.305)" fill="#73c3f9"/>
      <path id="Trazado_2283" data-name="Trazado 2283" d="M86.349,311.575h-.2s-10.3,2.655-12.776,7.755a20.923,20.923,0,0,0-1.481,5.053,30.217,30.217,0,0,0,11.054,8.934v-7.834c0-8.475,9.684-8.585,9.684-8.585-.022-.09-.04-.178-.055-.263a13.455,13.455,0,0,1-2.644-1.6A23.726,23.726,0,0,1,86.349,311.575Z" transform="translate(-63.126 -273.305)" fill="#49b1f7"/>
      <path id="Trazado_2284" data-name="Trazado 2284" d="M253.831,295.366a1.507,1.507,0,0,0-2.054.137,19.289,19.289,0,0,1-2.193,2,9.459,9.459,0,0,1-9.461,1.232,3.347,3.347,0,0,0-1.822,1.3,2.9,2.9,0,0,0-.34,2.171l-.129.008a13.58,13.58,0,0,0,14.279-1.46,23.791,23.791,0,0,0,3.782-3.695Z" transform="translate(-208.683 -258.788)" fill="#9bd8f9"/>
      <path id="Trazado_2285" data-name="Trazado 2285" d="M194.273,297.5a19.274,19.274,0,0,1-2.193-2,1.507,1.507,0,0,0-2.054-.137l-2.061,1.692a23.786,23.786,0,0,0,3.782,3.695,13.459,13.459,0,0,0,2.7,1.626,2.8,2.8,0,0,1,2.219-3.532A9.368,9.368,0,0,1,194.273,297.5Z" transform="translate(-164.94 -258.789)" fill="#73c3f9"/>
      <path id="Trazado_2286" data-name="Trazado 2286" d="M287.492,113.349a3.536,3.536,0,0,0-2.858-1.884H276.62a1.236,1.236,0,0,0-.326.8,1,1,0,0,0,.348.715c-.309.586-1.354,2.906.436,4.506a1.405,1.405,0,0,0,.059,1.779.328.328,0,0,1,.444.053c1.751,2.071,3.073,2.522,3.892,2.522h2.543a3.3,3.3,0,0,0,2.391-1.051,5.037,5.037,0,0,0,1.469-3.41v-2.707A2.439,2.439,0,0,0,287.492,113.349Z" transform="translate(-242.212 -97.774)" fill="#4b6bb2"/>
      <path id="Trazado_2287" data-name="Trazado 2287" d="M210.855,119.319a.327.327,0,0,1,.251-.116,1.287,1.287,0,0,1,0-1.743c-2.162-1.751-.454-4.521-.454-4.521a.912.912,0,0,1,0-1.474H203.8a3.535,3.535,0,0,0-2.858,1.884,2.439,2.439,0,0,0-.383,1.323v2.707a5.038,5.038,0,0,0,1.469,3.41,3.3,3.3,0,0,0,2.391,1.051h2.543C207.782,121.842,209.1,121.391,210.855,119.319Z" transform="translate(-175.989 -97.774)" fill="#2a428c"/>
      <path id="Trazado_2288" data-name="Trazado 2288" d="M283.573,123.466h-1.955a10.68,10.68,0,0,1-3.364,0H276.6c.014.014.026.028.041.042-.308.586-1.354,2.9.435,4.505a1.327,1.327,0,0,1,.253-.026,1.344,1.344,0,0,1,1.059.519c.065.082.129.162.194.24a5.333,5.333,0,0,1,1.267.52,10.36,10.36,0,0,0,5.209,1.284,1.939,1.939,0,0,0,.154-.125,5,5,0,0,1,1.169-2.194,2.809,2.809,0,0,0,.02-.323v-1.613A13.718,13.718,0,0,0,283.573,123.466Z" transform="translate(-242.213 -108.301)" fill="#ffaa7b"/>
      <path id="Trazado_2289" data-name="Trazado 2289" d="M220.572,128.5a1.344,1.344,0,0,1,1.059-.519c-2.162-1.751-.454-4.521-.454-4.521h-6.85c-.76,0-1.385.845-1.619,1.208a.968.968,0,0,0-.149.526v2.707a3.6,3.6,0,0,0,1.069,2.4,1.956,1.956,0,0,0,.274.241,10.36,10.36,0,0,0,5.209-1.284,5.334,5.334,0,0,1,1.267-.52C220.443,128.666,220.508,128.587,220.572,128.5Z" transform="translate(-186.514 -108.3)" fill="#fc9460"/>
      <path id="Trazado_2290" data-name="Trazado 2290" d="M301.554,165.822a.518.518,0,0,0-.114-.01,10.393,10.393,0,0,1-5.366-1.28,5.282,5.282,0,0,0-1.52-.581c.02.022.04.043.059.067,1.181,1.5,2.334,2.389,3.084,2.389h2.543A1.8,1.8,0,0,0,301.554,165.822Z" transform="translate(-258.437 -143.812)" fill="#bec8f7"/>
      <path id="Trazado_2291" data-name="Trazado 2291" d="M226.767,164.531a10.393,10.393,0,0,1-5.366,1.28.52.52,0,0,0-.114.01,1.8,1.8,0,0,0,1.314.584h2.543c.75,0,1.9-.893,3.084-2.389.019-.024.039-.045.059-.067A5.282,5.282,0,0,0,226.767,164.531Z" transform="translate(-194.17 -143.812)" fill="#a8b7ef"/>
      <path id="Trazado_2292" data-name="Trazado 2292" d="M338.308,123.466h-1.061l2.828,2.828V125.2a.968.968,0,0,0-.149-.526C339.693,124.311,339.068,123.466,338.308,123.466Z" transform="translate(-295.887 -108.301)" fill="#ffc7ab"/>
      <path id="Trazado_2293" data-name="Trazado 2293" d="M297.3,123.466h-3.364l6.958,6.958c.041-.037.081-.075.12-.116a3.752,3.752,0,0,0,1.049-2.078Z" transform="translate(-257.9 -108.301)" fill="#ffc7ab"/>
      <path id="Trazado_2294" data-name="Trazado 2294" d="M275.292,323.733h-1.926a.73.73,0,0,0-.73.73v22.385a30.279,30.279,0,0,0,3.385-.276V324.463A.73.73,0,0,0,275.292,323.733Z" transform="translate(-239.212 -283.969)" fill="#49b1f7"/>
      <path id="Trazado_2295" data-name="Trazado 2295" d="M38.833,197.411a5.655,5.655,0,0,0,4.508,1.83l5.577,5.875a5.779,5.779,0,0,0,2.38,3.636c1.512,1,3.531,1.188,6,.573a13.375,13.375,0,0,0-19.819-17.637c-.1.81-.323,3.74,1.351,5.723Z" transform="translate(-32.881 -165.267)" fill="#ffdd40"/>
      <path id="Trazado_2296" data-name="Trazado 2296" d="M25.085,231.238c-7.471,1.971-8.362-4.069-8.362-4.069l-5.67-5.973c-7.009,0-5.727-7.548-5.727-7.549a13.375,13.375,0,1,0,19.759,17.59Z" transform="translate(-0.514 -187.406)" fill="#ffc839"/>
      <g id="Grupo_20681" data-name="Grupo 20681" transform="translate(12.76 19.14)">
        <path id="Trazado_2297" data-name="Trazado 2297" d="M105.015,162.931a.614.614,0,0,1-.614-.614v-5.874a.614.614,0,1,1,1.228,0v5.874A.614.614,0,0,1,105.015,162.931Z" transform="translate(-104.401 -155.829)" fill="#deeeff"/>
      </g>
      <path id="Trazado_2298" data-name="Trazado 2298" d="M101.077,204.711h-.715a.536.536,0,0,0-.526.431l-.176.881A8.019,8.019,0,0,0,99.5,207.6v3.127h2.431V207.6a8.021,8.021,0,0,0-.156-1.573l-.176-.881A.536.536,0,0,0,101.077,204.711Z" transform="translate(-87.345 -179.567)" fill="#73c3f9"/>
      <path id="Trazado_2299" data-name="Trazado 2299" d="M101.274,209.248a.555.555,0,0,1-.554-.554v-3.642a.547.547,0,0,1,.121-.34h-.479a.536.536,0,0,0-.526.431l-.176.881a8.02,8.02,0,0,0-.156,1.573v3.127h2.431v-1.476h-.662Z" transform="translate(-87.346 -179.568)" fill="#1e9ef4"/>
      <path id="Trazado_2300" data-name="Trazado 2300" d="M96.813,253.659h3.092v2.177H96.813Z" transform="translate(-84.985 -222.502)" fill="#1e9ef4"/>
      <g id="Grupo_20682" data-name="Grupo 20682" transform="translate(10.917 30.542)">
        <path id="Trazado_2301" data-name="Trazado 2301" d="M93.7,249.887H90.011a.614.614,0,1,1,0-1.228H93.7a.614.614,0,1,1,0,1.228Z" transform="translate(-89.397 -248.659)" fill="#9bd8f9"/>
      </g>
      <path id="Trazado_2302" data-name="Trazado 2302" d="M91.376,270.106H86.934a.614.614,0,0,0-.614.614v.831h5.67v-.831A.614.614,0,0,0,91.376,270.106Z" transform="translate(-75.781 -236.929)" fill="#cc0053"/>
      <path id="Trazado_2303" data-name="Trazado 2303" d="M110.2,295.716a1.524,1.524,0,0,0-1.52,1.52V308a1.518,1.518,0,0,0,.685,1.266,13.412,13.412,0,0,0,2.238-.288V295.716Z" transform="translate(-95.397 -259.394)" fill="#ff4155"/>
      <path id="Trazado_2304" data-name="Trazado 2304" d="M89.154,294.763V284.319a1.478,1.478,0,0,1,1.474-1.474h1.361v-2h-5.67v15.094a13.425,13.425,0,0,0,2.835.3q.563,0,1.114-.046A1.478,1.478,0,0,1,89.154,294.763Z" transform="translate(-75.78 -246.346)" fill="#e80054"/>
      <g id="Grupo_20683" data-name="Grupo 20683" transform="translate(9.925 36.817)">
        <path id="Trazado_2305" data-name="Trazado 2305" d="M83.222,300.974H81.933a.614.614,0,0,1,0-1.228h1.289a.614.614,0,1,1,0,1.228Z" transform="translate(-81.319 -299.746)" fill="#f9a0b1"/>
      </g>
      <g id="Grupo_20684" data-name="Grupo 20684" transform="translate(9.925 39.241)">
        <path id="Trazado_2306" data-name="Trazado 2306" d="M82.527,320.708h-.594a.614.614,0,0,1,0-1.228h.594a.614.614,0,1,1,0,1.228Z" transform="translate(-81.319 -319.48)" fill="#ff7186"/>
      </g>
      <g id="Grupo_20685" data-name="Grupo 20685" transform="translate(9.925 41.665)">
        <path id="Trazado_2307" data-name="Trazado 2307" d="M82.527,340.441h-.594a.614.614,0,0,1,0-1.228h.594a.614.614,0,1,1,0,1.228Z" transform="translate(-81.319 -339.213)" fill="#ff7186"/>
      </g>
      <g id="Grupo_20686" data-name="Grupo 20686" transform="translate(9.925 44.089)">
        <path id="Trazado_2308" data-name="Trazado 2308" d="M83.222,360.175H81.933a.614.614,0,0,1,0-1.228h1.289a.614.614,0,1,1,0,1.228Z" transform="translate(-81.319 -358.947)" fill="#f9a0b1"/>
      </g>
      <g id="Grupo_20687" data-name="Grupo 20687" transform="translate(9.925 46.513)">
        <path id="Trazado_2309" data-name="Trazado 2309" d="M82.527,379.908h-.594a.614.614,0,0,1,0-1.228h.594a.614.614,0,1,1,0,1.228Z" transform="translate(-81.319 -378.68)" fill="#ff7186"/>
      </g>
      <path id="Trazado_2310" data-name="Trazado 2310" d="M66.378,62.644c3.558,2.551,9.037,2.67,11.1-.927,1.373-2.391-.025-5.655-1.367-7.888a30.243,30.243,0,0,0-9.736,8.816Z" transform="translate(-58.288 -47.216)" fill="#7255ce"/>
      <path id="Trazado_2311" data-name="Trazado 2311" d="M403.479,105.813a30.019,30.019,0,0,0-10.191-22.57c-1.224,1.624-1.591,4.221-.855,7.769,1.474,7.106-8.066,8.617-2.088,16.222,3.121,3.971,8.45,3.993,12.79,3.126a30.3,30.3,0,0,0,.344-4.547Z" transform="translate(-340.717 -73.018)" fill="#7255ce"/>
      <path id="Trazado_2312" data-name="Trazado 2312" d="M274.329,442.634a1.767,1.767,0,0,1-1.693-1.262v8.665a30.258,30.258,0,0,0,3.385-.275v-8.39A1.767,1.767,0,0,1,274.329,442.634Z" transform="translate(-239.212 -387.159)" fill="#1e9ef4"/>
      <path id="Trazado_2313" data-name="Trazado 2313" d="M420.333,401.969a10.29,10.29,0,0,0-2.234-3.539,1.1,1.1,0,0,0-1.88.766v6.617A30.256,30.256,0,0,0,420.333,401.969Z" transform="translate(-365.159 -349.199)" fill="#49b1f7"/>
    </g>
    <g id="Grupo_103356" data-name="Grupo 103356" transform="translate(346.195 4770.323)">
      <circle id="Elipse_5351" data-name="Elipse 5351" cx="34.111" cy="34.111" r="34.111" transform="translate(469.634 14.567)" fill="#ffdc72"/>
      <g id="Filled_outline" data-name="Filled outline" transform="translate(463.805 8.677)">
        <path id="Trazado_164717" data-name="Trazado 164717" d="M492.928,27.482v19.97a10.651,10.651,0,0,1-10.65,10.65H475.62a10.638,10.638,0,0,1-10.65-10.626V27.482a10.65,10.65,0,0,1,10.65-10.65h6.657a10.649,10.649,0,0,1,10.65,10.648Z" transform="translate(-463.639 -7.512)" fill="#e0e0de"/>
        <path id="Trazado_164718" data-name="Trazado 164718" d="M492.824,27.063v19.97a10.651,10.651,0,0,1-10.65,10.65h-6.657a10.656,10.656,0,0,1-9.822-6.522c9.4-4.433,20.1-13.384,24.241-31.391A10.615,10.615,0,0,1,492.824,27.063Z" transform="translate(-463.535 -7.092)" fill="#d6d6d4"/>
        <rect id="Rectángulo_26395" data-name="Rectángulo 26395" width="17.307" height="30.62" rx="4.66" transform="translate(6.656 14.645)" fill="#4db7e5"/>
        <path id="Trazado_164719" data-name="Trazado 164719" d="M472.292,46.787V26.817a5.332,5.332,0,0,1,5.326-5.326h-2.663a5.333,5.333,0,0,0-5.326,5.326v19.97a5.332,5.332,0,0,0,5.326,5.325h2.663A5.331,5.331,0,0,1,472.292,46.787Z" transform="translate(-462.973 -6.846)" fill="#48add9"/>
        <path id="Trazado_164720" data-name="Trazado 164720" d="M481.612,21.491h-6.657a5.333,5.333,0,0,0-5.326,5.326h17.307A5.332,5.332,0,0,0,481.612,21.491Z" transform="translate(-462.973 -6.846)" fill="#c7c7c5"/>
        <path id="Trazado_164721" data-name="Trazado 164721" d="M477.618,21.491h-2.663a5.333,5.333,0,0,0-5.326,5.326h2.663A5.332,5.332,0,0,1,477.618,21.491Z" transform="translate(-462.973 -6.846)" fill="#bfbfbd"/>
        <path id="Trazado_164722" data-name="Trazado 164722" d="M486.1,43.625h-7.987a2.663,2.663,0,0,1,0-5.326h2.663a3.994,3.994,0,0,1,3.993-3.994H486.1Z" transform="translate(-462.141 -5.016)" fill="#ebebe9"/>
        <path id="Trazado_164723" data-name="Trazado 164723" d="M521.717,48.451h-.03a5.538,5.538,0,0,1-3.631-5.2V37.8H504.743v5.451a5.539,5.539,0,0,1-3.631,5.2h-.031l-6.99,1.331V84.4h34.615V49.782Z" transform="translate(-459.478 -4.517)" fill="#fec9a3"/>
        <path id="Trazado_164724" data-name="Trazado 164724" d="M516.725,41.107V37.8H503.412v3.307A11.976,11.976,0,0,0,516.725,41.107Z" transform="translate(-458.147 -4.517)" fill="#feb784"/>
        <path id="Trazado_164725" data-name="Trazado 164725" d="M521.717,47.428h-.03a5.522,5.522,0,0,1-2.893-2.466l-7.4,2.465L504,44.962a5.519,5.519,0,0,1-2.891,2.466h-.031l-6.99,1.331V83.373h34.615V48.759Z" transform="translate(-459.478 -3.493)" fill="#d6d6d4"/>
        <path id="Trazado_164726" data-name="Trazado 164726" d="M503.48,56.261l7.046-8.808-7.987-2.663-2.33,2.663h.031Z" transform="translate(-458.605 -3.518)" fill="#ebebe9"/>
        <path id="Trazado_164727" data-name="Trazado 164727" d="M516.283,56.261l-7.047-8.808,7.989-2.663,2.329,2.663h-.03Z" transform="translate(-457.315 -3.518)" fill="#ebebe9"/>
        <path id="Trazado_164728" data-name="Trazado 164728" d="M509.569,47.12l-2.663,3.328V67.841l2.663,7.237,2.663-7.237V50.448Z" transform="translate(-457.648 -3.185)" fill="#348fd9"/>
        <path id="Trazado_164729" data-name="Trazado 164729" d="M509.569,47.12l-2.663,3.328V67.841l2.663,7.237,2.663-7.237V50.448Z" transform="translate(-457.648 -3.185)" fill="#348fd9"/>
        <path id="Trazado_164730" data-name="Trazado 164730" d="M521.051,22.656H519.72v7.989h1.331a3.994,3.994,0,0,0,0-7.989Z" transform="translate(-455.817 -6.68)" fill="#feb784"/>
        <path id="Trazado_164731" data-name="Trazado 164731" d="M498.153,22.656h-.066a3.994,3.994,0,0,0,0,7.989h1.331V22.656Z" transform="translate(-459.478 -6.68)" fill="#feb784"/>
        <path id="Trazado_164732" data-name="Trazado 164732" d="M522.715,22.991v9.318a11.982,11.982,0,1,1-23.963,0V22.991a11.982,11.982,0,0,1,11.982-11.982l.272,0A11.982,11.982,0,0,1,522.715,22.991Z" transform="translate(-458.813 -8.344)" fill="#fec9a3"/>
        <path id="Trazado_164733" data-name="Trazado 164733" d="M521.439,22.99v9.318a11.982,11.982,0,0,1-13.752,11.85,14.64,14.64,0,0,0,8.261-13.182V22.988a14.654,14.654,0,0,0-6.218-11.977A11.982,11.982,0,0,1,521.439,22.99Z" transform="translate(-457.536 -8.344)" fill="#fec093"/>
        <path id="Trazado_164734" data-name="Trazado 164734" d="M518.131,13.337H506.95c-1.049,1.456-2.464,3.354-4.059,5.326h15.24Z" transform="translate(-458.221 -8.011)" fill="#fec093"/>
        <path id="Trazado_164735" data-name="Trazado 164735" d="M498.752,24.32V16.333c0-4.413,2.981-5.326,6.657-5.326H509.4A103.959,103.959,0,0,1,498.752,24.32Z" transform="translate(-458.813 -8.344)" fill="#f27900"/>
        <path id="Trazado_164736" data-name="Trazado 164736" d="M499.263,13.337A6.229,6.229,0,0,0,498.752,16v2.663h4.73c1.6-1.971,3.011-3.87,4.059-5.326Z" transform="translate(-458.813 -8.011)" fill="#e67007"/>
        <path id="Trazado_164737" data-name="Trazado 164737" d="M521.051,24.32V16.333c0-4.413-2.979-5.326-6.656-5.326H510.4A104.068,104.068,0,0,0,521.051,24.32Z" transform="translate(-457.148 -8.344)" fill="#f27900"/>
        <path id="Trazado_164738" data-name="Trazado 164738" d="M508.559,30.4h-2.817V33.06h2.817a19.146,19.146,0,0,0,5.557-.816l-.773-2.547a16.46,16.46,0,0,1-4.784.7Z" transform="translate(-457.814 -5.674)" fill="#f7a468"/>
        <circle id="Elipse_5352" data-name="Elipse 5352" cx="1.997" cy="1.997" r="1.997" transform="translate(43.933 15.977)" fill="#7a432a"/>
        <circle id="Elipse_5353" data-name="Elipse 5353" cx="1.997" cy="1.997" r="1.997" transform="translate(55.915 15.977)" fill="#7a432a"/>
        <path id="Trazado_164739" data-name="Trazado 164739" d="M522.8,16.5H501.5a3.329,3.329,0,0,1,0-6.657h14.645A6.656,6.656,0,0,1,522.8,16.5Z" transform="translate(-458.896 -8.511)" fill="#f98500"/>
        <g id="Grupo_103397" data-name="Grupo 103397" transform="translate(41.238 1.331)">
          <path id="Trazado_164740" data-name="Trazado 164740" d="M514.527,9.869c-.093,0-.178-.027-.271-.027h-2.883l4.149,6.657h3.136Z" transform="translate(-498.247 -9.842)" fill="#f27900"/>
          <path id="Trazado_164741" data-name="Trazado 164741" d="M501.253,9.842a3.309,3.309,0,0,0-1.365.3l3.96,6.358h3.137l-4.147-6.657Z" transform="translate(-499.888 -9.842)" fill="#f27900"/>
          <path id="Trazado_164742" data-name="Trazado 164742" d="M505.549,9.842,509.7,16.5h3.137l-4.149-6.657Z" transform="translate(-499.079 -9.842)" fill="#f27900"/>
        </g>
        <path id="Trazado_164743" data-name="Trazado 164743" d="M485.938,56.543V82.9h9.319V48.284l-2.461.352A7.988,7.988,0,0,0,485.938,56.543Z" transform="translate(-460.643 -3.019)" fill="#e0e0de"/>
        <path id="Trazado_164744" data-name="Trazado 164744" d="M533.7,56.543V82.9H524.38V48.284l2.462.351a7.987,7.987,0,0,1,6.857,7.909Z" transform="translate(-455.151 -3.019)" fill="#e0e0de"/>
        <path id="Trazado_164745" data-name="Trazado 164745" d="M533.7,56.327V82.683H524.38V58.917a42.632,42.632,0,0,0,5.931-9.121A7.977,7.977,0,0,1,533.7,56.327Z" transform="translate(-455.151 -2.803)" fill="#d6d6d4"/>
        <path id="Trazado_164746" data-name="Trazado 164746" d="M528.707,48.45V83.065H494.092V48.45l6.99-1.331h.03l9.328,25.351.96,2.607,1.527-4.149,8.761-23.809h.03Z" transform="translate(-459.478 -3.185)" fill="#49648e"/>
        <path id="Trazado_164747" data-name="Trazado 164747" d="M528.707,53.4V82.168H494.092V78.579a75.794,75.794,0,0,0,16.347-7.007l.96,2.607,1.527-4.149A46.75,46.75,0,0,0,528.707,53.4Z" transform="translate(-459.478 -2.288)" fill="#425b82"/>
        <path id="Trazado_164748" data-name="Trazado 164748" d="M508.071,70.418h2.663v9.319h-2.663Z" transform="translate(-457.481 0.143)" fill="#3c5174"/>
        <path id="Trazado_164749" data-name="Trazado 164749" d="M515.061,66.923h10.65v5.325h-10.65Z" transform="translate(-456.483 -0.356)" fill="#ffb531"/>
        <path id="Trazado_164750" data-name="Trazado 164750" d="M515.061,69.253h10.65v2.662h-10.65Z" transform="translate(-456.483 -0.023)" fill="#ffa912"/>
        <path id="Trazado_164751" data-name="Trazado 164751" d="M509.569,47.12l-2.663,3.328v3.328l2.663-3.994,2.663,3.994V50.448Z" transform="translate(-457.648 -3.185)" fill="#3086cd"/>
        <path id="Trazado_164752" data-name="Trazado 164752" d="M477.345,71.582l-.726,7.989h10.65V71.582Z" transform="translate(-461.974 0.309)" fill="#ebebe9"/>
        <path id="Trazado_164753" data-name="Trazado 164753" d="M487.179,65.758H477.86l-.606,6.656h9.925Z" transform="translate(-461.884 -0.523)" fill="#ebebe9"/>
        <path id="Trazado_164754" data-name="Trazado 164754" d="M488.268,57.964v9.791H476.84a8.033,8.033,0,0,1-3.571-.843L471.1,65.828a2.665,2.665,0,0,1-1.472-2.382V57.888a1.6,1.6,0,0,1,2.312-1.429l1.328.662a7.956,7.956,0,0,0,3.571.843h6.1l-1.217-2.438a2.589,2.589,0,0,1,4.633-2.314c.032.064.061.129.088.2l.905,2.261Z" transform="translate(-462.973 -2.52)" fill="#fec9a3"/>
        <path id="Trazado_164755" data-name="Trazado 164755" d="M487.477,57.478v9.791H476.05a7.9,7.9,0,0,1-.886-.05,31.621,31.621,0,0,0,11.4-12.035Z" transform="translate(-462.182 -2.033)" fill="#fec093"/>
        <path id="Trazado_164756" data-name="Trazado 164756" d="M481.778,53.609a6.663,6.663,0,0,0,6.656-6.656V26.983a6.665,6.665,0,0,0-6.656-6.657h-6.657a6.666,6.666,0,0,0-6.657,6.657v19.97a6.664,6.664,0,0,0,6.657,6.656Zm3.993-9.319h-6.656a1.331,1.331,0,0,1,0-2.663h2.663a1.331,1.331,0,0,0,1.33-1.331,2.667,2.667,0,0,1,2.663-2.663Zm-10.65-21.3h6.657a4,4,0,0,1,3.765,2.663H471.357A4,4,0,0,1,475.121,22.989Zm-3.994,23.965V28.315h14.645v6.656a5.335,5.335,0,0,0-5.157,3.994h-1.5a3.994,3.994,0,0,0,0,7.989h6.656a4,4,0,0,1-3.993,3.993h-6.657A4,4,0,0,1,471.127,46.953Z" transform="translate(-463.139 -7.013)"/>
        <path id="Trazado_164757" data-name="Trazado 164757" d="M505.742,33.06h2.817a19.184,19.184,0,0,0,5.557-.815l-.773-2.549a16.5,16.5,0,0,1-4.784.7h-2.817Z" transform="translate(-457.814 -5.674)"/>
        <path id="Trazado_164758" data-name="Trazado 164758" d="M504.244,26.651a2,2,0,1,0-2-2A2,2,0,0,0,504.244,26.651Z" transform="translate(-458.313 -6.68)"/>
        <path id="Trazado_164759" data-name="Trazado 164759" d="M514.728,26.651a2,2,0,1,0-2-2A2,2,0,0,0,514.728,26.651Z" transform="translate(-456.816 -6.68)"/>
        <path id="Trazado_164760" data-name="Trazado 164760" d="M535.683,52.976l-8.939-1.587-2.027-2.317a1.325,1.325,0,0,0-.819-.441,4.2,4.2,0,0,1-.182-1.225v-4.12a13.277,13.277,0,0,0,5.258-9.313h.066a5.326,5.326,0,0,0,0-10.651V16.666a7.886,7.886,0,0,0-.061-.973,6.11,6.11,0,0,0-.91-2.849c-.035-.064-.066-.112-.093-.152a7.99,7.99,0,0,0-6.925-4.015H506.407a4.658,4.658,0,0,0-3.955,7.12c-.025.27-.039.557-.039.869v6.656a5.326,5.326,0,0,0,0,10.651h.067a13.273,13.273,0,0,0,5.258,9.313v4.12a4.249,4.249,0,0,1-.182,1.226,1.324,1.324,0,0,0-.821.44l-2.026,2.317-8.941,1.587a9.187,9.187,0,0,0-2.458.711,12.023,12.023,0,0,0,1.114-5.07V28.647a12,12,0,0,0-11.982-11.982h-6.657A11.994,11.994,0,0,0,463.8,28.647v19.97A12,12,0,0,0,475.787,60.6h5.163a3.9,3.9,0,0,0,.416,1.68l.255.512h-3.949a6.711,6.711,0,0,1-2.977-.7l-1.327-.664a2.93,2.93,0,0,0-4.239,2.621V69.6a3.973,3.973,0,0,0,2.208,3.573l2.167,1.083a9.372,9.372,0,0,0,4.168.985h.65l-1.2,13.192,2.651.241.616-6.777h7.377v6.657h2.663V62.2a6.689,6.689,0,0,1,5.715-6.59l.942-.135v33.08h2.662V55.044l4.826-.919.351.952,9.467,25.73v7.75h2.663v-7.75l6.965-18.927,2.5-6.8.35-.952,4.826.92V73.912h-9.319a1.331,1.331,0,0,0-1.331,1.331v5.325a1.331,1.331,0,0,0,1.331,1.331H531.7v6.657h2.663V55.477l.942.135a6.691,6.691,0,0,1,5.715,6.59V88.557h2.662V62.2a9.363,9.363,0,0,0-8-9.225Zm-69.215-4.359V28.647a9.33,9.33,0,0,1,9.319-9.319h6.657a9.33,9.33,0,0,1,9.319,9.319v19.97a9.255,9.255,0,0,1-5.223,8.369,3.905,3.905,0,0,0-4.613.95h-6.141A9.33,9.33,0,0,1,466.468,48.618ZM474.7,71.878l-2.167-1.083a1.324,1.324,0,0,1-.736-1.191V64.046a.266.266,0,0,1,.385-.239l1.327.663a9.355,9.355,0,0,0,4.168.984h6.1a1.33,1.33,0,0,0,1.191-1.926l-1.218-2.438A1.258,1.258,0,0,1,486,59.966a.968.968,0,0,1,.042.094l1.728,4.319v8.2h-10.1a6.7,6.7,0,0,1-2.977-.7Zm5.938,7.36L481,75.244h6.771v3.994Zm43.081,0V76.575H531.7v2.663ZM510.4,44.843a13.31,13.31,0,0,0,10.65,0v2.562a6.848,6.848,0,0,0,.279,1.935l-5.6,1.869-5.6-1.867a6.93,6.93,0,0,0,.279-1.935Zm5.325,9.9,1.331,1.664V73.1l-1.331,3.618L514.395,73.1V56.407ZM511.733,65.86l-1.544-4.2,1.544-1.93Zm7.987-6.125,1.544,1.93L519.72,65.86Zm2.618-.99-2.91-3.637-1.47-1.838,5.336-1.778L524.5,52.87ZM505.076,17.8a4.647,4.647,0,0,0,1.331.2h1.433q-1.423,1.783-2.765,3.291Zm6.079-2.467-2.4-3.994h3.552l2.4,3.994Zm6.657,0-2.4-3.994h3.551l2.4,3.994ZM526.378,18v3.294q-1.336-1.5-2.767-3.294Zm5.325,10.65a2.666,2.666,0,0,1-2.663,2.663V25.984A2.666,2.666,0,0,1,531.7,28.647Zm-5.494-13.313h-1.741l-2.329-3.882A5.345,5.345,0,0,1,526.208,15.334Zm-20.482-3.872,2.323,3.872h-1.642a2,2,0,0,1-.681-3.872ZM499.75,28.647a2.667,2.667,0,0,1,2.663-2.663V31.31A2.667,2.667,0,0,1,499.75,28.647Zm5.326,3.994V25.2c.5-.513.982-1.023,1.422-1.512,1.49-1.631,3.078-3.544,4.721-5.691h9.017c.163.211.328.425.492.647l.021.026a78.648,78.648,0,0,0,5.629,6.53v7.442a10.651,10.651,0,0,1-21.3,0Zm3.081,18.85,5.337,1.779-1.47,1.838-2.91,3.637-2.162-5.877Z" transform="translate(-463.805 -8.677)"/>
      </g>
    </g>
  </g>
</svg>
