<svg xmlns="http://www.w3.org/2000/svg" width="80" height="64.929" viewBox="0 0 80 64.929">
  <g id="Grupo_103473" data-name="Grupo 103473" transform="translate(-810 -4921)">
    <g id="Grupo_103357" data-name="Grupo 103357" transform="translate(259.789 4912.004)">
      <circle id="Elipse_5354" data-name="Elipse 5354" cx="29.847" cy="29.847" r="29.847" transform="translate(560.365 11.613)" fill="#ffdc72"/>
      <g id="Grupo_103399" data-name="Grupo 103399">
        <path id="Trazado_164761" data-name="Trazado 164761" d="M574.111,14.583V16.63l16.1,3.006,16.1-3.006V14.583Z" fill="#61b4d8"/>
        <path id="Trazado_164762" data-name="Trazado 164762" d="M621.324,44.281l-31.113,3.475L559.1,44.281a8.734,8.734,0,0,1-7.129-5.408l-.57-1.413h77.623l-.571,1.413A8.732,8.732,0,0,1,621.324,44.281Z" fill="#3598ba"/>
        <path id="Trazado_164763" data-name="Trazado 164763" d="M629.023,37.46l-.572.708c-1.2,1.487-3.938,2.525-7.127,2.7l-31.112,1.736L559.1,40.872c-3.189-.179-5.926-1.217-7.129-2.7l-.57-.708Z" fill="#61b4d8"/>
        <path id="Trazado_164764" data-name="Trazado 164764" d="M608.361,40.581a18.15,18.15,0,1,1-18.15-18.149A18.149,18.149,0,0,1,608.361,40.581Z" fill="#61b4d8"/>
        <path id="Trazado_164765" data-name="Trazado 164765" d="M590.211,58.73a18.148,18.148,0,1,1,0-36.3c-6.076,0-11,8.125-11,18.148S584.135,58.73,590.211,58.73Z" fill="#3598ba"/>
        <path id="Trazado_164766" data-name="Trazado 164766" d="M595.706,23.281h-10.99l2.03-9.38a3.474,3.474,0,1,1,6.93,0Z" fill="#61b4d8"/>
        <path id="Trazado_164767" data-name="Trazado 164767" d="M590.212,10.184v13.1h-5.5l2.03-9.38a4.966,4.966,0,0,1,3.466-3.717Z" fill="#3598ba"/>
        <path id="Trazado_164768" data-name="Trazado 164768" d="M568.724,47.55a5.367,5.367,0,1,1-5.367-5.367A5.367,5.367,0,0,1,568.724,47.55Z" fill="#f7526e"/>
        <path id="Trazado_164769" data-name="Trazado 164769" d="M622.433,47.55a5.367,5.367,0,1,1-5.368-5.367A5.367,5.367,0,0,1,622.433,47.55Z" fill="#f7526e"/>
        <path id="Trazado_164770" data-name="Trazado 164770" d="M602.461,39.516a27.212,27.212,0,0,0-24.5,0l1.6-8.469a21,21,0,0,1,21.306,0Z" fill="#c9ebf7"/>
        <path id="Trazado_164771" data-name="Trazado 164771" d="M590.212,65.381v5.264a2.086,2.086,0,0,1-1.266,1.92,2.052,2.052,0,0,1-.826.171,2.09,2.09,0,0,1-2.089-2.091V65.381a2.09,2.09,0,0,1,2.089-2.089,2.1,2.1,0,0,1,1.478.612A2.082,2.082,0,0,1,590.212,65.381Z" fill="#1a414c"/>
        <path id="Trazado_164772" data-name="Trazado 164772" d="M590.212,65.381v5.264a1.377,1.377,0,1,1-2.53,0V65.381a1.31,1.31,0,1,1,2.53,0Z" fill="#2e5968"/>
        <path id="Trazado_164773" data-name="Trazado 164773" d="M594.392,65.381v5.264a2.086,2.086,0,0,1-1.266,1.92,2.047,2.047,0,0,1-.825.171,2.091,2.091,0,0,1-2.09-2.091V65.381a2.09,2.09,0,0,1,2.09-2.089,2.106,2.106,0,0,1,1.478.612A2.08,2.08,0,0,1,594.392,65.381Z" fill="#1a414c"/>
        <path id="Trazado_164774" data-name="Trazado 164774" d="M594.392,65.381v5.264a1.377,1.377,0,1,1-2.53,0V65.381a2.087,2.087,0,0,1,1.264-1.918,2.086,2.086,0,0,1,1.266,1.918Z" fill="#2e5968"/>
        <path id="Trazado_164775" data-name="Trazado 164775" d="M563.357,59.568v5.265a2.09,2.09,0,1,1-4.18,0V59.568a2.09,2.09,0,0,1,2.089-2.089,2.055,2.055,0,0,1,.826.171,2.092,2.092,0,0,1,1.265,1.918Z" fill="#1a414c"/>
        <path id="Trazado_164776" data-name="Trazado 164776" d="M563.357,59.568v5.265a1.377,1.377,0,1,1-2.53,0V59.568a1.31,1.31,0,1,1,2.53,0Z" fill="#2e5968"/>
        <path id="Trazado_164777" data-name="Trazado 164777" d="M567.538,59.568v5.265a2.087,2.087,0,0,1-1.266,1.92,2.064,2.064,0,0,1-.825.171,2.091,2.091,0,0,1-2.09-2.091V59.568a2.09,2.09,0,0,1,2.09-2.089,2.047,2.047,0,0,1,.825.171,2.094,2.094,0,0,1,1.266,1.918Z" fill="#1a414c"/>
        <path id="Trazado_164778" data-name="Trazado 164778" d="M567.538,59.568v5.265a1.377,1.377,0,1,1-2.53,0V59.568a1.31,1.31,0,1,1,2.53,0Z" fill="#2e5968"/>
        <path id="Trazado_164779" data-name="Trazado 164779" d="M617.065,59.568v5.265a2.09,2.09,0,1,1-4.18,0V59.568a2.09,2.09,0,0,1,2.089-2.089,2.052,2.052,0,0,1,.826.171,2.105,2.105,0,0,1,.653.442A2.08,2.08,0,0,1,617.065,59.568Z" fill="#1a414c"/>
        <path id="Trazado_164780" data-name="Trazado 164780" d="M617.065,59.568v5.265a1.377,1.377,0,1,1-2.53,0V59.568a1.31,1.31,0,1,1,2.53,0Z" fill="#2e5968"/>
        <path id="Trazado_164781" data-name="Trazado 164781" d="M621.246,59.568v5.265a2.087,2.087,0,0,1-1.266,1.92,2.064,2.064,0,0,1-.825.171,2.091,2.091,0,0,1-2.09-2.091V59.568a2.091,2.091,0,0,1,2.09-2.089,2.047,2.047,0,0,1,.825.171,2.09,2.09,0,0,1,1.266,1.918Z" fill="#1a414c"/>
        <path id="Trazado_164782" data-name="Trazado 164782" d="M621.246,59.568v5.265a1.377,1.377,0,1,1-2.53,0V59.568a1.31,1.31,0,1,1,2.53,0Z" fill="#2e5968"/>
        <path id="Trazado_164783" data-name="Trazado 164783" d="M630.008,36.8a1.188,1.188,0,0,0-.985-.524h-6.965a1.188,1.188,0,0,0,0,2.377h5.2a7.535,7.535,0,0,1-5.472,4.359,6.546,6.546,0,0,0-10.347,1.182l-2.279.255a19.3,19.3,0,0,0,.388-3.864q0-.978-.1-1.932H617.3a1.188,1.188,0,0,0,0-2.377h-8.241a19.415,19.415,0,0,0-12.338-13.9l-.571-2.639L606.529,17.8a1.19,1.19,0,0,0,.971-1.169V14.584a1.188,1.188,0,0,0-1.188-1.189H594.774a6.145,6.145,0,0,0-4.231-4.352,1.19,1.19,0,0,0-.664,0,6.145,6.145,0,0,0-4.231,4.352H574.111a1.189,1.189,0,0,0-1.189,1.189V16.63a1.19,1.19,0,0,0,.97,1.169l10.376,1.936-.571,2.639a19.413,19.413,0,0,0-12.338,13.9H551.4a1.189,1.189,0,0,0-1.1,1.633l.571,1.413a9.91,9.91,0,0,0,6.4,5.8,6.551,6.551,0,0,0,4.9,8.875V56.42a3.24,3.24,0,0,0-.9-.13,3.282,3.282,0,0,0-3.278,3.279v5.264a5.761,5.761,0,0,0,10.737,0V59.569a3.283,3.283,0,0,0-3.279-3.279,3.24,3.24,0,0,0-.9.13V54a6.54,6.54,0,0,0,5.308-7.318l2.084.233a19.122,19.122,0,0,0,1.615,3.493A1.188,1.188,0,0,0,575.6,49.2a16.982,16.982,0,1,1,2.62,3.378,1.188,1.188,0,0,0-1.68,1.681,19.2,19.2,0,0,0,12.485,5.626v2.351a3.271,3.271,0,0,0-4.181,3.149v5.265a5.761,5.761,0,0,0,10.738,0V65.381a3.271,3.271,0,0,0-4.18-3.149V59.881a19.378,19.378,0,0,0,17.083-12.97l2.086-.233a6.783,6.783,0,0,0-.059.872A6.565,6.565,0,0,0,615.878,54V56.42a3.245,3.245,0,0,0-.9-.129,3.282,3.282,0,0,0-3.279,3.278v5.264a5.761,5.761,0,0,0,10.737,0V59.569a3.281,3.281,0,0,0-3.278-3.278,3.239,3.239,0,0,0-.9.129V54a6.549,6.549,0,0,0,4.9-8.875,9.9,9.9,0,0,0,6.4-5.8l.571-1.413A1.187,1.187,0,0,0,630.008,36.8ZM561.267,65.735a.9.9,0,0,1-.9-.9V59.569a.9.9,0,0,1,1.8,0v5.264A.9.9,0,0,1,561.267,65.735Zm4.18-7.068a.9.9,0,0,1,.9.9v5.264a.9.9,0,0,1-1.8,0V59.569A.9.9,0,0,1,565.447,58.667Zm-2.09-6.937a4.18,4.18,0,1,1,4.18-4.18A4.184,4.184,0,0,1,563.357,51.73Zm5.626-7.54a6.546,6.546,0,0,0-10.347-1.182,7.535,7.535,0,0,1-5.471-4.359h17.8q-.094.953-.1,1.932a19.419,19.419,0,0,0,.389,3.864Zm26.669-26.779-.355-1.639h9.139Zm-19.666-1.639h9.139l-.355,1.639Zm10.3,5.873,1.621-7.493a2.335,2.335,0,1,1,4.609,0l1.621,7.493a19.414,19.414,0,0,0-7.851,0Zm1.835,49.9a.9.9,0,0,1-.9-.9V65.381a.9.9,0,0,1,1.8,0v5.265A.9.9,0,0,1,588.121,71.548Zm4.181-7.069a.9.9,0,0,1,.9.9v5.265a.9.9,0,1,1-1.8,0V65.381A.9.9,0,0,1,592.3,64.479Zm22.674,1.256a.9.9,0,0,1-.9-.9V59.569a.9.9,0,0,1,1.8,0v5.264A.9.9,0,0,1,614.976,65.735Zm4.18-7.068a.9.9,0,0,1,.9.9v5.264a.9.9,0,1,1-1.8,0V59.569A.9.9,0,0,1,619.156,58.667Zm-2.091-6.937a4.18,4.18,0,1,1,4.18-4.18A4.184,4.184,0,0,1,617.065,51.73Z"/>
        <path id="Trazado_164784" data-name="Trazado 164784" d="M563.357,44.321a3.229,3.229,0,1,0,3.229,3.229A3.233,3.233,0,0,0,563.357,44.321Zm0,4.082a.853.853,0,1,1,.853-.853A.854.854,0,0,1,563.357,48.4Z"/>
        <path id="Trazado_164785" data-name="Trazado 164785" d="M617.065,44.321a3.229,3.229,0,1,0,3.23,3.229A3.232,3.232,0,0,0,617.065,44.321Zm0,4.082a.853.853,0,1,1,.853-.853A.854.854,0,0,1,617.065,48.4Z"/>
        <path id="Trazado_164786" data-name="Trazado 164786" d="M578.5,40.576a26.021,26.021,0,0,1,23.425,0,1.188,1.188,0,0,0,1.7-1.28l-1.6-8.469a1.186,1.186,0,0,0-.563-.8,22.194,22.194,0,0,0-22.515,0,1.192,1.192,0,0,0-.563.8l-1.6,8.469a1.188,1.188,0,0,0,1.7,1.28Zm22.37-3.091A27.934,27.934,0,0,0,591.4,35.44V29.369a19.761,19.761,0,0,1,8.4,2.436Zm-20.245-5.68a19.761,19.761,0,0,1,8.4-2.436V35.44a27.939,27.939,0,0,0-9.469,2.045Z"/>
      </g>
      <g id="Grupo_103403" data-name="Grupo 103403">
        <path id="Trazado_164787" data-name="Trazado 164787" d="M581.412,72.609H562.356a1.912,1.912,0,0,1-1.913-1.913V41.83a1.912,1.912,0,0,1,1.913-1.913h19.056a1.913,1.913,0,0,1,1.913,1.913V70.7a1.913,1.913,0,0,1-1.913,1.913Z" fill="#0df"/>
        <path id="Trazado_164788" data-name="Trazado 164788" d="M581.412,71.116H562.356a1.913,1.913,0,0,1-1.913-1.913V70.7a1.912,1.912,0,0,0,1.913,1.913h19.056a1.913,1.913,0,0,0,1.913-1.913V69.2a1.914,1.914,0,0,1-1.913,1.913Z" fill="#00d0fd"/>
        <path id="Trazado_164789" data-name="Trazado 164789" d="M572.618,47.552l1.043,1.759a.853.853,0,0,0,.547.4l1.995.449a.853.853,0,0,1,.454,1.4l-1.351,1.536a.857.857,0,0,0-.209.643l.19,2.036a.853.853,0,0,1-1.187.863l-1.878-.81a.854.854,0,0,0-.676,0l-1.878.81a.854.854,0,0,1-1.188-.863l.19-2.036a.853.853,0,0,0-.209-.643l-1.35-1.536a.853.853,0,0,1,.453-1.4l2-.449a.848.848,0,0,0,.546-.4l1.044-1.759A.854.854,0,0,1,572.618,47.552Z" fill="#ffdc00"/>
        <path id="Trazado_164790" data-name="Trazado 164790" d="M576.34,49.55l-2-.449a.234.234,0,0,1-.148-.107l-1.043-1.76a1.476,1.476,0,0,0-2.538,0l-1.044,1.76a.232.232,0,0,1-.148.107l-1.995.449a1.476,1.476,0,0,0-.785,2.414l1.351,1.536a.236.236,0,0,1,.057.174l-.19,2.037a1.475,1.475,0,0,0,2.053,1.492l1.878-.811a.233.233,0,0,1,.183,0l1.878.811a1.483,1.483,0,0,0,1.452-.162,1.46,1.46,0,0,0,.6-1.33l-.19-2.037a.235.235,0,0,1,.056-.174l1.351-1.536a1.476,1.476,0,0,0-.784-2.414Zm-.15,1.592-1.351,1.536a1.48,1.48,0,0,0-.361,1.111l.19,2.037a.233.233,0,0,1-.322.234l-1.878-.81a1.481,1.481,0,0,0-1.168,0l-1.879.81a.233.233,0,0,1-.321-.234l.19-2.037a1.484,1.484,0,0,0-.361-1.111l-1.351-1.536a.232.232,0,0,1,.123-.378l1.995-.448a1.484,1.484,0,0,0,.946-.687l1.043-1.76a.232.232,0,0,1,.4,0l1.044,1.76a1.482,1.482,0,0,0,.945.687l2,.448a.233.233,0,0,1,.123.378Z"/>
        <g id="Grupo_103400" data-name="Grupo 103400">
          <path id="Trazado_164791" data-name="Trazado 164791" d="M575.192,54.751a.853.853,0,0,1-1.092.387l-1.878-.81a.854.854,0,0,0-.676,0l-1.878.81a.854.854,0,0,1-1.093-.387l-.1,1.017a.854.854,0,0,0,1.188.863l1.878-.81a.854.854,0,0,1,.676,0l1.878.81a.853.853,0,0,0,1.187-.863Z" fill="#ffbf00"/>
        </g>
        <g id="Grupo_103401" data-name="Grupo 103401">
          <path id="Trazado_164792" data-name="Trazado 164792" d="M576.34,49.55l-2-.449a.234.234,0,0,1-.148-.107l-1.043-1.76a1.476,1.476,0,0,0-2.538,0l-1.044,1.76a.232.232,0,0,1-.148.107l-1.995.449a1.476,1.476,0,0,0-.785,2.414l1.351,1.536a.236.236,0,0,1,.057.174l-.19,2.037a1.475,1.475,0,0,0,2.053,1.492l1.878-.811a.233.233,0,0,1,.183,0l1.878.811a1.483,1.483,0,0,0,1.452-.162,1.46,1.46,0,0,0,.6-1.33l-.19-2.037a.235.235,0,0,1,.056-.174l1.351-1.536a1.476,1.476,0,0,0-.784-2.414Zm-.15,1.592-1.351,1.536a1.48,1.48,0,0,0-.361,1.111l.19,2.037a.233.233,0,0,1-.322.234l-1.878-.81a1.481,1.481,0,0,0-1.168,0l-1.879.81a.233.233,0,0,1-.321-.234l.19-2.037a1.484,1.484,0,0,0-.361-1.111l-1.351-1.536a.232.232,0,0,1,.123-.378l1.995-.448a1.484,1.484,0,0,0,.946-.687l1.043-1.76a.232.232,0,0,1,.4,0l1.044,1.76a1.482,1.482,0,0,0,.945.687l2,.448a.233.233,0,0,1,.123.378Z"/>
          <path id="Trazado_164793" data-name="Trazado 164793" d="M581.412,39.295H562.356a2.538,2.538,0,0,0-2.536,2.535V47a.622.622,0,0,0,1.245,0V41.83a1.292,1.292,0,0,1,1.291-1.291h19.056a1.292,1.292,0,0,1,1.29,1.291V63.215a.622.622,0,0,0,1.245,0V41.83a2.538,2.538,0,0,0-2.535-2.535Z"/>
          <path id="Trazado_164794" data-name="Trazado 164794" d="M583.325,65.082a.622.622,0,0,0-.623.622V70.7a1.292,1.292,0,0,1-1.29,1.291H562.356a1.292,1.292,0,0,1-1.291-1.291V49.488a.622.622,0,0,0-1.245,0V70.7a2.538,2.538,0,0,0,2.536,2.535h19.056a2.538,2.538,0,0,0,2.535-2.535V65.7a.622.622,0,0,0-.622-.622Z"/>
        </g>
        <g id="Grupo_103402" data-name="Grupo 103402">
          <path id="Trazado_164795" data-name="Trazado 164795" d="M567.267,58.245l.924,1.557a.752.752,0,0,0,.483.351l1.766.4a.755.755,0,0,1,.4,1.235l-1.2,1.359a.758.758,0,0,0-.185.569l.168,1.8a.754.754,0,0,1-1.05.763l-1.662-.716a.749.749,0,0,0-.6,0l-1.662.716a.754.754,0,0,1-1.05-.763l.168-1.8a.758.758,0,0,0-.185-.569l-1.2-1.359a.755.755,0,0,1,.4-1.235l1.766-.4a.751.751,0,0,0,.484-.351l.923-1.557A.754.754,0,0,1,567.267,58.245Z" fill="#ffdc00"/>
          <path id="Trazado_164796" data-name="Trazado 164796" d="M570.561,60.013l-1.766-.4a.2.2,0,0,1-.131-.1l-.923-1.557a1.306,1.306,0,0,0-2.246,0l-.923,1.557a.2.2,0,0,1-.131.1l-1.766.4a1.306,1.306,0,0,0-.694,2.136l1.2,1.359a.206.206,0,0,1,.05.154l-.168,1.8a1.305,1.305,0,0,0,1.816,1.32l1.662-.717a.207.207,0,0,1,.162,0l1.662.717a1.308,1.308,0,0,0,1.284-.143,1.294,1.294,0,0,0,.533-1.177l-.168-1.8a.2.2,0,0,1,.05-.154l1.2-1.359a1.306,1.306,0,0,0-.694-2.136Zm-.133,1.409-1.2,1.359a1.308,1.308,0,0,0-.32.983l.168,1.8a.205.205,0,0,1-.284.207l-1.662-.717a1.317,1.317,0,0,0-1.034,0l-1.662.717a.205.205,0,0,1-.284-.207l.168-1.8a1.311,1.311,0,0,0-.319-.983l-1.2-1.359a.206.206,0,0,1,.109-.334l1.766-.4a1.308,1.308,0,0,0,.836-.607l.923-1.557a.206.206,0,0,1,.352,0l.923,1.557a1.308,1.308,0,0,0,.836.607l1.766.4a.205.205,0,0,1,.109.334Z"/>
          <path id="Trazado_164797" data-name="Trazado 164797" d="M577.8,58.245l.923,1.557a.751.751,0,0,0,.484.351l1.765.4a.755.755,0,0,1,.4,1.235l-1.2,1.359a.754.754,0,0,0-.185.569l.168,1.8a.755.755,0,0,1-1.051.763l-1.662-.716a.747.747,0,0,0-.6,0l-1.662.716a.755.755,0,0,1-1.051-.763l.168-1.8a.754.754,0,0,0-.185-.569l-1.195-1.359a.755.755,0,0,1,.4-1.235l1.766-.4a.751.751,0,0,0,.484-.351l.923-1.557A.755.755,0,0,1,577.8,58.245Z" fill="#ffdc00"/>
          <path id="Trazado_164798" data-name="Trazado 164798" d="M581.092,60.013l-1.766-.4a.2.2,0,0,1-.13-.1l-.924-1.557a1.305,1.305,0,0,0-2.245,0l-.924,1.557a.2.2,0,0,1-.13.1l-1.766.4a1.306,1.306,0,0,0-.694,2.136l1.2,1.359a.206.206,0,0,1,.05.154l-.168,1.8a1.306,1.306,0,0,0,1.817,1.32l1.662-.717a.2.2,0,0,1,.161,0l1.662.717a1.308,1.308,0,0,0,1.284-.143,1.294,1.294,0,0,0,.533-1.177l-.168-1.8a.206.206,0,0,1,.05-.154l1.2-1.359a1.306,1.306,0,0,0-.694-2.136Zm-.133,1.409-1.2,1.359a1.307,1.307,0,0,0-.319.983l.168,1.8a.206.206,0,0,1-.285.207l-1.662-.717a1.314,1.314,0,0,0-1.033,0l-1.662.717a.206.206,0,0,1-.285-.207l.168-1.8a1.307,1.307,0,0,0-.319-.983l-1.195-1.359a.2.2,0,0,1,.108-.334l1.766-.4a1.308,1.308,0,0,0,.836-.607l.924-1.557a.205.205,0,0,1,.351,0l.923,1.557a1.31,1.31,0,0,0,.837.607l1.766.4a.2.2,0,0,1,.108.334Z"/>
        </g>
      </g>
    </g>
  </g>
</svg>
