<svg xmlns="http://www.w3.org/2000/svg" xmlns:xlink="http://www.w3.org/1999/xlink" width="41.145" height="24" viewBox="0 0 41.145 24">
  <defs>
    <clipPath id="clip-path">
      <rect id="Rectángulo_25759" data-name="Rectángulo 25759" width="41.145" height="24" fill="none"/>
    </clipPath>
  </defs>
  <g id="PORTUGAL" transform="translate(-147.762 -294.244)">
    <g id="Grupo_99981" data-name="Grupo 99981" transform="translate(147.762 294.244)">
      <g id="Grupo_99980" data-name="Grupo 99980">
        <g id="Grupo_99979" data-name="Grupo 99979" clip-path="url(#clip-path)">
          <rect id="Rectángulo_25755" data-name="Rectángulo 25755" width="26.753" height="24" transform="translate(14.391)" fill="#ea0020"/>
          <rect id="Rectángulo_25756" data-name="Rectángulo 25756" width="14.391" height="24" fill="#2a680b"/>
          <g id="Grupo_99978" data-name="Grupo 99978">
            <g id="Grupo_99977" data-name="Grupo 99977" clip-path="url(#clip-path)">
              <path id="Trazado_158532" data-name="Trazado 158532" d="M165.2,308.328c-1.809-.053-10.115-5.242-10.171-6.068l.456-.764c.826,1.2,9.316,6.244,10.151,6.063l-.435.769Z" transform="translate(-146.12 -292.606)" fill="#fcff2c"/>
              <path id="Trazado_158533" data-name="Trazado 158533" d="M155.4,301.435c-.164.44,2.17,1.882,4.971,3.586s5.22,2.762,5.4,2.612c.009-.021.087-.153.08-.153-.033.053-.116.066-.244.029a28.021,28.021,0,0,1-5.177-2.611c-2.447-1.483-4.576-2.852-4.906-3.433a.392.392,0,0,1-.037-.17h-.006l-.07.124-.012.018Zm9.854,6.964c-.029.055-.086.06-.194.047a21.888,21.888,0,0,1-5.168-2.532c-2.829-1.7-5.167-3.243-4.913-3.647l.067-.123.016,0c-.23.685,4.613,3.456,4.9,3.631,2.8,1.738,5.164,2.753,5.373,2.489l-.077.131Z" transform="translate(-146.135 -292.651)" fill="#fcff2c"/>
              <g id="Grupo_99878" data-name="Grupo 99878" transform="translate(8.81 8.634)">
                <path id="Trazado_158534" data-name="Trazado 158534" d="M165.149,308.47c-.023,0-.051,0-.085,0a21.865,21.865,0,0,1-5.175-2.538c-3.211-1.923-4.825-3.082-4.936-3.54a.169.169,0,0,1,.016-.129l.066-.12v.039l-.036.1a.134.134,0,0,0-.013.1c.109.448,1.719,1.6,4.921,3.52a21.611,21.611,0,0,0,5.161,2.528c.1.011.153.009.179-.036l.044-.08a.222.222,0,0,1-.091.015,18.09,18.09,0,0,1-5.243-2.532l-.192-.113c-3.131-1.844-4.719-3.015-4.725-3.479.066.305.8,1.125,4.741,3.45.1.058.167.1.194.114a18.186,18.186,0,0,0,5.226,2.525.182.182,0,0,0,.123-.032h0a.042.042,0,0,1-.011.037l-.034.112a.131.131,0,0,1-.128.059Zm.566-.805a22.75,22.75,0,0,1-5.346-2.626c-3.018-1.836-5.138-3.17-4.977-3.607l.081-.145,0,.01-.047.13c-.17.46,2.551,2.12,4.954,3.582a22.7,22.7,0,0,0,5.33,2.621c.034,0,.047-.006.051-.011.015-.028.032-.059.047-.083a.338.338,0,0,1-.2-.007,28.619,28.619,0,0,1-5.183-2.612c-2.231-1.352-4.56-2.823-4.912-3.441a.4.4,0,0,1-.038-.178c.034.06.049.126.069.162.352.615,2.8,2.155,4.9,3.428a28.3,28.3,0,0,0,5.173,2.608c.112.034.194.025.224-.022.036.011.036.013-.033.135-.037.052-.06.058-.1.058Z" transform="translate(-154.948 -301.287)"/>
              </g>
              <path id="Trazado_158535" data-name="Trazado 158535" d="M160.485,302.767a17.024,17.024,0,0,0,5.338-.761l-.277-.451a15.138,15.138,0,0,1-5.075.74c-2.442-.021-4.163-.249-5.029-.831l-.262.481a13.176,13.176,0,0,0,5.306.823Z" transform="translate(-146.086 -292.613)" fill="#fcff2c"/>
              <path id="Trazado_158536" data-name="Trazado 158536" d="M165.914,302.026a7.821,7.821,0,0,1-2.122.575,21.8,21.8,0,0,1-3.3.238,23.127,23.127,0,0,1-3.158-.2,9.146,9.146,0,0,1-2.218-.588c.025-.045.039-.08.064-.12a9.889,9.889,0,0,0,2.175.575,23.3,23.3,0,0,0,3.136.2,22.175,22.175,0,0,0,3.272-.244,5.313,5.313,0,0,0,2.06-.592l.091.156Zm-.244-.457a6.458,6.458,0,0,1-2.029.546,21.781,21.781,0,0,1-3.133.221,20.686,20.686,0,0,1-3.027-.2,8.173,8.173,0,0,1-2.112-.533c.027-.039.048-.076.075-.12a7.082,7.082,0,0,0,2.053.523,23.011,23.011,0,0,0,6.122-.032,5.48,5.48,0,0,0,1.963-.555l.088.147Z" transform="translate(-146.1 -292.623)" fill="#fcff2c"/>
              <g id="Grupo_99879" data-name="Grupo 99879" transform="translate(9.026 8.786)">
                <path id="Trazado_158537" data-name="Trazado 158537" d="M160.452,302.859a23.356,23.356,0,0,1-3.121-.2,9.323,9.323,0,0,1-2.2-.58l-.009-.076.039-.08a10.6,10.6,0,0,0,2.193.566,23.192,23.192,0,0,0,3.113.2,22.327,22.327,0,0,0,3.29-.243,5.331,5.331,0,0,0,2.049-.586l.118.158a6.717,6.717,0,0,1-2.132.6,21.7,21.7,0,0,1-3.3.24Zm-5.279-.912-.042.114a10.97,10.97,0,0,0,2.207.563,23.2,23.2,0,0,0,3.114.2v.017l.039-.017a21.943,21.943,0,0,0,3.3-.239,8.031,8.031,0,0,0,2.11-.566l-.089-.137a4.692,4.692,0,0,1-2.041.6,22.066,22.066,0,0,1-3.277.244,23,23,0,0,1-3.141-.2,9.627,9.627,0,0,1-2.176-.576Zm5.312.407a21.307,21.307,0,0,1-3.007-.195,8.175,8.175,0,0,1-2.015-.5l-.1-.037.042-.11c0-.011.034-.042.043-.042A7.066,7.066,0,0,0,157.5,302a23.046,23.046,0,0,0,6.116-.036,5.52,5.52,0,0,0,1.957-.55l.113.151a5.529,5.529,0,0,1-2.039.573,21.388,21.388,0,0,1-3.137.219Zm-5.052-.85-.048.113.091.013a8.1,8.1,0,0,0,2.007.5,21.209,21.209,0,0,0,3,.195v.017l.021-.017a21.83,21.83,0,0,0,3.131-.221,6.283,6.283,0,0,0,2.02-.543l-.092-.124a4.787,4.787,0,0,1-1.946.564,23.2,23.2,0,0,1-6.13.032,6.974,6.974,0,0,1-2.057-.525Z" transform="translate(-155.124 -301.411)"/>
              </g>
              <path id="Trazado_158538" data-name="Trazado 158538" d="M154.653,304.413c1.113.6,3.592.9,5.935.926a16.894,16.894,0,0,0,5.956-.883l-.031-.6c-.325.51-3.3,1-5.946.976s-5.1-.427-5.919-.957l0,.539Z" transform="translate(-146.206 -292.073)" fill="#fcff2c"/>
              <path id="Trazado_158539" data-name="Trazado 158539" d="M166.611,304.338v.142a6.52,6.52,0,0,1-2.365.668,24.168,24.168,0,0,1-3.672.253,23.345,23.345,0,0,1-3.487-.239,8.754,8.754,0,0,1-2.495-.674v-.167a9,9,0,0,0,2.514.71,23.266,23.266,0,0,0,3.467.238,24.436,24.436,0,0,0,3.652-.25,7.61,7.61,0,0,0,2.384-.68Zm0-.512v.145a6.458,6.458,0,0,1-2.365.668,24.144,24.144,0,0,1-3.672.254,23,23,0,0,1-3.487-.241,8.68,8.68,0,0,1-2.495-.674l0-.167a8.922,8.922,0,0,0,2.512.71,22.945,22.945,0,0,0,3.467.238,24.112,24.112,0,0,0,3.652-.25,7.5,7.5,0,0,0,2.384-.682Z" transform="translate(-146.218 -292.083)" fill="#fcff2c"/>
              <g id="Grupo_99880" data-name="Grupo 99880" transform="translate(8.356 11.727)">
                <path id="Trazado_158540" data-name="Trazado 158540" d="M160.578,305.417a23.014,23.014,0,0,1-3.489-.24,8.746,8.746,0,0,1-2.5-.675l-.01-.18a9.893,9.893,0,0,0,2.534.69,23.007,23.007,0,0,0,3.466.238,24.536,24.536,0,0,0,3.65-.249,7.619,7.619,0,0,0,2.377-.675l.028.156a6.246,6.246,0,0,1-2.381.684,24.215,24.215,0,0,1-3.674.253Zm-5.99-1.082.026.153a9.251,9.251,0,0,0,2.479.656,23.283,23.283,0,0,0,3.485.24,24.475,24.475,0,0,0,3.669-.251,6.755,6.755,0,0,0,2.356-.662l0-.132a6.831,6.831,0,0,1-2.366.694,24.122,24.122,0,0,1-3.654.25,22.858,22.858,0,0,1-3.468-.238,8.639,8.639,0,0,1-2.522-.71Zm5.99.575a22.919,22.919,0,0,1-3.489-.243,8.707,8.707,0,0,1-2.5-.675l-.007-.181a9.759,9.759,0,0,0,2.531.691,23.241,23.241,0,0,0,3.466.239,24.28,24.28,0,0,0,3.65-.25,7.659,7.659,0,0,0,2.377-.674l.028.154a6.275,6.275,0,0,1-2.378.685,24.359,24.359,0,0,1-3.677.254Zm-5.99-1.085.026.152a9.142,9.142,0,0,0,2.481.657,23.34,23.34,0,0,0,3.483.239,24.728,24.728,0,0,0,3.669-.249,6.7,6.7,0,0,0,2.356-.664l0-.134a6.712,6.712,0,0,1-2.366.7,24.175,24.175,0,0,1-3.654.251,23.078,23.078,0,0,1-3.468-.239,8.716,8.716,0,0,1-2.522-.711Z" transform="translate(-154.578 -303.81)"/>
              </g>
              <path id="Trazado_158541" data-name="Trazado 158541" d="M160.453,307.138a20.577,20.577,0,0,1-5.226-.81l.338.528a14,14,0,0,0,4.911.8,12.553,12.553,0,0,0,4.853-.792l.344-.55a18.461,18.461,0,0,1-5.221.823Z" transform="translate(-146.075 -291.517)" fill="#fcff2c"/>
              <path id="Trazado_158542" data-name="Trazado 158542" d="M165.479,306.754c-.051.078-.1.154-.154.231a13.454,13.454,0,0,1-1.836.468,16.339,16.339,0,0,1-3.015.277,14.508,14.508,0,0,1-5.005-.854l-.07-.124.01-.018.12.047a16.094,16.094,0,0,0,4.959.819,16.6,16.6,0,0,0,2.956-.275,8.811,8.811,0,0,0,1.993-.546l.043-.025Zm.3-.5,0,0c-.038.066-.076.131-.115.2a12.909,12.909,0,0,1-2.318.517,18.465,18.465,0,0,1-2.847.242,19.549,19.549,0,0,1-5.295-.792l-.066-.131a22.378,22.378,0,0,0,5.361.791,20.3,20.3,0,0,0,2.827-.245,14.841,14.841,0,0,0,2.308-.511l-.007-.014.15-.055Z" transform="translate(-146.095 -291.53)" fill="#fcff2c"/>
              <g id="Grupo_99881" data-name="Grupo 99881" transform="translate(9.031 14.712)">
                <path id="Trazado_158543" data-name="Trazado 158543" d="M160.477,307.75h0a14.329,14.329,0,0,1-5.013-.858l-.078-.13c0-.006.023-.042.031-.042h0l.123.048a15.852,15.852,0,0,0,4.951.816h0a16.694,16.694,0,0,0,2.95-.275,8.058,8.058,0,0,0,1.991-.544.089.089,0,0,1,.032-.01l0-.009.016.01,0,0,.016.006c-.051.077-.1.156-.154.23a13.615,13.615,0,0,1-1.845.477,16.528,16.528,0,0,1-3.019.277Zm-5.072-1,.081.115a14.711,14.711,0,0,0,4.993.85,16.583,16.583,0,0,0,3.01-.276,13.881,13.881,0,0,0,1.833-.468c.033-.054.072-.11.11-.168a8.969,8.969,0,0,1-1.982.539,16.943,16.943,0,0,1-2.912.275h0a16.136,16.136,0,0,1-5.013-.82l-.12-.047Zm5.1.483h0a19.805,19.805,0,0,1-5.3-.793l-.078-.136a23.829,23.829,0,0,0,5.377.764,19.011,19.011,0,0,0,2.566-.208l.259-.034a15.213,15.213,0,0,0,2.278-.5l.17-.08-.006.012-.134.076a12.6,12.6,0,0,1-2.3.525l-.255.036a18.687,18.687,0,0,1-2.573.21,22.338,22.338,0,0,1-5.366-.789l.087.107a19.988,19.988,0,0,0,5.279.782,17.125,17.125,0,0,0,2.508-.195l.333-.045a13.011,13.011,0,0,0,2.318-.517l.107-.184-.091.208a12.362,12.362,0,0,1-2.327.523l-.337.048a16.843,16.843,0,0,1-2.512.195Z" transform="translate(-155.128 -306.245)"/>
              </g>
              <path id="Trazado_158544" data-name="Trazado 158544" d="M160.57,299.777a5.336,5.336,0,1,1-5.329,5.335,5.336,5.336,0,0,1,5.329-5.335Zm0-.528a5.864,5.864,0,1,1-5.855,5.864,5.873,5.873,0,0,1,5.855-5.864Z" transform="translate(-146.191 -293.113)" fill="#fcff2c"/>
              <path id="Trazado_158545" data-name="Trazado 158545" d="M160.589,299.192a5.941,5.941,0,1,1-5.937,5.941,5.951,5.951,0,0,1,5.937-5.941Zm0,.131a5.81,5.81,0,1,1-5.806,5.81,5.832,5.832,0,0,1,5.806-5.81Z" transform="translate(-146.205 -293.126)" fill="#fcff2c"/>
              <g id="Grupo_99882" data-name="Grupo 99882" transform="translate(8.431 6.049)">
                <path id="Trazado_158546" data-name="Trazado 158546" d="M160.592,311.1a5.959,5.959,0,1,1,5.954-5.958,5.961,5.961,0,0,1-5.954,5.958Zm0-11.883a5.924,5.924,0,1,0,5.92,5.925,5.929,5.929,0,0,0-5.92-5.925Zm0,11.752a5.828,5.828,0,1,1,5.823-5.827,5.832,5.832,0,0,1-5.823,5.827Zm0-11.619a5.792,5.792,0,1,0,5.788,5.792,5.8,5.8,0,0,0-5.788-5.792Z" transform="translate(-154.639 -299.178)"/>
              </g>
              <path id="Trazado_158547" data-name="Trazado 158547" d="M160.5,299.6a5.443,5.443,0,1,1-5.439,5.443A5.461,5.461,0,0,1,160.5,299.6Zm0,.13a5.311,5.311,0,1,1-5.308,5.313,5.332,5.332,0,0,1,5.308-5.313Z" transform="translate(-146.112 -293.035)" fill="#fcff2c"/>
              <g id="Grupo_99883" data-name="Grupo 99883" transform="translate(8.935 6.543)">
                <path id="Trazado_158548" data-name="Trazado 158548" d="M160.507,310.5a5.46,5.46,0,1,1,5.453-5.459,5.465,5.465,0,0,1-5.453,5.459Zm0-10.886a5.426,5.426,0,1,0,5.419,5.427,5.431,5.431,0,0,0-5.419-5.427Zm0,10.755a5.328,5.328,0,1,1,5.322-5.328,5.333,5.333,0,0,1-5.322,5.328Zm0-10.624a5.3,5.3,0,1,0,5.289,5.3,5.3,5.3,0,0,0-5.289-5.3Z" transform="translate(-155.05 -299.581)"/>
              </g>
              <rect id="Rectángulo_25757" data-name="Rectángulo 25757" width="0.518" height="11.954" transform="translate(14.144 6.037)" fill="#fcff2c"/>
              <g id="Grupo_99884" data-name="Grupo 99884" transform="translate(14.21 6.044)">
                <path id="Trazado_158549" data-name="Trazado 158549" d="M159.353,299.174h0Z" transform="translate(-159.353 -299.174)" fill="none"/>
              </g>
              <g id="Grupo_99885" data-name="Grupo 99885" transform="translate(14.21 17.98)">
                <path id="Trazado_158550" data-name="Trazado 158550" d="M159.353,308.911h0Z" transform="translate(-159.353 -308.911)" fill="none"/>
              </g>
              <path id="Trazado_158551" data-name="Trazado 158551" d="M159.748,299.116h.129v12.078h-.129V299.116Zm-.509,0h.132l0,12.078h-.135V299.116Z" transform="translate(-145.169 -293.143)" fill="#fcff2c"/>
              <g id="Grupo_99886" data-name="Grupo 99886" transform="translate(14.056 5.958)">
                <path id="Trazado_158552" data-name="Trazado 158552" d="M159.879,311.212h-.129l-.017-12.094.146-.015L159.9,311.2l-.006.011-.011,0Zm-.018-12.094-.11.018.017,12.059.093-.016V299.119Zm-.484,12.094h-.135l-.015-12.094.147-.015.02,12.092-.007.011-.01,0Zm-.02-12.094-.115.018.018,12.059.1-.016V299.119Z" transform="translate(-159.227 -299.104)"/>
              </g>
              <path id="Trazado_158553" data-name="Trazado 158553" d="M154.636,304.038c.745-.685,3.49-1.132,5.929-1.119s5.322.512,5.951,1.106l0,.51c-.527-.493-2.767-1.085-5.951-1.091s-5.5.6-5.933,1.1v-.51Z" transform="translate(-146.209 -292.284)" fill="#fcff2c"/>
              <g id="Grupo_99887" data-name="Grupo 99887" transform="translate(8.408 11.763)">
                <path id="Trazado_158554" data-name="Trazado 158554" d="M154.654,304.295l-.034-.44a.017.017,0,0,1,.034,0v.44Z" transform="translate(-154.62 -303.839)"/>
              </g>
              <g id="Grupo_99888" data-name="Grupo 99888" transform="translate(20.306 11.783)">
                <path id="Trazado_158555" data-name="Trazado 158555" d="M164.362,304.311l-.036-.443c0-.017.036-.017.036,0v.443Z" transform="translate(-164.326 -303.855)"/>
              </g>
              <path id="Trazado_158556" data-name="Trazado 158556" d="M160.605,303.382a21,21,0,0,1,3.843.342,4.465,4.465,0,0,1,2.163.816v.154a4.752,4.752,0,0,0-2.189-.837,20.215,20.215,0,0,0-3.816-.341,21.229,21.229,0,0,0-3.9.346c-.846.169-1.974.505-2.118.832v-.159c.078-.228.918-.57,2.1-.805a21.226,21.226,0,0,1,3.916-.348Zm0-.509a20.64,20.64,0,0,1,3.841.343,4.511,4.511,0,0,1,2.163.813v.154a4.742,4.742,0,0,0-2.187-.836,20.359,20.359,0,0,0-3.816-.341,21.363,21.363,0,0,0-3.892.347c-.814.156-1.991.5-2.125.83v-.158a3.932,3.932,0,0,1,2.1-.805,21.322,21.322,0,0,1,3.916-.347Z" transform="translate(-146.219 -292.295)" fill="#fcff2c"/>
              <g id="Grupo_99889" data-name="Grupo 99889" transform="translate(8.356 10.56)">
                <path id="Trazado_158557" data-name="Trazado 158557" d="M154.594,304.716v0a.017.017,0,0,1-.015-.016v-.159c.083-.253.972-.6,2.113-.823a21.252,21.252,0,0,1,3.917-.349,20.836,20.836,0,0,1,3.846.344,4.429,4.429,0,0,1,2.174.82l0,.167a5.3,5.3,0,0,0-2.213-.82,20.192,20.192,0,0,0-3.766-.341,21.677,21.677,0,0,0-3.936.346c-.923.185-1.976.52-2.106.823a.017.017,0,0,1-.017.011Zm6.014-1.214a20.465,20.465,0,0,1,3.82.34,4.893,4.893,0,0,1,2.2.845l-.029-.143a4.514,4.514,0,0,0-2.151-.8,20.672,20.672,0,0,0-3.809-.342,21.378,21.378,0,0,0-3.94.348c-1.266.253-2.018.6-2.084.793v.093a4.89,4.89,0,0,1,2.1-.788,21.408,21.408,0,0,1,3.9-.346Zm-6.012.7h0a.017.017,0,0,1-.016-.017v-.159c.086-.255,1-.606,2.115-.824a21.391,21.391,0,0,1,3.918-.347,20.735,20.735,0,0,1,3.844.343,4.41,4.41,0,0,1,2.175.823l0,.163a5.319,5.319,0,0,0-2.21-.82,20.569,20.569,0,0,0-3.782-.341,21.569,21.569,0,0,0-3.917.347c-.937.18-1.995.526-2.11.821a.02.02,0,0,1-.017.011Zm6.014-1.211a20.4,20.4,0,0,1,3.818.34,4.892,4.892,0,0,1,2.2.842l-.029-.143a4.547,4.547,0,0,0-2.151-.8,20.385,20.385,0,0,0-3.793-.343,21.553,21.553,0,0,0-3.954.346,3.922,3.922,0,0,0-2.087.794v.093a4.786,4.786,0,0,1,2.1-.786,21.237,21.237,0,0,1,3.893-.346Z" transform="translate(-154.578 -302.858)"/>
              </g>
              <path id="Trazado_158558" data-name="Trazado 158558" d="M160.45,300.753a12.77,12.77,0,0,1,5.015.761l.322.557a12.894,12.894,0,0,0-5.336-.78,13.54,13.54,0,0,0-5.287.8l.384-.642a13.471,13.471,0,0,1,4.9-.7Z" transform="translate(-146.089 -292.774)" fill="#fcff2c"/>
              <g id="Grupo_99890" data-name="Grupo 99890" transform="translate(19.431 8.83)">
                <path id="Trazado_158559" data-name="Trazado 158559" d="M163.612,301.447l.218.353Z" transform="translate(-163.612 -301.447)" fill="none"/>
              </g>
              <path id="Trazado_158560" data-name="Trazado 158560" d="M160.485,301.222a20.08,20.08,0,0,1,3.445.243,6.315,6.315,0,0,1,1.887.554l.093.169a6.929,6.929,0,0,0-2-.593,19.162,19.162,0,0,0-3.428-.238,19.848,19.848,0,0,0-3.477.237,6.2,6.2,0,0,0-1.871.582l.094-.178a6.142,6.142,0,0,1,1.754-.536,20.468,20.468,0,0,1,3.5-.24Zm0-.509a19.447,19.447,0,0,1,3.327.23,5.349,5.349,0,0,1,1.718.563l.142.221a4.57,4.57,0,0,0-1.917-.651,21.068,21.068,0,0,0-3.27-.233,20.047,20.047,0,0,0-3.344.246,5.385,5.385,0,0,0-1.657.512l.123-.185a5.906,5.906,0,0,1,1.518-.46,20.122,20.122,0,0,1,3.361-.244Z" transform="translate(-146.096 -292.783)" fill="#fcff2c"/>
              <g id="Grupo_99891" data-name="Grupo 99891" transform="translate(9.05 7.912)">
                <path id="Trazado_158561" data-name="Trazado 158561" d="M165.908,302.208l-.009,0a6.942,6.942,0,0,0-1.993-.591,18.683,18.683,0,0,0-3.314-.238h-.24a19.416,19.416,0,0,0-3.346.237,6.13,6.13,0,0,0-1.862.58l.067-.2a6.3,6.3,0,0,1,1.765-.544,20.056,20.056,0,0,1,3.506-.242h.075a19.862,19.862,0,0,1,3.374.243,6.075,6.075,0,0,1,1.893.563l.1.169a.025.025,0,0,1,0,.023l-.013,0Zm-5.35-.967h-.075a20.174,20.174,0,0,0-3.5.24,6.4,6.4,0,0,0-1.748.534l-.085.172a4.889,4.889,0,0,1,1.849-.608,19.65,19.65,0,0,1,3.353-.235h.24a18.846,18.846,0,0,1,3.321.235,7.611,7.611,0,0,1,1.948.563l-.061-.113a6.448,6.448,0,0,0-1.874-.544,19.779,19.779,0,0,0-3.368-.244Zm5.11.509c-.006,0-.007,0-.012-.006a4.591,4.591,0,0,0-1.91-.647,20.679,20.679,0,0,0-3.265-.234,20.094,20.094,0,0,0-3.339.246,5.576,5.576,0,0,0-1.654.511l.1-.21a5.891,5.891,0,0,1,1.527-.467,20.094,20.094,0,0,1,3.366-.245h.1a19.153,19.153,0,0,1,3.23.232,5.328,5.328,0,0,1,1.73.566l.143.226a.017.017,0,0,1,0,.023l-.01,0Zm-5.187-.921a20.523,20.523,0,0,1,3.272.233,5.566,5.566,0,0,1,1.836.58l-.076-.123a5.412,5.412,0,0,0-1.71-.557,19.2,19.2,0,0,0-3.224-.229h-.1a20.022,20.022,0,0,0-3.36.244,5.984,5.984,0,0,0-1.512.456l-.116.181a4.546,4.546,0,0,1,1.643-.538,19.391,19.391,0,0,1,3.346-.248Z" transform="translate(-155.144 -300.698)"/>
              </g>
              <path id="Trazado_158562" data-name="Trazado 158562" d="M163.423,306.189a15.186,15.186,0,0,0-2.951-.227c-3.681.042-4.872.756-5.018.972l-.275-.449c.938-.68,2.942-1.06,5.312-1.022a19.063,19.063,0,0,1,3.185.273l-.254.452Z" transform="translate(-146.086 -291.71)" fill="#fcff2c"/>
              <g id="Grupo_99892" data-name="Grupo 99892" transform="translate(9.156 14.838)">
                <path id="Trazado_158563" data-name="Trazado 158563" d="M155.23,306.348l.181.311Z" transform="translate(-155.23 -306.348)" fill="none"/>
              </g>
              <path id="Trazado_158564" data-name="Trazado 158564" d="M160.458,305.912a18.156,18.156,0,0,1,3,.24l-.07.124a15.665,15.665,0,0,0-2.927-.223,14.077,14.077,0,0,0-3.929.458c-.379.105-1.005.348-1.068.548l-.067-.115c.02-.116.4-.364,1.1-.564a14.354,14.354,0,0,1,3.955-.468Zm.047-.514a18.109,18.109,0,0,1,3.222.281l-.071.127a16.8,16.8,0,0,0-3.142-.273,15.106,15.106,0,0,0-4.124.482c-.425.126-1.158.393-1.182.6l-.069-.126c.015-.192.648-.441,1.22-.609a15.135,15.135,0,0,1,4.146-.485Z" transform="translate(-146.095 -291.724)" fill="#fcff2c"/>
              <g id="Grupo_99893" data-name="Grupo 99893" transform="translate(9.028 13.655)">
                <path id="Trazado_158565" data-name="Trazado 158565" d="M155.469,307.08l-.013-.006-.07-.119c.02-.142.42-.39,1.116-.587a14.167,14.167,0,0,1,3.96-.468,18.057,18.057,0,0,1,3,.239l-.059.148a16.593,16.593,0,0,0-2.809-.216h-.288a13.758,13.758,0,0,0-3.771.46c-.4.113-.993.353-1.053.538a.019.019,0,0,1-.015.011h0Zm4.992-1.145a14.021,14.021,0,0,0-3.951.466c-.715.2-1.075.446-1.094.549l.05.08c.124-.226.8-.459,1.065-.532a13.954,13.954,0,0,1,3.778-.46h.288a15.414,15.414,0,0,1,2.8.227l.053-.118a20.667,20.667,0,0,0-2.986-.212Zm-5.251.7a.016.016,0,0,1-.015-.009l-.07-.121c.018-.264.946-.553,1.231-.636a14.994,14.994,0,0,1,4.151-.488,18.632,18.632,0,0,1,3.227.283l-.061.151a18.144,18.144,0,0,0-3.157-.265,14.686,14.686,0,0,0-4.119.481c-.549.163-1.147.413-1.171.59a.018.018,0,0,1-.013.015Zm5.3-1.221a14.872,14.872,0,0,0-4.141.488c-.722.21-1.2.445-1.21.593l.048.082c.119-.259,1.069-.546,1.181-.576a14.771,14.771,0,0,1,4.131-.484,17.173,17.173,0,0,1,3.146.276l.055-.12a20.834,20.834,0,0,0-3.209-.259Z" transform="translate(-155.126 -305.383)"/>
              </g>
              <path id="Trazado_158566" data-name="Trazado 158566" d="M158.619,305.71a.077.077,0,0,1,.02-.044.047.047,0,0,1,.04-.018.04.04,0,0,1,.025,0,.028.028,0,0,1,.016.017.062.062,0,0,1,0,.031.075.075,0,0,1-.01.031.127.127,0,0,1-.017.022.062.062,0,0,1-.031.006.058.058,0,0,1-.026,0,.051.051,0,0,1-.017-.02.057.057,0,0,1,0-.028Zm.016,0a.045.045,0,0,0,.009.032.024.024,0,0,0,.023.009.041.041,0,0,0,.031-.015.075.075,0,0,0,.011-.034.033.033,0,0,0,0-.022.021.021,0,0,0-.009-.014.068.068,0,0,0-.021-.006.067.067,0,0,0-.028.014.085.085,0,0,0-.013.037Zm.14.018.013,0,.006.013.012,0,.013-.006.007-.006,0-.01-.013,0-.02,0-.009-.007,0-.011,0-.01.006-.007.01,0,.01,0a.028.028,0,0,1,.018,0l.007.007,0,.01-.015,0,0-.01-.013,0-.012,0,0,.007v0l.007.006.01,0,.021,0,.007.009v.011l0,.015-.012.01-.017,0a.024.024,0,0,1-.022,0,.032.032,0,0,1-.009-.018Zm.135-.012.013,0a.038.038,0,0,1-.013.02.028.028,0,0,1-.023.007.028.028,0,0,1-.027-.009.052.052,0,0,1-.006-.033.043.043,0,0,1,.015-.029.034.034,0,0,1,.028-.012.044.044,0,0,1,.025.007.048.048,0,0,1,0,.033h0l-.058.006a.028.028,0,0,0,0,.02.015.015,0,0,0,.016,0l.012,0a.063.063,0,0,0,.009-.016Zm-.039-.017h.043l0-.015c0-.007-.009-.007-.016-.007l-.013.007a.02.02,0,0,0-.01.016Zm.066.05h.011l0,.01h.012l.015,0s0-.007.007-.012l0-.017a.035.035,0,0,1-.023.011.02.02,0,0,1-.022-.011.042.042,0,0,1-.009-.027l.009-.022a.025.025,0,0,1,.013-.016.027.027,0,0,1,.017-.007.023.023,0,0,1,.022.011l0-.011h.01l-.007.071a.066.066,0,0,1,0,.027l-.013.011a.054.054,0,0,1-.022.006.026.026,0,0,1-.021-.006s-.01-.007-.007-.016Zm.016-.05c0,.011,0,.017,0,.022s.006.007.013.007.01,0,.017-.009L159,305.7c0-.013,0-.02,0-.023a.017.017,0,0,0-.029,0,.058.058,0,0,0-.009.023Zm.067.037.011-.081h.012v.012l.01-.011.013,0,.015,0,.006.011a.03.03,0,0,1,.026-.013l.018,0a.046.046,0,0,1,0,.023l-.006.054h-.013l.006-.05v-.012l0,0,0,0a.06.06,0,0,0-.016,0,.055.055,0,0,0-.01.021l0,.047h-.015l.007-.051,0-.016h-.018l-.01.011,0,.017,0,.04Zm.184-.032h.012a.03.03,0,0,1-.015.02.034.034,0,0,1-.023.009.022.022,0,0,1-.022-.011.036.036,0,0,1-.01-.028.076.076,0,0,1,.016-.033.038.038,0,0,1,.028-.011.047.047,0,0,1,.023.007.042.042,0,0,1,.007.032l0,0h-.056l0,.021a.021.021,0,0,0,.016.006l.013,0,.01-.011Zm-.04-.021h.045c0-.007,0-.016,0-.016s-.01-.011-.016-.011-.011.007-.016.01-.007.01-.009.017Zm.066.045.011-.08h.013v.007a.026.026,0,0,1,.023-.009h.016l0,0,0,.01v.012l-.006.049-.013,0,.006-.049v-.012l-.006-.01h-.01a.016.016,0,0,0-.015.007.042.042,0,0,0-.009.021l0,.044Zm.116-.016v.012h-.021l-.007-.007,0-.015.007-.047h-.012l0-.007h.01l0-.022.013-.009,0,.031.013,0v.011h-.013l-.007.047v.009h.013Zm.013-.028c0-.017,0-.028.015-.031a.03.03,0,0,1,.026-.012.023.023,0,0,1,.023.012c.007,0,.01.013.007.029a.034.034,0,0,1-.009.022l-.012.015a.066.066,0,0,1-.023,0,.028.028,0,0,1-.027-.04Zm.012,0a.027.027,0,0,0,0,.021.015.015,0,0,0,.015.009.028.028,0,0,0,.018-.009.041.041,0,0,0,.01-.022.112.112,0,0,0,0-.023.024.024,0,0,0-.018-.006.03.03,0,0,0-.018.006.045.045,0,0,0-.007.025Zm.168.013h.013a.083.083,0,0,1-.018.017.025.025,0,0,1-.021.007.029.029,0,0,1-.027-.011.042.042,0,0,1,0-.029c0-.016.006-.027.016-.029a.032.032,0,0,1,.027-.015.03.03,0,0,1,.025.015s0,.013,0,.029l0,0H159.5a.019.019,0,0,0,0,.02c0,.006.01.007.016.007l.012,0,.011-.012Zm-.04-.022h.043l0-.02-.016,0-.016,0a.04.04,0,0,0-.009.02Zm.065.044.016-.112h.013l-.017.112Zm.048-.094,0-.017h.012l0,.017Zm-.016.094.015-.081h.012l-.012.081Zm.033,0,.015-.081h.012l0,.015.011-.012a.026.026,0,0,1,.015,0l.013,0,.007.012a.027.027,0,0,1,.025-.017.017.017,0,0,1,.016.007s0,.011,0,.022l-.01.054h-.013l.01-.053v-.011l0,0-.011,0-.013.006-.007.018-.01.047h-.011l.007-.053v-.012s0-.006-.012-.006l-.01,0s0,0-.006.01l-.007.016,0,.04Zm.143-.094v-.017h.012l0,.017Zm-.016.094.013-.081h.011l-.011.081Zm.032,0,.013-.077h.013l0,.011a.033.033,0,0,1,.027-.013l.012,0,.006.01,0,.007v.015l-.011.049h-.011l.006-.049,0-.015,0,0,0,0a.034.034,0,0,0-.018.006s-.01.011-.011.021l-.007.04Zm.134,0-.012.009-.016,0a.024.024,0,0,1-.02-.007l0-.016,0-.011.009-.009.011,0h.011l.023,0,0,0,0-.012-.012,0-.015,0a.015.015,0,0,0-.01.012l-.011,0c0-.007,0-.01.007-.015l.013-.007.016,0,.016,0,.009.006,0,.009,0,.011,0,.021a.07.07,0,0,0,0,.023v.01h-.012l0-.01Zm0-.028-.021,0-.011,0-.006,0,0,.006,0,.011h.026l.009-.011s0-.006,0-.013v0Zm.077.038,0-.01a.022.022,0,0,1-.023.011.022.022,0,0,1-.016-.006.023.023,0,0,1-.009-.015v-.022l.007-.023.013-.012a.023.023,0,0,1,.017,0l.015,0,.006.009.009-.04h.011l-.02.11Zm-.032-.038a.038.038,0,0,0,0,.021l.012.007A.024.024,0,0,0,160,305.7a.042.042,0,0,0,.009-.021.039.039,0,0,0,0-.027s-.007-.006-.015-.006a.036.036,0,0,0-.016.006.072.072,0,0,0-.009.023Zm.07,0a.039.039,0,0,1,.017-.031.038.038,0,0,1,.026-.01.023.023,0,0,1,.023.015s.007.013,0,.029a.056.056,0,0,1-.009.021.026.026,0,0,1-.015.012.036.036,0,0,1-.02.007.031.031,0,0,1-.028-.044Zm.012,0a.029.029,0,0,0,0,.021.016.016,0,0,0,.016.007.027.027,0,0,0,.017-.007.055.055,0,0,0,.011-.021.046.046,0,0,0,0-.027l-.016,0c-.006,0-.01,0-.017,0a.069.069,0,0,0-.011.027Zm.108.042.016-.081h.009v.012l.007-.007.009-.007c.007,0,.011,0,.016.007l-.006.011,0,0c-.01,0-.012,0-.013,0l-.007.007,0,.016,0,.042Zm.107-.023.016,0a.05.05,0,0,1-.018.017.028.028,0,0,1-.023.007.024.024,0,0,1-.022-.013c-.007,0-.007-.016,0-.029a.066.066,0,0,1,.016-.031.04.04,0,0,1,.028-.011.031.031,0,0,1,.025.011.05.05,0,0,1,0,.033v0l-.059,0c0,.011,0,.016,0,.022a.016.016,0,0,0,.013.006l.015,0,.009-.011Zm-.037-.023h.043v-.016a.017.017,0,0,0-.016-.009l-.016,0a.03.03,0,0,0-.01.018Zm.063.023h.013s0,.01,0,.012l.012,0h.012l.007-.01,0-.006-.012-.006-.017-.007-.009-.006v-.012l0-.011,0,0,.012,0h.026l.01.007,0,.011-.013,0,0-.011-.011,0c-.006,0-.011,0-.013,0l-.006.007v0l.006,0,.01,0,.018.006.007.007v.011a.018.018,0,0,1-.007.012s-.006.009-.013.012h-.015a.025.025,0,0,1-.021-.007.029.029,0,0,1-.007-.021Zm.069.059.021-.112h.012v.01l.011-.006.013,0c.007,0,.011,0,.018.006s.006.009.007.016v.022a.15.15,0,0,1-.01.021.046.046,0,0,1-.016.015.029.029,0,0,1-.018,0l-.011,0-.006-.009-.009.039Zm.025-.07a.04.04,0,0,0,0,.023l.013.007a.019.019,0,0,0,.016-.006.051.051,0,0,0,.011-.025.037.037,0,0,0,0-.023l-.011-.007a.045.045,0,0,0-.018.007.051.051,0,0,0-.011.023Zm.123.02h.011c0,.009-.006.016-.015.018a.032.032,0,0,1-.021.006c-.013,0-.023,0-.027-.011a.046.046,0,0,1,0-.032c0-.013.009-.026.018-.029a.035.035,0,0,1,.028-.01.019.019,0,0,1,.021.012c.007,0,.007.017,0,.029v0h-.059c0,.006,0,.015,0,.018a.015.015,0,0,0,.016.009l.01,0,.012-.011Zm-.038-.025.043,0a.023.023,0,0,0,0-.017.013.013,0,0,0-.012-.007l-.017,0a.042.042,0,0,0-.009.018Zm.082-.044,0-.016h.013l0,.016Zm-.018.094.016-.081h.012l-.016.082Zm.061-.009v.012h-.006l-.013,0,0-.009,0-.016.009-.047h-.009l0-.011h.007l0-.02.015-.009-.007.028h.015l0,.011H160.6l-.01.048v.01l0,0Zm.063,0-.017.009h-.015a.025.025,0,0,1-.018-.007.022.022,0,0,1,0-.018l0-.011.009,0,.011-.006h.01a.219.219,0,0,0,.025,0v-.015l-.016-.009-.011,0-.011.013h-.012l.007-.016.016-.007.016,0a.027.027,0,0,1,.016.007l.009,0,0,.012,0,.011,0,.02,0,.022,0,.01h-.013v-.01Zm0-.031s-.011,0-.02,0l-.01.006h-.009l0,0,0,.013.011,0,.011,0a.016.016,0,0,0,.012-.009l0-.015v0Zm.071,0a.063.063,0,0,1,.02-.031.043.043,0,0,1,.027-.007c.01,0,.018,0,.022.012a.034.034,0,0,1,0,.027l-.009.027a.046.046,0,0,1-.017.013.029.029,0,0,1-.017,0,.032.032,0,0,1-.026-.011.049.049,0,0,1,0-.034Zm.015,0c0,.011,0,.02,0,.025a.017.017,0,0,0,.013.01.021.021,0,0,0,.017-.01.051.051,0,0,0,.013-.02.037.037,0,0,0,0-.025c0-.006-.009-.01-.015-.01a.026.026,0,0,0-.018.009.037.037,0,0,0-.011.021Zm.1.075.025-.109h.011l0,.012.012-.01.013,0a.022.022,0,0,1,.016.007s.006.007.006.015a.03.03,0,0,1,0,.021.044.044,0,0,1-.009.022c0,.009-.009.013-.015.016a.046.046,0,0,1-.02,0l-.01,0-.006-.006-.011.036Zm.027-.069a.028.028,0,0,0,0,.023.016.016,0,0,0,.012.011.031.031,0,0,0,.017-.007.045.045,0,0,0,.01-.025.037.037,0,0,0,0-.023l-.012-.007a.033.033,0,0,0-.017,0,.052.052,0,0,0-.011.023Zm.061.047.018-.082h.01l0,.012.011-.009.011,0,.011.007-.006.01,0,0-.013,0-.006.006,0,.016-.01.043-.013,0Zm.054-.038a.06.06,0,0,1,.017-.034.119.119,0,0,1,.027-.006.025.025,0,0,1,.023.013.043.043,0,0,1,0,.029l-.011.025a.024.024,0,0,1-.015.012l-.02,0c-.012,0-.02,0-.025-.011a.044.044,0,0,1,0-.032Zm.012,0a.03.03,0,0,0,0,.026.016.016,0,0,0,.013.006.018.018,0,0,0,.018-.006.046.046,0,0,0,.012-.023V305.7a.021.021,0,0,0-.034,0c-.007,0-.01.011-.012.021Zm.085-.049.007-.016h.01v.016Zm-.04.125,0-.011h0l.01,0,0-.015.018-.083h.013l-.018.086-.009.02a.016.016,0,0,1-.016.006Zm.112-.05h.013a.021.021,0,0,1-.016.016.03.03,0,0,1-.023.009.047.047,0,0,1-.025-.012.057.057,0,0,1,0-.031.04.04,0,0,1,.018-.029.029.029,0,0,1,.028-.011c.01,0,.02,0,.021.011s.007.017,0,.033v0l-.056,0c0,.009,0,.015,0,.02s0,.007.012.007a.022.022,0,0,0,.013,0,.02.02,0,0,0,.01-.012Zm-.036-.026.043,0a.022.022,0,0,0,0-.017.015.015,0,0,0-.012-.006.025.025,0,0,0-.016,0c-.007.006-.01.009-.01.016Z" transform="translate(-145.309 -291.677)"/>
              <path id="Trazado_158567" data-name="Trazado 158567" d="M160.766,305.736h.011a.039.039,0,0,1-.013.021.06.06,0,0,1-.025.006.026.026,0,0,1-.025-.015.04.04,0,0,1,0-.028.03.03,0,0,1,.011-.023.018.018,0,0,1,.012-.012.042.042,0,0,1,.021-.006l.02.009a.024.024,0,0,1,.006.02h-.012l0-.012-.011-.006a.022.022,0,0,0-.018.007s-.006.012-.01.023a.041.041,0,0,0,0,.025.018.018,0,0,0,.015.006l.013,0a.019.019,0,0,0,.011-.011Zm.048.02v.012h-.01l-.013,0,0-.006,0-.015.011-.047h-.01l0-.011.01,0,0-.022.016-.006-.006.028h.013l0,.011h-.013l-.011.048v.009h.011Zm.016-.025a.045.045,0,0,1,.016-.033.038.038,0,0,1,.027-.007.032.032,0,0,1,.025.012.043.043,0,0,1,0,.033.075.075,0,0,1-.009.022.044.044,0,0,1-.017.012.057.057,0,0,1-.021,0,.036.036,0,0,1-.022-.015.025.025,0,0,1,0-.029Zm.012,0a.018.018,0,0,0,0,.022.026.026,0,0,0,.015.01.04.04,0,0,0,.018-.009.034.034,0,0,0,.01-.022.023.023,0,0,0,0-.022.013.013,0,0,0-.015-.01.026.026,0,0,0-.018.006.03.03,0,0,0-.01.025Zm.152.051,0-.009a.037.037,0,0,1-.025.01.036.036,0,0,1-.017-.006l-.009-.015a.032.032,0,0,1,0-.022.094.094,0,0,1,.006-.022l.017-.017H161l.009.012.007-.04h.013l-.026.11Zm-.032-.042,0,.022a.017.017,0,0,0,.012.011l.015-.009c.007,0,.01-.011.012-.021a.081.081,0,0,0,0-.025.014.014,0,0,0-.013-.007.013.013,0,0,0-.015,0,.082.082,0,0,0-.013.023Zm.125.025.012,0c-.006.007-.009.013-.017.018a.042.042,0,0,1-.025,0,.028.028,0,0,1-.022-.015.064.064,0,0,1,0-.032.063.063,0,0,1,.018-.028.03.03,0,0,1,.027-.01.022.022,0,0,1,.021.013.036.036,0,0,1,0,.032l0,0-.056-.009c0,.011,0,.017,0,.023l.012.009.013,0,.013-.012Zm-.039-.025.043,0v-.015a.019.019,0,0,0-.015-.011.022.022,0,0,0-.016.006c-.007,0-.009.01-.012.016Zm.189.026.011.007a.042.042,0,0,1-.021.025.061.061,0,0,1-.032.007.038.038,0,0,1-.025-.011.049.049,0,0,1-.012-.021.11.11,0,0,1,0-.029.053.053,0,0,1,.016-.031.04.04,0,0,1,.021-.017.037.037,0,0,1,.027-.006.028.028,0,0,1,.023.011.042.042,0,0,1,.011.028h-.015c0-.01,0-.016-.006-.018s-.009-.007-.016-.011a.058.058,0,0,0-.022.006.043.043,0,0,0-.016.017.054.054,0,0,0-.007.02.057.057,0,0,0,0,.025.024.024,0,0,0,.006.018c.006,0,.01.007.016.007a.054.054,0,0,0,.023-.006.086.086,0,0,0,.017-.022Zm.025,0a.049.049,0,0,1,.021-.032.066.066,0,0,1,.026-.006.037.037,0,0,1,.023.013.033.033,0,0,1,0,.031.06.06,0,0,1-.01.023.024.024,0,0,1-.016.011.028.028,0,0,1-.02,0c-.011,0-.02-.006-.022-.013a.035.035,0,0,1,0-.032Zm.013,0a.041.041,0,0,0,0,.025.022.022,0,0,0,.013.01.018.018,0,0,0,.017-.007c.009,0,.011-.01.016-.021a.042.042,0,0,0,0-.023c0-.007-.006-.009-.013-.009l-.017,0a.04.04,0,0,0-.013.022Zm.061.05.031-.11h.013l-.029.11Zm.083.007,0-.01a.038.038,0,0,1-.028.01l-.013,0,0-.01V305.8l.013-.05h.012l-.012.044,0,.015,0,.006,0,0a.023.023,0,0,0,.013,0l.012-.009.006-.012.011-.047.013,0-.022.08-.011,0Zm.028,0,.022-.08h.013l0,.011.013-.007s.009,0,.015,0l.01,0,.007.013a.026.026,0,0,1,.026-.013c.01,0,.013,0,.016.01l0,.02-.016.056-.012,0,.012-.048,0-.013,0,0,0,0a.026.026,0,0,0-.02,0,.033.033,0,0,0-.01.018l-.012.045h-.01l.012-.051c0-.007,0-.011,0-.013a.016.016,0,0,0-.011-.009l-.009,0-.009.009-.007.017-.011.04Zm.136.017h-.011l.027-.108.016,0-.013.037a.029.029,0,0,1,.025-.006l.013,0,.009.01v.028a.063.063,0,0,1-.02.033.056.056,0,0,1-.027.007c-.009,0-.013-.007-.016-.015l0,.009Zm.01-.04v.022a.011.011,0,0,0,.012.011c.006,0,.011,0,.016,0a.044.044,0,0,0,.013-.023c0-.01,0-.018,0-.021a.012.012,0,0,0-.011-.012.022.022,0,0,0-.017.007.032.032,0,0,0-.012.02Zm.109.049-.015.007h-.016a.039.039,0,0,1-.018-.011.015.015,0,0,1,0-.016l.006-.012.01-.006.009,0h.013l.023,0V305.8a.015.015,0,0,0-.012,0h-.013l-.011.011-.011,0,.009-.011.013-.009h.02l.013.006.006.006,0,.01,0,.011,0,.02-.007.023v.012l-.013,0v-.009Zm.007-.032h-.022l-.011,0-.007,0v.013a.015.015,0,0,0,.011.007l.013,0,.01,0,.007-.015v0Zm.021.047.025-.078h.011l0,.011a.034.034,0,0,1,.029-.009l.01,0,.006.007v.011l0,.012-.012.05h-.013l.015-.05,0-.012,0-.01h0a.036.036,0,0,0-.017,0,.031.031,0,0,0-.013.021l-.012.045-.015,0Zm.088-.027a.066.066,0,0,1,.02-.033.052.052,0,0,1,.026,0,.035.035,0,0,1,.025.014.039.039,0,0,1,0,.033.052.052,0,0,1-.011.023.072.072,0,0,1-.018.011l-.018,0a.038.038,0,0,1-.022-.016.036.036,0,0,1,0-.032Zm.013,0a.032.032,0,0,0,0,.022c0,.007.006.009.013.012a.017.017,0,0,0,.016-.006c.007-.006.009-.011.013-.023s0-.018,0-.023a.015.015,0,0,0-.013-.01.019.019,0,0,0-.016.006c-.007,0-.011.011-.013.022Z" transform="translate(-144.836 -291.665)"/>
              <g id="Grupo_99894" data-name="Grupo 99894" transform="translate(17.276 13.937)">
                <path id="Trazado_158568" data-name="Trazado 158568" d="M161.882,306.246a.017.017,0,0,1-.013,0,.026.026,0,0,1-.012-.037l.326-.576a.024.024,0,0,1,.036-.01c.016.007.021.027.011.036l-.324.576a.023.023,0,0,1-.023.016Z" transform="translate(-161.854 -305.613)" fill="#ea0020"/>
              </g>
              <path id="Trazado_158569" data-name="Trazado 158569" d="M155.518,301.318c1.824-.025,10.246,5.151,10.272,6.1l-.521.8c-.238-1.107-8.784-6.143-10.195-6.047l.444-.858Z" transform="translate(-146.11 -292.646)" fill="#fcff2c"/>
              <g id="Grupo_99895" data-name="Grupo 99895" transform="translate(19.213 14.827)">
                <path id="Trazado_158570" data-name="Trazado 158570" d="M163.434,307.051l.413-.7a.017.017,0,0,1,.023-.006c.007.006.011.013,0,.022l-.441.688Z" transform="translate(-163.434 -306.339)"/>
              </g>
              <g id="Grupo_99896" data-name="Grupo 99896" transform="translate(8.999 8.701)">
                <path id="Trazado_158571" data-name="Trazado 158571" d="M155.1,302.13l.379-.78a.019.019,0,0,1,.026-.006.014.014,0,0,1,0,.021l-.409.765Z" transform="translate(-155.102 -301.342)"/>
              </g>
              <path id="Trazado_158572" data-name="Trazado 158572" d="M155.045,302.16c.34-.228,2.827.881,5.428,2.453s5.079,3.353,4.856,3.688l-.074.115-.034.028c.007-.006.044-.051,0-.173-.11-.367-1.871-1.773-4.79-3.536-2.847-1.7-5.217-2.724-5.457-2.431l.074-.145Zm10.819,5.339c.215-.425-2.093-2.164-4.953-3.857-2.927-1.66-5.036-2.638-5.421-2.345l-.088.153c0,.009,0-.009.022-.023a.376.376,0,0,1,.238-.058c.664.007,2.558.881,5.219,2.408,1.165.679,4.921,3.089,4.907,3.768,0,.056,0,.069-.018.1l.094-.146Z" transform="translate(-146.133 -292.663)" fill="#fcff2c"/>
              <g id="Grupo_99897" data-name="Grupo 99897" transform="translate(8.85 8.564)">
                <path id="Trazado_158573" data-name="Trazado 158573" d="M165.23,308.458l-.017-.023,0,0s.037-.038-.009-.154c-.113-.374-1.974-1.828-4.784-3.527-2.406-1.433-4.627-2.476-5.285-2.476a.2.2,0,0,0-.15.043l0-.007a.086.086,0,0,1,.007-.023l.037-.131a.268.268,0,0,1,.154-.038c.662,0,2.992,1.09,5.3,2.484,2.339,1.417,4.764,3.115,4.873,3.615a.123.123,0,0,1-.011.1l-.075.116-.022.011-.012.018Zm-10.1-6.217c.663,0,2.892,1.042,5.3,2.482,2.855,1.725,4.679,3.153,4.8,3.543a.337.337,0,0,1,.023.116l.055-.091a.075.075,0,0,0,.009-.069c-.107-.485-2.581-2.215-4.855-3.594-2.3-1.388-4.623-2.479-5.282-2.479a.239.239,0,0,0-.13.027l-.043.088a.209.209,0,0,1,.121-.025Zm10.645,5.406-.009,0h0l-.006-.021,0,0-.01.017.01-.017a.159.159,0,0,0,0-.053c.013-.694-3.814-3.141-4.9-3.773-2.649-1.519-4.548-2.4-5.21-2.405a.35.35,0,0,0-.224.054h0a.267.267,0,0,1,.218-.088c.68.011,2.583.889,5.238,2.41.767.446,4.932,3.044,4.915,3.784v.012l.045-.07c.2-.387-1.976-2.073-4.947-3.832-3.146-1.781-5.057-2.607-5.4-2.348l-.071.134c-.015,0-.044.016-.044.01l.091-.164a.331.331,0,0,1,.221-.06c.82,0,3.294,1.3,5.224,2.4,2.584,1.531,5.2,3.409,4.96,3.879l-.086.132a.019.019,0,0,1-.016.009Z" transform="translate(-154.981 -301.23)"/>
              </g>
              <path id="Trazado_158574" data-name="Trazado 158574" d="M156.594,305.45a3.594,3.594,0,0,0,3.554,3.559,3.566,3.566,0,0,0,3.565-3.556h0V300.7l-7.119-.007v4.758Z" transform="translate(-145.766 -292.787)" fill="#fff"/>
              <g id="Grupo_99898" data-name="Grupo 99898" transform="translate(10.808 7.895)">
                <path id="Trazado_158575" data-name="Trazado 158575" d="M160.152,309.03a3.606,3.606,0,0,1-3.574-3.578v-4.758l7.139-.01.022,4.77a3.589,3.589,0,0,1-3.587,3.576ZM163.7,300.7l-7.1.012.021,4.738a3.54,3.54,0,0,0,7.08,0V300.7Z" transform="translate(-156.578 -300.684)"/>
              </g>
              <path id="Trazado_158576" data-name="Trazado 158576" d="M156.705,305.427v0a3.414,3.414,0,0,0,6.827,0h0v-4.611h-6.826v4.6Zm5.454-3.224v2.934l0,.309h0a2.187,2.187,0,0,1-.013.254,1.975,1.975,0,0,1-.585,1.183,2.035,2.035,0,0,1-1.439.6,2.013,2.013,0,0,1-1.431-.606,2.046,2.046,0,0,1-.6-1.437v-3.243l4.071.01Z" transform="translate(-145.741 -292.758)" fill="#ea0020"/>
              <g id="Grupo_99899" data-name="Grupo 99899" transform="translate(10.945 8.049)">
                <path id="Trazado_158577" data-name="Trazado 158577" d="M160.124,308.852a3.443,3.443,0,0,1-3.434-3.419l0-4.608,6.842-.015.016,4.625a3.428,3.428,0,0,1-3.428,3.417Zm3.4-8.027-6.811.015.013,4.59a3.4,3.4,0,0,0,6.8.006v-4.611Zm-3.4,6.671a2.079,2.079,0,0,1-2.05-2.058v-3.256l4.09.007.016,2.95v.31a1.781,1.781,0,0,1-.017.255,2,2,0,0,1-.586,1.192,2.035,2.035,0,0,1-1.451.6Zm-2.018-5.284,0,3.225a2.018,2.018,0,0,0,3.445,1.437,2,2,0,0,0,.581-1.174,2.158,2.158,0,0,0,.013-.251l0-3.244-4.044.007Z" transform="translate(-156.69 -300.81)"/>
              </g>
              <path id="Trazado_158578" data-name="Trazado 158578" d="M159.14,304.269h0a.507.507,0,0,0,.131.343.438.438,0,0,0,.319.143.432.432,0,0,0,.318-.142.5.5,0,0,0,.134-.345v-.644h-.9l0,.645Z" transform="translate(-145.191 -292.125)" fill="#1a0095"/>
              <path id="Trazado_158579" data-name="Trazado 158579" d="M159.732,303.753a.09.09,0,0,0-.091.089.092.092,0,0,0,.091.088.09.09,0,0,0,.088-.088.089.089,0,0,0-.088-.089Z" transform="translate(-145.078 -292.096)" fill="#fff"/>
              <path id="Trazado_158580" data-name="Trazado 158580" d="M159.527,303.947a.091.091,0,0,0-.089.091.09.09,0,0,0,.179,0,.09.09,0,0,0-.09-.091Z" transform="translate(-145.124 -292.052)" fill="#fff"/>
              <path id="Trazado_158581" data-name="Trazado 158581" d="M159.732,304.15a.094.094,0,0,0-.092.092.091.091,0,0,0,.092.088.089.089,0,0,0,.088-.088.092.092,0,0,0-.088-.092Z" transform="translate(-145.078 -292.006)" fill="#fff"/>
              <path id="Trazado_158582" data-name="Trazado 158582" d="M159.332,304.153a.088.088,0,0,0,0,.177.088.088,0,1,0,0-.177Z" transform="translate(-145.167 -292.006)" fill="#fff"/>
              <path id="Trazado_158583" data-name="Trazado 158583" d="M159.332,303.753a.087.087,0,0,0-.089.086.088.088,0,0,0,.089.089.089.089,0,0,0,.091-.089.088.088,0,0,0-.091-.086Z" transform="translate(-145.168 -292.096)" fill="#fff"/>
              <path id="Trazado_158584" data-name="Trazado 158584" d="M159.137,305.532h0a.494.494,0,0,0,.132.342.421.421,0,0,0,.316.142.428.428,0,0,0,.319-.142.492.492,0,0,0,.13-.341v-.645l-.9,0v.646Z" transform="translate(-145.192 -291.84)" fill="#1a0095"/>
              <path id="Trazado_158585" data-name="Trazado 158585" d="M159.727,305.016a.088.088,0,0,0,0,.177.088.088,0,1,0,0-.177Z" transform="translate(-145.078 -291.811)" fill="#fff"/>
              <path id="Trazado_158586" data-name="Trazado 158586" d="M159.523,305.211a.086.086,0,0,0-.088.088.088.088,0,1,0,.175,0,.086.086,0,0,0-.087-.088Z" transform="translate(-145.125 -291.767)" fill="#fff"/>
              <path id="Trazado_158587" data-name="Trazado 158587" d="M159.727,305.414a.089.089,0,1,0,0,.178.089.089,0,0,0,0-.178Z" transform="translate(-145.079 -291.721)" fill="#fff"/>
              <path id="Trazado_158588" data-name="Trazado 158588" d="M159.328,305.414a.09.09,0,0,0,0,.179.09.09,0,1,0,0-.179Z" transform="translate(-145.168 -291.721)" fill="#fff"/>
              <path id="Trazado_158589" data-name="Trazado 158589" d="M159.328,305.015a.089.089,0,1,0,0,.178.089.089,0,1,0,0-.178Z" transform="translate(-145.169 -291.811)" fill="#fff"/>
              <path id="Trazado_158590" data-name="Trazado 158590" d="M158.122,304.272h0a.511.511,0,0,0,.132.342.431.431,0,0,0,.318.142.416.416,0,0,0,.316-.141.5.5,0,0,0,.134-.341v-.646h-.9l0,.645Z" transform="translate(-145.421 -292.124)" fill="#1a0095"/>
              <path id="Trazado_158591" data-name="Trazado 158591" d="M158.713,303.755a.09.09,0,0,0-.088.09.088.088,0,0,0,.088.088.091.091,0,0,0,.091-.088.093.093,0,0,0-.091-.09Z" transform="translate(-145.307 -292.095)" fill="#fff"/>
              <path id="Trazado_158592" data-name="Trazado 158592" d="M158.509,303.951a.088.088,0,0,0,0,.177.088.088,0,1,0,0-.177Z" transform="translate(-145.354 -292.051)" fill="#fff"/>
              <path id="Trazado_158593" data-name="Trazado 158593" d="M158.713,304.155a.088.088,0,1,0,.088.088.089.089,0,0,0-.088-.088Z" transform="translate(-145.307 -292.005)" fill="#fff"/>
              <path id="Trazado_158594" data-name="Trazado 158594" d="M158.316,304.155a.089.089,0,0,0,0,.179.089.089,0,1,0,0-.179Z" transform="translate(-145.397 -292.005)" fill="#fff"/>
              <path id="Trazado_158595" data-name="Trazado 158595" d="M158.314,303.755a.089.089,0,0,0-.087.088.088.088,0,1,0,.177,0,.089.089,0,0,0-.089-.088Z" transform="translate(-145.397 -292.095)" fill="#fff"/>
              <path id="Trazado_158596" data-name="Trazado 158596" d="M160.155,304.272h0a.5.5,0,0,0,.131.342.433.433,0,0,0,.318.142.423.423,0,0,0,.318-.142.487.487,0,0,0,.134-.342v-.645h-.9l0,.645Z" transform="translate(-144.962 -292.124)" fill="#1a0095"/>
              <path id="Trazado_158597" data-name="Trazado 158597" d="M160.747,303.755a.087.087,0,0,0-.091.088.09.09,0,1,0,.091-.088Z" transform="translate(-144.849 -292.095)" fill="#fff"/>
              <path id="Trazado_158598" data-name="Trazado 158598" d="M160.542,303.95a.089.089,0,1,0,0,.178.089.089,0,1,0,0-.178Z" transform="translate(-144.895 -292.051)" fill="#fff"/>
              <path id="Trazado_158599" data-name="Trazado 158599" d="M160.744,304.153a.088.088,0,0,0-.088.091.087.087,0,0,0,.088.088.089.089,0,0,0,.091-.088.09.09,0,0,0-.091-.091Z" transform="translate(-144.849 -292.006)" fill="#fff"/>
              <path id="Trazado_158600" data-name="Trazado 158600" d="M160.349,304.155a.088.088,0,1,0,0,.177.088.088,0,0,0,0-.177Z" transform="translate(-144.938 -292.005)" fill="#fff"/>
              <path id="Trazado_158601" data-name="Trazado 158601" d="M160.349,303.755a.089.089,0,0,0-.091.088.092.092,0,0,0,.091.09.09.09,0,0,0,.088-.09.087.087,0,0,0-.088-.088Z" transform="translate(-144.939 -292.095)" fill="#fff"/>
              <path id="Trazado_158602" data-name="Trazado 158602" d="M159.14,303h0a.5.5,0,0,0,.131.338.438.438,0,0,0,.319.143.424.424,0,0,0,.318-.143.508.508,0,0,0,.134-.338v-.647h-.9V303Z" transform="translate(-145.191 -292.412)" fill="#1a0095"/>
              <path id="Trazado_158603" data-name="Trazado 158603" d="M159.732,302.479a.091.091,0,0,0-.091.091.089.089,0,0,0,.091.086.087.087,0,0,0,.088-.086.09.09,0,0,0-.088-.091Z" transform="translate(-145.078 -292.384)" fill="#fff"/>
              <path id="Trazado_158604" data-name="Trazado 158604" d="M159.527,302.676a.088.088,0,0,0-.089.087.089.089,0,0,0,.089.09.088.088,0,0,0,.087-.09.087.087,0,0,0-.087-.087Z" transform="translate(-145.124 -292.339)" fill="#fff"/>
              <path id="Trazado_158605" data-name="Trazado 158605" d="M159.73,302.88a.089.089,0,0,0-.089.086.092.092,0,0,0,.089.091.09.09,0,0,0,.091-.091.088.088,0,0,0-.091-.086Z" transform="translate(-145.078 -292.293)" fill="#fff"/>
              <path id="Trazado_158606" data-name="Trazado 158606" d="M159.332,302.88a.088.088,0,0,0,0,.177.088.088,0,1,0,0-.177Z" transform="translate(-145.167 -292.293)" fill="#fff"/>
              <path id="Trazado_158607" data-name="Trazado 158607" d="M159.332,302.479a.089.089,0,0,0-.089.091.087.087,0,0,0,.089.086.088.088,0,0,0,.091-.086.09.09,0,0,0-.091-.091Z" transform="translate(-145.168 -292.384)" fill="#fff"/>
              <path id="Trazado_158608" data-name="Trazado 158608" d="M157.064,301.88a.423.423,0,0,1,.244-.412.41.41,0,0,1,.256.413Z" transform="translate(-145.66 -292.612)" fill="#fcff2c"/>
              <path id="Trazado_158609" data-name="Trazado 158609" d="M156.905,301.475l-.04.38h.249a.332.332,0,0,1,.243-.364.363.363,0,0,1,.248.364h.249l-.048-.384-.9,0Z" transform="translate(-145.705 -292.611)" fill="#fcff2c"/>
              <g id="Grupo_99900" data-name="Grupo 99900" transform="translate(11.16 8.846)">
                <path id="Trazado_158610" data-name="Trazado 158610" d="M157.869,301.873H157.6a.4.4,0,0,0-.248-.368.327.327,0,0,0-.227.352l-.265.014.026-.4.915-.013.064.413Zm-.538-.389-.425.006-.026.367.234-.013a.326.326,0,0,1,.217-.359Zm.048,0a.384.384,0,0,1,.24.374l.216-.013-.043-.368-.413.007Z" transform="translate(-156.865 -301.46)"/>
              </g>
              <path id="Trazado_158611" data-name="Trazado 158611" d="M156.859,301.784h1.015a.046.046,0,0,1,.039.049.044.044,0,0,1-.039.047h-1.015a.044.044,0,0,1-.039-.047.046.046,0,0,1,.039-.049Z" transform="translate(-145.715 -292.541)" fill="#fcff2c"/>
              <g id="Grupo_99901" data-name="Grupo 99901" transform="translate(11.089 9.23)">
                <path id="Trazado_158612" data-name="Trazado 158612" d="M157.877,301.9h-1.015a.062.062,0,0,1,0-.124h1.015a.062.062,0,0,1,0,.124Zm-1.015-.094v.063h1.015a.027.027,0,0,0,.025-.029l-1.04-.033Z" transform="translate(-156.807 -301.773)"/>
              </g>
              <path id="Trazado_158613" data-name="Trazado 158613" d="M157.153,301.831a.263.263,0,0,1,.135-.256.267.267,0,0,1,.141.256Z" transform="translate(-145.64 -292.588)" fill="#fcff2c"/>
              <g id="Grupo_99902" data-name="Grupo 99902" transform="translate(11.512 8.974)">
                <path id="Trazado_158614" data-name="Trazado 158614" d="M157.445,301.847h-.292a.177.177,0,1,1,.292-.014v.014Zm-.161-.255a.267.267,0,0,0-.115.241l.248-.013a.25.25,0,0,0-.132-.228Z" transform="translate(-157.152 -301.564)"/>
              </g>
              <path id="Trazado_158615" data-name="Trazado 158615" d="M156.876,301.345h.975a.04.04,0,0,1,.037.043.039.039,0,0,1-.037.04h-.975a.04.04,0,0,1-.038-.04.04.04,0,0,1,.038-.043Z" transform="translate(-145.711 -292.64)" fill="#fcff2c"/>
              <g id="Grupo_99903" data-name="Grupo 99903" transform="translate(11.111 8.692)">
                <path id="Trazado_158616" data-name="Trazado 158616" d="M157.854,301.444h-.975a.055.055,0,0,1,0-.11h.975a.055.055,0,0,1,0,.11Zm-.975-.082v.053h.975a.023.023,0,0,0,.022-.025l-1-.028Z" transform="translate(-156.825 -301.334)"/>
              </g>
              <path id="Trazado_158617" data-name="Trazado 158617" d="M156.893,301.413h.93a.04.04,0,0,1,.037.043.039.039,0,0,1-.037.043h-.93a.039.039,0,0,1-.036-.043.039.039,0,0,1,.036-.043Z" transform="translate(-145.707 -292.625)" fill="#fcff2c"/>
              <g id="Grupo_99904" data-name="Grupo 99904" transform="translate(11.135 8.773)">
                <path id="Trazado_158618" data-name="Trazado 158618" d="M157.826,301.518h-.93a.06.06,0,0,1,0-.118h.93a.059.059,0,0,1,0,.118Zm-.93-.088v.058h.93c.011,0,.021-.013.021-.028l-.951-.029Z" transform="translate(-156.845 -301.4)"/>
              </g>
              <path id="Trazado_158619" data-name="Trazado 158619" d="M157.131,300.9h.074v.053h.054V300.9h.076v.053h.054V300.9h.074v.12a.032.032,0,0,1-.033.032h-.265a.036.036,0,0,1-.033-.033V300.9Z" transform="translate(-145.645 -292.741)" fill="#fcff2c"/>
              <g id="Grupo_99905" data-name="Grupo 99905" transform="translate(11.47 8.137)">
                <path id="Trazado_158620" data-name="Trazado 158620" d="M157.432,301.063h-.277l-.037-.045V300.9l.089-.017.015.07.039-.017-.015-.036.091-.017.016.07.038-.017-.016-.036.089-.017.016.153-.049.028Zm-.237-.164-.061.013.016.105.282.033.021-.032v-.12l-.061.013.015.039-.069.015-.016-.067-.06.013.016.039-.07.015-.012-.067Z" transform="translate(-157.118 -300.882)"/>
              </g>
              <path id="Trazado_158621" data-name="Trazado 158621" d="M157.4,301.028l.018.388h-.262l.02-.39.224,0Z" transform="translate(-145.639 -292.712)" fill="#fcff2c"/>
              <g id="Grupo_99906" data-name="Grupo 99906" transform="translate(11.519 8.301)">
                <path id="Trazado_158622" data-name="Trazado 158622" d="M157.435,301.432h-.277l0-.4.239-.012.033.417Zm-.048-.4-.208.012,0,.376.227-.016-.015-.373Z" transform="translate(-157.158 -301.015)"/>
              </g>
              <path id="Trazado_158623" data-name="Trazado 158623" d="M157.393,301.05h.071v.052h.053v-.053h.075v.053h.053v-.053h.071v.119a.033.033,0,0,1-.032.034h-.257a.034.034,0,0,1-.033-.034v-.118Z" transform="translate(-145.586 -292.707)" fill="#fcff2c"/>
              <g id="Grupo_99907" data-name="Grupo 99907" transform="translate(11.791 8.326)">
                <path id="Trazado_158624" data-name="Trazado 158624" d="M157.686,301.219h-.273l-.033-.048v-.118l.087-.016.016.067.037-.015-.015-.038.089-.016.015.069.038-.015-.015-.038.086-.016.016.151-.048.032Zm-.235-.165-.055.016.015.1.276.034.018-.034v-.119l-.058.015.012.038-.065.016-.016-.069-.059.015.013.038-.066.016-.016-.067Z" transform="translate(-157.38 -301.036)"/>
              </g>
              <path id="Trazado_158625" data-name="Trazado 158625" d="M157.663,301.174l.008.208h-.248l.007-.208Z" transform="translate(-145.579 -292.679)" fill="#fcff2c"/>
              <g id="Grupo_99908" data-name="Grupo 99908" transform="translate(11.838 8.477)">
                <path id="Trazado_158626" data-name="Trazado 158626" d="M157.689,301.4h-.264l-.007-.226.246-.015.025.24Zm-.04-.222-.216.013.007.195.217-.016-.009-.192Z" transform="translate(-157.418 -301.159)"/>
              </g>
              <path id="Trazado_158627" data-name="Trazado 158627" d="M156.873,301.05h.074v.053H157v-.054h.074v.053h.053v-.054h.075v.119a.034.034,0,0,1-.037.034h-.257a.037.037,0,0,1-.033-.034v-.118Z" transform="translate(-145.703 -292.707)" fill="#fcff2c"/>
              <g id="Grupo_99909" data-name="Grupo 99909" transform="translate(11.155 8.326)">
                <path id="Trazado_158628" data-name="Trazado 158628" d="M157.166,301.219h-.272l-.033-.048v-.118l.088-.016.015.069.038-.015-.016-.039.089-.015.015.069.038-.015-.016-.039.091-.016.012.151-.049.032Zm-.233-.164-.058.015.013.1.277.034.021-.034v-.119l-.059.015.016.039-.069.015-.016-.067-.058.013.013.039-.066.015-.016-.066Z" transform="translate(-156.861 -301.036)"/>
              </g>
              <path id="Trazado_158629" data-name="Trazado 158629" d="M157.143,301.174l.007.208h-.244l.006-.208Z" transform="translate(-145.696 -292.679)" fill="#fcff2c"/>
              <g id="Grupo_99910" data-name="Grupo 99910" transform="translate(11.2 8.477)">
                <path id="Trazado_158630" data-name="Trazado 158630" d="M157.17,301.4h-.262l-.01-.227.248-.015.025.241Zm-.039-.223-.217.013.007.195.218-.012-.009-.2Z" transform="translate(-156.898 -301.159)"/>
              </g>
              <path id="Trazado_158631" data-name="Trazado 158631" d="M157.245,301.133a.025.025,0,1,1,.049,0v.091h-.049v-.091Z" transform="translate(-145.619 -292.694)"/>
              <path id="Trazado_158632" data-name="Trazado 158632" d="M157.505,301.24a.024.024,0,1,1,.048,0v.071h-.048v-.071Z" transform="translate(-145.561 -292.67)"/>
              <path id="Trazado_158633" data-name="Trazado 158633" d="M156.983,301.24a.026.026,0,1,1,.051,0v.074h-.051v-.074Z" transform="translate(-145.678 -292.67)"/>
              <path id="Trazado_158634" data-name="Trazado 158634" d="M159.366,300.9h.076v.053h.051V300.9h.076v.053h.055V300.9h.075v.12a.033.033,0,0,1-.033.032H159.4a.036.036,0,0,1-.034-.032v-.12Z" transform="translate(-145.14 -292.741)" fill="#fcff2c"/>
              <g id="Grupo_99911" data-name="Grupo 99911" transform="translate(14.21 8.137)">
                <path id="Trazado_158635" data-name="Trazado 158635" d="M159.669,301.065h-.279l-.037-.045v-.12l.092-.017.013.07.038-.016-.016-.037.092-.017.016.07.039-.016-.016-.037.091-.017.015.153-.048.029Zm-.241-.165-.059.013.016.107.284.032.017-.032v-.12l-.059.013.013.039-.069.015-.016-.067-.06.013.015.039-.066.015-.017-.067Z" transform="translate(-159.353 -300.882)"/>
              </g>
              <path id="Trazado_158636" data-name="Trazado 158636" d="M159.637,301.027l.016.388H159.4l.018-.388Z" transform="translate(-145.133 -292.712)" fill="#fcff2c"/>
              <g id="Grupo_99912" data-name="Grupo 99912" transform="translate(14.263 8.303)">
                <path id="Trazado_158637" data-name="Trazado 158637" d="M159.667,301.431H159.4l0-.4.239-.01.029.414Zm-.045-.4-.207.015,0,.374.228-.016-.016-.373Z" transform="translate(-159.396 -301.017)"/>
              </g>
              <path id="Trazado_158638" data-name="Trazado 158638" d="M159.629,301.05h.069v.052h.054v-.053h.074v.053h.051v-.053h.076v.119a.032.032,0,0,1-.032.034h-.26a.034.034,0,0,1-.032-.034v-.118Z" transform="translate(-145.081 -292.707)" fill="#fcff2c"/>
              <g id="Grupo_99913" data-name="Grupo 99913" transform="translate(14.531 8.326)">
                <path id="Trazado_158639" data-name="Trazado 158639" d="M159.923,301.219h-.273l-.034-.048v-.118l.086-.016.016.069.038-.015-.013-.039.087-.016.016.07.036-.015-.015-.039.091-.016.013.151-.047.032Zm-.234-.165-.056.016.013.1.277.034.02-.034v-.119l-.063.015.016.039-.067.015-.015-.069-.059.015.015.039-.069.015-.012-.067Z" transform="translate(-159.615 -301.036)"/>
              </g>
              <path id="Trazado_158640" data-name="Trazado 158640" d="M159.9,301.174l.008.208h-.249l.007-.208Z" transform="translate(-145.074 -292.679)" fill="#fcff2c"/>
              <g id="Grupo_99914" data-name="Grupo 99914" transform="translate(14.572 8.477)">
                <path id="Trazado_158641" data-name="Trazado 158641" d="M159.648,301.4l.007-.227.246-.015.025.227-.278.015Zm.238-.223-.217.013.009.179h.233l-.025-.192Z" transform="translate(-159.648 -301.159)"/>
              </g>
              <path id="Trazado_158642" data-name="Trazado 158642" d="M159.11,301.051h.072v.051h.053v-.053h.071v.053h.051v-.053h.077v.121a.03.03,0,0,1-.031.031h-.26a.035.035,0,0,1-.033-.034v-.116Z" transform="translate(-145.198 -292.707)" fill="#fcff2c"/>
              <g id="Grupo_99915" data-name="Grupo 99915" transform="translate(13.897 8.327)">
                <path id="Trazado_158643" data-name="Trazado 158643" d="M159.406,301.218h-.275l-.033-.048v-.116l.087-.017.012.069.04-.015-.016-.038.087-.016.016.069.036-.015-.013-.038.089-.016.016.15-.047.032Zm-.237-.164-.056.015.016.1.277.034.015-.031v-.121l-.06.016.017.037-.069.015-.015-.067-.056.016.016.037-.069.015-.016-.066Z" transform="translate(-159.098 -301.037)"/>
              </g>
              <path id="Trazado_158644" data-name="Trazado 158644" d="M159.381,301.174l.006.208h-.248l.007-.208Z" transform="translate(-145.191 -292.679)" fill="#fcff2c"/>
              <g id="Grupo_99916" data-name="Grupo 99916" transform="translate(13.943 8.48)">
                <path id="Trazado_158645" data-name="Trazado 158645" d="M159.4,301.4h-.261l-.006-.223.248-.016.02.239Zm-.036-.223-.217.013.006.195.217-.012-.006-.2Z" transform="translate(-159.135 -301.161)"/>
              </g>
              <path id="Trazado_158646" data-name="Trazado 158646" d="M159.3,301.88a.281.281,0,1,1,.5,0l-.5,0Z" transform="translate(-145.155 -292.612)" fill="#fcff2c"/>
              <path id="Trazado_158647" data-name="Trazado 158647" d="M159.143,301.475l-.042.38h.249a.333.333,0,0,1,.243-.364.364.364,0,0,1,.246.364h.246l-.043-.384-.9,0Z" transform="translate(-145.2 -292.611)" fill="#fcff2c"/>
              <g id="Grupo_99917" data-name="Grupo 99917" transform="translate(13.9 8.846)">
                <path id="Trazado_158648" data-name="Trazado 158648" d="M160.1,301.873h-.265a.393.393,0,0,0-.248-.368.334.334,0,0,0-.229.352l-.262.016.028-.4.915-.016.061.413Zm-.541-.389-.42.009-.029.364.234-.013a.333.333,0,0,1,.216-.359Zm.05,0a.386.386,0,0,1,.243.374l.216-.013-.045-.368-.413.007Z" transform="translate(-159.1 -301.46)"/>
              </g>
              <path id="Trazado_158649" data-name="Trazado 158649" d="M159.093,301.784h1.018c.022,0,.038.025.038.049a.041.041,0,0,1-.038.047h-1.018c-.02,0-.036-.02-.036-.047s.016-.049.036-.049Z" transform="translate(-145.21 -292.541)" fill="#fcff2c"/>
              <g id="Grupo_99918" data-name="Grupo 99918" transform="translate(13.831 9.23)">
                <path id="Trazado_158650" data-name="Trazado 158650" d="M160.113,301.9H159.1a.058.058,0,0,1-.051-.062.057.057,0,0,1,.051-.063h1.018a.059.059,0,0,1,.054.063.06.06,0,0,1-.054.063Zm-1.018-.1v.066h1.018c.013,0,.023-.015.023-.033L159.1,301.8Z" transform="translate(-159.044 -301.773)"/>
              </g>
              <path id="Trazado_158651" data-name="Trazado 158651" d="M159.39,301.831a.263.263,0,0,1,.134-.256.271.271,0,0,1,.142.256Z" transform="translate(-145.135 -292.588)" fill="#fcff2c"/>
              <g id="Grupo_99919" data-name="Grupo 99919" transform="translate(14.254 8.975)">
                <path id="Trazado_158652" data-name="Trazado 158652" d="M159.681,301.849h-.291c-.016-.222.123-.283.129-.284a.264.264,0,0,1,.162.268v.016Zm-.162-.257a.271.271,0,0,0-.114.241l.245-.013a.248.248,0,0,0-.131-.228Z" transform="translate(-159.389 -301.565)"/>
              </g>
              <path id="Trazado_158653" data-name="Trazado 158653" d="M159.113,301.345h.972a.04.04,0,0,1,.038.043.04.04,0,0,1-.038.04h-.972a.04.04,0,0,1-.039-.04.04.04,0,0,1,.039-.043Z" transform="translate(-145.206 -292.64)" fill="#fcff2c"/>
              <g id="Grupo_99920" data-name="Grupo 99920" transform="translate(13.853 8.692)">
                <path id="Trazado_158654" data-name="Trazado 158654" d="M160.088,301.447h-.975a.055.055,0,0,1-.051-.056.052.052,0,0,1,.051-.056h.975a.053.053,0,0,1,.053.056.055.055,0,0,1-.053.056Zm-.975-.085v.054h.975a.026.026,0,0,0,.023-.026l-1-.028Z" transform="translate(-159.062 -301.334)"/>
              </g>
              <path id="Trazado_158655" data-name="Trazado 158655" d="M159.13,301.413h.93a.04.04,0,0,1,.034.044.039.039,0,0,1-.034.042h-.93a.04.04,0,0,1-.038-.042.041.041,0,0,1,.038-.044Z" transform="translate(-145.202 -292.625)" fill="#fcff2c"/>
              <g id="Grupo_99921" data-name="Grupo 99921" transform="translate(13.874 8.774)">
                <path id="Trazado_158656" data-name="Trazado 158656" d="M160.063,301.517h-.93a.058.058,0,0,1,0-.116h.93a.059.059,0,0,1,0,.116Zm-.93-.086v.055h.93c.012,0,.018-.011.018-.027l-.949-.028Z" transform="translate(-159.079 -301.401)"/>
              </g>
              <path id="Trazado_158657" data-name="Trazado 158657" d="M159.482,301.133c0-.038.05-.038.05,0v.092h-.05v-.092Z" transform="translate(-145.114 -292.694)"/>
              <path id="Trazado_158658" data-name="Trazado 158658" d="M159.741,301.24a.024.024,0,1,1,.048,0v.074h-.048v-.074Z" transform="translate(-145.055 -292.67)"/>
              <path id="Trazado_158659" data-name="Trazado 158659" d="M159.221,301.241a.024.024,0,1,1,.048,0v.072h-.048v-.072Z" transform="translate(-145.173 -292.67)"/>
              <path id="Trazado_158660" data-name="Trazado 158660" d="M161.578,300.9h.075v.051h.053V300.9h.076v.054h.051V300.9h.075v.121a.029.029,0,0,1-.032.031h-.265a.033.033,0,0,1-.033-.031V300.9Z" transform="translate(-144.64 -292.741)" fill="#fcff2c"/>
              <g id="Grupo_99922" data-name="Grupo 99922" transform="translate(16.922 8.14)">
                <path id="Trazado_158661" data-name="Trazado 158661" d="M161.879,301.065H161.6l-.036-.045V300.9l.091-.017.011.069.042-.014-.015-.04.091-.015.016.069.036-.014-.016-.04.091-.015.015.151-.047.031Zm-.239-.164-.059.012.015.107.283.031.018-.031V300.9l-.061.015.016.039-.067.016-.016-.07-.06.015.013.039-.066.016-.016-.067Z" transform="translate(-161.565 -300.884)"/>
              </g>
              <path id="Trazado_158662" data-name="Trazado 158662" d="M161.849,301.027l.017.389h-.259l.016-.388Z" transform="translate(-144.634 -292.712)" fill="#fcff2c"/>
              <g id="Grupo_99923" data-name="Grupo 99923" transform="translate(16.973 8.303)">
                <path id="Trazado_158663" data-name="Trazado 158663" d="M161.882,301.434h-.275v-.4l.243-.012.032.417Zm-.048-.4-.211.017v.373l.227-.013-.016-.376Z" transform="translate(-161.607 -301.017)"/>
              </g>
              <path id="Trazado_158664" data-name="Trazado 158664" d="M161.838,301.053h.074v.051h.05v-.054h.075v.054h.053v-.054h.074v.12a.03.03,0,0,1-.029.032h-.261a.032.032,0,0,1-.032-.032l0-.118Z" transform="translate(-144.582 -292.706)" fill="#fcff2c"/>
              <g id="Grupo_99924" data-name="Grupo 99924" transform="translate(17.243 8.327)">
                <path id="Trazado_158665" data-name="Trazado 158665" d="M162.136,301.222h-.276l-.033-.048v-.118l.087-.017.013.069.037-.017-.015-.037.089-.017.016.071.037-.017-.013-.037.087-.017.016.152-.045.033Zm-.237-.165-.059.013.016.1.279.032.015-.032v-.12l-.059.015.016.039-.069.012-.016-.066-.059.015.016.039-.066.012-.015-.064Z" transform="translate(-161.827 -301.037)"/>
              </g>
              <path id="Trazado_158666" data-name="Trazado 158666" d="M162.111,301.175l.008.208h-.249l.006-.208Z" transform="translate(-144.574 -292.678)" fill="#fcff2c"/>
              <g id="Grupo_99925" data-name="Grupo 99925" transform="translate(17.289 8.48)">
                <path id="Trazado_158667" data-name="Trazado 158667" d="M162.133,301.4h-.262l-.006-.224.246-.016.022.24Zm-.037-.223-.217.016.007.193.216-.013-.006-.195Z" transform="translate(-161.865 -301.161)"/>
              </g>
              <path id="Trazado_158668" data-name="Trazado 158668" d="M161.32,301.053h.071v.051h.055v-.051h.07v.051h.056v-.051h.072v.118a.033.033,0,0,1-.033.034h-.257a.036.036,0,0,1-.034-.034v-.118Z" transform="translate(-144.699 -292.706)" fill="#fcff2c"/>
              <g id="Grupo_99926" data-name="Grupo 99926" transform="translate(16.608 8.33)">
                <path id="Trazado_158669" data-name="Trazado 158669" d="M161.614,301.222h-.273l-.032-.048v-.118l.085-.016.016.067.039-.016-.016-.036.086-.017.016.069.04-.016-.015-.036.087-.017.015.15-.048.033Zm-.234-.165-.058.015.016.1.276.034.017-.034v-.118l-.056.013.015.038-.071.013-.013-.065-.056.013.012.038-.067.013-.013-.065Z" transform="translate(-161.309 -301.039)"/>
              </g>
              <path id="Trazado_158670" data-name="Trazado 158670" d="M161.591,301.177l.01.207h-.249l.008-.207Z" transform="translate(-144.692 -292.678)" fill="#fcff2c"/>
              <g id="Grupo_99927" data-name="Grupo 99927" transform="translate(16.651 8.48)">
                <path id="Trazado_158671" data-name="Trazado 158671" d="M161.617,301.4h-.264l-.01-.223.249-.017.025.24Zm-.039-.221-.217.013.007.194.216-.015-.006-.192Z" transform="translate(-161.344 -301.161)"/>
              </g>
              <path id="Trazado_158672" data-name="Trazado 158672" d="M161.51,301.88a.417.417,0,0,1,.244-.409.409.409,0,0,1,.254.413l-.5,0Z" transform="translate(-144.656 -292.611)" fill="#fcff2c"/>
              <path id="Trazado_158673" data-name="Trazado 158673" d="M161.351,301.474l-.039.382h.248a.341.341,0,0,1,.244-.367.365.365,0,0,1,.245.367h.249l-.043-.382Z" transform="translate(-144.7 -292.611)" fill="#fcff2c"/>
              <g id="Grupo_99928" data-name="Grupo 99928" transform="translate(16.612 8.849)">
                <path id="Trazado_158674" data-name="Trazado 158674" d="M162.316,301.873h-.267a.39.39,0,0,0-.245-.365.326.326,0,0,0-.229.352l-.262.013.026-.4.917-.015.061.411Zm-.541-.387-.424.007-.025.367.233-.016a.332.332,0,0,1,.216-.358Zm.048,0a.38.38,0,0,1,.24.373l.217-.012-.042-.368-.416.007Z" transform="translate(-161.312 -301.462)"/>
              </g>
              <path id="Trazado_158675" data-name="Trazado 158675" d="M161.305,301.786h1.016a.045.045,0,0,1,.039.048.043.043,0,0,1-.039.047h-1.016c-.023,0-.038-.02-.038-.047s.015-.048.038-.048Z" transform="translate(-144.711 -292.54)" fill="#fcff2c"/>
              <g id="Grupo_99929" data-name="Grupo 99929" transform="translate(16.542 9.231)">
                <path id="Trazado_158676" data-name="Trazado 158676" d="M162.324,301.9h-1.016a.057.057,0,0,1-.053-.063.057.057,0,0,1,.053-.063h1.016a.06.06,0,0,1,.055.063.061.061,0,0,1-.055.063Zm-1.016-.1v.066h1.016c.012,0,.023-.016.023-.033l-1.04-.033Z" transform="translate(-161.255 -301.774)"/>
              </g>
              <path id="Trazado_158677" data-name="Trazado 158677" d="M161.6,301.831a.261.261,0,0,1,.135-.253.264.264,0,0,1,.145.253Z" transform="translate(-144.636 -292.587)" fill="#fcff2c"/>
              <g id="Grupo_99930" data-name="Grupo 99930" transform="translate(16.962 8.976)">
                <path id="Trazado_158678" data-name="Trazado 158678" d="M161.892,301.849H161.6c-.013-.221.124-.283.131-.283a.26.26,0,0,1,.162.27v.013Zm-.162-.255a.278.278,0,0,0-.116.239l.246-.012a.247.247,0,0,0-.13-.227Z" transform="translate(-161.598 -301.566)"/>
              </g>
              <path id="Trazado_158679" data-name="Trazado 158679" d="M161.323,301.346h.975a.041.041,0,0,1,.037.044.039.039,0,0,1-.037.04h-.975a.04.04,0,0,1-.038-.04.042.042,0,0,1,.038-.044Z" transform="translate(-144.707 -292.64)" fill="#fcff2c"/>
              <g id="Grupo_99931" data-name="Grupo 99931" transform="translate(16.563 8.692)">
                <path id="Trazado_158680" data-name="Trazado 158680" d="M162.3,301.448h-.975a.056.056,0,0,1-.054-.055.057.057,0,0,1,.054-.059h.975a.054.054,0,0,1,.049.059.052.052,0,0,1-.049.055Zm-.975-.085v.055h.975a.024.024,0,0,0,.022-.026l-1-.029Z" transform="translate(-161.272 -301.334)"/>
              </g>
              <path id="Trazado_158681" data-name="Trazado 158681" d="M161.337,301.415h.934a.041.041,0,0,1,.036.042.039.039,0,0,1-.036.042h-.934a.037.037,0,0,1-.034-.042.04.04,0,0,1,.034-.042Z" transform="translate(-144.702 -292.624)" fill="#fcff2c"/>
              <g id="Grupo_99932" data-name="Grupo 99932" transform="translate(16.586 8.776)">
                <path id="Trazado_158682" data-name="Trazado 158682" d="M162.274,301.517h-.934a.055.055,0,0,1-.049-.058.053.053,0,0,1,.049-.056h.934a.053.053,0,0,1,.05.056.055.055,0,0,1-.05.058Zm-.934-.085v.054h.934c.011,0,.02-.011.02-.027l-.954-.027Z" transform="translate(-161.291 -301.403)"/>
              </g>
              <path id="Trazado_158683" data-name="Trazado 158683" d="M161.69,301.133a.027.027,0,1,1,.054,0v.094h-.054v-.094Z" transform="translate(-144.615 -292.694)"/>
              <path id="Trazado_158684" data-name="Trazado 158684" d="M161.95,301.243a.025.025,0,1,1,.05,0v.07h-.05v-.07Z" transform="translate(-144.556 -292.669)"/>
              <path id="Trazado_158685" data-name="Trazado 158685" d="M161.43,301.243a.026.026,0,1,1,.053,0v.071h-.053v-.071Z" transform="translate(-144.674 -292.669)"/>
              <path id="Trazado_158686" data-name="Trazado 158686" d="M157.135,303.162h.069v.054h.054v-.055h.078v.055h.051v-.055h.076v.121a.032.032,0,0,1-.036.029h-.265a.03.03,0,0,1-.028-.029v-.12Z" transform="translate(-145.644 -292.23)" fill="#fcff2c"/>
              <g id="Grupo_99933" data-name="Grupo 99933" transform="translate(11.474 10.917)">
                <path id="Trazado_158687" data-name="Trazado 158687" d="M157.431,303.329h-.277l-.033-.044v-.12l.086-.016.015.07.039-.015-.012-.04.091-.015.013.07.038-.015-.013-.04.089-.015.013.15-.049.031Zm-.237-.164-.056.014.012.107.281.029.021-.029v-.121l-.061.015.015.04-.066.012-.017-.067-.061.015.016.04-.07.012-.012-.066Z" transform="translate(-157.121 -303.149)"/>
              </g>
              <path id="Trazado_158688" data-name="Trazado 158688" d="M157.4,303.293l.019.388h-.259l.016-.387h.224Z" transform="translate(-145.638 -292.2)" fill="#fcff2c"/>
              <g id="Grupo_99934" data-name="Grupo 99934" transform="translate(11.524 11.078)">
                <path id="Trazado_158689" data-name="Trazado 158689" d="M157.435,303.7h-.273v-.4l.239-.015.034.417Zm-.047-.4-.211.015v.373l.228-.012-.017-.375Z" transform="translate(-157.162 -303.281)"/>
              </g>
              <path id="Trazado_158690" data-name="Trazado 158690" d="M157.394,303.315h.07v.054h.053v-.054h.075v.054h.053v-.054h.074v.123a.03.03,0,0,1-.032.029h-.259a.032.032,0,0,1-.033-.029v-.123Z" transform="translate(-145.586 -292.195)" fill="#fcff2c"/>
              <g id="Grupo_99935" data-name="Grupo 99935" transform="translate(11.794 11.107)">
                <path id="Trazado_158691" data-name="Trazado 158691" d="M157.688,303.483h-.272l-.034-.043v-.123l.085-.012.016.066.037-.015-.013-.039.088-.013.015.067.038-.015-.012-.039.086-.013.013.15-.045.029Zm-.235-.166-.056.015.013.108.278.029.018-.029v-.123l-.06.015.012.039-.065.015-.013-.069-.061.015.016.039-.069.015-.013-.069Z" transform="translate(-157.382 -303.304)"/>
              </g>
              <path id="Trazado_158692" data-name="Trazado 158692" d="M157.666,303.439l.008.21h-.25l.007-.21Z" transform="translate(-145.579 -292.167)" fill="#fcff2c"/>
              <g id="Grupo_99936" data-name="Grupo 99936" transform="translate(11.84 11.257)">
                <path id="Trazado_158693" data-name="Trazado 158693" d="M157.688,303.664h-.264l0-.222.246-.015.022.237Zm-.038-.222-.218.014.007.195.219-.012-.009-.2Z" transform="translate(-157.42 -303.427)"/>
              </g>
              <path id="Trazado_158694" data-name="Trazado 158694" d="M156.875,303.319h.071v.05H157v-.054h.072v.054h.053v-.054h.075v.123a.032.032,0,0,1-.034.031h-.257a.033.033,0,0,1-.033-.031v-.119Z" transform="translate(-145.703 -292.195)" fill="#fcff2c"/>
              <g id="Grupo_99937" data-name="Grupo 99937" transform="translate(11.16 11.108)">
                <path id="Trazado_158695" data-name="Trazado 158695" d="M157.17,303.485H156.9l-.033-.045v-.119l.083-.016.015.066.039-.012-.015-.042.087-.012.015.066.04-.012-.016-.042.088-.012.012.15-.044.031Zm-.235-.164-.058.011.013.108.28.031.018-.031v-.123l-.059.015.013.039-.069.016-.013-.07-.059.015.012.039-.066.016-.013-.066Z" transform="translate(-156.865 -303.305)"/>
              </g>
              <path id="Trazado_158696" data-name="Trazado 158696" d="M157.146,303.44l.01.21h-.249l.006-.21Z" transform="translate(-145.696 -292.167)" fill="#fcff2c"/>
              <g id="Grupo_99938" data-name="Grupo 99938" transform="translate(11.203 11.259)">
                <path id="Trazado_158697" data-name="Trazado 158697" d="M157.17,303.665h-.262l-.007-.223.248-.013.022.237Zm-.034-.222-.222.015.01.194.217-.012,0-.2Z" transform="translate(-156.9 -303.428)"/>
              </g>
              <path id="Trazado_158698" data-name="Trazado 158698" d="M157.064,304.146a.418.418,0,0,1,.244-.411.41.41,0,0,1,.256.413l-.5,0Z" transform="translate(-145.66 -292.1)" fill="#fcff2c"/>
              <path id="Trazado_158699" data-name="Trazado 158699" d="M156.907,303.74l-.04.383h.246a.34.34,0,0,1,.245-.367.366.366,0,0,1,.245.367h.249l-.043-.385-.9,0Z" transform="translate(-145.705 -292.099)" fill="#fcff2c"/>
              <g id="Grupo_99939" data-name="Grupo 99939" transform="translate(11.162 11.624)">
                <path id="Trazado_158700" data-name="Trazado 158700" d="M157.87,304.139H157.6a.382.382,0,0,0-.248-.367.326.326,0,0,0-.227.353l-.262.013.026-.4.917-.015.06.413Zm-.539-.39-.423.009-.028.369.234-.018a.331.331,0,0,1,.217-.359Zm.048,0a.381.381,0,0,1,.24.374l.216-.013-.04-.368-.416.007Z" transform="translate(-156.867 -303.726)"/>
              </g>
              <path id="Trazado_158701" data-name="Trazado 158701" d="M156.859,304.052h1.018a.044.044,0,0,1,.038.047.045.045,0,0,1-.038.048h-1.018a.044.044,0,0,1-.039-.048.043.043,0,0,1,.039-.047Z" transform="translate(-145.715 -292.028)" fill="#fcff2c"/>
              <g id="Grupo_99940" data-name="Grupo 99940" transform="translate(11.09 12.008)">
                <path id="Trazado_158702" data-name="Trazado 158702" d="M157.879,304.164h-1.018a.06.06,0,0,1-.054-.063.061.061,0,0,1,.054-.062h1.018a.061.061,0,0,1,.055.063.06.06,0,0,1-.055.063Zm-1.018-.1v.064h1.018c.012,0,.023-.012.023-.031l-1.041-.033Z" transform="translate(-156.808 -304.039)"/>
              </g>
              <path id="Trazado_158703" data-name="Trazado 158703" d="M157.153,304.1a.267.267,0,0,1,.139-.256.275.275,0,0,1,.142.256Z" transform="translate(-145.64 -292.076)" fill="#fcff2c"/>
              <g id="Grupo_99941" data-name="Grupo 99941" transform="translate(11.512 11.751)">
                <path id="Trazado_158704" data-name="Trazado 158704" d="M157.449,304.116h-.3c-.011-.221.124-.286.139-.286a.275.275,0,0,1,.156.272v.013Zm-.163-.255a.264.264,0,0,0-.116.239l.25-.013a.246.246,0,0,0-.134-.226Z" transform="translate(-157.152 -303.83)"/>
              </g>
              <path id="Trazado_158705" data-name="Trazado 158705" d="M156.877,303.61h.975a.04.04,0,0,1,.036.043.038.038,0,0,1-.036.043h-.975a.039.039,0,0,1-.037-.043.04.04,0,0,1,.037-.043Z" transform="translate(-145.711 -292.128)" fill="#fcff2c"/>
              <g id="Grupo_99942" data-name="Grupo 99942" transform="translate(11.113 11.468)">
                <path id="Trazado_158706" data-name="Trazado 158706" d="M157.854,303.713h-.975a.054.054,0,0,1-.053-.058.053.053,0,0,1,.053-.056h.975a.053.053,0,0,1,.05.056.055.055,0,0,1-.05.058Zm-.975-.085v.053h.975a.025.025,0,0,0,.023-.026l-1-.027Z" transform="translate(-156.827 -303.599)"/>
              </g>
              <path id="Trazado_158707" data-name="Trazado 158707" d="M156.9,303.68h.928a.043.043,0,0,1,0,.085H156.9a.039.039,0,0,1-.038-.042.04.04,0,0,1,.038-.043Z" transform="translate(-145.707 -292.112)" fill="#fcff2c"/>
              <g id="Grupo_99943" data-name="Grupo 99943" transform="translate(11.135 11.55)">
                <path id="Trazado_158708" data-name="Trazado 158708" d="M157.826,303.784H156.9a.057.057,0,0,1-.053-.058.059.059,0,0,1,.053-.06h.928a.058.058,0,0,1,.053.06.056.056,0,0,1-.053.058Zm-.928-.086v.054h.928a.024.024,0,0,0,.023-.026l-.951-.028Z" transform="translate(-156.845 -303.666)"/>
              </g>
              <path id="Trazado_158709" data-name="Trazado 158709" d="M157.246,303.4a.027.027,0,1,1,.053,0v.091h-.053V303.4Z" transform="translate(-145.619 -292.182)"/>
              <path id="Trazado_158710" data-name="Trazado 158710" d="M157.505,303.508a.025.025,0,1,1,.05,0v.07h-.05v-.07Z" transform="translate(-145.561 -292.157)"/>
              <path id="Trazado_158711" data-name="Trazado 158711" d="M156.985,303.508a.025.025,0,1,1,.049,0v.07h-.049v-.07Z" transform="translate(-145.678 -292.157)"/>
              <path id="Trazado_158712" data-name="Trazado 158712" d="M161.467,305.554l.05.053-.037.037.037.034.037-.034.053.053-.034.037.037.038.037-.037.056.054-.087.086a.037.037,0,0,1-.045,0l-.189-.19a.034.034,0,0,1,0-.048l.085-.082Z" transform="translate(-144.687 -291.689)" fill="#fcff2c"/>
              <g id="Grupo_99944" data-name="Grupo 99944" transform="translate(16.675 13.854)">
                <path id="Trazado_158713" data-name="Trazado 158713" d="M161.6,305.9l-.036-.015-.2-.2,0-.056.086-.085.075.053-.037.056.037.015.018-.034.071.054-.037.058.039.018.015-.039.076.053-.116.12Zm-.141-.331-.063.082.2.234.01-.021.086-.085-.055-.031-.015.037-.059-.038.038-.058-.053-.034-.018.038-.059-.038.036-.056-.051-.031Z" transform="translate(-161.364 -305.545)"/>
              </g>
              <path id="Trazado_158714" data-name="Trazado 158714" d="M161.6,305.836l-.26.285-.183-.182.287-.263Z" transform="translate(-144.737 -291.662)" fill="#fcff2c"/>
              <g id="Grupo_99945" data-name="Grupo 99945" transform="translate(16.406 14.005)">
                <path id="Trazado_158715" data-name="Trazado 158715" d="M161.338,306.146l-.194-.2.287-.282.177.159-.27.319Zm.093-.457-.267.261.172.153.251-.276-.156-.139Z" transform="translate(-161.144 -305.668)"/>
              </g>
              <path id="Trazado_158716" data-name="Trazado 158716" d="M161.539,305.848l.05.052-.034.036.034.037.039-.038.054.051-.039.039.039.038.036-.038.053.053-.083.085a.036.036,0,0,1-.048,0l-.181-.183a.034.034,0,0,1,0-.045l.085-.083Z" transform="translate(-144.67 -291.623)" fill="#fcff2c"/>
              <g id="Grupo_99946" data-name="Grupo 99946" transform="translate(16.766 14.214)">
                <path id="Trazado_158717" data-name="Trazado 158717" d="M161.666,306.187l-.036-.015-.192-.194.009-.056.085-.083.071.05-.037.059.037.016.017-.038.075.053-.039.059.039.016.015-.038.076.053-.119.119Zm-.135-.329-.061.086.2.228.009-.02.087-.085-.053-.031-.015.038-.059-.038.038-.059-.054-.032-.017.038-.056-.037.038-.059-.053-.031Z" transform="translate(-161.438 -305.839)"/>
              </g>
              <path id="Trazado_158718" data-name="Trazado 158718" d="M161.652,306.125l-.14.153-.174-.175.151-.144.163.165Z" transform="translate(-144.694 -291.597)" fill="#fcff2c"/>
              <g id="Grupo_99947" data-name="Grupo 99947" transform="translate(16.631 14.352)">
                <path id="Trazado_158719" data-name="Trazado 158719" d="M161.514,306.3l-.186-.184.153-.166.185.166-.152.184Zm-.033-.326-.129.142.162.142.13-.142-.163-.142Z" transform="translate(-161.328 -305.951)"/>
              </g>
              <path id="Trazado_158720" data-name="Trazado 158720" d="M161.171,305.48l.051.05-.036.039.036.037.039-.037.051.05-.037.038.037.037.039-.039.051.055-.086.085a.035.035,0,0,1-.045,0l-.18-.185a.029.029,0,0,1,0-.044l.081-.086Z" transform="translate(-144.753 -291.706)" fill="#fcff2c"/>
              <g id="Grupo_99948" data-name="Grupo 99948" transform="translate(16.325 13.763)">
                <path id="Trazado_158721" data-name="Trazado 158721" d="M161.3,305.82l-.034-.013-.183-.19,0-.061.085-.085.071.051-.034.059.034.016.017-.037.074.05-.038.06.038.015.016-.038.075.053-.118.12Zm-.135-.329-.061.087.2.228.011-.018.085-.088-.053-.032-.016.04-.059-.038.038-.06-.053-.029-.017.037-.058-.038.038-.058-.051-.031Z" transform="translate(-161.078 -305.471)"/>
              </g>
              <path id="Trazado_158722" data-name="Trazado 158722" d="M161.288,305.759l-.141.153-.175-.176.151-.142Z" transform="translate(-144.777 -291.68)" fill="#fcff2c"/>
              <g id="Grupo_99949" data-name="Grupo 99949" transform="translate(16.184 13.902)">
                <path id="Trazado_158723" data-name="Trazado 158723" d="M161.148,305.935l-.185-.184.153-.167.183.167-.151.184Zm-.034-.329-.132.145.167.142.129-.142-.163-.145Z" transform="translate(-160.963 -305.584)"/>
              </g>
              <path id="Trazado_158724" data-name="Trazado 158724" d="M160.76,306.175a.41.41,0,0,1,.461-.118.417.417,0,0,1-.113.474l-.348-.357Z" transform="translate(-144.825 -291.582)" fill="#fcff2c"/>
              <path id="Trazado_158725" data-name="Trazado 158725" d="M160.93,305.8l-.3.243.174.175a.338.338,0,0,1,.434-.087.365.365,0,0,1-.086.432l.175.178.239-.305-.637-.635Z" transform="translate(-144.854 -291.634)" fill="#fcff2c"/>
              <g id="Grupo_99950" data-name="Grupo 99950" transform="translate(15.767 14.152)">
                <path id="Trazado_158726" data-name="Trazado 158726" d="M161.333,306.76l-.189-.188a.392.392,0,0,0,.085-.435h0a.322.322,0,0,0-.143-.034.384.384,0,0,0-.267.123l-.195-.173.3-.265.657.636-.248.336Zm-.071-.622a.373.373,0,0,1,.028.114.408.408,0,0,1-.125.32l.165.145.229-.293-.3-.286Zm-.341-.329-.279.243.177.152a.377.377,0,0,1,.407-.1l-.3-.294Z" transform="translate(-160.623 -305.788)"/>
              </g>
              <path id="Trazado_158727" data-name="Trazado 158727" d="M160.636,305.987l.717.718a.044.044,0,0,1,0,.06.047.047,0,0,1-.063.007l-.718-.72a.044.044,0,0,1,.007-.061.044.044,0,0,1,.061,0Z" transform="translate(-144.871 -291.594)" fill="#fcff2c"/>
              <g id="Grupo_99951" data-name="Grupo 99951" transform="translate(15.674 14.368)">
                <path id="Trazado_158728" data-name="Trazado 158728" d="M161.314,306.8l-.036-.015-.718-.718a.062.062,0,0,1,0-.082l.047-.021.754.734a.058.058,0,0,1,0,.08l-.048.022Zm-.733-.756.733.74.026-.025-.713-.758-.056.054.011-.012Z" transform="translate(-160.547 -305.964)"/>
              </g>
              <path id="Trazado_158729" data-name="Trazado 158729" d="M160.834,306.213a.165.165,0,1,1,.2.2l-.2-.2Z" transform="translate(-144.808 -291.561)" fill="#fcff2c"/>
              <g id="Grupo_99952" data-name="Grupo 99952" transform="translate(16.016 14.537)">
                <path id="Trazado_158730" data-name="Trazado 158730" d="M161.034,306.435l-.208-.207c.152-.189.289-.109.292-.109a.261.261,0,0,1-.072.305l-.011.011Zm.011-.3a.275.275,0,0,0-.2.088l.183.166a.251.251,0,0,0,.069-.253s-.022,0-.055,0Z" transform="translate(-160.826 -306.102)"/>
              </g>
              <path id="Trazado_158731" data-name="Trazado 158731" d="M160.957,305.687l.689.689a.041.041,0,0,1,0,.058.045.045,0,0,1-.058,0l-.689-.691a.037.037,0,0,1,0-.053.044.044,0,0,1,.059-.006Z" transform="translate(-144.796 -291.661)" fill="#fcff2c"/>
              <g id="Grupo_99953" data-name="Grupo 99953" transform="translate(16.077 14.015)">
                <path id="Trazado_158732" data-name="Trazado 158732" d="M161.615,306.462l-.037-.013-.688-.691a.054.054,0,0,1,0-.075l.078-.006.69.69a.064.064,0,0,1,0,.076l-.043.02Zm-.667-.764-.037.039.7.709.02-.023-.687-.725Z" transform="translate(-160.876 -305.676)"/>
              </g>
              <path id="Trazado_158733" data-name="Trazado 158733" d="M160.919,305.747l.66.66a.039.039,0,0,1,0,.055.037.037,0,0,1-.054,0l-.66-.66a.04.04,0,0,1,0-.054c.017-.016.04-.021.054-.006Z" transform="translate(-144.804 -291.648)" fill="#fcff2c"/>
              <g id="Grupo_99954" data-name="Grupo 99954" transform="translate(16.032 14.089)">
                <path id="Trazado_158734" data-name="Trazado 158734" d="M161.546,306.491l-.036-.015-.658-.657a.057.057,0,0,1,0-.077l.077,0,.658.658a.056.056,0,0,1,0,.077l-.043.018Zm-.633-.732-.039.036.672.682.021-.022-.653-.7Z" transform="translate(-160.839 -305.737)"/>
              </g>
              <path id="Trazado_158735" data-name="Trazado 158735" d="M161.378,305.794c.023-.028.061.007.034.036l-.064.066-.037-.037.066-.065Z" transform="translate(-144.7 -291.637)"/>
              <path id="Trazado_158736" data-name="Trazado 158736" d="M161.48,306.054a.024.024,0,1,1,.034.034l-.048.052-.037-.036.05-.05Z" transform="translate(-144.674 -291.578)"/>
              <path id="Trazado_158737" data-name="Trazado 158737" d="M161.112,305.685a.026.026,0,1,1,.037.037l-.05.05-.038-.036.051-.051Z" transform="translate(-144.757 -291.662)"/>
              <path id="Trazado_158738" data-name="Trazado 158738" d="M161.576,303.162h.072v.054h.053v-.054h.076v.054h.053v-.054h.077v.121a.036.036,0,0,1-.034.032h-.265a.034.034,0,0,1-.032-.033v-.12Z" transform="translate(-144.641 -292.229)" fill="#fcff2c"/>
              <g id="Grupo_99955" data-name="Grupo 99955" transform="translate(16.919 10.917)">
                <path id="Trazado_158739" data-name="Trazado 158739" d="M161.876,303.33h-.28l-.033-.045v-.12l.088-.016.015.07.038-.016-.016-.038.092-.016.016.07.037-.016-.017-.038.094-.016.013.152-.048.029Zm-.24-.166-.056.016.012.1.284.033.017-.032v-.121l-.06.015.015.039-.067.014-.016-.067-.06.015.015.039-.067.014-.016-.067Z" transform="translate(-161.563 -303.149)"/>
              </g>
              <path id="Trazado_158740" data-name="Trazado 158740" d="M161.845,303.3l.017.386H161.6l.016-.388Z" transform="translate(-144.634 -292.2)" fill="#fcff2c"/>
              <g id="Grupo_99956" data-name="Grupo 99956" transform="translate(16.97 11.078)">
                <path id="Trazado_158741" data-name="Trazado 158741" d="M161.877,303.7H161.6v-.4l.239-.015.034.417Zm-.048-.4-.21.011v.373l.228-.012-.018-.371Z" transform="translate(-161.604 -303.281)"/>
              </g>
              <path id="Trazado_158742" data-name="Trazado 158742" d="M161.836,303.319h.072v.05h.049v-.054h.075v.054h.055v-.054h.072v.123a.031.031,0,0,1-.031.031h-.26a.033.033,0,0,1-.033-.031v-.119Z" transform="translate(-144.582 -292.195)" fill="#fcff2c"/>
              <g id="Grupo_99957" data-name="Grupo 99957" transform="translate(17.238 11.107)">
                <path id="Trazado_158743" data-name="Trazado 158743" d="M162.132,303.485h-.275l-.034-.045v-.119l.088-.016.016.066.033-.015-.012-.039.087-.013.017.067.038-.015-.018-.039.091-.013.015.151-.045.031Zm-.235-.164-.058.012.013.107.279.031.015-.031v-.123l-.056.015.013.039-.069.016-.015-.07-.06.015.016.039-.065.016-.015-.066Z" transform="translate(-161.823 -303.304)"/>
              </g>
              <path id="Trazado_158744" data-name="Trazado 158744" d="M162.107,303.44l.007.21h-.248l.006-.21Z" transform="translate(-144.575 -292.167)" fill="#fcff2c"/>
              <g id="Grupo_99958" data-name="Grupo 99958" transform="translate(17.282 11.257)">
                <path id="Trazado_158745" data-name="Trazado 158745" d="M162.131,303.665h-.264l-.009-.223.249-.015.023.238Zm-.038-.222-.219.015.01.194.217-.013-.007-.195Z" transform="translate(-161.859 -303.427)"/>
              </g>
              <path id="Trazado_158746" data-name="Trazado 158746" d="M161.317,303.319h.07v.05h.055v-.054h.071v.054h.055v-.054h.074v.123a.031.031,0,0,1-.033.031h-.259a.032.032,0,0,1-.033-.031v-.119Z" transform="translate(-144.699 -292.195)" fill="#fcff2c"/>
              <g id="Grupo_99959" data-name="Grupo 99959" transform="translate(16.603 11.107)">
                <path id="Trazado_158747" data-name="Trazado 158747" d="M161.611,303.485h-.275l-.032-.045v-.119l.085-.016.016.066.039-.015-.016-.039.087-.013.016.067.039-.015-.015-.039.088-.013.015.151-.048.031Zm-.234-.164-.058.012.013.107.278.031.018-.031v-.123l-.059.015.016.039-.071.016-.012-.07-.059.015.013.039-.069.016-.012-.066Z" transform="translate(-161.305 -303.304)"/>
              </g>
              <path id="Trazado_158748" data-name="Trazado 158748" d="M161.587,303.44l.01.21h-.249l.007-.21Z" transform="translate(-144.692 -292.167)" fill="#fcff2c"/>
              <g id="Grupo_99960" data-name="Grupo 99960" transform="translate(16.64 11.259)">
                <path id="Trazado_158749" data-name="Trazado 158749" d="M161.335,303.667l.009-.226.246-.013.025.222-.28.017Zm.24-.224-.218.015.009.18h.234l-.025-.195Z" transform="translate(-161.335 -303.428)"/>
              </g>
              <path id="Trazado_158750" data-name="Trazado 158750" d="M161.508,304.145a.28.28,0,1,1,.5,0l-.5,0Z" transform="translate(-144.656 -292.1)" fill="#fcff2c"/>
              <path id="Trazado_158751" data-name="Trazado 158751" d="M161.349,303.74l-.04.383h.246a.343.343,0,0,1,.244-.367.365.365,0,0,1,.245.367h.249l-.043-.384Z" transform="translate(-144.701 -292.099)" fill="#fcff2c"/>
              <g id="Grupo_99961" data-name="Grupo 99961" transform="translate(16.608 11.625)">
                <path id="Trazado_158752" data-name="Trazado 158752" d="M162.312,304.139h-.267a.385.385,0,0,0-.245-.367.333.333,0,0,0-.229.353l-.261.013.023-.4.916-.015.064.412Zm-.538-.389-.424.009-.027.368.233-.017a.329.329,0,0,1,.218-.359Zm.05,0a.39.39,0,0,1,.237.376l.216-.015-.042-.368-.411.006Z" transform="translate(-161.309 -303.727)"/>
              </g>
              <path id="Trazado_158753" data-name="Trazado 158753" d="M161.3,304.053h1.016a.047.047,0,0,1,0,.093H161.3a.047.047,0,0,1,0-.093Z" transform="translate(-144.712 -292.028)" fill="#fcff2c"/>
              <g id="Grupo_99962" data-name="Grupo 99962" transform="translate(16.536 12.009)">
                <path id="Trazado_158754" data-name="Trazado 158754" d="M162.32,304.164H161.3a.058.058,0,0,1-.054-.06.059.059,0,0,1,.054-.064h1.016a.06.06,0,0,1,.055.064.058.058,0,0,1-.055.06Zm-1.016-.093v.061h1.016a.027.027,0,0,0,.026-.028l-1.042-.033Z" transform="translate(-161.25 -304.04)"/>
              </g>
              <path id="Trazado_158755" data-name="Trazado 158755" d="M161.6,304.1a.26.26,0,0,1,.137-.255.268.268,0,0,1,.142.255Z" transform="translate(-144.637 -292.075)" fill="#fcff2c"/>
              <g id="Grupo_99963" data-name="Grupo 99963" transform="translate(16.958 11.751)">
                <path id="Trazado_158756" data-name="Trazado 158756" d="M161.891,304.116h-.3a.179.179,0,1,1,.3-.013v.013Zm-.164-.255a.267.267,0,0,0-.116.241l.248-.016a.238.238,0,0,0-.131-.226Z" transform="translate(-161.594 -303.83)"/>
              </g>
              <path id="Trazado_158757" data-name="Trazado 158757" d="M161.319,303.611h.975a.041.041,0,0,1,.037.042.04.04,0,0,1-.037.043h-.975a.041.041,0,0,1-.038-.043.042.042,0,0,1,.038-.042Z" transform="translate(-144.707 -292.128)" fill="#fcff2c"/>
              <g id="Grupo_99964" data-name="Grupo 99964" transform="translate(16.559 11.47)">
                <path id="Trazado_158758" data-name="Trazado 158758" d="M162.3,303.713h-.975a.057.057,0,0,1-.053-.058.054.054,0,0,1,.053-.055h.975a.052.052,0,0,1,.051.055.055.055,0,0,1-.051.058Zm-.975-.083v.051h.975a.023.023,0,0,0,.022-.026l-1-.026Z" transform="translate(-161.269 -303.6)"/>
              </g>
              <path id="Trazado_158759" data-name="Trazado 158759" d="M161.334,303.68h.933a.04.04,0,0,1,.036.044.04.04,0,0,1-.036.042h-.933a.039.039,0,0,1-.034-.042.04.04,0,0,1,.034-.044Z" transform="translate(-144.703 -292.112)" fill="#fcff2c"/>
              <g id="Grupo_99965" data-name="Grupo 99965" transform="translate(16.581 11.55)">
                <path id="Trazado_158760" data-name="Trazado 158760" d="M162.268,303.784h-.93a.054.054,0,0,1-.05-.056.058.058,0,0,1,.05-.061h.93a.06.06,0,0,1,.054.061.056.056,0,0,1-.054.056Zm-.93-.086v.056h.93a.025.025,0,0,0,.022-.027l-.953-.029Z" transform="translate(-161.287 -303.666)"/>
              </g>
              <path id="Trazado_158761" data-name="Trazado 158761" d="M161.688,303.4a.026.026,0,1,1,.053,0v.094h-.053V303.4Z" transform="translate(-144.616 -292.182)"/>
              <path id="Trazado_158762" data-name="Trazado 158762" d="M161.948,303.508a.025.025,0,1,1,.05,0v.07h-.05v-.07Z" transform="translate(-144.557 -292.157)"/>
              <path id="Trazado_158763" data-name="Trazado 158763" d="M161.429,303.508a.024.024,0,1,1,.047,0v.074h-.047v-.074Z" transform="translate(-144.674 -292.157)"/>
              <path id="Trazado_158764" data-name="Trazado 158764" d="M157.352,305.784l.051-.051.037.038.038-.039-.038-.037.054-.055.039.039.037-.039-.037-.038.051-.053.085.085a.03.03,0,0,1,0,.045l-.186.188a.036.036,0,0,1-.048,0l-.083-.085Z" transform="translate(-145.595 -291.69)" fill="#fcff2c"/>
              <g id="Grupo_99966" data-name="Grupo 99966" transform="translate(11.746 13.848)">
                <path id="Trazado_158765" data-name="Trazado 158765" d="M157.457,305.9l-.032-.016-.082-.082.051-.074.058.037.017-.037-.037-.017.055-.075.059.037.015-.038-.038-.016.053-.075.119.1-.013.058-.224.2Zm-.063-.15-.029.051.092.081.016-.022.188-.186-.085-.108-.029.053.036.016-.036.061-.059-.039-.036.054.039.017-.039.058-.058-.036Z" transform="translate(-157.343 -305.54)"/>
              </g>
              <path id="Trazado_158766" data-name="Trazado 158766" d="M157.634,305.674l.285.263-.182.181-.262-.285Z" transform="translate(-145.567 -291.662)" fill="#fcff2c"/>
              <g id="Grupo_99967" data-name="Grupo 99967" transform="translate(11.897 14.001)">
                <path id="Trazado_158767" data-name="Trazado 158767" d="M157.738,306.143l-.272-.3.159-.178.306.262-.194.216Zm-.113-.456-.139.159.251.253.17-.17-.283-.241Z" transform="translate(-157.466 -305.665)"/>
              </g>
              <path id="Trazado_158768" data-name="Trazado 158768" d="M157.645,305.707l.051-.052.037.038.038-.038-.04-.037.055-.05.037.036.037-.036-.037-.039.053-.05.085.085a.027.027,0,0,1,0,.043l-.185.184a.031.031,0,0,1-.045,0l-.083-.083Z" transform="translate(-145.529 -291.706)" fill="#fcff2c"/>
              <g id="Grupo_99968" data-name="Grupo 99968" transform="translate(12.106 13.76)">
                <path id="Trazado_158769" data-name="Trazado 158769" d="M157.752,305.819l-.031-.015-.085-.083.05-.072.06.037.013-.037-.037-.016.052-.074.061.037.013-.037-.039-.017.055-.074.108.093,0,.059-.219.2Zm-.065-.15-.029.052.094.082.016-.021.181-.183-.083-.108-.032.05.038.017-.036.059-.061-.038-.031.053.038.016-.036.058-.06-.037Z" transform="translate(-157.637 -305.468)"/>
              </g>
              <path id="Trazado_158770" data-name="Trazado 158770" d="M157.924,305.592l.151.142-.172.176-.145-.152Z" transform="translate(-145.503 -291.681)" fill="#fcff2c"/>
              <g id="Grupo_99969" data-name="Grupo 99969" transform="translate(12.245 13.901)">
                <path id="Trazado_158771" data-name="Trazado 158771" d="M157.9,305.932l-.152-.166.165-.184.173.142-.186.207Zm.013-.327-.145.162.131.123.164-.164-.151-.12Z" transform="translate(-157.75 -305.583)"/>
              </g>
              <path id="Trazado_158772" data-name="Trazado 158772" d="M157.278,306.074l.05-.049.04.038.037-.038-.039-.039.053-.051.037.037.039-.037-.039-.036.05-.054.087.085a.03.03,0,0,1,0,.043l-.184.186a.035.035,0,0,1-.045,0l-.086-.086Z" transform="translate(-145.612 -291.623)" fill="#fcff2c"/>
              <g id="Grupo_99970" data-name="Grupo 99970" transform="translate(11.655 14.213)">
                <path id="Trazado_158773" data-name="Trazado 158773" d="M157.388,306.184l-.033-.012-.086-.083.05-.074.063.038.015-.038-.039-.015.054-.075.058.039.017-.038-.039-.017.053-.071.107.088,0,.059-.216.2Zm-.069-.148-.031.053.1.081.012-.02.184-.184-.085-.108-.031.051.037.017-.037.058-.058-.037-.032.053.037.015-.034.058-.063-.037Z" transform="translate(-157.269 -305.838)"/>
              </g>
              <path id="Trazado_158774" data-name="Trazado 158774" d="M157.557,305.958l.152.142-.174.177-.142-.153Z" transform="translate(-145.586 -291.598)" fill="#fcff2c"/>
              <g id="Grupo_99971" data-name="Grupo 99971" transform="translate(11.794 14.349)">
                <path id="Trazado_158775" data-name="Trazado 158775" d="M157.538,306.3l-.156-.163.167-.188.174.142-.185.208Zm.012-.327-.147.164.135.121.163-.164-.151-.121Z" transform="translate(-157.382 -305.949)"/>
              </g>
              <path id="Trazado_158776" data-name="Trazado 158776" d="M157.971,306.522a.419.419,0,0,1-.116-.463.409.409,0,0,1,.471.113l-.354.351Z" transform="translate(-145.488 -291.582)" fill="#fcff2c"/>
              <path id="Trazado_158777" data-name="Trazado 158777" d="M157.6,306.433l.24.3.175-.178a.335.335,0,0,1-.086-.433.37.37,0,0,1,.432.088l.175-.179-.3-.238-.634.64Z" transform="translate(-145.54 -291.635)" fill="#fcff2c"/>
              <g id="Grupo_99972" data-name="Grupo 99972" transform="translate(12.044 14.147)">
                <path id="Trazado_158778" data-name="Trazado 158778" d="M157.836,306.754l-.25-.31.636-.66.321.239-.173.2a.475.475,0,0,0-.288-.116.346.346,0,0,0-.148.033h0a.332.332,0,0,0,.089.407l-.188.208Zm.064-.613-.294.3.233.266.164-.165a.34.34,0,0,1-.132-.309.422.422,0,0,1,.029-.1Zm.183-.066a.421.421,0,0,1,.288.124l.154-.173-.3-.219-.283.3a.351.351,0,0,1,.143-.029Z" transform="translate(-157.586 -305.784)"/>
              </g>
              <path id="Trazado_158779" data-name="Trazado 158779" d="M157.785,306.7l.716-.717a.049.049,0,0,1,.063,0,.049.049,0,0,1,.006.063l-.718.718a.048.048,0,0,1-.066-.067Z" transform="translate(-145.5 -291.594)" fill="#fcff2c"/>
              <g id="Grupo_99973" data-name="Grupo 99973" transform="translate(12.263 14.37)">
                <path id="Trazado_158780" data-name="Trazado 158780" d="M157.828,306.8l-.045-.021a.067.067,0,0,1-.006-.082l.716-.718c.054-.016.071-.007.085.007a.067.067,0,0,1,0,.082l-.754.732Zm.7-.807-.733.726-.006.049.036.015.013-.02.72-.718,0-.052Z" transform="translate(-157.765 -305.966)"/>
              </g>
              <path id="Trazado_158781" data-name="Trazado 158781" d="M158.013,306.4a.164.164,0,1,1,.195-.194l-.195.194Z" transform="translate(-145.467 -291.562)" fill="#fcff2c"/>
              <g id="Grupo_99974" data-name="Grupo 99974" transform="translate(12.435 14.536)">
                <path id="Trazado_158782" data-name="Trazado 158782" d="M158.015,306.432l-.011-.011a.27.27,0,0,1-.086-.293c.018-.018.15-.076.3.076l-.206.228Zm-.078-.283a.269.269,0,0,0,.078.241l.185-.186a.308.308,0,0,0-.264-.055Z" transform="translate(-157.905 -306.102)"/>
              </g>
              <path id="Trazado_158783" data-name="Trazado 158783" d="M157.485,306.373l.689-.688a.039.039,0,0,1,.058,0,.043.043,0,0,1,0,.056l-.689.688a.036.036,0,0,1-.055,0,.042.042,0,0,1,0-.056Z" transform="translate(-145.567 -291.662)" fill="#fcff2c"/>
              <g id="Grupo_99975" data-name="Grupo 99975" transform="translate(11.908 14.012)">
                <path id="Trazado_158784" data-name="Trazado 158784" d="M157.52,306.457l-.043-.026,0-.07.688-.688.08,0a.06.06,0,0,1,0,.078l-.723.7Zm0-.032v.016l.013-.021.688-.687.01-.047H158.2l-.7.7-.007.045.032,0Z" transform="translate(-157.475 -305.674)"/>
              </g>
              <path id="Trazado_158785" data-name="Trazado 158785" d="M157.546,306.4l.657-.66a.041.041,0,0,1,.056,0,.038.038,0,0,1,0,.056l-.658.66a.038.038,0,0,1-.054,0c-.016-.016-.021-.043,0-.055Z" transform="translate(-145.553 -291.648)" fill="#fcff2c"/>
              <g id="Grupo_99976" data-name="Grupo 99976" transform="translate(11.968 14.084)">
                <path id="Trazado_158786" data-name="Trazado 158786" d="M157.585,306.489l-.044-.02a.054.054,0,0,1,0-.075l.661-.662.075,0a.059.059,0,0,1,.007.077l-.7.674Zm0-.031v.015l.012-.018.66-.661,0-.045h-.031l-.672.666-.006.044Z" transform="translate(-157.524 -305.733)"/>
              </g>
              <path id="Trazado_158787" data-name="Trazado 158787" d="M157.6,305.825c-.027-.025.007-.063.037-.036l.064.067-.036.034-.065-.066Z" transform="translate(-145.542 -291.638)"/>
              <path id="Trazado_158788" data-name="Trazado 158788" d="M157.858,305.719a.025.025,0,1,1,.036-.034l.05.05-.036.034-.05-.05Z" transform="translate(-145.483 -291.662)"/>
              <path id="Trazado_158789" data-name="Trazado 158789" d="M157.49,306.087a.025.025,0,1,1,.037-.034l.05.05-.036.034-.051-.05Z" transform="translate(-145.566 -291.578)"/>
            </g>
          </g>
        </g>
      </g>
    </g>
  </g>
</svg>
