<svg xmlns="http://www.w3.org/2000/svg" width="64.66" height="86" viewBox="0 0 64.66 86">
  <g id="Grupo_102694" data-name="Grupo 102694" transform="translate(-312.971 -208.427)">
    <g id="Grupo_102770" data-name="Grupo 102770">
      <g id="Grupo_102747" data-name="Grupo 102747">
        <g id="Grupo_102746" data-name="Grupo 102746">
          <path id="Trazado_163490" data-name="Trazado 163490" d="M334.8,209.4H320.35a2.463,2.463,0,0,0-2.463,2.463v21.175a2.463,2.463,0,0,0,4.072,1.864L336.4,222.431a2.462,2.462,0,0,0,.853-1.864v-8.7A2.462,2.462,0,0,0,334.8,209.4Z" fill="#9f9fbe"/>
        </g>
      </g>
      <g id="Grupo_102749" data-name="Grupo 102749">
        <g id="Grupo_102748" data-name="Grupo 102748">
          <path id="Trazado_163491" data-name="Trazado 163491" d="M370.251,209.4H355.806a2.463,2.463,0,0,0-2.462,2.463v8.7a2.464,2.464,0,0,0,.862,1.872l14.446,12.35a2.462,2.462,0,0,0,4.062-1.872v-21.05a2.463,2.463,0,0,0-2.463-2.463Z" fill="#6e6e86"/>
        </g>
      </g>
      <g id="Grupo_102751" data-name="Grupo 102751">
        <g id="Grupo_102750" data-name="Grupo 102750">
          <path id="Trazado_163492" data-name="Trazado 163492" d="M345.3,221.059a2.463,2.463,0,0,1-2.463-2.462v-3.94a2.462,2.462,0,0,1,4.925,0v3.94A2.462,2.462,0,0,1,345.3,221.059Z" fill="#9f9fbe"/>
        </g>
      </g>
      <g id="Grupo_102753" data-name="Grupo 102753">
        <g id="Grupo_102752" data-name="Grupo 102752">
          <path id="Trazado_163493" data-name="Trazado 163493" d="M345.3,212.2v8.864a2.462,2.462,0,0,0,2.462-2.462v-3.94A2.462,2.462,0,0,0,345.3,212.2Z" fill="#6e6e86"/>
        </g>
      </g>
      <g id="Grupo_102755" data-name="Grupo 102755">
        <g id="Grupo_102754" data-name="Grupo 102754">
          <path id="Trazado_163494" data-name="Trazado 163494" d="M367.465,225.312a31.146,31.146,0,0,0-22.164-9.178h-.017a31.534,31.534,0,0,0-31.336,31.63v32.718a12.983,12.983,0,0,0,12.968,12.968h36.769a12.983,12.983,0,0,0,12.968-12.968V247.487A31.149,31.149,0,0,0,367.465,225.312Z" fill="#bcbcd1"/>
        </g>
      </g>
      <g id="Grupo_102757" data-name="Grupo 102757">
        <g id="Grupo_102756" data-name="Grupo 102756">
          <path id="Trazado_163495" data-name="Trazado 163495" d="M367.465,225.312a31.146,31.146,0,0,0-22.164-9.178h0V293.45h18.385a12.983,12.983,0,0,0,12.968-12.968V247.487a31.149,31.149,0,0,0-9.188-22.175Z" fill="#9f9fbe"/>
        </g>
      </g>
      <g id="Grupo_102759" data-name="Grupo 102759">
        <g id="Grupo_102758" data-name="Grupo 102758">
          <path id="Trazado_163496" data-name="Trazado 163496" d="M345.3,283.929a2.462,2.462,0,0,1-2.463-2.462V278.84a2.462,2.462,0,0,1,4.925,0v2.627A2.462,2.462,0,0,1,345.3,283.929Z" fill="#9f9fbe"/>
        </g>
      </g>
      <g id="Grupo_102761" data-name="Grupo 102761">
        <g id="Grupo_102760" data-name="Grupo 102760">
          <path id="Trazado_163497" data-name="Trazado 163497" d="M345.3,276.378v7.551a2.462,2.462,0,0,0,2.462-2.462V278.84A2.462,2.462,0,0,0,345.3,276.378Z" fill="#6e6e86"/>
        </g>
      </g>
      <g id="Grupo_102763" data-name="Grupo 102763">
        <g id="Grupo_102762" data-name="Grupo 102762">
          <path id="Trazado_163498" data-name="Trazado 163498" d="M354.493,283.929a2.462,2.462,0,0,1-2.462-2.462V278.84a2.462,2.462,0,1,1,4.924,0v2.627A2.462,2.462,0,0,1,354.493,283.929Z" fill="#6e6e86"/>
        </g>
      </g>
      <g id="Grupo_102765" data-name="Grupo 102765">
        <g id="Grupo_102764" data-name="Grupo 102764">
          <path id="Trazado_163499" data-name="Trazado 163499" d="M336.108,283.929a2.462,2.462,0,0,1-2.462-2.462V278.84a2.462,2.462,0,0,1,4.924,0v2.627A2.462,2.462,0,0,1,336.108,283.929Z" fill="#9f9fbe"/>
        </g>
      </g>
      <g id="Grupo_102767" data-name="Grupo 102767">
        <g id="Grupo_102766" data-name="Grupo 102766">
          <path id="Trazado_163500" data-name="Trazado 163500" d="M345.3,228a19.484,19.484,0,0,0-12.752,34.215h25.5A19.484,19.484,0,0,0,345.3,228Z" fill="#f4f2f1"/>
        </g>
      </g>
      <g id="Grupo_102769" data-name="Grupo 102769">
        <g id="Grupo_102768" data-name="Grupo 102768">
          <path id="Trazado_163501" data-name="Trazado 163501" d="M345.3,228v34.215h12.751A19.484,19.484,0,0,0,345.3,228Z" fill="#ece8e7"/>
        </g>
      </g>
    </g>
    <g id="Grupo_102772" data-name="Grupo 102772">
      <g id="Grupo_102771" data-name="Grupo 102771">
        <path id="Trazado_163502" data-name="Trazado 163502" d="M358.052,263.44h-25.5a1.223,1.223,0,0,1-.8-.3,20.706,20.706,0,1,1,27.1,0A1.225,1.225,0,0,1,358.052,263.44ZM333.012,261h24.576a18.262,18.262,0,1,0-24.576,0Z"/>
      </g>
    </g>
    <g id="Grupo_102773" data-name="Grupo 102773">
      <path id="Trazado_163503" data-name="Trazado 163503" d="M345.3,268.437a20.947,20.947,0,0,1-13.713-5.11,1.467,1.467,0,0,1-.482-1.372,14.337,14.337,0,0,1,3.136-6.678,11.639,11.639,0,0,1-1.986-4.393,3.954,3.954,0,0,1,.338-2.526c.647-1.295,1.68-5.885,2.266-9.4a3.928,3.928,0,0,1,6.729-2.052l1.513,1.6a12.02,12.02,0,0,1,4.4,0l1.512-1.6a3.929,3.929,0,0,1,6.73,2.051c.586,3.511,1.617,8.1,2.264,9.4a3.938,3.938,0,0,1,.339,2.525,11.628,11.628,0,0,1-1.985,4.393,14.346,14.346,0,0,1,3.134,6.679,1.467,1.467,0,0,1-.482,1.372A20.947,20.947,0,0,1,345.3,268.437Zm-11.129-6.778a18.02,18.02,0,0,0,22.257,0,11.417,11.417,0,0,0-3.031-5.275,1.466,1.466,0,0,1-.063-2.017,9.059,9.059,0,0,0,2.136-4.059,1.009,1.009,0,0,0-.086-.639c-1.232-2.462-2.523-10.147-2.535-10.225a1,1,0,0,0-1.707-.521l-2.088,2.209a1.464,1.464,0,0,1-1.447.408,8.992,8.992,0,0,0-4.615,0,1.467,1.467,0,0,1-1.447-.408l-2.087-2.208a1,1,0,0,0-1.707.52c-.013.078-1.305,7.764-2.535,10.224a1,1,0,0,0-.086.64,9.037,9.037,0,0,0,2.135,4.059,1.466,1.466,0,0,1-.062,2.017A11.415,11.415,0,0,0,334.172,261.659Z"/>
    </g>
    <g id="Grupo_102774" data-name="Grupo 102774">
      <path id="Trazado_163504" data-name="Trazado 163504" d="M363.686,294.427h-36.77a13.961,13.961,0,0,1-13.945-13.945V247.764a32.791,32.791,0,0,1,3.939-15.573V211.866a3.443,3.443,0,0,1,3.44-3.439H334.8a3.443,3.443,0,0,1,3.44,3.439v4.082a32.211,32.211,0,0,1,3.626-.6v-.694a3.439,3.439,0,1,1,6.879,0v.689a32.747,32.747,0,0,1,3.627.589v-4.069a3.443,3.443,0,0,1,3.439-3.439h14.446a3.443,3.443,0,0,1,3.439,3.439v20.142a32.328,32.328,0,0,1,3.94,15.479v32.995A13.961,13.961,0,0,1,363.686,294.427ZM320.35,210.381a1.486,1.486,0,0,0-1.485,1.485v20.826l-.121.22a30.814,30.814,0,0,0-3.819,14.852v32.718a12,12,0,0,0,11.991,11.99h36.77a12,12,0,0,0,11.99-11.99V247.487a30.366,30.366,0,0,0-3.815-14.752l-.124-.221V211.866a1.486,1.486,0,0,0-1.485-1.485H355.806a1.487,1.487,0,0,0-1.485,1.485v6.579l-1.226-.323a30.5,30.5,0,0,0-5.407-.909l-.9-.07v-2.486a1.485,1.485,0,1,0-2.97,0v2.488l-.9.071a30,30,0,0,0-5.4.923l-1.23.33v-6.6a1.486,1.486,0,0,0-1.485-1.485Z"/>
    </g>
    <g id="Grupo_102776" data-name="Grupo 102776">
      <g id="Grupo_102775" data-name="Grupo 102775">
        <path id="Trazado_163505" data-name="Trazado 163505" d="M363.686,294.427h-36.77a13.961,13.961,0,0,1-13.945-13.945V247.764a32.512,32.512,0,0,1,32.313-32.607,32.13,32.13,0,0,1,22.872,9.464h0a32.119,32.119,0,0,1,9.475,22.867v32.994A13.961,13.961,0,0,1,363.686,294.427ZM345.3,217.112a30.558,30.558,0,0,0-30.376,30.652v32.718a12,12,0,0,0,11.991,11.99h36.77a12,12,0,0,0,11.99-11.99V247.488a30.172,30.172,0,0,0-8.9-21.484h0A30.176,30.176,0,0,0,345.3,217.112Z"/>
      </g>
    </g>
    <g id="Grupo_102777" data-name="Grupo 102777">
      <path id="Trazado_163506" data-name="Trazado 163506" d="M345.3,284.906a3.444,3.444,0,0,1-3.44-3.44V278.84a3.439,3.439,0,1,1,6.879,0v2.626A3.443,3.443,0,0,1,345.3,284.906Zm0-7.551a1.486,1.486,0,0,0-1.485,1.485v2.626a1.485,1.485,0,0,0,2.97,0V278.84A1.486,1.486,0,0,0,345.3,277.355Z"/>
    </g>
    <g id="Grupo_102779" data-name="Grupo 102779">
      <g id="Grupo_102778" data-name="Grupo 102778">
        <path id="Trazado_163507" data-name="Trazado 163507" d="M354.493,284.906a3.443,3.443,0,0,1-3.439-3.44V278.84a3.44,3.44,0,1,1,6.879,0v2.626A3.444,3.444,0,0,1,354.493,284.906Zm0-7.551a1.486,1.486,0,0,0-1.485,1.485v2.626a1.485,1.485,0,0,0,2.97,0V278.84A1.486,1.486,0,0,0,354.493,277.355Z"/>
      </g>
    </g>
    <g id="Grupo_102781" data-name="Grupo 102781">
      <g id="Grupo_102780" data-name="Grupo 102780">
        <path id="Trazado_163508" data-name="Trazado 163508" d="M336.108,284.906a3.443,3.443,0,0,1-3.439-3.44V278.84a3.439,3.439,0,1,1,6.879,0v2.626A3.444,3.444,0,0,1,336.108,284.906Zm0-7.551a1.486,1.486,0,0,0-1.485,1.485v2.626a1.485,1.485,0,0,0,2.97,0V278.84A1.486,1.486,0,0,0,336.108,277.355Z"/>
      </g>
    </g>
    <g id="Grupo_102783" data-name="Grupo 102783">
      <g id="Grupo_102782" data-name="Grupo 102782">
        <path id="Trazado_163509" data-name="Trazado 163509" d="M345.3,266.971a19.4,19.4,0,0,0,12.751-4.752,12.964,12.964,0,0,0-25.5,0,19.405,19.405,0,0,0,12.752,4.752Z" fill="#ffb54c"/>
      </g>
    </g>
    <g id="Grupo_102785" data-name="Grupo 102785">
      <g id="Grupo_102784" data-name="Grupo 102784">
        <path id="Trazado_163510" data-name="Trazado 163510" d="M345.3,251.591v15.38a19.4,19.4,0,0,0,12.751-4.752A12.947,12.947,0,0,0,345.3,251.591Z" fill="#e59e34"/>
      </g>
    </g>
    <g id="Grupo_102787" data-name="Grupo 102787">
      <g id="Grupo_102786" data-name="Grupo 102786">
        <path id="Trazado_163511" data-name="Trazado 163511" d="M356.7,249.013c-.834-1.67-1.915-6.9-2.4-9.81a2.462,2.462,0,0,0-4.218-1.286l-2.087,2.208a10.422,10.422,0,0,0-5.379,0l-2.087-2.208a2.462,2.462,0,0,0-4.218,1.286c-.485,2.907-1.565,8.14-2.4,9.81a2.457,2.457,0,0,0-.212,1.584c.591,2.955,3.777,8.545,11.607,8.545s11.015-5.59,11.606-8.545A2.457,2.457,0,0,0,356.7,249.013Z" fill="#ffd07b"/>
      </g>
    </g>
    <g id="Grupo_102789" data-name="Grupo 102789">
      <g id="Grupo_102788" data-name="Grupo 102788">
        <path id="Trazado_163512" data-name="Trazado 163512" d="M356.7,249.013c-.834-1.67-1.915-6.9-2.4-9.81a2.462,2.462,0,0,0-4.218-1.286l-2.087,2.208a10.335,10.335,0,0,0-2.689-.353v19.37c7.829,0,11.015-5.59,11.606-8.545A2.457,2.457,0,0,0,356.7,249.013Z" fill="#ffb54c"/>
      </g>
    </g>
  </g>
</svg>
