<svg xmlns="http://www.w3.org/2000/svg" width="100" height="100" viewBox="0 0 100 100">
  <g id="Filled_outline" data-name="Filled outline" transform="translate(-206 -206)">
    <path id="Trazado_164965" data-name="Trazado 164965" d="M219.333,267.667h18.334v10H214.333v-5A5,5,0,0,1,219.333,267.667Z" fill="#d26699"/>
    <path id="Trazado_164966" data-name="Trazado 164966" d="M249.2,252.621l-4.529,15.046-2.008,6.666h-8.334l1.952-6.666,5.148-17.592a3.334,3.334,0,0,1,4.124-2.284,3.414,3.414,0,0,1,.61.242l1.362.707a3.333,3.333,0,0,1,1.675,3.881Z" fill="#fdc8a2"/>
    <path id="Trazado_164967" data-name="Trazado 164967" d="M244.675,267.667l-2.008,6.666h-8.334l1.952-6.666Z" fill="#d26699"/>
    <path id="Trazado_164968" data-name="Trazado 164968" d="M216,256a8.333,8.333,0,0,0-8.333,8.333v13.334A8.333,8.333,0,0,0,216,269.333v-6.666h6.667V256Z" fill="#91563a"/>
    <path id="Trazado_164969" data-name="Trazado 164969" d="M239.333,259.333v3.334a11.666,11.666,0,0,1-23.333,0v-3.334a11.666,11.666,0,0,1,23.262-1.277A11.127,11.127,0,0,1,239.333,259.333Z" fill="#fdc8a2"/>
    <path id="Trazado_164970" data-name="Trazado 164970" d="M239.262,258.056l-7.054-2.646-2.875-1.077-1.527.765L216,261v-1.667a11.664,11.664,0,0,1,6.971-10.681,11.519,11.519,0,0,1,3.477-.921,11.27,11.27,0,0,1,1.219-.064A11.662,11.662,0,0,1,239.262,258.056Z" fill="#91563a"/>
    <path id="Trazado_164971" data-name="Trazado 164971" d="M232.208,255.41l-2.875-1.077-1.527.765-4.835-6.446a11.519,11.519,0,0,1,3.477-.921Z" fill="#78462f"/>
    <path id="Trazado_164972" data-name="Trazado 164972" d="M222.667,259.333H226v3.334h-3.333Z" fill="#91563a"/>
    <path id="Trazado_164973" data-name="Trazado 164973" d="M231,259.333h3.333v3.334H231Z" fill="#91563a"/>
    <path id="Trazado_164974" data-name="Trazado 164974" d="M229.333,269.047a6.339,6.339,0,0,1-4.512-1.868l2.357-2.358a3.05,3.05,0,0,0,4.31,0l2.357,2.358A6.339,6.339,0,0,1,229.333,269.047Z" fill="#fdb683"/>
    <g id="Grupo_103466" data-name="Grupo 103466">
      <path id="Trazado_164975" data-name="Trazado 164975" d="M246.266,243.113h0a3.333,3.333,0,0,1,4.553,1.22l3.464,6a3.333,3.333,0,0,1-1.22,4.554h0a3.334,3.334,0,0,1-4.553-1.22l-3.464-6A3.332,3.332,0,0,1,246.266,243.113Z" fill="#ec9090"/>
      <path id="Trazado_164976" data-name="Trazado 164976" d="M240.718,243.125h0a3.333,3.333,0,0,1-1.707,4.394l-4.575,2.015a3.332,3.332,0,0,1-4.393-1.707h0a3.332,3.332,0,0,1,1.707-4.393l4.575-2.015A3.333,3.333,0,0,1,240.718,243.125Z" fill="#ec9090"/>
      <path id="Trazado_164977" data-name="Trazado 164977" d="M247.473,241.388h0a3.332,3.332,0,0,1,2.963-3.664l6.887-.727a3.331,3.331,0,0,1,3.663,2.963h0a3.332,3.332,0,0,1-2.963,3.664l-6.887.727A3.331,3.331,0,0,1,247.473,241.388Z" fill="#ec9090"/>
      <path id="Trazado_164978" data-name="Trazado 164978" d="M242.788,225.005h0a3.331,3.331,0,0,1,3.6,3.04l.477,5.652a3.331,3.331,0,0,1-3.04,3.6h0a3.331,3.331,0,0,1-3.6-3.04l-.477-5.652A3.332,3.332,0,0,1,242.788,225.005Z" fill="#ec9090"/>
    </g>
    <rect id="Rectángulo_26462" data-name="Rectángulo 26462" width="10" height="13.737" rx="4.806" transform="translate(235.65 243.291) rotate(-68.284)" fill="#f49797"/>
    <path id="Trazado_164979" data-name="Trazado 164979" d="M233.639,223.74a4.03,4.03,0,1,0-4,7l-2,3.5a4.03,4.03,0,1,0,.461,6.692,6.046,6.046,0,0,0,10.037-.693h0l2-3.5a6.047,6.047,0,0,0-2.25-8.249h0a6.048,6.048,0,0,0-2.25-.75,4.028,4.028,0,0,0-2-4Z" fill="#f49797"/>
    <path id="Trazado_164980" data-name="Trazado 164980" d="M296,237.667v26.666H261V230.167a17.5,17.5,0,1,1,35,0Z" fill="#91563a"/>
    <path id="Trazado_164981" data-name="Trazado 164981" d="M261,236h3.333v3.333H261Z" fill="#fdb683"/>
    <path id="Trazado_164982" data-name="Trazado 164982" d="M291,236h3.333v3.333H291Z" fill="#fdb683"/>
    <path id="Trazado_164983" data-name="Trazado 164983" d="M278.5,271a10.407,10.407,0,0,0,9.872-7.115l.961-2.885h-1.666a3.334,3.334,0,0,1-3.334-3.333V246H271v11.667A3.333,3.333,0,0,1,267.667,261l.961,2.885A10.407,10.407,0,0,0,278.5,271Z" fill="#fdc8a2"/>
    <path id="Trazado_164984" data-name="Trazado 164984" d="M242.667,304.333h11.666l6.6-22.433-11.591-2.354Z" fill="#fdc8a2"/>
    <path id="Trazado_164985" data-name="Trazado 164985" d="M294.333,261h-5l-.961,2.885a10.406,10.406,0,0,1-19.744,0L267.667,261H260.72a8.333,8.333,0,0,0-8.047,6.167l-3.333,12.379,11.591,2.354,1.736-5.9v28.333h30V282.667h10V269.333A8.333,8.333,0,0,0,294.333,261Z" fill="#f49797"/>
    <path id="Trazado_164986" data-name="Trazado 164986" d="M292.667,304.333H296a6.666,6.666,0,0,0,6.667-6.666v-15h-10Z" fill="#fdbf92"/>
    <path id="Trazado_164987" data-name="Trazado 164987" d="M292.667,276v-3.333h-30V276a11.784,11.784,0,0,0,0,16.667v11.666h30V292.667A11.786,11.786,0,0,0,292.667,276Z" fill="#f49797"/>
    <path id="Trazado_164988" data-name="Trazado 164988" d="M278.5,279.333a12.04,12.04,0,0,1-8.654-3.12l2.308-2.4A8.946,8.946,0,0,0,278.5,276c3.788,0,5.814-1.485,6.848-2.731l2.565,2.129C286.424,277.193,283.582,279.333,278.5,279.333Z" fill="#ec9090"/>
    <path id="Trazado_164989" data-name="Trazado 164989" d="M262.667,297.667H276l12.431,4.972a23.693,23.693,0,0,0,8.8,1.694,5.438,5.438,0,0,0,5.438-5.437h0a5.438,5.438,0,0,0-4.493-5.354l-23.841-4.209h-6.666l-5,1.667Z" fill="#fdc8a2"/>
    <path id="Trazado_164990" data-name="Trazado 164990" d="M284.333,246v8.44a15.024,15.024,0,0,1-13.333,0V246Z" fill="#fdbf92"/>
    <path id="Trazado_164991" data-name="Trazado 164991" d="M261,229.333h1.667v10H261a5,5,0,0,1,0-10Z" fill="#fdb683"/>
    <path id="Trazado_164992" data-name="Trazado 164992" d="M277.667,252.667a15,15,0,0,1-15-15V226A13.332,13.332,0,0,1,276,212.667h3.333A13.333,13.333,0,0,1,292.667,226v11.667A15,15,0,0,1,277.667,252.667Z" fill="#fdc8a2"/>
    <path id="Trazado_164993" data-name="Trazado 164993" d="M268.5,236a2.5,2.5,0,1,1,2.5-2.5A2.5,2.5,0,0,1,268.5,236Z" fill="#91563a"/>
    <path id="Trazado_164994" data-name="Trazado 164994" d="M283.5,236a2.5,2.5,0,1,1,2.5-2.5A2.5,2.5,0,0,1,283.5,236Z" fill="#91563a"/>
    <path id="Trazado_164995" data-name="Trazado 164995" d="M276,244.333a5.006,5.006,0,0,1-5-5h3.333a1.667,1.667,0,1,0,3.334,0H281A5.006,5.006,0,0,1,276,244.333Z" fill="#fdb683"/>
    <path id="Trazado_164996" data-name="Trazado 164996" d="M296,229.333c0-15-8.208-21.666-18.333-21.666A18.333,18.333,0,0,0,259.333,226v5c13.334-3.333,25-15,25-15s1.667,5,8.334,13.333Z" fill="#91563a"/>
    <path id="Trazado_164997" data-name="Trazado 164997" d="M292.667,229.333h1.666a5,5,0,0,1,0,10h-1.666v-10Z" fill="#fdb683"/>
    <path id="Trazado_164998" data-name="Trazado 164998" d="M214.333,297.667h58.334v6.666H214.333Z" fill="#cececc"/>
    <path id="Trazado_164999" data-name="Trazado 164999" d="M253.967,304.333H217.261a3.749,3.749,0,0,1-3.638-2.84l-5.868-23.472a2.97,2.97,0,0,1,2.88-3.688h37.357a3.749,3.749,0,0,1,3.66,2.938l5.212,23.452a2.966,2.966,0,0,1-2.9,3.61Z" fill="#dfdfdd"/>
    <ellipse id="Elipse_5379" data-name="Elipse 5379" cx="3.19" cy="3.484" rx="3.19" ry="3.484" transform="matrix(0.691, -0.723, 0.723, 0.691, 226.309, 289.189)" fill="#f1f1f1"/>
    <path id="Trazado_165000" data-name="Trazado 165000" d="M231,259.333h3.333v3.334H231Z"/>
    <path id="Trazado_165001" data-name="Trazado 165001" d="M227.178,264.821l-2.357,2.358a6.383,6.383,0,0,0,9.024,0h0l-2.357-2.358A3.05,3.05,0,0,1,227.178,264.821Z"/>
    <path id="Trazado_165002" data-name="Trazado 165002" d="M231.294,294.333a4.669,4.669,0,0,0,4.724-4.614,4.512,4.512,0,0,0-.025-.532,5.35,5.35,0,0,0-5.287-4.854,4.67,4.67,0,0,0-4.7,5.146A5.351,5.351,0,0,0,231.294,294.333Zm-1.625-6.236a1.38,1.38,0,0,1,1.038-.43,2.046,2.046,0,0,1,1.967,1.812,1.409,1.409,0,0,1-.342,1.09,1.379,1.379,0,0,1-1.037.43,2.045,2.045,0,0,1-1.967-1.812,1.408,1.408,0,0,1,.34-1.09Z"/>
    <path id="Trazado_165003" data-name="Trazado 165003" d="M268.5,236a2.5,2.5,0,1,0-2.5-2.5A2.5,2.5,0,0,0,268.5,236Z"/>
    <path id="Trazado_165004" data-name="Trazado 165004" d="M283.5,236a2.5,2.5,0,1,0-2.5-2.5A2.5,2.5,0,0,0,283.5,236Z"/>
    <path id="Trazado_165005" data-name="Trazado 165005" d="M276,244.333a5.006,5.006,0,0,0,5-5h-3.333a1.667,1.667,0,1,1-3.334,0H271A5.006,5.006,0,0,0,276,244.333Z"/>
    <path id="Trazado_165006" data-name="Trazado 165006" d="M303.246,302.667a7.068,7.068,0,0,0,1.087-3.771V274.958H301V281h-3.631a13.316,13.316,0,0,0-3.036-5.665v-2.668H291V276a1.667,1.667,0,0,0,.488,1.179,10.028,10.028,0,0,1,2.863,5.718,10.307,10.307,0,0,1,.1,1.436,10.051,10.051,0,0,1-2.323,6.448s-17.7-3.114-17.8-3.114c0,0-7.023.029-7.193.085l-4.906,1.635a10.1,10.1,0,0,1-1.111-2.853l-.015-.065a10.186,10.186,0,0,1,.046-4.47,10.059,10.059,0,0,1,2.691-4.82,1.667,1.667,0,0,0,.488-1.179v-3.333H261v2.669a13.4,13.4,0,0,0-2.625,4.347l-4.692-.955-.4-1.82a5.463,5.463,0,0,0-.945-2.072l1.948-7.236a6.677,6.677,0,0,1,6.439-4.933h5.746a15.042,15.042,0,0,0,3.993,6.875,12.009,12.009,0,0,0,19.488-5.131c.074-.213.229-.673.586-1.744h3.8A6.674,6.674,0,0,1,301,269.333v2.917h3.333v-2.917a10.014,10.014,0,0,0-6.666-9.426V240.1a6.66,6.66,0,0,0-.013-11.547c-.132-7.182-2.08-12.841-5.807-16.82A18.837,18.837,0,0,0,277.667,206a19.959,19.959,0,0,0-10.526,2.991l1.756,2.833a16.63,16.63,0,0,1,8.77-2.491,15.6,15.6,0,0,1,11.747,4.681c2.987,3.189,4.628,7.778,4.884,13.653h-.826c-5.941-7.563-7.543-12.152-7.558-12.194a1.667,1.667,0,0,0-2.759-.652c-.107.107-10.3,10.185-22.155,13.972V226a16.512,16.512,0,0,1,5.267-12.159l-2.28-2.431a20.075,20.075,0,0,0-6.32,14.59v2.566a6.662,6.662,0,0,0,1.666,12.221v18.645a10.017,10.017,0,0,0-8.269,7.3l-1.647,6.12a5.531,5.531,0,0,0-1.425-.187h-3.083l3.968-13.177-3.191-.961L243.436,266h-2.86a13.3,13.3,0,0,0,.424-3.333,42.621,42.621,0,0,0-.081-4.8c0-.024-.007-.047-.009-.071l2.125-7.265a1.679,1.679,0,0,1,1.094-1.125l2.936,5.088a4.89,4.89,0,0,0,.393.584,5,5,0,0,0,8.271-5.579l-2.176-3.77,2.643-.28-.352-3.315-3.538.375a6.476,6.476,0,0,0-.491-3.3l1.016-.108-.352-3.314-2.229.236a4.97,4.97,0,0,0-1.024.219,6.621,6.621,0,0,0-.95-.473l-.035-.014a4.981,4.981,0,0,0,.31-2.2l-.477-5.655a5.026,5.026,0,0,0-4.978-4.58c-.142,0-.286.006-.425.019a5.006,5.006,0,0,0-4.353,3.483,7.68,7.68,0,0,0-1.042-.428,5.7,5.7,0,1,0-9.787,4.74l-.593,1.036a5.7,5.7,0,1,0,.885,10.839,7.732,7.732,0,0,0,1.089.8,5.031,5.031,0,0,0-.754,2.192,13.531,13.531,0,0,0-3.915.446,13.342,13.342,0,0,0-8.9,7.9,10,10,0,0,0-9.3,9.973v6.042h3.333v-6.042a6.675,6.675,0,0,1,5.085-6.477,13.258,13.258,0,0,0-.085,1.477v10a8.925,8.925,0,0,1-.894,3.334h-2.8a4.635,4.635,0,0,0-4.5,5.758l1.063,4.254,3.233-.809-1.062-4.254a1.288,1.288,0,0,1-.039-.315,1.3,1.3,0,0,1,1.3-1.3h37.358a2.07,2.07,0,0,1,2.033,1.631l5.212,23.452a1.3,1.3,0,0,1-.988,1.553,1.346,1.346,0,0,1-.283.031H217.261a2.081,2.081,0,0,1-2.021-1.578l-3.823-15.3-3.234.808,3.823,15.3a5.48,5.48,0,0,0,.258.77H206V306H306v-3.333ZM262.667,244.91A16.776,16.776,0,0,0,271,252.945v4.722a1.668,1.668,0,0,1-1.667,1.666h-6.666Zm24.123,18.448a8.681,8.681,0,0,1-14.11,3.7,10.4,10.4,0,0,1-2.7-4.432,5.005,5.005,0,0,0,4.35-4.956V254c.009.653,8.334.278,8.334-.428v4.1a5.006,5.006,0,0,0,4.367,4.958l-.244.733Zm7.543-4.025h-6.666A1.668,1.668,0,0,1,286,257.667V252.1a16.817,16.817,0,0,0,7.995-11.1h.338Zm0-21.666V231a3.334,3.334,0,1,1,0,6.667ZM283.75,218.826A63.772,63.772,0,0,0,291,229.912s-.02,8.584-.057,9.007a13.423,13.423,0,0,1-7.307,10.672l-.048.023a13.438,13.438,0,0,1-10.362.628l-.044-.015a13.392,13.392,0,0,1-8.767-11.093c-.054-.485-.082-7.984-.082-7.984C273.093,227.781,280.493,221.742,283.75,218.826Zm-25.565,17.289a3.317,3.317,0,0,1,.153-3.782,1.655,1.655,0,0,0,1.4.284c.424-.106.844-.222,1.263-.343v5.393h-.021l-.073,0a3.308,3.308,0,0,1-2.259-.968,3.391,3.391,0,0,1-.462-.58Zm-20.518,23.218v3.334a10.229,10.229,0,0,1-3.609,7.691,10,10,0,0,1-16.391-7.691v-.637l5-2.5v3.137H226v-3.334h-2.94l6.369-3.184,8.235,3.087C237.664,259.269,237.667,259.3,237.667,259.333Zm-8.617-9.9a4.94,4.94,0,0,0,4.754,2.011,9.925,9.925,0,0,1,3.048,3.931l-6.477-2.429-2.7-3.6a9.931,9.931,0,0,1,1.379.091Zm2.489-3.538a1.759,1.759,0,0,1,.953-.953c.128.007.256.013.385.013a7.8,7.8,0,0,0,3.556-.865,6.4,6.4,0,0,0,1.891,1.925l-4.574,2.015a1.648,1.648,0,0,1-1.262.015A1.687,1.687,0,0,1,231.539,245.893Zm8.046-4.829,2-3.5c.081-.143.156-.289.229-.435a3.1,3.1,0,0,1,1.4.214l3.831,1.527a3.135,3.135,0,0,1,1.757,4.072v.005a5.187,5.187,0,0,1-.429.911,3.148,3.148,0,0,1-3.3,1.357,3.3,3.3,0,0,1-.5-.151l-3.834-1.53a3.109,3.109,0,0,1-1.7-1.641,7.939,7.939,0,0,0,.55-.829Zm-.554,11.287a13.433,13.433,0,0,0-1.739-2.241l2.391-1.053c.154-.068.3-.143.446-.224a5.057,5.057,0,0,0-.295.774Zm13.96.076a1.674,1.674,0,0,1-3.037.407L247.4,248.4a6.523,6.523,0,0,0,2.893-1.653l2.554,4.424A1.663,1.663,0,0,1,252.991,252.427Zm-11.174-25.173a1.684,1.684,0,0,1,2.935.934l.477,5.658a1.664,1.664,0,0,1-.087.679l-.7-.277a6.434,6.434,0,0,0-1.843-.435,7.763,7.763,0,0,0-1.056-3.971l-.116-1.371A1.659,1.659,0,0,1,241.817,227.254Zm-14.733,12.354a2.364,2.364,0,1,1-.271-3.924,1.667,1.667,0,0,0,2.274-.62l2-3.5a1.668,1.668,0,0,0-.62-2.274,2.364,2.364,0,1,1,3.518-1.759,1.668,1.668,0,0,0,1.448,1.86,4.382,4.382,0,0,1,3.68,3.194c.662,2.426-1.283,4.83-2.422,6.823a4.381,4.381,0,0,1-7.27.5,1.666,1.666,0,0,0-2.337-.3Zm-3.068,10.413,2.786,3.714-9.077,4.539A10.016,10.016,0,0,1,224.016,250.021Zm-6.925,22.646a9.991,9.991,0,0,0,.389-1.411,13.531,13.531,0,0,0,1.381,1.411Zm19.468,0,.028-.1a13.487,13.487,0,0,0,2.621-3.238h3.223l-1,3.334Zm61.226,11.666H301v8.54a7.11,7.11,0,0,0-2.537-.974l-2.7-.476a13.367,13.367,0,0,0,2.019-7.09ZM267.937,291h6.25l23.7,4.182a3.771,3.771,0,0,1-.655,7.485,21.932,21.932,0,0,1-8.179-1.576l-12.431-4.972A1.662,1.662,0,0,0,276,296H264.333v-3.8Zm7.742,8.333,8.334,3.334h-9.68v-3.334Zm-15.9-7.589A13.449,13.449,0,0,0,261,293.331V296h-2.478Zm-2.161-8.812a18.007,18.007,0,0,0,.157,3.812l-1.313,4.463q-.99-4.457-1.981-8.913l3.138.618Zm.8,19.735a4.624,4.624,0,0,0,.073-2.307l-.227-1.027H271v3.334Z"/>
    <path id="Trazado_165007" data-name="Trazado 165007" d="M278.5,276a8.944,8.944,0,0,1-6.346-2.191l-2.308,2.4a12.04,12.04,0,0,0,8.654,3.12c5.082,0,7.924-2.14,9.413-3.936l-2.565-2.128c-1.034,1.246-3.06,2.731-6.848,2.731Z"/>
  </g>
</svg>
