<svg xmlns="http://www.w3.org/2000/svg" width="98.743" height="86" viewBox="0 0 98.743 86">
  <g id="Grupo_103311" data-name="Grupo 103311" transform="translate(-5235.628 9508)">
    <g id="Grupo_102931" data-name="Grupo 102931" transform="translate(5029 -9667.949)">
      <g id="Grupo_102929" data-name="Grupo 102929">
        <path id="Trazado_163890" data-name="Trazado 163890" d="M225.059,162.077H235.9V184.4h-10.84Z" fill="#cab4ef"/>
        <path id="Trazado_163891" data-name="Trazado 163891" d="M225.059,172.3H235.9v12.1h-10.84Z" fill="#be87ef"/>
        <path id="Trazado_163892" data-name="Trazado 163892" d="M276.1,162.077h10.84V184.4H276.1Z" fill="#cab4ef"/>
        <path id="Trazado_163893" data-name="Trazado 163893" d="M276.1,172.3h10.84v12.1H276.1Z" fill="#be87ef"/>
        <path id="Trazado_163894" data-name="Trazado 163894" d="M299.4,243.821H212.6a3.846,3.846,0,0,1-3.846-3.846V185.346A3.845,3.845,0,0,1,212.6,181.5H299.4a3.846,3.846,0,0,1,3.846,3.845v54.629A3.846,3.846,0,0,1,299.4,243.821Z" fill="#a183e2"/>
        <path id="Trazado_163895" data-name="Trazado 163895" d="M248.576,181.5H212.6a3.846,3.846,0,0,0-3.846,3.845v54.629a3.846,3.846,0,0,0,3.846,3.846h35.973V181.5Z" fill="#fef2a8"/>
        <path id="Trazado_163896" data-name="Trazado 163896" d="M240.039,211.426a3.511,3.511,0,0,0-5.274-1.137l-3.457,2.772-10.418-3.884a1.589,1.589,0,0,0-1.372.124,1.8,1.8,0,0,0-.087,2.979l6.806,4.848-4.791,4.412L219.5,221.3a.892.892,0,0,0-.637,1.6l1.261.928a3.325,3.325,0,0,0,3.534.255l14.9-7.925a3.51,3.51,0,0,0,1.482-4.739Z" fill="#a183e2"/>
        <g id="Grupo_102928" data-name="Grupo 102928">
          <path id="Trazado_163897" data-name="Trazado 163897" d="M294.276,197.389H256.719a1.725,1.725,0,0,1-1.725-1.725v-4.008a1.724,1.724,0,0,1,1.725-1.724h37.557A1.724,1.724,0,0,1,296,191.656v4.008A1.725,1.725,0,0,1,294.276,197.389Z" fill="#cab4ef"/>
          <path id="Trazado_163898" data-name="Trazado 163898" d="M294.276,210.374H256.719a1.725,1.725,0,0,1-1.725-1.725v-4.008a1.724,1.724,0,0,1,1.725-1.724h37.557A1.724,1.724,0,0,1,296,204.641v4.008A1.725,1.725,0,0,1,294.276,210.374Z" fill="#cab4ef"/>
          <path id="Trazado_163899" data-name="Trazado 163899" d="M294.276,223.359H256.719a1.724,1.724,0,0,1-1.725-1.724v-4.008a1.725,1.725,0,0,1,1.725-1.725h37.557A1.725,1.725,0,0,1,296,217.627v4.008a1.724,1.724,0,0,1-1.725,1.724Z" fill="#cab4ef"/>
          <path id="Trazado_163900" data-name="Trazado 163900" d="M294.276,236.344H256.719a1.724,1.724,0,0,1-1.725-1.724v-4.008a1.725,1.725,0,0,1,1.725-1.725h37.557A1.725,1.725,0,0,1,296,230.612v4.008a1.724,1.724,0,0,1-1.725,1.724Z" fill="#cab4ef"/>
          <path id="Trazado_163901" data-name="Trazado 163901" d="M238.7,197.228h-20.06a1.386,1.386,0,0,1-1.386-1.386v-4.684a1.386,1.386,0,0,1,1.386-1.386H238.7a1.386,1.386,0,0,1,1.386,1.386v4.684a1.386,1.386,0,0,1-1.386,1.386Z" fill="#cab4ef"/>
        </g>
        <path id="Trazado_163902" data-name="Trazado 163902" d="M299.4,181.5H289.383c0,.045.007.09.007.136v7.844h5.956v7.563H289.39v6.167h6.073v7.563H289.39v5.585h6.422v6.632H289.39l0,5.9h4.76a1.415,1.415,0,0,1,1.414,1.4l.063,4.6a1.149,1.149,0,0,1-1.145,1.165l-37.36.135a1.589,1.589,0,0,1-1.595-1.6l.03-3.034h-7.332v12.282H299.4a3.845,3.845,0,0,0,3.845-3.846V185.346A3.844,3.844,0,0,0,299.4,181.5Z" fill="#9762e2"/>
        <path id="Trazado_163903" data-name="Trazado 163903" d="M294.276,228.887h-4.948a3.282,3.282,0,0,1-3.22,2.652H254.994v3.081a1.724,1.724,0,0,0,1.725,1.724h37.557A1.724,1.724,0,0,0,296,234.62v-4.008A1.725,1.725,0,0,0,294.276,228.887Z" fill="#be87ef"/>
        <path id="Trazado_163904" data-name="Trazado 163904" d="M294.276,215.9H289.39v7.457h4.886A1.725,1.725,0,0,0,296,221.634v-4.008a1.724,1.724,0,0,0-1.725-1.724Z" fill="#be87ef"/>
        <path id="Trazado_163905" data-name="Trazado 163905" d="M294.276,202.917H289.39v7.457h4.886A1.725,1.725,0,0,0,296,208.649v-4.008A1.724,1.724,0,0,0,294.276,202.917Z" fill="#be87ef"/>
        <path id="Trazado_163906" data-name="Trazado 163906" d="M294.276,189.932H289.39v7.457h4.886A1.725,1.725,0,0,0,296,195.664v-4.008a1.724,1.724,0,0,0-1.725-1.724Z" fill="#be87ef"/>
        <path id="Trazado_163907" data-name="Trazado 163907" d="M212.6,243.821h35.974V231.539H212.038a3.281,3.281,0,0,1-3.281-3.281v11.717a3.845,3.845,0,0,0,3.845,3.846Z" fill="#eeb6a8"/>
      </g>
      <g id="Grupo_102930" data-name="Grupo 102930">
        <path id="Trazado_163908" data-name="Trazado 163908" d="M299.4,179.373H289.069v-17.3a2.128,2.128,0,0,0-4.257,0v17.3h-6.584v-17.3a2.128,2.128,0,0,0-4.256,0v17.3H238.027v-17.3a2.128,2.128,0,0,0-4.256,0v17.3h-6.584v-17.3a2.128,2.128,0,0,0-4.256,0v17.3H212.6a5.981,5.981,0,0,0-5.974,5.973v54.629a5.981,5.981,0,0,0,5.974,5.974H299.4a5.981,5.981,0,0,0,5.974-5.974V185.346a5.981,5.981,0,0,0-5.974-5.973Zm-88.512,60.6V185.346a1.719,1.719,0,0,1,1.717-1.717H247.07v58.064H212.6a1.719,1.719,0,0,1-1.717-1.718Zm90.23,0a1.72,1.72,0,0,1-1.718,1.718H249.624V183.629H299.4a1.719,1.719,0,0,1,1.718,1.717Z"/>
        <path id="Trazado_163909" data-name="Trazado 163909" d="M240.44,230.705H217.609a1.277,1.277,0,0,0,0,2.554H240.44a1.277,1.277,0,0,0,0-2.554Z"/>
        <path id="Trazado_163910" data-name="Trazado 163910" d="M241.171,210.834a4.788,4.788,0,0,0-7.205-1.541l-2.891,2.319-9.739-3.631a2.858,2.858,0,0,0-2.472.223,3.006,3.006,0,0,0-1.452,2.477,3.072,3.072,0,0,0,1.278,2.639l5.524,3.935-3.2,2.946-1.358-.166a2.169,2.169,0,0,0-1.548,3.9l1.261.927a4.621,4.621,0,0,0,4.89.354l14.889-7.921a4.793,4.793,0,0,0,2.022-6.462Zm-3.214,4.2-14.9,7.926a2.054,2.054,0,0,1-2.176-.157l-.079-.058.488.059a1.27,1.27,0,0,0,1.019-.328l4.791-4.412a1.276,1.276,0,0,0-.124-1.979l-6.806-4.848a.527.527,0,0,1-.208-.455.466.466,0,0,1,.208-.387.31.31,0,0,1,.272-.024l10.418,3.884a1.276,1.276,0,0,0,1.245-.2l3.445-2.762a2.234,2.234,0,1,1,2.4,3.742Z"/>
        <path id="Trazado_163911" data-name="Trazado 163911" d="M294.276,188.655H256.719a3,3,0,0,0-3,3v4.008a3.006,3.006,0,0,0,3,3h37.557a3.006,3.006,0,0,0,3-3v-4.008A3,3,0,0,0,294.276,188.655Zm-38.005,7.009v-4.008a.448.448,0,0,1,.448-.447h27.215v4.9H256.719a.449.449,0,0,1-.448-.448Zm38.453,0a.449.449,0,0,1-.448.448h-7.788v-4.9h7.788a.448.448,0,0,1,.448.447Z"/>
        <path id="Trazado_163912" data-name="Trazado 163912" d="M294.276,201.64H256.719a3.006,3.006,0,0,0-3,3v4.009a3.006,3.006,0,0,0,3,3h37.557a3.006,3.006,0,0,0,3-3v-4.009a3.006,3.006,0,0,0-3-3Zm-38.005,7.01v-4.009a.448.448,0,0,1,.448-.447h27.215v4.9H256.719A.448.448,0,0,1,256.271,208.65Zm38.453,0a.448.448,0,0,1-.448.447h-7.788v-4.9h7.788a.449.449,0,0,1,.448.448Z"/>
        <path id="Trazado_163913" data-name="Trazado 163913" d="M294.276,214.625H256.719a3.006,3.006,0,0,0-3,3v4.007a3.006,3.006,0,0,0,3,3h37.557a3.006,3.006,0,0,0,3-3v-4.007a3.006,3.006,0,0,0-3-3Zm-38.005,7.01v-4.008a.449.449,0,0,1,.448-.448h27.215v4.9H256.719a.448.448,0,0,1-.448-.447Zm38.453,0a.448.448,0,0,1-.448.447h-7.788v-4.9h7.788a.449.449,0,0,1,.448.448Z"/>
        <path id="Trazado_163914" data-name="Trazado 163914" d="M294.276,227.611H256.719a3,3,0,0,0-3,3v4.008a3,3,0,0,0,3,3h37.557a3,3,0,0,0,3-3v-4.008A3,3,0,0,0,294.276,227.611Zm-38.005,7.009v-4.008a.449.449,0,0,1,.448-.448h27.215v4.9H256.719a.448.448,0,0,1-.448-.447Zm38.453,0a.448.448,0,0,1-.448.447h-7.788v-4.9h7.788a.449.449,0,0,1,.448.448Z"/>
        <path id="Trazado_163915" data-name="Trazado 163915" d="M218.636,198.505H238.7a2.666,2.666,0,0,0,2.663-2.663v-4.684a2.666,2.666,0,0,0-2.663-2.663h-20.06a2.665,2.665,0,0,0-2.662,2.663v4.684A2.664,2.664,0,0,0,218.636,198.505Zm-.109-7.347a.109.109,0,0,1,.109-.109H238.7a.109.109,0,0,1,.109.109v4.684a.109.109,0,0,1-.109.109h-20.06a.109.109,0,0,1-.109-.109Z"/>
        <path id="Trazado_163916" data-name="Trazado 163916" d="M242.358,219.609a1.277,1.277,0,0,0-1.277,1.277v3.224a1.277,1.277,0,0,0,2.554,0v-3.224A1.277,1.277,0,0,0,242.358,219.609Z"/>
        <path id="Trazado_163917" data-name="Trazado 163917" d="M234.91,224.11v3.225a1.277,1.277,0,0,0,2.554,0V224.11a1.277,1.277,0,1,0-2.554,0Z"/>
        <path id="Trazado_163918" data-name="Trazado 163918" d="M230.747,205.315V202.09a1.277,1.277,0,0,0-2.554,0v3.225a1.277,1.277,0,0,0,2.554,0Z"/>
      </g>
    </g>
  </g>
</svg>
