<svg xmlns="http://www.w3.org/2000/svg" width="59.694" height="80" viewBox="0 0 59.694 80">
  <g id="Grupo_103470" data-name="Grupo 103470" transform="translate(-287 -5049)">
    <g id="Grupo_103354" data-name="Grupo 103354" transform="translate(49.42 5041.738)">
      <circle id="Elipse_5324" data-name="Elipse 5324" cx="29.847" cy="29.847" r="29.847" transform="translate(237.58 17.415)" fill="#ffdc72"/>
      <g id="_02_copy_2" data-name=" 02 copy 2">
        <path id="Trazado_164662" data-name="Trazado 164662" d="M244.76,77.262V67.6a1.666,1.666,0,0,1,1.667-1.666H285.76a1.666,1.666,0,0,1,1.667,1.666v9.667a3.334,3.334,0,0,1-3.334,3.333h-36A3.333,3.333,0,0,1,244.76,77.262Z" fill="#a031fa"/>
        <rect id="Rectángulo_26391" data-name="Rectángulo 26391" width="42.667" height="9.333" rx="1.667" transform="translate(244.76 56.595)" fill="#e444fd"/>
        <rect id="Rectángulo_26392" data-name="Rectángulo 26392" width="42.667" height="9.333" rx="1.667" transform="translate(244.76 47.262)" fill="#a031fa"/>
        <rect id="Rectángulo_26393" data-name="Rectángulo 26393" width="42.667" height="9.333" rx="1.667" transform="translate(244.76 37.929)" fill="#e444fd"/>
        <path id="Trazado_164663" data-name="Trazado 164663" d="M248.093,27.262h36a3.334,3.334,0,0,1,3.334,3.333v5.667a1.667,1.667,0,0,1-1.667,1.667H246.427a1.667,1.667,0,0,1-1.667-1.667V30.595A3.333,3.333,0,0,1,248.093,27.262Z" fill="#a031fa"/>
        <path id="Trazado_164664" data-name="Trazado 164664" d="M278.093,31.262h5.334v2.667h-5.334Z"/>
        <path id="Trazado_164665" data-name="Trazado 164665" d="M248.76,11.262v2.667a2.666,2.666,0,0,0,2.667,2.666h1.333a2.666,2.666,0,0,0,2.667-2.666H276.76a2.666,2.666,0,0,0,2.667,2.666h1.333a2.666,2.666,0,0,0,2.667-2.666V11.262A2.667,2.667,0,0,0,280.76,8.6H251.427A2.667,2.667,0,0,0,248.76,11.262Z" fill="#3135fa"/>
        <path id="Trazado_164666" data-name="Trazado 164666" d="M255.427,13.929h4V27.262h-4Z" fill="#4d4d4d"/>
        <path id="Trazado_164667" data-name="Trazado 164667" d="M272.76,13.929h4V27.262h-4Z" fill="#4d4d4d"/>
        <path id="Trazado_164668" data-name="Trazado 164668" d="M275.427,69.929h2.666V72.6h-2.666Z"/>
        <path id="Trazado_164669" data-name="Trazado 164669" d="M280.76,69.929h2.667V72.6H280.76Z"/>
        <path id="Trazado_164670" data-name="Trazado 164670" d="M288.427,61.929h-2.334v-20h2.334a1.666,1.666,0,0,1,1.666,1.666V60.262A1.666,1.666,0,0,1,288.427,61.929Z" fill="#3135fa"/>
        <path id="Trazado_164671" data-name="Trazado 164671" d="M256.427,51.262H251.76a1.667,1.667,0,0,1-1.667-1.667V37.929l4-4,4,4V49.6A1.666,1.666,0,0,1,256.427,51.262Z" fill="#3135fa"/>
        <circle id="Elipse_5325" data-name="Elipse 5325" cx="4" cy="4" r="4" transform="translate(248.76 77.929)" fill="#4d4d4d"/>
        <circle id="Elipse_5326" data-name="Elipse 5326" cx="4" cy="4" r="4" transform="translate(275.427 77.929)" fill="#4d4d4d"/>
        <path id="Trazado_164672" data-name="Trazado 164672" d="M288.76,40.614V39.6a2.98,2.98,0,0,0-.507-1.666,2.981,2.981,0,0,0,.507-1.667V30.595a4.671,4.671,0,0,0-4.667-4.666h-6V17.7a3.993,3.993,0,0,0,1.334.229h1.333a4,4,0,0,0,4-4V11.262a4,4,0,0,0-4-4H258.093V9.929H280.76a1.334,1.334,0,0,1,1.333,1.333v2.667a1.334,1.334,0,0,1-1.333,1.333h-1.333a1.335,1.335,0,0,1-1.334-1.333A1.333,1.333,0,0,0,276.76,12.6H255.427a1.334,1.334,0,0,0-1.334,1.334,1.334,1.334,0,0,1-1.333,1.333h-1.333a1.335,1.335,0,0,1-1.334-1.333V11.262a1.335,1.335,0,0,1,1.334-1.333h4V7.262h-4a4,4,0,0,0-4,4v2.667a4,4,0,0,0,4,4h1.333a3.983,3.983,0,0,0,1.333-.229v8.229h-6a4.671,4.671,0,0,0-4.666,4.666v5.667a2.98,2.98,0,0,0,.506,1.667,2.979,2.979,0,0,0-.506,1.666v6a2.98,2.98,0,0,0,.506,1.667,2.98,2.98,0,0,0-.506,1.667v6a2.977,2.977,0,0,0,.506,1.666,2.983,2.983,0,0,0-.506,1.667v6a2.98,2.98,0,0,0,.506,1.667,2.979,2.979,0,0,0-.506,1.666v9.667a4.673,4.673,0,0,0,4,4.619v.048a5.333,5.333,0,1,0,10.666,0h16a5.334,5.334,0,0,0,10.667,0v-.048a4.673,4.673,0,0,0,4-4.619v-2h-2.667v2a2,2,0,0,1-2,2h-.05a5.332,5.332,0,0,0-9.235,0h-17.43a5.331,5.331,0,0,0-9.235,0h-.05a2,2,0,0,1-2-2V67.6a.334.334,0,0,1,.334-.333H285.76a.333.333,0,0,1,.333.333v5h2.667v-5a2.98,2.98,0,0,0-.507-1.666,2.981,2.981,0,0,0,.507-1.667V63.244a3.005,3.005,0,0,0,2.667-2.982V43.6A3,3,0,0,0,288.76,40.614Zm-9.333,38.648a2.667,2.667,0,1,1-2.667,2.667A2.666,2.666,0,0,1,279.427,79.262Zm-26.667,0a2.667,2.667,0,1,1-2.667,2.667A2.667,2.667,0,0,1,252.76,79.262Zm-6.667-24.333v-6a.335.335,0,0,1,.334-.334h2.333v1a3,3,0,0,0,3,3h4.667a3,3,0,0,0,3-3v-1H284.76v6.667H246.427A.334.334,0,0,1,246.093,54.929Zm40-14.334a1.333,1.333,0,0,0-1.333,1.334v4H259.427V39.262H285.76a.333.333,0,0,1,.333.333Zm-12-25.333h1.334V25.929h-1.334Zm-13.333,0h10.667V25.929H260.76Zm-4,0h1.333V25.929H256.76Zm2.667,13.333h24.666a2,2,0,0,1,2,2v5.667a.333.333,0,0,1-.333.333H258.646l-3.2-3.2C255.648,30.7,257.356,28.595,259.427,28.595Zm-2.667,9.886V49.6a.333.333,0,0,1-.333.334H251.76a.333.333,0,0,1-.333-.334V38.481l2.666-2.667Zm-10.667-7.886a2,2,0,0,1,2-2h6.369a8.836,8.836,0,0,0-1.685,4.765L249.541,36.6h-3.114a.334.334,0,0,1-.334-.333Zm0,9a.334.334,0,0,1,.334-.333h2.333v6.667h-2.333a.334.334,0,0,1-.334-.334Zm.334,25a.334.334,0,0,1-.334-.333v-6a.334.334,0,0,1,.334-.333H284.76v4a1.333,1.333,0,0,0,1.333,1.333v1a.333.333,0,0,1-.333.333Zm42.333-4.333a.333.333,0,0,1-.333.333h-1V43.262h1a.333.333,0,0,1,.333.333Z"/>
      </g>
    </g>
  </g>
</svg>
