<svg xmlns="http://www.w3.org/2000/svg" width="100" height="89.799" viewBox="0 0 100 89.799">
  <g id="Grupo_103465" data-name="Grupo 103465" transform="translate(-200.321 -206)">
    <g id="Grupo_103451" data-name="Grupo 103451" transform="translate(239.19 269.229)">
      <path id="Trazado_164935" data-name="Trazado 164935" d="M243.6,276.412h21.711v17H243.6Z" transform="translate(-243.605 -276.412)" fill="#dae7ef"/>
    </g>
    <g id="Grupo_103452" data-name="Grupo 103452" transform="translate(246.073 269.229)">
      <path id="Trazado_164936" data-name="Trazado 164936" d="M251.27,276.412H266.1v17H251.27Z" transform="translate(-251.27 -276.412)" fill="#c1d5e4"/>
    </g>
    <g id="Grupo_103453" data-name="Grupo 103453" transform="translate(201.783 254.628)">
      <path id="Trazado_164937" data-name="Trazado 164937" d="M203.9,260.152l-1.949,4.209v9.14a3.9,3.9,0,0,0,3.9,3.9h89.279a3.9,3.9,0,0,0,3.9-3.9v-9.14l-1.95-4.209Z" transform="translate(-201.949 -260.152)" fill="#dae7ef"/>
    </g>
    <g id="Grupo_103454" data-name="Grupo 103454" transform="translate(201.783 254.628)">
      <path id="Trazado_164938" data-name="Trazado 164938" d="M297.075,260.152h-6.851V264.7a3.9,3.9,0,0,1-3.9,3.9H201.949v4.9a3.9,3.9,0,0,0,3.9,3.9h89.279a3.9,3.9,0,0,0,3.9-3.9v-9.14Z" transform="translate(-201.949 -260.152)" fill="#c1d5e4"/>
    </g>
    <g id="Grupo_103455" data-name="Grupo 103455" transform="translate(201.783 207.462)">
      <path id="Trazado_164939" data-name="Trazado 164939" d="M295.126,207.628H205.847a3.9,3.9,0,0,0-3.9,3.9V259h97.075V211.526A3.9,3.9,0,0,0,295.126,207.628Z" transform="translate(-201.949 -207.628)" fill="#61a2f9"/>
    </g>
    <g id="Grupo_103456" data-name="Grupo 103456" transform="translate(290.058 207.462)">
      <path id="Trazado_164940" data-name="Trazado 164940" d="M305.154,207.628h-4.9V259h8.8V211.526a3.9,3.9,0,0,0-3.9-3.9Z" transform="translate(-300.252 -207.628)" fill="#4a81f6"/>
    </g>
    <g id="Grupo_103457" data-name="Grupo 103457" transform="translate(245.099 217.388)">
      <path id="Trazado_164941" data-name="Trazado 164941" d="M263.378,225.442l-11.434-6.6a1.172,1.172,0,0,0-1.758,1.015v13.2a1.172,1.172,0,0,0,1.758,1.015l11.434-6.6A1.172,1.172,0,0,0,263.378,225.442Z" transform="translate(-250.186 -218.681)" fill="#2b4d66"/>
    </g>
    <g id="Grupo_103458" data-name="Grupo 103458" transform="translate(220.964 238.894)">
      <circle id="Elipse_5375" data-name="Elipse 5375" cx="4.144" cy="4.144" r="4.144" fill="#407093"/>
    </g>
    <g id="Grupo_103459" data-name="Grupo 103459" transform="translate(221.273 239.203)">
      <path id="Trazado_164942" data-name="Trazado 164942" d="M229.058,242.975a4.144,4.144,0,0,1-5.4,5.4,4.144,4.144,0,1,0,5.4-5.4Z" transform="translate(-223.653 -242.975)" fill="#2b4d66"/>
    </g>
    <g id="Grupo_103460" data-name="Grupo 103460" transform="translate(246.754 229.229)">
      <path id="Trazado_164943" data-name="Trazado 164943" d="M292.255,244.66a5.387,5.387,0,0,0-1.452.043.612.612,0,0,1-.678-.78,5.346,5.346,0,0,0-5.133-6.836h-.006a.617.617,0,0,1-.621-.533,5.344,5.344,0,0,0-10.621,1.181.616.616,0,0,1-.748.667,5.406,5.406,0,0,0-1.139-.121,5.333,5.333,0,0,0-4.1,1.914.62.62,0,0,1-.943,0,5.345,5.345,0,0,0-9.442,3.431,5.432,5.432,0,0,0,.078.911l-.078,0a5.345,5.345,0,1,0,2.725,9.942,5.34,5.34,0,0,0,6.44-.516,5.339,5.339,0,0,0,5.177.976,5.345,5.345,0,0,0,9.167-.039,5.351,5.351,0,0,0,6.292-2.058,5.344,5.344,0,1,0,5.081-8.179Z" transform="translate(-252.029 -231.868)" fill="#f6f9f9"/>
    </g>
    <g id="Grupo_103462" data-name="Grupo 103462" transform="translate(271.434 229.229)">
      <g id="Grupo_103461" data-name="Grupo 103461" transform="translate(0)">
        <path id="Trazado_164944" data-name="Trazado 164944" d="M299.8,249.388a5.345,5.345,0,0,0-6.2-4.685.612.612,0,0,1-.679-.78,5.346,5.346,0,0,0-5.133-6.836h-.006a.617.617,0,0,1-.621-.533,5.345,5.345,0,0,0-5.851-4.659,5.276,5.276,0,0,0-1.806.523,5.348,5.348,0,0,1,2.943,4.136.616.616,0,0,0,.621.533h.006a5.349,5.349,0,0,1,5.133,6.836.612.612,0,0,0,.678.78,5.344,5.344,0,0,1,3.24,10.067,5.344,5.344,0,0,0,7.671-5.383Z" transform="translate(-279.512 -231.868)" fill="#dae7ef"/>
      </g>
    </g>
    <g id="Grupo_103463" data-name="Grupo 103463" transform="translate(246.856 250.284)">
      <path id="Trazado_164945" data-name="Trazado 164945" d="M294.6,255.315H254.482a2.339,2.339,0,0,0-2.322,2.619l4.752,39.374a2.34,2.34,0,0,0,2.322,2.059h30.614a2.34,2.34,0,0,0,2.322-2.059l4.751-39.374a2.338,2.338,0,0,0-2.321-2.619Z" transform="translate(-252.143 -255.315)" fill="#dd5790"/>
    </g>
    <path id="Trazado_164946" data-name="Trazado 164946" d="M295.1,255.315h-3.339l-4.424,36.66a2.338,2.338,0,0,1-2.322,2.059h-28l.4,3.274a2.34,2.34,0,0,0,2.322,2.059h30.614a2.34,2.34,0,0,0,2.322-2.059l4.751-39.374a2.338,2.338,0,0,0-2.321-2.619Z" transform="translate(-5.783 -5.031)" fill="#da387d"/>
    <ellipse id="Elipse_5376" data-name="Elipse 5376" cx="11.657" cy="8.356" rx="11.657" ry="8.356" transform="translate(257.733 261.904)" fill="#f6f9f9"/>
    <g id="Grupo_103464" data-name="Grupo 103464" transform="translate(200.321 206)">
      <path id="Trazado_164947" data-name="Trazado 164947" d="M251.19,235.531a2.626,2.626,0,0,0,1.316-.357l11.441-6.606a2.632,2.632,0,0,0,0-4.558l-11.441-6.6a2.632,2.632,0,0,0-3.948,2.279v13.21a2.644,2.644,0,0,0,2.632,2.636Zm.292-15.34,10.564,6.1-10.564,6.1Z" transform="translate(-205.242 -207.127)"/>
      <circle id="Elipse_5377" data-name="Elipse 5377" cx="1.875" cy="1.875" r="1.875" transform="translate(58.703 34.955)"/>
      <circle id="Elipse_5378" data-name="Elipse 5378" cx="1.875" cy="1.875" r="1.875" transform="translate(66.441 37.047)"/>
      <path id="Trazado_164948" data-name="Trazado 164948" d="M296.677,206H218.615a1.461,1.461,0,1,0,0,2.923h78.062a2.44,2.44,0,0,1,2.436,2.437v22.434a1.462,1.462,0,0,0,2.924,0V211.36a5.367,5.367,0,0,0-5.36-5.36Z" transform="translate(-202.038 -206)"/>
      <path id="Trazado_164949" data-name="Trazado 164949" d="M298.858,239.988a1.462,1.462,0,0,0-1.462,1.462v15.925H292.57l.518-4.3a3.805,3.805,0,0,0-.639-2.6,6.8,6.8,0,0,0-5.317-9.911q-.323-.034-.647-.037a6.746,6.746,0,0,0,.04-.738,6.817,6.817,0,0,0-6.107-6.77,6.807,6.807,0,0,0-13.341.425,6.986,6.986,0,0,0-.083.745c-.136-.008-.273-.012-.409-.012a6.79,6.79,0,0,0-4.57,1.762,6.807,6.807,0,0,0-11.365,4.649,6.86,6.86,0,0,0-2.32.985H230.519a5.605,5.605,0,0,0-10.823,0H215.55a1.462,1.462,0,1,0,0,2.924H219.7a5.6,5.6,0,0,0,10.822,0h15.347a6.787,6.787,0,0,0,.228,5.929,3.8,3.8,0,0,0-.671,2.65l.518,4.3h-42.7V211.36a2.44,2.44,0,0,1,2.436-2.437h3.893a1.461,1.461,0,1,0,0-2.923h-3.893a5.366,5.366,0,0,0-5.36,5.36v56.616a5.366,5.366,0,0,0,5.36,5.36h32.046v11.426h-4.413a1.462,1.462,0,1,0,0,2.924H249.6l.576,4.767a3.8,3.8,0,0,0,3.773,3.346h30.614a3.8,3.8,0,0,0,3.774-3.346l2.307-19.116h4.317a5.367,5.367,0,0,0,5.361-5.36V241.45a1.463,1.463,0,0,0-1.463-1.462Zm-46.764,3.369a1.472,1.472,0,0,0,1.524-1.708,3.882,3.882,0,0,1,6.8-3.155,2.094,2.094,0,0,0,3.184,0,3.9,3.9,0,0,1,3.807-1.3,2.093,2.093,0,0,0,2.513-2.239,3.916,3.916,0,0,1,3.46-4.242,3.865,3.865,0,0,1,4.256,3.382,2.082,2.082,0,0,0,2.075,1.817h0a3.885,3.885,0,0,1,3.729,4.967,2.086,2.086,0,0,0,2.323,2.63,3.876,3.876,0,0,1,4.2,5.377,3.775,3.775,0,0,0-.654-.061H249.2a3.768,3.768,0,0,0-.612.055,3.878,3.878,0,0,1,3.511-5.52Zm24.916,49.518.511-15c.278-.169.55-.345.811-.532a9.779,9.779,0,0,0,3.4-4.074l-1.314,19.6Zm-18.919,0-1.315-19.6a9.786,9.786,0,0,0,3.4,4.073c.261.188.533.364.811.532l.511,15Zm11.163-15.737c-5.609,0-10.172-3.085-10.172-6.878s4.563-6.878,10.172-6.878,10.172,3.086,10.172,6.878S274.864,277.138,269.255,277.138Zm1.462-16.617v-8.774h4.769l-.332,9.751a16.537,16.537,0,0,0-4.437-.977Zm-2.924,0a16.536,16.536,0,0,0-4.437.977l-.332-9.751h4.769v8.774Zm-7.695-8.774.383,11.221c-.1.068-.2.136-.3.207a9.371,9.371,0,0,0-3.738,5.042l-1.1-16.471Zm3.862,27.488a16.683,16.683,0,0,0,3.833.765v12.875h-3.368Zm6.756.765a16.692,16.692,0,0,0,3.833-.765l-.464,13.64h-3.368Zm11.354-11.783a9.371,9.371,0,0,0-3.738-5.042c-.1-.071-.2-.139-.3-.207l.383-11.221h4.763Zm-56.963-22.5a2.682,2.682,0,1,1,2.681-2.682A2.685,2.685,0,0,1,225.108,245.72Zm-21.863,22.257V260.3h43.049l1.221,10.114H205.681A2.439,2.439,0,0,1,203.245,267.976Zm37.407,16.786V273.337h7.215l1.379,11.426Zm12.425,7.34-4.751-39.374a.878.878,0,0,1,.87-.982H252.4l2.757,41.129h-1.213a.878.878,0,0,1-.871-.772Zm32.356,0a.878.878,0,0,1-.871.772h-1.213l2.757-41.129h3.208a.878.878,0,0,1,.87.982Zm9.527-21.69H291l1.221-10.114h5.18v7.678A2.439,2.439,0,0,1,294.96,270.413Z" transform="translate(-200.321 -206)"/>
    </g>
  </g>
</svg>
