<svg xmlns="http://www.w3.org/2000/svg" width="89.293" height="45.954" viewBox="0 0 89.293 45.954">
  <g id="Grupo_102695" data-name="Grupo 102695" transform="translate(-172.447 -213)">
    <path id="Trazado_163513" data-name="Trazado 163513" d="M188.412,270.259l2.65,7.952a1.046,1.046,0,0,0,.993.716h59.92a11.557,11.557,0,0,0,11.557-11.557v-2.889h2.889v-2.889a2.889,2.889,0,0,0-2.889-2.889H220.193a2.889,2.889,0,0,0-2.889,2.89v2.889Z" transform="translate(-7.434 -21.282)" fill="#e4f1fb"/>
    <path id="Trazado_163514" data-name="Trazado 163514" d="M318.774,261.592a2.889,2.889,0,0,0-2.89-2.889H312.4a2.889,2.889,0,0,1,2.889,2.889v2.889H312.4v2.889a11.557,11.557,0,0,1-11.556,11.557h3.487a11.557,11.557,0,0,0,11.557-11.557v-2.889h2.889Z" transform="translate(-59.787 -21.282)" fill="#c9e3f7"/>
    <path id="Trazado_163515" data-name="Trazado 163515" d="M264.668,227.01l-5.039-5.038a1.046,1.046,0,0,0-1.48,0L256,224.121v7.223h8.668Z" transform="translate(-38.907 -4.035)" fill="#c0e3f0"/>
    <path id="Trazado_163516" data-name="Trazado 163516" d="M260.627,221.972a1.046,1.046,0,0,0-1.48,0l-1,1,4.035,4.034v4.335h3.488V227.01Z" transform="translate(-39.904 -4.035)" fill="#a3cfe3"/>
    <path id="Trazado_163517" data-name="Trazado 163517" d="M257.052,243.724H222.381a2.889,2.889,0,0,0-2.89,2.889v5.777a2.89,2.89,0,0,1-2.89,2.89H180.487a2.89,2.89,0,0,1-2.89-2.89V249.5l7.223-8.668H190.6l26-5.778,16.821-8.411a1.046,1.046,0,0,1,1.006.039l13.954,8.372a8.668,8.668,0,0,1,8.668,8.668Z" transform="translate(-2.398 -6.302)" fill="#3bcd92"/>
    <path id="Trazado_163518" data-name="Trazado 163518" d="M196.893,243.224h-5.778v-10.51a1.046,1.046,0,0,1,1.046-1.047h4.732Z" transform="translate(-8.693 -8.692)" fill="#c0e3f0"/>
    <rect id="Rectángulo_26000" data-name="Rectángulo 26000" width="4.796" height="11.558" transform="translate(183.405 222.975)" fill="#a3cfe3"/>
    <g id="Grupo_102791" data-name="Grupo 102791" transform="translate(188.201 214.308)">
      <circle id="Elipse_5301" data-name="Elipse 5301" cx="2.889" cy="2.889" r="2.889" transform="translate(23.114 0)" fill="#57555c"/>
      <path id="Trazado_163519" data-name="Trazado 163519" d="M201.929,242.482h26v4.732a1.047,1.047,0,0,1-1.047,1.046H201.929Z" transform="translate(-201.929 -228.036)" fill="#57555c"/>
    </g>
    <path id="Trazado_163520" data-name="Trazado 163520" d="M243.153,242.482v4.732a1.047,1.047,0,0,1-1.047,1.046h3.489a1.047,1.047,0,0,0,1.046-1.046v-4.732Z" transform="translate(-32.437 -13.728)" fill="#4b494f"/>
    <g id="Grupo_102792" data-name="Grupo 102792" transform="translate(210.716 220.232)">
      <path id="Trazado_163521" data-name="Trazado 163521" d="M246.954,261.592v5.777a2.889,2.889,0,0,1-2.889,2.89h3.488a2.889,2.889,0,0,0,2.889-2.89v-5.777a2.889,2.889,0,0,1,2.89-2.889h-3.488A2.889,2.889,0,0,0,246.954,261.592Z" transform="translate(-244.065 -241.514)" fill="#36a882"/>
      <path id="Trazado_163522" data-name="Trazado 163522" d="M295.823,235.056l-13.953-8.372a1.047,1.047,0,0,0-1.007-.039l-1.388.695,12.86,7.716A8.668,8.668,0,0,1,301,243.723h3.488A8.667,8.667,0,0,0,295.823,235.056Z" transform="translate(-260.554 -226.535)" fill="#36a882"/>
    </g>
    <path id="Trazado_163523" data-name="Trazado 163523" d="M260.432,241.892H260.3v-1.581a4.2,4.2,0,0,0-4.2-4.2h-.224a9.989,9.989,0,0,0-9.509-8.659l-14.152-8.49a1.309,1.309,0,0,0-1.258-.048l-4.935,2.468-5.112-5.112a1.309,1.309,0,0,0-1.85,0l-.665.666a4.2,4.2,0,1,0-2.607,4.147V226.5l-1.889.945H189.509v-7.359a1.308,1.308,0,1,0-2.616,0v1.581h-4.47a1.308,1.308,0,0,0-1.308,1.308v11.083l-6.528,7.834h-.831a1.308,1.308,0,1,0,0,2.616h.136v1.581a4.2,4.2,0,0,0,4.2,4.2h1.947l1.137,3.412,0,.01,1.45,4.351a1.309,1.309,0,0,0,1.241.895H228.65a1.308,1.308,0,1,0,0-2.616H184.81l-.573-1.717h12.631a1.308,1.308,0,1,0,0-2.616h-13.5l-.573-1.718H214.2a4.2,4.2,0,0,0,4.2-4.2v-1.581H254.79v1.581a10.261,10.261,0,0,1-10.249,10.249H233.915a1.308,1.308,0,0,0,0,2.616h10.626a12.88,12.88,0,0,0,12.866-12.866v-1.581h3.025a1.308,1.308,0,1,0,0-2.616Zm-2.752-1.581v1.581H218.4v-1.581a1.583,1.583,0,0,1,1.582-1.581H256.1A1.583,1.583,0,0,1,257.679,240.311Zm-26.2-18.733,9.781,5.868H228.65a1.308,1.308,0,1,0,0,2.616h17.335a7.37,7.37,0,0,1,7.241,6.052H219.983a4.2,4.2,0,0,0-4.2,4.2v1.581H177.991l5.043-6.052H214.2a1.308,1.308,0,0,0,1.308-1.308v-4.971l10.856-5.427,0,0Zm-17.279-2.8a1.581,1.581,0,1,1,1.582-1.581A1.583,1.583,0,0,1,214.2,218.778Zm4.2,1.85,1.581-1.581,3.571,3.57-5.152,2.576Zm-22.841,9.433v.137a1.308,1.308,0,1,0,2.616,0v-.137h6.052v.137a1.308,1.308,0,0,0,2.616,0v-.137H212.9v3.163H189.509v-3.163Zm-11.831-5.778h3.162v8.941H183.73Zm32.055,21.805a1.583,1.583,0,0,1-1.581,1.582H178.089a1.583,1.583,0,0,1-1.581-1.582v-1.58h39.278v1.58Z"/>
  </g>
</svg>
