<svg xmlns="http://www.w3.org/2000/svg" width="80.213" height="86" viewBox="0 0 80.213 86">
  <g id="Grupo_102693" data-name="Grupo 102693" transform="translate(-215.893 -213)">
    <g id="Grupo_102745" data-name="Grupo 102745">
      <path id="Trazado_163477" data-name="Trazado 163477" d="M217.4,283.764a.859.859,0,0,0,0,1.216l12.509,12.508a.859.859,0,0,0,1.216,0l3.081-3.081c2.618-2.619,1.085-11.637,9.115-19.668l-8.448-8.448Z" fill="#017297"/>
      <path id="Trazado_163478" data-name="Trazado 163478" d="M271.16,249.7l-8,8a38.566,38.566,0,0,0,20.775,11.022,1.041,1.041,0,0,0,1.207-.864l1.43-9.1a1.041,1.041,0,0,0-.852-1.185A27.486,27.486,0,0,1,271.16,249.7Z" fill="#017297"/>
      <path id="Trazado_163479" data-name="Trazado 163479" d="M285.723,257.561A27.493,27.493,0,0,1,271.16,249.7l-2.71,2.709c.556.507.9.818.917.833s.5.427.748.627a34.561,34.561,0,0,0,15.381,6.922,1.131,1.131,0,0,1,.7.385l.381-2.425A1.041,1.041,0,0,0,285.723,257.561Z" fill="#025f80"/>
      <path id="Trazado_163480" data-name="Trazado 163480" d="M265.253,239.267l7.914-7.914,4.581,4.581-7.913,7.914Z" fill="#017297"/>
      <path id="Trazado_163481" data-name="Trazado 163481" d="M267.665,241.679l7.914-7.914,2.17,2.17-7.914,7.914Z" fill="#025f80"/>
      <path id="Trazado_163482" data-name="Trazado 163482" d="M261.317,239.851l8.251,8.252,4.16-4.16a1.139,1.139,0,0,0,0-1.611l-6.641-6.641a1.141,1.141,0,0,0-1.611,0Z" fill="#ffd15b"/>
      <path id="Trazado_163483" data-name="Trazado 163483" d="M273.728,242.332l-2.3-2.3a1.133,1.133,0,0,1-.01,1.6l-4.16,4.16,2.31,2.31,4.16-4.16a1.139,1.139,0,0,0,0-1.611Z" fill="#fdb441"/>
      <path id="Trazado_163484" data-name="Trazado 163484" d="M288.278,214.617l6.211,6.212a1.221,1.221,0,0,1,0,1.727L280.3,236.745a1.221,1.221,0,0,1-1.727,0l-6.211-6.211a1.222,1.222,0,0,1,0-1.728l14.189-14.189A1.221,1.221,0,0,1,288.278,214.617Z" fill="#528fd8"/>
      <path id="Trazado_163485" data-name="Trazado 163485" d="M294.489,220.829l-2.4-2.406a1.236,1.236,0,0,1,.019,1.747l-14.189,14.189a1.235,1.235,0,0,1-1.747-.02l2.406,2.406a1.221,1.221,0,0,0,1.727,0l14.189-14.189a1.221,1.221,0,0,0,0-1.727Z" fill="#0573ce"/>
      <path id="Trazado_163486" data-name="Trazado 163486" d="M271.16,249.7l-9.843-9.844-26.44,26.44,8.448,8.448.949-.949a2.713,2.713,0,0,1,4.376.768l5.96,12.734a3.716,3.716,0,0,0,4.055,2.075l6.281-1.187a2.991,2.991,0,0,0,2.381-3.511l-.1-.508a2.991,2.991,0,0,0-2.72-2.412l-.8-.058a1.151,1.151,0,0,1-.959-.66l-7.663-16.371a1.8,1.8,0,0,1,.358-2.041l5.726-5.726a.846.846,0,0,1,1.194,0l.8.8a42.409,42.409,0,0,0,4.266,3.736l5.068-10.47c-.473-.421-.919-.844-1.337-1.262Z" fill="#528fd8"/>
      <g id="Grupo_102744" data-name="Grupo 102744">
        <path id="Trazado_163487" data-name="Trazado 163487" d="M269.367,253.237c.01.009.5.427.748.627q.338.274.707.553l1.675-3.46c-.473-.421-.919-.844-1.337-1.262l-9.843-9.843-3.169,3.168C259.326,244.093,269.272,253.156,269.367,253.237Z" fill="#0573ce"/>
        <path id="Trazado_163488" data-name="Trazado 163488" d="M267.228,284.161a2.991,2.991,0,0,0-2.72-2.412l-.8-.058a1.151,1.151,0,0,1-.959-.66l-7.663-16.371a1.8,1.8,0,0,1,.358-2.041l2.682-2.682-.025.02-6.038,5.806a1.72,1.72,0,0,0-.356,2.046l8.4,16.262a1.229,1.229,0,0,0,1.033.646l.853.047a3.131,3.131,0,0,1,2.936,2.374l.112.507a2.751,2.751,0,0,1,.061.5,2.989,2.989,0,0,0,2.229-3.475Z" fill="#0573ce"/>
      </g>
    </g>
    <path id="Trazado_163489" data-name="Trazado 163489" d="M281.192,237.635l14.189-14.189a2.485,2.485,0,0,0,0-3.509l-6.211-6.212a2.485,2.485,0,0,0-3.509,0l-1.038,1.038a1.26,1.26,0,1,0,1.782,1.782l1.01-1.011,6.157,6.157-14.134,14.135-6.158-6.157,8.968-8.967a1.26,1.26,0,1,0-1.782-1.782l-8.994,8.994a2.483,2.483,0,0,0-.073,3.429l-3.439,3.439a2.4,2.4,0,0,0-3.374.017l-8.348,8.349-4.131-4.131a2.947,2.947,0,0,0-4.16,0l-7.051,7.051a4.541,4.541,0,0,0-1.283,2.527l-2.06,13.237-21.039,21.04a2.12,2.12,0,0,0,0,3l12.508,12.509a2.12,2.12,0,0,0,3,0L235.1,295.3c1.21-1.21,1.65-3.17,2.207-5.652.867-3.867,2.055-9.163,6.908-14.016l.95-.949a1.452,1.452,0,0,1,2.344.412l1.277,2.728a1.26,1.26,0,1,0,2.281-1.069l-1.276-2.728a3.976,3.976,0,0,0-6.408-1.125l-.059.059-6.666-6.667,24.658-24.658s9.407,9.4,9.638,9.619l-3.974,8.21a46.572,46.572,0,0,1-3.725-3.46,2.109,2.109,0,0,0-2.975,0l-5.726,5.726a3.073,3.073,0,0,0-.609,3.466l7.663,16.371a2.414,2.414,0,0,0,2.009,1.383l.8.058a1.734,1.734,0,0,1,1.575,1.4l.1.509a1.732,1.732,0,0,1-1.378,2.032l-6.282,1.187a2.456,2.456,0,0,1-2.68-1.372l-2.187-4.674a1.26,1.26,0,0,0-2.282,1.068l2.188,4.674A4.971,4.971,0,0,0,258.9,290.6l6.282-1.187a4.249,4.249,0,0,0,3.384-4.989l-.1-.508a4.259,4.259,0,0,0-3.866-3.428l-.735-.054-4.846-10.352,4.23-4.23a7.448,7.448,0,0,0,2.141-4.442,40.528,40.528,0,0,0,18.334,8.54,2.239,2.239,0,0,0,.4.035,2.306,2.306,0,0,0,2.269-1.945l1.429-9.1a2.314,2.314,0,0,0-1.876-2.621c-8.879-1.579-14.186-7.914-14.594-8.218l3.269-3.269a2.4,2.4,0,0,0,0-3.392l-.294-.295,3.438-3.438a2.481,2.481,0,0,0,3.429-.073ZM241.566,274.76c-4.643,5.1-5.835,10.4-6.717,14.333-.449,2-.836,3.729-1.53,4.423l-2.8,2.8-11.943-11.943,16.3-16.3Zm.537-25.778a2.034,2.034,0,0,1,.575-1.132l7.051-7.051a.423.423,0,0,1,.6,0l4.13,4.131-13.883,13.883Zm19.364,15.092-3.584,3.585-1.654-3.534a.545.545,0,0,1,.108-.616l5.432-5.432s.744.74.864.858a4.934,4.934,0,0,1-1.166,5.139Zm22.469,3.359a36.171,36.171,0,0,1-14.917-6.4l1.161-2.4a27.389,27.389,0,0,0,8.126,3.575,1.279,1.279,0,0,0,.311.038,1.26,1.26,0,0,0,.309-2.481,24.956,24.956,0,0,1-7.64-3.418l1.638-3.383a27.615,27.615,0,0,0,12.374,5.8ZM269.569,246.32l-6.47-6.47,3.184-3.183,6.47,6.47Zm.174-9.757,3.434-3.434,2.8,2.8-3.435,3.435Z"/>
  </g>
</svg>
