<svg xmlns="http://www.w3.org/2000/svg" width="111.111" height="100" viewBox="0 0 111.111 100">
  <g id="Grupo_103446" data-name="Grupo 103446" transform="translate(-200.651 -206.206)">
    <path id="Trazado_164858" data-name="Trazado 164858" d="M306.142,304.355H206.271a3.748,3.748,0,0,1-3.768-3.7v-3.7H309.91v3.7A3.748,3.748,0,0,1,306.142,304.355Z" fill="#e6e6e6"/>
    <g id="Grupo_103443" data-name="Grupo 103443">
      <rect id="Rectángulo_26454" data-name="Rectángulo 26454" width="7.407" height="7.407" transform="translate(226.577 296.948)" fill="#f2f2f2"/>
      <rect id="Rectángulo_26455" data-name="Rectángulo 26455" width="3.704" height="7.407" transform="translate(237.687 296.948)" fill="#f2f2f2"/>
      <rect id="Rectángulo_26456" data-name="Rectángulo 26456" width="3.704" height="7.407" transform="translate(245.096 296.948)" fill="#f2f2f2"/>
    </g>
    <path id="Trazado_164859" data-name="Trazado 164859" d="M306.142,306.206H206.271a5.593,5.593,0,0,1-5.62-5.555v-3.7A1.852,1.852,0,0,1,202.5,295.1H309.91a1.852,1.852,0,0,1,1.852,1.852v3.7A5.593,5.593,0,0,1,306.142,306.206ZM204.355,298.8v1.852a1.889,1.889,0,0,0,1.916,1.852h99.871a1.889,1.889,0,0,0,1.916-1.852V298.8Z"/>
    <g id="Grupo_103444" data-name="Grupo 103444">
      <path id="Trazado_164860" data-name="Trazado 164860" d="M306.207,241.391H263.614v-3.7a3.7,3.7,0,0,1,3.7-3.7H302.5a3.7,3.7,0,0,1,3.7,3.7v3.7Z" fill="#e55934"/>
      <path id="Trazado_164861" data-name="Trazado 164861" d="M298.8,226.577H271.021l-3.7,7.407H302.5Z" fill="#e55934"/>
    </g>
    <path id="Trazado_164862" data-name="Trazado 164862" d="M271.021,230.281H298.8l1.852,3.7H302.5l-3.7-7.407H271.021l-3.7,7.407h1.852Z" fill="#ea7a5d"/>
    <path id="Trazado_164863" data-name="Trazado 164863" d="M302.5,241.391H267.318l3.242,48.641a7.407,7.407,0,0,0,7.391,6.915h13.918a7.407,7.407,0,0,0,7.391-6.915Z" fill="#f5bb00"/>
    <circle id="Elipse_5369" data-name="Elipse 5369" cx="8.334" cy="8.334" r="8.334" transform="translate(276.577 254.355)" fill="#e55934"/>
    <path id="Trazado_164864" data-name="Trazado 164864" d="M284.91,272.873A10.185,10.185,0,1,1,295.1,262.688,10.2,10.2,0,0,1,284.91,272.873Zm0-16.667a6.482,6.482,0,1,0,6.482,6.482A6.489,6.489,0,0,0,284.91,256.206Z"/>
    <path id="Trazado_164865" data-name="Trazado 164865" d="M291.392,282.132H278.429a1.852,1.852,0,1,1,0-3.7h12.963a1.852,1.852,0,1,1,0,3.7Z"/>
    <path id="Trazado_164866" data-name="Trazado 164866" d="M303.72,232.277l-3.263-6.528a1.854,1.854,0,0,0-1.658-1.024V211.762a1.854,1.854,0,0,1,1.852-1.852h5.556a1.852,1.852,0,0,0,0-3.7h-5.556a5.562,5.562,0,0,0-5.555,5.556v12.963H271.021a1.853,1.853,0,0,0-1.657,1.024l-3.263,6.528a5.558,5.558,0,0,0-4.339,5.411v3.7a1.852,1.852,0,0,0,1.852,1.852h1.97l3.128,46.913a9.287,9.287,0,0,0,9.239,8.642h13.918a9.286,9.286,0,0,0,9.239-8.642l3.128-46.913h1.971a1.852,1.852,0,0,0,1.852-1.852v-3.7A5.559,5.559,0,0,0,303.72,232.277Zm-31.554-3.849h25.489l1.852,3.7H270.314Zm25.246,61.48a5.571,5.571,0,0,1-5.543,5.187H277.951a5.569,5.569,0,0,1-5.543-5.185L269.3,243.244h31.224Zm6.943-50.368H265.466v-1.852a1.853,1.853,0,0,1,1.852-1.852H302.5a1.854,1.854,0,0,1,1.852,1.852v1.852Z"/>
    <g id="Grupo_103445" data-name="Grupo 103445">
      <path id="Trazado_164867" data-name="Trazado 164867" d="M246.947,296.947H213.614a7.407,7.407,0,0,1-7.407-7.407v-5.556h48.148v5.556A7.408,7.408,0,0,1,246.947,296.947Z" fill="#e55934"/>
      <path id="Trazado_164868" data-name="Trazado 164868" d="M254.355,252.5H206.207v-5.556a11.11,11.11,0,0,1,11.111-11.111h25.926a11.11,11.11,0,0,1,11.111,11.111Z" fill="#e55934"/>
    </g>
    <path id="Trazado_164869" data-name="Trazado 164869" d="M243.244,235.836H217.318a11.11,11.11,0,0,0-11.111,11.111v3.7a11.11,11.11,0,0,1,11.111-11.111h25.926a11.11,11.11,0,0,1,11.111,11.111v-3.7A11.11,11.11,0,0,0,243.244,235.836Z" fill="#ea7a5d"/>
    <path id="Trazado_164870" data-name="Trazado 164870" d="M245.1,276.577H215.466a5.555,5.555,0,0,1-5.556-5.556v-5.556a5.555,5.555,0,0,1,5.556-5.555H245.1a5.555,5.555,0,0,1,5.555,5.555v5.556A5.555,5.555,0,0,1,245.1,276.577Z" fill="#ac4327"/>
    <path id="Trazado_164871" data-name="Trazado 164871" d="M246.947,283.984H213.614a3.7,3.7,0,0,1-3.7-3.7h0a3.7,3.7,0,0,1,3.7-3.7h33.333a3.7,3.7,0,0,1,3.7,3.7h0A3.7,3.7,0,0,1,246.947,283.984Z" fill="#9bc53d"/>
    <path id="Trazado_164872" data-name="Trazado 164872" d="M217.318,245.1h-1.852a1.852,1.852,0,1,1,0-3.7h1.852a1.852,1.852,0,1,1,0,3.7Z"/>
    <path id="Trazado_164873" data-name="Trazado 164873" d="M226.577,246.947h-1.852a1.852,1.852,0,1,1,0-3.7h1.852a1.852,1.852,0,1,1,0,3.7Z"/>
    <path id="Trazado_164874" data-name="Trazado 164874" d="M235.836,245.1h-1.852a1.852,1.852,0,1,1,0-3.7h1.852a1.852,1.852,0,1,1,0,3.7Z"/>
    <path id="Trazado_164875" data-name="Trazado 164875" d="M245.1,254.354h-1.852a1.852,1.852,0,0,1,0-3.7H245.1a1.852,1.852,0,1,1,0,3.7Z"/>
    <path id="Trazado_164876" data-name="Trazado 164876" d="M239.54,221.021H221.021v-9.259a3.7,3.7,0,0,1,3.7-3.7h18.518v9.26A3.7,3.7,0,0,1,239.54,221.021Z" fill="#f5bb00"/>
    <path id="Trazado_164877" data-name="Trazado 164877" d="M224.725,208.058a3.7,3.7,0,0,0-3.7,3.7v3.7a3.7,3.7,0,0,1,3.7-3.7h18.519v-3.7Z" fill="#f7c933"/>
    <rect id="Rectángulo_26457" data-name="Rectángulo 26457" width="7.407" height="12.962" transform="translate(228.429 208.058)" fill="#e55934"/>
    <rect id="Rectángulo_26458" data-name="Rectángulo 26458" width="7.407" height="3.704" transform="translate(228.429 208.058)" fill="#ea7a5d"/>
    <path id="Trazado_164878" data-name="Trazado 164878" d="M246.947,252.5H213.812a3.843,3.843,0,0,0-3.852,3.081,3.708,3.708,0,0,0,3.654,4.326h3.7v5.556a3.7,3.7,0,0,0,3.7,3.7h0a3.7,3.7,0,0,0,3.7-3.7V259.91h7.407v1.852a3.7,3.7,0,0,0,3.7,3.7h0a3.7,3.7,0,0,0,3.7-3.7V259.91h7.21a3.844,3.844,0,0,0,3.852-3.081A3.707,3.707,0,0,0,246.947,252.5Z" fill="#f5bb00"/>
    <path id="Trazado_164879" data-name="Trazado 164879" d="M256.207,252.5v-5.556a12.979,12.979,0,0,0-12.963-12.963H222.873V222.873H239.54a5.563,5.563,0,0,0,5.556-5.556v-9.259a1.852,1.852,0,0,0-1.852-1.852H224.725a5.562,5.562,0,0,0-5.555,5.556v22.222h-1.852a12.979,12.979,0,0,0-12.964,12.963V252.5a1.852,1.852,0,0,0,1.852,1.852h2.173a5.317,5.317,0,0,0-.247.931,5.578,5.578,0,0,0,1.249,4.517,5.493,5.493,0,0,0,.674.639,7.368,7.368,0,0,0-2,5.024v5.555a7.354,7.354,0,0,0,2,5.026,5.4,5.4,0,0,0-1.659,6.085h-2.192a1.851,1.851,0,0,0-1.852,1.852v5.556a9.269,9.269,0,0,0,9.259,9.259h33.333a9.27,9.27,0,0,0,9.26-9.259v-5.556a1.852,1.852,0,0,0-1.852-1.852h-2.193a5.4,5.4,0,0,0-1.659-6.085,7.354,7.354,0,0,0,2-5.026v-5.555a7.364,7.364,0,0,0-2.011-5.041,5.393,5.393,0,0,0,1.937-3.3,5.6,5.6,0,0,0-.274-2.772h2.2A1.852,1.852,0,0,0,256.207,252.5Zm-14.815-35.186a1.854,1.854,0,0,1-1.852,1.852h-1.852V209.91h3.7v7.407Zm-7.408-7.407v9.26h-3.7v-9.26Zm-11.111,1.852a1.854,1.854,0,0,1,1.852-1.852h1.852v9.26h-3.7Zm0,50v3.7a1.852,1.852,0,0,1-3.7,0v-3.7Zm-1.852,9.259a5.562,5.562,0,0,0,5.556-5.555v-3.7h3.7a5.556,5.556,0,0,0,11.112,0h3.7a3.707,3.707,0,0,1,3.7,3.7v5.555a3.707,3.707,0,0,1-3.7,3.7H215.466a3.707,3.707,0,0,1-3.7-3.7v-5.555a3.707,3.707,0,0,1,3.7-3.7v3.7A5.561,5.561,0,0,0,221.021,271.021Zm16.667-9.259a1.852,1.852,0,1,1-3.7,0ZM252.5,289.54a5.563,5.563,0,0,1-5.556,5.556H213.614a5.563,5.563,0,0,1-5.556-5.556v-3.7H252.5v3.7Zm-38.889-7.408a1.852,1.852,0,1,1,0-3.7h33.333a1.852,1.852,0,1,1,0,3.7Zm34.746-27.124a1.852,1.852,0,0,1,.413,1.522,2.008,2.008,0,0,1-2.024,1.528H213.614a1.855,1.855,0,0,1-1.826-2.176,2.007,2.007,0,0,1,2.024-1.527h33.135A1.845,1.845,0,0,1,248.36,255.008Zm4.143-4.357H208.058v-3.7a9.27,9.27,0,0,1,9.26-9.259h25.926a9.269,9.269,0,0,1,9.259,9.259v3.7Z"/>
  </g>
</svg>
