<svg xmlns="http://www.w3.org/2000/svg" width="76" height="72.437" viewBox="0 0 76 72.437">
  <g id="Grupo_103474" data-name="Grupo 103474" transform="translate(-810 -5049)">
    <g id="Grupo_103358" data-name="Grupo 103358" transform="translate(161.532 5039.396)">
      <circle id="Elipse_5355" data-name="Elipse 5355" cx="36.218" cy="36.218" r="36.218" transform="translate(650.25 9.604)" fill="#ffdc72"/>
      <g id="Grupo_103410" data-name="Grupo 103410" transform="translate(648.468 15.486)">
        <g id="Grupo_103404" data-name="Grupo 103404" transform="translate(53.763 1.129)">
          <path id="Trazado_164799" data-name="Trazado 164799" d="M702.768,15.381a7.276,7.276,0,1,1,0,14.552h-.029a7.276,7.276,0,0,1,.029-14.552Z" transform="translate(-692.193 -15.381)" fill="#a67eff"/>
          <path id="Trazado_164800" data-name="Trazado 164800" d="M709.326,54.556v16.9H697.371v-16.9h0a4.6,4.6,0,0,1-4.6-4.6V38.1a10.677,10.677,0,0,1,10.546-10.731h.028a10.573,10.573,0,0,1,10.576,10.573V49.961A4.6,4.6,0,0,1,709.326,54.556Z" transform="translate(-692.773 -12.821)" fill="#a67eff"/>
        </g>
        <g id="Grupo_103405" data-name="Grupo 103405" transform="translate(43.228 1.129)">
          <path id="Trazado_164801" data-name="Trazado 164801" d="M694.086,15.381a7.276,7.276,0,0,1,0,14.552h-.029a7.276,7.276,0,0,1,.029-14.552Z" transform="translate(-683.51 -15.381)" fill="#52dbff"/>
          <path id="Trazado_164802" data-name="Trazado 164802" d="M700.645,54.556v16.9H688.689v-16.9h0a4.6,4.6,0,0,1-4.6-4.6V38.1a10.677,10.677,0,0,1,10.546-10.731h.029a10.575,10.575,0,0,1,10.575,10.573V49.961A4.6,4.6,0,0,1,700.645,54.556Z" transform="translate(-684.091 -12.821)" fill="#52dbff"/>
        </g>
        <g id="Grupo_103406" data-name="Grupo 103406" transform="translate(32.693 1.129)">
          <path id="Trazado_164803" data-name="Trazado 164803" d="M685.4,15.381a7.276,7.276,0,1,1,0,14.552h-.028a7.276,7.276,0,0,1,.028-14.552Z" transform="translate(-674.83 -15.381)" fill="#00dcab"/>
          <path id="Trazado_164804" data-name="Trazado 164804" d="M691.963,54.556v16.9H680.008v-16.9h0a4.6,4.6,0,0,1-4.6-4.6V38.1a10.676,10.676,0,0,1,10.546-10.731h.028A10.573,10.573,0,0,1,696.56,37.946V49.961A4.6,4.6,0,0,1,691.963,54.556Z" transform="translate(-675.41 -12.821)" fill="#00dcab"/>
        </g>
        <g id="Grupo_103407" data-name="Grupo 103407" transform="translate(22.158 1.129)">
          <path id="Trazado_164805" data-name="Trazado 164805" d="M676.723,15.381a7.276,7.276,0,1,1,0,14.552h-.029a7.276,7.276,0,0,1,.029-14.552Z" transform="translate(-666.148 -15.381)" fill="#fd0"/>
          <path id="Trazado_164806" data-name="Trazado 164806" d="M683.282,54.556v16.9H671.326v-16.9h0a4.6,4.6,0,0,1-4.6-4.6V38.1a10.677,10.677,0,0,1,10.546-10.731h.029a10.573,10.573,0,0,1,10.574,10.573V49.961A4.6,4.6,0,0,1,683.282,54.556Z" transform="translate(-666.728 -12.821)" fill="#fd0"/>
        </g>
        <g id="Grupo_103408" data-name="Grupo 103408" transform="translate(11.623 1.129)">
          <path id="Trazado_164807" data-name="Trazado 164807" d="M668.041,15.381a7.276,7.276,0,1,1,0,14.552h-.028a7.276,7.276,0,0,1,.028-14.552Z" transform="translate(-657.465 -15.381)" fill="#ff8522"/>
          <path id="Trazado_164808" data-name="Trazado 164808" d="M674.6,54.556v16.9H662.644v-16.9h0a4.6,4.6,0,0,1-4.6-4.6V38.1a10.677,10.677,0,0,1,10.547-10.731h.028A10.573,10.573,0,0,1,679.2,37.946V49.961A4.6,4.6,0,0,1,674.6,54.556Z" transform="translate(-658.046 -12.821)" fill="#ff8522"/>
        </g>
        <g id="Grupo_103409" data-name="Grupo 103409" transform="translate(1.088 1.129)">
          <path id="Trazado_164809" data-name="Trazado 164809" d="M659.359,15.381a7.276,7.276,0,1,1,0,14.552h-.028a7.276,7.276,0,0,1,.028-14.552Z" transform="translate(-648.785 -15.381)" fill="#fa496e"/>
          <path id="Trazado_164810" data-name="Trazado 164810" d="M665.918,54.556v16.9H653.963v-16.9h0a4.6,4.6,0,0,1-4.6-4.6V38.1a10.677,10.677,0,0,1,10.546-10.731h.028a10.573,10.573,0,0,1,10.576,10.573V49.961A4.6,4.6,0,0,1,665.918,54.556Z" transform="translate(-649.365 -12.821)" fill="#fa496e"/>
        </g>
        <path id="Trazado_164811" data-name="Trazado 164811" d="M680.55,40.946a1.127,1.127,0,0,0,1.127-1.127v-4.8a1.128,1.128,0,1,0-2.256,0v4.8A1.128,1.128,0,0,0,680.55,40.946Z" transform="translate(-641.86 -10.301)"/>
        <path id="Trazado_164812" data-name="Trazado 164812" d="M723.443,35.819a1.128,1.128,0,1,0-2.057.927,9.331,9.331,0,0,1,.828,3.862V52.577a3.456,3.456,0,0,1-2.324,3.261V39.167a1.128,1.128,0,0,0-2.256,0v33.7h-3.7V40.609a11.582,11.582,0,0,0-3.416-8.246c-.231-.231-.471-.448-.716-.656a9.244,9.244,0,0,1,2.975-.5h.029a9.35,9.35,0,0,1,6.652,2.755,1.128,1.128,0,1,0,1.595-1.6,11.638,11.638,0,0,0-3.71-2.5,8.375,8.375,0,0,0-7.9-14.707,1.128,1.128,0,0,0,.908,2.065,6.121,6.121,0,1,1,2.458,11.727h-.025a6.059,6.059,0,0,1-3.7-1.258,8.375,8.375,0,0,0-9.7-12.727,1.128,1.128,0,1,0,.778,2.118,6.121,6.121,0,1,1,2.108,11.869h-.024a6.055,6.055,0,0,1-3.7-1.26,8.375,8.375,0,0,0-9.908-12.647,1.128,1.128,0,1,0,.834,2.1,6.121,6.121,0,1,1,2.26,11.81h-.024a6.05,6.05,0,0,1-3.7-1.26,8.376,8.376,0,0,0-9.608-12.76,1.128,1.128,0,0,0,.752,2.127A6.121,6.121,0,1,1,681.2,28.948h-.024a6.047,6.047,0,0,1-3.7-1.26A8.375,8.375,0,0,0,667.3,15.158a1.128,1.128,0,1,0,.909,2.065,6.121,6.121,0,1,1,2.462,11.725h-.024a6.047,6.047,0,0,1-3.7-1.26,8.375,8.375,0,1,0-11.334,2.184,11.849,11.849,0,0,0-7.144,10.895v11.81a5.718,5.718,0,0,0,4.58,5.6V74a1.127,1.127,0,0,0,1.127,1.127h64.586A1.128,1.128,0,0,0,719.888,74V58.173a5.716,5.716,0,0,0,4.58-5.594V40.609A11.553,11.553,0,0,0,723.443,35.819ZM709.355,58.173a5.686,5.686,0,0,0,2.323-1.053v15.75h-2.323Zm-1.82-28.836a8.244,8.244,0,0,0,.744.541c-.243.1-.481.216-.716.336-.248-.125-.5-.244-.754-.352A8.614,8.614,0,0,0,707.535,29.337Zm-10.535,0a8.42,8.42,0,0,0,.744.541c-.242.1-.481.216-.715.336-.248-.125-.5-.244-.755-.352A8.614,8.614,0,0,0,697,29.337Zm-10.535,0a8.435,8.435,0,0,0,.745.541c-.243.1-.481.216-.716.336-.248-.125-.5-.244-.754-.352A8.616,8.616,0,0,0,686.464,29.337Zm-10.534,0a8.418,8.418,0,0,0,.744.541q-.362.157-.716.336c-.247-.125-.5-.244-.754-.352A8.625,8.625,0,0,0,675.93,29.337Zm-11.262.525a8.37,8.37,0,0,0,.727-.525,8.251,8.251,0,0,0,.745.541q-.364.157-.717.337C665.175,30.089,664.924,29.97,664.668,29.862Zm-10.657-7.035a6.12,6.12,0,1,1,6.12,6.12A6.128,6.128,0,0,1,654.011,22.828Zm.165,15.212a1.128,1.128,0,0,0-1.129,1.127V55.838a3.454,3.454,0,0,1-2.323-3.259V40.768a9.5,9.5,0,0,1,9.38-9.563,9.407,9.407,0,0,1,9.434,9.406V52.578a3.456,3.456,0,0,1-2.324,3.261V39.167a1.128,1.128,0,0,0-2.256,0v33.7h-3.7V51.088a1.128,1.128,0,0,0-2.256,0V72.869h-3.7v-33.7A1.127,1.127,0,0,0,654.176,38.04Zm13.039,20.133a5.684,5.684,0,0,0,2.324-1.053v15.75h-2.324Zm8.031,14.7h-3.451V40.609a11.585,11.585,0,0,0-3.416-8.246c-.231-.231-.471-.448-.717-.656a9.246,9.246,0,0,1,2.977-.5h.028a9.4,9.4,0,0,1,9.407,9.406V52.578a3.456,3.456,0,0,1-2.323,3.261V39.168a1.128,1.128,0,1,0-2.256,0v33.7Zm2.5-14.7a5.687,5.687,0,0,0,2.323-1.053v15.75H677.75Zm8.03,14.7h-3.451V40.609a11.58,11.58,0,0,0-3.416-8.246c-.231-.231-.471-.448-.716-.656a9.244,9.244,0,0,1,2.975-.5h.029a9.4,9.4,0,0,1,9.407,9.406V52.578a3.458,3.458,0,0,1-2.323,3.261V47.728a1.129,1.129,0,0,0-2.257,0V72.869Zm2.506-14.7a5.686,5.686,0,0,0,2.323-1.053v15.75h-2.323Zm8.03,14.7h-3.451V40.609a11.587,11.587,0,0,0-3.416-8.246c-.231-.231-.471-.448-.717-.656a9.251,9.251,0,0,1,2.977-.5h.028a9.4,9.4,0,0,1,9.407,9.406V52.578a3.456,3.456,0,0,1-2.323,3.261V39.168a1.128,1.128,0,1,0-2.256,0v33.7Zm2.5-14.7a5.686,5.686,0,0,0,2.323-1.053v15.75H698.82Zm8.03,14.7H703.4V40.609a11.587,11.587,0,0,0-3.416-8.246c-.231-.231-.472-.448-.717-.656a9.245,9.245,0,0,1,2.977-.5h.028a9.4,9.4,0,0,1,9.407,9.406V52.578a3.458,3.458,0,0,1-2.323,3.261V39.168a1.128,1.128,0,1,0-2.256,0v33.7Z" transform="translate(-648.468 -14.451)"/>
      </g>
    </g>
  </g>
</svg>
