<svg xmlns="http://www.w3.org/2000/svg" width="74.609" height="100" viewBox="0 0 74.609 100">
  <g id="Grupo_103449" data-name="Grupo 103449" transform="translate(-218.696 -206)">
    <g id="Grupo_103447" data-name="Grupo 103447">
      <rect id="Rectángulo_26459" data-name="Rectángulo 26459" width="54.33" height="79.653" transform="translate(237.49 216.138)" fill="#e5e9ea"/>
      <path id="Trazado_164880" data-name="Trazado 164880" d="M220.18,295.863c0-.075,0-.148,0-.224v.222Z" fill="#e5e9ea"/>
      <path id="Trazado_164881" data-name="Trazado 164881" d="M237.489,216.138v79.725a8.655,8.655,0,0,0-17.307-.224v-79.5h0a8.655,8.655,0,0,1,17.309,0Z" fill="#f4f4f4"/>
      <path id="Trazado_164882" data-name="Trazado 164882" d="M228.836,207.485v79.723a8.657,8.657,0,0,0-8.654,8.431v-79.5h0A8.656,8.656,0,0,1,228.836,207.485Z" fill="#d1d1d1"/>
      <path id="Trazado_164883" data-name="Trazado 164883" d="M288.131,304.515h-59.3a8.654,8.654,0,1,1,8.654-8.653l54.33-.071" fill="#d1d1d1"/>
      <path id="Trazado_164884" data-name="Trazado 164884" d="M233.1,295.861v4.262h-4.262a4.261,4.261,0,1,1,4.262-4.262Z" fill="#566368"/>
      <rect id="Rectángulo_26460" data-name="Rectángulo 26460" width="18.33" height="31.089" transform="translate(242.315 226.35)" fill="#fa3f68"/>
      <path id="Trazado_164885" data-name="Trazado 164885" d="M253.47,248.958h-3.961l-.477,8.481h-6.717V238.1s7.1,0,10.45-1.911Z" fill="#fff"/>
      <rect id="Rectángulo_26461" data-name="Rectángulo 26461" width="18.33" height="31.089" transform="translate(266.845 244.426)" fill="#53bce9"/>
      <path id="Trazado_164886" data-name="Trazado 164886" d="M254.394,234.4a3.2,3.2,0,0,1-1.629,1.784c-3.351,1.911-10.45,1.911-10.45,1.911V226.35h9.7S255.45,230.707,254.394,234.4Z" fill="#fcb65f"/>
      <path id="Trazado_164887" data-name="Trazado 164887" d="M285.175,258.869v16.646H266.846v-5.952l6.558-7.525,4.562,4.04Z" fill="#566368"/>
      <circle id="Elipse_5370" data-name="Elipse 5370" cx="4.158" cy="4.158" r="4.158" transform="translate(270.434 249.321)" fill="#fcb65f"/>
      <path id="Trazado_164888" data-name="Trazado 164888" d="M220.18,295.863c0-.075,0-.148,0-.224v.222Z" fill="#e5e9ea"/>
    </g>
    <g id="Grupo_103448" data-name="Grupo 103448">
      <path id="Trazado_164889" data-name="Trazado 164889" d="M291.82,286.053a1.485,1.485,0,0,0,1.485-1.485v-68.43a1.485,1.485,0,0,0-1.485-1.485H238.865a10.139,10.139,0,0,0-20.169,1.485v79.724A10.151,10.151,0,0,0,228.836,306h59.3a1.485,1.485,0,0,0,0-2.97h-59.3a7.178,7.178,0,0,1-7.17-7.158v-.04a7.169,7.169,0,0,1,14.338.03,1.485,1.485,0,0,0,1.939,1.414H291.82a1.485,1.485,0,0,0,1.485-1.485v-6.272a1.485,1.485,0,1,0-2.97,0v4.787h-51.36V246.747a1.485,1.485,0,1,0-2.97,0V288.7a10.124,10.124,0,0,0-14.338,0V216.1a7.17,7.17,0,0,1,14.339.043V241.8a1.485,1.485,0,1,0,2.97,0V217.623h51.36v66.945A1.485,1.485,0,0,0,291.82,286.053Z"/>
      <path id="Trazado_164890" data-name="Trazado 164890" d="M260.645,262.172h-18.33a1.485,1.485,0,1,0,0,2.97h18.33a1.485,1.485,0,1,0,0-2.97Z"/>
      <path id="Trazado_164891" data-name="Trazado 164891" d="M260.645,268.39h-18.33a1.485,1.485,0,1,0,0,2.97h18.33a1.485,1.485,0,1,0,0-2.97Z"/>
      <path id="Trazado_164892" data-name="Trazado 164892" d="M260.645,274.608h-18.33a1.485,1.485,0,1,0,0,2.97h18.33a1.485,1.485,0,1,0,0-2.97Z"/>
      <path id="Trazado_164893" data-name="Trazado 164893" d="M260.645,280.826h-18.33a1.485,1.485,0,1,0,0,2.97h18.33a1.485,1.485,0,1,0,0-2.97Z"/>
      <path id="Trazado_164894" data-name="Trazado 164894" d="M260.645,287.043h-18.33a1.486,1.486,0,0,0,0,2.971h18.33a1.486,1.486,0,0,0,0-2.971Z"/>
      <path id="Trazado_164895" data-name="Trazado 164895" d="M266.845,227.835h18.33a1.485,1.485,0,1,0,0-2.97h-18.33a1.485,1.485,0,1,0,0,2.97Z"/>
      <path id="Trazado_164896" data-name="Trazado 164896" d="M266.845,234.053h18.33a1.485,1.485,0,1,0,0-2.97h-18.33a1.485,1.485,0,1,0,0,2.97Z"/>
      <path id="Trazado_164897" data-name="Trazado 164897" d="M266.845,240.271h18.33a1.485,1.485,0,1,0,0-2.97h-18.33a1.485,1.485,0,1,0,0,2.97Z"/>
      <path id="Trazado_164898" data-name="Trazado 164898" d="M285.175,280.826h-18.33a1.485,1.485,0,1,0,0,2.97h18.33a1.485,1.485,0,1,0,0-2.97Z"/>
      <path id="Trazado_164899" data-name="Trazado 164899" d="M285.175,287.043h-18.33a1.486,1.486,0,0,0,0,2.971h18.33a1.486,1.486,0,0,0,0-2.971Z"/>
      <path id="Trazado_164900" data-name="Trazado 164900" d="M289.121,298.637H255.583a1.486,1.486,0,1,0,0,2.971h33.538a1.486,1.486,0,1,0,0-2.971Z"/>
      <path id="Trazado_164901" data-name="Trazado 164901" d="M228.835,293.085a2.78,2.78,0,0,1,2.777,2.776,1.485,1.485,0,1,0,2.97,0,5.746,5.746,0,1,0-5.747,5.747h21.8a1.485,1.485,0,1,0,0-2.97h-21.8a2.777,2.777,0,0,1,0-5.553Z"/>
      <path id="Trazado_164902" data-name="Trazado 164902" d="M262.13,226.35a1.485,1.485,0,0,0-1.485-1.485h-18.33a1.485,1.485,0,0,0-1.485,1.485v31.089a1.485,1.485,0,0,0,1.485,1.486h18.33a1.485,1.485,0,0,0,1.485-1.486Zm-10.874,1.485c.922,1.387,2.3,4.084,1.71,6.16-.184.644-1.659,1.6-5.211,2.171a37.624,37.624,0,0,1-3.955.4v-8.732ZM243.8,239.542a40.535,40.535,0,0,0,4.393-.438,22.212,22.212,0,0,0,3.205-.732l.5,9.1h-2.391a1.486,1.486,0,0,0-1.483,1.4l-.4,7.079H243.8Zm15.36,16.412H250.6l.31-5.51h2.557a1.486,1.486,0,0,0,1.482-1.568l-.658-11.921a4.126,4.126,0,0,0,1.528-2.144,9.192,9.192,0,0,0-.875-6.45c-.085-.182-.171-.356-.258-.526h4.471Z"/>
      <path id="Trazado_164903" data-name="Trazado 164903" d="M286.66,244.426a1.485,1.485,0,0,0-1.485-1.485h-18.33a1.485,1.485,0,0,0-1.485,1.485v31.089A1.485,1.485,0,0,0,266.845,277h18.33a1.485,1.485,0,0,0,1.485-1.485Zm-2.97,1.485v12.343l-5.785,5.784-3.516-3.113a1.485,1.485,0,0,0-2.1.136L268.33,265.6V245.911ZM268.33,274.03v-3.912l5.21-5.977,6.442,5.7a1.485,1.485,0,0,0,1.969-2.224l-1.818-1.609,3.557-3.557V274.03Z"/>
      <path id="Trazado_164904" data-name="Trazado 164904" d="M274.592,259.123a5.644,5.644,0,1,0-5.643-5.644A5.651,5.651,0,0,0,274.592,259.123Zm0-8.317a2.673,2.673,0,1,1-2.673,2.673A2.676,2.676,0,0,1,274.592,250.806Z"/>
      <path id="Trazado_164905" data-name="Trazado 164905" d="M249.7,242.625a1.485,1.485,0,1,0-1.043-2.781l-2.112.792a1.486,1.486,0,0,0,1.043,2.782Z"/>
    </g>
  </g>
</svg>
