<svg xmlns="http://www.w3.org/2000/svg" width="48.02" height="86" viewBox="0 0 48.02 86">
  <g id="Grupo_103310" data-name="Grupo 103310" transform="translate(-5259 9649)">
    <g id="Grupo_102936" data-name="Grupo 102936" transform="translate(5027.012 -9862)">
      <g id="Grupo_102983" data-name="Grupo 102983">
        <path id="Trazado_164021" data-name="Trazado 164021" d="M240.293,269.322l-2.188-8.259-3.877,1.958a1.686,1.686,0,0,0-.979,1.761v7.083a1.685,1.685,0,0,0,.979,1.761l3.877,1.958Z" fill="#f9f6f6" fill-rule="evenodd"/>
      </g>
      <g id="Grupo_102984" data-name="Grupo 102984">
        <path id="Trazado_164022" data-name="Trazado 164022" d="M238.1,261.063l1.761-6.689-1.761-7.832-3.877,1.958a1.686,1.686,0,0,0-.979,1.761v7.083a1.686,1.686,0,0,0,.979,1.761Z" fill="#f9f6f6" fill-rule="evenodd"/>
      </g>
      <g id="Grupo_102985" data-name="Grupo 102985">
        <path id="Trazado_164023" data-name="Trazado 164023" d="M268.931,236.666h-5.542a1.63,1.63,0,0,0-1.622,1.627v5.552l4.746,1.944,4.045-1.944v-5.552a1.635,1.635,0,0,0-1.627-1.627Z" fill="#f9f6f6" fill-rule="evenodd"/>
      </g>
      <g id="Grupo_102986" data-name="Grupo 102986">
        <path id="Trazado_164024" data-name="Trazado 164024" d="M250.481,238.312l-1.363-21.695c-.2-3.133-4.185-3.153-4.381,0L243.374,238.3l3.508,2.769Z" fill="#365e7d" fill-rule="evenodd"/>
      </g>
      <g id="Grupo_102987" data-name="Grupo 102987">
        <path id="Trazado_164025" data-name="Trazado 164025" d="M238.1,271.352l-3.877-1.958a1.67,1.67,0,0,1-.979-1.737v4.208a1.685,1.685,0,0,0,.979,1.761l3.877,1.958v-4.232Z" fill="#ecdaec" fill-rule="evenodd"/>
      </g>
      <g id="Grupo_102988" data-name="Grupo 102988">
        <path id="Trazado_164026" data-name="Trazado 164026" d="M238.1,256.831l-3.877-1.958a1.67,1.67,0,0,1-.979-1.737v4.208a1.686,1.686,0,0,0,.979,1.761l3.877,1.958Z" fill="#ecdaec" fill-rule="evenodd"/>
      </g>
      <g id="Grupo_102989" data-name="Grupo 102989">
        <path id="Trazado_164027" data-name="Trazado 164027" d="M250.481,238.312l-1.363-21.695c-.149-2.351-2.423-2.946-3.637-1.775a2.626,2.626,0,0,1,.724,1.751l1.368,21.7h2.567a2.742,2.742,0,0,1,.341.019Z" fill="#2b4d66" fill-rule="evenodd"/>
      </g>
      <g id="Grupo_102990" data-name="Grupo 102990">
        <path id="Trazado_164028" data-name="Trazado 164028" d="M270.558,238.293a1.634,1.634,0,0,0-1.627-1.627h-2.649a1.635,1.635,0,0,1,1.363,1.608v5.552h-5.878v.019h8.791v-5.552Z" fill="#ecdaec" fill-rule="evenodd"/>
      </g>
      <g id="Grupo_102991" data-name="Grupo 102991">
        <path id="Trazado_164029" data-name="Trazado 164029" d="M252.875,241.028a2.742,2.742,0,0,0-2.394-2.716c-1.771-.22-4.943-.019-6.862-.019a2.744,2.744,0,0,0-2.736,2.735v2.817l6.138,3.047,5.854-3.047v-2.817Z" fill="#f9f6f6" fill-rule="evenodd"/>
      </g>
      <g id="Grupo_102992" data-name="Grupo 102992">
        <path id="Trazado_164030" data-name="Trazado 164030" d="M252.875,241.028a2.715,2.715,0,0,0-2.735-2.735h-2.567a2.746,2.746,0,0,1,2.394,2.716v2.836h2.908Z" fill="#ecdaec" fill-rule="evenodd"/>
      </g>
      <g id="Grupo_102993" data-name="Grupo 102993">
        <path id="Trazado_164031" data-name="Trazado 164031" d="M241.44,243.845c-1.833,0-3.335,1.214-3.335,2.7v48.823a2.715,2.715,0,0,0,2.946,2.375h29.9a2.718,2.718,0,0,0,2.946-2.375V246.542c0-1.483-1.5-2.7-3.335-2.7H241.44Z" fill="#365e7d" fill-rule="evenodd"/>
      </g>
      <g id="Grupo_102994" data-name="Grupo 102994">
        <path id="Trazado_164032" data-name="Trazado 164032" d="M266.359,259.532H245.308a1.6,1.6,0,0,0-1.588,1.594v7.5a1.593,1.593,0,0,0,1.588,1.588h21.051a1.6,1.6,0,0,0,1.594-1.588v-7.5A1.6,1.6,0,0,0,266.359,259.532Z" fill="#90d8f9" fill-rule="evenodd"/>
      </g>
      <g id="Grupo_102995" data-name="Grupo 102995">
        <path id="Trazado_164033" data-name="Trazado 164033" d="M260.03,249.287h-8.393a2.214,2.214,0,0,0-2.207,2.208v2.2h12.807v-2.2A2.214,2.214,0,0,0,260.03,249.287Z" fill="#90d8f9" fill-rule="evenodd"/>
      </g>
      <g id="Grupo_102996" data-name="Grupo 102996">
        <path id="Trazado_164034" data-name="Trazado 164034" d="M277.77,248.5l-3.882-1.958.005,30.017,3.877-1.958a1.686,1.686,0,0,0,.979-1.762V250.261A1.686,1.686,0,0,0,277.77,248.5Z" fill="#f9f6f6" fill-rule="evenodd"/>
      </g>
      <g id="Grupo_102997" data-name="Grupo 102997">
        <path id="Trazado_164035" data-name="Trazado 164035" d="M273.893,276.559V246.542c0-1.483-1.5-2.7-3.335-2.7h-4.242c1.833,0,3.335,1.214,3.335,2.7v48.823a2.713,2.713,0,0,1-2.941,2.375h4.237a2.712,2.712,0,0,0,2.942-2.375Z" fill="#2b4d66" fill-rule="evenodd"/>
      </g>
      <g id="Grupo_102998" data-name="Grupo 102998">
        <path id="Trazado_164036" data-name="Trazado 164036" d="M278.749,268.612a1.679,1.679,0,0,1-.979,1.756l-3.882,1.958.005,4.232,3.877-1.958a1.684,1.684,0,0,0,.979-1.761Z" fill="#ecdaec" fill-rule="evenodd"/>
      </g>
      <g id="Grupo_102999" data-name="Grupo 102999">
        <path id="Trazado_164037" data-name="Trazado 164037" d="M266.359,259.532H245.308a1.6,1.6,0,0,0-1.588,1.594v1.266h19.818a1.6,1.6,0,0,1,1.593,1.594v6.228h1.229a1.6,1.6,0,0,0,1.593-1.588v-7.5a1.6,1.6,0,0,0-1.594-1.594Z" fill="#75cef8" fill-rule="evenodd"/>
      </g>
      <g id="Grupo_103000" data-name="Grupo 103000">
        <path id="Trazado_164038" data-name="Trazado 164038" d="M262.237,251.495a2.214,2.214,0,0,0-2.207-2.208h-3.522a2.21,2.21,0,0,1,2.2,2.208v2.2h3.527v-2.2Z" fill="#75cef8" fill-rule="evenodd"/>
      </g>
      <g id="Grupo_103001" data-name="Grupo 103001">
        <path id="Trazado_164039" data-name="Trazado 164039" d="M262.237,254.957a1.26,1.26,0,0,0,1.26-1.26v-2.2a3.471,3.471,0,0,0-3.467-3.468h-8.393a3.471,3.471,0,0,0-3.467,3.468v2.2a1.26,1.26,0,0,0,1.26,1.26Zm-11.548-3.462a.949.949,0,0,1,.948-.948h8.393a.949.949,0,0,1,.948.948v.942H250.69v-.942Z"/>
        <path id="Trazado_164040" data-name="Trazado 164040" d="M242.46,261.126v7.5a2.85,2.85,0,0,0,2.848,2.848h7.735a1.26,1.26,0,1,0,0-2.519h-7.735a.334.334,0,0,1-.329-.329v-7.5a.34.34,0,0,1,.329-.334h21.051a.343.343,0,0,1,.334.334v7.5a.329.329,0,0,1-.1.232.322.322,0,0,1-.225.1h-7.419a1.26,1.26,0,0,0-.007,2.519h7.426a2.853,2.853,0,0,0,2.844-2.848v-7.5a2.856,2.856,0,0,0-2.853-2.853H245.308a2.853,2.853,0,0,0-2.848,2.853Z"/>
        <path id="Trazado_164041" data-name="Trazado 164041" d="M248.653,275.3h-3.705a1.259,1.259,0,1,0,0,2.519h3.705a1.259,1.259,0,0,0,0-2.519Z"/>
        <path id="Trazado_164042" data-name="Trazado 164042" d="M248.653,280.385h-3.705a1.26,1.26,0,1,0,0,2.52h3.705a1.26,1.26,0,0,0,0-2.52Z"/>
        <path id="Trazado_164043" data-name="Trazado 164043" d="M257.65,275.3h-3.7a1.259,1.259,0,1,0,0,2.519h3.7a1.259,1.259,0,1,0,0-2.519Z"/>
        <path id="Trazado_164044" data-name="Trazado 164044" d="M257.65,280.385h-3.7a1.26,1.26,0,1,0,0,2.52h3.7a1.26,1.26,0,1,0,0-2.52Z"/>
        <path id="Trazado_164045" data-name="Trazado 164045" d="M248.653,285.477h-3.705a1.26,1.26,0,1,0,0,2.519h3.705a1.26,1.26,0,0,0,0-2.519Z"/>
        <path id="Trazado_164046" data-name="Trazado 164046" d="M257.65,285.477h-3.7a1.26,1.26,0,1,0,0,2.519h3.7a1.26,1.26,0,1,0,0-2.519Z"/>
        <path id="Trazado_164047" data-name="Trazado 164047" d="M266.652,275.3h-3.7a1.259,1.259,0,1,0,0,2.519h3.7a1.259,1.259,0,1,0,0-2.519Z"/>
        <path id="Trazado_164048" data-name="Trazado 164048" d="M266.652,280.385h-3.7a1.26,1.26,0,1,0,0,2.52h3.7a1.26,1.26,0,0,0,0-2.52Z"/>
        <path id="Trazado_164049" data-name="Trazado 164049" d="M266.652,285.477h-3.7a1.26,1.26,0,1,0,0,2.519h3.7a1.26,1.26,0,1,0,0-2.519Z"/>
        <path id="Trazado_164050" data-name="Trazado 164050" d="M248.653,290.564h-3.705a1.26,1.26,0,1,0,0,2.519h3.705a1.26,1.26,0,0,0,0-2.519Z"/>
        <path id="Trazado_164051" data-name="Trazado 164051" d="M257.65,290.564h-3.7a1.26,1.26,0,1,0,0,2.519h3.7a1.26,1.26,0,1,0,0-2.519Z"/>
        <path id="Trazado_164052" data-name="Trazado 164052" d="M266.652,290.564h-3.7a1.26,1.26,0,1,0,0,2.519h3.7a1.26,1.26,0,1,0,0-2.519Z"/>
        <path id="Trazado_164053" data-name="Trazado 164053" d="M278.338,247.376l-3.287-1.66a4.278,4.278,0,0,0-3.233-2.978v-4.445a2.889,2.889,0,0,0-2.887-2.886h-5.542a2.887,2.887,0,0,0-2.882,2.886v4.292h-6.372v-1.557a4,4,0,0,0-2.453-3.685l-1.307-20.807A3.536,3.536,0,0,0,246.921,213h0a3.528,3.528,0,0,0-3.438,3.538L242.174,237.3a4,4,0,0,0-2.55,3.723v1.883a4.169,4.169,0,0,0-2.677,2.805l-3.285,1.659a2.935,2.935,0,0,0-1.673,2.886v7.083a2.936,2.936,0,0,0,1.671,2.886l1.65.833-1.648.833a2.935,2.935,0,0,0-1.673,2.886v7.083a2.936,2.936,0,0,0,1.671,2.886l3.185,1.608v6.111a1.26,1.26,0,1,0,2.52,0V246.542c0-.765.969-1.437,2.075-1.437h29.118c1.106,0,2.075.672,2.075,1.437v48.823c0,.526-.721,1.115-1.686,1.115h-29.9c-.994,0-1.686-.587-1.686-1.115v-7.03a1.26,1.26,0,0,0-2.52,0v7.03A3.957,3.957,0,0,0,241.051,299h29.9a3.957,3.957,0,0,0,4.206-3.635V277.334l3.183-1.608a2.937,2.937,0,0,0,1.673-2.887V250.261a2.934,2.934,0,0,0-1.671-2.885Zm-41.493,26.161-2.051-1.036c-.242-.122-.285-.143-.285-.636v-7.083c0-.492.043-.514.287-.636l2.049-1.035Zm0-14.521-2.051-1.036c-.242-.122-.285-.143-.285-.636v-7.083c0-.492.043-.514.287-.636l2.049-1.035Zm10.075-43.5h0c.418,0,.884.309.94,1.176l1.277,20.337h-4.422l1.278-20.337c.054-.867.514-1.176.926-1.176Zm4.7,27.066h-9.473v-1.558a1.5,1.5,0,0,1,1.476-1.475h6.521a1.476,1.476,0,0,1,1.475,1.475v1.558Zm17.683,0h-6.272v-4.293a.37.37,0,0,1,.362-.367h5.542a.378.378,0,0,1,.368.367Zm8.191,30.253c0,.493-.044.514-.287.637l-2.05,1.035V248.59l2.051,1.036c.242.121.286.143.286.635Z"/>
      </g>
    </g>
  </g>
</svg>
