<svg xmlns="http://www.w3.org/2000/svg" width="100" height="100" viewBox="0 0 100 100">
  <g id="Grupo_103436" data-name="Grupo 103436" transform="translate(-196 -196)">
    <g id="Grupo_94959" data-name="Grupo 94959" transform="translate(196 196)">
      <path id="Trazado_151993" data-name="Trazado 151993" d="M202,230h90v63.333H202Z" transform="translate(-197 -201.667)" fill="#80daff"/>
      <path id="Trazado_151994" data-name="Trazado 151994" d="M198,206h96.667v20H198Z" transform="translate(-196.333 -197.667)" fill="#25b1fa"/>
      <path id="Trazado_151995" data-name="Trazado 151995" d="M251,207.333V204H197.667A1.667,1.667,0,0,0,196,205.667v20a1.666,1.666,0,0,0,1.667,1.667h1.667v5h3.333v-5h46.667V224h-50V207.333Z" transform="translate(-196 -197.334)"/>
      <path id="Trazado_151996" data-name="Trazado 151996" d="M309,204h-1.667v20H284v3.333h20v50h3.333v-50H309a1.666,1.666,0,0,0,1.667-1.667v-20A1.667,1.667,0,0,0,309,204Z" transform="translate(-210.667 -197.334)"/>
      <path id="Trazado_151997" data-name="Trazado 151997" d="M198,306h96.667v6.667H198Z" transform="translate(-196.333 -214.333)" fill="#25b1fa"/>
      <path id="Trazado_151998" data-name="Trazado 151998" d="M296.65,207.29l3.56-6.44a2.23,2.23,0,0,0-1.974-2.85l-6.113,1.112a3.439,3.439,0,0,0-2.092.6l-4.528,3.14-15.222-2.09-4.557,3.623,12.021,5.8-7.758,7.328-6.788-1.2-3.2,1.753,9.013,7.906Z" transform="translate(-206.667 -196.334)" fill="#fdbf44"/>
      <path id="Trazado_151999" data-name="Trazado 151999" d="M268.68,227.293a1.665,1.665,0,0,1-1.1-.413l-9.013-7.906a1.666,1.666,0,0,1-.153-2.352,1.648,1.648,0,0,1,.452-.362l3.2-1.754a1.667,1.667,0,0,1,1.093-.179l5.963,1.058,5.388-5.09-9.841-4.745a1.667,1.667,0,0,1-.313-2.806l4.556-3.623a1.669,1.669,0,0,1,1.264-.347l14.58,2,3.993-2.769a5.054,5.054,0,0,1,2.9-.9h0l5.951-1.083a1.636,1.636,0,0,1,.359-.026,3.9,3.9,0,0,1,3.495,5.043,1.763,1.763,0,0,1-.122.278l-3.562,6.439a1.662,1.662,0,0,1-.525.575l-27.637,18.67a1.661,1.661,0,0,1-.932.286Zm-6.125-9.255,6.258,5.487,26.24-17.727,3.259-5.9a.583.583,0,0,0-.112-.333.606.606,0,0,0-.258-.217l-5.854,1.065a1.676,1.676,0,0,1-.359.026,1.76,1.76,0,0,0-1.081.3l-4.527,3.139a1.67,1.67,0,0,1-1.177.282l-14.517-1.993-1.92,1.527,9.63,4.643a1.667,1.667,0,0,1,.42,2.712l-7.758,7.328a1.669,1.669,0,0,1-1.436.43l-6.211-1.1Z" transform="translate(-206.333 -196)"/>
      <path id="Trazado_152000" data-name="Trazado 152000" d="M208,214h36.667v6.667H208Z" transform="translate(-198 -199)" fill="#fdbf44"/>
      <path id="Trazado_152001" data-name="Trazado 152001" d="M244.333,222H207.667A1.666,1.666,0,0,1,206,220.333v-6.667A1.667,1.667,0,0,1,207.667,212h36.667A1.667,1.667,0,0,1,246,213.667v6.667A1.666,1.666,0,0,1,244.333,222Zm-35-3.333h33.333v-3.333H209.333Z" transform="translate(-197.667 -198.667)"/>
    </g>
    <path id="Trazado_152002" data-name="Trazado 152002" d="M210,240h33.333v55H210Z" transform="translate(-2.333 -7.333)" fill="#fcfeff"/>
    <path id="Trazado_152003" data-name="Trazado 152003" d="M294.334,293h-1.667v-6.667h-3.333V293H242.667V239.667A1.667,1.667,0,0,0,241,238H207.667A1.667,1.667,0,0,0,206,239.667V293h-3.333V241.333h-3.333V293h-1.667A1.667,1.667,0,0,0,196,294.667v6.667A1.666,1.666,0,0,0,197.667,303h96.667A1.666,1.666,0,0,0,296,301.333v-6.667A1.667,1.667,0,0,0,294.334,293Zm-85-51.667h30V293h-30Zm83.334,58.333H199.333v-3.333h93.334Z" transform="translate(0 -7)"/>
    <path id="Trazado_152004" data-name="Trazado 152004" d="M258,240h36.667v45H258Z" transform="translate(-10.333 -7.333)" fill="#fcfeff"/>
    <path id="Trazado_152005" data-name="Trazado 152005" d="M218,260h20v10H218Z" transform="translate(-3.667 -10.666)" fill="#fdbf44"/>
    <path id="Trazado_152006" data-name="Trazado 152006" d="M237.667,256h-.886l-7.833-9.4a1.666,1.666,0,0,0-2.347-.213,1.6,1.6,0,0,0-.213.213l-7.834,9.4h-.886A1.667,1.667,0,0,0,216,257.667v10a1.666,1.666,0,0,0,1.667,1.667h20a1.666,1.666,0,0,0,1.667-1.667v-10A1.667,1.667,0,0,0,237.667,256Zm-10-5.729L232.442,256h-9.55ZM236,266H219.333v-6.667H236Z" transform="translate(-3.333 -8.333)"/>
    <path id="Trazado_152007" data-name="Trazado 152007" d="M216,278h3.333v6.667H216Z" transform="translate(-3.333 -13.666)"/>
    <path id="Trazado_152008" data-name="Trazado 152008" d="M258,286h36.667v6.667H258Z" transform="translate(-10.333 -15)" fill="#fdbf44"/>
    <path id="Trazado_152009" data-name="Trazado 152009" d="M294.334,238H257.667A1.667,1.667,0,0,0,256,239.667v45a1.666,1.666,0,0,0,1.667,1.667h36.667A1.666,1.666,0,0,0,296,284.667v-45A1.667,1.667,0,0,0,294.334,238Zm-1.667,3.333v35H259.333v-35Zm0,41.667H259.333v-3.333h33.333Z" transform="translate(-10 -7)"/>
  </g>
</svg>
