<svg xmlns="http://www.w3.org/2000/svg" width="54.431" height="48.93" viewBox="0 0 54.431 48.93">
  <g id="Grupo_99765" data-name="Grupo 99765" transform="translate(-228.785 -231.535)">
    <g id="Grupo_99770" data-name="Grupo 99770">
      <path id="Trazado_158410" data-name="Trazado 158410" d="M243.331,241.828h15.186a1.063,1.063,0,0,0,0-2.126H243.331a1.063,1.063,0,0,0,0,2.126Z" fill="#ffb74d"/>
      <path id="Trazado_158411" data-name="Trazado 158411" d="M237.076,249.133h21.441a1.063,1.063,0,0,0,0-2.126H237.076a1.063,1.063,0,1,0,0,2.126Z" fill="#ffb74d"/>
      <path id="Trazado_158412" data-name="Trazado 158412" d="M237.076,256.439h15.873a1.063,1.063,0,0,0,0-2.127H237.076a1.063,1.063,0,0,0,0,2.127Z" fill="#ffb74d"/>
      <path id="Trazado_158413" data-name="Trazado 158413" d="M236.841,266.8a1.062,1.062,0,0,0,1-.7c.352-.983,1.736-3.786,3.423-3.786.135,0,.372.015.44.12a2.086,2.086,0,0,1,0,1.38,10.735,10.735,0,0,1-.5,1.56,1.063,1.063,0,0,0,.6,1.352c.779.317,1.281-.293,1.533-.94a6.939,6.939,0,0,1,.9-1.528c.244-.3.621-.738,1.052-.738a.516.516,0,0,1,.309.06,2.823,2.823,0,0,1-.2,1.773,1.073,1.073,0,0,0,.99,1.451h2.466a1.063,1.063,0,0,0,0-2.126h-1.1a3.305,3.305,0,0,0-.4-2.3,2.682,2.682,0,0,0-3.591-.533,2.5,2.5,0,0,0-2.5-1.662c-1.521,0-2.956.939-4.15,2.716a12.5,12.5,0,0,0-1.274,2.48,1.062,1.062,0,0,0,1,1.421Z" fill="#ffb74d"/>
      <path id="Trazado_158414" data-name="Trazado 158414" d="M281.585,243.952l-2.327-2.327a4.509,4.509,0,0,0-6.369,0l-5.087,5.087V232.6a1.063,1.063,0,0,0-1.063-1.064H229.848a1.063,1.063,0,0,0-1.063,1.064v40.529a7.4,7.4,0,0,0,7.337,7.337h15.913a1.063,1.063,0,1,0,0-2.126H241.287l.023-.022a7.277,7.277,0,0,0,2.073-4.125h30.383a5.268,5.268,0,0,1-5.1,4.147h-7.284a1.063,1.063,0,0,0,0,2.126h7.284A7.421,7.421,0,0,0,276,273.128a1.063,1.063,0,0,0-1.064-1.063H267.8V258.531l2.932-2.931a2.41,2.41,0,0,0,1.622-.7l6.9-6.9a4.47,4.47,0,0,0,1.188-2.109,3.44,3.44,0,0,1-.364,4.437l-5.047,5.047a1.064,1.064,0,0,0,0,1.5,1.075,1.075,0,0,0,1.5,0l5.046-5.047a5.566,5.566,0,0,0,0-7.873Zm-50.674,29.176V233.662h34.765v15.246a2.385,2.385,0,0,0-.4,1.247l-6.6,6.6c-.254.254-.5.517-.731.786a16.152,16.152,0,0,0-2.99,5.222l-.972,2.73a1.073,1.073,0,0,0,1.348,1.361c.958-.33,1.917-.657,2.873-.992a15.78,15.78,0,0,0,5.974-3.709l1.5-1.5v11.407H242.4a1.063,1.063,0,0,0-1.063,1.063,5.211,5.211,0,1,1-10.422,0Zm31.762-12.475a15.036,15.036,0,0,1-5.946,3.472,15.173,15.173,0,0,1,3.452-5.864l6.059-6.059,2.443,2.444Zm15.082-14.163-6.9,6.9a.3.3,0,0,1-.418,0l-2.946-2.945a.3.3,0,0,1,0-.416l6.9-6.9a2.377,2.377,0,0,1,3.362,3.362Z" fill="#ffb74d"/>
      <path id="Trazado_158415" data-name="Trazado 158415" d="M257.664,278.995a1.062,1.062,0,1,0-.371,1.276,1.073,1.073,0,0,0,.371-1.276Z" fill="#ffb74d"/>
    </g>
  </g>
</svg>
