<svg xmlns="http://www.w3.org/2000/svg" width="92" height="92" viewBox="0 0 92 92">
  <g id="Grupo_103311" data-name="Grupo 103311" transform="translate(-360 -9183.758)">
    <circle id="Elipse_5233" data-name="Elipse 5233" cx="46" cy="46" r="46" transform="translate(360 9183.758)" fill="#5038a1"/>
    <circle id="Elipse_5234" data-name="Elipse 5234" cx="39.292" cy="39.292" r="39.292" transform="translate(367 9190.467)" fill="#8c6df2"/>
    <g id="Grupo_99773" data-name="Grupo 99773" transform="translate(150.482 8972.587)">
      <path id="Trazado_159953" data-name="Trazado 159953" d="M248.137,266.747v-30.93c0-1.447.345-2.621.771-2.621H231.886a2.621,2.621,0,0,0-2.621,2.621v30.93a2.621,2.621,0,0,0,2.621,2.621h17.022C248.482,269.368,248.137,268.194,248.137,266.747Z" fill="#fff3a5"/>
      <path id="Trazado_159954" data-name="Trazado 159954" d="M280.114,233.2H263.092c.426,0,.771,1.174.771,2.621v30.93c0,1.447-.345,2.621-.771,2.621h17.022a2.621,2.621,0,0,0,2.621-2.621v-30.93A2.621,2.621,0,0,0,280.114,233.2Z" fill="#ffe252"/>
      <path id="Trazado_159955" data-name="Trazado 159955" d="M263.863,266.747v-30.93c0-1.447-.345-2.621-.771-2.621H248.908c-.426,0-.771,1.174-.771,2.621v30.93c0,1.447.345,2.621.771,2.621h14.184C263.518,269.368,263.863,268.194,263.863,266.747Z" fill="#ffe252"/>
      <path id="Trazado_159956" data-name="Trazado 159956" d="M232.41,236.342h15.727v29.88H232.41Z" fill="#e29ded"/>
      <path id="Trazado_159957" data-name="Trazado 159957" d="M263.863,236.342H279.59v29.88H263.863Z" fill="#a72ad3"/>
      <path id="Trazado_159958" data-name="Trazado 159958" d="M248.137,236.342h15.726v29.88H248.137Z" fill="#e745ee"/>
      <path id="Trazado_159959" data-name="Trazado 159959" d="M256,267.009H232.41a.786.786,0,0,1-.786-.787v-29.88a.786.786,0,0,1,.786-.787H256a.786.786,0,0,1,.786.787v29.88A.786.786,0,0,1,256,267.009Zm-22.8-1.573h22.018V237.128H233.2Z" fill="#1d1d1b"/>
      <path id="Trazado_159960" data-name="Trazado 159960" d="M280.114,270.154H231.886a3.412,3.412,0,0,1-3.408-3.407v-30.93a3.412,3.412,0,0,1,3.408-3.407h48.228a3.412,3.412,0,0,1,3.408,3.407v30.93A3.412,3.412,0,0,1,280.114,270.154Zm-48.228-36.171a1.837,1.837,0,0,0-1.835,1.834v30.93a1.837,1.837,0,0,0,1.835,1.834h48.228a1.837,1.837,0,0,0,1.835-1.834v-30.93a1.837,1.837,0,0,0-1.835-1.834Z" fill="#1d1d1b"/>
      <path id="Trazado_159961" data-name="Trazado 159961" d="M279.59,267.009H256a.786.786,0,0,1-.786-.787v-29.88a.786.786,0,0,1,.786-.787h23.59a.786.786,0,0,1,.786.787v29.88A.786.786,0,0,1,279.59,267.009Zm-22.8-1.573H278.8V237.128H256.786Z" fill="#1d1d1b"/>
      <path id="Trazado_159962" data-name="Trazado 159962" d="M241.9,254.624c0-3.511,1.03-6.356,2.3-6.356a6.356,6.356,0,1,0,0,12.712C242.935,260.98,241.9,258.134,241.9,254.624Z" fill="#ef7f72"/>
      <path id="Trazado_159963" data-name="Trazado 159963" d="M244.205,248.268c1.27,0,2.3,2.845,2.3,6.356s-1.03,6.356-2.3,6.356a6.356,6.356,0,1,0,0-12.712Z" fill="#e8383b"/>
      <ellipse id="Elipse_5253" data-name="Elipse 5253" cx="2.3" cy="6.356" rx="2.3" ry="6.356" transform="translate(241.906 248.268)" fill="#e95947"/>
      <g id="Grupo_100538" data-name="Grupo 100538">
        <path id="Trazado_159964" data-name="Trazado 159964" d="M244.205,261.766a7.142,7.142,0,1,1,7.143-7.142A7.151,7.151,0,0,1,244.205,261.766Zm0-12.712a5.57,5.57,0,1,0,5.57,5.57A5.577,5.577,0,0,0,244.205,249.054Z" fill="#1d1d1b"/>
        <circle id="Elipse_5254" data-name="Elipse 5254" cx="1.638" cy="1.638" r="1.638" transform="translate(242.567 252.986)" fill="#1d1d1b"/>
        <path id="Trazado_159965" data-name="Trazado 159965" d="M247.715,253.772a.786.786,0,0,1-.712-.453,3.085,3.085,0,0,0-5.6,0,.786.786,0,0,1-1.424-.666,4.657,4.657,0,0,1,8.444,0,.786.786,0,0,1-.712,1.119Z" fill="#1d1d1b"/>
        <path id="Trazado_159966" data-name="Trazado 159966" d="M244.205,259.287a4.656,4.656,0,0,1-4.3-2.85.786.786,0,0,1,1.449-.612,3.091,3.091,0,0,0,5.7,0,.786.786,0,0,1,1.449.612,4.656,4.656,0,0,1-4.3,2.85Z" fill="#1d1d1b"/>
      </g>
      <path id="Trazado_159967" data-name="Trazado 159967" d="M260.718,239.151h5.339v7.675h-5.339Z" fill="#ef7f72"/>
      <path id="Trazado_159968" data-name="Trazado 159968" d="M271.105,239.151h5.34v7.675h-5.34Z" fill="#e8383b"/>
      <path id="Trazado_159969" data-name="Trazado 159969" d="M266.057,239.151h5.048v7.675h-5.048Z" fill="#e95947"/>
      <path id="Trazado_159970" data-name="Trazado 159970" d="M276.445,247.612H260.718a.786.786,0,0,1-.786-.786v-7.675a.786.786,0,0,1,.786-.786h15.727a.786.786,0,0,1,.786.786v7.675A.786.786,0,0,1,276.445,247.612ZM261.5,246.04h14.154v-6.1H261.5Z" fill="#1d1d1b"/>
      <path id="Trazado_159971" data-name="Trazado 159971" d="M270.154,242.108h-3.145a.786.786,0,1,1,0-1.573h3.145a.786.786,0,0,1,0,1.573Z" fill="#1d1d1b"/>
      <path id="Trazado_159972" data-name="Trazado 159972" d="M273.3,244.991h-9.436a.786.786,0,1,1,0-1.572H273.3a.786.786,0,1,1,0,1.572Z" fill="#1d1d1b"/>
      <path id="Trazado_159973" data-name="Trazado 159973" d="M262.093,269.368h4.43v3.145h-4.43Z" fill="#89aadb"/>
      <path id="Trazado_159974" data-name="Trazado 159974" d="M270.639,269.368h4.431v3.145h-4.431Z" fill="#4b67b0"/>
      <path id="Trazado_159975" data-name="Trazado 159975" d="M266.523,269.368h4.116v3.145h-4.116Z" fill="#6287c5"/>
      <path id="Trazado_159976" data-name="Trazado 159976" d="M271.709,272.513h6.732V278.8h-6.732Z" fill="#4b67b0"/>
      <path id="Trazado_159977" data-name="Trazado 159977" d="M258.722,272.513h6.732V278.8h-6.732Z" fill="#89aadb"/>
      <path id="Trazado_159978" data-name="Trazado 159978" d="M265.454,272.513h6.254V278.8h-6.254Z" fill="#6287c5"/>
      <path id="Trazado_159979" data-name="Trazado 159979" d="M278.441,279.59H258.722a.786.786,0,0,1-.786-.786v-6.291a.786.786,0,0,1,.786-.786h19.719a.786.786,0,0,1,.786.786V278.8a.786.786,0,0,1-.786.786Zm-18.933-1.573h18.146V273.3H259.508Z" fill="#1d1d1b"/>
      <path id="Trazado_159980" data-name="Trazado 159980" d="M275.07,273.3H262.093a.786.786,0,0,1-.787-.786v-3.145a.787.787,0,0,1,.787-.787H275.07a.786.786,0,0,1,.786.787v3.145A.786.786,0,0,1,275.07,273.3Zm-12.191-1.572h11.4v-1.573h-11.4Z" fill="#1d1d1b"/>
      <path id="Trazado_159981" data-name="Trazado 159981" d="M268.581,255.214c1.006,0,1.753,2.989,1.535,6.14l-.555,8.014h2.166l1.78-8.014a5.045,5.045,0,0,0-4.926-6.14Z" fill="#4b67b0"/>
      <path id="Trazado_159982" data-name="Trazado 159982" d="M268.581,255.214a5.046,5.046,0,0,0-4.926,6.14l1.781,8.014H267.6l-.555-8.014c-.218-3.151.529-6.14,1.534-6.14Z" fill="#89aadb"/>
      <path id="Trazado_159983" data-name="Trazado 159983" d="M268.581,255.214c-1.005,0-1.752,2.989-1.534,6.14l.555,8.014h1.959l.555-8.014c.218-3.151-.529-6.14-1.535-6.14Z" fill="#6287c5"/>
      <path id="Trazado_159984" data-name="Trazado 159984" d="M271.727,270.154h-6.291a.786.786,0,0,1-.768-.616l-1.781-8.013a5.833,5.833,0,1,1,11.388,0l-1.781,8.013a.786.786,0,0,1-.767.616Zm-5.66-1.573H271.1l1.644-7.4a4.26,4.26,0,1,0-8.317,0Z" fill="#1d1d1b"/>
    </g>
  </g>
</svg>
