<svg xmlns="http://www.w3.org/2000/svg" xmlns:xlink="http://www.w3.org/1999/xlink" width="54.149" height="65.855" viewBox="0 0 54.149 65.855">
  <defs>
    <filter id="Path_100534" x="0" y="0" width="54.149" height="65.855" filterUnits="userSpaceOnUse">
      <feOffset dx="1.049" dy="11" input="SourceAlpha"/>
      <feGaussianBlur stdDeviation="3.5" result="blur"/>
      <feFlood flood-color="#3d91aa" flood-opacity="0.749"/>
      <feComposite operator="in" in2="blur"/>
      <feComposite in="SourceGraphic"/>
    </filter>
    <clipPath id="clip-path">
      <path id="Path_100535" data-name="Path 100535" d="M534.716,494.413l-21.691-40.768a2.076,2.076,0,0,1,2.484-2.947l29.272,9.671a2.078,2.078,0,0,1,1.366,2.463l-7.581,31.1A2.076,2.076,0,0,1,534.716,494.413Z" fill="none"/>
    </clipPath>
  </defs>
  <g id="Group_126359" data-name="Group 126359" transform="translate(-645.826 -517.757)">
    <g id="Group_126358" data-name="Group 126358">
      <g transform="matrix(1, 0, 0, 1, 645.83, 517.76)" filter="url(#Path_100534)">
        <path id="Path_100534-2" data-name="Path 100534" d="M540.7,490.891l-21.146-39.743a2.3,2.3,0,0,1,2.755-3.269l28.536,9.428a2.3,2.3,0,0,1,1.515,2.732l-7.39,30.315A2.3,2.3,0,0,1,540.7,490.891Z" transform="translate(-509.83 -447.76)" fill="#1a2e48"/>
      </g>
      <g id="Group_53773" data-name="Group 53773" transform="translate(136 70)">
        <g id="Group_53772" data-name="Group 53772" clip-path="url(#clip-path)">
          <line id="Line_191" data-name="Line 191" x2="56.169" transform="translate(505.207 496.636)" fill="none" stroke="#fff" stroke-linecap="round" stroke-miterlimit="10" stroke-width="1.094"/>
          <line id="Line_192" data-name="Line 192" x2="56.169" transform="translate(505.207 493.631)" fill="none" stroke="#f6f6eb" stroke-linecap="round" stroke-miterlimit="10" stroke-width="1.094"/>
          <line id="Line_193" data-name="Line 193" x2="56.169" transform="translate(505.207 490.627)" fill="none" stroke="#f6f6eb" stroke-linecap="round" stroke-miterlimit="10" stroke-width="1.094"/>
          <line id="Line_194" data-name="Line 194" x2="56.169" transform="translate(505.207 487.622)" fill="none" stroke="#f6f6eb" stroke-linecap="round" stroke-miterlimit="10" stroke-width="1.094"/>
          <line id="Line_195" data-name="Line 195" x2="56.169" transform="translate(505.207 484.617)" fill="none" stroke="#f6f6eb" stroke-linecap="round" stroke-miterlimit="10" stroke-width="1.094"/>
          <line id="Line_196" data-name="Line 196" x2="56.169" transform="translate(505.207 481.613)" fill="none" stroke="#f6f6eb" stroke-linecap="round" stroke-miterlimit="10" stroke-width="1.094"/>
          <line id="Line_197" data-name="Line 197" x2="56.169" transform="translate(505.207 478.608)" fill="none" stroke="#f6f6eb" stroke-linecap="round" stroke-miterlimit="10" stroke-width="1.094"/>
          <line id="Line_198" data-name="Line 198" x2="56.169" transform="translate(505.207 475.603)" fill="none" stroke="#f6f6eb" stroke-linecap="round" stroke-miterlimit="10" stroke-width="1.094"/>
          <line id="Line_199" data-name="Line 199" x2="56.169" transform="translate(505.207 472.599)" fill="none" stroke="#f6f6eb" stroke-linecap="round" stroke-miterlimit="10" stroke-width="1.094"/>
          <line id="Line_200" data-name="Line 200" x2="56.169" transform="translate(505.207 469.594)" fill="none" stroke="#f6f6eb" stroke-linecap="round" stroke-miterlimit="10" stroke-width="1.094"/>
          <line id="Line_201" data-name="Line 201" x2="56.169" transform="translate(505.207 466.589)" fill="none" stroke="#f6f6eb" stroke-linecap="round" stroke-miterlimit="10" stroke-width="1.094"/>
          <line id="Line_202" data-name="Line 202" x2="56.169" transform="translate(505.207 463.585)" fill="none" stroke="#f6f6eb" stroke-linecap="round" stroke-miterlimit="10" stroke-width="1.094"/>
          <line id="Line_203" data-name="Line 203" x2="56.169" transform="translate(505.207 460.58)" fill="none" stroke="#f6f6eb" stroke-linecap="round" stroke-miterlimit="10" stroke-width="1.094"/>
          <line id="Line_204" data-name="Line 204" x2="56.169" transform="translate(505.207 457.576)" fill="none" stroke="#f6f6eb" stroke-linecap="round" stroke-miterlimit="10" stroke-width="1.094"/>
          <line id="Line_205" data-name="Line 205" x2="56.169" transform="translate(505.207 454.571)" fill="none" stroke="#f6f6eb" stroke-linecap="round" stroke-miterlimit="10" stroke-width="1.094"/>
          <line id="Line_206" data-name="Line 206" x2="56.169" transform="translate(505.207 451.566)" fill="none" stroke="#f6f6eb" stroke-linecap="round" stroke-miterlimit="10" stroke-width="1.094"/>
          <line id="Line_207" data-name="Line 207" x2="56.169" transform="translate(505.207 448.562)" fill="none" stroke="#fff" stroke-linecap="round" stroke-miterlimit="10" stroke-width="1.094"/>
        </g>
      </g>
    </g>
  </g>
</svg>
