<svg xmlns="http://www.w3.org/2000/svg" xmlns:xlink="http://www.w3.org/1999/xlink" width="117.674" height="107.921" viewBox="0 0 117.674 107.921">
  <defs>
    <filter id="Path_100540" x="0" y="14.17" width="117.674" height="93.751" filterUnits="userSpaceOnUse">
      <feOffset dx="1.049" dy="11" input="SourceAlpha"/>
      <feGaussianBlur stdDeviation="3.5" result="blur"/>
      <feFlood flood-color="#3d91aa" flood-opacity="0.749"/>
      <feComposite operator="in" in2="blur"/>
      <feComposite in="SourceGraphic"/>
    </filter>
    <clipPath id="clip-path">
      <path id="Path_100541" data-name="Path 100541" d="M1144.457,177.632l88.856-47.277a4.525,4.525,0,0,1,6.422,5.414l-21.077,63.8a4.526,4.526,0,0,1-5.368,2.977l-67.779-16.522A4.525,4.525,0,0,1,1144.457,177.632Z" fill="none"/>
    </clipPath>
  </defs>
  <g id="Group_126358" data-name="Group 126358" transform="translate(-1440.682 -111.968)">
    <g transform="matrix(1, 0, 0, 1, 1440.68, 111.97)" filter="url(#Path_100540)">
      <path id="Path_100540-2" data-name="Path 100540" d="M1152.134,190.673l86.623-46.089a5.019,5.019,0,0,1,7.123,6.006l-20.548,62.2a5.018,5.018,0,0,1-5.954,3.3L1153.3,199.981A5.02,5.02,0,0,1,1152.134,190.673Z" transform="translate(-1140.02 -129.81)" fill="#f9b131"/>
    </g>
    <g id="Group_53774" data-name="Group 53774" transform="translate(299.911 -17.842)" clip-path="url(#clip-path)">
      <line id="Line_212" data-name="Line 212" y2="122.424" transform="translate(1139.612 113.314)" fill="none" stroke="#fff" stroke-linecap="round" stroke-miterlimit="10" stroke-width="1.094"/>
      <line id="Line_213" data-name="Line 213" y2="122.424" transform="translate(1146.161 113.314)" fill="none" stroke="#f6f6eb" stroke-linecap="round" stroke-miterlimit="10" stroke-width="1.094"/>
      <line id="Line_214" data-name="Line 214" y2="122.424" transform="translate(1152.71 113.314)" fill="none" stroke="#f6f6eb" stroke-linecap="round" stroke-miterlimit="10" stroke-width="1.094"/>
      <line id="Line_215" data-name="Line 215" y2="122.424" transform="translate(1159.259 113.314)" fill="none" stroke="#f6f6eb" stroke-linecap="round" stroke-miterlimit="10" stroke-width="1.094"/>
      <line id="Line_216" data-name="Line 216" y2="122.424" transform="translate(1165.807 113.314)" fill="none" stroke="#f6f6eb" stroke-linecap="round" stroke-miterlimit="10" stroke-width="1.094"/>
      <line id="Line_217" data-name="Line 217" y2="122.424" transform="translate(1172.356 113.314)" fill="none" stroke="#f6f6eb" stroke-linecap="round" stroke-miterlimit="10" stroke-width="1.094"/>
      <line id="Line_218" data-name="Line 218" y2="122.424" transform="translate(1178.905 113.314)" fill="none" stroke="#f6f6eb" stroke-linecap="round" stroke-miterlimit="10" stroke-width="1.094"/>
      <line id="Line_219" data-name="Line 219" y2="122.424" transform="translate(1185.454 113.314)" fill="none" stroke="#f6f6eb" stroke-linecap="round" stroke-miterlimit="10" stroke-width="1.094"/>
      <line id="Line_220" data-name="Line 220" y2="122.424" transform="translate(1192.003 113.314)" fill="none" stroke="#f6f6eb" stroke-linecap="round" stroke-miterlimit="10" stroke-width="1.094"/>
      <line id="Line_221" data-name="Line 221" y2="122.424" transform="translate(1198.551 113.314)" fill="none" stroke="#f6f6eb" stroke-linecap="round" stroke-miterlimit="10" stroke-width="1.094"/>
      <line id="Line_222" data-name="Line 222" y2="122.424" transform="translate(1205.1 113.314)" fill="none" stroke="#f6f6eb" stroke-linecap="round" stroke-miterlimit="10" stroke-width="1.094"/>
      <line id="Line_223" data-name="Line 223" y2="122.424" transform="translate(1211.649 113.314)" fill="none" stroke="#f6f6eb" stroke-linecap="round" stroke-miterlimit="10" stroke-width="1.094"/>
      <line id="Line_224" data-name="Line 224" y2="122.424" transform="translate(1218.198 113.314)" fill="none" stroke="#f6f6eb" stroke-linecap="round" stroke-miterlimit="10" stroke-width="1.094"/>
      <line id="Line_225" data-name="Line 225" y2="122.424" transform="translate(1224.746 113.314)" fill="none" stroke="#f6f6eb" stroke-linecap="round" stroke-miterlimit="10" stroke-width="1.094"/>
      <line id="Line_226" data-name="Line 226" y2="122.424" transform="translate(1231.295 113.314)" fill="none" stroke="#f6f6eb" stroke-linecap="round" stroke-miterlimit="10" stroke-width="1.094"/>
      <line id="Line_227" data-name="Line 227" y2="122.424" transform="translate(1237.844 113.314)" fill="none" stroke="#f6f6eb" stroke-linecap="round" stroke-miterlimit="10" stroke-width="1.094"/>
      <line id="Line_228" data-name="Line 228" y2="122.424" transform="translate(1244.393 113.314)" fill="none" stroke="#fff" stroke-linecap="round" stroke-miterlimit="10" stroke-width="1.094"/>
    </g>
  </g>
</svg>
