<svg xmlns="http://www.w3.org/2000/svg" width="55.715" height="35.132" viewBox="0 0 55.715 35.132">
  <g id="Grupo_81866" data-name="Grupo 81866" transform="translate(-991.643 -866.898)">
    <g id="Grupo_53935" data-name="Grupo 53935" transform="translate(991.643 869.739)">
      <path id="Trazado_101184" data-name="Trazado 101184" d="M1498.9,909.56a9.038,9.038,0,1,0,7.68,13.78,11.69,11.69,0,0,1-.962-10.766A9.01,9.01,0,0,0,1498.9,909.56Z" transform="translate(-1486.68 -909.56)" fill="#97181a"/>
      <path id="Trazado_101185" data-name="Trazado 101185" d="M1503.042,936.982c-.11.087-.246.188-.4.294a6.2,6.2,0,0,1-11.635-.055c-.281-.2-.5-.372-.623-.477-.046-.041-.094-.077-.138-.119l-.077.068c-5.626,4.865-5.548,13.38-5.542,13.74l0,.3h14.314c.218-3.3,1.194-9.171,5.136-13.513a6.337,6.337,0,0,0-.683-.55c-.078.071-.159.141-.24.21Z" transform="translate(-1484.629 -920.166)" fill="#97181a"/>
    </g>
    <g id="Grupo_53936" data-name="Grupo 53936" transform="translate(1007.126 885.879)">
      <path id="Trazado_101186" data-name="Trazado 101186" d="M1531.581,936.152c-.091.082-.183.162-.276.241-.045.039-.091.076-.136.114a12.486,12.486,0,0,1-5.6,2.45c-.266.036-.53.079-.8.1-.229.013-.458.023-.691.023a11.043,11.043,0,0,1-2.453-.28,13.34,13.34,0,0,1-4.946-2.561c-.051-.047-.107-.088-.157-.135l-.088.077c-6.441,5.57-6.353,15.318-6.345,15.73l0,.345h27.566l-.015-.365C1537.19,940.624,1532.687,936.9,1531.581,936.152Zm-3.832,7.628-3.873-1.974L1520,943.78v-4.794l3.873,2.07,3.873-2.07Z" transform="translate(-1510.09 -936.1)" fill="#97181a"/>
    </g>
    <g id="Grupo_53938" data-name="Grupo 53938" transform="translate(1010.815 866.898)">
      <g id="Grupo_53937" data-name="Grupo 53937">
        <path id="Trazado_101187" data-name="Trazado 101187" d="M1516.157,915.246a10.367,10.367,0,0,0,10.354,10.351h0a10.354,10.354,0,1,0-10.357-10.351Z" transform="translate(-1516.157 -904.888)" fill="#97181a"/>
      </g>
    </g>
    <path id="Trazado_101188" data-name="Trazado 101188" d="M1556.334,951.074l11.618,0,0-.271c.005-.323-.107-7.553-5.161-11.927l-.069-.06q-.245.227-.506.435l-3.595,7-.638-4.105,1.023-1.655a8.719,8.719,0,0,1-2.032.241c-.182,0-.363-.008-.543-.019a8.7,8.7,0,0,1-.971-.116c-.124-.022-.248-.046-.371-.073l1.008,1.621-.671,3.909A28.21,28.21,0,0,1,1556.334,951.074Z" transform="translate(-520.6 -51.287)" fill="#97181a"/>
    <path id="Trazado_101189" data-name="Trazado 101189" d="M1554.345,929.677a8.121,8.121,0,1,0-4.86-14.621,10.886,10.886,0,0,1-2,10.836A8.122,8.122,0,0,0,1554.345,929.677Z" transform="translate(-517.618 -41.34)" fill="#97181a"/>
  </g>
</svg>
