<svg xmlns="http://www.w3.org/2000/svg" width="260.56" height="320" viewBox="0 0 260.56 320">
  <g id="Grupo_81224" data-name="Grupo 81224" transform="translate(370 46)">
    <path id="Trazado_140216" data-name="Trazado 140216" d="M-152.389,124.006c.45,48.426,42.482,64.542,42.949,64.747a175.14,175.14,0,0,1-22.145,45.512c-13.337,19.494-27.181,38.916-48.986,39.319-21.427.394-28.317-12.706-52.813-12.706s-32.145,12.3-52.428,13.1c-21.048.8-37.077-21.079-50.525-40.5-27.48-39.728-48.48-112.265-20.282-161.228,14.008-24.315,39.042-39.712,66.215-40.107,20.669-.394,40.178,13.905,52.813,13.905s36.335-17.2,61.258-14.671c10.434.435,39.721,4.215,58.527,31.741-1.516.939-34.947,20.4-34.583,60.888M-192.657,5.093c11.175-13.527,18.7-32.357,16.644-51.093-16.108.647-35.585,10.734-47.139,24.252-10.354,11.973-19.422,31.134-16.975,49.5,17.953,1.389,36.294-9.124,47.47-22.659" transform="translate(0)"/>
  </g>
</svg>
