<svg xmlns="http://www.w3.org/2000/svg" width="620" height="317" viewBox="0 0 620 317">
  <g id="Grupo_104189" data-name="Grupo 104189" transform="translate(-180 -713)">
    <rect id="Rectángulo_25689" data-name="Rectángulo 25689" width="620" height="317" transform="translate(180 713)" fill="#8c6df2" opacity="0.7"/>
    <g id="Grupo_100550" data-name="Grupo 100550" transform="translate(234.244 615.999)">
      <g id="Grupo_100548" data-name="Grupo 100548">
        <g id="Grupo_100536" data-name="Grupo 100536">
          <path id="Trazado_159952" data-name="Trazado 159952" d="M274.9,189.132a5.937,5.937,0,0,0-5.937-5.937h-25.93a5.937,5.937,0,0,0-5.937,5.937v28.195h9.36V194.14a1.585,1.585,0,0,1,1.585-1.585h15.914a1.585,1.585,0,0,1,1.585,1.585v23.567h9.36Z" fill="#f2fffe"/>
        </g>
        <path id="Trazado_159953" data-name="Trazado 159953" d="M230.283,328.807h-5.9a3.4,3.4,0,0,1-3.394-3.394V313.027h12.69v12.386A3.4,3.4,0,0,1,230.283,328.807Z" fill="#f2fffe"/>
        <path id="Trazado_159954" data-name="Trazado 159954" d="M282.011,328.807h5.9a3.4,3.4,0,0,0,3.394-3.394V311.272H278.618v14.141a3.393,3.393,0,0,0,3.393,3.394Z" fill="#f2fffe"/>
        <path id="Trazado_159955" data-name="Trazado 159955" d="M297.856,308.891l6.2-15.494V226.409l-3.558-5.215-3.621-12.6-16.453-6.5H231.582s-10.1,6.163-10.594,6.273-8.472,7.868-8.472,7.868v7.424l-4.566,2.746V293.4l5.5,11.829s8.16,8.48,8.4,8.48,9.736,4,9.736,4H280.42l6.5-5.129Z" fill="#fff7b0"/>
        <g id="Grupo_100547" data-name="Grupo 100547">
          <g id="Grupo_100542" data-name="Grupo 100542">
            <g id="Grupo_100538" data-name="Grupo 100538">
              <g id="Grupo_100537" data-name="Grupo 100537">
                <path id="Trazado_159956" data-name="Trazado 159956" d="M304.052,215.136V226.41h-6.111a4.419,4.419,0,0,1-4.42-4.42v-6.854a2.508,2.508,0,0,0-2.507-2.507H284.84a4.417,4.417,0,0,1-4.42-4.417V202.1h10.594a13.039,13.039,0,0,1,13.038,13.037Z" fill="#fffce2"/>
                <path id="Trazado_159957" data-name="Trazado 159957" d="M297.941,289.01a8.807,8.807,0,0,0-8.807,8.807v.679a4.3,4.3,0,0,1-4.294,4.294,8.8,8.8,0,0,0-6.968,3.426,5.1,5.1,0,0,1-4.034,1.964H240.369a13.037,13.037,0,0,1-13.037-13.037V220.35a4,4,0,0,1,2.661-3.8,8.817,8.817,0,0,0,5.976-8.336V202.1h-4.387l-2.1,4.025h-6.665l-8.215,8.13L207.95,226.41V293.4l4.89,13.888,12.535,7.52,6.207,2.9h48.837l8.059-5.336,12.059-8.007,1.157-8.3,2.357-2.671V289.01Z" fill="#fff276"/>
                <path id="Trazado_159958" data-name="Trazado 159958" d="M231.582,202.1v6.113a4.417,4.417,0,0,1-4.42,4.417h-6.175a2.509,2.509,0,0,0-2.507,2.507v6.854a4.418,4.418,0,0,1-4.419,4.42H207.95V215.136A13.039,13.039,0,0,1,220.987,202.1Z" fill="#fffce2"/>
              </g>
            </g>
            <g id="Grupo_100541" data-name="Grupo 100541">
              <g id="Grupo_100540" data-name="Grupo 100540">
                <g id="Grupo_100539" data-name="Grupo 100539">
                  <path id="Trazado_159959" data-name="Trazado 159959" d="M304.052,293.4v11.273a13.039,13.039,0,0,1-13.038,13.037H280.42V311.6a4.418,4.418,0,0,1,4.42-4.42h6.174a2.508,2.508,0,0,0,2.507-2.507v-6.854a4.42,4.42,0,0,1,4.42-4.419Z" fill="#fffce2"/>
                  <path id="Trazado_159960" data-name="Trazado 159960" d="M231.582,311.6v6.11h-10.6a13.039,13.039,0,0,1-13.037-13.037V293.4h6.111a4.419,4.419,0,0,1,4.419,4.419v6.854a2.509,2.509,0,0,0,2.507,2.507h6.175a4.418,4.418,0,0,1,4.42,4.42Z" fill="#fffce2"/>
                </g>
              </g>
            </g>
          </g>
          <g id="Grupo_100543" data-name="Grupo 100543">
            <path id="Trazado_159961" data-name="Trazado 159961" d="M248.583,294.421h-5.429a1.689,1.689,0,0,1-1.673-1.7V226.6a1.689,1.689,0,0,1,1.673-1.7h5.429a1.689,1.689,0,0,1,1.673,1.7v66.117A1.689,1.689,0,0,1,248.583,294.421Z" fill="#fff276"/>
          </g>
          <g id="Grupo_100544" data-name="Grupo 100544">
            <path id="Trazado_159962" data-name="Trazado 159962" d="M228.089,285.309h-5.428a1.689,1.689,0,0,1-1.673-1.7V235.711a1.689,1.689,0,0,1,1.673-1.7h5.428a1.69,1.69,0,0,1,1.674,1.7v47.894A1.69,1.69,0,0,1,228.089,285.309Z" fill="#ffeb34"/>
          </g>
          <g id="Grupo_100545" data-name="Grupo 100545">
            <path id="Trazado_159963" data-name="Trazado 159963" d="M263.711,294.421h5.429a1.689,1.689,0,0,0,1.673-1.7V226.6a1.689,1.689,0,0,0-1.673-1.7h-5.429a1.689,1.689,0,0,0-1.673,1.7v66.117A1.689,1.689,0,0,0,263.711,294.421Z" fill="#fff276"/>
          </g>
          <g id="Grupo_100546" data-name="Grupo 100546">
            <path id="Trazado_159964" data-name="Trazado 159964" d="M284.2,285.309h5.429a1.689,1.689,0,0,0,1.673-1.7V235.711a1.689,1.689,0,0,0-1.673-1.7H284.2a1.689,1.689,0,0,0-1.673,1.7v47.894A1.689,1.689,0,0,0,284.2,285.309Z" fill="#fff276"/>
          </g>
        </g>
      </g>
      <g id="Grupo_100549" data-name="Grupo 100549">
        <path id="Trazado_159965" data-name="Trazado 159965" d="M304.051,243.435a2.194,2.194,0,0,0-2.194,2.194V291.2H297.94a6.62,6.62,0,0,0-6.613,6.613v6.853a.313.313,0,0,1-.313.313h-6.175a6.62,6.62,0,0,0-6.613,6.613v3.917h-44.45V311.6a6.62,6.62,0,0,0-6.613-6.613h-6.176a.313.313,0,0,1-.312-.313v-6.853a6.621,6.621,0,0,0-6.614-6.613h-3.917v-8.258a2.194,2.194,0,1,0-4.388,0v21.724a15.253,15.253,0,0,0,13.037,15.071v5.671A5.6,5.6,0,0,0,224.381,331h5.9a5.6,5.6,0,0,0,5.588-5.588V319.9h40.553v5.511A5.594,5.594,0,0,0,282.012,331h5.9a5.6,5.6,0,0,0,5.588-5.588V319.7a15.252,15.252,0,0,0,12.744-15.024V245.629a2.194,2.194,0,0,0-2.194-2.194Zm-93.907,61.236v-9.079h3.917a2.228,2.228,0,0,1,2.226,2.226v6.853a4.7,4.7,0,0,0,4.7,4.7h6.176a2.228,2.228,0,0,1,2.225,2.226v3.917h-8.4a10.855,10.855,0,0,1-10.843-10.843Zm21.339,20.742a1.2,1.2,0,0,1-1.2,1.2h-5.9a1.2,1.2,0,0,1-1.2-1.2V319.9h8.3v5.511Zm56.43,1.2h-5.9a1.2,1.2,0,0,1-1.2-1.2V319.9h8.3v5.512a1.2,1.2,0,0,1-1.2,1.2Zm3.1-11.1h-8.4V311.6a2.227,2.227,0,0,1,2.225-2.225h6.176a4.705,4.705,0,0,0,4.7-4.7v-6.854a2.228,2.228,0,0,1,2.226-2.225h3.917v9.079a10.855,10.855,0,0,1-10.843,10.843Z"/>
        <path id="Trazado_159966" data-name="Trazado 159966" d="M291.014,199.906H277.1V189.132A8.14,8.14,0,0,0,268.966,181h-12.44a2.194,2.194,0,0,0,0,4.388h12.44a3.747,3.747,0,0,1,3.743,3.743v10.774h-4.973v-7.351a2.194,2.194,0,0,0-2.193-2.194H246.459a2.194,2.194,0,0,0-2.194,2.194v7.351h-4.973V189.132a3.747,3.747,0,0,1,3.743-3.743h4.141a2.194,2.194,0,1,0,0-4.388h-4.141a8.139,8.139,0,0,0-8.13,8.131v10.774H220.987a15.248,15.248,0,0,0-15.231,15.231V273.6a2.194,2.194,0,1,0,4.388,0V228.6h3.917a6.621,6.621,0,0,0,6.614-6.613v-6.853a.313.313,0,0,1,.312-.313h6.176a6.62,6.62,0,0,0,6.613-6.613v-3.917h44.449v3.917a6.621,6.621,0,0,0,6.613,6.613h6.176a.313.313,0,0,1,.313.313v6.853a6.62,6.62,0,0,0,6.613,6.613h3.917v7.677a2.194,2.194,0,1,0,4.388,0V215.137A15.249,15.249,0,0,0,291.014,199.906Zm-42.361-5.157h14.7v5.157h-14.7Zm-19.265,13.462a2.227,2.227,0,0,1-2.225,2.225h-6.176a4.706,4.706,0,0,0-4.7,4.7v6.853a2.228,2.228,0,0,1-2.226,2.225h-3.917v-9.078a10.855,10.855,0,0,1,10.843-10.843h8.4Zm68.552,16a2.227,2.227,0,0,1-2.225-2.225v-6.853a4.706,4.706,0,0,0-4.7-4.7h-6.175a2.229,2.229,0,0,1-2.226-2.226v-3.917h8.4a10.855,10.855,0,0,1,10.843,10.843v9.078Z"/>
        <path id="Trazado_159967" data-name="Trazado 159967" d="M248.583,296.615a3.888,3.888,0,0,0,3.867-3.9V226.6a3.887,3.887,0,0,0-3.867-3.9h-5.429a3.887,3.887,0,0,0-3.867,3.9v66.116a3.888,3.888,0,0,0,3.867,3.9Zm-4.909-69.525h4.388v65.137h-4.388Z"/>
        <path id="Trazado_159968" data-name="Trazado 159968" d="M228.089,287.5a3.887,3.887,0,0,0,3.868-3.9V235.712a3.888,3.888,0,0,0-3.868-3.9h-5.428a3.887,3.887,0,0,0-3.867,3.9v47.893a3.887,3.887,0,0,0,3.867,3.9Zm-4.908-51.3h4.388v46.914h-4.388Z"/>
        <path id="Trazado_159969" data-name="Trazado 159969" d="M269.14,296.615a3.888,3.888,0,0,0,3.867-3.9V226.6a3.887,3.887,0,0,0-3.867-3.9h-5.429a3.887,3.887,0,0,0-3.867,3.9v66.116a3.888,3.888,0,0,0,3.867,3.9Zm-4.908-69.525h4.387v65.137h-4.387Z"/>
        <path id="Trazado_159970" data-name="Trazado 159970" d="M289.633,287.5a3.886,3.886,0,0,0,3.867-3.9V235.712a3.887,3.887,0,0,0-3.867-3.9H284.2a3.888,3.888,0,0,0-3.868,3.9v47.893a3.887,3.887,0,0,0,3.868,3.9Zm-4.908-51.3h4.388v46.914h-4.388Z"/>
      </g>
    </g>
  </g>
</svg>
