<svg id="Grupo_103417" data-name="Grupo 103417" xmlns="http://www.w3.org/2000/svg" width="121" height="121" viewBox="0 0 121 121">
  <circle id="Elipse_4392" data-name="Elipse 4392" cx="60.5" cy="60.5" r="60.5" fill="#8c71ef"/>
  <path id="Trazado_107120" data-name="Trazado 107120" d="M53.993,0A53.993,53.993,0,1,1,0,53.993,53.993,53.993,0,0,1,53.993,0Z" transform="translate(7 7)" fill="#fff"/>
  <g id="Grupo_103422" data-name="Grupo 103422" transform="translate(-166.771 -167)">
    <path id="Trazado_164688" data-name="Trazado 164688" d="M199.01,252.172h19.171l-1.824,6.434h-3.276a1.2,1.2,0,0,0,0,2.394H241.41a1.2,1.2,0,0,0,0-2.394h-3.276l-1.824-6.434h19.172a1.23,1.23,0,0,0,1.238-1.194V212.771a1.19,1.19,0,0,0-1.238-1.145H233.2l2.124-6.467a1.22,1.22,0,0,0-.291-1.234,1.2,1.2,0,0,0-1.221-.3l-23.867,7.891c-.066.023-.129-.043-.19.107H199.01a1.191,1.191,0,0,0-1.239,1.145v38.207A1.232,1.232,0,0,0,199.01,252.172Zm36.638,6.434h-16.8l1.824-6.434h13.157Zm-3.341-51.967L225.79,226.4l-3.951-3.951a1.2,1.2,0,0,0-1.689,0l-5.1,5.064-3.615-3.616,5.063-5.1a1.2,1.2,0,0,0,0-1.689l-3.951-3.951Zm-32.142,7.381h9.8l3.988,3.962-5.064,5.09a1.189,1.189,0,0,0,0,1.683l5.3,5.3a1.2,1.2,0,0,0,1.689,0l5.1-5.063,4.482,4.482a1.2,1.2,0,0,0,1.124.318,1.165,1.165,0,0,0,.859-.764l4.957-15.006H236.9a1.358,1.358,0,0,0,.3.484l2.87,2.856a1.2,1.2,0,0,0,1.692-.009,1.168,1.168,0,0,0,0-1.669l-1.686-1.662h14.245V241.1H200.165Zm54.162,29.474v6.284H200.165v-6.284Z" fill="#8c6df2"/>
    <path id="Trazado_164689" data-name="Trazado 164689" d="M238.052,202.09a1.187,1.187,0,0,0,.846-.351l2.87-2.869a1.2,1.2,0,1,0-1.692-1.693l-2.87,2.87a1.2,1.2,0,0,0,.846,2.043Z" fill="#8c6df2"/>
    <path id="Trazado_164690" data-name="Trazado 164690" d="M221.6,197.177a1.2,1.2,0,0,0,0,1.693l2.87,2.869a1.2,1.2,0,1,0,1.693-1.692l-2.871-2.87A1.2,1.2,0,0,0,221.6,197.177Z" fill="#8c6df2"/>
    <path id="Trazado_164691" data-name="Trazado 164691" d="M230.537,194.2v4.058a1.2,1.2,0,0,0,2.394,0V194.2a1.2,1.2,0,1,0-2.394,0Z" fill="#8c6df2"/>
    <path id="Trazado_164692" data-name="Trazado 164692" d="M240.69,208.484h4.059a1.2,1.2,0,1,0,0-2.394H240.69a1.2,1.2,0,1,0,0,2.394Z" fill="#8c6df2"/>
  </g>
</svg>
