<svg xmlns="http://www.w3.org/2000/svg" width="251" height="246" viewBox="0 0 251 246">
  <g id="Grupo_53290" data-name="Grupo 53290" transform="translate(-0.377)">
    <rect id="Rectángulo_5311" data-name="Rectángulo 5311" width="251" height="246" transform="translate(0.377)" fill="none"/>
    <g id="Grupo_103764" data-name="Grupo 103764" transform="translate(-111.877 -91.999)">
      <path id="Shadow" d="M198.1,306.3l-37.447-21.776L224,247.912Z" transform="translate(-3.181 -10.624)" fill="#e0e0e0"/>
      <path id="Shadow-2" data-name="Shadow" d="M142.313,285.4l15.24,8.8a2.261,2.261,0,0,0,2.047,0l21.056-12.281a.624.624,0,0,0,0-1.183l-15.24-8.8a2.261,2.261,0,0,0-2.047,0l-21.056,12.282A.624.624,0,0,0,142.313,285.4Z" transform="translate(-1.446 -12.823)" fill="#e0e0e0"/>
      <g id="Plants" transform="translate(126.254 249.831)">
        <g id="Grupo_103677" data-name="Grupo 103677" transform="translate(0 10.106)">
          <g id="Grupo_103674" data-name="Grupo 103674">
            <path id="Trazado_165126" data-name="Trazado 165126" d="M142.52,284.127c-1.058-1.7-4.3-3.559-8.561-4.479s-8.544-2.066-7.563-4.539c1.057-2.667,5.018-2.8,8.895-1.21,4.236,1.734,7.367,6.032,7.427,8.734Z" transform="translate(-126.254 -272.869)" fill="#5d27de"/>
          </g>
          <g id="Grupo_103675" data-name="Grupo 103675" opacity="0.1">
            <path id="Trazado_165127" data-name="Trazado 165127" d="M142.52,284.127c-1.058-1.7-4.3-3.559-8.561-4.479s-8.544-2.066-7.563-4.539c1.057-2.667,5.018-2.8,8.895-1.21,4.236,1.734,7.367,6.032,7.427,8.734Z" transform="translate(-126.254 -272.869)"/>
          </g>
          <g id="Grupo_103676" data-name="Grupo 103676" transform="translate(2.243 1.857)">
            <path id="Trazado_165128" data-name="Trazado 165128" d="M143.082,283.544a.318.318,0,0,1-.287-.18c-3.384-7-11.228-8.132-13.7-7.75a.318.318,0,1,1-.1-.629c2.6-.4,10.832.775,14.373,8.1a.318.318,0,0,1-.148.426A.313.313,0,0,1,143.082,283.544Z" transform="translate(-128.726 -274.915)" fill="#fff"/>
          </g>
        </g>
        <g id="Grupo_103680" data-name="Grupo 103680" transform="translate(3.409 0)">
          <g id="Grupo_103678" data-name="Grupo 103678">
            <path id="Trazado_165129" data-name="Trazado 165129" d="M142.867,283.1s-2.037-8.07-7.2-12.407c-1.533-1.289-3.167-2.9-4.31-4.014-2.452-2.39-1.429-4.991,1.968-4.942,5.048.071,8.742,4.322,10.341,9.886S142.867,283.1,142.867,283.1Z" transform="translate(-130.011 -261.733)" fill="#5d27de"/>
          </g>
          <g id="Grupo_103679" data-name="Grupo 103679" transform="translate(2.196 1.352)">
            <path id="Trazado_165130" data-name="Trazado 165130" d="M143.9,280.1a.318.318,0,0,1-.317-.289c-.951-10.261-8.78-15.419-10.91-15.964a.319.319,0,0,1,.158-.617c2.587.663,10.411,6.016,11.385,16.523a.319.319,0,0,1-.288.347Z" transform="translate(-132.431 -263.223)" fill="#fff"/>
          </g>
        </g>
      </g>
      <g id="Cabinet" transform="translate(142.266 229.064)">
        <g id="Grupo_103694" data-name="Grupo 103694" transform="translate(0)">
          <g id="Grupo_103681" data-name="Grupo 103681" transform="translate(0 11.861)">
            <path id="Trazado_165131" data-name="Trazado 165131" d="M158.278,291.061l-14.381-8.3V251.92l14.381,8.3Z" transform="translate(-143.897 -251.92)" fill="#263238"/>
          </g>
          <g id="Grupo_103682" data-name="Grupo 103682" transform="translate(14.381 8.303)">
            <path id="Trazado_165132" data-name="Trazado 165132" d="M159.742,259.86,180.286,248v30.839L159.743,290.7Z" transform="translate(-159.742 -247.999)" fill="#37474f"/>
          </g>
          <g id="Grupo_103683" data-name="Grupo 103683">
            <path id="Trazado_165133" data-name="Trazado 165133" d="M178.821,247.153l-20.544,11.861-14.381-8.3,20.544-11.861Z" transform="translate(-143.897 -238.851)" fill="#455a64"/>
          </g>
          <g id="Grupo_103685" data-name="Grupo 103685" transform="translate(22.598 18.06)">
            <g id="Grupo_103684" data-name="Grupo 103684">
              <path id="Trazado_165134" data-name="Trazado 165134" d="M169.454,260.475l2.8-1.614c.362-.209.657-.113.657.214a1.315,1.315,0,0,1-.657.972l-2.8,1.614c-.363.21-.657.114-.657-.213A1.313,1.313,0,0,1,169.454,260.475Z" transform="translate(-168.797 -258.75)" fill="#263238"/>
            </g>
          </g>
          <g id="Grupo_103689" data-name="Grupo 103689" transform="translate(16.057 26.314)">
            <g id="Grupo_103686" data-name="Grupo 103686">
              <path id="Trazado_165135" data-name="Trazado 165135" d="M161.59,277.334l16.435-9.489.378.219-.378,11.2.378.218-16.435,9.488-.378-.218Z" transform="translate(-161.589 -267.846)" fill="#263238"/>
            </g>
            <g id="Grupo_103687" data-name="Grupo 103687" transform="translate(0.378 0.218)">
              <path id="Trazado_165136" data-name="Trazado 165136" d="M162.006,277.575l16.435-9.489v11.423L162.006,289Z" transform="translate(-162.006 -268.087)" fill="#455a64"/>
            </g>
            <g id="Grupo_103688" data-name="Grupo 103688" transform="translate(6.163 6.199)">
              <path id="Trazado_165137" data-name="Trazado 165137" d="M169.038,276.4l2.794-1.614c.363-.21.657-.114.657.213a1.313,1.313,0,0,1-.657.972l-2.8,1.614c-.363.21-.657.114-.657-.213A1.317,1.317,0,0,1,169.038,276.4Z" transform="translate(-168.38 -274.676)" fill="#263238"/>
            </g>
          </g>
          <g id="Grupo_103693" data-name="Grupo 103693" transform="translate(16.057 12.107)">
            <g id="Grupo_103690" data-name="Grupo 103690">
              <path id="Trazado_165138" data-name="Trazado 165138" d="M161.59,261.679l16.435-9.489.378.219-.378,11.2.378.218-16.435,9.488-.378-.218Z" transform="translate(-161.589 -252.191)" fill="#263238"/>
            </g>
            <g id="Grupo_103691" data-name="Grupo 103691" transform="translate(0.378 0.218)">
              <path id="Trazado_165139" data-name="Trazado 165139" d="M162.006,261.92l16.435-9.489v11.423l-16.435,9.488Z" transform="translate(-162.006 -252.431)" fill="#455a64"/>
            </g>
            <g id="Grupo_103692" data-name="Grupo 103692" transform="translate(6.163 6.199)">
              <path id="Trazado_165140" data-name="Trazado 165140" d="M169.038,260.745l2.794-1.614c.363-.21.657-.113.657.214a1.315,1.315,0,0,1-.657.972l-2.8,1.614c-.363.21-.657.114-.657-.213A1.32,1.32,0,0,1,169.038,260.745Z" transform="translate(-168.38 -259.021)" fill="#263238"/>
            </g>
          </g>
        </g>
      </g>
      <g id="Cabinet-2" data-name="Cabinet" transform="translate(142.266 196.914)">
        <g id="Grupo_103705" data-name="Grupo 103705" transform="translate(0)">
          <g id="Grupo_103695" data-name="Grupo 103695" transform="translate(0 11.861)">
            <path id="Trazado_165141" data-name="Trazado 165141" d="M158.278,255.636l-14.381-8.3V216.495l14.381,8.3Z" transform="translate(-143.897 -216.495)" fill="#263238"/>
          </g>
          <g id="Grupo_103696" data-name="Grupo 103696" transform="translate(14.381 8.303)">
            <path id="Trazado_165142" data-name="Trazado 165142" d="M159.742,224.435l20.544-11.861v30.839l-20.544,11.861Z" transform="translate(-159.742 -212.574)" fill="#37474f"/>
          </g>
          <g id="Grupo_103697" data-name="Grupo 103697">
            <path id="Trazado_165143" data-name="Trazado 165143" d="M178.821,211.728l-20.544,11.861-14.381-8.3,20.544-11.861Z" transform="translate(-143.897 -203.426)" fill="#455a64"/>
          </g>
          <g id="Grupo_103700" data-name="Grupo 103700" transform="translate(16.435 11.861)">
            <g id="Grupo_103698" data-name="Grupo 103698">
              <path id="Trazado_165144" data-name="Trazado 165144" d="M162.006,225.983l16.435-9.489.378.218v11.423l-16.435,9.488-.378-.218Z" transform="translate(-162.006 -216.495)" fill="#263238"/>
            </g>
            <g id="Grupo_103699" data-name="Grupo 103699" transform="translate(6.163 6.199)">
              <path id="Trazado_165145" data-name="Trazado 165145" d="M169.454,225.049l2.8-1.614c.362-.209.657-.113.657.214a1.315,1.315,0,0,1-.657.972l-2.8,1.614c-.363.21-.657.114-.657-.213A1.316,1.316,0,0,1,169.454,225.049Z" transform="translate(-168.797 -223.325)" fill="#263238"/>
            </g>
          </g>
          <g id="Grupo_103704" data-name="Grupo 103704" transform="translate(16.057 26.314)">
            <g id="Grupo_103701" data-name="Grupo 103701">
              <path id="Trazado_165146" data-name="Trazado 165146" d="M161.59,241.909l16.435-9.489v11.423l.378.218-16.435,9.488-.378-.218Z" transform="translate(-161.589 -232.421)" fill="#263238"/>
            </g>
            <g id="Grupo_103702" data-name="Grupo 103702" transform="translate(0.378 0.218)">
              <path id="Trazado_165147" data-name="Trazado 165147" d="M162.006,242.15l16.435-9.489v11.423l-16.435,9.488Z" transform="translate(-162.006 -232.661)" fill="#455a64"/>
            </g>
            <g id="Grupo_103703" data-name="Grupo 103703" transform="translate(6.163 6.199)">
              <path id="Trazado_165148" data-name="Trazado 165148" d="M169.038,240.976l2.794-1.615c.363-.209.657-.113.657.214a1.313,1.313,0,0,1-.657.972l-2.8,1.614c-.363.21-.657.114-.657-.213A1.317,1.317,0,0,1,169.038,240.976Z" transform="translate(-168.38 -239.251)" fill="#263238"/>
            </g>
          </g>
        </g>
        <g id="Grupo_103717" data-name="Grupo 103717" transform="translate(16.435 11.861)">
          <g id="Grupo_103706" data-name="Grupo 103706">
            <path id="Trazado_165149" data-name="Trazado 165149" d="M162.006,225.983l16.435-9.489v11.423l-16.435,9.488Z" transform="translate(-162.006 -216.494)" fill="#263238"/>
          </g>
          <g id="Grupo_103707" data-name="Grupo 103707" transform="translate(15.657 0.451)">
            <path id="Trazado_165150" data-name="Trazado 165150" d="M188.254,222.184l-9-5.193v10.063l9,5.193Z" transform="translate(-179.257 -216.991)" fill="#263238"/>
          </g>
          <g id="Grupo_103711" data-name="Grupo 103711" transform="translate(6.164 1.186)">
            <g id="Grupo_103708" data-name="Grupo 103708">
              <path id="Trazado_165151" data-name="Trazado 165151" d="M168.8,239.151V224.918l3.527-2.043.582.857,10.272-5.93v13.047Z" transform="translate(-168.797 -217.802)" fill="#5d27de"/>
            </g>
            <g id="Grupo_103709" data-name="Grupo 103709" opacity="0.2">
              <path id="Trazado_165152" data-name="Trazado 165152" d="M168.8,239.151V224.918l3.527-2.043.582.857,10.272-5.93v13.047Z" transform="translate(-168.797 -217.802)"/>
            </g>
            <g id="Grupo_103710" data-name="Grupo 103710" transform="translate(0 0.593)">
              <path id="Trazado_165153" data-name="Trazado 165153" d="M168.8,239.211l1.027-12.454,14.381-8.3-1.027,12.454Z" transform="translate(-168.797 -218.455)" fill="#5d27de"/>
            </g>
          </g>
          <g id="Grupo_103712" data-name="Grupo 103712" transform="translate(0.377 10.605)">
            <path id="Trazado_165154" data-name="Trazado 165154" d="M170.262,232.707l-7.841-4.527v10.063l7.841,4.527Z" transform="translate(-162.421 -228.18)" fill="#37474f"/>
          </g>
          <g id="Grupo_103713" data-name="Grupo 103713" transform="translate(8.218 4.744)">
            <path id="Trazado_165155" data-name="Trazado 165155" d="M171.061,231.211l16.435-9.489v11.423l-16.435,9.488Z" transform="translate(-171.06 -221.722)" fill="#455a64"/>
          </g>
          <g id="Grupo_103714" data-name="Grupo 103714" transform="translate(14.003 10.725)">
            <path id="Trazado_165156" data-name="Trazado 165156" d="M178.092,230.036l2.8-1.614c.362-.21.657-.113.657.214a1.317,1.317,0,0,1-.657.972l-2.8,1.614c-.363.21-.657.114-.657-.213A1.316,1.316,0,0,1,178.092,230.036Z" transform="translate(-177.435 -228.312)" fill="#263238"/>
          </g>
          <g id="Grupo_103715" data-name="Grupo 103715" transform="translate(7.67 13.917)">
            <path id="Trazado_165157" data-name="Trazado 165157" d="M171,232.145l-.548-.316v11.422l.548.316Z" transform="translate(-170.457 -231.829)" fill="#263238"/>
          </g>
          <g id="Grupo_103716" data-name="Grupo 103716" transform="translate(7.67 4.428)">
            <path id="Trazado_165158" data-name="Trazado 165158" d="M170.457,230.863l16.435-9.489.548.316L171,231.179Z" transform="translate(-170.457 -221.374)" fill="#37474f"/>
          </g>
        </g>
      </g>
      <g id="Window" transform="translate(193.035 132.999)">
        <path id="Trazado_165159" data-name="Trazado 165159" d="M310.986,141.293l-2.136-1.243L199.838,202.988v91.151a1.6,1.6,0,0,0,.665,1.473h0l0,0h0l2.135,1.242h0a1.6,1.6,0,0,0,1.612-.159L308.708,236.39a5.037,5.037,0,0,0,2.279-3.947Z" transform="translate(-199.838 -133.65)" fill="#e6e6e6"/>
        <g id="Trazado_165160" data-name="Trazado 165160" transform="translate(-200.056 -133.777)" fill="#fafafa" stroke-miterlimit="10">
          <path d="M 203.4539947509766 296.6349792480469 C 202.7671508789062 296.6349792480469 202.6929931640625 295.8469543457031 202.6929931640625 295.5081481933594 L 202.6929931640625 204.6458892822266 L 310.7034912109375 142.2859954833984 L 310.7043762207031 232.5700073242188 C 310.7043762207031 233.8396301269531 309.7752380371094 235.4487915039062 308.6754760742188 236.0839233398438 L 204.2209167480469 296.3910827636719 C 203.9445037841797 296.5506286621094 203.6793060302734 296.6349792480469 203.4539947509766 296.6349792480469 Z" stroke="none"/>
          <path d="M 203.4541625976562 297.1349487304688 L 203.4541625976562 296.1349487304688 C 203.5326843261719 296.1349487304688 203.7042541503906 296.1119689941406 203.9709014892578 295.9580688476562 L 308.4254455566406 235.6509552001953 C 309.3731079101562 235.1036529541016 310.2043762207031 233.6639556884766 310.2043762207031 232.5700073242188 L 310.2034912109375 143.1520233154297 L 203.1929779052734 204.9345397949219 L 203.1929779052734 295.5081481933594 C 203.1929779052734 295.8895568847656 203.2937774658203 296.0454711914062 203.3246765136719 296.0841674804688 C 203.3446044921875 296.109130859375 203.365234375 296.1349487304688 203.4540863037109 296.1349487304688 L 203.4541625976562 297.1349487304688 M 203.4539642333984 297.1349487304688 C 202.7065277099609 297.1348571777344 202.1929779052734 296.5389404296875 202.1929779052734 295.5081481933594 L 202.1929779052734 204.3571929931641 L 311.2034606933594 141.4199829101562 L 311.2043762207031 232.5700073242188 C 311.2043762207031 234.0229797363281 310.1842956542969 235.7899627685547 308.925537109375 236.5169219970703 L 204.4709014892578 296.8240966796875 C 204.1053924560547 297.0350646972656 203.7601318359375 297.135009765625 203.4539642333984 297.1349487304688 Z" stroke="none" fill="#e0e0e0"/>
        </g>
        <g id="Grupo_103720" data-name="Grupo 103720">
          <path id="Trazado_165161" data-name="Trazado 165161" d="M202.193,204.358v9.866L311.2,151.286V141.42Z" transform="translate(-200.056 -133.777)" fill="#5d27de"/>
          <path id="Trazado_165162" data-name="Trazado 165162" d="M277.56,169.427v2.124c0,.434.308.612.683.395l33.516-19.351v-3.7l-33.516,19.35A1.515,1.515,0,0,0,277.56,169.427Z" transform="translate(-207.024 -134.468)" fill="#fafafa"/>
          <path id="Trazado_165163" data-name="Trazado 165163" d="M318.836,146.6c.378-.219.683-.042.683.395v2.124a1.51,1.51,0,0,1-.683,1.183l-3.592,2.074v-3.7Z" transform="translate(-210.508 -134.247)" fill="#455a64"/>
          <path id="Trazado_165164" data-name="Trazado 165164" d="M318.7,149.657l-.4-.124a2.182,2.182,0,0,0,.064-.516.945.945,0,0,0-.365-.856.567.567,0,0,0-.584.028,2.05,2.05,0,0,0-.8,1.666.944.944,0,0,0,.366.856.5.5,0,0,0,.254.068.66.66,0,0,0,.329-.1,1.685,1.685,0,0,0,.647-.866l.4.125a.155.155,0,0,0,.044.006.149.149,0,0,0,.044-.29Zm-1.286.768a.274.274,0,0,1-.286.028.693.693,0,0,1-.217-.6,1.786,1.786,0,0,1,.652-1.408.362.362,0,0,1,.18-.057.208.208,0,0,1,.107.029.7.7,0,0,1,.217.6A1.785,1.785,0,0,1,317.41,150.424Z" transform="translate(-210.634 -134.394)" fill="#fafafa"/>
          <path id="Trazado_165165" data-name="Trazado 165165" d="M308.2,133.165a1.579,1.579,0,0,0-1.633.144L202.117,193.617a5.036,5.036,0,0,0-2.279,3.946v4.774l2.137,1.242,109.011-62.937v-4.774a1.6,1.6,0,0,0-.66-1.468C309.943,134.174,308.574,133.392,308.2,133.165Z" transform="translate(-199.838 -132.999)" fill="#263238"/>
          <path id="Trazado_165166" data-name="Trazado 165166" d="M202.193,198.932a5.039,5.039,0,0,1,2.278-3.947l104.455-60.306c1.258-.727,2.278-.138,2.278,1.315v4.774l-109.01,62.937Z" transform="translate(-200.056 -133.125)" fill="#37474f"/>
          <path id="Trazado_165167" data-name="Trazado 165167" d="M310.416,134.412a1.579,1.579,0,0,0-1.642.142l-104.452,60.3a4.65,4.65,0,0,0-1.611,1.7l-2.141-1.237a4.679,4.679,0,0,1,1.615-1.705l104.452-60.308a1.584,1.584,0,0,1,1.631-.142c.374.227,1.743,1.011,2.126,1.232C310.4,134.4,310.411,134.408,310.416,134.412Z" transform="translate(-199.906 -132.999)" fill="#455a64"/>
          <g id="Grupo_103719" data-name="Grupo 103719" transform="translate(97.255 5.65)">
            <g id="Grupo_103718" data-name="Grupo 103718">
              <path id="Trazado_165168" data-name="Trazado 165168" d="M308.07,144.117A2.362,2.362,0,0,0,307,145.969c0,.682.478.958,1.069.617a2.361,2.361,0,0,0,1.068-1.851C309.138,144.053,308.66,143.777,308.07,144.117Z" transform="translate(-307.001 -139.663)" fill="#5d27de"/>
              <path id="Trazado_165169" data-name="Trazado 165169" d="M312.191,141.744a2.361,2.361,0,0,0-1.069,1.851c0,.682.478.957,1.069.617a2.364,2.364,0,0,0,1.068-1.851C313.259,141.68,312.781,141.4,312.191,141.744Z" transform="translate(-307.382 -139.444)" fill="#5d27de"/>
              <path id="Trazado_165170" data-name="Trazado 165170" d="M316.312,139.37a2.364,2.364,0,0,0-1.068,1.851c0,.682.478.958,1.068.617a2.362,2.362,0,0,0,1.069-1.851C317.381,139.306,316.9,139.03,316.312,139.37Z" transform="translate(-307.763 -139.224)" fill="#5d27de"/>
            </g>
          </g>
        </g>
        <g id="Trazado_165171" data-name="Trazado 165171" transform="translate(-200.056 -139.937)" fill="#f5f5f5" stroke-miterlimit="10">
          <path d="M 203.4539794921875 302.7945251464844 C 202.7671203613281 302.7945251464844 202.6929779052734 302.0065307617188 202.6929779052734 301.667724609375 L 202.6929779052734 220.6713409423828 L 223.0683441162109 208.9070434570312 L 223.0683441162109 291.6692199707031 L 204.2209014892578 302.5506591796875 C 203.9445037841797 302.710205078125 203.6793060302734 302.7945251464844 203.4539794921875 302.7945251464844 Z" stroke="none"/>
          <path d="M 203.4540100097656 302.2945251464844 L 203.4539947509766 302.2945251464844 C 203.5326080322266 302.2945251464844 203.7042846679688 302.2715454101562 203.9709014892578 302.1176452636719 L 222.5683441162109 291.3805236816406 L 222.5683441162109 209.7730865478516 L 203.1929779052734 220.9600067138672 L 203.1929779052734 301.667724609375 C 203.1929779052734 302.0491943359375 203.2937774658203 302.205078125 203.3246612548828 302.2438049316406 C 203.3445739746094 302.2687377929688 203.3651733398438 302.2945251464844 203.4540100097656 302.2945251464844 M 203.4539947509766 303.2945251464844 C 202.7064514160156 303.2945251464844 202.1929779052734 302.6985778808594 202.1929779052734 301.667724609375 L 202.1929779052734 220.3826751708984 L 223.5683441162109 208.0410003662109 L 223.5683441162109 291.9578857421875 L 204.4709014892578 302.9836730957031 C 204.10546875 303.1946105957031 203.7601165771484 303.2945251464844 203.4539947509766 303.2945251464844 Z" stroke="none" fill="#e0e0e0"/>
        </g>
        <g id="Grupo_103734" data-name="Grupo 103734" transform="translate(4.275 75.282)">
          <g id="Grupo_103724" data-name="Grupo 103724">
            <g id="Grupo_103721" data-name="Grupo 103721">
              <path id="Trazado_165172" data-name="Trazado 165172" d="M209.942,221.954l10.226-5.911c.378-.219.683-.042.683.394v.889a1.51,1.51,0,0,1-.683,1.184l-10.226,5.911c-.378.219-.683.042-.683-.394v-.889A1.513,1.513,0,0,1,209.942,221.954Z" transform="translate(-204.984 -215.95)" fill="#e0e0e0"/>
              <path id="Trazado_165173" data-name="Trazado 165173" d="M206.686,225.18v.889a1.51,1.51,0,0,1-.683,1.184l-.771.445c-.378.218-.683.041-.683-.395v-.889a1.512,1.512,0,0,1,.683-1.184l.771-.445C206.379,224.568,206.686,224.745,206.686,225.18Z" transform="translate(-204.549 -216.758)" fill="#5d27de"/>
            </g>
            <g id="Grupo_103722" data-name="Grupo 103722" transform="translate(0 4.918)">
              <path id="Trazado_165174" data-name="Trazado 165174" d="M209.942,227.373l10.226-5.911c.378-.219.683-.042.683.394v.889a1.51,1.51,0,0,1-.683,1.184l-10.226,5.911c-.378.219-.683.042-.683-.394v-.889A1.513,1.513,0,0,1,209.942,227.373Z" transform="translate(-204.984 -221.369)" fill="#e0e0e0"/>
              <path id="Trazado_165175" data-name="Trazado 165175" d="M206.686,230.6v.889a1.51,1.51,0,0,1-.683,1.184l-.771.445c-.378.218-.683.042-.683-.395v-.889a1.512,1.512,0,0,1,.683-1.184L206,230.2C206.379,229.987,206.686,230.164,206.686,230.6Z" transform="translate(-204.549 -222.177)" fill="#5d27de"/>
            </g>
            <g id="Grupo_103723" data-name="Grupo 103723" transform="translate(0 9.836)">
              <path id="Trazado_165176" data-name="Trazado 165176" d="M209.942,232.792l10.226-5.911c.378-.219.683-.042.683.394v.889a1.51,1.51,0,0,1-.683,1.184l-10.226,5.911c-.378.219-.683.042-.683-.394v-.889A1.513,1.513,0,0,1,209.942,232.792Z" transform="translate(-204.984 -226.788)" fill="#e0e0e0"/>
              <path id="Trazado_165177" data-name="Trazado 165177" d="M206.686,236.018v.89a1.51,1.51,0,0,1-.683,1.183l-.771.445c-.378.218-.683.042-.683-.395v-.889a1.513,1.513,0,0,1,.683-1.184l.771-.445C206.379,235.406,206.686,235.583,206.686,236.018Z" transform="translate(-204.549 -227.596)" fill="#5d27de"/>
            </g>
          </g>
          <g id="Grupo_103728" data-name="Grupo 103728" transform="translate(0 26.144)">
            <g id="Grupo_103725" data-name="Grupo 103725">
              <path id="Trazado_165178" data-name="Trazado 165178" d="M209.942,250.761l10.226-5.911c.378-.218.683-.041.683.395v.889a1.512,1.512,0,0,1-.683,1.184l-10.226,5.911c-.378.218-.683.042-.683-.395v-.889A1.515,1.515,0,0,1,209.942,250.761Z" transform="translate(-204.984 -244.757)" fill="#e0e0e0"/>
              <path id="Trazado_165179" data-name="Trazado 165179" d="M206.686,253.988v.889a1.512,1.512,0,0,1-.683,1.184l-.771.445c-.378.218-.683.041-.683-.395v-.889a1.51,1.51,0,0,1,.683-1.184l.771-.445C206.379,253.376,206.686,253.553,206.686,253.988Z" transform="translate(-204.549 -245.566)" fill="#5d27de"/>
            </g>
            <g id="Grupo_103726" data-name="Grupo 103726" transform="translate(0 4.356)">
              <path id="Trazado_165180" data-name="Trazado 165180" d="M209.942,255.561l10.226-5.911c.378-.218.683-.042.683.394v.89a1.51,1.51,0,0,1-.683,1.183l-10.226,5.911c-.378.219-.683.042-.683-.394v-.889A1.513,1.513,0,0,1,209.942,255.561Z" transform="translate(-204.984 -249.557)" fill="#e0e0e0"/>
              <path id="Trazado_165181" data-name="Trazado 165181" d="M206.686,258.787v.89a1.51,1.51,0,0,1-.683,1.184l-.771.445c-.378.218-.683.042-.683-.395v-.889a1.513,1.513,0,0,1,.683-1.184l.771-.444C206.379,258.175,206.686,258.352,206.686,258.787Z" transform="translate(-204.549 -250.365)" fill="#5d27de"/>
            </g>
            <g id="Grupo_103727" data-name="Grupo 103727" transform="translate(0 8.712)">
              <path id="Trazado_165182" data-name="Trazado 165182" d="M209.942,260.36l10.226-5.911c.378-.218.683-.041.683.395v.889a1.512,1.512,0,0,1-.683,1.184l-10.226,5.911c-.378.218-.683.042-.683-.395v-.889A1.516,1.516,0,0,1,209.942,260.36Z" transform="translate(-204.984 -254.356)" fill="#e0e0e0"/>
              <path id="Trazado_165183" data-name="Trazado 165183" d="M206.686,263.587v.889a1.51,1.51,0,0,1-.683,1.184l-.771.445c-.378.218-.683.041-.683-.395v-.889a1.51,1.51,0,0,1,.683-1.184l.771-.445C206.379,262.975,206.686,263.152,206.686,263.587Z" transform="translate(-204.549 -255.165)" fill="#5d27de"/>
            </g>
          </g>
          <g id="Grupo_103733" data-name="Grupo 103733" transform="translate(4.275 15.118)">
            <g id="Grupo_103729" data-name="Grupo 103729">
              <path id="Trazado_165184" data-name="Trazado 165184" d="M209.259,239.318v1.534l1.329-1.534Z" transform="translate(-209.259 -233.228)" fill="#5d27de"/>
              <path id="Trazado_165185" data-name="Trazado 165185" d="M211.615,238.382c0,.285.2.4.456.253l8.544-4.92a1,1,0,0,0,.456-.785c0-.289-.2-.4-.456-.26l-8.544,4.932A1,1,0,0,0,211.615,238.382Z" transform="translate(-209.477 -232.608)" fill="#e0e0e0"/>
            </g>
            <g id="Grupo_103730" data-name="Grupo 103730" transform="translate(0 2.467)">
              <path id="Trazado_165186" data-name="Trazado 165186" d="M209.259,242.037v1.534l1.329-1.534Z" transform="translate(-209.259 -235.947)" fill="#5d27de"/>
              <path id="Trazado_165187" data-name="Trazado 165187" d="M211.615,241.1c0,.284.2.4.456.252l8.544-4.919a1,1,0,0,0,.456-.785c0-.29-.2-.406-.456-.26l-8.544,4.933A1,1,0,0,0,211.615,241.1Z" transform="translate(-209.477 -235.326)" fill="#e0e0e0"/>
            </g>
            <g id="Grupo_103731" data-name="Grupo 103731" transform="translate(0 4.934)">
              <path id="Trazado_165188" data-name="Trazado 165188" d="M209.259,244.756v1.534l1.329-1.534Z" transform="translate(-209.259 -238.665)" fill="#5d27de"/>
              <path id="Trazado_165189" data-name="Trazado 165189" d="M211.615,243.819c0,.285.2.4.456.253l8.544-4.919a1,1,0,0,0,.456-.786c0-.289-.2-.4-.456-.26l-8.544,4.933A1,1,0,0,0,211.615,243.819Z" transform="translate(-209.477 -238.045)" fill="#e0e0e0"/>
            </g>
            <g id="Grupo_103732" data-name="Grupo 103732" transform="translate(0 7.402)">
              <path id="Trazado_165190" data-name="Trazado 165190" d="M209.259,247.475v1.534l1.329-1.534Z" transform="translate(-209.259 -241.384)" fill="#5d27de"/>
              <path id="Trazado_165191" data-name="Trazado 165191" d="M211.615,246.538c0,.285.2.4.456.253l8.544-4.92a1,1,0,0,0,.456-.785c0-.289-.2-.4-.456-.26l-8.544,4.932A1,1,0,0,0,211.615,246.538Z" transform="translate(-209.477 -240.764)" fill="#e0e0e0"/>
            </g>
          </g>
        </g>
        <g id="Grupo_103760" data-name="Grupo 103760" transform="translate(29.925 29.72)">
          <g id="Grupo_103741" data-name="Grupo 103741">
            <g id="Grupo_103735" data-name="Grupo 103735" transform="translate(0 33.869)">
              <path id="Trazado_165192" data-name="Trazado 165192" d="M232.812,210.522v12.861c0,.537.378.756.843.486l14.141-8.164a1.865,1.865,0,0,0,.844-1.461V203.668c0-.538-.378-.756-.844-.486l-8.206,4.737c-.466.269-.843.051-.843-.487V207.1c0-.538-.378-.756-.844-.487l-4.248,2.453A1.864,1.864,0,0,0,232.812,210.522Z" transform="translate(-232.812 -203.066)" fill="#5d27de"/>
              <path id="Trazado_165193" data-name="Trazado 165193" d="M235.874,227.382v.823c0,.4.284.567.633.366l10.607-6.124a1.4,1.4,0,0,0,.633-1.1v-.823c0-.4-.283-.567-.633-.366l-10.607,6.124A1.4,1.4,0,0,0,235.874,227.382Z" transform="translate(-233.095 -204.638)" fill="#e0e0e0"/>
            </g>
            <g id="Grupo_103736" data-name="Grupo 103736" transform="translate(19.66 22.579)">
              <path id="Trazado_165194" data-name="Trazado 165194" d="M254.475,198.082v12.861c0,.538.378.756.844.487l14.141-8.165a1.865,1.865,0,0,0,.844-1.461V191.228c0-.537-.378-.756-.844-.486l-8.206,4.737c-.466.269-.844.051-.844-.487v-.336c0-.538-.378-.756-.843-.487l-4.248,2.453A1.867,1.867,0,0,0,254.475,198.082Z" transform="translate(-254.475 -190.626)" fill="#5d27de"/>
              <path id="Trazado_165195" data-name="Trazado 165195" d="M257.538,214.942v.824c0,.4.283.566.633.365l10.607-6.124a1.4,1.4,0,0,0,.633-1.1v-.823c0-.4-.283-.567-.633-.366l-10.607,6.124A1.4,1.4,0,0,0,257.538,214.942Z" transform="translate(-254.758 -192.198)" fill="#e0e0e0"/>
            </g>
            <g id="Grupo_103737" data-name="Grupo 103737" transform="translate(0 59.705)">
              <path id="Trazado_165196" data-name="Trazado 165196" d="M232.812,238.99v12.861c0,.537.378.756.843.486l14.141-8.164a1.865,1.865,0,0,0,.844-1.461V232.136c0-.538-.378-.756-.844-.486l-8.206,4.737c-.466.269-.843.051-.843-.487v-.336c0-.538-.378-.756-.844-.487l-4.248,2.453A1.864,1.864,0,0,0,232.812,238.99Z" transform="translate(-232.812 -231.534)" fill="#5d27de"/>
              <path id="Trazado_165197" data-name="Trazado 165197" d="M235.874,255.85v.823c0,.4.284.567.633.366l10.607-6.124a1.4,1.4,0,0,0,.633-1.1v-.823c0-.4-.283-.567-.633-.366l-10.607,6.124A1.4,1.4,0,0,0,235.874,255.85Z" transform="translate(-233.095 -233.106)" fill="#e0e0e0"/>
            </g>
            <g id="Grupo_103738" data-name="Grupo 103738" transform="translate(19.66 48.415)">
              <path id="Trazado_165198" data-name="Trazado 165198" d="M254.475,226.55v12.861c0,.538.378.756.844.487l14.141-8.165a1.865,1.865,0,0,0,.844-1.461V219.7c0-.538-.378-.757-.844-.487l-8.206,4.737c-.466.269-.844.051-.844-.487v-.336c0-.538-.378-.756-.843-.487l-4.248,2.453A1.866,1.866,0,0,0,254.475,226.55Z" transform="translate(-254.475 -219.094)" fill="#5d27de"/>
              <path id="Trazado_165199" data-name="Trazado 165199" d="M257.538,243.41v.824c0,.4.283.567.633.365l10.607-6.124a1.4,1.4,0,0,0,.633-1.1v-.823c0-.4-.283-.567-.633-.366l-10.607,6.124A1.4,1.4,0,0,0,257.538,243.41Z" transform="translate(-254.758 -220.666)" fill="#e0e0e0"/>
            </g>
            <g id="Grupo_103739" data-name="Grupo 103739" transform="translate(39.551 10.669)">
              <path id="Trazado_165200" data-name="Trazado 165200" d="M276.392,184.959v12.86c0,.538.378.756.844.487l14.141-8.164a1.868,1.868,0,0,0,.844-1.462V178.1c0-.538-.378-.756-.844-.487l-8.206,4.738c-.466.269-.843.051-.843-.487v-.337c0-.537-.378-.756-.844-.486l-4.248,2.453A1.865,1.865,0,0,0,276.392,184.959Z" transform="translate(-276.392 -177.502)" fill="#5d27de"/>
              <path id="Trazado_165201" data-name="Trazado 165201" d="M279.2,202.5v.824c0,.4.284.567.633.365l10.607-6.124a1.4,1.4,0,0,0,.633-1.1v-.823c0-.4-.283-.567-.633-.365l-10.607,6.124A1.4,1.4,0,0,0,279.2,202.5Z" transform="translate(-276.652 -179.138)" fill="#e0e0e0"/>
            </g>
            <g id="Grupo_103740" data-name="Grupo 103740" transform="translate(58.981)">
              <path id="Trazado_165202" data-name="Trazado 165202" d="M297.8,173.2v12.86c0,.538.378.756.844.487l14.141-8.165a1.865,1.865,0,0,0,.844-1.461V166.349c0-.538-.378-.756-.844-.487l-8.206,4.737c-.466.27-.844.051-.844-.486v-.337c0-.538-.378-.756-.843-.486l-4.248,2.452A1.868,1.868,0,0,0,297.8,173.2Z" transform="translate(-297.802 -165.746)" fill="#5d27de"/>
              <path id="Trazado_165203" data-name="Trazado 165203" d="M300.865,190.062v.824c0,.4.283.567.633.366l10.607-6.125a1.4,1.4,0,0,0,.633-1.1v-.824c0-.4-.283-.566-.633-.365L301.5,188.966A1.4,1.4,0,0,0,300.865,190.062Z" transform="translate(-298.085 -167.319)" fill="#e0e0e0"/>
            </g>
          </g>
          <g id="Grupo_103744" data-name="Grupo 103744" transform="translate(41.455 35.309)">
            <path id="Trazado_165204" data-name="Trazado 165204" d="M279.2,230.959v.824c0,.4.284.567.633.365l10.607-6.124a1.4,1.4,0,0,0,.633-1.1V224.1c0-.4-.283-.567-.633-.365l-10.607,6.124A1.4,1.4,0,0,0,279.2,230.959Z" transform="translate(-278.556 -206.409)" fill="#e0e0e0"/>
            <g id="Grupo_103743" data-name="Grupo 103743">
              <g id="Grupo_103742" data-name="Grupo 103742">
                <path id="Trazado_165205" data-name="Trazado 165205" d="M279.4,211.128l11-6.352c.5-.29.912-.055.912.526V218a2.014,2.014,0,0,1-.912,1.579l-11,6.352c-.5.29-.911.055-.911-.526v-12.7A2.015,2.015,0,0,1,279.4,211.128Z" transform="translate(-278.49 -204.652)" fill="#fafafa" stroke="#ebebeb" stroke-miterlimit="10" stroke-width="1"/>
                <path id="Trazado_165206" data-name="Trazado 165206" d="M292.7,206.666l-2.452,1.416a2.015,2.015,0,0,0-.911,1.578v2.832c0,.582.408.817.911.526L292.7,211.6a2.014,2.014,0,0,0,.912-1.579v-2.831C293.612,206.611,293.2,206.376,292.7,206.666Z" transform="translate(-279.493 -204.827)" fill="#5d27de"/>
              </g>
              <path id="Trazado_165207" data-name="Trazado 165207" d="M280.372,212.97l5.511-3.171c.252-.145.456-.026.456.264v.175a1,1,0,0,1-.456.789l-5.512,3.177c-.251.145-.456.027-.456-.263v-.182A1,1,0,0,1,280.372,212.97Z" transform="translate(-278.622 -205.122)" fill="#ebebeb"/>
              <path id="Trazado_165208" data-name="Trazado 165208" d="M280.372,215.686l5.511-3.171c.252-.145.456-.026.456.264v.175a1.007,1.007,0,0,1-.456.79l-5.512,3.176c-.251.145-.456.027-.456-.263v-.182A1,1,0,0,1,280.372,215.686Z" transform="translate(-278.622 -205.373)" fill="#ebebeb"/>
              <path id="Trazado_165209" data-name="Trazado 165209" d="M280.372,218.4l5.511-3.171c.252-.144.456-.026.456.264v.175a1.006,1.006,0,0,1-.456.79l-5.512,3.176c-.251.145-.456.027-.456-.263v-.182A1,1,0,0,1,280.372,218.4Z" transform="translate(-278.622 -205.624)" fill="#ebebeb"/>
              <path id="Trazado_165210" data-name="Trazado 165210" d="M280.372,220.9l9.156-5.279c.251-.144.456-.026.456.264v.175a1.007,1.007,0,0,1-.456.79l-9.157,5.284c-.251.145-.456.027-.456-.263v-.182A1,1,0,0,1,280.372,220.9Z" transform="translate(-278.622 -205.661)" fill="#ebebeb"/>
              <path id="Trazado_165211" data-name="Trazado 165211" d="M280.372,223.62l9.156-5.278c.251-.145.456-.027.456.263v.176a1.007,1.007,0,0,1-.456.789l-9.157,5.284c-.251.145-.456.027-.456-.263v-.181A1,1,0,0,1,280.372,223.62Z" transform="translate(-278.622 -205.912)" fill="#ebebeb"/>
            </g>
          </g>
          <g id="Grupo_103747" data-name="Grupo 103747" transform="translate(60.692 24.202)">
            <path id="Trazado_165212" data-name="Trazado 165212" d="M300.4,218.722v.824c0,.4.284.566.633.365l10.607-6.124a1.4,1.4,0,0,0,.633-1.1v-.823c0-.4-.283-.567-.633-.366l-10.607,6.124A1.4,1.4,0,0,0,300.4,218.722Z" transform="translate(-299.753 -194.171)" fill="#e0e0e0"/>
            <g id="Grupo_103746" data-name="Grupo 103746">
              <g id="Grupo_103745" data-name="Grupo 103745">
                <path id="Trazado_165213" data-name="Trazado 165213" d="M300.6,198.89l11-6.352c.5-.29.911-.054.911.526v12.7a2.015,2.015,0,0,1-.911,1.579l-11,6.352c-.5.29-.911.054-.911-.526v-12.7A2.016,2.016,0,0,1,300.6,198.89Z" transform="translate(-299.687 -192.414)" fill="#fafafa" stroke="#ebebeb" stroke-miterlimit="10" stroke-width="1"/>
                <path id="Trazado_165214" data-name="Trazado 165214" d="M313.9,194.428l-2.452,1.416a2.018,2.018,0,0,0-.911,1.579v2.832c0,.581.408.817.911.526l2.452-1.416a2.016,2.016,0,0,0,.912-1.579v-2.832C314.809,194.374,314.4,194.138,313.9,194.428Z" transform="translate(-300.69 -192.589)" fill="#5d27de"/>
              </g>
              <path id="Trazado_165215" data-name="Trazado 165215" d="M301.569,200.733l5.511-3.171c.252-.145.457-.027.457.263V198a1.006,1.006,0,0,1-.457.789l-5.512,3.176c-.251.145-.456.027-.456-.263v-.182A1,1,0,0,1,301.569,200.733Z" transform="translate(-299.819 -192.884)" fill="#ebebeb"/>
              <path id="Trazado_165216" data-name="Trazado 165216" d="M301.569,203.449l5.511-3.171c.252-.145.457-.027.457.263v.176a1,1,0,0,1-.457.789l-5.512,3.177c-.251.144-.456.026-.456-.264v-.182A1,1,0,0,1,301.569,203.449Z" transform="translate(-299.819 -193.135)" fill="#ebebeb"/>
              <path id="Trazado_165217" data-name="Trazado 165217" d="M301.569,206.165l5.511-3.171c.252-.145.457-.027.457.264v.175a1,1,0,0,1-.457.789l-5.512,3.177c-.251.145-.456.027-.456-.264v-.181A1,1,0,0,1,301.569,206.165Z" transform="translate(-299.819 -193.386)" fill="#ebebeb"/>
              <path id="Trazado_165218" data-name="Trazado 165218" d="M301.569,208.666l9.156-5.278c.251-.145.456-.027.456.264v.175a1.007,1.007,0,0,1-.456.789l-9.157,5.285c-.251.145-.456.027-.456-.264v-.182A1,1,0,0,1,301.569,208.666Z" transform="translate(-299.819 -193.423)" fill="#ebebeb"/>
              <path id="Trazado_165219" data-name="Trazado 165219" d="M301.569,211.382l9.156-5.278c.251-.145.456-.026.456.264v.175a1.008,1.008,0,0,1-.456.79l-9.157,5.284c-.251.145-.456.027-.456-.263v-.182A1,1,0,0,1,301.569,211.382Z" transform="translate(-299.819 -193.674)" fill="#ebebeb"/>
            </g>
          </g>
          <g id="Grupo_103750" data-name="Grupo 103750" transform="translate(41.455 61.523)">
            <path id="Trazado_165220" data-name="Trazado 165220" d="M279.2,259.845v.824c0,.4.284.567.633.365l10.607-6.124a1.4,1.4,0,0,0,.633-1.1v-.823c0-.4-.283-.567-.633-.365l-10.607,6.123A1.4,1.4,0,0,0,279.2,259.845Z" transform="translate(-278.556 -235.294)" fill="#e0e0e0"/>
            <g id="Grupo_103749" data-name="Grupo 103749">
              <g id="Grupo_103748" data-name="Grupo 103748">
                <path id="Trazado_165221" data-name="Trazado 165221" d="M279.4,240.013l11-6.352c.5-.29.912-.054.912.526v12.7a2.016,2.016,0,0,1-.912,1.579l-11,6.352c-.5.29-.911.055-.911-.526v-12.7A2.017,2.017,0,0,1,279.4,240.013Z" transform="translate(-278.49 -233.537)" fill="#fafafa" stroke="#ebebeb" stroke-miterlimit="10" stroke-width="1"/>
                <path id="Trazado_165222" data-name="Trazado 165222" d="M292.7,235.552l-2.452,1.416a2.015,2.015,0,0,0-.911,1.578v2.832c0,.581.408.817.911.526l2.452-1.416a2.016,2.016,0,0,0,.912-1.579v-2.832C293.612,235.5,293.2,235.261,292.7,235.552Z" transform="translate(-279.493 -233.712)" fill="#5d27de"/>
              </g>
              <path id="Trazado_165223" data-name="Trazado 165223" d="M280.372,241.856l5.511-3.171c.252-.145.456-.027.456.264v.175a1.006,1.006,0,0,1-.456.789l-5.512,3.177c-.251.144-.456.027-.456-.264v-.182A1,1,0,0,1,280.372,241.856Z" transform="translate(-278.622 -234.007)" fill="#ebebeb"/>
              <path id="Trazado_165224" data-name="Trazado 165224" d="M280.372,244.572l5.511-3.171c.252-.145.456-.027.456.264v.175a1,1,0,0,1-.456.789l-5.512,3.177c-.251.145-.456.027-.456-.264v-.182A1,1,0,0,1,280.372,244.572Z" transform="translate(-278.622 -234.258)" fill="#ebebeb"/>
              <path id="Trazado_165225" data-name="Trazado 165225" d="M280.372,247.288l5.511-3.171c.252-.145.456-.027.456.264v.175a1,1,0,0,1-.456.789l-5.512,3.177c-.251.145-.456.027-.456-.263v-.182A1,1,0,0,1,280.372,247.288Z" transform="translate(-278.622 -234.509)" fill="#ebebeb"/>
              <path id="Trazado_165226" data-name="Trazado 165226" d="M280.372,249.789l9.156-5.278c.251-.145.456-.026.456.264v.175a1,1,0,0,1-.456.789l-9.157,5.285c-.251.145-.456.027-.456-.263v-.182A1,1,0,0,1,280.372,249.789Z" transform="translate(-278.622 -234.546)" fill="#ebebeb"/>
              <path id="Trazado_165227" data-name="Trazado 165227" d="M280.372,252.5l9.156-5.278c.251-.144.456-.026.456.264v.175a1.009,1.009,0,0,1-.456.79l-9.157,5.284c-.251.145-.456.027-.456-.263v-.182A1,1,0,0,1,280.372,252.5Z" transform="translate(-278.622 -234.797)" fill="#ebebeb"/>
            </g>
          </g>
          <g id="Grupo_103753" data-name="Grupo 103753" transform="translate(60.692 50.417)">
            <path id="Trazado_165228" data-name="Trazado 165228" d="M300.4,247.608v.823c0,.4.284.567.633.366l10.607-6.124a1.4,1.4,0,0,0,.633-1.1v-.823c0-.4-.283-.567-.633-.366l-10.607,6.124A1.4,1.4,0,0,0,300.4,247.608Z" transform="translate(-299.753 -223.057)" fill="#e0e0e0"/>
            <g id="Grupo_103752" data-name="Grupo 103752">
              <g id="Grupo_103751" data-name="Grupo 103751">
                <path id="Trazado_165229" data-name="Trazado 165229" d="M300.6,227.776l11-6.352c.5-.29.911-.055.911.526v12.7a2.013,2.013,0,0,1-.911,1.578l-11,6.353c-.5.29-.911.054-.911-.526v-12.7A2.015,2.015,0,0,1,300.6,227.776Z" transform="translate(-299.687 -221.3)" fill="#fafafa" stroke="#ebebeb" stroke-miterlimit="10" stroke-width="1"/>
                <path id="Trazado_165230" data-name="Trazado 165230" d="M313.9,223.314l-2.452,1.416a2.016,2.016,0,0,0-.911,1.579v2.832c0,.581.408.817.911.525l2.452-1.416a2.014,2.014,0,0,0,.912-1.578v-2.832C314.809,223.259,314.4,223.024,313.9,223.314Z" transform="translate(-300.69 -221.475)" fill="#5d27de"/>
              </g>
              <path id="Trazado_165231" data-name="Trazado 165231" d="M301.569,229.619l5.511-3.172c.252-.144.457-.026.457.264v.175a1.006,1.006,0,0,1-.457.79l-5.512,3.176c-.251.145-.456.027-.456-.263v-.182A1,1,0,0,1,301.569,229.619Z" transform="translate(-299.819 -221.77)" fill="#ebebeb"/>
              <path id="Trazado_165232" data-name="Trazado 165232" d="M301.569,232.335l5.511-3.171c.252-.145.457-.027.457.263v.176a1,1,0,0,1-.457.789l-5.512,3.176c-.251.145-.456.027-.456-.263v-.182A1,1,0,0,1,301.569,232.335Z" transform="translate(-299.819 -222.021)" fill="#ebebeb"/>
              <path id="Trazado_165233" data-name="Trazado 165233" d="M301.569,235.051l5.511-3.171c.252-.145.457-.027.457.263v.176a1,1,0,0,1-.457.789l-5.512,3.176c-.251.145-.456.027-.456-.263v-.182A1,1,0,0,1,301.569,235.051Z" transform="translate(-299.819 -222.272)" fill="#ebebeb"/>
              <path id="Trazado_165234" data-name="Trazado 165234" d="M301.569,237.552l9.156-5.278c.251-.145.456-.027.456.263v.176a1.007,1.007,0,0,1-.456.789l-9.157,5.285c-.251.144-.456.026-.456-.264v-.182A1,1,0,0,1,301.569,237.552Z" transform="translate(-299.819 -222.309)" fill="#ebebeb"/>
              <path id="Trazado_165235" data-name="Trazado 165235" d="M301.569,240.268l9.156-5.278c.251-.145.456-.027.456.263v.176a1.007,1.007,0,0,1-.456.789l-9.157,5.285c-.251.145-.456.027-.456-.264v-.182A1,1,0,0,1,301.569,240.268Z" transform="translate(-299.819 -222.56)" fill="#ebebeb"/>
            </g>
          </g>
          <g id="Grupo_103756" data-name="Grupo 103756" transform="translate(2.137 84.238)">
            <path id="Trazado_165236" data-name="Trazado 165236" d="M235.878,284.874v.824c0,.4.283.567.633.365l10.607-6.124a1.4,1.4,0,0,0,.633-1.1v-.823c0-.4-.283-.567-.633-.365l-10.607,6.124A1.4,1.4,0,0,0,235.878,284.874Z" transform="translate(-235.233 -260.323)" fill="#e0e0e0"/>
            <g id="Grupo_103755" data-name="Grupo 103755">
              <g id="Grupo_103754" data-name="Grupo 103754">
                <path id="Trazado_165237" data-name="Trazado 165237" d="M236.078,265.042l11-6.351c.5-.291.911-.055.911.525v12.7a2.016,2.016,0,0,1-.911,1.579l-11,6.352c-.5.29-.911.055-.911-.526v-12.7A2.015,2.015,0,0,1,236.078,265.042Z" transform="translate(-235.167 -258.566)" fill="#fafafa" stroke="#ebebeb" stroke-miterlimit="10" stroke-width="1"/>
                <path id="Trazado_165238" data-name="Trazado 165238" d="M249.377,260.581,246.925,262a2.013,2.013,0,0,0-.911,1.578v2.832c0,.582.407.817.911.526l2.452-1.416a2.013,2.013,0,0,0,.911-1.579v-2.832C250.289,260.526,249.881,260.29,249.377,260.581Z" transform="translate(-236.17 -258.741)" fill="#5d27de"/>
              </g>
              <path id="Trazado_165239" data-name="Trazado 165239" d="M237.049,266.885l5.512-3.171c.251-.145.456-.027.456.264v.175a1.007,1.007,0,0,1-.456.789l-5.512,3.177c-.252.145-.456.027-.456-.264v-.181A1.007,1.007,0,0,1,237.049,266.885Z" transform="translate(-235.299 -259.037)" fill="#ebebeb"/>
              <path id="Trazado_165240" data-name="Trazado 165240" d="M237.049,269.6l5.512-3.171c.251-.145.456-.027.456.264v.175a1,1,0,0,1-.456.789l-5.512,3.177c-.252.145-.456.027-.456-.263v-.182A1.007,1.007,0,0,1,237.049,269.6Z" transform="translate(-235.299 -259.288)" fill="#ebebeb"/>
              <path id="Trazado_165241" data-name="Trazado 165241" d="M237.049,272.317l5.512-3.171c.251-.144.456-.026.456.264v.175a1.009,1.009,0,0,1-.456.79l-5.512,3.176c-.252.145-.456.027-.456-.263v-.182A1.007,1.007,0,0,1,237.049,272.317Z" transform="translate(-235.299 -259.539)" fill="#ebebeb"/>
              <path id="Trazado_165242" data-name="Trazado 165242" d="M237.049,274.818l9.156-5.278c.252-.144.456-.026.456.264v.175a1.006,1.006,0,0,1-.456.79l-9.156,5.284c-.252.145-.456.027-.456-.263v-.182A1.007,1.007,0,0,1,237.049,274.818Z" transform="translate(-235.299 -259.575)" fill="#ebebeb"/>
              <path id="Trazado_165243" data-name="Trazado 165243" d="M237.049,277.535l9.156-5.279c.252-.144.456-.026.456.264v.175a1.006,1.006,0,0,1-.456.79l-9.156,5.284c-.252.145-.456.027-.456-.263v-.182A1,1,0,0,1,237.049,277.535Z" transform="translate(-235.299 -259.826)" fill="#ebebeb"/>
            </g>
          </g>
          <g id="Grupo_103759" data-name="Grupo 103759" transform="translate(21.374 73.132)">
            <path id="Trazado_165244" data-name="Trazado 165244" d="M257.075,272.637v.823c0,.4.283.567.633.366l10.607-6.124a1.4,1.4,0,0,0,.633-1.1v-.823c0-.4-.283-.567-.633-.366l-10.607,6.124A1.4,1.4,0,0,0,257.075,272.637Z" transform="translate(-256.43 -248.086)" fill="#e0e0e0"/>
            <g id="Grupo_103758" data-name="Grupo 103758">
              <g id="Grupo_103757" data-name="Grupo 103757">
                <path id="Trazado_165245" data-name="Trazado 165245" d="M257.275,252.805l11-6.352c.5-.29.911-.054.911.526v12.7a2.015,2.015,0,0,1-.911,1.578l-11,6.353c-.5.29-.911.054-.911-.526v-12.7A2.013,2.013,0,0,1,257.275,252.805Z" transform="translate(-256.364 -246.329)" fill="#fafafa" stroke="#ebebeb" stroke-miterlimit="10" stroke-width="1"/>
                <path id="Trazado_165246" data-name="Trazado 165246" d="M270.574,248.343l-2.452,1.416a2.015,2.015,0,0,0-.911,1.579v2.832c0,.581.407.817.911.526l2.452-1.417a2.016,2.016,0,0,0,.911-1.578V248.87C271.486,248.289,271.077,248.053,270.574,248.343Z" transform="translate(-257.367 -246.504)" fill="#5d27de"/>
              </g>
              <path id="Trazado_165247" data-name="Trazado 165247" d="M258.246,254.648l5.511-3.171c.251-.145.456-.027.456.263v.176a1.007,1.007,0,0,1-.456.789l-5.511,3.176c-.252.145-.457.027-.456-.263v-.182A1,1,0,0,1,258.246,254.648Z" transform="translate(-256.496 -246.799)" fill="#ebebeb"/>
              <path id="Trazado_165248" data-name="Trazado 165248" d="M258.246,257.364l5.511-3.171c.251-.145.456-.027.456.263v.176a1.007,1.007,0,0,1-.456.789l-5.511,3.176c-.252.145-.457.027-.456-.263v-.181A1.007,1.007,0,0,1,258.246,257.364Z" transform="translate(-256.496 -247.05)" fill="#ebebeb"/>
              <path id="Trazado_165249" data-name="Trazado 165249" d="M258.246,260.08l5.511-3.171c.251-.145.456-.027.456.263v.176a1.007,1.007,0,0,1-.456.789l-5.511,3.177c-.252.144-.457.026-.456-.264v-.182A1.007,1.007,0,0,1,258.246,260.08Z" transform="translate(-256.496 -247.301)" fill="#ebebeb"/>
              <path id="Trazado_165250" data-name="Trazado 165250" d="M258.246,262.581,267.4,257.3c.252-.145.456-.027.456.264v.175a1,1,0,0,1-.456.789l-9.156,5.285c-.252.145-.457.027-.456-.264v-.181A1.007,1.007,0,0,1,258.246,262.581Z" transform="translate(-256.496 -247.338)" fill="#ebebeb"/>
              <path id="Trazado_165251" data-name="Trazado 165251" d="M258.246,265.3l9.156-5.278c.252-.145.456-.027.456.264v.175a1,1,0,0,1-.456.789l-9.156,5.285c-.252.145-.457.027-.456-.264v-.182A1.007,1.007,0,0,1,258.246,265.3Z" transform="translate(-256.496 -247.589)" fill="#ebebeb"/>
            </g>
          </g>
        </g>
        <g id="Grupo_103761" data-name="Grupo 103761" transform="translate(0 69.338)">
          <path id="Trazado_165252" data-name="Trazado 165252" d="M201.975,210.643l-2.136-1.243v9.875l2.137,1.234Z" transform="translate(-199.838 -209.4)" fill="#5d27de"/>
          <path id="Trazado_165253" data-name="Trazado 165253" d="M201.975,210.643l-2.136-1.243v9.875l2.137,1.234Z" transform="translate(-199.838 -209.4)" opacity="0.1"/>
        </g>
      </g>
      <g id="Magnifying_glass" data-name="Magnifying glass" transform="translate(281.664 208.561)">
        <g id="Grupo_103762" data-name="Grupo 103762" transform="translate(28.9 32.116)">
          <path id="Trazado_165254" data-name="Trazado 165254" d="M340.931,255.729h0a1.505,1.505,0,0,0-1.515.146,4.734,4.734,0,0,0-2.149,3.7,1.5,1.5,0,0,0,.624,1.388h0l26.636,16.846,0,0a2.045,2.045,0,0,0,2.192-.152,6.614,6.614,0,0,0,3-5.176,2.044,2.044,0,0,0-.956-1.978l0-.006Z" transform="translate(-330.074 -252.011)" fill="#5d27de"/>
          <path id="Trazado_165255" data-name="Trazado 165255" d="M337.267,259.578c0,1.366.955,1.921,2.138,1.241a4.733,4.733,0,0,0,2.149-3.7c0-1.365-.954-1.92-2.138-1.241A4.734,4.734,0,0,0,337.267,259.578Z" transform="translate(-330.074 -252.011)" opacity="0.15"/>
          <path id="Trazado_165256" data-name="Trazado 165256" d="M330.641,251.822a2.861,2.861,0,0,0-1.3,2.239.908.908,0,0,0,.378.839h0l8.041,4.667h0a.908.908,0,0,0,.915-.088,2.861,2.861,0,0,0,1.3-2.239.912.912,0,0,0-.377-.839l-8.041-4.666h0A.91.91,0,0,0,330.641,251.822Z" transform="translate(-329.341 -251.647)" fill="#263238"/>
          <path id="Trazado_165257" data-name="Trazado 165257" d="M340.475,260.394l27.4,16.836a5.209,5.209,0,0,1-1.095.871,2.041,2.041,0,0,1-2.193.15l0,0-26.633-16.843a1.5,1.5,0,0,0,1.514-.148A3.936,3.936,0,0,0,340.475,260.394Z" transform="translate(-330.137 -252.456)" opacity="0.1"/>
        </g>
        <g id="Grupo_103763" data-name="Grupo 103763" transform="translate(0 0)">
          <path id="Trazado_165258" data-name="Trazado 165258" d="M341.332,232.34c-.005-.226-.016-.447-.033-.667s-.028-.435-.05-.65c-.011-.143-.027-.287-.044-.43-.039-.374-.094-.743-.154-1.1-.028-.16-.055-.325-.089-.486s-.06-.3-.093-.451c-.093-.408-.192-.8-.309-1.184-.06-.181-.115-.364-.176-.54a.492.492,0,0,1-.027-.083c-.066-.176-.127-.347-.193-.513-.077-.192-.154-.385-.242-.567-.06-.137-.121-.27-.192-.4a2,2,0,0,0-.143-.286c-.055-.116-.115-.231-.182-.342-.016-.027-.028-.054-.044-.077-.055-.1-.115-.2-.176-.3-.039-.065-.083-.126-.122-.187a9.927,9.927,0,0,0-.948-1.262c-.06-.066-.121-.132-.176-.2s-.1-.105-.149-.154c-.06-.066-.126-.127-.192-.193a6.355,6.355,0,0,0-.573-.512c-.094-.083-.193-.16-.292-.231s-.2-.149-.3-.221a5.4,5.4,0,0,0-.49-.319l-.133-.083-.027-.022h-.005l-5.8-3.362h-.011l-.044-.028a9.794,9.794,0,0,0-4.9-1.239,17.286,17.286,0,0,0-8.5,2.6c-10.5,6.065-19.015,20.812-19.015,32.941,0,6.049,2.115,10.3,5.536,12.3l.033.016v.005l5.809,3.356c0,.005,0,.005,0,.005l.034.022v-.005c.033.017.061.034.093.05.149.088.3.165.452.237.187.093.38.176.573.253.171.072.348.138.524.193.093.033.187.06.28.083a1.963,1.963,0,0,0,.3.088c.1.033.2.055.309.077a1.68,1.68,0,0,0,.226.049c.133.028.275.055.413.072a.285.285,0,0,0,.093.016q.248.042.5.066c2.832.3,6.125-.5,9.651-2.534,10.5-6.064,19.02-20.816,19.02-32.94C341.349,232.912,341.343,232.626,341.332,232.34Zm-12.741-8.577a16.961,16.961,0,0,1,.6,4.628c0,10.7-7.828,24.253-17.094,29.6a16.5,16.5,0,0,1-4.335,1.8,17.182,17.182,0,0,1-.6-4.633c0-10.7,7.828-24.254,17.093-29.6A16.493,16.493,0,0,1,328.591,223.763Z" transform="translate(-297.497 -216.259)" fill="#5d27de"/>
          <path id="Trazado_165259" data-name="Trazado 165259" d="M308.612,269.234,303.033,266c-3.421-2-5.536-6.252-5.536-12.29a37.737,37.737,0,0,1,4.5-16.779l5.808,3.36a37.654,37.654,0,0,0-4.5,16.779C303.305,262.99,305.318,267.185,308.612,269.234Z" transform="translate(-297.497 -218.171)" opacity="0.1"/>
          <path id="Trazado_165260" data-name="Trazado 165260" d="M341.924,232.676c-.005-.226-.016-.447-.033-.667s-.028-.435-.05-.65c-.011-.143-.027-.287-.044-.43-.039-.374-.094-.743-.154-1.1-.028-.16-.055-.325-.089-.486s-.06-.3-.093-.451c-.093-.408-.192-.8-.309-1.184-.06-.182-.115-.364-.176-.54a.492.492,0,0,1-.027-.083c-.066-.176-.127-.347-.193-.513-.077-.192-.154-.385-.242-.567-.06-.137-.121-.27-.192-.4a2,2,0,0,0-.143-.286c-.055-.116-.115-.231-.181-.342-.016-.027-.028-.054-.044-.077-.055-.1-.115-.2-.176-.3-.039-.065-.083-.126-.122-.187a9.924,9.924,0,0,0-.948-1.262c-.06-.066-.121-.132-.176-.2s-.1-.105-.149-.154c-.06-.066-.126-.127-.192-.193a6.355,6.355,0,0,0-.573-.512c-.094-.083-.193-.16-.292-.231s-.2-.149-.3-.221a5.393,5.393,0,0,0-.49-.319c-3.454-2.1-8.4-2.054-13.611,1.229-10.422,6.566-18.969,21.122-19.021,32.94-.027,6.142,2.182,10.433,5.7,12.383.149.088.3.165.452.237.187.094.38.176.573.253.171.072.348.138.524.193.093.033.187.06.28.083a1.965,1.965,0,0,0,.3.088c.1.033.2.055.309.077a1.671,1.671,0,0,0,.226.049c.133.028.275.055.413.072a.285.285,0,0,0,.093.016c.165.028.33.05.5.066,2.832.3,6.125-.5,9.651-2.534,10.5-6.064,19.02-20.816,19.02-32.94C341.94,233.249,341.935,232.962,341.924,232.676Zm-20.932,30.467a13.619,13.619,0,0,1-6.566,2.076c-3.641,0-5.315-2.484-6.071-5.089a17.183,17.183,0,0,1-.6-4.633c0-10.7,7.828-24.254,17.093-29.6a16.493,16.493,0,0,1,4.335-1.8,9.6,9.6,0,0,1,2.231-.28c6.021,0,6.666,6.8,6.666,9.723C338.08,244.238,330.258,257.794,320.992,263.143Z" transform="translate(-298.089 -216.595)" fill="#fff" opacity="0.4"/>
          <path id="Trazado_165261" data-name="Trazado 165261" d="M338.532,233.94c0,10.7-7.82,24.254-17.088,29.6a13.6,13.6,0,0,1-6.562,2.077,5.582,5.582,0,0,1-4.474-1.959H310.4c-.094-.113-.184-.226-.275-.343s-.171-.239-.248-.365c-.058-.085-.113-.176-.162-.266-.035-.059-.072-.117-.1-.176s-.076-.144-.117-.221-.068-.135-.1-.2-.068-.14-.1-.211c-.054-.126-.108-.248-.157-.378-.064-.158-.122-.316-.176-.478s-.108-.324-.153-.486a16.527,16.527,0,0,0,4.336-1.8c9.262-5.345,17.092-18.9,17.092-29.6a16.987,16.987,0,0,0-.6-4.629,9.663,9.663,0,0,1,2.231-.28,6.828,6.828,0,0,1,.879.054c.094.008.184.026.275.04l0,0C337.968,225.135,338.532,231.214,338.532,233.94Z" transform="translate(-298.543 -216.995)" opacity="0.1"/>
          <path id="Trazado_165262" data-name="Trazado 165262" d="M335.2,232.075c0,10.7-7.82,24.254-17.087,29.6a13.6,13.6,0,0,1-6.567,2.078,6.722,6.722,0,0,1-1.15-.094c-.094-.113-.184-.226-.275-.343s-.171-.239-.248-.365c-.058-.085-.113-.176-.162-.266-.035-.059-.072-.117-.1-.176s-.076-.144-.117-.221-.068-.135-.1-.2-.068-.14-.1-.211c-.054-.126-.108-.248-.157-.378-.064-.158-.122-.316-.176-.478s-.108-.324-.153-.486a16.527,16.527,0,0,0,4.336-1.8c9.262-5.345,17.092-18.9,17.092-29.6a16.987,16.987,0,0,0-.6-4.629,9.663,9.663,0,0,1,2.231-.28,6.828,6.828,0,0,1,.879.054c.094.008.184.026.275.04C334.926,226.553,335.2,230.15,335.2,232.075Z" transform="translate(-298.543 -216.995)" fill="#fff" opacity="0.7"/>
        </g>
      </g>
    </g>
  </g>
</svg>
