<svg xmlns="http://www.w3.org/2000/svg" xmlns:xlink="http://www.w3.org/1999/xlink" width="330.268" height="399" viewBox="0 0 330.268 399">
  <defs>
    <clipPath id="clip-path">
      <rect id="Rect치ngulo_32437" data-name="Rect치ngulo 32437" width="271" height="300" transform="translate(-0.151 0)" fill="#fff" stroke="#707070" stroke-width="1"/>
    </clipPath>
  </defs>
  <g id="Grupo_104192" data-name="Grupo 104192" transform="translate(-1089.732 -12362)">
    <g id="Grupo_104105" data-name="Grupo 104105" transform="translate(-3 672)">
      <path id="Rect치ngulo_32438" data-name="Rect치ngulo 32438" d="M66,0H301a0,0,0,0,1,0,0V92a0,0,0,0,1,0,0H0a0,0,0,0,1,0,0V66A66,66,0,0,1,66,0Z" transform="translate(1122 11997)" fill="#ffdc72" opacity="0.5"/>
      <g id="Enmascarar_grupo_54" data-name="Enmascarar grupo 54" transform="translate(1152.15 11789)" clip-path="url(#clip-path)">
        <g id="Grupo_92764" data-name="Grupo 92764" transform="translate(7.787 0.266)">
          <g id="Grupo_92724" data-name="Grupo 92724" transform="translate(6.943 742.477)" opacity="0.5">
            <g id="Grupo_92723" data-name="Grupo 92723">
              <g id="Grupo_92722" data-name="Grupo 92722">
                <path id="Trazado_136029" data-name="Trazado 136029" d="M-3471.444,2708.222c0,9.406,57.386,17.031,128.177,17.031s128.181-7.625,128.181-17.031-57.39-17.03-128.181-17.03S-3471.444,2698.816-3471.444,2708.222Z" transform="translate(3471.444 -2691.191)" fill="#231f20"/>
              </g>
            </g>
          </g>
          <ellipse id="Elipse_4200" data-name="Elipse 4200" cx="18.173" cy="28.35" rx="18.173" ry="28.35" transform="translate(133.826 77.926)" fill="#603913"/>
          <path id="Trazado_136030" data-name="Trazado 136030" d="M-3316.685,2332.466c-10.452,6.843-36.886,74.06-42.759,126.587,0,0,18.623,7.514,24.47,4.242,7.547-4.224,32.952-86.785,32.952-86.785Z" transform="translate(3385.572 -2165.717)" fill="#8c6df2"/>
          <path id="Trazado_136031" data-name="Trazado 136031" d="M-3358.536,2410.184c2.375-14.3,6.079-28.394,9.577-42.454,1.788-7.189,3.137-14.827,6.042-21.638l7.383,22.175s-13.489,43.826-23.729,69.246C-3359.351,2427.982-3359.895,2418.361-3358.536,2410.184Z" transform="translate(3419.083 -2157.474)" fill="#5038a1"/>
          <path id="Trazado_136032" data-name="Trazado 136032" d="M-3313.626,2432.248c1.136-1.051,14.192-10.278,5.872-26.427s-15.169-16.64-15.169-16.64-27.9,17.619-23,30.833S-3326.84,2444.482-3313.626,2432.248Z" transform="translate(3367.774 -2131.407)" fill="#e6e7e8"/>
          <path id="Trazado_136033" data-name="Trazado 136033" d="M-3427.17,2334.96c11.193,8.324,36.227,105.656,36.543,133.195.093,8.089-22.512,22.512-28.385,10.766s-33.344-105.707-33.344-105.707Z" transform="translate(3623.292 -2164.207)" fill="#8c6df2"/>
          <path id="Trazado_136034" data-name="Trazado 136034" d="M-3441.24,2489s-7.742,14.978-9.015,18.726-4.925,19.739-4.925,19.739,3.51,2.366,7.824-4.171,3.948-10.626,6.755-8.5,3.143,19.9,3.724,21.989,2.281,12.922,5.428,13.022,2.836-.745,2.836-.745,3.5,1.671,3.386-.6c-.039-.773,2.639-19.067,5.091-23.379s-.4-26.487.168-29.867a38.55,38.55,0,0,0-.863-14.794l-19.788,4.292Z" transform="translate(3656.323 -2076.214)" fill="#fab57a"/>
          <path id="Trazado_136035" data-name="Trazado 136035" d="M-3425.678,2417.951l3.263,103.1c-5.3,3.976-12.18,4.114-20.168,1.569l-11.806-98.14Z" transform="translate(3658.343 -2114.004)" fill="#fab57a"/>
          <path id="Trazado_136036" data-name="Trazado 136036" d="M-3450.068,2452.17l-2.953-27.694,28.71-6.525,1.067,33.766C-3432.188,2451.681-3441.128,2451.864-3450.068,2452.17Z" transform="translate(3656.976 -2114.004)" fill="#e58052"/>
          <path id="Trazado_136037" data-name="Trazado 136037" d="M-3413.805,2414.34c-11.745-1.469-39.151,10.277-42.088,14.682s3.915,21.533,3.915,21.533l38.174-3.427Z" transform="translate(3653.322 -2116.265)" fill="#e6e7e8"/>
          <path id="Trazado_136038" data-name="Trazado 136038" d="M-3342.054,2346.537s4.549,104.2,32.308,108.716c0,0,7.27,2.163,14.685-8,10.147-6.292-28.3-87.411-30.516-102.336Z" transform="translate(3348.999 -2158.182)" fill="#fab57a"/>
          <path id="Trazado_136039" data-name="Trazado 136039" d="M-3331.364,2798.555s-25.5-104.926-37.558-130.253-12.663-42.211-20.5-55.477-40.314-118.192-30.665-155.578l62.11,44.02,10.164,103.72s4.221,34.974,7.839,41.608,12.663,29.548,17.487,52.463-9.477,54.271,6.8,72.965,2.413,21.708,6.634,37.387,10.854,33.77,3.617,37.99-24.724,5.427-25.929-.6S-3326.539,2816.646-3331.364,2798.555Z" transform="translate(3485.943 -2090.233)" fill="#e78052"/>
          <path id="Trazado_136040" data-name="Trazado 136040" d="M-3417.552,2443.3c-1.758,15.167-3.148,46.737-.49,55,5.427,16.884,50.653,29.548,50.653,29.548s-1.809,13.266-3.015,34.975-5.427,62.111-2.413,72.361-2.755,102.514-7.58,124.223-11.8,46.432-17.229,65.728-16.281,34.373-17.487,40.4,9.648,6.031,25.929,4.221,15.679-13.869,16.282-24.723,12.664-15.076,13.267-21.709-3.618-21.709-3.618-32.562,29.633-111.559,26.618-153.77,22.915-63.317,30.755-115.177c5.761-38.129-8.253-69.332-15.95-81.344C-3330.324,2433.294-3393.572,2430.088-3417.552,2443.3Z" transform="translate(3484.5 -2104.151)" fill="#fab57a"/>
          <path id="Trazado_136041" data-name="Trazado 136041" d="M-3331.005,2599.791c7.378-22.558,20.574-43.458,25.791-77.972,5.761-38.129-8.252-69.332-15.95-81.344-8.493-7.181-71.742-10.387-95.722,2.826-.955,8.234-1.793,21.289-1.944,32.838-3.318,29.674,5.47,88.794,21.948,123.907C-3380.259,2595.021-3345.916,2593.782-3331.005,2599.791Z" transform="translate(3483.833 -2104.151)" fill="#8c6df2"/>
          <path id="Trazado_136042" data-name="Trazado 136042" d="M-3394.818,2465.8c12.248,4.131,26.638,4.064,39.312,2.682,16.036-1.75,31.5-6.29,46.627-11.766a99.935,99.935,0,0,0-8.159-16.247c-8.493-7.181-71.741-10.387-95.722,2.826-.389,3.353-.755,7.525-1.067,12.05C-3407.7,2459.264-3401.7,2463.486-3394.818,2465.8Z" transform="translate(3479.708 -2104.151)" fill="#5038a1"/>
          <path id="Trazado_136043" data-name="Trazado 136043" d="M-3331.318,2667.205c-1.1.658-2.182,1.335-3.237,2.072-10.119,7.066-11.455,16.361-16.5,26.624-5.864,11.923-16.2,12.3-27.271,14.178-3.385,6.585-6.22,11.621-6.8,14.533-1.205,6.031,9.649,6.031,25.93,4.221s15.678-13.87,16.281-24.723c.252-4.531,2.5-7.9,5.083-10.775,1.851,9.186-.939,31.948-.939,31.948h5.573c0-20.353,3.55-42.882,3.55-42.882C-3329.345,2678.993-3330.308,2673.35-3331.318,2667.205Z" transform="translate(3454.519 -1963.224)" fill="#12263f"/>
          <path id="Trazado_136044" data-name="Trazado 136044" d="M-3399.39,2689.036a23.341,23.341,0,0,1-.817-5.537c3.094,3.282,4.847,9.045,4.847,9.045a4.309,4.309,0,0,0,2.544-3.392c-3.731-9.988-4.833-16.523-5.168-19.645.285-3.628-.521-7.653-4.46-13.272-1.011,5.6-4,11.062-4.545,17.113s.556,11.59,1.669,17.465c.615,3.25,1.447,7.271.3,10.555-2.183,6.229-8.771,7.4-15.485,7.271-.749,8.222-1.754,14.975-1.192,17.786,1.205,6.03,18.693,4.823,25.929.6S-3395.169,2704.715-3399.39,2689.036Z" transform="translate(3576.281 -1969.86)" fill="#12263f"/>
          <path id="Trazado_136045" data-name="Trazado 136045" d="M-3336.915,2316.274s-7.5-9.3-15.5-6.361-17.781,12.07-26.752,11.093c0,0,7.177,10.766,18.6,7.5S-3336.915,2316.274-3336.915,2316.274Z" transform="translate(3452.114 -2179.706)" fill="#5038a1"/>
          <path id="Trazado_136046" data-name="Trazado 136046" d="M-3326.17,2474.938c1.492-10.734,37.028-116.243,37.028-116.243s-37.3-20.783-40.925-22.294c-13.061-5.449-1.806-39.152-1.806-39.152l-34.206,1.215-9.765,33.643s-36.109,18.559-40.513,20.845-.49.6.244,17.993c.479,11.382-7.139,25.186-7.442,41.768s12.05,38.3,12.05,38.307c-4.924,37.868-18.808,66-18.808,69.92.032,10.737,22,14.966,46.851,15.55,2,.046,6.033-7.76,6.033-7.76s4.348,7.808,6.526,7.761c28.776-.627,57.191-5.357,57.195-9.971C-3313.708,2526.519-3327.663,2485.674-3326.17,2474.938Z" transform="translate(3486.429 -2187.02)" fill="#8c6df2"/>
          <path id="Trazado_136047" data-name="Trazado 136047" d="M-3383.805,2369.789c3.892-3.544,8.3-6.352,11.647-10.493,5.648-6.992,12.606-15.926,16.958-24.3-9.408-8.275.427-37.744.427-37.744l-34.205,1.215-9.765,33.643-4.943,2.542c1.685,14.458,4.848,31.668,11.64,44.064C-3391.9,2378.555-3386.036,2371.819-3383.805,2369.789Z" transform="translate(3509.33 -2187.02)" fill="#fab57a"/>
          <path id="Trazado_136048" data-name="Trazado 136048" d="M-3355.2,2334.994a91.217,91.217,0,0,1-5.089,8.466c-15.876,9.034-29.677,10.341-41.768,2.724-.663-3.94-1.2-7.829-1.629-11.535l4.943-2.542,9.765-33.643,34.205-1.215S-3364.609,2326.719-3355.2,2334.994Z" transform="translate(3509.33 -2187.02)" fill="#e68052"/>
          <path id="Trazado_136049" data-name="Trazado 136049" d="M-3352.028,2315.543s-16,6.784-26.247,29.364c-5.659,12.469,1.15,1.4,1.15,1.4l4.264-7.465s24.533,25.377,26.173,28.821l-6.6-45.776Z" transform="translate(3464.068 -2175.953)" fill="#e6e7e8"/>
          <path id="Trazado_136050" data-name="Trazado 136050" d="M-3360.534,2310s1.837,2.1,1.837,3.1-2.448,3.235-1.958,4.738,1.143,3.728.164,5.4-2.609,8.627-23.164,9.3-19.331-5.558-17.863-7.728a7.54,7.54,0,0,0,.246-6.852c-.735-1,.856-3,2.078-3.671S-3376.438,2317.516-3360.534,2310Z" transform="translate(3510.926 -2179.306)" fill="#8c6df2"/>
          <path id="Trazado_136051" data-name="Trazado 136051" d="M-3373.542,2315.9s7.522,7.45,8.445,10.26c1.188,3.614.327,27.4.327,27.4l-12.631-9.679-10.663,6.891-19.015,16.635S-3376.494,2328.364-3373.542,2315.9Z" transform="translate(3524.467 -2175.74)" fill="#e6e7e8"/>
          <path id="Trazado_136052" data-name="Trazado 136052" d="M-3348.191,2368.717s-9.461-1.306-24.469.326c0,0,10.114-13.051,15.008-14.682S-3348.191,2368.717-3348.191,2368.717Z" transform="translate(3452.949 -2152.542)" fill="#e6e7e8"/>
          <g id="Grupo_92725" data-name="Grupo 92725" transform="translate(76.255 213.544)">
            <path id="Trazado_136053" data-name="Trazado 136053" d="M-3374.534,2367.318c19.931-3.754,30.6-.343,30.705-.31l1.247-3.712c-.463-.158-11.619-3.8-32.68.176Z" transform="translate(3375.262 -2361.622)" fill="#5038a1"/>
          </g>
          <g id="Grupo_92726" data-name="Grupo 92726" transform="translate(128.577 198.202)">
            <path id="Trazado_136054" data-name="Trazado 136054" d="M-3391.475,2355.061l2.366-3h13.771c.005.107.013.215.013.324,0,2.9-1.874,5.279-4.165,5.279h-23.969c-2.291,0-4.165-2.376-4.165-5.279,0-.109.008-.217.013-.324h13.772Z" transform="translate(3407.624 -2352.063)" fill="#ffdc72"/>
          </g>
          <g id="Grupo_92760" data-name="Grupo 92760" transform="translate(81.753 17.157)">
            <g id="Grupo_92750" data-name="Grupo 92750" transform="translate(0 18.118)">
              <g id="Grupo_92749" data-name="Grupo 92749">
                <g id="Grupo_92728" data-name="Grupo 92728" transform="translate(0 40.951)">
                  <g id="Grupo_92727" data-name="Grupo 92727">
                    <path id="Trazado_136055" data-name="Trazado 136055" d="M-3352.788,2286.09c1.981,6.67.183,13.089-4.021,14.337s-9.215-3.146-11.2-9.815-.182-13.09,4.021-14.338S-3354.768,2279.421-3352.788,2286.09Z" transform="translate(3368.811 -2276.063)" fill="#e78052"/>
                  </g>
                </g>
                <g id="Grupo_92730" data-name="Grupo 92730" transform="translate(74.551 40.022)">
                  <g id="Grupo_92729" data-name="Grupo 92729">
                    <path id="Trazado_136056" data-name="Trazado 136056" d="M-3399.052,2289.627c-1.512,6.791-6.207,11.525-10.485,10.571s-6.523-7.23-5.011-14.022,6.208-11.525,10.484-10.571S-3397.541,2282.836-3399.052,2289.627Z" transform="translate(3415.02 -2275.484)" fill="#e78052"/>
                  </g>
                </g>
                <g id="Grupo_92732" data-name="Grupo 92732" transform="translate(8.883)">
                  <g id="Grupo_92731" data-name="Grupo 92731">
                    <path id="Trazado_136057" data-name="Trazado 136057" d="M-3373.243,2250.549c-34.334.369-36.057,32.6-36.141,36.489,0,.236,0,.462.019.7.244,3.583,2.605,36.726,5.979,43.025,2.8,5.222,23.247,22.091,31.454,22.091s27.868-17.476,30.551-22.758c3.237-6.371,4.882-39.554,5.052-43.143.011-.236.015-.462,0-.7C-3336.494,2282.37-3338.91,2250.18-3373.243,2250.549Z" transform="translate(3409.386 -2250.546)" fill="#fbbe7d"/>
                  </g>
                </g>
                <path id="Trazado_136058" data-name="Trazado 136058" d="M-3342.146,2266.555l.005,0c-.011-.024-.031-.048-.044-.071a34.224,34.224,0,0,0-1.908-2.873c-.193-.262-.417-.509-.618-.768-.518-.657-1.053-1.306-1.634-1.937-.327-.355-.68-.7-1.031-1.038-.519-.514-1.061-1.013-1.631-1.5-.418-.356-.845-.7-1.291-1.044-.588-.446-1.215-.866-1.855-1.281-.479-.313-.948-.632-1.46-.924-.8-.453-1.658-.857-2.53-1.255a39.52,39.52,0,0,0-17.1-3.314c-34.334.368-36.057,32.6-36.141,36.489,0,.236,0,.462.019.7.031.462.1,1.437.2,2.767a230.557,230.557,0,0,1,27.96-13.582c10.234-3.994,19.818-5.79,29.947-8.113a121.722,121.722,0,0,0,14.623,23.811c.164-2.825.269-4.917.3-5.667.011-.236.015-.462,0-.7A45.206,45.206,0,0,0-3342.146,2266.555Z" transform="translate(3418.269 -2250.546)" fill="#e78052"/>
                <g id="Grupo_92743" data-name="Grupo 92743" transform="translate(24.774 46.708)">
                  <g id="Grupo_92737" data-name="Grupo 92737" transform="translate(31.44)">
                    <g id="Grupo_92736" data-name="Grupo 92736">
                      <g id="Grupo_92735" data-name="Grupo 92735">
                        <g id="Grupo_92734" data-name="Grupo 92734">
                          <g id="Grupo_92733" data-name="Grupo 92733">
                            <path id="Trazado_136059" data-name="Trazado 136059" d="M-3394.131,2279.665c-2.406-.242-4.489,2.349-4.649,5.792s1.656,6.426,4.063,6.669,4.488-2.351,4.649-5.791S-3391.727,2279.907-3394.131,2279.665Z" transform="translate(3398.791 -2279.649)" fill="#3e2511"/>
                          </g>
                        </g>
                      </g>
                    </g>
                  </g>
                  <g id="Grupo_92742" data-name="Grupo 92742" transform="translate(0 0.337)">
                    <g id="Grupo_92741" data-name="Grupo 92741">
                      <g id="Grupo_92740" data-name="Grupo 92740">
                        <g id="Grupo_92739" data-name="Grupo 92739">
                          <g id="Grupo_92738" data-name="Grupo 92738">
                            <path id="Trazado_136060" data-name="Trazado 136060" d="M-3374.543,2279.875c-2.406-.242-4.49,2.351-4.649,5.792s1.657,6.428,4.063,6.67,4.487-2.35,4.649-5.791S-3372.137,2280.118-3374.543,2279.875Z" transform="translate(3379.202 -2279.859)" fill="#3e2511"/>
                          </g>
                        </g>
                      </g>
                    </g>
                  </g>
                </g>
                <g id="Grupo_92748" data-name="Grupo 92748" transform="translate(40.288 60.593)">
                  <g id="Grupo_92747" data-name="Grupo 92747">
                    <g id="Grupo_92746" data-name="Grupo 92746">
                      <g id="Grupo_92745" data-name="Grupo 92745">
                        <g id="Grupo_92744" data-name="Grupo 92744">
                          <path id="Trazado_136061" data-name="Trazado 136061" d="M-3382.512,2295.6c-.581.963-.546.793-.15,1.52a8.3,8.3,0,0,0,1.313,1.384c.853.9-2.85.7-3.5.011-.546-.574-1.862-1.517-2.132-2.288-.326-.92.332-1.274.985-1.835a11.427,11.427,0,0,0,3.686-5.977C-3382.078,2287.482-3380.534,2292.32-3382.512,2295.6Z" transform="translate(3387.073 -2288.3)" fill="#e78052"/>
                        </g>
                      </g>
                    </g>
                  </g>
                </g>
              </g>
              <path id="Trazado_136062" data-name="Trazado 136062" d="M-3396.119,2299.208a93.852,93.852,0,0,1,29.069,0s-7.426,12.52-14.428,12.52S-3396.119,2299.208-3396.119,2299.208Z" transform="translate(3427.707 -2221.795)" fill="#fff"/>
            </g>
            <path id="Trazado_136063" data-name="Trazado 136063" d="M-3377.981,2241.238c34.543-9.479,37.674,18.156,37.674,18.156s5.651,2.077,8.117,6.233,1.288,26.309-5.486,34.537c-5.184-7.342-12.945-28.924-12.945-28.924s-21.753-.663-60.339,27.916C-3419.024,2273.673-3409.25,2249.819-3377.981,2241.238Z" transform="translate(3419.805 -2239.258)" fill="#754c29"/>
            <g id="Grupo_92759" data-name="Grupo 92759" transform="translate(15.909 49.81)">
              <g id="Grupo_92754" data-name="Grupo 92754" transform="translate(35.649)">
                <g id="Grupo_92753" data-name="Grupo 92753">
                  <g id="Grupo_92752" data-name="Grupo 92752">
                    <g id="Grupo_92751" data-name="Grupo 92751">
                      <path id="Trazado_136064" data-name="Trazado 136064" d="M-3404.669,2273.16a6.751,6.751,0,0,0,.668-.129c13.379-2.9,20.183,4.155,20,3.835a3.515,3.515,0,0,0,2.048.915c.52-.04.493-.551-.12-1.138-.016.327-5.959-8.707-21.951-5.759C-3405.113,2271.141-3405.477,2273.28-3404.669,2273.16Z" transform="translate(3405.107 -2270.293)" fill="#3e2511"/>
                    </g>
                  </g>
                </g>
              </g>
              <g id="Grupo_92758" data-name="Grupo 92758" transform="translate(0 3.087)">
                <g id="Grupo_92757" data-name="Grupo 92757">
                  <g id="Grupo_92756" data-name="Grupo 92756">
                    <g id="Grupo_92755" data-name="Grupo 92755">
                      <path id="Trazado_136065" data-name="Trazado 136065" d="M-3360.207,2275.206a4.915,4.915,0,0,1-.6-.13c-11.948-3.079-19.307,3.235-19.083,3.015a3.52,3.52,0,0,1-2.1.792c-.516-.069-.446-.58.211-1.132-.064.218,6.834-8.084,21.273-4.739C-3359.529,2273.28-3359.488,2275.326-3360.207,2275.206Z" transform="translate(3382.329 -2272.217)" fill="#3e2511"/>
                    </g>
                  </g>
                </g>
              </g>
            </g>
          </g>
          <g id="Grupo_92761" data-name="Grupo 92761" transform="translate(91.058)">
            <path id="Trazado_136066" data-name="Trazado 136066" d="M-3375.857,2228.6a13.244,13.244,0,0,1,2.065.024,13.253,13.253,0,0,1,2.066-.024c21.947,1.469,39.613,39.64,36.944,43.5-2.2,3.183-29.495,10.981-39.009,10.874-9.514.107-36.811-7.691-39.008-10.874C-3415.467,2268.236-3397.8,2230.065-3375.857,2228.6Z" transform="translate(3413.067 -2228.567)" fill="#8c6df2"/>
          </g>
          <g id="Grupo_92762" data-name="Grupo 92762" transform="translate(112.826)">
            <path id="Trazado_136067" data-name="Trazado 136067" d="M-3399.5,2235.5c4.711-3.861,9.94-6.535,15.44-6.9a13.253,13.253,0,0,1,2.066.024,13.25,13.25,0,0,1,2.065-.024c5.5.369,10.73,3.043,15.441,6.9-6.853,4.167-13.645,7.229-17.507,7.123C-3385.858,2242.729-3392.65,2239.667-3399.5,2235.5Z" transform="translate(3399.503 -2228.567)" fill="#5038a1"/>
          </g>
          <g id="Grupo_92763" data-name="Grupo 92763" transform="translate(95.515 26.151)">
            <path id="Trazado_136068" data-name="Trazado 136068" d="M-3375.537,2259.409h.174c6.954,0,24.543-9.186,32.881-14.547.655,1.156,1.269,2.285,1.828,3.393-9.273,5.994-26.881,15.07-34.684,15.07h-.221c-7.84,0-25.454-9.077-34.73-15.07.563-1.11,1.174-2.237,1.829-3.393C-3400.12,2250.223-3382.52,2259.409-3375.537,2259.409Z" transform="translate(3410.289 -2244.862)" fill="#ffe177"/>
          </g>
          <path id="Trazado_136069" data-name="Trazado 136069" d="M-3382.37,2498.1l24.229-7.432c-5.5,10.509-8.972,23.494-11.63,37.479C-3372.554,2516.752-3375.984,2505.988-3382.37,2498.1Z" transform="translate(3478.485 -2070.018)" fill="#5038a1"/>
          <path id="Trazado_136070" data-name="Trazado 136070" d="M-3299.792,2338.576c-.833,2.8-2.075,3.969-3.04,6.908a8.533,8.533,0,0,1-.736,1.581c-.041-8.858-.668-42.267-11.064-41.261-21.464,2.081-19.431,41.123-19.431,41.123-2.523,20.21,4.509,26.449,15.078,27.34a17.774,17.774,0,0,0,5.094-.281c3.159-1.162,9.269-3.7,12.061-7.347,3.679-4.807,9.51-29.274,10.748-31.83S-3296.794,2328.493-3299.792,2338.576Z" transform="translate(3334.578 -2181.859)" fill="#fab57a"/>
        </g>
      </g>
    </g>
    <g id="Grupo_103939" data-name="Grupo 103939" transform="translate(1089.732 12362)">
      <g id="Grupo_103923" data-name="Grupo 103923" transform="translate(0 0)">
        <g id="Grupo_103919" data-name="Grupo 103919" transform="translate(21.852 58.14)">
          <path id="Trazado_165598" data-name="Trazado 165598" d="M193.408,194.1a30.47,30.47,0,0,1-8.985-1.346v72.459a8.466,8.466,0,0,1-8.466,8.466H105.476v8.789a8.466,8.466,0,0,0,8.466,8.466h83.867a8.466,8.466,0,0,0,8.466-8.466V191.256A30.364,30.364,0,0,1,193.408,194.1Z" transform="translate(-105.476 -191.256)" fill="#e6deff"/>
        </g>
        <g id="Grupo_103920" data-name="Grupo 103920" transform="translate(0 6.943)">
          <path id="Trazado_165599" data-name="Trazado 165599" d="M127.127,31.646H45.818a8.466,8.466,0,0,0-8.466,8.466V156.8a8.466,8.466,0,0,0,8.466,8.466h83.867a8.466,8.466,0,0,0,8.466-8.466V84.979" transform="translate(-37.352 -31.646)" fill="#faf7f5"/>
        </g>
        <g id="Grupo_103921" data-name="Grupo 103921" transform="translate(79.3)">
          <ellipse id="Elipse_5323" data-name="Elipse 5323" cx="30.484" cy="30.491" rx="30.484" ry="30.491" fill="#8c71ef"/>
        </g>
        <g id="Grupo_103922" data-name="Grupo 103922" transform="translate(21.499 32.275)">
          <path id="Trazado_165600" data-name="Trazado 165600" d="M104.377,110.62h57.8v13.547h-57.8Z" transform="translate(-104.377 -110.62)" fill="#ffb74d"/>
        </g>
      </g>
      <g id="Grupo_103938" data-name="Grupo 103938" transform="translate(18.291 12.759)">
        <g id="Grupo_103925" data-name="Grupo 103925" transform="translate(88.299 10.321)">
          <g id="Grupo_103924" data-name="Grupo 103924" transform="translate(0)">
            <path id="Trazado_165601" data-name="Trazado 165601" d="M372.863,110.3a3.208,3.208,0,0,1-3.208-3.208V85.164a3.208,3.208,0,0,1,6.415,0V107.1A3.208,3.208,0,0,1,372.863,110.3Z" transform="translate(-369.655 -81.956)" fill="#ffdc72"/>
          </g>
        </g>
        <g id="Grupo_103927" data-name="Grupo 103927" transform="translate(88.285)">
          <g id="Grupo_103926" data-name="Grupo 103926" transform="translate(0)">
            <circle id="Elipse_5324" data-name="Elipse 5324" cx="3.208" cy="3.208" r="3.208" fill="#ffdc72"/>
          </g>
        </g>
        <g id="Grupo_103937" data-name="Grupo 103937" transform="translate(0 47.426)">
          <g id="Grupo_103936" data-name="Grupo 103936">
            <g id="Grupo_103929" data-name="Grupo 103929">
              <g id="Grupo_103928" data-name="Grupo 103928">
                <path id="Trazado_165602" data-name="Trazado 165602" d="M155.385,204.048h-57.8a3.208,3.208,0,1,1,0-6.415h57.8a3.208,3.208,0,1,1,0,6.415Z" transform="translate(-94.377 -197.633)" fill="#bfbebe"/>
              </g>
            </g>
            <g id="Grupo_103931" data-name="Grupo 103931" transform="translate(0 15.214)">
              <g id="Grupo_103930" data-name="Grupo 103930">
                <path id="Trazado_165603" data-name="Trazado 165603" d="M155.385,251.478h-57.8a3.208,3.208,0,1,1,0-6.415h57.8a3.208,3.208,0,1,1,0,6.415Z" transform="translate(-94.377 -245.063)" fill="#bfbebe"/>
              </g>
            </g>
            <g id="Grupo_103933" data-name="Grupo 103933" transform="translate(0 30.427)">
              <g id="Grupo_103932" data-name="Grupo 103932">
                <path id="Trazado_165604" data-name="Trazado 165604" d="M155.385,298.908h-57.8a3.208,3.208,0,1,1,0-6.415h57.8a3.208,3.208,0,1,1,0,6.415Z" transform="translate(-94.377 -292.493)" fill="#bfbebe"/>
              </g>
            </g>
            <g id="Grupo_103935" data-name="Grupo 103935" transform="translate(0 45.641)">
              <g id="Grupo_103934" data-name="Grupo 103934">
                <path id="Trazado_165605" data-name="Trazado 165605" d="M155.385,346.338h-57.8a3.208,3.208,0,1,1,0-6.415h57.8a3.208,3.208,0,1,1,0,6.415Z" transform="translate(-94.377 -339.923)" fill="#bfbebe"/>
              </g>
            </g>
          </g>
        </g>
      </g>
    </g>
  </g>
</svg>
