<svg xmlns="http://www.w3.org/2000/svg" width="251" height="246" viewBox="0 0 251 246">
  <g id="Grupo_53293" data-name="Grupo 53293" transform="translate(-0.165)">
    <rect id="Rectángulo_5312" data-name="Rectángulo 5312" width="251" height="246" transform="translate(0.165)" fill="none"/>
    <g id="Grupo_103765" data-name="Grupo 103765" transform="translate(-1259.371 -875.725)">
      <g id="Grupo_103775" data-name="Grupo 103775">
        <g id="Grupo_103765-2" data-name="Grupo 103765">
          <path id="Trazado_165263" data-name="Trazado 165263" d="M1390.638,982.021l-6.7,79.68s-.7,4.83,2.891,4.839c5.907.014,29.4,0,29.4,0s-4.446-1.006-4.392-3.268c.064-2.666,7.832-82,7.832-82Z" fill="#798ee8"/>
        </g>
        <g id="Grupo_103766" data-name="Grupo 103766">
          <path id="Trazado_165264" data-name="Trazado 165264" d="M1418.441,1065.092c-1.162,0-23.908.041-29.661-.032-2.506-.031-2.946-2.229-2.967-3.652a7.175,7.175,0,0,1,.076-1.186l.174-2.071.445-5.278.392-4.664.5-5.992.425-5.059,4.761-56.618,29.032-.753s-3.272,33.2-5.586,57.371c-.259,2.693-.505,5.275-.732,7.686q-.111,1.154-.213,2.254c-.215,2.287-.411,4.387-.582,6.241-.09.977-.173,1.885-.248,2.717-.3,3.259-.468,5.341-.471,5.736a3.344,3.344,0,0,0,.057.645C1414.323,1064.977,1418.005,1065.092,1418.441,1065.092Z" fill="#aec3ff"/>
        </g>
        <g id="Grupo_103767" data-name="Grupo 103767">
          <path id="Trazado_165265" data-name="Trazado 165265" d="M1320.133,938.628l16.323,65.567,2.235,8.98,7.6,30.539h141.243l-28.022-105.085Z" fill="#aec3ff"/>
        </g>
        <g id="Grupo_103768" data-name="Grupo 103768">
          <path id="Trazado_165266" data-name="Trazado 165266" d="M1320.132,938.628l-2.262.754,25.416,106.612,3.008-2.281Z" fill="#798ee8"/>
        </g>
        <g id="Grupo_103769" data-name="Grupo 103769">
          <path id="Trazado_165267" data-name="Trazado 165267" d="M1343.286,1045.995h140.374l3.876-2.281H1346.293Z" fill="#849def"/>
        </g>
        <g id="Grupo_103770" data-name="Grupo 103770">
          <rect id="Rectángulo_32260" data-name="Rectángulo 32260" width="30.393" height="1.444" transform="translate(1422.974 1066.536) rotate(180)" fill="#aec3ff"/>
        </g>
        <g id="Grupo_103771" data-name="Grupo 103771">
          <path id="Trazado_165268" data-name="Trazado 165268" d="M1415.248,1045.994l-.157,1.1-28.583,5.775.392-4.663.187-2.215Z" fill="#8c9df4"/>
        </g>
        <g id="Grupo_103772" data-name="Grupo 103772" opacity="0.5">
          <path id="Trazado_165269" data-name="Trazado 165269" d="M1418.441,1065.092c-1.162,0-23.908.041-29.661-.032-2.506-.031-2.946-2.229-2.967-3.652l28.448-5.352c-.3,3.259-.468,5.341-.471,5.736a3.344,3.344,0,0,0,.057.645C1414.323,1064.977,1418.005,1065.092,1418.441,1065.092Z" fill="#8c9df4"/>
        </g>
        <g id="Grupo_103773" data-name="Grupo 103773">
          <path id="Trazado_165270" data-name="Trazado 165270" d="M1320.132,938.628h139.382l22.615,84.456H1341.158Z" fill="#8c9df4"/>
        </g>
        <g id="Grupo_103774" data-name="Grupo 103774">
          <path id="Trazado_165271" data-name="Trazado 165271" d="M1475.555,1019.424h-130.5l-4.664-18.578-1.8-7.188-.735-2.931-4.794-19.092-.248-.994-2.534-10.092-1.134-4.516-.967-3.852-.789-3.141-1.478-5.887h128.624l1.623,5.887.865,3.141,1.062,3.852,1.244,4.516,8.2,29.748h0l.694,2.52.324,1.17,5.662,20.537Z" fill="#505aba"/>
        </g>
      </g>
      <g id="Grupo_103797" data-name="Grupo 103797">
        <g id="Grupo_103796" data-name="Grupo 103796">
          <g id="Grupo_103776" data-name="Grupo 103776">
            <path id="Trazado_165272" data-name="Trazado 165272" d="M1336.736,984s.34-3.71-3.8-3.71a4.876,4.876,0,0,1,1.906,1.022,4.9,4.9,0,0,0-5.521.833c-2.876,2.385-1.089,8.366-1.964,9.5s-4.282,1.363-3.865,5.035,10.812,8.271,10.145,11.308c0,0,4.074-5.988,1.16-8.722a5.4,5.4,0,0,1,1.565,2.928s.385-3.1-1.59-4.1c-1.748-.879-3.179-4.092-3.028-4.666S1336.736,984,1336.736,984Z" fill="#2c3a64"/>
          </g>
          <g id="Grupo_103777" data-name="Grupo 103777">
            <path id="Trazado_165273" data-name="Trazado 165273" d="M1332.655,1001.81s3.1,12.81,6.136,15.371c1.827,1.539,7.26,5.072,7.26,5.072l-2.26.82s-7.535-2.545-9.222-4.528-6.3-11.922-6.3-11.922Z" fill="#ffb27d"/>
          </g>
          <g id="Grupo_103778" data-name="Grupo 103778">
            <path id="Trazado_165274" data-name="Trazado 165274" d="M1350.534,1026.935l-.728-1.8a5.11,5.11,0,0,0-4.739-3.2h-13.424v44.883h55.53v-36.365h-31.424A5.624,5.624,0,0,1,1350.534,1026.935Z" fill="#f99746"/>
          </g>
          <g id="Grupo_103779" data-name="Grupo 103779">
            <path id="Trazado_165275" data-name="Trazado 165275" d="M1303.553,1024.315c.027.049.056.1.085.151.678,1.177,2.232,4.063,3.944,7.221.81,1.5,1.658,3.058,2.463,4.526,1.385,2.533,2.646,4.788,3.382,5.98.748,1.213,1.3,2.064,1.522,2.405h0a.566.566,0,0,1,.072.352,18.379,18.379,0,0,0,.049,3.176,24.366,24.366,0,0,0,7.961,15.78l2.06.3s-2.915-10.8-3.774-16.905a11.709,11.709,0,0,1-.158-2.42,25.277,25.277,0,0,0-.665-6.608,148.023,148.023,0,0,0-4.212-15.294c-.1-.3-2.993-10.778-2.993-10.778-2.431,2.125-11.3,3-11.3,3S1300.488,1018.864,1303.553,1024.315Z" fill="#2f539b"/>
          </g>
          <g id="Grupo_103780" data-name="Grupo 103780">
            <path id="Trazado_165276" data-name="Trazado 165276" d="M1329.416,1066.818h-8.6a4.725,4.725,0,0,1,.243-2.305c.43-.954,1.043-.984.078-2.479.546.562,2.3.795,3.545.628a10.555,10.555,0,0,0,1.491,2.269C1326.738,1065.334,1329.243,1065.19,1329.416,1066.818Z" fill="#233862"/>
          </g>
          <g id="Grupo_103781" data-name="Grupo 103781">
            <path id="Trazado_165277" data-name="Trazado 165277" d="M1303.553,1024.315c.027.049.056.1.085.151.678,1.177,4.342,7.946,6.054,11.1a45.807,45.807,0,0,1-.6-16.324Z" fill="#233862"/>
          </g>
          <g id="Grupo_103782" data-name="Grupo 103782">
            <path id="Trazado_165278" data-name="Trazado 165278" d="M1335.563,983.477A34.48,34.48,0,0,0,1330.4,986c-2.329,2.584-1.665,5.956-.332,5.988.854.021.689,1.442.689,1.442l9.522-4.029S1339.134,982.717,1335.563,983.477Z" fill="#2c3a64"/>
          </g>
          <g id="Grupo_103783" data-name="Grupo 103783">
            <path id="Trazado_165279" data-name="Trazado 165279" d="M1332.363,999.886a12.2,12.2,0,0,1,1.268,5.244s-1.747,2.758-6.279,3.457C1327.352,1008.587,1331.248,999.884,1332.363,999.886Z" fill="#6385db"/>
          </g>
          <g id="Grupo_103784" data-name="Grupo 103784">
            <path id="Trazado_165280" data-name="Trazado 165280" d="M1310.255,1015.848l.029-1.608c-3.2.4-11.046-3.828-11.046-3.828s-3.351,2.229-3.81,8.6c-.224,3.107-1.641,16.248-1.8,20.172-.057,1.423-.076,2.438-.082,2.843v0a.559.559,0,0,1-.136.331,18.362,18.362,0,0,0-1.736,2.661c-4.889,9.1-2.332,21.454-2.332,21.454l1.135-.288s4.134-12.812,6.835-18.354a11.571,11.571,0,0,1,1.224-2.094,25.324,25.324,0,0,0,3.142-5.851C1303.676,1035.118,1310.255,1015.848,1310.255,1015.848Z" fill="#2f539b"/>
          </g>
          <g id="Grupo_103785" data-name="Grupo 103785">
            <path id="Trazado_165281" data-name="Trazado 165281" d="M1296.181,1066.818h-8.6a4.723,4.723,0,0,1,.243-2.305c.431-.954,1.1-1.387.943-2.541a3.1,3.1,0,0,0,2.68,1.025,9.453,9.453,0,0,0,1.491,1.934C1293.5,1065.334,1296.008,1065.19,1296.181,1066.818Z" fill="#233862"/>
          </g>
          <g id="Grupo_103786" data-name="Grupo 103786">
            <path id="Trazado_165282" data-name="Trazado 165282" d="M1326.772,1010.433c-1.155.2.188,1.115-1.4,1.288a28.608,28.608,0,0,0-5.817.9,1.314,1.314,0,0,0-.838.678c-.53,1.594-3.886,4.332-3.886,4.332-14.97-.681-15.935-7.354-15.935-7.354,9.716-9.436,17.982-14.579,24.813-15.216a12.16,12.16,0,0,1,4.956.521c2.389,1.064,3.7,4.3,3.7,4.3S1331.16,1009.684,1326.772,1010.433Z" fill="#739af0"/>
          </g>
          <g id="Grupo_103787" data-name="Grupo 103787">
            <path id="Trazado_165283" data-name="Trazado 165283" d="M1325.372,1011.721a28.608,28.608,0,0,0-5.817.9,23.845,23.845,0,0,1,3.023-13.083S1324.877,1008.9,1325.372,1011.721Z" fill="#6385db"/>
          </g>
          <g id="Grupo_103788" data-name="Grupo 103788">
            <path id="Trazado_165284" data-name="Trazado 165284" d="M1327.322,998.278s-5.685-.311-6.7,3.258,1.9,17.816,2.521,19.286c1.14,2.678,6.888,10.65,6.888,10.65l1.842-.954s-3.7-11.672-4.526-12.827C1326.055,1015.878,1329.024,999.83,1327.322,998.278Z" fill="#ffb27d"/>
          </g>
          <g id="Grupo_103789" data-name="Grupo 103789">
            <path id="Trazado_165285" data-name="Trazado 165285" d="M1331.878,1030.518a8.38,8.38,0,0,1,.858.881c.383.467.046.636,1.144,2.751,0,0-.056.294-.294.24s-1.067-.874-1.493-.815c0,0-.3.25-.337,1.08a19.974,19.974,0,0,1-.168,2.813c-.135.323-1.122-1.351-1.607-2.56-.426-1.061-.011-4.638-.011-4.638Z" fill="#ffb27d"/>
          </g>
          <g id="Grupo_103790" data-name="Grupo 103790">
            <path id="Trazado_165286" data-name="Trazado 165286" d="M1319.506,1006.309c.015.084,5.38.987,8.736-.716,0,0,2.8-8.782-1.2-8.362s-6.378,1.682-6.479,3.6A36.9,36.9,0,0,1,1319.506,1006.309Z" fill="#739af0"/>
          </g>
          <g id="Grupo_103791" data-name="Grupo 103791">
            <path id="Trazado_165287" data-name="Trazado 165287" d="M1328.537,996.2a3.566,3.566,0,0,0,1.079,2.5c.712.734,1.742,1.307,2.465.584a7.863,7.863,0,0,0,1.119-1.352c.625-1.074,1.37-2.172,1.37-2.172l-3.218-2.819-.192-.169a8.191,8.191,0,0,1-2.4,2.72A.746.746,0,0,0,1328.537,996.2Z" fill="#ffb27d"/>
          </g>
          <g id="Grupo_103792" data-name="Grupo 103792">
            <path id="Trazado_165288" data-name="Trazado 165288" d="M1334.569,995.762s-.743,1.095-1.369,2.171c-2-1.233-2-3.709-1.848-4.991Z" fill="#ed985f"/>
          </g>
          <g id="Grupo_103793" data-name="Grupo 103793">
            <path id="Trazado_165289" data-name="Trazado 165289" d="M1334.659,997.174s-4.856-2.7-3.127-5.7,2.267-5.366,5.44-3.767,3.111,3.086,2.777,4.227S1335.966,997.8,1334.659,997.174Z" fill="#ffb27d"/>
          </g>
          <g id="Grupo_103794" data-name="Grupo 103794">
            <path id="Trazado_165290" data-name="Trazado 165290" d="M1340.57,990.186c-.223-1.331-.9-1.458-1.37-1.369a3.885,3.885,0,0,0-4.724-1.809,6.608,6.608,0,0,1-3.827,2.3s.564,1.049,2.885,1.7a3.973,3.973,0,0,0,2.291-.183,12.969,12.969,0,0,1-3.295,1.242c3.059.28,5.97-2.518,6.272-2.817a4.36,4.36,0,0,1,.241,2.005c-.2.9-1,2.534-.513,2.746C1338.53,994,1340.9,992.182,1340.57,990.186Z" fill="#2c3a64"/>
          </g>
          <g id="Grupo_103795" data-name="Grupo 103795">
            <path id="Trazado_165291" data-name="Trazado 165291" d="M1346.939,1022.259s-1.355,1.016-.333,1.68,2.844.844,2.852.408C1349.483,1022.884,1348.753,1021.844,1346.939,1022.259Z" fill="#ffb27d"/>
          </g>
        </g>
      </g>
      <g id="Grupo_103798" data-name="Grupo 103798">
        <path id="Trazado_165292" data-name="Trazado 165292" d="M1355,965.606l-1.2-1.778a7.03,7.03,0,0,0-5.537-3.153h-13.239l2.3,8.4,9.116,33.335a3.438,3.438,0,0,0,3.316,2.53h47.64a3.437,3.437,0,0,0,3.315-4.344l-8.62-31.521h-30.992A7.732,7.732,0,0,1,1355,965.606Z" fill="#f99746"/>
      </g>
      <g id="Grupo_103823" data-name="Grupo 103823">
        <g id="Grupo_103819" data-name="Grupo 103819">
          <g id="Grupo_103799" data-name="Grupo 103799">
            <path id="Trazado_165293" data-name="Trazado 165293" d="M1356.376,955.606a.736.736,0,0,0-.131.787l0,0a4.891,4.891,0,0,0,1.546,1.7c.093.075.176.144.248.207l.056.05.043.039c.679.627.424.77,1.645,2.042,1.392,1.45,2.351,1.476,2.624,1.344.231-.112-.238-.881-.757-1.745-.025-.042-.05-.084-.076-.126l-.207-.347c-.608-1.04-.451-1.527-.307-3.075.118-1.257,1.959-7.023,1.959-7.023l-2.669-.461s-.805,4.592-1.691,5.3c-.474.377-1,.381-1.459.66l-.095.06A3.553,3.553,0,0,0,1356.376,955.606Z" fill="#ffb27d"/>
          </g>
          <g id="Grupo_103800" data-name="Grupo 103800">
            <path id="Trazado_165294" data-name="Trazado 165294" d="M1356.376,955.606a.736.736,0,0,0-.131.787l0,0a5.644,5.644,0,0,0,1.549,1.692c.092.077.173.147.245.213l.056.05.043.039c.679.627.424.77,1.645,2.042,1.392,1.45,2.351,1.476,2.624,1.344.231-.112-.238-.881-.757-1.745a5.923,5.923,0,0,1-2.482-1.83c-.808-1.032-1.356-2.346-1.906-3.153l-.157-.03A3.553,3.553,0,0,0,1356.376,955.606Z" fill="#233862"/>
          </g>
          <g id="Grupo_103801" data-name="Grupo 103801">
            <path id="Trazado_165295" data-name="Trazado 165295" d="M1377.9,953.946c.165.824,1.339.687,2.652.367s1,.061,2.867-.145,2.434-.9,2.491-1.18c.051-.246-.872-.334-1.862-.448l-.374-.045a8.076,8.076,0,0,1-2.95-1.454,11.83,11.83,0,0,1-2.4-2.847l-2.562.2s1.344,2.041,1.863,2.929a3.092,3.092,0,0,1,.251,1.745A3.291,3.291,0,0,0,1377.9,953.946Z" fill="#ffb27d"/>
          </g>
          <g id="Grupo_103802" data-name="Grupo 103802">
            <path id="Trazado_165296" data-name="Trazado 165296" d="M1380.551,954.313c1.312-.32,1,.061,2.867-.145s2.434-.9,2.491-1.18c.051-.246-.872-.334-1.862-.448l-.009.019a5.256,5.256,0,0,1-2.674.83c-1.267.031-2.609-.333-3.484-.319a3.291,3.291,0,0,0,.019.876C1378.064,954.77,1379.238,954.633,1380.551,954.313Z" fill="#233862"/>
          </g>
          <g id="Grupo_103803" data-name="Grupo 103803">
            <path id="Trazado_165297" data-name="Trazado 165297" d="M1368.091,937.568l-2.4,6.441-3.129,8.41a5.054,5.054,0,0,1-1.66-.152,7.231,7.231,0,0,1-1.606-.782s.871-9.032,2.492-14.215a9.234,9.234,0,0,1,1.394-3.013C1365.7,931.292,1368.091,937.568,1368.091,937.568Z" fill="#ed7d2b"/>
          </g>
          <g id="Grupo_103804" data-name="Grupo 103804">
            <path id="Trazado_165298" data-name="Trazado 165298" d="M1365.66,927.336c-1.362-.44-4.918-.009-8.775.688a2.614,2.614,0,0,1-2.7-1.221h0l-9.7-.761s-3.206,7.1-1.454,11.628a1.7,1.7,0,0,0,1.7,1.1h0s5.865.01,7.741.011c4.827,0,10.216-3.315,10.914-3.454,1.141-.228,1.6,2.054,2.736,4.451s10.722,10.614,10.722,10.614a8.433,8.433,0,0,0,2.081-.213,2.048,2.048,0,0,0,.894-.563S1369.2,928.478,1365.66,927.336Z" fill="#f99746"/>
          </g>
          <g id="Grupo_103805" data-name="Grupo 103805">
            <path id="Trazado_165299" data-name="Trazado 165299" d="M1353.163,898.3a3.448,3.448,0,0,0-1.854-.483,5.149,5.149,0,0,1-.9-.054c-3.7-.545-5.937,4.835-6.068,6.461-.241,2.985-1.82,3.439-4.044,5.308-4.457,3.747-3.152,8.1-.716,9.722,1.462.971,4.039,0,4.039,0,.037.025,7.05-3.917,10.507-5.819C1359.314,912.7,1355.244,899.541,1353.163,898.3Z" fill="#233862"/>
          </g>
          <g id="Grupo_103806" data-name="Grupo 103806">
            <path id="Trazado_165300" data-name="Trazado 165300" d="M1351.236,911.816a4.573,4.573,0,0,1-2.849.087,5.082,5.082,0,0,1-1.88-2.255c.491-.022,1.031-.451,1.447-3.268l.209.075,3.515,1.266s-.256,1.128-.421,2.2C1351.118,910.825,1351.043,911.688,1351.236,911.816Z" fill="#ffb27d"/>
          </g>
          <g id="Grupo_103807" data-name="Grupo 103807">
            <path id="Trazado_165301" data-name="Trazado 165301" d="M1351.678,907.721s-.141.609-.346,1.746a3.969,3.969,0,0,1-3.169-3.012Z" fill="#ed975d"/>
          </g>
          <g id="Grupo_103808" data-name="Grupo 103808">
            <path id="Trazado_165302" data-name="Trazado 165302" d="M1352.2,908.841s-4.81-.647-4.361-3.636.131-5.085,3.221-4.8,3.513,1.517,3.606,2.551S1353.463,908.932,1352.2,908.841Z" fill="#ffb27d"/>
          </g>
          <g id="Grupo_103809" data-name="Grupo 103809">
            <path id="Trazado_165303" data-name="Trazado 165303" d="M1354.492,901.319s-3.079,2.652-5.174,2.866-2.886-.46-2.886-.46a8.182,8.182,0,0,0,1.978-2.678,1.471,1.471,0,0,1,1.214-.867C1351.119,900.051,1353.954,899.993,1354.492,901.319Z" fill="#233862"/>
          </g>
          <g id="Grupo_103810" data-name="Grupo 103810">
            <path id="Trazado_165304" data-name="Trazado 165304" d="M1352.568,901.081a7.6,7.6,0,0,1,1.354,1.735,5.815,5.815,0,0,1,.156,3.1s1.606-3.12.7-4.636A1.282,1.282,0,0,0,1352.568,901.081Z" fill="#233862"/>
          </g>
          <g id="Grupo_103811" data-name="Grupo 103811">
            <path id="Trazado_165305" data-name="Trazado 165305" d="M1355.283,918.9c-.149,9.736-.043,7.7-1.108,8.625a4.1,4.1,0,0,1-1.928.417c-2.985.2-8.233-.3-8.432-.849-.688-1.909-.2-2.5-.775-5.424-.06-.311-.134-.647-.22-1.014-.479-2.007-.945-2.69.756-5.914,1.542-2.921,3.144-5.291,3.288-5.206,4.065,2.415,4.393.387,4.393.387S1355.356,914.154,1355.283,918.9Z" fill="#2f539b"/>
          </g>
          <g id="Grupo_103812" data-name="Grupo 103812">
            <path id="Trazado_165306" data-name="Trazado 165306" d="M1365.695,944.009l-3.129,8.41a5.054,5.054,0,0,1-1.66-.152,7.231,7.231,0,0,1-1.606-.782s.871-9.032,2.492-14.215Z" fill="#f99746"/>
          </g>
          <g id="Grupo_103813" data-name="Grupo 103813">
            <path id="Trazado_165307" data-name="Trazado 165307" d="M1351.257,909.923s4.184.711,4.674,2.512,2.1,12.736,2.1,12.736-1.18,1.151-2.162.168-3.088-10.23-3.088-10.23Z" fill="#2f539b"/>
          </g>
          <g id="Grupo_103814" data-name="Grupo 103814">
            <path id="Trazado_165308" data-name="Trazado 165308" d="M1352.247,927.944c-2.985.2-8.233-.3-8.432-.849-.688-1.909-.2-2.5-.775-5.424l1.441-4.054s-.239,4.515,1.092,5.7,5.451,2.294,6.1,3.286A3.607,3.607,0,0,1,1352.247,927.944Z" fill="#233862"/>
          </g>
          <g id="Grupo_103815" data-name="Grupo 103815">
            <path id="Trazado_165309" data-name="Trazado 165309" d="M1348.828,926.044s2.945-.655,3.42-.394a6.949,6.949,0,0,1,1.782,1.545c.145.332-1.058-.251-1.449-.356a3.47,3.47,0,0,0-1.252.273,4.154,4.154,0,0,1-2.242.224Z" fill="#ffb27d"/>
          </g>
          <g id="Grupo_103816" data-name="Grupo 103816">
            <path id="Trazado_165310" data-name="Trazado 165310" d="M1346.861,909.535s-3.955.242-5.324,2.151c-1.928,2.687-5.755,14.141-3.565,15.669,2.467,1.721,11.23.454,11.23.454a3.564,3.564,0,0,0-.114-2.022c-.405-.66-7-1.727-7.3-2.031s3.806-5.932,3.806-6.845S1346.861,909.535,1346.861,909.535Z" fill="#2f539b"/>
          </g>
          <g id="Grupo_103817" data-name="Grupo 103817">
            <path id="Trazado_165311" data-name="Trazado 165311" d="M1352.39,926.47a5.67,5.67,0,0,0,.82.891.6.6,0,0,0,.332.072l-.415-.749Z" fill="#ffb27d"/>
          </g>
          <g id="Grupo_103818" data-name="Grupo 103818">
            <path id="Trazado_165312" data-name="Trazado 165312" d="M1352.248,925.65l1.794.872a.319.319,0,0,1-.3.115,4.264,4.264,0,0,1-.778-.214Z" fill="#ffb27d"/>
          </g>
        </g>
        <g id="Grupo_103820" data-name="Grupo 103820">
          <path id="Trazado_165313" data-name="Trazado 165313" d="M1367.568,927.7l-18.741-.007v.414l18.574.007Z" fill="#233862"/>
        </g>
        <g id="Grupo_103821" data-name="Grupo 103821">
          <path id="Trazado_165314" data-name="Trazado 165314" d="M1353.209,928.113l14.192,0,4.273-10.615-14.17,0Z" fill="#233862"/>
        </g>
        <g id="Grupo_103822" data-name="Grupo 103822">
          <path id="Trazado_165315" data-name="Trazado 165315" d="M1363.821,922.808a.492.492,0,0,0-.482-.676.968.968,0,0,0-.87.676.492.492,0,0,0,.482.676A.97.97,0,0,0,1363.821,922.808Z" fill="#fff"/>
        </g>
      </g>
      <g id="Grupo_103824" data-name="Grupo 103824" opacity="0.5">
        <path id="Trazado_165316" data-name="Trazado 165316" d="M1433.824,963.211,1429.9,958.2l-.185-.236-.221-.041-18.117-3.333-6.1,33.138,23.487,4.321,5.215-28.347.043-.232Z" fill="#8c9df4"/>
      </g>
      <g id="Grupo_103826" data-name="Grupo 103826">
        <g id="Grupo_103825" data-name="Grupo 103825">
          <path id="Trazado_165317" data-name="Trazado 165317" d="M1422.039,952.929l.009.236,1.118,28.8-23.863.926L1398,949.224l18.407-.714.224-.009.233.19,4.928,4.033Z" fill="#8c9df4"/>
        </g>
      </g>
      <g id="Grupo_103841" data-name="Grupo 103841">
        <g id="Grupo_103827" data-name="Grupo 103827">
          <path id="Trazado_165318" data-name="Trazado 165318" d="M1406.342,961.177l-39.823,2.219a.147.147,0,0,0-.138.154l2.907,52.148a.146.146,0,0,0,.153.138l39.767-2.216a.146.146,0,0,0,.137-.154l-2.909-52.205A.089.089,0,0,0,1406.342,961.177Z" fill="#233862"/>
        </g>
        <g id="Grupo_103828" data-name="Grupo 103828">
          <rect id="Rectángulo_32261" data-name="Rectángulo 32261" width="37.47" height="49.597" rx="1.836" transform="translate(1367.599 964.705) rotate(-3.591)" fill="#ebf3fa"/>
        </g>
        <g id="Grupo_103839" data-name="Grupo 103839">
          <g id="Grupo_103829" data-name="Grupo 103829">
            <path id="Trazado_165319" data-name="Trazado 165319" d="M1392.956,970.034l-21.219,1.331a.019.019,0,0,1-.021-.018l-.033-.53a.019.019,0,0,1,.018-.021l21.22-1.332a.021.021,0,0,1,.021.019l.033.53A.02.02,0,0,1,1392.956,970.034Z" fill="#bdd1f9"/>
          </g>
          <g id="Grupo_103830" data-name="Grupo 103830">
            <path id="Trazado_165320" data-name="Trazado 165320" d="M1393.242,974.59l-21.22,1.331a.018.018,0,0,1-.02-.018l-.034-.53a.021.021,0,0,1,.019-.021l21.22-1.332a.02.02,0,0,1,.02.019l.034.53A.021.021,0,0,1,1393.242,974.59Z" fill="#bdd1f9"/>
          </g>
          <g id="Grupo_103831" data-name="Grupo 103831">
            <path id="Trazado_165321" data-name="Trazado 165321" d="M1401.207,971.8l-29.328,1.841a.02.02,0,0,1-.02-.019l-.034-.53a.021.021,0,0,1,.019-.021l29.327-1.84a.019.019,0,0,1,.021.018l.033.53A.019.019,0,0,1,1401.207,971.8Z" fill="#bdd1f9"/>
          </g>
          <g id="Grupo_103832" data-name="Grupo 103832">
            <path id="Trazado_165322" data-name="Trazado 165322" d="M1388.012,989.08l-14.232.893-.127-.112-.021-.332.111-.126,14.232-.893.127.112.021.332Z" fill="#bdd1f9"/>
          </g>
          <g id="Grupo_103833" data-name="Grupo 103833">
            <path id="Trazado_165323" data-name="Trazado 165323" d="M1393.387,986.456l-19.749,1.239-.128-.113-.021-.329.113-.128,19.749-1.239.126.112.021.332Z" fill="#bdd1f9"/>
          </g>
          <g id="Grupo_103834" data-name="Grupo 103834">
            <path id="Trazado_165324" data-name="Trazado 165324" d="M1394.96,991.189l-21.22,1.332a.019.019,0,0,1-.02-.018l-.034-.531a.019.019,0,0,1,.019-.02l21.22-1.332a.018.018,0,0,1,.02.018l.034.531A.02.02,0,0,1,1394.96,991.189Z" fill="#bdd1f9"/>
          </g>
          <g id="Grupo_103835" data-name="Grupo 103835">
            <path id="Trazado_165325" data-name="Trazado 165325" d="M1397.364,993.326l-23.37,1.466-.138-.122-.02-.309.123-.139,23.37-1.466.138.121.019.31Z" fill="#bdd1f9"/>
          </g>
          <g id="Grupo_103836" data-name="Grupo 103836">
            <path id="Trazado_165326" data-name="Trazado 165326" d="M1389.341,997.845l-14.974.939-.13-.115-.021-.323.116-.131,14.974-.94.129.115.021.325Z" fill="#bdd1f9"/>
          </g>
          <g id="Grupo_103837" data-name="Grupo 103837">
            <path id="Trazado_165327" data-name="Trazado 165327" d="M1389.627,1002.4l-14.974.939-.13-.115-.021-.326.114-.128,14.975-.94.13.115.021.325Z" fill="#bdd1f9"/>
          </g>
          <g id="Grupo_103838" data-name="Grupo 103838">
            <path id="Trazado_165328" data-name="Trazado 165328" d="M1395.288,999.759l-20.778,1.3-.13-.115-.021-.324.115-.13,20.779-1.3.129.114.021.326Z" fill="#bdd1f9"/>
          </g>
        </g>
        <g id="Grupo_103840" data-name="Grupo 103840">
          <path id="Trazado_165329" data-name="Trazado 165329" d="M1395.493,958.905l-18.572,1.035a2.146,2.146,0,0,0-2.1,2.182l.157,2.807a.494.494,0,0,0,.539.447l21.98-1.225a.5.5,0,0,0,.486-.5l-.157-2.807A2.145,2.145,0,0,0,1395.493,958.905Z" fill="#ff8c64"/>
        </g>
      </g>
      <g id="Grupo_103866" data-name="Grupo 103866">
        <g id="Grupo_103842" data-name="Grupo 103842">
          <path id="Trazado_165330" data-name="Trazado 165330" d="M1429.046,981.445s-.386-.868-.636-1.279-1.318-1.616-1.5-1.343-.909,2.108-.522,2.622-.025,1.408,1.9,1.949Z" fill="#ffb27d"/>
        </g>
        <g id="Grupo_103843" data-name="Grupo 103843">
          <path id="Trazado_165331" data-name="Trazado 165331" d="M1450.4,975.964s-9.835,8.209-13.67,7.449c-3-.594-7.74-2.1-7.74-2.1a3.025,3.025,0,0,0-.9,2.617s6.04,5.683,10.343,5.719c6.726.058,9.9-3.333,9.9-3.333Z" fill="#ed7d2b"/>
        </g>
        <g id="Grupo_103844" data-name="Grupo 103844">
          <path id="Trazado_165332" data-name="Trazado 165332" d="M1467.645,1062.557s-.286,4.606-1.177,4.672c-.118.008-4.519.008-4.519.008l-5.618-.032a1.823,1.823,0,0,1,1.679-1.64c1.642-.286,4.391-1.44,5.386-3.611C1464.442,1059.671,1467.645,1062.557,1467.645,1062.557Z" fill="#113c68"/>
        </g>
        <g id="Grupo_103845" data-name="Grupo 103845">
          <path id="Trazado_165333" data-name="Trazado 165333" d="M1467.969,1062.877a11.72,11.72,0,0,1-3.041.571,11.161,11.161,0,0,1-2.839-.405,77.843,77.843,0,0,0-2.091-9.96c-.928-3.591-2.253-8.208-4.137-13.945-5.211-15.856-6.8-25.131-6.94-26.01-.008-.046-.011-.069-.011-.069l.017-.008,16.02-7.033s-1.98,21.852.546,30.24a35.287,35.287,0,0,1,.917,4.018C1468.006,1049.387,1467.969,1062.877,1467.969,1062.877Z" fill="#2a4e96"/>
        </g>
        <g id="Grupo_103846" data-name="Grupo 103846">
          <path id="Trazado_165334" data-name="Trazado 165334" d="M1460,1053.083c-.928-3.591-2.253-8.208-4.137-13.945-5.211-15.856-6.8-25.131-6.94-26.01,0-.026,0-.05.006-.077l16.02-7.033s-1.98,21.852.546,30.24C1465.847,1037.43,1460,1053.083,1460,1053.083Z" fill="#233862"/>
        </g>
        <g id="Grupo_103847" data-name="Grupo 103847">
          <path id="Trazado_165335" data-name="Trazado 165335" d="M1455.132,1062.557s-.285,4.606-1.176,4.672c-.119.008-4.52.008-4.52.008l-5.617-.032a1.823,1.823,0,0,1,1.679-1.64c1.642-.286,4.39-1.44,5.385-3.611C1451.929,1059.671,1455.132,1062.557,1455.132,1062.557Z" fill="#15447c"/>
        </g>
        <g id="Grupo_103848" data-name="Grupo 103848">
          <path id="Trazado_165336" data-name="Trazado 165336" d="M1446.05,1006.532a227.969,227.969,0,0,0,2.241,31.548c2.45,17.387,1.62,24.767,1.62,24.767a16.625,16.625,0,0,0,2.363.6,10.718,10.718,0,0,0,3.505-.406s3.507-17.393,2.5-26.095,4.8-29.863,4.8-29.863Z" fill="#2a4e96"/>
        </g>
        <g id="Grupo_103849" data-name="Grupo 103849">
          <path id="Trazado_165337" data-name="Trazado 165337" d="M1457.409,973.394l-3.127,2.051-2.849-.8a6.818,6.818,0,0,1-.666-3.415,21.414,21.414,0,0,1,.112-2.275l4.219-1.862,1.574-.694c0,.025-.122,1.293-.139,1.478A10.768,10.768,0,0,0,1457.409,973.394Z" fill="#ffb27d"/>
        </g>
        <g id="Grupo_103850" data-name="Grupo 103850">
          <path id="Trazado_165338" data-name="Trazado 165338" d="M1445.978,1010.469c3.892,3.758,18.623,3.126,19.531-1.014s-.99-35.248-7.639-37.2c-1.38-.406-8.756,1.979-8.756,1.979a46.692,46.692,0,0,0-1.917,6.882c-.147.751-.577,8.7-.9,16.137-.15,3.478-.277,6.845-.342,9.31A26.791,26.791,0,0,0,1445.978,1010.469Z" fill="#f99746"/>
        </g>
        <g id="Grupo_103851" data-name="Grupo 103851">
          <path id="Trazado_165339" data-name="Trazado 165339" d="M1456.218,967.93c-.856,1.448-3.86,2.714-5.451,3.295a21.414,21.414,0,0,1,.112-2.275l4.219-1.862C1456.031,967.076,1456.6,967.284,1456.218,967.93Z" fill="#fca56b"/>
        </g>
        <g id="Grupo_103852" data-name="Grupo 103852">
          <path id="Trazado_165340" data-name="Trazado 165340" d="M1449.288,968.693s6.8,2.121,8.053-2.133,2.978-6.845-1.309-8.378-5.613-.161-6.378,1.157S1447.552,968.032,1449.288,968.693Z" fill="#ffb27d"/>
        </g>
        <g id="Grupo_103853" data-name="Grupo 103853">
          <path id="Trazado_165341" data-name="Trazado 165341" d="M1449.921,958.929s.434,4.95,1.457,4.735,2.151-.675,2,.818,1,4.05,2.472,4.044c3.166-.013,6.605-8.137,5.739-9.677C1459.089,954.4,1446.307,953.507,1449.921,958.929Z" fill="#163560"/>
        </g>
        <g id="Grupo_103854" data-name="Grupo 103854">
          <path id="Trazado_165342" data-name="Trazado 165342" d="M1450.921,972.36c.088-.037,5.061-2.267,5.642-2.075s1.307,1.968,1.307,1.968l-8.757,1.98A4.354,4.354,0,0,1,1450.921,972.36Z" fill="#ed7d2b"/>
        </g>
        <g id="Grupo_103860" data-name="Grupo 103860">
          <g id="Grupo_103855" data-name="Grupo 103855">
            <path id="Trazado_165343" data-name="Trazado 165343" d="M1419.962,996.451l27.876,26.246c.546.515,1.235.679,1.531.364l.941-1c.3-.314.091-.992-.456-1.507l-27.876-26.245c-.547-.515-1.236-.679-1.531-.365l-.941,1C1419.21,995.259,1419.415,995.937,1419.962,996.451Z" fill="#1f4d84"/>
          </g>
          <g id="Grupo_103856" data-name="Grupo 103856">
            <path id="Trazado_165344" data-name="Trazado 165344" d="M1435.6,1011.18l12.233,11.517c.546.515,1.235.679,1.531.364l.941-1c.3-.314.091-.992-.456-1.507l-12.232-11.517Z" fill="#739af0"/>
          </g>
          <g id="Grupo_103857" data-name="Grupo 103857">
            <path id="Trazado_165345" data-name="Trazado 165345" d="M1421.38,965.194a21.846,21.846,0,0,0-30.883-.94c-.116.108-.231.219-.343.33a21.85,21.85,0,1,0,31.226.61Zm-2.123,29.63a20.126,20.126,0,1,1,.867-28.448A20.1,20.1,0,0,1,1419.257,994.824Z" fill="#1f4d84"/>
          </g>
          <g id="Grupo_103859" data-name="Grupo 103859" opacity="0.5">
            <g id="Grupo_103858" data-name="Grupo 103858">
              <path id="Trazado_165346" data-name="Trazado 165346" d="M1390.81,993.955a20.126,20.126,0,1,0,.868-28.446A20.046,20.046,0,0,0,1390.81,993.955Z" fill="#b3cff9"/>
            </g>
          </g>
        </g>
        <g id="Grupo_103861" data-name="Grupo 103861">
          <path id="Trazado_165347" data-name="Trazado 165347" d="M1445.956,1006.561c15.36-10.945,14.083-25.551,14.083-25.551-5.614,3.167-11.185,10.168-13.741,16.241C1446.148,1000.729,1446.021,1004.1,1445.956,1006.561Z" fill="#ed7d2b"/>
        </g>
        <g id="Grupo_103864" data-name="Grupo 103864">
          <g id="Grupo_103862" data-name="Grupo 103862">
            <path id="Trazado_165348" data-name="Trazado 165348" d="M1430.8,1001.577a4.193,4.193,0,0,1-1.962-1.212s-.462.031.076,1.017c.045.082.145.294.22.444a.1.1,0,0,1-.08.137,10.255,10.255,0,0,0-2.458.051c-.166.035-.214.433-.208.6a1.537,1.537,0,0,0,.324,1.049,5.36,5.36,0,0,0,1.941,1.016,5.874,5.874,0,0,0,3-.377l.983-.456-.305-1.827-.247.052C1431.691,1002.156,1431.2,1001.677,1430.8,1001.577Z" fill="#ffb27d"/>
          </g>
          <g id="Grupo_103863" data-name="Grupo 103863">
            <path id="Trazado_165349" data-name="Trazado 165349" d="M1455.272,974.233s13.8,2.627-4.061,22.614c-2.856,3.2-18.29,7.358-18.29,7.358s-1.566-1.332-.776-2.41c0,0,10.626-7.717,12.964-8.944,1.052-.552,4.083-12.317,5.8-15.15A7.728,7.728,0,0,1,1455.272,974.233Z" fill="#f99746"/>
          </g>
        </g>
        <g id="Grupo_103865" data-name="Grupo 103865">
          <path id="Trazado_165350" data-name="Trazado 165350" d="M1428.672,981.688a7.019,7.019,0,0,1-.54-1.318,7.276,7.276,0,0,0-.89-2.016c-.094-.094-.4.027-.44.429a2.329,2.329,0,0,0,.222.873,9.858,9.858,0,0,1,.292,1.735C1427.53,982.086,1428.672,981.688,1428.672,981.688Z" fill="#ffb27d"/>
        </g>
      </g>
    </g>
  </g>
</svg>
