<svg xmlns="http://www.w3.org/2000/svg" width="69.18" height="81.226" viewBox="0 0 69.18 81.226">
  <g id="Grupo_80315" data-name="Grupo 80315" transform="translate(810.687 -761.463)">
    <g id="Grupo_80336" data-name="Grupo 80336" transform="translate(-814.999 761.463)">
      <g id="Grupo_80323" data-name="Grupo 80323" transform="translate(13.483 0)">
        <g id="Grupo_80316" data-name="Grupo 80316">
          <path id="Trazado_138505" data-name="Trazado 138505" d="M-740.176,761.463h-43.615a1.9,1.9,0,0,0-1.895,1.9v75.76h47.4v-75.76A1.9,1.9,0,0,0-740.176,761.463Zm.079,74.68H-783.87v-69.81a1.9,1.9,0,0,1,1.895-1.895h11.339v1.512a.325.325,0,0,0,.325.325h15.052a.325.325,0,0,0,.325-.325v-1.512h12.941a1.9,1.9,0,0,1,1.9,1.895Z" transform="translate(785.686 -761.463)" fill="#6088fc"/>
        </g>
        <rect id="Rectángulo_6075" data-name="Rectángulo 6075" width="19.438" height="14.292" rx="1.936" transform="translate(4.707 9.847)" fill="#c1d1fe"/>
        <rect id="Rectángulo_6076" data-name="Rectángulo 6076" width="14.621" height="1.191" rx="0.596" transform="translate(26.475 10.788)" fill="#c1d1fe"/>
        <rect id="Rectángulo_6077" data-name="Rectángulo 6077" width="7.871" height="1.191" rx="0.596" transform="translate(26.475 13.82)" fill="#c1d1fe"/>
        <rect id="Rectángulo_6078" data-name="Rectángulo 6078" width="19.438" height="14.292" rx="1.936" transform="translate(4.707 30.438)" fill="#c1d1fe"/>
        <rect id="Rectángulo_6079" data-name="Rectángulo 6079" width="14.621" height="1.191" rx="0.596" transform="translate(26.475 31.379)" fill="#c1d1fe"/>
        <rect id="Rectángulo_6080" data-name="Rectángulo 6080" width="7.871" height="1.191" rx="0.596" transform="translate(26.475 34.411)" fill="#c1d1fe"/>
        <rect id="Rectángulo_6081" data-name="Rectángulo 6081" width="11.726" height="1.355" rx="0.678" transform="translate(26.475 39.31)" fill="#c1d1fe"/>
        <g id="Grupo_80319" data-name="Grupo 80319" transform="translate(7.009 33.356)">
          <rect id="Rectángulo_6082" data-name="Rectángulo 6082" width="14.701" height="8.458" rx="1.313" transform="translate(0)" fill="#6088fc"/>
          <path id="Trazado_138506" data-name="Trazado 138506" d="M-766.246,838.541a1.029,1.029,0,0,1-.554.161,1.032,1.032,0,0,1-1.032-1.032,1.032,1.032,0,0,1,1.032-1.032,1.029,1.029,0,0,1,.554.161,1.031,1.031,0,0,0-.478.871A1.031,1.031,0,0,0-766.246,838.541Z" transform="translate(769.035 -835.414)" fill="#d7e3ff"/>
          <g id="Grupo_80317" data-name="Grupo 80317" transform="translate(2.311 1.384)" opacity="0.44">
            <ellipse id="Elipse_4469" data-name="Elipse 4469" cx="0.478" cy="0.871" rx="0.478" ry="0.871" fill="#6088fc"/>
          </g>
          <path id="Trazado_138507" data-name="Trazado 138507" d="M-762.8,837.67a1.032,1.032,0,0,1-1.032,1.032,1.027,1.027,0,0,1-.554-.161,1.031,1.031,0,0,0,.478-.871,1.031,1.031,0,0,0-.478-.871,1.027,1.027,0,0,1,.554-.161A1.032,1.032,0,0,1-762.8,837.67Z" transform="translate(767.173 -835.414)" fill="#4d7af9"/>
          <g id="Grupo_80318" data-name="Grupo 80318" transform="translate(1.405 5.586)">
            <rect id="Rectángulo_6083" data-name="Rectángulo 6083" width="2.59" height="0.519" fill="#d7e3ff"/>
            <rect id="Rectángulo_6084" data-name="Rectángulo 6084" width="2.59" height="0.519" transform="translate(3.075)" fill="#d7e3ff"/>
            <rect id="Rectángulo_6085" data-name="Rectángulo 6085" width="2.59" height="0.519" transform="translate(6.149)" fill="#d7e3ff"/>
            <rect id="Rectángulo_6086" data-name="Rectángulo 6086" width="2.59" height="0.519" transform="translate(9.224)" fill="#d7e3ff"/>
          </g>
          <path id="Trazado_138508" data-name="Trazado 138508" d="M-755.747,849.625v.656a.6.6,0,0,1-.6.6h-13.492a.6.6,0,0,1-.6-.6v-.656Z" transform="translate(770.448 -842.428)" fill="#4d7af9"/>
          <rect id="Rectángulo_6087" data-name="Rectángulo 6087" width="2.182" height="1.04" transform="translate(10.467 1.592)" fill="#4d7af9"/>
        </g>
        <g id="Grupo_80322" data-name="Grupo 80322" transform="translate(7.009 12.196)">
          <rect id="Rectángulo_6088" data-name="Rectángulo 6088" width="14.701" height="8.458" rx="1.313" transform="translate(0)" fill="#6088fc"/>
          <path id="Trazado_138509" data-name="Trazado 138509" d="M-766.246,792.54a1.025,1.025,0,0,1-.554.161,1.032,1.032,0,0,1-1.032-1.032,1.032,1.032,0,0,1,1.032-1.032,1.025,1.025,0,0,1,.554.161,1.03,1.03,0,0,0-.478.871A1.03,1.03,0,0,0-766.246,792.54Z" transform="translate(769.035 -789.414)" fill="#d7e3ff"/>
          <g id="Grupo_80320" data-name="Grupo 80320" transform="translate(2.311 1.384)" opacity="0.44">
            <ellipse id="Elipse_4470" data-name="Elipse 4470" cx="0.478" cy="0.871" rx="0.478" ry="0.871" fill="#6088fc"/>
          </g>
          <path id="Trazado_138510" data-name="Trazado 138510" d="M-762.8,791.669a1.032,1.032,0,0,1-1.032,1.032,1.023,1.023,0,0,1-.554-.161,1.03,1.03,0,0,0,.478-.871,1.03,1.03,0,0,0-.478-.871,1.023,1.023,0,0,1,.554-.161A1.032,1.032,0,0,1-762.8,791.669Z" transform="translate(767.173 -789.414)" fill="#4d7af9"/>
          <g id="Grupo_80321" data-name="Grupo 80321" transform="translate(1.405 5.586)">
            <rect id="Rectángulo_6089" data-name="Rectángulo 6089" width="2.59" height="0.519" fill="#d7e3ff"/>
            <rect id="Rectángulo_6090" data-name="Rectángulo 6090" width="2.59" height="0.519" transform="translate(3.075)" fill="#d7e3ff"/>
            <rect id="Rectángulo_6091" data-name="Rectángulo 6091" width="2.59" height="0.519" transform="translate(6.149)" fill="#d7e3ff"/>
            <rect id="Rectángulo_6092" data-name="Rectángulo 6092" width="2.59" height="0.519" transform="translate(9.224)" fill="#d7e3ff"/>
          </g>
          <path id="Trazado_138511" data-name="Trazado 138511" d="M-755.747,803.625v.656a.6.6,0,0,1-.6.6h-13.492a.6.6,0,0,1-.6-.6v-.656Z" transform="translate(770.448 -796.427)" fill="#4d7af9"/>
          <rect id="Rectángulo_6093" data-name="Rectángulo 6093" width="2.182" height="1.04" transform="translate(10.467 1.592)" fill="#4d7af9"/>
        </g>
      </g>
      <g id="Grupo_80329" data-name="Grupo 80329" transform="translate(15.263 16.425)">
        <g id="Grupo_80324" data-name="Grupo 80324" transform="translate(0 35.281)">
          <rect id="Rectángulo_6094" data-name="Rectángulo 6094" width="43.808" height="24.089" rx="2.797" fill="#d7e3ff"/>
          <rect id="Rectángulo_6095" data-name="Rectángulo 6095" width="4.762" height="4.704" rx="1.291" transform="translate(3.958 5.294)" fill="#6088fc"/>
          <rect id="Rectángulo_6096" data-name="Rectángulo 6096" width="11.434" height="0.891" rx="0.446" transform="translate(11.3 5.961)" fill="#6088fc"/>
          <rect id="Rectángulo_6097" data-name="Rectángulo 6097" width="6.503" height="0.891" rx="0.446" transform="translate(11.3 8.024)" fill="#6088fc"/>
          <rect id="Rectángulo_6098" data-name="Rectángulo 6098" width="4.762" height="4.704" rx="1.291" transform="translate(3.958 13.754)" fill="#6088fc"/>
          <rect id="Rectángulo_6099" data-name="Rectángulo 6099" width="11.434" height="0.891" rx="0.446" transform="translate(11.3 14.422)" fill="#6088fc"/>
          <rect id="Rectángulo_6100" data-name="Rectángulo 6100" width="6.503" height="0.891" rx="0.446" transform="translate(11.3 16.485)" fill="#6088fc"/>
        </g>
        <g id="Grupo_80328" data-name="Grupo 80328" transform="translate(0.063)">
          <rect id="Rectángulo_6101" data-name="Rectángulo 6101" width="1.753" height="22.714" transform="translate(2.865 12.668)" fill="#6088fc"/>
          <rect id="Rectángulo_6102" data-name="Rectángulo 6102" width="1.753" height="22.714" transform="translate(38.927 12.668)" fill="#6088fc"/>
          <rect id="Rectángulo_6103" data-name="Rectángulo 6103" width="43.283" height="12.668" rx="2.797" fill="#6088fc"/>
          <rect id="Rectángulo_6104" data-name="Rectángulo 6104" width="41.497" height="10.882" rx="2.797" transform="translate(0.893 0.893)" fill="#d7e3ff"/>
          <g id="Grupo_80327" data-name="Grupo 80327" transform="translate(2.865 12.668)" opacity="0.61">
            <g id="Grupo_80325" data-name="Grupo 80325">
              <rect id="Rectángulo_6105" data-name="Rectángulo 6105" width="1.753" height="3.817" fill="#022af3"/>
            </g>
            <g id="Grupo_80326" data-name="Grupo 80326" transform="translate(36.062)">
              <rect id="Rectángulo_6106" data-name="Rectángulo 6106" width="1.753" height="3.817" fill="#022af3"/>
            </g>
          </g>
        </g>
      </g>
      <rect id="Rectángulo_6107" data-name="Rectángulo 6107" width="69.18" height="1.188" rx="0.594" transform="translate(4.312 77.655)" fill="#c1d1fe"/>
      <rect id="Rectángulo_6108" data-name="Rectángulo 6108" width="28.505" height="1.188" rx="0.594" transform="translate(11.638 80.038)" fill="#c1d1fe"/>
      <rect id="Rectángulo_6109" data-name="Rectángulo 6109" width="28.505" height="1.188" rx="0.594" transform="translate(44.154 80.038)" fill="#c1d1fe"/>
      <g id="Grupo_80331" data-name="Grupo 80331" transform="translate(46.974 59.048)">
        <path id="Trazado_138512" data-name="Trazado 138512" d="M-700.72,919.045a4.054,4.054,0,0,0-2.046-.525,8.242,8.242,0,0,0-2.607-.025,5.6,5.6,0,0,0-2.126.55c-.586.468-.074,3.385.258,4.976a1.3,1.3,0,0,0,1.272,1.034h3.721a1.3,1.3,0,0,0,1.272-1.034C-700.646,922.43-700.134,919.514-700.72,919.045Z" transform="translate(710.118 -905.259)" fill="#447af4"/>
        <path id="Trazado_138513" data-name="Trazado 138513" d="M-699.163,911.67A3.8,3.8,0,0,1-696.6,908.7c2.437-1.029,2.626-.677,2.166.135a13.023,13.023,0,0,1-3.158,2.68C-698.225,911.9-699.182,912.337-699.163,911.67Z" transform="translate(705.472 -899.68)" fill="#fab376"/>
        <path id="Trazado_138514" data-name="Trazado 138514" d="M-706.344,913.4s-.092-.687-1.365-1.445-2.869-1.11-2.626-.7a6.221,6.221,0,0,0,1.489,1.787A4.753,4.753,0,0,0-706.344,913.4Z" transform="translate(711.518 -901.305)" fill="#fa9943"/>
        <path id="Trazado_138515" data-name="Trazado 138515" d="M-707.381,905.931a9.239,9.239,0,0,1-3.8-1.2c-1.841-1.142-1.922-2.144-1.462-2.063a8.96,8.96,0,0,1,3.79.893A3.649,3.649,0,0,1-707.381,905.931Z" transform="translate(712.878 -896.764)" fill="#fab376"/>
        <path id="Trazado_138516" data-name="Trazado 138516" d="M-705.2,899.236a13.025,13.025,0,0,1-2.167-2.254c-.867-1.218-2.437-3.113-1.543-2.816a4.354,4.354,0,0,1,2.7,1.662A5.978,5.978,0,0,1-705.2,899.236Z" transform="translate(710.88 -892.156)" fill="#fa9943"/>
        <path id="Trazado_138517" data-name="Trazado 138517" d="M-699.96,896.913a6.565,6.565,0,0,1,.034-3.229c.4-2.355,2.108-4.373,2.27-3.729a12.63,12.63,0,0,1-1.13,5.029C-699.469,896.2-699.96,896.913-699.96,896.913Z" transform="translate(705.985 -889.833)" fill="#fab376"/>
        <path id="Trazado_138518" data-name="Trazado 138518" d="M-699.188,903.908a3.291,3.291,0,0,1,.892-2.536c1.13-1.408,3.35-2.406,3.214-1.866S-696.283,903.44-699.188,903.908Z" transform="translate(705.497 -894.976)" fill="#fa9943"/>
        <g id="Grupo_80330" data-name="Grupo 80330" transform="translate(2.344 3.672)">
          <path id="Trazado_138519" data-name="Trazado 138519" d="M-699.885,907.787l-.108,0c0-.038-.113-3.789,0-5.478a10.75,10.75,0,0,1,1.083-3.568l.1.05a10.641,10.641,0,0,0-1.07,3.525c-.089,1.323-.039,3.922-.012,4.991a3.776,3.776,0,0,1,.585-1.209,2.826,2.826,0,0,1,1.853-.943l.01.108a2.769,2.769,0,0,0-1.775.9A3.62,3.62,0,0,0-699.885,907.787Z" transform="translate(703.603 -898.315)" fill="#447af4"/>
          <path id="Trazado_138520" data-name="Trazado 138520" d="M-702.96,902.7h-.109c0-2.766-2.575-4.773-2.6-4.793l.066-.086C-705.577,897.838-702.959,899.877-702.96,902.7Z" transform="translate(706.641 -897.817)" fill="#447af4"/>
          <path id="Trazado_138521" data-name="Trazado 138521" d="M-704.152,908.308l-.068-.184a5.885,5.885,0,0,0-1.282-2.03,5.163,5.163,0,0,0-2.28-.878l.014-.108a5.178,5.178,0,0,1,2.338.9,5.57,5.57,0,0,1,1.247,1.908,6.88,6.88,0,0,1,1.864-2.8l.073.08a6.638,6.638,0,0,0-1.869,2.913Z" transform="translate(707.782 -901.754)" fill="#447af4"/>
          <path id="Trazado_138522" data-name="Trazado 138522" d="M-703.633,915.934c-.572-1.678-3.13-2.022-3.156-2.025l.013-.107c.027,0,2.652.356,3.245,2.1Z" transform="translate(707.246 -906.449)" fill="#447af4"/>
        </g>
      </g>
      <rect id="Rectángulo_6110" data-name="Rectángulo 6110" width="0.875" height="17.132" rx="0.438" transform="translate(11.536 7.432)" fill="#d7e3ff"/>
      <rect id="Rectángulo_6111" data-name="Rectángulo 6111" width="0.875" height="9.444" rx="0.438" transform="translate(62.435 19.418)" fill="#d7e3ff"/>
      <rect id="Rectángulo_6112" data-name="Rectángulo 6112" width="0.875" height="9.444" rx="0.438" transform="translate(62.435 6.067)" fill="#d7e3ff"/>
    </g>
  </g>
</svg>
