<svg xmlns="http://www.w3.org/2000/svg" xmlns:xlink="http://www.w3.org/1999/xlink" width="69.852" height="68.137" viewBox="0 0 69.852 68.137">
  <defs>
    <linearGradient id="linear-gradient" x1="1.13" y1="1.295" x2="0.236" y2="0.19" gradientUnits="objectBoundingBox">
      <stop offset="0" stop-color="#dae9fe"/>
      <stop offset="1" stop-color="#e9f3fd"/>
    </linearGradient>
    <linearGradient id="linear-gradient-2" x1="0.936" y1="-0.078" x2="-0.19" y2="1.416" gradientUnits="objectBoundingBox">
      <stop offset="0" stop-color="#4f63ff"/>
      <stop offset="1" stop-color="#4052e2"/>
    </linearGradient>
    <linearGradient id="linear-gradient-3" x1="1.214" y1="-0.449" x2="-0.632" y2="2.003" xlink:href="#linear-gradient-2"/>
    <linearGradient id="linear-gradient-4" x1="0.932" y1="-2.907" x2="0.667" y2="-0.816" gradientUnits="objectBoundingBox">
      <stop offset="0" stop-color="#ffad92"/>
      <stop offset="1" stop-color="#fe231f"/>
    </linearGradient>
    <linearGradient id="linear-gradient-5" x1="-63.915" y1="2.654" x2="-71.915" y2="3.512" gradientUnits="objectBoundingBox">
      <stop offset="0" stop-color="#00005d"/>
      <stop offset="1" stop-color="#0f1191"/>
    </linearGradient>
    <linearGradient id="linear-gradient-6" x1="-6.881" y1="10.137" x2="-7.203" y2="13.584" xlink:href="#linear-gradient-5"/>
    <linearGradient id="linear-gradient-7" x1="74.698" y1="-1.308" x2="71.861" y2="5.08" xlink:href="#linear-gradient-5"/>
    <linearGradient id="linear-gradient-8" x1="294.732" y1="-1.081" x2="295.739" y2="-1.081" gradientUnits="objectBoundingBox">
      <stop offset="0" stop-color="#fecaba"/>
      <stop offset="1" stop-color="#ffad92"/>
    </linearGradient>
    <linearGradient id="linear-gradient-9" x1="94.278" y1="-0.073" x2="91.261" y2="0.782" xlink:href="#linear-gradient-5"/>
    <linearGradient id="linear-gradient-10" x1="185.543" y1="-3.175" x2="178.523" y2="4.39" xlink:href="#linear-gradient-5"/>
    <linearGradient id="linear-gradient-11" x1="343.594" y1="-0.682" x2="344.608" y2="-0.682" xlink:href="#linear-gradient-8"/>
    <linearGradient id="linear-gradient-12" x1="63.163" y1="-0.139" x2="61.145" y2="0.704" xlink:href="#linear-gradient-5"/>
    <linearGradient id="linear-gradient-13" x1="25.141" y1="-19.565" x2="24.1" y2="-18.887" xlink:href="#linear-gradient-4"/>
    <linearGradient id="linear-gradient-14" x1="56.86" y1="0.222" x2="57.853" y2="0.222" xlink:href="#linear-gradient-8"/>
    <linearGradient id="linear-gradient-15" x1="-70.452" y1="1.023" x2="-68.471" y2="3.707" xlink:href="#linear-gradient-8"/>
    <linearGradient id="linear-gradient-16" x1="409.415" y1="-0.657" x2="411.416" y2="-2.437" xlink:href="#linear-gradient-8"/>
    <linearGradient id="linear-gradient-17" x1="64.015" y1="-49.842" x2="61.398" y2="-48.116" xlink:href="#linear-gradient-4"/>
    <linearGradient id="linear-gradient-18" x1="45.312" y1="0.037" x2="46.314" y2="0.037" xlink:href="#linear-gradient-8"/>
    <linearGradient id="linear-gradient-19" x1="-0.103" y1="1.691" x2="0.844" y2="-0.028" xlink:href="#linear-gradient-8"/>
    <linearGradient id="linear-gradient-20" x1="33.139" y1="46.635" x2="32.815" y2="45.569" xlink:href="#linear-gradient-8"/>
    <linearGradient id="linear-gradient-21" x1="25.118" y1="34.692" x2="25.322" y2="35.875" xlink:href="#linear-gradient-5"/>
    <linearGradient id="linear-gradient-22" x1="106.616" y1="221.975" x2="105.67" y2="217.362" xlink:href="#linear-gradient-8"/>
    <linearGradient id="linear-gradient-23" x1="41.57" y1="-0.062" x2="42.084" y2="2.428" xlink:href="#linear-gradient-5"/>
    <linearGradient id="linear-gradient-24" x1="141.633" y1="0.5" x2="142.633" y2="0.5" xlink:href="#linear-gradient-8"/>
    <linearGradient id="linear-gradient-25" x1="9.972" y1="-0.407" x2="8.878" y2="0.795" xlink:href="#linear-gradient-8"/>
    <linearGradient id="linear-gradient-26" x1="-24.57" y1="1.893" x2="-25.182" y2="2.513" xlink:href="#linear-gradient-5"/>
    <linearGradient id="linear-gradient-27" x1="1.812" y1="-0.58" x2="0.988" y2="0.138" xlink:href="#linear-gradient-4"/>
    <linearGradient id="linear-gradient-28" x1="-115.067" y1="7.711" x2="-114.842" y2="6.801" xlink:href="#linear-gradient-8"/>
    <linearGradient id="linear-gradient-29" x1="-66.571" y1="5.644" x2="-65.362" y2="6.807" xlink:href="#linear-gradient-8"/>
    <linearGradient id="linear-gradient-30" x1="-76.739" y1="5.01" x2="-78.62" y2="6.915" xlink:href="#linear-gradient-5"/>
    <linearGradient id="linear-gradient-31" x1="-187.299" y1="18.446" x2="-183.923" y2="22.765" xlink:href="#linear-gradient-8"/>
    <linearGradient id="linear-gradient-32" x1="7.286" y1="1.272" x2="8.687" y2="0.135" xlink:href="#linear-gradient-8"/>
    <linearGradient id="linear-gradient-33" x1="16.645" y1="0.43" x2="17.64" y2="0.43" xlink:href="#linear-gradient-5"/>
    <linearGradient id="linear-gradient-34" x1="15.83" y1="0.377" x2="11.933" y2="0.708" xlink:href="#linear-gradient-8"/>
    <linearGradient id="linear-gradient-35" x1="15.631" y1="0.421" x2="16.624" y2="0.421" xlink:href="#linear-gradient-5"/>
    <linearGradient id="linear-gradient-36" x1="1.968" y1="-0.231" x2="0.935" y2="0.314" xlink:href="#linear-gradient-5"/>
    <linearGradient id="linear-gradient-37" x1="8.911" y1="0.789" x2="11.881" y2="-1.387" xlink:href="#linear-gradient-8"/>
    <linearGradient id="linear-gradient-38" x1="-9.604" y1="-1.469" x2="-10.014" y2="-0.35" xlink:href="#linear-gradient-5"/>
    <linearGradient id="linear-gradient-39" x1="-30.264" y1="-0.93" x2="-29.136" y2="-0.93" xlink:href="#linear-gradient-8"/>
    <linearGradient id="linear-gradient-40" x1="-4.436" y1="0.383" x2="-3.744" y2="-0.528" xlink:href="#linear-gradient-5"/>
    <linearGradient id="linear-gradient-41" x1="-8.486" y1="-1.105" x2="-9.728" y2="2.367" xlink:href="#linear-gradient-5"/>
    <linearGradient id="linear-gradient-42" x1="-8.81" y1="-1.332" x2="-7.877" y2="-1.332" xlink:href="#linear-gradient-2"/>
    <linearGradient id="linear-gradient-43" x1="-26.908" y1="-1.077" x2="-26.006" y2="-1.077" xlink:href="#linear-gradient-8"/>
    <linearGradient id="linear-gradient-44" x1="-3.986" y1="0.705" x2="-3.955" y2="-0.272" xlink:href="#linear-gradient-5"/>
    <linearGradient id="linear-gradient-45" x1="-6.41" y1="0.002" x2="-5.417" y2="0.002" xlink:href="#linear-gradient-8"/>
    <linearGradient id="linear-gradient-46" x1="-0.88" y1="1.258" x2="0.452" y2="0.577" xlink:href="#linear-gradient-4"/>
    <linearGradient id="linear-gradient-47" x1="-15.914" y1="-0.516" x2="-14.795" y2="-0.516" xlink:href="#linear-gradient-8"/>
    <linearGradient id="linear-gradient-48" x1="-2.67" y1="1.827" x2="-0.422" y2="0.89" xlink:href="#linear-gradient-4"/>
    <linearGradient id="linear-gradient-49" x1="-4.698" y1="0.781" x2="-5.941" y2="7.598" xlink:href="#linear-gradient-8"/>
    <linearGradient id="linear-gradient-50" x1="-9.537" y1="-10.969" x2="-10.634" y2="-9.655" xlink:href="#linear-gradient-8"/>
    <linearGradient id="linear-gradient-51" x1="-11.662" y1="-10.689" x2="-10.387" y2="-10.689" xlink:href="#linear-gradient-5"/>
    <linearGradient id="linear-gradient-52" x1="-36.21" y1="-39.653" x2="-33.79" y2="-42.329" xlink:href="#linear-gradient-8"/>
    <linearGradient id="linear-gradient-53" x1="31.102" y1="22.046" x2="30.362" y2="24.483" xlink:href="#linear-gradient-5"/>
    <linearGradient id="linear-gradient-54" x1="23.832" y1="0.134" x2="23.432" y2="0.8" xlink:href="#linear-gradient-5"/>
  </defs>
  <g id="Grupo_54826" data-name="Grupo 54826" transform="translate(-141.413 -305.621)">
    <path id="Trazado_103738" data-name="Trazado 103738" d="M508.613,508.718a22.5,22.5,0,0,1-3.442,2.9c-11.227,8.056-24.512,5.707-27.335,5.134-4.169-.847-12.228-2.484-18.055-9.336-8.815-10.366-7.442-26.7-.6-37.479,1.251-1.972,7.857-12.917,21.285-14.672,8.126-1.062,17.6,1.08,24.459,6.827C519.32,474.154,518.3,498.525,508.613,508.718Z" transform="translate(-305.192 -146.028)" fill="url(#linear-gradient)"/>
    <g id="Grupo_54831" data-name="Grupo 54831" transform="translate(141.413 305.622)">
      <g id="Grupo_54829" data-name="Grupo 54829" transform="translate(0 0)">
        <circle id="Elipse_4081" data-name="Elipse 4081" cx="24.09" cy="24.09" r="24.09" transform="translate(0 34.069) rotate(-45)" fill="#bddbfb"/>
        <g id="Grupo_54826-2" data-name="Grupo 54826" transform="translate(12.479 12.479)">
          <circle id="Elipse_4082" data-name="Elipse 4082" cx="20.56" cy="20.56" r="20.56" transform="translate(1.03 1.03)" fill="url(#linear-gradient-2)"/>
          <path id="Trazado_103739" data-name="Trazado 103739" d="M719.49,905.285a21.59,21.59,0,1,1,21.59-21.59A21.614,21.614,0,0,1,719.49,905.285Zm0-42.15a20.56,20.56,0,1,0,20.56,20.56A20.584,20.584,0,0,0,719.49,863.135Z" transform="translate(-697.9 -862.105)" fill="#fff"/>
        </g>
        <g id="Grupo_54827" data-name="Grupo 54827" transform="translate(16.343 16.343)">
          <circle id="Elipse_4083" data-name="Elipse 4083" cx="12.535" cy="12.535" r="12.535" transform="translate(0 17.726) rotate(-45)" fill="url(#linear-gradient-3)"/>
          <path id="Trazado_103740" data-name="Trazado 103740" d="M1069.363,1247.141a13.564,13.564,0,1,1,13.564-13.565A13.58,13.58,0,0,1,1069.363,1247.141Zm0-25.069a11.5,11.5,0,1,0,11.5,11.5A11.518,11.518,0,0,0,1069.363,1222.072Z" transform="translate(-1051.637 -1215.85)" fill="#fff"/>
        </g>
        <g id="Grupo_54828" data-name="Grupo 54828" transform="translate(27.201 27.201)">
          <circle id="Elipse_4084" data-name="Elipse 4084" cx="4.856" cy="4.856" r="4.856" transform="translate(0 6.868) rotate(-45)" fill="url(#linear-gradient-4)"/>
          <path id="Trazado_103741" data-name="Trazado 103741" d="M1404.09,1574.182a5.886,5.886,0,1,1,5.886-5.886A5.893,5.893,0,0,1,1404.09,1574.182Zm0-9.713a3.827,3.827,0,1,0,3.827,3.827A3.831,3.831,0,0,0,1404.09,1564.47Z" transform="translate(-1397.222 -1561.429)" fill="#fff"/>
        </g>
      </g>
      <g id="Grupo_54830" data-name="Grupo 54830" transform="translate(33.969 8.55)">
        <rect id="Rectángulo_5540" data-name="Rectángulo 5540" width="0.723" height="27.392" transform="matrix(-0.707, -0.707, 0.707, -0.707, 4.229, 22.475)" fill="url(#linear-gradient-5)"/>
        <path id="Trazado_103742" data-name="Trazado 103742" d="M1660.308,1609.542c.293-.294,1.677,1.09,1.383,1.384l-5.131,4.034a.2.2,0,0,1-.286-.286Z" transform="translate(-1656.228 -1588.812)" fill="url(#linear-gradient-6)"/>
        <path id="Trazado_103743" data-name="Trazado 103743" d="M2471.4,825.905l2.606.259-3.577,3.577a5.53,5.53,0,0,1-4.458,1.593h0Z" transform="translate(-2447.811 -822.788)" fill="#91c6fa"/>
        <path id="Trazado_103744" data-name="Trazado 103744" d="M2447.406,689.5l-.259-2.606-3.577,3.577a5.53,5.53,0,0,0-1.593,4.457h0Z" transform="translate(-2424.33 -686.895)" fill="#91c6fa"/>
      </g>
    </g>
    <g id="Grupo_54842" data-name="Grupo 54842" transform="translate(149.999 309.023)">
      <g id="Grupo_54836" data-name="Grupo 54836" transform="translate(0 1.699)">
        <g id="Grupo_54832" data-name="Grupo 54832" opacity="0.3">
          <path id="Trazado_103745" data-name="Trazado 103745" d="M546.32,535.5a.186.186,0,0,1-.264,0c-.141-.142-.291-.279-.445-.409a.186.186,0,0,1-.025-.26l0,0a.187.187,0,0,1,.263-.022c.162.136.319.281.468.43a.186.186,0,0,1,.013.249Zm-1.5-.988c-.17-.107-.346-.208-.524-.3a.186.186,0,0,1,.172-.331c.187.1.372.2.551.316a.186.186,0,0,1,.058.257l-.013.018A.186.186,0,0,1,544.82,534.517Zm-1.423-.69c-.189-.067-.383-.126-.577-.176a.186.186,0,0,1,.093-.361c.2.053.409.115.608.185a.186.186,0,0,1,.114.238.185.185,0,0,1-.031.055A.187.187,0,0,1,543.4,533.826Zm-1.542-.355c-.2-.023-.4-.037-.6-.043a.186.186,0,0,1,.01-.373c.211.006.424.021.634.045a.186.186,0,0,1-.042.37Zm-1.583,0c-.2.022-.4.053-.6.092a.186.186,0,1,1-.072-.366c.207-.041.419-.073.628-.1a.186.186,0,1,1,.041.37Zm-1.543.348c-.189.066-.378.14-.562.222a.186.186,0,0,1-.151-.341c.193-.086.392-.164.591-.233a.186.186,0,1,1,.122.352Zm-4.755,5.031a.186.186,0,0,1-.133-.227c.053-.2.116-.409.187-.608a.186.186,0,0,1,.351.125c-.067.189-.127.383-.177.577a.186.186,0,0,1-.227.133Zm3.327-4.35c-.17.106-.337.221-.5.341a.186.186,0,1,1-.224-.3c.169-.127.345-.247.524-.359a.186.186,0,0,1,.243.276A.189.189,0,0,1,537.3,534.5Zm-2.783,2.819a.186.186,0,0,1-.079-.251c.1-.187.2-.372.318-.551a.186.186,0,1,1,.315.2c-.108.169-.209.346-.3.523a.186.186,0,0,1-.251.079Zm1.544-1.837c-.142.141-.28.291-.409.444a.186.186,0,0,1-.287-.238l0,0c.136-.161.281-.319.431-.467a.186.186,0,0,1,.276.249Z" transform="translate(-533.622 -533.056)" fill="#91c6fa"/>
          <path id="Trazado_103746" data-name="Trazado 103746" d="M524.629,819.909a.185.185,0,0,0,.041-.1c.007-.1.016-.193.027-.289a.186.186,0,1,0-.37-.043c-.012.1-.021.2-.029.3a.186.186,0,0,0,.331.131Z" transform="translate(-524.298 -812.89)" fill="#91c6fa"/>
        </g>
        <g id="Grupo_54833" data-name="Grupo 54833" transform="translate(1.634 7.461)" opacity="0.3">
          <path id="Trazado_103747" data-name="Trazado 103747" d="M597.684,1062.942a.187.187,0,0,0-.006-.242c-.064-.072-.128-.146-.189-.22a.186.186,0,1,0-.288.237c.065.078.132.156.2.232a.187.187,0,0,0,.263.014A.184.184,0,0,0,597.684,1062.942Z" transform="translate(-597.158 -1058.002)" fill="#91c6fa"/>
          <path id="Trazado_103748" data-name="Trazado 103748" d="M647.879,926.676a.186.186,0,0,1-.278-.249c.131-.146.257-.3.378-.459a.186.186,0,0,1,.3.225q-.078.1-.159.2C648.04,926.491,647.96,926.585,647.879,926.676Zm.7-1.261a.186.186,0,0,1-.071-.254c.1-.172.187-.35.269-.53a.186.186,0,0,1,.339.155c-.086.189-.181.376-.283.558a.2.2,0,0,1-.018.026A.186.186,0,0,1,648.579,925.414Zm-1.428,1.97c-.158.134-.324.263-.494.384a.186.186,0,0,1-.216-.3c.161-.114.319-.237.469-.365a.186.186,0,0,1,.266.259A.18.18,0,0,1,647.152,927.384Zm2.09-3.425a.187.187,0,0,1-.125-.232c.057-.189.106-.383.146-.576a.186.186,0,1,1,.365.076c-.042.2-.094.407-.154.606a.186.186,0,0,1-.232.125Zm-3.449,4.339c-.184.1-.374.185-.566.266a.186.186,0,1,1-.144-.344c.182-.076.363-.161.537-.253a.186.186,0,0,1,.173.33Zm-1.527.594c-.2.054-.406.1-.61.136a.186.186,0,0,1-.066-.367c.194-.035.389-.078.58-.129a.186.186,0,0,1,.1.36Zm-1.62.248c-.208.009-.418.009-.625,0a.186.186,0,0,1,.016-.372c.2.008.4.008.594,0a.186.186,0,1,1,.016.372Zm-1.635-.112c-.2-.037-.41-.083-.61-.137a.186.186,0,1,1,.1-.36c.19.051.385.1.58.13a.186.186,0,1,1-.066.367Zm-1.572-.469c-.191-.081-.381-.171-.565-.268a.186.186,0,1,1,.174-.33c.175.092.355.178.536.255a.186.186,0,1,1-.146.343Zm-1.429-.8c-.124-.089-.247-.183-.366-.279l-.127-.105a.184.184,0,0,1-.022-.263.186.186,0,0,1,.263-.022l.121.1c.113.091.23.18.348.265a.186.186,0,0,1,.043.26l-.007.009A.187.187,0,0,1,638.01,927.759Z" transform="translate(-636.547 -921.72)" fill="#91c6fa"/>
          <path id="Trazado_103749" data-name="Trazado 103749" d="M1170.433,866.366a.188.188,0,0,0,.041-.1c.007-.1.012-.2.015-.305a.186.186,0,1,0-.373-.01c0,.1-.007.194-.014.29a.187.187,0,0,0,.331.13Z" transform="translate(-1157.254 -865.765)" fill="#91c6fa"/>
        </g>
        <g id="Grupo_54835" data-name="Grupo 54835" transform="translate(1.78 1.812)">
          <path id="Trazado_103750" data-name="Trazado 103750" d="M614.6,617.691a.087.087,0,0,0-.074-.069l-1.052-.134a4.618,4.618,0,0,0-.842-1.237l.26-1.027a.087.087,0,0,0-.037-.094l-1.064-.7a.087.087,0,0,0-.1,0l-.838.648a4.615,4.615,0,0,0-1.47-.279l-.543-.911a.087.087,0,0,0-.093-.041l-1.245.259a.087.087,0,0,0-.069.074l-.134,1.052a4.618,4.618,0,0,0-1.237.842l-1.027-.26a.087.087,0,0,0-.094.037l-.7,1.064a.087.087,0,0,0,0,.1l.648.838a4.615,4.615,0,0,0-.279,1.47l-.911.542a.087.087,0,0,0-.041.093l.259,1.245a.087.087,0,0,0,.074.069l1.052.134a4.619,4.619,0,0,0,.842,1.237l-.26,1.027a.087.087,0,0,0,.037.094l1.064.7a.087.087,0,0,0,.1,0l.838-.648a4.619,4.619,0,0,0,1.47.279l.543.911a.087.087,0,0,0,.093.041l1.245-.259a.087.087,0,0,0,.069-.074l.134-1.052a4.622,4.622,0,0,0,1.237-.842l1.027.26a.087.087,0,0,0,.094-.037l.7-1.064a.087.087,0,0,0,0-.1l-.648-.838a4.619,4.619,0,0,0,.279-1.47l.911-.543a.087.087,0,0,0,.041-.093Z" transform="translate(-603.666 -613.852)" fill="#91c6fa"/>
          <g id="Grupo_54834" data-name="Grupo 54834" transform="translate(4.32 4.321)">
            <path id="Trazado_103751" data-name="Trazado 103751" d="M798.463,808.754a1.277,1.277,0,1,1,.129-.137A1.28,1.28,0,0,1,798.463,808.754Zm-1.844-.983a.979.979,0,1,0,.217-.574A.974.974,0,0,0,796.619,807.771Z" transform="translate(-796.32 -806.535)" fill="#bddbfb"/>
          </g>
          <path id="Trazado_103752" data-name="Trazado 103752" d="M717.492,728.655a3.216,3.216,0,0,0,.19-.261h0l.055-.087a3.177,3.177,0,0,0,.227-.449l0-.006.007-.018.014-.035a.075.075,0,1,0-.139-.054,3,3,0,0,1-2.839,1.919,2.976,2.976,0,0,1-1.6-.489,3.05,3.05,0,0,1-.249-.182,2.995,2.995,0,1,1,4.586-3.629.073.073,0,0,0,.02.025.075.075,0,0,0,.114-.09,3.144,3.144,0,1,0-4.814,3.809,3.2,3.2,0,0,0,.261.191,3.144,3.144,0,0,0,4.162-.644Z" transform="translate(-709.481 -721.069)" fill="#bddbfb"/>
        </g>
      </g>
      <g id="Grupo_54841" data-name="Grupo 54841" transform="translate(12.079 0)">
        <g id="Grupo_54837" data-name="Grupo 54837" opacity="0.3">
          <path id="Trazado_103753" data-name="Trazado 103753" d="M1423.624,540.937a.115.115,0,0,0,.005-.138c-.055-.08-.114-.16-.174-.237a.115.115,0,1,0-.181.142c.057.073.113.15.166.226a.115.115,0,0,0,.16.029A.12.12,0,0,0,1423.624,540.937Z" transform="translate(-1415.169 -538.651)" fill="#91c6fa"/>
          <path id="Trazado_103754" data-name="Trazado 103754" d="M1070.841,458.919a.115.115,0,0,1-.163,0,4.8,4.8,0,0,0-.359-.323l-.08-.063a.115.115,0,0,1-.02-.162.119.119,0,0,1,.162-.02l.083.066a4.979,4.979,0,0,1,.377.339.115.115,0,0,1,.009.154Zm-1.085-.716a4.759,4.759,0,0,0-.519-.268.115.115,0,0,1,.093-.211,5,5,0,0,1,.544.281.115.115,0,0,1,.04.158l-.009.014A.115.115,0,0,1,1069.756,458.2Zm-1.068-.471a4.733,4.733,0,0,0-.569-.133.115.115,0,1,1,.038-.227,4.957,4.957,0,0,1,.6.139.115.115,0,0,1,.077.143.113.113,0,0,1-.021.039A.115.115,0,0,1,1068.688,457.733Zm-1.151-.194a4.748,4.748,0,0,0-.584.011.115.115,0,0,1-.019-.229,4.987,4.987,0,0,1,.613-.011.115.115,0,1,1-.01.23Zm-1.163.093a4.8,4.8,0,0,0-.564.152.115.115,0,0,1-.074-.218,5.035,5.035,0,0,1,.592-.16.115.115,0,1,1,.046.226Zm-1.105.373a4.725,4.725,0,0,0-.51.285.115.115,0,1,1-.125-.194,4.953,4.953,0,0,1,.534-.3.115.115,0,0,1,.1.208Zm-.98.631a4.766,4.766,0,0,0-.424.4.115.115,0,0,1-.168-.157,5.014,5.014,0,0,1,.445-.421.115.115,0,0,1,.163.161A.1.1,0,0,1,1064.288,458.637Zm-1.266,1.391a.115.115,0,0,1-.045-.156,5.036,5.036,0,0,1,.282-.451l.047-.066a.115.115,0,0,1,.186.136l-.044.062a4.772,4.772,0,0,0-.27.431.115.115,0,0,1-.156.045Z" transform="translate(-1062.962 -457.305)" fill="#91c6fa"/>
        </g>
        <g id="Grupo_54838" data-name="Grupo 54838" transform="translate(3.209 4.994)" opacity="0.3">
          <path id="Trazado_103755" data-name="Trazado 103755" d="M1211.045,721.334a5,5,0,0,1-.413.439.115.115,0,1,1-.158-.168,4.786,4.786,0,0,0,.394-.419.115.115,0,0,1,.178.146Zm.2-.452a.115.115,0,0,1-.034-.159,4.8,4.8,0,0,0,.283-.5.115.115,0,0,1,.207.1,5.066,5.066,0,0,1-.3.525l-.007.01A.115.115,0,0,1,1211.244,720.882Zm-1.075,1.277a4.988,4.988,0,0,1-.507.326.115.115,0,0,1-.113-.2,4.773,4.773,0,0,0,.484-.311.115.115,0,0,1,.157.165A.112.112,0,0,1,1210.169,722.159Zm1.615-2.322a.115.115,0,0,1-.071-.146,4.693,4.693,0,0,0,.154-.554.115.115,0,0,1,.225.048,4.9,4.9,0,0,1-.161.581.111.111,0,0,1-.019.035A.115.115,0,0,1,1211.784,719.837Zm-2.664,2.91a5.021,5.021,0,0,1-.57.195.115.115,0,1,1-.061-.222,4.743,4.743,0,0,0,.544-.186.115.115,0,0,1,.087.213Zm-1.16.32a5.033,5.033,0,0,1-.6.053.115.115,0,0,1-.006-.23,4.815,4.815,0,0,0,.573-.05.115.115,0,0,1,.034.228Zm-1.2.033a4.988,4.988,0,0,1-.6-.093.115.115,0,0,1,.049-.225,4.737,4.737,0,0,0,.568.089.115.115,0,0,1-.021.229Z" transform="translate(-1206.07 -718.171)" fill="#91c6fa"/>
          <path id="Trazado_103756" data-name="Trazado 103756" d="M1468.551,680.5a.113.113,0,0,0,.025-.063c.009-.1.014-.2.017-.294a.115.115,0,0,0-.23-.006c0,.092-.008.187-.016.28a.115.115,0,0,0,.2.082Z" transform="translate(-1462.465 -680.023)" fill="#91c6fa"/>
        </g>
        <g id="Grupo_54840" data-name="Grupo 54840" transform="translate(0.588 1.205)">
          <path id="Trazado_103757" data-name="Trazado 103757" d="M1096.507,513.594a.059.059,0,0,0-.05-.046l-.7-.09a3.088,3.088,0,0,0-.563-.828l.174-.687a.058.058,0,0,0-.025-.063l-.712-.467a.058.058,0,0,0-.068,0l-.561.434a3.092,3.092,0,0,0-.984-.186l-.363-.61a.058.058,0,0,0-.062-.027l-.833.173a.058.058,0,0,0-.046.05l-.09.7a3.094,3.094,0,0,0-.828.563l-.687-.174a.059.059,0,0,0-.063.025l-.467.712a.058.058,0,0,0,0,.068l.434.561a3.09,3.09,0,0,0-.187.984l-.61.363a.058.058,0,0,0-.027.062l.173.833a.058.058,0,0,0,.05.046l.7.09a3.094,3.094,0,0,0,.563.828l-.174.687a.058.058,0,0,0,.024.063l.712.467a.058.058,0,0,0,.068,0l.561-.434a3.092,3.092,0,0,0,.984.186l.363.61a.058.058,0,0,0,.062.027l.833-.173a.059.059,0,0,0,.046-.05l.09-.7a3.087,3.087,0,0,0,.828-.563l.687.174a.058.058,0,0,0,.063-.024l.467-.712a.058.058,0,0,0,0-.068l-.434-.561a3.092,3.092,0,0,0,.186-.984l.61-.363a.058.058,0,0,0,.027-.062Z" transform="translate(-1089.188 -511.026)" fill="#91c6fa"/>
          <g id="Grupo_54839" data-name="Grupo 54839" transform="translate(2.876 2.876)">
            <path id="Trazado_103758" data-name="Trazado 103758" d="M1218.9,640.787a.866.866,0,1,1,.089-.094A.892.892,0,0,1,1218.9,640.787Zm-1.061-.208a.641.641,0,0,0,.905.038h0a.641.641,0,0,0-.867-.943.681.681,0,0,0-.064.069A.642.642,0,0,0,1217.839,640.58Z" transform="translate(-1217.441 -639.276)" fill="#bddbfb"/>
          </g>
          <path id="Trazado_103759" data-name="Trazado 103759" d="M1162.563,584.982q.069-.085.13-.178a2.18,2.18,0,0,0,.2-.392l.007-.018a.115.115,0,0,0-.035-.131.113.113,0,0,0-.031-.018.115.115,0,0,0-.149.066,1.946,1.946,0,0,1-.189.367h0l-.013.019a1.92,1.92,0,0,1-.706.635,1.952,1.952,0,0,1-.491.178h0l-.013,0a1.926,1.926,0,0,1-1.458-.277,1.949,1.949,0,0,1-.161-.118,1.939,1.939,0,0,1,2.287-3.125,1.961,1.961,0,0,1,.159.116,1.932,1.932,0,0,1,.523.659.115.115,0,0,0,.207-.1,2.166,2.166,0,0,0-.585-.738q-.086-.069-.178-.13a2.169,2.169,0,0,0-2.559,3.5,2.206,2.206,0,0,0,.18.132A2.172,2.172,0,0,0,1162.563,584.982Z" transform="translate(-1157.151 -579.866)" fill="#bddbfb"/>
        </g>
      </g>
    </g>
    <g id="Grupo_54848" data-name="Grupo 54848" transform="translate(149.133 336.456)">
      <path id="Trazado_103760" data-name="Trazado 103760" d="M804.91,3164.231s-.13.7-.2,1.384a.475.475,0,0,0,.449.519c.917.047,2.88.14,3.585.116a.155.155,0,0,0,.138-.21.346.346,0,0,0-.175-.188l-3.229-1.521Z" transform="translate(-797.557 -3130.962)" fill="url(#linear-gradient-7)"/>
      <path id="Trazado_103761" data-name="Trazado 103761" d="M809.255,3140.678l.091.834a1.033,1.033,0,0,0,.956-.024l-.226-.93Z" transform="translate(-801.999 -3107.82)" fill="url(#linear-gradient-8)"/>
      <path id="Trazado_103762" data-name="Trazado 103762" d="M706.453,2446.725c-.045.217-.333,10.852.759,15.629a.162.162,0,0,1-.1.187,2.822,2.822,0,0,1-.928.179.278.278,0,0,1-.274-.2,54.689,54.689,0,0,1-1.971-11.96c-.171-5.917,0-.2,0-.2l.168-3.655Z" transform="translate(-698.973 -2429.524)" fill="url(#linear-gradient-9)"/>
      <path id="Trazado_103763" data-name="Trazado 103763" d="M629.435,3178.843a5.014,5.014,0,0,0-.4,1.282.29.29,0,0,0,.252.349c.3.033.769.076,1.143.077a.289.289,0,0,0,.289-.32,2.438,2.438,0,0,0-.556-1.342Z" transform="translate(-625.817 -3145.247)" fill="url(#linear-gradient-10)"/>
      <path id="Trazado_103764" data-name="Trazado 103764" d="M639.839,3129.2l.219,1.262a.814.814,0,0,0,.679.053l-.1-1.356Z" transform="translate(-636.382 -3096.675)" fill="url(#linear-gradient-11)"/>
      <path id="Trazado_103765" data-name="Trazado 103765" d="M600.595,2436.607c-.983,5.6.069,13.872.436,15.492a.252.252,0,0,0,.2.193,1.691,1.691,0,0,0,.728-.022.231.231,0,0,0,.168-.211c.064-1.306.048-9.329.945-12.491a.72.72,0,0,1,.282-.395l1.693-1.179.147-1.931Z" transform="translate(-597.618 -2419.123)" fill="url(#linear-gradient-12)"/>
      <g id="Grupo_54843" data-name="Grupo 54843" transform="translate(2.669 2.667)">
        <path id="Trazado_103766" data-name="Trazado 103766" d="M611.064,1970.03a26.187,26.187,0,0,0-5.868.676,41.979,41.979,0,0,0-.245,10.436,8.751,8.751,0,0,0,4.594-.3c.378-2.022,2.105-7.708,2.105-7.708a9.177,9.177,0,0,0,3.417-1.049,5.973,5.973,0,0,1-1.157-2.481A9.346,9.346,0,0,1,611.064,1970.03Z" transform="translate(-604.731 -1965.788)" fill="url(#linear-gradient-13)"/>
        <path id="Trazado_103767" data-name="Trazado 103767" d="M1019.5,1799.788a.533.533,0,0,0-.619-.18c-.427,1.728-2.59,3.112-4.806,3.778a5.975,5.975,0,0,0,1.157,2.481A8.942,8.942,0,0,0,1019.5,1799.788Z" transform="translate(-1004.899 -1799.573)" fill="url(#linear-gradient-14)"/>
      </g>
      <g id="Grupo_54844" data-name="Grupo 54844" transform="translate(16.661 0)">
        <path id="Trazado_103768" data-name="Trazado 103768" d="M1229.211,1683.622c.028.091-.305.227-.5-.148a3.513,3.513,0,0,1,0-1.089,14.248,14.248,0,0,1,1.686-1.729.262.262,0,0,1,.029.365l-.54.552a2.59,2.59,0,0,1,.306.62.748.748,0,0,1-.08.55c-.1.168-.225.387-.348.557A.74.74,0,0,1,1229.211,1683.622Z" transform="translate(-1228.666 -1680.656)" fill="url(#linear-gradient-15)"/>
        <path id="Trazado_103769" data-name="Trazado 103769" d="M1244.505,1737.5l-.491.408-.157.409.43.486a5.59,5.59,0,0,1,.264-.989C1244.662,1737.64,1244.606,1737.553,1244.505,1737.5Z" transform="translate(-1243.517 -1736.226)" fill="url(#linear-gradient-16)"/>
      </g>
      <path id="Trazado_103770" data-name="Trazado 103770" d="M492.72,2021.55l-1.043-2.708s-2.62,1.744-3.069,3.982a6.158,6.158,0,0,1,2.257.628C491.068,2022.394,492.72,2021.55,492.72,2021.55Z" transform="translate(-488.543 -2011.257)" fill="url(#linear-gradient-17)"/>
      <path id="Trazado_103771" data-name="Trazado 103771" d="M492.123,2197.7s-2.938,1.624-3.911.2a1.109,1.109,0,0,1-.195-.863,6.166,6.166,0,0,0-2.257-.628,3.1,3.1,0,0,0,.316,2.125c1.7,3.176,6.426-.113,6.426-.113Z" transform="translate(-485.695 -2184.843)" fill="url(#linear-gradient-18)"/>
      <path id="Trazado_103772" data-name="Trazado 103772" d="M722.3,1886.621l-.911,2.556a.093.093,0,0,0,.041.112,2.085,2.085,0,0,0,2.163-.125.435.435,0,0,0,.2-.309l.308-2.216Z" transform="translate(-716.096 -1882.003)" fill="url(#linear-gradient-19)"/>
      <g id="Grupo_54845" data-name="Grupo 54845" transform="translate(4.528 0.929)">
        <path id="Trazado_103773" data-name="Trazado 103773" d="M749.94,1781.556a6.817,6.817,0,0,1,.824,2.581c-.132.739-1.338.675-2.386.063l-.717-1.986Z" transform="translate(-746.315 -1780.223)" fill="url(#linear-gradient-20)"/>
        <path id="Trazado_103774" data-name="Trazado 103774" d="M689.734,1725.1a.076.076,0,0,0,.034-.11,1.972,1.972,0,0,1-.266-.578s-.174-.114.448-.256,1.549-.364,1.749-.891-.291-1.813-1.1-.789a.075.075,0,0,1-.12,0,.779.779,0,0,0-.946-.317.714.714,0,0,0-.5.686.075.075,0,0,1-.09.076.871.871,0,0,0-1.022.464.7.7,0,0,0,.042.842.075.075,0,0,1-.033.125.453.453,0,0,0-.325.514c.022.479.558.442.711.422a.075.075,0,0,1,.067.024,2.574,2.574,0,0,0,1.35.846.076.076,0,0,0,.081-.1l-.268-.8a.076.076,0,0,1,.042-.094Z" transform="translate(-687.614 -1722.099)" fill="url(#linear-gradient-21)"/>
        <path id="Trazado_103775" data-name="Trazado 103775" d="M754.508,1850.78s-.689-.482-.743-.082.619.586.954.44Z" transform="translate(-752.279 -1847.658)" fill="url(#linear-gradient-22)"/>
      </g>
      <g id="Grupo_54847" data-name="Grupo 54847" transform="translate(5.821 9.365)">
        <g id="Grupo_54846" data-name="Grupo 54846">
          <path id="Trazado_103776" data-name="Trazado 103776" d="M745.285,2104.336l1.6-5.589a.163.163,0,0,1,.138-.117c.29-.034,1.13-.129,2.1-.211a23.872,23.872,0,0,1,3.337-.111.164.164,0,0,1,.134.235,55.941,55.941,0,0,1-3.308,5.971.165.165,0,0,1-.132.065l-3.713-.034A.164.164,0,0,1,745.285,2104.336Z" transform="translate(-745.279 -2098.282)" fill="url(#linear-gradient-23)"/>
          <path id="Trazado_103777" data-name="Trazado 103777" d="M756.078,2224.945a4.067,4.067,0,0,1-.133-1.242c.09-.325.264-.743.845-.651a8.492,8.492,0,0,1,1.266.338.332.332,0,0,1-.476.287l.274.212s-.039.339-.412.158l.255.281a.3.3,0,0,1-.434.1C756.988,2224.25,756.856,2225.056,756.078,2224.945Z" transform="translate(-755.685 -2220.242)" fill="url(#linear-gradient-24)"/>
        </g>
        <path id="Trazado_103778" data-name="Trazado 103778" d="M911.991,2158.279a.47.47,0,1,0,.47-.47A.47.47,0,0,0,911.991,2158.279Z" transform="translate(-908.253 -2156.474)" fill="#91c6fa"/>
        <path id="Trazado_103779" data-name="Trazado 103779" d="M819.789,2116.062l.326-1.105a.379.379,0,0,1,.285-.266,32.813,32.813,0,0,1,3.845-.259l0-.125a32.092,32.092,0,0,0-3.869.261.5.5,0,0,0-.379.353l-.326,1.105Z" transform="translate(-818.001 -2113.948)" fill="#bddbfb"/>
      </g>
    </g>
    <g id="Grupo_54859" data-name="Grupo 54859" transform="translate(176.483 336.254)">
      <g id="Grupo_54849" data-name="Grupo 54849" transform="translate(21.69)">
        <path id="Trazado_103780" data-name="Trazado 103780" d="M2672.748,1819.424a.106.106,0,0,1,.2.021,1.746,1.746,0,0,0,.807,1.149l.07.032a.246.246,0,0,0-.03-.222c-.15-.229.12-.542.12-.542a.7.7,0,0,0,.228.449.671.671,0,0,1,.144.755c-.261,1.013-.652,2.354.87,3.333s3.665-1.848,3.665-1.848l-1.063,3.372a2.8,2.8,0,0,1-3.552-.492c-1.91-1.7-.644-4.182-.644-4.182S2672.1,1820.661,2672.748,1819.424Z" transform="translate(-2672.582 -1816.055)" fill="url(#linear-gradient-25)"/>
        <path id="Trazado_103781" data-name="Trazado 103781" d="M2931.22,1673.193s-.441-1.978,1.824-1.454c0,0,1.1-.18,1.156.858a.966.966,0,0,1,.19,1.365s2.106-.814,3.024,1.033.074,2.863-.81,3.127a.881.881,0,0,1,.377,1.172,2.046,2.046,0,0,1-3.071.4s-2.887.381-2.83-1.658c0,0-1.343-.867.068-2.553S2931.22,1673.193,2931.22,1673.193Z" transform="translate(-2924.719 -1671.651)" fill="url(#linear-gradient-26)"/>
        <path id="Trazado_103782" data-name="Trazado 103782" d="M2879.842,1939.543a3.108,3.108,0,0,1,3.042.775.782.782,0,0,1,.225.778c-.339,1.246-1.232,4.929-.449,6.523a2.107,2.107,0,0,1-2.886.3,16.67,16.67,0,0,0-1.561-4.238c-.611-.893.974-3.352,1.375-3.946A.472.472,0,0,1,2879.842,1939.543Z" transform="translate(-2873.466 -1933.416)" fill="url(#linear-gradient-27)"/>
        <path id="Trazado_103783" data-name="Trazado 103783" d="M2973.687,1834.4a15.508,15.508,0,0,1,.723,2.745,1.44,1.44,0,0,1-1.445-.233,21.242,21.242,0,0,0-.18-2.243Z" transform="translate(-2966.053 -1830.748)" fill="url(#linear-gradient-28)"/>
        <path id="Trazado_103784" data-name="Trazado 103784" d="M2925.771,1718s-1.761,2.464-.708,3.18,2.306-1.036,2.306-1.036.409-1.349-.019-1.806S2925.771,1718,2925.771,1718Z" transform="translate(-2919.073 -1716.951)" fill="url(#linear-gradient-29)"/>
        <path id="Trazado_103785" data-name="Trazado 103785" d="M2967.1,1690.922s-.808.192-.922.558,1.147.705,1.5.722l.285,1.477s.841-1.389.508-2.192S2967.1,1690.922,2967.1,1690.922Z" transform="translate(-2959.583 -1690.458)" fill="url(#linear-gradient-30)"/>
        <path id="Trazado_103786" data-name="Trazado 103786" d="M3027.3,1786.482s.685-.794.958-.276-.617.906-.925.652Z" transform="translate(-3019.346 -1783.465)" fill="url(#linear-gradient-31)"/>
        <path id="Trazado_103787" data-name="Trazado 103787" d="M2858.871,2593.9c.005.134-.229,1.194-.357,1.76a.934.934,0,0,0,.1.669l4.424,7.446a1.011,1.011,0,0,1,.116.29,6.394,6.394,0,0,1,.162,1.985l-.229.475.99-.225.216-2.658-.28-.171a1.328,1.328,0,0,1-.538-.631,37.908,37.908,0,0,1-1.65-4.651,5.1,5.1,0,0,0-1.812-2.483l.267-.632Z" transform="translate(-2854.322 -2573.221)" fill="url(#linear-gradient-32)"/>
        <path id="Trazado_103788" data-name="Trazado 103788" d="M3052.569,3021.2a6.036,6.036,0,0,1-.6-1.177c-.063-.33-.238-.912-.567-.737a19.356,19.356,0,0,0-.1,2.229c.054.626-.708.606-.708.606a.711.711,0,0,0-.364.183.178.178,0,0,0,.12.3,4.3,4.3,0,0,0,1.06-.06.325.325,0,0,0,.262-.3l.109-1.844.675.852Z" transform="translate(-3041.714 -2989.032)" fill="url(#linear-gradient-33)"/>
        <path id="Trazado_103789" data-name="Trazado 103789" d="M2953.18,2638.977s.156,6.661.177,7.606-.149,3.042-1.1,3.669l.413.305a5.521,5.521,0,0,0,1.02-1.281,7.774,7.774,0,0,1,.737-1.121l-.188-.385a.844.844,0,0,1-.069-.542c.2-.992.888-4.291,1.075-5a3.2,3.2,0,0,0-.53-2.9A1.087,1.087,0,0,0,2953.18,2638.977Z" transform="translate(-2945.988 -2617.11)" fill="url(#linear-gradient-34)"/>
        <path id="Trazado_103790" data-name="Trazado 103790" d="M2933.786,3051.852a.058.058,0,0,0,.059-.05,8.6,8.6,0,0,1,.271-1.343c.123-.264.525-1.375,0-1.47,0,0-1.307,1.909-1.557,2.167a.492.492,0,0,1-.568.09.943.943,0,0,0-.429.308.173.173,0,0,0,.137.278l.88.009a.619.619,0,0,0,.581-.391,3.31,3.31,0,0,1,.731-1.206l-.161,1.543a.059.059,0,0,0,.058.065Z" transform="translate(-2925.719 -3018.104)" fill="url(#linear-gradient-35)"/>
        <path id="Trazado_103791" data-name="Trazado 103791" d="M2857.172,2267.129a3.124,3.124,0,0,1-.106,1.674l-1.89,6.6a.2.2,0,0,0,.128.249,12.615,12.615,0,0,0,4.961.6.288.288,0,0,0,.263-.224c.167-.753.738-3.32.855-3.848.448-2.01.947-4.178-1.251-5.489A4.519,4.519,0,0,1,2857.172,2267.129Z" transform="translate(-2851.073 -2253.35)" fill="url(#linear-gradient-36)"/>
        <path id="Trazado_103792" data-name="Trazado 103792" d="M3022.017,1983.779a8.747,8.747,0,0,1,2.685,4.229c.534,2.442-3.143,2.7-3.143,2.7a1.136,1.136,0,0,0-1.092-.358c-.592.2-.046-.973.647-.97s.372.551,1.353.107c.955-.433,1.546-1.771-.892-3.8a1.108,1.108,0,0,1-.322-.438C3020.781,1984.059,3021.156,1983.277,3022.017,1983.779Z" transform="translate(-3012.419 -1976.629)" fill="url(#linear-gradient-37)"/>
      </g>
      <g id="Grupo_54858" data-name="Grupo 54858" transform="translate(0 6.058)">
        <g id="Grupo_54852" data-name="Grupo 54852" transform="translate(13.099 17.365)">
          <g id="Grupo_54850" data-name="Grupo 54850" transform="translate(3.964 1.976)">
            <rect id="Rectángulo_5541" data-name="Rectángulo 5541" width="0.767" height="8.296" fill="#7da9f4"/>
          </g>
          <g id="Grupo_54851" data-name="Grupo 54851" transform="translate(0.988 9.932)">
            <path id="Trazado_103793" data-name="Trazado 103793" d="M2340.245,3159.563h-6.719v-.445a.055.055,0,0,1,.055-.055h6.608a.055.055,0,0,1,.055.055Z" transform="translate(-2333.526 -3159.063)" fill="#7da9f4"/>
          </g>
          <rect id="Rectángulo_5542" data-name="Rectángulo 5542" width="8.978" height="2.546" rx="1.273" fill="#7da9f4"/>
        </g>
        <g id="Grupo_54854" data-name="Grupo 54854" transform="translate(6.08)">
          <path id="Trazado_103794" data-name="Trazado 103794" d="M2077.907,3053.326s-2.48,1.068-2.338,2.186c0,0,2.564-.492,3.022-1.225s.206-1.157.206-1.157Z" transform="translate(-2073.34 -3028.209)" fill="url(#linear-gradient-38)"/>
          <path id="Trazado_103795" data-name="Trazado 103795" d="M2160.641,3007.4l.126,1.088a.359.359,0,0,1-.228.382.947.947,0,0,1-.314.048.42.42,0,0,1-.407-.306l-.244-.88Z" transform="translate(-2155.468 -2983.508)" fill="url(#linear-gradient-39)"/>
          <path id="Trazado_103796" data-name="Trazado 103796" d="M2108.254,2634.648s-4.562-.211-6.831,1.113.115,7.677.115,7.677a2.3,2.3,0,0,0,1.447-.329s-1.219-4.651.9-5.46a12.18,12.18,0,0,1,4.84-.688l-.456-2.169Z" transform="translate(-2097.662 -2619.099)" fill="url(#linear-gradient-40)"/>
          <path id="Trazado_103797" data-name="Trazado 103797" d="M2058.019,3105.091c.519-.114,2.057-.751,2.291-.743s.564.359.564.359a.621.621,0,0,1-.11.466,4.307,4.307,0,0,1-2.243.939,1.666,1.666,0,0,1-1.421-.527A2.03,2.03,0,0,1,2058.019,3105.091Z" transform="translate(-2055.291 -3078.279)" fill="url(#linear-gradient-41)"/>
          <path id="Trazado_103798" data-name="Trazado 103798" d="M2048.847,3142.063a4.306,4.306,0,0,0,2.242-.938,1.934,1.934,0,0,1-.732.637,4.905,4.905,0,0,1-2.989.357c-.263-.1-.182-.348.059-.583A1.664,1.664,0,0,0,2048.847,3142.063Z" transform="translate(-2045.618 -3114.23)" fill="url(#linear-gradient-42)"/>
          <path id="Trazado_103799" data-name="Trazado 103799" d="M2188.444,3069.545a3.7,3.7,0,0,1-.608.729.412.412,0,0,1-.384.116,1.07,1.07,0,0,1-.275-.1.268.268,0,0,1-.1-.365l.531-.966Z" transform="translate(-2182.317 -3043.687)" fill="url(#linear-gradient-43)"/>
          <path id="Trazado_103800" data-name="Trazado 103800" d="M2205.642,2618.126s.4,2.824-.753,3.4-3.677.955-4.546,2.42-2.432,4.341-3.854,5.167a2.33,2.33,0,0,1-1.049-.663,54.2,54.2,0,0,1,2.391-5.514,7.487,7.487,0,0,1,2.767-2.861c.363-.167.391-.551.327-.945l-.116-.717Z" transform="translate(-2190.529 -2602.96)" fill="url(#linear-gradient-44)"/>
          <path id="Trazado_103801" data-name="Trazado 103801" d="M2159.691,2292.582c1.614.46,2.336-4.082,2.33-4.192l2.475,2.894s-1.474,2.594-3.7,2.871a2.626,2.626,0,0,1-1.444-.212A2.313,2.313,0,0,0,2159.691,2292.582Z" transform="translate(-2155.249 -2280.617)" fill="red"/>
          <path id="Trazado_103802" data-name="Trazado 103802" d="M1977.9,2405.5a1.3,1.3,0,0,1,1.3.288,4.225,4.225,0,0,0,1.689,1.2,2.315,2.315,0,0,1-.341,1.36,3.6,3.6,0,0,1-1.585-1.606.3.3,0,0,0-.4-.135c-.149.072-.3.182-.312.331-.019.295-.369.312-.372.2a4.374,4.374,0,0,1,.271-.691s-.808.519-1.123.717a.463.463,0,0,1-.583-.129S1977.192,2405.788,1977.9,2405.5Z" transform="translate(-1976.442 -2395.021)" fill="url(#linear-gradient-45)"/>
          <path id="Trazado_103803" data-name="Trazado 103803" d="M2284.286,2187.249s-2.169-1.48-7.407,1.2a1.705,1.705,0,0,0-.287,1.455c.253.771,3.363,4.943,3.484,6.9a5.57,5.57,0,0,0,4.886.011A21.166,21.166,0,0,0,2284.286,2187.249Z" transform="translate(-2269.795 -2181.345)" fill="url(#linear-gradient-46)"/>
          <path id="Trazado_103804" data-name="Trazado 103804" d="M2346.763,2120.674l.857,1.679a.478.478,0,0,1-.05.515,1.364,1.364,0,0,1-1.57.437.736.736,0,0,1-.5-.534l-.444-1.875Z" transform="translate(-2336.789 -2116.663)" fill="url(#linear-gradient-47)"/>
          <path id="Trazado_103805" data-name="Trazado 103805" d="M2583.053,2210.9c.147-1.021-2.551-3-2.551-3l.945-2.865s5.148,3.674,4.066,6.674a2.1,2.1,0,0,1-.669.966A3.353,3.353,0,0,0,2583.053,2210.9Z" transform="translate(-2566.956 -2199.134)" fill="url(#linear-gradient-48)"/>
          <path id="Trazado_103806" data-name="Trazado 103806" d="M2426.676,2466.863s3.052.852,3.685-.076a.483.483,0,0,0,.079-.207,3.349,3.349,0,0,1,1.79,1.775c-1.449,1.14-4.243-.138-5-.521a.535.535,0,0,0-.4-.033,3.668,3.668,0,0,1-1,.2c-.381-.021-.791,1.357-1.44,1.008C2424.388,2469.009,2424.683,2466.654,2426.676,2466.863Z" transform="translate(-2414.343 -2454.811)" fill="url(#linear-gradient-49)"/>
          <g id="Grupo_54853" data-name="Grupo 54853" transform="translate(7.064)">
            <path id="Trazado_103807" data-name="Trazado 103807" d="M2293.265,1995.168c-.027.024-1.158,2-1.734,3a.593.593,0,0,0,.281.838l.249.107a1.707,1.707,0,0,0,1.362.035l1.818-1.919S2293.876,1994.639,2293.265,1995.168Z" transform="translate(-2291.453 -1993.901)" fill="url(#linear-gradient-50)"/>
            <path id="Trazado_103808" data-name="Trazado 103808" d="M2349.229,1944.6a.586.586,0,0,0,.282-.827.827.827,0,0,0-.9-.466.226.226,0,0,1-.24-.163.178.178,0,0,0-.158-.128.223.223,0,0,1-.176-.278.674.674,0,0,0-.336-.808,1.076,1.076,0,0,0-1.519.718c-.18.529.6.94,1.091,1.024.376.064.56.5.627.7a.223.223,0,0,1-.027.192l-.552.84c.152.191.287.393.42.6.05-.053.093-.1.127-.129.24-.22.667-.106.843-.046a.222.222,0,0,0,.174-.013.585.585,0,0,0,.261-.9A.226.226,0,0,1,2349.229,1944.6Z" transform="translate(-2344.929 -1941.787)" fill="url(#linear-gradient-51)"/>
            <path id="Trazado_103809" data-name="Trazado 103809" d="M2407.861,2108.273s.353-.908.755-.857.7.465.184.9C2408.155,2108.847,2407.861,2108.273,2407.861,2108.273Z" transform="translate(-2405.251 -2103.7)" fill="url(#linear-gradient-52)"/>
          </g>
        </g>
        <g id="Grupo_54855" data-name="Grupo 54855" transform="translate(0.485 7.521)">
          <path id="Trazado_103810" data-name="Trazado 103810" d="M2027.208,2537.719h-.017l-7.13-.008a.319.319,0,1,1,0-.638l7.13.008a.319.319,0,0,1,.016.638Z" transform="translate(-2013.178 -2531.245)" fill="url(#linear-gradient-53)"/>
          <path id="Trazado_103811" data-name="Trazado 103811" d="M1727.445,2277.188h5.938a1.132,1.132,0,0,1,1.024.649l2.745,5.821h-7.379a.688.688,0,0,1-.64-.435l-2.129-5.386A.474.474,0,0,1,1727.445,2277.188Z" transform="translate(-1726.97 -2277.188)" fill="url(#linear-gradient-54)"/>
          <path id="Trazado_103812" data-name="Trazado 103812" d="M1893.359,2384.351c.129.4.034.788-.212.867s-.55-.181-.678-.581-.034-.788.212-.867S1893.23,2383.95,1893.359,2384.351Z" transform="translate(-1888.701 -2381.366)" fill="#91c6fa"/>
        </g>
        <g id="Grupo_54857" data-name="Grupo 54857" transform="translate(0 13.927)">
          <g id="Grupo_54856" data-name="Grupo 54856" transform="translate(1.623 0.638)">
            <path id="Trazado_103813" data-name="Trazado 103813" d="M1778.007,2606.008a.31.31,0,0,1-.118-.023.287.287,0,0,1-.157-.381l6.284-14.142a.3.3,0,0,1,.394-.151.286.286,0,0,1,.157.381l-6.284,14.142A.3.3,0,0,1,1778.007,2606.008Z" transform="translate(-1777.707 -2591.286)" fill="#91c6fa"/>
            <path id="Trazado_103814" data-name="Trazado 103814" d="M1819.737,2606.006a.3.3,0,0,1-.275-.176l-6.284-14.142a.286.286,0,0,1,.157-.381.3.3,0,0,1,.394.152l6.284,14.142a.287.287,0,0,1-.157.381A.312.312,0,0,1,1819.737,2606.006Z" transform="translate(-1812.359 -2591.284)" fill="#91c6fa"/>
            <path id="Trazado_103815" data-name="Trazado 103815" d="M2645.39,2606.008a.312.312,0,0,1-.118-.023.287.287,0,0,1-.157-.381l6.284-14.142a.3.3,0,0,1,.394-.151.286.286,0,0,1,.157.381l-6.284,14.142A.3.3,0,0,1,2645.39,2606.008Z" transform="translate(-2625.64 -2591.286)" fill="#91c6fa"/>
            <path id="Trazado_103816" data-name="Trazado 103816" d="M2687.118,2606.006a.3.3,0,0,1-.276-.176l-6.283-14.142a.286.286,0,0,1,.157-.381.3.3,0,0,1,.394.152l6.284,14.142a.287.287,0,0,1-.157.381A.311.311,0,0,1,2687.118,2606.006Z" transform="translate(-2660.289 -2591.284)" fill="#91c6fa"/>
          </g>
          <path id="Trazado_103817" data-name="Trazado 103817" d="M1734.519,2563.221a.346.346,0,0,0-.059-.262.273.273,0,0,0-.218-.115h-28.586a.319.319,0,0,0-.274.168.4.4,0,0,0-.021.349l.31.75a.434.434,0,0,0,.394.282h27.982a.341.341,0,0,0,.323-.3Z" transform="translate(-1705.33 -2562.844)" fill="#91c6fa"/>
        </g>
      </g>
    </g>
  </g>
</svg>
