<svg xmlns="http://www.w3.org/2000/svg" xmlns:xlink="http://www.w3.org/1999/xlink" width="124.4" height="112.773" viewBox="0 0 124.4 112.773">
  <defs>
    <linearGradient id="linear-gradient" x1="1.1" y1="2.352" x2="-0.276" y2="-1.791" gradientUnits="objectBoundingBox">
      <stop offset="0" stop-color="#ff7769"/>
      <stop offset="1" stop-color="#3886f7"/>
    </linearGradient>
    <linearGradient id="linear-gradient-2" x1="1.248" y1="-0.228" x2="-0.618" y2="1.427" gradientUnits="objectBoundingBox">
      <stop offset="0" stop-color="#00125d"/>
      <stop offset="1" stop-color="#0f2a91"/>
    </linearGradient>
    <linearGradient id="linear-gradient-3" x1="-0.446" y1="1.437" x2="1.056" y2="0.059" gradientUnits="objectBoundingBox">
      <stop offset="0" stop-color="#fed3ba"/>
      <stop offset="1" stop-color="#ffb088"/>
    </linearGradient>
    <linearGradient id="linear-gradient-4" x1="1.503" y1="22.592" x2="0.58" y2="21.847" xlink:href="#linear-gradient-3"/>
    <linearGradient id="linear-gradient-5" x1="4.929" y1="92.653" x2="1.386" y2="89.571" xlink:href="#linear-gradient-3"/>
    <linearGradient id="linear-gradient-6" x1="0" y1="0.5" x2="1" y2="0.5" xlink:href="#linear-gradient-2"/>
    <linearGradient id="linear-gradient-7" x1="-0.92" y1="-0.87" x2="0.489" y2="0.402" xlink:href="#linear-gradient-2"/>
    <linearGradient id="linear-gradient-8" x1="1.419" y1="1.181" x2="0.159" y2="0.404" gradientUnits="objectBoundingBox">
      <stop offset="0" stop-color="#4f8fff"/>
      <stop offset="1" stop-color="#4079e2"/>
    </linearGradient>
    <linearGradient id="linear-gradient-9" x1="0.492" y1="1.436" x2="0.47" y2="3.771" xlink:href="#linear-gradient-8"/>
    <linearGradient id="linear-gradient-10" x1="137.971" y1="-67.091" x2="136.971" y2="-65.175" gradientUnits="objectBoundingBox">
      <stop offset="0" stop-color="#ff1b1b"/>
      <stop offset="1" stop-color="#fe1b1f"/>
    </linearGradient>
    <linearGradient id="linear-gradient-11" x1="162.989" y1="-69.953" x2="161.949" y2="-68.11" xlink:href="#linear-gradient-10"/>
    <linearGradient id="linear-gradient-12" x1="163.646" y1="-71.293" x2="162.606" y2="-69.45" xlink:href="#linear-gradient-10"/>
    <linearGradient id="linear-gradient-13" x1="-2.785" y1="7.913" x2="-0.458" y2="2.6" xlink:href="#linear-gradient-8"/>
    <linearGradient id="linear-gradient-14" x1="116.172" y1="-50.856" x2="115.141" y2="-49.01" xlink:href="#linear-gradient-10"/>
    <linearGradient id="linear-gradient-15" x1="0.887" y1="-0.22" x2="0.216" y2="0.792" xlink:href="#linear-gradient-10"/>
    <linearGradient id="linear-gradient-16" x1="85.822" y1="-207.317" x2="93.509" y2="-210.48" gradientUnits="objectBoundingBox">
      <stop offset="0" stop-color="#fed3ba"/>
      <stop offset="1" stop-color="#ff1b1b"/>
    </linearGradient>
    <linearGradient id="linear-gradient-17" x1="32.185" y1="-100.229" x2="35.049" y2="-101.762" xlink:href="#linear-gradient-3"/>
    <linearGradient id="linear-gradient-18" x1="610.761" y1="195.773" x2="610.232" y2="193.246" xlink:href="#linear-gradient-3"/>
  </defs>
  <g id="Grupo_55256" data-name="Grupo 55256" transform="translate(1256.036 -280.721)">
    <path id="Trazado_104806" data-name="Trazado 104806" d="M-1162.418,309.178s5.277,12.521,18.524,13.926l-.351,2.308s-17.3,3-26.447-12.194Z" transform="translate(-11.818 -3.941)" fill="url(#linear-gradient)"/>
    <g id="Grupo_55257" data-name="Grupo 55257" transform="translate(-1212.341 280.72)">
      <path id="Trazado_104807" data-name="Trazado 104807" d="M-1195.615,338.953s-5.514-22,6.312-40.563a1.4,1.4,0,0,1,1.248-.651c2.787.136,12.355,1.31,23.116,10.681,0,0-11.31,9.586-12.67,31A134.871,134.871,0,0,1-1195.615,338.953Z" transform="translate(1204.152 -283.077)" fill="url(#linear-gradient-2)"/>
      <path id="Trazado_104808" data-name="Trazado 104808" d="M-1170.409,293.113l-5.6,6.187a1.463,1.463,0,0,0,.021,2.008,5.748,5.748,0,0,0,4.75,2.031,2.241,2.241,0,0,0,1.675-1.065l3.391-5.716Z" transform="translate(1201.312 -282.436)" fill="url(#linear-gradient-3)"/>
      <g id="Grupo_55256-2" data-name="Grupo 55256" transform="translate(28.919)">
        <path id="Trazado_104809" data-name="Trazado 104809" d="M-1160.073,287.986s-.569,10.4-5.133,10.949-4.812-9.665-4.812-9.665S-1165.635,280.109-1160.073,287.986Z" transform="translate(1171.51 -281.284)" fill="url(#linear-gradient-4)"/>
        <path id="Trazado_104810" data-name="Trazado 104810" d="M-1168.133,293.285s.16-3.216-1.674-2.592c-2.363.8.608,3.346.608,3.346Z" transform="translate(1171.607 -282.09)" fill="url(#linear-gradient-5)"/>
        <path id="Trazado_104811" data-name="Trazado 104811" d="M-1168.684,289.745s-.709,2.136,0,1.652,1.277-5.736,4.444-4.128,9.082,2.581,7.783-3.524-4.971-.84-10.191-2.256-4.53,3.539-3.99,4.424c-1.538.751-1.424,2.65,0,3.824C-1170.219,289.433-1169.393,288.666-1168.684,289.745Z" transform="translate(1171.75 -280.72)" fill="url(#linear-gradient-6)"/>
        <path id="Trazado_104812" data-name="Trazado 104812" d="M-1157.02,288.445a.067.067,0,0,1-.065-.054.067.067,0,0,1,.053-.078,2.764,2.764,0,0,0,1.686-1.2,4.118,4.118,0,0,0,.153-3.363.067.067,0,0,1,.046-.083.066.066,0,0,1,.082.046,4.239,4.239,0,0,1-.169,3.472,2.853,2.853,0,0,1-1.774,1.257Z" transform="translate(1169.719 -281.128)" fill="#91ebfa"/>
      </g>
      <path id="Trazado_104813" data-name="Trazado 104813" d="M-1190.9,298.14s-18.219,17.763-13.7,22.969,19.576,11.589,19.576,11.589l-.479-3.492s-12.875-9.762-11.22-11.3c.862-.8,3.567-3.415,5.957-5.73a11.234,11.234,0,0,0,2.849-11.755C-1188.553,298.6-1189.5,297.376-1190.9,298.14Z" transform="translate(1205.318 -283.1)" fill="url(#linear-gradient-7)"/>
    </g>
    <g id="Grupo_55264" data-name="Grupo 55264" transform="translate(-1256.036 335.315)">
      <g id="Grupo_55258" data-name="Grupo 55258">
        <path id="Trazado_104814" data-name="Trazado 104814" d="M-1137.382,400.493c-36.615-19.94-75.007-18.517-115.035,1.51a2.5,2.5,0,0,1-3.619-2.243V368.2a7.122,7.122,0,0,1,3.452-6.1c39.932-24,79.351-24.09,116.966.19a7.906,7.906,0,0,1,3.608,6.54l.373,28.2A3.886,3.886,0,0,1-1137.382,400.493Z" transform="translate(1256.036 -344.091)" fill="url(#linear-gradient-8)"/>
        <path id="Trazado_104815" data-name="Trazado 104815" d="M-1137.689,400c-35.967-19.137-73.68-17.771-113,1.449a2.458,2.458,0,0,1-3.556-2.152V369.014a6.8,6.8,0,0,1,3.391-5.857c39.225-23.032,77.948-23.12,114.9.182a7.551,7.551,0,0,1,3.544,6.277l.366,27.063A3.816,3.816,0,0,1-1137.689,400Z" transform="translate(1255.788 -344.338)" fill="url(#linear-gradient-9)"/>
      </g>
      <g id="Grupo_55263" data-name="Grupo 55263" transform="translate(2.67 8.192)">
        <g id="Grupo_55259" data-name="Grupo 55259" transform="translate(48.454)">
          <path id="Trazado_104816" data-name="Trazado 104816" d="M-1173.859,363.155l-4.029,4.085a1.356,1.356,0,0,0-.365,1.208l1.082,5.634a1.356,1.356,0,0,1-1.938,1.468l-5.13-2.568a1.355,1.355,0,0,0-1.261.025l-5.024,2.771a1.356,1.356,0,0,1-2-1.39l.857-5.673a1.356,1.356,0,0,0-.413-1.191l-4.188-3.923a1.356,1.356,0,0,1,.7-2.327l5.66-.938a1.355,1.355,0,0,0,1.006-.762l2.436-5.195a1.355,1.355,0,0,1,2.43-.048l2.641,5.093a1.356,1.356,0,0,0,1.035.721l5.693.712A1.357,1.357,0,0,1-1173.859,363.155Z" transform="translate(1196.694 -353.6)" fill="url(#linear-gradient-10)"/>
          <path id="Trazado_104817" data-name="Trazado 104817" d="M-1184.9,372.9a2.655,2.655,0,0,0-.842.294l-3.281,1.809a1.019,1.019,0,0,1-1.083-.057,1.021,1.021,0,0,1-.428-1l.559-3.705a2.666,2.666,0,0,0-.813-2.344l-2.735-2.561a1.024,1.024,0,0,1-.281-1.048,1.023,1.023,0,0,1,.815-.716l1.889-.313.047.288-1.888.313a.724.724,0,0,0-.584.513.723.723,0,0,0,.2.75l2.735,2.561a2.958,2.958,0,0,1,.9,2.6l-.56,3.705a.723.723,0,0,0,.308.713.722.722,0,0,0,.775.04l3.281-1.809a2.952,2.952,0,0,1,.933-.327Z" transform="translate(1196.3 -354.938)" fill="#fff" opacity="0.62"/>
          <path id="Trazado_104818" data-name="Trazado 104818" d="M-1177.536,373.351a1.022,1.022,0,0,1-.339.446,1.018,1.018,0,0,1-1.08.1l-2.564-1.283.131-.261,2.563,1.284a.721.721,0,0,0,.774-.071.722.722,0,0,0,.278-.725l-.707-3.68a2.986,2.986,0,0,1,.8-2.635l2.63-2.669a.724.724,0,0,0,.171-.757.723.723,0,0,0-.6-.489l-3.718-.464a2.954,2.954,0,0,1-2.258-1.574l-1.726-3.326a.723.723,0,0,0-.668-.4.722.722,0,0,0-.651.424l-1.591,3.393a2.938,2.938,0,0,1-.679.924l-.2-.215a2.65,2.65,0,0,0,.612-.833l1.59-3.393a1.021,1.021,0,0,1,.91-.591,1.021,1.021,0,0,1,.932.555l1.725,3.326a2.666,2.666,0,0,0,2.037,1.418l3.718.465a1.019,1.019,0,0,1,.843.682,1.021,1.021,0,0,1-.239,1.058l-2.63,2.668a2.69,2.69,0,0,0-.719,2.375l.706,3.68A1.032,1.032,0,0,1-1177.536,373.351Z" transform="translate(1195.348 -354.009)" fill="#fff" opacity="0.62"/>
          <rect id="Rectángulo_5580" data-name="Rectángulo 5580" width="1.134" height="0.291" transform="translate(5.202 8.33) rotate(-9.403)" fill="#fff" opacity="0.62"/>
        </g>
        <g id="Grupo_55260" data-name="Grupo 55260" transform="translate(24.416 4.404)">
          <path id="Trazado_104819" data-name="Trazado 104819" d="M-1202.449,364.8l-2.741,5.04a1.357,1.357,0,0,0-.018,1.262l2.6,5.116a1.355,1.355,0,0,1-1.457,1.946l-5.64-1.049a1.356,1.356,0,0,0-1.205.372l-4.063,4.052a1.355,1.355,0,0,1-2.3-.784l-.744-5.689a1.355,1.355,0,0,0-.728-1.031l-5.108-2.612a1.356,1.356,0,0,1,.035-2.431l5.18-2.466a1.358,1.358,0,0,0,.756-1.011l.9-5.665a1.356,1.356,0,0,1,2.324-.719l3.946,4.165a1.355,1.355,0,0,0,1.195.407l5.668-.889A1.355,1.355,0,0,1-1202.449,364.8Z" transform="translate(1224.596 -358.711)" fill="url(#linear-gradient-11)"/>
          <path id="Trazado_104820" data-name="Trazado 104820" d="M-1210.7,377.622a2.665,2.665,0,0,0-.728.515l-2.653,2.646a1.02,1.02,0,0,1-1.057.245,1.019,1.019,0,0,1-.687-.838l-.487-3.716a2.666,2.666,0,0,0-1.43-2.028l-3.337-1.706a1.022,1.022,0,0,1-.559-.929,1.021,1.021,0,0,1,.586-.913l1.728-.823.126.263-1.729.823a.727.727,0,0,0-.42.654.724.724,0,0,0,.4.666l3.337,1.706a2.957,2.957,0,0,1,1.587,2.249l.486,3.716a.722.722,0,0,0,.492.6.722.722,0,0,0,.757-.175l2.653-2.646a2.968,2.968,0,0,1,.807-.572Z" transform="translate(1224.187 -360.285)" fill="#fff" opacity="0.62"/>
          <path id="Trazado_104821" data-name="Trazado 104821" d="M-1203.344,375.992a1.023,1.023,0,0,1-.2.523,1.022,1.022,0,0,1-1.01.395l-2.819-.525.053-.287,2.819.525a.721.721,0,0,0,.723-.283.72.72,0,0,0,.067-.774l-1.7-3.341a2.987,2.987,0,0,1,.039-2.753l1.79-3.292a.723.723,0,0,0-.045-.775.722.722,0,0,0-.715-.3l-3.7.582a2.954,2.954,0,0,1-2.605-.888l-2.579-2.72a.722.722,0,0,0-.751-.2.723.723,0,0,0-.509.587l-.591,3.7a2.94,2.94,0,0,1-.4,1.075l-.248-.152a2.642,2.642,0,0,0,.358-.969l.591-3.7a1.023,1.023,0,0,1,.711-.819,1.022,1.022,0,0,1,1.049.275l2.578,2.721a2.666,2.666,0,0,0,2.348.8l3.7-.582a1.021,1.021,0,0,1,1,.423,1.023,1.023,0,0,1,.063,1.083l-1.791,3.291a2.69,2.69,0,0,0-.034,2.482l1.7,3.341A1.023,1.023,0,0,1-1203.344,375.992Z" transform="translate(1223.367 -359.105)" fill="#fff" opacity="0.62"/>
          <rect id="Rectángulo_5581" data-name="Rectángulo 5581" width="1.134" height="0.291" transform="translate(4.862 9.79) rotate(-25.449)" fill="#fff" opacity="0.62"/>
        </g>
        <g id="Grupo_55261" data-name="Grupo 55261" transform="translate(0 11.891)">
          <path id="Trazado_104822" data-name="Trazado 104822" d="M-1230.789,373.5l-2.742,5.04a1.356,1.356,0,0,0-.017,1.262l2.6,5.116a1.356,1.356,0,0,1-1.457,1.946l-5.64-1.05a1.361,1.361,0,0,0-1.206.373l-4.062,4.052a1.356,1.356,0,0,1-2.3-.784l-.744-5.689a1.354,1.354,0,0,0-.727-1.03l-5.109-2.612a1.356,1.356,0,0,1,.034-2.431l5.181-2.467a1.356,1.356,0,0,0,.755-1.01l.906-5.665a1.356,1.356,0,0,1,2.323-.719l3.947,4.165a1.355,1.355,0,0,0,1.194.407l5.668-.889A1.355,1.355,0,0,1-1230.789,373.5Z" transform="translate(1252.937 -367.402)" fill="url(#linear-gradient-12)"/>
          <path id="Trazado_104823" data-name="Trazado 104823" d="M-1239.042,386.313a2.668,2.668,0,0,0-.728.515l-2.654,2.646a1.019,1.019,0,0,1-1.056.245,1.021,1.021,0,0,1-.687-.838l-.486-3.716a2.667,2.667,0,0,0-1.43-2.028l-3.337-1.706a1.02,1.02,0,0,1-.559-.93,1.021,1.021,0,0,1,.585-.912l1.729-.823.125.263-1.728.823a.724.724,0,0,0-.419.654.722.722,0,0,0,.4.666l3.337,1.7a2.959,2.959,0,0,1,1.586,2.25l.487,3.716a.72.72,0,0,0,.492.6.722.722,0,0,0,.756-.175l2.653-2.646a2.973,2.973,0,0,1,.807-.572Z" transform="translate(1252.527 -368.976)" fill="#fff" opacity="0.62"/>
          <path id="Trazado_104824" data-name="Trazado 104824" d="M-1231.683,384.683a1.032,1.032,0,0,1-.2.523,1.02,1.02,0,0,1-1.01.394l-2.818-.524.053-.287,2.818.525a.722.722,0,0,0,.724-.283.721.721,0,0,0,.066-.774l-1.7-3.341a2.984,2.984,0,0,1,.039-2.753l1.79-3.292a.722.722,0,0,0-.045-.775.723.723,0,0,0-.716-.3l-3.7.582a2.958,2.958,0,0,1-2.605-.888l-2.578-2.72a.723.723,0,0,0-.751-.2.722.722,0,0,0-.509.587l-.591,3.7a2.939,2.939,0,0,1-.4,1.075l-.248-.152a2.657,2.657,0,0,0,.358-.969l.591-3.7a1.021,1.021,0,0,1,.711-.819,1.02,1.02,0,0,1,1.048.275l2.578,2.721a2.668,2.668,0,0,0,2.349.8l3.7-.582a1.02,1.02,0,0,1,1,.423,1.022,1.022,0,0,1,.063,1.083l-1.79,3.291a2.693,2.693,0,0,0-.035,2.482l1.7,3.341A1.025,1.025,0,0,1-1231.683,384.683Z" transform="translate(1251.708 -367.796)" fill="#fff" opacity="0.62"/>
          <rect id="Rectángulo_5582" data-name="Rectángulo 5582" width="1.134" height="0.291" transform="translate(4.862 9.79) rotate(-25.449)" fill="#fff" opacity="0.62"/>
        </g>
        <path id="Trazado_104825" data-name="Trazado 104825" d="M-1118.14,381.77l-5.354,2.062a1.355,1.355,0,0,0-.831.949l-1.337,5.58a1.357,1.357,0,0,1-2.372.538l-3.615-4.456a1.356,1.356,0,0,0-1.16-.5l-5.72.452a1.356,1.356,0,0,1-1.245-2.089l3.12-4.814a1.357,1.357,0,0,0,.115-1.257l-2.2-5.3a1.356,1.356,0,0,1,1.6-1.829l5.544,1.479a1.353,1.353,0,0,0,1.23-.279l4.362-3.728a1.356,1.356,0,0,1,2.235.958l.306,5.73a1.356,1.356,0,0,0,.645,1.084l4.894,3A1.356,1.356,0,0,1-1118.14,381.77Z" transform="translate(1237.297 -355.629)" fill="url(#linear-gradient-13)"/>
        <g id="Grupo_55262" data-name="Grupo 55262" transform="translate(73.92 3.524)">
          <path id="Trazado_104826" data-name="Trazado 104826" d="M-1145.3,370.094l-5.008,2.8a1.353,1.353,0,0,0-.688,1.057l-.534,5.713a1.355,1.355,0,0,1-2.27.868l-4.21-3.9a1.357,1.357,0,0,0-1.218-.328l-5.6,1.259a1.356,1.356,0,0,1-1.527-1.892l2.406-5.208a1.357,1.357,0,0,0-.065-1.26l-2.926-4.936a1.356,1.356,0,0,1,1.327-2.038l5.7.68a1.357,1.357,0,0,0,1.179-.451l3.789-4.308a1.356,1.356,0,0,1,2.348.632l1.115,5.628a1.355,1.355,0,0,0,.793.981l5.268,2.273A1.356,1.356,0,0,1-1145.3,370.094Z" transform="translate(1167.135 -357.69)" fill="url(#linear-gradient-14)"/>
          <path id="Trazado_104827" data-name="Trazado 104827" d="M-1158.278,375.955a2.671,2.671,0,0,0-.891.047l-3.655.821a1.019,1.019,0,0,1-1.024-.357,1.022,1.022,0,0,1-.134-1.076l1.572-3.4a2.666,2.666,0,0,0-.128-2.479l-1.911-3.224a1.022,1.022,0,0,1,.022-1.084,1.023,1.023,0,0,1,.983-.459l1.9.227-.035.289-1.9-.227a.723.723,0,0,0-.7.329.719.719,0,0,0-.016.776l1.911,3.223a2.958,2.958,0,0,1,.141,2.75l-1.572,3.4a.723.723,0,0,0,.1.771.723.723,0,0,0,.734.255l3.655-.821a2.95,2.95,0,0,1,.987-.053Z" transform="translate(1166.783 -358.665)" fill="#fff" opacity="0.62"/>
          <path id="Trazado_104828" data-name="Trazado 104828" d="M-1151.485,378.486a1.026,1.026,0,0,1-.45.334,1.023,1.023,0,0,1-1.065-.206l-2.1-1.948.2-.214,2.1,1.948a.721.721,0,0,0,.762.147.72.72,0,0,0,.469-.619l.349-3.731a2.99,2.99,0,0,1,1.5-2.307l3.27-1.827a.726.726,0,0,0,.376-.681.722.722,0,0,0-.444-.638l-3.441-1.484a2.956,2.956,0,0,1-1.729-2.142l-.729-3.675a.719.719,0,0,0-.53-.568.721.721,0,0,0-.743.224l-2.475,2.815a2.939,2.939,0,0,1-.91.7l-.128-.261a2.668,2.668,0,0,0,.819-.629l2.475-2.814a1.02,1.02,0,0,1,1.038-.314,1.021,1.021,0,0,1,.74.793l.728,3.676a2.666,2.666,0,0,0,1.559,1.93l3.441,1.484a1.02,1.02,0,0,1,.619.891,1.023,1.023,0,0,1-.525.949l-3.27,1.827a2.691,2.691,0,0,0-1.354,2.081l-.349,3.73A1.025,1.025,0,0,1-1151.485,378.486Z" transform="translate(1165.76 -358.087)" fill="#fff" opacity="0.62"/>
          <rect id="Rectángulo_5583" data-name="Rectángulo 5583" width="0.291" height="1.134" transform="translate(5.207 6.594) rotate(-83.193)" fill="#fff" opacity="0.62"/>
        </g>
      </g>
    </g>
    <g id="Grupo_55267" data-name="Grupo 55267" transform="translate(-1194.91 301.614)">
      <g id="Grupo_55265" data-name="Grupo 55265">
        <path id="Trazado_104829" data-name="Trazado 104829" d="M-1144.03,329.514l-9.839,4.846a2.592,2.592,0,0,0-1.419,1.951l-1.585,10.853a2.592,2.592,0,0,1-4.422,1.433l-7.649-7.861a2.592,2.592,0,0,0-2.293-.747l-10.812,1.845a2.592,2.592,0,0,1-2.729-3.762l5.111-9.7a2.588,2.588,0,0,0,0-2.412l-5.1-9.712a2.591,2.591,0,0,1,2.734-3.758l10.81,1.862a2.589,2.589,0,0,0,2.294-.744l7.662-7.848a2.591,2.591,0,0,1,4.419,1.44l1.569,10.855a2.594,2.594,0,0,0,1.416,1.952l9.833,4.862A2.592,2.592,0,0,1-1144.03,329.514Z" transform="translate(1185.084 -304.973)" fill="url(#linear-gradient-15)"/>
        <path id="Trazado_104830" data-name="Trazado 104830" d="M-1169.3,339.222a5.079,5.079,0,0,0-1.7,0l-7.061,1.205a1.95,1.95,0,0,1-1.92-.783,1.952,1.952,0,0,1-.148-2.067l3.338-6.338a5.1,5.1,0,0,0,0-4.744l-3.329-6.343a1.952,1.952,0,0,1,.151-2.068,1.954,1.954,0,0,1,1.921-.78l3.607.622-.095.549-3.607-.622a1.387,1.387,0,0,0-1.376.559,1.38,1.38,0,0,0-.109,1.481l3.329,6.343a5.654,5.654,0,0,1,0,5.263l-3.338,6.338a1.38,1.38,0,0,0,.106,1.481,1.378,1.378,0,0,0,1.374.56l7.061-1.2a5.619,5.619,0,0,1,1.891,0Z" transform="translate(1184.431 -306.677)" fill="#fff" opacity="0.62"/>
        <path id="Trazado_104831" data-name="Trazado 104831" d="M-1156.625,344.777a1.958,1.958,0,0,1-.891.593,1.95,1.95,0,0,1-2.013-.5l-3.823-3.927.4-.389,3.822,3.927a1.38,1.38,0,0,0,1.441.357,1.378,1.378,0,0,0,.958-1.135l1.036-7.087a5.709,5.709,0,0,1,3.1-4.256l6.425-3.165a1.384,1.384,0,0,0,.786-1.26,1.382,1.382,0,0,0-.783-1.262l-6.422-3.176a5.65,5.65,0,0,1-3.089-4.259l-1.025-7.089a1.379,1.379,0,0,0-.956-1.136,1.377,1.377,0,0,0-1.441.355l-5,5.126a5.62,5.62,0,0,1-1.806,1.241l-.22-.511a5.065,5.065,0,0,0,1.627-1.119l5-5.126a1.95,1.95,0,0,1,2.013-.5,1.95,1.95,0,0,1,1.334,1.586l1.025,7.089a5.1,5.1,0,0,0,2.785,3.841l6.422,3.176a1.952,1.952,0,0,1,1.093,1.761,1.953,1.953,0,0,1-1.1,1.76l-6.426,3.165a5.144,5.144,0,0,0-2.791,3.836l-1.036,7.088A1.964,1.964,0,0,1-1156.625,344.777Z" transform="translate(1182.46 -305.722)" fill="#fff" opacity="0.62"/>
        <rect id="Rectángulo_5584" data-name="Rectángulo 5584" width="0.557" height="2.169" transform="translate(9.893 11.799) rotate(-80.217)" fill="#fff" opacity="0.62"/>
      </g>
      <g id="Grupo_55266" data-name="Grupo 55266" transform="translate(0.74 22.205)">
        <path id="Trazado_104832" data-name="Trazado 104832" d="M-1183.666,333.559a6.7,6.7,0,0,0-.464-2.2c-.389-.7.515-.855.961-.2a9.133,9.133,0,0,1,.764,2.461S-1183.182,334.082-1183.666,333.559Z" transform="translate(1184.225 -330.748)" fill="url(#linear-gradient-16)"/>
        <path id="Trazado_104833" data-name="Trazado 104833" d="M-1180.609,337.551a.892.892,0,0,1-.761.422.891.891,0,0,1-.757-.427,12.865,12.865,0,0,1-1.44-2.912c-.218-1.074-.365-2.511,1.061-2.784a16.731,16.731,0,0,1,3.282-.183s.469,1.32-.7,1.327l.888.382s.35,1.068-.722.874l.935.611s0,1-.848.719C-1180.283,335.376-1180.062,336.666-1180.609,337.551Z" transform="translate(1184.153 -330.873)" fill="url(#linear-gradient-17)"/>
      </g>
      <path id="Trazado_104834" data-name="Trazado 104834" d="M-1140.865,324.019c-2.81-1.368-3.884-1.343-5.067-.309l1.994,1.56a1.3,1.3,0,0,1,.277,1.7c-.3.631.248,1.523,1.164,1.817a1.593,1.593,0,0,0,1.911-.787l.527-1.033C-1140.221,326.207-1140.032,324.629-1140.865,324.019Z" transform="translate(1179.662 -307.464)" fill="url(#linear-gradient-18)"/>
    </g>
  </g>
</svg>
