<svg xmlns="http://www.w3.org/2000/svg" width="53.49" height="61.475" viewBox="0 0 53.49 61.475">
  <g id="branding" transform="translate(0.572 0.5)">
    <g id="Grupo_13500" data-name="Grupo 13500" transform="translate(20.165 28.221)">
      <g id="Grupo_13499" data-name="Grupo 13499">
        <path id="Trazado_15100" data-name="Trazado 15100" d="M203.94,228.457a1.007,1.007,0,0,0-.776-.426l-3.143-.148-.981-3.174a1.008,1.008,0,0,0-1.925,0l-.981,3.174-3.143.148a1.008,1.008,0,0,0-.534,1.83h0l2.516,1.776L194,234.788a1.008,1.008,0,0,0,1.575,1.1l2.5-1.912,2.5,1.912a1.008,1.008,0,0,0,1.575-1.1l-.972-3.151,2.516-1.776A1.008,1.008,0,0,0,203.94,228.457Zm-4.519,1.955a1.006,1.006,0,0,0-.382,1.121l.258.838-.608-.465a1.008,1.008,0,0,0-1.224,0l-.608.465.258-.838a1.006,1.006,0,0,0-.382-1.121l-.716-.505.917-.043a1.008,1.008,0,0,0,.915-.709l.227-.735.227.735a1.008,1.008,0,0,0,.915.709l.917.043Z" transform="translate(-192.03 -223.998)" fill="#97181a" stroke="#97181a" stroke-width="1"/>
      </g>
    </g>
    <g id="Grupo_13502" data-name="Grupo 13502" transform="translate(0 0)">
      <g id="Grupo_13501" data-name="Grupo 13501" transform="translate(0 0)">
        <path id="Trazado_15101" data-name="Trazado 15101" d="M66.627,9.467l3.464-4.849a1.008,1.008,0,0,0-.963-1.583l-6.556.937L58.9.3a1.007,1.007,0,0,0-1.425,0h0L53.8,3.971,47.24,3.034a1.007,1.007,0,0,0-.963,1.583l3.464,4.849a26.206,26.206,0,1,0,16.885,0Zm10.42,9.684a24.066,24.066,0,0,1,5.236,13.1H78.342V25.2a1.008,1.008,0,0,0-1.007-1.008H67.513a50.265,50.265,0,0,0-1.025-5.04ZM40.042,42.332V26.206H76.326V42.332Zm25.433,2.016a46.714,46.714,0,0,1-1.078,5.04H51.971a46.715,46.715,0,0,1-1.078-5.04ZM64.4,19.15a46.714,46.714,0,0,1,1.078,5.04H50.894a46.715,46.715,0,0,1,1.078-5.04ZM52.6,17.135c1.5-4.364,3.525-7.055,5.583-7.055s4.078,2.691,5.583,7.055Zm22.64,0H65.9a19.921,19.921,0,0,0-3.355-6.654A24.153,24.153,0,0,1,75.241,17.135ZM49.286,5.363l4.724.675a.994.994,0,0,0,.855-.285l3.319-3.319L61.5,5.752a1,1,0,0,0,.855.285l4.724-.675-2.5,3.495a26.2,26.2,0,0,0-12.8,0Zm4.536,5.118a19.923,19.923,0,0,0-3.355,6.654h-9.34A24.154,24.154,0,0,1,53.822,10.481Zm-14.5,8.67H49.881a50.264,50.264,0,0,0-1.025,5.04H39.034A1.008,1.008,0,0,0,38.026,25.2h0v7.055H34.085A24.065,24.065,0,0,1,39.321,19.15Zm0,30.237a24.068,24.068,0,0,1-5.327-15.119h4.032V43.34a1.008,1.008,0,0,0,1.007,1.008h9.822a50.236,50.236,0,0,0,1.025,5.04ZM41.127,51.4h9.34a19.922,19.922,0,0,0,3.355,6.654A24.154,24.154,0,0,1,41.127,51.4Zm17.057,7.055c-2.058,0-4.078-2.691-5.583-7.055H63.767C62.263,55.768,60.242,58.459,58.184,58.459Zm4.362-.4A19.923,19.923,0,0,0,65.9,51.4h9.34A24.154,24.154,0,0,1,62.546,58.057Zm3.942-8.669a50.27,50.27,0,0,0,1.025-5.04h9.821a1.008,1.008,0,0,0,1.008-1.007h0V34.269h4.032a24.068,24.068,0,0,1-5.327,15.119Z" transform="translate(-31.972 0)" fill="#97181a" stroke="#97181a" stroke-width="1"/>
      </g>
    </g>
  </g>
</svg>
