<svg id="Group_111902" data-name="Group 111902" xmlns="http://www.w3.org/2000/svg" width="79.103" height="69.48" viewBox="0 0 79.103 69.48">
  <g id="Group_111817" data-name="Group 111817">
    <g id="Group_111816" data-name="Group 111816">
      <path id="Path_172616" data-name="Path 172616" d="M1350.508,750.128l78.968.187-.135,57.237-.029,12.056-12.027-12.085-66.912-.159Z" transform="translate(-1350.372 -750.128)" fill="#fff4d1"/>
    </g>
  </g>
  <path id="Path_172617" data-name="Path 172617" d="M1378.561,777.153a6.031,6.031,0,1,0,6.037-6.025A6.031,6.031,0,0,0,1378.561,777.153Z" transform="translate(-1345.043 -746.158)" fill="#1c551f"/>
  <path id="Path_172618" data-name="Path 172618" d="M1361.9,777.138a6.031,6.031,0,1,0,6.037-6.026A6.031,6.031,0,0,0,1361.9,777.138Z" transform="translate(-1348.191 -746.162)" fill="#1c551f"/>
  <path id="Path_172619" data-name="Path 172619" d="M1394.838,777.168a6.031,6.031,0,1,0,6.037-6.025A6.03,6.03,0,0,0,1394.838,777.168Z" transform="translate(-1341.965 -746.156)" fill="#1c551f"/>
</svg>
