<svg xmlns="http://www.w3.org/2000/svg" width="89.141" height="189.451" viewBox="0 0 89.141 189.451">
  <g id="Group_111907" data-name="Group 111907" transform="translate(-1321.99 -207.107)">
    <g id="Group_111906" data-name="Group 111906">
      <g id="Group_111613" data-name="Group 111613" transform="translate(1370.16 298.693)">
        <path id="Path_172344" data-name="Path 172344" d="M1602.974,958.483a1.523,1.523,0,0,1,.2-.322h0a1.638,1.638,0,0,1,.2-.2l.3-.3.077.058c1.526-.747,4.675.044,7.861,2.125,3.85,2.514,6.321,5.974,5.609,7.813l.108.081-.428.427c-.02.021-.042.043-.063.063l-.012.012,0,0a1.759,1.759,0,0,1-.371.258h0c-1.505.788-4.688,0-7.908-2.1C1604.618,963.838,1602.125,960.295,1602.974,958.483Z" transform="translate(-1602.808 -956.982)" fill="#ffa412"/>
        <path id="Path_172345" data-name="Path 172345" d="M1612,959.455c-3.923-2.56-7.789-3.168-8.637-1.357s1.643,5.355,5.566,7.915,7.789,3.169,8.637,1.358S1615.918,962.016,1612,959.455Z" transform="translate(-1602.736 -957.055)" fill="#ffb93e"/>
        <g id="Group_111612" data-name="Group 111612" transform="translate(1.363 0.659)">
          <path id="Path_172346" data-name="Path 172346" d="M1609,965.4a15.449,15.449,0,0,1-3.983-3.648c-.949-1.308-1.276-2.453-.923-3.225a1.5,1.5,0,0,1,1.01-.8c1.447-.416,4.011.38,6.533,2.032h0a15.451,15.451,0,0,1,3.983,3.649c.948,1.308,1.276,2.453.921,3.224a1.493,1.493,0,0,1-1.008.8,3.117,3.117,0,0,1-.863.109A11.523,11.523,0,0,1,1609,965.4Zm-3.818-7.4a1.222,1.222,0,0,0-.826.648c-.3.663.021,1.732.894,2.936a15.165,15.165,0,0,0,3.907,3.577,11.378,11.378,0,0,0,5.522,2.093,2.8,2.8,0,0,0,.774-.1,1.218,1.218,0,0,0,.828-.648c.3-.662-.023-1.732-.894-2.935a15.153,15.153,0,0,0-3.907-3.577,11.374,11.374,0,0,0-5.522-2.094A2.819,2.819,0,0,0,1605.181,958Z" transform="translate(-1603.954 -957.609)" fill="#ffa412"/>
        </g>
      </g>
      <g id="Group_111615" data-name="Group 111615" transform="translate(1393.898 207.107)">
        <path id="Path_172347" data-name="Path 172347" d="M1622.889,881.044a1.065,1.065,0,0,1,.145-.228h0a1.114,1.114,0,0,1,.14-.141l.211-.215.056.042c1.082-.53,3.319.032,5.58,1.508,2.732,1.785,4.488,4.243,3.982,5.548l.076.057-.3.3-.045.044-.008.008,0,0a1.206,1.206,0,0,1-.263.183h0c-1.069.56-3.328,0-5.615-1.491C1624.056,884.845,1622.287,882.329,1622.889,881.044Z" transform="translate(-1622.771 -879.978)" fill="#ffa412"/>
        <path id="Path_172348" data-name="Path 172348" d="M1629.295,881.734c-2.785-1.818-5.53-2.25-6.132-.963s1.166,3.8,3.951,5.619,5.53,2.249,6.132.963S1632.079,883.552,1629.295,881.734Z" transform="translate(-1622.719 -880.03)" fill="#ffb93e"/>
        <g id="Group_111614" data-name="Group 111614" transform="translate(0.968 0.468)">
          <path id="Path_172349" data-name="Path 172349" d="M1627.166,885.952a10.968,10.968,0,0,1-2.828-2.591c-.673-.929-.906-1.741-.655-2.289a1.062,1.062,0,0,1,.716-.571c1.029-.3,2.849.27,4.639,1.442h0a10.948,10.948,0,0,1,2.828,2.59c.674.929.906,1.742.655,2.289a1.061,1.061,0,0,1-.716.572,2.226,2.226,0,0,1-.614.077A8.184,8.184,0,0,1,1627.166,885.952Zm-2.71-5.254a.868.868,0,0,0-.587.46c-.215.471.016,1.229.635,2.083a10.754,10.754,0,0,0,2.774,2.54,8.082,8.082,0,0,0,3.92,1.486,1.993,1.993,0,0,0,.549-.069.867.867,0,0,0,.587-.46c.215-.471-.015-1.231-.635-2.084a10.747,10.747,0,0,0-2.774-2.539,8.065,8.065,0,0,0-3.92-1.486A1.994,1.994,0,0,0,1624.457,880.7Z" transform="translate(-1623.585 -880.424)" fill="#ffa412"/>
        </g>
      </g>
      <g id="Group_111617" data-name="Group 111617" transform="translate(1393.178 280.023)">
        <path id="Path_172350" data-name="Path 172350" d="M1632.946,942.4a1.089,1.089,0,0,0-.149-.235h0a1.2,1.2,0,0,0-.144-.146l-.218-.22-.058.042c-1.114-.546-3.415.033-5.743,1.553-2.813,1.837-4.62,4.366-4.1,5.71l-.078.058.313.313a.543.543,0,0,0,.047.045l.008.01h0a1.315,1.315,0,0,0,.271.189h0c1.1.575,3.427,0,5.78-1.534C1631.745,946.309,1633.566,943.72,1632.946,942.4Z" transform="translate(-1622.112 -941.299)" fill="#ffa412"/>
        <path id="Path_172351" data-name="Path 172351" d="M1626.354,943.106c2.866-1.87,5.692-2.315,6.312-.992s-1.2,3.913-4.068,5.785-5.691,2.315-6.312.992S1623.487,944.977,1626.354,943.106Z" transform="translate(-1622.165 -941.352)" fill="#ffb93e"/>
        <g id="Group_111616" data-name="Group 111616" transform="translate(0.661 0.482)">
          <path id="Path_172352" data-name="Path 172352" d="M1624.191,949.012a2.3,2.3,0,0,1-.63-.08,1.091,1.091,0,0,1-.737-.589c-.259-.564-.019-1.4.674-2.355a11.289,11.289,0,0,1,2.91-2.667h0c1.843-1.206,3.717-1.788,4.774-1.484a1.091,1.091,0,0,1,.737.587c.259.564.019,1.4-.674,2.357a11.29,11.29,0,0,1-2.91,2.666A8.426,8.426,0,0,1,1624.191,949.012Zm6.367-7.044a8.317,8.317,0,0,0-4.036,1.529,11.089,11.089,0,0,0-2.855,2.615c-.637.879-.875,1.66-.653,2.144a.89.89,0,0,0,.6.474,2.057,2.057,0,0,0,.566.07,8.319,8.319,0,0,0,4.034-1.529,11.084,11.084,0,0,0,2.855-2.614c.637-.879.875-1.661.654-2.145a.9.9,0,0,0-.605-.473A2.057,2.057,0,0,0,1630.558,941.969Z" transform="translate(-1622.721 -941.758)" fill="#ffa412"/>
        </g>
      </g>
      <g id="Group_111619" data-name="Group 111619" transform="translate(1371.469 229.07)">
        <path id="Path_172353" data-name="Path 172353" d="M1603.982,899.135a.724.724,0,0,1,.09-.143h0a.618.618,0,0,1,.087-.089l.133-.134.034.025c.678-.332,2.079.02,3.494.945,1.712,1.117,2.811,2.655,2.493,3.473l.049.036-.19.189-.029.029,0,.006h0a.733.733,0,0,1-.164.115h0c-.67.351-2.084,0-3.516-.932C1604.713,901.515,1603.6,899.94,1603.982,899.135Z" transform="translate(-1603.908 -898.468)" fill="#ffa412"/>
        <path id="Path_172354" data-name="Path 172354" d="M1607.993,899.567c-1.744-1.138-3.463-1.408-3.84-.6s.73,2.38,2.473,3.518,3.462,1.409,3.839.6S1609.736,900.706,1607.993,899.567Z" transform="translate(-1603.875 -898.5)" fill="#ffb93e"/>
        <g id="Group_111618" data-name="Group 111618" transform="translate(0.607 0.294)">
          <path id="Path_172355" data-name="Path 172355" d="M1606.66,902.208a6.873,6.873,0,0,1-1.771-1.622c-.422-.582-.567-1.09-.41-1.434a.662.662,0,0,1,.448-.357,4.2,4.2,0,0,1,2.9.9h0a6.848,6.848,0,0,1,1.771,1.622c.422.581.567,1.09.41,1.433a.66.66,0,0,1-.448.358,1.367,1.367,0,0,1-.384.049A5.123,5.123,0,0,1,1606.66,902.208Zm-1.7-3.29a.54.54,0,0,0-.367.288c-.136.295.01.771.4,1.306a6.751,6.751,0,0,0,1.737,1.59,5.051,5.051,0,0,0,2.454.93,1.268,1.268,0,0,0,.344-.043.54.54,0,0,0,.368-.288c.135-.295-.01-.771-.4-1.306a6.75,6.75,0,0,0-1.737-1.59,5.053,5.053,0,0,0-2.454-.93A1.275,1.275,0,0,0,1604.964,898.918Z" transform="translate(-1604.418 -898.747)" fill="#ffa412"/>
        </g>
      </g>
      <g id="Group_111693" data-name="Group 111693" transform="translate(1321.99 309.914)">
        <circle id="Ellipse_5894" data-name="Ellipse 5894" cx="31.725" cy="31.725" r="31.725" transform="matrix(0.867, -0.499, 0.499, 0.867, 2.497, 31.655)" fill="#e2810e"/>
        <circle id="Ellipse_5895" data-name="Ellipse 5895" cx="31.725" cy="31.725" r="31.725" transform="translate(0 55.951) rotate(-61.349)" fill="#ffb93e"/>
        <g id="Group_111691" data-name="Group 111691" transform="translate(14.147 14.793)">
          <path id="Path_172488" data-name="Path 172488" d="M1603.1,1036.74a28.9,28.9,0,1,1,20.438-8.466A28.717,28.717,0,0,1,1603.1,1036.74Zm0-56.085a27.181,27.181,0,1,0,27.18,27.181A27.211,27.211,0,0,0,1603.1,980.655Z" transform="translate(-1574.195 -978.931)" fill="#ffa412"/>
        </g>
        <g id="Group_111692" data-name="Group 111692" transform="translate(30.392 22.35)">
          <path id="Path_172489" data-name="Path 172489" d="M1604.5,1015.023a4.757,4.757,0,0,0-.068-1.678,3.464,3.464,0,0,0-.71-1.394,6.567,6.567,0,0,0-1.419-1.253,17.432,17.432,0,0,0-2.2-1.231,45.482,45.482,0,0,1-4.061-2.232,14.387,14.387,0,0,1-3.037-2.472,8.454,8.454,0,0,1-1.793-3.012,9.547,9.547,0,0,1,.771-7.224,8.036,8.036,0,0,1,2.24-2.488,9.991,9.991,0,0,1,3.207-1.528,13.38,13.38,0,0,1,4-.461l.566-4.765,3.835.455-.573,4.831a12,12,0,0,1,3.609,1.534,9.067,9.067,0,0,1,4.039,5.8,12.052,12.052,0,0,1,.158,4.094l-6.926-.823a5.874,5.874,0,0,0-.712-4.137,4.085,4.085,0,0,0-3.018-1.7,5.176,5.176,0,0,0-1.893.081,3.517,3.517,0,0,0-1.381.671,3.28,3.28,0,0,0-.889,1.149,4.82,4.82,0,0,0-.422,1.508,4.414,4.414,0,0,0,.063,1.52,3.27,3.27,0,0,0,.68,1.334,6.644,6.644,0,0,0,1.43,1.253,22.651,22.651,0,0,0,2.287,1.321q2.22,1.143,4.019,2.283a14.561,14.561,0,0,1,3.021,2.491,8.177,8.177,0,0,1,2.1,6.854,8.744,8.744,0,0,1-1.1,3.436,7.947,7.947,0,0,1-2.25,2.465,9.659,9.659,0,0,1-3.225,1.469,14.428,14.428,0,0,1-4.024.426l-.526,4.43-3.811-.452.523-4.409a16.143,16.143,0,0,1-3.743-1.323,10.273,10.273,0,0,1-3.068-2.318,9.166,9.166,0,0,1-1.924-3.446,11.172,11.172,0,0,1-.319-4.687l6.926.822a6.877,6.877,0,0,0,.131,2.69,4.457,4.457,0,0,0,.984,1.833,4.346,4.346,0,0,0,1.585,1.092,7.4,7.4,0,0,0,1.9.484,6.164,6.164,0,0,0,2.01-.055,4.114,4.114,0,0,0,1.522-.633,3.271,3.271,0,0,0,1.006-1.11A3.994,3.994,0,0,0,1604.5,1015.023Z" transform="translate(-1587.857 -985.287)" fill="#ffa412"/>
        </g>
      </g>
    </g>
  </g>
</svg>
