<svg xmlns="http://www.w3.org/2000/svg" width="400" height="420" viewBox="0 0 400 420">
  <g id="Grupo_84690" data-name="Grupo 84690" transform="translate(-180 -2348)">
    <rect id="Rectángulo_31915" data-name="Rectángulo 31915" width="400" height="420" rx="21" transform="translate(180 2348)" fill="#fff1db" opacity="0.897"/>
    <g id="mascaras-de-teatro" transform="translate(320 2497.885)">
      <g id="Grupo_83491" data-name="Grupo 83491" transform="translate(1.757 1.483)">
        <g id="Grupo_83484" data-name="Grupo 83484" transform="translate(0 0)">
          <path id="Trazado_145517" data-name="Trazado 145517" d="M224.34,83.088a46.928,46.928,0,0,1-19.094-35.521l-1.481-30.146A10.92,10.92,0,0,1,218.948,6.838l11.867,5.051a20.966,20.966,0,0,0,16.423,0l11.867-5.051a10.92,10.92,0,0,1,15.183,10.583l-1.481,30.146a46.929,46.929,0,0,1-19.094,35.521A24.811,24.811,0,0,1,224.34,83.088Z" transform="translate(-157.763 -5.952)" fill="#ff9800"/>
          <g id="Grupo_83483" data-name="Grupo 83483" transform="translate(0 34.925)">
            <path id="Trazado_145519" data-name="Trazado 145519" d="M315.4,231.34a.787.787,0,0,0,1-1.174l-5.141-6.523a14.4,14.4,0,0,0-22.627,0l-5.14,6.523a.787.787,0,0,0,1,1.174A31.619,31.619,0,0,1,315.4,231.34Z" transform="translate(-218.69 -203.354)" fill="#ffee58"/>
            <path id="Trazado_145520" data-name="Trazado 145520" d="M293.686,224.251a14.323,14.323,0,0,0-5.045,4.06l-5.141,6.523a.787.787,0,0,0,1,1.174,31.6,31.6,0,0,1,8.768-3.315Z" transform="translate(-218.69 -208.021)" fill="#ffee58"/>
            <path id="Trazado_145521" data-name="Trazado 145521" d="M28.087,232.128A46.928,46.928,0,0,1,8.993,196.607L7.512,166.461A10.92,10.92,0,0,1,22.7,155.878l11.867,5.051a20.967,20.967,0,0,0,16.423,0l11.867-5.051a10.92,10.92,0,0,1,15.183,10.583l-1.481,30.146A46.929,46.929,0,0,1,57.46,232.128,24.812,24.812,0,0,1,28.087,232.128Z" transform="translate(-7.498 -154.992)" fill="#ffee58"/>
            <path id="Trazado_145523" data-name="Trazado 145523" d="M119.151,389.683a.787.787,0,0,1,1,1.174l-5.141,6.523a14.4,14.4,0,0,1-22.627,0l-5.141-6.523a.787.787,0,0,1,1-1.174A31.619,31.619,0,0,0,119.151,389.683Z" transform="translate(-68.425 -334.606)" fill="#ffee58"/>
          </g>
        </g>
        <g id="Grupo_83485" data-name="Grupo 83485" transform="translate(8.002 47.126)">
          <path id="Trazado_145524" data-name="Trazado 145524" d="M59.759,212.67a1.753,1.753,0,0,1-.733-.161c-5.572-2.561-10.395-2.585-14.745-.075a1.757,1.757,0,0,1-1.757-3.045c5.334-3.078,11.38-3.1,17.97-.075a1.758,1.758,0,0,1-.735,3.355Z" transform="translate(-41.645 -207.062)" fill="#f3f0f3"/>
        </g>
        <path id="Trazado_145525" data-name="Trazado 145525" d="M66.208,257.744a17.453,17.453,0,0,0-10.421-.065,1.427,1.427,0,0,1-1.845-1.37V253.98a7.089,7.089,0,0,1,6.985-7.121h.141a7.089,7.089,0,0,1,6.985,7.121v2.395A1.433,1.433,0,0,1,66.208,257.744Z" transform="translate(-43.059 -190.407)" fill="#f3f0f3"/>
        <g id="Grupo_83486" data-name="Grupo 83486" transform="translate(42.03 47.127)">
          <path id="Trazado_145526" data-name="Trazado 145526" d="M188.62,212.671a1.758,1.758,0,0,1-.735-3.355c6.59-3.028,12.636-3,17.97.075a1.758,1.758,0,0,1-1.757,3.045c-4.35-2.51-9.173-2.486-14.745.075A1.757,1.757,0,0,1,188.62,212.671Z" transform="translate(-186.861 -207.063)" fill="#f3f0f3"/>
        </g>
        <path id="Trazado_145527" data-name="Trazado 145527" d="M201,257.744a17.453,17.453,0,0,1,10.421-.065,1.427,1.427,0,0,0,1.845-1.37V253.98a7.089,7.089,0,0,0-6.985-7.121h-.141a7.089,7.089,0,0,0-6.985,7.121v2.395A1.433,1.433,0,0,0,201,257.744Z" transform="translate(-154.245 -190.407)" fill="#f3f0f3"/>
        <g id="Grupo_83487" data-name="Grupo 83487" transform="translate(54.313 10.762)">
          <path id="Trazado_145528" data-name="Trazado 145528" d="M257.392,57.487a1.752,1.752,0,0,1-.733-.161c-5.572-2.561-10.395-2.585-14.746-.075a1.758,1.758,0,0,1-1.757-3.045c5.334-3.078,11.38-3.1,17.97-.075a1.758,1.758,0,0,1-.735,3.355Z" transform="translate(-239.278 -51.879)" fill="#f3f0f3"/>
        </g>
        <path id="Trazado_145529" data-name="Trazado 145529" d="M241.914,60.161a14.653,14.653,0,0,1,1.583-.791l-.181-3.69a17.689,17.689,0,0,0-3.159,1.437,1.757,1.757,0,1,0,1.756,3.044Z" transform="translate(-184.965 -44.027)" fill="#e2dee2"/>
        <path id="Trazado_145530" data-name="Trazado 145530" d="M253.418,90.735a17.453,17.453,0,0,0,10.421.065,1.427,1.427,0,0,1,1.845,1.37V94.5a7.089,7.089,0,0,1-6.985,7.121h-.141a7.089,7.089,0,0,1-6.985-7.121V92.1A1.433,1.433,0,0,1,253.418,90.735Z" transform="translate(-194.379 -70.821)" fill="#f3f0f3"/>
        <g id="Grupo_83489" data-name="Grupo 83489" transform="translate(57.194 19.855)">
          <g id="Grupo_83488" data-name="Grupo 83488">
            <path id="Trazado_145531" data-name="Trazado 145531" d="M253.133,90.69a1.43,1.43,0,0,0-1.56,1.422v2.395a7.156,7.156,0,0,0,1.991,4.956Z" transform="translate(-251.573 -90.684)" fill="#e2dee2"/>
          </g>
        </g>
        <g id="Grupo_83490" data-name="Grupo 83490" transform="translate(88.341 10.762)">
          <path id="Trazado_145532" data-name="Trazado 145532" d="M386.252,57.488a1.758,1.758,0,0,1-.735-3.355c6.59-3.028,12.636-3,17.97.075a1.758,1.758,0,1,1-1.757,3.045c-4.35-2.51-9.174-2.486-14.745.075A1.756,1.756,0,0,1,386.252,57.488Z" transform="translate(-384.493 -51.88)" fill="#f3f0f3"/>
        </g>
        <path id="Trazado_145533" data-name="Trazado 145533" d="M409.056,90.735a17.453,17.453,0,0,1-10.421.065,1.428,1.428,0,0,0-1.845,1.37V94.5a7.089,7.089,0,0,0,6.985,7.121h.141A7.089,7.089,0,0,0,410.9,94.5V92.1A1.433,1.433,0,0,0,409.056,90.735Z" transform="translate(-305.567 -70.821)" fill="#f3f0f3"/>
      </g>
      <g id="Grupo_83492" data-name="Grupo 83492" transform="translate(0 0.115)">
        <path id="Trazado_145534" data-name="Trazado 145534" d="M63.758,218.063a1.757,1.757,0,0,0-2.441.467,45.05,45.05,0,0,1-10.638,11.047,22.958,22.958,0,0,1-27.293,0,44.991,44.991,0,0,1-18.379-34.2L3.526,166.646a9.162,9.162,0,0,1,12.74-8.88l.948.4a1.757,1.757,0,1,0,1.377-3.234l-.948-.4A12.677,12.677,0,0,0,.016,166.823L1.5,195.559a48.492,48.492,0,0,0,19.809,36.852,26.569,26.569,0,0,0,31.454,0A48.56,48.56,0,0,0,64.226,220.5,1.757,1.757,0,0,0,63.758,218.063Z" transform="translate(0 -117.565)"/>
        <path id="Trazado_145535" data-name="Trazado 145535" d="M144.23,155.795a12.607,12.607,0,0,0-12.214-1.264l-11.867,5.051a19.3,19.3,0,0,1-15.046,0l-3.928-1.672a1.757,1.757,0,1,0-1.377,3.234l3.928,1.672a22.837,22.837,0,0,0,17.8,0l11.867-5.051a9.162,9.162,0,0,1,12.74,8.876l-1.481,28.744a44.964,44.964,0,0,1-4.1,16.689,1.757,1.757,0,1,0,3.192,1.471,48.468,48.468,0,0,0,4.414-17.983l1.481-28.744A12.607,12.607,0,0,0,144.23,155.795Z" transform="translate(-75.593 -117.564)"/>
        <path id="Trazado_145536" data-name="Trazado 145536" d="M83.363,382.406a2.545,2.545,0,0,0-3.242,3.8l5.14,6.523a16.162,16.162,0,0,0,25.388,0l5.14-6.523a2.545,2.545,0,0,0-3.242-3.8,29.862,29.862,0,0,1-29.184,0Zm24.525,8.143a12.647,12.647,0,0,1-19.866,0L85.462,387.3a33.361,33.361,0,0,0,24.985,0Z" transform="translate(-60.922 -292.57)"/>
        <path id="Trazado_145537" data-name="Trazado 145537" d="M264.889,2.4a12.608,12.608,0,0,0-12.214-1.264L240.807,6.188a19.3,19.3,0,0,1-15.046,0L213.894,1.137a12.678,12.678,0,0,0-17.627,12.287l.977,19.88a1.758,1.758,0,0,0,3.511-.172l-.977-19.88a9.162,9.162,0,0,1,12.74-8.88l11.867,5.051a22.836,22.836,0,0,0,17.8,0l11.867-5.051a9.162,9.162,0,0,1,12.74,8.88L265.31,43.4a45.2,45.2,0,0,1-1.928,11.015,1.757,1.757,0,1,0,3.361,1.03,48.717,48.717,0,0,0,2.079-11.873L270.3,13.424A12.607,12.607,0,0,0,264.889,2.4Z" transform="translate(-150.264 -0.115)"/>
        <path id="Trazado_145538" data-name="Trazado 145538" d="M359.764,257.662a1.757,1.757,0,0,0-2.358.785,45.377,45.377,0,0,1-13.657,16.195,23.034,23.034,0,0,1-18.892,3.867,1.758,1.758,0,1,0-.8,3.423,26.553,26.553,0,0,0,21.771-4.457,48.9,48.9,0,0,0,14.72-17.455A1.758,1.758,0,0,0,359.764,257.662Z" transform="translate(-247.082 -197.168)"/>
        <path id="Trazado_145539" data-name="Trazado 145539" d="M329.778,222.3a1.758,1.758,0,0,0,.482,3.482,30.038,30.038,0,0,1,18.693,3.522,2.557,2.557,0,0,0,1.253.331,2.552,2.552,0,0,0,1.989-4.127l-5.141-6.523a16.142,16.142,0,0,0-17.07-5.559,1.757,1.757,0,0,0,.945,3.385,12.637,12.637,0,0,1,13.363,4.35l2.563,3.253A33.618,33.618,0,0,0,329.778,222.3Z" transform="translate(-251.34 -162.98)"/>
        <path id="Trazado_145540" data-name="Trazado 145540" d="M60.493,209.316c-6.589-3.028-12.636-3-17.97.075a1.758,1.758,0,0,0,1.757,3.045c4.351-2.51,9.173-2.486,14.745.075a1.758,1.758,0,0,0,1.468-3.194Z" transform="translate(-31.886 -158.569)"/>
        <path id="Trazado_145541" data-name="Trazado 145541" d="M59.966,253.685a3.235,3.235,0,0,0,.919.134,3.193,3.193,0,0,0,3.182-3.189v-2.395a8.854,8.854,0,0,0-8.734-8.878h-.16a8.854,8.854,0,0,0-8.732,8.878v2.329a3.207,3.207,0,0,0,1.3,2.575,3.139,3.139,0,0,0,2.824.471A15.671,15.671,0,0,1,59.966,253.685Zm-10.01-3.559v-1.89a5.33,5.33,0,0,1,5.236-5.363h.122a5.331,5.331,0,0,1,5.238,5.363V250.2a20.739,20.739,0,0,0-5.536-.778,18.286,18.286,0,0,0-5.06.707Z" transform="translate(-35.558 -183.296)"/>
        <path id="Trazado_145542" data-name="Trazado 145542" d="M206.5,211.791a1.758,1.758,0,0,0-.644-2.4c-5.334-3.078-11.38-3.1-17.97-.075a1.757,1.757,0,1,0,1.468,3.194c5.572-2.561,10.395-2.585,14.746-.075A1.758,1.758,0,0,0,206.5,211.791Z" transform="translate(-143.073 -158.569)"/>
        <path id="Trazado_145543" data-name="Trazado 145543" d="M200.548,239.359h-.16a8.854,8.854,0,0,0-8.731,8.878v2.395a3.193,3.193,0,0,0,3.182,3.189,3.234,3.234,0,0,0,.919-.134,15.664,15.664,0,0,1,9.4-.074,3.139,3.139,0,0,0,2.824-.471,3.207,3.207,0,0,0,1.3-2.575v-2.329A8.854,8.854,0,0,0,200.548,239.359Zm5.219,10.768a19.293,19.293,0,0,0-10.6.071v-1.961a5.33,5.33,0,0,1,5.236-5.363h.122a5.331,5.331,0,0,1,5.238,5.363v1.89Z" transform="translate(-146.745 -183.297)"/>
        <path id="Trazado_145544" data-name="Trazado 145544" d="M258.126,54.133c-6.589-3.028-12.636-3-17.97.075a1.758,1.758,0,0,0,1.757,3.045c4.35-2.51,9.174-2.486,14.745.075a1.758,1.758,0,0,0,1.468-3.194Z" transform="translate(-183.207 -39.75)"/>
        <path id="Trazado_145545" data-name="Trazado 145545" d="M260.394,83.848a3.139,3.139,0,0,0-2.824-.471,15.667,15.667,0,0,1-9.4-.074,3.19,3.19,0,0,0-4.1,3.055v2.395A8.853,8.853,0,0,0,252.8,97.63h.165a8.854,8.854,0,0,0,8.731-8.878V86.423a3.206,3.206,0,0,0-1.3-2.576Zm-2.21,4.9a5.331,5.331,0,0,1-5.24,5.363h-.118a5.33,5.33,0,0,1-5.238-5.363V86.791a19.3,19.3,0,0,0,10.6.071Z" transform="translate(-186.879 -63.707)"/>
        <path id="Trazado_145546" data-name="Trazado 145546" d="M404.13,56.607a1.758,1.758,0,0,0-.644-2.4c-5.334-3.078-11.38-3.1-17.97-.075a1.757,1.757,0,1,0,1.468,3.194c5.572-2.561,10.395-2.585,14.745-.075A1.758,1.758,0,0,0,404.13,56.607Z" transform="translate(-294.394 -39.749)"/>
        <path id="Trazado_145547" data-name="Trazado 145547" d="M405.636,83.806a3.171,3.171,0,0,0-2.822-.5,15.667,15.667,0,0,1-9.4.074,3.14,3.14,0,0,0-2.824.471,3.207,3.207,0,0,0-1.3,2.575v2.329a8.853,8.853,0,0,0,8.729,8.878h.165a8.853,8.853,0,0,0,8.731-8.878V86.357a3.156,3.156,0,0,0-1.279-2.551ZM403.4,88.752a5.331,5.331,0,0,1-5.24,5.363h-.118a5.33,5.33,0,0,1-5.238-5.363v-1.89a19.3,19.3,0,0,0,10.6-.071Z" transform="translate(-298.067 -63.706)"/>
      </g>
    </g>
  </g>
</svg>
