<svg xmlns="http://www.w3.org/2000/svg" width="298" height="145" viewBox="0 0 298 145">
  <g id="Grupo_84692" data-name="Grupo 84692" transform="translate(-806 -4390)">
    <rect id="Rectángulo_32165" data-name="Rectángulo 32165" width="298" height="145" rx="20" transform="translate(806 4390)" fill="#fff1db"/>
    <g id="Solution" transform="translate(903 4410.922)">
      <path id="Trazado_146989" data-name="Trazado 146989" d="M49.821,57.334V35.954a6.86,6.86,0,0,0-6.012-6.922,6.667,6.667,0,0,0-7.322,6.635V41.2l-5.9-5.9a8.285,8.285,0,0,1-10.375,9.2l-4.6,13.807a6.667,6.667,0,0,0,.167,4.667l7.377,17.693V84H49.821V79l1.543-3.087A16.667,16.667,0,0,0,51.776,61.9Z" transform="translate(8.846 17.948)" fill="#ffd494"/>
      <path id="Trazado_146990" data-name="Trazado 146990" d="M38.757,32.78l-.367.367h.333C38.74,33.025,38.74,32.9,38.757,32.78Z" transform="translate(24.26 20.469)" fill="#57a4ff"/>
      <path id="Trazado_146991" data-name="Trazado 146991" d="M42.7,39.7A8.29,8.29,0,0,1,40.318,33h-.333L36,36.983V48a8.333,8.333,0,0,0,8.333,8.333H46A3.333,3.333,0,0,0,49.333,53V42.067A8.278,8.278,0,0,1,42.7,39.7Z" transform="translate(22.667 20.615)" fill="#ffd494"/>
      <path id="Trazado_146992" data-name="Trazado 146992" d="M62.65,45.513l11.783-11.8-10.6-10.6A8.334,8.334,0,1,1,54.4,13.68L43.8,3.08,32,14.863a8.333,8.333,0,1,0-7.067,7.067L13.15,33.713l11.783,11.8A8.333,8.333,0,1,0,32,52.58l5.9,5.9V52.947a6.667,6.667,0,0,1,13.333,0V56.93l4.35-4.35a8.333,8.333,0,1,0,7.067-7.067Z" transform="translate(7.433 0.669)" fill="#ff9800"/>
      <g id="Grupo_83894" data-name="Grupo 83894" transform="translate(2 2.077)">
        <path id="Trazado_146994" data-name="Trazado 146994" d="M76.278,33.2l-10.6-10.6a1.667,1.667,0,0,0-2.833.938A6.667,6.667,0,1,1,55.3,16a1.667,1.667,0,0,0,.938-2.833l-10.6-10.6a1.667,1.667,0,0,0-2.357,0l-9.205,9.2A10,10,0,1,0,21.833,24.009l-9.2,9.195a1.667,1.667,0,0,0,0,2.357l9.2,9.21a10,10,0,0,0-1.212,18.9L16.733,74.9a8.333,8.333,0,0,0,.287,7.345l5.85,13.833a1.332,1.332,0,0,0,.075.155,5.088,5.088,0,0,1,.622,2.448v1.6a1.667,1.667,0,1,0,3.333,0v-1.6a8.437,8.437,0,0,0-1-3.973L20.048,80.875a1.5,1.5,0,0,0-.08-.167,5.06,5.06,0,0,1-.147-4.573L23.9,64.4c.175,0,.347.025.523.025a9.982,9.982,0,0,0,9.652-7.4L36.9,59.839v17.11a1.667,1.667,0,0,0,3.333,0V53.615a5,5,0,0,1,10,0V73.8a15.083,15.083,0,0,0,1.583,6.708l.61,1.223a11.71,11.71,0,0,1,0,10.433L50.76,95.5a5.023,5.023,0,0,0-.527,2.237v2.547a1.667,1.667,0,1,0,3.333,0V97.735a1.7,1.7,0,0,1,.167-.745L55.4,93.657a15.06,15.06,0,0,0,0-13.415l-.61-1.223a11.725,11.725,0,0,1-1.145-3.825A11.632,11.632,0,0,0,61.9,78.615a5,5,0,0,0,5-5v-9.5a9.99,9.99,0,0,0,.182-19.348l9.2-9.21a1.667,1.667,0,0,0,0-2.353ZM61.9,75.282a8.343,8.343,0,0,1-8.333-8.333V58.282l1.273-1.273a9.973,9.973,0,0,0,8.727,7.367v9.24A1.667,1.667,0,0,1,61.9,75.282ZM62.138,45a1.667,1.667,0,0,0,1.42,2.833A6.667,6.667,0,1,1,57.892,53.5a1.667,1.667,0,0,0-2.833-1.42l-1.492,1.495a8.333,8.333,0,1,0-16.667.037v1.51L33.845,52.07a1.667,1.667,0,0,0-2.833,1.42,6.667,6.667,0,1,1-5.667-5.667,1.667,1.667,0,0,0,1.422-2.833L16.172,34.382l10.607-10.6a1.667,1.667,0,0,0-1.42-2.833A6.667,6.667,0,0,1,19.712,9.642a6.833,6.833,0,0,1,9.427,0,6.667,6.667,0,0,1,1.88,5.647,1.667,1.667,0,0,0,2.833,1.42l10.615-10.6,7.468,7.47A10,10,0,1,0,65.268,26.909l7.47,7.468Z" transform="translate(4.767 -2.077)" fill="#231f20"/>
        <path id="Trazado_146995" data-name="Trazado 146995" d="M65.667,24.333h-10a1.667,1.667,0,0,1,0-3.333h10a1.667,1.667,0,0,1,0,3.333Z" transform="translate(32.667 10.538)" fill="#231f20"/>
        <path id="Trazado_146996" data-name="Trazado 146996" d="M54.586,14.833a1.667,1.667,0,0,1-.833-3.11l8.667-5A1.667,1.667,0,1,1,64.086,9.61l-8.667,5a1.653,1.653,0,0,1-.833.223Z" transform="translate(31.946 0.871)" fill="#231f20"/>
        <path id="Trazado_146997" data-name="Trazado 146997" d="M63.247,40.833a1.653,1.653,0,0,1-.833-.223l-8.667-5a1.667,1.667,0,1,1,1.667-2.887l8.667,5a1.667,1.667,0,0,1-.833,3.11Z" transform="translate(31.943 18.205)" fill="#231f20"/>
        <path id="Trazado_146998" data-name="Trazado 146998" d="M13.667,24.333h-10a1.667,1.667,0,1,1,0-3.333h10a1.667,1.667,0,1,1,0,3.333Z" transform="translate(-2 10.538)" fill="#231f20"/>
        <path id="Trazado_146999" data-name="Trazado 146999" d="M14.214,14.833a1.653,1.653,0,0,1-.833-.223l-8.667-5A1.667,1.667,0,1,1,6.381,6.723l8.667,5a1.667,1.667,0,0,1-.833,3.11Z" transform="translate(-0.746 0.871)" fill="#231f20"/>
        <path id="Trazado_147000" data-name="Trazado 147000" d="M5.553,40.833a1.667,1.667,0,0,1-.833-3.11l8.667-5a1.667,1.667,0,1,1,1.667,2.887l-8.667,5a1.653,1.653,0,0,1-.833.223Z" transform="translate(-0.743 18.205)" fill="#231f20"/>
      </g>
    </g>
  </g>
</svg>
