<svg id="punto-de-encuentro" xmlns="http://www.w3.org/2000/svg" width="80" height="80" viewBox="0 0 80 80">
  <path id="Trazado_146869" data-name="Trazado 146869" d="M6.957,0A6.957,6.957,0,1,1,0,6.957,6.957,6.957,0,0,1,6.957,0Z" transform="translate(33.043 33.043)" fill="#ff9800"/>
  <g id="Grupo_83823" data-name="Grupo 83823">
    <path id="Trazado_146864" data-name="Trazado 146864" d="M40,0a1.74,1.74,0,0,0-1.739,1.739V18.41l-7.466-7.466A1.739,1.739,0,0,0,28.336,13.4L38.77,23.838a1.744,1.744,0,0,0,2.459,0L51.664,13.4a1.739,1.739,0,0,0-2.459-2.459L41.739,18.41V1.739A1.74,1.74,0,0,0,40,0Z"/>
    <path id="Trazado_146865" data-name="Trazado 146865" d="M28.336,69.056a1.737,1.737,0,0,0,2.459,0l7.466-7.466V78.261a1.739,1.739,0,1,0,3.478,0V61.59l7.466,7.466A1.739,1.739,0,0,0,51.664,66.6L41.231,56.163a1.722,1.722,0,0,0-.567-.377,1.744,1.744,0,0,0-1.9.377L28.336,66.6A1.737,1.737,0,0,0,28.336,69.056Z"/>
    <path id="Trazado_146866" data-name="Trazado 146866" d="M0,40a1.74,1.74,0,0,0,1.739,1.739H18.41l-7.466,7.466A1.739,1.739,0,1,0,13.4,51.664L23.838,41.23a1.744,1.744,0,0,0,0-2.459L13.4,28.336a1.739,1.739,0,1,0-2.459,2.459l7.466,7.466H1.739A1.74,1.74,0,0,0,0,40Z"/>
    <path id="Trazado_146867" data-name="Trazado 146867" d="M78.261,38.261H61.59l7.466-7.466A1.739,1.739,0,0,0,66.6,28.336L56.162,38.77a1.744,1.744,0,0,0,0,2.459L66.6,51.664a1.739,1.739,0,1,0,2.459-2.459L61.59,41.739H78.261a1.739,1.739,0,1,0,0-3.478Z"/>
    <path id="Trazado_146868" data-name="Trazado 146868" d="M31.3,40A8.7,8.7,0,1,0,40,31.3,8.706,8.706,0,0,0,31.3,40Zm13.913,0A5.217,5.217,0,1,1,40,34.783,5.224,5.224,0,0,1,45.217,40Z"/>
  </g>
</svg>
