<svg xmlns="http://www.w3.org/2000/svg" width="298" height="145" viewBox="0 0 298 145">
  <g id="Grupo_84690" data-name="Grupo 84690" transform="translate(-180 -4390)">
    <rect id="Rectángulo_32163" data-name="Rectángulo 32163" width="298" height="145" rx="20" transform="translate(180 4390)" fill="#fff1db"/>
    <g id="actitud" transform="translate(278 4412)">
      <g id="Grupo_83871" data-name="Grupo 83871" transform="translate(2.603 2.603)">
        <g id="Grupo_83854" data-name="Grupo 83854" transform="translate(35.277)">
          <path id="Trazado_146935" data-name="Trazado 146935" d="M27.832,21.755A12.247,12.247,0,0,1,24,12.824v-1.2A9.629,9.629,0,0,1,33.621,2H46.449a3.216,3.216,0,0,1,3.207,3.207v7.617a12.247,12.247,0,0,1-3.832,8.931l-1.138,1.09a7.556,7.556,0,0,0,.16-1.6V17.6a3.222,3.222,0,0,0-2.758-3.175l-3.7-.529a5.477,5.477,0,0,1-3.64-2.165l-.016.016-1.058.257a6.429,6.429,0,0,0-4.859,6.222v3.015a7.556,7.556,0,0,0,.16,1.6Z" transform="translate(-24 -2)" fill="#b27946"/>
        </g>
        <g id="Grupo_83855" data-name="Grupo 83855" transform="translate(3.207 0)">
          <path id="Trazado_146936" data-name="Trazado 146936" d="M26.673,19.414l-1.828,1.828V17.6a3.222,3.222,0,0,0-2.758-3.175l-3.7-.529a5.448,5.448,0,0,1-3.4-1.86c-.08-.1-.176-.208-.241-.3l-.016.016-1.058.257A6.429,6.429,0,0,0,8.81,18.227v3.015L6.069,18.5A7.025,7.025,0,0,1,4,13.513v-.032a6.938,6.938,0,0,1,1.331-4.1A7.037,7.037,0,0,1,8.81,6.81,7.036,7.036,0,0,1,15.481,2h3.977a10.2,10.2,0,0,1,7.216,17.414Z" transform="translate(-4 -2)" fill="#656d78"/>
        </g>
        <g id="Grupo_83856" data-name="Grupo 83856" transform="translate(80.174 0)">
          <path id="Trazado_146937" data-name="Trazado 146937" d="M64.2,16.72A12.378,12.378,0,0,1,61,21.755l-1.09,1.058a7.334,7.334,0,0,0,.112-1.331V18.42a3.207,3.207,0,0,0-1.78-2.87l-1.427-.722A10.743,10.743,0,0,1,52,10.017V2h3.207a9.629,9.629,0,0,1,9.621,9.621v1.2A12.313,12.313,0,0,1,64.2,16.72Z" transform="translate(-52 -2)" fill="#656d78"/>
        </g>
        <g id="Grupo_83857" data-name="Grupo 83857" transform="translate(67.347)">
          <path id="Trazado_146938" data-name="Trazado 146938" d="M48.81,18.42v2.822a7.556,7.556,0,0,0,.16,1.6l-1.138-1.09A12.247,12.247,0,0,1,44,12.824v-1.2A9.629,9.629,0,0,1,53.621,2h3.207v8.017a10.743,10.743,0,0,1-4.81,4.81l-1.427.722a3.207,3.207,0,0,0-1.78,2.87Z" transform="translate(-44 -2)" fill="#656d78"/>
        </g>
        <g id="Grupo_83858" data-name="Grupo 83858" transform="translate(16.035 30.466)">
          <path id="Trazado_146939" data-name="Trazado 146939" d="M28.035,31.487v3.945H12V29.017L16.81,21l3.768.946a9.831,9.831,0,0,1,7.456,9.541Z" transform="translate(-12 -21)" fill="#ffee58"/>
        </g>
        <g id="Grupo_83859" data-name="Grupo 83859" transform="translate(0 30.466)">
          <path id="Trazado_146940" data-name="Trazado 146940" d="M18.035,29.017v6.414H2V31.487a9.831,9.831,0,0,1,7.456-9.541L13.224,21Z" transform="translate(-2 -21)" fill="#ffee58"/>
        </g>
        <g id="Grupo_83860" data-name="Grupo 83860" transform="translate(64.14 30.466)">
          <path id="Trazado_146941" data-name="Trazado 146941" d="M58.035,29.017v6.414H42V31.487a9.831,9.831,0,0,1,7.456-9.541L53.224,21Z" transform="translate(-42 -21)" fill="#ffee58"/>
        </g>
        <g id="Grupo_83861" data-name="Grupo 83861" transform="translate(80.174 30.466)">
          <path id="Trazado_146942" data-name="Trazado 146942" d="M68.035,31.487v3.945H52V29.017L56.81,21l3.768.946a9.831,9.831,0,0,1,7.456,9.541Z" transform="translate(-52 -21)" fill="#ffee58"/>
        </g>
        <g id="Grupo_83862" data-name="Grupo 83862" transform="translate(48.105 30.466)">
          <path id="Trazado_146943" data-name="Trazado 146943" d="M48.035,31.487v3.945H32V29.017L36.81,21l3.768.946a9.831,9.831,0,0,1,7.456,9.541Z" transform="translate(-32 -21)" fill="#ffb74d"/>
        </g>
        <g id="Grupo_83863" data-name="Grupo 83863" transform="translate(32.07 30.466)">
          <path id="Trazado_146944" data-name="Trazado 146944" d="M38.035,29.017v6.414H22V31.487a9.831,9.831,0,0,1,7.456-9.541L33.224,21Z" transform="translate(-22 -21)" fill="#ffb74d"/>
        </g>
        <g id="Grupo_83864" data-name="Grupo 83864" transform="translate(25.656 57.726)">
          <path id="Trazado_146945" data-name="Trazado 146945" d="M62.9,50.267V50.3a12.258,12.258,0,0,1-3.913,8.98L40.449,76.484,21.913,59.278A12.258,12.258,0,0,1,18,50.3v-.032a12.182,12.182,0,0,1,4.57-9.509,12.576,12.576,0,0,1,16.756.93l1.122,1.122,1.122-1.122a12.587,12.587,0,0,1,16.756-.93A12.174,12.174,0,0,1,62.9,50.267Z" transform="translate(-18 -38)" fill="#ff9800"/>
        </g>
        <g id="Grupo_83865" data-name="Grupo 83865" transform="translate(75.364 26.313)">
          <path id="Trazado_146946" data-name="Trazado 146946" d="M50.042,18.41a7.946,7.946,0,0,0,3.8.946h.208a7.706,7.706,0,0,0,3.544-.85l1.026,4.057L53.81,30.58,49,22.563Z" transform="translate(-49 -18.41)" fill="#f0d0b4"/>
        </g>
        <g id="Grupo_83866" data-name="Grupo 83866" transform="translate(43.294 26.313)">
          <path id="Trazado_146947" data-name="Trazado 146947" d="M30.042,18.41l3.768.946a7.866,7.866,0,0,0,3.768-.946l1.042,4.153L33.81,30.58,29,22.563Z" transform="translate(-29 -18.41)" fill="#f0d0b4"/>
        </g>
        <g id="Grupo_83867" data-name="Grupo 83867" transform="translate(11.224 26.313)">
          <path id="Trazado_146948" data-name="Trazado 146948" d="M17.579,18.41l1.042,4.153L13.81,30.58,9,22.563l1.042-4.153a7.977,7.977,0,0,0,7.536,0Z" transform="translate(-9 -18.41)" fill="#f0d0b4"/>
        </g>
        <g id="Grupo_83868" data-name="Grupo 83868" transform="translate(8.017 9.733)">
          <path id="Trazado_146949" data-name="Trazado 146949" d="M13.173,8.375a5.448,5.448,0,0,0,3.4,1.86l3.7.529a3.222,3.222,0,0,1,2.758,3.175v3.64a8,8,0,0,1-4.249,7.071,7.977,7.977,0,0,1-7.536,0,7.789,7.789,0,0,1-1.908-1.4A8.052,8.052,0,0,1,7,17.579V14.564a6.429,6.429,0,0,1,4.859-6.222l1.058-.257.016-.016c.064.1.16.208.241.3Z" transform="translate(-7 -8.07)" fill="#f0d0b4"/>
        </g>
        <g id="Grupo_83869" data-name="Grupo 83869" transform="translate(40.087 9.733)">
          <path id="Trazado_146950" data-name="Trazado 146950" d="M32.933,8.07a5.477,5.477,0,0,0,3.64,2.165l3.7.529a3.222,3.222,0,0,1,2.758,3.175v3.64a7.556,7.556,0,0,1-.16,1.6,7.99,7.99,0,0,1-4.089,5.468,7.866,7.866,0,0,1-3.768.946l-3.768-.946a7.789,7.789,0,0,1-1.908-1.4,8.025,8.025,0,0,1-2.181-4.073,7.556,7.556,0,0,1-.16-1.6V14.564a6.429,6.429,0,0,1,4.859-6.222l1.058-.257Z" transform="translate(-27 -8.07)" fill="#f0d0b4"/>
        </g>
        <g id="Grupo_83870" data-name="Grupo 83870" transform="translate(72.157 8.017)">
          <path id="Trazado_146951" data-name="Trazado 146951" d="M62.923,19.8a7.824,7.824,0,0,1-4.121,5.6,7.706,7.706,0,0,1-3.544.85H55.05a7.946,7.946,0,0,1-3.8-.946,8.058,8.058,0,0,1-4.089-5.468,7.556,7.556,0,0,1-.16-1.6V15.4a3.207,3.207,0,0,1,1.78-2.87l1.427-.722A10.743,10.743,0,0,0,55.017,7a10.743,10.743,0,0,0,4.81,4.81l1.427.722a3.207,3.207,0,0,1,1.78,2.87v3.063a7.335,7.335,0,0,1-.112,1.331Z" transform="translate(-47 -7)" fill="#f0d0b4"/>
        </g>
      </g>
      <g id="Grupo_83872" data-name="Grupo 83872" transform="translate(1 1)">
        <path id="Trazado_146952" data-name="Trazado 146952" d="M97.063,35.467a11.448,11.448,0,0,0-5.317-3.01l-2.837-.709-.5-1.995a9.489,9.489,0,0,0,1.241-1.036,9.313,9.313,0,0,0,2.492-4.491l.741-.706A13.948,13.948,0,0,0,97.209,13.43V12.224A11.238,11.238,0,0,0,85.985,1H79.571A11.238,11.238,0,0,0,68.347,12.224V13.43a13.936,13.936,0,0,0,4.325,10.091l.811.771a9.426,9.426,0,0,0,3.69,5.352l-.526,2.1-2.835.709a11.355,11.355,0,0,0-7.067,5.279,11.355,11.355,0,0,0-7.067-5.279l-2.837-.709-.526-2.1A9.638,9.638,0,0,0,60,24.3l.815-.776A13.948,13.948,0,0,0,65.14,13.43V5.81A4.816,4.816,0,0,0,60.329,1H47.5A11.238,11.238,0,0,0,36.277,12.224V13.43A13.936,13.936,0,0,0,40.6,23.521l.815.776A9.638,9.638,0,0,0,45.1,29.648l-.526,2.1-2.835.709a11.355,11.355,0,0,0-7.067,5.279,11.355,11.355,0,0,0-7.067-5.279l-2.837-.709-.526-2.1a9.6,9.6,0,0,0,3.978-7.1l1.387-1.387A11.808,11.808,0,0,0,21.262,1H17.295A8.625,8.625,0,0,0,9.381,6.174,8.671,8.671,0,0,0,6.737,20.231l2.315,2.315a9.608,9.608,0,0,0,3.978,7.1l-.526,2.1-2.835.709A11.445,11.445,0,0,0,1,43.561V49.1H17.035v3.207a3.21,3.21,0,0,0,3.207,3.207H36.277v3.924a14.231,14.231,0,0,0-4.446,2.389,13.735,13.735,0,0,0-5.174,10.8A13.89,13.89,0,0,0,31.08,82.775L50.708,101,70.335,82.775A13.9,13.9,0,0,0,74.761,72.6a13.725,13.725,0,0,0-5.174-10.767,14.232,14.232,0,0,0-4.446-2.389V55.519H81.174a3.21,3.21,0,0,0,3.207-3.207V49.1h16.035V43.561a11.376,11.376,0,0,0-3.353-8.094ZM94,12.224V13.43a10.593,10.593,0,0,1-1.6,5.623v-.04a4.787,4.787,0,0,0-2.66-4.3L88.305,14a9.187,9.187,0,0,1-3.924-3.813V4.207h1.6A8.027,8.027,0,0,1,94,12.224Zm-21.9,4.6a10.738,10.738,0,0,1-.55-3.391V12.224a8.027,8.027,0,0,1,8.017-8.017h1.6v5.976A9.2,9.2,0,0,1,77.251,14l-1.435.717a4.783,4.783,0,0,0-2.659,4.3v.038A10.682,10.682,0,0,1,72.1,16.822Zm4.26,2.194a1.6,1.6,0,0,1,.887-1.434l1.435-.717a12.463,12.463,0,0,0,4.092-3.3,12.477,12.477,0,0,0,4.094,3.3l1.435.717a1.593,1.593,0,0,1,.885,1.434v3.064a6.173,6.173,0,0,1-6.173,6.178h-.2a6.427,6.427,0,0,1-6.454-6.419Zm6.452,12.451h.2a9.409,9.409,0,0,0,2.434-.327l.419,1.676L82.778,37.97l-3.093-5.157.433-1.732A9.655,9.655,0,0,0,82.816,31.466ZM70.76,37.734a8.257,8.257,0,0,1,3.828-2.168l2.615-.654,3.972,6.619V45.9H68.347V43.561a8.191,8.191,0,0,1,2.413-5.827Zm-8.033,0a8.191,8.191,0,0,1,2.413,5.827V45.9H52.312V41.531l3.97-6.618,2.617.654a8.24,8.24,0,0,1,3.828,2.166ZM40.034,16.822a10.738,10.738,0,0,1-.55-3.391V12.224A8.027,8.027,0,0,1,47.5,4.207H60.329a1.605,1.605,0,0,1,1.6,1.6v7.62a10.585,10.585,0,0,1-1.6,5.625v-.842A4.835,4.835,0,0,0,56.2,13.451L52.49,12.92a3.962,3.962,0,0,1-3.385-3.9v-1.6H45.9v1.6a7.066,7.066,0,0,0,.388,2.311,8.008,8.008,0,0,0-5.2,7.508v.22a10.732,10.732,0,0,1-1.053-2.234Zm4.26,2.014a4.8,4.8,0,0,1,3.642-4.666l.135-.034A7.127,7.127,0,0,0,52.036,16.1l3.709.531a1.606,1.606,0,0,1,1.377,1.584v3.634a6.414,6.414,0,0,1-12.828,0Zm6.414,12.631a9.525,9.525,0,0,0,2.66-.383l.433,1.73L50.708,37.97l-3.093-5.157.433-1.73A9.525,9.525,0,0,0,50.708,31.466ZM38.69,37.734a8.257,8.257,0,0,1,3.828-2.168l2.615-.654L49.1,41.531V45.9H36.277V43.561A8.191,8.191,0,0,1,38.69,37.734Zm-8.033,0a8.191,8.191,0,0,1,2.413,5.827V45.9H20.242V41.531l3.97-6.618,2.617.654a8.24,8.24,0,0,1,3.828,2.166ZM9.08,18.035l-.074-.074a5.46,5.46,0,0,1,2.121-9.028l.762-.253.253-.76a5.423,5.423,0,0,1,5.152-3.714h3.967a8.61,8.61,0,0,1,8.6,8.6,8.514,8.514,0,0,1-1.64,5.013,4.825,4.825,0,0,0-4.094-4.371l-3.709-.531a3.959,3.959,0,0,1-3.385-3.9v-1.6H13.828v1.6a7.066,7.066,0,0,0,.388,2.311A7.989,7.989,0,0,0,9.08,18.035Zm3.144.8a4.8,4.8,0,0,1,3.642-4.666L16,14.136A7.127,7.127,0,0,0,19.966,16.1l3.709.531a1.606,1.606,0,0,1,1.377,1.584v3.634a6.414,6.414,0,0,1-12.828,0Zm6.414,12.631a9.525,9.525,0,0,0,2.66-.383l.433,1.73L18.638,37.97l-3.093-5.157.433-1.73a9.525,9.525,0,0,0,2.66.383ZM4.207,45.9V43.561a8.241,8.241,0,0,1,6.241-7.995l2.615-.654,3.972,6.619V45.9Zm32.07,6.414H20.242V49.1H49.1V61.511a14.064,14.064,0,0,0-8.417-2.785c-.4,0-.8.018-1.2.051V55.519A3.21,3.21,0,0,0,36.277,52.312ZM71.554,72.628a10.675,10.675,0,0,1-3.4,7.8l-17.444,16.2-17.446-16.2a10.7,10.7,0,0,1-3.4-7.827,10.519,10.519,0,0,1,3.97-8.261,10.971,10.971,0,0,1,14.613.808l2.263,2.263,2.261-2.263a10.976,10.976,0,0,1,14.614-.81A10.551,10.551,0,0,1,71.554,72.628Zm9.621-20.316H65.14a3.21,3.21,0,0,0-3.207,3.207v3.26c-.4-.035-.8-.053-1.2-.053a14.064,14.064,0,0,0-8.417,2.785V49.1H81.174ZM97.209,45.9H84.381V41.531l3.97-6.618,2.617.654a8.241,8.241,0,0,1,6.241,7.993Z" transform="translate(-1 -1)"/>
        <path id="Trazado_146953" data-name="Trazado 146953" d="M29.56,51.914l-2.267,2.267,5.944,5.944L48.8,44.56l-2.267-2.267-13.3,13.3Z" transform="translate(14.868 23.92)"/>
        <path id="Trazado_146954" data-name="Trazado 146954" d="M3.324,55.3l3.848-2.886V73.259H10.38V46L1.4,52.735Z" transform="translate(-0.759 26.157)"/>
        <path id="Trazado_146955" data-name="Trazado 146955" d="M9,76.88h3.207V46.414L16.055,49.3l1.924-2.566L9,40Z" transform="translate(3.828 22.536)"/>
        <path id="Trazado_146956" data-name="Trazado 146956" d="M57,73.259h3.207V52.414L64.055,55.3l1.924-2.566L57,46Z" transform="translate(32.795 26.157)"/>
        <path id="Trazado_146957" data-name="Trazado 146957" d="M51.324,49.3l3.848-2.886V76.88H58.38V40L49.4,46.735Z" transform="translate(28.209 22.536)"/>
        <path id="Trazado_146958" data-name="Trazado 146958" d="M15,61h3.207v3.207H15Z" transform="translate(7.449 35.209)"/>
        <path id="Trazado_146959" data-name="Trazado 146959" d="M19,61h3.207v3.207H19Z" transform="translate(9.863 35.209)"/>
        <path id="Trazado_146960" data-name="Trazado 146960" d="M23,61h3.207v3.207H23Z" transform="translate(12.277 35.209)"/>
        <path id="Trazado_146961" data-name="Trazado 146961" d="M47,61h3.207v3.207H47Z" transform="translate(26.761 35.209)"/>
        <path id="Trazado_146962" data-name="Trazado 146962" d="M43,61h3.207v3.207H43Z" transform="translate(24.347 35.209)"/>
        <path id="Trazado_146963" data-name="Trazado 146963" d="M39,61h3.207v3.207H39Z" transform="translate(21.933 35.209)"/>
      </g>
    </g>
  </g>
</svg>
