<svg xmlns="http://www.w3.org/2000/svg" width="298" height="145" viewBox="0 0 298 145">
  <g id="Grupo_84693" data-name="Grupo 84693" transform="translate(-1122 -4390)">
    <rect id="Rectángulo_32166" data-name="Rectángulo 32166" width="298" height="145" rx="20" transform="translate(1122 4390)" fill="#fff1db"/>
    <g id="escuchando" transform="translate(1221.781 4413)">
      <g id="Grupo_83784" data-name="Grupo 83784" transform="translate(6.163 1.951)">
        <path id="Trazado_146803" data-name="Trazado 146803" d="M7.073,21.584c-4.511,17.761,3.918,54.679,7.166,64.468,5.564,16.787,29,15.292,31.939-5.913A29.262,29.262,0,0,1,55.4,61.093c8.418-7.818,13.124-14.345,13.124-26.4,0-39.675-53.786-43.3-61.451-13.105Z" transform="translate(-5.774 -1.561)" fill="#ffd494" fill-rule="evenodd"/>
      </g>
      <g id="Grupo_83785" data-name="Grupo 83785" transform="translate(4.219 0)">
        <path id="Trazado_146804" data-name="Trazado 146804" d="M57.118,62.914c5-4.646,8.026-8.269,10.107-12.113a31.805,31.805,0,0,0,3.641-15.722c0-.493-.009-1.023-.029-1.619a1.954,1.954,0,0,0-1.951-1.89h-.065a1.954,1.954,0,0,0-1.889,2.016c.018.554.027,1.042.027,1.492,0,11.3-4.209,17.274-12.5,24.973a31.136,31.136,0,0,0-9.841,20.305c-1.512,10.643-8.4,15-13.853,15.5-6.461.592-12.068-3.347-14.284-10.032C13.7,77.436,4.839,40.259,9.356,22.455,11.82,12.742,19.851,5.947,30.84,4.278c10.583-1.609,24.471,2,31.636,13.685a1.953,1.953,0,0,0,3.33-2.042A32.743,32.743,0,0,0,50.05,2.748,38.075,38.075,0,0,0,30.253.416,32.217,32.217,0,0,0,14.858,6.965,27.007,27.007,0,0,0,5.569,21.494c-2.52,9.935-1.044,25.061.638,36a211.5,211.5,0,0,0,6.567,29.562,18.752,18.752,0,0,0,7.431,9.982,17.138,17.138,0,0,0,9.366,2.782c.516,0,1.034-.023,1.551-.071a17.985,17.985,0,0,0,11.14-5.361A23.753,23.753,0,0,0,48.5,80.8a1.956,1.956,0,0,0,.018-.222,27.353,27.353,0,0,1,8.6-17.661Z" transform="translate(-4.219 0)"/>
        <path id="Trazado_146805" data-name="Trazado 146805" d="M44.034,49.141c-4.4,4.086-7.382,9.192-9.833,13.658-2.218,4.046-5.067,6.081-7.814,5.585-3-.543-5.382-3.943-6.064-8.662a1.953,1.953,0,0,0-3.867.559c.926,6.411,4.552,11.1,9.235,11.948a8.735,8.735,0,0,0,1.555.141c3.942,0,7.659-2.727,10.379-7.691,2.3-4.2,5.094-8.985,9.066-12.674C52.918,46.225,56.7,42.044,56.7,32.739c0-10.331-4.821-17.972-13.572-21.515A26.553,26.553,0,0,0,31.312,9.439,21.022,21.022,0,0,0,19.95,13.574a14.974,14.974,0,0,0-5.493,8.477,11.812,11.812,0,0,0,.617,7.96c2.13,4.79,6.432,4.3,9.574,3.945.466-.053.907-.1,1.343-.14a5.363,5.363,0,0,1,3.717,9.611,1.953,1.953,0,1,0,2.366,3.108,9.269,9.269,0,0,0-6.415-16.611c-.492.042-.98.1-1.453.151-3.405.387-4.676.344-5.563-1.65a7.991,7.991,0,0,1-.391-5.452,11.012,11.012,0,0,1,4.1-6.316c4.795-3.733,12.735-4.479,19.31-1.812,9.2,3.725,11.133,11.787,11.133,17.894,0,7.491-2.669,10.75-8.759,16.4Z" transform="translate(-1.762 2.34)"/>
        <path id="Trazado_146806" data-name="Trazado 146806" d="M81.875,51.747a1.953,1.953,0,1,0,0-3.906A38.307,38.307,0,0,0,43.593,86.087a1.953,1.953,0,0,0,3.907,0A34.4,34.4,0,0,1,81.875,51.747Z" transform="translate(5.625 11.96)"/>
        <path id="Trazado_146807" data-name="Trazado 146807" d="M79.808,56.1a27.964,27.964,0,0,0-27.946,27.92,1.953,1.953,0,0,0,3.907,0A24.053,24.053,0,0,1,79.808,60.008a1.953,1.953,0,1,0,0-3.906Z" transform="translate(7.692 14.025)"/>
        <path id="Trazado_146808" data-name="Trazado 146808" d="M77.742,64.362A17.625,17.625,0,0,0,60.126,81.956a1.953,1.953,0,0,0,3.907,0A13.714,13.714,0,0,1,77.742,68.268a1.953,1.953,0,1,0,0-3.906Z" transform="translate(9.758 16.091)"/>
        <path id="Trazado_146809" data-name="Trazado 146809" d="M53.919,21.69l.005.005a1.957,1.957,0,1,0-.005-.005Z" transform="translate(8.063 4.589)"/>
      </g>
    </g>
  </g>
</svg>
