<svg xmlns="http://www.w3.org/2000/svg" width="191" height="191" viewBox="0 0 191 191">
  <g id="Grupo_84690" data-name="Grupo 84690" transform="translate(-1125 -6471)">
    <circle id="Elipse_4080" data-name="Elipse 4080" cx="95.5" cy="95.5" r="95.5" transform="translate(1125 6471)" fill="#fff1db"/>
    <g id="Photography-Man-Lifestyle-Camera-Mountain" transform="translate(1168.557 6512.193)">
      <path id="Trazado_145809" data-name="Trazado 145809" d="M81.98,56.3V70.165L58.623,75.16H45.455L29.44,71.747a3.33,3.33,0,0,0,2.6-3.246V45.194a3.36,3.36,0,0,0-2.064-3.08,16.638,16.638,0,0,1,6.376-2.3l.832-.117c1.016,4.045,7.275,7.159,14.833,7.159S65.832,43.745,66.847,39.7l.832.117A16.666,16.666,0,0,1,81.98,56.3Z" transform="translate(18.241 25.107)" fill="#ff9800"/>
      <path id="Trazado_145810" data-name="Trazado 145810" d="M74.315,56.3V70.165L50.959,75.16H40.97l23.357-4.994V56.3A16.684,16.684,0,0,0,57.3,42.713,6.469,6.469,0,0,0,59.183,39.7l.832.117A16.666,16.666,0,0,1,74.315,56.3Z" transform="translate(25.906 25.107)" fill="#ff9800"/>
      <path id="Trazado_145811" data-name="Trazado 145811" d="M70.665,10.59c8.557,1.182,14.267,3.28,14.267,5.677,0,2.464-6.026,4.611-14.983,5.76a119.43,119.43,0,0,1-14.983.9,119.433,119.433,0,0,1-14.983-.9C31.026,20.878,25,18.731,25,16.267c0-2.4,5.71-4.495,14.267-5.677l-.117.683a60.162,60.162,0,0,0,15.815,1.665,60.162,60.162,0,0,0,15.815-1.665Z" transform="translate(15.29 5.756)" fill="#ffee58"/>
      <path id="Trazado_145813" data-name="Trazado 145813" d="M58.989,48v8.324a4.994,4.994,0,1,1-9.989,0V48Z" transform="translate(31.244 30.625)" fill="#ffd494"/>
      <path id="Trazado_145814" data-name="Trazado 145814" d="M57.991,48v8.324A4.994,4.994,0,0,1,50.5,60.652,4.994,4.994,0,0,0,53,56.324V48Z" transform="translate(32.242 30.625)" fill="#ffd494"/>
      <path id="Trazado_145815" data-name="Trazado 145815" d="M68.625,23.353v3.33a3.355,3.355,0,0,1-3.33,3.33A14.906,14.906,0,0,1,60.9,40.6a14.023,14.023,0,0,1-3.929,2.813,14.817,14.817,0,0,1-13.318,0A14.023,14.023,0,0,1,39.725,40.6,14.906,14.906,0,0,1,35.33,30.012,3.34,3.34,0,0,1,32,26.683v-3.33a3.355,3.355,0,0,1,3.33-3.33V17.46a119.43,119.43,0,0,0,14.983.9,119.436,119.436,0,0,0,14.983-.9v2.564a3.34,3.34,0,0,1,3.33,3.33Z" transform="translate(19.943 10.323)" fill="#ffc477"/>
      <path id="Trazado_145816" data-name="Trazado 145816" d="M52.653,20.024V18.093c2.347-.15,4.578-.366,6.659-.633v2.564a3.34,3.34,0,0,1,3.33,3.33v3.33a3.355,3.355,0,0,1-3.33,3.33,14.906,14.906,0,0,1-4.4,10.588,14.023,14.023,0,0,1-3.929,2.813A14.763,14.763,0,0,1,41,44.612a14.444,14.444,0,0,0,3.33-1.2A14.023,14.023,0,0,0,48.258,40.6a14.906,14.906,0,0,0,4.395-10.588Z" transform="translate(25.926 10.323)" fill="#ffa733"/>
      <path id="Trazado_145817" data-name="Trazado 145817" d="M65.014,15.682l.117.683a60.162,60.162,0,0,1-15.815,1.665A60.161,60.161,0,0,1,33.5,16.365l.117-.683,1.2-7.192A6.647,6.647,0,0,1,42.989,3.13L47.7,4.312a6.626,6.626,0,0,0,3.23,0L55.641,3.13A6.647,6.647,0,0,1,63.816,8.49Z" transform="translate(20.94 0.664)" fill="#ffee58"/>
      <path id="Trazado_145819" data-name="Trazado 145819" d="M55.582,42.955l8.174,1.165c-1.016,4.045-7.275,7.159-14.833,7.159S35.106,48.166,34.09,44.121l8.174-1.165V33.05a14.817,14.817,0,0,0,13.318,0Z" transform="translate(21.333 20.687)" fill="#ffc477"/>
      <path id="Trazado_145820" data-name="Trazado 145820" d="M6.33,73.625A3.34,3.34,0,0,1,3,70.3V46.989a3.34,3.34,0,0,1,3.33-3.33h6.659a3.355,3.355,0,0,0,3.33-3.33A3.34,3.34,0,0,1,19.648,37H32.966a3.355,3.355,0,0,1,3.33,3.33,3.34,3.34,0,0,0,3.33,3.33h6.659a3.237,3.237,0,0,1,1.265.25,3.36,3.36,0,0,1,2.064,3.08V70.3a3.33,3.33,0,0,1-2.6,3.246,3.527,3.527,0,0,1-.733.083Z" transform="translate(0.665 23.312)" fill="#898890"/>
      <path id="Trazado_145821" data-name="Trazado 145821" d="M30.318,43.659H23.659a3.34,3.34,0,0,1-3.33-3.33A3.355,3.355,0,0,0,17,37h6.659a3.355,3.355,0,0,1,3.33,3.33,3.34,3.34,0,0,0,3.33,3.33Z" transform="translate(9.972 23.312)" fill="#787680"/>
      <path id="Trazado_145822" data-name="Trazado 145822" d="M34.989,44.33V67.636a3.33,3.33,0,0,1-2.6,3.246,3.525,3.525,0,0,1-.733.083H25a3.525,3.525,0,0,0,.733-.083,3.33,3.33,0,0,0,2.6-3.246V44.33a3.36,3.36,0,0,0-2.064-3.08A3.236,3.236,0,0,0,25,41h6.659a3.236,3.236,0,0,1,1.265.25A3.36,3.36,0,0,1,34.989,44.33Z" transform="translate(15.29 25.971)" fill="#787680"/>
      <path id="Trazado_145823" data-name="Trazado 145823" d="M32.966,22.324l9.989,18.313H3L14.653,14l9.989,18.313Z" transform="translate(0.665 8.023)" fill="#9cdd05"/>
      <path id="Trazado_145824" data-name="Trazado 145824" d="M32.6,37.313H25.938L18.58,23.828,22.609,19Z" transform="translate(11.022 11.346)" fill="#5eac24"/>
      <path id="Trazado_145825" data-name="Trazado 145825" d="M21.653,47a11.645,11.645,0,1,1-8.243,3.411A11.643,11.643,0,0,1,21.653,47Z" transform="translate(5.318 29.96)" fill="#c6c5ca"/>
      <path id="Trazado_145826" data-name="Trazado 145826" d="M29.983,58.653A11.678,11.678,0,0,1,18.33,70.307a10.966,10.966,0,0,1-3.33-.5,11.37,11.37,0,0,0,4.811-2.83A11.643,11.643,0,0,0,15,47.483,11.5,11.5,0,0,1,18.33,47,11.653,11.653,0,0,1,29.983,58.653Z" transform="translate(8.642 29.96)" fill="#898890"/>
      <path id="Trazado_145834" data-name="Trazado 145834" d="M3.33,0A3.33,3.33,0,1,1,0,3.33,3.33,3.33,0,0,1,3.33,0Z" transform="translate(23.642 13.699)" fill="#ff9800"/>
      <path id="Trazado_145827" data-name="Trazado 145827" d="M20.994,12.328A3.33,3.33,0,0,1,16,15.208a3.33,3.33,0,0,0,0-5.76,3.33,3.33,0,0,1,4.994,2.88Z" transform="translate(9.307 4.7)" fill="#cd2a00"/>
      <path id="Trazado_145828" data-name="Trazado 145828" d="M17.665,50a1.665,1.665,0,0,0,0,3.33,3.33,3.33,0,0,1,3.33,3.33,1.665,1.665,0,0,0,3.33,0A6.659,6.659,0,0,0,17.665,50Z" transform="translate(9.307 31.954)"/>
      <path id="Trazado_145829" data-name="Trazado 145829" d="M59.653,47H49.665A1.665,1.665,0,0,0,48,48.665v8.324a6.659,6.659,0,1,0,13.318,0V48.665A1.665,1.665,0,0,0,59.653,47Zm-1.665,9.989a3.33,3.33,0,1,1-6.659,0V50.33h6.659Z" transform="translate(30.58 29.96)"/>
      <path id="Trazado_145830" data-name="Trazado 145830" d="M45.084,40.5,35.1,22.19a1.665,1.665,0,0,0-2.747-.266L25.59,30.031,16.783,13.866A1.751,1.751,0,0,0,15.252,13a1.711,1.711,0,0,0-1.465,1L2.133,40.635a1.716,1.716,0,0,0,.133,1.582,1.686,1.686,0,0,0,1.4.749H43.619a1.685,1.685,0,0,0,1.432-.816,1.665,1.665,0,0,0,.033-1.648ZM6.212,39.636l9.273-21.193,8.357,15.333a1.665,1.665,0,0,0,2.747.266l6.759-8.107,7.475,13.7Z" transform="translate(0 7.358)"/>
      <circle id="Elipse_4084" data-name="Elipse 4084" cx="3.33" cy="3.33" r="3.33" transform="translate(60.267 32.011)"/>
      <circle id="Elipse_4085" data-name="Elipse 4085" cx="3.33" cy="3.33" r="3.33" transform="translate(73.585 32.011)"/>
      <path id="Trazado_145831" data-name="Trazado 145831" d="M22.324,40H15.665a1.665,1.665,0,0,0,0,3.33h6.659a1.665,1.665,0,0,0,0-3.33Z" transform="translate(7.977 25.307)"/>
      <path id="Trazado_145832" data-name="Trazado 145832" d="M18.994,17.989A4.994,4.994,0,1,0,14,12.994a4.994,4.994,0,0,0,4.994,4.994Zm0-6.659a1.665,1.665,0,1,1-1.665,1.665A1.665,1.665,0,0,1,18.994,11.33Z" transform="translate(7.977 4.034)"/>
      <circle id="Elipse_4086" data-name="Elipse 4086" cx="3.33" cy="3.33" r="3.33" transform="translate(38.625 71.966)"/>
      <path id="Trazado_145833" data-name="Trazado 145833" d="M86.154,63.276,78.58,62.194V54.735a16.534,16.534,0,0,0,8.257-13,4.756,4.756,0,0,0,1.915-1.182,4.946,4.946,0,0,0,1.482-3.546v-3.33a4.968,4.968,0,0,0-2.863-4.495c7.874-1.182,14.517-3.363,14.517-7.159,0-3.28-4.878-5.677-14.484-7.142l-1-5.993A8.324,8.324,0,0,0,76.182,2.178L71.471,3.36a5,5,0,0,1-2.431,0L64.329,2.178A8.324,8.324,0,0,0,54.107,8.888l-1,5.993c-9.606,1.465-14.484,3.862-14.484,7.142,0,3.8,6.659,5.993,14.533,7.159a4.723,4.723,0,0,0-1.4.949,4.946,4.946,0,0,0-1.482,3.546v3.33a4.994,4.994,0,0,0,3.379,4.728,16.43,16.43,0,0,0,4.828,10.355,15.972,15.972,0,0,0,3.446,2.647v7.458l-7.575,1.082a18.589,18.589,0,0,0-6.343,2.148,5.643,5.643,0,0,0-1.065-.117H40.29a1.665,1.665,0,0,1-1.665-1.665,4.994,4.994,0,0,0-4.994-4.994H20.313a5.009,5.009,0,0,0-4.994,4.994,1.58,1.58,0,0,1-.516,1.182,1.545,1.545,0,0,1-1.149.483H6.994A5.009,5.009,0,0,0,2,70.3V93.608A5.009,5.009,0,0,0,6.994,98.6H18.2a13.223,13.223,0,0,0,17.547,0h11.2c.2,0,.416-.05.616-.067L63.347,101.9a2.482,2.482,0,0,0,.35.033H76.865a2.482,2.482,0,0,0,.35-.033L100.571,96.9a1.665,1.665,0,0,0,1.315-1.631V81.405A18.429,18.429,0,0,0,86.154,63.276ZM57.4,9.42a4.858,4.858,0,0,1,2.181-3.346,4.933,4.933,0,0,1,3.946-.666L68.241,6.59a8.249,8.249,0,0,0,4.029,0l4.711-1.182a4.933,4.933,0,0,1,3.946.666A4.858,4.858,0,0,1,83.108,9.42l1.065,6.393a67.373,67.373,0,0,1-13.917,1.215,67.373,67.373,0,0,1-13.918-1.215ZM41.955,22.056c.133-.483,2.481-2.447,11.354-3.846a1.332,1.332,0,0,0,.633.4,61.061,61.061,0,0,0,16.315,1.748A61.061,61.061,0,0,0,86.57,18.61a1.332,1.332,0,0,0,.633-.4c8.873,1.4,11.221,3.363,11.354,3.779-.483,1.765-10.638,5.028-28.3,5.028s-27.818-3.263-28.3-4.961ZM60.833,49.741a13.167,13.167,0,0,1-3.9-9.406,1.665,1.665,0,0,0-1.665-1.665,1.665,1.665,0,0,1-1.665-1.665v-3.33a1.58,1.58,0,0,1,.516-1.182,1.545,1.545,0,0,1,1.149-.483,1.665,1.665,0,0,0,1.665-1.665v-.683c4.661.483,9.423.683,13.318.683s8.657-.2,13.318-.683v.683a1.665,1.665,0,0,0,1.665,1.665A1.665,1.665,0,0,1,86.9,33.676v3.33a1.58,1.58,0,0,1-.516,1.182,1.545,1.545,0,0,1-1.149.483,1.665,1.665,0,0,0-1.665,1.665,13.318,13.318,0,0,1-22.741,9.406Zm3,15.549a1.665,1.665,0,0,0,1.432-1.648V56.217a16.669,16.669,0,0,0,9.989,0v7.425a1.665,1.665,0,0,0,1.431,1.648l5.844.832C80.594,68.37,76.132,70.3,70.256,70.3S59.917,68.37,57.986,66.122ZM26.972,98.6a9.989,9.989,0,1,1,9.989-9.989A9.989,9.989,0,0,1,26.972,98.6Zm21.642-4.994a1.675,1.675,0,0,1-1.282,1.615,1.614,1.614,0,0,1-.383.05H38.492a13.318,13.318,0,1,0-23.04,0H6.994A1.665,1.665,0,0,1,5.33,93.608V70.3a1.665,1.665,0,0,1,1.665-1.665h6.659a4.994,4.994,0,0,0,4.994-4.994,1.665,1.665,0,0,1,1.665-1.665H33.631a1.58,1.58,0,0,1,1.182.516,1.545,1.545,0,0,1,.483,1.149,5.009,5.009,0,0,0,4.994,4.994h6.659a1.585,1.585,0,0,1,.633.117A1.71,1.71,0,0,1,48.614,70.3Zm49.943.316L76.682,98.6H63.88L51.344,95.939a4.853,4.853,0,0,0,.6-2.331V70.3a4.884,4.884,0,0,0-.8-2.7,15.332,15.332,0,0,1,3.23-.949c2.1,4.112,8.424,6.975,15.882,6.975s13.784-2.863,15.882-6.975a15.073,15.073,0,0,1,12.419,14.75Z" transform="translate(0)"/>
    </g>
  </g>
</svg>
