<svg xmlns="http://www.w3.org/2000/svg" width="334" height="334" viewBox="0 0 334 334">
  <g id="Grupo_84689" data-name="Grupo 84689" transform="translate(-896 -134.279)">
    <g id="Elipse_4068" data-name="Elipse 4068" transform="translate(896 134.279)" fill="#fff1db" stroke="#ff9800" stroke-width="4">
      <circle cx="167" cy="167" r="167" stroke="none"/>
      <circle cx="167" cy="167" r="165" fill="none"/>
    </g>
    <g id="recepcion" transform="translate(1000 241)">
      <g id="_x3C_Group_x3E__16_" transform="translate(1.758 1.758)">
        <path id="Trazado_145464" data-name="Trazado 145464" d="M134.134,7.5h-4.3c-.49,0-1.01.234-1.557.234s-1.144-.234-1.758-.234H36.283c-.614,0-1.2.234-1.758.234-.622,0-1.209-.234-1.758-.234a20,20,0,0,1-3.644.619,1.172,1.172,0,0,0-1.172,1.172l.663,58.178H133.686l1.621-7V8.672A1.172,1.172,0,0,0,134.134,7.5Z" transform="translate(-23.158 -7.5)" fill="#f7f9fa"/>
        <path id="Trazado_145465" data-name="Trazado 145465" d="M31.273,7.5V67.47H27.12l-1.12-7V8.672A1.172,1.172,0,0,1,27.172,7.5Z" transform="translate(-21.664 -7.5)" fill="#e9edf1"/>
        <path id="Trazado_145466" data-name="Trazado 145466" d="M137.212,233.51v7H30.52l-.08-7Z" transform="translate(-25.063 -180.539)" fill="#e9edf1"/>
        <path id="Trazado_145467" data-name="Trazado 145467" d="M129.213,127.5H95.229a1.172,1.172,0,0,0-1.172,1.172v4.1l.234,1.758-.234,1.758v4.453l.234,1.758-.234,1.758v4.336a1.172,1.172,0,0,0,1.172,1.172h33.984a1.172,1.172,0,0,0,1.172-1.172v-4.336l-.234-1.758.234-1.758v-4.453l-.234-1.758.234-1.758v-4.1A1.172,1.172,0,0,0,129.213,127.5Z" transform="translate(-73.77 -99.375)" fill="#8c818f"/>
        <path id="Trazado_145468" data-name="Trazado 145468" d="M162.065,207.266H157.41l-.853-5.92V191.5h7.031v9.846Z" transform="translate(-121.622 -148.375)" fill="#766d78"/>
        <path id="Trazado_145469" data-name="Trazado 145469" d="M156.56,233.51h7.031v5.92H156.56Z" transform="translate(-121.624 -180.539)" fill="#655e67"/>
        <path id="Trazado_145470" data-name="Trazado 145470" d="M330.474,153.165h8.691v12.51h-8.691Z" transform="translate(-254.777 -119.025)" fill="#f2bb88"/>
        <path id="Trazado_145471" data-name="Trazado 145471" d="M317.515,127.98a18.33,18.33,0,0,1,.623,3.226c0,.239-.612.518-.592.758.345,4,3.5,7.969,7.352,7.969s7.006-3.965,7.352-7.969c.021-.24-.612-.519-.612-.758a17.957,17.957,0,0,1,.643-3.226Z" transform="translate(-244.855 -99.742)" fill="#f2d1a5"/>
        <path id="Trazado_145472" data-name="Trazado 145472" d="M309.155,196.428l-9.357-2.25a7.834,7.834,0,0,1-8.691,0l-7.363,1.77-1.866,1.127c-1.58.38-2.2,1.546-2.2,3.171l-.62,10.148h31.792l1-7v-3.551A3.516,3.516,0,0,0,309.155,196.428Z" transform="translate(-215.41 -150.425)" fill="#ff8086"/>
        <path id="Trazado_145473" data-name="Trazado 145473" d="M329.179,98.121H313.687c-.647,0-1.172-.056-1.172-.7V90.152a1.172,1.172,0,0,1,1.172-1.172h15.492a1.172,1.172,0,0,1,1.172,1.172v4.922l-.429,2.173C329.921,97.894,329.826,98.121,329.179,98.121Z" transform="translate(-241.027 -69.883)" fill="#ff8086"/>
        <path id="Trazado_145474" data-name="Trazado 145474" d="M332.276,127.98v3.265c0,.239-.012.48-.03.72h-14.7c-.019-.239-.03-.48-.03-.72V127.98Z" transform="translate(-244.851 -99.742)" fill="#f2bb88"/>
        <path id="Trazado_145475" data-name="Trazado 145475" d="M328.126,95.074v2.344a1.172,1.172,0,0,1-1.172,1.172H310.782a1.172,1.172,0,0,1-1.172-1.172V90.152a1.172,1.172,0,0,1,1.172-1.172h2.109v5.391a.7.7,0,0,0,.7.7Z" transform="translate(-238.803 -69.883)" fill="#e5646e"/>
        <path id="Trazado_145476" data-name="Trazado 145476" d="M283.747,207.772V201.73l-1.995.48a3.515,3.515,0,0,0-2.693,3.417v10.549h32.791v-7h-26.7A1.406,1.406,0,0,1,283.747,207.772Z" transform="translate(-215.413 -156.207)" fill="#e5646e"/>
        <path id="Trazado_145477" data-name="Trazado 145477" d="M26,233.51h5.273v7H26Z" transform="translate(-21.664 -180.539)" fill="#dce6eb"/>
        <path id="Trazado_145478" data-name="Trazado 145478" d="M132.82,464.5H26l1.12,7.316a1.172,1.172,0,0,0,1.172,1.172l1.223.887H132.641a1.172,1.172,0,0,0,1.172-1.172v-2.344Z" transform="translate(-21.664 -357.391)" fill="#f7f9fa"/>
        <path id="Trazado_145479" data-name="Trazado 145479" d="M133.813,464.5v5.859H30.453a.938.938,0,0,0-.937.938v2.578H27.172A1.172,1.172,0,0,1,26,472.7v-8.2Z" transform="translate(-21.664 -357.391)" fill="#e9edf1"/>
        <path id="Trazado_145480" data-name="Trazado 145480" d="M123.984,257.026v2.341l-.234,1.758.234,1.758v12.19l-.234,4.709.234,4.666v12.07l-.234,1.758.234,1.758v1.758a3.517,3.517,0,0,1-3.516,3.516H11.016A3.517,3.517,0,0,1,7.5,301.791l.234-1.758V261.125L7.5,259.367l.352-2.461c0-1.941,1.575-2.812,3.516-2.812l1.53-.584H120.469A3.517,3.517,0,0,1,123.984,257.026Z" transform="translate(-7.5 -195.851)" fill="#ffc571"/>
        <g id="Grupo_55591" data-name="Grupo 55591" transform="translate(28.823 77.463)">
          <path id="Trazado_145481" data-name="Trazado 145481" d="M357.554,347.377h-.01l-1.515.006v-7.616a1.758,1.758,0,0,0-3.516,0v9.367a1.758,1.758,0,0,0,1.461,1.733,7.9,7.9,0,0,0,1.268.034c.51,0,1.245,0,2.321-.009a1.758,1.758,0,0,0-.01-3.515Z" transform="translate(-300.474 -338.01)" fill="#f7f9fa"/>
          <path id="Trazado_145482" data-name="Trazado 145482" d="M138.725,338.011a1.758,1.758,0,0,0-1.758,1.758v2.769h-2.972v-2.769a1.758,1.758,0,0,0-3.516,0v9.375a1.758,1.758,0,0,0,3.516,0v-3.09h2.972v3.09a1.758,1.758,0,0,0,3.516,0v-9.375A1.758,1.758,0,0,0,138.725,338.011Z" transform="translate(-130.479 -338.011)" fill="#f7f9fa"/>
          <path id="Trazado_145483" data-name="Trazado 145483" d="M311.485,341.709a1.758,1.758,0,0,0,0-3.516h-3.914a1.758,1.758,0,0,0-1.758,1.758v9.289A1.758,1.758,0,0,0,307.571,351h3.914a1.758,1.758,0,0,0,0-3.516h-2.156v-1.129H311.2a1.758,1.758,0,0,0,0-3.516h-1.868v-1.129h2.156Z" transform="translate(-264.719 -338.15)" fill="#f7f9fa"/>
          <path id="Trazado_145484" data-name="Trazado 145484" d="M260.658,338.011h-5.177a1.758,1.758,0,1,0,0,3.516h.82v7.617a1.758,1.758,0,0,0,3.516,0v-7.617h.841a1.758,1.758,0,0,0,0-3.516Z" transform="translate(-224.838 -338.011)" fill="#f7f9fa"/>
          <path id="Trazado_145485" data-name="Trazado 145485" d="M194.605,338.011a6.445,6.445,0,1,0,6.445,6.445A6.452,6.452,0,0,0,194.605,338.011Zm0,9.375a2.93,2.93,0,1,1,2.93-2.93A2.933,2.933,0,0,1,194.605,347.386Z" transform="translate(-174.641 -338.011)" fill="#f7f9fa"/>
        </g>
        <path id="Trazado_145486" data-name="Trazado 145486" d="M427.57,354.886H404.723a.7.7,0,0,1-.7-.7v-7.969a.7.7,0,0,1,.7-.7H427.57Z" transform="translate(-311.086 -266.29)" fill="#f7f9fa"/>
        <path id="Trazado_145487" data-name="Trazado 145487" d="M123.984,300.033v1.758a3.517,3.517,0,0,1-3.516,3.516H11.016A3.517,3.517,0,0,1,7.5,301.791v-1.758l.234-1.725L7.5,296.518v-12.07l.234-4.687L7.5,275.115V262.883l.234-1.758L7.5,259.367v-2.341a3.517,3.517,0,0,1,3.516-3.516H12.9l.007,5.857-.831,1.758.836,1.758.014,12.232-1.829,4.667,1.843,4.666.014,12.07,0,3.516L73.9,298.276Z" transform="translate(-7.5 -195.851)" fill="#ffd494"/>
        <path id="Trazado_145488" data-name="Trazado 145488" d="M34.086,355.026h-21.7v-9.332h21.7a.7.7,0,0,1,.7.7v7.926A.7.7,0,0,1,34.086,355.026Z" transform="translate(-11.239 -266.43)" fill="#f7f9fa"/>
        <path id="Trazado_145489" data-name="Trazado 145489" d="M12.938,355.023H7.5V345.69h5.423Z" transform="translate(-7.5 -266.427)" fill="#e9edf1"/>
      </g>
      <g id="Grupo_55592" data-name="Grupo 55592">
        <path id="Trazado_145490" data-name="Trazado 145490" d="M115.664,57.744V2.93A2.933,2.933,0,0,0,112.734,0H7.266a2.933,2.933,0,0,0-2.93,2.93V27.691a1.758,1.758,0,0,0,3.516,0V3.516h3.516V57.659H7.852V36.109a1.758,1.758,0,0,0-3.516,0V57.744A5.281,5.281,0,0,0,0,62.932V107.7a5.281,5.281,0,0,0,4.336,5.188v4.184A2.933,2.933,0,0,0,7.266,120H112.734a2.933,2.933,0,0,0,2.93-2.93v-4.184A5.281,5.281,0,0,0,120,107.7V62.932A5.281,5.281,0,0,0,115.664,57.744Zm.82,30.852H96.45V82.737h20.034ZM5.273,61.174H50.605a1.758,1.758,0,0,0,0-3.516H45.482V53.906H57.2a2.933,2.933,0,0,0,2.93-2.93V31.055a2.933,2.933,0,0,0-2.93-2.93H23.216a2.933,2.933,0,0,0-2.93,2.93V50.977a2.933,2.933,0,0,0,2.93,2.93H34.935v3.753H14.883V3.516h90.234V14.287a1.758,1.758,0,1,0,3.516,0V3.516h3.516V57.659h-3.516V22.4a1.758,1.758,0,1,0-3.516,0V57.659H99.955v-6.48a5.258,5.258,0,0,0-4.041-5.127L87.9,44.125V39.182a11.525,11.525,0,0,0,3.037-7.562V30.39a2.932,2.932,0,0,0,1.9-2.738V20.386a2.933,2.933,0,0,0-2.93-2.93H73.737a2.933,2.933,0,0,0-2.93,2.93v7.266a2.933,2.933,0,0,0,1.852,2.722v1.246A11.526,11.526,0,0,0,75.7,39.182v4.944l-8.01,1.926a5.258,5.258,0,0,0-4.041,5.127v6.48H58.823a1.758,1.758,0,0,0,0,3.516h55.9a1.76,1.76,0,0,1,1.758,1.758v2.341H3.516V62.932a1.76,1.76,0,0,1,1.758-1.758Zm31.42-18.049H23.8V38.672H56.615v4.453H36.693Zm8.789,3.516H56.615v3.75H45.482ZM56.615,35.156H23.8V31.641H56.615ZM23.8,46.641H34.935v3.75H23.8Zm14.648,0h3.516V57.659H38.451ZM74.323,27.066V20.972h15v6.094ZM79.213,41.6a7.374,7.374,0,0,0,5.176,0V44.49a6.054,6.054,0,0,1-5.176,0Zm8.213-11.015v1.038c0,3.139-2.509,6.931-5.625,6.931s-5.625-3.791-5.625-6.931V30.581ZM77.162,47.389a9.561,9.561,0,0,0,9.276,0l8.654,2.08a1.753,1.753,0,0,1,1.347,1.709v6.48H67.162v-6.48a1.752,1.752,0,0,1,1.347-1.709ZM3.516,82.78H23.55V88.6H3.516Zm108.633,33.7H7.852v-3.516h104.3Zm2.578-7.029h-.77l-.05,0H6.094l-.05,0h-.77A1.76,1.76,0,0,1,3.516,107.7V105.94H73.01a1.758,1.758,0,0,0,0-3.516H3.516V92.112H24.6a2.464,2.464,0,0,0,2.461-2.461V81.725A2.464,2.464,0,0,0,24.6,79.264H3.516V68.789H116.484V79.221H95.4a2.464,2.464,0,0,0-2.461,2.461v7.969A2.464,2.464,0,0,0,95.4,92.112h21.089v10.313H81.268a1.758,1.758,0,0,0,0,3.516h35.216V107.7A1.76,1.76,0,0,1,114.727,109.456Z"/>
        <path id="Trazado_145491" data-name="Trazado 145491" d="M353.975,350.868c.546.062,2.141.024,3.589.025a1.758,1.758,0,0,0-.01-3.516h-.01l-1.515.006v-7.616a1.758,1.758,0,0,0-3.516,0v9.367a1.758,1.758,0,0,0,1.461,1.733Z" transform="translate(-269.893 -258.789)"/>
        <path id="Trazado_145492" data-name="Trazado 145492" d="M138.725,338.011a1.758,1.758,0,0,0-1.758,1.758v2.769h-2.972v-2.769a1.758,1.758,0,0,0-3.516,0v9.375a1.758,1.758,0,0,0,3.516,0v-3.09h2.972v3.09a1.758,1.758,0,0,0,3.516,0v-9.375A1.758,1.758,0,0,0,138.725,338.011Z" transform="translate(-99.898 -258.79)"/>
        <path id="Trazado_145493" data-name="Trazado 145493" d="M311.485,341.709a1.758,1.758,0,0,0,0-3.516h-3.914a1.758,1.758,0,0,0-1.758,1.758v9.289A1.758,1.758,0,0,0,307.571,351h3.914a1.758,1.758,0,0,0,0-3.516h-2.156v-1.129H311.2a1.758,1.758,0,0,0,0-3.516h-1.868v-1.129h2.156Z" transform="translate(-234.138 -258.929)"/>
        <path id="Trazado_145494" data-name="Trazado 145494" d="M260.658,338.011h-5.177a1.758,1.758,0,1,0,0,3.516h.82v7.617a1.758,1.758,0,0,0,3.516,0v-7.617h.841a1.758,1.758,0,0,0,0-3.516Z" transform="translate(-194.257 -258.79)"/>
        <path id="Trazado_145495" data-name="Trazado 145495" d="M194.605,338.011a6.445,6.445,0,1,0,6.445,6.445A6.452,6.452,0,0,0,194.605,338.011Zm0,9.375a2.93,2.93,0,1,1,2.93-2.93A2.933,2.933,0,0,1,194.605,347.386Z" transform="translate(-144.06 -258.79)"/>
      </g>
    </g>
  </g>
</svg>
