<svg xmlns="http://www.w3.org/2000/svg" width="191" height="191" viewBox="0 0 191 191">
  <g id="Grupo_84689" data-name="Grupo 84689" transform="translate(-705 -6471)">
    <circle id="Elipse_4079" data-name="Elipse 4079" cx="95.5" cy="95.5" r="95.5" transform="translate(705 6471)" fill="#fff1db"/>
    <g id="mapa-de-viaje" transform="translate(749 6510.295)">
      <path id="Trazado_145777" data-name="Trazado 145777" d="M50.387,32H26.194L2,80.387H98.774L74.581,32H56.839" transform="translate(0.613 19)" fill="#ffb74d"/>
      <path id="Trazado_145778" data-name="Trazado 145778" d="M79.71,49H19.226A3.225,3.225,0,0,0,16,52.226V60.29a3.225,3.225,0,0,0,3.226,3.226H86.968Z" transform="translate(9.194 29.419)" fill="#fff1db"/>
      <path id="Trazado_145779" data-name="Trazado 145779" d="M11,50.129H62.613A3.225,3.225,0,0,0,65.839,46.9V37.226A3.225,3.225,0,0,0,62.613,34H19.065Z" transform="translate(6.129 20.226)" fill="#fff1db"/>
      <path id="Trazado_145780" data-name="Trazado 145780" d="M57.387,57.806H83.194l-3.226-6.452H54.161L39.645,65.871l-9.677-9.677,9.677-9.677V32H33.194V43.29l-8.065,8.065-8.6-8.6L13.3,49.2l13.44,13.44L9,80.387h9.677l12.9-12.9,12.9,12.9h9.677L44.484,70.71Z" transform="translate(4.098 19.001)" fill="#636363"/>
      <path id="Trazado_145784" data-name="Trazado 145784" d="M57.29,61.677,50.839,52,46,56.839v4.839" transform="translate(27.581 31.258)" fill="#7bdf45"/>
      <path id="Trazado_145785" data-name="Trazado 145785" d="M10,2h6.452V50.387H10Z" transform="translate(5.517 0.613)" fill="#8389b2"/>
      <path id="Trazado_145786" data-name="Trazado 145786" d="M10,2V45.548h1.613a1.613,1.613,0,0,0,1.613-1.613V2Z" transform="translate(5.517 0.613)" fill="#a3a7c6"/>
      <path id="Trazado_145787" data-name="Trazado 145787" d="M31.032,15.677H2l3.226-4.839L2,6H31.032l3.226,4.839Z" transform="translate(0.613 3.065)" fill="#ffee58"/>
      <path id="Trazado_145789" data-name="Trazado 145789" d="M40,62.29,46.452,51,52.9,62.29" transform="translate(23.904 30.645)" fill="#6bc13b"/>
      <g id="Grupo_83594" data-name="Grupo 83594" transform="translate(26.807 12.29)">
        <path id="Trazado_145790" data-name="Trazado 145790" d="M17,8h3.226v3.226H17Z" transform="translate(-17 -8)" fill="#fff"/>
      </g>
      <g id="Grupo_83595" data-name="Grupo 83595" transform="translate(20.355 12.29)">
        <path id="Trazado_145791" data-name="Trazado 145791" d="M13,8h3.226v3.226H13Z" transform="translate(-13 -8)" fill="#fff"/>
      </g>
      <path id="Trazado_145792" data-name="Trazado 145792" d="M5.226,25.677H34.258l-3.226-4.839L34.258,16H5.226L2,20.839Z" transform="translate(0.613 9.194)" fill="#ffee58"/>
      <g id="Grupo_83596" data-name="Grupo 83596" transform="translate(7.452 28.419)">
        <path id="Trazado_145794" data-name="Trazado 145794" d="M5,18H8.226v3.226H5Z" transform="translate(-5 -18)" fill="#fff"/>
      </g>
      <g id="Grupo_83597" data-name="Grupo 83597" transform="translate(13.904 28.419)">
        <path id="Trazado_145795" data-name="Trazado 145795" d="M9,18h3.226v3.226H9Z" transform="translate(-9 -18)" fill="#fff"/>
      </g>
      <path id="Trazado_145796" data-name="Trazado 145796" d="M73.29,57H37v3.226H74.9Z" transform="translate(22.065 34.323)" fill="#61668c"/>
      <path id="Trazado_145797" data-name="Trazado 145797" d="M54.032,26.516A14.516,14.516,0,1,0,35.665,40.5l3.852,16.663L43.368,40.5A14.508,14.508,0,0,0,54.032,26.516Z" transform="translate(14.71 6.742)" fill="#ff9800"/>
      <path id="Trazado_145798" data-name="Trazado 145798" d="M39.516,12a14.5,14.5,0,0,0-9.1,25.806h13.94a1.613,1.613,0,0,0,1.613-1.613V13.527A14.417,14.417,0,0,0,39.516,12Z" transform="translate(14.71 6.742)" fill="#ff9800"/>
      <g id="Grupo_83598" data-name="Grupo 83598" transform="translate(54.226 23.581)">
        <path id="Trazado_145799" data-name="Trazado 145799" d="M43.677,24.677H40.452A6.458,6.458,0,0,0,34,18.226V15A9.687,9.687,0,0,1,43.677,24.677Z" transform="translate(-34 -15)" fill="#559b2d"/>
      </g>
      <g id="Grupo_83599" data-name="Grupo 83599" transform="translate(58.097 35.839)">
        <path id="Trazado_145800" data-name="Trazado 145800" d="M38.337,27.761,36.4,25.181A6.473,6.473,0,0,0,38.447,22.6L41.4,23.89a9.725,9.725,0,0,1-3.065,3.871Z" transform="translate(-36.4 -22.6)" fill="#559b2d"/>
      </g>
      <path id="Trazado_145801" data-name="Trazado 145801" d="M25.363,44.15,1.17,92.537a1.613,1.613,0,0,0,1.444,2.334H99.388a1.613,1.613,0,0,0,1.444-2.334L76.638,44.15a1.615,1.615,0,0,0-1.444-.892H59.238l.2-.879a16.129,16.129,0,1,0-10.429,0l.2.879H26.807A1.615,1.615,0,0,0,25.363,44.15ZM39.71,56.161V46.484h3.226V58.719l-9.2,9.2a1.611,1.611,0,0,0,0,2.281l9.677,9.677a1.612,1.612,0,0,0,2.281,0L59.733,65.839H83.875l1.613,3.226h-23.2a1.606,1.606,0,0,0-1.14.473l-12.9,12.9a1.611,1.611,0,0,0,0,2.281l6.924,6.924H50.055L37.625,79.215a1.611,1.611,0,0,0-2.281,0L22.913,91.645H17.8L32.786,76.656a1.611,1.611,0,0,0,0-2.281L20.167,61.756l1.7-3.411,7.019,7.019a1.612,1.612,0,0,0,2.282,0L39.238,57.3a1.609,1.609,0,0,0,.473-1.14Zm5.784,35.484H27.475l9.01-9.01ZM18.647,64.8,29.365,75.516,13.236,91.645H5.223ZM59.733,91.645l-8.065-8.065,11.29-11.29H87.1l6.452,12.9H85.734l-5.973-8.96a1.613,1.613,0,0,0-2.482-.245L74.226,79.04l-2.471-4.326a1.677,1.677,0,0,0-2.8,0L62.968,85.194h-3.9v3.226h36.1l1.613,3.226Zm14.3-6.452H66.683l3.673-6.426Zm3.715,0-1.856-3.25,2.284-2.282,3.689,5.532ZM41.323,27.129A12.9,12.9,0,1,1,57.65,39.556a1.615,1.615,0,0,0-1.144,1.192l-2.281,9.866-2.281-9.866A1.612,1.612,0,0,0,50.8,39.556a12.927,12.927,0,0,1-9.479-12.427ZM52.654,58.137a1.614,1.614,0,0,0,3.145,0l2.694-11.653H74.2l8.065,16.129h-23.2a1.606,1.606,0,0,0-1.14.473L44.549,76.461l-7.4-7.4,8.537-8.537a1.609,1.609,0,0,0,.473-1.14v-12.9h3.8ZM36.484,46.484v9.01l-6.452,6.452-6.64-6.64L27.8,46.484Z" transform="translate(0 6.129)"/>
      <path id="Trazado_145802" data-name="Trazado 145802" d="M40.452,24.677h3.226A9.687,9.687,0,0,0,34,15v3.226A6.458,6.458,0,0,1,40.452,24.677Z" transform="translate(20.226 8.581)"/>
      <path id="Trazado_145803" data-name="Trazado 145803" d="M36.4,25.181l1.937,2.581A9.707,9.707,0,0,0,41.4,23.89L38.444,22.6A6.441,6.441,0,0,1,36.4,25.181Z" transform="translate(21.697 13.239)"/>
      <path id="Trazado_145804" data-name="Trazado 145804" d="M21.968,1H15.516A1.612,1.612,0,0,0,13.9,2.613V7.452H2.613A1.612,1.612,0,0,0,1.271,9.958L3.9,13.9,1.271,17.847a1.613,1.613,0,0,0,1.342,2.508H13.9v3.226H5.839A1.615,1.615,0,0,0,4.5,24.3L1.271,29.137a1.611,1.611,0,0,0,0,1.789L4.5,35.765a1.613,1.613,0,0,0,1.342.719H13.9V51a1.612,1.612,0,0,0,1.613,1.613h6.452A1.612,1.612,0,0,0,23.581,51V36.484h11.29a1.612,1.612,0,0,0,1.342-2.506l-2.629-3.945,2.629-3.944a1.613,1.613,0,0,0-1.342-2.508H23.581V20.355h8.065a1.615,1.615,0,0,0,1.342-.718L36.213,14.8a1.611,1.611,0,0,0,0-1.789L32.987,8.171a1.613,1.613,0,0,0-1.342-.719H23.581V2.613A1.612,1.612,0,0,0,21.968,1ZM17.129,4.226h3.226V7.452H17.129Zm3.226,45.161H17.129v-12.9h3.226ZM30.3,30.927l1.555,2.331H6.7l-2.15-3.226L6.7,26.806H31.858L30.3,29.137A1.614,1.614,0,0,0,30.3,30.927Zm-9.948-7.347H17.129V20.355h3.226ZM32.932,13.9l-2.15,3.226H5.626L7.181,14.8a1.611,1.611,0,0,0,0-1.789L5.626,10.677H30.782Z" transform="translate(0)"/>
      <path id="Trazado_145805" data-name="Trazado 145805" d="M5,18H8.226v3.226H5Z" transform="translate(2.452 10.419)"/>
      <path id="Trazado_145806" data-name="Trazado 145806" d="M9,18h3.226v3.226H9Z" transform="translate(4.904 10.419)"/>
      <path id="Trazado_145807" data-name="Trazado 145807" d="M17,8h3.226v3.226H17Z" transform="translate(9.807 4.29)"/>
      <path id="Trazado_145808" data-name="Trazado 145808" d="M13,8h3.226v3.226H13Z" transform="translate(7.355 4.29)"/>
    </g>
  </g>
</svg>
