<svg xmlns="http://www.w3.org/2000/svg" width="97.27" height="120" viewBox="0 0 97.27 120">
  <g id="brujula" transform="translate(-11.365)">
    <g id="Grupo_83958" data-name="Grupo 83958">
      <path id="Trazado_147117" data-name="Trazado 147117" d="M60,1.758A11.364,11.364,0,1,0,71.364,13.122,11.364,11.364,0,0,0,60,1.758ZM60,16.91a3.788,3.788,0,1,1,3.788-3.788A3.788,3.788,0,0,1,60,16.91Z" fill="#ffee58"/>
    </g>
    <g id="Grupo_83959" data-name="Grupo 83959">
      <path id="Trazado_147118" data-name="Trazado 147118" d="M65.692,3.287A11.362,11.362,0,0,1,50.165,18.814,11.363,11.363,0,1,0,65.692,3.287Z" fill="#ffee58"/>
    </g>
    <g id="Grupo_83960" data-name="Grupo 83960">
      <path id="Trazado_147134" data-name="Trazado 147134" d="M46.878,0A46.878,46.878,0,1,1,0,46.878,46.878,46.878,0,0,1,46.878,0Z" transform="translate(13.122 24.487)" fill="#ffee58"/>
    </g>
    <g id="Grupo_83961" data-name="Grupo 83961">
      <path id="Trazado_147119" data-name="Trazado 147119" d="M87.39,33.32A46.879,46.879,0,0,1,21.956,98.755,46.878,46.878,0,1,0,87.39,33.32Z" fill="#ffee58"/>
    </g>
    <g id="Grupo_83962" data-name="Grupo 83962">
      <circle id="Elipse_4144" data-name="Elipse 4144" cx="37.408" cy="37.408" r="37.408" transform="translate(22.592 33.957)" fill="#f4fbff"/>
    </g>
    <g id="Grupo_83964" data-name="Grupo 83964">
      <path id="Trazado_147121" data-name="Trazado 147121" d="M63.788,34.147a37.705,37.705,0,0,0-7.576,0V39.4a2.368,2.368,0,0,0,2.368,2.368h2.841A2.368,2.368,0,0,0,63.788,39.4Z" fill="#407093"/>
    </g>
    <g id="Grupo_83965" data-name="Grupo 83965">
      <path id="Trazado_147122" data-name="Trazado 147122" d="M22.783,67.576a37.7,37.7,0,0,0,0,7.576h5.255a2.368,2.368,0,0,0,2.368-2.368V69.944a2.368,2.368,0,0,0-2.368-2.368Z" fill="#407093"/>
    </g>
    <g id="Grupo_83966" data-name="Grupo 83966">
      <path id="Trazado_147123" data-name="Trazado 147123" d="M56.212,108.581a37.705,37.705,0,0,0,7.576,0v-5.255a2.368,2.368,0,0,0-2.368-2.368H58.579a2.368,2.368,0,0,0-2.368,2.368Z" fill="#407093"/>
    </g>
    <g id="Grupo_83967" data-name="Grupo 83967">
      <path id="Trazado_147124" data-name="Trazado 147124" d="M97.217,75.152a37.705,37.705,0,0,0,0-7.576H91.962a2.368,2.368,0,0,0-2.368,2.368v2.841a2.368,2.368,0,0,0,2.368,2.368Z" fill="#407093"/>
    </g>
    <g id="Grupo_83974" data-name="Grupo 83974">
      <g id="Grupo_83968" data-name="Grupo 83968">
        <path id="Trazado_147125" data-name="Trazado 147125" d="M78.415,52.949,54.978,66.342,60,71.364l5.022,5.022Z" fill="#ff9800"/>
      </g>
      <g id="Grupo_83969" data-name="Grupo 83969">
        <path id="Trazado_147126" data-name="Trazado 147126" d="M78.415,52.949,60,71.364l5.022,5.022Z" fill="#ff9800"/>
      </g>
      <g id="Grupo_83970" data-name="Grupo 83970">
        <path id="Trazado_147127" data-name="Trazado 147127" d="M41.417,89.947l23.605-13.56L60,71.364l-5.022-5.022Z" fill="#ffb74d"/>
      </g>
      <g id="Grupo_83971" data-name="Grupo 83971">
        <path id="Trazado_147128" data-name="Trazado 147128" d="M41.417,89.947l23.605-13.56L60,71.364Z" fill="#ffb74d"/>
      </g>
      <g id="Grupo_83972" data-name="Grupo 83972">
        <circle id="Elipse_4145" data-name="Elipse 4145" cx="8.523" cy="8.523" r="8.523" transform="translate(51.477 62.841)" fill="#ffee58"/>
      </g>
    </g>
    <g id="Grupo_83975" data-name="Grupo 83975">
      <path id="Trazado_147130" data-name="Trazado 147130" d="M60,7.576a5.546,5.546,0,1,0,5.546,5.546A5.552,5.552,0,0,0,60,7.576Zm0,7.576a2.03,2.03,0,1,1,2.03-2.03A2.033,2.033,0,0,1,60,15.152Z"/>
      <path id="Trazado_147131" data-name="Trazado 147131" d="M68.129,23.413A13.111,13.111,0,0,0,71.154,6.207a1.758,1.758,0,1,0-2.986,1.855,9.594,9.594,0,1,1-5.416-4.146,1.758,1.758,0,1,0,1-3.37,13.118,13.118,0,0,0-11.891,22.86,48.188,48.188,0,0,0-20.159,8.4,1.758,1.758,0,0,0,2.048,2.858A45.143,45.143,0,1,1,27.761,39.8a1.758,1.758,0,0,0-2.512-2.46A48.635,48.635,0,1,0,68.129,23.413Z"/>
      <path id="Trazado_147132" data-name="Trazado 147132" d="M93.857,87.366a1.758,1.758,0,0,0,2.3-.944A39.167,39.167,0,1,0,60,110.529,39.267,39.267,0,0,0,92,93.921a1.758,1.758,0,0,0-2.871-2.03,35.8,35.8,0,0,1-23.586,14.682v-3.247A4.13,4.13,0,0,0,61.42,99.2H58.579a4.13,4.13,0,0,0-4.126,4.125v3.255A35.735,35.735,0,0,1,24.781,76.91h3.257a4.13,4.13,0,0,0,4.125-4.125V69.944a4.13,4.13,0,0,0-4.125-4.125H24.781A35.737,35.737,0,0,1,54.454,36.146V39.4a4.13,4.13,0,0,0,4.126,4.125H61.42A4.13,4.13,0,0,0,65.546,39.4V36.146A35.736,35.736,0,0,1,95.219,65.818H91.962a4.13,4.13,0,0,0-4.125,4.125v2.841a4.13,4.13,0,0,0,4.125,4.125H95.22a35.224,35.224,0,0,1-2.307,8.156,1.758,1.758,0,0,0,.944,2.3ZM57.97,103.326a.611.611,0,0,1,.61-.61h2.841a.611.611,0,0,1,.61.61v3.627c-.674.039-1.351.06-2.03.06s-1.358-.021-2.03-.059v-3.628ZM28.038,69.334a.61.61,0,0,1,.61.61v2.841a.61.61,0,0,1-.61.61h-3.63c-.038-.672-.059-1.348-.059-2.03s.021-1.358.059-2.031h3.63ZM62.03,39.4a.611.611,0,0,1-.61.61H58.579a.611.611,0,0,1-.61-.61V35.773c.672-.038,1.349-.059,2.03-.059s1.358.021,2.03.059V39.4ZM91.962,73.395a.61.61,0,0,1-.61-.61V69.944a.61.61,0,0,1,.61-.61h3.63c.038.672.059,1.349.059,2.031s-.021,1.356-.059,2.03h-3.63Z"/>
      <path id="Trazado_147133" data-name="Trazado 147133" d="M79.658,51.707a1.756,1.756,0,0,0-2.115-.283L60.595,61.107A10.262,10.262,0,0,0,49.741,71.93L39.892,89.07a1.758,1.758,0,0,0,2.4,2.4l17.135-9.842c.19.01.381.017.574.017A10.271,10.271,0,0,0,70.257,70.769l9.684-16.947a1.758,1.758,0,0,0-.283-2.115ZM46.181,85.182l4.95-8.616A10.326,10.326,0,0,0,54.8,80.234Zm18.6-9.034a6.762,6.762,0,1,1,0-9.567,6.772,6.772,0,0,1,0,9.567Zm4.071-10.01a10.315,10.315,0,0,0-3.628-3.628l8.465-4.836Z"/>
    </g>
  </g>
</svg>
