<svg xmlns="http://www.w3.org/2000/svg" width="80" height="80" viewBox="0 0 80 80">
  <g id="charla" transform="translate(0 -0.001)">
    <path id="Trazado_146759" data-name="Trazado 146759" d="M276,14.064V24.689a4.063,4.063,0,0,0,4.063,4.063h8.75v6.321l6.321-6.321H307.25a4.063,4.063,0,0,0,4.063-4.063V14.064A4.063,4.063,0,0,0,307.25,10H280.063A4.063,4.063,0,0,0,276,14.064Z" transform="translate(-232.875 -8.438)" fill="#fff1db"/>
    <path id="Trazado_146760" data-name="Trazado 146760" d="M45.313,14.064V30.939A4.063,4.063,0,0,1,41.25,35H32.5v6.321L26.179,35H14.063A4.063,4.063,0,0,1,10,30.939V14.064A4.063,4.063,0,0,1,14.063,10H41.25A4.063,4.063,0,0,1,45.313,14.064Z" transform="translate(-8.438 -8.438)" fill="#ffb74d"/>
    <path id="Trazado_146761" data-name="Trazado 146761" d="M104.748,269.429H99.584V271.9a10.562,10.562,0,0,0,10.562,10.562h0A10.562,10.562,0,0,0,120.709,271.9v-2.471l-7.066-4.151A11.6,11.6,0,0,1,104.748,269.429Z" transform="translate(-84.024 -223.827)" fill="#ffcdac"/>
    <path id="Trazado_146762" data-name="Trazado 146762" d="M48.646,370.1v1.67a3.5,3.5,0,0,1-2.86,3.438l-5.867,1.085a9.7,9.7,0,0,0-7.934,9.535v4.881H74.235V385.83a9.7,9.7,0,0,0-7.934-9.535l-5.87-1.085a3.5,3.5,0,0,1-2.86-3.438V370.1" transform="translate(-26.987 -312.273)" fill="#ff9800"/>
    <path id="Trazado_146763" data-name="Trazado 146763" d="M244.5,324.958v1.632a3.416,3.416,0,0,0,2.795,3.359l5.735,1.06a9.475,9.475,0,0,1,7.752,9.317v12.3H232.877V347.74a9.7,9.7,0,0,0-7.934-9.535l-4.937-.913a9.475,9.475,0,0,1,7.252-6.283l5.732-1.06a3.416,3.416,0,0,0,2.795-3.359v-1.632H244.5Z" transform="translate(-185.629 -274.182)" fill="#ffee58"/>
    <path id="Trazado_146764" data-name="Trazado 146764" d="M319.154,337.466l5.508-8.319a3.412,3.412,0,0,1-1.153-2.556v-1.632H314.79v1.632a3.411,3.411,0,0,1-1.149,2.552Z" transform="translate(-264.635 -274.183)" fill="#ffb487"/>
    <path id="Trazado_146765" data-name="Trazado 146765" d="M293.175,170.458h0a10.32,10.32,0,0,1,10.32,10.32v2.484h-5.046a11.338,11.338,0,0,1-8.69-4.056h0l-6.9,4.056v-2.484A10.32,10.32,0,0,1,293.175,170.458Z" transform="translate(-238.659 -143.823)" fill="#f5b955"/>
    <path id="Trazado_146766" data-name="Trazado 146766" d="M290.113,229h-1.033l-6.225,3.657v1.8a10.32,10.32,0,0,0,10.32,10.32h0a10.32,10.32,0,0,0,10.32-10.32v-1.8H298.45A11.337,11.337,0,0,1,290.113,229Z" transform="translate(-238.66 -193.219)" fill="#ffb487"/>
    <path id="Trazado_146767" data-name="Trazado 146767" d="M110.146,211.974h0a10.562,10.562,0,0,0-10.562,10.562v1.918h5.164a11.6,11.6,0,0,0,8.895-4.151h0l7.066,4.151v-1.918A10.562,10.562,0,0,0,110.146,211.974Z" transform="translate(-84.024 -178.852)" fill="#878791"/>
    <path id="Trazado_146768" data-name="Trazado 146768" d="M136.682,381.665l5.647-7.267a3.492,3.492,0,0,1-1.189-2.625V370.1h-8.924v1.67a3.492,3.492,0,0,1-1.186,2.621Z" transform="translate(-110.557 -312.274)" fill="#ffcdac"/>
    <path id="Trazado_146769" data-name="Trazado 146769" d="M48.9,43.355H69.421a1.563,1.563,0,0,0,0-3.125H48.9a1.563,1.563,0,0,0,0,3.125Z" transform="translate(-39.943 -33.943)"/>
    <path id="Trazado_146770" data-name="Trazado 146770" d="M48.9,83.354H69.421a1.563,1.563,0,0,0,0-3.125H48.9a1.563,1.563,0,0,0,0,3.125Z" transform="translate(-39.943 -67.692)"/>
    <path id="Trazado_146771" data-name="Trazado 146771" d="M59.182,120.23H48.9a1.562,1.562,0,1,0,0,3.125h10.28a1.562,1.562,0,1,0,0-3.125Z" transform="translate(-39.943 -101.443)"/>
    <path id="Trazado_146772" data-name="Trazado 146772" d="M157.15,120.229h-.016a1.563,1.563,0,1,0,0,3.125h.016a1.563,1.563,0,1,0,0-3.125Z" transform="translate(-131.264 -101.442)"/>
    <path id="Trazado_146773" data-name="Trazado 146773" d="M330.421,40.23H309.9a1.563,1.563,0,0,0,0,3.125h20.519a1.563,1.563,0,0,0,0-3.125Z" transform="translate(-260.162 -33.943)"/>
    <path id="Trazado_146774" data-name="Trazado 146774" d="M320.183,80.23H309.9a1.563,1.563,0,0,0,0,3.125h10.28a1.563,1.563,0,0,0,0-3.125Z" transform="translate(-260.162 -67.693)"/>
    <path id="Trazado_146775" data-name="Trazado 146775" d="M418.15,80.229h-.016a1.563,1.563,0,0,0,0,3.125h.016a1.563,1.563,0,0,0,0-3.125Z" transform="translate(-351.483 -67.692)"/>
    <path id="Trazado_146776" data-name="Trazado 146776" d="M134.785,307.234a1.56,1.56,0,1,0-.456,1.1A1.57,1.57,0,0,0,134.785,307.234Z" transform="translate(-111.088 -257.909)"/>
    <path id="Trazado_146777" data-name="Trazado 146777" d="M184.262,308.8a1.563,1.563,0,1,0-1.1-.458A1.572,1.572,0,0,0,184.262,308.8Z" transform="translate(-154.153 -257.909)"/>
    <path id="Trazado_146778" data-name="Trazado 146778" d="M153.207,331.818a1.563,1.563,0,0,0-2.21,0,.535.535,0,0,1-.756,0,1.562,1.562,0,0,0-2.21,2.21,3.664,3.664,0,0,0,5.175,0A1.562,1.562,0,0,0,153.207,331.818Z" transform="translate(-124.516 -279.584)"/>
    <path id="Trazado_146779" data-name="Trazado 146779" d="M316.513,261.684a1.56,1.56,0,1,0-.456,1.1A1.577,1.577,0,0,0,316.513,261.684Z" transform="translate(-264.423 -219.476)"/>
    <path id="Trazado_146780" data-name="Trazado 146780" d="M332.72,286.266a.534.534,0,0,1-.756,0,1.562,1.562,0,0,0-2.21,2.21,3.659,3.659,0,0,0,5.175,0,1.563,1.563,0,1,0-2.21-2.21Z" transform="translate(-277.844 -241.15)"/>
    <path id="Trazado_146781" data-name="Trazado 146781" d="M74.375,0H47.188a5.631,5.631,0,0,0-5.625,5.625V16.251a5.631,5.631,0,0,0,5.625,5.625h7.187v3.2A11.894,11.894,0,0,0,42.634,36.955v4.288a11.887,11.887,0,0,0,5.959,10.294v.87a1.854,1.854,0,0,1-1.516,1.823l-5.733,1.06a11.047,11.047,0,0,0-7.917,6.029A1.933,1.933,0,0,1,32.145,59.5v-.91a12.13,12.13,0,0,0,6.1-10.516V43.684A12.139,12.139,0,0,0,26.122,31.559c-.167,0-.332.006-.5.013V28.126h7.188A5.631,5.631,0,0,0,38.437,22.5V5.626A5.631,5.631,0,0,0,32.812,0H5.625A5.631,5.631,0,0,0,0,5.626V22.5a5.631,5.631,0,0,0,5.625,5.625H17.094l4.367,4.367A12.143,12.143,0,0,0,14,43.684v4.388a12.129,12.129,0,0,0,6.1,10.515V59.5a1.934,1.934,0,0,1-1.582,1.9l-5.867,1.085A11.26,11.26,0,0,0,3.435,73.557v4.881A1.563,1.563,0,0,0,5,80H75.156a1.562,1.562,0,0,0,1.563-1.562v-12.3A11.038,11.038,0,0,0,67.688,55.29l-5.735-1.06a1.854,1.854,0,0,1-1.517-1.823v-.869a11.887,11.887,0,0,0,5.962-10.3V36.955A11.9,11.9,0,0,0,58.877,25.9l4.029-4.029H74.375A5.631,5.631,0,0,0,80,16.251V5.626A5.631,5.631,0,0,0,74.375,0ZM17.741,25H5.625a2.5,2.5,0,0,1-2.5-2.5V5.626a2.5,2.5,0,0,1,2.5-2.5H32.813a2.5,2.5,0,0,1,2.5,2.5V22.5a2.5,2.5,0,0,1-2.5,2.5h-8.75A1.562,1.562,0,0,0,22.5,26.564v2.549l-3.654-3.654A1.564,1.564,0,0,0,17.741,25Zm-.619,18.683a9,9,0,0,1,17.961-.835L30.41,40.1a1.562,1.562,0,0,0-1.989.344,10.018,10.018,0,0,1-7.7,3.592h-3.6v-.355Zm0,4.388v-.908h3.6a13.131,13.131,0,0,0,9.184-3.731L35.122,46.5v1.577a9,9,0,1,1-18,0Zm9,12.125a12.1,12.1,0,0,0,2.911-.356,5.039,5.039,0,0,0,.738,2.308l-3.648,4.7-3.652-4.7a5.038,5.038,0,0,0,.737-2.307A12.1,12.1,0,0,0,26.122,60.2ZM6.561,76.876V73.557a8.135,8.135,0,0,1,6.655-8l5.867-1.085a5.058,5.058,0,0,0,1.008-.3l4.8,6.174a1.563,1.563,0,0,0,2.468,0l4.8-6.173a5.068,5.068,0,0,0,1.005.3l5.869,1.085a8.135,8.135,0,0,1,6.656,8v3.318ZM67.12,58.363a7.912,7.912,0,0,1,6.474,7.78V76.876H67.645V70.237a1.563,1.563,0,0,0-3.125,0v6.639H48.81V73.557A11.26,11.26,0,0,0,39.6,62.486l-2.949-.545a7.918,7.918,0,0,1,5.264-3.578l5.733-1.06a4.993,4.993,0,0,0,.875-.246l4.7,7.088a1.563,1.563,0,0,0,2.605,0l4.693-7.087a4.994,4.994,0,0,0,.872.245Zm-9.037-3.3-3.565,5.385-3.568-5.387a4.962,4.962,0,0,0,.754-2.28,11.828,11.828,0,0,0,5.625,0A4.96,4.96,0,0,0,58.083,55.067ZM54.516,50a8.767,8.767,0,0,1-8.757-8.758v-.909l5.053-2.968a12.854,12.854,0,0,0,6.941,3.473,1.546,1.546,0,0,0-.354.263,1.563,1.563,0,1,0,2.209,0,1.533,1.533,0,0,0-.119-.107c.1,0,.2.007.3.007h3.483v.241A8.767,8.767,0,0,1,54.516,50Zm8.758-13.045v.922H59.79a9.753,9.753,0,0,1-7.493-3.5,1.562,1.562,0,0,0-1.989-.344l-4.546,2.671a8.768,8.768,0,0,1,8.754-8.51h0A8.768,8.768,0,0,1,63.274,36.955Zm13.6-20.7a2.5,2.5,0,0,1-2.5,2.5H62.259a1.563,1.563,0,0,0-1.1.458L57.5,22.863V20.314a1.562,1.562,0,0,0-1.562-1.563h-8.75a2.5,2.5,0,0,1-2.5-2.5V5.626a2.5,2.5,0,0,1,2.5-2.5H74.375a2.5,2.5,0,0,1,2.5,2.5Z" transform="translate(0 0)"/>
  </g>
</svg>
