<svg xmlns="http://www.w3.org/2000/svg" width="298" height="145" viewBox="0 0 298 145">
  <g id="Grupo_84691" data-name="Grupo 84691" transform="translate(-493 -4390)">
    <rect id="Rectángulo_32164" data-name="Rectángulo 32164" width="298" height="145" rx="20" transform="translate(493 4390)" fill="#fff1db"/>
    <g id="pensamiento-positivo" transform="translate(591 4412)">
      <g id="Grupo_83892" data-name="Grupo 83892" transform="translate(2.613 2.613)">
        <g id="Grupo_83873" data-name="Grupo 83873" transform="translate(41.935 87.097)">
          <path id="Trazado_146964" data-name="Trazado 146964" d="M37.677,56,40.9,65.677H28L31.226,56Z" transform="translate(-28 -56)" fill="#ff9800"/>
        </g>
        <g id="Grupo_83874" data-name="Grupo 83874" transform="translate(42.242 79.032)">
          <path id="Trazado_146965" data-name="Trazado 146965" d="M40.48,53.629l-2.919,5.435H31.109L28.19,53.629,34.335,51Z" transform="translate(-28.19 -51)" fill="#ff9800"/>
        </g>
        <g id="Grupo_83875" data-name="Grupo 83875" transform="translate(14.516 73.758)">
          <path id="Trazado_146966" data-name="Trazado 146966" d="M23.9,70.746H11v-5A17.434,17.434,0,0,1,19.613,50.73a17.087,17.087,0,0,1,5.661-2.081l5.081-.919,3.226,10.113,5.145-2.21,2.919,5.435-3.226,9.677Z" transform="translate(-11 -47.73)" fill="#ffb74d"/>
        </g>
        <g id="Grupo_83876" data-name="Grupo 83876" transform="translate(51.613 73.758)">
          <path id="Trazado_146967" data-name="Trazado 146967" d="M51.742,70.746H37.226L34,61.069l2.919-5.435,5.145,2.21L45.29,47.73l5.081.919A17.415,17.415,0,0,1,63.613,59.827a17.514,17.514,0,0,1,1.032,5.919v5Z" transform="translate(-34 -47.73)" fill="#ffb74d"/>
        </g>
        <g id="Grupo_83877" data-name="Grupo 83877" transform="translate(33.871 72.581)">
          <path id="Trazado_146968" data-name="Trazado 146968" d="M37.516,53.452l-6.145,2.629-5.145,2.21L23,48.177,29.452,47Z" transform="translate(-23 -47)" fill="#ffb74d"/>
        </g>
        <g id="Grupo_83878" data-name="Grupo 83878" transform="translate(48.387 72.581)">
          <path id="Trazado_146969" data-name="Trazado 146969" d="M46.516,48.177,43.29,58.29l-5.145-2.21L32,53.452,40.065,47Z" transform="translate(-32 -47)" fill="#ffb74d"/>
        </g>
        <g id="Grupo_83879" data-name="Grupo 83879" transform="translate(0)">
          <path id="Trazado_146970" data-name="Trazado 146970" d="M81.129,13.032l-5.806,3.629A41.951,41.951,0,0,0,8.452,50.387v3.226H2V50.387A48.377,48.377,0,0,1,81.129,13.032Z" transform="translate(-2 -2)" fill="#ccd1d9"/>
        </g>
        <g id="Grupo_83880" data-name="Grupo 83880" transform="translate(78.565 13.097)">
          <path id="Trazado_146971" data-name="Trazado 146971" d="M68.92,45.41v3.226H62.468V45.41A41.8,41.8,0,0,0,50.71,16.3l2.919-6.177A48.2,48.2,0,0,1,68.92,45.41Z" transform="translate(-50.71 -10.12)" fill="#ccd1d9"/>
        </g>
        <g id="Grupo_83881" data-name="Grupo 83881" transform="translate(6.452 6.452)">
          <path id="Trazado_146972" data-name="Trazado 146972" d="M47.935,6V18.9H44.79A19.414,19.414,0,0,0,26.355,44.468l.516,1.565a4.821,4.821,0,0,0-1.516,3.516,4.471,4.471,0,0,0,.29,1.613H6V47.935A41.962,41.962,0,0,1,47.935,6Z" transform="translate(-6 -6)" fill="#d2e1f1"/>
        </g>
        <g id="Grupo_83882" data-name="Grupo 83882" transform="translate(48.387 6.452)">
          <path id="Trazado_146973" data-name="Trazado 146973" d="M56.935,14.21,45.065,21.629A19.344,19.344,0,0,0,35.145,18.9H32V6a41.749,41.749,0,0,1,24.935,8.21Z" transform="translate(-32 -6)" fill="#d2e1f1"/>
        </g>
        <g id="Grupo_83883" data-name="Grupo 83883" transform="translate(69.452 19.274)">
          <path id="Trazado_146974" data-name="Trazado 146974" d="M65.931,46.289H46.286a4.471,4.471,0,0,0,.29-1.613A4.821,4.821,0,0,0,45.06,41.16l.516-1.565a19.288,19.288,0,0,0,1-6.129,20.527,20.527,0,0,0-.226-3L54.173,13.95A41.8,41.8,0,0,1,65.931,43.063Z" transform="translate(-45.06 -13.95)" fill="#d2e1f1"/>
        </g>
        <g id="Grupo_83884" data-name="Grupo 83884" transform="translate(61.452 8.065)">
          <path id="Trazado_146975" data-name="Trazado 146975" d="M57.777,9.968,62.519,7l-2.387,5.032L57.213,18.21,49.39,34.726a19.382,19.382,0,0,0-5.468-10.742A18.977,18.977,0,0,0,40.1,21.016L51.971,13.6Z" transform="translate(-40.1 -7)" fill="#ff9800"/>
        </g>
        <g id="Grupo_83885" data-name="Grupo 83885" transform="translate(25.806 19.355)">
          <path id="Trazado_146976" data-name="Trazado 146976" d="M56.71,33.355a3.235,3.235,0,0,1-3.226,3.226H42.194a4.827,4.827,0,0,1-3.419-1.419L38.71,35.1l-.081.048a13.838,13.838,0,0,1-6.113,1.435,4.846,4.846,0,0,1-4.839-4.839,11.025,11.025,0,0,0-3.226,7.79v.274H22.839a4.851,4.851,0,0,0-3.323,1.323L19,39.565A19.414,19.414,0,0,1,37.435,14h6.29a19.344,19.344,0,0,1,9.919,2.726,18.977,18.977,0,0,1,3.823,2.968,19.382,19.382,0,0,1,5.468,10.742,20.527,20.527,0,0,1,.226,3,19.288,19.288,0,0,1-1,6.129l-.516,1.565a4.851,4.851,0,0,0-3.323-1.323H56.71Z" transform="translate(-18 -14)" fill="#656d78"/>
        </g>
        <g id="Grupo_83886" data-name="Grupo 83886" transform="translate(40.323 67.968)">
          <path id="Trazado_146977" data-name="Trazado 146977" d="M41.6,44.156l1.532,4.6L35.065,55.2,27,48.753l1.532-4.6V44.14a16.075,16.075,0,0,0,13.065,0Z" transform="translate(-27 -44.14)" fill="#f0d0b4"/>
        </g>
        <g id="Grupo_83887" data-name="Grupo 83887" transform="translate(64.435 45.161)">
          <path id="Trazado_146978" data-name="Trazado 146978" d="M48.482,34.839a4.471,4.471,0,0,1-.29,1.613,4.577,4.577,0,0,1-1.129,1.806,4.827,4.827,0,0,1-3.419,1.419H41.95c.048-.532.081-1.065.081-1.613V30h1.613a4.841,4.841,0,0,1,4.839,4.839Z" transform="translate(-41.95 -30)" fill="#f0d0b4"/>
        </g>
        <g id="Grupo_83888" data-name="Grupo 83888" transform="translate(32.258 37.097)">
          <path id="Trazado_146979" data-name="Trazado 146979" d="M54.258,33.065v8.065c0,.548-.032,1.081-.081,1.613a16.13,16.13,0,0,1-32.1,0C22.032,42.21,22,41.677,22,41.129V32.79A11.025,11.025,0,0,1,25.226,25a4.846,4.846,0,0,0,4.839,4.839A13.838,13.838,0,0,0,36.177,28.4l.081-.048.065.065a4.827,4.827,0,0,0,3.419,1.419h11.29a3.235,3.235,0,0,0,3.226-3.226Z" transform="translate(-22 -25)" fill="#f0d0b4"/>
        </g>
        <g id="Grupo_83889" data-name="Grupo 83889" transform="translate(25.806 45.161)">
          <path id="Trazado_146980" data-name="Trazado 146980" d="M24.532,39.677H22.839a4.827,4.827,0,0,1-3.419-1.419,4.577,4.577,0,0,1-1.129-1.806A4.471,4.471,0,0,1,18,34.839,4.841,4.841,0,0,1,22.839,30h1.613v8.065C24.452,38.613,24.484,39.145,24.532,39.677Z" transform="translate(-18 -30)" fill="#f0d0b4"/>
        </g>
        <g id="Grupo_83890" data-name="Grupo 83890" transform="translate(0 58.065)">
          <circle id="Elipse_4125" data-name="Elipse 4125" cx="9.677" cy="9.677" r="9.677" fill="#ccd1d9"/>
        </g>
        <g id="Grupo_83891" data-name="Grupo 83891" transform="translate(77.419 58.065)">
          <circle id="Elipse_4126" data-name="Elipse 4126" cx="9.677" cy="9.677" r="9.677" fill="#ff9800"/>
        </g>
      </g>
      <g id="Grupo_83893" data-name="Grupo 83893" transform="translate(1 1)">
        <path id="Trazado_146981" data-name="Trazado 146981" d="M34.677,31H31.452a1.613,1.613,0,0,1-3.226,0H25a4.839,4.839,0,1,0,9.677,0Z" transform="translate(13.71 17.387)"/>
        <path id="Trazado_146982" data-name="Trazado 146982" d="M37.839,32.613A1.613,1.613,0,0,1,36.226,31H33a4.839,4.839,0,1,0,9.677,0H39.452A1.613,1.613,0,0,1,37.839,32.613Z" transform="translate(18.613 17.387)"/>
        <path id="Trazado_146983" data-name="Trazado 146983" d="M39.871,37.934a5.1,5.1,0,0,1-9.677,0l-.084-.248-3.058,1.027.084.245a8.325,8.325,0,0,0,15.794,0l.084-.248-3.058-1.027Z" transform="translate(14.967 21.483)"/>
        <path id="Trazado_146984" data-name="Trazado 146984" d="M86.048,15.363,90.3,6.392l-8.444,5.277A49.987,49.987,0,0,0,1,51v4.839H27.7a6.431,6.431,0,0,0,5.555,3.226h.308A17.784,17.784,0,0,0,42.5,71.4l-.792,2.373L31.11,75.7A18.988,18.988,0,0,0,15.516,94.387V101H86.484V94.387A18.988,18.988,0,0,0,70.89,75.7l-10.6-1.927L59.5,71.4a17.784,17.784,0,0,0,8.932-12.34h.308A6.431,6.431,0,0,0,74.3,55.839H101V51A50.19,50.19,0,0,0,86.048,15.363ZM68.742,41.323A4.845,4.845,0,0,0,63.9,36.484H59.065V39.71H63.9a1.613,1.613,0,1,1,0,3.226H52.613a3.226,3.226,0,1,1,0-6.452V33.258a6.434,6.434,0,0,0-5.9,9.052,12.081,12.081,0,0,1-3.782.626,3.226,3.226,0,0,1,0-6.452V33.258a6.437,6.437,0,0,0-6.381,5.756,12.728,12.728,0,0,0-3.219,7.147h-.077a6.406,6.406,0,0,0-2.423.481A17.778,17.778,0,0,1,47.847,23.581h6.306A17.778,17.778,0,0,1,71.165,46.642a6.406,6.406,0,0,0-2.423-.481ZM52.613,10.74a39.886,39.886,0,0,1,20.366,6.476l-8.966,5.6a20.91,20.91,0,0,0-9.86-2.465h-1.54ZM66.992,24.763l15.677-9.8L73.75,33.792a21.124,21.124,0,0,0-6.758-9.029ZM4.226,51A46.722,46.722,0,0,1,78.9,13.513l-2.94,1.837A43.513,43.513,0,0,0,7.452,51v1.613H4.226Zm6.452,1.613V51a40.366,40.366,0,0,1,38.71-40.282v9.637h-1.54a21.043,21.043,0,0,0-19.961,27.7l.234.7a6.39,6.39,0,0,0-1.313,3.86Zm19.355,0a3.229,3.229,0,0,1,3.226-3.226v6.452A3.229,3.229,0,0,1,30.032,52.613ZM42.5,76.911l5.389,4.311L40.7,84.3l-2.129-6.677Zm6.437,14.411h4.127l2.152,6.452H46.787ZM53.261,88.1H48.737L47.11,85.066,51,83.4l3.89,1.668Zm-34.519,6.29a15.769,15.769,0,0,1,12.945-15.51l3.69-.671,3.335,10.458,5.421-2.323,1.89,3.518-2.637,7.915H31.645V91.323H28.419v6.452H18.742ZM79.6,84.3a15.778,15.778,0,0,1,3.655,10.089v3.387H73.581V91.323H70.355v6.452H58.613L55.976,89.86l1.89-3.518,5.421,2.323,3.335-10.458,3.69.671A15.786,15.786,0,0,1,79.6,84.3ZM63.421,77.624,61.292,84.3l-7.184-3.079L59.5,76.911Zm-6.242-2.989L51,79.579l-6.179-4.944.65-1.948a17.553,17.553,0,0,0,11.058,0ZM51,70.355A14.532,14.532,0,0,1,36.484,55.839V47.5a9.438,9.438,0,0,1,1.047-4.287,6.439,6.439,0,0,0,5.4,2.952,15.38,15.38,0,0,0,5.923-1.226,6.41,6.41,0,0,0,3.755,1.226H63.9a4.784,4.784,0,0,0,1.613-.3v9.974A14.532,14.532,0,0,1,51,70.355ZM68.742,55.839V49.387a3.226,3.226,0,0,1,0,6.452Zm5.139-7.085.234-.7A20.437,20.437,0,0,0,75,38.689l6.6-13.935A40.083,40.083,0,0,1,91.323,51v1.613H75.194A6.39,6.39,0,0,0,73.881,48.753Zm23.894,3.86H94.548V51A43.318,43.318,0,0,0,83.1,21.589l1.487-3.139A46.276,46.276,0,0,1,97.774,51Z" transform="translate(-1 -1)"/>
        <path id="Trazado_146985" data-name="Trazado 146985" d="M59.452,41H56.226v3.226H53v3.226h3.226v3.226h3.226V47.452h3.226V44.226H59.452Z" transform="translate(30.871 23.516)"/>
        <path id="Trazado_146986" data-name="Trazado 146986" d="M60.29,37a11.29,11.29,0,1,0,11.29,11.29A11.3,11.3,0,0,0,60.29,37Zm0,19.355a8.065,8.065,0,1,1,8.065-8.065A8.074,8.074,0,0,1,60.29,56.355Z" transform="translate(28.419 21.065)"/>
        <path id="Trazado_146987" data-name="Trazado 146987" d="M5,43h9.677v3.226H5Z" transform="translate(1.452 24.742)"/>
        <path id="Trazado_146988" data-name="Trazado 146988" d="M23.581,48.29a11.29,11.29,0,1,0-11.29,11.29A11.3,11.3,0,0,0,23.581,48.29ZM12.29,56.355a8.065,8.065,0,1,1,8.065-8.065A8.074,8.074,0,0,1,12.29,56.355Z" transform="translate(-1 21.065)"/>
      </g>
    </g>
  </g>
</svg>
