<svg xmlns="http://www.w3.org/2000/svg" width="400" height="420" viewBox="0 0 400 420">
  <g id="Grupo_84691" data-name="Grupo 84691" transform="translate(-1020 -2348)">
    <rect id="Rectángulo_31925" data-name="Rectángulo 31925" width="400" height="420" rx="21" transform="translate(1020 2348)" fill="#fff1db" opacity="0.897"/>
    <g id="ufo" transform="translate(1160 2453.279)">
      <g id="Grupo_83493" data-name="Grupo 83493" transform="translate(2.344 61.064)">
        <path id="Trazado_145548" data-name="Trazado 145548" d="M203.738,267.654a11.439,11.439,0,0,1-6.705-2.8,16.419,16.419,0,0,0-9.292,11.691v0a85.7,85.7,0,0,0,32,0v0a16.419,16.419,0,0,0-9.293-11.691,11.442,11.442,0,0,1-6.705,2.8Z" transform="translate(-146.082 -218.882)" fill="#ffee58" fill-rule="evenodd"/>
        <path id="Trazado_145549" data-name="Trazado 145549" d="M143.568,126.38a16.42,16.42,0,0,1,9.293-11.691c-5.062-3.965-9.6-11.58-9.6-19.192a16.31,16.31,0,1,1,32.619,0c0,7.613-4.542,15.227-9.6,19.192a16.421,16.421,0,0,1,9.293,11.691v0c5.514-1.2,9.5-3.115,10.134-5.746q.324-1.345.61-2.729c2.184-10.549,2.778-22.7,2.778-35.241,0-13.091-21.08-13.945-29.52-13.945s-29.52.854-29.52,13.945c0,12.537.594,24.692,2.778,35.241q.286,1.383.61,2.729c.633,2.631,4.62,4.547,10.134,5.746Z" transform="translate(-101.909 -68.721)" fill="#d2e1f1" fill-rule="evenodd"/>
        <path id="Trazado_145550" data-name="Trazado 145550" d="M186.412,129.457c0,7.613,4.542,15.227,9.6,19.192a9.42,9.42,0,0,0,13.41,0c5.062-3.965,9.6-11.579,9.6-19.192a16.31,16.31,0,1,0-32.619,0Z" transform="translate(-145.065 -102.681)" fill="#ffee58" fill-rule="evenodd"/>
        <path id="Trazado_145551" data-name="Trazado 145551" d="M93.789,281.311c0,1.552-1.791,2.99-4.837,4.164a31.942,31.942,0,0,1-5.3,1.582v0l-.013-.062a78.92,78.92,0,0,1-15.985,1.5,78.918,78.918,0,0,1-15.985-1.5l-.013.062v0a31.948,31.948,0,0,1-5.3-1.582c-3.047-1.175-4.838-2.612-4.838-4.164q-.324-1.345-.61-2.728C21.931,281.314,10,286.72,10,292.622c0,8.752,25.814,15.847,57.656,15.847s57.656-7.1,57.656-15.847c0-5.9-11.931-11.308-30.914-14.039Q94.112,279.966,93.789,281.311Z" transform="translate(-10 -229.397)" fill="#ff9800" fill-rule="evenodd"/>
      </g>
      <g id="Grupo_83494" data-name="Grupo 83494" transform="translate(0 58.72)">
        <path id="Trazado_145552" data-name="Trazado 145552" d="M89.505,108.3c1.6-8.857,2.359-19.611,2.359-33.293,0-4.675-2.3-10.921-13.281-14.131A67.736,67.736,0,0,0,60,58.72a67.738,67.738,0,0,0-18.584,2.158c-10.977,3.21-13.281,9.457-13.281,14.131,0,1.48.009,2.939.025,4.337A2.344,2.344,0,0,0,30.5,81.661h.029a2.344,2.344,0,0,0,2.315-2.372c-.017-1.379-.025-2.819-.025-4.28,0-10.094,17.027-11.6,27.177-11.6s27.177,1.507,27.177,11.6c0,16.111-1.056,28-3.323,37.421-.266,1.1-2.406,2.411-6.2,3.469a18.875,18.875,0,0,0-7-9.3,28.271,28.271,0,0,0,1.907-2.2,27.681,27.681,0,0,0,6.09-16.565,18.653,18.653,0,1,0-37.307,0,27.681,27.681,0,0,0,6.09,16.565,28.285,28.285,0,0,0,1.907,2.2,18.888,18.888,0,0,0-7,9.295c-3.789-1.059-5.93-2.366-6.2-3.469a104.6,104.6,0,0,1-2.121-12.33,2.344,2.344,0,1,0-4.656.539q.465,4.015,1.129,7.661C20.224,109.967,0,114.493,0,124.289c0,5.463,6.435,10.119,18.61,13.466,2.087.574,4.3,1.1,6.627,1.573L23.9,144.32a2.344,2.344,0,1,0,4.528,1.213l1.434-5.352a184.389,184.389,0,0,0,27.8,2.285v6.385a2.344,2.344,0,0,0,4.687,0v-6.385a184.356,184.356,0,0,0,27.8-2.285l1.434,5.352A2.344,2.344,0,0,0,96.1,144.32l-1.338-4.992c2.325-.475,4.54-1,6.627-1.573,12.174-3.346,18.609-8,18.609-13.466C120,114.494,99.779,109.967,89.505,108.3ZM46.034,87.84a13.966,13.966,0,1,1,27.932,0,22.925,22.925,0,0,1-5.1,13.678c-2.836,3.629-6.318,5.974-8.87,5.974s-6.034-2.345-8.87-5.974a22.924,22.924,0,0,1-5.1-13.678Zm7.057,21.935a12.752,12.752,0,0,0,6.909,2.4,12.752,12.752,0,0,0,6.909-2.4,14.151,14.151,0,0,1,6.125,7.135A79.72,79.72,0,0,1,60,117.888a79.721,79.721,0,0,1-13.034-.979,14.158,14.158,0,0,1,6.124-7.135Zm47.057,23.46C89.455,136.174,75.2,137.793,60,137.793s-29.455-1.619-40.148-4.558c-11.193-3.076-15.165-6.742-15.165-8.946,0-2.906,7.157-8.273,26.755-11.393.049.21.1.424.146.631.769,3.2,4.312,5.608,10.53,7.165A76.873,76.873,0,0,0,60,122.575a76.873,76.873,0,0,0,17.881-1.883c6.218-1.557,9.761-3.967,10.53-7.165.05-.209.1-.42.148-.631,19.6,3.12,26.753,8.487,26.753,11.393,0,2.2-3.972,5.869-15.165,8.946Z" transform="translate(0 -58.72)"/>
        <path id="Trazado_145553" data-name="Trazado 145553" d="M248.348,353.484h0a2.344,2.344,0,1,0,2.345,2.344A2.343,2.343,0,0,0,248.346,353.484Z" transform="translate(-188.346 -284.399)"/>
        <path id="Trazado_145554" data-name="Trazado 145554" d="M176.016,348.529h0a2.344,2.344,0,1,0,2.345,2.344A2.343,2.343,0,0,0,176.014,348.529Z" transform="translate(-132.967 -280.605)"/>
        <path id="Trazado_145555" data-name="Trazado 145555" d="M105.774,330.029h0a2.344,2.344,0,1,0,2.346,2.344,2.343,2.343,0,0,0-2.346-2.344Z" transform="translate(-79.188 -266.441)"/>
        <path id="Trazado_145556" data-name="Trazado 145556" d="M320.668,348.529a2.344,2.344,0,0,0,0,4.688h0a2.344,2.344,0,1,0,0-4.688Z" transform="translate(-243.717 -280.605)"/>
        <path id="Trazado_145557" data-name="Trazado 145557" d="M390.911,330.029a2.344,2.344,0,1,0,0,4.687h0a2.344,2.344,0,1,0,0-4.687Z" transform="translate(-297.497 -266.441)"/>
        <path id="Trazado_145558" data-name="Trazado 145558" d="M215.635,191.639a2.344,2.344,0,0,0,3.315-3.315,8.542,8.542,0,0,0-6.08-2.519,2.344,2.344,0,0,0,0,4.688A3.886,3.886,0,0,1,215.635,191.639Z" transform="translate(-161.183 -156.02)"/>
        <path id="Trazado_145559" data-name="Trazado 145559" d="M264.946,192.326a2.336,2.336,0,0,0,1.657-.686,3.886,3.886,0,0,1,2.766-1.146,2.344,2.344,0,1,0,0-4.688,8.542,8.542,0,0,0-6.08,2.519,2.344,2.344,0,0,0,1.657,4Z" transform="translate(-201.055 -156.02)"/>
        <path id="Trazado_145560" data-name="Trazado 145560" d="M126.234,183.923a2.344,2.344,0,0,0-2.344-2.344h0a2.344,2.344,0,1,0,2.345,2.344Z" transform="translate(-93.059 -152.784)"/>
      </g>
    </g>
  </g>
</svg>
