<svg xmlns="http://www.w3.org/2000/svg" width="51.849" height="80" viewBox="0 0 51.849 80">
  <g id="chasquido" transform="translate(-14.076)">
    <g id="Grupo_83821" data-name="Grupo 83821">
      <path id="Trazado_146848" data-name="Trazado 146848" d="M32.036,22.779V18.558a1.8,1.8,0,0,1,.314-1.017l5.991-8.768a4.817,4.817,0,0,0-7.954-5.435l-6.693,9.8A7.41,7.41,0,0,0,22.4,17.314V42.251l10.465-7.109Z" fill="#ffd494"/>
      <g id="Grupo_83818" data-name="Grupo 83818">
        <g id="XMLID_148_">
          <g id="Grupo_83813" data-name="Grupo 83813">
            <path id="Trazado_146849" data-name="Trazado 146849" d="M44.341,36.791l2.754-14.05-10.78,9.032.008.05a4.062,4.062,0,0,1,3.261.921Zm6.3-21.485.119-.05a8.223,8.223,0,0,1,3.785-1.54,3.871,3.871,0,0,1,4.384,4.155L57.807,31.488a3.362,3.362,0,0,0,.323,1.735l2.084,4.309a21.531,21.531,0,0,1,.257,18.191L54.082,69.954v7.159a1.713,1.713,0,0,1-1.718,1.713l-25.5-.067a1.713,1.713,0,0,1-1.708-1.713V71.179l-5.082-6.388a17.383,17.383,0,0,1-3.729-9.465L15.273,41.748a9.012,9.012,0,0,1,3.2-7.619L43.121,13.5a4.816,4.816,0,0,1,7.525,1.8Z" fill="#ffd494"/>
          </g>
          <path id="Trazado_146852" data-name="Trazado 146852" d="M49.906,14.1a4.818,4.818,0,0,1-.6,6.786L36.315,31.773l.008.05a4.036,4.036,0,0,0-2.049.952L28,38.233,15.74,38.1a9.017,9.017,0,0,1,2.735-3.971L43.121,13.5a4.817,4.817,0,0,1,6.786.6Z" fill="#ffd494"/>
        </g>
      </g>
      <g id="Grupo_83820" data-name="Grupo 83820">
        <g id="XMLID_152_">
          <g id="Grupo_83819" data-name="Grupo 83819">
            <path id="Trazado_146857" data-name="Trazado 146857" d="M50.764,54.96a4.817,4.817,0,0,1-7.937,3.667l-5.871-4.994-1.743,1.743L28,48.71l6.271-5.458a4.069,4.069,0,0,1,5.31-.031l9.485,8.068a4.806,4.806,0,0,1,1.7,3.671Z" fill="#ffd494"/>
          </g>
        </g>
      </g>
    </g>
    <g id="Grupo_83822" data-name="Grupo 83822">
      <path id="Trazado_146858" data-name="Trazado 146858" d="M59.184,32.713a2.182,2.182,0,0,1-.21-1.129L60.1,17.968a5.043,5.043,0,0,0-5.71-5.412,9.453,9.453,0,0,0-3.333,1.119c-.081-.111-.165-.221-.254-.328A5.994,5.994,0,0,0,42.37,12.6l-9.164,7.669V18.558a.629.629,0,0,1,.11-.357l1.9-2.781a1.17,1.17,0,1,0-1.932-1.32l-1.9,2.781a2.961,2.961,0,0,0-.518,1.677v3.674l-7.293,6.1V17.314a6.214,6.214,0,0,1,1.088-3.52L31.354,4a3.646,3.646,0,0,1,6.021,4.114l-1.228,1.8a1.17,1.17,0,1,0,1.932,1.32l1.228-1.8a5.987,5.987,0,0,0-9.886-6.755l-6.693,9.8a8.547,8.547,0,0,0-1.5,4.841V30.295l-3.51,2.937a10.2,10.2,0,0,0-3.617,8.609l.745,9.472a1.17,1.17,0,0,0,1.165,1.078q.046,0,.093,0a1.17,1.17,0,0,0,1.075-1.258l-.745-9.472a7.858,7.858,0,0,1,2.786-6.63L43.872,14.4a3.646,3.646,0,1,1,4.684,5.589L35.727,30.74a5.262,5.262,0,0,0-2.221,1.151L27.235,37.35a1.17,1.17,0,1,0,1.537,1.765l6.271-5.458a2.883,2.883,0,0,1,3.784-.022L48.31,41.7a3.642,3.642,0,0,1-1.332,6.272L40.342,42.33a5.21,5.21,0,0,0-6.837.039l-6.271,5.458a1.17,1.17,0,1,0,1.537,1.765l6.271-5.458a2.883,2.883,0,0,1,3.784-.022L48.31,52.18a3.646,3.646,0,1,1-4.725,5.555l-5.871-4.994a1.17,1.17,0,0,0-1.586.064l-1.742,1.742A1.17,1.17,0,0,0,36.041,56.2l.979-.979,5.049,4.294a5.941,5.941,0,0,0,3.869,1.427c.163,0,.327-.007.491-.02a5.987,5.987,0,0,0,3.4-10.528l-.872-.742a5.983,5.983,0,0,0,.872-9.736l-4.205-3.577,2.542-12.971,1.9-1.59a5.993,5.993,0,0,0,1.982-5.968,7.1,7.1,0,0,1,2.667-.939,2.7,2.7,0,0,1,3.06,2.9L56.642,31.391a4.523,4.523,0,0,0,.435,2.34l2.084,4.31a20.314,20.314,0,0,1,.244,17.2l-1.34,2.984a1.17,1.17,0,1,0,2.135.959L61.54,56.2a22.649,22.649,0,0,0-.271-19.18ZM43.577,34.6l-3.235-2.752a5.308,5.308,0,0,0-1.317-.823l6.285-5.266Z"/>
      <path id="Trazado_146859" data-name="Trazado 146859" d="M57.558,62.213a1.17,1.17,0,0,0-1.547.588l-3,6.674a1.17,1.17,0,0,0-.1.479V78.83a1.17,1.17,0,1,0,2.34,0V70.2l2.894-6.445A1.17,1.17,0,0,0,57.558,62.213Z"/>
      <path id="Trazado_146860" data-name="Trazado 146860" d="M50.764,7.282a1.17,1.17,0,0,0,1.17-1.17V1.17a1.17,1.17,0,0,0-2.34,0V6.112A1.17,1.17,0,0,0,50.764,7.282Z"/>
      <path id="Trazado_146861" data-name="Trazado 146861" d="M55.76,8.446a1.17,1.17,0,0,0,1.592-.453l2.4-4.318a1.17,1.17,0,0,0-2.045-1.139l-2.4,4.318A1.17,1.17,0,0,0,55.76,8.446Z"/>
      <path id="Trazado_146862" data-name="Trazado 146862" d="M65.749,8.059a1.17,1.17,0,0,0-1.611-.379l-4.2,2.6a1.17,1.17,0,1,0,1.232,1.99l4.2-2.6a1.17,1.17,0,0,0,.379-1.611Z"/>
      <path id="Trazado_146863" data-name="Trazado 146863" d="M20.986,64.063a16.22,16.22,0,0,1-3.389-8,1.17,1.17,0,1,0-2.321.3,18.559,18.559,0,0,0,3.878,9.157l4.828,6.068v7.166a1.17,1.17,0,1,0,2.34,0V71.179a1.17,1.17,0,0,0-.254-.729Z"/>
    </g>
  </g>
</svg>
