<svg xmlns="http://www.w3.org/2000/svg" xmlns:xlink="http://www.w3.org/1999/xlink" width="255.685" height="256.778" viewBox="0 0 255.685 256.778">
  <defs>
    <linearGradient id="linear-gradient" x1="0.452" y1="0.003" x2="0.603" y2="0.62" gradientUnits="objectBoundingBox">
      <stop offset="0" stop-color="#aa80f9"/>
      <stop offset="0.996" stop-color="#6165d7"/>
    </linearGradient>
    <clipPath id="clip-path">
      <path id="Trazado_145658" data-name="Trazado 145658" d="M940.962,702.872c-16.969-4.316-21.788-9.549-22.533-13.94-1.219-7.187,8.56-11.617,7.251-19.808-1.508-9.436-15.74-11.394-15.3-17.6.474-6.705,17.229-6.225,20.687-15.878,3.135-8.751-8.951-13.843-8.858-26.554.111-15.175,17.418-18.737,20.459-36.013,2.077-11.8-3.935-21.824-8.653-29.694-10.615-17.706-32.424-34.922-57.1-33.177-3.366.238-23.013,1.627-27.879,13.147-4.933,11.678,6.843,30.168,18.89,39.967,8.732,7.1,16.051,8.373,16.436,13.965.52,7.539-12.43,10.294-13.66,21.28-.65,5.808,2.329,10.77,5.259,15.65,6.641,11.062,13.118,10.65,14.068,16.78,1.3,8.388-10.415,11.814-13.015,24.363-1.853,8.941,2.119,16.733,4.357,21.124C890.092,693.6,913.589,703.4,940.962,702.872Z" transform="translate(-847.88 -510.089)" fill="url(#linear-gradient)"/>
    </clipPath>
    <clipPath id="clip-path-2">
      <path id="Trazado_145661" data-name="Trazado 145661" d="M644.451,1785.787a103.853,103.853,0,0,1-19.416,7.738c-17.792,5.083-48.4,8.623-58.916-5.125-1.293-1.69-4.709-6.155-4.256-11.672.471-5.735,4.706-7.506,4.075-11.091-.862-4.9-9.295-4.531-17.679-10.158-7.12-4.779-15.687-14.88-14.86-26.763.907-13.029,12.57-20.437,13.839-21.216,8.62-5.288,21.9-7.2,30.21-.521,7.349,5.91,8.037,16.324,8.491,23.2,1.027,15.551-5.477,22.545-.792,27.99,4.267,4.959,11.5,1.3,16.69,7.917,2.216,2.827,1.583,4.374,5.048,9.907a45.347,45.347,0,0,0,6.616,8.328C622.509,1792.712,642.665,1786.37,644.451,1785.787Z" transform="translate(-533.344 -1702.707)" fill="#ffee58"/>
    </clipPath>
    <linearGradient id="linear-gradient-2" y1="0.5" x2="1" y2="0.5" gradientUnits="objectBoundingBox">
      <stop offset="0" stop-color="#ff9085"/>
      <stop offset="1" stop-color="#fb6fbb"/>
    </linearGradient>
    <clipPath id="clip-path-3">
      <path id="Trazado_145665" data-name="Trazado 145665" d="M1116.2,1213.127V1050.5l58.437-3.928v170.6Z" transform="translate(-1116.195 -1046.572)" fill="#fff"/>
    </clipPath>
    <linearGradient id="linear-gradient-3" x1="0.273" y1="0.241" x2="1.266" y2="1.373" xlink:href="#linear-gradient-2"/>
    <clipPath id="clip-path-4">
      <rect id="Rectángulo_31514" data-name="Rectángulo 31514" width="151.855" height="67.875" transform="translate(67.875 0) rotate(90)" fill="#fff"/>
    </clipPath>
    <linearGradient id="linear-gradient-4" x1="-0.41" y1="0.499" x2="1.447" y2="0.502" xlink:href="#linear-gradient-2"/>
    <clipPath id="clip-path-5">
      <path id="Trazado_145670" data-name="Trazado 145670" d="M1778.963,1217.173v-170.6l43.2,9.542v151.763Z" transform="translate(-1778.963 -1046.572)" fill="#d8dee8"/>
    </clipPath>
    <linearGradient id="linear-gradient-5" x1="29.002" y1="0.329" x2="28.117" y2="0.987" gradientUnits="objectBoundingBox">
      <stop offset="0" stop-color="#ffc444"/>
      <stop offset="0.996" stop-color="#f36f56"/>
    </linearGradient>
    <linearGradient id="linear-gradient-6" x1="36.725" y1="0.207" x2="36.964" y2="0.651" xlink:href="#linear-gradient-5"/>
    <linearGradient id="linear-gradient-7" x1="20.86" y1="1.152" x2="20.86" y2="-0.027" xlink:href="#linear-gradient-5"/>
    <linearGradient id="linear-gradient-8" x1="10.14" y1="0.734" x2="10.14" y2="-0.116" xlink:href="#linear-gradient-5"/>
    <linearGradient id="linear-gradient-9" x1="1.936" y1="0.5" x2="2.936" y2="0.5" gradientUnits="objectBoundingBox">
      <stop offset="0" stop-color="#311944"/>
      <stop offset="1" stop-color="#893976"/>
    </linearGradient>
    <linearGradient id="linear-gradient-10" x1="-5.729" y1="-9.629" x2="-4.79" y2="-8.251" xlink:href="#linear-gradient-5"/>
    <linearGradient id="linear-gradient-11" x1="7.514" y1="-1.343" x2="8.057" y2="1.115" gradientUnits="objectBoundingBox">
      <stop offset="0.004" stop-color="#e38ddd"/>
      <stop offset="1" stop-color="#9571f6"/>
    </linearGradient>
    <linearGradient id="linear-gradient-12" x1="10.11" y1="0.292" x2="9.363" y2="1.155" xlink:href="#linear-gradient-5"/>
    <linearGradient id="linear-gradient-13" x1="16.322" y1="-13.801" x2="12.888" y2="-8.083" xlink:href="#linear-gradient-5"/>
  </defs>
  <g id="Grupo_83540" data-name="Grupo 83540" transform="translate(-410.818 -417.579)">
    <path id="Trazado_145653" data-name="Trazado 145653" d="M635.741,666.982a97.762,97.762,0,0,1-17.169,13.937c-44.466,29.69-95.3,21.133-111.01,18.208-25.355-4.719-46.757-8.048-65.146-24.661-41.785-37.751-39.752-116.5-7.824-165.285,3.786-5.784,35.666-53.041,86.605-59.7,1.246-.163,2.175-.256,2.99-.342,7.88-.834,56.712-5.238,96.53,28.121a118.787,118.787,0,0,1,23.378,26.525C675.2,551.819,675.294,626.212,635.741,666.982Z" transform="translate(0 -28.185)" fill="#ffd494"/>
    <g id="Grupo_83521" data-name="Grupo 83521" transform="translate(413.031 425.736)">
      <g id="Grupo_83514" data-name="Grupo 83514" transform="translate(0 24.685)">
        <path id="Trazado_145654" data-name="Trazado 145654" d="M581.46,952.973c-50.173,8.615-65.6,1.937-70.158-6.08-2.649-4.661-2.922-12.063-10.478-21.407-6.368-7.875-10.032-7.388-12.759-13.427-4.731-10.474,4.293-16.362.616-26.5-4.026-11.106-16.694-9.151-22.186-22.414-3-7.255.522-8.478-2.152-15.709-5.45-14.738-21.508-13.458-26.843-26.75-3.106-7.739-1.507-17.75,3.6-23.647,10.248-11.828,34.786-7.292,48.666,3.676,1.788,1.413,15.244,12.356,16.547,28.56.786,9.777-3.426,14.336.045,20.289,4.9,8.4,15.983,3.964,20.852,11.424,6.6,10.109-9.052,25.46-1.512,36.836,2.919,4.4,6,3.221,8.921,8.278,4.8,8.317-.794,16.286.31,23.208C536.116,936.741,545.477,945.819,581.46,952.973Z" transform="translate(-435.916 -790.055)" fill="#ff9800"/>
        <path id="Trazado_145655" data-name="Trazado 145655" d="M540.785,823.815c6.511,15.023-4.1,24.518,3.521,36.368,6.191,9.624,15.954,7.657,18.623,16.617,2.559,8.587-5.711,12.736-3.449,22.545,1.865,8.085,8.142,8.126,14.413,18.582,6.312,10.525,3.76,16.835,7,23.265,3.48,6.9,13.354,13.374,39.928,13.753,3.986-.539,8.235-1.192,12.772-1.971-35.983-7.154-45.343-16.232-46.529-23.666-1.1-6.922,4.488-14.891-.31-23.208-2.918-5.057-6-3.874-8.921-8.278-7.54-11.377,8.11-26.727,1.512-36.836-4.869-7.461-15.956-3.026-20.852-11.424-3.471-5.953.741-10.512-.045-20.289-1.3-16.2-14.759-27.148-16.547-28.56-13.879-10.968-38.417-15.5-48.666-3.676-.049.057-.1.117-.145.174A60.45,60.45,0,0,1,517.049,803C523.806,806.22,535.6,811.842,540.785,823.815Z" transform="translate(-488.052 -790.055)" fill="#fff" opacity="0.28" style="mix-blend-mode: soft-light;isolation: isolate"/>
      </g>
      <g id="Grupo_83517" data-name="Grupo 83517" transform="translate(36.323 0)">
        <g id="Grupo_83516" data-name="Grupo 83516">
          <path id="Trazado_145656" data-name="Trazado 145656" d="M940.962,702.872c-16.969-4.316-21.788-9.549-22.533-13.94-1.219-7.187,8.56-11.617,7.251-19.808-1.508-9.436-15.74-11.394-15.3-17.6.474-6.705,17.229-6.225,20.687-15.878,3.135-8.751-8.951-13.843-8.858-26.554.111-15.175,17.418-18.737,20.459-36.013,2.077-11.8-3.935-21.824-8.653-29.694-10.615-17.706-32.424-34.922-57.1-33.177-3.366.238-23.013,1.627-27.879,13.147-2.146,5.08-1.13,11.449,1.818,18.108,3.545,8.012,10.265,16.323,17.072,21.859,8.732,7.1,16.051,8.373,16.436,13.965.52,7.539-12.43,10.294-13.66,21.28-.65,5.808,2.329,10.77,5.259,15.65,6.641,11.062,13.118,10.65,14.068,16.78,1.3,8.388-10.415,11.814-13.015,24.363-1.853,8.941,2.119,16.733,4.357,21.124C890.092,693.6,913.589,703.4,940.962,702.872Z" transform="translate(-847.88 -510.089)" fill="#ffee58"/>
          <g id="Grupo_83515" data-name="Grupo 83515" clip-path="url(#clip-path)">
            <path id="Trazado_145657" data-name="Trazado 145657" d="M789.973,594.227q16.017,7.345,31.976,14.823c5.329,2.473,10.636,4.991,15.9,7.6,2.634,1.3,5.261,2.621,7.87,3.981s5.2,2.76,7.723,4.3c1.26.771,2.5,1.578,3.7,2.473.6.441,1.174.923,1.737,1.42a16.44,16.44,0,0,1,1.569,1.641,10.208,10.208,0,0,1,1.243,1.938,9.694,9.694,0,0,1,.75,2.181,11.883,11.883,0,0,1,.064,4.558,14.533,14.533,0,0,1-1.555,4.256,26.747,26.747,0,0,1-2.5,3.715c-1.833,2.34-3.877,4.463-5.833,6.643A53.824,53.824,0,0,0,847.2,660.6a26.081,26.081,0,0,0-2.026,3.819,20.182,20.182,0,0,0-1.209,4.123,17.549,17.549,0,0,0,2.424,12.387,36.687,36.687,0,0,0,2.535,3.537c.906,1.149,1.847,2.285,2.71,3.5.438.6.841,1.231,1.229,1.871a18.244,18.244,0,0,1,1.02,2.009,15.284,15.284,0,0,1,1.174,4.351,19.053,19.053,0,0,1-.012,4.493,17.45,17.45,0,0,1-1.1,4.36A21.488,21.488,0,0,1,851.83,709c-1.64,2.486-3.677,4.64-5.1,7.143a12.014,12.014,0,0,0-1.464,3.99,12.273,12.273,0,0,0,.094,4.252,13.47,13.47,0,0,0,1.491,4,20.6,20.6,0,0,0,2.566,3.48c1.929,2.175,4.181,4.1,6.008,6.467a15.063,15.063,0,0,1,2.227,3.888,12.835,12.835,0,0,1,.779,4.42,12.359,12.359,0,0,1-.807,4.413,21.7,21.7,0,0,1-2.152,3.9,10.439,10.439,0,0,0-1.784,3.873,6.445,6.445,0,0,0,.713,4.1,12.81,12.81,0,0,0,2.683,3.36,26.759,26.759,0,0,0,3.456,2.662,56.684,56.684,0,0,0,7.739,4.125c2.674,1.2,5.409,2.267,8.17,3.258s5.551,1.907,8.361,2.757c5.616,1.714,11.3,3.211,17,4.607l-.009.039c-5.717-1.346-11.413-2.793-17.049-4.458q-4.23-1.239-8.4-2.686c-2.775-.968-5.526-2.014-8.222-3.195a57.082,57.082,0,0,1-7.831-4.086,27.22,27.22,0,0,1-3.539-2.678,13.038,13.038,0,0,1-2.809-3.474,6.96,6.96,0,0,1-.785-4.417,7.365,7.365,0,0,1,.718-2.154,20.781,20.781,0,0,1,1.124-1.927,21.194,21.194,0,0,0,2.082-3.808,11.78,11.78,0,0,0,.748-4.21,12.235,12.235,0,0,0-.762-4.206,14.436,14.436,0,0,0-2.155-3.716c-1.782-2.287-4.031-4.2-6.012-6.4a21.283,21.283,0,0,1-2.669-3.586,14.184,14.184,0,0,1-1.591-4.209,12.994,12.994,0,0,1-.12-4.51,12.76,12.76,0,0,1,1.53-4.245,31.528,31.528,0,0,1,2.51-3.681c.892-1.171,1.785-2.325,2.587-3.532a20.667,20.667,0,0,0,2.029-3.806,16.647,16.647,0,0,0,1.041-4.16,16.121,16.121,0,0,0-1.115-8.416,32.516,32.516,0,0,0-4.86-7.183,37.53,37.53,0,0,1-2.6-3.616,18.414,18.414,0,0,1-2.56-12.979,21.043,21.043,0,0,1,1.257-4.316,26.927,26.927,0,0,1,2.091-3.958,54.668,54.668,0,0,1,5.5-6.964c1.962-2.193,3.994-4.313,5.781-6.6a25.853,25.853,0,0,0,2.407-3.591,13.611,13.611,0,0,0,1.451-3.984,10.99,10.99,0,0,0-.064-4.189,8.763,8.763,0,0,0-1.794-3.742,15.521,15.521,0,0,0-1.467-1.545c-.536-.476-1.085-.942-1.667-1.373-1.154-.873-2.373-1.672-3.615-2.438-2.487-1.528-5.063-2.93-7.655-4.3s-7.838-4-7.838-4l-7.891-3.911c-2.627-1.312-5.285-2.56-7.927-3.841q-15.881-7.628-31.711-15.373Z" transform="translate(-786.063 -582.808)" fill="#111e61" opacity="0.7" style="mix-blend-mode: soft-light;isolation: isolate"/>
          </g>
        </g>
      </g>
      <g id="Grupo_83520" data-name="Grupo 83520" transform="translate(8.59 105.155)">
        <g id="Grupo_83519" data-name="Grupo 83519">
          <path id="Trazado_145659" data-name="Trazado 145659" d="M644.451,1785.787a103.853,103.853,0,0,1-19.416,7.738c-17.792,5.083-48.4,8.623-58.916-5.125-1.293-1.69-4.709-6.155-4.256-11.672.471-5.735,4.706-7.506,4.075-11.091-.862-4.9-9.295-4.531-17.679-10.158-7.12-4.779-15.687-14.88-14.86-26.763.907-13.029,12.57-20.437,13.839-21.216,8.62-5.288,21.9-7.2,30.21-.521,7.349,5.91,8.037,16.324,8.491,23.2,1.027,15.551-5.477,22.545-.792,27.99,4.267,4.959,11.5,1.3,16.69,7.917,2.216,2.827,1.583,4.374,5.048,9.907a45.347,45.347,0,0,0,6.616,8.328C622.509,1792.712,642.665,1786.37,644.451,1785.787Z" transform="translate(-533.344 -1702.707)" fill="#ffee58"/>
          <g id="Grupo_83518" data-name="Grupo 83518" clip-path="url(#clip-path-2)">
            <path id="Trazado_145660" data-name="Trazado 145660" d="M757.024,1741.229a189.5,189.5,0,0,1-25.113-1.656c-24.925-3.336-27.742-8.918-28.667-10.752-1.439-2.851-1.177-5.248-.9-7.787.311-2.853.632-5.8-1.238-9.9a17.69,17.69,0,0,0-6.081-7.147,17.013,17.013,0,0,1-5.862-6.849c-2.056-4.539-1.433-8.221-.773-12.12a36.194,36.194,0,0,0,.7-6.824c-.157-9.781-6.9-19.8-20.054-29.77l.189-.25c13.231,10.034,20.019,20.133,20.177,30.015a36.466,36.466,0,0,1-.7,6.881c-.651,3.85-1.267,7.487.75,11.939,1.564,3.452,3.606,5.045,5.769,6.732a17.952,17.952,0,0,1,6.174,7.263,17.151,17.151,0,0,1,1.265,10.062c-.272,2.491-.528,4.844.869,7.612.907,1.8,3.668,7.269,28.429,10.582a191.424,191.424,0,0,0,37.486,1.258l.02.312Q763.234,1741.229,757.024,1741.229Z" transform="translate(-657.067 -1652.984)" fill="#ffee58" opacity="0.5" style="mix-blend-mode: soft-light;isolation: isolate"/>
          </g>
        </g>
      </g>
    </g>
    <g id="Grupo_83531" data-name="Grupo 83531" transform="translate(468.117 464.476)">
      <g id="Grupo_83524" data-name="Grupo 83524">
        <path id="Trazado_145662" data-name="Trazado 145662" d="M1124.01,1137.188l-63.332-4.818V954.154l63.332-4.691Z" transform="translate(-1060.678 -949.464)" fill="url(#linear-gradient-2)"/>
        <g id="Grupo_83523" data-name="Grupo 83523" transform="translate(4.895 8.562)">
          <path id="Trazado_145663" data-name="Trazado 145663" d="M1116.2,1213.127V1050.5l58.437-3.928v170.6Z" transform="translate(-1116.195 -1046.572)" fill="#fff"/>
          <g id="Grupo_83522" data-name="Grupo 83522" clip-path="url(#clip-path-3)">
            <path id="Trazado_145664" data-name="Trazado 145664" d="M1120.175,585.682l-62.843,1.845c-.209-34.506-.382-83.81-.041-88.386a9.409,9.409,0,0,1-.738,2.856l-8.326-7.2c-.893,2.074-.92,3.809-.992,8.445-.041,2.631-.07,6.407-.085,11.223-.026,8.061-.016,19.186.029,33.067.077,23.615.232,47.367.234,47.6l.047,7.176,21.559-.4V653.6l-40.658-.773-24.292-48.611-33.369.594,44.818-81.121-7.089-8.66-49.27,89.987-21.2.377c.03-8.161.079-22.67.108-37.118.026-12.762.031-22.979.017-30.367-.029-14.733-.084-14.9-.384-15.835l-3.961,3.494a4.458,4.458,0,0,1-.2-.99c.208,3.065.115,47.81-.009,80.894l-22.14.394c-4.021-23.785-13.422-79.361-13.738-80.9l-7.374,4.679-.018-.091c.4,2.149,8.711,51.562,14.261,84.626l.8,4.759,46.393-.328L922.89,671.257l-56.565-2.018V681.79l60.3,2.8,36.493-66.053,36.332-.257,17,34.323-44.915-.854v97.5l4.7.449V659.14l43.987,1.088,44.361,89.564,8.166-8.127-40.547-81.141,42.266,1.045V601.808l45.7-.852Z" transform="translate(-888.356 -543.447)" fill="#d8dee8"/>
          </g>
        </g>
      </g>
      <g id="Grupo_83527" data-name="Grupo 83527" transform="translate(106.529 10.488)">
        <rect id="Rectángulo_31512" data-name="Rectángulo 31512" width="73.863" height="166.997" transform="translate(73.863 166.997) rotate(180)" fill="url(#linear-gradient-3)"/>
        <g id="Grupo_83526" data-name="Grupo 83526" transform="translate(0 7.513)">
          <rect id="Rectángulo_31513" data-name="Rectángulo 31513" width="151.855" height="67.875" transform="translate(67.875 0) rotate(90)" fill="#fff"/>
          <g id="Grupo_83525" data-name="Grupo 83525" transform="translate(0 0)" clip-path="url(#clip-path-4)">
            <path id="Trazado_145666" data-name="Trazado 145666" d="M614.982,839.563H558.838c-.2-28.229-.357-68.57-.039-72.287a6.5,6.5,0,0,1-.69,2.28l-7.839-6.562c-.846,1.637-.872,3.064-.94,6.878-.039,2.164-.066,5.274-.081,9.241-.025,6.64-.015,15.808.028,27.248.073,19.461.22,39.034.222,39.229l.045,5.912h20.125v41.915h-38.5l-24.143-40.981H472.362l46.155-67.772-7.09-7.82-51.481,75.592h-23.41c.033-7.315.088-20.32.121-33.27.029-11.438.035-20.6.019-27.219-.033-13.208-.094-13.363-.432-14.223l-4.464,2.84a3.434,3.434,0,0,1-.224-.9c.235,2.773.13,43.018-.01,72.777h-25.5c-4.731-21.927-15.915-73.732-16.295-75.18l-8.9,3.776-.022-.086c.488,2.034,10.5,48.383,17.117,79.041l.947,4.39h52.921l-32.407,47.585H351.165V923.9h72.527l40.539-59.525h38.1l17.109,29.041H473.251v85.1h4.991v-78.75h44.943l42.4,71.966,7.507-7.162-38.178-64.8h39.747V851.5h40.323Z" transform="translate(-520.252 -797.436)" fill="#d8dee8"/>
          </g>
        </g>
      </g>
      <g id="Grupo_83530" data-name="Grupo 83530" transform="translate(63.332)">
        <path id="Trazado_145667" data-name="Trazado 145667" d="M1822.16,1126.948l-43.2,10.24V949.464l43.2,10.488Z" transform="translate(-1778.963 -949.464)" fill="url(#linear-gradient-4)"/>
        <g id="Grupo_83529" data-name="Grupo 83529" transform="translate(0 8.562)">
          <path id="Trazado_145668" data-name="Trazado 145668" d="M1778.963,1217.173v-170.6l43.2,9.542v151.763Z" transform="translate(-1778.963 -1046.572)" fill="#d8dee8"/>
          <g id="Grupo_83528" data-name="Grupo 83528" clip-path="url(#clip-path-5)">
            <path id="Trazado_145669" data-name="Trazado 145669" d="M1094.607,749.418,1070.417,747c-.091-26.69-.166-64.841-.018-68.309a9.991,9.991,0,0,1-.321,2.057l-3.694-7.388c-.4,1.438-.416,2.8-.449,6.444-.019,2.068-.031,5.042-.039,8.84-.012,6.358-.007,15.14.013,26.1.035,18.645.105,37.4.106,37.584l.021,5.663,9.341.613v39.008l-18.351,1-12.608-41.092L1024.6,756.28l25.931-66.275-3.748-8.885-29.83,74.679-15.3-.963c.023-8.355.06-23.205.082-37.993.02-13.06.024-23.518.013-31.085-.022-15.091-.064-15.28-.294-16.326l-3.061,2.422a6.978,6.978,0,0,1-.155-1.084c.162,3.238.09,49.577-.007,83.85l-18.442-1.161c-3.61-26.879-12.4-92.264-12.7-94.144l-7.267,2.74-.018-.114c.4,2.674,8.551,62.191,13.766,100.361l.737,5.39,37.467,1.074L989.66,824.13l-55.946,6.041V846.14l59.014-8.4,26.9-68.754,22.231.638,9.157,29.321-25.879,1.416v91.477l2.98-.891V806.975l24.839-1.812,20.567,65.858,3.39-7.582-18.013-58.71,18.712-1.365V758.755l16.994,1.116Z" transform="translate(-1008.241 -693.46)" fill="#a2a7ae"/>
          </g>
        </g>
      </g>
    </g>
    <g id="Grupo_83534" data-name="Grupo 83534" transform="translate(555.117 417.579)">
      <g id="Grupo_83533" data-name="Grupo 83533" transform="translate(0 0)">
        <path id="Trazado_145671" data-name="Trazado 145671" d="M2156.565,472.166c0,23.326-32.678,65.89-47.467,83.959a9.2,9.2,0,0,1-14.24,0c-14.789-18.068-47.467-60.633-47.467-83.959a54.587,54.587,0,1,1,109.174,0Z" transform="translate(-2047.392 -417.579)" fill="#ff9800"/>
        <circle id="Elipse_4075" data-name="Elipse 4075" cx="30.444" cy="30.444" r="30.444" transform="translate(24.143 24.143)" fill="#fff"/>
        <g id="Grupo_83532" data-name="Grupo 83532" transform="translate(0 0.659)" opacity="0.3" style="mix-blend-mode: multiply;isolation: isolate">
          <path id="Trazado_145672" data-name="Trazado 145672" d="M2101.737,540.524c3.463-22.807,18.524-30.107,15.939-51.643-2.981-24.836-24.972-31.451-25.5-53.555a35.106,35.106,0,0,1,1.312-10.276,54.6,54.6,0,0,0-46.094,53.928c0,23.326,32.679,65.89,47.467,83.959a9.177,9.177,0,0,0,8.519,3.264A62.418,62.418,0,0,1,2101.737,540.524Z" transform="translate(-2047.392 -425.05)" fill="#ff9800"/>
        </g>
      </g>
      <circle id="Elipse_4076" data-name="Elipse 4076" cx="11.157" cy="11.157" r="11.157" transform="translate(43.429 153.946)" fill="#ff9800"/>
    </g>
    <g id="Grupo_83539" data-name="Grupo 83539" transform="translate(414.127 499.044)">
      <path id="Trazado_145673" data-name="Trazado 145673" d="M672.612,3053.511c-16.279-1.978-19.64,1.848-36.2,1.1-16.291-.738-17.409-4.638-30.716-3.84-11.964.718-27.37,4.847-27.425,9.324-.06,4.928,18.458,11.857,36.2,9.325,9.873-1.409,9.192-4.275,18.649-5.485,17.134-2.192,22.171,6.857,39.492,4.936,10.023-1.111,20.486-5.488,20.295-8.776C692.666,3055.948,675.512,3053.863,672.612,3053.511Z" transform="translate(-566.813 -2899.964)" fill="#d8dee8"/>
      <g id="Grupo_83538" data-name="Grupo 83538" transform="translate(0 0)">
        <g id="Grupo_83537" data-name="Grupo 83537">
          <path id="Trazado_145674" data-name="Trazado 145674" d="M1587.319,1350.573a6.765,6.765,0,0,1-1.1-3.466c-.085-3.215,2.3-5.723,2.621-5.579.172.078-.047,1.02-.169,1.437-.255.869-.53.953-.507,1.353.047.822,1.234.854,1.859,1.944a2.94,2.94,0,0,1,0,2.789A3.323,3.323,0,0,1,1587.319,1350.573Z" transform="translate(-1485.89 -1341.522)" fill="url(#linear-gradient-5)"/>
          <path id="Trazado_145675" data-name="Trazado 145675" d="M966.234,2165.009l.917-3.154-3.827-2.835-2.385-.892,1.412,4.413Z" transform="translate(-915.742 -2086.127)" fill="url(#linear-gradient-6)"/>
          <path id="Trazado_145676" data-name="Trazado 145676" d="M1020.491,2951.136s-2.093,5.265-1.542,7.6a23.542,23.542,0,0,1-3.7-.33,25.5,25.5,0,0,0,1.079-3.591,35.353,35.353,0,0,0,.22-4.208Z" transform="translate(-965.263 -2808.733)" fill="url(#linear-gradient-7)"/>
          <path id="Trazado_145677" data-name="Trazado 145677" d="M1332.271,3096a1.651,1.651,0,0,0-.4.967,1.575,1.575,0,0,0,.119.648c.357.939.917,1.063,1.522,2.06.37.609.3.792.638,1.067a2.217,2.217,0,0,0,1.454.388,25.835,25.835,0,0,0,3.362-.19q-1.127-1.452-2.4-2.944-.559-.654-1.115-1.276l-2.208-.746Z" transform="translate(-1253.972 -2941.285)" fill="#26264f"/>
          <path id="Trazado_145678" data-name="Trazado 145678" d="M1348.746,2974.669s1.262,6.587-.344,8.431c-1.368,1.844.661.528.661.528l2.423,2.115,1.454,2.511s-1.338-6.447-.981-9,.535-4.284.535-4.284Z" transform="translate(-1268.611 -2830.672)" fill="url(#linear-gradient-8)"/>
          <path id="Trazado_145679" data-name="Trazado 145679" d="M1055.4,2144.109s3.391,3.034,3.391,15.528-1.606,39.624-1.606,39.624l-2.57,19.423a16.983,16.983,0,0,1-4.45-.44c-1.606-7.318-4.224-19.7-2.975-30.049.536-11.245-4.462-25.345-4.462-25.345s-4.284,14.279-7.318,21.418-8.811,29.506-9.347,31.112c-3.551.322-5.067-.617-5.067-.617s2.277-24.07,4.418-33.172,1.963-31.056,5.533-37.3C1038.977,2141.075,1055.4,2144.109,1055.4,2144.109Z" transform="translate(-970.503 -2072.161)" fill="url(#linear-gradient-9)"/>
          <path id="Trazado_145680" data-name="Trazado 145680" d="M1055.4,2144.108s3.391,3.034,3.391,15.529-1.607,39.624-1.607,39.624l-2.57,19.423a16.983,16.983,0,0,1-4.45-.44c-1.606-7.318-4.224-19.7-2.975-30.049.536-11.245-4.462-25.345-4.462-25.345s-4.284,14.279-7.318,21.418-8.811,29.506-9.347,31.112c-3.551.322-5.067-.617-5.067-.617s2.277-24.069,4.418-33.172,1.963-31.056,5.533-37.3C1038.977,2141.074,1055.4,2144.108,1055.4,2144.108Z" transform="translate(-970.503 -2072.16)" fill="#636363"/>
          <path id="Trazado_145681" data-name="Trazado 145681" d="M1037.781,2167c-1.057,6.874-3.172,10.575-8.459,15.333-4.23,3.172-1.057,10.046-2.644,15.333-.529,1.586-2.115,3.172-2.644,4.759-1.968,3.935-.13,8.748-1.022,12.915a5.656,5.656,0,0,1-2.018-.578s2.277-24.069,4.418-33.172,1.963-31.056,5.533-37.3c8.032-3.213,24.452-.179,24.452-.179s3.391,3.034,3.391,15.529c0,1.014-.011,2.125-.03,3.309-3.521,3.115-10.721,3.808-15.162.354a2.1,2.1,0,0,0-.848-.385l-.023-.066-.018.062C1040.686,2162.542,1038.24,2165.167,1037.781,2167Z" transform="translate(-970.503 -2072.16)" fill="#636363" opacity="0.25" style="mix-blend-mode: multiply;isolation: isolate"/>
          <g id="Grupo_83535" data-name="Grupo 83535" transform="translate(48.338 148.1)">
            <path id="Trazado_145682" data-name="Trazado 145682" d="M1010.8,3065.466s.522,0,.478.674.235,2.991-2.417,3.1a8.119,8.119,0,0,1-3.147-.187,21.705,21.705,0,0,1,.7-2.217l.848-1.087,2.282-.239Z" transform="translate(-1004.904 -3061.563)" fill="#26264f"/>
            <path id="Trazado_145683" data-name="Trazado 145683" d="M996.592,3027.435a8.441,8.441,0,0,1,.685-2.15c.468-1.053.084-1.447.531-2.406a2.866,2.866,0,0,1,.632-.958,2.74,2.74,0,0,1,1.872-.713,1.9,1.9,0,0,1,.881.206,2.059,2.059,0,0,1,.793.837,9.317,9.317,0,0,1,.639,1.895,4.706,4.706,0,0,1,.237,1.224c-.7,0-3.369.108-3.934.522a2.215,2.215,0,0,0-.848,1.8c0,.7-.348,1.021-.7,1A1.142,1.142,0,0,1,996.592,3027.435Z" transform="translate(-996.574 -3021.207)" fill="#444b8c"/>
          </g>
          <path id="Trazado_145684" data-name="Trazado 145684" d="M1337.126,3059.795c-.6.009-1.036.485-1.366,1.63s-1.917,2.159-.066,1.917,3.195,2.379,3.855,3.349,2.435,1.831,2.391.883-.827-1.39-1.047-2.359S1338.488,3059.773,1337.126,3059.795Z" transform="translate(-1256.651 -2908.293)" fill="#444b8c"/>
          <path id="Trazado_145685" data-name="Trazado 145685" d="M925.5,1729.648c-.439-1.221-3.18-9.241,1.25-16.555a19.714,19.714,0,0,1,10.8-8.205c5.446-1.608,8.176.458,9.895-1.444,2.916-3.227-.387-14.22-6.777-16.422-7.2-2.482-15.842,7.062-19.344,13.33a28.9,28.9,0,0,0-3.2,18.081,28.221,28.221,0,0,0,3.486,9.76Z" transform="translate(-876.414 -1656.192)" fill="url(#linear-gradient-10)"/>
          <path id="Trazado_145686" data-name="Trazado 145686" d="M836.67,1672.629c6.429-.257,11.387-.155,14.188,2.644,2.958,2.956-.031,6.293.611,14.026.983,11.839,8.527,14.731,9.095,26.742a30.668,30.668,0,0,1-1.025,9.346,32.271,32.271,0,0,1-8.365,7.4c-5.82,3.541-9.195,2.923-17.552,5.211-13.671,3.741-14.887,8.2-21.666,7.062-6.851-1.147-12.862-6.913-12.136-10.079.435-1.9,3.2-1.359,6.376-4.251,4.1-3.727,2.518-7.285,5.634-11.29,4.475-5.753,10.71-2.236,14.524-7.222,3.858-5.044,2.328-14.982-.924-20.4-2.124-3.538-3.034-7.685-4.841-11.4a2.575,2.575,0,0,1-.248-1.446c.293-2.416,4.321-3.727,7.372-4.688A36.372,36.372,0,0,1,836.67,1672.629Z" transform="translate(-768.775 -1643.35)" fill="#ff9800"/>
          <path id="Trazado_145687" data-name="Trazado 145687" d="M1173.6,1666.539l-1.268-.39s-.332,1.717-4.408,1.931a6.091,6.091,0,0,1-3.726-1.268l-.866.632a6.662,6.662,0,0,0,4.923,2.314A6.065,6.065,0,0,0,1173.6,1666.539Z" transform="translate(-1100.295 -1637.526)" fill="url(#linear-gradient-11)"/>
          <g id="Grupo_83536" data-name="Grupo 83536" transform="translate(0 17.205)">
            <path id="Trazado_145688" data-name="Trazado 145688" d="M1179.713,1562.445a5.432,5.432,0,0,0-2.06-3.352c-1.362-1.082-1.639-1.191-2.106-1.28l-.639-.1-.07,0a6.365,6.365,0,0,0-1.7.6c-.651.458-.171,3.7,1.8,7.731l.233,1.024c-1.72.3-2.146.613-2.159.86-.029.537,1.854,1.221,3.6,1.266,2.188.056,4.512-.885,4.468-1.588-.018-.284-.431-.635-2.02-.98l-.745-1.047C1178.542,1565.314,1179.893,1563.834,1179.713,1562.445Z" transform="translate(-1108.985 -1555.859)" fill="url(#linear-gradient-12)"/>
            <path id="Trazado_145689" data-name="Trazado 145689" d="M1212.474,1602.518c-.5-.3-.875.342-.641.9a1.1,1.1,0,0,0,1.5.575C1213.806,1603.659,1213.142,1602.918,1212.474,1602.518Z" transform="translate(-1144.451 -1596.642)" fill="url(#linear-gradient-13)"/>
            <path id="Trazado_145690" data-name="Trazado 145690" d="M452.032,1542.524c6.534-7.09,21.736-5.146,30.168.549,3.918,2.646,5.929,5.771,10.559,6.033,3.52.2,9.118-1.124,12.067-4.936.372-.48,1.857-2.495,4.088-5.035a5.993,5.993,0,0,1,3.478-2.409,2.936,2.936,0,0,1,2.514.559,2.967,2.967,0,0,1,.652,2.677c-.122.5-.279.556-.256.885.063.924,1.746,1.327,1.653,1.792-.067.333-.943.211-1.094.629-.165.458.8.851,1.211,2,.775.519,1.264,1.809,1.433,3.536a15.731,15.731,0,0,1-.487,6.154c-2.316,7.478-3.972,12.827-7.98,15.815-5.307,3.955-10.086.3-23.586-.274-18.486-.791-23.095,5.475-29.738,1.189C448.417,1566.335,445.249,1549.886,452.032,1542.524Z" transform="translate(-448.345 -1536.658)" fill="#111e61"/>
          </g>
          <path id="Trazado_145691" data-name="Trazado 145691" d="M1305.723,1435.931a18.529,18.529,0,0,1-15.813,20.818c-5.615.849-8.037-1.571-10,.078-3.33,2.8-1.561,14.139,4.468,17.194,6.8,3.443,16.659-4.829,20.985-10.56a28.9,28.9,0,0,0,5.639-17.474,28.21,28.21,0,0,0-2.119-10.145,5.006,5.006,0,0,0-3.16.089Z" transform="translate(-1205.075 -1427.331)" fill="#ff9800"/>
          <path id="Trazado_145692" data-name="Trazado 145692" d="M828.691,2043.048c1.644-1.686-.166-5.084,2.263-7.611,2.254-2.345,4.805-.45,8.433-2.468,4.653-2.588,3.371-7.326,7.816-9.873,3.2-1.832,4.7.138,9.668-.823a20.118,20.118,0,0,0,13.987-10.49,18.029,18.029,0,0,0,1.8-7.486c2.231,3.986,4.545,7.806,4.85,14.252a30.67,30.67,0,0,1-1.025,9.346,32.272,32.272,0,0,1-8.365,7.4c-5.82,3.541-9.194,2.924-17.552,5.211-13.671,3.741-14.887,8.2-21.666,7.062a18.352,18.352,0,0,1-10.557-5.975C824.658,2044.411,827.5,2044.271,828.691,2043.048Z" transform="translate(-785.717 -1945.859)" fill="#ff9800" opacity="0.3" style="mix-blend-mode: multiply;isolation: isolate"/>
        </g>
      </g>
    </g>
  </g>
</svg>
