<svg xmlns="http://www.w3.org/2000/svg" width="400" height="420" viewBox="0 0 400 420">
  <g id="Grupo_84689" data-name="Grupo 84689" transform="translate(-600 -2792)">
    <rect id="Rectángulo_31927" data-name="Rectángulo 31927" width="400" height="420" rx="21" transform="translate(600 2792)" fill="#fff1db" opacity="0.897"/>
    <g id="greetings" transform="translate(740 2942)">
      <path id="Trazado_145561" data-name="Trazado 145561" d="M65.748,7.5A58.247,58.247,0,0,0,16.81,97.324L7.785,119.11a3.515,3.515,0,0,0,4.593,4.593l21.787-9.024A58.242,58.242,0,1,0,65.748,7.5Z" transform="translate(-5.749 -5.742)" fill="#ff9800"/>
      <path id="Trazado_145562" data-name="Trazado 145562" d="M256.008,37.5V139.919a51.209,51.209,0,0,0,0-102.419Z" transform="translate(-196.008 -28.711)" fill="#fff5de"/>
      <path id="Trazado_145563" data-name="Trazado 145563" d="M132.9,88.709c0-28.282-19.779-51.209-44.178-51.209a51.209,51.209,0,0,0,0,102.419C113.116,139.919,132.9,116.992,132.9,88.709Z" transform="translate(-28.718 -28.711)" fill="#fff"/>
      <path id="Trazado_145564" data-name="Trazado 145564" d="M256.008,97.5v74.295a37.147,37.147,0,0,0,0-74.295Z" transform="translate(-196.008 -74.649)" fill="#ffee58"/>
      <path id="Trazado_145565" data-name="Trazado 145565" d="M164.772,134.647c0-20.516-13.483-37.147-30.116-37.147a37.147,37.147,0,0,0,0,74.295C151.288,171.795,164.772,155.163,164.772,134.647Z" transform="translate(-74.656 -74.649)" fill="#ffee58"/>
      <path id="Trazado_145566" data-name="Trazado 145566" d="M271.171,256.371a3.51,3.51,0,0,1,3.921,4.329,19.711,19.711,0,0,1-6.415,10.12L256,269.6l12.682-12.874c.41-.054.823-.11,1.233-.171Z" transform="translate(-196.002 -196.257)" fill="#ff9800"/>
      <path id="Trazado_145567" data-name="Trazado 145567" d="M179.355,256.554l-1.256-.183a3.51,3.51,0,0,0-3.921,4.329,19.723,19.723,0,0,0,6.412,10.12l22.244-2.142a26.376,26.376,0,0,0,3.115-11.953A96.258,96.258,0,0,1,179.355,256.554Z" transform="translate(-133.269 -196.257)" fill="#ff9800"/>
      <path id="Trazado_145568" data-name="Trazado 145568" d="M265.567,309.005,256,315.76a19.636,19.636,0,0,0,12.677-4.612A19.746,19.746,0,0,0,265.567,309.005Z" transform="translate(-196.002 -236.584)" fill="#ffc571"/>
      <path id="Trazado_145569" data-name="Trazado 145569" d="M224.154,300.928c-2.327,4.139-5.751,6.755-9.567,6.755a19.64,19.64,0,0,1-12.677-4.612,19.73,19.73,0,0,1,22.244-2.142Z" transform="translate(-154.589 -228.507)" fill="#ffc571"/>
      <circle id="Elipse_4073" data-name="Elipse 4073" cx="3.516" cy="3.516" r="3.516" transform="translate(74.062 46.012)" fill="#111e61"/>
      <circle id="Elipse_4074" data-name="Elipse 4074" cx="3.516" cy="3.516" r="3.516" transform="translate(38.907 46.012)" fill="#2d5093"/>
      <path id="Trazado_145570" data-name="Trazado 145570" d="M102.427,17.573A60,60,0,0,0,9.089,91.753L.414,112.7a5.192,5.192,0,0,0,1.143,5.747A5.2,5.2,0,0,0,5.253,120a5.352,5.352,0,0,0,2.051-.415l20.942-8.674a60,60,0,0,0,74.18-93.338ZM60,116.481a56.272,56.272,0,0,1-30.629-9.02,1.759,1.759,0,0,0-1.627-.148L5.959,116.337a1.758,1.758,0,0,1-2.3-2.3l9.024-21.786a1.758,1.758,0,0,0-.148-1.627A56.487,56.487,0,1,1,60,116.481Z" transform="translate(0)"/>
      <path id="Trazado_145571" data-name="Trazado 145571" d="M128.92,167.81a38.905,38.905,0,1,0-38.905-38.905A38.949,38.949,0,0,0,128.92,167.81Zm0-74.295a35.39,35.39,0,1,1-35.39,35.39A35.43,35.43,0,0,1,128.92,93.516Z" transform="translate(-68.919 -68.907)"/>
      <path id="Trazado_145572" data-name="Trazado 145572" d="M172.627,248.883a5.279,5.279,0,0,0-4.705,1.708,5.215,5.215,0,0,0-1.169,4.806,21.492,21.492,0,0,0,41.581,0,5.216,5.216,0,0,0-1.169-4.806,5.277,5.277,0,0,0-4.705-1.708l-1.256.184a94.5,94.5,0,0,1-27.319,0Zm5.2,16.19a17.946,17.946,0,0,1,19.438,0,17.975,17.975,0,0,1-19.438,0Zm23.886-12.528,1.256-.183a1.747,1.747,0,0,1,1.578.574,1.686,1.686,0,0,1,.386,1.573,17.891,17.891,0,0,1-4.8,8.274,21.448,21.448,0,0,0-25.183,0,17.9,17.9,0,0,1-4.8-8.274,1.686,1.686,0,0,1,.386-1.573,1.746,1.746,0,0,1,1.313-.594,1.815,1.815,0,0,1,.265.019l1.257.183A98.013,98.013,0,0,0,201.711,252.545Z" transform="translate(-127.542 -190.51)"/>
      <path id="Trazado_145573" data-name="Trazado 145573" d="M313.788,199.372a5.273,5.273,0,1,0-5.273-5.273A5.279,5.279,0,0,0,313.788,199.372Zm0-7.031a1.758,1.758,0,1,1-1.758,1.758A1.76,1.76,0,0,1,313.788,192.341Z" transform="translate(-236.209 -144.57)"/>
      <path id="Trazado_145574" data-name="Trazado 145574" d="M163.788,199.372a5.273,5.273,0,1,0-5.273-5.273A5.279,5.279,0,0,0,163.788,199.372Zm0-7.031a1.758,1.758,0,1,1-1.758,1.758A1.76,1.76,0,0,1,163.788,192.341Z" transform="translate(-121.364 -144.57)" fill="#111e61"/>
      <path id="Trazado_145575" data-name="Trazado 145575" d="M120.436,45.514a52.965,52.965,0,0,0-72.247-2.482,1.758,1.758,0,0,0,2.31,2.65,49.454,49.454,0,1,1-4.8,4.8,1.758,1.758,0,1,0-2.65-2.31,52.967,52.967,0,1,0,77.388-2.66Z" transform="translate(-22.981 -22.969)"/>
    </g>
  </g>
</svg>
