<svg id="amabilidad" xmlns="http://www.w3.org/2000/svg" width="76.566" height="76.566" viewBox="0 0 76.566 76.566">
  <path id="Trazado_146745" data-name="Trazado 146745" d="M123.225,120.218a14.006,14.006,0,0,0-10.609,5,14.006,14.006,0,0,0-10.609-5c-8.065,0-14.6,7.153-14.6,15.978,0,12.361,25.212,29.5,25.212,29.5s25.212-17.144,25.212-29.5C137.829,127.371,131.291,120.218,123.225,120.218Z" transform="translate(-74.333 -102.24)" fill="#ff9800"/>
  <path id="Trazado_146746" data-name="Trazado 146746" d="M197.123,274.886v-3.662a5.485,5.485,0,0,0-4.48-5.392l-3.2-.6-9.786,0-3.183.594a5.485,5.485,0,0,0-4.48,5.392v3.662Z" transform="translate(-146.278 -225.572)" fill="#fff"/>
  <path id="Trazado_146747" data-name="Trazado 146747" d="M223.683,182.234h0A5.683,5.683,0,0,0,218,187.917v2.419a5.683,5.683,0,0,0,5.683,5.683h0a5.683,5.683,0,0,0,5.683-5.683v-2.419A5.683,5.683,0,0,0,223.683,182.234Z" transform="translate(-185.399 -154.982)" fill="#fcc69d"/>
  <path id="Trazado_146755" data-name="Trazado 146755" d="M7.329,0A7.329,7.329,0,1,1,0,7.329,7.329,7.329,0,0,1,7.329,0Z" transform="translate(0.593 0.593)" fill="#ffb74d"/>
  <path id="Trazado_146757" data-name="Trazado 146757" d="M7.329,0A7.329,7.329,0,1,1,0,7.329,7.329,7.329,0,0,1,7.329,0Z" transform="translate(0.593 61.316)" fill="#ffee58"/>
  <path id="Trazado_146758" data-name="Trazado 146758" d="M7.329,0A7.329,7.329,0,1,1,0,7.329,7.329,7.329,0,0,1,7.329,0Z" transform="translate(61.316 61.316)" fill="#ffd494"/>
  <path id="Trazado_146756" data-name="Trazado 146756" d="M7.329,0A7.329,7.329,0,1,1,0,7.329,7.329,7.329,0,0,1,7.329,0Z" transform="translate(61.316 0.593)" fill="#ffc571"/>
  <path id="Trazado_146748" data-name="Trazado 146748" d="M129.218,120.091a1.5,1.5,0,0,0-2.732,1.217,15.581,15.581,0,0,1,1.339,6.383c0,4.168-3.406,9.716-9.883,16.142a1.486,1.486,0,0,0,.223-.783v-3.662a6.983,6.983,0,0,0-5.7-6.862l-1.877-.35a7.134,7.134,0,0,0,.7-3.086V126.67a7.178,7.178,0,1,0-14.356,0v2.419a7.137,7.137,0,0,0,.7,3.086l-1.877.35a6.983,6.983,0,0,0-5.7,6.862v3.662a1.486,1.486,0,0,0,.223.783c-6.477-6.426-9.883-11.974-9.883-16.142,0-7.985,5.88-14.482,13.108-14.482a12.439,12.439,0,0,1,9.478,4.481,1.5,1.5,0,0,0,2.262,0,12.439,12.439,0,0,1,9.478-4.481,11.953,11.953,0,0,1,4.463.862,1.5,1.5,0,0,0,1.112-2.777,14.936,14.936,0,0,0-5.574-1.076,15.456,15.456,0,0,0-10.609,4.331A15.456,15.456,0,0,0,93.5,110.218c-8.877,0-16.1,7.838-16.1,17.473,0,5.56,4.4,12.452,13.086,20.485a122.133,122.133,0,0,0,12.781,10.256,1.5,1.5,0,0,0,1.682,0,122.164,122.164,0,0,0,12.781-10.256c8.683-8.033,13.086-14.925,13.086-20.485A18.54,18.54,0,0,0,129.218,120.091Zm-29.3,6.579a4.187,4.187,0,0,1,8.374,0v2.419a4.187,4.187,0,1,1-8.374,0Zm-6.879,12.718a3.992,3.992,0,0,1,3.258-3.922l3.428-.694v0a7.156,7.156,0,0,0,8.76,0v0l3.428.694a3.992,3.992,0,0,1,3.258,3.922v2.166H93.042Zm11.066,15.981a123,123,0,0,1-11.616-9.412q-.885-.819-1.7-1.62a1.486,1.486,0,0,0,.759.209H116.67a1.486,1.486,0,0,0,.759-.209q-.822.8-1.7,1.62A122.919,122.919,0,0,1,104.109,155.37Z" transform="translate(-65.825 -93.736)"/>
  <path id="Trazado_146749" data-name="Trazado 146749" d="M381.993,139.5a1.5,1.5,0,1,0,2.1-2.134l-.084-.082a1.5,1.5,0,1,0-2.077,2.153Z" transform="translate(-324.424 -116.399)"/>
  <path id="Trazado_146750" data-name="Trazado 146750" d="M8.075,16.151a8.028,8.028,0,0,0,4.551-1.409l2.167,2.167a1.5,1.5,0,0,0,2.115-2.115l-2.167-2.167a8.073,8.073,0,1,0-6.666,3.524Zm0-13.16A5.084,5.084,0,1,1,2.991,8.075,5.09,5.09,0,0,1,8.075,2.991Z"/>
  <path id="Trazado_146751" data-name="Trazado 146751" d="M395.036,386.961a8.028,8.028,0,0,0-4.551,1.409l-3.967-3.968a1.5,1.5,0,1,0-2.115,2.115l3.967,3.968a8.072,8.072,0,1,0,6.666-3.524Zm0,13.16a5.085,5.085,0,1,1,5.084-5.084A5.09,5.09,0,0,1,395.036,400.12Z" transform="translate(-326.544 -326.545)"/>
  <path id="Trazado_146752" data-name="Trazado 146752" d="M395.767,17.606a1.491,1.491,0,0,0,1.057-.438l2.426-2.426a8.084,8.084,0,1,0-2.115-2.115l-2.426,2.426a1.5,1.5,0,0,0,1.057,2.553ZM403.8,2.991a5.084,5.084,0,1,1-5.084,5.084A5.09,5.09,0,0,1,403.8,2.991Z" transform="translate(-335.311)"/>
  <path id="Trazado_146753" data-name="Trazado 146753" d="M15.578,391.194l-2.952,2.952a8.084,8.084,0,1,0,2.115,2.115l2.952-2.952a1.5,1.5,0,1,0-2.115-2.115Zm-7.5,14.7a5.084,5.084,0,1,1,5.084-5.085A5.09,5.09,0,0,1,8.075,405.9Z" transform="translate(0 -332.321)"/>
  <path id="Trazado_146754" data-name="Trazado 146754" d="M124.615,368.88a1.5,1.5,0,1,0,1.057.438A1.5,1.5,0,0,0,124.615,368.88Z" transform="translate(-104.708 -313.716)"/>
</svg>
