<svg xmlns="http://www.w3.org/2000/svg" width="298" height="144" viewBox="0 0 298 144">
  <g id="Grupo_84696" data-name="Grupo 84696" transform="translate(-964 -4552)">
    <rect id="Rectángulo_32169" data-name="Rectángulo 32169" width="298" height="144" rx="20" transform="translate(964 4552)" fill="#fff1db"/>
    <g id="auto-mejora" transform="translate(1062 4573)">
      <g id="Grupo_83927" data-name="Grupo 83927" transform="translate(20.355 2.613)">
        <g id="Grupo_83915" data-name="Grupo 83915" transform="translate(0 42.403)">
          <path id="Trazado_147062" data-name="Trazado 147062" d="M25.9,53.629H13V47.306a18.469,18.469,0,0,1,15.871-18.29l5.1-.726,1.613,10.823,3.839-2.306,2.613,3.919L38.806,61.693l4.839,6.452,4.839-6.452L45.258,40.725l2.613-3.919,3.839,2.306L53.323,28.29l5.1.726a18.251,18.251,0,0,1,5.645,1.758A18.482,18.482,0,0,1,74.29,47.306v6.323h-12.9V82.661H25.9Z" transform="translate(-13 -28.29)" fill="#e6e9ed"/>
        </g>
        <g id="Grupo_83916" data-name="Grupo 83916" transform="translate(25.806 54.839)">
          <path id="Trazado_147063" data-name="Trazado 147063" d="M35.452,36l3.226,20.968-4.839,6.452L29,56.968,32.226,36Z" transform="translate(-29 -36)" fill="#ff9800"/>
        </g>
        <g id="Grupo_83917" data-name="Grupo 83917" transform="translate(26.419 48.387)">
          <path id="Trazado_147064" data-name="Trazado 147064" d="M33.606,32l4.226,2.532-2.613,3.919H31.993L29.38,34.532Z" transform="translate(-29.38 -32)" fill="#ff9800"/>
        </g>
        <g id="Grupo_83918" data-name="Grupo 83918" transform="translate(20.968 41.935)">
          <path id="Trazado_147065" data-name="Trazado 147065" d="M29.226,28l6.452,6.452-4.226,2.532L27.613,39.29,26,28.468Z" transform="translate(-26 -28)" fill="#e6e9ed"/>
        </g>
        <g id="Grupo_83919" data-name="Grupo 83919" transform="translate(30.645 41.935)">
          <path id="Trazado_147066" data-name="Trazado 147066" d="M36.226,36.984,32,34.452,38.452,28l3.226.468L40.065,39.29Z" transform="translate(-32 -28)" fill="#e6e9ed"/>
        </g>
        <g id="Grupo_83920" data-name="Grupo 83920" transform="translate(12.903)">
          <path id="Trazado_147067" data-name="Trazado 147067" d="M56.484,13.29a21.02,21.02,0,0,1-.806,5.048c-.4,1.516-.806,2.629-.806,2.629l-.016.016a4.742,4.742,0,0,0-3.21-1.242H50.032V18.129a4.832,4.832,0,0,0-4.839-4.839c-8.065,0-9.677,4.839-17.742,6.452H25.839a4.783,4.783,0,0,0-3.226,1.242l-1.371-5.145a7.6,7.6,0,0,1-.242-1.9,7.845,7.845,0,0,1,5.161-7.355L36.774,2.726A11.676,11.676,0,0,1,40.839,2a11.917,11.917,0,0,1,9.548,4.774l1.258,1.677a4.846,4.846,0,0,1,4.839,4.839Z" transform="translate(-21 -2)" fill="#111e61"/>
        </g>
        <g id="Grupo_83921" data-name="Grupo 83921" transform="translate(3.226 67.742)">
          <path id="Trazado_147068" data-name="Trazado 147068" d="M15,44h9.677V73.032H15Z" transform="translate(-15 -44)" fill="#f0d0b4"/>
        </g>
        <g id="Grupo_83922" data-name="Grupo 83922" transform="translate(48.387 67.742)">
          <path id="Trazado_147069" data-name="Trazado 147069" d="M43,44h9.677V73.032H43Z" transform="translate(-43 -44)" fill="#f0d0b4"/>
        </g>
        <g id="Grupo_83923" data-name="Grupo 83923" transform="translate(41.806 17.742)">
          <path id="Trazado_147070" data-name="Trazado 147070" d="M38.92,22.677a8.946,8.946,0,0,0,.129-1.613V13h1.613A4.883,4.883,0,0,1,45.5,17.839a4.846,4.846,0,0,1-4.839,4.839H38.936Z" transform="translate(-38.92 -13)" fill="#f0d0b4"/>
        </g>
        <g id="Grupo_83924" data-name="Grupo 83924" transform="translate(24.194 35.952)">
          <path id="Trazado_147071" data-name="Trazado 147071" d="M39.4,24.29l1.5,5.984-6.452,6.452L28,30.274l1.5-5.984a11.278,11.278,0,0,0,9.9,0Z" transform="translate(-28 -24.29)" fill="#f0d0b4"/>
        </g>
        <g id="Grupo_83925" data-name="Grupo 83925" transform="translate(19.355 11.29)">
          <path id="Trazado_147072" data-name="Trazado 147072" d="M47.581,15.452v8.065a8.946,8.946,0,0,1-.129,1.613,11.275,11.275,0,0,1-22.323,0A8.946,8.946,0,0,1,25,23.516V15.452C33.065,13.839,34.677,9,42.742,9a4.832,4.832,0,0,1,4.839,4.839Z" transform="translate(-25 -9)" fill="#f0d0b4"/>
        </g>
        <g id="Grupo_83926" data-name="Grupo 83926" transform="translate(12.903 17.742)">
          <path id="Trazado_147073" data-name="Trazado 147073" d="M27.452,21.065a8.946,8.946,0,0,0,.129,1.613H25.839A4.846,4.846,0,0,1,21,17.839,4.857,4.857,0,0,1,25.839,13h1.613Z" transform="translate(-21 -13)" fill="#f0d0b4"/>
        </g>
      </g>
      <g id="Grupo_83928" data-name="Grupo 83928" transform="translate(1 1)">
        <path id="Trazado_147074" data-name="Trazado 147074" d="M10.5,17.76V62.254h3.226V17.76l6.924,6.924L22.928,22.4,12.111,11.586,1.293,22.4l2.281,2.281Z" transform="translate(-0.82 5.488)"/>
        <path id="Trazado_147075" data-name="Trazado 147075" d="M59,45h3.226v3.226H59Z" transform="translate(34.548 25.968)"/>
        <path id="Trazado_147076" data-name="Trazado 147076" d="M57,47h3.226v3.226H57Z" transform="translate(33.323 27.194)"/>
        <path id="Trazado_147077" data-name="Trazado 147077" d="M58.5,17.76V62.254h3.226V17.76l6.924,6.924L70.928,22.4,60.111,11.586,49.293,22.4l2.281,2.281Z" transform="translate(28.599 5.488)"/>
        <circle id="Elipse_4136" data-name="Elipse 4136" cx="1.613" cy="1.613" r="1.613" transform="translate(53.226 22.581)"/>
        <circle id="Elipse_4137" data-name="Elipse 4137" cx="1.613" cy="1.613" r="1.613" transform="translate(43.548 22.581)"/>
        <path id="Trazado_147078" data-name="Trazado 147078" d="M40.5,20.336l.169-.34-2.885-1.444-.169.342a3.607,3.607,0,0,1-6.452,0l-.169-.34L28.106,20l.169.34a6.833,6.833,0,0,0,12.223,0Z" transform="translate(15.613 9.758)"/>
        <path id="Trazado_147079" data-name="Trazado 147079" d="M76.516,71.968V64.039a20.1,20.1,0,0,0-17.26-19.9l-7.245-1.035-.939-3.75a12.933,12.933,0,0,0,5.663-7.71h.426A6.458,6.458,0,0,0,63.613,25.2a6.388,6.388,0,0,0-1.4-3.971,26.975,26.975,0,0,0,1.4-7.321,6.465,6.465,0,0,0-5.6-6.4l-.819-1.09a13.534,13.534,0,0,0-15.458-4.6L31.123,5.674a9.438,9.438,0,0,0-5.929,11.2l1.155,4.306A6.378,6.378,0,0,0,24.9,25.194a6.458,6.458,0,0,0,6.452,6.452h.424a12.921,12.921,0,0,0,5.663,7.71L36.5,43.1,29.26,44.14A20.093,20.093,0,0,0,12,64.039v7.929h3.226V101H73.29V71.968ZM52.1,46.376l-1.018,6.839L46.86,50.679l4.421-4.421ZM44.029,59.065h.458L47.4,77.994l-3.14,4.189-3.14-4.189Zm.979-3.226h-1.5l-1.194-1.792,1.944-1.166L46.2,54.047ZM57.161,28.419V21.968a3.226,3.226,0,1,1,0,6.452ZM32.224,8.7l10.61-3.858A10.323,10.323,0,0,1,54.611,8.352l1.744,2.326h.806A3.229,3.229,0,0,1,60.387,13.9a21.1,21.1,0,0,1-.932,5.279,6.376,6.376,0,0,0-2.294-.44A6.458,6.458,0,0,0,50.71,12.29c-4.887,0-7.71,1.671-10.44,3.285a22.668,22.668,0,0,1-7.482,3.166H31.355a6.37,6.37,0,0,0-2.21.415l-.831-3.1A6.224,6.224,0,0,1,32.224,8.7Zm-4.1,16.49a3.229,3.229,0,0,1,3.226-3.226v6.452A3.229,3.229,0,0,1,28.129,25.194Zm6.452,3.226V21.639a26.75,26.75,0,0,0,7.332-3.285c2.573-1.524,4.792-2.837,8.8-2.837a3.229,3.229,0,0,1,3.226,3.226v9.677a9.677,9.677,0,1,1-19.355,0Zm9.677,12.9A12.887,12.887,0,0,0,48.1,40.74l.827,3.315-4.665,4.665-4.666-4.666.827-3.315a12.854,12.854,0,0,0,3.839.584ZM37.237,46.26l4.421,4.421-4.224,2.535-1.019-6.839ZM18.452,97.774V71.968H24.9V97.774ZM60.387,62.29V97.774H28.129V62.29H24.9v6.452H15.226v-4.7a16.871,16.871,0,0,1,14.489-16.7l3.5-.5,1.734,11.629,4.59-2.755,1.411,2.116L37.721,78.844l6.537,8.716L50.8,78.845,47.561,57.826l1.411-2.116,4.59,2.755L55.3,46.835l3.508.5a16.871,16.871,0,0,1,14.487,16.7v4.7H63.613V62.29Zm9.677,35.484H63.613V71.968h6.452Z" transform="translate(5.742 -1)"/>
        <path id="Trazado_147080" data-name="Trazado 147080" d="M61,47h3.226v3.226H61Z" transform="translate(35.774 27.194)"/>
        <path id="Trazado_147081" data-name="Trazado 147081" d="M59,49h3.226v3.226H59Z" transform="translate(34.548 28.419)"/>
        <path id="Trazado_147082" data-name="Trazado 147082" d="M54,55h3.226v3.226H54Z" transform="translate(31.484 32.097)"/>
        <path id="Trazado_147083" data-name="Trazado 147083" d="M52,57h3.226v3.226H52Z" transform="translate(30.258 33.323)"/>
        <path id="Trazado_147084" data-name="Trazado 147084" d="M56,57h3.226v3.226H56Z" transform="translate(32.71 33.323)"/>
        <path id="Trazado_147085" data-name="Trazado 147085" d="M54,59h3.226v3.226H54Z" transform="translate(31.484 34.548)"/>
        <path id="Trazado_147086" data-name="Trazado 147086" d="M3,45H6.226v3.226H3Z" transform="translate(0.226 25.968)"/>
        <path id="Trazado_147087" data-name="Trazado 147087" d="M5,47H8.226v3.226H5Z" transform="translate(1.452 27.194)"/>
        <path id="Trazado_147088" data-name="Trazado 147088" d="M1,47H4.226v3.226H1Z" transform="translate(-1 27.194)"/>
        <path id="Trazado_147089" data-name="Trazado 147089" d="M3,49H6.226v3.226H3Z" transform="translate(0.226 28.419)"/>
        <path id="Trazado_147090" data-name="Trazado 147090" d="M8,55h3.226v3.226H8Z" transform="translate(3.29 32.097)"/>
        <path id="Trazado_147091" data-name="Trazado 147091" d="M10,57h3.226v3.226H10Z" transform="translate(4.516 33.323)"/>
        <path id="Trazado_147092" data-name="Trazado 147092" d="M6,57H9.226v3.226H6Z" transform="translate(2.065 33.323)"/>
        <path id="Trazado_147093" data-name="Trazado 147093" d="M8,59h3.226v3.226H8Z" transform="translate(3.29 34.548)"/>
      </g>
    </g>
  </g>
</svg>
