<svg xmlns="http://www.w3.org/2000/svg" width="298" height="145" viewBox="0 0 298 145">
  <g id="Grupo_84688" data-name="Grupo 84688" transform="translate(-337 -4232)">
    <rect id="Rectángulo_31067" data-name="Rectángulo 31067" width="298" height="145" rx="20" transform="translate(337 4232)" fill="#fff1db"/>
    <g id="la-lealtad-del-cliente" transform="translate(431.025 4255)">
      <g id="Grupo_83826" data-name="Grupo 83826" transform="translate(86.117 35.174)">
        <path id="Trazado_146874" data-name="Trazado 146874" d="M417.136,186.768l-.833,13.113a4.455,4.455,0,0,1,6.109,3.127l1.416-22.26a4.259,4.259,0,0,0-6.526,3.332Z" transform="translate(-416.303 -180.089)" fill="#ffd494" fill-rule="evenodd"/>
      </g>
      <g id="Grupo_83827" data-name="Grupo 83827" transform="translate(68.65 31.475)">
        <path id="Trazado_146875" data-name="Trazado 146875" d="M327.624,205.529l-.75,9.936,8.749,3.99,9.356-3.99c7.475-6.892,13.229-15.44,14.018-27.791l1.394-21.993a4.26,4.26,0,1,0-8.5-.539l-.022.367-1.416,22.26a4.454,4.454,0,0,0-6.109-3.127,6.189,6.189,0,0,0-1.683.928l-4.515,3.771-5.687,4.749C328.335,197.525,328.013,200.4,327.624,205.529Z" transform="translate(-326.874 -161.15)" fill="#ffd494" fill-rule="evenodd"/>
      </g>
      <g id="Grupo_83828" data-name="Grupo 83828" transform="translate(7.439 31.475)">
        <path id="Trazado_146876" data-name="Trazado 146876" d="M41.425,194.088l-5.687-4.749-4.515-3.771a6.27,6.27,0,0,0-1.683-.928,4.453,4.453,0,0,0-6.109,3.127l-1.416-22.26-.022-.367a4.263,4.263,0,0,0-8.508.539l1.4,21.993c.783,12.352,6.537,20.9,14.012,27.791l8.51,2.395,9.6-2.395-.75-9.936C45.868,200.4,45.54,197.525,41.425,194.088Z" transform="translate(-13.475 -161.15)" fill="#ffd494" fill-rule="evenodd"/>
      </g>
      <g id="Grupo_83829" data-name="Grupo 83829" transform="translate(15.979 35.174)">
        <path id="Trazado_146877" data-name="Trazado 146877" d="M64.722,199.881l-.833-13.113-.172-2.688A4.272,4.272,0,0,0,59.2,180.1a4.223,4.223,0,0,0-2,.65l1.416,22.26A4.452,4.452,0,0,1,64.722,199.881Z" transform="translate(-57.197 -180.089)" fill="#ffd494" fill-rule="evenodd"/>
      </g>
      <g id="Grupo_83831" data-name="Grupo 83831" transform="translate(16.54 85.789)">
        <path id="Trazado_146879" data-name="Trazado 146879" d="M84.5,439.24H61.9a1.837,1.837,0,0,0-1.827,1.833v9.086a1.832,1.832,0,0,0,1.827,1.827H87.454a1.832,1.832,0,0,0,1.827-1.827v-9.086a1.837,1.837,0,0,0-1.827-1.833Z" transform="translate(-60.069 -439.24)" fill="#ff9800" fill-rule="evenodd"/>
      </g>
      <g id="Grupo_83832" data-name="Grupo 83832" transform="translate(63.868 85.789)">
        <path id="Trazado_146880" data-name="Trazado 146880" d="M304.219,439.24a1.837,1.837,0,0,0-1.827,1.833v9.086a1.832,1.832,0,0,0,1.827,1.827h25.558a1.832,1.832,0,0,0,1.827-1.827v-9.086a1.837,1.837,0,0,0-1.827-1.833H304.219Z" transform="translate(-302.392 -439.24)" fill="#ff9800" fill-rule="evenodd"/>
      </g>
      <g id="Grupo_83833" data-name="Grupo 83833" transform="translate(35.775 22.522)">
        <path id="Trazado_146881" data-name="Trazado 146881" d="M191.045,147.807a19.035,19.035,0,1,0-26.919,0,18.164,18.164,0,0,0,1.633,1.45h23.659A19.848,19.848,0,0,0,191.045,147.807Z" transform="translate(-158.553 -115.314)" fill="#ffee58" fill-rule="evenodd"/>
      </g>
      <g id="Grupo_83834" data-name="Grupo 83834" transform="translate(42.981 43.685)">
        <path id="Trazado_146882" data-name="Trazado 146882" d="M212.132,225.667c-2-2.638-6.07-2.694-9.708,0a11.868,11.868,0,0,0-6.975,10.78,19.029,19.029,0,0,0,23.659,0A11.868,11.868,0,0,0,212.132,225.667Z" transform="translate(-195.449 -223.668)" fill="#ffb74d" fill-rule="evenodd"/>
      </g>
      <g id="Grupo_83835" data-name="Grupo 83835" transform="translate(24.837 7.541)">
        <path id="Trazado_146883" data-name="Trazado 146883" d="M115.169,53.443l.105-5.032,2.871-4.138-4.754-1.655-3.043-4.01-3.044,4.01-4.754,1.655,2.871,4.138.105,5.032,4.821-1.455Z" transform="translate(-102.551 -38.609)" fill="#ffee58" fill-rule="evenodd"/>
      </g>
      <g id="Grupo_83836" data-name="Grupo 83836" transform="translate(47.013 1.465)">
        <path id="Trazado_146884" data-name="Trazado 146884" d="M218.963,17.3l.105,5.032,4.82-1.449,4.821,1.449.105-5.032,2.871-4.132L226.933,11.5l-3.044-4-3.049,4-4.748,1.661Z" transform="translate(-216.092 -7.5)" fill="#ffee58" fill-rule="evenodd"/>
      </g>
      <g id="Grupo_83837" data-name="Grupo 83837" transform="translate(69.189 7.541)">
        <path id="Trazado_146885" data-name="Trazado 146885" d="M329.633,44.274l2.866,4.138.111,5.032,4.82-1.455,4.815,1.455.111-5.032,2.871-4.138-4.754-1.655-3.044-4.01-3.049,4.01Z" transform="translate(-329.633 -38.609)" fill="#ffee58" fill-rule="evenodd"/>
      </g>
      <g id="Grupo_83846" data-name="Grupo 83846" transform="translate(47.069 31.911)">
        <path id="Trazado_146894" data-name="Trazado 146894" d="M228.973,177.158a7.742,7.742,0,1,0-4.854,1.711A7.724,7.724,0,0,0,228.973,177.158Z" transform="translate(-216.377 -163.385)" fill="#fff1db" fill-rule="evenodd"/>
      </g>
      <g id="Grupo_83850" data-name="Grupo 83850" transform="translate(5.974 0)">
        <path id="Trazado_146898" data-name="Trazado 146898" d="M97.931,42.848l.1,4.59a1.465,1.465,0,0,0,1.888,1.372l4.4-1.327,4.4,1.327a1.465,1.465,0,0,0,1.888-1.371l.1-4.59,2.619-3.775a1.465,1.465,0,0,0-.722-2.219l-4.336-1.51-2.776-3.658a1.465,1.465,0,0,0-2.334,0l-2.776,3.658-4.336,1.51a1.465,1.465,0,0,0-.722,2.219Zm3.82-4.881a1.463,1.463,0,0,0,.685-.5L104.313,35l1.876,2.473a1.466,1.466,0,0,0,.685.5l2.933,1.021-1.772,2.553a1.462,1.462,0,0,0-.261.8l-.065,3.1-2.973-.9a1.46,1.46,0,0,0-.846,0l-2.973.9-.065-3.1a1.462,1.462,0,0,0-.261-.8l-1.772-2.553Z" transform="translate(-77.653 -25.032)"/>
        <path id="Trazado_146899" data-name="Trazado 146899" d="M211.472,11.735l.1,4.59a1.465,1.465,0,0,0,1.886,1.372l4.4-1.323,4.4,1.323a1.465,1.465,0,0,0,1.886-1.372l.1-4.59,2.619-3.769a1.465,1.465,0,0,0-.72-2.219L221.8,4.231,219.02.579A1.465,1.465,0,0,0,217.854,0h0a1.465,1.465,0,0,0-1.165.578l-2.782,3.654-4.333,1.516a1.465,1.465,0,0,0-.719,2.219Zm3.816-4.883a1.461,1.461,0,0,0,.682-.5l1.883-2.472,1.878,2.471a1.463,1.463,0,0,0,.683.5l2.934,1.025-1.771,2.549a1.462,1.462,0,0,0-.262.805l-.065,3.1-2.975-.895a1.468,1.468,0,0,0-.844,0l-2.974.895-.065-3.1a1.461,1.461,0,0,0-.262-.805l-1.771-2.55Z" transform="translate(-169.018 0)"/>
        <path id="Trazado_146900" data-name="Trazado 146900" d="M325.009,42.847l.1,4.592A1.465,1.465,0,0,0,327,48.809l4.4-1.327,4.391,1.327a1.465,1.465,0,0,0,1.888-1.37l.1-4.591,2.62-3.775a1.465,1.465,0,0,0-.722-2.219l-4.336-1.51-2.776-3.658a1.465,1.465,0,0,0-1.166-.579h0a1.466,1.466,0,0,0-1.166.578l-2.782,3.658-4.332,1.51a1.465,1.465,0,0,0-.722,2.217Zm3.82-4.882a1.465,1.465,0,0,0,.684-.5l1.882-2.475,1.878,2.474a1.465,1.465,0,0,0,.685.5l2.933,1.021-1.772,2.553a1.465,1.465,0,0,0-.261.8l-.069,3.1-2.969-.9a1.46,1.46,0,0,0-.847,0l-2.975.9-.069-3.1a1.465,1.465,0,0,0-.26-.8L325.9,38.987Z" transform="translate(-260.383 -25.031)"/>
        <path id="Trazado_146901" data-name="Trazado 146901" d="M192.093,128.352a20.484,20.484,0,1,0-6.006,14.5,20.354,20.354,0,0,0,6.006-14.5ZM159.168,115.93a17.568,17.568,0,0,1,25.366,24.3,13.369,13.369,0,0,0-5.7-8.105,9.207,9.207,0,1,0-14.481,0,13.369,13.369,0,0,0-5.7,8.109,17.594,17.594,0,0,1,.514-24.307Zm6.15,10.521a6.277,6.277,0,1,1,6.277,6.277A6.284,6.284,0,0,1,165.318,126.452Zm-4.063,16.109a10.409,10.409,0,0,1,5.356-8.373,9.175,9.175,0,0,0,9.968,0,10.41,10.41,0,0,1,5.356,8.37A17.616,17.616,0,0,1,161.255,142.56Z" transform="translate(-122.759 -86.798)"/>
        <path id="Trazado_146902" data-name="Trazado 146902" d="M334.7,155.594a5.728,5.728,0,0,0-9.692,1.873,5.861,5.861,0,0,0-.782-.108,5.742,5.742,0,0,0-6.082,5.353l-.167,2.686-.777,12.23a8.169,8.169,0,0,0-1.16.734l-.056.044-10.2,8.519c-4.488,3.745-4.941,7.009-5.354,12.455l-.647,8.581h-1.6a3.3,3.3,0,0,0-3.292,3.3v9.086a3.3,3.3,0,0,0,3.292,3.292h9.391a1.465,1.465,0,1,0,0-2.93h-9.391a.367.367,0,0,1-.362-.362v-9.086a.37.37,0,0,1,.362-.368h25.558a.37.37,0,0,1,.362.368v9.086a.367.367,0,0,1-.362.362h-9.386a1.465,1.465,0,1,0,0,2.93h9.386a3.3,3.3,0,0,0,3.292-3.292v-9.086a3.3,3.3,0,0,0-3.292-3.3h-.909c7.448-7.75,11.248-16.167,11.89-26.234l1.394-21.992A5.68,5.68,0,0,0,334.7,155.594Zm-13.8,9.988.167-2.685a2.812,2.812,0,0,1,2.965-2.614,2.894,2.894,0,0,1,.572.1l-1.1,17.289a5.942,5.942,0,0,0-1.182-.543,6.16,6.16,0,0,0-2.136-.3Zm12.293-6.032L331.8,181.543c-.652,10.209-4.831,18.617-13.136,26.42H302.718l.631-8.36c.384-5.057.7-7.42,4.31-10.427l10.173-8.5a3.819,3.819,0,0,1,3.569-.768,2.732,2.732,0,0,1,1.8,1.786c.331,1.13-.148,2.412-1.352,3.612-.794.794-2.032,2.081-3.342,3.445-1.778,1.85-3.794,3.946-4.773,4.878a1.465,1.465,0,1,0,2.02,2.123c1.026-.976,2.978-3.006,4.865-4.969,1.3-1.352,2.529-2.63,3.3-3.4a6.84,6.84,0,0,0,2.264-5.7l1.429-22.483a2.8,2.8,0,0,1,5.579.352Z" transform="translate(-238.463 -123.639)"/>
        <path id="Trazado_146903" data-name="Trazado 146903" d="M43.925,207.963h-1.6l-.648-8.582c-.413-5.443-.865-8.7-5.353-12.454l-10.2-8.52-.056-.045a8.44,8.44,0,0,0-1.16-.738l-.949-14.915a5.736,5.736,0,0,0-6.081-5.35,5.92,5.92,0,0,0-.778.106,5.727,5.727,0,0,0-11.115,2.271l1.4,21.993c.638,10.066,4.436,18.483,11.885,26.234h-.9a3.3,3.3,0,0,0-3.292,3.3v9.086a3.3,3.3,0,0,0,3.292,3.292h9.386a1.465,1.465,0,0,0,0-2.93H18.367a.367.367,0,0,1-.362-.362v-9.086a.37.37,0,0,1,.362-.368H43.925a.37.37,0,0,1,.362.368v9.086a.367.367,0,0,1-.362.362H34.539a1.465,1.465,0,0,0,0,2.93h9.386a3.3,3.3,0,0,0,3.292-3.292v-9.086A3.3,3.3,0,0,0,43.925,207.963Zm-25.853-47.68a2.808,2.808,0,0,1,2.965,2.613l.886,13.917a6.1,6.1,0,0,0-3.318.858l-1.1-17.289A2.853,2.853,0,0,1,18.072,160.283Zm-7.762,21.26L8.91,159.55a2.8,2.8,0,0,1,5.584-.352l.022.35q0,.024,0,.047l1.4,22.063a6.737,6.737,0,0,0,2.26,5.725c.791.788,2.049,2.1,3.381,3.481,1.858,1.931,3.779,3.927,4.791,4.89a1.465,1.465,0,1,0,2.02-2.123c-.965-.918-2.863-2.891-4.7-4.8-1.343-1.4-2.612-2.714-3.422-3.523-1.89-1.89-1.667-3.593-.829-4.556.971-1.116,2.947-1.5,4.853-.074l10.173,8.5c3.606,3.012,3.927,5.373,4.31,10.427l.631,8.361H23.439c-8.3-7.8-12.483-16.212-13.13-26.419Z" transform="translate(-5.974 -123.639)"/>
      </g>
    </g>
  </g>
</svg>
