<svg xmlns="http://www.w3.org/2000/svg" width="120" height="114.537" viewBox="0 0 120 114.537">
  <g id="mapa" transform="translate(0 -2.731)">
    <path id="Trazado_147135" data-name="Trazado 147135" d="M118.239,30.826H14.779V90.707A13.014,13.014,0,0,0,1.77,103.382a12.465,12.465,0,0,0,12.459,12.125H118.238V30.826Z" fill="#d2e1f1"/>
    <path id="Trazado_147137" data-name="Trazado 147137" d="M33.722,30.826s-4.135,19.5-18.943,19.825V30.826Z" fill="#ffd494"/>
    <path id="Trazado_147138" data-name="Trazado 147138" d="M14.779,90.707V10.172A13.017,13.017,0,0,0,1.762,23.189v80.535A13.017,13.017,0,0,1,14.779,90.707Z" fill="#546f7a"/>
    <path id="Trazado_147139" data-name="Trazado 147139" d="M8.112,12.008a13.009,13.009,0,0,0-6.351,11.18v80.535a13.009,13.009,0,0,1,6.351-11.18Z" fill="#475d63"/>
    <g id="Grupo_83976" data-name="Grupo 83976">
      <path id="Trazado_147140" data-name="Trazado 147140" d="M71.9,42.575s-13.7.193-20.053,5.016c-4.87,3.7-5.552,7.711,12.251,3.816,13.012-2.847,18.231,2.975,15.426,5.708s-12.9,2.391-17.686,2.049-5.123,2.391-10.246,7.172-1.708,9.221,7.528,10.246,11.257,6.489,11.6,10.929-2.049,5.806-3.074,9.221-.341,9.221,4.1,11.27,10.246-4.781,11.92-6.489,1.741-9.9,2.766-12.3,7.958-7.934,7.958-7.934S81.3,68.726,84.037,64.628s6.489-2.049,12.637,4.1c2.494,2.494,10.268-4.954,12.42-11.779A176.742,176.742,0,0,0,117.8,30.825H73.13a46.879,46.879,0,0,0-5.568,3.825C64.487,37.384,71.9,42.575,71.9,42.575Z" fill="#ff9800"/>
      <path id="Trazado_147141" data-name="Trazado 147141" d="M27.651,68.083c1.733,4.044,6.63,1.334,10.674-.4s6.626-9.278,4.893-13.323-6.29-1.113-10.335.62S25.918,64.039,27.651,68.083Z" fill="#ff9800"/>
      <path id="Trazado_147142" data-name="Trazado 147142" d="M60.886,115.507s-4.019-12.639-15.575-11.783-7.034-5.424-15.575-4.67-15.506,16.453-15.506,16.453H60.886Z" fill="#ff9800"/>
    </g>
    <path id="Trazado_147144" data-name="Trazado 147144" d="M118.239,75.345s-11.426,5.32-11.3,12.863-16.455,12.732-11.538,27.3h22.835V75.345Z" fill="#ffd494"/>
    <path id="Trazado_147146" data-name="Trazado 147146" d="M94.492,4.493A15.518,15.518,0,0,0,78.974,20.011c0,13.051,15.518,25.059,15.518,25.059S110.01,33.062,110.01,20.011A15.518,15.518,0,0,0,94.492,4.493Zm0,21.707a6.189,6.189,0,1,1,6.189-6.189A6.189,6.189,0,0,1,94.492,26.2Z" fill="#ff9800"/>
    <path id="Trazado_147147" data-name="Trazado 147147" d="M94.492,4.493a15.582,15.582,0,0,0-3.171.325,15.523,15.523,0,0,1,12.347,15.192c0,9.258-7.808,17.99-12.347,22.284,1.859,1.759,3.171,2.775,3.171,2.775S110.01,33.062,110.01,20.011A15.518,15.518,0,0,0,94.492,4.493Z" fill="#ff9800"/>
    <path id="Trazado_147148" data-name="Trazado 147148" d="M42.118,50.881c-2.475-.949-5.381.4-8.192,1.7-.6.279-1.173.543-1.736.784-4.938,2.115-8.276,10.471-6.158,15.415a4.96,4.96,0,0,0,2.762,2.817,5.5,5.5,0,0,0,2.028.364c2.2,0,4.615-1.072,6.972-2.117.414-.184.824-.365,1.224-.537,2.354-1.008,4.387-3.494,5.578-6.82,1.146-3.2,1.236-6.494.241-8.816A4.854,4.854,0,0,0,42.118,50.881ZM41.28,61.3c-.837,2.336-2.235,4.163-3.648,4.769-.415.178-.837.365-1.265.555-2.218.984-4.979,2.208-6.284,1.7a1.493,1.493,0,0,1-.812-.925C27.909,64.211,30.4,57.96,33.577,56.6c.61-.261,1.229-.548,1.829-.825,1.945-.9,4.367-2.021,5.45-1.605.119.046.436.167.743.885A9.212,9.212,0,0,1,41.28,61.3Z"/>
    <path id="Trazado_147149" data-name="Trazado 147149" d="M102.443,20.011a7.951,7.951,0,1,0-7.951,7.951A7.96,7.96,0,0,0,102.443,20.011Zm-12.379,0a4.428,4.428,0,1,1,4.428,4.428A4.433,4.433,0,0,1,90.065,20.011Z"/>
    <path id="Trazado_147150" data-name="Trazado 147150" d="M40.567,84.341c-1.364.481-2.144.711-2.152.714a1.762,1.762,0,1,0,.991,3.381c.035-.01.868-.255,2.333-.772a1.762,1.762,0,0,0-1.172-3.323Z"/>
    <path id="Trazado_147151" data-name="Trazado 147151" d="M84.639,57.787a1.762,1.762,0,0,0,2.488-.136c.535-.6,1.065-1.2,1.575-1.8a1.762,1.762,0,0,0-2.683-2.283c-.491.576-1,1.16-1.515,1.735A1.761,1.761,0,0,0,84.639,57.787Z"/>
    <path id="Trazado_147152" data-name="Trazado 147152" d="M72.751,66.355c-.6.48-1.215.959-1.822,1.423a1.762,1.762,0,1,0,2.138,2.8c.628-.479,1.261-.974,1.882-1.47a1.762,1.762,0,1,0-2.2-2.753Z"/>
    <path id="Trazado_147153" data-name="Trazado 147153" d="M79.7,60.272c-.547.526-1.113,1.058-1.682,1.579a1.762,1.762,0,0,0,2.381,2.6c.589-.54,1.176-1.091,1.743-1.637A1.762,1.762,0,0,0,79.7,60.272Z"/>
    <path id="Trazado_147154" data-name="Trazado 147154" d="M49.126,80.841c-.7.323-1.413.642-2.114.947a1.762,1.762,0,1,0,1.407,3.23c.723-.315,1.456-.643,2.179-.976a1.762,1.762,0,0,0-1.472-3.2Z"/>
    <path id="Trazado_147155" data-name="Trazado 147155" d="M35.332,82.977a1.762,1.762,0,0,0-2.491,0l-2.74,2.74-2.74-2.74a1.762,1.762,0,0,0-2.491,2.491l2.741,2.74-2.741,2.74A1.762,1.762,0,1,0,27.36,93.44L30.1,90.7l2.74,2.74a1.762,1.762,0,1,0,2.492-2.491l-2.74-2.74,2.74-2.74A1.762,1.762,0,0,0,35.332,82.977Z"/>
    <path id="Trazado_147156" data-name="Trazado 147156" d="M118.239,29.064h-8.526a22.4,22.4,0,0,0,2.059-9.053A17.288,17.288,0,0,0,87.766,4.09a1.762,1.762,0,0,0,1.373,3.245,13.764,13.764,0,0,1,19.11,12.676c0,10.09-10.344,19.832-13.757,22.771C91.076,39.846,80.736,30.12,80.736,20.011a13.764,13.764,0,0,1,3.247-8.877,1.762,1.762,0,0,0-2.69-2.275,17.29,17.29,0,0,0-4.08,11.152,22.546,22.546,0,0,0,2.068,9.053H16.541V10.172A1.761,1.761,0,0,0,14.779,8.41,14.8,14.8,0,0,0,0,23.189v80.535a1.767,1.767,0,0,0,.044.388,14.227,14.227,0,0,0,14.185,13.156H118.238A1.761,1.761,0,0,0,120,115.507h0V30.826A1.761,1.761,0,0,0,118.239,29.064ZM81.1,32.588A54.7,54.7,0,0,0,92.38,45.619a1.751,1.751,0,0,0-.775.632c-.431.632-.875,1.265-1.322,1.883A1.762,1.762,0,0,0,93.139,50.2c.465-.644.928-1.3,1.376-1.961a1.756,1.756,0,0,0,.25-1.426,1.754,1.754,0,0,0,.8-.346,57.749,57.749,0,0,0,8.031-7.9,45.786,45.786,0,0,0,4.286-5.978h7.67a182.732,182.732,0,0,1-8.092,23.684c-.02.048-.038.1-.053.146a21.811,21.811,0,0,1-5.048,8.075c-2.4,2.477-4.072,3.031-4.469,2.963-4.258-4.255-7.765-7.018-11.026-6.7a5.858,5.858,0,0,0-4.3,2.891c-1.653,2.48-.305,6.275,4.242,11.944,1.8,2.244,3.7,4.279,4.954,5.562-2.273,1.914-6.083,5.324-6.958,7.367a24.539,24.539,0,0,0-1.085,5.51c-.257,1.945-.734,5.564-1.32,6.246-.158.161-.352.367-.577.605-1.6,1.694-6.458,6.85-9.346,5.518-3.381-1.56-4-6.325-3.149-9.165a13.14,13.14,0,0,1,1.3-2.776,11.174,11.174,0,0,0,1.847-7.087c-.416-5.412-3.018-9.192-7.6-11.155a1.74,1.74,0,0,0,.372-.176c.669-.428,1.341-.867,2-1.305a1.762,1.762,0,0,0-1.958-2.929c-.637.425-1.289.851-1.938,1.266a1.761,1.761,0,0,0-.544,2.417,21.808,21.808,0,0,0-3.488-.662c-4.45-.494-7.692-1.918-8.258-3.628-.431-1.3.9-2.8,1.738-3.579,1.553-1.449,2.69-2.725,3.6-3.75,1.94-2.177,2.654-2.978,4.64-2.978.21,0,.434.009.675.026a77.521,77.521,0,0,0,9.818.129c4.653-.286,7.669-1.16,9.223-2.674a4.072,4.072,0,0,0,.719-5.015c-.992-1.842-3.161-3.249-6.11-3.96a26.606,26.606,0,0,0-11.64.284c-8.956,1.959-11.989,1.611-12.909,1.347a9.108,9.108,0,0,1,2.1-2.04c5.8-4.407,18.848-4.655,19.012-4.658a1.762,1.762,0,0,0,.987-3.2c-2.041-1.434-4.27-3.73-4.335-4.862-.005-.092-.009-.158.154-.3a39.247,39.247,0,0,1,4.9-3.381H81.1Zm-49.69,0C29.983,37.1,25.764,47.346,16.541,48.736V32.588H31.409Zm-14.35,81.157c2.6-4.878,7.691-12.483,12.831-12.936,3.138-.277,3.86.454,4.955,1.561,1.964,1.986,4.117,3.591,10.6,3.111,4.143-.308,7.7,1.319,10.552,4.836a19.808,19.808,0,0,1,2.217,3.429H17.059Zm99.418,0H96.715c-1.876-7.249,2.34-11.7,6.424-16.012.662-.7,1.287-1.359,1.886-2.031a1.762,1.762,0,0,0-2.631-2.343c-.562.631-1.17,1.272-1.812,1.951-3.966,4.186-9.279,9.8-7.482,18.435h-31a23.885,23.885,0,0,0-3.292-5.553c-3.584-4.467-8.3-6.621-13.625-6.224-5.383.4-6.572-.8-7.83-2.075-1.69-1.709-3.334-2.985-7.77-2.594-8.142.719-14.6,12.638-16.442,16.392a10.638,10.638,0,0,1-9.606-10.31,11.334,11.334,0,0,1,.163-1.6l.008-.046c.027-.154.059-.308.092-.46l.025-.11q.045-.2.1-.389c.017-.063.035-.125.053-.187.03-.1.06-.2.093-.306s.061-.182.093-.273c.025-.071.049-.143.076-.213.045-.121.093-.242.143-.361.016-.04.032-.08.049-.119q.1-.224.2-.442l.015-.031A11.3,11.3,0,0,1,12.491,92.7l.028-.006c.159-.032.319-.06.481-.086l.081-.014c.146-.022.294-.04.442-.056l.123-.015c.142-.014.286-.024.43-.033l.136-.01q.282-.014.568-.014a1.761,1.761,0,0,0,1.762-1.762V76.689a1.762,1.762,0,1,0-3.523,0V89.049c-.233.027-.464.062-.694.1l-.043.008c-.216.037-.43.079-.643.124l-.045.01a14.686,14.686,0,0,0-7.132,3.855q-.494.482-.936,1V23.189a11.274,11.274,0,0,1,9.494-11.118h0V69.643h0a1.762,1.762,0,0,0,3.523,0V52.29c5.954-.708,11.038-4.4,14.782-10.783a39.055,39.055,0,0,0,3.767-8.92H67.307q-.533.407-.916.747a3.791,3.791,0,0,0-1.331,3.14,8.1,8.1,0,0,0,2.449,4.612c-4.762.466-12.281,1.724-16.727,5.1-3.11,2.363-4.252,4.5-3.4,6.356.9,1.941,3.627,3.529,17.089.584a22.592,22.592,0,0,1,10.061-.3c2.243.541,3.451,1.494,3.833,2.205.244.453.1.647-.074.821-1.2,1.169-6.2,2.278-16.332,1.554-4.251-.3-5.906,1.553-8.2,4.123-.911,1.022-1.943,2.18-3.377,3.519-1.451,1.354-3.728,4.1-2.679,7.264.842,2.539,3.527,4.409,7.686,5.415l-.045.024A1.762,1.762,0,1,0,57.01,80.86c.7-.373,1.4-.758,2.093-1.143a1.757,1.757,0,0,0,.877-1.241c5.708.912,8.572,3.846,8.982,9.17a7.793,7.793,0,0,1-1.4,5.078,16.379,16.379,0,0,0-1.606,3.5c-1.209,4.029-.442,10.843,5.048,13.376a5.889,5.889,0,0,0,2.5.547c4.43,0,8.823-4.658,10.887-6.846.207-.219.385-.408.53-.556,1.3-1.329,1.736-4,2.3-8.251a25.932,25.932,0,0,1,.83-4.583c.525-1.224,4.27-4.718,7.439-7.252a1.762,1.762,0,0,0,.12-2.647,79.539,79.539,0,0,1-6.064-6.646c-4.126-5.15-4.315-7.35-4.04-7.763.748-1.123,1.336-1.3,1.714-1.339,2.04-.2,5.665,3.16,8.212,5.706a3.7,3.7,0,0,0,3.673.862c4.138-1.013,9.78-7.452,11.649-13.281,2.158-5.2,4.116-10.52,5.728-15.526V74.264c-2.989,1.6-11.42,6.752-11.3,13.974a1.762,1.762,0,1,0,3.523-.06c-.069-4.055,4.411-7.764,7.774-9.856v35.422Z"/>
  </g>
</svg>
