<svg xmlns="http://www.w3.org/2000/svg" width="1030" height="600" viewBox="0 0 1030 600">
  <g id="Grupo_84688" data-name="Grupo 84688" transform="translate(-285.201 -4663)">
    <path id="Trazado_147211" data-name="Trazado 147211" d="M0,0H1030V600H0Z" transform="translate(285.201 4663)" fill="#f6f6f6"/>
    <path id="Trazado_147197" data-name="Trazado 147197" d="M-236.037-33.72c-3.784-2.074-42.311-22.316-82.162-9.865l-.339.11c-34.328,11.446-41.423-3.084-49.638-19.906-1.265-2.591-2.458-5.038-3.775-7.342-12.43-21.753-55.171-55.837-102.323-40.285-54.585,16.728-67.681,60.725-69.5,68.014-1.372,4.892-7.032,28.669-4.829,81.542.71,17.036-6.475,31.86-19.717,40.673-12.868,8.566-43.023,18.914-100.508-7.9-82.476-42.513-121.517-10.967-134.6,4.81-23.146,26.974-34.543,31.12-47.743,35.922a125.518,125.518,0,0,0-23.389,10.619c-1.058.632-2.2,1.307-3.417,2.024-24.188,14.249-80.83,47.623-77.444,128.857,2.287,54.905,41.9,79.3,64.941,85.064l1.147.251a90.9,90.9,0,0,0,16.563,1.564c37.865,0,63.969-25.467,87.33-48.263,12.6-12.3,24.5-23.909,37.551-31.367,6.606-3.773,26.706-15.259,45.333,8.027,1.149,1.435,2.61,3.465,4.157,5.611,9.336,12.961,24.959,34.653,50.926,37.248,26.1,2.616,43.082-20.1,47.84-42.3l.238-1.119.1-1.119c.038-.417,4.068-42.005,20.132-67.171,31.984-46.959,104.161-56.821,159.115-56.821,22.449,0,74.12,3.819,118.705,12.312,51.537,9.816,111.48-18.016,121.022-56.191l.139-.592C-164.466,26.025-209.774-19.643-236.037-33.72Z" transform="translate(1396.924 4850.26)" fill="#ffb74d"/>
    <g id="Trazado_147198" data-name="Trazado 147198" transform="translate(1407.825 4857.447)" fill="#fff1db" stroke-miterlimit="10">
      <path d="M -883.0279541015625 312.962646484375 C -887.2916259765625 312.962646484375 -891.6959838867188 312.5474548339844 -896.1182861328125 311.7284545898438 L -896.1639404296875 311.7200622558594 L -896.208984375 311.708740234375 C -897.4166259765625 311.4068603515625 -901.812744140625 310.1954650878906 -907.6774291992188 307.2824401855469 C -913.8411254882812 304.2210388183594 -919.5072631835938 300.3643493652344 -924.5183715820312 295.8193664550781 C -931.053466796875 289.8922424316406 -936.3201293945312 282.9036560058594 -940.1722412109375 275.0476379394531 C -944.8271484375 265.5547485351562 -947.4379272460938 254.7269592285156 -947.93212890625 242.8649444580078 C -948.2865600585938 234.358154296875 -947.895263671875 226.087158203125 -946.7689819335938 218.2819519042969 C -945.71826171875 211.0011444091797 -944.0004272460938 203.933349609375 -941.6630859375 197.2749481201172 C -939.5057373046875 191.1296539306641 -936.763671875 185.170654296875 -933.5128784179688 179.5633544921875 C -930.5553588867188 174.4619445800781 -927.0965576171875 169.5138549804688 -923.2325439453125 164.8563537597656 C -916.7470703125 157.0391540527344 -909.1293334960938 149.9590454101562 -899.9441528320312 143.2112579345703 C -892.1925659179688 137.5167541503906 -884.9190673828125 133.2313537597656 -879.0746459960938 129.7879486083984 C -877.8181762695312 129.0476531982422 -876.63134765625 128.3483581542969 -875.53857421875 127.6927490234375 C -868.0535278320312 123.2014541625977 -861.5005493164062 120.8168487548828 -855.1632690429688 118.5108489990234 C -847.7074584960938 115.7977523803711 -840.6650390625 113.2351531982422 -832.0146484375 107.4777526855469 C -827.3453369140625 104.3701553344727 -822.667236328125 100.6314544677734 -817.7128295898438 96.04814910888672 C -812.1325073242188 90.88567352294922 -806.3494873046875 84.79444122314453 -800.0328979492188 77.42568969726562 C -795.0399780273438 71.36655426025391 -788.8444213867188 66.58449554443359 -781.61767578125 63.21175003051758 C -773.3958740234375 59.37465286254883 -763.9330444335938 57.42905044555664 -753.4923706054688 57.42905044555664 C -734.2147216796875 57.42905044555664 -711.6766967773438 64.02896118164062 -686.5060424804688 77.04459381103516 C -659.635009765625 89.61936950683594 -634.9971313476562 95.99435424804688 -613.2726440429688 95.99435424804688 C -590.35986328125 95.99435424804688 -571.3507690429688 88.80294799804688 -558.300537109375 75.19755554199219 C -546.4627685546875 62.85625076293945 -540.3605346679688 46.04645156860352 -541.1181640625 27.8647518157959 C -541.6417846679688 15.3027515411377 -541.7452392578125 3.482651710510254 -541.4258422851562 -7.267248153686523 C -541.1698608398438 -15.8788480758667 -540.6434326171875 -23.82944869995117 -539.8609619140625 -30.89804840087891 C -538.584716796875 -42.42780303955078 -537.0586547851562 -47.78232192993164 -536.856689453125 -48.45792770385742 C -536.7579345703125 -48.90300750732422 -536.1791381835938 -51.37328720092773 -534.7271728515625 -55.11134719848633 C -533.2858276367188 -58.82194900512695 -530.6648559570312 -64.55574798583984 -526.3633422851562 -70.79985046386719 C -521.5316772460938 -77.81354522705078 -515.6055297851562 -84.033447265625 -508.7494506835938 -89.28684997558594 C -500.197265625 -95.83984375 -490.1700439453125 -100.8955917358398 -478.9468078613281 -104.3135147094727 C -472.67919921875 -106.400505065918 -466.1968994140625 -107.4586486816406 -459.6798706054688 -107.4586486816406 C -442.7203674316406 -107.4586486816406 -428.5486450195312 -100.3881454467773 -419.6464538574219 -94.45674896240234 C -414.5931701660156 -91.08985137939453 -409.7559509277344 -87.09574890136719 -405.6577453613281 -82.90634918212891 C -401.9765625 -79.14334869384766 -399.0144653320312 -75.37564849853516 -397.091552734375 -72.01055145263672 C -396.0562438964844 -70.19874572753906 -394.9824523925781 -67.99884796142578 -393.8455505371094 -65.66994476318359 C -387.2865600585938 -52.23344802856445 -377.3744506835938 -31.92804908752441 -349.6436462402344 -31.93024826049805 C -341.7582702636719 -31.93084907531738 -332.7893676757812 -33.58815002441406 -322.9857482910156 -36.85594940185547 L -322.9723510742188 -36.86044692993164 L -322.9588623046875 -36.86464691162109 C -316.0452575683594 -39.025146484375 -308.6111450195312 -40.12064743041992 -300.8629455566406 -40.12064743041992 C -295.0292663574219 -40.12064743041992 -288.9536437988281 -39.50014877319336 -282.8051452636719 -38.27634811401367 C -277.8948669433594 -37.29894638061523 -272.9260559082031 -35.93655014038086 -268.0369567871094 -34.22704696655273 C -259.8154602050781 -31.35225677490234 -254.68359375 -28.50964736938477 -254.3367767333984 -28.31551933288574 C -254.0028839111328 -28.1360034942627 -250.0923767089844 -26.00429534912109 -244.5258483886719 -21.69994735717773 C -241.1902618408203 -19.12074851989746 -237.9485626220703 -16.29054832458496 -234.8907623291016 -13.28814792633057 C -231.0679626464844 -9.534647941589355 -227.5224609375 -5.498848438262939 -224.3526611328125 -1.292848229408264 C -216.2766571044922 9.423551559448242 -210.5611572265625 21.29445266723633 -207.3649597167969 33.99025344848633 C -205.4680633544922 41.52535247802734 -204.449951171875 49.43564987182617 -204.3390502929688 57.50155258178711 C -204.2173614501953 66.35915374755859 -205.187255859375 75.62145233154297 -207.2217559814453 85.03115081787109 L -207.2268524169922 85.05464935302734 L -207.2326507568359 85.07794952392578 C -210.0027618408203 96.15845489501953 -220.5324554443359 107.482048034668 -236.1219635009766 116.1452484130859 C -239.8959503173828 118.2425537109375 -243.9244537353516 120.1553497314453 -248.0952606201172 121.8306503295898 C -252.3526611328125 123.5407485961914 -256.7857666015625 125.0139541625977 -261.2712707519531 126.2093505859375 C -270.7714538574219 128.7411499023438 -280.3866577148438 130.0248565673828 -289.8499450683594 130.0248565673828 C -296.064453125 130.0248565673828 -302.1835632324219 129.4595489501953 -308.0372619628906 128.3445587158203 C -333.7352600097656 123.449951171875 -359.3453674316406 120.4787521362305 -376.3043518066406 118.8480529785156 C -396.9521484375 116.8627548217773 -416.5276489257812 115.7240524291992 -430.0115661621094 115.7240524291992 C -537.3477172851562 115.7240524291992 -583.7153930664062 150.8890075683594 -603.7112426757812 180.3944702148438 C -607.9697875976562 187.0222015380859 -611.8245849609375 195.0844116210938 -615.1690673828125 204.3583526611328 C -617.85693359375 211.8113555908203 -620.2212524414062 220.0548553466797 -622.196533203125 228.8599548339844 C -625.5658569335938 243.8798522949219 -626.6446533203125 255.4702453613281 -626.6551513671875 255.5855560302734 L -626.663330078125 255.6754455566406 L -626.6822509765625 255.7638549804688 C -626.744384765625 256.0538635253906 -628.2490844726562 262.9466552734375 -632.2125854492188 269.9437561035156 C -634.571044921875 274.1073608398438 -637.3153686523438 277.4368591308594 -640.3694458007812 279.83984375 C -644.2654418945312 282.9050598144531 -648.6571655273438 284.4593505859375 -653.4225463867188 284.4593505859375 C -654.1692504882812 284.4593505859375 -654.935546875 284.4205627441406 -655.7001342773438 284.3441467285156 C -659.9913330078125 283.9149475097656 -664.23046875 282.6068420410156 -668.299560546875 280.4559631347656 C -671.8511352539062 278.5786437988281 -675.2607421875 276.1004638671875 -678.72314453125 272.8798522949219 C -684.9688720703125 267.0704650878906 -690.0810546875 259.9730529785156 -694.1887817382812 254.2701568603516 C -695.86865234375 251.9378509521484 -697.4554443359375 249.7349548339844 -698.879150390625 247.9552459716797 C -705.071044921875 240.2161560058594 -718.3837280273438 227.2329559326172 -737.9729614257812 227.2329559326172 C -747.1156616210938 227.2329559326172 -756.7211303710938 230.07275390625 -766.5225830078125 235.6735534667969 C -781.50927734375 244.2373504638672 -794.7771606445312 257.1844482421875 -807.608154296875 269.7052612304688 C -813.045166015625 275.0107421875 -818.667236328125 280.4969482421875 -824.3196411132812 285.5458374023438 C -830.6778564453125 291.225341796875 -836.4193725585938 295.7528381347656 -841.8721313476562 299.3870544433594 C -848.4430541992188 303.7664489746094 -854.7534790039062 306.983154296875 -861.1637573242188 309.220947265625 C -864.6453857421875 310.4362487792969 -868.2000732421875 311.3661499023438 -871.7291259765625 311.9847412109375 C -875.4309692382812 312.6336669921875 -879.2323608398438 312.962646484375 -883.0279541015625 312.962646484375 Z" stroke="none"/>
      <path d="M -459.6798706054688 -105.9586639404297 C -465.7617797851562 -105.9586639404297 -472.0657348632812 -105.0261077880859 -478.491943359375 -102.8840484619141 C -526.9724731445312 -88.12913513183594 -535.4038696289062 -48.08004760742188 -535.4038696289062 -48.08004760742188 C -535.4038696289062 -48.08004760742188 -541.9085693359375 -27.11544799804688 -539.6195678710938 27.80235290527344 C -538.1233520507812 63.70880126953125 -563.18115234375 97.49435424804688 -613.2726440429688 97.49435424804688 C -633.7545776367188 97.49435424804688 -658.4166259765625 91.84900665283203 -687.1685791015625 78.39065551757812 C -714.2775268554688 64.36878967285156 -736.14697265625 58.93045043945312 -753.4923095703125 58.92901611328125 C -775.2586669921875 58.92721557617188 -789.9046630859375 67.48712158203125 -798.8844604492188 78.39065551757812 C -836.8255615234375 122.6553497314453 -850.45068359375 114.3884506225586 -874.766845703125 128.9789428710938 C -895.8452758789062 141.6259460449219 -949.504638671875 169.0912475585938 -946.4334716796875 242.8025512695312 C -944.32568359375 293.3907470703125 -904.2766723632812 308.145751953125 -895.8452758789062 310.2535400390625 C -891.4024658203125 311.0762939453125 -887.1331787109375 311.4626770019531 -883.0280151367188 311.4626770019531 C -834.5460815429688 311.4626770019531 -808.0760498046875 257.6907043457031 -767.2667236328125 234.3711547851562 C -729.1842041015625 212.6096954345703 -705.156982421875 237.7078552246094 -697.7078857421875 247.0182495117188 C -689.2764892578125 257.5574645996094 -676.62939453125 280.7437438964844 -655.5509643554688 282.8515625 C -654.8253173828125 282.9241027832031 -654.1136474609375 282.9593200683594 -653.4226684570312 282.9593200683594 C -634.0410766601562 282.9593200683594 -628.14892578125 255.4495544433594 -628.14892578125 255.4495544433594 C -628.14892578125 255.4495544433594 -623.9332275390625 209.0770568847656 -604.962646484375 179.5671539306641 C -560.6978759765625 114.2240524291992 -455.3056640625 114.2240524291992 -430.0115356445312 114.2240524291992 C -404.7174682617188 114.2240524291992 -352.4554443359375 118.3574523925781 -307.7565307617188 126.8710479736328 C -263.49169921875 135.3025360107422 -215.0113525390625 110.0083389282227 -208.6878662109375 84.71414947509766 C -191.8250732421875 6.723953247070312 -255.0604858398438 -27.00164794921875 -255.0604858398438 -27.00164794921875 C -255.0604858398438 -27.00166320800781 -288.78564453125 -45.97232055664062 -322.511474609375 -35.43295288085938 C -333.0504150390625 -31.91995239257812 -342.0038452148438 -30.43026733398438 -349.6434936523438 -30.43026733398438 C -383.2589721679688 -30.43026733398438 -391.5238647460938 -59.24375915527344 -398.3939819335938 -71.26634216308594 C -405.3971557617188 -83.52217102050781 -429.853271484375 -105.9586639404297 -459.6798706054688 -105.9586639404297 M -459.6798706054688 -108.9586334228516 C -442.3451538085938 -108.9586334228516 -427.8892822265625 -101.7512359619141 -418.8146362304688 -95.70506286621094 C -407.0144653320312 -87.84263610839844 -399.1832275390625 -78.69444274902344 -395.7892456054688 -72.75474548339844 C -394.729736328125 -70.90074157714844 -393.6456298828125 -68.67985534667969 -392.4978637695312 -66.32865905761719 C -389.234375 -59.64366149902344 -385.1729736328125 -51.32383728027344 -378.5581665039062 -44.73765563964844 C -370.916259765625 -37.12895202636719 -361.4581298828125 -33.43025207519531 -349.6434326171875 -33.43025207519531 C -341.921630859375 -33.43025207519531 -333.1123657226562 -35.0616455078125 -323.4601440429688 -38.27894592285156 L -323.40625 -38.29634094238281 C -316.34765625 -40.50224304199219 -308.762939453125 -41.62065124511719 -300.8628540039062 -41.62065124511719 C -294.9310302734375 -41.62065124511719 -288.7569580078125 -40.99044799804688 -282.5122680664062 -39.74745178222656 C -277.5335693359375 -38.75654602050781 -272.4967651367188 -37.37554931640625 -267.541748046875 -35.64305114746094 C -259.3297119140625 -32.7716064453125 -254.12158203125 -29.91278076171875 -253.6219482421875 -29.63441467285156 C -253.2265014648438 -29.42124938964844 -249.228515625 -27.23260498046875 -243.6082763671875 -22.88664245605469 C -240.2261352539062 -20.27145385742188 -236.9395751953125 -17.40214538574219 -233.8397827148438 -14.35855102539062 C -229.9641723632812 -10.55305480957031 -226.369140625 -6.460845947265625 -223.15478515625 -2.195648193359375 C -214.9575805664062 8.681549072265625 -209.1556396484375 20.73295593261719 -205.9103393554688 33.62405395507812 C -203.9849853515625 41.27204895019531 -202.9517822265625 49.29864501953125 -202.8392333984375 57.48095703125 C -202.7159423828125 66.45185852050781 -203.6971435546875 75.8277587890625 -205.7556762695312 85.34815216064453 L -205.7774658203125 85.44174957275391 C -206.5224609375 88.42195129394531 -207.8054809570312 91.44505310058594 -209.5907592773438 94.42694854736328 C -211.2980346679688 97.27864837646484 -213.478759765625 100.1163482666016 -216.0721435546875 102.8612518310547 C -218.5990600585938 105.5358505249023 -221.5330810546875 108.1387481689453 -224.7923583984375 110.5975494384766 C -228.0245361328125 113.0358505249023 -231.5912475585938 115.3435516357422 -235.3933715820312 117.4563522338867 C -239.2219848632812 119.5839538574219 -243.307373046875 121.5239486694336 -247.5361328125 123.2225494384766 C -251.8497314453125 124.9551544189453 -256.3409423828125 126.44775390625 -260.8849487304688 127.6587524414062 C -270.5110473632812 130.2240600585938 -280.25634765625 131.5248413085938 -289.8499755859375 131.5248413085938 C -296.1587524414062 131.5248413085938 -302.3722534179688 130.9506530761719 -308.3179321289062 129.8180541992188 C -333.9595336914062 124.9342498779297 -359.5203857421875 121.9688491821289 -376.4479370117188 120.3411483764648 C -397.0502319335938 118.3601531982422 -416.573486328125 117.2240524291992 -430.0115356445312 117.2240524291992 C -536.6771850585938 117.2240524291992 -582.6630859375 152.0179748535156 -602.459228515625 181.2206726074219 C -606.6492919921875 187.7451324462891 -610.4478149414062 195.6927032470703 -613.7495727539062 204.8435516357422 C -616.415283203125 212.2318572998047 -618.7616577148438 220.4082489013672 -620.7233276367188 229.1456451416016 C -624.075927734375 244.0781555175781 -625.15087890625 255.6069488525391 -625.161376953125 255.7216491699219 L -625.1776733398438 255.9011535644531 L -625.2154541015625 256.0778503417969 C -625.279541015625 256.3770446777344 -626.8317260742188 263.4879455566406 -630.9073486328125 270.6830444335938 C -633.3624267578125 275.0171508789062 -636.23388671875 278.4945678710938 -639.4419555664062 281.0186462402344 C -643.6087646484375 284.2970581054688 -648.3125610351562 285.9593505859375 -653.4226684570312 285.9593505859375 C -654.2193603515625 285.9593505859375 -655.035888671875 285.9180603027344 -655.8496704101562 285.836669921875 C -660.3345947265625 285.3881530761719 -664.75927734375 284.0240478515625 -669.0005493164062 281.7820434570312 C -672.670166015625 279.8423461914062 -676.1846923828125 277.2897338867188 -679.7447509765625 273.9782409667969 C -686.09912109375 268.0676574707031 -691.259521484375 260.9034423828125 -695.4058837890625 255.1468505859375 C -697.074462890625 252.8303527832031 -698.6504516601562 250.6423492431641 -700.0504150390625 248.8923492431641 C -706.0741577148438 241.3633422851562 -719.0110473632812 228.7326507568359 -737.9729614257812 228.7329559326172 C -746.851318359375 228.7329559326172 -756.2064208984375 231.5062561035156 -765.7783203125 236.9758453369141 C -772.4036865234375 240.7617492675781 -779.275146484375 245.7547607421875 -786.7854614257812 252.2400512695312 C -793.5370483398438 258.070068359375 -800.1578369140625 264.53076171875 -806.5606689453125 270.7788696289062 C -812.00927734375 276.0956420898438 -817.6434326171875 281.5936584472656 -823.3204345703125 286.66455078125 C -829.73193359375 292.3915405273438 -835.5281982421875 296.9613647460938 -841.0403442382812 300.6351623535156 C -847.7176513671875 305.0855407714844 -854.1383666992188 308.3571472167969 -860.66943359375 310.6370544433594 C -864.2275390625 311.879150390625 -867.8614501953125 312.8296508789062 -871.47021484375 313.4622497558594 C -875.25732421875 314.1260375976562 -879.14599609375 314.462646484375 -883.028076171875 314.462646484375 C -887.383056640625 314.462646484375 -891.879150390625 314.0389404296875 -896.3914794921875 313.2034606933594 L -896.4827880859375 313.1864624023438 L -896.5728759765625 313.1639404296875 C -897.8175659179688 312.8528442382812 -902.3448486328125 311.60595703125 -908.3447265625 308.6258544921875 C -914.632080078125 305.5030517578125 -920.4127197265625 301.5681457519531 -925.526123046875 296.9303588867188 C -932.2022705078125 290.875244140625 -937.5830688476562 283.7350463867188 -941.51904296875 275.7080688476562 C -946.2660522460938 266.02734375 -948.927978515625 254.9983520507812 -949.4308471679688 242.9274597167969 C -949.7891845703125 234.3283538818359 -949.39306640625 225.9642486572266 -948.2535400390625 218.0676574707031 C -947.1890869140625 210.6908569335938 -945.4478759765625 203.5279541015625 -943.078369140625 196.7780456542969 C -940.8900756835938 190.5442504882812 -938.1083374023438 184.4992523193359 -934.810546875 178.8108520507812 C -931.8111572265625 173.637451171875 -928.3041381835938 168.6201477050781 -924.3868408203125 163.8985595703125 C -917.8221435546875 155.9858551025391 -910.1173706054688 148.8235473632812 -900.83203125 142.0023498535156 C -893.0193481445312 136.2628479003906 -885.7095336914062 131.9560546875 -879.8359375 128.4954528808594 C -878.5821533203125 127.7567520141602 -877.39794921875 127.0590515136719 -876.3103637695312 126.4064483642578 C -868.7018432617188 121.8411483764648 -862.0799560546875 119.4315490722656 -855.67626953125 117.1012496948242 C -848.30712890625 114.4197540283203 -841.3467407226562 111.8869552612305 -832.8457641601562 106.2290496826172 C -828.2435302734375 103.1660537719727 -823.6267700195312 99.47565460205078 -818.7315673828125 94.94705200195312 C -813.196044921875 89.82613372802734 -807.4547119140625 83.77846527099609 -801.178955078125 76.45770263671875 C -796.04541015625 70.23234558105469 -789.67822265625 65.31837463378906 -782.2544555664062 61.8531494140625 C -773.833251953125 57.92214965820312 -764.1585693359375 55.92904663085938 -753.499267578125 55.92904663085938 L -753.4921875 55.92904663085938 C -733.975341796875 55.93064880371094 -711.2157592773438 62.58174133300781 -685.842529296875 75.69892883300781 C -659.1834716796875 88.17088317871094 -634.7681274414062 94.49435424804688 -613.2726440429688 94.49435424804688 C -590.7783813476562 94.49435424804688 -572.1435546875 87.46255493164062 -559.383056640625 74.15925598144531 C -547.8308715820312 62.11555480957031 -541.8765258789062 45.69674682617188 -542.616943359375 27.92724609375 C -543.1420288085938 15.32975769042969 -543.2457275390625 3.473648071289062 -542.9251708984375 -7.311843872070312 C -542.6680297851562 -15.96354675292969 -542.1387329101562 -23.95465087890625 -541.3518676757812 -31.06304931640625 C -540.0958251953125 -42.40994262695312 -538.5816650390625 -47.90594482421875 -538.3097534179688 -48.83367919921875 C -538.0120239257812 -50.15484619140625 -535.5951538085938 -60.04307556152344 -527.5986328125 -71.65083312988281 C -522.6776733398438 -78.79423522949219 -516.6428833007812 -85.12843322753906 -509.6617431640625 -90.47755432128906 C -500.9707641601562 -97.13682556152344 -490.7905883789062 -102.2726287841797 -479.4017944335938 -105.7429656982422 C -472.987060546875 -107.8768157958984 -466.3518676757812 -108.9586334228516 -459.6798706054688 -108.9586334228516 Z" stroke="none" fill="#111e61"/>
    </g>
    <path id="Trazado_147202" data-name="Trazado 147202" d="M-896.762,131a3.163,3.163,0,0,1-3.008-2.19,3.163,3.163,0,0,1,2.036-3.982l.2-.063a3.158,3.158,0,0,1,3.98,2.036,3.159,3.159,0,0,1-2.038,3.98l-.2.065A3.118,3.118,0,0,1-896.762,131Zm-12.314-.691a3.088,3.088,0,0,1-1.448-.365l-.257-.141a3.16,3.16,0,0,1-1.191-4.311,3.164,3.164,0,0,1,4.308-1.191,3.218,3.218,0,0,1,1.36,4.308A3.153,3.153,0,0,1-909.076,130.311Zm23.509-5.533a3.151,3.151,0,0,1-2.519-1.25,3.163,3.163,0,0,1,.6-4.431,3.256,3.256,0,0,1,4.5.529,3.07,3.07,0,0,1-.483,4.357c-.008.008-.185.143-.194.152A3.165,3.165,0,0,1-885.567,124.778Zm-30.838-4.532a3.072,3.072,0,0,1-3.067-2.529l-.046-.261a3.163,3.163,0,0,1,2.618-3.626,3.162,3.162,0,0,1,3.625,2.616,3.231,3.231,0,0,1-2.542,3.748A3.28,3.28,0,0,1-916.405,120.246Zm40.3-4.182a3.156,3.156,0,0,1-2.165-.858,3.166,3.166,0,0,1-.137-4.471,3.236,3.236,0,0,1,4.528-.251,3.088,3.088,0,0,1,.247,4.4l-.169.179A3.147,3.147,0,0,1-876.109,116.064Zm188.726-7.826a3.081,3.081,0,0,1-.915-.139l-.285-.091A3.162,3.162,0,0,1-690.564,104a3.158,3.158,0,0,1,4.009-1.981,3.216,3.216,0,0,1,2.15,3.971A3.133,3.133,0,0,1-687.384,108.237Zm-227.873-.727a2.985,2.985,0,0,1-.809-.112,3.075,3.075,0,0,1-2.22-3.773l.072-.259a3.168,3.168,0,0,1,3.923-2.148,3.164,3.164,0,0,1,2.148,3.923A3.305,3.305,0,0,1-915.256,107.51Zm46.963-1.672a3.14,3.14,0,0,1-1.541-.4,3.164,3.164,0,0,1-1.216-4.3l.133-.232a3.162,3.162,0,0,1,4.325-1.138,3.165,3.165,0,0,1,1.138,4.325l-.078.133A3.16,3.16,0,0,1-868.294,105.839Zm190.659-3.63a3.146,3.146,0,0,1-1.393-.327,3.163,3.163,0,0,1-1.442-4.233l.114-.226a3.169,3.169,0,0,1,4.252-1.387,3.165,3.165,0,0,1,1.387,4.252l-.076.152A3.17,3.17,0,0,1-677.635,102.209Zm-19.761-1.941a3.012,3.012,0,0,1-2.3-1.056l-.16-.188a3.158,3.158,0,0,1,.371-4.454,3.159,3.159,0,0,1,4.456.371,3.236,3.236,0,0,1-.266,4.526A3.218,3.218,0,0,1-697.4,100.268Zm-213.267-4.658a3.152,3.152,0,0,1-1.339-.3,3.165,3.165,0,0,1-1.524-4.205l.07-.152a3.161,3.161,0,0,1,4.184-1.581,3.161,3.161,0,0,1,1.581,4.182l-.105.23A3.164,3.164,0,0,1-910.663,95.609Zm49.1-.774a3.154,3.154,0,0,1-1.73-.519,3.161,3.161,0,0,1-.911-4.378,3.248,3.248,0,0,1,4.426-1.012,3.08,3.08,0,0,1,.987,4.289l-.125.19A3.16,3.16,0,0,1-861.567,94.836Zm156.28-4.764a2.988,2.988,0,0,1-2.441-1.248l-.122-.171a3.163,3.163,0,0,1,.7-4.416,3.163,3.163,0,0,1,4.418.7,3.252,3.252,0,0,1-.637,4.5A3.252,3.252,0,0,1-705.288,90.072Zm31.738-.019a3.264,3.264,0,0,1-.746-.089,3.165,3.165,0,0,1-2.329-3.819,3.259,3.259,0,0,1,3.815-2.435,3.074,3.074,0,0,1,2.392,3.666l-.061.259A3.161,3.161,0,0,1-673.55,90.053Zm-180.737-5.847a3.164,3.164,0,0,1-1.867-.611,3.165,3.165,0,0,1-.683-4.42,3.25,3.25,0,0,1,4.477-.778,3.078,3.078,0,0,1,.757,4.336l-.131.179A3.158,3.158,0,0,1-854.287,84.206Zm-50.529-.055a3.148,3.148,0,0,1-1.522-.392,3.162,3.162,0,0,1-1.246-4.294l.08-.152a3.159,3.159,0,0,1,4.279-1.3,3.162,3.162,0,0,1,1.3,4.277l-.122.221A3.163,3.163,0,0,1-904.816,84.151Zm192.082-4.439a3.153,3.153,0,0,1-2.536-1.271l-.11-.148a3.164,3.164,0,0,1,.6-4.431,3.164,3.164,0,0,1,4.431.607l.143.192a3.162,3.162,0,0,1-.645,4.424A3.139,3.139,0,0,1-712.735,79.712Zm41.514-2.293a3.63,3.63,0,0,1-.424-.027,3.162,3.162,0,0,1-2.713-3.556l.036-.249a3.149,3.149,0,0,1,3.587-2.666,3.158,3.158,0,0,1,2.667,3.588l-.023.171A3.162,3.162,0,0,1-671.221,77.419Zm-175.187-3.4a3.157,3.157,0,0,1-2.015-.725,3.161,3.161,0,0,1-.42-4.452l.137-.167a3.158,3.158,0,0,1,4.452-.413,3.161,3.161,0,0,1,.415,4.452l-.133.158A3.157,3.157,0,0,1-846.408,74.017Zm-52.106-1.083a3.148,3.148,0,0,1-1.556-.411,3.164,3.164,0,0,1-1.193-4.311l2.751,1.558-2.7-1.642,2.808,1.459,2.751,1.56-.105.183A3.16,3.16,0,0,1-898.514,72.933ZM-721.2,69.906a2.981,2.981,0,0,1-2.08-.845l-.177-.169a3.163,3.163,0,0,1-.046-4.473,3.169,3.169,0,0,1,4.473-.046,3.257,3.257,0,0,1,.133,4.534A3.218,3.218,0,0,1-721.2,69.906Zm51.524-5.249c-.093,0-.188,0-.283-.013a3.162,3.162,0,0,1-2.871-3.427l.025-.257a3.151,3.151,0,0,1,3.469-2.82,3.162,3.162,0,0,1,2.82,3.47l-.017.162A3.16,3.16,0,0,1-669.671,64.658Zm-165.809-1.231-2.321-2.15-2.236-2.234a3.253,3.253,0,0,1,4.544-.076,3.073,3.073,0,0,1,.074,4.4l-2.234-2.236Zm104.338-1.48a3.144,3.144,0,0,1-1.749-.529l-.146-.095a3.165,3.165,0,0,1-.93-4.376,3.168,3.168,0,0,1,4.374-.93l.209.137a3.163,3.163,0,0,1,.877,4.384A3.157,3.157,0,0,1-731.143,61.947ZM-895.2,60.817a3.163,3.163,0,0,1-3.115-2.65l-.021-.118a3.161,3.161,0,0,1,2.5-3.706,3.168,3.168,0,0,1,3.706,2.5c.006.03.049.268.053.3a3.161,3.161,0,0,1-2.607,3.632A3.3,3.3,0,0,1-895.2,60.817Zm66.952-5a3.154,3.154,0,0,1-2.481-1.2,3.163,3.163,0,0,1,.514-4.441l.19-.148a3.162,3.162,0,0,1,4.435.554,3.161,3.161,0,0,1-.554,4.437l-1.941-2.5,1.8,2.61A3.148,3.148,0,0,1-828.249,55.82Zm85.876-.179a3.078,3.078,0,0,1-1.3-.293l-.246-.118A3.163,3.163,0,0,1-745.362,51a3.167,3.167,0,0,1,4.233-1.442,3.226,3.226,0,0,1,1.591,4.237A3.144,3.144,0,0,1-742.373,55.64Zm-11.88-4.806a3.166,3.166,0,0,1-1.014-.169l1.014-3-1.185,2.938a3.164,3.164,0,0,1-2.019-3.99,3.167,3.167,0,0,1,3.99-2.019l.228.076a3.161,3.161,0,0,1,1.981,4.009A3.165,3.165,0,0,1-754.253,50.834Zm-147.977-.419a3.148,3.148,0,0,1-1.939-.666l-.137-.105a3.162,3.162,0,0,1-.607-4.431,3.164,3.164,0,0,1,4.431-.607l.2.152a3.161,3.161,0,0,1,.554,4.437A3.152,3.152,0,0,1-902.23,50.415Zm84.792-1.522a3.158,3.158,0,0,1-2.848-1.787,3.161,3.161,0,0,1,1.467-4.222,3.247,3.247,0,0,1,4.319,1.4,3.083,3.083,0,0,1-1.355,4.19l-.209.1A3.143,3.143,0,0,1-817.438,48.893ZM-766.63,47.4a3.253,3.253,0,0,1-.693-.078l.689-3.086-.86,3.048a3.161,3.161,0,0,1-2.439-3.748,3.161,3.161,0,0,1,3.75-2.439l.24.053a3.164,3.164,0,0,1,2.395,3.777A3.164,3.164,0,0,1-766.63,47.4Zm-12.679-2.1a3.23,3.23,0,0,1-.375-.023l-.164-.017a3.162,3.162,0,0,1-2.82-3.47,3.165,3.165,0,0,1,3.47-2.822l.255.03a3.159,3.159,0,0,1,2.77,3.51A3.162,3.162,0,0,1-779.309,45.3Zm-25.882-.006a3.164,3.164,0,0,1-3.136-2.793,3.162,3.162,0,0,1,2.77-3.51l.211-.025a3.159,3.159,0,0,1,3.51,2.772,3.163,3.163,0,0,1-2.77,3.51l-.211.023A3.221,3.221,0,0,1-805.191,45.291Zm13.046-.738h-.257a3.163,3.163,0,0,1-3.115-3.208,3.161,3.161,0,0,1,3.16-3.115h.048a3.233,3.233,0,0,1,3.244,3.162A3.094,3.094,0,0,1-792.146,44.553Zm-119.2.668a3.114,3.114,0,0,1-1.134-.213l-.148-.055a3.163,3.163,0,0,1-1.886-4.055,3.164,3.164,0,0,1,4.056-1.884l.249.093a3.163,3.163,0,0,1,1.815,4.087A3.161,3.161,0,0,1-911.349,45.221Z" transform="translate(1436.809 5019.6)" fill="#ff9800"/>
    <path id="Trazado_147203" data-name="Trazado 147203" d="M-916.489,100.635Zm-5.74-12.779a3.162,3.162,0,0,1-3.147-2.888l-.021-.253a3.164,3.164,0,0,1,2.924-3.385,3.174,3.174,0,0,1,3.385,2.921l.01.169a3.161,3.161,0,0,1-2.875,3.423C-922.045,87.851-922.138,87.856-922.228,87.856ZM-916.4,74.8l-2.782-1.5-2.719-1.613.108-.181a3.163,3.163,0,0,1,4.332-1.107,3.162,3.162,0,0,1,1.107,4.332l-2.719-1.613Zm6.319-7.23a3.152,3.152,0,0,1-2.69-1.494,3.16,3.16,0,0,1,1.018-4.353c.017-.013.217-.133.234-.143a3.164,3.164,0,0,1,4.334,1.107,3.159,3.159,0,0,1-1.107,4.332l-1.613-2.719,1.486,2.8A3.156,3.156,0,0,1-910.083,67.571Zm11.517-5.691A3.161,3.161,0,0,1-901.455,60a3.159,3.159,0,0,1,1.6-4.174,3.243,3.243,0,0,1,4.27,1.541,3.082,3.082,0,0,1-1.492,4.144l-.209.093A3.154,3.154,0,0,1-898.566,61.88Zm11.852-4.985a3.162,3.162,0,0,1-2.947-2.013,3.161,3.161,0,0,1,1.794-4.1,3.25,3.25,0,0,1,4.19,1.747,3.074,3.074,0,0,1-1.678,4.06l-.211.082A3.156,3.156,0,0,1-886.713,56.895Zm12.006-4.6a3.167,3.167,0,0,1-2.957-2.036,3.164,3.164,0,0,1,1.83-4.081l.213-.08a3.161,3.161,0,0,1,4.07,1.851,3.161,3.161,0,0,1-1.851,4.07l-.179.067A3.162,3.162,0,0,1-874.707,52.293Zm11.964-4.7a3.162,3.162,0,0,1-2.9-1.9,3.162,3.162,0,0,1,1.636-4.161l.211-.091a3.163,3.163,0,0,1,4.153,1.661,3.165,3.165,0,0,1-1.661,4.152l-.177.076A3.182,3.182,0,0,1-862.743,47.589Zm11.328-6.028a3.158,3.158,0,0,1-2.576-1.324,3.165,3.165,0,0,1,.736-4.412,3.242,3.242,0,0,1,4.49.643,3.083,3.083,0,0,1-.622,4.363l-.192.139A3.149,3.149,0,0,1-851.415,41.56Zm9.241-8.95a3.161,3.161,0,0,1-2.142-.837A3.162,3.162,0,0,1-844.5,27.3a3.247,3.247,0,0,1,4.538-.261,3.075,3.075,0,0,1,.257,4.391l-.146.156A3.155,3.155,0,0,1-842.174,32.61Zm76.192-6.117a3.159,3.159,0,0,1-3.139-2.833,3.159,3.159,0,0,1,2.816-3.474l.213-.023a3.162,3.162,0,0,1,3.47,2.822,3.163,3.163,0,0,1-2.822,3.47l-.2.021C-765.761,26.487-765.87,26.493-765.982,26.493Zm-12.569-.786a3.138,3.138,0,0,1-.816-.11l-.247-.072a3.161,3.161,0,0,1-2.163-3.912,3.155,3.155,0,0,1,3.912-2.163,3.234,3.234,0,0,1,2.3,3.9A3.12,3.12,0,0,1-778.551,25.707Zm25.138-1.88a3.165,3.165,0,0,1-2.991-2.135,3.162,3.162,0,0,1,1.962-4.018,3.237,3.237,0,0,1,4.121,1.882,3.09,3.09,0,0,1-1.826,4.013l-.238.084A3.2,3.2,0,0,1-753.413,23.827Zm-80.138-.795a3.163,3.163,0,0,1-2.118-.814,3.165,3.165,0,0,1-.23-4.467,3.257,3.257,0,0,1,4.524-.32,3.07,3.07,0,0,1,.335,4.372c-.006.011-.154.175-.162.185A3.157,3.157,0,0,1-833.551,23.032Zm44.775-4.694a3.044,3.044,0,0,1-2.692-1.589l-.129-.24a3.16,3.16,0,0,1,1.33-4.268A3.161,3.161,0,0,1-786,13.57a3.224,3.224,0,0,1-1.21,4.359A3.251,3.251,0,0,1-788.776,18.338Zm-36.2-4.926a3.151,3.151,0,0,1-2.091-.79,3.162,3.162,0,0,1-.278-4.462l.164-.183a3.158,3.158,0,0,1,4.464-.23,3.16,3.16,0,0,1,.23,4.464l-.118.133A3.148,3.148,0,0,1-824.981,13.412Zm35.165-7.685a3.1,3.1,0,0,1-.569-.055,3.073,3.073,0,0,1-2.521-3.6l.04-.207a3.162,3.162,0,0,1,3.706-2.5,3.159,3.159,0,0,1,2.5,3.706A3.287,3.287,0,0,1-789.815,5.727Zm-26.494-1.851a3.137,3.137,0,0,1-2.163-.858,3.161,3.161,0,0,1-.139-4.469,3.255,3.255,0,0,1,4.53-.228,3.077,3.077,0,0,1,.245,4.38l-.167.179A3.153,3.153,0,0,1-816.309,3.876Zm8.908-9.31a3.152,3.152,0,0,1-2.236-.925,3.16,3.16,0,0,1,0-4.471l.15-.15a3.16,3.16,0,0,1,4.471,0,3.16,3.16,0,0,1,0,4.471l-.15.15A3.15,3.15,0,0,1-807.4-5.434Zm20.967-1.237a3.045,3.045,0,0,1-.828-.116,3.08,3.08,0,0,1-2.19-3.819l.061-.215a3.164,3.164,0,0,1,3.923-2.148,3.164,3.164,0,0,1,2.148,3.923A3.3,3.3,0,0,1-786.434-6.671ZM-797.966-14.2a3.157,3.157,0,0,1-2.392-1.094,3.163,3.163,0,0,1,.323-4.46l.24-.2a3.161,3.161,0,0,1,4.448.464,3.163,3.163,0,0,1-.464,4.448l-.086.07A3.145,3.145,0,0,1-797.966-14.2Zm11.3-4.6a3.156,3.156,0,0,1-2.064-.767l2.066-2.395-2.108,2.359a3.184,3.184,0,0,1-.512-4.439,3.143,3.143,0,0,1,4.4-.55c.042.034.245.2.287.236a3.164,3.164,0,0,1,.329,4.46A3.157,3.157,0,0,1-786.666-18.8Z" transform="translate(1430.783 4949.629)" fill="#ff9800"/>
    <path id="Trazado_147204" data-name="Trazado 147204" d="M-858.183,53.2a3.167,3.167,0,0,1-3.071-2.418,3.257,3.257,0,0,1,2.281-3.914,3.077,3.077,0,0,1,3.8,2.177c0,.015.057.232.061.247a3.165,3.165,0,0,1-2.327,3.819A3.266,3.266,0,0,1-858.183,53.2Zm-3.857-12.255A3.159,3.159,0,0,1-865,38.9a3.226,3.226,0,0,1,1.743-4.176,3.1,3.1,0,0,1,4.079,1.7l.1.253a3.16,3.16,0,0,1-1.849,4.07A3.121,3.121,0,0,1-862.041,40.947Zm-5.725-11.484a3.164,3.164,0,0,1-2.6-1.355,3.249,3.249,0,0,1,.683-4.448,3.082,3.082,0,0,1,4.325.58l.181.253a3.164,3.164,0,0,1-.786,4.4A3.17,3.17,0,0,1-867.766,29.463Z" transform="translate(1490.658 5003.115)" fill="#ff9800"/>
    <path id="Trazado_147205" data-name="Trazado 147205" d="M-757.838,84.119a3.156,3.156,0,0,1-2.323-1.016,3.166,3.166,0,0,1,.175-4.469l.152-.139a3.165,3.165,0,0,1,4.469.16,3.16,3.16,0,0,1-.16,4.469l-.167.156A3.152,3.152,0,0,1-757.838,84.119Zm9.112-9.268a3.076,3.076,0,0,1-2.108-.812,3.075,3.075,0,0,1-.245-4.38l.167-.179a3.157,3.157,0,0,1,4.469-.137,3.161,3.161,0,0,1,.137,4.469A3.333,3.333,0,0,1-748.726,74.85Zm8.318-9.7a3.148,3.148,0,0,1-1.939-.666,3.161,3.161,0,0,1-.556-4.435l.114-.145a3.162,3.162,0,0,1,4.431-.6,3.162,3.162,0,0,1,.594,4.433l-.146.19A3.155,3.155,0,0,1-740.408,65.154Zm7.04-10.862a3.017,3.017,0,0,1-1.374-.329,3.074,3.074,0,0,1-1.425-4.152l.105-.207a3.163,3.163,0,0,1,4.26-1.357,3.162,3.162,0,0,1,1.357,4.26A3.325,3.325,0,0,1-733.368,54.293Zm3.341-12.192c-.078,0-.156,0-.234-.008a3.16,3.16,0,0,1-2.922-3.383l3.153.23-3.143-.394a3.187,3.187,0,0,1,3.343-2.972,3.162,3.162,0,0,1,2.97,3.343l-.017.255A3.162,3.162,0,0,1-730.027,42.1Zm.462-12.955h-.044a3.074,3.074,0,0,1-3.118-3.1l0-.211a3.148,3.148,0,0,1,3.208-3.115,3.163,3.163,0,0,1,3.115,3.208A3.26,3.26,0,0,1-729.566,29.146Zm.061-12.759a3.16,3.16,0,0,1-3.162-3.162l0-.164a3.163,3.163,0,0,1,3.115-3.208,3.125,3.125,0,0,1,3.208,3.115l0,.257A3.16,3.16,0,0,1-729.5,16.387Zm95.612-7.643a3.1,3.1,0,0,1-2.287-.974,3.082,3.082,0,0,1,.08-4.393l.164-.15a3.167,3.167,0,0,1,4.473.177,3.154,3.154,0,0,1-.175,4.46l-.013.013A3.317,3.317,0,0,1-633.893,8.744Zm-95.736-5.335A3.069,3.069,0,0,1-732.784.4l0-.211a3.165,3.165,0,0,1,3.115-3.208h.049A3.161,3.161,0,0,1-726.465.1a3.253,3.253,0,0,1-3.113,3.314ZM-624.774-.225a3.152,3.152,0,0,1-2.19-.879,3.165,3.165,0,0,1-.093-4.471,3.241,3.241,0,0,1,4.532-.2,3.088,3.088,0,0,1,.2,4.4l-.168.177A3.148,3.148,0,0,1-624.774-.225Zm-105.08-9.127a3.164,3.164,0,0,1-3.162-3.115l0-.167a3.162,3.162,0,0,1,3.069-3.252,3.173,3.173,0,0,1,3.252,3.069l0,.257a3.161,3.161,0,0,1-3.115,3.208ZM-616.275-9.9a3.161,3.161,0,0,1-1.939-.666A3.161,3.161,0,0,1-618.769-15l.171-.215a3.159,3.159,0,0,1,4.448-.466,3.161,3.161,0,0,1,.464,4.448l-.091.114A3.157,3.157,0,0,1-616.275-9.9Zm7.441-10.5a3.126,3.126,0,0,1-1.629-.455,3.16,3.16,0,0,1-1.075-4.34,3.245,3.245,0,0,1,4.38-1.187A3.082,3.082,0,0,1-606-22.132l-.12.2A3.162,3.162,0,0,1-608.835-20.4ZM-730.173-22.22a3.161,3.161,0,0,1-3.157-3.071l-.006-.209a3.164,3.164,0,0,1,3.069-3.255,3.183,3.183,0,0,1,3.252,3.069l.006.211a3.162,3.162,0,0,1-3.069,3.252ZM-603.9-32.213a3.168,3.168,0,0,1-.561-.051,3.162,3.162,0,0,1-2.555-3.672,3.253,3.253,0,0,1,3.666-2.66,3.072,3.072,0,0,1,2.6,3.524c0,.015-.04.236-.042.253A3.165,3.165,0,0,1-603.9-32.213Zm-126.279-3.006c-.11,0-.217-.006-.329-.017a3.073,3.073,0,0,1-2.808-3.366l3.143.329-3.141-.35.023-.226a3.156,3.156,0,0,1,3.505-2.776,3.16,3.16,0,0,1,2.776,3.505A3.275,3.275,0,0,1-730.179-35.219ZM-606.2-44.656a3.16,3.16,0,0,1-2.924-1.956,3.253,3.253,0,0,1,1.676-4.226,3.071,3.071,0,0,1,4.089,1.619l.08.194a3.163,3.163,0,0,1-1.716,4.129A3.122,3.122,0,0,1-606.2-44.656Zm-121.488-3.08a3.161,3.161,0,0,1-.887-.129,3.161,3.161,0,0,1-2.148-3.923l3.035.887-2.991-1.045a3.166,3.166,0,0,1,3.891-2.2,3.162,3.162,0,0,1,2.2,3.891l-.07.245A3.165,3.165,0,0,1-727.685-47.736Zm115.71-8.415a3.16,3.16,0,0,1-2.742-1.583,3.24,3.24,0,0,1,1.062-4.408,3.09,3.09,0,0,1,4.289,1.033l.129.217a3.161,3.161,0,0,1-1.161,4.317A3.152,3.152,0,0,1-611.975-56.15ZM-723.09-59.738a3.144,3.144,0,0,1-1.393-.325,3.164,3.164,0,0,1-1.442-4.233l.084-.171a3.166,3.166,0,0,1,4.224-1.469,3.161,3.161,0,0,1,1.467,4.222l-.1.209A3.168,3.168,0,0,1-723.09-59.738ZM-619.1-66.86a3.161,3.161,0,0,1-2.5-1.22l-.166-.221a3.162,3.162,0,0,1,.645-4.424,3.16,3.16,0,0,1,4.424.645l.089.118a3.161,3.161,0,0,1-.554,4.437A3.148,3.148,0,0,1-619.1-66.86Zm-97.287-3.832a3.159,3.159,0,0,1-1.91-.643,3.164,3.164,0,0,1-.607-4.433l2.519,1.914-2.409-2.057a3.165,3.165,0,0,1,4.426-.647,3.165,3.165,0,0,1,.645,4.426l-.143.19A3.158,3.158,0,0,1-716.392-70.692Zm88.934-5.948a3.143,3.143,0,0,1-2.257-.951,3.253,3.253,0,0,1-.027-4.547,3.078,3.078,0,0,1,4.4-.027l.148.152a3.16,3.16,0,0,1-.046,4.471A3.161,3.161,0,0,1-627.457-76.64Zm-80.229-3.478a3.154,3.154,0,0,1-2.371-1.069,3.163,3.163,0,0,1,.28-4.464l2.091,2.371-1.96-2.487a3.162,3.162,0,0,1,4.464.23,3.163,3.163,0,0,1-.228,4.467l-.186.162A3.143,3.143,0,0,1-707.686-80.118Zm70.594-5.029a3.141,3.141,0,0,1-1.857-.6l-.2-.148a3.162,3.162,0,0,1-.645-4.424,3.162,3.162,0,0,1,4.424-.645l.139.1a3.164,3.164,0,0,1,.7,4.418A3.155,3.155,0,0,1-637.092-85.148Zm-60.2-2.483a3.159,3.159,0,0,1-2.742-1.583,3.161,3.161,0,0,1,1.161-4.319l1.579,2.74-1.431-2.827a3.16,3.16,0,0,1,4.332,1.107,3.159,3.159,0,0,1-1.107,4.332c-.01.008-.2.12-.215.126A3.151,3.151,0,0,1-697.292-87.631Zm49.218-4.157a3.154,3.154,0,0,1-1.3-.28l-.232-.108a3.162,3.162,0,0,1-1.524-4.2,3.163,3.163,0,0,1,4.205-1.524l.152.07a3.164,3.164,0,0,1,1.581,4.184A3.165,3.165,0,0,1-648.074-91.787Zm-37.463-1.391a3.206,3.206,0,0,1-3.031-2.04,3.072,3.072,0,0,1,1.758-4.013l.24-.089a3.165,3.165,0,0,1,4.043,1.905,3.159,3.159,0,0,1-1.906,4.045A3.233,3.233,0,0,1-685.537-93.179Zm25.277-2.555a3.1,3.1,0,0,1-.552-.051l-.217-.038a3.162,3.162,0,0,1-2.555-3.67,3.159,3.159,0,0,1,3.672-2.555l.2.036a3.162,3.162,0,0,1,2.565,3.663A3.165,3.165,0,0,1-660.26-95.733Zm-13.012-.487a3.162,3.162,0,0,1-3.141-2.837,3.162,3.162,0,0,1,2.82-3.469l.164-.019a3.167,3.167,0,0,1,3.51,2.772,3.16,3.16,0,0,1-2.77,3.51l-.255.027C-673.052-96.227-673.164-96.22-673.271-96.22Z" transform="translate(1612.467 4863.973)" fill="#ff9800"/>
    <path id="Trazado_147206" data-name="Trazado 147206" d="M-636.649,6.229a3.159,3.159,0,0,1-2.378-1.077,3.247,3.247,0,0,1,.2-4.536,3.083,3.083,0,0,1,4.4.192l.154.173a3.162,3.162,0,0,1-.291,4.462A3.149,3.149,0,0,1-636.649,6.229Zm-7.9-8.56a3.149,3.149,0,0,1-2.325-1.018l-.167-.181A3.163,3.163,0,0,1-646.814-8a3.167,3.167,0,0,1,4.467.23l.12.133a3.162,3.162,0,0,1-.183,4.467A3.147,3.147,0,0,1-644.553-2.331Zm-8-8.47a3.15,3.15,0,0,1-2.281-.974l-.167-.177a3.161,3.161,0,0,1,.137-4.469,3.159,3.159,0,0,1,4.469.137l.124.131a3.163,3.163,0,0,1-.093,4.471A3.155,3.155,0,0,1-652.557-10.8Zm-8.922-9.272A3.151,3.151,0,0,1-663.714-21l-.173-.173a3.165,3.165,0,0,1,.046-4.473,3.167,3.167,0,0,1,4.473.046l.124.129a3.16,3.16,0,0,1,0,4.471A3.152,3.152,0,0,1-661.479-20.074Zm-9.989-7.949a3.146,3.146,0,0,1-1.26-.263,3.254,3.254,0,0,1-1.745-4.174,3.077,3.077,0,0,1,4.022-1.731c.017.008.23.1.249.105a3.165,3.165,0,0,1,1.638,4.163A3.166,3.166,0,0,1-671.468-28.022Zm-12.86-.478a3.161,3.161,0,0,1-3.13-2.747,3.161,3.161,0,0,1,2.719-3.55l.164-.021a3.158,3.158,0,0,1,3.588,2.666,3.159,3.159,0,0,1-2.669,3.588l-.255.036A3.129,3.129,0,0,1-684.328-28.5Zm-12.428-1.149a3.158,3.158,0,0,1-1.151-.219l-.251-.1a3.161,3.161,0,0,1-1.716-4.129,3.164,3.164,0,0,1,4.129-1.716l.139.057a3.161,3.161,0,0,1,1.794,4.1A3.162,3.162,0,0,1-696.756-29.65Zm-10.872-6.8a3.152,3.152,0,0,1-1.88-.622l-.175-.131a3.16,3.16,0,0,1-.645-4.424,3.16,3.16,0,0,1,4.424-.647l-1.891,2.536,2.051-2.416a3.164,3.164,0,0,1,.66,4.424A3.163,3.163,0,0,1-707.628-36.447Zm-10.156-7.892a3.141,3.141,0,0,1-1.99-.706,3.253,3.253,0,0,1-.546-4.513,3.078,3.078,0,0,1,4.365-.531l.164.133a3.163,3.163,0,0,1,.464,4.448A3.15,3.15,0,0,1-717.784-44.339Zm-9.867-8.248a3.162,3.162,0,0,1-2.066-.767,3.255,3.255,0,0,1-.417-4.517,3.075,3.075,0,0,1,4.365-.428l.183.156a3.163,3.163,0,0,1,.329,4.46A3.153,3.153,0,0,1-727.651-52.587Zm-10.063-8a3.147,3.147,0,0,1-1.537-.4,3.253,3.253,0,0,1-1.355-4.277,3.074,3.074,0,0,1,4.1-1.419c.048.023.282.148.331.173a3.162,3.162,0,0,1,1.221,4.3A3.161,3.161,0,0,1-737.714-60.582Z" transform="translate(1634.684 4903.379)" fill="#ff9800"/>
    <path id="Trazado_147207" data-name="Trazado 147207" d="M-618.211,59.128c-.046,0-.093,0-.139,0a3.235,3.235,0,0,1-3.151-3.257,3.063,3.063,0,0,1,3.168-3.071l.257.011a3.161,3.161,0,0,1,3.021,3.295A3.161,3.161,0,0,1-618.211,59.128Zm12.807-.067a3.228,3.228,0,0,1-3.238-3.021,3.094,3.094,0,0,1,2.938-3.295l.257-.011a3.173,3.173,0,0,1,3.252,3.071,3.162,3.162,0,0,1-3.069,3.252Zm12.83-.9a3.225,3.225,0,0,1-3.221-2.831,3.092,3.092,0,0,1,2.738-3.461l.257-.023a3.165,3.165,0,0,1,3.427,2.871,3.163,3.163,0,0,1-2.873,3.427C-592.354,58.156-592.465,58.162-592.573,58.162Zm-38.456-.048a3.139,3.139,0,0,1-.464-.034,3.254,3.254,0,0,1-2.776-3.583,3.084,3.084,0,0,1,3.448-2.706l.247.034a3.162,3.162,0,0,1,2.668,3.59A3.16,3.16,0,0,1-631.028,58.114Zm51.229-1.64a3.217,3.217,0,0,1-3.179-2.593,3.1,3.1,0,0,1,2.477-3.655l.261-.046a3.161,3.161,0,0,1,3.625,2.616,3.161,3.161,0,0,1-2.616,3.628A3.245,3.245,0,0,1-579.8,56.474Zm-64.77-1.187a3.253,3.253,0,0,1-2.137-4.011,3.066,3.066,0,0,1,3.88-2.07l-.972,3.008,1.05-2.983-.849,3.048Zm77.333-1.7a3.213,3.213,0,0,1-3.1-2.264,3.088,3.088,0,0,1,2.078-3.889l.234-.067a3.159,3.159,0,0,1,3.891,2.2,3.163,3.163,0,0,1-2.2,3.891A3.281,3.281,0,0,1-567.236,53.588ZM-655.1,49.841a3.138,3.138,0,0,1-1.886-.626l-.219-.167a3.163,3.163,0,0,1-.557-4.437,3.159,3.159,0,0,1,4.437-.554l.118.089a3.162,3.162,0,0,1,.645,4.424A3.157,3.157,0,0,1-655.1,49.841Zm100.015-.521a3.194,3.194,0,0,1-2.964-1.893,3.074,3.074,0,0,1,1.568-4.1l.217-.091a3.159,3.159,0,0,1,4.138,1.693,3.161,3.161,0,0,1-1.693,4.138A3.251,3.251,0,0,1-555.089,49.32Zm11.289-5.99a3.15,3.15,0,0,1-2.639-1.381,3.1,3.1,0,0,1,.816-4.344l.23-.152a3.165,3.165,0,0,1,4.367.965,3.165,3.165,0,0,1-.965,4.367A3.256,3.256,0,0,1-543.8,43.33Zm-119.418-3.343a3.16,3.16,0,0,1-2.73-1.564,3.253,3.253,0,0,1,1.069-4.414,3.073,3.073,0,0,1,4.27,1.02l.116.194a3.163,3.163,0,0,1-1.128,4.327A3.151,3.151,0,0,1-663.217,39.986Zm129.089-5.059a3.058,3.058,0,0,1-2.03-.748,3.072,3.072,0,0,1-.379-4.37l2.39,2.068-2.35-2.114,2.487,1.956,2.371,2.091A3.33,3.33,0,0,1-534.129,34.928Zm-134.3-6.667a3.163,3.163,0,0,1-3.021-2.234,3.253,3.253,0,0,1,2.061-4.051,3.08,3.08,0,0,1,3.921,1.992l.061.2a3.161,3.161,0,0,1-2.091,3.952A3.184,3.184,0,0,1-668.428,28.261Zm140.853-4.195a3.171,3.171,0,0,1-1.3-.28,3.166,3.166,0,0,1-1.581-4.184l2.883,1.3-2.822-1.438a3.169,3.169,0,0,1,4.153-1.661,3.163,3.163,0,0,1,1.661,4.152l-.11.249A3.167,3.167,0,0,1-527.575,24.066Zm-143.367-8.4a3.16,3.16,0,0,1-3.145-2.884,3.25,3.25,0,0,1,2.862-3.531,3.074,3.074,0,0,1,3.417,2.765l.019.211a3.162,3.162,0,0,1-2.871,3.427C-670.755,15.668-670.85,15.67-670.942,15.67Zm147.709-3.7a3.168,3.168,0,0,1-.835-.112,3.165,3.165,0,0,1-2.22-3.883l.057-.2a3.162,3.162,0,0,1,3.883-2.217A3.16,3.16,0,0,1-520.13,9.44l-.055.2A3.165,3.165,0,0,1-523.233,11.975ZM-670.772,2.735a2.967,2.967,0,0,1-.47-.038A3.073,3.073,0,0,1-673.887-.79l.044-.285a3.16,3.16,0,0,1,3.661-2.567A3.159,3.159,0,0,1-667.61,0h0A3.282,3.282,0,0,1-670.772,2.735Zm149.843-3.5c-.086,0-.173,0-.261-.011a3.074,3.074,0,0,1-2.881-3.322l.019-.211a3.173,3.173,0,0,1,3.427-2.871,3.159,3.159,0,0,1,2.871,3.427A3.268,3.268,0,0,1-520.929-.762Zm-.249-12.826a3.049,3.049,0,0,1-3.086-2.645c0-.015-.032-.236-.032-.249A3.159,3.159,0,0,1-521.532-20a3.16,3.16,0,0,1,3.514,2.763,3.249,3.249,0,0,1-2.73,3.615A3.3,3.3,0,0,1-521.178-13.589Zm-67.08-6.1a3.163,3.163,0,0,1-3.157-3.025,3.162,3.162,0,0,1,3.023-3.3,3.241,3.241,0,0,1,3.423,2.966,3.1,3.1,0,0,1-2.892,3.339l-.259.013C-588.167-19.691-588.214-19.689-588.258-19.689Zm-12.436-1.79a3.166,3.166,0,0,1-1.014-.169l-.2-.067a3.161,3.161,0,0,1-1.981-4.009,3.161,3.161,0,0,1,4.009-1.981l.2.07a3.159,3.159,0,0,1,1.981,4.007A3.165,3.165,0,0,1-600.694-21.478Zm24.87-1.206a3.164,3.164,0,0,1-2.892-1.878,3.162,3.162,0,0,1,1.606-4.174l.213-.095a3.165,3.165,0,0,1,4.163,1.636,3.165,3.165,0,0,1-1.638,4.163l-1.263-2.9,1.092,2.974A3.145,3.145,0,0,1-575.824-22.684Zm51.406-3.295a3.027,3.027,0,0,1-2.839-1.9l-.089-.221a3.161,3.161,0,0,1,1.773-4.1,3.163,3.163,0,0,1,4.106,1.773,3.241,3.241,0,0,1-1.705,4.205A3.3,3.3,0,0,1-524.418-25.979Zm-87.709-1.307a3.144,3.144,0,0,1-1.8-.567l-.12-.082a3.162,3.162,0,0,1-.877-4.386,3.16,3.16,0,0,1,4.384-.877l.228.156a3.164,3.164,0,0,1,.786,4.4A3.158,3.158,0,0,1-612.127-27.285Zm47.886-.967a3.16,3.16,0,0,1-2.82-1.731,3.164,3.164,0,0,1,1.385-4.252,3.259,3.259,0,0,1,4.332,1.311,3.075,3.075,0,0,1-1.225,4.2l-.24.126A3.171,3.171,0,0,1-564.241-28.253Zm12.917-6.9-1.758-2.631-1.613-2.719a3.25,3.25,0,0,1,4.416,1.041,3.071,3.071,0,0,1-.991,4.275l-1.633-2.706Zm-70.621-.419a3.15,3.15,0,0,1-2.26-.949l-.124-.126a3.16,3.16,0,0,1,0-4.471,3.16,3.16,0,0,1,4.471,0l.171.173a3.16,3.16,0,0,1-.046,4.471A3.15,3.15,0,0,1-621.946-35.573Zm91.187-1.414a3.159,3.159,0,0,1-2.475-1.191l2.473-1.971-2.567,1.851a3.158,3.158,0,0,1,.419-4.45,3.158,3.158,0,0,1,4.452.419c.013.017.158.2.171.211a3.16,3.16,0,0,1-.5,4.441A3.149,3.149,0,0,1-530.758-36.988Zm-11.174-4a3.166,3.166,0,0,1-2.93-1.973,3.161,3.161,0,0,1,1.739-4.119l.219-.089a3.159,3.159,0,0,1,4.1,1.773,3.158,3.158,0,0,1-1.771,4.1l-.173.07A3.159,3.159,0,0,1-541.932-40.988Zm-88.5-4.414a2.987,2.987,0,0,1-2.418-1.22l-.133-.175a3.165,3.165,0,0,1,.66-4.424,3.163,3.163,0,0,1,4.422.66,3.253,3.253,0,0,1-.592,4.5A3.253,3.253,0,0,1-630.427-45.4Z" transform="translate(1708.738 4920.166)" fill="#ff9800"/>
    <path id="Trazado_147220" data-name="Trazado 147220" d="M6,0A6,6,0,1,1,0,6,6,6,0,0,1,6,0Z" transform="translate(638.574 4920.689)" fill="#111e61"/>
    <path id="Trazado_147221" data-name="Trazado 147221" d="M6,0A6,6,0,1,1,0,6,6,6,0,0,1,6,0Z" transform="translate(634.359 4958.629)" fill="#111e61"/>
    <path id="Trazado_147222" data-name="Trazado 147222" d="M6,0A6,6,0,1,1,0,6,6,6,0,0,1,6,0Z" transform="translate(514.212 5007.109)" fill="#111e61"/>
    <path id="Trazado_147223" data-name="Trazado 147223" d="M6,0A6,6,0,1,1,0,6,6,6,0,0,1,6,0Z" transform="translate(511.996 5048.16)" fill="#111e61"/>
    <path id="Trazado_147224" data-name="Trazado 147224" d="M6,0A6,6,0,1,1,0,6,6,6,0,0,1,6,0Z" transform="translate(474.163 5091.209)" fill="#111e61"/>
    <path id="Trazado_147225" data-name="Trazado 147225" d="M6,0A6,6,0,1,1,0,6,6,6,0,0,1,6,0Z" transform="translate(532.183 5083.209)" fill="#111e61"/>
    <path id="Trazado_147226" data-name="Trazado 147226" d="M6,0A6,6,0,1,1,0,6,6,6,0,0,1,6,0Z" transform="translate(520.212 5139.904)" fill="#111e61"/>
    <path id="Trazado_147227" data-name="Trazado 147227" d="M6,0A6,6,0,1,1,0,6,6,6,0,0,1,6,0Z" transform="translate(562.692 5115.719)" fill="#111e61"/>
    <path id="Trazado_147228" data-name="Trazado 147228" d="M6,0A6,6,0,1,1,0,6,6,6,0,0,1,6,0Z" transform="translate(623.82 5057.699)" fill="#111e61"/>
    <path id="Trazado_147229" data-name="Trazado 147229" d="M6,0A6,6,0,1,1,0,6,6,6,0,0,1,6,0Z" transform="translate(708.134 5078.777)" fill="#111e61"/>
    <path id="Trazado_147230" data-name="Trazado 147230" d="M6,0A6,6,0,1,1,0,6,6,6,0,0,1,6,0Z" transform="translate(760.83 5072.453)" fill="#111e61"/>
    <path id="Trazado_147231" data-name="Trazado 147231" d="M6,0A6,6,0,1,1,0,6,6,6,0,0,1,6,0Z" transform="translate(875.653 4897.609)" fill="#111e61"/>
    <path id="Trazado_147232" data-name="Trazado 147232" d="M6,0A6,6,0,1,1,0,6,6,6,0,0,1,6,0Z" transform="translate(921.35 4857.453)" fill="#111e61"/>
    <path id="Trazado_147233" data-name="Trazado 147233" d="M6,0A6,6,0,1,1,0,6,6,6,0,0,1,6,0Z" transform="translate(876.653 4819.188)" fill="#111e61"/>
    <path id="Trazado_147234" data-name="Trazado 147234" d="M6,0A6,6,0,1,1,0,6,6,6,0,0,1,6,0Z" transform="translate(933.35 4758.602)" fill="#111e61"/>
    <path id="Trazado_147235" data-name="Trazado 147235" d="M6,0A6,6,0,1,1,0,6,6,6,0,0,1,6,0Z" transform="translate(1001.124 4810.188)" fill="#111e61"/>
    <path id="Trazado_147236" data-name="Trazado 147236" d="M6,0A6,6,0,1,1,0,6,6,6,0,0,1,6,0Z" transform="translate(1125.487 4886.963)" fill="#111e61"/>
    <path id="Trazado_147237" data-name="Trazado 147237" d="M6,0A6,6,0,1,1,0,6,6,6,0,0,1,6,0Z" transform="translate(1171.859 4873.531)" fill="#111e61"/>
    <path id="Trazado_147238" data-name="Trazado 147238" d="M6,0A6,6,0,1,1,0,6,6,6,0,0,1,6,0Z" transform="translate(1174.859 4935.551)" fill="#111e61"/>
    <path id="Trazado_147239" data-name="Trazado 147239" d="M6,0A6,6,0,1,1,0,6,6,6,0,0,1,6,0Z" transform="translate(1109.663 4970.063)" fill="#111e61"/>
    <path id="Trazado_147240" data-name="Trazado 147240" d="M6,0A6,6,0,1,1,0,6,6,6,0,0,1,6,0Z" transform="translate(1040.281 4951.521)" fill="#111e61"/>
    <path id="Trazado_147241" data-name="Trazado 147241" d="M6,0A6,6,0,1,1,0,6,6,6,0,0,1,6,0Z" transform="translate(741.859 5118.826)" fill="#111e61"/>
    <path id="Trazado_147215" data-name="Trazado 147215" d="M3.5,0A3.5,3.5,0,1,1,0,3.5,3.5,3.5,0,0,1,3.5,0Z" transform="translate(507.864 5019)" fill="#ff9800"/>
    <path id="Trazado_147216" data-name="Trazado 147216" d="M3.5,0A3.5,3.5,0,1,1,0,3.5,3.5,3.5,0,0,1,3.5,0Z" transform="translate(507.864 5042)" fill="#ff9800"/>
    <path id="Trazado_147210" data-name="Trazado 147210" d="M-982.947,249.512a2.106,2.106,0,0,1-2.085-1.821,2.109,2.109,0,0,1,1.8-2.376c2.472-.339,5.253-.753,8.275-1.25a2.107,2.107,0,0,1,2.424,1.737,2.108,2.108,0,0,1-1.739,2.422c-3.065.506-5.881.923-8.387,1.269A2.211,2.211,0,0,1-982.947,249.512Zm16.627-2.734a2.109,2.109,0,0,1-2.068-1.712,2.108,2.108,0,0,1,1.674-2.466c2.626-.5,5.369-1.06,8.2-1.68a2.108,2.108,0,0,1,2.51,1.608,2.109,2.109,0,0,1-1.608,2.51c-2.871.628-5.647,1.193-8.309,1.7A2.33,2.33,0,0,1-966.32,246.778Zm16.458-3.609a2.107,2.107,0,0,1-2.045-1.6,2.108,2.108,0,0,1,1.537-2.555q3.974-.986,8.079-2.139a2.105,2.105,0,0,1,2.6,1.454,2.108,2.108,0,0,1-1.456,2.6q-4.164,1.173-8.206,2.175A2.121,2.121,0,0,1-949.862,243.169Zm16.211-4.572a2.109,2.109,0,0,1-2.007-1.469,2.109,2.109,0,0,1,1.37-2.647c2.7-.86,5.36-1.758,7.9-2.673a2.114,2.114,0,0,1,2.7,1.269,2.11,2.11,0,0,1-1.269,2.7c-2.588.932-5.295,1.849-8.05,2.723A2.114,2.114,0,0,1-933.651,238.6Zm15.841-5.708a2.108,2.108,0,0,1-1.952-1.313,2.1,2.1,0,0,1,1.155-2.747c2.618-1.069,5.187-2.186,7.632-3.322a2.1,2.1,0,0,1,2.8,1.022,2.107,2.107,0,0,1-1.022,2.8c-2.506,1.166-5.137,2.31-7.818,3.4A2.072,2.072,0,0,1-917.81,232.889Zm17.426-8.428c-.753,0-2.021-3.419-.995-3.967q2-1.072,3.961-2.2,1.625-.939,3.16-1.935a2.106,2.106,0,0,1,2.915.622,2.107,2.107,0,0,1-.622,2.915q-1.625,1.056-3.341,2.049-2.017,1.164-4.087,2.27A2.093,2.093,0,0,1-900.384,224.461Zm10.276-8.644C-890.84,214.913-889.694,216.332-890.109,215.818Zm17.943-14.569a2.1,2.1,0,0,1-1.408-.54,2.107,2.107,0,0,1-.16-2.976c1.684-1.874,2.3-2.587,4.313-5.026a2.107,2.107,0,0,1,2.968-.282,2.107,2.107,0,0,1,.282,2.968c-2.053,2.485-2.7,3.238-4.427,5.159A2.1,2.1,0,0,1-872.166,201.249Zm10.629-15.41a2.108,2.108,0,0,1-.316-2.964c1.766-2.19,3.537-4.378,5.35-6.545a2.1,2.1,0,0,1,2.968-.266,2.109,2.109,0,0,1,.266,2.97c-1.8,2.148-3.552,4.317-5.3,6.488A3.754,3.754,0,0,1-861.536,185.839Zm29.1-24.551a2.108,2.108,0,0,1-1.9-1.185,2.108,2.108,0,0,1,.969-2.818c2.531-1.233,5.2-2.369,7.926-3.375a2.11,2.11,0,0,1,2.707,1.25,2.108,2.108,0,0,1-1.25,2.706c-2.595.957-5.13,2.036-7.533,3.208A2.087,2.087,0,0,1-832.434,161.288Zm16.92-7.922a2.109,2.109,0,0,1-2.036-1.562,2.11,2.11,0,0,1,1.49-2.582c2.683-.719,5.5-1.353,8.358-1.884a2.115,2.115,0,0,1,2.458,1.691,2.108,2.108,0,0,1-1.69,2.456c-2.753.51-5.457,1.119-8.033,1.811A2.046,2.046,0,0,1-815.515,153.367Zm19.529-3.527c-1.056,0-1.4-4.068.523-4.287q3.864-.43,7.538-.938a2.109,2.109,0,0,1,2.378,1.8,2.11,2.11,0,0,1-1.8,2.376q-3.725.515-7.658.953l-.736.082A1.926,1.926,0,0,1-795.985,149.84Zm16.656-2.312a2.109,2.109,0,0,1-2.076-1.752,2.109,2.109,0,0,1,1.722-2.435c2.774-.476,5.527-1,8.183-1.553a2.114,2.114,0,0,1,2.5,1.631,2.11,2.11,0,0,1-1.634,2.5c-2.7.565-5.508,1.1-8.332,1.583A2.3,2.3,0,0,1-779.329,147.528Zm16.448-3.457a2.11,2.11,0,0,1-2.042-1.591,2.111,2.111,0,0,1,1.526-2.561c2.734-.691,2.55-.626,5.128-1.406a2.109,2.109,0,0,1,2.629,1.406,2.108,2.108,0,0,1-1.406,2.628c-2.641.8-2.52.753-5.315,1.459A2.093,2.093,0,0,1-762.881,144.071Zm16.074-4.886a2.109,2.109,0,0,1-1.981-1.393,2.106,2.106,0,0,1,1.265-2.7c2.635-.951,5.225-1.971,7.7-3.033,1.069-.453,2.73,3.419,1.659,3.876C-740.713,137.028-746.569,139.185-746.807,139.185Zm19.1-8.645a2.108,2.108,0,0,1-1.884-1.157,2.107,2.107,0,0,1,.932-2.831,29.918,29.918,0,0,0,3.576-1.951,2.112,2.112,0,0,1,2.89.74,2.107,2.107,0,0,1-.738,2.888,33.069,33.069,0,0,1-3.827,2.086A2.1,2.1,0,0,1-727.709,130.54Zm10.775-6.546a2.108,2.108,0,0,1-1.737-.911,2.108,2.108,0,0,1,.54-2.932c2.247-1.551,4.422-3.158,6.646-4.913a2.1,2.1,0,0,1,2.962.348,2.108,2.108,0,0,1-.348,2.959c-2.266,1.79-4.576,3.5-6.867,5.076A2.09,2.09,0,0,1-716.935,123.994Zm13.21-10.385a2.105,2.105,0,0,1-1.583-.715,2.108,2.108,0,0,1,.19-2.976c2.148-1.889,4.188-3.771,6.159-5.624a2.109,2.109,0,0,1,2.98.095,2.106,2.106,0,0,1-.095,2.978c-2,1.882-4.077,3.794-6.26,5.716A2.1,2.1,0,0,1-703.725,113.608Zm12.314-11.456a2.1,2.1,0,0,1-1.532-.662,2.108,2.108,0,0,1,.086-2.98c1.821-1.72,3.99-3.748,6.262-5.733a2.114,2.114,0,0,1,2.974.2,2.108,2.108,0,0,1-.2,2.974c-2.217,1.939-4.35,3.931-6.142,5.626A2.1,2.1,0,0,1-691.411,102.152ZM-678.667,91.2c-.651,0-2.186-3.124-1.246-3.809a64.957,64.957,0,0,1,7.31-4.66c1.022-.556,3.039,3.145,2.015,3.7a61.028,61.028,0,0,0-6.838,4.363A2.1,2.1,0,0,1-678.667,91.2Zm14.721-7.932a2.111,2.111,0,0,1-1.986-1.4,2.11,2.11,0,0,1,1.277-2.694,58.606,58.606,0,0,1,8.383-2.287,2.108,2.108,0,0,1,2.475,1.665,2.108,2.108,0,0,1-1.665,2.473,54.3,54.3,0,0,0-7.776,2.12A2.143,2.143,0,0,1-663.946,83.268Zm75.238-.807h-.015q-4.06-.035-8.461-.152a2.1,2.1,0,0,1-2.049-2.163,2.05,2.05,0,0,1,2.165-2.051q4.363.12,8.377.15A2.1,2.1,0,0,1-586.6,80.37,2.108,2.108,0,0,1-588.708,82.461Zm8.419-.03a2.108,2.108,0,0,1-2.108-2.076,2.1,2.1,0,0,1,2.074-2.139q4.4-.066,8.358-.238a2.145,2.145,0,0,1,2.194,2.017,2.107,2.107,0,0,1-2.017,2.194c-2.679.114-5.5.2-8.469.242Zm-25.25-.422-.095,0q-4.076-.177-8.44-.432a2.111,2.111,0,0,1-1.981-2.228,2.086,2.086,0,0,1,2.228-1.981q4.335.253,8.379.43a2.108,2.108,0,0,1,2.013,2.2A2.106,2.106,0,0,1-605.539,82.01Zm42.062-.308a2.106,2.106,0,0,1-2.1-1.95,2.105,2.105,0,0,1,1.943-2.26c2.846-.213,5.636-.474,8.3-.78A2.116,2.116,0,0,1-553,78.567a2.107,2.107,0,0,1-1.853,2.333c-2.715.312-5.563.58-8.463.795Q-563.4,81.7-563.477,81.7Zm-58.872-.672c-.049,0-.1,0-.15,0q-4.091-.294-8.421-.651a2.108,2.108,0,0,1-1.927-2.274,2.1,2.1,0,0,1,2.274-1.927q4.306.357,8.37.645a2.109,2.109,0,0,1,1.954,2.253A2.108,2.108,0,0,1-622.349,81.029Zm-25.21-1.043c-1.1,0-1.3-4.129-.143-4.209,2.738-.19,5.6-.242,8.615-.156,1.164.032,1.029,4.249-.118,4.214-2.877-.078-5.607-.032-8.206.148C-647.462,79.984-647.511,79.986-647.559,79.986Zm100.8-.215A2.109,2.109,0,0,1-548.842,78a2.108,2.108,0,0,1,1.745-2.416c2.768-.447,5.438-.949,8.164-1.532a2.105,2.105,0,0,1,2.5,1.621,2.11,2.11,0,0,1-1.621,2.5c-2.8.6-5.535,1.111-8.374,1.57A2.066,2.066,0,0,1-546.764,79.771Zm16.456-3.5a2.11,2.11,0,0,1-2.04-1.581,2.109,2.109,0,0,1,1.511-2.569c1.408-.365,2.751-.723,4.047-1.071,1.41-.379,2.768-.74,4.093-1.081a2.1,2.1,0,0,1,2.565,1.518,2.107,2.107,0,0,1-1.518,2.565c-1.313.337-2.654.7-4.049,1.071-1.309.35-2.662.712-4.081,1.079A2.085,2.085,0,0,1-530.308,76.268Zm16.205-4.481a2.114,2.114,0,0,1-2.007-1.465,2.11,2.11,0,0,1,1.362-2.652l2.207-.715c1.819-.592,3.741-1.214,5.824-1.855a2.112,2.112,0,0,1,2.635,1.4,2.109,2.109,0,0,1-1.4,2.635c-2.062.632-3.958,1.25-5.759,1.834l-2.218.719A2.1,2.1,0,0,1-514.1,71.786Zm16.093-4.844a2.106,2.106,0,0,1-2.04-1.587,2.107,2.107,0,0,1,1.52-2.563c2.717-.693,5.43-1.315,8.294-1.9a2.114,2.114,0,0,1,2.487,1.644,2.1,2.1,0,0,1-1.642,2.485c-2.8.573-5.445,1.18-8.1,1.857A2.126,2.126,0,0,1-498.01,66.943Zm16.467-3.385a2.109,2.109,0,0,1-2.078-1.771,2.111,2.111,0,0,1,1.745-2.418c2.692-.434,5.518-.841,8.4-1.208a2.113,2.113,0,0,1,2.357,1.828,2.11,2.11,0,0,1-1.825,2.357c-2.831.358-5.609.759-8.254,1.187A2.058,2.058,0,0,1-481.543,63.557Zm16.684-2.142a2.107,2.107,0,0,1-2.1-1.9,2.109,2.109,0,0,1,1.889-2.306c2.664-.263,5.468-.512,8.427-.74a2.113,2.113,0,0,1,2.262,1.941,2.1,2.1,0,0,1-1.939,2.262q-4.388.338-8.332.731A1.762,1.762,0,0,1-464.859,61.416Zm16.774-1.3a2.11,2.11,0,0,1-2.1-1.986,2.108,2.108,0,0,1,1.983-2.226q4.044-.234,8.438-.419a2.117,2.117,0,0,1,2.194,2.019,2.107,2.107,0,0,1-2.019,2.192q-4.36.183-8.37.417C-448,60.117-448.045,60.117-448.085,60.117Zm16.812-.71a2.105,2.105,0,0,1-2.106-2.047,2.105,2.105,0,0,1,2.047-2.167q4.076-.114,8.438-.188h.036a2.108,2.108,0,0,1,2.106,2.074,2.109,2.109,0,0,1-2.074,2.142q-4.335.073-8.385.185Zm16.827-.276a2.107,2.107,0,0,1-2.108-2.1,2.11,2.11,0,0,1,2.1-2.12c2.74-.013,5.613.017,8.37-.059a2.12,2.12,0,0,1,2.165,2.047,2.108,2.108,0,0,1-2.049,2.167c-2.787.078-5.691.046-8.461.061Zm16.8-.6a2.109,2.109,0,0,1-2.1-1.893,2.108,2.108,0,0,1,1.882-2.312c2.77-.28,5.51-.672,8.145-1.164a2.1,2.1,0,0,1,2.458,1.686,2.106,2.106,0,0,1-1.686,2.458c-2.749.512-5.6.921-8.486,1.214A1.9,1.9,0,0,1-397.649,58.534Zm16.5-3.1a2.11,2.11,0,0,1-2.028-1.532,2.108,2.108,0,0,1,1.452-2.6c2.647-.75,5.255-1.634,7.757-2.622a2.108,2.108,0,0,1,2.736,1.185,2.109,2.109,0,0,1-1.185,2.736c-2.633,1.039-5.375,1.967-8.157,2.757A2.094,2.094,0,0,1-381.153,55.432Zm15.6-6.178a2.106,2.106,0,0,1-1.872-1.132,2.107,2.107,0,0,1,.894-2.843,78.594,78.594,0,0,0,7.047-4.161,2.106,2.106,0,0,1,2.921.592,2.108,2.108,0,0,1-.592,2.921,81.863,81.863,0,0,1-7.426,4.384A2.094,2.094,0,0,1-365.553,49.254Zm14-9.268a2.108,2.108,0,0,1-1.633-.771,2.112,2.112,0,0,1,.3-2.968c2.074-1.695,4.129-3.543,6.111-5.5a2.109,2.109,0,0,1,2.98.023,2.108,2.108,0,0,1-.023,2.983c-2.074,2.04-4.226,3.975-6.4,5.752A2.105,2.105,0,0,1-351.557,39.985ZM-336,24.047a2.108,2.108,0,0,1-1.381-.516,2.109,2.109,0,0,1-.209-2.974,45.352,45.352,0,0,0,3.2-3.787,2.1,2.1,0,0,1,2.953-.4,2.107,2.107,0,0,1,.4,2.953,49.214,49.214,0,0,1-3.365,4A2.106,2.106,0,0,1-336,24.047Zm6.692-9.19a2.089,2.089,0,0,1-1.2-.373,2.106,2.106,0,0,1-.537-2.932c1.61-2.335,3.149-4.667,4.635-6.962a2.108,2.108,0,0,1,2.917-.622,2.11,2.11,0,0,1,.622,2.915c-1.509,2.327-3.069,4.692-4.7,7.063A2.105,2.105,0,0,1-329.306,14.858ZM-320.091.752a2.1,2.1,0,0,1-1.134-.333,2.107,2.107,0,0,1-.639-2.911c1.574-2.462,3.111-4.842,4.637-7.1a2.1,2.1,0,0,1,2.926-.567,2.107,2.107,0,0,1,.567,2.926C-315.24-5-316.756-2.652-318.312-.22A2.11,2.11,0,0,1-320.091.752Zm9.542-13.882a2.089,2.089,0,0,1-1.3-.453,2.106,2.106,0,0,1-.35-2.959,53.991,53.991,0,0,1,5.889-6.463,2.107,2.107,0,0,1,2.978.129,2.109,2.109,0,0,1-.128,2.978,50.418,50.418,0,0,0-5.43,5.965A2.1,2.1,0,0,1-310.548-13.13Zm12.525-11.022c-.742,0-2.045-3.385-1.029-3.95a85.378,85.378,0,0,1,7.721-3.826c1.069-.462,2.736,3.413,1.667,3.874A80.513,80.513,0,0,0-297-24.418,2.113,2.113,0,0,1-298.024-24.152Zm15.45-6.511a2.109,2.109,0,0,1-2.034-1.56,2.107,2.107,0,0,1,1.486-2.584,56.925,56.925,0,0,1,8.564-1.61,2.1,2.1,0,0,1,2.331,1.857,2.108,2.108,0,0,1-1.857,2.331,52.745,52.745,0,0,0-7.94,1.492A2.159,2.159,0,0,1-282.573-30.663Zm16.639-2.1A2.109,2.109,0,0,1-268.04-34.8a2.106,2.106,0,0,1,2.032-2.18l1.943-.065c2.053-.065,4.174-.135,6.414-.261a2.1,2.1,0,0,1,2.224,1.986,2.107,2.107,0,0,1-1.986,2.224c-2.277.129-4.431.2-6.517.266l-1.931.065Zm16.772-1.09c-1.043,0-1.423-4.049-.27-4.2,2.711-.352,5.367-.805,8.126-1.387,1.138-.242,2.008,3.885.868,4.125-2.867.6-5.63,1.075-8.45,1.442A2.018,2.018,0,0,1-249.162-33.854Zm16.555-3.023a2.109,2.109,0,0,1-2.062-1.674,2.111,2.111,0,0,1,1.629-2.5c2.654-.556,5.367-1.214,8.063-1.95a2.1,2.1,0,0,1,2.591,1.475,2.105,2.105,0,0,1-1.478,2.588c-2.778.761-5.573,1.438-8.309,2.013A2.184,2.184,0,0,1-232.607-36.877Zm16.247-4.422a2.109,2.109,0,0,1-2-1.444,2.108,2.108,0,0,1,1.336-2.664c2.571-.854,5.2-1.8,7.826-2.818a2.111,2.111,0,0,1,2.728,1.2,2.11,2.11,0,0,1-1.2,2.728c-2.685,1.041-5.386,2.013-8.022,2.888A2.075,2.075,0,0,1-216.359-41.3Zm15.71-6.073a2.107,2.107,0,0,1-1.931-1.26,2.107,2.107,0,0,1,1.081-2.778c2.506-1.1,5.048-2.283,7.561-3.512a2.1,2.1,0,0,1,2.818.965,2.105,2.105,0,0,1-.965,2.82c-2.563,1.254-5.16,2.46-7.717,3.585A2.09,2.09,0,0,1-200.65-47.372Zm15.132-7.394a2.11,2.11,0,0,1-1.859-1.111,2.108,2.108,0,0,1,.86-2.854c2.411-1.294,4.863-2.669,7.287-4.081a2.112,2.112,0,0,1,2.884.761,2.108,2.108,0,0,1-.761,2.881c-2.466,1.438-4.962,2.835-7.415,4.152A2.088,2.088,0,0,1-185.517-54.766Zm14.557-8.48a2.1,2.1,0,0,1-1.787-.986,2.105,2.105,0,0,1,.664-2.9c2.451-1.541,4.791-3.069,7-4.559a2.1,2.1,0,0,1,2.926.569,2.109,2.109,0,0,1-.571,2.926c-2.247,1.516-4.625,3.067-7.116,4.633A2.091,2.091,0,0,1-170.961-63.246Zm13.977-9.412a2.105,2.105,0,0,1-1.714-.877,2.108,2.108,0,0,1,.48-2.94c2.473-1.781,4.718-3.461,6.707-4.991a2.108,2.108,0,0,1,2.955.386,2.106,2.106,0,0,1-.386,2.955c-2.021,1.556-4.3,3.263-6.815,5.071A2.1,2.1,0,0,1-156.984-72.658Z" transform="translate(1364.253 4886.863)" fill="#ff9800"/>
    <path id="Trazado_147242" data-name="Trazado 147242" d="M6,0A6,6,0,1,1,0,6,6,6,0,0,1,6,0Z" transform="translate(714.565 4957.521)" fill="#111e61"/>
    <path id="Trazado_147243" data-name="Trazado 147243" d="M6,0A6,6,0,1,1,0,6,6,6,0,0,1,6,0Z" transform="translate(682.84 4967.063)" fill="#111e61"/>
    <path id="Trazado_147244" data-name="Trazado 147244" d="M6,0A6,6,0,1,1,0,6,6,6,0,0,1,6,0Z" transform="translate(566.692 5027.189)" fill="#111e61"/>
    <path id="Trazado_147245" data-name="Trazado 147245" d="M6,0A6,6,0,1,1,0,6,6,6,0,0,1,6,0Z" transform="translate(839.467 4949.199)" fill="#111e61"/>
    <path id="Trazado_147246" data-name="Trazado 147246" d="M6,0A6,6,0,1,1,0,6,6,6,0,0,1,6,0Z" transform="translate(948.19 4937.443)" fill="#111e61"/>
    <path id="Trazado_147217" data-name="Trazado 147217" d="M3.5,0A3.5,3.5,0,1,1,0,3.5,3.5,3.5,0,0,1,3.5,0Z" transform="translate(1061.864 4969)" fill="#ff9800"/>
    <path id="Trazado_147218" data-name="Trazado 147218" d="M3.5,0A3.5,3.5,0,1,1,0,3.5,3.5,3.5,0,0,1,3.5,0Z" transform="translate(1170.864 4948)" fill="#ff9800"/>
    <path id="Trazado_147219" data-name="Trazado 147219" d="M3.5,0A3.5,3.5,0,1,1,0,3.5,3.5,3.5,0,0,1,3.5,0Z" transform="translate(1151.864 4879)" fill="#ff9800"/>
    <path id="Trazado_147247" data-name="Trazado 147247" d="M6,0A6,6,0,1,1,0,6,6,6,0,0,1,6,0Z" transform="translate(1063.929 4852.346)" fill="#111e61"/>
    <path id="Trazado_147248" data-name="Trazado 147248" d="M6,0A6,6,0,1,1,0,6,6,6,0,0,1,6,0Z" transform="translate(1113.487 4844.59)" fill="#111e61"/>
    <path id="Trazado_147249" data-name="Trazado 147249" d="M11,0A11,11,0,1,1,0,11,11,11,0,0,1,11,0Z" transform="translate(1002.923 4903.502)" fill="#fff1db"/>
    <g id="Grupo_84680" data-name="Grupo 84680" transform="translate(1001.124 4901.721)">
      <path id="Trazado_147209" data-name="Trazado 147209" d="M-863.353,40.294A12.66,12.66,0,0,1-876,27.647,12.66,12.66,0,0,1-863.353,15a12.66,12.66,0,0,1,12.647,12.647A12.66,12.66,0,0,1-863.353,40.294Zm0-23.186a10.551,10.551,0,0,0-10.539,10.539,10.551,10.551,0,0,0,10.539,10.539,10.551,10.551,0,0,0,10.539-10.539A10.551,10.551,0,0,0-863.353,17.108Z" transform="translate(876 -15)" fill="#111e61"/>
    </g>
    <g id="Grupo_84681" data-name="Grupo 84681" transform="translate(1010.609 4911.207)">
      <circle id="Elipse_4178" data-name="Elipse 4178" cx="3.162" cy="3.162" r="3.162" fill="#111e61"/>
    </g>
    <path id="Trazado_147250" data-name="Trazado 147250" d="M11,0A11,11,0,1,1,0,11,11,11,0,0,1,11,0Z" transform="translate(610.922 5010.998)" fill="#fff1db"/>
    <g id="Grupo_84680-2" data-name="Grupo 84680" transform="translate(609.123 5009.217)">
      <path id="Trazado_147209-2" data-name="Trazado 147209" d="M-863.353,40.294A12.66,12.66,0,0,1-876,27.647,12.66,12.66,0,0,1-863.353,15a12.66,12.66,0,0,1,12.647,12.647A12.66,12.66,0,0,1-863.353,40.294Zm0-23.186a10.551,10.551,0,0,0-10.539,10.539,10.551,10.551,0,0,0,10.539,10.539,10.551,10.551,0,0,0,10.539-10.539A10.551,10.551,0,0,0-863.353,17.108Z" transform="translate(876 -15)" fill="#111e61"/>
    </g>
    <g id="Grupo_84681-2" data-name="Grupo 84681" transform="translate(618.608 5018.703)">
      <circle id="Elipse_4178-2" data-name="Elipse 4178" cx="3.162" cy="3.162" r="3.162" fill="#111e61"/>
    </g>
    <path id="Trazado_147214" data-name="Trazado 147214" d="M-69.176-3.164h8.156V0H-74.309V-2.168l8.133-11.719h-8.18v-3.176H-61.1v2.109Zm9.094-3.293a7.484,7.484,0,0,1,.738-3.381,5.28,5.28,0,0,1,2.121-2.279,6.388,6.388,0,0,1,3.246-.8,5.83,5.83,0,0,1,4.488,1.764,6.768,6.768,0,0,1,1.641,4.8v.141a6.566,6.566,0,0,1-1.646,4.705A5.846,5.846,0,0,1-53.953.234,5.912,5.912,0,0,1-58.3-1.389a6.348,6.348,0,0,1-1.77-4.4Zm3.949.246a4.718,4.718,0,0,0,.551,2.578,1.835,1.835,0,0,0,1.629.82q2.109,0,2.156-3.246v-.4q0-3.41-2.18-3.41-1.98,0-2.145,2.941ZM-42.48-12.68l.129,1.488a4.3,4.3,0,0,1,3.621-1.723,3.618,3.618,0,0,1,2.959,1.184,5.635,5.635,0,0,1,1.014,3.563V0h-3.961V-8a2.14,2.14,0,0,0-.387-1.412,1.789,1.789,0,0,0-1.406-.451,1.883,1.883,0,0,0-1.723.914V0h-3.949V-12.68ZM-25.43,0A4.459,4.459,0,0,1-25.8-1.137,3.672,3.672,0,0,1-28.852.234,4.5,4.5,0,0,1-31.9-.85a3.45,3.45,0,0,1-1.254-2.725,3.546,3.546,0,0,1,1.523-3.117A7.761,7.761,0,0,1-27.2-7.746h1.219v-.671q0-1.755-1.512-1.755A1.236,1.236,0,0,0-28.9-8.782h-3.949a3.54,3.54,0,0,1,1.564-2.985,6.575,6.575,0,0,1,3.99-1.147,5.764,5.764,0,0,1,3.832,1.184A4.115,4.115,0,0,1-22.02-8.484v5.613A5.748,5.748,0,0,0-21.48-.2V0ZM-27.9-2.578a2.2,2.2,0,0,0,1.225-.316,1.983,1.983,0,0,0,.7-.715V-5.637h-1.148q-2.062,0-2.062,1.852a1.131,1.131,0,0,0,.363.873A1.315,1.315,0,0,0-27.9-2.578ZM-9.258-15.832v3.152h2.086v2.742H-9.258v5.8a1.481,1.481,0,0,0,.258,1,1.383,1.383,0,0,0,1.02.281A5.793,5.793,0,0,0-7-2.93V-.105a7.288,7.288,0,0,1-2.227.34,4.137,4.137,0,0,1-3.012-.961,3.939,3.939,0,0,1-.973-2.918V-9.937h-1.617V-12.68h1.617v-3.152ZM1.934-1.371A4.072,4.072,0,0,1-1.453.234,3.993,3.993,0,0,1-4.611-.979,5.1,5.1,0,0,1-5.684-4.465V-12.68h3.949v8.238A1.419,1.419,0,0,0-.152-2.812a2.064,2.064,0,0,0,1.934-.973V-12.68H5.754V0h-3.7ZM15.586-9.105l-1.3-.094a2.336,2.336,0,0,0-2.391,1.172V0H7.945V-12.68h3.7l.129,1.629a3.058,3.058,0,0,1,2.777-1.863,3.851,3.851,0,0,1,1.1.141ZM21.316,0H17.344V-12.68h3.973ZM19.84-17.766h4.172l-3.258,3.68-3.223-.006Zm10.652,14.2a.912.912,0,0,0-.527-.809,8.021,8.021,0,0,0-2-.633,9.138,9.138,0,0,1-2.437-.861A4.083,4.083,0,0,1,24.059-7.16a3.092,3.092,0,0,1-.5-1.746A3.5,3.5,0,0,1,25-11.783a5.938,5.938,0,0,1,3.773-1.131A6.579,6.579,0,0,1,32.8-11.777a3.555,3.555,0,0,1,1.523,2.988H30.363q0-1.523-1.605-1.523a1.591,1.591,0,0,0-1.043.346,1.07,1.07,0,0,0-.422.861.982.982,0,0,0,.516.855,4.872,4.872,0,0,0,1.646.539,14.228,14.228,0,0,1,1.986.5Q34.3-6.223,34.3-3.68A3.321,3.321,0,0,1,32.76-.855,6.758,6.758,0,0,1,28.77.234a6.9,6.9,0,0,1-2.906-.586,4.86,4.86,0,0,1-1.992-1.594,3.609,3.609,0,0,1-.715-2.121h3.691a1.526,1.526,0,0,0,.586,1.283,2.41,2.41,0,0,0,1.441.4,1.9,1.9,0,0,0,1.213-.328A1.05,1.05,0,0,0,30.492-3.562Zm10.254-12.27v3.152h2.086v2.742H40.746v5.8a1.481,1.481,0,0,0,.258,1,1.383,1.383,0,0,0,1.02.281,5.793,5.793,0,0,0,.984-.07V-.105a7.288,7.288,0,0,1-2.227.34A4.137,4.137,0,0,1,37.77-.727,3.939,3.939,0,0,1,36.8-3.645V-9.937H35.18V-12.68H36.8v-3.152ZM48.551,0H44.59V-12.68h3.961Zm-4.2-15.961a1.778,1.778,0,0,1,.609-1.391,2.29,2.29,0,0,1,1.582-.542,2.29,2.29,0,0,1,1.582.542,1.778,1.778,0,0,1,.609,1.391,1.778,1.778,0,0,1-.609,1.391,2.29,2.29,0,0,1-1.582.542,2.29,2.29,0,0,1-1.582-.542A1.778,1.778,0,0,1,44.355-15.961ZM56.344-2.812a1.756,1.756,0,0,0,1.289-.451,1.654,1.654,0,0,0,.445-1.26h3.7A4.384,4.384,0,0,1,60.287-1.1,5.558,5.558,0,0,1,56.438.234,5.627,5.627,0,0,1,52.078-1.5a6.834,6.834,0,0,1-1.594-4.8v-.164a7.723,7.723,0,0,1,.709-3.393,5.162,5.162,0,0,1,2.045-2.262,6.1,6.1,0,0,1,3.164-.791,5.488,5.488,0,0,1,3.926,1.371,4.863,4.863,0,0,1,1.453,3.715h-3.7A2.168,2.168,0,0,0,57.6-9.34a1.658,1.658,0,0,0-1.289-.527q-1.535,0-1.793,1.957A13.809,13.809,0,0,0,54.434-6.2a5.424,5.424,0,0,0,.457,2.648A1.582,1.582,0,0,0,56.344-2.812ZM70.594,0a4.459,4.459,0,0,1-.375-1.137A3.672,3.672,0,0,1,67.172.234,4.5,4.5,0,0,1,64.125-.85a3.45,3.45,0,0,1-1.254-2.725,3.546,3.546,0,0,1,1.523-3.117,7.761,7.761,0,0,1,4.43-1.055h1.219v-.671q0-1.755-1.512-1.755a1.236,1.236,0,0,0-1.406,1.39H63.176a3.54,3.54,0,0,1,1.564-2.985,6.575,6.575,0,0,1,3.99-1.147,5.764,5.764,0,0,1,3.832,1.184A4.115,4.115,0,0,1,74-8.484v5.613A5.748,5.748,0,0,0,74.543-.2V0ZM68.121-2.578a2.2,2.2,0,0,0,1.225-.316,1.983,1.983,0,0,0,.7-.715V-5.637H68.895q-2.062,0-2.062,1.852a1.131,1.131,0,0,0,.363.873A1.315,1.315,0,0,0,68.121-2.578Z" transform="translate(465 4723.129)" fill="#12263f"/>
    <path id="Trazado_147212" data-name="Trazado 147212" d="M-13.037-5.777A6.231,6.231,0,0,1-14-2.631,5.8,5.8,0,0,1-16.465-.516a8.4,8.4,0,0,1-3.627.75,6.7,6.7,0,0,1-5.3-2.191,9.048,9.048,0,0,1-1.934-6.187v-.844a10.328,10.328,0,0,1,.873-4.389,6.615,6.615,0,0,1,2.514-2.906,7.013,7.013,0,0,1,3.8-1.025,7.354,7.354,0,0,1,4.992,1.635A6.459,6.459,0,0,1-13-11.168h-4.1a3.056,3.056,0,0,0-.785-2.238,3.229,3.229,0,0,0-2.25-.68,2.457,2.457,0,0,0-2.25,1.148,7.381,7.381,0,0,0-.75,3.668v1.207a8.167,8.167,0,0,0,.686,3.9,2.509,2.509,0,0,0,2.361,1.172,3.159,3.159,0,0,0,2.168-.668,2.835,2.835,0,0,0,.8-2.121ZM-8.83-3.832a2.248,2.248,0,0,1,1.559.557A1.826,1.826,0,0,1-6.65-1.852,1.826,1.826,0,0,1-7.271-.428,2.248,2.248,0,0,1-8.83.129a2.229,2.229,0,0,1-1.564-.562,1.839,1.839,0,0,1-.615-1.418,1.839,1.839,0,0,1,.615-1.418A2.229,2.229,0,0,1-8.83-3.832ZM9.557-13.887H4.436V0H.322V-13.887H-4.705v-3.176H9.557Zm.973,10.055a2.248,2.248,0,0,1,1.559.557,1.826,1.826,0,0,1,.621,1.424,1.826,1.826,0,0,1-.621,1.424,2.248,2.248,0,0,1-1.559.557A2.229,2.229,0,0,1,8.965-.434,1.839,1.839,0,0,1,8.35-1.852,1.839,1.839,0,0,1,8.965-3.27,2.229,2.229,0,0,1,10.529-3.832ZM24.029,0H20.068V-12.609l-3.891,1.137v-3l7.488-2.59h.363Z" transform="translate(677 5037.129)" fill="#12263f"/>
    <path id="Trazado_147213" data-name="Trazado 147213" d="M-13.037-5.777A6.231,6.231,0,0,1-14-2.631,5.8,5.8,0,0,1-16.465-.516a8.4,8.4,0,0,1-3.627.75,6.7,6.7,0,0,1-5.3-2.191,9.048,9.048,0,0,1-1.934-6.187v-.844a10.328,10.328,0,0,1,.873-4.389,6.615,6.615,0,0,1,2.514-2.906,7.013,7.013,0,0,1,3.8-1.025,7.354,7.354,0,0,1,4.992,1.635A6.459,6.459,0,0,1-13-11.168h-4.1a3.056,3.056,0,0,0-.785-2.238,3.229,3.229,0,0,0-2.25-.68,2.457,2.457,0,0,0-2.25,1.148,7.381,7.381,0,0,0-.75,3.668v1.207a8.167,8.167,0,0,0,.686,3.9,2.509,2.509,0,0,0,2.361,1.172,3.159,3.159,0,0,0,2.168-.668,2.835,2.835,0,0,0,.8-2.121ZM-8.83-3.832a2.248,2.248,0,0,1,1.559.557A1.826,1.826,0,0,1-6.65-1.852,1.826,1.826,0,0,1-7.271-.428,2.248,2.248,0,0,1-8.83.129a2.229,2.229,0,0,1-1.564-.562,1.839,1.839,0,0,1-.615-1.418,1.839,1.839,0,0,1,.615-1.418A2.229,2.229,0,0,1-8.83-3.832ZM9.557-13.887H4.436V0H.322V-13.887H-4.705v-3.176H9.557Zm.973,10.055a2.248,2.248,0,0,1,1.559.557,1.826,1.826,0,0,1,.621,1.424,1.826,1.826,0,0,1-.621,1.424,2.248,2.248,0,0,1-1.559.557A2.229,2.229,0,0,1,8.965-.434,1.839,1.839,0,0,1,8.35-1.852,1.839,1.839,0,0,1,8.965-3.27,2.229,2.229,0,0,1,10.529-3.832ZM27.182,0H15.275V-2.578L20.76-8.344q2.027-2.309,2.027-3.668a2.551,2.551,0,0,0-.48-1.676,1.715,1.715,0,0,0-1.395-.574,1.737,1.737,0,0,0-1.465.768,3.155,3.155,0,0,0-.562,1.916H14.924a5.6,5.6,0,0,1,.785-2.9,5.506,5.506,0,0,1,2.18-2.08,6.475,6.475,0,0,1,3.117-.75,6.369,6.369,0,0,1,4.26,1.277,4.56,4.56,0,0,1,1.494,3.668,5.326,5.326,0,0,1-.375,1.963,8.608,8.608,0,0,1-1.166,2A29.372,29.372,0,0,1,22.67-5.59l-2.2,2.543h6.715Z" transform="translate(1077 4924.129)" fill="#12263f"/>
  </g>
</svg>
