<svg xmlns="http://www.w3.org/2000/svg" width="298" height="144" viewBox="0 0 298 144">
  <g id="Grupo_84695" data-name="Grupo 84695" transform="translate(-651 -4552)">
    <rect id="Rectángulo_32168" data-name="Rectángulo 32168" width="298" height="144" rx="20" transform="translate(651 4552)" fill="#fff1db"/>
    <g id="el-respeto" transform="translate(749 4573)">
      <g id="Grupo_83913" data-name="Grupo 83913" transform="translate(2.613 2.613)">
        <g id="Grupo_83896" data-name="Grupo 83896" transform="translate(0 42.339)">
          <path id="Trazado_147037" data-name="Trazado 147037" d="M54.871,48.815h-.016a9.006,9.006,0,0,1-.871-2.629l-.371-2.21H50.387c-1.21-3.629-1.516-9.968-1.581-12.919V31.04a5.777,5.777,0,0,1-4.323-2.323L40.71,28.25V40.411a21.729,21.729,0,0,1-4.871,13.71v.016a21.773,21.773,0,0,1-4.806,4.355,21.772,21.772,0,0,1-4.806-4.355v-.016a20.567,20.567,0,0,1-2.306-3.468,21.67,21.67,0,0,1-2.565-10.242V28.25l-6.145.774A15.032,15.032,0,0,0,2,43.976v38.71H60.065V53.218a8.788,8.788,0,0,1-5.194-4.4Z" transform="translate(-2 -28.25)" fill="#ff9800"/>
        </g>
        <g id="Grupo_83897" data-name="Grupo 83897" transform="translate(19.355 50.952)">
          <path id="Trazado_147038" data-name="Trazado 147038" d="M18.532,33.59l3.532,3.887L18.871,50.848a20.567,20.567,0,0,1-2.306-3.468A21.67,21.67,0,0,1,14,37.138V35.864Z" transform="translate(-14 -33.59)" fill="#e6e9ed"/>
        </g>
        <g id="Grupo_83898" data-name="Grupo 83898" transform="translate(30.645 50.952)">
          <path id="Trazado_147039" data-name="Trazado 147039" d="M29.065,35.864v1.274a21.729,21.729,0,0,1-4.871,13.71L21,37.477l3.532-3.887Z" transform="translate(-21 -33.59)" fill="#e6e9ed"/>
        </g>
        <g id="Grupo_83899" data-name="Grupo 83899" transform="translate(24.226 54.839)">
          <path id="Trazado_147040" data-name="Trazado 147040" d="M20.214,36h3.226l3.194,13.371v.016a21.773,21.773,0,0,1-4.806,4.355,21.772,21.772,0,0,1-4.806-4.355v-.016Z" transform="translate(-17.02 -36)" fill="#fcd770"/>
        </g>
        <g id="Grupo_83900" data-name="Grupo 83900" transform="translate(23.887 48.387)">
          <path id="Trazado_147041" data-name="Trazado 147041" d="M27.1,34.565l-3.532,3.887H20.342L16.81,34.565,21.955,32Z" transform="translate(-16.81 -32)" fill="#fcd770"/>
        </g>
        <g id="Grupo_83901" data-name="Grupo 83901" transform="translate(19.355 41.935)">
          <path id="Trazado_147042" data-name="Trazado 147042" d="M18.532,37.016,14,39.29V28.4l3.226-.4,6.452,6.452Z" transform="translate(-14 -28)" fill="#ff9800"/>
        </g>
        <g id="Grupo_83902" data-name="Grupo 83902" transform="translate(29.032 41.935)">
          <path id="Trazado_147043" data-name="Trazado 147043" d="M25.145,37.016,20,34.452,26.452,28l3.226.4V39.29Z" transform="translate(-20 -28)" fill="#ff9800"/>
        </g>
        <g id="Grupo_83903" data-name="Grupo 83903" transform="translate(8.065)">
          <path id="Trazado_147044" data-name="Trazado 147044" d="M11.839,2H33.226A12.494,12.494,0,0,1,45.71,14.484a12.152,12.152,0,0,1-.645,3.952c-.323,1-.694,2.113-.871,2.629a4.779,4.779,0,0,0-3.323-1.323H39.048A6.438,6.438,0,0,0,32.806,14.9H23.129a6.438,6.438,0,0,0-6.242,4.839H15.065a4.8,4.8,0,0,0-3.984,2.1l-.952-1.452a8.95,8.95,0,0,1-.565-9l.113-.226a4.618,4.618,0,0,1-1.258-.9A4.839,4.839,0,0,1,11.839,2Z" transform="translate(-7 -2)" fill="#b27946"/>
        </g>
        <g id="Grupo_83904" data-name="Grupo 83904" transform="translate(58.065 64.806)">
          <path id="Trazado_147045" data-name="Trazado 147045" d="M63.806,74.148H38V67.39a26.865,26.865,0,0,1,3.532-13.306l.161.516a8.744,8.744,0,0,0,4.371,5.032l3.226-8.065,4.839,8.065a16.118,16.118,0,0,0,6.452-12.9V42.18l4.21.774A14.5,14.5,0,0,1,76.71,57.228V74.148Z" transform="translate(-38 -42.18)" fill="#ffee58"/>
        </g>
        <g id="Grupo_83905" data-name="Grupo 83905" transform="translate(61.597 69.565)">
          <path id="Trazado_147046" data-name="Trazado 147046" d="M47.948,49.759l-3.226,8.065a8.744,8.744,0,0,1-4.371-5.032l-.161-.516a26.6,26.6,0,0,1,5.9-7.145Z" transform="translate(-40.19 -45.13)" fill="#ffee58"/>
        </g>
        <g id="Grupo_83906" data-name="Grupo 83906" transform="translate(69.355 64.516)">
          <path id="Trazado_147047" data-name="Trazado 147047" d="M56.29,42.29v4.548a16.118,16.118,0,0,1-6.452,12.9L45,51.677a9.5,9.5,0,0,0,9.387-7.952L54.677,42Z" transform="translate(-45 -42)" fill="#ffee58"/>
        </g>
        <g id="Grupo_83907" data-name="Grupo 83907" transform="translate(40.323 25.806)">
          <path id="Trazado_147048" data-name="Trazado 147048" d="M47.161,32.516a3.916,3.916,0,0,0-1.548.323l-3.516,1.5-5.919,2.548a6.033,6.033,0,0,1-2.323.468,1.384,1.384,0,0,1-.371-.032A5.777,5.777,0,0,1,29.161,35a4.6,4.6,0,0,1-.565-.887l-1.048-2.1A5.423,5.423,0,0,1,27,29.661a5.245,5.245,0,0,1,3.355-4.887l15.581-6A11.751,11.751,0,0,1,60.79,24.806l5.194,11.258A14.579,14.579,0,0,1,64.4,50.919l-1.661,2.226-5.1-6.113.339-.339a9.839,9.839,0,0,0,2.887-6.968,3.965,3.965,0,0,0-3.984-3.984,3.978,3.978,0,0,0-3.565,2.21l-.516,1.016-2.145-4.29a3.913,3.913,0,0,0-3.5-2.161Z" transform="translate(-27 -18)" fill="#656d78"/>
        </g>
        <g id="Grupo_83908" data-name="Grupo 83908" transform="translate(22.581 35.952)">
          <path id="Trazado_147049" data-name="Trazado 147049" d="M27.4,24.29l1.5,5.984-6.452,6.452L16,30.274l1.5-5.984a11.278,11.278,0,0,0,9.9,0Z" transform="translate(-16 -24.29)" fill="#f0d0b4"/>
        </g>
        <g id="Grupo_83909" data-name="Grupo 83909" transform="translate(40.113 17.742)">
          <path id="Trazado_147050" data-name="Trazado 147050" d="M28.693,13a4.841,4.841,0,0,1,4.839,4.839,4.846,4.846,0,0,1-4.839,4.839H26.951a8.946,8.946,0,0,0,.129-1.613V14.613A5.9,5.9,0,0,0,26.87,13Z" transform="translate(-26.87 -13)" fill="#f0d0b4"/>
        </g>
        <g id="Grupo_83910" data-name="Grupo 83910" transform="translate(17.742 12.903)">
          <path id="Trazado_147051" data-name="Trazado 147051" d="M13,22.9V16.452a5.9,5.9,0,0,1,.21-1.613A6.438,6.438,0,0,1,19.452,10h9.677a6.438,6.438,0,0,1,6.242,4.839,5.9,5.9,0,0,1,.21,1.613V22.9a8.946,8.946,0,0,1-.129,1.613,11.192,11.192,0,0,1-6.21,8.532,11.278,11.278,0,0,1-9.9,0,11.234,11.234,0,0,1-6.21-8.532A8.946,8.946,0,0,1,13,22.9Z" transform="translate(-13 -10)" fill="#f0d0b4"/>
        </g>
        <g id="Grupo_83911" data-name="Grupo 83911" transform="translate(11.29 17.742)">
          <path id="Trazado_147052" data-name="Trazado 147052" d="M15.452,21.065a8.946,8.946,0,0,0,.129,1.613H13.839a4.839,4.839,0,0,1,0-9.677h1.823a5.9,5.9,0,0,0-.21,1.613Z" transform="translate(-9 -13)" fill="#f0d0b4"/>
        </g>
        <g id="Grupo_83912" data-name="Grupo 83912" transform="translate(46.806 40.323)">
          <path id="Trazado_147053" data-name="Trazado 147053" d="M63.246,51.194l-.29,1.726a9.5,9.5,0,0,1-9.387,7.952l-1.855-4.629-1.371-3.435L49,53.484a9.049,9.049,0,0,1-4,.935,8.466,8.466,0,0,1-2.726-.435,8.788,8.788,0,0,1-5.194-4.4h-.016a9.006,9.006,0,0,1-.871-2.629l-.371-2.21H32.6c-1.21-3.629-1.516-9.968-1.581-12.919v-.016a1.384,1.384,0,0,0,.371.032,6.033,6.033,0,0,0,2.323-.468l5.919-2.548,3.516-1.5A3.905,3.905,0,0,1,48.2,29.161l2.145,4.29.516-1.016a3.978,3.978,0,0,1,3.565-2.21,3.965,3.965,0,0,1,3.984,3.984,9.839,9.839,0,0,1-2.887,6.968l-.339.339,5.1,6.113Z" transform="translate(-31.02 -27)" fill="#f0d0b4"/>
        </g>
      </g>
      <g id="Grupo_83914" data-name="Grupo 83914" transform="translate(1 1)">
        <circle id="Elipse_4134" data-name="Elipse 4134" cx="1.613" cy="1.613" r="1.613" transform="translate(24.194 22.581)"/>
        <circle id="Elipse_4135" data-name="Elipse 4135" cx="1.613" cy="1.613" r="1.613" transform="translate(33.871 22.581)"/>
        <path id="Trazado_147054" data-name="Trazado 147054" d="M28.5,20.336l.169-.34-2.885-1.444-.169.342a3.607,3.607,0,0,1-6.452,0l-.169-.34L16.106,20l.169.34a6.833,6.833,0,0,0,12.223,0Z" transform="translate(8.259 9.758)"/>
        <path id="Trazado_147055" data-name="Trazado 147055" d="M23,51h3.226v3.226H23Z" transform="translate(12.484 29.645)"/>
        <path id="Trazado_147056" data-name="Trazado 147056" d="M23,55h3.226v3.226H23Z" transform="translate(12.484 32.097)"/>
        <path id="Trazado_147057" data-name="Trazado 147057" d="M87.756,66.6l-5.245-.953-1.781-2.135.9-1.2a16.2,16.2,0,0,0,1.748-16.5L78.189,34.555a13.335,13.335,0,0,0-16.9-6.86l-15.574,5.99a6.854,6.854,0,0,0-3.673,9.465l.142.284-2.8-.35-.932-3.731a12.933,12.933,0,0,0,5.663-7.71h.424A6.458,6.458,0,0,0,51,25.192a6.38,6.38,0,0,0-1.315-3.86l.592-1.773A14.1,14.1,0,0,0,36.9,1H15.516a6.424,6.424,0,0,0-4.169,11.334,10.558,10.558,0,0,0,1.11,9.565l.424.635a6.386,6.386,0,0,0-.59,2.66,6.458,6.458,0,0,0,6.452,6.452h.424a12.921,12.921,0,0,0,5.663,7.71L23.9,43.085l-8.274,1.034A16.693,16.693,0,0,0,1,60.684V101H101V82.469A16.124,16.124,0,0,0,87.756,66.6ZM59.065,97.774H52.613V65.516H49.387V97.774H33.258V75.99a23.268,23.268,0,0,0,9.677-18.879V46.779l1.321.165a7.417,7.417,0,0,0,3.589,2.182c.135,3.518.524,8.758,1.626,12.063l.366,1.1H52.86l.144.865A10.488,10.488,0,0,0,59.065,71ZM23.581,56.835l2.552-1.276,2.134,2.347-2.132,8.96a20.064,20.064,0,0,1-2.553-9.755ZM31.645,52.8l2.515,1.258-1.616,1.777h-1.8l-1.616-1.777Zm5.513,14.063-2.132-8.96L37.16,55.56l2.55,1.276v.276a20.08,20.08,0,0,1-2.552,9.755Zm-5.852-7.8h.677l2.7,11.323a20.094,20.094,0,0,1-3.035,2.832,20.171,20.171,0,0,1-3.035-2.832ZM62.185,44.735a2.342,2.342,0,0,1,2.971,1.087l3.585,7.169L70.7,49.085a2.374,2.374,0,0,1,4.5,1.063,8.173,8.173,0,0,1-2.411,5.819L71.4,57.352l8.534,10.242-.166.992a7.879,7.879,0,0,1-6.735,6.537l-2.24-5.6,1.9-.948-1.444-2.885-4.566,2.282a7.3,7.3,0,0,1-7.848-.84,8.677,8.677,0,0,0,8.215-5.939l-3.06-1.021A5.457,5.457,0,0,1,58.8,63.9H56.518a7.443,7.443,0,0,1-.332-1.279l-.594-3.56H52.213a55.261,55.261,0,0,1-1.134-9.808,7.393,7.393,0,0,0,1.665-.476Zm.1,27.132a10.209,10.209,0,0,0,1.116.1,10.585,10.585,0,0,0,4.482-1.013l.321.8a28.448,28.448,0,0,0-5.921,7.776V71.868Zm7.21,3.111.731,1.827-2.253,5.631a7.066,7.066,0,0,1-2-2.942A25.272,25.272,0,0,1,69.5,74.979Zm12.1-2.1a14.6,14.6,0,0,1-4.387,9.527l-2.59-4.316A11.082,11.082,0,0,0,81.6,72.882ZM46.876,36.7l15.574-5.99a10.11,10.11,0,0,1,12.81,5.2l5.192,11.248a12.973,12.973,0,0,1-1.4,13.218l-.444.592-2.873-3.447a11.371,11.371,0,0,0,2.684-7.369,5.6,5.6,0,0,0-9.5-4.021l-.874-1.747a5.532,5.532,0,0,0-7.126-2.611l-.258.111a5.59,5.59,0,0,0-10.589-2.3L49.558,40.6l2.885,1.444.511-1.023a2.362,2.362,0,1,1,4.018,2.439l-5.5,2.356a4.265,4.265,0,0,1-5.5-2.011l-1.047-2.1A3.63,3.63,0,0,1,46.876,36.7ZM39.71,46.376v6.853l-5.342-2.671,4.311-4.311Zm4.839-17.956V21.968a3.226,3.226,0,1,1,0,6.452ZM15.516,25.194a3.229,3.229,0,0,1,3.226-3.226v6.452A3.229,3.229,0,0,1,15.516,25.194Zm3.91-6.452h-.684a6.412,6.412,0,0,0-3.7,1.185,7.236,7.236,0,0,1-.771-6.152,6.392,6.392,0,0,0,1.25.127,6.458,6.458,0,0,0,6.452-6.452H18.742a3.226,3.226,0,1,1-3.226-3.226H36.9A10.875,10.875,0,0,1,47.216,18.54l-.229.687a6.429,6.429,0,0,0-2.439-.485h-.684A8.069,8.069,0,0,0,36.484,13.9H26.806A8.069,8.069,0,0,0,19.426,18.742Zm2.542,9.677V21.968a4.845,4.845,0,0,1,4.839-4.839h9.677a4.845,4.845,0,0,1,4.839,4.839v6.452a9.677,9.677,0,0,1-19.355,0Zm9.677,12.9a12.9,12.9,0,0,0,3.837-.582l.829,3.315-4.666,4.665-4.666-4.666.829-3.315A12.844,12.844,0,0,0,31.645,41.323Zm-7.034,4.924,4.311,4.311-5.342,2.671V46.376ZM4.226,60.684a13.468,13.468,0,0,1,11.8-13.365l4.332-.54V57.111A23.268,23.268,0,0,0,30.032,75.99V97.774H13.9V65.516H10.677V97.774H4.226Zm93.548,37.09H88.1V91.7a13.723,13.723,0,0,1,1.444-6.111l-2.885-1.444A16.975,16.975,0,0,0,84.871,91.7v6.071H62.29V92.629A25.244,25.244,0,0,1,64.231,83a10.227,10.227,0,0,0,3.789,3.319l1.568.784,2.669-6.673,4.085,6.81,1.432-1.074a17.826,17.826,0,0,0,7.1-14.194V69.355l2.308.419a12.9,12.9,0,0,1,10.6,12.7Z" transform="translate(-1 -1)"/>
        <path id="Trazado_147058" data-name="Trazado 147058" d="M43.065,32H39.839a3.229,3.229,0,0,1-3.226,3.226H35v3.226h1.613A6.458,6.458,0,0,0,43.065,32Z" transform="translate(19.839 18)"/>
        <path id="Trazado_147059" data-name="Trazado 147059" d="M40,9h3.226v9.677H40Z" transform="translate(22.903 3.903)"/>
        <path id="Trazado_147060" data-name="Trazado 147060" d="M0,0H11.4V3.226H0Z" transform="translate(73.042 23.06) rotate(-45)"/>
        <path id="Trazado_147061" data-name="Trazado 147061" d="M51,19h9.677v3.226H51Z" transform="translate(29.645 10.032)"/>
      </g>
    </g>
  </g>
</svg>
