<svg xmlns="http://www.w3.org/2000/svg" width="298" height="145" viewBox="0 0 298 145">
  <g id="Grupo_84689" data-name="Grupo 84689" transform="translate(-650 -4232)">
    <rect id="Rectángulo_31068" data-name="Rectángulo 31068" width="298" height="145" rx="20" transform="translate(650 4232)" fill="#fff1db"/>
    <g id="leer" transform="translate(706.531 4255)">
      <path id="Trazado_146904" data-name="Trazado 146904" d="M391.38,241.529h-.867l1.311-17.8h4.709a6,6,0,0,1,6,6v.656A11.148,11.148,0,0,1,391.38,241.529Z" transform="translate(-272.02 -180.033)" fill="#ffd494"/>
      <path id="Trazado_146905" data-name="Trazado 146905" d="M71.117,241.529h.868l-1.311-17.8H65.965a6,6,0,0,0-6,6v.656A11.148,11.148,0,0,0,71.117,241.529Z" transform="translate(-6.035 -180.033)" fill="#ffd494"/>
      <path id="Trazado_146906" data-name="Trazado 146906" d="M167.472,426.747v-5.1c-5,3.422-10.527,5.382-14.27,5.382s-9.268-1.96-14.27-5.382v5.1a7.392,7.392,0,0,1-4.195,6.665l-6.031,2.894a.8.8,0,0,0,.346,1.521h48.3a.8.8,0,0,0,.346-1.521l-6.031-2.894A7.392,7.392,0,0,1,167.472,426.747Z" transform="translate(-60.98 -339.292)" fill="#ffd494"/>
      <path id="Trazado_146907" data-name="Trazado 146907" d="M168.492,74.585a28.021,28.021,0,1,0-55.891,0l1.905,25.871c1,13.639,17.82,23.092,26.04,23.092s25.036-9.452,26.04-23.092l1.905-25.871Z" transform="translate(-48.325 -35.813)" fill="#ffd494"/>
      <path id="Trazado_146909" data-name="Trazado 146909" d="M207.411,64.494H176.264V32.5a4.883,4.883,0,0,0,4.883,4.883h26.264Z" transform="translate(-99.616 -26.152)" fill="#ffee58"/>
      <path id="Trazado_146910" data-name="Trazado 146910" d="M207.411,17.266H181.147a4.883,4.883,0,1,1,0-9.766h26.264Z" transform="translate(-99.616 -6.035)" fill="#f1f4f6"/>
      <path id="Trazado_146911" data-name="Trazado 146911" d="M228.085,99.22H211.917a.654.654,0,0,1-.654-.654V93.154a.654.654,0,0,1,.654-.654h16.168a.654.654,0,0,1,.654.654v5.412A.654.654,0,0,1,228.085,99.22Z" transform="translate(-127.779 -74.434)" fill="#f1f4f6"/>
      <path id="Trazado_146912" data-name="Trazado 146912" d="M148.624,107.924a21.9,21.9,0,0,0-5.879,13.538,2.978,2.978,0,0,0,2.971,3.174h3.57v-17.4Q148.949,107.574,148.624,107.924Z" transform="translate(-72.639 -86.295)" fill="#ff9800"/>
      <path id="Trazado_146913" data-name="Trazado 146913" d="M342.278,121.462a21.9,21.9,0,0,0-5.879-13.538q-.326-.35-.663-.684v17.4h3.57A2.978,2.978,0,0,0,342.278,121.462Z" transform="translate(-227.942 -86.295)" fill="#9dc6fb"/>
      <path id="Trazado_146916" data-name="Trazado 146916" d="M342.278,121.462a21.9,21.9,0,0,0-5.879-13.538q-.326-.35-.663-.684v6.15a21.961,21.961,0,0,1,.682,4.167,2.961,2.961,0,0,1-.682,2.1v4.98h3.57A2.978,2.978,0,0,0,342.278,121.462Z" transform="translate(-227.942 -86.295)" fill="#ff9800"/>
      <g id="Grupo_83851" data-name="Grupo 83851" transform="translate(52.469 0)">
        <path id="Trazado_146917" data-name="Trazado 146917" d="M124.513,42.232h-3.132l.247-3.353A29.573,29.573,0,0,0,109.26,12.644V1.465A1.465,1.465,0,0,0,107.795,0H81.531a6.355,6.355,0,0,0-6.348,6.348v6.3A29.573,29.573,0,0,0,62.815,38.879l.247,3.353H59.929a7.469,7.469,0,0,0-7.46,7.46v.656a12.628,12.628,0,0,0,12.119,12.6l.132,1.8c.56,7.607,5.707,14.013,11.766,18.357v4.347A5.958,5.958,0,0,1,73.123,92.8l-6.031,2.894a2.265,2.265,0,0,0,.98,4.307h48.3a2.265,2.265,0,0,0,.98-4.307L111.32,92.8a5.959,5.959,0,0,1-3.363-5.344V83.116a30.934,30.934,0,0,0,9.309-10.174,1.465,1.465,0,0,0-2.58-1.388C109.85,80.537,98.151,86.27,92.221,86.27c-8.5,0-23.7-9.738-24.579-21.735-.143-1.937.139,1.892-1.905-25.871a26.639,26.639,0,0,1,9.446-22.322v4a23.3,23.3,0,0,0-6.538,14.725,4.446,4.446,0,0,0,4.433,4.736h38.287a4.446,4.446,0,0,0,4.433-4.736,23.613,23.613,0,0,0-.393-3,1.465,1.465,0,0,0-2.874.567,20.654,20.654,0,0,1,.344,2.623,1.511,1.511,0,0,1-1.51,1.612h-2.1V24.952q.544.782,1.011,1.6a1.465,1.465,0,1,0,2.548-1.446,23.989,23.989,0,0,0-3.56-4.766v-4a26.639,26.639,0,0,1,9.446,22.322c-2.383,32.353-1.46,19.665-1.674,22.725-.248,3.371-.248,3.523-.35,4.239a1.465,1.465,0,1,0,2.9.414c.113-.787.125-1.09.272-3.09a12.628,12.628,0,0,0,12.119-12.6v-.656a7.469,7.469,0,0,0-7.46-7.461ZM105.027,85.014v2.441a8.9,8.9,0,0,0,5.026,7.986l3.4,1.63H70.994l3.4-1.63a8.9,8.9,0,0,0,5.026-7.986V85.011c4.569,2.68,9.314,4.188,12.805,4.188C95.778,89.2,100.537,87.64,105.027,85.014ZM55.4,50.349v-.656a4.536,4.536,0,0,1,4.531-4.531h3.348l1.093,14.844A9.7,9.7,0,0,1,55.4,50.349ZM81.531,2.93h24.8V4.687h-24.8a1.465,1.465,0,1,0,0,2.93h24.8V9.766h-24.8a3.418,3.418,0,1,1,0-6.836ZM76.648,31.413a1.465,1.465,0,0,0-1.465,1.465v4H73.078a1.512,1.512,0,0,1-1.51-1.612,20.264,20.264,0,0,1,3.615-10.316v1.093a1.465,1.465,0,1,0,2.93,0V11.694a6.31,6.31,0,0,0,3.418,1h24.8V36.876H78.113v-4a1.465,1.465,0,0,0-1.465-1.465Zm52.4,18.935a9.7,9.7,0,0,1-8.972,9.657l1.093-14.844h3.348a4.536,4.536,0,0,1,4.531,4.531v.656Z" transform="translate(-52.469 0)" fill="#222221"/>
        <path id="Trazado_146918" data-name="Trazado 146918" d="M183.367,239.753a1.465,1.465,0,0,0-1.465-1.465H170.229a1.465,1.465,0,0,0,0,2.93H181.9A1.465,1.465,0,0,0,183.367,239.753Z" transform="translate(-146.05 -191.747)" fill="#222221"/>
        <path id="Trazado_146919" data-name="Trazado 146919" d="M267,239.753a1.465,1.465,0,0,0-1.465-1.465h-7.772a5.372,5.372,0,0,0-5.366,5.366v7.686a2.439,2.439,0,0,1-2.436,2.436,1.465,1.465,0,0,0,0,2.93,5.372,5.372,0,0,0,5.366-5.366v-7.686a2.439,2.439,0,0,1,2.436-2.436h7.772A1.465,1.465,0,0,0,267,239.753Z" transform="translate(-210.213 -191.747)" fill="#222221"/>
        <path id="Trazado_146920" data-name="Trazado 146920" d="M205.883,94.649H222.05a2.121,2.121,0,0,0,2.119-2.119V87.119A2.121,2.121,0,0,0,222.05,85H205.883a2.121,2.121,0,0,0-2.119,2.119v5.412A2.121,2.121,0,0,0,205.883,94.649Zm.811-6.72h14.546v3.79H206.694Z" transform="translate(-174.214 -68.398)" fill="#222221"/>
        <path id="Trazado_146921" data-name="Trazado 146921" d="M228.508,153.4H214.753a1.465,1.465,0,0,0,0,2.93h13.755a1.465,1.465,0,0,0,0-2.93Z" transform="translate(-181.878 -123.442)" fill="#222221"/>
        <path id="Trazado_146922" data-name="Trazado 146922" d="M200.4,371.4l1.226.615a20.123,20.123,0,0,0,17.965,0l1.226-.615a1.465,1.465,0,1,0-1.314-2.619l-1.226.615a17.18,17.18,0,0,1-15.338,0l-1.226-.615A1.465,1.465,0,0,0,200.4,371.4Z" transform="translate(-170.858 -296.628)" fill="#222221"/>
      </g>
    </g>
  </g>
</svg>
