<svg xmlns="http://www.w3.org/2000/svg" width="191" height="191" viewBox="0 0 191 191">
  <g id="Grupo_84692" data-name="Grupo 84692" transform="translate(-495 -6058)">
    <circle id="Elipse_4056" data-name="Elipse 4056" cx="95.5" cy="95.5" r="95.5" transform="translate(495 6058)" fill="#fff1db"/>
    <g id="revision" transform="translate(524 6076.039)">
      <path id="Trazado_145693" data-name="Trazado 145693" d="M37.75,410h-.417v-5a5,5,0,0,0-5-5H29a5,5,0,0,0-5,5v13.333H44V416.25A6.25,6.25,0,0,0,37.75,410Z" transform="translate(-6.333 -304.001)" fill="#ff9800"/>
      <path id="Trazado_145694" data-name="Trazado 145694" d="M398.25,410h.417v-5a5,5,0,0,1,5-5H407a5,5,0,0,1,5,5v13.333H392V416.25A6.25,6.25,0,0,1,398.25,410Z" transform="translate(-297.667 -304.001)" fill="#ff9800"/>
      <path id="Trazado_145695" data-name="Trazado 145695" d="M0,0H56.667V48.333H0Z" transform="translate(94.333 114.333) rotate(180)" fill="#ffb74d"/>
      <path id="Trazado_145696" data-name="Trazado 145696" d="M120,456h15v6.667H120Z" transform="translate(-82.333 -348.334)" fill="#ffd494"/>
      <path id="Trazado_145697" data-name="Trazado 145697" d="M320,456h15v6.667H320Z" transform="translate(-240.667 -348.334)" fill="#ffd494"/>
      <g id="Grupo_83570" data-name="Grupo 83570" transform="translate(52.667 55.999)">
        <path id="Trazado_145698" data-name="Trazado 145698" d="M192,208h26.667v58.333H192Z" transform="translate(-192 -208)" fill="#ff9800"/>
        <path id="Trazado_145699" data-name="Trazado 145699" d="M232,424h10v13.333H232Z" transform="translate(-223.667 -379)" fill="#111e61"/>
      </g>
      <path id="Trazado_145700" data-name="Trazado 145700" d="M198.568,24l4.671,9.464,10.444,1.517-7.558,7.367,1.784,10.4-9.341-4.911-9.341,4.911,1.784-10.4-7.557-7.367L193.9,33.464Z" transform="translate(-132.567 -6.334)" fill="#ffee58"/>
      <path id="Trazado_145701" data-name="Trazado 145701" d="M201.575,48.083a1.666,1.666,0,0,1-.775-.191l-8.567-4.5-8.566,4.5a1.667,1.667,0,0,1-2.418-1.757l1.636-9.538-6.929-6.755A1.667,1.667,0,0,1,176.879,27l9.577-1.391,4.284-8.678a1.667,1.667,0,0,1,2.989,0l4.283,8.678L207.588,27a1.667,1.667,0,0,1,.924,2.843l-6.93,6.755,1.636,9.538a1.667,1.667,0,0,1-1.643,1.949Zm-9.342-8.244a1.665,1.665,0,0,1,.776.191l6.352,3.34L198.15,36.3a1.667,1.667,0,0,1,.479-1.475l5.138-5.009-7.1-1.032a1.667,1.667,0,0,1-1.255-.912l-3.177-6.436-3.176,6.435a1.666,1.666,0,0,1-1.255.912l-7.1,1.032,5.139,5.01a1.667,1.667,0,0,1,.479,1.475l-1.213,7.073,6.352-3.34a1.665,1.665,0,0,1,.775-.192Z" transform="translate(-126.233)"/>
      <g id="Grupo_83571" data-name="Grupo 83571" transform="translate(17.667 35.999)">
        <path id="Trazado_145702" data-name="Trazado 145702" d="M346.485,112l3.24,6.565,7.245,1.053-5.242,5.11,1.238,7.216-6.48-3.407L340,131.943l1.238-7.216L336,119.617l7.245-1.053Z" transform="translate(-271 -112)" fill="#ffee58"/>
        <path id="Trazado_145703" data-name="Trazado 145703" d="M426.163,216l2.222,4.5,4.968.722-3.6,3.5.849,4.948-4.444-2.336-4.444,2.336.849-4.948-3.6-3.5,4.968-.722Z" transform="translate(-336.687 -194.333)" fill="#ffee58"/>
        <path id="Trazado_145704" data-name="Trazado 145704" d="M85.832,112l-3.24,6.565-7.245,1.053,5.242,5.11-1.237,7.216,6.48-3.407,6.48,3.407-1.237-7.216,5.242-5.11-7.245-1.053Z" transform="translate(-64.65 -112)" fill="#ffee58"/>
        <path id="Trazado_145705" data-name="Trazado 145705" d="M31.19,216l-2.222,4.5L24,221.224l3.6,3.5-.849,4.948,4.444-2.336,4.444,2.336-.849-4.948,3.6-3.5-4.968-.722Z" transform="translate(-24 -194.333)" fill="#ffee58"/>
        <path id="Trazado_145706" data-name="Trazado 145706" d="M224,184h13.333v10H224Z" transform="translate(-182.333 -169)" fill="#ffee58"/>
      </g>
      <g id="Grupo_83572" data-name="Grupo 83572" transform="translate(16 34.333)">
        <path id="Trazado_145707" data-name="Trazado 145707" d="M216,320h3.333v3.333H216Z" transform="translate(-174.333 -275)"/>
        <path id="Trazado_145708" data-name="Trazado 145708" d="M248,320h3.333v3.333H248Z" transform="translate(-199.667 -275)"/>
        <path id="Trazado_145709" data-name="Trazado 145709" d="M280,320h3.333v3.333H280Z" transform="translate(-225 -275)"/>
        <path id="Trazado_145710" data-name="Trazado 145710" d="M216,352h3.333v3.333H216Z" transform="translate(-174.333 -300.333)"/>
        <path id="Trazado_145711" data-name="Trazado 145711" d="M248,352h3.333v3.333H248Z" transform="translate(-199.667 -300.333)"/>
        <path id="Trazado_145712" data-name="Trazado 145712" d="M280,352h3.333v3.333H280Z" transform="translate(-225 -300.333)"/>
        <path id="Trazado_145713" data-name="Trazado 145713" d="M216,384h3.333v3.333H216Z" transform="translate(-174.333 -325.667)"/>
        <path id="Trazado_145714" data-name="Trazado 145714" d="M248,384h3.333v3.333H248Z" transform="translate(-199.667 -325.667)"/>
        <path id="Trazado_145715" data-name="Trazado 145715" d="M280,384h3.333v3.333H280Z" transform="translate(-225 -325.667)"/>
        <path id="Trazado_145716" data-name="Trazado 145716" d="M216,256h3.333v3.333H216Z" transform="translate(-174.333 -224.333)"/>
        <path id="Trazado_145717" data-name="Trazado 145717" d="M248,256h3.333v3.333H248Z" transform="translate(-199.667 -224.333)"/>
        <path id="Trazado_145718" data-name="Trazado 145718" d="M280,256h3.333v3.333H280Z" transform="translate(-225 -224.333)"/>
        <path id="Trazado_145719" data-name="Trazado 145719" d="M216,288h3.333v3.333H216Z" transform="translate(-174.333 -249.667)"/>
        <path id="Trazado_145720" data-name="Trazado 145720" d="M248,288h3.333v3.333H248Z" transform="translate(-199.667 -249.667)"/>
        <path id="Trazado_145721" data-name="Trazado 145721" d="M280,288h3.333v3.333H280Z" transform="translate(-225 -249.667)"/>
        <path id="Trazado_145722" data-name="Trazado 145722" d="M328.5,114.478l4.615,4.5-1.089,6.352a1.667,1.667,0,0,0,2.418,1.757l5.7-3,5.7,3a1.667,1.667,0,0,0,2.418-1.757l-1.09-6.352,4.615-4.5a1.667,1.667,0,0,0-.924-2.843l-6.378-.926-2.852-5.779a1.667,1.667,0,0,0-2.989,0l-2.852,5.779-6.377.927a1.667,1.667,0,0,0-.924,2.843Zm8.648-.6a1.667,1.667,0,0,0,1.255-.912l1.745-3.537,1.745,3.537a1.667,1.667,0,0,0,1.255.912l3.9.567L344.23,117.2a1.667,1.667,0,0,0-.479,1.475l.667,3.887-3.491-1.835a1.667,1.667,0,0,0-1.551,0l-3.491,1.835.667-3.887a1.667,1.667,0,0,0-.479-1.475l-2.824-2.753Z" transform="translate(-263 -104)"/>
        <path id="Trazado_145723" data-name="Trazado 145723" d="M412.4,213.242a1.667,1.667,0,0,0-.924,2.843l2.968,2.893-.7,4.085a1.667,1.667,0,0,0,2.418,1.757l3.668-1.929,3.668,1.929a1.667,1.667,0,0,0,2.418-1.757l-.7-4.085,2.968-2.895a1.667,1.667,0,0,0-.924-2.843l-4.1-.595-1.833-3.716a1.667,1.667,0,0,0-2.989,0l-1.833,3.716Zm6.7,1.665.727-1.474.727,1.474a1.667,1.667,0,0,0,1.254.912l1.626.236-1.177,1.147a1.667,1.667,0,0,0-.479,1.475l.278,1.62-1.455-.765a1.667,1.667,0,0,0-1.551,0l-1.455.765.278-1.62a1.667,1.667,0,0,0-.479-1.475l-1.177-1.147,1.626-.236A1.667,1.667,0,0,0,419.1,214.907Z" transform="translate(-328.687 -186.334)"/>
        <path id="Trazado_145724" data-name="Trazado 145724" d="M67.852,114.479l4.615,4.5-1.09,6.352a1.667,1.667,0,0,0,2.418,1.757l5.7-3,5.7,3a1.667,1.667,0,0,0,2.418-1.757l-1.089-6.352,4.615-4.5a1.667,1.667,0,0,0-.924-2.843l-6.377-.926-2.852-5.779a1.667,1.667,0,0,0-2.989,0l-2.852,5.779-6.377.926a1.667,1.667,0,0,0-.924,2.843Zm8.648-.6a1.667,1.667,0,0,0,1.255-.912l1.745-3.537,1.745,3.537a1.667,1.667,0,0,0,1.255.912l3.9.567L83.579,117.2a1.667,1.667,0,0,0-.479,1.475l.667,3.887-3.491-1.835a1.668,1.668,0,0,0-1.551,0l-3.49,1.835.667-3.887a1.667,1.667,0,0,0-.479-1.475L72.6,114.449Z" transform="translate(-56.652 -104.001)"/>
        <path id="Trazado_145725" data-name="Trazado 145725" d="M16.506,216.084l2.968,2.894-.7,4.085a1.667,1.667,0,0,0,2.418,1.757l3.668-1.928,3.668,1.929a1.667,1.667,0,0,0,2.418-1.757l-.7-4.085,2.968-2.894a1.667,1.667,0,0,0-.924-2.843l-4.1-.595-1.833-3.717a1.667,1.667,0,0,0-2.989,0l-1.833,3.717-4.1.6a1.667,1.667,0,0,0-.924,2.842Zm6.372-.265a1.667,1.667,0,0,0,1.255-.912l.728-1.474.727,1.474a1.667,1.667,0,0,0,1.255.912l1.626.236L27.292,217.2a1.667,1.667,0,0,0-.479,1.475l.278,1.62-1.455-.765a1.667,1.667,0,0,0-1.551,0l-1.455.765.278-1.62a1.667,1.667,0,0,0-.479-1.475l-1.177-1.147Z" transform="translate(-16.003 -186.334)"/>
        <path id="Trazado_145726" data-name="Trazado 145726" d="M144,288h5v3.333h-5Z" transform="translate(-117.333 -249.667)"/>
        <path id="Trazado_145727" data-name="Trazado 145727" d="M144,328h5v3.333h-5Z" transform="translate(-117.333 -281.333)"/>
        <path id="Trazado_145728" data-name="Trazado 145728" d="M144,368h5v3.333h-5Z" transform="translate(-117.333 -313)"/>
        <path id="Trazado_145729" data-name="Trazado 145729" d="M144,408h5v3.333h-5Z" transform="translate(-117.333 -344.667)"/>
        <path id="Trazado_145730" data-name="Trazado 145730" d="M109.333,221H106a6.674,6.674,0,0,0-6.667,6.667V231.1A7.875,7.875,0,0,0,96,232.465v-8.132H92.667v8.333H81V194.333H92.667V221H96V192.667A1.667,1.667,0,0,0,94.333,191H81v-8.333A1.667,1.667,0,0,0,79.333,181h-5v-3.333A1.667,1.667,0,0,0,72.667,176H59.333a1.667,1.667,0,0,0-1.667,1.667V181h-5A1.667,1.667,0,0,0,51,182.667V191H37.667A1.667,1.667,0,0,0,36,192.667v10h3.333v-8.333H51v38.333H39.333V206H36v26.465a7.875,7.875,0,0,0-3.333-1.366v-3.432A6.674,6.674,0,0,0,26,221H22.667A6.674,6.674,0,0,0,16,227.667V241a1.667,1.667,0,0,0,1.667,1.667h96.667A1.667,1.667,0,0,0,116,241V227.667A6.674,6.674,0,0,0,109.333,221ZM61,179.333H71V186H61ZM19.333,227.667a3.337,3.337,0,0,1,3.333-3.333H26a3.337,3.337,0,0,1,3.333,3.333V231.1a7.929,7.929,0,0,0-6.667,7.818v.417H19.333ZM26,239.333v-.417a4.589,4.589,0,0,1,4.583-4.583h.833A4.589,4.589,0,0,1,36,238.917v.417ZM39.333,236H51v3.333H39.333Zm15-51.667h3.333v3.333a1.667,1.667,0,0,0,1.667,1.667H72.667a1.667,1.667,0,0,0,1.667-1.667v-3.333h3.333v55h-5V227.667A1.667,1.667,0,0,0,71,226H61a1.667,1.667,0,0,0-1.667,1.667v11.667h-5Zm8.333,55v-10h6.667v10ZM81,236H92.667v3.333H81Zm15,3.333v-.417a4.589,4.589,0,0,1,4.583-4.583h.833A4.589,4.589,0,0,1,106,238.917v.417Zm16.667,0h-3.333v-.417a7.929,7.929,0,0,0-6.667-7.818v-3.432A3.337,3.337,0,0,1,106,224.333h3.333a3.337,3.337,0,0,1,3.333,3.333Z" transform="translate(-16 -161)"/>
        <path id="Trazado_145731" data-name="Trazado 145731" d="M344,368h5v3.333h-5Z" transform="translate(-275.667 -313)"/>
        <path id="Trazado_145732" data-name="Trazado 145732" d="M344,408h5v3.333h-5Z" transform="translate(-275.667 -344.667)"/>
        <path id="Trazado_145733" data-name="Trazado 145733" d="M344,288h5v3.333h-5Z" transform="translate(-275.667 -249.667)"/>
        <path id="Trazado_145734" data-name="Trazado 145734" d="M344,328h5v3.333h-5Z" transform="translate(-275.667 -281.333)"/>
      </g>
    </g>
  </g>
</svg>
