<svg xmlns="http://www.w3.org/2000/svg" xmlns:xlink="http://www.w3.org/1999/xlink" width="400" height="420" viewBox="0 0 400 420">
  <defs>
    <clipPath id="clip-path">
      <rect width="400" height="420" fill="none"/>
    </clipPath>
  </defs>
  <g id="Cuadrícula_de_repetición_1" data-name="Cuadrícula de repetición 1" clip-path="url(#clip-path)">
    <g id="Grupo_84688" data-name="Grupo 84688" transform="translate(-180 -2792)">
      <rect id="Rectángulo_31926" data-name="Rectángulo 31926" width="400" height="420" rx="21" transform="translate(180 2792)" fill="#fff1db" opacity="0.897"/>
      <g id="XMLID_1459_" transform="translate(301.5 2937)">
        <path id="XMLID_1701_" d="M95.553,20.105a5.053,5.053,0,1,1,5.053-5.053A5.053,5.053,0,0,1,95.553,20.105Z" transform="translate(-53.81 -7.474)" fill="#ccf5fc"/>
        <path id="XMLID_1700_" d="M199.553,20.105a5.053,5.053,0,1,0-5.053-5.053A5.053,5.053,0,0,0,199.553,20.105Z" transform="translate(-131.537 -7.474)" fill="#ccf5fc"/>
        <circle id="XMLID_674_" cx="10.105" cy="10.105" r="10.105" transform="translate(115.763 88)" fill="#ff9800"/>
        <path id="XMLID_1657_" d="M213.241,235.729V215.856a8.084,8.084,0,0,0-16.168,0V247.1a27.453,27.453,0,1,1-54.905,0v-5.6h10.105v5.6a17.347,17.347,0,1,0,34.695,0V215.856a18.19,18.19,0,1,1,36.379,0v19.874Z" transform="translate(-92.425 -147.729)" fill="#ffee58"/>
        <path id="XMLID_1626_" d="M90.648,125a5.558,5.558,0,0,0-5.558,5.558v11.621a22.738,22.738,0,1,1-45.474-.29V130.558a5.558,5.558,0,1,0-11.116,0v11.249A34.193,34.193,0,0,0,56.794,175.57v11.115H67.911V175.573a33.906,33.906,0,0,0,28.294-33.394V130.558A5.558,5.558,0,0,0,90.648,125Z" transform="translate(-7.474 -93.421)" fill="#ff9800"/>
        <g id="XMLID_426_" transform="translate(18.5 0)">
          <path id="XMLID_1157_" d="M133.447,88.007s0,0,0-.007V68.127a20.716,20.716,0,1,0-41.432,0V99.369a14.821,14.821,0,1,1-29.642,0V94.885a2.515,2.515,0,0,0,.59-1.621V84.229A36.438,36.438,0,0,0,91.258,48.758V37.137A8.1,8.1,0,0,0,85.7,29.459V17.684A12.649,12.649,0,0,0,75.224,5.24a7.581,7.581,0,1,0-.165,5.132,7.592,7.592,0,0,1,5.588,7.312V29.459a8.1,8.1,0,0,0-5.558,7.678V48.758a20.065,20.065,0,0,1-6,14.353A20.3,20.3,0,0,1,54.78,68.968h0a20.506,20.506,0,0,1-20.111-20.5V37.137a8.1,8.1,0,0,0-5.558-7.678V17.684A7.592,7.592,0,0,1,34.7,10.372a7.577,7.577,0,1,0-.165-5.132A12.649,12.649,0,0,0,24.058,17.684V29.459A8.1,8.1,0,0,0,18.5,37.137V48.386a36.981,36.981,0,0,0,8.7,23.82,36.383,36.383,0,0,0,19.59,12.015v9.042a2.513,2.513,0,0,0,.422,1.4v4.709a29.982,29.982,0,0,0,40.81,27.955,2.526,2.526,0,0,0-1.831-4.709A24.928,24.928,0,0,1,52.269,99.369V95.79h5.053v3.579a19.874,19.874,0,1,0,39.747,0V68.127a15.663,15.663,0,1,1,31.326,0v17.6a12.683,12.683,0,0,0-5.053,0v-17.6a10.611,10.611,0,1,0-21.221,0V99.369a24.745,24.745,0,0,1-1.668,8.968,2.526,2.526,0,1,0,4.712,1.823,29.782,29.782,0,0,0,2.009-10.792V68.127a5.558,5.558,0,1,1,11.116,0V88s0,0,0,.007a12.631,12.631,0,1,0,15.158,0Zm-65.431-77.9a2.526,2.526,0,1,1,2.526-2.526A2.529,2.529,0,0,1,68.016,10.105ZM41.742,5.053a2.526,2.526,0,1,1-2.526,2.526A2.529,2.529,0,0,1,41.742,5.053ZM23.553,48.386V37.137a3.032,3.032,0,1,1,6.063,0V48.468A25.489,25.489,0,0,0,54.63,74.02,25.288,25.288,0,0,0,80.142,48.758V37.137a3.032,3.032,0,0,1,6.063,0V48.758a31.214,31.214,0,0,1-26.182,30.9,2.526,2.526,0,0,0-2.113,2.492v8.585H51.847V82.148a2.527,2.527,0,0,0-2.109-2.492c-14.928-2.5-26.185-15.943-26.185-31.271Zm102.316,57.3a7.579,7.579,0,1,1,7.579-7.579A7.588,7.588,0,0,1,125.869,105.684Z" transform="translate(-18.5 0)"/>
          <path id="XMLID_1166_" d="M436.026,378.33a2.528,2.528,0,1,0,1.786.74A2.545,2.545,0,0,0,436.026,378.33Z" transform="translate(-328.658 -282.752)"/>
          <path id="XMLID_1167_" d="M320.166,460.14a2.523,2.523,0,1,0,1.786.738A2.554,2.554,0,0,0,320.166,460.14Z" transform="translate(-242.068 -343.894)"/>
        </g>
      </g>
    </g>
  </g>
</svg>
