<svg xmlns="http://www.w3.org/2000/svg" width="400" height="420" viewBox="0 0 400 420">
  <g id="Grupo_84692" data-name="Grupo 84692" transform="translate(-600 -3234)">
    <rect id="Rectángulo_31931" data-name="Rectángulo 31931" width="400" height="420" rx="21" transform="translate(600 3234)" fill="#fff1db" opacity="0.897"/>
    <g id="corazon" transform="translate(734 3383.5)">
      <path id="Trazado_145610" data-name="Trazado 145610" d="M155.121,277.556l31.727-10.907c3.4-1.229,7.437-.068,9.156,3.113a7.478,7.478,0,0,1-3.674,10.669L143.807,301.8a30.511,30.511,0,0,1-28.334-1.611l-13.582-8.149c-3.135-1.88-8.248-2.935-11.891-3.066V252.6h20.559a15.562,15.562,0,0,1,7.641,2l13.722,7.719a5.187,5.187,0,0,0,2.547.667h16.817a7.79,7.79,0,0,1,3.835,14.571Zm0,0" transform="translate(-66.628 -186.631)" fill="#ffcebf"/>
      <path id="Trazado_145611" data-name="Trazado 145611" d="M217.355,10.5c9.977,0,16.853,8.375,16.853,18.295,0,13.126-12.377,21.914-33.4,40.134C180.819,51.6,166.789,42.517,166.789,28.795c0-9.92,6.877-18.295,16.856-18.295,12.808,0,16.853,14.606,16.853,14.606S204.544,10.5,217.355,10.5Zm0,0" transform="translate(-123.476 -7.403)" fill="#ff9800"/>
      <path id="Trazado_145612" data-name="Trazado 145612" d="M30.775,237.792v36.371a5.192,5.192,0,0,1-5.194,5.178H10V232.6H25.581A5.192,5.192,0,0,1,30.775,237.792Zm0,0" transform="translate(-7.403 -171.825)" fill="#ffd494"/>
      <path id="Trazado_145613" data-name="Trazado 145613" d="M42.6,262.6a2.6,2.6,0,1,0,2.6,2.6A2.6,2.6,0,0,0,42.6,262.6Zm0,0" transform="translate(-29.613 -194.034)"/>
      <path id="Trazado_145614" data-name="Trazado 145614" d="M119.357,241.99l-24.482,8.417a10.362,10.362,0,0,0-10.218-12.229H67.84a2.6,2.6,0,0,1-1.275-.334l-13.72-7.717a18.2,18.2,0,0,0-8.915-2.337H25.521a7.8,7.8,0,0,0-7.343-5.193H2.6a2.6,2.6,0,0,0-2.6,2.6v46.743a2.6,2.6,0,0,0,2.6,2.6H18.178a7.806,7.806,0,0,0,7.27-5,23.708,23.708,0,0,1,8.478,2.517L47.508,280.2a33.105,33.105,0,0,0,30.732,1.754l48.469-21.342a10.011,10.011,0,0,0-7.352-18.623ZM20.775,266.756a2.6,2.6,0,0,1-2.6,2.585H5.194V227.792H18.178a2.6,2.6,0,0,1,2.6,2.6ZM124.736,255.81l-.082.033L76.1,277.221a27.91,27.91,0,0,1-25.923-1.473L36.6,267.6a28.635,28.635,0,0,0-10.63-3.233V232.985H43.931a12.994,12.994,0,0,1,6.367,1.668l13.72,7.717a7.8,7.8,0,0,0,3.822,1H84.657a5.194,5.194,0,1,1,0,10.387h-26.4a2.6,2.6,0,1,0,0,5.193h26.4a10.365,10.365,0,0,0,4.868-1.216L121.1,246.883a4.82,4.82,0,1,1,3.636,8.928Zm0,0" transform="translate(0 -164.422)"/>
      <path id="Trazado_145615" data-name="Trazado 145615" d="M194.045,63.488a2.6,2.6,0,0,0,3.4,0c21.188-18.363,34.294-27.656,34.294-42.1C231.741,9.967,223.653.5,212.291.5c-7.462,0-13.176,4.3-16.856,10.756C191.763,4.815,186.055.5,178.581.5c-8.7,0-15.971,5.637-18.527,14.36a2.6,2.6,0,1,0,4.984,1.461c1.892-6.456,7.207-10.627,13.543-10.627,7.408,0,12.6,6.578,14.351,12.7a2.6,2.6,0,0,0,5.005,0c.035-.127,3.643-12.7,14.354-12.7,8.127,0,14.256,6.748,14.256,15.7,0,11.552-11.292,19.88-30.8,36.7-11.888-10.209-21.331-17.4-26.7-24.425a2.6,2.6,0,1,0-4.129,3.152C170.967,44.745,181.18,52.337,194.045,63.488Zm0,0" transform="translate(-118.412)"/>
      <path id="Trazado_145616" data-name="Trazado 145616" d="M161.6,88.6a2.6,2.6,0,1,0,2.6,2.6A2.6,2.6,0,0,0,161.6,88.6Zm0,0" transform="translate(-117.71 -65.22)"/>
    </g>
  </g>
</svg>
