<svg xmlns="http://www.w3.org/2000/svg" width="298" height="144" viewBox="0 0 298 144">
  <g id="Grupo_84694" data-name="Grupo 84694" transform="translate(-338 -4552)">
    <rect id="Rectángulo_32167" data-name="Rectángulo 32167" width="298" height="144" rx="20" transform="translate(338 4552)" fill="#fff1db"/>
    <g id="oportunidad" transform="translate(436 4573)">
      <path id="Trazado_147001" data-name="Trazado 147001" d="M36.258,38.71,26.71,48.258,13,34,8.5,38.484,4,16l22.484,4.5L22,25Z" transform="translate(1.839 9.194)" fill="#ff9800"/>
      <path id="Trazado_147002" data-name="Trazado 147002" d="M36.9,4l12.9,19.355H43.355V42.71h-12.9V23.355H24Z" transform="translate(14.097 1.839)" fill="#ff9800"/>
      <path id="Trazado_147003" data-name="Trazado 147003" d="M72.258,16l-4.5,22.484L63.258,34,49.548,48.258,40,38.71,54.258,25l-4.484-4.5Z" transform="translate(23.903 9.194)" fill="#ff9800"/>
      <g id="Grupo_83895" data-name="Grupo 83895" transform="translate(2.613 2.613)">
        <circle id="Elipse_4127" data-name="Elipse 4127" cx="3.226" cy="3.226" r="3.226" transform="translate(0 59.677)" fill="#ffee58"/>
        <circle id="Elipse_4128" data-name="Elipse 4128" cx="3.226" cy="3.226" r="3.226" transform="translate(0 90.323)" fill="#ffee58"/>
        <circle id="Elipse_4129" data-name="Elipse 4129" cx="3.226" cy="3.226" r="3.226" fill="#ffee58"/>
        <circle id="Elipse_4130" data-name="Elipse 4130" cx="3.226" cy="3.226" r="3.226" transform="translate(90.323)" fill="#ffee58"/>
        <circle id="Elipse_4131" data-name="Elipse 4131" cx="3.226" cy="3.226" r="3.226" transform="translate(90.323 59.677)" fill="#ffee58"/>
        <circle id="Elipse_4132" data-name="Elipse 4132" cx="3.226" cy="3.226" r="3.226" transform="translate(90.323 90.323)" fill="#ffee58"/>
      </g>
      <path id="Trazado_147004" data-name="Trazado 147004" d="M36.742,69.784H19V64.945a20.906,20.906,0,0,1,6.145-14.823c.274-.274.565-.565.871-.823l1.048,5.968L31.9,58.494l-3.226,3.226Z" transform="translate(11.032 29.603)" fill="#ffb74d"/>
      <path id="Trazado_147005" data-name="Trazado 147005" d="M51.742,64.945v4.839H34l8.065-8.065-3.226-3.226,4.839-3.226L44.726,49.3A20.888,20.888,0,0,1,51.742,64.945Z" transform="translate(20.226 29.603)" fill="#ffb74d"/>
      <path id="Trazado_147006" data-name="Trazado 147006" d="M29.3,46.98l8,24.226H34.076l-8.065-8.065,3.226-3.226L24.4,56.69,23.35,50.722A21.092,21.092,0,0,1,29.3,46.98Z" transform="translate(13.698 28.181)" fill="#ffb74d"/>
      <path id="Trazado_147007" data-name="Trazado 147007" d="M40.065,59.915l3.226,3.226-8.065,8.065H32L40,46.98a21.092,21.092,0,0,1,5.952,3.742L44.9,56.69Z" transform="translate(19 28.181)" fill="#ffb74d"/>
      <path id="Trazado_147008" data-name="Trazado 147008" d="M43.04,47.581l-8,24.226-8-24.226a21.035,21.035,0,0,1,16,0Z" transform="translate(15.96 27.581)" fill="#ccd1d9"/>
      <circle id="Elipse_4133" data-name="Elipse 4133" cx="11.29" cy="11.29" r="11.29" transform="translate(39.71 51)" fill="#f0d0b4"/>
      <path id="Trazado_147009" data-name="Trazado 147009" d="M47.6,54.713a12.9,12.9,0,1,0-14.045,0A22.609,22.609,0,0,0,18,76.161v6.452H63.161V76.161A22.609,22.609,0,0,0,47.6,54.713ZM49.59,72.935l-6.452,6.452h-.326L49.54,59.021a19.43,19.43,0,0,1,3.247,2.137l-.771,4.368-5.9,3.934ZM29.147,65.524l-.771-4.368a19.43,19.43,0,0,1,3.247-2.137L38.35,79.387h-.326l-6.452-6.452L35.05,69.46ZM30.9,43.9a9.677,9.677,0,1,1,9.677,9.677A9.687,9.687,0,0,1,30.9,43.9ZM46.558,57.761l-5.977,18.1L34.6,57.761a19.182,19.182,0,0,1,11.953,0Zm-25.332,18.4A19.263,19.263,0,0,1,25.59,63.939l.618,3.5,3.776,2.518L27.01,72.935l6.452,6.452H21.226Zm38.71,3.226H47.7l6.452-6.452L51.177,69.96l3.776-2.518.618-3.5a19.271,19.271,0,0,1,4.365,12.224Z" transform="translate(10.419 18.387)"/>
      <path id="Trazado_147010" data-name="Trazado 147010" d="M29.984,45.428H46.113V26.073h7.853L38.049,2.2,22.131,26.073h7.853ZM28.16,22.847,38.049,8.013l9.889,14.834h-5.05V42.2H33.21V22.847Z" transform="translate(12.951 0.734)"/>
      <path id="Trazado_147011" data-name="Trazado 147011" d="M2.725,14.725,8.288,42.543l5.466-5.466L27.473,51.343,39.341,39.475,25.075,25.756l5.466-5.466Zm32.011,24.8L27.52,46.736,13.8,32.47,10.27,36,6.838,18.838,24,22.27,20.472,25.8Z" transform="translate(1.057 8.412)"/>
      <path id="Trazado_147012" data-name="Trazado 147012" d="M38.572,39.475,50.44,51.343,64.159,37.077l5.466,5.466,5.563-27.818L47.37,20.288l5.466,5.466Zm32.5-20.637L67.645,36l-3.531-3.529L50.395,46.738l-7.216-7.216L57.445,25.8l-3.529-3.531Z" transform="translate(23.028 8.412)"/>
      <path id="Trazado_147013" data-name="Trazado 147013" d="M5.839,10.677A4.839,4.839,0,1,0,1,5.839,4.845,4.845,0,0,0,5.839,10.677Zm0-6.452A1.613,1.613,0,1,1,4.226,5.839,1.616,1.616,0,0,1,5.839,4.226Z"/>
      <path id="Trazado_147014" data-name="Trazado 147014" d="M0,0H3.226V3.065H0Z" transform="translate(18.656 20.942) rotate(-45)"/>
      <path id="Trazado_147015" data-name="Trazado 147015" d="M0,0H3.226V3.226H0Z" transform="translate(14.097 16.381) rotate(-45)"/>
      <path id="Trazado_147016" data-name="Trazado 147016" d="M0,0H3.226V3.226H0Z" transform="translate(9.535 11.818) rotate(-45)"/>
      <path id="Trazado_147017" data-name="Trazado 147017" d="M5.839,57a4.839,4.839,0,1,0,4.839,4.839A4.845,4.845,0,0,0,5.839,57Zm0,6.452a1.613,1.613,0,1,1,1.613-1.613A1.616,1.616,0,0,1,5.839,63.452Z" transform="translate(0 34.323)"/>
      <path id="Trazado_147018" data-name="Trazado 147018" d="M0,0H3.226V3.226H0Z" transform="translate(14.089 85.611) rotate(-45)"/>
      <path id="Trazado_147019" data-name="Trazado 147019" d="M0,0H3.226V3.226H0Z" transform="translate(9.526 90.175) rotate(-45)"/>
      <path id="Trazado_147020" data-name="Trazado 147020" d="M0,0H3.065V3.226H0Z" transform="translate(18.65 81.052) rotate(-45)"/>
      <path id="Trazado_147021" data-name="Trazado 147021" d="M61.839,57a4.839,4.839,0,1,0,4.839,4.839A4.845,4.845,0,0,0,61.839,57Zm0,6.452a1.613,1.613,0,1,1,1.613-1.613A1.616,1.616,0,0,1,61.839,63.452Z" transform="translate(34.323 34.323)"/>
      <path id="Trazado_147022" data-name="Trazado 147022" d="M0,0H3.226V3.226H0Z" transform="translate(83.32 85.619) rotate(-45)"/>
      <path id="Trazado_147023" data-name="Trazado 147023" d="M0,0H3.226V3.065H0Z" transform="translate(78.875 81.173) rotate(-45)"/>
      <path id="Trazado_147024" data-name="Trazado 147024" d="M0,0H3.226V3.226H0Z" transform="translate(87.883 90.182) rotate(-45)"/>
      <path id="Trazado_147025" data-name="Trazado 147025" d="M61.839,10.677A4.839,4.839,0,1,0,57,5.839,4.845,4.845,0,0,0,61.839,10.677Zm0-6.452a1.613,1.613,0,1,1-1.613,1.613A1.616,1.616,0,0,1,61.839,4.226Z" transform="translate(34.323)"/>
      <path id="Trazado_147026" data-name="Trazado 147026" d="M0,0H3.226V3.226H0Z" transform="translate(87.89 11.827) rotate(-45)"/>
      <path id="Trazado_147027" data-name="Trazado 147027" d="M0,0H3.226V3.226H0Z" transform="translate(83.329 16.389) rotate(-45)"/>
      <path id="Trazado_147028" data-name="Trazado 147028" d="M0,0H3.065V3.226H0Z" transform="translate(78.881 20.833) rotate(-45)"/>
      <path id="Trazado_147029" data-name="Trazado 147029" d="M61.839,38a4.839,4.839,0,1,0,4.839,4.839A4.845,4.845,0,0,0,61.839,38Zm0,6.452a1.613,1.613,0,1,1,1.613-1.613A1.616,1.616,0,0,1,61.839,44.452Z" transform="translate(34.323 22.677)"/>
      <path id="Trazado_147030" data-name="Trazado 147030" d="M53,40h3.226v3.226H53Z" transform="translate(31.871 23.903)"/>
      <path id="Trazado_147031" data-name="Trazado 147031" d="M49,40h3.226v3.226H49Z" transform="translate(29.419 23.903)"/>
      <path id="Trazado_147032" data-name="Trazado 147032" d="M45,40h3.226v3.226H45Z" transform="translate(26.968 23.903)"/>
      <path id="Trazado_147033" data-name="Trazado 147033" d="M5.839,47.677A4.839,4.839,0,1,0,1,42.839,4.845,4.845,0,0,0,5.839,47.677Zm0-6.452a1.613,1.613,0,1,1-1.613,1.613A1.616,1.616,0,0,1,5.839,41.226Z" transform="translate(0 22.677)"/>
      <path id="Trazado_147034" data-name="Trazado 147034" d="M9,40h3.226v3.226H9Z" transform="translate(4.903 23.903)"/>
      <path id="Trazado_147035" data-name="Trazado 147035" d="M13,40h3.226v3.226H13Z" transform="translate(7.355 23.903)"/>
      <path id="Trazado_147036" data-name="Trazado 147036" d="M17,40h3.226v3.226H17Z" transform="translate(9.806 23.903)"/>
    </g>
  </g>
</svg>
