<svg xmlns="http://www.w3.org/2000/svg" width="90" height="90" viewBox="0 0 90 90">
  <g id="Group_111302" data-name="Group 111302" transform="translate(-574.505 -155.433)">
    <path id="Path_171777" data-name="Path 171777" d="M574.505,167.387a34.77,34.77,0,0,1,1.013-3.515,13.454,13.454,0,1,1-.838,7.245,4.057,4.057,0,0,0-.175-.566Zm20.994,8.666c2.589-1.874,3.7-6.829,2.438-10.482a10.515,10.515,0,0,0-10.4-7.133,10.686,10.686,0,0,0-9.684,7.762c-1.126,4.063.726,8.489,2.629,9.806.086-2.318-.513-4.823,1.678-6.234a19.319,19.319,0,0,1,.036-3.664,5.914,5.914,0,0,1,7.291-4.491,6.049,6.049,0,0,1,4.345,7.28,1.2,1.2,0,0,0,.159.967,4.5,4.5,0,0,1,1.507,3.6C595.484,174.3,595.5,175.144,595.5,176.053Zm-12.006-.527c0,.791-.038,1.585.021,2.371a.967.967,0,0,0,.462.7,10.121,10.121,0,0,0,8.022.02.867.867,0,0,0,.471-.61c.036-1.639.028-3.28.007-4.92a1.1,1.1,0,0,0-1.014-1.131c-1.708-.345-2.011-1.268-1.1-2.775a4.024,4.024,0,0,0,.556-2.21,2.779,2.779,0,0,0-2.381-2.471,2.97,2.97,0,0,0-2.941,4.682c1.02,1.49.671,2.354-1.124,2.785a1.2,1.2,0,0,0-.976,1.279C583.485,174,583.494,174.765,583.493,175.526Z" fill="#0f5c29"/>
    <path id="Path_171778" data-name="Path 171778" d="M649.562,245.433c-.708-.164-1.424-.3-2.125-.5a13.473,13.473,0,1,1,5.685.327,4.228,4.228,0,0,0-.571.169Zm11.76-12.011h-2.764v-2.969h2.716c-.01-4.024-4.854-8.852-8.794-8.757v2.689h-2.975V221.65c-5.023.408-8.788,5.419-8.724,8.839h2.667v2.967h-2.754a10.211,10.211,0,0,0,8.818,8.759V239.5h3.027v2.738A10.333,10.333,0,0,0,661.322,233.422Z" fill="#0f5c29"/>
    <path id="Path_171779" data-name="Path 171779" d="M574.505,230.316c.153-.617.292-1.236.459-1.849a13.5,13.5,0,1,1,15.154,16.8,6.328,6.328,0,0,0-.671.169h-2.989a3.433,3.433,0,0,0-.484-.161,13.288,13.288,0,0,1-10.585-8.6,28.517,28.517,0,0,1-.884-3.19Zm13.6-8.884A10.5,10.5,0,1,0,598.5,232.059,10.562,10.562,0,0,0,588.109,221.432Z" fill="#0f5c29"/>
    <path id="Path_171780" data-name="Path 171780" d="M606.475,180.532c.331.122.611.2.874.325a27.863,27.863,0,0,1,2.531,1.211,2.137,2.137,0,0,0,2.127.047,1.83,1.83,0,0,0,1.224-1.32c.271-1.045.679-2.053,1-3.085a1.615,1.615,0,0,1,1.668-1.278q3.6,0,7.206,0a1.616,1.616,0,0,1,1.668,1.279c.349,1.116.72,2.225,1.092,3.334a2.728,2.728,0,0,0,2.822,1.218c.981-.457,1.967-.9,2.93-1.4a1.714,1.714,0,0,1,1.965.152,24.694,24.694,0,0,1,5.374,5.392,1.629,1.629,0,0,1,.16,1.813c-.362.735-.643,1.516-1.067,2.212a2.417,2.417,0,0,0-.113,2.6,1.845,1.845,0,0,0,1.273,1.142c1.016.266,1.995.67,3,.982a1.656,1.656,0,0,1,1.3,1.746q-.007,3.515,0,7.03a1.691,1.691,0,0,1-1.351,1.8c-1.036.31-2.055.678-3.082,1.018a2.486,2.486,0,0,0-1.325,3.014c.449.952.885,1.911,1.353,2.854a1.678,1.678,0,0,1-.177,1.889,24.915,24.915,0,0,1-5.317,5.327,1.7,1.7,0,0,1-1.963.184c-.647-.338-1.357-.571-1.971-.957a2.607,2.607,0,0,0-2.92-.121,1.641,1.641,0,0,0-.941,1.023c-.312,1.065-.707,2.106-1.032,3.168a1.653,1.653,0,0,1-1.735,1.311q-3.559-.006-7.119,0a1.617,1.617,0,0,1-1.688-1.252c-.36-1.143-.736-2.281-1.118-3.417a2.431,2.431,0,0,0-2.732-1.186c-1.036.478-2.068.964-3.092,1.466a1.677,1.677,0,0,1-1.884-.206,24.988,24.988,0,0,1-5.269-5.252,1.761,1.761,0,0,1-.214-2.035,29.211,29.211,0,0,0,1.33-2.863,2.712,2.712,0,0,0,.038-1.374,2.123,2.123,0,0,0-1.884-1.763c-.909-.2-1.777-.579-2.669-.86A1.616,1.616,0,0,1,595.5,204q0-3.56,0-7.118a1.638,1.638,0,0,1,1.313-1.73c.9-.267,1.762-.65,2.669-.859a2.318,2.318,0,0,0,1.849-1.717,1.724,1.724,0,0,0-.063-1.479c-.5-.958-.934-1.952-1.4-2.927a1.577,1.577,0,0,1,.165-1.732,23.668,23.668,0,0,1,5.516-5.492A5.062,5.062,0,0,1,606.475,180.532Zm29.584,32.7c-.077-.169-.136-.3-.2-.432a28.229,28.229,0,0,1-1.321-2.865,3.064,3.064,0,0,1,.011-1.739c.257-.891.732-1.718,1.042-2.6a1.947,1.947,0,0,1,1.392-1.32c.98-.292,1.958-.6,2.9-.989a1.091,1.091,0,0,0,.582-.772c.059-1.374.006-2.752.038-4.128a.762.762,0,0,0-.661-.856c-.98-.295-1.941-.65-2.919-.95a1.894,1.894,0,0,1-1.323-1.276,26.576,26.576,0,0,0-1.079-2.587,1.94,1.94,0,0,1,0-1.842c.461-.913.914-1.834,1.3-2.78a1.036,1.036,0,0,0-.1-.9q-1.428-1.543-2.974-2.975a1.03,1.03,0,0,0-.9-.11c-.946.386-1.864.844-2.78,1.3a1.94,1.94,0,0,1-1.842.005,24.474,24.474,0,0,0-2.587-1.081,1.883,1.883,0,0,1-1.281-1.316c-.3-.977-.673-1.934-.951-2.917a.8.8,0,0,0-.939-.668c-1.229.031-2.462.057-3.689-.008-.751-.04-1.056.23-1.282.937-1.188,3.713-1.208,3.706-4.731,5.081a.221.221,0,0,1-.083.028,6.321,6.321,0,0,1-1.751-.1,20.984,20.984,0,0,1-2.7-1.26.8.8,0,0,0-1.084.152c-.862.875-1.742,1.732-2.627,2.584a1.183,1.183,0,0,0-.232,1.6c1.66,3.4,1.662,3.426.086,6.87a2.867,2.867,0,0,1-1.331,1.238c-.946.444-1.992.67-2.968,1.059a1,1,0,0,0-.544.707c-.053,1.4-.057,2.812,0,4.215a1.09,1.09,0,0,0,.6.753,27.129,27.129,0,0,0,2.817.969,2.076,2.076,0,0,1,1.489,1.346c.33.875.8,1.706,1.04,2.6a3.327,3.327,0,0,1-.062,1.824c-.327.963-.869,1.851-1.261,2.8a.946.946,0,0,0,.091.828q1.467,1.569,3.035,3.039a.949.949,0,0,0,.829.1c.946-.388,1.836-.926,2.8-1.253a3.308,3.308,0,0,1,1.82-.078,11.081,11.081,0,0,1,2.664,1.108,3.244,3.244,0,0,1,1.224,1.35c.431.921.643,1.941,1.027,2.887a1.1,1.1,0,0,0,.755.6c1.4.06,2.811.055,4.215,0a1,1,0,0,0,.715-.537c.394-1.005.628-2.079,1.079-3.055a2.979,2.979,0,0,1,1.221-1.226,13.7,13.7,0,0,1,2.661-1.119,2.841,2.841,0,0,1,1.658-.022c.988.346,1.9.905,2.87,1.308a1.035,1.035,0,0,0,.905-.081c1.051-.972,2.047-2,3.053-3.022A2.433,2.433,0,0,0,636.059,213.227Z" fill="#0f5c29"/>
    <path id="Path_171781" data-name="Path 171781" d="M651.384,182.43c-7.252.354-13.5-5.53-13.875-13.073a13.5,13.5,0,1,1,13.875,13.073Zm-.583-3a10.5,10.5,0,1,0-10.292-10.721A10.566,10.566,0,0,0,650.8,179.428Z" fill="#0f5c29"/>
    <path id="Path_171782" data-name="Path 171782" d="M578.768,189.175l-1.541,1.848-2.2-2.147c1.511-1.533,2.983-3.074,4.513-4.556a1.334,1.334,0,0,1,1.981.032c1.508,1.465,2.969,2.978,4.478,4.5l-2.207,2.085-1.59-1.818c-.53,2.252.732,5.4,2.827,7.339a9.728,9.728,0,0,0,7.4,2.469c0,1.01,0,1.931,0,2.853C587,202.766,578.953,198.15,578.768,189.175Z" fill="#0f5c29"/>
    <path id="Path_171783" data-name="Path 171783" d="M663.992,212.049c-1.474,1.48-2.906,2.945-4.372,4.376a1.4,1.4,0,0,1-2.12.1c-1.514-1.462-2.982-2.973-4.467-4.463l2.235-2.064,1.508,1.645a8.4,8.4,0,0,0-2.817-7.248,9.621,9.621,0,0,0-7.4-2.449V198.97a12.226,12.226,0,0,1,9.575,3.35,12.424,12.424,0,0,1,3.877,9.547l1.765-2.1Z" fill="#0f5c29"/>
    <path id="Path_171784" data-name="Path 171784" d="M608.078,240.945l2.085,1.759-2.234,2.223c-1.519-1.508-3.055-2.989-4.536-4.523a1.338,1.338,0,0,1,.029-1.983c1.465-1.51,2.975-2.977,4.5-4.5l2.028,2.269-1.654,1.52a8.413,8.413,0,0,0,7.243-2.823,9.644,9.644,0,0,0,2.454-7.4h2.972a12.24,12.24,0,0,1-3.349,9.57A12.427,12.427,0,0,1,608.078,240.945Z" fill="#0f5c29"/>
    <path id="Path_171785" data-name="Path 171785" d="M618.084,173.335a12.487,12.487,0,0,1,12.835-13.476l-2.163-1.662,2.411-2.3c.662.683,1.36,1.413,2.068,2.133.738.751,1.5,1.48,2.226,2.242a1.408,1.408,0,0,1,.164,2.115c-1.479,1.533-3.02,3.006-4.57,4.537l-2.107-2.27,1.9-1.689a9.226,9.226,0,0,0-7.33,2.948,9.578,9.578,0,0,0-2.5,7.418Z" fill="#0f5c29"/>
    <path id="Path_171786" data-name="Path 171786" d="M655.926,224.866l2.133,2.161c-1.152,1.143-2.29,2.3-3.466,3.422a1.786,1.786,0,0,0-.635,1.509,2.882,2.882,0,0,1-3.014,2.954,2.935,2.935,0,0,1-2.921-3.068,1.43,1.43,0,0,0-.5-1.288c-.705-.652-1.37-1.346-2.068-2.039l2.179-2.13c.684.7,1.383,1.43,2.094,2.146a1.987,1.987,0,0,0,2.54.018C653.486,227.333,654.7,226.107,655.926,224.866Z" fill="#0f5c29"/>
    <path id="Path_171787" data-name="Path 171787" d="M593.981,225.995v11.849h-2.906V225.995Z" fill="#0f5c29"/>
    <path id="Path_171788" data-name="Path 171788" d="M586.547,228.951h2.87v8.9h-2.87Z" fill="#0f5c29"/>
    <path id="Path_171789" data-name="Path 171789" d="M584.97,237.868h-2.9v-4.359h2.9Z" fill="#0f5c29"/>
    <path id="Path_171790" data-name="Path 171790" d="M605.994,200.385a13.511,13.511,0,1,1,13.418,13.56A13.568,13.568,0,0,1,605.994,200.385Zm24.022.086a10.512,10.512,0,1,0-10.572,10.475A10.592,10.592,0,0,0,630.016,200.471Z" fill="#0f5c29"/>
    <path id="Path_171791" data-name="Path 171791" d="M653.963,161.426v3c-.955,0-1.907-.028-2.857.007a1.485,1.485,0,0,0-1.536,1.866,1.529,1.529,0,0,0,1.569,1.139,4.453,4.453,0,0,1,4.264,3.632,4.361,4.361,0,0,1-3.322,5.191,23.2,23.2,0,0,1-4.04.042v-2.879c.888,0,1.756.008,2.625,0,1.136-.014,1.807-.549,1.836-1.445s-.617-1.465-1.747-1.568a4.436,4.436,0,0,1-4.225-4.682,4.486,4.486,0,0,1,4.552-4.3C652.012,161.412,652.942,161.426,653.963,161.426Z" fill="#0f5c29"/>
    <path id="Path_171792" data-name="Path 171792" d="M620.946,201.906h-2.867v-8.94h2.867Z" fill="#0f5c29"/>
    <path id="Path_171793" data-name="Path 171793" d="M620.948,207.9h-2.887v-2.881h2.887Z" fill="#0f5c29"/>
  </g>
</svg>
