<svg xmlns="http://www.w3.org/2000/svg" width="87.986" height="88" viewBox="0 0 87.986 88">
  <g id="Group_111256" data-name="Group 111256" transform="translate(-454.001 -3874)">
    <g id="Group_111256-2" data-name="Group 111256" transform="translate(80.998 3921.076)">
      <path id="Path_171582" data-name="Path 171582" d="M398.256,198.537c-1.851-.34-3.74-.544-5.546-1.046a26.919,26.919,0,0,1-9.491-47.025,25.837,25.837,0,0,1,13.684-5.684,26.938,26.938,0,0,1,11.642,52.3,53.479,53.479,0,0,1-6.017,1.312c-.276.058-.556.1-.835.146ZM387.849,180.12a59.44,59.44,0,0,1-.019-17.1c-3.8,1.009-7.329,2.23-10.142,4.886-2.017,1.9-2.389,3.99-1.134,5.914a8.493,8.493,0,0,0,1.451,1.681C380.778,177.969,384.177,179.125,387.849,180.12Zm24.218-17.1a59.063,59.063,0,0,1,.028,17.023,22.488,22.488,0,0,0,9.923-4.611c2.658-2.361,2.76-5.13.175-7.556C419.4,165.247,415.893,164.028,412.068,163.016Zm-13.515-1.45c-2.535.263-4.919.5-7.3.781a.873.873,0,0,0-.535.6,53.264,53.264,0,0,0,0,17.172c.042.26.391.527.66.676a2.248,2.248,0,0,0,.84.13c2.069.2,4.14.4,6.33.607,0-1.488.017-2.824-.022-4.159,0-.171-.271-.409-.467-.49a5.665,5.665,0,0,1,0-10.656.847.847,0,0,0,.473-.568C398.574,164.383,398.553,163.1,398.553,161.567Zm2.817,19.863c.279,0,.472.015.663,0,2.078-.192,4.154-.416,6.236-.57.672-.05.906-.29,1-.961a56.723,56.723,0,0,0,0-16.681c-.091-.614-.291-.907-.933-.949-.769-.05-1.528-.229-2.3-.292-1.527-.125-3.057-.208-4.67-.314,0,1.452-.017,2.764.021,4.074.005.174.258.419.451.5a5.57,5.57,0,0,1,3.781,5.318,5.631,5.631,0,0,1-3.751,5.335c-.2.085-.473.31-.478.477C401.352,178.7,401.369,180.037,401.369,181.43ZM377,178.39c.267,5.772,10.56,16.058,16.176,16.126a28.412,28.412,0,0,1-4.53-10.5,1.344,1.344,0,0,0-1.147-1.133,31.034,31.034,0,0,1-8.238-3.082C378.493,179.365,377.763,178.872,377,178.39Zm46.018-.122a28.681,28.681,0,0,1-10.763,4.656,1.1,1.1,0,0,0-.931.934,31.783,31.783,0,0,1-3.087,8.338c-.454.809-.981,1.579-1.495,2.4C414.151,192.835,421.176,185.789,423.013,178.269Zm-29.777-29.735c-6.506.9-16.316,10.772-16.232,16.237.412-.278.808-.555,1.213-.817a30.187,30.187,0,0,1,9.437-3.752,1.105,1.105,0,0,0,.944-.92A28.691,28.691,0,0,1,393.236,148.534Zm29.719,16.284c-.4-5.945-10.782-16.318-16.208-16.214.28.415.559.811.821,1.217a30.621,30.621,0,0,1,3.755,9.424c.105.422.207.779.736.906A29.155,29.155,0,0,1,422.955,164.818Zm-31.522,18.948a24.441,24.441,0,0,0,3.975,9.033,6.46,6.46,0,0,0,3.087,2.489V184.365Zm7.056-25V147.861c-3.347.967-6.539,8.031-6.9,11.487Zm10,.586c-1.009-3.736-2.21-7.267-4.9-10.059a18.518,18.518,0,0,0-2.157-1.654v11.128Zm-7.069,25.012v10.873c3.193-.81,6.384-7.524,6.94-11.461Zm-1.465-15.612a2.814,2.814,0,0,0-2.829,2.837A2.863,2.863,0,0,0,400,174.4a2.814,2.814,0,0,0,2.764-2.815A2.774,2.774,0,0,0,399.953,168.753Z" transform="translate(0 -157.614)"/>
      <path id="Path_171583" data-name="Path 171583" d="M644.887-29.214a7.665,7.665,0,0,1-2.8,4.768,6,6,0,0,1-3.623,1.395,26.791,26.791,0,0,1-5.7-.358,6.674,6.674,0,0,1-4.873-6.444,2.988,2.988,0,0,1,.414-1.362c1.505-2.764,3.043-5.51,4.569-8.263.132-.239.251-.486.463-.9l-3.58,1.141c-2.316.736-4.637,1.456-6.941,2.229a1.024,1.024,0,0,0-.605.712c-.032,6.675-.025,13.349-.022,20.024a3.393,3.393,0,0,0,.07.433c.429,0,.851-.019,1.271,0a1.357,1.357,0,0,1,1.452,1.455c.037,1.059.014,2.119.016,3.179,0,.307,0,.615,0,1.033,1.721,0,3.344-.034,4.965.015a7.024,7.024,0,0,1,2.349.341,3.957,3.957,0,0,1,2.6,3.708c.046.886.025,1.776.017,2.664-.012,1.278-.484,1.753-1.778,1.756q-5.886.013-11.772,0-6.444,0-12.888,0c-1.485,0-1.93-.458-1.935-1.959,0-.716-.012-1.433,0-2.148a4.225,4.225,0,0,1,4.327-4.366c1.828-.036,3.658-.007,5.62-.007,0-1.17,0-2.274,0-3.378,0-2,.24-2.247,2.266-2.306.139,0,.277-.021.478-.037V-35.9l-12.017,3.82c.594,1.076,1.158,2.1,1.725,3.124,1.29,2.327,2.491,4.711,3.9,6.962a4.589,4.589,0,0,1,.2,4.648,6.648,6.648,0,0,1-5.972,4.236,20.24,20.24,0,0,1-5.529-.35,6.749,6.749,0,0,1-4.909-6.519,2.837,2.837,0,0,1,.423-1.278c1.69-3.087,3.405-6.16,5.111-9.238.149-.269.285-.546.493-.948h-6.011v-2.848a6.526,6.526,0,0,1,.883-.04,32.2,32.2,0,0,0,14.6-2.26c2.228-.87,4.557-1.481,7.013-2.264a4.465,4.465,0,0,1-2.614-3.408,4.141,4.141,0,0,1,.687-2.946,4.237,4.237,0,0,1,5.548-1.352c2.071,1.13,2.712,3.365,1.622,6.021.37-.109.652-.186.93-.274q4.944-1.576,9.887-3.152a3.194,3.194,0,0,1,.911-.227c2.917-.007,5.834.01,8.751.021v2.75h-6.1l6.1,11ZM609.469-4.546h22.565c.344-2.152-.2-2.812-2.267-2.812H617.059c-1.946,0-3.892-.008-5.839,0-1.036.006-1.63.383-1.738,1.163A12.321,12.321,0,0,0,609.469-4.546ZM600.5-21.592h9.3l-4.655-8.376Zm31.228-9.951h9.292l-4.649-8.364Zm-.759,2.92a3.681,3.681,0,0,0,2.863,2.615,22.258,22.258,0,0,0,5.1,0,3.269,3.269,0,0,0,2.689-2.617Zm-31.222,9.944a3.727,3.727,0,0,0,2.961,2.638,21.463,21.463,0,0,0,4.858.012,3.346,3.346,0,0,0,2.831-2.649Zm22.385,8.486v-2.774H619.4v2.774Zm-1.385-34.026a1.4,1.4,0,0,0-1.39,1.357,1.446,1.446,0,0,0,1.418,1.433,1.472,1.472,0,0,0,1.395-1.376A1.415,1.415,0,0,0,620.745-44.219Z" transform="translate(-183.898)"/>
      <path id="Path_171584" data-name="Path 171584" d="M497.512,72.491l1.814,2.124L496.7,77.342l-2.112-1.85Z" transform="translate(-99.972 -98.315)"/>
      <path id="Path_171585" data-name="Path 171585" d="M708.945,316.536l-3.326,2.541-1.558-2.352,2.995-2.313Z" transform="translate(-272.215 -297.236)"/>
      <path id="Path_171586" data-name="Path 171586" d="M740.329,285.55l-2.247,2.972-2.15-1.832,2.026-2.7Z" transform="translate(-298.42 -272.219)"/>
      <path id="Path_171587" data-name="Path 171587" d="M472.335,108.1l2.352,1.569-1.553,2.688-2.526-1.277Z" transform="translate(-80.256 -127.596)"/>
      <path id="Path_171588" data-name="Path 171588" d="M531.2,50.464,532.476,53l-2.692,1.564-1.554-2.347Z" transform="translate(-127.637 -80.203)"/>
      <path id="Path_171589" data-name="Path 171589" d="M756.031,256.261l1.175-2.691,2.667.99-1.284,2.982Z" transform="translate(-314.947 -247.208)"/>
      <path id="Path_171590" data-name="Path 171590" d="M674.587,339.872l-1-2.672,2.688-1.173,1.293,2.534Z" transform="translate(-247.158 -315.009)"/>
      <path id="Path_171591" data-name="Path 171591" d="M565.515,40.753l-2.682.847-.989-2.646,2.966-.938Z" transform="translate(-155.276 -69.967)"/>
      <path id="Path_171592" data-name="Path 171592" d="M768.02,223.276c.79.111,1.467.2,2.142.3.192.029.379.089.64.153l-.594,2.921-2.73-.7Z" transform="translate(-324.359 -222.299)"/>
      <path id="Path_171593" data-name="Path 171593" d="M400.926,265.292c-3.672-1-7.071-2.151-9.844-4.62a8.493,8.493,0,0,1-1.451-1.681c-1.255-1.923-.883-4.009,1.134-5.914,2.813-2.656,6.342-3.877,10.142-4.886A59.44,59.44,0,0,0,400.926,265.292Z" transform="translate(-13.077 -242.785)" fill="#72e676"/>
      <path id="Path_171594" data-name="Path 171594" d="M592.782,248.174c3.825,1.012,7.328,2.23,10.126,4.856,2.585,2.426,2.483,5.195-.175,7.556a22.488,22.488,0,0,1-9.923,4.611A59.063,59.063,0,0,0,592.782,248.174Z" transform="translate(-180.714 -242.771)" fill="#72e676"/>
      <path id="Path_171595" data-name="Path 171595" d="M477.293,240.019c0,1.533.021,2.816-.022,4.1a.847.847,0,0,1-.473.568,5.665,5.665,0,0,0,0,10.656c.2.081.462.318.467.49.039,1.335.022,2.672.022,4.159-2.191-.21-4.261-.406-6.33-.607a2.248,2.248,0,0,1-.84-.13c-.269-.149-.618-.416-.66-.676a53.265,53.265,0,0,1,0-17.172.873.873,0,0,1,.535-.6C472.373,240.515,474.757,240.282,477.293,240.019Z" transform="translate(-78.74 -236.066)" fill="#72e676"/>
      <path id="Path_171596" data-name="Path 171596" d="M532.573,260.314c0-1.393-.017-2.732.022-4.069.005-.167.28-.392.478-.477a5.631,5.631,0,0,0,3.751-5.335,5.57,5.57,0,0,0-3.781-5.318c-.193-.078-.446-.323-.451-.5-.038-1.31-.021-2.621-.021-4.074,1.613.106,3.143.19,4.67.314.768.063,1.528.241,2.3.292.642.042.842.335.933.949a56.723,56.723,0,0,1,0,16.681c-.1.671-.333.912-1,.961-2.081.154-4.157.378-6.235.57C533.045,260.329,532.852,260.314,532.573,260.314Z" transform="translate(-131.203 -236.498)" fill="#72e676"/>
      <path id="Path_171597" data-name="Path 171597" d="M395.464,334.67c.768.481,1.5.975,2.261,1.41a31.034,31.034,0,0,0,8.238,3.082,1.344,1.344,0,0,1,1.147,1.133,28.412,28.412,0,0,0,4.53,10.5C406.024,350.728,395.731,340.442,395.464,334.67Z" transform="translate(-18.469 -313.893)" fill="#72e676"/>
      <path id="Path_171598" data-name="Path 171598" d="M579.071,333.984c-1.837,7.521-8.862,14.566-16.275,16.327.514-.821,1.041-1.59,1.495-2.4a31.782,31.782,0,0,0,3.087-8.338,1.1,1.1,0,0,1,.931-.934A28.68,28.68,0,0,0,579.071,333.984Z" transform="translate(-156.058 -313.329)" fill="#72e676"/>
      <path id="Path_171599" data-name="Path 171599" d="M411.741,166.7a28.69,28.69,0,0,0-4.638,10.749,1.105,1.105,0,0,1-.944.92,30.187,30.187,0,0,0-9.437,3.752c-.405.262-.8.539-1.213.817C395.425,177.468,405.235,167.6,411.741,166.7Z" transform="translate(-18.505 -175.776)" fill="#72e676"/>
      <path id="Path_171600" data-name="Path 171600" d="M579.057,183.3a29.155,29.155,0,0,0-10.895-4.667c-.529-.127-.631-.484-.736-.906a30.622,30.622,0,0,0-3.755-9.424c-.263-.406-.541-.8-.821-1.217C568.274,166.979,578.662,177.352,579.057,183.3Z" transform="translate(-156.102 -176.093)" fill="#72e676"/>
      <path id="Path_171601" data-name="Path 171601" d="M476.69,364.912l7.062.6v10.923a6.461,6.461,0,0,1-3.087-2.489A24.442,24.442,0,0,1,476.69,364.912Z" transform="translate(-85.257 -338.76)" fill="#72e676"/>
      <path id="Path_171602" data-name="Path 171602" d="M484.454,173.819l-6.9.581c.364-3.456,3.556-10.52,6.9-11.487Z" transform="translate(-85.965 -172.665)" fill="#72e676"/>
      <path id="Path_171603" data-name="Path 171603" d="M539.97,173.38l-7.061-.585V161.667a18.517,18.517,0,0,1,2.157,1.654C537.76,166.113,538.962,169.644,539.97,173.38Z" transform="translate(-131.484 -171.641)" fill="#72e676"/>
      <path id="Path_171604" data-name="Path 171604" d="M532.868,365.564l6.94-.588c-.556,3.937-3.747,10.651-6.94,11.461Z" transform="translate(-131.45 -338.812)" fill="#72e676"/>
      <path id="Path_171605" data-name="Path 171605" d="M511.538,280.452a2.774,2.774,0,0,1,2.815,2.83,2.814,2.814,0,0,1-2.764,2.815,2.863,2.863,0,0,1-2.88-2.808A2.814,2.814,0,0,1,511.538,280.452Z" transform="translate(-111.585 -269.312)" fill="#f1b732"/>
      <path id="Path_171606" data-name="Path 171606" d="M668.645,179.181a12.32,12.32,0,0,1,.014-1.646c.108-.78.7-1.157,1.738-1.163,1.946-.011,3.892,0,5.839,0h12.707c2.066,0,2.611.66,2.267,2.812Z" transform="translate(-243.075 -183.727)" fill="#f9cb3a"/>
      <path id="Path_171607" data-name="Path 171607" d="M789.7,56.748h10.655a3.269,3.269,0,0,1-2.689,2.617,22.259,22.259,0,0,1-5.1,0A3.681,3.681,0,0,1,789.7,56.748Z" transform="translate(-342.63 -85.37)" fill="#f9cb3a"/>
      <path id="Path_171608" data-name="Path 171608" d="M614.044,112.695H624.7a3.346,3.346,0,0,1-2.831,2.649,21.464,21.464,0,0,1-4.858-.012A3.727,3.727,0,0,1,614.044,112.695Z" transform="translate(-198.197 -131.373)" fill="#f9cb3a"/>
      <path id="Path_171609" data-name="Path 171609" d="M727.364,147.6h-2.728v-2.774h2.728Z" transform="translate(-289.132 -157.794)" fill="#f9cb3a"/>
      <path id="Path_171610" data-name="Path 171610" d="M725.759-31a1.415,1.415,0,0,1,1.423,1.414,1.472,1.472,0,0,1-1.395,1.376,1.446,1.446,0,0,1-1.418-1.433A1.4,1.4,0,0,1,725.759-31Z" transform="translate(-288.913 -13.221)" fill="#f9cb3a"/>
    </g>
  </g>
</svg>
