<svg xmlns="http://www.w3.org/2000/svg" width="78.943" height="86" viewBox="0 0 78.943 86">
  <g id="Group_126075" data-name="Group 126075" transform="translate(-444.454 -8)">
    <path id="Path_175984" data-name="Path 175984" d="M641.408,8c.257.094.512.194.771.281a5.213,5.213,0,0,1,3.366,3.268,3.185,3.185,0,0,1-2.25,4.386c-2.645.7-5.307,1.329-7.966,1.972-.561.136-.961.26-1.066.993a2.546,2.546,0,0,1-1.81,2.134c-1.837.549-3.711.973-5.607,1.459l-3.17-13.051c1.938-.429,3.877-.945,5.847-1.262,1.25-.2,2.169.556,2.875,1.685L639.729,8Z" transform="translate(-139.015)" fill="#1a2e48"/>
    <path id="Path_175985" data-name="Path 175985" d="M455.8,243.656c-3.521,0-6.9,0-10.288,0a.848.848,0,0,1-.952-.85c-.022-.617.382-.918.961-.926,1.37-.02,2.74-.006,4.2-.006V200.986h68.52v40.88h3.5a7.2,7.2,0,0,1,.839.013c.54.064.973.381.838.923-.084.337-.532.595-.845.854-.084.069-.271.015-.411.015h-46.38v-1.008q0-13.223,0-26.446c0-2.13-.946-3.086-3.054-3.087q-6.969,0-13.937,0a2.645,2.645,0,0,0-2.992,2.994q0,13.223,0,26.446Zm40.836-12.432q6.337,0,12.673,0A2.623,2.623,0,0,0,512.2,228.3q.006-8.98,0-17.96a2.617,2.617,0,0,0-2.948-2.94q-12.589,0-25.178,0a2.608,2.608,0,0,0-2.93,2.951q0,8.938,0,17.876c0,2,.991,2.994,2.983,3Q490.381,231.228,496.634,231.223Z" transform="translate(-0.08 -149.691)" fill="#1a2e48"/>
    <path id="Path_175986" data-name="Path 175986" d="M473.518,83.62V80.856l1.786-.431v3.135h17.237V80.974c0-1.987.037-3.974-.018-5.959-.022-.791.144-1.27,1.007-1.335a4.48,4.48,0,0,0,.809-.231V83.633H495.4q11.709,0,23.418,0c2.889,0,4.569,1.689,4.573,4.595,0,2.518.009,5.036,0,7.554a4.168,4.168,0,0,1-4.4,4.437q-35.043.01-70.087,0a4.191,4.191,0,0,1-4.442-4.491q-.009-3.819,0-7.638a4.181,4.181,0,0,1,4.455-4.469q11.751-.008,23.5,0Z" transform="translate(0 -50.767)" fill="#1a2e48"/>
    <path id="Path_175987" data-name="Path 175987" d="M542.916,24.239a3.04,3.04,0,0,1-2.5,3.1c-4.31,1.07-8.625,2.119-12.938,3.175-1.031.252-2.06.515-3.1.745a2.909,2.909,0,0,1-3.537-2.066q-1.517-5.882-2.887-11.8c-.368-1.594.756-3.035,2.54-3.472q5.575-1.364,11.152-2.721c1.492-.364,2.982-.741,4.475-1.1a3.044,3.044,0,0,1,4,2.392c.917,3.686,1.8,7.38,2.7,11.072A5.03,5.03,0,0,1,542.916,24.239Z" transform="translate(-56.959 -1.531)" fill="#1a2e48"/>
    <path id="Path_175988" data-name="Path 175988" d="M519.112,291.88H502.76v-.937q0-13.179,0-26.359c0-1.319.072-1.392,1.368-1.392q6.883,0,13.767,0c1.065,0,1.256.171,1.256,1.191q.007,13.431,0,26.862C519.153,291.439,519.128,291.631,519.112,291.88Zm-8.219-16.4c1.538,0,3.076,0,4.614,0,1.047,0,1.316-.249,1.321-1.261q.016-3.733,0-7.466c0-.977-.274-1.237-1.26-1.24q-4.614-.011-9.228,0c-1.034,0-1.255.215-1.259,1.221q-.015,3.775,0,7.55c0,.963.238,1.188,1.2,1.194C507.817,275.491,509.355,275.485,510.893,275.485Zm5.154,3.955-.2.1a5.089,5.089,0,0,0,.76,1.23c.136.127.893-.085.917-.221a7.363,7.363,0,0,0,.069-2.092c-.019-.162-.605-.391-.893-.347-.245.038-.486.4-.635.665C515.969,278.95,516.046,279.216,516.046,279.44Z" transform="translate(-45.225 -197.941)" fill="#1a2e48"/>
    <path id="Path_175989" data-name="Path 175989" d="M629.422,237.613q6.251,0,12.5,0c1.1,0,1.224.122,1.224,1.2q0,8.893,0,17.787c0,1.088-.13,1.221-1.2,1.221q-12.5,0-25,0c-1.087,0-1.222-.13-1.222-1.2q0-8.893,0-17.787c0-1.1.119-1.217,1.2-1.218Q623.171,237.609,629.422,237.613Z" transform="translate(-132.842 -178.1)" fill="#1a2e48"/>
    <path id="Path_175990" data-name="Path 175990" d="M529.186,287.99h-8.127v-6.3h8.127Z" transform="translate(-59.419 -212.286)" fill="#1a2e48"/>
  </g>
</svg>
