<svg xmlns="http://www.w3.org/2000/svg" xmlns:xlink="http://www.w3.org/1999/xlink" width="205.365" height="197.593" viewBox="0 0 205.365 197.593">
  <defs>
    <linearGradient id="linear-gradient" x1="1.522" y1="0.577" x2="-0.194" y2="0.422" gradientUnits="objectBoundingBox">
      <stop offset="0" stop-color="#ffde85"/>
      <stop offset="1" stop-color="#fbb26f"/>
    </linearGradient>
    <linearGradient id="linear-gradient-2" x1="1.524" y1="0.575" x2="-0.198" y2="0.428" xlink:href="#linear-gradient"/>
    <linearGradient id="linear-gradient-3" x1="0.589" y1="-1.51" x2="0.777" y2="-5.724" xlink:href="#linear-gradient"/>
    <linearGradient id="linear-gradient-4" x1="-0.225" y1="-3.694" x2="0.707" y2="1.7" xlink:href="#linear-gradient"/>
    <linearGradient id="linear-gradient-5" x1="3.54" y1="-21.013" x2="4.8" y2="-17.698" gradientUnits="objectBoundingBox">
      <stop offset="0" stop-color="#441d19"/>
      <stop offset="1" stop-color="#a06839"/>
    </linearGradient>
    <linearGradient id="linear-gradient-6" x1="-0.665" y1="-0.607" x2="0.752" y2="0.747" xlink:href="#linear-gradient-5"/>
    <linearGradient id="linear-gradient-8" x1="4.074" y1="-28.846" x2="5.28" y2="-24.929" xlink:href="#linear-gradient-5"/>
    <linearGradient id="linear-gradient-9" x1="2046.873" y1="0.029" x2="2050.189" y2="1.814" gradientUnits="objectBoundingBox">
      <stop offset="0" stop-color="#ffc444"/>
      <stop offset="0.996" stop-color="#f36f56"/>
    </linearGradient>
    <linearGradient id="linear-gradient-10" x1="819.708" y1="-0.747" x2="819.697" y2="-7.554" gradientUnits="objectBoundingBox">
      <stop offset="0" stop-color="#6fc34e"/>
      <stop offset="0.996" stop-color="#35a115"/>
    </linearGradient>
    <linearGradient id="linear-gradient-11" x1="23.516" y1="-131.217" x2="23.578" y2="-135.513" xlink:href="#linear-gradient-9"/>
    <linearGradient id="linear-gradient-12" x1="823.396" y1="-1.686" x2="823.385" y2="-8.492" xlink:href="#linear-gradient-10"/>
    <linearGradient id="linear-gradient-13" x1="35.427" y1="-132.282" x2="35.489" y2="-136.578" xlink:href="#linear-gradient-9"/>
    <linearGradient id="linear-gradient-14" x1="468.123" y1="0.162" x2="468.744" y2="0.831" gradientUnits="objectBoundingBox">
      <stop offset="0" stop-color="#441e19"/>
      <stop offset="1" stop-color="#895939"/>
    </linearGradient>
    <linearGradient id="linear-gradient-15" x1="4.551" y1="-5.271" x2="5.581" y2="-5.271" xlink:href="#linear-gradient-14"/>
    <linearGradient id="linear-gradient-16" x1="4.637" y1="-5.122" x2="5.846" y2="-5.122" xlink:href="#linear-gradient-14"/>
    <linearGradient id="linear-gradient-17" x1="215.953" y1="0.282" x2="216.438" y2="3.745" xlink:href="#linear-gradient-10"/>
    <linearGradient id="linear-gradient-18" x1="2.782" y1="-5.271" x2="3.18" y2="-3.448" xlink:href="#linear-gradient-10"/>
    <linearGradient id="linear-gradient-19" x1="3.714" y1="-7.216" x2="2.386" y2="-8.677" xlink:href="#linear-gradient-10"/>
    <linearGradient id="linear-gradient-20" x1="922.081" y1="-2.638" x2="920.926" y2="1.127" xlink:href="#linear-gradient-9"/>
    <linearGradient id="linear-gradient-21" x1="6.377" y1="-6.483" x2="7.101" y2="-4.274" xlink:href="#linear-gradient-10"/>
    <linearGradient id="linear-gradient-22" x1="-331.882" y1="52.911" x2="-331.882" y2="51.515" xlink:href="#linear-gradient-9"/>
    <linearGradient id="linear-gradient-23" x1="9.315" y1="-43.383" x2="8.597" y2="-44.97" gradientUnits="objectBoundingBox">
      <stop offset="0" stop-color="#444b8c"/>
      <stop offset="0.996" stop-color="#3e4177"/>
    </linearGradient>
    <linearGradient id="linear-gradient-24" x1="-836.906" y1="98.695" x2="-835.778" y2="96.319" xlink:href="#linear-gradient-9"/>
  </defs>
  <g id="Group_111481" data-name="Group 111481" transform="translate(-1562.571 -1959.162)">
    <path id="Path_172122" data-name="Path 172122" d="M1758.35,2043.56c-5.386-35.25-27.468-78.561-71.092-83.093,0,0-33.12-4.029-65.773,2.077-19.378,3.624-36.369,14.412-47.12,29.917a64.879,64.879,0,0,0-9.987,52.433c2.832,11.707,4.744,23.822,4.221,35.851-.915,20.937-.389,40.479,19.929,52.965,18.141,11.148,40.973,20.98,62.753,22.7a139.966,139.966,0,0,0,45.67-4.578C1769.66,2132.194,1763.736,2078.812,1758.35,2043.56Z" transform="translate(0 0)" fill="#f4f7fa"/>
    <g id="Group_111477" data-name="Group 111477" transform="translate(1593.33 1984.565)">
      <path id="Path_172123" data-name="Path 172123" d="M1679.278,2113.315a2.987,2.987,0,0,1-2.711,3.031l-95.257,4.948a2.964,2.964,0,0,1-3.172-2.968V1977a2.933,2.933,0,0,1,3.172-2.94l1.276-.067,93.981,5.878a3.024,3.024,0,0,1,2.711,3.057Z" transform="translate(-1578.138 -1970.089)" fill="#97a6b7"/>
      <path id="Path_172124" data-name="Path 172124" d="M1680.226,2113.252a2.986,2.986,0,0,1-2.711,3.031l-95.255,4.948a2.963,2.963,0,0,1-3.171-2.968V1976.937a2.932,2.932,0,0,1,3.171-2.938l95.255,5.812a3.02,3.02,0,0,1,2.711,3.057Z" transform="translate(-1577.211 -1970.09)" fill="#d8dee8"/>
      <path id="Path_172125" data-name="Path 172125" d="M1594.062,1986.141c-2.367,3.045-2.705,8.795,1.354,11.162,8.795,5.412,20.295,3.721,28.75-2.029,6.224-4.357,3.575-12.433,1.792-18.965l-18.734-1.144C1605.611,1979.672,1597.032,1982.183,1594.062,1986.141Z" transform="translate(-1564.302 -1968.946)" fill="#d8dee8" style="mix-blend-mode: multiply;isolation: isolate"/>
      <path id="Path_172126" data-name="Path 172126" d="M1673.166,2100.631a2.63,2.63,0,0,1-2.409,2.671l-86.251,4.037a2.611,2.611,0,0,1-2.774-2.622V1983.745a2.6,2.6,0,0,1,2.774-2.612l86.251,4.345a2.643,2.643,0,0,1,2.409,2.681Z" transform="translate(-1574.63 -1963.126)" fill="#fff"/>
      <path id="Path_172127" data-name="Path 172127" d="M1637.311,1990.522a1.534,1.534,0,0,0-1.442-1.306l-4.538-.244a3.661,3.661,0,0,1-3.438-3.969l.225-4.981a1.585,1.585,0,0,0-1.476-1.713l-1.466-.091a1.869,1.869,0,0,1-1.7-2.231,3.33,3.33,0,0,0-3.025-3.962,4.1,4.1,0,0,0-4.175,3.5,2.385,2.385,0,0,1-.826,1.458,2.207,2.207,0,0,1-1.545.53l-1.5-.093a2.016,2.016,0,0,0-2.012,1.521l-1.3,4.989a4.779,4.779,0,0,1-4.734,3.59l-4.776-.257a2.077,2.077,0,0,0-1.919,1.164l-3.426,6.878.294.377,43.964,1.71Zm-17.51-14.213a.978.978,0,0,1-.891-1.164,1.2,1.2,0,0,1,1.223-1.026.975.975,0,0,1,.887,1.162A1.2,1.2,0,0,1,1619.8,1976.309Z" transform="translate(-1562.422 -1972.018)" fill="#707c87"/>
      <path id="Path_172128" data-name="Path 172128" d="M1637.46,1990.713a1.532,1.532,0,0,0-1.442-1.306l-4.538-.243a3.663,3.663,0,0,1-3.438-3.972l.225-4.979a1.586,1.586,0,0,0-1.476-1.715l-1.466-.091a1.868,1.868,0,0,1-1.7-2.229,3.33,3.33,0,0,0-3.025-3.962,4.1,4.1,0,0,0-4.175,3.5,2.388,2.388,0,0,1-.826,1.46,2.214,2.214,0,0,1-1.543.529l-1.5-.093a2.016,2.016,0,0,0-2.013,1.52l-1.3,4.991a4.778,4.778,0,0,1-4.735,3.588l-4.776-.255a2.064,2.064,0,0,0-1.917,1.164l-3.428,6.878,44.259,2.087Zm-17.511-14.215a.975.975,0,0,1-.889-1.162,1.2,1.2,0,0,1,1.221-1.026.976.976,0,0,1,.889,1.162A1.2,1.2,0,0,1,1619.949,1976.5Z" transform="translate(-1562.276 -1971.832)" fill="#97a6b7"/>
      <g id="Group_111476" data-name="Group 111476" transform="translate(15.865 31.229)">
        <path id="Path_172129" data-name="Path 172129" d="M1635.9,1997.622l-40.838-1.65v-8.149l40.838,2Z" transform="translate(-1577.489 -1987.823)" fill="#d8dee8"/>
        <g id="Group_111472" data-name="Group 111472" transform="translate(41.819 20.998)">
          <path id="Path_172130" data-name="Path 172130" d="M1641.99,2006.6a.492.492,0,0,1-.45.536l-33.723-.755a.546.546,0,0,1-.486-.579V1999a.513.513,0,0,1,.486-.552l33.723,1.048a.523.523,0,0,1,.45.559Z" transform="translate(-1607.331 -1998.45)" fill="#d8dee8"/>
          <path id="Path_172131" data-name="Path 172131" d="M1641.99,2007.854a.5.5,0,0,1-.45.54l-33.723-.467a.54.54,0,0,1-.486-.573v-1.891a.521.521,0,0,1,.486-.559l33.723.577a.515.515,0,0,1,.45.553Z" transform="translate(-1607.331 -1992.151)" fill="#d8dee8"/>
          <path id="Path_172132" data-name="Path 172132" d="M1641.99,2011.219a.5.5,0,0,1-.45.543l-33.723-.2a.535.535,0,0,1-.486-.571V2009.1a.523.523,0,0,1,.486-.561l33.723.312a.51.51,0,0,1,.45.549Z" transform="translate(-1607.331 -1988.604)" fill="#d8dee8"/>
          <path id="Path_172133" data-name="Path 172133" d="M1641.99,2014.585a.5.5,0,0,1-.45.545l-33.723.063a.53.53,0,0,1-.486-.565v-1.891a.53.53,0,0,1,.486-.567l33.723.049a.505.505,0,0,1,.45.546Z" transform="translate(-1607.331 -1985.059)" fill="#d8dee8"/>
          <path id="Path_172134" data-name="Path 172134" d="M1641.99,2018.057a.511.511,0,0,1-.45.549l-33.723.328a.525.525,0,0,1-.486-.563v-1.891a.534.534,0,0,1,.486-.569l33.723-.215a.5.5,0,0,1,.45.541Z" transform="translate(-1607.331 -1981.619)" fill="#d8dee8"/>
        </g>
        <g id="Group_111473" data-name="Group 111473" transform="translate(0 19.497)">
          <path id="Path_172135" data-name="Path 172135" d="M1616.351,2036.909l-28.26.285a2.025,2.025,0,0,1-1.925-2.132V1999.78a1.971,1.971,0,0,1,1.925-2.089l28.26.883a2.032,2.032,0,0,1,1.8,2.136v34.1A1.977,1.977,0,0,1,1616.351,2036.909Z" transform="translate(-1586.167 -1997.689)" fill="#d8dee8"/>
          <path id="Path_172136" data-name="Path 172136" d="M1588.026,1998.642h.037l28.26.877a1.135,1.135,0,0,1,1,1.2v34.115a1.074,1.074,0,0,1-.964,1.138l-28.262.275a1.135,1.135,0,0,1-1.077-1.194v-35.272A1.07,1.07,0,0,1,1588.026,1998.642Zm0-.953a1.982,1.982,0,0,0-1.859,2.091v35.282a2.025,2.025,0,0,0,1.925,2.132l28.26-.285h.012a1.979,1.979,0,0,0,1.792-2.094v-34.1a2.032,2.032,0,0,0-1.8-2.136l-28.26-.883C1588.07,1997.69,1588.048,1997.69,1588.026,1997.69Z" transform="translate(-1586.167 -1997.69)" fill="#d8dee8"/>
        </g>
        <g id="Group_111474" data-name="Group 111474" transform="translate(0.456 73.153)">
          <path id="Path_172137" data-name="Path 172137" d="M1604.693,2027.961l-18.076.381a.225.225,0,0,1-.219-.239v-2.687a.236.236,0,0,1,.219-.247l18.076-.324a.223.223,0,0,1,.212.237v2.634A.235.235,0,0,1,1604.693,2027.961Z" transform="translate(-1586.398 -2024.845)" fill="#d8dee8"/>
          <path id="Path_172138" data-name="Path 172138" d="M1617.353,2030.99l-30.735.859a.225.225,0,0,1-.219-.239v-2.685a.239.239,0,0,1,.219-.251l30.735-.757a.216.216,0,0,1,.205.231v2.6A.233.233,0,0,1,1617.353,2030.99Z" transform="translate(-1586.398 -2021.846)" fill="#d8dee8"/>
          <path id="Path_172139" data-name="Path 172139" d="M1617.353,2034.177l-30.735,1.067a.222.222,0,0,1-.219-.237v-2.686a.241.241,0,0,1,.219-.251l30.735-.966a.214.214,0,0,1,.205.229v2.6A.233.233,0,0,1,1617.353,2034.177Z" transform="translate(-1586.398 -2018.735)" fill="#d8dee8"/>
          <path id="Path_172140" data-name="Path 172140" d="M1617.353,2037.365l-30.735,1.277a.222.222,0,0,1-.219-.235v-2.687a.245.245,0,0,1,.219-.253l30.735-1.176a.214.214,0,0,1,.205.229v2.6A.236.236,0,0,1,1617.353,2037.365Z" transform="translate(-1586.398 -2015.626)" fill="#d8dee8"/>
        </g>
        <g id="Group_111475" data-name="Group 111475" transform="translate(41.819 72.272)">
          <path id="Path_172141" data-name="Path 172141" d="M1633.622,2027.35l-26.092.552a.212.212,0,0,1-.2-.229V2025.1a.224.224,0,0,1,.2-.237l26.092-.466a.208.208,0,0,1,.19.225v2.5A.217.217,0,0,1,1633.622,2027.35Z" transform="translate(-1607.331 -2024.399)" fill="#d8dee8"/>
          <path id="Path_172142" data-name="Path 172142" d="M1641.354,2030.288l-33.824.947a.212.212,0,0,1-.2-.229v-2.571a.227.227,0,0,1,.2-.239l33.824-.832a.2.2,0,0,1,.186.219v2.474A.215.215,0,0,1,1641.354,2030.288Z" transform="translate(-1607.331 -2021.505)" fill="#d8dee8"/>
          <path id="Path_172143" data-name="Path 172143" d="M1641.354,2033.322l-33.824,1.176a.209.209,0,0,1-.2-.227V2031.7a.226.226,0,0,1,.2-.239l33.824-1.063a.2.2,0,0,1,.186.22v2.474A.217.217,0,0,1,1641.354,2033.322Z" transform="translate(-1607.331 -2018.544)" fill="#d8dee8"/>
          <path id="Path_172144" data-name="Path 172144" d="M1641.354,2036.356l-33.824,1.407a.209.209,0,0,1-.2-.227v-2.569a.229.229,0,0,1,.2-.242l33.824-1.293a.2.2,0,0,1,.186.218v2.474A.219.219,0,0,1,1641.354,2036.356Z" transform="translate(-1607.331 -2015.583)" fill="#d8dee8"/>
        </g>
      </g>
      <path id="Path_172145" data-name="Path 172145" d="M1636.018,1982.021l-4.538-.243a3.554,3.554,0,0,1-3.035-2c-4.207.88-8.639-.039-13.069.848-3.045.676-2.707,5.412-6.09,5.75a114.639,114.639,0,0,1-14.4.747l-.494.992,44.259,2.087-1.189-6.874A1.533,1.533,0,0,0,1636.018,1982.021Z" transform="translate(-1562.276 -1964.445)" fill="#97a6b7" opacity="0.3" style="mix-blend-mode: multiply;isolation: isolate"/>
    </g>
    <g id="Group_111478" data-name="Group 111478" transform="translate(1653.864 2070.999)">
      <path id="Path_172146" data-name="Path 172146" d="M1616.5,2042.744h-2.729s-3.258,9.953-4.725,11.419,1.99,5.865,36.179,5.5c23.318-.488,29.791-2.81,30.281-5.254s-2.624-5.252-2.594-6.718-4.062-4.944-4.062-4.944Z" transform="translate(-1608.773 -1989.429)" fill="url(#linear-gradient)"/>
      <path id="Path_172147" data-name="Path 172147" d="M1671.04,2047.688c.027-1.466-4.062-4.944-4.062-4.944H1611.9s-.506,1.543-1.207,3.5a11.374,11.374,0,0,0,7.093,1.925c3.829.173,7.483-1.567,10.964-.348,6.266,2.089,12.356,5.22,19.143,3.48,4.177-1.043,8.18-2.785,12.529-2.61,2.612,0,5.4,2.784,3.482,5.047-5.394,5.744-13.922,2.262-21.231,3.655-4.351.87-8.354.522-12.529.522-.524,0-1.219.521-1.741.521a53.247,53.247,0,0,1-7.771.516,221.042,221.042,0,0,0,22.723.705c23.318-.488,29.791-2.81,30.281-5.254S1671.01,2049.154,1671.04,2047.688Z" transform="translate(-1606.902 -1989.429)" opacity="0.3" fill="url(#linear-gradient-2)" style="mix-blend-mode: multiply;isolation: isolate"/>
      <ellipse id="Ellipse_5889" data-name="Ellipse 5889" cx="27.54" cy="2.622" rx="27.54" ry="2.622" transform="translate(4.996 50.694)" fill="url(#linear-gradient-3)"/>
      <ellipse id="Ellipse_5890" data-name="Ellipse 5890" cx="18.306" cy="1.706" rx="18.306" ry="1.706" transform="translate(14.229 50.694)" opacity="0.3" fill="url(#linear-gradient-4)" style="mix-blend-mode: multiply;isolation: isolate"/>
      <path id="Path_172148" data-name="Path 172148" d="M1631.476,2028.622s50.981,6.3,61.787,5.975,8.457,10.81,1.6,10.792-62.835-10.553-62.835-10.553Z" transform="translate(-1586.618 -2003.211)" fill="url(#linear-gradient-5)"/>
      <path id="Path_172149" data-name="Path 172149" d="M1632.874,2015.807a9.421,9.421,0,0,0-3.573,3.573c-1.768,3.276.01,5.378-1.466,9.346-1.308,3.513-3.074,2.861-4.074,6.246-1.095,3.7.869,4.977-.6,8.151-1.109,2.389-2.646,2.582-2.964,4.918-.049.364-.012.352.4,4.233.334,3.126.36,3.6,0,4.189-.585.96-1.456,1.031-2.156,2.424a4.443,4.443,0,0,0-.472,1.482c-.125,2.329,6.453,5.042,12.614,6.382,2.686.585,10.931,2.361,12.478-.4.285-.512.186-1.261.075-2.622-.176-2.15-.712-2.505-.628-3.574.15-1.913,1.97-2.148,3.215-4.3,1.3-2.241.037-3.217.741-6.738.828-4.133,2.786-3.888,3.637-7.949.761-3.614-.68-4.351.484-7.238,1.008-2.5,2.413-2.751,3.268-5.1a9.722,9.722,0,0,0-.182-6.43,30.8,30.8,0,0,0-20.8-6.6Z" transform="translate(-1599.801 -2015.762)" fill="url(#linear-gradient-6)"/>
      <path id="Path_172150" data-name="Path 172150" d="M1653.673,2022.4a30.8,30.8,0,0,0-20.8-6.6,9.816,9.816,0,0,0-3.077,2.77,18.161,18.161,0,0,1,12.626,1.3c.7.373,6.244,3.343,5.959,6.823-.182,2.24-2.578,2.207-3.938,5.3-1.61,3.663.994,5.42-.405,9.7-1.073,3.286-2.855,3.008-3.638,6.333-.767,3.258.822,4.047-.135,6.871-1.235,3.644-4.884,5.3-5.39,5.525a11.486,11.486,0,0,1-4.529.842,18.313,18.313,0,0,1-10.763-3.784,3.977,3.977,0,0,0-1.144,1.393,4.443,4.443,0,0,0-.472,1.482c-.125,2.329,6.453,5.042,12.614,6.382,2.686.585,10.931,2.361,12.478-.4.285-.512.186-1.261.075-2.622-.176-2.15-.712-2.505-.628-3.574.15-1.913,1.97-2.148,3.215-4.3,1.3-2.241.037-3.217.741-6.738.828-4.133,2.786-3.888,3.637-7.949.761-3.614-.68-4.351.484-7.238,1.008-2.5,2.413-2.751,3.268-5.1A9.722,9.722,0,0,0,1653.673,2022.4Z" transform="translate(-1599.801 -2015.762)" opacity="0.3" fill="url(#linear-gradient-6)" style="mix-blend-mode: multiply;isolation: isolate"/>
      <path id="Path_172151" data-name="Path 172151" d="M1691.521,2032.375a7.106,7.106,0,0,1-.367.642c-3.561,5.8-10.884,5.126-16.888,4.964-8.034-.036-15.359-3.338-23.063-5.881a17.8,17.8,0,0,0-15.924,1.729c15.217,2.818,50.516,9.243,55.874,9.257C1697.557,2043.1,1700.027,2033.393,1691.521,2032.375Z" transform="translate(-1582.907 -2000.908)" opacity="0.3" fill="url(#linear-gradient-8)" style="mix-blend-mode: multiply;isolation: isolate"/>
    </g>
    <g id="Group_111480" data-name="Group 111480" transform="translate(1598.623 2019.859)">
      <path id="Path_172152" data-name="Path 172152" d="M1612.394,2002.561s-.6-2.245-.174-2.818,3.017-2.869,2.768-2.12a4.8,4.8,0,0,1-.625,1.246s1.4.648.5,1.62-1.2,1.2-1.249,2.071S1612.993,2003.735,1612.394,2002.561Z" transform="translate(-1550.317 -1982.468)" fill="url(#linear-gradient-9)"/>
      <path id="Path_172153" data-name="Path 172153" d="M1599.758,2049.1a20.171,20.171,0,0,0-.277,2.632c.042.692,7.71,1.045,7.787.528s-1.269-1.342-2.215-1.633-3.717-1.066-3.717-1.066Z" transform="translate(-1562.603 -1932.09)" fill="url(#linear-gradient-10)"/>
      <path id="Path_172154" data-name="Path 172154" d="M1601.7,2048.155l-.243,2.414a1.744,1.744,0,0,1-1.676.135l-.393-2.628Z" transform="translate(-1562.688 -1933.085)" fill="url(#linear-gradient-11)"/>
      <path id="Path_172155" data-name="Path 172155" d="M1592.834,2050.689a19.821,19.821,0,0,0-.277,2.632c.04.692,7.708,1.045,7.785.528s-1.266-1.342-2.213-1.633-3.719-1.066-3.719-1.066Z" transform="translate(-1569.361 -1930.535)" fill="url(#linear-gradient-12)"/>
      <path id="Path_172156" data-name="Path 172156" d="M1594.781,2049.748l-.245,2.415a1.745,1.745,0,0,1-1.676.135l-.393-2.629Z" transform="translate(-1569.446 -1931.53)" fill="url(#linear-gradient-13)"/>
      <path id="Path_172157" data-name="Path 172157" d="M1604.849,2016.723q1.331,2.694,2.659,5.39c.713,10.257,1.067,21.409.84,33.334-.17,8.874-.644,17.28-1.324,25.169l-3.606-.166a35.958,35.958,0,0,1-3.98-15.126c-.2-6.728,1.844-7.621,1.715-14.062-.168-8.351-3.669-10.579-5.535-20.623a53.843,53.843,0,0,1-.625-14.944Q1599.924,2016.208,1604.849,2016.723Z" transform="translate(-1567.224 -1964.686)" fill="url(#linear-gradient-14)"/>
      <path id="Path_172158" data-name="Path 172158" d="M1594.995,2015.7q2.662.275,5.323.555c3.193,5.556,4.084,11.34,3.523,13.9-.792,3.618-2.889,4.777-2.774,8.411.115,3.6,2.233,4.529,3.577,8.767.931,2.934.685,5.632.156,10.907-1.067,10.626-3.632,13.876-1.484,17.362a7.864,7.864,0,0,0,3.869,3.068c-.053.652-.1,1.306-.16,1.95l-3.606-.166a35.958,35.958,0,0,1-3.98-15.126c-.2-6.728,1.844-7.621,1.715-14.062-.168-8.351-3.669-10.579-5.535-20.623A53.843,53.843,0,0,1,1594.995,2015.7Z" transform="translate(-1567.224 -1964.686)" opacity="0.3" fill="url(#linear-gradient-15)" style="mix-blend-mode: multiply;isolation: isolate"/>
      <path id="Path_172159" data-name="Path 172159" d="M1605.39,2019.107c-1.664,9.073-3.134,18.785-4.282,29.084-1.383,12.435-2.122,24.157-2.413,35.043l-3.958.113c-5.2-10.285-5.517-17.256-4.766-21.794a65.562,65.562,0,0,0,1.251-10.306,72.181,72.181,0,0,0-.387-9.56c-.624-7.168-1.381-8.731-1.49-14.215-.1-5.145-.124-7.747,1.346-9.267C1594.56,2014.2,1604.625,2018.754,1605.39,2019.107Z" transform="translate(-1572.533 -1963.835)" fill="url(#linear-gradient-16)"/>
      <path id="Path_172160" data-name="Path 172160" d="M1624.726,2002.853l2.63-.184c2.071,8.364.587,16.477-4.084,19.461-7.3,4.661-20.862-4.122-23.8-13.685-1.29-4.2-1-10.253,1.581-11.431.717-.326,1.828-.377,4.232.975,7.187,4.032,7.376,11.658,11.028,12.3C1617.937,2010.579,1620.561,2009.543,1624.726,2002.853Z" transform="translate(-1563.339 -1983.106)" fill="url(#linear-gradient-17)"/>
      <path id="Path_172161" data-name="Path 172161" d="M1617.617,2042.812c1.265-2.1-.324-4.12-.685-8.093-.409-4.5,1.326-5.254,3.041-12.717,1.142-4.962,2.237-9.728.928-15.306-.626-2.671-1.687-7.206-5.44-9.4-1.936-1.13-4.58-1.018-9.789-.745-6.441.336-9.662.506-12.063,1.77-.352.183-7.659,4.159-8.162,10.636-.512,6.594,6.669,7.481,7.627,16.274.431,3.946-.336,10.018-.834,13.954-.476,3.782-.8,4.75-.059,5.894,1.8,2.759,7.3,1.972,18.315.4C1614.815,2044.867,1616.674,2044.377,1617.617,2042.812Z" transform="translate(-1576.323 -1983.543)" fill="url(#linear-gradient-18)"/>
      <path id="Path_172162" data-name="Path 172162" d="M1600.863,2019.924c-.464,1.713-2.14,2.994-3.306,7.162-.251.9-2.043,7.309.283,8.886,1.341.911,2.547-.816,5.807-1.041,5.647-.389,8.339,4.357,12.027,3.061a5.06,5.06,0,0,0,2.33-1.806,3.732,3.732,0,0,1-.387,2.729c-.943,1.565-2.8,2.055-7.121,2.674-11.012,1.571-16.517,2.357-18.315-.4-.745-1.144-.417-2.112.059-5.894.5-3.936,1.265-10.008.834-13.954-.958-8.793-8.139-9.68-7.627-16.274a10.235,10.235,0,0,1,1.654-4.7C1596.21,2004.053,1602.327,2014.537,1600.863,2019.924Z" transform="translate(-1576.323 -1979.645)" fill="url(#linear-gradient-19)"/>
      <path id="Path_172163" data-name="Path 172163" d="M1587.414,2016.994l1.822,1.164a4.261,4.261,0,0,1,2.268-1.4c1.331-.293,2.861.126,2.9.553.03.34-.9.684-1.045.737-1.164.429-2.027.073-2.5.539a3.573,3.573,0,0,1-.849.759,2.621,2.621,0,0,1-.324.168c-.776.3-2.108-1.049-2.223-1.168Z" transform="translate(-1574.378 -1963.745)" fill="url(#linear-gradient-20)"/>
      <path id="Path_172164" data-name="Path 172164" d="M1599.237,2012.226c1.318-3.158,2.231-7.993.148-15.173-13.721,5.408-20.718,18.224-17.985,28.384,2.25,8.376,10.447,12.457,12.274,13.314q.637-1.452,1.276-2.9c-2.12-2.357-4.507-5.847-4.169-9.826C1591.25,2020.5,1596.568,2018.618,1599.237,2012.226Z" transform="translate(-1580.816 -1982.88)" fill="url(#linear-gradient-21)"/>
      <path id="Path_172165" data-name="Path 172165" d="M1598.429,1993.178a14.714,14.714,0,0,1-.854,4.2c-.674,1.625-4.215,2.646-4.932,3.007s1.343,1.423,3.416,1.632,7.986-.263,9.053-1.047-.857-.727-2.336-1.27-2.333-3.434-2.073-4.746S1598.429,1993.178,1598.429,1993.178Z" transform="translate(-1569.417 -1986.661)" fill="url(#linear-gradient-22)"/>
      <path id="Path_172166" data-name="Path 172166" d="M1600.014,1995.527c1.075-1.055,1.225-1.179,1.342-1.545a3.515,3.515,0,0,0-2.156-3.964c-.079-.025-1.077-.346-1.46.087-.324.368.154.877-.073,1.586-.211.664-.789.716-1.856,1.587-.879.717-1.427,1.164-1.553,1.79a3.06,3.06,0,0,0,2.693,3.118C1597.449,1998.169,1597.585,1997.914,1600.014,1995.527Z" transform="translate(-1567.726 -1989.88)" fill="url(#linear-gradient-23)"/>
      <g id="Group_111479" data-name="Group 111479" transform="translate(28.129 4.712)">
        <path id="Path_172167" data-name="Path 172167" d="M1596.285,1996.059a3.05,3.05,0,0,0,2.883.865c1.557-.382,1.16-3.958.02-4.531a2.026,2.026,0,0,0-1.593.077c-.306.148-.391.3-.9.533-.469.213-.617.184-.741.334-.158.19-.225.595.267,1.573a.869.869,0,0,0-.97-.136.522.522,0,0,0-.174.241C1594.931,1995.458,1595.391,1995.908,1596.285,1996.059Z" transform="translate(-1595.052 -1992.265)" fill="url(#linear-gradient-24)"/>
      </g>
    </g>
  </g>
</svg>
