<svg xmlns="http://www.w3.org/2000/svg" width="79.994" height="80" viewBox="0 0 79.994 80">
  <g id="Group_111249" data-name="Group 111249" transform="translate(-580.377 -159.621)">
    <path id="Path_171568" data-name="Path 171568" d="M625.664,202.4a6.66,6.66,0,0,1,5.088,4.708,7.2,7.2,0,0,1,.275,1.966c.029,2.943,0,5.886.024,8.829a1.833,1.833,0,0,1-.926,1.725c-.846.53-1.648,1.133-2.505,1.643a1.139,1.139,0,0,0-.591,1.146c.019,5.109.012,10.217.011,15.326,0,1.476-.4,1.879-1.871,1.879q-4.872,0-9.745,0c-1.256,0-1.714-.453-1.715-1.7,0-5.164-.01-10.328.012-15.492a1.2,1.2,0,0,0-.649-1.2c-.812-.478-1.555-1.071-2.366-1.55a1.964,1.964,0,0,1-1.012-1.929c.037-2.832.01-5.664.015-8.5a6.645,6.645,0,0,1,4.922-6.716l.476-.155a6.709,6.709,0,0,1-1.138-5.91,6.659,6.659,0,0,1,10.905-3.09C627.362,195.669,627.662,198.857,625.664,202.4Zm-1.29,34.525v-1c0-4.859.01-9.719-.011-14.578a1.826,1.826,0,0,1,.924-1.724c.872-.54,1.736-1.1,2.555-1.717a1.347,1.347,0,0,0,.509-.905c.039-2.665.039-5.331.016-8a3.97,3.97,0,0,0-4.079-4.043q-3.915-.027-7.831,0A3.969,3.969,0,0,0,612.38,209c-.021,2.666-.022,5.332.018,8a1.344,1.344,0,0,0,.514.9c.795.6,1.633,1.152,2.485,1.672a1.944,1.944,0,0,1,.99,1.86c-.026,4.859-.013,9.718-.013,14.578v.912Zm0-38.6a4,4,0,1,0-3.994,3.96A4.014,4.014,0,0,0,624.371,198.326Z" fill="#0f5c29"/>
    <path id="Path_171569" data-name="Path 171569" d="M648.411,159.625a12,12,0,1,1-12.037,11.917A12.022,12.022,0,0,1,648.411,159.625Zm-4.248,14.009c-1.665-3.008-1.353-5.686.827-7.461a5.311,5.311,0,0,1,6.818.048c2.136,1.8,2.429,4.457.775,7.4a6.967,6.967,0,0,1,3.269,3.415,9.124,9.124,0,0,0-.983-12.094,9.292,9.292,0,0,0-12.995,0c-3.307,3.146-3.811,8.925-.992,12.086A7,7,0,0,1,644.163,173.634Zm4.19,7.3a10.265,10.265,0,0,0,4.7-1.233.869.869,0,0,0,.479-1.2,4,4,0,0,0-3.521-2.861c-1.08-.056-2.166-.053-3.246,0a3.985,3.985,0,0,0-3.584,2.993.753.753,0,0,0,.412,1A9.95,9.95,0,0,0,648.353,180.939Zm.011-13.313a2.664,2.664,0,1,0,2.672,2.635A2.682,2.682,0,0,0,648.364,167.626Z" fill="#0f5c29"/>
    <path id="Path_171570" data-name="Path 171570" d="M580.377,196.906a12,12,0,1,1,11.992,12.048A12.02,12.02,0,0,1,580.377,196.906Zm19.5,5.5a9.3,9.3,0,0,0-14.661-11.424c-3.221,3.825-2.426,9.132-.358,11.252a18.069,18.069,0,0,1,1.439-1.9,17.845,17.845,0,0,1,1.849-1.487,5.325,5.325,0,0,1,7.652-7.314c2.164,1.8,2.472,4.584.768,7.41A6.93,6.93,0,0,1,599.874,202.411Zm-7.506,3.86a9.934,9.934,0,0,0,4.817-1.314.719.719,0,0,0,.389-.941,3.988,3.988,0,0,0-3.71-3.051c-1-.032-2-.033-3,0a4.03,4.03,0,0,0-3.642,2.823.906.906,0,0,0,.5,1.265A10.313,10.313,0,0,0,592.368,206.271Zm2.671-10.655a2.664,2.664,0,1,0-2.638,2.67A2.686,2.686,0,0,0,595.039,195.616Z" fill="#0f5c29"/>
    <path id="Path_171571" data-name="Path 171571" d="M621.421,180.956c-.36,1.429-.71,2.77-1.034,4.117-.151.626-.488,1.175-1.123,1.153a2.1,2.1,0,0,1-1.389-.666c-1.065-1.278-2.038-2.633-3.015-3.981a1.273,1.273,0,0,0-1.229-.637c-.829.056-1.665.032-2.5.008a1.307,1.307,0,0,1-1.416-1.4q-.03-3.914,0-7.829a1.3,1.3,0,0,1,1.4-1.42q6.579-.022,13.159,0a1.3,1.3,0,0,1,1.426,1.39q.031,3.915,0,7.829a1.326,1.326,0,0,1-1.471,1.435C623.314,180.971,622.4,180.956,621.421,180.956Zm-9.016-2.666c.282,0,.473,0,.665,0,3.071.043,2.306-.394,4.263,2.166.337.44.688.87,1.108,1.4.189-.769.331-1.361.48-1.951.353-1.4.634-1.615,2.061-1.616h2.012v-5.281H612.405Z" fill="#0f5c29"/>
    <path id="Path_171572" data-name="Path 171572" d="M603.162,174.165a1.328,1.328,0,0,1-1.962,1.279c-.994-.49-1.93-1.1-2.931-1.572a1.464,1.464,0,0,0-1.111,0c-.952.447-1.826,1.067-2.792,1.472a1.825,1.825,0,0,1-1.511-.038,1.844,1.844,0,0,1-.512-1.422,26.3,26.3,0,0,1,.5-3.2,1.3,1.3,0,0,0-.424-1.325,20.683,20.683,0,0,1-2.131-2.221,2.275,2.275,0,0,1-.481-1.468c.057-.638.667-.9,1.287-.985.988-.142,1.974-.3,2.964-.428a1.1,1.1,0,0,0,.988-.733c.419-.995.905-1.963,1.359-2.944.265-.573.693-1.068,1.325-.912a2.2,2.2,0,0,1,1.24.915,19.07,19.07,0,0,1,1.357,2.849,1.248,1.248,0,0,0,1.178.845c.881.1,1.757.252,2.635.375a1.571,1.571,0,0,1,1.5,1,1.525,1.525,0,0,1-.592,1.617c-.686.688-1.328,1.422-2.043,2.078a1.346,1.346,0,0,0-.418,1.4C602.8,171.9,602.976,173.051,603.162,174.165Zm-9.292-7.175a3.66,3.66,0,0,1,1.478,4.789c1.6-1.382,3.121-1.272,4.731-.048-.88-2.066-.143-3.512,1.493-4.757a3.418,3.418,0,0,1-3.874-2.808A3.378,3.378,0,0,1,593.87,166.99Z" fill="#0f5c29"/>
    <path id="Path_171573" data-name="Path 171573" d="M628.9,175.889c7.946,3.636,12.81,9.572,13.919,18.172,1.067,8.272-1.9,15.107-8.22,20.592-.223-.251-.392-.428-.544-.618-.381-.473-.755-.953-1.131-1.429a20.14,20.14,0,0,0-5.018-34.243Z" fill="#0f5c29"/>
    <path id="Path_171574" data-name="Path 171574" d="M650.955,211.17a10.647,10.647,0,0,1,1.012-1.217,3.954,3.954,0,0,1,5.313.053,3.836,3.836,0,0,1,.5,5.273c-1.939,2.17-4.057,4.183-6.138,6.222a1.172,1.172,0,0,1-1.733-.05c-2.015-1.989-4.062-3.952-5.981-6.032a3.842,3.842,0,0,1,.289-5.288,4.047,4.047,0,0,1,5.391-.22C650.015,210.246,650.38,210.628,650.955,211.17Zm-.167,7.462c1.615-1.616,3.155-3.136,4.67-4.681a1.326,1.326,0,0,0,.052-1.934,1.309,1.309,0,0,0-1.93.063c-.589.549-1.133,1.146-1.717,1.7a1.322,1.322,0,0,1-2.111-.009c-.582-.556-1.127-1.15-1.716-1.7a1.331,1.331,0,1,0-1.877,1.882C647.668,215.505,649.2,217.033,650.788,218.632Z" fill="#0f5c29"/>
    <path id="Path_171575" data-name="Path 171575" d="M635.618,162.967l-1.135,2.412a33.738,33.738,0,0,0-26.95-.551l-1.037-2.451A36.357,36.357,0,0,1,635.618,162.967Z" fill="#0f5c29"/>
    <path id="Path_171576" data-name="Path 171576" d="M611.184,227.667l-.74,2.576a36.4,36.4,0,0,1-22-17.936,3.274,3.274,0,0,1,.332-.239c.635-.336,1.273-.666,2.013-1.051a33.851,33.851,0,0,0,8.459,10.373A33.431,33.431,0,0,0,611.184,227.667Z" fill="#0f5c29"/>
    <path id="Path_171577" data-name="Path 171577" d="M652.493,186.656l2.558-.715a36.187,36.187,0,0,1-.416,20.745l-2.515-.811a35.549,35.549,0,0,0,1.581-9.59A34.627,34.627,0,0,0,652.493,186.656Z" fill="#0f5c29"/>
    <path id="Path_171578" data-name="Path 171578" d="M643.133,219.983l1.808,1.946a36.265,36.265,0,0,1-14.862,8.371l-.728-2.557A33.948,33.948,0,0,0,643.133,219.983Z" fill="#0f5c29"/>
    <path id="Path_171579" data-name="Path 171579" d="M600.755,185.619a22.373,22.373,0,0,1,5.456-6.344l1.521,1.892-4.885,5.666Z" fill="#0f5c29"/>
    <path id="Path_171580" data-name="Path 171580" d="M607.729,212.751l-1.517,1.882a22.241,22.241,0,0,1-5.456-6.342l2.1-1.222Z" fill="#0f5c29"/>
    <path id="Path_171581" data-name="Path 171581" d="M589.539,182.742l-2.457-1.025,2.762-5.325,2.26,1.418Z" fill="#0f5c29"/>
  </g>
</svg>
