<svg xmlns="http://www.w3.org/2000/svg" width="63.373" height="80" viewBox="0 0 63.373 80">
  <g id="Group_111461" data-name="Group 111461" transform="translate(-588.928 -160)">
    <path id="Path_172053" data-name="Path 172053" d="M598.487,240c-1.469-.664-1.176-2.025-1.23-3.26-.677-.112-1.32-.179-1.944-.329a8.307,8.307,0,0,1-.441-16.028c.65-.19.774-.463.774-1.07q-.023-25.074-.01-50.148a7.774,7.774,0,0,1,.046-1.091,1.57,1.57,0,0,1,1.475-1.369,1.545,1.545,0,0,1,1.67,1.118,4.661,4.661,0,0,1,.124,1.233q.009,24.957.005,49.915v.977h49.956v-56.58c-.242-.016-.468-.044-.7-.044q-25.23,0-50.461,0c-2.7,0-4.663,1.384-5.274,3.753a8.186,8.186,0,0,0-.2,2.011q-.015,24.214-.009,48.43a7.484,7.484,0,0,1-.049,1.091,1.617,1.617,0,0,1-3.149.218,4.012,4.012,0,0,1-.118-1.078c-.006-16.326.038-32.652-.033-48.977a8.583,8.583,0,0,1,7.027-8.653c.067-.009.126-.079.189-.12h53.437c2.033.662,2.725,2.094,2.72,4.18q-.059,27.534-.024,55.067c0,.338,0,.677-.025,1.014a3.165,3.165,0,0,1-2.269,2.869,6.549,6.549,0,0,1-1.771.185q-24.877.014-49.755.01c-.52,0-1.041.019-1.559.062a4.958,4.958,0,0,0-4.284,6.68,4.7,4.7,0,0,0,4.664,3.13c0-1.469-.009-2.948,0-4.427s.619-2.083,2.09-2.09c1.875-.009,3.749,0,5.624,0,1.766,0,2.28.514,2.283,2.271,0,1.425,0,2.851,0,4.373h1.078q20.738,0,41.475,0a5.775,5.775,0,0,1,1.161.1,1.613,1.613,0,0,1,.034,3.143,6.032,6.032,0,0,1-1.238.106q-20.738.008-41.476.006c-.325,0-.651.028-.96.042-.317,2.63-.317,2.63-1.208,3.278h-.938c-.847-.426-1.687-.869-2.547-1.266a.943.943,0,0,0-.7-.014c-.856.4-1.689.849-2.53,1.28Zm2.206-9.975v5.607a2.515,2.515,0,0,1,3.208-.017v-5.59Z" fill="#0f5c29"/>
    <path id="Path_172054" data-name="Path 172054" d="M612.381,173.607c.472.241.9.416,1.285.662a3.265,3.265,0,0,0,5.277-2.21c.261-1.273.6-1.576,1.891-1.791a19.157,19.157,0,0,1,6.294,0c1.233.2,1.607.527,1.837,1.755a3.265,3.265,0,0,0,2.683,2.87,3.113,3.113,0,0,0,2.442-.524c1.379-.9,1.8-.951,3.034.162a53.75,53.75,0,0,1,4.01,4.021c1.069,1.19,1.017,1.6.127,2.973a3.235,3.235,0,0,0,1.433,4.878,6.257,6.257,0,0,0,1.2.308,1.668,1.668,0,0,1,1.422,1.464,21.342,21.342,0,0,1-.006,6.993c-.174,1.042-.938,1.395-1.888,1.557a3.128,3.128,0,0,0-2.688,2.576,3.083,3.083,0,0,0,.488,2.452c.938,1.432.987,1.817-.159,3.1a53.379,53.379,0,0,1-4.025,4.006c-1.123,1.014-1.634.967-2.917.132a3.2,3.2,0,0,0-4.452.659,4.9,4.9,0,0,0-.7,1.7c-.29,1.148-.641,1.534-1.814,1.718a21.06,21.06,0,0,1-6.453-.006c-1.119-.17-1.586-.565-1.737-1.682a3.344,3.344,0,0,0-5.427-2.258,1.631,1.631,0,0,1-2.461-.094c-1.469-1.351-2.92-2.733-4.26-4.21-1.119-1.233-1.059-1.633-.158-3.034a3.24,3.24,0,0,0-1.461-4.873,6.278,6.278,0,0,0-1.207-.3,1.658,1.658,0,0,1-1.4-1.48,21.149,21.149,0,0,1-.006-6.916,1.735,1.735,0,0,1,1.621-1.536,3.251,3.251,0,0,0,2.951-2.6,3.124,3.124,0,0,0-.486-2.525c-.918-1.4-.975-1.817.134-3.033,1.361-1.492,2.849-2.872,4.32-4.261A5.392,5.392,0,0,1,612.381,173.607Zm25.859,29.769-.106-.211c-.106-.237-.217-.472-.316-.712a6.353,6.353,0,0,1,2.919-8.218c1.505-.693,1.6-1.613,1.524-2.879a5.486,5.486,0,0,1-.026-.858c.053-.534-.193-.76-.68-.949a6.362,6.362,0,0,1-3.912-7.988,2.321,2.321,0,0,0-.89-2.982,7.737,7.737,0,0,1-.748-.686.781.781,0,0,0-1.074-.177,6.4,6.4,0,0,1-8.5-2.984c-.609-1.366-1.473-1.4-2.577-1.4a6.256,6.256,0,0,0-1.32.111.9.9,0,0,0-.59.44,6.674,6.674,0,0,1-9.163,3.77.739.739,0,0,0-.663.084q-1.089,1-2.094,2.1a.737.737,0,0,0-.083.662,6.678,6.678,0,0,1-3.764,9.166.9.9,0,0,0-.461.657,22.8,22.8,0,0,0,0,2.73.922.922,0,0,0,.481.647,6.624,6.624,0,0,1,3.77,9.1.9.9,0,0,0,.134.782c.584.661,1.246,1.253,1.849,1.9a.762.762,0,0,0,1.023.151,6.561,6.561,0,0,1,8.906,3.725.734.734,0,0,0,.778.58c.858-.007,1.716-.013,2.574,0,.458.007.656-.2.825-.633a6.566,6.566,0,0,1,8.938-3.652.733.733,0,0,0,.953-.154C636.7,204.768,637.474,204.078,638.24,203.376Z" fill="#0f5c29"/>
    <path id="Path_172055" data-name="Path 172055" d="M602.325,216.677v-3.352c.991,0,1.943-.022,2.892.022.146.007.387.308.4.483a18.915,18.915,0,0,1,0,2.333.7.7,0,0,1-.465.491C604.241,216.7,603.333,216.677,602.325,216.677Z" fill="#0f5c29"/>
    <path id="Path_172056" data-name="Path 172056" d="M642.28,213.371h3.306v3.3c-1.011,0-1.988.014-2.964-.018-.118,0-.322-.257-.326-.4C642.266,215.323,642.28,214.391,642.28,213.371Z" fill="#0f5c29"/>
    <path id="Path_172057" data-name="Path 172057" d="M602.315,169.952v-3.2h3.27v3.2Z" fill="#0f5c29"/>
    <path id="Path_172058" data-name="Path 172058" d="M645.583,169.979h-3.24v-3.26h3.24Z" fill="#0f5c29"/>
    <path id="Path_172059" data-name="Path 172059" d="M629.8,226.678h16.862c1.485,0,2.275.571,2.286,1.643s-.8,1.679-2.26,1.679q-16.9,0-33.8-.006a3.963,3.963,0,0,1-1.152-.137,1.548,1.548,0,0,1-1.063-1.706A1.567,1.567,0,0,1,612,226.729a6.681,6.681,0,0,1,1.011-.049Q621.4,226.676,629.8,226.678Z" fill="#0f5c29"/>
    <path id="Path_172060" data-name="Path 172060" d="M632.272,191.664a8.316,8.316,0,1,1-8.281-8.335A8.337,8.337,0,0,1,632.272,191.664Zm-8.347-4.974a4.986,4.986,0,1,0,5.026,4.984A5,5,0,0,0,623.925,186.69Z" fill="#0f5c29"/>
  </g>
</svg>
