<svg xmlns="http://www.w3.org/2000/svg" width="620" height="317" viewBox="0 0 620 317">
  <g id="Group_111904" data-name="Group 111904" transform="translate(10078 20371)">
    <rect id="Rectangle_37313" data-name="Rectangle 37313" width="620" height="317" transform="translate(-10078 -20371)" fill="#55f58b" opacity="0.7"/>
    <g id="Group_111404" data-name="Group 111404" transform="translate(-10388.359 -20411.557)">
      <path id="Path_172001" data-name="Path 172001" d="M560.988,171.188H581.56v1.966q0,25.611,0,51.221c0,8.6,5.4,13.972,14.034,13.973q24.8,0,49.6,0c8.518,0,13.934-5.405,13.936-13.911q.006-25.609,0-51.221V171.21h20.607V243.4H560.988Zm5.129,10.153h10.14v-4.97h-10.14Zm-.035,10.325h10.2v-4.917h-10.2Zm108.492.249h-10.14v4.971h10.14ZM566.118,202.03h10.14v-4.972h-10.14Zm98.262,5.2h10.16v-4.965H664.38Zm-88.068.178H566.151v4.966h10.161Zm98.261,5.168H664.4v4.974h10.169Zm-.02,15.355v-4.991H664.424v4.991ZM664.38,238.259h10.16v-4.965H664.38Z" fill="#0f5c29"/>
      <path id="Path_172002" data-name="Path 172002" d="M695.312,259.155c0,2.8.1,5.5-.024,8.182a7.707,7.707,0,0,1-7.231,7.2c-.591.037-1.185.02-1.777.02H554.41c-6.077,0-9.048-2.954-9.05-8.992v-6.406Zm-62.129,10.153v-5H607.537v5Zm-31.011-4.987H597.2V269.3h4.971Zm41.31,5.025v-5.029h-4.914v5.029Z" fill="#0f5c29"/>
      <path id="Path_172003" data-name="Path 172003" d="M659.2,165.812v-4.968c.473-.028.887-.073,1.3-.073,7.217,0,14.435-.022,21.652,0a7.689,7.689,0,0,1,8,7.922q.03,42.016.008,84.034c0,.314-.028.628-.047,1.036H550.532v-1.776q0-41.289,0-82.579c0-5.5,3.12-8.639,8.584-8.643q10.341-.007,20.683,0h1.669v5.172H579.81q-9.129,0-18.259,0c-3.811,0-5.846,2.06-5.846,5.911q-.006,35.472,0,70.944c0,3.86,2.023,5.893,5.868,5.894q58.735,0,117.471,0c3.949,0,5.942-2.008,5.943-5.983q0-35.391,0-70.782,0-5.975-5.939-5.985-9.694-.013-19.389-.019A2.7,2.7,0,0,1,659.2,165.812Z" fill="#0f5c29"/>
      <path id="Path_172004" data-name="Path 172004" d="M586.844,145.325h67.032v67.036H586.844Zm61.828,61.922V150.555H591.991v56.692Z" fill="#0f5c29"/>
      <path id="Path_172005" data-name="Path 172005" d="M586.767,139.972c0-2.89-.157-5.691.037-8.467a7.634,7.634,0,0,1,7.785-6.93c7.7-.034,15.391-.011,23.087-.011q13.884,0,27.768,0c5.366,0,8.5,3.157,8.515,8.54.005,2.253,0,4.506,0,6.867Zm38.674-10.126H604.96v4.98h20.481Zm10.343-.02h-4.991v4.963h4.991Z" fill="#0f5c29"/>
      <path id="Path_172006" data-name="Path 172006" d="M653.941,217.778c0,2.806.105,5.5-.025,8.182a7.678,7.678,0,0,1-7.876,7.206c-10.02.029-20.039.01-30.059.01q-10.424,0-20.847,0c-5.168-.007-8.384-3.208-8.4-8.343-.008-2.312,0-4.624,0-7.053ZM607.495,227.9h25.653v-4.985H607.495Zm-10.345.017h4.991v-4.963H597.15Zm46.332.056v-5.029h-4.914v5.029Z" fill="#0f5c29"/>
      <path id="Path_172007" data-name="Path 172007" d="M625.441,129.846v4.98H604.96v-4.98Z" fill="#0f5c29"/>
      <path id="Path_172008" data-name="Path 172008" d="M635.784,129.826v4.963h-4.991v-4.963Z" fill="#0f5c29"/>
      <path id="Path_172009" data-name="Path 172009" d="M643.547,155.712v46.345H597.2V155.712ZM602.36,196.846h35.971c.96-7.688-3.3-11.7-9.307-13.921.6-2.419,1.286-4.552,1.613-6.738a31.1,31.1,0,0,0,.042-5.163,10.372,10.372,0,0,0-9.36-10.219,10.093,10.093,0,0,0-10.941,8.23c-.74,4.6-1.207,9.331,1.822,13.728C605.6,185.166,601.4,189.208,602.36,196.846Z" fill="#0f5c29"/>
      <path id="Path_172010" data-name="Path 172010" d="M632.37,191.715H608.392l-.312-.326a19.649,19.649,0,0,1,2.653-2.176c1.957-1.116,4.045-2,6.01-3.107a2.468,2.468,0,0,0,.975-1.546,7.62,7.62,0,0,0,.01-2.57,3.387,3.387,0,0,0-.765-1.785,5.749,5.749,0,0,1-1.8-4.333c.037-1.506-.036-3.016.024-4.521a5.41,5.41,0,0,1,5.3-5.408c2.919.072,5,2.376,5.025,5.59.012,1.453-.025,2.907.009,4.36a5.184,5.184,0,0,1-1.727,4.185c-1.638,1.459-.687,3.336-.761,5-.021.473,1.1,1.1,1.8,1.482,1.7.929,3.492,1.679,5.16,2.651a20.938,20.938,0,0,1,2.625,2.138Z" fill="#0f5c29"/>
    </g>
  </g>
</svg>
