<svg xmlns="http://www.w3.org/2000/svg" width="87.983" height="88" viewBox="0 0 87.983 88">
  <g id="Group_111506" data-name="Group 111506" transform="translate(-207.273 166.123)">
    <path id="Path_172265" data-name="Path 172265" d="M219.858-103.681c-.835,0-1.6,0-2.361,0a7.1,7.1,0,0,0-7.382,7.364c-.008,2.158.015,4.315-.022,6.472a1.092,1.092,0,0,1-.441.81,4.339,4.339,0,0,0-2.379,4.139c.012,1.537,0,3.074,0,4.611,0,1.765.376,2.148,2.109,2.148q34.8,0,69.594.014a2.737,2.737,0,0,0,2.116-.862q6.617-6.674,13.29-13.293a2.735,2.735,0,0,0,.871-2.113q-.034-14.808-.014-29.617,0-15.829,0-31.657c0-1.5-.445-1.94-1.959-1.942q-2.172,0-4.344,0h-2.209c0-2.231,0-4.328,0-6.425,0-1.694-.393-2.09-2.078-2.09h-55.41c-1.729,0-2.1.382-2.1,2.153q0,18.311,0,36.623v1.079c-.272-.035-.445-.061-.619-.079a7.066,7.066,0,0,0-7.873,6.986c-.006,2.272.118,4.55.3,6.816C219.185-109.632,219.54-106.729,219.858-103.681Z" fill="#fff"/>
    <path id="Path_172266" data-name="Path 172266" d="M219.858-103.681c-.318-3.048-.673-5.951-.909-8.864-.184-2.266-.308-4.544-.3-6.816a7.066,7.066,0,0,1,7.873-6.986c.174.018.347.044.619.079v-1.079q0-18.312,0-36.623c0-1.771.373-2.153,2.1-2.153h55.41c1.685,0,2.077.4,2.078,2.09,0,2.1,0,4.193,0,6.425h2.209q2.172,0,4.344,0c1.514,0,1.959.44,1.959,1.942q0,15.828,0,31.657,0,14.809.014,29.617a2.735,2.735,0,0,1-.871,2.113q-6.672,6.619-13.29,13.293a2.737,2.737,0,0,1-2.116.862q-34.8-.026-69.594-.014c-1.734,0-2.109-.383-2.109-2.148,0-1.537.009-3.074,0-4.611a4.339,4.339,0,0,1,2.379-4.139,1.092,1.092,0,0,0,.441-.81c.036-2.157.014-4.315.022-6.472a7.1,7.1,0,0,1,7.382-7.364C218.26-103.684,219.023-103.681,219.858-103.681Zm72.483,8.515V-154.7H238.489v35.978c0,5.232-.007,10.463.015,15.695a1.613,1.613,0,0,0,.361,1.083,7.355,7.355,0,0,1,2.465,5.755c-.019,2.1-.013,4.2.007,6.3,0,.257.083.664.252.746,2.158,1.052,2.7,2.884,2.584,5.089-.054,1.017-.009,2.039-.009,3.035h34.051v-1q0-5.72,0-11.439c0-1.171.513-1.676,1.664-1.7.3-.006.591,0,.886,0Zm-56.689-8.515v-.982q0-25.405,0-50.811c0-1.756.376-2.134,2.121-2.134h46.048v-5.631H229.977v.731q0,18.444.022,36.889a1.741,1.741,0,0,0,.508,1.1,6.89,6.89,0,0,1,2.286,5.2c-.07,2.8-.235,5.608-.452,8.4-.185,2.381-.5,4.751-.772,7.228Zm2.787,14.159a3.4,3.4,0,0,0,.046-.352c0-2.215.02-4.43,0-6.644a4.217,4.217,0,0,0-4.318-4.319q-8.459-.025-16.917,0a4.222,4.222,0,0,0-4.294,4.343c-.017,2.126-.005,4.252,0,6.378a5.144,5.144,0,0,0,.068.593Zm-28.321,8.489h31.209c0-1.293,0-2.529,0-3.766-.005-1.382-.476-1.852-1.869-1.852q-13.732,0-27.464,0c-.148,0-.3-.007-.443,0a1.38,1.38,0,0,0-1.422,1.4C210.092-83.868,210.118-82.483,210.118-81.033ZM228.7-103.727c.167-1.467.373-2.869.479-4.279.286-3.8.612-7.59.761-11.392a4.135,4.135,0,0,0-4.2-4.149,4.227,4.227,0,0,0-4.269,4.1c-.09,5.268.689,10.467,1.267,15.722Zm52.389,20.753c1.66-1.678,3.155-3.192,4.654-4.7s3-3.01,4.584-4.6h-9.238Z"/>
    <path id="Path_172267" data-name="Path 172267" d="M392.9-58.367H381.333c-.3,0-.591,0-.886,0-1.151.024-1.661.53-1.664,1.7q-.012,5.719,0,11.439v1H344.728c0-1-.045-2.018.009-3.035.117-2.2-.425-4.036-2.584-5.089-.169-.082-.249-.489-.252-.746-.02-2.1-.026-4.2-.007-6.3a7.355,7.355,0,0,0-2.465-5.755,1.613,1.613,0,0,1-.361-1.083c-.022-5.232-.015-10.463-.015-15.695V-117.9H392.9Zm-26.942-53.922a17.04,17.04,0,0,0-16.976,16.982,17.063,17.063,0,0,0,16.893,17.071,17.048,17.048,0,0,0,17.152-16.9A17.025,17.025,0,0,0,365.962-112.289Zm24.126,36.953H341.961V-72.6h48.126Zm-48.159,8.391h48.158v-2.726H341.928Z" transform="translate(-100.563 -36.799)" fill="#72e676"/>
    <path id="Path_172268" data-name="Path 172268" d="M308.792-94.392h-4.084c.27-2.477.587-4.847.772-7.228.217-2.8.382-5.6.452-8.4a6.89,6.89,0,0,0-2.286-5.2,1.741,1.741,0,0,1-.508-1.1q-.039-18.444-.022-36.889v-.731h53.845v5.631H310.914c-1.746,0-2.121.378-2.121,2.134q0,25.405,0,50.811Z" transform="translate(-73.14 -9.29)" fill="#72e676"/>
    <path id="Path_172269" data-name="Path 172269" d="M256.714,120.761H231.3a5.141,5.141,0,0,1-.068-.593c0-2.126-.017-4.252,0-6.378a4.222,4.222,0,0,1,4.294-4.343q8.458-.029,16.917,0a4.217,4.217,0,0,1,4.318,4.318c.021,2.215,0,4.43,0,6.644A3.4,3.4,0,0,1,256.714,120.761Zm-2.83-5.585H234.133v2.735h19.751Z" transform="translate(-18.275 -210.283)" fill="#72e676"/>
    <path id="Path_172270" data-name="Path 172270" d="M219.253,174.987c0-1.45-.026-2.835.01-4.219a1.38,1.38,0,0,1,1.422-1.4c.147-.011.3,0,.443,0q13.732,0,27.464,0c1.394,0,1.864.469,1.869,1.852,0,1.236,0,2.473,0,3.766Z" transform="translate(-9.135 -256.02)" fill="#f1b732"/>
    <path id="Path_172271" data-name="Path 172271" d="M274.438,33.436h-5.959c-.578-5.255-1.357-10.454-1.267-15.722a4.227,4.227,0,0,1,4.269-4.1,4.135,4.135,0,0,1,4.2,4.149c-.148,3.8-.474,7.6-.761,11.392C274.81,30.567,274.605,31.969,274.438,33.436ZM272.8,19.259V16.5h-2.712v2.759Z" transform="translate(-45.735 -137.163)" fill="#f1b732"/>
    <path id="Path_172272" data-name="Path 172272" d="M518.905,154.935v-9.3h9.238c-1.585,1.59-3.087,3.093-4.584,4.6S520.565,153.257,518.905,154.935Z" transform="translate(-237.813 -237.909)" fill="#72e676"/>
    <path id="Path_172273" data-name="Path 172273" d="M397.964-94.21a17.025,17.025,0,0,1,17.069,17.155,17.048,17.048,0,0,1-17.152,16.9,17.063,17.063,0,0,1-16.893-17.071A17.04,17.04,0,0,1,397.964-94.21ZM412.2-77.234A14.2,14.2,0,0,0,397.92-91.376a14.215,14.215,0,0,0-14.1,14.147A14.2,14.2,0,0,0,397.924-63,14.192,14.192,0,0,0,412.2-77.234Z" transform="translate(-132.565 -54.878)"/>
    <path id="Path_172274" data-name="Path 172274" d="M399.461,61.789v2.734H351.335V61.789Z" transform="translate(-109.937 -173.925)"/>
    <path id="Path_172275" data-name="Path 172275" d="M351.2,88.429V85.7h48.158v2.726Z" transform="translate(-109.831 -192.174)"/>
    <path id="Path_172276" data-name="Path 172276" d="M263.268,133.678v2.735H243.517v-2.735Z" transform="translate(-27.658 -228.785)"/>
    <path id="Path_172277" data-name="Path 172277" d="M282.1,28.548h-2.712V25.789H282.1Z" transform="translate(-55.036 -146.453)"/>
    <path id="Path_172278" data-name="Path 172278" d="M421.338-68.1a14.192,14.192,0,0,1-14.272,14.235,14.2,14.2,0,0,1-14.1-14.229,14.215,14.215,0,0,1,14.1-14.147A14.2,14.2,0,0,1,421.338-68.1Zm-17.078-1.95c-.565-.589-1.076-1.155-1.623-1.684a1.429,1.429,0,0,0-2.312,0q-1.992,1.954-3.945,3.947a1.424,1.424,0,0,0,0,2.311q3.366,3.4,6.763,6.767a1.446,1.446,0,0,0,2.377-.021q6.179-6.16,12.339-12.341c.9-.9.88-1.584-.034-2.508q-1.838-1.858-3.7-3.7c-.985-.976-1.627-.965-2.631.037q-3.229,3.222-6.453,6.451C404.82-70.568,404.582-70.356,404.26-70.053Z" transform="translate(-141.707 -64.009)" fill="#f1b732"/>
    <path id="Path_172279" data-name="Path 172279" d="M413.342-56.387c.323-.3.56-.514.785-.739q3.228-3.224,6.453-6.451c1-1,1.646-1.013,2.631-.037q1.857,1.839,3.7,3.7c.914.924.931,1.608.034,2.508Q420.778-51.23,414.6-45.069a1.446,1.446,0,0,1-2.377.021q-3.4-3.369-6.763-6.767a1.424,1.424,0,0,1,0-2.311q1.955-1.992,3.945-3.947a1.429,1.429,0,0,1,2.312,0C412.265-57.542,412.777-56.976,413.342-56.387Zm10.607-2.166-2.168-2.21c-2.357,2.359-4.751,4.765-7.158,7.157a1.477,1.477,0,0,1-2.443,0c-.539-.523-1.065-1.061-1.463-1.458l-2.185,1.971,4.97,4.972Z" transform="translate(-150.789 -77.676)"/>
    <path id="Path_172280" data-name="Path 172280" d="M435.748-47.04,425.3-36.6l-4.97-4.972,2.185-1.971c.4.4.924.935,1.463,1.458a1.477,1.477,0,0,0,2.443,0c2.406-2.393,4.8-4.8,7.158-7.157Z" transform="translate(-162.589 -89.189)" fill="#72e676"/>
  </g>
</svg>
