<svg xmlns="http://www.w3.org/2000/svg" width="88.617" height="80" viewBox="0 0 88.617 80">
  <g id="Group_111463" data-name="Group 111463" transform="translate(-575.891 -160.215)">
    <path id="Path_172072" data-name="Path 172072" d="M664.508,234.655c-.1.2-.205.394-.292.6a4.131,4.131,0,0,1-3.676,2.716c-.4.031-.807.033-1.21.033q-15.662,0-31.322-.009a1.821,1.821,0,0,0-1.445.572,5.591,5.591,0,0,1-4.062,1.63q-2.379.042-4.759,0a6.125,6.125,0,0,1-4.213-1.727,2.055,2.055,0,0,0-1.3-.445q-15.661-.036-31.322-.024a7.785,7.785,0,0,1-1.8-.143,4.2,4.2,0,0,1-3.193-3.762c-.032-.373-.024-.75-.025-1.124q0-21.632,0-43.263c0-3.61,1.415-5.087,5.012-5.236a3.5,3.5,0,0,0,.368-.053c.019-.213.041-.407.052-.6.124-2.286,1.272-3.38,3.586-3.391,2.1-.009,4.211,0,6.316,0h8.407c0-.589-.01-1.1,0-1.606a3.35,3.35,0,0,1,3.175-3.545,1.919,1.919,0,0,0,1.19-2.908,3.337,3.337,0,0,1,.287-4.746q1.358-1.395,2.752-2.753a3.325,3.325,0,0,1,4.743-.311,1.891,1.891,0,0,0,2.906-1.225,3.341,3.341,0,0,1,3.518-3.1q1.989-.018,3.98,0a3.3,3.3,0,0,1,3.53,3.162c.06.587.211.987.816,1.137.665.164,1.208.8,2.028.116,1.662-1.384,3.315-1.237,4.854.274.906.889,1.806,1.784,2.691,2.693a3.333,3.333,0,0,1,.307,4.745,1.9,1.9,0,0,0,1.248,2.926,3.327,3.327,0,0,1,3.1,3.348c.029.566.005,1.136.005,1.8H641.8c4.154,0,8.309.081,12.459-.028,2.828-.074,4.357.924,4.388,4.013a3.272,3.272,0,0,0,.576.059,4.681,4.681,0,0,1,5.285,3.458Zm-5.929-47.463c0,1.031.044,2.01-.014,2.983a1.312,1.312,0,0,1-2.624.022,6.935,6.935,0,0,1-.027-.777c0-1.788-.025-3.576.009-5.364.015-.75-.257-1-1.01-1-8.681.02-17.362-.015-26.043.047a8.26,8.26,0,0,0-3.407.774c-2.959,1.416-4.2,3.961-4.2,7.166q0,18.427,0,36.857c0,1.329.033,1.362,1.351,1.362h31.926c1.367,0,1.368,0,1.368-1.411q0-15.833,0-31.666c0-1.353.459-2.028,1.354-2.017s1.327.679,1.327,2.046q0,15.963,0,31.926c0,2.578-1.176,3.754-3.749,3.754q-12.675,0-25.35,0h-1.06v3.454H649.8c3.346,0,6.691,0,10.036,0,1.4,0,1.987-.593,2.025-1.992,0-.115,0-.231,0-.346q0-21.76,0-43.52a6.114,6.114,0,0,0-.082-1.029,1.394,1.394,0,0,0-1.329-1.26C659.86,187.151,659.261,187.192,658.579,187.192ZM611.824,231.9h-18.1c-1.388,0-2.034-.422-2.031-1.323s.642-1.31,2.038-1.31q11.855,0,23.708,0c1.119,0,1.194-.072,1.194-1.163q0-18.6-.011-37.2a8.69,8.69,0,0,0-.259-2.223,7.325,7.325,0,0,0-7.474-5.6q-12.805-.02-25.611,0c-1.274,0-1.275,0-1.275,1.308q0,20.116,0,40.233,0,1.688,0,3.374c0,1.277,0,1.277,1.322,1.279.779,0,1.558-.016,2.336.007a1.3,1.3,0,0,1,1.43,1.286,1.287,1.287,0,0,1-1.386,1.329c-1.153.025-2.309.04-3.46-.013a3.011,3.011,0,0,1-2.85-2.655,10.419,10.419,0,0,1-.069-1.38q0-19.77,0-39.541v-1.063c-2.065-.294-2.79.309-2.79,2.207q0,21.8,0,43.607c0,1.8.507,2.3,2.322,2.3h30.969Zm26.26-51.529c0-.527-.01-1.009,0-1.49.016-.64-.291-1.012-.922-.987a2.775,2.775,0,0,1-3.213-2.6.4.4,0,0,0-.064-.16c-1.111-1.589-1.105-3.057.414-4.416.408-.365.335-.822-.062-1.214-.575-.567-1.139-1.145-1.711-1.714-1.819-1.808-1.435-1.8-3.427-.244a1.571,1.571,0,0,1-1.914.173,5.287,5.287,0,0,0-1.487-.681,2.81,2.81,0,0,1-2.6-3.221c.031-.656-.39-.973-1.061-.963-1.009.015-2.019,0-3.028,0-1.577,0-1.648.013-1.752,1.626a2.177,2.177,0,0,1-1.873,2.311,2.6,2.6,0,0,0-.968.356,2.856,2.856,0,0,1-4.192-.422c-.464-.5-.964-.369-1.417.113-.533.567-1.1,1.1-1.646,1.657-1.778,1.787-1.714,1.416-.239,3.286a1.706,1.706,0,0,1,.2,2.069,5.961,5.961,0,0,0-.732,1.652,2.638,2.638,0,0,1-3.032,2.373.709.709,0,0,0-.42.059c-.224.189-.54.409-.575.652a13.172,13.172,0,0,0-.027,1.834H603.4c2.48,0,4.96.016,7.439,0a10.079,10.079,0,0,1,8.247,3.81c.3.364.564.757.9,1.211a8.746,8.746,0,0,1,3.645-3.611,50.022,50.022,0,0,1,4.764-1.721c-.2-5.425-6.179-9.232-11.5-6.92a8.5,8.5,0,0,0-4.349,4.368,1.273,1.273,0,0,1-1.784.734,1.359,1.359,0,0,1-.572-1.915,10.937,10.937,0,0,1,17.872-3.184,11.093,11.093,0,0,1,3.087,7.18Zm-12.372,51.574H614.486c0,.779-.011,1.519,0,2.259a3.206,3.206,0,0,0,3.222,3.347c1.61.062,3.225.054,4.836,0a3.126,3.126,0,0,0,3.141-2.572A23.388,23.388,0,0,0,625.712,231.943Z" fill="#0f5c29"/>
    <path id="Path_172074" data-name="Path 172074" d="M641.831,207.515c1.9,0,3.8-.008,5.7.006.369,0,.848-.042,1.082.16a2.047,2.047,0,0,1,.782,1.26c0,.382-.478.838-.851,1.122a1.827,1.827,0,0,1-1.005.131q-5.66.012-11.319,0a5.647,5.647,0,0,1-.689-.032,1.26,1.26,0,0,1-1.24-1.3,1.233,1.233,0,0,1,1.233-1.307c.83-.067,1.668-.036,2.5-.039C639.3,207.511,640.564,207.514,641.831,207.515Z" fill="#0f5c29"/>
    <path id="Path_172075" data-name="Path 172075" d="M637.342,189.5c1.5,0,3-.021,4.5.006,1.1.02,1.861.865,1.453,1.7a1.746,1.746,0,0,1-1.2.9c-3.168.077-6.339.066-9.508.034a1.244,1.244,0,0,1-1.32-1.3,1.3,1.3,0,0,1,1.409-1.321C634.229,189.474,635.786,189.5,637.342,189.5Z" fill="#0f5c29"/>
    <path id="Path_172076" data-name="Path 172076" d="M636.306,222.236c-1.18,0-2.36.016-3.54,0-.959-.017-1.5-.5-1.5-1.3a1.319,1.319,0,0,1,1.482-1.33q3.583-.027,7.168,0a1.313,1.313,0,0,1,1.457,1.352,1.285,1.285,0,0,1-1.437,1.273C638.725,222.254,637.515,222.235,636.306,222.236Z" fill="#0f5c29"/>
    <path id="Path_172077" data-name="Path 172077" d="M649.021,201.734c1.092,0,2.184-.019,3.276.007a1.312,1.312,0,1,1,.033,2.615q-3.363.037-6.725,0a1.312,1.312,0,1,1,.053-2.617C646.779,201.714,647.9,201.733,649.021,201.734Z" fill="#0f5c29"/>
    <path id="Path_172078" data-name="Path 172078" d="M643.044,198.283c-.748,0-1.5.018-2.243,0-1-.031-1.572-.535-1.568-1.347,0-.78.54-1.3,1.5-1.321,1.523-.036,3.048-.034,4.571,0,.942.019,1.516.544,1.537,1.3.023.791-.576,1.339-1.553,1.373C644.54,198.3,643.791,198.283,643.044,198.283Z" fill="#0f5c29"/>
    <path id="Path_172079" data-name="Path 172079" d="M634.92,216.3c-.748,0-1.5.025-2.245-.008a1.318,1.318,0,0,1-1.412-1.32,1.275,1.275,0,0,1,1.4-1.31q2.287-.048,4.577,0A1.277,1.277,0,0,1,638.616,215a1.351,1.351,0,0,1-1.363,1.289,1.666,1.666,0,0,1-.173.005Z" fill="#0f5c29"/>
    <path id="Path_172080" data-name="Path 172080" d="M637.763,204.365c-.689,0-1.379.021-2.067-.005a1.347,1.347,0,0,1-1.424-1.313,1.317,1.317,0,0,1,1.418-1.3q2.109-.04,4.219,0a1.3,1.3,0,0,1,1.41,1.3,1.318,1.318,0,0,1-1.4,1.319C639.2,204.388,638.481,204.366,637.763,204.365Z" fill="#0f5c29"/>
    <path id="Path_172081" data-name="Path 172081" d="M634.135,198.279c-.49,0-.982.029-1.469-.006a1.326,1.326,0,0,1-1.4-1.337,1.264,1.264,0,0,1,1.323-1.309,25.408,25.408,0,0,1,3.023.011,1.25,1.25,0,0,1,1.275,1.349,1.284,1.284,0,0,1-1.283,1.271,13.812,13.812,0,0,1-1.468.01Z" fill="#0f5c29"/>
    <path id="Path_172082" data-name="Path 172082" d="M643.8,216.292c-.43,0-.863.029-1.291-.006a1.359,1.359,0,0,1-1.347-1.308,1.31,1.31,0,0,1,1.322-1.307c.887-.043,1.778-.028,2.667,0a1.251,1.251,0,0,1,1.291,1.242,1.309,1.309,0,0,1-1.266,1.366c-.454.045-.917.008-1.376.008Z" fill="#0f5c29"/>
    <path id="Path_172083" data-name="Path 172083" d="M628.214,214.994a1.419,1.419,0,1,1-1.39-1.458A1.41,1.41,0,0,1,628.214,214.994Z" fill="#0f5c29"/>
    <path id="Path_172084" data-name="Path 172084" d="M625.373,220.9a1.44,1.44,0,0,1,1.446-1.413,1.436,1.436,0,1,1-1.446,1.413Z" fill="#0f5c29"/>
    <path id="Path_172085" data-name="Path 172085" d="M626.828,201.606a1.441,1.441,0,1,1-1.452,1.4A1.434,1.434,0,0,1,626.828,201.606Z" fill="#0f5c29"/>
    <path id="Path_172086" data-name="Path 172086" d="M626.853,189.406a1.41,1.41,0,0,1,1.355,1.487,1.392,1.392,0,0,1-1.472,1.364,1.427,1.427,0,0,1,.117-2.851Z" fill="#0f5c29"/>
    <path id="Path_172087" data-name="Path 172087" d="M628.211,196.983a1.418,1.418,0,1,1-1.372-1.465A1.393,1.393,0,0,1,628.211,196.983Z" fill="#0f5c29"/>
    <path id="Path_172088" data-name="Path 172088" d="M626.809,207.443a1.415,1.415,0,1,1-1.432,1.4A1.39,1.39,0,0,1,626.809,207.443Z" fill="#0f5c29"/>
    <path id="Path_172089" data-name="Path 172089" d="M601.247,214.092h11.6c.26,0,.521-.014.779.01.886.086,1.4.6,1.39,1.354a1.326,1.326,0,0,1-1.348,1.3,5.893,5.893,0,0,1-.691.017q-11.769,0-23.539,0a4.721,4.721,0,0,1-1.028-.1,1.154,1.154,0,0,1-.955-1.176,1.167,1.167,0,0,1,.915-1.293,4.586,4.586,0,0,1,1.111-.11Q595.363,214.086,601.247,214.092Z" fill="#0f5c29"/>
    <path id="Path_172090" data-name="Path 172090" d="M601.247,220.538H612.67c.2,0,.4,0,.606,0,1.143.027,1.752.5,1.737,1.355s-.626,1.315-1.781,1.316q-12.028,0-24.058,0a2.817,2.817,0,0,1-.849-.115,1.186,1.186,0,0,1-.87-1.328,1.154,1.154,0,0,1,.992-1.143,5.46,5.46,0,0,1,1.031-.08Q595.362,220.533,601.247,220.538Z" fill="#0f5c29"/>
    <path id="Path_172091" data-name="Path 172091" d="M601.248,187.531q5.843,0,11.683,0a7.517,7.517,0,0,1,.95.035A1.191,1.191,0,0,1,615,188.7a1.215,1.215,0,0,1-.914,1.387,2.512,2.512,0,0,1-.767.087q-12.072.006-24.144,0a2.657,2.657,0,0,1-.851-.1,1.2,1.2,0,0,1-.868-1.332,1.181,1.181,0,0,1,1.076-1.162,6.252,6.252,0,0,1,.949-.04Q595.363,187.528,601.248,187.531Z" fill="#0f5c29"/>
    <path id="Path_172092" data-name="Path 172092" d="M607.729,196.9c-1.758,0-3.517.006-5.275-.006-.341,0-.792.039-1-.151a2.539,2.539,0,0,1-.807-1.268,1.035,1.035,0,0,1,.93-1.16,4.919,4.919,0,0,1,1.03-.086q5.188-.009,10.377,0c.344,0,.774-.07,1.012.1a2.486,2.486,0,0,1,.971,1.145,1.072,1.072,0,0,1-.857,1.3,3.253,3.253,0,0,1-.935.115C611.362,196.909,609.546,196.9,607.729,196.9Z" fill="#0f5c29"/>
    <path id="Path_172093" data-name="Path 172093" d="M594.67,210.315c-1.9,0-3.8.016-5.7-.006-.986-.012-1.5-.481-1.52-1.28a1.28,1.28,0,0,1,1.373-1.35q5.877-.037,11.755,0a1.317,1.317,0,1,1-.026,2.625c-1.958.028-3.918.009-5.877.009Z" fill="#0f5c29"/>
    <path id="Path_172094" data-name="Path 172094" d="M592.423,196.9c-1.124,0-2.248.014-3.372,0-1.018-.016-1.591-.5-1.608-1.305-.017-.825.528-1.343,1.548-1.354q3.457-.038,6.916,0c.989.01,1.6.561,1.588,1.338s-.622,1.305-1.614,1.321C594.729,196.918,593.576,196.9,592.423,196.9Z" fill="#0f5c29"/>
    <path id="Path_172095" data-name="Path 172095" d="M610.036,210.316c-1.18,0-2.361.017-3.541,0-1.028-.019-1.567-.5-1.557-1.331.01-.81.585-1.306,1.6-1.312q3.541-.021,7.083,0c.995.007,1.575.537,1.566,1.349-.009.776-.56,1.271-1.518,1.291C612.455,210.334,611.246,210.315,610.036,210.316Z" fill="#0f5c29"/>
    <path id="Path_172096" data-name="Path 172096" d="M600.667,200.939c.894,0,1.789-.02,2.682.005.982.027,1.594.572,1.582,1.356a1.381,1.381,0,0,1-1.533,1.311q-2.726.044-5.45,0c-.971-.017-1.5-.519-1.517-1.306-.013-.821.548-1.332,1.555-1.361C598.879,200.919,599.773,200.939,600.667,200.939Z" fill="#0f5c29"/>
    <path id="Path_172097" data-name="Path 172097" d="M611.292,203.621c-.777,0-1.555.023-2.331-.008-.938-.037-1.521-.557-1.537-1.307-.016-.78.6-1.344,1.572-1.36,1.525-.026,3.051-.023,4.577,0,1.01.014,1.592.514,1.608,1.311.018.822-.587,1.324-1.644,1.366-.057,0-.115,0-.172,0Z" fill="#0f5c29"/>
    <path id="Path_172098" data-name="Path 172098" d="M590.832,203.613c-.662,0-1.326.035-1.985-.008-.9-.058-1.4-.558-1.4-1.322a1.292,1.292,0,0,1,1.4-1.328q2.026-.064,4.056,0a1.327,1.327,0,1,1,0,2.649C592.215,203.648,591.522,203.613,590.832,203.613Z" fill="#0f5c29"/>
  </g>
</svg>
