<svg xmlns="http://www.w3.org/2000/svg" width="68.115" height="88.001" viewBox="0 0 68.115 88.001">
  <g id="Group_111507" data-name="Group 111507" transform="translate(-586.277 -155.578)">
    <path id="Path_172281" data-name="Path 172281" d="M594.791,235.062c-2.259,0-4.411,0-6.563,0-1.508,0-1.95-.443-1.95-1.952q0-37.782,0-75.563c0-1.522.436-1.967,1.932-1.968q27.887,0,55.773,0c1.439,0,1.89.461,1.892,1.92,0,2.155,0,4.311,0,6.6h.887c2.01,0,4.02-.012,6.029.005a1.439,1.439,0,0,1,1.6,1.591c.007.206,0,.414,0,.62v75.031c0,1.886-.345,2.237-2.2,2.237H596.949c-1.8,0-2.157-.365-2.158-2.188ZM643,158.481H589.186v73.695H643Zm2.877,8.488v65.968c0,1.744-.383,2.125-2.134,2.125q-22.521,0-45.041,0h-1v5.631h53.8V166.969Z"/>
    <path id="Path_172282" data-name="Path 172282" d="M643,158.481v73.695H589.186V158.481Zm-26.991,68.065H638c1.829,0,2.2-.36,2.2-2.151V203.1c0-1.707-.391-2.107-2.063-2.107H593.972c-1.614,0-2.018.414-2.019,2.061q0,10.732,0,21.467c0,1.614.415,2.02,2.06,2.02ZM597.63,179.687a18.446,18.446,0,1,0,18.464-18.425A18.49,18.49,0,0,0,597.63,179.687Zm-1.462-18.381H593.43v2.723h2.738Zm2.93-.008v2.74h2.723V161.3Zm31.208,2.75h2.745v-2.73h-2.745Zm8.435-2.73h-2.729v2.731h2.729Zm-42.59,36.8v-2.729h-2.735v2.729Zm5.665.011v-2.76H599.1v2.76Zm28.525-2.788v2.76h2.7v-2.76Zm8.369,2.788v-2.76H636v2.76Z" fill="#72e676"/>
    <path id="Path_172283" data-name="Path 172283" d="M645.876,166.969H651.5v73.724H597.7v-5.631h1q22.521,0,45.041,0c1.751,0,2.134-.381,2.134-2.125V166.969Z" fill="#72e676"/>
    <path id="Path_172284" data-name="Path 172284" d="M616.008,226.546H594.014c-1.645,0-2.06-.406-2.06-2.02q0-10.734,0-21.467c0-1.647.4-2.061,2.019-2.061h44.165c1.672,0,2.063.4,2.063,2.107V224.4c0,1.791-.369,2.151-2.2,2.151Zm21.317-22.666H594.844v19.768h42.481Z"/>
    <path id="Path_172285" data-name="Path 172285" d="M597.63,179.687a18.446,18.446,0,1,1,18.338,18.471A18.461,18.461,0,0,1,597.63,179.687Zm18.438,15.627a15.609,15.609,0,1,0-15.6-15.637A15.609,15.609,0,0,0,616.068,195.314Z"/>
    <path id="Path_172286" data-name="Path 172286" d="M596.168,161.306v2.723H593.43v-2.723Z"/>
    <path id="Path_172287" data-name="Path 172287" d="M599.1,161.3h2.723v2.74H599.1Z"/>
    <path id="Path_172288" data-name="Path 172288" d="M630.306,164.048v-2.73h2.745v2.73Z"/>
    <path id="Path_172289" data-name="Path 172289" d="M638.741,161.318v2.731h-2.729v-2.731Z"/>
    <path id="Path_172290" data-name="Path 172290" d="M596.151,198.117h-2.735v-2.729h2.735Z"/>
    <path id="Path_172291" data-name="Path 172291" d="M601.816,198.128H599.1v-2.76h2.713Z"/>
    <path id="Path_172292" data-name="Path 172292" d="M630.341,195.34h2.7v2.76h-2.7Z"/>
    <path id="Path_172293" data-name="Path 172293" d="M638.71,198.128H636v-2.76h2.712Z"/>
    <path id="Path_172294" data-name="Path 172294" d="M637.325,203.88v19.768H594.844V203.88Zm-2.844,2.855H597.7v2.735h36.781Zm0,5.677H597.7v2.736h36.782Zm.005,5.682H597.673v2.727h36.813Z" fill="#f9cb3a"/>
    <path id="Path_172295" data-name="Path 172295" d="M616.068,195.314A15.609,15.609,0,1,1,631.681,179.6,15.625,15.625,0,0,1,616.068,195.314Zm-7.789-21.284c-1.064,0-2.128.019-3.192-.006a1.516,1.516,0,0,0-1.695.983c-.281.809.161,1.336.759,1.808,1.763,1.391,3.493,2.825,5.279,4.186a1.162,1.162,0,0,1,.439,1.559c-.745,2.084-1.407,4.2-2.127,6.29a1.474,1.474,0,0,0,2.4,1.69c1.721-1.4,3.484-2.742,5.175-4.174.606-.513.974-.459,1.552.027,1.7,1.426,3.454,2.777,5.176,4.171a1.461,1.461,0,0,0,1.935.223,1.489,1.489,0,0,0,.44-1.9c-.734-2.15-1.417-4.318-2.17-6.462a1,1,0,0,1,.378-1.336c1.825-1.407,3.6-2.874,5.41-4.307a1.473,1.473,0,0,0-.947-2.756c-2.1.019-4.2-.027-6.295.025a1.015,1.015,0,0,1-1.162-.865c-.667-2.11-1.4-4.2-2.08-6.305-.248-.768-.617-1.37-1.512-1.354-.845.014-1.2.591-1.441,1.327-.709,2.19-1.467,4.364-2.17,6.556a.754.754,0,0,1-.873.634C610.467,174.005,609.373,174.03,608.279,174.03Z" fill="#f9cb3a"/>
    <path id="Path_172296" data-name="Path 172296" d="M634.481,206.735v2.735H597.7v-2.735Z"/>
    <path id="Path_172297" data-name="Path 172297" d="M634.481,212.412v2.736H597.7v-2.736Z"/>
    <path id="Path_172298" data-name="Path 172298" d="M634.486,218.094v2.727H597.673v-2.727Z"/>
    <path id="Path_172299" data-name="Path 172299" d="M608.279,174.03c1.094,0,2.188-.025,3.28.012a.754.754,0,0,0,.873-.634c.7-2.192,1.461-4.366,2.17-6.556.239-.736.6-1.313,1.441-1.327.895-.016,1.264.586,1.512,1.354.68,2.106,1.413,4.2,2.08,6.305a1.015,1.015,0,0,0,1.162.865c2.1-.052,4.2-.006,6.295-.025a1.473,1.473,0,0,1,.947,2.756c-1.806,1.433-3.585,2.9-5.41,4.307a1,1,0,0,0-.378,1.336c.753,2.144,1.436,4.312,2.17,6.462a1.489,1.489,0,0,1-.44,1.9,1.461,1.461,0,0,1-1.935-.223c-1.722-1.394-3.481-2.745-5.176-4.171-.578-.486-.946-.54-1.552-.027-1.691,1.432-3.454,2.777-5.175,4.174a1.474,1.474,0,0,1-2.4-1.69c.72-2.093,1.382-4.206,2.127-6.29A1.162,1.162,0,0,0,609.43,181c-1.786-1.361-3.516-2.8-5.279-4.186-.6-.472-1.04-1-.759-1.808a1.516,1.516,0,0,1,1.695-.983C606.151,174.049,607.215,174.03,608.279,174.03Zm11.743,11.257.168-.087-.888-2.661c-.617-1.854-.6-1.923.913-3.134l3.17-2.536h-3.633c-1.753,0-1.888-.1-2.45-1.782-.375-1.121-.761-2.239-1.142-3.359a32.7,32.7,0,0,0-1.422,3.7c-.413,1.22-.719,1.442-1.985,1.444-1.246,0-2.492,0-3.967,0,1.38,1.1,2.548,2.05,3.728,2.978a1.542,1.542,0,0,1,.574,1.947c-.2.522-.364,1.06-.534,1.594-.2.611-.38,1.225-.645,2.084,1.17-.933,2.11-1.693,3.06-2.439a1.47,1.47,0,0,1,2.217,0C618.139,183.774,619.077,184.534,620.022,185.287Z"/>
    <path id="Path_172300" data-name="Path 172300" d="M620.022,185.287c-.945-.753-1.883-1.513-2.836-2.256a1.47,1.47,0,0,0-2.217,0c-.95.746-1.89,1.506-3.06,2.439.265-.859.45-1.473.645-2.084.17-.534.332-1.072.534-1.594a1.542,1.542,0,0,0-.574-1.947c-1.18-.928-2.348-1.874-3.728-2.978,1.475,0,2.721,0,3.967,0,1.266,0,1.572-.224,1.985-1.444a32.7,32.7,0,0,1,1.422-3.7c.381,1.12.767,2.238,1.142,3.359.562,1.68.7,1.782,2.45,1.782h3.633l-3.17,2.536c-1.511,1.211-1.53,1.28-.913,3.134l.888,2.661Z" fill="#72e676"/>
  </g>
</svg>
