<svg xmlns="http://www.w3.org/2000/svg" width="100.685" height="86" viewBox="0 0 100.685 86">
  <g id="Grupo_95543" data-name="Grupo 95543" transform="translate(-205.658 -213)">
    <g id="Grupo_94634" data-name="Grupo 94634">
      <path id="Trazado_151430" data-name="Trazado 151430" d="M233.982,260.336a37.377,37.377,0,0,1-.962-5.767c-1.776-20.34,11.3-37.651,31.6-39.43a36.561,36.561,0,0,1,37.661,23.516,9.61,9.61,0,0,0,.811,1.45,37.238,37.238,0,0,1,.408,21.331,22.684,22.684,0,0,0-2.59,3.822c-5.12,12.277-17.37,20.055-31.517,21.3L256,289.8l-21.174-26.781Z" fill="#c8effe"/>
      <path id="Trazado_151431" data-name="Trazado 151431" d="M280.9,286.078a36.868,36.868,0,0,1-9.721,2.2L256,289.8,235.379,262.62l-.845-2.686a37.144,37.144,0,0,1-.96-5.766c-.505-5.784-1.812-10.857.134-15.936.281-.734.71-2.184.71-2.184a37.135,37.135,0,0,1,12.1-14.684l1.235-.278-.173.212a36.977,36.977,0,0,0,31.891,60.091,37.523,37.523,0,0,0,4.633-.7Z" fill="#99e6fc"/>
      <path id="Trazado_151432" data-name="Trazado 151432" d="M303.093,240.106l-.11.057c-3.279,1.474-8.411,3.381-12.2-.565-4.073-4.245-4-10.188-8.967-11.089-3.822-.691-6.575,3.008-12.332,3.01-6.814,0-8.479-5.49-13.492-8.613a13.634,13.634,0,0,0-9.322-1.559l-.177.032a36.88,36.88,0,0,1,56.6,18.727Z" fill="#bbec6c"/>
      <path id="Trazado_151433" data-name="Trazado 151433" d="M250.256,270.268l-3.733,8.533L234.37,263.234s-1.634-6.476-1.8-8.452c-.579-6.62,2.023-10.248,2.023-10.248a12.413,12.413,0,0,0,8.78,9.794,11.462,11.462,0,0,1,6.888,15.94Z" fill="#bbec6c"/>
      <g id="Grupo_94626" data-name="Grupo 94626">
        <path id="Trazado_151434" data-name="Trazado 151434" d="M303.5,261.436a37.028,37.028,0,0,1-8.107,14.741s-1.476,1.2-2.212,1.9a29.489,29.489,0,0,1-11.109,6.837l.519-2.73a3.14,3.14,0,0,0,.054-1.21,11.844,11.844,0,0,0-.63-7.341,3.942,3.942,0,0,1,.571-4.02l4.524-5.562a9.839,9.839,0,0,1,8.816-3.558Z" fill="#bbec6c"/>
      </g>
      <path id="Trazado_151435" data-name="Trazado 151435" d="M250.094,270.636l-3.571,8.165-13.506-15.678-.845-2.687a37.2,37.2,0,0,1,2.246-24.388l-.057.385c-.585,5.591-.26,12.747,5.949,16.5a36.824,36.824,0,0,0,9.784,17.7Z" fill="#b1e058"/>
      <g id="Grupo_94627" data-name="Grupo 94627">
        <path id="Trazado_151436" data-name="Trazado 151436" d="M295.392,276.176a36.822,36.822,0,0,1-14.488,9.9h0l1.335-3.738a11.732,11.732,0,0,0,.409-1.369,36.581,36.581,0,0,0,12.746-4.8Z" fill="#b1e058"/>
      </g>
      <g id="Grupo_94630" data-name="Grupo 94630">
        <g id="Grupo_94629" data-name="Grupo 94629">
          <path id="Trazado_151437" data-name="Trazado 151437" d="M243.486,264.535l14.342,12.938a6.979,6.979,0,0,1,2.41,5.037s-.021.15-.021.216a6.649,6.649,0,0,1-2.078,4.352s-.821,1.117-1.513,1.084l22.909.013a7.039,7.039,0,0,1,6.847,5.364s.081,1.08.081,1.648c0,1.29-1.673,1.586-2.97,1.586l-31.538-.06a9.412,9.412,0,0,1-5.78-1.981l-13.611-10.586c-1.234-.953-2.752-1.47-7.463-1.47l-9.974.273.192-21.94,5.26-.764h11.455a17.417,17.417,0,0,1,11.452,4.29Z" fill="#ffd18d"/>
          <g id="Grupo_94628" data-name="Grupo 94628">
            <path id="Trazado_151438" data-name="Trazado 151438" d="M239.044,270.912a1.712,1.712,0,0,0,.331,2.154l15.569,13.883a2.353,2.353,0,0,0,3.312-.226,6.971,6.971,0,0,0,1.731-4.855,6.969,6.969,0,0,1-.794,1.1,2.352,2.352,0,0,1-3.312.225l-14.228-12.687a1.712,1.712,0,0,0-2.609.4Z" fill="#fbbd80"/>
          </g>
          <path id="Trazado_151439" data-name="Trazado 151439" d="M220.58,278.443a1.22,1.22,0,0,0,1.22,1.22h6.172a11.1,11.1,0,0,1,6.748,2.3l13.506,10.423a5.466,5.466,0,0,0,3.348,1.151h34.809a6.93,6.93,0,0,1,.2,1.648,2.326,2.326,0,0,1-.686,1.652,2.354,2.354,0,0,1-1.662.685H251.574a9.407,9.407,0,0,1-5.781-1.981l-13.508-10.424a7.052,7.052,0,0,0-4.313-1.472H215.966l-.118-23.4h4.731v18.2Z" fill="#fbbd80"/>
        </g>
      </g>
      <g id="Grupo_94631" data-name="Grupo 94631">
        <path id="Trazado_151440" data-name="Trazado 151440" d="M207.874,259.957l.187,23.82a2.44,2.44,0,0,0,2.44,2.441l2.965.335a2.441,2.441,0,0,0,2.44-2.44l.308-2.912V259.622a2.44,2.44,0,0,0-2.44-2.441h-2.7l-.76.335A2.44,2.44,0,0,0,207.874,259.957Z" fill="#8795de"/>
        <path id="Trazado_151441" data-name="Trazado 151441" d="M211.074,257.181h-1.5a2.442,2.442,0,0,0-2.44,2.441v25.114a2.442,2.442,0,0,0,2.44,2.441h4.2a2.44,2.44,0,0,0,2.44-2.441V281.2h-3.674a1.465,1.465,0,0,1-1.464-1.464V257.181Z" fill="#6c7fd8"/>
      </g>
      <g id="Grupo_94632" data-name="Grupo 94632">
        <path id="Trazado_151442" data-name="Trazado 151442" d="M261.277,252.906a9.12,9.12,0,0,0,.4-3.393,4.361,4.361,0,0,0-1.863-2.243c-1.892-1.011-2.812-.728-5.261-.229a7.358,7.358,0,0,1-3.958-.5.6.6,0,0,0-.821.544c-.005.216,0,.466.012.742,0,0,.239.874.345,1.387.428,2.08,1.605,3.9,5.238,5.27,2.826,1.066,4.807.722,5.9-1.575Z" fill="#b1e058"/>
        <path id="Trazado_151443" data-name="Trazado 151443" d="M249.79,247.824a8.106,8.106,0,0,0,5.536,7.486,4.721,4.721,0,0,0,6.307-2.352,4.313,4.313,0,0,0,.048-3.445.23.23,0,0,1-.022.048,5.125,5.125,0,0,1-6.849,2.557,8.872,8.872,0,0,1-5.02-4.294Z" fill="#aad65c"/>
      </g>
      <path id="Trazado_151444" data-name="Trazado 151444" d="M273.948,235.689c-.846-3.512-3.812-6.63-5.2-8.263a1,1,0,0,0-1.532.007c-.337.406-.779.928-1.264,1.527,0,0-2.856,4.514-3.338,6.729-.854,3.915.8,8.132,5.36,8.115a4.807,4.807,0,0,0,3.809-1.533,27.692,27.692,0,0,0,1.78-2.253,7.673,7.673,0,0,0,.387-4.329Z" fill="#b1e058"/>
      <path id="Trazado_151445" data-name="Trazado 151445" d="M273.56,240.017c-.866,2.3-2.751,4.3-5.589,4.3-4.56.018-6.829-4.715-5.974-8.629.486-2.236,2.465-4.9,3.992-6.78a9.733,9.733,0,0,0-.86,2.271c-.911,4.174,1.508,9.222,6.373,9.2a5.807,5.807,0,0,0,2.058-.366Z" fill="#aad65c"/>
      <g id="Grupo_94633" data-name="Grupo 94633">
        <path id="Trazado_151446" data-name="Trazado 151446" d="M274.67,252.906a9.12,9.12,0,0,1-.4-3.393,4.361,4.361,0,0,1,1.863-2.243c1.892-1.011,2.812-.728,5.261-.229a7.358,7.358,0,0,0,3.958-.5.6.6,0,0,1,.821.544c.005.216,0,.466-.012.742,0,0-.239.874-.345,1.387-.428,2.08-1.605,3.9-5.238,5.27-2.827,1.066-4.807.722-5.9-1.575Z" fill="#b1e058"/>
        <path id="Trazado_151447" data-name="Trazado 151447" d="M286.157,247.824a8.106,8.106,0,0,1-5.536,7.486,4.721,4.721,0,0,1-6.307-2.352,4.313,4.313,0,0,1-.048-3.445.23.23,0,0,0,.022.048,5.125,5.125,0,0,0,6.849,2.557,8.872,8.872,0,0,0,5.02-4.294Z" fill="#aad65c"/>
      </g>
      <path id="Trazado_151448" data-name="Trazado 151448" d="M262.227,268.985a2.015,2.015,0,0,1-1.526-3.32,9.5,9.5,0,0,1,14.546,0,2.016,2.016,0,0,1-1.528,3.32Z" fill="#ea9f6c"/>
    </g>
    <path id="Trazado_151449" data-name="Trazado 151449" d="M306.194,248.1a38.393,38.393,0,0,0-41.448-34.958,1.476,1.476,0,1,0,.248,2.941,35.508,35.508,0,0,1,36.253,23.22c-3.258,1.324-6.766,2.018-9.4-.724-.231-.24-.457-.5-.674-.768a1.476,1.476,0,0,0-2.3,1.849c.271.337.555.661.845.963a8.822,8.822,0,0,0,6.607,2.792,15.927,15.927,0,0,0,5.82-1.284,35.748,35.748,0,0,1,.26,17.662l-6.3-.764a11.256,11.256,0,0,0-10.139,4.093l-4.524,5.56a5.4,5.4,0,0,0-.784,5.529,10.352,10.352,0,0,1,.193,7.627l-1.137,3.109a35.476,35.476,0,0,1-8.071,1.8H261.219a8.4,8.4,0,0,0-1.951-10.279l-7.285-6.529a12.737,12.737,0,0,0-.159-9.807,13.5,13.5,0,0,0-7.988-7.2c-6.391-2.134-8.941-7.343-8.021-16.386a35.526,35.526,0,0,1,11.238-13.758,12.082,12.082,0,0,1,8.161,1.375,22.346,22.346,0,0,1,4.121,3.59,26.154,26.154,0,0,0,3.376,3.088,14.146,14.146,0,0,0-2.157,4.538A9.363,9.363,0,0,0,262.3,243.1a7.115,7.115,0,0,0,4.2,2.555v8.324a17.294,17.294,0,0,0-3.043-2.268,6.175,6.175,0,0,0-2.951-5.741c-2.169-1.2-3.94-.894-6.251-.374a5.956,5.956,0,0,1-3.124-.431,2.077,2.077,0,0,0-2.836,1.883,9.646,9.646,0,0,0,6.5,9.644,7.407,7.407,0,0,0,2.609.5,5.95,5.95,0,0,0,5.008-2.654,12.841,12.841,0,0,1,4.086,4.1v2.272a10.97,10.97,0,0,0-6.923,3.806,3.491,3.491,0,0,0,2.653,5.748l11.492,0h0a3.491,3.491,0,0,0,2.656-5.746,10.971,10.971,0,0,0-6.927-3.812v-2.273a12.491,12.491,0,0,1,4.08-4.1,5.95,5.95,0,0,0,5.005,2.649,7.384,7.384,0,0,0,2.609-.5,9.643,9.643,0,0,0,6.5-9.643,2.075,2.075,0,0,0-2.835-1.883,5.953,5.953,0,0,1-3.125.43c-2.106-.458-3.978-.884-6.251.374a6.179,6.179,0,0,0-2.951,5.746,16.766,16.766,0,0,0-3.034,2.263v-8.339a7.125,7.125,0,0,0,4.113-2.626,9.5,9.5,0,0,0,1.822-7.669,13.125,13.125,0,0,0-1.225-3.114,29.9,29.9,0,0,0,2.913-1.169c1.705-.759,3.051-1.358,4.482-1.1,1.783.324,2.727,1.524,3.756,3.487a1.476,1.476,0,0,0,2.615-1.37c-1.192-2.273-2.724-4.455-5.844-5.021-2.327-.421-4.3.457-6.209,1.306a22.24,22.24,0,0,1-3.378,1.28c-.821-1.1-1.717-2.131-2.624-3.174a2.726,2.726,0,0,0-1.9-.873,2.468,2.468,0,0,0-1.889.894c-.459.551-.893,1.063-1.618,1.967a23.534,23.534,0,0,1-3.009-2.765,24.609,24.609,0,0,0-4.677-4.039,13.146,13.146,0,0,0-4.959-1.81,35.267,35.267,0,0,1,6.646-2.592,1.476,1.476,0,0,0-.79-2.845A38.425,38.425,0,0,0,229.741,254.8a39.128,39.128,0,0,0,.593,4.163H217.681a3.445,3.445,0,0,0-3.435-3.256H209.1a3.448,3.448,0,0,0-3.444,3.444v26.06a3.448,3.448,0,0,0,3.444,3.444h5.144a3.448,3.448,0,0,0,3.444-3.444V285.2H228.4a5.657,5.657,0,0,1,3.423,1.157l13.52,10.368a10.993,10.993,0,0,0,6.69,2.279h7.023a1.476,1.476,0,1,0,0-2.952h-7.023a8.029,8.029,0,0,1-4.889-1.666l-13.525-10.371a8.623,8.623,0,0,0-5.219-1.767H217.69V261.913h14.775a16.022,16.022,0,0,1,10.491,3.9l14.352,12.863.021.018a5.447,5.447,0,0,1,.537,7.749.886.886,0,0,1-1.23.1l-16.647-14.748a1.476,1.476,0,1,0-1.958,2.21l16.662,14.761a4.306,4.306,0,0,0,2.417.939c5.691,0,17.347.005,22.919,0a5.544,5.544,0,0,1,5.576,5.5.863.863,0,0,1-.874.849H265.94a1.476,1.476,0,1,0,0,2.952h18.791a3.818,3.818,0,0,0,3.826-3.8,8.477,8.477,0,0,0-6.157-8.117,38.151,38.151,0,0,0,10.435-6.352,1.476,1.476,0,0,0-1.917-2.245,35.318,35.318,0,0,1-7.495,4.912l.2-.548a13.3,13.3,0,0,0-.247-9.794,2.457,2.457,0,0,1,.356-2.514l4.524-5.56a8.319,8.319,0,0,1,7.494-3.025l5.837.708a35.483,35.483,0,0,1-6.081,11.105,1.476,1.476,0,1,0,2.3,1.854,38.3,38.3,0,0,0,8.391-27.526Zm-50.359,5.831a6.583,6.583,0,0,1-4.535-5.608,7.908,7.908,0,0,0,3.54.167c1.7-.379,3.081-.681,4.271.085a3.126,3.126,0,0,1,1.178,3.75A3.259,3.259,0,0,1,255.835,253.928Zm20.99-5.356c1.319-.78,2.445-.474,4.271-.085a7.908,7.908,0,0,0,3.54-.167,6.584,6.584,0,0,1-4.536,5.608,3.259,3.259,0,0,1-4.454-1.606,3.124,3.124,0,0,1,1.179-3.75Zm-2.707,18.048a.524.524,0,0,1,.078.586.5.5,0,0,1-.477.307h0l-11.491,0a.505.505,0,0,1-.478-.307.527.527,0,0,1,.079-.586,8.025,8.025,0,0,1,12.289,0Zm-6.129-37.812c1.36,1.557,3.8,4.35,4.524,7.226a6.573,6.573,0,0,1-1.271,5.151,4.023,4.023,0,0,1-3.276,1.659h-.019a4.2,4.2,0,0,1-3.357-1.6,6.436,6.436,0,0,1-1.152-5.24c.51-2.339,3.206-5.587,4.551-7.2Zm-53.251,56.4a.493.493,0,0,1-.492.492H209.1a.493.493,0,0,1-.492-.492v-26.06a.493.493,0,0,1,.492-.492h5.144a.493.493,0,0,1,.492.492ZM244.9,263.59a18.964,18.964,0,0,0-11.547-4.608,35.984,35.984,0,0,1-.67-4.441,35.571,35.571,0,0,1,.482-9.709,17.277,17.277,0,0,0,.625,2.22,13.774,13.774,0,0,0,9.112,8.676,10.5,10.5,0,0,1,6.222,5.6,9.672,9.672,0,0,1,.449,6.454l-4.655-4.171Z"/>
  </g>
</svg>
