<svg xmlns="http://www.w3.org/2000/svg" width="67.939" height="86" viewBox="0 0 67.939 86">
  <g id="Grupo_94438" data-name="Grupo 94438" transform="translate(-222.031 -213)">
    <g id="Grupo_94533" data-name="Grupo 94533">
      <path id="Trazado_151249" data-name="Trazado 151249" d="M285.369,297.742H226.631a3.341,3.341,0,0,1-3.341-3.342V217.6a3.341,3.341,0,0,1,3.341-3.342h58.738a3.342,3.342,0,0,1,3.342,3.342v76.8a3.342,3.342,0,0,1-3.342,3.342Z" fill="#8ac9fe"/>
    </g>
    <g id="Grupo_94534" data-name="Grupo 94534">
      <path id="Trazado_151250" data-name="Trazado 151250" d="M288.712,217.6v76.8a3.343,3.343,0,0,1-3.342,3.343h-3.5a3.343,3.343,0,0,0,3.343-3.343V217.6a3.343,3.343,0,0,0-3.343-3.343h3.5a3.343,3.343,0,0,1,3.342,3.343Z" fill="#60b7ff"/>
    </g>
    <g id="Grupo_94535" data-name="Grupo 94535">
      <path id="Trazado_151251" data-name="Trazado 151251" d="M281.643,291.537H230.358a.755.755,0,0,1-.754-.754V221.218a.754.754,0,0,1,.754-.754h51.285a.754.754,0,0,1,.754.754v69.565A.755.755,0,0,1,281.643,291.537Z" fill="#f9f3f1"/>
    </g>
    <g id="Grupo_94536" data-name="Grupo 94536">
      <path id="Trazado_151252" data-name="Trazado 151252" d="M282.4,221.218v69.565a.755.755,0,0,1-.753.755h-3.5a.755.755,0,0,0,.754-.755V221.218a.755.755,0,0,0-.754-.755h3.5a.755.755,0,0,1,.753.755Z" fill="#f3eae6"/>
    </g>
    <g id="Grupo_94537" data-name="Grupo 94537">
      <path id="Trazado_151253" data-name="Trazado 151253" d="M275.3,235.623H236.7a1.331,1.331,0,0,1-1.331-1.33v-4.8a1.33,1.33,0,0,1,1.331-1.33h38.6a1.329,1.329,0,0,1,1.33,1.33v4.8A1.33,1.33,0,0,1,275.3,235.623Z" fill="#fe93bb"/>
    </g>
    <g id="Grupo_94538" data-name="Grupo 94538">
      <path id="Trazado_151254" data-name="Trazado 151254" d="M276.629,229.494v4.8a1.331,1.331,0,0,1-1.33,1.331h-3.356a1.33,1.33,0,0,0,1.33-1.331v-4.8a1.33,1.33,0,0,0-1.33-1.331H275.3A1.331,1.331,0,0,1,276.629,229.494Z" fill="#fe76a8"/>
    </g>
    <g id="Grupo_94539" data-name="Grupo 94539">
      <path id="Trazado_151255" data-name="Trazado 151255" d="M270.5,254.508H266.82v10.016a.688.688,0,0,0,1.128.529l2.114-1.758a.686.686,0,0,1,.88,0l2.114,1.758a.688.688,0,0,0,1.128-.529V254.508Z" fill="#fe93bb"/>
    </g>
    <g id="Grupo_94540" data-name="Grupo 94540">
      <path id="Trazado_151256" data-name="Trazado 151256" d="M274.184,254.509v10.015a.687.687,0,0,1-1.127.529l-2.114-1.758a.716.716,0,0,0-.188-.111v-8.675Z" fill="#fe76a8"/>
    </g>
    <g id="Grupo_94541" data-name="Grupo 94541">
      <circle id="Elipse_5047" data-name="Elipse 5047" cx="6.127" cy="6.127" r="6.127" transform="translate(264.375 244.68)" fill="#fec165"/>
    </g>
    <g id="Grupo_94542" data-name="Grupo 94542">
      <path id="Trazado_151257" data-name="Trazado 151257" d="M276.629,250.807a6.127,6.127,0,0,1-11.128,3.541,6.128,6.128,0,0,0,6.589-9.459,6.127,6.127,0,0,1,4.539,5.918Z" fill="#fdb441"/>
    </g>
    <g id="Grupo_94543" data-name="Grupo 94543">
      <path id="Trazado_151258" data-name="Trazado 151258" d="M266.682,266.287a1.961,1.961,0,0,0,.831.187,1.932,1.932,0,0,0,1.24-.453l1.749-1.456,1.75,1.456a1.946,1.946,0,0,0,3.191-1.5v-8.233a7.385,7.385,0,1,0-9.882,0v8.233a1.932,1.932,0,0,0,1.121,1.763Zm6.244-2.979-1.179-.981a1.947,1.947,0,0,0-2.49,0l-1.179.981v-5.526a7.354,7.354,0,0,0,4.848,0ZM270.5,245.939a4.868,4.868,0,1,1-4.868,4.869A4.874,4.874,0,0,1,270.5,245.939Z"/>
      <path id="Trazado_151259" data-name="Trazado 151259" d="M285.369,213H226.631a4.606,4.606,0,0,0-4.6,4.6v76.8a4.605,4.605,0,0,0,4.6,4.6h58.738a4.605,4.605,0,0,0,4.6-4.6V217.6A4.606,4.606,0,0,0,285.369,213Zm2.084,81.4a2.087,2.087,0,0,1-2.084,2.084H226.631a2.086,2.086,0,0,1-2.083-2.084V217.6a2.086,2.086,0,0,1,2.083-2.084h58.738a2.087,2.087,0,0,1,2.084,2.084v76.8Z"/>
      <path id="Trazado_151260" data-name="Trazado 151260" d="M281.643,219.205H230.358a2.015,2.015,0,0,0-2.013,2.013v47.465a1.258,1.258,0,0,0,2.517,0V221.722h50.276v68.557H230.862V274.608a1.258,1.258,0,0,0-2.517,0v16.175a2.015,2.015,0,0,0,2.013,2.013h51.285a2.016,2.016,0,0,0,2.013-2.013V221.218A2.016,2.016,0,0,0,281.643,219.205Z"/>
      <path id="Trazado_151261" data-name="Trazado 151261" d="M277.888,229.494A2.592,2.592,0,0,0,275.3,226.9H236.7a2.592,2.592,0,0,0-2.589,2.589v4.8a2.591,2.591,0,0,0,2.589,2.588h27a1.258,1.258,0,0,0,0-2.517h-27a.071.071,0,0,1-.072-.071v-4.8a.072.072,0,0,1,.072-.072h38.6a.072.072,0,0,1,.072.072v4.8a.071.071,0,0,1-.072.071h-5.822a1.258,1.258,0,0,0,0,2.517H275.3a2.591,2.591,0,0,0,2.589-2.588Z"/>
      <path id="Trazado_151262" data-name="Trazado 151262" d="M241.634,279.826c-1.026,2.281-.339,3.394.418,3.925,1.772,1.244,3.964-.721,5.017-1.665l.012-.01a3.543,3.543,0,0,0,1.646,1.762c1.836.93,3.373.007,4.486-1.164a4.579,4.579,0,0,0,.987,1.248,5.872,5.872,0,0,0,3.925,1.174,17.346,17.346,0,0,0,3.973-.538,1.259,1.259,0,0,0-.594-2.446c-2.682.652-4.844.62-5.643-.081a3.188,3.188,0,0,1-.846-2.24,1.258,1.258,0,0,0-2.324-.627c-1.269,2.027-2.14,2.776-2.826,2.429a1.1,1.1,0,0,1-.549-.723,2.2,2.2,0,0,1,.232-1.653,1.258,1.258,0,1,0-2.141-1.322,10.647,10.647,0,0,1-2.017,2.317,8.9,8.9,0,0,1-1.717,1.3,12.321,12.321,0,0,1,1.755-3.16c1.257-1.846,2.535-3.693,3.874-5.495l.026-.035a1.258,1.258,0,0,0-1.907-1.633A13.561,13.561,0,0,1,235.6,274.7a1.259,1.259,0,1,0-.448,2.477,16.53,16.53,0,0,0,8.511-.705c-.016.023-.2.306-.312.467a20.123,20.123,0,0,0-1.713,2.89Z"/>
      <path id="Trazado_151263" data-name="Trazado 151263" d="M252.138,243.422a1.258,1.258,0,1,0,0,2.517H256a1.258,1.258,0,0,0,0-2.517Z"/>
      <path id="Trazado_151264" data-name="Trazado 151264" d="M235.371,245.939h10.5a1.258,1.258,0,1,0,0-2.517h-10.5a1.258,1.258,0,0,0,0,2.517Z"/>
      <path id="Trazado_151265" data-name="Trazado 151265" d="M235.371,251.752H256a1.258,1.258,0,1,0,0-2.517H235.371a1.258,1.258,0,0,0,0,2.517Z"/>
      <path id="Trazado_151266" data-name="Trazado 151266" d="M257.259,256.307A1.259,1.259,0,0,0,256,255.048H245.874a1.258,1.258,0,0,0,0,2.517H256A1.258,1.258,0,0,0,257.259,256.307Z"/>
      <path id="Trazado_151267" data-name="Trazado 151267" d="M235.371,257.565h4.392a1.258,1.258,0,1,0,0-2.517h-4.392a1.258,1.258,0,0,0,0,2.517Z"/>
      <path id="Trazado_151268" data-name="Trazado 151268" d="M235.371,263.378h15.715a1.258,1.258,0,1,0,0-2.517H235.371a1.258,1.258,0,0,0,0,2.517Z"/>
    </g>
  </g>
</svg>
