<svg xmlns="http://www.w3.org/2000/svg" width="66.626" height="68" viewBox="0 0 66.626 68">
  <g id="Grupo_94421" data-name="Grupo 94421" transform="translate(-222.687 -222)">
    <g id="Grupo_94497" data-name="Grupo 94497">
      <g id="Grupo_94496" data-name="Grupo 94496">
        <g id="Grupo_94495" data-name="Grupo 94495">
          <g id="Grupo_94492" data-name="Grupo 94492">
            <circle id="Elipse_5039" data-name="Elipse 5039" cx="27.045" cy="27.045" r="27.045" transform="translate(228.955 229.641)" fill="#73e1ff"/>
            <path id="Trazado_151161" data-name="Trazado 151161" d="M259.135,263.864H245.792a1.868,1.868,0,0,1,0-3.736h13.343a1.868,1.868,0,0,1,0,3.736Z" fill="#b6f0ff"/>
            <g id="Grupo_94487" data-name="Grupo 94487">
              <g id="Grupo_94486" data-name="Grupo 94486">
                <path id="Trazado_151162" data-name="Trazado 151162" d="M280.635,267.863A27.092,27.092,0,0,1,261.368,283.2a3.32,3.32,0,0,1,.124-2.766,15.7,15.7,0,0,1,2.1-2.361c1.486-1.668-2.456-3.135-2.31-4.36.2-1.653,2.823-1.123,2.173-6.3q-.215-2.737-.434-5.474a16.809,16.809,0,0,1-.062-2.334,1.788,1.788,0,0,1,1.659-1.669l.026,0a1.786,1.786,0,0,1,1.7.935c1.325,2.455,2.383,5.143,4.254,7.154,1.21.872,2.85.65,4.34.635a13.562,13.562,0,0,1,5.7,1.206Z" fill="#79ff79"/>
              </g>
            </g>
            <path id="Trazado_151163" data-name="Trazado 151163" d="M283.046,256.687a27.051,27.051,0,0,1-51.707,11.122A27.052,27.052,0,0,0,276.2,238.7a26.946,26.946,0,0,1,6.844,17.984Z" fill="#5cceff"/>
            <g id="Grupo_94488" data-name="Grupo 94488">
              <path id="Trazado_151164" data-name="Trazado 151164" d="M283.044,256.556a13.289,13.289,0,0,1-7.235,2.182c-3.326-1.662-2.064-7.347-.723-10.081.016-.02.031-.043.046-.065a1.4,1.4,0,0,0-2.092-1.824c-1.347,1.146-3.2.959-4.737-1.15-2.257-4.6-3.966-8.222-9.931-7.806-3.5.569.818,3.047-3.18,5.356a16.016,16.016,0,0,1-3.881,1.1c-3.308.782-10.111,4.132-4.858,7.486,1.035.724,4.534,1.736,3.629,3.368-.233.182-.568.116-.858.172-.821.157-1.109,1.266-.795,2.04a7.829,7.829,0,0,0,1.538,1.959c1.282,1.505,1.727,3.9.5,5.445-2.582,2.51-5.97,2.82-3.332,7.008.818,1.63,1.86,4.953-1.217,4.4-2.044-.444-3.3-2.49-4.058-4.438-2.362-8.936-8.254-6.321-12.212-8.924a27.048,27.048,0,1,1,53.4-6.234Z" fill="#79ff79"/>
            </g>
            <path id="Trazado_151165" data-name="Trazado 151165" d="M261,262a1.866,1.866,0,0,1-1.869,1.868H243.743a1.868,1.868,0,1,1,0-3.735h15.391A1.868,1.868,0,0,1,261,262Z" fill="#b6f0ff"/>
            <g id="Grupo_94489" data-name="Grupo 94489">
              <path id="Trazado_151166" data-name="Trazado 151166" d="M250.96,263.864h-7.217a1.868,1.868,0,1,1,0-3.735h6.8A4.577,4.577,0,0,1,250.96,263.864Z" fill="#c2ffc2"/>
            </g>
            <path id="Trazado_151167" data-name="Trazado 151167" d="M277.116,258.654a27.156,27.156,0,0,0-.913-19.948,26.938,26.938,0,0,1,6.841,17.851,12.785,12.785,0,0,1-5.928,2.1Z" fill="#29e088"/>
            <g id="Grupo_94491" data-name="Grupo 94491">
              <g id="Grupo_94490" data-name="Grupo 94490">
                <path id="Trazado_151168" data-name="Trazado 151168" d="M280.635,267.863A27.092,27.092,0,0,1,261.368,283.2a3.32,3.32,0,0,1,.124-2.766,15.7,15.7,0,0,1,2.1-2.361c1.067-1.2-.663-2.29-1.669-3.263a27.142,27.142,0,0,0,10.777-8.134c.735.047,1.5-.011,2.236-.018A13.561,13.561,0,0,1,280.635,267.863Z" fill="#29e088"/>
              </g>
            </g>
            <path id="Trazado_151169" data-name="Trazado 151169" d="M240.1,237.53l-.026-.031a2.021,2.021,0,0,0-2.969-.158,27.044,27.044,0,0,0-3.348,34.731,2.019,2.019,0,0,0,2.975.384l.032-.027a2.026,2.026,0,0,0,.337-2.694,22.931,22.931,0,0,1,2.854-29.474,2.019,2.019,0,0,0,.145-2.731Z" fill="#c2ffc2"/>
            <path id="Trazado_151170" data-name="Trazado 151170" d="M236.761,272.429a.272.272,0,0,1-.031.027,2.018,2.018,0,0,1-2.975-.384,26.866,26.866,0,0,1-4.109-9.282,13.412,13.412,0,0,0,4.688,1.546,22.92,22.92,0,0,0,2.765,5.4A2.026,2.026,0,0,1,236.761,272.429Z" fill="#b6f0ff"/>
          </g>
          <g id="Grupo_94493" data-name="Grupo 94493">
            <path id="Trazado_151171" data-name="Trazado 151171" d="M269.013,254.205H260.5a1.868,1.868,0,1,1,0-3.736h8.513a1.868,1.868,0,1,1,0,3.736Z" fill="#b6f0ff"/>
            <path id="Trazado_151172" data-name="Trazado 151172" d="M263.157,254.205h-1.051a1.868,1.868,0,0,1,0-3.736h1.051a1.868,1.868,0,0,1,0,3.736Z" fill="#dcfeff"/>
          </g>
          <g id="Grupo_94494" data-name="Grupo 94494">
            <path id="Trazado_151173" data-name="Trazado 151173" d="M247.522,263.864h-1.73a1.868,1.868,0,0,1,0-3.736h1.73a1.868,1.868,0,0,1,0,3.736Z" fill="#efe"/>
            <path id="Trazado_151174" data-name="Trazado 151174" d="M241.061,257.43h-1.73a1.868,1.868,0,0,1,0-3.736h1.73a1.868,1.868,0,0,1,0,3.736Z" fill="#29e088"/>
            <path id="Trazado_151175" data-name="Trazado 151175" d="M249.779,241.652H248.05a1.868,1.868,0,0,1,0-3.736h1.729a1.868,1.868,0,0,1,0,3.736Z" fill="#c2ffc2"/>
            <path id="Trazado_151176" data-name="Trazado 151176" d="M272.423,243.52h-1.73a1.868,1.868,0,0,1,0-3.736h1.73a1.868,1.868,0,0,1,0,3.736Z" fill="#29e088"/>
            <path id="Trazado_151177" data-name="Trazado 151177" d="M268.471,238.57h-1.73a1.868,1.868,0,1,1,0-3.736h1.73a1.868,1.868,0,0,1,0,3.736Z" fill="#c2ffc2"/>
            <path id="Trazado_151178" data-name="Trazado 151178" d="M254.476,250.942h-1.73a1.868,1.868,0,0,1,0-3.736h1.73a1.868,1.868,0,0,1,0,3.736Z" fill="#b6f0ff"/>
            <path id="Trazado_151179" data-name="Trazado 151179" d="M256.865,273.543h-1.73a1.868,1.868,0,1,1,0-3.736h1.73a1.868,1.868,0,1,1,0,3.736Z" fill="#5cceff"/>
          </g>
          <circle id="Elipse_5040" data-name="Elipse 5040" cx="2.056" cy="2.056" r="2.056" transform="translate(241.059 233.215)" fill="#c2ffc2"/>
        </g>
      </g>
    </g>
    <g id="Grupo_94505" data-name="Grupo 94505">
      <g id="Grupo_94504" data-name="Grupo 94504">
        <g id="Grupo_94503" data-name="Grupo 94503">
          <g id="Grupo_94498" data-name="Grupo 94498">
            <path id="Trazado_151180" data-name="Trazado 151180" d="M256,290a33.312,33.312,0,1,1,23.556-9.757A33.1,33.1,0,0,1,256,290Zm0-62.431a29.118,29.118,0,1,0,20.59,8.528A28.927,28.927,0,0,0,256,227.569Z" fill="#038fbf"/>
          </g>
          <g id="Grupo_94499" data-name="Grupo 94499">
            <path id="Trazado_151181" data-name="Trazado 151181" d="M282.533,244.694a29.118,29.118,0,0,1,2.368,8.559,2.085,2.085,0,0,0,2.07,1.841h.042a2.087,2.087,0,0,0,2.072-2.33,33.041,33.041,0,0,0-2.714-9.8,2.09,2.09,0,0,0-2.853-1.006l-.038.019a2.086,2.086,0,0,0-.947,2.72Z" fill="#00addb"/>
          </g>
          <g id="Grupo_94500" data-name="Grupo 94500">
            <path id="Trazado_151182" data-name="Trazado 151182" d="M252.079,285.543a28.8,28.8,0,0,1-12.791-5,2.071,2.071,0,0,0-2.648.232l-.03.03a2.081,2.081,0,0,0,.275,3.179,32.959,32.959,0,0,0,14.62,5.721,2.082,2.082,0,0,0,2.368-2.058V287.6a2.074,2.074,0,0,0-1.794-2.058Z" fill="#00addb"/>
          </g>
          <g id="Grupo_94502" data-name="Grupo 94502">
            <g id="Grupo_94501" data-name="Grupo 94501">
              <path id="Trazado_151183" data-name="Trazado 151183" d="M226.973,254.4a28.893,28.893,0,0,1,2.722-10.227,2.085,2.085,0,0,0-.4-2.377l-.03-.031a2.079,2.079,0,0,0-3.346.576,33.062,33.062,0,0,0-3.131,11.735,2.081,2.081,0,0,0,2.07,2.251h.043a2.08,2.08,0,0,0,2.071-1.927Z" fill="#00addb"/>
              <path id="Trazado_151184" data-name="Trazado 151184" d="M227.236,261.241l-.006-.038a1.8,1.8,0,0,0-1.778-1.535h-.608a1.8,1.8,0,0,0-1.778,2.057c.013.091.027.182.042.272a1.8,1.8,0,0,0,2.285,1.433l.582-.173A1.8,1.8,0,0,0,227.236,261.241Z" fill="#00addb"/>
            </g>
            <path id="Trazado_151185" data-name="Trazado 151185" d="M272.411,227.683a32.951,32.951,0,0,0-11.984-4.017,2.079,2.079,0,0,0-2.356,2.058v.042a2.074,2.074,0,0,0,1.8,2.057,28.809,28.809,0,0,1,10.465,3.509,2.071,2.071,0,0,0,2.584-.448l.028-.032A2.079,2.079,0,0,0,272.411,227.683Z" fill="#00addb"/>
          </g>
        </g>
      </g>
    </g>
    <g id="Grupo_94508" data-name="Grupo 94508">
      <g id="Grupo_94506" data-name="Grupo 94506">
        <circle id="Elipse_5041" data-name="Elipse 5041" cx="9.617" cy="9.617" r="9.617" transform="translate(246.383 222)" fill="#f1eee0"/>
        <path id="Trazado_151186" data-name="Trazado 151186" d="M265.618,231.618a9.619,9.619,0,0,1-18.162,4.42,8.551,8.551,0,1,0,9.421-14,9.617,9.617,0,0,1,8.741,9.578Z" fill="#e8e4d8"/>
        <path id="Trazado_151187" data-name="Trazado 151187" d="M249.4,234.139a2.1,2.1,0,0,0,1.1-2.054c-.013-.154-.019-.31-.019-.467a5.5,5.5,0,0,1,1.76-4.036,2.051,2.051,0,0,0-2.791-3.006,9.592,9.592,0,0,0-3.068,7.042c0,.31.015.617.044.919a2.037,2.037,0,0,0,2.975,1.6Z" fill="#f9f8f2"/>
      </g>
      <g id="Grupo_94507" data-name="Grupo 94507">
        <path id="Trazado_151188" data-name="Trazado 151188" d="M258.52,231.617H257.1l1.249-5.741a.442.442,0,0,0-.752-.4l-4.65,4.9a.735.735,0,0,0,.534,1.242H254.9l-1.249,5.742a.442.442,0,0,0,.752.4l4.65-4.9A.736.736,0,0,0,258.52,231.617Z" fill="#ffc751"/>
        <path id="Trazado_151189" data-name="Trazado 151189" d="M259.054,232.86l-4.65,4.9a.442.442,0,0,1-.752-.4l.309-1.418c1.686-1.444,2.832-4.283,2.832-7.549a13.4,13.4,0,0,0-.137-1.926l.939-.989a.442.442,0,0,1,.753.4l-1.249,5.742h1.421A.736.736,0,0,1,259.054,232.86Z" fill="#ffaf40"/>
      </g>
    </g>
    <g id="Grupo_94523" data-name="Grupo 94523">
      <g id="Grupo_94519" data-name="Grupo 94519">
        <g id="Grupo_94509" data-name="Grupo 94509">
          <circle id="Elipse_5042" data-name="Elipse 5042" cx="9.617" cy="9.617" r="9.617" transform="translate(268.941 259.365)" fill="#f1eee0"/>
          <path id="Trazado_151190" data-name="Trazado 151190" d="M288.176,268.983a9.619,9.619,0,0,1-18.162,4.42,8.551,8.551,0,1,0,9.421-14A9.617,9.617,0,0,1,288.176,268.983Z" fill="#e8e4d8"/>
          <path id="Trazado_151191" data-name="Trazado 151191" d="M271.96,271.505a2.1,2.1,0,0,0,1.1-2.055c-.013-.154-.02-.309-.02-.467a5.5,5.5,0,0,1,1.76-4.035,2.051,2.051,0,0,0-2.79-3.007,9.589,9.589,0,0,0-3.069,7.042q0,.465.044.92a2.038,2.038,0,0,0,2.976,1.6Z" fill="#f9f8f2"/>
        </g>
        <g id="Grupo_94518" data-name="Grupo 94518">
          <g id="Grupo_94513" data-name="Grupo 94513">
            <g id="Grupo_94510" data-name="Grupo 94510">
              <path id="Trazado_151192" data-name="Trazado 151192" d="M278.147,271.767V269.6a4.018,4.018,0,0,1,4.017-4.017h2.171a.619.619,0,0,1,.619.619v2.171a4.017,4.017,0,0,1-4.017,4.017h-2.171A.619.619,0,0,1,278.147,271.767Z" fill="#79ff79"/>
            </g>
            <g id="Grupo_94511" data-name="Grupo 94511">
              <path id="Trazado_151193" data-name="Trazado 151193" d="M284.955,266.2v2.171a4.018,4.018,0,0,1-4.017,4.017h-2.171a.622.622,0,0,1-.439-.181l6.446-6.444A.617.617,0,0,1,284.955,266.2Z" fill="#29e088"/>
            </g>
            <g id="Grupo_94512" data-name="Grupo 94512">
              <path id="Trazado_151194" data-name="Trazado 151194" d="M284.814,269.422a4.017,4.017,0,0,1-3.876,2.964h-2.171a.622.622,0,0,1-.439-.181l1.129-1.129a5.318,5.318,0,0,0,5.357-1.654Z" fill="#0cc166"/>
              <path id="Trazado_151195" data-name="Trazado 151195" d="M279.457,271.076l-1.129,1.129a.626.626,0,0,1-.181-.439v-1.229a5.27,5.27,0,0,0,1.31.539Z" fill="#29e088"/>
            </g>
          </g>
          <g id="Grupo_94517" data-name="Grupo 94517">
            <g id="Grupo_94514" data-name="Grupo 94514">
              <path id="Trazado_151196" data-name="Trazado 151196" d="M278.147,271.842v-1.909a3.532,3.532,0,0,0-3.532-3.532h-1.908a.545.545,0,0,0-.545.545v1.908a3.532,3.532,0,0,0,3.532,3.532H277.6A.545.545,0,0,0,278.147,271.842Z" fill="#29e088"/>
            </g>
            <g id="Grupo_94515" data-name="Grupo 94515">
              <path id="Trazado_151197" data-name="Trazado 151197" d="M272.162,266.945v1.909a3.532,3.532,0,0,0,3.531,3.532H277.6a.542.542,0,0,0,.386-.16l-5.667-5.665a.542.542,0,0,0-.159.384Z" fill="#79ff79"/>
            </g>
            <g id="Grupo_94516" data-name="Grupo 94516">
              <path id="Trazado_151198" data-name="Trazado 151198" d="M272.285,269.78a3.532,3.532,0,0,0,3.408,2.606H277.6a.545.545,0,0,0,.386-.159l-.993-.993a4.677,4.677,0,0,1-4.71-1.454Z" fill="#29e088"/>
              <path id="Trazado_151199" data-name="Trazado 151199" d="M276.995,271.234l.993.993a.55.55,0,0,0,.159-.386V270.76a4.592,4.592,0,0,1-1.152.474Z" fill="#0cc166"/>
            </g>
          </g>
        </g>
      </g>
      <g id="Grupo_94522" data-name="Grupo 94522">
        <g id="Grupo_94520" data-name="Grupo 94520">
          <circle id="Elipse_5043" data-name="Elipse 5043" cx="9.617" cy="9.617" r="9.617" transform="translate(223.824 259.365)" fill="#f1eee0"/>
          <path id="Trazado_151200" data-name="Trazado 151200" d="M243.06,268.983A9.619,9.619,0,0,1,224.9,273.4a8.551,8.551,0,1,0,9.421-14A9.618,9.618,0,0,1,243.06,268.983Z" fill="#e8e4d8"/>
          <path id="Trazado_151201" data-name="Trazado 151201" d="M226.843,271.505a2.1,2.1,0,0,0,1.1-2.055c-.013-.154-.02-.309-.02-.467a5.5,5.5,0,0,1,1.761-4.035,2.051,2.051,0,0,0-2.791-3.007,9.592,9.592,0,0,0-3.068,7.042c0,.31.015.617.043.92A2.039,2.039,0,0,0,226.843,271.505Z" fill="#f9f8f2"/>
        </g>
        <g id="Grupo_94521" data-name="Grupo 94521">
          <path id="Trazado_151202" data-name="Trazado 151202" d="M233.442,263.1a.7.7,0,0,0-.635.406c-1.168,2.509-3.541,5.731-3.541,7.47a4.187,4.187,0,0,0,8.352,0c0-1.739-2.373-4.961-3.542-7.47A.7.7,0,0,0,233.442,263.1Z" fill="#73e1ff"/>
          <path id="Trazado_151203" data-name="Trazado 151203" d="M237.618,270.976a3.942,3.942,0,0,1-4.176,3.89,4.881,4.881,0,0,1-.855-.075,6.339,6.339,0,0,0-.112-10.61c.118-.229.23-.454.332-.675a.7.7,0,0,1,1.27,0c1.168,2.509,3.541,5.731,3.541,7.47Z" fill="#5cceff"/>
        </g>
      </g>
    </g>
  </g>
</svg>
