<svg xmlns="http://www.w3.org/2000/svg" xmlns:xlink="http://www.w3.org/1999/xlink" width="292" height="291.379" viewBox="0 0 292 291.379">
  <defs>
    <linearGradient id="linear-gradient" x1="-729.172" y1="214.224" x2="-728.172" y2="214.224" gradientUnits="objectBoundingBox">
      <stop offset="0" stop-color="#2d3e8a"/>
      <stop offset="1" stop-color="#2a3d8a"/>
    </linearGradient>
    <linearGradient id="linear-gradient-2" x1="-730.7" y1="213.24" x2="-729.7" y2="213.24" xlink:href="#linear-gradient"/>
  </defs>
  <g id="Grupo_28658" data-name="Grupo 28658" transform="translate(-883.561 -961.152)">
    <circle id="Elipse_1299" data-name="Elipse 1299" cx="118.212" cy="118.212" r="118.212" transform="translate(904.549 1194.568) rotate(-80.85)" fill="#f2f2f2" opacity="0.5"/>
    <g id="Grupo_28642" data-name="Grupo 28642" transform="translate(959.349 984.603)">
      <path id="Trazado_39548" data-name="Trazado 39548" d="M1019.068,1132.038l9.5-5.426-5.253-8.151-7.733,2.685Z" transform="translate(-859.135 -865.194)" fill="#366075"/>
      <g id="Grupo_28638" data-name="Grupo 28638" transform="translate(0 46.443)">
        <path id="Trazado_39549" data-name="Trazado 39549" d="M1082.643,1081.656l-136.782-78.97c-7.415-4.282-13.446-.661-13.446,8.067v101.453c0,8.73,6.032,19.315,13.446,23.594l136.782,78.971c7.414,4.28,13.446.661,13.446-8.067V1105.25C1096.089,1096.522,1090.057,1085.937,1082.643,1081.656Z" transform="translate(-922.265 -1000.886)" fill="#366075"/>
        <path id="Trazado_39550" data-name="Trazado 39550" d="M928.7,1007.419l10.4-5.964,3.641,5.062-7.509,3.437Z" transform="translate(-925.084 -1000.453)" fill="#366075"/>
        <g id="Grupo_28634" data-name="Grupo 28634" transform="translate(0 5.8)">
          <path id="Trazado_39551" data-name="Trazado 39551" d="M931.764,1017.005c0-5.393,3.747-7.641,8.327-5l136.782,78.97c4.581,2.644,8.327,9.221,8.327,14.613v86.367l5.119,2.955v-86.367c0-8.729-6.032-19.313-13.446-23.594l-136.782-78.97c-7.414-4.282-13.446-.661-13.446,8.067v86.367l5.119,2.955Z" transform="translate(-926.645 -1004.183)" fill="#437795"/>
        </g>
        <g id="Grupo_28635" data-name="Grupo 28635" transform="translate(5.119 12.516)">
          <path id="Trazado_39552" data-name="Trazado 39552" d="M1074.664,1088.081l-136.782-78.97c-4.581-2.646-8.327-.4-8.327,5v86.367l153.437,88.587v-86.367C1082.992,1097.3,1079.245,1090.725,1074.664,1088.081Z" transform="translate(-929.555 -1008.001)" fill="#fff"/>
        </g>
        <g id="Grupo_28636" data-name="Grupo 28636" transform="translate(0 102.034)">
          <path id="Trazado_39553" data-name="Trazado 39553" d="M1085.2,1150.432l-153.436-88.587-5.119-2.955v15.086c0,8.73,6.032,19.315,13.446,23.6l136.782,78.97c7.414,4.28,13.446.662,13.446-8.067v-15.087Z" transform="translate(-926.645 -1058.89)" fill="#437795"/>
        </g>
        <path id="Trazado_39554" data-name="Trazado 39554" d="M977.9,1099.833l-5.272-3.045a5.906,5.906,0,0,1-2.838-4.475v-.484c0-1.56,1.277-2.1,2.838-1.2l5.272,3.043a5.907,5.907,0,0,1,2.837,4.475v.484C980.736,1100.193,979.459,1100.733,977.9,1099.833Z" transform="translate(-893.896 -933.095)" fill="#366075"/>
        <path id="Trazado_39555" data-name="Trazado 39555" d="M1022.777,1115.159l-13.894-8.2,2.871-1.6,11.023,6.454Z" transform="translate(-864.221 -921.584)" fill="#ced7e9"/>
        <path id="Trazado_39556" data-name="Trazado 39556" d="M929.64,1060.923l2.208-.937,9.2,5.291v2.23Z" transform="translate(-924.372 -956.024)" fill="#94a5da"/>
        <g id="Grupo_28637" data-name="Grupo 28637" transform="translate(4.969 12.315)">
          <path id="Trazado_39557" data-name="Trazado 39557" d="M1083.206,1189.409,929.47,1100.65v-86.543c0-5.5,3.8-7.786,8.477-5.085l136.782,78.97c4.676,2.7,8.477,9.372,8.477,14.875Zm-153.437-88.938,153.138,88.414v-86.191c0-5.309-3.667-11.747-8.178-14.35l-136.782-78.97c-4.508-2.6-8.178-.4-8.178,4.906Z" transform="translate(-929.47 -1007.886)" fill="#f6f8fd"/>
        </g>
      </g>
      <g id="Grupo_28641" data-name="Grupo 28641" transform="translate(16.672)">
        <path id="Trazado_39558" data-name="Trazado 39558" d="M1057.992,1040.071,946.437,975.665c-2.431-1.4-4.595-1.515-5.991-.552h0l-2.529,1.39,1.07.853a6.29,6.29,0,0,0-.178,1.536v152.591l123.949,71.562v3.254l2.871-1.6V1052.11C1065.625,1047.9,1062.207,1042.5,1057.992,1040.071Z" transform="translate(-934.764 -974.484)" fill="#657d89"/>
        <g id="Grupo_28640" data-name="Grupo 28640" transform="translate(0 0.723)">
          <path id="Trazado_39559" data-name="Trazado 39559" d="M936.123,983.438v142.175l127.99,73.889V1057.531Z" transform="translate(-936.123 -968.41)" fill="#e8e8e8"/>
          <g id="Grupo_28639" data-name="Grupo 28639" transform="translate(0)">
            <path id="Trazado_39560" data-name="Trazado 39560" d="M1064.113,1053.4c0-4.215-3.418-9.606-7.632-12.039L943.756,976.077c-4.215-2.434-7.633-.99-7.633,3.226v10.619l127.99,74.092Z" transform="translate(-936.123 -974.895)" fill="#9b235c"/>
            <path id="Trazado_39561" data-name="Trazado 39561" d="M946.208,984.989c0,1.518-1.231,2.039-2.749,1.161a5.7,5.7,0,0,1-2.751-4.338c0-1.518,1.231-2.039,2.751-1.161A5.7,5.7,0,0,1,946.208,984.989Z" transform="translate(-932.643 -970.849)" fill="#fff"/>
            <path id="Trazado_39562" data-name="Trazado 39562" d="M950.788,987.633c0,1.518-1.231,2.039-2.75,1.163a5.7,5.7,0,0,1-2.751-4.338c0-1.52,1.231-2.04,2.751-1.163A5.7,5.7,0,0,1,950.788,987.633Z" transform="translate(-929.167 -968.842)" fill="#fff"/>
            <path id="Trazado_39563" data-name="Trazado 39563" d="M955.367,990.276c0,1.52-1.231,2.041-2.749,1.163a5.7,5.7,0,0,1-2.751-4.338c0-1.518,1.231-2.039,2.751-1.163A5.707,5.707,0,0,1,955.367,990.276Z" transform="translate(-925.69 -966.834)" fill="#fff"/>
            <path id="Trazado_39564" data-name="Trazado 39564" d="M1038.207,1041.543l-78.81-45.5a6.663,6.663,0,0,1-3.2-5.05h0c0-1.761,1.441-2.371,3.2-1.354l78.81,45.5a6.666,6.666,0,0,1,3.2,5.05h0C1041.409,1041.951,1039.968,1042.56,1038.207,1041.543Z" transform="translate(-920.888 -964.078)" fill="#fff"/>
          </g>
        </g>
      </g>
      <path id="Trazado_39565" data-name="Trazado 39565" d="M929.64,1013.445l.047-.644a5.619,5.619,0,0,1,2.16-4.292h0v90.552l-2.208.938Z" transform="translate(-924.372 -948.656)" fill="#ced7e9"/>
      <path id="Trazado_39566" data-name="Trazado 39566" d="M935.857,1008.7s-4.962-.589-4.962,5.6v-5.485S932.705,1007.306,935.857,1008.7Z" transform="translate(-923.419 -948.961)" fill="#ced7e9"/>
    </g>
    <path id="Trazado_39567" data-name="Trazado 39567" d="M1036.49,1074.8l-4.559-2.632c-.79-9.889-8.336-21.417-17.83-26.9a20.227,20.227,0,0,0-10.053-3.024c-.141,0-.283,0-.422.005-3.666-8.363-10.356-16.115-17.807-20.418a23.091,23.091,0,0,0-11.464-3.462c-7.485,0-12.73,5.063-13.594,12.827a15.525,15.525,0,0,0-6.4-1.492c-6.264,0-10.637,4.748-10.637,11.543,0,8.333,6.375,18.54,14.514,23.239l73.795,42.607a16.736,16.736,0,0,0,8.336,2.485h0a10.291,10.291,0,0,0,7.784-3.314,12.033,12.033,0,0,0,2.853-8.227C1051,1089.7,1044.627,1079.5,1036.49,1074.8Z" transform="translate(45.665 43.431)" fill="#f6f8fd"/>
    <g id="Grupo_28646" data-name="Grupo 28646" transform="translate(987.96 1091.379)">
      <g id="Grupo_28643" data-name="Grupo 28643" transform="translate(7.166)">
        <path id="Trazado_39568" data-name="Trazado 39568" d="M1037.933,1133.821l-34.171-19.728v-43.106l7.936,4.581-19.546-37.617L972.607,1053l8.548,4.935v43.106l-34.171-19.729v-27.53h1.82v26.479l30.531,17.627v-38.9l-9.992-5.769,23.422-18.032,23.423,45.078-10.605-6.123v38.9l30.531,17.627v-25.429h1.82Z" transform="translate(-946.984 -1035.184)" fill="#193540"/>
      </g>
      <g id="Grupo_28644" data-name="Grupo 28644" transform="translate(56.779 31.666)">
        <path id="Trazado_39569" data-name="Trazado 39569" d="M1023.69,1131.46l-48.5-28v-50.272l5.4,3.119v44.587l37.7,21.765v-29.012h1.82v32.164l-41.337-23.866v-44.588l-1.763-1.018v46.069l44.863,25.9v-32.595h1.82Z" transform="translate(-975.188 -1053.186)" fill="#193540"/>
      </g>
      <g id="Grupo_28645" data-name="Grupo 28645" transform="translate(0 14.461)">
        <path id="Trazado_39570" data-name="Trazado 39570" d="M991.413,1106.1l-48.5-28v-34.7h1.82v33.646l44.863,25.9v-46.069l-1.763-1.018v44.588l-41.337-23.866v-31.113h1.82v30.062l37.7,21.765v-44.588l5.4,3.119Z" transform="translate(-942.91 -1043.405)" fill="#193540"/>
      </g>
    </g>
    <path id="Trazado_39571" data-name="Trazado 39571" d="M1010.174,1084.113c0,3.794-3.075,5.095-6.869,2.9s-6.867-7.042-6.867-10.836,3.075-5.093,6.867-2.9S1010.174,1080.321,1010.174,1084.113Z" transform="translate(85.681 84.305)" fill="#c63c85"/>
    <path id="Trazado_39572" data-name="Trazado 39572" d="M955.432,1052.509c0,3.793-3.075,5.093-6.869,2.9s-6.869-7.042-6.869-10.834,3.075-5.094,6.869-2.9S955.432,1048.714,955.432,1052.509Z" transform="translate(44.127 60.314)" fill="#c63c85"/>
    <path id="Trazado_39573" data-name="Trazado 39573" d="M950.242,1048.609c0,1.791-1.453,2.4-3.244,1.37a6.728,6.728,0,0,1-3.244-5.115c0-1.793,1.453-2.4,3.244-1.372A6.729,6.729,0,0,1,950.242,1048.609Z" transform="translate(45.691 62.121)" fill="#9b235c"/>
    <path id="Trazado_39574" data-name="Trazado 39574" d="M1004.984,1080.213c0,1.792-1.451,2.406-3.244,1.372a6.727,6.727,0,0,1-3.242-5.117c0-1.791,1.451-2.4,3.242-1.37A6.724,6.724,0,0,1,1004.984,1080.213Z" transform="translate(87.245 86.112)" fill="#9b235c"/>
    <g id="Grupo_28647" data-name="Grupo 28647" transform="translate(1044.009 1151.463)">
      <path id="Trazado_39575" data-name="Trazado 39575" d="M986.8,1079.755c0,3.321-2.691,4.459-6.012,2.542s-6.012-6.164-6.012-9.483,2.691-4.459,6.012-2.542S986.8,1076.436,986.8,1079.755Z" transform="translate(-974.773 -1069.341)" fill="#c63c85"/>
      <path id="Trazado_39576" data-name="Trazado 39576" d="M981.968,1076.342c0,1.567-1.272,2.106-2.839,1.2a5.89,5.89,0,0,1-2.839-4.479c0-1.567,1.272-2.105,2.839-1.2A5.891,5.891,0,0,1,981.968,1076.342Z" transform="translate(-973.622 -1067.759)" fill="#9b235c"/>
    </g>
    <g id="Grupo_28649" data-name="Grupo 28649" transform="translate(1014.181 1066.419)">
      <g id="Grupo_28648" data-name="Grupo 28648">
        <path id="Trazado_39577" data-name="Trazado 39577" d="M957.816,1026.487c0-5.249,4.269-7.052,9.517-4.023s9.516,9.765,9.516,15.012-4.269,7.052-9.516,4.021S957.816,1031.734,957.816,1026.487Z" transform="translate(-957.816 -1020.994)" fill="#193540"/>
      </g>
      <ellipse id="Elipse_1300" data-name="Elipse 1300" cx="3.996" cy="7.064" rx="3.996" ry="7.064" transform="translate(2.077 7.744) rotate(-36.949)" fill="#ffc23b"/>
    </g>
    <g id="Grupo_28651" data-name="Grupo 28651" transform="translate(994.796 1081.934)">
      <g id="Grupo_28650" data-name="Grupo 28650">
        <path id="Trazado_39578" data-name="Trazado 39578" d="M946.8,1033.832c0-3.838,3.122-5.158,6.96-2.941s6.961,7.142,6.961,10.98-3.122,5.157-6.961,2.941S946.8,1037.67,946.8,1033.832Z" transform="translate(-946.796 -1029.815)" fill="#193540"/>
      </g>
      <path id="Trazado_39579" data-name="Trazado 39579" d="M948.544,1034.077a8.058,8.058,0,0,0,3.886,6.128c2.146,1.24,3.888.5,3.888-1.641a8.059,8.059,0,0,0-3.888-6.13C950.284,1031.194,948.544,1031.929,948.544,1034.077Z" transform="translate(-945.469 -1028.283)" fill="#ffc23b"/>
    </g>
    <g id="Grupo_28653" data-name="Grupo 28653" transform="translate(1074.848 1128.365)">
      <g id="Grupo_28652" data-name="Grupo 28652">
        <path id="Trazado_39580" data-name="Trazado 39580" d="M992.3,1060.228c0-3.838,3.122-5.159,6.961-2.943s6.961,7.142,6.961,10.98-3.122,5.158-6.961,2.941S992.3,1064.066,992.3,1060.228Z" transform="translate(-992.304 -1056.21)" fill="#193540"/>
      </g>
      <path id="Trazado_39581" data-name="Trazado 39581" d="M994.052,1060.471a8.058,8.058,0,0,0,3.886,6.129c2.146,1.24,3.886.5,3.886-1.641a8.059,8.059,0,0,0-3.886-6.13C995.792,1057.59,994.052,1058.325,994.052,1060.471Z" transform="translate(-990.977 -1054.678)" fill="#ffc23b"/>
    </g>
    <path id="Trazado_39582" data-name="Trazado 39582" d="M1041.328,1061.185,949,1007.878c-3.082-1.778-5.58-5.717-5.58-8.8h0c0-3.082,2.5-4.138,5.58-2.357l92.328,53.305c3.08,1.778,5.578,5.719,5.578,8.8h0C1046.906,1061.908,1044.408,1062.964,1041.328,1061.185Z" transform="translate(45.437 26.344)" fill="#657d89"/>
    <path id="Trazado_39583" data-name="Trazado 39583" d="M1037.263,1045.521l-12.753,8.243-79.525-45.914,12.753-8.244Z" transform="translate(46.625 29.19)" fill="#f6f8fd" opacity="0.79"/>
    <g id="Grupo_28654" data-name="Grupo 28654" transform="translate(984.558 1130.75)">
      <path id="Trazado_39584" data-name="Trazado 39584" d="M951.416,1117.7s6.248-4.8,7.984-3.673-.98,5.986-5.928,7.376a3.445,3.445,0,0,1-5.035,0l.739-5.323Z" transform="translate(-935.312 -1014.84)" fill="#58404b"/>
      <path id="Trazado_39585" data-name="Trazado 39585" d="M958.505,1091.078l-3.636,44.179s-3.453,3.082-6.431,1.193v-44.476Z" transform="translate(-935.312 -1032.128)" fill="#193540"/>
      <path id="Trazado_39586" data-name="Trazado 39586" d="M956.725,1120.231s6.25-4.8,7.984-3.675-.978,5.988-5.928,7.377a3.443,3.443,0,0,1-5.033,0l.739-5.323Z" transform="translate(-931.28 -1012.917)" fill="#58404b"/>
      <path id="Trazado_39587" data-name="Trazado 39587" d="M965.369,1093.612l-3.636,44.179s-3.455,3.082-6.431,1.193l-3.6-45.371Z" transform="translate(-932.833 -1030.204)" fill="#1c3d47"/>
      <path id="Trazado_39588" data-name="Trazado 39588" d="M962.7,1070.273l-2.378,7.963s-5.235,1.351-6.162-1.082l2.225-8.94,5.81,1.828Z" transform="translate(-930.968 -1049.482)" fill="#ffc5aa"/>
      <path id="Trazado_39589" data-name="Trazado 39589" d="M971.836,1077.8s-1.771,14.718-1.62,24.963a46.408,46.408,0,0,0,.818,9.291s-6.473,5.932-15.816,1.625c-7.316-3.375-8.146-6.969-8.146-6.969l5.093-30.743a4.646,4.646,0,0,1,6.331-3.571Z" transform="translate(-936.349 -1046.566)" fill="#63a5c6"/>
      <path id="Trazado_39590" data-name="Trazado 39590" d="M962.751,1074.351l.475,4.16s-7.687-1.555-10.234-4.8l2.2-2.489Z" transform="translate(-931.855 -1047.196)" fill="#63a5c6"/>
      <path id="Trazado_39591" data-name="Trazado 39591" d="M966.646,1062.353s1.945,15.341-4.9,15.186-6.315-4.874-6.315-4.874l1.223-10.312Z" transform="translate(-930.011 -1053.932)" fill="#ffc5aa"/>
      <path id="Trazado_39592" data-name="Trazado 39592" d="M967.457,1060.63a4.566,4.566,0,0,1,5.654,4.014,4.064,4.064,0,0,1-.624,2.487c-2.085,3.318-4.783,1.78-4.783,1.78s-2.1-.429-2.661.806-.361,4.783-.361,4.783l-1.826.385s-.2-4.375-1.092-3.961c-2.47,1.145-.436,7.559-2.547,7.531s-2.931.018-4.473-3.685-4.4-13.964.579-15.2a2.994,2.994,0,0,1,2.739.6,3.9,3.9,0,0,1,3.7-2.61c4.5.058,4.32,3.414,4.32,3.414S966.681,1060.817,967.457,1060.63Z" transform="translate(-932.215 -1057.566)" fill="#58404b"/>
      <path id="Trazado_39593" data-name="Trazado 39593" d="M958.183,1072.784s-15.972,8.408-17.174,14.85c-.751,4.027,11.385,17.33,11.385,17.33l3.471-5.99s-7.386-8.757-6.827-10.1c.542-1.3,9.145-5.742,9.145-5.742Z" transform="translate(-940.976 -1046.014)" fill="#63a5c6"/>
      <path id="Trazado_39594" data-name="Trazado 39594" d="M973.056,1080.685s1.2-2.961,1.813-4.164,2.816-2.28,2.816-2.28,1.042-.044.308,1.114-1.851,1.748-1.235,2.107c.485.283,2.566-1.054,3.585-2.28a3.2,3.2,0,0,1,2.785-1.193c1.115.123,2.148.764,1.757,2.857-.772,4.127-7.984,6.933-9.488,6.63S973.056,1080.685,973.056,1080.685Z" transform="translate(-916.625 -1045.112)" fill="#ffc5aa"/>
      <path id="Trazado_39595" data-name="Trazado 39595" d="M958.76,1082.275s5.877,13.916,13.052,11.7,16.039-10.366,16.039-10.366.185-3.349-4.236-6.051l-12.266,7.955s-7.736-13.154-10.723-9.865A8.66,8.66,0,0,0,958.76,1082.275Z" transform="translate(-927.531 -1044.24)" fill="#63a5c6"/>
    </g>
    <path id="Trazado_39596" data-name="Trazado 39596" d="M1063.257,1064.7v-10.619s.431-5.726-6.618-11.383L942.9,976.76s-3.135-2-5.654-.76l2.968-1.643s1.891-1.138,5.189.6l113.089,65.485s7.984,4.649,7.633,12.973v9.685Z" transform="translate(40.754 9.746)" fill="#751b4a"/>
    <path id="Trazado_39597" data-name="Trazado 39597" d="M1024.422,1081.13l-79.438-45.864V963.491l79.438,45.864Z" transform="translate(46.625 1.776)" fill="#f6f8fd" opacity="0.7"/>
    <g id="Grupo_28655" data-name="Grupo 28655" transform="translate(995.275 1009.915)">
      <path id="Trazado_39598" data-name="Trazado 39598" d="M975.433,1007.3l21.5,12.414v-2.049l-21.5-12.414Z" transform="translate(-925.538 -976.442)" fill="#fff"/>
      <path id="Trazado_39599" data-name="Trazado 39599" d="M961.251,999.11l21.5,12.414v-2.049l-21.5-12.414Z" transform="translate(-936.303 -982.657)" fill="#fff"/>
      <path id="Trazado_39600" data-name="Trazado 39600" d="M947.069,990.922l21.5,12.414v-2.049l-21.5-12.414Z" transform="translate(-947.069 -988.873)" fill="#fff"/>
      <path id="Trazado_39601" data-name="Trazado 39601" d="M983.161,1014.278l7.908,4.565v-2.049l-7.908-4.566Z" transform="translate(-919.672 -971.144)" fill="#fff"/>
      <path id="Trazado_39602" data-name="Trazado 39602" d="M974.091,1009.041l14.461,8.349v-2.049l-14.461-8.349Z" transform="translate(-926.556 -975.119)" fill="#fff"/>
      <path id="Trazado_39603" data-name="Trazado 39603" d="M968.876,1006.03l8.089,4.67v-2.049l-8.089-4.67Z" transform="translate(-930.515 -977.404)" fill="#fff"/>
      <path id="Trazado_39604" data-name="Trazado 39604" d="M960.217,1001.031l13.6,7.853v-2.049l-13.6-7.853Z" transform="translate(-937.088 -981.199)" fill="#fff"/>
      <path id="Trazado_39605" data-name="Trazado 39605" d="M947.069,993.44l21.5,12.414V1003.8l-21.5-12.414Z" transform="translate(-947.069 -986.962)" fill="#fff"/>
      <path id="Trazado_39606" data-name="Trazado 39606" d="M975.433,1012.334l21.5,12.414V1022.7l-21.5-12.414Z" transform="translate(-925.538 -972.62)" fill="#fff"/>
      <path id="Trazado_39607" data-name="Trazado 39607" d="M961.251,1004.146l21.5,12.414v-2.049l-21.5-12.414Z" transform="translate(-936.303 -978.835)" fill="#fff"/>
      <path id="Trazado_39608" data-name="Trazado 39608" d="M947.069,995.957l21.5,12.414v-2.049l-21.5-12.414Z" transform="translate(-947.069 -985.05)" fill="#fff"/>
      <path id="Trazado_39609" data-name="Trazado 39609" d="M983.161,1019.313l7.908,4.566v-2.049l-7.908-4.566Z" transform="translate(-919.672 -967.322)" fill="#fff"/>
      <path id="Trazado_39610" data-name="Trazado 39610" d="M974.091,1014.077l14.461,8.349v-2.049l-14.461-8.349Z" transform="translate(-926.556 -971.296)" fill="#fff"/>
      <path id="Trazado_39611" data-name="Trazado 39611" d="M968.876,1011.066l8.089,4.67v-2.049l-8.089-4.67Z" transform="translate(-930.515 -973.582)" fill="#fff"/>
      <path id="Trazado_39612" data-name="Trazado 39612" d="M960.217,1006.067l13.6,7.853v-2.049l-13.6-7.853Z" transform="translate(-937.088 -977.376)" fill="#fff"/>
      <path id="Trazado_39613" data-name="Trazado 39613" d="M947.069,998.475l21.5,12.414v-2.049l-21.5-12.414Z" transform="translate(-947.069 -983.139)" fill="#fff"/>
    </g>
    <g id="Grupo_28656" data-name="Grupo 28656" transform="translate(995.275 987.475)">
      <path id="Trazado_39614" data-name="Trazado 39614" d="M975.433,994.541l21.5,12.414v-2.049l-21.5-12.414Z" transform="translate(-925.538 -963.685)" fill="#fff"/>
      <path id="Trazado_39615" data-name="Trazado 39615" d="M961.251,986.353l21.5,12.414v-2.049l-21.5-12.414Z" transform="translate(-936.303 -969.9)" fill="#fff"/>
      <path id="Trazado_39616" data-name="Trazado 39616" d="M947.069,978.165l21.5,12.414V988.53l-21.5-12.414Z" transform="translate(-947.069 -976.116)" fill="#fff"/>
      <path id="Trazado_39617" data-name="Trazado 39617" d="M983.161,1001.521l7.908,4.565v-2.049l-7.908-4.566Z" transform="translate(-919.672 -958.387)" fill="#fff"/>
      <path id="Trazado_39618" data-name="Trazado 39618" d="M974.091,996.284l14.461,8.349v-2.049l-14.461-8.349Z" transform="translate(-926.556 -962.362)" fill="#fff"/>
      <path id="Trazado_39619" data-name="Trazado 39619" d="M968.876,993.273l8.089,4.67v-2.049l-8.089-4.67Z" transform="translate(-930.515 -964.648)" fill="#fff"/>
      <path id="Trazado_39620" data-name="Trazado 39620" d="M960.217,988.274l13.6,7.853v-2.049l-13.6-7.853Z" transform="translate(-937.088 -968.442)" fill="#fff"/>
      <path id="Trazado_39621" data-name="Trazado 39621" d="M947.069,980.683l21.5,12.414v-2.049l-21.5-12.414Z" transform="translate(-947.069 -974.205)" fill="#fff"/>
      <path id="Trazado_39622" data-name="Trazado 39622" d="M975.433,999.577l21.5,12.414v-2.049l-21.5-12.414Z" transform="translate(-925.538 -959.863)" fill="#fff"/>
      <path id="Trazado_39623" data-name="Trazado 39623" d="M961.251,991.388l21.5,12.414v-2.049l-21.5-12.414Z" transform="translate(-936.303 -966.078)" fill="#fff"/>
      <path id="Trazado_39624" data-name="Trazado 39624" d="M947.069,983.2l21.5,12.414v-2.049l-21.5-12.414Z" transform="translate(-947.069 -972.293)" fill="#fff"/>
      <path id="Trazado_39625" data-name="Trazado 39625" d="M983.161,1006.556l7.908,4.566v-2.049l-7.908-4.566Z" transform="translate(-919.672 -954.565)" fill="#fff"/>
      <path id="Trazado_39626" data-name="Trazado 39626" d="M974.091,1001.32l14.461,8.349v-2.049l-14.461-8.349Z" transform="translate(-926.556 -958.539)" fill="#fff"/>
      <path id="Trazado_39627" data-name="Trazado 39627" d="M968.876,998.309l8.089,4.67v-2.049l-8.089-4.67Z" transform="translate(-930.515 -960.825)" fill="#fff"/>
      <path id="Trazado_39628" data-name="Trazado 39628" d="M960.217,993.31l13.6,7.853v-2.049l-13.6-7.853Z" transform="translate(-937.088 -964.62)" fill="#fff"/>
      <path id="Trazado_39629" data-name="Trazado 39629" d="M947.069,985.718l21.5,12.414v-2.049l-21.5-12.414Z" transform="translate(-947.069 -970.382)" fill="#fff"/>
    </g>
    <g id="Grupo_28657" data-name="Grupo 28657" transform="translate(883.561 1040.843)">
      <path id="Trazado_39630" data-name="Trazado 39630" d="M918.228,1019.434,898.6,1008.1c-6.8-3.669-14.769-.9-14.769,5.18l3.719,19.114c0,6.078,4.973,13.921,11.05,17.431l5.386,3.11v46.988c0,2.389,1.954,5.471,4.343,6.848l.167.1.041.021.04.026,4.9,6.107c1.784.553,5.6-.99,5.58-2.6v-1.249a5.3,5.3,0,0,0-2.549-4.018c1.4.807,2.549.324,2.549-1.078v-1.247a5.3,5.3,0,0,0-2.549-4.019c1.4.809,2.549.325,2.549-1.077v-1.247a5.3,5.3,0,0,0-2.549-4.02l-3.669-2.118v-28.917l4.347,2.171c6.53,1.91,12.09-1.036,12.09-7.114v-19.624C929.279,1030.787,924.306,1022.943,918.228,1019.434Zm-9.812,10.317c-2.32-1.34-4.2-4.308-4.2-6.628s1.88-3.115,4.2-1.775,4.2,4.306,4.2,6.626S910.736,1031.089,908.416,1029.751Z" transform="translate(-883.353 -1006.455)" fill="#9b235c"/>
      <path id="Trazado_39631" data-name="Trazado 39631" d="M914.236,1020.15l-19.624-11.33c-6.078-3.509-11.051-1.407-11.051,4.67v19.624c0,6.078,4.973,13.921,11.051,17.431l5.386,3.11v46.988c0,2.387,1.954,5.471,4.343,6.848l.167.1.039.021.04.026,7.932,4.579c1.4.809,2.547.323,2.547-1.077v-1.249a5.31,5.31,0,0,0-2.547-4.02c1.4.809,2.547.326,2.547-1.076v-1.247a5.307,5.307,0,0,0-2.547-4.02c1.4.809,2.547.326,2.547-1.076V1097.2a5.306,5.306,0,0,0-2.547-4.019l-3.669-2.118v-32.3l5.386,3.11c6.078,3.507,11.05,1.407,11.05-4.67V1037.58C925.286,1031.5,920.313,1023.659,914.236,1020.15Zm-9.812,10.315c-2.32-1.339-4.2-4.306-4.2-6.627s1.88-3.115,4.2-1.775,4.2,4.306,4.2,6.626S906.744,1031.805,904.424,1030.465Z" transform="translate(-883.561 -1005.95)" fill="#c63c85"/>
      <rect id="Rect치ngulo_5388" data-name="Rect치ngulo 5388" width="2.578" height="1.466" transform="matrix(0.774, -0.633, 0.633, 0.774, 32.344, 92.948)" fill="url(#linear-gradient)"/>
      <rect id="Rect치ngulo_5389" data-name="Rect치ngulo 5389" width="2.578" height="1.466" transform="matrix(0.774, -0.633, 0.633, 0.774, 32.332, 99.302)" fill="url(#linear-gradient-2)"/>
    </g>
  </g>
</svg>
