<svg id="Grupo_28582" data-name="Grupo 28582" xmlns="http://www.w3.org/2000/svg" width="91.046" height="88.935" viewBox="0 0 91.046 88.935">
  <path id="Trazado_39474" data-name="Trazado 39474" d="M300.537,1369.141a42.092,42.092,0,1,1-42.092-42.092,42.092,42.092,0,0,1,42.092,42.092Zm0,0" transform="translate(-209.491 -1327.049)" fill="#f7f8f9"/>
  <path id="Trazado_39475" data-name="Trazado 39475" d="M355.8,1523.025a13.3,13.3,0,0,1-8.181,2.771,13.588,13.588,0,0,1-8.181-2.771,18.445,18.445,0,0,0-10.292,16.494v6.07H366.1v-6.07a18.294,18.294,0,0,0-10.292-16.494Zm0,0" transform="translate(-305.53 -1477.502)" fill="#fff"/>
  <path id="Trazado_39476" data-name="Trazado 39476" d="M361.114,1541.882H324.168a1.247,1.247,0,0,1-1.32-1.319v-6.07a19.531,19.531,0,0,1,11.084-17.682,1.446,1.446,0,0,1,1.452.133,11.4,11.4,0,0,0,7.389,2.507,12.473,12.473,0,0,0,7.389-2.507,1.416,1.416,0,0,1,1.451-.133,19.529,19.529,0,0,1,11.084,17.682v6.07a2,2,0,0,1-1.584,1.319Zm-35.627-2.639h34.307v-4.75a17.2,17.2,0,0,0-8.841-15.042,14.414,14.414,0,0,1-16.626,0,16.944,16.944,0,0,0-8.84,15.042Zm0,0" transform="translate(-300.548 -1472.476)" fill="#193540"/>
  <path id="Trazado_39477" data-name="Trazado 39477" d="M354.356,1563.229v-.792a13.264,13.264,0,0,1,5.014-10.424,19.034,19.034,0,0,0,16.362,0,13.07,13.07,0,0,1,5.014,10.424v.792Zm0,0" transform="translate(-325.459 -1500.42)" fill="#ffc23b"/>
  <rect id="Rectángulo_5367" data-name="Rectángulo 5367" width="2.639" height="2.639" transform="translate(70.33 40.773)" fill="#193540"/>
  <rect id="Rectángulo_5368" data-name="Rectángulo 5368" width="2.639" height="2.639" transform="translate(70.33 46.052)" fill="#193540"/>
  <rect id="Rectángulo_5369" data-name="Rectángulo 5369" width="2.639" height="2.639" transform="translate(70.33 51.197)" fill="#193540"/>
  <rect id="Rectángulo_5370" data-name="Rectángulo 5370" width="2.639" height="2.639" transform="translate(11.216 40.773)" fill="#193540"/>
  <rect id="Rectángulo_5371" data-name="Rectángulo 5371" width="2.639" height="2.639" transform="translate(11.216 46.052)" fill="#193540"/>
  <rect id="Rectángulo_5372" data-name="Rectángulo 5372" width="2.639" height="2.639" transform="translate(11.216 51.197)" fill="#193540"/>
  <rect id="Rectángulo_5373" data-name="Rectángulo 5373" width="2.639" height="2.639" transform="translate(46.051 78.907)" fill="#193540"/>
  <rect id="Rectángulo_5374" data-name="Rectángulo 5374" width="2.639" height="2.639" transform="translate(40.773 78.907)" fill="#193540"/>
  <rect id="Rectángulo_5375" data-name="Rectángulo 5375" width="2.639" height="2.639" transform="translate(35.495 78.907)" fill="#193540"/>
  <rect id="Rectángulo_5376" data-name="Rectángulo 5376" width="2.639" height="2.639" transform="translate(46.051 13.195)" fill="#193540"/>
  <rect id="Rectángulo_5377" data-name="Rectángulo 5377" width="2.639" height="2.639" transform="translate(40.773 13.195)" fill="#193540"/>
  <rect id="Rectángulo_5378" data-name="Rectángulo 5378" width="2.639" height="2.639" transform="translate(35.495 13.195)" fill="#193540"/>
  <path id="Trazado_39478" data-name="Trazado 39478" d="M393.567,1440.86a8.577,8.577,0,1,1-8.577-8.577,8.577,8.577,0,0,1,8.577,8.577Zm0,0" transform="translate(-342.898 -1405.761)" fill="#fff"/>
  <path id="Trazado_39479" data-name="Trazado 39479" d="M380.006,1445.146a9.9,9.9,0,1,1,9.9-9.9,9.883,9.883,0,0,1-9.9,9.9Zm0-17.021a7.257,7.257,0,1,0,7.258,7.257,7.321,7.321,0,0,0-7.258-7.257Zm0,0" transform="translate(-337.914 -1400.282)" fill="#193540"/>
  <path id="Trazado_39480" data-name="Trazado 39480" d="M260.468,1621.964a5.674,5.674,0,1,1-5.673-5.673,5.673,5.673,0,0,1,5.673,5.673Zm0,0" transform="translate(-242.259 -1551.239)" fill="#fff"/>
  <path id="Trazado_39481" data-name="Trazado 39481" d="M249.814,1623.973a6.993,6.993,0,1,1,6.994-6.993,7.039,7.039,0,0,1-6.994,6.993Zm0-11.347a4.354,4.354,0,1,0,4.354,4.354,4.393,4.393,0,0,0-4.354-4.354Zm0,0" transform="translate(-237.279 -1546.254)" fill="#193540"/>
  <path id="Trazado_39482" data-name="Trazado 39482" d="M233.869,1670.482a11.206,11.206,0,0,0-11.216,11.216h22.432a11.206,11.206,0,0,0-11.216-11.216Zm0,0" transform="translate(-221.334 -1594.082)" fill="#9b235c"/>
  <path id="Trazado_39483" data-name="Trazado 39483" d="M240.1,1678.035H217.672a1.247,1.247,0,0,1-1.32-1.319,12.535,12.535,0,0,1,25.071,0,1.246,1.246,0,0,1-1.319,1.319Zm-21.112-2.638h19.66a9.867,9.867,0,0,0-9.9-8.577,9.736,9.736,0,0,0-9.764,8.577Zm0,0" transform="translate(-216.352 -1589.101)" fill="#193540"/>
  <path id="Trazado_39484" data-name="Trazado 39484" d="M260.468,1339.023a5.674,5.674,0,1,1-5.673-5.674,5.674,5.674,0,0,1,5.673,5.674Zm0,0" transform="translate(-242.259 -1327.543)" fill="#fff"/>
  <path id="Trazado_39485" data-name="Trazado 39485" d="M249.814,1341.036a6.993,6.993,0,1,1,6.994-6.993,7.039,7.039,0,0,1-6.994,6.993Zm0-11.348a4.355,4.355,0,1,0,4.354,4.355,4.393,4.393,0,0,0-4.354-4.355Zm0,0" transform="translate(-237.279 -1322.562)" fill="#193540"/>
  <path id="Trazado_39486" data-name="Trazado 39486" d="M233.869,1387.545a11.206,11.206,0,0,0-11.216,11.216h22.432a11.206,11.206,0,0,0-11.216-11.216Zm0,0" transform="translate(-221.334 -1370.391)" fill="#437795"/>
  <path id="Trazado_39487" data-name="Trazado 39487" d="M240.1,1395.1H217.672a1.247,1.247,0,0,1-1.32-1.319,12.535,12.535,0,1,1,25.071,0,1.246,1.246,0,0,1-1.319,1.319Zm-21.112-2.639h19.66a9.867,9.867,0,0,0-9.9-8.577,9.735,9.735,0,0,0-9.764,8.577Zm0,0" transform="translate(-216.352 -1365.406)" fill="#193540"/>
  <path id="Trazado_39488" data-name="Trazado 39488" d="M542.778,1621.964a5.674,5.674,0,1,1-5.674-5.673,5.674,5.674,0,0,1,5.674,5.673Zm0,0" transform="translate(-465.454 -1551.239)" fill="#fff"/>
  <path id="Trazado_39489" data-name="Trazado 39489" d="M532.123,1623.973a6.993,6.993,0,1,1,6.993-6.993,7.04,7.04,0,0,1-6.993,6.993Zm0-11.347a4.354,4.354,0,1,0,4.354,4.354,4.393,4.393,0,0,0-4.354-4.354Zm0,0" transform="translate(-460.473 -1546.254)" fill="#193540"/>
  <path id="Trazado_39490" data-name="Trazado 39490" d="M516.181,1670.482a11.206,11.206,0,0,0-11.216,11.216H527.4a11.206,11.206,0,0,0-11.216-11.216Zm0,0" transform="translate(-444.531 -1594.082)" fill="#907789"/>
  <path id="Trazado_39491" data-name="Trazado 39491" d="M522.412,1678.035H499.981a1.247,1.247,0,0,1-1.32-1.319,12.535,12.535,0,0,1,25.071,0,1.246,1.246,0,0,1-1.319,1.319Zm-20.98-2.638h19.661a9.868,9.868,0,0,0-9.9-8.577,9.641,9.641,0,0,0-9.765,8.577Zm0,0" transform="translate(-439.547 -1589.101)" fill="#193540"/>
  <path id="Trazado_39492" data-name="Trazado 39492" d="M542.778,1339.023a5.674,5.674,0,1,1-5.674-5.674,5.674,5.674,0,0,1,5.674,5.674Zm0,0" transform="translate(-465.454 -1327.543)" fill="#fff"/>
  <path id="Trazado_39493" data-name="Trazado 39493" d="M532.123,1341.036a6.993,6.993,0,1,1,6.993-6.993,7.04,7.04,0,0,1-6.993,6.993Zm0-11.348a4.355,4.355,0,1,0,4.354,4.355,4.393,4.393,0,0,0-4.354-4.355Zm0,0" transform="translate(-460.473 -1322.562)" fill="#193540"/>
  <path id="Trazado_39494" data-name="Trazado 39494" d="M516.181,1387.545a11.206,11.206,0,0,0-11.216,11.216H527.4a11.206,11.206,0,0,0-11.216-11.216Zm0,0" transform="translate(-444.531 -1370.391)" fill="#ffc23b"/>
  <path id="Trazado_39495" data-name="Trazado 39495" d="M522.412,1395.1H499.981a1.247,1.247,0,0,1-1.32-1.319,12.535,12.535,0,1,1,25.071,0,1.246,1.246,0,0,1-1.319,1.319Zm-20.98-2.639h19.661a9.868,9.868,0,0,0-9.9-8.577,9.641,9.641,0,0,0-9.765,8.577Zm0,0" transform="translate(-439.547 -1365.406)" fill="#193540"/>
</svg>
