<svg xmlns="http://www.w3.org/2000/svg" width="246.754" height="254.386" viewBox="0 0 246.754 254.386">
  <g id="Grupo_28579" data-name="Grupo 28579" transform="translate(-620.962 -970.852)">
    <circle id="Elipse_1274" data-name="Elipse 1274" cx="107.254" cy="107.254" r="107.254" transform="matrix(0.164, -0.986, 0.986, 0.164, 620.962, 1190.092)" fill="#f2f2f2" opacity="0.5"/>
    <g id="Grupo_28545" data-name="Grupo 28545" transform="translate(647.16 1150.103)" opacity="0.3">
      <path id="Trazado_39337" data-name="Trazado 39337" d="M671.148,1139.135a11.727,11.727,0,0,1-5.865-1.487l-21.653-12.5a7.567,7.567,0,0,1,0-13.484l21.653-12.5a12.323,12.323,0,0,1,11.731,0l21.653,12.5a7.567,7.567,0,0,1,0,13.484l-21.653,12.5A11.727,11.727,0,0,1,671.148,1139.135Z" transform="translate(-639.498 -1097.677)" fill="#fff" opacity="0"/>
      <path id="Trazado_39338" data-name="Trazado 39338" d="M665.3,1099.243a11.6,11.6,0,0,1,5.823-1.464,12.633,12.633,0,0,1,2.772.311,11.131,11.131,0,0,1,3.042,1.18l21.486,12.405a7.944,7.944,0,0,1,4.151,6.647,7.255,7.255,0,0,1-2.013,5.063,9.12,9.12,0,0,1-2.062,1.623l-21.537,12.435a11.494,11.494,0,0,1-4.02,1.37,13.085,13.085,0,0,1-1.806.134,11.574,11.574,0,0,1-5.836-1.463l-21.591-12.466a8.979,8.979,0,0,1-2.492-2.112,7.149,7.149,0,0,1-1.6-4.584,7.972,7.972,0,0,1,4.162-6.653Z" transform="translate(-639.448 -1097.635)" fill="#fafafa" opacity="0.024"/>
      <path id="Trazado_39339" data-name="Trazado 39339" d="M665.324,1099.324a11.448,11.448,0,0,1,5.781-1.444,12.674,12.674,0,0,1,2.748.319,11.325,11.325,0,0,1,3.013,1.179l21.321,12.309a8.052,8.052,0,0,1,4.168,6.552,7.039,7.039,0,0,1-1.962,5.022,9.387,9.387,0,0,1-2.054,1.607l-21.422,12.368a11.738,11.738,0,0,1-3.993,1.377,13.082,13.082,0,0,1-1.792.144,11.422,11.422,0,0,1-5.807-1.439l-21.53-12.429a9.323,9.323,0,0,1-2.492-2.1,6.909,6.909,0,0,1-1.56-4.554,8.113,8.113,0,0,1,4.192-6.565Z" transform="translate(-639.398 -1097.593)" fill="#f6f6f6" opacity="0.049"/>
      <path id="Trazado_39340" data-name="Trazado 39340" d="M665.345,1099.405a11.318,11.318,0,0,1,5.737-1.423,12.611,12.611,0,0,1,2.725.326,11.488,11.488,0,0,1,2.985,1.177l21.154,12.213a8.175,8.175,0,0,1,4.188,6.456,6.818,6.818,0,0,1-1.912,4.981,9.578,9.578,0,0,1-2.045,1.591l-21.309,12.3a11.993,11.993,0,0,1-3.966,1.386,13.043,13.043,0,0,1-1.778.153,11.28,11.28,0,0,1-5.778-1.413l-21.468-12.4a9.6,9.6,0,0,1-2.493-2.079,6.68,6.68,0,0,1-1.521-4.526,8.275,8.275,0,0,1,4.223-6.476Z" transform="translate(-639.349 -1097.551)" fill="#f1f1f1" opacity="0.073"/>
      <path id="Trazado_39341" data-name="Trazado 39341" d="M665.368,1099.486a11.177,11.177,0,0,1,5.693-1.4,12.45,12.45,0,0,1,2.7.335,11.664,11.664,0,0,1,2.958,1.174l20.987,12.117a8.3,8.3,0,0,1,4.206,6.362,6.6,6.6,0,0,1-1.861,4.938,9.811,9.811,0,0,1-2.038,1.578l-21.193,12.235a12.3,12.3,0,0,1-3.939,1.395,13.51,13.51,0,0,1-1.765.162,11.142,11.142,0,0,1-5.748-1.391l-21.407-12.36a9.985,9.985,0,0,1-2.493-2.062,6.443,6.443,0,0,1-1.48-4.5,8.442,8.442,0,0,1,4.253-6.388Z" transform="translate(-639.3 -1097.509)" fill="#ededed" opacity="0.098"/>
      <path id="Trazado_39342" data-name="Trazado 39342" d="M665.39,1099.567a11.037,11.037,0,0,1,5.651-1.381,12.414,12.414,0,0,1,2.676.342,11.965,11.965,0,0,1,2.93,1.173l20.822,12.022a8.449,8.449,0,0,1,4.225,6.264,6.407,6.407,0,0,1-1.811,4.9,10.119,10.119,0,0,1-2.031,1.56l-21.079,12.17a12.612,12.612,0,0,1-3.912,1.4,13.085,13.085,0,0,1-1.751.172,10.986,10.986,0,0,1-5.719-1.366L644.044,1124.5a10.331,10.331,0,0,1-2.495-2.045,6.236,6.236,0,0,1-1.44-4.468,8.624,8.624,0,0,1,4.284-6.3Z" transform="translate(-639.251 -1097.467)" fill="#e8e8e8" opacity="0.122"/>
      <path id="Trazado_39343" data-name="Trazado 39343" d="M665.412,1099.648a10.9,10.9,0,0,1,5.608-1.36,11.508,11.508,0,0,1,5.553,1.521l20.655,11.926a8.606,8.606,0,0,1,4.244,6.169,6.212,6.212,0,0,1-1.761,4.856,10.426,10.426,0,0,1-2.022,1.546l-20.965,12.1a12.985,12.985,0,0,1-3.887,1.411,13.311,13.311,0,0,1-1.737.181,10.836,10.836,0,0,1-5.689-1.343l-21.284-12.288a10.659,10.659,0,0,1-2.495-2.03,6.011,6.011,0,0,1-1.4-4.438c.175-2.322,2.1-4.936,4.314-6.21Z" transform="translate(-639.202 -1097.425)" fill="#e4e4e4" opacity="0.146"/>
      <path id="Trazado_39344" data-name="Trazado 39344" d="M665.435,1099.728a10.772,10.772,0,0,1,5.566-1.337,12.2,12.2,0,0,1,2.627.356,12.479,12.479,0,0,1,2.873,1.17l20.488,11.83c2.145,1.238,4.082,3.819,4.263,6.073a6.013,6.013,0,0,1-1.71,4.817,10.775,10.775,0,0,1-2.016,1.531L676.678,1136.2a12.061,12.061,0,0,1-5.584,1.61,10.7,10.7,0,0,1-5.659-1.319l-21.223-12.252a11.063,11.063,0,0,1-2.495-2.014,5.808,5.808,0,0,1-1.361-4.408c.2-2.253,2.2-4.882,4.343-6.121Z" transform="translate(-639.155 -1097.383)" fill="#dfdfdf" opacity="0.171"/>
      <path id="Trazado_39345" data-name="Trazado 39345" d="M665.458,1099.809a10.641,10.641,0,0,1,5.523-1.316,12.057,12.057,0,0,1,2.6.365,12.709,12.709,0,0,1,2.845,1.167l20.323,11.734c2.082,1.2,4.078,3.792,4.281,5.979a5.822,5.822,0,0,1-1.661,4.774,11.069,11.069,0,0,1-2.007,1.515L676.631,1136a13.632,13.632,0,0,1-3.832,1.427,13.107,13.107,0,0,1-1.712.2,10.57,10.57,0,0,1-5.629-1.295L644.3,1124.113a11.522,11.522,0,0,1-2.5-2,5.613,5.613,0,0,1-1.321-4.379c.225-2.185,2.292-4.831,4.374-6.032Z" transform="translate(-639.107 -1097.341)" fill="#dbdbdb" opacity="0.195"/>
      <path id="Trazado_39346" data-name="Trazado 39346" d="M665.481,1099.89a10.494,10.494,0,0,1,5.48-1.295,12.015,12.015,0,0,1,2.581.372,13.018,13.018,0,0,1,2.818,1.166l20.155,11.638c2.02,1.166,4.076,3.765,4.3,5.883a5.633,5.633,0,0,1-1.61,4.733,11.421,11.421,0,0,1-2,1.5l-20.621,11.9a14.138,14.138,0,0,1-3.806,1.436,13.312,13.312,0,0,1-1.7.208,10.425,10.425,0,0,1-5.6-1.271l-21.1-12.182a12,12,0,0,1-2.5-1.98,5.422,5.422,0,0,1-1.281-4.35c.246-2.115,2.386-4.777,4.4-5.943Z" transform="translate(-639.06 -1097.299)" fill="#d6d6d6" opacity="0.22"/>
      <path id="Trazado_39347" data-name="Trazado 39347" d="M665.505,1099.971a10.366,10.366,0,0,1,5.437-1.274,11.844,11.844,0,0,1,2.555.379,13.25,13.25,0,0,1,2.791,1.166l19.988,11.54c1.956,1.129,4.076,3.738,4.319,5.788a5.454,5.454,0,0,1-1.56,4.693,11.71,11.71,0,0,1-1.991,1.484l-20.505,11.84a14.6,14.6,0,0,1-3.779,1.444,13.3,13.3,0,0,1-1.683.216,10.3,10.3,0,0,1-5.572-1.245l-21.038-12.148a12.406,12.406,0,0,1-2.5-1.963,5.242,5.242,0,0,1-1.241-4.321c.267-2.045,2.479-4.726,4.435-5.856Z" transform="translate(-639.013 -1097.257)" fill="#d1d1d1" opacity="0.244"/>
      <path id="Trazado_39348" data-name="Trazado 39348" d="M665.531,1100.052a10.221,10.221,0,0,1,5.393-1.254,11.791,11.791,0,0,1,2.531.389,13.548,13.548,0,0,1,2.763,1.163l19.823,11.444c1.893,1.093,4.076,3.713,4.336,5.692a5.275,5.275,0,0,1-1.509,4.651,12.121,12.121,0,0,1-1.983,1.47l-20.391,11.772a15.024,15.024,0,0,1-3.752,1.453,13.71,13.71,0,0,1-1.671.228,10.169,10.169,0,0,1-5.542-1.223l-20.977-12.111a12.99,12.99,0,0,1-2.5-1.948,5.062,5.062,0,0,1-1.2-4.292c.286-1.975,2.572-4.673,4.465-5.765Z" transform="translate(-638.966 -1097.216)" fill="#cdcdcd" opacity="0.268"/>
      <path id="Trazado_39349" data-name="Trazado 39349" d="M665.555,1100.134a10.091,10.091,0,0,1,5.351-1.232,11.751,11.751,0,0,1,2.507.4,14.038,14.038,0,0,1,2.735,1.162l19.656,11.348c1.83,1.057,4.079,3.688,4.356,5.6a5.109,5.109,0,0,1-1.459,4.61,12.7,12.7,0,0,1-1.976,1.453l-20.276,11.707a15.55,15.55,0,0,1-3.727,1.462,13.668,13.668,0,0,1-1.655.236,10.022,10.022,0,0,1-5.512-1.2L644.639,1123.6a13.6,13.6,0,0,1-2.5-1.931,4.892,4.892,0,0,1-1.16-4.263c.3-1.905,2.666-4.622,4.5-5.677Z" transform="translate(-638.92 -1097.174)" fill="#c8c8c8" opacity="0.293"/>
      <path id="Trazado_39350" data-name="Trazado 39350" d="M665.58,1100.215a9.963,9.963,0,0,1,5.309-1.211,11.7,11.7,0,0,1,2.483.4,14.408,14.408,0,0,1,2.707,1.161l19.489,11.252c1.768,1.021,4.083,3.661,4.374,5.5a4.942,4.942,0,0,1-1.408,4.57,13.165,13.165,0,0,1-1.969,1.439L676.4,1134.968a16.106,16.106,0,0,1-3.7,1.47,13.447,13.447,0,0,1-1.642.244,9.881,9.881,0,0,1-5.482-1.175l-20.856-12.04a14.192,14.192,0,0,1-2.5-1.914,4.728,4.728,0,0,1-1.119-4.235c.318-1.834,2.759-4.568,4.526-5.588Z" transform="translate(-638.874 -1097.132)" fill="#c4c4c4" opacity="0.317"/>
      <path id="Trazado_39351" data-name="Trazado 39351" d="M665.64,1100.294a9.837,9.837,0,0,1,5.265-1.188,11.548,11.548,0,0,1,2.461.41,14.8,14.8,0,0,1,2.678,1.159l19.324,11.156c1.7.984,4.087,3.635,4.393,5.406a4.779,4.779,0,0,1-1.358,4.527,13.7,13.7,0,0,1-1.96,1.425l-20.047,11.574a16.78,16.78,0,0,1-3.672,1.477,13.419,13.419,0,0,1-1.63.254,9.743,9.743,0,0,1-5.453-1.151l-20.794-12a14.881,14.881,0,0,1-2.5-1.9,3.993,3.993,0,0,1-1.081-4.2c0-1.8,2.852-4.517,4.557-5.5Z" transform="translate(-638.864 -1097.09)" fill="#bfbfbf" opacity="0.341"/>
      <path id="Trazado_39352" data-name="Trazado 39352" d="M665.668,1100.376a9.71,9.71,0,0,1,5.222-1.167,11.414,11.414,0,0,1,2.437.418,15.259,15.259,0,0,1,2.65,1.156l19.157,11.06c1.641.947,4.412,3.58,4.412,5.31a4.094,4.094,0,0,1-1.309,4.488,14.173,14.173,0,0,1-1.952,1.408l-19.933,11.508a17.386,17.386,0,0,1-3.645,1.487,13.486,13.486,0,0,1-1.617.263,9.608,9.608,0,0,1-5.423-1.126l-20.731-11.97a15.486,15.486,0,0,1-2.5-1.881,3.838,3.838,0,0,1-1.04-4.175c0-1.73,2.945-4.463,4.586-5.41Z" transform="translate(-638.821 -1097.049)" fill="#bbb" opacity="0.366"/>
      <path id="Trazado_39353" data-name="Trazado 39353" d="M665.7,1100.457a9.57,9.57,0,0,1,5.18-1.146,11.324,11.324,0,0,1,2.411.426,15.778,15.778,0,0,1,2.623,1.155l18.99,10.964c1.579.912,4.431,3.552,4.431,5.215a3.942,3.942,0,0,1-1.258,4.445,14.8,14.8,0,0,1-1.945,1.394l-19.817,11.441a18.147,18.147,0,0,1-3.62,1.5,13.461,13.461,0,0,1-1.6.271,9.473,9.473,0,0,1-5.395-1.1l-20.671-11.933a16.4,16.4,0,0,1-2.5-1.866,3.7,3.7,0,0,1-1-4.146c0-1.663,3.039-4.411,4.617-5.323Z" transform="translate(-638.779 -1097.007)" fill="#b6b6b6" opacity="0.39"/>
      <path id="Trazado_39354" data-name="Trazado 39354" d="M665.726,1100.538a9.444,9.444,0,0,1,5.138-1.125,11.285,11.285,0,0,1,2.387.432,16.313,16.313,0,0,1,2.595,1.153l18.825,10.867c1.514.875,4.449,3.522,4.449,5.119.677,1.5.165,3.1-1.208,4.405a15.385,15.385,0,0,1-1.936,1.377l-19.7,11.376a18.913,18.913,0,0,1-3.593,1.5,13.565,13.565,0,0,1-1.589.281,9.351,9.351,0,0,1-5.365-1.077l-20.608-11.9a17.249,17.249,0,0,1-2.5-1.849c-1.194-1.273-1.638-2.742-.961-4.117,0-1.6,3.133-4.359,4.649-5.234Z" transform="translate(-638.738 -1096.965)" fill="#b1b1b1" opacity="0.415"/>
      <path id="Trazado_39355" data-name="Trazado 39355" d="M665.756,1100.62a9.3,9.3,0,0,1,5.094-1.1,11.143,11.143,0,0,1,2.363.44,16.9,16.9,0,0,1,2.567,1.152l18.658,10.771c1.451.838,4.468,3.494,4.468,5.024.718,1.476.221,3.061-1.156,4.363a16.28,16.28,0,0,1-1.931,1.363l-19.588,11.308a19.611,19.611,0,0,1-3.564,1.512,13.515,13.515,0,0,1-1.576.29,9.218,9.218,0,0,1-5.336-1.053l-20.548-11.864a18.3,18.3,0,0,1-2.5-1.832c-1.2-1.271-1.638-2.731-.92-4.087,0-1.531,3.227-4.307,4.677-5.145Z" transform="translate(-638.696 -1096.924)" fill="#adadad" opacity="0.439"/>
      <path id="Trazado_39356" data-name="Trazado 39356" d="M665.786,1100.7a9.175,9.175,0,0,1,5.05-1.084,11.061,11.061,0,0,1,2.34.449,17.609,17.609,0,0,1,2.538,1.149l18.491,10.675c1.389.8,4.487,3.466,4.487,4.928.758,1.453.273,3.028-1.107,4.322a16.923,16.923,0,0,1-1.922,1.349l-19.473,11.242a20.775,20.775,0,0,1-3.539,1.521,14.164,14.164,0,0,1-1.56.3,9.09,9.09,0,0,1-5.306-1.03L645.3,1122.693a19.13,19.13,0,0,1-2.5-1.815c-1.211-1.269-1.638-2.721-.88-4.059,0-1.463,3.32-4.254,4.708-5.056Z" transform="translate(-638.655 -1096.882)" fill="#a8a8a8" opacity="0.463"/>
      <path id="Trazado_39357" data-name="Trazado 39357" d="M665.815,1100.781a9.049,9.049,0,0,1,5.008-1.061,11.048,11.048,0,0,1,2.317.456,18.331,18.331,0,0,1,2.51,1.148l18.326,10.579c1.324.766,4.5,3.436,4.5,4.834.8,1.429.328,2.991-1.056,4.281a18,18,0,0,1-1.914,1.331l-19.359,11.177a21.709,21.709,0,0,1-3.512,1.528,13.93,13.93,0,0,1-1.548.309,8.981,8.981,0,0,1-5.276-1.006l-20.426-11.792a20.493,20.493,0,0,1-2.5-1.8c-1.22-1.266-1.637-2.709-.84-4.029,0-1.4,3.413-4.2,4.738-4.968Z" transform="translate(-638.613 -1096.841)" fill="#a4a4a4" opacity="0.488"/>
      <path id="Trazado_39358" data-name="Trazado 39358" d="M665.845,1100.863a8.928,8.928,0,0,1,4.965-1.04,10.967,10.967,0,0,1,2.293.464,19.168,19.168,0,0,1,2.482,1.146l18.159,10.483c1.262.729,4.524,3.408,4.524,4.738.837,1.406.382,2.957-1.006,4.24a18.647,18.647,0,0,1-1.907,1.317l-19.243,11.11a22.9,22.9,0,0,1-3.485,1.536,13.924,13.924,0,0,1-1.535.318,8.854,8.854,0,0,1-5.246-.982l-20.364-11.756a21.634,21.634,0,0,1-2.5-1.782c-1.23-1.265-1.637-2.7-.8-4,0-1.33,3.507-4.15,4.769-4.879Z" transform="translate(-638.572 -1096.799)" fill="#9f9f9f" opacity="0.512"/>
      <path id="Trazado_39359" data-name="Trazado 39359" d="M665.875,1100.944a8.8,8.8,0,0,1,4.923-1.019,10.817,10.817,0,0,1,2.267.471,20.159,20.159,0,0,1,2.455,1.145l17.992,10.387c1.2.693,4.544,3.378,4.543,4.643.878,1.382.437,2.92-.955,4.2a19.937,19.937,0,0,1-1.9,1.3l-19.129,11.044a24.1,24.1,0,0,1-3.46,1.546,13.954,13.954,0,0,1-1.521.326,8.723,8.723,0,0,1-5.217-.958l-20.3-11.721a23.2,23.2,0,0,1-2.5-1.765c-1.24-1.262-1.638-2.687-.76-3.972,0-1.265,3.6-4.1,4.8-4.79Z" transform="translate(-638.531 -1096.758)" fill="#9b9b9b" opacity="0.537"/>
      <path id="Trazado_39360" data-name="Trazado 39360" d="M665.9,1101.026a8.67,8.67,0,0,1,4.88-1,10.579,10.579,0,0,1,2.243.479,20.922,20.922,0,0,1,2.427,1.142l17.827,10.292c1.135.656,4.561,3.348,4.561,4.546.917,1.361.49,2.886-.906,4.158a21.008,21.008,0,0,1-1.89,1.286l-19.016,10.978a25.5,25.5,0,0,1-3.432,1.553,13.709,13.709,0,0,1-1.507.336,8.611,8.611,0,0,1-5.189-.933l-20.241-11.687a24.5,24.5,0,0,1-2.5-1.748c-1.248-1.261-1.638-2.675-.721-3.943,0-1.2,3.693-4.045,4.829-4.7Z" transform="translate(-638.491 -1096.716)" fill="#969696" opacity="0.561"/>
      <path id="Trazado_39361" data-name="Trazado 39361" d="M665.935,1101.107a8.547,8.547,0,0,1,4.837-.977,10.556,10.556,0,0,1,2.22.486,22.16,22.16,0,0,1,2.4,1.141l17.66,10.2c1.073.619,4.581,3.318,4.581,4.45.957,1.337.544,2.849-.856,4.117a22.7,22.7,0,0,1-1.883,1.271l-18.9,10.911a27.279,27.279,0,0,1-3.4,1.562,13.741,13.741,0,0,1-1.494.345,8.483,8.483,0,0,1-5.159-.909l-20.179-11.652a26.135,26.135,0,0,1-2.506-1.733c-1.258-1.257-1.637-2.664-.68-3.912,0-1.132,3.786-3.993,4.859-4.613Z" transform="translate(-638.45 -1096.675)" fill="#929292" opacity="0.585"/>
      <path id="Trazado_39362" data-name="Trazado 39362" d="M665.966,1101.189a8.408,8.408,0,0,1,4.793-.956,10.477,10.477,0,0,1,2.2.493,23.942,23.942,0,0,1,2.37,1.139l17.493,10.1c1.01.582,4.6,3.29,4.6,4.354,1,1.314.6,2.815-.8,4.076-.249.223-1.566,1.077-1.876,1.255L675.953,1132.5a29.448,29.448,0,0,1-3.379,1.57,13.941,13.941,0,0,1-1.48.353,8.36,8.36,0,0,1-5.129-.885l-20.118-11.615a28.59,28.59,0,0,1-2.506-1.717c-1.268-1.255-1.637-2.653-.64-3.884,0-1.064,3.88-3.94,4.89-4.523Z" transform="translate(-638.41 -1096.634)" fill="#8d8d8d" opacity="0.61"/>
      <path id="Trazado_39363" data-name="Trazado 39363" d="M666,1101.271a8.288,8.288,0,0,1,4.75-.934,10.35,10.35,0,0,1,2.172.5,24.99,24.99,0,0,1,2.342,1.138l17.328,10c.946.546,4.618,3.262,4.618,4.26,1.036,1.29.653,2.779-.755,4.034-.233.209-1.577,1.073-1.867,1.241l-18.671,10.779a31.116,31.116,0,0,1-3.353,1.579,14.267,14.267,0,0,1-1.466.365,8.246,8.246,0,0,1-5.1-.862l-20.057-11.58c-.365-.211-2.23-1.429-2.507-1.7-1.276-1.254-1.637-2.641-.6-3.854,0-1,3.974-3.888,4.921-4.435Z" transform="translate(-638.369 -1096.592)" fill="#888" opacity="0.634"/>
      <path id="Trazado_39364" data-name="Trazado 39364" d="M666.027,1101.351a8.165,8.165,0,0,1,4.708-.913,10.29,10.29,0,0,1,2.148.51c.367.116,2,.951,2.315,1.135l17.16,9.908c.883.51,4.636,3.232,4.636,4.164,1.077,1.268.708,2.745-.7,3.994-.219.194-1.589,1.068-1.86,1.224l-18.556,10.713a33.719,33.719,0,0,1-3.324,1.587,14.324,14.324,0,0,1-1.453.373,8.124,8.124,0,0,1-5.07-.838l-20-11.545c-.339-.2-2.247-1.432-2.507-1.683-1.286-1.252-1.637-2.63-.56-3.826,0-.932,4.068-3.836,4.951-4.346Z" transform="translate(-638.329 -1096.551)" fill="#848484" opacity="0.659"/>
      <path id="Trazado_39365" data-name="Trazado 39365" d="M666.058,1101.433a8.046,8.046,0,0,1,4.666-.892,10.223,10.223,0,0,1,2.123.517c.342.109,1.993.963,2.288,1.134L692.128,1112c.821.473,4.656,3.2,4.656,4.069,1.117,1.244.762,2.708-.654,3.952-.2.18-1.6,1.064-1.852,1.21l-18.442,10.647a36.626,36.626,0,0,1-3.3,1.6,14.614,14.614,0,0,1-1.439.382,8,8,0,0,1-5.04-.814l-19.934-11.509c-.315-.181-2.267-1.433-2.509-1.667-1.3-1.251-1.637-2.619-.52-3.8,0-.865,4.161-3.784,4.982-4.257Z" transform="translate(-638.289 -1096.51)" fill="#7f7f7f" opacity="0.683"/>
      <path id="Trazado_39366" data-name="Trazado 39366" d="M666.088,1101.514a7.923,7.923,0,0,1,4.623-.871,10.173,10.173,0,0,1,2.1.524c.315.1,1.987.975,2.26,1.132l16.828,9.716c.756.437,4.673,3.174,4.673,3.973,1.156,1.221.817,2.673-.6,3.912-.188.164-1.611,1.06-1.843,1.193L675.8,1131.676c-.352.2-2.852,1.49-3.272,1.6a14.336,14.336,0,0,1-1.426.392,7.884,7.884,0,0,1-5.01-.79l-19.873-11.474c-.29-.167-2.284-1.436-2.507-1.649-1.306-1.249-1.637-2.609-.48-3.768,0-.8,4.254-3.731,5.01-4.168Z" transform="translate(-638.249 -1096.469)" fill="#7b7b7b" opacity="0.707"/>
      <path id="Trazado_39367" data-name="Trazado 39367" d="M666.119,1101.6a7.8,7.8,0,0,1,4.579-.849,10.009,10.009,0,0,1,2.076.531c.288.1,1.982.986,2.232,1.131l16.661,9.619c.694.4,4.692,3.146,4.692,3.878,1.2,1.2.871,2.637-.554,3.87-.172.15-1.623,1.056-1.836,1.179l-18.211,10.514c-.322.187-2.861,1.507-3.245,1.613a14.142,14.142,0,0,1-1.412.4,7.778,7.778,0,0,1-4.982-.765l-19.811-11.438c-.267-.154-2.3-1.439-2.509-1.634-1.316-1.247-1.637-2.6-.441-3.738,0-.732,4.348-3.679,5.042-4.08Z" transform="translate(-638.209 -1096.428)" fill="#767676" opacity="0.732"/>
      <path id="Trazado_39368" data-name="Trazado 39368" d="M666.15,1101.678a7.67,7.67,0,0,1,4.537-.828,9.87,9.87,0,0,1,2.052.54c.262.088,1.976,1,2.2,1.128l16.494,9.523c.632.365,4.712,3.116,4.711,3.782,1.237,1.176.927,2.6-.5,3.829-.158.137-1.635,1.053-1.829,1.165l-18.1,10.448c-.294.169-2.871,1.522-3.22,1.621a14.025,14.025,0,0,1-1.4.408,7.671,7.671,0,0,1-4.952-.741l-19.75-11.4c-.242-.14-2.321-1.44-2.509-1.617-1.326-1.246-1.637-2.586-.4-3.71,0-.666,4.441-3.627,5.071-3.991Z" transform="translate(-638.169 -1096.386)" fill="#727272" opacity="0.756"/>
      <path id="Trazado_39369" data-name="Trazado 39369" d="M666.182,1101.76a7.543,7.543,0,0,1,4.493-.807,9.832,9.832,0,0,1,2.028.547c.235.079,1.97,1.009,2.175,1.126l16.329,9.427c.567.328,4.729,3.088,4.729,3.688,1.276,1.152.981,2.565-.452,3.788-.143.122-1.647,1.048-1.82,1.148l-17.984,10.383c-.263.153-2.878,1.539-3.191,1.628a14.266,14.266,0,0,1-1.385.418,7.559,7.559,0,0,1-4.921-.717l-19.69-11.368c-.218-.126-2.341-1.442-2.51-1.6-1.336-1.244-1.637-2.574-.36-3.679,0-.6,4.534-3.574,5.1-3.9Z" transform="translate(-638.13 -1096.345)" fill="#6d6d6d" opacity="0.78"/>
      <path id="Trazado_39370" data-name="Trazado 39370" d="M666.213,1101.842a7.432,7.432,0,0,1,4.451-.786,9.793,9.793,0,0,1,2,.554c.208.072,1.965,1.02,2.147,1.125l16.162,9.331c.5.291,4.749,3.06,4.749,3.591,1.314,1.129,1.035,2.53-.4,3.747-.127.107-1.658,1.044-1.813,1.134l-17.868,10.316c-.235.134-2.886,1.555-3.165,1.637-.441.129-.882.333-1.371.428a7.455,7.455,0,0,1-4.893-.694l-19.627-11.332c-.2-.112-2.36-1.443-2.512-1.584-1.345-1.242-1.635-2.562-.319-3.651,0-.531,4.627-3.522,5.132-3.813Z" transform="translate(-638.09 -1096.304)" fill="#686868" opacity="0.805"/>
      <path id="Trazado_39371" data-name="Trazado 39371" d="M666.245,1101.922a7.316,7.316,0,0,1,4.408-.763,9.44,9.44,0,0,1,1.979.562c.182.064,1.962,1.03,2.12,1.122l16,9.235c.442.256,4.767,3.03,4.767,3.5,1.355,1.105,1.091,2.493-.352,3.706-.112.093-1.669,1.039-1.8,1.117l-17.753,10.25c-.2.119-2.9,1.573-3.139,1.647-.437.13-.872.339-1.357.437a7.343,7.343,0,0,1-4.863-.67l-19.567-11.3c-.17-.1-2.377-1.446-2.512-1.569-1.355-1.241-1.635-2.552-.28-3.621,0-.466,4.721-3.47,5.163-3.726Z" transform="translate(-638.051 -1096.263)" fill="#646464" opacity="0.829"/>
      <path id="Trazado_39372" data-name="Trazado 39372" d="M666.276,1102a7.2,7.2,0,0,1,4.365-.743,9.469,9.469,0,0,1,1.956.571c.157.055,1.956,1.042,2.092,1.121l15.83,9.139c.379.219,4.786,3,4.786,3.4,1.4,1.083,1.145,2.458-.3,3.665-.1.081-1.681,1.036-1.8,1.1l-17.639,10.183c-.175.1-2.9,1.59-3.112,1.653-.433.133-.862.346-1.344.447a7.23,7.23,0,0,1-4.834-.646l-19.5-11.26c-.146-.085-2.4-1.447-2.513-1.552-1.365-1.24-1.635-2.541-.24-3.593,0-.4,4.815-3.418,5.194-3.635Z" transform="translate(-638.011 -1096.223)" fill="#5f5f5f" opacity="0.854"/>
      <path id="Trazado_39373" data-name="Trazado 39373" d="M666.307,1102.087a7.075,7.075,0,0,1,4.322-.722,9.422,9.422,0,0,1,1.932.578c.13.047,1.95,1.054,2.063,1.119l15.663,9.043c.315.182,4.8,2.972,4.8,3.306,1.436,1.059,1.2,2.421-.252,3.623-.081.066-1.692,1.032-1.789,1.088l-17.523,10.117c-.147.085-2.913,1.608-3.085,1.662-.43.133-.854.352-1.331.455a7.12,7.12,0,0,1-4.8-.622l-19.444-11.225c-.121-.071-2.417-1.449-2.513-1.535-1.375-1.238-1.635-2.53-.2-3.563,0-.333,4.909-3.365,5.224-3.548Z" transform="translate(-637.972 -1096.182)" fill="#5b5b5b" opacity="0.878"/>
      <path id="Trazado_39374" data-name="Trazado 39374" d="M666.338,1102.169a6.959,6.959,0,0,1,4.28-.7,9.4,9.4,0,0,1,1.908.585c.1.038,1.945,1.066,2.035,1.118l15.5,8.947c.253.146,4.824,2.944,4.824,3.21,1.476,1.036,1.255,2.386-.2,3.583-.064.052-1.7,1.028-1.781,1.071l-17.41,10.052c-.116.066-2.92,1.627-3.057,1.671-.425.134-.844.358-1.317.464a7.021,7.021,0,0,1-4.776-.6l-19.382-11.191c-.1-.055-2.437-1.449-2.513-1.518-1.386-1.238-1.635-2.519-.161-3.535,0-.266,5-3.313,5.255-3.458Z" transform="translate(-637.932 -1096.141)" fill="#565656" opacity="0.902"/>
      <path id="Trazado_39375" data-name="Trazado 39375" d="M666.39,1102.251a6.839,6.839,0,0,1,4.237-.68,9.185,9.185,0,0,1,1.884.594c.078.028,1.939,1.075,2.007,1.115l15.331,8.851c.189.11,4.841,2.916,4.841,3.115,1.515,1.013,1.312,2.349-.15,3.541-.049.039-1.716,1.023-1.775,1.057l-17.294,9.984c-.088.051-2.928,1.646-3.032,1.679-.421.137-.834.365-1.3.473a6.911,6.911,0,0,1-4.746-.573l-19.321-11.156c-.072-.041-2.465-1.44-2.513-1.5-1.593-.972-1.635-2.508-.12-3.505,0-.2,5.1-3.261,5.285-3.37Z" transform="translate(-637.914 -1096.1)" fill="#525252" opacity="0.927"/>
      <path id="Trazado_39376" data-name="Trazado 39376" d="M666.424,1102.333a6.719,6.719,0,0,1,4.193-.658,9.131,9.131,0,0,1,1.86.6c.051.02,1.933,1.088,1.979,1.114l15.164,8.754c.126.073,4.86,2.886,4.86,3.019,1.555.991,1.365,2.314-.1,3.5-.032.025-1.729,1.019-1.767,1.04l-17.179,9.919c-.058.034-2.933,1.678-3,1.688a5.2,5.2,0,0,1-1.29.482,6.8,6.8,0,0,1-4.715-.548l-19.26-11.119c-.048-.028-2.482-1.446-2.514-1.486-1.607-.964-1.635-2.5-.081-3.477,0-.133,5.189-3.208,5.316-3.281Z" transform="translate(-637.875 -1096.059)" fill="#4d4d4d" opacity="0.951"/>
      <path id="Trazado_39377" data-name="Trazado 39377" d="M666.456,1102.414a6.605,6.605,0,0,1,4.15-.636,8.941,8.941,0,0,1,1.836.608c.027.01,1.929,1.1,1.952,1.112l15,8.658c.064.037,4.88,2.858,4.88,2.924,1.594.967,1.42,2.277-.051,3.458-.017.013-1.74,1.015-1.758,1.026l-17.065,9.853c-.03.017-2.943,1.69-2.978,1.7a5.182,5.182,0,0,1-1.276.492,6.707,6.707,0,0,1-4.687-.526L647.257,1120c-.024-.014-2.5-1.449-2.514-1.469-1.621-.954-1.635-2.486-.04-3.447,0-.066,5.282-3.156,5.344-3.193Z" transform="translate(-637.837 -1096.018)" fill="#494949" opacity="0.976"/>
      <path id="Trazado_39378" data-name="Trazado 39378" d="M694.061,1118.415l-21.653,12.5a6.539,6.539,0,0,1-5.919,0l-21.653-12.5c-1.635-.943-1.635-2.473,0-3.417l21.653-12.5a6.548,6.548,0,0,1,5.919,0l21.653,12.5C695.7,1115.941,695.7,1117.472,694.061,1118.415Z" transform="translate(-637.799 -1095.977)" fill="#444"/>
    </g>
    <path id="Trazado_39379" data-name="Trazado 39379" d="M695.274,1115.7l.011-5.717H692.6l-5.292,3.073-14.9-8.6a6.539,6.539,0,0,0-5.919,0l-12.865,7.427.479-1.331-10.493-.765v6.086a2.079,2.079,0,0,0,1.225,1.709l21.653,12.5a6.539,6.539,0,0,0,5.919,0l21.653-12.5a1.982,1.982,0,0,0,1.211-1.881Z" transform="translate(9.362 54.937)" fill="#997328"/>
    <path id="Trazado_39380" data-name="Trazado 39380" d="M694.061,1114.1l-21.653,12.5a6.539,6.539,0,0,1-5.919,0l-21.653-12.5c-1.635-.944-1.635-2.475,0-3.419l21.653-12.5a6.539,6.539,0,0,1,5.919,0l21.653,12.5C695.7,1111.621,695.7,1113.152,694.061,1114.1Z" transform="translate(9.362 52.34)" fill="#ffc23b"/>
    <path id="Trazado_39381" data-name="Trazado 39381" d="M661.392,1104.581l-8.807,5.084c-1.836,1.06-1.836,2.779,0,3.839l8.807,5.085a7.356,7.356,0,0,0,6.648,0l8.807-5.085c1.73-1,1.829-2.581.3-3.646l.749-.433c2.6-1.5,2.6-3.949,0-5.451a10.452,10.452,0,0,0-9.441,0l-.749.434A7.423,7.423,0,0,0,661.392,1104.581Zm-.2,7.259,2.2-.553.331-.083c-.172-.421.024-.881.592-1.208a3.488,3.488,0,0,1,3.16,0,.963.963,0,0,1,0,1.825,3.434,3.434,0,0,1-2.093.342l-.144.191-.957,1.269a1.135,1.135,0,0,1-1.29.141l-1.022-.589-1.02-.589C660.547,1112.356,660.674,1111.969,661.188,1111.84Zm8.8-6.983a7.068,7.068,0,0,1,6.381,0c1.758,1.016,1.758,2.668,0,3.685l-.735.424-6.381-3.685Z" transform="translate(12.503 54.563)" fill="#997328"/>
    <path id="Trazado_39382" data-name="Trazado 39382" d="M807.706,1044.472,684.9,973.568v11.29l122.808,70.9Z" transform="translate(26.429 1.123)" fill="#9b235c"/>
    <path id="Trazado_39383" data-name="Trazado 39383" d="M684.9,981.556v116.318l122.808,70.9V1052.459Z" transform="translate(26.429 4.425)" fill="#e8e8e8"/>
    <g id="Grupo_28546" data-name="Grupo 28546" transform="translate(715.573 981.686)">
      <path id="Trazado_39384" data-name="Trazado 39384" d="M691.168,981.366c0,.914-.731,1.234-1.634.712a3.4,3.4,0,0,1-1.632-2.6c0-.914.731-1.234,1.632-.714A3.405,3.405,0,0,1,691.168,981.366Z" transform="translate(-687.902 -978.517)" fill="#fff"/>
      <path id="Trazado_39385" data-name="Trazado 39385" d="M694.75,983.434c0,.914-.732,1.234-1.634.712a3.4,3.4,0,0,1-1.632-2.6c0-.915.731-1.234,1.632-.714A3.409,3.409,0,0,1,694.75,983.434Z" transform="translate(-686.421 -977.663)" fill="#fff"/>
      <path id="Trazado_39386" data-name="Trazado 39386" d="M698.331,985.5c0,.914-.731,1.234-1.632.712a3.4,3.4,0,0,1-1.632-2.6c0-.914.731-1.234,1.632-.714A3.407,3.407,0,0,1,698.331,985.5Z" transform="translate(-684.941 -976.808)" fill="#fff"/>
    </g>
    <path id="Trazado_39387" data-name="Trazado 39387" d="M778.355,1145.18l-6.6,3.83.047-116.292,6.542-3.4Z" transform="translate(62.333 24.167)" fill="#ddd"/>
    <path id="Trazado_39388" data-name="Trazado 39388" d="M691.488,970.852l-6.6,3.83,122.821,70.913,6.587-3.839Z" transform="translate(26.425)" fill="#a32868"/>
    <path id="Trazado_39389" data-name="Trazado 39389" d="M798.083,1088.443l-42.917-24.778a5.578,5.578,0,0,1-2.681-4.23v-23.968c0-1.476,1.206-1.986,2.681-1.134l42.917,24.778a5.585,5.585,0,0,1,2.683,4.23v23.968C800.766,1088.785,799.559,1089.3,798.083,1088.443Z" transform="translate(54.368 26.071)" fill="#657d89"/>
    <path id="Trazado_39390" data-name="Trazado 39390" d="M728.446,1017.372l-59.5-34.351a2.251,2.251,0,0,0-2.065-.3l0,0-1.726.762.944.837v13.256a5.93,5.93,0,0,0,2.849,4.495l59.5,34.352a4.064,4.064,0,0,0,.418.206v.811s1.469-.632,1.579-.687h0a1.514,1.514,0,0,0,.852-1.533v-13.352A5.93,5.93,0,0,0,728.446,1017.372Z" transform="translate(18.268 4.85)" fill="#751b4a"/>
    <g id="Grupo_28547" data-name="Grupo 28547" transform="translate(682.675 988.177)">
      <path id="Trazado_39391" data-name="Trazado 39391" d="M726.973,1036.949l-59.5-34.35a5.93,5.93,0,0,1-2.849-4.495V984.752c0-1.566,1.282-2.109,2.849-1.2l59.5,34.352a5.931,5.931,0,0,1,2.849,4.493v13.352C729.822,1037.313,728.54,1037.855,726.973,1036.949Z" transform="translate(-664.626 -983.11)" fill="#9b235c"/>
      <path id="Trazado_39392" data-name="Trazado 39392" d="M716.075,1017.277l-31.083-17.946a2.713,2.713,0,0,1-1.3-2.056h0c0-.717.587-.965,1.3-.551l31.083,17.946a2.716,2.716,0,0,1,1.3,2.057h0C717.378,1017.442,716.792,1017.691,716.075,1017.277Z" transform="translate(-656.746 -977.566)" fill="#fff"/>
      <path id="Trazado_39393" data-name="Trazado 39393" d="M716.075,1020.386l-31.083-17.945a2.713,2.713,0,0,1-1.3-2.057h0c0-.717.587-.964,1.3-.551l31.083,17.946a2.716,2.716,0,0,1,1.3,2.056h0C717.378,1020.552,716.792,1020.8,716.075,1020.386Z" transform="translate(-656.746 -976.28)" fill="#fff"/>
      <path id="Trazado_39394" data-name="Trazado 39394" d="M697.079,1012.528l-12.087-6.979a2.713,2.713,0,0,1-1.3-2.057h0c0-.717.587-.964,1.3-.55l12.087,6.978a2.714,2.714,0,0,1,1.3,2.057h0C698.382,1012.694,697.8,1012.941,697.079,1012.528Z" transform="translate(-656.746 -974.995)" fill="#fff"/>
      <path id="Trazado_39395" data-name="Trazado 39395" d="M701.6,1015.138l-5.119-2.955a2.711,2.711,0,0,1-1.3-2.057h0c0-.716.587-.964,1.3-.551l5.119,2.957a2.713,2.713,0,0,1,1.3,2.057h0C702.906,1015.305,702.319,1015.552,701.6,1015.138Z" transform="translate(-651.996 -972.253)" fill="#fff"/>
      <path id="Trazado_39396" data-name="Trazado 39396" d="M687.849,995.332h-4.994l.618,1.161-3.932,2.325-3.674-6.335h-8.079l-.074,2.546h6.876l4.246,7.333,5.591-4.079.655,1.231Z" transform="translate(-663.35 -979.235)" fill="#fff"/>
    </g>
    <path id="Trazado_39397" data-name="Trazado 39397" d="M650.645,1002.049v119.827l115.32,66.58V1068.629Z" transform="translate(12.27 12.896)" fill="#437795" opacity="0.1"/>
    <g id="Grupo_28548" data-name="Grupo 28548" transform="translate(662.448 1056.446)">
      <rect id="Rectángulo_5361" data-name="Rectángulo 5361" width="1.867" height="133.16" transform="translate(0 1.617) rotate(-60)" fill="#193540"/>
    </g>
    <g id="Grupo_28549" data-name="Grupo 28549" transform="translate(662.448 1091.655)">
      <rect id="Rectángulo_5362" data-name="Rectángulo 5362" width="1.867" height="133.16" transform="matrix(0.5, -0.866, 0.866, 0.5, 0, 1.616)" fill="#193540"/>
    </g>
    <g id="Grupo_28550" data-name="Grupo 28550" transform="translate(701.499 1037.761)">
      <rect id="Rectángulo_5363" data-name="Rectángulo 5363" width="1.866" height="119.65" fill="#193540"/>
    </g>
    <g id="Grupo_28551" data-name="Grupo 28551" transform="translate(740.693 1060.32)">
      <rect id="Rectángulo_5364" data-name="Rectángulo 5364" width="1.866" height="119.65" fill="#193540"/>
    </g>
    <path id="Trazado_39398" data-name="Trazado 39398" d="M762.341,1099.944l-47.17-27.234v-61.948l47.17,27.234Z" transform="translate(38.943 16.497)" fill="#437795"/>
    <g id="Grupo_28552" data-name="Grupo 28552" transform="translate(705.367 1076.384)">
      <path id="Trazado_39399" data-name="Trazado 39399" d="M737.257,1144.616a13.533,13.533,0,0,1-5.871-1.437c-13.392-6.434-15.146-31.279-15.353-35.724-3.464-1.278-19.995-8.164-16.925-22.08,1.777-8.051,6.5-11.383,10.158-12.763a17.824,17.824,0,0,1,6.531-1.111l.2-21.9-35.317-2.22.116-1.863,37.084,2.332-.236,25.7-1.042-.131c-.513-.064-12.637-1.4-15.673,12.358-3.046,13.8,16.1,20.059,16.292,20.121l.632.2.018.663c.007.281.934,28.3,14.322,34.735a10.409,10.409,0,0,0,8.828.482c7.249-3.036,11.071-13.991,11.108-14.1l1.767.6c-.165.483-4.138,11.864-12.154,15.219A11.5,11.5,0,0,1,737.257,1144.616Z" transform="translate(-680.681 -1045.519)" fill="#193540"/>
    </g>
    <g id="Grupo_28553" data-name="Grupo 28553" transform="translate(696.601 1073.225)">
      <path id="Trazado_39400" data-name="Trazado 39400" d="M686.142,1053.385c0,3.221-2.611,4.325-5.832,2.465s-5.832-5.977-5.832-9.2,2.61-4.325,5.832-2.465S686.142,1050.164,686.142,1053.385Z" transform="translate(-674.479 -1043.284)" fill="#9b235c"/>
      <path id="Trazado_39401" data-name="Trazado 39401" d="M682.051,1050.489c0,1.473-1.193,1.977-2.666,1.127a5.528,5.528,0,0,1-2.667-4.2c0-1.473,1.194-1.977,2.667-1.126A5.526,5.526,0,0,1,682.051,1050.489Z" transform="translate(-673.553 -1042.214)" fill="#fff"/>
    </g>
    <g id="Grupo_28554" data-name="Grupo 28554" transform="translate(735.794 1072.857)">
      <path id="Trazado_39402" data-name="Trazado 39402" d="M713.872,1053.126c0,3.22-2.61,4.323-5.832,2.465s-5.832-5.979-5.832-9.2,2.611-4.323,5.832-2.465S713.872,1049.9,713.872,1053.126Z" transform="translate(-702.209 -1043.023)" fill="#9b235c"/>
      <path id="Trazado_39403" data-name="Trazado 39403" d="M709.782,1050.229c0,1.471-1.194,1.976-2.667,1.126a5.531,5.531,0,0,1-2.666-4.206c0-1.473,1.193-1.976,2.666-1.126A5.53,5.53,0,0,1,709.782,1050.229Z" transform="translate(-701.283 -1041.954)" fill="#fff"/>
    </g>
    <path id="Trazado_39404" data-name="Trazado 39404" d="M679.238,1071.444c-1.265-.731-2.291-.3-2.291.968a4.749,4.749,0,0,0,2.291,3.613c1.265.731,2.291.3,2.291-.968A4.751,4.751,0,0,0,679.238,1071.444Z" transform="translate(23.142 41.435)" fill="#fff"/>
    <path id="Trazado_39405" data-name="Trazado 39405" d="M719.384,1094.724c-1.266-.729-2.291-.3-2.291.968a4.748,4.748,0,0,0,2.291,3.614c1.265.731,2.29.3,2.29-.968A4.752,4.752,0,0,0,719.384,1094.724Z" transform="translate(39.738 51.059)" fill="#fff"/>
    <path id="Trazado_39406" data-name="Trazado 39406" d="M679.275,1030.882c-1.265-.731-2.291-.3-2.291.968a4.749,4.749,0,0,0,2.291,3.613c1.265.731,2.291.3,2.291-.968A4.752,4.752,0,0,0,679.275,1030.882Z" transform="translate(23.158 24.668)" fill="#fff"/>
    <path id="Trazado_39407" data-name="Trazado 39407" d="M679.275,1086.278c-1.266-.731-2.291-.3-2.291.968a4.75,4.75,0,0,0,2.291,3.614c1.265.731,2.29.3,2.29-.968A4.75,4.75,0,0,0,679.275,1086.278Z" transform="translate(23.158 47.567)" fill="#fff"/>
    <g id="Grupo_28555" data-name="Grupo 28555" transform="translate(737.168 1097.586)">
      <path id="Trazado_39408" data-name="Trazado 39408" d="M712.1,1068.241c0,2.462-2,3.306-4.458,1.884s-4.458-4.569-4.458-7.032,2-3.3,4.458-1.884S712.1,1065.779,712.1,1068.241Z" transform="translate(-703.181 -1060.52)" fill="#9b235c"/>
      <path id="Trazado_39409" data-name="Trazado 39409" d="M708.969,1066.028c0,1.125-.913,1.511-2.038.861a4.229,4.229,0,0,1-2.038-3.214c0-1.126.913-1.512,2.038-.862A4.229,4.229,0,0,1,708.969,1066.028Z" transform="translate(-702.473 -1059.703)" fill="#fff"/>
    </g>
    <g id="Grupo_28556" data-name="Grupo 28556" transform="translate(734.656 1129.602)">
      <path id="Trazado_39410" data-name="Trazado 39410" d="M715.343,1095.244c0,3.849-3.121,5.167-6.969,2.945s-6.969-7.143-6.969-10.992,3.121-5.167,6.969-2.945S715.343,1091.395,715.343,1095.244Z" transform="translate(-701.404 -1083.172)" fill="#9b235c"/>
      <path id="Trazado_39411" data-name="Trazado 39411" d="M710.452,1091.782c0,1.76-1.426,2.363-3.186,1.347a6.609,6.609,0,0,1-3.186-5.026c0-1.76,1.426-2.362,3.186-1.347A6.608,6.608,0,0,1,710.452,1091.782Z" transform="translate(-700.297 -1081.895)" fill="#f3f3f3"/>
    </g>
    <g id="Grupo_28558" data-name="Grupo 28558" transform="translate(761.434 1041.016)">
      <g id="Grupo_28557" data-name="Grupo 28557">
        <path id="Trazado_39412" data-name="Trazado 39412" d="M735.692,1068.584l-10.6-12.561c-3.013-4.332-4.742-9.108-4.742-13.1v-22.423l31.337,18.093v21.964c0,4.068-1.778,6.938-4.877,7.872l-.228.049Zm-9.762-12.992,10.192,12.055,10.417-.114c2.68-.81,4.216-3.353,4.216-6.981v-21.425l-29.47-17.014v20.806c0,3.812,1.666,8.393,4.574,12.571Z" transform="translate(-720.35 -1020.495)" fill="#fff"/>
      </g>
    </g>
    <g id="Grupo_28559" data-name="Grupo 28559" transform="translate(661.982 1013.33)">
      <path id="Trazado_39413" data-name="Trazado 39413" d="M767.17,1190.545l-117.185-67.657V1000.906l117.185,67.657Zm-115.32-68.735,113.454,65.5V1069.641l-113.454-65.5Z" transform="translate(-649.985 -1000.906)" fill="#193540"/>
    </g>
    <path id="Trazado_39414" data-name="Trazado 39414" d="M736.146,1052.1c0,1.671-1.354,2.243-3.025,1.278a6.27,6.27,0,0,1-3.025-4.77c0-1.669,1.354-2.241,3.025-1.278A6.271,6.271,0,0,1,736.146,1052.1Z" transform="translate(45.113 31.422)" fill="#c63c85"/>
    <g id="Grupo_28560" data-name="Grupo 28560" transform="translate(768.477 1148.488)">
      <ellipse id="Elipse_1275" data-name="Elipse 1275" cx="5.242" cy="9.265" rx="5.242" ry="9.265" transform="matrix(0.799, -0.601, 0.601, 0.799, 0, 6.302)" fill="#9b235c"/>
      <path id="Trazado_39415" data-name="Trazado 39415" d="M736.355,1106.918c0,1.76-1.426,2.363-3.186,1.347a6.608,6.608,0,0,1-3.186-5.026c0-1.76,1.426-2.363,3.186-1.347A6.608,6.608,0,0,1,736.355,1106.918Z" transform="translate(-723.411 -1094.524)" fill="#fff"/>
    </g>
    <g id="Grupo_28567" data-name="Grupo 28567" transform="translate(721.923 1125.64)">
      <g id="Grupo_28561" data-name="Grupo 28561" transform="translate(2.179 49.397)">
        <path id="Trazado_39416" data-name="Trazado 39416" d="M705.207,1145.157a1.021,1.021,0,0,0-.253-.632.938.938,0,0,1,.033.159c.106,1.744-3.875,3.919-5.659,4.581-2.107.78-3.867.916-4.606-.2.539,1.609,2.462,1.549,4.827.674C701.33,1149.076,705.313,1146.9,705.207,1145.157Z" transform="translate(-693.613 -1103.246)" fill="#fff" opacity="0.38"/>
        <path id="Trazado_39417" data-name="Trazado 39417" d="M699.378,1149.474c1.784-.661,5.765-2.837,5.659-4.581a.942.942,0,0,0-.033-.16c-.94-1.076-4.261-.3-5.567.13l-.89-.842-3.176.516a8.442,8.442,0,0,0-.724,4.209,2.785,2.785,0,0,0,.124.526C695.511,1150.39,697.27,1150.254,699.378,1149.474Z" transform="translate(-693.664 -1103.454)" fill="#58404b"/>
        <path id="Trazado_39418" data-name="Trazado 39418" d="M693.937,1115.319l.442,43.609a6.444,6.444,0,0,0,5.909-2.33l4.438-37.9Z" transform="translate(-693.937 -1115.319)" fill="#9aadf4"/>
        <path id="Trazado_39419" data-name="Trazado 39419" d="M693.937,1115.319l.442,43.609a6.444,6.444,0,0,0,5.909-2.33l3.025-34.688Z" transform="translate(-693.937 -1115.319)" fill="#193540"/>
      </g>
      <g id="Grupo_28562" data-name="Grupo 28562" transform="translate(10.449 54.492)">
        <path id="Trazado_39420" data-name="Trazado 39420" d="M711.057,1146.372a1.025,1.025,0,0,0-.252-.633,1.426,1.426,0,0,1,.033.16c.106,1.746-3.877,3.921-5.659,4.581-2.107.78-3.868.917-4.608-.2.539,1.61,2.462,1.551,4.827.674C707.181,1150.292,711.163,1148.116,711.057,1146.372Z" transform="translate(-699.464 -1107.839)" fill="#fff" opacity="0.38"/>
        <path id="Trazado_39421" data-name="Trazado 39421" d="M705.229,1150.688c1.782-.66,5.765-2.835,5.659-4.581a1.422,1.422,0,0,0-.033-.16c-.941-1.075-4.261-.3-5.569.131l-.889-.844-3.177.516a8.437,8.437,0,0,0-.722,4.209,2.635,2.635,0,0,0,.123.526C701.36,1151.6,703.122,1151.468,705.229,1150.688Z" transform="translate(-699.515 -1108.048)" fill="#58404b"/>
        <path id="Trazado_39422" data-name="Trazado 39422" d="M699.788,1120.029l.441,39.125a6.436,6.436,0,0,0,5.909-2.331l4.439-37.9Z" transform="translate(-699.788 -1118.924)" fill="#1c3d47"/>
      </g>
      <g id="Grupo_28565" data-name="Grupo 28565" transform="translate(41.137 27.569)">
        <path id="Trazado_39423" data-name="Trazado 39423" d="M727.542,1099.941a21.247,21.247,0,0,0-2.406,3.04c-.1.432,1.587-.8,1.587-.8a6.4,6.4,0,0,0,1.126-2.11A.173.173,0,0,0,727.542,1099.941Z" transform="translate(-720 -1099.875)" fill="#f7a191"/>
        <path id="Trazado_39424" data-name="Trazado 39424" d="M721.5,1105.923a44.5,44.5,0,0,0,5.467-3.3c.734-.735,5.6-2.117,7.178-2.55a.245.245,0,0,1,.27.372,1.619,1.619,0,0,1-.845.63c-.927.314-3.576,1.03-3.576,1.03s1.963-.264,2.355.445c.257.469.01.588.01.588a.586.586,0,0,1-.15.708.807.807,0,0,1-.334.661,9.953,9.953,0,0,1-2.025,1.3c-.427-.09.153-.968.988-1.434,0,0-3.3,2.55-4.093,2.682a18.858,18.858,0,0,0-3.933.963Z" transform="translate(-721.501 -1099.797)" fill="#f7a191"/>
        <g id="Grupo_28563" data-name="Grupo 28563" transform="translate(9.27 2.795)">
          <path id="Trazado_39425" data-name="Trazado 39425" d="M728.061,1102.047c-.03-.05.359-.263.871-.172s.762.489.717.526-.309-.239-.755-.309S728.083,1102.106,728.061,1102.047Z" transform="translate(-728.06 -1101.852)" fill="#f27974"/>
        </g>
        <g id="Grupo_28564" data-name="Grupo 28564" transform="translate(8.862 3.505)">
          <path id="Trazado_39426" data-name="Trazado 39426" d="M727.772,1102.52a1.177,1.177,0,0,1,1.009-.122c.578.127.88.466.837.5s-.369-.178-.883-.288S727.788,1102.583,727.772,1102.52Z" transform="translate(-727.771 -1102.355)" fill="#f27974"/>
        </g>
      </g>
      <path id="Trazado_39427" data-name="Trazado 39427" d="M700.226,1091.74l-1.1,7.9s3.523,2.777,5.946,3.328l1.982-.676-.489-8.353Z" transform="translate(-689.613 -1075.669)" fill="#f7a191"/>
      <path id="Trazado_39428" data-name="Trazado 39428" d="M699.852,1093.695c.052.284-2.485,1.748-2.485,1.748s4.523,5.271,10.633,4.041l-.221-2.937Z" transform="translate(-690.34 -1074.86)" fill="#437795"/>
      <path id="Trazado_39429" data-name="Trazado 39429" d="M701.08,1094.243s-2.147,2.178,6.227,5.778c5.834,2.509,4.485-16.394,2.911-17.222-6.386-3.367-12.236-.711-12.835,4.348A7,7,0,0,0,701.08,1094.243Z" transform="translate(-690.356 -1079.986)" fill="#f7a191"/>
      <path id="Trazado_39430" data-name="Trazado 39430" d="M710.6,1081.322c-3.589-.462-7.881-2.842-11.9,2.294-5.207,6.657,2.455,12.825,2.455,12.825a1,1,0,0,0,1.324-.856c.016-.2.026-.411.03-.635.024-1.088-1.422-3.2-.146-4,2.034-.758,3.175,3.7,3.175,3.7l.793-.632v-3.829a1.84,1.84,0,0,1,1.3-1.786l.014,0c1.076-.3,2.209-.606,3.3-.869a3.309,3.309,0,0,0,1.695-.95C714.849,1084.228,713.8,1081.733,710.6,1081.322Z" transform="translate(-690.539 -1080.369)" fill="#58404b"/>
      <g id="Grupo_28566" data-name="Grupo 28566" transform="translate(0 20.642)">
        <path id="Trazado_39431" data-name="Trazado 39431" d="M692.4,1124.583s5.73,11.616,21.239,8.223c0,0,1.238-29.665,1.206-29.708-1.047-1.347-1.466-2.442-2.363-3.032A31.158,31.158,0,0,0,699.585,1095a4.556,4.556,0,0,0-5.016,4.157Z" transform="translate(-692.395 -1094.974)" fill="#437795"/>
        <path id="Trazado_39432" data-name="Trazado 39432" d="M708.919,1100.445c-.636-.23-2.468-.582-2.981-.141-1.179,1.012-2.858,3.463.119,8.078,4.141,6.419,11.821,8.812,12.77,8.6,4.073-.926,15.1-9.064,15.1-9.064-.243-1.221-2.728-4.151-2.728-4.151l-13.882,6.253S711.866,1101.514,708.919,1100.445Z" transform="translate(-687.437 -1092.858)" fill="#c63c85"/>
        <path id="Trazado_39433" data-name="Trazado 39433" d="M708.919,1100.445c-.636-.23-2.468-.582-2.981-.141-1.179,1.012-2.858,3.463.119,8.078,4.141,6.419,11.821,8.812,12.77,8.6,4.073-.926,15.1-9.064,15.1-9.064-.243-1.221-2.728-4.151-2.728-4.151l-13.882,6.253S711.866,1101.514,708.919,1100.445Z" transform="translate(-687.437 -1092.858)" fill="#437795"/>
      </g>
    </g>
    <g id="Grupo_28571" data-name="Grupo 28571" transform="translate(642.52 1041.908)">
      <g id="Grupo_28568" data-name="Grupo 28568">
        <path id="Trazado_39434" data-name="Trazado 39434" d="M656.942,1086.164l-14.32-16.969c-4.07-5.851-6.407-12.3-6.407-17.71v-30.359l42.4,24.478v29.658c0,5.519-2.417,9.413-6.63,10.684l-.324.069Zm-13.075-17.63,13.72,16.224,13.991-.15c3.583-1.081,5.635-4.488,5.635-9.345v-28.85l-39.6-22.861v27.934c0,5.125,2.243,11.289,6.155,16.91Z" transform="translate(-636.215 -1021.126)" fill="#3983aa"/>
      </g>
      <g id="Grupo_28569" data-name="Grupo 28569">
        <path id="Trazado_39435" data-name="Trazado 39435" d="M643.107,1068.6l-.115-.164c-3.993-5.735-6.281-12.045-6.281-17.31v-29.146l41,23.67v29.255c0,5.187-2.234,8.836-6.13,10.012l-.934.039-14.388.146Z" transform="translate(-636.01 -1020.771)" fill="#fff"/>
        <path id="Trazado_39436" data-name="Trazado 39436" d="M656.125,1086.164l-13.5-16.969c-4.072-5.851-6.407-12.306-6.407-17.71v-30.359l42.4,24.478v29.66c0,5.518-2.415,9.411-6.627,10.684l-.174.028-.933.039Zm-12.253-17.623,12.921,16.217,14.869-.177c3.529-1.107,5.55-4.5,5.55-9.317v-28.851l-39.6-22.861v27.934c0,5.125,2.243,11.289,6.155,16.91Z" transform="translate(-636.215 -1021.126)" fill="#193540"/>
      </g>
      <g id="Grupo_28570" data-name="Grupo 28570" transform="translate(3.625 6.263)">
        <path id="Trazado_39437" data-name="Trazado 39437" d="M668.742,1080.131l-12.517.127-12.132-14.349c-3.372-4.848-5.313-10.2-5.313-14.644v-25.709l35.148,20.293v25.811C673.928,1076.05,672.038,1079.136,668.742,1080.131Z" transform="translate(-638.78 -1025.557)" fill="#437795"/>
      </g>
    </g>
    <g id="Grupo_28572" data-name="Grupo 28572" transform="translate(813.012 1071.769)">
      <path id="Trazado_39438" data-name="Trazado 39438" d="M767.486,1059.644l-9.6-5.54a2.167,2.167,0,0,1-1.046-1.649v-9.6c0-.578.468-.776,1.046-.442l9.6,5.542a2.165,2.165,0,0,1,1.046,1.648v9.6C768.532,1059.78,768.064,1059.978,767.486,1059.644Z" transform="translate(-756.843 -1042.253)" fill="#fff"/>
      <path id="Trazado_39439" data-name="Trazado 39439" d="M787.03,1062.151l-18.323-10.578a3.079,3.079,0,0,1-1.483-2.339h0c0-.82.664-1.1,1.483-.627l18.323,10.579a3.075,3.075,0,0,1,1.483,2.339h0C788.512,1062.344,787.848,1062.625,787.03,1062.151Z" transform="translate(-752.552 -1039.722)" fill="#fff"/>
      <path id="Trazado_39440" data-name="Trazado 39440" d="M787.03,1065.238l-18.323-10.579a3.074,3.074,0,0,1-1.483-2.339h0c0-.818.664-1.1,1.483-.626l18.323,10.579a3.075,3.075,0,0,1,1.483,2.338h0C788.512,1065.43,787.848,1065.71,787.03,1065.238Z" transform="translate(-752.552 -1038.446)" fill="#fff"/>
      <path id="Trazado_39441" data-name="Trazado 39441" d="M787.03,1068.322l-18.323-10.578a3.079,3.079,0,0,1-1.483-2.339h0c0-.818.664-1.1,1.483-.626l18.323,10.578a3.079,3.079,0,0,1,1.483,2.339h0C788.512,1068.515,787.848,1068.8,787.03,1068.322Z" transform="translate(-752.552 -1037.17)" fill="#fff"/>
    </g>
    <g id="Grupo_28573" data-name="Grupo 28573" transform="translate(813.012 1102.124)">
      <path id="Trazado_39442" data-name="Trazado 39442" d="M767.486,1081.121l-9.6-5.541a2.167,2.167,0,0,1-1.046-1.649v-9.6c0-.578.468-.776,1.046-.442l9.6,5.542a2.165,2.165,0,0,1,1.046,1.648v9.6C768.532,1081.257,768.064,1081.455,767.486,1081.121Z" transform="translate(-756.843 -1063.73)" fill="#c63c85"/>
      <path id="Trazado_39443" data-name="Trazado 39443" d="M787.03,1083.628l-18.323-10.578a3.079,3.079,0,0,1-1.483-2.339h0c0-.82.664-1.1,1.483-.628l18.323,10.579a3.076,3.076,0,0,1,1.483,2.339h0C788.512,1083.821,787.848,1084.1,787.03,1083.628Z" transform="translate(-752.552 -1061.199)" fill="#193540"/>
      <path id="Trazado_39444" data-name="Trazado 39444" d="M787.03,1086.714l-18.323-10.579a3.075,3.075,0,0,1-1.483-2.339h0c0-.818.664-1.1,1.483-.626l18.323,10.579a3.075,3.075,0,0,1,1.483,2.338h0C788.512,1086.907,787.848,1087.186,787.03,1086.714Z" transform="translate(-752.552 -1059.923)" fill="#193540"/>
      <path id="Trazado_39445" data-name="Trazado 39445" d="M787.03,1089.8l-18.323-10.579a3.076,3.076,0,0,1-1.483-2.339h0c0-.818.664-1.1,1.483-.626l18.323,10.578a3.08,3.08,0,0,1,1.483,2.339h0C788.512,1089.993,787.848,1090.273,787.03,1089.8Z" transform="translate(-752.552 -1058.648)" fill="#193540"/>
    </g>
    <path id="Trazado_39446" data-name="Trazado 39446" d="M654.851,1005.442c0,1.669-1.353,2.242-3.023,1.278a6.27,6.27,0,0,1-3.025-4.77c0-1.671,1.354-2.242,3.025-1.278A6.269,6.269,0,0,1,654.851,1005.442Z" transform="translate(11.509 12.133)" fill="#9b235c"/>
    <path id="Trazado_39447" data-name="Trazado 39447" d="M654.554,1089.733c0,1.671-1.354,2.243-3.025,1.279a6.273,6.273,0,0,1-3.023-4.77c0-1.671,1.353-2.243,3.023-1.279A6.275,6.275,0,0,1,654.554,1089.733Z" transform="translate(11.386 46.977)" fill="#9b235c"/>
    <path id="Trazado_39448" data-name="Trazado 39448" d="M736.146,1136.705c0,1.669-1.354,2.242-3.025,1.278a6.27,6.27,0,0,1-3.025-4.77c0-1.671,1.354-2.242,3.025-1.278A6.27,6.27,0,0,1,736.146,1136.705Z" transform="translate(45.113 66.393)" fill="#9b235c"/>
    <path id="Trazado_39449" data-name="Trazado 39449" d="M778.33,1032.745l-6.542,3.4v-11.288l6.587-3.841Z" transform="translate(62.347 20.737)" fill="#751b4a"/>
    <g id="Grupo_28576" data-name="Grupo 28576" transform="translate(770.93 1056.439)">
      <g id="Grupo_28574" data-name="Grupo 28574" transform="translate(0 4.124)">
        <path id="Trazado_39450" data-name="Trazado 39450" d="M737.486,1051.67l-8.835-5.1a3.281,3.281,0,0,1-1.582-2.495v-8.835c0-.874.708-1.173,1.582-.669l8.835,5.1a3.28,3.28,0,0,1,1.582,2.495V1051C739.067,1051.875,738.359,1052.174,737.486,1051.67Z" transform="translate(-727.069 -1034.326)" fill="#ffc23b"/>
        <path id="Trazado_39451" data-name="Trazado 39451" d="M732.82,1041.142a2.615,2.615,0,0,0-1.261-1.987c-.7-.4-1.261-.164-1.261.533a2.089,2.089,0,0,0,.3,1q-.112.946-.225,1.892l2.365,1.364-.225-2.151A.7.7,0,0,0,732.82,1041.142Z" transform="translate(-725.734 -1032.41)" fill="#437795"/>
        <path id="Trazado_39452" data-name="Trazado 39452" d="M729.432,1038.719l-2.363-1.364v-1.1l2.363,1.364Z" transform="translate(-727.069 -1033.527)" fill="#437795"/>
        <path id="Trazado_39453" data-name="Trazado 39453" d="M729.432,1040.17l-2.363-1.364v-1.1l2.363,1.364Z" transform="translate(-727.069 -1032.927)" fill="#437795"/>
        <path id="Trazado_39454" data-name="Trazado 39454" d="M729.432,1041.622l-2.363-1.364v-1.1l2.363,1.364Z" transform="translate(-727.069 -1032.327)" fill="#437795"/>
        <path id="Trazado_39455" data-name="Trazado 39455" d="M736.249,1042.655l-2.363-1.364v-1.1l2.363,1.364Z" transform="translate(-724.251 -1031.9)" fill="#437795"/>
        <path id="Trazado_39456" data-name="Trazado 39456" d="M736.249,1044.106l-2.363-1.364v-1.1l2.363,1.364Z" transform="translate(-724.251 -1031.3)" fill="#437795"/>
        <path id="Trazado_39457" data-name="Trazado 39457" d="M736.249,1045.557l-2.363-1.364v-1.1l2.363,1.364Z" transform="translate(-724.251 -1030.7)" fill="#437795"/>
      </g>
      <g id="Grupo_28575" data-name="Grupo 28575" transform="translate(2.1)">
        <path id="Trazado_39458" data-name="Trazado 39458" d="M735.712,1041.273a.638.638,0,0,1-.639-.639v-2.944a6.162,6.162,0,0,0-2.94-4.588,1.961,1.961,0,0,0-1.825-.3,1.242,1.242,0,0,0-.475,1.119v2.946a.64.64,0,0,1-1.279,0v-2.946a2.425,2.425,0,0,1,1.115-2.227,3.12,3.12,0,0,1,3.1.3,7.362,7.362,0,0,1,3.577,5.694v2.944A.638.638,0,0,1,735.712,1041.273Z" transform="translate(-728.555 -1031.408)" fill="#ffc23b"/>
      </g>
    </g>
    <g id="Grupo_28577" data-name="Grupo 28577" transform="translate(656.606 1069.334)">
      <path id="Trazado_39459" data-name="Trazado 39459" d="M658.532,1061.1l-10.476-6.049a3.888,3.888,0,0,1-1.875-2.957v-10.476c0-1.036.839-1.391,1.875-.793l10.476,6.048a3.888,3.888,0,0,1,1.876,2.958V1060.3C660.408,1061.337,659.568,1061.694,658.532,1061.1Z" transform="translate(-646.181 -1040.53)" fill="#fff"/>
      <path id="Trazado_39460" data-name="Trazado 39460" d="M653,1048.612a3.1,3.1,0,0,0-1.5-2.357c-.825-.476-1.494-.194-1.494.632a2.469,2.469,0,0,0,.359,1.18l-.266,2.244,2.8,1.618-.267-2.553A.829.829,0,0,0,653,1048.612Z" transform="translate(-644.598 -1038.26)" fill="#437795"/>
      <path id="Trazado_39461" data-name="Trazado 39461" d="M648.983,1045.739l-2.8-1.618v-1.3l2.8,1.618Z" transform="translate(-646.181 -1039.583)" fill="#437795"/>
      <path id="Trazado_39462" data-name="Trazado 39462" d="M648.983,1047.46l-2.8-1.617v-1.3l2.8,1.617Z" transform="translate(-646.181 -1038.872)" fill="#437795"/>
      <path id="Trazado_39463" data-name="Trazado 39463" d="M648.983,1049.181l-2.8-1.618v-1.3l2.8,1.617Z" transform="translate(-646.181 -1038.161)" fill="#437795"/>
      <path id="Trazado_39464" data-name="Trazado 39464" d="M657.066,1050.406l-2.8-1.618v-1.3l2.8,1.618Z" transform="translate(-642.84 -1037.654)" fill="#fff"/>
      <path id="Trazado_39465" data-name="Trazado 39465" d="M657.066,1052.127l-2.8-1.618v-1.3l2.8,1.618Z" transform="translate(-642.84 -1036.943)" fill="#fff"/>
      <path id="Trazado_39466" data-name="Trazado 39466" d="M657.066,1053.848l-2.8-1.618v-1.3l2.8,1.618Z" transform="translate(-642.84 -1036.231)" fill="#fff"/>
    </g>
    <g id="Grupo_28578" data-name="Grupo 28578" transform="translate(659.097 1064.444)">
      <path id="Trazado_39467" data-name="Trazado 39467" d="M656.43,1048.77a.759.759,0,0,1-.759-.759v-3.491a7.305,7.305,0,0,0-3.484-5.438,2.329,2.329,0,0,0-2.164-.352,1.474,1.474,0,0,0-.564,1.328v3.493a.758.758,0,0,1-1.515,0v-3.493a2.873,2.873,0,0,1,1.32-2.64,3.7,3.7,0,0,1,3.68.35,8.73,8.73,0,0,1,4.243,6.752v3.491A.758.758,0,0,1,656.43,1048.77Z" transform="translate(-647.944 -1037.071)" fill="#fff"/>
    </g>
  </g>
</svg>
