<svg id="Grupo_28543" data-name="Grupo 28543" xmlns="http://www.w3.org/2000/svg" width="74.56" height="74.787" viewBox="0 0 74.56 74.787">
  <circle id="Elipse_1269" data-name="Elipse 1269" cx="20.13" cy="20.13" r="20.13" transform="translate(34.299 34.527)" fill="#fff" opacity="0.15"/>
  <path id="Trazado_39324" data-name="Trazado 39324" d="M848.167,864.385v-4.208l-3.071-.342a12.361,12.361,0,0,0-1.138-2.843l1.934-2.5-3.071-2.843-2.5,1.933a8.76,8.76,0,0,0-2.844-1.137l-.341-3.071h-4.208l-.342,3.071a12.358,12.358,0,0,0-2.843,1.137l-2.5-1.933-2.957,2.957,1.934,2.5a8.78,8.78,0,0,0-1.138,2.844l-3.071.341V864.5l3.071.342a12.394,12.394,0,0,0,1.138,2.843l-1.934,2.5,2.957,2.957,2.5-1.934a8.766,8.766,0,0,0,2.843,1.138l.342,3.071h4.208l.341-3.071a12.351,12.351,0,0,0,2.844-1.138l2.5,1.934,2.957-2.957-1.934-2.5a8.779,8.779,0,0,0,1.138-2.843Z" transform="translate(-779.816 -806.838)" fill="#fff"/>
  <path id="Trazado_39325" data-name="Trazado 39325" d="M836.725,875.978h-4.208a1.211,1.211,0,0,1-1.138-1.023l-.341-2.388-1.706-.682-1.82,1.479a1.064,1.064,0,0,1-1.479-.114l-2.957-2.957a1.072,1.072,0,0,1-.114-1.479l1.479-1.819-.682-1.706-2.388-.341a1.21,1.21,0,0,1-1.023-1.138V859.6a1.21,1.21,0,0,1,1.023-1.138l2.388-.341.682-1.706-1.479-1.706a1.064,1.064,0,0,1,.114-1.479l2.957-2.957a1.072,1.072,0,0,1,1.479-.114l1.82,1.479,1.706-.682.341-2.388a1.21,1.21,0,0,1,1.138-1.023h4.208a1.209,1.209,0,0,1,1.137,1.023l.342,2.388,1.706.682,1.819-1.479a1.063,1.063,0,0,1,1.479.114l2.957,2.957a1.072,1.072,0,0,1,.114,1.479L844.8,856.53l.682,1.706,2.388.342a1.209,1.209,0,0,1,1.023,1.137v4.208a1.21,1.21,0,0,1-1.023,1.138l-2.388.341-.682,1.706,1.479,1.82a1.064,1.064,0,0,1-.114,1.479l-2.957,2.957a1.072,1.072,0,0,1-1.479.114L839.91,872l-1.706.682-.342,2.388A1.223,1.223,0,0,1,836.725,875.978Zm-3.184-2.275H835.7l.227-2.047a1.208,1.208,0,0,1,.91-1.023,9.651,9.651,0,0,0,2.5-1.023,1.019,1.019,0,0,1,1.251.114l1.706,1.251,1.479-1.478-1.251-1.706a1.036,1.036,0,0,1-.114-1.251,9.634,9.634,0,0,0,1.023-2.5,1.223,1.223,0,0,1,1.023-.91l2.047-.227v-2.161l-2.047-.227a1.079,1.079,0,0,1-1.023-.911,9.635,9.635,0,0,0-1.023-2.5,1.019,1.019,0,0,1,.114-1.251l1.251-1.706-1.479-1.479-1.706,1.251a1.035,1.035,0,0,1-1.251.114,9.639,9.639,0,0,0-2.5-1.023,1.224,1.224,0,0,1-.91-1.024l-.227-2.047h-2.161l-.341,2.047a1.209,1.209,0,0,1-.91,1.023,9.628,9.628,0,0,0-2.5,1.023,1.02,1.02,0,0,1-1.251-.114l-1.706-1.251-1.479,1.479,1.251,1.706a1.035,1.035,0,0,1,.114,1.251,9.636,9.636,0,0,0-1.023,2.5,1.223,1.223,0,0,1-1.023.91l-2.047.227V862.9l2.047.227a1.208,1.208,0,0,1,1.023.91,9.638,9.638,0,0,0,1.023,2.5,1.02,1.02,0,0,1-.114,1.251l-1.138,1.592,1.479,1.479,1.706-1.251a1.036,1.036,0,0,1,1.251-.114,9.665,9.665,0,0,0,2.5,1.023,1.223,1.223,0,0,1,.91,1.023Z" transform="translate(-779.292 -806.261)" fill="#193540"/>
  <circle id="Elipse_1270" data-name="Elipse 1270" cx="7.279" cy="7.279" r="7.279" transform="translate(47.994 48.221)" fill="#9b235c"/>
  <circle id="Elipse_1271" data-name="Elipse 1271" cx="2.957" cy="2.957" r="2.957" transform="translate(52.316 52.543)" fill="#fff"/>
  <path id="Trazado_39326" data-name="Trazado 39326" d="M839.228,870.521a4.094,4.094,0,1,1,4.095-4.094A4.077,4.077,0,0,1,839.228,870.521Zm0-5.914a1.82,1.82,0,1,0,1.82,1.82A1.8,1.8,0,0,0,839.228,864.606Z" transform="translate(-783.956 -810.926)" fill="#193540"/>
  <path id="Trazado_39327" data-name="Trazado 39327" d="M784.023,794.9a21.68,21.68,0,0,0-15.012,20.813h0a21.453,21.453,0,0,0,8.3,17.06,11.159,11.159,0,0,1,4.094,8.871v3.412h18.879v-3.412a11.519,11.519,0,0,1,4.094-8.871,21.789,21.789,0,0,0,8.3-17.06h0C812.8,801.381,799.036,790.35,784.023,794.9Z" transform="translate(-763.097 -789.326)" fill="#fff"/>
  <path id="Trazado_39328" data-name="Trazado 39328" d="M799.876,845.673H781a1.074,1.074,0,0,1-1.137-1.137v-3.412a9.928,9.928,0,0,0-3.753-7.961,22.916,22.916,0,0,1,7.051-39.805,26.279,26.279,0,0,1,7.279-1.137,23.055,23.055,0,0,1,22.973,22.973,22.627,22.627,0,0,1-8.757,17.969,10.273,10.273,0,0,0-3.753,7.961v3.412A.941.941,0,0,1,799.876,845.673ZM782.134,843.4h16.6v-2.274a12.54,12.54,0,0,1,4.549-9.781A20.648,20.648,0,0,0,790.437,794.5a22.166,22.166,0,0,0-6.6,1.023c-8.3,2.5-14.1,10.691-14.1,19.676a20.643,20.643,0,0,0,7.848,16.263,12.541,12.541,0,0,1,4.549,9.781v2.16Z" transform="translate(-762.573 -788.809)" fill="#193540"/>
  <rect id="Rectángulo_5350" data-name="Rectángulo 5350" width="16.15" height="10.918" transform="translate(19.789 55.728)" fill="#fff"/>
  <path id="Trazado_39329" data-name="Trazado 39329" d="M804.905,880.177h-16.15a1.075,1.075,0,0,1-1.138-1.138V868.121a1.075,1.075,0,0,1,1.138-1.137h16.15a1.074,1.074,0,0,1,1.137,1.137v10.918A1.074,1.074,0,0,1,804.905,880.177ZM789.893,877.9h13.875v-8.644H789.893V877.9Z" transform="translate(-768.967 -812.393)" fill="#193540"/>
  <path id="Trazado_39330" data-name="Trazado 39330" d="M795.2,889.6h6.824a5.087,5.087,0,0,0,1.82-3.98v-1.024H793.267v1.024A5.577,5.577,0,0,0,795.2,889.6Z" transform="translate(-770.749 -817.949)" fill="#fff"/>
  <path id="Trazado_39331" data-name="Trazado 39331" d="M801.553,890.212h-6.824a1.218,1.218,0,0,1-.682-.227,6.261,6.261,0,0,1-2.275-4.89V884.07a1.074,1.074,0,0,1,1.137-1.137h10.577a1.075,1.075,0,0,1,1.138,1.137v1.024a6.431,6.431,0,0,1-2.275,4.89A2.11,2.11,0,0,1,801.553,890.212Zm-6.369-2.275H801.1a3.971,3.971,0,0,0,1.138-2.729h-8.188A3.971,3.971,0,0,0,795.184,887.937Z" transform="translate(-770.277 -817.425)" fill="#193540"/>
  <path id="Trazado_39332" data-name="Trazado 39332" d="M814.963,877.233h-2.616a1.137,1.137,0,1,1,0-2.275h2.616a1.137,1.137,0,0,1,0,2.275Z" transform="translate(-776.409 -814.909)" fill="#193540"/>
  <path id="Trazado_39333" data-name="Trazado 39333" d="M787.55,877.233h-2.616a1.137,1.137,0,1,1,0-2.275h2.616a1.074,1.074,0,0,1,1.137,1.138A1.139,1.139,0,0,1,787.55,877.233Z" transform="translate(-767.761 -814.909)" fill="#193540"/>
  <path id="Trazado_39334" data-name="Trazado 39334" d="M792.952,800.2a20.416,20.416,0,0,0-5.686.91c-6.938,2.047-11.942,8.984-11.942,16.6a17.4,17.4,0,0,0,6.71,13.761,15.358,15.358,0,0,1,5.687,11.259v3.185h10.35V842.73a15.164,15.164,0,0,1,5.686-11.259,17.742,17.742,0,0,0,6.711-13.761A17.45,17.45,0,0,0,792.952,800.2Z" transform="translate(-765.088 -791.324)" fill="#ffc23b"/>
  <g id="Grupo_28541" data-name="Grupo 28541" transform="translate(23.542 28.546)">
    <rect id="Rectángulo_5351" data-name="Rectángulo 5351" width="2.275" height="2.275" transform="translate(0 31.503)" fill="#193540"/>
    <rect id="Rectángulo_5352" data-name="Rectángulo 5352" width="2.275" height="2.275" transform="translate(6.369 31.503)" fill="#193540"/>
    <path id="Trazado_39335" data-name="Trazado 39335" d="M801.9,857.256h-5a1.074,1.074,0,0,1-1.138-1.137V830.075a1.075,1.075,0,0,1,1.138-1.137h5a1.074,1.074,0,0,1,1.137,1.137v26.044A1.139,1.139,0,0,1,801.9,857.256Zm-3.867-2.275h2.73V831.212h-2.73Z" transform="translate(-795.077 -828.938)" fill="#193540"/>
  </g>
  <circle id="Elipse_1272" data-name="Elipse 1272" cx="7.62" cy="7.62" r="7.62" transform="translate(20.244 20.244)" fill="#fff"/>
  <path id="Trazado_39336" data-name="Trazado 39336" d="M797.04,832.662a8.757,8.757,0,1,1,8.757-8.757A8.76,8.76,0,0,1,797.04,832.662Zm0-15.239a6.482,6.482,0,1,0,6.483,6.483A6.553,6.553,0,0,0,797.04,817.423Z" transform="translate(-769.176 -796.041)" fill="#193540"/>
  <circle id="Elipse_1273" data-name="Elipse 1273" cx="3.071" cy="3.071" r="3.071" transform="translate(24.793 24.793)" fill="#9b235c"/>
  <g id="Grupo_28542" data-name="Grupo 28542">
    <rect id="Rectángulo_5353" data-name="Rectángulo 5353" width="2.275" height="2.275" transform="translate(0 26.727)" fill="#193540"/>
    <rect id="Rectángulo_5354" data-name="Rectángulo 5354" width="2.275" height="2.275" transform="translate(53.453 26.727)" fill="#193540"/>
    <rect id="Rectángulo_5355" data-name="Rectángulo 5355" width="2.275" height="2.275" transform="translate(3.106 40.828) rotate(-29.993)" fill="#193540"/>
    <rect id="Rectángulo_5356" data-name="Rectángulo 5356" width="2.274" height="2.274" transform="translate(49.457 14.15) rotate(-30.001)" fill="#193540"/>
    <rect id="Rectángulo_5357" data-name="Rectángulo 5357" width="2.275" height="2.275" transform="matrix(0.5, -0.866, 0.866, 0.5, 39.696, 5.208)" fill="#193540"/>
    <rect id="Rectángulo_5358" data-name="Rectángulo 5358" width="2.275" height="2.275" transform="translate(26.726)" fill="#193540"/>
    <rect id="Rectángulo_5359" data-name="Rectángulo 5359" width="2.275" height="2.275" transform="translate(12.864 4.296) rotate(-29.993)" fill="#193540"/>
    <rect id="Rectángulo_5360" data-name="Rectángulo 5360" width="2.275" height="2.275" transform="translate(3.092 14.952) rotate(-60.007)" fill="#193540"/>
  </g>
</svg>
