<svg xmlns="http://www.w3.org/2000/svg" xmlns:xlink="http://www.w3.org/1999/xlink" width="269.566" height="269.652" viewBox="0 0 269.566 269.652">
  <defs>
    <linearGradient id="linear-gradient" x1="49.684" y1="-183.147" x2="50.684" y2="-183.147" gradientUnits="objectBoundingBox">
      <stop offset="0" stop-color="#8b9bf5"/>
      <stop offset="0.214" stop-color="#919be9"/>
      <stop offset="0.538" stop-color="#979be0"/>
      <stop offset="1" stop-color="#999cde"/>
    </linearGradient>
    <linearGradient id="linear-gradient-2" x1="-2.569" y1="-2.416" x2="1.735" y2="1.673" xlink:href="#linear-gradient"/>
    <linearGradient id="linear-gradient-3" x1="49.684" y1="-182.303" x2="50.684" y2="-182.303" xlink:href="#linear-gradient"/>
    <linearGradient id="linear-gradient-4" x1="-2.372" y1="-2.228" x2="1.933" y2="1.861" xlink:href="#linear-gradient"/>
    <linearGradient id="linear-gradient-5" x1="103.314" y1="-236.769" x2="104.314" y2="-236.769" xlink:href="#linear-gradient"/>
    <linearGradient id="linear-gradient-6" x1="132.026" y1="-482.249" x2="133.026" y2="-482.249" xlink:href="#linear-gradient"/>
    <linearGradient id="linear-gradient-7" x1="-6.292" y1="-5.953" x2="5.146" y2="4.914" xlink:href="#linear-gradient"/>
    <clipPath id="clip-path">
      <path id="SVGID" d="M1118.864,1420.482v-3.067l-6.192-.826a7.419,7.419,0,0,0-1.383-1.928l3.368-3.111-3.757-2.169-5.389,1.944a22.278,22.278,0,0,0-3.34-.8l-1.43-3.576h-5.313l-1.429,3.576a22.243,22.243,0,0,0-3.34.8l-5.389-1.944-3.757,2.169,3.368,3.111a7.392,7.392,0,0,0-1.383,1.928l-6.193.826v3.067l6.193.825a7.38,7.38,0,0,0,1.383,1.929l-3.368,3.111,3.757,2.169,5.389-1.944a22.362,22.362,0,0,0,3.34.8l1.429,3.575h5.313l1.43-3.575a22.4,22.4,0,0,0,3.34-.8l5.389,1.944,3.757-2.169-3.368-3.111a7.381,7.381,0,0,0,1.383-1.929Zm-12.011,3.529c-4.843,2.8-12.694,2.8-17.536,0s-4.842-7.328,0-10.124,12.693-2.8,17.536,0S1111.695,1421.215,1106.853,1424.011Z" fill="#9b235c"/>
    </clipPath>
    <clipPath id="clip-path-2">
      <path id="SVGID-2" data-name="SVGID" d="M1106.853,1413.886c-4.843-2.8-12.694-2.8-17.536,0s-4.842,7.329,0,10.124,12.693,2.8,17.536,0S1111.695,1416.682,1106.853,1413.886Zm-2.373,8.755a14.138,14.138,0,0,1-12.791,0c-3.532-2.039-3.532-5.346,0-7.385a14.138,14.138,0,0,1,12.791,0C1108.012,1417.3,1108.012,1420.6,1104.48,1422.641Z" fill="#9b235c"/>
    </clipPath>
  </defs>
  <g id="Grupo_28765" data-name="Grupo 28765" transform="translate(-873 -17517.674)">
    <g id="Grupo_28764" data-name="Grupo 28764">
      <g id="Grupo_28760" data-name="Grupo 28760" transform="translate(-6.583 16273.099)">
        <circle id="Elipse_1315" data-name="Elipse 1315" cx="117.728" cy="117.728" r="117.728" transform="translate(879.583 1477.184) rotate(-80.949)" fill="#f2f2f2" opacity="0.5"/>
        <g id="Grupo_28738" data-name="Grupo 28738">
          <path id="Trazado_65161" data-name="Trazado 65161" d="M1004.079,1399.249l-69.279-40v9.187l69.279,40Z" fill="#9b235c"/>
          <path id="Trazado_65162" data-name="Trazado 65162" d="M934.8,1368.438V1466.9l69.279,40v-98.458Z" fill="#e8e8e8"/>
        </g>
        <g id="Grupo_28739" data-name="Grupo 28739">
          <path id="Trazado_65163" data-name="Trazado 65163" d="M899.561,1381.562l-11.879-6.859v-5.136l11.879,6.859Z" fill="#657d89"/>
          <path id="Trazado_65164" data-name="Trazado 65164" d="M913.9,1389.843l-11.88-6.859v-5.136l11.88,6.859Z" fill="#657d89"/>
          <path id="Trazado_65165" data-name="Trazado 65165" d="M928.247,1398.123l-11.88-6.859v-5.136l11.88,6.859Z" fill="#657d89"/>
          <path id="Trazado_65166" data-name="Trazado 65166" d="M936.65,1402.975l-5.94-3.429v-5.136l5.94,3.429Z" fill="#657d89"/>
          <path id="Trazado_65167" data-name="Trazado 65167" d="M945.263,1407.948l-5.94-3.429v-5.136l5.94,3.429Z" fill="#657d89"/>
          <path id="Trazado_65168" data-name="Trazado 65168" d="M953.876,1412.921l-5.94-3.429v-5.136l5.94,3.429Z" fill="#657d89"/>
          <path id="Trazado_65169" data-name="Trazado 65169" d="M969.133,1421.729l-12.583-7.265v-5.136l12.583,7.265Z" fill="#657d89"/>
          <path id="Trazado_65170" data-name="Trazado 65170" d="M957.253,1422.058l11.879,6.858v-5.136l-11.879-6.859Z" fill="#657d89"/>
          <path id="Trazado_65171" data-name="Trazado 65171" d="M942.91,1413.777l11.88,6.859V1415.5l-11.88-6.859Z" fill="#657d89"/>
          <path id="Trazado_65172" data-name="Trazado 65172" d="M928.567,1405.5l11.88,6.859v-5.136l-11.88-6.859Z" fill="#657d89"/>
          <path id="Trazado_65173" data-name="Trazado 65173" d="M920.164,1400.644l5.94,3.429v-5.136l-5.94-3.429Z" fill="#657d89"/>
          <path id="Trazado_65174" data-name="Trazado 65174" d="M911.551,1395.671l5.94,3.429v-5.136l-5.94-3.429Z" fill="#657d89"/>
          <path id="Trazado_65175" data-name="Trazado 65175" d="M902.938,1390.7l5.94,3.429v-5.136l-5.94-3.429Z" fill="#657d89"/>
          <path id="Trazado_65176" data-name="Trazado 65176" d="M887.681,1381.89l12.583,7.265v-5.136l-12.583-7.264Z" fill="#657d89"/>
          <path id="Trazado_65177" data-name="Trazado 65177" d="M899.4,1396.835l-11.879-6.859v-5.136L899.4,1391.7Z" fill="#657d89"/>
          <path id="Trazado_65178" data-name="Trazado 65178" d="M913.743,1405.116l-11.88-6.859v-5.136l11.88,6.859Z" fill="#657d89"/>
          <path id="Trazado_65179" data-name="Trazado 65179" d="M928.086,1413.4l-11.88-6.859V1401.4l11.88,6.859Z" fill="#657d89"/>
          <path id="Trazado_65180" data-name="Trazado 65180" d="M936.49,1418.248l-5.94-3.43v-5.136l5.94,3.429Z" fill="#657d89"/>
          <path id="Trazado_65181" data-name="Trazado 65181" d="M945.1,1423.221l-5.94-3.429v-5.136l5.94,3.429Z" fill="#657d89"/>
          <path id="Trazado_65182" data-name="Trazado 65182" d="M953.716,1428.194l-5.94-3.429v-5.136l5.94,3.429Z" fill="#657d89"/>
          <path id="Trazado_65183" data-name="Trazado 65183" d="M968.972,1437l-12.583-7.265V1424.6l12.583,7.265Z" fill="#657d89"/>
          <path id="Trazado_65184" data-name="Trazado 65184" d="M957.093,1437.331l11.88,6.859v-5.136l-11.88-6.859Z" fill="#657d89"/>
          <path id="Trazado_65185" data-name="Trazado 65185" d="M942.75,1429.05l11.879,6.858v-5.136l-11.879-6.859Z" fill="#657d89"/>
          <path id="Trazado_65186" data-name="Trazado 65186" d="M928.407,1420.769l11.88,6.859v-5.136l-11.88-6.859Z" fill="#657d89"/>
          <path id="Trazado_65187" data-name="Trazado 65187" d="M920,1415.917l5.94,3.429v-5.136l-5.94-3.429Z" fill="#657d89"/>
          <path id="Trazado_65188" data-name="Trazado 65188" d="M911.391,1410.945l5.94,3.429v-5.136l-5.94-3.429Z" fill="#657d89"/>
          <path id="Trazado_65189" data-name="Trazado 65189" d="M902.777,1405.972l5.94,3.429v-5.136l-5.94-3.429Z" fill="#657d89"/>
          <path id="Trazado_65190" data-name="Trazado 65190" d="M887.521,1397.163l12.583,7.265v-5.136l-12.583-7.265Z" fill="#657d89"/>
          <path id="Trazado_65191" data-name="Trazado 65191" d="M899.24,1412.108l-11.88-6.859v-5.136l11.88,6.859Z" fill="#657d89"/>
          <path id="Trazado_65192" data-name="Trazado 65192" d="M913.583,1420.389l-11.88-6.859v-5.136l11.88,6.859Z" fill="#657d89"/>
          <path id="Trazado_65193" data-name="Trazado 65193" d="M927.926,1428.67l-11.879-6.859v-5.136l11.879,6.859Z" fill="#657d89"/>
          <path id="Trazado_65194" data-name="Trazado 65194" d="M936.329,1433.521l-5.94-3.429v-5.136l5.94,3.429Z" fill="#657d89"/>
          <path id="Trazado_65195" data-name="Trazado 65195" d="M944.942,1438.494l-5.94-3.429v-5.136l5.94,3.429Z" fill="#657d89"/>
          <path id="Trazado_65196" data-name="Trazado 65196" d="M953.556,1443.467l-5.94-3.429V1434.9l5.94,3.429Z" fill="#657d89"/>
          <path id="Trazado_65197" data-name="Trazado 65197" d="M968.812,1452.276l-12.583-7.265v-5.136l12.583,7.265Z" fill="#657d89"/>
          <path id="Trazado_65198" data-name="Trazado 65198" d="M956.933,1452.6l11.88,6.859v-5.136l-11.88-6.859Z" fill="#657d89"/>
          <path id="Trazado_65199" data-name="Trazado 65199" d="M942.59,1444.323l11.879,6.859v-5.136l-11.879-6.859Z" fill="#657d89"/>
          <path id="Trazado_65200" data-name="Trazado 65200" d="M928.247,1436.042l11.879,6.859v-5.136l-11.879-6.859Z" fill="#657d89"/>
          <path id="Trazado_65201" data-name="Trazado 65201" d="M919.844,1431.191l5.94,3.429v-5.136l-5.94-3.429Z" fill="#657d89"/>
          <path id="Trazado_65202" data-name="Trazado 65202" d="M911.23,1426.218l5.94,3.429v-5.136l-5.94-3.429Z" fill="#657d89"/>
          <path id="Trazado_65203" data-name="Trazado 65203" d="M902.617,1421.245l5.94,3.429v-5.136l-5.94-3.429Z" fill="#657d89"/>
          <path id="Trazado_65204" data-name="Trazado 65204" d="M887.36,1412.437l12.583,7.265v-5.136L887.36,1407.3Z" fill="#657d89"/>
        </g>
        <g id="Grupo_28740" data-name="Grupo 28740">
          <path id="Trazado_65205" data-name="Trazado 65205" d="M993.634,1426.861l-14.4-8.314v-14.4l14.4,8.314Z" fill="#fff"/>
          <path id="Trazado_65206" data-name="Trazado 65206" d="M993.634,1447.242l-14.4-8.314v-14.4l14.4,8.314Z" fill="#fff"/>
          <path id="Trazado_65207" data-name="Trazado 65207" d="M993.634,1467.623l-14.4-8.314v-14.4l14.4,8.314Z" fill="#fff"/>
          <path id="Trazado_65208" data-name="Trazado 65208" d="M993.634,1488l-14.4-8.314v-14.4l14.4,8.314Z" fill="#fff"/>
        </g>
        <g id="Grupo_28741" data-name="Grupo 28741">
          <path id="Trazado_65209" data-name="Trazado 65209" d="M941.189,1367.811c0,1.023-.829,1.373-1.852.783a3.842,3.842,0,0,1-1.852-2.922c0-1.023.829-1.374,1.852-.783A3.842,3.842,0,0,1,941.189,1367.811Z" fill="#fff"/>
          <path id="Trazado_65210" data-name="Trazado 65210" d="M945.52,1370.311c0,1.023-.829,1.374-1.852.783a3.842,3.842,0,0,1-1.852-2.922c0-1.023.829-1.373,1.852-.782A3.839,3.839,0,0,1,945.52,1370.311Z" fill="#fff"/>
          <path id="Trazado_65211" data-name="Trazado 65211" d="M949.851,1372.812c0,1.023-.829,1.373-1.852.783a3.842,3.842,0,0,1-1.852-2.922c0-1.023.829-1.373,1.852-.783A3.842,3.842,0,0,1,949.851,1372.812Z" fill="#fff"/>
        </g>
        <g id="Grupo_28742" data-name="Grupo 28742">
          <path id="Trazado_65212" data-name="Trazado 65212" d="M1047.133,1449.462l-29.463,17.01v10.746l29.463-21.546Z" fill="url(#linear-gradient)"/>
          <path id="Trazado_65213" data-name="Trazado 65213" d="M1076.6,1477.216l-29.463,17.01V1483.48l29.463-17.01Z" fill="#636cba"/>
          <path id="Trazado_65214" data-name="Trazado 65214" d="M1047.133,1494.226l-29.463-17.01V1466.47l29.463,17.01Z" fill="url(#linear-gradient-2)"/>
          <path id="Trazado_65215" data-name="Trazado 65215" d="M1017.671,1466.47l29.463-17.008,29.463,17.008-29.463,17.01Z" fill="#3d498c"/>
          <path id="Trazado_65216" data-name="Trazado 65216" d="M1047.133,1437.738l-29.463,17.01v10.746l29.463-21.546Z" fill="url(#linear-gradient-3)"/>
          <path id="Trazado_65217" data-name="Trazado 65217" d="M1076.6,1465.492l-29.463,17.01v-10.746l29.463-17.01Z" fill="#636cba"/>
          <path id="Trazado_65218" data-name="Trazado 65218" d="M1047.133,1482.5l-29.463-17.01v-10.746l29.463,17.01Z" fill="url(#linear-gradient-4)"/>
          <path id="Trazado_65219" data-name="Trazado 65219" d="M1017.671,1454.746l29.463-17.008,29.463,17.008-29.463,17.01Z" fill="#505eb2"/>
        </g>
        <g id="Grupo_28745" data-name="Grupo 28745">
          <path id="Trazado_65220" data-name="Trazado 65220" d="M1021.955,1452.273l25.179-14.535,25.179,14.535-25.179,14.537Z" fill="#c7cff6" opacity="0.93" style="mix-blend-mode: multiply;isolation: isolate"/>
          <path id="Trazado_65221" data-name="Trazado 65221" d="M1021.955,1444.666l25.179-14.535,25.179,14.535-25.179,14.537Z" fill="#c7cff6" opacity="0.93" style="mix-blend-mode: multiply;isolation: isolate"/>
          <path id="Trazado_65222" data-name="Trazado 65222" d="M1021.955,1437.059l25.179-14.535,25.179,14.535-25.179,14.537Z" fill="#c7cff6" opacity="0.93" style="mix-blend-mode: multiply;isolation: isolate"/>
          <g id="Grupo_28743" data-name="Grupo 28743">
            <path id="Trazado_65223" data-name="Trazado 65223" d="M1058.221,1434.429l-11.087-6.4v2.337l11.087,8.108Z" fill="url(#linear-gradient-5)"/>
            <path id="Trazado_65224" data-name="Trazado 65224" d="M1047.133,1428.028l-11.087,6.4v4.044l11.087-8.108Z" fill="url(#linear-gradient-6)"/>
            <path id="Trazado_65225" data-name="Trazado 65225" d="M1058.221,1438.472l-11.087,6.4v-4.044l11.087-6.4Z" fill="#465daf"/>
            <path id="Trazado_65226" data-name="Trazado 65226" d="M1047.133,1444.874l-11.087-6.4v-4.044l11.087,6.4Z" fill="url(#linear-gradient-7)"/>
            <path id="Trazado_65227" data-name="Trazado 65227" d="M1036.046,1434.428l11.087-6.4,11.087,6.4-11.087,6.4Z" fill="#9b235c"/>
          </g>
          <g id="Grupo_28744" data-name="Grupo 28744">
            <path id="Trazado_65228" data-name="Trazado 65228" d="M1046.929,1437.277a5.5,5.5,0,0,1-2.711-.664,2.378,2.378,0,0,1,0-4.369,5.864,5.864,0,0,1,5.421,0,2.378,2.378,0,0,1,0,4.369A5.5,5.5,0,0,1,1046.929,1437.277Zm0-5.483a5.286,5.286,0,0,0-2.6.635,2.168,2.168,0,0,0,0,4,5.659,5.659,0,0,0,5.209,0,2.168,2.168,0,0,0,0-4A5.281,5.281,0,0,0,1046.929,1431.794Z" fill="#3d498c"/>
          </g>
          <path id="Trazado_65229" data-name="Trazado 65229" d="M1049.1,1433.173a1.325,1.325,0,0,1,0,2.511,4.809,4.809,0,0,1-4.349,0,1.325,1.325,0,0,1,0-2.511A4.8,4.8,0,0,1,1049.1,1433.173Z" fill="#3d498c"/>
        </g>
        <g id="Grupo_28753" data-name="Grupo 28753">
          <g id="Grupo_28748" data-name="Grupo 28748">
            <g id="Grupo_28747" data-name="Grupo 28747">
              <path id="SVGID-3" data-name="SVGID" d="M1118.864,1420.482v-3.067l-6.192-.826a7.419,7.419,0,0,0-1.383-1.928l3.368-3.111-3.757-2.169-5.389,1.944a22.278,22.278,0,0,0-3.34-.8l-1.43-3.576h-5.313l-1.429,3.576a22.243,22.243,0,0,0-3.34.8l-5.389-1.944-3.757,2.169,3.368,3.111a7.392,7.392,0,0,0-1.383,1.928l-6.193.826v3.067l6.193.825a7.38,7.38,0,0,0,1.383,1.929l-3.368,3.111,3.757,2.169,5.389-1.944a22.362,22.362,0,0,0,3.34.8l1.429,3.575h5.313l1.43-3.575a22.4,22.4,0,0,0,3.34-.8l5.389,1.944,3.757-2.169-3.368-3.111a7.381,7.381,0,0,0,1.383-1.929Zm-12.011,3.529c-4.843,2.8-12.694,2.8-17.536,0s-4.842-7.328,0-10.124,12.693-2.8,17.536,0S1111.695,1421.215,1106.853,1424.011Z" fill="#9b235c"/>
              <g id="Grupo_28746" data-name="Grupo 28746" clip-path="url(#clip-path)">
                <rect id="Rectángulo_25741" data-name="Rectángulo 25741" width="0.058" height="15.716" transform="translate(1084.475 1411.091)" fill="#9b235c"/>
                <rect id="Rectángulo_25742" data-name="Rectángulo 25742" width="1.807" height="15.716" transform="translate(1084.533 1411.091)" fill="#9b235c"/>
                <rect id="Rectángulo_25743" data-name="Rectángulo 25743" width="1.807" height="15.716" transform="translate(1086.34 1411.091)" fill="#9b235c"/>
                <rect id="Rectángulo_25744" data-name="Rectángulo 25744" width="1.807" height="15.716" transform="translate(1088.147 1411.091)" fill="#9b235c"/>
                <rect id="Rectángulo_25745" data-name="Rectángulo 25745" width="1.807" height="15.716" transform="translate(1089.953 1411.091)" fill="#9b235c"/>
                <rect id="Rectángulo_25746" data-name="Rectángulo 25746" width="1.807" height="15.716" transform="translate(1091.761 1411.091)" fill="#9b235c"/>
                <rect id="Rectángulo_25747" data-name="Rectángulo 25747" width="1.807" height="15.716" transform="translate(1093.567 1411.091)" fill="#9b235c"/>
                <rect id="Rectángulo_25748" data-name="Rectángulo 25748" width="1.807" height="15.716" transform="translate(1095.374 1411.091)" fill="#9b235c"/>
                <rect id="Rectángulo_25749" data-name="Rectángulo 25749" width="1.807" height="15.716" transform="translate(1097.181 1411.091)" fill="#9b235c"/>
                <rect id="Rectángulo_25750" data-name="Rectángulo 25750" width="1.807" height="15.716" transform="translate(1098.988 1411.091)" fill="#9b235c"/>
                <rect id="Rectángulo_25751" data-name="Rectángulo 25751" width="1.807" height="15.716" transform="translate(1100.795 1411.091)" fill="#9b235c"/>
                <rect id="Rectángulo_25752" data-name="Rectángulo 25752" width="1.807" height="15.716" transform="translate(1102.602 1411.091)" fill="#9b235c"/>
                <rect id="Rectángulo_25753" data-name="Rectángulo 25753" width="1.807" height="15.716" transform="translate(1104.409 1411.091)" fill="#9b235c"/>
                <rect id="Rectángulo_25754" data-name="Rectángulo 25754" width="1.807" height="15.716" transform="translate(1106.216 1411.091)" fill="#9b235c"/>
                <rect id="Rectángulo_25755" data-name="Rectángulo 25755" width="1.807" height="15.716" transform="translate(1108.023 1411.091)" fill="#9b235c"/>
                <rect id="Rectángulo_25756" data-name="Rectángulo 25756" width="1.807" height="15.716" transform="translate(1109.83 1411.091)" fill="#9b235c"/>
                <rect id="Rectángulo_25757" data-name="Rectángulo 25757" width="0.058" height="15.716" transform="translate(1111.637 1411.091)" fill="#9b235c"/>
                <path id="Trazado_65230" data-name="Trazado 65230" d="M1077.305,1406.951v0Z" fill="#9b235c"/>
                <rect id="Rectángulo_25758" data-name="Rectángulo 25758" width="1.807" height="23.994" transform="translate(1077.305 1406.951)" fill="#9b235c"/>
                <rect id="Rectángulo_25759" data-name="Rectángulo 25759" width="1.807" height="23.994" transform="translate(1079.112 1406.951)" fill="#9b235c"/>
                <rect id="Rectángulo_25760" data-name="Rectángulo 25760" width="1.807" height="23.994" transform="translate(1080.919 1406.951)" fill="#9b235c"/>
                <rect id="Rectángulo_25761" data-name="Rectángulo 25761" width="1.807" height="23.994" transform="translate(1082.726 1406.951)" fill="#9b235c"/>
                <rect id="Rectángulo_25762" data-name="Rectángulo 25762" width="1.807" height="23.994" transform="translate(1084.533 1406.951)" fill="#9b235c"/>
                <rect id="Rectángulo_25763" data-name="Rectángulo 25763" width="1.807" height="23.994" transform="translate(1086.34 1406.951)" fill="#9b235c"/>
                <rect id="Rectángulo_25764" data-name="Rectángulo 25764" width="1.807" height="23.994" transform="translate(1088.147 1406.951)" fill="#9b235c"/>
                <rect id="Rectángulo_25765" data-name="Rectángulo 25765" width="1.807" height="23.994" transform="translate(1089.953 1406.951)" fill="#9b235c"/>
                <rect id="Rectángulo_25766" data-name="Rectángulo 25766" width="1.807" height="23.994" transform="translate(1091.761 1406.951)" fill="#9b235c"/>
                <rect id="Rectángulo_25767" data-name="Rectángulo 25767" width="1.807" height="23.994" transform="translate(1093.567 1406.951)" fill="#9b235c"/>
                <rect id="Rectángulo_25768" data-name="Rectángulo 25768" width="1.807" height="23.994" transform="translate(1095.374 1406.951)" fill="#9b235c"/>
                <rect id="Rectángulo_25769" data-name="Rectángulo 25769" width="1.807" height="23.994" transform="translate(1097.181 1406.951)" fill="#9b235c"/>
                <rect id="Rectángulo_25770" data-name="Rectángulo 25770" width="1.807" height="23.994" transform="translate(1098.988 1406.951)" fill="#9b235c"/>
                <rect id="Rectángulo_25771" data-name="Rectángulo 25771" width="1.807" height="23.994" transform="translate(1100.795 1406.951)" fill="#9b235c"/>
                <rect id="Rectángulo_25772" data-name="Rectángulo 25772" width="1.807" height="23.994" transform="translate(1102.602 1406.951)" fill="#9b235c"/>
                <rect id="Rectángulo_25773" data-name="Rectángulo 25773" width="1.807" height="23.994" transform="translate(1104.409 1406.951)" fill="#9b235c"/>
                <rect id="Rectángulo_25774" data-name="Rectángulo 25774" width="1.807" height="23.994" transform="translate(1106.216 1406.951)" fill="#9b235c"/>
                <rect id="Rectángulo_25775" data-name="Rectángulo 25775" width="1.807" height="23.994" transform="translate(1108.023 1406.951)" fill="#9b235c"/>
                <rect id="Rectángulo_25776" data-name="Rectángulo 25776" width="1.807" height="23.994" transform="translate(1109.83 1406.951)" fill="#9b235c"/>
                <rect id="Rectángulo_25777" data-name="Rectángulo 25777" width="1.807" height="23.994" transform="translate(1111.637 1406.951)" fill="#9b235c"/>
                <rect id="Rectángulo_25778" data-name="Rectángulo 25778" width="1.807" height="23.994" transform="translate(1113.443 1406.951)" fill="#9b235c"/>
                <rect id="Rectángulo_25779" data-name="Rectángulo 25779" width="1.807" height="23.994" transform="translate(1115.25 1406.951)" fill="#9b235c"/>
                <rect id="Rectángulo_25780" data-name="Rectángulo 25780" width="1.807" height="23.994" transform="translate(1117.057 1406.951)" fill="#9b235c"/>
                <path id="Trazado_65231" data-name="Trazado 65231" d="M1118.864,1430.945v0Z" fill="#9b235c"/>
              </g>
            </g>
          </g>
          <g id="Grupo_28751" data-name="Grupo 28751">
            <g id="Grupo_28750" data-name="Grupo 28750">
              <path id="SVGID-4" data-name="SVGID" d="M1106.853,1413.886c-4.843-2.8-12.694-2.8-17.536,0s-4.842,7.329,0,10.124,12.693,2.8,17.536,0S1111.695,1416.682,1106.853,1413.886Zm-2.373,8.755a14.138,14.138,0,0,1-12.791,0c-3.532-2.039-3.532-5.346,0-7.385a14.138,14.138,0,0,1,12.791,0C1108.012,1417.3,1108.012,1420.6,1104.48,1422.641Z" fill="#9b235c"/>
              <g id="Grupo_28749" data-name="Grupo 28749" clip-path="url(#clip-path-2)">
                <rect id="Rectángulo_25781" data-name="Rectángulo 25781" width="1.796" height="11.463" transform="translate(1088.157 1413.217)" fill="#9b235c"/>
                <rect id="Rectángulo_25782" data-name="Rectángulo 25782" width="1.807" height="11.463" transform="translate(1089.953 1413.217)" fill="#9b235c"/>
                <rect id="Rectángulo_25783" data-name="Rectángulo 25783" width="1.807" height="11.463" transform="translate(1091.761 1413.217)" fill="#9b235c"/>
                <rect id="Rectángulo_25784" data-name="Rectángulo 25784" width="1.807" height="11.463" transform="translate(1093.567 1413.217)" fill="#9b235c"/>
                <rect id="Rectángulo_25785" data-name="Rectángulo 25785" width="1.807" height="11.463" transform="translate(1095.374 1413.217)" fill="#9b235c"/>
                <rect id="Rectángulo_25786" data-name="Rectángulo 25786" width="1.807" height="11.463" transform="translate(1097.181 1413.217)" fill="#9b235c"/>
                <rect id="Rectángulo_25787" data-name="Rectángulo 25787" width="1.807" height="11.463" transform="translate(1098.988 1413.217)" fill="#9b235c"/>
                <rect id="Rectángulo_25788" data-name="Rectángulo 25788" width="1.807" height="11.463" transform="translate(1100.795 1413.217)" fill="#9b235c"/>
                <rect id="Rectángulo_25789" data-name="Rectángulo 25789" width="1.807" height="11.463" transform="translate(1102.602 1413.217)" fill="#9b235c"/>
                <rect id="Rectángulo_25790" data-name="Rectángulo 25790" width="1.807" height="11.463" transform="translate(1104.409 1413.217)" fill="#9b235c"/>
                <rect id="Rectángulo_25791" data-name="Rectángulo 25791" width="1.796" height="11.463" transform="translate(1106.216 1413.217)" fill="#9b235c"/>
                <rect id="Rectángulo_25792" data-name="Rectángulo 25792" width="0.058" height="15.716" transform="translate(1084.475 1411.091)" fill="#9b235c"/>
                <rect id="Rectángulo_25793" data-name="Rectángulo 25793" width="1.807" height="15.716" transform="translate(1084.533 1411.091)" fill="#9b235c"/>
                <rect id="Rectángulo_25794" data-name="Rectángulo 25794" width="1.807" height="15.716" transform="translate(1086.34 1411.091)" fill="#9b235c"/>
                <rect id="Rectángulo_25795" data-name="Rectángulo 25795" width="1.807" height="15.716" transform="translate(1088.147 1411.091)" fill="#9b235c"/>
                <rect id="Rectángulo_25796" data-name="Rectángulo 25796" width="1.807" height="15.716" transform="translate(1089.953 1411.091)" fill="#9b235c"/>
                <rect id="Rectángulo_25797" data-name="Rectángulo 25797" width="1.807" height="15.716" transform="translate(1091.761 1411.091)" fill="#9b235c"/>
                <rect id="Rectángulo_25798" data-name="Rectángulo 25798" width="1.807" height="15.716" transform="translate(1093.567 1411.091)" fill="#9b235c"/>
                <rect id="Rectángulo_25799" data-name="Rectángulo 25799" width="1.807" height="15.716" transform="translate(1095.374 1411.091)" fill="#9b235c"/>
                <rect id="Rectángulo_25800" data-name="Rectángulo 25800" width="1.807" height="15.716" transform="translate(1097.181 1411.091)" fill="#9b235c"/>
                <rect id="Rectángulo_25801" data-name="Rectángulo 25801" width="1.807" height="15.716" transform="translate(1098.988 1411.091)" fill="#9b235c"/>
                <rect id="Rectángulo_25802" data-name="Rectángulo 25802" width="1.807" height="15.716" transform="translate(1100.795 1411.091)" fill="#9b235c"/>
                <rect id="Rectángulo_25803" data-name="Rectángulo 25803" width="1.807" height="15.716" transform="translate(1102.602 1411.091)" fill="#9b235c"/>
                <rect id="Rectángulo_25804" data-name="Rectángulo 25804" width="1.807" height="15.716" transform="translate(1104.409 1411.091)" fill="#9b235c"/>
                <rect id="Rectángulo_25805" data-name="Rectángulo 25805" width="1.807" height="15.716" transform="translate(1106.216 1411.091)" fill="#9b235c"/>
                <rect id="Rectángulo_25806" data-name="Rectángulo 25806" width="1.807" height="15.716" transform="translate(1108.023 1411.091)" fill="#9b235c"/>
                <rect id="Rectángulo_25807" data-name="Rectángulo 25807" width="1.807" height="15.716" transform="translate(1109.83 1411.091)" fill="#9b235c"/>
                <rect id="Rectángulo_25808" data-name="Rectángulo 25808" width="0.058" height="15.716" transform="translate(1111.637 1411.091)" fill="#9b235c"/>
              </g>
            </g>
          </g>
          <g id="Grupo_28752" data-name="Grupo 28752">
            <path id="Trazado_65232" data-name="Trazado 65232" d="M1098.085,1421.487a7.769,7.769,0,0,1-3.355-.7c-.993-.491-1.54-1.169-1.54-1.912s.547-1.421,1.54-1.912a8.42,8.42,0,0,1,6.709,0c.993.491,1.54,1.17,1.54,1.912s-.547,1.421-1.54,1.912A7.766,7.766,0,0,1,1098.085,1421.487Z" fill="#9b235c"/>
          </g>
        </g>
        <path id="Trazado_65233" data-name="Trazado 65233" d="M940.889,1315.151l-20.512,11.843a4.88,4.88,0,0,0-3.923.2l-.146.085c-1.068.616-1.183,1.572-.354,2.264l-.079.046a4.884,4.884,0,0,0-3.923.2l-.146.085c-1.068.616-1.182,1.572-.354,2.264l-.079.046a4.882,4.882,0,0,0-3.922.2l-.147.085c-1.068.617-1.182,1.572-.353,2.265l-.079.045a4.884,4.884,0,0,0-3.923.2l-.147.085c-1.068.616-1.182,1.572-.353,2.265l-.079.045a4.884,4.884,0,0,0-3.923.2l-.146.085c-1.068.617-1.183,1.572-.354,2.265l-.039.023c.088.05.185.093.275.143.041.027.073.057.118.084a3.379,3.379,0,0,0,.434.2c7.853,4.06,19.914,3.925,27.46-.431l28.838-16.65c13.486,4.258,30.739,3.1,42.157-3.5,13.875-8.01,13.875-21,0-29.009s-36.37-8.01-50.245,0C935.527,1297.4,933.514,1307.365,940.889,1315.151Zm46.659-12.656a11.7,11.7,0,0,1-10.595,0c-2.926-1.689-2.926-4.428,0-6.117a11.716,11.716,0,0,1,10.595,0C990.473,1298.067,990.473,1300.806,987.548,1302.495Z" fill="#7f5c17"/>
        <path id="Trazado_65234" data-name="Trazado 65234" d="M940.889,1311.871l-20.512,11.844a4.88,4.88,0,0,0-3.923.2l-.146.085c-1.068.617-1.183,1.572-.354,2.265l-.079.046a4.876,4.876,0,0,0-3.923.2l-.146.084c-1.068.617-1.182,1.572-.354,2.265l-.079.046a4.874,4.874,0,0,0-3.922.2l-.147.084c-1.068.617-1.182,1.572-.353,2.265l-.079.046a4.876,4.876,0,0,0-3.923.2l-.147.084c-1.068.617-1.182,1.572-.353,2.265l-.079.046a4.876,4.876,0,0,0-3.923.2l-.146.085c-1.068.616-1.183,1.571-.354,2.264l-.039.023c.088.051.185.094.275.144.041.027.073.057.118.083a3.4,3.4,0,0,0,.434.205c7.853,4.059,19.914,3.924,27.46-.432l28.838-16.65c13.486,4.258,30.739,3.1,42.157-3.5,13.875-8.011,13.875-21,0-29.009s-36.37-8.01-50.245,0C935.527,1294.125,933.514,1304.085,940.889,1311.871Zm46.659-12.655a11.71,11.71,0,0,1-10.595,0c-2.926-1.689-2.926-4.428,0-6.117a11.711,11.711,0,0,1,10.595,0C990.473,1294.788,990.473,1297.527,987.548,1299.216Z" fill="#ffc23b"/>
        <g id="Grupo_28759" data-name="Grupo 28759">
          <g id="Grupo_28754" data-name="Grupo 28754" opacity="0.5" style="mix-blend-mode: multiply;isolation: isolate">
            <path id="Trazado_65235" data-name="Trazado 65235" d="M1057.868,1420.558a17.06,17.06,0,0,1-8.411-2.109l-70.933-40.954a9.782,9.782,0,0,1,0-17.567l70.933-40.953a17.829,17.829,0,0,1,16.823,0l70.933,40.953a9.782,9.782,0,0,1,0,17.567l-70.933,40.954A17.064,17.064,0,0,1,1057.868,1420.558Z" fill="#fff" opacity="0"/>
            <path id="Trazado_65236" data-name="Trazado 65236" d="M1049.54,1319.119a16.9,16.9,0,0,1,8.38-2.083,18.581,18.581,0,0,1,3.638.377,16.14,16.14,0,0,1,4.729,1.758l70.651,40.79a10.359,10.359,0,0,1,5.535,8.68,9.4,9.4,0,0,1-3.275,7.219,13.018,13.018,0,0,1-2.117,1.52l-70.769,40.859a16.584,16.584,0,0,1-5.642,1.927,18.879,18.879,0,0,1-2.736.219,16.869,16.869,0,0,1-8.394-2.08l-70.87-40.917a12.787,12.787,0,0,1-2.476-1.853,9.312,9.312,0,0,1-2.93-6.894,10.388,10.388,0,0,1,5.545-8.686Z" fill="#fcfcfe" opacity="0.024"/>
            <path id="Trazado_65237" data-name="Trazado 65237" d="M1049.623,1319.263a16.706,16.706,0,0,1,8.349-2.056,18.514,18.514,0,0,1,3.619.392,16.566,16.566,0,0,1,4.7,1.767l70.371,40.629a10.586,10.586,0,0,1,5.592,8.576,9.136,9.136,0,0,1-3.193,7.182,13.426,13.426,0,0,1-2.114,1.512l-70.6,40.764a17.117,17.117,0,0,1-5.619,1.947,18.827,18.827,0,0,1-2.725.235,16.687,16.687,0,0,1-8.377-2.05l-70.807-40.88a13.332,13.332,0,0,1-2.479-1.844,9.042,9.042,0,0,1-2.856-6.866,10.642,10.642,0,0,1,5.613-8.588Z" fill="#f9f9fd" opacity="0.049"/>
            <path id="Trazado_65238" data-name="Trazado 65238" d="M1049.706,1319.407a16.545,16.545,0,0,1,8.317-2.03,18.545,18.545,0,0,1,3.6.408,17.044,17.044,0,0,1,4.676,1.776l70.09,40.467c3.225,1.862,5.525,5.163,5.65,8.472a8.886,8.886,0,0,1-3.112,7.147,13.8,13.8,0,0,1-2.111,1.5l-70.441,40.67a17.656,17.656,0,0,1-5.595,1.967,19.125,19.125,0,0,1-2.715.252,16.507,16.507,0,0,1-8.36-2.02l-70.744-40.845a13.812,13.812,0,0,1-2.482-1.834,8.782,8.782,0,0,1-2.783-6.839c.132-3.308,2.456-6.628,5.682-8.49Z" fill="#f6f6fb" opacity="0.073"/>
            <path id="Trazado_65239" data-name="Trazado 65239" d="M1049.789,1319.55a16.386,16.386,0,0,1,8.286-2,18.4,18.4,0,0,1,3.582.424,17.457,17.457,0,0,1,4.65,1.785l69.808,40.3c3.141,1.813,5.545,5.149,5.708,8.369a8.639,8.639,0,0,1-3.029,7.111,14.418,14.418,0,0,1-2.109,1.493l-70.277,40.575a18.207,18.207,0,0,1-5.572,1.987,19.361,19.361,0,0,1-2.705.269,16.344,16.344,0,0,1-8.342-1.991l-70.682-40.808a14.43,14.43,0,0,1-2.484-1.825,8.527,8.527,0,0,1-2.709-6.811c.172-3.22,2.609-6.58,5.75-8.393Z" fill="#f3f3fa" opacity="0.098"/>
            <path id="Trazado_65240" data-name="Trazado 65240" d="M1049.872,1319.694a16.206,16.206,0,0,1,8.255-1.976,18.425,18.425,0,0,1,3.563.44,18,18,0,0,1,4.623,1.794l69.528,40.142c3.056,1.764,5.565,5.135,5.766,8.265a8.4,8.4,0,0,1-2.948,7.075,14.808,14.808,0,0,1-2.107,1.485l-70.113,40.48a18.778,18.778,0,0,1-5.548,2.006,19.189,19.189,0,0,1-2.694.286,16.158,16.158,0,0,1-8.325-1.961l-70.619-40.771a14.979,14.979,0,0,1-2.486-1.817,8.273,8.273,0,0,1-2.637-6.783c.211-3.13,2.763-6.531,5.818-8.3Z" fill="#f0f0f9" opacity="0.122"/>
            <path id="Trazado_65241" data-name="Trazado 65241" d="M1049.955,1319.838a16.039,16.039,0,0,1,8.224-1.949,17.326,17.326,0,0,1,8.141,2.259l69.246,39.979c2.972,1.715,5.589,5.121,5.824,8.162a8.158,8.158,0,0,1-2.866,7.039,15.384,15.384,0,0,1-2.1,1.475l-69.949,40.386a18.018,18.018,0,0,1-8.208,2.329,16,16,0,0,1-8.308-1.931L979.4,1376.851a15.618,15.618,0,0,1-2.489-1.807,8.034,8.034,0,0,1-2.563-6.755c.248-3.04,2.915-6.483,5.886-8.2Z" fill="#ededf8" opacity="0.146"/>
            <path id="Trazado_65242" data-name="Trazado 65242" d="M1050.038,1319.981a15.892,15.892,0,0,1,8.192-1.922,18.371,18.371,0,0,1,3.526.472,19.086,19.086,0,0,1,4.57,1.812l68.966,39.817c2.886,1.667,5.613,5.108,5.882,8.058a7.928,7.928,0,0,1-2.784,7,15.974,15.974,0,0,1-2.1,1.467l-69.785,40.291a20.089,20.089,0,0,1-5.5,2.046,19.371,19.371,0,0,1-2.673.32,15.833,15.833,0,0,1-8.29-1.9l-70.493-40.7a16.383,16.383,0,0,1-2.492-1.8,7.8,7.8,0,0,1-2.49-6.728c.283-2.949,3.069-6.434,5.955-8.1Z" fill="#e9ebf6" opacity="0.171"/>
            <path id="Trazado_65243" data-name="Trazado 65243" d="M1050.121,1320.125a15.728,15.728,0,0,1,8.161-1.9,18.374,18.374,0,0,1,3.507.488,19.739,19.739,0,0,1,4.544,1.821l68.685,39.656c2.8,1.617,5.639,5.094,5.939,7.953a7.7,7.7,0,0,1-2.7,6.968,16.638,16.638,0,0,1-2.1,1.458l-69.621,40.2a20.816,20.816,0,0,1-5.478,2.066,19.681,19.681,0,0,1-2.663.336,15.648,15.648,0,0,1-8.273-1.872l-70.43-40.663a16.9,16.9,0,0,1-2.494-1.788,7.571,7.571,0,0,1-2.417-6.7c.315-2.858,3.222-6.385,6.023-8Z" fill="#e6e8f5" opacity="0.195"/>
            <path id="Trazado_65244" data-name="Trazado 65244" d="M1050.2,1320.269a15.554,15.554,0,0,1,8.13-1.869,18.322,18.322,0,0,1,3.488.5,20.445,20.445,0,0,1,4.518,1.831l68.4,39.493c2.717,1.568,5.668,5.081,6,7.85a7.489,7.489,0,0,1-2.62,6.932,17.375,17.375,0,0,1-2.1,1.448l-69.457,40.1a21.615,21.615,0,0,1-5.455,2.086,19.806,19.806,0,0,1-2.652.353,15.5,15.5,0,0,1-8.256-1.842l-70.367-40.627a17.66,17.66,0,0,1-2.5-1.78,7.349,7.349,0,0,1-2.344-6.672c.346-2.767,3.376-6.336,6.092-7.905Z" fill="#e3e5f4" opacity="0.22"/>
            <path id="Trazado_65245" data-name="Trazado 65245" d="M1050.287,1320.412a15.412,15.412,0,0,1,8.1-1.842,18.256,18.256,0,0,1,3.47.52,21.1,21.1,0,0,1,4.491,1.839l68.123,39.331c2.631,1.519,5.7,5.069,6.055,7.746a7.273,7.273,0,0,1-2.538,6.9,17.959,17.959,0,0,1-2.094,1.44l-69.293,40.007a22.475,22.475,0,0,1-5.432,2.1,19.553,19.553,0,0,1-2.641.37,15.318,15.318,0,0,1-8.239-1.812l-70.3-40.59a18.636,18.636,0,0,1-2.5-1.771,7.137,7.137,0,0,1-2.27-6.645c.374-2.675,3.528-6.287,6.16-7.807Z" fill="#e0e2f3" opacity="0.244"/>
            <path id="Trazado_65246" data-name="Trazado 65246" d="M1050.37,1320.556a15.248,15.248,0,0,1,8.067-1.815,18.18,18.18,0,0,1,3.451.535,21.852,21.852,0,0,1,4.465,1.849l67.841,39.168c2.547,1.47,5.731,5.057,6.114,7.643a7.067,7.067,0,0,1-2.457,6.86,18.757,18.757,0,0,1-2.091,1.431l-69.129,39.912a23.384,23.384,0,0,1-5.409,2.125,19.668,19.668,0,0,1-2.631.387,15.166,15.166,0,0,1-8.221-1.783l-70.242-40.554a19.475,19.475,0,0,1-2.5-1.761,6.932,6.932,0,0,1-2.2-6.617c.4-2.584,3.682-6.239,6.228-7.709Z" fill="#dddff1" opacity="0.268"/>
            <path id="Trazado_65247" data-name="Trazado 65247" d="M1050.452,1320.7a15.1,15.1,0,0,1,8.037-1.789,18.2,18.2,0,0,1,3.432.551,22.654,22.654,0,0,1,4.439,1.858l67.56,39.006c2.462,1.421,5.766,5.045,6.171,7.539a6.87,6.87,0,0,1-2.374,6.825,19.708,19.708,0,0,1-2.089,1.421l-68.965,39.818a24.374,24.374,0,0,1-5.385,2.145,20.147,20.147,0,0,1-2.621.4,15.012,15.012,0,0,1-8.2-1.753l-70.178-40.518a20.321,20.321,0,0,1-2.5-1.753,6.73,6.73,0,0,1-2.124-6.589c.423-2.491,3.835-6.19,6.3-7.611Z" fill="#dadcf0" opacity="0.293"/>
            <path id="Trazado_65248" data-name="Trazado 65248" d="M1050.535,1320.843a14.933,14.933,0,0,1,8.005-1.761,18.045,18.045,0,0,1,3.414.567,23.515,23.515,0,0,1,4.412,1.866l67.28,38.844c2.377,1.372,6.229,5,6.229,7.436.877,2.4-.007,4.875-2.293,6.788A20.62,20.62,0,0,1,1135.5,1376l-68.8,39.723a25.394,25.394,0,0,1-5.361,2.165,20.069,20.069,0,0,1-2.61.42,14.854,14.854,0,0,1-8.188-1.723L980.42,1376.1a21.346,21.346,0,0,1-2.507-1.744c-2.117-1.9-2.928-4.27-2.05-6.561,0-2.44,3.987-6.142,6.364-7.514Z" fill="#d7d9ef" opacity="0.317"/>
            <path id="Trazado_65249" data-name="Trazado 65249" d="M1050.618,1320.987a14.787,14.787,0,0,1,7.974-1.735,18.064,18.064,0,0,1,3.4.583,24.49,24.49,0,0,1,4.386,1.876l67,38.681c2.292,1.324,6.287,4.979,6.287,7.332.945,2.369.085,4.841-2.211,6.753a21.7,21.7,0,0,1-2.083,1.4l-68.638,39.628a26.477,26.477,0,0,1-5.338,2.184,20.014,20.014,0,0,1-2.6.438,14.687,14.687,0,0,1-8.17-1.694l-70.052-40.445a22.469,22.469,0,0,1-2.51-1.734c-2.131-1.9-2.922-4.268-1.977-6.534,0-2.353,4.141-6.093,6.433-7.416Z" fill="#d4d6ee" opacity="0.341"/>
            <path id="Trazado_65250" data-name="Trazado 65250" d="M1050.7,1321.131a14.619,14.619,0,0,1,7.943-1.708,17.917,17.917,0,0,1,3.376.6,25.549,25.549,0,0,1,4.359,1.885l66.718,38.52c2.207,1.274,6.344,4.962,6.344,7.228,1.013,2.34.177,4.806-2.128,6.716a22.5,22.5,0,0,1-2.081,1.4l-68.474,39.534a27.689,27.689,0,0,1-5.315,2.2,20.11,20.11,0,0,1-2.589.455,14.544,14.544,0,0,1-8.153-1.665l-69.989-40.408a23.78,23.78,0,0,1-2.512-1.725c-2.146-1.9-2.917-4.265-1.9-6.506,0-2.266,4.294-6.045,6.5-7.319Z" fill="#d1d3ec" opacity="0.366"/>
            <path id="Trazado_65251" data-name="Trazado 65251" d="M1050.784,1321.274a14.481,14.481,0,0,1,7.911-1.681,17.842,17.842,0,0,1,3.358.615,26.534,26.534,0,0,1,4.333,1.894l66.436,38.357c2.123,1.225,6.4,4.946,6.4,7.124,1.08,2.312.269,4.773-2.047,6.681a23.829,23.829,0,0,1-2.078,1.386l-68.31,39.439a29.033,29.033,0,0,1-5.292,2.224,20.415,20.415,0,0,1-2.578.471,14.392,14.392,0,0,1-8.136-1.634l-69.927-40.373a24.972,24.972,0,0,1-2.514-1.716c-2.16-1.9-2.911-4.261-1.831-6.478,0-2.178,4.448-6,6.57-7.221Z" fill="#ced0eb" opacity="0.39"/>
            <path id="Trazado_65252" data-name="Trazado 65252" d="M1050.867,1321.418a14.323,14.323,0,0,1,7.88-1.654,17.852,17.852,0,0,1,3.339.63,27.94,27.94,0,0,1,4.307,1.9l66.155,38.195c2.037,1.176,6.46,4.929,6.46,7.021,1.148,2.282.362,4.738-1.965,6.645-.382.313-1.616,1.112-2.075,1.377l-68.146,39.344a30.544,30.544,0,0,1-5.268,2.244,20.582,20.582,0,0,1-2.568.488,14.241,14.241,0,0,1-8.119-1.6L981,1375.67a26.6,26.6,0,0,1-2.517-1.707c-2.175-1.9-2.905-4.259-1.757-6.45,0-2.092,4.6-5.948,6.638-7.124Z" fill="#cbcdea" opacity="0.415"/>
            <path id="Trazado_65253" data-name="Trazado 65253" d="M1050.95,1321.562a14.168,14.168,0,0,1,7.849-1.628,17.878,17.878,0,0,1,3.32.646,29.35,29.35,0,0,1,4.28,1.912l65.875,38.033c1.952,1.127,6.518,4.913,6.518,6.917,1.215,2.254.453,4.7-1.883,6.609-.367.3-1.633,1.115-2.073,1.368l-67.982,39.25a32.224,32.224,0,0,1-5.245,2.264,20.671,20.671,0,0,1-2.558.505,14.094,14.094,0,0,1-8.1-1.576l-69.8-40.3a28.037,28.037,0,0,1-2.519-1.7c-2.19-1.9-2.9-4.256-1.685-6.423,0-2,4.754-5.9,6.706-7.026Z" fill="#c8cae9" opacity="0.439"/>
            <path id="Trazado_65254" data-name="Trazado 65254" d="M1051.033,1321.7a14.035,14.035,0,0,1,7.818-1.6,17.805,17.805,0,0,1,3.3.663,30.74,30.74,0,0,1,4.254,1.921l65.593,37.87c1.868,1.078,6.576,4.9,6.576,6.813,1.283,2.226.546,4.671-1.8,6.574-.352.285-1.649,1.116-2.07,1.359l-67.818,39.155a33.928,33.928,0,0,1-5.222,2.283,20.442,20.442,0,0,1-2.547.522,13.947,13.947,0,0,1-8.084-1.545l-69.738-40.264a29.651,29.651,0,0,1-2.522-1.688c-2.205-1.9-2.894-4.253-1.611-6.4,0-1.917,4.907-5.849,6.774-6.927Z" fill="#c5c7e7" opacity="0.463"/>
            <path id="Trazado_65255" data-name="Trazado 65255" d="M1051.116,1321.849a13.882,13.882,0,0,1,7.786-1.574,17.728,17.728,0,0,1,3.283.678,32.358,32.358,0,0,1,4.227,1.93l65.313,37.708c1.783,1.029,6.634,4.88,6.634,6.71,1.35,2.2.638,4.636-1.72,6.538-.336.271-1.666,1.118-2.067,1.35l-67.654,39.06a35.935,35.935,0,0,1-5.2,2.3,20.726,20.726,0,0,1-2.536.539,13.8,13.8,0,0,1-8.067-1.516l-69.675-40.227c-.479-.277-2.138-1.348-2.525-1.68-2.219-1.9-2.888-4.249-1.538-6.367,0-1.83,5.061-5.8,6.843-6.83Z" fill="#c2c4e6" opacity="0.488"/>
            <path id="Trazado_65256" data-name="Trazado 65256" d="M1051.2,1321.993a13.726,13.726,0,0,1,7.755-1.548,17.727,17.727,0,0,1,3.264.694,34.074,34.074,0,0,1,4.2,1.94l65.031,37.546c1.7.98,6.692,4.863,6.692,6.6,1.418,2.169.73,4.6-1.637,6.5-.321.258-1.683,1.121-2.065,1.341l-67.491,38.966a38.132,38.132,0,0,1-5.174,2.323,20.72,20.72,0,0,1-2.527.555,13.649,13.649,0,0,1-8.049-1.486l-69.612-40.19c-.457-.264-2.158-1.356-2.527-1.671-2.235-1.9-2.883-4.247-1.465-6.34,0-1.742,5.213-5.752,6.911-6.732Z" fill="#bec2e5" opacity="0.512"/>
            <path id="Trazado_65257" data-name="Trazado 65257" d="M1051.282,1322.136a13.584,13.584,0,0,1,7.724-1.52,17.491,17.491,0,0,1,3.245.71,36.027,36.027,0,0,1,4.175,1.948l64.75,37.384c1.613.931,6.75,4.846,6.75,6.5,1.485,2.14.822,4.567-1.556,6.466-.305.244-1.7,1.122-2.062,1.332l-67.327,38.871a40.433,40.433,0,0,1-5.151,2.343,21.036,21.036,0,0,1-2.516.572,13.525,13.525,0,0,1-8.032-1.456l-69.55-40.155c-.433-.25-2.177-1.363-2.529-1.661-2.25-1.9-2.877-4.244-1.392-6.312,0-1.656,5.367-5.7,6.98-6.635Z" fill="#bbbfe4" opacity="0.537"/>
            <path id="Trazado_65258" data-name="Trazado 65258" d="M1051.365,1322.28a13.445,13.445,0,0,1,7.692-1.494,17.509,17.509,0,0,1,3.227.726,38.559,38.559,0,0,1,4.148,1.957l64.47,37.222c1.528.882,6.807,4.83,6.807,6.4,1.552,2.112.915,4.533-1.474,6.43-.29.231-1.715,1.125-2.059,1.324l-67.163,38.776a43.337,43.337,0,0,1-5.128,2.363,21.165,21.165,0,0,1-2.505.589,13.379,13.379,0,0,1-8.015-1.427l-69.487-40.118c-.41-.237-2.2-1.371-2.532-1.652-2.264-1.905-2.87-4.241-1.318-6.285,0-1.568,5.52-5.655,7.048-6.537Z" fill="#b8bce2" opacity="0.561"/>
            <path id="Trazado_65259" data-name="Trazado 65259" d="M1051.448,1322.424a13.3,13.3,0,0,1,7.661-1.467,17.43,17.43,0,0,1,3.208.741,40.953,40.953,0,0,1,4.122,1.967l64.188,37.059c1.443.833,6.866,4.813,6.866,6.3,1.619,2.083,1.007,4.5-1.392,6.394-.275.217-1.732,1.127-2.057,1.314l-67,38.682a46.066,46.066,0,0,1-5.105,2.382,21.056,21.056,0,0,1-2.495.606,13.239,13.239,0,0,1-8-1.4l-69.424-40.082c-.388-.223-2.218-1.378-2.535-1.643-2.279-1.905-2.864-4.238-1.245-6.256,0-1.482,5.674-5.607,7.117-6.44Z" fill="#b5b9e1" opacity="0.585"/>
            <path id="Trazado_65260" data-name="Trazado 65260" d="M1051.531,1322.567a13.155,13.155,0,0,1,7.63-1.44,17.37,17.37,0,0,1,3.189.758,44.037,44.037,0,0,1,4.1,1.975l63.907,36.9c1.358.784,6.923,4.8,6.923,6.191,1.687,2.055,1.1,4.464-1.31,6.359-.259.2-1.748,1.128-2.054,1.305l-66.835,38.587a49.614,49.614,0,0,1-5.082,2.4,21.2,21.2,0,0,1-2.484.623,13.105,13.105,0,0,1-7.98-1.367l-69.361-40.046c-.365-.211-2.239-1.386-2.537-1.634-2.295-1.907-2.859-4.235-1.172-6.229,0-1.394,5.826-5.558,7.184-6.342Z" fill="#b2b6e0" opacity="0.61"/>
            <path id="Trazado_65261" data-name="Trazado 65261" d="M1051.614,1322.711a13.01,13.01,0,0,1,7.6-1.413,17.3,17.3,0,0,1,3.171.773c.619.187,3.557,1.689,4.069,1.984l63.626,36.735c1.274.735,6.982,4.78,6.982,6.088,1.754,2.025,1.192,4.429-1.229,6.322-.243.19-1.765,1.131-2.051,1.3l-66.671,38.492a53.582,53.582,0,0,1-5.058,2.422,21.409,21.409,0,0,1-2.474.64,12.978,12.978,0,0,1-7.963-1.338l-69.3-40.009c-.342-.2-2.259-1.393-2.54-1.625-2.31-1.908-2.853-4.232-1.1-6.2,0-1.308,5.98-5.51,7.253-6.245Z" fill="#afb3df" opacity="0.634"/>
            <path id="Trazado_65262" data-name="Trazado 65262" d="M1051.7,1322.855a12.877,12.877,0,0,1,7.567-1.387,17.335,17.335,0,0,1,3.153.789c.576.177,3.564,1.718,4.042,1.994l63.345,36.572c1.189.687,7.039,4.764,7.039,5.984,1.822,2,1.285,4.4-1.146,6.287-.228.177-1.782,1.133-2.049,1.287l-66.507,38.4c-.562.324-4.345,2.254-5.035,2.442a21.3,21.3,0,0,1-2.463.656,12.838,12.838,0,0,1-7.946-1.308L982.462,1374.6c-.32-.184-2.28-1.4-2.543-1.616-2.325-1.909-2.847-4.229-1.025-6.173,0-1.22,6.133-5.46,7.321-6.146Z" fill="#acb0dd" opacity="0.659"/>
            <path id="Trazado_65263" data-name="Trazado 65263" d="M1051.78,1323a12.743,12.743,0,0,1,7.536-1.36,17.265,17.265,0,0,1,3.134.806c.534.166,3.571,1.746,4.015,2l63.065,36.411c1.1.637,7.1,4.747,7.1,5.879,1.889,1.969,1.377,4.361-1.065,6.252-.211.163-1.8,1.135-2.046,1.278l-66.343,38.3c-.522.3-4.372,2.284-5.012,2.462a21.643,21.643,0,0,1-2.453.673,12.713,12.713,0,0,1-7.928-1.278l-69.173-39.937c-.3-.171-2.3-1.407-2.544-1.607-2.341-1.91-2.842-4.226-.952-6.146,0-1.132,6.285-5.411,7.389-6.048Z" fill="#a9addc" opacity="0.683"/>
            <path id="Trazado_65264" data-name="Trazado 65264" d="M1051.863,1323.142a12.6,12.6,0,0,1,7.5-1.333,17.2,17.2,0,0,1,3.116.821c.492.156,3.579,1.775,3.989,2.012l62.783,36.248c1.019.588,7.155,4.73,7.155,5.776,1.957,1.94,1.47,4.326-.982,6.215-.2.151-1.815,1.137-2.044,1.27l-66.18,38.208c-.481.278-4.4,2.315-4.988,2.481a21.32,21.32,0,0,1-2.442.69,12.578,12.578,0,0,1-7.911-1.248l-69.11-39.9c-.273-.158-2.321-1.415-2.547-1.6-2.356-1.912-2.836-4.223-.879-6.118,0-1.046,6.439-5.363,7.458-5.951Z" fill="#a6aadb" opacity="0.707"/>
            <path id="Trazado_65265" data-name="Trazado 65265" d="M1051.946,1323.286a12.464,12.464,0,0,1,7.473-1.307,17.111,17.111,0,0,1,3.1.837c.451.145,3.587,1.8,3.963,2.021l62.5,36.086c.934.539,7.213,4.714,7.213,5.672,2.024,1.912,1.563,4.292-.9,6.18-.18.138-1.831,1.139-2.041,1.26l-66.016,38.114c-.441.255-4.425,2.346-4.964,2.5a21.625,21.625,0,0,1-2.432.707,12.45,12.45,0,0,1-7.894-1.219L982.9,1374.274c-.251-.145-2.342-1.421-2.55-1.588-2.371-1.914-2.83-4.221-.8-6.091,0-.958,6.592-5.314,7.526-5.853Z" fill="#a3a7da" opacity="0.732"/>
            <path id="Trazado_65266" data-name="Trazado 65266" d="M1052.029,1323.429a12.326,12.326,0,0,1,7.442-1.279,16.961,16.961,0,0,1,3.078.853c.409.133,3.6,1.832,3.936,2.029l62.222,35.924c.848.49,7.27,4.7,7.27,5.569,2.092,1.883,1.656,4.256-.819,6.143-.163.125-1.847,1.142-2.038,1.252l-65.852,38.019c-.4.232-4.451,2.377-4.941,2.521a21.669,21.669,0,0,1-2.422.724,12.33,12.33,0,0,1-7.876-1.189l-68.984-39.828c-.228-.132-2.363-1.428-2.553-1.58-2.387-1.914-2.824-4.217-.732-6.062,0-.872,6.746-5.266,7.595-5.756Z" fill="#a0a4d8" opacity="0.756"/>
            <path id="Trazado_65267" data-name="Trazado 65267" d="M1052.112,1323.573a12.19,12.19,0,0,1,7.41-1.253,17,17,0,0,1,3.06.869c.368.122,3.6,1.861,3.91,2.039l61.94,35.761c.764.441,7.328,4.681,7.328,5.465,2.16,1.855,1.749,4.222-.736,6.108-.148.112-1.864,1.143-2.037,1.243l-65.687,37.924c-.361.209-4.478,2.409-4.918,2.541a21.834,21.834,0,0,1-2.411.74,12.2,12.2,0,0,1-7.859-1.159l-68.921-39.792c-.2-.118-2.384-1.434-2.555-1.57-2.4-1.916-2.819-4.214-.659-6.035,0-.784,6.9-5.217,7.662-5.658Z" fill="#9da1d7" opacity="0.78"/>
            <path id="Trazado_65268" data-name="Trazado 65268" d="M1052.195,1323.717a12.054,12.054,0,0,1,7.379-1.226,16.835,16.835,0,0,1,3.041.884c.326.11,3.61,1.89,3.884,2.048l61.659,35.6c.679.392,7.386,4.665,7.386,5.362,2.227,1.826,1.841,4.187-.655,6.072-.131.1-1.881,1.145-2.034,1.233l-65.523,37.83c-.321.186-4.5,2.442-4.9,2.56a21.846,21.846,0,0,1-2.4.758,12.078,12.078,0,0,1-7.842-1.13l-68.858-39.755c-.183-.1-2.406-1.441-2.558-1.561-2.418-1.918-2.813-4.212-.586-6.007,0-.7,7.052-5.169,7.731-5.561Z" fill="#9a9ed6" opacity="0.805"/>
            <path id="Trazado_65269" data-name="Trazado 65269" d="M1052.278,1323.86a11.936,11.936,0,0,1,7.348-1.2,16.762,16.762,0,0,1,3.022.9c.285.1,3.618,1.919,3.857,2.057l61.378,35.437c.595.343,7.444,4.647,7.444,5.257,2.295,1.8,1.935,4.153-.573,6.036-.115.087-1.9,1.148-2.031,1.225l-65.359,37.736c-.281.162-4.53,2.474-4.872,2.579a21.915,21.915,0,0,1-2.389.775,11.963,11.963,0,0,1-7.825-1.1l-68.8-39.719c-.159-.093-2.426-1.447-2.56-1.552-2.434-1.92-2.807-4.209-.512-5.98,0-.61,7.205-5.12,7.8-5.463Z" fill="#979bd5" opacity="0.829"/>
            <path id="Trazado_65270" data-name="Trazado 65270" d="M1052.361,1324a11.8,11.8,0,0,1,7.317-1.172,16.68,16.68,0,0,1,3,.916c.244.084,3.626,1.948,3.831,2.066l61.1,35.275c.509.294,7.5,4.631,7.5,5.154,2.362,1.769,2.027,4.117-.491,6-.1.074-1.914,1.149-2.029,1.216L1067.4,1411.1c-.241.138-4.556,2.507-4.848,2.6a21.986,21.986,0,0,1-2.38.791,11.836,11.836,0,0,1-7.807-1.07l-68.733-39.683c-.137-.079-2.448-1.453-2.562-1.543-2.45-1.921-2.8-4.2-.44-5.951,0-.523,7.359-5.071,7.868-5.365Z" fill="#9399d3" opacity="0.854"/>
            <path id="Trazado_65271" data-name="Trazado 65271" d="M1052.443,1324.148a11.668,11.668,0,0,1,7.286-1.146,16.707,16.707,0,0,1,2.985.932c.2.072,3.634,1.977,3.8,2.075l60.817,35.113c.424.245,7.559,4.614,7.559,5.05,2.43,1.74,2.121,4.083-.409,5.965-.083.061-1.93,1.151-2.026,1.206l-65.031,37.547c-.2.115-4.582,2.541-4.825,2.619a22.382,22.382,0,0,1-2.369.808,11.723,11.723,0,0,1-7.791-1.041l-68.669-39.646c-.114-.066-2.469-1.459-2.565-1.534-2.465-1.923-2.8-4.2-.366-5.924,0-.436,7.511-5.022,7.936-5.267Z" fill="#9096d2" opacity="0.878"/>
            <path id="Trazado_65272" data-name="Trazado 65272" d="M1052.526,1324.291a11.543,11.543,0,0,1,7.255-1.118,16.556,16.556,0,0,1,2.966.948c.162.057,3.641,2.005,3.778,2.084l60.535,34.95c.34.2,7.618,4.6,7.618,4.946,2.5,1.712,2.213,4.048-.328,5.929-.066.049-1.946,1.154-2.023,1.2l-64.868,37.452c-.16.092-4.607,2.575-4.8,2.639a22.285,22.285,0,0,1-2.358.824,11.607,11.607,0,0,1-7.774-1.01l-68.606-39.61c-.091-.053-2.491-1.466-2.568-1.525-2.481-1.925-2.79-4.2-.293-5.9,0-.348,7.665-4.973,8.005-5.169Z" fill="#8d93d1" opacity="0.902"/>
            <path id="Trazado_65273" data-name="Trazado 65273" d="M1052.609,1324.435a11.414,11.414,0,0,1,7.224-1.092,16.5,16.5,0,0,1,2.947.964c.121.044,3.649,2.034,3.752,2.093l60.254,34.788c.254.147,7.675,4.582,7.675,4.843,2.565,1.683,2.307,4.013-.245,5.893-.05.036-1.963,1.156-2.021,1.189l-64.7,37.357c-.12.069-4.632,2.61-4.778,2.658a22.238,22.238,0,0,1-2.348.842,11.5,11.5,0,0,1-7.756-.981l-68.543-39.574c-.069-.039-2.513-1.471-2.57-1.515-2.5-1.927-2.785-4.2-.22-5.869,0-.261,7.818-4.925,8.072-5.072Z" fill="#8a90d0" opacity="0.927"/>
            <path id="Trazado_65274" data-name="Trazado 65274" d="M1052.692,1324.579a11.291,11.291,0,0,1,7.192-1.066,16.523,16.523,0,0,1,2.929.98c.081.03,3.657,2.063,3.725,2.1l59.973,34.625c.17.1,7.734,4.565,7.734,4.739,2.632,1.655,2.4,3.979-.164,5.857-.033.025-1.98,1.158-2.018,1.18l-64.54,37.263c-.08.046-4.653,2.663-4.754,2.678a8.891,8.891,0,0,1-2.338.859,11.383,11.383,0,0,1-7.739-.952l-68.48-39.537c-.046-.027-2.535-1.477-2.573-1.507-2.513-1.928-2.779-4.193-.147-5.841,0-.174,7.972-4.876,8.141-4.974Z" fill="#878dce" opacity="0.951"/>
            <path id="Trazado_65275" data-name="Trazado 65275" d="M1052.775,1324.722a11.164,11.164,0,0,1,7.161-1.038,16.3,16.3,0,0,1,2.91,1c.04.015,3.665,2.091,3.7,2.111l59.692,34.463c.085.049,7.791,4.549,7.791,4.636,2.7,1.626,2.493,3.943-.082,5.821-.016.012-2,1.16-2.015,1.171l-64.376,37.168c-.04.023-4.681,2.691-4.731,2.7a8.734,8.734,0,0,1-2.327.875,11.266,11.266,0,0,1-7.722-.922l-68.418-39.5c-.022-.013-2.556-1.482-2.575-1.5-2.529-1.93-2.773-4.191-.073-5.813,0-.087,8.124-4.828,8.209-4.877Z" fill="#848acd" opacity="0.976"/>
            <path id="Trazado_65276" data-name="Trazado 65276" d="M1133.812,1371.6l-70.933,40.953a11.079,11.079,0,0,1-10.021,0L981.925,1371.6c-2.767-1.6-2.767-4.188,0-5.786l70.933-40.953a11.079,11.079,0,0,1,10.021,0l70.933,40.953C1136.579,1367.417,1136.579,1370.007,1133.812,1371.6Z" fill="#8187cc"/>
          </g>
          <g id="Grupo_28756" data-name="Grupo 28756">
            <path id="Trazado_65277" data-name="Trazado 65277" d="M1135.883,1368.567h0v-23.619l-4.144.462.578,2.046-69.438-40.09a11.073,11.073,0,0,0-10.021,0l-69.622,40.2c-.735-.915-1.658-2.052-1.658-2.052l-1.728-.791v23.793h.007c-.073,1.1.616,2.211,2.068,3.05l70.933,40.953a11.079,11.079,0,0,0,10.021,0l70.933-40.953A3.461,3.461,0,0,0,1135.883,1368.567Z" fill="#366075"/>
            <path id="Trazado_65278" data-name="Trazado 65278" d="M1133.812,1347.712l-70.933,40.953a11.073,11.073,0,0,1-10.021,0l-70.933-40.953c-2.767-1.6-2.767-4.188,0-5.785l70.933-40.953a11.073,11.073,0,0,1,10.021,0l70.933,40.953C1136.579,1343.524,1136.579,1346.115,1133.812,1347.712Z" fill="#437795"/>
            <g id="Grupo_28755" data-name="Grupo 28755">
              <path id="Trazado_65279" data-name="Trazado 65279" d="M1057.869,1390.371a10.781,10.781,0,0,1-5.269-1.258l-70.933-40.953a3.558,3.558,0,0,1,0-6.681l70.933-40.953a11.663,11.663,0,0,1,10.537,0l70.933,40.953a3.557,3.557,0,0,1,0,6.681l-70.933,40.953A10.78,10.78,0,0,1,1057.869,1390.371Zm0-90.084a9.712,9.712,0,0,0-4.752,1.135l-70.933,40.953a2.553,2.553,0,0,0,0,4.889l70.933,40.954a10.516,10.516,0,0,0,9.5,0l70.933-40.954a2.553,2.553,0,0,0,0-4.889l-70.933-40.953A9.71,9.71,0,0,0,1057.869,1300.287Z" fill="#f6f8fd"/>
            </g>
          </g>
          <path id="Trazado_65280" data-name="Trazado 65280" d="M1022.894,1250.248l9.892-5.672,65.383,37.749-9.892,5.672Z" fill="#aa2b6d"/>
          <g id="Grupo_28758" data-name="Grupo 28758">
            <path id="Trazado_65281" data-name="Trazado 65281" d="M1098.169,1282.324l-65.383-37.748c-1.166,14.562-3.326,28.624-5.043,42.909-1.4,10.777,3.236,24.114,12.338,35.769l48.2-35.257Z" fill="#aa2b6d"/>
            <path id="Trazado_65282" data-name="Trazado 65282" d="M1098.169,1282.324l-9.892,5.673-48.2,35.257c.087.113.172.226.261.337,8.262,10.558,16.719,21.03,25.135,31.7,7.1-.805,14.218-1.436,21.23-2.223l-1.386,3.977,10.287-5.867h0c5.922-2.976,8.733-10.111,7.6-20.124C1101.495,1314.789,1099.335,1298.233,1098.169,1282.324Z" fill="#842054"/>
            <path id="Trazado_65283" data-name="Trazado 65283" d="M1080.721,1358.288c-8.262,1.017-16.719,1.725-25.136,2.679-8.416-10.673-16.873-21.146-25.135-31.7-9.276-11.734-14.01-25.225-12.6-36.107,1.717-14.285,3.877-28.347,5.043-42.909L1088.277,1288c1.166,15.909,3.325,32.464,5.043,48.732C1094.73,1349.239,1090,1357.265,1080.721,1358.288Z" fill="#9b235c"/>
            <g id="Grupo_28757" data-name="Grupo 28757">
              <path id="Trazado_65284" data-name="Trazado 65284" d="M1055.358,1361.513l-.178-.226q-5.457-6.918-10.916-13.749c-4.685-5.88-9.529-11.96-14.221-17.956-9.379-11.864-14.129-25.506-12.7-36.491.529-4.4,1.1-8.779,1.672-13.16,1.26-9.666,2.563-19.661,3.369-29.724l.065-.815,66.328,38.294.02.273c.806,11,2.11,22.5,3.37,33.624.571,5.04,1.143,10.08,1.672,15.092.82,7.276-.4,13.195-3.534,17.114a13.606,13.606,0,0,1-9.519,5.012c-4.691.578-9.532,1.064-14.213,1.535-3.581.36-7.285.732-10.925,1.145ZM1023.343,1251.1c-.812,9.813-2.08,19.543-3.308,28.96-.571,4.378-1.142,8.756-1.671,13.154-1.39,10.72,3.28,24.073,12.491,35.726,4.691,5.994,9.534,12.072,14.217,17.95q5.362,6.732,10.741,13.527c3.554-.4,7.16-.763,10.652-1.114,4.676-.47,9.512-.956,14.193-1.532h.006a12.609,12.609,0,0,0,8.829-4.63c2.957-3.7,4.1-9.356,3.313-16.357-.529-5.013-1.1-10.05-1.671-15.088-1.251-11.042-2.544-22.456-3.353-33.392Z" fill="#f6f8fd"/>
            </g>
          </g>
          <ellipse id="Elipse_1316" data-name="Elipse 1316" cx="16.864" cy="29.808" rx="16.864" ry="29.808" transform="translate(1024.191 1294.761) rotate(-36.949)" fill="#fff"/>
        </g>
        <path id="Trazado_65285" data-name="Trazado 65285" d="M1076.6,1454.746l-4.284-2.473h0l-6.589-3.8,6.589-3.8-6.589-3.8,6.589-3.8-25.179-14.535-25.179,14.535,6.589,3.8-6.589,3.8,6.588,3.8-6.588,3.8h0l-4.284,2.473v10.748h0l.845.488-.847.489v10.748h0l29.461,17.009,29.463-17.01V1466.47l-.847-.489.847-.489Z" fill="#437795" style="mix-blend-mode: color;isolation: isolate"/>
        <path id="Trazado_65286" data-name="Trazado 65286" d="M1062.7,1308.748l-.885-.511v-5c0-2.865-2.332-6.543-5.2-8.2l-3.285-1.9c-2.866-1.654-5.2-.669-5.2,2.2v5l-.886-.511c-.888-.512-1.607-.208-1.607.679v13.139a3.333,3.333,0,0,0,1.607,2.535l15.45,8.92c.888.513,1.608.209,1.608-.679v-13.138A3.335,3.335,0,0,0,1062.7,1308.748Zm-6.875,7.909-1.874-1.082-1.873-1.081c-.464-.268-.755-.938-.522-1.206l.936-1.082.5-.58a3.121,3.121,0,0,1-.728-1.807c0-.931.754-1.249,1.684-.712a3.492,3.492,0,0,1,1.685,2.657c0,.575-.288.916-.728.966l.5,1.161.937,2.163C1056.58,1316.59,1056.29,1316.925,1055.826,1316.657Zm3.968-9.587-9.636-5.563v-5c0-1.751,1.425-2.353,3.176-1.342l3.285,1.9a6.6,6.6,0,0,1,3.175,5.009Z" fill="#437795"/>
      </g>
    </g>
  </g>
</svg>
