<svg id="Grupo_28540" data-name="Grupo 28540" xmlns="http://www.w3.org/2000/svg" width="72.787" height="72.787" viewBox="0 0 72.787 72.787">
  <circle id="Elipse_1263" data-name="Elipse 1263" cx="25.362" cy="25.362" r="25.362" transform="translate(22.064)" fill="#fff" opacity="0.25"/>
  <path id="Trazado_39313" data-name="Trazado 39313" d="M694.436,880.987H633.022v2.161a7.62,7.62,0,0,0,7.62,7.62h46.174a7.62,7.62,0,0,0,7.62-7.62v-2.161Z" transform="translate(-631.884 -819.118)" fill="#fff"/>
  <path id="Trazado_39314" data-name="Trazado 39314" d="M686.292,891.381H640.117a8.761,8.761,0,0,1-8.757-8.757v-2.161a1.075,1.075,0,0,1,1.138-1.137h61.414a1.075,1.075,0,0,1,1.138,1.137v2.161A8.689,8.689,0,0,1,686.292,891.381ZM633.635,881.6v1.023a6.554,6.554,0,0,0,6.483,6.483h46.174a6.554,6.554,0,0,0,6.483-6.483V881.6Z" transform="translate(-631.36 -818.594)" fill="#193540"/>
  <rect id="Rectángulo_5340" data-name="Rectángulo 5340" width="53.908" height="33.891" transform="translate(4.891 27.977)" fill="#fff"/>
  <path id="Trazado_39315" data-name="Trazado 39315" d="M691.888,865.982H637.98a1.074,1.074,0,0,1-1.137-1.138V830.954a1.074,1.074,0,0,1,1.137-1.138h53.908a1.075,1.075,0,0,1,1.137,1.138v33.891A1.223,1.223,0,0,1,691.888,865.982Zm-52.771-2.275h51.633V832.091H639.118Z" transform="translate(-633.09 -802.976)" fill="#193540"/>
  <rect id="Rectángulo_5341" data-name="Rectángulo 5341" width="44.81" height="24.793" transform="translate(9.44 32.527)" fill="#437795"/>
  <g id="Grupo_28537" data-name="Grupo 28537" transform="translate(23.883 65.622)">
    <rect id="Rectángulo_5342" data-name="Rectángulo 5342" width="2.275" height="2.275" fill="#193540"/>
    <rect id="Rectángulo_5343" data-name="Rectángulo 5343" width="2.275" height="2.275" transform="translate(7.961)" fill="#193540"/>
    <rect id="Rectángulo_5344" data-name="Rectángulo 5344" width="2.275" height="2.275" transform="translate(15.922)" fill="#193540"/>
  </g>
  <circle id="Elipse_1264" data-name="Elipse 1264" cx="18.197" cy="18.197" r="18.197" transform="translate(29.229 7.165)" fill="#e1e6e7"/>
  <path id="Trazado_39316" data-name="Trazado 39316" d="M691.731,838.081a19.334,19.334,0,1,1,19.333-19.334A19.317,19.317,0,0,1,691.731,838.081Zm0-36.393a17.059,17.059,0,1,0,17.06,17.059A17.036,17.036,0,0,0,691.731,801.688Z" transform="translate(-644.305 -793.385)" fill="#193540"/>
  <path id="Trazado_39317" data-name="Trazado 39317" d="M694.456,835.006a13.477,13.477,0,1,1,13.42-13.533A13.445,13.445,0,0,1,694.456,835.006Z" transform="translate(-647.031 -796.11)" fill="#fff"/>
  <path id="Trazado_39318" data-name="Trazado 39318" d="M702.578,824.931a5.707,5.707,0,0,0-.227-1.364l1.137-.91-1.023-1.592-1.251.568a4.1,4.1,0,0,0-1.138-.8l.114-1.364-1.82-.455-.455,1.365a5.709,5.709,0,0,0-1.365.227l-.91-1.138-1.592,1.024.568,1.251a4.1,4.1,0,0,0-.8,1.138l-1.364-.114L692,824.59l1.365.455a5.714,5.714,0,0,0,.227,1.365l-1.137.91,1.023,1.592,1.251-.569a4.078,4.078,0,0,0,1.138.8l-.114,1.365,1.819.455.455-1.365a5.708,5.708,0,0,0,1.365-.227l.91,1.137,1.592-1.023-.568-1.251a4.09,4.09,0,0,0,.8-1.137l1.364.114.455-1.82Zm-2.729.569a2.055,2.055,0,1,1-1.479-2.5A1.947,1.947,0,0,1,699.849,825.5Z" transform="translate(-650.49 -799.569)" fill="#ffc23b"/>
  <circle id="Elipse_1265" data-name="Elipse 1265" cx="3.071" cy="3.071" r="3.071" transform="translate(62.551 22.291)" fill="#fff"/>
  <path id="Trazado_39319" data-name="Trazado 39319" d="M725.284,829.925a4.208,4.208,0,1,1,4.208-4.209A4.2,4.2,0,0,1,725.284,829.925Zm0-6.142a1.934,1.934,0,1,0,1.933,1.934A1.994,1.994,0,0,0,725.284,823.784Z" transform="translate(-659.662 -800.355)" fill="#193540"/>
  <circle id="Elipse_1266" data-name="Elipse 1266" cx="3.071" cy="3.071" r="3.071" transform="translate(26.158 22.291)" fill="#fff"/>
  <path id="Trazado_39320" data-name="Trazado 39320" d="M672.119,829.925a4.208,4.208,0,1,1,4.208-4.209A4.2,4.2,0,0,1,672.119,829.925Zm0-6.142a1.934,1.934,0,1,0,1.934,1.934A1.993,1.993,0,0,0,672.119,823.784Z" transform="translate(-642.89 -800.355)" fill="#193540"/>
  <circle id="Elipse_1267" data-name="Elipse 1267" cx="3.071" cy="3.071" r="3.071" transform="translate(44.355 40.488)" fill="#fff"/>
  <path id="Trazado_39321" data-name="Trazado 39321" d="M698.7,856.508a4.208,4.208,0,1,1,4.208-4.208A4.2,4.2,0,0,1,698.7,856.508Zm0-6.142a1.933,1.933,0,1,0,1.933,1.934A1.994,1.994,0,0,0,698.7,850.366Z" transform="translate(-651.276 -808.741)" fill="#193540"/>
  <circle id="Elipse_1268" data-name="Elipse 1268" cx="3.071" cy="3.071" r="3.071" transform="translate(44.355 4.094)" fill="#fff"/>
  <g id="Grupo_28538" data-name="Grupo 28538" transform="translate(38.588 2.957)">
    <path id="Trazado_39322" data-name="Trazado 39322" d="M698.7,803.343a4.208,4.208,0,1,1,4.208-4.208A4.2,4.2,0,0,1,698.7,803.343Zm0-6.141a1.934,1.934,0,1,0,1.933,1.933A1.993,1.993,0,0,0,698.7,797.2Z" transform="translate(-689.864 -794.927)" fill="#193540"/>
    <rect id="Rectángulo_5345" data-name="Rectángulo 5345" width="2.275" height="2.388" transform="translate(14.277 15.357) rotate(-44.992)" fill="#193540"/>
    <rect id="Rectángulo_5346" data-name="Rectángulo 5346" width="2.275" height="2.388" transform="translate(0.12 29.44) rotate(-45)" fill="#193540"/>
    <rect id="Rectángulo_5347" data-name="Rectángulo 5347" width="2.388" height="2.275" transform="translate(14.243 29.556) rotate(-45)" fill="#193540"/>
    <rect id="Rectángulo_5348" data-name="Rectángulo 5348" width="2.388" height="2.275" transform="translate(0 15.398) rotate(-45)" fill="#193540"/>
  </g>
  <g id="Grupo_28539" data-name="Grupo 28539" transform="translate(13.193 34.915)">
    <rect id="Rectángulo_5349" data-name="Rectángulo 5349" width="2.275" height="2.275" transform="translate(0 13.42)" fill="#fff"/>
    <path id="Trazado_39323" data-name="Trazado 39323" d="M650.632,841.612v11.145h2.275v-8.871H664.28v-2.275Z" transform="translate(-650.632 -841.612)" fill="#fff"/>
  </g>
</svg>
