<svg xmlns="http://www.w3.org/2000/svg" xmlns:xlink="http://www.w3.org/1999/xlink" width="696" height="374" viewBox="0 0 696 374">
  <defs>
    <filter id="Rectángulo_5393" x="0" y="294" width="194" height="80" filterUnits="userSpaceOnUse">
      <feOffset dy="3" input="SourceAlpha"/>
      <feGaussianBlur stdDeviation="3" result="blur"/>
      <feFlood flood-opacity="0.161"/>
      <feComposite operator="in" in2="blur"/>
      <feComposite in="SourceGraphic"/>
    </filter>
    <filter id="Elipse_1305" x="246" y="148" width="194" height="77" filterUnits="userSpaceOnUse">
      <feOffset dy="3" input="SourceAlpha"/>
      <feGaussianBlur stdDeviation="3" result="blur-2"/>
      <feFlood flood-opacity="0.161"/>
      <feComposite operator="in" in2="blur-2"/>
      <feComposite in="SourceGraphic"/>
    </filter>
    <filter id="Elipse_1304" x="246" y="245" width="194" height="78" filterUnits="userSpaceOnUse">
      <feOffset dy="3" input="SourceAlpha"/>
      <feGaussianBlur stdDeviation="3" result="blur-3"/>
      <feFlood flood-opacity="0.161"/>
      <feComposite operator="in" in2="blur-3"/>
      <feComposite in="SourceGraphic"/>
    </filter>
    <filter id="Rectángulo_5390" x="445" y="0" width="194" height="80" filterUnits="userSpaceOnUse">
      <feOffset dy="3" input="SourceAlpha"/>
      <feGaussianBlur stdDeviation="3" result="blur-4"/>
      <feFlood flood-opacity="0.161"/>
      <feComposite operator="in" in2="blur-4"/>
      <feComposite in="SourceGraphic"/>
    </filter>
    <filter id="Rectángulo_5392" x="0" y="97" width="194" height="81" filterUnits="userSpaceOnUse">
      <feOffset dy="3" input="SourceAlpha"/>
      <feGaussianBlur stdDeviation="3" result="blur-5"/>
      <feFlood flood-opacity="0.161"/>
      <feComposite operator="in" in2="blur-5"/>
      <feComposite in="SourceGraphic"/>
    </filter>
    <filter id="Elipse_1301" x="445" y="99" width="194" height="78" filterUnits="userSpaceOnUse">
      <feOffset dy="3" input="SourceAlpha"/>
      <feGaussianBlur stdDeviation="3" result="blur-6"/>
      <feFlood flood-opacity="0.161"/>
      <feComposite operator="in" in2="blur-6"/>
      <feComposite in="SourceGraphic"/>
    </filter>
    <filter id="Elipse_1302" x="445" y="196" width="194" height="78" filterUnits="userSpaceOnUse">
      <feOffset dy="3" input="SourceAlpha"/>
      <feGaussianBlur stdDeviation="3" result="blur-7"/>
      <feFlood flood-opacity="0.161"/>
      <feComposite operator="in" in2="blur-7"/>
      <feComposite in="SourceGraphic"/>
    </filter>
    <filter id="Elipse_1303" x="445" y="294" width="194" height="77" filterUnits="userSpaceOnUse">
      <feOffset dy="3" input="SourceAlpha"/>
      <feGaussianBlur stdDeviation="3" result="blur-8"/>
      <feFlood flood-opacity="0.161"/>
      <feComposite operator="in" in2="blur-8"/>
      <feComposite in="SourceGraphic"/>
    </filter>
  </defs>
  <g id="Grupo_28769" data-name="Grupo 28769" transform="translate(-364 -2682)">
    <text id="Están_expuestos_a" data-name="Están expuestos a" transform="translate(470 2729)" fill="#6a6a6a" font-size="16" font-family="Roboto-Medium, Roboto" font-weight="500"><tspan x="0" y="17">Están expuestos a</tspan></text>
    <text id="Interesan_por_su" data-name="Interesan por su" transform="translate(763 2760)" fill="#6a6a6a" font-size="16" font-family="Roboto-Medium, Roboto" font-weight="500"><tspan x="0" y="17">Interesan por su</tspan></text>
    <text id="Causan_una_cierta" data-name="Causan una cierta" transform="translate(470 2874)" fill="#6a6a6a" font-size="16" font-family="Roboto-Medium, Roboto" font-weight="500"><tspan x="0" y="17">Causan una cierta</tspan></text>
    <text id="Con_una_cierta" data-name="Con una
cierta" transform="translate(470 2919)" fill="#6a6a6a" font-size="16" font-family="Roboto-Medium, Roboto" font-weight="500"><tspan x="0" y="17">Con una</tspan><tspan x="0" y="37">cierta</tspan></text>
    <g id="Grupo_28659" data-name="Grupo 28659" transform="translate(458.722 2719.203)">
      <line id="Línea_273" data-name="Línea 273" y2="255.128" transform="translate(447.636 16.978)" fill="none" stroke="#888" stroke-linecap="round" stroke-width="2" stroke-dasharray="0 4"/>
      <path id="Trazado_39633" data-name="Trazado 39633" d="M-11922.592-8626.635H-12055.6v-68.432" transform="translate(12302.162 8918.013)" fill="none" stroke="#888" stroke-linecap="round" stroke-width="2" stroke-dasharray="0 4"/>
      <path id="Trazado_39634" data-name="Trazado 39634" d="M-11922.592-8626.635H-12055.6v-68.432" transform="translate(12302.162 8820.733)" fill="none" stroke="#888" stroke-linecap="round" stroke-width="2" stroke-dasharray="0 4"/>
      <line id="Línea_274" data-name="Línea 274" x1="174.368" transform="translate(0.704 147.295)" fill="none" stroke="#888" stroke-linecap="round" stroke-width="2" stroke-dasharray="0 4"/>
      <path id="Trazado_39632" data-name="Trazado 39632" d="M-11955.191-8938h-359.075v242.4h176.2" transform="translate(12314.267 8938)" fill="none" stroke="#888" stroke-linecap="round" stroke-width="2" stroke-dasharray="0 4"/>
      <line id="Línea_275" data-name="Línea 275" y1="31.203" x2="104.621" transform="translate(77.792 262.928)" fill="none" stroke="#888" stroke-linecap="round" stroke-width="2" stroke-dasharray="0 4"/>
      <line id="Línea_276" data-name="Línea 276" y1="123.893" x2="100.032" transform="translate(82.381 160.143)" fill="none" stroke="#888" stroke-linecap="round" stroke-width="2" stroke-dasharray="0 4"/>
    </g>
    <g transform="matrix(1, 0, 0, 1, 364, 2682)" filter="url(#Rectángulo_5393)">
      <g id="Rectángulo_5393-2" data-name="Rectángulo 5393" transform="translate(9 300)" fill="#657d89" stroke="#fff" stroke-width="2">
        <rect width="176" height="62" rx="18" stroke="none"/>
        <rect x="1" y="1" width="174" height="60" rx="17" fill="none"/>
      </g>
    </g>
    <text id="Salvaguardas" transform="translate(410 3004)" fill="#fff" font-size="15" font-family="Roboto-Bold, Roboto" font-weight="700"><tspan x="0" y="16">Salvaguardas</tspan></text>
    <g transform="matrix(1, 0, 0, 1, 364, 2682)" filter="url(#Elipse_1305)">
      <g id="Elipse_1305-2" data-name="Elipse 1305" transform="translate(255 154)" fill="#437795" stroke="#fff" stroke-width="2">
        <ellipse cx="88" cy="29.5" rx="88" ry="29.5" stroke="none"/>
        <ellipse cx="88" cy="29.5" rx="87" ry="28.5" fill="none"/>
      </g>
    </g>
    <text id="Degradación_residual" data-name="Degradación
residual" transform="translate(672 2848)" fill="#fff" font-size="15" font-family="Roboto-Bold, Roboto" font-weight="700"><tspan x="0" y="16">Degradación</tspan><tspan x="0" y="34">residual</tspan></text>
    <g transform="matrix(1, 0, 0, 1, 364, 2682)" filter="url(#Elipse_1304)">
      <g id="Elipse_1304-2" data-name="Elipse 1304" transform="translate(255 251)" fill="#437795" stroke="#fff" stroke-width="2">
        <ellipse cx="88" cy="30" rx="88" ry="30" stroke="none"/>
        <ellipse cx="88" cy="30" rx="87" ry="29" fill="none"/>
      </g>
    </g>
    <text id="Frecuencia_residual" data-name="Frecuencia
residual" transform="translate(672 2946)" fill="#fff" font-size="15" font-family="Roboto-Bold, Roboto" font-weight="700"><tspan x="0" y="16">Frecuencia</tspan><tspan x="0" y="34">residual</tspan></text>
    <g transform="matrix(1, 0, 0, 1, 364, 2682)" filter="url(#Rectángulo_5390)">
      <g id="Rectángulo_5390-2" data-name="Rectángulo 5390" transform="translate(454 6)" fill="#9b235c" stroke="#fff" stroke-width="2">
        <rect width="176" height="62" stroke="none"/>
        <rect x="1" y="1" width="174" height="60" fill="none"/>
      </g>
    </g>
    <text id="Activos" transform="translate(884 2710)" fill="#fff" font-size="15" font-family="Roboto-Bold, Roboto" font-weight="700"><tspan x="0" y="16">Activos</tspan></text>
    <g transform="matrix(1, 0, 0, 1, 364, 2682)" filter="url(#Rectángulo_5392)">
      <g id="Rectángulo_5392-2" data-name="Rectángulo 5392" transform="translate(9 103)" fill="#9b235c" stroke="#fff" stroke-width="2">
        <rect width="176" height="63" stroke="none"/>
        <rect x="1" y="1" width="174" height="61" fill="none"/>
      </g>
    </g>
    <text id="Amenazas" transform="translate(424 2807)" fill="#fff" font-size="15" font-family="Roboto-Bold, Roboto" font-weight="700"><tspan x="0" y="16">Amenazas</tspan></text>
    <g transform="matrix(1, 0, 0, 1, 364, 2682)" filter="url(#Elipse_1301)">
      <g id="Elipse_1301-2" data-name="Elipse 1301" transform="translate(454 105)" fill="#437795" stroke="#fff" stroke-width="2">
        <ellipse cx="88" cy="30" rx="88" ry="30" stroke="none"/>
        <ellipse cx="88" cy="30" rx="87" ry="29" fill="none"/>
      </g>
    </g>
    <g transform="matrix(1, 0, 0, 1, 364, 2682)" filter="url(#Elipse_1302)">
      <g id="Elipse_1302-2" data-name="Elipse 1302" transform="translate(454 202)" fill="#437795" stroke="#fff" stroke-width="2">
        <ellipse cx="88" cy="30" rx="88" ry="30" stroke="none"/>
        <ellipse cx="88" cy="30" rx="87" ry="29" fill="none"/>
      </g>
    </g>
    <g transform="matrix(1, 0, 0, 1, 364, 2682)" filter="url(#Elipse_1303)">
      <g id="Elipse_1303-2" data-name="Elipse 1303" transform="translate(454 300)" fill="#437795" stroke="#fff" stroke-width="2">
        <ellipse cx="88" cy="29.5" rx="88" ry="29.5" stroke="none"/>
        <ellipse cx="88" cy="29.5" rx="87" ry="28.5" fill="none"/>
      </g>
    </g>
    <text id="Valor" transform="translate(884 2809)" fill="#fff" font-size="15" font-family="Roboto-Bold, Roboto" font-weight="700"><tspan x="0" y="16">Valor</tspan></text>
    <text id="Impacto_residual" data-name="Impacto
residual" transform="translate(884 2895)" fill="#fff" font-size="15" font-family="Roboto-Bold, Roboto" font-weight="700"><tspan x="0" y="16">Impacto</tspan><tspan x="0" y="34">residual</tspan></text>
    <text id="Riesgo_residual" data-name="Riesgo
residual" transform="translate(884 2992)" fill="#fff" font-size="15" font-family="Roboto-Bold, Roboto" font-weight="700"><tspan x="0" y="16">Riesgo</tspan><tspan x="0" y="34">residual</tspan></text>
    <path id="Polígono_1" data-name="Polígono 1" d="M5,0l5,9H0Z" transform="translate(911 2787) rotate(180)" fill="#bebebe"/>
    <path id="Polígono_8" data-name="Polígono 8" d="M5.5,0,11,9H0Z" transform="translate(464 2787) rotate(180)" fill="#bebebe"/>
    <path id="Polígono_2" data-name="Polígono 2" d="M5,0l5,9H0Z" transform="translate(911 2885) rotate(180)" fill="#bebebe"/>
    <path id="Polígono_3" data-name="Polígono 3" d="M5,0l5,10H0Z" transform="translate(911 2982) rotate(180)" fill="#bebebe"/>
    <path id="Polígono_4" data-name="Polígono 4" d="M5.047,0l5.047,9.177H0Z" transform="translate(819.174 3005.533) rotate(90)" fill="#bebebe"/>
    <path id="Polígono_5" data-name="Polígono 5" d="M5.047,0l5.047,9.177H0Z" transform="translate(819.174 2908.254) rotate(90)" fill="#bebebe"/>
    <path id="Polígono_6" data-name="Polígono 6" d="M5.047,0l5.047,9.177H0Z" transform="translate(619.109 2956.894) rotate(90)" fill="#bebebe"/>
    <path id="Polígono_9" data-name="Polígono 9" d="M5.047,0l5.047,9.177H0Z" transform="translate(633.969 2880.359) rotate(42)" fill="#bebebe"/>
    <path id="Polígono_10" data-name="Polígono 10" d="M5.047,0l5.047,9.177H0Z" transform="translate(639.546 2977.083) rotate(69)" fill="#bebebe"/>
    <path id="Polígono_7" data-name="Polígono 7" d="M5.047,0l5.047,9.177H0Z" transform="translate(619.109 2861.45) rotate(90)" fill="#bebebe"/>
  </g>
</svg>
