<svg xmlns="http://www.w3.org/2000/svg" xmlns:xlink="http://www.w3.org/1999/xlink" width="122" height="122" viewBox="0 0 122 122">
  <defs>
    <filter id="Base" x="0" y="0" width="122" height="122" filterUnits="userSpaceOnUse">
      <feOffset dy="3" input="SourceAlpha"/>
      <feGaussianBlur stdDeviation="3" result="blur"/>
      <feFlood flood-opacity="0.161"/>
      <feComposite operator="in" in2="blur"/>
      <feComposite in="SourceGraphic"/>
    </filter>
  </defs>
  <g id="Grupo_28768" data-name="Grupo 28768" transform="translate(-622 -1438)">
    <g id="Icon" transform="translate(631.289 1444.037)">
      <g transform="matrix(1, 0, 0, 1, -9.29, -6.04)" filter="url(#Base)">
        <circle id="Base-2" data-name="Base" cx="52" cy="52" r="52" transform="translate(9 6)" fill="#fff"/>
      </g>
    </g>
    <g id="Grupo_28609" data-name="Grupo 28609" transform="translate(649.015 1470.333)">
      <g id="Grupo_28589" data-name="Grupo 28589" transform="translate(33.986 0.996)">
        <path id="Trazado_39511" data-name="Trazado 39511" d="M256.481,72.156,256,72.15v48.815h.008a24.407,24.407,0,0,0,.473-48.809ZM276.01,94.412h-5.536a33.163,33.163,0,0,0-4.191-14.678c-.143-.245-.289-.483-.436-.717A20.152,20.152,0,0,1,276.01,94.412Zm-15.718,19.9V98.7h5.881a29.185,29.185,0,0,1-3.595,12.514,16.686,16.686,0,0,1-2.286,3.095Zm0-19.9V78.8a16.686,16.686,0,0,1,2.286,3.095,29.185,29.185,0,0,1,3.595,12.514Zm5.556,19.686c.147-.234.293-.472.436-.717A33.164,33.164,0,0,0,270.474,98.7h5.536A20.151,20.151,0,0,1,265.848,114.1Z" transform="translate(-256 -72.15)" fill="#b3e59f"/>
      </g>
      <g id="Grupo_28590" data-name="Grupo 28590" transform="translate(33.986 0.996)">
        <path id="Trazado_39512" data-name="Trazado 39512" d="M256.481,72.156,256,72.15v48.815h.008a24.407,24.407,0,0,0,.473-48.809ZM276.01,94.412h-5.536a33.163,33.163,0,0,0-4.191-14.678c-.143-.245-.289-.483-.436-.717A20.152,20.152,0,0,1,276.01,94.412Zm-15.718,19.9V98.7h5.881a29.185,29.185,0,0,1-3.595,12.514,16.686,16.686,0,0,1-2.286,3.095Zm0-19.9V78.8a16.686,16.686,0,0,1,2.286,3.095,29.185,29.185,0,0,1,3.595,12.514Zm5.556,19.686c.147-.234.293-.472.436-.717A33.164,33.164,0,0,0,270.474,98.7h5.536A20.151,20.151,0,0,1,265.848,114.1Z" transform="translate(-256 -72.15)" fill="#b3e59f"/>
      </g>
      <g id="Grupo_28591" data-name="Grupo 28591" transform="translate(33.986 15.478)">
        <path id="Trazado_39513" data-name="Trazado 39513" d="M278.3,181.241a28.9,28.9,0,0,1-3,12.071h.705a20.151,20.151,0,0,1-10.162,15.394c.147-.234.293-.472.436-.717a29.621,29.621,0,0,0,2.7-6.235,29.1,29.1,0,0,1-6.771,4.676,16.078,16.078,0,0,1-1.917,2.491V207.3A28.814,28.814,0,0,1,256,208.68v6.893h.008a24.406,24.406,0,0,0,22.3-34.332Z" transform="translate(-255.999 -181.241)" fill="#95d6a4"/>
      </g>
      <g id="Grupo_28592" data-name="Grupo 28592" transform="translate(9.579 0.996)">
        <path id="Trazado_39514" data-name="Trazado 39514" d="M96.558,107.169a10.612,10.612,0,1,1,0-21.224V72.15H92.843l-1.982,5.767a2.472,2.472,0,0,1-1.4,1.475l-.021.008a2.473,2.473,0,0,1-2.035-.052l-5.479-2.676-5.253,5.253L79.348,87.4A2.473,2.473,0,0,1,79.4,89.44l-.008.021a2.472,2.472,0,0,1-1.475,1.4L72.15,92.843v7.428l5.767,1.982a2.472,2.472,0,0,1,1.475,1.4l.008.021a2.473,2.473,0,0,1-.052,2.035l-2.676,5.479,5.253,5.253,5.479-2.676a2.473,2.473,0,0,1,2.035-.052l.021.008a2.472,2.472,0,0,1,1.4,1.475l1.982,5.767h3.714Z" transform="translate(-72.15 -72.15)" fill="#62a4fb"/>
      </g>
      <g id="Grupo_28595" data-name="Grupo 28595" transform="translate(15.115 41.049)">
        <g id="Grupo_28593" data-name="Grupo 28593">
          <path id="Trazado_39515" data-name="Trazado 39515" d="M113.85,373.853l4.239,4.239,3.831-1.871A28.844,28.844,0,0,1,113.85,373.853Z" transform="translate(-113.85 -373.853)" fill="#5392f9"/>
        </g>
        <g id="Grupo_28594" data-name="Grupo 28594" transform="translate(13.016 1.868)">
          <path id="Trazado_39516" data-name="Trazado 39516" d="M211.893,388.7a2.42,2.42,0,0,1,.159.355l1.982,5.767h3.714v-6.893A29.069,29.069,0,0,1,211.893,388.7Z" transform="translate(-211.893 -387.927)" fill="#5392f9"/>
        </g>
      </g>
      <g id="Grupo_28597" data-name="Grupo 28597" transform="translate(62.685 23.257)">
        <g id="Grupo_28596" data-name="Grupo 28596">
          <ellipse id="Elipse_1286" data-name="Elipse 1286" cx="2.146" cy="2.146" rx="2.146" ry="2.146" fill="#ffe07d"/>
        </g>
      </g>
      <g id="Grupo_28599" data-name="Grupo 28599" transform="translate(62.685 13.065)">
        <g id="Grupo_28598" data-name="Grupo 28598">
          <ellipse id="Elipse_1287" data-name="Elipse 1287" cx="2.146" cy="2.146" rx="2.146" ry="2.146" fill="#ffe07d"/>
        </g>
      </g>
      <g id="Grupo_28601" data-name="Grupo 28601" transform="translate(62.685 33.449)">
        <g id="Grupo_28600" data-name="Grupo 28600">
          <ellipse id="Elipse_1288" data-name="Elipse 1288" cx="2.146" cy="2.146" rx="2.146" ry="2.146" fill="#ffe07d"/>
        </g>
      </g>
      <g id="Grupo_28603" data-name="Grupo 28603" transform="translate(0.996 23.257)">
        <g id="Grupo_28602" data-name="Grupo 28602">
          <ellipse id="Elipse_1289" data-name="Elipse 1289" cx="2.146" cy="2.146" rx="2.146" ry="2.146" fill="#ffe07d"/>
        </g>
      </g>
      <g id="Grupo_28605" data-name="Grupo 28605" transform="translate(2.337 13.065)">
        <g id="Grupo_28604" data-name="Grupo 28604">
          <ellipse id="Elipse_1290" data-name="Elipse 1290" cx="2.146" cy="2.146" rx="2.146" ry="2.146" fill="#ffe07d"/>
        </g>
      </g>
      <g id="Grupo_28607" data-name="Grupo 28607" transform="translate(2.337 33.449)">
        <g id="Grupo_28606" data-name="Grupo 28606">
          <ellipse id="Elipse_1291" data-name="Elipse 1291" cx="2.146" cy="2.146" rx="2.146" ry="2.146" fill="#ffe07d"/>
        </g>
      </g>
      <g id="Grupo_28608" data-name="Grupo 28608" transform="translate(0 0)">
        <path id="Trazado_39517" data-name="Trazado 39517" d="M282.541,115.072a1,1,0,0,0-1.716.687v15.609a1,1,0,0,0,1,1H287.7a1,1,0,0,0,.994-1.062,30.129,30.129,0,0,0-3.729-12.95,17.634,17.634,0,0,0-2.425-3.28Zm.275,15.3V118.654q.22.341.431.7a27.655,27.655,0,0,1,3.373,11.016h-3.8Z" transform="translate(-243.543 -108.11)"/>
        <path id="Trazado_39518" data-name="Trazado 39518" d="M323.675,282.048a.994.994,0,0,0,.488-.128,21.167,21.167,0,0,0,10.664-16.156,1,1,0,0,0-.99-1.1H328.3a1,1,0,0,0-.994.939,32.393,32.393,0,0,1-4.056,14.232c-.125.213-.261.438-.419.688a1,1,0,0,0,.843,1.526Zm5.555-15.394H332.7a19.158,19.158,0,0,1-6.2,11.171,35.046,35.046,0,0,0,2.732-11.171Z" transform="translate(-279.84 -238.11)"/>
        <path id="Trazado_39519" data-name="Trazado 39519" d="M59.376,91.05h2.476a3.141,3.141,0,1,0,0-1.991H59.376a25.277,25.277,0,0,0-1.7-8.2h4.172a3.141,3.141,0,1,0,0-1.991H56.8A25.5,25.5,0,0,0,34.48,64.658l-.494-.007H30.271a1,1,0,0,0-.942.672L27.348,71.09a1.477,1.477,0,0,1-.834.876l-.043.018a1.478,1.478,0,0,1-1.2-.034l-5.48-2.675a1,1,0,0,0-1.141.191l-.985.985a1,1,0,0,0,1.408,1.408l.483-.483L24.4,73.74a3.471,3.471,0,0,0,2.853.078l.024-.01a3.469,3.469,0,0,0,1.958-2.07l1.751-5.095H32.99V78.49a11.607,11.607,0,0,0,0,23.129v11.847H30.982l-1.751-5.1a3.469,3.469,0,0,0-1.958-2.07l-.024-.01a3.47,3.47,0,0,0-2.852.078l-4.842,2.363-4.247-4.247,2.363-4.841a3.47,3.47,0,0,0,.078-2.853l-.01-.024a3.469,3.469,0,0,0-2.07-1.958l-5.095-1.751V87.05L15.669,85.3a3.469,3.469,0,0,0,2.07-1.958l.01-.024a3.469,3.469,0,0,0-.078-2.852l-2.363-4.842.48-.48a1,1,0,1,0-1.408-1.408l-.982.982a1,1,0,0,0-.191,1.141l1.468,3.008H7.461a3.141,3.141,0,1,0,0,1.991h8.186l.235.481a1.478,1.478,0,0,1,.034,1.2l-.018.043a1.476,1.476,0,0,1-.876.834L9.255,85.4a1,1,0,0,0-.672.942v2.719H6.12a3.141,3.141,0,1,0,0,1.991H8.583v2.719a1,1,0,0,0,.672.942l5.767,1.982a1.477,1.477,0,0,1,.876.834l.018.043a1.478,1.478,0,0,1-.034,1.2l-.235.481H7.461a3.141,3.141,0,1,0,0,1.991h7.214l-1.468,3.008a1,1,0,0,0,.191,1.141l5.252,5.252a1,1,0,0,0,1.141.191l5.48-2.675a1.477,1.477,0,0,1,1.2-.034l.043.018a1.476,1.476,0,0,1,.834.876l1.982,5.767a1,1,0,0,0,.942.672h3.723a25.268,25.268,0,0,0,13.689-4.013,1,1,0,0,0-1.077-1.675,23.266,23.266,0,0,1-11.625,3.676V89.855a1,1,0,0,0-1.991,0v9.763a9.616,9.616,0,0,1,0-19.128v4.718a1,1,0,1,0,1.991,0V66.665a23.4,23.4,0,0,1,15.127,40.356,1,1,0,1,0,1.371,1.444,25.349,25.349,0,0,0,5.317-7.223h5.054a3.141,3.141,0,1,0,0-1.991H57.673a25.12,25.12,0,0,0,1.7-8.2Zm5.454-12.338a1.15,1.15,0,1,1-1.15,1.15A1.151,1.151,0,0,1,64.831,78.712Zm-60.348,2.3a1.15,1.15,0,1,1,1.15-1.15A1.152,1.152,0,0,1,4.483,81.012ZM3.141,91.2a1.15,1.15,0,1,1,1.15-1.15A1.152,1.152,0,0,1,3.141,91.2ZM4.483,101.4a1.15,1.15,0,1,1,1.15-1.15A1.151,1.151,0,0,1,4.483,101.4ZM64.831,88.9a1.15,1.15,0,1,1-1.15,1.15A1.152,1.152,0,0,1,64.831,88.9Zm0,10.192a1.15,1.15,0,1,1-1.15,1.15A1.152,1.152,0,0,1,64.831,99.1Z" transform="translate(0 -64.651)"/>
        <path id="Trazado_39520" data-name="Trazado 39520" d="M280.825,281.267a1,1,0,0,0,1.716.687,17.64,17.64,0,0,0,2.425-3.28,30.13,30.13,0,0,0,3.729-12.95,1,1,0,0,0-.994-1.062h-5.881a1,1,0,0,0-1,1Zm1.991-14.613h3.8a27.653,27.653,0,0,1-3.373,11.016q-.211.361-.431.7Z" transform="translate(-243.543 -238.11)"/>
        <path id="Trazado_39521" data-name="Trazado 39521" d="M327.306,132.827a1,1,0,0,0,.994.939h5.536a1,1,0,0,0,.99-1.1,21.167,21.167,0,0,0-10.664-16.156,1,1,0,0,0-1.331,1.4c.157.25.294.475.419.688a32.394,32.394,0,0,1,4.056,14.232Zm5.389-1.053h-3.466A35.055,35.055,0,0,0,326.5,120.6,19.158,19.158,0,0,1,332.7,131.775Z" transform="translate(-279.84 -109.513)"/>
      </g>
    </g>
  </g>
</svg>
