<svg xmlns="http://www.w3.org/2000/svg" width="78.104" height="79.101" viewBox="0 0 78.104 79.101">
  <g id="Group_94846" data-name="Group 94846" transform="translate(-210.084 -209.499)">
    <path id="Path_163737" data-name="Path 163737" d="M229.393,243.939a1.947,1.947,0,0,0,2.21-2.418l-5.947-22.44a1.946,1.946,0,0,0-1-1.238l-9.449-4.784a1.947,1.947,0,0,0-1.758,3.474l8.67,4.39,5.724,21.6A1.947,1.947,0,0,0,229.393,243.939Z" transform="translate(-0.343 -0.501)" fill="#ffee58"/>
    <path id="Path_163738" data-name="Path 163738" d="M229.946,229.9l3.754,14.167a1.946,1.946,0,1,1-3.763,1l-3.525-13.3A4.73,4.73,0,0,1,229.946,229.9Z" transform="translate(-2.441 -3.049)" fill="#ff9800"/>
    <path id="Path_163739" data-name="Path 163739" d="M242.453,245.405l.215-4.8h0c.164-3.645-2.819-3.684-2.819-3.684H212.91s-2.983.039-2.819,3.684h0l2.035,45.263c0,.013.148,3.713,3.547,3.713h21.413c3.4,0,3.547-3.7,3.548-3.713l1.538-34.2" transform="translate(0 -4.099)" fill="#d1e7f8"/>
    <path id="Path_163740" data-name="Path 163740" d="M217.153,285.869l-2.035-45.263c-.164-3.645,2.819-3.684,2.819-3.684H212.91s-2.983.039-2.819,3.684l2.035,45.263c0,.013.148,3.713,3.547,3.713H220.7C217.3,289.581,217.153,285.881,217.153,285.869Z" transform="translate(0 -4.099)" fill="#b9d8f4"/>
    <path id="Path_163741" data-name="Path 163741" d="M216.976,284.614s.1,2.242,1.954,2.242h16.859c1.857,0,1.954-2.242,1.954-2.242L239.372,248a2.2,2.2,0,0,0-2.158-2.5H217.506a2.2,2.2,0,0,0-2.159,2.5Z" transform="translate(-0.786 -5.382)" fill="#ffe477"/>
    <g id="Group_94846-2" data-name="Group 94846" transform="translate(214.557 240.124)">
      <path id="Path_163742" data-name="Path 163742" d="M223.745,279.634c-1.857,0-1.954-2.242-1.954-2.242l-1.419-31.886h-2.866a2.2,2.2,0,0,0-2.159,2.5l1.63,36.61s.1,2.242,1.954,2.242h16.858c1.858,0,1.954-2.242,1.954-2.242l.222-4.98Z" transform="translate(-215.343 -245.506)" fill="#ffd422"/>
      <circle id="Ellipse_4250" data-name="Ellipse 4250" cx="1.002" cy="1.002" r="1.002" transform="translate(10.128 9.202)" fill="#ffd422"/>
      <circle id="Ellipse_4251" data-name="Ellipse 4251" cx="1.113" cy="1.113" r="1.113" transform="translate(7.228 4.443)" fill="#ffd422"/>
      <circle id="Ellipse_4252" data-name="Ellipse 4252" cx="1.002" cy="1.002" r="1.002" transform="translate(15.42 3.485)" fill="#ffd422"/>
      <circle id="Ellipse_4253" data-name="Ellipse 4253" cx="1.113" cy="1.113" r="1.113" transform="translate(18.317 7.387)" fill="#ffd422"/>
    </g>
    <g id="Group_94847" data-name="Group 94847" transform="translate(218.959 259.576)">
      <circle id="Ellipse_4254" data-name="Ellipse 4254" cx="4.665" cy="4.665" r="4.665" transform="translate(5.784 9.03)" fill="#ffa733"/>
      <circle id="Ellipse_4255" data-name="Ellipse 4255" cx="5.532" cy="5.532" r="5.532" transform="translate(0 0)" fill="#ffa733"/>
    </g>
    <path id="Path_163743" data-name="Path 163743" d="M276.029,242.732a1.947,1.947,0,0,1-1.768-2.757l9.654-21.111a1.945,1.945,0,0,1,1.2-1.05l10.121-3.118a1.946,1.946,0,1,1,1.147,3.72l-9.288,2.861L277.8,241.595A1.946,1.946,0,0,1,276.029,242.732Z" transform="translate(-9.566 -0.764)" fill="#ffee58"/>
    <path id="Path_163744" data-name="Path 163744" d="M280.356,228.763l-6.095,13.328a1.946,1.946,0,1,0,3.54,1.619l5.722-12.511A4.726,4.726,0,0,0,280.356,228.763Z" transform="translate(-9.566 -2.879)" fill="#ff9800"/>
    <path id="Path_163745" data-name="Path 163745" d="M290.951,245.405l.216-4.8h0c.163-3.645-2.82-3.684-2.82-3.684h-26.94s-2.983.039-2.819,3.684h0l2.035,45.263c0,.013.148,3.713,3.547,3.713h21.413c3.4,0,3.547-3.7,3.548-3.713l1.538-34.2" transform="translate(-7.249 -4.099)" fill="#d1e7f8"/>
    <path id="Path_163746" data-name="Path 163746" d="M265.651,285.869l-2.035-45.263c-.164-3.645,2.819-3.684,2.819-3.684h-5.027s-2.982.039-2.819,3.684l2.035,45.263c0,.013.149,3.713,3.547,3.713H269.2C265.8,289.581,265.651,285.881,265.651,285.869Z" transform="translate(-7.249 -4.099)" fill="#b9d8f4"/>
    <path id="Path_163747" data-name="Path 163747" d="M265.475,284.614s.1,2.242,1.954,2.242h16.858c1.858,0,1.954-2.242,1.954-2.242L287.87,248a2.2,2.2,0,0,0-2.159-2.5H266a2.2,2.2,0,0,0-2.159,2.5Z" transform="translate(-8.035 -5.382)" fill="#a4e276"/>
    <g id="Group_94848" data-name="Group 94848" transform="translate(255.807 240.124)">
      <path id="Path_163748" data-name="Path 163748" d="M272.243,279.634c-1.858,0-1.954-2.242-1.954-2.242l-1.42-31.886H266a2.2,2.2,0,0,0-2.159,2.5l1.63,36.61s.1,2.242,1.954,2.242h16.858c1.858,0,1.954-2.242,1.954-2.242l.222-4.98Z" transform="translate(-263.841 -245.506)" fill="#7ed63e"/>
      <circle id="Ellipse_4256" data-name="Ellipse 4256" cx="1.002" cy="1.002" r="1.002" transform="translate(10.399 6.384)" fill="#7ed63e"/>
      <circle id="Ellipse_4257" data-name="Ellipse 4257" cx="1.113" cy="1.113" r="1.113" transform="translate(14.336 9.911)" fill="#7ed63e"/>
      <circle id="Ellipse_4258" data-name="Ellipse 4258" cx="1.002" cy="1.002" r="1.002" transform="translate(15.421 3.485)" fill="#7ed63e"/>
      <circle id="Ellipse_4259" data-name="Ellipse 4259" cx="1.113" cy="1.113" r="1.113" transform="translate(18.316 7.387)" fill="#7ed63e"/>
    </g>
    <g id="Group_94849" data-name="Group 94849" transform="translate(259.16 261.506)">
      <circle id="Ellipse_4260" data-name="Ellipse 4260" cx="4.665" cy="4.665" r="4.665" transform="translate(6.329 7.101)" fill="#5eac24"/>
      <circle id="Ellipse_4261" data-name="Ellipse 4261" cx="5.532" cy="5.532" r="5.532" transform="translate(0 0)" fill="#5eac24"/>
    </g>
    <path id="Path_163749" data-name="Path 163749" d="M253.773,240.552a2.149,2.149,0,0,1-1.953-3.043L262.481,214.2a2.15,2.15,0,0,1,1.322-1.16l11.176-3.443a2.149,2.149,0,0,1,1.266,4.108l-10.256,3.16L255.73,239.3A2.149,2.149,0,0,1,253.773,240.552Z" transform="translate(-6.209 0)" fill="#ffee58"/>
    <path id="Path_163750" data-name="Path 163750" d="M258.551,225.127l-6.73,14.718a2.149,2.149,0,1,0,3.909,1.788l6.318-13.815S261.4,226.031,258.551,225.127Z" transform="translate(-6.209 -2.336)" fill="#ff9800"/>
    <path id="Path_163751" data-name="Path 163751" d="M267.865,243.5l.239-5.3h0c.18-4.025-3.113-4.068-3.113-4.068H235.245s-3.293.043-3.112,4.068h0l2.247,49.977c0,.014.164,4.1,3.917,4.1h23.644c3.752,0,3.916-4.086,3.916-4.1l1.7-37.763" transform="translate(-3.294 -3.682)" fill="#d1e7f8"/>
    <path id="Path_163752" data-name="Path 163752" d="M239.93,288.182,237.683,238.2c-.181-4.025,3.112-4.068,3.112-4.068h-5.55s-3.294.043-3.113,4.068l2.247,49.977c0,.014.164,4.1,3.917,4.1h5.551C240.095,292.282,239.931,288.2,239.93,288.182Z" transform="translate(-3.294 -3.682)" fill="#b9d8f4"/>
    <path id="Path_163753" data-name="Path 163753" d="M239.736,286.8s.106,2.476,2.157,2.476h18.616c2.05,0,2.157-2.476,2.157-2.476l1.8-40.424a2.425,2.425,0,0,0-2.383-2.757H240.32a2.425,2.425,0,0,0-2.383,2.757Z" transform="translate(-4.162 -5.099)" fill="#ff3f62"/>
    <g id="Group_94850" data-name="Group 94850" transform="translate(233.77 238.516)">
      <path id="Path_163754" data-name="Path 163754" d="M247.21,281.3c-2.051,0-2.158-2.476-2.158-2.476l-1.567-35.207H240.32a2.426,2.426,0,0,0-2.384,2.757l1.8,40.424s.107,2.476,2.158,2.476h18.615c2.051,0,2.158-2.476,2.158-2.476l.244-5.5Z" transform="translate(-237.932 -243.615)" fill="#ff0c38"/>
      <circle id="Ellipse_4262" data-name="Ellipse 4262" cx="1.106" cy="1.106" r="1.106" transform="translate(8.862 5.205)" fill="#ff0c38"/>
      <circle id="Ellipse_4263" data-name="Ellipse 4263" cx="1.229" cy="1.229" r="1.229" transform="translate(15.56 5.178)" fill="#ff0c38"/>
      <circle id="Ellipse_4264" data-name="Ellipse 4264" cx="1.106" cy="1.106" r="1.106" transform="translate(12.185 9.835)" fill="#ff0c38"/>
      <circle id="Ellipse_4265" data-name="Ellipse 4265" cx="1.229" cy="1.229" r="1.229" transform="translate(20.226 8.156)" fill="#ff0c38"/>
    </g>
    <g id="Group_94851" data-name="Group 94851" transform="translate(238.938 253.981)">
      <circle id="Ellipse_4266" data-name="Ellipse 4266" cx="7.819" cy="7.819" r="7.819" transform="translate(0 9.611)" fill="#d80027"/>
      <circle id="Ellipse_4267" data-name="Ellipse 4267" cx="6.109" cy="6.109" r="6.109" transform="translate(5.049)" fill="#d80027"/>
    </g>
  </g>
</svg>
