<svg xmlns="http://www.w3.org/2000/svg" width="90.278" height="100" viewBox="0 0 90.278 100">
  <g id="Group_90056" data-name="Group 90056" transform="translate(-321.268 255.279)">
    <path id="Path_143700" data-name="Path 143700" d="M448.853-186.942c-.164,1.388-.3,2.791-.5,4.183-.16,1.079-.706,1.63-1.765,1.506-1.5-.176-2.122.418-2.667,1.8-.582,1.475-.96,2.577.591,3.661a1.444,1.444,0,0,1,.14,2.1,22.817,22.817,0,0,1-6.1,6.087,1.537,1.537,0,0,1-2.253-.307,1.941,1.941,0,0,0-3.108-.508.468.468,0,0,1-.187.072,2.121,2.121,0,0,0-1.979,2.7c.131,1.049-.441,1.534-1.541,1.743a21.847,21.847,0,0,1-8.213.006c-1.192-.226-1.586-.691-1.619-1.913a3.256,3.256,0,0,1,0-.6,1.231,1.231,0,0,0-1.159-1.622,1.064,1.064,0,0,1-.375-.143c-1.459-.87-2.791-1.254-3.99.5a1.368,1.368,0,0,1-1.935.1,22.528,22.528,0,0,1-6.161-6.161,1.7,1.7,0,0,1,.39-2.343c1.226-1.232,1.211-1.247.515-2.835a.511.511,0,0,1-.046-.089c-.347-1.641-1.149-2.567-3.029-2.252-.825.138-1.333-.536-1.492-1.349a22.294,22.294,0,0,1,0-8.612,1.566,1.566,0,0,1,1.6-1.391,6.881,6.881,0,0,1,1.108-.008c.775.093,1.147-.237,1.354-.983a8.3,8.3,0,0,1,.857-2.035,1.038,1.038,0,0,0-.293-1.551,8.073,8.073,0,0,1-.717-.708,1.655,1.655,0,0,1-.194-2.285,23.071,23.071,0,0,1,5.947-5.96,1.574,1.574,0,0,1,2.408.263c.925,1.177,1.853,1.358,3.03.488a.222.222,0,0,1,.092-.04,2.258,2.258,0,0,0,2.128-2.9c-.124-.929.576-1.423,1.483-1.591a22.366,22.366,0,0,1,8.314,0c1.129.215,1.663.705,1.54,1.849-.158,1.47.445,2.055,1.77,2.579,1.45.573,2.574,1.032,3.662-.557a1.438,1.438,0,0,1,2.1-.169,22.8,22.8,0,0,1,6.1,6.089,1.63,1.63,0,0,1-.191,2.2,3.074,3.074,0,0,1-.5.5,1.316,1.316,0,0,0-.377,2.111,1.084,1.084,0,0,1,.162.367c.393,1.666,1.183,2.7,3.154,2.392.823-.128,1.327.582,1.441,1.4C448.538-189.775,448.683-188.374,448.853-186.942Zm-21.033,20.066a3.975,3.975,0,0,1,3.2-4.166,6.634,6.634,0,0,0,1.484-.617,4,4,0,0,1,5.377.765l3.485-3.417c-1.5-1.884-1.785-3.016-1.206-4.477a22.779,22.779,0,0,1,1.467-3.412,6.729,6.729,0,0,1,1.957-1.906,5.638,5.638,0,0,1,1.8-.468v-4.821a4.016,4.016,0,0,1-4.215-3.324,5.031,5.031,0,0,0-.458-1.115c-1.114-1.954-1.221-3.81.738-5.671l-3.508-3.524a4.086,4.086,0,0,1-5.6.779,4.549,4.549,0,0,0-1.022-.421c-2.119-.594-3.5-1.807-3.5-4.26h-4.928a3.966,3.966,0,0,1-3.2,4.136,6.593,6.593,0,0,0-1.485.617,4.012,4.012,0,0,1-5.376-.76l-3.519,3.456c1.336,1.383,1.867,2.74,1.268,4.342a22.626,22.626,0,0,1-1.545,3.6,6.135,6.135,0,0,1-1.913,1.812,5.8,5.8,0,0,1-1.795.46v4.81a4.056,4.056,0,0,1,4.213,3.348A4.885,4.885,0,0,0,410-180c1.12,1.954,1.2,3.809-.725,5.664l3.483,3.523a4.06,4.06,0,0,1,5.524-.812,4.826,4.826,0,0,0,1.115.459c2.124.591,3.5,1.814,3.5,4.289Z" transform="translate(-58.944 -32.846)" fill="#1a2e48"/>
    <path id="Path_143701" data-name="Path 143701" d="M408.263-135.979l2.939.884c-2.741,10.835-14.04,24.486-32.434,25.348a35.332,35.332,0,0,1-36.633-30.62c-1.282,0-2.584.006-3.886,0-1.93-.011-2.6-1.177-1.634-2.849q2.553-4.4,5.134-8.786c.958-1.627,2.364-1.635,3.316-.017q2.581,4.385,5.133,8.786c1,1.72.313,2.859-1.707,2.867-1,0-2,0-3.018,0a31.9,31.9,0,0,0,25.392,26.8,31.455,31.455,0,0,0,22.98-4A32.232,32.232,0,0,0,408.263-135.979ZM343.41-148.455l-2.786,4.8h5.592Z" transform="translate(-10.891 -74.555)" fill="#1a2e48"/>
    <path id="Path_143702" data-name="Path 143702" d="M366.375-229.669l-2.975-.954a34.534,34.534,0,0,1,8.258-13.814,34.838,34.838,0,0,1,21.314-10.581c19.595-2.358,36.459,11.654,39.158,28.8,1.38,0,2.78-.009,4.181,0,1.808.014,2.515,1.18,1.625,2.728q-2.61,4.54-5.271,9.052c-.9,1.537-2.271,1.522-3.186-.031q-2.632-4.47-5.226-8.962c-.93-1.61-.241-2.773,1.628-2.788.935-.008,1.869,0,2.817,0a32.068,32.068,0,0,0-25.245-25.215C387.652-254.645,371.008-245.145,366.375-229.669Zm67.511,6.725h-5.612l2.807,4.814Z" transform="translate(-30.781)" fill="#1a2e48"/>
    <path id="Path_143703" data-name="Path 143703" d="M321.268,107.475v-3.1h90.278v3.1Z" transform="translate(0 -262.754)" fill="#1a2e48"/>
    <path id="Path_143704" data-name="Path 143704" d="M578.658,4.873q0-6.2,0-12.407c0-1.583.534-2.116,2.116-2.118q5.194-.006,10.388,0c1.447,0,2.015.568,2.016,2.015q.007,12.507,0,25.015c0,1.447-.569,2.014-2.015,2.017q-5.244.011-10.489,0c-1.447,0-2.013-.568-2.015-2.016Q578.651,11.127,578.658,4.873Zm3.3-11.25V16.091h7.95V-6.377Z" transform="translate(-188.042 -179.446)" fill="#1a2e48"/>
    <path id="Path_143705" data-name="Path 143705" d="M500.792,30.687c0-2.791-.005-5.581,0-8.372,0-1.449.567-2.013,2.014-2.016q5.244-.011,10.489,0c1.447,0,2.014.568,2.016,2.015q.009,8.473,0,16.945c0,1.447-.57,2.013-2.015,2.016q-5.244.011-10.489,0c-1.447,0-2.011-.568-2.015-2.016C500.787,36.4,500.792,33.545,500.792,30.687Zm3.3-7.117v14.4h8v-14.4Z" transform="translate(-131.154 -201.326)" fill="#1a2e48"/>
    <path id="Path_143706" data-name="Path 143706" d="M437.449,46.339c0,2.017.007,4.034,0,6.052-.006,1.447-.57,2.013-2.016,2.016q-5.244.011-10.488,0c-1.447,0-2.012-.569-2.014-2.016q-.01-6.052,0-12.1c0-1.448.567-2.012,2.015-2.015q5.244-.011,10.488,0c1.447,0,2.009.568,2.016,2.016C437.455,42.3,437.449,44.321,437.449,46.339Zm-11.225-4.8V51.1h7.945V41.542Z" transform="translate(-74.266 -214.456)" fill="#1a2e48"/>
    <path id="Path_143707" data-name="Path 143707" d="M352.357,56.24c1.748,0,3.5-.008,5.244,0,1.389.008,1.967.577,1.974,1.955q.016,3.681,0,7.363c-.006,1.388-.579,1.97-1.956,1.973q-5.295.014-10.589,0c-1.389,0-1.967-.577-1.972-1.956q-.016-3.681,0-7.363c.005-1.39.575-1.964,1.955-1.973C348.794,56.231,350.576,56.24,352.357,56.24Zm3.945,3.284h-7.955v4.713H356.3Z" transform="translate(-17.374 -227.585)" fill="#1a2e48"/>
    <path id="Path_143708" data-name="Path 143708" d="M434.916-162.86a14.536,14.536,0,0,1,14.593-14.5,14.529,14.529,0,0,1,14.449,14.642,14.544,14.544,0,0,1-14.692,14.4A14.555,14.555,0,0,1,434.916-162.86Zm14.6-11.274a11.326,11.326,0,0,0-11.374,11.3,11.316,11.316,0,0,0,11.167,11.3,11.306,11.306,0,0,0,11.419-11.242A11.3,11.3,0,0,0,449.518-174.135Z" transform="translate(-83.028 -56.925)" fill="#1a2e48"/>
    <path id="Path_143709" data-name="Path 143709" d="M474.851-139.954h-3.267v-1.629c-3.1-1.261-4.356-2.866-4.181-5.342h3.065a2.654,2.654,0,0,0,4.239,1.664c.921-.647.96-1.658-.03-2.187a5.22,5.22,0,0,0-2.105-.507,5.368,5.368,0,0,1-4.166-2.123c-2.34-3.048-.266-6.16,2.1-7.111.311-.125.637-.212,1.042-.345v-1.695h3.073c.043.057.121.113.115.158a1.865,1.865,0,0,0,1.344,2.246,4.314,4.314,0,0,1,2.443,4.582h-2.974a2.682,2.682,0,0,0-4.227-1.71c-.969.656-1,1.7.029,2.245a4.893,4.893,0,0,0,2.015.477,5.4,5.4,0,0,1,3.927,1.773,4.408,4.408,0,0,1-1.164,7.079C475.057-141.826,474.439-141.307,474.851-139.954Z" transform="translate(-106.745 -70.172)" fill="#1a2e48"/>
  </g>
</svg>
