<svg xmlns="http://www.w3.org/2000/svg" width="100.093" height="100" viewBox="0 0 100.093 100">
  <g id="Group_90051" data-name="Group 90051" transform="translate(-570.099 -149.581)">
    <path id="Path_143669" data-name="Path 143669" d="M664.2,163.784a11.5,11.5,0,0,1,5.984,10.837c-.034,1.276,0,2.553,0,3.993H669.1c-6.114,0-12.228-.008-18.342.017a1.932,1.932,0,0,0-1.248.407q-6.951,6.876-13.841,13.811a4.607,4.607,0,0,0-.307.4c.778.261,1.493.5,2.205.74a4.887,4.887,0,0,1,3.591,5c.007,5.074-.006,10.148.018,15.221a1.81,1.81,0,0,0,.365,1.165c3.2,3.258,6.443,6.48,9.675,9.708a2.083,2.083,0,0,0,.31.2,8.11,8.11,0,0,1,6.37-4.67,7.734,7.734,0,0,1,5.873,1.588c4,3.026,4.166,7.773.44,12.559a11.1,11.1,0,0,1,5.876,8.741,59.947,59.947,0,0,1,.035,6H647.6c.1-2.638-.314-5.293.445-7.886a11.444,11.444,0,0,1,5.6-6.891,8.559,8.559,0,0,1-2.726-5.093,1.717,1.717,0,0,0-.555-.8q-5.477-5.5-10.987-10.963a2.04,2.04,0,0,0-1.3-.524q-17.887-.042-35.776,0a2.178,2.178,0,0,0-1.37.592q-5.457,5.374-10.835,10.83a2.9,2.9,0,0,0-.721,1.362,8.686,8.686,0,0,1-2.649,4.586,11.149,11.149,0,0,1,5.949,8.781,59.7,59.7,0,0,1,.035,6.006H570.264c-.144-4.3-.529-8.654,2.754-12.157.928-.99,2.04-1.807,3.073-2.708-3.733-4.812-3.4-9.822.937-12.728a8.1,8.1,0,0,1,11.849,3.391c.23-.2.455-.365.653-.562,3.043-3.039,6.095-6.069,9.1-9.14a2.187,2.187,0,0,0,.575-1.378c.038-5.745.025-11.491.025-17.236,0-3.358.788-4.457,4.024-5.547-.214-.236-.4-.461-.607-.667-3.846-3.851-7.683-7.711-11.561-11.529a2.312,2.312,0,0,0-1.466-.6c-6.08-.041-12.16-.026-18.241-.026H570.1c.122-2.476.048-4.873.4-7.205.479-3.154,2.438-5.555,5.73-7.645a8.168,8.168,0,0,1-2.713-7.217,7.824,7.824,0,0,1,2.816-5.079,8.026,8.026,0,0,1,10.673.3c3.412,3.209,3.351,7.255-.184,12.024a11.411,11.411,0,0,1,5.94,11.078,3.045,3.045,0,0,0,1.066,2.524q7.094,7.016,14.117,14.105a7.039,7.039,0,0,1,.648.888l.285-.158c.021-.245.026-.493.065-.735a4.852,4.852,0,0,1,3.168-3.971c4.418-1.776,8.835-3.554,13.267-5.294a4.3,4.3,0,0,1,6.1,4.166c.012,1.546,0,3.091.005,4.637,0,.319.033.638.065,1.213.424-.358.678-.543.9-.762q7.308-7.3,14.592-14.627a2.481,2.481,0,0,0,.548-1.393c.161-1.429.066-2.9.365-4.3a11.012,11.012,0,0,1,5.629-7.365c-3.593-4.788-3.6-8.991-.044-12.17a8.037,8.037,0,0,1,10.9.169C667.84,155.04,667.766,159.4,664.2,163.784Zm-35.944,27.873c0-1.713.008-3.391,0-5.068-.009-1.333-.647-1.784-1.866-1.3q-6.538,2.6-13.068,5.226a1.708,1.708,0,0,0-1.19,1.783,6.692,6.692,0,0,0,.023,1.2,1.333,1.333,0,0,0,.5.826,4.971,4.971,0,0,1,2.711,4.7c-.012,4.633,0,9.266,0,13.9v1.1h9.675v-1.155c0-5.271.064-10.543-.028-15.813C624.96,194.506,625.713,192.593,628.258,191.657Zm9.674,22.393v-.874q0-7,0-14.007c0-1.354-.283-1.745-1.6-2.191q-3-1.014-6.009-2.006c-1.469-.485-2.06-.046-2.061,1.53q0,8.314,0,16.628v.92Zm-25.8,0c0-5.182,0-10.251,0-15.321a1.678,1.678,0,0,0-1.342-1.668c-2.069-.682-4.132-1.384-6.2-2.072-1.547-.514-2.126-.1-2.127,1.54q0,8.314,0,16.628c0,.29.035.58.056.893Zm38.749,32.233h16c.543-5.319-2.907-9.506-7.816-9.615C654.947,236.582,650.238,239.928,650.88,246.288Zm-61.364.017c.3-3.587-.728-6.527-3.843-8.426a7.584,7.584,0,0,0-8.554.124c-2.978,1.925-3.953,4.823-3.634,8.3Zm0-70.967c.307-3.538-.7-6.461-3.746-8.368a7.589,7.589,0,0,0-8.641.065c-2.98,1.922-3.961,4.82-3.641,8.3Zm77.405.008c.287-3.643-.763-6.612-3.945-8.489a7.592,7.592,0,0,0-8.635.3c-2.858,1.946-3.771,4.8-3.453,8.187ZM654.52,159.3a4.52,4.52,0,0,0,4.491,3.181,4.434,4.434,0,0,0,4.237-3.181Zm-77.435-.042a4.62,4.62,0,0,0,4.763,3.214c1.939-.145,3.788-1.621,3.98-3.214h-8.743Zm8.829,67.69a4.641,4.641,0,0,0-4.592-3.174,4.514,4.514,0,0,0-4.206,3.174Zm68.544-.029h8.858a4.689,4.689,0,0,0-8.858,0Zm-77.378,3.35a4.639,4.639,0,0,0,4.591,3.174,4.518,4.518,0,0,0,4.206-3.174Zm86.189.021h-8.784a4.628,4.628,0,0,0,4.581,3.153A4.52,4.52,0,0,0,663.269,230.292Zm.048-74.3a4.649,4.649,0,0,0-4.6-3.176,4.505,4.505,0,0,0-4.2,3.176Zm-77.444,0a4.566,4.566,0,0,0-4.494-3.188c-1.906.008-4.186,1.716-4.235,3.188Z" fill="#1a2e48"/>
    <path id="Path_143670" data-name="Path 143670" d="M631.482,164.119q0,5.442,0,10.884a3.264,3.264,0,0,1-3.625,3.609q-7.658.008-15.315,0c-2.346,0-3.629-1.274-3.631-3.6q-.007-10.935,0-21.869a3.26,3.26,0,0,1,3.572-3.556q7.709-.009,15.416,0a3.246,3.246,0,0,1,3.581,3.549C631.489,156.8,631.482,160.457,631.482,164.119Zm-3.3,11.225V152.89h-16v22.454Z" fill="#1a2e48"/>
    <path id="Path_143671" data-name="Path 143671" d="M608.908,235.063q0-5.442,0-10.884a3.276,3.276,0,0,1,3.6-3.631q7.707-.008,15.415,0a3.246,3.246,0,0,1,3.555,3.575q.009,10.935,0,21.869a3.249,3.249,0,0,1-3.55,3.582q-7.758.011-15.516,0a3.234,3.234,0,0,1-3.5-3.526C608.9,242.386,608.908,238.725,608.908,235.063Zm3.3-11.245v22.453h16V223.818Z" fill="#1a2e48"/>
    <path id="Path_143672" data-name="Path 143672" d="M570.21,199.528q0-5.442,0-10.884a3.261,3.261,0,0,1,3.552-3.577q7.758-.009,15.516,0a3.229,3.229,0,0,1,3.5,3.527q.011,10.984,0,21.97a3.233,3.233,0,0,1-3.5,3.527q-7.809.014-15.617,0a3.22,3.22,0,0,1-3.449-3.477C570.2,206.918,570.21,203.223,570.21,199.528Zm3.295-11.192V210.79h16V188.336Z" fill="#1a2e48"/>
    <path id="Path_143673" data-name="Path 143673" d="M647.607,199.527q0-5.442,0-10.885a3.262,3.262,0,0,1,3.553-3.575q7.758-.009,15.517,0a3.229,3.229,0,0,1,3.5,3.528q.011,10.986,0,21.97a3.232,3.232,0,0,1-3.5,3.526q-7.809.014-15.617,0a3.221,3.221,0,0,1-3.448-3.479C647.6,206.917,647.607,203.222,647.607,199.527Zm19.3-11.165h-16v22.454h16Z" fill="#1a2e48"/>
    <path id="Path_143674" data-name="Path 143674" d="M618.639,191.563h3.1v3.114h-3.1Z" fill="#1a2e48"/>
    <path id="Path_143675" data-name="Path 143675" d="M618.651,198.016h3.107v3.1h-3.107Z" fill="#1a2e48"/>
    <path id="Path_143676" data-name="Path 143676" d="M621.724,207.623H618.66v-3.137h3.064Z" fill="#1a2e48"/>
    <path id="Path_143677" data-name="Path 143677" d="M631.542,201.243h3.089v3.108h-3.089Z" fill="#1a2e48"/>
    <path id="Path_143678" data-name="Path 143678" d="M631.522,210.822V207.71h3.129v3.112Z" fill="#1a2e48"/>
    <path id="Path_143679" data-name="Path 143679" d="M605.728,204.365v-3.1h3.118v3.1Z" fill="#1a2e48"/>
    <path id="Path_143680" data-name="Path 143680" d="M608.888,207.709v3.078h-3.131v-3.078Z" fill="#1a2e48"/>
    <path id="Path_143681" data-name="Path 143681" d="M615.421,168.954h9.531v3.139h-9.531Z" fill="#1a2e48"/>
    <path id="Path_143682" data-name="Path 143682" d="M624.987,162.539v3.1h-9.565v-3.1Z" fill="#1a2e48"/>
    <path id="Path_143683" data-name="Path 143683" d="M624.986,156.1v3.1h-9.547v-3.1Z" fill="#1a2e48"/>
    <path id="Path_143684" data-name="Path 143684" d="M615.406,230.155v-3.107h9.548v3.107Z" fill="#1a2e48"/>
    <path id="Path_143685" data-name="Path 143685" d="M624.987,233.5v3.1h-9.565v-3.1Z" fill="#1a2e48"/>
    <path id="Path_143686" data-name="Path 143686" d="M615.411,239.942h9.551v3.125h-9.551Z" fill="#1a2e48"/>
    <path id="Path_143687" data-name="Path 143687" d="M586.25,201.173h-9.512v-3.138h9.512Z" fill="#1a2e48"/>
    <path id="Path_143688" data-name="Path 143688" d="M576.736,191.556h9.54v3.1h-9.54Z" fill="#1a2e48"/>
    <path id="Path_143689" data-name="Path 143689" d="M586.287,204.488v3.1H576.74v-3.1Z" fill="#1a2e48"/>
    <path id="Path_143690" data-name="Path 143690" d="M654.1,194.674v-3.107h9.548v3.107Z" fill="#1a2e48"/>
    <path id="Path_143691" data-name="Path 143691" d="M663.686,198.038v3.1h-9.548v-3.1Z" fill="#1a2e48"/>
    <path id="Path_143692" data-name="Path 143692" d="M654.078,207.585v-3.09h9.584v3.09Z" fill="#1a2e48"/>
  </g>
</svg>
