<svg xmlns="http://www.w3.org/2000/svg" width="100.063" height="100" viewBox="0 0 100.063 100">
  <g id="Group_90054" data-name="Group 90054" transform="translate(-519.068 175.034)">
    <path id="Path_143694" data-name="Path 143694" d="M519.146-75.115c-.154-5.856-.317-11.643,2.015-17.131a28.932,28.932,0,0,1,18.33-16.932c.159-.052.312-.122.622-.244a16.409,16.409,0,0,1-7.77-10.709c-.523-.087-1.023-.135-1.505-.256a4.826,4.826,0,0,1-3.647-5.216,4.72,4.72,0,0,1,4.612-4.249,2.225,2.225,0,0,0,2.319-1.475,14.919,14.919,0,0,1,6.72-6.458,1.354,1.354,0,0,0,.864-1.455c-.041-4.367-.02-8.734-.02-13.2h3.43c1.085-7.575,2.159-15.068,3.237-22.592h12.482c1.075,7.509,2.145,14.983,3.22,22.5h3.407v-16.073c1.3,0,2.525-.035,3.749.026.275.014.554.341.8.562q7.95,7.216,15.892,14.442c.123.112.253.217.516.442v-15.476c1.313,0,2.51-.021,3.7.019a1.364,1.364,0,0,1,.672.4q9.646,8.028,19.3,16.053a1.664,1.664,0,0,1,.588,1.483q-.012,19.411-.006,38.822v1.3c.6,0,1.13-.012,1.657,0a4.788,4.788,0,0,1,4.78,4.742q.048,13.008,0,26.015a4.725,4.725,0,0,1-4.692,4.718q-14.668.051-29.339,0a4.763,4.763,0,0,1-4.667-4.95c-.015-6.554,0-13.108,0-19.662v-1.132H569.866c.158.228.268.416.4.581a28.791,28.791,0,0,1,6.9,18.6c.026,2.148,0,4.3,0,6.516Zm25.807-67.658v3.462c.37-.035.7-.057,1.02-.1a15.919,15.919,0,0,1,16.224,8.175,2.189,2.189,0,0,0,2.276,1.379,4.735,4.735,0,0,1,4.613,4.252,4.83,4.83,0,0,1-3.646,5.216c-.481.121-.982.169-1.508.256a16.419,16.419,0,0,1-7.806,10.729,30.576,30.576,0,0,1,9.9,5.033,1.968,1.968,0,0,0,1.123.273c3.494.02,6.989.012,10.484.012h2.775a7.741,7.741,0,0,0,0-.789c-.355-3.075,1.877-5.782,5.694-5.707,7.39.144,14.785.042,22.178.042h1.109v-32.234Zm48.369,35.466c-2.8,0-5.444-.025-8.093.012-1.02.015-1.591.7-1.592,1.814q-.014,12.7,0,25.4a1.612,1.612,0,0,0,1.815,1.8q14.312.015,28.625,0a1.615,1.615,0,0,0,1.813-1.807q.016-12.7,0-25.4a1.622,1.622,0,0,0-1.8-1.823c-1.142-.022-2.284,0-3.427,0h-4.5v9.625H593.322Zm-1.6-41.956c-.946,0-1.751-.054-2.545.014a2.828,2.828,0,0,1-2.317-.883c-5.165-4.755-10.373-9.464-15.569-14.186-.134-.122-.29-.221-.592-.449v15.547H544.964v3.131h64.48c0-1.085-.036-2.12.013-3.151a1.591,1.591,0,0,0-.667-1.447q-7.069-5.841-14.1-11.731c-.94-.785-1.885-1.565-2.974-2.468ZM564.308-78.3V-91.128h3.2v12.787h6.376a26.817,26.817,0,0,0-4.332-17.507,25.085,25.085,0,0,0-8.134-7.7L552.083-78.3Zm-29.444-25.23a25.866,25.866,0,0,0-12.4,25.176h6.357V-91.107h3.238V-78.35h12.12Zm25.926-49.015-2.754-19.269h-6.89c-.917,6.427-1.83,12.824-2.749,19.269Zm-25.02,32.36c.831,5.261,6.591,9.687,12.481,9.641,5.818-.045,11.531-4.526,12.25-9.641Zm12.471-6.492q-7.764,0-15.527,0a4.531,4.531,0,0,0-1,.041,1.524,1.524,0,0,0-1.3,1.569,1.525,1.525,0,0,0,1.3,1.572,4.352,4.352,0,0,0,1,.043h30.851a4.957,4.957,0,0,0,.9-.025,1.527,1.527,0,0,0,1.4-1.586,1.525,1.525,0,0,0-1.392-1.589,4.958,4.958,0,0,0-.905-.025Zm10.886-3.262c-1.745-3.856-6.8-6.609-11.665-6.4-4.212.177-9.133,3.234-10.265,6.4ZM548.138-93.773c-1.45,1.467-2.789,2.784-4.07,4.155a1.206,1.206,0,0,0-.206,1.024q1.737,4.872,3.578,9.707a1.077,1.077,0,0,0,.738.574c.2.024.558-.3.65-.543q1.849-4.885,3.622-9.8a1.021,1.021,0,0,0-.141-.875C550.976-90.936,549.6-92.3,548.138-93.773Zm.005-4.7,6.875-7.867a24.724,24.724,0,0,0-13.747.017Zm48.466-8.8v6.329h6.328v-6.329Zm-58.6,2.133-.243.152,4.512,12.2,3.5-3.491Zm12.455,8.9,3.505,3.526,4.534-12.286-.246-.136Z" fill="#1a2e48"/>
    <path id="Path_143695" data-name="Path 143695" d="M574.024-139.538h32.139v22.464H574.024Zm9.532,9.6v-6.365h-6.32v6.365Zm9.684-.005v-6.329h-6.329v6.329Zm3.351-6.365v6.348h6.329v-6.348ZM583.586-126.6h-6.328v6.33h6.328Zm9.654,6.338v-6.329h-6.328v6.329Zm3.342-.008h6.347v-6.33h-6.347Z" fill="#1a2e48"/>
    <path id="Path_143696" data-name="Path 143696" d="M596.591-91.135H612.6v3.125H596.591Z" fill="#1a2e48"/>
    <path id="Path_143697" data-name="Path 143697" d="M596.58-81.547v-3.108h3.125v3.108Z" fill="#1a2e48"/>
    <path id="Path_143698" data-name="Path 143698" d="M603.075-84.7h3.066v3.138h-3.066Z" fill="#1a2e48"/>
    <path id="Path_143699" data-name="Path 143699" d="M612.617-81.54h-3.1v-3.121h3.1Z" fill="#1a2e48"/>
  </g>
</svg>
