<svg xmlns="http://www.w3.org/2000/svg" width="86.002" height="86.001" viewBox="0 0 86.002 86.001">
  <g id="Group_126054" data-name="Group 126054" transform="translate(-577.365 -156.631)">
    <path id="Path_175919" data-name="Path 175919" d="M585.432,156.631h42.662a1.339,1.339,0,0,0,.3.134,9.192,9.192,0,0,1,7.762,9.419q.009,33.456,0,66.911a9.219,9.219,0,0,1-9.535,9.531q-19.855.013-39.71-.008a10.456,10.456,0,0,1-2.408-.259,9.186,9.186,0,0,1-7.128-9.264q-.009-24.725,0-49.449c0-5.877-.01-11.753.005-17.63a8.744,8.744,0,0,1,4.009-7.7A22.748,22.748,0,0,1,585.432,156.631Zm21.374,40.239a19.3,19.3,0,1,0,19.272,19.367A19.327,19.327,0,0,0,606.806,196.87Zm-.077-7.917a12.586,12.586,0,1,0-12.563-12.621A12.6,12.6,0,0,0,606.729,188.953Zm-16.766,3.277a2.516,2.516,0,1,0-2.486,2.526A2.542,2.542,0,0,0,589.963,192.23Zm38.632.021a2.517,2.517,0,1,0-2.508,2.5A2.543,2.543,0,0,0,628.595,192.251Z" fill="#1a2e48"/>
    <path id="Path_175920" data-name="Path 175920" d="M663.367,218.946c-1.187,2.011-2.2,2.294-4.351,1.225-.742-.368-1.487-.73-2.368-1.162v1.015c0,5.035.028,10.07-.012,15.1a7.493,7.493,0,0,1-7.144,7.477,7.222,7.222,0,0,1-7.078-4.055,7.077,7.077,0,0,1,.742-8.107,7.3,7.3,0,0,1,7.693-2.724c.191.038.379.086.569.127a.934.934,0,0,0,.191-.028v-.862q0-5.832,0-11.664c0-2.409,1.813-3.528,3.977-2.458,1.853.915,3.686,1.873,5.555,2.753a4.228,4.228,0,0,1,2.224,2.015Z" fill="#1a2e48"/>
    <path id="Path_175921" data-name="Path 175921" d="M663.367,171.916c-1.191,2.012-2.2,2.294-4.351,1.226-.742-.369-1.487-.731-2.368-1.164v1.016c0,5.035.029,10.07-.012,15.1a7.493,7.493,0,0,1-7.144,7.477,7.221,7.221,0,0,1-7.079-4.055,7.077,7.077,0,0,1,.742-8.107,7.3,7.3,0,0,1,7.694-2.724c.216.043.429.1.76.181v-.944q0-5.832,0-11.664c0-2.408,1.814-3.527,3.978-2.458,1.853.916,3.686,1.873,5.555,2.754a4.23,4.23,0,0,1,2.224,2.014Z" fill="#1a2e48"/>
    <path id="Path_175922" data-name="Path 175922" d="M606.762,201.909a14.266,14.266,0,1,1-14.275,14.244A14.277,14.277,0,0,1,606.762,201.909Zm.036,5.042a9.224,9.224,0,1,0,9.2,9.257A9.243,9.243,0,0,0,606.8,206.951Z" fill="#1a2e48"/>
    <path id="Path_175923" data-name="Path 175923" d="M606.853,168.824a7.544,7.544,0,1,1-7.645,7.411A7.548,7.548,0,0,1,606.853,168.824Zm-.106,5.039a2.5,2.5,0,1,0,2.533,2.488A2.519,2.519,0,0,0,606.747,173.863Z" fill="#1a2e48"/>
    <path id="Path_175924" data-name="Path 175924" d="M606.8,211.99a4.185,4.185,0,1,1-4.237,4.163A4.185,4.185,0,0,1,606.8,211.99Z" fill="#1a2e48"/>
  </g>
</svg>
