<svg xmlns="http://www.w3.org/2000/svg" width="79.1" height="79.1" viewBox="0 0 79.1 79.1">
  <g id="Flat" transform="translate(-216.45 -216.45)">
    <g id="Stroke_copy_2" data-name="Stroke copy 2">
      <g id="Group_94863" data-name="Group 94863">
        <g id="Group_94855" data-name="Group 94855">
          <circle id="Ellipse_4269" data-name="Ellipse 4269" cx="27.276" cy="27.276" r="27.276" transform="translate(227.36 235.543)" fill="#57b7eb"/>
          <path id="Path_163809" data-name="Path 163809" d="M265.547,277.821a27.248,27.248,0,0,1-24.894-38.39,27.26,27.26,0,1,0,38.877,34.5A27.119,27.119,0,0,1,265.547,277.821Z" fill="#4891d3"/>
          <path id="Path_163810" data-name="Path 163810" d="M273.034,242.723l-14.306,21.46,13.638,4.091-5.456,4.092v6.818l-5.455,5.456.675,4.387a27.226,27.226,0,0,0,10.911-46.3Z" fill="#c4f236"/>
          <path id="Path_163811" data-name="Path 163811" d="M227.36,262.819a27.276,27.276,0,0,0,21.465,26.64l-2.372-10.275,10.911-6.818-9.547-6.819,5.455-6.819-6.819-6.819L244.544,237.5A27.268,27.268,0,0,0,227.36,262.819Z" fill="#c4f236"/>
          <g id="Group_94854" data-name="Group 94854">
            <path id="Path_163812" data-name="Path 163812" d="M279.539,273.948a27.334,27.334,0,0,1-17.416,15.083l-.668-4.391,5.455-5.456v-1.4a26.831,26.831,0,0,0,12.629-3.832Z" fill="#a1d51c"/>
            <path id="Path_163813" data-name="Path 163813" d="M246.453,279.184l2.373,10.27a27.247,27.247,0,0,1-8.182-50.024A27.258,27.258,0,0,0,253.3,274.916Z" fill="#a1d51c"/>
          </g>
        </g>
        <g id="Group_94856" data-name="Group 94856">
          <path id="Path_163814" data-name="Path 163814" d="M281.912,216.45l3.1,4.794,5.327-2.056-.307,5.7,5.517,1.469-3.6,4.432,3.6,4.431-5.517,1.469.307,5.7-5.327-2.054-3.1,4.792-3.1-4.792-5.327,2.054.307-5.7-5.517-1.469,3.6-4.431-3.6-4.432,5.517-1.469-.307-5.7,5.327,2.056Z" fill="#f9e109"/>
          <path id="Path_163815" data-name="Path 163815" d="M279.895,236.994l-3.461,1.335.2-3.705-3.587-.955,2.34-2.879-2.34-2.88,3.587-.955-.2-3.705,3.461,1.335,2.017-3.115,2.017,3.115,3.461-1.335-.2,3.705,3.586.955-2.34,2.88,2.34,2.879-3.586.955.2,3.705-3.461-1.335-2.017,3.115Z" fill="#fcbc04"/>
          <circle id="Ellipse_4270" data-name="Ellipse 4270" cx="5.455" cy="5.455" r="5.455" transform="translate(276.457 225.997)" fill="#f8664f"/>
          <path id="Path_163816" data-name="Path 163816" d="M257.364,232.816a8.257,8.257,0,0,1,1.394.126,10.9,10.9,0,0,1,19.033,0,8.114,8.114,0,0,1,8.5,4c.137-.008.261-.039.4-.039a6.137,6.137,0,1,1-3.461,11.2,8.148,8.148,0,0,1-9.064-.661,10.861,10.861,0,0,1-11.772,0,8.183,8.183,0,1,1-5.024-14.632Z" fill="#d0d8da"/>
          <path id="Path_163817" data-name="Path 163817" d="M290.777,243.726a6.119,6.119,0,0,1-3.462-1.072,8.146,8.146,0,0,1-9.063-.662,10.863,10.863,0,0,1-11.773,0,8.173,8.173,0,0,1-13.017-8.182,8.183,8.183,0,1,0,8.926,13.638,10.861,10.861,0,0,0,11.772,0,8.148,8.148,0,0,0,9.064.661,6.115,6.115,0,0,0,9.567-4.749,6.1,6.1,0,0,1-2.014.366Z" fill="#93999a"/>
          <path id="Path_163818" data-name="Path 163818" d="M269.638,253.272l2.728-10.91-12.275,15,6.819,1.364-2.727,10.91,12.274-15Z" fill="#f9e109"/>
          <path id="Path_163819" data-name="Path 163819" d="M271,256h-5.455l6.819-13.638-12.275,15,6.819,1.364-2.727,10.91Z" fill="#fcbc04"/>
        </g>
        <g id="Group_94859" data-name="Group 94859">
          <g id="Group_94857" data-name="Group 94857">
            <path id="Path_163820" data-name="Path 163820" d="M221.9,273.729h16.366A2.727,2.727,0,0,1,241,276.457h0a2.727,2.727,0,0,1-2.727,2.727H221.9a2.727,2.727,0,0,1-2.727-2.727h0A2.727,2.727,0,0,1,221.9,273.729Z" fill="#d0d8da"/>
            <path id="Path_163821" data-name="Path 163821" d="M219.178,268.274H241A2.728,2.728,0,0,1,243.726,271h0A2.727,2.727,0,0,1,241,273.729h-21.82A2.727,2.727,0,0,1,216.45,271h0A2.728,2.728,0,0,1,219.178,268.274Z" fill="#d0d8da"/>
            <path id="Path_163822" data-name="Path 163822" d="M224.633,279.184h10.91a2.728,2.728,0,0,1,2.728,2.728h0a2.728,2.728,0,0,1-2.728,2.728h-10.91a2.728,2.728,0,0,1-2.728-2.728h0A2.728,2.728,0,0,1,224.633,279.184Z" fill="#d0d8da"/>
            <path id="Path_163823" data-name="Path 163823" d="M226,284.64h5.455a2.727,2.727,0,0,1,2.727,2.727h0a2.727,2.727,0,0,1-2.727,2.728H226a2.728,2.728,0,0,1-2.728-2.728h0A2.727,2.727,0,0,1,226,284.64Z" fill="#d0d8da"/>
            <path id="Path_163824" data-name="Path 163824" d="M224.633,290.1h2.727a2.727,2.727,0,0,1,2.728,2.727h0a2.728,2.728,0,0,1-2.728,2.728h-2.727a2.728,2.728,0,0,1-2.728-2.728h0A2.727,2.727,0,0,1,224.633,290.1Z" fill="#d0d8da"/>
          </g>
          <g id="Group_94858" data-name="Group 94858">
            <path id="Path_163825" data-name="Path 163825" d="M221.9,273.729a2.727,2.727,0,0,0,0,5.455h16.366A2.727,2.727,0,0,0,241,276.457H224.633A2.728,2.728,0,0,1,221.9,273.729Z" fill="#93999a"/>
            <path id="Path_163826" data-name="Path 163826" d="M219.178,268.274a2.728,2.728,0,1,0,0,5.455H241A2.727,2.727,0,0,0,243.726,271H221.9A2.727,2.727,0,0,1,219.178,268.274Z" fill="#93999a"/>
            <path id="Path_163827" data-name="Path 163827" d="M224.633,279.184a2.728,2.728,0,0,0,0,5.456h10.91a2.728,2.728,0,0,0,2.728-2.728H227.36A2.727,2.727,0,0,1,224.633,279.184Z" fill="#93999a"/>
            <path id="Path_163828" data-name="Path 163828" d="M226,284.64a2.727,2.727,0,1,0,0,5.455h5.455a2.727,2.727,0,0,0,2.727-2.728h-5.455A2.727,2.727,0,0,1,226,284.64Z" fill="#93999a"/>
            <path id="Path_163829" data-name="Path 163829" d="M224.633,290.1a2.727,2.727,0,1,0,0,5.455h2.727a2.728,2.728,0,0,0,2.728-2.728H227.36A2.727,2.727,0,0,1,224.633,290.1Z" fill="#93999a"/>
          </g>
        </g>
        <g id="Group_94862" data-name="Group 94862">
          <path id="Path_163830" data-name="Path 163830" d="M239.634,231.452a4.121,4.121,0,0,0-.717.072,5.34,5.34,0,0,0-6-2.639,6.806,6.806,0,0,0-12.238,2.58c-.047,0-.09-.013-.137-.013a4.091,4.091,0,1,0,2.923,6.955,6.737,6.737,0,0,0,7.512.176,5.387,5.387,0,0,0,6.155.18,4.033,4.033,0,0,0,2.5.871,4.091,4.091,0,1,0,0-8.182Z" fill="#d0d8da"/>
          <path id="Path_163831" data-name="Path 163831" d="M242.362,235.543a4.044,4.044,0,0,1-2.5-.878,5.387,5.387,0,0,1-6.155-.18,6.736,6.736,0,0,1-7.511-.176,4.075,4.075,0,0,1-6.99-2.615,4.083,4.083,0,1,0,4.262,6.713,6.737,6.737,0,0,0,7.512.176,5.387,5.387,0,0,0,6.155.18,4.033,4.033,0,0,0,2.5.871,4.091,4.091,0,0,0,4.092-4.091c0-.083-.019-.161-.025-.243a4.023,4.023,0,0,1-1.339.243Z" fill="#93999a"/>
          <g id="Group_94861" data-name="Group 94861">
            <g id="Group_94860" data-name="Group 94860">
              <path id="Path_163832" data-name="Path 163832" d="M290.1,281.912H269.638a1.364,1.364,0,1,1,0-2.728H290.1a2.727,2.727,0,0,0,0-5.455,1.363,1.363,0,1,1,0-2.727,5.455,5.455,0,0,1,0,10.91Z" fill="#84d2f4"/>
              <path id="Path_163833" data-name="Path 163833" d="M275.093,292.822h-9.546a1.363,1.363,0,1,1,0-2.727h9.546a1.363,1.363,0,1,1,0,2.727Z" fill="#84d2f4"/>
              <path id="Path_163834" data-name="Path 163834" d="M280.548,276.457H271a1.364,1.364,0,1,1,0-2.728h9.546a1.364,1.364,0,0,1,0,2.728Z" fill="#84d2f4"/>
              <path id="Path_163835" data-name="Path 163835" d="M283.276,295.55a1.364,1.364,0,1,1,0-2.728,2.727,2.727,0,0,0,0-5.455h-8.183a1.363,1.363,0,1,1,0-2.727h8.183a5.455,5.455,0,1,1,0,10.91Z" fill="#84d2f4"/>
              <path id="Path_163836" data-name="Path 163836" d="M256,281.912h-2.728a1.364,1.364,0,0,1,0-2.728H256a1.364,1.364,0,1,1,0,2.728Z" fill="#84d2f4"/>
              <path id="Path_163837" data-name="Path 163837" d="M261.455,276.457h-2.727a1.364,1.364,0,0,1,0-2.728h2.727a1.364,1.364,0,1,1,0,2.728Z" fill="#84d2f4"/>
            </g>
            <path id="Path_163838" data-name="Path 163838" d="M223.269,247.817a1.362,1.362,0,0,1-1.227-.754l-1.364-2.728a1.364,1.364,0,0,1,2.441-1.219l1.364,2.728a1.364,1.364,0,0,1-1.214,1.973Z" fill="#84d2f4"/>
            <path id="Path_163839" data-name="Path 163839" d="M228.724,247.817a1.362,1.362,0,0,1-1.227-.754l-1.364-2.728a1.364,1.364,0,0,1,2.441-1.219l1.364,2.728a1.364,1.364,0,0,1-1.214,1.973Z" fill="#84d2f4"/>
            <path id="Path_163840" data-name="Path 163840" d="M234.179,247.817a1.362,1.362,0,0,1-1.227-.754l-1.364-2.728a1.364,1.364,0,0,1,2.441-1.219l1.364,2.728a1.364,1.364,0,0,1-1.214,1.973Z" fill="#84d2f4"/>
            <path id="Path_163841" data-name="Path 163841" d="M239.634,247.817a1.362,1.362,0,0,1-1.227-.754l-1.364-2.728a1.364,1.364,0,0,1,2.441-1.219l1.364,2.728a1.364,1.364,0,0,1-1.214,1.973Z" fill="#84d2f4"/>
            <path id="Path_163842" data-name="Path 163842" d="M226,254.636a1.363,1.363,0,0,1-1.228-.754l-1.364-2.728a1.365,1.365,0,0,1,2.442-1.219l1.363,2.728A1.364,1.364,0,0,1,226,254.636Z" fill="#84d2f4"/>
            <path id="Path_163843" data-name="Path 163843" d="M231.452,254.636a1.363,1.363,0,0,1-1.228-.754l-1.363-2.728a1.364,1.364,0,1,1,2.441-1.219l1.364,2.728a1.364,1.364,0,0,1-1.214,1.973Z" fill="#84d2f4"/>
            <path id="Path_163844" data-name="Path 163844" d="M236.907,254.636a1.365,1.365,0,0,1-1.228-.754l-1.363-2.728a1.364,1.364,0,0,1,2.441-1.219l1.364,2.728a1.364,1.364,0,0,1-1.214,1.973Z" fill="#84d2f4"/>
            <path id="Path_163845" data-name="Path 163845" d="M242.362,254.636a1.362,1.362,0,0,1-1.227-.754l-1.364-2.728a1.364,1.364,0,0,1,2.441-1.219l1.364,2.728a1.364,1.364,0,0,1-1.214,1.973Z" fill="#84d2f4"/>
            <path id="Path_163846" data-name="Path 163846" d="M228.724,262.819a1.364,1.364,0,0,1-1.227-.754l-1.364-2.728a1.364,1.364,0,1,1,2.441-1.219l1.364,2.728a1.364,1.364,0,0,1-1.214,1.973Z" fill="#84d2f4"/>
            <path id="Path_163847" data-name="Path 163847" d="M234.179,262.819a1.364,1.364,0,0,1-1.227-.754l-1.364-2.728a1.364,1.364,0,1,1,2.441-1.219h0l1.364,2.728a1.364,1.364,0,0,1-1.214,1.973Z" fill="#84d2f4"/>
            <path id="Path_163848" data-name="Path 163848" d="M239.634,262.819a1.364,1.364,0,0,1-1.227-.754l-1.364-2.728a1.364,1.364,0,1,1,2.441-1.219l1.364,2.728a1.364,1.364,0,0,1-1.214,1.973Z" fill="#84d2f4"/>
            <path id="Path_163849" data-name="Path 163849" d="M243.726,261.455a1.364,1.364,0,0,1-1.228-.754l-1.363-2.728a1.364,1.364,0,0,1,2.441-1.219l1.364,2.728a1.364,1.364,0,0,1-1.214,1.973Z" fill="#84d2f4"/>
          </g>
        </g>
      </g>
    </g>
  </g>
</svg>
