<svg xmlns="http://www.w3.org/2000/svg" width="86.021" height="86" viewBox="0 0 86.021 86">
  <g id="Group_125794" data-name="Group 125794" transform="translate(-916.593 -497.396)">
    <path id="Path_175279" data-name="Path 175279" d="M966.153,583.4l-7.677-5.547c-.431-.311-.87-.612-1.293-.933a1.194,1.194,0,0,1-.464-1.662,1.437,1.437,0,0,1,1.839-.511c.2.1.39.221.581.336,1.8,1.079,3.6,2.151,5.392,3.242a1.657,1.657,0,0,0,2.769-1.553q-.01-10.074,0-20.149c0-.28-.008-.56.007-.839a1.523,1.523,0,1,1,3.044.017c.024.587.006,1.176.006,1.763q0,5.037,0,10.075c0,1.176.5,1.851,1.42,1.931.867.076,1.44-.486,1.65-1.618a1.563,1.563,0,0,1,1.5-1.434,1.544,1.544,0,0,1,1.568,1.441c.212,1.093.75,1.643,1.583,1.617s1.329-.573,1.517-1.692a1.523,1.523,0,0,1,3.027-.028c.014.082.008.168.022.25a1.6,1.6,0,0,0,1.556,1.472,1.551,1.551,0,0,0,1.495-1.426c.214-1.137.783-1.7,1.655-1.629s1.449.809,1.451,1.936q.012,6.967.005,13.936c0,.335.021.67.032,1.005Z" fill="#1a2e48"/>
    <path id="Path_175280" data-name="Path 175280" d="M916.593,513.354a15.034,15.034,0,0,1,1.17-2.083,4.3,4.3,0,0,1,3.363-1.586V571a4.318,4.318,0,0,1-4.18-2.739c-.115-.276-.235-.55-.353-.825Z" fill="#1a2e48"/>
    <path id="Path_175281" data-name="Path 175281" d="M924.332,571.074V509.72h2.676a23.774,23.774,0,0,0,1.631,3.647,5.774,5.774,0,0,0,5.066,2.472c2.015.017,4.031.019,6.046-.006a1.407,1.407,0,0,1,1.221.538c1.413,1.663,2.869,3.291,4.306,4.933.18.207.346.426.519.641a23.014,23.014,0,0,0-7.476,27.443,23.4,23.4,0,0,0,25.807,13.642v8.044Zm13.729-10.639H927.41v2.938h10.651Zm-10.692-35.451h9.143v-2.963h-9.143ZM935,554.244h-7.612v2.983H935ZM935,528.185h-7.589v2.922H935Z" fill="#1a2e48"/>
    <path id="Path_175282" data-name="Path 175282" d="M984.183,564.57a4.722,4.722,0,0,0-6.168,0,5.027,5.027,0,0,0-4.6-.9c0-1.6-.028-3.081.026-4.556.01-.261.32-.558.56-.755a23.013,23.013,0,0,0-21.724-39.786c-.159.052-.317.108-.478.154a1.265,1.265,0,0,1-.244,0l-.726-2.888c1.8,0,3.5.009,5.2,0a23.359,23.359,0,0,0,2.765-.087,6.022,6.022,0,0,0,5.374-5.553c.014-.137.041-.272.071-.466h30.6v61.339h-2.987c0-.84-.02-1.645,0-2.448a4.716,4.716,0,0,0-2.538-4.66A4.489,4.489,0,0,0,984.183,564.57Zm-3.054-39.581H991.8v-2.973H981.129Zm0,35.321H991.8v-2.953h-10.67Zm10.692-32.125h-7.592v2.926h7.592Zm-.011,23.033h-7.6v2.937h7.6ZM976.56,512.776v3.019h2.957v-3.019Zm9.1,3.026v-2.993h-2.973V515.8Zm3.184-.023h2.967V512.79h-2.967Z" fill="#1a2e48"/>
    <path id="Path_175283" data-name="Path 175283" d="M947.91,524.317c.905,1.037,1.783,2.051,2.671,3.057a1.58,1.58,0,0,0,2,.579,1.6,1.6,0,0,0,.775-2.006c-.324-1.353-.676-2.7-1.013-4.035a19.549,19.549,0,0,1,20.2,3.325c-.163.182-.319.372-.491.544q-6.287,6.294-12.589,12.572a1.707,1.707,0,0,1-1.062.5c-6.043.03-12.086.022-18.129.02-.137,0-.273-.014-.4-.021C939.082,534.948,943.418,527.086,947.91,524.317Z" fill="#1a2e48"/>
    <path id="Path_175284" data-name="Path 175284" d="M948.638,520.487c-1.916-2.189-3.864-4.35-5.731-6.579a3.006,3.006,0,0,0-2.6-1.188c-2.182.062-4.367.027-6.55.015a3.074,3.074,0,0,1-3.344-3.346q-.02-4.324,0-8.649a3.1,3.1,0,0,1,3.362-3.341q12.012-.006,24.022,0a3.066,3.066,0,0,1,3.334,3.347q.011,4.367,0,8.734a3.017,3.017,0,0,1-3.246,3.254c-2.828.016-5.656,0-8.484.006-1.741.005-2.315.752-1.9,2.452.432,1.76.872,3.519,1.308,5.278Zm9.384-10.851v-2.964H933.557v2.964Zm-18.361-6.155h18.35v-2.972h-18.35Zm-3.138-2.98h-2.952v2.992h2.952Z" fill="#1a2e48"/>
    <path id="Path_175285" data-name="Path 175285" d="M998.075,509.71a4.56,4.56,0,0,1,4.529,4.64c.02,3.665.005,7.33.005,10.995q0,20.438,0,40.875a4.615,4.615,0,0,1-4.056,4.855,3.49,3.49,0,0,1-.476,0Z" fill="#1a2e48"/>
    <path id="Path_175286" data-name="Path 175286" d="M961.971,540.413l12.853-12.85c6.432,7.129,6.247,18.815-.029,25.682Z" fill="#1a2e48"/>
    <path id="Path_175287" data-name="Path 175287" d="M959.729,542.816l8.35,8.335c-.163.06-.326.129-.494.179a4.482,4.482,0,0,0-3.324,3.991,33.858,33.858,0,0,0-.045,3.688c.017.612-.157.878-.788.989a20.05,20.05,0,0,1-16.651-4.276Z" fill="#1a2e48"/>
    <path id="Path_175288" data-name="Path 175288" d="M955.645,541.967l-11.306,11.3a19.548,19.548,0,0,1-4.625-11.3Z" fill="#1a2e48"/>
  </g>
</svg>
