<svg xmlns="http://www.w3.org/2000/svg" width="238.694" height="146.713" viewBox="0 0 238.694 146.713">
  <g id="Group_111246" data-name="Group 111246" transform="translate(-2181.856 -848.291)">
    <g id="Group_111245" data-name="Group 111245" transform="translate(2188.252 848.291)">
      <g id="Group_111212" data-name="Group 111212" transform="translate(71.413 17.485)">
        <path id="Path_170060" data-name="Path 170060" d="M2334.87,874.225a37.6,37.6,0,0,0-37.61,37.609c0,20.766,37.61,66.93,37.61,66.93s17.082-20.971,28.192-40.995c5.407-9.684,9.418-19.162,9.418-25.935A37.618,37.618,0,0,0,2334.87,874.225Zm0,54.78a17.7,17.7,0,1,1,3.832-.446A16.287,16.287,0,0,1,2334.87,929.005Z" transform="translate(-2297.26 -874.225)" fill="#b8c1c9"/>
      </g>
      <g id="Group_111228" data-name="Group 111228" transform="translate(16.935 101.83)">
        <path id="Path_170061" data-name="Path 170061" d="M2316.869,999.322h-40.364V1033.5h45.225Z" transform="translate(-2236.021 -999.322)" fill="#26aab9"/>
        <path id="Path_170062" data-name="Path 170062" d="M2311.648,1001.058H2265.9v33.008h50.491Z" transform="translate(-2232.566 -999.888)" fill="#13292d"/>
        <g id="Group_111216" data-name="Group 111216" transform="translate(59.351 27.871)">
          <g id="Group_111215" data-name="Group 111215" transform="translate(0 0)">
            <g id="Group_111214" data-name="Group 111214">
              <g id="Group_111213" data-name="Group 111213">
                <rect id="Rectangle_36728" data-name="Rectangle 36728" width="6.221" height="6.307" transform="translate(6.221 6.307) rotate(180)" fill="#b8c1c9"/>
                <rect id="Rectangle_36729" data-name="Rectangle 36729" width="3.765" height="6.307" transform="translate(9.727 6.307) rotate(180)" fill="#698085"/>
              </g>
            </g>
          </g>
        </g>
        <g id="Group_111220" data-name="Group 111220" transform="translate(59.02 19.946)">
          <g id="Group_111219" data-name="Group 111219" transform="translate(0 0)">
            <g id="Group_111218" data-name="Group 111218">
              <g id="Group_111217" data-name="Group 111217">
                <rect id="Rectangle_36730" data-name="Rectangle 36730" width="10.316" height="8.011" transform="translate(10.316 8.011) rotate(180)" fill="#b8c1c9"/>
                <rect id="Rectangle_36731" data-name="Rectangle 36731" width="2.848" height="6.221" transform="translate(12.905 8.011) rotate(180)" fill="#698085"/>
              </g>
            </g>
          </g>
        </g>
        <rect id="Rectangle_36732" data-name="Rectangle 36732" width="14.458" height="6.413" rx="3.206" transform="translate(1.735 30.151)" fill="#b8c1c9"/>
        <path id="Path_170063" data-name="Path 170063" d="M2294.83,1053.894a5.8,5.8,0,1,1,5.8,5.8A5.8,5.8,0,0,1,2294.83,1053.894Z" transform="translate(-2241.99 -1015.212)" fill="#13292d"/>
        <path id="Path_170064" data-name="Path 170064" d="M2323.735,1053.894a5.8,5.8,0,1,1,5.8,5.8A5.8,5.8,0,0,1,2323.735,1053.894Z" transform="translate(-2251.406 -1015.212)" fill="#13292d"/>
        <path id="Path_170065" data-name="Path 170065" d="M2221.961,1053.894a5.8,5.8,0,1,1,5.8,5.8A5.8,5.8,0,0,1,2221.961,1053.894Z" transform="translate(-2218.252 -1015.212)" fill="#13292d"/>
        <path id="Path_170066" data-name="Path 170066" d="M2226.219,1055.281a2.925,2.925,0,1,1,2.925,2.926A2.925,2.925,0,0,1,2226.219,1055.281Z" transform="translate(-2219.639 -1016.599)" fill="#d36e2a"/>
        <path id="Path_170067" data-name="Path 170067" d="M2226.219,1055.281a2.925,2.925,0,1,1,2.925,2.926A2.925,2.925,0,0,1,2226.219,1055.281Z" transform="translate(-2219.639 -1016.599)" fill="#698085"/>
        <path id="Path_170068" data-name="Path 170068" d="M2229.212,1056.256a.907.907,0,1,1,.907.907A.907.907,0,0,1,2229.212,1056.256Z" transform="translate(-2220.614 -1017.574)" fill="#b8c1c9"/>
        <path id="Path_170069" data-name="Path 170069" d="M2227.748,1058.83a.351.351,0,1,1,.351.351A.351.351,0,0,1,2227.748,1058.83Z" transform="translate(-2220.137 -1018.594)" fill="#b8c1c9"/>
        <path id="Path_170070" data-name="Path 170070" d="M2227.141,1054.963a.351.351,0,1,1,.351.351A.351.351,0,0,1,2227.141,1054.963Z" transform="translate(-2219.939 -1017.334)" fill="#b8c1c9"/>
        <path id="Path_170071" data-name="Path 170071" d="M2232.868,1054.963a.351.351,0,1,1,.351.351A.351.351,0,0,1,2232.868,1054.963Z" transform="translate(-2221.805 -1017.334)" fill="#b8c1c9"/>
        <path id="Path_170072" data-name="Path 170072" d="M2232.434,1058.83a.351.351,0,1,1,.351.351A.351.351,0,0,1,2232.434,1058.83Z" transform="translate(-2221.664 -1018.594)" fill="#b8c1c9"/>
        <path id="Path_170073" data-name="Path 170073" d="M2230.037,1053.21a.351.351,0,1,1,.351.351A.351.351,0,0,1,2230.037,1053.21Z" transform="translate(-2220.883 -1016.763)" fill="#b8c1c9"/>
        <path id="Path_170074" data-name="Path 170074" d="M2298.927,1055.281a2.925,2.925,0,1,1,2.925,2.926A2.925,2.925,0,0,1,2298.927,1055.281Z" transform="translate(-2243.325 -1016.599)" fill="#d36e2a"/>
        <path id="Path_170075" data-name="Path 170075" d="M2298.927,1055.281a2.925,2.925,0,1,1,2.925,2.926A2.925,2.925,0,0,1,2298.927,1055.281Z" transform="translate(-2243.325 -1016.599)" fill="#698085"/>
        <path id="Path_170076" data-name="Path 170076" d="M2301.92,1056.256a.907.907,0,1,1,.907.907A.907.907,0,0,1,2301.92,1056.256Z" transform="translate(-2244.3 -1017.574)" fill="#b8c1c9"/>
        <path id="Path_170077" data-name="Path 170077" d="M2300.456,1058.83a.351.351,0,1,1,.351.351A.351.351,0,0,1,2300.456,1058.83Z" transform="translate(-2243.823 -1018.594)" fill="#b8c1c9"/>
        <path id="Path_170078" data-name="Path 170078" d="M2300.261,1054.963a.351.351,0,1,1,.352.351A.351.351,0,0,1,2300.261,1054.963Z" transform="translate(-2243.76 -1017.334)" fill="#b8c1c9"/>
        <path id="Path_170079" data-name="Path 170079" d="M2305.142,1058.83a.351.351,0,1,1,.351.351A.351.351,0,0,1,2305.142,1058.83Z" transform="translate(-2245.35 -1018.594)" fill="#b8c1c9"/>
        <path id="Path_170080" data-name="Path 170080" d="M2298.759,1053.21a.351.351,0,1,1,.351.351A.351.351,0,0,1,2298.759,1053.21Z" transform="translate(-2243.27 -1016.763)" fill="#b8c1c9"/>
        <path id="Path_170081" data-name="Path 170081" d="M2246.385,1053.894a5.8,5.8,0,1,1,5.8,5.8A5.8,5.8,0,0,1,2246.385,1053.894Z" transform="translate(-2226.209 -1015.212)" fill="#13292d"/>
        <path id="Path_170082" data-name="Path 170082" d="M2230.462,1007.969s3.145-4.744,6.78-4.783l-.324,5.132Z" transform="translate(-2221.021 -1000.581)" fill="#698085"/>
        <path id="Path_170083" data-name="Path 170083" d="M2245.778,1031.869h-25.17l2.095-17a5.514,5.514,0,0,1,5.472-4.839h17.6Z" transform="translate(-2217.811 -1002.81)" fill="#b8c1c9"/>
        <path id="Path_170084" data-name="Path 170084" d="M2232.828,1022.6h-7.058l.935-6.713a2.8,2.8,0,0,1,2.771-2.411h3.571Z" transform="translate(-2219.493 -1003.932)" fill="#698085"/>
        <path id="Path_170085" data-name="Path 170085" d="M2232.659,1022.346h-4.648a1.16,1.16,0,0,1-1.15-1.313l.616-4.645a2.407,2.407,0,0,1,2.344-2.14h3.021Z" transform="translate(-2219.845 -1004.185)" fill="#eaeaea"/>
        <path id="Path_170086" data-name="Path 170086" d="M2285.324,1033.5h-48.413l2.16-34.178h43.392Z" transform="translate(-2223.122 -999.322)" fill="#26aab9"/>
        <path id="Path_170087" data-name="Path 170087" d="M2284.288,1032.831h-44.74l2-31.586h40.1l2.143,25.6Z" transform="translate(-2223.981 -999.949)" fill="#00fbfe"/>
        <path id="Path_170088" data-name="Path 170088" d="M2234.614,1042.422h-15.358c-1.353.09-1.483.758-1.483.758l-1.314,6.352a.422.422,0,0,0,.444.395h3.861a.6.6,0,0,0,.524-.405,6.379,6.379,0,0,1,.993-1,6.245,6.245,0,0,1,3.682-1.089,7.163,7.163,0,0,1,4.756,1.583h3.894c.47,0,.855-.245.855-.546v-5.506C2235.469,1042.667,2235.085,1042.422,2234.614,1042.422Z" transform="translate(-2216.46 -1013.363)" fill="#698085"/>
        <path id="Path_170089" data-name="Path 170089" d="M2308.346,1058.517h-4.867a4.506,4.506,0,0,0-.61-1.567c-1.472-2.359-4.912-3.079-6.873-3.3-.859-.1-1.434-.1-1.434-.1h8.367a6.141,6.141,0,0,1,4.333,2.633A7.129,7.129,0,0,1,2308.346,1058.517Z" transform="translate(-2241.903 -1016.989)" fill="#26aab9"/>
        <path id="Path_170090" data-name="Path 170090" d="M2336.922,1058.517h-4.867a4.522,4.522,0,0,0-.732-1.753c-2.223-3.207-8.185-3.211-8.185-3.211h8.367a6.109,6.109,0,0,1,3.9,2.071A7.241,7.241,0,0,1,2336.922,1058.517Z" transform="translate(-2251.212 -1016.989)" fill="#26aab9"/>
        <rect id="Rectangle_36733" data-name="Rectangle 36733" width="72.678" height="3.315" rx="1.657" transform="translate(14.234 34.178)" fill="#26aab9"/>
        <rect id="Rectangle_36734" data-name="Rectangle 36734" width="14.458" height="7.342" rx="3.671" transform="translate(17.31 35.011)" fill="#26aab9"/>
        <g id="Group_111222" data-name="Group 111222" transform="translate(2.655 12.87)">
          <path id="Path_170091" data-name="Path 170091" d="M2221,1022.127s-.629,3.381-.6,3.933a.92.92,0,0,0,.948.82Z" transform="translate(-2220.398 -1019.621)" fill="#00fbfe"/>
          <rect id="Rectangle_36735" data-name="Rectangle 36735" width="2.342" height="5.035" rx="1.171" transform="translate(0.574 2.224)" fill="#698085"/>
          <rect id="Rectangle_36736" data-name="Rectangle 36736" width="1.905" height="4.508" rx="0.953" transform="translate(0.834 2.506)" fill="#eaeaea"/>
          <g id="Group_111221" data-name="Group 111221" transform="translate(1.667)">
            <path id="Path_170092" data-name="Path 170092" d="M2222.948,1020.726a.085.085,0,0,1-.077-.092V1019.2a.9.9,0,0,1,.948-.791c.779.024,1.114,0,1.117,0a.084.084,0,0,1,.083.086.089.089,0,0,1-.073.1c-.014,0-.346.024-1.131,0a.719.719,0,0,0-.789.625v1.415A.086.086,0,0,1,2222.948,1020.726Z" transform="translate(-2222.871 -1018.41)" fill="#00fbfe"/>
          </g>
        </g>
        <path id="Path_170093" data-name="Path 170093" d="M2234.406,1029.9h-1.425a.364.364,0,0,1-.362-.363h0a.363.363,0,0,1,.362-.362h1.425a.363.363,0,0,1,.362.362h0A.363.363,0,0,1,2234.406,1029.9Z" transform="translate(-2221.724 -1009.048)" fill="#698085"/>
        <g id="Group_111226" data-name="Group 111226" transform="translate(69.677 27.957)">
          <g id="Group_111225" data-name="Group 111225" transform="translate(0 0)">
            <g id="Group_111224" data-name="Group 111224">
              <g id="Group_111223" data-name="Group 111223">
                <rect id="Rectangle_36737" data-name="Rectangle 36737" width="6.221" height="6.221" transform="translate(6.221 6.221) rotate(180)" fill="#b8c1c9"/>
                <rect id="Rectangle_36738" data-name="Rectangle 36738" width="2.848" height="6.221" transform="translate(8.81 6.221) rotate(180)" fill="#698085"/>
              </g>
            </g>
          </g>
        </g>
        <g id="Group_111227" data-name="Group 111227" transform="translate(24.92 15.144)">
          <path id="Path_170094" data-name="Path 170094" d="M2254.944,1021.783a2.127,2.127,0,0,1,.714.108,1.359,1.359,0,0,1,.506.309,1.328,1.328,0,0,1,.312.484,2.167,2.167,0,0,1,.131.633,7.97,7.97,0,0,1,0,.823,2.17,2.17,0,0,1-.131.634,1.308,1.308,0,0,1-.806.792,2.038,2.038,0,0,1-.7.109h-1.4a.152.152,0,0,1-.151-.15v-3.59a.152.152,0,0,1,.151-.15Zm.912,1.534a1.134,1.134,0,0,0-.07-.33.758.758,0,0,0-.172-.267.792.792,0,0,0-.286-.177,1.176,1.176,0,0,0-.411-.064h-.745v2.5h.773a1.088,1.088,0,0,0,.395-.064.778.778,0,0,0,.278-.175.743.743,0,0,0,.17-.267,1.166,1.166,0,0,0,.07-.334A7.579,7.579,0,0,0,2255.855,1023.317Z" transform="translate(-2253.421 -1021.783)" fill="#fff"/>
          <path id="Path_170095" data-name="Path 170095" d="M2261.814,1024.979a.152.152,0,0,1,.15.15v.395a.152.152,0,0,1-.15.15h-2.44a.152.152,0,0,1-.15-.15v-3.59a.152.152,0,0,1,.15-.15h2.4a.144.144,0,0,1,.105.044.146.146,0,0,1,.044.106v.394a.146.146,0,0,1-.044.106.144.144,0,0,1-.105.044h-1.8v.883h1.673a.151.151,0,0,1,.15.15v.394a.152.152,0,0,1-.15.15h-1.673v.922Z" transform="translate(-2255.312 -1021.783)" fill="#fff"/>
          <path id="Path_170096" data-name="Path 170096" d="M2266.895,1024.979a.152.152,0,0,1,.15.15v.395a.152.152,0,0,1-.15.15h-2.434a.152.152,0,0,1-.15-.15v-3.59a.152.152,0,0,1,.15-.15h.451a.152.152,0,0,1,.15.15v3.046Z" transform="translate(-2256.968 -1021.783)" fill="#fff"/>
          <path id="Path_170097" data-name="Path 170097" d="M2269.307,1025.674a.152.152,0,0,1-.15-.15v-3.59a.152.152,0,0,1,.15-.15h.45a.151.151,0,0,1,.15.15v3.59a.151.151,0,0,1-.15.15Z" transform="translate(-2258.547 -1021.783)" fill="#fff"/>
          <path id="Path_170098" data-name="Path 170098" d="M2272.834,1024.573l.934-2.651a.3.3,0,0,1,.058-.092.159.159,0,0,1,.125-.047h.422a.146.146,0,0,1,.106.044.144.144,0,0,1,.044.106v.02a.132.132,0,0,1-.011.036l-1.245,3.5a.4.4,0,0,1-.078.142.175.175,0,0,1-.134.048h-.444a.174.174,0,0,1-.134-.048.391.391,0,0,1-.078-.142l-1.245-3.5a.129.129,0,0,1-.011-.036v-.02a.152.152,0,0,1,.15-.15h.423a.159.159,0,0,1,.125.047.316.316,0,0,1,.059.092Z" transform="translate(-2259.195 -1021.783)" fill="#fff"/>
          <path id="Path_170099" data-name="Path 170099" d="M2279.619,1024.979a.152.152,0,0,1,.15.15v.395a.152.152,0,0,1-.15.15h-2.44a.152.152,0,0,1-.151-.15v-3.59a.152.152,0,0,1,.151-.15h2.4a.153.153,0,0,1,.15.15v.394a.153.153,0,0,1-.15.15h-1.8v.883h1.673a.143.143,0,0,1,.106.044.145.145,0,0,1,.044.106v.394a.152.152,0,0,1-.15.15h-1.673v.922Z" transform="translate(-2261.111 -1021.783)" fill="#fff"/>
          <path id="Path_170100" data-name="Path 170100" d="M2283.7,1021.783a1.544,1.544,0,0,1,1.056.322,1.14,1.14,0,0,1,.361.9,1.24,1.24,0,0,1-.187.692,1.1,1.1,0,0,1-.547.425l.767,1.373a.131.131,0,0,1,.017.061.125.125,0,0,1-.123.123h-.472a.221.221,0,0,1-.164-.053.369.369,0,0,1-.076-.1l-.728-1.3h-.739v1.3a.151.151,0,0,1-.15.15h-.449a.152.152,0,0,1-.15-.15v-3.59a.152.152,0,0,1,.15-.15Zm-.834,1.751h.806a.989.989,0,0,0,.506-.111.448.448,0,0,0,.189-.422.435.435,0,0,0-.189-.417,1.036,1.036,0,0,0-.506-.105h-.806Z" transform="translate(-2262.769 -1021.783)" fill="#fff"/>
          <path id="Path_170101" data-name="Path 170101" d="M2290.238,1021.783a.152.152,0,0,1,.15.15.112.112,0,0,1-.012.05l-1.317,2.317v1.223a.152.152,0,0,1-.15.15h-.444a.152.152,0,0,1-.15-.15V1024.3l-1.317-2.317a.1.1,0,0,1-.011-.05.152.152,0,0,1,.15-.15h.417a.226.226,0,0,1,.167.056.322.322,0,0,1,.067.083l.9,1.573.9-1.573a.324.324,0,0,1,.067-.083.226.226,0,0,1,.167-.056Z" transform="translate(-2264.356 -1021.783)" fill="#fff"/>
        </g>
      </g>
      <path id="Path_170102" data-name="Path 170102" d="M2513.441,950.825a9.205,9.205,0,0,0-9.205,9.205c0,5.084,9.205,16.387,9.205,16.387s9.206-11.3,9.206-16.387A9.206,9.206,0,0,0,2513.441,950.825Zm0,13.415a4.3,4.3,0,1,1,4.3-4.3A4.3,4.3,0,0,1,2513.441,964.24Z" transform="translate(-2293.273 -881.694)" fill="#698085"/>
      <path id="Path_170103" data-name="Path 170103" d="M2199.1,982.751a7.763,7.763,0,0,0-7.763,7.763c0,4.287,7.763,13.819,7.763,13.819s7.763-9.532,7.763-13.819A7.763,7.763,0,0,0,2199.1,982.751Zm0,11.312a3.628,3.628,0,1,1,3.629-3.628A3.628,3.628,0,0,1,2199.1,994.063Z" transform="translate(-2191.342 -892.094)" fill="#00fbfe"/>
      <g id="Group_111233" data-name="Group 111233" transform="translate(45.439 46.648)">
        <g id="Group_111232" data-name="Group 111232" transform="translate(0)">
          <g id="Group_111231" data-name="Group 111231">
            <g id="Group_111229" data-name="Group 111229" transform="translate(16.539 44.507)">
              <path id="Path_170104" data-name="Path 170104" d="M2292.443,1062.692h-9.177a1.57,1.57,0,0,1,1.42-1.06c1.416-.23,3.87-1.052,4.417-2.863.017-.058.033-.118.046-.179.435-1.936,3.6.593,3.6.593s.01.078.023.21C2292.842,1060.1,2293.028,1062.366,2292.443,1062.692Z" transform="translate(-2283.266 -1007.717)" fill="#a0462d"/>
              <path id="Path_170105" data-name="Path 170105" d="M2285.93,987.836s.48,5.989,1.044,13.189c.767,9.779,1.689,21.792,1.78,24.068.158,3.952.791,10.273.791,10.273a4.969,4.969,0,0,0,4.5.869,103.442,103.442,0,0,0,3.441-18.571c.012-.156.024-.314.036-.472.712-9.719,1.817-30.185,1.817-30.185Z" transform="translate(-2284.134 -984.635)" fill="#365054"/>
              <path id="Path_170106" data-name="Path 170106" d="M2285.93,987.836s.48,5.989,1.044,13.189l10.515,16.639c.012-.156.024-.314.036-.472.712-9.719,1.817-30.185,1.817-30.185Z" transform="translate(-2284.134 -984.635)" fill="#13292d"/>
              <path id="Path_170107" data-name="Path 170107" d="M2289.181,987.4s8.653,21.69,14.342,31.884,7.468,13.038,7.468,13.038,3.259-1.3,3.556-2.193c0,0-2.176-19.679-5.986-24.476-2.153-2.71-4.682-10.845-4.8-13.69s-.77-8.475-.77-8.475Z" transform="translate(-2285.193 -983.49)" fill="#365054"/>
            </g>
            <path id="Path_170108" data-name="Path 170108" d="M2301.607,936.233s-5.854,2.869-9.23,1.8a7.993,7.993,0,0,1,2.285-1.856c-.117-.688-.208-1.285-.26-1.792a16.765,16.765,0,0,1-.143-1.83l2.259-1.8,2.142-1.727A8.813,8.813,0,0,0,2301.607,936.233Z" transform="translate(-2269.695 -921.242)" fill="#ff7955"/>
            <path id="Path_170109" data-name="Path 170109" d="M2302.357,969.675c.013.363-.753.779-1.09.935a23.621,23.621,0,0,1-7.49,2.155c-3.128.325-6.828-.389-8.1-.363a.524.524,0,0,1-.351-.143c-.091-.065-.156-3.894-.091-8.71,0-.195,0-.39.014-.584V962.9c.025-1.882.09-3.855.181-5.828a65.714,65.714,0,0,1,1.091-10.826,11.754,11.754,0,0,1,3.661-5.842l1.168-1.039a5.533,5.533,0,0,0,3.635-.441c1.35-.662,2.827-1.4,3.061-1.223,1.765,1.311,2.936,4.287,3.572,8.051a42.4,42.4,0,0,1,.532,7.139c0,.935-.026,1.9-.078,2.843a90.954,90.954,0,0,0,.182,12.189C2302.3,968.676,2302.343,969.26,2302.357,969.675Z" transform="translate(-2267.36 -924.057)" fill="#00fbfe"/>
            <path id="Path_170110" data-name="Path 170110" d="M2303.665,971.826c-28.364-.039-5.231-21.146-5.231-21.146l4.595-1.026a42.321,42.321,0,0,1,.533,7.139c0,.935-.026,1.9-.078,2.843A90.95,90.95,0,0,0,2303.665,971.826Z" transform="translate(-2268.772 -927.961)" fill="#26aab9"/>
            <g id="Group_111230" data-name="Group 111230" transform="translate(0 26.092)">
              <rect id="Rectangle_36739" data-name="Rectangle 36739" width="17.636" height="17.636" transform="translate(17.636 17.636) rotate(180)" fill="#b8c1c9"/>
              <rect id="Rectangle_36740" data-name="Rectangle 36740" width="8.074" height="17.636" transform="translate(24.975 17.636) rotate(180)" fill="#698085"/>
            </g>
            <path id="Path_170111" data-name="Path 170111" d="M2278.573,968.7l-1.05-.337a2.214,2.214,0,0,0-3.219-1.343s-1.008.535-.564,1.168.364.3.97,1.21a1.979,1.979,0,0,0,2.333,1l.872.025Z" transform="translate(-2263.587 -933.525)" fill="#ff7955"/>
            <path id="Path_170112" data-name="Path 170112" d="M2296.984,939.705a22.1,22.1,0,0,1-.419,22.02c-2.136,3.685-18.269.183-18.269.183s-.628-1.136,1.055-2.333c0,0,10.74-1.818,12.021-2.123,1.135-.271.378-10.709,1.676-13.738A7.632,7.632,0,0,1,2296.984,939.705Z" transform="translate(-2265.071 -924.72)" fill="#00fbfe"/>
            <path id="Path_170113" data-name="Path 170113" d="M2299.608,931.719a7.794,7.794,0,0,1-4.3,3.5,16.766,16.766,0,0,1-.143-1.83l2.259-1.8Z" transform="translate(-2270.605 -922.076)" fill="#ef6343"/>
            <path id="Path_170114" data-name="Path 170114" d="M2293.115,929.684s5.585.928,6.109-2.559,1.6-5.715-1.945-6.456-4.438.487-4.9,1.608S2291.676,929.353,2293.115,929.684Z" transform="translate(-2269.581 -918.445)" fill="#ff7955"/>
            <path id="Path_170115" data-name="Path 170115" d="M2298.672,926.4a5.781,5.781,0,0,0-5.2-5.421c-3.486-.513-3.2-3.038-2.8-3.5a39.322,39.322,0,0,1,7.213.72C2301.98,919.231,2299.276,925.7,2298.672,926.4Z" transform="translate(-2269.065 -917.479)" fill="#13292d"/>
          </g>
        </g>
        <path id="Path_170116" data-name="Path 170116" d="M2324.123,1053.583l-.271-.349-3.076,1.723c-.029.589-.044,1.268-.011,1.865a5.111,5.111,0,0,1-.074,1.208c-.064.3-.39,1.607-1.342,1.949-1.082.388-1.168,1.219.677,1.205l.963,0a2.565,2.565,0,0,0,2.449-1.895,4.368,4.368,0,0,1,.748-1.447,5.381,5.381,0,0,0,1.24-1.688C2325.743,1055.083,2324.123,1053.583,2324.123,1053.583Z" transform="translate(-2278.231 -961.704)" fill="#a0462d"/>
      </g>
      <g id="Group_111242" data-name="Group 111242" transform="translate(103.464 59.058)">
        <g id="Group_111234" data-name="Group 111234" transform="translate(12.138 46.069)">
          <path id="Path_170117" data-name="Path 170117" d="M2373.256,1015.455l.607-.494-8.13-10.625-2.934-.123Z" transform="translate(-2362.799 -1004.214)" fill="#26aab9"/>
        </g>
        <g id="Group_111235" data-name="Group 111235" transform="translate(24.566 46.069)">
          <path id="Path_170118" data-name="Path 170118" d="M2389.883,1015.455l.5-.494-6.726-10.625-2.428-.123Z" transform="translate(-2381.231 -1004.214)" fill="#26aab9"/>
        </g>
        <g id="Group_111239" data-name="Group 111239" transform="translate(0 23.807)">
          <path id="Path_170119" data-name="Path 170119" d="M2464.246,978.053a3.566,3.566,0,1,0-3.564,3.651A3.608,3.608,0,0,0,2464.246,978.053Z" transform="translate(-2381.387 -972.24)" fill="#00fbfe"/>
          <path id="Path_170120" data-name="Path 170120" d="M2400.613,1050.463h36.251a.721.721,0,0,0,.716-.722v-3.426a.721.721,0,0,0-.716-.722h-32.022a.721.721,0,0,0-.716.722Z" transform="translate(-2362.979 -995.432)" fill="#00fbfe"/>
          <path id="Path_170121" data-name="Path 170121" d="M2389.67,1043.6a10.833,10.833,0,1,0-10.833,10.833A10.834,10.834,0,0,0,2389.67,1043.6Z" transform="translate(-2352.356 -991.253)" fill="#13292d"/>
          <path id="Path_170122" data-name="Path 170122" d="M2386.925,1046.168a5.523,5.523,0,1,0-5.522,5.523A5.523,5.523,0,0,0,2386.925,1046.168Z" transform="translate(-2354.922 -993.819)" fill="#698085"/>
          <g id="Group_111236" data-name="Group 111236" transform="translate(70.971 36.307)">
            <path id="Path_170123" data-name="Path 170123" d="M2461.254,1025.793a16.041,16.041,0,0,1,20.706,12.895,2.091,2.091,0,0,1-2.07,2.4h-.071a1.332,1.332,0,0,1-1.322-1.211,12.457,12.457,0,0,0-24.856,1.211h-3.583A16.066,16.066,0,0,1,2461.254,1025.793Z" transform="translate(-2450.058 -1025.044)" fill="#00fbfe"/>
          </g>
          <g id="Group_111237" data-name="Group 111237" transform="translate(65.543 11.435)">
            <path id="Path_170124" data-name="Path 170124" d="M2442.007,1026.882l5.428,2.186c3.759-7.31,7.6-10.9,10.882-12.666,5.906-3.184,10.018-.487,8.633-2.995l-10.132-21.379a9.306,9.306,0,0,0-8.416-3.834,3.027,3.027,0,0,0-2.582,3.971,36.924,36.924,0,0,1,1.837,11.74A53.455,53.455,0,0,1,2442.007,1026.882Z" transform="translate(-2442.007 -988.155)" fill="#00fbfe"/>
          </g>
          <path id="Path_170125" data-name="Path 170125" d="M2449.308,985.787l4.089-1.562c.556,0,1.617.5,1.617-.054l-.606-9.985a1.014,1.014,0,0,0-1.011-1.011h-2.635c-.557,0-2.787,1.067-2.63,3.064l-.7,10.066C2447.43,986.861,2448.751,985.787,2449.308,985.787Z" transform="translate(-2378.231 -971.84)" fill="#00fbfe"/>
          <rect id="Rectangle_36741" data-name="Rectangle 36741" width="30.098" height="3.85" rx="1.925" transform="translate(30.098 22.757) rotate(180)" fill="#26aab9"/>
          <circle id="Ellipse_5086" data-name="Ellipse 5086" cx="10.834" cy="10.834" r="10.834" transform="translate(76.177 41.514)" fill="#13292d"/>
          <path id="Path_170126" data-name="Path 170126" d="M2465.658,1046.168a5.5,5.5,0,0,0,.636,2.575c.027.051.054.1.083.148a5.522,5.522,0,1,0,6.925-7.821c-.02-.01-.042-.018-.063-.026a5.523,5.523,0,0,0-7.581,5.124Z" transform="translate(-2384.169 -993.82)" fill="#698085"/>
          <path id="Path_170127" data-name="Path 170127" d="M2406.992,1015.141s-2.8,11.092,6.638,21.32l-23.2-1.684,2.955-22.389Z" transform="translate(-2359.661 -984.614)" fill="#00fbfe"/>
          <path id="Path_170128" data-name="Path 170128" d="M2351.68,1039.362a1.438,1.438,0,0,0,1.433,1.433h34.754a1.438,1.438,0,0,0,1.433-1.433l-.461-22.731-11.7-.717C2361.547,1015.914,2351.68,1023.772,2351.68,1039.362Z" transform="translate(-2347.039 -985.763)" fill="#00fbfe"/>
          <path id="Path_170129" data-name="Path 170129" d="M2457.116,976.8a5.6,5.6,0,0,0,5.607,5.606V971.195A5.606,5.606,0,0,0,2457.116,976.8Z" transform="translate(-2381.387 -971.195)" fill="#26aab9"/>
          <g id="Group_111238" data-name="Group 111238" transform="translate(66.493 3.413)">
            <path id="Path_170130" data-name="Path 170130" d="M2443.8,979.207c.021,0,.254-.046.276-.05l6.167-1.711a.6.6,0,0,0,.378-.678c-.036-.326-.263-.552-.509-.5l-6.182,1.207c-.245.048-.439.42-.5.74C2443.342,978.749,2443.586,979.207,2443.8,979.207Z" transform="translate(-2443.417 -976.258)" fill="#13292d"/>
          </g>
          <path id="Path_170131" data-name="Path 170131" d="M2463.68,1017.268q-.084.518-.161,1l.047-.022a12.455,12.455,0,0,1,17.74,10.043,1.332,1.332,0,0,0,1.322,1.211h.071a2.091,2.091,0,0,0,2.07-2.4,16.081,16.081,0,0,0-12.323-13.248l-.065-.016-10.132-21.379a9.284,9.284,0,0,0-3.569-2.977,42.338,42.338,0,0,1,5.383,24.725q-.116,1.29-.314,2.626C2463.725,1016.978,2463.7,1017.123,2463.68,1017.268Z" transform="translate(-2381.896 -977.153)" fill="#00fbfe"/>
          <rect id="Rectangle_36742" data-name="Rectangle 36742" width="24.34" height="5.508" rx="1.58" transform="translate(24.057 25.02)" fill="#a0462d"/>
          <path id="Path_170132" data-name="Path 170132" d="M2355.764,1044.243H2389.2s2.04-12.38-5.485-16.56a11.245,11.245,0,0,0-6.569-1.111C2369.326,1027.338,2359.482,1033.962,2355.764,1044.243Z" transform="translate(-2348.37 -989.211)" fill="#26aab9"/>
          <path id="Path_170133" data-name="Path 170133" d="M2457.256,981.038a5.607,5.607,0,0,0,5.512,4.575v-3.128C2461.121,982.55,2458.748,982.371,2457.256,981.038Z" transform="translate(-2381.433 -974.401)" fill="#26aab9"/>
          <path id="Path_170134" data-name="Path 170134" d="M2463.68,1017.268q-.084.518-.161,1l.047-.022c2-1.85,6.228-3.489,8.879-4.392l-.065-.016-10.132-21.379a9.284,9.284,0,0,0-3.569-2.977,42.338,42.338,0,0,1,5.383,24.725q-.116,1.29-.314,2.626C2463.725,1016.978,2463.7,1017.123,2463.68,1017.268Z" transform="translate(-2381.896 -977.153)" fill="#26aab9"/>
        </g>
        <g id="Group_111240" data-name="Group 111240" transform="translate(1.899 28.442)">
          <rect id="Rectangle_36743" data-name="Rectangle 36743" width="17.309" height="14.272" transform="translate(8.654)" fill="#a0462d"/>
          <rect id="Rectangle_36744" data-name="Rectangle 36744" width="17.308" height="14.272" transform="translate(0 0)" fill="#b05638"/>
          <path id="Path_170135" data-name="Path 170135" d="M2384.78,993.229h-2.743l.242-.772-.242-.551h2.743Z" transform="translate(-2358.827 -982.576)" fill="#365054"/>
          <path id="Path_170136" data-name="Path 170136" d="M2347.613,982.178h2.743l-.241-.772.241-.551h-2.743Z" transform="translate(-2347.613 -978.976)" fill="#13292d"/>
          <path id="Path_170137" data-name="Path 170137" d="M2347.613,995.192h2.743l-.241-.772.241-.551h-2.743Z" transform="translate(-2347.613 -983.216)" fill="#13292d"/>
        </g>
        <g id="Group_111241" data-name="Group 111241" transform="translate(33.719)">
          <path id="Path_170138" data-name="Path 170138" d="M2408.043,955.477c-2.992,1.215-8.462-1.383-8.462-1.383a7.674,7.674,0,0,0,2.162-4.652c.018-.154.031-.31.041-.47l1.547-.55,2.65,1.8a20.4,20.4,0,0,1-.031,2.441q-.023.407-.065.873A5.369,5.369,0,0,1,2408.043,955.477Z" transform="translate(-2396.363 -939.969)" fill="#ff7955"/>
          <path id="Path_170139" data-name="Path 170139" d="M2407.025,950.227a20.527,20.527,0,0,1-.031,2.441,6.334,6.334,0,0,1-4.207-3.226c.018-.154.031-.31.04-.47l1.547-.55Z" transform="translate(-2397.407 -939.969)" fill="#ef6343"/>
          <path id="Path_170140" data-name="Path 170140" d="M2407.381,948.768s-5.154-.168-5-3.375-.408-5.391,2.889-5.419,3.877,1.226,4.086,2.31S2408.725,948.729,2407.381,948.768Z" transform="translate(-2397.274 -937.217)" fill="#ff7955"/>
          <path id="Path_170141" data-name="Path 170141" d="M2401.928,945.7a2.407,2.407,0,0,1,.379-1.771s-.375-1.046.028-1.281.612.659.789.491a4.4,4.4,0,0,0,1.2-2c.24-1.044,3.813-.3,4.235-.169s-2.37-5.086-5.386-3.851-3.243,2.782-2.895,4.037S2400.591,945.439,2401.928,945.7Z" transform="translate(-2396.549 -936.223)" fill="#13292d"/>
          <path id="Path_170142" data-name="Path 170142" d="M2395.476,994.574s.357,6.3,1.79,8.089,28.9,1.1,28.9,1.1.12-4.037-.955-5.074-6.092-4.019-22.109-5.709Z" transform="translate(-2395.025 -954.483)" fill="#13292d"/>
          <path id="Path_170143" data-name="Path 170143" d="M2394.892,968.738c.448,5.407-.142,13.632.367,15.057.438,1.229,5.435.5,7.428.088.738-.153,1.633-.369,2.556-.626,2.576-.716,5.382-1.738,5.683-2.5a.479.479,0,0,0,.028-.087.616.616,0,0,0,0-.318c-.074-.287-.306-.59-.44-1.117a3.25,3.25,0,0,1-.093-.647c-.046-.979-.044-2.118-.078-3.343,0-.113-.007-.226-.01-.339,0-.153,0-.319-.023-.471l0-.057c0-.028,0-.057,0-.086-.043-1.511-.132-3.1-.233-4.674-.032-.491-.067-.98-.105-1.462-.011-.171-.026-.34-.039-.509-.026-.315-.053-.628-.082-.936a35.225,35.225,0,0,0-.927-5.939,9.528,9.528,0,0,0-3.412-4.728l-.951-.732a6.077,6.077,0,0,1-3.45-.412c-1.227-.524-1.651-.9-1.865-.757C2396.4,956.109,2394.362,962.127,2394.892,968.738Z" transform="translate(-2394.808 -941.824)" fill="#00fbfe"/>
          <path id="Path_170144" data-name="Path 170144" d="M2426.343,1039.079s.243,3.919,1,3.975c.1.007,3.845.007,3.845.007l4.78-.028a1.55,1.55,0,0,0-1.428-1.395c-1.4-.244-3.736-1.225-4.582-3.072C2429.068,1036.623,2426.343,1039.079,2426.343,1039.079Z" transform="translate(-2405.081 -969.092)" fill="#a0462d"/>
          <path id="Path_170145" data-name="Path 170145" d="M2424.854,1028.587a5.266,5.266,0,0,0,2.807.8,7.569,7.569,0,0,0,1.319-.052,6.252,6.252,0,0,0,1.687-.431l5.071-21.285s-5.494-4.8-8.36-1.815a5.045,5.045,0,0,0-.966,1.944C2424.594,1013.617,2424.854,1028.587,2424.854,1028.587Z" transform="translate(-2404.592 -958.344)" fill="#13292d"/>
          <path id="Path_170146" data-name="Path 170146" d="M2406.794,969.7s3.558,13.023,7.619,14.61a3.271,3.271,0,0,1-.093-.647c-.047-.979-.044-2.118-.078-3.343,0-.113-.007-.226-.01-.339,0-.153,0-.319-.023-.471v-.057c0-.028,0-.057,0-.086-.043-1.511-.132-3.1-.234-4.674-.032-.491-.066-.98-.1-1.462C2412.079,971.071,2409.653,969.519,2406.794,969.7Z" transform="translate(-2398.712 -946.896)" fill="#26aab9"/>
          <path id="Path_170147" data-name="Path 170147" d="M2438.341,976.651a10.36,10.36,0,0,0,1.947,0c.4-.12,2.27-1.234,2.947-1s2.389,1.991,1.951,2.787a2.249,2.249,0,0,1-1.533-.737c-.737-.756-1.533-.239-1.453-.139s1.234.558,1.035.756a3.388,3.388,0,0,1-2.071-.079,12.345,12.345,0,0,0-3.026.059Z" transform="translate(-2408.924 -948.83)" fill="#ff7955"/>
          <path id="Path_170148" data-name="Path 170148" d="M2405.2,959.5s9.633,8.211,12.168,9,11.494,2.533,11.494,2.533.247,2.12-.593,2.917c0,0-11.51-.667-12.943-.97s-12.113-5.838-12.985-6.256S2401.6,958.823,2405.2,959.5Z" transform="translate(-2397.115 -943.564)" fill="#00fbfe"/>
          <path id="Path_170149" data-name="Path 170149" d="M2399.206,941.023v.049a.34.34,0,0,0,.15.3.2.2,0,0,0,.094.026h12.212c.135,0,.245-.147.245-.326v-.049c0-.179-.11-.326-.245-.326l-2.727-.35a5.07,5.07,0,0,0-3.379-4.249h0a4.447,4.447,0,0,0-1.367-.214,4.948,4.948,0,0,0-4.773,4.709l-.007.092-.052.038A.34.34,0,0,0,2399.206,941.023Z" transform="translate(-2396.24 -935.885)" fill="#00fbfe"/>
          <path id="Path_170150" data-name="Path 170150" d="M2403.434,940.594c-.91-4.816,2.12-4.507,2.222-4.5a4.448,4.448,0,0,0-1.367-.214,4.948,4.948,0,0,0-4.773,4.709Z" transform="translate(-2396.341 -935.885)" fill="#26aab9"/>
        </g>
      </g>
      <g id="Group_111243" data-name="Group 111243" transform="translate(115.85)">
        <path id="Path_170151" data-name="Path 170151" d="M2363.574,864.713a.407.407,0,0,1-.21-.757c.008-.005.218-.13.617-.353a.407.407,0,1,1,.4.711c-.386.216-.592.339-.594.34A.407.407,0,0,1,2363.574,864.713Z" transform="translate(-2363.167 -853.263)" fill="#365054"/>
        <path id="Path_170152" data-name="Path 170152" d="M2469.29,910.715h0a.407.407,0,0,1-.405-.41c0-.085,0-.172,0-.261,0-.372,0-.754-.013-1.137a.407.407,0,0,1,.815-.018c.009.389.013.777.014,1.155,0,.091,0,.18,0,.266A.407.407,0,0,1,2469.29,910.715Zm-.063-2.82a.407.407,0,0,1-.406-.388c-.022-.462-.051-.932-.084-1.4a.407.407,0,0,1,.813-.059c.034.473.063.951.085,1.418a.407.407,0,0,1-.387.427Zm-.2-2.814a.407.407,0,0,1-.406-.369c-.044-.462-.094-.93-.148-1.394a.407.407,0,0,1,.809-.1c.055.469.106.944.151,1.411a.408.408,0,0,1-.367.444Zm-.331-2.8a.407.407,0,0,1-.4-.35c-.065-.461-.135-.927-.209-1.386a.407.407,0,1,1,.8-.13c.075.464.146.936.212,1.4a.407.407,0,0,1-.346.46A.339.339,0,0,1,2468.694,902.279Zm-.452-2.782a.407.407,0,0,1-.4-.334c-.084-.456-.175-.918-.269-1.375a.407.407,0,0,1,.8-.165c.1.462.187.93.273,1.392a.411.411,0,0,1-.4.481Zm-.572-2.76a.407.407,0,0,1-.4-.316c-.1-.454-.215-.912-.329-1.362a.408.408,0,0,1,.791-.2c.115.456.227.92.332,1.379a.407.407,0,0,1-.305.488A.43.43,0,0,1,2467.67,896.736Zm-.691-2.733a.408.408,0,0,1-.393-.3c-.124-.449-.254-.9-.388-1.345a.408.408,0,0,1,.781-.235c.135.449.267.908.393,1.363a.407.407,0,0,1-.284.5A.4.4,0,0,1,2466.979,894Zm-.811-2.7a.408.408,0,0,1-.387-.281c-.144-.442-.294-.888-.448-1.327a.407.407,0,1,1,.769-.269c.156.444.308.9.454,1.344a.407.407,0,0,1-.261.513A.394.394,0,0,1,2466.168,891.3Zm-.931-2.66a.408.408,0,0,1-.382-.264c-.163-.435-.333-.874-.507-1.3a.407.407,0,1,1,.755-.3c.175.437.349.881.514,1.322a.407.407,0,0,1-.238.525A.412.412,0,0,1,2465.237,888.644Zm-1.052-2.614a.407.407,0,0,1-.375-.247c-.184-.429-.375-.859-.568-1.279a.407.407,0,0,1,.741-.339c.195.425.388.862.575,1.3a.407.407,0,0,1-.374.568Zm-1.173-2.561a.408.408,0,0,1-.367-.229c-.2-.417-.413-.838-.627-1.251a.408.408,0,0,1,.724-.374c.216.419.43.845.636,1.268a.408.408,0,0,1-.366.586Zm-1.292-2.5a.407.407,0,0,1-.358-.212c-.224-.409-.454-.818-.686-1.219a.407.407,0,1,1,.7-.408c.235.406.469.821.7,1.236a.407.407,0,0,1-.356.6Zm-1.412-2.438a.406.406,0,0,1-.348-.194c-.242-.4-.492-.793-.745-1.184a.408.408,0,0,1,.685-.442c.256.4.51.8.755,1.2a.407.407,0,0,1-.347.62Zm-1.529-2.365a.408.408,0,0,1-.337-.178c-.262-.384-.532-.77-.8-1.146a.407.407,0,1,1,.662-.475c.273.381.548.772.813,1.162a.407.407,0,0,1-.336.637Zm-1.644-2.288a.4.4,0,0,1-.325-.161c-.279-.369-.568-.741-.858-1.1a.407.407,0,1,1,.637-.507c.294.369.586.746.87,1.121a.407.407,0,0,1-.324.653Zm-1.754-2.2a.407.407,0,0,1-.313-.146c-.3-.355-.6-.711-.911-1.06a.408.408,0,0,1,.612-.539c.312.355.623.717.924,1.076a.407.407,0,0,1-.312.669Zm-1.861-2.114a.406.406,0,0,1-.3-.131c-.314-.34-.638-.681-.962-1.015a.407.407,0,0,1,.585-.568c.329.338.657.685.976,1.029a.407.407,0,0,1-.3.684Zm-1.962-2.02a.41.41,0,0,1-.286-.117c-.33-.324-.669-.649-1.01-.968a.407.407,0,0,1,.557-.595c.345.322.689.652,1.024.98a.408.408,0,0,1-.285.7Zm-2.058-1.924a.406.406,0,0,1-.271-.1c-.346-.31-.7-.618-1.055-.918a.407.407,0,0,1,.528-.621c.358.3.717.617,1.069.93a.407.407,0,0,1-.271.711Zm-2.146-1.823a.406.406,0,0,1-.256-.09c-.36-.291-.729-.583-1.1-.868a.407.407,0,0,1,.5-.645c.375.289.749.585,1.112.88a.407.407,0,0,1-.256.724Zm-2.229-1.721a.409.409,0,0,1-.242-.079c-.373-.275-.755-.55-1.135-.817a.407.407,0,0,1,.469-.667c.385.27.772.549,1.15.828a.407.407,0,0,1-.242.735Zm-2.3-1.619a.407.407,0,0,1-.227-.069c-.385-.258-.778-.517-1.17-.767a.407.407,0,0,1,.438-.686c.4.253.8.514,1.186.776a.407.407,0,0,1-.227.746Zm-2.373-1.516a.411.411,0,0,1-.212-.059c-.4-.242-.8-.483-1.2-.716a.408.408,0,0,1,.41-.7c.406.236.815.48,1.217.725a.408.408,0,0,1-.212.755Zm-74.138-.206a.407.407,0,0,1-.189-.769c.406-.213.832-.429,1.265-.643a.407.407,0,1,1,.361.729c-.427.212-.847.425-1.249.635A.411.411,0,0,1,2366.311,858.728Zm71.7-1.209a.411.411,0,0,1-.2-.051c-.408-.227-.823-.45-1.231-.666a.407.407,0,1,1,.379-.721c.414.218.833.445,1.247.674a.408.408,0,0,1-.2.764Zm-69.177-.044a.407.407,0,0,1-.174-.775c.422-.2.855-.4,1.287-.594a.408.408,0,1,1,.335.743c-.428.193-.856.39-1.274.587A.41.41,0,0,1,2368.837,857.475Zm2.57-1.159a.407.407,0,0,1-.161-.781c.431-.186.87-.371,1.3-.55a.407.407,0,1,1,.31.753c-.431.177-.865.361-1.292.545A.4.4,0,0,1,2371.407,856.316Zm64.115-.112a.4.4,0,0,1-.182-.043c-.417-.209-.841-.416-1.258-.614a.407.407,0,1,1,.35-.735c.423.2.851.41,1.273.622a.407.407,0,0,1-.183.771Zm-61.508-.963a.407.407,0,0,1-.15-.786c.44-.173.884-.344,1.322-.509a.407.407,0,1,1,.287.763c-.434.162-.874.332-1.309.5A.418.418,0,0,1,2374.014,855.241Zm58.964-.247a.409.409,0,0,1-.167-.036c-.424-.191-.855-.38-1.282-.561a.407.407,0,0,1,.318-.75c.432.183.869.375,1.3.568a.407.407,0,0,1-.168.779Zm-56.327-.746a.408.408,0,0,1-.137-.791c.445-.16.895-.317,1.336-.468a.407.407,0,0,1,.263.771c-.437.149-.882.3-1.324.463A.409.409,0,0,1,2376.652,854.249Zm53.734-.355a.4.4,0,0,1-.151-.029c-.432-.173-.871-.343-1.306-.506a.407.407,0,1,1,.287-.763c.44.165.885.337,1.322.512a.408.408,0,0,1-.152.786Zm-51.067-.556a.407.407,0,0,1-.125-.795c.448-.145.9-.289,1.35-.426a.407.407,0,0,1,.239.779c-.444.136-.894.278-1.337.423A.41.41,0,0,1,2379.319,853.337Zm48.43-.434a.4.4,0,0,1-.135-.023c-.442-.155-.888-.306-1.325-.45a.407.407,0,0,1,.253-.774c.443.145.895.3,1.342.455a.408.408,0,0,1-.135.792Zm-45.737-.394a.407.407,0,0,1-.113-.8c.453-.132.912-.262,1.362-.385a.407.407,0,0,1,.215.785c-.446.123-.9.251-1.35.382A.416.416,0,0,1,2382.012,852.508Zm43.06-.483a.4.4,0,0,1-.119-.018c-.443-.135-.895-.267-1.344-.393a.407.407,0,1,1,.221-.784c.454.128.912.262,1.36.4a.407.407,0,0,1-.119.8Zm-40.342-.262a.407.407,0,0,1-.1-.8c.454-.117.916-.232,1.374-.342a.407.407,0,1,1,.191.792c-.454.109-.912.223-1.361.339A.41.41,0,0,1,2384.73,851.763Zm37.63-.5a.417.417,0,0,1-.1-.013c-.452-.117-.909-.23-1.359-.336a.407.407,0,1,1,.187-.793c.455.107.918.222,1.375.34a.407.407,0,0,1-.1.8Zm-34.89-.16a.407.407,0,0,1-.089-.8c.463-.1.928-.2,1.385-.3a.407.407,0,0,1,.165.8c-.452.093-.913.193-1.371.3A.4.4,0,0,1,2387.47,851.1Zm32.148-.486a.356.356,0,0,1-.085-.009c-.453-.1-.915-.189-1.373-.278a.407.407,0,1,1,.154-.8c.463.089.931.183,1.389.281a.407.407,0,0,1-.085.806Zm-29.389-.084a.407.407,0,0,1-.075-.807c.465-.088.933-.173,1.394-.253a.407.407,0,1,1,.138.8c-.456.078-.92.162-1.38.25A.425.425,0,0,1,2390.229,850.534Zm26.623-.446a.4.4,0,0,1-.069-.006c-.46-.078-.925-.152-1.383-.221a.407.407,0,1,1,.12-.806c.463.069.934.144,1.4.223a.407.407,0,0,1-.067.809Zm-23.845-.034a.407.407,0,0,1-.062-.81c.466-.073.938-.142,1.4-.206a.407.407,0,1,1,.111.807c-.458.063-.924.132-1.387.2A.382.382,0,0,1,2393.007,850.054Zm21.059-.381a.461.461,0,0,1-.052,0c-.459-.059-.927-.114-1.391-.163a.408.408,0,0,1,.087-.81c.469.051.942.106,1.407.165a.408.408,0,0,1-.051.812Zm-18.268,0a.407.407,0,0,1-.048-.812c.47-.057.944-.11,1.408-.157a.407.407,0,0,1,.083.81c-.459.047-.928.1-1.393.155A.4.4,0,0,1,2395.8,849.669Zm2.8-.288a.407.407,0,0,1-.035-.813c.474-.04.95-.076,1.413-.107a.407.407,0,0,1,.054.813c-.459.03-.928.066-1.4.106Zm12.663-.009h-.035c-.461-.04-.931-.076-1.4-.107a.407.407,0,1,1,.054-.812c.471.031.946.068,1.413.108a.407.407,0,0,1-.035.813Zm-9.851-.179a.407.407,0,0,1-.02-.814c.473-.023.949-.042,1.416-.055a.407.407,0,0,1,.024.814c-.461.013-.933.032-1.4.055Zm7.041-.008h-.02c-.464-.021-.935-.039-1.4-.052a.407.407,0,0,1,.022-.814c.47.013.947.03,1.416.053a.407.407,0,0,1-.019.814Zm-4.225-.076a.407.407,0,0,1,0-.814q.7-.007,1.417,0a.407.407,0,0,1,0,.814h0q-.7-.006-1.4,0Z" transform="translate(-2364.058 -848.291)" fill="#365054"/>
        <path id="Path_170153" data-name="Path 170153" d="M2518.942,943.244h-.035a.408.408,0,0,1-.372-.441s.02-.241.039-.679a.408.408,0,0,1,.814.034c-.02.458-.041.7-.041.714A.408.408,0,0,1,2518.942,943.244Z" transform="translate(-2413.78 -878.732)" fill="#365054"/>
      </g>
      <g id="Group_111244" data-name="Group 111244" transform="translate(7.029 40.96)">
        <path id="Path_170154" data-name="Path 170154" d="M2291.93,910.57l-.038,0-.552-.063a.325.325,0,1,1,.072-.645l.555.063a.324.324,0,0,1-.037.646Z" transform="translate(-2230.853 -909.308)" fill="#365054"/>
        <path id="Path_170155" data-name="Path 170155" d="M2202.348,952.314a.31.31,0,0,1-.042,0,.324.324,0,0,1-.28-.363c.047-.362.1-.738.16-1.116a.325.325,0,1,1,.642.1c-.059.373-.111.744-.158,1.1A.325.325,0,0,1,2202.348,952.314Zm.344-2.211a.336.336,0,0,1-.058,0,.325.325,0,0,1-.261-.377c.065-.365.136-.736.21-1.1a.325.325,0,0,1,.637.128c-.074.364-.144.731-.208,1.092A.324.324,0,0,1,2202.692,950.1Zm.441-2.191a.316.316,0,0,1-.071-.008.324.324,0,0,1-.246-.388c.08-.361.166-.729.255-1.094a.325.325,0,1,1,.631.154c-.088.36-.173.724-.252,1.082A.325.325,0,0,1,2203.133,947.912Zm.529-2.17a.32.32,0,0,1-.083-.011.325.325,0,0,1-.231-.4c.1-.36.2-.724.3-1.082a.325.325,0,0,1,.624.178c-.1.355-.2.715-.295,1.071A.324.324,0,0,1,2203.661,945.742Zm.614-2.147a.334.334,0,0,1-.1-.014.324.324,0,0,1-.215-.406c.109-.356.223-.716.34-1.069a.324.324,0,0,1,.616.2c-.115.349-.228.705-.336,1.058A.325.325,0,0,1,2204.275,943.595Zm.7-2.12a.314.314,0,0,1-.107-.018.325.325,0,0,1-.2-.414c.124-.351.252-.707.382-1.055a.325.325,0,0,1,.608.227c-.129.344-.256.7-.378,1.043A.325.325,0,0,1,2204.971,941.475Zm.781-2.09a.325.325,0,0,1-.3-.444c.138-.347.281-.7.425-1.039a.324.324,0,0,1,.6.252c-.143.339-.284.684-.42,1.027A.325.325,0,0,1,2205.752,939.384Zm.865-2.056a.325.325,0,0,1-.3-.457c.152-.341.309-.684.467-1.02a.324.324,0,1,1,.587.276c-.156.332-.311.671-.461,1.008A.325.325,0,0,1,2206.617,937.328Zm.951-2.019a.324.324,0,0,1-.291-.469c.167-.335.339-.672.511-1a.325.325,0,1,1,.575.3c-.17.324-.34.655-.5.986A.324.324,0,0,1,2207.568,935.309Zm1.036-1.975a.317.317,0,0,1-.156-.04.325.325,0,0,1-.127-.442c.182-.328.368-.656.555-.976a.325.325,0,0,1,.561.327c-.184.315-.369.64-.547.963A.325.325,0,0,1,2208.6,933.335Zm1.124-1.926a.324.324,0,0,1-.276-.495c.2-.319.4-.638.6-.949a.325.325,0,1,1,.545.353c-.2.307-.4.622-.591.937A.325.325,0,0,1,2209.728,931.408Zm1.211-1.872a.325.325,0,0,1-.268-.508c.211-.31.427-.62.642-.92a.325.325,0,0,1,.528.378c-.212.3-.426.6-.634.908A.325.325,0,0,1,2210.939,929.536Zm1.3-1.812a.324.324,0,0,1-.259-.52c.224-.3.455-.6.687-.888a.325.325,0,0,1,.509.4c-.229.288-.457.582-.678.876A.322.322,0,0,1,2212.239,927.724Zm1.385-1.746a.321.321,0,0,1-.208-.076.325.325,0,0,1-.041-.457c.238-.285.484-.572.73-.852a.325.325,0,0,1,.488.428c-.244.276-.486.559-.72.841A.324.324,0,0,1,2213.624,925.977Zm1.472-1.674a.324.324,0,0,1-.238-.545c.253-.274.514-.548.773-.814a.325.325,0,1,1,.465.453c-.255.262-.511.532-.761.8A.326.326,0,0,1,2215.1,924.3Zm1.555-1.6a.325.325,0,0,1-.226-.558c.268-.261.542-.52.814-.773a.324.324,0,0,1,.441.476c-.269.249-.538.5-.8.762A.324.324,0,0,1,2216.651,922.707Zm1.636-1.514a.324.324,0,0,1-.214-.568c.28-.245.567-.49.854-.73a.325.325,0,0,1,.415.5c-.283.235-.565.477-.841.718A.322.322,0,0,1,2218.288,921.194Zm1.713-1.425a.325.325,0,0,1-.2-.58c.293-.231.593-.461.892-.683a.324.324,0,1,1,.387.521c-.293.219-.588.446-.877.673A.324.324,0,0,1,2220,919.769Zm1.786-1.332a.325.325,0,0,1-.187-.59c.3-.215.616-.429.926-.635a.324.324,0,1,1,.36.54c-.3.2-.611.413-.912.626A.324.324,0,0,1,2221.787,918.437Zm1.854-1.237a.325.325,0,0,1-.173-.6c.312-.2.635-.394.958-.587a.325.325,0,1,1,.332.558c-.318.19-.635.384-.943.577A.321.321,0,0,1,2223.64,917.2Zm1.915-1.139a.325.325,0,0,1-.159-.608c.324-.181.656-.361.986-.536a.325.325,0,0,1,.3.574c-.325.171-.652.349-.972.528A.319.319,0,0,1,2225.555,916.061Zm1.971-1.04a.324.324,0,0,1-.144-.615c.331-.165.671-.328,1.011-.486a.325.325,0,1,1,.274.589c-.335.156-.67.317-1,.479A.326.326,0,0,1,2227.526,915.022Zm2.02-.939a.325.325,0,0,1-.13-.622c.342-.149.69-.3,1.034-.436a.324.324,0,1,1,.245.6c-.34.139-.683.283-1.02.43A.328.328,0,0,1,2229.546,914.083Zm2.063-.841a.324.324,0,0,1-.115-.628c.345-.131.7-.262,1.052-.386a.325.325,0,1,1,.216.612c-.348.123-.7.251-1.038.381A.331.331,0,0,1,2231.609,913.242Zm2.1-.743a.325.325,0,0,1-.1-.633c.355-.117.714-.23,1.068-.338a.325.325,0,1,1,.189.621c-.35.107-.7.218-1.055.334A.335.335,0,0,1,2233.709,912.5Zm2.131-.647a.325.325,0,0,1-.087-.638c.357-.1.721-.2,1.083-.291a.325.325,0,0,1,.162.629c-.357.092-.717.188-1.069.287A.328.328,0,0,1,2235.84,911.852ZM2238,911.3a.325.325,0,0,1-.074-.64c.361-.085.729-.168,1.094-.245a.324.324,0,0,1,.136.635c-.361.078-.724.159-1.081.243A.314.314,0,0,1,2238,911.3Zm2.178-.466a.325.325,0,0,1-.061-.644c.364-.07.735-.138,1.1-.2a.325.325,0,0,1,.111.64c-.364.063-.73.129-1.09.2A.329.329,0,0,1,2240.177,910.83Zm2.2-.381a.325.325,0,0,1-.049-.645c.366-.057.739-.111,1.108-.16a.325.325,0,1,1,.087.643c-.365.05-.734.1-1.1.158A.312.312,0,0,1,2242.372,910.449Zm2.208-.3a.325.325,0,0,1-.037-.647c.368-.043.742-.084,1.114-.121a.325.325,0,0,1,.065.646c-.368.037-.739.077-1.1.12Zm16.687-.025h-.032c-.371-.036-.744-.071-1.106-.1a.325.325,0,0,1,.056-.647c.365.032.74.067,1.114.1a.324.324,0,0,1-.031.647Zm-2.221-.193h-.025c-.365-.027-.738-.053-1.107-.076a.325.325,0,1,1,.04-.648c.373.024.748.049,1.116.077a.325.325,0,0,1-.023.649Zm-12.248,0a.325.325,0,0,1-.026-.648c.367-.03.743-.059,1.116-.083a.324.324,0,1,1,.043.647c-.37.024-.741.053-1.105.082Zm10.022-.135h-.016c-.369-.018-.742-.034-1.11-.048a.325.325,0,0,1,.023-.649c.371.013.747.03,1.119.048a.325.325,0,0,1-.016.649Zm-7.8-.011a.325.325,0,0,1-.016-.649c.372-.018.748-.034,1.118-.047a.325.325,0,1,1,.022.649c-.366.013-.739.029-1.108.047Zm5.57-.07h-.008c-.371-.008-.745-.014-1.11-.018a.325.325,0,1,1,.006-.649c.369,0,.745.009,1.119.018a.325.325,0,0,1-.008.649Zm-3.344-.007a.325.325,0,0,1-.006-.649c.367-.007.743-.012,1.119-.013h0a.325.325,0,0,1,0,.649c-.373,0-.746.006-1.109.013Z" transform="translate(-2201.851 -909.042)" fill="#365054"/>
        <path id="Path_170156" data-name="Path 170156" d="M2202.092,975.1h-.02a.324.324,0,0,1-.3-.343c0-.008.012-.2.047-.566a.325.325,0,1,1,.646.063c-.034.349-.045.54-.045.542A.325.325,0,0,1,2202.092,975.1Z" transform="translate(-2201.767 -930.168)" fill="#365054"/>
      </g>
    </g>
    <path id="Path_170157" data-name="Path 170157" d="M2420.282,1065.552H2182.124a.319.319,0,0,1-.269-.35h0a.319.319,0,0,1,.269-.35h238.157a.319.319,0,0,1,.268.35h0A.318.318,0,0,1,2420.282,1065.552Z" transform="translate(0 -70.548)" fill="#13292d"/>
  </g>
</svg>
