<svg xmlns="http://www.w3.org/2000/svg" xmlns:xlink="http://www.w3.org/1999/xlink" width="167.202" height="167.583" viewBox="0 0 167.202 167.583">
  <defs>
    <linearGradient id="linear-gradient" x1="-3.454" y1="10.932" x2="-3.324" y2="9.797" gradientUnits="objectBoundingBox">
      <stop offset="0" stop-color="#ffc444"/>
      <stop offset="0.129" stop-color="#fdb946"/>
      <stop offset="0.167" stop-color="#fdb647"/>
      <stop offset="0.996" stop-color="#f36f56"/>
    </linearGradient>
    <linearGradient id="linear-gradient-2" x1="0.328" y1="1.136" x2="0.79" y2="-0.571" gradientUnits="objectBoundingBox">
      <stop offset="0.004" stop-color="#64f0fd"/>
      <stop offset="1" stop-color="#17cdff"/>
    </linearGradient>
    <linearGradient id="linear-gradient-3" x1="-3.306" y1="8.908" x2="-3.231" y2="14.159" gradientUnits="objectBoundingBox">
      <stop offset="0" stop-color="#ffc444"/>
      <stop offset="0.996" stop-color="#f36f56"/>
    </linearGradient>
    <linearGradient id="linear-gradient-4" x1="0.509" y1="0.828" x2="0.6" y2="4.143" xlink:href="#linear-gradient-2"/>
    <linearGradient id="linear-gradient-5" x1="0.497" y1="0.086" x2="0.558" y2="3.461" xlink:href="#linear-gradient-2"/>
    <linearGradient id="linear-gradient-6" x1="-4.674" y1="4.232" x2="1.587" y2="-0.284" xlink:href="#linear-gradient-2"/>
    <linearGradient id="linear-gradient-7" x1="-2.791" y1="2.874" x2="3.47" y2="-1.642" xlink:href="#linear-gradient-2"/>
    <linearGradient id="linear-gradient-8" x1="0.14" y1="-0.153" x2="1.4" y2="2.132" xlink:href="#linear-gradient-3"/>
    <linearGradient id="linear-gradient-11" x1="0.323" y1="0.806" x2="0.794" y2="0.313" xlink:href="#linear-gradient-3"/>
    <linearGradient id="linear-gradient-12" x1="0.504" y1="1.151" x2="0.491" y2="-1.815" gradientUnits="objectBoundingBox">
      <stop offset="0" stop-color="#aa80f9"/>
      <stop offset="0.996" stop-color="#6165d7"/>
    </linearGradient>
    <linearGradient id="linear-gradient-13" x1="0.503" y1="1.273" x2="0.497" y2="0.374" gradientUnits="objectBoundingBox">
      <stop offset="0" stop-color="#ab316d"/>
      <stop offset="1" stop-color="#792d3d"/>
    </linearGradient>
    <linearGradient id="linear-gradient-14" x1="0.444" y1="0.849" x2="0.576" y2="-0.356" xlink:href="#linear-gradient-13"/>
    <linearGradient id="linear-gradient-15" x1="0.422" y1="1.319" x2="0.875" y2="-2.769" xlink:href="#linear-gradient-13"/>
    <linearGradient id="linear-gradient-16" x1="0.402" y1="1.534" x2="0.854" y2="-2.554" xlink:href="#linear-gradient-13"/>
    <linearGradient id="linear-gradient-17" x1="0.425" y1="0.687" x2="0.693" y2="-0.203" gradientUnits="objectBoundingBox">
      <stop offset="0" stop-color="#311944"/>
      <stop offset="1" stop-color="#6b3976"/>
    </linearGradient>
    <linearGradient id="linear-gradient-18" x1="0.464" y1="0.589" x2="0.756" y2="-0.579" xlink:href="#linear-gradient-17"/>
    <linearGradient id="linear-gradient-19" x1="0.83" y1="-0.065" x2="0.567" y2="0.477" xlink:href="#linear-gradient-13"/>
    <linearGradient id="linear-gradient-20" x1="0.83" y1="-0.076" x2="0.568" y2="0.472" xlink:href="#linear-gradient-13"/>
    <linearGradient id="linear-gradient-21" x1="0.578" y1="1.482" x2="0.439" y2="0.103" gradientUnits="objectBoundingBox">
      <stop offset="0.004" stop-color="#133e75"/>
      <stop offset="1" stop-color="#103d86"/>
    </linearGradient>
    <linearGradient id="linear-gradient-22" x1="0.526" y1="1.046" x2="0.47" y2="0.006" xlink:href="#linear-gradient-3"/>
    <linearGradient id="linear-gradient-23" x1="0.482" y1="0.924" x2="0.511" y2="0.054" xlink:href="#linear-gradient-3"/>
    <linearGradient id="linear-gradient-24" x1="0.462" y1="1.713" x2="0.572" y2="-1.836" xlink:href="#linear-gradient-3"/>
    <linearGradient id="linear-gradient-25" x1="0.46" y1="1.799" x2="0.57" y2="-1.75" xlink:href="#linear-gradient-3"/>
    <linearGradient id="linear-gradient-26" x1="0.889" y1="-0.809" x2="0.338" y2="1.269" gradientUnits="objectBoundingBox">
      <stop offset="0" stop-color="#48d2ff"/>
      <stop offset="1" stop-color="#6fe0fb"/>
    </linearGradient>
    <linearGradient id="linear-gradient-27" x1="0.528" y1="0.732" x2="0.743" y2="1.643" xlink:href="#linear-gradient-3"/>
    <linearGradient id="linear-gradient-28" x1="0.501" y1="0.37" x2="0.463" y2="2.574" xlink:href="#linear-gradient-3"/>
    <linearGradient id="linear-gradient-29" x1="29.134" y1="4.821" x2="28.959" y2="12.682" xlink:href="#linear-gradient-3"/>
    <linearGradient id="linear-gradient-30" x1="0.529" y1="-0.396" x2="0.327" y2="6.722" xlink:href="#linear-gradient-3"/>
    <linearGradient id="linear-gradient-31" y1="0.5" x2="1" y2="0.5" gradientUnits="objectBoundingBox">
      <stop offset="0" stop-color="#444b8c"/>
      <stop offset="0.996" stop-color="#3e4177"/>
    </linearGradient>
    <linearGradient id="linear-gradient-32" x1="0.854" y1="-13.203" x2="0.543" y2="-1.433" xlink:href="#linear-gradient-3"/>
    <linearGradient id="linear-gradient-33" x1="537.892" y1="-2.673" x2="538.167" y2="2.004" gradientUnits="objectBoundingBox">
      <stop offset="0" stop-color="#444b8c"/>
      <stop offset="0.996" stop-color="#26264f"/>
    </linearGradient>
    <linearGradient id="linear-gradient-34" x1="0.5" y1="0.663" x2="0.5" y2="-0.546" xlink:href="#linear-gradient-33"/>
  </defs>
  <g id="Group_89717" data-name="Group 89717" transform="translate(-788.088 -1730.071)">
    <path id="Path_143171" data-name="Path 143171" d="M952.831,1802.4c-4.531-29.664-23.112-66.108-59.821-69.922,0,0-27.871-3.39-55.346,1.748a61.935,61.935,0,0,0-39.652,25.173,54.591,54.591,0,0,0-8.4,44.122c2.382,9.851,3.992,20.047,3.55,30.169-.769,17.617-.326,34.062,16.771,44.568,15.265,9.381,34.478,17.655,52.806,19.1a117.74,117.74,0,0,0,38.43-3.852C962.349,1876.986,957.363,1832.067,952.831,1802.4Z" fill="#f4f7fa"/>
    <g id="Group_89720" data-name="Group 89720">
      <g id="Group_89717-2" data-name="Group 89717">
        <path id="Path_143172" data-name="Path 143172" d="M930.2,1790.315l-.042-.519a5.3,5.3,0,0,0-5.637-4.864,5.891,5.891,0,0,0-3.947,1.9L904.812,1804a18.752,18.752,0,0,1-7.942,5.13l-1.445.477a18.744,18.744,0,0,1-6.341.938l-23.132-.577,19.119-7.752a4.644,4.644,0,0,0,2.566-6.031l-.258-.643a4.644,4.644,0,0,0-4.992-2.863c-7.557,1.12-24.892,3.74-32.336,5.286-7.159,1.488-17.176,14.934-21.881,21.793a15.151,15.151,0,0,0-2.671,8.484,10.18,10.18,0,0,0,4.6,8.593l1.64,1.075a16.373,16.373,0,0,0,10.337,2.619l46.194-3.872a20.921,20.921,0,0,0,14.93-8.218l25.82-34.1A5.891,5.891,0,0,0,930.2,1790.315Z" fill="url(#linear-gradient)"/>
        <rect id="Rectangle_30784" data-name="Rectangle 30784" width="29.547" height="37.003" rx="2.451" transform="matrix(0.761, -0.649, 0.649, 0.761, 801.469, 1835.312)" fill="url(#linear-gradient-2)"/>
      </g>
      <g id="Group_89718" data-name="Group 89718">
        <path id="Path_143173" data-name="Path 143173" d="M931.318,1788.971l-.042-.519a5.3,5.3,0,0,0-5.637-4.864,5.891,5.891,0,0,0-3.947,1.9l-15.76,17.177a18.752,18.752,0,0,1-7.942,5.13l-1.445.477a18.744,18.744,0,0,1-6.341.938l-23.132-.577,19.119-7.752a4.644,4.644,0,0,0,2.566-6.031l-.258-.643a4.644,4.644,0,0,0-4.992-2.863c-7.557,1.12-24.892,3.74-32.336,5.286-7.159,1.488-17.176,14.934-21.881,21.793a15.151,15.151,0,0,0-2.671,8.484,10.18,10.18,0,0,0,4.6,8.593l1.64,1.075a16.373,16.373,0,0,0,10.337,2.619l46.194-3.872a20.921,20.921,0,0,0,14.93-8.218l25.82-34.1A5.891,5.891,0,0,0,931.318,1788.971Z" fill="url(#linear-gradient-3)"/>
        <path id="Path_143174" data-name="Path 143174" d="M847.224,1844.518l-18.745,16a2.451,2.451,0,0,1-3.456-.271l-20.841-24.414a2.452,2.452,0,0,1,.271-3.456l1.142-.974,17.6-15.029a2.453,2.453,0,0,1,3.457.274l2.152,2.522,16.91,19.78,1.077,1.235h0l.7.848A2.487,2.487,0,0,1,847.224,1844.518Z" fill="url(#linear-gradient-4)"/>
      </g>
      <path id="Path_143175" data-name="Path 143175" d="M847.224,1844.518l-18.745,16a2.451,2.451,0,0,1-3.456-.271l-20.841-24.414a2.452,2.452,0,0,1,.271-3.456l1.142-.974c.791,2.493,2.726,4.791,7.614,3.967,9.968-1.68,10.521,4.21,14.9,6.58,5.3,2.873,13.046-1.138,18.688-1.765h0l.7.848A2.487,2.487,0,0,1,847.224,1844.518Z" opacity="0.4" fill="url(#linear-gradient-5)" style="mix-blend-mode: multiply;isolation: isolate"/>
      <g id="Group_89719" data-name="Group 89719">
        <circle id="Ellipse_4561" data-name="Ellipse 4561" cx="2.644" cy="2.644" r="2.644" transform="translate(836.621 1838.794)" fill="url(#linear-gradient-6)"/>
        <circle id="Ellipse_4562" data-name="Ellipse 4562" cx="2.644" cy="2.644" r="2.644" transform="translate(826.602 1845.891)" fill="url(#linear-gradient-7)"/>
      </g>
    </g>
    <g id="Group_89723" data-name="Group 89723">
      <g id="Group_89721" data-name="Group 89721">
        <circle id="Ellipse_4563" data-name="Ellipse 4563" cx="22.191" cy="22.191" r="22.191" transform="translate(840.641 1772.548) rotate(-73.155)" fill="#fff"/>
        <circle id="Ellipse_4564" data-name="Ellipse 4564" cx="19.712" cy="19.712" r="19.712" transform="translate(843.268 1769.988) rotate(-71.062)" fill="url(#linear-gradient-8)"/>
      </g>
      <g id="Group_89722" data-name="Group 89722">
        <path id="Path_143176" data-name="Path 143176" d="M866.479,1769.986v-2.7a15.691,15.691,0,0,1-6.033-1.47l1.08-4.323a14.216,14.216,0,0,0,6,1.5c1.591,0,2.792-.36,2.792-1.351,0-.9-.931-1.411-3.423-2.011-3.51-.84-6.272-2.431-6.272-5.7,0-2.911,2.1-5.132,5.853-5.763v-2.671h3.572v2.461a14.18,14.18,0,0,1,5.073,1.02l-1.051,4.173a12.947,12.947,0,0,0-5.192-1.141c-1.921,0-2.4.631-2.4,1.231,0,.75,1.291,1.35,3.962,2.1,4.172,1.141,5.732,2.821,5.732,5.793,0,2.851-2.131,5.253-6.122,5.883v2.971Z" fill="#fff"/>
      </g>
    </g>
    <g id="Group_89726" data-name="Group 89726">
      <g id="Group_89724" data-name="Group 89724">
        <circle id="Ellipse_4565" data-name="Ellipse 4565" cx="15.136" cy="15.136" r="15.136" transform="matrix(0.29, -0.957, 0.957, 0.29, 809.399, 1790.073)" fill="#fff"/>
        <circle id="Ellipse_4566" data-name="Ellipse 4566" cx="13.446" cy="13.446" r="13.446" transform="matrix(0.257, -0.966, 0.966, 0.257, 811.826, 1789.517)" fill="url(#linear-gradient-8)"/>
      </g>
      <g id="Group_89725" data-name="Group 89725">
        <path id="Path_143177" data-name="Path 143177" d="M827.024,1788.326v-1.843a10.676,10.676,0,0,1-4.115-1l.737-2.948a9.7,9.7,0,0,0,4.094,1.024c1.085,0,1.905-.246,1.905-.922,0-.614-.636-.962-2.335-1.371-2.4-.574-4.279-1.659-4.279-3.891,0-1.985,1.433-3.5,3.993-3.931v-1.822h2.436v1.679a9.686,9.686,0,0,1,3.46.7l-.716,2.846a8.852,8.852,0,0,0-3.542-.778c-1.31,0-1.638.43-1.638.84,0,.512.88.921,2.7,1.433,2.846.778,3.91,1.924,3.91,3.951,0,1.945-1.453,3.583-4.176,4.013v2.027Z" fill="#fff"/>
      </g>
    </g>
    <g id="Group_89729" data-name="Group 89729">
      <g id="Group_89727" data-name="Group 89727">
        <circle id="Ellipse_4567" data-name="Ellipse 4567" cx="15.136" cy="15.136" r="15.136" transform="translate(890.802 1781.84) rotate(-75.473)" fill="#fff"/>
        <circle id="Ellipse_4568" data-name="Ellipse 4568" cx="13.446" cy="13.446" r="13.446" transform="translate(891.684 1778.261) rotate(-67.5)" fill="url(#linear-gradient-8)"/>
      </g>
      <g id="Group_89728" data-name="Group 89728">
        <path id="Path_143178" data-name="Path 143178" d="M908,1779.338V1777.5a10.693,10.693,0,0,1-4.115-1l.737-2.948a9.686,9.686,0,0,0,4.094,1.024c1.085,0,1.905-.246,1.905-.922,0-.614-.636-.962-2.335-1.371-2.4-.574-4.279-1.659-4.279-3.89,0-1.986,1.433-3.5,3.993-3.931v-1.823h2.436v1.679a9.684,9.684,0,0,1,3.46.7l-.716,2.846a8.849,8.849,0,0,0-3.542-.778c-1.311,0-1.638.43-1.638.84,0,.512.88.921,2.7,1.433,2.846.778,3.91,1.925,3.91,3.951,0,1.945-1.453,3.583-4.176,4.013v2.027Z" fill="#fff"/>
      </g>
    </g>
    <g id="Group_89732" data-name="Group 89732">
      <g id="Group_89731" data-name="Group 89731">
        <path id="Path_143179" data-name="Path 143179" d="M809.749,1882.839c-1.884-4.908.776-12.95,2.451-16.595,4.883-10.624,13.856-10.983,21.211-11.277,7.226-.29,14.2-.569,19.306,7.58,3.335,5.324,6.4,15.09,4.356,20.292-2.15,5.47-8.123,1.231-22.327,1.156C819.123,1883.912,812.1,1888.966,809.749,1882.839Z" fill="url(#linear-gradient-11)"/>
        <path id="Path_143180" data-name="Path 143180" d="M840.232,1856.084c0,1.338-3.266,2.943-7.295,2.943s-7.295-1.6-7.295-2.943,3.266-.739,7.295-.739S840.232,1854.747,840.232,1856.084Z" fill="url(#linear-gradient-12)"/>
        <path id="Path_143181" data-name="Path 143181" d="M830.255,1846.753c-1.109,0,1.451,7.794-2.581,8.864a.444.444,0,0,0-.1.82,13.435,13.435,0,0,0,6.435,1.33,8.2,8.2,0,0,0,4.561-1.367.444.444,0,0,0-.048-.763c-1.243-.64-2.968-2.678-2.453-8.684Z" fill="url(#linear-gradient-13)"/>
        <path id="Path_143182" data-name="Path 143182" d="M826.885,1837.41c.017.1.352,7.211,1.978,10.764.467,1.019,2.782.9,4.28.774,1.3-.106,3.341.369,3.915-.53,2.31-3.612,1.919-12.558,1.919-12.558s-1.184-2.976-6.036-2.9A6.359,6.359,0,0,0,826.885,1837.41Z" fill="url(#linear-gradient-14)"/>
        <path id="Path_143183" data-name="Path 143183" d="M828.021,1841.23a4.387,4.387,0,0,0-1.972-1.337c-.957-.157-1.58,2.32-.275,3.932a1.891,1.891,0,0,0,2.813.276Z" fill="url(#linear-gradient-15)"/>
        <path id="Path_143184" data-name="Path 143184" d="M837.912,1841.23a4.387,4.387,0,0,1,1.972-1.337c.956-.157,1.58,2.32.275,3.932a1.891,1.891,0,0,1-2.813.276Z" fill="url(#linear-gradient-16)"/>
        <path id="Path_143185" data-name="Path 143185" d="M827.226,1841.141c.128.235.274.453.373.427.41-.106-1.172-4.1.285-5.5.754-.724,1.6-.064,4.689-.2,3.109-.141,3.9-.884,4.844-.315.856.519,1.622,2,.987,6.39l.53-.122a4.515,4.515,0,0,1,.319-2.916,3.212,3.212,0,0,0,.578-1.732c-.019-.482-.178-.5-.205-.9-.077-1.156,1.242-1.467,1.306-2.609.049-.879-.709-1.079-.571-2,.118-.781.71-.927.617-1.492-.1-.609-.9-1.062-1.452-1.22s-.773.017-1.106-.212c-.538-.372-.279-1.031-.668-1.275-.693-.436-2.07,1.3-2.959.871-.539-.263-.332-1.045-.809-1.235-.921-.367-2.55,2.215-3.205,1.872-.313-.164-.011-.793-.451-1.256a1.817,1.817,0,0,0-2.321.033c-.527.537-.08,1.177-.638,1.857-.5.61-1.079.359-1.644.848-.961.831-.626,2.711-.507,3.382.411,2.309,1.689,2.776,1.4,4.351a3.547,3.547,0,0,0-.122,1.509A3.1,3.1,0,0,0,827.226,1841.141Z" fill="url(#linear-gradient-17)"/>
        <g id="Group_89730" data-name="Group 89730" opacity="0.3" style="mix-blend-mode: multiply;isolation: isolate">
          <path id="Path_143186" data-name="Path 143186" d="M839.037,1836.153c-.113-1.135.766-1.664.619-2.474a1.974,1.974,0,0,0-1.546-1.36c-1.475-.267-2.43,1.905-3.9,1.669-1.134-.182-1.008-1.551-2.288-2.1-2.029-.874-4.156,1.788-5.505,1.051-.4-.222-.815-.791-.844-2.336-.774.889-.471,2.6-.358,3.232.411,2.309,1.689,2.776,1.4,4.351a3.547,3.547,0,0,0-.122,1.509,3.1,3.1,0,0,0,.728,1.448c.128.235.274.453.373.427.41-.106-1.172-4.1.285-5.5.754-.724,1.6-.064,4.689-.2,3.109-.141,3.9-.884,4.844-.315.856.519,1.622,2,.987,6.39l.53-.122a4.515,4.515,0,0,1,.319-2.916c.089-.172.208-.365.315-.586a5.264,5.264,0,0,0-.221-1.23A4.61,4.61,0,0,1,839.037,1836.153Z" fill="url(#linear-gradient-18)"/>
        </g>
      </g>
    </g>
    <g id="Group_89735" data-name="Group 89735">
      <g id="Group_89734" data-name="Group 89734">
        <g id="Group_89733" data-name="Group 89733">
          <path id="Path_143187" data-name="Path 143187" d="M903.1,1866.882c-9.907-1.6-12.092-2.709-13.1-4.74-1.467-2.949-.4-7.723,2.112-10.663,2.2-2.58,4.956-3.088,4.875-4.878-.066-1.472-1.952-1.66-3.337-4.426a6.7,6.7,0,0,1-.846-4.259,6.778,6.778,0,0,1,3.256-4.328c2.669-1.467,4.192.218,6.206-1.1,2.521-1.647,1.378-5.1,3.743-6.108,1.722-.731,3.924.425,4.5.726,1.919,1.007,1.718,2.029,3.339,2.654,1.9.734,2.812-.432,5.026.033a7.857,7.857,0,0,1,4.238,2.918c2.433,2.86,1.223,4.561,3.021,8.091,2.532,4.973,6.359,4.4,7.039,8.393.355,2.087-.557,3.034.143,6.232.474,2.161,1.069,2.548,1.175,3.819.3,3.655-4.078,6.853-4.895,7.415C924.4,1870.233,917.225,1869.164,903.1,1866.882Z" fill="url(#linear-gradient-19)"/>
          <path id="Path_143188" data-name="Path 143188" d="M919.192,1857.33c-6.676-.479-11.182,5.535-12.966,4.039-1.69-1.416,3.086-6.2,1.453-11.789-1.6-5.486-7.872-6.626-7.377-9.716.56-3.5,8.973-4.407,8.774-6.986-.116-1.522-3.093-1.842-3.688-4.257a3.74,3.74,0,0,1,.061-1.914c-1.636,1.283-.893,4.284-3.189,5.784-2.014,1.315-3.537-.37-6.206,1.1a6.778,6.778,0,0,0-3.256,4.328,6.7,6.7,0,0,0,.846,4.259c1.385,2.766,3.271,2.954,3.337,4.426.081,1.79-2.671,2.3-4.875,4.878-2.512,2.94-3.579,7.714-2.112,10.663,1.01,2.031,3.2,3.139,13.1,4.74,14.129,2.282,21.3,3.351,26.492-.218,2.016-1.386,4.395-3.755,4.906-5.869a5.991,5.991,0,0,1-2.95,1.5C927.212,1863.059,925.213,1857.762,919.192,1857.33Z" opacity="0.7" fill="url(#linear-gradient-20)" style="mix-blend-mode: multiply;isolation: isolate"/>
        </g>
        <path id="Path_143189" data-name="Path 143189" d="M892.056,1879.6c-1.485-3.655-.58-9.356-.389-10.559a22.653,22.653,0,0,1,3.142-8.626c4.4-7.089,11.117-7.022,16.2-6.972a23.459,23.459,0,0,1,8.352,1.113,22.668,22.668,0,0,1,4.7,2.4c6.465,4.5,11.6,19.23,6.355,24.737-3.33,3.5-6.734-1.039-21.386.958-5.831.794-11.94,2.168-15.552-.962A5.333,5.333,0,0,1,892.056,1879.6Z" fill="url(#linear-gradient-21)"/>
        <path id="Path_143190" data-name="Path 143190" d="M908.342,1844.832s1.073,7.695-4.361,9.219a.838.838,0,0,0-.345,1.416l6.7,6.3a1,1,0,0,0,1.42-.057l6.081-6.718a.838.838,0,0,0-.334-1.349c-1.951-.718-5.444-2.806-4.712-8.437Z" fill="url(#linear-gradient-22)"/>
        <path id="Path_143191" data-name="Path 143191" d="M905.011,1840.562c0,.084,1.465,7.591,5.225,7.591,3.561,0,4.914-5.528,5.355-8.11l.14-1.317a2.75,2.75,0,0,1-1.563.045,2.46,2.46,0,0,1-1.581-1.177c-.427-.949.359-1.7-.089-2.534a1.889,1.889,0,0,0-1.182-.822,2.432,2.432,0,0,1,.49,2.051c-.2.53-.744,1.039-1.967,1.349C906.341,1838.524,904.977,1838.861,905.011,1840.562Z" fill="url(#linear-gradient-23)"/>
        <path id="Path_143192" data-name="Path 143192" d="M905.93,1841.459s-1.937-1.638-2.106-.635c-.352,2.09,1.305,3.244,2.2,2.619S905.93,1841.459,905.93,1841.459Z" fill="url(#linear-gradient-24)"/>
        <path id="Path_143193" data-name="Path 143193" d="M914.471,1841.459s1.938-1.638,2.107-.635c.352,2.09-1.3,3.244-2.205,2.619S914.471,1841.459,914.471,1841.459Z" fill="url(#linear-gradient-25)"/>
      </g>
    </g>
    <g id="Group_89739" data-name="Group 89739">
      <g id="Group_89737" data-name="Group 89737">
        <g id="Group_89736" data-name="Group 89736">
          <path id="Path_143194" data-name="Path 143194" d="M873.283,1891.9c-23.21.179-31.346,3.237-35.032-1.794-3.392-4.63-.582-21.251,3.466-25.918,6.4-7.377,16.673-7.739,30.728-8.131,13.216-.368,21.361-.595,27.792,5.1,6.012,5.325,9.852,23.7,6.108,28.815C902.871,1894.718,895.443,1891.727,873.283,1891.9Z" fill="url(#linear-gradient-26)"/>
          <path id="Path_143195" data-name="Path 143195" d="M866.706,1845.479s1.493,10.744-.572,11.77l5.879,6.406,5.955-7.588s-2.251-1.7-1.658-10.588Z" fill="url(#linear-gradient-27)"/>
          <path id="Path_143196" data-name="Path 143196" d="M863.238,1830.1c-.212.288-2.971,13.825,6.577,15.242s9.968-8.589,9.847-12.834-4.489-5.787-6.989-6.083S863.992,1829.082,863.238,1830.1Z" fill="url(#linear-gradient-28)"/>
          <path id="Path_143197" data-name="Path 143197" d="M862.684,1838.006s-.478-2.213-2.113-.833.965,5.041,3.111,4.89Z" fill="url(#linear-gradient-29)"/>
          <path id="Path_143198" data-name="Path 143198" d="M879.368,1836.464c-.275.186-1.063,5.38-1.063,5.38s1.379.162,2.376-1.7S882.159,1834.576,879.368,1836.464Z" fill="url(#linear-gradient-30)"/>
          <path id="Path_143199" data-name="Path 143199" d="M883.121,1826.54c-1.006-1.669-3.547-.878-4.288-2.487-.623-1.352.841-2.624.055-3.792-.657-.978-2.263-.953-2.549-.949-2.17.033-2.667,1.752-4.215,1.713-1.89-.048-1.963-2.631-4.463-3.719-2.424-1.055-5.969-.2-7.4,1.784-1.113,1.538-.166,2.669-1.626,4.645-1,1.36-1.892,1.42-2.391,2.75a5.189,5.189,0,0,0,.1,3.324c.6,2.119,1.7,3.054,3.376,5.309a36.678,36.678,0,0,1,2.838,4.478,50.936,50.936,0,0,1,1.67,5.345c.535,2.112.5,2.539,1,3.223,1.725,2.358,5.663,2.13,7.319,2.034,1.9-.11,4.265-.247,5.454-1.9.643-.892.562-1.7.712-3.854a53.258,53.258,0,0,1,.825-6.315,19.324,19.324,0,0,1,.777-2.678c.692-1.846,1.411-2.141,2.192-4.048C883.131,1829.875,883.94,1827.9,883.121,1826.54Zm-7.908,14.41c-1.174.317-1.966.032-3.557-.059-3.182-.183-4.188,1.307-5.691.652a3.908,3.908,0,0,1-2.381-2.5,11.771,11.771,0,0,1-.1-3.75c.249-1.836.536-3.953,2.007-4.89,2.134-1.359,4.859.98,6.816-.536a3.525,3.525,0,0,0,1.186-2.134,8.605,8.605,0,0,1,5.163,5.1,8.3,8.3,0,0,1-.047,5.407A6.172,6.172,0,0,1,875.213,1840.95Z" fill="url(#linear-gradient-31)"/>
          <path id="Path_143200" data-name="Path 143200" d="M868.612,1843.187a7.844,7.844,0,0,0,5.145-.146c.214-.081.4.154.219.281a4.74,4.74,0,0,1-3,1,6.2,6.2,0,0,1-2.55-.837C868.233,1843.372,868.388,1843.118,868.612,1843.187Z" fill="url(#linear-gradient-32)"/>
        </g>
      </g>
      <g id="Group_89738" data-name="Group 89738">
        <path id="Path_143201" data-name="Path 143201" d="M869.382,1860.787s1.069,3.777,2.143,3.848a18.451,18.451,0,0,1,1.861.215l1.2-4.486A7.436,7.436,0,0,1,869.382,1860.787Z" fill="url(#linear-gradient-33)"/>
        <path id="Path_143202" data-name="Path 143202" d="M871.192,1864.5l-3.384,22.745,3.614,3.031,4.949-3.258-2.984-22.168Z" fill="url(#linear-gradient-34)"/>
      </g>
    </g>
  </g>
</svg>
