<svg xmlns="http://www.w3.org/2000/svg" width="263" height="263" viewBox="0 0 263 263">
  <g id="Grupo_98480" data-name="Grupo 98480" transform="translate(-454 -1192)">
    <g id="Elipse_4240" data-name="Elipse 4240" transform="translate(454 1192)" fill="#fff1db" stroke="#ff9800" stroke-width="4">
      <circle cx="131.5" cy="131.5" r="131.5" stroke="none"/>
      <circle cx="131.5" cy="131.5" r="129.5" fill="none"/>
    </g>
    <g id="Grupo_94611" data-name="Grupo 94611" transform="translate(-416 -703.734)">
      <g id="revision" transform="translate(934.941 1957.735)">
        <path id="Trazado_145693" data-name="Trazado 145693" d="M37.75,410h-.417v-5a5,5,0,0,0-5-5H29a5,5,0,0,0-5,5v13.333H44V416.25A6.25,6.25,0,0,0,37.75,410Z" transform="translate(-6.333 -304.001)" fill="#ff9800"/>
        <path id="Trazado_145694" data-name="Trazado 145694" d="M398.25,410h.417v-5a5,5,0,0,1,5-5H407a5,5,0,0,1,5,5v13.333H392V416.25A6.25,6.25,0,0,1,398.25,410Z" transform="translate(-297.667 -304.001)" fill="#ff9800"/>
        <path id="Trazado_145695" data-name="Trazado 145695" d="M0,0H56.667V48.333H0Z" transform="translate(94.333 114.333) rotate(180)" fill="#ffb74d"/>
        <path id="Trazado_145696" data-name="Trazado 145696" d="M120,456h15v6.667H120Z" transform="translate(-82.333 -348.334)" fill="#ffd494"/>
        <path id="Trazado_145697" data-name="Trazado 145697" d="M320,456h15v6.667H320Z" transform="translate(-240.667 -348.334)" fill="#ffd494"/>
        <g id="Grupo_83570" data-name="Grupo 83570" transform="translate(52.667 55.999)">
          <path id="Trazado_145698" data-name="Trazado 145698" d="M192,208h26.667v58.333H192Z" transform="translate(-192 -208)" fill="#ff9800"/>
          <path id="Trazado_145699" data-name="Trazado 145699" d="M232,424h10v13.333H232Z" transform="translate(-223.667 -379)" fill="#111e61"/>
        </g>
        <g id="Grupo_83571" data-name="Grupo 83571" transform="translate(17.667 35.999)">
          <path id="Trazado_145706" data-name="Trazado 145706" d="M224,184h13.333v10H224Z" transform="translate(-182.333 -169)" fill="#ffee58"/>
        </g>
        <g id="Grupo_83572" data-name="Grupo 83572" transform="translate(16 34.333)">
          <path id="Trazado_145707" data-name="Trazado 145707" d="M216,320h3.333v3.333H216Z" transform="translate(-174.333 -275)"/>
          <path id="Trazado_145708" data-name="Trazado 145708" d="M248,320h3.333v3.333H248Z" transform="translate(-199.667 -275)"/>
          <path id="Trazado_145709" data-name="Trazado 145709" d="M280,320h3.333v3.333H280Z" transform="translate(-225 -275)"/>
          <path id="Trazado_145710" data-name="Trazado 145710" d="M216,352h3.333v3.333H216Z" transform="translate(-174.333 -300.333)"/>
          <path id="Trazado_145711" data-name="Trazado 145711" d="M248,352h3.333v3.333H248Z" transform="translate(-199.667 -300.333)"/>
          <path id="Trazado_145712" data-name="Trazado 145712" d="M280,352h3.333v3.333H280Z" transform="translate(-225 -300.333)"/>
          <path id="Trazado_145713" data-name="Trazado 145713" d="M216,384h3.333v3.333H216Z" transform="translate(-174.333 -325.667)"/>
          <path id="Trazado_145714" data-name="Trazado 145714" d="M248,384h3.333v3.333H248Z" transform="translate(-199.667 -325.667)"/>
          <path id="Trazado_145715" data-name="Trazado 145715" d="M280,384h3.333v3.333H280Z" transform="translate(-225 -325.667)"/>
          <path id="Trazado_145716" data-name="Trazado 145716" d="M216,256h3.333v3.333H216Z" transform="translate(-174.333 -224.333)"/>
          <path id="Trazado_145717" data-name="Trazado 145717" d="M248,256h3.333v3.333H248Z" transform="translate(-199.667 -224.333)"/>
          <path id="Trazado_145718" data-name="Trazado 145718" d="M280,256h3.333v3.333H280Z" transform="translate(-225 -224.333)"/>
          <path id="Trazado_145719" data-name="Trazado 145719" d="M216,288h3.333v3.333H216Z" transform="translate(-174.333 -249.667)"/>
          <path id="Trazado_145720" data-name="Trazado 145720" d="M248,288h3.333v3.333H248Z" transform="translate(-199.667 -249.667)"/>
          <path id="Trazado_145721" data-name="Trazado 145721" d="M280,288h3.333v3.333H280Z" transform="translate(-225 -249.667)"/>
          <path id="Trazado_145726" data-name="Trazado 145726" d="M144,288h5v3.333h-5Z" transform="translate(-117.333 -249.667)"/>
          <path id="Trazado_145727" data-name="Trazado 145727" d="M144,328h5v3.333h-5Z" transform="translate(-117.333 -281.333)"/>
          <path id="Trazado_145728" data-name="Trazado 145728" d="M144,368h5v3.333h-5Z" transform="translate(-117.333 -313)"/>
          <path id="Trazado_145729" data-name="Trazado 145729" d="M144,408h5v3.333h-5Z" transform="translate(-117.333 -344.667)"/>
          <path id="Trazado_145730" data-name="Trazado 145730" d="M109.333,221H106a6.674,6.674,0,0,0-6.667,6.667V231.1A7.875,7.875,0,0,0,96,232.465v-8.132H92.667v8.333H81V194.333H92.667V221H96V192.667A1.667,1.667,0,0,0,94.333,191H81v-8.333A1.667,1.667,0,0,0,79.333,181h-5v-3.333A1.667,1.667,0,0,0,72.667,176H59.333a1.667,1.667,0,0,0-1.667,1.667V181h-5A1.667,1.667,0,0,0,51,182.667V191H37.667A1.667,1.667,0,0,0,36,192.667v10h3.333v-8.333H51v38.333H39.333V206H36v26.465a7.875,7.875,0,0,0-3.333-1.366v-3.432A6.674,6.674,0,0,0,26,221H22.667A6.674,6.674,0,0,0,16,227.667V241a1.667,1.667,0,0,0,1.667,1.667h96.667A1.667,1.667,0,0,0,116,241V227.667A6.674,6.674,0,0,0,109.333,221ZM61,179.333H71V186H61ZM19.333,227.667a3.337,3.337,0,0,1,3.333-3.333H26a3.337,3.337,0,0,1,3.333,3.333V231.1a7.929,7.929,0,0,0-6.667,7.818v.417H19.333ZM26,239.333v-.417a4.589,4.589,0,0,1,4.583-4.583h.833A4.589,4.589,0,0,1,36,238.917v.417ZM39.333,236H51v3.333H39.333Zm15-51.667h3.333v3.333a1.667,1.667,0,0,0,1.667,1.667H72.667a1.667,1.667,0,0,0,1.667-1.667v-3.333h3.333v55h-5V227.667A1.667,1.667,0,0,0,71,226H61a1.667,1.667,0,0,0-1.667,1.667v11.667h-5Zm8.333,55v-10h6.667v10ZM81,236H92.667v3.333H81Zm15,3.333v-.417a4.589,4.589,0,0,1,4.583-4.583h.833A4.589,4.589,0,0,1,106,238.917v.417Zm16.667,0h-3.333v-.417a7.929,7.929,0,0,0-6.667-7.818v-3.432A3.337,3.337,0,0,1,106,224.333h3.333a3.337,3.337,0,0,1,3.333,3.333Z" transform="translate(-16 -161)"/>
          <path id="Trazado_145731" data-name="Trazado 145731" d="M344,368h5v3.333h-5Z" transform="translate(-275.667 -313)"/>
          <path id="Trazado_145732" data-name="Trazado 145732" d="M344,408h5v3.333h-5Z" transform="translate(-275.667 -344.667)"/>
          <path id="Trazado_145733" data-name="Trazado 145733" d="M344,288h5v3.333h-5Z" transform="translate(-275.667 -249.667)"/>
          <path id="Trazado_145734" data-name="Trazado 145734" d="M344,328h5v3.333h-5Z" transform="translate(-275.667 -281.333)"/>
        </g>
        <path id="Trazado_153679" data-name="Trazado 153679" d="M426.163,216l2.222,4.5,4.968.722-3.6,3.5.849,4.948-4.444-2.336-4.444,2.336.849-4.948-3.6-3.5,4.968-.722Z" transform="translate(-360.163 -190.334)" fill="#ffee58"/>
        <path id="Trazado_153680" data-name="Trazado 153680" d="M412.4,213.242a1.667,1.667,0,0,0-.924,2.843l2.968,2.893-.7,4.085a1.667,1.667,0,0,0,2.418,1.757l3.668-1.929,3.668,1.929a1.667,1.667,0,0,0,2.418-1.757l-.7-4.085,2.968-2.895a1.667,1.667,0,0,0-.924-2.843l-4.1-.595-1.833-3.716a1.667,1.667,0,0,0-2.989,0l-1.833,3.716Zm6.7,1.665.727-1.474.727,1.474a1.667,1.667,0,0,0,1.254.912l1.626.236-1.177,1.147a1.667,1.667,0,0,0-.479,1.475l.278,1.62-1.455-.765a1.667,1.667,0,0,0-1.551,0l-1.455.765.278-1.62a1.667,1.667,0,0,0-.479-1.475l-1.177-1.147,1.626-.236A1.667,1.667,0,0,0,419.1,214.907Z" transform="translate(-353.83 -184.002)"/>
      </g>
    </g>
  </g>
</svg>
