<svg xmlns="http://www.w3.org/2000/svg" xmlns:xlink="http://www.w3.org/1999/xlink" width="163.964" height="166.271" viewBox="0 0 163.964 166.271">
  <defs>
    <linearGradient id="linear-gradient" x1="0.302" y1="0.298" x2="0.81" y2="0.84" gradientUnits="objectBoundingBox">
      <stop offset="0" stop-color="#ffa436"/>
      <stop offset="1" stop-color="#fb5421"/>
    </linearGradient>
    <linearGradient id="linear-gradient-2" x1="0.978" y1="0.047" x2="0.263" y2="0.702" gradientUnits="objectBoundingBox">
      <stop offset="0" stop-color="#fff"/>
      <stop offset="0.996" stop-color="#f2b8a0"/>
    </linearGradient>
    <linearGradient id="linear-gradient-3" x1="0" y1="0.5" x2="1" y2="0.5" xlink:href="#linear-gradient-2"/>
    <linearGradient id="linear-gradient-7" x1="0" y1="0.5" x2="1" y2="0.5" xlink:href="#linear-gradient-2"/>
    <linearGradient id="linear-gradient-8" x1="0" y1="0.5" x2="1" y2="0.5" xlink:href="#linear-gradient-2"/>
    <linearGradient id="linear-gradient-9" x1="0.453" y1="1.209" x2="0.493" y2="0.605" gradientUnits="objectBoundingBox">
      <stop offset="0.004" stop-color="#26264f"/>
      <stop offset="1" stop-color="#444b8c"/>
    </linearGradient>
    <linearGradient id="linear-gradient-10" x1="0.341" y1="0.939" x2="0.642" y2="-0.276" xlink:href="#linear-gradient-9"/>
    <linearGradient id="linear-gradient-11" x1="0" y1="0.5" x2="1" y2="0.5" xlink:href="#linear-gradient-9"/>
    <linearGradient id="linear-gradient-12" x1="0.384" y1="1.047" x2="0.649" y2="-0.416" xlink:href="#linear-gradient-9"/>
    <linearGradient id="linear-gradient-13" x1="0" y1="0.5" x2="1" y2="0.5" xlink:href="#linear-gradient-9"/>
    <linearGradient id="linear-gradient-15" x1="0.475" y1="1.004" x2="0.576" y2="-0.995" xlink:href="#linear-gradient-9"/>
    <linearGradient id="linear-gradient-16" x1="-0.641" y1="0.986" x2="0.67" y2="0.427" gradientUnits="objectBoundingBox">
      <stop offset="0" stop-color="#ffc444"/>
      <stop offset="0.996" stop-color="#f36f56"/>
    </linearGradient>
    <linearGradient id="linear-gradient-17" x1="-0.788" y1="1.049" x2="0.523" y2="0.49" xlink:href="#linear-gradient-16"/>
    <linearGradient id="linear-gradient-18" x1="-0.573" y1="10.263" x2="0.045" y2="4.832" xlink:href="#linear-gradient-16"/>
    <linearGradient id="linear-gradient-19" x1="0.546" y1="0.061" x2="0.39" y2="1.002" gradientUnits="objectBoundingBox">
      <stop offset="0" stop-color="#fcb148"/>
      <stop offset="0.052" stop-color="#fdb946"/>
      <stop offset="0.142" stop-color="#fec144"/>
      <stop offset="0.318" stop-color="#ffc444"/>
      <stop offset="0.485" stop-color="#fdb946"/>
      <stop offset="0.775" stop-color="#f99c4c"/>
      <stop offset="0.866" stop-color="#f8924f"/>
      <stop offset="1" stop-color="#f8924f"/>
    </linearGradient>
    <linearGradient id="linear-gradient-20" x1="0" y1="0.5" x2="1" y2="0.5" xlink:href="#linear-gradient-16"/>
    <linearGradient id="linear-gradient-21" x1="0.881" y1="0.067" x2="0.433" y2="0.559" gradientUnits="objectBoundingBox">
      <stop offset="0.004" stop-color="#e3a684"/>
      <stop offset="1" stop-color="#f69071"/>
    </linearGradient>
    <linearGradient id="linear-gradient-22" x1="0.978" y1="0.047" x2="0.263" y2="0.702" gradientUnits="objectBoundingBox">
      <stop offset="0" stop-color="#fff"/>
      <stop offset="0.996" stop-color="#ebeff2"/>
    </linearGradient>
    <linearGradient id="linear-gradient-23" x1="0.451" y1="-0.115" x2="0.688" y2="2.232" gradientUnits="objectBoundingBox">
      <stop offset="0" stop-color="#ffc444"/>
      <stop offset="0.996" stop-color="#f39756"/>
    </linearGradient>
    <linearGradient id="linear-gradient-24" x1="0.473" y1="0.366" x2="1.052" y2="2.183" xlink:href="#linear-gradient-21"/>
    <linearGradient id="linear-gradient-25" x1="-0.012" y1="0.026" x2="1.499" y2="1.304" gradientUnits="objectBoundingBox">
      <stop offset="0" stop-color="#f9a580"/>
      <stop offset="0.996" stop-color="#d77c61"/>
    </linearGradient>
    <linearGradient id="linear-gradient-26" x1="0.974" y1="-0.105" x2="0.276" y2="0.797" gradientUnits="objectBoundingBox">
      <stop offset="0" stop-color="#ffb685"/>
      <stop offset="1" stop-color="#fba76f"/>
    </linearGradient>
    <linearGradient id="linear-gradient-27" x1="0.593" y1="-0.143" x2="0.053" y2="3.782" xlink:href="#linear-gradient-26"/>
    <linearGradient id="linear-gradient-28" x1="-319.372" y1="-335.687" x2="-320.164" y2="-333.751" xlink:href="#linear-gradient-26"/>
    <linearGradient id="linear-gradient-29" x1="0.881" y1="0.067" x2="0.433" y2="0.559" gradientUnits="objectBoundingBox">
      <stop offset="0.004" stop-color="#8ddae3"/>
      <stop offset="1" stop-color="#71ccf6"/>
    </linearGradient>
    <linearGradient id="linear-gradient-30" x1="0.978" y1="0.047" x2="0.263" y2="0.702" gradientUnits="objectBoundingBox">
      <stop offset="0" stop-color="#fff"/>
      <stop offset="0.996" stop-color="#d5e7f2"/>
    </linearGradient>
    <linearGradient id="linear-gradient-31" x1="0.451" y1="-0.115" x2="0.688" y2="2.232" gradientUnits="objectBoundingBox">
      <stop offset="0" stop-color="#ffc444"/>
      <stop offset="0.996" stop-color="#f3ac56"/>
    </linearGradient>
    <linearGradient id="linear-gradient-32" x1="0.473" y1="0.366" x2="1.052" y2="2.183" xlink:href="#linear-gradient-29"/>
    <linearGradient id="linear-gradient-33" x1="-0.012" y1="0.026" x2="1.499" y2="1.304" gradientUnits="objectBoundingBox">
      <stop offset="0" stop-color="#80e6f9"/>
      <stop offset="0.996" stop-color="#61c1d7"/>
    </linearGradient>
    <linearGradient id="linear-gradient-34" x1="0.974" y1="-0.105" x2="0.276" y2="0.797" gradientUnits="objectBoundingBox">
      <stop offset="0" stop-color="#85ecff"/>
      <stop offset="1" stop-color="#6ff1fb"/>
    </linearGradient>
    <linearGradient id="linear-gradient-35" x1="-241.675" y1="-246.57" x2="-242.467" y2="-244.634" xlink:href="#linear-gradient-34"/>
    <linearGradient id="linear-gradient-36" x1="135.239" y1="-2.363" x2="135.419" y2="2.674" gradientUnits="objectBoundingBox">
      <stop offset="0" stop-color="#311944"/>
      <stop offset="1" stop-color="#a03976"/>
    </linearGradient>
    <linearGradient id="linear-gradient-37" x1="502.742" y1="1.194" x2="502.621" y2="-5.023" xlink:href="#linear-gradient-16"/>
    <linearGradient id="linear-gradient-38" x1="214.106" y1="-1.451" x2="214.391" y2="1.501" xlink:href="#linear-gradient-36"/>
    <linearGradient id="linear-gradient-39" x1="356.083" y1="1.396" x2="355.996" y2="-2.986" xlink:href="#linear-gradient-16"/>
    <linearGradient id="linear-gradient-40" x1="77.023" y1="0.502" x2="78.024" y2="0.502" gradientUnits="objectBoundingBox">
      <stop offset="0" stop-color="#444b8c"/>
      <stop offset="0.996" stop-color="#3e4177"/>
    </linearGradient>
    <linearGradient id="linear-gradient-41" x1="82.512" y1="0.502" x2="83.586" y2="0.502" xlink:href="#linear-gradient-40"/>
    <linearGradient id="linear-gradient-42" x1="38.059" y1="0.503" x2="39.055" y2="0.503" xlink:href="#linear-gradient-40"/>
    <linearGradient id="linear-gradient-43" x1="0.799" y1="-0.049" x2="0.226" y2="1.009" gradientUnits="objectBoundingBox">
      <stop offset="0" stop-color="#f99b50"/>
      <stop offset="0.996" stop-color="#d75437"/>
    </linearGradient>
    <linearGradient id="linear-gradient-44" x1="0.549" y1="0.204" x2="0.293" y2="3.433" xlink:href="#linear-gradient-16"/>
    <linearGradient id="linear-gradient-45" x1="396.535" y1="149.555" x2="395.784" y2="147.88" xlink:href="#linear-gradient-40"/>
    <linearGradient id="linear-gradient-46" x1="0.44" y1="-0.008" x2="0.938" y2="4.489" xlink:href="#linear-gradient-16"/>
    <linearGradient id="linear-gradient-47" x1="0" y1="0.5" x2="1" y2="0.5" xlink:href="#linear-gradient-43"/>
    <linearGradient id="linear-gradient-48" x1="980.025" y1="-288.839" x2="980.905" y2="-288.839" xlink:href="#linear-gradient-16"/>
    <linearGradient id="linear-gradient-49" x1="0.819" y1="0.139" x2="-0.341" y2="1.435" xlink:href="#linear-gradient-43"/>
    <linearGradient id="linear-gradient-51" y1="0.5" x2="1" y2="0.5" gradientUnits="objectBoundingBox">
      <stop offset="0" stop-color="#444b8c"/>
      <stop offset="0.996" stop-color="#26264f"/>
    </linearGradient>
    <linearGradient id="linear-gradient-53" x1="-155.851" y1="15.477" x2="-156.355" y2="14.934" xlink:href="#linear-gradient-51"/>
    <linearGradient id="linear-gradient-54" x1="-166.035" y1="15.536" x2="-165.311" y2="16.303" xlink:href="#linear-gradient-51"/>
    <linearGradient id="linear-gradient-55" x1="-1000.41" y1="-198.229" x2="-1000.205" y2="-199.961" xlink:href="#linear-gradient-16"/>
  </defs>
  <g id="Competitive_intelligence" data-name="Competitive intelligence" transform="translate(-541.933 -1844.226)">
    <path id="Path_142884" data-name="Path 142884" d="M581.349,1854.22c-5.507,8.027.95,21.042-7.222,27.079-7.954,5.877-17.725-3.756-25.221,1.3-11.12,7.5-9.09,41.844,7.169,63.179,4.889,6.416,8.975,8.913,10.784,16.169,3.885,15.582-9.77,24.851-7.171,32.558,5.851,17.352,95.834,31.912,131.94-20.237,16.862-24.355,19.385-59.525,4.319-86.237C668.722,1839.767,593.705,1836.207,581.349,1854.22Z" fill="#f4f7fa"/>
    <g id="Group_89636" data-name="Group 89636">
      <g id="Group_89635" data-name="Group 89635">
        <g id="Group_89632" data-name="Group 89632">
          <path id="Path_142885" data-name="Path 142885" d="M652.057,1853.552l-57.421-1.943a2.273,2.273,0,0,0-2.379,2.272v104.306a2.212,2.212,0,0,0,2.379,2.218l57.421-3.266a2.347,2.347,0,0,0,2.149-2.353v-98.93A2.283,2.283,0,0,0,652.057,1853.552Z" fill="url(#linear-gradient)"/>
          <g id="Group_89631" data-name="Group 89631" opacity="0.3" style="mix-blend-mode: multiply;isolation: isolate">
            <path id="Path_142886" data-name="Path 142886" d="M628.5,1930.575c-.976-11.927,6.35-16.849,3.556-27.655-3.453-13.357-16.735-13.929-21.259-27.027-1.733-5.019-2.417-12.6,2.544-23.651l-18.7-.633a2.273,2.273,0,0,0-2.379,2.272v104.306a2.212,2.212,0,0,0,2.379,2.218l51.2-2.912C632.81,1947.407,629.1,1937.906,628.5,1930.575Z" fill="#e8ab90"/>
          </g>
          <path id="Path_142887" data-name="Path 142887" d="M652.057,1854.869l-57.421-1.877a.935.935,0,0,0-.976.934V1958.11a.909.909,0,0,0,.976.911l57.421-3.2a.965.965,0,0,0,.884-.967v-99.039A.939.939,0,0,0,652.057,1854.869Z" opacity="0.3" fill="url(#linear-gradient-2)"/>
        </g>
        <g id="Group_89633" data-name="Group 89633">
          <path id="Path_142888" data-name="Path 142888" d="M641.212,1933.741,606.371,1935a1.555,1.555,0,0,0-1.491,1.541h0a1.423,1.423,0,0,0,1.491,1.431l34.841-1.343a1.489,1.489,0,0,0,1.4-1.495h0A1.361,1.361,0,0,0,641.212,1933.741Z" opacity="0.6" fill="url(#linear-gradient-3)"/>
          <path id="Path_142889" data-name="Path 142889" d="M641.212,1938.88l-34.841,1.411a1.564,1.564,0,0,0-1.491,1.548h0a1.415,1.415,0,0,0,1.491,1.424l34.841-1.5a1.5,1.5,0,0,0,1.4-1.5h0A1.354,1.354,0,0,0,641.212,1938.88Z" opacity="0.6" fill="url(#linear-gradient-3)"/>
          <path id="Path_142890" data-name="Path 142890" d="M641.212,1944.019l-34.841,1.566a1.573,1.573,0,0,0-1.491,1.555h0a1.407,1.407,0,0,0,1.491,1.417l34.841-1.653a1.506,1.506,0,0,0,1.4-1.507h0A1.347,1.347,0,0,0,641.212,1944.019Z" opacity="0.6" fill="url(#linear-gradient-3)"/>
        </g>
        <g id="Group_89634" data-name="Group 89634">
          <path id="Path_142891" data-name="Path 142891" d="M623.145,1859.041l-17.527-.5a.714.714,0,0,0-.738.716h0a.762.762,0,0,0,.738.756l17.527.475a.7.7,0,0,0,.715-.7h0A.744.744,0,0,0,623.145,1859.041Z" opacity="0.6" fill="url(#linear-gradient-3)"/>
          <path id="Path_142892" data-name="Path 142892" d="M623.145,1861.624l-17.527-.458a.716.716,0,0,0-.738.717h0a.76.76,0,0,0,.738.755l17.527.436a.7.7,0,0,0,.715-.707h0A.743.743,0,0,0,623.145,1861.624Z" opacity="0.6" fill="url(#linear-gradient-7)"/>
          <path id="Path_142893" data-name="Path 142893" d="M623.145,1864.207l-17.527-.419a.717.717,0,0,0-.738.719h0a.758.758,0,0,0,.738.753l17.527.4a.7.7,0,0,0,.715-.708h0A.742.742,0,0,0,623.145,1864.207Z" opacity="0.6" fill="url(#linear-gradient-8)"/>
        </g>
      </g>
      <path id="Path_142894" data-name="Path 142894" d="M628.629,1930.571c-.976-11.926,6.349-16.848,3.556-27.652-3.453-13.355-16.732-13.928-21.254-27.024-1.662-4.811-2.359-11.983,1.96-22.306L594.776,1853a.934.934,0,0,0-.976.933V1958.1a.91.91,0,0,0,.976.911l49.634-2.766C632.64,1946.62,629.205,1937.6,628.629,1930.571Z" fill="#fff" opacity="0.35" style="mix-blend-mode: soft-light;isolation: isolate"/>
    </g>
    <g id="Group_89638" data-name="Group 89638">
      <path id="Path_142895" data-name="Path 142895" d="M612.915,1886.606c0-9.993-8.507-18.093-19-18.093s-19,8.1-19,18.093a17.822,17.822,0,0,0,7.943,14.715,7.464,7.464,0,0,1,3.277,6.159v1.384a5.448,5.448,0,0,0,5.448,5.448h4.668a5.447,5.447,0,0,0,5.447-5.448v-1.384a7.465,7.465,0,0,1,3.278-6.159A17.822,17.822,0,0,0,612.915,1886.606Z" fill="#f4f7fa" opacity="0.75"/>
      <ellipse id="Ellipse_4556" data-name="Ellipse 4556" cx="4.215" cy="2.232" rx="4.215" ry="2.232" transform="translate(589.698 1920.147)" fill="url(#linear-gradient-9)"/>
      <path id="Path_142896" data-name="Path 142896" d="M588.312,1918.392v2.279a2,2,0,0,0,1.135,1.81,10.689,10.689,0,0,0,4.907.906,11.014,11.014,0,0,0,3.915-.683,2.035,2.035,0,0,0,1.244-1.885v-1.261Z" fill="url(#linear-gradient-10)"/>
      <path id="Path_142897" data-name="Path 142897" d="M588.312,1920.388a2.226,2.226,0,0,0,.591.413c1.084.517,8.184,1.672,9.9,1.028a2.285,2.285,0,0,0,.6-.33,2.062,2.062,0,0,0,.116-.68v-1.261l-11.2-1.166Z" opacity="0.3" fill="url(#linear-gradient-11)" style="mix-blend-mode: multiply;isolation: isolate"/>
      <path id="Path_142898" data-name="Path 142898" d="M588.81,1916.842a1.069,1.069,0,0,0-1.18,1.063v.064A2.244,2.244,0,0,0,588.9,1920c1.084.517,8.184,1.672,9.9,1.029a2.069,2.069,0,0,0,1.4-1.985v-.052a1.07,1.07,0,0,0-.958-1.064Z" fill="url(#linear-gradient-12)"/>
      <path id="Path_142899" data-name="Path 142899" d="M599.238,1917.927l-10.428-1.085a1.065,1.065,0,0,0-1,.47,2.229,2.229,0,0,0,1.092,1.146c1.084.517,8.486,1.822,9.9,1.158a2.455,2.455,0,0,0,1.21-1.226A1.07,1.07,0,0,0,599.238,1917.927Z" opacity="0.3" fill="url(#linear-gradient-13)" style="mix-blend-mode: multiply;isolation: isolate"/>
      <path id="Path_142900" data-name="Path 142900" d="M588.4,1913.149a.772.772,0,0,0-.772.772v1.785a2.245,2.245,0,0,0,1.273,2.03c1.084.517,8.486,1.822,9.9,1.158a2.356,2.356,0,0,0,1.4-2.115v-2.858a.772.772,0,0,0-.772-.772Z" fill="url(#linear-gradient-11)"/>
      <ellipse id="Ellipse_4557" data-name="Ellipse 4557" cx="6.128" cy="1.449" rx="6.128" ry="1.449" transform="translate(587.785 1912.256)" fill="url(#linear-gradient-15)"/>
      <path id="Path_142901" data-name="Path 142901" d="M612.915,1886.606c0-9.993-8.507-18.093-19-18.093s-19,8.1-19,18.093a17.822,17.822,0,0,0,7.943,14.715,7.464,7.464,0,0,1,3.277,6.159v1.384a5.448,5.448,0,0,0,5.448,5.448h4.668a5.447,5.447,0,0,0,5.447-5.448v-1.384a7.465,7.465,0,0,1,3.278-6.159A17.822,17.822,0,0,0,612.915,1886.606Z" fill="#fff"/>
      <ellipse id="Ellipse_4558" data-name="Ellipse 4558" cx="4.484" cy="1.06" rx="4.484" ry="1.06" transform="translate(589.429 1911.502)" fill="#f4f7fa" opacity="0.5" style="mix-blend-mode: soft-light;isolation: isolate"/>
      <g id="Group_89637" data-name="Group 89637">
        <path id="Path_142902" data-name="Path 142902" d="M592.745,1913.21a.259.259,0,0,1-.257-.226l-3.3-25.652a.259.259,0,0,1,.514-.066l3.3,25.652a.259.259,0,0,1-.224.29A.187.187,0,0,1,592.745,1913.21Z" fill="url(#linear-gradient-16)"/>
        <path id="Path_142903" data-name="Path 142903" d="M594.793,1913.21a.187.187,0,0,1-.033,0,.259.259,0,0,1-.224-.29l3.3-25.652a.259.259,0,0,1,.514.066l-3.3,25.652A.259.259,0,0,1,594.793,1913.21Z" fill="url(#linear-gradient-17)"/>
        <path id="Path_142904" data-name="Path 142904" d="M597.48,1887.312a.258.258,0,0,1-.217-.117l-.91-1.381a.044.044,0,0,0-.037-.021.041.041,0,0,0-.035.022l-.6,1.007a.559.559,0,0,1-.948.023l-.825-1.237a.041.041,0,0,0-.036-.021.042.042,0,0,0-.034.019l-.725,1.048a.56.56,0,0,1-.459.242h0a.564.564,0,0,1-.461-.241l-1.045-1.5a.049.049,0,0,0-.037-.02.042.042,0,0,0-.035.023l-.954,1.646a.259.259,0,1,1-.448-.259l.954-1.647a.559.559,0,0,1,.945-.04l1.045,1.5a.043.043,0,0,0,.035.019h0a.039.039,0,0,0,.034-.019l.725-1.048a.559.559,0,0,1,.927.009l.826,1.237c.009.014.023.026.036.021a.044.044,0,0,0,.036-.022l.6-1.007a.559.559,0,0,1,.949-.02l.911,1.381a.26.26,0,0,1-.074.359A.257.257,0,0,1,597.48,1887.312Z" fill="url(#linear-gradient-18)"/>
      </g>
      <path id="Path_142905" data-name="Path 142905" d="M594.258,1900.878c.407-6.974,12.164-8.606,12.113-14.834-.031-3.836-4.7-6.685-5.7-7.255-7.351-4.2-16.4.651-18.267-2.786a3.2,3.2,0,0,1-.123-2.317,4.97,4.97,0,0,1,1.243-2.231,17.618,17.618,0,0,0-.67,29.866,7.464,7.464,0,0,1,3.277,6.159v1.384a5.448,5.448,0,0,0,5.448,5.448h4.668a5.447,5.447,0,0,0,5.447-5.448v-1.107a3.566,3.566,0,0,1-2.189.829C596.7,1908.563,594.055,1904.348,594.258,1900.878Z" opacity="0.3" fill="url(#linear-gradient-19)" style="mix-blend-mode: multiply;isolation: isolate"/>
      <ellipse id="Ellipse_4559" data-name="Ellipse 4559" cx="16.352" cy="15.77" rx="16.352" ry="15.77" transform="translate(577.865 1871.542)" opacity="0.2" fill="url(#linear-gradient-20)"/>
    </g>
    <g id="Group_89650" data-name="Group 89650">
      <g id="Group_89647" data-name="Group 89647">
        <g id="Group_89643" data-name="Group 89643">
          <g id="Group_89640" data-name="Group 89640">
            <path id="Path_142906" data-name="Path 142906" d="M613.885,1919.944l-44.55-1.508a1.762,1.762,0,0,0-1.846,1.762v80.927a1.715,1.715,0,0,0,1.846,1.72l44.55-2.533a1.822,1.822,0,0,0,1.667-1.826v-76.755A1.77,1.77,0,0,0,613.885,1919.944Z" fill="url(#linear-gradient-21)"/>
            <g id="Group_89639" data-name="Group 89639" opacity="0.3" style="mix-blend-mode: multiply;isolation: isolate">
              <path id="Path_142907" data-name="Path 142907" d="M595.606,1979.7c-.758-9.253,4.926-13.073,2.759-21.456-2.68-10.363-12.985-10.807-16.494-20.969-1.345-3.894-1.876-9.78,1.973-18.35l-14.509-.491a1.762,1.762,0,0,0-1.846,1.762v80.927a1.715,1.715,0,0,0,1.846,1.72l39.723-2.258C598.952,1992.761,596.072,1985.39,595.606,1979.7Z" fill="#d8dee8"/>
            </g>
            <path id="Path_142908" data-name="Path 142908" d="M613.885,1920.965l-44.55-1.456a.725.725,0,0,0-.758.724v80.833a.705.705,0,0,0,.758.706l44.55-2.482a.749.749,0,0,0,.686-.75V1921.7A.729.729,0,0,0,613.885,1920.965Z" fill="url(#linear-gradient-22)"/>
          </g>
          <g id="Group_89641" data-name="Group 89641">
            <path id="Path_142909" data-name="Path 142909" d="M605.471,1982.159l-27.032.974a1.207,1.207,0,0,0-1.156,1.2h0a1.1,1.1,0,0,0,1.156,1.11l27.032-1.042a1.156,1.156,0,0,0,1.087-1.16h0A1.056,1.056,0,0,0,605.471,1982.159Z" fill="#d8dee8"/>
            <path id="Path_142910" data-name="Path 142910" d="M605.471,1986.145l-27.032,1.095a1.214,1.214,0,0,0-1.156,1.2h0a1.1,1.1,0,0,0,1.156,1.1l27.032-1.162a1.162,1.162,0,0,0,1.087-1.165h0A1.051,1.051,0,0,0,605.471,1986.145Z" fill="#d8dee8"/>
            <path id="Path_142911" data-name="Path 142911" d="M605.471,1990.132l-27.032,1.216a1.219,1.219,0,0,0-1.156,1.206h0a1.091,1.091,0,0,0,1.156,1.1l27.032-1.282a1.169,1.169,0,0,0,1.087-1.17h0A1.045,1.045,0,0,0,605.471,1990.132Z" fill="#d8dee8"/>
          </g>
          <g id="Group_89642" data-name="Group 89642">
            <path id="Path_142912" data-name="Path 142912" d="M591.453,1924.2l-13.6-.386a.553.553,0,0,0-.572.556h0a.592.592,0,0,0,.572.587l13.6.368a.541.541,0,0,0,.555-.547h0A.577.577,0,0,0,591.453,1924.2Z" fill="#d8dee8"/>
            <path id="Path_142913" data-name="Path 142913" d="M591.453,1926.206l-13.6-.355a.554.554,0,0,0-.572.556h0a.589.589,0,0,0,.572.586l13.6.338a.542.542,0,0,0,.555-.548h0A.576.576,0,0,0,591.453,1926.206Z" fill="#d8dee8"/>
            <path id="Path_142914" data-name="Path 142914" d="M591.453,1928.21l-13.6-.325a.555.555,0,0,0-.572.558h0a.587.587,0,0,0,.572.584l13.6.308a.543.543,0,0,0,.555-.549h0A.575.575,0,0,0,591.453,1928.21Z" fill="#d8dee8"/>
          </g>
        </g>
        <g id="Group_89646" data-name="Group 89646">
          <g id="Group_89644" data-name="Group 89644">
            <path id="Path_142915" data-name="Path 142915" d="M586.214,1949.738a5.821,5.821,0,0,1,4.471-3.078l.135-8.253a13.967,13.967,0,0,0-12.4,8.424Z" fill="url(#linear-gradient-23)"/>
            <path id="Path_142916" data-name="Path 142916" d="M597.037,1953.491a5.842,5.842,0,0,1-5.674,4.873,5.7,5.7,0,0,1-2.369-.488l-4.324,7.109a13.685,13.685,0,0,0,6.693,1.6A14.049,14.049,0,0,0,605,1953.792Z" fill="url(#linear-gradient-24)"/>
            <path id="Path_142917" data-name="Path 142917" d="M583.334,1964.176l4.337-7.115a5.869,5.869,0,0,1-2.142-4.551,6,6,0,0,1,.141-1.3l-7.8-2.9a14.265,14.265,0,0,0-.633,4.214A14.071,14.071,0,0,0,583.334,1964.176Z" fill="url(#linear-gradient-25)"/>
          </g>
          <g id="Group_89645" data-name="Group 89645">
            <path id="Path_142918" data-name="Path 142918" d="M592.23,1946.691a5.822,5.822,0,0,1,4.868,5.246l13.185.521v-.018a19.43,19.43,0,0,0-17.83-19.464Z" fill="url(#linear-gradient-26)"/>
          </g>
        </g>
        <path id="Path_142919" data-name="Path 142919" d="M595.708,1979.7c-.757-9.253,4.926-13.072,2.759-21.454-2.679-10.362-12.982-10.806-16.49-20.967-1.289-3.732-1.831-9.3,1.52-17.306l-14.054-.46a.726.726,0,0,0-.757.725v80.823a.706.706,0,0,0,.757.706l38.509-2.145C598.82,1992.15,596.155,1985.15,595.708,1979.7Z" fill="#fff" opacity="0.35" style="mix-blend-mode: soft-light;isolation: isolate"/>
      </g>
      <g id="Group_89648" data-name="Group 89648">
        <path id="Path_142920" data-name="Path 142920" d="M580.809,1941.856l-21.561-.214a.883.883,0,0,1-.883-.868v-8.2a.846.846,0,0,1,.883-.837l18.77.447a.859.859,0,0,1,.836.854v7.048Z" fill="url(#linear-gradient-27)"/>
        <path id="Path_142921" data-name="Path 142921" d="M575.825,1935.146l-14.279-.278v-.983l14.279.3Z" fill="#fff" opacity="0.67"/>
        <path id="Path_142922" data-name="Path 142922" d="M575.825,1937.073l-14.279-.239v-.983l14.279.259Z" fill="#fff" opacity="0.67"/>
        <path id="Path_142923" data-name="Path 142923" d="M575.825,1939l-14.279-.2v-.983l14.279.219Z" fill="#fff" opacity="0.67"/>
      </g>
      <g id="Group_89649" data-name="Group 89649">
        <path id="Path_142924" data-name="Path 142924" d="M591.505,1969.455l19.263-.414a.9.9,0,0,1,.908.92v8.969a.962.962,0,0,1-.908.969l-20.3.685a.92.92,0,0,1-.951-.931v-11.724Z" opacity="0.3" fill="url(#linear-gradient-28)" style="mix-blend-mode: multiply;isolation: isolate"/>
        <path id="Path_142925" data-name="Path 142925" d="M592.942,1977.048l15.445-.462v1.084l-15.445.481Z" fill="#fff" opacity="0.67"/>
        <path id="Path_142926" data-name="Path 142926" d="M592.942,1974.842l15.445-.424v1.084l-15.445.443Z" fill="#fff" opacity="0.67"/>
        <path id="Path_142927" data-name="Path 142927" d="M592.942,1972.637l15.445-.387v1.084l-15.445.405Z" fill="#fff" opacity="0.67"/>
      </g>
    </g>
    <g id="Group_89661" data-name="Group 89661">
      <g id="Group_89659" data-name="Group 89659">
        <g id="Group_89655" data-name="Group 89655">
          <g id="Group_89652" data-name="Group 89652">
            <path id="Path_142928" data-name="Path 142928" d="M682.608,1871.477l-59.869-2.026a2.368,2.368,0,0,0-2.48,2.368v108.753a2.306,2.306,0,0,0,2.48,2.312l59.869-3.405a2.447,2.447,0,0,0,2.24-2.453V1873.879A2.379,2.379,0,0,0,682.608,1871.477Z" fill="url(#linear-gradient-29)"/>
            <g id="Group_89651" data-name="Group 89651" opacity="0.3" style="mix-blend-mode: multiply;isolation: isolate">
              <path id="Path_142929" data-name="Path 142929" d="M658.044,1951.782c-1.019-12.435,6.62-17.567,3.707-28.833-3.6-13.926-17.449-14.523-22.165-28.179-1.807-5.233-2.521-13.143,2.652-24.659l-19.5-.66a2.368,2.368,0,0,0-2.48,2.368v108.753a2.306,2.306,0,0,0,2.48,2.312l53.383-3.036C662.54,1969.332,658.669,1959.426,658.044,1951.782Z" fill="#e8e8e8"/>
            </g>
            <path id="Path_142930" data-name="Path 142930" d="M682.608,1872.85l-59.869-1.957a.974.974,0,0,0-1.018.973v108.626a.947.947,0,0,0,1.018.949l59.869-3.335a1.006,1.006,0,0,0,.921-1.008V1873.837A.978.978,0,0,0,682.608,1872.85Z" fill="url(#linear-gradient-30)"/>
          </g>
          <g id="Group_89653" data-name="Group 89653">
            <path id="Path_142931" data-name="Path 142931" d="M671.3,1955.084l-36.327,1.309A1.621,1.621,0,0,0,633.42,1958h0a1.482,1.482,0,0,0,1.554,1.491l36.327-1.4a1.553,1.553,0,0,0,1.46-1.559h0A1.419,1.419,0,0,0,671.3,1955.084Z" fill="#e8e8e8"/>
            <path id="Path_142932" data-name="Path 142932" d="M671.3,1960.441l-36.327,1.471a1.632,1.632,0,0,0-1.554,1.615h0a1.475,1.475,0,0,0,1.554,1.484l36.327-1.562a1.56,1.56,0,0,0,1.46-1.565h0A1.412,1.412,0,0,0,671.3,1960.441Z" fill="#e8e8e8"/>
            <path id="Path_142933" data-name="Path 142933" d="M671.3,1965.8l-36.327,1.633a1.641,1.641,0,0,0-1.554,1.621h0a1.467,1.467,0,0,0,1.554,1.478l36.327-1.724a1.569,1.569,0,0,0,1.46-1.571h0A1.4,1.4,0,0,0,671.3,1965.8Z" fill="#e8e8e8"/>
          </g>
          <g id="Group_89654" data-name="Group 89654">
            <path id="Path_142934" data-name="Path 142934" d="M652.463,1877.2l-18.273-.518a.743.743,0,0,0-.77.746h0a.8.8,0,0,0,.77.789l18.273.5a.727.727,0,0,0,.746-.735h0A.777.777,0,0,0,652.463,1877.2Z" fill="#e8e8e8"/>
            <path id="Path_142935" data-name="Path 142935" d="M652.463,1879.892l-18.273-.477a.746.746,0,0,0-.77.748h0a.793.793,0,0,0,.77.787l18.273.454a.728.728,0,0,0,.746-.737h0A.775.775,0,0,0,652.463,1879.892Z" fill="#e8e8e8"/>
            <path id="Path_142936" data-name="Path 142936" d="M652.463,1882.586l-18.273-.437a.747.747,0,0,0-.77.749h0a.791.791,0,0,0,.77.786l18.273.414a.731.731,0,0,0,.746-.739h0A.773.773,0,0,0,652.463,1882.586Z" fill="#e8e8e8"/>
          </g>
        </g>
        <g id="Group_89658" data-name="Group 89658">
          <g id="Group_89656" data-name="Group 89656">
            <path id="Path_142937" data-name="Path 142937" d="M645.422,1911.516a7.819,7.819,0,0,1,6.009-4.136l.181-11.091a18.767,18.767,0,0,0-16.665,11.32Z" fill="url(#linear-gradient-31)"/>
            <path id="Path_142938" data-name="Path 142938" d="M659.966,1916.559a7.852,7.852,0,0,1-7.624,6.549,7.675,7.675,0,0,1-3.183-.656l-5.812,9.554a18.406,18.406,0,0,0,8.995,2.147,18.879,18.879,0,0,0,18.331-17.189Z" fill="url(#linear-gradient-32)"/>
            <path id="Path_142939" data-name="Path 142939" d="M641.552,1930.918l5.828-9.562a7.884,7.884,0,0,1-2.878-6.115,8.038,8.038,0,0,1,.19-1.74l-10.487-3.892a19.145,19.145,0,0,0-.85,5.663A18.909,18.909,0,0,0,641.552,1930.918Z" fill="url(#linear-gradient-33)"/>
          </g>
          <g id="Group_89657" data-name="Group 89657">
            <path id="Path_142940" data-name="Path 142940" d="M653.507,1907.421a7.825,7.825,0,0,1,6.542,7.049l17.719.7v-.023a26.111,26.111,0,0,0-23.959-26.157Z" fill="url(#linear-gradient-34)"/>
          </g>
        </g>
        <path id="Path_142941" data-name="Path 142941" d="M658.181,1951.778c-1.018-12.434,6.619-17.566,3.707-28.831-3.6-13.924-17.445-14.521-22.16-28.175-1.732-5.016-2.46-12.494,2.044-23.257l-18.887-.617a.974.974,0,0,0-1.018.973v108.613a.949.949,0,0,0,1.018.949l51.749-2.883C662.363,1968.511,658.781,1959.1,658.181,1951.778Z" fill="#fff" opacity="0.35" style="mix-blend-mode: soft-light;isolation: isolate"/>
      </g>
      <g id="Group_89660" data-name="Group 89660">
        <path id="Path_142942" data-name="Path 142942" d="M652.533,1938.012l25.886-.556a1.21,1.21,0,0,1,1.22,1.236v12.052a1.294,1.294,0,0,1-1.22,1.3l-27.284.919a1.235,1.235,0,0,1-1.278-1.25v-15.755Z" opacity="0.3" fill="url(#linear-gradient-35)" style="mix-blend-mode: multiply;isolation: isolate"/>
        <path id="Path_142943" data-name="Path 142943" d="M654.464,1948.216l20.756-.621v1.457l-20.756.646Z" fill="#fff" opacity="0.67"/>
        <path id="Path_142944" data-name="Path 142944" d="M654.464,1945.252l20.756-.57v1.457l-20.756.6Z" fill="#fff" opacity="0.67"/>
        <path id="Path_142945" data-name="Path 142945" d="M654.464,1942.288l20.756-.52v1.457l-20.756.545Z" fill="#fff" opacity="0.67"/>
      </g>
    </g>
    <g id="Group_89664" data-name="Group 89664">
      <path id="Path_142946" data-name="Path 142946" d="M652.615,2005.026s-4.239,1.939-4.308,2.247,2.729-.109,3.872-.068,2.081-.3,1.977-.782-.508-1.7-.508-1.7Z" fill="url(#linear-gradient-36)"/>
      <path id="Path_142947" data-name="Path 142947" d="M652.456,2003.461l.263,1.91a1.5,1.5,0,0,0,1.123-.046l.187-2.1Z" fill="url(#linear-gradient-37)"/>
      <path id="Path_142948" data-name="Path 142948" d="M672.442,2003.459l.5.791a.951.951,0,0,1,.115.741c-.172.659-.513,1.945-.663,2.28-.2.456-2.949.734-2.949.734s-.246-.344.323-.762.936-.484,1.136-1.1a16.2,16.2,0,0,0,.33-2.353Z" fill="url(#linear-gradient-38)"/>
      <path id="Path_142949" data-name="Path 142949" d="M670.383,2001.45a25.732,25.732,0,0,1,1.069,2.819s.286.364.827-.176.245-.242.245-.242l-.108-2.633Z" fill="url(#linear-gradient-39)"/>
      <path id="Path_142950" data-name="Path 142950" d="M650.029,1965.079c-.21,5.7-.205,11.892.139,18.507.387,7.449,1.146,14.332,2.1,20.571.348.011.713.012,1.1,0,.257-.008.507-.021.748-.038a47.556,47.556,0,0,0,1.561-5.033,48.217,48.217,0,0,0,1.083-5.891c.8-6.458-.157-7.019.495-11.8.577-4.238,1.412-4.406,2.378-10.424,1.048-6.53.254-7.507-.132-7.86C657.849,1961.6,654,1962.638,650.029,1965.079Z" fill="url(#linear-gradient-40)"/>
      <path id="Path_142951" data-name="Path 142951" d="M659.492,1963.106c-1.567-1.433-5.142-.555-8.914,1.647,4.357,4.684,4.838,7.729,4.322,9.707-.584,2.235-2.372,2.882-2.36,5.325.016,3,2.727,3.79,2.677,6.966-.033,2.1-1.224,2.081-1.5,4.676-.326,3.07,1.232,4.123.734,6.4a6.148,6.148,0,0,1-2.588,3.575c.129.932.261,1.855.4,2.76.348.011.713.012,1.1,0,.257-.008.507-.021.748-.038a47.556,47.556,0,0,0,1.561-5.033,48.217,48.217,0,0,0,1.083-5.891c.8-6.458-.157-7.019.495-11.8.577-4.238,1.412-4.406,2.378-10.424C660.672,1964.436,659.878,1963.459,659.492,1963.106Z" opacity="0.3" fill="url(#linear-gradient-41)" style="mix-blend-mode: multiply;isolation: isolate"/>
      <path id="Path_142952" data-name="Path 142952" d="M652.721,1964.976a127.976,127.976,0,0,1,17.635,37.512,2.29,2.29,0,0,0,1.253.191,2.332,2.332,0,0,0,1.417-.77,36.832,36.832,0,0,0,.3-9.089,31.291,31.291,0,0,0-1.3-6.828c-1.041-3.33-1.751-3.516-3.108-7.037-1.407-3.656-1.07-4.57-2.421-9.146a60.522,60.522,0,0,0-3.011-8.021Z" fill="url(#linear-gradient-42)"/>
      <path id="Path_142953" data-name="Path 142953" d="M637.467,1957.264c.035,1.33,2.222,2.5,3.982,2.861,4.115.84,8.887-2.151,11.151-5.458.445-.65.939-1.437,1.058-1.377.269.138-2.205,4.2-3.277,8.827-.549,2.365-.406,3.473-1.432,5.047a1.557,1.557,0,0,0-.418,1.151c.252,1.056,2.669,1.331,4.346,1.521a38.661,38.661,0,0,0,5.052.158c2.613-.038,2.819-.174,3.415.119,1.817.891,1.694,3.028,3.061,3.313,1.148.239,2.313-1.043,2.682-1.45,1.92-2.113,1.817-4.66,2.158-7.23.791-5.975,4.037-12.52,7.212-16.664.963-1.257,1.633-1.918,1.675-3.085.123-3.429-5.309-7.214-9.831-7.648a33.875,33.875,0,0,0-5.54.114c-.832.078-1.717.194-2.669.36a21.825,21.825,0,0,0-5.551,1.434c-6.6,3.021-5.162,9.746-12.308,14.4C639.776,1955.251,637.43,1955.871,637.467,1957.264Z" fill="url(#linear-gradient-43)"/>
      <path id="Path_142954" data-name="Path 142954" d="M664.519,1933.792a9.837,9.837,0,0,0,.937,2.709c.59,1.018,3.029,1.383,3.537,1.56s-.767,1.062-2.122,1.383-5.322.531-6.1.1.5-.557,1.437-1.047,1.245-2.484.956-3.332S664.519,1933.792,664.519,1933.792Z" fill="url(#linear-gradient-44)"/>
      <g id="Group_89662" data-name="Group 89662">
        <path id="Path_142955" data-name="Path 142955" d="M661.942,1933.334c-.984-.7-1.256-2.6-.71-3.031.156-.122.306-.066,2.526.824,1.1.443,1.645.678,1.823,1.165a1.541,1.541,0,0,1-.029,1.015,3.881,3.881,0,0,1-.452.753c-.238.343-.222.331-.295.431a5.437,5.437,0,0,1-1.135,1.111,3.77,3.77,0,0,0-.181-.629,3.343,3.343,0,0,0-.4-.748A3.764,3.764,0,0,0,661.942,1933.334Z" fill="url(#linear-gradient-45)"/>
        <path id="Path_142956" data-name="Path 142956" d="M664.463,1935.142a2.042,2.042,0,0,1-1.836.829c-1.067-.117-1.119-2.524-.413-3a1.355,1.355,0,0,1,1.063-.09c.216.071.287.166.643.275.329.1.424.068.521.157.121.111.2.374-.039,1.067a.582.582,0,0,1,.632-.177.362.362,0,0,1,.137.145C665.308,1934.625,665.043,1934.964,664.463,1935.142Z" fill="url(#linear-gradient-46)"/>
      </g>
      <path id="Path_142957" data-name="Path 142957" d="M643.24,1957.06c2.984-.672,4.173-.651,5.648-1.84,2.457-1.979,2.826-4.992,4.254-4.955.674.017,1.223.706,1.613,1.381l-1.079,1.689c0-.022-.006-.038-.018-.045-.119-.06-.613.727-1.058,1.377-2.264,3.307-7.036,6.3-11.151,5.458a7.153,7.153,0,0,1-3.335-1.622A50.816,50.816,0,0,1,643.24,1957.06Z" opacity="0.3" fill="url(#linear-gradient-47)" style="mix-blend-mode: multiply;isolation: isolate"/>
      <path id="Path_142958" data-name="Path 142958" d="M638.38,1959.625a11.465,11.465,0,0,1-2.687-.6c-1-.429-1.651.188-1.559.614s1.743,1.021,2.4,1.042S638.38,1959.625,638.38,1959.625Z" fill="url(#linear-gradient-48)"/>
      <path id="Path_142959" data-name="Path 142959" d="M674.643,1968.531c1.807.161,5.877.235,8.755-2.428,4.791-4.432,2.414-12.869.746-16.5a20.649,20.649,0,0,0-6.8-7.9c-2.294-1.756-3.7-2.827-5.38-2.587-4.358.62-7.376,9.552-4.983,12.109.783.837,1.558.363,3.825,1.085.738.235,6.247,1.989,7.206,6.047.671,2.839-1.038,6.165-4.08,8.4Z" fill="url(#linear-gradient-49)"/>
      <path id="Path_142960" data-name="Path 142960" d="M654.38,1967.06c2.047-1.293,2.35-2.6,4.641-3.49,2.977-1.151,4.408.311,5.884-.869,1.757-1.4.2-3.851,1.516-8.1.223-.721,1.918-6.195,5.807-6.892,1.813-.325,4.208.369,5.13,1.906.723,1.2.05,2.1.928,3.426s1.927,1,3.045,2.109a6.262,6.262,0,0,1,.445,7.557c-.748.978-1.72,1.364-3.548,2.091a17.215,17.215,0,0,1-3.05.9c2.239-2.149,3.4-4.921,2.829-7.342-.6-2.529-2.964-4.164-4.84-5.093a35.388,35.388,0,0,0-3.922,11.484c-.341,2.57-.238,5.117-2.158,7.23-.369.407-1.534,1.689-2.682,1.45-1.367-.285-1.244-2.422-3.061-3.313-.6-.293-.8-.157-3.415-.119a38.661,38.661,0,0,1-5.052-.158c-1.491-.169-3.564-.406-4.183-1.2A10.893,10.893,0,0,0,654.38,1967.06Z" opacity="0.3" fill="url(#linear-gradient-47)" style="mix-blend-mode: multiply;isolation: isolate"/>
      <g id="Group_89663" data-name="Group 89663">
        <path id="Path_142961" data-name="Path 142961" d="M673.456,1969.952l.21-.62a1.835,1.835,0,0,0-1.232-2.35L632.6,1954.847l-1.213,4.114,39.635,12.208A1.965,1.965,0,0,0,673.456,1969.952Z" fill="url(#linear-gradient-51)"/>
        <path id="Path_142962" data-name="Path 142962" d="M593.011,1943.7c3.046-12.033,14.981-19.285,26.785-15.886,12.02,3.461,18.9,16.485,15.25,28.762-3.566,11.989-15.8,18.457-27.209,14.758C596.621,1967.7,590.034,1955.459,593.011,1943.7Zm38.568,11.814c3.018-10.274-2.741-21.157-12.779-24.077-9.886-2.876-19.93,3.161-22.521,13.264-2.542,9.909,3.009,20.238,12.479,23.281A18.057,18.057,0,0,0,631.579,1955.514Z" fill="url(#linear-gradient-51)"/>
        <path id="Path_142963" data-name="Path 142963" d="M632.6,1954.847l5.08,1.547a5.272,5.272,0,0,0,1.708,3.113c2.565,2.127,5.991-.192,10.771,2.3,2.4,1.251,1.943,2.047,4.191,2.921,3.717,1.443,5.418-.556,8.707.757,3.327,1.33,3.655,4.2,5.542,4.1.807-.044,1.846-.632,3.005-2.858l.833.254a1.835,1.835,0,0,1,1.232,2.35l-.21.62a1.966,1.966,0,0,1-2.437,1.217l-39.635-12.208Z" fill="#d8dee8" opacity="0.3" style="mix-blend-mode: multiply;isolation: isolate"/>
        <path id="Path_142964" data-name="Path 142964" d="M607.817,1969.629a18.687,18.687,0,0,0,23.623-12.889c3.133-10.64-2.831-21.912-13.23-24.932-10.236-2.972-20.626,3.285-23.3,13.741C592.285,1955.8,598.026,1966.478,607.817,1969.629Z" fill="#fff" opacity="0.56"/>
        <path id="Path_142965" data-name="Path 142965" d="M592.239,1944.732c3.046-12.033,14.982-19.285,26.785-15.886,12.021,3.461,18.9,16.485,15.251,28.762-3.567,11.989-15.8,18.457-27.21,14.758C595.85,1968.731,589.263,1956.491,592.239,1944.732Zm38.568,11.814c3.019-10.275-2.74-21.157-12.778-24.077-9.886-2.876-19.93,3.161-22.522,13.264-2.542,9.909,3.009,20.238,12.479,23.281A18.057,18.057,0,0,0,630.807,1956.546Z" fill="url(#linear-gradient-53)"/>
        <path id="Path_142966" data-name="Path 142966" d="M593.393,1945.085c2.887-11.35,14.154-18.17,25.279-14.955,11.316,3.27,17.8,15.535,14.374,27.1a20.284,20.284,0,0,1-25.656,13.951C596.79,1967.758,590.568,1956.192,593.393,1945.085Zm37.414,11.461c3.019-10.275-2.74-21.157-12.778-24.077-9.886-2.876-19.93,3.161-22.522,13.264-2.542,9.909,3.009,20.238,12.479,23.281A18.057,18.057,0,0,0,630.807,1956.546Z" fill="url(#linear-gradient-54)"/>
      </g>
      <path id="Path_142967" data-name="Path 142967" d="M674.489,1968.15l-.4-1a2.064,2.064,0,0,1-1.2-.346,1.556,1.556,0,0,0-.967-.232c-.151.042-.724.017-.071.328s.647.543.375.8a4.72,4.72,0,0,1-1.679.832c-.373.026.3.6.676.676a2.314,2.314,0,0,0,1.754-.282C673.256,1968.759,674.489,1968.15,674.489,1968.15Z" fill="url(#linear-gradient-55)"/>
    </g>
  </g>
</svg>
