<svg xmlns="http://www.w3.org/2000/svg" width="16.688" height="16.115" viewBox="0 0 16.688 16.115">
  <g id="Grupo_94611" data-name="Grupo 94611" transform="translate(-187.838 -188.117)">
    <g id="Grupo_94835" data-name="Grupo 94835">
      <g id="Grupo_94834" data-name="Grupo 94834">
        <path id="Trazado_151868" data-name="Trazado 151868" d="M191.051,202.026l-.016-.014c-.169-.14-.339-.291-.494-.446a.253.253,0,0,0-.357.358,6.345,6.345,0,0,0,.528.479.253.253,0,1,0,.339-.377Z" fill="#ffb74d" stroke="#fdb657" stroke-width="0.1"/>
      </g>
    </g>
    <g id="Grupo_94837" data-name="Grupo 94837">
      <g id="Grupo_94836" data-name="Grupo 94836">
        <path id="Trazado_151869" data-name="Trazado 151869" d="M188.4,194.506a.252.252,0,0,0-.323.156.247.247,0,0,0-.013.06c-.051.232-.089.467-.118.7a.253.253,0,0,0,.215.284h.032a.255.255,0,0,0,.252-.223c.027-.22.064-.441.111-.656A.253.253,0,0,0,188.4,194.506Z" fill="#ffb74d" stroke="#fdb657" stroke-width="0.1"/>
      </g>
    </g>
    <g id="Grupo_94839" data-name="Grupo 94839">
      <g id="Grupo_94838" data-name="Grupo 94838">
        <path id="Trazado_151870" data-name="Trazado 151870" d="M189.79,200.681c-.13-.179-.254-.365-.367-.554a.254.254,0,0,0-.348-.089h0a.253.253,0,0,0-.089.347h0c.122.2.253.4.394.594a.254.254,0,0,0,.409-.3Z" fill="#ffb74d" stroke="#fdb657" stroke-width="0.1"/>
      </g>
    </g>
    <g id="Grupo_94841" data-name="Grupo 94841">
      <g id="Grupo_94840" data-name="Grupo 94840">
        <path id="Trazado_151871" data-name="Trazado 151871" d="M188.906,199.082c-.082-.205-.156-.416-.218-.629a.254.254,0,0,0-.315-.173l-.007,0a.253.253,0,0,0-.169.314c.068.227.146.454.233.677a.256.256,0,0,0,.476-.191Z" fill="#ffb74d" stroke="#fdb657" stroke-width="0.1"/>
      </g>
    </g>
    <g id="Grupo_94843" data-name="Grupo 94843">
      <g id="Grupo_94842" data-name="Grupo 94842">
        <path id="Trazado_151872" data-name="Trazado 151872" d="M189.057,192.767a.254.254,0,0,0-.341.112c-.106.211-.2.43-.291.651a.254.254,0,0,0,.472.186v0a6.1,6.1,0,0,1,.272-.607A.253.253,0,0,0,189.057,192.767Z" fill="#ffb74d" stroke="#fdb657" stroke-width="0.1"/>
      </g>
    </g>
    <g id="Grupo_94845" data-name="Grupo 94845">
      <g id="Grupo_94844" data-name="Grupo 94844">
        <path id="Trazado_151873" data-name="Trazado 151873" d="M188.449,197.317h0c-.027-.22-.046-.443-.054-.663a.254.254,0,0,0-.507.019,5.628,5.628,0,0,0,.057.71.253.253,0,0,0,.245.218h.039A.253.253,0,0,0,188.449,197.317Z" fill="#ffb74d" stroke="#fdb657" stroke-width="0.1"/>
      </g>
    </g>
    <g id="Grupo_94847" data-name="Grupo 94847">
      <g id="Grupo_94846" data-name="Grupo 94846">
        <path id="Trazado_151874" data-name="Trazado 151874" d="M195.179,188.855a.256.256,0,0,0-.279-.229c-.235.024-.471.058-.7.1a.255.255,0,1,0,.048.508l0-.007h.049c.218-.043.44-.075.659-.1A.256.256,0,0,0,195.179,188.855Z" fill="#ffb74d" stroke="#fdb657" stroke-width="0.1"/>
      </g>
    </g>
    <g id="Grupo_94849" data-name="Grupo 94849">
      <g id="Grupo_94848" data-name="Grupo 94848">
        <path id="Trazado_151875" data-name="Trazado 151875" d="M190.159,191.232a.255.255,0,0,0-.36.022c-.156.177-.3.365-.444.558a.254.254,0,0,0,.205.4v0a.254.254,0,0,0,.206-.1c.131-.179.269-.355.415-.521A.256.256,0,0,0,190.159,191.232Z" fill="#ffb74d" stroke="#fdb657" stroke-width="0.1"/>
      </g>
    </g>
    <g id="Grupo_94851" data-name="Grupo 94851">
      <g id="Grupo_94850" data-name="Grupo 94850">
        <path id="Trazado_151876" data-name="Trazado 151876" d="M196.85,188.668c-.233-.035-.472-.061-.708-.074a.254.254,0,0,0-.031.507c.223.017.445.041.663.075h.039a.255.255,0,0,0,.037-.508Z" fill="#ffb74d" stroke="#fdb657" stroke-width="0.1"/>
      </g>
    </g>
    <g id="Grupo_94853" data-name="Grupo 94853">
      <g id="Grupo_94852" data-name="Grupo 94852">
        <path id="Trazado_151877" data-name="Trazado 151877" d="M191.6,190.023a.254.254,0,0,0-.341-.063c-.195.134-.386.279-.568.43a.254.254,0,1,0,.324.39c.169-.142.349-.277.531-.4A.254.254,0,0,0,191.6,190.023Z" fill="#ffb74d" stroke="#fdb657" stroke-width="0.1"/>
      </g>
    </g>
    <g id="Grupo_94856" data-name="Grupo 94856">
      <g id="Grupo_94855" data-name="Grupo 94855">
        <g id="Grupo_94854" data-name="Grupo 94854">
          <path id="Trazado_151878" data-name="Trazado 151878" d="M192.45,189.818h0Z" fill="#ffb74d" stroke="#fdb657" stroke-width="0.1"/>
          <path id="Trazado_151879" data-name="Trazado 151879" d="M193.344,189.224a.253.253,0,0,0-.311-.177.206.206,0,0,0-.035.012,6.151,6.151,0,0,0-.656.276.253.253,0,0,0,.106.483.257.257,0,0,0,.1-.025c.2-.1.406-.181.614-.257A.253.253,0,0,0,193.344,189.224Z" fill="#ffb74d" stroke="#fdb657" stroke-width="0.1"/>
        </g>
      </g>
    </g>
    <g id="Grupo_94858" data-name="Grupo 94858">
      <g id="Grupo_94857" data-name="Grupo 94857">
        <path id="Trazado_151880" data-name="Trazado 151880" d="M196.411,203.9a.254.254,0,0,0-.269-.238,6.459,6.459,0,0,1-.667.016.254.254,0,1,0-.013.507h.215c.169,0,.338,0,.5-.015A.254.254,0,0,0,196.411,203.9Z" fill="#ffb74d" stroke="#fdb657" stroke-width="0.1"/>
      </g>
    </g>
    <g id="Grupo_94860" data-name="Grupo 94860">
      <g id="Grupo_94859" data-name="Grupo 94859">
        <path id="Trazado_151881" data-name="Trazado 151881" d="M203.05,198.021a.252.252,0,0,0-.308.183c-.054.215-.12.428-.2.636a.253.253,0,0,0,.478.166h0c.079-.224.149-.452.208-.677A.254.254,0,0,0,203.05,198.021Z" fill="#ffb74d" stroke="#fdb657" stroke-width="0.1"/>
      </g>
    </g>
    <g id="Grupo_94862" data-name="Grupo 94862">
      <g id="Grupo_94861" data-name="Grupo 94861">
        <path id="Trazado_151882" data-name="Trazado 151882" d="M203.374,195.116c-.039-.233-.088-.468-.147-.7a.253.253,0,0,0-.49.128c.055.213.1.433.138.651a.254.254,0,0,0,.247.208h.042A.254.254,0,0,0,203.374,195.116Z" fill="#ffb74d" stroke="#fdb657" stroke-width="0.1"/>
      </g>
    </g>
    <g id="Grupo_94864" data-name="Grupo 94864">
      <g id="Grupo_94863" data-name="Grupo 94863">
        <path id="Trazado_151883" data-name="Trazado 151883" d="M204.452,192.205a.242.242,0,0,0-.048-.07l-.448-.467a.247.247,0,0,0-.245-.061l-.809.246-.947-1,2.126-1.184a.246.246,0,0,0,.121-.327.242.242,0,0,0-.048-.07l-.6-.6a.248.248,0,0,0-.245-.057l-2.694.815-.907-.962a.818.818,0,0,0-.933-.222h-.015a1,1,0,0,0-.543.543.862.862,0,0,0-.054.2l-.1-.035a.254.254,0,1,0-.156.483c.13.043.26.09.391.139a.965.965,0,0,0,.137.169l.955.907-.274.9a5.958,5.958,0,1,0,1.26,1.214l.433-.781,1,.947-.242.8a.244.244,0,0,0,.06.25s.5.491.507.508a.245.245,0,0,0,.335-.09l0-.005.661-1.213,1.194-.651A.246.246,0,0,0,204.452,192.205Zm-12.626.334a5.427,5.427,0,0,1,3.844-1.589c.113,0,.225,0,.338.01a1.517,1.517,0,0,1,.034,2.418,11.885,11.885,0,0,1-1.218,1.123,5.336,5.336,0,0,0-1.425,1.522c-.261.588-.07,1.121.982,1.586a2.748,2.748,0,0,1,.923.551l.005,0-.011,0a2.093,2.093,0,0,1-.8.136,4.113,4.113,0,0,1-2.889-1.391c-.507-.452-.928-.827-1.366-.831A5.427,5.427,0,0,1,191.826,192.539Zm9.3,3.852h0a5.452,5.452,0,0,1-3.756,5.18,1.773,1.773,0,0,1,.208-1.152,4.2,4.2,0,0,1,1.015-1.116c1.56-1.3,1.648-2.029,1.716-2.589.042-.353.074-.617.773-1A5.5,5.5,0,0,1,201.125,196.391Zm-.315-1.829a5.2,5.2,0,0,1,.186.651c-1.063.541-1.111.926-1.175,1.452-.057.474-.132,1.093-1.542,2.27a4.605,4.605,0,0,0-1.133,1.256,2.245,2.245,0,0,0-.254,1.51,5.45,5.45,0,0,1-6.659-5.119c.269,0,.617.32,1.045.7a4.562,4.562,0,0,0,3.242,1.522,2.534,2.534,0,0,0,1.014-.192.5.5,0,0,0,.281-.318.482.482,0,0,0-.122-.442,3.164,3.164,0,0,0-1.1-.691c-.716-.317-.871-.624-.731-.939a5.27,5.27,0,0,1,1.292-1.353,12.25,12.25,0,0,0,1.27-1.183c.707-.805,1.07-1.683.352-2.643a5.4,5.4,0,0,1,2.2,1l-.389,1.283a.248.248,0,0,0,.059.251s.631.625.651.637a.245.245,0,0,0,.335-.089l0,0,.493-.89A5.439,5.439,0,0,1,200.81,194.562Zm2.268-1.889-.218.108a.245.245,0,0,0-.112.113l-.108.22-.421.761-.123-.135.245-.81a.247.247,0,0,0-.08-.261l-1.334-1.256a.245.245,0,0,0-.347,0l-.006.007c-.017.019-1.218,2.181-1.218,2.181l-.262-.262.819-2.7a.247.247,0,0,0-.08-.262l-1.062-1a.353.353,0,0,1-.1-.406.53.53,0,0,1,.275-.274h.009a.354.354,0,0,1,.4.1l1.014,1.072a.244.244,0,0,0,.25.068l2.706-.817.262.262-2.147,1.181a.245.245,0,0,0-.1.332l0,.006c.01.019,1.3,1.4,1.3,1.4a.245.245,0,0,0,.25.066l.813-.245.127.127Z" fill="#ffb74d" stroke="#fdb657" stroke-width="0.1"/>
      </g>
    </g>
    <g id="Grupo_94866" data-name="Grupo 94866">
      <g id="Grupo_94865" data-name="Grupo 94865">
        <path id="Trazado_151884" data-name="Trazado 151884" d="M202.425,199.8l-.011-.006a.255.255,0,0,0-.339.1c-.106.194-.223.385-.348.568a.254.254,0,0,0,.416.293c.132-.2.257-.4.372-.608A.253.253,0,0,0,202.425,199.8Z" fill="#ffb74d" stroke="#fdb657" stroke-width="0.1"/>
      </g>
    </g>
    <g id="Grupo_94868" data-name="Grupo 94868">
      <g id="Grupo_94867" data-name="Grupo 94867">
        <path id="Trazado_151885" data-name="Trazado 151885" d="M203.227,196.1a.254.254,0,0,0-.257.251v.039c0,.221-.01.444-.031.666a.254.254,0,0,0,.23.275h.024a.252.252,0,0,0,.255-.235c.022-.235.033-.473.033-.71v-.034A.255.255,0,0,0,203.227,196.1Z" fill="#ffb74d" stroke="#fdb657" stroke-width="0.1"/>
      </g>
    </g>
    <g id="Grupo_94870" data-name="Grupo 94870">
      <g id="Grupo_94869" data-name="Grupo 94869">
        <path id="Trazado_151886" data-name="Trazado 151886" d="M194.32,203.548a5.411,5.411,0,0,1-.649-.149.253.253,0,1,0-.168.478l.029.009c.227.064.46.12.694.169h.047a.255.255,0,1,0,.047-.507Z" fill="#ffb74d" stroke="#fdb657" stroke-width="0.1"/>
      </g>
    </g>
    <g id="Grupo_94872" data-name="Grupo 94872">
      <g id="Grupo_94871" data-name="Grupo 94871">
        <path id="Trazado_151887" data-name="Trazado 151887" d="M198.245,203.471a.254.254,0,0,0-.308-.157v.007a4.989,4.989,0,0,1-.64.169.254.254,0,0,0,.111.5c.23-.053.462-.117.687-.19A.253.253,0,0,0,198.245,203.471Z" fill="#ffb74d" stroke="#fdb657" stroke-width="0.1"/>
      </g>
    </g>
    <g id="Grupo_94874" data-name="Grupo 94874">
      <g id="Grupo_94873" data-name="Grupo 94873">
        <path id="Trazado_151888" data-name="Trazado 151888" d="M192.58,202.995c-.2-.1-.4-.208-.59-.317a.254.254,0,0,0-.257.438c.205.121.416.232.631.339a.254.254,0,0,0,.216-.46Z" fill="#ffb74d" stroke="#fdb657" stroke-width="0.1"/>
      </g>
    </g>
    <g id="Grupo_94876" data-name="Grupo 94876">
      <g id="Grupo_94875" data-name="Grupo 94875">
        <path id="Trazado_151889" data-name="Trazado 151889" d="M201.347,201.363a.253.253,0,0,0-.354.012h0a6.132,6.132,0,0,1-.477.465.254.254,0,0,0,.338.379c.169-.158.348-.325.507-.5A.252.252,0,0,0,201.347,201.363Z" fill="#ffb74d" stroke="#fdb657" stroke-width="0.1"/>
      </g>
    </g>
    <g id="Grupo_94878" data-name="Grupo 94878">
      <g id="Grupo_94877" data-name="Grupo 94877">
        <path id="Trazado_151890" data-name="Trazado 151890" d="M199.948,202.628a.254.254,0,0,0-.348-.087l-.012.007v-.006c-.186.118-.381.23-.577.338a.254.254,0,1,0,.232.451c.21-.108.418-.228.617-.355A.254.254,0,0,0,199.948,202.628Z" fill="#ffb74d" stroke="#fdb657" stroke-width="0.1"/>
      </g>
    </g>
  </g>
</svg>
