<svg xmlns="http://www.w3.org/2000/svg" width="20.271" height="16" viewBox="0 0 20.271 16">
  <g id="Grupo_99763" data-name="Grupo 99763" transform="translate(-600 -1808.848)">
    <g id="Grupo_98628" data-name="Grupo 98628" transform="translate(351.268 1554.836)">
      <path id="Trazado_155891" data-name="Trazado 155891" d="M266.077,260.4a1.141,1.141,0,1,0,1.1,1.14,1.123,1.123,0,0,0-1.1-1.14Z" fill="#5038a1"/>
      <path id="Trazado_155892" data-name="Trazado 155892" d="M268.109,259.631a2.868,2.868,0,0,0-4.057-.006l-.006.006a3.078,3.078,0,0,0-.888,1.968,2.871,2.871,0,0,0,.175,1.186,3.126,3.126,0,0,0,.673,1.066l2.072,2.206,2.071-2.206a3.144,3.144,0,0,0,.674-1.066A2.887,2.887,0,0,0,269,261.6a3.078,3.078,0,0,0-.888-1.968Zm-2.032,3.579a1.667,1.667,0,1,1,1.63-1.667,1.65,1.65,0,0,1-1.63,1.667Z" fill="#5038a1"/>
      <path id="Trazado_155893" data-name="Trazado 155893" d="M265.936,267.586a1.21,1.21,0,0,0-1.042.593l-11.056-5.229a1.215,1.215,0,1,0-.191.491l11.081,5.242c0,.038-.005.077-.005.116a1.213,1.213,0,1,0,1.212-1.213h0Z" fill="#5038a1"/>
      <path id="Trazado_155894" data-name="Trazado 155894" d="M255.021,260.685l2.377-4.105-1.99.786-1.255,3.319Z" fill="#5038a1"/>
      <path id="Trazado_155895" data-name="Trazado 155895" d="M253.011,254.366l1.874,1.207,1.058-.521-2.531-.93Z" fill="#5038a1"/>
      <path id="Trazado_155896" data-name="Trazado 155896" d="M252.015,258.565a.671.671,0,0,0,.23-.04l2.531-.974.181-.48a.267.267,0,0,1,.15-.152l2.8-1.106a.263.263,0,0,1,.341.148.259.259,0,0,1,0,.186l2.915-1.154a.418.418,0,0,0-.011-.782,3.326,3.326,0,0,0-2.642.162l-6.336,3.119a.264.264,0,0,1-.266-.019l-1.5-1.036a1.521,1.521,0,0,0-1.429-.164l-.252.1,2.267,1.84a1.537,1.537,0,0,0,1.016.352Z" fill="#5038a1"/>
    </g>
  </g>
</svg>
