<svg xmlns="http://www.w3.org/2000/svg" width="370.686" height="110.752" viewBox="0 0 370.686 110.752">
  <g id="Grupo_99767" data-name="Grupo 99767" transform="translate(-209.314 -9324)">
    <g id="Grupo_94607" data-name="Grupo 94607" transform="translate(-1200.82 8403.097)">
      <g id="Grupo_94748" data-name="Grupo 94748" transform="translate(1635.41 1010.567)">
        <g id="Grupo_94745" data-name="Grupo 94745" transform="translate(0.601 0)">
          <path id="Trazado_151471" data-name="Trazado 151471" d="M1676.341,1041.206H1661.1l.057-17.821h8.051l.028.072Zm-15.008-.23H1676l-6.944-17.362h-7.668Z" transform="translate(-1661.103 -1023.385)" fill="#2b478b"/>
        </g>
        <g id="Grupo_94746" data-name="Grupo 94746" transform="translate(4.735 0)">
          <path id="Trazado_151472" data-name="Trazado 151472" d="M1684.833,1041.206H1665.7v-.23h18.8l-6.945-17.362H1665.7v-.229h12.009l.029.072Z" transform="translate(-1665.696 -1023.385)" fill="#2b478b"/>
        </g>
        <rect id="Rectángulo_24272" data-name="Rectángulo 24272" width="8.371" height="0.843" transform="translate(8.633 0.115)" fill="#2b478b"/>
        <rect id="Rectángulo_24273" data-name="Rectángulo 24273" width="8.371" height="0.843" transform="translate(10.124 3.872)" fill="#2b478b"/>
        <rect id="Rectángulo_24274" data-name="Rectángulo 24274" width="8.371" height="0.843" transform="translate(11.616 7.629)" fill="#2b478b"/>
        <rect id="Rectángulo_24275" data-name="Rectángulo 24275" width="8.359" height="0.843" transform="translate(13.275 11.387)" fill="#2b478b"/>
        <rect id="Rectángulo_24276" data-name="Rectángulo 24276" width="8.245" height="0.843" transform="translate(14.872 15.144)" fill="#2b478b"/>
        <path id="Trazado_151473" data-name="Trazado 151473" d="M1676.959,1044.759a.755.755,0,1,1,.755.755A.755.755,0,0,1,1676.959,1044.759Z" transform="translate(-1662.087 -1025.446)" fill="#2b478b"/>
        <g id="Grupo_94747" data-name="Grupo 94747" transform="translate(0.608 0.069)">
          <rect id="Rectángulo_24277" data-name="Rectángulo 24277" width="19.291" height="0.23" transform="matrix(0.411, -0.912, 0.912, 0.411, 0, 17.588)" fill="#2b478b"/>
        </g>
        <rect id="Rectángulo_24278" data-name="Rectángulo 24278" width="0.315" height="1.054" transform="translate(15.469 17.608)" fill="#2b478b"/>
        <path id="Trazado_151474" data-name="Trazado 151474" d="M1660.435,1044.8a.755.755,0,1,1,.756.755A.756.756,0,0,1,1660.435,1044.8Z" transform="translate(-1660.435 -1025.451)" fill="#2b478b"/>
        <rect id="Rectángulo_24279" data-name="Rectángulo 24279" width="0.315" height="1.054" transform="translate(0.598 17.647)" fill="#2b478b"/>
        <path id="Trazado_151475" data-name="Trazado 151475" d="M1685.943,1044.759a.755.755,0,1,1,.755.755A.755.755,0,0,1,1685.943,1044.759Z" transform="translate(-1662.985 -1025.446)" fill="#2b478b"/>
        <rect id="Rectángulo_24280" data-name="Rectángulo 24280" width="0.315" height="0.848" transform="translate(23.555 17.814)" fill="#2b478b"/>
      </g>
      <rect id="Rectángulo_24281" data-name="Rectángulo 24281" width="1.137" height="6.256" transform="translate(1594.604 1019.046)" fill="#2c3a64"/>
      <rect id="Rectángulo_24282" data-name="Rectángulo 24282" width="1.137" height="6.256" transform="translate(1597.162 1019.046)" fill="#2c3a64"/>
      <g id="Grupo_94749" data-name="Grupo 94749" transform="translate(1598.151 1017.802)">
        <path id="Trazado_151476" data-name="Trazado 151476" d="M1619.334,1039.12l-.3-.391c.024-.019,2.449-1.877,1.885-3.472-.627-1.774-1.137-3.688-1.143-3.708l.474-.125c.005.018.51,1.915,1.131,3.669C1622.07,1037.026,1619.446,1039.035,1619.334,1039.12Z" transform="translate(-1619.038 -1031.424)" fill="#2c3a64"/>
      </g>
      <g id="Grupo_94750" data-name="Grupo 94750" transform="translate(1486.593 1018.64)">
        <path id="Trazado_151477" data-name="Trazado 151477" d="M1495.38,1039.848l-.293-.351c.023-.018,2.182-1.841,1.675-3.416-.557-1.731-1.008-3.6-1.013-3.619l.444-.107c0,.019.452,1.872,1,3.586C1497.8,1037.81,1495.478,1039.766,1495.38,1039.848Z" transform="translate(-1495.087 -1032.355)" fill="#233862"/>
      </g>
      <path id="Trazado_151478" data-name="Trazado 151478" d="M1621.927,1032.553h-9.792l-.042-5.949,9.818-.207Z" transform="translate(-20.192 -13.119)" fill="#699ff0"/>
      <path id="Trazado_151479" data-name="Trazado 151479" d="M1778.951,923.761l-9.582,51.051-.458-.013-49.561-1.26s22.24-6.892,24.337-9.841c1.974-2.78,22.622-35.476,29.2-39.39a2.333,2.333,0,0,1,1.046-.381Z" transform="translate(-30.916 -2.857)" fill="#f99746"/>
      <path id="Trazado_151480" data-name="Trazado 151480" d="M1768.911,974.86l-49.561-1.26s22.24-6.892,24.337-9.841c1.974-2.779,22.622-35.476,29.2-39.39-5.252,9.445-17.356,32.093-16.164,38.226C1757.861,968.438,1765.254,972.954,1768.911,974.86Z" transform="translate(-30.916 -2.918)" fill="#e27727" opacity="0.5"/>
      <path id="Trazado_151481" data-name="Trazado 151481" d="M1749.9,993.354c-.059.065-.121.129-.183.191a5.05,5.05,0,0,1-.394.355h0v0c-.068.056-.139.11-.212.164s-.148.1-.224.156h0v0c-.075.05-.154.1-.235.144s-.164.093-.247.137h0v0c-.082.043-.17.085-.257.124h0v0l-.076.033h0l-.08.037h0v0c-.029.011-.058.023-.086.036h0v0l-.091.039h0v0c-.032.012-.063.027-.1.041h0v0l-.1.042h0v0l-.105.046-.109.047h0v0c-.038.016-.075.031-.114.05s-.079.033-.119.052l-.251.108h0v0c-.043.017-.088.036-.131.056h0l-.137.057-.1.043c-.359.154-.758.326-1.2.511-.081.033-.164.069-.247.105-1.149.486-2.547,1.067-4.152,1.725l-.506.206c-.279.115-.567.232-.859.351l-.191.077c-.089.037-.179.073-.27.111l-.272.11-.278.112-.279.112-.283.114-.287.115-.286.115,0,0-.291.116-.21.086a.726.726,0,0,0-.084.034h0l-.3.117q-.749.3-1.528.61l-.911.363c-.264.1-.529.208-.8.314l-.607.24c-.791.31-1.6.629-2.436.951l-.5.2-.874.337-.8.311-.9.344c-9.974,3.826-22.093,8.205-33.388,11.625-.4.12-.792.239-1.185.355q-.3.089-.59.175-.59.175-1.175.345-1.757.512-3.475.985-.572.158-1.137.31l-.566.152-1.121.3c-.372.1-.741.192-1.109.284s-.732.184-1.1.274-.724.178-1.083.264-.714.17-1.067.253-.705.162-1.054.24l-.52.116q-1.037.23-2.04.431c-.167.034-.332.069-.5.1-.33.065-.658.129-.984.189-.648.122-1.285.235-1.908.337q-.7.117-1.378.215c-.3.044-.6.086-.891.123-.44.06-.873.112-1.295.158q-.846.093-1.642.152c-.266.021-.527.037-.783.051q-.193.012-.384.019-.378.018-.743.026c-.088,0-.178,0-.272.007h-.067c-.059,0-.118,0-.178,0l-.727.016-.209,0-.262,0-.414.01-.226,0-.23,0-.475.01c-.163,0-.327.006-.5.01l-.255.005-.651.013-.311.006-.673.014c-.1,0-.2,0-.295.007-.282,0-.572.011-.867.017l-2.62.052c-.114,0-.228.006-.344.006l-.7.015-1.086.022c-.15,0-.3,0-.448.008-.348.006-.7.013-1.058.021l-.388.008-.745.013-.817.016c-.145,0-.288,0-.435.008l-.411.008-.658.013q-1.909.035-3.974.076l-.6.011c-.305,0-.613.01-.924.017l-2.2.042c-.057,0-.116,0-.174,0-.644.011-1.3.023-1.958.037h-.093l-12.669.23c-.227,0-.455.006-.683.012l-2.752.048-1.75.031c-.031,0-.065,0-.1,0q-1,.016-2.017.035c-.083,0-.166,0-.251,0q-1.785.029-3.61.063l-.936.015-.284.005q-1.6.026-3.219.054l-1.418.023-.942.016c-.637.009-1.278.021-1.92.031l-2.892.048c-.088,0-.175,0-.261,0-.4.005-.8.013-1.2.02h-.084l-3.589.058-.1,0-2.5.041c-.536.007-1.072.018-1.611.026l-1,.017-4.2.065h-.037l-7.022.106-.967.015h-.068l-3.1.046-.956.013q-1.333.021-2.669.04l-5.427.075-3.428.048q-1.077.012-2.152.029l-5.115.067c-.081,0-.162,0-.243,0l-3.2.04-4.53.054-1.807.021c-.185,0-.366,0-.548.007l-3.626.041-.531.006-2.465.026c-3.469.036-6.88.071-10.209.1l-1.2.011-.731.006-.975.008q-.972.006-1.932.016c-12.416.1-23.495.14-32.058.09q-1.309-.006-2.537-.017c-2.032-.017-3.9-.041-5.574-.072-4.749-.082-7.993-.221-9.294-.418-7.026-1.074-18.9-4.527-26.366-8.582-4.5-2.447-7.4-5.113-6.657-7.608.944-3.176,3.451-5.279,6.076-6.9,2.276-1.41,4.64-2.456,6.148-3.531.088-.064.173-.124.254-.188a5.456,5.456,0,0,0,.722-.651c.033-.039.067-.072.1-.118a39.756,39.756,0,0,1,2.877-2.922,38.191,38.191,0,0,1,3.351-2.721.142.142,0,0,0,.021-.014c5.79-4.179,15.689-8.964,31.431-9.333,0,0,30.826-.514,69.3-1.04h0l11.707-.158h0l3.979-.053h0l6.022-.078h0q5.043-.065,10.142-.127,1.021-.012,2.044-.026l4.078-.049,8.172-.1,4.07-.047c18.844-.21,37.269-.379,52.989-.461h0l1.839-.009c6.856-.032,13.165-.046,18.73-.04,2.663,0,5.156.014,7.457.027,8.331.052,14.151.176,16.438.4,5.941.569,12.562,1,18.6,1.311.5.027.991.052,1.479.076l.075,0q1.123.058,2.208.106l.067,0q1.257.059,2.453.112c1.164.049,2.282.095,3.339.136l1.337.051c5.207.193,8.666.272,8.666.272s.029.089.079.256c0,.014.008.029.013.044l.043.148c.031.108.066.235.1.378.049.19.1.409.164.653v0q.022.091.043.186h0c.047.2.1.423.146.657.034.164.069.334.1.508.017.1.036.194.054.294s.04.218.057.329c.027.159.052.321.078.487.009.067.019.133.028.2.016.118.032.237.048.356.008.062.016.124.023.186.015.12.029.241.041.364l.019.188c.012.123.023.249.033.374C1751.9,988.383,1751.637,991.44,1749.9,993.354Z" transform="translate(-3.417 -8.238)" fill="#afcdfb"/>
      <path id="Trazado_151482" data-name="Trazado 151482" d="M1779.211,995.093c-1.616.734-6.464,2.787-13.13,5.438a21.935,21.935,0,0,0-10.968-12.662l27.019-5.666C1782.911,985.544,1784.006,992.915,1779.211,995.093Z" transform="translate(-34.492 -8.701)" fill="#739af0"/>
      <g id="Grupo_94751" data-name="Grupo 94751" transform="translate(1492.748 982.121)">
        <path id="Trazado_151483" data-name="Trazado 151483" d="M1618.1,997.386h0a1.74,1.74,0,0,1-1.645-1.818l-.01-1.94a1.758,1.758,0,0,1,1.626-1.849h0a1.74,1.74,0,0,1,1.644,1.818l.01,1.941A1.757,1.757,0,0,1,1618.1,997.386Z" transform="translate(-1513.376 -991.779)" fill="#699ff0"/>
        <path id="Trazado_151484" data-name="Trazado 151484" d="M1608.731,997.473h0a1.738,1.738,0,0,1-1.644-1.817l-.01-1.942a1.757,1.757,0,0,1,1.626-1.848h0a1.739,1.739,0,0,1,1.644,1.818l.01,1.941A1.755,1.755,0,0,1,1608.731,997.473Z" transform="translate(-1512.439 -991.788)" fill="#699ff0"/>
        <path id="Trazado_151485" data-name="Trazado 151485" d="M1599.359,997.561h0a1.74,1.74,0,0,1-1.645-1.818l-.01-1.942a1.755,1.755,0,0,1,1.625-1.847h0a1.739,1.739,0,0,1,1.645,1.818l.01,1.94A1.757,1.757,0,0,1,1599.359,997.561Z" transform="translate(-1511.502 -991.797)" fill="#699ff0"/>
        <path id="Trazado_151486" data-name="Trazado 151486" d="M1589.988,997.648h0a1.738,1.738,0,0,1-1.646-1.818l-.01-1.941a1.758,1.758,0,0,1,1.626-1.849h0a1.74,1.74,0,0,1,1.644,1.818l.01,1.94A1.755,1.755,0,0,1,1589.988,997.648Z" transform="translate(-1510.565 -991.805)" fill="#699ff0"/>
        <path id="Trazado_151487" data-name="Trazado 151487" d="M1580.616,997.736h0a1.739,1.739,0,0,1-1.644-1.818l-.01-1.941a1.757,1.757,0,0,1,1.625-1.849h0a1.74,1.74,0,0,1,1.645,1.818l.01,1.941A1.757,1.757,0,0,1,1580.616,997.736Z" transform="translate(-1509.628 -991.814)" fill="#699ff0"/>
        <path id="Trazado_151488" data-name="Trazado 151488" d="M1571.244,997.823h0A1.74,1.74,0,0,1,1569.6,996l-.01-1.94a1.757,1.757,0,0,1,1.626-1.849h0a1.739,1.739,0,0,1,1.644,1.818l.01,1.941A1.757,1.757,0,0,1,1571.244,997.823Z" transform="translate(-1508.691 -991.822)" fill="#699ff0"/>
        <path id="Trazado_151489" data-name="Trazado 151489" d="M1561.872,997.91h0a1.738,1.738,0,0,1-1.644-1.817l-.01-1.941a1.757,1.757,0,0,1,1.625-1.849h0a1.74,1.74,0,0,1,1.645,1.818l.01,1.942A1.757,1.757,0,0,1,1561.872,997.91Z" transform="translate(-1507.754 -991.831)" fill="#699ff0"/>
        <path id="Trazado_151490" data-name="Trazado 151490" d="M1552.5,998h0a1.74,1.74,0,0,1-1.645-1.818l-.01-1.941a1.757,1.757,0,0,1,1.626-1.848h0a1.739,1.739,0,0,1,1.644,1.818l.01,1.94A1.757,1.757,0,0,1,1552.5,998Z" transform="translate(-1506.817 -991.84)" fill="#699ff0"/>
        <path id="Trazado_151491" data-name="Trazado 151491" d="M1543.129,998.085h0a1.738,1.738,0,0,1-1.644-1.818l-.01-1.94a1.756,1.756,0,0,1,1.625-1.848h0a1.739,1.739,0,0,1,1.645,1.818l.01,1.94A1.755,1.755,0,0,1,1543.129,998.085Z" transform="translate(-1505.88 -991.849)" fill="#699ff0"/>
        <path id="Trazado_151492" data-name="Trazado 151492" d="M1533.944,998.171h0a1.74,1.74,0,0,1-1.644-1.818l-.01-1.941a1.756,1.756,0,0,1,1.626-1.848h0a1.738,1.738,0,0,1,1.644,1.818l.01,1.94A1.757,1.757,0,0,1,1533.944,998.171Z" transform="translate(-1504.962 -991.857)" fill="#699ff0"/>
        <path id="Trazado_151493" data-name="Trazado 151493" d="M1524.572,998.258h0a1.739,1.739,0,0,1-1.644-1.818l-.01-1.94a1.757,1.757,0,0,1,1.625-1.849h0a1.74,1.74,0,0,1,1.645,1.818l.011,1.941A1.758,1.758,0,0,1,1524.572,998.258Z" transform="translate(-1504.025 -991.866)" fill="#699ff0"/>
        <path id="Trazado_151494" data-name="Trazado 151494" d="M1515.2,998.346h0a1.74,1.74,0,0,1-1.645-1.818l-.009-1.941a1.757,1.757,0,0,1,1.626-1.848h0a1.74,1.74,0,0,1,1.645,1.818l.01,1.941A1.758,1.758,0,0,1,1515.2,998.346Z" transform="translate(-1503.088 -991.875)" fill="#699ff0"/>
        <path id="Trazado_151495" data-name="Trazado 151495" d="M1503.58,998.346h0a1.74,1.74,0,0,1-1.644-1.818l-.01-1.941a1.758,1.758,0,0,1,1.626-1.848h0a1.74,1.74,0,0,1,1.645,1.818l.01,1.941A1.758,1.758,0,0,1,1503.58,998.346Z" transform="translate(-1501.926 -991.875)" fill="#699ff0"/>
      </g>
      <g id="Grupo_94752" data-name="Grupo 94752" transform="translate(1671.074 982.238)">
        <path id="Trazado_151496" data-name="Trazado 151496" d="M1720.461,997.516h0a1.739,1.739,0,0,1-1.645-1.818l-.01-1.941a1.757,1.757,0,0,1,1.626-1.849h0a1.739,1.739,0,0,1,1.644,1.818l.011,1.941A1.757,1.757,0,0,1,1720.461,997.516Z" transform="translate(-1701.936 -991.909)" fill="#699ff0"/>
        <path id="Trazado_151497" data-name="Trazado 151497" d="M1711.088,997.6h0a1.739,1.739,0,0,1-1.644-1.818l-.01-1.942a1.755,1.755,0,0,1,1.626-1.847h0a1.739,1.739,0,0,1,1.645,1.817l.01,1.942A1.758,1.758,0,0,1,1711.088,997.6Z" transform="translate(-1700.999 -991.918)" fill="#699ff0"/>
        <path id="Trazado_151498" data-name="Trazado 151498" d="M1701.717,997.691h0a1.738,1.738,0,0,1-1.644-1.818l-.011-1.941a1.757,1.757,0,0,1,1.626-1.849h0a1.739,1.739,0,0,1,1.644,1.818l.01,1.94A1.756,1.756,0,0,1,1701.717,997.691Z" transform="translate(-1700.062 -991.926)" fill="#699ff0"/>
      </g>
      <g id="Grupo_94753" data-name="Grupo 94753" transform="translate(1489.56 980.483)">
        <path id="Trazado_151499" data-name="Trazado 151499" d="M1501.675,1006.678a3.275,3.275,0,0,1-2.32-.943,3.038,3.038,0,0,1-.922-2.16l-.049-10.431a3.215,3.215,0,0,1,3.241-3.16l2.608-.024a3.269,3.269,0,0,1,2.351.944,3.037,3.037,0,0,1,.921,2.159l.049,10.431a3.215,3.215,0,0,1-3.24,3.161l-2.609.023Zm2.588-16.463h-.029l-2.608.023a2.96,2.96,0,0,0-2.988,2.9l.05,10.431a2.789,2.789,0,0,0,.846,1.979,3.028,3.028,0,0,0,2.169.869l2.607-.023a2.959,2.959,0,0,0,2.988-2.9l-.05-10.431a2.786,2.786,0,0,0-.846-1.978A3.022,3.022,0,0,0,1504.263,990.214Z" transform="translate(-1498.383 -989.959)" fill="#699ff0"/>
      </g>
      <path id="Trazado_151500" data-name="Trazado 151500" d="M1466.874,990.321l-5.189,5.927-3.382.546a5.544,5.544,0,0,0,.721-.651c.034-.038.066-.072.1-.117A39.985,39.985,0,0,1,1462,993.1a38.209,38.209,0,0,1,3.352-2.721l.02-.014Z" transform="translate(-4.816 -9.512)" fill="#2b478b"/>
      <path id="Trazado_151501" data-name="Trazado 151501" d="M1468.667,990.406l-5.049,5.966,6.451.736,1.4-6.392Z" transform="translate(-5.348 -9.521)" fill="#2b478b"/>
      <path id="Trazado_151502" data-name="Trazado 151502" d="M1472.925,990.9l-.912,5.965,4.558-1.782-.088-4.087Z" transform="translate(-6.187 -9.57)" fill="#2b478b"/>
      <rect id="Rectángulo_24283" data-name="Rectángulo 24283" width="11.505" height="5.888" transform="translate(1479.932 1014.51)" fill="#699ff0"/>
      <rect id="Rectángulo_24284" data-name="Rectángulo 24284" width="1.009" height="5.578" transform="translate(1483.462 1020.379)" fill="#233862"/>
      <rect id="Rectángulo_24285" data-name="Rectángulo 24285" width="1.009" height="5.578" transform="translate(1485.731 1020.379)" fill="#233862"/>
      <path id="Trazado_151504" data-name="Trazado 151504" d="M1489.521,1041.829a3.433,3.433,0,1,1,3.428,3.264A3.349,3.349,0,0,1,1489.521,1041.829Z" transform="translate(-7.937 -14.336)" fill="#233862"/>
      <ellipse id="Elipse_5033" data-name="Elipse 5033" cx="2.072" cy="1.972" rx="2.072" ry="1.972" transform="translate(1482.94 1025.58)" fill="#cae0ff"/>
      <g id="Grupo_94754" data-name="Grupo 94754" transform="translate(1591.574 1022.052)">
        <path id="Trazado_151505" data-name="Trazado 151505" d="M1611.73,1040.646a4.786,4.786,0,1,1,4.777,4.5A4.645,4.645,0,0,1,1611.73,1040.646Z" transform="translate(-1611.73 -1036.146)" fill="#2b478b"/>
        <path id="Trazado_151506" data-name="Trazado 151506" d="M1613.83,1040.933a2.892,2.892,0,1,1,2.887,2.719A2.808,2.808,0,0,1,1613.83,1040.933Z" transform="translate(-1611.94 -1036.353)" fill="#cae0ff"/>
      </g>
      <path id="Trazado_151507" data-name="Trazado 151507" d="M1603.258,1027.219c2.364-1.2,2.6-5.535.391-7.175s-5.166-3.215-8.316-3.142c-6.477.149-2.612,13-.452,13.063C1596.151,1030,1600.111,1028.812,1603.258,1027.219Z" transform="translate(-18.158 -12.17)" fill="#739af0"/>
      <path id="Trazado_151508" data-name="Trazado 151508" d="M1754.186,984.685c.225-.373,23.411-10.558,39.388-8.624l-14.161,10.932-24.428.237A1.613,1.613,0,0,1,1754.186,984.685Z" transform="translate(-34.364 -8.062)" fill="#2b478b"/>
      <g id="Grupo_94755" data-name="Grupo 94755" transform="translate(1566.078 922.479)">
        <path id="Trazado_151509" data-name="Trazado 151509" d="M1720.295,925.512s-12.635,36.952-15.171,42.62-8.876,9.739-8.876,9.739l-.039.018L1655.4,999.206s-53.365.892-65.013.726h0c-1.057-.017-1.77-.042-2.068-.076-3.574-.41-5.368-1.878-4.817-3.22s81.047-18.9,89.967-20.772c.084-.019.169-.038.254-.053,8.676-1.876,9.207-4.939,9.207-4.939l29.91-41.724a4.632,4.632,0,0,1,1.79-1.838A15.821,15.821,0,0,1,1720.295,925.512Z" transform="translate(-1583.401 -925.512)" fill="#739af0"/>
        <path id="Trazado_151510" data-name="Trazado 151510" d="M1714.626,927.51c-7.991,11.84-30.1,44.5-32.278,46.784-2.342,2.461-74.288,21.2-91.962,25.839h0c-1.057-.017-1.77-.042-2.068-.075-3.574-.411-5.368-1.879-4.817-3.22s81.047-18.9,89.967-20.773,9.46-4.992,9.46-4.992l29.91-41.724A4.632,4.632,0,0,1,1714.626,927.51Z" transform="translate(-1583.401 -925.712)" fill="#e58638"/>
        <path id="Trazado_151511" data-name="Trazado 151511" d="M1730.328,925.512s-12.635,36.952-15.171,42.62-8.876,9.739-8.876,9.739l-.038.018a70.943,70.943,0,0,1-22.49-2.077c8.676-1.876,9.206-4.939,9.206-4.939l29.91-41.724a4.639,4.639,0,0,1,1.789-1.838A15.824,15.824,0,0,1,1730.328,925.512Z" transform="translate(-1593.435 -925.512)" fill="#2b478b"/>
      </g>
      <path id="Trazado_151515" data-name="Trazado 151515" d="M1452.862,1009.565a17.25,17.25,0,0,1-1.778,6.59c-4.5-2.447-7.4-5.113-6.657-7.608.944-3.176,3.451-5.279,6.076-6.9l.056.134S1453.338,1004.163,1452.862,1009.565Z" transform="translate(-3.417 -10.645)" fill="#ff9843"/>
      <g id="P297LW" transform="translate(1496.773 1003.096)">
        <path id="Trazado_151516" data-name="Trazado 151516" d="M1512.553,1022s.36,2.056.757,4.206c.429,2.335.9,4.78.988,4.811.17.059.426-.279.542-.563a13.38,13.38,0,0,0,.186-3.21,6.186,6.186,0,0,0-.082-.693c-.163-.77-.187-3.492-.694-3.925A4.461,4.461,0,0,0,1512.553,1022Z" transform="translate(-1507.013 -1015.776)" fill="#ffb27d"/>
        <path id="Trazado_151517" data-name="Trazado 151517" d="M1515.082,1031.01a1.2,1.2,0,0,0,.04.666c.127.331.154.424-.082.609s-.492.445-.67.368-.067-1.586-.067-1.586Z" transform="translate(-1507.184 -1016.676)" fill="#ffb27d"/>
        <path id="Trazado_151518" data-name="Trazado 151518" d="M1514.358,1045.563c-.219-.134-.094-1.133-.094-1.133s1.022-.818,1.164-.192.971.907,1.444.984a.509.509,0,0,1,.459.341Z" transform="translate(-1507.181 -1017.975)" fill="#233862"/>
        <path id="Trazado_151519" data-name="Trazado 151519" d="M1509.313,1045.563c-.219-.134-.1-1.133-.1-1.133s1.024-.818,1.164-.192.972.907,1.445.984a.508.508,0,0,1,.459.341Z" transform="translate(-1506.676 -1017.975)" fill="#233862"/>
        <path id="Trazado_151520" data-name="Trazado 151520" d="M1510.851,1032.478c.363,1.538.822,3.294,1,4.284.021.115.038.22.051.312s.021.173.025.24a20.539,20.539,0,0,0,1.823,6.194c.4.153,1.044-.172,1.379-.278a.288.288,0,0,0,.2-.326,71.269,71.269,0,0,1-1.27-10.958c-.05-1.434-.114-2.453-.114-2.453s-3.576-.954-3.6.253A15.93,15.93,0,0,0,1510.851,1032.478Z" transform="translate(-1506.793 -1016.488)" fill="#2a4e96"/>
        <path id="Trazado_151521" data-name="Trazado 151521" d="M1510.907,1032.666c.364,1.538.822,3.294,1,4.284.021.115.13,1.088.144,1.181l.626-7.112-.887.082Z" transform="translate(-1506.848 -1016.677)" fill="#192e4f"/>
        <path id="Trazado_151522" data-name="Trazado 151522" d="M1511.918,1019.983v.175s.048.548-.626.627-1.185-.213-1.167-.635a4.876,4.876,0,0,0,.132-.822,1.9,1.9,0,0,0-.024-.328l1.306-.026.384.063Z" transform="translate(-1506.77 -1015.473)" fill="#ffb27d"/>
        <path id="Trazado_151523" data-name="Trazado 151523" d="M1511.934,1018.97l-.005.946a1.1,1.1,0,0,1-.471.1,1.458,1.458,0,0,1-1.191-.76,1.8,1.8,0,0,0-.024-.328l1.306-.026Z" transform="translate(-1506.782 -1015.466)" fill="#ed975d"/>
        <path id="Trazado_151524" data-name="Trazado 151524" d="M1512.068,1030.182l-1.261,13.179a3.53,3.53,0,0,1-1.778.069s-.491-7.206-.445-8.967-.4-4.713.1-5.038S1512.068,1030.182,1512.068,1030.182Z" transform="translate(-1506.603 -1016.511)" fill="#2a4e96"/>
        <path id="Trazado_151525" data-name="Trazado 151525" d="M1511.975,1019.18s-1.672.339-1.867-.707-.541-1.7.518-1.965,1.342.1,1.492.433S1512.4,1019.066,1511.975,1019.18Z" transform="translate(-1506.747 -1015.218)" fill="#ffb27d"/>
        <path id="Trazado_151526" data-name="Trazado 151526" d="M1510.146,1018.658s-.581.131-.636-.927c-.022-.408-.124-1.839,1.041-1.789a2.371,2.371,0,0,1,1.8.849c.8.9-1.139.229-1.4.438s-.012.551-.306.674-.528.123-.477.392S1510.146,1018.658,1510.146,1018.658Z" transform="translate(-1506.708 -1015.169)" fill="#233862"/>
        <path id="Trazado_151527" data-name="Trazado 151527" d="M1512.471,1016.726a5.745,5.745,0,0,1-.842.233l-1.031.071-1.412.248a1.883,1.883,0,0,1,.415-1.707h0a.661.661,0,0,1,.053-.048,1.843,1.843,0,0,1,.771-.379C1512.113,1014.72,1512.464,1016.664,1512.471,1016.726Z" transform="translate(-1506.671 -1015.084)" fill="#ff9e55"/>
        <g id="Grupo_94756" data-name="Grupo 94756" transform="translate(2.916 0.437)">
          <path id="Trazado_151528" data-name="Trazado 151528" d="M1511.7,1016.977l-.267.035a3.625,3.625,0,0,0-1.794-1.374l.013-.018h0c.014-.017.025-.026.045-.051l.009,0A3.911,3.911,0,0,1,1511.7,1016.977Z" transform="translate(-1509.638 -1015.569)" fill="#e27830"/>
        </g>
        <path id="Trazado_151529" data-name="Trazado 151529" d="M1510.6,1017.246a1.144,1.144,0,0,0-.229.4c-.047.2-.964.317-1.027.214a2.776,2.776,0,0,1-.156-.368Z" transform="translate(-1506.677 -1015.3)" fill="#ff9e55"/>
        <path id="Trazado_151530" data-name="Trazado 151530" d="M1510.761,1017.181a6.838,6.838,0,0,0,2.46-.375.072.072,0,0,0-.015-.134,3.227,3.227,0,0,0-.639-.072A3.312,3.312,0,0,1,1510.761,1017.181Z" transform="translate(-1506.834 -1015.235)" fill="#e27830"/>
        <path id="Trazado_151531" data-name="Trazado 151531" d="M1506.787,1022.926a6.978,6.978,0,0,1,1.136-2.061,4.3,4.3,0,0,1,1.3-.481c.139-.032.264-.059.361-.079.126-.026.2-.04.207-.04h0a.564.564,0,0,0,.236.3,1.617,1.617,0,0,0,.866.2.717.717,0,0,0,.688-.516h0l.093.029c.087.028.23.075.4.139a2.241,2.241,0,0,1,1.361.851,6.461,6.461,0,0,1,.712,1.87,3.784,3.784,0,0,1-.958.6.206.206,0,0,1-.073,0c.032,4.44.234,5.124.139,5.124a2.6,2.6,0,0,1-1.935.571,10.515,10.515,0,0,1-1.422-.106c-1.122-.167-1.44-.4-1.435-.515s.061-2.915.074-3.065a9.573,9.573,0,0,0,.029-1.9A4.607,4.607,0,0,1,1506.787,1022.926Z" transform="translate(-1506.437 -1015.6)" fill="#2a4e96"/>
        <path id="Trazado_151532" data-name="Trazado 151532" d="M1513.988,1030.62a12.935,12.935,0,0,1-1.666.149q-.265.011-.563.011c-.448,0-.942-.016-1.465-.066-.183-.016-.371-.037-.562-.062a13.48,13.48,0,0,1-1.466-.276l.075-1.139.024-.378.025-.378.026-.377.309-4.694.172-2.916.641-.156.044.064.274.419a1.195,1.195,0,0,0,1.772.232,1.189,1.189,0,0,0,.324-.449l.1-.248.111.041.643.236.462,3.113.458,4.381.039.374.038.367.039.375Z" transform="translate(-1506.585 -1015.609)" fill="#ff9843"/>
        <path id="Trazado_151533" data-name="Trazado 151533" d="M1510.809,1027.418a1.189,1.189,0,0,1,.414-.206c.18-.026.484-.141.434-.034s-.381.275-.381.275Z" transform="translate(-1506.839 -1016.288)" fill="#ffb27d"/>
        <g id="Grupo_94757" data-name="Grupo 94757" transform="translate(1.807 12.494)">
          <path id="Trazado_151534" data-name="Trazado 151534" d="M1513.781,1029.364a8.068,8.068,0,0,1-2.465.359c-.354,0-.691-.019-.994-.049a12.338,12.338,0,0,1-1.917-.331l.026-.377a9.92,9.92,0,0,0,5.311.023Z" transform="translate(-1508.405 -1028.966)" fill="#fff"/>
        </g>
        <g id="Grupo_94758" data-name="Grupo 94758" transform="translate(1.757 13.248)">
          <path id="Trazado_151535" data-name="Trazado 151535" d="M1513.853,1030.189a7.987,7.987,0,0,1-2.543.383c-.355,0-.69-.019-.994-.047a12.5,12.5,0,0,1-1.967-.344l.024-.378a9.913,9.913,0,0,0,5.44.01Z" transform="translate(-1508.35 -1029.804)" fill="#fff"/>
        </g>
        <path id="Trazado_151536" data-name="Trazado 151536" d="M1506.538,1026.488a12.945,12.945,0,0,0,3.51,1.363s.309-.4.215-.576c-.071-.13-2.27-1.545-2.281-1.588-.03-.108.342-.774.553-1.531a5.682,5.682,0,0,1-1.693-.842C1506.569,1024.263,1506.188,1025.733,1506.538,1026.488Z" transform="translate(-1506.398 -1015.907)" fill="#ffb27d"/>
        <g id="Grupo_94759" data-name="Grupo 94759" transform="translate(4.236 8.344)">
          <path id="Trazado_151537" data-name="Trazado 151537" d="M1511.288,1028.488l.915.112a.21.21,0,0,0,.226-.148l.626-2.076a.21.21,0,0,0-.175-.268l-.915-.112a.21.21,0,0,0-.226.148l-.626,2.076A.209.209,0,0,0,1511.288,1028.488Z" transform="translate(-1511.104 -1024.519)" fill="#233862"/>
          <path id="Trazado_151538" data-name="Trazado 151538" d="M1511.647,1028.532l.916.112a.21.21,0,0,0,.226-.148l.626-2.076a.211.211,0,0,0-.176-.269l-.915-.111a.209.209,0,0,0-.226.148l-.626,2.076A.209.209,0,0,0,1511.647,1028.532Z" transform="translate(-1511.14 -1024.523)" fill="#192e4f"/>
          <path id="Trazado_151539" data-name="Trazado 151539" d="M1512.383,1026.271h0a.063.063,0,0,0,.065-.041l.613-1.822a.039.039,0,0,0-.032-.053h0a.065.065,0,0,0-.065.042l-.613,1.821A.038.038,0,0,0,1512.383,1026.271Z" transform="translate(-1511.228 -1024.354)" fill="#192e4f"/>
        </g>
        <path id="Trazado_151540" data-name="Trazado 151540" d="M1510.3,1027.4a.453.453,0,0,0,.278.07.771.771,0,0,0,.291-.11c.117-.079.375.026.451.077.213.142.933.136.933.279a1.107,1.107,0,0,1-.692.66,2.538,2.538,0,0,1-1.123-.126Z" transform="translate(-1506.788 -1016.309)" fill="#ffb27d"/>
      </g>
      <g id="Grupo_94763" data-name="Grupo 94763" transform="translate(1599.968 1011.45)">
        <path id="Trazado_151541" data-name="Trazado 151541" d="M1626.681,1036.545a1.792,1.792,0,0,0-.7.231c-.132.148-.213.264-.132.329a7.663,7.663,0,0,0,1.337-.256Z" transform="translate(-1621.533 -1025.584)" fill="#ffb27d"/>
        <path id="Trazado_151542" data-name="Trazado 151542" d="M1628.128,1034.308l-1.534,1.964a.7.7,0,0,0,.561.313,2.7,2.7,0,0,0,1.337-.313C1628.492,1036.189,1628.128,1034.308,1628.128,1034.308Z" transform="translate(-1621.611 -1025.361)" fill="#2c3a64"/>
        <path id="Trazado_151543" data-name="Trazado 151543" d="M1622.891,1038.755c.446.514,1.388.847,3.2.931q.219.01.44.016c.152,0,.3.008.455.01.494.007.985,0,1.453-.014s.885-.04,1.277-.073a8.351,8.351,0,0,0,1.693-.263.6.6,0,0,0,.2-.1.347.347,0,0,0,.078-.1,1.276,1.276,0,0,0-.084-.944,9.11,9.11,0,0,0-.82-1.588l-.133-.207c-.077-.116-.123-.183-.123-.183s-.849.078-2.01.228c-.236.031-.487.065-.745.1-2.5.354-4.986.988-4.983,1.831A.465.465,0,0,0,1622.891,1038.755Z" transform="translate(-1621.23 -1025.554)" fill="#2b478b"/>
        <path id="Trazado_151544" data-name="Trazado 151544" d="M1626.337,1039.862c.152,0,.854.035,1.006.037.495.007.985,0,1.453-.014l.44-1.773A7.176,7.176,0,0,1,1626.337,1039.862Z" transform="translate(-1621.585 -1025.741)" fill="#2c3a64"/>
        <path id="Trazado_151545" data-name="Trazado 151545" d="M1627.7,1045.589h-2.421a.43.43,0,0,1,.354-.251c.382-.068,1.043-.274.959-.824s.842-.63.842-.63A6.5,6.5,0,0,1,1627.7,1045.589Z" transform="translate(-1621.479 -1026.318)" fill="#2c3a64"/>
        <path id="Trazado_151546" data-name="Trazado 151546" d="M1622.858,1038.84s3,4.724,3.253,5.285c0,0,1.022.1,1.267-.634,0,0-1.785-4.985-2.569-5.4S1622.858,1038.84,1622.858,1038.84Z" transform="translate(-1621.237 -1025.73)" fill="#2b478b"/>
        <g id="Grupo_94760" data-name="Grupo 94760" transform="translate(3.585)">
          <path id="Trazado_151547" data-name="Trazado 151547" d="M1629.362,1027.728s-1.035,1.415-1.956,1.491a2.8,2.8,0,0,1,.253-.662.45.45,0,0,0-.005-.444l-.049-.085a5.292,5.292,0,0,1-.26-.512l.423-.767.087-.412a2.8,2.8,0,0,0,.25.519A1.963,1.963,0,0,0,1629.362,1027.728Z" transform="translate(-1625.271 -1024.563)" fill="#ffb27d"/>
          <path id="Trazado_151548" data-name="Trazado 151548" d="M1628.145,1026.893a1.191,1.191,0,0,1-.54,1.18,5.283,5.283,0,0,1-.26-.512l.423-.766C1628.106,1026.743,1628.145,1026.893,1628.145,1026.893Z" transform="translate(-1625.271 -1024.609)" fill="#ed975d"/>
          <path id="Trazado_151549" data-name="Trazado 151549" d="M1627.047,1027.827s1.3-.706.845-1.507-.591-1.432-1.437-1.015-.835.813-.748,1.117S1626.7,1027.99,1627.047,1027.827Z" transform="translate(-1625.103 -1024.447)" fill="#ffb27d"/>
          <path id="Trazado_151550" data-name="Trazado 151550" d="M1627.825,1024.644c.007-.02.033-.044.1-.073a.281.281,0,0,0-.138.013.363.363,0,0,0-.339-.215.218.218,0,0,1,.153.109c-.259-.121-.708-.109-1.77.4-1.4.672-.56,1.427-.33,1.467s.582-.449.941-.555.622.379.767.4.05-.082.182-.216.251.128.272.321.33.338.33.338l.128-.328a2.74,2.74,0,0,0-.245-1.616Z" transform="translate(-1625.04 -1024.367)" fill="#2b478b"/>
        </g>
        <path id="Trazado_151551" data-name="Trazado 151551" d="M1636.667,1044.034s.3.458.372.606a.439.439,0,0,1-.275.512c-.182.041-.209.366-.209.366h.884a.233.233,0,0,0,.214-.132,3.15,3.15,0,0,0,.178-.75,1.8,1.8,0,0,0,.111-.717c-.046-.255-.481-.4-1.276-.4C1635.795,1043.521,1636.667,1044.034,1636.667,1044.034Z" transform="translate(-1622.579 -1026.281)" fill="#233862"/>
        <path id="Trazado_151552" data-name="Trazado 151552" d="M1633.185,1036.9c-.667.707-5.565-.755-5.154-1.128.1-.095.068-.208.111-.361a5.036,5.036,0,0,0-.375-2.44c-.04-.111-.068-.181-.074-.2a8.376,8.376,0,0,1-.377-1.365,3.978,3.978,0,0,1,.062-2.16l0-.006c.917-.268,1.423-1.618,1.423-1.618s2.906.825,3.961,4.973c0,0,.055.265.121.661h0c.02.122.041.257.063.4.113.738.177,1.684.245,2.389l.008.074C1633.237,1036.427,1633.295,1036.782,1633.185,1036.9Z" transform="translate(-1621.671 -1024.692)" fill="#f99746"/>
        <path id="Trazado_151553" data-name="Trazado 151553" d="M1629.462,1037.15s.488.064,1.473.137c1.021.076,2.1.236,2.278.58a1.471,1.471,0,0,1-.1.8,19.263,19.263,0,0,1-1.558,3.542c1.789.1,4.223.5,4.223.5a1.075,1.075,0,0,1,.232.978c-.128,0-.512.054-1.036.139a48.247,48.247,0,0,1-5.643.933.688.688,0,0,1-.643-.513h0C1628.1,1042.449,1629.462,1037.15,1629.462,1037.15Z" transform="translate(-1621.805 -1025.645)" fill="#2b478b"/>
        <path id="Trazado_151554" data-name="Trazado 151554" d="M1633.227,1037.34c-.667.708-5.977-.723-5.568-1.1a1.268,1.268,0,0,0,.17-.22,1.763,1.763,0,0,0,.2-.392l0-.008a1.875,1.875,0,0,0,.057-.326,2.8,2.8,0,0,0,.014-.414,5.269,5.269,0,0,0-.293-1.472c-.041-.112-.069-.181-.074-.2l.253-.252.925-.923a4.58,4.58,0,0,0,.791.662,5.713,5.713,0,0,0,3.225,1c.02.123.04.257.063.4.041.278.078.583.108.9.014.139.029.277.041.416.018.208.037.414.053.611.013.153.026.3.041.438,0,.011,0,.019,0,.029s.007.048.009.073C1633.28,1036.868,1633.339,1037.222,1633.227,1037.34Z" transform="translate(-1621.715 -1025.134)" fill="#f99746"/>
        <path id="Trazado_151555" data-name="Trazado 151555" d="M1621.487,1035.96a3.746,3.746,0,0,0,.916-.281c.431-.041.016-.465.016-.465a7.393,7.393,0,0,0-.792-.14,1.1,1.1,0,0,0-.164.031l.073.174s-.472.072-.478.2S1621.338,1035.96,1621.487,1035.96Z" transform="translate(-1621.057 -1025.437)" fill="#ffb27d"/>
        <path id="Trazado_151556" data-name="Trazado 151556" d="M1622.417,1034.769c-.1-.3.042-.394.042-.394s2.956-1.4,3.2-1.557a34.122,34.122,0,0,0,1.868-3.115s.6-1.211,1.371-1.187a1.381,1.381,0,0,1,1.243.872,1.4,1.4,0,0,1-.253,1.554,37.4,37.4,0,0,1-3.124,3.075,17.564,17.564,0,0,1-4.1,1.133A1.009,1.009,0,0,1,1622.417,1034.769Z" transform="translate(-1621.189 -1024.781)" fill="#2b478b"/>
        <g id="Grupo_94761" data-name="Grupo 94761" transform="translate(6.375 9.75)">
          <path id="Trazado_151557" data-name="Trazado 151557" d="M1633.194,1035.728a7.047,7.047,0,0,1-1.952.239,15.665,15.665,0,0,1-3.1-.353,2.852,2.852,0,0,0,.014-.414,11.788,11.788,0,0,0,5,.113C1633.167,1035.451,1633.181,1035.589,1633.194,1035.728Z" transform="translate(-1628.14 -1035.2)" fill="#fff"/>
        </g>
        <g id="Grupo_94762" data-name="Grupo 94762" transform="translate(6.114 10.49)">
          <path id="Trazado_151558" data-name="Trazado 151558" d="M1633.258,1036.86a7.646,7.646,0,0,1-1.448.127,16.67,16.67,0,0,1-3.96-.566,1.737,1.737,0,0,0,.2-.391l0-.008a13.511,13.511,0,0,0,5.164.4C1633.231,1036.575,1633.244,1036.721,1633.258,1036.86Z" transform="translate(-1627.85 -1036.022)" fill="#fff"/>
        </g>
      </g>
      <g id="Grupo_94770" data-name="Grupo 94770" transform="translate(1704.379 970.609)">
        <rect id="Rectángulo_24286" data-name="Rectángulo 24286" width="6.038" height="0.974" transform="translate(10.904 24.762)" fill="#e27727"/>
        <g id="Grupo_94764" data-name="Grupo 94764" transform="translate(10.797 20.576)">
          <path id="Trazado_151559" data-name="Trazado 151559" d="M1755.314,1012.5h-6.252v-8.986a1.908,1.908,0,0,1,2.08-1.66h2.091a1.908,1.908,0,0,1,2.08,1.66Zm-6.037-.171h5.824v-8.815a1.712,1.712,0,0,0-1.867-1.489h-2.091a1.712,1.712,0,0,0-1.866,1.489Z" transform="translate(-1749.063 -1001.85)" fill="#2b478b"/>
        </g>
        <g id="Grupo_94768" data-name="Grupo 94768" transform="translate(4.014 0)">
          <path id="Trazado_151560" data-name="Trazado 151560" d="M1758.153,991.218c-.255.2-.558-.005-.948-.136s.1-.569.1-.569a.12.12,0,0,0,.037-.011,3.46,3.46,0,0,1,.769-.229.715.715,0,0,1,.2,0C1758.777,990.367,1758.408,991.015,1758.153,991.218Z" transform="translate(-1743.078 -980.115)" fill="#ed975d"/>
          <path id="Trazado_151561" data-name="Trazado 151561" d="M1758.185,990.61l-.146.168-.545.035s-.074-.18-.125-.311a2.113,2.113,0,0,1,.953-.246Z" transform="translate(-1743.11 -980.114)" fill="#ffb27d"/>
          <g id="Grupo_94765" data-name="Grupo 94765" transform="translate(11.678 3.875)">
            <rect id="Rectángulo_24287" data-name="Rectángulo 24287" width="0.26" height="12.543" transform="matrix(0.883, 0.47, -0.47, 0.883, 5.897, 1.819)" fill="#2c3a64"/>
            <path id="Trazado_151562" data-name="Trazado 151562" d="M1763.228,985.835l-4.448-.874.592-1.668,4.447.874Z" transform="translate(-1754.929 -983.293)" fill="#f99746"/>
          </g>
          <path id="Trazado_151563" data-name="Trazado 151563" d="M1758.625,990.418s-.338.153-.376.323-.023.455.1.427a.67.67,0,0,0,.349-.483A.52.52,0,0,0,1758.625,990.418Z" transform="translate(-1743.196 -980.13)" fill="#ed975d"/>
          <path id="Trazado_151564" data-name="Trazado 151564" d="M1746.6,984.113a7.6,7.6,0,0,0-1.589.956c-.239.316.9.592.9.592l.917-.721Z" transform="translate(-1741.871 -979.5)" fill="#2a4e96"/>
          <path id="Trazado_151565" data-name="Trazado 151565" d="M1757.315,990.851a.449.449,0,0,0,.3.178c.169,0,.7.023.743-.075s-.292-.352-.439-.347S1757.434,990.634,1757.315,990.851Z" transform="translate(-1743.105 -980.149)" fill="#ffb27d"/>
          <path id="Trazado_151566" data-name="Trazado 151566" d="M1756.509,990.338c.043-.333-.126-.4-.126-.4s-3.363-.811-3.646-.918a36.053,36.053,0,0,1-2.607-2.819s-.885-1.122-1.673-.931a1.456,1.456,0,0,0-1.1,1.172,1.474,1.474,0,0,0,.6,1.552,39.333,39.333,0,0,0,3.9,2.5,18.52,18.52,0,0,0,4.485.286A1.06,1.06,0,0,0,1756.509,990.338Z" transform="translate(-1742.105 -979.614)" fill="#1f437c"/>
          <path id="Trazado_151567" data-name="Trazado 151567" d="M1751.909,1013.35l-2.82.016a.265.265,0,0,1-.061-.017c-.188-.093-.133-.814-.111-1.037,0-.041.006-.066.006-.066s.988-.8,1.128-.193c0,.019.009.038.014.056h0c.176.567.947.821,1.392.891A.484.484,0,0,1,1751.909,1013.35Z" transform="translate(-1742.262 -982.271)" fill="#2c3a64"/>
          <path id="Trazado_151568" data-name="Trazado 151568" d="M1746.5,984.5a1.793,1.793,0,0,0,1.949.251,3.174,3.174,0,0,0,.07-.977c-.008-.049-.015-.1-.022-.141-.07-.45-.1-.7-.1-.7h0c-.051-.011-1.7-.385-1.687-.332A2.768,2.768,0,0,1,1746.5,984.5Z" transform="translate(-1742.024 -979.348)" fill="#ffb27d"/>
          <path id="Trazado_151569" data-name="Trazado 151569" d="M1746.965,982.884a2.441,2.441,0,0,0,1.583.774c-.07-.45-.1-.7-.1-.7h0A10.171,10.171,0,0,0,1746.965,982.884Z" transform="translate(-1742.07 -979.375)" fill="#ed975d"/>
          <path id="Trazado_151570" data-name="Trazado 151570" d="M1748.679,982.546s-1.664.7-2.084-.344-.916-1.656.128-2.146,1.413-.176,1.638.138S1749.1,982.338,1748.679,982.546Z" transform="translate(-1741.984 -979.069)" fill="#ffb27d"/>
          <path id="Trazado_151571" data-name="Trazado 151571" d="M1746.6,982.406c-.021.019-.374.2-1.317-1.092a1.245,1.245,0,0,1-.116-1.133,2.26,2.26,0,0,1,1.43-1.08,1.3,1.3,0,0,1,1.6.382,1.239,1.239,0,0,0,.157.2.44.44,0,0,1-.368.734,1.685,1.685,0,0,0-.651-.014c-.26.133-.284.581-.281.722s-.01.262-.375.2-.073.514,0,.622C1746.68,981.943,1746.778,982.246,1746.6,982.406Z" transform="translate(-1741.882 -978.988)" fill="#2a4e96"/>
          <path id="Trazado_151572" data-name="Trazado 151572" d="M1743.765,1013.273l-1.064.005c-.223,0-.472-.22-.537-.629s-.524-.629-.625-.963.405-.808.405-.808l.084-.11.088-.115.844.194s.022.2.036.456c.01.185.016.4.007.585-.022.447.13.926.526,1.011S1743.765,1013.273,1743.765,1013.273Z" transform="translate(-1741.526 -982.154)" fill="#2c3a64"/>
          <path id="Trazado_151573" data-name="Trazado 151573" d="M1750.877,995.411s.029,1.894-.135,4.154c-.224,3.07-.494,6.841-.517,7.555-.043,1.24-.231,3.224-.231,3.224a1.562,1.562,0,0,1-1.412.28,32.487,32.487,0,0,1-1.111-5.82l-.012-.149c-.239-3.047-.622-9.467-.622-9.467Z" transform="translate(-1742.057 -980.607)" fill="#2a4e96"/>
          <path id="Trazado_151574" data-name="Trazado 151574" d="M1750.288,995.8s.3.674-.231,2.877a52.572,52.572,0,0,1-2.587,6.126l-.012-.149c-.239-3.047-.622-9.467-.622-9.467Z" transform="translate(-1742.057 -980.607)" fill="#1f437c"/>
          <path id="Trazado_151575" data-name="Trazado 151575" d="M1750,995.316s-2.8,7.17-4.569,10.377-2.322,4.1-2.322,4.1-1.025-.4-1.12-.682c0,0,.649-6.178,1.837-7.69a11.041,11.041,0,0,0,1.235-4.354,12.3,12.3,0,0,1,.169-1.622Z" transform="translate(-1741.573 -980.62)" fill="#2a4e96"/>
          <path id="Trazado_151576" data-name="Trazado 151576" d="M1750.807,995.035c-2.745.3-5.779-.023-5.775-.256,0-.207-.007-.7-.022-1.335,0-.118-.007-.24-.01-.365,0-.153-.007-.31-.011-.47,0-.12-.007-.243-.01-.369-.052-1.739-.118-3.728-.128-3.9-.045-.764.4-.884.472-1.546.128-1.231-1.753-1.637,1.214-2.669.087-.028.326.144.755.33a1.521,1.521,0,0,0,1.078-.034l.454.412a4.75,4.75,0,0,1,1.044,1.734,50.347,50.347,0,0,1,.734,5.678c.011.124.022.246.033.364.014.159.028.313.039.463.011.125.02.246.029.364C1750.778,994.385,1750.819,995.033,1750.807,995.035Z" transform="translate(-1741.858 -979.5)" fill="#f99746"/>
          <path id="Trazado_151577" data-name="Trazado 151577" d="M1743.2,995.048a1.361,1.361,0,0,0,0,.469c.049.19.3.719.38.69.3-.1.087-.7.189-.766.066-.041.007.241.064.3s.14-.2.151-.341-.187-.4-.187-.4Z" transform="translate(-1741.691 -980.588)" fill="#ffb27d"/>
          <path id="Trazado_151578" data-name="Trazado 151578" d="M1743.456,994.127c.288-.021.325-.156.325-.156s.388-3.424.449-3.72a36.242,36.242,0,0,1,2.37-3.02s.967-1.052.653-1.8a1.458,1.458,0,0,0-1.331-.9,1.494,1.494,0,0,0-1.463.814,38.15,38.15,0,0,0-1.83,4.266,17.343,17.343,0,0,0,.486,4.43S1743.193,994.146,1743.456,994.127Z" transform="translate(-1741.632 -979.542)" fill="#2a4e96"/>
          <g id="Grupo_94766" data-name="Grupo 94766" transform="translate(3.12 12.739)">
            <path id="Trazado_151579" data-name="Trazado 151579" d="M1750.649,993.507a21.851,21.851,0,0,1-2.758.166,25.711,25.711,0,0,1-2.886-.162q-.006-.18-.011-.369a24.159,24.159,0,0,0,5.623,0Q1750.633,993.33,1750.649,993.507Z" transform="translate(-1744.993 -993.142)" fill="#fff"/>
          </g>
          <g id="Grupo_94767" data-name="Grupo 94767" transform="translate(3.142 13.567)">
            <path id="Trazado_151580" data-name="Trazado 151580" d="M1750.719,994.425a22.111,22.111,0,0,1-2.826.173,25.252,25.252,0,0,1-2.865-.16c0-.118-.008-.24-.011-.365a24.276,24.276,0,0,0,5.673-.011C1750.7,994.187,1750.71,994.309,1750.719,994.425Z" transform="translate(-1745.017 -994.062)" fill="#fff"/>
          </g>
        </g>
        <rect id="Rectángulo_24288" data-name="Rectángulo 24288" width="17.003" height="2.885" transform="translate(1.716 56.227)" fill="#f99746"/>
        <path id="Trazado_151581" data-name="Trazado 151581" d="M1737.55,1044.241a1.2,1.2,0,1,1,1.2,1.189A1.194,1.194,0,0,1,1737.55,1044.241Z" transform="translate(-1737.114 -985.393)" fill="#2b478b"/>
        <path id="Trazado_151582" data-name="Trazado 151582" d="M1738.206,1044.306a.611.611,0,1,1,.611.6A.607.607,0,0,1,1738.206,1044.306Z" transform="translate(-1737.18 -985.458)" fill="#f99746"/>
        <path id="Trazado_151583" data-name="Trazado 151583" d="M1756.478,1044.241a1.2,1.2,0,1,1,1.2,1.189A1.195,1.195,0,0,1,1756.478,1044.241Z" transform="translate(-1739.007 -985.393)" fill="#2b478b"/>
        <path id="Trazado_151584" data-name="Trazado 151584" d="M1757.134,1044.306a.612.612,0,1,1,.612.6A.608.608,0,0,1,1757.134,1044.306Z" transform="translate(-1739.073 -985.458)" fill="#f99746"/>
        <rect id="Rectángulo_24289" data-name="Rectángulo 24289" width="20.434" height="2.212" transform="translate(0 54.26)" fill="#2b478b"/>
        <path id="Trazado_151585" data-name="Trazado 151585" d="M1756.062,1036.742l-7.229-3.731,7.01-3.625-.488-.282-6.644-3.646,7.042-3.74-.358-.341-6.683-3.667,7.042-3.741-.224-.412-7.31,3.884-7.073-3.882-.23.41,6.808,3.735-6.806,3.615-.307.186.3.213,6.808,3.736-7.283,3.771,7.371,3.789-7.2,3.731.22.415,7.492-3.882,7.521,3.882Zm-14.527-15.222,6.68-3.548,6.684,3.667-6.68,3.548Zm.024,7.736,6.656-3.535,6.638,3.642-6.531,3.383Z" transform="translate(-1737.404 -982.444)" fill="#2b478b"/>
        <rect id="Rectángulo_24290" data-name="Rectángulo 24290" width="7.164" height="1.031" transform="translate(3.078 24.823)" fill="#f99746"/>
        <g id="Grupo_94769" data-name="Grupo 94769" transform="translate(2.962 20.63)">
          <path id="Trazado_151586" data-name="Trazado 151586" d="M1747.753,1012.57h-7.4v-8.853a2.078,2.078,0,0,1,2.266-1.808h2.866a2.077,2.077,0,0,1,2.265,1.808Zm-7.163-.186h6.932v-8.666a1.865,1.865,0,0,0-2.033-1.623h-2.866a1.866,1.866,0,0,0-2.033,1.623Z" transform="translate(-1740.357 -1001.909)" fill="#2c3a64"/>
        </g>
        <rect id="Rectángulo_24291" data-name="Rectángulo 24291" width="17.889" height="1.099" transform="translate(0.833 30.931)" fill="#2b478b"/>
      </g>
      <rect id="Rectángulo_24292" data-name="Rectángulo 24292" width="370.686" height="0.983" rx="0.492" transform="translate(1410.134 1030.672)" fill="#2e3552"/>
      <circle id="Elipse_5035" data-name="Elipse 5035" cx="0.147" cy="0.147" r="0.147" transform="translate(1447.656 994.153)" fill="#2a4e96"/>
      <path id="Trazado_151587" data-name="Trazado 151587" d="M1452.345,1009.628a.147.147,0,1,1,.147.146A.147.147,0,0,1,1452.345,1009.628Z" transform="translate(-4.22 -11.428)" fill="#2a4e96"/>
      <path id="Trazado_151588" data-name="Trazado 151588" d="M1452.345,1014.628a.147.147,0,1,1,.147.147A.146.146,0,0,1,1452.345,1014.628Z" transform="translate(-4.22 -11.928)" fill="#2a4e96"/>
      <path id="Trazado_151589" data-name="Trazado 151589" d="M1446.807,1009.628a.147.147,0,1,1,.147.146A.147.147,0,0,1,1446.807,1009.628Z" transform="translate(-3.666 -11.428)" fill="#2a4e96"/>
      <g id="Grupo_94771" data-name="Grupo 94771" transform="translate(1457.256 1003.759)">
        <path id="Trazado_151590" data-name="Trazado 151590" d="M1468.289,1025.863h-5.8v-8.3a1.742,1.742,0,0,1,1.739-1.74h2.319a1.742,1.742,0,0,1,1.74,1.74Zm-5.62-.179h5.441v-8.124a1.562,1.562,0,0,0-1.56-1.562h-2.319a1.563,1.563,0,0,0-1.561,1.562Z" transform="translate(-1462.491 -1015.821)" fill="#2a4e96"/>
      </g>
      <rect id="Rectángulo_24293" data-name="Rectángulo 24293" width="5.619" height="0.227" transform="translate(1457.345 1007.709)" fill="#ff9843"/>
      <g id="Grupo_94775" data-name="Grupo 94775" transform="translate(1448.756 1013.65)">
        <g id="Grupo_94772" data-name="Grupo 94772" transform="translate(0.51 0)">
          <path id="Trazado_151591" data-name="Trazado 151591" d="M1466.541,1041.93h-12.927l.049-15.119h6.831l.024.061Zm-12.733-.195h12.445l-5.892-14.731h-6.506Z" transform="translate(-1453.613 -1026.811)" fill="#2a4e96"/>
        </g>
        <g id="Grupo_94773" data-name="Grupo 94773" transform="translate(4.017 0)">
          <path id="Trazado_151592" data-name="Trazado 151592" d="M1473.746,1041.931h-16.237v-.195h15.949l-5.892-14.73h-10.057v-.194H1467.7l.025.061Z" transform="translate(-1457.509 -1026.811)" fill="#2a4e96"/>
        </g>
        <rect id="Rectángulo_24294" data-name="Rectángulo 24294" width="7.102" height="0.715" transform="translate(7.324 0.097)" fill="#ff9843"/>
        <rect id="Rectángulo_24295" data-name="Rectángulo 24295" width="7.102" height="0.715" transform="translate(8.59 3.285)" fill="#ff9843"/>
        <rect id="Rectángulo_24296" data-name="Rectángulo 24296" width="7.102" height="0.715" transform="translate(9.855 6.473)" fill="#ff9843"/>
        <rect id="Rectángulo_24297" data-name="Rectángulo 24297" width="7.092" height="0.715" transform="translate(11.262 9.661)" fill="#ff9843"/>
        <rect id="Rectángulo_24298" data-name="Rectángulo 24298" width="6.996" height="0.715" transform="translate(12.617 12.849)" fill="#ff9843"/>
        <path id="Trazado_151593" data-name="Trazado 151593" d="M1467.065,1044.945a.641.641,0,1,1,.641.641A.641.641,0,0,1,1467.065,1044.945Z" transform="translate(-1454.448 -1028.56)" fill="#2a4e96"/>
        <g id="Grupo_94774" data-name="Grupo 94774" transform="translate(0.517 0.058)">
          <rect id="Rectángulo_24299" data-name="Rectángulo 24299" width="16.367" height="0.195" transform="translate(0 14.923) rotate(-65.754)" fill="#2a4e96"/>
        </g>
        <rect id="Rectángulo_24300" data-name="Rectángulo 24300" width="0.267" height="0.894" transform="translate(13.124 14.939)" fill="#2a4e96"/>
        <path id="Trazado_151594" data-name="Trazado 151594" d="M1453.046,1044.981a.641.641,0,1,1,.641.641A.641.641,0,0,1,1453.046,1044.981Z" transform="translate(-1453.046 -1028.564)" fill="#2a4e96"/>
        <rect id="Rectángulo_24301" data-name="Rectángulo 24301" width="0.267" height="0.894" transform="translate(0.507 14.972)" fill="#2a4e96"/>
        <path id="Trazado_151595" data-name="Trazado 151595" d="M1474.687,1044.945a.64.64,0,1,1,.641.641A.641.641,0,0,1,1474.687,1044.945Z" transform="translate(-1455.209 -1028.56)" fill="#2a4e96"/>
        <rect id="Rectángulo_24302" data-name="Rectángulo 24302" width="0.267" height="0.72" transform="translate(19.985 15.114)" fill="#2a4e96"/>
      </g>
      <g id="Grupo_94778" data-name="Grupo 94778" transform="translate(1447.716 990.703)">
        <rect id="Rectángulo_24303" data-name="Rectángulo 24303" width="0.217" height="1.72" transform="matrix(0.984, -0.179, 0.179, 0.984, 1.422, 6.4)" fill="#2a4e96"/>
        <rect id="Rectángulo_24304" data-name="Rectángulo 24304" width="0.114" height="1.72" transform="translate(1.323 5.567) rotate(-10.304)" fill="#2a4e96"/>
        <path id="Trazado_151596" data-name="Trazado 151596" d="M1453.088,1004.883a2.609,2.609,0,0,0-.442-.664,1.054,1.054,0,0,0-.747-.079c-.063.125.277.291.334.405s-.03.131.149.33a1.926,1.926,0,0,0,.514.327Z" transform="translate(-1451.891 -1001.594)" fill="#ffb27d"/>
        <path id="Trazado_151597" data-name="Trazado 151597" d="M1452.975,1004.881c.128-.2.167-.21.167-.21s2.121.846,2.324.917,3.229.248,3.229.248l.914,2.008s-4.034-.92-4.543-1.109a9.969,9.969,0,0,1-2.193-1.536A.669.669,0,0,1,1452.975,1004.881Z" transform="translate(-1451.99 -1001.65)" fill="#163560"/>
        <path id="Trazado_151598" data-name="Trazado 151598" d="M1452.558,1004.788l-.3-.122c-.11-.044-.206-.125-.252-.14-.107-.036.029.248.241.4a.868.868,0,0,0,.4.177C1452.716,1005.112,1452.558,1004.788,1452.558,1004.788Z" transform="translate(-1451.898 -1001.635)" fill="#ffb27d"/>
        <path id="Trazado_151599" data-name="Trazado 151599" d="M1458.586,1025.729a2.868,2.868,0,0,1-.185.92h-2.129a.378.378,0,0,1,.34-.3,1.558,1.558,0,0,0,1.1-.739C1457.93,1025.138,1458.586,1025.729,1458.586,1025.729Z" transform="translate(-1452.329 -1003.725)" fill="#163560"/>
        <path id="Trazado_151600" data-name="Trazado 151600" d="M1462.738,1025.391s.171,1.284-.011,1.3c-.024,0-.815-.022-1.089-.013-.383.012-1.01.007-1.01.007a.1.1,0,0,1-.091-.151.407.407,0,0,1,.289-.185,1.56,1.56,0,0,0,1.09-.758C1462.121,1025.12,1462.738,1025.391,1462.738,1025.391Z" transform="translate(-1452.754 -1003.714)" fill="#163560"/>
        <path id="Trazado_151601" data-name="Trazado 151601" d="M1457.731,1014.547a37.963,37.963,0,0,0,2.068,5.124,16.008,16.008,0,0,1,1.652,4.733l1.057-.05s-.1-3.87-.825-5.511-.872-6.131-.872-6.131Z" transform="translate(-1452.475 -1002.454)" fill="#233862"/>
        <path id="Trazado_151602" data-name="Trazado 151602" d="M1456.776,1012.961a46.64,46.64,0,0,0,.459,6.459,23.2,23.2,0,0,1,.332,5.072l1.2.04a24.142,24.142,0,0,0,.512-5.343c-.206-1.782.983-6.114.983-6.114Z" transform="translate(-1452.38 -1002.479)" fill="#2a4e96"/>
        <path id="Trazado_151603" data-name="Trazado 151603" d="M1459.256,1005.264l-.567.419-.819-.173c.012-.075.065-.384.114-.664l.009-.05c.043-.238.078-.443.078-.443l.765-.382.285-.142c0,.006-.022.265-.025.3A2.461,2.461,0,0,0,1459.256,1005.264Z" transform="translate(-1452.489 -1001.566)" fill="#ffb27d"/>
        <path id="Trazado_151604" data-name="Trazado 151604" d="M1457.9,1005.154a7.858,7.858,0,0,1,1.233-.292c.119.04.189.27.189.27l-1.692.482S1457.675,1005.251,1457.9,1005.154Z" transform="translate(-1452.465 -1001.669)" fill="#2a4e96"/>
        <path id="Trazado_151605" data-name="Trazado 151605" d="M1460.925,1012.369a2.63,2.63,0,0,1-.031.48c-.184.848-4.357.428-4.306-.092,0-.014.016-.209.032-.488v0l.024-.374c.007-.11.014-.226.022-.342s.016-.253.023-.377c.036-.583.07-1.11.073-1.136.07-.72.139-1.424.144-1.884a6.609,6.609,0,0,1,.131-1.178c.069-.342.151-.653.224-.894a.972.972,0,0,1,.27-.438.957.957,0,0,1,.309-.2.706.706,0,0,1,.1-.033,4.378,4.378,0,0,1,1.288-.251c.474.139.827.973,1.076,2.037a29.342,29.342,0,0,1,.578,4.074c.01.13.018.255.026.374s.011.238.015.346C1460.922,1012.133,1460.925,1012.258,1460.925,1012.369Z" transform="translate(-1452.361 -1001.698)" fill="#f99746"/>
        <path id="Trazado_151606" data-name="Trazado 151606" d="M1459.053,1004.161a2.317,2.317,0,0,1-1.055.7l.009-.049c.042-.239.078-.443.078-.443l.765-.382C1459.02,1003.985,1459.122,1004.029,1459.053,1004.161Z" transform="translate(-1452.502 -1001.582)" fill="#fca56b"/>
        <path id="Trazado_151607" data-name="Trazado 151607" d="M1457.662,1004.11s1.381.43,1.636-.433.6-1.39-.267-1.7-1.139-.033-1.294.235S1457.311,1003.976,1457.662,1004.11Z" transform="translate(-1452.451 -1001.367)" fill="#ffb27d"/>
        <path id="Trazado_151608" data-name="Trazado 151608" d="M1457.81,1002.075s.088,1,.3.961.4-.077.366.227-.318.653.322.706,1.56-1.6,1.385-1.911C1459.672,1001.156,1457.077,1000.975,1457.81,1002.075Z" transform="translate(-1452.47 -1001.315)" fill="#163560"/>
        <path id="Trazado_151609" data-name="Trazado 151609" d="M1454.491,1009.368a6.188,6.188,0,0,0-.567-.35,1.192,1.192,0,0,0-.4-.035c-.014.023-.054.095,0,.119s.117.015.1.032-.214-.076-.259.023-.083.44.144.543a2.6,2.6,0,0,0,.833.021C1454.681,1009.823,1454.491,1009.368,1454.491,1009.368Z" transform="translate(-1452.035 -1002.081)" fill="#ffb27d"/>
        <path id="Trazado_151610" data-name="Trazado 151610" d="M1454.6,1008.993a17.543,17.543,0,0,0,2.53.3c.329-.16-.128-2.517-.128-2.517a.679.679,0,0,1,.6-.661,1.5,1.5,0,0,1,1.066.3,1.227,1.227,0,0,1,.415.9c-.135,1.048-.345,3.177-1.045,3.5-.9.421-3.517-1.168-3.517-1.168a.454.454,0,0,1-.075-.3A.709.709,0,0,1,1454.6,1008.993Z" transform="translate(-1452.147 -1001.792)" fill="#2a4e96"/>
        <g id="Grupo_94776" data-name="Grupo 94776" transform="translate(4.304 9.476)">
          <path id="Trazado_151611" data-name="Trazado 151611" d="M1460.911,1012.317a9.686,9.686,0,0,1-1.743.149,13.372,13.372,0,0,1-2.494-.246c.008-.126.015-.253.023-.377a11.784,11.784,0,0,0,4.188.1Q1460.9,1012.138,1460.911,1012.317Z" transform="translate(-1456.674 -1011.843)" fill="#fff"/>
        </g>
        <g id="Grupo_94777" data-name="Grupo 94777" transform="translate(4.259 10.195)">
          <path id="Trazado_151612" data-name="Trazado 151612" d="M1460.929,1013.118a9.6,9.6,0,0,1-1.766.153,13.466,13.466,0,0,1-2.54-.253v0c.007-.114.015-.24.024-.374a11.735,11.735,0,0,0,4.274.1C1460.925,1012.881,1460.929,1013.007,1460.929,1013.118Z" transform="translate(-1456.623 -1012.642)" fill="#fff"/>
        </g>
      </g>
      <g id="Grupo_94781" data-name="Grupo 94781" transform="translate(1533.769 1003.271)">
        <rect id="Rectángulo_24305" data-name="Rectángulo 24305" width="0.262" height="2.07" transform="translate(10.057 9.741) rotate(-169.673)" fill="#2a4e96"/>
        <rect id="Rectángulo_24306" data-name="Rectángulo 24306" width="0.138" height="2.07" transform="translate(10.176 8.739) rotate(-169.677)" fill="#2a4e96"/>
        <path id="Trazado_151613" data-name="Trazado 151613" d="M1559.391,1019.574a3.143,3.143,0,0,1,.532-.8,1.266,1.266,0,0,1,.9-.095c.076.15-.51.383-.578.521s.214.124,0,.363a2.318,2.318,0,0,1-.619.4Z" transform="translate(-1548.693 -1015.615)" fill="#ffb27d"/>
        <path id="Trazado_151614" data-name="Trazado 151614" d="M1558.786,1019.573c-.155-.24-.2-.252-.2-.252s-2.553,1.019-2.8,1.1-3.888.3-3.888.3l-1.1,2.417s4.856-1.107,5.469-1.335a11.973,11.973,0,0,0,2.64-1.849A.8.8,0,0,0,1558.786,1019.573Z" transform="translate(-1547.833 -1015.683)" fill="#163560"/>
        <path id="Trazado_151615" data-name="Trazado 151615" d="M1560.1,1019.412s.129-.155.254-.3c.091-.108.147-.248.188-.291.094-.1.175.124.036.406a1.493,1.493,0,0,1-.415.487C1560.083,1019.764,1560.1,1019.412,1560.1,1019.412Z" transform="translate(-1548.763 -1015.631)" fill="#ffb27d"/>
        <path id="Trazado_151616" data-name="Trazado 151616" d="M1552.624,1044.67a3.435,3.435,0,0,0,.221,1.108h2.563a.456.456,0,0,0-.41-.366,1.877,1.877,0,0,1-1.327-.89C1553.413,1043.959,1552.624,1044.67,1552.624,1044.67Z" transform="translate(-1548.016 -1018.181)" fill="#163560"/>
        <path id="Trazado_151617" data-name="Trazado 151617" d="M1547.566,1044.532s-.169,1.116.05,1.136c.029,0,1.055,0,1.334.043a6.991,6.991,0,0,0,1.216.009.121.121,0,0,0,.109-.181.49.49,0,0,0-.349-.224,1.874,1.874,0,0,1-1.311-.912C1548.368,1043.835,1547.566,1044.532,1547.566,1044.532Z" transform="translate(-1547.504 -1018.169)" fill="#163560"/>
        <path id="Trazado_151618" data-name="Trazado 151618" d="M1553.323,1031.208a45.792,45.792,0,0,1-2.49,6.168,19.266,19.266,0,0,0-1.988,5.7l-1.272-.06s.12-4.659.991-6.634,1.051-7.38,1.051-7.38Z" transform="translate(-1547.51 -1016.651)" fill="#233862"/>
        <path id="Trazado_151619" data-name="Trazado 151619" d="M1554.645,1029.3a56.223,56.223,0,0,1-.553,7.775,27.874,27.874,0,0,0-.4,6.1l-1.446.048a29.035,29.035,0,0,1-.617-6.431c.247-2.145-1.183-7.359-1.183-7.359Z" transform="translate(-1547.798 -1016.681)" fill="#2a4e96"/>
        <path id="Trazado_151620" data-name="Trazado 151620" d="M1551.94,1020.033l.683.505.985-.207c-.014-.09-.078-.462-.138-.8l-.011-.059c-.05-.287-.095-.534-.095-.534l-.92-.459-.343-.171c0,.005.026.318.03.364A2.937,2.937,0,0,1,1551.94,1020.033Z" transform="translate(-1547.947 -1015.582)" fill="#ffb27d"/>
        <path id="Trazado_151621" data-name="Trazado 151621" d="M1553.527,1019.9a9.343,9.343,0,0,0-1.485-.352c-.144.047-.228.325-.228.325l2.036.581S1553.8,1020.019,1553.527,1019.9Z" transform="translate(-1547.935 -1015.706)" fill="#2a4e96"/>
        <path id="Trazado_151622" data-name="Trazado 151622" d="M1549.537,1028.587a3.134,3.134,0,0,0,.038.577c.223,1.021,5.245.514,5.182-.11,0-.018-.017-.251-.037-.587v0c-.009-.138-.018-.289-.03-.451-.009-.131-.017-.272-.026-.411s-.018-.305-.027-.454c-.044-.7-.085-1.336-.089-1.367-.084-.868-.167-1.715-.173-2.268a7.952,7.952,0,0,0-.158-1.418c-.082-.411-.182-.785-.269-1.076a1.163,1.163,0,0,0-.324-.526,1.183,1.183,0,0,0-.372-.239,1.143,1.143,0,0,0-.116-.039,5.277,5.277,0,0,0-1.55-.3c-.571.166-1,1.172-1.3,2.452a35.208,35.208,0,0,0-.7,4.9c-.01.156-.021.307-.03.449s-.014.287-.018.419C1549.542,1028.3,1549.537,1028.454,1549.537,1028.587Z" transform="translate(-1547.707 -1015.741)" fill="#f99746"/>
        <path id="Trazado_151623" data-name="Trazado 151623" d="M1552.226,1018.705a2.8,2.8,0,0,0,1.27.845l-.011-.059c-.05-.287-.095-.534-.095-.534l-.921-.459C1552.267,1018.494,1552.143,1018.546,1552.226,1018.705Z" transform="translate(-1547.974 -1015.601)" fill="#fca56b"/>
        <path id="Trazado_151624" data-name="Trazado 151624" d="M1553.764,1018.644s-1.662.518-1.969-.521-.728-1.673.319-2.047,1.372-.04,1.559.282S1554.188,1018.482,1553.764,1018.644Z" transform="translate(-1547.898 -1015.342)" fill="#ffb27d"/>
        <path id="Trazado_151625" data-name="Trazado 151625" d="M1553.529,1016.2s-.106,1.21-.356,1.157-.477-.091-.44.274.384.785-.388.85-1.88-1.923-1.668-2.3C1551.288,1015.089,1554.412,1014.869,1553.529,1016.2Z" transform="translate(-1547.819 -1015.279)" fill="#163560"/>
        <path id="Trazado_151626" data-name="Trazado 151626" d="M1557.7,1024.974a7.382,7.382,0,0,1,.681-.421,1.435,1.435,0,0,1,.482-.042c.017.028.065.114,0,.143s-.14.019-.118.039.258-.091.313.029.1.529-.173.652a3.124,3.124,0,0,1-1,.026C1557.47,1025.521,1557.7,1024.974,1557.7,1024.974Z" transform="translate(-1548.517 -1016.201)" fill="#ffb27d"/>
        <path id="Trazado_151627" data-name="Trazado 151627" d="M1557.112,1024.523a21.08,21.08,0,0,1-3.046.355c-.4-.193.154-3.031.154-3.031a.818.818,0,0,0-.728-.8,1.811,1.811,0,0,0-1.282.357,1.477,1.477,0,0,0-.5,1.082c.162,1.26.415,3.823,1.257,4.216,1.087.507,4.233-1.405,4.233-1.405a.553.553,0,0,0,.09-.366A.853.853,0,0,0,1557.112,1024.523Z" transform="translate(-1547.924 -1015.854)" fill="#2a4e96"/>
        <g id="Grupo_94779" data-name="Grupo 94779" transform="translate(1.857 11.407)">
          <path id="Trazado_151628" data-name="Trazado 151628" d="M1549.567,1028.523a11.667,11.667,0,0,0,2.1.18,16.122,16.122,0,0,0,3-.3c-.009-.151-.018-.305-.027-.453a14.228,14.228,0,0,1-5.043.12C1549.587,1028.229,1549.576,1028.381,1549.567,1028.523Z" transform="translate(-1549.567 -1027.954)" fill="#fff"/>
        </g>
        <g id="Grupo_94780" data-name="Grupo 94780" transform="translate(1.83 12.272)">
          <path id="Trazado_151629" data-name="Trazado 151629" d="M1549.537,1029.489a11.539,11.539,0,0,0,2.126.184,16.258,16.258,0,0,0,3.057-.3v0c-.009-.138-.018-.289-.03-.451a14.13,14.13,0,0,1-5.145.122C1549.542,1029.2,1549.537,1029.355,1549.537,1029.489Z" transform="translate(-1549.537 -1028.915)" fill="#fff"/>
        </g>
      </g>
      <g id="Grupo_94782" data-name="Grupo 94782" transform="translate(1449.314 1003.751)">
        <path id="Trazado_151630" data-name="Trazado 151630" d="M1460.529,1025.87h-6.862v-8.163a1.9,1.9,0,0,1,1.9-1.895h3.073a1.9,1.9,0,0,1,1.894,1.895Zm-6.667-.195h6.473v-7.969a1.7,1.7,0,0,0-1.7-1.7h-3.073a1.7,1.7,0,0,0-1.7,1.7Z" transform="translate(-1453.667 -1015.812)" fill="#2a4e96"/>
      </g>
      <rect id="Rectángulo_24307" data-name="Rectángulo 24307" width="6.668" height="0.227" transform="translate(1449.412 1007.709)" fill="#f99746"/>
      <path id="Trazado_151631" data-name="Trazado 151631" d="M1593.328,1013.044l.1,18.02s-6.591,3.111-17.32,3.563a38.123,38.123,0,0,1-13.554-1.568,14.079,14.079,0,0,1-2.361-.976l-.1-18.89a6.168,6.168,0,0,1,2.348-1.379c8.231-2.972,29.515.635,29.515.635Z" transform="translate(-14.992 -11.544)" fill="#c0daff"/>
      <path id="Trazado_151632" data-name="Trazado 151632" d="M1562.435,1011.944l.116,21.246a14.089,14.089,0,0,1-2.361-.977l-.1-18.89A6.164,6.164,0,0,1,1562.435,1011.944Z" transform="translate(-14.992 -11.674)" fill="#ff9843"/>
      <g id="Grupo_94783" data-name="Grupo 94783" transform="translate(1621.995 1024.242)">
        <path id="Trazado_151633" data-name="Trazado 151633" d="M1651.648,1044.855s-4.951.052-4.9,0l.422-1.2.449-1.281.339-.968.449-1.282.541-1.542h.513l.536,1.542.447,1.282.337.968.447,1.281Z" transform="translate(-1645.652 -1038.579)" fill="#f99746"/>
        <rect id="Rectángulo_24308" data-name="Rectángulo 24308" width="6.978" height="0.34" transform="translate(0 6.093)" fill="#e27423"/>
        <path id="Trazado_151634" data-name="Trazado 151634" d="M1650.581,1041.575h-2.487l.45-1.282h1.59Z" transform="translate(-1645.786 -1038.75)" fill="#fff"/>
        <path id="Trazado_151635" data-name="Trazado 151635" d="M1651.275,1044.073h-4.057l.449-1.281h3.163Z" transform="translate(-1645.699 -1039)" fill="#fff"/>
      </g>
      <g id="Grupo_94784" data-name="Grupo 94784" transform="translate(1433.46 1024.242)">
        <path id="Trazado_151636" data-name="Trazado 151636" d="M1442.169,1044.855s-4.952.052-4.9,0l.423-1.2.45-1.281.339-.968.449-1.282.541-1.542h.512l.537,1.542.447,1.282.336.968.447,1.281Z" transform="translate(-1436.173 -1038.579)" fill="#f99746"/>
        <rect id="Rectángulo_24309" data-name="Rectángulo 24309" width="6.978" height="0.34" transform="translate(0 6.093)" fill="#e27423"/>
        <path id="Trazado_151637" data-name="Trazado 151637" d="M1441.1,1041.575h-2.486l.449-1.282h1.59Z" transform="translate(-1436.308 -1038.75)" fill="#fff"/>
        <path id="Trazado_151638" data-name="Trazado 151638" d="M1441.8,1044.073h-4.058l.449-1.281h3.163Z" transform="translate(-1436.22 -1039)" fill="#fff"/>
      </g>
      <g id="Grupo_94785" data-name="Grupo 94785" transform="translate(1510.692 1024.242)">
        <path id="Trazado_151639" data-name="Trazado 151639" d="M1527.98,1044.855s-4.951.052-4.9,0l.422-1.2.449-1.281.34-.968.449-1.282.542-1.542h.512l.536,1.542.447,1.282.337.968.447,1.281Z" transform="translate(-1521.984 -1038.579)" fill="#f99746"/>
        <rect id="Rectángulo_24310" data-name="Rectángulo 24310" width="6.978" height="0.34" transform="translate(0 6.093)" fill="#e27423"/>
        <path id="Trazado_151640" data-name="Trazado 151640" d="M1526.913,1041.575h-2.487l.449-1.282h1.591Z" transform="translate(-1522.119 -1038.75)" fill="#fff"/>
        <path id="Trazado_151641" data-name="Trazado 151641" d="M1527.607,1044.073h-4.058l.449-1.281h3.162Z" transform="translate(-1522.031 -1039)" fill="#fff"/>
      </g>
    </g>
  </g>
</svg>
