<svg xmlns="http://www.w3.org/2000/svg" width="120" height="120" viewBox="0 0 120 120">
  <g id="Grupo_94658" data-name="Grupo 94658" transform="translate(-188 -188)">
    <path id="Trazado_151973" data-name="Trazado 151973" d="M306.065,290.581v5.806a9.678,9.678,0,1,1-19.355,0v-5.806Z" fill="#969faa"/>
    <path id="Trazado_151974" data-name="Trazado 151974" d="M296.387,275.1a9.649,9.649,0,0,1,9.678,9.677v5.807H286.71v-5.807A9.681,9.681,0,0,1,296.387,275.1Z" fill="#ccd1d9"/>
    <path id="Trazado_151975" data-name="Trazado 151975" d="M263.484,286.71H197.677a7.74,7.74,0,0,1-7.742-7.742V269.29h81.291v9.678A7.74,7.74,0,0,1,263.484,286.71Z" fill="#838f9b"/>
    <path id="Trazado_151976" data-name="Trazado 151976" d="M271.226,224.774V269.29h-7.742V224.774H241.226l-4.839-1.935v-5.807h27.1A7.74,7.74,0,0,1,271.226,224.774Z" fill="#aab2bd"/>
    <path id="Trazado_151977" data-name="Trazado 151977" d="M224.774,217.032v5.807l-4.839,1.935H197.677V269.29h-7.742V224.774a7.74,7.74,0,0,1,7.742-7.742Z" fill="#aab2bd"/>
    <path id="Trazado_151978" data-name="Trazado 151978" d="M241.226,224.774h22.258V269.29H197.677V224.774h22.258L215.1,226.71v3.871h30.968V226.71Z" fill="#69d6f4"/>
    <path id="Trazado_151979" data-name="Trazado 151979" d="M220.9,259.613V240.258l1.936-1.935h30.967a1.941,1.941,0,0,1,1.936,1.935v19.355a1.941,1.941,0,0,1-1.936,1.935H222.839Z" fill="#ffeaa7"/>
    <path id="Trazado_151980" data-name="Trazado 151980" d="M220.9,240.258v19.355l-1.935,1.935H207.355a1.942,1.942,0,0,1-1.936-1.935V240.258a1.942,1.942,0,0,1,1.936-1.935h11.613Z" fill="#e6e9ed"/>
    <g id="Grupo_94955" data-name="Grupo 94955">
      <path id="Trazado_151981" data-name="Trazado 151981" d="M224.774,222.839l3.871,7.742H215.1V226.71Z" fill="#fcd770"/>
      <path id="Trazado_151982" data-name="Trazado 151982" d="M246.065,226.71v3.871H232.516l3.871-7.742Z" fill="#fcd770"/>
      <path id="Trazado_151983" data-name="Trazado 151983" d="M255.742,205.419v3.871H236.387v-7.742Z" fill="#fcd770"/>
      <path id="Trazado_151984" data-name="Trazado 151984" d="M224.774,201.548v7.742H205.419v-3.871Z" fill="#fcd770"/>
    </g>
    <path id="Trazado_151985" data-name="Trazado 151985" d="M236.387,217.032v5.807l-3.871,7.742h-3.871l-3.871-7.742v-27.1a5.806,5.806,0,0,1,11.613,0Z" fill="#e6e9ed"/>
    <path id="Trazado_151986" data-name="Trazado 151986" d="M298.323,273.335v-.174a5.814,5.814,0,0,0-5.807-5.806H273.161V224.774a9.688,9.688,0,0,0-9.677-9.677H238.323v-3.871h19.354v-7.393l-19.354-3.871v-4.22a7.742,7.742,0,1,0-15.484,0v4.22l-19.355,3.871v7.393h19.355V215.1H197.677A9.688,9.688,0,0,0,188,224.774v54.194a9.688,9.688,0,0,0,9.677,9.677h65.807a9.688,9.688,0,0,0,9.677-9.677V275.1H269.29v3.871a5.813,5.813,0,0,1-5.806,5.806H197.677a5.813,5.813,0,0,1-5.806-5.806v-7.742H292.516a1.938,1.938,0,0,1,1.936,1.935v.174a11.621,11.621,0,0,0-9.678,11.439v11.613a11.613,11.613,0,1,0,23.226,0V284.774A11.624,11.624,0,0,0,298.323,273.335Zm-34.839-54.367a5.813,5.813,0,0,1,5.806,5.806v42.581h-3.871V222.839H241.6l-3.276-1.31v-2.561Zm-19.355,9.052v.625h-8.481l1.674-3.348Zm9.677-21.014v.349H238.323V203.91Zm-27.1-11.264a3.871,3.871,0,1,1,7.742,0v26.64l-3.132,6.263h-1.478l-3.132-6.263Zm-9.678,32.278,6.808-2.723,1.673,3.348h-8.481Zm-9.677-20.665v-.349l15.484-3.1v3.445Zm-15.484,60V224.774a5.813,5.813,0,0,1,5.806-5.806h25.162v2.561l-3.277,1.31h-23.82v44.516Zm7.742-40.645h13.548v5.806H248V226.71h13.548v40.645H199.613Zm96.774,50.322a7.749,7.749,0,0,1,7.742,7.742v3.871h-5.806V280.9h-3.871v7.742h-5.807v-3.871A7.749,7.749,0,0,1,296.387,277.032Zm0,27.1a7.749,7.749,0,0,1-7.742-7.742v-3.871h15.484v3.871A7.749,7.749,0,0,1,296.387,304.129Z"/>
    <path id="Trazado_151987" data-name="Trazado 151987" d="M261.548,277.032h3.871V280.9h-3.871Z"/>
    <path id="Trazado_151988" data-name="Trazado 151988" d="M253.806,277.032h3.871V280.9h-3.871Z"/>
    <path id="Trazado_151989" data-name="Trazado 151989" d="M253.806,236.387H222.037l-1.134,1.134-1.134-1.134H207.355a3.875,3.875,0,0,0-3.871,3.871v19.355a3.875,3.875,0,0,0,3.871,3.871h12.414l1.134-1.134,1.134,1.134h31.769a3.875,3.875,0,0,0,3.871-3.871V240.258A3.875,3.875,0,0,0,253.806,236.387Zm-46.451,23.226V240.258h10.811l.8.8v17.752l-.8.8Zm16.285,0-.8-.8V241.059l.8-.8h30.166l0,19.355Z"/>
    <path id="Trazado_151990" data-name="Trazado 151990" d="M211.226,244.129H215.1v11.613h-3.871Z"/>
    <path id="Trazado_151991" data-name="Trazado 151991" d="M226.71,244.129h23.225V248H226.71Z"/>
    <path id="Trazado_151992" data-name="Trazado 151992" d="M226.71,251.871h23.225v3.871H226.71Z"/>
  </g>
</svg>
