<svg xmlns="http://www.w3.org/2000/svg" width="86" height="86" viewBox="0 0 86 86">
  <g id="Grupo_99784" data-name="Grupo 99784" transform="translate(2729.182 7695)">
    <g id="Grupo_98559" data-name="Grupo 98559" transform="translate(-2942.183 -7908)">
      <g id="Grupo_95375" data-name="Grupo 95375">
        <path id="Trazado_152957" data-name="Trazado 152957" d="M268.561,229.546l13.237-8.294h11.889c.742,0,1.009.528.623,1.133l-3.861,6.028a1.769,1.769,0,0,0,0,2.271l3.861,6.024c.386.6.091,1.137-.623,1.137H269.908c-.961,0-1.347-.452-1.347-1.347Z" fill="#cf4351" fill-rule="evenodd"/>
        <path id="Trazado_152958" data-name="Trazado 152958" d="M280.631,230.851H255.324V214.262h25.307a1.2,1.2,0,0,1,1.167,1.224v14.141A1.2,1.2,0,0,1,280.631,230.851Z" fill="#ff6978" fill-rule="evenodd"/>
        <path id="Trazado_152959" data-name="Trazado 152959" d="M215.876,275.189h22.508a1.617,1.617,0,0,1,1.609,1.614l.652,4.794-.652,6.157a1.617,1.617,0,0,1-1.609,1.609H215.876a1.614,1.614,0,0,1-1.609-1.609V276.8A1.617,1.617,0,0,1,215.876,275.189Z" fill="#ccf49f" fill-rule="evenodd"/>
        <path id="Trazado_152960" data-name="Trazado 152960" d="M252.139,274.946l4.652-.652,3.99.652a2.272,2.272,0,0,1,2.281,2.118v10.423a2.126,2.126,0,0,1-2.119,2.119h-9.456a11.676,11.676,0,0,1-5.623-1.381c-1.062-.581-.81-.471-2.067-.471h-3.8V276.8h5.78c1.671,0,1.214-.11,2.643-.777,1.461-.685,1.88-1.08,3.723-1.08Z" fill="#ffcbbe" fill-rule="evenodd"/>
        <path id="Trazado_152961" data-name="Trazado 152961" d="M259.876,260.29l-5.037-.652-3.766.652a2.127,2.127,0,0,0-2.119,2.119v10.418a2.127,2.127,0,0,0,2.119,2.119h9.456a11.729,11.729,0,0,0,5.742-1.443,1.9,1.9,0,0,1,1.585-.41h4.171l1.957-6.037-1.957-4.914h-5.651c-1.724,0-1.214-.028-2.681-.728s-1.933-1.124-3.819-1.124Z" fill="#ffcbbe" fill-rule="evenodd"/>
        <path id="Trazado_152962" data-name="Trazado 152962" d="M215.876,245.873h22.508a1.614,1.614,0,0,1,1.609,1.609l.652,5.109-.652,5.842a1.621,1.621,0,0,1-1.609,1.614H215.876a1.617,1.617,0,0,1-1.609-1.614V247.482A1.614,1.614,0,0,1,215.876,245.873Z" fill="#a5cdff" fill-rule="evenodd"/>
        <path id="Trazado_152963" data-name="Trazado 152963" d="M260.943,245.63a2.124,2.124,0,0,1,2.119,2.119v10.423a2.13,2.13,0,0,1-2.119,2.118h-9.456a12.009,12.009,0,0,1-4.657-.914c-2.466-1.043-1.709-.942-4.59-.942h-2.247V247.482h6.942c.857-2.933,4.571-5.58,9.2-5.961a2.152,2.152,0,0,1,.3-.024,2.067,2.067,0,0,1,0,4.133Z" fill="#ffcbbe" fill-rule="evenodd"/>
        <path id="Trazado_152964" data-name="Trazado 152964" d="M296.139,260.533h-22.5a1.614,1.614,0,0,0-1.609,1.609v10.952a1.614,1.614,0,0,0,1.609,1.609h22.5a1.614,1.614,0,0,0,1.609-1.609V262.142A1.614,1.614,0,0,0,296.139,260.533Z" fill="#ebd2ff" fill-rule="evenodd"/>
        <path id="Trazado_152965" data-name="Trazado 152965" d="M286.373,228.413a1.769,1.769,0,0,0,0,2.271l3.857,6.024c.39.6.1,1.137-.619,1.137h4.076c.714,0,1.009-.533.623-1.137l-3.861-6.024a1.769,1.769,0,0,1,0-2.271l3.861-6.028c.386-.6.119-1.133-.623-1.133h-4.076c.743,0,1.009.528.619,1.133Z" fill="#bd3341" fill-rule="evenodd"/>
        <path id="Trazado_152966" data-name="Trazado 152966" d="M293.672,269.018a1.613,1.613,0,0,1-1.609,1.609H272.027v2.467a1.614,1.614,0,0,0,1.609,1.609h22.5a1.614,1.614,0,0,0,1.609-1.609V262.143a1.614,1.614,0,0,0-1.609-1.61h-2.467Z" fill="#d7bef0" fill-rule="evenodd"/>
        <path id="Trazado_152967" data-name="Trazado 152967" d="M235.917,254.358a1.622,1.622,0,0,1-1.614,1.614H214.267v2.461a1.617,1.617,0,0,0,1.609,1.614h22.507a1.621,1.621,0,0,0,1.61-1.614V247.482a1.614,1.614,0,0,0-1.61-1.609h-2.466Z" fill="#8abfff" fill-rule="evenodd"/>
        <path id="Trazado_152968" data-name="Trazado 152968" d="M235.917,283.678a1.618,1.618,0,0,1-1.614,1.61H214.267v2.466a1.613,1.613,0,0,0,1.609,1.609h22.507a1.617,1.617,0,0,0,1.61-1.609V276.8a1.616,1.616,0,0,0-1.61-1.609h-2.466Z" fill="#b3e59f" fill-rule="evenodd"/>
        <g id="Grupo_95374" data-name="Grupo 95374">
          <path id="Trazado_152969" data-name="Trazado 152969" d="M267.856,269.018a5.572,5.572,0,0,0-3.6.938,7.658,7.658,0,0,1-3.733.914H248.954v1.957a2.127,2.127,0,0,0,2.118,2.119h1.067c2.866,0,5.766.052,8.628,0a11.676,11.676,0,0,0,5.5-1.443,1.9,1.9,0,0,1,1.585-.41h4.171v-4.075Z" fill="#f7beaf" fill-rule="evenodd"/>
          <path id="Trazado_152970" data-name="Trazado 152970" d="M256.6,285.53h-5.109a7.7,7.7,0,0,1-3.662-.876,5.994,5.994,0,0,0-3.757-.976h-4.075v4.076h3.8c1.257,0,1.005-.109,2.067.471a11.676,11.676,0,0,0,5.623,1.381h9.456a2.126,2.126,0,0,0,2.119-2.118V277.065a2.272,2.272,0,0,0-2.281-2.119c-.314-.047-1.4.019-1.8.019v8.495a2.15,2.15,0,0,1-2.39,2.07Z" fill="#f7beaf" fill-rule="evenodd"/>
          <path id="Trazado_152971" data-name="Trazado 152971" d="M258.986,254.091c0,1.724-.829,2.119-2.438,2.119h-5.062a8.009,8.009,0,0,1-3.075-.591c-2.181-.923-2.781-1.171-4.343-1.237h-4.076v4.051h2.248c2.88,0,2.123-.1,4.59.943a12.006,12.006,0,0,0,4.656.914h9.457a2.13,2.13,0,0,0,2.118-2.119V247.749a2.123,2.123,0,0,0-2.118-2.119h-1.957v8.461Z" fill="#f7beaf" fill-rule="evenodd"/>
        </g>
      </g>
      <path id="Trazado_152972" data-name="Trazado 152972" d="M224.271,288.106a1.26,1.26,0,0,1,0,2.519h-8.4A2.876,2.876,0,0,1,213,287.754V276.8a2.875,2.875,0,0,1,2.871-2.871h22.5a2.864,2.864,0,0,1,2.028.842,2.754,2.754,0,0,1,.548.767h4.814c.885,0,.933-.029,1.185-.171.205-.115.472-.267.929-.481.1-.048.238-.115.381-.186a3.382,3.382,0,0,1-.572-1.876V262.409a3.35,3.35,0,0,1,.272-1.318,13.038,13.038,0,0,1-1.624-.557c-.471-.2-.733-.319-.952-.415a6.264,6.264,0,0,0-.986-.381,8.869,8.869,0,0,0-1.471-.047h-1.971a3,3,0,0,1-.552.771,2.866,2.866,0,0,1-2.029.843h-8.4a1.259,1.259,0,0,1,0-2.519h8.4a.358.358,0,0,0,.353-.352V247.483a.358.358,0,0,0-.353-.353h-22.5a.358.358,0,0,0-.353.353v10.951a.358.358,0,0,0,.353.352h8.4a1.259,1.259,0,0,1,0,2.519h-8.4A2.876,2.876,0,0,1,213,258.433V247.482a2.876,2.876,0,0,1,2.871-2.871h22.5a2.865,2.865,0,0,1,2.028.843,2.813,2.813,0,0,1,.548.767h5.113a9.423,9.423,0,0,1,3.481-3.8,13.865,13.865,0,0,1,4.514-1.857v-26.3A1.264,1.264,0,0,1,255.32,213H265.7a1.26,1.26,0,1,1,0,2.519h-9.122v14.075h23.954V215.519h-9.123a1.26,1.26,0,1,1,0-2.519h10.385a1.26,1.26,0,0,1,1.257,1.262v5.728h11.979a1.265,1.265,0,0,1,1.014,2.01l-4.832,7.546,4.875,7.619a1.26,1.26,0,0,1-1.057,1.938H268.556a1.26,1.26,0,0,1-1.262-1.257v-5.733H256.577v8.128a3.329,3.329,0,0,1,3.185,3.323,3.446,3.446,0,0,1-.1.809h1.272a3.373,3.373,0,0,1,3.38,3.376v10.423a3.346,3.346,0,0,1-.567,1.866c.443.224.891.438,1.324.676a2.5,2.5,0,0,0,1.3.172h4.675a2.968,2.968,0,0,1,.553-.772,2.873,2.873,0,0,1,2.028-.842h22.507A2.877,2.877,0,0,1,299,262.143v10.951a2.878,2.878,0,0,1-2.867,2.871h-8.4a1.259,1.259,0,1,1,0-2.519h8.4a.357.357,0,0,0,.348-.352V262.143a.354.354,0,0,0-.348-.353H273.627a.355.355,0,0,0-.348.353v10.951a.354.354,0,0,0,.348.352h8.4a1.259,1.259,0,1,1,0,2.519h-8.4a2.871,2.871,0,0,1-2.028-.843,2.925,2.925,0,0,1-.548-.767h-2.528a2.617,2.617,0,0,0-1.638.239,12.167,12.167,0,0,1-2.862,1.161,3.1,3.1,0,0,1,.291,1.31v10.422a3.382,3.382,0,0,1-3.381,3.381h-4.356v6.876a1.26,1.26,0,0,1-2.519,0v-6.876h-2.576a13.761,13.761,0,0,1-3.257-.39,12.5,12.5,0,0,1-2.976-1.148,3.362,3.362,0,0,0-2.128-.314H240.95a2.809,2.809,0,0,1-.548.766,2.865,2.865,0,0,1-2.028.843h-8.4a1.259,1.259,0,0,1,0-2.518h8.4a.359.359,0,0,0,.352-.353V276.8a.357.357,0,0,0-.352-.352h-22.5a.357.357,0,0,0-.353.352v10.951a.359.359,0,0,0,.353.353h8.4Zm32.163-41.219a1.26,1.26,0,1,1,.009-2.519.8.8,0,0,0,.562-.233.819.819,0,0,0,.234-.571c0-.6-.462-.834-1.005-.791a11.641,11.641,0,0,0-5.319,1.748,6.412,6.412,0,0,0-2.752,3.223,1.26,1.26,0,0,1-1.233.995h-5.685v8.442h1.681a10.023,10.023,0,0,1,1.976.1,7.1,7.1,0,0,1,1.481.543,13.33,13.33,0,0,0,2.928,1.005,11.45,11.45,0,0,0,2.171.2h9.451a.858.858,0,0,0,.61-.253.874.874,0,0,0,.252-.605V247.749a.869.869,0,0,0-.862-.862Zm4.09,26.8a11.32,11.32,0,0,0,2.719-.329c1.414-.357,2.433-1.195,3.442-1.452a4.564,4.564,0,0,1,1.167-.071h2.909v-8.442h-4.39c-1.614,0-1.657-.019-2.5-.476-.462-.253-.928-.472-1.4-.71a4.678,4.678,0,0,0-2.6-.662h-8.8a.877.877,0,0,0-.6.253.855.855,0,0,0-.252.609v10.418a.864.864,0,0,0,.857.862Zm0,2.519h-8.395a4.533,4.533,0,0,0-2.49.619c-.49.243-.976.457-1.452.728a3.535,3.535,0,0,1-2.423.505h-4.519V286.5l3.024-.005a3.6,3.6,0,0,1,.938.062c1,.229,2.228,1.138,3.618,1.481a11.063,11.063,0,0,0,2.657.314h9.451a.869.869,0,0,0,.862-.862V277.064a.778.778,0,0,0-.276-.552,1.225,1.225,0,0,0-1-.3Zm9.289-44.1v4.471H292.73l-4.057-6.338a1.252,1.252,0,0,1-.014-1.376l4.071-6.356h-9.68v8.337a1.26,1.26,0,0,1-1.257,1.262Z"/>
    </g>
  </g>
</svg>
