<svg xmlns="http://www.w3.org/2000/svg" width="92" height="92" viewBox="0 0 92 92">
  <g id="Grupo_99764" data-name="Grupo 99764" transform="translate(-360 -4909.758)">
    <circle id="Elipse_5023" data-name="Elipse 5023" cx="46" cy="46" r="46" transform="translate(360 4909.758)" fill="#5038a1"/>
    <circle id="Elipse_5024" data-name="Elipse 5024" cx="39.292" cy="39.292" r="39.292" transform="translate(367 4916.466)" fill="#8c6df2"/>
    <g id="Grupo_94599" data-name="Grupo 94599" transform="translate(153.189 4701)">
      <path id="Trazado_151244" data-name="Trazado 151244" d="M279.078,256.478l-2.382-2.069H230.364l-2.7,2.069v22.188h51.412Z" transform="translate(-0.079 -2.264)" fill="#fff"/>
      <path id="Trazado_151245" data-name="Trazado 151245" d="M281.714,254.409v24.256h2.377V256.478Z" transform="translate(-5.092 -2.264)" fill="#efefef"/>
      <path id="Trazado_151246" data-name="Trazado 151246" d="M227.666,244.418h51.412v11.134H227.666Z" transform="translate(-0.079 -1.337)" fill="#ffe07d"/>
      <path id="Trazado_151247" data-name="Trazado 151247" d="M281.714,244.418h2.377v11.134h-2.377Z" transform="translate(-5.092 -1.337)" fill="#ffd064"/>
      <path id="Trazado_151248" data-name="Trazado 151248" d="M263.9,252.472H246.184a.514.514,0,0,1-.514-.514v-3.246a.515.515,0,0,1,.514-.514H263.9a.514.514,0,0,1,.513.514v3.246A.514.514,0,0,1,263.9,252.472Z" transform="translate(-1.749 -1.688)" fill="#fff"/>
      <path id="Trazado_151249" data-name="Trazado 151249" d="M265.529,248.2h-2.3a.514.514,0,0,1,.514.514v3.246a.513.513,0,0,1-.514.514h2.3a.514.514,0,0,0,.513-.514v-3.246A.514.514,0,0,0,265.529,248.2Z" transform="translate(-3.378 -1.688)" fill="#efefef"/>
      <g id="Grupo_94665" data-name="Grupo 94665" transform="translate(234.957 239.969)">
        <path id="Trazado_151250" data-name="Trazado 151250" d="M242.144,244.1H235.79v-1.815a1.3,1.3,0,0,1,1.3-1.3h3.759a1.3,1.3,0,0,1,1.3,1.3V244.1Z" transform="translate(-235.79 -240.988)" fill="#ffc757"/>
        <path id="Trazado_151251" data-name="Trazado 151251" d="M275.561,244.1h-6.354v-1.815a1.3,1.3,0,0,1,1.3-1.3h3.759a1.3,1.3,0,0,1,1.3,1.3Z" transform="translate(-238.889 -240.988)" fill="#ffc757"/>
      </g>
      <g id="Grupo_94666" data-name="Grupo 94666" transform="translate(226.811 230)">
        <path id="Trazado_151252" data-name="Trazado 151252" d="M232.8,260.7h-1.841a.776.776,0,0,0,0,1.551H232.8a.776.776,0,1,0,0-1.551Z" transform="translate(-227.124 -232.848)"/>
        <path id="Trazado_151253" data-name="Trazado 151253" d="M236.272,262.256h5.7a.776.776,0,1,0,0-1.551h-5.7a.776.776,0,1,0,0,1.551Z" transform="translate(-227.617 -232.848)"/>
        <path id="Trazado_151254" data-name="Trazado 151254" d="M232.8,264.275h-1.841a.776.776,0,0,0,0,1.551H232.8a.776.776,0,1,0,0-1.551Z" transform="translate(-227.124 -233.179)"/>
        <path id="Trazado_151255" data-name="Trazado 151255" d="M236.272,265.826h5.7a.776.776,0,1,0,0-1.551h-5.7a.776.776,0,1,0,0,1.551Z" transform="translate(-227.617 -233.179)"/>
        <path id="Trazado_151256" data-name="Trazado 151256" d="M232.8,267.845h-1.841a.776.776,0,0,0,0,1.551H232.8a.776.776,0,1,0,0-1.551Z" transform="translate(-227.124 -233.51)"/>
        <path id="Trazado_151257" data-name="Trazado 151257" d="M236.272,269.4h5.7a.776.776,0,1,0,0-1.551h-5.7a.776.776,0,1,0,0,1.551Z" transform="translate(-227.617 -233.51)"/>
        <path id="Trazado_151258" data-name="Trazado 151258" d="M232.8,271.415h-1.841a.776.776,0,0,0,0,1.551H232.8a.776.776,0,1,0,0-1.551Z" transform="translate(-227.124 -233.841)"/>
        <path id="Trazado_151259" data-name="Trazado 151259" d="M236.272,272.966h5.7a.776.776,0,1,0,0-1.551h-5.7a.776.776,0,1,0,0,1.551Z" transform="translate(-227.617 -233.841)"/>
        <path id="Trazado_151260" data-name="Trazado 151260" d="M232.8,274.985h-1.841a.776.776,0,0,0,0,1.552H232.8a.776.776,0,0,0,0-1.552Z" transform="translate(-227.124 -234.172)"/>
        <path id="Trazado_151261" data-name="Trazado 151261" d="M236.272,276.537h5.7a.776.776,0,0,0,0-1.552h-5.7a.776.776,0,0,0,0,1.552Z" transform="translate(-227.617 -234.172)"/>
        <path id="Trazado_151262" data-name="Trazado 151262" d="M250.122,262.256h1.841a.776.776,0,1,0,0-1.551h-1.841a.776.776,0,1,0,0,1.551Z" transform="translate(-228.901 -232.848)"/>
        <path id="Trazado_151263" data-name="Trazado 151263" d="M255.437,262.256h5.7a.776.776,0,1,0,0-1.551h-5.7a.776.776,0,1,0,0,1.551Z" transform="translate(-229.394 -232.848)"/>
        <path id="Trazado_151264" data-name="Trazado 151264" d="M250.122,265.826h1.841a.776.776,0,1,0,0-1.551h-1.841a.776.776,0,1,0,0,1.551Z" transform="translate(-228.901 -233.179)"/>
        <path id="Trazado_151265" data-name="Trazado 151265" d="M255.437,265.826h5.7a.776.776,0,1,0,0-1.551h-5.7a.776.776,0,1,0,0,1.551Z" transform="translate(-229.394 -233.179)"/>
        <path id="Trazado_151266" data-name="Trazado 151266" d="M250.122,269.4h1.841a.776.776,0,1,0,0-1.551h-1.841a.776.776,0,1,0,0,1.551Z" transform="translate(-228.901 -233.51)"/>
        <path id="Trazado_151267" data-name="Trazado 151267" d="M255.437,269.4h5.7a.776.776,0,1,0,0-1.551h-5.7a.776.776,0,1,0,0,1.551Z" transform="translate(-229.394 -233.51)"/>
        <path id="Trazado_151268" data-name="Trazado 151268" d="M250.122,272.966h1.841a.776.776,0,1,0,0-1.551h-1.841a.776.776,0,1,0,0,1.551Z" transform="translate(-228.901 -233.841)"/>
        <path id="Trazado_151269" data-name="Trazado 151269" d="M255.437,272.966h5.7a.776.776,0,1,0,0-1.551h-5.7a.776.776,0,1,0,0,1.551Z" transform="translate(-229.394 -233.841)"/>
        <path id="Trazado_151270" data-name="Trazado 151270" d="M250.122,276.537h1.841a.776.776,0,1,0,0-1.552h-1.841a.776.776,0,0,0,0,1.552Z" transform="translate(-228.901 -234.172)"/>
        <path id="Trazado_151271" data-name="Trazado 151271" d="M255.437,276.537h5.7a.776.776,0,1,0,0-1.552h-5.7a.776.776,0,1,0,0,1.552Z" transform="translate(-229.394 -234.172)"/>
        <path id="Trazado_151272" data-name="Trazado 151272" d="M269.287,262.256h1.841a.776.776,0,0,0,0-1.551h-1.841a.776.776,0,1,0,0,1.551Z" transform="translate(-230.678 -232.848)"/>
        <path id="Trazado_151273" data-name="Trazado 151273" d="M274.6,262.256h5.7a.776.776,0,1,0,0-1.551h-5.7a.776.776,0,1,0,0,1.551Z" transform="translate(-231.171 -232.848)"/>
        <path id="Trazado_151274" data-name="Trazado 151274" d="M269.287,265.826h1.841a.776.776,0,0,0,0-1.551h-1.841a.776.776,0,1,0,0,1.551Z" transform="translate(-230.678 -233.179)"/>
        <path id="Trazado_151275" data-name="Trazado 151275" d="M274.6,265.826h5.7a.776.776,0,1,0,0-1.551h-5.7a.776.776,0,1,0,0,1.551Z" transform="translate(-231.171 -233.179)"/>
        <path id="Trazado_151276" data-name="Trazado 151276" d="M269.287,269.4h1.841a.776.776,0,0,0,0-1.551h-1.841a.776.776,0,1,0,0,1.551Z" transform="translate(-230.678 -233.51)"/>
        <path id="Trazado_151277" data-name="Trazado 151277" d="M274.6,269.4h5.7a.776.776,0,1,0,0-1.551h-5.7a.776.776,0,1,0,0,1.551Z" transform="translate(-231.171 -233.51)"/>
        <path id="Trazado_151278" data-name="Trazado 151278" d="M269.287,272.966h1.841a.776.776,0,0,0,0-1.551h-1.841a.776.776,0,1,0,0,1.551Z" transform="translate(-230.678 -233.841)"/>
        <path id="Trazado_151279" data-name="Trazado 151279" d="M274.6,272.966h5.7a.776.776,0,1,0,0-1.551h-5.7a.776.776,0,1,0,0,1.551Z" transform="translate(-231.171 -233.841)"/>
        <path id="Trazado_151280" data-name="Trazado 151280" d="M269.287,276.537h1.841a.776.776,0,0,0,0-1.552h-1.841a.776.776,0,1,0,0,1.552Z" transform="translate(-230.678 -234.172)"/>
        <path id="Trazado_151281" data-name="Trazado 151281" d="M274.6,276.537h5.7a.776.776,0,0,0,0-1.552h-5.7a.776.776,0,1,0,0,1.552Z" transform="translate(-231.171 -234.172)"/>
        <path id="Trazado_151282" data-name="Trazado 151282" d="M246.6,276.11v-16.2a.776.776,0,1,0-1.551,0v16.2a.776.776,0,1,0,1.551,0Z" transform="translate(-228.502 -232.702)"/>
        <path id="Trazado_151283" data-name="Trazado 151283" d="M266.8,276.11v-16.2a.776.776,0,1,0-1.551,0v16.2a.776.776,0,1,0,1.551,0Z" transform="translate(-230.376 -232.702)"/>
        <path id="Trazado_151284" data-name="Trazado 151284" d="M236.644,253.587a.774.774,0,0,0,.944-.561l.822-3.231,2.758-1.543a.776.776,0,1,0-.758-1.354l-2.71,1.516-3-1.381a.776.776,0,0,0-.649,1.409l1.971.908-1.713.958-.63-1.282a.776.776,0,1,0-1.393.684l.99,2.017a.776.776,0,0,0,1.075.335l2.187-1.223-.459,1.8a.776.776,0,0,0,.561.944Z" transform="translate(-227.312 -231.558)"/>
        <path id="Trazado_151285" data-name="Trazado 151285" d="M278.174,248.067h-6.667a.776.776,0,0,0,0,1.552h6.667a.776.776,0,0,0,0-1.552Z" transform="translate(-230.884 -231.676)"/>
        <path id="Trazado_151286" data-name="Trazado 151286" d="M278.174,251.33h-6.667a.776.776,0,1,0,0,1.551h6.667a.776.776,0,1,0,0-1.551Z" transform="translate(-230.884 -231.978)"/>
        <path id="Trazado_151287" data-name="Trazado 151287" d="M251.252,251.617a.776.776,0,0,0,0,1.551h12.569a1.291,1.291,0,0,0,1.289-1.289v-3.246a1.291,1.291,0,0,0-1.289-1.29H246.105a1.292,1.292,0,0,0-1.29,1.29v3.246a1.291,1.291,0,0,0,1.29,1.289h2.045a.776.776,0,0,0,0-1.551h-1.783V248.9h17.191v2.722Z" transform="translate(-228.481 -231.608)"/>
        <path id="Trazado_151288" data-name="Trazado 151288" d="M279,247.148a.776.776,0,0,0,.776-.777v-3.291a.775.775,0,0,0-.776-.776H272.4v-1.04a2.075,2.075,0,0,0-2.073-2.072h-1.1v-7.642h6.714a.776.776,0,1,0,0-1.551h-45.3a.776.776,0,0,0,0,1.551h6.714v7.642h-1.1a2.075,2.075,0,0,0-2.073,2.072v1.04h-6.595a.775.775,0,0,0-.776.776V276.4a.775.775,0,0,0,.776.776h9.65a.776.776,0,1,0,0-1.551h-8.875V254.99h49.861v20.636H240.34a.776.776,0,1,0,0,1.551H279a.775.775,0,0,0,.776-.776V249.474a.776.776,0,1,0-1.551,0v3.964H228.362v-9.582h49.861v2.515a.776.776,0,0,0,.776.777Zm-40.089-15.6h28.765v7.642h-1.1a2.075,2.075,0,0,0-2.073,2.072v1.04H242.086v-1.04a2.075,2.075,0,0,0-2.073-2.072h-1.1Zm-3.177,10.754v-1.04a.522.522,0,0,1,.522-.521h3.759a.522.522,0,0,1,.522.521v1.04Zm30.318,0v-1.04a.522.522,0,0,1,.522-.521h3.759a.522.522,0,0,1,.522.521v1.04Z" transform="translate(-226.811 -230)"/>
      </g>
    </g>
  </g>
</svg>
