<svg xmlns="http://www.w3.org/2000/svg" width="127" height="113.542" viewBox="0 0 127 113.542">
  <g id="Grupo_94660" data-name="Grupo 94660" transform="translate(-188.889 -196)">
    <g id="Grupo_94995" data-name="Grupo 94995" transform="translate(190.749 197.86)">
      <g id="Grupo_94994" data-name="Grupo 94994">
        <g id="Grupo_94993" data-name="Grupo 94993">
          <g id="Grupo_94992" data-name="Grupo 94992">
            <g id="Grupo_94991" data-name="Grupo 94991">
              <g id="Grupo_94978" data-name="Grupo 94978" transform="translate(57.82)">
                <path id="Trazado_152010" data-name="Trazado 152010" d="M305.037,217.563a19.6,19.6,0,1,0-39.194,0s-.006,28.734-.007,33.222h39.208c0-4.488-.008-33.222-.008-33.222Z" transform="translate(-252.71 -197.966)" fill="#756e78"/>
                <g id="Grupo_94960" data-name="Grupo 94960" transform="translate(29.322)">
                  <path id="Trazado_152011" data-name="Trazado 152011" d="M305.958,217.563a19.58,19.58,0,0,0-23-19.3,9.14,9.14,0,0,1,6.806,8.836v43.681h16.205C305.963,246.3,305.958,217.563,305.958,217.563Z" transform="translate(-282.953 -197.966)" fill="#665e66"/>
                </g>
                <g id="Grupo_94962" data-name="Grupo 94962" transform="translate(44.476 19.196)">
                  <g id="Grupo_94961" data-name="Grupo 94961">
                    <path id="Trazado_152012" data-name="Trazado 152012" d="M298.968,218.254v11.1h6.554a2.79,2.79,0,0,0,2.79-2.79v-5.521a2.79,2.79,0,0,0-2.79-2.79Z" transform="translate(-298.968 -218.254)" fill="#9bc4f9"/>
                  </g>
                </g>
                <g id="Grupo_94964" data-name="Grupo 94964" transform="translate(11.64 19.196)">
                  <g id="Grupo_94963" data-name="Grupo 94963">
                    <path id="Trazado_152013" data-name="Trazado 152013" d="M273.61,218.254v11.1h-6.554a2.79,2.79,0,0,1-2.79-2.79v-5.521a2.79,2.79,0,0,1,2.79-2.79Z" transform="translate(-264.265 -218.254)" fill="#9bc4f9"/>
                  </g>
                </g>
                <g id="Grupo_94968" data-name="Grupo 94968" transform="translate(0 33.493)">
                  <g id="Grupo_94967" data-name="Grupo 94967">
                    <g id="Grupo_94966" data-name="Grupo 94966">
                      <g id="Grupo_94965" data-name="Grupo 94965">
                        <path id="Trazado_152014" data-name="Trazado 152014" d="M301.159,258.373l-4.6-10.109c-.047-.009-.093-.023-.139-.033a4,4,0,0,1-3.1-3.892V233.364h-15.29v10.975a4,4,0,0,1-3.1,3.892c-.046.01-.092.024-.139.033l-4.6,10.109Z" transform="translate(-252.944 -233.364)" fill="#ffddce"/>
                        <path id="Trazado_152015" data-name="Trazado 152015" d="M301.048,250.555l-.105.093a20.711,20.711,0,0,1-32.5,0l-.115-.09a21.264,21.264,0,0,0-16.363,20.691v12.909h65.459V271.249a21.263,21.263,0,0,0-16.374-20.694Z" transform="translate(-251.963 -234.289)" fill="#dbe8f9"/>
                        <path id="Trazado_152016" data-name="Trazado 152016" d="M295.487,249.792l-.6-3.372a4,4,0,0,0,2.855,2.513c.046.01.092.024.139.033l4.6,1.18a21.264,21.264,0,0,1,17.245,20.88v12.909H294.634A84.964,84.964,0,0,0,295.487,249.792Z" transform="translate(-254.259 -234.067)" fill="#7fb2f9"/>
                        <path id="Trazado_152017" data-name="Trazado 152017" d="M302.488,250.146l-4.6-1.18c-.047-.009-.093-.023-.139-.033a4,4,0,0,1-2.855-2.513l.6,3.372c.312,1.738.562,3.484.765,5.233a21.247,21.247,0,0,1,7.263,16v12.909h16.206V271.027A21.264,21.264,0,0,0,302.488,250.146Z" transform="translate(-254.273 -234.067)" fill="#60a0f7"/>
                        <path id="Trazado_152018" data-name="Trazado 152018" d="M276.2,249.792l.6-3.372a4,4,0,0,1-2.855,2.513c-.046.01-.092.024-.139.033l-4.6,1.18a21.263,21.263,0,0,0-17.245,20.88v12.909h25.084a84.98,84.98,0,0,1-.852-34.143Z" transform="translate(-251.963 -234.067)" fill="#7fb2f9"/>
                      </g>
                    </g>
                  </g>
                  <path id="Trazado_152019" data-name="Trazado 152019" d="M304.893,271.294h5.954a1.984,1.984,0,0,0,1.984-1.984V266.4a1.984,1.984,0,0,0-1.984-1.984h-5.954a1.985,1.985,0,0,0-1.985,1.984v2.907A1.985,1.985,0,0,0,304.893,271.294Z" transform="translate(-254.704 -235.035)" fill="#ffd064"/>
                </g>
                <g id="Grupo_94977" data-name="Grupo 94977" transform="translate(18.753 10.882)">
                  <g id="Grupo_94976" data-name="Grupo 94976">
                    <g id="Grupo_94975" data-name="Grupo 94975">
                      <g id="Grupo_94974" data-name="Grupo 94974">
                        <g id="Grupo_94973" data-name="Grupo 94973">
                          <g id="Grupo_94970" data-name="Grupo 94970" transform="translate(0 0)">
                            <g id="Grupo_94969" data-name="Grupo 94969">
                              <path id="Trazado_152020" data-name="Trazado 152020" d="M299.738,217.781a13.114,13.114,0,0,1-6.59-7.8.741.741,0,0,0-1.355-.13c-3.036,5.466-9.082,7.93-16.044,7.93h-3.966v8.853a13.98,13.98,0,0,0,27.956,0Z" transform="translate(-271.782 -209.467)" fill="#ffddce"/>
                            </g>
                          </g>
                          <path id="Trazado_152021" data-name="Trazado 152021" d="M293.642,209.981a.741.741,0,0,0-1.355-.13,13.823,13.823,0,0,1-2.635,3.382v13.4a13.988,13.988,0,0,1-8.688,12.731,13.982,13.982,0,0,0,19.267-12.731v-8.853a13.112,13.112,0,0,1-6.589-7.8Z" transform="translate(-272.276 -209.467)" fill="#ffcbbe"/>
                          <g id="Grupo_94972" data-name="Grupo 94972" transform="translate(16.362 23.274)">
                            <g id="Grupo_94971" data-name="Grupo 94971">
                              <path id="Trazado_152022" data-name="Trazado 152022" d="M296.246,239.926h-4.241a2.93,2.93,0,0,1,0-5.861h4.241a2.93,2.93,0,1,1,0,5.861Z" transform="translate(-289.075 -234.065)" fill="#db636e"/>
                            </g>
                          </g>
                        </g>
                      </g>
                    </g>
                  </g>
                </g>
              </g>
              <path id="Trazado_152023" data-name="Trazado 152023" d="M219.543,312.439h91.108a5.027,5.027,0,0,0,5.027-5.026V284.39H219.543Z" transform="translate(-192.399 -202.617)" fill="#eaf2ff"/>
              <path id="Trazado_152024" data-name="Trazado 152024" d="M303.732,284.39v23.023a5.026,5.026,0,0,1-5.026,5.026h16.205a5.027,5.027,0,0,0,5.027-5.026V284.39Z" transform="translate(-196.659 -202.617)" fill="#dbe8f9"/>
              <g id="Grupo_94990" data-name="Grupo 94990" transform="translate(0 20.884)">
                <g id="Grupo_94989" data-name="Grupo 94989" transform="translate(0 36.795)">
                  <g id="Grupo_94988" data-name="Grupo 94988">
                    <g id="Grupo_94987" data-name="Grupo 94987">
                      <g id="Grupo_94986" data-name="Grupo 94986">
                        <g id="Grupo_94985" data-name="Grupo 94985">
                          <g id="Grupo_94984" data-name="Grupo 94984">
                            <g id="Grupo_94983" data-name="Grupo 94983">
                              <g id="Grupo_94982" data-name="Grupo 94982">
                                <g id="Grupo_94981" data-name="Grupo 94981">
                                  <g id="Grupo_94980" data-name="Grupo 94980">
                                    <path id="Trazado_152025" data-name="Trazado 152025" d="M236.057,270.4V258.926H220.084V270.4a4.176,4.176,0,0,1-3.244,4.068s.424,9.435,11.23,9.435,11.913-9.3,11.913-9.3l-.538-.1a4.177,4.177,0,0,1-3.388-4.1Z" transform="translate(-192.253 -258.926)" fill="#ffddce"/>
                                    <path id="Trazado_152026" data-name="Trazado 152026" d="M256.441,311.953a6.048,6.048,0,0,0,6.048-6.048v-5.432a24.675,24.675,0,0,0-20.013-24.231l-3.89-.749a16.571,16.571,0,0,1-23.01-.009l-.134-.13c-.048.011-.1.026-.145.035l-4.429.853a24.676,24.676,0,0,0-20.013,24.231V305.9a6.048,6.048,0,0,0,6.048,6.048Z" transform="translate(-190.855 -259.81)" fill="#e07f84"/>
                                    <g id="Grupo_94979" data-name="Grupo 94979" transform="translate(42.639 15.682)">
                                      <path id="Trazado_152027" data-name="Trazado 152027" d="M244.9,276.249l-3.891-.749a16.524,16.524,0,0,1-5.091,3.35,24.679,24.679,0,0,1,12.8,21.63v5.432a6.048,6.048,0,0,1-6.049,6.048h16.2a6.048,6.048,0,0,0,6.048-6.048V300.48A24.675,24.675,0,0,0,244.9,276.249Z" transform="translate(-235.919 -275.5)" fill="#db636e"/>
                                    </g>
                                  </g>
                                </g>
                              </g>
                            </g>
                          </g>
                        </g>
                      </g>
                    </g>
                  </g>
                </g>
                <path id="Trazado_152028" data-name="Trazado 152028" d="M247.08,241.179a9.011,9.011,0,0,0,.738-5.176l-.018-.116a3.684,3.684,0,0,0-1.085-2.6,1.38,1.38,0,0,1-.41-.975,4.927,4.927,0,0,0-3.29-4.574,1.673,1.673,0,0,1-1.032-1.112,4.047,4.047,0,0,0-3.657-2.852,1.384,1.384,0,0,1-1.026-.573,4.2,4.2,0,0,0-3.42-1.7,4.352,4.352,0,0,0-1.119.146,1.692,1.692,0,0,1-1.621-.41,4.576,4.576,0,0,0-3.589-1.2h0a4.518,4.518,0,0,0-3.589,1.2,1.693,1.693,0,0,1-1.622.41,4.346,4.346,0,0,0-1.119-.146,4.2,4.2,0,0,0-3.42,1.7,1.382,1.382,0,0,1-1.026.573,4.047,4.047,0,0,0-3.657,2.852,1.672,1.672,0,0,1-1.031,1.112,4.927,4.927,0,0,0-3.29,4.574,1.381,1.381,0,0,1-.411.975,3.684,3.684,0,0,0-1.085,2.6l-.017.116a9.007,9.007,0,0,0,.757,5.219,44.933,44.933,0,0,1,1.208,5.976,10.1,10.1,0,0,0,1.067,3.173,10.266,10.266,0,0,1,1.159,3.554,15.19,15.19,0,0,0,5.043,9.653,16.461,16.461,0,0,0,22.2-.095,15.2,15.2,0,0,0,4.963-9.7,9.822,9.822,0,0,1,1.146-3.528l.009-.02a10.132,10.132,0,0,0,1.1-3.269,43.543,43.543,0,0,1,1.146-5.792Z" transform="translate(-191.733 -220.038)" fill="#ffddce"/>
                <path id="Trazado_152029" data-name="Trazado 152029" d="M248.535,236l-.018-.116a3.688,3.688,0,0,0-1.085-2.6,1.377,1.377,0,0,1-.41-.976,4.926,4.926,0,0,0-3.29-4.573,1.673,1.673,0,0,1-1.032-1.112,4.047,4.047,0,0,0-3.657-2.852,1.382,1.382,0,0,1-1.026-.574,4.2,4.2,0,0,0-3.42-1.7,4.353,4.353,0,0,0-1.119.146,1.689,1.689,0,0,1-1.621-.409,4.576,4.576,0,0,0-3.589-1.2h0a4.514,4.514,0,0,0-3.589,1.2,1.691,1.691,0,0,1-1.622.409,4.374,4.374,0,0,0-2.53.088,4.233,4.233,0,0,1,1.229.712c.8.653.846,1.267,1.745,1.331a4.3,4.3,0,0,1,2.08.71c1.944,1.307,1.151,2.7,2.609,3.254a4.925,4.925,0,0,1,3.29,4.573c-.006,1.218,1.613,1.032,1.618,5.055,0,3.22-.672,1.142-1.988,9.6-.484,3.109-1.9,3.79-2.257,6.817a15.19,15.19,0,0,1-4.963,9.7,18.211,18.211,0,0,1-3.377,2.363,16.59,16.59,0,0,0,7.839,1.99,16.89,16.89,0,0,0,11.08-4.352,15.19,15.19,0,0,0,4.963-9.7,9.822,9.822,0,0,1,1.146-3.528l.01-.019a10.184,10.184,0,0,0,1.1-3.27,43.417,43.417,0,0,1,1.145-5.792,9,9,0,0,0,.738-5.176Z" transform="translate(-192.451 -220.038)" fill="#ffcbbe"/>
                <path id="Trazado_152030" data-name="Trazado 152030" d="M247.8,235.887a3.684,3.684,0,0,0-1.085-2.6,1.38,1.38,0,0,1-.41-.975,4.927,4.927,0,0,0-3.29-4.574,1.673,1.673,0,0,1-1.032-1.112,4.047,4.047,0,0,0-3.657-2.852,1.382,1.382,0,0,1-1.026-.574,4.2,4.2,0,0,0-3.42-1.7,4.353,4.353,0,0,0-1.119.146,1.689,1.689,0,0,1-1.621-.409,4.576,4.576,0,0,0-3.589-1.2h0a4.514,4.514,0,0,0-3.589,1.2,1.691,1.691,0,0,1-1.622.409,4.348,4.348,0,0,0-1.119-.146,4.2,4.2,0,0,0-3.42,1.7,1.382,1.382,0,0,1-1.026.574,4.047,4.047,0,0,0-3.657,2.852,1.672,1.672,0,0,1-1.031,1.112,4.927,4.927,0,0,0-3.29,4.574,1.381,1.381,0,0,1-.411.975,3.684,3.684,0,0,0-1.085,2.6l-.017.116a9.007,9.007,0,0,0,.757,5.219,44.966,44.966,0,0,1,1.208,5.976,10.125,10.125,0,0,0,1.067,3.174,11.048,11.048,0,0,1,.677,1.537,9.1,9.1,0,0,0,3.1,4.293l.136.1a22.577,22.577,0,0,0,26.794-.1l.03-.023a8.922,8.922,0,0,0,3.056-4.3,10.472,10.472,0,0,1,.71-1.619l.01-.019a10.159,10.159,0,0,0,1.1-3.27,43.543,43.543,0,0,1,1.146-5.792,9,9,0,0,0,.737-5.176Z" transform="translate(-191.733 -220.038)" fill="#756e78"/>
                <path id="Trazado_152031" data-name="Trazado 152031" d="M248.536,236l-.018-.116a3.688,3.688,0,0,0-1.085-2.6,1.377,1.377,0,0,1-.41-.976,4.926,4.926,0,0,0-3.29-4.573,1.673,1.673,0,0,1-1.032-1.112,4.047,4.047,0,0,0-3.657-2.852,1.382,1.382,0,0,1-1.026-.574,4.2,4.2,0,0,0-3.42-1.7,4.353,4.353,0,0,0-1.119.146,1.692,1.692,0,0,1-1.621-.41,4.575,4.575,0,0,0-3.589-1.2h0a4.517,4.517,0,0,0-3.589,1.2,1.693,1.693,0,0,1-1.622.41,4.374,4.374,0,0,0-2.53.088,4.211,4.211,0,0,1,1.229.712c.8.652.846,1.267,1.745,1.331a4.3,4.3,0,0,1,2.08.71c1.944,1.307,1.151,2.7,2.609,3.254a4.925,4.925,0,0,1,3.29,4.573c-.006,1.217,1.613,1.032,1.618,5.055,0,3.22-.672,1.142-1.988,9.6-.484,3.109-1.9,3.79-2.257,6.817a15.635,15.635,0,0,1-2.438,6.778c.634.054,1.284.087,1.955.091a22.471,22.471,0,0,0,13.375-4.453l.03-.023a8.918,8.918,0,0,0,3.056-4.3,10.55,10.55,0,0,1,.71-1.619l.01-.019a10.184,10.184,0,0,0,1.1-3.27,43.48,43.48,0,0,1,1.145-5.792,9,9,0,0,0,.738-5.175Z" transform="translate(-192.452 -220.038)" fill="#665e66"/>
              </g>
            </g>
          </g>
        </g>
      </g>
    </g>
    <g id="Grupo_94997" data-name="Grupo 94997" transform="translate(188.889 196)">
      <g id="Grupo_94996" data-name="Grupo 94996">
        <path id="Trazado_152032" data-name="Trazado 152032" d="M302.763,247.467c0-.027,0-1.845,0-18.7a4.634,4.634,0,0,0,1.488-3.4v-5.52a4.634,4.634,0,0,0-1.523-3.432,21.452,21.452,0,0,0-42.854,0,4.631,4.631,0,0,0-1.524,3.432v5.52a4.631,4.631,0,0,0,1.491,3.4v5.857a1.86,1.86,0,0,0,1.859,1.861h0a1.861,1.861,0,0,0,1.86-1.86v-4.609h2.5a15.793,15.793,0,0,0,5.735,8.348c-.042,3.948.1,4.08-.14,4.714-.616,1.621-1.789,1.2-8.1,2.979v-2.735a1.86,1.86,0,0,0-1.86-1.86h0a1.86,1.86,0,0,0-1.86,1.859l0,4.143a23.164,23.164,0,0,0-13.126,20.846v2.932a26.623,26.623,0,0,0-3.987-1.1l-4.428-.853a2.32,2.32,0,0,1-1.88-2.276V265.5a20.7,20.7,0,0,0,2.546-1.914,17.019,17.019,0,0,0,5.582-10.877,8.119,8.119,0,0,1,.944-2.878c1.772-3.274,1.46-6.877,2.307-9.182,1.369-2.956,1.535-7.515-.614-9.83a6.752,6.752,0,0,0-4.417-6.084,5.91,5.91,0,0,0-5.067-4.088,6.14,6.14,0,0,0-6.32-2.112,7.824,7.824,0,0,0-9.617,0,6.14,6.14,0,0,0-6.321,2.112,5.9,5.9,0,0,0-5.067,4.088,6.753,6.753,0,0,0-4.416,6.084c-2.185,2.354-1.978,6.928-.59,9.884.251.661.818,3.991.963,4.875.722,4.42,1.975,4.531,2.318,7.284a17.007,17.007,0,0,0,5.672,10.83,20.765,20.765,0,0,0,2.4,1.789v1.535a2.3,2.3,0,0,1-1.8,2.254h0l-4.509.874a26.373,26.373,0,0,0-9.451,3.807,1.86,1.86,0,1,0,2.029,3.119,22.693,22.693,0,0,1,8.125-3.273l3.651-.7a18.334,18.334,0,0,0,12.208,4.629h.007a18.332,18.332,0,0,0,12.066-4.5l2.974.572a22.847,22.847,0,0,1,18.5,22.4v5.432a4.192,4.192,0,0,1-4.188,4.188h-5.583v-6.591a1.86,1.86,0,0,0-3.72,0v6.591H206.059v-6.591a1.86,1.86,0,1,0-3.72,0v6.591H196.8a4.193,4.193,0,0,1-4.188-4.188V296.2a22.649,22.649,0,0,1,4.516-13.626,1.86,1.86,0,1,0-2.983-2.223,26.34,26.34,0,0,0-5.253,15.849v5.432a7.917,7.917,0,0,0,7.908,7.908H309a6.9,6.9,0,0,0,6.887-6.886V268.313a23.165,23.165,0,0,0-13.126-20.846Zm-91-19.279a3.554,3.554,0,0,0,2.165-2.35,2.186,2.186,0,0,1,2-1.5,3.284,3.284,0,0,0,2.4-1.342,2.413,2.413,0,0,1,2.553-.846,3.565,3.565,0,0,0,3.4-.882,2.73,2.73,0,0,1,2.283-.666,2.793,2.793,0,0,1,2.284.666,3.561,3.561,0,0,0,3.405.881l.022,0a2.721,2.721,0,0,1,2.894,1.269,3.227,3.227,0,0,0,1.7.881c.3.054,1.92.067,2.333,1.54a3.552,3.552,0,0,0,2.164,2.35,3.061,3.061,0,0,1,2.088,2.825,3.224,3.224,0,0,0,.946,2.29c.6.607,1.136,3.363,0,5.8-1,2.143-.8,6.382-2.207,8.981-1.153,2.132-1.062,3.685-3.233,5.311l-.037.027a20.717,20.717,0,0,1-24.579.092l-.126-.093c-2.132-1.6-2.243-3.324-3.255-5.216-1.323-2.478-1.253-6.989-2.234-9.067-1.084-2.3-.726-5.108-.012-5.831a3.226,3.226,0,0,0,.946-2.29,3.06,3.06,0,0,1,2.087-2.825Zm2.459,29.68a24.4,24.4,0,0,0,12.438,3.356h.036a24.36,24.36,0,0,0,12.251-3.352,12.616,12.616,0,0,1-2.441,2.921,14.621,14.621,0,0,1-19.753.084A12.588,12.588,0,0,1,214.219,257.868Zm4.363,13.5a6,6,0,0,0,1.845-4.059,17.928,17.928,0,0,0,12.279.01,6.039,6.039,0,0,0,2.207,4.363A14.642,14.642,0,0,1,218.582,271.372Zm93.586-3.059v9.46h-6.662v-3.742a1.861,1.861,0,0,0-3.721,0v3.742H291.552a86.615,86.615,0,0,0,.3-29.685c4.415,1.132,4.488,1.153,4.576,1.171A19.429,19.429,0,0,1,312.168,268.313Zm-37.334,9.46a82.631,82.631,0,0,1-1.287-21.7,22.653,22.653,0,0,0,15.5,0,82.67,82.67,0,0,1-1.287,21.7ZM299.6,218.917a.933.933,0,0,1,.931.931v5.52a.933.933,0,0,1-.931.931h-2.472c.026-.687,0,.2.011-7.382Zm-4.247,14.391c-.022-.059-.041-.118-.064-.176a15.8,15.8,0,0,0,1.251-3.112h2.5v1.071a2.262,2.262,0,0,1-2.259,2.217Zm-3.425,1.64a1.072,1.072,0,0,1-1.07,1.07h-4.241a1.07,1.07,0,1,1,0-2.139h4.241A1.071,1.071,0,0,1,291.925,234.947Zm.606,9.478.026,0a2.178,2.178,0,0,1-1.752-2.1v-2.592h.05a4.791,4.791,0,0,0,4.308-2.709h1.617a5.945,5.945,0,0,0,2.259-.445l0,9.476c-.025-.008-6.484-1.63-6.51-1.635Zm-11.233-44.7A17.776,17.776,0,0,1,298.884,215.2H295.75a11.223,11.223,0,0,1-5.29-6.508,2.6,2.6,0,0,0-4.753-.465c-4.416,7.946-14.086,6.972-21.992,6.972A17.773,17.773,0,0,1,281.3,199.721ZM263,226.3a.931.931,0,0,1-.931-.93v-5.521a.931.931,0,0,1,.931-.93h2.46c.011,8.345-.016,6.563.014,7.381Zm6.181-.4v-6.978c.888-.145,12.333,1.239,18.568-7.025a14.891,14.891,0,0,0,5.668,6.258v7.745a12.107,12.107,0,0,1-.964,4.542,4.754,4.754,0,0,0-1.6-.279h-4.241a4.782,4.782,0,0,0-3.892,7.572,12.087,12.087,0,0,1-13.542-11.835Zm17.9,14.546c.074,2.224,1.276,9.125,1.6,11.78a18.857,18.857,0,0,1-14.76,0c.318-2.648,1.521-9.56,1.594-11.772A15.844,15.844,0,0,0,287.083,240.441Zm-36.654,32.478v-4.605a19.43,19.43,0,0,1,15.737-19.053c.089-.018.161-.04,4.576-1.171a86.6,86.6,0,0,0,.3,29.685H260.813v-3.742a1.86,1.86,0,0,0-3.72,0v3.742h-.31a26.553,26.553,0,0,0-6.353-4.855Zm61.739,29.738A3.166,3.166,0,0,1,309,305.822H263.039a7.851,7.851,0,0,0,1.2-4.188V296.2a26.428,26.428,0,0,0-3.874-13.776l-.406-.634a.194.194,0,0,1,.163-.3h52.041Z" transform="translate(-188.889 -196)"/>
        <path id="Trazado_152033" data-name="Trazado 152033" d="M300.942,266.3V269.2a3.849,3.849,0,0,0,3.845,3.844h5.954a3.849,3.849,0,0,0,3.844-3.844V266.3a3.849,3.849,0,0,0-3.844-3.845h-5.954A3.85,3.85,0,0,0,300.942,266.3Zm3.72,0a.125.125,0,0,1,.125-.124h5.954a.124.124,0,0,1,.124.124V269.2a.124.124,0,0,1-.124.124h-5.954a.125.125,0,0,1-.125-.124Z" transform="translate(-194.919 -199.576)"/>
      </g>
    </g>
  </g>
</svg>
