<svg xmlns="http://www.w3.org/2000/svg" width="86" height="86" viewBox="0 0 86 86">
  <g id="Grupo_99814" data-name="Grupo 99814" transform="translate(2726.182 1269)">
    <g id="Grupo_98564" data-name="Grupo 98564" transform="translate(-2939.182 -1482)">
      <circle id="Elipse_5131" data-name="Elipse 5131" cx="8.6" cy="8.6" r="8.6" transform="translate(234.5 237.367)" fill="#4ac3ed"/>
      <path id="Trazado_155764" data-name="Trazado 155764" d="M297.567,263.167V277.5H290.4v20.067H273.2v-34.4l-5.733,5.733a5.733,5.733,0,0,1-8.342-.244L251.7,260.3,256,256l7.167,7.167,4.586-5.5a8.6,8.6,0,0,1,6.608-3.1h14.606A8.607,8.607,0,0,1,297.567,263.167Z" fill="#f4b34a"/>
      <path id="Trazado_155765" data-name="Trazado 155765" d="M239.99,259.11a8.152,8.152,0,0,1-2.136,5.49l-10.521,11.467-4.3-4.3v25.8h-8.6V266.033L225.9,253.606a8.125,8.125,0,0,1,14.09,5.5Z" fill="#4ac3ed"/>
      <path id="Trazado_155766" data-name="Trazado 155766" d="M266.033,231.633H228.767V238.8l-7.167-7.167h-7.167v-17.2h51.6Z" fill="#eae8e5"/>
      <circle id="Elipse_5132" data-name="Elipse 5132" cx="8.6" cy="8.6" r="8.6" transform="translate(273.2 237.367)" fill="#f4b34a"/>
      <g id="Grupo_98562" data-name="Grupo 98562">
        <path id="Trazado_155767" data-name="Trazado 155767" d="M243.1,235.933a10.044,10.044,0,0,0-10.033,10.034,9.865,9.865,0,0,0,.745,3.8,8.786,8.786,0,0,0-2.136-.2,9.5,9.5,0,0,0-6.822,3.068l-11.467,12.427a1.4,1.4,0,0,0-.387.974v31.534A1.437,1.437,0,0,0,214.433,299h8.6a1.438,1.438,0,0,0,1.434-1.433V275.221l1.849,1.863a1.6,1.6,0,0,0,1.046.416,1.491,1.491,0,0,0,1.032-.459L238.9,265.56a9.5,9.5,0,0,0,1.892-9.832A9.528,9.528,0,0,0,243.1,256a10.034,10.034,0,0,0,0-20.067Zm-6.307,27.692-9.5,10.363-3.726-3.726,9.144-10.449-2.15-1.892-10.033,11.466a1.44,1.44,0,0,0,.057,1.964l1.018,1v23.779h-5.733V266.592l11.094-12.011a6.654,6.654,0,0,1,4.773-2.15,6.814,6.814,0,0,1,4.859,1.949A6.676,6.676,0,0,1,236.793,263.625Zm6.307-10.492a7.166,7.166,0,1,1,7.167-7.166A7.169,7.169,0,0,1,243.1,253.133Z"/>
        <path id="Trazado_155768" data-name="Trazado 155768" d="M228.767,240.233a1.434,1.434,0,0,1-1.014-.42l-6.746-6.746h-6.574A1.433,1.433,0,0,1,213,231.633v-17.2A1.433,1.433,0,0,1,214.433,213h51.6a1.433,1.433,0,0,1,1.434,1.433v17.2a1.433,1.433,0,0,1-1.434,1.434H230.2V238.8a1.434,1.434,0,0,1-.884,1.324A1.407,1.407,0,0,1,228.767,240.233Zm-12.9-10.033H221.6a1.426,1.426,0,0,1,1.013.42l4.72,4.72v-3.707a1.433,1.433,0,0,1,1.434-1.433H264.6V215.867H215.867Z"/>
        <path id="Trazado_155769" data-name="Trazado 155769" d="M218.733,218.733h43V221.6h-43Z"/>
        <path id="Trazado_155770" data-name="Trazado 155770" d="M218.733,224.467h8.6v2.866h-8.6Z"/>
        <path id="Trazado_155771" data-name="Trazado 155771" d="M231.633,224.467h30.1v2.866h-30.1Z"/>
        <path id="Trazado_155772" data-name="Trazado 155772" d="M288.967,253.133h-.158a10.033,10.033,0,1,0-14.018,0h-.43a10.04,10.04,0,0,0-7.711,3.612l-3.584,4.3-6.048-6.063a1.446,1.446,0,0,0-2.036,0l-4.3,4.3a1.44,1.44,0,0,0-.057,1.964l7.425,8.356a7.112,7.112,0,0,0,5.145,2.408,7.253,7.253,0,0,0,5.289-2.092l3.283-3.3v30.946A1.437,1.437,0,0,0,273.2,299h17.2a1.437,1.437,0,0,0,1.433-1.433V278.933h5.734A1.437,1.437,0,0,0,299,277.5V263.167a10.045,10.045,0,0,0-10.033-10.034Zm-14.334-7.166a7.158,7.158,0,1,1,4.128,6.493,5.717,5.717,0,0,0,3.039-5.06h-2.867a2.875,2.875,0,0,1-2.866,2.867A7.085,7.085,0,0,1,274.633,245.967Zm21.5,30.1h-4.3V261.733h-2.866v34.4h-5.734V276.067h-2.866v20.066h-5.734V263.167a1.415,1.415,0,0,0-.888-1.319,1.439,1.439,0,0,0-1.563.3l-5.733,5.733a4.3,4.3,0,0,1-3.168,1.262,4.235,4.235,0,0,1-3.081-1.434l-6.536-7.353L256,258.021l6.149,6.163a1.441,1.441,0,0,0,2.121-.1l4.587-5.5a7.151,7.151,0,0,1,5.5-2.58h14.606a7.169,7.169,0,0,1,7.166,7.167Z"/>
      </g>
    </g>
  </g>
</svg>
