<svg xmlns="http://www.w3.org/2000/svg" width="86" height="86" viewBox="0 0 86 86">
  <g id="Grupo_99815" data-name="Grupo 99815" transform="translate(2729.182 1128)">
    <g id="Grupo_98565" data-name="Grupo 98565" transform="translate(-200.182 46)">
      <g id="Grupo_98581" data-name="Grupo 98581" transform="translate(-2742 -1387)">
        <g id="Grupo_98579" data-name="Grupo 98579">
          <g id="Grupo_98563" data-name="Grupo 98563">
            <path id="Trazado_155773" data-name="Trazado 155773" d="M235.194,297.613H222.71V283.742L224,283.1a2.689,2.689,0,0,0,1.47-2.136h22.207v16.645Z" fill="#969faa"/>
          </g>
          <g id="Grupo_98564" data-name="Grupo 98564">
            <path id="Trazado_155774" data-name="Trazado 155774" d="M244.9,228.258h-4.9a26.181,26.181,0,0,1-11.749-2.774,5.012,5.012,0,0,0-2.774,4.494v1.054H224.1a4.158,4.158,0,0,0-3.2,1.5l-.583-1.775a7.1,7.1,0,0,1-.375-2.275,7.235,7.235,0,0,1,2.109-5.1l.666-.665a8.334,8.334,0,0,1,8.322-8.323h9.03a4.837,4.837,0,0,1,4.841,4.841,5.568,5.568,0,0,1-.041.68l1.1.555a8.119,8.119,0,0,1,3.635,10.9l-.417.832a4.139,4.139,0,0,0-2.885-1.165H244.9Z" fill="#b27946"/>
          </g>
          <g id="Grupo_98565-2" data-name="Grupo 98565">
            <path id="Trazado_155775" data-name="Trazado 155775" d="M237.066,257.54l2.289,13.718-4.161,4.161-4.162-4.161,2.289-13.76,1.873-1.5,1.886,1.512Z" fill="#e6e9ed"/>
          </g>
          <g id="Grupo_98566" data-name="Grupo 98566">
            <path id="Trazado_155776" data-name="Trazado 155776" d="M242.892,252.13a26.7,26.7,0,0,1,4.785,1.1c4.162,1.387,8.323,5.548,8.323,5.548l11.1-11.1,5.548,5.549L261.2,264.669a8.293,8.293,0,0,1-9.835,1.415l-3.69-2.011v16.895H225.47a1.76,1.76,0,0,0,.014-.278,2.678,2.678,0,0,0-.791-1.9l-1.983-1.984h-8.323V263.06a10.368,10.368,0,0,1,9.072-10.278l3.925-.486a4.046,4.046,0,0,0,2-.8l-1.124,10.056,5.063-4.05-2.289,13.76,4.162,4.161,4.161-4.161-2.289-13.718.014-.028,5.049,4.036-1.137-10.209v-.014a4.16,4.16,0,0,0,1.9.805Z" fill="#4fc1e9"/>
          </g>
          <g id="Grupo_98567" data-name="Grupo 98567">
            <path id="Trazado_155777" data-name="Trazado 155777" d="M240.992,251.339l1.137,10.209-5.049-4.036L235.194,256l4.4-6.6a4.05,4.05,0,0,0,1.4,1.928Z" fill="#3bafda"/>
          </g>
          <g id="Grupo_98568" data-name="Grupo 98568">
            <path id="Trazado_155778" data-name="Trazado 155778" d="M230.824,249.453l4.37,6.547-1.873,1.5-5.063,4.05,1.124-10.056A4.283,4.283,0,0,0,230.824,249.453Z" fill="#3bafda"/>
          </g>
          <g id="Grupo_98569" data-name="Grupo 98569">
            <path id="Trazado_155779" data-name="Trazado 155779" d="M278.194,286.516v5.549a2.783,2.783,0,0,1-2.775,2.774H258.774A2.782,2.782,0,0,1,256,292.065v-5.549a2.782,2.782,0,0,1,2.774-2.774h6.936l4.979-4.98a1.962,1.962,0,0,1,3.343,1.387v3.593h1.387A2.783,2.783,0,0,1,278.194,286.516Z" fill="#e6e9ed"/>
          </g>
          <g id="Grupo_98570" data-name="Grupo 98570">
            <path id="Trazado_155780" data-name="Trazado 155780" d="M297.613,261.548V267.1a2.782,2.782,0,0,1-2.774,2.774H287.9l-4.979,4.98a1.962,1.962,0,0,1-3.343-1.387v-3.593h-1.387a2.783,2.783,0,0,1-2.775-2.774v-5.549a2.783,2.783,0,0,1,2.775-2.774h16.645A2.782,2.782,0,0,1,297.613,261.548Z" fill="#e6e9ed"/>
          </g>
          <g id="Grupo_98571" data-name="Grupo 98571">
            <path id="Trazado_155781" data-name="Trazado 155781" d="M282.355,240.742a4.155,4.155,0,0,1-4.161,4.161l-.278-.541a4.022,4.022,0,0,0-3.606-2.233l-.278.014v-2.788h8.323Z" fill="#aab2bd"/>
          </g>
          <g id="Grupo_98572" data-name="Grupo 98572">
            <path id="Trazado_155782" data-name="Trazado 155782" d="M282.355,239.355h-8.323v-1.04a4.107,4.107,0,0,0-1.8-3.482,11.093,11.093,0,1,1,11.957-.014,4.06,4.06,0,0,0-1.831,3.44Z" fill="#ffeaa7"/>
          </g>
          <g id="Grupo_98573" data-name="Grupo 98573">
            <path id="Trazado_155783" data-name="Trazado 155783" d="M225.484,280.69a1.76,1.76,0,0,1-.014.278A2.689,2.689,0,0,1,224,283.1l-1.29.638v1.387a2.783,2.783,0,0,1-2.775,2.774h-2.774a2.782,2.782,0,0,1-2.774-2.774v-8.323h8.323l1.983,1.984A2.678,2.678,0,0,1,225.484,280.69Z" fill="#f0d0b4"/>
          </g>
          <g id="Grupo_98574" data-name="Grupo 98574">
            <path id="Trazado_155784" data-name="Trazado 155784" d="M277.916,244.362l.278.541h1.387a2.783,2.783,0,0,1,2.774,2.774v2.775a2.783,2.783,0,0,1-2.774,2.774h-6.936l-5.548-5.549,4.369-4.369a4.039,4.039,0,0,1,2.566-1.165l.278-.014A4.022,4.022,0,0,1,277.916,244.362Z" fill="#f0d0b4"/>
          </g>
          <g id="Grupo_98575" data-name="Grupo 98575">
            <path id="Trazado_155785" data-name="Trazado 155785" d="M231.032,248.163v-2.816a9.654,9.654,0,0,0,8.323,0v2.677a4.126,4.126,0,0,0,.236,1.373l-4.4,6.6-4.37-6.547A3.981,3.981,0,0,0,231.032,248.163Z" fill="#f0d0b4"/>
          </g>
          <g id="Grupo_98576" data-name="Grupo 98576">
            <path id="Trazado_155786" data-name="Trazado 155786" d="M249.175,232.2a4.162,4.162,0,0,1-2.885,7.158H244.5a9.566,9.566,0,0,0,.4-2.774v-5.549h1.387a4.139,4.139,0,0,1,2.885,1.165Z" fill="#f0d0b4"/>
          </g>
          <g id="Grupo_98577" data-name="Grupo 98577">
            <path id="Trazado_155787" data-name="Trazado 155787" d="M225.886,239.355H224.1a4.162,4.162,0,1,1,0-8.323h1.387v5.549A9.6,9.6,0,0,0,225.886,239.355Z" fill="#f0d0b4"/>
          </g>
          <g id="Grupo_98578" data-name="Grupo 98578">
            <path id="Trazado_155788" data-name="Trazado 155788" d="M244.9,231.032v5.549a9.7,9.7,0,0,1-13.871,8.766,9.7,9.7,0,0,1-5.146-5.992,9.6,9.6,0,0,1-.4-2.774v-6.6a5.012,5.012,0,0,1,2.774-4.494,26.181,26.181,0,0,0,11.749,2.774h4.9Z" fill="#f0d0b4"/>
          </g>
        </g>
        <g id="Grupo_98580" data-name="Grupo 98580">
          <path id="Trazado_155789" data-name="Trazado 155789" d="M255.34,268.484a9.618,9.618,0,0,0,6.844-2.835l11.035-11.036h6.362a4.166,4.166,0,0,0,4.161-4.161v-2.775a4.135,4.135,0,0,0-1.5-3.17,5.512,5.512,0,0,0,1.5-3.765v-2.484a2.671,2.671,0,0,1,1.2-2.275,12.479,12.479,0,0,0,1.57-19.812,12.483,12.483,0,0,0-20.694,7.677A12.424,12.424,0,0,0,271.479,236a2.73,2.73,0,0,1,1.165,2.313v2.714a5.356,5.356,0,0,0-2.161,1.3l-3.386,3.386-11.133,11.132a25.125,25.125,0,0,0-7.848-4.937,28.511,28.511,0,0,0-5.035-1.154,2.761,2.761,0,0,1-2.339-2.74v-1.842a11.154,11.154,0,0,0,4.731-5.434h.817a5.535,5.535,0,0,0,4.531-8.734l.013-.029a9.5,9.5,0,0,0-4.251-12.754l-.308-.154a6.223,6.223,0,0,0-6.209-6.07h-9.034a9.721,9.721,0,0,0-9.691,9.117l-.272.272a8.607,8.607,0,0,0-2.08,8.806l.379,1.136a5.491,5.491,0,0,0-.82,2.863,5.555,5.555,0,0,0,5.549,5.548h.817a11.156,11.156,0,0,0,4.731,5.435v1.989a2.778,2.778,0,0,1-2.43,2.752l-3.924.491a11.8,11.8,0,0,0-6.85,3.351A11.665,11.665,0,0,0,213,263.066v22.063a4.166,4.166,0,0,0,4.161,4.161h2.774a4.127,4.127,0,0,0,1.388-.255V299h27.741V266.407l1.643.9a9.7,9.7,0,0,0,4.633,1.181Zm25.628-27.742a2.772,2.772,0,0,1-2,2.652,5.366,5.366,0,0,0-3.546-2.527v-.125Zm-12.4-16.543a9.744,9.744,0,0,1,8.489-8.36,9.612,9.612,0,0,1,7.6,2.4,9.706,9.706,0,0,1-1.222,15.412,5.416,5.416,0,0,0-2.453,4.317H275.4a5.409,5.409,0,0,0-2.426-4.3,9.673,9.673,0,0,1-4.4-9.465Zm3.878,20.093a2.663,2.663,0,0,1,1.87-.776,2.627,2.627,0,0,1,2.365,1.462l.656,1.312h2.245a1.389,1.389,0,0,1,1.387,1.387v2.775a1.389,1.389,0,0,1-1.387,1.387h-6.362l-4.161-4.162ZM240.38,258.373l-3.326-2.662,2.534-3.8.083.081Zm-2.511,12.409-2.675,2.676-2.676-2.676,2.089-12.536.587-.469.586.469ZM230.7,252.148c.053-.051.108-.1.159-.151l2.476,3.714-3.326,2.662Zm15.592-14.18H246.2a11.334,11.334,0,0,0,.095-1.387v-4.162a2.774,2.774,0,1,1,0,5.549Zm-22.193,0a2.774,2.774,0,0,1,0-5.549v4.162a11.334,11.334,0,0,0,.1,1.387Zm.022-8.323H224.1a5.5,5.5,0,0,0-2.489.616,5.812,5.812,0,0,1,1.422-5.912l1.067-1.065v-.574a6.943,6.943,0,0,1,6.935-6.936h9.034a3.449,3.449,0,0,1,1.092,6.721l-.854.284.876,2.633.855-.286a6.213,6.213,0,0,0,3.641-3.225,6.682,6.682,0,0,1,2.924,8.263,5.5,5.5,0,0,0-2.31-.519v-2.774h-6.28a25,25,0,0,1-11.132-2.629l-.62-.309-.62.311a6.359,6.359,0,0,0-3.519,5.4Zm2.752,6.936v-6.608a3.617,3.617,0,0,1,1.462-2.915,27.792,27.792,0,0,0,11.677,2.587h3.506v6.936a8.323,8.323,0,0,1-16.645,0Zm8.323,11.1a11.046,11.046,0,0,0,2.774-.364v.7a5.575,5.575,0,0,0,.126,1.131l-2.9,4.351-2.87-4.3a5.649,5.649,0,0,0,.1-1.028v-.853a11.047,11.047,0,0,0,2.775.364ZM218.4,256.721a9.013,9.013,0,0,1,5.232-2.56l3.924-.491c.064-.009.121-.031.183-.041l-1.233,11.094,4.853-3.882-1.815,10.893,5.647,5.647,5.646-5.647-1.815-10.893,4.853,3.882-1.248-11.235c.022,0,.043.012.066.015a25.709,25.709,0,0,1,4.543,1.038,22.961,22.961,0,0,1,7.058,4.538l-.924,1.849,2.481,1.242,1.286-2.573,9.957-9.958,3.587,3.587-10.462,10.461a6.858,6.858,0,0,1-4.882,2.023,6.939,6.939,0,0,1-3.306-.842l-2.946-1.607a3.317,3.317,0,0,1,.957-2.118l-1.963-1.961a6.081,6.081,0,0,0-1.792,4.328v16.071H226.7a4.081,4.081,0,0,0-1.017-1.768l-1.581-1.581V263.51a6.085,6.085,0,0,0-1.792-4.329l-1.963,1.961a3.329,3.329,0,0,1,.981,2.368v11.909h-5.549V263.066a9.037,9.037,0,0,1,2.629-6.345Zm1.532,29.795h-2.774a1.388,1.388,0,0,1-1.387-1.387v-6.935h6.361l1.582,1.581a1.311,1.311,0,0,1,.38.919,1.293,1.293,0,0,1-.719,1.163l-2.055,1.028v2.244A1.389,1.389,0,0,1,219.935,286.516Zm16.646,9.71v-3.937a4.7,4.7,0,0,1,3.212-4.458l-.878-2.63a7.469,7.469,0,0,0-3.723,2.754,7.445,7.445,0,0,0-3.723-2.754l-.878,2.63a4.694,4.694,0,0,1,3.215,4.458v3.937H224.1V284.6l.521-.261a4.051,4.051,0,0,0,1.9-1.983h19.77v13.871Z"/>
          <path id="Trazado_155790" data-name="Trazado 155790" d="M284.723,222.3l-1.962-1.961-7.342,7.342-1.793-1.794-1.962,1.962,3.755,3.755Z"/>
          <path id="Trazado_155791" data-name="Trazado 155791" d="M275.419,282.355v-2.2a3.348,3.348,0,0,0-5.716-2.368l-4.568,4.568h-6.361a4.166,4.166,0,0,0-4.161,4.161v5.549a4.166,4.166,0,0,0,4.161,4.161h16.645a4.166,4.166,0,0,0,4.162-4.161v-5.549A4.166,4.166,0,0,0,275.419,282.355Zm1.387,9.71a1.388,1.388,0,0,1-1.387,1.387H258.774a1.389,1.389,0,0,1-1.387-1.387v-5.549a1.388,1.388,0,0,1,1.387-1.387h7.51l5.379-5.379a.6.6,0,0,1,.982.4v4.974h2.774a1.388,1.388,0,0,1,1.387,1.387Z"/>
          <path id="Trazado_155792" data-name="Trazado 155792" d="M260.161,287.9h13.871v2.774H260.161Z"/>
          <path id="Trazado_155793" data-name="Trazado 155793" d="M294.839,257.387H278.194a4.166,4.166,0,0,0-4.162,4.161V267.1a4.166,4.166,0,0,0,4.162,4.161v2.2a3.349,3.349,0,0,0,5.716,2.368l4.567-4.568h6.362A4.166,4.166,0,0,0,299,267.1v-5.549A4.166,4.166,0,0,0,294.839,257.387Zm1.387,9.71a1.389,1.389,0,0,1-1.387,1.387h-7.51l-5.379,5.379a.6.6,0,0,1-.982-.4v-4.974h-2.774a1.389,1.389,0,0,1-1.388-1.387v-5.549a1.389,1.389,0,0,1,1.388-1.387h16.645a1.389,1.389,0,0,1,1.387,1.387Z"/>
          <path id="Trazado_155794" data-name="Trazado 155794" d="M279.581,262.935h13.871v2.775H279.581Z"/>
        </g>
      </g>
    </g>
  </g>
</svg>
