<svg xmlns="http://www.w3.org/2000/svg" width="86.02" height="86" viewBox="0 0 86.02 86">
  <g id="Grupo_99811" data-name="Grupo 99811" transform="translate(-346.591 -10149)">
    <g id="Grupo_98554" data-name="Grupo 98554" transform="translate(133.601 9936)">
      <g id="Grupo_98556" data-name="Grupo 98556">
        <g id="Grupo_98555" data-name="Grupo 98555">
          <g id="Grupo_98553" data-name="Grupo 98553">
            <g id="Grupo_98549" data-name="Grupo 98549">
              <g id="Grupo_98548" data-name="Grupo 98548">
                <path id="Trazado_155711" data-name="Trazado 155711" d="M230.643,251.074v15.3h-6.254a10.139,10.139,0,0,1-10.139-10.139V237.715a13.441,13.441,0,0,1,13.441-13.441H252.9c0,12.87-12.286,20.2-18.472,20.877Z" fill="#cc8b66"/>
              </g>
              <path id="Trazado_155712" data-name="Trazado 155712" d="M246.182,224.274c0,12.87-10.87,21.567-17.823,20.165L226.53,247a16.555,16.555,0,0,0-2.608,8.919v10.444c.155.007.31.012.467.012h6.253v-15.3l3.788-5.923c6.186-.68,18.472-8.007,18.472-20.877Z" fill="#bf7950"/>
              <path id="Trazado_155713" data-name="Trazado 155713" d="M245.852,234.181a2.582,2.582,0,0,0-3.962.829c-3.295,6.522-7.158,8.361-8.335,8.788a3.62,3.62,0,1,0-2.932,6.366s.02,7.488.02,9.962a6.47,6.47,0,0,1-1.324,3.7,6.353,6.353,0,0,1-4.847,2.543v9.2h12.9v-9.4A13.523,13.523,0,0,0,248.6,252.848V236.474Z" fill="#ffcab9"/>
            </g>
            <g id="Grupo_98551" data-name="Grupo 98551">
              <g id="Grupo_98550" data-name="Grupo 98550">
                <path id="Trazado_155714" data-name="Trazado 155714" d="M281.415,297.778l4.107-12.461-4.107-13.58h-.3a15.66,15.66,0,0,0-15.66,15.66v10.381Z" fill="#87dbff"/>
                <path id="Trazado_155715" data-name="Trazado 155715" d="M281.415,297.778l6.191-9.6a6.489,6.489,0,0,0-6.489-6.489h0a6.489,6.489,0,0,0-6.489,6.489v9.6Z" fill="#6bd3ff"/>
                <path id="Trazado_155716" data-name="Trazado 155716" d="M297.75,297.778V237.715a13.441,13.441,0,0,0-13.441-13.441H269.334a7.485,7.485,0,0,0-5.969,12.019c4.133,5.359,10.387,8.387,14.252,8.812l3.779,5.91.019,46.763Z" fill="#ffea00"/>
                <path id="Trazado_155717" data-name="Trazado 155717" d="M284.309,224.274h-6.72a13.441,13.441,0,0,1,13.441,13.441v60.063h6.72V237.715A13.441,13.441,0,0,0,284.309,224.274Z" fill="#ffd900"/>
              </g>
              <path id="Trazado_155718" data-name="Trazado 155718" d="M284.369,246.177a3.613,3.613,0,0,0-5.879-2.422c-1.173-.427-5.028-2.261-8.315-8.769a2.576,2.576,0,0,0-3.953-.827l-2.737,2.288v16.338a13.494,13.494,0,0,0,11.2,13.294v7.037a15.6,15.6,0,0,1,6.435-1.379h.3v-21.63a3.612,3.612,0,0,0,2.954-3.93Z" fill="#ffcab9"/>
            </g>
            <g id="Grupo_98552" data-name="Grupo 98552">
              <path id="Trazado_155719" data-name="Trazado 155719" d="M255.137,282.045l6.091-14.594h-4.709v-9.888l-5.747,14.594h4.365Z" fill="#ffea00"/>
            </g>
          </g>
          <circle id="Elipse_5126" data-name="Elipse 5126" cx="8.868" cy="8.868" r="8.868" transform="translate(214.25 214.278)" fill="#ff59ac"/>
          <path id="Trazado_155720" data-name="Trazado 155720" d="M223.118,214.278a8.832,8.832,0,0,0-3.36.661,8.869,8.869,0,0,1,0,16.414,8.868,8.868,0,1,0,3.36-17.075Z" fill="#fa46a0"/>
          <g id="Grupo_98554-2" data-name="Grupo 98554">
            <circle id="Elipse_5127" data-name="Elipse 5127" cx="8.868" cy="8.868" r="8.868" transform="translate(280.014 214.278)" fill="#8affb3"/>
            <path id="Trazado_155721" data-name="Trazado 155721" d="M288.882,214.278a8.839,8.839,0,0,0-3.36.661,8.868,8.868,0,0,1,0,16.414,8.868,8.868,0,1,0,3.36-17.075Z" fill="#6ef59d"/>
          </g>
        </g>
        <path id="Trazado_155722" data-name="Trazado 155722" d="M215.226,297.778v-10.24a15.7,15.7,0,0,1,15.7-15.7h0a15.7,15.7,0,0,1,15.7,15.7v10.24Z" fill="#828cb3"/>
        <path id="Trazado_155723" data-name="Trazado 155723" d="M224.418,297.778v-9.454a6.5,6.5,0,0,1,6.5-6.505h0a6.5,6.5,0,0,1,6.5,6.505v9.454Z" fill="#717eb3"/>
      </g>
      <g id="Grupo_98557" data-name="Grupo 98557">
        <path id="Trazado_155724" data-name="Trazado 155724" d="M239.432,245.921l3.642,1.456v1.078a1.26,1.26,0,0,0,2.52,0v-1.931a1.258,1.258,0,0,0-.792-1.17l-4.435-1.773a1.26,1.26,0,1,0-.935,2.34Z"/>
        <path id="Trazado_155725" data-name="Trazado 155725" d="M297.75,283.833a1.26,1.26,0,0,0-1.26,1.26v12.685a1.261,1.261,0,0,0,2.52,0V285.093A1.26,1.26,0,0,0,297.75,283.833Z"/>
        <path id="Trazado_155726" data-name="Trazado 155726" d="M269,248.4v-1.073l3.633-1.452a1.26,1.26,0,1,0-.935-2.34l-4.426,1.768a1.261,1.261,0,0,0-.793,1.171V248.4A1.261,1.261,0,0,0,269,248.4Z"/>
        <path id="Trazado_155727" data-name="Trazado 155727" d="M261.228,266.191h-3.449v-8.628a1.266,1.266,0,0,0-2.432-.461L249.6,271.7a1.259,1.259,0,0,0,1.172,1.722h3.1v8.628a1.268,1.268,0,0,0,2.423.485l6.091-14.594a1.26,1.26,0,0,0-1.163-1.745Zm-4.831,9.563v-3.6a1.26,1.26,0,0,0-1.26-1.26h-2.514l2.636-6.7v3.249a1.26,1.26,0,0,0,1.26,1.26h2.818Z"/>
        <path id="Trazado_155728" data-name="Trazado 155728" d="M219.085,227.178a1.26,1.26,0,0,0,1.782,0l2.251-2.25,2.25,2.25a1.261,1.261,0,0,0,1.782-1.782l-2.25-2.25,2.25-2.251a1.26,1.26,0,0,0-1.782-1.781l-2.25,2.25-2.25-2.251a1.261,1.261,0,0,0-1.782,1.782l2.25,2.25-2.251,2.251A1.26,1.26,0,0,0,219.085,227.178Z"/>
        <path id="Trazado_155729" data-name="Trazado 155729" d="M299.01,223.146c-.547-13.361-19.543-13.467-20.252-.132h-9.424a8.767,8.767,0,0,0-7.109,13.859v15.912a14.707,14.707,0,0,0,11.2,14.317v5.228A16.938,16.938,0,0,0,264.2,287.4v10.381a1.261,1.261,0,0,0,2.52,0V287.4a14.419,14.419,0,0,1,13.422-14.367l.028,0c.012,1.892.016,4.566.017,7.462a7.759,7.759,0,0,0-6.816,7.691v9.6a1.261,1.261,0,0,0,2.52,0v-9.6a5.237,5.237,0,0,1,4.3-5.144c0,7.133-.026,14.614-.027,14.737a1.261,1.261,0,0,0,2.52.007c0-.2.062-20.292,0-26.058V251.038a4.911,4.911,0,0,0,2.948-4.988c0-3.549-4.506-5.319-7.275-3.723-1.426-.686-4.4-2.66-7.048-7.909a3.892,3.892,0,0,0-5.886-1.226l-1.655,1.384a6.037,6.037,0,0,1-.036-5.54,6.138,6.138,0,0,1,5.611-3.5h9.708a10.16,10.16,0,0,0,15.688,5.873,12.058,12.058,0,0,1,1.76,6.308v40.322a1.261,1.261,0,0,0,2.52,0V237.715a14.56,14.56,0,0,0-2.394-8.041,10.077,10.077,0,0,0,2.394-6.528Zm-34.264,13.89,2.285-1.91a1.328,1.328,0,0,1,2.02.428c3.412,6.756,7.437,8.814,9.009,9.385a1.255,1.255,0,0,0,1.227-.209,2.4,2.4,0,0,1,3.828,1.574,2.34,2.34,0,0,1-1.922,2.563,1.26,1.26,0,0,0-1.038,1.24v20.4a16.839,16.839,0,0,0-4.214.779v-5.2a1.26,1.26,0,0,0-1.047-1.242,12.2,12.2,0,0,1-10.148-12.052V237.036Zm16.528-13.89a7.617,7.617,0,0,1,7.608-7.608c10.093.418,10.09,14.8,0,15.215A7.617,7.617,0,0,1,281.274,223.146Z"/>
        <path id="Trazado_155730" data-name="Trazado 155730" d="M291.843,219.314l-4.991,4.991-1.665-1.666a1.261,1.261,0,0,0-1.782,1.782l2.556,2.557a1.26,1.26,0,0,0,1.782,0l5.882-5.883a1.26,1.26,0,0,0-1.782-1.781Z"/>
        <path id="Trazado_155731" data-name="Trazado 155731" d="M238.634,272.439V267.2a14.737,14.737,0,0,0,11.221-14.346V236.9a20.523,20.523,0,0,0,4.307-12.623,1.26,1.26,0,0,0-1.26-1.26h-19.66a10.17,10.17,0,0,0-13.8-9.306,1.26,1.26,0,0,0,.916,2.348,7.607,7.607,0,1,1-4.1,3.792,1.26,1.26,0,0,0-2.271-1.094,10.187,10.187,0,0,0,1.4,10.921,14.572,14.572,0,0,0-2.395,8.04v18.517a11.414,11.414,0,0,0,10.222,11.338v4.868a16.976,16.976,0,0,0-9.246,15.1v10.24a1.261,1.261,0,0,0,2.52,0v-10.24a14.437,14.437,0,0,1,28.874,0v10.24a1.261,1.261,0,0,0,2.52,0v-10.24a16.971,16.971,0,0,0-9.246-15.1ZM215.51,256.232V237.715a12.08,12.08,0,0,1,1.76-6.308,10.161,10.161,0,0,0,15.689-5.873H251.6a17.969,17.969,0,0,1-3.225,9.114l-1.715-1.434a3.9,3.9,0,0,0-5.9,1.227c-2.659,5.265-5.638,7.242-7.067,7.929a4.881,4.881,0,1,0-4.32,8.732l.142,8.881C229.294,268.505,215.494,265.835,215.51,256.232Zm15.411,14.35a16.9,16.9,0,0,0-5.189.813v-3.906a7.552,7.552,0,0,0,6.307-7.546l-.156-9.8a1.26,1.26,0,0,0-1.038-1.22,2.348,2.348,0,0,1-1.929-2.572,2.4,2.4,0,0,1,3.842-1.578,1.262,1.262,0,0,0,1.228.208c1.575-.572,5.608-2.634,9.028-9.4a1.336,1.336,0,0,1,2.03-.431l2.291,1.916v15.786A12.225,12.225,0,0,1,237.16,264.93a1.259,1.259,0,0,0-1.047,1.241V271.4a16.883,16.883,0,0,0-5.192-.814Z"/>
        <path id="Trazado_155732" data-name="Trazado 155732" d="M230.922,280.559a7.773,7.773,0,0,0-7.764,7.765v9.454a1.261,1.261,0,0,0,2.52,0v-9.454a5.245,5.245,0,0,1,10.49,0v9.454a1.261,1.261,0,0,0,2.52,0v-9.454A7.774,7.774,0,0,0,230.922,280.559Z"/>
      </g>
    </g>
  </g>
</svg>
