<svg xmlns="http://www.w3.org/2000/svg" width="109.502" height="109.501" viewBox="0 0 109.502 109.501">
  <g id="Grupo_94659" data-name="Grupo 94659" transform="translate(-196 -196)">
    <g id="Grupo_94959" data-name="Grupo 94959" transform="translate(196 196)">
      <path id="Trazado_151993" data-name="Trazado 151993" d="M202,230h98.552v69.351H202Z" transform="translate(-196.525 -198.975)" fill="#80daff"/>
      <path id="Trazado_151994" data-name="Trazado 151994" d="M198,206H303.852v21.9H198Z" transform="translate(-196.175 -196.875)" fill="#25b1fa"/>
      <path id="Trazado_151995" data-name="Trazado 151995" d="M256.226,207.65V204h-58.4A1.825,1.825,0,0,0,196,205.825v21.9a1.825,1.825,0,0,0,1.825,1.825h1.825v5.475h3.65V229.55h51.1V225.9H199.65V207.65Z" transform="translate(-196 -196.7)"/>
      <path id="Trazado_151996" data-name="Trazado 151996" d="M311.375,204H309.55v21.9H284v3.65h21.9V284.3h3.65V229.55h1.825a1.825,1.825,0,0,0,1.825-1.825v-21.9A1.825,1.825,0,0,0,311.375,204Z" transform="translate(-203.699 -196.7)"/>
      <path id="Trazado_151997" data-name="Trazado 151997" d="M198,306H303.852v7.3H198Z" transform="translate(-196.175 -205.624)" fill="#25b1fa"/>
      <path id="Trazado_151998" data-name="Trazado 151998" d="M300.132,208.173l3.9-7.052A2.442,2.442,0,0,0,301.869,198l-6.693,1.217a3.766,3.766,0,0,0-2.29.653l-4.958,3.438-16.669-2.289-4.99,3.968,13.163,6.347-8.495,8.025L263.5,218.04l-3.5,1.92,9.87,8.657Z" transform="translate(-201.599 -196.175)" fill="#fdbf44"/>
      <path id="Trazado_151999" data-name="Trazado 151999" d="M269.695,230.267a1.822,1.822,0,0,1-1.2-.453l-9.87-8.657a1.826,1.826,0,0,1,.327-2.972l3.5-1.921a1.823,1.823,0,0,1,1.2-.2l6.529,1.158,5.9-5.574-10.776-5.2a1.825,1.825,0,0,1-.342-3.072l4.989-3.967a1.828,1.828,0,0,1,1.384-.381L287.3,201.23l4.373-3.032a5.535,5.535,0,0,1,3.178-.981h0l6.516-1.186a1.777,1.777,0,0,1,.393-.028,4.266,4.266,0,0,1,3.827,5.523,1.934,1.934,0,0,1-.133.3l-3.9,7.051a1.821,1.821,0,0,1-.575.63l-30.264,20.444a1.818,1.818,0,0,1-1.021.313Zm-6.707-10.134,6.852,6.009,28.732-19.411,3.569-6.456a.635.635,0,0,0-.122-.365.661.661,0,0,0-.282-.237l-6.41,1.166a1.829,1.829,0,0,1-.393.028,1.928,1.928,0,0,0-1.184.33l-4.957,3.437a1.828,1.828,0,0,1-1.289.308l-15.9-2.183-2.1,1.672,10.545,5.084a1.825,1.825,0,0,1,.46,2.97l-8.495,8.025a1.828,1.828,0,0,1-1.572.471l-6.8-1.207Z" transform="translate(-201.424 -196)"/>
      <path id="Trazado_152000" data-name="Trazado 152000" d="M208,214h40.151v7.3H208Z" transform="translate(-197.05 -197.575)" fill="#fdbf44"/>
      <path id="Trazado_152001" data-name="Trazado 152001" d="M247.976,222.95H207.825A1.825,1.825,0,0,1,206,221.125v-7.3A1.825,1.825,0,0,1,207.825,212h40.151a1.825,1.825,0,0,1,1.825,1.825v7.3A1.825,1.825,0,0,1,247.976,222.95ZM209.65,219.3h36.5v-3.65h-36.5Z" transform="translate(-196.875 -197.4)"/>
    </g>
    <path id="Trazado_152002" data-name="Trazado 152002" d="M210,240h36.5v60.226H210Z" transform="translate(-1.225 -3.849)" fill="#fcfeff"/>
    <path id="Trazado_152003" data-name="Trazado 152003" d="M303.677,298.226h-1.825v-7.3H298.2v7.3H247.1v-58.4A1.825,1.825,0,0,0,245.276,238h-36.5a1.825,1.825,0,0,0-1.825,1.825v58.4H203.3V241.65h-3.65v56.576h-1.825A1.825,1.825,0,0,0,196,300.051v7.3a1.825,1.825,0,0,0,1.825,1.825H303.677a1.825,1.825,0,0,0,1.825-1.825v-7.3A1.825,1.825,0,0,0,303.677,298.226ZM210.6,241.65h32.851v56.576H210.6Zm91.252,63.876H199.65v-3.65h102.2Z" transform="translate(0 -3.674)"/>
    <path id="Trazado_152004" data-name="Trazado 152004" d="M258,240h40.151v49.276H258Z" transform="translate(-5.424 -3.849)" fill="#fcfeff"/>
    <path id="Trazado_152005" data-name="Trazado 152005" d="M218,260h21.9v10.95H218Z" transform="translate(-1.925 -5.599)" fill="#fdbf44"/>
    <path id="Trazado_152006" data-name="Trazado 152006" d="M239.725,256.95h-.97l-8.578-10.293a1.824,1.824,0,0,0-2.571-.234,1.77,1.77,0,0,0-.234.234L218.8,256.95h-.97A1.825,1.825,0,0,0,216,258.775v10.95a1.825,1.825,0,0,0,1.825,1.825h21.9a1.825,1.825,0,0,0,1.825-1.825v-10.95A1.825,1.825,0,0,0,239.725,256.95Zm-10.95-6.274L234,256.95H223.547ZM237.9,267.9H219.65v-7.3H237.9Z" transform="translate(-1.75 -4.374)"/>
    <path id="Trazado_152007" data-name="Trazado 152007" d="M216,278h3.65v7.3H216Z" transform="translate(-1.75 -7.174)"/>
    <path id="Trazado_152008" data-name="Trazado 152008" d="M258,286h40.151v7.3H258Z" transform="translate(-5.424 -7.874)" fill="#fdbf44"/>
    <path id="Trazado_152009" data-name="Trazado 152009" d="M297.976,238H257.825A1.825,1.825,0,0,0,256,239.825V289.1a1.825,1.825,0,0,0,1.825,1.825h40.151A1.825,1.825,0,0,0,299.8,289.1V239.825A1.825,1.825,0,0,0,297.976,238Zm-1.825,3.65v38.326h-36.5V241.65Zm0,45.626h-36.5v-3.65h36.5Z" transform="translate(-5.249 -3.674)"/>
  </g>
</svg>
