<svg xmlns="http://www.w3.org/2000/svg" xmlns:xlink="http://www.w3.org/1999/xlink" width="274.291" height="213" viewBox="0 0 274.291 213">
  <defs>
    <clipPath id="clip-path">
      <rect id="Rectángulo_24257" data-name="Rectángulo 24257" width="274.291" height="213" transform="translate(316.737 163.55)" fill="none"/>
    </clipPath>
    <clipPath id="clip-path-2">
      <path id="Trazado_151385" data-name="Trazado 151385" d="M614.629,295.38a75.05,75.05,0,0,1-9.359-38.84q.016-.635.016-1.273c0-37.921-35.972-82.812-94.268-74.8-47.815,6.571-52.368,39.167-105.172,51.446-45.524,10.585-56.6,38.259-56.6,71.234,0,41.636,37.7,75.386,84.2,75.386q3.756,0,7.432-.289a71.8,71.8,0,0,1,48.361,14.227,86.577,86.577,0,0,0,51.728,16.847c45.952,0,83.2-34.807,83.2-77.742A73.372,73.372,0,0,0,614.629,295.38Z" fill="none"/>
    </clipPath>
  </defs>
  <g id="Grupo_94604" data-name="Grupo 94604" transform="translate(-316.737 -163.55)">
    <g id="Grupo_94739" data-name="Grupo 94739">
      <g id="Grupo_94738" data-name="Grupo 94738" clip-path="url(#clip-path)">
        <g id="Grupo_94737" data-name="Grupo 94737">
          <path id="Trazado_151309" data-name="Trazado 151309" d="M614.629,295.38a75.05,75.05,0,0,1-9.359-38.84q.016-.635.016-1.273c0-37.921-35.972-82.812-94.268-74.8-47.815,6.571-52.368,39.167-105.172,51.446-45.524,10.585-56.6,38.259-56.6,71.234,0,41.636,37.7,75.386,84.2,75.386q3.756,0,7.432-.289a71.8,71.8,0,0,1,48.361,14.227,86.577,86.577,0,0,0,51.728,16.847c45.952,0,83.2-34.807,83.2-77.742A73.372,73.372,0,0,0,614.629,295.38Z" fill="#daccff"/>
          <g id="Grupo_94671" data-name="Grupo 94671" opacity="0.3">
            <path id="Trazado_151310" data-name="Trazado 151310" d="M580.5,221.969h-69.32c-4.411,0-3.151-2.679,0-2.679s5.672-.787,4.254-2.52-13.234-2.836-12.762-8.666,10.4-7.247,15.755-3.623,8.98,6.932,12.289,5.987,2.048-8.981,5.829-13.707,11.028-3.781,11.658,3.781,1.418,11.816,3.939,11.974,9.247-6.6,13.707-4.6c5.094,2.285,1.771,6.871,3.031,9.129,1.365,2.446,10.78,1.664,12.986,2.714S583.755,221.969,580.5,221.969Z" fill="#fff"/>
            <path id="Trazado_151311" data-name="Trazado 151311" d="M450.466,239.059h45.688c2.836,0,1.366-2.416-3.571-2.521s-3.676-3.676-7.562-5.146-6.354,2.888-8.612,2.73c-4.317-.3-8.4-9.977-13.655-8.612s-1.785,7.93-4.2,9.715c-1.53,1.131-6.518,1.8-7.615,1.917C448.68,237.378,448.418,239.059,450.466,239.059Z" fill="#fff"/>
            <path id="Trazado_151312" data-name="Trazado 151312" d="M606.144,275.22H560.456c-2.836,0-1.366-2.416,3.571-2.521s3.676-3.676,7.562-5.146,6.354,2.888,8.612,2.731c4.317-.3,8.4-9.978,13.655-8.613s1.785,7.93,4.2,9.716c1.53,1.13,6.518,1.8,7.615,1.916C607.93,273.54,608.192,275.22,606.144,275.22Z" fill="#fff"/>
            <path id="Trazado_151313" data-name="Trazado 151313" d="M502.443,323.8H446.8c-5.042,0-1.523-2.461,2.048-3.1,4.411-.788,4.064-7.524,9.768-9.374,5.829-1.891,9.295,3.545,12.131,3.545s5.671-13.392,15.282-13.392,6.831,15.342,9.453,17.8c2.573,2.416,5.49,2.127,6.959,2.6S504.44,323.8,502.443,323.8Z" fill="#fff"/>
            <path id="Trazado_151314" data-name="Trazado 151314" d="M464.328,272.786h-87.48c-9.169,0-5.922-3.725,0-3.343s1.05-9.263,6.589-12.51c4.054-2.377,9.242,5.152,13.657,3.915,2.388-.668,4.091-17.221,12.543-18.3s4.838,18.726,10,19.729c5.064.985,11.961-6.733,17.4-5.3s5.587,9.6,6.876,10.1,4.513-2.865,8.237-2.436,3.367,4.656,5.014,5.3,5.587.788,6.59,1.146S465.474,272.786,464.328,272.786Z" fill="#fff"/>
          </g>
          <g id="Grupo_94684" data-name="Grupo 94684">
            <g id="Grupo_94672" data-name="Grupo 94672">
              <rect id="Rectángulo_24216" data-name="Rectángulo 24216" width="4.2" height="13.257" transform="translate(518.402 334.295)" fill="#5f4d8c"/>
              <rect id="Rectángulo_24217" data-name="Rectángulo 24217" width="18.507" height="3.15" transform="translate(511.248 346.764)" fill="#5f4d8c"/>
              <rect id="Rectángulo_24218" data-name="Rectángulo 24218" width="9.388" height="18.8" rx="4.694" transform="translate(503.688 338.939)" fill="#5f4d8c"/>
              <rect id="Rectángulo_24219" data-name="Rectángulo 24219" width="9.387" height="18.8" rx="4.694" transform="translate(527.93 338.939)" fill="#5f4d8c"/>
            </g>
            <g id="Grupo_94676" data-name="Grupo 94676">
              <g id="Grupo_94673" data-name="Grupo 94673">
                <path id="Trazado_151315" data-name="Trazado 151315" d="M714.713,297.77c.26,1.316-164.745,22.225-164.745,22.225l9.521-23.626,5.592-13.893S706.05,291.73,709.46,291.73c2.56,0,4.08,2.654,4.8,4.544A10.582,10.582,0,0,1,714.713,297.77Z" fill="#fff"/>
                <path id="Trazado_151316" data-name="Trazado 151316" d="M714.713,297.77c.26,1.316-164.745,22.225-164.745,22.225l9.521-23.626c28.871-.654,146.459-3.316,149.68-3.6,2.339-.2,4.048,1.716,5.095,3.5A10.582,10.582,0,0,1,714.713,297.77Z" fill="#e0d2fa"/>
              </g>
              <g id="Grupo_94675" data-name="Grupo 94675">
                <circle id="Elipse_5027" data-name="Elipse 5027" cx="25.726" cy="25.726" r="25.726" transform="translate(617.149 291.727)" fill="#fff"/>
                <circle id="Elipse_5028" data-name="Elipse 5028" cx="23.164" cy="23.164" r="23.164" transform="translate(619.711 296.851)" fill="#e0d2fa"/>
                <path id="Trazado_151317" data-name="Trazado 151317" d="M661.54,317.45a18.327,18.327,0,0,1-.134,2.2,17.663,17.663,0,0,1-.354,2.055,17.925,17.925,0,0,1-1.512,4.15,15.242,15.242,0,0,1-1.048,1.8,18.018,18.018,0,0,1-2.835,3.394,18.57,18.57,0,0,1-5.418,3.552,15.919,15.919,0,0,1-1.961.717,18,18,0,0,1-4.347.771c-.347.024-.7.032-1.056.032s-.693-.008-1.031-.032a17.964,17.964,0,0,1-4.348-.764,15.67,15.67,0,0,1-1.96-.716,17.921,17.921,0,0,1-3.828-2.2,17.508,17.508,0,0,1-1.6-1.339,18.333,18.333,0,0,1-2.843-3.387,16.346,16.346,0,0,1-1.039-1.8,17.855,17.855,0,0,1-1.52-4.15,15.927,15.927,0,0,1-.362-2.048,18.848,18.848,0,0,1-.134-2.229,16.684,16.684,0,0,1,.134-2.189,16.111,16.111,0,0,1,.354-2.063,17.952,17.952,0,0,1,1.512-4.151,16.445,16.445,0,0,1,1.04-1.8,18.3,18.3,0,0,1,2.843-3.387,17.323,17.323,0,0,1,1.59-1.346,18.426,18.426,0,0,1,3.82-2.213,18.81,18.81,0,0,1,1.961-.717,18.582,18.582,0,0,1,4.355-.764c.347-.024.7-.031,1.055-.031s.693.007,1.032.031a18.576,18.576,0,0,1,4.355.756,17.957,17.957,0,0,1,1.953.717,18.268,18.268,0,0,1,3.828,2.2,16.1,16.1,0,0,1,1.6,1.347,18.27,18.27,0,0,1,2.843,3.378,17.826,17.826,0,0,1,1.048,1.8,18.122,18.122,0,0,1,1.512,4.158,16.226,16.226,0,0,1,.362,2.047A18.726,18.726,0,0,1,661.54,317.45Z" fill="#fff"/>
                <g id="Grupo_94674" data-name="Grupo 94674" opacity="0.1">
                  <path id="Trazado_151318" data-name="Trazado 151318" d="M643.907,298.817l-1.032,18.633-1.055-18.633c.347-.024.7-.031,1.055-.031S643.568,298.793,643.907,298.817Z" fill="#5f4d8c"/>
                  <path id="Trazado_151319" data-name="Trazado 151319" d="M642.875,317.45,635.5,300.3a18.81,18.81,0,0,1,1.961-.717Z" fill="#5f4d8c"/>
                  <path id="Trazado_151320" data-name="Trazado 151320" d="M642.875,317.45l-12.781-13.593a17.323,17.323,0,0,1,1.59-1.346Z" fill="#5f4d8c"/>
                  <path id="Trazado_151321" data-name="Trazado 151321" d="M642.875,317.45l-16.664-8.4a16.445,16.445,0,0,1,1.04-1.8Z" fill="#5f4d8c"/>
                  <path id="Trazado_151322" data-name="Trazado 151322" d="M642.875,317.45l-18.53-2.189a16.111,16.111,0,0,1,.354-2.063Z" fill="#5f4d8c"/>
                  <path id="Trazado_151323" data-name="Trazado 151323" d="M642.875,317.45l-18.168,4.277a15.927,15.927,0,0,1-.362-2.048Z" fill="#5f4d8c"/>
                  <path id="Trazado_151324" data-name="Trazado 151324" d="M642.875,317.45l-15.609,10.23a16.346,16.346,0,0,1-1.039-1.8Z" fill="#5f4d8c"/>
                  <path id="Trazado_151325" data-name="Trazado 151325" d="M642.875,317.45l-11.167,14.956a17.508,17.508,0,0,1-1.6-1.339Z" fill="#5f4d8c"/>
                  <path id="Trazado_151326" data-name="Trazado 151326" d="M642.875,317.45,637.5,335.327a15.67,15.67,0,0,1-1.96-.716Z" fill="#5f4d8c"/>
                  <path id="Trazado_151327" data-name="Trazado 151327" d="M643.931,336.091c-.347.024-.7.032-1.056.032s-.693-.008-1.031-.032l1.031-18.641Z" fill="#5f4d8c"/>
                  <path id="Trazado_151328" data-name="Trazado 151328" d="M650.239,334.6a15.919,15.919,0,0,1-1.961.717l-5.4-17.87Z" fill="#5f4d8c"/>
                  <path id="Trazado_151329" data-name="Trazado 151329" d="M655.657,331.051a18.43,18.43,0,0,1-1.591,1.339l-11.191-14.94Z" fill="#5f4d8c"/>
                  <path id="Trazado_151330" data-name="Trazado 151330" d="M659.54,325.853a15.242,15.242,0,0,1-1.048,1.8L642.875,317.45Z" fill="#5f4d8c"/>
                  <path id="Trazado_151331" data-name="Trazado 151331" d="M661.406,319.648a17.663,17.663,0,0,1-.354,2.055l-18.177-4.253Z" fill="#5f4d8c"/>
                  <path id="Trazado_151332" data-name="Trazado 151332" d="M661.406,315.229l-18.531,2.221,18.169-4.268A16.226,16.226,0,0,1,661.406,315.229Z" fill="#5f4d8c"/>
                  <path id="Trazado_151333" data-name="Trazado 151333" d="M659.532,309.024l-16.657,8.426,15.609-10.23A17.826,17.826,0,0,1,659.532,309.024Z" fill="#5f4d8c"/>
                  <path id="Trazado_151334" data-name="Trazado 151334" d="M655.641,303.842,642.875,317.45l11.168-14.955A16.1,16.1,0,0,1,655.641,303.842Z" fill="#5f4d8c"/>
                  <path id="Trazado_151335" data-name="Trazado 151335" d="M650.215,300.29l-7.34,17.16,5.387-17.877A17.957,17.957,0,0,1,650.215,300.29Z" fill="#5f4d8c"/>
                </g>
                <circle id="Elipse_5029" data-name="Elipse 5029" cx="3.544" cy="3.544" r="3.544" transform="translate(639.331 313.909)" fill="#e0d2fa"/>
                <path id="Trazado_151336" data-name="Trazado 151336" d="M657.28,329.326a18.476,18.476,0,0,0,2.165-8.726,18.672,18.672,0,0,0-33.061-11.891,18.666,18.666,0,1,1,30.9,20.617Z" fill="#5f4d8c" opacity="0.3"/>
              </g>
            </g>
            <g id="Grupo_94680" data-name="Grupo 94680">
              <g id="Grupo_94677" data-name="Grupo 94677">
                <path id="Trazado_151337" data-name="Trazado 151337" d="M326.9,297.77c-.26,1.316,164.746,22.225,164.746,22.225l-9.522-23.626-5.591-13.893s-140.97,9.254-144.38,9.254c-2.559,0-4.079,2.654-4.8,4.544A10.723,10.723,0,0,0,326.9,297.77Z" fill="#fff"/>
                <path id="Trazado_151338" data-name="Trazado 151338" d="M326.9,297.77c-.26,1.316,164.746,22.225,164.746,22.225l-9.522-23.626c-28.871-.654-146.458-3.316-149.679-3.6-2.339-.2-4.048,1.716-5.1,3.5A10.723,10.723,0,0,0,326.9,297.77Z" fill="#e0d2fa"/>
              </g>
              <g id="Grupo_94679" data-name="Grupo 94679">
                <circle id="Elipse_5030" data-name="Elipse 5030" cx="25.726" cy="25.726" r="25.726" transform="translate(371.223 291.727)" fill="#fff"/>
                <circle id="Elipse_5031" data-name="Elipse 5031" cx="23.164" cy="23.164" r="23.164" transform="translate(373.785 296.851)" fill="#e0d2fa"/>
                <path id="Trazado_151339" data-name="Trazado 151339" d="M415.614,317.45a18.327,18.327,0,0,1-.134,2.2,17.459,17.459,0,0,1-.354,2.055,17.927,17.927,0,0,1-1.512,4.15,15.242,15.242,0,0,1-1.048,1.8,18.021,18.021,0,0,1-2.835,3.394,18.569,18.569,0,0,1-5.418,3.552,15.919,15.919,0,0,1-1.961.717,18,18,0,0,1-4.347.771c-.347.024-.7.032-1.055.032s-.694-.008-1.032-.032a17.946,17.946,0,0,1-4.347-.764,15.683,15.683,0,0,1-1.961-.716,17.922,17.922,0,0,1-3.828-2.2,17.645,17.645,0,0,1-1.6-1.339,18.371,18.371,0,0,1-2.843-3.387,16.5,16.5,0,0,1-1.039-1.8,17.9,17.9,0,0,1-1.52-4.15,16.092,16.092,0,0,1-.362-2.048,18.842,18.842,0,0,1-.134-2.229,16.678,16.678,0,0,1,.134-2.189,16.454,16.454,0,0,1,.354-2.063,17.949,17.949,0,0,1,1.512-4.151,16.441,16.441,0,0,1,1.04-1.8,18.291,18.291,0,0,1,2.843-3.387,17.2,17.2,0,0,1,1.591-1.346,18.4,18.4,0,0,1,3.819-2.213,18.81,18.81,0,0,1,1.961-.717,18.583,18.583,0,0,1,4.355-.764c.347-.024.7-.031,1.056-.031s.693.007,1.031.031a18.576,18.576,0,0,1,4.355.756,17.954,17.954,0,0,1,1.953.717,18.267,18.267,0,0,1,3.828,2.2,16.115,16.115,0,0,1,1.6,1.347,18.345,18.345,0,0,1,2.843,3.378,18.414,18.414,0,0,1,2.559,5.962,16.053,16.053,0,0,1,.362,2.047A18.726,18.726,0,0,1,415.614,317.45Z" fill="#fff"/>
                <g id="Grupo_94678" data-name="Grupo 94678" opacity="0.1">
                  <path id="Trazado_151340" data-name="Trazado 151340" d="M397.981,298.817,396.95,317.45l-1.056-18.633c.347-.024.7-.031,1.056-.031S397.643,298.793,397.981,298.817Z" fill="#5f4d8c"/>
                  <path id="Trazado_151341" data-name="Trazado 151341" d="M396.95,317.45,389.578,300.3a18.81,18.81,0,0,1,1.961-.717Z" fill="#5f4d8c"/>
                  <path id="Trazado_151342" data-name="Trazado 151342" d="M396.95,317.45l-12.782-13.593a17.2,17.2,0,0,1,1.591-1.346Z" fill="#5f4d8c"/>
                  <path id="Trazado_151343" data-name="Trazado 151343" d="M396.95,317.45l-16.665-8.4a16.441,16.441,0,0,1,1.04-1.8Z" fill="#5f4d8c"/>
                  <path id="Trazado_151344" data-name="Trazado 151344" d="M396.95,317.45l-18.531-2.189a16.454,16.454,0,0,1,.354-2.063Z" fill="#5f4d8c"/>
                  <path id="Trazado_151345" data-name="Trazado 151345" d="M396.95,317.45l-18.169,4.277a16.092,16.092,0,0,1-.362-2.048Z" fill="#5f4d8c"/>
                  <path id="Trazado_151346" data-name="Trazado 151346" d="M396.95,317.45l-15.61,10.23a16.5,16.5,0,0,1-1.039-1.8Z" fill="#5f4d8c"/>
                  <path id="Trazado_151347" data-name="Trazado 151347" d="M396.95,317.45l-11.168,14.956a17.645,17.645,0,0,1-1.6-1.339Z" fill="#5f4d8c"/>
                  <path id="Trazado_151348" data-name="Trazado 151348" d="M396.95,317.45l-5.379,17.877a15.683,15.683,0,0,1-1.961-.716Z" fill="#5f4d8c"/>
                  <path id="Trazado_151349" data-name="Trazado 151349" d="M398.005,336.091c-.347.024-.7.032-1.055.032s-.694-.008-1.032-.032l1.032-18.641Z" fill="#5f4d8c"/>
                  <path id="Trazado_151350" data-name="Trazado 151350" d="M404.313,334.6a15.919,15.919,0,0,1-1.961.717l-5.4-17.87Z" fill="#5f4d8c"/>
                  <path id="Trazado_151351" data-name="Trazado 151351" d="M409.731,331.051a18.288,18.288,0,0,1-1.591,1.339l-11.19-14.94Z" fill="#5f4d8c"/>
                  <path id="Trazado_151352" data-name="Trazado 151352" d="M413.614,325.853a15.242,15.242,0,0,1-1.048,1.8L396.95,317.45Z" fill="#5f4d8c"/>
                  <path id="Trazado_151353" data-name="Trazado 151353" d="M415.48,319.648a17.459,17.459,0,0,1-.354,2.055L396.95,317.45Z" fill="#5f4d8c"/>
                  <path id="Trazado_151354" data-name="Trazado 151354" d="M415.48,315.229l-18.53,2.221,18.168-4.268A16.053,16.053,0,0,1,415.48,315.229Z" fill="#5f4d8c"/>
                  <path id="Trazado_151355" data-name="Trazado 151355" d="M413.606,309.024,396.95,317.45l15.609-10.23A18,18,0,0,1,413.606,309.024Z" fill="#5f4d8c"/>
                  <path id="Trazado_151356" data-name="Trazado 151356" d="M409.716,303.842,396.95,317.45l11.167-14.955A16.115,16.115,0,0,1,409.716,303.842Z" fill="#5f4d8c"/>
                  <path id="Trazado_151357" data-name="Trazado 151357" d="M404.289,300.29l-7.339,17.16,5.386-17.877A17.954,17.954,0,0,1,404.289,300.29Z" fill="#5f4d8c"/>
                </g>
                <circle id="Elipse_5032" data-name="Elipse 5032" cx="3.544" cy="3.544" r="3.544" transform="translate(393.406 313.909)" fill="#e0d2fa"/>
                <path id="Trazado_151358" data-name="Trazado 151358" d="M411.354,329.326a18.476,18.476,0,0,0,2.165-8.726,18.672,18.672,0,0,0-33.061-11.891,18.666,18.666,0,1,1,30.9,20.617Z" fill="#5f4d8c" opacity="0.3"/>
              </g>
            </g>
            <path id="Trazado_151359" data-name="Trazado 151359" d="M546.014,323.925s-2.882,8.53-5.379,10.766-13,3.706-20.129,3.706c-7.537,0-17.641-1.477-20.138-3.706s-5.379-10.766-5.379-10.766,16.507,2.363,25.517,2.5C529.507,326.288,546.014,323.925,546.014,323.925Z" fill="#aa8ef4"/>
            <path id="Trazado_151360" data-name="Trazado 151360" d="M549.06,246.581s63.6-2.166,64.863-2.166,4.054.886,3.8,1.575-58.7,13.92-58.7,13.92Z" fill="#aa8ef4"/>
            <path id="Trazado_151361" data-name="Trazado 151361" d="M491.946,246.581s-63.6-2.166-64.863-2.166-4.054.886-3.8,1.575,58.7,13.92,58.7,13.92Z" fill="#aa8ef4"/>
            <path id="Trazado_151362" data-name="Trazado 151362" d="M526.617,240.8h-12.23s3.677-35.047,4.2-36.131a1.965,1.965,0,0,1,3.835,0C522.947,205.756,526.617,240.8,526.617,240.8Z" fill="#aa8ef4"/>
            <path id="Trazado_151363" data-name="Trazado 151363" d="M567.4,294.565c-2.685,32.813-35.941,35.621-46.878,35.621s-44.072-3.8-46.877-35.621c-3.686-41.821,25.66-59.8,46.877-59.8S570.8,253.059,567.4,294.565Z" fill="#fff"/>
            <path id="Trazado_151364" data-name="Trazado 151364" d="M562.674,296.5c-2.414,29.505-32.318,32.029-42.152,32.029s-39.629-3.412-42.151-32.029c-3.315-37.605,23.073-53.769,42.151-53.769S565.727,259.175,562.674,296.5Z" fill="#e0d2fa"/>
            <g id="Grupo_94683" data-name="Grupo 94683">
              <g id="Grupo_94681" data-name="Grupo 94681">
                <path id="Trazado_151365" data-name="Trazado 151365" d="M531.644,264.445l3.077,11.921a.821.821,0,0,1-.519.927l-11.04,5.264c-.751.358-1.715-.065-1.715-.753v-15.37a.941.941,0,0,1,.812-.846l7.963-1.815A1.172,1.172,0,0,1,531.644,264.445Z" fill="#5f4d8c"/>
                <path id="Trazado_151366" data-name="Trazado 151366" d="M542.736,273.222l-4.984,2.378a1.221,1.221,0,0,1-1.693-.578l-2.87-11.085a.89.89,0,0,1,.79-1.021l5.3-1.206a1.17,1.17,0,0,1,1.421.672l2.553,9.913A.82.82,0,0,1,542.736,273.222Z" fill="#5f4d8c"/>
                <path id="Trazado_151367" data-name="Trazado 151367" d="M550.039,269.741l-3.753,1.788a1.221,1.221,0,0,1-1.693-.578l-2.347-9.077a.891.891,0,0,1,.79-1.022l3.982-.906a1.17,1.17,0,0,1,1.421.672l2.119,8.195A.82.82,0,0,1,550.039,269.741Z" fill="#5f4d8c"/>
                <path id="Trazado_151368" data-name="Trazado 151368" d="M556.1,266.844l-2.522,1.2a1.221,1.221,0,0,1-1.693-.579l-1.9-7.36a.89.89,0,0,1,.789-1.02l2.069-.474a1.194,1.194,0,0,1,1.4.611l2.349,6.631A.807.807,0,0,1,556.1,266.844Z" fill="#5f4d8c"/>
                <line id="Línea_214" data-name="Línea 214" x1="1.582" y2="0.362" transform="translate(540.458 261.079)" fill="none"/>
              </g>
              <g id="Grupo_94682" data-name="Grupo 94682">
                <path id="Trazado_151369" data-name="Trazado 151369" d="M509.4,264.445l-3.077,11.921a.821.821,0,0,0,.519.927l11.04,5.264c.751.358,1.715-.065,1.715-.753v-15.37a.941.941,0,0,0-.812-.846l-7.963-1.815A1.172,1.172,0,0,0,509.4,264.445Z" fill="#5f4d8c"/>
                <path id="Trazado_151370" data-name="Trazado 151370" d="M498.313,273.222,503.3,275.6a1.221,1.221,0,0,0,1.693-.578l2.87-11.085a.89.89,0,0,0-.79-1.021l-5.3-1.206a1.17,1.17,0,0,0-1.421.672L497.8,272.3A.82.82,0,0,0,498.313,273.222Z" fill="#5f4d8c"/>
                <path id="Trazado_151371" data-name="Trazado 151371" d="M491.01,269.741l3.753,1.788a1.221,1.221,0,0,0,1.693-.578l2.347-9.077a.891.891,0,0,0-.79-1.022l-3.982-.906a1.17,1.17,0,0,0-1.421.672l-2.119,8.195A.82.82,0,0,0,491.01,269.741Z" fill="#5f4d8c"/>
                <path id="Trazado_151372" data-name="Trazado 151372" d="M484.946,266.844l2.522,1.2a1.221,1.221,0,0,0,1.693-.579l1.9-7.36a.89.89,0,0,0-.789-1.02l-2.069-.474a1.194,1.194,0,0,0-1.4.611l-2.349,6.631A.807.807,0,0,0,484.946,266.844Z" fill="#5f4d8c"/>
                <line id="Línea_215" data-name="Línea 215" x1="1.582" y1="0.362" transform="translate(499.009 261.079)" fill="none"/>
              </g>
            </g>
          </g>
          <g id="Grupo_94686" data-name="Grupo 94686">
            <path id="Trazado_151373" data-name="Trazado 151373" d="M624.177,331.574c0,42.933-37.25,77.742-83.2,77.742a86.544,86.544,0,0,1-51.724-16.849,72.556,72.556,0,0,0-37.624-14.227,68.739,68.739,0,0,0-10.738,0q-3.675.293-7.431.29-.805,0-1.61-.015c-21.712-.365-41.419-8.087-56.126-20.491q-1.012-.861-1.99-1.738a79.617,79.617,0,0,1-6.511-6.586q-2.151-2.451-4.069-5.053a70.8,70.8,0,0,1-12.376-27.139,68.076,68.076,0,0,1-1.524-14.361c0-1.23.014-2.445.047-3.661v-.005c.827-31.351,12.722-57.38,56.549-67.57a127.154,127.154,0,0,0,15.723-4.7h.005c24.224-9.042,36.5-22.842,52.812-33.313a86.334,86.334,0,0,1,36.632-13.429c31.413-4.317,56.344,6.724,72.652,23.763q2.258,2.351,4.283,4.844c11.236,13.795,17.333,30.582,17.333,46.191,0,.427-.005.85-.014,1.273a75.062,75.062,0,0,0,9.36,38.84,74.614,74.614,0,0,1,5.224,11.4,73.215,73.215,0,0,1,4.321,24.794Z" fill="#daccff" opacity="0.1"/>
            <g id="Grupo_94685" data-name="Grupo 94685" opacity="0.2">
              <path id="Trazado_151374" data-name="Trazado 151374" d="M474.386,193.9,350.774,317.508a68.076,68.076,0,0,1-1.524-14.361c0-1.23.014-2.445.047-3.661v-.005l72.272-72.272h.005C445.8,218.167,458.073,204.367,474.386,193.9Z" fill="#fff"/>
              <path id="Trazado_151375" data-name="Trazado 151375" d="M623.617,322.522l-47.08,47.08h-19.5l62.822-62.822A72.608,72.608,0,0,1,623.617,322.522Z" fill="#fff"/>
              <path id="Trazado_151376" data-name="Trazado 151376" d="M563.592,266.273,451.625,378.24a68.739,68.739,0,0,0-10.738,0q-3.675.293-7.431.29-.805,0-1.61-.015L544.088,266.273Z" fill="#fff"/>
              <path id="Trazado_151377" data-name="Trazado 151377" d="M504.887,212.032,367.219,349.7q-2.151-2.451-4.069-5.053L495.765,212.032Z" fill="#fff"/>
              <path id="Trazado_151378" data-name="Trazado 151378" d="M587.953,209.074,478.859,318.168h-9.123L583.67,204.23Q585.927,206.58,587.953,209.074Z" fill="#fff"/>
              <path id="Trazado_151379" data-name="Trazado 151379" d="M478.028,255.716,375.72,358.024q-1.012-.861-1.99-1.738L474.3,255.716Z" fill="#fff"/>
            </g>
          </g>
          <g id="Grupo_94690" data-name="Grupo 94690">
            <g id="Grupo_94689" data-name="Grupo 94689" clip-path="url(#clip-path-2)">
              <g id="Grupo_94688" data-name="Grupo 94688">
                <rect id="Rectángulo_24220" data-name="Rectángulo 24220" width="327.067" height="90.603" transform="translate(338.996 334.261)" fill="#aa8ef4"/>
                <rect id="Rectángulo_24221" data-name="Rectángulo 24221" width="327.067" height="74.067" transform="translate(338.996 350.797)" fill="#5f4d8c" opacity="0.5"/>
                <rect id="Rectángulo_24222" data-name="Rectángulo 24222" width="2.782" height="157.504" transform="translate(368.705 176.757)" fill="#aa8ef4"/>
                <rect id="Rectángulo_24223" data-name="Rectángulo 24223" width="2.782" height="157.504" transform="translate(446.631 176.757)" fill="#aa8ef4"/>
                <rect id="Rectángulo_24224" data-name="Rectángulo 24224" width="2.782" height="157.504" transform="translate(524.556 176.757)" fill="#aa8ef4"/>
                <rect id="Rectángulo_24225" data-name="Rectángulo 24225" width="2.782" height="157.504" transform="translate(602.482 176.757)" fill="#aa8ef4"/>
                <g id="Grupo_94687" data-name="Grupo 94687" opacity="0.1">
                  <path id="Trazado_151380" data-name="Trazado 151380" d="M449.908,350.818l-66.054,74.046H347.032l66.059-74.046Z" fill="#fff"/>
                  <path id="Trazado_151381" data-name="Trazado 151381" d="M669.341,360.3v41.276l-20.776,23.29H611.747Z" fill="#fff"/>
                  <path id="Trazado_151382" data-name="Trazado 151382" d="M631.981,350.818l-66.054,74.046H547.514l66.054-74.046Z" fill="#fff"/>
                  <path id="Trazado_151383" data-name="Trazado 151383" d="M478.531,350.818l-66.054,74.046h-9.2l66.054-74.046Z" fill="#fff"/>
                  <path id="Trazado_151384" data-name="Trazado 151384" d="M591.1,350.818l-47.312,53.036h-9.2l47.312-53.036Z" fill="#fff"/>
                </g>
              </g>
            </g>
          </g>
          <g id="Grupo_94709" data-name="Grupo 94709">
            <g id="Grupo_94693" data-name="Grupo 94693">
              <g id="Grupo_94691" data-name="Grupo 94691">
                <rect id="Rectángulo_24226" data-name="Rectángulo 24226" width="3.11" height="4.445" rx="1.555" transform="translate(443.419 357.545) rotate(180)" fill="#aa8ef4"/>
                <rect id="Rectángulo_24227" data-name="Rectángulo 24227" width="3.11" height="4.445" rx="1.555" transform="translate(430.394 357.545) rotate(-180)" fill="#aa8ef4"/>
              </g>
              <g id="Grupo_94692" data-name="Grupo 94692">
                <rect id="Rectángulo_24228" data-name="Rectángulo 24228" width="0.816" height="20.296" transform="translate(441.125 328.271) rotate(180)" fill="#e0d2fa"/>
                <rect id="Rectángulo_24229" data-name="Rectángulo 24229" width="0.817" height="20.296" transform="translate(430.394 328.271) rotate(180)" fill="#e0d2fa"/>
              </g>
              <rect id="Rectángulo_24230" data-name="Rectángulo 24230" width="14.124" height="2.1" rx="1.05" transform="translate(442.413 308.675) rotate(180)" fill="#5f4d8c"/>
              <rect id="Rectángulo_24231" data-name="Rectángulo 24231" width="20.685" height="27.459" rx="5.831" transform="translate(445.693 354.447) rotate(180)" fill="#5f4d8c"/>
              <rect id="Rectángulo_24232" data-name="Rectángulo 24232" width="19.26" height="13.79" rx="5.831" transform="translate(444.981 353.665) rotate(180)" fill="#aa8ef4" opacity="0.2"/>
              <path id="Trazado_151386" data-name="Trazado 151386" d="M449.787,324.471" fill="none" stroke="#deccff" stroke-miterlimit="10" stroke-width="1"/>
              <path id="Trazado_151387" data-name="Trazado 151387" d="M449.787,324.471" fill="none" stroke="#deccff" stroke-miterlimit="10" stroke-width="1"/>
              <path id="Trazado_151388" data-name="Trazado 151388" d="M424.009,369.729" fill="none" stroke="#deccff" stroke-miterlimit="10" stroke-width="1"/>
              <path id="Trazado_151389" data-name="Trazado 151389" d="M424.009,369.729" fill="none" stroke="#deccff" stroke-miterlimit="10" stroke-width="1"/>
            </g>
            <g id="Grupo_94708" data-name="Grupo 94708">
              <g id="Grupo_94701" data-name="Grupo 94701">
                <g id="Grupo_94698" data-name="Grupo 94698">
                  <g id="Grupo_94696" data-name="Grupo 94696">
                    <path id="Trazado_151390" data-name="Trazado 151390" d="M406.105,271.239a1.46,1.46,0,0,1,.436.8c.012.059.025.118.042.177s.021.1.025.148.022.11.03.165.017.1.025.148.013.11.017.165l.013.089c0,.021,0,.038,0,.059,0,.055.013.11.013.165a.838.838,0,0,1,.013.144l.012.165c0,.051.005.1.009.144s0,.11,0,.161c.021.613.009,1.155.025,1.4.034.634.952,1.2,1.515,1.2s1.481-.563,1.514-1.2c.022-.292,0-1.028.047-1.79l.013-.19.012-.148c.005-.064.013-.127.021-.19s.009-.106.017-.157c.009-.068.022-.135.03-.2l.013-.063c0-.034.012-.068.017-.1.012-.072.029-.144.046-.211s.034-.123.047-.182a2.225,2.225,0,0,1,.089-.233,1.226,1.226,0,0,1,.135-.258.836.836,0,0,1,.182-.2l-.212.034-1.971.326Z" fill="#fff"/>
                    <g id="Grupo_94695" data-name="Grupo 94695" opacity="0.5">
                      <path id="Trazado_151391" data-name="Trazado 151391" d="M406.105,271.239a1.46,1.46,0,0,1,.436.8c.012.059.025.118.042.177s.021.1.025.148.022.11.03.165.017.1.025.148.013.11.017.165l.013.089a5.75,5.75,0,0,0,3.262-.507c0-.034.012-.068.017-.1.012-.072.029-.144.046-.211s.034-.123.047-.182a2.225,2.225,0,0,1,.089-.233,1.226,1.226,0,0,1,.135-.258.836.836,0,0,1,.182-.2l-.212.034-1.971.326Z" fill="#aa8ef4"/>
                      <g id="Grupo_94694" data-name="Grupo 94694">
                        <path id="Trazado_151392" data-name="Trazado 151392" d="M406.541,272.035c.012.059.025.118.042.177l.11.021.224.026.229.025.228.009a4.425,4.425,0,0,0,.918-.06,4.96,4.96,0,0,0,2-.8.836.836,0,0,1,.182-.2l-.212.034a5.927,5.927,0,0,1-1.98.817,3.75,3.75,0,0,1-1.019.046c-.169,0-.339-.046-.508-.059C406.68,272.064,406.608,272.051,406.541,272.035Z" fill="#aa8ef4"/>
                        <path id="Trazado_151393" data-name="Trazado 151393" d="M406.608,272.36c.013.055.022.11.03.165a5.4,5.4,0,0,0,1.675.013,5.344,5.344,0,0,0,1.752-.609,2.225,2.225,0,0,1,.089-.233,6.3,6.3,0,0,1-1.853.7,4.019,4.019,0,0,1-1.083.042c-.182-.008-.36-.046-.542-.063Z" fill="#aa8ef4"/>
                        <path id="Trazado_151394" data-name="Trazado 151394" d="M406.663,272.673c.005.055.013.11.017.165a5.469,5.469,0,0,0,3.292-.516c.012-.072.029-.144.046-.211a6.332,6.332,0,0,1-1.7.588,4.619,4.619,0,0,1-1.155.042C407,272.724,406.828,272.7,406.663,272.673Z" fill="#aa8ef4"/>
                        <path id="Trazado_151395" data-name="Trazado 151395" d="M406.7,272.986c0,.055.013.11.013.165a5.787,5.787,0,0,0,3.2-.465c.009-.068.022-.135.03-.2a6.369,6.369,0,0,1-1.608.52,4.873,4.873,0,0,1-1.218.038C406.977,273.024,406.837,273.008,406.7,272.986Z" fill="#aa8ef4"/>
                        <path id="Trazado_151396" data-name="Trazado 151396" d="M406.723,273.3l.012.165c.157.021.313.034.47.043a6.493,6.493,0,0,0,1.146-.051,5.945,5.945,0,0,0,1.523-.419c.005-.064.013-.127.021-.19a6.829,6.829,0,0,1-1.548.465,5.276,5.276,0,0,1-1.286.034C406.951,273.329,406.837,273.312,406.723,273.3Z" fill="#aa8ef4"/>
                        <path id="Trazado_151397" data-name="Trazado 151397" d="M406.744,273.6c0,.055,0,.11,0,.161.135.017.267.029.4.038a6,6,0,0,0,1.206-.047,6.279,6.279,0,0,0,1.493-.385l.013-.19a6.714,6.714,0,0,1-1.506.432,5.553,5.553,0,0,1-1.35.029C406.921,273.629,406.833,273.621,406.744,273.6Z" fill="#aa8ef4"/>
                      </g>
                    </g>
                  </g>
                  <g id="Grupo_94697" data-name="Grupo 94697">
                    <path id="Trazado_151398" data-name="Trazado 151398" d="M400.144,260.071c0,7.3,3.7,11.528,8.144,11.528s8.143-4.231,8.143-11.528-6.4-8.408-8.143-8.408C406.6,251.663,400.144,252.774,400.144,260.071Z" fill="#fff"/>
                    <path id="Trazado_151399" data-name="Trazado 151399" d="M414.042,263.673c-.829,1.7-.445,3.114.593,3.618s2.383-.064,3.211-1.768a2.116,2.116,0,1,0-3.8-1.85Z" fill="#fff"/>
                    <path id="Trazado_151400" data-name="Trazado 151400" d="M402.534,263.673c.829,1.7.444,3.114-.593,3.618s-2.383-.064-3.211-1.768a2.116,2.116,0,1,1,3.8-1.85Z" fill="#fff"/>
                  </g>
                </g>
                <g id="Grupo_94700" data-name="Grupo 94700">
                  <path id="Trazado_151401" data-name="Trazado 151401" d="M415.286,266.311c-1.516,2.855-6.24,3.948-7.263,3.948s-5.957-1.586-7.156-3.948-3.49-10.647,0-12.726a6.626,6.626,0,0,1,7.156-4.125c4.864.528,9.635-.564,10.085,1.551.382,1.8-3.175,2.115-3.175,2.115s3.689.23,3.371,1.852c-.2,1-1.873.757-1.873.757A14.789,14.789,0,0,1,415.286,266.311Z" fill="#5f4d8c"/>
                  <g id="Grupo_94699" data-name="Grupo 94699">
                    <path id="Trazado_151402" data-name="Trazado 151402" d="M402.22,253.179a4.906,4.906,0,0,0-.571,2.363Z" fill="#a687ff"/>
                    <path id="Trazado_151403" data-name="Trazado 151403" d="M403.125,254.116a4.9,4.9,0,0,0-2.381.489Z" fill="#a687ff"/>
                  </g>
                </g>
              </g>
              <g id="Grupo_94707" data-name="Grupo 94707">
                <g id="Grupo_94703" data-name="Grupo 94703">
                  <path id="Trazado_151404" data-name="Trazado 151404" d="M412.3,357.542s4.311.1,4.078-.831a4.423,4.423,0,0,0-8.156,0C407.992,357.644,412.3,357.542,412.3,357.542Z" fill="#aa8ef4"/>
                  <path id="Trazado_151405" data-name="Trazado 151405" d="M404.129,357.542s4.312.1,4.078-.831a4.422,4.422,0,0,0-8.155,0C399.818,357.644,404.129,357.542,404.129,357.542Z" fill="#aa8ef4"/>
                  <g id="Grupo_94702" data-name="Grupo 94702">
                    <path id="Trazado_151406" data-name="Trazado 151406" d="M397.742,305.282s2.6,48.291,3.07,49.341,6.765.583,6.882,0c.084-.411.221-26.271.361-40.6.112-.07.3.007.32-.012.144,14.31.4,40.2.485,40.612.117.583,6.415,1.049,6.882,0s3.07-49.341,3.07-49.341Z" fill="#5f4d8c"/>
                    <path id="Trazado_151407" data-name="Trazado 151407" d="M416.723,313.24a11.552,11.552,0,0,1-2.09.6,12.427,12.427,0,0,1-2.146.259,13.52,13.52,0,0,1-4.25-.518l-.057-.015-.057.012a16,16,0,0,1-1.993.291,19.193,19.193,0,0,1-2.021.075,13.006,13.006,0,0,1-2.017-.185,11.378,11.378,0,0,1-1.972-.506,9.384,9.384,0,0,0,1.927.722,13.066,13.066,0,0,0,2.046.314,15.067,15.067,0,0,0,2.071,0,15.315,15.315,0,0,0,2.061-.282l-.114,0a12.791,12.791,0,0,0,2.182.417,11.164,11.164,0,0,0,2.216.012,12.352,12.352,0,0,0,2.173-.387A9.783,9.783,0,0,0,416.723,313.24Z" fill="#aa8ef4" opacity="0.1"/>
                  </g>
                </g>
                <g id="Grupo_94706" data-name="Grupo 94706">
                  <path id="Trazado_151408" data-name="Trazado 151408" d="M400.11,276.358c-2.059,1.047-7.969,18.154-7.813,20.487s6.218,9.722,7.813,8.711S400.11,276.358,400.11,276.358Z" fill="#aa8ef4"/>
                  <path id="Trazado_151409" data-name="Trazado 151409" d="M415.283,275.726c2.063.537,4.735,3.886,11.125,19.4.775,1.884,6.53,6.806,8.842,8.324s-.088,7.162-3.8,6.518-9.648-7.227-11.793-11.44C415.832,291,415.283,275.726,415.283,275.726Z" fill="#aa8ef4"/>
                  <path id="Trazado_151410" data-name="Trazado 151410" d="M397.124,305.556a20.674,20.674,0,0,0,22.3,0c.525-.546-.173-1.712-.7-2.8s-.351-23.721-2.288-26.4c-.609-.84-6.592-2.083-8.166-2.083s-7.558,1.243-8.167,2.083c-1.936,2.678-1.763,25.307-2.288,26.4S396.6,305.01,397.124,305.556Z" fill="#aa8ef4"/>
                  <g id="Grupo_94704" data-name="Grupo 94704" opacity="0.6">
                    <path id="Trazado_151411" data-name="Trazado 151411" d="M419.429,305.556a1.6,1.6,0,0,0,.215-1.344,3.661,3.661,0,0,0-.617-1.263c-.066-.092-.152-.19-.206-.275a.065.065,0,0,0-.005-.037l-.011-.081q-.014-.08-.021-.165c-.024-.225-.038-.455-.053-.683l-.069-1.378-.238-5.521-.288-5.521-.171-2.759c-.073-.92-.129-1.84-.213-2.759-.017.923,0,1.845-.005,2.767l.047,2.765c.039,1.843.119,3.685.186,5.527.1,1.841.189,3.683.342,5.523l.13,1.379c.025.231.05.46.085.692.007.057.017.117.03.177l.017.089a.679.679,0,0,0,.05.127c.076.1.146.177.222.266a3.518,3.518,0,0,1,.675,1.16A1.614,1.614,0,0,1,419.429,305.556Z" fill="#5f4d8c"/>
                    <path id="Trazado_151412" data-name="Trazado 151412" d="M418.707,284.889a4.327,4.327,0,0,0-.576.852,4.255,4.255,0,0,0-.379.956,4.269,4.269,0,0,0,.576-.852A4.352,4.352,0,0,0,418.707,284.889Z" fill="#5f4d8c"/>
                  </g>
                  <g id="Grupo_94705" data-name="Grupo 94705" opacity="0.6">
                    <path id="Trazado_151413" data-name="Trazado 151413" d="M397.171,305.556a1.61,1.61,0,0,1-.1-1.314,3.5,3.5,0,0,1,.675-1.16c.075-.089.145-.164.221-.266a.618.618,0,0,0,.05-.127l.018-.089c.012-.06.023-.12.03-.177.034-.232.059-.461.084-.692l.131-1.379c.152-1.84.236-3.682.341-5.523.067-1.842.147-3.684.187-5.527l.047-2.765c0-.922.012-1.844-.005-2.767-.084.919-.141,1.839-.213,2.759l-.172,2.759-.288,5.521-.238,5.521-.068,1.378c-.015.228-.03.458-.054.683,0,.057-.012.112-.02.165l-.012.081a.063.063,0,0,0,0,.037c-.055.085-.141.183-.207.275a3.679,3.679,0,0,0-.617,1.263A1.6,1.6,0,0,0,397.171,305.556Z" fill="#5f4d8c"/>
                    <path id="Trazado_151414" data-name="Trazado 151414" d="M397.893,284.889a4.354,4.354,0,0,0,.38.956,4.269,4.269,0,0,0,.576.852,4.257,4.257,0,0,0-.38-.956A4.327,4.327,0,0,0,397.893,284.889Z" fill="#5f4d8c"/>
                  </g>
                  <path id="Trazado_151415" data-name="Trazado 151415" d="M434.68,305.759a4.41,4.41,0,0,1,4.2.817h-2.1s.088,1.982.584,2.1a6.179,6.179,0,0,0,1.516,0s.087,1.283-1.4,1.2c0,0-.029.758-1.312.67,0,0-.35.584-1.2.205,0,0-.32.291-1.166-.059s-1.983-2.478-1.983-2.478A3.931,3.931,0,0,1,434.68,305.759Z" fill="#fff"/>
                </g>
              </g>
            </g>
          </g>
          <g id="Grupo_94736" data-name="Grupo 94736">
            <g id="Grupo_94722" data-name="Grupo 94722">
              <g id="Grupo_94715" data-name="Grupo 94715">
                <g id="Grupo_94712" data-name="Grupo 94712">
                  <g id="Grupo_94710" data-name="Grupo 94710">
                    <rect id="Rectángulo_24233" data-name="Rectángulo 24233" width="1.21" height="19.429" rx="0.605" transform="translate(578.75 363.573) rotate(161.312)" fill="#fff"/>
                    <rect id="Rectángulo_24234" data-name="Rectángulo 24234" width="1.21" height="19.429" rx="0.605" transform="translate(545.508 345.168) rotate(18.69)" fill="#fff"/>
                  </g>
                  <g id="Grupo_94711" data-name="Grupo 94711" opacity="0.3">
                    <rect id="Rectángulo_24235" data-name="Rectángulo 24235" width="1.21" height="19.429" rx="0.605" transform="translate(578.75 363.573) rotate(161.312)" fill="#5f4d8c"/>
                    <rect id="Rectángulo_24236" data-name="Rectángulo 24236" width="1.21" height="19.429" rx="0.605" transform="translate(545.508 345.168) rotate(18.69)" fill="#5f4d8c"/>
                  </g>
                </g>
                <g id="Grupo_94713" data-name="Grupo 94713">
                  <rect id="Rectángulo_24237" data-name="Rectángulo 24237" width="1.342" height="21.552" rx="0.671" transform="translate(580.908 365.504) rotate(161.305)" fill="#fff"/>
                  <rect id="Rectángulo_24238" data-name="Rectángulo 24238" width="1.342" height="21.552" rx="0.671" transform="matrix(0.947, 0.321, -0.321, 0.947, 544.033, 345.089)" fill="#fff"/>
                </g>
                <g id="Grupo_94714" data-name="Grupo 94714">
                  <path id="Trazado_151416" data-name="Trazado 151416" d="M589.995,311.89l.229.092a2.211,2.211,0,0,1,1.174,3.006l-14.723,30.8a2.21,2.21,0,0,1-1.994,1.257H544.654a2.21,2.21,0,0,1-2.21-2.211h0a2.209,2.209,0,0,1,2.21-2.21H571.6a2.212,2.212,0,0,0,1.994-1.256l13.583-28.377A2.211,2.211,0,0,1,589.995,311.89Z" fill="#5f4d8c"/>
                  <path id="Trazado_151417" data-name="Trazado 151417" d="M578.055,334.017H560.034a.627.627,0,0,0-.353.11L545.2,344.062a.626.626,0,0,1-.353.109h0a.624.624,0,0,1-.353-1.138l14.822-10.19a.619.619,0,0,1,.353-.11h18.388a.624.624,0,0,1,.624.624v.037A.623.623,0,0,1,578.055,334.017Z" fill="#fff"/>
                </g>
                <path id="Trazado_151418" data-name="Trazado 151418" d="M565.7,314.74" fill="none" stroke="#ddd4ff" stroke-miterlimit="10" stroke-width="1"/>
              </g>
              <g id="Grupo_94721" data-name="Grupo 94721">
                <g id="Grupo_94718" data-name="Grupo 94718">
                  <g id="Grupo_94716" data-name="Grupo 94716">
                    <rect id="Rectángulo_24239" data-name="Rectángulo 24239" width="1.21" height="19.429" rx="0.605" transform="matrix(-0.947, 0.32, -0.32, -0.947, 584.748, 365.079)" fill="#fff"/>
                    <rect id="Rectángulo_24240" data-name="Rectángulo 24240" width="1.21" height="19.429" rx="0.605" transform="translate(551.505 346.674) rotate(18.687)" fill="#fff"/>
                  </g>
                  <g id="Grupo_94717" data-name="Grupo 94717" opacity="0.3">
                    <rect id="Rectángulo_24241" data-name="Rectángulo 24241" width="1.21" height="19.429" rx="0.605" transform="matrix(-0.947, 0.32, -0.32, -0.947, 584.748, 365.079)" fill="#5f4d8c"/>
                    <rect id="Rectángulo_24242" data-name="Rectángulo 24242" width="1.21" height="19.429" rx="0.605" transform="translate(551.505 346.674) rotate(18.687)" fill="#5f4d8c"/>
                  </g>
                </g>
                <g id="Grupo_94719" data-name="Grupo 94719">
                  <rect id="Rectángulo_24243" data-name="Rectángulo 24243" width="1.342" height="21.552" rx="0.671" transform="matrix(-0.947, 0.32, -0.32, -0.947, 586.902, 367.011)" fill="#fff"/>
                  <rect id="Rectángulo_24244" data-name="Rectángulo 24244" width="1.342" height="21.552" rx="0.671" transform="matrix(0.947, 0.32, -0.32, 0.947, 550.025, 346.594)" fill="#fff"/>
                </g>
                <g id="Grupo_94720" data-name="Grupo 94720">
                  <path id="Trazado_151419" data-name="Trazado 151419" d="M595.992,313.4l.229.091a2.211,2.211,0,0,1,1.174,3.006l-14.723,30.8a2.21,2.21,0,0,1-1.994,1.257H550.651a2.21,2.21,0,0,1-2.21-2.21h0a2.21,2.21,0,0,1,2.21-2.211H577.6a2.211,2.211,0,0,0,1.994-1.256l13.583-28.376A2.209,2.209,0,0,1,595.992,313.4Z" fill="#5f4d8c"/>
                  <path id="Trazado_151420" data-name="Trazado 151420" d="M584.052,335.524H566.031a.626.626,0,0,0-.353.109L551.2,345.568a.626.626,0,0,1-.353.109h0a.624.624,0,0,1-.353-1.138l14.822-10.19a.62.62,0,0,1,.353-.11h18.388a.624.624,0,0,1,.624.624v.037A.624.624,0,0,1,584.052,335.524Z" fill="#fff"/>
                </g>
                <path id="Trazado_151421" data-name="Trazado 151421" d="M571.7,316.246" fill="none" stroke="#ddd4ff" stroke-miterlimit="10" stroke-width="1"/>
              </g>
            </g>
            <g id="Grupo_94735" data-name="Grupo 94735">
              <g id="Grupo_94728" data-name="Grupo 94728">
                <g id="Grupo_94725" data-name="Grupo 94725">
                  <g id="Grupo_94723" data-name="Grupo 94723">
                    <rect id="Rectángulo_24245" data-name="Rectángulo 24245" width="1.21" height="19.429" rx="0.605" transform="translate(499.704 363.573) rotate(161.312)" fill="#fff"/>
                    <rect id="Rectángulo_24246" data-name="Rectángulo 24246" width="1.21" height="19.429" rx="0.605" transform="translate(466.462 345.168) rotate(18.688)" fill="#fff"/>
                  </g>
                  <g id="Grupo_94724" data-name="Grupo 94724" opacity="0.3">
                    <rect id="Rectángulo_24247" data-name="Rectángulo 24247" width="1.21" height="19.429" rx="0.605" transform="translate(499.704 363.573) rotate(161.312)" fill="#5f4d8c"/>
                    <rect id="Rectángulo_24248" data-name="Rectángulo 24248" width="1.21" height="19.429" rx="0.605" transform="translate(466.462 345.168) rotate(18.688)" fill="#5f4d8c"/>
                  </g>
                </g>
                <g id="Grupo_94726" data-name="Grupo 94726">
                  <rect id="Rectángulo_24249" data-name="Rectángulo 24249" width="1.342" height="21.552" rx="0.671" transform="matrix(-0.947, 0.321, -0.321, -0.947, 501.862, 365.504)" fill="#fff"/>
                  <rect id="Rectángulo_24250" data-name="Rectángulo 24250" width="1.342" height="21.552" rx="0.671" transform="translate(464.988 345.09) rotate(18.703)" fill="#fff"/>
                </g>
                <g id="Grupo_94727" data-name="Grupo 94727">
                  <path id="Trazado_151422" data-name="Trazado 151422" d="M510.949,311.89l.229.092a2.211,2.211,0,0,1,1.174,3.006l-14.723,30.8a2.21,2.21,0,0,1-1.994,1.257H465.608a2.211,2.211,0,0,1-2.211-2.211h0a2.21,2.21,0,0,1,2.211-2.21h26.948a2.211,2.211,0,0,0,1.994-1.256l13.584-28.377A2.211,2.211,0,0,1,510.949,311.89Z" fill="#5f4d8c"/>
                  <path id="Trazado_151423" data-name="Trazado 151423" d="M499.009,334.017H480.988a.627.627,0,0,0-.353.11l-14.483,9.935a.626.626,0,0,1-.353.109h0a.624.624,0,0,1-.354-1.138l14.822-10.19a.623.623,0,0,1,.354-.11h18.388a.624.624,0,0,1,.624.624v.037A.623.623,0,0,1,499.009,334.017Z" fill="#fff"/>
                </g>
                <path id="Trazado_151424" data-name="Trazado 151424" d="M486.653,314.74" fill="none" stroke="#ddd4ff" stroke-miterlimit="10" stroke-width="1"/>
              </g>
              <g id="Grupo_94734" data-name="Grupo 94734">
                <g id="Grupo_94731" data-name="Grupo 94731">
                  <g id="Grupo_94729" data-name="Grupo 94729">
                    <rect id="Rectángulo_24251" data-name="Rectángulo 24251" width="1.21" height="19.429" rx="0.605" transform="matrix(-0.947, 0.32, -0.32, -0.947, 505.701, 365.079)" fill="#fff"/>
                    <rect id="Rectángulo_24252" data-name="Rectángulo 24252" width="1.21" height="19.429" rx="0.605" transform="translate(472.459 346.674) rotate(18.688)" fill="#fff"/>
                  </g>
                  <g id="Grupo_94730" data-name="Grupo 94730" opacity="0.3">
                    <rect id="Rectángulo_24253" data-name="Rectángulo 24253" width="1.21" height="19.429" rx="0.605" transform="matrix(-0.947, 0.32, -0.32, -0.947, 505.701, 365.079)" fill="#5f4d8c"/>
                    <rect id="Rectángulo_24254" data-name="Rectángulo 24254" width="1.21" height="19.429" rx="0.605" transform="translate(472.459 346.674) rotate(18.688)" fill="#5f4d8c"/>
                  </g>
                </g>
                <g id="Grupo_94732" data-name="Grupo 94732">
                  <rect id="Rectángulo_24255" data-name="Rectángulo 24255" width="1.342" height="21.552" rx="0.671" transform="translate(507.855 367.012) rotate(161.329)" fill="#fff"/>
                  <rect id="Rectángulo_24256" data-name="Rectángulo 24256" width="1.342" height="21.552" rx="0.671" transform="translate(470.979 346.594) rotate(18.671)" fill="#fff"/>
                </g>
                <g id="Grupo_94733" data-name="Grupo 94733">
                  <path id="Trazado_151425" data-name="Trazado 151425" d="M516.946,313.4l.229.091a2.21,2.21,0,0,1,1.173,3.006l-14.722,30.8a2.211,2.211,0,0,1-1.995,1.257H471.605a2.211,2.211,0,0,1-2.211-2.21h0a2.211,2.211,0,0,1,2.211-2.211h26.948a2.209,2.209,0,0,0,1.994-1.256l13.584-28.376A2.209,2.209,0,0,1,516.946,313.4Z" fill="#5f4d8c"/>
                  <path id="Trazado_151426" data-name="Trazado 151426" d="M505.006,335.524H486.984a.625.625,0,0,0-.352.109l-14.483,9.935a.626.626,0,0,1-.353.109h0a.624.624,0,0,1-.354-1.138l14.822-10.19a.623.623,0,0,1,.354-.11h18.388a.624.624,0,0,1,.624.624v.037A.624.624,0,0,1,505.006,335.524Z" fill="#fff"/>
                </g>
                <path id="Trazado_151427" data-name="Trazado 151427" d="M492.65,316.246" fill="none" stroke="#ddd4ff" stroke-miterlimit="10" stroke-width="1"/>
              </g>
            </g>
          </g>
        </g>
      </g>
    </g>
  </g>
</svg>
