<svg xmlns="http://www.w3.org/2000/svg" width="92" height="92" viewBox="0 0 92 92">
  <g id="Grupo_94601" data-name="Grupo 94601" transform="translate(-210 -210)">
    <g id="Grupo_86382" data-name="Grupo 86382">
      <circle id="Elipse_5014" data-name="Elipse 5014" cx="46" cy="46" r="46" transform="translate(210 210)" fill="#fabc00"/>
      <circle id="Elipse_5015" data-name="Elipse 5015" cx="39.292" cy="39.292" r="39.292" transform="translate(216.708 216.708)" fill="#feca2e"/>
      <g id="Grupo_94667" data-name="Grupo 94667" transform="translate(13 13.076)">
        <path id="Trazado_151289" data-name="Trazado 151289" d="M242.758,206.387a36.427,36.427,0,0,0-8.933,1.1l-14.9,16.425-7.28-.016a36.376,36.376,0,1,0,31.108-17.514Z" transform="translate(-0.175 -0.175)" fill="#5038a1"/>
        <path id="Trazado_151290" data-name="Trazado 151290" d="M270.161,274.312v-38.8h-29.1v46.761a34.5,34.5,0,0,0,6.061.522,36.189,36.189,0,0,0,23.168-8.341Z" transform="translate(-4.543 -3.844)" fill="#f9d48a"/>
        <path id="Trazado_151291" data-name="Trazado 151291" d="M221.626,235.516v38.8l-.133.146a36.053,36.053,0,0,0,17.107,7.819V235.516Z" transform="translate(-2.078 -3.844)" fill="#ff958a"/>
        <path id="Trazado_151292" data-name="Trazado 151292" d="M267.715,216.1V233.07h-46.07v-2.34L236.278,216.1Z" transform="translate(-2.097 -1.398)" fill="#f5f7fa"/>
        <path id="Trazado_151293" data-name="Trazado 151293" d="M260.462,221.645h-19.4v4.85h24.246v-4.85Z" transform="translate(-4.543 -2.097)" fill="#f9d48a"/>
        <path id="Trazado_151294" data-name="Trazado 151294" d="M234.531,214.874l-17.058,17.058-9.7-9.7,1.212-1.212,7.275,2.425,3.031-3.03-9.093-9.093,1.212-1.212,13.337,4.85,6.922-6.923a5.64,5.64,0,0,1,6.013-1.273,5.839,5.839,0,0,1,1.964,1.273,1.23,1.23,0,0,1,0,1.722Z" transform="translate(-0.349 -0.175)" fill="#f9d48a"/>
        <g id="Grupo_94667-2" data-name="Grupo 94667" transform="translate(205 205)">
          <path id="Trazado_151295" data-name="Trazado 151295" d="M242.583,205a37.956,37.956,0,0,0-5.174.361,6.838,6.838,0,0,0-6.949,1.648l-6.373,6.373-13.336-4.849-2.615,2.615,9.093,9.093-1.644,1.644-7.274-2.425-2.6,2.6,3.414,3.414A37.581,37.581,0,1,0,242.583,205Zm-7.9,10.911h29.721V230.46H220.76v-.625Zm29.721,43.645H237.734v-7.274h26.672ZM220.76,232.884h14.548v7.275H220.76Zm0,9.7h14.548v7.275H220.76Zm0,9.7h14.548v7.274H220.76Zm43.646-2.425H237.734v-7.275h26.672Zm0-9.7H237.734v-7.275h26.672Zm-43.646,29.1v-7.274h14.548v7.274Zm14.548,2.425v5.3a34.986,34.986,0,0,1-12.438-5.3Zm2.425-9.7h26.672v7.274H237.734ZM262.3,213.487H237.109l3.049-3.049a2.423,2.423,0,0,0,.369-2.939c.684-.039,1.37-.073,2.056-.073A34.957,34.957,0,0,1,262.3,213.487ZM216.24,224.659l4.417-4.418-8.683-8.683,12.735,4.631,7.464-7.467a4.44,4.44,0,0,1,6.27,0l-21.32,21.322-7.636-7.636Zm-8.815,17.925a35.273,35.273,0,0,1,3.511-15.3l6.188,6.187,1.212-1.212v35.747A35.054,35.054,0,0,1,207.425,242.583Zm30.31,34.816v-5.72H262.3a34.97,34.97,0,0,1-24.562,5.72Zm29.1-9.392V217.16a35.075,35.075,0,0,1,0,50.848Z" transform="translate(-205 -205)" fill="#232323"/>
          <path id="Trazado_151296" data-name="Trazado 151296" d="M266.35,227.533v-7.275H239.677v7.275Zm-12.124-2.425H251.8v-2.425h2.425Zm2.425-2.425h2.425v2.425h-2.425Zm-7.275,2.425h-2.425v-2.425h2.425Zm14.548,0H261.5v-2.425h2.425ZM242.1,222.683h2.425v2.425H242.1Z" transform="translate(-209.368 -206.922)" fill="#232323"/>
          <path id="Trazado_151297" data-name="Trazado 151297" d="M225.806,239.677h9.7V242.1h-9.7Z" transform="translate(-207.621 -209.368)" fill="#232323"/>
          <path id="Trazado_151298" data-name="Trazado 151298" d="M245.226,239.677H257.35V242.1H245.226Z" transform="translate(-210.067 -209.368)" fill="#232323"/>
          <path id="Trazado_151299" data-name="Trazado 151299" d="M261.871,239.677H264.3V242.1h-2.425Z" transform="translate(-212.164 -209.368)" fill="#232323"/>
          <path id="Trazado_151300" data-name="Trazado 151300" d="M267.419,239.677h2.425V242.1h-2.425Z" transform="translate(-212.863 -209.368)" fill="#232323"/>
          <path id="Trazado_151301" data-name="Trazado 151301" d="M225.806,250.774h9.7V253.2h-9.7Z" transform="translate(-207.621 -210.766)" fill="#232323"/>
          <path id="Trazado_151302" data-name="Trazado 151302" d="M245.226,250.774h21.823V253.2H245.226Z" transform="translate(-210.067 -210.766)" fill="#232323"/>
          <path id="Trazado_151303" data-name="Trazado 151303" d="M225.806,261.871h9.7V264.3h-9.7Z" transform="translate(-207.621 -212.164)" fill="#232323"/>
          <path id="Trazado_151304" data-name="Trazado 151304" d="M245.226,261.871H257.35V264.3H245.226Z" transform="translate(-210.067 -212.164)" fill="#232323"/>
          <path id="Trazado_151305" data-name="Trazado 151305" d="M261.871,261.871H264.3V264.3h-2.425Z" transform="translate(-212.164 -212.164)" fill="#232323"/>
          <path id="Trazado_151306" data-name="Trazado 151306" d="M267.419,261.871h2.425V264.3h-2.425Z" transform="translate(-212.863 -212.164)" fill="#232323"/>
          <path id="Trazado_151307" data-name="Trazado 151307" d="M225.806,272.968h9.7v2.425h-9.7Z" transform="translate(-207.621 -213.562)" fill="#232323"/>
          <path id="Trazado_151308" data-name="Trazado 151308" d="M245.226,272.968h21.823v2.425H245.226Z" transform="translate(-210.067 -213.562)" fill="#232323"/>
        </g>
      </g>
    </g>
  </g>
</svg>
