<svg xmlns="http://www.w3.org/2000/svg" width="86" height="86" viewBox="0 0 86 86">
  <g id="Grupo_99791" data-name="Grupo 99791" transform="translate(2729.182 6970)">
    <g id="Grupo_99790" data-name="Grupo 99790">
      <g id="Grupo_99789" data-name="Grupo 99789">
        <g id="Grupo_99788" data-name="Grupo 99788">
          <g id="Grupo_98561" data-name="Grupo 98561" transform="translate(-2942.182 -7013)">
            <path id="Trazado_153056" data-name="Trazado 153056" d="M213.935,43.935h35.522V72.913H213.935Z" fill="#dfdddc"/>
            <path id="Trazado_153057" data-name="Trazado 153057" d="M269.087,83.2V67.3L258.8,49.543h-9.347v23.37H213.935V83.2Z" fill="#f2ae40"/>
            <circle id="Elipse_5087" data-name="Elipse 5087" cx="5.609" cy="5.609" r="5.609" transform="translate(284.043 49.543)" fill="#6ebaed"/>
            <path id="Trazado_153058" data-name="Trazado 153058" d="M292.457,60.761h-5.609a5.609,5.609,0,0,0-5.609,5.609v4.673h16.826V66.37A5.608,5.608,0,0,0,292.457,60.761Z" fill="#6ebaed"/>
            <path id="Trazado_153059" data-name="Trazado 153059" d="M266.918,63.565H255.065V53.283h5.908Z" fill="#ddd"/>
            <path id="Trazado_153060" data-name="Trazado 153060" d="M224.217,105.63H234.5v22.435H224.217Z" fill="#dfdddc"/>
            <path id="Trazado_153061" data-name="Trazado 153061" d="M234.5,96.283h14.957v31.782H234.5Z" fill="#ddd"/>
            <path id="Trazado_153062" data-name="Trazado 153062" d="M282.174,128.065H249.457v-19.63L256,101.891v6.544l6.543-6.544v6.544l6.544-6.544v6.544l6.543-6.544v6.544l6.544-6.544Z" fill="#ef6662"/>
            <path id="Trazado_153063" data-name="Trazado 153063" d="M282.174,112.174h15.891v15.891H282.174Z" fill="#dfdddc"/>
            <path id="Trazado_153064" data-name="Trazado 153064" d="M239.174,122.457h5.609v5.608h-5.609Z" fill="#9c9b9a"/>
            <path id="Trazado_153065" data-name="Trazado 153065" d="M287.783,123.391h4.674v4.674h-4.674Z" fill="#9c9b9a"/>
            <path id="Trazado_153066" data-name="Trazado 153066" d="M217.674,123.391a2.82,2.82,0,0,1-2.712-3.6l2.712-9.492,2.712,9.492A2.82,2.82,0,0,1,217.674,123.391Z" fill="#f2ae40"/>
            <path id="Trazado_153067" data-name="Trazado 153067" d="M275.63,108.435v-21.5h3.74V104.7Z" fill="#c9c7c6"/>
            <path id="Trazado_153068" data-name="Trazado 153068" d="M213.935,43.935h35.522v9.348H213.935Z" fill="#c9c7c6"/>
            <path id="Trazado_153069" data-name="Trazado 153069" d="M227.022,43.935V60.761l4.674-4.674,4.674,4.674V43.935Z" fill="#f2ae40"/>
            <g id="Grupo_95411" data-name="Grupo 95411">
              <circle id="Elipse_5088" data-name="Elipse 5088" cx="5.609" cy="5.609" r="5.609" transform="translate(217.674 77.587)" fill="#9c9b9a"/>
              <circle id="Elipse_5089" data-name="Elipse 5089" cx="5.609" cy="5.609" r="5.609" transform="translate(228.891 77.587)" fill="#9c9b9a"/>
              <circle id="Elipse_5090" data-name="Elipse 5090" cx="5.609" cy="5.609" r="5.609" transform="translate(251.326 77.587)" fill="#9c9b9a"/>
            </g>
            <circle id="Elipse_5091" data-name="Elipse 5091" cx="1.87" cy="1.87" r="1.87" transform="translate(232.63 81.326)" fill="#c9c7c6"/>
            <circle id="Elipse_5092" data-name="Elipse 5092" cx="1.87" cy="1.87" r="1.87" transform="translate(255.065 81.326)" fill="#c9c7c6"/>
            <circle id="Elipse_5093" data-name="Elipse 5093" cx="1.87" cy="1.87" r="1.87" transform="translate(221.413 81.326)" fill="#c9c7c6"/>
            <path id="Trazado_153070" data-name="Trazado 153070" d="M213.935,84.13h2.879a6.531,6.531,0,0,0,12.077,2.419,6.531,6.531,0,0,0,12.078-2.419h9.5a6.534,6.534,0,0,0,12.937,0h5.684a.934.934,0,0,0,.935-.934V67.3a.928.928,0,0,0-.126-.468L259.613,49.075a.932.932,0,0,0-.809-.466h-8.413V43.935a.934.934,0,0,0-.934-.935H213.935a.935.935,0,0,0-.935.935V83.2A.934.934,0,0,0,213.935,84.13Zm9.348,3.74a4.674,4.674,0,1,1,4.674-4.674A4.679,4.679,0,0,1,223.283,87.87Zm11.217,0a4.674,4.674,0,1,1,4.674-4.674A4.68,4.68,0,0,1,234.5,87.87Zm22.435,0a4.674,4.674,0,1,1,4.674-4.674A4.68,4.68,0,0,1,256.935,87.87Zm3.495-33.653L265.3,62.63H256V54.217ZM227.957,44.87h7.478v3.739a.935.935,0,0,0,1.869,0V44.87h11.218v6.543H236.37a.935.935,0,0,0-.935.935V58.5l-3.078-3.078a.935.935,0,0,0-1.322,0L227.957,58.5Zm-13.087,0h11.217v6.543H214.87Zm0,8.413h11.217v7.478a.935.935,0,0,0,1.6.661l4.013-4.013,4.013,4.013a.934.934,0,0,0,1.6-.661V53.283h11.218V71.978H214.87Zm0,20.565h34.587a.934.934,0,0,0,.934-.935V50.478h7.874l1.082,1.87h-4.282a.935.935,0,0,0-.935.935V63.565a.935.935,0,0,0,.935.935h11.319l1.768,3.056V82.261H263.4a6.534,6.534,0,0,0-12.937,0h-9.5a6.531,6.531,0,0,0-12.078-2.418,6.53,6.53,0,0,0-12.077,2.418H214.87Z"/>
            <circle id="Elipse_5094" data-name="Elipse 5094" cx="0.935" cy="0.935" r="0.935" transform="translate(216.739 68.239)"/>
            <circle id="Elipse_5095" data-name="Elipse 5095" cx="0.935" cy="0.935" r="0.935" transform="translate(220.478 68.239)"/>
            <circle id="Elipse_5096" data-name="Elipse 5096" cx="0.935" cy="0.935" r="0.935" transform="translate(224.217 68.239)"/>
            <path id="Trazado_153071" data-name="Trazado 153071" d="M294.009,60.02a6.543,6.543,0,1,0-8.714,0,6.551,6.551,0,0,0-4.991,6.35v4.673a.935.935,0,0,0,.935.935h16.826a.935.935,0,0,0,.935-.935V66.37A6.55,6.55,0,0,0,294.009,60.02Zm-9.031-4.868a4.674,4.674,0,1,1,4.674,4.674A4.68,4.68,0,0,1,284.978,55.152ZM297.13,70.109H282.174V66.37a4.679,4.679,0,0,1,4.674-4.674h5.609a4.678,4.678,0,0,1,4.673,4.674Z"/>
            <path id="Trazado_153072" data-name="Trazado 153072" d="M234.5,80.391a2.8,2.8,0,1,0,2.8,2.805A2.808,2.808,0,0,0,234.5,80.391Zm0,3.739a.934.934,0,1,1,.935-.934A.935.935,0,0,1,234.5,84.13Z"/>
            <path id="Trazado_153073" data-name="Trazado 153073" d="M256.935,80.391a2.8,2.8,0,1,0,2.8,2.805A2.809,2.809,0,0,0,256.935,80.391Zm0,3.739a.934.934,0,1,1,.935-.934A.935.935,0,0,1,256.935,84.13Z"/>
            <path id="Trazado_153074" data-name="Trazado 153074" d="M223.283,80.391a2.8,2.8,0,1,0,2.8,2.805A2.808,2.808,0,0,0,223.283,80.391Zm0,3.739a.934.934,0,1,1,.934-.934A.935.935,0,0,1,223.283,84.13Z"/>
            <path id="Trazado_153075" data-name="Trazado 153075" d="M253.2,69.174h3.739a.935.935,0,0,0,0-1.87H253.2a.935.935,0,0,0,0,1.87Z"/>
            <path id="Trazado_153076" data-name="Trazado 153076" d="M298.065,111.239H282.174a.935.935,0,0,0-.935.935V127.13H250.391V108.822l4.674-4.674v4.287a.935.935,0,0,0,1.6.661l4.948-4.948v4.287a.934.934,0,0,0,1.6.661l4.948-4.948v4.287a.935.935,0,0,0,1.6.661l4.948-4.948v4.287a.934.934,0,0,0,1.595.661l3.739-3.739h0l1.208-1.208v4.287a.935.935,0,1,0,1.87,0v-6.544a.935.935,0,0,0-1.6-.661l-1.209,1.209v-15.5A.934.934,0,0,0,279.37,86h-3.74a.934.934,0,0,0-.934.935V101.5l-4.674,4.674v-4.287a.935.935,0,0,0-1.6-.661l-4.948,4.948v-4.287a.934.934,0,0,0-1.6-.661l-4.948,4.948v-4.287a.935.935,0,0,0-1.6-.661l-6.543,6.544a.934.934,0,0,0-.274.661V127.13h-2.805v-4.673a.934.934,0,0,0-.934-.935h-5.609a.935.935,0,0,0-.935.935v4.673h-2.8V97.217h13.087v6.544a.935.935,0,1,0,1.869,0V96.283a.934.934,0,0,0-.934-.935H234.5a.935.935,0,0,0-.935.935V104.7h-9.348a.933.933,0,0,0-.934.934v21.5h-4.674V124.2a3.745,3.745,0,0,0,2.675-4.662l-2.712-9.493a.934.934,0,0,0-1.8,0l-2.712,9.492a3.747,3.747,0,0,0,2.675,4.663v2.927h-2.8a.935.935,0,0,0,0,1.87h84.13a.935.935,0,0,0,.935-.935V112.174A.935.935,0,0,0,298.065,111.239Zm-21.5-23.369h1.87v16.439l-1.87,1.869Zm-60.4,33.836a1.873,1.873,0,0,1-.308-1.654l1.813-6.344,1.812,6.345a1.87,1.87,0,0,1-.307,1.654A1.943,1.943,0,0,1,216.169,121.706Zm17.4,5.424h-8.413V106.565h8.413Zm10.283,0h-3.739v-3.739h3.739Zm47.674,0h-2.8v-2.8h2.8Zm5.608,0h-3.739v-2.8h.935a.934.934,0,1,0,0-1.869h-8.413a.934.934,0,1,0,0,1.869h.935v2.8h-3.739V113.109H297.13Z"/>
            <path id="Trazado_153077" data-name="Trazado 153077" d="M254.13,113.109H253.2a.934.934,0,1,0,0,1.869h.934a.934.934,0,1,0,0-1.869Z"/>
            <path id="Trazado_153078" data-name="Trazado 153078" d="M258.8,113.109h-.934a.934.934,0,1,0,0,1.869h.934a.934.934,0,1,0,0-1.869Z"/>
            <path id="Trazado_153079" data-name="Trazado 153079" d="M263.478,113.109h-.935a.934.934,0,0,0,0,1.869h.935a.934.934,0,1,0,0-1.869Z"/>
            <path id="Trazado_153080" data-name="Trazado 153080" d="M268.152,113.109h-.935a.934.934,0,0,0,0,1.869h.935a.934.934,0,1,0,0-1.869Z"/>
            <path id="Trazado_153081" data-name="Trazado 153081" d="M272.826,113.109h-.935a.934.934,0,0,0,0,1.869h.935a.934.934,0,1,0,0-1.869Z"/>
            <path id="Trazado_153082" data-name="Trazado 153082" d="M277.5,113.109h-.935a.934.934,0,1,0,0,1.869h.935a.934.934,0,1,0,0-1.869Z"/>
            <path id="Trazado_153083" data-name="Trazado 153083" d="M254.13,116.848H253.2a.935.935,0,1,0,0,1.869h.934a.935.935,0,1,0,0-1.869Z"/>
            <path id="Trazado_153084" data-name="Trazado 153084" d="M258.8,116.848h-.934a.935.935,0,1,0,0,1.869h.934a.935.935,0,1,0,0-1.869Z"/>
            <path id="Trazado_153085" data-name="Trazado 153085" d="M263.478,116.848h-.935a.935.935,0,0,0,0,1.869h.935a.935.935,0,1,0,0-1.869Z"/>
            <path id="Trazado_153086" data-name="Trazado 153086" d="M268.152,116.848h-.935a.935.935,0,0,0,0,1.869h.935a.935.935,0,1,0,0-1.869Z"/>
            <path id="Trazado_153087" data-name="Trazado 153087" d="M272.826,116.848h-.935a.935.935,0,0,0,0,1.869h.935a.935.935,0,1,0,0-1.869Z"/>
            <path id="Trazado_153088" data-name="Trazado 153088" d="M277.5,116.848h-.935a.935.935,0,1,0,0,1.869h.935a.935.935,0,1,0,0-1.869Z"/>
            <path id="Trazado_153089" data-name="Trazado 153089" d="M254.13,120.587H253.2a.935.935,0,0,0,0,1.87h.934a.935.935,0,0,0,0-1.87Z"/>
            <path id="Trazado_153090" data-name="Trazado 153090" d="M258.8,120.587h-.934a.935.935,0,0,0,0,1.87h.934a.935.935,0,1,0,0-1.87Z"/>
            <path id="Trazado_153091" data-name="Trazado 153091" d="M263.478,120.587h-.935a.935.935,0,0,0,0,1.87h.935a.935.935,0,0,0,0-1.87Z"/>
            <path id="Trazado_153092" data-name="Trazado 153092" d="M240.109,100.022h-.935a.934.934,0,1,0,0,1.869h.935a.934.934,0,0,0,0-1.869Z"/>
            <path id="Trazado_153093" data-name="Trazado 153093" d="M244.783,100.022h-.935a.934.934,0,1,0,0,1.869h.935a.934.934,0,0,0,0-1.869Z"/>
            <path id="Trazado_153094" data-name="Trazado 153094" d="M240.109,103.761h-.935a.934.934,0,1,0,0,1.869h.935a.934.934,0,0,0,0-1.869Z"/>
            <path id="Trazado_153095" data-name="Trazado 153095" d="M244.783,103.761h-.935a.934.934,0,1,0,0,1.869h.935a.934.934,0,0,0,0-1.869Z"/>
            <path id="Trazado_153096" data-name="Trazado 153096" d="M240.109,107.5h-.935a.935.935,0,0,0,0,1.87h.935a.935.935,0,0,0,0-1.87Z"/>
            <path id="Trazado_153097" data-name="Trazado 153097" d="M227.957,110.3h2.8a.935.935,0,1,0,0-1.869h-2.8a.935.935,0,1,0,0,1.869Z"/>
            <path id="Trazado_153098" data-name="Trazado 153098" d="M227.957,114.043h2.8a.934.934,0,1,0,0-1.869h-2.8a.934.934,0,1,0,0,1.869Z"/>
            <path id="Trazado_153099" data-name="Trazado 153099" d="M227.957,117.783h2.8a.935.935,0,1,0,0-1.87h-2.8a.935.935,0,0,0,0,1.87Z"/>
            <path id="Trazado_153100" data-name="Trazado 153100" d="M227.957,121.522h2.8a.935.935,0,0,0,0-1.87h-2.8a.935.935,0,0,0,0,1.87Z"/>
            <path id="Trazado_153101" data-name="Trazado 153101" d="M227.957,125.261h2.8a.935.935,0,0,0,0-1.87h-2.8a.935.935,0,0,0,0,1.87Z"/>
            <path id="Trazado_153102" data-name="Trazado 153102" d="M244.783,107.5h-.935a.935.935,0,1,0,0,1.87h.935a.935.935,0,0,0,0-1.87Z"/>
            <path id="Trazado_153103" data-name="Trazado 153103" d="M240.109,111.239h-.935a.935.935,0,0,0,0,1.87h.935a.935.935,0,0,0,0-1.87Z"/>
            <path id="Trazado_153104" data-name="Trazado 153104" d="M244.783,111.239h-.935a.935.935,0,1,0,0,1.87h.935a.935.935,0,0,0,0-1.87Z"/>
            <path id="Trazado_153105" data-name="Trazado 153105" d="M240.109,114.978h-.935a.935.935,0,0,0,0,1.87h.935a.935.935,0,0,0,0-1.87Z"/>
            <path id="Trazado_153106" data-name="Trazado 153106" d="M244.783,114.978h-.935a.935.935,0,1,0,0,1.87h.935a.935.935,0,0,0,0-1.87Z"/>
            <path id="Trazado_153107" data-name="Trazado 153107" d="M268.152,120.587h-.935a.935.935,0,0,0,0,1.87h.935a.935.935,0,0,0,0-1.87Z"/>
            <path id="Trazado_153108" data-name="Trazado 153108" d="M272.826,120.587h-.935a.935.935,0,0,0,0,1.87h.935a.935.935,0,0,0,0-1.87Z"/>
            <path id="Trazado_153109" data-name="Trazado 153109" d="M277.5,120.587h-.935a.935.935,0,0,0,0,1.87h.935a.935.935,0,0,0,0-1.87Z"/>
            <path id="Trazado_153110" data-name="Trazado 153110" d="M285.913,116.848h8.413a.935.935,0,0,0,0-1.87h-8.413a.935.935,0,0,0,0,1.87Z"/>
            <path id="Trazado_153111" data-name="Trazado 153111" d="M285.913,120.587h8.413a.935.935,0,1,0,0-1.87h-8.413a.935.935,0,0,0,0,1.87Z"/>
            <path id="Trazado_153112" data-name="Trazado 153112" d="M227.022,100.022a.935.935,0,0,0-.935.935v.934a.935.935,0,1,0,1.87,0v-.934A.935.935,0,0,0,227.022,100.022Z"/>
            <path id="Trazado_153113" data-name="Trazado 153113" d="M227.957,96.283a.935.935,0,0,0-1.87,0v.934a.935.935,0,0,0,1.87,0Z"/>
            <path id="Trazado_153114" data-name="Trazado 153114" d="M227.957,91.609a.935.935,0,0,0-1.87,0v.934a.935.935,0,0,0,1.87,0Z"/>
            <path id="Trazado_153115" data-name="Trazado 153115" d="M280.3,54.217a.934.934,0,1,0,0-1.869h-.934a.934.934,0,1,0,0,1.869Z"/>
            <path id="Trazado_153116" data-name="Trazado 153116" d="M275.63,54.217a.934.934,0,1,0,0-1.869H274.7a.934.934,0,1,0,0,1.869Z"/>
            <path id="Trazado_153117" data-name="Trazado 153117" d="M270.957,54.217a.934.934,0,0,0,0-1.869h-.935a.934.934,0,1,0,0,1.869Z"/>
            <path id="Trazado_153118" data-name="Trazado 153118" d="M266.283,54.217a.934.934,0,0,0,0-1.869h-.935a.934.934,0,1,0,0,1.869Z"/>
            <path id="Trazado_153119" data-name="Trazado 153119" d="M289.652,108.435a.935.935,0,1,0,1.87,0V107.5a.935.935,0,1,0-1.87,0Z"/>
            <path id="Trazado_153120" data-name="Trazado 153120" d="M289.652,103.761a.935.935,0,0,0,1.87,0v-.935a.935.935,0,1,0-1.87,0Z"/>
            <path id="Trazado_153121" data-name="Trazado 153121" d="M289.652,99.087a.935.935,0,1,0,1.87,0v-.935a.935.935,0,0,0-1.87,0Z"/>
            <path id="Trazado_153122" data-name="Trazado 153122" d="M289.652,94.413a.935.935,0,0,0,1.87,0v-.935a.935.935,0,0,0-1.87,0Z"/>
            <path id="Trazado_153123" data-name="Trazado 153123" d="M289.652,89.739a.935.935,0,1,0,1.87,0V88.8a.935.935,0,0,0-1.87,0Z"/>
            <path id="Trazado_153124" data-name="Trazado 153124" d="M289.652,85.065a.935.935,0,0,0,1.87,0V84.13a.935.935,0,0,0-1.87,0Z"/>
            <path id="Trazado_153125" data-name="Trazado 153125" d="M289.652,80.391a.935.935,0,0,0,1.87,0v-.934a.935.935,0,0,0-1.87,0Z"/>
            <path id="Trazado_153126" data-name="Trazado 153126" d="M290.587,76.652a.935.935,0,0,0,.935-.935v-.934a.935.935,0,0,0-1.87,0v.934A.935.935,0,0,0,290.587,76.652Z"/>
          </g>
        </g>
      </g>
    </g>
  </g>
</svg>
