<svg xmlns="http://www.w3.org/2000/svg" width="333.63" height="145.567" viewBox="0 0 333.63 145.567">
  <g id="Grupo_99767" data-name="Grupo 99767" transform="translate(-227.999 -9601)">
    <g id="Grupo_94608" data-name="Grupo 94608" transform="translate(-596.1 10248.493)">
      <g id="Grupo_94829" data-name="Grupo 94829" transform="translate(824.099 -647.493)">
        <g id="Grupo_94794" data-name="Grupo 94794" transform="translate(95.417 5.431)">
          <path id="Trazado_151642" data-name="Trazado 151642" d="M900.135-627.386l8.031,7.729.108-.07,11.694-7.644s-6.086,2.091-6.918,1.876c-.784-.2-9.394-2.983-11.406-2.7a.815.815,0,0,0-.292.088Z" transform="translate(-900.135 646.975)" fill="#d0adfe"/>
          <path id="Trazado_151643" data-name="Trazado 151643" d="M907.156-615.519c.315-.074,1.25-.314,2.521-.665,3.657-1.009,10.1-2.935,12.63-4.462,2.27-1.37,14.261-8.646,22.52-13.752a15.484,15.484,0,0,0-9.405-1.512c-9.644,5.907-22.242,13.658-23.781,14.784-2.53,1.852-5.985,4.1-5.985,4.1a2.489,2.489,0,0,0,.055.247C905.838-616.3,906.221-615.3,907.156-615.519Z" transform="translate(-898.728 644.969)" fill="#fefa3e"/>
          <path id="Trazado_151644" data-name="Trazado 151644" d="M907.156-613.714c.315-.074,1.25-.314,2.521-.665,3.657-1.009,10.1-2.935,12.63-4.462,2.27-1.37,14.261-8.646,22.52-13.752,4.149-2.565,7.355-4.583,7.916-5.032,1.679-1.341,4.9-4.677,4.081-5.281s-2.38.049-2.974-.031l-.025,0c-.139-.019-.368-.05-.684-.064a11.774,11.774,0,0,0-6.505,2.048s-4.992,3.042-11.214,6.852c-9.644,5.907-22.242,13.658-23.781,14.784-2.53,1.852-5.985,4.1-5.985,4.1a2.492,2.492,0,0,0,.055.247C905.838-614.495,906.221-613.495,907.156-613.714Z" transform="translate(-898.728 643.165)" fill="#dcc2ff"/>
          <path id="Trazado_151645" data-name="Trazado 151645" d="M907.145-619.026c.315-.074,1.25-.314,2.521-.665a3.748,3.748,0,0,1,.8-2.634l-4.771,2.037C905.827-619.806,906.21-618.806,907.145-619.026Z" transform="translate(-898.717 648.477)" fill="#d0adfe"/>
          <g id="Grupo_94792" data-name="Grupo 94792" transform="translate(18.398 0.159)">
            <g id="Grupo_94790" data-name="Grupo 94790" transform="translate(15.426)">
              <g id="Grupo_94787" data-name="Grupo 94787" transform="translate(5.203 4.21)">
                <path id="Trazado_151646" data-name="Trazado 151646" d="M932.392-635.912a.158.158,0,0,1,.217.052l.088.143a.157.157,0,0,1-.052.217.157.157,0,0,1-.217-.052l-.088-.143A.157.157,0,0,1,932.392-635.912Z" transform="translate(-930.959 640.638)" fill="#a065fd"/>
                <path id="Trazado_151647" data-name="Trazado 151647" d="M931.309-635.245a.16.16,0,0,1,.218.051l.088.143a.16.16,0,0,1-.052.218.16.16,0,0,1-.218-.053l-.088-.142A.16.16,0,0,1,931.309-635.245Z" transform="translate(-931.234 640.809)" fill="#a065fd"/>
                <path id="Trazado_151648" data-name="Trazado 151648" d="M932.945-636.253a.159.159,0,0,1,.218.051l.088.142a.16.16,0,0,1-.052.218.16.16,0,0,1-.218-.052l-.088-.143A.158.158,0,0,1,932.945-636.253Z" transform="translate(-930.818 640.551)" fill="#a065fd"/>
                <path id="Trazado_151649" data-name="Trazado 151649" d="M933.5-636.6a.158.158,0,0,1,.217.051l.088.143a.159.159,0,0,1-.052.218.159.159,0,0,1-.217-.053l-.088-.142A.159.159,0,0,1,933.5-636.6Z" transform="translate(-930.676 640.464)" fill="#a065fd"/>
                <path id="Trazado_151650" data-name="Trazado 151650" d="M934.052-636.936a.16.16,0,0,1,.218.051l.088.143a.158.158,0,0,1-.051.217.159.159,0,0,1-.218-.052l-.088-.143A.158.158,0,0,1,934.052-636.936Z" transform="translate(-930.535 640.377)" fill="#a065fd"/>
                <path id="Trazado_151651" data-name="Trazado 151651" d="M934.606-637.277h0a.157.157,0,0,1,.217.051l.088.142a.159.159,0,0,1-.051.218h0a.158.158,0,0,1-.217-.051l-.088-.143A.157.157,0,0,1,934.606-637.277Z" transform="translate(-930.394 640.29)" fill="#a065fd"/>
                <path id="Trazado_151652" data-name="Trazado 151652" d="M935.159-637.619a.16.16,0,0,1,.218.053l.088.142a.16.16,0,0,1-.051.218.159.159,0,0,1-.218-.053l-.088-.142A.16.16,0,0,1,935.159-637.619Z" transform="translate(-930.253 640.203)" fill="#a065fd"/>
                <path id="Trazado_151653" data-name="Trazado 151653" d="M935.713-637.96a.158.158,0,0,1,.217.051l.088.143a.157.157,0,0,1-.051.217.157.157,0,0,1-.217-.051l-.088-.142A.159.159,0,0,1,935.713-637.96Z" transform="translate(-930.112 640.116)" fill="#a065fd"/>
                <path id="Trazado_151654" data-name="Trazado 151654" d="M936.266-638.3a.159.159,0,0,1,.218.052l.088.143a.158.158,0,0,1-.052.217.16.16,0,0,1-.218-.051l-.088-.143A.158.158,0,0,1,936.266-638.3Z" transform="translate(-929.971 640.029)" fill="#a065fd"/>
                <path id="Trazado_151655" data-name="Trazado 151655" d="M936.82-638.643a.159.159,0,0,1,.217.053l.088.142a.159.159,0,0,1-.051.218.158.158,0,0,1-.217-.051l-.088-.143A.159.159,0,0,1,936.82-638.643Z" transform="translate(-929.83 639.942)" fill="#a065fd"/>
                <path id="Trazado_151656" data-name="Trazado 151656" d="M937.362-638.977a.16.16,0,0,1,.218.052l.088.143a.158.158,0,0,1-.052.217.159.159,0,0,1-.218-.052l-.088-.143A.158.158,0,0,1,937.362-638.977Z" transform="translate(-929.692 639.857)" fill="#a065fd"/>
                <path id="Trazado_151657" data-name="Trazado 151657" d="M937.916-639.318a.157.157,0,0,1,.217.052l.088.142a.159.159,0,0,1-.051.218.158.158,0,0,1-.217-.052l-.088-.143A.157.157,0,0,1,937.916-639.318Z" transform="translate(-929.551 639.77)" fill="#a065fd"/>
                <path id="Trazado_151658" data-name="Trazado 151658" d="M938.469-639.66a.16.16,0,0,1,.218.053l.088.142a.16.16,0,0,1-.052.218.161.161,0,0,1-.218-.051l-.088-.143A.16.16,0,0,1,938.469-639.66Z" transform="translate(-929.41 639.683)" fill="#a065fd"/>
              </g>
              <path id="Trazado_151659" data-name="Trazado 151659" d="M942.95-642.454l.708-.584c.316.014.545.045.684.064l-1.084.892a.232.232,0,0,1-.068.039.243.243,0,0,1-.273-.072A.242.242,0,0,1,942.95-642.454Z" transform="translate(-923.068 643.038)" fill="#a065fd"/>
              <g id="Grupo_94788" data-name="Grupo 94788" transform="translate(1.38 11.387)">
                <path id="Trazado_151660" data-name="Trazado 151660" d="M929.157-632.355a.276.276,0,0,0,.048-.024l.211-.13a.311.311,0,0,0,.139-.192.313.313,0,0,0-.038-.235l-.543-.88a.31.31,0,0,0-.427-.1l-.211.131a.31.31,0,0,0-.139.192.313.313,0,0,0,.037.235l.544.88A.31.31,0,0,0,929.157-632.355Zm.034-.045a.285.285,0,0,1-.393-.093l-.542-.88a.283.283,0,0,1-.034-.216.282.282,0,0,1,.127-.177l.212-.13a.284.284,0,0,1,.392.093l.543.88a.283.283,0,0,1,.034.216.283.283,0,0,1-.127.177Z" transform="translate(-928.188 633.964)" fill="#a065fd"/>
              </g>
              <g id="Grupo_94789" data-name="Grupo 94789" transform="translate(0 12.238)">
                <path id="Trazado_151661" data-name="Trazado 151661" d="M928.057-631.677a.233.233,0,0,0,.048-.024l.211-.13a.31.31,0,0,0,.1-.427l-.542-.88a.31.31,0,0,0-.427-.1l-.212.13a.311.311,0,0,0-.1.427l.543.88A.31.31,0,0,0,928.057-631.677Zm.035-.045a.285.285,0,0,1-.393-.093l-.543-.88a.287.287,0,0,1,.094-.393l.211-.13a.285.285,0,0,1,.393.093l.542.88a.285.285,0,0,1-.093.393Z" transform="translate(-927.089 633.286)" fill="#a065fd"/>
              </g>
            </g>
            <g id="Grupo_94791" data-name="Grupo 94791" transform="translate(0 10.57)">
              <path id="Trazado_151662" data-name="Trazado 151662" d="M914.871-625.109a.158.158,0,0,1,.217.051l.088.143a.159.159,0,0,1-.051.218.159.159,0,0,1-.217-.053l-.088-.142A.159.159,0,0,1,914.871-625.109Z" transform="translate(-914.796 637.032)" fill="#a065fd"/>
              <path id="Trazado_151663" data-name="Trazado 151663" d="M915.424-625.45a.16.16,0,0,1,.218.051l.088.143a.158.158,0,0,1-.052.217.159.159,0,0,1-.218-.052l-.088-.142A.159.159,0,0,1,915.424-625.45Z" transform="translate(-914.655 636.945)" fill="#a065fd"/>
              <path id="Trazado_151664" data-name="Trazado 151664" d="M915.978-625.791a.157.157,0,0,1,.217.051l.088.143a.158.158,0,0,1-.052.217.158.158,0,0,1-.217-.051l-.088-.143A.157.157,0,0,1,915.978-625.791Z" transform="translate(-914.514 636.858)" fill="#a065fd"/>
              <path id="Trazado_151665" data-name="Trazado 151665" d="M916.531-626.133a.16.16,0,0,1,.218.053l.088.142a.16.16,0,0,1-.052.218.16.16,0,0,1-.218-.051l-.088-.143A.16.16,0,0,1,916.531-626.133Z" transform="translate(-914.373 636.771)" fill="#a065fd"/>
              <path id="Trazado_151666" data-name="Trazado 151666" d="M917.085-626.474a.158.158,0,0,1,.217.051l.088.143a.157.157,0,0,1-.052.217.157.157,0,0,1-.217-.052l-.088-.142A.159.159,0,0,1,917.085-626.474Z" transform="translate(-914.232 636.684)" fill="#a065fd"/>
              <path id="Trazado_151667" data-name="Trazado 151667" d="M917.638-626.815a.159.159,0,0,1,.218.051l.088.143a.158.158,0,0,1-.051.217.16.16,0,0,1-.218-.052l-.088-.143A.158.158,0,0,1,917.638-626.815Z" transform="translate(-914.091 636.597)" fill="#a065fd"/>
              <path id="Trazado_151668" data-name="Trazado 151668" d="M918.192-627.156a.157.157,0,0,1,.217.051l.088.142a.159.159,0,0,1-.051.218.158.158,0,0,1-.217-.052l-.088-.143A.157.157,0,0,1,918.192-627.156Z" transform="translate(-913.95 636.51)" fill="#a065fd"/>
              <path id="Trazado_151669" data-name="Trazado 151669" d="M918.746-627.5a.158.158,0,0,1,.217.052l.088.143a.158.158,0,0,1-.051.217.159.159,0,0,1-.218-.052l-.088-.142A.159.159,0,0,1,918.746-627.5Z" transform="translate(-913.809 636.423)" fill="#a065fd"/>
              <path id="Trazado_151670" data-name="Trazado 151670" d="M919.3-627.839a.159.159,0,0,1,.218.052l.088.143a.159.159,0,0,1-.053.217.157.157,0,0,1-.217-.051l-.088-.143A.158.158,0,0,1,919.3-627.839Z" transform="translate(-913.667 636.336)" fill="#a065fd"/>
              <path id="Trazado_151671" data-name="Trazado 151671" d="M925.821-631.861a.16.16,0,0,1,.218.052l.088.143a.158.158,0,0,1-.052.217.159.159,0,0,1-.218-.051l-.088-.142A.16.16,0,0,1,925.821-631.861Z" transform="translate(-912.005 635.311)" fill="#a065fd"/>
              <path id="Trazado_151672" data-name="Trazado 151672" d="M926.375-632.2a.157.157,0,0,1,.217.051l.088.143a.157.157,0,0,1-.052.217h0a.157.157,0,0,1-.217-.051l-.088-.143A.157.157,0,0,1,926.375-632.2Z" transform="translate(-911.864 635.224)" fill="#a065fd"/>
              <path id="Trazado_151673" data-name="Trazado 151673" d="M926.928-632.543a.159.159,0,0,1,.218.051l.088.142a.16.16,0,0,1-.051.218.16.16,0,0,1-.218-.052l-.088-.143A.158.158,0,0,1,926.928-632.543Z" transform="translate(-911.723 635.137)" fill="#a065fd"/>
              <path id="Trazado_151674" data-name="Trazado 151674" d="M927.482-632.885a.158.158,0,0,1,.217.052l.089.143a.158.158,0,0,1-.053.217.157.157,0,0,1-.217-.051l-.088-.142A.159.159,0,0,1,927.482-632.885Z" transform="translate(-911.582 635.05)" fill="#a065fd"/>
              <path id="Trazado_151675" data-name="Trazado 151675" d="M928.036-633.226a.158.158,0,0,1,.217.051l.088.143a.158.158,0,0,1-.051.217.159.159,0,0,1-.218-.051l-.088-.143A.159.159,0,0,1,928.036-633.226Z" transform="translate(-911.441 634.963)" fill="#a065fd"/>
              <path id="Trazado_151676" data-name="Trazado 151676" d="M928.589-633.567a.159.159,0,0,1,.219.051l.088.142a.16.16,0,0,1-.053.218.158.158,0,0,1-.217-.051l-.088-.143A.158.158,0,0,1,928.589-633.567Z" transform="translate(-911.299 634.876)" fill="#a065fd"/>
              <path id="Trazado_151677" data-name="Trazado 151677" d="M929.143-633.909a.157.157,0,0,1,.217.053l.088.142a.16.16,0,0,1-.051.218.16.16,0,0,1-.218-.053l-.088-.142A.16.16,0,0,1,929.143-633.909Z" transform="translate(-911.158 634.789)" fill="#a065fd"/>
              <path id="Trazado_151678" data-name="Trazado 151678" d="M929.7-634.25a.16.16,0,0,1,.218.052l.088.143a.157.157,0,0,1-.053.217.157.157,0,0,1-.217-.051l-.088-.142A.16.16,0,0,1,929.7-634.25Z" transform="translate(-911.017 634.702)" fill="#a065fd"/>
              <path id="Trazado_151679" data-name="Trazado 151679" d="M930.25-634.591a.157.157,0,0,1,.217.052l.088.142a.158.158,0,0,1-.052.218.158.158,0,0,1-.217-.051l-.089-.143A.159.159,0,0,1,930.25-634.591Z" transform="translate(-910.876 634.615)" fill="#a065fd"/>
              <path id="Trazado_151680" data-name="Trazado 151680" d="M920.926-628.842a.159.159,0,0,1,.218.052l.088.142a.16.16,0,0,1-.051.218.159.159,0,0,1-.218-.051l-.088-.143A.158.158,0,0,1,920.926-628.842Z" transform="translate(-913.253 636.08)" fill="#a065fd"/>
              <path id="Trazado_151681" data-name="Trazado 151681" d="M921.48-629.184a.158.158,0,0,1,.217.051l.088.143a.159.159,0,0,1-.051.218.158.158,0,0,1-.217-.053l-.088-.142A.159.159,0,0,1,921.48-629.184Z" transform="translate(-913.112 635.993)" fill="#a065fd"/>
              <path id="Trazado_151682" data-name="Trazado 151682" d="M922.033-629.525a.16.16,0,0,1,.218.051l.088.143a.158.158,0,0,1-.052.217.159.159,0,0,1-.218-.051l-.088-.143A.158.158,0,0,1,922.033-629.525Z" transform="translate(-912.97 635.906)" fill="#a065fd"/>
              <path id="Trazado_151683" data-name="Trazado 151683" d="M922.587-629.866a.157.157,0,0,1,.217.051l.088.142a.159.159,0,0,1-.052.218.158.158,0,0,1-.217-.051l-.088-.143A.157.157,0,0,1,922.587-629.866Z" transform="translate(-912.829 635.819)" fill="#a065fd"/>
              <path id="Trazado_151684" data-name="Trazado 151684" d="M923.14-630.208a.16.16,0,0,1,.218.053l.088.142a.16.16,0,0,1-.052.218.159.159,0,0,1-.218-.053l-.088-.142A.16.16,0,0,1,923.14-630.208Z" transform="translate(-912.688 635.732)" fill="#a065fd"/>
              <path id="Trazado_151685" data-name="Trazado 151685" d="M923.694-630.549a.158.158,0,0,1,.217.051l.088.143a.157.157,0,0,1-.052.217.157.157,0,0,1-.217-.052l-.088-.142A.159.159,0,0,1,923.694-630.549Z" transform="translate(-912.547 635.645)" fill="#a065fd"/>
              <path id="Trazado_151686" data-name="Trazado 151686" d="M924.247-630.89a.159.159,0,0,1,.218.051l.088.143a.158.158,0,0,1-.051.217.16.16,0,0,1-.218-.051l-.088-.143A.158.158,0,0,1,924.247-630.89Z" transform="translate(-912.406 635.558)" fill="#a065fd"/>
              <path id="Trazado_151687" data-name="Trazado 151687" d="M924.8-631.231a.157.157,0,0,1,.217.051l.088.142a.159.159,0,0,1-.052.218.158.158,0,0,1-.217-.051l-.088-.143A.157.157,0,0,1,924.8-631.231Z" transform="translate(-912.265 635.471)" fill="#a065fd"/>
              <path id="Trazado_151688" data-name="Trazado 151688" d="M925.354-631.573a.16.16,0,0,1,.218.052l.088.143a.158.158,0,0,1-.051.217.159.159,0,0,1-.218-.051l-.088-.142A.16.16,0,0,1,925.354-631.573Z" transform="translate(-912.124 635.384)" fill="#a065fd"/>
            </g>
          </g>
          <path id="Trazado_151689" data-name="Trazado 151689" d="M929.153-629.305a.566.566,0,0,1-.6-.827,3.206,3.206,0,0,1,1.1-1.217c1.052-.634,1.4,1.306,1.062,1.532A6.154,6.154,0,0,1,929.153-629.305Z" transform="translate(-892.911 646.144)" fill="#d0adfe"/>
          <path id="Trazado_151690" data-name="Trazado 151690" d="M929.065-630.916l1.349,2.186a11.84,11.84,0,0,0,3.052-1.314,9.439,9.439,0,0,0,2.059-1.554,3.264,3.264,0,0,0,.306-.356l-1.414-2.292a1.3,1.3,0,0,0-.481.07c-1.549.469-4.695,3.048-4.695,3.048Z" transform="translate(-892.761 645.437)" fill="#d0adfe"/>
          <path id="Trazado_151691" data-name="Trazado 151691" d="M932.947-634.175l1.589,2.578a3.261,3.261,0,0,0,.306-.356l-1.414-2.292A1.3,1.3,0,0,0,932.947-634.175Z" transform="translate(-891.772 645.437)" fill="#7f56bd"/>
          <g id="Grupo_94793" data-name="Grupo 94793" transform="translate(20.736 13.559)">
            <path id="Trazado_151692" data-name="Trazado 151692" d="M916.659-629.32s2.83,1.871,3.319,2.122a2.7,2.7,0,0,0,1.269.166h0l4.789-.9s5.066-3.087,6.156-3.786h0c.1-.064.164-.108.191-.128.319-.24.423-.449.311-.512s-8.472,3.446-9.4,3.84l-.026.011c-.9.38-1.087.194-1.087.194l-4.668-1.188a.457.457,0,0,0-.25-.025A2.2,2.2,0,0,0,916.659-629.32Z" transform="translate(-916.659 632.36)" fill="#d0adfe"/>
            <path id="Trazado_151693" data-name="Trazado 151693" d="M917.148-629.527c1.277.366,4.809,1.374,5.116,1.407.33.036,7.937-2.884,9.808-3.6h0c.1-.064.164-.108.191-.128.319-.24.423-.449.311-.512s-8.472,3.446-9.4,3.84-1.113.206-1.113.206L917.4-629.5A.457.457,0,0,0,917.148-629.527Z" transform="translate(-916.534 632.36)" fill="#7f56bd"/>
            <path id="Trazado_151694" data-name="Trazado 151694" d="M916.659-629.894s2.83,1.871,3.319,2.122a2.7,2.7,0,0,0,1.269.166h0a10.37,10.37,0,0,0,2.025-1.474c-.9.38-1.087.194-1.087.194l-4.668-1.188a.458.458,0,0,0-.25-.025A2.2,2.2,0,0,0,916.659-629.894Z" transform="translate(-916.659 632.934)" fill="#7f56bd"/>
          </g>
          <path id="Trazado_151695" data-name="Trazado 151695" d="M907.967-619.727l11.694-7.644s-6.086,2.091-6.918,1.876c-.784-.2-9.394-2.983-11.406-2.7,2.318.91,7.755,3.164,8.16,4.442C909.885-622.533,908.626-620.617,907.967-619.727Z" transform="translate(-899.828 646.975)" fill="#d0adfe"/>
          <path id="Trazado_151696" data-name="Trazado 151696" d="M910.867-622.634a21.839,21.839,0,0,0-6.981,2.925l3.1-.106,3.943-2.432S911.189-622.521,910.867-622.634Z" transform="translate(-899.179 648.398)" fill="#7f56bd"/>
        </g>
        <g id="Grupo_94797" data-name="Grupo 94797" transform="translate(46.566 88.865)">
          <g id="Grupo_94795" data-name="Grupo 94795" transform="translate(1.082 7.568)">
            <path id="Trazado_151697" data-name="Trazado 151697" d="M883.923-559.825a30.107,30.107,0,0,0,20.6-8.174l-2.6-2.5,1.3,1.25-1.3-1.254a24.039,24.039,0,0,1-5.313,3.806,26.315,26.315,0,0,1-14.269,3.219c-12.051-.7-17.434-7.1-17.487-7.168l-2.79,2.289c.257.314,6.456,7.686,20.066,8.481Q883.046-559.825,883.923-559.825Z" transform="translate(-862.069 570.647)" fill="#b2b2b2"/>
          </g>
          <g id="Grupo_94796" data-name="Grupo 94796">
            <path id="Trazado_151698" data-name="Trazado 151698" d="M861.207-575.668v54.352a1.063,1.063,0,0,0,1.1,1.009h2.056a1.059,1.059,0,0,0,1.074-1.008v-54.352a1.06,1.06,0,0,0-1.074-1.009h-2.056A1.063,1.063,0,0,0,861.207-575.668Z" transform="translate(-861.207 576.678)" fill="#fef2ad"/>
            <path id="Trazado_151699" data-name="Trazado 151699" d="M862.87-575.668v54.352a1.058,1.058,0,0,0,1.073,1.008,1.059,1.059,0,0,0,1.074-1.008v-54.352a1.06,1.06,0,0,0-1.074-1.009A1.059,1.059,0,0,0,862.87-575.668Z" transform="translate(-860.783 576.678)" fill="#fde365"/>
          </g>
        </g>
        <g id="Grupo_94800" data-name="Grupo 94800" transform="translate(87.364 88.865)">
          <g id="Grupo_94798" data-name="Grupo 94798" transform="translate(1.082 7.568)">
            <path id="Trazado_151700" data-name="Trazado 151700" d="M916.434-559.825a30.107,30.107,0,0,0,20.6-8.174l-2.6-2.5,1.3,1.25-1.3-1.254a24,24,0,0,1-5.312,3.806,26.316,26.316,0,0,1-14.271,3.219c-12.049-.7-17.433-7.1-17.486-7.168l-2.79,2.289c.257.314,6.456,7.686,20.066,8.481Q915.555-559.825,916.434-559.825Z" transform="translate(-894.58 570.647)" fill="#b2b2b2"/>
          </g>
          <g id="Grupo_94799" data-name="Grupo 94799">
            <path id="Trazado_151701" data-name="Trazado 151701" d="M893.718-575.668v54.352a1.063,1.063,0,0,0,1.1,1.009h2.055a1.059,1.059,0,0,0,1.074-1.008v-54.352a1.06,1.06,0,0,0-1.074-1.009h-2.055A1.063,1.063,0,0,0,893.718-575.668Z" transform="translate(-893.718 576.678)" fill="#fef2ad"/>
            <path id="Trazado_151702" data-name="Trazado 151702" d="M895.38-575.668v54.352a1.06,1.06,0,0,0,1.074,1.008,1.059,1.059,0,0,0,1.074-1.008v-54.352a1.06,1.06,0,0,0-1.074-1.009A1.061,1.061,0,0,0,895.38-575.668Z" transform="translate(-893.294 576.678)" fill="#fde365"/>
          </g>
        </g>
        <path id="Trazado_151703" data-name="Trazado 151703" d="M982.608-647.416h55.3v144.424h-86.8v-112.93A31.493,31.493,0,0,1,982.608-647.416Z" transform="translate(-791.724 647.513)" fill="#fff6c2"/>
        <path id="Trazado_151704" data-name="Trazado 151704" d="M1012.35-647.493v144.427h75.817V-616c0-17.394-12.313-31.491-27.507-31.491Z" transform="translate(-776.116 647.493)" fill="#fff6c2"/>
        <path id="Rectángulo_24311" data-name="Rectángulo 24311" d="M0,0H57.9a0,0,0,0,1,0,0V96.24A35.024,35.024,0,0,1,22.88,131.264H0a0,0,0,0,1,0,0V0A0,0,0,0,1,0,0Z" transform="translate(246.189 144.52) rotate(180)" fill="#fef2ad"/>
        <path id="Trazado_151705" data-name="Trazado 151705" d="M1032.343-636.929a5.1,5.1,0,0,1,5.1,5.1v126.165h-57.9V-636.929Z" transform="translate(-784.479 650.186)" fill="#fef2ad"/>
        <path id="Trazado_151706" data-name="Trazado 151706" d="M1045.062-581.535v61.714h34.767V-571.3c-4.05-2.645-15.508-10.1-16.588-10.458Z" transform="translate(-767.778 664.248)" fill="#fffb80"/>
        <path id="Trazado_151707" data-name="Trazado 151707" d="M978.927-636.951h5V-505.66h-9.786v-126.5A4.786,4.786,0,0,1,978.927-636.951Z" transform="translate(-785.855 650.18)" fill="#fde365"/>
        <g id="Grupo_94802" data-name="Grupo 94802" transform="translate(193.516 37.056)">
          <path id="Trazado_151708" data-name="Trazado 151708" d="M997-616.8a5.72,5.72,0,0,1,6.394-.321c3.451,2.069.66,10.221-1.463,10.677s-7.553-7.641-7.553-7.641S994.529-614.8,997-616.8Z" transform="translate(-974.214 617.963)" fill="#6310cf"/>
          <path id="Trazado_151709" data-name="Trazado 151709" d="M983.288-582.9a5.852,5.852,0,0,0-2.1-.33,9.826,9.826,0,0,0-2.856,1.345.771.771,0,0,0,0,.365h4.958s1.108-.214,1.3-.868S983.288-582.9,983.288-582.9Z" transform="translate(-978.309 626.811)" fill="#fcc9b6"/>
          <path id="Trazado_151710" data-name="Trazado 151710" d="M999.282-531.249a.951.951,0,0,1-.62.823h-.006a6.307,6.307,0,0,1-2.964.063c-.153-.02-.291-.036-.414-.048-.033,0-.065-.006-.1-.008l-.074-.006c-1.192-.078-1.1.289-3.376.277-2.6-.014-3.472-.887-3.591-1.26-.1-.316,1.036-.561,2.306-.844.062-.013.123-.028.186-.04l.508-.115c1.515-.355,3.014-.8,3.51-2.26.527-1.542.4-6.123.4-6.123h4.6s-1.206,5.06-1.08,6.518c.069.778.442,1,.585,1.674.01.048.02.094.028.142A4.532,4.532,0,0,1,999.282-531.249Z" transform="translate(-975.805 637.634)" fill="#fcc9b6"/>
          <g id="Grupo_94801" data-name="Grupo 94801" transform="translate(16.623 40.354)">
            <path id="Trazado_151711" data-name="Trazado 151711" d="M1003.759-569.273c-.388,2.178-.941,4.429-1.423,6.769a35.062,35.062,0,0,0-.758,12.066,14.87,14.87,0,0,1,.127,1.823c.117,7.608-3.284,21.4-3.284,21.4a6,6,0,0,1-2.471.322,7.875,7.875,0,0,1-2.019-.553s-.321-8.549-.341-20.047c-.014-8.334-1.65-19.307-1.98-25.754a82.452,82.452,0,0,1,.233-9.1s6.778-5.449,9.212-2.66C1003.459-582.257,1005.209-577.42,1003.759-569.273Z" transform="translate(-991.556 585.806)" fill="#ddc855"/>
          </g>
          <path id="Trazado_151712" data-name="Trazado 151712" d="M1000.775-553.242a14.869,14.869,0,0,1,.127,1.823c-5.075-7.354-6.2-23.387-6.2-23.387l5.575,2.7s.611,3.008,1.254,6.794A35.062,35.062,0,0,0,1000.775-553.242Z" transform="translate(-974.13 628.964)" fill="#fdfb68"/>
          <path id="Trazado_151713" data-name="Trazado 151713" d="M1010.967-531.191a.951.951,0,0,1-.62.823h-.006a6.305,6.305,0,0,1-2.964.063c-.153-.02-.291-.036-.414-.048-.033,0-.065-.006-.1-.008l-.074-.006c-1.192-.078-1.1.289-3.376.277-2.6-.014-3.472-.887-3.591-1.26-.1-.316,1.036-.561,2.306-.844.062-.013.123-.028.186-.04l.508-.115c1.515-.355,3.014-.8,3.51-2.26.527-1.542-.225-6.052-.225-6.052l4.258-.355s-.265,5.137-.138,6.6a12.743,12.743,0,0,0,.607,1.881c.01.048.02.094.029.142A4.577,4.577,0,0,1,1010.967-531.191Z" transform="translate(-972.827 637.576)" fill="#fcc9b6"/>
          <path id="Trazado_151714" data-name="Trazado 151714" d="M1011.9-527.971a10.392,10.392,0,0,1-1.882.675,9.025,9.025,0,0,1-2.426-.151,111.063,111.063,0,0,0-2.314-14.33,134.006,134.006,0,0,0-6.928-21.954c-.673-1.59-3.446-9.113-3.918-11.012-1.423-5.737.006-5.12.006-5.12l12.443-1.459s1.532.788,2.239,8.888c.211,2.427.237,12.9.556,14.888a22.209,22.209,0,0,0,1.068,4.461C1013.055-547.41,1011.9-527.971,1011.9-527.971Z" transform="translate(-974.361 627.303)" fill="#ddc855"/>
          <path id="Trazado_151715" data-name="Trazado 151715" d="M1010.967-532.913a.951.951,0,0,1-.62.823h-.006a7.317,7.317,0,0,1-2.96.057c-.154-.019-.292-.033-.418-.042-.033,0-.065-.006-.1-.008l-.074-.006c-1.192-.078-1.1.289-3.376.277-2.6-.014-3.472-.887-3.591-1.26-.1-.316,1.036-.561,2.306-.844a7.66,7.66,0,0,0,3.922.7c1.747-.168,3.531-.868,4.785-1.043.01.048.02.094.029.142A4.576,4.576,0,0,1,1010.967-532.913Z" transform="translate(-972.827 639.298)" fill="#955bfd"/>
          <path id="Trazado_151716" data-name="Trazado 151716" d="M999.282-532.913a.95.95,0,0,1-.62.823h-.006a7.323,7.323,0,0,1-2.962.057c-.153-.019-.291-.033-.417-.042-.033,0-.065-.006-.1-.008l-.074-.006c-1.192-.078-1.1.289-3.376.277-2.6-.014-3.472-.887-3.591-1.26-.1-.316,1.036-.561,2.306-.844a7.661,7.661,0,0,0,3.922.7c1.747-.168,3.531-.868,4.785-1.043.01.048.02.094.028.142A4.531,4.531,0,0,1,999.282-532.913Z" transform="translate(-975.805 639.298)" fill="#955bfd"/>
          <path id="Trazado_151717" data-name="Trazado 151717" d="M995.562-602.768c.09,0,.671-.105,1.7-.168a7.721,7.721,0,0,0,.373-1.579,10.363,10.363,0,0,0,.038-2.3c-.025-.263-.051-.415-.051-.415l5.1-1.552c.06,1.348.137,2.4.216,3.226.24,2.419.523,2.865.61,2.946a41.48,41.48,0,0,1,4.244.86s-4.116,18.852-2.718,22.4a37.6,37.6,0,0,1,1.93,6.707l-15.165.188s.212-12.2-.487-16.513S995.562-602.768,995.562-602.768Z" transform="translate(-975.003 620.303)" fill="#fcc9b6"/>
          <path id="Trazado_151718" data-name="Trazado 151718" d="M996.345-604.515c3.854-.084,5.085-4.268,5.085-4.268l-5.1,1.552s.026.152.051.415A10.362,10.362,0,0,1,996.345-604.515Z" transform="translate(-973.716 620.303)" fill="#ffc8b0"/>
          <path id="Trazado_151719" data-name="Trazado 151719" d="M1006.9-582.961c.222,2.495,2.554,8.2,2.049,9.412a3.5,3.5,0,0,1-2.87,2.291,29.847,29.847,0,0,1-4.782.486c-4.569.227-9.464-.348-10.131-2.52-.32-1.042-.2-5.076-.028-6.937.35-3.854-.383-9.383-.49-12.96-.088-2.984,1.712-9.774,1.712-9.774a11.365,11.365,0,0,1,3.361-1.026s.268,3.527,2.109,3.831c3.182.526,5.747-2.39,6.5-3.564,0,0,3.656.922,4.728,2.146,1.015,1.158-.374,9.737-.684,10.56-.266.706-.518,1.4-.738,2.088A14.574,14.574,0,0,0,1006.9-582.961Z" transform="translate(-975.164 621.525)" fill="#fffeea"/>
          <path id="Trazado_151720" data-name="Trazado 151720" d="M1014.24-582.888a5.91,5.91,0,0,1,2.1-.326,9.812,9.812,0,0,1,2.856,1.334.753.753,0,0,1,0,.361h-4.958s-1.108-.213-1.3-.861S1014.24-582.888,1014.24-582.888Z" transform="translate(-969.486 626.814)" fill="#fcc9b6"/>
          <path id="Trazado_151721" data-name="Trazado 151721" d="M995.486-605.224s6.1,1.225,6.806-2.586,1.967-6.222-1.9-7.164-4.894.37-5.439,1.585S993.916-605.641,995.486-605.224Z" transform="translate(-974.201 618.643)" fill="#fcc9b6"/>
          <path id="Trazado_151722" data-name="Trazado 151722" d="M997.232-608.668s-.163.453-1.313.247c0,0-.964-.172-.876-.68A3.15,3.15,0,0,1,997.232-608.668Z" transform="translate(-974.045 620.211)" fill="#fff"/>
          <path id="Trazado_151723" data-name="Trazado 151723" d="M995.771-582.711a37.19,37.19,0,0,1,3.081-9.418l3.171-6.6c-.131-1.064,1.085-3.992,1.141-5.064,0,0,3.607.126,5.279,1.486,1.891,1.54,3.157,6.626,5.466,15.534,0,0,3.817,6.362,5.032,8.886a2.145,2.145,0,0,1-.683.6,3.561,3.561,0,0,1-1,.353s-6.887-6.721-7.339-7.784c-.2-.459-1.567-2.424-3.027-5.222l0,.019c-.27,2.2-.538,4.107-.742,4.943-.637,2.619,3.965,14.706,3.753,15.436-.077.261-1.674.386-3.76.389-3.747,0-9.069-.393-9.978-1.119C995.411-570.875,994.845-577.071,995.771-582.711Z" transform="translate(-973.981 621.575)" fill="#ddc855"/>
          <path id="Trazado_151724" data-name="Trazado 151724" d="M1002.2-603.815l-4.071,11.692,4.07-3.849-.307-1.2a2.842,2.842,0,0,0,1.315-.162c.38-.245,1.264-6.223,1.264-6.223a5.459,5.459,0,0,0-1.132-.236A10.21,10.21,0,0,0,1002.2-603.815Z" transform="translate(-973.257 621.568)" fill="#bdac56"/>
          <path id="Trazado_151725" data-name="Trazado 151725" d="M987.146-586.819c3.15-7.3,3.574-14.119,5.465-15.671,1.673-1.373,5.279-1.5,5.279-1.5v0l.008,0-.006.031a24.734,24.734,0,0,0-.732,6.341,37.2,37.2,0,0,0,.753,5.538s2.89,22.171,2.46,22.209c-3.27.282-7.858-3.019-7.858-3.019.991-2.668.635-15.258.635-15.261l-.044.078c-1.014,1.777-1.826,2.983-1.973,3.331-.453,1.073-7.34,7.854-7.34,7.854a3.6,3.6,0,0,1-1-.356c-.045-.026-.087-.053-.128-.079a2.1,2.1,0,0,1-.555-.531C983.328-580.4,987.146-586.819,987.146-586.819Z" transform="translate(-977.34 621.525)" fill="#ddc855"/>
          <path id="Trazado_151726" data-name="Trazado 151726" d="M995.211-603.99s-.857,9.242.023,11.91c0,0-2.518-3.989-2.047-4.815l.912-.6s-1.762-.228-1.432-1.241,1.692-5.184,1.692-5.184a1.785,1.785,0,0,1,.388-.068Z" transform="translate(-974.66 621.525)" fill="#bdac56"/>
          <path id="Trazado_151727" data-name="Trazado 151727" d="M1001.3-585.092a41.843,41.843,0,0,0,3.314,13.122c2.086,0,3.683-.128,3.76-.389.212-.73-4.391-12.817-3.753-15.436.2-.836.472-2.739.742-4.943C1003.951-591.123,1001.3-587.736,1001.3-585.092Z" transform="translate(-972.449 624.393)" fill="#bdac56"/>
          <path id="Trazado_151728" data-name="Trazado 151728" d="M982.555-579.4c.042.026.083.053.128.079a3.6,3.6,0,0,0,1,.356s6.887-6.781,7.34-7.854c.147-.348.959-1.554,1.973-3.331.166-1.318.567-4.78-.123-5.616-.84-1.021-2.881,7.563-3.541,8.522C988.794-586.463,983.983-581.669,982.555-579.4Z" transform="translate(-977.227 623.6)" fill="#bdac56"/>
          <path id="Trazado_151729" data-name="Trazado 151729" d="M994.98-615.072c3.01-2.967,4.746-2.866,6.043-1.951a16.846,16.846,0,0,1,2.481,3.214c.862,1.207-1.1,7.037-1.1,7.037a6.692,6.692,0,0,0,.063-1.557c-.183.862-.374,1.454-.374,1.454a20.783,20.783,0,0,0-3.229-4.979,9.993,9.993,0,0,1-1.318-1.759c-1.916.709-2.969,3.79-2.969,3.79C993.879-611.283,993.682-613.795,994.98-615.072Z" transform="translate(-974.303 618.058)" fill="#6310cf"/>
        </g>
        <g id="Grupo_94805" data-name="Grupo 94805" transform="translate(128.188 88.424)">
          <g id="Grupo_94803" data-name="Grupo 94803" transform="translate(1.082 7.568)">
            <path id="Trazado_151730" data-name="Trazado 151730" d="M948.966-560.176a30.107,30.107,0,0,0,20.6-8.174l-2.6-2.5,1.3,1.25-1.3-1.252a24.081,24.081,0,0,1-5.312,3.8,26.315,26.315,0,0,1-14.271,3.219c-12.049-.7-17.433-7.1-17.486-7.168l-2.79,2.289c.257.314,6.456,7.687,20.066,8.48C947.784-560.192,948.38-560.176,948.966-560.176Z" transform="translate(-927.112 570.998)" fill="#b2b2b2"/>
          </g>
          <g id="Grupo_94804" data-name="Grupo 94804">
            <path id="Trazado_151731" data-name="Trazado 151731" d="M958.816-576.019v54.352a1.064,1.064,0,0,0,1.106,1.009h2.024a1.064,1.064,0,0,0,1.105-1.009v-54.352a1.064,1.064,0,0,0-1.105-1.01h-2.024A1.065,1.065,0,0,0,958.816-576.019Z" transform="translate(-917.949 577.029)" fill="#fef2ad"/>
            <path id="Trazado_151732" data-name="Trazado 151732" d="M960.247-576.019v54.352a1.063,1.063,0,0,0,1.1,1.009h.23a1.064,1.064,0,0,0,1.106-1.009v-54.352a1.065,1.065,0,0,0-1.106-1.01h-.23A1.063,1.063,0,0,0,960.247-576.019Z" transform="translate(-917.585 577.029)" fill="#fde365"/>
            <path id="Trazado_151733" data-name="Trazado 151733" d="M926.25-576.019v54.352a1.063,1.063,0,0,0,1.1,1.009h2.056a1.06,1.06,0,0,0,1.074-1.009v-54.352a1.06,1.06,0,0,0-1.074-1.009h-2.056A1.063,1.063,0,0,0,926.25-576.019Z" transform="translate(-926.25 577.029)" fill="#fef2ad"/>
            <path id="Trazado_151734" data-name="Trazado 151734" d="M927.912-576.019v54.352a1.061,1.061,0,0,0,1.074,1.009,1.06,1.06,0,0,0,1.074-1.009v-54.352a1.059,1.059,0,0,0-1.074-1.009A1.06,1.06,0,0,0,927.912-576.019Z" transform="translate(-925.826 577.029)" fill="#fde365"/>
          </g>
        </g>
        <g id="Grupo_94806" data-name="Grupo 94806" transform="translate(175.586 82.481)">
          <path id="Trazado_151735" data-name="Trazado 151735" d="M969.072-570.665a1.691,1.691,0,0,1,1.639-1.291h55.134c.038,0,.077-.006.114-.006h52.936a1.841,1.841,0,0,1,1.781,1.305c.038.12,4.282.259,4.282.378v40.215c0,4.31-3.841,7.864-8.517,7.864h-52.151a.109.109,0,0,1-.035-.008H976.89a7.887,7.887,0,0,1-7.864-7.864v-40.2A1.689,1.689,0,0,1,969.072-570.665Z" transform="translate(-962.746 584.263)" fill="#9460ff"/>
          <path id="Trazado_151736" data-name="Trazado 151736" d="M967.442-581.765h122.871a3.3,3.3,0,0,1,3.288,3.288v8.529a3.38,3.38,0,0,1-3.369,3.371h-122.7a3.516,3.516,0,0,1-3.506-3.506v-8.262A3.43,3.43,0,0,1,967.442-581.765Z" transform="translate(-964.021 581.765)" fill="#7b42ff"/>
        </g>
        <g id="Grupo_94807" data-name="Grupo 94807" transform="translate(203.897 72.025)">
          <path id="Trazado_151737" data-name="Trazado 151737" d="M1010.41-579.639H990.365L986.821-590.1h20.045Z" transform="translate(-986.52 590.097)" fill="#b2b2b2"/>
          <path id="Trazado_151738" data-name="Trazado 151738" d="M1010.17-579.639H990.125L986.581-590.1h20.045Z" transform="translate(-986.581 590.097)" fill="#b2b2b2"/>
        </g>
        <g id="Grupo_94808" data-name="Grupo 94808" transform="translate(214.79 35.71)">
          <path id="Trazado_151739" data-name="Trazado 151739" d="M995.262-615.327l.577-3.21s6.153-1.6,8.688.93a4.967,4.967,0,0,1,.051,2.775s-5.871-.329-7.73.748Z" transform="translate(-995.262 619.036)" fill="#bdac56"/>
          <path id="Trazado_151740" data-name="Trazado 151740" d="M997.6-617.961s4.61-.394,6.49.523a20.286,20.286,0,0,0-5.274.315,34.66,34.66,0,0,1,5.92.591,6.938,6.938,0,0,0-.211-1.075c-2.535-2.531-8.688-.93-8.688-.93l-.577,3.21,1.586,1.242S996.871-617.287,997.6-617.961Z" transform="translate(-995.262 619.036)" fill="#ddc855"/>
        </g>
        <g id="Grupo_94809" data-name="Grupo 94809" transform="translate(220.532 64.614)">
          <rect id="Rectángulo_24312" data-name="Rectángulo 24312" width="2.228" height="4.01" rx="0.313" transform="translate(0 2.202) rotate(-81.267)" fill="#fff"/>
          <rect id="Rectángulo_24313" data-name="Rectángulo 24313" width="1.05" height="1.408" transform="matrix(0.988, 0.152, -0.152, 0.988, 0.767, 0.462)" fill="#fffee9"/>
          <path id="Trazado_151741" data-name="Trazado 151741" d="M1002.985-594.9l-1.293-.2a.176.176,0,0,1-.147-.2h0a.177.177,0,0,1,.2-.147l1.292.2a.177.177,0,0,1,.147.2h0A.177.177,0,0,1,1002.985-594.9Z" transform="translate(-999.403 596.146)" fill="#fffee9"/>
          <path id="Trazado_151742" data-name="Trazado 151742" d="M1003.037-594.537l-1.507-.231a.069.069,0,0,1-.056-.077h0a.068.068,0,0,1,.077-.056l1.507.232a.067.067,0,0,1,.057.076h0A.066.066,0,0,1,1003.037-594.537Z" transform="translate(-999.421 596.284)" fill="#fffee9"/>
          <path id="Trazado_151743" data-name="Trazado 151743" d="M1003.011-594.365l-1.508-.232a.065.065,0,0,1-.055-.075h0a.067.067,0,0,1,.076-.056l1.507.231a.068.068,0,0,1,.057.077h0A.067.067,0,0,1,1003.011-594.365Z" transform="translate(-999.428 596.328)" fill="#fffee9"/>
        </g>
        <rect id="Rectángulo_24314" data-name="Rectángulo 24314" width="45.444" height="5.986" transform="translate(196.806 11.042)" fill="#9460ff"/>
        <rect id="Rectángulo_24315" data-name="Rectángulo 24315" width="1.059" height="5.986" transform="translate(242.25 11.042)" fill="#7b42ff"/>
        <rect id="Rectángulo_24316" data-name="Rectángulo 24316" width="3.642" height="3.99" transform="translate(198.072 12.075)" fill="#fff"/>
        <rect id="Rectángulo_24317" data-name="Rectángulo 24317" width="37.984" height="3.99" transform="translate(202.788 12.075)" fill="#fff"/>
        <g id="Grupo_94810" data-name="Grupo 94810" transform="translate(99.841 54.266)">
          <path id="Trazado_151744" data-name="Trazado 151744" d="M916.129-585.162s5.692-2.591,10-.325,1.673,20.975-4.485,22.789h0S908.422-546.628,916.129-585.162Z" transform="translate(-901.098 608.794)" fill="#fde365"/>
          <path id="Trazado_151745" data-name="Trazado 151745" d="M908.461-582.439a31.585,31.585,0,0,1,.265-6.156s-1.933-.1-3.015,2.448c-2.244,5.282-1.27,16.684-1.133,18.316,0,0-.771,3.241.374,8.847a9.363,9.363,0,0,1-.533,1.121.732.732,0,0,0-.055.073h0a.661.661,0,0,0-.01.718l.742,1.175a.649.649,0,0,0,.28.245h0a.632.632,0,0,0,.115.041l.917.217.091-3.128s-.006,0-.011,0C906.8-561.6,908.72-580.43,908.461-582.439ZM906.09-558.3l-.019-.025.039.024C906.1-558.3,906.092-558.293,906.09-558.3Z" transform="translate(-903.511 608.239)" fill="#fcc9b6"/>
          <path id="Trazado_151746" data-name="Trazado 151746" d="M922.106-534.3l-.732,2.64h-6.18S913.353-535.037,922.106-534.3Z" transform="translate(-900.763 622.051)" fill="#b2b2b2"/>
          <path id="Trazado_151747" data-name="Trazado 151747" d="M911.544-534.3l-.732,2.64h-6.18S902.791-535.037,911.544-534.3Z" transform="translate(-903.455 622.051)" fill="#b2b2b2"/>
          <path id="Trazado_151748" data-name="Trazado 151748" d="M922.949-596.126a5.212,5.212,0,0,0-.9-4.289c-.772-1.193-1.853-1.245-2.895-2.256a6.692,6.692,0,0,0-4.258-1.577c-4.651,0-8.679,2.847-7.76,7.675.291,1.535.045,2.743,1.289,4.536C909.98-589.8,911.866-588,914.9-588a5.8,5.8,0,0,0,4.258-1.544c.676-.639,1.645-.718,2.24-1.413C922.6-592.364,922.509-594.214,922.949-596.126Z" transform="translate(-902.808 604.249)" fill="#6310cf"/>
          <path id="Trazado_151749" data-name="Trazado 151749" d="M910.936-592.729s1.02,3.944-1.042,5.622l5.8,2.963.763-3.835a18.9,18.9,0,0,1-.794-7.168Z" transform="translate(-902.072 606.569)" fill="#ffc8b0"/>
          <path id="Trazado_151750" data-name="Trazado 151750" d="M911.088-589.542s5.933.723,6.06-3.457-2.347-6.887-4-6.857c-3.292.062-3.835,1.392-4.216,2.777S908.356-589.837,911.088-589.542Z" transform="translate(-902.373 605.369)" fill="#fcc9b6"/>
          <path id="Trazado_151751" data-name="Trazado 151751" d="M906.333-566.462l11.724.969s1.378,20.565-6.327,39.628l-6.569-.124Z" transform="translate(-903.279 613.881)" fill="#7b42ff"/>
          <path id="Trazado_151752" data-name="Trazado 151752" d="M923.267-565.521s3.608,14.015.683,39.593h-7.958l-3.817-33.207c-.146-.982-2-2.352-2-2.352l-.071-3.795Z" transform="translate(-902.018 614.12)" fill="#9460ff"/>
          <path id="Trazado_151753" data-name="Trazado 151753" d="M925.176-580.209l.768-6.3c-.117-.162-.21-.3-.326-.44-1.348-1.65-6.529-2.37-7.576-2.487a1.091,1.091,0,0,1-.193.246,4.885,4.885,0,0,1-3.965,1.544c-1.464-.186-1.7-.953-1.658-1.789a16.343,16.343,0,0,0-4.811,1.477c-3.125,1.171-3.753,11.552-3.753,11.552a16.982,16.982,0,0,1,3.452.419l-.388,15.39c7.459,3.254,18.2,1.162,18.2,1.162l-.024-.093-.72-12.317.674-5.623Z" transform="translate(-903.661 608.025)" fill="#ddc855"/>
          <path id="Trazado_151754" data-name="Trazado 151754" d="M912.374-593.485s-.129.522-1.428.425c0,0-1.092-.08-1.05-.655A3.515,3.515,0,0,1,912.374-593.485Z" transform="translate(-902.072 606.903)" fill="#fff"/>
          <path id="Trazado_151755" data-name="Trazado 151755" d="M917.037-561.718c.507.635,3.007.858,4.509.4l-.732-12.3,1.006-8.366-.972-.452s-4.269,3.425-3.77,6.155S916.384-562.534,917.037-561.718Z" transform="translate(-900.303 609.809)" fill="#bdac56"/>
          <path id="Trazado_151756" data-name="Trazado 151756" d="M926.647-579.582a37.179,37.179,0,0,0-4.717,2.115,2.218,2.218,0,0,0-.581.442L916.842-586l-.86-1.7-.79-1.6-.07-.139s.063,0,.186.024a26.5,26.5,0,0,1,2.788.464,17.865,17.865,0,0,1,2.418.7h.022a5.424,5.424,0,0,1,2.161,1.3c.117.139.21.279.326.44A57.037,57.037,0,0,1,926.647-579.582Z" transform="translate(-900.74 608.025)" fill="#ddc855"/>
          <path id="Trazado_151757" data-name="Trazado 151757" d="M922.31-563.02s-16.057-17.173-5.809-24.771a10.836,10.836,0,0,1,2.113-1.255,17.854,17.854,0,0,1,2.418.7,7.737,7.737,0,0,0-3.672,2.254c-2.487,2.764-3.043,8.713,5.416,20.959Z" transform="translate(-901.26 608.124)" fill="#fde365"/>
          <path id="Trazado_151758" data-name="Trazado 151758" d="M911.079-599.45s5.071,0,3.905,3.479c-.734,2.194,1.708,2.535,1.708,2.535l1.175-3.516-.735-2.741-3.3-1.6Z" transform="translate(-901.77 605.002)" fill="#6310cf"/>
          <path id="Trazado_151759" data-name="Trazado 151759" d="M927.078-581.557a15.6,15.6,0,0,0-4.654,2.245c.8,1.832,1.245,3.044,1.245,3.044a34.578,34.578,0,0,0-5.3-.633c-.183-.014-1.651-.5-1.651-.5a2.817,2.817,0,0,0-2.88-2.705s-1.195.008-.95.823.271.461.591,1.62a2.617,2.617,0,0,0,2.041,2.092c4.258,3.58,10.122,3.61,11.889,3.528a.706.706,0,0,0,.656-.542A15.116,15.116,0,0,0,927.078-581.557Z" transform="translate(-901.318 610.033)" fill="#fcc9b6"/>
        </g>
        <g id="Grupo_94828" data-name="Grupo 94828" transform="translate(8.225 22.838)">
          <g id="Grupo_94811" data-name="Grupo 94811" transform="translate(16.729 52.641)">
            <path id="Trazado_151760" data-name="Trazado 151760" d="M845.678-539.525s-2.04,1.891-1.643,3.235,2.24,2.239,2.488,3.881,1.244,2.537,2.14,2.537h4.27s.66-1.156-.932-1.5-2.194-2.279-2.093-4.07a32.12,32.12,0,0,0-.149-4.18l-3.384-.8Z" transform="translate(-843.984 599.305)" fill="#b2b2b2"/>
            <path id="Trazado_151761" data-name="Trazado 151761" d="M865.706-530.922a4.907,4.907,0,0,0,1.257.183h10.328c-.048-.331-.318-1.282-1.831-1.528-1.783-.289-4.874-1.325-5.564-3.606-.021-.074-.041-.149-.059-.225-.547-2.438-4.528.747-4.528.747s-.013.1-.03.262C865.188-534.195,864.95-531.3,865.706-530.922Z" transform="translate(-838.584 600.173)" fill="#b2b2b2"/>
            <path id="Trazado_151762" data-name="Trazado 151762" d="M876.424-583.921s-.6,7.543-1.315,16.611c-.966,12.318-2.127,27.448-2.242,30.314-.2,4.977-1,12.939-1,12.939s-1.89,1.891-5.672,1.094a130.182,130.182,0,0,1-4.334-23.391l-.045-.594c-.895-12.242-2.288-38.019-2.288-38.019Z" transform="translate(-840.021 587.951)" fill="#ddc855"/>
            <path id="Trazado_151763" data-name="Trazado 151763" d="M876.424-583.921s-.6,7.543-1.315,16.611l-13.245,20.957-.045-.594c-.895-12.242-2.288-38.019-2.288-38.019Z" transform="translate(-840.021 587.951)" fill="#bdac56"/>
            <path id="Trazado_151764" data-name="Trazado 151764" d="M877.282-582.418s-10.9,27.319-18.064,40.158-9.405,16.423-9.405,16.423-4.106-1.643-4.479-2.762c0,0,2.741-24.787,7.539-30.829,2.711-3.413,5.9-13.659,6.046-17.242s.97-10.674.97-10.674Z" transform="translate(-843.64 587.345)" fill="#ddc855"/>
          </g>
          <path id="Trazado_151765" data-name="Trazado 151765" d="M888.295-586.433a45.933,45.933,0,0,1,4.363,2.32,10.032,10.032,0,0,1,1.7,2.975c-.1.174-.289.23-.638-.013s-1.328-1.247-1.363-1.06,2.61,3.3,2.142,3.96-3.121.464-4.637-.614-3.027-5.038-3.255-5.254C884.673-585.952,888.295-586.433,888.295-586.433Z" transform="translate(-816.537 640.219)" fill="#fcc9b6"/>
          <path id="Trazado_151766" data-name="Trazado 151766" d="M892.686-577.422c1.068-.93,1.1-1.165,1.1-1.165s-6.819-11.792-7.41-12.927-4.246-18.843-4.246-18.843l-12.635-3.663s8.9,23.012,10.454,25.857c2.569,4.7,10.954,11.616,10.954,11.616A3.946,3.946,0,0,0,892.686-577.422Z" transform="translate(-820.754 633.187)" fill="#7b42ff"/>
          <path id="Trazado_151767" data-name="Trazado 151767" d="M874.618-616.5s4.447,7.824,8.793,8.845a11.869,11.869,0,0,0-1.239-4.425c.433-.512.813-.981,1.143-1.4a26.07,26.07,0,0,0,1.614-2.26l-1.474-3.965-1-2.69a12.952,12.952,0,0,1-1.564,2.254A10.635,10.635,0,0,1,874.618-616.5Z" transform="translate(-819.447 631.053)" fill="#fcc9b6"/>
          <path id="Trazado_151768" data-name="Trazado 151768" d="M879.624-620.6a8.25,8.25,0,0,0,2.426,6.662,26.077,26.077,0,0,0,1.614-2.26l-1.474-3.965A8.424,8.424,0,0,0,879.624-620.6Z" transform="translate(-818.181 631.511)" fill="#ffc8b0"/>
          <path id="Trazado_151769" data-name="Trazado 151769" d="M884.833-614.025s-6.643-2.59-4.967-6.7,1.948-7.217,6.261-5.737,4.493,3.383,4.267,4.892S886.6-613.458,884.833-614.025Z" transform="translate(-818.179 629.92)" fill="#fcc9b6"/>
          <path id="Trazado_151770" data-name="Trazado 151770" d="M856.529-577.324c2.679,3.852,22.719,9,22.479,6.335a29.113,29.113,0,0,1,0-5.259c.051-.572.123-1.18.213-1.817a41.941,41.941,0,0,1,4.417-13.229c.2-.392.412-.784.63-1.183a40.44,40.44,0,0,0,2.777-6.242c1.389-4.012,1.951-7.852,1.249-10.36a.1.1,0,0,0-.011-.035c-4.188-1.936-5.81-9.447-5.81-9.447S868.186-616,860.18-596.95c0,0-.769,2.091-1.646,4.929a55.948,55.948,0,0,0-2.51,11.22A5.874,5.874,0,0,0,856.529-577.324Z" transform="translate(-824.195 632.03)" fill="#9460ff"/>
          <path id="Trazado_151771" data-name="Trazado 151771" d="M879.235-627.742c-.046-.092-.182-.191-.512-.291a1.38,1.38,0,0,1,.669-.025,1.759,1.759,0,0,1,1.491-1.236,1.046,1.046,0,0,0-.668.615c1.165-.738,3.326-.952,8.718.843,7.107,2.367,3.556,6.493,2.48,6.824s-3.061-1.792-4.844-2.082-2.748,2.195-3.428,2.4-.294-.359-1.005-.926-1.122.767-1.105,1.7-1.373,1.822-1.373,1.822l-.814-1.493c-.814-1.493-.592-6.916.186-7.892Z" transform="translate(-818.501 629.294)" fill="#6310cf"/>
          <path id="Trazado_151772" data-name="Trazado 151772" d="M856.017-583.239C873.26-588.44,876-609,876-609s-9.817,7.5-17.477,14.539A55.943,55.943,0,0,0,856.017-583.239Z" transform="translate(-824.188 634.467)" fill="#7b42ff"/>
          <g id="Grupo_94818" data-name="Grupo 94818" transform="translate(60.322 53.054)">
            <path id="Trazado_151773" data-name="Trazado 151773" d="M878.723-580.231l3.586,3.583.049-.031,5.383-3.376a18.307,18.307,0,0,1-3.162.794c-.355-.1-4.247-1.437-5.164-1.325a.335.335,0,0,0-.133.038Z" transform="translate(-878.723 588.653)" fill="#fde365"/>
            <path id="Trazado_151774" data-name="Trazado 151774" d="M881.846-574.826c.143-.031.571-.133,1.152-.282a31.517,31.517,0,0,0,5.781-1.921c1.044-.6,6.558-3.81,10.358-6.062a7.031,7.031,0,0,0-4.264-.767c-4.436,2.6-10.231,6.021-10.94,6.519-1.167.821-2.756,1.813-2.756,1.813a.9.9,0,0,0,.023.113C881.254-575.192,881.418-574.734,881.846-574.826Z" transform="translate(-878.098 587.805)" fill="#8a3efe"/>
            <path id="Trazado_151775" data-name="Trazado 151775" d="M881.846-574.037c.143-.031.571-.133,1.152-.282a31.517,31.517,0,0,0,5.781-1.921c1.044-.6,6.558-3.81,10.358-6.062,1.907-1.131,3.383-2.022,3.642-2.221.776-.595,2.268-2.086,1.9-2.365s-1.083,0-1.353-.04l-.011,0c-.063-.009-.167-.025-.31-.034a5.345,5.345,0,0,0-2.975.875s-2.3,1.341-5.158,3.022c-4.436,2.6-10.231,6.021-10.94,6.519-1.167.821-2.756,1.813-2.756,1.813a.9.9,0,0,0,.023.113C881.254-574.4,881.418-573.945,881.846-574.037Z" transform="translate(-878.098 587.016)" fill="#fef2ad"/>
            <path id="Trazado_151776" data-name="Trazado 151776" d="M881.841-576.375c.143-.03.571-.132,1.152-.281a1.7,1.7,0,0,1,.388-1.19l-2.186.885C881.249-576.74,881.413-576.282,881.841-576.375Z" transform="translate(-878.093 589.353)" fill="#fde365"/>
            <g id="Grupo_94816" data-name="Grupo 94816" transform="translate(8.339 0.05)" opacity="0.5">
              <g id="Grupo_94812" data-name="Grupo 94812" transform="translate(0 8.402)">
                <path id="Trazado_151777" data-name="Trazado 151777" d="M885.515-578.878h0a.073.073,0,0,0,.025-.1l-.039-.065a.071.071,0,0,0-.1-.025h0a.071.071,0,0,0-.025.1l.038.067A.073.073,0,0,0,885.515-578.878Z" transform="translate(-885.368 580.588)" fill="#fde365"/>
                <path id="Trazado_151778" data-name="Trazado 151778" d="M885.77-579.029h0a.072.072,0,0,0,.025-.1l-.039-.067a.073.073,0,0,0-.1-.025h0a.073.073,0,0,0-.025.1l.039.065A.073.073,0,0,0,885.77-579.029Z" transform="translate(-885.303 580.549)" fill="#fde365"/>
                <path id="Trazado_151779" data-name="Trazado 151779" d="M886.024-579.179h0a.072.072,0,0,0,.025-.1l-.038-.065a.073.073,0,0,0-.1-.025h0a.072.072,0,0,0-.025.1l.039.066A.071.071,0,0,0,886.024-579.179Z" transform="translate(-885.238 580.511)" fill="#fde365"/>
                <path id="Trazado_151780" data-name="Trazado 151780" d="M886.279-579.33h0a.071.071,0,0,0,.025-.1l-.039-.066a.072.072,0,0,0-.1-.025h0a.073.073,0,0,0-.026.1l.039.065A.073.073,0,0,0,886.279-579.33Z" transform="translate(-885.174 580.473)" fill="#fde365"/>
                <path id="Trazado_151781" data-name="Trazado 151781" d="M886.533-579.479h0a.072.072,0,0,0,.026-.1l-.039-.065a.073.073,0,0,0-.1-.025h0a.072.072,0,0,0-.025.1l.039.067A.072.072,0,0,0,886.533-579.479Z" transform="translate(-885.109 580.434)" fill="#fde365"/>
                <path id="Trazado_151782" data-name="Trazado 151782" d="M886.788-579.63h0a.072.072,0,0,0,.025-.1l-.039-.065a.071.071,0,0,0-.1-.026h0a.073.073,0,0,0-.025.1l.039.065A.072.072,0,0,0,886.788-579.63Z" transform="translate(-885.044 580.396)" fill="#fde365"/>
                <path id="Trazado_151783" data-name="Trazado 151783" d="M887.043-579.78h0a.073.073,0,0,0,.025-.1l-.039-.065a.073.073,0,0,0-.1-.025h0a.072.072,0,0,0-.025.1l.039.066A.073.073,0,0,0,887.043-579.78Z" transform="translate(-884.979 580.358)" fill="#fde365"/>
                <path id="Trazado_151784" data-name="Trazado 151784" d="M887.3-579.932h0a.07.07,0,0,0,.025-.1l-.038-.065a.072.072,0,0,0-.1-.026h0a.073.073,0,0,0-.025.1l.039.065A.072.072,0,0,0,887.3-579.932Z" transform="translate(-884.914 580.319)" fill="#fde365"/>
                <path id="Trazado_151785" data-name="Trazado 151785" d="M887.552-580.082h0a.073.073,0,0,0,.025-.1l-.039-.065a.072.072,0,0,0-.1-.025h0a.071.071,0,0,0-.026.1l.039.066A.073.073,0,0,0,887.552-580.082Z" transform="translate(-884.849 580.281)" fill="#fde365"/>
              </g>
              <g id="Grupo_94813" data-name="Grupo 94813" transform="translate(6.321 4.665)">
                <path id="Trazado_151786" data-name="Trazado 151786" d="M890.552-581.855h0a.072.072,0,0,0,.025-.1l-.039-.065a.071.071,0,0,0-.1-.026h0a.073.073,0,0,0-.025.1l.039.065A.072.072,0,0,0,890.552-581.855Z" transform="translate(-890.405 583.566)" fill="#fde365"/>
                <path id="Trazado_151787" data-name="Trazado 151787" d="M890.807-582.005h0a.073.073,0,0,0,.025-.1l-.039-.065a.073.073,0,0,0-.1-.025h0a.072.072,0,0,0-.025.1l.039.067A.073.073,0,0,0,890.807-582.005Z" transform="translate(-890.34 583.528)" fill="#fde365"/>
                <path id="Trazado_151788" data-name="Trazado 151788" d="M891.061-582.157h0a.072.072,0,0,0,.025-.1l-.039-.065a.071.071,0,0,0-.1-.026h0a.073.073,0,0,0-.025.1l.039.065A.072.072,0,0,0,891.061-582.157Z" transform="translate(-890.275 583.489)" fill="#fde365"/>
                <path id="Trazado_151789" data-name="Trazado 151789" d="M891.316-582.307h0a.073.073,0,0,0,.025-.1l-.039-.065a.072.072,0,0,0-.1-.025h0a.071.071,0,0,0-.026.1l.039.066A.073.073,0,0,0,891.316-582.307Z" transform="translate(-890.211 583.451)" fill="#fde365"/>
                <path id="Trazado_151790" data-name="Trazado 151790" d="M891.57-582.458h0a.071.071,0,0,0,.026-.1l-.039-.065a.073.073,0,0,0-.1-.026h0a.073.073,0,0,0-.025.1l.039.065A.071.071,0,0,0,891.57-582.458Z" transform="translate(-890.146 583.412)" fill="#fde365"/>
                <path id="Trazado_151791" data-name="Trazado 151791" d="M891.825-582.607h0a.073.073,0,0,0,.025-.1l-.039-.065a.072.072,0,0,0-.1-.025h0a.073.073,0,0,0-.025.1l.038.065A.073.073,0,0,0,891.825-582.607Z" transform="translate(-890.081 583.374)" fill="#fde365"/>
                <path id="Trazado_151792" data-name="Trazado 151792" d="M892.08-582.759h0a.072.072,0,0,0,.025-.1l-.039-.065a.072.072,0,0,0-.1-.025h0a.071.071,0,0,0-.025.1l.039.065A.072.072,0,0,0,892.08-582.759Z" transform="translate(-890.016 583.336)" fill="#fde365"/>
                <path id="Trazado_151793" data-name="Trazado 151793" d="M892.334-582.908h0a.073.073,0,0,0,.025-.1l-.038-.065a.073.073,0,0,0-.1-.025h0a.071.071,0,0,0-.025.1l.039.067A.072.072,0,0,0,892.334-582.908Z" transform="translate(-889.951 583.297)" fill="#fde365"/>
                <path id="Trazado_151794" data-name="Trazado 151794" d="M892.589-583.058h0a.073.073,0,0,0,.025-.1l-.039-.065a.071.071,0,0,0-.1-.026h0a.072.072,0,0,0-.026.1l.039.065A.074.074,0,0,0,892.589-583.058Z" transform="translate(-889.886 583.259)" fill="#fde365"/>
              </g>
              <g id="Grupo_94814" data-name="Grupo 94814" transform="translate(7.054)">
                <path id="Trazado_151795" data-name="Trazado 151795" d="M893.574-583.641h0a.073.073,0,0,0,.025-.1l-.039-.065a.071.071,0,0,0-.1-.025h0a.073.073,0,0,0-.025.1l.039.065A.071.071,0,0,0,893.574-583.641Z" transform="translate(-890.368 587.775)" fill="#fde365"/>
                <path id="Trazado_151796" data-name="Trazado 151796" d="M893.076-583.347h0a.072.072,0,0,0,.025-.1l-.038-.065a.072.072,0,0,0-.1-.026h0a.073.073,0,0,0-.025.1l.039.065A.072.072,0,0,0,893.076-583.347Z" transform="translate(-890.495 587.85)" fill="#fde365"/>
                <path id="Trazado_151797" data-name="Trazado 151797" d="M893.829-583.791h0a.073.073,0,0,0,.025-.1l-.039-.065a.073.073,0,0,0-.1-.025h0a.071.071,0,0,0-.025.1l.039.065A.072.072,0,0,0,893.829-583.791Z" transform="translate(-890.303 587.737)" fill="#fde365"/>
                <path id="Trazado_151798" data-name="Trazado 151798" d="M894.083-583.943h0a.07.07,0,0,0,.025-.1l-.038-.067a.073.073,0,0,0-.1-.025h0a.073.073,0,0,0-.025.1l.039.065A.072.072,0,0,0,894.083-583.943Z" transform="translate(-890.239 587.698)" fill="#fde365"/>
                <path id="Trazado_151799" data-name="Trazado 151799" d="M894.338-584.093h0a.073.073,0,0,0,.025-.1l-.039-.065a.071.071,0,0,0-.1-.025h0a.072.072,0,0,0-.026.1l.039.065A.072.072,0,0,0,894.338-584.093Z" transform="translate(-890.174 587.66)" fill="#fde365"/>
                <path id="Trazado_151800" data-name="Trazado 151800" d="M894.593-584.243h0a.072.072,0,0,0,.025-.1l-.039-.067a.073.073,0,0,0-.1-.025h0a.073.073,0,0,0-.025.1l.039.065A.073.073,0,0,0,894.593-584.243Z" transform="translate(-890.109 587.622)" fill="#fde365"/>
                <path id="Trazado_151801" data-name="Trazado 151801" d="M894.847-584.394h0a.073.073,0,0,0,.025-.1l-.039-.065a.072.072,0,0,0-.1-.025h0a.072.072,0,0,0-.025.1l.039.065A.071.071,0,0,0,894.847-584.394Z" transform="translate(-890.044 587.583)" fill="#fde365"/>
                <path id="Trazado_151802" data-name="Trazado 151802" d="M895.1-584.544h0a.071.071,0,0,0,.025-.1l-.039-.067a.072.072,0,0,0-.1-.025h0a.072.072,0,0,0-.026.1l.039.065A.073.073,0,0,0,895.1-584.544Z" transform="translate(-889.979 587.545)" fill="#fde365"/>
                <path id="Trazado_151803" data-name="Trazado 151803" d="M895.356-584.694h0a.073.073,0,0,0,.026-.1l-.039-.065a.073.073,0,0,0-.1-.025h0a.072.072,0,0,0-.025.1l.039.065A.071.071,0,0,0,895.356-584.694Z" transform="translate(-889.914 587.507)" fill="#fde365"/>
                <path id="Trazado_151804" data-name="Trazado 151804" d="M895.611-584.845h0a.073.073,0,0,0,.025-.1l-.039-.065a.072.072,0,0,0-.1-.025h0a.073.073,0,0,0-.025.1l.038.065A.073.073,0,0,0,895.611-584.845Z" transform="translate(-889.849 587.468)" fill="#fde365"/>
                <path id="Trazado_151805" data-name="Trazado 151805" d="M895.86-584.992h0a.072.072,0,0,0,.026-.1l-.039-.065a.073.073,0,0,0-.1-.025h0a.071.071,0,0,0-.025.1l.039.065A.071.071,0,0,0,895.86-584.992Z" transform="translate(-889.786 587.431)" fill="#fde365"/>
                <path id="Trazado_151806" data-name="Trazado 151806" d="M896.115-585.144h0a.072.072,0,0,0,.025-.1l-.039-.066a.072.072,0,0,0-.1-.025h0a.073.073,0,0,0-.025.1l.039.065A.072.072,0,0,0,896.115-585.144Z" transform="translate(-889.721 587.392)" fill="#fde365"/>
                <path id="Trazado_151807" data-name="Trazado 151807" d="M896.37-585.294h0a.073.073,0,0,0,.025-.1l-.039-.065a.073.073,0,0,0-.1-.025h0a.072.072,0,0,0-.025.1l.039.065A.072.072,0,0,0,896.37-585.294Z" transform="translate(-889.656 587.354)" fill="#fde365"/>
                <path id="Trazado_151808" data-name="Trazado 151808" d="M898.3-586.563a.111.111,0,0,0,.123.035.111.111,0,0,0,.031-.018l.5-.4c-.063-.009-.167-.025-.31-.034l-.328.258A.11.11,0,0,0,898.3-586.563Z" transform="translate(-889.132 586.976)" fill="#fde365"/>
                <rect id="Rectángulo_24318" data-name="Rectángulo 24318" width="0.384" height="0.741" rx="0.153" transform="matrix(-0.861, 0.509, -0.509, -0.861, 1.342, 5.612)" fill="#fde365"/>
                <rect id="Rectángulo_24319" data-name="Rectángulo 24319" width="0.384" height="0.741" rx="0.153" transform="translate(0.707 5.987) rotate(149.421)" fill="#fde365"/>
              </g>
              <g id="Grupo_94815" data-name="Grupo 94815" transform="translate(3.495 6.335)">
                <path id="Trazado_151809" data-name="Trazado 151809" d="M888.3-580.524h0a.07.07,0,0,0,.025-.1l-.038-.065a.072.072,0,0,0-.1-.026h0a.073.073,0,0,0-.025.1l.039.065A.072.072,0,0,0,888.3-580.524Z" transform="translate(-888.153 582.234)" fill="#fde365"/>
                <path id="Trazado_151810" data-name="Trazado 151810" d="M888.555-580.674h0a.073.073,0,0,0,.025-.1l-.039-.065a.072.072,0,0,0-.1-.025h0a.072.072,0,0,0-.026.1l.039.067A.073.073,0,0,0,888.555-580.674Z" transform="translate(-888.088 582.196)" fill="#fde365"/>
                <path id="Trazado_151811" data-name="Trazado 151811" d="M888.809-580.826h0a.071.071,0,0,0,.026-.1l-.039-.065a.072.072,0,0,0-.1-.026h0a.073.073,0,0,0-.025.1l.039.065A.072.072,0,0,0,888.809-580.826Z" transform="translate(-888.023 582.158)" fill="#fde365"/>
                <path id="Trazado_151812" data-name="Trazado 151812" d="M889.064-580.975h0a.073.073,0,0,0,.025-.1l-.039-.065a.072.072,0,0,0-.1-.025h0a.072.072,0,0,0-.025.1l.039.067A.072.072,0,0,0,889.064-580.975Z" transform="translate(-887.958 582.12)" fill="#fde365"/>
                <path id="Trazado_151813" data-name="Trazado 151813" d="M889.319-581.127h0a.072.072,0,0,0,.025-.1l-.039-.065a.072.072,0,0,0-.1-.026h0a.072.072,0,0,0-.026.1l.039.065A.073.073,0,0,0,889.319-581.127Z" transform="translate(-887.894 582.081)" fill="#fde365"/>
                <path id="Trazado_151814" data-name="Trazado 151814" d="M889.573-581.277h0a.073.073,0,0,0,.026-.1l-.039-.065a.073.073,0,0,0-.1-.025h0a.071.071,0,0,0-.025.1l.039.067A.071.071,0,0,0,889.573-581.277Z" transform="translate(-887.829 582.043)" fill="#fde365"/>
                <path id="Trazado_151815" data-name="Trazado 151815" d="M889.828-581.427h0a.072.072,0,0,0,.025-.1l-.039-.065a.071.071,0,0,0-.1-.026h0a.072.072,0,0,0-.025.1l.038.065A.072.072,0,0,0,889.828-581.427Z" transform="translate(-887.764 582.004)" fill="#fde365"/>
                <path id="Trazado_151816" data-name="Trazado 151816" d="M890.083-581.577h0a.073.073,0,0,0,.025-.1l-.039-.065a.073.073,0,0,0-.1-.025h0a.073.073,0,0,0-.025.1l.039.065A.073.073,0,0,0,890.083-581.577Z" transform="translate(-887.699 581.966)" fill="#fde365"/>
                <path id="Trazado_151817" data-name="Trazado 151817" d="M890.337-581.729h0a.072.072,0,0,0,.025-.1l-.039-.065a.072.072,0,0,0-.1-.026h0a.073.073,0,0,0-.025.1l.039.065A.072.072,0,0,0,890.337-581.729Z" transform="translate(-887.634 581.928)" fill="#fde365"/>
              </g>
            </g>
            <path id="Trazado_151818" data-name="Trazado 151818" d="M891.936-580.856a.258.258,0,0,1-.269-.382,1.468,1.468,0,0,1,.511-.545c.483-.279.626.606.469.707A2.856,2.856,0,0,1,891.936-580.856Z" transform="translate(-875.433 588.336)" fill="#bdac56"/>
            <path id="Trazado_151819" data-name="Trazado 151819" d="M891.912-581.6l.595,1.006a5.409,5.409,0,0,0,1.4-.572,4.311,4.311,0,0,0,.95-.689,1.4,1.4,0,0,0,.142-.159l-.624-1.054a.613.613,0,0,0-.22.028,10.161,10.161,0,0,0-2.16,1.347Z" transform="translate(-875.361 588.023)" fill="#bdac56"/>
            <path id="Trazado_151820" data-name="Trazado 151820" d="M893.7-583.037l.7,1.186a1.409,1.409,0,0,0,.142-.159l-.624-1.054A.613.613,0,0,0,893.7-583.037Z" transform="translate(-874.906 588.023)" fill="#fde365"/>
            <path id="Trazado_151821" data-name="Trazado 151821" d="M883.566-577.988a9.951,9.951,0,0,0-3.2,1.271l1.412-.021,1.813-1.072S883.711-577.934,883.566-577.988Z" transform="translate(-878.304 589.317)" fill="#bdac56"/>
            <g id="Grupo_94817" data-name="Grupo 94817" transform="translate(9.454 5.993)">
              <path id="Trazado_151822" data-name="Trazado 151822" d="M886.257-580.994s1.27.875,1.491.993a1.226,1.226,0,0,0,.576.087h0l2.186-.369s2.33-1.36,2.831-1.669h0l.089-.057c.147-.107.2-.2.146-.231s-3.883,1.495-4.306,1.667l-.011,0c-.413.164-.5.079-.5.079l-2.113-.58a.2.2,0,0,0-.113-.014A1.026,1.026,0,0,0,886.257-580.994Z" transform="translate(-886.257 582.24)" fill="#fde365"/>
              <path id="Trazado_151823" data-name="Trazado 151823" d="M886.481-581.083c.577.177,2.175.665,2.314.683s3.634-1.244,4.49-1.552h0l.089-.057c.147-.107.2-.2.146-.231s-3.883,1.495-4.306,1.667-.507.084-.507.084l-2.113-.58A.2.2,0,0,0,886.481-581.083Z" transform="translate(-886.2 582.24)" fill="#fde365"/>
              <path id="Trazado_151824" data-name="Trazado 151824" d="M886.257-581.228s1.27.875,1.491.993a1.225,1.225,0,0,0,.576.087h0a4.776,4.776,0,0,0,.935-.654c-.413.164-.5.079-.5.079l-2.113-.58a.2.2,0,0,0-.113-.014A1.026,1.026,0,0,0,886.257-581.228Z" transform="translate(-886.257 582.475)" fill="#fde365"/>
            </g>
            <path id="Trazado_151825" data-name="Trazado 151825" d="M882.142-576.637l5.481-3.43a18.913,18.913,0,0,1-3.212.821c-.359-.1-4.293-1.41-5.224-1.292,1.058.427,3.537,1.484,3.708,2.07C883.058-577.909,882.456-577.04,882.142-576.637Z" transform="translate(-878.605 588.665)" fill="#fef2ad"/>
          </g>
          <g id="Grupo_94826" data-name="Grupo 94826" transform="translate(0 55.926)">
            <g id="Grupo_94819" data-name="Grupo 94819" transform="translate(21.545 61.515)">
              <path id="Trazado_151826" data-name="Trazado 151826" d="M852.228-534.314a2.3,2.3,0,0,1-1.207,3.013,2.3,2.3,0,0,1-3.013-1.207,2.3,2.3,0,0,1,1.207-3.013A2.3,2.3,0,0,1,852.228-534.314Z" transform="translate(-847.822 535.707)" fill="#fde365"/>
              <path id="Trazado_151827" data-name="Trazado 151827" d="M852.552-534.314a2.3,2.3,0,0,1-1.207,3.013,2.3,2.3,0,0,1-3.013-1.207,2.3,2.3,0,0,1,1.207-3.013A2.3,2.3,0,0,1,852.552-534.314Z" transform="translate(-847.74 535.707)" fill="#fde365"/>
            </g>
            <g id="Grupo_94820" data-name="Grupo 94820" transform="translate(8.457 61.515)">
              <path id="Trazado_151828" data-name="Trazado 151828" d="M841.8-534.314a2.294,2.294,0,0,1-1.207,3.013,2.3,2.3,0,0,1-3.012-1.207,2.294,2.294,0,0,1,1.207-3.013A2.294,2.294,0,0,1,841.8-534.314Z" transform="translate(-837.393 535.707)" fill="#fde365"/>
              <path id="Trazado_151829" data-name="Trazado 151829" d="M842.123-534.314a2.3,2.3,0,0,1-1.207,3.013,2.3,2.3,0,0,1-3.013-1.207,2.294,2.294,0,0,1,1.207-3.013A2.3,2.3,0,0,1,842.123-534.314Z" transform="translate(-837.31 535.707)" fill="#fde365"/>
            </g>
            <g id="Grupo_94821" data-name="Grupo 94821" transform="translate(13.768)">
              <path id="Trazado_151830" data-name="Trazado 151830" d="M855.612-559.836l-.97-.2c1.311-6.463,3.768-19.141,3.681-20.865a2.981,2.981,0,0,0-.99-2.331,3.246,3.246,0,0,0-2.365-.451l-.053.009-3.953.415c-4.678.118-5.046,3.988-5.06,4.152l-.006.05-3.3,18.088-.973-.178,3.293-18.065a5.874,5.874,0,0,1,.893-2.457,5.872,5.872,0,0,1,5.106-2.579l3.869-.408a4.178,4.178,0,0,1,3.141.633,3.9,3.9,0,0,1,1.383,3.072C859.427-578.671,855.768-560.6,855.612-559.836Z" transform="translate(-841.625 584.727)" fill="#fde365"/>
            </g>
            <path id="Trazado_151831" data-name="Trazado 151831" d="M864.867-565.36l-9.993-2-1.955,39.2-18.488,1.634,3.264,1.172a2.966,2.966,0,0,0,1.029.174l17.606-.181c.3,0,.6,0,.883-.009h.029c6.888-.235,7.222-3.989,7.222-3.989s2.23-25.212,2.739-29.706C867.781-564.174,864.867-565.36,864.867-565.36Z" transform="translate(-829.69 589.155)" fill="#fde365"/>
            <path id="Trazado_151832" data-name="Trazado 151832" d="M861.378-560.412l-2.688,28.235a6.359,6.359,0,0,1-1.137,3.072,6.375,6.375,0,0,1-5.175,2.7l-9.269.058-.23,0-5.8.035a6.368,6.368,0,0,1-1.681-.212c-.126-.033-.249-.069-.372-.109a6.4,6.4,0,0,1-4.127-4.313,6.351,6.351,0,0,1-.164-2.727l4.209-27.015a6.381,6.381,0,0,1,5.7-5.368l1.638-.157.39-.038h0l.328-.031,5.473-.523.671-.064,5.281-.5a6.356,6.356,0,0,1,2.377.218c.049.014.1.028.147.044l.3.1A6.385,6.385,0,0,1,861.378-560.412Z" transform="translate(-830.653 589.144)" fill="#fef2ad"/>
            <path id="Trazado_151833" data-name="Trazado 151833" d="M857.55-536.222a6.375,6.375,0,0,1-5.175,2.7l-9.269.058-.23,0-5.8.035a6.368,6.368,0,0,1-1.681-.212c-.126-.033-.249-.069-.371-.109a6.758,6.758,0,0,1-4.358-5.68s19.606-.257,23.7.376A3.946,3.946,0,0,1,857.55-536.222Z" transform="translate(-830.651 596.261)" fill="#fde365" opacity="0.5"/>
            <g id="Grupo_94825" data-name="Grupo 94825" transform="translate(2.569 21.995)">
              <g id="Grupo_94822" data-name="Grupo 94822" transform="translate(0 0.872)">
                <path id="Trazado_151834" data-name="Trazado 151834" d="M842.472-566.505c-.04.025-4.339,2.645-4.9,4.947-.581,2.365-4.462,29.933-4.5,30.211a6.393,6.393,0,0,0,2.1,4.671l-.294-.07c-.126-.033-.249-.069-.371-.109a5.74,5.74,0,0,1-1.781-4.539c.159-1.138,3.923-27.865,4.508-30.247.512-2.087,3.542-4.168,4.525-4.795l.39-.038h0Z" transform="translate(-832.7 566.505)" fill="#fde365"/>
              </g>
              <g id="Grupo_94823" data-name="Grupo 94823" transform="translate(9.048 0.285)">
                <path id="Trazado_151835" data-name="Trazado 151835" d="M846.778-566.973a8.368,8.368,0,0,0-3.482,5.525c-.591,3.884-2.9,32.1-2.921,32.382v.021l-.006.019a3.136,3.136,0,0,0,.616,2.571h-.233l-.23,0a3.024,3.024,0,0,1-.493-2.662c.073-.873,2.338-28.535,2.924-32.389a8.706,8.706,0,0,1,3.156-5.409Z" transform="translate(-839.91 566.973)" fill="#fde365"/>
              </g>
              <g id="Grupo_94824" data-name="Grupo 94824" transform="translate(17.634)">
                <path id="Trazado_151836" data-name="Trazado 151836" d="M853.143-567.051a7.237,7.237,0,0,0-1.68,1.388,7.965,7.965,0,0,0-1.894,4.115c-.59,3.883-2.42,32-2.438,32.286v.023l-.006.02a4.272,4.272,0,0,0,.865,2.77l-.585,0a4.556,4.556,0,0,1-.62-2.859c.059-.9,1.855-28.443,2.441-32.3a7.974,7.974,0,0,1,3.467-5.6c.049.014.1.028.147.044Z" transform="translate(-846.753 567.2)" fill="#fde365"/>
              </g>
            </g>
          </g>
          <g id="Grupo_94827" data-name="Grupo 94827" transform="translate(22.826 50.901)">
            <path id="Trazado_151837" data-name="Trazado 151837" d="M853.118-587.729s-1.808-2.156-2.2-.143c-.046.238-2,2.857-2.071,4.288s1.757,2.12,2.378,2.152c.5.025.622-.759.723-1.1h0a1.556,1.556,0,0,1,1.341-1.148l.068-.008c.026-.1.048-.179.059-.246A35.386,35.386,0,0,0,853.118-587.729Z" transform="translate(-848.843 588.732)" fill="#fcc9b6"/>
            <path id="Trazado_151838" data-name="Trazado 151838" d="M851.405-583.779a1.579,1.579,0,0,0-.1.433c-.013.326.457.307.611.3a2.292,2.292,0,0,0,.443-.832Z" transform="translate(-848.216 589.968)" fill="#fcc9b6"/>
          </g>
          <path id="Trazado_151839" data-name="Trazado 151839" d="M851.771-580.41c1.368.626,1.876-.013,1.876-.013s7.968-13.307,8.808-14.377S878-602.182,878-602.182s5.986-2.288,6.223-5.919a6.544,6.544,0,0,0-3.548-6.264,6.623,6.623,0,0,0-7.446.482c-4.825,3.747-14.391,11.285-15.931,13.329-3.426,4.549-7.223,18.81-7.223,18.81A4.744,4.744,0,0,0,851.771-580.41Z" transform="translate(-825.702 632.864)" fill="#9460ff"/>
        </g>
        <path id="Trazado_151840" data-name="Trazado 151840" d="M824.422-531.29h332.984c.177,0,.323-.225.323-.5h0c0-.274-.146-.5-.323-.5H824.422c-.178,0-.323.225-.323.5h0C824.1-531.515,824.243-531.29,824.422-531.29Z" transform="translate(-824.099 676.857)" fill="#bdac56"/>
      </g>
    </g>
  </g>
</svg>
