<svg xmlns="http://www.w3.org/2000/svg" width="86" height="86" viewBox="0 0 86 86">
  <g id="Grupo_94649" data-name="Grupo 94649" transform="translate(-213 -213)">
    <circle id="Elipse_5025" data-name="Elipse 5025" cx="38.065" cy="38.065" r="38.065" transform="translate(217.926 217.935)" fill="#96d78d"/>
    <path id="Trazado_151084" data-name="Trazado 151084" d="M261.425,218.316a6.611,6.611,0,0,0,2.45,7.6l3.04,2.129a9.111,9.111,0,0,0-5.728,2.657,6.289,6.289,0,0,0,.839,9.6l5.691,3.985,3.985,5.691a6.289,6.289,0,0,0,9.6.839,9.12,9.12,0,0,0,2.658-5.728l2.128,3.039a6.611,6.611,0,0,0,7.6,2.451,38.09,38.09,0,0,0-32.259-32.26Z" fill="#6fcb8e"/>
    <path id="Trazado_151085" data-name="Trazado 151085" d="M256,214.26A41.74,41.74,0,1,0,297.74,256,41.739,41.739,0,0,0,256,214.26Zm0,76.268A34.528,34.528,0,1,1,290.528,256,34.528,34.528,0,0,1,256,290.528Z" fill="#565e75"/>
    <path id="Trazado_151086" data-name="Trazado 151086" d="M263.832,215c-.1.09-.192.181-.287.275l-.553.553a6.592,6.592,0,0,0-1.793,6.036,34.554,34.554,0,0,1,28.94,28.94,6.592,6.592,0,0,0,6.036-1.793l.553-.553c.094-.094.185-.19.275-.287A41.779,41.779,0,0,0,263.832,215Z" fill="#404656"/>
    <path id="Trazado_151087" data-name="Trazado 151087" d="M238.07,273.93a25.356,25.356,0,0,0,35.86,0L256,256Z" fill="#6fcb8e"/>
    <path id="Trazado_151088" data-name="Trazado 151088" d="M258.35,253.65a3.323,3.323,0,0,1,0,4.7l-18.278,18.278a3.323,3.323,0,1,1-4.7-4.7L253.65,253.65A3.323,3.323,0,0,1,258.35,253.65Z" fill="#565e75"/>
    <path id="Trazado_151089" data-name="Trazado 151089" d="M253.65,253.65l-7.438,7.438a11.1,11.1,0,0,0,4.7,4.7l7.438-7.438a3.323,3.323,0,0,0-4.7-4.7Z" fill="#404656"/>
    <circle id="Elipse_5026" data-name="Elipse 5026" cx="5.997" cy="5.997" r="5.997" transform="translate(250.003 250.003)" fill="#f9e9cd"/>
    <g id="Grupo_94609" data-name="Grupo 94609">
      <path id="Trazado_151090" data-name="Trazado 151090" d="M274.108,217.763l11.474,5.994-6.59,6.59-12.227-8.561a1.571,1.571,0,0,1-.21-2.4l.553-.553A5.984,5.984,0,0,1,274.108,217.763Z" fill="#8cade0"/>
      <path id="Trazado_151091" data-name="Trazado 151091" d="M294.237,237.892l-5.994-11.474-6.591,6.59,8.562,12.227a1.571,1.571,0,0,0,2.4.21l.553-.553a5.984,5.984,0,0,0,1.072-7Z" fill="#8cade0"/>
      <path id="Trazado_151092" data-name="Trazado 151092" d="M264.916,236.171l5.779,4.046a4.441,4.441,0,0,1,1.087,1.088l4.047,5.779a1.25,1.25,0,0,0,1.907.167,4.143,4.143,0,0,0,.743-4.847l-.76-1.454c4.824-1.928,10.576-6.89,13.543-9.857,2.86-2.86,3.337-7.973.478-10.833s-7.973-2.382-10.833.478c-2.967,2.967-7.929,8.719-9.857,13.543l-1.454-.76a4.143,4.143,0,0,0-4.847.743,1.249,1.249,0,0,0,.167,1.907Z" fill="#cbe7f8"/>
    </g>
    <path id="Trazado_151093" data-name="Trazado 151093" d="M280.512,288.218A40.482,40.482,0,0,1,231.1,224.085a1.26,1.26,0,0,0-1.552-1.986,43,43,0,0,0,52.495,68.123,1.26,1.26,0,1,0-1.527-2Zm4.233-63.248a6.9,6.9,0,0,1,2.285,2.285,1.259,1.259,0,0,0,2.117-1.365,9.375,9.375,0,0,0-3.037-3.037,1.259,1.259,0,0,0-1.365,2.117Zm11.438,15.7a7.255,7.255,0,0,0-.829-3.364l-2.931-5.609c3.225-3.515,3.354-9.183.208-12.329-3.311-3.311-8.982-2.853-12.331.207l-5.608-2.931a7.258,7.258,0,0,0-3.364-.829,43.075,43.075,0,0,0-36.748,2.89,1.26,1.26,0,0,0,1.257,2.183,40.572,40.572,0,0,1,31.391-3.788,10.749,10.749,0,0,0-1.563,1.395,2.827,2.827,0,0,0-.7,2.843,35.737,35.737,0,1,0,25.7,25.7,2.816,2.816,0,0,0,.844.129,3.465,3.465,0,0,0,2.553-1.383,7.352,7.352,0,0,0,.845-1.014,40.548,40.548,0,0,1-10.017,39.594,1.26,1.26,0,0,0,1.8,1.765,43.037,43.037,0,0,0,9.5-45.456ZM281.8,221.629c2.361-2.361,6.681-2.847,9.051-.478,2.243,2.244,2.016,6.558-.478,9.051-3.33,3.331-8.765,7.838-13.119,9.579a1.259,1.259,0,0,0-.649,1.753l.759,1.453a2.893,2.893,0,0,1-.5,3.374l-4.047-5.779a5.645,5.645,0,0,0-1.4-1.4l-5.769-4.04a2.87,2.87,0,0,1,3.364-.508l1.453.76a1.261,1.261,0,0,0,1.753-.649c1.742-4.356,6.248-9.79,9.579-13.12Zm-39.15,33.111h-.964a14.4,14.4,0,0,1,13.056-13.056v.964a1.26,1.26,0,1,0,2.52,0v-.964a14.394,14.394,0,0,1,13.055,13.056h-.963a1.26,1.26,0,0,0,0,2.52h.963a14.394,14.394,0,0,1-13.055,13.056v-.964a1.26,1.26,0,0,0-2.52,0v.965a14.3,14.3,0,0,1-5.135-1.441l5.657-5.657a7.257,7.257,0,1,0-6.481-6.481l-5.655,5.655a14.294,14.294,0,0,1-1.444-5.133h.966a1.26,1.26,0,0,0,0-2.52Zm8.615,1.26A4.737,4.737,0,1,1,256,260.737,4.742,4.742,0,0,1,251.263,256Zm-1.641,3.459a7.315,7.315,0,0,0,2.919,2.919l-13.36,13.359a2.063,2.063,0,0,1-2.918-2.918Zm-1.879,11.28a16.82,16.82,0,0,0,7,2.107v1.07a1.26,1.26,0,0,0,2.52,0v-1.069a16.921,16.921,0,0,0,15.587-15.587h1.069a1.26,1.26,0,0,0,0-2.52h-1.069a16.921,16.921,0,0,0-15.587-15.587v-1.069a1.26,1.26,0,0,0-2.52,0v1.069a16.921,16.921,0,0,0-15.587,15.587h-1.069a1.26,1.26,0,0,0,0,2.52h1.07a16.813,16.813,0,0,0,2.109,6.995l-5.232,5.232A23.854,23.854,0,0,1,231.9,256a24.112,24.112,0,0,1,32.081-22.742,2.508,2.508,0,0,0,.209,3.945c5.828,4.152,6,4.028,6.558,4.825l4.046,5.779a2.507,2.507,0,0,0,3.946.209,24.1,24.1,0,0,1-36.231,27.954Zm19.7-50.46.553-.553a4.7,4.7,0,0,1,5.526-.847l4.942,2.582c-1.289,1.393-2.582,2.915-3.717,4.378l-7.262-5.085A.31.31,0,0,1,267.446,220.279ZM256,289.269a33.269,33.269,0,0,1,0-66.538,32.91,32.91,0,0,1,15.045,3.59l2.206,1.545a33.677,33.677,0,0,0-2.809,4.676,5.54,5.54,0,0,0-3.314-.724A26.37,26.37,0,0,0,256,229.383,26.647,26.647,0,0,0,229.383,256a26.356,26.356,0,0,0,4.845,15.313,4.582,4.582,0,0,0,6.459,6.459A26.356,26.356,0,0,0,256,282.617,26.647,26.647,0,0,0,282.617,256a26.376,26.376,0,0,0-2.434-11.128,5.676,5.676,0,0,0-.725-3.314,33.687,33.687,0,0,0,4.677-2.809l1.544,2.206A32.91,32.91,0,0,1,289.269,256,33.307,33.307,0,0,1,256,289.269ZM292.274,244l-.553.553a.31.31,0,0,1-.475-.042l-5.085-7.262c1.463-1.134,2.985-2.428,4.378-3.717l2.581,4.942a4.7,4.7,0,0,1-.846,5.526Z"/>
  </g>
</svg>
