<svg xmlns="http://www.w3.org/2000/svg" width="92" height="92" viewBox="0 0 92 92">
  <g id="Grupo_99805" data-name="Grupo 99805" transform="translate(-359.591 -7027.758)">
    <circle id="Elipse_5059" data-name="Elipse 5059" cx="46" cy="46" r="46" transform="translate(359.591 7027.758)" fill="#5038a1"/>
    <circle id="Elipse_5060" data-name="Elipse 5060" cx="39.292" cy="39.292" r="39.292" transform="translate(366.591 7034.466)" fill="#8c6df2"/>
    <g id="Grupo_98546" data-name="Grupo 98546" transform="translate(-4.409 2.18)">
      <g id="Grupo_98532" data-name="Grupo 98532" transform="translate(154.776 6814.41)">
        <path id="Trazado_155694" data-name="Trazado 155694" d="M265.822,258.267l-8.961,2.33a3.429,3.429,0,0,1-1.69.009l-9.454-2.357a3.366,3.366,0,0,1-2.551-3.266V244.655A11.554,11.554,0,0,1,254.72,233.1h2.066a11.554,11.554,0,0,1,11.554,11.554V255.01A3.364,3.364,0,0,1,265.822,258.267Z" fill="#fd9727"/>
        <path id="Trazado_155695" data-name="Trazado 155695" d="M256.786,233.1H254.72a11.718,11.718,0,0,0-1.531.1,11.556,11.556,0,0,1,10.024,11.453V255.01a3.365,3.365,0,0,1-2.519,3.257l-7.295,1.9,1.772.442a3.429,3.429,0,0,0,1.69-.009l8.961-2.33a3.364,3.364,0,0,0,2.518-3.257V244.655A11.554,11.554,0,0,0,256.786,233.1Z" fill="#ff6d3a"/>
        <g id="Grupo_98530" data-name="Grupo 98530">
          <path id="Trazado_155696" data-name="Trazado 155696" d="M243.7,251.868h2.452v-5.986H243.7a1.3,1.3,0,0,0-1.305,1.3v3.377A1.3,1.3,0,0,0,243.7,251.868Z" fill="#3d6687"/>
          <path id="Trazado_155697" data-name="Trazado 155697" d="M268.3,251.868h-2.452v-5.986H268.3a1.3,1.3,0,0,1,1.3,1.3v3.377A1.3,1.3,0,0,1,268.3,251.868Z" fill="#3d6687"/>
        </g>
        <path id="Trazado_155698" data-name="Trazado 155698" d="M261.536,262.313a1.837,1.837,0,0,1-1.474-1.8v-4.139h-8.124v4.139a1.837,1.837,0,0,1-1.474,1.8l-.99.2v6.646h13.052v-6.646Z" fill="#fed9a8"/>
        <path id="Trazado_155699" data-name="Trazado 155699" d="M269.993,264.544,261.846,262a.73.73,0,0,0-.721.168L256,267.028l-5.125-4.856a.73.73,0,0,0-.721-.168l-8.147,2.54a8.491,8.491,0,0,0-6.091,8.144v5.428a.782.782,0,0,0,.782.782h38.6a.783.783,0,0,0,.782-.782v-5.428A8.491,8.491,0,0,0,269.993,264.544Z" fill="#ff4c4c"/>
        <path id="Trazado_155700" data-name="Trazado 155700" d="M269.993,264.544,261.846,262a.73.73,0,0,0-.721.168l-.958.907,4.7,1.465a8.49,8.49,0,0,1,6.092,8.144v6.21H275.3a.783.783,0,0,0,.782-.783v-5.427A8.491,8.491,0,0,0,269.993,264.544Z" fill="#ef2929"/>
        <path id="Trazado_155701" data-name="Trazado 155701" d="M256,259.815h0a10.124,10.124,0,0,1-10.124-10.124v-2.846A10.124,10.124,0,0,1,256,236.721h0a10.124,10.124,0,0,1,10.124,10.124v2.846A10.124,10.124,0,0,1,256,259.815Z" fill="#fed9a8"/>
        <path id="Trazado_155702" data-name="Trazado 155702" d="M261,238.039v11.652a10.129,10.129,0,0,1-7.561,9.8,10.129,10.129,0,0,0,2.564.328h0a10.124,10.124,0,0,0,10.124-10.124v-2.846A10.119,10.119,0,0,0,261,238.039Z" fill="#f4c892"/>
        <g id="Grupo_98531" data-name="Grupo 98531">
          <path id="Trazado_155703" data-name="Trazado 155703" d="M250.875,262.172,256,267.028l-3.161,1.077a2.018,2.018,0,0,1-2.17-.581l-3.91-4.461,3.4-1.059A.73.73,0,0,1,250.875,262.172Z" fill="#d4145a"/>
          <path id="Trazado_155704" data-name="Trazado 155704" d="M261.125,262.172,256,267.028l2.865.976a2.485,2.485,0,0,0,2.672-.715l3.7-4.226L261.846,262A.73.73,0,0,0,261.125,262.172Z" fill="#d4145a"/>
        </g>
        <path id="Trazado_155705" data-name="Trazado 155705" d="M249.952,274.881h-5.211a.524.524,0,0,1-.523-.524v-2.308a.523.523,0,0,1,.523-.524h5.211a.523.523,0,0,1,.524.524v2.308A.524.524,0,0,1,249.952,274.881Z" fill="#eda558"/>
        <path id="Trazado_155706" data-name="Trazado 155706" d="M268.34,246.789s-4.368-.346-5.863-4.364c0,0-10.559,8.453-19.311,4.364v-2.134A11.554,11.554,0,0,1,254.72,233.1h2.066a11.554,11.554,0,0,1,11.554,11.554v2.134Z" fill="#fd9727"/>
        <path id="Trazado_155707" data-name="Trazado 155707" d="M256.786,233.1H254.72a11.718,11.718,0,0,0-1.531.1,11.557,11.557,0,0,1,9.992,10.6,7.462,7.462,0,0,0,5.159,2.99v-2.134A11.554,11.554,0,0,0,256.786,233.1Z" fill="#ff6d3a"/>
        <path id="Trazado_155708" data-name="Trazado 155708" d="M257.8,258.556a1.338,1.338,0,0,1-.225-2.656l2.255-.386a1.337,1.337,0,1,1,.453,2.636l-2.255.387A1.366,1.366,0,0,1,257.8,258.556Z" fill="#d4145a"/>
        <path id="Trazado_155709" data-name="Trazado 155709" d="M274.947,267.189a9.112,9.112,0,0,0-4.754-3.307l-4.745-1.479h0l-3.395-1.058a1.422,1.422,0,0,0-.914.023,1.15,1.15,0,0,1-.385-.855V260.3L266,258.937a4.059,4.059,0,0,0,3.036-3.927v-2.59a2,2,0,0,0,1.263-1.856v-3.377a1.982,1.982,0,0,0-1.263-1.855v-.677a12.466,12.466,0,0,0-.1-1.559.692.692,0,0,0-1.373.174,11.021,11.021,0,0,1,.088,1.385v1.311a7.555,7.555,0,0,1-1.359-.468l-.072-.034a5.914,5.914,0,0,1-2.771-2.567l-.032-.06c-.026-.051-.052-.1-.077-.156s-.039-.082-.057-.124-.035-.076-.052-.115c-.036-.085-.071-.171-.1-.258a.691.691,0,0,0-.464-.426.7.7,0,0,0-.162-.025h-.031a.435.435,0,0,0-.051,0,.691.691,0,0,0-.334.121l-.039.028-.028.021,0,0-.021.016-.017.013-.02.016-.033.025-.017.013-.051.038-.011.009c-1.28.96-8.4,6.012-15.238,5.048l-.036-.006c-.11-.016-.22-.033-.329-.052l-.094-.017c-.1-.017-.189-.036-.284-.055l-.091-.019c-.11-.024-.219-.049-.327-.076l-.133-.035-.2-.054-.159-.046c-.073-.022-.147-.045-.22-.069l-.2-.065c-.074-.025-.147-.051-.221-.078l-.131-.049c-.1-.037-.2-.076-.3-.117l-.027-.011v-1.684a10.874,10.874,0,0,1,10.862-10.862h2.066a10.861,10.861,0,0,1,9.981,6.567.691.691,0,1,0,1.27-.547,12.241,12.241,0,0,0-11.251-7.4H254.72a12.26,12.26,0,0,0-12.246,12.245v.96a2,2,0,0,0-.769,1.572v3.377a1.993,1.993,0,0,0,.769,1.573v2.846a4.051,4.051,0,0,0,3.076,3.937l5.7,1.42v.172a1.148,1.148,0,0,1-.385.855,1.422,1.422,0,0,0-.914-.023l-3.4,1.058h0l-4.745,1.479a9.16,9.16,0,0,0-5.842,5.191c-.083.194-.16.393-.23.593a.691.691,0,1,0,1.306.455c.059-.169.125-.339.2-.5a7.775,7.775,0,0,1,4.966-4.41l.01,0,4.323-1.348,3.612,4.123a2.7,2.7,0,0,0,2.914.78l2.938-1,2.642.9a3.172,3.172,0,0,0,3.416-.914l3.406-3.888,4.323,1.348.01,0a7.8,7.8,0,0,1,5.6,7.48v5.427a.091.091,0,0,1-.091.091h-3.736v-6.324a.692.692,0,0,0-1.384,0v6.324H241.818v-6.324a.692.692,0,0,0-1.384,0v6.324H236.7a.091.091,0,0,1-.091-.091v-4.981a.691.691,0,1,0-1.383,0v4.981a1.476,1.476,0,0,0,1.474,1.475h38.6a1.476,1.476,0,0,0,1.474-1.475v-5.427A9.118,9.118,0,0,0,274.947,267.189Zm-7.3-12.179a2.674,2.674,0,0,1-2,2.588l-3.322.864.125-.1.052-.039q.177-.133.349-.275l.044-.037q.183-.151.359-.311l.017-.015q.282-.256.544-.531l.039-.041c.086-.091.172-.184.255-.279l.781-.133a3.6,3.6,0,0,0,2.757-2.253v.557Zm-.931-3.86q.046-.342.071-.69l.005-.07c.006-.091.01-.182.014-.273l0-.088c0-.113.006-.225.006-.338v-2.514a7.69,7.69,0,0,0,1.468.3h0a.69.69,0,0,0,.523-.182.673.673,0,0,0,.053-.054l.016-.021.03-.038,0-.005v3.385a.613.613,0,0,1-.583.611h-1.615Zm-1.1,3.482c.048-.094.1-.188.14-.283.023-.049.046-.1.068-.146.043-.092.084-.185.124-.278.021-.049.041-.1.061-.146.035-.085.068-.17.1-.256.015-.04.031-.079.045-.119.04-.109.078-.219.115-.33.013-.042.027-.083.04-.124.036-.115.07-.229.1-.345l.013-.045h.079v.586a2.225,2.225,0,0,1-1.137,1.943c.017-.031.033-.062.05-.092.04-.071.079-.142.118-.213C265.566,254.733,265.593,254.683,265.62,254.632Zm-22.17-3.51h0a.611.611,0,0,1-.36-.557v-3.05l.061.026.1.041c.069.03.138.058.207.086l.091.037c.093.037.187.073.281.107l.012,0a12.647,12.647,0,0,0,1.348.408v1.467c0,.113,0,.226.006.338l0,.088c0,.091.008.182.014.273l.005.07q.024.348.071.69l0,.027H243.7A.627.627,0,0,1,243.45,251.122Zm2.435,6.455a2.668,2.668,0,0,1-2.027-2.594V252.56h1.712l.013.044c.033.118.068.236.106.353.013.041.026.082.04.123.037.113.076.225.117.337.015.041.031.082.046.122.036.093.072.184.11.275.022.054.045.108.068.162.037.086.076.172.115.257.022.045.043.091.065.137.047.1.1.194.145.29l.08.151c.05.092.1.183.152.273l.093.157c.039.065.079.129.119.193s.1.151.146.226l.1.15c.06.087.121.173.184.259.031.042.062.085.094.127.073.1.148.191.224.285.025.032.05.063.076.094.051.063.1.124.156.185l.038.043q.146.168.3.329l.052.054q.15.156.306.306l.05.047c.109.1.219.2.332.3l.04.035c.192.166.39.326.594.478l.01.008c.087.065.175.131.264.193Zm1.26-4.637-.008-.021c-.025-.067-.049-.135-.072-.2l0-.013q-.1-.306-.186-.62l-.012-.045c-.013-.05-.025-.1-.037-.151s-.017-.072-.025-.108l-.03-.135c-.007-.037-.015-.074-.022-.111s-.016-.078-.023-.117-.017-.092-.024-.139l-.016-.1c-.009-.054-.017-.108-.025-.162l-.011-.079c-.008-.06-.015-.12-.022-.179l-.007-.067c-.007-.063-.013-.127-.018-.19l0-.059c-.006-.065-.01-.13-.014-.2l0-.056c0-.067-.006-.133-.008-.2l0-.052c0-.084,0-.168,0-.252v-1.211a14.822,14.822,0,0,0,3.223.048l.109-.011.273-.028.241-.028.069-.009a22.21,22.21,0,0,0,5.894-1.675,32,32,0,0,0,5.82-3.279,7.176,7.176,0,0,0,3.232,3.132c0,.072,0,.146,0,.216v2.846c0,.083,0,.167,0,.251l0,.053c0,.066-.005.133-.008.2l0,.056c0,.065-.008.13-.013.2l-.005.059-.018.191-.008.066c-.007.06-.014.12-.022.179l-.011.079-.024.162-.016.1c-.008.046-.016.092-.025.138s-.014.078-.022.117-.015.074-.023.112-.019.09-.029.135-.017.071-.026.107c-.012.051-.024.1-.037.151l-.012.047c-.055.208-.116.413-.185.616l-.005.016c-.023.067-.047.135-.071.2l-.008.023a9.442,9.442,0,0,1-1.478,2.62l-1.554.267a2.023,2.023,0,0,0-2.105-1l-2.255.387a2.029,2.029,0,0,0-.483,3.853,9.43,9.43,0,0,1-4.83-.771l-.078-.035A9.49,9.49,0,0,1,247.145,252.94Zm13.444,4.265a.644.644,0,0,1-.418.263l-2.256.387a.673.673,0,0,1-.11.009.646.646,0,0,1-.108-1.282l2.256-.387a.67.67,0,0,1,.11-.009.646.646,0,0,1,.526,1.019Zm-7.973,10.245a1.324,1.324,0,0,1-1.427-.382l-3.209-3.661,2.38-.742a.037.037,0,0,1,.039.009l4.294,4.069ZM256,266.075l-4.051-3.839a2.535,2.535,0,0,0,.681-1.724v-.541c.045.015.091.027.136.042l.068.021c.137.042.275.081.413.117l.075.02c.077.019.154.039.232.057l.06.013c.134.03.267.057.4.082l.14.026.195.032c.1.015.2.029.3.041.051.007.1.012.156.018.083.009.168.018.252.025l.106.009c.119.01.238.016.357.021l.1,0c.126.005.253.008.38.008s.253,0,.38-.008l.1,0c.119-.005.238-.012.356-.021.036,0,.071-.006.107-.009.084-.007.168-.016.252-.025l.156-.018c.1-.012.2-.026.3-.041l.2-.032.14-.026c.135-.025.268-.052.4-.082l.06-.013.232-.057.074-.02c.139-.036.276-.076.413-.117l.069-.021c.045-.015.091-.027.136-.042v.541a2.535,2.535,0,0,0,.681,1.724Zm5.017.758a1.788,1.788,0,0,1-1.929.516l-1.781-.606,4.294-4.069a.037.037,0,0,1,.039-.009l2.38.742Z"/>
        <path id="Trazado_155710" data-name="Trazado 155710" d="M249.952,275.572a1.217,1.217,0,0,0,1.216-1.215v-2.308a1.217,1.217,0,0,0-1.216-1.216h-5.211a1.217,1.217,0,0,0-1.215,1.216v2.308a1.216,1.216,0,0,0,1.215,1.215Zm-5.043-3.356h4.876v1.973h-4.876Z"/>
      </g>
    </g>
  </g>
</svg>
