<svg xmlns="http://www.w3.org/2000/svg" width="295" height="195.679" viewBox="0 0 295 195.679">
  <g id="Grupo_94595" data-name="Grupo 94595" transform="translate(-231.151 -137.85)">
    <path id="Trazado_151112" data-name="Trazado 151112" d="M295.928,332.99S260.8,296.966,283.172,254.6s52.383-21.044,50.947-70.358,69.064-53.527,91.5-39.22,22.294,31.528,68.621,25.846,55.16,41.819,43.1,66.023c-17.111,34.341,47.449,28.7,6.747,96.18Z" transform="translate(-39.438)" fill="#ebf3fa"/>
    <path id="Trazado_151113" data-name="Trazado 151113" d="M1463.81,357.831a57.429,57.429,0,0,1-.922,10.274A57.054,57.054,0,0,1,1354.6,380.923a56.052,56.052,0,0,1-2.905-8.2,57.439,57.439,0,0,1-.671-27.026c.009-.046.02-.088.028-.134a57.187,57.187,0,0,1,22.263-33.931q1.758-1.276,3.619-2.418a56.731,56.731,0,0,1,29.834-8.419q2.176,0,4.31.162a56.652,56.652,0,0,1,28.25,10.041h0a57.257,57.257,0,0,1,15.645,16.337q1.31,2.07,2.447,4.254a56.776,56.776,0,0,1,6.382,26.246Z" transform="translate(-989.782 -144.179)" fill="#dce8ff"/>
    <path id="Trazado_151114" data-name="Trazado 151114" d="M1397.344,396.994c-2.276,3.6.95,9.864-5.878,8.157s-11-2.467-11.381,1.326,5.121,3.8,5.121,7.779-2.467,5.3-6.259,3.409-4.885-4.643-9.295-2.936-6.971.569-7.967-2.845a4.987,4.987,0,0,0-.708-1.494c.009-.045.02-.088.028-.134a57.189,57.189,0,0,1,22.263-33.931q1.758-1.276,3.619-2.418a7.5,7.5,0,0,1,5.716,2.982c3.983,4.934,6.638,2.467,5.691,8.157s.569,6.45,3.792,6.259,7.019-.191,7.4,2.276S1399.62,393.389,1397.344,396.994Z" transform="translate(-999.73 -208.875)" fill="#9fbdff" opacity="0.7"/>
    <path id="Trazado_151115" data-name="Trazado 151115" d="M1656.681,786.861s-5.026,1.612-6.354-1.9.19-4.268-4.268-5.311-4.837-4.078-7.682-3.7-1.423,1.517-4.742,3.983-6.354,1.328-6.259,5.88,5.026,5.263,6.022,8.251-.711,4.268,1.423,6.544,6.117,1.28,4.267,4.41-4.694,5.548-3.272,10.385.427,5.121,2.845,8.535,7.113,4.552,7.824,2.276-3.272-5.263-1.992-7.539,3.414-.711,4.268-4.125,4.315-3.414,4.6-5.785-4.173-5.975-2.466-7.492,5.122,2.75,7.777-1.043.854-6.828,3.6-10.432S1658.578,784.774,1656.681,786.861Z" transform="translate(-1235.453 -564.6)" fill="#9fbdff" opacity="0.7"/>
    <path id="Trazado_151116" data-name="Trazado 151116" d="M2002.229,611.394a57.429,57.429,0,0,1-.922,10.274,56.723,56.723,0,0,1-9,21.882,6.51,6.51,0,0,1-4.561-.122c-7.113-2.845-1.85-10.527,1-14.368s-4.41-2.134-9.673-5.69.569-13.088-4.837-11.523-11.95,3.556-15.08-1.707,2.845-6.117.143-10.527,1.565-6.971,6.971-7.4,4.694-4.268,11.38-4.837,6.544,7.966,13.941,7.4,7.064,1.138,7.064,1.138a3.45,3.45,0,0,1,1.545.324A57.159,57.159,0,0,1,2002.229,611.394Z" transform="translate(-1528.201 -397.742)" fill="#9fbdff" opacity="0.7"/>
    <path id="Trazado_151117" data-name="Trazado 151117" d="M2019.32,409.979c-6.151,2.993-8.621-5.147-13.879-2.7-5.3,2.467-4.373-2.276-8.544-5.312s-12.518,2.467-12.14-2.276,6.637-3.414,7.966-7.207,7.4-2.845,7.4-2.845a4.111,4.111,0,0,1,1.1-.25s0,0,0,0a57.252,57.252,0,0,1,15.646,16.337Q2018.183,407.795,2019.32,409.979Z" transform="translate(-1551.673 -222.573)" fill="#9fbdff" opacity="0.7"/>
    <path id="Trazado_151118" data-name="Trazado 151118" d="M1719.5,375.821s3.225-4.652-1.9-6.025-5.026.424-9.01,0-5.548,2.658-2.561,6.025,5.406,9.827,8.109,6.384S1716.324,376.153,1719.5,375.821Z" transform="translate(-1303.679 -204.773)" fill="#9fbdff" opacity="0.7"/>
    <path id="Trazado_151119" data-name="Trazado 151119" d="M2208.555,1452.949c2.268-7.231-9.365-11.949-9.365-11.949s-13.954,6.276-16.173,5.221,10.883-7.7,10.883-7.7c-3.735-2.928-17-4.528-17-4.528s-7.4,13-9.288,11.427,7.137-11.173,7.137-11.173c-4.592-1.3-11.059.893-11.059.893-9.171,4.45-5.644,20.444-11.541,23.731h0a17.641,17.641,0,0,0-2.822,1.713l1.05.671q.4-.34.806-.633a.007.007,0,0,1,0,0l.012-.008c.176-.116.427-.281.735-.48h0c.722-.423,1.235-.749,1.587-1l0,0c2.221-1.358,6.544-3.209,6.516-2.991-.663,5,7.917,11.386,13.582,13.557s4.384-.635,3.152-4.651-7.27-7.021-8.365-8.986,1.919-1.306,5.094,1.084,2.712,6.8,7.778,10.754,15.656-3.562,15.656-3.562c-4.463-1.223-9.829-7.543-9.265-8.992s10.371,5,12.158,5.6S2206.287,1460.18,2208.555,1452.949Z" transform="translate(-1697.305 -1146.757)" fill="#dfebfd"/>
    <path id="Trazado_151120" data-name="Trazado 151120" d="M357.49,1305.877c1.083-9.661,17.18-9.175,17.18-9.175s13.128,14.593,16.279,14.5-8.788-14.668-8.788-14.668c5.9-1.5,22.3,3.488,22.3,3.488s1.952,19.084,4.984,18.221-2.59-16.81-2.59-16.81c6.064.846,12.516,6.775,12.516,6.775,8.46,9.971-3.962,26.918,1.257,33.828h0a22.622,22.622,0,0,1,2.425,3.471l-1.58.244q-.292-.606-.618-1.161a.01.01,0,0,0,0-.007l-.01-.016c-.146-.228-.355-.551-.614-.944h0v0c-.628-.871-1.062-1.519-1.346-1.991l0,0c-1.9-2.744-6.019-7.156-6.1-6.885-1.812,6.213-15.188,9.263-22.961,8.879s-4.816-3.016-1.29-7.091,12.168-4.475,14.471-6.215-1.576-2.526-6.54-1.366-6.7,6.571-14.7,8.594-16.531-12.288-16.531-12.288c5.871.875,15.442-3.764,15.531-5.756s-14.759.494-17.167.272S356.408,1315.539,357.49,1305.877Z" transform="translate(-111.653 -1025.019)" fill="#dfebfd"/>
    <g id="Grupo_94628" data-name="Grupo 94628" transform="translate(466.274 264.548)">
      <path id="Trazado_151121" data-name="Trazado 151121" d="M2287.161,1261.289s4.17-14.873,13.344-22.708a1.715,1.715,0,0,1,2.8,1.61c0,.026-.01.053-.015.08C2302.764,1242.959,2292.293,1253.009,2287.161,1261.289Z" transform="translate(-2285.541 -1238.169)" fill="#c5ddff" opacity="0.5"/>
      <path id="Trazado_151122" data-name="Trazado 151122" d="M2273.1,1289.317s10.689-17.737,25.212-24.056a1.82,1.82,0,0,1,2.366.841,2.887,2.887,0,0,1-.284,2.58C2298.817,1271.849,2282.329,1280.768,2273.1,1289.317Z" transform="translate(-2273.096 -1262.005)" fill="#c5ddff" opacity="0.5"/>
    </g>
    <g id="Grupo_94629" data-name="Grupo 94629" transform="translate(264.655 248.263)">
      <path id="Trazado_151123" data-name="Trazado 151123" d="M624.946,1119.864s-4.17-14.873-13.344-22.708a1.715,1.715,0,0,0-2.8,1.61c0,.026.01.053.015.08C609.343,1101.534,619.814,1111.583,624.946,1119.864Z" transform="translate(-598.8 -1096.743)" fill="#c5ddff" opacity="0.5"/>
      <path id="Trazado_151124" data-name="Trazado 151124" d="M549.889,1147.892s-10.689-17.737-25.211-24.056a1.82,1.82,0,0,0-2.366.841,2.887,2.887,0,0,0,.284,2.58C524.167,1130.424,540.655,1139.343,549.889,1147.892Z" transform="translate(-522.123 -1120.579)" fill="#c5ddff" opacity="0.5"/>
    </g>
    <path id="Trazado_151125" data-name="Trazado 151125" d="M1191.276,567.725l-.045,130.1a7.738,7.738,0,0,1-7.74,7.736l-68.011-.023a7.738,7.738,0,0,1-7.736-7.742l.045-130.1a7.738,7.738,0,0,1,7.742-7.735l68.011.024A7.738,7.738,0,0,1,1191.276,567.725Z" transform="translate(-775.656 -373.506)" fill="#c2cfff"/>
    <path id="Trazado_151126" data-name="Trazado 151126" d="M1176.023,699.068l-68.012-.023a8.72,8.72,0,0,1-8.707-8.713l.045-130.1a8.72,8.72,0,0,1,8.713-8.707l68.011.023a8.72,8.72,0,0,1,8.707,8.713l-.045,130.1A8.72,8.72,0,0,1,1176.023,699.068Zm-67.961-145.6a6.775,6.775,0,0,0-6.77,6.765l-.045,130.1a6.775,6.775,0,0,0,6.765,6.77l68.011.023a6.774,6.774,0,0,0,6.769-6.765l.045-130.1a6.775,6.775,0,0,0-6.765-6.77Z" transform="translate(-768.189 -366.038)" fill="#163560"/>
    <g id="Grupo_94633" data-name="Grupo 94633" transform="translate(337.794 192.428)">
      <path id="Trazado_151127" data-name="Trazado 151127" d="M1200.724,662.793l-1.144.82-1.149-.812a1.407,1.407,0,0,1,2.293-.008Z" transform="translate(-1193.695 -656.406)" fill="#fff"/>
      <g id="Grupo_94630" data-name="Grupo 94630" transform="translate(3.104 3.801)">
        <path id="Trazado_151128" data-name="Trazado 151128" d="M1187.041,644.841a3.4,3.4,0,0,0-2.782,1.445l.726.51a2.514,2.514,0,0,1,4.1-.013l.723-.518A3.4,3.4,0,0,0,1187.041,644.841Z" transform="translate(-1184.259 -644.841)" fill="#fff"/>
      </g>
      <g id="Grupo_94631" data-name="Grupo 94631" transform="translate(0)">
        <path id="Trazado_151129" data-name="Trazado 151129" d="M1163.192,611.833a7.19,7.19,0,0,0-5.887,3.055l.726.51a6.312,6.312,0,0,1,10.294-.035l.72-.518A7.191,7.191,0,0,0,1163.192,611.833Z" transform="translate(-1157.305 -611.833)" fill="#fff"/>
      </g>
      <g id="Grupo_94632" data-name="Grupo 94632" transform="translate(1.688 2.08)">
        <path id="Trazado_151130" data-name="Trazado 151130" d="M1176.163,629.894a5.144,5.144,0,0,0-4.2,2.167l.726.51a4.264,4.264,0,0,1,6.926-.024l.72-.515A5.142,5.142,0,0,0,1176.163,629.894Z" transform="translate(-1171.965 -629.894)" fill="#fff"/>
      </g>
    </g>
    <g id="Grupo_94634" data-name="Grupo 94634" transform="translate(320.276 155.062)">
      <path id="Trazado_151131" data-name="Trazado 151131" d="M1253.666,421.867a19.451,19.451,0,0,0-11.367-1.074s7.329-.5,11.675,4.151c0,0,3.039-4.661,8.063-5.729C1262.038,419.215,1258.294,418.768,1253.666,421.867Z" transform="translate(-1214.994 -404.008)" fill="#9fc1f4"/>
      <path id="Trazado_151132" data-name="Trazado 151132" d="M1152.115,407.3a15.044,15.044,0,0,0-8.787-.882s5.671-.354,9.011,3.263a11.17,11.17,0,0,1,6.262-4.394A10.452,10.452,0,0,0,1152.115,407.3Z" transform="translate(-1127.419 -391.685)" fill="#9fc1f4"/>
      <path id="Trazado_151133" data-name="Trazado 151133" d="M1050.809,392.117a13.7,13.7,0,0,0-8.026-.464s5.145-.54,8.322,2.621a10.17,10.17,0,0,1,5.527-4.239A9.516,9.516,0,0,0,1050.809,392.117Z" transform="translate(-1038.451 -378.204)" fill="#9fc1f4"/>
      <path id="Trazado_151134" data-name="Trazado 151134" d="M1010.605,363.558a9.276,9.276,0,0,0-5.442.194s3.435-.689,5.777,1.243a6.888,6.888,0,0,1,3.459-3.207A6.445,6.445,0,0,0,1010.605,363.558Z" transform="translate(-1005.164 -353.213)" fill="#9fc1f4"/>
      <path id="Trazado_151135" data-name="Trazado 151135" d="M1225.619,288.894a9.276,9.276,0,0,0-5.444-.091s3.466-.509,5.7,1.542a6.887,6.887,0,0,1,3.622-3.022A6.445,6.445,0,0,0,1225.619,288.894Z" transform="translate(-1195.417 -287.323)" fill="#9fc1f4"/>
      <path id="Trazado_151136" data-name="Trazado 151136" d="M1311.592,360.881a13.514,13.514,0,0,0-7.882-.9s5.1-.25,8.055,3.039a10.033,10.033,0,0,1,5.677-3.872A9.39,9.39,0,0,0,1311.592,360.881Z" transform="translate(-1269.333 -350.858)" fill="#9fc1f4"/>
      <path id="Trazado_151137" data-name="Trazado 151137" d="M1274.639,314.054a12.494,12.494,0,0,0-7.313-.554s4.7-.409,7.548,2.527a9.278,9.278,0,0,1,5.11-3.776A8.681,8.681,0,0,0,1274.639,314.054Z" transform="translate(-1237.139 -309.373)" fill="#9fc1f4"/>
    </g>
    <g id="Grupo_94635" data-name="Grupo 94635" transform="translate(447.115 198.196)">
      <path id="Trazado_151138" data-name="Trazado 151138" d="M2106.708,672.261c0,5.7,9.607,14.824,9.607,14.824s9.607-9.119,9.607-14.824-4.3-10.331-9.607-10.331S2106.708,666.556,2106.708,672.261Zm3.946-.606a5.66,5.66,0,1,1,5.66,5.66A5.67,5.67,0,0,1,2110.654,671.655Z" transform="translate(-2106.708 -661.93)" fill="#f78e48"/>
    </g>
    <g id="Grupo_94636" data-name="Grupo 94636" transform="translate(414.311 162.293)">
      <path id="Trazado_151139" data-name="Trazado 151139" d="M1821.823,360.05c0,5.48,9.227,14.239,9.227,14.239s9.227-8.759,9.227-14.239-4.131-9.923-9.227-9.923S1821.823,354.57,1821.823,360.05Zm3.79-.582a5.437,5.437,0,1,1,5.437,5.437A5.447,5.447,0,0,1,1825.613,359.468Z" transform="translate(-1821.823 -350.127)" fill="#f78e48"/>
    </g>
    <g id="Grupo_94638" data-name="Grupo 94638" transform="translate(444.023 279.65)">
      <path id="Rectángulo_24187" data-name="Rectángulo 24187" d="M0,0H30.368a0,0,0,0,1,0,0V.336a4.132,4.132,0,0,1-4.132,4.132H4.468A4.468,4.468,0,0,1,0,0V0A0,0,0,0,1,0,0Z" transform="translate(1.042 45.153)" fill="#163560"/>
      <path id="Trazado_151140" data-name="Trazado 151140" d="M2112.31,1391.542v36.243a5.784,5.784,0,0,1-.141,1.272h-4.251a3.337,3.337,0,0,0-3.336,3.339v1.129h-16.653V1432.4a3.333,3.333,0,0,0-3.335-3.339H2080a5.77,5.77,0,0,1-.141-1.272v-36.243a5.737,5.737,0,0,1,5.736-5.74h20.981A5.737,5.737,0,0,1,2112.31,1391.542Z" transform="translate(-2079.858 -1383.905)" fill="#f78248"/>
      <g id="Grupo_94637" data-name="Grupo 94637" transform="translate(9.255)">
        <path id="Trazado_151141" data-name="Trazado 151141" d="M2173.312,1371.2c-7.516-2.963-12.759-.047-12.811-.017l-.271-.472a11.913,11.913,0,0,1,3.712-1.177,17.983,17.983,0,0,1,9.57,1.159Z" transform="translate(-2160.23 -1369.326)" fill="#163560"/>
      </g>
      <rect id="Rectángulo_24188" data-name="Rectángulo 24188" width="2.198" height="2.994" transform="translate(3.093 47.943)" fill="#163560"/>
      <path id="Trazado_151142" data-name="Trazado 151142" d="M2102.685,1803.6a1.564,1.564,0,1,1,1.564,1.565A1.564,1.564,0,0,1,2102.685,1803.6Z" transform="translate(-2100.056 -1752.213)" fill="#1f4777"/>
      <path id="Trazado_151143" data-name="Trazado 151143" d="M2108.022,1808.329a.949.949,0,1,1,.949.95A.95.95,0,0,1,2108.022,1808.329Z" transform="translate(-2104.779 -1756.939)" fill="#163560"/>
      <rect id="Rectángulo_24189" data-name="Rectángulo 24189" width="2.198" height="2.994" transform="translate(25.699 47.943)" fill="#163560"/>
      <path id="Trazado_151144" data-name="Trazado 151144" d="M2299.011,1803.6a1.564,1.564,0,1,1,1.564,1.565A1.564,1.564,0,0,1,2299.011,1803.6Z" transform="translate(-2273.777 -1752.213)" fill="#1f4777"/>
      <path id="Trazado_151145" data-name="Trazado 151145" d="M2304.348,1808.329a.949.949,0,1,1,.949.95A.95.95,0,0,1,2304.348,1808.329Z" transform="translate(-2278.499 -1756.939)" fill="#163560"/>
      <path id="Trazado_151146" data-name="Trazado 151146" d="M2130.506,1385.8v43.805a3.329,3.329,0,0,0-.836-.4V1385.8Z" transform="translate(-2123.934 -1383.905)" fill="#e06832"/>
      <rect id="Rectángulo_24190" data-name="Rectángulo 24190" width="0.836" height="47.724" transform="translate(12.428 1.897)" fill="#e06832"/>
      <rect id="Rectángulo_24191" data-name="Rectángulo 24191" width="0.836" height="47.724" transform="translate(18.674 1.897)" fill="#e06832"/>
      <path id="Trazado_151147" data-name="Trazado 151147" d="M2301.549,1385.8v43.78a3.3,3.3,0,0,0-.836.761V1385.8Z" transform="translate(-2275.282 -1383.905)" fill="#e06832"/>
    </g>
    <g id="Grupo_94640" data-name="Grupo 94640" transform="translate(422.576 235.338)">
      <path id="Trazado_151148" data-name="Trazado 151148" d="M1920.459,1206.044c0-.062.915-1.955.624-2.1s-.813-.124-.873.208A11.557,11.557,0,0,0,1920.459,1206.044Z" transform="translate(-1917.139 -1178.598)" fill="#ffb27d"/>
      <path id="Trazado_151149" data-name="Trazado 151149" d="M1897.264,1194.8c0-.186-.214-3.019-.692-3.583s-1.454-1.366-1.761-1.341a3.019,3.019,0,0,0-1.146,2.842,10.029,10.029,0,0,0,1.884,2.876Z" transform="translate(-1893.598 -1166.229)" fill="#ffb27d"/>
      <g id="Grupo_94639" data-name="Grupo 94639" transform="translate(0.33 19.495)">
        <path id="Trazado_151150" data-name="Trazado 151150" d="M1905.931,1159.443l-2.782.834a.175.175,0,0,1-.218-.117l-1.59-5.305a.175.175,0,0,1,.117-.217l2.782-.834a.174.174,0,0,1,.217.117l1.59,5.305A.174.174,0,0,1,1905.931,1159.443Z" transform="translate(-1900.773 -1153.796)" fill="#f1a34f"/>
        <path id="Trazado_151151" data-name="Trazado 151151" d="M1900.9,1161.281l-2.524.756a.309.309,0,0,1-.385-.208l-1.513-5.047a.309.309,0,0,1,.208-.385l2.524-.756a.309.309,0,0,1,.385.208l1.513,5.047A.309.309,0,0,1,1900.9,1161.281Z" transform="translate(-1896.466 -1155.417)" fill="#d86713"/>
      </g>
      <path id="Trazado_151152" data-name="Trazado 151152" d="M1901.642,1178.708s1.158-1.783,1.441-1.683c.4.142-1.05,2.4-1.05,2.4s1.078-1.69,1.246-1.563c.384.29-.227,1.352-.833,2.166,0,0,1.084-.992,1.119-.814.124.626-1.19,2.143-1.19,2.143l-.734-1.677Z" transform="translate(-1900.716 -1154.851)" fill="#ffb27d"/>
      <path id="Trazado_151153" data-name="Trazado 151153" d="M1894.094,1174.555c.056-.218.339-4.475.46-4.071s.409,2.636.409,2.636Z" transform="translate(-1894.036 -1149.043)" fill="#ffb27d"/>
      <path id="Trazado_151154" data-name="Trazado 151154" d="M1926.235,1148.883a31.548,31.548,0,0,1-1.456,8.364c-1.054,2.95-2.866,5.343-5.974,4.459q-.477-.136-.924-.292h0a14.214,14.214,0,0,1-8.356-7.233,3.256,3.256,0,0,1,1.832-1.061c1.271.068,6.858,2.441,7.215,2.513,1.292.26,2.336-6.842,3.176-9.3s4.277-3.561,4.277-3.561Z" transform="translate(-1907.688 -1124.543)" fill="#739af0"/>
      <path id="Trazado_151155" data-name="Trazado 151155" d="M1989.143,1239.508l-.122,3.335c-1.054,2.95-2.866,5.343-5.973,4.459q-.477-.136-.924-.292c.1.013,2,.27,2.8-.526.818-.819.732-3.533,2.239-5.342S1989.143,1239.508,1989.143,1239.508Z" transform="translate(-1971.93 -1210.139)" fill="#5283db"/>
      <path id="Trazado_151156" data-name="Trazado 151156" d="M2001.334,1764.081s1.553,1.418,1.25,2.426-1.705,1.679-1.9,2.911-.947,1.9-1.629,1.9h-3.252s-.5-.867.711-1.128,1.67-1.708,1.594-3.052a23.689,23.689,0,0,1,.114-3.134l2.577-.6Z" transform="translate(-1983.948 -1673.719)" fill="#133054"/>
      <path id="Trazado_151157" data-name="Trazado 151157" d="M1895.917,1773.256h9.575a.693.693,0,0,0,.694-.673,4.89,4.89,0,0,0-.342-2.065c-.512-1.134-.834-1.332,1.324-4.629-.649.668-2.4.363-3.876.164a46.788,46.788,0,0,1-3.525,4.961C1899.1,1771.494,1896.122,1771.323,1895.917,1773.256Z" transform="translate(-1895.65 -1675.913)" fill="#163560"/>
      <path id="Trazado_151158" data-name="Trazado 151158" d="M1956.4,1360.744s-6.943,13.1-8.83,20.314c-1.464,5.6,7.473,27.264,7.473,27.264a7.158,7.158,0,0,0,1.922-.517,3.119,3.119,0,0,0,1.616-1.693s-.53-15.49-2.339-22.984c-.406-1.682,1.967-7.108,5.973-10.08s5.673-12.533,3.289-13.179S1956.4,1360.744,1956.4,1360.744Z" transform="translate(-1941.211 -1316.502)" fill="#163560"/>
      <path id="Trazado_151159" data-name="Trazado 151159" d="M1960.015,1336.407s-7.3,26.755-9.513,32.763-5.725,18.76-5.725,18.76a9.253,9.253,0,0,0,5.063.549s10.672-15.635,11.137-22.545c.215-3.194,10.95-15.856,9.753-24.113Z" transform="translate(-1938.884 -1295.884)" fill="#1c468a"/>
      <path id="Trazado_151160" data-name="Trazado 151160" d="M2027.837,1166.492a12.7,12.7,0,0,1-4.3,1.013h0c-3.144.264-7.852-.2-13.586-3.392,0,0-1.6-1.318.365-6.923,1.488-4.244,2.212-13.19,4.028-21.343,0,0,5.89-1.848,10.615-.251,3.61,1.221,3.251,6.762,3.918,12.531.062.539.133,1.079.217,1.618C2030.078,1156.061,2027.837,1166.492,2027.837,1166.492Z" transform="translate(-1996.008 -1117.621)" fill="#739af0"/>
      <path id="Trazado_151161" data-name="Trazado 151161" d="M2034.787,1006.136s4.02-6.543,7.133-3.176c0,0,2.035.52,3.2,3.689,1.189,3.233-.663,6.087-1.9,5.626-.793-.3-1.164,1.071-1.164,1.071Z" transform="translate(-2018.53 -999.98)" fill="#233862"/>
      <path id="Trazado_151162" data-name="Trazado 151162" d="M2091.377,986.95s.277-2.709,4.235-2.446c0,0-1.872.033-2.274.814a3.045,3.045,0,0,1,2.354-.45c.993.427,1.414,2.285,1.36,2.876s-.816,2.439-1.483,2.536a3.1,3.1,0,0,1-1.542-.375Z" transform="translate(-2068.603 -984.486)" fill="#233862"/>
      <path id="Trazado_151163" data-name="Trazado 151163" d="M2065.637,1099.225a18.268,18.268,0,0,1-1.37-5.2l-.238.084-4,1.407s.28,1.281.459,2.5c.073.5.125,1.388.159,2.165.035.794.816.869,1.61.833C2064.375,1100.919,2065.539,1100.131,2065.637,1099.225Z" transform="translate(-2040.869 -1081.416)" fill="#ffb27d"/>
      <path id="Trazado_151164" data-name="Trazado 151164" d="M2060.034,1096.161s.28,1.281.459,2.5c2.292-.4,3.206-2.672,3.537-3.907Z" transform="translate(-2040.869 -1082.057)" fill="#e8945b"/>
      <path id="Trazado_151165" data-name="Trazado 151165" d="M2037.579,1027.681a12.229,12.229,0,0,0,.986-3.751c.039-1.193-1.175-5.42-5.42-4.175a5.948,5.948,0,0,0-2.309,1.275c-.849.771-2.01,2.339.051,5.883l.578,1.214Z" transform="translate(-2014.059 -1015.493)" fill="#233862"/>
      <path id="Trazado_151166" data-name="Trazado 151166" d="M2033.627,1044.345s5.458-.7,4.973-4.088-.107-5.767-3.613-5.467-4,1.692-4.11,2.863S2032.194,1044.438,2033.627,1044.345Z" transform="translate(-2015.064 -1028.975)" fill="#ffb27d"/>
      <path id="Trazado_151167" data-name="Trazado 151167" d="M2044.973,1030.353s2.065,3.765,4.437,4.023,3.278-.5,3.278-.5a6.546,6.546,0,0,1-2.671-3.523S2045.825,1028.3,2044.973,1030.353Z" transform="translate(-2027.543 -1024.264)" fill="#233862"/>
      <path id="Trazado_151168" data-name="Trazado 151168" d="M2029.3,1035.725a4.861,4.861,0,0,0-1.133,1.952c-.147.9-.013,2.7-.54,2.713,0,0-1.513-2.543-.471-4.255C2028.263,1034.319,2029.3,1035.725,2029.3,1035.725Z" transform="translate(-2011.455 -1029.366)" fill="#233862"/>
      <path id="Trazado_151169" data-name="Trazado 151169" d="M2046.959,1032.278s1.663,4.014,4.742,4.933c0,0-3.256-2.144-3.9-4.86S2046.959,1032.278,2046.959,1032.278Z" transform="translate(-2029.3 -1025.754)" fill="#233862"/>
      <path id="Trazado_151170" data-name="Trazado 151170" d="M2129.819,1264.331a12.705,12.705,0,0,1-4.3,1.013h0a4.813,4.813,0,0,1,.261-6c2.517-3.17-.2-9.018,1.742-12.2,1.349-2.213,2.662-1.7,3.336-1.181.062.539.133,1.079.217,1.618C2132.059,1253.9,2129.819,1264.331,2129.819,1264.331Z" transform="translate(-2097.99 -1215.46)" fill="#5283db"/>
      <path id="Trazado_151171" data-name="Trazado 151171" d="M2243.317,1368.084s.334.779.8.831a9.8,9.8,0,0,1,2.445.86c.619.367.577,2.01-.042,2.165s-.928-1.224-2.861-1.594c-.656-.125-1.611.328-2-1.243Z" transform="translate(-2201.585 -1323.914)" fill="#ffb27d"/>
      <path id="Trazado_151172" data-name="Trazado 151172" d="M2136.086,1140.252c5.62,2.068,5.828,12.025,8.334,16.41,2.584,4.523,5.1,10.475,5.1,10.475s-.046.178-1.009.454a4.031,4.031,0,0,1-1.387.112,88.516,88.516,0,0,1-6.753-6.7c-1.443-1.9-4.845-10.687-4.845-10.687S2133.854,1139.432,2136.086,1140.252Z" transform="translate(-2107.137 -1122.277)" fill="#739af0"/>
      <path id="Trazado_151173" data-name="Trazado 151173" d="M2242.868,1380.32a2.128,2.128,0,0,0,.966,1.21c.829.541,1.494,1.082,1.574.747s-.461-.7-.59-1.314S2242.868,1380.32,2242.868,1380.32Z" transform="translate(-2202.651 -1334.741)" fill="#ffb27d"/>
    </g>
    <rect id="Rectángulo_24192" data-name="Rectángulo 24192" width="81.567" height="59.047" transform="translate(333.058 247.757)" fill="#f78e48"/>
    <path id="Trazado_151174" data-name="Trazado 151174" d="M1332.668,1693.552v7.966c0,.1,0,.2-.006.292h-40.788c0-.1-.006-.194-.006-.292v-7.966c0-3.633,2.345-6.607,5.212-6.607h30.376C1330.323,1686.946,1332.668,1689.919,1332.668,1693.552Z" transform="translate(-938.579 -1370.723)" fill="#f78248"/>
    <g id="Grupo_94643" data-name="Grupo 94643" transform="translate(368.841 318.827)">
      <g id="Grupo_94641" data-name="Grupo 94641" transform="translate(2.182 2.518)">
        <path id="Trazado_151175" data-name="Trazado 151175" d="M1448.5,1736.441l-2.626-2.35.738-.824,1.7,1.518,2.347-3.357.906.633Z" transform="translate(-1445.879 -1731.428)" fill="#ffe3ca"/>
      </g>
      <g id="Grupo_94642" data-name="Grupo 94642" transform="translate(0)">
        <path id="Trazado_151176" data-name="Trazado 151176" d="M1431.956,1719.607a5.025,5.025,0,1,1,5.025-5.026A5.031,5.031,0,0,1,1431.956,1719.607Zm0-9.793a4.767,4.767,0,1,0,4.767,4.767A4.773,4.773,0,0,0,1431.956,1709.814Z" transform="translate(-1426.93 -1709.556)" fill="#ffe3ca"/>
      </g>
    </g>
    <path id="Trazado_151177" data-name="Trazado 151177" d="M1179.61,703.783s1.889-4.206,6.405-3.738c0,0,6.557-7.01,13.549-.934,0,0,7.433-1.505,12.937,1.3,3.67,1.873,4.882,3.837,4.882,3.837Z" transform="translate(-839.247 -494.441)" fill="#ebf3fa"/>
    <path id="Trazado_151178" data-name="Trazado 151178" d="M1402.262,656.991l.071,0a1.17,1.17,0,0,0,.773-.3c.95-.868,3.844-3.028,6.959-.547a1.13,1.13,0,0,0,.867.23,11.815,11.815,0,0,1,6.809.858l.2.108a1.138,1.138,0,0,1-.58,2.127l-15.063-.2A1.139,1.139,0,0,1,1402.262,656.991Z" transform="translate(-1035.297 -457.59)" fill="#ebf3fa"/>
    <g id="Grupo_94644" data-name="Grupo 94644" transform="translate(383.335 253.817)">
      <path id="Trazado_151179" data-name="Trazado 151179" d="M1574.06,1189.3h-16.191a5.071,5.071,0,0,1-5.065-5.065v-34.193a5.071,5.071,0,0,1,5.065-5.065h16.191a5.071,5.071,0,0,1,5.065,5.065v34.193A5.071,5.071,0,0,1,1574.06,1189.3Zm-16.191-43.807a4.554,4.554,0,0,0-4.549,4.548v34.193a4.554,4.554,0,0,0,4.549,4.549h16.191a4.554,4.554,0,0,0,4.548-4.549v-34.193a4.553,4.553,0,0,0-4.548-4.548Z" transform="translate(-1552.804 -1144.977)" fill="#ffe3ca"/>
    </g>
    <path id="Rectángulo_24193" data-name="Rectángulo 24193" d="M11.015,0h8.816A11.015,11.015,0,0,1,30.845,11.015v0A11.015,11.015,0,0,1,19.831,22.03H11.015A11.015,11.015,0,0,1,0,11.015v0A11.015,11.015,0,0,1,11.015,0Z" transform="translate(348.873 254.076)" fill="#ffe3ca"/>
    <g id="Grupo_94645" data-name="Grupo 94645" transform="translate(348.615 279.481)">
      <path id="Trazado_151180" data-name="Trazado 151180" d="M1279,1386.513h-24.081a3.645,3.645,0,0,1-3.641-3.641v-11.379a3.645,3.645,0,0,1,3.641-3.641H1279a3.645,3.645,0,0,1,3.641,3.641v11.379A3.645,3.645,0,0,1,1279,1386.513Zm-24.081-18.143a3.127,3.127,0,0,0-3.124,3.124v11.379a3.127,3.127,0,0,0,3.124,3.124H1279a3.127,3.127,0,0,0,3.124-3.124v-11.379a3.127,3.127,0,0,0-3.124-3.124Z" transform="translate(-1251.276 -1367.853)" fill="#ffe3ca"/>
    </g>
    <g id="Grupo_94646" data-name="Grupo 94646" transform="translate(389.765 259.098)">
      <path id="Trazado_151181" data-name="Trazado 151181" d="M1608.644,1198.074c0,4,6.731,10.386,6.731,10.386s6.731-6.389,6.731-10.386a6.749,6.749,0,1,0-13.462,0Zm2.765-.425a3.966,3.966,0,1,1,3.966,3.966A3.973,3.973,0,0,1,1611.409,1197.65Z" transform="translate(-1608.644 -1190.836)" fill="#ffe3ca"/>
    </g>
    <path id="Trazado_151182" data-name="Trazado 151182" d="M1393.285,1241.182l-.319,0a.14.14,0,0,0-.033,0l-2.444.667a.13.13,0,0,1-.09-.008l-3.434-1.322c-.088-.042.443-.3.522-.359.859-.625,3.582-2.147,4.606-2.824a.224.224,0,0,0-.073-.4.487.487,0,0,0-.277.017l-5,1.816-.672-.426a.211.211,0,0,0-.29.065l-.329.521a.211.211,0,0,0,.06.287l-.645.234a.126.126,0,0,1-.094,0l-3.078-1.313a1.281,1.281,0,0,0-.861-.052l-.354.1a.437.437,0,0,0-.289.561l.04.118a1.366,1.366,0,0,0,.811.836l2.5.939a.128.128,0,0,1,.084.118l.022,1.079-.143-.091a.211.211,0,0,0-.29.065l-.33.521a.211.211,0,0,0,.066.29l.722.458.035,1.683a.69.69,0,0,0,.124.38c.1.142.2.3.24.283a34.424,34.424,0,0,0,1.634-3.665c.022-.058.513.125.57.146l3.4,1.041a.129.129,0,0,1,.082.1l.151.993a.5.5,0,0,0,.154.29l0,0a.129.129,0,0,0,.2-.024l.791-1.213a.13.13,0,0,1,.1-.058l.365-.011a.129.129,0,0,0,.085-.222l-.089-.086,1.846-1.31A.129.129,0,0,0,1393.285,1241.182Z" transform="translate(-1016.709 -972.521)" fill="#f78e48"/>
    <g id="Grupo_94649" data-name="Grupo 94649" transform="translate(366.638 283.776)">
      <g id="Grupo_94647" data-name="Grupo 94647">
        <path id="Trazado_151183" data-name="Trazado 151183" d="M1412.834,1415.226a5.035,5.035,0,1,1,5.035-5.035A5.04,5.04,0,0,1,1412.834,1415.226Zm0-9.518a4.483,4.483,0,1,0,4.483,4.483A4.488,4.488,0,0,0,1412.834,1405.708Z" transform="translate(-1407.799 -1405.157)" fill="#ffe3ca"/>
      </g>
      <g id="Grupo_94648" data-name="Grupo 94648" transform="translate(4.727 2.556)">
        <path id="Rectángulo_24194" data-name="Rectángulo 24194" d="M.209,0h0A.209.209,0,0,1,.419.209V2.945a.209.209,0,0,1-.209.209h0A.209.209,0,0,1,0,2.945V.209A.209.209,0,0,1,.209,0Z" transform="translate(0.066)" fill="#ffe3ca"/>
        <path id="Trazado_151184" data-name="Trazado 151184" d="M1450.449,1431.083l-.006-.006a.1.1,0,0,1,0-.142l2.8-2.8a.1.1,0,0,1,.142,0l.006.006a.1.1,0,0,1,0,.142l-2.8,2.8A.1.1,0,0,1,1450.449,1431.083Z" transform="translate(-1450.234 -1428.02)" fill="#ffe3ca"/>
        <path id="Trazado_151185" data-name="Trazado 151185" d="M1448.85,1450.963a.275.275,0,1,1,.275.275A.275.275,0,0,1,1448.85,1450.963Z" transform="translate(-1448.85 -1448.001)" fill="#ffe3ca"/>
      </g>
    </g>
    <g id="Grupo_94650" data-name="Grupo 94650" transform="translate(352.193 282.781)">
      <rect id="Rectángulo_24195" data-name="Rectángulo 24195" width="11.069" height="1.148" transform="translate(0 0)" fill="#ffe3ca"/>
      <rect id="Rectángulo_24196" data-name="Rectángulo 24196" width="11.069" height="1.156" transform="translate(0 2.621)" fill="#ffe3ca"/>
      <rect id="Rectángulo_24197" data-name="Rectángulo 24197" width="6.637" height="1.156" transform="translate(0 5.249)" fill="#ffe3ca"/>
    </g>
    <g id="Grupo_94651" data-name="Grupo 94651" transform="translate(390.961 282.83)">
      <rect id="Rectángulo_24198" data-name="Rectángulo 24198" width="11.069" height="1.148" transform="translate(0 0)" fill="#ffe3ca"/>
      <rect id="Rectángulo_24199" data-name="Rectángulo 24199" width="11.069" height="1.156" transform="translate(0 2.621)" fill="#ffe3ca"/>
      <rect id="Rectángulo_24200" data-name="Rectángulo 24200" width="6.637" height="1.156" transform="translate(0 5.249)" fill="#ffe3ca"/>
    </g>
    <g id="Grupo_94652" data-name="Grupo 94652" transform="translate(352.88 259.143)">
      <rect id="Rectángulo_24201" data-name="Rectángulo 24201" width="11.069" height="1.148" transform="translate(0 0)" fill="#f78e48"/>
      <rect id="Rectángulo_24202" data-name="Rectángulo 24202" width="11.069" height="1.156" transform="translate(0 2.621)" fill="#f78e48"/>
      <rect id="Rectángulo_24203" data-name="Rectángulo 24203" width="6.637" height="1.156" transform="translate(0 5.249)" fill="#f78e48"/>
    </g>
    <g id="Grupo_94653" data-name="Grupo 94653" transform="translate(424.401 146.399)">
      <path id="Trazado_151186" data-name="Trazado 151186" d="M1941.767,261.572a.258.258,0,0,1-.257-.235s-.042-.456-.127-1.255a.258.258,0,1,1,.514-.055c.086.8.128,1.258.128,1.262a.259.259,0,0,1-.234.281Zm-.266-2.507a.258.258,0,0,1-.256-.229c-.043-.378-.092-.794-.146-1.244a.259.259,0,0,1,.513-.062c.054.451.1.868.146,1.247a.258.258,0,0,1-.227.286Zm-.3-2.488a.259.259,0,0,1-.256-.226q-.075-.592-.16-1.24a.258.258,0,1,1,.512-.067q.086.648.16,1.243a.258.258,0,0,1-.224.289Zm-.327-2.482a.258.258,0,0,1-.256-.223q-.083-.6-.174-1.237a.258.258,0,0,1,.512-.073q.091.637.174,1.24a.258.258,0,0,1-.221.291Zm-.355-2.476a.259.259,0,0,1-.255-.22q-.09-.606-.187-1.235a.258.258,0,1,1,.51-.079q.1.63.188,1.238a.259.259,0,0,1-.218.294Zm-.382-2.472a.259.259,0,0,1-.255-.218q-.1-.608-.2-1.232a.258.258,0,1,1,.51-.085q.1.626.2,1.235a.259.259,0,0,1-.256.3Zm-.41-2.466a.258.258,0,0,1-.254-.215q-.105-.609-.216-1.23a.258.258,0,1,1,.509-.091q.112.622.217,1.233a.259.259,0,0,1-.255.3Zm-.44-2.461a.258.258,0,0,1-.254-.211q-.113-.609-.232-1.226a.258.258,0,1,1,.507-.1q.119.619.232,1.23a.258.258,0,0,1-.254.306Zm-.473-2.454a.259.259,0,0,1-.253-.208q-.121-.609-.249-1.223a.258.258,0,0,1,.506-.1q.127.615.25,1.226a.258.258,0,0,1-.2.3A.256.256,0,0,1,1938.816,241.765Zm-.508-2.447a.259.259,0,0,1-.252-.2q-.13-.607-.267-1.215a.258.258,0,0,1,.5-.113q.137.61.268,1.219a.258.258,0,0,1-.2.307A.262.262,0,0,1,1938.308,239.318Zm-.546-2.436a.259.259,0,0,1-.252-.2q-.142-.609-.289-1.217a.258.258,0,1,1,.5-.122q.148.61.291,1.221a.258.258,0,0,1-.193.31A.255.255,0,0,1,1937.762,236.882Zm-.591-2.432a.259.259,0,0,1-.25-.195q-.154-.605-.313-1.207a.259.259,0,0,1,.5-.132q.16.6.314,1.212a.259.259,0,0,1-.187.314A.261.261,0,0,1,1937.17,234.45Zm-.64-2.416a.259.259,0,0,1-.249-.189q-.167-.6-.34-1.2a.258.258,0,0,1,.5-.144q.174.6.341,1.205a.258.258,0,0,1-.249.327Zm-.7-2.4a.258.258,0,0,1-.247-.183c-.122-.4-.247-.8-.372-1.189a.258.258,0,0,1,.492-.158c.126.393.252.8.374,1.2a.258.258,0,0,1-.172.323A.261.261,0,0,1,1935.834,229.634Zm-.764-2.38a.259.259,0,0,1-.245-.176c-.134-.4-.271-.791-.409-1.176a.258.258,0,0,1,.487-.174c.139.387.278.786.412,1.184a.258.258,0,0,1-.162.328A.255.255,0,0,1,1935.07,227.255Zm-25.365-.832a.259.259,0,0,1-.24-.353q.134-.342.268-.673a.258.258,0,0,1,.479.194q-.133.328-.266.668A.258.258,0,0,1,1909.706,226.423Zm24.521-1.521a.258.258,0,0,1-.241-.167c-.15-.393-.3-.783-.455-1.157a.258.258,0,0,1,.479-.195c.154.378.308.771.459,1.168a.259.259,0,0,1-.242.351Zm-23.774-.3a.258.258,0,0,1-.237-.36c.167-.39.339-.776.508-1.146a.258.258,0,0,1,.47.215c-.168.366-.337.748-.5,1.134A.258.258,0,0,1,1910.452,224.6Zm22.833-2.013a.258.258,0,0,1-.237-.155c-.169-.388-.342-.769-.512-1.131a.258.258,0,1,1,.468-.22c.172.367.347.752.518,1.145a.259.259,0,0,1-.237.362Zm-21.793-.254a.255.255,0,0,1-.114-.027.258.258,0,0,1-.118-.346c.188-.383.38-.759.57-1.118a.258.258,0,1,1,.457.242c-.188.354-.377.726-.563,1.1A.258.258,0,0,1,1911.493,222.334Zm20.727-2.006a.259.259,0,0,1-.23-.141c-.192-.375-.389-.742-.586-1.091a.258.258,0,0,1,.45-.254c.2.355.4.728.6,1.109a.258.258,0,0,1-.23.376Zm-19.557-.2a.256.256,0,0,1-.129-.035.258.258,0,0,1-.095-.353c.214-.371.433-.733.65-1.077a.258.258,0,1,1,.437.276c-.214.337-.429.693-.639,1.058A.258.258,0,0,1,1912.663,220.132Zm18.329-1.977a.258.258,0,0,1-.219-.121c-.224-.358-.454-.7-.683-1.026a.258.258,0,0,1,.422-.3c.234.331.47.684.7,1.051a.259.259,0,0,1-.219.4ZM1914,218.028a.259.259,0,0,1-.211-.407c.249-.353.5-.693.755-1.011a.259.259,0,0,1,.405.322c-.246.31-.494.642-.738.987A.258.258,0,0,1,1914,218.028Zm15.545-1.9a.259.259,0,0,1-.2-.094c-.268-.327-.543-.633-.816-.91a.258.258,0,1,1,.368-.363c.284.288.568.606.847.944a.258.258,0,0,1-.2.422Zm-13.99-.044a.258.258,0,0,1-.191-.433c.293-.32.594-.623.894-.9a.258.258,0,0,1,.35.38c-.289.267-.58.559-.863.868A.259.259,0,0,1,1915.554,216.08Zm1.836-1.682a.258.258,0,0,1-.155-.465,10.454,10.454,0,0,1,1.067-.7.258.258,0,0,1,.256.449,9.977,9.977,0,0,0-1.014.668A.258.258,0,0,1,1917.39,214.4Zm10.4-.037a.256.256,0,0,1-.162-.057,8.242,8.242,0,0,0-.985-.686.258.258,0,0,1,.263-.445,8.774,8.774,0,0,1,1.047.729.258.258,0,0,1-.162.459Zm-8.242-1.19a.258.258,0,0,1-.1-.5,8.317,8.317,0,0,1,1.228-.38.258.258,0,1,1,.114.5,7.807,7.807,0,0,0-1.151.357A.259.259,0,0,1,1919.552,213.172Zm6.108-.049a.256.256,0,0,1-.088-.016,5.743,5.743,0,0,0-.581-.177c-.2-.049-.395-.093-.585-.13a.258.258,0,0,1,.1-.507c.2.039.4.085.609.136a6.23,6.23,0,0,1,.634.194.259.259,0,0,1-.089.5Zm-2.439-.49h-.02a8.52,8.52,0,0,0-1.21-.008.258.258,0,0,1-.034-.516,9.028,9.028,0,0,1,1.283.008.258.258,0,0,1-.019.516Z" transform="translate(-1909.447 -212.09)" fill="#f78e48"/>
    </g>
    <path id="Trazado_151187" data-name="Trazado 151187" d="M525.792,1829.54l-294.282-.1a.36.36,0,0,1-.359-.359v-.184a.36.36,0,0,1,.359-.358l294.282.1a.36.36,0,0,1,.359.359v.184A.36.36,0,0,1,525.792,1829.54Z" transform="translate(0 -1496.011)" fill="#2e3552"/>
    <path id="Trazado_151188" data-name="Trazado 151188" d="M1116.21,863.179s3.521-.244,4.289,2.519c0,0,2.712-5.525,8.44-5.07s6.786,3.824,6.786,3.824a8.28,8.28,0,0,1,6.007.376,4.78,4.78,0,0,1,2.55,4.259,7.067,7.067,0,0,1,7.521-2.255s-1-5.071,5.038-6.231,8.6.845,8.6.845,6.84-4.405,12.9,1.117c0,0,4.437-.862,6.606,1.871a14.86,14.86,0,0,1,12.807-4.428v26.554h-81.577Z" transform="translate(-783.116 -638.803)" fill="#d7e2ff"/>
    <path id="Trazado_151189" data-name="Trazado 151189" d="M1116.208,1001.915a15.309,15.309,0,0,1,11.209,1.991s1.289-1.535,4.644-1.155a5.186,5.186,0,0,1,4.28,3.48s11.741-3.877,17.555,5.814h-37.721Z" transform="translate(-783.116 -764.287)" fill="#ebf3fa"/>
    <path id="Trazado_151190" data-name="Trazado 151190" d="M1506.517,926.962a8.249,8.249,0,0,1,6.5-7.364,3.513,3.513,0,0,1-1.594-4.953,6.972,6.972,0,0,1,5.554-3.79s.411-6.39,11.567-5.286c3.132.31,6.448,2.185,6.966,5.459a4.232,4.232,0,0,1,3.716-1.857s.31-3.633,3.914-3.6v21.394Z" transform="translate(-1128.512 -679.204)" fill="#ebf3fa"/>
    <g id="Grupo_94656" data-name="Grupo 94656" transform="translate(307.594 195.769)">
      <path id="Trazado_151191" data-name="Trazado 151191" d="M1619.089,647.766l-4.682,16.223-.148-.018-16-1.943s7.41-1.541,8.18-2.43c.725-.838,8.42-10.779,10.67-11.841a.754.754,0,0,1,.35-.091Z" transform="translate(-1517.285 -646.879)" fill="#739af0"/>
      <path id="Trazado_151192" data-name="Trazado 151192" d="M1614.259,664.674l-16-1.943s7.41-1.541,8.18-2.43c.725-.838,8.42-10.779,10.67-11.842-1.993,2.894-6.611,9.847-6.415,11.869C1610.882,662.254,1613.135,663.944,1614.259,664.674Z" transform="translate(-1517.285 -647.583)" fill="#2b478b"/>
      <path id="Trazado_151193" data-name="Trazado 151193" d="M1195.4,748.458c-.546.187-2.178.7-4.418,1.353-6.438,1.872-17.891,4.879-22.945,4.508-4.534-.333-28.511-2.164-45.1-3.617,4.013-7.048,9.017-10.942,13.6-13.076,19.323,1.583,44.594,3.722,47.809,4.344,5.289,1.022,12.306,1.854,12.306,1.854s.048.215.093.555C1196.89,745.483,1197.015,747.9,1195.4,748.458Z" transform="translate(-1096.694 -726.482)" fill="#e58638"/>
      <path id="Trazado_151194" data-name="Trazado 151194" d="M995.151,731.134c0,.039,0,.081,0,.122a3.35,3.35,0,0,1-.815,2.426c-.021.02-.043.038-.065.057-.044.036-.091.071-.139.1h0l-.075.047-.077.043h0c-.025.014-.052.027-.08.04s-.056.026-.085.037-.058.022-.087.033l-.027.008h0l-.028.009-.029.009h0l-.031.009h0a.169.169,0,0,0-.032.011l-.034.01h0l-.035.012-.037.012h0l-.038.013-.039.013-.085.028h0l-.043.014h0l-.045.014-.034.01-.4.129-.084.026c-.387.122-.857.267-1.4.43l-.17.051-.289.087-.064.019-.091.028-.092.027-.093.028-.094.028-.094.028-.1.029-.1.028a0,0,0,0,0,0,0l-.1.028-.071.022a.127.127,0,0,0-.028.008l-.1.028q-.251.075-.514.15l-.306.09-.267.077-.2.059-.818.233-.168.048-.294.083-.269.076-.3.084c-3.347.929-7.4,1.97-11.165,2.727l-.4.079-.2.038-.392.074q-.584.112-1.155.212l-.378.065-.187.031-.372.062-.368.057-.362.055c-.12.019-.241.036-.358.052l-.353.049-.349.045-.172.021c-.228.028-.453.053-.673.077l-.165.016-.324.031c-.214.019-.423.036-.628.049-.153.012-.3.02-.452.027-.1.006-.2.009-.293.013-.144.006-.286.009-.423.01-.185,0-.364,0-.536,0-.087,0-.172,0-.256-.008-.042,0-.082,0-.124-.006-.083,0-.163-.008-.242-.014l-.088-.007h-.021l-.058,0-.236-.018-.068,0-.085-.007-.134-.009-.073-.006-.074-.006-.155-.012-.16-.012-.084-.006-.21-.016-.1-.008-.219-.016-.1-.007-.281-.021-.85-.064-.112-.009-.228-.016-.351-.027-.145-.012-.343-.026-.127-.009-.241-.019-.265-.021-.142-.01-.133-.011-.214-.016-1.288-.1-.2-.015-.3-.023-.712-.055-.056,0-.635-.049-.03,0-4.108-.318-.221-.017-.892-.069-.567-.045-.031,0-.654-.051-.081-.006-1.169-.092-.3-.024-.093-.007-1.043-.082-.459-.036-.306-.023-.622-.05-.938-.074-.084-.006c-.13-.012-.259-.021-.388-.031l-.028,0-1.164-.092-.032,0-.121-.009-.689-.055c-.173-.014-.347-.027-.522-.042l-.324-.026c-.452-.035-.906-.072-1.361-.108h-.012l-2.276-.184-.313-.026h-.022l-1-.081-.309-.026-.865-.07-1.759-.144-1.111-.091-.7-.058-1.658-.136-.079-.007-1.036-.086-1.468-.123-.585-.049-.178-.015-1.174-.1-.172-.014-.8-.069q-1.686-.143-3.307-.284l-.389-.034-.236-.02c-.106-.01-.21-.019-.316-.028l-.625-.055c-4.021-.352-7.608-.683-10.377-.965-.282-.028-.557-.056-.821-.084-.658-.069-1.26-.134-1.8-.2-1.534-.173-2.579-.319-2.994-.423a31,31,0,0,1-8.267-3.594c-1.381-.931-2.235-1.883-1.918-2.668a4.137,4.137,0,0,1,2.179-2.045c.78-.386,1.577-.651,2.1-.953l.088-.052a1.813,1.813,0,0,0,.253-.188l.037-.035a13.084,13.084,0,0,1,1.022-.857,12.418,12.418,0,0,1,1.168-.776l.007,0A17.718,17.718,0,0,1,912.4,721.4s9.992.789,22.457,1.811h0l3.793.312h0l1.289.106,1.952.162h0l3.286.273.661.055,1.322.11,2.648.223,1.318.11c1.569.133,3.129.265,4.668.4h.007c4.444.381,8.706.753,12.486,1.1h0l.6.053c2.219.2,4.261.393,6.062.567.861.085,1.668.165,2.412.241,2.694.274,4.574.5,5.307.637,1.905.368,4.034.712,5.978,1l.477.07a.155.155,0,0,0,.024,0c.241.036.478.07.711.1l.021,0,.79.111,1.077.148.431.058c1.678.223,2.8.356,2.8.356s.007.03.017.086l0,.014c0,.015.006.031.01.05.006.036.014.078.021.126.01.063.022.135.032.216a0,0,0,0,0,0,0c0,.02.006.041.008.062.009.067.019.139.027.217.006.054.012.11.017.167,0,.031.006.064.008.1s.006.072.008.108q.005.079.01.16c0,.022,0,.044,0,.066,0,.038,0,.078,0,.116,0,.021,0,.041,0,.06,0,.04,0,.08,0,.12C995.15,731.092,995.15,731.113,995.151,731.134Z" transform="translate(-895.022 -712.065)" fill="#d7e2ff"/>
      <path id="Trazado_151195" data-name="Trazado 151195" d="M1375.758,758.992c0,.039,0,.081,0,.122a3.351,3.351,0,0,1-.815,2.426c-.021.02-.043.038-.065.057-.044.036-.091.071-.138.1h0l-.075.047-.077.043h0c-.026.014-.052.027-.08.04l-.085.037c-.028.011-.058.022-.087.032l-.027.008h0l-.028.009-.029.009h0l-.031.009h0a.179.179,0,0,0-.032.01l-.034.011h0l-.035.012-.037.012h0l-.038.013-.039.013-.085.028h0l-.043.014h0l-.045.014-.034.01-.4.129-.083.026c-.387.122-.857.267-1.4.43l-.169.051-.29.087-.064.019-.091.028-.092.027-.093.028-.094.028-.094.028-.1.029-.1.028s0,0,0,0l-.1.028-.071.022a.129.129,0,0,0-.028.008l-.1.028c-.167.05-.338.1-.514.15l-.306.09-.267.077-.2.059-.818.233-.169.047-.294.083-.268.076-.3.084c-3.347.929-7.4,1.97-11.164,2.727l-.4.079-.2.038-.392.074q-.584.112-1.155.212l-.378.065-.187.031-.372.062-.368.057-.362.055c-.12.019-.241.036-.358.052l-.353.049-.349.045-.172.021c-.228.028-.453.054-.673.077l-.165.016-.324.031c-.214.019-.423.036-.628.049-.154.012-.3.02-.452.027-.1.006-.2.009-.293.013-.144.006-.286.009-.423.01-.185,0-.364,0-.536,0-.087,0-.172,0-.256-.008-.042,0-.083,0-.124-.006-.082,0-.162-.008-.242-.014l-.088-.007h-.021l-.058,0-.236-.017-.068,0-.085-.007-.134-.009-.073-.006-.074-.006-.155-.012-.16-.012-.084-.006-.21-.016-.1-.008-.219-.016-.1-.007-.281-.021-.85-.064-.112-.009-.228-.016-.351-.027-.145-.012-.343-.026-.126-.009-.241-.018-.265-.021-.142-.01-.133-.01-.214-.016-1.288-.1-.2-.015-.3-.023-.712-.055-.056,0-.635-.049-.03,0-4.108-.318-.221-.017-.891-.069-.567-.045-.031,0-.654-.051-.081-.006-1.169-.092-.3-.024-.093-.007-1.043-.082-.459-.036-.306-.023-.622-.05-.938-.075-.084-.006c-.13-.012-.259-.021-.388-.031l-.028,0-1.163-.092-.033,0-.121-.009a24.88,24.88,0,0,0,11.25-13.256h.007c4.444.381,8.706.753,12.486,1.1h0l.6.053c2.219.2,4.261.393,6.062.567.861.085,1.668.165,2.412.241,2.694.274,4.574.5,5.307.637,1.905.368,4.035.712,5.978,1l.477.07a.164.164,0,0,0,.024,0c.241.036.478.07.711.1l.021,0,.79.112,1.076.148.431.058c1.678.223,2.8.356,2.8.356s.007.03.018.086l0,.014c0,.015.006.031.009.05.006.036.014.078.021.126.01.063.022.135.032.216,0,0,0,0,0,0,0,.02.006.041.008.062.009.067.019.139.027.217.006.054.012.11.017.167,0,.031.006.064.008.1s.006.072.008.108c0,.052.007.106.01.16,0,.022,0,.044,0,.066,0,.038,0,.078,0,.116,0,.021,0,.041,0,.06,0,.04,0,.08,0,.12C1375.757,758.95,1375.757,758.971,1375.758,758.992Z" transform="translate(-1275.629 -739.923)" fill="#f99746"/>
      <path id="Trazado_151196" data-name="Trazado 151196" d="M1694.008,800.345c-.546.188-2.178.7-4.417,1.353a7.13,7.13,0,0,0-3.157-4.437l8.919-1C1695.5,797.369,1695.627,799.788,1694.008,800.345Z" transform="translate(-1595.306 -778.369)" fill="#e27727" opacity="0.5"/>
      <g id="Grupo_94654" data-name="Grupo 94654" transform="translate(17.154 13.114)">
        <path id="Trazado_151197" data-name="Trazado 151197" d="M1334.373,781.87h0a.566.566,0,0,1-.476-.639l.057-.628a.571.571,0,0,1,.583-.548h0a.565.565,0,0,1,.476.639l-.057.628A.572.572,0,0,1,1334.373,781.87Z" transform="translate(-1300.514 -777.138)" fill="#2b478b"/>
        <path id="Trazado_151198" data-name="Trazado 151198" d="M1310.648,779.821h0a.565.565,0,0,1-.476-.639l.057-.628a.571.571,0,0,1,.583-.548h0a.565.565,0,0,1,.476.639l-.057.628A.571.571,0,0,1,1310.648,779.821Z" transform="translate(-1279.521 -775.325)" fill="#2b478b"/>
        <path id="Trazado_151199" data-name="Trazado 151199" d="M1286.922,777.772h0a.565.565,0,0,1-.476-.639l.057-.628a.571.571,0,0,1,.583-.548h0a.565.565,0,0,1,.476.639l-.057.628A.571.571,0,0,1,1286.922,777.772Z" transform="translate(-1258.527 -773.512)" fill="#2b478b"/>
        <path id="Trazado_151200" data-name="Trazado 151200" d="M1263.2,775.723h0a.565.565,0,0,1-.476-.639l.057-.628a.571.571,0,0,1,.584-.548h0a.565.565,0,0,1,.476.639l-.057.628A.571.571,0,0,1,1263.2,775.723Z" transform="translate(-1237.533 -771.699)" fill="#2b478b"/>
        <path id="Trazado_151201" data-name="Trazado 151201" d="M1239.472,773.675h0a.565.565,0,0,1-.476-.639l.057-.628a.571.571,0,0,1,.583-.548h0a.565.565,0,0,1,.476.639l-.057.628A.571.571,0,0,1,1239.472,773.675Z" transform="translate(-1216.54 -769.887)" fill="#2b478b"/>
        <path id="Trazado_151202" data-name="Trazado 151202" d="M1215.746,771.626h0a.565.565,0,0,1-.476-.639l.057-.628a.571.571,0,0,1,.583-.548h0a.565.565,0,0,1,.476.639l-.057.628A.571.571,0,0,1,1215.746,771.626Z" transform="translate(-1195.546 -768.074)" fill="#2b478b"/>
        <path id="Trazado_151203" data-name="Trazado 151203" d="M1192.021,769.577h0a.565.565,0,0,1-.476-.639l.057-.628a.571.571,0,0,1,.583-.548h0a.565.565,0,0,1,.476.639l-.057.628A.571.571,0,0,1,1192.021,769.577Z" transform="translate(-1174.553 -766.261)" fill="#2b478b"/>
        <path id="Trazado_151204" data-name="Trazado 151204" d="M1168.3,767.528h0a.565.565,0,0,1-.476-.639l.057-.628a.571.571,0,0,1,.583-.548h0a.565.565,0,0,1,.476.639l-.057.629A.571.571,0,0,1,1168.3,767.528Z" transform="translate(-1153.56 -764.448)" fill="#2b478b"/>
        <path id="Trazado_151205" data-name="Trazado 151205" d="M1144.57,765.48h0a.565.565,0,0,1-.476-.639l.057-.628a.571.571,0,0,1,.583-.548h0a.565.565,0,0,1,.476.639l-.057.628A.571.571,0,0,1,1144.57,765.48Z" transform="translate(-1132.566 -762.635)" fill="#2b478b"/>
        <path id="Trazado_151206" data-name="Trazado 151206" d="M1121.318,763.471h0a.565.565,0,0,1-.476-.639l.057-.628a.571.571,0,0,1,.583-.548h0a.566.566,0,0,1,.476.639l-.057.628A.571.571,0,0,1,1121.318,763.471Z" transform="translate(-1111.991 -760.858)" fill="#2b478b"/>
        <path id="Trazado_151207" data-name="Trazado 151207" d="M1097.593,761.423h0a.565.565,0,0,1-.476-.639l.057-.629a.571.571,0,0,1,.583-.548h0a.565.565,0,0,1,.476.639l-.057.628A.571.571,0,0,1,1097.593,761.423Z" transform="translate(-1090.998 -759.046)" fill="#2b478b"/>
        <path id="Trazado_151208" data-name="Trazado 151208" d="M1073.868,759.374h0a.565.565,0,0,1-.476-.639l.057-.628a.571.571,0,0,1,.583-.548h0a.565.565,0,0,1,.476.639l-.057.628A.571.571,0,0,1,1073.868,759.374Z" transform="translate(-1070.005 -757.233)" fill="#2b478b"/>
        <path id="Trazado_151209" data-name="Trazado 151209" d="M1044.476,756.56h0a.565.565,0,0,1-.476-.639l.057-.628a.571.571,0,0,1,.583-.548h0a.565.565,0,0,1,.476.639l-.057.628A.571.571,0,0,1,1044.476,756.56Z" transform="translate(-1043.997 -754.743)" fill="#2b478b"/>
      </g>
      <g id="Grupo_94655" data-name="Grupo 94655" transform="translate(74.878 18.449)">
        <path id="Trazado_151210" data-name="Trazado 151210" d="M1593.236,806.99h0a.565.565,0,0,1-.476-.639l.057-.628a.571.571,0,0,1,.583-.548h0a.565.565,0,0,1,.476.639l-.057.628A.571.571,0,0,1,1593.236,806.99Z" transform="translate(-1587.294 -804.701)" fill="#2b478b"/>
        <path id="Trazado_151211" data-name="Trazado 151211" d="M1569.512,804.941h0a.565.565,0,0,1-.476-.639l.057-.628a.571.571,0,0,1,.583-.548h0a.565.565,0,0,1,.476.639l-.057.628A.571.571,0,0,1,1569.512,804.941Z" transform="translate(-1566.301 -802.888)" fill="#2b478b"/>
        <path id="Trazado_151212" data-name="Trazado 151212" d="M1545.786,802.892h0a.565.565,0,0,1-.476-.639l.057-.628a.571.571,0,0,1,.584-.548h0a.565.565,0,0,1,.476.639l-.057.628A.571.571,0,0,1,1545.786,802.892Z" transform="translate(-1545.307 -801.075)" fill="#2b478b"/>
      </g>
      <path id="Trazado_151213" data-name="Trazado 151213" d="M936.493,739.705l-1.863,1.757-1.112.072a1.784,1.784,0,0,0,.254-.188l.037-.035a12.985,12.985,0,0,1,1.021-.857,12.475,12.475,0,0,1,1.169-.777l.007,0Z" transform="translate(-929.086 -728.295)" fill="#2b478b"/>
      <path id="Trazado_151214" data-name="Trazado 151214" d="M948.9,740.5l-1.819,1.774,2.065.438.652-2.025Z" transform="translate(-941.085 -729.027)" fill="#2b478b"/>
      <path id="Trazado_151215" data-name="Trazado 151215" d="M968.673,742.673l-.48,1.9,1.53-.435.1-1.325Z" transform="translate(-959.768 -730.949)" fill="#2b478b"/>
      <path id="Trazado_151216" data-name="Trazado 151216" d="M1268.466,841.713a1.5,1.5,0,0,0,.348-2.31,4.541,4.541,0,0,0-2.594-1.275c-2.1-.152-1.248,4.125-.551,4.213A8.452,8.452,0,0,0,1268.466,841.713Z" transform="translate(-1222.304 -815.409)" fill="#2b478b"/>
      <path id="Trazado_151217" data-name="Trazado 151217" d="M1683.719,783.316c.084-.114,7.9-2.691,13.013-1.57l-4.921,3.1-7.912-.68A.525.525,0,0,1,1683.719,783.316Z" transform="translate(-1592.771 -765.273)" fill="#355daf"/>
      <path id="Trazado_151218" data-name="Trazado 151218" d="M1294.6,640.854s-5.233,11.566-6.23,13.321a8.739,8.739,0,0,1-3.174,2.876l-.013,0-13.867,5.634s-17.3-1.365-21.06-1.78h0c-.341-.038-.572-.069-.667-.088-1.144-.244-1.679-.774-1.459-1.191s26.812-3.606,29.757-3.934l.084-.009c2.866-.338,3.132-1.313,3.132-1.313l10.972-12.575a1.5,1.5,0,0,1,.636-.539A5.142,5.142,0,0,1,1294.6,640.854Z" transform="translate(-1207.432 -640.854)" fill="#d7e2ff"/>
      <path id="Trazado_151219" data-name="Trazado 151219" d="M1292.715,644.382c-2.953,3.584-11.119,13.466-11.895,14.139-.834.724-24.7,4.559-30.559,5.512h0c-.341-.038-.572-.068-.667-.088-1.144-.244-1.679-.774-1.459-1.191s26.812-3.606,29.757-3.934,3.216-1.322,3.216-1.322l10.972-12.575A1.5,1.5,0,0,1,1292.715,644.382Z" transform="translate(-1207.432 -643.976)" fill="#739af0"/>
      <path id="Trazado_151220" data-name="Trazado 151220" d="M1524.289,640.854s-5.233,11.566-6.23,13.321a8.738,8.738,0,0,1-3.174,2.876l-.013,0a23.069,23.069,0,0,1-7.213-1.369c2.865-.338,3.132-1.313,3.132-1.313l10.972-12.575a1.5,1.5,0,0,1,.636-.539A5.143,5.143,0,0,1,1524.289,640.854Z" transform="translate(-1437.116 -640.854)" fill="#d7e2ff"/>
      <path id="Trazado_151221" data-name="Trazado 151221" d="M1193.618,817.722l-.526,5.834a15.886,15.886,0,0,1-5.715.616,12.392,12.392,0,0,1-4.337-.927,4.571,4.571,0,0,1-.734-.389l.552-6.116a2.007,2.007,0,0,1,.8-.373c2.756-.707,9.531,1.12,9.531,1.12Z" transform="translate(-1149.225 -796.013)" fill="#e9f0ff"/>
      <path id="Trazado_151222" data-name="Trazado 151222" d="M1183.659,817.615l-.62,6.879a4.581,4.581,0,0,1-.734-.389l.552-6.116A2.008,2.008,0,0,1,1183.659,817.615Z" transform="translate(-1149.225 -797.262)" fill="#ff9843"/>
    </g>
    <g id="Grupo_94657" data-name="Grupo 94657" transform="translate(282.91 222.841)">
      <path id="Trazado_151223" data-name="Trazado 151223" d="M705.535,975.57l40.971-10.936c.867-.232,1.443-.924,1.28-1.539l-22.972-86.364c-.164-.615-1.007-.928-1.874-.7l-40.971,10.936c-.867.232-1.443.924-1.28,1.539l22.972,86.364C703.824,975.488,704.668,975.8,705.535,975.57Z" transform="translate(-680.661 -875.958)" fill="#ffe3ca"/>
      <path id="Trazado_151224" data-name="Trazado 151224" d="M705.535,1053.286l3.368-.9-23.567-88.6-3.369.9c-.867.232-1.443.924-1.28,1.539l22.972,86.364C703.824,1053.2,704.668,1053.518,705.535,1053.286Z" transform="translate(-680.661 -953.675)" fill="#f2be8f"/>
      <rect id="Rectángulo_24204" data-name="Rectángulo 24204" width="26.827" height="5.441" transform="matrix(0.257, 0.966, -0.966, 0.257, 29.972, 13.212)" fill="#eabc92" opacity="0.5"/>
      <rect id="Rectángulo_24205" data-name="Rectángulo 24205" width="38.185" height="5.441" transform="translate(41.634 10.1) rotate(75.105)" fill="#eabc92" opacity="0.5"/>
      <rect id="Rectángulo_24206" data-name="Rectángulo 24206" width="19.092" height="1.213" transform="matrix(0.257, 0.966, -0.966, 0.257, 35.038, 11.858)" fill="#f2be8f"/>
      <rect id="Rectángulo_24207" data-name="Rectángulo 24207" width="19.092" height="1.213" transform="translate(23.454 14.95) rotate(75.105)" fill="#f2be8f"/>
      <path id="Trazado_151225" data-name="Trazado 151225" d="M775.8,1021.936l.11.3a.124.124,0,0,0,.015.03l1.456,2.1a.131.131,0,0,1,.022.088l-.107,3.716c-.011.1-.436-.321-.517-.377-.884-.608-3.248-2.692-4.236-3.44a.226.226,0,0,0-.361.2.491.491,0,0,0,.109.259l3.409,4.157-.18.784a.212.212,0,0,0,.159.254l.607.139a.213.213,0,0,0,.253-.154l.439.535a.13.13,0,0,1,.029.091l-.218,3.373a1.294,1.294,0,0,0,.24.838l.218.3a.442.442,0,0,0,.632.087l.1-.078a1.38,1.38,0,0,0,.525-1.053l.057-2.693a.131.131,0,0,1,.085-.119l1.021-.383-.038.166a.212.212,0,0,0,.159.254l.607.139a.213.213,0,0,0,.255-.159l.194-.842,1.592-.6a.7.7,0,0,0,.32-.245c.1-.142.217-.294.189-.324a34.737,34.737,0,0,0-4.04-.327c-.063,0-.053-.53-.052-.593l-.15-3.592a.13.13,0,0,1,.069-.112l.9-.477a.5.5,0,0,0,.224-.244l0,0a.13.13,0,0,0-.089-.178l-1.421-.347a.13.13,0,0,1-.09-.079l-.134-.344a.13.13,0,0,0-.24-.007l-.052.114-1.868-1.32A.13.13,0,0,0,775.8,1021.936Z" transform="translate(-761.639 -1004.972)" fill="#f2be8f"/>
    </g>
    <g id="Grupo_94662" data-name="Grupo 94662" transform="translate(283.359 258.029)">
      <path id="Rectángulo_24208" data-name="Rectángulo 24208" d="M0,0H25.583A32.082,32.082,0,0,1,57.664,32.082V41.62a32.93,32.93,0,0,1-32.93,32.93H0a0,0,0,0,1,0,0V0A0,0,0,0,1,0,0Z" transform="translate(0 0)" fill="#739af0"/>
      <g id="Grupo_94658" data-name="Grupo 94658" transform="translate(7.357 5.395)">
        <path id="Trazado_151226" data-name="Trazado 151226" d="M749.538,1233.107v2.335h-1.092v-6.285h2.4a2.936,2.936,0,0,1,.974.149,2.072,2.072,0,0,1,.719.416,1.775,1.775,0,0,1,.447.635,2.053,2.053,0,0,1,.153.8,2.09,2.09,0,0,1-.153.82,1.625,1.625,0,0,1-.447.613,2.031,2.031,0,0,1-.719.384,3.238,3.238,0,0,1-.974.134Zm0-.876h1.312a1.679,1.679,0,0,0,.542-.078.983.983,0,0,0,.373-.22.846.846,0,0,0,.214-.339,1.32,1.32,0,0,0,.067-.429,1.339,1.339,0,0,0-.067-.423.97.97,0,0,0-.214-.36,1.038,1.038,0,0,0-.373-.25,1.427,1.427,0,0,0-.542-.093h-1.312Z" transform="translate(-748.446 -1229.071)" fill="#aec3ff"/>
        <path id="Trazado_151227" data-name="Trazado 151227" d="M790.05,1233.979h-2.435l-.509,1.463h-1.135l2.374-6.285h.98l2.378,6.285h-1.14Zm-2.128-.881h1.822l-.911-2.607Z" transform="translate(-781.65 -1229.071)" fill="#aec3ff"/>
        <path id="Trazado_151228" data-name="Trazado 151228" d="M842.769,1233.159a.958.958,0,0,0-.056-.339.674.674,0,0,0-.2-.274,1.708,1.708,0,0,0-.41-.24,6.35,6.35,0,0,0-.671-.24,6.459,6.459,0,0,1-.829-.306,2.866,2.866,0,0,1-.654-.4,1.714,1.714,0,0,1-.43-.526,1.452,1.452,0,0,1-.155-.682,1.524,1.524,0,0,1,.162-.7,1.653,1.653,0,0,1,.455-.552,2.169,2.169,0,0,1,.7-.363,3,3,0,0,1,.906-.13,2.79,2.79,0,0,1,.954.153,2.139,2.139,0,0,1,.714.417,1.818,1.818,0,0,1,.447.611,1.8,1.8,0,0,1,.155.74h-1.088a1.2,1.2,0,0,0-.071-.421.871.871,0,0,0-.218-.332,1,1,0,0,0-.371-.218,1.623,1.623,0,0,0-.531-.078,1.722,1.722,0,0,0-.5.065,1,1,0,0,0-.352.181.719.719,0,0,0-.207.276.886.886,0,0,0-.067.345.693.693,0,0,0,.33.583,3.516,3.516,0,0,0,1.008.432,5.867,5.867,0,0,1,.919.345,2.638,2.638,0,0,1,.645.43,1.551,1.551,0,0,1,.382.54,1.742,1.742,0,0,1,.125.675,1.585,1.585,0,0,1-.158.714,1.524,1.524,0,0,1-.449.54,2.107,2.107,0,0,1-.706.341,3.348,3.348,0,0,1-.924.119,3.306,3.306,0,0,1-.894-.123,2.53,2.53,0,0,1-.79-.371,1.935,1.935,0,0,1-.563-.62,1.716,1.716,0,0,1-.214-.872h1.092a1.141,1.141,0,0,0,.106.511.952.952,0,0,0,.289.35,1.211,1.211,0,0,0,.434.2,2.219,2.219,0,0,0,.54.063,1.346,1.346,0,0,0,.857-.231A.745.745,0,0,0,842.769,1233.159Z" transform="translate(-828.719 -1228.407)" fill="#aec3ff"/>
        <path id="Trazado_151229" data-name="Trazado 151229" d="M889.1,1233.159a.96.96,0,0,0-.056-.339.671.671,0,0,0-.205-.274,1.705,1.705,0,0,0-.41-.24,6.338,6.338,0,0,0-.671-.24,6.472,6.472,0,0,1-.829-.306,2.862,2.862,0,0,1-.654-.4,1.718,1.718,0,0,1-.43-.526,1.452,1.452,0,0,1-.155-.682,1.525,1.525,0,0,1,.162-.7,1.657,1.657,0,0,1,.455-.552,2.17,2.17,0,0,1,.7-.363,3,3,0,0,1,.906-.13,2.79,2.79,0,0,1,.954.153,2.14,2.14,0,0,1,.714.417,1.815,1.815,0,0,1,.447.611,1.8,1.8,0,0,1,.155.74H889.1a1.205,1.205,0,0,0-.071-.421.874.874,0,0,0-.218-.332,1,1,0,0,0-.371-.218,1.624,1.624,0,0,0-.531-.078,1.721,1.721,0,0,0-.5.065,1,1,0,0,0-.352.181.716.716,0,0,0-.207.276.883.883,0,0,0-.067.345.693.693,0,0,0,.33.583,3.513,3.513,0,0,0,1.008.432,5.876,5.876,0,0,1,.919.345,2.638,2.638,0,0,1,.645.43,1.556,1.556,0,0,1,.382.54,1.739,1.739,0,0,1,.125.675,1.584,1.584,0,0,1-.157.714,1.526,1.526,0,0,1-.449.54,2.107,2.107,0,0,1-.706.341,3.347,3.347,0,0,1-.924.119,3.305,3.305,0,0,1-.894-.123,2.531,2.531,0,0,1-.79-.371,1.935,1.935,0,0,1-.563-.62,1.716,1.716,0,0,1-.214-.872h1.092a1.14,1.14,0,0,0,.106.511.953.953,0,0,0,.289.35,1.209,1.209,0,0,0,.434.2,2.217,2.217,0,0,0,.539.063,1.347,1.347,0,0,0,.857-.231A.745.745,0,0,0,889.1,1233.159Z" transform="translate(-869.717 -1228.407)" fill="#aec3ff"/>
        <path id="Trazado_151230" data-name="Trazado 151230" d="M935.7,1233.107v2.335H934.6v-6.285h2.4a2.935,2.935,0,0,1,.973.149,2.074,2.074,0,0,1,.719.416,1.777,1.777,0,0,1,.447.635,2.049,2.049,0,0,1,.153.8,2.086,2.086,0,0,1-.153.82,1.626,1.626,0,0,1-.447.613,2.033,2.033,0,0,1-.719.384,3.237,3.237,0,0,1-.973.134Zm0-.876h1.312a1.678,1.678,0,0,0,.542-.078.986.986,0,0,0,.373-.22.849.849,0,0,0,.214-.339,1.325,1.325,0,0,0,.067-.429,1.344,1.344,0,0,0-.067-.423.973.973,0,0,0-.214-.36,1.042,1.042,0,0,0-.373-.25,1.426,1.426,0,0,0-.542-.093H935.7Z" transform="translate(-913.169 -1229.071)" fill="#aec3ff"/>
        <path id="Trazado_151231" data-name="Trazado 151231" d="M987.165,1231.8a4.079,4.079,0,0,1-.188,1.284,2.8,2.8,0,0,1-.529.963,2.3,2.3,0,0,1-.82.606,2.761,2.761,0,0,1-2.119,0,2.359,2.359,0,0,1-.827-.606,2.79,2.79,0,0,1-.54-.963,3.986,3.986,0,0,1-.192-1.284v-.319a4.007,4.007,0,0,1,.192-1.286,2.85,2.85,0,0,1,.535-.967,2.305,2.305,0,0,1,.822-.609,2.593,2.593,0,0,1,1.057-.211,2.62,2.62,0,0,1,1.064.211,2.3,2.3,0,0,1,.824.609,2.8,2.8,0,0,1,.531.967,4.1,4.1,0,0,1,.188,1.286Zm-1.092-.328a3.834,3.834,0,0,0-.1-.93,1.976,1.976,0,0,0-.3-.676,1.281,1.281,0,0,0-.477-.412,1.422,1.422,0,0,0-.641-.14,1.388,1.388,0,0,0-.63.14,1.3,1.3,0,0,0-.477.412,2.009,2.009,0,0,0-.3.676,3.683,3.683,0,0,0-.106.93v.328a3.708,3.708,0,0,0,.106.932,2.012,2.012,0,0,0,.3.68,1.306,1.306,0,0,0,.481.414,1.406,1.406,0,0,0,.632.14,1.285,1.285,0,0,0,1.116-.552,2.786,2.786,0,0,0,.391-1.615Z" transform="translate(-955.064 -1228.407)" fill="#aec3ff"/>
        <path id="Trazado_151232" data-name="Trazado 151232" d="M1038.991,1233.02h-1.217v2.422h-1.092v-6.285h2.21a3.454,3.454,0,0,1,.963.123,1.979,1.979,0,0,1,.714.363,1.537,1.537,0,0,1,.442.594,2.074,2.074,0,0,1,.151.82,1.767,1.767,0,0,1-.3,1.055,1.937,1.937,0,0,1-.848.654l1.412,2.62v.056h-1.17Zm-1.217-.876h1.122a1.543,1.543,0,0,0,.513-.078,1.027,1.027,0,0,0,.367-.216.883.883,0,0,0,.22-.328,1.152,1.152,0,0,0,.073-.419,1.318,1.318,0,0,0-.069-.438.871.871,0,0,0-.212-.337.943.943,0,0,0-.365-.216,1.662,1.662,0,0,0-.533-.076h-1.118Z" transform="translate(-1003.492 -1229.071)" fill="#aec3ff"/>
        <path id="Trazado_151233" data-name="Trazado 151233" d="M1083.84,1230.037h-1.96v5.4H1080.8v-5.4h-1.942v-.88h4.985Z" transform="translate(-1040.809 -1229.071)" fill="#aec3ff"/>
      </g>
      <g id="Grupo_94659" data-name="Grupo 94659" transform="translate(17.859 65.539)">
        <path id="Trazado_151234" data-name="Trazado 151234" d="M902.451,1751.738h-8.666a.505.505,0,0,1-.505-.506h0a.505.505,0,0,1,.505-.505h8.666a.505.505,0,0,1,.505.505h0A.506.506,0,0,1,902.451,1751.738Z" transform="translate(-887.105 -1750.727)" fill="#aec3ff"/>
        <path id="Trazado_151235" data-name="Trazado 151235" d="M861.176,1772.659H840.16a.505.505,0,0,1-.505-.505h0a.505.505,0,0,1,.505-.506h21.015a.505.505,0,0,1,.505.506h0A.505.505,0,0,1,861.176,1772.659Z" transform="translate(-839.655 -1769.239)" fill="#aec3ff"/>
      </g>
      <g id="Grupo_94660" data-name="Grupo 94660" transform="translate(8.317 18.075)">
        <path id="Trazado_151236" data-name="Trazado 151236" d="M777.343,1379.637a20.556,20.556,0,1,1,14.534-6.021A20.421,20.421,0,0,1,777.343,1379.637Zm0-40.884a20.329,20.329,0,1,0,14.375,5.954A20.2,20.2,0,0,0,777.343,1338.753Z" transform="translate(-756.788 -1338.527)" fill="#aec3ff"/>
      </g>
      <path id="Trazado_151237" data-name="Trazado 151237" d="M825.125,1390.386a16.6,16.6,0,0,1-.266,2.969,16.486,16.486,0,0,1-31.289,3.7,16.184,16.184,0,0,1-.839-2.37,16.6,16.6,0,0,1-.194-7.809c0-.013.006-.025.008-.039a16.524,16.524,0,0,1,6.433-9.8q.508-.369,1.046-.7a16.393,16.393,0,0,1,8.621-2.433q.629,0,1.246.047a16.38,16.38,0,0,1,8.163,2.9h0a16.545,16.545,0,0,1,4.521,4.72q.379.6.707,1.229a16.408,16.408,0,0,1,1.844,7.584Z" transform="translate(-779.772 -1351.755)" fill="#aec3ff"/>
      <g id="Grupo_94661" data-name="Grupo 94661" transform="translate(12.764 24.427)">
        <path id="Trazado_151238" data-name="Trazado 151238" d="M805.918,1401.7c-.658,1.042.275,2.85-1.7,2.357s-3.179-.713-3.289.383,1.48,1.1,1.48,2.248-.713,1.531-1.809.985-1.412-1.341-2.686-.848-2.014.165-2.3-.822a1.437,1.437,0,0,0-.2-.432c0-.013.006-.026.008-.039a16.525,16.525,0,0,1,6.433-9.8q.508-.369,1.046-.7a2.169,2.169,0,0,1,1.652.862c1.151,1.426,1.918.713,1.644,2.357s.164,1.864,1.1,1.809,2.028-.055,2.138.658S806.576,1400.66,805.918,1401.7Z" transform="translate(-795.41 -1394.876)" fill="#94b0ed"/>
        <path id="Trazado_151239" data-name="Trazado 151239" d="M880.856,1514.356s-1.452.466-1.836-.548.055-1.233-1.233-1.535-1.4-1.178-2.22-1.069-.411.438-1.37,1.151-1.836.383-1.809,1.7,1.452,1.521,1.74,2.384-.206,1.233.411,1.891,1.767.37,1.233,1.274-1.357,1.6-.946,3,.123,1.48.822,2.466,2.055,1.315,2.261.658-.945-1.521-.576-2.179.987-.206,1.233-1.192,1.247-.987,1.329-1.672-1.206-1.726-.712-2.165,1.48.795,2.247-.3.247-1.973,1.041-3.015S881.4,1513.753,880.856,1514.356Z" transform="translate(-863.524 -1497.665)" fill="#94b0ed"/>
        <path id="Trazado_151240" data-name="Trazado 151240" d="M980.7,1463.654a16.6,16.6,0,0,1-.266,2.969,16.386,16.386,0,0,1-2.6,6.323,1.88,1.88,0,0,1-1.318-.035c-2.055-.822-.535-3.042.288-4.152s-1.274-.617-2.8-1.644.164-3.782-1.4-3.33-3.453,1.028-4.357-.493.822-1.768.041-3.042.452-2.014,2.014-2.138,1.357-1.233,3.289-1.4,1.891,2.3,4.028,2.137,2.041.329,2.041.329a1,1,0,0,1,.446.094A16.518,16.518,0,0,1,980.7,1463.654Z" transform="translate(-948.115 -1449.451)" fill="#94b0ed"/>
        <path id="Trazado_151241" data-name="Trazado 151241" d="M985.642,1405.454c-1.777.865-2.491-1.487-4.01-.78s-1.264-.658-2.469-1.535-3.617.713-3.508-.658,1.918-.986,2.3-2.082,2.137-.822,2.137-.822a1.182,1.182,0,0,1,.319-.072h0a16.542,16.542,0,0,1,4.521,4.721Q985.314,1404.823,985.642,1405.454Z" transform="translate(-954.897 -1398.834)" fill="#94b0ed"/>
        <path id="Trazado_151242" data-name="Trazado 151242" d="M899.008,1395.583s.932-1.344-.548-1.741-1.452.122-2.6,0-1.6.768-.74,1.741,1.562,2.84,2.343,1.844S898.09,1395.679,899.008,1395.583Z" transform="translate(-883.238 -1393.691)" fill="#94b0ed"/>
      </g>
    </g>
  </g>
</svg>
