<svg xmlns="http://www.w3.org/2000/svg" width="89.293" height="86" viewBox="0 0 89.293 86">
  <g id="Grupo_99792" data-name="Grupo 99792" transform="translate(2730.182 6829)">
    <g id="Grupo_98558" data-name="Grupo 98558" transform="translate(-2941.536 -7042)">
      <path id="Trazado_153050" data-name="Trazado 153050" d="M294.646,243.521c1.327,4.076,4.685,8.03,4.685,12.552s-3.358,8.477-4.685,12.552c-1.382,4.239-1.03,9.4-3.589,12.918-2.586,3.561-7.623,4.807-11.184,7.393-3.521,2.573-6.243,6.987-10.481,8.355-4.089,1.327-8.869-.6-13.392-.6s-9.3,1.923-13.391.6c-4.239-1.368-6.96-5.782-10.481-8.355-3.561-2.586-8.6-3.832-11.184-7.393-2.56-3.521-2.208-8.68-3.589-12.918-1.327-4.076-4.685-8.029-4.685-12.552s3.358-8.476,4.685-12.552c1.381-4.238,1.029-9.4,3.588-12.918,2.587-3.561,7.624-4.807,11.185-7.393,3.521-2.573,6.242-6.987,10.481-8.355,4.089-1.327,8.869.6,13.391.6s9.3-1.923,13.392-.6c4.238,1.368,6.96,5.782,10.48,8.355,3.562,2.586,8.6,3.832,11.185,7.393C293.617,234.124,293.264,239.282,294.646,243.521Z" fill="#ffd311"/>
      <path id="Trazado_153051" data-name="Trazado 153051" d="M237.192,281.543c-2.559-3.52-2.207-8.679-3.588-12.918-1.327-4.075-4.685-8.029-4.685-12.552s3.358-8.476,4.685-12.552c1.381-4.238,1.029-9.4,3.588-12.918,2.587-3.561,7.624-4.807,11.185-7.393,3.167-2.314,5.7-6.1,9.257-7.836-.547.047-1.092.077-1.633.077-4.523,0-9.3-1.923-13.392-.6-4.238,1.368-6.96,5.782-10.481,8.355-3.561,2.586-8.6,3.832-11.184,7.393-2.559,3.521-2.207,8.68-3.589,12.918-1.327,4.076-4.685,8.03-4.685,12.552s3.358,8.477,4.685,12.552c1.382,4.239,1.03,9.4,3.589,12.918,2.586,3.561,7.623,4.807,11.184,7.394,3.521,2.572,6.243,6.987,10.481,8.354,4.089,1.327,8.869-.6,13.392-.6.541,0,1.086.031,1.633.077-3.559-1.736-6.09-5.521-9.257-7.835C244.816,286.35,239.779,285.1,237.192,281.543Z" fill="#fdb51e"/>
      <g id="Grupo_95402" data-name="Grupo 95402">
        <path id="Trazado_153052" data-name="Trazado 153052" d="M297.816,247.29a30,30,0,0,1-1.919-4.25,31.779,31.779,0,0,1-1.013-4.782c-.477-2.968-.971-6.037-2.762-8.5-1.815-2.5-4.6-3.917-7.293-5.288a31.252,31.252,0,0,1-4.18-2.394,30.875,30.875,0,0,1-3.506-3.2c-2.142-2.155-4.357-4.384-7.344-5.348-2.856-.927-5.908-.451-8.859.009a23.627,23.627,0,0,1-9.878,0c-2.952-.46-6-.936-8.857-.01-2.989.965-5.2,3.194-7.347,5.349a30.785,30.785,0,0,1-3.505,3.2L232.9,224.2a33.2,33.2,0,0,0,3.82-3.465c2.009-2.021,3.907-3.931,6.29-4.7,2.259-.733,4.873-.325,7.641.106a26.061,26.061,0,0,0,10.69,0c2.768-.431,5.383-.839,7.643-.106,2.38.769,4.279,2.678,6.288,4.7A33.177,33.177,0,0,0,279.1,224.2a33.555,33.555,0,0,0,4.536,2.613c2.526,1.286,4.914,2.5,6.358,4.49,1.422,1.956,1.844,4.586,2.292,7.371a34.25,34.25,0,0,0,1.109,5.18,32.34,32.34,0,0,0,2.08,4.635c1.306,2.548,2.54,4.954,2.54,7.51s-1.234,4.963-2.54,7.51a32.439,32.439,0,0,0-2.08,4.635,34.29,34.29,0,0,0-1.109,5.181c-.448,2.784-.87,5.415-2.293,7.371-1.444,1.988-3.83,3.2-6.357,4.489A33.769,33.769,0,0,0,279.1,287.8l1.546,2.129a31.221,31.221,0,0,1,4.183-2.4c2.693-1.371,5.478-2.789,7.293-5.288,1.792-2.465,2.285-5.534,2.762-8.5a31.919,31.919,0,0,1,1.013-4.783,30,30,0,0,1,1.919-4.249c1.392-2.713,2.831-5.519,2.831-8.711S299.208,250,297.816,247.29Z" fill="#231f20"/>
        <path id="Trazado_153053" data-name="Trazado 153053" d="M275.277,291.266c-2.01,2.022-3.908,3.932-6.291,4.7-2.258.733-4.873.325-7.64-.107a26.113,26.113,0,0,0-10.691,0c-2.768.432-5.382.84-7.642.106-2.381-.768-4.279-2.678-6.289-4.7A33.1,33.1,0,0,0,232.9,287.8a33.649,33.649,0,0,0-4.535-2.613c-2.527-1.286-4.914-2.5-6.358-4.489-1.422-1.956-1.845-4.587-2.293-7.371a34.291,34.291,0,0,0-1.109-5.181,32.439,32.439,0,0,0-2.08-4.635c-1.306-2.547-2.54-4.953-2.54-7.51s1.234-4.962,2.54-7.51a32.379,32.379,0,0,0,2.08-4.634,34.291,34.291,0,0,0,1.109-5.181c.448-2.785.871-5.415,2.293-7.372,1.444-1.988,3.831-3.2,6.357-4.489.389-.2.778-.395,1.162-.6l-1.216-2.334c-.377.2-.758.391-1.139.585-2.693,1.371-5.478,2.788-7.293,5.287-1.792,2.465-2.285,5.534-2.762,8.5a31.932,31.932,0,0,1-1.013,4.784,30.046,30.046,0,0,1-1.919,4.249c-1.392,2.713-2.831,5.519-2.831,8.71s1.439,6,2.831,8.711a30,30,0,0,1,1.919,4.249,31.919,31.919,0,0,1,1.013,4.783c.477,2.967.97,6.036,2.762,8.5,1.815,2.5,4.6,3.918,7.293,5.288a31.318,31.318,0,0,1,4.18,2.395,30.866,30.866,0,0,1,3.506,3.2c2.142,2.156,4.357,4.385,7.344,5.349,2.856.926,5.908.45,8.859-.01a23.631,23.631,0,0,1,9.879,0,34.041,34.041,0,0,0,5.186.54,11.8,11.8,0,0,0,3.67-.53c2.989-.964,5.2-3.193,7.347-5.349.325-.328.651-.655.978-.977l-1.845-1.876C275.942,290.6,275.609,290.931,275.277,291.266Z" fill="#231f20"/>
      </g>
      <g id="Grupo_95403" data-name="Grupo 95403">
        <rect id="Rectángulo_24435" data-name="Rectángulo 24435" width="2.708" height="2.631" transform="translate(218.086 254.684)" fill="#fff"/>
        <path id="Trazado_153054" data-name="Trazado 153054" d="M233.087,245.584l7.07,21.211h4.6l7.07-21.211-2.5-.832-6.47,19.411h-.811l-6.471-19.411Z" fill="#fff"/>
        <rect id="Rectángulo_24436" data-name="Rectángulo 24436" width="2.631" height="21.666" transform="translate(257.393 245.167)" fill="#fff"/>
        <path id="Trazado_153055" data-name="Trazado 153055" d="M276.311,258.67a2.614,2.614,0,0,0,2.67-2.67v-8.124a2.615,2.615,0,0,0-2.67-2.67H264.163v21.627H266.8V258.67ZM266.8,247.838h9.516l.038.011V256l-.012.038H266.8v-8.2Z" fill="#fff"/>
        <rect id="Rectángulo_24437" data-name="Rectángulo 24437" width="2.708" height="2.631" transform="translate(243.815 219.479)" fill="#fff"/>
        <rect id="Rectángulo_24438" data-name="Rectángulo 24438" width="2.708" height="2.631" transform="translate(265.479 219.479)" fill="#fff"/>
        <rect id="Rectángulo_24439" data-name="Rectángulo 24439" width="2.708" height="2.631" transform="translate(243.815 289.89)" fill="#fff"/>
      </g>
      <g id="Grupo_95404" data-name="Grupo 95404">
        <rect id="Rectángulo_24440" data-name="Rectángulo 24440" width="2.708" height="2.631" transform="translate(224.857 276.35)" fill="#231f20"/>
        <rect id="Rectángulo_24441" data-name="Rectángulo 24441" width="2.708" height="2.631" transform="translate(284.436 276.35)" fill="#231f20"/>
        <rect id="Rectángulo_24442" data-name="Rectángulo 24442" width="2.708" height="2.631" transform="translate(224.857 233.02)" fill="#231f20"/>
      </g>
      <rect id="Rectángulo_24443" data-name="Rectángulo 24443" width="2.708" height="2.631" transform="translate(291.206 254.684)" fill="#fff"/>
      <rect id="Rectángulo_24444" data-name="Rectángulo 24444" width="2.708" height="2.631" transform="translate(284.436 233.02)" fill="#231f20"/>
      <rect id="Rectángulo_24445" data-name="Rectángulo 24445" width="2.708" height="2.631" transform="translate(265.479 289.89)" fill="#fff"/>
      <g id="Grupo_95405" data-name="Grupo 95405">
        <rect id="Rectángulo_24446" data-name="Rectángulo 24446" width="33.851" height="2.631" transform="translate(245.167 238.436)" fill="#231f20"/>
        <rect id="Rectángulo_24447" data-name="Rectángulo 24447" width="8.124" height="2.631" transform="translate(232.982 238.436)" fill="#231f20"/>
        <rect id="Rectángulo_24448" data-name="Rectángulo 24448" width="46.039" height="2.631" transform="translate(232.982 270.933)" fill="#231f20"/>
      </g>
    </g>
  </g>
</svg>
