<svg xmlns="http://www.w3.org/2000/svg" width="86" height="86" viewBox="0 0 86 86">
  <g id="Grupo_99788" data-name="Grupo 99788" transform="translate(2729.182 7110)">
    <g id="Grupo_98557" data-name="Grupo 98557" transform="translate(-2942.182 -7323)">
      <path id="Trazado_152977" data-name="Trazado 152977" d="M217.161,222.71h55.484a2.773,2.773,0,0,1,2.774,2.774v69.355a2.773,2.773,0,0,1-2.774,2.774H217.161a2.774,2.774,0,0,1-2.774-2.774V225.484A2.773,2.773,0,0,1,217.161,222.71Z" fill="#f7d881"/>
      <g id="Grupo_95381" data-name="Grupo 95381">
        <path id="Trazado_152978" data-name="Trazado 152978" d="M219.936,228.258h49.935v63.806H219.936Z" fill="#ebf7fe"/>
      </g>
      <path id="Trazado_152979" data-name="Trazado 152979" d="M293.452,258.774a2.767,2.767,0,0,0-1.544-2.474,2.753,2.753,0,0,0-1.842-4.558,2.753,2.753,0,0,0-3.521-3.433,2.753,2.753,0,0,0-4.524-1.923,2.752,2.752,0,0,0-4.915.061,2.753,2.753,0,0,0-4.558,1.842,2.754,2.754,0,0,0-3.433,3.521,2.752,2.752,0,0,0-1.922,4.524,2.752,2.752,0,0,0,.061,4.915,2.753,2.753,0,0,0,1.842,4.558,2.753,2.753,0,0,0,3.52,3.433,2.753,2.753,0,0,0,4.525,1.922,2.751,2.751,0,0,0,4.914-.061,2.753,2.753,0,0,0,4.558-1.842,2.753,2.753,0,0,0,3.433-3.52,2.754,2.754,0,0,0,1.923-4.525A2.76,2.76,0,0,0,293.452,258.774Z" fill="#c16b3f"/>
      <path id="Trazado_152980" data-name="Trazado 152980" d="M278.484,252.224a11.409,11.409,0,0,0-1.7-5.985,2.732,2.732,0,0,0-2.56-.262,2.76,2.76,0,0,0-1.68,2.311,2.753,2.753,0,0,0-3.433,3.52,2.754,2.754,0,0,0-1.923,4.525,2.754,2.754,0,0,0,.063,4.916,2.762,2.762,0,0,0-.583,2.441c.111,0,.218.017.33.017A11.483,11.483,0,0,0,278.484,252.224Z" fill="#e39854"/>
      <circle id="Elipse_5085" data-name="Elipse 5085" cx="11.097" cy="11.097" r="11.097" transform="translate(242.129 235.194)" fill="#c66b60"/>
      <path id="Trazado_152981" data-name="Trazado 152981" d="M251.643,235.32a11.085,11.085,0,0,0-4.691,20.12,13.662,13.662,0,0,0,4.691-20.12Z" fill="#e47c6e"/>
      <g id="Grupo_95382" data-name="Grupo 95382">
        <path id="Trazado_152982" data-name="Trazado 152982" d="M279.581,272.645l-4.162,16.645-4.161-8.322-9.71,2.774,8.225-15.16a2.764,2.764,0,0,0,2.842.658,2.752,2.752,0,0,0,4.524,1.922A2.766,2.766,0,0,0,279.581,272.645Z" fill="#e39854"/>
        <path id="Trazado_152983" data-name="Trazado 152983" d="M279.581,272.645l4.161,16.645,4.161-8.322,9.71,2.774-8.224-15.16a2.765,2.765,0,0,1-2.842.658,2.622,2.622,0,0,1-1.613,2.33,2.869,2.869,0,0,1-2.879-.469,2.872,2.872,0,0,1-2.474,1.544Z" fill="#e39854"/>
        <path id="Trazado_152984" data-name="Trazado 152984" d="M261.548,222.71a12.569,12.569,0,0,1-10.007-5.023,8.325,8.325,0,0,0-13.275,0,12.573,12.573,0,0,1-10.008,5.023v5.548a2.773,2.773,0,0,0,2.774,2.774h27.742a2.773,2.773,0,0,0,2.774-2.774Z" fill="#e39854"/>
      </g>
      <g id="Grupo_95383" data-name="Grupo 95383">
        <path id="Trazado_152985" data-name="Trazado 152985" d="M233.807,260.16h-8.323a1.386,1.386,0,0,1-1.387-1.387V250.45a1.386,1.386,0,0,1,1.387-1.387h8.323a1.386,1.386,0,0,1,1.387,1.387v8.323A1.387,1.387,0,0,1,233.807,260.16Zm-6.936-2.774h5.548v-5.549h-5.548Z" fill="#758190"/>
      </g>
      <g id="Grupo_95384" data-name="Grupo 95384">
        <path id="Trazado_152986" data-name="Trazado 152986" d="M233.807,272.644h-8.323a1.386,1.386,0,0,1-1.387-1.387v-8.323a1.386,1.386,0,0,1,1.387-1.387h8.323a1.386,1.386,0,0,1,1.387,1.387v8.323A1.387,1.387,0,0,1,233.807,272.644Zm-6.936-2.774h5.548v-5.549h-5.548Z" fill="#758190"/>
      </g>
      <g id="Grupo_95385" data-name="Grupo 95385">
        <path id="Trazado_152987" data-name="Trazado 152987" d="M233.807,285.128h-8.323a1.386,1.386,0,0,1-1.387-1.387v-8.323a1.386,1.386,0,0,1,1.387-1.387h8.323a1.386,1.386,0,0,1,1.387,1.387v8.323A1.387,1.387,0,0,1,233.807,285.128Zm-6.936-2.775h5.548V276.8h-5.548Z" fill="#758190"/>
      </g>
      <g id="Grupo_95386" data-name="Grupo 95386">
        <path id="Trazado_152988" data-name="Trazado 152988" d="M229.645,257.387a1.415,1.415,0,0,1-.274-.028,1.385,1.385,0,0,1-.966-.739l-1.387-2.774,2.482-1.24.592,1.184,8.361-7.165,1.8,2.1-9.71,8.323A1.4,1.4,0,0,1,229.645,257.387Z" fill="#96cc7f"/>
      </g>
      <g id="Grupo_95387" data-name="Grupo 95387">
        <path id="Trazado_152989" data-name="Trazado 152989" d="M229.645,269.871a1.415,1.415,0,0,1-.274-.028,1.385,1.385,0,0,1-.966-.739l-1.387-2.774,2.482-1.24.592,1.184,8.361-7.166,1.8,2.106-9.71,8.323A1.4,1.4,0,0,1,229.645,269.871Z" fill="#96cc7f"/>
      </g>
      <g id="Grupo_95388" data-name="Grupo 95388">
        <path id="Trazado_152990" data-name="Trazado 152990" d="M229.645,282.355a1.415,1.415,0,0,1-.274-.028,1.388,1.388,0,0,1-.966-.739l-1.387-2.774,2.482-1.241.592,1.185,8.361-7.166,1.8,2.106-9.71,8.323A1.4,1.4,0,0,1,229.645,282.355Z" fill="#96cc7f"/>
      </g>
      <circle id="Elipse_5086" data-name="Elipse 5086" cx="8.323" cy="8.323" r="8.323" transform="translate(271.258 250.452)" fill="#f2c351"/>
      <g id="Grupo_95389" data-name="Grupo 95389">
        <path id="Trazado_152991" data-name="Trazado 152991" d="M285.129,258.774h-2.774A2.777,2.777,0,0,0,279.581,256v-2.774A5.553,5.553,0,0,1,285.129,258.774Z" fill="#f7d881"/>
      </g>
      <path id="Trazado_152992" data-name="Trazado 152992" d="M249.065,242.129a4.161,4.161,0,1,0,8.322,0v-1.387h-8.322Z" fill="#d5cec2"/>
      <path id="Trazado_152993" data-name="Trazado 152993" d="M249.065,250.452a4.161,4.161,0,1,1,8.322,0v1.387h-8.322Z" fill="#f2c351"/>
      <g id="Grupo_95390" data-name="Grupo 95390">
        <path id="Trazado_152994" data-name="Trazado 152994" d="M224.1,235.194h13.871v2.774H224.1Z" fill="#c1c8d1"/>
      </g>
      <g id="Grupo_95391" data-name="Grupo 95391">
        <path id="Trazado_152995" data-name="Trazado 152995" d="M224.1,240.742h8.322v2.774H224.1Z" fill="#c1c8d1"/>
      </g>
      <g id="Grupo_95392" data-name="Grupo 95392">
        <path id="Trazado_152996" data-name="Trazado 152996" d="M235.194,240.742h2.774v2.774h-2.774Z" fill="#c1c8d1"/>
      </g>
      <g id="Grupo_95393" data-name="Grupo 95393">
        <path id="Trazado_152997" data-name="Trazado 152997" d="M244.9,261.548h15.923V264.2H244.9Z" fill="#c1c8d1"/>
      </g>
      <g id="Grupo_95394" data-name="Grupo 95394">
        <path id="Trazado_152998" data-name="Trazado 152998" d="M250.21,266.855h10.616v2.654H250.21Z" fill="#c1c8d1"/>
      </g>
      <g id="Grupo_95395" data-name="Grupo 95395">
        <path id="Trazado_152999" data-name="Trazado 152999" d="M244.9,266.855h2.654v2.654H244.9Z" fill="#c1c8d1"/>
      </g>
      <g id="Grupo_95396" data-name="Grupo 95396">
        <path id="Trazado_153000" data-name="Trazado 153000" d="M244.9,272.164H255.52v2.653H244.9Z" fill="#c1c8d1"/>
      </g>
      <g id="Grupo_95397" data-name="Grupo 95397">
        <path id="Trazado_153001" data-name="Trazado 153001" d="M258.774,272.645h2.774v2.774h-2.774Z" fill="#c1c8d1"/>
      </g>
      <g id="Grupo_95398" data-name="Grupo 95398">
        <path id="Trazado_153002" data-name="Trazado 153002" d="M250.452,222.708h-2.774a2.777,2.777,0,0,0-2.775-2.774v-2.773A5.553,5.553,0,0,1,250.452,222.708Z" fill="#c16b3f"/>
      </g>
      <g id="Grupo_95399" data-name="Grupo 95399">
        <path id="Trazado_153003" data-name="Trazado 153003" d="M286.616,274.641l2.48-1.241,1.386,2.773-2.48,1.24Z" fill="#c16b3f"/>
      </g>
      <path id="Trazado_153004" data-name="Trazado 153004" d="M249.065,242.129a4.16,4.16,0,0,0,4.161,4.161,4.218,4.218,0,0,0,.716-.072,13.538,13.538,0,0,0,.057-5.476h-4.934Z" fill="#e7e4dd"/>
      <path id="Trazado_153005" data-name="Trazado 153005" d="M253.906,246.358a4.224,4.224,0,0,0-.68-.068,4.161,4.161,0,0,0-4.161,4.162v1.387h2.215A13.642,13.642,0,0,0,253.906,246.358Z" fill="#f7d881"/>
      <path id="Trazado_153006" data-name="Trazado 153006" d="M271.258,258.774a8.264,8.264,0,0,0,.881,3.709,11.473,11.473,0,0,0,6.346-10.259,11.653,11.653,0,0,0-.135-1.671A8.317,8.317,0,0,0,271.258,258.774Z" fill="#f7d881"/>
      <g id="Grupo_95400" data-name="Grupo 95400">
        <path id="Trazado_153007" data-name="Trazado 153007" d="M233.807,249.064h-8.323a1.387,1.387,0,0,0-1.387,1.388v8.322a1.386,1.386,0,0,0,1.387,1.387h8.323a1.386,1.386,0,0,0,1.387-1.387v-5.7l5.064-4.34-1.8-2.106-3.54,3.034A1.355,1.355,0,0,0,233.807,249.064Zm-6.936,2.775h5.5l-2.276,1.951-.592-1.184-2.482,1.24,1.387,2.774a1.391,1.391,0,0,0,.966.739,1.424,1.424,0,0,0,.267.028h-2.767Zm5.548,5.547h-2.77a1.392,1.392,0,0,0,.9-.335l1.871-1.6Z"/>
        <path id="Trazado_153008" data-name="Trazado 153008" d="M234.913,262.141a1.36,1.36,0,0,0-1.106-.593h-8.323a1.386,1.386,0,0,0-1.387,1.387v8.323a1.386,1.386,0,0,0,1.387,1.387h8.323a1.386,1.386,0,0,0,1.387-1.387v-5.7l5.064-4.341-1.8-2.105Zm-8.042,2.182h5.5l-2.276,1.951-.592-1.184-2.482,1.24L228.4,269.1a1.391,1.391,0,0,0,.966.739,1.424,1.424,0,0,0,.267.028h-2.767Zm5.548,5.547h-2.77a1.392,1.392,0,0,0,.9-.335l1.871-1.6Z"/>
        <path id="Trazado_153009" data-name="Trazado 153009" d="M238.452,271.591l-3.54,3.034a1.357,1.357,0,0,0-1.1-.593h-8.323a1.386,1.386,0,0,0-1.387,1.387v8.323a1.386,1.386,0,0,0,1.387,1.387h8.323a1.386,1.386,0,0,0,1.387-1.387v-5.7l5.064-4.341Zm-11.581,5.215h5.5l-2.276,1.952-.592-1.185-2.482,1.241,1.387,2.774a1.394,1.394,0,0,0,.966.739,1.514,1.514,0,0,0,.267.028h-2.767Zm5.548,5.547h-2.77a1.386,1.386,0,0,0,.9-.334l1.871-1.6Z"/>
        <path id="Trazado_153010" data-name="Trazado 153010" d="M269.871,258.774a9.71,9.71,0,1,0,9.71-9.71A9.722,9.722,0,0,0,269.871,258.774Zm9.71-6.935a6.935,6.935,0,1,1-6.936,6.935A6.943,6.943,0,0,1,279.581,251.839Z"/>
        <path id="Trazado_153011" data-name="Trazado 153011" d="M282.355,258.773h2.774a5.553,5.553,0,0,0-5.548-5.547V256A2.776,2.776,0,0,1,282.355,258.773Z"/>
        <path id="Trazado_153012" data-name="Trazado 153012" d="M298.832,283.08l-7.81-14.4a4.107,4.107,0,0,0,.559-1.922,4.136,4.136,0,0,0,2.17-5.2,4.131,4.131,0,0,0-.037-5.627,4.135,4.135,0,0,0-2.14-5.208,4.136,4.136,0,0,0-4.008-3.956,4.135,4.135,0,0,0-5.194-2.17,4.293,4.293,0,0,0-5.568-.012V225.484a4.166,4.166,0,0,0-4.162-4.161h-11.1a11.257,11.257,0,0,1-8.9-4.474,9.711,9.711,0,0,0-15.484,0,11.261,11.261,0,0,1-8.9,4.474h-11.1A4.166,4.166,0,0,0,213,225.484v69.355A4.166,4.166,0,0,0,217.161,299h55.483a4.166,4.166,0,0,0,4.161-4.161v-5.375l2.776-11.1,2.816,11.264a1.384,1.384,0,0,0,1.194,1.042,1.277,1.277,0,0,0,.151.008,1.388,1.388,0,0,0,1.24-.767l3.647-7.292,8.6,2.458a1.387,1.387,0,0,0,1.6-2Zm-20.486-36.014a1.419,1.419,0,0,1,2.45-.031,1.389,1.389,0,0,0,.957.712,1.363,1.363,0,0,0,1.155-.3,1.39,1.39,0,0,1,1.408-.227,1.374,1.374,0,0,1,.846,1.186,1.4,1.4,0,0,0,.615,1.053,1.378,1.378,0,0,0,1.208.16,1.367,1.367,0,0,1,1.753,1.711,1.388,1.388,0,0,0,1.2,1.788,1.365,1.365,0,0,1,.917,2.27,1.39,1.39,0,0,0,.431,2.149,1.363,1.363,0,0,1,.032,2.448,1.387,1.387,0,0,0-.416,2.113,1.366,1.366,0,0,1-.958,2.254,1.386,1.386,0,0,0-1.214,1.822,1.366,1.366,0,0,1-1.71,1.754,1.4,1.4,0,0,0-1.181.175,1.379,1.379,0,0,0-.607,1.025,1.366,1.366,0,0,1-2.271.916,1.389,1.389,0,0,0-2.149.432,1.417,1.417,0,0,1-2.449.029,1.394,1.394,0,0,0-.957-.712,1.352,1.352,0,0,0-.268-.026,1.4,1.4,0,0,0-.888.32,1.366,1.366,0,0,1-2.255-.957,1.388,1.388,0,0,0-1.823-1.213,1.367,1.367,0,0,1-1.753-1.711,1.388,1.388,0,0,0-1.2-1.788,1.367,1.367,0,0,1-.917-2.272,1.387,1.387,0,0,0-.431-2.148,1.364,1.364,0,0,1-.774-1.228,1.38,1.38,0,0,1,.745-1.215,1.386,1.386,0,0,0,.416-2.112,1.367,1.367,0,0,1,.957-2.256,1.386,1.386,0,0,0,1.214-1.824,1.366,1.366,0,0,1,1.71-1.752,1.388,1.388,0,0,0,1.788-1.2,1.367,1.367,0,0,1,2.272-.917,1.385,1.385,0,0,0,2.147-.432Zm-5.848,33.28a1.388,1.388,0,0,0-1.621-.714l-6.535,1.867L270.3,270.51a4.1,4.1,0,0,0,1.29.263,4.134,4.134,0,0,0,5.2,2.169,4.084,4.084,0,0,0,1.109.714l-2.914,11.657Zm1.533-54.862v19.108c-.112.037-.229.059-.34.106a4.132,4.132,0,0,0-2.157,2.082c-.094,0-.184.028-.277.037v-18.56a1.388,1.388,0,0,0-1.387-1.387h-6.937V224.1h9.709a1.39,1.39,0,0,1,1.389,1.389Zm-44.386-1.459a14.1,14.1,0,0,0,9.727-5.5,6.936,6.936,0,0,1,11.062,0,14.106,14.106,0,0,0,9.727,5.5v4.232a1.388,1.388,0,0,1-1.387,1.387H231.032a1.388,1.388,0,0,1-1.387-1.387Zm1.387,8.393h27.742a4.156,4.156,0,0,0,3.906-2.774h5.8v18.712a4.1,4.1,0,0,0-.9,2.43,4.137,4.137,0,0,0-2.171,5.2,4.136,4.136,0,0,0,.039,5.629,4.132,4.132,0,0,0,2.139,5.208,4.125,4.125,0,0,0,.553,1.863l-7.811,14.4a1.388,1.388,0,0,0,1.6,2l6.554-1.874v7.474H221.323V229.645h5.8a4.155,4.155,0,0,0,3.906,2.773Zm41.612,63.806H217.161a1.388,1.388,0,0,1-1.387-1.387V225.484a1.388,1.388,0,0,1,1.387-1.387h9.71v2.774h-6.935a1.387,1.387,0,0,0-1.388,1.387v63.806a1.387,1.387,0,0,0,1.388,1.388h49.935a1.386,1.386,0,0,0,1.387-1.388v-7.995l2.774,5.547v5.224A1.388,1.388,0,0,1,272.644,296.224Zm15.639-16.591a1.394,1.394,0,0,0-1.621.715l-2.484,4.968-2.915-11.654a4.119,4.119,0,0,0,1.153-.755,4.133,4.133,0,0,0,5.207-2.14,4.167,4.167,0,0,0,1.23-.259l5.965,10.992Z"/>
        <path id="Trazado_153013" data-name="Trazado 153013" d="M253.226,258.773a12.484,12.484,0,1,0-12.484-12.484A12.5,12.5,0,0,0,253.226,258.773Zm0-22.192a9.71,9.71,0,1,1-9.71,9.709A9.719,9.719,0,0,1,253.226,236.581Z"/>
        <path id="Trazado_153014" data-name="Trazado 153014" d="M249.065,253.224h8.322a1.386,1.386,0,0,0,1.387-1.387V250.45a5.514,5.514,0,0,0-1.917-4.161,5.511,5.511,0,0,0,1.917-4.161v-1.387a1.386,1.386,0,0,0-1.387-1.388h-8.322a1.386,1.386,0,0,0-1.387,1.388v1.387a5.514,5.514,0,0,0,1.916,4.161,5.51,5.51,0,0,0-1.916,4.161v1.387A1.386,1.386,0,0,0,249.065,253.224Zm1.387-2.774a2.774,2.774,0,0,1,5.548,0ZM256,242.129a2.774,2.774,0,0,1-5.549,0Z"/>
        <path id="Trazado_153015" data-name="Trazado 153015" d="M224.1,235.194h13.871v2.774H224.1Z"/>
        <path id="Trazado_153016" data-name="Trazado 153016" d="M224.1,240.742h8.322v2.774H224.1Z"/>
        <path id="Trazado_153017" data-name="Trazado 153017" d="M235.194,240.742h2.774v2.774h-2.774Z"/>
        <path id="Trazado_153018" data-name="Trazado 153018" d="M244.9,261.548h16.645v2.775H244.9Z"/>
        <path id="Trazado_153019" data-name="Trazado 153019" d="M250.452,267.1h11.1v2.774h-11.1Z"/>
        <path id="Trazado_153020" data-name="Trazado 153020" d="M244.9,267.1h2.775v2.774H244.9Z"/>
        <path id="Trazado_153021" data-name="Trazado 153021" d="M244.9,272.645H256v2.774H244.9Z"/>
        <path id="Trazado_153022" data-name="Trazado 153022" d="M258.774,272.645h2.774v2.774h-2.774Z"/>
        <path id="Trazado_153023" data-name="Trazado 153023" d="M247.678,222.708h2.774a5.554,5.554,0,0,0-5.549-5.548v2.774A2.778,2.778,0,0,1,247.678,222.708Z"/>
        <path id="Trazado_153024" data-name="Trazado 153024" d="M286.616,274.641l2.48-1.241,1.386,2.773-2.48,1.24Z"/>
      </g>
    </g>
  </g>
</svg>
