<svg xmlns="http://www.w3.org/2000/svg" width="98.438" height="120" viewBox="0 0 98.438 120">
  <g id="Grupo_94645" data-name="Grupo 94645" transform="translate(-46)">
    <path id="Trazado_151927" data-name="Trazado 151927" d="M121.625,140.688v76.406a4.686,4.686,0,0,1-4.687,4.688H60.688A4.686,4.686,0,0,1,56,217.094V140.688A4.686,4.686,0,0,1,60.688,136h56.25A4.686,4.686,0,0,1,121.625,140.688Z" transform="translate(-7.656 -104.125)" fill="#495b73"/>
    <path id="Trazado_151928" data-name="Trazado 151928" d="M142.875,176v29.531H96V176Z" transform="translate(-38.281 -134.75)" fill="#b8eaff"/>
    <path id="Trazado_151929" data-name="Trazado 151929" d="M85.375,14.688V39.531H76V14.688a4.688,4.688,0,0,1,9.375,0Z" transform="translate(-22.969 -7.656)" fill="#b8eaff"/>
    <path id="Trazado_151930" data-name="Trazado 151930" d="M128.344,229a2.344,2.344,0,1,0,2.344,2.344A2.345,2.345,0,0,0,128.344,229Z" transform="translate(-61.25 -175.328)"/>
    <path id="Trazado_151931" data-name="Trazado 151931" d="M374.125,25.781A25.811,25.811,0,0,0,348.344,0a2.344,2.344,0,0,0,0,4.688,21.118,21.118,0,0,1,21.094,21.094,2.344,2.344,0,1,0,4.688,0Z" transform="translate(-229.688)"/>
    <path id="Trazado_151932" data-name="Trazado 151932" d="M348.344,44.688a11.732,11.732,0,0,1,11.719,11.719,2.344,2.344,0,0,0,4.688,0A16.425,16.425,0,0,0,348.344,40a2.344,2.344,0,1,0,0,4.688Z" transform="translate(-229.688 -30.625)"/>
    <path id="Trazado_151933" data-name="Trazado 151933" d="M348.344,84.687a2.346,2.346,0,0,1,2.344,2.344,2.344,2.344,0,0,0,4.688,0A7.039,7.039,0,0,0,348.344,80a2.344,2.344,0,1,0,0,4.687Z" transform="translate(-229.688 -61.25)"/>
    <path id="Trazado_151934" data-name="Trazado 151934" d="M86,168.344v29.531a2.344,2.344,0,0,0,2.344,2.344h46.875a2.344,2.344,0,0,0,2.344-2.344V168.344A2.344,2.344,0,0,0,135.219,166H88.344A2.344,2.344,0,0,0,86,168.344Zm4.688,2.344h42.188v24.844H90.688Z" transform="translate(-30.625 -127.094)"/>
    <path id="Trazado_151935" data-name="Trazado 151935" d="M97.719,332H88.344a2.344,2.344,0,0,0,0,4.688h9.375a2.344,2.344,0,0,0,0-4.687Z" transform="translate(-30.625 -254.188)"/>
    <path id="Trazado_151936" data-name="Trazado 151936" d="M97.719,372H88.344a2.344,2.344,0,1,0,0,4.687h9.375a2.344,2.344,0,1,0,0-4.687Z" transform="translate(-30.625 -284.813)"/>
    <path id="Trazado_151937" data-name="Trazado 151937" d="M97.719,412H88.344a2.344,2.344,0,0,0,0,4.688h9.375a2.344,2.344,0,0,0,0-4.687Z" transform="translate(-30.625 -315.438)"/>
    <path id="Trazado_151938" data-name="Trazado 151938" d="M97.719,452H88.344a2.344,2.344,0,1,0,0,4.687h9.375a2.344,2.344,0,1,0,0-4.687Z" transform="translate(-30.625 -346.063)"/>
    <path id="Trazado_151939" data-name="Trazado 151939" d="M177.719,332h-9.375a2.344,2.344,0,1,0,0,4.688h9.375a2.344,2.344,0,0,0,0-4.687Z" transform="translate(-91.875 -254.188)"/>
    <path id="Trazado_151940" data-name="Trazado 151940" d="M177.719,372h-9.375a2.344,2.344,0,1,0,0,4.687h9.375a2.344,2.344,0,1,0,0-4.687Z" transform="translate(-91.875 -284.813)"/>
    <path id="Trazado_151941" data-name="Trazado 151941" d="M177.719,412h-9.375a2.344,2.344,0,1,0,0,4.688h9.375a2.344,2.344,0,0,0,0-4.687Z" transform="translate(-91.875 -315.438)"/>
    <path id="Trazado_151942" data-name="Trazado 151942" d="M177.719,452h-9.375a2.344,2.344,0,1,0,0,4.687h9.375a2.344,2.344,0,1,0,0-4.687Z" transform="translate(-91.875 -346.063)"/>
    <path id="Trazado_151943" data-name="Trazado 151943" d="M257.719,332h-9.375a2.344,2.344,0,0,0,0,4.688h9.375a2.344,2.344,0,1,0,0-4.687Z" transform="translate(-153.125 -254.188)"/>
    <path id="Trazado_151944" data-name="Trazado 151944" d="M257.719,372h-9.375a2.344,2.344,0,1,0,0,4.687h9.375a2.344,2.344,0,1,0,0-4.687Z" transform="translate(-153.125 -284.813)"/>
    <path id="Trazado_151945" data-name="Trazado 151945" d="M257.719,412h-9.375a2.344,2.344,0,0,0,0,4.688h9.375a2.344,2.344,0,1,0,0-4.687Z" transform="translate(-153.125 -315.438)"/>
    <path id="Trazado_151946" data-name="Trazado 151946" d="M257.719,452h-9.375a2.344,2.344,0,1,0,0,4.687h9.375a2.344,2.344,0,1,0,0-4.687Z" transform="translate(-153.125 -346.063)"/>
    <path id="Trazado_151947" data-name="Trazado 151947" d="M57.719,0a7.039,7.039,0,0,0-7.031,7.031v22.9A7.043,7.043,0,0,0,46,36.563v76.406A7.039,7.039,0,0,0,53.031,120h56.25a7.039,7.039,0,0,0,7.031-7.031V36.563a7.039,7.039,0,0,0-7.031-7.031H64.75V7.031A7.039,7.039,0,0,0,57.719,0Zm0,4.688a2.346,2.346,0,0,1,2.344,2.344v22.5H55.375V7.031A2.346,2.346,0,0,1,57.719,4.688Zm53.906,31.875v76.406a2.346,2.346,0,0,1-2.344,2.344H53.031a2.346,2.346,0,0,1-2.344-2.344V36.563a2.346,2.346,0,0,1,2.344-2.344h56.25A2.346,2.346,0,0,1,111.625,36.563Z"/>
    <path id="Trazado_151948" data-name="Trazado 151948" d="M187.094,229h-18.75a2.344,2.344,0,1,0,0,4.688h18.75a2.344,2.344,0,1,0,0-4.687Z" transform="translate(-91.875 -175.328)"/>
  </g>
</svg>
