<svg xmlns="http://www.w3.org/2000/svg" width="99.502" height="120" viewBox="0 0 99.502 120">
  <g id="Grupo_94657" data-name="Grupo 94657" transform="translate(-206.25 -196)">
    <circle id="Elipse_5038" data-name="Elipse 5038" cx="16.807" cy="16.807" r="16.807" transform="translate(230.223 271.372)" fill="#f4e6d3"/>
    <g id="Grupo_94947" data-name="Grupo 94947">
      <path id="Trazado_151949" data-name="Trazado 151949" d="M247.03,295.119a6.94,6.94,0,1,1,6.94-6.94A6.948,6.948,0,0,1,247.03,295.119Z" fill="#ead2b1"/>
      <circle id="Elipse_5039" data-name="Elipse 5039" cx="4.093" cy="4.093" r="4.093" transform="translate(242.937 284.086)" fill="#ffb229"/>
    </g>
    <g id="Grupo_94948" data-name="Grupo 94948">
      <circle id="Elipse_5040" data-name="Elipse 5040" cx="9.181" cy="9.181" r="9.181" transform="translate(263.454 262.191)" fill="#00d8e0"/>
      <path id="Trazado_151950" data-name="Trazado 151950" d="M272.635,277.431a6.059,6.059,0,1,1,6.059-6.059A6.066,6.066,0,0,1,272.635,277.431Z" fill="#00bdc6"/>
      <circle id="Elipse_5041" data-name="Elipse 5041" cx="3.212" cy="3.212" r="3.212" transform="translate(269.423 268.16)" fill="#4e7693"/>
    </g>
    <g id="Grupo_94951" data-name="Grupo 94951">
      <g id="Grupo_94949" data-name="Grupo 94949">
        <path id="Trazado_151951" data-name="Trazado 151951" d="M236.205,262.348h0a5.955,5.955,0,0,0,5.955-5.955V240.774a5.955,5.955,0,0,0-5.955-5.955h0a2.822,2.822,0,0,0-2.822,2.822v21.885A2.822,2.822,0,0,0,236.205,262.348Z" fill="#ffb229"/>
        <path id="Trazado_151952" data-name="Trazado 151952" d="M242.161,240.775v15.617a5.957,5.957,0,0,1-5.955,5.957,2.818,2.818,0,0,1-1.248-.29,5.953,5.953,0,0,0,4.119-5.667V240.775a5.956,5.956,0,0,0-4.119-5.668,2.817,2.817,0,0,1,1.248-.289A5.956,5.956,0,0,1,242.161,240.775Z" fill="#ff8b00"/>
      </g>
      <g id="Grupo_94950" data-name="Grupo 94950">
        <path id="Trazado_151953" data-name="Trazado 151953" d="M283.7,308.874h0a5.955,5.955,0,0,1-5.955-5.955V287.3a5.955,5.955,0,0,1,5.955-5.955h0a2.823,2.823,0,0,1,2.823,2.823v21.884A2.823,2.823,0,0,1,283.7,308.874Z" fill="#e3e3e3"/>
        <path id="Trazado_151954" data-name="Trazado 151954" d="M285.009,308.552a2.8,2.8,0,0,1-1.309.323,5.957,5.957,0,0,1-5.955-5.957V287.3a5.956,5.956,0,0,1,5.955-5.957,2.8,2.8,0,0,1,1.309.322,5.956,5.956,0,0,0-4.018,5.635v15.617A5.955,5.955,0,0,0,285.009,308.552Z" fill="#c8c8c8"/>
      </g>
    </g>
    <path id="Trazado_151955" data-name="Trazado 151955" d="M239.2,213.379h0a3.084,3.084,0,0,0,3.084-3.084v-6.11A3.084,3.084,0,0,0,239.2,201.1h0a3.084,3.084,0,0,0-3.084,3.084v6.11A3.084,3.084,0,0,0,239.2,213.379Z" fill="#fc4747"/>
    <path id="Trazado_151956" data-name="Trazado 151956" d="M272.526,242.142h0a5.693,5.693,0,0,1-5.694-5.693V226.8a5.693,5.693,0,0,1,5.694-5.693h0a5.693,5.693,0,0,1,5.693,5.693v9.648A5.693,5.693,0,0,1,272.526,242.142Z" fill="#ffb229"/>
    <circle id="Elipse_5042" data-name="Elipse 5042" cx="5.726" cy="5.726" r="5.726" transform="translate(254.07 240.485)" fill="#00d8e0"/>
    <circle id="Elipse_5043" data-name="Elipse 5043" cx="4.263" cy="4.263" r="4.263" transform="translate(243.627 216.121)" fill="#e3e3e3"/>
    <g id="Grupo_94952" data-name="Grupo 94952">
      <path id="Trazado_151957" data-name="Trazado 151957" d="M252.9,288.179a5.872,5.872,0,1,0-5.873,5.872A5.88,5.88,0,0,0,252.9,288.179Zm-8.187,0a2.314,2.314,0,1,1,2.314,2.314A2.317,2.317,0,0,1,244.716,288.179Z"/>
      <path id="Trazado_151958" data-name="Trazado 151958" d="M267.644,271.372a4.991,4.991,0,1,0,4.991-4.992A5,5,0,0,0,267.644,271.372Zm6.424,0a1.433,1.433,0,1,1-1.433-1.433A1.435,1.435,0,0,1,274.068,271.372Z"/>
      <path id="Trazado_151959" data-name="Trazado 151959" d="M283.7,279.566a7.742,7.742,0,0,0-7.734,7.734v1.486h-1.422v-6.624a10.957,10.957,0,0,0,0-21.58V243.643A7.485,7.485,0,0,0,280,236.449V226.8a7.473,7.473,0,1,0-14.946,0v4.7H248.92v-5.164a6.041,6.041,0,0,0,0-11.9V197.78a1.779,1.779,0,1,0-3.558,0v7.681h-1.3v-1.276a4.863,4.863,0,0,0-9.726,0V210.3a4.863,4.863,0,0,0,9.726,0v-1.277h1.3V214.9a6.039,6.039,0,0,0,0,10.972v16.39h-1.423v-1.486a7.742,7.742,0,0,0-7.734-7.734,4.607,4.607,0,0,0-4.6,4.6v10.273a1.78,1.78,0,0,0,3.559,0V237.641a1.044,1.044,0,0,1,1.043-1.043,4.18,4.18,0,0,1,4.176,4.176v15.619a4.18,4.18,0,0,1-4.176,4.176,1.044,1.044,0,0,1-1.043-1.043v-3.5a1.78,1.78,0,0,0-3.559,0v3.5a4.607,4.607,0,0,0,4.6,4.6,7.742,7.742,0,0,0,7.734-7.734v-1.226h1.423v14.5a18.528,18.528,0,0,0-8.133,2.718,1.779,1.779,0,0,0,1.879,3.022,15.033,15.033,0,1,1-5.059,5.2,1.779,1.779,0,1,0-3.071-1.8,18.58,18.58,0,0,0,14.384,27.873v7.534A1.778,1.778,0,0,0,247.141,316a1.813,1.813,0,0,0,.356-.035,1.85,1.85,0,0,0,.348.035,1.767,1.767,0,0,0,1.108-.388l11.286-9,11.286,9a1.77,1.77,0,0,0,1.109.388c.021,0,.042,0,.062,0l.069,0a1.779,1.779,0,0,0,1.779-1.779V301.693h1.422v1.226a7.742,7.742,0,0,0,7.734,7.734,4.607,4.607,0,0,0,4.6-4.6v-9.938a1.779,1.779,0,0,0-3.559,0v9.938A1.044,1.044,0,0,1,283.7,307.1a4.181,4.181,0,0,1-4.176-4.176V287.3a4.18,4.18,0,0,1,4.176-4.176,1.044,1.044,0,0,1,1.043,1.043v3.838a1.779,1.779,0,1,0,3.559,0v-3.838A4.607,4.607,0,0,0,283.7,279.566ZM240.5,210.3a1.305,1.305,0,0,1-2.61,0v-6.111a1.305,1.305,0,0,1,2.61,0Zm24.985,75.709a18.35,18.35,0,0,0-.684-3.271l2.353-1.877a10.884,10.884,0,0,0,3.831,1.35v8.186Zm14.552-14.633a7.4,7.4,0,1,1-7.4-7.4A7.41,7.41,0,0,1,280.037,271.372Zm-31.117-1.684v-12.58l8.466,6.753-7.467,5.957C249.589,269.766,249.256,269.722,248.92,269.688Zm5.349-28.548a7.475,7.475,0,0,0-1.849,6.448l-3.5,2.792V236.872Zm22.171-8.1h-7.828v-2.265h7.828Zm-5.455,10.722v6.162l-3.721-2.969c.024-.245.037-.492.037-.743a7.462,7.462,0,0,0-1.621-4.65l.841-.67A7.481,7.481,0,0,0,270.985,243.761Zm-7.243,2.45a3.947,3.947,0,1,1-3.946-3.947A3.95,3.95,0,0,1,263.742,246.211Zm-13.332,7.533,3.545-2.828a7.494,7.494,0,0,0,12.013-.443l4.1,3.271-9.83,7.841Zm20.575,3.821v2.971a10.963,10.963,0,0,0-6.962,4.068l-.931-.743Zm1.541-17.2a3.916,3.916,0,0,1-3.907-3.765h7.814A3.916,3.916,0,0,1,272.526,240.363Zm0-17.476a3.919,3.919,0,0,1,3.914,3.914v.414h-7.828V226.8A3.919,3.919,0,0,1,272.526,222.887Zm-7.4,14.567-2.346,1.871a7.479,7.479,0,0,0-5.363-.229l-5.06-4.037h12.7v1.39A7.41,7.41,0,0,0,265.123,237.454Zm-14.749-17.07a2.484,2.484,0,1,1-2.484-2.484A2.487,2.487,0,0,1,250.374,220.384Zm-6.435,31.224v-5.79h1.423v5.79Zm10.2,19.4,6.1-4.87,2.047,1.633a10.927,10.927,0,0,0,2.067,10.769l-.985.785A18.7,18.7,0,0,0,254.135,271.007Zm11.326,19.532,4.607,3.675-9.829,7.842-.462-.369A18.548,18.548,0,0,0,265.461,290.539ZM248.92,311.086V306.67a18.447,18.447,0,0,0,7.961-2.741l.5.4Zm22.065-13.051v12.594l-7.892-6.3Zm3.559.1v-5.79h1.422v5.79Z"/>
      <path id="Trazado_151960" data-name="Trazado 151960" d="M259.774,244.432a1.769,1.769,0,0,0-1.768,1.779,1.785,1.785,0,1,0,1.79-1.779Z"/>
      <path id="Trazado_151961" data-name="Trazado 151961" d="M298.152,293.334l-2.251-.007H295.9a1.779,1.779,0,0,0-.005,3.559l2.251.006h.005a1.779,1.779,0,0,0,.005-3.558Z"/>
      <path id="Trazado_151962" data-name="Trazado 151962" d="M296,287.055l-1.952,1.12a1.779,1.779,0,1,0,1.77,3.087l1.953-1.12A1.779,1.779,0,0,0,296,287.055Z"/>
      <path id="Trazado_151963" data-name="Trazado 151963" d="M297.746,300.081,295.8,298.95a1.779,1.779,0,1,0-1.789,3.076l1.946,1.132a1.78,1.78,0,1,0,1.789-3.077Z"/>
      <path id="Trazado_151964" data-name="Trazado 151964" d="M222.075,250.366h.005l2.251-.006a1.78,1.78,0,0,0,0-3.559h-.005l-2.251.007a1.779,1.779,0,0,0,0,3.558Z"/>
      <path id="Trazado_151965" data-name="Trazado 151965" d="M222.448,243.617l1.952,1.119a1.779,1.779,0,0,0,1.771-3.087l-1.953-1.12a1.78,1.78,0,0,0-1.77,3.088Z"/>
      <path id="Trazado_151966" data-name="Trazado 151966" d="M224.423,252.424l-1.946,1.131a1.779,1.779,0,1,0,1.788,3.077l1.946-1.132a1.779,1.779,0,0,0-1.788-3.076Z"/>
      <path id="Trazado_151967" data-name="Trazado 151967" d="M295.611,279.249a11.142,11.142,0,0,0,0-15.754,1.779,1.779,0,0,0-2.516,2.516,7.582,7.582,0,0,1,0,10.721,1.779,1.779,0,1,0,2.516,2.517Z"/>
      <path id="Trazado_151968" data-name="Trazado 151968" d="M301.633,261.428a1.779,1.779,0,1,0-2.517,2.516,10.5,10.5,0,0,1,0,14.855,1.779,1.779,0,1,0,2.516,2.517,14.063,14.063,0,0,0,0-19.888Z"/>
      <path id="Trazado_151969" data-name="Trazado 151969" d="M287.089,265.546a1.779,1.779,0,0,0,0,2.516,4.685,4.685,0,0,1,0,6.619,1.779,1.779,0,0,0,2.516,2.516,8.248,8.248,0,0,0,0-11.651A1.779,1.779,0,0,0,287.089,265.546Z"/>
      <path id="Trazado_151970" data-name="Trazado 151970" d="M216.687,288.179a7.532,7.532,0,0,1,2.22-5.361,1.779,1.779,0,0,0-2.516-2.516,11.139,11.139,0,0,0,0,15.754,1.779,1.779,0,0,0,2.516-2.516A7.532,7.532,0,0,1,216.687,288.179Z"/>
      <path id="Trazado_151971" data-name="Trazado 151971" d="M209.808,288.179a10.436,10.436,0,0,1,3.077-7.428,1.779,1.779,0,0,0-2.516-2.516,14.063,14.063,0,0,0,0,19.888,1.779,1.779,0,0,0,2.517-2.516A10.433,10.433,0,0,1,209.808,288.179Z"/>
      <path id="Trazado_151972" data-name="Trazado 151972" d="M224.913,282.353a1.78,1.78,0,0,0-2.517,0,8.239,8.239,0,0,0,0,11.652,1.779,1.779,0,0,0,2.516-2.516,4.68,4.68,0,0,1,0-6.619A1.78,1.78,0,0,0,224.913,282.353Z"/>
    </g>
  </g>
</svg>
