<svg xmlns="http://www.w3.org/2000/svg" width="79.847" height="86" viewBox="0 0 79.847 86">
  <g id="Grupo_99812" data-name="Grupo 99812" transform="translate(2729.182 1551)">
    <g id="Grupo_98562" data-name="Grupo 98562" transform="translate(-2944.087 -1764)">
      <path id="Trazado_155733" data-name="Trazado 155733" d="M272.238,244.533v44.434H234.972V261.733l-4.424,7.079L227.8,273.2v11.467l2.274,2.273a2.027,2.027,0,0,1-1.434,3.46h-.84v7.167h-7.167a4.3,4.3,0,0,1-4.3-4.3V269.692a7.16,7.16,0,0,1,1.262-4.06l2.8-4.071,9.572-13.921a7.164,7.164,0,0,1,5.9-3.107Z" fill="#ffceb6"/>
      <path id="Trazado_155734" data-name="Trazado 155734" d="M272.238,244.533v44.434H234.972V261.733l-4.424,7.079-10.15-7.251,9.572-13.921a7.164,7.164,0,0,1,5.9-3.107Z" fill="#ffb401"/>
      <path id="Trazado_155735" data-name="Trazado 155735" d="M255.038,257.433h0l4.3,20.067-5.733,7.167-5.733-7.167,4.3-20.067Z" fill="#ef5e3b"/>
      <path id="Trazado_155736" data-name="Trazado 155736" d="M252.172,257.433l-2.867-4.3,4.3-2.867,4.3,2.867-2.867,4.3Z" fill="#e04f2b"/>
      <rect id="Rectángulo_25360" data-name="Rectángulo 25360" width="37.267" height="10.033" transform="translate(234.972 288.967)" fill="#718799"/>
      <path id="Trazado_155737" data-name="Trazado 155737" d="M290.872,259.809v0a10.524,10.524,0,0,1-10.523,10.522h0a14.485,14.485,0,0,1-9.271-3.355l-1.47-1.226-3.1-2.585V244.533h3.725l-2.292-4.3-3.468-2.313a1.866,1.866,0,0,1,1.035-3.42h1v-7.167h5.733a4.3,4.3,0,0,1,4.3,4.3V238.8l11.9,14.272A10.532,10.532,0,0,1,290.872,259.809Z" fill="#ffceb6"/>
      <path id="Trazado_155738" data-name="Trazado 155738" d="M276.888,257.014l-7.281,8.738-3.1-2.585V244.533h3.727Z" fill="#ffb401"/>
      <path id="Trazado_155739" data-name="Trazado 155739" d="M259.339,230.2v14.333l-5.733,5.733-5.733-5.733V230.2Z" fill="#ffceb6"/>
      <path id="Trazado_155740" data-name="Trazado 155740" d="M257.9,230.2v5.733a8.6,8.6,0,0,1-8.6,8.6h-1.433V230.2Z" fill="#ffbfa1"/>
      <path id="Trazado_155741" data-name="Trazado 155741" d="M259.338,227.333V221.6a7.166,7.166,0,0,0-7.166-7.167h-9.357a3.544,3.544,0,0,0-3.543,3.544h0a3.542,3.542,0,0,0,1.959,3.169l.907.454v5.733Z" fill="#c47220"/>
      <path id="Trazado_155742" data-name="Trazado 155742" d="M250.738,241.667h0a8.6,8.6,0,0,0,8.6-8.6h0A2.867,2.867,0,0,0,262.2,230.2v-3.706a2.026,2.026,0,0,0-2.027-2.027h0a2.027,2.027,0,0,0-1.433.593l-.84.84h-1.433l-2.867-4.3H242.138v11.467A8.6,8.6,0,0,0,250.738,241.667Z" fill="#ffceb6"/>
      <circle id="Elipse_5128" data-name="Elipse 5128" cx="1.433" cy="1.433" r="1.433" transform="translate(250.738 227.333)"/>
      <path id="Trazado_155743" data-name="Trazado 155743" d="M252.172,213h-9.357a4.976,4.976,0,0,0-2.225,9.428l.115.058v10.581a10.047,10.047,0,0,0,5.733,9.063v.97H235.875a8.6,8.6,0,0,0-7.087,3.728l-12.37,17.992a8.575,8.575,0,0,0-1.513,4.873v23.574A5.74,5.74,0,0,0,220.638,299H227.8a1.433,1.433,0,0,0,1.433-1.433v-5.785a3.461,3.461,0,0,0,1.854-5.856l-1.854-1.853V273.611l4.3-6.88V299H236.4v-8.6h34.4V299h2.867V270.3a15.936,15.936,0,0,0,6.676,1.471,11.957,11.957,0,0,0,9.186-19.611l-11.562-13.875v-6.648a5.741,5.741,0,0,0-5.734-5.733h-5.733a1.434,1.434,0,0,0-1.433,1.433V233.1a3.3,3.3,0,0,0-1.4,6.015l3.168,2.112,1,1.874h-7.071v-8.848a4.305,4.305,0,0,0,2.866-4.052v-3.706a3.462,3.462,0,0,0-2.866-3.406V221.6A8.61,8.61,0,0,0,252.172,213Zm-9.357,2.867h9.357A5.738,5.738,0,0,1,257.9,221.6v2.289c-.059.051-.118.1-.174.158l-.42.42h-.072L254.8,220.8a1.434,1.434,0,0,0-1.193-.638H242.477l-.606-.3a2.11,2.11,0,0,1,.944-4Zm7.923,27.233a10,10,0,0,0,7.167-3.021v3.861l-4.3,4.3-4.3-4.3V243A9.97,9.97,0,0,0,250.738,243.1Zm10.034,2.867v8.406l-5.043-4.2,4.2-4.2Zm-7.442,12.9h.55l3.915,18.269-4.19,5.236-4.189-5.236Zm.941-2.867h-1.332l-1.42-2.129,2.086-1.739,2.086,1.739Zm-7.833-10.033h.84l4.2,4.2-5.044,4.2Zm-17.793,43h-.84a1.433,1.433,0,0,0-1.433,1.433v5.733h-5.734a2.869,2.869,0,0,1-2.866-2.866V269.693a5.7,5.7,0,0,1,1.009-3.248l1.972-2.869,7.865,5.619-2.028,3.245a1.429,1.429,0,0,0-.218.76v11.467a1.432,1.432,0,0,0,.42,1.013l2.273,2.273a.594.594,0,0,1-.42,1.014Zm36.62-52.239a.434.434,0,0,1,.241-.795h5.3v-2.866h-2.867v-4.3h4.3a2.869,2.869,0,0,1,2.867,2.866V238.8a1.439,1.439,0,0,0,.332.918l11.895,14.273a9.09,9.09,0,0,1-6.984,14.909,13.073,13.073,0,0,1-8.353-3.024l-.37-.308,5-6,1.514,2.84,2.53-1.349-11.467-21.5a1.424,1.424,0,0,0-.469-.518Zm9.9,20.109-5.747,6.9-2-1.667-1.835,2.2,4.572,3.81c.21.175.426.343.645.507v18.948H236.4v-25.8a1.433,1.433,0,0,0-2.649-.759l-3.616,5.785-7.763-5.545,8.773-12.762a5.734,5.734,0,0,1,4.725-2.485h7.7v11.466a1.433,1.433,0,0,0,2.351,1.1l3.381-2.818,1.339,2.009L246.47,277.2a1.433,1.433,0,0,0,.283,1.195l5.733,7.167a1.433,1.433,0,0,0,2.014.224,1.4,1.4,0,0,0,.224-.224l5.734-7.167a1.435,1.435,0,0,0,.282-1.195l-4.173-19.475,1.339-2.009,3.382,2.818a1.432,1.432,0,0,0,2.35-1.1V245.967h5.734Zm-14.4-26.637a1.435,1.435,0,0,1-1.434,1.433,1.434,1.434,0,0,0-1.433,1.434,7.166,7.166,0,0,1-14.333,0V223.033h9.266l2.441,3.662a1.434,1.434,0,0,0,1.193.638H257.9a1.438,1.438,0,0,0,1.014-.419l.839-.84a.594.594,0,0,1,1.014.42Z"/>
      <path id="Trazado_155744" data-name="Trazado 155744" d="M250.145,233.067h-3.707v2.866h3.707a6.282,6.282,0,0,0,4.474-1.853l-2.027-2.027A3.442,3.442,0,0,1,250.145,233.067Z"/>
      <circle id="Elipse_5129" data-name="Elipse 5129" cx="1.433" cy="1.433" r="1.433" transform="translate(245.005 227.333)"/>
      <path id="Trazado_155745" data-name="Trazado 155745" d="M292.725,226.464a5.733,5.733,0,0,0,0,8.108h0l2.027-2.027a2.866,2.866,0,0,1,0-4.054h0Z"/>
      <path id="Trazado_155746" data-name="Trazado 155746" d="M288.671,222.41a11.466,11.466,0,0,0,0,16.216h0L290.7,236.6a8.6,8.6,0,0,1,0-12.162h0Z"/>
      <path id="Trazado_155747" data-name="Trazado 155747" d="M279.579,230.518a17.089,17.089,0,0,0,5.038,12.162l2.027-2.027a14.348,14.348,0,0,1,0-20.27l-2.027-2.027A17.089,17.089,0,0,0,279.579,230.518Z"/>
    </g>
  </g>
</svg>
