<svg xmlns="http://www.w3.org/2000/svg" width="86" height="86" viewBox="0 0 86 86">
  <g id="Grupo_99813" data-name="Grupo 99813" transform="translate(2730.182 1410)">
    <g id="Grupo_98563" data-name="Grupo 98563" transform="translate(-2943.182 -1623)">
      <circle id="Elipse_5130" data-name="Elipse 5130" cx="16.645" cy="16.645" r="16.645" transform="translate(264.323 214.387)" fill="#669e54"/>
      <path id="Trazado_155748" data-name="Trazado 155748" d="M264.323,231.032a16.57,16.57,0,0,0,4.085,10.9,23.037,23.037,0,0,0,2.85.2c11.491,0,20.807-8.384,20.807-18.726a17.012,17.012,0,0,0-.923-5.525,16.626,16.626,0,0,0-26.819,13.154Z" fill="#85b176"/>
      <path id="Trazado_155749" data-name="Trazado 155749" d="M261.548,275.419h19.42V262.935h-54.1a12.484,12.484,0,0,0-12.484,12.484v22.194h47.161Z" fill="#c7e2fb"/>
      <path id="Trazado_155750" data-name="Trazado 155750" d="M226.871,262.935a12.484,12.484,0,0,0-12.484,12.484v16.275a54.383,54.383,0,0,0,6.242.371c21.223,0,39.209-12.219,45.475-29.13Z" fill="#ebf7fe"/>
      <path id="Trazado_155751" data-name="Trazado 155751" d="M242.129,271.258l-6.935-8.323h-5.549l4.161,12.484Z" fill="#4472b0"/>
      <path id="Trazado_155752" data-name="Trazado 155752" d="M242.129,271.258l6.936-8.323h5.548l-4.161,12.484Z" fill="#4472b0"/>
      <g id="Grupo_98559" data-name="Grupo 98559">
        <path id="Trazado_155753" data-name="Trazado 155753" d="M242.129,271.258l-3.884,1.942,2.5,4.994h2.774l2.5-4.994Z" fill="#2d4d81"/>
      </g>
      <path id="Trazado_155754" data-name="Trazado 155754" d="M246.29,297.613l-2.774-19.419h-2.774l-2.774,19.419Z" fill="#4472b0"/>
      <path id="Trazado_155755" data-name="Trazado 155755" d="M254.613,239.355v8.322a12.484,12.484,0,1,1-24.968,0v-8.322h8.323a8.321,8.321,0,0,0,6.658-3.329l1.664-2.22,1.665,2.22A8.32,8.32,0,0,0,254.613,239.355Z" fill="#efbe9c"/>
      <path id="Trazado_155756" data-name="Trazado 155756" d="M229.645,247.677v-6.935h-1.387a4.161,4.161,0,0,0,0,8.323h1.469A12.491,12.491,0,0,1,229.645,247.677Z" fill="#efbe9c"/>
      <path id="Trazado_155757" data-name="Trazado 155757" d="M242.129,219.935a16.646,16.646,0,0,0-16.645,16.646v5.241a4.132,4.132,0,0,1,2.774-1.08h1.387v-1.387h8.323a8.321,8.321,0,0,0,6.658-3.329l1.664-2.22,1.665,2.22a8.32,8.32,0,0,0,6.658,3.329v1.387H256a4.131,4.131,0,0,1,2.774,1.08v-5.241A16.646,16.646,0,0,0,242.129,219.935Z" fill="#976949"/>
      <g id="Grupo_98560" data-name="Grupo 98560">
        <path id="Trazado_155758" data-name="Trazado 155758" d="M256,240.742h-1.387v6.935a12.5,12.5,0,0,1-.082,1.388H256a4.161,4.161,0,0,0,0-8.323Z" fill="#efbe9c"/>
        <path id="Trazado_155759" data-name="Trazado 155759" d="M242.129,260.161a12.414,12.414,0,0,1-6.935-2.105v4.879l6.935,8.323,6.936-8.323v-4.879A12.417,12.417,0,0,1,242.129,260.161Z" fill="#efbe9c"/>
        <path id="Trazado_155760" data-name="Trazado 155760" d="M280.968,275.419V261.548a2.774,2.774,0,1,1,5.548,0v4.162H288.6a4.855,4.855,0,1,1,0,9.709Z" fill="#efbe9c"/>
      </g>
      <g id="Grupo_98561" data-name="Grupo 98561">
        <path id="Trazado_155761" data-name="Trazado 155761" d="M288.6,264.323H287.9v-2.775a4.161,4.161,0,0,0-8.322,0H250.452v-2.774h-.036a13.88,13.88,0,0,0,5.3-8.322H256a5.554,5.554,0,0,0,5.548-5.549,5.5,5.5,0,0,0-1.387-3.631v-4.691a18.032,18.032,0,1,0-36.064,0v4.691a5.5,5.5,0,0,0-1.387,3.631,5.554,5.554,0,0,0,5.548,5.549h.28a13.876,13.876,0,0,0,5.305,8.322h-.037v2.774h-6.935A13.887,13.887,0,0,0,213,275.419v22.194A1.386,1.386,0,0,0,214.387,299h47.161a1.386,1.386,0,0,0,1.387-1.387V276.806H288.6a6.242,6.242,0,1,0,0-12.483Zm-54.054,0,5.4,6.477-5.325,2.662-3.048-9.139Zm7.4,15.258h.368l2.377,16.645h-5.123Zm.713-2.775H241.6l-1.492-2.986,2.022-1.011,2.022,1.011Zm1.657-6.006,5.4-6.477h2.974l-3.047,9.141ZM256,247.677v-5.548a2.774,2.774,0,0,1,0,5.548ZM225.484,244.9a2.777,2.777,0,0,1,2.774-2.774v5.548A2.777,2.777,0,0,1,225.484,244.9Zm2.774-5.548a5.445,5.445,0,0,0-1.387.2v-2.971a15.258,15.258,0,1,1,30.516,0v2.971a5.446,5.446,0,0,0-1.387-.2,1.386,1.386,0,0,0-1.387-1.387,6.966,6.966,0,0,1-5.548-2.776l-1.665-2.219a1.439,1.439,0,0,0-2.219,0l-1.665,2.221a6.97,6.97,0,0,1-5.548,2.774h-8.323A1.386,1.386,0,0,0,228.258,239.355Zm2.774,8.322v-6.935h6.936a9.756,9.756,0,0,0,7.767-3.884l.555-.741.555.74a9.764,9.764,0,0,0,6.381,3.784v7.036a11.1,11.1,0,0,1-22.194,0Zm11.1,13.871a13.775,13.775,0,0,0,5.548-1.166v2.051l-5.548,6.658-5.548-6.658v-2.051A13.775,13.775,0,0,0,242.129,261.548Zm-26.355,13.871a11.109,11.109,0,0,1,11.1-11.1h1.775l3.845,11.535a1.392,1.392,0,0,0,.784.842,1.364,1.364,0,0,0,.531.106,1.387,1.387,0,0,0,.62-.145l3.2-1.6,1.682,3.366-2.542,17.8H224.1v-19.42h-2.774v19.42h-5.549Zm63.807-1.387H262.935v-4.161h-2.774v26.355H247.494l-2.542-17.8,1.682-3.366,3.2,1.6a1.387,1.387,0,0,0,1.935-.8l3.845-11.536h23.969v9.709Zm9.016,0h-6.242V261.548a1.387,1.387,0,0,1,2.774,0v4.162a1.386,1.386,0,0,0,1.387,1.387H288.6a3.468,3.468,0,1,1,0,6.935Z"/>
        <path id="Trazado_155762" data-name="Trazado 155762" d="M280.968,249.065a18.033,18.033,0,1,0-18.033-18.033A18.054,18.054,0,0,0,280.968,249.065Zm0-33.291a15.258,15.258,0,1,1-15.258,15.258A15.277,15.277,0,0,1,280.968,215.774Z"/>
        <path id="Trazado_155763" data-name="Trazado 155763" d="M278.194,237.968a1.38,1.38,0,0,0,.98-.407l11.1-11.1L288.31,224.5l-10.116,10.116-4.568-4.567-1.962,1.961,5.549,5.548a1.38,1.38,0,0,0,.981.407Z"/>
      </g>
    </g>
  </g>
</svg>
