<svg xmlns="http://www.w3.org/2000/svg" width="84.709" height="86" viewBox="0 0 84.709 86">
  <g id="Grupo_99816" data-name="Grupo 99816" transform="translate(2729.182 988)">
    <g id="Grupo_98566" data-name="Grupo 98566" transform="translate(-2942.831 -1201.004)">
      <path id="Trazado_155795" data-name="Trazado 155795" d="M296.946,296.3V279.476a5.652,5.652,0,0,0-2.409-4.627l-10.615-7.431a4.232,4.232,0,0,0-2.43-.766h-8.547l.141,24.157a5.9,5.9,0,0,0,4.094,5.492h19.766Z" fill="#fec9a3"/>
      <path id="Trazado_155796" data-name="Trazado 155796" d="M288.475,296.3h-9.883a5.647,5.647,0,0,1-5.647-5.647v-5.647h9.883Z" fill="#fabd91"/>
      <path id="Trazado_155797" data-name="Trazado 155797" d="M251.768,224.3a7.056,7.056,0,0,0-2.824.6V214.416H223.532a8.47,8.47,0,0,0-8.471,8.471V248.3h10.478a7.059,7.059,0,1,1,12.927,0h10.478V237.822a7.059,7.059,0,1,0,2.824-13.524Z" fill="#88b337"/>
      <path id="Trazado_155798" data-name="Trazado 155798" d="M282.827,222.887a8.47,8.47,0,0,0-8.47-8.471H248.944v10.478a7.059,7.059,0,1,1,0,12.927V248.3h10.478a7.059,7.059,0,1,0,12.927,0h10.478v-25.41Z" fill="#e8594a"/>
      <path id="Trazado_155799" data-name="Trazado 155799" d="M282.827,223.693c-8.069,11.226-22.638,17.6-33.883,21.036v3.57h10.479a7.058,7.058,0,1,0,12.926,0h10.478v-24.6Z" fill="#d65245"/>
      <path id="Trazado_155800" data-name="Trazado 155800" d="M246.121,259.594a7.033,7.033,0,0,1,2.823.6V248.3H238.466a7.059,7.059,0,1,0-12.927,0H215.061v25.412a8.47,8.47,0,0,0,8.471,8.471h25.412v-9.067a7.058,7.058,0,1,1-2.823-13.523Z" fill="#fdb62f"/>
      <path id="Trazado_155801" data-name="Trazado 155801" d="M215.061,273.712a8.47,8.47,0,0,0,8.471,8.47h25.412v-9.066a7.028,7.028,0,0,1-9.857-6.212,61.743,61.743,0,0,1-24.026,5.344Z" fill="#ffa719"/>
      <path id="Trazado_155802" data-name="Trazado 155802" d="M286.519,277.806l-8.932-23.86-9.811,3.695a7.067,7.067,0,1,1-12.1,4.559l-9.809,3.694,4.179,11.166a7,7,0,0,0-2.852.435,7.079,7.079,0,0,0,4.962,13.258,7,7,0,0,0,2.436-1.555l3.184,8.514,23.792-8.961A8.5,8.5,0,0,0,286.519,277.806Z" fill="#4398d1"/>
      <path id="Trazado_155803" data-name="Trazado 155803" d="M281.913,265.5c-9.742,14.57-28,19.658-38.7,21.41a7.013,7.013,0,0,0,11.378,2.286l3.184,8.514,23.792-8.96a8.505,8.505,0,0,0,4.951-10.942Z" fill="#3e8fc9"/>
      <path id="Trazado_155804" data-name="Trazado 155804" d="M251.768,224.3a7.056,7.056,0,0,0-2.824.6v-2.048c-10.571,9.731-24.894,15.106-33.883,17.725V248.3h10.478a7.059,7.059,0,1,1,12.927,0h10.478V237.822a7.059,7.059,0,1,0,2.824-13.524Z" fill="#80a834"/>
      <path id="Trazado_155805" data-name="Trazado 155805" d="M280.029,277.972a3.494,3.494,0,0,0-4.99,4.892c.017.017.032.034.049.05L280,287.83a8.471,8.471,0,0,0,8.471,8.471h8.471v-1.412Z" fill="#fec9a3"/>
      <path id="Trazado_155806" data-name="Trazado 155806" d="M246.121,258.065a8.47,8.47,0,0,0-3.389,16.235l1.13-2.586a5.647,5.647,0,0,1,2.258-10.826,5.579,5.579,0,0,1,2.259.478,1.411,1.411,0,0,0,1.977-1.294V249.711h7.179a8.249,8.249,0,0,0-.12,1.412,8.495,8.495,0,0,0,6.777,8.3l.564-2.766a5.663,5.663,0,0,1-4.517-5.535,5.581,5.581,0,0,1,.477-2.259,1.413,1.413,0,0,0-1.294-1.977h-9.066v-7.179a8.245,8.245,0,0,0,1.411.12,8.471,8.471,0,1,0,0-16.941h0a8.346,8.346,0,0,0-1.411.119v-7.178h24a7.066,7.066,0,0,1,7.059,7.059v24h-9.066a1.412,1.412,0,0,0-1.293,1.977,5.6,5.6,0,0,1,.477,2.259h2.823a8.351,8.351,0,0,0-.119-1.412h8.59a1.412,1.412,0,0,0,1.412-1.412V222.887A9.9,9.9,0,0,0,274.357,213H223.532a9.9,9.9,0,0,0-9.883,9.883v50.707a9.9,9.9,0,0,0,9.883,9.883h15.53v-2.824h-15.53a7.066,7.066,0,0,1-7.059-7.059V249.711h9.066a1.519,1.519,0,0,0,1.4-1.627,1.488,1.488,0,0,0-.111-.468,5.647,5.647,0,1,1,10.34,0,1.462,1.462,0,0,0,1.293,2.1h9.066v8.471A8.133,8.133,0,0,0,246.121,258.065Zm-22.589-42.237h24v9.066a1.412,1.412,0,0,0,1.977,1.293,5.648,5.648,0,1,1,0,10.34,1.413,1.413,0,0,0-1.977,1.294v8.949h-7.169a8.144,8.144,0,0,0,.11-1.295v-.117a8.471,8.471,0,1,0-16.941,0v.117a8.262,8.262,0,0,0,.11,1.295h-7.169V222.887A7.067,7.067,0,0,1,223.532,215.828Z"/>
      <path id="Trazado_155807" data-name="Trazado 155807" d="M295.338,273.686l-11.869-8.173-4.559-12.179a1.41,1.41,0,0,0-1.816-.83.649.649,0,0,0-.077.031l-9.177,4.058a1.413,1.413,0,0,0-.748,1.8c.152.4.295.7.446,1.006a10.729,10.729,0,0,1,.462,1.06,5.65,5.65,0,1,1-10.919,1.7,1.412,1.412,0,0,0-1.909-1.4l-9.809,3.7a1.411,1.411,0,0,0-.825,1.817l3.521,9.4a7.935,7.935,0,0,0-1.369.379,8.489,8.489,0,1,0,7.235,15.291l2.525,6.743a1.412,1.412,0,0,0,1.817.827h0l13.988-5.27a7.578,7.578,0,0,0,4.471,3.992l.892-2.682a4.768,4.768,0,0,1-2.7-2.307l4.257-1.6a9.852,9.852,0,0,0,9.3,6.552v-2.824a7.1,7.1,0,0,1-7.059-7.059,1.409,1.409,0,0,0-.413-1l-4.916-4.916a2.093,2.093,0,0,1-.194-2.723,2.058,2.058,0,0,1,1.518-.828,2.021,2.021,0,0,1,1.621.606l9.857,9.857,2-2-2.916-2.917a9.852,9.852,0,0,0-.126-6.6l-2.646-7.066,8.532,5.874a4.243,4.243,0,0,1,1.8,3.471v18.236h2.824V279.476A7.075,7.075,0,0,0,295.338,273.686Zm-9.728,7.752-4.583-4.581a4.906,4.906,0,0,0-7.025,6.85c.028.03.058.06.088.088l4.465,4.465L258.6,295.775l-2.691-7.19a1.413,1.413,0,0,0-1.015-.882,1.382,1.382,0,0,0-.307-.034,1.412,1.412,0,0,0-.988.4,5.647,5.647,0,1,1-5.913-9.374,5.394,5.394,0,0,1,1.4-.316,5.029,5.029,0,0,1,.885-.03,1.411,1.411,0,0,0,1.4-1.9L247.68,266.6l6.723-2.532a8.473,8.473,0,1,0,16.246-4.6c-.13-.348-.247-.623-.36-.869l6.494-2.876,8.415,22.461A7.051,7.051,0,0,1,285.61,281.438Z"/>
    </g>
  </g>
</svg>
