<svg xmlns="http://www.w3.org/2000/svg" width="86.032" height="86" viewBox="0 0 86.032 86">
  <g id="waste-eco-ecology-clean-bin" transform="translate(-212.984 -213.096)">
    <path id="Trazado_151276" data-name="Trazado 151276" d="M297.582,291.925c0,3.169-17.335,5.736-38.714,5.736s-44.45-2.567-44.45-5.736c0-2.9,41.582-5.735,41.582-5.735V244.607a4.315,4.315,0,0,0-4.3-4.3h-2.867V220.231H251.7a24.411,24.411,0,0,1,24.376,24.376V286.19S297.582,289.832,297.582,291.925Z" fill="#c0ab91"/>
    <path id="Trazado_151277" data-name="Trazado 151277" d="M297.582,291.925c0,3.169-17.335,5.736-38.714,5.736s-44.45-2.567-44.45-5.736c0-.688,2.351-1.376,5.921-2.022a251.777,251.777,0,0,0,32.793,2.022c3.546,0,6.99-.074,10.261-.209a5.736,5.736,0,0,0,5.512-5.736V250.343a24.377,24.377,0,0,0-20.074-23.975v-6.137H251.7a24.376,24.376,0,0,1,24.376,24.376V286.19s6.381,1.075,12.188,2.409C293.123,289.7,297.582,290.979,297.582,291.925Z" fill="#a78966"/>
    <path id="Trazado_151278" data-name="Trazado 151278" d="M272.006,257.514l4.057-4.057,4.057,4.057-4.057,4.057Z" fill="#ffde55"/>
    <path id="Trazado_151279" data-name="Trazado 151279" d="M263.4,287.622l4.057-4.057,4.057,4.057-4.057,4.057Z" fill="#46f8ff"/>
    <path id="Trazado_151280" data-name="Trazado 151280" d="M264.6,271.851h5.736v5.735H264.6Z" fill="#57a4ff"/>
    <path id="Trazado_151281" data-name="Trazado 151281" d="M263.169,241.74H268.9v5.735h-5.736Z" fill="#46f8ff"/>
    <path id="Trazado_151282" data-name="Trazado 151282" d="M256.237,231.705l4.057-4.057,4.057,4.057-4.057,4.057Z" fill="#57a4ff"/>
    <path id="Trazado_151283" data-name="Trazado 151283" d="M251.933,263.246l4.057-4.057,4.057,4.057L255.99,267.3Z" fill="#ffde55"/>
    <path id="Trazado_151284" data-name="Trazado 151284" d="M250.021,286.19l-.488.487-3.57,3.571-3.026-3.026L241.9,286.19l4.058-4.058Z" fill="#46f8ff"/>
    <path id="Trazado_151285" data-name="Trazado 151285" d="M243.1,217.364v25.809H220.153a5.734,5.734,0,0,1-5.735-5.735V223.1a5.735,5.735,0,0,1,5.735-5.735Z" fill="#e0e0e2"/>
    <path id="Trazado_151286" data-name="Trazado 151286" d="M243.1,217.364v25.809H220.153a5.734,5.734,0,0,1-5.735-5.735h5.735a17.207,17.207,0,0,0,17.207-17.207v-2.867Z" fill="#c6c5ca"/>
    <path id="Trazado_151287" data-name="Trazado 151287" d="M248.831,217.364v25.809a2.868,2.868,0,0,1-5.736,0V217.364a2.868,2.868,0,1,1,5.736,0Z" fill="#898890"/>
    <path id="Trazado_151288" data-name="Trazado 151288" d="M248.831,237.438v5.735a2.868,2.868,0,0,1-5.736,0v-5.735a2.868,2.868,0,1,0,5.736,0Z" fill="#57565c"/>
    <path id="Trazado_151289" data-name="Trazado 151289" d="M265.372,230.689l-4.057-4.057a1.433,1.433,0,0,0-2.027,0l-4.057,4.057a1.435,1.435,0,0,0,0,2.027l4.057,4.057a1.435,1.435,0,0,0,2.027,0l4.057-4.057A1.433,1.433,0,0,0,265.372,230.689Zm-5.07,3.042-2.029-2.029,2.029-2.029,2.029,2.029Z"/>
    <path id="Trazado_151290" data-name="Trazado 151290" d="M263.169,248.909H268.9a1.434,1.434,0,0,0,1.434-1.434V241.74a1.434,1.434,0,0,0-1.434-1.434h-5.736a1.434,1.434,0,0,0-1.434,1.434v5.735A1.434,1.434,0,0,0,263.169,248.909Zm1.434-5.736h2.868v2.868H264.6Z"/>
    <path id="Trazado_151291" data-name="Trazado 151291" d="M264.6,270.417a1.434,1.434,0,0,0-1.434,1.434v5.735a1.434,1.434,0,0,0,1.434,1.434h5.736a1.434,1.434,0,0,0,1.434-1.434v-5.735a1.434,1.434,0,0,0-1.434-1.434Zm4.3,5.736h-2.868v-2.868H268.9Z"/>
    <path id="Trazado_151292" data-name="Trazado 151292" d="M268.485,282.553a1.436,1.436,0,0,0-2.028,0L262.4,286.61a1.433,1.433,0,0,0,0,2.027l4.056,4.057a1.434,1.434,0,0,0,2.028,0l4.056-4.057a1.433,1.433,0,0,0,0-2.027Zm-1.014,7.1-2.029-2.028,2.029-2.029,2.029,2.029Z"/>
    <path id="Trazado_151293" data-name="Trazado 151293" d="M277.508,284.985V262.158l3.642-3.628a1.446,1.446,0,0,0,0-2.036l-3.642-3.628v-8.259A25.83,25.83,0,0,0,251.7,218.8h-1.434v-1.434a4.3,4.3,0,0,0-8.345-1.434H220.153a7.169,7.169,0,0,0-7.169,7.169v14.339a7.169,7.169,0,0,0,7.169,7.169h21.766a4.3,4.3,0,0,0,8.345-1.434V241.74H251.7a2.875,2.875,0,0,1,2.868,2.867V258.6l-3.642,3.628a1.446,1.446,0,0,0,0,2.036l3.642,3.627v16.963c-.86.058-2.079.144-3.585.273l-4-4.015a1.446,1.446,0,0,0-2.036,0l-4.058,4.058a1.341,1.341,0,0,0-.373.831c-27.516,2.553-27.53,4.259-27.53,5.922,0,1.248,0,3.585,15.471,5.478a262.577,262.577,0,0,0,30.413,1.692c4.115,0,40.148-.2,40.148-7.17,0-1.219,0-3.226-21.508-6.94ZM241.661,241.74H220.153a4.316,4.316,0,0,1-4.3-4.3V223.1a4.315,4.315,0,0,1,4.3-4.3h21.508Zm5.736,1.433a1.434,1.434,0,0,1-2.868,0V217.364a1.434,1.434,0,1,1,2.868,0Zm30.7,14.339-2.022,2.022-2.022-2.022,2.022-2.022Zm-24.118,5.736L256,261.226l2.022,2.022L256,265.269Zm-8.015,20.92,2.022,2.022-2.022,2.021-2.022-2.021Zm12.905,12.059c-21.093,0-37.711-2.251-42.1-4.058,2.237-.674,8.474-1.907,25.638-3.456l2.538,2.553a1.455,1.455,0,0,0,2.036,0l3.2-3.2c3.556-.287,5.908-.444,5.922-.444a1.434,1.434,0,0,0,1.334-1.434v-18.3l3.642-3.627a1.445,1.445,0,0,0,0-2.036l-3.642-3.628V244.607a5.736,5.736,0,0,0-5.736-5.735h-1.434V221.665H251.7a22.972,22.972,0,0,1,22.942,22.942v8.259L271,256.494a1.446,1.446,0,0,0,0,2.036l3.642,3.628V286.19a1.446,1.446,0,0,0,1.19,1.419c7.93,1.334,17.035,3.327,19.831,4.56-3,1.792-16.461,4.058-36.793,4.058Z"/>
    <path id="Trazado_151294" data-name="Trazado 151294" d="M264.6,257.512h2.868v7.17H264.6Z"/>
    <path id="Trazado_151295" data-name="Trazado 151295" d="M264.6,251.777h2.868v2.867H264.6Z"/>
    <path id="Trazado_151296" data-name="Trazado 151296" d="M237.876,276.961a4.369,4.369,0,0,0-1.95,3.493h2.867c0-.483.224-.717.918-1.29a4.1,4.1,0,0,0,0-6.986c-.695-.574-.919-.806-.919-1.291,0-.46.184-.675.918-1.29a4.365,4.365,0,0,0,1.951-3.482h-2.868c0,.461-.183.676-.917,1.291a4.1,4.1,0,0,0,0,6.983c.694.573.917.806.917,1.29s-.223.7-.917,1.282Z"/>
    <path id="Trazado_151297" data-name="Trazado 151297" d="M229.273,276.961a4.369,4.369,0,0,0-1.951,3.493h2.868c0-.483.224-.717.918-1.29a4.1,4.1,0,0,0,0-6.986c-.7-.574-.919-.806-.919-1.291,0-.46.183-.675.917-1.29a4.366,4.366,0,0,0,1.952-3.482H230.19c0,.461-.183.676-.917,1.291a4.1,4.1,0,0,0,0,6.983c.694.573.917.806.917,1.29s-.223.7-.917,1.282Z"/>
    <path id="Trazado_151298" data-name="Trazado 151298" d="M292.363,276.961a4.371,4.371,0,0,0-1.95,3.493h2.868c0-.483.223-.717.917-1.29a4.1,4.1,0,0,0,0-6.986c-.7-.574-.919-.806-.919-1.291,0-.46.184-.675.918-1.29a4.366,4.366,0,0,0,1.952-3.482h-2.868c0,.461-.184.676-.918,1.291a4.1,4.1,0,0,0,0,6.983c.694.573.918.806.918,1.29s-.224.7-.918,1.282Z"/>
    <path id="Trazado_151299" data-name="Trazado 151299" d="M283.76,276.961a4.369,4.369,0,0,0-1.95,3.493h2.867c0-.483.224-.717.918-1.29a4.1,4.1,0,0,0,0-6.986c-.7-.574-.919-.806-.919-1.291,0-.46.184-.675.918-1.29a4.365,4.365,0,0,0,1.951-3.482h-2.868c0,.461-.183.676-.917,1.291a4.1,4.1,0,0,0,0,6.983c.694.573.917.806.917,1.29s-.223.7-.917,1.282Z"/>
    <path id="Trazado_151300" data-name="Trazado 151300" d="M220.669,276.961a4.371,4.371,0,0,0-1.95,3.493h2.868c0-.483.224-.717.918-1.29a4.105,4.105,0,0,0,0-6.986c-.7-.574-.919-.806-.919-1.291,0-.46.183-.675.917-1.29a4.366,4.366,0,0,0,1.952-3.482h-2.868c0,.461-.184.676-.918,1.291a4.1,4.1,0,0,0,0,6.983c.694.573.918.806.918,1.29s-.224.7-.918,1.282Z"/>
  </g>
</svg>
