<svg xmlns="http://www.w3.org/2000/svg" width="80" height="80.246" viewBox="0 0 80 80.246">
  <g id="World_Wide-Shopping" data-name="World Wide-Shopping" transform="translate(-216 -215.059)">
    <path id="Trazado_151041" data-name="Trazado 151041" d="M261.333,263.318,260,261.985H249.333L248,263.318l-4,4v4l2.667,2.667H252v5.333l2.667,2.667v5.307a3.321,3.321,0,0,0,.346,0c.32.026.654.026.987.026a30.4,30.4,0,0,0,4-.253v-1.08l4-4v-5.333l2.667-2.667v-5.333Z" fill="#00b39d"/>
    <path id="Trazado_151042" data-name="Trazado 151042" d="M247.267,229.252,244,225.985h-.773c-.294.12-.587.253-.867.387a32.149,32.149,0,0,0-11.173,8.76,25.959,25.959,0,0,0-1.854,2.52,31.121,31.121,0,0,0-4.44,10.186,31.472,31.472,0,0,0-.893,7.48,31.912,31.912,0,0,0,8.72,21.947l3.28-3.28v-4l4-4v-4l-6.667-6.667v-4h4L240,248.652l2.667-2.667v-5.333L248,235.318v-5.333Z" fill="#00b39d"/>
    <path id="Trazado_151043" data-name="Trazado 151043" d="M277.333,272.652,276,271.318v-6.666l-5.333-5.334v-5.333l2.666-2.667v-8l-6.666-6.666H260l-5.333-5.334v-7.973a30.886,30.886,0,0,0-6.52.96c-.427.093-.854.213-1.267.347a29.055,29.055,0,0,0-3.653,1.333H244l4,4v5.333l-5.333,5.334v5.333L240,248.652l-2.667,2.666h-4v4L240,261.985v4l-4,4v4l-3.28,3.28a31.9,31.9,0,0,0,21.947,10.027v-5.307L252,279.318v-5.333h-5.333L244,271.318v-4l5.333-5.333H260l6.667,6.667v5.333L264,276.652v5.333l-4,4v1.08a.774.774,0,0,0,.253-.04,5.314,5.314,0,0,1,8.574-2.4,31.762,31.762,0,0,0,11.706-8.773Z" fill="#3d9ae2"/>
    <path id="Trazado_151044" data-name="Trazado 151044" d="M256,223.318c-.453,0-.893.014-1.333.027v7.973L260,236.652h6.667l6.666,6.666v8l-2.666,2.667v5.333l2.666,2.667L276,264.652v6.666l1.333,1.334,3.2,3.2a29.931,29.931,0,0,0,2.147-2.88c.347-.52.68-1.054.973-1.587a22.085,22.085,0,0,0,1.16-2.147A32,32,0,0,0,256,223.318Z" fill="#00b39d"/>
    <path id="Trazado_151045" data-name="Trazado 151045" d="M284,283.332a5.2,5.2,0,1,1-.043,0Z" fill="#57565c"/>
    <path id="Trazado_151046" data-name="Trazado 151046" d="M287.173,271.332h-3.16a1.072,1.072,0,0,0-.36.053,1.334,1.334,0,0,0-.973,1.28v.307l-.013,3.693A1.333,1.333,0,0,0,284,278h10.667Z" fill="#e6e7e8"/>
    <path id="Trazado_151047" data-name="Trazado 151047" d="M268.827,284.625a5.314,5.314,0,0,0-8.574,2.4,4.969,4.969,0,0,0-.266,1.613,5.333,5.333,0,0,0,10.666.014,5.267,5.267,0,0,0-1.826-4.027Z" fill="#57565c"/>
    <path id="Trazado_151048" data-name="Trazado 151048" d="M264,247.318v4l-2.667,2.667h-2.666v-5.333L256,245.985v-2.667h8Z" fill="#00b39d"/>
    <path id="Trazado_151049" data-name="Trazado 151049" d="M284,278a1.333,1.333,0,0,1-1.333-1.333l.013-3.693v-.307a1.334,1.334,0,0,1,.973-1.28,1.072,1.072,0,0,1,.36-.053h3.16l-2.36-2.094-2.133-1.906h-5.347v10.653H254.667v7.987a2.6,2.6,0,0,0,.346,1.32,2.659,2.659,0,0,0,2.307,1.346h2.667a4.969,4.969,0,0,1,.266-1.613,5.325,5.325,0,0,1,10.4,1.627h8a5.334,5.334,0,1,1,10.667.013h2.667a2.686,2.686,0,0,0,2.68-2.667v-8Z" fill="#ff5023"/>
    <path id="Trazado_151050" data-name="Trazado 151050" d="M254.667,227.318A2.688,2.688,0,0,1,252,229.985H220a2.667,2.667,0,1,1,0-5.333h32A2.674,2.674,0,0,1,254.667,227.318Z" fill="#ee8700"/>
    <path id="Trazado_151051" data-name="Trazado 151051" d="M246.813,216.438a2.649,2.649,0,0,0-3.076,2.139l0,.021-1.066,6.054-.307,1.72-.64,3.613h5.413l.134-.733.813-4.6.067-.347.84-4.787a2.8,2.8,0,0,0,.04-.466,2.667,2.667,0,0,0-2.214-2.614Z" fill="#ff9811"/>
    <path id="Trazado_151052" data-name="Trazado 151052" d="M250.667,229.985l-.2,2.667-.854,10.96a5.333,5.333,0,0,1-5.32,5.04H227.707a5.231,5.231,0,0,1-2.814-.814,5.317,5.317,0,0,1-2.506-4.226l-.854-10.96-.2-2.667Z" fill="#ffa733"/>
    <path id="Trazado_151053" data-name="Trazado 151053" d="M229.333,224.652l.947,5.333h-5.413l-.947-5.333Z" fill="#ff9811"/>
    <path id="Trazado_151054" data-name="Trazado 151054" d="M228.267,218.6l1.066,6.054H223.92l-.907-5.134a2.8,2.8,0,0,1-.04-.466,2.667,2.667,0,0,1,5.294-.454Z" fill="#ff9811"/>
    <path id="Trazado_151055" data-name="Trazado 151055" d="M254.667,261.985h6.666v5.333h-6.666Z" fill="#ee8700"/>
    <path id="Trazado_151056" data-name="Trazado 151056" d="M266.667,261.985h6.666v5.333h-6.666Z" fill="#ee8700"/>
    <path id="Trazado_151057" data-name="Trazado 151057" d="M254.667,267.318v10.667h18.666V267.318Z" fill="#ff9811"/>
    <path id="Trazado_151058" data-name="Trazado 151058" d="M273.333,261.985h-2.666a15.943,15.943,0,0,1-.934,5.333h3.6Z" fill="#cc7400"/>
    <path id="Trazado_151059" data-name="Trazado 151059" d="M269.733,267.318a15.986,15.986,0,0,1-15.066,10.667h18.666V267.318Z" fill="#ee8700"/>
    <path id="Trazado_151060" data-name="Trazado 151060" d="M265.333,261.985h-4v8L264,267.318l1.333,1.334,1.334,1.333v-8Z" fill="#e6e7e8"/>
    <path id="Trazado_151061" data-name="Trazado 151061" d="M250.667,229.985l-.2,2.667H221.533l-.2-2.667Z" fill="#f29f30"/>
    <path id="Trazado_151062" data-name="Trazado 151062" d="M237.293,279.621a31.174,31.174,0,0,1-2.7-2.341l2.352-2.352a1.334,1.334,0,0,0,.39-.943v-3.448l3.61-3.609a1.334,1.334,0,0,0,.39-.943v-4a1.333,1.333,0,0,0-.39-.943l-6.276-6.276V252.7H232v2.616a1.334,1.334,0,0,0,.391.943l6.276,6.276v2.9l-3.61,3.609a1.333,1.333,0,0,0-.39.943v3.448l-1.9,1.9a30.434,30.434,0,0,1-7.435-20.014,30.949,30.949,0,0,1,.238-3.836l-2.646-.33a33.533,33.533,0,0,0-.258,4.166,33.127,33.127,0,0,0,13,26.415Z"/>
    <path id="Trazado_151063" data-name="Trazado 151063" d="M286.667,255.318a30.582,30.582,0,0,1-1.746,10.223l2.515.888a33.354,33.354,0,0,0-30.079-44.416l-.108,2.667a30.573,30.573,0,0,1,29.418,30.638Z"/>
    <path id="Trazado_151064" data-name="Trazado 151064" d="M248.391,261.042l-5.334,5.334a1.332,1.332,0,0,0-.39.942v4a1.333,1.333,0,0,0,.39.943l2.667,2.667a1.333,1.333,0,0,0,.943.39h4v-2.666h-3.448l-1.886-1.886v-2.9l4.552-4.552h.782v-2.666h-1.334a1.332,1.332,0,0,0-.942.39Z"/>
    <path id="Trazado_151065" data-name="Trazado 151065" d="M258.667,255.318h2.666a1.333,1.333,0,0,0,.943-.39l2.667-2.667a1.333,1.333,0,0,0,.39-.943v-8A1.333,1.333,0,0,0,264,241.985h-8a1.333,1.333,0,0,0-1.333,1.333v2.667a1.333,1.333,0,0,0,.39.943l2.276,2.276v4.781A1.333,1.333,0,0,0,258.667,255.318Zm-1.334-10.666h5.334v6.114l-1.886,1.886H260v-4a1.334,1.334,0,0,0-.391-.943l-2.276-2.276Z"/>
    <path id="Trazado_151066" data-name="Trazado 151066" d="M259.057,237.594a1.334,1.334,0,0,0,.943.391h6.115L272,243.87v6.9l-2.276,2.276a1.334,1.334,0,0,0-.391.943v4H272v-3.448l2.276-2.276a1.334,1.334,0,0,0,.391-.943v-8a1.333,1.333,0,0,0-.391-.942l-6.667-6.667a1.333,1.333,0,0,0-.942-.391h-6.115l-3.609-3.609-1.886,1.885Z"/>
    <path id="Trazado_151067" data-name="Trazado 151067" d="M254.811,230.153A3.928,3.928,0,0,0,256,227.318a4,4,0,0,0-4-4h-2.332l.635-3.585a4.09,4.09,0,0,0,.057-.681,4,4,0,0,0-7.934-.716l-.006.032-.875,4.95h-11.09l-.875-4.949a3.974,3.974,0,0,0-1.657-2.6,3.9,3.9,0,0,0-2.966-.647,3.988,3.988,0,0,0-3.317,3.927,4.087,4.087,0,0,0,.06.7l.632,3.568H220a4,4,0,0,0,0,8h.1l.957,12.37a6.667,6.667,0,0,0,6.656,6.3h16.576a6.667,6.667,0,0,0,6.655-6.267l.958-12.4h.1A3.906,3.906,0,0,0,254.811,230.153ZM252,225.985a1.333,1.333,0,0,1,1.333,1.333,1.3,1.3,0,0,1-.408.95,1.28,1.28,0,0,1-.925.384h-3.277l.473-2.667Zm-6.953-7.157a1.327,1.327,0,0,1,.552-.867,1.289,1.289,0,0,1,.985-.209,1.322,1.322,0,0,1,1.089,1.534l-1.657,9.366h-2.707Zm-3.974,7.157-.47,2.667h-9.2l-.47-2.667Zm-15.644-8.236a1.293,1.293,0,0,1,.972.212,1.33,1.33,0,0,1,.552.868l1.738,9.823h-2.707l-1.655-9.348a1.533,1.533,0,0,1-.022-.252A1.333,1.333,0,0,1,225.429,217.749Zm-6.762,9.569a1.3,1.3,0,0,1,.408-.949,1.272,1.272,0,0,1,.925-.384h2.8l.472,2.667H220A1.333,1.333,0,0,1,218.667,227.318Zm29.614,16.222a4,4,0,0,1-3.993,3.778H227.712a4.009,4.009,0,0,1-4-3.806l-.939-12.194h26.454Z"/>
    <path id="Trazado_151068" data-name="Trazado 151068" d="M234.667,233.985h2.666v10.667h-2.666Z"/>
    <path id="Trazado_151069" data-name="Trazado 151069" d="M241.333,233.985H244v10.667h-2.667Z"/>
    <path id="Trazado_151070" data-name="Trazado 151070" d="M228,233.985h2.667v10.667H228Z"/>
    <path id="Trazado_151071" data-name="Trazado 151071" d="M282.66,287.326h2.667v2.667H282.66Z"/>
    <path id="Trazado_151072" data-name="Trazado 151072" d="M263.993,287.31h2.667v2.667h-2.667Z"/>
    <path id="Trazado_151073" data-name="Trazado 151073" d="M295.553,277l-11.988-10.666a1.338,1.338,0,0,0-.885-.338h-5.067a1.364,1.364,0,0,0-1.59,1.091,1.285,1.285,0,0,0-.023.213v9.35h-1.333V261.985a1.333,1.333,0,0,0-1.334-1.333H254.667a1.333,1.333,0,0,0-1.334,1.333v23.987a4,4,0,0,0,3.987,4h1.467a6.668,6.668,0,0,0,13.066,0h5.6a6.669,6.669,0,0,0,13.067,0h1.467a4.011,4.011,0,0,0,4.013-4v-8a1.33,1.33,0,0,0-.447-.97Zm-11.544-4.337h2.658l4.494,4H284ZM256,268.652h4v1.333a1.334,1.334,0,0,0,2.276.943L264,269.2l1.724,1.724a1.334,1.334,0,0,0,2.276-.943v-1.333h4v8H256Zm6.667-5.334h2.666v3.448l-.39-.39a1.333,1.333,0,0,0-1.886,0l-.39.39ZM272,265.985h-4v-2.667h4Zm-12-2.667v2.667h-4v-2.667Zm8.152,28.156a4,4,0,1,1,1.171-2.827,3.968,3.968,0,0,1-1.171,2.827Zm18.667.016A4,4,0,1,1,288,288.663a3.973,3.973,0,0,1-1.177,2.827Zm5.168-4.158H290.52a6.664,6.664,0,0,0-13.06,0h-5.6a6.664,6.664,0,0,0-13.06,0h-1.48A1.335,1.335,0,0,1,256,286v-6.68h21.333a1.333,1.333,0,0,0,1.334-1.333v-9.32h3.505l1.533,1.364a2.667,2.667,0,0,0-2.362,2.629l-.01,4A2.667,2.667,0,0,0,284,279.325h9.333v6.667a1.358,1.358,0,0,1-1.346,1.34Z"/>
    <path id="Trazado_151074" data-name="Trazado 151074" d="M240,287.318h10.667v2.667H240Z"/>
    <path id="Trazado_151075" data-name="Trazado 151075" d="M234.667,287.318h2.666v2.667h-2.666Z"/>
    <path id="Trazado_151076" data-name="Trazado 151076" d="M242.667,281.985h8v2.667h-8Z"/>
    <path id="Trazado_151077" data-name="Trazado 151077" d="M245.333,276.652h5.334v2.666h-5.334Z"/>
    <path id="Trazado_151078" data-name="Trazado 151078" d="M237.333,281.985H240v2.667h-2.667Z"/>
  </g>
</svg>
