<svg xmlns="http://www.w3.org/2000/svg" width="80" height="80" viewBox="0 0 80 80">
  <g id="Grupo_94416" data-name="Grupo 94416" transform="translate(-216 -216)">
    <g id="Grupo_94458" data-name="Grupo 94458">
      <g id="Grupo_94429" data-name="Grupo 94429">
        <g id="Grupo_94428" data-name="Grupo 94428">
          <g id="Grupo_94427" data-name="Grupo 94427">
            <path id="Trazado_151017" data-name="Trazado 151017" d="M287.251,256.747v16.911a3.852,3.852,0,0,1-3.852,3.852l-27.38,0v-5.486h25.746V256.747Z" fill="#17b8ce"/>
          </g>
        </g>
        <path id="Trazado_151018" data-name="Trazado 151018" d="M230.235,255.252V239.977h25.746v-5.486H228.6a3.852,3.852,0,0,0-3.852,3.852v16.909Z" fill="#f8842f"/>
      </g>
      <g id="Grupo_94433" data-name="Grupo 94433">
        <g id="Grupo_94431" data-name="Grupo 94431">
          <circle id="Elipse_5028" data-name="Elipse 5028" cx="21.509" cy="21.509" r="21.509" transform="translate(234.491 234.491)" fill="#6d81d5"/>
          <path id="Trazado_151019" data-name="Trazado 151019" d="M277.509,256a21.525,21.525,0,0,1-24.386,21.319,21.512,21.512,0,0,0,0-42.636A21.525,21.525,0,0,1,277.509,256Z" fill="#5169cd"/>
          <path id="Trazado_151020" data-name="Trazado 151020" d="M265.676,258.708a2.584,2.584,0,0,0,2.584,2.584h8.59a21.462,21.462,0,0,0,.657-5.167H268.26a2.584,2.584,0,0,0-2.584,2.583Z" fill="#27e19d"/>
          <path id="Trazado_151021" data-name="Trazado 151021" d="M271.751,256.125a21.462,21.462,0,0,1-.657,5.167h5.756a21.462,21.462,0,0,0,.657-5.167Z" fill="#26d192"/>
          <path id="Trazado_151022" data-name="Trazado 151022" d="M263.13,250.771A4.23,4.23,0,0,1,258.9,255H247.752a2.36,2.36,0,1,0,0,4.72h1.159a4.212,4.212,0,1,1,0,8.424H238.245A21.512,21.512,0,0,1,256,234.491c.356,0,.711.01,1.063.027a7,7,0,0,1,.45,2.481,5.534,5.534,0,0,1-5.533,5.533,2,2,0,1,0,0,4.009h6.92a4.23,4.23,0,0,1,4.23,4.23Z" fill="#27e19d"/>
          <g id="Grupo_94430" data-name="Grupo 94430">
            <path id="Trazado_151023" data-name="Trazado 151023" d="M257.513,237a5.533,5.533,0,0,1-5.533,5.533,2,2,0,1,0,0,4.009h-4.119a2,2,0,1,1,0-4.009A5.534,5.534,0,0,0,253.394,237a7.008,7.008,0,0,0-.385-2.3,21.393,21.393,0,0,1,2.991-.208q.535,0,1.064.026A7.024,7.024,0,0,1,257.513,237Z" fill="#26d192"/>
            <path id="Trazado_151024" data-name="Trazado 151024" d="M263.13,250.771A4.23,4.23,0,0,1,258.9,255h-4.119a4.229,4.229,0,1,0,0-8.459H258.9a4.229,4.229,0,0,1,4.23,4.23Z" fill="#26d192"/>
            <path id="Trazado_151025" data-name="Trazado 151025" d="M253.124,263.932a4.213,4.213,0,0,1-4.213,4.212h-4.119a4.213,4.213,0,1,0,0-8.425h-1.159a2.359,2.359,0,1,1,0-4.719h4.119a2.359,2.359,0,1,0,0,4.719h1.159a4.213,4.213,0,0,1,4.213,4.213Z" fill="#26d192"/>
          </g>
        </g>
        <g id="Grupo_94432" data-name="Grupo 94432">
          <path id="Trazado_151026" data-name="Trazado 151026" d="M263.831,271.085h-2.8a2.941,2.941,0,1,1,0-5.882h2.8a2.941,2.941,0,0,1,0,5.882Z" fill="#27e19d"/>
          <path id="Trazado_151027" data-name="Trazado 151027" d="M266.772,268.144a2.941,2.941,0,0,1-2.942,2.94h-2.8a2.612,2.612,0,0,1-.418-.031,2.939,2.939,0,0,0,0-5.818,2.734,2.734,0,0,1,.418-.031h2.8A2.941,2.941,0,0,1,266.772,268.144Z" fill="#26d192"/>
        </g>
      </g>
      <g id="Grupo_94455" data-name="Grupo 94455">
        <g id="Grupo_94441" data-name="Grupo 94441">
          <g id="Grupo_94439" data-name="Grupo 94439">
            <g id="Grupo_94438" data-name="Grupo 94438">
              <g id="Grupo_94437" data-name="Grupo 94437">
                <g id="Grupo_94436" data-name="Grupo 94436">
                  <g id="Grupo_94435" data-name="Grupo 94435">
                    <g id="Grupo_94434" data-name="Grupo 94434">
                      <circle id="Elipse_5029" data-name="Elipse 5029" cx="15.063" cy="15.063" r="15.063" transform="translate(264.702 217.172)" fill="#209cb6"/>
                      <path id="Trazado_151028" data-name="Trazado 151028" d="M294.829,232.234a15.069,15.069,0,0,1-21.276,13.726,13.9,13.9,0,1,0,2.172-27.62,14.087,14.087,0,0,0-2.177.17,15.073,15.073,0,0,1,21.281,13.724Z" fill="#177c99"/>
                    </g>
                  </g>
                </g>
              </g>
            </g>
          </g>
          <g id="Grupo_94440" data-name="Grupo 94440">
            <circle id="Elipse_5030" data-name="Elipse 5030" cx="11.152" cy="11.152" r="11.152" transform="translate(268.613 221.083)" fill="#23f1eb"/>
            <path id="Trazado_151029" data-name="Trazado 151029" d="M290.918,232.234A11.155,11.155,0,0,1,275.166,242.4a10.166,10.166,0,0,0,1.609.126,10.287,10.287,0,0,0,0-20.574,10.437,10.437,0,0,0-1.612.125,11.16,11.16,0,0,1,15.755,10.161Z" fill="#26d1ca"/>
          </g>
        </g>
        <g id="Grupo_94454" data-name="Grupo 94454">
          <g id="Grupo_94447" data-name="Grupo 94447">
            <g id="Grupo_94446" data-name="Grupo 94446">
              <g id="Grupo_94445" data-name="Grupo 94445">
                <g id="Grupo_94444" data-name="Grupo 94444">
                  <g id="Grupo_94443" data-name="Grupo 94443">
                    <g id="Grupo_94442" data-name="Grupo 94442">
                      <circle id="Elipse_5031" data-name="Elipse 5031" cx="15.063" cy="15.063" r="15.063" transform="translate(217.172 264.702)" fill="#f8822f"/>
                      <path id="Trazado_151030" data-name="Trazado 151030" d="M247.3,279.765a15.069,15.069,0,0,1-21.275,13.726,13.9,13.9,0,1,0,2.172-27.62,14.068,14.068,0,0,0-2.177.17,15.072,15.072,0,0,1,21.28,13.724Z" fill="#e27223"/>
                    </g>
                  </g>
                </g>
              </g>
            </g>
          </g>
          <g id="Grupo_94453" data-name="Grupo 94453">
            <g id="Grupo_94452" data-name="Grupo 94452">
              <g id="Grupo_94451" data-name="Grupo 94451">
                <g id="Grupo_94450" data-name="Grupo 94450">
                  <g id="Grupo_94449" data-name="Grupo 94449">
                    <g id="Grupo_94448" data-name="Grupo 94448">
                      <circle id="Elipse_5032" data-name="Elipse 5032" cx="11.152" cy="11.152" r="11.152" transform="translate(221.083 268.613)" fill="#fba466"/>
                      <path id="Trazado_151031" data-name="Trazado 151031" d="M243.387,279.765a11.155,11.155,0,0,1-15.751,10.162,10.288,10.288,0,1,0,1.608-20.449,10.446,10.446,0,0,0-1.612.126,11.158,11.158,0,0,1,15.755,10.161Z" fill="#fb934a"/>
                    </g>
                  </g>
                </g>
              </g>
            </g>
          </g>
        </g>
      </g>
      <g id="Grupo_94456" data-name="Grupo 94456">
        <path id="Trazado_151032" data-name="Trazado 151032" d="M291.681,261.789a2.785,2.785,0,0,1-3.938,0l-3.38-3.379-3.379,3.379a2.785,2.785,0,0,1-3.938-3.938l5.349-5.348a2.784,2.784,0,0,1,3.937,0l5.349,5.348a2.785,2.785,0,0,1,0,3.938Z" fill="#09ccdb"/>
      </g>
      <g id="Grupo_94457" data-name="Grupo 94457">
        <path id="Trazado_151033" data-name="Trazado 151033" d="M220.32,250.211a2.784,2.784,0,0,1,3.938,0l3.379,3.379,3.38-3.379a2.784,2.784,0,0,1,3.937,3.937l-5.348,5.349a2.785,2.785,0,0,1-3.938,0l-5.348-5.349A2.784,2.784,0,0,1,220.32,250.211Z" fill="#f89d2f"/>
      </g>
    </g>
    <g id="Grupo_94459" data-name="Grupo 94459">
      <path id="Trazado_151034" data-name="Trazado 151034" d="M261.028,272.257h2.8a4.112,4.112,0,0,0,0-8.225h-2.8a4.112,4.112,0,0,0,0,8.225Zm0-5.882h2.8a1.769,1.769,0,0,1,0,3.538h-2.8a1.769,1.769,0,1,1,0-3.538Z"/>
      <path id="Trazado_151035" data-name="Trazado 151035" d="M243.976,249.957h1.1a1.172,1.172,0,1,0,0-2.343h-1.1a1.172,1.172,0,1,0,0,2.343Z"/>
      <path id="Trazado_151036" data-name="Trazado 151036" d="M240.363,251.957h-1.1a1.172,1.172,0,0,0,0,2.344h1.1a1.172,1.172,0,0,0,0-2.344Z"/>
      <path id="Trazado_151037" data-name="Trazado 151037" d="M242.872,264.711h1.1a1.172,1.172,0,1,0,0-2.344h-1.1a1.172,1.172,0,1,0,0,2.344Z"/>
      <path id="Trazado_151038" data-name="Trazado 151038" d="M272.049,241.843a12.323,12.323,0,1,0-4.172-12.856,1.172,1.172,0,0,0,2.261.616,9.983,9.983,0,1,1-.09,4.9,1.172,1.172,0,0,0-2.283.53,12.385,12.385,0,0,0,4.284,6.808Z"/>
      <path id="Trazado_151039" data-name="Trazado 151039" d="M232.235,267.441a12.324,12.324,0,1,0,12.324,12.324A12.338,12.338,0,0,0,232.235,267.441Zm0,22.3a9.98,9.98,0,1,1,9.98-9.981A9.992,9.992,0,0,1,232.235,289.746Z"/>
      <path id="Trazado_151040" data-name="Trazado 151040" d="M287.161,251.674a3.962,3.962,0,0,0-5.6,0l-2.929,2.929a22.41,22.41,0,0,0-1.3-6.316,16.229,16.229,0,1,0-13.623-13.623A22.527,22.527,0,0,0,256,233.319H228.6a5.022,5.022,0,0,0-5.023,5.024v10.1a3.956,3.956,0,0,0-4.087,6.537l.62.62a1.172,1.172,0,0,0,1.657-1.657l-.619-.62a1.612,1.612,0,0,1,2.28-2.28l3.38,3.379a1.17,1.17,0,0,0,1.657,0l3.38-3.379a1.612,1.612,0,1,1,2.28,2.28l-5.349,5.349a1.615,1.615,0,0,1-2.28,0l-.857-.858a1.172,1.172,0,1,0-1.657,1.658l.857.857a3.96,3.96,0,0,0,5.6,0l2.928-2.928a22.431,22.431,0,0,0,1.3,6.314,16.229,16.229,0,1,0,13.624,13.623A22.532,22.532,0,0,0,256,278.681h14.179a1.172,1.172,0,1,0,0-2.344H266.06a22.911,22.911,0,0,0,3.519-2.168c.414-.31.814-.637,1.2-.974h10.981a1.172,1.172,0,0,0,1.172-1.172V261.591c0-.031,0-.062,0-.093l1.43-1.431,1.716,1.716v11.874a2.68,2.68,0,0,1-2.68,2.681h-7.745a1.172,1.172,0,1,0,0,2.344H283.4a5.022,5.022,0,0,0,5.024-5.024v-10.1a3.957,3.957,0,0,0,4.086-6.539Zm-7.4-33.331a13.892,13.892,0,1,1-13.891,13.892A13.907,13.907,0,0,1,279.765,218.343ZM236.45,250.27A20.551,20.551,0,0,1,256,235.663l.187,0a5.89,5.89,0,0,1,.154,1.334,4.362,4.362,0,0,1-4.361,4.361,3.176,3.176,0,1,0,0,6.353h6.92a3.058,3.058,0,1,1,0,6.115H247.752a3.532,3.532,0,1,0,0,7.064h1.159a3.04,3.04,0,0,1,0,6.081h-6.693a16.2,16.2,0,0,0-4.746-2.575,20.18,20.18,0,0,1-1.809-8.4c0-.307.008-.617.022-.925a4.134,4.134,0,0,0,.764-4.8Zm-7.387-10.293v10.53l-1.426,1.426-1.716-1.716V238.343a2.68,2.68,0,0,1,2.68-2.681H245.94a22.722,22.722,0,0,0-3.552,2.194c-.4.3-.791.62-1.172.948H230.235a1.172,1.172,0,0,0-1.172,1.172Zm5.508,8.579a3.978,3.978,0,0,0-3.164,0v-7.4h7.463A22.854,22.854,0,0,0,234.571,248.556Zm-2.336,45.1a13.891,13.891,0,1,1,13.891-13.891A13.906,13.906,0,0,1,232.235,293.656ZM264.4,237.469a16.314,16.314,0,0,0,10.142,10.137,20.8,20.8,0,0,1,1.773,7.347H268.26a3.755,3.755,0,1,0,0,7.511h7.025A20.235,20.235,0,0,1,256,276.337a20.548,20.548,0,0,1-8.4-1.8,16.244,16.244,0,0,0-2.955-5.217h4.262a5.384,5.384,0,1,0,0-10.768h-1.159a1.188,1.188,0,0,1,0-2.376H258.9a5.4,5.4,0,1,0,0-10.8h-6.92a.833.833,0,0,1-.833-.832.833.833,0,0,1,.833-.833A6.7,6.7,0,0,0,258.685,237a8.179,8.179,0,0,0-.087-1.172,20.322,20.322,0,0,1,5.8,1.642Zm10.675,22.651H268.26a1.411,1.411,0,1,1,0-2.823h7.708a3.924,3.924,0,0,0-.91,2.523c0,.1,0,.2.013.3Zm5.522,10.731h-7.464a22.829,22.829,0,0,0,4.3-7.406,3.962,3.962,0,0,0,3.166,0Zm10.259-9.89a1.613,1.613,0,0,1-2.28,0l-3.38-3.38a1.172,1.172,0,0,0-1.657,0l-3.38,3.38a1.613,1.613,0,0,1-2.28-2.281l5.348-5.348a1.615,1.615,0,0,1,2.281,0l5.348,5.348A1.615,1.615,0,0,1,290.852,260.961Z"/>
    </g>
  </g>
</svg>
