<svg xmlns="http://www.w3.org/2000/svg" width="86" height="86" viewBox="0 0 86 86">
  <g id="Grupo_94437" data-name="Grupo 94437" transform="translate(-213 -213)">
    <g id="Grupo_94529" data-name="Grupo 94529">
      <path id="Trazado_151232" data-name="Trazado 151232" d="M239.789,237.414V223.136a11.942,11.942,0,0,0-3.5-8.45l-.007-.006a11.94,11.94,0,0,0-3.544,8.489v14.245Z" fill="#fff"/>
      <path id="Trazado_151233" data-name="Trazado 151233" d="M239.958,237.625l12.365,7.138a11.946,11.946,0,0,1,5.566,7.26l0,.009a11.942,11.942,0,0,1-9.124-1.176l-12.336-7.122Z" fill="#fff"/>
      <path id="Trazado_151234" data-name="Trazado 151234" d="M232.613,237.625l-12.365,7.138a11.946,11.946,0,0,0-5.566,7.26l0,.009a11.942,11.942,0,0,0,9.124-1.176l12.336-7.122Z" fill="#fff"/>
    </g>
    <circle id="Elipse_5045" data-name="Elipse 5045" cx="4.1" cy="4.1" r="4.1" transform="translate(232.162 235.49)" fill="#e1e3e9"/>
    <path id="Trazado_151235" data-name="Trazado 151235" d="M232.9,243.734h6.718v53.643H232.9Z" fill="#b5bcc9"/>
    <circle id="Elipse_5046" data-name="Elipse 5046" cx="8.268" cy="8.268" r="8.268" transform="translate(269.904 225.56)" fill="#ffcb7c"/>
    <g id="Grupo_94530" data-name="Grupo 94530">
      <path id="Trazado_151236" data-name="Trazado 151236" d="M263.1,289.258h9.406v8.062H263.1Z" fill="#e1e3e9"/>
      <path id="Trazado_151237" data-name="Trazado 151237" d="M287.291,261.039H248.356a2.351,2.351,0,0,0-2.269,1.736l-6.382,23.515a2.352,2.352,0,0,0,2.269,2.968h51.7a2.352,2.352,0,0,0,2.269-2.968l-6.382-23.515A2.35,2.35,0,0,0,287.291,261.039Z" fill="#cff1fb"/>
    </g>
    <g id="Grupo_94531" data-name="Grupo 94531">
      <path id="Trazado_151238" data-name="Trazado 151238" d="M288.769,224.91a1.675,1.675,0,0,0,1.188-.492l2.943-2.942a1.68,1.68,0,1,0-2.376-2.376l-2.942,2.943a1.68,1.68,0,0,0,1.187,2.867Z"/>
      <path id="Trazado_151239" data-name="Trazado 151239" d="M266.387,224.418a1.679,1.679,0,0,0,2.375-2.375L265.82,219.1a1.68,1.68,0,1,0-2.376,2.376Z"/>
      <path id="Trazado_151240" data-name="Trazado 151240" d="M278.172,243.776a9.948,9.948,0,1,0-9.948-9.948,9.959,9.959,0,0,0,9.948,9.948Zm0-16.536a6.589,6.589,0,1,1-6.588,6.588,6.6,6.6,0,0,1,6.588-6.588Z"/>
      <path id="Trazado_151241" data-name="Trazado 151241" d="M289.957,243.238a1.679,1.679,0,0,0-2.375,2.375l2.942,2.943a1.68,1.68,0,1,0,2.376-2.376Z"/>
      <path id="Trazado_151242" data-name="Trazado 151242" d="M266.387,243.238l-2.943,2.942a1.68,1.68,0,0,0,2.376,2.376l2.942-2.943a1.679,1.679,0,0,0-2.375-2.375Z"/>
      <path id="Trazado_151243" data-name="Trazado 151243" d="M291.479,233.828a1.68,1.68,0,0,0,1.68,1.68h4.162a1.68,1.68,0,0,0,0-3.36h-4.162A1.68,1.68,0,0,0,291.479,233.828Z"/>
      <path id="Trazado_151244" data-name="Trazado 151244" d="M278.172,220.521a1.68,1.68,0,0,0,1.68-1.68V214.68a1.68,1.68,0,0,0-3.36,0v4.161A1.68,1.68,0,0,0,278.172,220.521Z"/>
      <path id="Trazado_151245" data-name="Trazado 151245" d="M276.492,248.815v4.161a1.68,1.68,0,1,0,3.36,0v-4.161a1.68,1.68,0,1,0-3.36,0Z"/>
      <path id="Trazado_151246" data-name="Trazado 151246" d="M259.024,235.508h4.161a1.68,1.68,0,0,0,0-3.36h-4.161a1.68,1.68,0,0,0,0,3.36Z"/>
      <path id="Trazado_151247" data-name="Trazado 151247" d="M297.321,295.64H274.185v-4.7h19.488a4.03,4.03,0,0,0,3.89-5.087l-6.382-23.515a4.039,4.039,0,0,0-3.89-2.976H248.356a4.039,4.039,0,0,0-3.89,2.976l-3.165,11.66v-25.51l6.626,3.826a13.7,13.7,0,0,0,6.832,1.819,13.553,13.553,0,0,0,3.576-.478,1.689,1.689,0,0,0,1.177-2.063,13.532,13.532,0,0,0-6.349-8.28l-11.694-6.752V223.136a13.534,13.534,0,0,0-4-9.644,1.68,1.68,0,0,0-2.369-.007,13.709,13.709,0,0,0-4.043,9.684v13.416l-11.646,6.724a13.53,13.53,0,0,0-6.351,8.288,1.679,1.679,0,0,0,1.178,2.055,13.559,13.559,0,0,0,3.576.478,13.7,13.7,0,0,0,6.832-1.819l6.579-3.8v15.466a1.68,1.68,0,1,0,3.36,0v-17.4l1.7-.983,1.656.956v49.095h-3.359V279.1a1.68,1.68,0,1,0-3.36,0v16.545H214.68a1.68,1.68,0,1,0,0,3.359h82.641a1.68,1.68,0,0,0,0-3.36Zm-58.638-56.049a2.421,2.421,0,1,1-2.421-2.421A2.423,2.423,0,0,1,238.683,239.591Zm16.955,11.143a10.328,10.328,0,0,1-6.031-1.333l-9.511-5.49a5.782,5.782,0,0,0,1.837-3.206l9.55,5.513A10.177,10.177,0,0,1,255.638,250.734Zm-19.361-33.455a10.186,10.186,0,0,1,1.833,5.857v10.979a5.769,5.769,0,0,0-3.7,0V223.169A10.339,10.339,0,0,1,236.277,217.279ZM222.965,249.4a10.329,10.329,0,0,1-6.033,1.333,10.183,10.183,0,0,1,4.156-4.516l9.507-5.489a5.782,5.782,0,0,0,1.851,3.2Zm32.293,38.177.82-6.047h10.051v6.047Zm-13.284,0a.673.673,0,0,1-.648-.848l1.411-5.2h9.951l-.821,6.047Zm3.316-15.453h8.674l-.82,6.047h-9.495Zm20.839-9.406v6.047H257.81l.821-6.047Zm10.858,0,.82,6.047h-8.319v-6.047ZM292,278.172h-9.525l-.821-6.047h8.7Zm-12.915,0h-9.6v-6.047h8.775Zm-12.955-6.047v6.047h-9.6l.82-6.047Zm3.359,9.406h10.051l.821,6.047H269.488Zm24.719,5.783a.659.659,0,0,1-.534.264H283.75l-.82-6.047h9.981l1.41,5.2a.659.659,0,0,1-.114.584Zm-6.268-24.1,1.507,5.552H281.2l-.82-6.047h6.914a.672.672,0,0,1,.648.495Zm-39.583-.495h6.885l-.821,6.047H246.2l1.507-5.552A.673.673,0,0,1,248.356,262.719ZM241.3,290.881a4.058,4.058,0,0,0,.673.056h19.445v4.7H241.3Zm23.478,4.759v-4.7h6.047v4.7Z"/>
      <path id="Trazado_151248" data-name="Trazado 151248" d="M232.9,273.216a1.68,1.68,0,1,0-1.188-.492A1.683,1.683,0,0,0,232.9,273.216Z"/>
    </g>
  </g>
</svg>
