<svg xmlns="http://www.w3.org/2000/svg" width="86.266" height="86" viewBox="0 0 86.266 86">
  <g id="Grupo_94439" data-name="Grupo 94439" transform="translate(6055 7861)">
    <g id="Grupo_94552" data-name="Grupo 94552" transform="translate(-6266.371 -8073.276)">
      <g id="Grupo_94550" data-name="Grupo 94550">
        <g id="Grupo_94545" data-name="Grupo 94545">
          <path id="Trazado_151269" data-name="Trazado 151269" d="M254.486,227.934a16.581,16.581,0,0,0,4.536,6.514,29.371,29.371,0,0,0-8.284-1.176,28.006,28.006,0,0,0-26.4,17.98l5.533,1.383L217.42,265.083l-4.149-16.6,5.532,1.383a33.6,33.6,0,0,1,31.935-22.129A37.2,37.2,0,0,1,254.486,227.934Z" fill="#ffeaa7"/>
        </g>
        <g id="Grupo_94546" data-name="Grupo 94546">
          <circle id="Elipse_5048" data-name="Elipse 5048" cx="15.214" cy="15.214" r="15.214" transform="translate(235.4 247.103)" fill="#69d6f4"/>
        </g>
        <g id="Grupo_94547" data-name="Grupo 94547">
          <path id="Trazado_151270" data-name="Trazado 151270" d="M283.807,259.55l4.149,16.6-5.532-1.383a33.6,33.6,0,0,1-31.935,22.129,34.55,34.55,0,0,1-33.069-24.051l5.27-1.688a29.023,29.023,0,0,0,27.8,20.207,28.009,28.009,0,0,0,26.4-17.98L271.359,272Z" fill="#ffeaa7"/>
        </g>
        <g id="Grupo_94548" data-name="Grupo 94548">
          <path id="Trazado_151271" data-name="Trazado 151271" d="M278.275,241.515a13.834,13.834,0,0,1,10.718-13.485l7.261-1.673v7.8a11.063,11.063,0,0,1-8.575,10.774l-9.4,2.172Z" fill="#a0d468"/>
        </g>
        <g id="Grupo_94549" data-name="Grupo 94549">
          <path id="Trazado_151272" data-name="Trazado 151272" d="M278.275,240.188l-11.023-1.84a16.6,16.6,0,0,1-13.872-16.375v-8.064l11.023,1.84a16.592,16.592,0,0,1,13.872,16.375Z" fill="#b4dd7f"/>
        </g>
      </g>
      <g id="Grupo_94551" data-name="Grupo 94551">
        <path id="Trazado_151273" data-name="Trazado 151273" d="M267.21,262.316a16.6,16.6,0,1,0-16.6,16.6A16.615,16.615,0,0,0,267.21,262.316Zm-30.427,0a13.815,13.815,0,0,1,.637-4.149h5.226a26.136,26.136,0,0,0,0,8.3h-5.225A13.759,13.759,0,0,1,236.783,262.316Zm8.3,0a22.268,22.268,0,0,1,.386-4.149h10.289a22.016,22.016,0,0,1,.39,4.149,22.271,22.271,0,0,1-.386,4.15H245.471a22.02,22.02,0,0,1-.39-4.15Zm5.528-13.5a15.023,15.023,0,0,1,4.408,6.583H246.2a14.858,14.858,0,0,1,4.409-6.583Zm13.835,13.5a13.786,13.786,0,0,1-.638,4.15H258.58a26.1,26.1,0,0,0,0-8.3H263.8a13.753,13.753,0,0,1,.639,4.149Zm-9.417,6.916a14.851,14.851,0,0,1-4.409,6.583,15.006,15.006,0,0,1-4.408-6.583Zm-.317,6.3a18.921,18.921,0,0,0,3.221-6.3h4.642a13.885,13.885,0,0,1-7.863,6.3Zm7.863-20.126h-4.642a18.967,18.967,0,0,0-3.221-6.3A13.89,13.89,0,0,1,262.573,255.4Zm-16.056-6.3a18.918,18.918,0,0,0-3.221,6.3h-4.642a13.89,13.89,0,0,1,7.863-6.3Zm-7.863,20.127H243.3a18.932,18.932,0,0,0,3.221,6.3,13.885,13.885,0,0,1-7.863-6.3Z"/>
        <path id="Trazado_151274" data-name="Trazado 151274" d="M268.654,272.747l6.322,1.581a26.586,26.586,0,0,1-24.487,15.65,27.655,27.655,0,0,1-26.481-19.244l-.421-1.32-7.9,2.533.42,1.315a35.921,35.921,0,0,0,34.386,25.014A35.161,35.161,0,0,0,283.266,276.4l6.59,1.647-5.3-21.2Zm12.907.375-.433,1.157a32.03,32.03,0,0,1-30.639,21.231,33.172,33.172,0,0,1-31.3-21.781l2.637-.845a30.418,30.418,0,0,0,28.667,19.86,29.37,29.37,0,0,0,27.686-18.849l.589-1.471-4.7-1.176,8.992-8.992,3,11.991Z"/>
        <path id="Trazado_151275" data-name="Trazado 151275" d="M288.685,226.683a15.167,15.167,0,0,0-9.027,6.062v-.629a17.922,17.922,0,0,0-15.024-17.734L252,212.276v9.7a18.118,18.118,0,0,0,.557,4.425c-.607-.03-1.214-.048-1.816-.048a35.159,35.159,0,0,0-32.777,21.876l-6.59-1.647,5.3,21.2,15.9-15.9-6.322-1.58a26.584,26.584,0,0,1,24.486-15.65,28.23,28.23,0,0,1,7.6,1.047,17.961,17.961,0,0,0,8.679,4.013l9.871,1.644V255.4h2.766v-7.2l8.33-1.923a12.391,12.391,0,0,0,9.649-12.129v-9.534Zm-65.633,24.054-.589,1.472,4.7,1.176-8.992,8.992-3-11.991,4.495,1.125.432-1.157a32.027,32.027,0,0,1,30.638-21.231c.927,0,1.863.05,2.795.126a17.849,17.849,0,0,0,1.646,2.958,31.318,31.318,0,0,0-4.441-.318,29.367,29.367,0,0,0-27.686,18.848Zm31.711-28.757v-6.437l9.417,1.57a15.163,15.163,0,0,1,12.712,15v4.732l-14.236-14.236-1.956,1.956,13.544,13.544-6.77-1.129A15.163,15.163,0,0,1,254.763,221.98Zm40.108,12.172a9.633,9.633,0,0,1-7.5,9.432l-4.7,1.086,7.654-7.654-1.956-1.955-8.7,8.7v-2.256a12.391,12.391,0,0,1,9.648-12.129l5.565-1.284Z"/>
      </g>
    </g>
  </g>
</svg>
