<svg xmlns="http://www.w3.org/2000/svg" width="68" height="68" viewBox="0 0 68 68">
  <g id="Grupo_94422" data-name="Grupo 94422" transform="translate(-222 -222)">
    <path id="Trazado_151204" data-name="Trazado 151204" d="M222.181,252.466a34,34,0,0,1,67.638.006,1.293,1.293,0,0,1-1.288,1.425H223.476a1.3,1.3,0,0,1-1.295-1.431Z" fill="#76b6fa"/>
    <path id="Trazado_151205" data-name="Trazado 151205" d="M277.139,234.771h-.664v-.664a1.992,1.992,0,0,0-1.992-1.992H270.5a1.992,1.992,0,0,0-1.992,1.992v.664h-.664a1.992,1.992,0,1,0,0,3.984h9.3a1.992,1.992,0,1,0,0-3.984Zm-2.669,10.458a1.992,1.992,0,0,1-1.992,1.993h-9.3a1.993,1.993,0,0,1,0-3.985h9.3A1.992,1.992,0,0,1,274.47,245.229Zm-14.657-20.538H254.5a1.992,1.992,0,1,0,0,3.984h5.312a1.992,1.992,0,1,0,0-3.984Zm-23.868,18.546h-5.312a1.993,1.993,0,0,0,0,3.985h5.312a1.993,1.993,0,0,0,0-3.985Zm4.649-10.368h-5.313a1.992,1.992,0,1,0,0,3.984h5.313a1.992,1.992,0,1,0,0-3.984Z" fill="#86befb"/>
    <path id="Trazado_151206" data-name="Trazado 151206" d="M278.05,234.771h-.664v-.664a1.992,1.992,0,0,0-1.993-1.992h-1.546a1.992,1.992,0,0,0-1.992,1.992v.664h-.664a1.992,1.992,0,0,0,0,3.984h6.859a1.992,1.992,0,0,0,0-3.984Zm-34.84-1.9H237.9a1.992,1.992,0,1,0,0,3.984h5.313a1.992,1.992,0,0,0,0-3.984Z" fill="#a7d0fc"/>
    <path id="Trazado_151207" data-name="Trazado 151207" d="M246.367,280.978,232.084,266.7a1.327,1.327,0,0,1-.189-1.639l19.965-32.188L280.193,261.2l-32.187,19.966a1.328,1.328,0,0,1-1.639-.19Z" fill="#c8e2fd"/>
    <path id="Trazado_151208" data-name="Trazado 151208" d="M235.705,270.316l-3.621-3.62a1.328,1.328,0,0,1-.189-1.64l19.965-32.187,3.621,3.621-19.966,32.187a1.327,1.327,0,0,0,.19,1.639Z" fill="#a7d0fc"/>
    <path id="Trazado_151209" data-name="Trazado 151209" d="M282.4,262.828a1.33,1.33,0,0,1-1.879,0l-30.283-30.284a1.328,1.328,0,1,1,1.878-1.878L282.4,260.949A1.33,1.33,0,0,1,282.4,262.828Z" fill="#e9f3fe"/>
    <path id="Trazado_151210" data-name="Trazado 151210" d="M222,256.361a34.344,34.344,0,0,1,.185-3.947h.034a12.191,12.191,0,0,0,5.734-1.383,5.748,5.748,0,0,1,5.422,0,12.191,12.191,0,0,0,5.734,1.383q.32,0,.635-.015c.236-.012.469,3.243.7,3.219a11.919,11.919,0,0,0,4.4-1.315,5.746,5.746,0,0,1,5.421,0,12.578,12.578,0,0,0,11.468,0,5.746,5.746,0,0,1,5.421,0,12.194,12.194,0,0,0,5.734,1.383c.317,0,.63-3.283.939-3.306a12,12,0,0,0,4.795-1.349,5.748,5.748,0,0,1,5.422,0,12.191,12.191,0,0,0,5.734,1.383h.034A34.25,34.25,0,0,1,290,256a33.862,33.862,0,0,1-3.273,14.573,1.455,1.455,0,0,1-1.894.714q-.42-.183-.815-.395a5.708,5.708,0,0,0-5.4.014,12.578,12.578,0,0,1-11.468,0,5.746,5.746,0,0,0-5.421,0,12.578,12.578,0,0,1-11.468,0,5.746,5.746,0,0,0-5.421,0,12.58,12.58,0,0,1-11.469,0,5.7,5.7,0,0,0-5.388-.018q-.407.219-.84.408a1.459,1.459,0,0,1-1.9-.719A34,34,0,0,1,222,256.361Z" fill="#0956c6"/>
    <path id="Trazado_151211" data-name="Trazado 151211" d="M225.209,270.489a11.572,11.572,0,0,0,2.746-1.034,5.787,5.787,0,0,1,5.446.013,12.589,12.589,0,0,0,11.444-.013,5.746,5.746,0,0,1,5.421,0,12.586,12.586,0,0,0,11.468,0,5.746,5.746,0,0,1,5.421,0,12.59,12.59,0,0,0,11.45.01,5.775,5.775,0,0,1,5.44-.01,11.562,11.562,0,0,0,2.725,1.029,34.143,34.143,0,0,1-12.486,14.186,6.664,6.664,0,0,1-6.1.593,11.246,11.246,0,0,1-1.062-.5,5.692,5.692,0,0,0-5.384.02,12.589,12.589,0,0,1-11.422.024,5.824,5.824,0,0,0-5.467-.024,11.186,11.186,0,0,1-1.055.493,6.7,6.7,0,0,1-6.115-.6,33.962,33.962,0,0,1-12.466-14.188Z" fill="#0a4499"/>
    <path id="Trazado_151212" data-name="Trazado 151212" d="M272.889,284.68a13.029,13.029,0,0,0,1.516-.088,34.111,34.111,0,0,1-36.873-.007,13,13,0,0,0,1.579.1,12.208,12.208,0,0,0,5.734-1.382,5.746,5.746,0,0,1,5.421,0,12.586,12.586,0,0,0,11.468,0,5.746,5.746,0,0,1,5.421,0,12.208,12.208,0,0,0,5.734,1.382Z" fill="#0a3575"/>
    <path id="Trazado_151213" data-name="Trazado 151213" d="M280.193,261.2l-32.187,19.966a1.328,1.328,0,0,1-1.639-.19l-11.051-11.051a1.638,1.638,0,0,1-.295-1.916c1.969-3.775,8.576-16.314,9.824-16.98a5.746,5.746,0,0,1,5.421,0,12.586,12.586,0,0,0,11.4.035,5.837,5.837,0,0,1,5.472-.043,11.641,11.641,0,0,0,3.09,1.117,3.9,3.9,0,0,1,1.956,1.056Z" fill="#5596fb"/>
    <path id="Trazado_151214" data-name="Trazado 151214" d="M235.7,270.315l-3.619-3.619a1.33,1.33,0,0,1-.19-1.64l7.852-12.658a12.067,12.067,0,0,0,5.1-1.367,5.754,5.754,0,0,1,2.011-.637l-11.341,18.283A1.328,1.328,0,0,0,235.7,270.315Z" fill="#2476ed"/>
    <path id="Trazado_151215" data-name="Trazado 151215" d="M282.4,262.828a1.33,1.33,0,0,1-1.879,0l-10.81-10.811a12.8,12.8,0,0,0,3.181.4c.317,0,.63-.012.939-.034l8.569,8.569A1.33,1.33,0,0,1,282.4,262.828Z" fill="#2476ed"/>
    <path id="Trazado_151216" data-name="Trazado 151216" d="M251.219,272.535a10.421,10.421,0,0,1-5.313-5.04,10.421,10.421,0,0,1,5.313-5.04Z" fill="#ffa90b"/>
    <path id="Trazado_151217" data-name="Trazado 151217" d="M263.172,258.072v10.08a12,12,0,0,1-3.9-2.845,12.69,12.69,0,0,1-10.045,4.446c-5.333,0-9.838-2.8-11.286-6.641,1.448-3.84,5.953-6.641,11.286-6.641a12.69,12.69,0,0,1,10.045,4.446,12,12,0,0,1,3.9-2.845Z" fill="#ffc14f"/>
    <path id="Trazado_151218" data-name="Trazado 151218" d="M238.018,262.908c1.528-3.735,5.967-6.437,11.205-6.437s9.677,2.7,11.205,6.437a20.93,20.93,0,0,1-22.41,0Z" fill="#ffcd71"/>
    <path id="Trazado_151219" data-name="Trazado 151219" d="M250.829,264.507a3.364,3.364,0,0,1-3.046-1.395,4.025,4.025,0,0,1,6.092,0A3.366,3.366,0,0,1,250.829,264.507Z" fill="#ffb52d"/>
    <path id="Trazado_151220" data-name="Trazado 151220" d="M237.937,263.112a9.569,9.569,0,0,1,3.981-4.635,9.569,9.569,0,0,1,3.981,4.635,9.569,9.569,0,0,1-3.981,4.635A9.569,9.569,0,0,1,237.937,263.112Z" fill="#ffcd71"/>
    <path id="Trazado_151221" data-name="Trazado 151221" d="M241.918,258.477a9.569,9.569,0,0,1,3.981,4.635,8.556,8.556,0,0,1-1.518,2.535,16.88,16.88,0,0,1-6.363-2.739,9.644,9.644,0,0,1,3.9-4.431Z" fill="#ffe7c0"/>
    <path id="Trazado_151222" data-name="Trazado 151222" d="M243.1,265.209a.665.665,0,0,1-.939,0l-.235-.235-.235.235a.664.664,0,0,1-.939-.939l.235-.235-.235-.235a.664.664,0,1,1,.939-.939l.235.235.235-.235a.664.664,0,1,1,.939.939l-.235.235.235.235A.665.665,0,0,1,243.1,265.209Z" fill="#ffa90b"/>
  </g>
</svg>
