<svg xmlns="http://www.w3.org/2000/svg" width="62.332" height="65" viewBox="0 0 62.332 65">
  <g id="Grupo_94420" data-name="Grupo 94420" transform="translate(-224.834 -223.5)">
    <path id="Trazado_151127" data-name="Trazado 151127" d="M285.923,256.032c0,3.365,1.951,7,.965,10.035-1.022,3.147-4.771,4.932-6.678,7.553-1.925,2.645-2.477,6.755-5.123,8.681-2.62,1.907-6.69,1.175-9.838,2.2-3.036.987-5.884,4-9.248,4s-6.213-3.016-9.25-4c-3.147-1.021-7.218-.289-9.837-2.2-2.645-1.926-3.2-6.036-5.124-8.681-1.906-2.621-5.656-4.406-6.678-7.553-.985-3.036.967-6.67.967-10.035s-1.952-7-.967-10.036c1.022-3.147,4.772-4.932,6.678-7.551,1.925-2.647,2.479-6.757,5.124-8.682,2.619-1.906,6.69-1.175,9.837-2.2,3.037-.985,5.884-4,9.25-4s6.212,3.018,9.248,4l.045.015a4.123,4.123,0,0,1,2.553,5.6l-3.2,7.192,3.929,4.792,10.707-4.213a4.117,4.117,0,0,1,4.224.744,10.377,10.377,0,0,1,3.378,4.3c.986,3.036-.965,6.671-.965,10.036Z" fill="#e1f1f3"/>
    <g id="Grupo_94477" data-name="Grupo 94477">
      <path id="Trazado_151128" data-name="Trazado 151128" d="M272.855,231.082a1,1,0,0,1-.346-.062,1.012,1.012,0,0,1-.605-1.3l2.027-5.556a1.013,1.013,0,1,1,1.9.694l-2.027,5.556A1.013,1.013,0,0,1,272.855,231.082Z" fill="#da455f"/>
      <path id="Trazado_151129" data-name="Trazado 151129" d="M276.049,234.086a1.013,1.013,0,0,1-.681-1.763l8.245-7.485a1.013,1.013,0,0,1,1.361,1.5l-8.245,7.485a1.008,1.008,0,0,1-.68.263Z" fill="#da455f"/>
      <path id="Trazado_151130" data-name="Trazado 151130" d="M279.4,237.68a1.012,1.012,0,0,1-.408-1.939l5.981-2.638a1.013,1.013,0,0,1,.817,1.854l-5.981,2.637A1.022,1.022,0,0,1,279.4,237.68Z" fill="#da455f"/>
    </g>
    <circle id="Elipse_5037" data-name="Elipse 5037" cx="24.166" cy="24.166" r="24.166" transform="translate(231.835 231.866)" fill="#85ccf8"/>
    <path id="Trazado_151131" data-name="Trazado 151131" d="M260.2,279.834a24.166,24.166,0,1,1,0-47.605,24.17,24.17,0,0,0,0,47.605Z" fill="#75b3da"/>
    <path id="Trazado_151132" data-name="Trazado 151132" d="M273.974,239.879a24.166,24.166,0,0,1-3.217,35.29c-1.892-4.9-3.855-10.574-3.855-13,0-4.672,4.672-4.672,4.672-8.026s-2.995-5.031-2.995-8.984c0-2.4,2.331-4.219,5.395-5.284Z" fill="#f1d05f"/>
    <path id="Trazado_151133" data-name="Trazado 151133" d="M245.459,256.543c0,5.271,9.584,6.469,2.636,15.813-.223.3-.453.588-.687.865a17,17,0,0,1-3.988,3.447,24.17,24.17,0,0,1-5.221-36.979h0a40.4,40.4,0,0,1,7.8.668c3.876.792,7.366,2.5,7.366,6.123,0,6.229-7.907,4.792-7.907,10.062Z" fill="#f1d05f"/>
    <path id="Trazado_151134" data-name="Trazado 151134" d="M247.408,273.221a17,17,0,0,1-3.988,3.447,24.17,24.17,0,0,1-5.221-36.979h0a40.4,40.4,0,0,1,7.8.668,24.166,24.166,0,0,0,1.408,32.863Z" fill="#ecbb4d"/>
  </g>
</svg>
