<svg xmlns="http://www.w3.org/2000/svg" width="68" height="68" viewBox="0 0 68 68">
  <g id="Grupo_94419" data-name="Grupo 94419" transform="translate(-222 -222)">
    <path id="Trazado_151135" data-name="Trazado 151135" d="M228,256a28.031,28.031,0,0,0,28,28l1.333-28L256,228A28.031,28.031,0,0,0,228,256Z" fill="#dff1f9"/>
    <path id="Trazado_151136" data-name="Trazado 151136" d="M284,256a28.031,28.031,0,0,0-28-28v56A28.031,28.031,0,0,0,284,256Z" fill="#c2e9f8"/>
    <path id="Trazado_151137" data-name="Trazado 151137" d="M247.768,251.45a12.068,12.068,0,0,0,1.7,14.914L254,270.9l2-12.9,1.333-7.2L256,238.279Z" fill="#23c53d"/>
    <path id="Trazado_151138" data-name="Trazado 151138" d="M264.232,251.45a12.068,12.068,0,0,1-1.7,14.914L258,270.9,256,258V238.279Z" fill="#20a133"/>
    <path id="Trazado_151139" data-name="Trazado 151139" d="M254,258v23.923l1,1.391L256,282l1.333-12L256,258Z" fill="#a2e82e"/>
    <path id="Trazado_151140" data-name="Trazado 151140" d="M258,281.923V258h-2v24l1,1.314Z" fill="#23c53d"/>
    <path id="Trazado_151141" data-name="Trazado 151141" d="M222,256a33.789,33.789,0,0,0,4.545,17.006l4.255-.062L233.489,269A25.99,25.99,0,0,1,256,230l2-4-2-4A33.983,33.983,0,0,0,222,256Z" fill="#a2e82e"/>
    <path id="Trazado_151142" data-name="Trazado 151142" d="M282,256a25.838,25.838,0,0,1-3.489,13L281,272.9l4.455.108A34.019,34.019,0,0,0,256,222v8a26.029,26.029,0,0,1,26,26Z" fill="#23c53d"/>
    <path id="Trazado_151143" data-name="Trazado 151143" d="M233.489,269l-6.944,4.009A33.943,33.943,0,0,0,256,290l1.333-4L256,282A26.013,26.013,0,0,1,233.489,269Z" fill="#23c53d"/>
    <path id="Trazado_151144" data-name="Trazado 151144" d="M285.455,273.006,278.511,269A26.013,26.013,0,0,1,256,282v8a33.969,33.969,0,0,0,29.455-16.994Z" fill="#20a133"/>
  </g>
</svg>
