<svg xmlns="http://www.w3.org/2000/svg" width="63.513" height="86" viewBox="0 0 63.513 86">
  <g id="Grupo_95542" data-name="Grupo 95542" transform="translate(-224.244 -213)">
    <g id="Grupo_94606" data-name="Grupo 94606">
      <path id="Trazado_151371" data-name="Trazado 151371" d="M231.459,254.967a2.526,2.526,0,1,0-2.893,3.03,5.075,5.075,0,0,1,2.893-3.03Z" fill="#883f2e"/>
      <path id="Trazado_151372" data-name="Trazado 151372" d="M247.7,267.427v-6.946a5.1,5.1,0,0,1-1.268.16h-1.117a5.115,5.115,0,0,1-5.1-5.1v-.526c0-.139.007-.277.018-.413h-6.881a5.063,5.063,0,0,0-5.064,5.063v7.763H247.7Z" fill="#bb5d4c"/>
      <path id="Trazado_151373" data-name="Trazado 151373" d="M232.485,267.427v-7.762a5.064,5.064,0,0,1,5.063-5.064h-4.2a5.064,5.064,0,0,0-5.064,5.064v7.762Z" fill="#a44f3e"/>
      <g id="Grupo_94604" data-name="Grupo 94604">
        <path id="Trazado_151374" data-name="Trazado 151374" d="M241.017,252.274a5.119,5.119,0,0,1,3.516-2.3v-.025a2.526,2.526,0,1,0-3.517,2.325Z" fill="#bb5d4c"/>
        <path id="Trazado_151375" data-name="Trazado 151375" d="M249.825,247.422a2.527,2.527,0,0,0-2.526,2.527c0,.014,0,.028,0,.042a5.128,5.128,0,0,1,3.44,2.311,2.526,2.526,0,0,0-.916-4.88Z" fill="#bb5d4c"/>
      </g>
      <g id="Grupo_94605" data-name="Grupo 94605">
        <path id="Trazado_151376" data-name="Trazado 151376" d="M246.428,260.641h-1.117a5.115,5.115,0,0,1-5.1-5.1v-.525a5.116,5.116,0,0,1,5.1-5.1h1.117a5.116,5.116,0,0,1,5.1,5.1v.525A5.115,5.115,0,0,1,246.428,260.641Z" fill="#883f2e"/>
      </g>
    </g>
    <g id="Grupo_94612" data-name="Grupo 94612">
      <g id="Grupo_94608" data-name="Grupo 94608">
        <path id="Trazado_151377" data-name="Trazado 151377" d="M275.331,258.932l1.235,2.14a.336.336,0,0,1-.291.5h-2.759v5.851h4.054v-8.495Z" fill="#ffbd86"/>
        <path id="Trazado_151378" data-name="Trazado 151378" d="M286.206,258.428l-3.652-6.327a.336.336,0,0,1,.291-.5h1.679a.335.335,0,0,0,.291-.5l-4.518-7.826a.336.336,0,0,1,.291-.5h1.457a.336.336,0,0,0,.291-.5L275.834,231a.336.336,0,0,0-.582,0l-5.292,9.167L272.7,244.9a.336.336,0,0,1-.291.5h-1.458a.336.336,0,0,0-.291.5l4.518,7.825a.336.336,0,0,1-.29.5H273.2a.336.336,0,0,0-.291.5l2.418,4.187h10.585a.336.336,0,0,0,.29-.5Z" fill="#00c285"/>
        <g id="Grupo_94607" data-name="Grupo 94607">
          <path id="Trazado_151379" data-name="Trazado 151379" d="M272.7,244.9a.336.336,0,0,1-.291.5h-1.457a.336.336,0,0,0-.291.5l2.15,3.724,3.676-6.368a.336.336,0,0,0-.291-.5h-1.457a.336.336,0,0,1-.291-.5l3.946-6.835L275.834,231a.336.336,0,0,0-.582,0l-5.292,9.167Z" fill="#07b27b"/>
        </g>
      </g>
      <g id="Grupo_94611" data-name="Grupo 94611">
        <path id="Trazado_151380" data-name="Trazado 151380" d="M263.876,261.576h4.054v5.851h-4.054Z" fill="#ffbd86"/>
        <g id="Grupo_94609" data-name="Grupo 94609">
          <path id="Trazado_151381" data-name="Trazado 151381" d="M276.566,261.072l-3.653-6.327a.336.336,0,0,1,.291-.5h1.68a.336.336,0,0,0,.29-.5l-4.518-7.825a.336.336,0,0,1,.291-.5H272.4a.336.336,0,0,0,.291-.5l-6.5-11.262a.336.336,0,0,0-.582,0l-6.5,11.262a.336.336,0,0,0,.291.5h1.457a.336.336,0,0,1,.291.5l-4.518,7.825a.336.336,0,0,0,.291.5h1.68a.336.336,0,0,1,.29.5l-3.652,6.327a.336.336,0,0,0,.291.5h20.744a.336.336,0,0,0,.291-.5Z" fill="#1ee6a6"/>
        </g>
        <g id="Grupo_94610" data-name="Grupo 94610">
          <path id="Trazado_151382" data-name="Trazado 151382" d="M260.917,261.072l3.653-6.327a.336.336,0,0,0-.291-.5H262.6a.336.336,0,0,1-.291-.5l4.518-7.825a.336.336,0,0,0-.29-.5h-1.458a.336.336,0,0,1-.291-.5l3.954-6.849-2.547-4.413a.336.336,0,0,0-.582,0l-6.5,11.262a.336.336,0,0,0,.291.5h1.457a.336.336,0,0,1,.291.5l-4.518,7.825a.336.336,0,0,0,.291.5h1.68a.336.336,0,0,1,.291.5l-3.653,6.327a.336.336,0,0,0,.291.5h5.677a.336.336,0,0,1-.291-.5Z" fill="#0ed290"/>
        </g>
      </g>
    </g>
    <path id="Trazado_151383" data-name="Trazado 151383" d="M229.889,228.718h.947c0-.06-.005-.122-.005-.183a4.041,4.041,0,0,1,6.58-3.145,5.341,5.341,0,0,1,3.317-3.2,7.072,7.072,0,1,0-10.839,6.526Z" fill="#fbd74c"/>
    <path id="Trazado_151384" data-name="Trazado 151384" d="M229.889,228.718h.947c0-.06-.005-.122-.005-.183a4.029,4.029,0,0,1,.817-2.437,7.076,7.076,0,0,1,4.13-10.106,7.073,7.073,0,0,0-5.889,12.726Z" fill="#fac600"/>
    <g id="Grupo_94613" data-name="Grupo 94613">
      <path id="Trazado_151385" data-name="Trazado 151385" d="M249.295,228.718h-1.769a5.328,5.328,0,0,0-10.115-3.328,4.041,4.041,0,0,0-6.58,3.145c0,.062,0,.123.005.184h-2.485a2.848,2.848,0,1,0,0,5.7h20.944a2.848,2.848,0,0,0,0-5.7Z" fill="#b3dafe"/>
    </g>
    <g id="Grupo_94614" data-name="Grupo 94614">
      <path id="Trazado_151386" data-name="Trazado 151386" d="M242.4,221.921a5.329,5.329,0,0,0-4.994,3.469,4.041,4.041,0,0,0-6.58,3.145c0,.062,0,.123.005.184h-2.409a2.9,2.9,0,0,0-2.915,2.63,2.849,2.849,0,0,0,1.578,2.765,2.857,2.857,0,0,1,2.7-1.949H231.5a.836.836,0,0,0,.826-.695,4.174,4.174,0,0,1,3.983-3.531,4.012,4.012,0,0,1,1.81.428.844.844,0,0,0,1.111-.341,5.327,5.327,0,0,1,8.5-.976,5.327,5.327,0,0,0-5.323-5.129Z" fill="#8ac9fe"/>
    </g>
    <g id="Grupo_94615" data-name="Grupo 94615">
      <path id="Trazado_151387" data-name="Trazado 151387" d="M267.6,219.658h1.4a4.231,4.231,0,0,1,8.032-2.643,3.21,3.21,0,0,1,5.226,2.5c0,.049,0,.1,0,.146h1.973a2.261,2.261,0,1,1,0,4.523H267.605a2.261,2.261,0,1,1,0-4.523Z" fill="#b3dafe"/>
    </g>
    <g id="Grupo_94617" data-name="Grupo 94617">
      <g id="Grupo_94616" data-name="Grupo 94616">
        <path id="Trazado_151388" data-name="Trazado 151388" d="M269.631,223a2.316,2.316,0,0,1,2.31-1.925h.338a.841.841,0,0,0,.837-.9c-.006-.089-.009-.178-.009-.268a4.232,4.232,0,0,1,3.227-4.11,4.228,4.228,0,0,0-7.325,3.86h-1.345a2.3,2.3,0,0,0-2.3,1.986,2.268,2.268,0,0,0,2.245,2.537h2.168a2.232,2.232,0,0,1-.141-1.181Z" fill="#8ac9fe"/>
      </g>
    </g>
    <g id="Grupo_94622" data-name="Grupo 94622">
      <g id="Grupo_94618" data-name="Grupo 94618">
        <path id="Trazado_151389" data-name="Trazado 151389" d="M225.871,267.427a30.313,30.313,0,1,0,60.626,0Z" fill="#1e9efd"/>
      </g>
      <g id="Grupo_94619" data-name="Grupo 94619">
        <path id="Trazado_151390" data-name="Trazado 151390" d="M250.4,294.861a30.314,30.314,0,0,1-17.406-27.434h-7.118a30.314,30.314,0,0,0,30.313,30.314,8.084,8.084,0,0,1-5.789-2.88Z" fill="#0182fc"/>
      </g>
      <g id="Grupo_94620" data-name="Grupo 94620">
        <path id="Trazado_151391" data-name="Trazado 151391" d="M242.589,267.427c0,16.742,6.087,30.314,13.595,30.314s13.6-13.572,13.6-30.314Z" fill="#1ee6a6"/>
      </g>
      <g id="Grupo_94621" data-name="Grupo 94621">
        <path id="Trazado_151392" data-name="Trazado 151392" d="M248.295,267.427h-5.706c0,16.742,6.087,30.314,13.595,30.314a6.591,6.591,0,0,0,2.853-.671c-6.139-2.923-10.742-15.083-10.742-29.643Z" fill="#0ed290"/>
      </g>
    </g>
    <g id="Grupo_94623" data-name="Grupo 94623">
      <path id="Trazado_151393" data-name="Trazado 151393" d="M253.612,216.736h3.307a1.259,1.259,0,1,0,0-2.519h-3.307a1.259,1.259,0,1,0,0,2.519Z"/>
      <path id="Trazado_151394" data-name="Trazado 151394" d="M257.5,226.769a1.26,1.26,0,0,0,1.26,1.26h3.307a1.26,1.26,0,1,0,0-2.519h-3.307A1.26,1.26,0,0,0,257.5,226.769Z"/>
      <path id="Trazado_151395" data-name="Trazado 151395" d="M281.353,227.954a1.26,1.26,0,1,0,0,2.52h3.307a1.26,1.26,0,1,0,0-2.52Z"/>
      <path id="Trazado_151396" data-name="Trazado 151396" d="M224.244,231.566a4.111,4.111,0,0,0,4.107,4.107h7.661a1.259,1.259,0,1,0,0-2.519h-7.661a1.588,1.588,0,0,1,0-3.176h2.485a1.26,1.26,0,0,0,1.258-1.316c0-.042,0-.085,0-.127a2.785,2.785,0,0,1,2.782-2.783,2.747,2.747,0,0,1,1.746.618,1.26,1.26,0,0,0,1.973-.541,4.068,4.068,0,0,1,7.723,2.542,1.259,1.259,0,0,0,1.211,1.607h1.769a1.588,1.588,0,0,1,0,3.176h-7.4a1.259,1.259,0,1,0,0,2.519h7.4a4.108,4.108,0,0,0,0-8.215h-.3q0-.1,0-.21a6.6,6.6,0,0,0-6.588-6.587,6.39,6.39,0,0,0-.651.036,8.331,8.331,0,1,0-14.772,7,4.113,4.113,0,0,0-2.738,3.872Zm9.435-14.632a5.823,5.823,0,0,1,5.66,4.493,6.639,6.639,0,0,0-2.441,2.209,5.3,5.3,0,0,0-7.115,3.418,5.808,5.808,0,0,1,3.9-10.12Z"/>
      <path id="Trazado_151397" data-name="Trazado 151397" d="M267.6,225.441h7.713a1.26,1.26,0,1,0,0-2.52H267.6a1,1,0,0,1,0-2h1.4a1.26,1.26,0,0,0,1.211-1.607,2.971,2.971,0,0,1,5.64-1.856,1.261,1.261,0,0,0,1.973.54,1.925,1.925,0,0,1,1.224-.432,1.952,1.952,0,0,1,1.95,1.949c0,.031,0,.061,0,.091a1.261,1.261,0,0,0,1.259,1.315h1.973a1,1,0,1,1,0,2H281.2a1.26,1.26,0,1,0,0,2.52h3.04a3.521,3.521,0,0,0,0-7.042h-.85a4.466,4.466,0,0,0-5.839-3.092,5.49,5.49,0,0,0-9.962,3.092,3.521,3.521,0,0,0,.019,7.042Z"/>
      <path id="Trazado_151398" data-name="Trazado 151398" d="M286.5,266.168H278.83v-5.976h7.086A1.6,1.6,0,0,0,287.3,257.8h0l-2.852-4.941h.079a1.6,1.6,0,0,0,1.382-2.393l-3.721-6.446a1.6,1.6,0,0,0,1.242-2.388l-6.5-11.261a1.6,1.6,0,0,0-2.764,0l-4.2,7.277-2.675-4.633a1.6,1.6,0,0,0-2.764,0l-6.5,11.261a1.6,1.6,0,0,0,1.243,2.388l-3.722,6.445a1.6,1.6,0,0,0,1.382,2.394H257l-2.853,4.941a1.6,1.6,0,0,0,1.382,2.394h7.085v3.332h-13.66v-4.792a6.368,6.368,0,0,0,3.833-5.835v-.526a6.325,6.325,0,0,0-.419-2.267,3.784,3.784,0,1,0-6.1-4.093h-.7a3.785,3.785,0,1,0-6.169,4.03,6.326,6.326,0,0,0-.22.657h-5.828a6.276,6.276,0,0,0-1.179.112,3.784,3.784,0,1,0-5.081,5.325,6.318,6.318,0,0,0-.064.886v6.5h-1.152a1.26,1.26,0,0,0-1.26,1.259A31.584,31.584,0,0,0,269.639,296a1.26,1.26,0,1,0-1.075-2.279A28.8,28.8,0,0,1,262.9,295.7a24.663,24.663,0,0,0,4.792-8.091h9.383a29.186,29.186,0,0,1-3.672,3.22,1.259,1.259,0,1,0,1.494,2.028,31.529,31.529,0,0,0,12.86-25.43,1.26,1.26,0,0,0-1.26-1.26Zm-36.672-17.486a1.265,1.265,0,0,1,1.119,1.859,6.38,6.38,0,0,0-2.089-1.4,1.261,1.261,0,0,1,.97-.455Zm-4.514,2.492h1.117a3.845,3.845,0,0,1,3.841,3.841v.526a3.845,3.845,0,0,1-3.14,3.775v-1.48a1.259,1.259,0,0,0-.13-2.512H244.74a1.259,1.259,0,0,0-.13,2.512v1.48a3.846,3.846,0,0,1-3.14-3.775v-.526a3.845,3.845,0,0,1,3.841-3.841Zm-3.3-2.492a1.26,1.26,0,0,1,.946.428,6.368,6.368,0,0,0-2.1,1.369,1.264,1.264,0,0,1,1.149-1.8Zm-8.66,7.179h5.611a6.369,6.369,0,0,0,6.353,6.04h1.125v4.267h-3.059v-2.315a1.259,1.259,0,1,0-2.519,0v2.315h-6.183v-2.315a1.26,1.26,0,1,0-2.52,0v2.315h-2.612v-6.5a3.808,3.808,0,0,1,3.8-3.8Zm-4.355-1.619a1.253,1.253,0,0,1,.739.24A6.377,6.377,0,0,0,228,256.3a1.265,1.265,0,0,1,.992-2.053Zm-1.834,14.445h14.184c.036,2.037.157,4.02.359,5.932H228.033a28.926,28.926,0,0,1-.875-5.932Zm5.975,16.4a29.041,29.041,0,0,1-4.332-7.952H242.02a52.27,52.27,0,0,0,1.78,7.952Zm2.174,2.52h9.369a24.705,24.705,0,0,0,4.784,8.083A29.053,29.053,0,0,1,235.307,287.61Zm19.434,8.653c-2.569-.77-5.067-3.56-7.021-7.916q-.162-.363-.318-.737h7.339Zm0-11.173h-8.283a48.554,48.554,0,0,1-1.886-7.952h10.169Zm0-10.471h-10.5c-.213-1.925-.341-3.909-.379-5.932h10.881Zm20.8-41.6,4.906,8.5a1.6,1.6,0,0,0-1.243,2.388l3.718,6.439h-.079a1.6,1.6,0,0,0-1.382,2.394l2.853,4.941h-8.258L274.8,255.5h.079a1.6,1.6,0,0,0,1.382-2.394l-3.722-6.446a1.595,1.595,0,0,0,1.243-2.387l-2.372-4.108Zm.767,29.819v3.335h-1.534v-3.333h1.5l.035,0Zm-19.179-2.517,2.853-4.941a1.6,1.6,0,0,0-1.382-2.394h-.08l3.718-6.44A1.6,1.6,0,0,0,261,244.154l4.905-8.5,4.9,8.5a1.6,1.6,0,0,0-1.242,2.387l3.718,6.44H273.2a1.6,1.6,0,0,0-1.382,2.394l2.852,4.941Zm15.126,2.519v3.333h-3.068v-3.333Zm-5.587,0v3.333h-1.534v-3.333Zm-2.022,25.511c-2.047,4.564-4.691,7.408-7.388,8.012V287.61h7.706C264.862,287.858,264.756,288.105,264.648,288.346Zm1.263-3.256H257.26v-7.952H267.8A48.658,48.658,0,0,1,265.911,285.09Zm2.218-10.471H257.26v-5.932h11.248C268.47,270.71,268.342,272.694,268.129,274.619Zm13.884,6.124a29,29,0,0,1-2.767,4.347H268.568a52.293,52.293,0,0,0,1.78-7.952h13.231a29.189,29.189,0,0,1-1.566,3.605Zm2.331-6.124H270.667c.2-1.912.324-3.895.36-5.932h14.184A28.843,28.843,0,0,1,284.344,274.619Z"/>
    </g>
  </g>
</svg>
