<svg xmlns="http://www.w3.org/2000/svg" width="75.29" height="75.301" viewBox="0 0 75.29 75.301">
  <g id="Group_125804" data-name="Group 125804" transform="translate(-922.334 -502.325)">
    <path id="Path_175390" data-name="Path 175390" d="M959.661,537.247l-1.447-5.327h1.016q6.258,0,12.516,0c.959,0,1.509-.372,1.656-1.089.182-.886-.493-1.592-1.566-1.594-3.527-.009-7.055,0-10.583,0-1.064,0-2.129-.021-3.192.011-.444.013-.655-.127-.751-.563-.148-.679-.348-1.346-.557-2.136H971.4a7.3,7.3,0,0,0,.755-.012,1.334,1.334,0,0,0,.019-2.664,7.061,7.061,0,0,0-.756-.012c-4.984,0-9.968-.009-14.951.012a1.086,1.086,0,0,1-1.123-.625,24.042,24.042,0,0,0-1.387-2.023c.257-.019.482-.05.708-.051,1.288-.005,2.576.012,3.864-.008a1.344,1.344,0,1,0-.029-2.677c-1.68-.017-3.362-.051-5.038.022a6.872,6.872,0,0,0-1.76.651c-.454-.485-1.067-1.175-1.717-1.828q-4.117-4.139-8.263-8.25a1.734,1.734,0,0,1-.566-1.393c.037-1.734.014-3.47.014-5.271h56.412c.012.247.036.516.036.785q0,35.031,0,70.062c0,3-2.45,4.977-5.162,4.193a4.011,4.011,0,0,1-2.9-3.888c-.018-2.492,0-4.985-.006-7.477,0-1.5-.4-1.907-1.873-1.907q-4.62,0-9.239,0h-.984c0-1.275.005-2.471,0-3.667-.007-1.251-.467-1.7-1.735-1.709-1.621-.005-3.242,0-4.977,0,0-1.819-.011-3.6.019-5.378,0-.146.28-.285.426-.431.6-.6,1.2-1.213,1.811-1.807.178-.172.391-.415.6-.428.8-.05,1.612-.021,2.513-.021,0,1.26,0,2.454,0,3.649.006,1.265.458,1.725,1.717,1.726q6.341.006,12.683,0c1.264,0,1.724-.459,1.726-1.718q.008-5,0-10c0-1.264-.458-1.723-1.718-1.724q-6.342-.006-12.684,0c-1.266,0-1.718.455-1.724,1.717-.005,1.175,0,2.35,0,3.654-.907,0-1.791.02-2.671-.02-.154-.007-.339-.242-.438-.413-1.756-3.023-5.452-3.009-7.243.02a.906.906,0,0,1-.613.4c-.78.048-1.564.019-2.476.019,0-1.193,0-2.355,0-3.518,0-1.437-.417-1.857-1.839-1.858q-6.256,0-12.515,0c-1.326,0-1.771.441-1.773,1.752q-.006,5,0,10c0,1.213.469,1.688,1.668,1.689q6.384.009,12.767,0c1.211,0,1.682-.471,1.69-1.67s0-2.4,0-3.7c.912,0,1.771-.026,2.625.021.176.009.343.284.5.448a15.359,15.359,0,0,0,1.694,1.69,1.047,1.047,0,0,1,.564.974c-.027,1.615-.01,3.232-.01,4.929-1.7,0-3.313,0-4.93,0-1.362,0-1.786.436-1.79,1.82,0,1.092-.005,2.184-.009,3.276a1.373,1.373,0,0,1-.047.22H941.224V533.9c3.555,3.157,8.149,3.346,12.292,4.732.4.133.816.2,1.21.343a22.278,22.278,0,0,0,7.926,1.035c5.655-.073,11.312-.021,16.968-.022,1.472,0,1.873-.41,1.875-1.907,0-1.117,0-2.234,0-3.47h.93q4.032,0,8.063,0c1.311,0,1.758-.45,1.758-1.771q0-11.676,0-23.354c0-1.312-.449-1.756-1.769-1.757q-4.956,0-9.912,0c-1.314,0-1.756.446-1.757,1.769q0,13.357,0,26.714v1.039Zm3.017-24.146h-1.344q-3.948,0-7.895,0c-.689,0-1.3.256-1.4.939a1.943,1.943,0,0,0,.419,1.4,1.808,1.808,0,0,0,1.231.337c4.2.023,8.4.014,12.6.014,1.876,0,3.752.011,5.628-.005a1.365,1.365,0,0,0,1.5-1.507c-.1-.74-.66-1.171-1.583-1.173Q967.256,513.093,962.678,513.1Zm5.342,8.065c1.288,0,2.576.01,3.864,0a1.368,1.368,0,0,0,1.54-1.307c.021-.818-.583-1.37-1.557-1.374q-3.822-.015-7.643,0a1.361,1.361,0,0,0-1.539,1.3c-.021.818.583,1.366,1.556,1.376C965.5,521.176,966.76,521.166,968.02,521.166Zm-9.358-13.442c-.84,0-1.68-.011-2.519,0a1.362,1.362,0,0,0-1.522,1.323,1.348,1.348,0,0,0,1.489,1.356q2.519.025,5.038,0a1.349,1.349,0,1,0,.034-2.68C960.342,507.711,959.5,507.725,958.662,507.724Zm10.7,2.687c.868,0,1.736.016,2.6,0a1.344,1.344,0,1,0-.019-2.677q-2.562-.025-5.123,0a1.343,1.343,0,1,0,.019,2.676C967.686,510.427,968.526,510.412,969.366,510.411Z" fill="#1a2e48"/>
    <path id="Path_175391" data-name="Path 175391" d="M935.8,566.9h51.073v2.508a39.436,39.436,0,0,0,.041,4.364,29.05,29.05,0,0,0,.933,3.809,3.357,3.357,0,0,1-.462.036q-23.646,0-47.293,0a4.041,4.041,0,0,1-4.291-4.328C935.793,571.2,935.8,569.1,935.8,566.9Z" fill="#1a2e48"/>
    <path id="Path_175392" data-name="Path 175392" d="M989.5,531.881h-7.964v-21.4H989.5Z" fill="#1a2e48"/>
    <path id="Path_175393" data-name="Path 175393" d="M922.375,550.644v-5.282h2.735c1.3,0,1.53-.175,1.976-1.361.186-.5.41-.979.637-1.458a1.478,1.478,0,0,0-.379-2.159c-.555-.551-1.136-1.075-1.638-1.546l3.618-3.6c.426.475.982,1.09,1.531,1.711a1.534,1.534,0,0,0,2.1.359,11.978,11.978,0,0,1,1.7-.714,1.535,1.535,0,0,0,1.155-1.635c-.027-.975-.007-1.951-.007-2.982h2.643v5.253a10.82,10.82,0,0,0,0,21.64v5.244H935.8c0-.942-.028-1.911.009-2.878a1.59,1.59,0,0,0-1.229-1.75,13.647,13.647,0,0,1-1.769-.758,1.425,1.425,0,0,0-1.827.3c-.6.621-1.2,1.243-1.731,1.8l-3.6-3.593c.476-.422,1.077-.914,1.632-1.454.9-.871.931-1.2.413-2.29a13.008,13.008,0,0,1-.642-1.546,1.584,1.584,0,0,0-1.761-1.214c-.894.037-1.791,0-2.686-.005A1.01,1.01,0,0,1,922.375,550.644Z" fill="#1a2e48"/>
    <path id="Path_175394" data-name="Path 175394" d="M949.295,545.4h10.653v7.962H949.295Z" fill="#1a2e48"/>
    <path id="Path_175395" data-name="Path 175395" d="M989.5,553.39H978.852v-7.961H989.5Z" fill="#1a2e48"/>
    <path id="Path_175396" data-name="Path 175396" d="M943.894,532.564l8.784-8.8c.49,1.138.915,2.239,1.429,3.3a3.363,3.363,0,0,1-1.193,4.708,20.755,20.755,0,0,0-2.622,2.591.958.958,0,0,1-1.173.291c-1.412-.513-2.847-.963-4.258-1.477A5.2,5.2,0,0,1,943.894,532.564Z" fill="#1a2e48"/>
    <path id="Path_175397" data-name="Path 175397" d="M947.119,525.214l-1.862,1.868L931.9,513.726l1.853-1.882Z" fill="#1a2e48"/>
    <path id="Path_175398" data-name="Path 175398" d="M938.447,553.477v2.553a7.877,7.877,0,0,1-8.006-7.619,8,8,0,0,1,7.99-8.384v2.61a5.561,5.561,0,0,0-4.183,2.12,5.3,5.3,0,0,0-1.132,3.519C933.209,551.055,935.22,553.031,938.447,553.477Z" fill="#1a2e48"/>
    <path id="Path_175399" data-name="Path 175399" d="M923.561,512.341a3.389,3.389,0,0,1-.22-5.021c1.274-1.336,2.586-2.636,3.912-3.919a3.418,3.418,0,0,1,5.1.137Z" fill="#1a2e48"/>
    <path id="Path_175400" data-name="Path 175400" d="M935.875,509.675l1.245-1.152L950.5,521.9l-1.246,1.152Z" fill="#1a2e48"/>
    <path id="Path_175401" data-name="Path 175401" d="M928.471,517.031l1.141-1.2,13.451,13.44-1.154,1.189Z" fill="#1a2e48"/>
    <path id="Path_175402" data-name="Path 175402" d="M974.737,561.551v2.587H964.09v-2.587Z" fill="#1a2e48"/>
    <path id="Path_175403" data-name="Path 175403" d="M926.264,515.135l-.464-.578,8.807-8.836.525.546Z" fill="#1a2e48"/>
    <path id="Path_175404" data-name="Path 175404" d="M938.455,545.386c0,1.766,0,3.487,0,5.209a2.439,2.439,0,0,1-2.631-2.132A2.693,2.693,0,0,1,938.455,545.386Z" fill="#1a2e48"/>
    <path id="Path_175405" data-name="Path 175405" d="M953,535.7,955.7,533l1.02,3.7Z" fill="#1a2e48"/>
    <path id="Path_175406" data-name="Path 175406" d="M969.389,550.732a1.338,1.338,0,1,1,1.346-1.329A1.349,1.349,0,0,1,969.389,550.732Z" fill="#1a2e48"/>
  </g>
</svg>
