<svg xmlns="http://www.w3.org/2000/svg" xmlns:xlink="http://www.w3.org/1999/xlink" width="208.462" height="207.706" viewBox="0 0 208.462 207.706">
  <defs>
    <linearGradient id="linear-gradient" x1="1.13" y1="1.295" x2="0.236" y2="0.19" gradientUnits="objectBoundingBox">
      <stop offset="0" stop-color="#daf8fe"/>
      <stop offset="1" stop-color="#e9fbfd"/>
    </linearGradient>
    <linearGradient id="linear-gradient-2" x1="-0.012" y1="0.121" x2="2.262" y2="1.805" gradientUnits="objectBoundingBox">
      <stop offset="0" stop-color="#ffca4f"/>
      <stop offset="1" stop-color="#fe8923"/>
    </linearGradient>
    <linearGradient id="linear-gradient-3" x1="0.217" y1="0.314" x2="2.347" y2="0.851" gradientUnits="objectBoundingBox">
      <stop offset="0" stop-color="#4fc5ff"/>
      <stop offset="1" stop-color="#40b5e2"/>
    </linearGradient>
    <linearGradient id="linear-gradient-4" x1="-0.297" y1="0.237" x2="0.974" y2="0.664" xlink:href="#linear-gradient-3"/>
    <linearGradient id="linear-gradient-5" x1="0.569" y1="-0.184" x2="0.35" y2="3.538" xlink:href="#linear-gradient-3"/>
    <linearGradient id="linear-gradient-6" x1="0.693" y1="-0.672" x2="0.278" y2="1.596" xlink:href="#linear-gradient-3"/>
    <linearGradient id="linear-gradient-7" x1="0.904" y1="-0.096" x2="-0.162" y2="1.102" xlink:href="#linear-gradient-3"/>
    <linearGradient id="linear-gradient-8" x1="0.523" y1="0.177" x2="-1.714" y2="3.266" xlink:href="#linear-gradient-3"/>
    <linearGradient id="linear-gradient-9" x1="0" y1="0.5" x2="1" y2="0.5" xlink:href="#linear-gradient"/>
    <linearGradient id="linear-gradient-10" x1="0" y1="0.5" x2="1" y2="0.5" xlink:href="#linear-gradient"/>
    <linearGradient id="linear-gradient-11" x1="0" y1="0.5" x2="1" y2="0.5" xlink:href="#linear-gradient"/>
    <linearGradient id="linear-gradient-13" x1="1.129" y1="-38.548" x2="0.476" y2="1.865" xlink:href="#linear-gradient-3"/>
    <linearGradient id="linear-gradient-14" y1="0.5" x2="1" y2="0.5" gradientUnits="objectBoundingBox">
      <stop offset="0" stop-color="#023e5d"/>
      <stop offset="1" stop-color="#0f6291"/>
    </linearGradient>
    <linearGradient id="linear-gradient-15" y1="0.5" x2="1" y2="0.5" gradientUnits="objectBoundingBox">
      <stop offset="0" stop-color="#fed4da"/>
      <stop offset="1" stop-color="#ffe7cb"/>
    </linearGradient>
    <linearGradient id="linear-gradient-16" x1="2.387" y1="-23.609" x2="0.682" y2="-1.991" xlink:href="#linear-gradient-3"/>
    <linearGradient id="linear-gradient-17" x1="0" y1="0.5" x2="1" y2="0.5" xlink:href="#linear-gradient-14"/>
    <linearGradient id="linear-gradient-18" x1="0" y1="0.5" x2="1" y2="0.5" xlink:href="#linear-gradient-15"/>
    <linearGradient id="linear-gradient-19" x1="3.32" y1="-1.446" x2="1.91" y2="-0.414" xlink:href="#linear-gradient-14"/>
    <linearGradient id="linear-gradient-20" x1="0.296" y1="-0.063" x2="2.652" y2="6.427" xlink:href="#linear-gradient-14"/>
    <linearGradient id="linear-gradient-21" x1="0.534" y1="0.308" x2="-0.337" y2="1.354" xlink:href="#linear-gradient-15"/>
    <linearGradient id="linear-gradient-22" x1="0.301" y1="1.478" x2="0.574" y2="0.434" xlink:href="#linear-gradient-15"/>
    <linearGradient id="linear-gradient-23" x1="0.821" y1="0.35" x2="-0.291" y2="1.106" xlink:href="#linear-gradient-15"/>
    <linearGradient id="linear-gradient-24" x1="0.28" y1="0.152" x2="1.03" y2="1.129" xlink:href="#linear-gradient-14"/>
    <linearGradient id="linear-gradient-25" x1="2.74" y1="-0.685" x2="-1.811" y2="1.783" xlink:href="#linear-gradient-15"/>
    <linearGradient id="linear-gradient-26" x1="2.019" y1="-10.652" x2="0.377" y2="1.165" xlink:href="#linear-gradient-15"/>
    <linearGradient id="linear-gradient-27" x1="0.579" y1="0.379" x2="1.163" y2="-2.74" xlink:href="#linear-gradient-15"/>
    <linearGradient id="linear-gradient-28" x1="0" y1="0.5" x2="1" y2="0.5" xlink:href="#linear-gradient-3"/>
    <linearGradient id="linear-gradient-29" x1="-0.295" y1="1.411" x2="0.696" y2="0.331" xlink:href="#linear-gradient-14"/>
    <linearGradient id="linear-gradient-30" x1="0.166" y1="0.5" x2="0.834" y2="0.5" xlink:href="#linear-gradient-3"/>
    <linearGradient id="linear-gradient-31" x1="0.499" y1="0.037" x2="0.505" y2="0.985" xlink:href="#linear-gradient-14"/>
    <linearGradient id="linear-gradient-32" x1="0.519" y1="2.383" x2="0.477" y2="-0.75" xlink:href="#linear-gradient-14"/>
    <linearGradient id="linear-gradient-33" x1="0.382" y1="-0.274" x2="1.098" y2="3.943" xlink:href="#linear-gradient-14"/>
    <linearGradient id="linear-gradient-34" x1="0.514" y1="2.023" x2="0.472" y2="-1.11" xlink:href="#linear-gradient-14"/>
    <linearGradient id="linear-gradient-35" x1="0.34" y1="-0.442" x2="1.056" y2="3.435" xlink:href="#linear-gradient-14"/>
    <linearGradient id="linear-gradient-36" x1="1.426" y1="-6.695" x2="0.929" y2="-2.755" xlink:href="#linear-gradient-14"/>
    <linearGradient id="linear-gradient-37" x1="0.556" y1="-0.686" x2="0.511" y2="0.278" xlink:href="#linear-gradient-14"/>
    <linearGradient id="linear-gradient-38" x1="0.68" y1="-1.393" x2="0.419" y2="1.019" xlink:href="#linear-gradient-3"/>
    <linearGradient id="linear-gradient-39" x1="0.68" y1="-1.393" x2="0.419" y2="1.019" xlink:href="#linear-gradient-14"/>
  </defs>
  <g id="Group_90016" data-name="Group 90016" transform="translate(-1779.727 -1780)">
    <path id="Path_143562" data-name="Path 143562" d="M1960.4,1955.137a73.34,73.34,0,0,1-11.222,9.448c-36.6,26.265-79.917,18.609-89.122,16.738-13.594-2.76-39.868-8.1-58.865-30.436-28.739-33.8-24.264-87.047-1.972-122.2,4.078-6.429,25.617-42.114,69.4-47.836,26.494-3.465,57.378,3.521,79.744,22.259C1995.3,1842.447,1991.963,1921.905,1960.4,1955.137Z" transform="translate(0.511 0)" fill="url(#linear-gradient)"/>
    <g id="Group_90017" data-name="Group 90017" transform="translate(1783.456 1787.649)">
      <ellipse id="Ellipse_4597" data-name="Ellipse 4597" cx="86.64" cy="93.519" rx="86.64" ry="93.519" transform="translate(0 173.113) rotate(-87.486)" fill="url(#linear-gradient-2)"/>
      <g id="Group_90016-2" data-name="Group 90016" transform="translate(12.146 6.2)" opacity="0.68">
        <path id="Path_143563" data-name="Path 143563" d="M1883.4,1874.742c-.008,7.646-.288,15.3-.884,22.921-.611,7.624-1.548,15.228-2.905,22.76a133.2,133.2,0,0,1-5.816,22.209,52.021,52.021,0,0,1-5.05,10.362,20.718,20.718,0,0,1-3.8,4.419,10.879,10.879,0,0,1-2.493,1.6,7.484,7.484,0,0,1-2.919.684,7.374,7.374,0,0,1-2.951-.54,10.2,10.2,0,0,1-2.552-1.515,19.722,19.722,0,0,1-3.878-4.349,50.463,50.463,0,0,1-5.123-10.327,105.407,105.407,0,0,1-3.422-10.974c-.957-3.709-1.76-7.455-2.451-11.219-1.382-7.529-2.326-15.131-2.966-22.752s-.958-15.272-1.006-22.922c-.023-3.823.094-7.648.234-11.468s.365-7.639.652-11.451c.578-7.626,1.435-15.233,2.7-22.778.636-3.772,1.377-7.527,2.267-11.249a108.037,108.037,0,0,1,3.211-11.025,49.892,49.892,0,0,1,4.91-10.4,18.894,18.894,0,0,1,3.79-4.369,9.686,9.686,0,0,1,2.511-1.5,7.1,7.1,0,0,1,2.888-.51,7.69,7.69,0,0,1,2.853.665,11.114,11.114,0,0,1,2.476,1.541,21.029,21.029,0,0,1,3.87,4.291,51.675,51.675,0,0,1,5.308,10.2,127.613,127.613,0,0,1,6.29,22.06,216.373,216.373,0,0,1,3.226,22.714C1883.052,1859.444,1883.379,1867.093,1883.4,1874.742Zm-1.454,0c.018-7.61-.266-15.222-.894-22.8a220.093,220.093,0,0,0-2.945-22.626,126.7,126.7,0,0,0-5.938-21.988,51.056,51.056,0,0,0-5.094-10.139,20.559,20.559,0,0,0-3.71-4.233,8.439,8.439,0,0,0-5.024-2.164,6.561,6.561,0,0,0-2.7.512,9.187,9.187,0,0,0-2.364,1.458,18.4,18.4,0,0,0-3.617,4.294,49.278,49.278,0,0,0-4.7,10.323,107.329,107.329,0,0,0-3.032,10.983c-.832,3.711-1.516,7.455-2.1,11.215a294.834,294.834,0,0,0-2.977,45.526q-.044,11.413.774,22.81c.562,7.588,1.426,15.157,2.725,22.652.651,3.746,1.411,7.473,2.324,11.162a104.622,104.622,0,0,0,3.279,10.9,49.605,49.605,0,0,0,4.922,10.182,18.9,18.9,0,0,0,3.665,4.2,7.62,7.62,0,0,0,4.97,1.925,8.01,8.01,0,0,0,4.9-2.149,19.9,19.9,0,0,0,3.591-4.272,51.256,51.256,0,0,0,4.849-10.222,132.255,132.255,0,0,0,5.537-22.079c1.292-7.5,2.145-15.065,2.714-22.654S1881.951,1882.354,1881.947,1874.742Z" transform="translate(-1774.266 -1789.866)" fill="#fff" style="mix-blend-mode: soft-light;isolation: isolate"/>
        <path id="Path_143564" data-name="Path 143564" d="M1934.061,1874.877a111.6,111.6,0,0,1-3.973,29.221,93.989,93.989,0,0,1-12.259,26.781,71.062,71.062,0,0,1-20.859,20.664,55.4,55.4,0,0,1-13.417,6.128,50.346,50.346,0,0,1-29.17.016,55.448,55.448,0,0,1-13.43-6.115,71.138,71.138,0,0,1-20.9-20.652,94.189,94.189,0,0,1-12.3-26.8,105.649,105.649,0,0,1-2.98-14.49,108.473,108.473,0,0,1,.012-29.518,105.589,105.589,0,0,1,2.992-14.484,94.141,94.141,0,0,1,12.321-26.772,71.007,71.007,0,0,1,20.9-20.614,55.751,55.751,0,0,1,13.416-6.086,49.894,49.894,0,0,1,29.112.015,55.6,55.6,0,0,1,13.4,6.1,70.958,70.958,0,0,1,20.856,20.626,93.923,93.923,0,0,1,12.279,26.758A111.546,111.546,0,0,1,1934.061,1874.877Zm-1.669,0a109.961,109.961,0,0,0-3.766-28.814,93.485,93.485,0,0,0-11.762-26.548,76.045,76.045,0,0,0-9.081-11.38,63.445,63.445,0,0,0-11.242-9.244,54.275,54.275,0,0,0-13.2-6.113,48.323,48.323,0,0,0-28.739.015,54.3,54.3,0,0,0-13.184,6.126,63.428,63.428,0,0,0-11.222,9.254,76.07,76.07,0,0,0-9.059,11.383,93.251,93.251,0,0,0-11.719,26.534,106.982,106.982,0,0,0-2.815,14.271,111.591,111.591,0,0,0,.013,29.03,106.629,106.629,0,0,0,2.826,14.265,93.224,93.224,0,0,0,11.741,26.51,75.971,75.971,0,0,0,9.06,11.367,63.107,63.107,0,0,0,11.217,9.232,54.481,54.481,0,0,0,13.17,6.1,47.861,47.861,0,0,0,28.681.017,54.576,54.576,0,0,0,13.184-6.084,63.171,63.171,0,0,0,11.238-9.223,76.033,76.033,0,0,0,9.082-11.363,93.41,93.41,0,0,0,11.783-26.524A109.958,109.958,0,0,0,1932.392,1874.877Z" transform="translate(-1786.352 -1790.001)" fill="#fff" style="mix-blend-mode: soft-light;isolation: isolate"/>
        <path id="Path_143565" data-name="Path 143565" d="M1796.191,1827.139c6.5-.094,12.994-.135,19.491-.2l19.492-.114c6.5-.05,12.994-.044,19.491-.06l19.491-.033,38.982.1,19.492.126c6.5.075,12.994.118,19.491.219a.072.072,0,0,1,.072.075.073.073,0,0,1-.072.072c-6.5.1-12.994.144-19.491.219l-19.492.125-38.982.1-19.491-.033c-6.5-.015-12.994-.011-19.491-.06l-19.492-.115c-6.5-.068-12.994-.108-19.491-.2a.112.112,0,0,1-.108-.111A.11.11,0,0,1,1796.191,1827.139Z" transform="translate(-1789.309 -1775.872)" fill="#fff" style="mix-blend-mode: soft-light;isolation: isolate"/>
        <path id="Path_143566" data-name="Path 143566" d="M1812.521,1803.562c4.614-.094,9.226-.135,13.839-.2l13.839-.115c4.613-.049,9.225-.043,13.838-.058l13.839-.034,13.839.039c4.613.024,9.225.011,13.837.064l13.839.125c4.613.075,9.227.119,13.839.219a.074.074,0,0,1,0,.148c-4.612.1-9.226.144-13.839.218l-13.839.126c-4.613.052-9.225.04-13.837.064l-13.839.039-13.839-.034c-4.613-.016-9.225-.01-13.838-.058l-13.839-.115c-4.612-.068-9.225-.11-13.839-.2a.11.11,0,0,1,0-.22Z" transform="translate(-1783.026 -1784.942)" fill="#fff" style="mix-blend-mode: soft-light;isolation: isolate"/>
        <path id="Path_143567" data-name="Path 143567" d="M1791.3,1850.714l21.184-.2,21.185-.115c7.062-.048,14.122-.043,21.184-.058l21.185-.035,42.369.1,21.185.125c7.062.075,14.124.118,21.184.219a.075.075,0,0,1,.073.075.073.073,0,0,1-.073.072c-7.06.1-14.122.145-21.184.219l-21.185.126-42.369.1-21.185-.033c-7.062-.015-14.122-.01-21.184-.058l-21.185-.115-21.184-.2a.11.11,0,0,1-.109-.109A.112.112,0,0,1,1791.3,1850.714Z" transform="translate(-1791.191 -1766.802)" fill="#fff" style="mix-blend-mode: soft-light;isolation: isolate"/>
        <path id="Path_143568" data-name="Path 143568" d="M1796.191,1874.292c6.5-.094,12.994-.134,19.491-.2l19.492-.115c6.5-.048,12.994-.043,19.491-.058l19.491-.033,38.982.1,19.492.126c6.5.073,12.994.118,19.491.219a.072.072,0,0,1,.072.075.075.075,0,0,1-.072.072c-6.5.1-12.994.144-19.491.219l-19.492.125-38.982.1-19.491-.035c-6.5-.015-12.994-.01-19.491-.058l-19.492-.115c-6.5-.068-12.994-.108-19.491-.2a.112.112,0,0,1-.108-.111A.11.11,0,0,1,1796.191,1874.292Z" transform="translate(-1789.309 -1757.732)" fill="#fff" style="mix-blend-mode: soft-light;isolation: isolate"/>
        <path id="Path_143569" data-name="Path 143569" d="M1925.318,1898.324H1814.611a.384.384,0,0,1,0-.768h110.707a.384.384,0,0,1,0,.768Z" transform="translate(-1782.328 -1748.624)" fill="#fff" style="mix-blend-mode: soft-light;isolation: isolate"/>
      </g>
    </g>
    <g id="Group_90021" data-name="Group 90021" transform="translate(1779.727 1845.028)">
      <g id="Group_90019" data-name="Group 90019">
        <path id="Path_143570" data-name="Path 143570" d="M1876.392,1864.306c-17.037-16.157-45.861-30.134-71.149-30.169l-2.174,26.491q1.016-.031,2.04-.032c21.053,0,41.487,11.873,53.933,26.916,3.448-7.25,10.592-12.02,13.952-19.39Z" transform="translate(-1770.746 -1824.201)" fill="#7ddbf4"/>
        <path id="Path_143571" data-name="Path 143571" d="M1823.111,1826.962l-40.933,19.89L1788,1851.2h36.959l1.751-23.144Z" transform="translate(-1778.783 -1826.962)" fill="#7ddbf4"/>
        <g id="Group_90018" data-name="Group 90018" transform="translate(0 0)">
          <path id="Path_143572" data-name="Path 143572" d="M1824.054,1826.962l-3.926,51.766-40.22-29.746a.448.448,0,0,1,.072-.764Z" transform="translate(-1779.726 -1826.962)" fill="url(#linear-gradient-3)"/>
          <path id="Path_143573" data-name="Path 143573" d="M1857.644,1900.469c3.808-8.639,10.877-26.071,16.96-33.146-17.31-18.393-44.864-32-72.111-32.039l-2.176,26.491q1.016-.029,2.04-.03C1824.567,1861.744,1853.771,1877.628,1857.644,1900.469Z" transform="translate(-1771.805 -1823.76)" fill="url(#linear-gradient-4)"/>
        </g>
      </g>
      <g id="Group_90020" data-name="Group 90020" transform="translate(42.837 15.707)">
        <path id="Path_143574" data-name="Path 143574" d="M1856.009,1864.447a.231.231,0,0,1-.18-.086c-4.794-5.807-12.036-11.55-20.944-16.605a.233.233,0,1,1,.231-.406c8.956,5.082,16.244,10.861,21.072,16.714a.232.232,0,0,1-.03.328A.236.236,0,0,1,1856.009,1864.447Z" transform="translate(-1801.39 -1834.837)" fill="#91f1fa"/>
        <path id="Path_143575" data-name="Path 143575" d="M1837.6,1848.669a.237.237,0,0,1-.109-.028,116.978,116.978,0,0,0-16.925-7.315.233.233,0,0,1,.151-.442,117.374,117.374,0,0,1,16.993,7.344.234.234,0,0,1-.109.44Z" transform="translate(-1806.911 -1837.318)" fill="#91f1fa"/>
        <path id="Path_143576" data-name="Path 143576" d="M1820.975,1841.224a.237.237,0,0,1-.068-.01,87.587,87.587,0,0,0-10.051-2.445.234.234,0,0,1-.19-.272.231.231,0,0,1,.271-.188,88.426,88.426,0,0,1,10.106,2.458.234.234,0,0,1-.068.457Z" transform="translate(-1810.662 -1838.305)" fill="#91f1fa"/>
      </g>
    </g>
    <g id="Group_90024" data-name="Group 90024" transform="translate(1858.082 1780.187)">
      <g id="Group_90023" data-name="Group 90023">
        <path id="Path_143577" data-name="Path 143577" d="M1864.5,1780.661l-4.759-.477,1.125,2.323L1838.92,1820.4h39.328l8.617,2.53,3.755-2.1Z" transform="translate(-1835.309 -1780.116)" fill="#7ddbf4"/>
        <path id="Path_143578" data-name="Path 143578" d="M1848.143,1806.743v48.729c4.294,3.508,4.823,17.264,8.731,21.542,4.337-4.225,12.6-13.152,18.033-16.391v-53.88Z" transform="translate(-1831.762 -1769.899)" fill="#7ddbf4"/>
        <g id="Group_90022" data-name="Group 90022">
          <path id="Path_143579" data-name="Path 143579" d="M1836.8,1822.99h51.068l-26.895-42.791a.136.136,0,0,0-.233,0l-24.362,42.055A.488.488,0,0,0,1836.8,1822.99Z" transform="translate(-1836.313 -1780.135)" fill="url(#linear-gradient-5)"/>
          <path id="Path_143580" data-name="Path 143580" d="M1844.629,1808.6v57.547c4.866,3.507,8.562,8.528,12.469,12.806,4.337-4.225,9.428-12.89,14.723-16.233V1808.6Z" transform="translate(-1833.114 -1769.183)" fill="url(#linear-gradient-6)"/>
        </g>
      </g>
      <path id="Path_143581" data-name="Path 143581" d="M1847.369,1820.9H1838.8a.55.55,0,0,1-.478-.818l20.833-37.136a.234.234,0,0,1,.408.23l-20.834,37.136a.082.082,0,0,0,.071.121h8.568a.234.234,0,1,1,0,.468Z" transform="translate(-1835.567 -1779.099)" fill="#91f1fa"/>
    </g>
    <g id="Group_90025" data-name="Group 90025" transform="translate(1864.247 1841.853)">
      <path id="Path_143582" data-name="Path 143582" d="M1936.572,1834.744c-39.245.054-72.849,22.053-87.379,56.831h0v.011l-.039.094.016,0c-7.624,16.751-3.052,45.1-2.451,74.17h27.252a2.09,2.09,0,0,0,2.087-2.2c-1.188-22.035-2.211-44.2.91-62.716a33.4,33.4,0,0,1,7.384-15.937,68.215,68.215,0,0,1,52.354-24.24c.682,0,1.362-.007,2.041.013Z" transform="translate(-1839.208 -1820.792)" fill="#7ddbf4"/>
      <path id="Path_143583" data-name="Path 143583" d="M1932.573,1833.582a.645.645,0,0,0-.644-.591c-38.99.278-72.327,22.515-86.784,57.9h0l-.04.093h.018c-7.508,16.8-3.192,45.047-2.483,74.174a1.407,1.407,0,0,0,1.406,1.375h27.614a.643.643,0,0,0,.641-.677c-1.252-24.083-2.693-45.262.591-65.278a34.691,34.691,0,0,1,7.517-16.531,67.716,67.716,0,0,1,52.25-24.564c.446,0,.89,0,1.335,0a.642.642,0,0,0,.647-.694Z" transform="translate(-1840.765 -1821.467)" fill="url(#linear-gradient-7)"/>
      <path id="Path_143584" data-name="Path 143584" d="M1941.812,1851.115l.1-.074-.97-5.357-.092-.044-.017-.1-.1.044-39.566-19.082,2.729,35.986-.689.317-3.194,12.923,4.067,3.271,1.012-.748,0,.017,36.679-27.128.036-.027Z" transform="translate(-1817.971 -1823.963)" fill="#7ddbf4"/>
      <path id="Path_143585" data-name="Path 143585" d="M1897.182,1824.668l3.926,51.766,40.817-30.188Z" transform="translate(-1819.061 -1824.668)" fill="url(#linear-gradient-8)"/>
    </g>
    <g id="Group_90036" data-name="Group 90036" transform="translate(1798.187 1787.383)">
      <g id="Group_90030" data-name="Group 90030" transform="translate(28.322)">
        <g id="Group_90026" data-name="Group 90026" opacity="0.3">
          <path id="Path_143586" data-name="Path 143586" d="M1814.5,1822.211a.82.82,0,0,1-.813-.734c-.1-.92-.154-1.857-.172-2.787a.818.818,0,0,1,.8-.834h.015a.818.818,0,0,1,.818.8c.017.883.072,1.774.163,2.648a.819.819,0,0,1-.729.9C1814.555,1822.209,1814.526,1822.211,1814.5,1822.211Zm.054-7.134a.754.754,0,0,1-.1-.005.817.817,0,0,1-.716-.908c.108-.924.259-1.85.445-2.755a.819.819,0,0,1,1.6.33c-.176.861-.318,1.74-.422,2.618A.818.818,0,0,1,1814.55,1815.077Zm1.622-6.944a.818.818,0,0,1-.771-1.094c.312-.872.663-1.743,1.05-2.587a.819.819,0,1,1,1.49.68c-.367.8-.7,1.627-1,2.456A.818.818,0,0,1,1816.172,1808.132Zm3.135-6.408a.819.819,0,0,1-.69-1.259c.5-.782,1.037-1.552,1.6-2.289a.819.819,0,1,1,1.3,1c-.534.7-1.047,1.431-1.52,2.174A.819.819,0,0,1,1819.307,1801.724Zm4.485-5.548a.819.819,0,0,1-.575-1.4c.658-.651,1.353-1.282,2.066-1.876a.819.819,0,0,1,1.049,1.258c-.678.565-1.339,1.165-1.965,1.782A.821.821,0,0,1,1823.792,1796.176Zm5.6-4.417a.819.819,0,0,1-.433-1.515c.786-.489,1.6-.951,2.432-1.372a.819.819,0,0,1,.744,1.459c-.785.4-1.562.838-2.311,1.3A.808.808,0,0,1,1829.393,1791.758Zm30.005-1.95a.8.8,0,0,1-.338-.075c-.8-.363-1.628-.7-2.46-.991a.819.819,0,1,1,.547-1.544c.875.31,1.747.662,2.591,1.046a.819.819,0,0,1-.339,1.565Zm-23.569-1.116a.819.819,0,0,1-.267-1.592c.876-.3,1.776-.571,2.675-.8a.819.819,0,1,1,.4,1.588c-.853.215-1.708.468-2.54.756A.87.87,0,0,1,1835.829,1788.693Zm16.784-1.084a.858.858,0,0,1-.165-.016c-.863-.176-1.743-.316-2.62-.418a.819.819,0,1,1,.19-1.627c.921.108,1.849.256,2.757.44a.819.819,0,0,1-.162,1.621Zm-9.824-.465a.819.819,0,0,1-.086-1.634c.921-.1,1.858-.158,2.786-.177h.017a.819.819,0,0,1,.017,1.637c-.881.019-1.771.076-2.646.169C1842.847,1787.14,1842.818,1787.143,1842.789,1787.143Z" transform="translate(-1813.512 -1785.332)" fill="#91f1fa"/>
          <path id="Path_143587" data-name="Path 143587" d="M1850.79,1791.273a.817.817,0,0,1-.467-.145c-.347-.241-.7-.479-1.063-.708a.819.819,0,0,1,.881-1.382c.376.241.752.49,1.117.745a.818.818,0,0,1-.468,1.49Z" transform="translate(-1799.905 -1783.955)" fill="#91f1fa"/>
        </g>
        <g id="Group_90027" data-name="Group 90027" transform="translate(12.504 25.517)" opacity="0.3">
          <path id="Path_143588" data-name="Path 143588" d="M1860.158,1806.687a.82.82,0,0,1-.807-.69c-.066-.417-.142-.839-.227-1.256a.819.819,0,1,1,1.6-.325c.089.439.169.883.24,1.322a.818.818,0,0,1-.678.938A.864.864,0,0,1,1860.158,1806.687Z" transform="translate(-1808.475 -1803.76)" fill="#91f1fa"/>
          <path id="Path_143589" data-name="Path 143589" d="M1841.439,1842.086q-.565,0-1.134-.019a.819.819,0,1,1,.054-1.637c.877.029,1.752.024,2.612-.018a.818.818,0,1,1,.08,1.635C1842.519,1842.073,1841.976,1842.086,1841.439,1842.086Zm-5.435-.46a.773.773,0,0,1-.14-.011c-.9-.153-1.8-.347-2.686-.576a.819.819,0,0,1,.41-1.586c.838.218,1.7.4,2.553.547a.819.819,0,0,1-.137,1.626Zm11.326-.089a.818.818,0,0,1-.151-1.623c.85-.161,1.706-.359,2.541-.591a.819.819,0,0,1,.439,1.579c-.881.243-1.781.453-2.677.621A.815.815,0,0,1,1847.329,1841.537Zm-18.074-1.849a.835.835,0,0,1-.312-.062c-.844-.348-1.684-.735-2.5-1.154a.819.819,0,1,1,.751-1.455c.77.4,1.566.764,2.368,1.094a.819.819,0,0,1-.311,1.577Zm24.783-.2a.819.819,0,0,1-.325-1.57c.793-.344,1.584-.726,2.348-1.135a.819.819,0,1,1,.774,1.443c-.806.432-1.637.835-2.473,1.195A.81.81,0,0,1,1854.038,1839.484Zm6.1-3.475a.819.819,0,0,1-.482-1.482c.7-.51,1.39-1.055,2.045-1.62a.819.819,0,0,1,1.07,1.239c-.691.6-1.415,1.17-2.153,1.706A.819.819,0,0,1,1860.134,1836.008Zm5.193-4.722a.819.819,0,0,1-.613-1.361c.575-.651,1.127-1.332,1.644-2.027a.819.819,0,0,1,1.314.978c-.544.731-1.126,1.449-1.731,2.134A.816.816,0,0,1,1865.326,1831.286Zm4.039-5.742a.818.818,0,0,1-.717-1.213c.418-.76.809-1.547,1.161-2.339a.818.818,0,1,1,1.5.664c-.37.834-.781,1.663-1.22,2.463A.82.82,0,0,1,1869.365,1825.544Zm2.681-6.49a.823.823,0,0,1-.788-1.047c.24-.831.447-1.684.616-2.534a.819.819,0,1,1,1.606.318c-.179.9-.4,1.793-.648,2.67A.82.82,0,0,1,1872.046,1819.054Zm1.188-6.917-.05,0a.818.818,0,0,1-.767-.867c.039-.637.058-1.282.058-1.919q0-.347-.008-.691a.819.819,0,0,1,.8-.836.81.81,0,0,1,.837.8c.005.242.008.483.008.727,0,.669-.021,1.349-.062,2.019A.82.82,0,0,1,1873.234,1812.137Z" transform="translate(-1821.209 -1802.198)" fill="#91f1fa"/>
          <path id="Path_143590" data-name="Path 143590" d="M1824.414,1829.058a.809.809,0,0,1-.469-.15c-.363-.255-.727-.522-1.083-.795a.819.819,0,1,1,1-1.3c.336.259.683.512,1.027.755a.819.819,0,0,1-.472,1.488Z" transform="translate(-1822.542 -1794.956)" fill="#91f1fa"/>
        </g>
        <g id="Group_90029" data-name="Group 90029" transform="translate(8.032 7.756)">
          <g id="Group_90028" data-name="Group 90028">
            <path id="Path_143591" data-name="Path 143591" d="M1826.761,1833.3a.384.384,0,0,0,.429.116l4.372-1.608a20.268,20.268,0,0,0,5.788,3.117l1.066,4.532a.38.38,0,0,0,.334.292l5.559.563a.381.381,0,0,0,.385-.22l1.954-4.225a20.327,20.327,0,0,0,6.3-1.893l3.961,2.451a.381.381,0,0,0,.443-.029l4.329-3.532a.383.383,0,0,0,.117-.428l-1.607-4.372a20.355,20.355,0,0,0,3.117-5.788l4.531-1.066a.383.383,0,0,0,.294-.335l.562-5.558a.383.383,0,0,0-.22-.386l-4.225-1.953a20.3,20.3,0,0,0-1.893-6.3l2.451-3.96a.384.384,0,0,0-.027-.443l-3.534-4.328a.379.379,0,0,0-.428-.118l-4.372,1.608a20.251,20.251,0,0,0-5.788-3.117l-1.066-4.531a.383.383,0,0,0-.334-.293l-5.56-.564a.384.384,0,0,0-.386.22l-1.952,4.226a20.277,20.277,0,0,0-6.3,1.893l-3.96-2.452a.384.384,0,0,0-.443.029l-4.328,3.532a.386.386,0,0,0-.118.429l1.608,4.372a20.3,20.3,0,0,0-3.117,5.788l-4.531,1.066a.383.383,0,0,0-.294.334l-.562,5.558a.382.382,0,0,0,.22.386l4.225,1.954a20.3,20.3,0,0,0,1.893,6.295l-2.451,3.96a.383.383,0,0,0,.028.444Z" transform="translate(-1819.312 -1790.933)" fill="#bdf5fb"/>
          </g>
          <path id="Path_143592" data-name="Path 143592" d="M1838.7,1815.942a5.623,5.623,0,1,1,.822-.061A5.522,5.522,0,0,1,1838.7,1815.942Zm.014-9.924a4.513,4.513,0,0,0-.637.047,4.281,4.281,0,1,0,.637-.047Z" transform="translate(-1814.014 -1785.635)" fill="url(#linear-gradient-9)"/>
          <path id="Path_143593" data-name="Path 143593" d="M1841.066,1826.353a13.889,13.889,0,0,1-1.417-.072h0c-.15-.015-.3-.032-.447-.052a13.912,13.912,0,0,1-2.162-.467l-.029-.008-.082-.025-.158-.05a.328.328,0,0,1-.227-.312.329.329,0,0,1,.428-.312,13.176,13.176,0,0,0,14.4-4.38,13.153,13.153,0,1,0-23.421-9.459c-.045.444-.067.89-.067,1.335a13.13,13.13,0,0,0,1.241,5.574.323.323,0,0,1,.032.138.328.328,0,0,1-.625.14,13.77,13.77,0,0,1-1.3-5.852,13.99,13.99,0,0,1,.07-1.4,13.81,13.81,0,0,1,27.55,1.364c0,.471-.025.944-.072,1.419a13.812,13.812,0,0,1-13.714,12.419Z" transform="translate(-1816.266 -1787.934)" fill="url(#linear-gradient-10)"/>
        </g>
      </g>
      <g id="Group_90035" data-name="Group 90035" transform="translate(0 30.128)">
        <g id="Group_90031" data-name="Group 90031" opacity="0.3">
          <path id="Path_143594" data-name="Path 143594" d="M1794.272,1828.17a.505.505,0,0,1-.485-.364c-.121-.411-.231-.832-.327-1.252a.506.506,0,0,1,.986-.226c.092.4.2.8.312,1.193a.507.507,0,0,1-.486.648Z" transform="translate(-1792.908 -1799.84)" fill="#91f1fa"/>
          <path id="Path_143595" data-name="Path 143595" d="M1793.674,1831.6a.506.506,0,0,1-.5-.454,22.082,22.082,0,0,1-.114-2.222c0-.155,0-.312.005-.468a.524.524,0,0,1,.516-.5.506.506,0,0,1,.494.516c0,.15,0,.3,0,.447a21.16,21.16,0,0,0,.107,2.119.506.506,0,0,1-.451.555Zm.111-5.251a.594.594,0,0,1-.072,0,.506.506,0,0,1-.429-.573,22.084,22.084,0,0,1,.546-2.637.506.506,0,0,1,.976.266,20.962,20.962,0,0,0-.521,2.515A.5.5,0,0,1,1793.785,1826.351Zm1.38-5.067a.5.5,0,0,1-.466-.7,21.888,21.888,0,0,1,1.177-2.422.506.506,0,0,1,.881.5,21.013,21.013,0,0,0-1.123,2.309A.5.5,0,0,1,1795.165,1821.284Zm2.585-4.571a.506.506,0,0,1-.406-.807,21.732,21.732,0,0,1,1.733-2.06.506.506,0,0,1,.733.7,20.975,20.975,0,0,0-1.655,1.965A.5.5,0,0,1,1797.751,1816.714Zm3.622-3.8a.506.506,0,0,1-.321-.9,22.077,22.077,0,0,1,2.181-1.576.506.506,0,1,1,.541.854,21.277,21.277,0,0,0-2.081,1.5A.5.5,0,0,1,1801.373,1812.911Zm4.435-2.807a.506.506,0,0,1-.217-.964,21.665,21.665,0,0,1,2.5-1,.506.506,0,1,1,.314.961,20.777,20.777,0,0,0-2.383.95A.492.492,0,0,1,1805.808,1810.1Zm4.985-1.638a.506.506,0,0,1-.1-1,22.092,22.092,0,0,1,2.67-.352.506.506,0,0,1,.071,1.009,20.874,20.874,0,0,0-2.546.335A.452.452,0,0,1,1810.793,1808.466Zm7.853-.064a.52.52,0,0,1-.09-.008,20.986,20.986,0,0,0-2.217-.271c-.112-.008-.223-.015-.334-.021a.506.506,0,0,1,.052-1.011l.353.022a21.96,21.96,0,0,1,2.322.285.506.506,0,0,1-.087,1Z" transform="translate(-1793.058 -1807.09)" fill="#91f1fa"/>
        </g>
        <g id="Group_90032" data-name="Group 90032" transform="translate(8.371 30.882)" opacity="0.3">
          <path id="Path_143596" data-name="Path 143596" d="M1811.964,1842.167a.506.506,0,0,1-.006-1.012,20.929,20.929,0,0,0,2.518-.185.506.506,0,0,1,.135,1,22.448,22.448,0,0,1-2.641.194Zm-2.584-.122a.34.34,0,0,1-.055,0,21.9,21.9,0,0,1-2.612-.439.506.506,0,0,1,.229-.986,21.318,21.318,0,0,0,2.491.419.506.506,0,0,1-.052,1.009Zm7.7-.57a.506.506,0,0,1-.129-.995,20.818,20.818,0,0,0,2.4-.789.506.506,0,0,1,.374.94,22.085,22.085,0,0,1-2.516.827A.52.52,0,0,1,1817.082,1841.475Zm-12.735-.6a.513.513,0,0,1-.174-.03,21.854,21.854,0,0,1-2.429-1.058.506.506,0,0,1,.46-.9,20.66,20.66,0,0,0,2.317,1.01.505.505,0,0,1-.173.98Zm17.533-1.311a.5.5,0,0,1-.242-.948,20.945,20.945,0,0,0,2.138-1.343.506.506,0,0,1,.59.823,22.312,22.312,0,0,1-2.243,1.408A.515.515,0,0,1,1821.88,1839.567Zm4.2-3a.506.506,0,0,1-.342-.879,21.052,21.052,0,0,0,1.756-1.815.506.506,0,1,1,.768.658,22.069,22.069,0,0,1-1.842,1.9A.5.5,0,0,1,1826.081,1836.564Zm3.359-3.924a.513.513,0,0,1-.28-.084.506.506,0,0,1-.14-.7,20.642,20.642,0,0,0,1.27-2.184.505.505,0,1,1,.9.454,21.761,21.761,0,0,1-1.331,2.29A.507.507,0,0,1,1829.44,1832.641Z" transform="translate(-1798.194 -1829.392)" fill="#91f1fa"/>
          <path id="Path_143597" data-name="Path 143597" d="M1800.634,1836.468a.509.509,0,0,1-.284-.088c-.359-.242-.71-.5-1.048-.756a.506.506,0,0,1,.615-.8c.322.248.659.49,1,.722a.506.506,0,0,1-.284.925Z" transform="translate(-1799.104 -1827.342)" fill="#91f1fa"/>
        </g>
        <g id="Group_90034" data-name="Group 90034" transform="translate(5.337 5.125)">
          <g id="Group_90033" data-name="Group 90033">
            <path id="Path_143598" data-name="Path 143598" d="M1801.9,1839.138a.256.256,0,0,0,.288.079l2.925-1.076a13.576,13.576,0,0,0,3.873,2.087l.713,3.031a.256.256,0,0,0,.224.2l3.719.377a.258.258,0,0,0,.259-.147l1.306-2.828a13.626,13.626,0,0,0,4.214-1.267l2.65,1.641a.257.257,0,0,0,.3-.019l2.9-2.364a.253.253,0,0,0,.077-.286l-1.074-2.926a13.62,13.62,0,0,0,2.086-3.873l3.032-.713a.257.257,0,0,0,.2-.224l.377-3.719a.256.256,0,0,0-.147-.259l-2.828-1.306a13.548,13.548,0,0,0-1.267-4.213l1.641-2.65a.255.255,0,0,0-.019-.3l-2.364-2.9a.254.254,0,0,0-.286-.078l-2.926,1.076a13.574,13.574,0,0,0-3.873-2.087l-.713-3.032a.256.256,0,0,0-.223-.2l-3.721-.376a.254.254,0,0,0-.257.147l-1.308,2.828a13.53,13.53,0,0,0-4.212,1.267l-2.65-1.641a.257.257,0,0,0-.3.019l-2.9,2.364a.255.255,0,0,0-.079.287l1.076,2.926a13.538,13.538,0,0,0-2.085,3.873l-3.032.713a.257.257,0,0,0-.2.223l-.377,3.721a.256.256,0,0,0,.147.258l2.827,1.307a13.6,13.6,0,0,0,1.267,4.212l-1.641,2.651a.259.259,0,0,0,.019.3Z" transform="translate(-1796.912 -1810.791)" fill="#bdf5fb"/>
          </g>
          <path id="Path_143599" data-name="Path 143599" d="M1809.9,1827.61a3.826,3.826,0,0,1-.55-7.61,3.826,3.826,0,0,1,1.115,7.57A3.907,3.907,0,0,1,1809.9,1827.61Zm.01-6.64a2.788,2.788,0,0,0-.413.031,2.814,2.814,0,0,0,.821,5.568h0a2.814,2.814,0,0,0-.409-5.6Z" transform="translate(-1793.384 -1807.264)" fill="url(#linear-gradient-11)"/>
          <path id="Path_143600" data-name="Path 143600" d="M1811.539,1834.857q-.48,0-.967-.049a9.583,9.583,0,0,1-1.9-.391l-.083-.026a.508.508,0,0,1-.35-.481.517.517,0,0,1,.025-.156.508.508,0,0,1,.637-.326,8.5,8.5,0,0,0,1.775.373h0l.1.01a8.433,8.433,0,0,0,4.118-.653,8.532,8.532,0,0,0,1.965-1.183l.015-.011.044-.037a8.515,8.515,0,1,0-13.855-7.455,8.228,8.228,0,0,0-.044.864,8.484,8.484,0,0,0,.8,3.607.493.493,0,0,1,.049.215.506.506,0,0,1-.964.214,9.528,9.528,0,1,1,18.156-4.061,9.656,9.656,0,0,1-.05.979A9.539,9.539,0,0,1,1811.539,1834.857Z" transform="translate(-1794.953 -1808.864)" fill="url(#linear-gradient-10)"/>
        </g>
      </g>
    </g>
    <g id="Group_90040" data-name="Group 90040" transform="translate(1811.441 1867.848)">
      <path id="Path_143601" data-name="Path 143601" d="M1832.715,1926.112c-2.281.2-6.237.516-9.355.653a9.023,9.023,0,0,1-3.576-.349c0,.069,0,.136.005.2a.645.645,0,0,0,.613.609,109.157,109.157,0,0,0,12.249.012.459.459,0,0,0,.375-.689A3.8,3.8,0,0,0,1832.715,1926.112Z" transform="translate(-1796.031 -1811.639)" fill="url(#linear-gradient-13)"/>
      <path id="Path_143602" data-name="Path 143602" d="M1823.36,1928.045c3.119-.137,7.075-.457,9.355-.653-2.242-2.75-9.355-4.6-9.355-4.6h-2.009a8.428,8.428,0,0,0-1.567,4.909A9.027,9.027,0,0,0,1823.36,1928.045Z" transform="translate(-1796.031 -1812.918)" fill="url(#linear-gradient-14)"/>
      <path id="Path_143603" data-name="Path 143603" d="M1820.67,1920.418l.188,3.72a.852.852,0,0,0,.726.8,3.324,3.324,0,0,0,1.509-.126,1,1,0,0,0,.675-.773l.65-3.622Z" transform="translate(-1795.69 -1813.829)" fill="url(#linear-gradient-15)"/>
      <g id="Group_90037" data-name="Group 90037" transform="translate(0 107.735)">
        <path id="Path_143604" data-name="Path 143604" d="M1804.29,1929.642a1.959,1.959,0,0,1-1.623-1.551l0,.02a1.771,1.771,0,0,0,.865,1.893,4.508,4.508,0,0,0,2.4.484,2.214,2.214,0,0,0,1.8-1.072l.006-.008C1806.985,1929.883,1805.939,1929.94,1804.29,1929.642Z" transform="translate(-1802.63 -1918.612)" fill="url(#linear-gradient-16)"/>
        <path id="Path_143605" data-name="Path 143605" d="M1808.94,1921.246h-1.656c-2.524-.066-4.108,6.814-4.628,9.478a1.959,1.959,0,0,0,1.623,1.551c1.649.3,2.694.241,3.44-.234a24.239,24.239,0,0,0,2.364-7.7A2.874,2.874,0,0,0,1808.94,1921.246Z" transform="translate(-1802.619 -1921.245)" fill="url(#linear-gradient-17)"/>
      </g>
      <path id="Path_143606" data-name="Path 143606" d="M1806.417,1918.752l-.921,3.66a1,1,0,0,0,.516,1.126,3.523,3.523,0,0,0,1.906.461.827.827,0,0,0,.677-.552l1.352-3.851Z" transform="translate(-1801.538 -1814.47)" fill="url(#linear-gradient-18)"/>
      <path id="Path_143607" data-name="Path 143607" d="M1838.719,1884.233s-8.223,51.4-8.087,51.68a6.843,6.843,0,0,1-4.747.132s.743-27.475,2.485-38.01c0,0-14.032,24.558-18.488,36.794a11.154,11.154,0,0,1-4.248-1.544s15.11-44.2,19.141-50.091Z" transform="translate(-1801.474 -1828.149)" fill="url(#linear-gradient-19)"/>
      <path id="Path_143608" data-name="Path 143608" d="M1822.358,1895.343a.241.241,0,0,1-.205-.371l3.073-4.907a.237.237,0,0,1,.158-.109l2.261-.456a.243.243,0,0,1,.1.476l-2.159.435-3.017,4.819A.242.242,0,0,1,1822.358,1895.343Z" transform="translate(-1795.133 -1825.726)" fill="url(#linear-gradient-20)"/>
      <path id="Path_143609" data-name="Path 143609" d="M1862.42,1847.6a55.021,55.021,0,0,0-8.923,2.782,3.082,3.082,0,0,0-1.51,1.516c-1.008,2.211-4.028,7.755-9.884,10.4a16.133,16.133,0,0,1,2.793,7.361c3.517-2.619,6.554-6.99,8.01-14.16a2.861,2.861,0,0,0,2.5-.069c.731-.356,1.577-.86,2.211-1.256a2.9,2.9,0,0,0,1.285-1.725,10.044,10.044,0,0,0,.1-2.674l2.852-.884A1.012,1.012,0,0,0,1862.42,1847.6Z" transform="translate(-1787.444 -1841.843)" fill="url(#linear-gradient-21)"/>
      <path id="Path_143610" data-name="Path 143610" d="M1857.511,1865.681a16.13,16.13,0,0,0-2.793-7.361c-3.639,1.643-8.371,2.168-14.4.08a6.413,6.413,0,0,0-1.722-.339c-3.207-.188-13.779-.531-22.526,2.358a6.8,6.8,0,0,0-4.1,3.733c-2.366,5.429-6.2,17.8,4.438,24.04a26.412,26.412,0,0,1,2.566-4.857c-1.711-2.888-2.22-6.835.82-11.972,2.217,5.983,3.255,14.715,3.473,18.58a8.3,8.3,0,0,1-.651,3.716l-.054.128a.44.44,0,0,0,.309.6,50.44,50.44,0,0,0,14.076.825.767.767,0,0,0,.684-.585c2.911-12.267,2.918-20.635,2.2-25.926C1842.561,1869.311,1850.888,1870.609,1857.511,1865.681Z" transform="translate(-1800.059 -1837.864)" fill="#bdf5fb"/>
      <path id="Path_143611" data-name="Path 143611" d="M1832.024,1868.18a.244.244,0,0,1-.241-.212c-.684-5.165-2.076-7.419-2.09-7.441a.242.242,0,0,1,.075-.335.245.245,0,0,1,.335.075c.059.094,1.461,2.351,2.161,7.638a.244.244,0,0,1-.209.273Z" transform="translate(-1792.233 -1837.012)" fill="#91f1fa"/>
      <path id="Path_143612" data-name="Path 143612" d="M1821.018,1852.866s-.605,6.4-1.138,8.3a.647.647,0,0,0,.3.74,6.274,6.274,0,0,0,6.046-.094,1.351,1.351,0,0,0,.747-1.269l-.261-6.188Z" transform="translate(-1796.003 -1839.816)" fill="url(#linear-gradient-22)"/>
      <g id="Group_90038" data-name="Group 90038" transform="translate(19.598)">
        <path id="Path_143613" data-name="Path 143613" d="M1827.063,1846.95s1.937,4.45,2.067,6.786.634,3.851-2.067,4.322a5.74,5.74,0,0,1-6.208-3.2s-1.932-3.585-1.5-5.054S1827.063,1846.95,1827.063,1846.95Z" transform="translate(-1815.817 -1842.092)" fill="url(#linear-gradient-23)"/>
        <path id="Path_143614" data-name="Path 143614" d="M1822.742,1854.533l.154-.068a.371.371,0,0,0,.181-.51c-.381-.737-1.123-2.422-.165-2.815,1.236-.507,6.133-1.507,7.189-3.243a3.232,3.232,0,0,0-1.237-4.438.187.187,0,0,0-.244.079l-.112.213a.184.184,0,0,1-.339-.035.182.182,0,0,0-.329-.047c-.325.519-1.2,1.363-3.546,1.795-3.332.615-5.535,1.964-5.59,4.266a.184.184,0,0,1-.284.151c-.245-.15-.64-.22-1.166.221-.914.77-.54,2.765,1.466,4.408a.182.182,0,0,1-.01.294c-.363.237-.906.8.5,1.551a4.726,4.726,0,0,0,2.955.644.182.182,0,0,0,.148-.22l-.446-2.023a.183.183,0,0,1,.18-.223Z" transform="translate(-1816.783 -1843.442)" fill="url(#linear-gradient-24)"/>
        <path id="Path_143615" data-name="Path 143615" d="M1821.824,1852.367s-.739-2.843-2.013-2.045.661,3.185,1.685,3.291Z" transform="translate(-1815.78 -1840.85)" fill="url(#linear-gradient-25)"/>
      </g>
      <path id="Path_143616" data-name="Path 143616" d="M1851.2,1854.083a.248.248,0,0,1-.153-.054.243.243,0,0,1-.035-.342,20.493,20.493,0,0,1,2.789-2.94c.262-.147.417-.3.45-.44a.357.357,0,0,0-.033-.229l-2.187.439-1.241,1.063a.242.242,0,1,1-.316-.368l1.288-1.1a.238.238,0,0,1,.111-.054l2.422-.486a.245.245,0,0,1,.25.1.927.927,0,0,1,.179.749,1.249,1.249,0,0,1-.683.75,20.354,20.354,0,0,0-2.652,2.823A.238.238,0,0,1,1851.2,1854.083Z" transform="translate(-1784.257 -1841.087)" fill="url(#linear-gradient-26)"/>
      <path id="Path_143617" data-name="Path 143617" d="M1823.635,1884.216l8.563.105-3-2.82a2.238,2.238,0,0,0-2.742-.258,6.489,6.489,0,0,0-1.523,1.357s-5.342-1.952-7.932-6.32a26.42,26.42,0,0,0-2.566,4.857A26.725,26.725,0,0,0,1823.635,1884.216Z" transform="translate(-1798.087 -1830.809)" fill="url(#linear-gradient-27)"/>
      <g id="Group_90039" data-name="Group 90039" transform="translate(25.546 34.983)">
        <path id="Path_143618" data-name="Path 143618" d="M1822,1883.349h.05l21.737-.024a.962.962,0,1,0,0-1.925l-21.735.024a.962.962,0,0,0-.048,1.923Z" transform="translate(-1821.079 -1863.822)" fill="url(#linear-gradient-28)"/>
        <path id="Path_143619" data-name="Path 143619" d="M1859.812,1868.706h-18.1a3.453,3.453,0,0,0-3.12,1.958l-8.369,17.558h22.5a2.1,2.1,0,0,0,1.95-1.312l6.49-16.247A1.432,1.432,0,0,0,1859.812,1868.706Z" transform="translate(-1817.562 -1868.706)" fill="url(#linear-gradient-29)"/>
        <ellipse id="Ellipse_4598" data-name="Ellipse 4598" cx="2.296" cy="1.425" rx="2.296" ry="1.425" transform="matrix(0.313, -0.95, 0.95, 0.313, 28.783, 11.17)" fill="url(#linear-gradient-30)"/>
      </g>
    </g>
    <g id="Group_90041" data-name="Group 90041" transform="translate(1891.189 1924.688)">
      <path id="Path_143620" data-name="Path 143620" d="M1861.1,1908.021l.736,22.912a7.455,7.455,0,0,0,7.424,7.2l54.866.324a5.379,5.379,0,0,0,5.363-4.578c.859-5.785,1.951-16.139.72-25.856Z" transform="translate(-1859.885 -1875.438)" fill="url(#linear-gradient-31)"/>
      <path id="Path_143621" data-name="Path 143621" d="M1922.568,1937.189a.163.163,0,0,1-.006-.327,5,5,0,0,0,.942-.126.164.164,0,1,1,.073.32,5.3,5.3,0,0,1-1,.133Zm-2.292-.008h0l-.982-.005a.164.164,0,0,1,0-.327h0l.983.006a.163.163,0,0,1,0,.327Zm-3.275-.019h0l-.983-.005a.164.164,0,0,1,0-.327h0l.982.006a.163.163,0,1,1,0,.327Zm-3.273-.019h0l-.982-.006a.163.163,0,1,1,0-.327h0l.982.005a.164.164,0,0,1,0,.327Zm-3.275-.02h0l-.982-.005a.163.163,0,0,1-.163-.165.174.174,0,0,1,.165-.162l.983.006a.163.163,0,0,1,0,.327Zm-3.275-.019h0l-.982-.005a.163.163,0,0,1,0-.327h0l.982.005a.163.163,0,0,1,0,.327Zm-3.275-.019h0l-.983-.005a.163.163,0,0,1,0-.327h0l.982.005a.163.163,0,0,1,.164.165A.165.165,0,0,1,1903.9,1937.084Zm-3.273-.018h0l-.982-.007a.163.163,0,0,1,0-.327h0l.982.005a.164.164,0,0,1,0,.328Zm-3.275-.019h0l-.982-.005a.164.164,0,0,1,0-.328h0l.983.005a.164.164,0,0,1,0,.328Zm-3.275-.019h0l-.983-.007a.163.163,0,0,1,0-.327h0l.983.005a.164.164,0,0,1,0,.328Zm-3.275-.019h0l-.983-.006a.164.164,0,0,1,0-.328h0l.983.006a.164.164,0,0,1,0,.328Zm-3.273-.019h0l-.982-.005a.164.164,0,0,1,0-.328h0l.982.005a.165.165,0,0,1,.163.165A.164.164,0,0,1,1887.532,1936.988Zm-3.275-.019h0l-.982-.006a.164.164,0,0,1,0-.328h0l.983.005a.164.164,0,0,1,0,.328Zm-3.275-.019h0l-.982-.006a.164.164,0,0,1,0-.328h0l.984.005a.164.164,0,0,1,0,.328Zm-3.273-.019h0l-.983-.005a.164.164,0,0,1-.162-.165.181.181,0,0,1,.165-.163l.982.007a.163.163,0,0,1,0,.327Zm-3.275-.019h0l-.982-.005a.164.164,0,0,1,0-.328h0l.982.007a.163.163,0,0,1,0,.327Zm-3.275-.019h0l-.982-.005a.163.163,0,1,1,0-.327h0l.983.006a.163.163,0,0,1,0,.327Zm-3.236-.366a.166.166,0,0,1-.051-.008,7.218,7.218,0,0,1-.929-.381.164.164,0,1,1,.145-.294,7.007,7.007,0,0,0,.886.363.167.167,0,0,1,.105.208A.165.165,0,0,1,1867.923,1936.526Zm57.662-.458a.163.163,0,0,1-.1-.291,4.933,4.933,0,0,0,.681-.662.164.164,0,0,1,.251.212,5.321,5.321,0,0,1-.727.7A.16.16,0,0,1,1925.585,1936.068Zm-60.427-1.237a.168.168,0,0,1-.115-.047,7.488,7.488,0,0,1-.665-.755.164.164,0,1,1,.26-.2,7.108,7.108,0,0,0,.634.719.164.164,0,0,1-.115.281Zm62.178-1.462a.139.139,0,0,1-.041-.006.162.162,0,0,1-.116-.2,4.994,4.994,0,0,0,.1-.514l.064-.435a.164.164,0,1,1,.324.046l-.064.436a5.328,5.328,0,0,1-.112.548A.161.161,0,0,1,1927.336,1933.369Zm-63.9-1.288a.165.165,0,0,1-.155-.111,7.006,7.006,0,0,1-.256-.971.163.163,0,0,1,.321-.061,6.806,6.806,0,0,0,.245.927.164.164,0,0,1-.1.208A.157.157,0,0,1,1863.432,1932.081Zm64.38-1.951h-.021a.164.164,0,0,1-.141-.183q.058-.475.116-.973a.164.164,0,0,1,.325.037c-.039.332-.078.659-.118.976A.163.163,0,0,1,1927.813,1930.13Zm-64.79-1.281a.163.163,0,0,1-.163-.158l-.032-.982a.165.165,0,0,1,.159-.169.167.167,0,0,1,.169.158l.032.982a.163.163,0,0,1-.159.169Zm65.149-1.975h-.016a.164.164,0,0,1-.147-.179c.03-.32.06-.647.089-.976a.167.167,0,0,1,.177-.15.165.165,0,0,1,.15.177c-.029.332-.059.658-.09.98A.164.164,0,0,1,1928.171,1926.875Zm-65.254-1.3a.165.165,0,0,1-.163-.159l-.032-.982a.164.164,0,1,1,.328-.01l.03.982a.163.163,0,0,1-.158.169Zm65.519-1.968h-.011a.164.164,0,0,1-.154-.174c.022-.323.041-.649.061-.979a.161.161,0,0,1,.172-.154.164.164,0,0,1,.155.173c-.019.33-.039.658-.061.982A.163.163,0,0,1,1928.436,1923.609Zm-65.624-1.306a.165.165,0,0,1-.163-.158l-.032-.982a.164.164,0,0,1,.328-.011l.031.982a.163.163,0,0,1-.158.169Zm65.787-1.965h-.005a.164.164,0,0,1-.158-.169q.017-.486.029-.98a.175.175,0,0,1,.168-.159.162.162,0,0,1,.159.168q-.012.494-.029.983A.163.163,0,0,1,1928.6,1920.339Zm-65.892-1.307a.164.164,0,0,1-.163-.159l-.03-.982a.163.163,0,0,1,.158-.169.171.171,0,0,1,.169.159l.032.982a.165.165,0,0,1-.159.169Zm65.948-1.966a.164.164,0,0,1-.164-.163c0-.326,0-.654-.007-.982a.163.163,0,0,1,.161-.165.171.171,0,0,1,.166.162q.006.492.007.983a.165.165,0,0,1-.163.165Zm-66.053-1.307a.164.164,0,0,1-.163-.159l-.032-.982a.165.165,0,0,1,.159-.169.175.175,0,0,1,.169.159l.032.982a.165.165,0,0,1-.159.169Zm65.984-1.966a.165.165,0,0,1-.163-.158q-.021-.488-.047-.979a.164.164,0,1,1,.327-.016c.018.327.033.655.047.983a.164.164,0,0,1-.157.17Zm-66.089-1.307a.163.163,0,0,1-.163-.158l-.032-.982a.165.165,0,0,1,.159-.169.167.167,0,0,1,.169.158l.032.982a.164.164,0,0,1-.159.169Zm65.879-1.961a.164.164,0,0,1-.163-.15c-.028-.325-.06-.651-.093-.975a.164.164,0,0,1,.326-.035q.05.49.094.98a.162.162,0,0,1-.148.177Zm-65.984-1.311a.165.165,0,0,1-.163-.159l-.032-.982a.165.165,0,0,1,.159-.169.174.174,0,0,1,.169.159l.031.982a.163.163,0,0,1-.158.169Zm64.771-.982h-.983a.164.164,0,0,1,0-.328h.983a.164.164,0,0,1,0,.328Zm-3.275,0h-.983a.164.164,0,0,1,0-.328h.983a.164.164,0,0,1,0,.328Zm-3.275,0h-.982a.164.164,0,1,1,0-.328h.982a.164.164,0,0,1,0,.328Zm-3.275,0h-.982a.164.164,0,0,1,0-.328h.982a.164.164,0,0,1,0,.328Zm-3.275,0h-.982a.164.164,0,0,1,0-.328h.982a.164.164,0,1,1,0,.328Zm-3.273,0h-.983a.164.164,0,0,1,0-.328h.983a.164.164,0,0,1,0,.328Zm-3.275,0h-.983a.164.164,0,0,1,0-.328h.983a.164.164,0,0,1,0,.328Zm-3.275,0h-.982a.164.164,0,1,1,0-.328h.982a.164.164,0,0,1,0,.328Zm-3.275,0h-.982a.164.164,0,0,1,0-.328h.982a.164.164,0,1,1,0,.328Zm-3.275,0h-.982a.164.164,0,0,1,0-.328h.982a.164.164,0,1,1,0,.328Zm-3.273,0h-.983a.164.164,0,0,1,0-.328h.983a.164.164,0,0,1,0,.328Zm-3.275,0h-.983a.164.164,0,0,1,0-.328h.983a.164.164,0,0,1,0,.328Zm-3.275,0h-.982a.164.164,0,1,1,0-.328h.982a.164.164,0,0,1,0,.328Zm-3.275,0h-.982a.164.164,0,0,1,0-.328h.982a.164.164,0,1,1,0,.328Zm-3.273,0h-.983a.164.164,0,0,1,0-.328h.983a.164.164,0,0,1,0,.328Zm-3.275,0h-.983a.164.164,0,0,1,0-.328h.983a.164.164,0,0,1,0,.328Zm-3.275,0h-.982a.164.164,0,1,1,0-.328h.982a.164.164,0,0,1,0,.328Zm-3.275,0h-.981a.164.164,0,0,1,0-.328h.981a.164.164,0,0,1,0,.328Zm-3.275,0h-.982a.164.164,0,0,1,0-.328h.982a.164.164,0,1,1,0,.328Zm-3.273,0h-.983a.164.164,0,0,1,0-.328h.983a.164.164,0,0,1,0,.328Z" transform="translate(-1859.463 -1875.484)" fill="#fff"/>
      <path id="Path_143622" data-name="Path 143622" d="M1872.711,1896.8l.165-1.768a1.363,1.363,0,0,1,1.031-.793c1.709-.272,5.949-.749,7.99.775l.3,2.053Z" transform="translate(-1855.418 -1880.851)" fill="url(#linear-gradient-32)"/>
      <path id="Path_143623" data-name="Path 143623" d="M1877.121,1896.607a2.461,2.461,0,0,1-1.182,0,1.069,1.069,0,0,1-.814-1.036v-5.533h2.815v5.529A1.073,1.073,0,0,1,1877.121,1896.607Z" transform="translate(-1854.489 -1882.356)" fill="url(#linear-gradient-33)"/>
      <path id="Path_143624" data-name="Path 143624" d="M1892.407,1896.8l.166-1.768a1.361,1.361,0,0,1,1.03-.793c1.709-.272,5.949-.749,7.99.775l.3,2.053Z" transform="translate(-1847.841 -1880.851)" fill="url(#linear-gradient-34)"/>
      <path id="Path_143625" data-name="Path 143625" d="M1896.819,1896.769a2.467,2.467,0,0,1-1.184,0,1.069,1.069,0,0,1-.814-1.036v-6.116h2.815v6.112A1.073,1.073,0,0,1,1896.819,1896.769Z" transform="translate(-1846.912 -1882.518)" fill="url(#linear-gradient-35)"/>
      <path id="Path_143626" data-name="Path 143626" d="M1875.324,1893.528l30.282-1a1.461,1.461,0,0,0,1.4-1.2,12.413,12.413,0,0,0,.094-3.838,3.494,3.494,0,0,0-3.387-2.956c-5.648-.136-20.03-.131-27.956,3a2.765,2.765,0,0,0-1.672,1.92,6.719,6.719,0,0,0-.072,3.076A1.3,1.3,0,0,0,1875.324,1893.528Z" transform="translate(-1854.975 -1884.49)" fill="url(#linear-gradient-36)"/>
      <path id="Path_143627" data-name="Path 143627" d="M1874.636,1891.672a.327.327,0,0,1-.326-.293,7.4,7.4,0,0,1,.187-2.353,2.723,2.723,0,0,1,1.853-1.883,33.514,33.514,0,0,1,7.594-1.418.327.327,0,1,1,.018.655,32.789,32.789,0,0,0-7.428,1.392,2.061,2.061,0,0,0-1.4,1.426,6.715,6.715,0,0,0-.167,2.114.328.328,0,0,1-.294.359Z" transform="translate(-1854.812 -1884.016)" fill="#91f1fa"/>
      <path id="Path_143628" data-name="Path 143628" d="M1863.466,1895.556c9.783-.125,52.105-.569,64.4.914a2.5,2.5,0,0,1,2.152,1.939,82.7,82.7,0,0,1,2.015,18.475,2.189,2.189,0,0,1-1.795,2.089l-28.062,5.309h-9.969l-29.9-5.943a2.339,2.339,0,0,1-1.886-2.17c-.194-3.805-.5-12.732.53-18.477A2.59,2.59,0,0,1,1863.466,1895.556Z" transform="translate(-1860.222 -1880.294)" fill="url(#linear-gradient-37)"/>
      <path id="Path_143629" data-name="Path 143629" d="M1891.817,1921.4l-.032,0-.964-.191a.165.165,0,0,1-.128-.193.163.163,0,0,1,.192-.129l.955.19.022,0h.982a.163.163,0,1,1,0,.327h-1.027Zm7.577,0h-.983a.163.163,0,0,1,0-.327h.983a.163.163,0,0,1,0,.327Zm-3.275,0h-.982a.163.163,0,1,1,0-.327h.982a.163.163,0,0,1,0,.327Zm5.56-.068a.163.163,0,0,1-.029-.324l.965-.183a.165.165,0,0,1,.191.13.163.163,0,0,1-.13.191l-.965.183Zm-13.073-.57-.032,0-.964-.191a.164.164,0,1,1,.064-.321l.964.191a.164.164,0,0,1-.032.324Zm16.291-.037a.164.164,0,0,1-.03-.325l.965-.183a.164.164,0,0,1,.061.322l-.965.183Zm-19.5-.6-.032,0-.964-.191a.164.164,0,0,1,.065-.321l.962.191a.163.163,0,0,1-.032.324Zm22.722-.008a.164.164,0,0,1-.03-.324l.965-.183a.163.163,0,0,1,.061.321l-.965.183Zm3.217-.609a.164.164,0,0,1-.03-.324l.965-.183a.166.166,0,0,1,.193.13.165.165,0,0,1-.132.193l-.965.181Zm-29.149-.021-.032,0-.964-.191a.164.164,0,0,1-.129-.192.162.162,0,0,1,.192-.129l.964.191a.163.163,0,0,1-.032.324Zm32.367-.587a.164.164,0,0,1-.031-.324l.965-.183a.163.163,0,0,1,.061.321l-.965.183Zm-35.578-.052-.032,0-.964-.191a.164.164,0,1,1,.064-.321l.962.191a.163.163,0,0,1-.03.324Zm38.8-.558a.164.164,0,0,1-.03-.324l.966-.182a.163.163,0,1,1,.06.321l-.965.182Zm-42.008-.08-.032,0-.964-.193a.163.163,0,1,1,.064-.32l.964.191a.164.164,0,0,1-.032.324Zm45.226-.528a.164.164,0,0,1-.031-.325l.965-.181a.163.163,0,1,1,.061.321l-.965.183Zm-48.437-.111-.032,0-.964-.191a.164.164,0,1,1,.063-.321l.964.191a.164.164,0,0,1-.032.324Zm51.654-.5a.163.163,0,0,1-.029-.324l.965-.183a.164.164,0,0,1,.061.321l-.966.183Zm-54.866-.14-.032,0-.964-.193a.164.164,0,0,1,.065-.321l.963.192a.164.164,0,0,1-.032.324Zm58.084-.468a.164.164,0,0,1-.03-.325l.965-.183a.164.164,0,0,1,.06.323l-.965.183Zm-61.3-.17-.032,0-.964-.193a.163.163,0,1,1,.064-.32l.964.191a.164.164,0,0,1-.032.324Zm-3.211-.638-.033,0-.832-.166-.019-.389a.163.163,0,0,1,.156-.17.155.155,0,0,1,.172.155l.006.133.583.116a.164.164,0,0,1-.032.324Zm66.083-1.164a.165.165,0,0,1-.165-.162q-.006-.49-.021-.979a.165.165,0,0,1,.159-.169.17.17,0,0,1,.169.159c.01.327.017.656.021.984a.165.165,0,0,1-.162.166Zm-66.9-1.527a.164.164,0,0,1-.163-.159c-.01-.314-.021-.644-.029-.983a.163.163,0,0,1,.159-.168.172.172,0,0,1,.167.159c.01.338.019.666.029.98a.163.163,0,0,1-.158.17Zm66.769-1.743a.166.166,0,0,1-.164-.153q-.031-.493-.069-.979a.164.164,0,1,1,.327-.025q.037.488.069.983a.162.162,0,0,1-.152.173Zm-66.844-1.531a.164.164,0,0,1-.163-.162q-.006-.484-.008-.983a.164.164,0,0,1,.163-.165h0a.164.164,0,0,1,.165.163c0,.331,0,.659.007.98a.163.163,0,0,1-.161.166Zm66.56-1.734a.163.163,0,0,1-.162-.145c-.036-.329-.073-.653-.112-.975a.165.165,0,0,1,.144-.181.161.161,0,0,1,.181.143c.039.321.076.648.112.977a.164.164,0,0,1-.145.181Zm-66.556-1.541h0a.164.164,0,0,1-.161-.166c.006-.327.011-.655.019-.984a.168.168,0,0,1,.169-.159.164.164,0,0,1,.159.167c-.008.328-.015.655-.021.982A.163.163,0,0,1,1862.027,1906.415Zm66.14-1.707a.163.163,0,0,1-.161-.14c-.05-.331-.1-.655-.148-.971a.163.163,0,1,1,.323-.05c.05.316.1.641.148.973a.164.164,0,0,1-.137.186Zm-66.034-1.566h-.008a.165.165,0,0,1-.155-.173c.018-.329.037-.658.058-.982a.164.164,0,1,1,.327.021c-.021.324-.04.651-.058.979A.163.163,0,0,1,1862.134,1903.141Zm65.5-1.666a.163.163,0,0,1-.161-.135c-.062-.339-.123-.66-.183-.965a.164.164,0,0,1,.13-.191.162.162,0,0,1,.191.129q.089.459.183.968a.163.163,0,0,1-.132.191Zm-65.243-1.6h-.018a.165.165,0,0,1-.145-.182q.056-.5.12-.979a.16.16,0,0,1,.184-.14.162.162,0,0,1,.14.184c-.043.316-.082.64-.119.971A.163.163,0,0,1,1862.391,1899.876Zm64.455-1.48h-.019c-.3-.035-.627-.071-.974-.1a.164.164,0,0,1,.032-.327q.521.052.981.105a.164.164,0,0,1-.02.327Zm-3.261-.295h-.012q-.471-.035-.979-.067a.164.164,0,0,1,.021-.327c.339.021.666.043.982.067a.164.164,0,0,1-.011.327Zm-3.269-.2h-.009c-.32-.017-.646-.033-.98-.049a.163.163,0,1,1,.015-.327c.335.015.662.032.982.048a.163.163,0,0,1-.008.327Zm-3.272-.144h-.005l-.982-.035a.165.165,0,0,1-.158-.17.171.171,0,0,1,.169-.158l.983.036a.163.163,0,0,1-.007.327Zm-3.272-.108h-.005l-.982-.028a.164.164,0,0,1-.159-.169.16.16,0,0,1,.169-.159l.982.027a.164.164,0,0,1,0,.328Zm-3.273-.086h0l-.982-.021a.164.164,0,0,1,0-.328h0l.982.022a.166.166,0,0,1,.161.167A.164.164,0,0,1,1910.5,1897.568Zm-3.275-.065h0l-.982-.016a.164.164,0,0,1,0-.328h0l.982.016a.164.164,0,0,1,0,.328Zm-43.559,0a.164.164,0,0,1,0-.328l.983-.011h0a.163.163,0,1,1,0,.327l-.983.012Zm3.276-.037a.164.164,0,0,1,0-.328l.983-.01h0a.163.163,0,1,1,0,.327l-.983.011Zm37.008-.014h0l-.983-.014a.163.163,0,0,1,0-.327h0l.983.012a.164.164,0,0,1,0,.328Zm-33.733-.018a.164.164,0,0,1,0-.328l.983-.008h0a.163.163,0,0,1,0,.327l-.983.01Zm30.459-.021h0l-.982-.01a.163.163,0,0,1,0-.327h0l.983.008a.164.164,0,0,1,0,.328Zm-27.183-.006a.164.164,0,0,1,0-.328l.983-.007h0a.164.164,0,0,1,0,.327l-.982.008Zm23.908-.022h0l-.982-.007a.163.163,0,1,1,0-.327h0l.983.005a.164.164,0,0,1,0,.328Zm-20.632,0a.164.164,0,0,1,0-.328l.983-.005h0a.164.164,0,0,1,0,.328l-.983.006Zm3.275-.017a.164.164,0,0,1,0-.328l.982,0h0a.163.163,0,1,1,0,.327l-.982,0Zm14.083,0h0l-.982,0a.163.163,0,0,1,0-.327h0l.982,0a.164.164,0,0,1,0,.328Zm-10.806-.008a.164.164,0,1,1,0-.328h.983a.163.163,0,1,1,0,.327l-.982,0Zm7.531,0h-.983a.163.163,0,0,1,0-.327h0l.983,0a.163.163,0,1,1,0,.327Zm-4.257,0a.163.163,0,1,1,0-.327h.981a.165.165,0,0,1,.165.164.163.163,0,0,1-.162.163Z" transform="translate(-1859.596 -1879.668)" fill="#fff"/>
      <path id="Path_143630" data-name="Path 143630" d="M1893.175,1922.865h-8.732a2.256,2.256,0,0,1-2.245-1.983l-1.009-8.4a2.254,2.254,0,0,1,2.245-2.516h10.49a2.254,2.254,0,0,1,2.252,2.448l-.749,8.4A2.257,2.257,0,0,1,1893.175,1922.865Z" transform="translate(-1852.162 -1874.691)" fill="url(#linear-gradient-38)"/>
      <path id="Path_143631" data-name="Path 143631" d="M1892.332,1921.6h-7.394a1.91,1.91,0,0,1-1.9-1.68l-.854-7.115a1.907,1.907,0,0,1,1.9-2.131h8.883a1.91,1.91,0,0,1,1.907,2.073l-.636,7.116A1.909,1.909,0,0,1,1892.332,1921.6Z" transform="translate(-1851.779 -1874.416)" fill="url(#linear-gradient-39)"/>
    </g>
  </g>
</svg>
