<svg xmlns="http://www.w3.org/2000/svg" width="88.84" height="86" viewBox="0 0 88.84 86">
  <g id="Group_125796" data-name="Group 125796" transform="translate(-915.505 -490.944)">
    <path id="Path_175323" data-name="Path 175323" d="M980.658,549.727v3.488c-.438,0-.856-.01-1.274,0a1.5,1.5,0,0,0-1.657,1.671c-.019,1.383-.005,2.767-.005,4.257h-43.77c-3.665,0-5.519-2.129-5.067-5.894h45.8v-2.98H928.8V549.18q0-16.262,0-32.524c0-3.151,1.791-4.95,4.926-4.953,2.281,0,4.562,0,6.924,0-.206,6.759,2.282,12.151,8.166,15.554,5.858,3.389,11.741,2.9,17.554-.69a18.955,18.955,0,0,0,2.382,14.507A19.176,19.176,0,0,0,980.658,549.727Zm-31.18-14.3v-2.9H931.84v2.9h17.638Zm4.889,1.9c-1.171,1.2-2.264,2.37-3.426,3.469a2.1,2.1,0,0,1-1.263.532c-1.6.062-3.206.025-4.81.025h-4.143v2.961c3.482,0,6.9.009,10.321-.015a1.44,1.44,0,0,0,.922-.347c1.508-1.492,2.979-3.021,4.444-4.52Zm-22.522,4.045v2.884h5.78v-2.884Z" fill="#1a2e48"/>
    <path id="Path_175324" data-name="Path 175324" d="M955.486,500.01v4.581q0,4.072,0,8.146c0,1.441.5,1.928,1.958,1.929q5.83.006,11.662,0h1.005c-.151,4.775-4.648,11.59-12.727,11.84a13.294,13.294,0,0,1-1.9-26.5Z" fill="#1a2e48"/>
    <path id="Path_175325" data-name="Path 175325" d="M985.139,514.668a16.306,16.306,0,1,1-16.308,16.324A16.332,16.332,0,0,1,985.139,514.668Zm-13.345,16.326a13.34,13.34,0,1,0,13.459-13.36A13.365,13.365,0,0,0,971.794,530.994Z" fill="#1a2e48"/>
    <path id="Path_175326" data-name="Path 175326" d="M980.77,556.2h8.725a4.5,4.5,0,0,1,.082.615c0,5.212.013,10.423,0,15.635a4.432,4.432,0,0,1-2.993,4.247,4.231,4.231,0,0,1-4.822-1.385,4.943,4.943,0,0,1-1.02-2.6c-.093-5.4-.048-10.792-.046-16.189A1.764,1.764,0,0,1,980.77,556.2Zm5.781,17.732v-8.779H983.7v8.779Zm.045-14.708h-2.882v2.818H986.6Z" fill="#1a2e48"/>
    <path id="Path_175327" data-name="Path 175327" d="M964.444,494.125c5.422.156,11.285,5.478,11.6,11.6h-11.6Z" fill="#1a2e48"/>
    <path id="Path_175328" data-name="Path 175328" d="M948.074,576.875c0-.457-.01-.855,0-1.252a1.5,1.5,0,0,1,1.677-1.647c2.5-.015,5-.005,7.5-.005h11.936c2.422,0,2.768.386,2.549,2.9Z" fill="#1a2e48"/>
    <path id="Path_175329" data-name="Path 175329" d="M915.505,502.744v-2.856h17.671v2.856Z" fill="#1a2e48"/>
    <path id="Path_175330" data-name="Path 175330" d="M957.019,562.154h5.811v8.791h-5.811Z" fill="#1a2e48"/>
    <path id="Path_175331" data-name="Path 175331" d="M940.174,495.838,938,497.876a25.175,25.175,0,0,1-2.138-2.249,4.381,4.381,0,0,0-4.23-1.752c-2.086.155-4.192.036-6.289.036H924.4v-2.882a2.3,2.3,0,0,1,.414-.078c3.238,0,6.477-.018,9.714.013a1.867,1.867,0,0,1,1.181.4C937.218,492.808,938.669,494.315,940.174,495.838Z" fill="#1a2e48"/>
    <path id="Path_175332" data-name="Path 175332" d="M981.938,497.958l-2.174-2.152c1.467-1.492,2.944-3.015,4.453-4.507a1.309,1.309,0,0,1,.835-.33c3.448-.022,6.9-.015,10.4-.015v2.957c-1.836,0-3.646-.006-5.456,0-1.416.006-2.991-.353-4.2.153s-2.074,1.873-3.068,2.883A10.669,10.669,0,0,0,981.938,497.958Z" fill="#1a2e48"/>
    <path id="Path_175333" data-name="Path 175333" d="M986.66,502.744v-2.856H998.4v2.856Z" fill="#1a2e48"/>
    <path id="Path_175334" data-name="Path 175334" d="M915.53,490.983h5.807v2.884H915.53Z" fill="#1a2e48"/>
    <path id="Path_175335" data-name="Path 175335" d="M1004.345,493.893h-5.793v-2.88h5.793Z" fill="#1a2e48"/>
    <path id="Path_175336" data-name="Path 175336" d="M1004.338,502.767h-2.847v-2.851h2.847Z" fill="#1a2e48"/>
    <path id="Path_175337" data-name="Path 175337" d="M983.689,553.161v-2.888h2.879v2.888Z" fill="#1a2e48"/>
    <path id="Path_175338" data-name="Path 175338" d="M974.758,530.95a10.375,10.375,0,1,1,10.417,10.4A10.394,10.394,0,0,1,974.758,530.95Zm5.881-.015a4.624,4.624,0,0,1,4.424-4.467V523.6c-4.019-.026-7.633,3.646-7.248,7.336Z" fill="#1a2e48"/>
  </g>
</svg>
