<svg xmlns="http://www.w3.org/2000/svg" xmlns:xlink="http://www.w3.org/1999/xlink" width="168.288" height="166.27" viewBox="0 0 168.288 166.27">
  <defs>
    <linearGradient id="linear-gradient" x1="0.422" y1="0.514" x2="0.352" y2="0.835" gradientUnits="objectBoundingBox">
      <stop offset="0" stop-color="#40447e"/>
      <stop offset="0.996" stop-color="#3c3b6b"/>
    </linearGradient>
    <linearGradient id="linear-gradient-2" x1="0.479" y1="0.466" x2="0.369" y2="0.525" xlink:href="#linear-gradient"/>
    <linearGradient id="linear-gradient-3" x1="0" y1="0.5" x2="1" y2="0.5" xlink:href="#linear-gradient"/>
    <linearGradient id="linear-gradient-6" x1="0.835" y1="-0.203" x2="-0.138" y2="1.782" gradientUnits="objectBoundingBox">
      <stop offset="0" stop-color="#80ecf9"/>
      <stop offset="0.996" stop-color="#61bdd7"/>
    </linearGradient>
    <linearGradient id="linear-gradient-7" x1="0.414" y1="-2.198" x2="0.583" y2="3.531" xlink:href="#linear-gradient-6"/>
    <linearGradient id="linear-gradient-8" x1="0.5" y1="2.076" x2="0.5" y2="0.226" xlink:href="#linear-gradient-6"/>
    <linearGradient id="linear-gradient-10" x1="0.329" y1="0.554" x2="-0.255" y2="0.738" gradientUnits="objectBoundingBox">
      <stop offset="0" stop-color="#fcb148"/>
      <stop offset="0.052" stop-color="#fdb946"/>
      <stop offset="0.142" stop-color="#fec144"/>
      <stop offset="0.318" stop-color="#ffc444"/>
      <stop offset="0.485" stop-color="#fdb946"/>
      <stop offset="0.775" stop-color="#f99c4c"/>
      <stop offset="0.866" stop-color="#f8924f"/>
      <stop offset="1" stop-color="#f8924f"/>
    </linearGradient>
    <linearGradient id="linear-gradient-11" x1="0.727" y1="0.007" x2="0.207" y2="1.135" gradientUnits="objectBoundingBox">
      <stop offset="0" stop-color="#ffdb44"/>
      <stop offset="1" stop-color="#feef06"/>
    </linearGradient>
    <linearGradient id="linear-gradient-12" x1="0.636" y1="1.231" x2="0.531" y2="0.666" xlink:href="#linear-gradient-10"/>
    <linearGradient id="linear-gradient-13" x1="0.409" y1="0.31" x2="0.858" y2="1.247" xlink:href="#linear-gradient-10"/>
    <linearGradient id="linear-gradient-14" x1="0.253" y1="0.019" x2="0.711" y2="1.039" xlink:href="#linear-gradient-11"/>
    <linearGradient id="linear-gradient-15" x1="0.464" y1="0.369" x2="1.215" y2="1.306" xlink:href="#linear-gradient-10"/>
    <linearGradient id="linear-gradient-16" x1="0.278" y1="1.028" x2="0.771" y2="0.051" gradientUnits="objectBoundingBox">
      <stop offset="0.004" stop-color="#61d0d7"/>
      <stop offset="1" stop-color="#80f7f9"/>
    </linearGradient>
    <linearGradient id="linear-gradient-17" x1="0.405" y1="0.935" x2="0.732" y2="0.104" gradientUnits="objectBoundingBox">
      <stop offset="0" stop-color="#311944"/>
      <stop offset="1" stop-color="#893976"/>
    </linearGradient>
    <linearGradient id="linear-gradient-18" x1="-0.451" y1="0.03" x2="2.865" y2="1.813" gradientUnits="objectBoundingBox">
      <stop offset="0" stop-color="#ffc444"/>
      <stop offset="0.996" stop-color="#f36f56"/>
    </linearGradient>
    <linearGradient id="linear-gradient-19" x1="0.497" y1="-0.747" x2="0.486" y2="-7.555" gradientUnits="objectBoundingBox">
      <stop offset="0" stop-color="#aa80f9"/>
      <stop offset="0.996" stop-color="#6165d7"/>
    </linearGradient>
    <linearGradient id="linear-gradient-20" x1="-1761.629" y1="67.088" x2="-1761.567" y2="62.791" xlink:href="#linear-gradient-18"/>
    <linearGradient id="linear-gradient-21" x1="0.496" y1="-1.686" x2="0.485" y2="-8.492" xlink:href="#linear-gradient-19"/>
    <linearGradient id="linear-gradient-22" x1="-1762.473" y1="66.052" x2="-1762.411" y2="61.753" xlink:href="#linear-gradient-18"/>
    <linearGradient id="linear-gradient-23" x1="0.228" y1="0.162" x2="0.85" y2="0.831" xlink:href="#linear-gradient-17"/>
    <linearGradient id="linear-gradient-24" x1="-328.142" y1="3.284" x2="-327.112" y2="3.284" xlink:href="#linear-gradient-17"/>
    <linearGradient id="linear-gradient-25" x1="-253.765" y1="3.194" x2="-252.556" y2="3.194" xlink:href="#linear-gradient-17"/>
    <linearGradient id="linear-gradient-26" x1="0.486" y1="0.282" x2="0.972" y2="3.745" xlink:href="#linear-gradient-18"/>
    <linearGradient id="linear-gradient-27" x1="-112.311" y1="5.718" x2="-111.914" y2="7.54" xlink:href="#linear-gradient-18"/>
    <linearGradient id="linear-gradient-28" x1="-123.463" y1="5.806" x2="-124.791" y2="4.345" xlink:href="#linear-gradient-18"/>
    <linearGradient id="linear-gradient-29" x1="1.427" y1="-2.638" x2="0.272" y2="1.127" xlink:href="#linear-gradient-18"/>
    <linearGradient id="linear-gradient-30" x1="-205.05" y1="6.835" x2="-204.325" y2="9.044" xlink:href="#linear-gradient-18"/>
    <linearGradient id="linear-gradient-31" x1="-458.616" y1="413.892" x2="-458.616" y2="412.495" xlink:href="#linear-gradient-18"/>
    <linearGradient id="linear-gradient-32" x1="-563.855" y1="23.464" x2="-564.572" y2="21.877" gradientUnits="objectBoundingBox">
      <stop offset="0" stop-color="#444b8c"/>
      <stop offset="0.996" stop-color="#3e4177"/>
    </linearGradient>
    <linearGradient id="linear-gradient-33" x1="-1154.76" y1="774.39" x2="-1153.633" y2="772.014" xlink:href="#linear-gradient-18"/>
    <linearGradient id="linear-gradient-35" x1="0.727" y1="0.007" x2="0.207" y2="1.135" xlink:href="#linear-gradient-11"/>
    <linearGradient id="linear-gradient-36" x1="0.636" y1="1.231" x2="0.531" y2="0.666" xlink:href="#linear-gradient-10"/>
    <linearGradient id="linear-gradient-38" x1="0.253" y1="0.019" x2="0.711" y2="1.039" xlink:href="#linear-gradient-11"/>
    <linearGradient id="linear-gradient-39" x1="0.464" y1="0.369" x2="1.215" y2="1.306" xlink:href="#linear-gradient-10"/>
  </defs>
  <g id="Group_89575" data-name="Group 89575" transform="translate(-557.413 -1650.085)">
    <path id="Path_142733" data-name="Path 142733" d="M721.751,1718.206c-3.288-21.521-5.927-36.4-17.8-44.545-20.027-13.747-42.393,8.57-70.762-6.405-13.968-7.373-14.492-15.922-26.322-17.056-20.929-2.008-38.069,22.969-39.554,25.111a54.46,54.46,0,0,0-8.381,44.014c2.376,9.826,3.982,20,3.541,30.094-.767,17.574-.326,33.978,16.73,44.459,15.228,9.358,34.393,17.611,52.676,19.057a117.5,117.5,0,0,0,38.336-3.842C731.245,1792.606,726.272,1747.8,721.751,1718.206Z" fill="#f4f7fa"/>
    <g id="Group_89576" data-name="Group 89576">
      <path id="Path_142734" data-name="Path 142734" d="M725.7,1802.857l-162.28-1.426v4.22a2.236,2.236,0,0,0,1.667,2.293l45.887,8.31a6.231,6.231,0,0,0,1.647.078l111.315-9.475a2.126,2.126,0,0,0,1.764-2.238Z" fill="url(#linear-gradient)"/>
      <g id="Group_89575-2" data-name="Group 89575">
        <path id="Path_142735" data-name="Path 142735" d="M666.809,1796.016l-101.711,7.72a3.126,3.126,0,0,1-3.3-3.279v-78.1a3.421,3.421,0,0,1,3.3-3.53H666.809a2.98,2.98,0,0,1,2.712,3.191v70.6A3.267,3.267,0,0,1,666.809,1796.016Z" fill="url(#linear-gradient-2)"/>
        <path id="Path_142736" data-name="Path 142736" d="M668.431,1796.016l-101.711,7.72a3.127,3.127,0,0,1-3.3-3.279v-78.1a3.422,3.422,0,0,1,3.3-3.53H668.431a2.98,2.98,0,0,1,2.712,3.191v70.6A3.268,3.268,0,0,1,668.431,1796.016Z" fill="url(#linear-gradient-3)"/>
        <path id="Path_142737" data-name="Path 142737" d="M665.262,1791.038l-94.733,6.706a2.563,2.563,0,0,1-2.684-2.691v-68.377a2.8,2.8,0,0,1,2.684-2.893l94.733-.421a2.44,2.44,0,0,1,2.238,2.614v62.279A2.673,2.673,0,0,1,665.262,1791.038Z" fill="#d8dee8"/>
        <path id="Path_142738" data-name="Path 142738" d="M621.168,1720.963a1.179,1.179,0,1,1-1.17-1.313A1.253,1.253,0,0,1,621.168,1720.963Z" fill="#fff"/>
        <path id="Path_142739" data-name="Path 142739" d="M643.925,1774.595c-7.841-4.531-14.006,1.211-19.956-4.454-3.607-3.435-1.836-6-6.275-11.129-4.916-5.685-8.117-3.774-13.057-8.891-6.248-6.469-3.123-11.5-8.5-16.147-6.528-5.635-13.569-.42-19.783-5.824-2.68-2.331-4.151-5.719-4.919-9.323h-6.08a2.006,2.006,0,0,0-1.931,2.072v80.957a1.832,1.832,0,0,0,1.931,1.925l103.66-7.9a1.656,1.656,0,0,0,1.249-.821c-7.588-.3-12.25-3.029-15.23-5.854C649.2,1783.678,650.212,1778.228,643.925,1774.595Z" fill="#fff" opacity="0.48" style="mix-blend-mode: soft-light;isolation: isolate"/>
      </g>
      <path id="Path_142740" data-name="Path 142740" d="M672.485,1795.665l-109.065,8.127,47.554,8.612a6.231,6.231,0,0,0,1.647.078l113.079-9.625-51.48-7.136A8.186,8.186,0,0,0,672.485,1795.665Z" fill="url(#linear-gradient-3)"/>
      <path id="Path_142741" data-name="Path 142741" d="M579.335,1804l90.8-6.866,28.1,3.864-90.017,7.34Z" opacity="0.3" fill="url(#linear-gradient-3)" style="mix-blend-mode: multiply;isolation: isolate"/>
    </g>
    <g id="Group_89589" data-name="Group 89589">
      <g id="Group_89586" data-name="Group 89586">
        <g id="Group_89578" data-name="Group 89578">
          <path id="Path_142742" data-name="Path 142742" d="M673.525,1690.921,584.736,1688a5.206,5.206,0,0,0-5.4,5.247v86.538a5.145,5.145,0,0,0,5.4,5.193l88.789-3.791a5.09,5.09,0,0,0,4.642-5.206v-79.9A5.029,5.029,0,0,0,673.525,1690.921Z" fill="url(#linear-gradient-6)"/>
          <path id="Path_142743" data-name="Path 142743" d="M584.736,1783.257a3.5,3.5,0,0,1-3.672-3.536V1693.3a3.545,3.545,0,0,1,3.672-3.571l88.789,2.8a3.422,3.422,0,0,1,3.164,3.513v80a3.464,3.464,0,0,1-3.164,3.544Z" fill="#fff" opacity="0.74" style="mix-blend-mode: soft-light;isolation: isolate"/>
          <path id="Path_142744" data-name="Path 142744" d="M673.525,1690.921,584.736,1688a5.206,5.206,0,0,0-5.4,5.247v3.89l98.832,2.534v-3.593A5.029,5.029,0,0,0,673.525,1690.921Z" fill="url(#linear-gradient-7)"/>
          <path id="Path_142745" data-name="Path 142745" d="M588.938,1693a1.7,1.7,0,0,1-1.751,1.714,1.823,1.823,0,0,1-1.756-1.816,1.7,1.7,0,0,1,1.756-1.713A1.822,1.822,0,0,1,588.938,1693Z" fill="#fff"/>
          <path id="Path_142746" data-name="Path 142746" d="M595.051,1693.181a1.686,1.686,0,0,1-1.735,1.7,1.808,1.808,0,0,1-1.739-1.806,1.686,1.686,0,0,1,1.739-1.7A1.809,1.809,0,0,1,595.051,1693.181Z" fill="#fff"/>
          <path id="Path_142747" data-name="Path 142747" d="M601.106,1693.357a1.674,1.674,0,0,1-1.719,1.7,1.8,1.8,0,0,1-1.722-1.8,1.675,1.675,0,0,1,1.722-1.7A1.8,1.8,0,0,1,601.106,1693.357Z" fill="#fff"/>
          <g id="Group_89577" data-name="Group 89577" opacity="0.5" style="mix-blend-mode: soft-light;isolation: isolate">
            <path id="Path_142748" data-name="Path 142748" d="M639.012,1724.189c-10.37-15.09-28.32-10.289-39.676-26.962a36.5,36.5,0,0,1-4.39-8.888l-10.21-.336a5.206,5.206,0,0,0-5.4,5.247v86.538a5.145,5.145,0,0,0,5.4,5.193l85.537-3.652c-1.959-2.826-19.026-13.294-23.435-29.366C642.806,1737.265,645.269,1733.293,639.012,1724.189Z" fill="#fff"/>
          </g>
        </g>
        <g id="Group_89585" data-name="Group 89585">
          <path id="Path_142749" data-name="Path 142749" d="M673.342,1722.8l-87.385-.1v-2.856l87.385.354Z" fill="#fff"/>
          <path id="Path_142750" data-name="Path 142750" d="M673.342,1716.718l-87.385-.743v-7.321l87.385,1.383Z" fill="#fff"/>
          <g id="Group_89580" data-name="Group 89580">
            <g id="Group_89579" data-name="Group 89579">
              <path id="Path_142751" data-name="Path 142751" d="M599.479,1738.236l-11.59.068v-11.073l11.59.014Zm-10.238-1.449,8.5-.041v-8l-8.5,0Z" fill="#fff"/>
            </g>
            <path id="Path_142752" data-name="Path 142752" d="M671.428,1730.2l-67.119.039v-2.988l67.119.071Z" fill="#fff"/>
            <path id="Path_142753" data-name="Path 142753" d="M671.428,1734.837l-67.119.216v-2.822l67.119-.112Z" fill="#fff"/>
          </g>
          <g id="Group_89582" data-name="Group 89582">
            <g id="Group_89581" data-name="Group 89581">
              <path id="Path_142754" data-name="Path 142754" d="M599.479,1754.556l-11.59.19v-11.073l11.59-.108Zm-10.238-1.342,8.5-.132v-8l-8.5.087Z" fill="#fff"/>
            </g>
            <path id="Path_142755" data-name="Path 142755" d="M671.428,1745.872l-67.119.636v-2.988l67.119-.526Z" fill="#fff"/>
            <path id="Path_142756" data-name="Path 142756" d="M671.428,1750.509l-67.119.812V1748.5l67.119-.709Z" fill="#fff"/>
          </g>
          <g id="Group_89584" data-name="Group 89584">
            <g id="Group_89583" data-name="Group 89583">
              <path id="Path_142757" data-name="Path 142757" d="M599.479,1770.876l-11.59.313v-11.074l11.59-.23Zm-10.238-1.066,8.5-.224v-8.169l-8.5.179Z" fill="#fff"/>
            </g>
            <path id="Path_142758" data-name="Path 142758" d="M671.428,1761.544l-67.119,1.233v-2.988l67.119-1.123Z" fill="#fff"/>
            <path id="Path_142759" data-name="Path 142759" d="M671.428,1766.181l-67.119,1.409v-2.822l67.119-1.306Z" fill="#fff"/>
          </g>
        </g>
      </g>
      <g id="Group_89587" data-name="Group 89587">
        <path id="Path_142760" data-name="Path 142760" d="M591.917,1737.723a1.273,1.273,0,0,1-.883-.343l-3.482-3.294a1.152,1.152,0,0,1,0-1.687,1.3,1.3,0,0,1,1.775,0l2.417,2.292,5.579-7.678a1.272,1.272,0,0,1,1.722-.3,1.152,1.152,0,0,1,.311,1.647l-6.413,8.845a1.273,1.273,0,0,1-.914.512C591.992,1737.721,591.955,1737.723,591.917,1737.723Z" fill="url(#linear-gradient-8)"/>
      </g>
      <g id="Group_89588" data-name="Group 89588">
        <path id="Path_142761" data-name="Path 142761" d="M592.221,1754.215a1.275,1.275,0,0,1-.883-.343l-3.482-3.294a1.151,1.151,0,0,1,0-1.688,1.3,1.3,0,0,1,1.775,0l2.417,2.292,5.578-7.677a1.273,1.273,0,0,1,1.723-.295,1.153,1.153,0,0,1,.31,1.647l-6.413,8.845a1.267,1.267,0,0,1-.913.511A1.058,1.058,0,0,1,592.221,1754.215Z" fill="url(#linear-gradient-8)"/>
      </g>
    </g>
    <g id="Group_89593" data-name="Group 89593">
      <g id="Group_89591" data-name="Group 89591">
        <path id="Path_142762" data-name="Path 142762" d="M692.835,1693.013a18.851,18.851,0,0,1-19.5,19.225c-11.388-.349-20.965-10.184-20.965-21.953a18.8,18.8,0,0,1,20.965-19.127A22.219,22.219,0,0,1,692.835,1693.013Z" fill="url(#linear-gradient-10)"/>
        <path id="Path_142763" data-name="Path 142763" d="M695.791,1692.069a18.851,18.851,0,0,1-19.5,19.225c-11.387-.349-20.964-10.184-20.964-21.953a18.8,18.8,0,0,1,20.964-19.127A22.219,22.219,0,0,1,695.791,1692.069Z" fill="url(#linear-gradient-11)"/>
        <path id="Path_142764" data-name="Path 142764" d="M694.933,1692.011a17.991,17.991,0,0,1-18.645,18.348c-10.858-.352-19.975-9.738-19.975-20.951a17.943,17.943,0,0,1,19.975-18.258A21.2,21.2,0,0,1,694.933,1692.011Z" fill="url(#linear-gradient-12)"/>
        <path id="Path_142765" data-name="Path 142765" d="M694.317,1691.97a17.374,17.374,0,0,1-18.029,17.72,20.352,20.352,0,0,1-19.271-20.235,17.331,17.331,0,0,1,19.271-17.637A20.475,20.475,0,0,1,694.317,1691.97Z" fill="url(#linear-gradient-13)"/>
        <g id="Group_89590" data-name="Group 89590">
          <path id="Path_142766" data-name="Path 142766" d="M676.185,1675.262h0a1.1,1.1,0,0,1,.973,1.081v1.863a27.44,27.44,0,0,1,3.229.56q1.192.281,2.369.667a1.09,1.09,0,0,1,.742,1.119l-.229,2.336a.875.875,0,0,1-1.25.727,13.714,13.714,0,0,0-1.589-.592,14.477,14.477,0,0,0-3-.56l-.275-.022v5.336a14.033,14.033,0,0,1,6.2,3.168,6.7,6.7,0,0,1,1.985,4.945,6.511,6.511,0,0,1-2.2,5.141,10.014,10.014,0,0,1-6.209,2.186v2.057a.935.935,0,0,1-.973.95h-.018a1.034,1.034,0,0,1-.977-1.032v-2.029l-.433-.019a28.456,28.456,0,0,1-3.6-.384,23.435,23.435,0,0,1-2.486-.571,1.07,1.07,0,0,1-.779-1.108l.269-3a.949.949,0,0,1,1.328-.784,19.563,19.563,0,0,0,2.186.718,19.121,19.121,0,0,0,3.495.583l.017-5.936a12.853,12.853,0,0,1-6.031-2.96,6.774,6.774,0,0,1-2-5.036,5.886,5.886,0,0,1,2.166-4.892,9.6,9.6,0,0,1,6.106-1.7v-1.905A.879.879,0,0,1,676.185,1675.262Zm-.976,7.123a3.288,3.288,0,0,0-1.945.686,2,2,0,0,0-.7,1.6,2.151,2.151,0,0,0,.645,1.592,4.572,4.572,0,0,0,2,1.019Zm1.725,10.75v5.444a3.015,3.015,0,0,0,2.082-.648,2.328,2.328,0,0,0,.725-1.832,2.5,2.5,0,0,0-.674-1.792A4.942,4.942,0,0,0,676.934,1693.135Z" fill="url(#linear-gradient-14)"/>
        </g>
        <path id="Path_142767" data-name="Path 142767" d="M673.026,1694.448c.609-6.016,6.138-8.563,5.417-14.1-.445-3.411-3.03-6.285-5.914-8.53a17.334,17.334,0,0,0-15.512,17.634,20.351,20.351,0,0,0,19.271,20.235,18.061,18.061,0,0,0,2.978-.145C675.1,1705.4,672.5,1699.617,673.026,1694.448Z" opacity="0.3" fill="url(#linear-gradient-15)" style="mix-blend-mode: multiply;isolation: isolate"/>
      </g>
      <g id="Group_89592" data-name="Group 89592">
        <path id="Path_142768" data-name="Path 142768" d="M691.9,1679.475v.085a36.576,36.576,0,0,0-2.89-3.261c-.015-.037-.04-.073-.055-.109a19.285,19.285,0,0,0-1.84-3.4,18.711,18.711,0,0,0-2.938-3.363c-.139-.137-.3-.258-.448-.387l-.23-.191-.112-.1c-.04-.033-.081-.061-.12-.092l-.479-.366-.119-.092-.127-.085-.25-.172c-.329-.238-.683-.444-1.029-.662-.177-.106-.361-.2-.541-.3-.089-.05-.179-.1-.27-.15l-.279-.139a17.45,17.45,0,0,0-4.759-1.589l-.624-.1c-.208-.029-.42-.047-.627-.072l-.314-.035-.315-.017-.316-.02c-.1-.005-.208-.016-.314-.013l-.629-.005c-.051,0-.107,0-.155,0l-.14.008-.28.015-.277.014-.074,0-.285.021-.382.027-.285.021-.048,0-.017,0s-.1,0,.067,0l-.616.091c-.1.016-.2.025-.306.048l-.3.061-.3.059-.151.03c-.05.01-.1.025-.149.037-.2.05-.4.1-.591.15-.1.022-.2.056-.292.085l-.288.09-.289.087-.282.1c-.188.07-.376.132-.559.207s-.364.154-.544.232a15.609,15.609,0,0,0-3.828,2.408l-.207.173-.2.184c-.13.122-.265.239-.389.364l-.015.015c-.241.25-.486.485-.7.743-.057.063-.114.127-.17.191l-.085.094-.079.1c-.106.13-.211.262-.315.391-.026.032-.054.063-.079.1l-.072.1c-.049.068-.1.135-.145.2-.094.135-.2.259-.281.4a14.853,14.853,0,0,0-1.627,3.155,14.4,14.4,0,0,0-.721,2.814q-.021.159-.042.312c-.012.1-.032.2-.036.3-.016.2-.032.388-.048.569s-.011.36-.018.525c0,.084-.009.165-.01.243s.005.158.006.233c0,.15.005.292.007.425a.571.571,0,0,0,.007.082l.01.073c0,.047.011.04.015.083s.007.053.011.053h7.032l-4.273,4.738-9.934,10.865-14.208-15.6h7.47a1.083,1.083,0,0,0,.034-.228c.029-.217.06-.429.094-.686.02-.128.037-.248.057-.386.011-.067.02-.131.031-.2s.019-.144.033-.2c.052-.258.107-.531.165-.821.031-.144.061-.292.093-.444s.074-.305.115-.463c.081-.315.16-.647.258-.987s.214-.69.326-1.056c.055-.184.126-.364.193-.551s.136-.373.207-.565a26.991,26.991,0,0,1,2.43-4.847,26.606,26.606,0,0,1,3.991-4.869c.194-.2.407-.378.614-.567l.313-.281.159-.141.162-.135c.219-.178.44-.359.66-.54l.167-.134.173-.128c.116-.087.232-.172.348-.258.456-.349.947-.664,1.434-.989.246-.158.5-.306.753-.458l.379-.227.391-.211a25.294,25.294,0,0,1,6.76-2.52l.9-.178c.3-.055.6-.094.9-.14l.453-.064.456-.045.455-.043c.152-.014.3-.031.455-.037.3-.014.608-.05.912-.064.075,0,.152-.032.228-.032h.228l.454.026.454.015c.152,0,.3.02.454.027l.9.055c.205,0,.071.005.123.006l.024,0,.048.005.094.013.19.023.378.047.19.024.094.011.117.016.478.071.479.073.237.037c.078.013.147.03.222.045.292.062.583.125.875.186.145.029.288.07.432.108l.43.114.427.114.422.134c.28.091.561.176.836.274l.819.308a23.5,23.5,0,0,1,5.829,3.339l.318.248c.1.086.205.172.307.26.2.173.407.34.6.517.386.362.771.709,1.122,1.085.09.092.177.185.267.276l.131.137.127.142.5.566.123.141.118.145c.075.1.153.194.229.29.152.193.311.377.448.577a23.606,23.606,0,0,1,1.973,3.15q.4.762.709,1.512a22.247,22.247,0,0,1,1.319,4.264c.029.163.06.322.088.479s.061.309.079.461c.041.305.082.6.119.877s.049.554.073.811c.009.128.022.253.03.377s.029.242.035.359C691.859,1679.045,691.9,1679.269,691.9,1679.475Z" fill="url(#linear-gradient-16)"/>
        <path id="Path_142769" data-name="Path 142769" d="M691.9,1679.475v.085a36.576,36.576,0,0,0-2.89-3.261c-.015-.037-.04-.073-.055-.109a19.285,19.285,0,0,0-1.84-3.4,18.711,18.711,0,0,0-2.938-3.363c-.139-.137-.3-.258-.448-.387l-.23-.191-.112-.1c-.04-.033-.081-.061-.12-.092l-.479-.366-.119-.092-.127-.085-.25-.172c-.329-.238-.683-.444-1.029-.662-.177-.106-.361-.2-.541-.3-.089-.05-.179-.1-.27-.15l-.279-.139a17.45,17.45,0,0,0-4.759-1.589l-.624-.1c-.208-.029-.42-.047-.627-.072l-.314-.035-.315-.017-.316-.02c-.1-.005-.208-.016-.314-.013l-.629-.005c-.051,0-.107,0-.155,0l-.14.008-.28.015-.277.014-.074,0-.285.021-.382.027-.285.021-.048,0-.017,0s-.1,0,.067,0l-.616.091c-.1.016-.2.025-.306.048l-.3.061-.3.059-.151.03c-.05.01-.1.025-.149.037-.2.05-.4.1-.591.15-.1.022-.2.056-.292.085l-.288.09-.289.087-.282.1c-.188.07-.376.132-.559.207s-.364.154-.544.232a15.609,15.609,0,0,0-3.828,2.408l-.207.173-.2.184c-.13.122-.265.239-.389.364l-.015.015a18.5,18.5,0,0,1,28.312.288q.4.762.709,1.512a22.247,22.247,0,0,1,1.319,4.264c.029.163.06.322.088.479s.061.309.079.461c.041.305.082.6.119.877s.049.554.073.811c.009.128.022.253.03.377s.029.242.035.359C691.859,1679.045,691.9,1679.269,691.9,1679.475Z" opacity="0.4" fill="url(#linear-gradient-17)" style="mix-blend-mode: multiply;isolation: isolate"/>
      </g>
    </g>
    <g id="Group_89595" data-name="Group 89595">
      <path id="Path_142770" data-name="Path 142770" d="M668.578,1722.452s.471-1.77.137-2.222-2.379-2.262-2.183-1.672a3.817,3.817,0,0,0,.492.984s-1.1.511-.393,1.278.944.944.983,1.632S668.106,1723.376,668.578,1722.452Z" fill="url(#linear-gradient-18)"/>
      <path id="Path_142771" data-name="Path 142771" d="M688.223,1798.846a15.746,15.746,0,0,1,.218,2.075c-.032.545-6.077.823-6.138.415s1-1.057,1.745-1.286,2.931-.84,2.931-.84Z" fill="url(#linear-gradient-19)"/>
      <path id="Path_142772" data-name="Path 142772" d="M686.755,1797.32l.193,1.9a1.375,1.375,0,0,0,1.321.106l.31-2.072Z" fill="url(#linear-gradient-20)"/>
      <path id="Path_142773" data-name="Path 142773" d="M699.008,1801.327a15.775,15.775,0,0,1,.218,2.075c-.031.545-6.077.824-6.138.416s1-1.057,1.746-1.286,2.93-.841,2.93-.841Z" fill="url(#linear-gradient-21)"/>
      <path id="Path_142774" data-name="Path 142774" d="M697.541,1799.8l.193,1.9a1.375,1.375,0,0,0,1.321.106l.309-2.071Z" fill="url(#linear-gradient-22)"/>
      <path id="Path_142775" data-name="Path 142775" d="M687.852,1747.633q-1.047,2.125-2.1,4.25c-.562,8.084-.841,16.875-.662,26.276.134,6.995.507,13.62,1.044,19.84l2.843-.13a28.373,28.373,0,0,0,3.136-11.923c.155-5.3-1.453-6.009-1.351-11.087.132-6.582,2.892-8.338,4.363-16.256a42.376,42.376,0,0,0,.49-11.78Z" fill="url(#linear-gradient-23)"/>
      <path id="Path_142776" data-name="Path 142776" d="M695.619,1746.823l-4.194.437c-2.517,4.38-3.22,8.939-2.778,10.956.624,2.853,2.278,3.767,2.187,6.632-.09,2.834-1.76,3.569-2.82,6.91-.733,2.313-.539,4.439-.122,8.6.84,8.378,2.863,10.94,1.169,13.686a6.185,6.185,0,0,1-3.049,2.42c.041.513.082,1.029.126,1.537l2.843-.13a28.377,28.377,0,0,0,3.136-11.923c.155-5.3-1.453-6.009-1.351-11.087.132-6.582,2.892-8.338,4.363-16.256A42.376,42.376,0,0,0,695.619,1746.823Z" opacity="0.3" fill="url(#linear-gradient-24)" style="mix-blend-mode: multiply;isolation: isolate"/>
      <path id="Path_142777" data-name="Path 142777" d="M691.611,1750.183c1.312,7.153,2.471,14.808,3.375,22.926,1.091,9.8,1.674,19.043,1.9,27.623l3.119.089c4.1-8.106,4.348-13.6,3.757-17.18a51.819,51.819,0,0,1-.987-8.124,57.067,57.067,0,0,1,.306-7.536c.492-5.65,1.089-6.884,1.175-11.2.081-4.056.1-6.108-1.06-7.306C700.148,1746.315,692.213,1749.9,691.611,1750.183Z" fill="url(#linear-gradient-25)"/>
      <path id="Path_142778" data-name="Path 142778" d="M669.122,1722.179l-2.075-.144c-1.631,6.592-.461,12.987,3.221,15.339,5.753,3.674,16.444-3.248,18.761-10.786,1.017-3.309.785-8.084-1.247-9.012-.564-.257-1.44-.3-3.336.768-5.665,3.18-5.814,9.19-8.693,9.7C674.472,1728.27,672.405,1727.453,669.122,1722.179Z" fill="url(#linear-gradient-26)"/>
      <path id="Path_142779" data-name="Path 142779" d="M684.96,1753.333c-1-1.653.255-3.247.54-6.38.323-3.549-1.045-4.14-2.4-10.023-.9-3.913-1.763-7.669-.732-12.065.494-2.107,1.331-5.681,4.289-7.408,1.526-.89,3.61-.8,7.716-.586,5.077.265,7.616.4,9.509,1.4.277.146,6.037,3.279,6.434,8.385.4,5.2-5.257,5.9-6.012,12.827-.339,3.112.265,7.9.657,11,.376,2.981.635,3.744.047,4.646-1.418,2.175-5.758,1.555-14.437.315C687.169,1754.954,685.7,1754.567,684.96,1753.333Z" fill="url(#linear-gradient-27)"/>
      <path id="Path_142780" data-name="Path 142780" d="M698.166,1738.363c.367,1.351,1.687,2.36,2.606,5.646.2.71,1.611,5.762-.221,7.005-1.059.719-2.009-.642-4.579-.82-4.452-.308-6.573,3.434-9.481,2.412a3.973,3.973,0,0,1-1.836-1.424,2.939,2.939,0,0,0,.3,2.151c.744,1.234,2.209,1.621,5.614,2.107,8.679,1.24,13.019,1.86,14.437-.315.588-.9.329-1.665-.047-4.646-.392-3.1-1-7.889-.657-11,.755-6.931,6.415-7.629,6.012-12.827a8.054,8.054,0,0,0-1.3-3.7C701.836,1725.853,697.013,1734.118,698.166,1738.363Z" opacity="0.3" fill="url(#linear-gradient-28)" style="mix-blend-mode: multiply;isolation: isolate"/>
      <path id="Path_142781" data-name="Path 142781" d="M707.236,1748.587l-1.437.918a3.361,3.361,0,0,0-1.788-1.1c-1.05-.231-2.256.1-2.284.435-.023.269.712.54.825.582.917.338,1.6.057,1.967.425a2.833,2.833,0,0,0,.67.6,1.994,1.994,0,0,0,.257.132c.612.238,1.661-.827,1.751-.92Z" fill="url(#linear-gradient-29)"/>
      <path id="Path_142782" data-name="Path 142782" d="M702.991,1729.745c-1.039-2.489-1.759-6.3-.118-11.959,10.816,4.261,16.332,14.365,14.179,22.374-1.776,6.6-8.235,9.818-9.676,10.495q-.5-1.145-1.006-2.289c1.67-1.86,3.551-4.609,3.285-7.747C709.286,1736.269,705.095,1734.784,702.991,1729.745Z" fill="url(#linear-gradient-30)"/>
      <path id="Path_142783" data-name="Path 142783" d="M694.642,1711.75a11.558,11.558,0,0,0,.673,3.309c.53,1.28,3.322,2.085,3.888,2.371s-1.06,1.122-2.693,1.286-6.3-.207-7.137-.826.675-.572,1.841-1,1.839-2.707,1.634-3.742S694.642,1711.75,694.642,1711.75Z" fill="url(#linear-gradient-31)"/>
      <path id="Path_142784" data-name="Path 142784" d="M692.059,1711.064c-.847-.832-.965-.93-1.058-1.217a2.773,2.773,0,0,1,1.7-3.126c.061-.021.849-.273,1.15.069.255.29-.121.691.058,1.251.167.524.621.563,1.463,1.25.693.565,1.124.917,1.223,1.412a2.41,2.41,0,0,1-2.122,2.457C694.081,1713.146,693.974,1712.945,692.059,1711.064Z" fill="url(#linear-gradient-32)"/>
      <g id="Group_89594" data-name="Group 89594">
        <path id="Path_142785" data-name="Path 142785" d="M694.367,1713.318a2.408,2.408,0,0,1-2.273.683c-1.228-.3-.915-3.122-.016-3.572a1.594,1.594,0,0,1,1.255.06c.242.116.309.238.709.421.368.168.484.145.583.264.124.148.178.468-.211,1.239a.687.687,0,0,1,.766-.108.431.431,0,0,1,.137.191C695.434,1712.845,695.071,1713.2,694.367,1713.318Z" fill="url(#linear-gradient-33)"/>
      </g>
    </g>
    <g id="Group_89597" data-name="Group 89597">
      <path id="Path_142786" data-name="Path 142786" d="M660.8,1719.832a13.366,13.366,0,0,1-13.828,13.63,15.65,15.65,0,0,1-14.863-15.564,13.329,13.329,0,0,1,14.863-13.561A15.752,15.752,0,0,1,660.8,1719.832Z" fill="url(#linear-gradient-10)"/>
      <path id="Path_142787" data-name="Path 142787" d="M662.9,1719.162a13.366,13.366,0,0,1-13.827,13.631,15.65,15.65,0,0,1-14.864-15.565,13.328,13.328,0,0,1,14.864-13.56A15.752,15.752,0,0,1,662.9,1719.162Z" fill="url(#linear-gradient-35)"/>
      <path id="Path_142788" data-name="Path 142788" d="M662.291,1719.121a12.755,12.755,0,0,1-13.218,13.008,14.937,14.937,0,0,1-14.163-14.853,12.721,12.721,0,0,1,14.163-12.945A15.031,15.031,0,0,1,662.291,1719.121Z" fill="url(#linear-gradient-36)"/>
      <path id="Path_142789" data-name="Path 142789" d="M661.855,1719.092a12.318,12.318,0,0,1-12.782,12.563,14.428,14.428,0,0,1-13.663-14.346,12.287,12.287,0,0,1,13.663-12.5A14.516,14.516,0,0,1,661.855,1719.092Z" fill="url(#linear-gradient-13)"/>
      <g id="Group_89596" data-name="Group 89596">
        <path id="Path_142790" data-name="Path 142790" d="M649,1707.246h0a.782.782,0,0,1,.69.767v1.321a19.366,19.366,0,0,1,2.29.4q.844.2,1.679.473a.772.772,0,0,1,.526.793l-.162,1.656a.622.622,0,0,1-.887.516,9.511,9.511,0,0,0-1.126-.42,10.2,10.2,0,0,0-2.125-.4l-.195-.016v3.784a9.931,9.931,0,0,1,4.392,2.246,4.746,4.746,0,0,1,1.407,3.505,4.615,4.615,0,0,1-1.556,3.645,7.093,7.093,0,0,1-4.4,1.55v1.458a.663.663,0,0,1-.69.674h-.012a.735.735,0,0,1-.693-.732v-1.438l-.307-.014a20.026,20.026,0,0,1-2.55-.272,16.291,16.291,0,0,1-1.762-.4.759.759,0,0,1-.553-.785l.191-2.13a.673.673,0,0,1,.941-.555,13.866,13.866,0,0,0,1.55.508,13.553,13.553,0,0,0,2.478.414l.012-4.208a9.122,9.122,0,0,1-4.276-2.1,4.805,4.805,0,0,1-1.417-3.57,4.176,4.176,0,0,1,1.536-3.469,6.809,6.809,0,0,1,4.329-1.209v-1.35A.624.624,0,0,1,649,1707.246Zm-.692,5.051a2.332,2.332,0,0,0-1.379.486,1.417,1.417,0,0,0-.495,1.136,1.524,1.524,0,0,0,.458,1.128,3.243,3.243,0,0,0,1.416.723Zm1.223,7.621v3.859a2.134,2.134,0,0,0,1.477-.458,1.656,1.656,0,0,0,.513-1.3,1.777,1.777,0,0,0-.477-1.27A3.508,3.508,0,0,0,649.53,1719.918Z" fill="url(#linear-gradient-38)"/>
      </g>
      <path id="Path_142791" data-name="Path 142791" d="M646.759,1720.849c.432-4.265,4.352-6.071,3.841-9.994-.315-2.419-2.148-4.457-4.193-6.048a12.289,12.289,0,0,0-11,12.5,14.43,14.43,0,0,0,13.662,14.347,12.9,12.9,0,0,0,2.112-.1C648.233,1728.616,646.388,1724.514,646.759,1720.849Z" opacity="0.3" fill="url(#linear-gradient-39)" style="mix-blend-mode: multiply;isolation: isolate"/>
    </g>
  </g>
</svg>
