<svg xmlns="http://www.w3.org/2000/svg" width="79.1" height="79.1" viewBox="0 0 79.1 79.1">
  <g id="flat" transform="translate(-216.45 -216.45)">
    <path id="Path_163755" data-name="Path 163755" d="M230.088,216.45h8.183V221.9h-8.183Z" fill="#f3af3e"/>
    <path id="Path_163756" data-name="Path 163756" d="M228.724,216.45h2.728v12.274h-2.728Z" fill="#cbcbcb"/>
    <path id="Path_163757" data-name="Path 163757" d="M216.45,236.907l13.638-9.547,13.638,9.547Z" fill="#b94137"/>
    <path id="Path_163758" data-name="Path 163758" d="M243.726,245.09H295.55v50.46H243.726Z" fill="#4799cf"/>
    <path id="Path_163759" data-name="Path 163759" d="M216.45,290.1h27.276v5.455H216.45Z" fill="#cbcbcb"/>
    <path id="Path_163760" data-name="Path 163760" d="M216.45,292.822h27.276v2.728H216.45Z" fill="#c3c3c3"/>
    <path id="Path_163761" data-name="Path 163761" d="M258.728,290.1H286v5.455H258.728Z" fill="#985713"/>
    <path id="Path_163762" data-name="Path 163762" d="M292.069,277.965l-1.614-.807a1.364,1.364,0,0,0-2.338-1.4l-.109.181-1.266-.633.481-.962a1.364,1.364,0,0,0-2.43-1.239l-.009.019-.482.963-.23-.115-.69-.665,1.029-1.543a1.364,1.364,0,0,0-2.27-1.513l-.754,1.132-1.938-1.869-.021-.018-.046-.04a.948.948,0,0,0-.08-.062c-.017-.012-.032-.024-.049-.035s-.061-.038-.093-.055l-.046-.026a1.37,1.37,0,0,0-.148-.064l-6.137-2.216c-.047-.017-.094-.03-.141-.042l-.042-.009c-.037-.008-.074-.014-.112-.019l-.036,0a1.166,1.166,0,0,0-.132-.007h-2.728a1.364,1.364,0,0,0-2.728,0H264.4l-3.881-1.294-.007,0c-.032-.011-.065-.019-.1-.027l-.034-.009a.882.882,0,0,0-.087-.015l-.048-.008-.06,0c-.025,0-.05-.005-.074-.005h-.023A4.09,4.09,0,0,0,256,261.457a6.819,6.819,0,0,0-6.819,6.819l5.455-.512,3.389-.529-2.542,2.983-4.066.452a1.364,1.364,0,0,0,.148,2.718c.051,0,.1,0,.152-.008l4.6-.512a1.36,1.36,0,0,0,.888-.471l3.324-3.9,2.286.762v1.454l-.833.462a1.364,1.364,0,0,0,1.3,2.4l.021-.011,1.534-.853a1.364,1.364,0,0,0,.7-1.192v-1.875h1.363v.852a1.364,1.364,0,1,0,2.728,0v-.852H271v3.87l-1.294,3.881a1.369,1.369,0,0,0,0,.863l1.1,3.292-2.131,2.131A1.364,1.364,0,1,0,270.6,285.6l2.728-2.727a1.366,1.366,0,0,0,.329-1.4l-1.221-3.659.909-2.728h.762l1.053,3.159a1.363,1.363,0,0,0,.33.533l2.032,2.033-.924,1.848a1.364,1.364,0,0,0,2.43,1.239l.009-.019,1.364-2.728a1.363,1.363,0,0,0-.255-1.574l-2.5-2.5-.987-2.963,1.835-1.742,1.353,1.3-.435.653a1.364,1.364,0,1,0,2.261,1.525l.008-.012.162-.242.485.468a1.365,1.365,0,0,0,.336.238l.417.209-.207.413a1.364,1.364,0,0,0,2.44,1.22l.207-.414,1.074.537-.358.594a1.363,1.363,0,1,0,2.326,1.423l.01-.015.468-.778,1.806.9a1.364,1.364,0,0,0,1.22-2.439Zm-16.106-6.942-1.414,1.343h-.82v-2.148h0Z" fill="#cdcdcd"/>
    <circle id="Ellipse_4268" data-name="Ellipse 4268" cx="0.902" cy="0.902" r="0.902" transform="translate(255.148 263.572)" fill="#a8a8a8"/>
    <path id="Path_163763" data-name="Path 163763" d="M261.455,284.64h21.821V290.1H261.455Z" fill="#985713"/>
    <path id="Path_163764" data-name="Path 163764" d="M261.455,287.367h21.821V290.1H261.455Z" fill="#834b10"/>
    <path id="Path_163765" data-name="Path 163765" d="M258.728,292.822H286v2.728H258.728Z" fill="#834b10"/>
    <path id="Path_163766" data-name="Path 163766" d="M230.088,227.36h53.188l12.274,9.547H243.726Z" fill="#dc4d41"/>
    <path id="Path_163767" data-name="Path 163767" d="M243.726,236.907H295.55v8.183H243.726Z" fill="#cbcbcb"/>
    <path id="Path_163768" data-name="Path 163768" d="M243.726,236.907H295.55v2.727H243.726Z" fill="#a8a8a8"/>
    <path id="Path_163769" data-name="Path 163769" d="M262.819,258.728h2.728v4.091h-2.728Z" fill="#6cbae5"/>
    <path id="Path_163770" data-name="Path 163770" d="M281.912,261.455h2.728v5.455h-2.728Z" fill="#6cbae5"/>
    <path id="Path_163771" data-name="Path 163771" d="M216.45,231.452h2.728v6.819H216.45Z" fill="#cbcbcb"/>
    <path id="Path_163772" data-name="Path 163772" d="M241,231.452h2.728v8.182H241Z" fill="#cbcbcb"/>
    <path id="Path_163773" data-name="Path 163773" d="M216.45,236.907h27.276V290.1H216.45Z" fill="#d9d9d9"/>
    <path id="Path_163774" data-name="Path 163774" d="M227.36,245.09v5.455H221.9V245.09a2.728,2.728,0,1,1,5.455,0Z" fill="#744630"/>
    <path id="Path_163775" data-name="Path 163775" d="M238.271,245.09v5.455h-5.455V245.09a2.728,2.728,0,1,1,5.455,0Z" fill="#744630"/>
    <path id="Path_163776" data-name="Path 163776" d="M226,245.09v5.455H221.9V245.09a2.113,2.113,0,1,1,4.092,0Z" fill="#8f563b"/>
    <path id="Path_163777" data-name="Path 163777" d="M236.907,245.09v5.455h-4.091V245.09a2.113,2.113,0,1,1,4.091,0Z" fill="#8f563b"/>
    <path id="Path_163778" data-name="Path 163778" d="M234.179,283.276V290.1H226v-6.819a4.092,4.092,0,0,1,3.409-4.034,3.991,3.991,0,0,1,.682-.058A4.091,4.091,0,0,1,234.179,283.276Z" fill="#744630"/>
    <path id="Path_163779" data-name="Path 163779" d="M232.816,283.276V290.1H226v-6.819a3.458,3.458,0,1,1,6.819,0Z" fill="#8f563b"/>
    <path id="Path_163780" data-name="Path 163780" d="M216.45,254.636h27.276v2.728H216.45Z" fill="#cbcbcb"/>
    <path id="Path_163781" data-name="Path 163781" d="M216.45,272.366h27.276v2.727H216.45Z" fill="#cbcbcb"/>
    <path id="Path_163782" data-name="Path 163782" d="M243.726,245.09H295.55v2.727H243.726Z" fill="#428dc5"/>
    <path id="Path_163783" data-name="Path 163783" d="M281.912,245.09h2.728v13.638h-2.728Z" fill="#6cbae5"/>
    <path id="Path_163784" data-name="Path 163784" d="M262.819,245.09h2.728V256h-2.728Z" fill="#6cbae5"/>
    <path id="Path_163785" data-name="Path 163785" d="M281.912,245.09h2.728v2.727h-2.728Z" fill="#4799cf"/>
    <path id="Path_163786" data-name="Path 163786" d="M262.819,245.09h2.728v2.727h-2.728Z" fill="#4799cf"/>
    <path id="Path_163787" data-name="Path 163787" d="M216.45,236.907h27.276v2.727H216.45Z" fill="#cbcbcb"/>
    <path id="Path_163788" data-name="Path 163788" d="M227.36,262.819v5.455H221.9v-5.455a2.728,2.728,0,1,1,5.455,0Z" fill="#744630"/>
    <path id="Path_163789" data-name="Path 163789" d="M238.271,262.819v5.455h-5.455v-5.455a2.728,2.728,0,1,1,5.455,0Z" fill="#744630"/>
    <g id="Group_94852" data-name="Group 94852">
      <path id="Path_163790" data-name="Path 163790" d="M226,262.819v5.455H221.9v-5.455a2.113,2.113,0,1,1,4.092,0Z" fill="#8f563b"/>
      <path id="Path_163791" data-name="Path 163791" d="M236.907,262.819v5.455h-4.091v-5.455a2.113,2.113,0,1,1,4.091,0Z" fill="#8f563b"/>
    </g>
  </g>
</svg>
