<svg xmlns="http://www.w3.org/2000/svg" width="267" height="170.823" viewBox="0 0 267 170.823">
  <g id="Grupo_28528" data-name="Grupo 28528" transform="translate(-1149.071 -899.413)">
    <path id="Trazado_39190" data-name="Trazado 39190" d="M1678.578,1148.961c-3.622-7.244-9.991-17.984-9.991-17.984s-.938-1.689-4.2-2.383c0,0-5.829-24.586-8.617-32.667-1.063-3.078-1.962-6.958-2.553-9.255-.338-1.315-.924-3.391-1.622-5.8.514.063.989.1,1.406.116a1.859,1.859,0,0,0,1.31-.71,2.787,2.787,0,0,0,.891-2.461,1.855,1.855,0,0,0-.554-1.387,31.6,31.6,0,0,0-5.269-3.062c-1.8-6.022-3.5-11.592-3.5-11.592s-.957-4.787-6.7-4.787a6.9,6.9,0,0,1-4.375-1.732l-9.255-6.223s-3.669-2.872-6.542,1.915a101.574,101.574,0,0,1-6.64,8.183,22.028,22.028,0,0,0-3.9-.6c-.141.066-.285.132-.428.205a8.969,8.969,0,0,0-1.377-.09c-.929.016-1.363.046-1.62.275-.506-.144-.957-.085-1.044.153s.225.574.709.787c.05.341.359.643,1.064,1.251a9.08,9.08,0,0,0,1.116.811c.063.147.132.29.2.431a28.381,28.381,0,0,0,4.837,2.757c.114,1.035.247,2.33.356,3.65l-2.691,2.608s-1.591,1.909.159,3.35a5.506,5.506,0,0,0,3.02,1.293,5.662,5.662,0,0,0,.73,2.058c.029.045.072.1.121.174l.045.06c.042.057.087.119.14.188l.066.085c.055.073.115.15.18.234l.075.1.234.3.07.088.321.4.02.025c.48.6,1.062,1.315,1.7,2.1l-.024.079s1.024,1.234,2.573,3.086h0c1.4,1.678,3.239,3.865,5.135,6.1l.591.706,0-.006.033.039.15.176.316.372.184.216.276.324.261.306.217.254.474.554c3.829,4.468,7.659,5.744,9.893,7.5s4.309,6.7,4.787,11.648c.227,2.344.668,12.71,1.07,22.971a26.342,26.342,0,0,0-3.028,3.138,143.932,143.932,0,0,0-2.514,19.911,43.967,43.967,0,0,1,3.073-3.244l-.575,14.666h38.224l-5.974-23.831C1673.9,1147.348,1676.158,1148.126,1678.578,1148.961Z" transform="translate(-286.151 -100.607)" opacity="0.3" style="mix-blend-mode: multiply;isolation: isolate"/>
    <path id="Trazado_39191" data-name="Trazado 39191" d="M1666.4,1306.578c-.258,5.686,9.176.775,21.454-2.456s23.909-4.653,21.712-8.142c-4.108-6.525-15.767-8.53-26.494-4.007S1668.432,1299.885,1666.4,1306.578Z" transform="translate(-324.364 -248.38)" fill="#dbdbdb"/>
    <g id="Grupo_16481" data-name="Grupo 16481" transform="translate(1241.984 909.09)">
      <g id="Grupo_16479" data-name="Grupo 16479" transform="translate(1.547 0)" opacity="0.3">
        <path id="Trazado_39192" data-name="Trazado 39192" d="M1495.929,935.778,1404.917,952l22.974,136.027,93.008-14.708-12.55-66.228-1.741-10.125-9.853-59.532Z" transform="translate(-1404.917 -935.778)" fill="#231f20"/>
      </g>
      <g id="Grupo_16480" data-name="Grupo 16480" transform="translate(0 0)">
        <path id="Trazado_39193" data-name="Trazado 39193" d="M1493.486,935.778l-92.56,15.228,22.974,136,93.008-14.706Z" transform="translate(-1400.926 -935.778)" fill="#dae0e5"/>
      </g>
    </g>
    <g id="Grupo_16484" data-name="Grupo 16484" transform="translate(1235.364 903.633)">
      <g id="Grupo_16482" data-name="Grupo 16482" transform="translate(1.547 0)" opacity="0.3">
        <path id="Trazado_39194" data-name="Trazado 39194" d="M1477.984,921.7l-91.013,16.217,22.974,136.028,93.008-14.708-11.965-63.4-2.1-14.056-9.461-57.388Z" transform="translate(-1386.971 -921.704)" fill="#231f20"/>
      </g>
      <g id="Grupo_16483" data-name="Grupo 16483" transform="translate(0 0)">
        <path id="Trazado_39195" data-name="Trazado 39195" d="M1475.541,921.7l-92.56,15.229,22.974,136,93.008-14.706Z" transform="translate(-1382.981 -921.704)" fill="#f4f4f2"/>
      </g>
    </g>
    <g id="Grupo_16489" data-name="Grupo 16489" transform="translate(1224.65 912.965)">
      <g id="Grupo_16486" data-name="Grupo 16486" transform="translate(1.491 1.616)" opacity="0.3">
        <g id="Grupo_16485" data-name="Grupo 16485">
          <path id="Trazado_39196" data-name="Trazado 39196" d="M1434.212,949.942l-75.919,15.118,27.241,127.537,96.074-19.132-12.728-55.856-4.827-22.2-5.566-29.958Z" transform="translate(-1358.293 -949.942)" fill="#231f20"/>
        </g>
      </g>
      <g id="Grupo_16488" data-name="Grupo 16488" transform="translate(0 0)">
        <g id="Grupo_16487" data-name="Grupo 16487">
          <path id="Trazado_39197" data-name="Trazado 39197" d="M1430.368,945.773l-75.92,15.118,27.242,127.536,96.075-19.131-23.086-108.074Z" transform="translate(-1354.448 -945.773)" fill="#fff"/>
          <path id="Trazado_39198" data-name="Trazado 39198" d="M1550.26,945.773l6.188,21.767,18.124-5.767Z" transform="translate(-1474.341 -945.773)" opacity="0.19"/>
          <path id="Trazado_39199" data-name="Trazado 39199" d="M1550.35,945.864l-.025,0,4.147,20.113,20.139-4.152Z" transform="translate(-1474.381 -945.829)" fill="#dae0e5"/>
        </g>
      </g>
    </g>
    <path id="Trazado_39200" data-name="Trazado 39200" d="M1313.666,1196.653a1.091,1.091,0,0,0-.483-.113c1.35-.765,2.372-1.865,1.9-3.231-1.157-3.354-4.459-2.724-5.609-2.369-1.213.374,2-1.277-1.244-3.307-1.2-.752-8.908.642-8.908.642l-2.411.742s3.973-2.125.791-4.269c-1.756-1.184-11.24,1.918-17.008,4.025-4.085,1.492-8.233,4.152-10.962,5.311-3.624,1.538-6.667,4.154-14.13,12.16-5.175,5.552-7.523,4.58-11.534,7.463-1.547,1.112-8.89,5.177-17.7,9.95-3.344-1.424-5.168-.448-5.168-.448s-13.617,3.85-22.937,7.175c-2.062.539-1.946,2.18-.452,4.75l-35.738,18.95h67.374l.787.216.245-.216h5.768c2.66-3.6,4.16-5.952,4.16-5.952a17.27,17.27,0,0,0,.027-2.447c6.337-5.166,11.762-9.172,16.168-11.178,8.345-3.8,16.988-1.364,22.151-2.646,3.448-.857,14.874-4.81,16.2-5.426,3.659-1.7,9.93-5.482,9.93-5.482s2.425-.841,1.723-2.163c-1.971-3.713-4.909-2.593-9.689-1.4-4.674,1.168-8.717,1.907-10.854,1.093,5.875-2.464,10.6-7.35,13.434-8.956,5.672-3.213,13.83-5.859,15.3-7.6C1316.922,1199.381,1315.037,1197.446,1313.666,1196.653Z" transform="translate(-7.96 -184.062)" opacity="0.3" style="mix-blend-mode: multiply;isolation: isolate"/>
    <g id="Grupo_16495" data-name="Grupo 16495" transform="translate(1308 943.312)">
      <path id="Trazado_39208" data-name="Trazado 39208" d="M1620.907,1066.98l-12.384-7.926-16.017,15.522s-1.646,1.975.165,3.467a5.472,5.472,0,0,0,5.614.991l1.486,1.486s-1.321,2.146,3.137,3.633,22.457-7.1,22.457-7.1Z" transform="translate(-1586.706 -1050.575)" fill="#e5b080"/>
      <path id="Trazado_39209" data-name="Trazado 39209" d="M1611.335,1091.4a70.564,70.564,0,0,1,4.623-5.614c.826-.991,1.486-1.156,3.3-1.156a46.906,46.906,0,0,1,5.119.5l-1.981-1.321a31.381,31.381,0,0,0-4.789-.5c-2.146.165-3.3,1.321-5.944,4.293-1.49,1.677-4.663,5.656-6.082,6.584a4.634,4.634,0,0,0,1.128-.309l.828.828A15.888,15.888,0,0,0,1611.335,1091.4Z" transform="translate(-1595.133 -1065.42)" fill="#ce9772"/>
      <path id="Trazado_39210" data-name="Trazado 39210" d="M1623.634,1099.632a70.535,70.535,0,0,1,5.382-4.891c.961-.862,1.638-.931,3.435-.669a47.016,47.016,0,0,1,4.995,1.226l-1.772-1.592a31.354,31.354,0,0,0-4.666-1.179c-2.149-.144-3.458.833-6.5,3.394-1.715,1.445-5.427,4.927-6.964,5.641a4.672,4.672,0,0,0,1.161-.143l.7.937A15.888,15.888,0,0,0,1623.634,1099.632Z" transform="translate(-1602.455 -1071.061)" fill="#ce9772" opacity="0.77"/>
      <path id="Trazado_39211" data-name="Trazado 39211" d="M1657.982,1151.506l-9.907-53.994a73.612,73.612,0,0,0-2.312-11.724c-.977-3.226-2.03-7.2-2.642-9.577-1.486-5.78-7.6-25.759-7.6-25.759s-.99-4.953-6.935-4.953a40.081,40.081,0,0,1-6.935-.991l-9.577-6.44s-3.8-2.972-6.77,1.981c-1.3,2.161-7.265,8.916-7.265,8.916s-2.642,3.3-.165,4.293a7.755,7.755,0,0,0,7.265-1.321c1.322-1.321,4.624-4.128,4.624-4.128a67.449,67.449,0,0,1,5.284,6.6c1.651,2.312,2.807,7.76-.33,11.393-1.207,1.4-4.623,1.156-6.44-.5-2.866-2.605-5.614,6.77-5.614,6.77s5.628,6.786,10.568,12.549c3.963,4.623,7.926,5.944,10.238,7.76s4.458,6.935,4.954,12.054,1.982,47.224,1.982,47.224Z" transform="translate(-1589.766 -1037.184)" fill="#ffd2a2"/>
      <path id="Trazado_39212" data-name="Trazado 39212" d="M1619.293,1056.846s-2.072-2.512-2.394-3.88a6.9,6.9,0,0,1-.083-2.642s-.857.412-.909,1.982a5.543,5.543,0,0,0,.248,2.229c.447,1.3-4.714,3.505-4.293,3.715C1612.523,1058.58,1619.293,1056.846,1619.293,1056.846Z" transform="translate(-1598.962 -1045.229)" fill="#e5b080" opacity="0.69"/>
      <g id="Grupo_16493" data-name="Grupo 16493" transform="translate(0 10.717)">
        <path id="Trazado_39213" data-name="Trazado 39213" d="M1651.322,1107.7c-.529-.19-1.5-.282-1.013-.813s1.09-.949,2.6-.59,1.237.708,1.171,1.095.013.378,2.491,1.161,12.977,3.527,14.367,3.841c1.449.328,1.208.133,1.677-2.327-.337,1.473-.061,3.406-2.934,2.889S1653.266,1108.516,1651.322,1107.7Z" transform="translate(-1622.436 -1090.137)" fill="#94999a"/>
        <path id="Trazado_39214" data-name="Trazado 39214" d="M1701.147,1120.672c2.232.5,2.88-.439,3.547-1.821.219-.452-.648-1.075-.9-.155A2.314,2.314,0,0,1,1701.147,1120.672Z" transform="translate(-1653.645 -1097.519)" fill="#c1c4c5"/>
        <path id="Trazado_39215" data-name="Trazado 39215" d="M1672.078,1111.71c-.163,1.217.154,2.508-1.959,1.967-2.473-.634-10.7-2.739-15.976-4.377-1.508-.468.673-.491-1.465-1.234s-3.846,0,.082,1.366,11.415,3.362,17.318,4.843c3.008.755,2.677-1.967,2.678-3.221C1672.759,1109.739,1672.078,1111.71,1672.078,1111.71Z" transform="translate(-1622.575 -1091.121)" fill="#adb1b3"/>
        <path id="Trazado_39216" data-name="Trazado 39216" d="M1579.528,1066.772c-.586-.212-.983-.6-.885-.878s.655-.321,1.242-.108Z" transform="translate(-1578.629 -1065.333)" fill="#636363"/>
        <path id="Trazado_39217" data-name="Trazado 39217" d="M1584.458,1069.418a12.806,12.806,0,0,1-2.82-1.737c-1.051-.905-1.266-1.152-1.027-1.814s.563-.713,1.949-.737a12.809,12.809,0,0,1,3.279.468Z" transform="translate(-1579.788 -1065.011)" fill="#3d81a3"/>
        <path id="Trazado_39218" data-name="Trazado 39218" d="M1609.92,1075.121a17.014,17.014,0,0,1,1.546-3.468c-4.653-1.682-18.846-6.7-23.837-6.827a2.6,2.6,0,0,0-1.43,3.955c3.918,3.1,18.039,8.313,22.692,9.994a17.037,17.037,0,0,1,1.03-3.655Z" transform="translate(-1582.989 -1064.826)" fill="#d3d3d3"/>
        <path id="Trazado_39219" data-name="Trazado 39219" d="M1642.053,1083.858c.608-1.68,1.882-4.122,3.6-3.5,5.549,2.006,21.6,7.941,26.271,11.632a3.235,3.235,0,0,1-1.705,4.717c-5.954-.149-22.088-5.849-27.636-7.854-1.722-.623-1.14-3.314-.533-5Z" transform="translate(-1617.09 -1074.276)" fill="#3d81a3"/>
        <path id="Trazado_39220" data-name="Trazado 39220" d="M1717.652,1116.307c-.355-.128-.4-.9-.107-1.718s.826-1.38,1.18-1.252.4.9.107,1.718S1718.007,1116.435,1717.652,1116.307Z" transform="translate(-1663.566 -1094.517)" fill="#5fa5c1"/>
      </g>
      <path id="Trazado_39221" data-name="Trazado 39221" d="M1612.665,1102.738s-10.755-12.837-11.641-14.2c-1.074-1.651-.979-4.6-1.074-6.77-.165-3.8-.825-8.917-.825-8.917a2.891,2.891,0,0,1,2.807-2.312,4.875,4.875,0,0,1,4.293,2.312c1.651,2.807,1.731,7.362,2.863,9.3,2.312,3.963,10.458,8.146,10.458,8.146Z" transform="translate(-1591.178 -1057.602)" fill="#ffd2a2"/>
      <path id="Trazado_39222" data-name="Trazado 39222" d="M1600.544,1076.516a19.635,19.635,0,0,1-.165-2.724c.094-.892,2.064-2.147,3.963-.991.813.494,1.944,3.176,1.239,3.385a36.792,36.792,0,0,0-3.88,1.157C1601.1,1077.6,1600.6,1077.2,1600.544,1076.516Z" transform="translate(-1591.937 -1058.707)" fill="#ffead9"/>
      <path id="Trazado_39223" data-name="Trazado 39223" d="M1645,1161.958c-.826-7.43-2.972-9.907-5.614-12.384s-5.449-3.3-9.081-5.118c-2.929-1.466-8.879-6.648-11.54-9.027,2.092,2.5,5.11,6.093,7.907,9.357,3.963,4.623,7.926,5.944,10.237,7.76s4.458,6.935,4.954,12.054,1.981,47.224,1.981,47.224l6.743-.041C1649.411,1201.317,1645.693,1168.2,1645,1161.958Z" transform="translate(-1603.203 -1097.338)" fill="#e5b080" opacity="0.54"/>
      <path id="Trazado_39224" data-name="Trazado 39224" d="M1673.07,1300.94l1.18-30.1s5.789-7.488,17.551-9.46c9.318-1.559,11.511,2.407,11.511,2.407l9.313,37.151Z" transform="translate(-1636.453 -1174.235)" fill="#d5edf7"/>
      <path id="Trazado_39225" data-name="Trazado 39225" d="M1685.5,1266.419a27.759,27.759,0,0,0-11.246,7.729l-1.18,30.1h16.86C1688.45,1292.556,1686.191,1277.807,1685.5,1266.419Z" transform="translate(-1636.453 -1177.541)" fill="#ededed" opacity="0.25"/>
      <path id="Trazado_39226" data-name="Trazado 39226" d="M1602.7,1082.752c.338-.3-.511-2.932-.77-4.072-.55-2.422-1.432-4.514-.771-7.046.142-.542.5-.785.587-1.024a2.884,2.884,0,0,0-2.623,2.289s.661,5.119.825,8.917c.094,2.17,0,5.119,1.074,6.77.254.391,1.321,1.727,2.712,3.431C1602.274,1089.581,1599.622,1085.5,1602.7,1082.752Z" transform="translate(-1591.178 -1057.65)" fill="#e5b080" opacity="0.54"/>
      <path id="Trazado_39227" data-name="Trazado 39227" d="M1674.066,1291.084a23.576,23.576,0,0,1,16.673-11.786c7.374-1.348,13.551-.513,17.629,2.23l-4.447-17.739s-2.193-3.966-11.511-2.407c-11.762,1.971-17.551,9.46-17.551,9.46Z" transform="translate(-1637.063 -1174.235)" fill="#ccc"/>
      <path id="Trazado_39228" data-name="Trazado 39228" d="M1669,1262.393s6.952-9.039,18.714-11.011c9.318-1.559,11.511,2.407,11.511,2.407s6.591,11.114,10.339,18.61c-7.5-2.585-13.44-4.653-23.521-1.551s-14.733,6.462-19.644,12.149A149.034,149.034,0,0,1,1669,1262.393Z" transform="translate(-1632.371 -1168.112)" fill="#fff"/>
      <g id="Grupo_16494" data-name="Grupo 16494" transform="translate(36.898 100.948)">
        <path id="Trazado_39229" data-name="Trazado 39229" d="M1678.441,1302.166c-.337,1.268-1.238,2.129-2.015,1.923s-1.132-1.4-.8-2.669,1.239-2.128,2.015-1.922S1678.777,1300.9,1678.441,1302.166Z" transform="translate(-1674.841 -1298.724)" fill="#ccc"/>
        <path id="Trazado_39230" data-name="Trazado 39230" d="M1676.445,1297.8c.776.206,1.133,1.4.8,2.668s-1.238,2.128-2.015,1.922l-.509-.218c-.777-.206-1.133-1.4-.8-2.669s1.239-2.128,2.015-1.922Z" transform="translate(-1673.795 -1297.55)" fill="#ddd"/>
        <path id="Trazado_39231" data-name="Trazado 39231" d="M1676.733,1300.249c-.337,1.268-1.239,2.128-2.015,1.922s-1.133-1.4-.8-2.669,1.239-2.128,2.015-1.922S1677.069,1298.981,1676.733,1300.249Z" transform="translate(-1673.795 -1297.55)" fill="#f4f4f4"/>
        <path id="Trazado_39232" data-name="Trazado 39232" d="M1677.208,1300.76c-.042.237.036.449.173.475s.285-.147.328-.385-.035-.449-.173-.474S1677.25,1300.523,1677.208,1300.76Z" transform="translate(-1675.877 -1299.279)" fill="#ddd"/>
        <path id="Trazado_39233" data-name="Trazado 39233" d="M1676.458,1304.447c-.042.237.035.449.174.475s.285-.147.327-.384-.035-.449-.173-.475S1676.5,1304.21,1676.458,1304.447Z" transform="translate(-1675.418 -1301.536)" fill="#ddd"/>
      </g>
    </g>
    <g id="Grupo_16513" data-name="Grupo 16513" transform="translate(1367.591 951.912)">
      <g id="Grupo_16504" data-name="Grupo 16504" transform="translate(0 4.172)">
        <g id="Grupo_16501" data-name="Grupo 16501" transform="translate(0 0.669)">
          <g id="Grupo_16500" data-name="Grupo 16500" transform="translate(0 0)" opacity="0.3">
            <rect id="Rectángulo_4117" data-name="Rectángulo 4117" width="31.566" height="34.362" transform="translate(0 30.927) rotate(-78.456)"/>
          </g>
          <path id="Trazado_39246" data-name="Trazado 39246" d="M1771.618,1097.5l-19.885-3.941.28-1.371,19.885,3.94Z" transform="translate(-1744.209 -1081.467)"/>
          <path id="Trazado_39247" data-name="Trazado 39247" d="M1752.8,1127.157l-7.285-1.422.279-1.37,7.286,1.422Z" transform="translate(-1740.399 -1101.168)"/>
          <rect id="Rectángulo_4118" data-name="Rectángulo 4118" width="1.399" height="26.871" transform="translate(7.055 14.872) rotate(-78.455)"/>
          <path id="Trazado_39248" data-name="Trazado 39248" d="M1775.321,1113.576l-26.346-5.273.281-1.372,26.345,5.274Z" transform="translate(-1742.52 -1090.494)"/>
        </g>
        <g id="Grupo_16503" data-name="Grupo 16503" transform="translate(0.018 0)">
          <g id="Grupo_16502" data-name="Grupo 16502" transform="translate(0)">
            <rect id="Rectángulo_4119" data-name="Rectángulo 4119" width="31.566" height="34.362" transform="translate(0 30.927) rotate(-78.456)" fill="#9b235c"/>
          </g>
          <path id="Trazado_39249" data-name="Trazado 39249" d="M1771.666,1095.774l-19.886-3.941.281-1.37,19.885,3.94Z" transform="translate(-1744.256 -1079.741)" fill="#7098ba"/>
          <path id="Trazado_39250" data-name="Trazado 39250" d="M1752.842,1125.432l-7.285-1.423.279-1.37,7.285,1.422Z" transform="translate(-1740.446 -1099.442)" fill="#7098ba"/>
          <rect id="Rectángulo_4120" data-name="Rectángulo 4120" width="1.399" height="26.871" transform="translate(7.055 14.872) rotate(-78.455)" fill="#7098ba"/>
          <path id="Trazado_39251" data-name="Trazado 39251" d="M1775.369,1111.85l-26.346-5.273.281-1.372,26.345,5.274Z" transform="translate(-1742.568 -1088.768)" fill="#7098ba"/>
        </g>
      </g>
      <g id="Grupo_16509" data-name="Grupo 16509" transform="translate(2.678 0)">
        <g id="Grupo_16506" data-name="Grupo 16506" transform="translate(0 0.669)">
          <g id="Grupo_16505" data-name="Grupo 16505" transform="translate(0 0)" opacity="0.3">
            <rect id="Rectángulo_4121" data-name="Rectángulo 4121" width="31.566" height="34.362" transform="translate(0 29.737) rotate(-70.4)"/>
          </g>
          <path id="Trazado_39252" data-name="Trazado 39252" d="M1781.15,1088.545l-15.895-5.535.469-1.318,15.895,5.534Z" transform="translate(-1755.166 -1070.868)"/>
          <path id="Trazado_39253" data-name="Trazado 39253" d="M1761.6,1116.425l-7.015-2.429.469-1.318,7.014,2.43Z" transform="translate(-1748.632 -1089.84)"/>
          <rect id="Rectángulo_4122" data-name="Rectángulo 4122" width="1.399" height="26.87" transform="translate(9.235 14.829) rotate(-70.401)"/>
          <path id="Trazado_39254" data-name="Trazado 39254" d="M1785.807,1106.136l-25.347-8.914.47-1.318,25.346,8.913Z" transform="translate(-1752.23 -1079.571)"/>
        </g>
        <g id="Grupo_16508" data-name="Grupo 16508" transform="translate(0.018)">
          <g id="Grupo_16507" data-name="Grupo 16507" transform="translate(0)">
            <rect id="Rectángulo_4123" data-name="Rectángulo 4123" width="31.566" height="34.362" transform="matrix(0.335, -0.942, 0.942, 0.335, 0, 29.737)" fill="#f2f4f4"/>
          </g>
          <path id="Trazado_39255" data-name="Trazado 39255" d="M1781.2,1086.819l-15.895-5.535.469-1.318,15.894,5.533Z" transform="translate(-1755.214 -1069.143)" fill="#7098ba"/>
          <path id="Trazado_39256" data-name="Trazado 39256" d="M1761.645,1114.7l-7.015-2.429.469-1.318,7.014,2.429Z" transform="translate(-1748.679 -1088.115)" fill="#7098ba"/>
          <rect id="Rectángulo_4124" data-name="Rectángulo 4124" width="1.399" height="26.87" transform="matrix(0.335, -0.942, 0.942, 0.335, 9.235, 14.829)" fill="#7098ba"/>
          <path id="Trazado_39257" data-name="Trazado 39257" d="M1785.854,1104.411l-25.347-8.914.47-1.318,25.346,8.913Z" transform="translate(-1752.278 -1077.845)" fill="#7098ba"/>
        </g>
      </g>
      <g id="Grupo_16512" data-name="Grupo 16512" transform="translate(32.597 3.309)">
        <g id="Grupo_16510" data-name="Grupo 16510" transform="translate(0.325 0.344)">
          <path id="Trazado_39258" data-name="Trazado 39258" d="M1822.089,1062.858l-.882,3.36.7.25.9-3.42a1.118,1.118,0,0,1,1.364-.8l.6.158a1.119,1.119,0,0,1,.795,1.363l-3.175,12.059a1.864,1.864,0,0,1-2.274,1.326l-.75-.2a1.863,1.863,0,0,1-1.324-2.274l2.607-9.9a.372.372,0,1,0-.719-.189l-2.607,9.9a2.608,2.608,0,0,0,1.854,3.183l.75.2a2.61,2.61,0,0,0,3.183-1.856l3.175-12.059a1.864,1.864,0,0,0-1.326-2.273l-.6-.158A1.864,1.864,0,0,0,1822.089,1062.858Z" transform="translate(-1817.239 -1061.471)" opacity="0.3"/>
          <path id="Trazado_39259" data-name="Trazado 39259" d="M1833.136,1071.06a.373.373,0,0,0-.455.264l-.374,1.414.7.251.39-1.476A.373.373,0,0,0,1833.136,1071.06Z" transform="translate(-1826.465 -1067.335)" opacity="0.3"/>
        </g>
        <g id="Grupo_16511" data-name="Grupo 16511">
          <path id="Trazado_39260" data-name="Trazado 39260" d="M1821.25,1061.971l-.939,3.568.7.25.956-3.628a1.119,1.119,0,0,1,1.365-.8l.6.159a1.118,1.118,0,0,1,.795,1.363l-3.176,12.059a1.863,1.863,0,0,1-2.273,1.327l-.75-.2a1.863,1.863,0,0,1-1.325-2.273l2.607-9.9a.372.372,0,1,0-.719-.189l-2.607,9.9a2.607,2.607,0,0,0,1.854,3.182l.75.2a2.608,2.608,0,0,0,3.182-1.856l3.176-12.058a1.864,1.864,0,0,0-1.326-2.274l-.6-.157A1.863,1.863,0,0,0,1821.25,1061.971Z" transform="translate(-1816.4 -1060.584)" fill="#2a80b9"/>
          <path id="Trazado_39261" data-name="Trazado 39261" d="M1832.209,1070.173a.373.373,0,0,0-.455.264l-.43,1.632.7.251.445-1.693A.372.372,0,0,0,1832.209,1070.173Z" transform="translate(-1825.538 -1066.448)" fill="#2a80b9"/>
        </g>
      </g>
    </g>
    <g id="Grupo_16517" data-name="Grupo 16517" transform="translate(1149.071 998.438)">
      <path id="Trazado_39262" data-name="Trazado 39262" d="M1334.332,1204.943c5.766-3.266,14.058-5.955,15.547-7.728,2.174-2.586.257-4.553-1.137-5.359a1.109,1.109,0,0,0-.491-.115c1.372-.777,2.411-1.9,1.932-3.284-1.176-3.409-4.532-2.769-5.7-2.408-1.232.38,2.036-1.3-1.265-3.361-1.223-.765-9.054.652-9.054.652l-2.45.754s4.037-2.159.8-4.339c-1.785-1.2-11.426,1.949-17.288,4.091-4.152,1.517-8.368,4.221-11.142,5.4-3.684,1.563-7.96,5.011-15.546,13.149-5.26,5.644-7.647,4.655-11.724,7.586-4.413,3.172-55.233,29.991-55.233,29.991l41.168,11.27s20.685-18.227,29.167-22.089,18.056-.992,23.3-2.3c3.505-.871,13.148-4.1,14.492-4.726,3.72-1.732,10.094-5.573,10.094-5.573s2.465-.855,1.751-2.2c-2-3.775-4.99-2.636-9.849-1.421-4.751,1.187-8.861,1.939-11.033,1.111C1326.65,1211.542,1331.449,1206.575,1334.332,1204.943Z" transform="translate(-1193.47 -1179.44)" fill="#ffd2a2"/>
      <path id="Trazado_39263" data-name="Trazado 39263" d="M1453.874,1201.39s2.125-1.627,3.774-.068c.065.063.372.415.429.476,3.034-1.552,11.93-5.572,15.55-6.988a45.207,45.207,0,0,1,7.888-2.567c3.332-.759,4-.477,4.841-1.4.517-.569.155-1.293-.191-1.736a1.825,1.825,0,0,1,.191,2.874c-.552.093-1.287.3-2.825.708a62.147,62.147,0,0,0-10.745,3.911c-3.1,1.615-9.949,4.144-11.731,5.137a23.985,23.985,0,0,0-3.125,1.921S1456.337,1201.005,1453.874,1201.39Z" transform="translate(-1335.697 -1185.329)" fill="#d8a679" opacity="0.69"/>
      <path id="Trazado_39264" data-name="Trazado 39264" d="M1470.764,1214.8a3.4,3.4,0,0,1,2.58.572c.571-.172,4.367-1.132,4.932-1.373,2.037-.869,7.245-3.908,10.865-5.325a45.226,45.226,0,0,1,7.889-2.567c3.332-.759,3.91-1.195,4.738-1.867a2.119,2.119,0,0,0,.985-1.617c.515,2.03-1.45,3.039-1.932,3.284-.552.093-1.141.473-2.679.884a52.822,52.822,0,0,0-9.841,3.671c-3.1,1.615-6.772,3.394-8.554,4.387-2.248,1.252-5.832,2.329-6.3,2.67C1473.445,1217.517,1472.039,1215.038,1470.764,1214.8Z" transform="translate(-1346.039 -1193.604)" fill="#d8a679" opacity="0.69"/>
      <path id="Trazado_39265" data-name="Trazado 39265" d="M1458.083,1186.695c4.324-1.941,10.237-3.1,11.323-3.931a1.474,1.474,0,0,0-.045-2.289c2.922,2.139-.967,4.222-.967,4.222-2.479.891-8.237,2.568-10.994,3.762s-4.365,2.155-5.522,2.726-5.061,2.615-5.061,2.615a2.464,2.464,0,0,0-2-1.131C1446.524,1191.583,1453.758,1188.636,1458.083,1186.695Z" transform="translate(-1330.152 -1180.045)" fill="#d8a679" opacity="0.69"/>
      <path id="Trazado_39266" data-name="Trazado 39266" d="M1516.2,1269.785c1.2-2.049,3.563-2.789,4.84-1.507.906.91-.3,1.62-1.474,2.157-1.575.72-2.435,1.093-3.1,1.409C1515.486,1272.317,1515.006,1271.834,1516.2,1269.785Z" transform="translate(-1373.427 -1233.416)" fill="#ffead9" opacity="0.87"/>
      <path id="Trazado_39267" data-name="Trazado 39267" d="M1537.783,1196.6s-1.73.371-1.115,1.474a13.886,13.886,0,0,0,1.462,2.633c.456.373,1.02.3,2.172-.059s2.327-1.038,1.633-2.782C1541.492,1196.753,1540.81,1195.644,1537.783,1196.6Z" transform="translate(-1386.309 -1189.696)" fill="#ffead9"/>
      <path id="Trazado_39268" data-name="Trazado 39268" d="M1539.668,1212.206s-1.628.668-.89,1.63a9.6,9.6,0,0,0,1.587,2c.489.281.968.289,2.04-.263s2.108-1.924,1.454-2.873S1542.478,1210.742,1539.668,1212.206Z" transform="translate(-1387.565 -1199.021)" fill="#ffead9"/>
      <path id="Trazado_39269" data-name="Trazado 39269" d="M1525.267,1187.114s-1.506.092-1.156.938a5.024,5.024,0,0,0,.921,1.629,1.833,1.833,0,0,0,1.751.573c1.723-.252,2.154-1.271,1.868-2.1S1528.114,1186.721,1525.267,1187.114Z" transform="translate(-1378.67 -1184.035)" fill="#ffead9"/>
      <path id="Trazado_39270" data-name="Trazado 39270" d="M1498.7,1179.6s-1.36.157-.984.992a5.375,5.375,0,0,0,1.016,1.656c.33.268.946.316,1.889-.141.92-.445,1.483-.857,1.121-1.653A2.25,2.25,0,0,0,1498.7,1179.6Z" transform="translate(-1362.503 -1179.365)" fill="#ffead9"/>
      <path id="Trazado_39271" data-name="Trazado 39271" d="M1386.5,1265.955c-1.092.5-4,1.26-6.22,2.18a68.655,68.655,0,0,1-15.724,5.232c-5.634,1.083-18.62-3.1-27.128,2.118s-40.464,24.674-40.464,24.674l11.943,2.331s21.1-18.366,29.167-22.089,18.056-.992,23.3-2.3a105.434,105.434,0,0,0,14.492-4.726c3.539-1.669,10.094-5.573,10.094-5.573,1.666-.9,2.063-1.339,1.751-2.2a4.761,4.761,0,0,0-2.819-2.414C1386.02,1263.526,1387.668,1265.421,1386.5,1265.955Z" transform="translate(-1239.623 -1230.692)" fill="#d8a679" opacity="0.47"/>
      <path id="Trazado_39272" data-name="Trazado 39272" d="M1474.226,1233.577c5-2.116,10.772-7.471,13.655-9.1,5.766-3.266,14.058-5.955,15.547-7.728,2.174-2.586.257-4.553-1.137-5.359,1.594,1.786,1.939,2.958.214,4.407s-11.384,4.612-15.176,7.026-12.275,7.448-14.965,10A5.556,5.556,0,0,0,1474.226,1233.577Z" transform="translate(-1347.018 -1198.972)" fill="#d8a679" opacity="0.69"/>
      <g id="Grupo_16516" data-name="Grupo 16516" transform="translate(0 39.862)">
        <path id="Trazado_39273" data-name="Trazado 39273" d="M1255.785,1324.974h15.708a50.324,50.324,0,0,0-5.041-10.969c-6.3-10.986-15.981-15.483-25.011-13.122-4.829,1.262,2.08,8.466,10.852,19.491C1253.533,1321.934,1254.694,1323.481,1255.785,1324.974Z" transform="translate(-1204.654 -1293.257)" fill="#dbdbdb"/>
        <g id="Grupo_16515" data-name="Grupo 16515">
          <path id="Trazado_39274" data-name="Trazado 39274" d="M1222.117,1317.718l3.638-5s.643-9.944-8.661-19.612c-7.373-7.658-14.777-3.621-14.777-3.621l-53.246,28.233Z" transform="translate(-1149.071 -1286.001)" fill="#d5edf7"/>
          <path id="Trazado_39275" data-name="Trazado 39275" d="M1300.015,1315.253c4.62,7.51,4.212,13.893,4.212,13.893l-3.638,5h-23.355C1287.971,1325.868,1290.247,1323.832,1300.015,1315.253Z" transform="translate(-1227.543 -1302.429)" fill="#ededed" opacity="0.25"/>
          <path id="Trazado_39276" data-name="Trazado 39276" d="M1262.9,1308.505a24.522,24.522,0,0,1,5.556,9.212h11.261l4.651-5s.643-9.944-8.661-19.612c-7.373-7.658-14.777-3.621-14.777-3.621l-16.13,8.653C1250.773,1298.764,1257.157,1302.356,1262.9,1308.505Z" transform="translate(-1207.685 -1286.001)" fill="#ccc"/>
          <path id="Trazado_39277" data-name="Trazado 39277" d="M1264.243,1302.833a49.719,49.719,0,0,1,6.386,11.063h11.93c2.7-3.662,4.229-6.05,4.229-6.05a26.743,26.743,0,0,0-8.494-20.871c-7.028-6.611-11.029-4.463-11.029-4.463s-13.841,3.913-23.315,7.293C1252.957,1292.912,1257.4,1293.423,1264.243,1302.833Z" transform="translate(-1207.164 -1282.178)" fill="#fff"/>
          <g id="Grupo_16514" data-name="Grupo 16514" transform="translate(66.982 26.194)">
            <path id="Trazado_39278" data-name="Trazado 39278" d="M1322.278,1352.217c-.7,1.24-.559,2.546.324,2.917s2.17-.334,2.874-1.575.559-2.545-.324-2.916S1322.982,1350.977,1322.278,1352.217Z" transform="translate(-1321.832 -1350.232)" fill="#ccc"/>
            <path id="Trazado_39279" data-name="Trazado 39279" d="M1326.6,1349.837c-.884-.37-2.171.334-2.875,1.574s-.559,2.546.324,2.917l.645.177c.884.371,2.171-.334,2.875-1.575s.559-2.545-.324-2.916Z" transform="translate(-1322.72 -1349.739)" fill="#ddd"/>
            <path id="Trazado_39280" data-name="Trazado 39280" d="M1325.394,1351.869c-.7,1.24-.559,2.546.324,2.916s2.171-.334,2.875-1.575.559-2.545-.324-2.915S1326.1,1350.628,1325.394,1351.869Z" transform="translate(-1323.74 -1350.019)" fill="#f4f4f4"/>
            <path id="Trazado_39281" data-name="Trazado 39281" d="M1331.425,1353.992c-.151.217-.393.332-.541.257s-.146-.313,0-.531.392-.333.54-.258S1331.575,1353.774,1331.425,1353.992Z" transform="translate(-1327.307 -1352.003)" fill="#ddd"/>
            <path id="Trazado_39282" data-name="Trazado 39282" d="M1329.164,1357.441c-.15.218-.392.333-.54.257s-.146-.313.005-.531.393-.333.541-.258S1329.315,1357.224,1329.164,1357.441Z" transform="translate(-1325.923 -1354.115)" fill="#ddd"/>
          </g>
        </g>
      </g>
    </g>
    <g id="Grupo_16522" data-name="Grupo 16522" transform="translate(1353.09 899.413)">
      <g id="Grupo_16519" data-name="Grupo 16519" transform="translate(2.878 4.747)" opacity="0.3">
        <path id="Trazado_39283" data-name="Trazado 39283" d="M1702.721,952.188a.661.661,0,0,1,.075-1.22l11.521-4.824a10.1,10.1,0,0,1,7.7.483l37.431,14.414a.326.326,0,0,1,.147.431l-1.88,3.837a.317.317,0,0,1-.429.147l-37.36-16.332a5.039,5.039,0,0,0-3.849-.24l-9.239,4.041a3.912,3.912,0,0,1-2.964-.178Z" transform="translate(-1702.349 -936.863)"/>
        <path id="Trazado_39284" data-name="Trazado 39284" d="M1759.709,963.442a.661.661,0,0,0,.918-.807l-3.257-12.06a10.1,10.1,0,0,0-5.1-5.784l-34.342-20.724a.325.325,0,0,0-.431.148l-1.878,3.839a.318.318,0,0,0,.147.428l35.813,19.491a5.032,5.032,0,0,1,2.55,2.892l2.475,9.775a3.915,3.915,0,0,0,1.959,2.232Z" transform="translate(-1710.452 -923.658)"/>
        <g id="Grupo_16518" data-name="Grupo 16518" transform="translate(2.652)">
          <path id="Trazado_39285" data-name="Trazado 39285" d="M1731.43,948.807c-6.119,6.554-18.5-.866-20.154-5.6-1.335-3.828.423-7.381,2.77-10.5s7.945-.551,10.971,1.016a36.027,36.027,0,0,1,8.748,6.438C1735.774,942.311,1735.1,944.873,1731.43,948.807Z" transform="translate(-1710.185 -928.067)" opacity="0.45"/>
          <path id="Trazado_39286" data-name="Trazado 39286" d="M1802.007,988.2c-4.75,1.6-18.207-3.631-16.783-12.485.855-5.314,2.466-7.415,5.4-7.145a36,36,0,0,1,10.45,2.96c3.095,1.429,8.557,4.276,7.532,8.041S1805.849,986.906,1802.007,988.2Z" transform="translate(-1755.68 -950.911)" opacity="0.45"/>
          <path id="Trazado_39287" data-name="Trazado 39287" d="M1766.454,949.771a83.951,83.951,0,0,0-11.928-7.368c-5.866-2.872-10.929-3-15.662-5.312s-7.936-6.24-13.8-9.113a84.164,84.164,0,0,0-13.135-4.9c-.832-.241-2.482,2.875-1.912,3.568.89,1.081.744,1.848-.028,4.615-.822,2.944-2.883,8.588,6.087,13.392s12.794,1.8,14.933-.375,3.491-5.191,6.224-3.852,1.183,4.235.774,7.278c-.406,3.024-.432,7.887,8.864,12.025s12.489-.951,14.31-3.406c1.711-2.308,2.228-2.892,3.627-2.852C1765.705,953.494,1767.155,950.279,1766.454,949.771Zm-36.4-6.25c-5.864,6.281-17.731-.831-19.313-5.365-1.279-3.668.406-7.074,2.654-10.063s7.613-.528,10.514.974a34.561,34.561,0,0,1,8.382,6.17C1734.22,937.294,1733.576,939.749,1730.056,943.52Zm25.214,16.434c-4.55,1.532-17.447-3.48-16.082-11.964.819-5.093,2.363-7.106,5.17-6.848a34.536,34.536,0,0,1,10.014,2.837c2.965,1.37,8.2,4.1,7.218,7.706S1758.953,958.714,1755.271,959.954Z" transform="translate(-1709.188 -923.063)"/>
        </g>
      </g>
      <g id="Grupo_16521" data-name="Grupo 16521" transform="translate(0)">
        <path id="Trazado_39288" data-name="Trazado 39288" d="M1695.3,946.33a.661.661,0,0,1,.075-1.219l11.521-4.824a10.107,10.107,0,0,1,7.7.483l37.431,14.414a.326.326,0,0,1,.147.431l-1.88,3.838a.319.319,0,0,1-.429.148l-37.36-16.334a5.035,5.035,0,0,0-3.848-.24l-9.24,4.041a3.909,3.909,0,0,1-2.964-.179Z" transform="translate(-1694.926 -928.53)" fill="#11151c"/>
        <path id="Trazado_39289" data-name="Trazado 39289" d="M1752.45,956.307a.661.661,0,0,0,.917-.808l-3.257-12.058a10.1,10.1,0,0,0-5.1-5.786l-34.342-20.724a.326.326,0,0,0-.431.149l-1.878,3.838a.318.318,0,0,0,.147.429l35.814,19.491a5.035,5.035,0,0,1,2.549,2.892l2.475,9.777a3.907,3.907,0,0,0,1.959,2.231Z" transform="translate(-1703.129 -914.542)" fill="#1b202a"/>
        <g id="Grupo_16520" data-name="Grupo 16520" transform="translate(2.967)">
          <path id="Trazado_39290" data-name="Trazado 39290" d="M1724.821,936.564c-6.12,6.555-18.5-.867-20.154-5.6-1.334-3.828.423-7.382,2.77-10.5s7.945-.55,10.971,1.017a36.048,36.048,0,0,1,8.748,6.438C1729.165,930.067,1728.494,932.63,1724.821,936.564Z" transform="translate(-1703.575 -915.824)" fill="#b2cbcc" opacity="0.25"/>
          <path id="Trazado_39291" data-name="Trazado 39291" d="M1795.4,975.956c-4.75,1.6-18.207-3.631-16.783-12.484.856-5.315,2.467-7.415,5.4-7.146a36.034,36.034,0,0,1,10.45,2.961c3.095,1.429,8.556,4.275,7.533,8.042S1799.239,974.663,1795.4,975.956Z" transform="translate(-1749.07 -938.668)" fill="#b2cbcc" opacity="0.25"/>
          <path id="Trazado_39292" data-name="Trazado 39292" d="M1759.844,937.528a83.885,83.885,0,0,0-11.927-7.369c-5.866-2.872-10.929-3-15.662-5.312s-7.936-6.24-13.8-9.112a84.089,84.089,0,0,0-13.135-4.9c-.831-.241-2.481,2.875-1.911,3.568.889,1.081.744,1.847-.028,4.614-.822,2.944-2.883,8.588,6.087,13.391s12.794,1.8,14.933-.373c2.154-2.191,3.491-5.191,6.225-3.854s1.182,4.235.774,7.279c-.405,3.024-.432,7.887,8.864,12.026s12.489-.952,14.311-3.407c1.711-2.307,2.227-2.892,3.627-2.852C1759.1,941.251,1760.546,938.036,1759.844,937.528Zm-36.4-6.251c-5.864,6.282-17.731-.83-19.313-5.363-1.279-3.67.406-7.074,2.654-10.064s7.613-.528,10.514.974a34.536,34.536,0,0,1,8.382,6.17C1727.61,925.052,1726.967,927.507,1723.447,931.276Zm25.214,16.436c-4.55,1.532-17.446-3.481-16.081-11.964.819-5.094,2.364-7.107,5.17-6.848a34.529,34.529,0,0,1,10.015,2.836c2.965,1.37,8.2,4.1,7.217,7.707S1752.344,946.472,1748.661,947.712Z" transform="translate(-1702.579 -910.82)" fill="#402f24"/>
        </g>
      </g>
    </g>
  </g>
</svg>
