<svg id="Grupo_24009" data-name="Grupo 24009" xmlns="http://www.w3.org/2000/svg" width="47.283" height="47.283" viewBox="0 0 47.283 47.283">
  <path id="Trazado_12594" data-name="Trazado 12594" d="M-3456.222,2174.342a23.641,23.641,0,0,1-23.642,23.642,23.641,23.641,0,0,1-23.641-23.642,23.641,23.641,0,0,1,23.641-23.642,23.641,23.641,0,0,1,23.642,23.642Zm0,0" transform="translate(3503.505 -2150.7)" fill="#e0e4e8"/>
  <rect id="Rectángulo_5200" data-name="Rectángulo 5200" width="2.734" height="11.23" transform="translate(0.738 14.185)" fill="#fff"/>
  <path id="Trazado_12595" data-name="Trazado 12595" d="M-3500.033,2180.616h-2.733a.7.7,0,0,1-.738-.739v-11.229a.7.7,0,0,1,.738-.739h2.733a.7.7,0,0,1,.739.739v11.229a.741.741,0,0,1-.739.739Zm-1.995-1.478h1.256v-9.752h-1.256Zm0,0" transform="translate(3503.505 -2154.462)" fill="#193540"/>
  <rect id="Rectángulo_5201" data-name="Rectángulo 5201" width="12.781" height="13.889" transform="translate(3.472 12.855)" fill="#fff"/>
  <path id="Trazado_12596" data-name="Trazado 12596" d="M-3486.487,2181.574h-12.781a.7.7,0,0,1-.738-.739v-13.889a.7.7,0,0,1,.738-.739h12.781a.7.7,0,0,1,.739.739v13.889a.741.741,0,0,1-.739.739Zm-12.042-1.479h11.3v-12.411h-11.3Zm0,0" transform="translate(3502.74 -2154.09)" fill="#193540"/>
  <rect id="Rectángulo_5202" data-name="Rectángulo 5202" width="6.871" height="7.979" transform="translate(6.427 15.81)" fill="#9b235c"/>
  <path id="Trazado_12597" data-name="Trazado 12597" d="M-3460.541,2186.841l-22.164-8.053V2164.9l22.164-8.053Zm0,0" transform="translate(3498.958 -2152.043)" fill="#fff"/>
  <path id="Trazado_12598" data-name="Trazado 12598" d="M-3460.748,2187.36a.272.272,0,0,1-.222-.074l-22.164-8.052a.712.712,0,0,1-.517-.666v-13.889a.711.711,0,0,1,.517-.665l22.164-8.126a.717.717,0,0,1,.665.074.672.672,0,0,1,.3.591v29.994a.909.909,0,0,1-.3.592.443.443,0,0,1-.443.222Zm-21.425-9.309,20.687,7.536V2157.66l-20.687,7.536Zm0,0" transform="translate(3499.164 -2151.823)" fill="#193540"/>
  <path id="Trazado_12599" data-name="Trazado 12599" d="M-3478.923,2177.9v-9.752l16.254-5.911v21.573Zm0,0" transform="translate(3498.131 -2153.222)" fill="#9b235c"/>
  <rect id="Rectángulo_5203" data-name="Rectángulo 5203" width="2.882" height="29.995" transform="translate(38.417 4.803)" fill="#fff"/>
  <path id="Trazado_12600" data-name="Trazado 12600" d="M-3451.665,2187.374h-2.881a.7.7,0,0,1-.738-.739v-29.995a.7.7,0,0,1,.738-.739h2.881a.7.7,0,0,1,.739.739v29.995a.7.7,0,0,1-.739.739Zm-2.143-1.478h1.4v-28.517h-1.4Zm0,0" transform="translate(3492.963 -2151.837)" fill="#193540"/>
  <path id="Trazado_12601" data-name="Trazado 12601" d="M-3496.792,2184.927v15.367h2.659a3.658,3.658,0,0,0,3.694-3.694v-11.673Zm0,0" transform="translate(3502.037 -2158.182)" fill="#e0e4e8"/>
  <path id="Trazado_12602" data-name="Trazado 12602" d="M-3494.413,2200.9H-3497a.7.7,0,0,1-.739-.739V2184.72a.7.7,0,0,1,.739-.739h6.354a.7.7,0,0,1,.738.739v11.673a4.524,4.524,0,0,1-4.506,4.507Zm-1.847-1.479h1.921a2.964,2.964,0,0,0,2.955-2.955v-11.007h-4.876Zm0,0" transform="translate(3502.244 -2157.976)" fill="#193540"/>
  <path id="Trazado_12603" data-name="Trazado 12603" d="M-3487.056,2189.95h-1.7v-5.023h2.882v3.768a1.184,1.184,0,0,1-1.182,1.256Zm0,0" transform="translate(3500.281 -2158.182)" fill="#fff"/>
  <path id="Trazado_12604" data-name="Trazado 12604" d="M-3487.263,2190.483h-1.7a.7.7,0,0,1-.738-.739v-5.023a.7.7,0,0,1,.738-.739h2.882a.7.7,0,0,1,.739.739v3.768a1.881,1.881,0,0,1-1.921,1.995Zm-.96-1.478h.96a.5.5,0,0,0,.517-.517v-3.029h-1.4v3.546Zm0,0" transform="translate(3500.487 -2157.976)" fill="#193540"/>
  <path id="Trazado_12605" data-name="Trazado 12605" d="M-3450.652,2169.327v10.417a5.265,5.265,0,0,0,5.245-5.245,5.25,5.25,0,0,0-5.245-5.171Zm0,0" transform="translate(3491.95 -2154.772)" fill="#ffc23b"/>
  <path id="Trazado_12606" data-name="Trazado 12606" d="M-3450.859,2180.35a.7.7,0,0,1-.739-.739v-10.49a.7.7,0,0,1,.739-.739,5.959,5.959,0,0,1,5.984,5.984,5.96,5.96,0,0,1-5.984,5.985Zm.739-10.417v8.866a4.519,4.519,0,0,0,3.768-4.433,4.519,4.519,0,0,0-3.768-4.433Zm0,0" transform="translate(3492.157 -2154.565)" fill="#193540"/>
  <rect id="Rectángulo_5204" data-name="Rectángulo 5204" width="1.477" height="1.477" transform="translate(30.29 14.703)" fill="#193540"/>
  <rect id="Rectángulo_5205" data-name="Rectángulo 5205" width="1.477" height="1.478" transform="translate(30.29 19.061)" fill="#193540"/>
  <rect id="Rectángulo_5206" data-name="Rectángulo 5206" width="1.477" height="1.477" transform="translate(30.29 23.494)" fill="#193540"/>
</svg>
