<svg xmlns="http://www.w3.org/2000/svg" xmlns:xlink="http://www.w3.org/1999/xlink" width="272.852" height="284.7" viewBox="0 0 272.852 284.7">
  <defs>
    <linearGradient id="linear-gradient" y1="0.5" x2="1" y2="0.5" gradientUnits="objectBoundingBox">
      <stop offset="0" stop-color="#b5c8ff"/>
      <stop offset="0" stop-color="#fff"/>
      <stop offset="1" stop-color="#d0d4ff"/>
    </linearGradient>
  </defs>
  <g id="Grupo_28694" data-name="Grupo 28694" transform="translate(-382.883 -975.847)">
    <circle id="Elipse_1306" data-name="Elipse 1306" cx="119.163" cy="119.163" r="119.163" transform="translate(382.883 1212.49) rotate(-80.949)" fill="#f2f2f2" opacity="0.5"/>
    <path id="Trazado_64896" data-name="Trazado 64896" d="M589.6,999.663l-6.408-3.532c-1.424-1.366-3.888-1.4-6.678.212l-160.96,92.931c-4.38,2.528-7.963,8.18-7.963,12.559v116.6c0,2.227.928,3.711,2.414,4.3l0,0,7.159,4.07-.952-4.95-1.018.145c.121-.064.242-.13.364-.2l160.96-92.929c4.38-2.528,7.963-8.181,7.963-12.561V1001.85Z" transform="translate(14.088 10.991)" fill="#751b4a"/>
    <g id="Grupo_28674" data-name="Grupo 28674" transform="translate(428.801 1010.171)">
      <path id="Trazado_64897" data-name="Trazado 64897" d="M589.01,1002.295c0-4.38-3.583-5.893-7.963-3.365l-160.96,92.931c-4.38,2.528-7.963,8.18-7.963,12.559v9.7L589.01,1011.992Z" transform="translate(-412.124 -997.705)" fill="#9b235c"/>
      <path id="Trazado_64898" data-name="Trazado 64898" d="M412.124,1108.928v106.905c0,4.38,3.584,5.895,7.963,3.367l160.96-92.931c4.38-2.528,7.963-8.18,7.963-12.561V1006.8Z" transform="translate(-412.124 -992.516)" fill="#e8e8e8"/>
      <path id="Trazado_64899" data-name="Trazado 64899" d="M423.913,1062.043a7.1,7.1,0,0,1-3.42,5.4c-1.888,1.09-3.419.443-3.419-1.446a7.092,7.092,0,0,1,3.419-5.394C422.382,1059.508,423.913,1060.156,423.913,1062.043Z" transform="translate(-409.301 -962.138)" fill="#fff"/>
      <path id="Trazado_64900" data-name="Trazado 64900" d="M429.765,1058.665a7.091,7.091,0,0,1-3.42,5.394c-1.889,1.091-3.42.444-3.42-1.445a7.091,7.091,0,0,1,3.42-5.394C428.234,1056.129,429.765,1056.776,429.765,1058.665Z" transform="translate(-405.964 -964.065)" fill="#fff"/>
      <path id="Trazado_64901" data-name="Trazado 64901" d="M435.616,1055.287a7.1,7.1,0,0,1-3.419,5.394c-1.889,1.09-3.42.443-3.42-1.446a7.1,7.1,0,0,1,3.42-5.394C434.085,1052.751,435.616,1053.4,435.616,1055.287Z" transform="translate(-402.627 -965.992)" fill="#fff"/>
      <path id="Trazado_64902" data-name="Trazado 64902" d="M560.151,1011.665l-118.674,68.516c-1.867,1.079-3.395.434-3.395-1.435h0a7.066,7.066,0,0,1,3.395-5.355l118.674-68.517c1.867-1.077,3.4-.432,3.4,1.435h0A7.066,7.066,0,0,1,560.151,1011.665Z" transform="translate(-397.32 -993.914)" fill="#fff"/>
    </g>
    <g id="Grupo_28676" data-name="Grupo 28676" transform="translate(400.146 1139.093)">
      <path id="Trazado_64903" data-name="Trazado 64903" d="M401.682,1142.41l-1.489-3.591-1.054.254a10.54,10.54,0,0,1-.559-3.539v-32.063l-4.051-2.054v32.064a5.127,5.127,0,0,0,2.418,6.121h0Z" transform="translate(-393.666 -1067.48)" fill="#751b4a"/>
      <path id="Trazado_64904" data-name="Trazado 64904" d="M426.036,1082.848l-1.377.363,0,.033-1.24.358s1.539,3.241,1.661,3.444a27.1,27.1,0,0,0,3.97.243l1.9-1.525Z" transform="translate(-377.027 -1078.07)" fill="#25467f"/>
      <path id="Trazado_64905" data-name="Trazado 64905" d="M421.559,1086.331l-4.916-2.917-18.2,16.216,4.916,2.917Z" transform="translate(-391.274 -1077.747)" fill="#751b4a"/>
      <path id="Trazado_64906" data-name="Trazado 64906" d="M400.176,1093.191v1.95c0,7.045.521,4.026-4.439,8.445l-1.861,1.658,4.915,2.918,1.862-1.658c2.655-2.366,4.439-5.76,4.439-8.445v-1.952Z" transform="translate(-393.876 -1072.171)" fill="#751b4a"/>
      <path id="Trazado_64907" data-name="Trazado 64907" d="M444.154,1086.932a3.8,3.8,0,0,1-3.054-.278,3.289,3.289,0,0,1-1.377-2.767c0-.089-.008-.181-.008-.275v-1.95l-4.4,1.162-13.8,3.642-18.2,16.217v1.952c0,2.685-1.784,6.078-4.439,8.445l-1.862,1.658V1146.8a9.361,9.361,0,0,0,1.223,4.94,6.132,6.132,0,0,0,4.987,2.924L421.511,1156l18.3-22.465c3.874-4.757,6.211-10.413,6.211-15.034V1086.44Z" transform="translate(-392.091 -1078.746)" fill="#9b235c"/>
      <path id="Trazado_64908" data-name="Trazado 64908" d="M421.586,1083.883l4.4-1.162-4.915-2.916v1.95A4.134,4.134,0,0,0,421.586,1083.883Z" transform="translate(-378.365 -1079.805)" fill="#25467f"/>
      <path id="Trazado_64909" data-name="Trazado 64909" d="M427.883,1083.569a4.134,4.134,0,0,1-.512-2.128l.864-1.087-18.2,4.8,4.05,2.053Z" transform="translate(-384.662 -1079.491)" fill="#751b4a"/>
      <path id="Trazado_64910" data-name="Trazado 64910" d="M436.185,1132.366l-15.639,19.2-15.639-1.145c-3.872-.284-6.211-3.242-6.211-7.864v-28.672c3.756-3.345,6.3-8.214,6.3-12.054l15.548-13.85,15.549-4.1c0,3.839,2.546,5.769,6.3,4.778v28.672C442.4,1121.951,440.059,1127.609,436.185,1132.366Z" transform="translate(-391.126 -1077.481)" fill="#ffc23b"/>
      <g id="Grupo_28675" data-name="Grupo 28675" transform="translate(7.266 5.846)">
        <path id="Trazado_64911" data-name="Trazado 64911" d="M420.793,1151.929l-15.8-1.158c-4.066-.3-6.493-3.351-6.493-8.167V1113.8l.1-.091c3.707-3.3,6.2-8.056,6.2-11.826v-.138l.1-.091,15.6-13.9.071-.019,15.932-4.2v.4a4.741,4.741,0,0,0,1.6,3.941,4.856,4.856,0,0,0,4.317.542l.383-.1v29.068c0,4.708-2.348,10.4-6.28,15.227Zm-21.68-37.86V1142.6c0,4.461,2.216,7.286,5.926,7.558l15.482,1.134,15.538-19.079c3.846-4.722,6.141-10.271,6.141-14.843v-28.283a5.266,5.266,0,0,1-4.463-.743,5.152,5.152,0,0,1-1.829-4.031l-15.1,3.987-15.392,13.712C405.356,1105.892,402.843,1110.7,399.114,1114.069Z" transform="translate(-398.503 -1083.528)" fill="url(#linear-gradient)"/>
      </g>
    </g>
    <g id="Grupo_28677" data-name="Grupo 28677" transform="translate(552.2 1031.969)">
      <path id="Trazado_64912" data-name="Trazado 64912" d="M549.361,1014.115l-3.158-1.894v0c-.934-.868-2.531-.881-4.337.163l-45.955,26.532c-2.863,1.652-5.2,5.345-5.2,8.208v29.955a2.846,2.846,0,0,0,1.319,2.682l-.013,0c.069.037,3.254,2,3.254,2l-.173-2.078h-.016a6.692,6.692,0,0,0,.832-.407l45.955-26.532c2.861-1.652,5.2-5.345,5.2-8.208v-29.589Z" transform="translate(-490.707 -1011.587)" fill="#751b4a"/>
      <path id="Trazado_64913" data-name="Trazado 64913" d="M544.1,1054.126l-45.954,26.532c-2.863,1.652-5.2.663-5.2-2.2V1048.5c0-2.861,2.341-6.556,5.2-8.208l45.954-26.532c2.863-1.654,5.2-.663,5.2,2.2v29.955C549.3,1048.779,546.96,1052.473,544.1,1054.126Z" transform="translate(-489.434 -1010.802)" fill="#9b235c"/>
    </g>
    <g id="Grupo_28681" data-name="Grupo 28681" transform="translate(563.372 1103.114)">
      <g id="Grupo_28679" data-name="Grupo 28679" transform="translate(0 0)">
        <g id="Grupo_28678" data-name="Grupo 28678" transform="translate(2.317 1.343)">
          <path id="Trazado_64914" data-name="Trazado 64914" d="M515.275,1092.171c-8.811,5.086-15.978,2.057-15.978-6.752s7.167-20.116,15.978-25.2,15.976-2.057,15.976,6.753S524.084,1087.084,515.275,1092.171Zm0-31.138c-8.359,4.827-15.16,15.554-15.16,23.913s6.8,11.232,15.16,6.407,15.16-15.552,15.16-23.911S523.634,1056.207,515.275,1061.033Z" transform="translate(-499.297 -1057.748)" fill="#fff"/>
        </g>
        <ellipse id="Elipse_1307" data-name="Elipse 1307" cx="17.369" cy="9.827" rx="17.369" ry="9.827" transform="translate(0 27.762) rotate(-53.051)" fill="#58404b"/>
      </g>
      <g id="Grupo_28680" data-name="Grupo 28680" transform="translate(11.776 9.078)">
        <path id="Trazado_64915" data-name="Trazado 64915" d="M510.527,1070.862a7.429,7.429,0,0,0,3.376-5.812c0-2.132-1.512-2.988-3.376-1.911a7.427,7.427,0,0,0-3.378,5.81C507.149,1071.082,508.661,1071.939,510.527,1070.862Z" transform="translate(-504.279 -1062.674)" fill="#fff"/>
        <path id="Trazado_64916" data-name="Trazado 64916" d="M512.811,1069.032l-2.486,1.437c-2.753,1.589-5,4.9-5,7.352v1.9c0,1.021.937,1.316,2.082.655l8.33-4.81a4.169,4.169,0,0,0,2.082-3.059v-1.9C517.816,1068.152,515.564,1067.444,512.811,1069.032Z" transform="translate(-505.321 -1059.531)" fill="#fff"/>
      </g>
    </g>
    <g id="Grupo_28682" data-name="Grupo 28682" transform="translate(419.863 1165.57)">
      <path id="Trazado_64917" data-name="Trazado 64917" d="M413.872,1122.887l-.006,0a1.168,1.168,0,0,1-1.485-.118l-5.716-7.281c-.476-.587-.195-1.781.63-2.668s1.877-1.132,2.352-.546l4.238,5.46,8.747-19.274a2.818,2.818,0,0,1,2.357-1.792c.82.071,1.095.989.612,2.051l-10.243,22.573A3.4,3.4,0,0,1,413.872,1122.887Z" transform="translate(-406.433 -1096.666)" fill="#fff"/>
    </g>
    <path id="Trazado_64918" data-name="Trazado 64918" d="M409.11,1056.849c0-3.483,2.823-7.938,6.308-9.948l3.788-2.187a7.811,7.811,0,0,1-.192-1.778c0-5.166,4.188-11.772,9.354-14.754,2.725-1.574,5.177-1.823,6.887-.95a24.17,24.17,0,0,1,10.683-14.367c3.412-1.971,6.463-2.184,8.492-.926v0l3.818,2.209-1.8.267a8.3,8.3,0,0,1,.551,3.126,16.178,16.178,0,0,1-1.383,6.154l3.546-2.046c1.938-1.12,3.67-1.244,4.827-.535l0,0,4.177,2.52-2.715,1.027c-.176,3.428-2.921,7.66-6.291,9.606l-43.742,25.255a8.512,8.512,0,0,1-1.253.6l.068,2.033-3.566-2.049.009,0A3.475,3.475,0,0,1,409.11,1056.849Z" transform="translate(14.958 20.135)" fill="#437795"/>
    <path id="Trazado_64919" data-name="Trazado 64919" d="M417.742,1048.238l3.788-2.188a7.8,7.8,0,0,1-.192-1.777c0-5.167,4.188-11.773,9.354-14.755,2.725-1.574,5.177-1.823,6.887-.95a24.169,24.169,0,0,1,10.683-14.367c6.109-3.527,11.06-1.434,11.06,4.673a16.175,16.175,0,0,1-1.383,6.154l3.546-2.046c3.483-2.012,6.306-.818,6.306,2.665s-2.823,7.938-6.306,9.95l-43.742,25.255c-3.484,2.01-6.308.817-6.308-2.666S414.257,1050.248,417.742,1048.238Z" transform="translate(16.283 20.896)" fill="#b0d1e2"/>
    <path id="Trazado_64920" data-name="Trazado 64920" d="M471.556,1021.544c0-3.483,2.825-7.938,6.308-9.948l3.788-2.187a7.81,7.81,0,0,1-.192-1.777c0-5.166,4.188-11.773,9.354-14.755,2.726-1.573,5.177-1.823,6.887-.95a24.17,24.17,0,0,1,10.683-14.367c3.414-1.971,6.463-2.186,8.492-.926v0l3.817,2.208-1.8.268a8.329,8.329,0,0,1,.55,3.127,16.179,16.179,0,0,1-1.383,6.154l3.546-2.046c1.938-1.12,3.671-1.244,4.827-.536l0,0,4.177,2.52L527.9,989.35c-.174,3.428-2.919,7.66-6.291,9.605l-43.743,25.255a8.414,8.414,0,0,1-1.253.6l.068,2.034-3.566-2.049.009,0A3.475,3.475,0,0,1,471.556,1021.544Z" transform="translate(50.571 0)" fill="#437795"/>
    <path id="Trazado_64921" data-name="Trazado 64921" d="M480.188,1012.931l3.788-2.186a7.838,7.838,0,0,1-.192-1.779c0-5.165,4.188-11.771,9.354-14.753,2.726-1.573,5.177-1.823,6.887-.95A24.165,24.165,0,0,1,510.708,978.9c6.108-3.527,11.06-1.434,11.06,4.673a16.176,16.176,0,0,1-1.383,6.154l3.546-2.046c3.483-2.012,6.308-.818,6.308,2.665s-2.825,7.938-6.308,9.949l-43.742,25.255c-3.483,2.01-6.308.817-6.308-2.666S476.7,1014.943,480.188,1012.931Z" transform="translate(51.896 0.762)" fill="#b0d1e2"/>
    <path id="Trazado_64922" data-name="Trazado 64922" d="M449.082,1109.511l-4.409-1.863-5.443,8.585-5.443-2.3-4.409,6.954,5.443,2.3-5.443,8.585,4.409,1.863,5.443-8.585,5.443,2.3,4.409-6.954-5.443-2.3Z" transform="translate(26.517 75.167)" fill="#437795"/>
    <g id="Grupo_28688" data-name="Grupo 28688" transform="translate(484.452 1080.215)">
      <path id="Trazado_64923" data-name="Trazado 64923" d="M447.564,1141.4l52.408-30.258v-68.827l-52.408,30.258Z" transform="translate(-447.564 -1042.311)" fill="#437795"/>
      <g id="Grupo_28684" data-name="Grupo 28684" transform="translate(9.459 15.286)">
        <g id="Grupo_28683" data-name="Grupo 28683">
          <path id="Trazado_64924" data-name="Trazado 64924" d="M459.259,1105.351l-.253-.055c-3.444-1.04-5.419-4.227-5.419-8.747v-24.4l34.817-20.1v24.913c0,4.441-1.921,9.747-5.268,14.558l-11.777,13.957Zm23.025-14.427c3.23-4.641,5.082-9.733,5.082-13.966V1053.84l-32.742,18.9v23.806c0,4.029,1.707,6.856,4.684,7.754l11.573.127,11.324-13.392Z" transform="translate(-453.587 -1052.045)" fill="#fff"/>
        </g>
      </g>
      <g id="Grupo_28687" data-name="Grupo 28687" transform="translate(20.394 32.421)">
        <g id="Grupo_28685" data-name="Grupo 28685" transform="translate(0 4.583)">
          <path id="Trazado_64925" data-name="Trazado 64925" d="M462.308,1085.144l9.816-5.667a3.639,3.639,0,0,0,1.757-2.77v-9.817c0-.969-.787-1.3-1.757-.741l-9.816,5.667a3.643,3.643,0,0,0-1.757,2.77v9.817C460.551,1085.372,461.338,1085.7,462.308,1085.144Z" transform="translate(-460.551 -1065.876)" fill="#ffc23b"/>
          <path id="Trazado_64926" data-name="Trazado 64926" d="M464.026,1072.934a2.908,2.908,0,0,1,1.4-2.209c.774-.446,1.4-.182,1.4.592a2.316,2.316,0,0,1-.336,1.106q.125,1.053.25,2.1l-2.627,1.517.25-2.392A.776.776,0,0,1,464.026,1072.934Z" transform="translate(-458.569 -1063.234)" fill="#437795"/>
          <path id="Trazado_64927" data-name="Trazado 64927" d="M467.368,1070.542l2.625-1.516v-1.218l-2.625,1.516Z" transform="translate(-456.663 -1064.774)" fill="#437795"/>
          <path id="Trazado_64928" data-name="Trazado 64928" d="M467.368,1071.993l2.625-1.516v-1.218l-2.625,1.516Z" transform="translate(-456.663 -1063.946)" fill="#437795"/>
          <path id="Trazado_64929" data-name="Trazado 64929" d="M467.368,1073.444l2.625-1.515v-1.218l-2.625,1.516Z" transform="translate(-456.663 -1063.118)" fill="#437795"/>
          <path id="Trazado_64930" data-name="Trazado 64930" d="M460.551,1074.478l2.625-1.516v-1.218l-2.625,1.516Z" transform="translate(-460.551 -1062.529)" fill="#437795"/>
          <path id="Trazado_64931" data-name="Trazado 64931" d="M460.551,1075.929l2.625-1.515v-1.218l-2.625,1.516Z" transform="translate(-460.551 -1061.701)" fill="#437795"/>
          <path id="Trazado_64932" data-name="Trazado 64932" d="M460.551,1077.38l2.625-1.516v-1.218l-2.625,1.516Z" transform="translate(-460.551 -1060.874)" fill="#437795"/>
        </g>
        <g id="Grupo_28686" data-name="Grupo 28686" transform="translate(2.335)">
          <path id="Trazado_64933" data-name="Trazado 64933" d="M462.748,1073.919a.71.71,0,0,0,.71-.71v-3.273a6.846,6.846,0,0,1,3.266-5.1,2.185,2.185,0,0,1,2.027-.33,1.384,1.384,0,0,1,.528,1.245v3.271a.71.71,0,1,0,1.42,0v-3.271a2.691,2.691,0,0,0-1.237-2.475,3.464,3.464,0,0,0-3.448.33,8.177,8.177,0,0,0-3.974,6.325v3.273A.71.71,0,0,0,462.748,1073.919Z" transform="translate(-462.038 -1062.957)" fill="#ffc23b"/>
        </g>
      </g>
    </g>
    <g id="Grupo_28691" data-name="Grupo 28691" transform="translate(562.625 1041.132)">
      <g id="Grupo_28690" data-name="Grupo 28690">
        <path id="Trazado_64934" data-name="Trazado 64934" d="M498.753,1054.269l42.493-24.533a2.931,2.931,0,0,0,1.407-2.219v-9.285c0-.774-.633-1.041-1.407-.594l-42.493,24.533a2.931,2.931,0,0,0-1.407,2.219v9.284C497.346,1054.448,497.98,1054.715,498.753,1054.269Z" transform="translate(-497.346 -1017.422)" fill="#fff" opacity="0.85"/>
        <g id="Grupo_28689" data-name="Grupo 28689" transform="translate(5.945 7.892)">
          <path id="Trazado_64935" data-name="Trazado 64935" d="M520.832,1025.013c0,.816.664,1.1,1.481.625a3.07,3.07,0,0,0,1.481-2.335c0-.818-.663-1.1-1.481-.625A3.071,3.071,0,0,0,520.832,1025.013Z" transform="translate(-489.897 -1022.448)" fill="#243e76"/>
          <path id="Trazado_64936" data-name="Trazado 64936" d="M518.018,1026.636c0,.818.663,1.1,1.481.626a3.069,3.069,0,0,0,1.481-2.335c0-.818-.663-1.1-1.481-.626A3.073,3.073,0,0,0,518.018,1026.636Z" transform="translate(-491.502 -1021.521)" fill="#243e76"/>
          <path id="Trazado_64937" data-name="Trazado 64937" d="M515.2,1028.261c0,.818.663,1.1,1.481.626a3.074,3.074,0,0,0,1.479-2.335c0-.818-.663-1.1-1.479-.626A3.072,3.072,0,0,0,515.2,1028.261Z" transform="translate(-493.107 -1020.594)" fill="#243e76"/>
          <path id="Trazado_64938" data-name="Trazado 64938" d="M512.39,1029.886c0,.818.663,1.1,1.479.627a3.072,3.072,0,0,0,1.481-2.335c0-.818-.663-1.1-1.481-.627A3.075,3.075,0,0,0,512.39,1029.886Z" transform="translate(-494.711 -1019.667)" fill="#243e76"/>
          <path id="Trazado_64939" data-name="Trazado 64939" d="M509.575,1031.511c0,.818.663,1.1,1.481.625a3.067,3.067,0,0,0,1.481-2.335c0-.817-.663-1.1-1.481-.625A3.07,3.07,0,0,0,509.575,1031.511Z" transform="translate(-496.317 -1018.741)" fill="#243e76"/>
          <path id="Trazado_64940" data-name="Trazado 64940" d="M506.761,1033.136c0,.817.663,1.1,1.481.625a3.071,3.071,0,0,0,1.481-2.335c0-.817-.664-1.1-1.481-.625A3.067,3.067,0,0,0,506.761,1033.136Z" transform="translate(-497.922 -1017.814)" fill="#243e76"/>
          <path id="Trazado_64941" data-name="Trazado 64941" d="M503.947,1034.761c0,.817.663,1.1,1.479.625a3.067,3.067,0,0,0,1.481-2.335c0-.818-.663-1.1-1.481-.625A3.069,3.069,0,0,0,503.947,1034.761Z" transform="translate(-499.527 -1016.888)" fill="#243e76"/>
          <path id="Trazado_64942" data-name="Trazado 64942" d="M501.132,1036.385c0,.818.663,1.1,1.481.626a3.069,3.069,0,0,0,1.481-2.335c0-.818-.663-1.1-1.481-.626A3.072,3.072,0,0,0,501.132,1036.385Z" transform="translate(-501.132 -1015.961)" fill="#243e76"/>
        </g>
      </g>
    </g>
    <g id="Grupo_28693" data-name="Grupo 28693" transform="translate(514.851 1140.495)">
      <g id="Grupo_28692" data-name="Grupo 28692" transform="translate(23.51 57.076)">
        <path id="Trazado_64943" data-name="Trazado 64943" d="M491.605,1118.147s2.728,34.906,4.816,49.443c.162,1.121.614,4.59.366,4.05a9.5,9.5,0,0,0,4.345-3.384s2.74-16.607-.862-20.931c0,0,5.144-24.076.553-29.451C499.106,1115.862,491.605,1118.147,491.605,1118.147Z" transform="translate(-476.356 -1117.046)" fill="#ffb5b3"/>
        <path id="Trazado_64944" data-name="Trazado 64944" d="M489.964,1154.164s6.55,3.536,9.072,3.147,3.865-1.432,4.168-2.487-.843-5.578-.843-5.578c-1.666.968-4.779-.012-4.779-.012h0a3.171,3.171,0,0,1-3.759,1.52,7.244,7.244,0,0,1-.8-.292C491.944,1149.951,488.4,1150.59,489.964,1154.164Z" transform="translate(-477.516 -1098.689)" fill="#58404b"/>
        <path id="Trazado_64945" data-name="Trazado 64945" d="M485.713,1120.211a167.154,167.154,0,0,0-.041,27.948c.776,8.155,1.636,16.32,2.409,21.7.162,1.12.614,4.589.366,4.048a9.506,9.506,0,0,0,4.345-3.384s2.74-16.608-.862-20.931c0,0,6.462-22.84,1.87-28.217C492.082,1119.365,485.713,1120.211,485.713,1120.211Z" transform="translate(-480.069 -1115.341)" fill="#ffb5b3"/>
        <path id="Trazado_64946" data-name="Trazado 64946" d="M482.286,1156.694s7.729,3.89,10.253,3.5,2.269-1.335,2.572-2.388-.427-6.031-.427-6.031c-1.666.969-4.778-.011-4.778-.011h0a2.78,2.78,0,0,1-3.37,1.637,9.626,9.626,0,0,1-1.187-.41C484.268,1152.479,480.722,1153.12,482.286,1156.694Z" transform="translate(-481.894 -1097.246)" fill="#58404b"/>
      </g>
      <path id="Trazado_64947" data-name="Trazado 64947" d="M486.424,1085.5s-4.157,8.921-.386,13,10.174-2.472,10.874-5.6.281-7.541-3.411-8.374A11.326,11.326,0,0,0,486.424,1085.5Z" transform="translate(-456.923 -1078.643)" fill="#ffb5b3"/>
      <path id="Trazado_64948" data-name="Trazado 64948" d="M477.047,1095.729s.115-6.146-.689-6.868-1.047,2.66-1.286,2.831-3.571-7.566-4.659-7.128,1.3,4.433,1.3,4.433a1.339,1.339,0,0,0-1.6.928s-1.266.127-1.134,1.063c0,0-1.5.3-1.149,1.285,0,0-1.219.592-.828,1.214,2.087,3.334,6.751,5.787,6.751,5.787Z" transform="translate(-466.923 -1078.503)" fill="#ffb5b3"/>
      <path id="Trazado_64949" data-name="Trazado 64949" d="M495.147,1127.937s17.627-7.62,14.156-17.36S496.289,1098,496.289,1098Z" transform="translate(-450.826 -1070.83)" fill="#f3f3f3"/>
      <path id="Trazado_64950" data-name="Trazado 64950" d="M487.51,1103l-6.652,51.016s21.813,12.319,31.559-3.422c0,0-8.079-51.119-9.12-53.3S488.174,1098.456,487.51,1103Z" transform="translate(-458.975 -1071.626)" fill="#437795"/>
      <path id="Trazado_64951" data-name="Trazado 64951" d="M470.02,1094.6c1.146-4.234,5.506-3.47,5.506-3.47a38.394,38.394,0,0,0,9.048,11.254c5.455,4.458,12.9-2.627,15.5,1.68,2.778,4.593-7.181,14.53-20.257,5.76C474.908,1106.532,470.02,1094.6,470.02,1094.6Z" transform="translate(-465.156 -1074.779)" fill="#f3f3f3"/>
      <path id="Trazado_64952" data-name="Trazado 64952" d="M491.858,1093.119a7.984,7.984,0,0,1,.121,4.888c-2.037,7.121-8.131,31.851,4.273,35.428,14.516,4.187,17.386-13.412,11.7-22.805s.44-24.076-8.148-28.041-16.678-1.319-16.463,4.471,7.49,4.485,8.125,5.268A2.937,2.937,0,0,1,491.858,1093.119Z" transform="translate(-457.562 -1080.698)" fill="#58404b"/>
    </g>
  </g>
</svg>
