<svg id="Grupo_24010" data-name="Grupo 24010" xmlns="http://www.w3.org/2000/svg" width="47.271" height="46.615" viewBox="0 0 47.271 46.615">
  <path id="Trazado_12607" data-name="Trazado 12607" d="M-3459.163,2244.737a23.27,23.27,0,0,1-23.271,23.27,23.27,23.27,0,0,1-23.27-23.27,23.269,23.269,0,0,1,23.27-23.27,23.269,23.269,0,0,1,23.271,23.27Zm0,0" transform="translate(3506.434 -2221.392)" fill="#ececec"/>
  <path id="Trazado_12608" data-name="Trazado 12608" d="M-3468.614,2271.826h-22.173a.748.748,0,0,1-.741-.741.748.748,0,0,1,.741-.741h22.238a.748.748,0,0,1,.741.741.806.806,0,0,1-.807.741Zm0,0" transform="translate(3503.335 -2232.077)" fill="#193540"/>
  <path id="Trazado_12609" data-name="Trazado 12609" d="M-3461.225,2258.3h-1.482v-.3h1.482Zm-40.63,0h-1.482v-1.482h1.482Zm40.63-1.848h-1.482v-1.482h1.482Zm-40.63-1.106h-1.482v-1.481h1.482Zm40.63-1.773h-1.482v-1.481h1.482Zm-40.63-1.106h-1.482v-1.482h1.482Zm40.63-1.773h-1.482v-1.482h1.482Zm-40.63-1.181h-1.482v-1.482h1.482Zm40.63-1.773h-1.482v-1.482h1.482Zm-40.63-1.116h-1.482v-1.482h1.482Zm40.63-1.773h-1.482v-1.472h1.482Zm-40.63-1.106h-1.482v-1.482h1.482Zm40.63-1.848h-1.482v-1.482h1.482Zm-40.63-1.107h-1.482V2239.3h1.482Zm40.63-1.772h-1.482v-1.482h1.482Zm-40.63-1.106h-1.482v-1.482h1.482Zm40.63-1.773h-1.482v-1.481h1.482Zm-40.63-1.181h-1.482v-1.483h1.482Zm40.63-1.773h-1.482V2231.1h1.482Zm-2.289-.591H-3465V2231.1h1.482Zm-2.955,0h-1.481V2231.1h1.481Zm-2.889,0h-1.482V2231.1h1.482Zm-2.879,0h-1.481V2231.1h1.481Zm-2.954,0h-1.481V2231.1h1.481Zm-2.879,0h-1.482V2231.1h1.482Zm-2.955,0h-1.482V2231.1h1.482Zm-2.879,0h-1.481V2231.1h1.481Zm-2.879,0h-1.482V2231.1h1.482Zm-2.964,0h-1.482V2231.1h1.482Zm-2.879,0h-1.473V2231.1h1.482v1.482Zm-2.88,0h-1.482V2231.1h1.482Zm-2.954,0h-1.482V2231.1h1.482Zm-2.879,0h-2V2231.1h2Zm0,0" transform="translate(3505.917 -2223.499)" fill="#193540"/>
  <path id="Trazado_12610" data-name="Trazado 12610" d="M-3473.542,2265.9h-9a1.4,1.4,0,0,0-1.407,1.407v5.758a1.4,1.4,0,0,0,1.407,1.407h9a1.405,1.405,0,0,0,1.407-1.407v-5.758a1.405,1.405,0,0,0-1.407-1.407Zm0,0" transform="translate(3501.679 -2231.106)" fill="#fff"/>
  <path id="Trazado_12611" data-name="Trazado 12611" d="M-3473.746,2274.918h-9a2.138,2.138,0,0,1-2.139-2.139v-5.759a2.138,2.138,0,0,1,2.139-2.138h9a2.137,2.137,0,0,1,2.139,2.138v5.759a2.131,2.131,0,0,1-2.139,2.139Zm-9-8.573a.668.668,0,0,0-.666.666v5.759a.668.668,0,0,0,.666.667h9a.669.669,0,0,0,.666-.667v-5.759a.668.668,0,0,0-.666-.666Zm0,0" transform="translate(3501.884 -2230.883)" fill="#193540"/>
  <path id="Trazado_12612" data-name="Trazado 12612" d="M-3474.952,2279.356h-4l.591-2.578h2.813Zm0,0" transform="translate(3500.585 -2233.484)" fill="#fff"/>
  <path id="Trazado_12613" data-name="Trazado 12613" d="M-3475.09,2279.888h-4.061a.667.667,0,0,1-.591-.3.568.568,0,0,1-.15-.591l.591-2.589a.788.788,0,0,1,.741-.591h2.879a.727.727,0,0,1,.741.591l.592,2.439a.453.453,0,0,1,.074.3c-.159.451-.45.742-.816.742Zm-3.179-1.473h2.213l-.3-1.182h-1.7Zm0,0" transform="translate(3500.798 -2233.274)" fill="#193540"/>
  <path id="Trazado_12614" data-name="Trazado 12614" d="M-3474.731,2280.613h-5.167a.748.748,0,0,1-.741-.742.7.7,0,0,1,.741-.74h5.167a.748.748,0,0,1,.742.74.7.7,0,0,1-.742.742Zm0,0" transform="translate(3500.955 -2233.998)" fill="#193540"/>
  <path id="Trazado_12615" data-name="Trazado 12615" d="M-3451.794,2265.9h-9.013a1.405,1.405,0,0,0-1.407,1.407v5.758a1.406,1.406,0,0,0,1.407,1.407h9.013a1.4,1.4,0,0,0,1.407-1.407v-5.758a1.36,1.36,0,0,0-1.407-1.407Zm0,0" transform="translate(3496.927 -2231.106)" fill="#fff"/>
  <path id="Trazado_12616" data-name="Trazado 12616" d="M-3452,2274.918h-9.013a2.138,2.138,0,0,1-2.139-2.139v-5.759a2.138,2.138,0,0,1,2.139-2.138H-3452a2.137,2.137,0,0,1,2.138,2.138v5.759a2.138,2.138,0,0,1-2.138,2.139Zm-9.013-8.573a.669.669,0,0,0-.667.666v5.759a.67.67,0,0,0,.667.667H-3452a.67.67,0,0,0,.667-.667v-5.759a.669.669,0,0,0-.667-.666Zm0,0" transform="translate(3497.132 -2230.883)" fill="#193540"/>
  <path id="Trazado_12617" data-name="Trazado 12617" d="M-3453.136,2279.356h-4.061l.591-2.578h2.879Zm0,0" transform="translate(3495.83 -2233.484)" fill="#fff"/>
  <path id="Trazado_12618" data-name="Trazado 12618" d="M-3453.352,2279.888h-4.061a.667.667,0,0,1-.591-.3.567.567,0,0,1-.151-.591l.591-2.589a.789.789,0,0,1,.741-.591h2.879a.728.728,0,0,1,.741.591l.592,2.439a.45.45,0,0,1,.075.3.856.856,0,0,1-.817.742Zm-3.17-1.473h2.213l-.3-1.182h-1.7Zm0,0" transform="translate(3496.046 -2233.274)" fill="#193540"/>
  <path id="Trazado_12619" data-name="Trazado 12619" d="M-3452.918,2280.613h-5.242a.748.748,0,0,1-.742-.742.7.7,0,0,1,.742-.74h5.242a.748.748,0,0,1,.742.74.743.743,0,0,1-.742.742Zm0,0" transform="translate(3496.203 -2233.998)" fill="#193540"/>
  <path id="Trazado_12620" data-name="Trazado 12620" d="M-3495.282,2265.9h-9.013a1.4,1.4,0,0,0-1.407,1.407v5.758a1.405,1.405,0,0,0,1.407,1.407h9.013a1.4,1.4,0,0,0,1.407-1.407v-5.758a1.411,1.411,0,0,0-1.407-1.407Zm0,0" transform="translate(3506.434 -2231.106)" fill="#fff"/>
  <path id="Trazado_12621" data-name="Trazado 12621" d="M-3495.487,2274.918h-9.013a2.138,2.138,0,0,1-2.139-2.139v-5.759a2.137,2.137,0,0,1,2.139-2.138h9.013a2.138,2.138,0,0,1,2.139,2.138v5.759a2.144,2.144,0,0,1-2.139,2.139Zm-9.013-8.573a.668.668,0,0,0-.666.666v5.759a.669.669,0,0,0,.666.667h9.013a.669.669,0,0,0,.666-.667v-5.759a.668.668,0,0,0-.666-.666Zm0,0" transform="translate(3506.639 -2230.883)" fill="#193540"/>
  <path id="Trazado_12622" data-name="Trazado 12622" d="M-3496.72,2279.356h-4.061l.591-2.578h2.879Zm0,0" transform="translate(3505.358 -2233.484)" fill="#fff"/>
  <path id="Trazado_12623" data-name="Trazado 12623" d="M-3496.936,2279.888H-3501a.667.667,0,0,1-.591-.3.567.567,0,0,1-.151-.591l.592-2.589a.787.787,0,0,1,.741-.591h2.879a.728.728,0,0,1,.741.591l.516,2.439a.45.45,0,0,1,.075.3.7.7,0,0,1-.741.742Zm-3.1-1.473h2.213l-.3-1.182h-1.689Zm0,0" transform="translate(3505.574 -2233.274)" fill="#193540"/>
  <path id="Trazado_12624" data-name="Trazado 12624" d="M-3496.5,2280.613h-5.242a.748.748,0,0,1-.741-.742.7.7,0,0,1,.741-.74h5.242a.748.748,0,0,1,.741.74.7.7,0,0,1-.741.742Zm0,0" transform="translate(3505.731 -2233.998)" fill="#193540"/>
  <path id="Trazado_12625" data-name="Trazado 12625" d="M-3468.395,2222.415h-23.355a1.485,1.485,0,0,0-1.481,1.481V2238.6h26.224v-14.792a1.335,1.335,0,0,0-1.388-1.4Zm0,0" transform="translate(3503.708 -2221.599)" fill="#9b235c"/>
  <path id="Trazado_12626" data-name="Trazado 12626" d="M-3467.127,2239.1h-26.3a.748.748,0,0,1-.741-.741v-14.773a2.217,2.217,0,0,1,2.213-2.213h23.345a2.217,2.217,0,0,1,2.213,2.213v14.707a.8.8,0,0,1-.731.806Zm-25.558-1.472h24.827v-14.042a.748.748,0,0,0-.741-.741h-23.355a.748.748,0,0,0-.741.741c.01,0,.01,14.042.01,14.042Zm0,0" transform="translate(3503.912 -2221.371)" fill="#193540"/>
  <rect id="Rectángulo_5207" data-name="Rectángulo 5207" width="20.465" height="10.345" transform="translate(13.441 3.695)" fill="#fff"/>
  <path id="Trazado_12627" data-name="Trazado 12627" d="M-3493.219,2243.121v3.845a1.485,1.485,0,0,0,1.481,1.481h23.345a1.485,1.485,0,0,0,1.481-1.481v-3.845Zm0,0" transform="translate(3503.705 -2226.126)" fill="#fff"/>
  <path id="Trazado_12628" data-name="Trazado 12628" d="M-3468.6,2248.96h-23.355a2.218,2.218,0,0,1-2.213-2.214V2242.9a.748.748,0,0,1,.741-.741h26.224a.749.749,0,0,1,.741.741v3.845a2.155,2.155,0,0,1-2.139,2.214Zm-24.086-5.318v3.1a.748.748,0,0,0,.741.741h23.345a.748.748,0,0,0,.741-.741v-3.1Zm0,0" transform="translate(3503.912 -2225.916)" fill="#193540"/>
  <path id="Trazado_12629" data-name="Trazado 12629" d="M-3473.148,2254.354h-9l1.322-4.427h6.359Zm0,0" transform="translate(3501.286 -2227.614)" fill="#fff"/>
  <path id="Trazado_12630" data-name="Trazado 12630" d="M-3473.355,2254.884h-9a.667.667,0,0,1-.591-.3.981.981,0,0,1-.15-.666l1.332-4.437a.7.7,0,0,1,.667-.516h6.424a.712.712,0,0,1,.667.516l1.256,4.287a.542.542,0,0,1,.076.366.65.65,0,0,1-.676.75Zm-8.047-1.472h7.016l-.891-2.954h-5.319Zm0,0" transform="translate(3501.493 -2227.404)" fill="#193540"/>
  <path id="Trazado_12631" data-name="Trazado 12631" d="M-3472.4,2256.126h-11.668a.748.748,0,0,1-.741-.741.748.748,0,0,1,.741-.741h11.678a.748.748,0,0,1,.741.741.805.805,0,0,1-.751.741Zm0,0" transform="translate(3501.866 -2228.645)" fill="#193540"/>
  <path id="Trazado_12632" data-name="Trazado 12632" d="M-3475.156,2247.051h-3.986a.748.748,0,0,1-.741-.741.7.7,0,0,1,.741-.741h3.986a.748.748,0,0,1,.742.741.755.755,0,0,1-.742.741Zm0,0" transform="translate(3500.79 -2226.661)" fill="#193540"/>
  <path id="Trazado_12633" data-name="Trazado 12633" d="M-3453.472,2270.838a1.623,1.623,0,0,1-1.623,1.623,1.623,1.623,0,0,1-1.622-1.623,1.622,1.622,0,0,1,1.622-1.622,1.622,1.622,0,0,1,1.623,1.622Zm0,0" transform="translate(3495.725 -2231.831)" fill="#9b235c"/>
  <path id="Trazado_12634" data-name="Trazado 12634" d="M-3475.222,2270.838a1.623,1.623,0,0,1-1.622,1.623,1.623,1.623,0,0,1-1.623-1.623,1.622,1.622,0,0,1,1.623-1.622,1.622,1.622,0,0,1,1.622,1.622Zm0,0" transform="translate(3500.48 -2231.831)" fill="#9b235c"/>
  <path id="Trazado_12635" data-name="Trazado 12635" d="M-3496.972,2270.838a1.622,1.622,0,0,1-1.622,1.623,1.623,1.623,0,0,1-1.623-1.623,1.622,1.622,0,0,1,1.623-1.622,1.622,1.622,0,0,1,1.622,1.622Zm0,0" transform="translate(3505.235 -2231.831)" fill="#9b235c"/>
  <path id="Trazado_12636" data-name="Trazado 12636" d="M-3478.551,2232.9v.891h2.739v-.891a3.035,3.035,0,0,0,1.7-2.729,3.046,3.046,0,0,0-3.029-3.029,3.1,3.1,0,0,0-3.03,3.029,2.785,2.785,0,0,0,1.623,2.729Zm0,0" transform="translate(3500.854 -2222.633)" fill="#437795"/>
  <path id="Trazado_12637" data-name="Trazado 12637" d="M-3478.371,2235.462v.741a1.509,1.509,0,0,0,1.548,1.548,1.509,1.509,0,0,0,1.547-1.548v-.741Zm0,0" transform="translate(3500.459 -2224.451)" fill="#e0e4e8"/>
</svg>
