<svg xmlns="http://www.w3.org/2000/svg" width="802" height="337.408" viewBox="0 0 802 337.408">
  <g id="Grupo_28770" data-name="Grupo 28770" transform="translate(-301 -5784)">
    <g id="Grupo_28706" data-name="Grupo 28706" transform="translate(33 -46)">
      <g id="Grupo_28705" data-name="Grupo 28705" transform="translate(0 -33)">
        <g id="Grupo_28704" data-name="Grupo 28704">
          <g id="Grupo_28696" data-name="Grupo 28696" transform="translate(49.352 4267.347)">
            <path id="Trazado_64960" data-name="Trazado 64960" d="M376.107,1906.216c5.03,1.833,23.437-2.081,19.415-15.812-3.547-12.11-22.857-30.79-37.025-20.119-6.155,4.637-9.8,11.723-14.869,17.336-5.3,5.871-12.725,8.386-18.989,12.9-6.29,4.536-12.367,11.756-9.057,20.788,3.272,8.927,10.85,12.979,18.416,11.428,6.2-1.269,11.045-6.844,15.027-13.125C354.172,1911.488,363.773,1901.721,376.107,1906.216Z" fill="#657d89"/>
            <path id="Trazado_64961" data-name="Trazado 64961" d="M408.267,1886.2c1.336-2.052,2.657-4.713.715-7.151-1.738-2.185-4.612-1.43-6.519-.4-1.668.905-3.807,3.229-3.6,5.363a5.785,5.785,0,0,0,4.137,4.935C405.033,1889.36,407.111,1887.646,408.267,1886.2Z" fill="#657d89"/>
            <path id="Trazado_64962" data-name="Trazado 64962" d="M401.044,1876.886c1.207-1.141,2.5-2.67,1.559-4.469-.833-1.609-2.875-1.489-4.307-1.069-1.259.37-3.051,1.589-3.237,2.977a3.6,3.6,0,0,0,2.029,3.659C398.4,1878.5,400.048,1877.669,401.044,1876.886Z" fill="#657d89"/>
            <path id="Trazado_64963" data-name="Trazado 64963" d="M394.8,1872.008c1.088-1.22,2.237-2.835,1.207-4.5-.924-1.492-2.9-1.186-4.259-.647-1.2.478-2.853,1.83-2.939,3.2a3.429,3.429,0,0,0,2.221,3.393C392.336,1873.833,393.889,1872.862,394.8,1872.008Z" fill="#657d89"/>
            <path id="Trazado_64964" data-name="Trazado 64964" d="M386.767,1869.48c1.149-1.1,2.37-2.575,1.456-4.339-.819-1.575-2.789-1.478-4.161-1.084-1.205.348-2.907,1.508-3.071,2.86a3.6,3.6,0,0,0,1.986,3.589C384.239,1871.024,385.819,1870.23,386.767,1869.48Z" fill="#657d89"/>
            <path id="Trazado_64965" data-name="Trazado 64965" d="M377.694,1866.325c1.058-.993,2.2-2.328,1.393-3.883-.722-1.387-2.507-1.27-3.763-.9-1.1.33-2.676,1.392-2.846,2.6a3.061,3.061,0,0,0,1.746,3.158C375.368,1867.742,376.821,1867.006,377.694,1866.325Z" fill="#657d89"/>
          </g>
          <g id="Grupo_28697" data-name="Grupo 28697" transform="translate(49.352 4267.347)">
            <path id="Trazado_64966" data-name="Trazado 64966" d="M517.287,1829c5.03,1.833,23.437-2.081,19.416-15.812-3.547-12.111-22.858-30.791-37.026-20.119-6.154,4.637-9.8,11.723-14.868,17.335-5.3,5.871-12.726,8.386-18.99,12.9-6.29,4.536-12.367,11.755-9.056,20.788,3.271,8.927,10.849,12.979,18.416,11.428,6.194-1.269,11.045-6.844,15.026-13.126C495.353,1834.273,504.953,1824.506,517.287,1829Z" fill="#437795"/>
            <path id="Trazado_64967" data-name="Trazado 64967" d="M549.447,1808.981c1.336-2.051,2.658-4.713.716-7.15-1.738-2.185-4.613-1.43-6.52-.4-1.668.906-3.806,3.229-3.6,5.364a5.786,5.786,0,0,0,4.136,4.935C546.214,1812.145,548.292,1810.43,549.447,1808.981Z" fill="#437795"/>
            <path id="Trazado_64968" data-name="Trazado 64968" d="M542.224,1799.67c1.207-1.14,2.5-2.669,1.56-4.468-.833-1.609-2.875-1.49-4.308-1.069-1.258.37-3.05,1.588-3.237,2.976a3.6,3.6,0,0,0,2.029,3.659C539.578,1801.288,541.229,1800.454,542.224,1799.67Z" fill="#437795"/>
            <path id="Trazado_64969" data-name="Trazado 64969" d="M535.979,1794.793c1.088-1.221,2.238-2.835,1.207-4.505-.923-1.492-2.9-1.186-4.259-.646-1.2.478-2.853,1.829-2.938,3.2a3.429,3.429,0,0,0,2.221,3.393C533.516,1796.617,535.069,1795.646,535.979,1794.793Z" fill="#437795"/>
            <path id="Trazado_64970" data-name="Trazado 64970" d="M527.947,1792.265c1.15-1.1,2.37-2.575,1.457-4.34-.819-1.574-2.789-1.478-4.161-1.083-1.2.347-2.907,1.508-3.072,2.859a3.6,3.6,0,0,0,1.987,3.59C525.42,1793.809,527,1793.015,527.947,1792.265Z" fill="#437795"/>
            <path id="Trazado_64971" data-name="Trazado 64971" d="M518.874,1789.11c1.058-.994,2.2-2.328,1.393-3.883-.721-1.388-2.507-1.27-3.762-.9-1.1.329-2.677,1.391-2.846,2.6a3.06,3.06,0,0,0,1.746,3.159C516.549,1790.526,518,1789.791,518.874,1789.11Z" fill="#437795"/>
          </g>
          <g id="Grupo_28698" data-name="Grupo 28698" transform="translate(49.352 4267.347)">
            <path id="Trazado_64972" data-name="Trazado 64972" d="M486.1,1881.779c2.241-4.746,18.138-14.585,25.223-2.084,6.253,11.03,6.068,37.523-11.715,39.659-7.725.928-15.444-1.6-23.1-2.114-8.009-.534-15.1,2.772-22.815,3.859-7.747,1.093-17.287.132-21.477-8.548-4.14-8.579-1.693-16.649,4.8-20.734,5.317-3.345,12.794-2.713,20.169-.984C466.711,1893.072,480.593,1893.427,486.1,1881.779Z" fill="#9b235c"/>
            <path id="Trazado_64973" data-name="Trazado 64973" d="M517.678,1875.607c-1.193,1.757-.809,4.624.642,6.336,1.4,1.656,4.6,1.838,6.44,1.338,2.1-.568,4.685-2.008,4.338-4.749-.386-3.06-3.252-4.044-5.683-4.586C521.548,1873.71,518.829,1873.917,517.678,1875.607Z" fill="#9b235c"/>
            <path id="Trazado_64974" data-name="Trazado 64974" d="M521.424,1887.438a3.569,3.569,0,0,0,1.212,3.989c1.14.859,3.291.494,4.452-.1,1.323-.681,2.854-2,2.283-3.712-.638-1.92-2.663-2.121-4.34-2.1C523.757,1885.633,521.981,1886.171,521.424,1887.438Z" fill="#9b235c"/>
            <path id="Trazado_64975" data-name="Trazado 64975" d="M520.409,1894.813a3.377,3.377,0,0,0,.88,3.928c1.052.913,3.2.74,4.4.255,1.355-.546,2.98-1.684,2.555-3.378-.477-1.891-2.459-2.252-4.116-2.371C522.865,1893.266,521.06,1893.64,520.409,1894.813Z" fill="#9b235c"/>
            <path id="Trazado_64976" data-name="Trazado 64976" d="M516.824,1902.419a3.564,3.564,0,0,0,1.188,3.909c1.093.844,3.147.505,4.252-.076,1.259-.661,2.726-1.943,2.163-3.622-.624-1.879-2.562-2.09-4.169-2.085C519.04,1900.666,517.348,1901.184,516.824,1902.419Z" fill="#9b235c"/>
            <path id="Trazado_64977" data-name="Trazado 64977" d="M512.932,1910.689a3.03,3.03,0,0,0,1.045,3.441c.994.74,2.877.415,3.9-.106,1.167-.6,2.519-1.739,2.024-3.217-.553-1.655-2.33-1.821-3.8-1.8C514.987,1909.12,513.424,1909.593,512.932,1910.689Z" fill="#9b235c"/>
          </g>
          <g id="Grupo_28699" data-name="Grupo 28699" transform="translate(49.352 4267.347)">
            <path id="Trazado_64978" data-name="Trazado 64978" d="M658.47,1751.784c5.03,1.834,23.435-2.08,19.413-15.811-3.545-12.111-22.857-30.79-37.027-20.118-6.154,4.635-9.8,11.723-14.867,17.335-5.3,5.87-12.725,8.386-18.989,12.9-6.29,4.536-12.367,11.756-9.057,20.788,3.272,8.927,10.85,12.979,18.416,11.428,6.2-1.269,11.045-6.843,15.025-13.124C636.535,1757.056,646.134,1747.29,658.47,1751.784Z" fill="#9b235c"/>
            <path id="Trazado_64979" data-name="Trazado 64979" d="M690.628,1731.766c1.336-2.052,2.657-4.713.715-7.151-1.738-2.184-4.612-1.43-6.518-.4-1.67.906-3.806,3.229-3.6,5.364a5.79,5.79,0,0,0,4.133,4.936C687.4,1734.93,689.474,1733.214,690.628,1731.766Z" fill="#9b235c"/>
            <path id="Trazado_64980" data-name="Trazado 64980" d="M683.406,1722.454c1.206-1.139,2.495-2.669,1.56-4.468-.835-1.609-2.877-1.489-4.309-1.069-1.261.371-3.047,1.587-3.236,2.976a3.6,3.6,0,0,0,2.028,3.66C680.759,1724.073,682.411,1723.237,683.406,1722.454Z" fill="#9b235c"/>
            <path id="Trazado_64981" data-name="Trazado 64981" d="M677.161,1717.577c1.089-1.221,2.236-2.834,1.2-4.5-.922-1.493-2.9-1.187-4.259-.647-1.2.478-2.851,1.829-2.937,3.2a3.436,3.436,0,0,0,2.221,3.393C674.7,1719.4,676.25,1718.431,677.161,1717.577Z" fill="#9b235c"/>
            <path id="Trazado_64982" data-name="Trazado 64982" d="M669.129,1715.049c1.148-1.1,2.371-2.575,1.454-4.338-.82-1.575-2.788-1.479-4.158-1.086-1.206.346-2.907,1.508-3.073,2.861a3.6,3.6,0,0,0,1.988,3.588C666.6,1716.592,668.181,1715.8,669.129,1715.049Z" fill="#9b235c"/>
            <path id="Trazado_64983" data-name="Trazado 64983" d="M660.053,1711.9c1.062-.995,2.2-2.329,1.393-3.883-.718-1.389-2.5-1.272-3.761-.9-1.1.33-2.673,1.389-2.846,2.6a3.061,3.061,0,0,0,1.748,3.157C657.729,1713.311,659.181,1712.575,660.053,1711.9Z" fill="#9b235c"/>
          </g>
          <g id="Grupo_28700" data-name="Grupo 28700" transform="translate(49.352 4267.347)">
            <path id="Trazado_64984" data-name="Trazado 64984" d="M627.278,1804.563c2.242-4.745,18.141-14.585,25.226-2.085,6.253,11.031,6.065,37.525-11.718,39.66-7.724.929-15.444-1.6-23.1-2.114-8.009-.534-15.1,2.772-22.815,3.86-7.747,1.092-17.287.131-21.477-8.549-4.139-8.578-1.692-16.648,4.8-20.733,5.316-3.346,12.794-2.713,20.169-.985C607.892,1815.857,621.773,1816.211,627.278,1804.563Z" fill="#657d89"/>
            <path id="Trazado_64985" data-name="Trazado 64985" d="M658.861,1798.39a5.629,5.629,0,0,0,.638,6.338c1.4,1.656,4.6,1.837,6.442,1.337,2.1-.569,4.685-2.007,4.337-4.748-.387-3.062-3.25-4.046-5.683-4.586C662.729,1796.495,660.011,1796.7,658.861,1798.39Z" fill="#657d89"/>
            <path id="Trazado_64986" data-name="Trazado 64986" d="M662.6,1810.222a3.566,3.566,0,0,0,1.213,3.989c1.139.859,3.289.5,4.452-.105,1.322-.681,2.855-2,2.284-3.712-.638-1.92-2.663-2.121-4.341-2.1C664.937,1808.417,663.16,1808.956,662.6,1810.222Z" fill="#657d89"/>
            <path id="Trazado_64987" data-name="Trazado 64987" d="M661.592,1817.6a3.372,3.372,0,0,0,.877,3.929c1.052.914,3.2.74,4.4.255,1.356-.547,2.982-1.684,2.554-3.377-.475-1.892-2.46-2.251-4.115-2.371C664.043,1816.052,662.242,1816.426,661.592,1817.6Z" fill="#657d89"/>
            <path id="Trazado_64988" data-name="Trazado 64988" d="M658.006,1825.2a3.568,3.568,0,0,0,1.186,3.91c1.095.843,3.147.506,4.254-.076,1.257-.66,2.723-1.941,2.163-3.623-.624-1.878-2.562-2.09-4.173-2.082C660.223,1823.449,658.526,1823.97,658.006,1825.2Z" fill="#657d89"/>
            <path id="Trazado_64989" data-name="Trazado 64989" d="M654.113,1833.473a3.032,3.032,0,0,0,1.044,3.442c.994.739,2.877.414,3.9-.107,1.168-.6,2.52-1.738,2.025-3.216-.554-1.655-2.331-1.821-3.8-1.8C656.168,1831.905,654.6,1832.378,654.113,1833.473Z" fill="#657d89"/>
          </g>
          <g id="Grupo_28701" data-name="Grupo 28701" transform="translate(49.352 4267.347)">
            <path id="Trazado_64990" data-name="Trazado 64990" d="M799.65,1674.569c5.03,1.833,23.435-2.08,19.414-15.811-3.546-12.112-22.858-30.79-37.028-20.118-6.154,4.634-9.8,11.723-14.866,17.334-5.3,5.87-12.726,8.386-18.99,12.9-6.288,4.535-12.365,11.754-9.054,20.787,3.271,8.927,10.849,12.979,18.412,11.43,6.2-1.27,11.047-6.845,15.026-13.126C777.715,1679.841,787.314,1670.075,799.65,1674.569Z" fill="#657d89"/>
            <path id="Trazado_64991" data-name="Trazado 64991" d="M831.808,1654.55c1.336-2.051,2.658-4.712.715-7.15-1.737-2.185-4.612-1.43-6.517-.4-1.67.906-3.806,3.229-3.6,5.363a5.792,5.792,0,0,0,4.133,4.937C828.577,1657.715,830.654,1656,831.808,1654.55Z" fill="#657d89"/>
            <path id="Trazado_64992" data-name="Trazado 64992" d="M824.587,1645.239c1.205-1.14,2.495-2.669,1.56-4.469-.836-1.608-2.877-1.489-4.31-1.068-1.26.371-3.047,1.587-3.235,2.975a3.6,3.6,0,0,0,2.027,3.661C821.939,1646.858,823.592,1646.022,824.587,1645.239Z" fill="#657d89"/>
            <path id="Trazado_64993" data-name="Trazado 64993" d="M818.342,1640.361c1.088-1.22,2.236-2.834,1.2-4.5-.922-1.493-2.9-1.186-4.259-.646-1.2.478-2.852,1.829-2.937,3.2a3.435,3.435,0,0,0,2.22,3.393C815.879,1642.186,817.43,1641.216,818.342,1640.361Z" fill="#657d89"/>
            <path id="Trazado_64994" data-name="Trazado 64994" d="M810.31,1637.833c1.148-1.1,2.37-2.575,1.453-4.337-.819-1.575-2.788-1.48-4.157-1.086-1.207.346-2.908,1.508-3.074,2.861a3.6,3.6,0,0,0,1.988,3.588C807.782,1639.377,809.362,1638.583,810.31,1637.833Z" fill="#657d89"/>
            <path id="Trazado_64995" data-name="Trazado 64995" d="M801.233,1634.68c1.062-.995,2.2-2.329,1.393-3.883-.718-1.389-2.5-1.272-3.761-.9-1.1.331-2.672,1.389-2.846,2.6a3.066,3.066,0,0,0,1.749,3.158C798.91,1636.1,800.362,1635.36,801.233,1634.68Z" fill="#657d89"/>
          </g>
          <g id="Grupo_28702" data-name="Grupo 28702" transform="translate(49.352 4267.347)">
            <path id="Trazado_64996" data-name="Trazado 64996" d="M768.457,1727.349c2.245-4.747,18.142-14.587,25.227-2.086,6.253,11.03,6.066,37.525-11.717,39.66-7.725.928-15.441-1.6-23.1-2.115-8.011-.533-15.1,2.772-22.816,3.861-7.747,1.092-17.287.131-21.477-8.549-4.14-8.579-1.693-16.648,4.8-20.734,5.316-3.345,12.8-2.713,20.167-.983C749.072,1738.641,762.953,1738.994,768.457,1727.349Z" fill="#437795"/>
            <path id="Trazado_64997" data-name="Trazado 64997" d="M800.041,1721.175c-1.193,1.757-.81,4.624.638,6.338,1.4,1.656,4.6,1.836,6.442,1.337,2.1-.569,4.685-2.007,4.338-4.749-.387-3.061-3.25-4.045-5.683-4.585C803.909,1719.279,801.191,1719.485,800.041,1721.175Z" fill="#437795"/>
            <path id="Trazado_64998" data-name="Trazado 64998" d="M803.785,1733.007A3.563,3.563,0,0,0,805,1737c1.139.859,3.289.5,4.452-.1,1.322-.681,2.856-2,2.284-3.713-.637-1.92-2.663-2.121-4.341-2.1C806.117,1731.2,804.34,1731.741,803.785,1733.007Z" fill="#437795"/>
            <path id="Trazado_64999" data-name="Trazado 64999" d="M802.772,1740.381a3.371,3.371,0,0,0,.878,3.929c1.052.914,3.2.74,4.4.255,1.356-.547,2.982-1.684,2.555-3.378-.476-1.892-2.461-2.251-4.116-2.371C805.224,1738.836,803.422,1739.211,802.772,1740.381Z" fill="#437795"/>
            <path id="Trazado_65000" data-name="Trazado 65000" d="M799.187,1747.987a3.56,3.56,0,0,0,1.187,3.909c1.094.844,3.145.506,4.253-.076,1.257-.659,2.722-1.94,2.163-3.622-.625-1.878-2.562-2.09-4.173-2.082C801.4,1746.234,799.707,1746.754,799.187,1747.987Z" fill="#437795"/>
            <path id="Trazado_65001" data-name="Trazado 65001" d="M795.293,1756.258a3.032,3.032,0,0,0,1.044,3.442c1,.738,2.877.414,3.9-.108,1.165-.6,2.515-1.737,2.02-3.215-.553-1.654-2.326-1.823-3.8-1.8C797.346,1754.69,795.783,1755.163,795.293,1756.258Z" fill="#437795"/>
          </g>
          <g id="Grupo_28703" data-name="Grupo 28703" transform="translate(49.352 4267.347)">
            <path id="Trazado_65002" data-name="Trazado 65002" d="M909.637,1650.133c2.246-4.747,18.142-14.586,25.227-2.086,6.254,11.031,6.066,37.525-11.717,39.661-7.724.928-15.441-1.6-23.1-2.116-8.011-.533-15.1,2.772-22.817,3.861-7.747,1.093-17.287.132-21.477-8.548-4.139-8.579-1.693-16.649,4.8-20.734,5.316-3.346,12.8-2.714,20.167-.983C890.253,1661.426,904.133,1661.779,909.637,1650.133Z" fill="#9b235c"/>
            <path id="Trazado_65003" data-name="Trazado 65003" d="M941.221,1643.959a5.633,5.633,0,0,0,.638,6.338c1.4,1.657,4.6,1.837,6.443,1.338,2.1-.57,4.685-2.008,4.337-4.749-.387-3.062-3.25-4.046-5.683-4.586C945.09,1642.064,942.372,1642.27,941.221,1643.959Z" fill="#9b235c"/>
            <path id="Trazado_65004" data-name="Trazado 65004" d="M944.965,1655.792a3.567,3.567,0,0,0,1.212,3.989c1.14.859,3.289.495,4.452-.106,1.323-.681,2.856-2,2.285-3.712-.638-1.92-2.663-2.121-4.341-2.1C947.3,1653.986,945.52,1654.525,944.965,1655.792Z" fill="#9b235c"/>
            <path id="Trazado_65005" data-name="Trazado 65005" d="M943.952,1663.166a3.372,3.372,0,0,0,.878,3.928c1.052.914,3.2.74,4.4.256,1.356-.548,2.981-1.685,2.554-3.378-.475-1.892-2.46-2.251-4.115-2.371C946.4,1661.621,944.6,1661.995,943.952,1663.166Z" fill="#9b235c"/>
            <path id="Trazado_65006" data-name="Trazado 65006" d="M940.367,1670.771a3.561,3.561,0,0,0,1.188,3.91c1.093.844,3.145.506,4.252-.076,1.257-.66,2.722-1.941,2.163-3.623-.624-1.878-2.562-2.09-4.173-2.082C942.583,1669.018,940.887,1669.539,940.367,1670.771Z" fill="#9b235c"/>
            <path id="Trazado_65007" data-name="Trazado 65007" d="M936.474,1679.042a3.031,3.031,0,0,0,1.044,3.442c1,.738,2.877.414,3.9-.108,1.166-.595,2.516-1.736,2.021-3.214-.554-1.655-2.327-1.823-3.8-1.8C938.527,1677.475,936.964,1677.948,936.474,1679.042Z" fill="#9b235c"/>
          </g>
        </g>
        <text id="_1" data-name="1" transform="translate(375 6189)" fill="#fff" font-size="16" font-family="Roboto-Black, Roboto" font-weight="800"><tspan x="0" y="0">1</tspan></text>
        <text id="_2" data-name="2" transform="translate(492 6179)" fill="#fff" font-size="16" font-family="Roboto-Black, Roboto" font-weight="800"><tspan x="0" y="0">2</tspan></text>
        <text id="_3" data-name="3" transform="translate(518 6111)" fill="#fff" font-size="16" font-family="Roboto-Black, Roboto" font-weight="800"><tspan x="0" y="0">3</tspan></text>
        <text id="_4" data-name="4" transform="translate(634 6101)" fill="#fff" font-size="16" font-family="Roboto-Black, Roboto" font-weight="800"><tspan x="0" y="0">4</tspan></text>
        <text id="_5" data-name="5" transform="translate(658 6034)" fill="#fff" font-size="16" font-family="Roboto-Black, Roboto" font-weight="800"><tspan x="0" y="0">5</tspan></text>
        <text id="_6" data-name="6" transform="translate(774 6024)" fill="#fff" font-size="16" font-family="Roboto-Black, Roboto" font-weight="800"><tspan x="0" y="0">6</tspan></text>
        <text id="_7" data-name="7" transform="translate(798 5957)" fill="#fff" font-size="16" font-family="Roboto-Black, Roboto" font-weight="800"><tspan x="0" y="0">7</tspan></text>
        <text id="_8" data-name="8" transform="translate(915 5947)" fill="#fff" font-size="16" font-family="Roboto-Black, Roboto" font-weight="800"><tspan x="0" y="0">8</tspan></text>
      </g>
      <text id="Preparations_for_the_analysis" data-name="Preparations for the analysis" transform="translate(268 6090)" fill="#111e61" font-size="15" font-family="Roboto-Medium, Roboto" font-weight="500"><tspan x="0" y="16">Preparations for </tspan><tspan x="0" y="33">the analysis</tspan></text>
      <text id="Refining_the_target_descriotion_using_asset_diagrams" data-name="Refining the target descriotion using asset diagrams" transform="translate(310 6016)" fill="#111e61" font-size="15" font-family="Roboto-Medium, Roboto" font-weight="500"><tspan x="0" y="16">Refining the target descriotion </tspan><tspan x="0" y="33">using asset diagrams</tspan></text>
      <text id="Risk_identification_using_threat_diagrams" data-name="Risk identification using threat diagrams" transform="translate(507 5939)" fill="#111e61" font-size="15" font-family="Roboto-Medium, Roboto" font-weight="500"><tspan x="0" y="16">Risk identification </tspan><tspan x="0" y="33">using threat diagrams</tspan></text>
      <text id="Risk_evaluation_using_risk_diagrams" data-name="Risk evaluation using risk diagrams" transform="translate(659 5860)" fill="#111e61" font-size="15" font-family="Roboto-Medium, Roboto" font-weight="500"><tspan x="0" y="16">Risk evaluation </tspan><tspan x="0" y="33">using risk diagrams</tspan></text>
      <text id="Risk_treatment_using_treatment_diagrams" data-name="Risk treatment using treatment diagrams" transform="translate(925 5830)" fill="#111e61" font-size="15" font-family="Roboto-Medium, Roboto" font-weight="500"><tspan x="0" y="16">Risk treatment using </tspan><tspan x="0" y="33">treatment diagrams</tspan></text>
      <text id="Customer_presentation_of_the_target" data-name="Customer presentation of the target" transform="translate(597 6108)" fill="#111e61" font-size="15" font-family="Roboto-Medium, Roboto" font-weight="500"><tspan x="0" y="16">Customer presentation </tspan><tspan x="0" y="33">of the target</tspan></text>
      <text id="Approval_of_the_target_description" data-name="Approval of the target description" transform="translate(732 6036)" fill="#111e61" font-size="15" font-family="Roboto-Medium, Roboto" font-weight="500"><tspan x="0" y="16">Approval of the </tspan><tspan x="0" y="33">target description</tspan></text>
      <text id="Risk_estimation_using_threat_diagrams" data-name="Risk estimation using threat diagrams" transform="translate(872 5971)" fill="#111e61" font-size="15" font-family="Roboto-Medium, Roboto" font-weight="500"><tspan x="0" y="16">Risk estimation using </tspan><tspan x="0" y="33">threat diagrams</tspan></text>
    </g>
  </g>
</svg>
