<svg xmlns="http://www.w3.org/2000/svg" width="111.755" height="111.756" viewBox="0 0 111.755 111.756">
  <g id="Grupo_28665" data-name="Grupo 28665" transform="translate(0 0)">
    <path id="Trazado_64795" data-name="Trazado 64795" d="M-957.128,1572.328h-99.532a4.474,4.474,0,0,0-4.366,4.541v16.414h108.263v-16.414a4.473,4.473,0,0,0-4.366-4.541Zm0,0" transform="translate(1062.772 -1570.582)" fill="#fff"/>
    <path id="Trazado_64796" data-name="Trazado 64796" d="M-952.881,1594.911h-108.263a1.649,1.649,0,0,1-1.746-1.746v-16.414a6.225,6.225,0,0,1,6.112-6.287h99.532a6.225,6.225,0,0,1,6.112,6.287v16.414a1.749,1.749,0,0,1-1.746,1.746Zm-106.518-3.493h104.772v-14.667a2.726,2.726,0,0,0-2.62-2.8h-99.532a2.726,2.726,0,0,0-2.62,2.8Zm0,0" transform="translate(1062.89 -1570.464)" fill="#193540"/>
    <path id="Trazado_64797" data-name="Trazado 64797" d="M-1061.026,1594.7v82.769a4.474,4.474,0,0,0,4.366,4.54h99.532a4.473,4.473,0,0,0,4.366-4.54V1594.7Zm0,0" transform="translate(1062.772 -1571.999)" fill="#ffc23b"/>
    <path id="Trazado_64798" data-name="Trazado 64798" d="M-957.246,1683.637h-99.532a6.225,6.225,0,0,1-6.112-6.286v-82.769a1.65,1.65,0,0,1,1.746-1.747h108.263a1.65,1.65,0,0,1,1.746,1.747v82.769a6.225,6.225,0,0,1-6.112,6.286Zm-102.152-87.309v81.023a2.726,2.726,0,0,0,2.62,2.794h99.532a2.725,2.725,0,0,0,2.62-2.794v-81.023Zm0,0" transform="translate(1062.89 -1571.881)" fill="#193540"/>
    <rect id="Rectángulo_5398" data-name="Rectángulo 5398" width="95.341" height="74.038" transform="translate(8.207 29.337)" fill="#fff"/>
    <path id="Trazado_64799" data-name="Trazado 64799" d="M-954.207,1583.325a2.793,2.793,0,0,1-2.794,2.793,2.792,2.792,0,0,1-2.793-2.793,2.793,2.793,0,0,1,2.793-2.794,2.8,2.8,0,0,1,2.794,2.794Zm0,0" transform="translate(1056.359 -1571.101)" fill="#9b235c"/>
    <path id="Trazado_64800" data-name="Trazado 64800" d="M-964.461,1583.325a2.793,2.793,0,0,1-2.794,2.793,2.793,2.793,0,0,1-2.794-2.793,2.794,2.794,0,0,1,2.794-2.794,2.794,2.794,0,0,1,2.794,2.794Zm0,0" transform="translate(1057.008 -1571.101)" fill="#9b235c"/>
    <path id="Trazado_64801" data-name="Trazado 64801" d="M-974.714,1583.325a2.793,2.793,0,0,1-2.794,2.793,2.792,2.792,0,0,1-2.793-2.793,2.793,2.793,0,0,1,2.793-2.794,2.8,2.8,0,0,1,2.794,2.794Zm0,0" transform="translate(1057.658 -1571.101)" fill="#9b235c"/>
    <path id="Trazado_64802" data-name="Trazado 64802" d="M-1021.974,1580.531h-28.986a2.758,2.758,0,0,0-2.794,2.794,2.757,2.757,0,0,0,2.794,2.793h28.986a2.757,2.757,0,0,0,2.794-2.793,2.758,2.758,0,0,0-2.794-2.794Zm0,0" transform="translate(1062.311 -1571.101)" fill="#e1e6e7"/>
    <path id="Trazado_64803" data-name="Trazado 64803" d="M-1047.162,1672.765a1.65,1.65,0,0,1-1.746-1.748,1.65,1.65,0,0,1,1.746-1.746h6.811a1.65,1.65,0,0,1,1.745,1.746,1.65,1.65,0,0,1-1.745,1.748Zm0,0" transform="translate(1062.004 -1576.723)" fill="#193540"/>
    <path id="Trazado_64804" data-name="Trazado 64804" d="M-1040.351,1657.849h-6.811a1.649,1.649,0,0,1-1.746-1.745,1.649,1.649,0,0,1,1.746-1.746h6.811a1.649,1.649,0,0,1,1.745,1.746,1.749,1.749,0,0,1-1.745,1.745Zm0,0" transform="translate(1062.004 -1575.778)" fill="#193540"/>
    <path id="Trazado_64805" data-name="Trazado 64805" d="M-1047.162,1642.936a1.65,1.65,0,0,1-1.746-1.747,1.649,1.649,0,0,1,1.746-1.746h6.811a1.649,1.649,0,0,1,1.745,1.746,1.65,1.65,0,0,1-1.745,1.747Zm0,0" transform="translate(1062.004 -1574.833)" fill="#193540"/>
    <path id="Trazado_64806" data-name="Trazado 64806" d="M-1040.351,1628.021h-6.811a1.649,1.649,0,0,1-1.746-1.746,1.649,1.649,0,0,1,1.746-1.746h6.811a1.649,1.649,0,0,1,1.745,1.746,1.749,1.749,0,0,1-1.745,1.746Zm0,0" transform="translate(1062.004 -1573.888)" fill="#193540"/>
    <path id="Trazado_64807" data-name="Trazado 64807" d="M-1040.351,1613.106h-6.811a1.649,1.649,0,0,1-1.746-1.746,1.649,1.649,0,0,1,1.746-1.746h6.811a1.649,1.649,0,0,1,1.745,1.746,1.749,1.749,0,0,1-1.745,1.746Zm0,0" transform="translate(1062.004 -1572.944)" fill="#193540"/>
    <path id="Trazado_64808" data-name="Trazado 64808" d="M-1043.62,1668.986a1.651,1.651,0,0,1-1.746-1.748V1611.36a1.649,1.649,0,0,1,1.746-1.746,1.649,1.649,0,0,1,1.746,1.746v56.054a1.613,1.613,0,0,1-1.746,1.572Zm0,0" transform="translate(1061.78 -1572.944)" fill="#193540"/>
    <rect id="Rectángulo_5399" data-name="Rectángulo 5399" width="17.462" height="9.255" transform="translate(34.574 38.416)" fill="#fff"/>
    <path id="Trazado_64809" data-name="Trazado 64809" d="M-1008.634,1622.361H-1026.1a1.649,1.649,0,0,1-1.746-1.746v-9.255a1.649,1.649,0,0,1,1.746-1.746h17.461a1.65,1.65,0,0,1,1.747,1.746v9.255a1.877,1.877,0,0,1-1.747,1.746Zm-15.715-3.492h13.969v-5.763h-13.969Zm0,0" transform="translate(1060.67 -1572.944)" fill="#193540"/>
    <rect id="Rectángulo_5400" data-name="Rectángulo 5400" width="13.62" height="9.255" transform="translate(81.547 38.416)" fill="#fff"/>
    <path id="Trazado_64810" data-name="Trazado 64810" d="M-962.325,1622.361h-13.621a1.649,1.649,0,0,1-1.746-1.746v-9.255a1.649,1.649,0,0,1,1.746-1.746h13.621a1.649,1.649,0,0,1,1.746,1.746v9.255a1.877,1.877,0,0,1-1.746,1.746Zm-11.875-3.492h10.129v-5.763H-974.2Zm0,0" transform="translate(1057.493 -1572.944)" fill="#193540"/>
    <rect id="Rectángulo_5401" data-name="Rectángulo 5401" width="17.81" height="9.255" transform="translate(77.356 60.594)" fill="#fff"/>
    <path id="Trazado_64811" data-name="Trazado 64811" d="M-962.609,1646.038h-17.812a1.649,1.649,0,0,1-1.746-1.746v-9.255a1.649,1.649,0,0,1,1.746-1.746h17.812a1.649,1.649,0,0,1,1.746,1.746v9.255a1.878,1.878,0,0,1-1.746,1.746Zm-16.064-3.492h14.319v-5.763h-14.319Zm0,0" transform="translate(1057.776 -1574.443)" fill="#193540"/>
    <rect id="Rectángulo_5402" data-name="Rectángulo 5402" width="13.62" height="9.255" transform="translate(30.908 80.326)" fill="#fff"/>
    <path id="Trazado_64812" data-name="Trazado 64812" d="M-1016.389,1667.291h-13.621a1.651,1.651,0,0,1-1.747-1.747v-9.254a1.65,1.65,0,0,1,1.747-1.746h13.621a1.649,1.649,0,0,1,1.746,1.746v9.254a1.75,1.75,0,0,1-1.746,1.747Zm-11.875-3.493h10.128v-5.762h-10.128Zm0,0" transform="translate(1060.918 -1575.79)" fill="#193540"/>
    <rect id="Rectángulo_5403" data-name="Rectángulo 5403" width="17.462" height="9.254" transform="translate(79.102 85.041)" fill="#fff"/>
    <path id="Trazado_64813" data-name="Trazado 64813" d="M-961.093,1672.139h-17.462a1.65,1.65,0,0,1-1.746-1.748v-9.254a1.65,1.65,0,0,1,1.746-1.747h17.462a1.651,1.651,0,0,1,1.746,1.747v9.254a1.651,1.651,0,0,1-1.746,1.748Zm-15.716-3.494h13.968v-5.761h-13.968Zm0,0" transform="translate(1057.658 -1576.097)" fill="#193540"/>
    <path id="Trazado_64814" data-name="Trazado 64814" d="M-980.386,1664.752h-15.192a1.65,1.65,0,0,1-1.746-1.747v-45.051h-10.129a1.65,1.65,0,0,1-1.746-1.746,1.65,1.65,0,0,1,1.746-1.747h11.875a1.65,1.65,0,0,1,1.746,1.747v44.877h13.447a1.65,1.65,0,0,1,1.746,1.746,1.8,1.8,0,0,1-1.746,1.921Zm0,0" transform="translate(1059.489 -1573.251)" fill="#193540"/>
    <path id="Trazado_64815" data-name="Trazado 64815" d="M-989.285,1640.917a5.763,5.763,0,0,1-5.762,5.763,5.764,5.764,0,0,1-5.763-5.763,5.763,5.763,0,0,1,5.763-5.762,5.762,5.762,0,0,1,5.762,5.762Zm0,0" transform="translate(1058.957 -1574.562)" fill="#fff"/>
    <path id="Trazado_64816" data-name="Trazado 64816" d="M-995.165,1648.307a7.452,7.452,0,0,1-7.509-7.508,7.453,7.453,0,0,1,7.509-7.508,7.453,7.453,0,0,1,7.509,7.508,7.452,7.452,0,0,1-7.509,7.508Zm0-11.525a3.952,3.952,0,0,0-4.016,4.016,3.952,3.952,0,0,0,4.016,4.016,3.952,3.952,0,0,0,4.016-4.016,3.952,3.952,0,0,0-4.016-4.016Zm0,0" transform="translate(1059.075 -1574.443)" fill="#193540"/>
  </g>
</svg>
