<svg xmlns="http://www.w3.org/2000/svg" xmlns:xlink="http://www.w3.org/1999/xlink" width="61.978" height="62.125" viewBox="0 0 61.978 62.125">
  <defs>
    <clipPath id="clip-path">
      <rect id="SVGID" width="61.978" height="62.125" transform="translate(-3381.843 1692.04)" fill="none"/>
    </clipPath>
  </defs>
  <g id="Grupo_24014" data-name="Grupo 24014" transform="translate(3381.843 -1692.04)">
    <path id="Trazado_12651" data-name="Trazado 12651" d="M-3319.96,1723.076a30.942,30.942,0,0,1-30.942,30.942,30.941,30.941,0,0,1-30.941-30.942,30.941,30.941,0,0,1,30.941-30.941,30.942,30.942,0,0,1,30.942,30.941Zm0,0" fill="#ffc23b"/>
    <path id="Trazado_12652" data-name="Trazado 12652" d="M-3330.6,1740.191v-6.382c-1.74-5.221-3.48-8.025-13.149-11.8l-15.955.58s-11.022,4.061-12.183,11.313v6.381h41.287Zm0,0" fill="#437795"/>
    <path id="Trazado_12653" data-name="Trazado 12653" d="M-3330.6,1741.158h-41.287a.913.913,0,0,1-.966-.967v-6.479c1.159-7.735,12.279-11.892,12.763-12.086.1,0,.193-.1.29-.1l16.051-.483a.578.578,0,0,1,.386.1c9.863,3.868,11.8,6.864,13.73,12.376,0,.1.1.193.1.29v6.382a1.054,1.054,0,0,1-1.064.967Zm-40.32-1.934h39.45V1734c-1.547-4.641-2.9-7.251-12.377-10.926l-15.663.484c-1.257.483-10.443,4.254-11.41,10.442Zm0,0" fill="#193540"/>
    <rect id="Rectángulo_5227" data-name="Rectángulo 5227" width="1.934" height="1.934" transform="translate(-3332.53 1706.059)" fill="#193540"/>
    <rect id="Rectángulo_5228" data-name="Rectángulo 5228" width="1.934" height="1.934" transform="translate(-3332.53 1712.344)" fill="#193540"/>
    <rect id="Rectángulo_5229" data-name="Rectángulo 5229" width="1.934" height="1.934" transform="translate(-3332.53 1718.629)" fill="#193540"/>
    <rect id="Rectángulo_5230" data-name="Rectángulo 5230" width="1.934" height="1.934" transform="translate(-3371.207 1706.059)" fill="#193540"/>
    <rect id="Rectángulo_5231" data-name="Rectángulo 5231" width="1.934" height="1.934" transform="translate(-3371.207 1712.344)" fill="#193540"/>
    <rect id="Rectángulo_5232" data-name="Rectángulo 5232" width="1.934" height="1.934" transform="translate(-3371.207 1718.629)" fill="#193540"/>
    <path id="Trazado_12654" data-name="Trazado 12654" d="M-3356.317,1716.985s.291,3.288-3.384,5.608c0,0,8.8,6.285,16.051-.483,0,0-2.127-1.547-2.224-5.7Zm0,0" fill="#e1e6e7"/>
    <path id="Trazado_12655" data-name="Trazado 12655" d="M-3351.482,1726.17a17.407,17.407,0,0,1-8.9-2.8.88.88,0,0,1-.387-.774.984.984,0,0,1,.483-.773c3.191-1.934,2.9-4.641,2.9-4.641a1.409,1.409,0,0,1,.193-.678.88.88,0,0,1,.677-.29l10.443-.579a.878.878,0,0,1,.677.29,1.045,1.045,0,0,1,.29.676c0,3.578,1.74,4.931,1.74,4.931a1.2,1.2,0,0,1,.387.774,1.1,1.1,0,0,1-.29.773,12.348,12.348,0,0,1-8.219,3.094Zm-6.478-3.674a14.085,14.085,0,0,0,6.575,1.741,9.977,9.977,0,0,0,6.285-2.225,9.243,9.243,0,0,1-1.74-4.641l-8.606.484a7.174,7.174,0,0,1-2.514,4.641Zm0,0" fill="#193540"/>
    <path id="Trazado_12656" data-name="Trazado 12656" d="M-3359.7,1711.184s1.451,6.864,8.123,7.832c0,0,6.671-.194,8.895-9.283l1.257-2.224v-5.414l-2.417-3.288-5.995-.677-8.8,2.8-2.9,5.511Zm0,0" fill="#fff"/>
    <g id="Grupo_24013" data-name="Grupo 24013">
      <g id="Grupo_24012" data-name="Grupo 24012" clip-path="url(#clip-path)">
        <path id="Trazado_12657" data-name="Trazado 12657" d="M-3351.578,1720.079h-.194c-6.865-1.063-8.6-7.639-8.9-8.509l-1.934-4.544a1.341,1.341,0,0,1,0-.871l2.9-5.511a.992.992,0,0,1,.581-.483l8.8-2.8c.1,0,.29-.1.387,0l5.994.677a.979.979,0,0,1,.677.386l2.418,3.288a1.383,1.383,0,0,1,.193.58v5.415a.868.868,0,0,1-.1.483l-1.257,2.127c-2.224,9.476-9.282,9.669-9.572,9.766Zm-8.993-13.44,1.741,4.158c0,.1,0,.1.1.193.1.29,1.354,6.091,7.156,7.059.773-.1,5.995-.678,7.928-8.606,0-.1.1-.193.1-.29l1.16-2.031v-4.834l-2.031-2.707-5.317-.58-8.219,2.61Zm0,0" fill="#193540"/>
        <path id="Trazado_12658" data-name="Trazado 12658" d="M-3346.744,1694.456c11.7,5.125,4.061,15.277,4.061,15.277,2.9-8.8-5.028-10.056-5.028-10.056a8,8,0,0,1-6.478,3.094c-8.6,1.064-5.415,8.413-5.415,8.413-9.476-11.99,3.095-20.982,12.86-16.728Zm0,0" fill="#e1e6e7"/>
      </g>
    </g>
    <path id="Trazado_12659" data-name="Trazado 12659" d="M-3359.7,1712.15a.878.878,0,0,1-.773-.386c-4.738-6.092-3.577-10.733-2.514-13.054,1.837-3.867,6.188-6.285,11.12-6.285a13.409,13.409,0,0,1,5.511,1.161c3.771,1.643,6.091,3.964,6.865,6.962,1.257,4.931-2.224,9.669-2.321,9.862a1.024,1.024,0,0,1-1.257.29,1.047,1.047,0,0,1-.483-1.16c.87-2.514.773-4.545-.1-6.092a6.534,6.534,0,0,0-3.674-2.61,9.117,9.117,0,0,1-6.478,3h-.29c-2.321.29-3.868,1.063-4.545,2.32a6.065,6.065,0,0,0-.1,4.545c.1.194.194.29.194.484a1.225,1.225,0,0,1-1.161.966Zm7.833-17.791c-4.158,0-7.833,2.031-9.379,5.222a8.421,8.421,0,0,0,.193,7.445,4.733,4.733,0,0,1,.677-1.837c1.064-1.838,3.094-3,6.091-3.385h.194c.1,0,3,.291,5.705-2.8a.776.776,0,0,1,.869-.291,8.222,8.222,0,0,1,5.512,3.578,13.665,13.665,0,0,1,.773,1.74,7.147,7.147,0,0,0-.1-3.19c-.58-2.321-2.514-4.255-5.7-5.609a14.2,14.2,0,0,0-4.834-.87Zm0,0" fill="#193540"/>
    <path id="Trazado_12660" data-name="Trazado 12660" d="M-3353.125,1753.051h3.77l.29-2.8a8.209,8.209,0,0,0,2.515-1.064l2.223,1.74,2.611-2.707-1.74-2.224a11.546,11.546,0,0,0,1.064-2.514l2.8-.387v-3.77l-2.708-.29a8.187,8.187,0,0,0-1.064-2.515l1.741-2.223-2.708-2.611-2.223,1.644a11.539,11.539,0,0,0-2.514-1.064l-.387-2.708h-3.771l-.29,2.805a8.2,8.2,0,0,0-2.514,1.063l-2.224-1.74-2.611,2.707,1.741,2.224a11.59,11.59,0,0,0-1.064,2.514l-2.8.29v3.771l2.8.29a8.185,8.185,0,0,0,1.064,2.514l-1.741,2.224,2.707,2.611,2.225-1.741a11.5,11.5,0,0,0,2.514,1.064Zm0,0" fill="#fff"/>
    <path id="Trazado_12661" data-name="Trazado 12661" d="M-3353.125,1754.017a1.027,1.027,0,0,1-.967-.869l-.194-2.127a7.533,7.533,0,0,1-1.547-.678l-1.74,1.354a.9.9,0,0,1-1.257-.1l-2.708-2.61a.912.912,0,0,1-.1-1.257l1.354-1.741a10.712,10.712,0,0,1-.677-1.547l-2.128-.29a1.028,1.028,0,0,1-.87-.967v-3.771a1.029,1.029,0,0,1,.87-.967l2.128-.29a7.487,7.487,0,0,1,.677-1.547l-1.354-1.74a.9.9,0,0,1,.1-1.257l2.611-2.708a.912.912,0,0,1,1.257-.1l1.741,1.354a10.657,10.657,0,0,1,1.547-.677l.29-2.128a1.028,1.028,0,0,1,.967-.87h3.771a1.029,1.029,0,0,1,.967.87l.29,2.128a7.482,7.482,0,0,1,1.547.677l1.74-1.354a.9.9,0,0,1,1.257.1l2.708,2.611a.912.912,0,0,1,.1,1.257l-1.354,1.741a10.645,10.645,0,0,1,.677,1.547l2.128.29a1.026,1.026,0,0,1,.869.967v3.771a1.028,1.028,0,0,1-.869.967l-2.128.29a7.476,7.476,0,0,1-.677,1.547l1.354,1.74a.9.9,0,0,1-.1,1.257l-2.708,2.707a.911.911,0,0,1-1.257.1l-1.74-1.354a10.868,10.868,0,0,1-1.547.678l-.29,2.127a1.028,1.028,0,0,1-.967.869Zm-2.9-5.8a.72.72,0,0,1,.483.1,8.388,8.388,0,0,0,2.321.967,1.046,1.046,0,0,1,.773.774l.29,1.933h2.031l.194-1.933a.927.927,0,0,1,.676-.87,6.512,6.512,0,0,0,2.224-.967.866.866,0,0,1,1.064.1l1.547,1.161,1.45-1.451-1.257-1.547a.88.88,0,0,1-.1-1.064,8.349,8.349,0,0,0,.967-2.32,1.051,1.051,0,0,1,.774-.774l1.934-.29V1740l-1.934-.193a.927.927,0,0,1-.87-.677,6.5,6.5,0,0,0-.967-2.224.865.865,0,0,1,.1-1.063l1.161-1.547-1.451-1.45-1.547,1.257a.878.878,0,0,1-1.063.1,8.343,8.343,0,0,0-2.321-.967,1.048,1.048,0,0,1-.773-.774l-.291-1.933h-2.03l-.193,1.933a.929.929,0,0,1-.677.871,6.474,6.474,0,0,0-2.224.967.868.868,0,0,1-1.064-.1l-1.354-1.257-1.45,1.45,1.257,1.548a.876.876,0,0,1,.1,1.063,8.35,8.35,0,0,0-.967,2.321,1.051,1.051,0,0,1-.774.773l-1.933.29v2.031l1.933.193a.929.929,0,0,1,.871.677,6.5,6.5,0,0,0,.966,2.224.866.866,0,0,1-.1,1.064l-1.161,1.547,1.257,1.547,1.547-1.257a1.378,1.378,0,0,1,.581-.194Zm0,0" fill="#193540"/>
    <path id="Trazado_12662" data-name="Trazado 12662" d="M-3344.52,1741.254a6.768,6.768,0,0,1-6.768,6.769,6.767,6.767,0,0,1-6.768-6.769,6.768,6.768,0,0,1,6.768-6.768,6.769,6.769,0,0,1,6.768,6.768Zm0,0" fill="#9b235c"/>
    <path id="Trazado_12663" data-name="Trazado 12663" d="M-3348.484,1741.254a2.8,2.8,0,0,1-2.8,2.8,2.8,2.8,0,0,1-2.8-2.8,2.8,2.8,0,0,1,2.8-2.8,2.8,2.8,0,0,1,2.8,2.8Zm0,0" fill="#fff"/>
    <path id="Trazado_12664" data-name="Trazado 12664" d="M-3351.288,1745.026a3.776,3.776,0,0,1-3.771-3.772,3.737,3.737,0,0,1,1.063-2.61,3.737,3.737,0,0,1,2.611-1.064,3.776,3.776,0,0,1,3.771,3.771,3.74,3.74,0,0,1-1.063,2.611,3.424,3.424,0,0,1-2.611,1.064Zm0-5.512a1.557,1.557,0,0,0-1.257.58,2.039,2.039,0,0,0-.484,1.257,1.836,1.836,0,0,0,1.837,1.837v0a1.9,1.9,0,0,0,1.837-1.837,1.918,1.918,0,0,0-1.933-1.837Zm0,0" fill="#193540"/>
  </g>
</svg>
