<svg xmlns="http://www.w3.org/2000/svg" xmlns:xlink="http://www.w3.org/1999/xlink" width="111.928" height="112.195" viewBox="0 0 111.928 112.195">
  <defs>
    <clipPath id="clip-path">
      <rect id="SVGID" width="111.928" height="112.195" fill="none"/>
    </clipPath>
  </defs>
  <g id="Grupo_28668" data-name="Grupo 28668" transform="translate(0 0)">
    <path id="Trazado_64817" data-name="Trazado 64817" d="M-1084.622,1629.369a55.878,55.878,0,0,1-55.879,55.878,55.877,55.877,0,0,1-55.878-55.878,55.878,55.878,0,0,1,55.878-55.879,55.878,55.878,0,0,1,55.879,55.879Zm0,0" transform="translate(1196.378 -1573.406)" fill="#e1e6e7"/>
    <path id="Trazado_64818" data-name="Trazado 64818" d="M-1162.547,1675.891l-13.8-7.508-13.794,7.508a8.084,8.084,0,0,0-4.191,7.16v6.461h36.145v-6.461a8.614,8.614,0,0,0-4.364-7.16Zm0,0" transform="translate(1196.248 -1579.417)" fill="#ffc23b"/>
    <path id="Trazado_64819" data-name="Trazado 64819" d="M-1158.487,1691.134h-36.145a1.649,1.649,0,0,1-1.746-1.746v-6.461a9.913,9.913,0,0,1,5.063-8.731l13.8-7.508a1.589,1.589,0,0,1,1.746,0l13.794,7.508a9.911,9.911,0,0,1,5.063,8.731v6.461a1.519,1.519,0,0,1-1.572,1.746Zm-34.4-3.492h32.654v-4.715a6.258,6.258,0,0,0-3.318-5.588l-13.1-7.159-13.1,7.159a6.259,6.259,0,0,0-3.318,5.588v4.715Zm0,0" transform="translate(1196.378 -1579.293)" fill="#193540"/>
    <path id="Trazado_64820" data-name="Trazado 64820" d="M-1124.143,1675.891l-13.795-7.508-13.795,7.508a8.084,8.084,0,0,0-4.192,7.16v6.461h36.146v-6.461a8.613,8.613,0,0,0-4.365-7.16Zm0,0" transform="translate(1193.815 -1579.417)" fill="#9b235c"/>
    <path id="Trazado_64821" data-name="Trazado 64821" d="M-1120.07,1691.134h-35.972a1.649,1.649,0,0,1-1.746-1.746v-6.461a9.914,9.914,0,0,1,5.064-8.731l13.795-7.508a1.589,1.589,0,0,1,1.746,0l13.795,7.508a9.911,9.911,0,0,1,5.064,8.731v6.461a1.649,1.649,0,0,1-1.746,1.746Zm-34.225-3.492h32.653v-4.715a6.259,6.259,0,0,0-3.318-5.588l-13.1-7.159-13.1,7.159a6.259,6.259,0,0,0-3.319,5.588v4.715Zm0,0" transform="translate(1193.933 -1579.293)" fill="#193540"/>
    <path id="Trazado_64822" data-name="Trazado 64822" d="M-1159.17,1679.559a8.463,8.463,0,0,0-3.318-3.668l-13.8-7.508-13.794,7.508a7.515,7.515,0,0,0-3.318,3.668" transform="translate(1196.189 -1579.417)" fill="#fff"/>
    <path id="Trazado_64823" data-name="Trazado 64823" d="M-1159.309,1681.193a1.676,1.676,0,0,1-1.572-1.048,5.844,5.844,0,0,0-2.62-2.794l-13.1-7.159-13.1,7.159a5.8,5.8,0,0,0-2.619,2.794,1.6,1.6,0,0,1-2.271.873,1.733,1.733,0,0,1-.873-2.27,8.523,8.523,0,0,1,4.192-4.366l13.795-7.507a1.585,1.585,0,0,1,1.746,0l13.794,7.507a10.129,10.129,0,0,1,4.192,4.366,1.733,1.733,0,0,1-.872,2.27c-.176.175-.351.175-.7.175Zm0,0" transform="translate(1196.328 -1579.305)" fill="#193540"/>
    <path id="Trazado_64824" data-name="Trazado 64824" d="M-1120.579,1679.559a8.459,8.459,0,0,0-3.318-3.668l-13.8-7.508-13.795,7.508a7.523,7.523,0,0,0-3.318,3.668" transform="translate(1193.744 -1579.417)" fill="#fff"/>
    <path id="Trazado_64825" data-name="Trazado 64825" d="M-1155.292,1681.193a1.052,1.052,0,0,1-.7-.175,1.733,1.733,0,0,1-.872-2.27,8.516,8.516,0,0,1,4.192-4.366l13.794-7.507a1.585,1.585,0,0,1,1.746,0l13.795,7.507a10.128,10.128,0,0,1,4.192,4.366,1.733,1.733,0,0,1-.873,2.27,1.733,1.733,0,0,1-2.271-.873,5.846,5.846,0,0,0-2.619-2.794l-13.1-7.159-13.1,7.159a5.791,5.791,0,0,0-2.62,2.794,1.679,1.679,0,0,1-1.572,1.048Zm0,0" transform="translate(1193.883 -1579.305)" fill="#193540"/>
    <rect id="Rectángulo_5404" data-name="Rectángulo 5404" width="3.492" height="3.492" transform="translate(63.91 60.154)" fill="#193540"/>
    <rect id="Rectángulo_5405" data-name="Rectángulo 5405" width="3.493" height="3.492" transform="translate(72.292 60.154)" fill="#193540"/>
    <rect id="Rectángulo_5406" data-name="Rectángulo 5406" width="3.493" height="3.492" transform="translate(80.499 60.154)" fill="#193540"/>
    <rect id="Rectángulo_5407" data-name="Rectángulo 5407" width="3.492" height="3.492" transform="translate(27.764 60.154)" fill="#193540"/>
    <rect id="Rectángulo_5408" data-name="Rectángulo 5408" width="3.492" height="3.492" transform="translate(35.971 60.154)" fill="#193540"/>
    <rect id="Rectángulo_5409" data-name="Rectángulo 5409" width="3.493" height="3.492" transform="translate(44.353 60.154)" fill="#193540"/>
    <path id="Trazado_64826" data-name="Trazado 64826" d="M-1166.659,1659c0,6.111-4.016,13.1-9.081,13.1s-9.08-6.809-9.08-13.1,4.016-9.255,9.08-9.255,9.081,3.143,9.081,9.255Zm0,0" transform="translate(1195.646 -1578.236)" fill="#fff"/>
    <path id="Trazado_64827" data-name="Trazado 64827" d="M-1176.044,1673.719c-6.286,0-10.827-7.858-10.827-14.842,0-6.636,4.366-11,10.827-11s10.827,4.365,10.827,11c.174,6.985-4.54,14.842-10.827,14.842Zm0-22.351c-4.54,0-7.334,2.8-7.334,7.509,0,5.587,3.667,11.35,7.334,11.35s7.334-5.763,7.334-11.35c.175-4.714-2.619-7.509-7.334-7.509Zm0,0" transform="translate(1195.776 -1578.118)" fill="#193540"/>
    <path id="Trazado_64828" data-name="Trazado 64828" d="M-1128.254,1659c0,6.111-4.016,13.1-9.081,13.1s-9.08-6.809-9.08-13.1,4.016-9.255,9.08-9.255,9.081,3.143,9.081,9.255Zm0,0" transform="translate(1193.213 -1578.236)" fill="#fff"/>
    <path id="Trazado_64829" data-name="Trazado 64829" d="M-1137.453,1673.719c-6.286,0-10.827-7.858-10.827-14.842,0-6.636,4.366-11,10.827-11s10.827,4.365,10.827,11c0,6.985-4.54,14.842-10.827,14.842Zm0-22.351c-4.54,0-7.334,2.8-7.334,7.509,0,5.587,3.668,11.35,7.334,11.35s7.334-5.763,7.334-11.35c0-4.714-2.793-7.509-7.334-7.509Zm0,0" transform="translate(1193.331 -1578.118)" fill="#193540"/>
    <g id="Grupo_28667" data-name="Grupo 28667" transform="translate(0 0)">
      <g id="Grupo_28666" data-name="Grupo 28666" clip-path="url(#clip-path)">
        <path id="Trazado_64830" data-name="Trazado 64830" d="M-1085.552,1675.891l-13.8-7.508-13.8,7.508a8.084,8.084,0,0,0-4.191,7.16v6.461h36.146v-6.461a8.612,8.612,0,0,0-4.365-7.16Zm0,0" transform="translate(1191.371 -1579.417)" fill="#ffc23b"/>
        <path id="Trazado_64831" data-name="Trazado 64831" d="M-1081.491,1691.134h-36.146a1.649,1.649,0,0,1-1.746-1.746v-6.461a9.913,9.913,0,0,1,5.063-8.731l13.97-7.508a1.589,1.589,0,0,1,1.746,0l13.969,7.508a9.912,9.912,0,0,1,5.065,8.731v6.461a1.9,1.9,0,0,1-1.921,1.746Zm-34.4-3.492h32.654v-4.715a6.26,6.26,0,0,0-3.318-5.588l-13.1-7.159-13.1,7.159a6.259,6.259,0,0,0-3.318,5.588v4.715Zm0,0" transform="translate(1191.501 -1579.293)" fill="#193540"/>
      </g>
    </g>
    <path id="Trazado_64832" data-name="Trazado 64832" d="M-1081.988,1679.559a8.459,8.459,0,0,0-3.318-3.668l-13.794-7.508-13.8,7.508a7.518,7.518,0,0,0-3.318,3.668" transform="translate(1191.299 -1579.417)" fill="#fff"/>
    <path id="Trazado_64833" data-name="Trazado 64833" d="M-1082.127,1681.193a1.678,1.678,0,0,1-1.572-1.048,5.853,5.853,0,0,0-2.62-2.794l-13.1-7.159-13.1,7.159a5.8,5.8,0,0,0-2.618,2.794,1.734,1.734,0,0,1-2.271.873,1.732,1.732,0,0,1-.873-2.27,8.521,8.521,0,0,1,4.191-4.366l13.969-7.507a1.585,1.585,0,0,1,1.746,0l13.97,7.507a10.133,10.133,0,0,1,4.192,4.366,1.733,1.733,0,0,1-.874,2.27,3.731,3.731,0,0,1-1.047.175Zm0,0" transform="translate(1191.438 -1579.305)" fill="#193540"/>
    <path id="Trazado_64834" data-name="Trazado 64834" d="M-1089.664,1659c0,6.111-4.015,13.1-9.08,13.1s-9.08-6.809-9.08-13.1,4.015-9.255,9.08-9.255c4.888,0,9.08,3.143,9.08,9.255Zm0,0" transform="translate(1190.768 -1578.236)" fill="#fff"/>
    <path id="Trazado_64835" data-name="Trazado 64835" d="M-1098.862,1673.719c-6.286,0-10.826-7.858-10.826-14.842,0-6.636,4.364-11,10.826-11s10.826,4.365,10.826,11c0,6.985-4.715,14.842-10.826,14.842Zm0-22.351c-4.54,0-7.334,2.8-7.334,7.509,0,5.587,3.667,11.35,7.334,11.35s7.334-5.763,7.334-11.35c0-4.714-2.793-7.509-7.334-7.509Zm0,0" transform="translate(1190.886 -1578.118)" fill="#193540"/>
    <path id="Trazado_64836" data-name="Trazado 64836" d="M-1095.258,1601.507l-13.794-7.509-13.97,7.509a8.083,8.083,0,0,0-4.191,7.159v6.46h36.146v-6.46a8.081,8.081,0,0,0-4.192-7.159Zm0,0" transform="translate(1191.996 -1574.705)" fill="#907789"/>
    <path id="Trazado_64837" data-name="Trazado 64837" d="M-1091.185,1616.749h-36.146a1.651,1.651,0,0,1-1.747-1.747v-6.46a9.911,9.911,0,0,1,5.065-8.73l13.968-7.509a1.585,1.585,0,0,1,1.746,0l13.97,7.509a9.911,9.911,0,0,1,5.063,8.73V1615a2.22,2.22,0,0,1-1.92,1.747Zm-34.4-3.493h32.652v-4.714a6.257,6.257,0,0,0-3.318-5.588l-13.1-7.16-13.1,7.16a6.258,6.258,0,0,0-3.318,5.588v4.714Zm0,0" transform="translate(1192.114 -1574.581)" fill="#193540"/>
    <path id="Trazado_64838" data-name="Trazado 64838" d="M-1091.881,1605.173a8.451,8.451,0,0,0-3.319-3.667l-13.794-7.508-13.97,7.509a7.51,7.51,0,0,0-3.318,3.666" transform="translate(1191.937 -1574.705)" fill="#fff"/>
    <path id="Trazado_64839" data-name="Trazado 64839" d="M-1126.582,1606.807a1.053,1.053,0,0,1-.7-.174,1.733,1.733,0,0,1-.873-2.27,8.506,8.506,0,0,1,4.191-4.366l13.968-7.509a1.589,1.589,0,0,1,1.746,0l13.97,7.509a10.118,10.118,0,0,1,4.192,4.366,1.733,1.733,0,0,1-.874,2.27,1.732,1.732,0,0,1-2.27-.874,5.844,5.844,0,0,0-2.62-2.793l-13.1-7.16-13.1,7.16a5.8,5.8,0,0,0-2.62,2.793,2.409,2.409,0,0,1-1.92,1.048Zm0,0" transform="translate(1192.064 -1574.593)" fill="#193540"/>
    <path id="Trazado_64840" data-name="Trazado 64840" d="M-1099.358,1584.61c0,6.112-4.016,13.1-9.08,13.1s-9.081-6.81-9.081-13.1,4.016-9.255,9.081-9.255c4.889,0,9.08,3.143,9.08,9.255Zm0,0" transform="translate(1191.382 -1573.524)" fill="#fff"/>
    <path id="Trazado_64841" data-name="Trazado 64841" d="M-1108.743,1599.334c-6.286,0-10.826-7.858-10.826-14.842,0-6.635,4.365-11,10.826-11s10.827,4.366,10.827,11c.175,6.985-4.54,14.842-10.827,14.842Zm0-22.351c-4.54,0-7.334,2.794-7.334,7.509,0,5.587,3.667,11.35,7.334,11.35s7.334-5.763,7.334-11.35c.174-4.715-2.619-7.509-7.334-7.509Zm0,0" transform="translate(1191.512 -1573.406)" fill="#193540"/>
    <path id="Trazado_64842" data-name="Trazado 64842" d="M-1152.864,1601.507l-13.969-7.509-13.8,7.509a8.082,8.082,0,0,0-4.191,7.159v6.46h36.146v-6.46a8.441,8.441,0,0,0-4.191-7.159Zm0,0" transform="translate(1195.646 -1574.705)" fill="#907789"/>
    <path id="Trazado_64843" data-name="Trazado 64843" d="M-1148.792,1616.749h-36.146a1.65,1.65,0,0,1-1.745-1.747v-6.46a9.909,9.909,0,0,1,5.064-8.73l13.968-7.509a1.588,1.588,0,0,1,1.748,0l13.794,7.509a9.911,9.911,0,0,1,5.063,8.73V1615a1.877,1.877,0,0,1-1.746,1.747Zm-34.4-3.493h32.653v-4.714a6.259,6.259,0,0,0-3.318-5.588l-13.1-7.16-13.1,7.16a6.256,6.256,0,0,0-3.318,5.588v4.714Zm0,0" transform="translate(1195.764 -1574.581)" fill="#193540"/>
    <path id="Trazado_64844" data-name="Trazado 64844" d="M-1149.488,1605.173a8.445,8.445,0,0,0-3.318-3.667l-13.969-7.508-13.8,7.509a7.51,7.51,0,0,0-3.318,3.666" transform="translate(1195.587 -1574.705)" fill="#fff"/>
    <path id="Trazado_64845" data-name="Trazado 64845" d="M-1149.615,1606.807a1.675,1.675,0,0,1-1.571-1.048,5.844,5.844,0,0,0-2.62-2.793l-13.1-7.16-13.1,7.16a5.84,5.84,0,0,0-2.62,2.793,1.733,1.733,0,0,1-2.27.874,1.733,1.733,0,0,1-.873-2.27,8.506,8.506,0,0,1,4.192-4.366l13.794-7.509a1.59,1.59,0,0,1,1.747,0l13.8,7.509a10.119,10.119,0,0,1,4.191,4.366,1.733,1.733,0,0,1-.874,2.27c-.175.174-.349.174-.7.174Zm0,0" transform="translate(1195.714 -1574.593)" fill="#193540"/>
    <path id="Trazado_64846" data-name="Trazado 64846" d="M-1157.152,1584.61c0,6.112-4.016,13.1-9.079,13.1s-9.081-6.81-9.081-13.1,4.015-9.255,9.081-9.255,9.079,3.143,9.079,9.255Zm0,0" transform="translate(1195.043 -1573.524)" fill="#fff"/>
    <path id="Trazado_64847" data-name="Trazado 64847" d="M-1166.349,1599.334c-6.287,0-10.827-7.858-10.827-14.842,0-6.635,4.366-11,10.827-11s10.826,4.366,10.826,11c0,6.985-4.54,14.842-10.826,14.842Zm0-22.351c-4.541,0-7.335,2.794-7.335,7.509,0,5.587,3.667,11.35,7.335,11.35s7.333-5.763,7.333-11.35c0-4.715-2.793-7.509-7.333-7.509Zm0,0" transform="translate(1195.161 -1573.406)" fill="#193540"/>
    <path id="Trazado_64848" data-name="Trazado 64848" d="M-1108.129,1631.979a1.649,1.649,0,0,1-1.746-1.746v-13.8a1.649,1.649,0,0,1,1.746-1.746,1.65,1.65,0,0,1,1.747,1.746v13.8a1.65,1.65,0,0,1-1.747,1.746Zm0,0" transform="translate(1190.898 -1576.016)" fill="#193540"/>
    <path id="Trazado_64849" data-name="Trazado 64849" d="M-1165.735,1631.979a1.65,1.65,0,0,1-1.747-1.746v-13.8a1.65,1.65,0,0,1,1.747-1.746,1.649,1.649,0,0,1,1.746,1.746v13.8a1.649,1.649,0,0,1-1.746,1.746Zm0,0" transform="translate(1194.547 -1576.016)" fill="#193540"/>
    <path id="Trazado_64850" data-name="Trazado 64850" d="M-1103.138,1650.2a1.65,1.65,0,0,1-1.747-1.746v-15.541h-68.8v15.541a1.649,1.649,0,0,1-1.746,1.746,1.649,1.649,0,0,1-1.746-1.746v-17.287a1.65,1.65,0,0,1,1.746-1.747h72.117a1.65,1.65,0,0,1,1.747,1.747v17.287a1.52,1.52,0,0,1-1.572,1.746Zm0,0" transform="translate(1195.161 -1576.949)" fill="#193540"/>
    <path id="Trazado_64851" data-name="Trazado 64851" d="M-1136.839,1650.2a1.649,1.649,0,0,1-1.746-1.746v-17.287a1.65,1.65,0,0,1,1.746-1.747,1.651,1.651,0,0,1,1.747,1.747v17.287a1.651,1.651,0,0,1-1.747,1.746Zm0,0" transform="translate(1192.717 -1576.949)" fill="#193540"/>
  </g>
</svg>
