<svg id="Grupo_24008" data-name="Grupo 24008" xmlns="http://www.w3.org/2000/svg" xmlns:xlink="http://www.w3.org/1999/xlink" width="47.365" height="47.365" viewBox="0 0 47.365 47.365">
  <defs>
    <clipPath id="clip-path">
      <rect id="SVGID" width="47.365" height="47.365" fill="none"/>
    </clipPath>
  </defs>
  <path id="Trazado_12578" data-name="Trazado 12578" d="M-3471.019,2081.047H-3495.7l-11.45,11.524v30.439a3.706,3.706,0,0,0,3.694,3.695h32.433a3.705,3.705,0,0,0,3.694-3.695v-38.27a3.8,3.8,0,0,0-3.694-3.693Zm0,0" transform="translate(3507.888 -2080.171)" fill="#9b235c"/>
  <path id="Trazado_12579" data-name="Trazado 12579" d="M-3471.226,2127.237h-32.433a4.446,4.446,0,0,1-4.433-4.433v-30.439a.672.672,0,0,1,.221-.516l11.452-11.525a.67.67,0,0,1,.517-.222h24.6a4.446,4.446,0,0,1,4.433,4.434V2122.8a4.431,4.431,0,0,1-4.359,4.433Zm-35.388-34.576V2122.8a2.963,2.963,0,0,0,2.955,2.955h32.433a2.963,2.963,0,0,0,2.955-2.955v-38.27a2.964,2.964,0,0,0-2.955-2.955h-24.38Zm0,0" transform="translate(3508.095 -2079.964)" fill="#193540"/>
  <path id="Trazado_12580" data-name="Trazado 12580" d="M-3502.625,2124.576a.74.74,0,0,1-.739-.739v-29.257l9.752-9.752h23.42a.74.74,0,0,1,.738.738v38.27a.74.74,0,0,1-.738.739Zm0,0" transform="translate(3507.062 -2080.997)" fill="#fff"/>
  <g id="Grupo_24007" data-name="Grupo 24007" transform="translate(0 0)">
    <g id="Grupo_24006" data-name="Grupo 24006" clip-path="url(#clip-path)">
      <path id="Trazado_12581" data-name="Trazado 12581" d="M-3507.146,2092.572h7.757a3.7,3.7,0,0,0,3.694-3.693v-7.831Zm0,0" transform="translate(3507.888 -2080.171)" fill="#fff"/>
      <path id="Trazado_12582" data-name="Trazado 12582" d="M-3499.6,2093.1h-7.757a.645.645,0,0,1-.665-.444.673.673,0,0,1,.147-.812l11.452-11.525a.674.674,0,0,1,.813-.148.71.71,0,0,1,.443.665v7.758a4.462,4.462,0,0,1-4.433,4.506Zm-5.985-1.478h5.985a2.964,2.964,0,0,0,2.955-2.955v-6.058Zm0,0" transform="translate(3508.096 -2079.963)" fill="#193540"/>
      <path id="Trazado_12583" data-name="Trazado 12583" d="M-3472.731,2112.8l13.151,13.151a3.389,3.389,0,0,0,4.8,0,3.389,3.389,0,0,0,0-4.8l-13.151-13.151Zm0,0" transform="translate(3500.365 -2086.061)" fill="#fff"/>
      <path id="Trazado_12584" data-name="Trazado 12584" d="M-3460.3,2126.257l-13.151-13.151a.714.714,0,0,1,0-1.035l4.8-4.8a.714.714,0,0,1,1.034,0l13.151,13.151a4.1,4.1,0,0,1,0,5.837,4.1,4.1,0,0,1-5.836,0Zm-11.6-13.668,12.634,12.634a2.675,2.675,0,0,0,3.768,0,2.675,2.675,0,0,0,0-3.768l-12.634-12.634Zm0,0" transform="translate(3500.571 -2085.854)" fill="#193540"/>
    </g>
  </g>
  <path id="Trazado_12585" data-name="Trazado 12585" d="M-3468.6,2100.086a12.042,12.042,0,0,1-12.043,12.042,12.041,12.041,0,0,1-12.042-12.042,12.042,12.042,0,0,1,12.042-12.043,12.043,12.043,0,0,1,12.043,12.043Zm0,0" transform="translate(3504.726 -2081.7)" fill="#437795"/>
  <path id="Trazado_12586" data-name="Trazado 12586" d="M-3480.845,2112.66a12.785,12.785,0,0,1-12.781-12.781,12.833,12.833,0,0,1,12.781-12.781,12.786,12.786,0,0,1,12.781,12.781,12.738,12.738,0,0,1-12.781,12.781Zm0-24.084a11.3,11.3,0,0,0-11.3,11.3,11.351,11.351,0,0,0,11.3,11.3,11.351,11.351,0,0,0,11.3-11.3,11.3,11.3,0,0,0-11.3-11.3Zm0,0" transform="translate(3504.933 -2081.493)" fill="#193540"/>
  <path id="Trazado_12587" data-name="Trazado 12587" d="M-3470.724,2100.913a9.087,9.087,0,0,1-9.088,9.087,9.087,9.087,0,0,1-9.087-9.087,9.087,9.087,0,0,1,9.087-9.087,9.087,9.087,0,0,1,9.088,9.087Zm0,0" transform="translate(3503.899 -2082.527)" fill="#fff"/>
  <rect id="Rectángulo_5197" data-name="Rectángulo 5197" width="13.446" height="1.477" transform="translate(5.765 39.589)" fill="#193540"/>
  <rect id="Rectángulo_5198" data-name="Rectángulo 5198" width="13.446" height="1.477" transform="translate(5.765 36.634)" fill="#193540"/>
  <rect id="Rectángulo_5199" data-name="Rectángulo 5199" width="13.446" height="1.478" transform="translate(5.765 33.679)" fill="#193540"/>
  <path id="Trazado_12588" data-name="Trazado 12588" d="M-3462.154,2119.63l-1.045-1.046,1.045-1.044,1.046,1.044Zm0,0" transform="translate(3498.281 -2088.148)" fill="#193540"/>
  <path id="Trazado_12589" data-name="Trazado 12589" d="M-3458.031,2123.8l-1.045-1.045,1.045-1.045,1.044,1.045Zm0,0" transform="translate(3497.38 -2089.061)" fill="#193540"/>
  <path id="Trazado_12590" data-name="Trazado 12590" d="M-3453.9,2127.845l-1.045-1.045,1.045-1.044,1.045,1.044Zm0,0" transform="translate(3496.477 -2089.945)" fill="#193540"/>
  <path id="Trazado_12591" data-name="Trazado 12591" d="M-3479.377,2113.463a8.933,8.933,0,0,0,7.388-3.841,3.648,3.648,0,0,0-3.177-2.291,5.028,5.028,0,0,1-4.286,2.512,5.12,5.12,0,0,1-4.284-2.512,3.614,3.614,0,0,0-3.177,2.291,9.624,9.624,0,0,0,7.536,3.841Zm0,0" transform="translate(3503.465 -2085.917)" fill="#e1e6e7"/>
  <path id="Trazado_12592" data-name="Trazado 12592" d="M-3474.608,2100.348c0,2.774-1.654,5.024-3.695,5.024s-3.694-2.25-3.694-5.024,1.654-5.024,3.694-5.024,3.695,2.249,3.695,5.024Zm0,0" transform="translate(3502.39 -2083.292)" fill="#ffc23b"/>
  <path id="Trazado_12593" data-name="Trazado 12593" d="M-3474.528,2096.5a2.624,2.624,0,0,0-1.625-1.995,5.476,5.476,0,0,0-4.8,0,2.777,2.777,0,0,0-1.625,1.995s-1.109.813.37,4.285a2.3,2.3,0,0,1,.738-2.29s-.517-1.625.887-1.625a3.753,3.753,0,0,0,1.921.517,3.751,3.751,0,0,0,1.92-.517c1.478,0,.887,1.625.887,1.625a2.32,2.32,0,0,1,.738,2.29c1.773-3.473.591-4.285.591-4.285Zm0,0" transform="translate(3502.605 -2082.992)" fill="#193540"/>
</svg>
