<svg xmlns="http://www.w3.org/2000/svg" width="149.2" height="96.411" viewBox="0 0 149.2 96.411">
  <g id="Grupo_22866" data-name="Grupo 22866" transform="translate(1411.592 -1884.311)">
    <g id="Grupo_21115" data-name="Grupo 21115" transform="translate(-1411.592 1884.311)">
      <g id="Grupo_21110" data-name="Grupo 21110" transform="translate(23.749)">
        <g id="Grupo_21086" data-name="Grupo 21086">
          <rect id="Rect치ngulo_4977" data-name="Rect치ngulo 4977" width="98.537" height="73.133" rx="1.997" transform="translate(1.506 1.505)" fill="#fff"/>
          <path id="Trazado_2728" data-name="Trazado 2728" d="M-1285.481,1960.456H-1380.6a3.218,3.218,0,0,1-3.213-3.213v-69.719a3.218,3.218,0,0,1,3.213-3.213h95.123a3.216,3.216,0,0,1,3.212,3.213v69.719A3.217,3.217,0,0,1-1285.481,1960.456Zm-95.123-73.134a.2.2,0,0,0-.2.2v69.719a.2.2,0,0,0,.2.2h95.123a.2.2,0,0,0,.2-.2v-69.719a.2.2,0,0,0-.2-.2Z" transform="translate(1383.818 -1884.311)" fill="#193540"/>
        </g>
        <g id="Grupo_21087" data-name="Grupo 21087" transform="translate(89.985 3.788)">
          <path id="Trazado_2729" data-name="Trazado 2729" d="M-1276.824,1892.632a2.131,2.131,0,0,0,2.133,2.13,2.132,2.132,0,0,0,2.133-2.13,2.132,2.132,0,0,0-2.133-2.13A2.131,2.131,0,0,0-1276.824,1892.632Z" transform="translate(1278.329 -1888.996)" fill="#fff"/>
          <path id="Trazado_2730" data-name="Trazado 2730" d="M-1274.946,1896.012a3.64,3.64,0,0,1-3.638-3.635,3.641,3.641,0,0,1,3.638-3.636,3.642,3.642,0,0,1,3.637,3.636A3.64,3.64,0,0,1-1274.946,1896.012Zm0-4.259a.627.627,0,0,0-.628.624.626.626,0,0,0,.628.623.625.625,0,0,0,.626-.623A.626.626,0,0,0-1274.946,1891.753Z" transform="translate(1278.584 -1888.741)" fill="#193540"/>
        </g>
        <g id="Grupo_21088" data-name="Grupo 21088" transform="translate(81.772 3.788)">
          <path id="Trazado_2731" data-name="Trazado 2731" d="M-1286.428,1892.632a2.132,2.132,0,0,0,2.133,2.13,2.132,2.132,0,0,0,2.133-2.13,2.132,2.132,0,0,0-2.133-2.13A2.132,2.132,0,0,0-1286.428,1892.632Z" transform="translate(1287.934 -1888.996)" fill="#fff"/>
          <path id="Trazado_2732" data-name="Trazado 2732" d="M-1284.55,1896.012a3.641,3.641,0,0,1-3.639-3.635,3.642,3.642,0,0,1,3.639-3.636,3.642,3.642,0,0,1,3.638,3.636A3.64,3.64,0,0,1-1284.55,1896.012Zm0-4.259a.627.627,0,0,0-.628.624.626.626,0,0,0,.628.623.625.625,0,0,0,.627-.623A.627.627,0,0,0-1284.55,1891.753Z" transform="translate(1288.189 -1888.741)" fill="#193540"/>
        </g>
        <g id="Grupo_21089" data-name="Grupo 21089" transform="translate(73.806 3.788)">
          <path id="Trazado_2733" data-name="Trazado 2733" d="M-1295.743,1892.632a2.131,2.131,0,0,0,2.133,2.13,2.132,2.132,0,0,0,2.133-2.13,2.132,2.132,0,0,0-2.133-2.13A2.132,2.132,0,0,0-1295.743,1892.632Z" transform="translate(1297.249 -1888.996)" fill="#fff"/>
          <path id="Trazado_2734" data-name="Trazado 2734" d="M-1293.866,1896.012a3.641,3.641,0,0,1-3.638-3.635,3.642,3.642,0,0,1,3.638-3.636,3.642,3.642,0,0,1,3.639,3.636A3.641,3.641,0,0,1-1293.866,1896.012Zm0-4.259a.627.627,0,0,0-.627.624.625.625,0,0,0,.627.623.626.626,0,0,0,.628-.623A.627.627,0,0,0-1293.866,1891.753Z" transform="translate(1297.504 -1888.741)" fill="#193540"/>
        </g>
        <g id="Grupo_21090" data-name="Grupo 21090" transform="translate(0 11.794)">
          <path id="Trazado_2735" data-name="Trazado 2735" d="M-1283.519,1899.865h0Z" transform="translate(1383.563 -1898.359)" fill="#fff"/>
          <path id="Trazado_2736" data-name="Trazado 2736" d="M-1283.776,1901.115h-98.537a1.506,1.506,0,0,1-1.506-1.505,1.506,1.506,0,0,1,1.506-1.506h98.537a1.506,1.506,0,0,1,1.506,1.506A1.506,1.506,0,0,1-1283.776,1901.115Z" transform="translate(1383.818 -1898.104)" fill="#193540"/>
        </g>
        <g id="Grupo_21091" data-name="Grupo 21091" transform="translate(7.656 17.348)">
          <rect id="Rect치ngulo_4978" data-name="Rect치ngulo 4978" width="83.196" height="17.496" transform="translate(84.702 19.002) rotate(180)" fill="#9b235c"/>
          <path id="Trazado_2737" data-name="Trazado 2737" d="M-1290.163,1925.107h-83.2a1.506,1.506,0,0,1-1.506-1.506v-17.5a1.506,1.506,0,0,1,1.506-1.506h83.2a1.506,1.506,0,0,1,1.506,1.506v17.5A1.506,1.506,0,0,1-1290.163,1925.107Zm-81.691-3.012h80.185v-14.484h-80.185Z" transform="translate(1374.865 -1904.599)" fill="#193540"/>
        </g>
        <g id="Grupo_21106" data-name="Grupo 21106" transform="translate(8.729 44.033)">
          <g id="Grupo_21096" data-name="Grupo 21096" transform="translate(60.606)">
            <g id="Grupo_21092" data-name="Grupo 21092">
              <path id="Trazado_2738" data-name="Trazado 2738" d="M-1280.5,1937.567h0Z" transform="translate(1302.479 -1936.061)" fill="#fff"/>
              <path id="Trazado_2739" data-name="Trazado 2739" d="M-1280.753,1938.818h-20.475a1.507,1.507,0,0,1-1.506-1.506,1.506,1.506,0,0,1,1.506-1.506h20.475a1.506,1.506,0,0,1,1.506,1.506A1.507,1.507,0,0,1-1280.753,1938.818Z" transform="translate(1302.734 -1935.806)" fill="#193540"/>
            </g>
            <g id="Grupo_21093" data-name="Grupo 21093" transform="translate(0 6.5)">
              <path id="Trazado_2740" data-name="Trazado 2740" d="M-1280.5,1945.168h0Z" transform="translate(1302.479 -1943.662)" fill="#fff"/>
              <path id="Trazado_2741" data-name="Trazado 2741" d="M-1280.753,1946.418h-20.475a1.506,1.506,0,0,1-1.506-1.506,1.506,1.506,0,0,1,1.506-1.5h20.475a1.506,1.506,0,0,1,1.506,1.5A1.506,1.506,0,0,1-1280.753,1946.418Z" transform="translate(1302.734 -1943.407)" fill="#193540"/>
            </g>
            <g id="Grupo_21094" data-name="Grupo 21094" transform="translate(0 12.999)">
              <path id="Trazado_2742" data-name="Trazado 2742" d="M-1280.5,1952.769h0Z" transform="translate(1302.479 -1951.263)" fill="#fff"/>
              <path id="Trazado_2743" data-name="Trazado 2743" d="M-1280.753,1954.02h-20.475a1.507,1.507,0,0,1-1.506-1.506,1.506,1.506,0,0,1,1.506-1.506h20.475a1.506,1.506,0,0,1,1.506,1.506A1.507,1.507,0,0,1-1280.753,1954.02Z" transform="translate(1302.734 -1951.008)" fill="#193540"/>
            </g>
            <g id="Grupo_21095" data-name="Grupo 21095" transform="translate(0 19.5)">
              <path id="Trazado_2744" data-name="Trazado 2744" d="M-1280.5,1960.37h0Z" transform="translate(1302.479 -1958.865)" fill="#fff"/>
              <path id="Trazado_2745" data-name="Trazado 2745" d="M-1280.753,1961.621h-20.475a1.506,1.506,0,0,1-1.506-1.506,1.506,1.506,0,0,1,1.506-1.5h20.475a1.506,1.506,0,0,1,1.506,1.5A1.506,1.506,0,0,1-1280.753,1961.621Z" transform="translate(1302.734 -1958.61)" fill="#193540"/>
            </g>
          </g>
          <g id="Grupo_21101" data-name="Grupo 21101" transform="translate(29.765)">
            <g id="Grupo_21097" data-name="Grupo 21097">
              <path id="Trazado_2746" data-name="Trazado 2746" d="M-1316.566,1937.567h0Z" transform="translate(1338.546 -1936.061)" fill="#fff"/>
              <path id="Trazado_2747" data-name="Trazado 2747" d="M-1316.82,1938.818H-1337.3a1.506,1.506,0,0,1-1.505-1.506,1.506,1.506,0,0,1,1.505-1.506h20.476a1.506,1.506,0,0,1,1.5,1.506A1.506,1.506,0,0,1-1316.82,1938.818Z" transform="translate(1338.801 -1935.806)" fill="#193540"/>
            </g>
            <g id="Grupo_21098" data-name="Grupo 21098" transform="translate(0 6.5)">
              <path id="Trazado_2748" data-name="Trazado 2748" d="M-1316.566,1945.168h0Z" transform="translate(1338.546 -1943.662)" fill="#fff"/>
              <path id="Trazado_2749" data-name="Trazado 2749" d="M-1316.82,1946.418H-1337.3a1.506,1.506,0,0,1-1.505-1.506,1.505,1.505,0,0,1,1.505-1.5h20.476a1.505,1.505,0,0,1,1.5,1.5A1.506,1.506,0,0,1-1316.82,1946.418Z" transform="translate(1338.801 -1943.407)" fill="#193540"/>
            </g>
            <g id="Grupo_21099" data-name="Grupo 21099" transform="translate(0 12.999)">
              <path id="Trazado_2750" data-name="Trazado 2750" d="M-1316.566,1952.769h0Z" transform="translate(1338.546 -1951.263)" fill="#fff"/>
              <path id="Trazado_2751" data-name="Trazado 2751" d="M-1316.82,1954.02H-1337.3a1.506,1.506,0,0,1-1.505-1.506,1.506,1.506,0,0,1,1.505-1.506h20.476a1.506,1.506,0,0,1,1.5,1.506A1.506,1.506,0,0,1-1316.82,1954.02Z" transform="translate(1338.801 -1951.008)" fill="#193540"/>
            </g>
            <g id="Grupo_21100" data-name="Grupo 21100" transform="translate(0 19.5)">
              <path id="Trazado_2752" data-name="Trazado 2752" d="M-1316.566,1960.37h0Z" transform="translate(1338.546 -1958.865)" fill="#fff"/>
              <path id="Trazado_2753" data-name="Trazado 2753" d="M-1316.82,1961.621H-1337.3a1.506,1.506,0,0,1-1.505-1.506,1.5,1.5,0,0,1,1.505-1.5h20.476a1.5,1.5,0,0,1,1.5,1.5A1.506,1.506,0,0,1-1316.82,1961.621Z" transform="translate(1338.801 -1958.61)" fill="#193540"/>
            </g>
          </g>
          <g id="Grupo_21105" data-name="Grupo 21105">
            <g id="Grupo_21102" data-name="Grupo 21102">
              <path id="Trazado_2754" data-name="Trazado 2754" d="M-1351.375,1937.567h0Z" transform="translate(1373.355 -1936.061)" fill="#fff"/>
              <path id="Trazado_2755" data-name="Trazado 2755" d="M-1351.63,1938.818H-1372.1a1.506,1.506,0,0,1-1.505-1.506,1.506,1.506,0,0,1,1.505-1.506h20.475a1.506,1.506,0,0,1,1.506,1.506A1.506,1.506,0,0,1-1351.63,1938.818Z" transform="translate(1373.61 -1935.806)" fill="#193540"/>
            </g>
            <g id="Grupo_21103" data-name="Grupo 21103" transform="translate(0 6.5)">
              <path id="Trazado_2756" data-name="Trazado 2756" d="M-1351.375,1945.168h0Z" transform="translate(1373.355 -1943.662)" fill="#fff"/>
              <path id="Trazado_2757" data-name="Trazado 2757" d="M-1351.63,1946.418H-1372.1a1.506,1.506,0,0,1-1.505-1.506,1.5,1.5,0,0,1,1.505-1.5h20.475a1.505,1.505,0,0,1,1.506,1.5A1.506,1.506,0,0,1-1351.63,1946.418Z" transform="translate(1373.61 -1943.407)" fill="#193540"/>
            </g>
            <g id="Grupo_21104" data-name="Grupo 21104" transform="translate(0 12.999)">
              <path id="Trazado_2758" data-name="Trazado 2758" d="M-1351.375,1952.769h0Z" transform="translate(1373.355 -1951.263)" fill="#fff"/>
              <path id="Trazado_2759" data-name="Trazado 2759" d="M-1351.63,1954.02H-1372.1a1.506,1.506,0,0,1-1.505-1.506,1.506,1.506,0,0,1,1.505-1.506h20.475a1.506,1.506,0,0,1,1.506,1.506A1.506,1.506,0,0,1-1351.63,1954.02Z" transform="translate(1373.61 -1951.008)" fill="#193540"/>
            </g>
          </g>
        </g>
        <g id="Grupo_21107" data-name="Grupo 21107" transform="translate(69.389)">
          <path id="Trazado_2760" data-name="Trazado 2760" d="M-1300.909,1886.072v0Z" transform="translate(1302.415 -1884.566)" fill="#fff"/>
          <path id="Trazado_2761" data-name="Trazado 2761" d="M-1301.165,1899.116a1.505,1.505,0,0,1-1.505-1.505v-11.794a1.505,1.505,0,0,1,1.505-1.506,1.506,1.506,0,0,1,1.506,1.506v11.794A1.506,1.506,0,0,1-1301.165,1899.116Z" transform="translate(1302.67 -1884.311)" fill="#193540"/>
        </g>
        <g id="Grupo_21108" data-name="Grupo 21108" transform="translate(27.865 22.466)">
          <path id="Trazado_2762" data-name="Trazado 2762" d="M-1307.946,1912.345h0Z" transform="translate(1350.976 -1910.839)" fill="#fff"/>
          <path id="Trazado_2763" data-name="Trazado 2763" d="M-1308.2,1913.6h-41.523a1.506,1.506,0,0,1-1.506-1.506,1.506,1.506,0,0,1,1.506-1.506h41.523a1.506,1.506,0,0,1,1.506,1.506A1.506,1.506,0,0,1-1308.2,1913.6Z" transform="translate(1351.231 -1910.584)" fill="#fff"/>
        </g>
        <g id="Grupo_21109" data-name="Grupo 21109" transform="translate(32.586 28.05)">
          <path id="Trazado_2764" data-name="Trazado 2764" d="M-1311.867,1918.876h0Z" transform="translate(1345.455 -1917.37)" fill="#fff"/>
          <path id="Trazado_2765" data-name="Trazado 2765" d="M-1312.121,1920.126h-32.084a1.5,1.5,0,0,1-1.5-1.505,1.506,1.506,0,0,1,1.5-1.506h32.084a1.506,1.506,0,0,1,1.505,1.506A1.505,1.505,0,0,1-1312.121,1920.126Z" transform="translate(1345.71 -1917.115)" fill="#fff"/>
        </g>
      </g>
      <g id="Grupo_21112" data-name="Grupo 21112" transform="translate(19.547 59.099)">
        <ellipse id="Elipse_1218" data-name="Elipse 1218" cx="7.851" cy="7.659" rx="7.851" ry="7.659" transform="translate(11.263 10.993)" fill="#fff"/>
        <g id="Grupo_21111" data-name="Grupo 21111">
          <path id="Trazado_2766" data-name="Trazado 2766" d="M-1378.7,1986.519l2.222-2.172a.682.682,0,0,1,.787-.114,13.894,13.894,0,0,0,2.152.867.658.658,0,0,1,.477.623l0,3.069a.7.7,0,0,0,.711.693l5.944-.005a.7.7,0,0,0,.71-.694l0-3.069a.658.658,0,0,1,.476-.625,13.8,13.8,0,0,0,2.15-.871.681.681,0,0,1,.788.112l2.226,2.168a.726.726,0,0,0,1.006,0l4.2-4.1a.683.683,0,0,0,0-.981l-2.227-2.167a.651.651,0,0,1-.114-.774,13.19,13.19,0,0,0,.886-2.093.67.67,0,0,1,.639-.466l3.146,0a.7.7,0,0,0,.71-.693l-.006-5.115c0-.383-.173-.883-.565-.883l-3.292-.246c-.3,0-.551-.434-.64-.709a13.155,13.155,0,0,0-.889-2.091.65.65,0,0,1,.112-.774l2.222-2.172a.683.683,0,0,0,0-.981l-4.206-4.1a.726.726,0,0,0-1.005,0l-2.222,2.172a.681.681,0,0,1-.787.115,13.688,13.688,0,0,0-2.151-.867.66.66,0,0,1-.478-.623l0-3.069a.7.7,0,0,0-.712-.693l-5.943.006a.7.7,0,0,0-.711.694l0,3.069a.659.659,0,0,1-.477.624,13.822,13.822,0,0,0-2.15.871.682.682,0,0,1-.787-.113l-2.227-2.167a.725.725,0,0,0-1.005,0l-4.2,4.1a.683.683,0,0,0,0,.981l2.226,2.168a.649.649,0,0,1,.114.773,13.126,13.126,0,0,0-.885,2.093.673.673,0,0,1-.64.467l-3.145,0a.7.7,0,0,0-.71.694l.005,5.264a1.244,1.244,0,0,0,1.26,1.227l2.6,0a.671.671,0,0,1,.64.464c.283.869,1.34,1.166,1.809,1.975l-3.254,3.062a.684.684,0,0,0,0,.981l4.207,4.1A.726.726,0,0,0-1378.7,1986.519Zm3.762-8.762a7.528,7.528,0,0,1-.011-10.833,7.991,7.991,0,0,1,11.1-.01,7.527,7.527,0,0,1,.011,10.832A7.991,7.991,0,0,1-1374.937,1977.757Z" transform="translate(1388.477 -1953.68)" fill="#fff"/>
          <path id="Trazado_2767" data-name="Trazado 2767" d="M-1372.6,1990.737a2.212,2.212,0,0,1-2.22-2.2l0-2.447q-.651-.231-1.275-.515l-1.806,1.766,0,0a2.241,2.241,0,0,1-3.105,0l-4.208-4.1a2.166,2.166,0,0,1-.663-1.565,2.182,2.182,0,0,1,.659-1.571l2.121-2a3.684,3.684,0,0,1-.8-.922l-2.063,0h0a2.76,2.76,0,0,1-1.965-.81,2.7,2.7,0,0,1-.8-1.922l-.006-5.263a2.211,2.211,0,0,1,2.216-2.2l2.552,0c.149-.4.316-.8.5-1.189l-1.773-1.727a2.207,2.207,0,0,1-.664-1.571,2.173,2.173,0,0,1,.662-1.568l4.2-4.1a2.243,2.243,0,0,1,3.107,0l1.811,1.763c.414-.191.841-.363,1.273-.517l0-2.449a2.211,2.211,0,0,1,2.216-2.2l5.942-.005h.006a2.21,2.21,0,0,1,2.214,2.194l0,2.451c.433.152.859.325,1.275.515l1.806-1.764a2.237,2.237,0,0,1,3.108,0l4.206,4.094a2.207,2.207,0,0,1,.664,1.571,2.174,2.174,0,0,1-.662,1.568l-1.769,1.729a14.392,14.392,0,0,1,.61,1.481l2.671.2a1.938,1.938,0,0,1,1.3.57,2.612,2.612,0,0,1,.7,1.817l.006,5.113a2.172,2.172,0,0,1-.641,1.549,2.205,2.205,0,0,1-1.574.653l-2.552,0c-.15.4-.317.8-.5,1.19l1.774,1.727a2.174,2.174,0,0,1,.664,1.568,2.173,2.173,0,0,1-.659,1.568l-4.2,4.1a2.238,2.238,0,0,1-3.109,0l-1.808-1.761c-.417.192-.843.365-1.275.517l0,2.448a2.214,2.214,0,0,1-2.213,2.2Zm-3.662-8.34a2.212,2.212,0,0,1,.99.234,12.374,12.374,0,0,0,1.922.775,2.156,2.156,0,0,1,1.539,2.057l0,2.261,4.354,0,0-2.257a2.159,2.159,0,0,1,1.538-2.065,12.3,12.3,0,0,0,1.915-.775,2.186,2.186,0,0,1,2.517.376l1.677,1.633,3.05-2.98-1.625-1.581a2.142,2.142,0,0,1-.4-2.552,11.693,11.693,0,0,0,.787-1.857,2.17,2.17,0,0,1,2.067-1.508l2.353,0,0-3.747-2.428-.181a2.35,2.35,0,0,1-1.995-1.745,11.779,11.779,0,0,0-.788-1.855,2.163,2.163,0,0,1,.389-2.557l1.62-1.584-3.056-2.974-1.673,1.636a2.192,2.192,0,0,1-2.517.382,12.311,12.311,0,0,0-1.918-.772,2.158,2.158,0,0,1-1.539-2.062l0-2.256-4.354,0,0,2.257a2.158,2.158,0,0,1-1.536,2.063,12.33,12.33,0,0,0-1.915.776,2.2,2.2,0,0,1-2.518-.376l-1.677-1.634-3.049,2.981,1.623,1.58a2.14,2.14,0,0,1,.394,2.558,11.725,11.725,0,0,0-.783,1.851,2.172,2.172,0,0,1-2.071,1.508l-2.35,0,0,4.175,2.35,0a2.173,2.173,0,0,1,2.074,1.508,4.1,4.1,0,0,0,.436.369,4.592,4.592,0,0,1,1.244,1.313,1.505,1.505,0,0,1-.271,1.85l-2.62,2.466,3.042,2.964,1.674-1.636A2.177,2.177,0,0,1-1376.26,1982.4Zm2.021,3.886.005,0Zm9.214-.01h0Zm-13.93-.009h0Zm-5.2-9.645,0,0Zm29.026-.034,0,.006Zm-.805-9.374h0Zm-27.243-1.974,0,0Zm27.045-.031,0,0Zm-3.152-6.237,0,0Zm-7.406-2.535Zm-2.956,24.8a9.431,9.431,0,0,1-6.6-2.657,9.012,9.012,0,0,1-2.762-6.49,9.014,9.014,0,0,1,2.748-6.5,9.511,9.511,0,0,1,13.205-.012,9.015,9.015,0,0,1,2.761,6.491,9.013,9.013,0,0,1-2.747,6.5A9.433,9.433,0,0,1-1369.646,1981.238Zm0-15.311a6.426,6.426,0,0,0-4.5,1.82,6.024,6.024,0,0,0-1.842,4.34,6.018,6.018,0,0,0,1.85,4.335,6.484,6.484,0,0,0,9-.008,6.019,6.019,0,0,0,1.841-4.339,6.024,6.024,0,0,0-1.851-4.337A6.425,6.425,0,0,0-1369.646,1965.927Z" transform="translate(1388.732 -1953.425)" fill="#193540"/>
        </g>
      </g>
      <g id="Grupo_21114" data-name="Grupo 21114" transform="translate(0 38.695)">
        <ellipse id="Elipse_1219" data-name="Elipse 1219" cx="9.772" cy="9.736" rx="9.772" ry="9.736" transform="translate(13.65 13.566)" fill="#fff"/>
        <g id="Grupo_21113" data-name="Grupo 21113">
          <path id="Trazado_2768" data-name="Trazado 2768" d="M-1399.535,1971.153l2.765-2.76a.84.84,0,0,1,.982-.144,16.9,16.9,0,0,0,2.675,1.1.837.837,0,0,1,.594.794l0,3.9a.883.883,0,0,0,.886.881l7.4-.008a.884.884,0,0,0,.884-.883l0-3.9a.836.836,0,0,1,.594-.794,16.987,16.987,0,0,0,2.672-1.105.843.843,0,0,1,.983.141l2.771,2.756a.888.888,0,0,0,1.252,0l5.225-5.216a.881.881,0,0,0,0-1.248l-2.771-2.755a.833.833,0,0,1-.144-.979,16.88,16.88,0,0,0,1.1-2.665.838.838,0,0,1,.8-.593l3.915,0a.882.882,0,0,0,.884-.882l-.007-7.371a.884.884,0,0,0-.886-.881l-3.915,0a.839.839,0,0,1-.8-.591,16.908,16.908,0,0,0-1.109-2.663.831.831,0,0,1,.142-.979l2.765-2.761a.879.879,0,0,0,0-1.247l-5.236-5.207a.887.887,0,0,0-1.251,0l-2.766,2.761a.84.84,0,0,1-.982.144,16.974,16.974,0,0,0-2.675-1.1.835.835,0,0,1-.594-.792l0-3.9a.883.883,0,0,0-.885-.881l-7.4.008a.883.883,0,0,0-.884.882l0,3.9a.835.835,0,0,1-.593.794,16.98,16.98,0,0,0-2.672,1.105.84.84,0,0,1-.982-.142l-2.771-2.755a.888.888,0,0,0-1.252,0l-5.225,5.216a.878.878,0,0,0,0,1.247l2.771,2.756a.831.831,0,0,1,.144.979,16.9,16.9,0,0,0-1.1,2.665.838.838,0,0,1-.8.593l-3.915,0a.883.883,0,0,0-.884.882l.007,6.692a1.563,1.563,0,0,0,1.568,1.559l3.234,0a.838.838,0,0,1,.8.591,16.811,16.811,0,0,0,1.11,2.663.834.834,0,0,1-.142.979l-2.766,2.761a.879.879,0,0,0,0,1.247l5.236,5.207A.888.888,0,0,0-1399.535,1971.153Zm4.682-11.139a9.71,9.71,0,0,1-.014-13.768,9.8,9.8,0,0,1,13.818-.013,9.708,9.708,0,0,1,.014,13.767A9.8,9.8,0,0,1-1394.853,1960.014Z" transform="translate(1411.337 -1929.818)" fill="#437795"/>
          <path id="Trazado_2769" data-name="Trazado 2769" d="M-1391.882,1976.173a2.393,2.393,0,0,1-2.392-2.382l0-3.413a18.507,18.507,0,0,1-2.027-.833l-2.422,2.418h0a2.4,2.4,0,0,1-3.378,0l-5.235-5.205a2.375,2.375,0,0,1-.7-1.69,2.374,2.374,0,0,1,.7-1.691l2.417-2.412a18.539,18.539,0,0,1-.836-2.009l-2.749,0h0a3.056,3.056,0,0,1-2.173-.9,3.037,3.037,0,0,1-.9-2.165l-.008-6.689a2.367,2.367,0,0,1,.7-1.691,2.378,2.378,0,0,1,1.687-.7l3.431,0a18.5,18.5,0,0,1,.832-2.009l-2.422-2.409a2.372,2.372,0,0,1-.7-1.69,2.378,2.378,0,0,1,.7-1.692l5.225-5.216a2.4,2.4,0,0,1,3.378,0l2.427,2.413a18.8,18.8,0,0,1,2.024-.838l0-3.409a2.371,2.371,0,0,1,.7-1.688,2.376,2.376,0,0,1,1.693-.7l7.395-.008a2.394,2.394,0,0,1,2.393,2.384l0,3.411a18.726,18.726,0,0,1,2.026.834l2.423-2.417a2.4,2.4,0,0,1,3.377,0l5.236,5.208a2.365,2.365,0,0,1,.7,1.69,2.37,2.37,0,0,1-.7,1.691l-2.417,2.411a18.252,18.252,0,0,1,.836,2.01l3.429,0a2.4,2.4,0,0,1,2.394,2.384l.007,7.373a2.362,2.362,0,0,1-.7,1.69,2.378,2.378,0,0,1-1.686.7l-3.431,0a18.533,18.533,0,0,1-.832,2.009l2.422,2.409a2.378,2.378,0,0,1,.7,1.69,2.376,2.376,0,0,1-.7,1.691l-5.226,5.216a2.4,2.4,0,0,1-3.377,0l-2.428-2.413a18.644,18.644,0,0,1-2.024.837l0,3.409a2.371,2.371,0,0,1-.7,1.692,2.379,2.379,0,0,1-1.687.7Zm-4.557-9.783a2.375,2.375,0,0,1,1.088.265,15.463,15.463,0,0,0,2.436,1,2.334,2.334,0,0,1,1.648,2.229l0,3.275,6.156-.005,0-3.277a2.337,2.337,0,0,1,1.646-2.233,15.569,15.569,0,0,0,2.434-1.007,2.334,2.334,0,0,1,2.738.415l2.331,2.316,4.345-4.338-2.326-2.312a2.33,2.33,0,0,1-.42-2.739,15.388,15.388,0,0,0,1.005-2.427,2.34,2.34,0,0,1,2.231-1.643l3.293,0-.005-6.122-3.295,0h-.007a2.335,2.335,0,0,1-2.226-1.638,15.414,15.414,0,0,0-1.011-2.424,2.333,2.333,0,0,1,.413-2.74l2.322-2.319-4.353-4.328-2.328,2.325a2.338,2.338,0,0,1-2.738.416,15.557,15.557,0,0,0-2.436-1,2.336,2.336,0,0,1-1.648-2.229l0-3.275-6.156.006,0,3.277a2.336,2.336,0,0,1-1.646,2.231,15.564,15.564,0,0,0-2.434,1.007,2.337,2.337,0,0,1-2.736-.412l-2.333-2.319-4.346,4.337,2.326,2.313a2.331,2.331,0,0,1,.421,2.737,15.305,15.305,0,0,0-1.007,2.429,2.335,2.335,0,0,1-2.231,1.642l-3.293,0,.006,6.068,3.295.051a2.338,2.338,0,0,1,2.232,1.639,15.4,15.4,0,0,0,1.011,2.424,2.328,2.328,0,0,1-.415,2.742l-2.32,2.317,4.354,4.328,2.328-2.326A2.333,2.333,0,0,1-1396.439,1966.39Zm-3.352,4.508h0Zm17.235-.38h0Zm-18.3-.686h0Zm20.434-.645,0,0Zm9.283-22.408h0Zm-22.718-11.561h0Zm5.648,28.885a11.26,11.26,0,0,1-7.964-3.277h0a11.152,11.152,0,0,1-3.312-7.948,11.149,11.149,0,0,1,3.3-7.953,11.315,11.315,0,0,1,15.944-.015,11.15,11.15,0,0,1,3.313,7.947,11.153,11.153,0,0,1-3.3,7.953A11.265,11.265,0,0,1-1388.206,1964.1Zm-5.841-5.412a8.3,8.3,0,0,0,11.694-.011,8.154,8.154,0,0,0,2.412-5.819,8.159,8.159,0,0,0-2.424-5.816,8.3,8.3,0,0,0-11.694.011,8.162,8.162,0,0,0-2.412,5.82,8.158,8.158,0,0,0,2.424,5.816Z" transform="translate(1411.592 -1929.563)" fill="#193540"/>
        </g>
      </g>
    </g>
    <circle id="Elipse_1220" data-name="Elipse 1220" cx="22.805" cy="22.805" r="22.805" transform="translate(-1314.718 1947.518) rotate(-80.783)" fill="#fff"/>
    <circle id="Elipse_1221" data-name="Elipse 1221" cx="22.805" cy="22.805" r="22.805" transform="translate(-1314.718 1947.518) rotate(-80.783)" fill="#437795" opacity="0.2"/>
    <path id="Trazado_2770" data-name="Trazado 2770" d="M-1271.727,1955.894a23.767,23.767,0,0,1-23.741-23.74,23.768,23.768,0,0,1,23.741-23.741,23.768,23.768,0,0,1,23.74,23.741A23.767,23.767,0,0,1-1271.727,1955.894Zm0-45.61a21.9,21.9,0,0,0-21.87,21.87,21.894,21.894,0,0,0,21.87,21.869,21.894,21.894,0,0,0,21.869-21.869A21.894,21.894,0,0,0-1271.727,1910.284Z" transform="translate(-16.827 -3.493)" fill="#193540"/>
    <g id="Grupo_21120" data-name="Grupo 21120" transform="translate(-1303.928 1913.05)">
      <g id="Grupo_21116" data-name="Grupo 21116">
        <path id="Trazado_2771" data-name="Trazado 2771" d="M-1270.421,1951.521a1.074,1.074,0,0,1-.66-.213,34.359,34.359,0,0,1-3.263-3.01,40.526,40.526,0,0,1-4.5-5.592,35.453,35.453,0,0,1-4-7.946,31.422,31.422,0,0,1-1.263-4.784,30.465,30.465,0,0,1-.482-5.288.568.568,0,0,1,.2-.416,1,1,0,0,1,.506-.231,44.2,44.2,0,0,0,5.852-1.476,25.034,25.034,0,0,0,7.184-3.429.71.71,0,0,1,.427-.132.711.711,0,0,1,.427.132,25.024,25.024,0,0,0,7.184,3.429,44.206,44.206,0,0,0,5.852,1.476,1,1,0,0,1,.506.231.564.564,0,0,1,.2.416,30.369,30.369,0,0,1-.481,5.288,31.54,31.54,0,0,1-1.264,4.784,35.409,35.409,0,0,1-4,7.946,40.459,40.459,0,0,1-4.5,5.592,34.309,34.309,0,0,1-3.262,3.01A1.075,1.075,0,0,1-1270.421,1951.521Z" transform="translate(1285.525 -1918.078)" fill="#ffc23b"/>
        <path id="Trazado_2772" data-name="Trazado 2772" d="M-1270.579,1952.3a1.99,1.99,0,0,1-1.244-.417,35.1,35.1,0,0,1-3.354-3.093,41.377,41.377,0,0,1-4.606-5.721,36.366,36.366,0,0,1-4.1-8.157,32.368,32.368,0,0,1-1.3-4.927,31.477,31.477,0,0,1-.5-5.45,1.492,1.492,0,0,1,.5-1.111,1.907,1.907,0,0,1,.984-.462,43.09,43.09,0,0,0,5.715-1.443,24.138,24.138,0,0,0,6.912-3.287,1.734,1.734,0,0,1,1.978,0,24.127,24.127,0,0,0,6.912,3.287,43.068,43.068,0,0,0,5.716,1.443,1.91,1.91,0,0,1,.983.462,1.491,1.491,0,0,1,.5,1.109,31.4,31.4,0,0,1-.5,5.452,32.265,32.265,0,0,1-1.3,4.927,36.356,36.356,0,0,1-4.1,8.157,41.458,41.458,0,0,1-4.606,5.721,35.159,35.159,0,0,1-3.355,3.094A1.991,1.991,0,0,1-1270.579,1952.3Zm-.077-1.88a.989.989,0,0,0,.164-.006,33.69,33.69,0,0,0,3.161-2.921,39.554,39.554,0,0,0,4.4-5.462,34.5,34.5,0,0,0,3.892-7.736,30.52,30.52,0,0,0,1.226-4.642,29.436,29.436,0,0,0,.465-4.863,44.683,44.683,0,0,1-5.909-1.491,26.325,26.325,0,0,1-7.321-3.471,26.319,26.319,0,0,1-7.322,3.471,45.235,45.235,0,0,1-5.909,1.5,29.479,29.479,0,0,0,.465,4.859,30.462,30.462,0,0,0,1.225,4.642,34.523,34.523,0,0,0,3.892,7.736,39.563,39.563,0,0,0,4.4,5.462,33.466,33.466,0,0,0,3.172,2.928Z" transform="translate(1285.683 -1917.921)" fill="#193540"/>
      </g>
      <g id="Grupo_21118" data-name="Grupo 21118" transform="translate(9.64 6.124)">
        <g id="Grupo_21117" data-name="Grupo 21117">
          <path id="Trazado_2773" data-name="Trazado 2773" d="M-1273.315,1932.359v-1.022c0-2.99,1.953-5.161,4.643-5.161s4.644,2.171,4.644,5.161v1.029Z" transform="translate(1274.25 -1925.24)" fill="#fff"/>
          <path id="Trazado_2774" data-name="Trazado 2774" d="M-1264.187,1933.143a.935.935,0,0,1-.935-.936v-1.029c0-2.488-1.525-4.226-3.708-4.226s-3.708,1.738-3.708,4.226v1.022a.935.935,0,0,1-.935.936.936.936,0,0,1-.936-.936v-1.022c0-3.533,2.346-6.1,5.579-6.1s5.579,2.563,5.579,6.1v1.029A.936.936,0,0,1-1264.187,1933.143Z" transform="translate(1274.409 -1925.082)" fill="#193540"/>
        </g>
      </g>
      <g id="Grupo_21119" data-name="Grupo 21119" transform="translate(7.814 12.307)">
        <path id="Trazado_2775" data-name="Trazado 2775" d="M-1269.071,1945.014c-3.544-1.7-5.466-2.741-6.074-6.624-.221-1.407-.3-4.773-.307-4.983l12.66.008a36.415,36.415,0,0,1-.11,5.317c-.692,3.746-2.551,4.663-6,6.288A.363.363,0,0,1-1269.071,1945.014Z" transform="translate(1276.387 -1932.472)" fill="#fff"/>
        <path id="Trazado_2776" data-name="Trazado 2776" d="M-1269.128,1945.8a1.206,1.206,0,0,1-.5-.1l-.006,0c-3.761-1.8-5.922-3.028-6.6-7.322-.2-1.271-.281-3.964-.31-4.848l-.007-.233a.938.938,0,0,1,.256-.692.938.938,0,0,1,.677-.292h0l12.659.008a.936.936,0,0,1,.679.292.934.934,0,0,1,.255.693c0,.037.005.179.012.382a30.357,30.357,0,0,1-.137,5.055c-.786,4.263-3.066,5.337-6.517,6.963A1.1,1.1,0,0,1-1269.128,1945.8Zm-.324-1.792-.01,0Zm-5.191-9.827c.068,1.907.157,3.218.264,3.9.515,3.285,1.992,4.21,5.243,5.775,3.118-1.472,4.563-2.25,5.155-5.459a26.424,26.424,0,0,0,.119-4.211Z" transform="translate(1276.545 -1932.313)" fill="#193540"/>
      </g>
    </g>
  </g>
</svg>
