<svg xmlns="http://www.w3.org/2000/svg" xmlns:xlink="http://www.w3.org/1999/xlink" width="97" height="97" viewBox="0 0 97 97">
  <defs>
    <filter id="Base" x="0" y="0" width="97" height="97" filterUnits="userSpaceOnUse">
      <feOffset dy="3" input="SourceAlpha"/>
      <feGaussianBlur stdDeviation="3" result="blur"/>
      <feFlood flood-opacity="0.161"/>
      <feComposite operator="in" in2="blur"/>
      <feComposite in="SourceGraphic"/>
    </filter>
  </defs>
  <g id="Grupo_28534" data-name="Grupo 28534" transform="translate(-244.5 -918.001)">
    <g id="Icon" transform="translate(253.808 923.764)">
      <g transform="matrix(1, 0, 0, 1, -9.31, -5.76)" filter="url(#Base)">
        <circle id="Base-2" data-name="Base" cx="39.5" cy="39.5" r="39.5" transform="translate(9 6)" fill="#fff"/>
      </g>
    </g>
    <g id="Grupo_22885" data-name="Grupo 22885" transform="translate(275.5 936.902)">
      <path id="Trazado_5052" data-name="Trazado 5052" d="M102.853,97.23H73.364A1.735,1.735,0,0,1,71.629,95.5V57.332A1.735,1.735,0,0,1,73.364,55.6h29.49a1.735,1.735,0,0,1,1.735,1.735V95.5A1.735,1.735,0,0,1,102.853,97.23Z" transform="translate(-70.817 -49.582)" fill="#edebed"/>
      <path id="Trazado_5053" data-name="Trazado 5053" d="M79.435,94.628a5.2,5.2,0,0,1-5.2-5.2V55.6h-.867a1.735,1.735,0,0,0-1.735,1.735V95.5a1.735,1.735,0,0,0,1.735,1.735h29.49a1.735,1.735,0,0,0,1.735-1.735v-.867Z" transform="translate(-70.817 -49.582)" fill="#dbd9dc"/>
      <path id="Trazado_5054" data-name="Trazado 5054" d="M160.254,10.969h-3.56a.879.879,0,0,1-.851-.719,3.47,3.47,0,0,0-6.79,0,.879.879,0,0,1-.851.719h-3.56a.867.867,0,0,0-.867.867v1.735a.867.867,0,0,0,.867.867h15.612a.867.867,0,0,0,.867-.867V11.837A.867.867,0,0,0,160.254,10.969Z" transform="translate(-135.156 -6.689)" fill="#c9c6ca"/>
      <path id="Trazado_5055" data-name="Trazado 5055" d="M273.558,361.525h0a9.541,9.541,0,0,1-9.541-9.541v-5.2a2.6,2.6,0,0,1,2.6-2.6H280.5a2.6,2.6,0,0,1,2.6,2.6v5.2A9.541,9.541,0,0,1,273.558,361.525Z" transform="translate(-242.389 -306.938)" fill="#ffe17d"/>
      <path id="Trazado_5056" data-name="Trazado 5056" d="M295,239.968a6.939,6.939,0,0,0-6.939,6.939v4.337h3.469v-4.337a3.469,3.469,0,1,1,6.939,0v4.337h3.469v-4.337A6.939,6.939,0,0,0,295,239.968Z" transform="translate(-263.835 -214.004)" fill="#6f6571"/>
      <path id="Trazado_5057" data-name="Trazado 5057" d="M276.16,360.658a9.541,9.541,0,0,1-9.541-9.541v-6.939a2.6,2.6,0,0,0-2.6,2.6v5.2a9.527,9.527,0,0,0,13.824,8.516A9.559,9.559,0,0,1,276.16,360.658Z" transform="translate(-242.389 -306.938)" fill="#ffd164"/>
      <g id="Grupo_22884" data-name="Grupo 22884" transform="translate(24.23 34.638)">
        <rect id="Rect치ngulo_5056" data-name="Rect치ngulo 5056" width="3.469" height="2.602" fill="#5d5360"/>
        <rect id="Rect치ngulo_5057" data-name="Rect치ngulo 5057" width="3.469" height="2.602" transform="translate(10.409)" fill="#5d5360"/>
        <ellipse id="Elipse_1244" data-name="Elipse 1244" cx="1.734" cy="1.734" rx="1.734" ry="1.734" transform="translate(5.204 7.807)" fill="#5d5360"/>
      </g>
      <path id="Trazado_5058" data-name="Trazado 5058" d="M274.619,243.841v-3.624a7.75,7.75,0,1,0-15.5,0v3.624a3.419,3.419,0,0,0-2.6,3.315.811.811,0,1,0,1.623,0,1.792,1.792,0,0,1,1.79-1.79h13.877a1.792,1.792,0,0,1,1.79,1.79v5.2a8.729,8.729,0,1,1-17.459,0v-1.735a.812.812,0,1,0-1.623,0v1.735a10.352,10.352,0,1,0,20.7,0v-5.2A3.419,3.419,0,0,0,274.619,243.841Zm-7.75-9.751A6.134,6.134,0,0,1,273,240.217v3.525h-1.846v-3.525a4.281,4.281,0,0,0-8.562,0v3.525h-1.846v-3.525A6.134,6.134,0,0,1,266.868,234.09Zm2.658,9.652H264.21v-3.525a2.658,2.658,0,0,1,5.316,0Z" transform="translate(-235.699 -207.314)"/>
      <path id="Trazado_5059" data-name="Trazado 5059" d="M331.207,392.468a.812.812,0,0,0,.812-.812v-1.924a2.546,2.546,0,1,0-1.623,0v1.924A.811.811,0,0,0,331.207,392.468Zm0-6.071a.923.923,0,1,1-.923.923A.924.924,0,0,1,331.207,386.4Z" transform="translate(-300.038 -343.141)"/>
      <path id="Trazado_5060" data-name="Trazado 5060" d="M82.287,46.837H66.675a.924.924,0,0,1-.923-.923V7.75a.924.924,0,0,1,.923-.923h5.26v.056a1.681,1.681,0,0,0,1.679,1.679H89.226A1.681,1.681,0,0,0,90.9,6.883V6.827h5.26a.924.924,0,0,1,.923.923V22.929a.811.811,0,1,0,1.623,0V7.75A2.549,2.549,0,0,0,96.165,5.2H90.9V5.148a1.681,1.681,0,0,0-1.679-1.679h-3.6a4.281,4.281,0,0,0-8.407,0h-3.6a1.681,1.681,0,0,0-1.679,1.679V5.2h-5.26A2.549,2.549,0,0,0,64.129,7.75V45.914a2.549,2.549,0,0,0,2.546,2.546H82.287a.811.811,0,1,0,0-1.623ZM73.614,5.092h4.337a.812.812,0,0,0,.812-.812,2.658,2.658,0,1,1,5.316,0,.812.812,0,0,0,.811.812h4.337a.056.056,0,0,1,.056.056V6.883a.056.056,0,0,1-.056.056H73.614a.056.056,0,0,1-.056-.056V5.148A.056.056,0,0,1,73.614,5.092Z" transform="translate(-64.129 0)"/>
      <path id="Trazado_5061" data-name="Trazado 5061" d="M217.292,33.687a.812.812,0,0,0,0-1.623h-.009a.812.812,0,0,0,.009,1.623Z" transform="translate(-199.992 -28.595)"/>
      <path id="Trazado_5062" data-name="Trazado 5062" d="M221.318,149.11a.812.812,0,0,0-.811-.812H209.231a.812.812,0,0,0,0,1.623h11.275A.812.812,0,0,0,221.318,149.11Z" transform="translate(-192.807 -132.252)"/>
      <path id="Trazado_5063" data-name="Trazado 5063" d="M131.274,128.5a.811.811,0,0,0-1.148,0l-2.9,2.9-1.595-1.595a.811.811,0,1,0-1.148,1.148l2.168,2.168a.811.811,0,0,0,1.148,0l3.469-3.469A.812.812,0,0,0,131.274,128.5Z" transform="translate(-117.746 -114.381)"/>
      <path id="Trazado_5064" data-name="Trazado 5064" d="M209.231,244.492a.812.812,0,0,0,0,1.623h5.2a.812.812,0,0,0,0-1.623Z" transform="translate(-192.807 -218.038)"/>
      <path id="Trazado_5065" data-name="Trazado 5065" d="M131.274,224.689a.811.811,0,0,0-1.148,0l-2.9,2.9-1.595-1.595a.811.811,0,1,0-1.148,1.148l2.168,2.168a.811.811,0,0,0,1.148,0l3.469-3.469A.812.812,0,0,0,131.274,224.689Z" transform="translate(-117.746 -200.166)"/>
      <path id="Trazado_5066" data-name="Trazado 5066" d="M210.966,340.686h-1.735a.812.812,0,1,0,0,1.623h1.735a.812.812,0,0,0,0-1.623Z" transform="translate(-192.807 -303.824)"/>
      <path id="Trazado_5067" data-name="Trazado 5067" d="M130.127,320.883l-2.9,2.9-1.595-1.595a.811.811,0,1,0-1.148,1.148l2.168,2.168a.811.811,0,0,0,1.148,0l3.469-3.469a.811.811,0,1,0-1.148-1.148Z" transform="translate(-117.746 -285.952)"/>
    </g>
  </g>
</svg>
