<svg xmlns="http://www.w3.org/2000/svg" xmlns:xlink="http://www.w3.org/1999/xlink" width="98" height="97" viewBox="0 0 98 97">
  <defs>
    <filter id="Base" x="0" y="0" width="98" height="97" filterUnits="userSpaceOnUse">
      <feOffset dy="3" input="SourceAlpha"/>
      <feGaussianBlur stdDeviation="3" result="blur"/>
      <feFlood flood-opacity="0.161"/>
      <feComposite operator="in" in2="blur"/>
      <feComposite in="SourceGraphic"/>
    </filter>
  </defs>
  <g id="Grupo_28537" data-name="Grupo 28537" transform="translate(-1024.499 -918.001)">
    <g id="Icon" transform="translate(1033.995 923.764)">
      <g transform="matrix(1, 0, 0, 1, -9.5, -5.76)" filter="url(#Base)">
        <ellipse id="Base-2" data-name="Base" cx="40" cy="39.5" rx="40" ry="39.5" transform="translate(9 6)" fill="#fff"/>
      </g>
    </g>
    <g id="Grupo_22891" data-name="Grupo 22891" transform="translate(1048.767 942.15)">
      <path id="Trazado_5092" data-name="Trazado 5092" d="M176.414,321.252l-7.68,2.793a.794.794,0,0,0-.523.82,19.935,19.935,0,0,0,8.292,14.265.815.815,0,0,0,.916,0,19.936,19.936,0,0,0,8.292-14.265.794.794,0,0,0-.523-.82l-7.68-2.793A1.6,1.6,0,0,0,176.414,321.252Z" transform="translate(-151.436 -289.135)" fill="#ffe17d"/>
      <path id="Trazado_5093" data-name="Trazado 5093" d="M171.575,339.775l-2.839,1.033a.794.794,0,0,0-.523.82,19.936,19.936,0,0,0,8.292,14.265.815.815,0,0,0,.916,0c.325-.224.625-.459.924-.695C173.428,350,171.99,343.141,171.575,339.775Z" transform="translate(-151.437 -305.898)" fill="#ffd164"/>
      <path id="Trazado_5094" data-name="Trazado 5094" d="M25.084,20.288H9.1a1.6,1.6,0,0,1-1.6-1.6V9.1A1.6,1.6,0,0,1,9.1,7.5H25.084a1.6,1.6,0,0,1,1.6,1.6V18.69A1.6,1.6,0,0,1,25.084,20.288Z" transform="translate(-6.752 -6.752)" fill="#dbd9dc"/>
      <path id="Trazado_5095" data-name="Trazado 5095" d="M77.224,135.758h-4.8l-.8,3.2h6.394Z" transform="translate(-64.487 -122.222)" fill="#c9c6ca"/>
      <path id="Trazado_5096" data-name="Trazado 5096" d="M342.531,7.5H329.743a1.6,1.6,0,0,0-1.6,1.6v11.19H344.13V9.1A1.6,1.6,0,0,0,342.531,7.5Z" transform="translate(-295.427 -6.752)" fill="#edebed"/>
      <path id="Trazado_5097" data-name="Trazado 5097" d="M312.113,119.726v1.6a1.6,1.6,0,0,0,1.6,1.6H329.7a1.6,1.6,0,0,0,1.6-1.6v-1.6Z" transform="translate(-280.994 -107.789)" fill="#dbd9dc"/>
      <path id="Trazado_5098" data-name="Trazado 5098" d="M25.084,7.5H9.1A1.6,1.6,0,0,0,7.5,9.1v7.993H26.682V9.1A1.6,1.6,0,0,0,25.084,7.5Z" transform="translate(-6.752 -6.752)" fill="#a5cdff"/>
      <g id="Grupo_22890" data-name="Grupo 22890" transform="translate(0.748 0.748)">
        <path id="Trazado_5099" data-name="Trazado 5099" d="M9.9,11.5v-4H9.1A1.6,1.6,0,0,0,7.5,9.1v7.993H26.682v-2.4H13.095A3.2,3.2,0,0,1,9.9,11.5Z" transform="translate(-7.5 -7.5)" fill="#8cb4eb"/>
        <rect id="Rectángulo_5058" data-name="Rectángulo 5058" width="15.985" height="7.992" transform="translate(31.97 3.197)" fill="#8cb4eb"/>
      </g>
      <path id="Trazado_5100" data-name="Trazado 5100" d="M365.781,45.16H354.592a2.4,2.4,0,0,1-2.4-2.4v-3.2h13.587V45.16Z" transform="translate(-317.079 -35.62)" fill="#a5cdff"/>
      <path id="Trazado_5101" data-name="Trazado 5101" d="M216.975,385.155a.745.745,0,0,0,.529-.219l4.4-4.4a.748.748,0,0,0-1.057-1.057l-3.867,3.867-2.269-2.269a.748.748,0,0,0-1.057,1.057l2.8,2.8A.745.745,0,0,0,216.975,385.155Z" transform="translate(-192.15 -341.449)"/>
      <path id="Trazado_5102" data-name="Trazado 5102" d="M50.3,11.19h-.851V2.346A2.349,2.349,0,0,0,47.1,0H34.316A2.349,2.349,0,0,0,31.97,2.346V11.19h-.851a.748.748,0,0,0-.748.748v1.6a2.349,2.349,0,0,0,2.346,2.346h7.245v7.245a.852.852,0,0,1-.851.851H11.937a.852.852,0,0,1-.851-.851V17.481h3.248a.748.748,0,0,0,0-1.5H14.12l-.425-1.7h4.637a2.349,2.349,0,0,0,2.346-2.346V2.346A2.349,2.349,0,0,0,18.331,0H2.346A2.349,2.349,0,0,0,0,2.346v9.591a2.349,2.349,0,0,0,2.346,2.346H6.983l-.425,1.7H6.342a.748.748,0,0,0,0,1.5H9.591v5.646a2.349,2.349,0,0,0,2.346,2.346h12.84v5.922l-5.1,1.856a.748.748,0,0,0,.511,1.405l5.34-1.942,8.007,2.912A19.274,19.274,0,0,1,25.524,49.4a18.287,18.287,0,0,1-6.9-8.994A18.5,18.5,0,0,1,17.481,35.1a.748.748,0,0,0-1.5.031A19.588,19.588,0,0,0,17.2,40.866a20.071,20.071,0,0,0,7.915,10.063.748.748,0,0,0,.816,0,20.071,20.071,0,0,0,7.915-10.063,19.588,19.588,0,0,0,1.216-5.735.748.748,0,0,0-.492-.718l-8.3-3.018V25.473H39.112a2.349,2.349,0,0,0,2.346-2.346V15.882H48.7a2.349,2.349,0,0,0,2.346-2.346v-1.6A.748.748,0,0,0,50.3,11.19ZM1.5,11.937v-.851h.851a.748.748,0,0,0,0-1.5H1.5V2.346A.852.852,0,0,1,2.346,1.5H18.331a.852.852,0,0,1,.851.851V9.591H5.543a.748.748,0,0,0,0,1.5H19.182v.851a.852.852,0,0,1-.851.851H2.346A.852.852,0,0,1,1.5,11.937Zm7.029,2.346h3.628l.425,1.7H8.1ZM34.316,1.5H47.1a.852.852,0,0,1,.851.851V3.2H33.466V2.346A.852.852,0,0,1,34.316,1.5Zm15.237,12.04a.852.852,0,0,1-.851.851H32.718a.852.852,0,0,1-.851-.851v-.851h2.449a.748.748,0,0,0,0-1.5h-.851v-6.5H47.955v6.5H37.513a.748.748,0,0,0,0,1.5h12.04Z" transform="translate(0 0)"/>
    </g>
  </g>
</svg>
