<svg id="Grupo_24005" data-name="Grupo 24005" xmlns="http://www.w3.org/2000/svg" xmlns:xlink="http://www.w3.org/1999/xlink" width="47.243" height="47.468" viewBox="0 0 47.243 47.468">
  <defs>
    <clipPath id="clip-path">
      <rect id="SVGID" width="47.243" height="47.468" fill="none"/>
    </clipPath>
  </defs>
  <path id="Trazado_12562" data-name="Trazado 12562" d="M-3478.823,2054.731v-3.841l-2.808-.37a11.123,11.123,0,0,0-1.035-2.586l1.773-2.217-2.807-2.586-2.217,1.774a9.921,9.921,0,0,0-2.585-1.035l-.37-2.807h-3.841l-.222,2.733a11.141,11.141,0,0,0-2.585,1.035l-2.217-1.773-2.659,2.659,1.772,2.217a9.964,9.964,0,0,0-1.034,2.586l-2.808.37v3.841l2.808.37a11.1,11.1,0,0,0,1.034,2.585l-1.772,2.217,2.659,2.66,2.217-1.774a9.932,9.932,0,0,0,2.585,1.035l.369,2.808h3.842l.37-2.808a11.1,11.1,0,0,0,2.586-1.035l2.216,1.774,2.66-2.66-1.773-2.217a9.959,9.959,0,0,0,1.035-2.585Zm0,0" transform="translate(3507.747 -2018.273)" fill="#fff"/>
  <path id="Trazado_12563" data-name="Trazado 12563" d="M-3489.046,2065.2h-3.841a.785.785,0,0,1-.739-.665l-.3-2.364a13.758,13.758,0,0,1-1.847-.739l-1.846,1.478a.69.69,0,0,1-.96-.074l-2.66-2.659a.7.7,0,0,1-.074-.96l1.477-1.847a8.059,8.059,0,0,1-.738-1.847l-2.365-.3a.786.786,0,0,1-.664-.739v-3.841a.786.786,0,0,1,.664-.739l2.365-.3a13.871,13.871,0,0,1,.738-1.847l-1.477-1.846a.69.69,0,0,1,.074-.96l2.66-2.66a.7.7,0,0,1,.96-.074l1.846,1.478a8.015,8.015,0,0,1,1.847-.739l.3-2.365a.785.785,0,0,1,.739-.665h3.841a.787.787,0,0,1,.739.665l.3,2.365a13.63,13.63,0,0,1,1.847.739l1.847-1.478a.691.691,0,0,1,.96.074l2.659,2.66a.7.7,0,0,1,.074.96l-1.478,1.846a8.071,8.071,0,0,1,.739,1.847l2.364.3a.786.786,0,0,1,.665.739v3.841a.786.786,0,0,1-.665.739l-2.364.3a13.749,13.749,0,0,1-.739,1.847l1.478,1.847a.69.69,0,0,1-.074.96l-2.659,2.659a.7.7,0,0,1-.96.074l-1.847-1.478a8.037,8.037,0,0,1-1.847.739l-.3,2.364a.786.786,0,0,1-.739.665Zm-3.176-1.478h2.512l.3-2.143a.7.7,0,0,1,.591-.591,9.354,9.354,0,0,0,2.365-.96.661.661,0,0,1,.813.073l1.7,1.33,1.772-1.773-1.329-1.7a.671.671,0,0,1-.074-.812,9.369,9.369,0,0,0,.961-2.365.8.8,0,0,1,.591-.591l2.143-.3v-2.512l-2.143-.3c-.3,0-.517-.222-.591-.592a9.37,9.37,0,0,0-.961-2.364.662.662,0,0,1,.074-.813l1.329-1.7-1.772-1.773-1.7,1.33a.672.672,0,0,1-.812.073,9.363,9.363,0,0,0-2.365-.96.8.8,0,0,1-.591-.591l-.3-2.143h-2.512l-.3,2.143a.7.7,0,0,1-.591.591,9.378,9.378,0,0,0-2.365.96.662.662,0,0,1-.812-.073l-1.7-1.33-1.773,1.773,1.329,1.7a.672.672,0,0,1,.074.813,9.368,9.368,0,0,0-.96,2.364.8.8,0,0,1-.592.592l-2.142.3v2.512l2.142.3a.7.7,0,0,1,.592.591,9.367,9.367,0,0,0,.96,2.365.662.662,0,0,1-.074.813l-1.329,1.7,1.773,1.773,1.7-1.33a.67.67,0,0,1,.812-.073,9.368,9.368,0,0,0,2.365.96.8.8,0,0,1,.591.591Zm0,0" transform="translate(3507.995 -2018.025)" fill="#193540"/>
  <path id="Trazado_12564" data-name="Trazado 12564" d="M-3482.643,2054.237a6.649,6.649,0,0,1-6.649,6.649,6.649,6.649,0,0,1-6.649-6.649,6.649,6.649,0,0,1,6.649-6.649,6.649,6.649,0,0,1,6.649,6.649Zm0,0" transform="translate(3506.321 -2019.699)" fill="#907789"/>
  <path id="Trazado_12565" data-name="Trazado 12565" d="M-3485.516,2055.353a2.66,2.66,0,0,1-2.66,2.66,2.66,2.66,0,0,1-2.659-2.66,2.66,2.66,0,0,1,2.659-2.66,2.66,2.66,0,0,1,2.66,2.66Zm0,0" transform="translate(3505.205 -2020.815)" fill="#fff"/>
  <path id="Trazado_12566" data-name="Trazado 12566" d="M-3488.382,2058.545a3.438,3.438,0,0,1-3.4-3.4,3.437,3.437,0,0,1,3.4-3.4,3.438,3.438,0,0,1,3.4,3.4,3.39,3.39,0,0,1-3.4,3.4Zm0-5.246a1.956,1.956,0,0,0-1.921,1.921,1.956,1.956,0,0,0,1.921,1.921,1.955,1.955,0,0,0,1.92-1.921,1.907,1.907,0,0,0-1.92-1.921Zm0,0" transform="translate(3505.412 -2020.609)" fill="#193540"/>
  <path id="Trazado_12567" data-name="Trazado 12567" d="M-3476.724,2028.122A16.18,16.18,0,0,1-3492.9,2044.3a16.18,16.18,0,0,1-16.18-16.179,16.18,16.18,0,0,1,16.18-16.18,16.18,16.18,0,0,1,16.179,16.18Zm0,0" transform="translate(3509.194 -2011.907)" fill="#ffc23b"/>
  <path id="Trazado_12568" data-name="Trazado 12568" d="M-3478.853,2028.949a13.224,13.224,0,0,1-13.224,13.224,13.225,13.225,0,0,1-13.225-13.224,13.225,13.225,0,0,1,13.225-13.225,13.225,13.225,0,0,1,13.224,13.225Zm0,0" transform="translate(3508.368 -2012.733)" fill="#9b235c"/>
  <path id="Trazado_12569" data-name="Trazado 12569" d="M-3492.283,2042.706a13.952,13.952,0,0,1-13.964-13.963,13.952,13.952,0,0,1,13.964-13.963,13.951,13.951,0,0,1,13.962,13.963,14,14,0,0,1-13.962,13.963Zm0-26.449a12.518,12.518,0,0,0-12.486,12.486,12.517,12.517,0,0,0,12.486,12.485,12.517,12.517,0,0,0,12.486-12.485,12.518,12.518,0,0,0-12.486-12.486Zm0,0" transform="translate(3508.574 -2012.527)" fill="#193540"/>
  <path id="Trazado_12570" data-name="Trazado 12570" d="M-3491.209,2039.918a10.137,10.137,0,0,1-10.122-10.121,10.2,10.2,0,0,1,10.122-10.2,10.137,10.137,0,0,1,10.121,10.121,10.249,10.249,0,0,1-10.121,10.2Zm0,0" transform="translate(3507.5 -2013.581)" fill="#fff"/>
  <rect id="Rectángulo_5193" data-name="Rectángulo 5193" width="1.477" height="1.552" transform="translate(7.203 15.403)" fill="#193540"/>
  <rect id="Rectángulo_5194" data-name="Rectángulo 5194" width="1.477" height="1.552" transform="translate(23.826 15.403)" fill="#193540"/>
  <path id="Trazado_12571" data-name="Trazado 12571" d="M-3496.159,2040.915l-1.1-1.1,1.046-1.045,1.1,1.1Zm0,0" transform="translate(3506.609 -2017.772)" fill="#193540"/>
  <path id="Trazado_12572" data-name="Trazado 12572" d="M-3481.121,2025.883l-1.1-1.1,1.045-1.045,1.1,1.1Zm0,0" transform="translate(3503.321 -2014.486)" fill="#193540"/>
  <rect id="Rectángulo_5195" data-name="Rectángulo 5195" width="1.551" height="1.478" transform="translate(15.478 23.751)" fill="#193540"/>
  <rect id="Rectángulo_5196" data-name="Rectángulo 5196" width="1.551" height="1.478" transform="translate(15.478 7.128)" fill="#193540"/>
  <path id="Trazado_12573" data-name="Trazado 12573" d="M-3481.243,2040.915l-1.045-1.045,1.1-1.1,1.045,1.045Zm0,0" transform="translate(3503.336 -2017.772)" fill="#193540"/>
  <path id="Trazado_12574" data-name="Trazado 12574" d="M-3496.278,2025.886l-1.045-1.045,1.1-1.1,1.045,1.046Zm0,0" transform="translate(3506.623 -2014.486)" fill="#193540"/>
  <path id="Trazado_12575" data-name="Trazado 12575" d="M-3484.89,2031.734h-4.433v-6.649h1.478v5.172h2.955Zm0,0" transform="translate(3504.874 -2014.78)" fill="#193540"/>
  <g id="Grupo_24004" data-name="Grupo 24004" transform="translate(0 0)">
    <g id="Grupo_24003" data-name="Grupo 24003" clip-path="url(#clip-path)">
      <path id="Trazado_12576" data-name="Trazado 12576" d="M-3458.075,2046.135v-20.687a7.127,7.127,0,0,0,4.358-6.575,7.076,7.076,0,0,0-3.324-5.985v5.837l-3.842,2.807-3.841-2.807v-5.837a7.076,7.076,0,0,0-3.325,5.985,7.126,7.126,0,0,0,4.359,6.575v20.761a7.127,7.127,0,0,0-4.359,6.575,7.075,7.075,0,0,0,3.325,5.984v-5.836l3.841-2.807,3.842,2.807v5.836a7.076,7.076,0,0,0,3.324-5.984,7.152,7.152,0,0,0-4.358-6.649Zm0,0" transform="translate(3500.224 -2012.113)" fill="#e0e4e8"/>
      <path id="Trazado_12577" data-name="Trazado 12577" d="M-3457.5,2059.142a.777.777,0,0,1-.37-.665v-5.467l-3.1-2.216-3.1,2.216v5.467a.777.777,0,0,1-.37.665.674.674,0,0,1-.739,0,7.772,7.772,0,0,1-3.621-6.575,7.8,7.8,0,0,1,4.359-7.019v-19.874a7.8,7.8,0,0,1-4.359-7.018,7.68,7.68,0,0,1,3.621-6.576.674.674,0,0,1,.739,0,.779.779,0,0,1,.37.666v5.467l3.1,2.216,3.1-2.216v-5.541a.776.776,0,0,1,.37-.665.674.674,0,0,1,.739,0,7.772,7.772,0,0,1,3.62,6.575,7.8,7.8,0,0,1-4.359,7.018v19.8a7.8,7.8,0,0,1,4.359,7.019,7.68,7.68,0,0,1-3.62,6.575.589.589,0,0,1-.739.148Zm-3.472-10.048a1.056,1.056,0,0,1,.443.148l3.841,2.807a.671.671,0,0,1,.3.591v4.285a6.2,6.2,0,0,0,1.847-4.433,6.456,6.456,0,0,0-3.917-5.911.709.709,0,0,1-.443-.664V2025.23a.647.647,0,0,1,.443-.665,6.352,6.352,0,0,0,3.917-5.836,6.2,6.2,0,0,0-1.847-4.433v4.285a.914.914,0,0,1-.3.592l-3.841,2.733a.674.674,0,0,1-.887,0l-3.841-2.807a.672.672,0,0,1-.3-.591v-4.286a6.206,6.206,0,0,0-1.846,4.434,6.278,6.278,0,0,0,3.916,5.836.709.709,0,0,1,.443.665v20.761a.646.646,0,0,1-.443.665,6.353,6.353,0,0,0-3.916,5.836,6.2,6.2,0,0,0,1.846,4.433v-4.285a.912.912,0,0,1,.3-.591l3.841-2.807c.149,0,.3-.074.444-.074Zm0,0" transform="translate(3500.389 -2011.896)" fill="#193540"/>
    </g>
  </g>
</svg>
