<svg xmlns="http://www.w3.org/2000/svg" width="56.895" height="49.999" viewBox="0 0 56.895 49.999">
  <g id="Grupo_94853" data-name="Grupo 94853" transform="translate(-227.553 -231.001)">
    <path id="Trazado_151908" data-name="Trazado 151908" d="M266.6,231.488l-5.29,5.291h-3.533a1.667,1.667,0,0,0-1.667,1.666V251h-5a1.667,1.667,0,0,0-1.667,1.667v5h-6.2l-6.179-6.179a1.668,1.668,0,0,0-2.358,0l-6.667,6.667a1.666,1.666,0,0,0,0,2.357l6.179,6.18v12.638A1.667,1.667,0,0,0,235.887,281h21.891a1.667,1.667,0,0,0,1.667-1.667V267.671h5A1.666,1.666,0,0,0,266.112,266v-5h5v1.666a5.006,5.006,0,0,0,5,5h3.334a5.006,5.006,0,0,0,5-5V256a5.007,5.007,0,0,0-5-5V238.446a1.667,1.667,0,0,0-1.667-1.667h-3.532l-5.29-5.29A1.667,1.667,0,0,0,266.6,231.488Zm-35.024,27.849,4.31-4.31,4.31,4.31-4.31,4.31Zm24.534,18.33H237.554V266.7L243.245,261h6.2v5a1.667,1.667,0,0,0,1.667,1.667h5Zm-3.333-13.33v-10h10v10Zm26.669-10A1.669,1.669,0,0,1,281.114,256v6.667a1.669,1.669,0,0,1-1.667,1.667h-3.334a1.668,1.668,0,0,1-1.666-1.667V256a1.668,1.668,0,0,1,1.666-1.667ZM276.113,251a5.006,5.006,0,0,0-5,5v1.667h-5v-5A1.666,1.666,0,0,0,264.446,251h-5V240.112h1.865L266.6,245.4a1.666,1.666,0,0,0,2.357,0l5.29-5.291h1.865ZM271.2,238.446l-3.421,3.421-3.421-3.422,3.421-3.421Z" fill="#8ad24a"/>
  </g>
</svg>
