<svg xmlns="http://www.w3.org/2000/svg" width="70" height="70" viewBox="0 0 70 70">
  <g id="Grupo_95505" data-name="Grupo 95505" transform="translate(-221.001 -221.002)">
    <g id="Grupo_95506" data-name="Grupo 95506">
      <g id="Grupo_95505-2" data-name="Grupo 95505">
        <path id="Trazado_152249" data-name="Trazado 152249" d="M285.385,236.97a34.984,34.984,0,0,0-56.53-3.028,1.128,1.128,0,0,0-.285.362,34.881,34.881,0,0,0-4.5,36.011,1.145,1.145,0,0,0,.06.134,34.98,34.98,0,0,0,63.733,0,1.154,1.154,0,0,0,.061-.134A34.976,34.976,0,0,0,285.385,236.97Zm-42.72-10.777a7.568,7.568,0,1,1-11.7,8.856A32.839,32.839,0,0,1,242.665,226.193ZM256,288.669a32.694,32.694,0,0,1-28.925-17.512,7.663,7.663,0,0,0,5.532-2.312.827.827,0,0,1,.1-.018,8.339,8.339,0,0,0,11.57.018.789.789,0,0,1,.1-.018,8.338,8.338,0,0,0,11.569.018.8.8,0,0,1,.1-.018,8.338,8.338,0,0,0,11.569.018.826.826,0,0,1,.1-.018,8.34,8.34,0,0,0,11.57.018.79.79,0,0,1,.1-.018,7.694,7.694,0,0,0,5.553,2.33A32.691,32.691,0,0,1,256,288.669Zm30.066-19.9a6.766,6.766,0,0,1-.9.064,5.5,5.5,0,0,1-4.047-1.554,2.518,2.518,0,0,0-3.572,0,6.048,6.048,0,0,1-8.1,0,2.518,2.518,0,0,0-3.572,0,6.048,6.048,0,0,1-8.1,0,2.518,2.518,0,0,0-3.572,0,6.047,6.047,0,0,1-8.094,0,2.518,2.518,0,0,0-3.572,0,6.048,6.048,0,0,1-8.1,0,2.518,2.518,0,0,0-3.572,0,5.5,5.5,0,0,1-4.047,1.554,6.939,6.939,0,0,1-.9-.064,32.6,32.6,0,0,1,3.453-31.677,9.9,9.9,0,1,0,15.667-11.866,32.661,32.661,0,0,1,41.013,43.543Z" fill="#8ad24a"/>
        <path id="Trazado_152250" data-name="Trazado 152250" d="M248.976,251.335a6.417,6.417,0,0,0-12.793.144,4.667,4.667,0,0,0,1.152,9.189H249a4.667,4.667,0,0,0-.026-9.333Zm.026,7H237.335a2.334,2.334,0,1,1,.035-4.667,1.165,1.165,0,0,0,1.157-1.314,3.532,3.532,0,0,1-.025-.436,4.083,4.083,0,0,1,8.166,0,3.443,3.443,0,0,1-.053.617,1.167,1.167,0,0,0,1.578,1.286,2.176,2.176,0,0,1,.809-.152,2.333,2.333,0,1,1,0,4.666Z" fill="#8ad24a"/>
        <path id="Trazado_152251" data-name="Trazado 152251" d="M280.487,243.318a6.417,6.417,0,0,0-12.792-.149h-.027a4.666,4.666,0,0,0,0,9.333h11.667a4.664,4.664,0,0,0,1.152-9.184Zm-1.152,6.851H267.668a2.334,2.334,0,0,1,0-4.667,2.2,2.2,0,0,1,.809.152,1.167,1.167,0,0,0,1.578-1.285,3.547,3.547,0,0,1-.053-.617,4.083,4.083,0,1,1,8.166,0,3.561,3.561,0,0,1-.025.438,1.177,1.177,0,0,0,.3.917,1.206,1.206,0,0,0,.892.4,2.334,2.334,0,0,1,0,4.667Z" fill="#8ad24a"/>
      </g>
    </g>
  </g>
</svg>
