<svg xmlns="http://www.w3.org/2000/svg" width="228.855" height="207.236" viewBox="0 0 228.855 207.236">
  <g id="Grupo_94436" data-name="Grupo 94436" transform="translate(-163.802 -172.579)">
    <g id="Grupo_94635" data-name="Grupo 94635" transform="translate(174.371 172.579)">
      <path id="Trazado_151450" data-name="Trazado 151450" d="M191.689,210.26c-.576-11.629,4.6-25.934,17.966-26.394,24.236-.833,37.515,27.869,59.316,33.185,14.964,3.649,24.223-6.915,35.258-14.7,11.916-8.412,24.621-19.853,40.586-16.264,10.311,2.318,16.151,12.822,17.039,22.5.951,10.369-4.037,18.7-3.183,28.651.906,10.552,12.067,15.1,17.582,23.807,6.813,10.754,9.117,23.166,5.812,35.5-3.187,11.893-12.179,23.654-23.777,28.286-15.715,6.276-27.428-3.179-42.034-7.411-20.858-6.043-30.773,5.066-45.316,17.569-9,7.734-20.378,14.581-32.879,12.693-17.529-2.648-22.977-26.421-23.121-41.12-.091-9.371,4.118-20.232-2.788-27.426-6.608-6.882-13.063-5.938-22.047-6.491-7.147-.438-15.55-3.133-17.952-10.554-1.118-3.451-1.015-7.974,1.176-10.992,5.445-7.494,18.234-7.664,20.109-17C195.017,226.218,192.077,218.094,191.689,210.26Z" transform="translate(-171.452 -168.278)" fill="#bbe7f2"/>
      <path id="Trazado_151451" data-name="Trazado 151451" d="M243.221,189.951c3.346-13.592-27.437-24.7-28.364-11.35-.495,7.122,9.982,15.834,16.326,17.014C237.025,196.7,241.744,195.947,243.221,189.951Z" transform="translate(-154.896 -172.579)" fill="#bbe7f2"/>
    </g>
    <g id="Grupo_94702" data-name="Grupo 94702" transform="translate(163.802 173.879)">
      <g id="Grupo_94657" data-name="Grupo 94657">
        <g id="Grupo_94637" data-name="Grupo 94637" transform="translate(8.893 116.397)">
          <g id="Grupo_94636" data-name="Grupo 94636">
            <path id="Trazado_151452" data-name="Trazado 151452" d="M237.066,296.805c-2.4-5.532-3.425-11.484-6.688-16.571a19.074,19.074,0,0,0-4.41-5.159c-2.342-1.8-4.934-1.511-7.513-2.6-4.73-1.988-7.378-7.407-11.89-10.085a21.093,21.093,0,0,0-14.985-2.455c-4.733.977-7.983,1.536-12.545-.438-3.486-1.509-10.762-3.989-8.3,2.642,1.453,3.907,6.286,5.794,8.649,9.4,2.531,3.864,3.162,9.525,6.585,12.8,3.244,3.1,7.637-.332,11.124,2.549,3.613,2.987,4.714,7.081,9.2,9.536,4.849,2.651,10.583,3.473,16,3.783,3.85.22,11.274.619,15.656-1.08C237.69,298.351,237.4,297.577,237.066,296.805Z" transform="translate(-170.239 -257.77)" fill="#3b8b58"/>
          </g>
        </g>
        <path id="Trazado_151453" data-name="Trazado 151453" d="M191.915,273.32c11.67,12.383,25.576,20.869,41,23.705-.093-.232-.182-.466-.283-.7-2.4-5.532-3.425-11.484-6.688-16.571a19.074,19.074,0,0,0-4.41-5.159c-2.342-1.8-4.934-1.511-7.513-2.6-4.73-1.988-7.378-7.407-11.89-10.085a21.093,21.093,0,0,0-14.985-2.455,40.593,40.593,0,0,1-5.275.843A105.75,105.75,0,0,0,191.915,273.32Z" transform="translate(-156.908 -140.895)" fill="#307147"/>
        <g id="Grupo_94639" data-name="Grupo 94639" transform="translate(171.684)">
          <g id="Grupo_94638" data-name="Grupo 94638">
            <path id="Trazado_151454" data-name="Trazado 151454" d="M312.568,228.309c-3.768-.761,3.8-7.11,4.888-8.165,2.784-2.713,8.082-7.365,7.437-11.815-.64-4.4-5.345-1.18-7.961-1.865.508-3.091,4.812-6.09,6.717-8.4a14.216,14.216,0,0,0,3.39-6.007c1.009-4.891-2.186-5.808-5.873-3.625a4.445,4.445,0,0,1-.267-2.894c.253-2.549,2.307-11.3-2.025-12-2.288-.37-4.211,4.366-4.929,5.913-.8,1.73-1.855,6.322-3.44,7.39-1.719,1.158-1.746-1.782-3.624-1.565-2.031.235-2.519,4.424-2.784,6.008a31.5,31.5,0,0,0,.177,8.53c.171,1.589.854,3.7-.088,5.138-1.051-.818-2.118-2.148-3.278-2.875-2.829-1.771-3.41,1.321-3.982,3.741-.968,4.088-.308,8.526-.292,12.7.006,1.513.627,5.352-.428,6.368-2.466-1.867-6.372-5.718-7.64-.354a27.331,27.331,0,0,0,.2,11.2,143.924,143.924,0,0,0,4.52,15.946q.528-.371,1.042-.743c2.983-2.165,6.227-3.781,9.291-5.854,4.228-2.857,8.928-6.667,11.533-11.086.656-1.112,2.488-4.673,1.732-5.9C315.854,226.423,313.711,228.541,312.568,228.309Z" transform="translate(-288.069 -173.52)" fill="#3b8b58"/>
          </g>
        </g>
        <path id="Trazado_151455" data-name="Trazado 151455" d="M315.64,213.2c-1.028-1.67-3.171.448-4.313.216a2.088,2.088,0,0,1-.42-.133A87.289,87.289,0,0,0,293.955,230.7q-1.391,1.979-2.632,4.013c.236.713.477,1.406.718,2.068q.529-.371,1.042-.743c2.983-2.165,6.227-3.781,9.291-5.854,4.228-2.857,8.928-6.667,11.533-11.086C314.564,217.991,316.4,214.431,315.64,213.2Z" transform="translate(-115.143 -158.626)" fill="#307147"/>
        <g id="Grupo_94642" data-name="Grupo 94642" transform="translate(21.733 7.123)">
          <g id="Grupo_94641" data-name="Grupo 94641">
            <g id="Grupo_94640" data-name="Grupo 94640">
              <path id="Trazado_151456" data-name="Trazado 151456" d="M224.935,270.828c1.721-6.195,3.9-12.611,4.923-18.908.832-5.126-1.2-10.612-3.74-14.953-2.092-3.57-6.5-5.984-8.475-9.6-2.531-4.634-1.1-10.986-2.639-16.037-1.673-5.506-4.97-9.153-9.362-12.637-3.863-3.066-6.721-4.168-9.091-8.643-2.146-4.049-4.446-8.976-9.03-10.82-10.645-4.281-2.766,17.76-2.356,21.827.471,4.657-1.405,7.554-3.48,11.456-3.052,5.735-3.089,11.239,1.375,16.49,3.9,4.583,7.839,5.868,6.872,12.575-.7,4.848-1.448,10.208.022,15.074,1.706,5.649,4.906,10.939,9.938,13.857a66.514,66.514,0,0,0,6.962,3.446c1.929.83,9.5,2.086,15.6,2.99A30.772,30.772,0,0,0,224.935,270.828Z" transform="translate(-179.532 -178.676)" fill="#59a960"/>
            </g>
          </g>
        </g>
        <path id="Trazado_151457" data-name="Trazado 151457" d="M204.209,256.722c1.929.83,9.5,2.086,15.6,2.99a33.4,33.4,0,0,0,2.017-4.61,65.208,65.208,0,0,0-17.568-20.688,84.827,84.827,0,0,0-16.9-10.587c-.019.17-.039.34-.065.518-.7,4.848-1.448,10.208.022,15.074,1.706,5.649,4.906,10.939,9.938,13.857A66.513,66.513,0,0,0,204.209,256.722Z" transform="translate(-155.155 -154.324)" fill="#3b8b58"/>
        <g id="Grupo_94644" data-name="Grupo 94644" transform="translate(179.056 32.268)">
          <g id="Grupo_94643" data-name="Grupo 94643">
            <path id="Trazado_151458" data-name="Trazado 151458" d="M328.994,245.036a100.387,100.387,0,0,0,3.748-34.389,65.466,65.466,0,0,1,.475-13.772c-1.522,1.529-3.256,2.955-4.165,3.932-3.128,3.361-6.495,6.571-9.565,10.05-8.365,9.473-16.718,19.6-21.508,31.449a56.19,56.19,0,0,0-4.518,24,51.113,51.113,0,0,0,1.919,11.345c.343,1.22.757,2.926,1.284,4.661A57.067,57.067,0,0,0,328.994,245.036Z" transform="translate(-293.405 -196.876)" fill="#59a960"/>
          </g>
        </g>
        <path id="Trazado_151459" data-name="Trazado 151459" d="M299.484,227.3c-.53,1.12-1.039,2.252-1.5,3.4a56.19,56.19,0,0,0-4.518,24,51.114,51.114,0,0,0,1.919,11.345c.343,1.22.757,2.926,1.284,4.661a59.284,59.284,0,0,0,13.376-8.158A72.222,72.222,0,0,0,299.484,227.3Z" transform="translate(-114.349 -153.001)" fill="#3b8b58"/>
        <path id="Trazado_151460" data-name="Trazado 151460" d="M327.044,235.742c-10.249,2.36-19.156,7.072-27.489,13.263a68.681,68.681,0,0,0-5.967,4.974,53.127,53.127,0,0,0,1.723,8.842c.343,1.22.757,2.926,1.284,4.661A56.74,56.74,0,0,0,327.044,235.742Z" transform="translate(-114.279 -149.778)" fill="#3b8b58"/>
        <g id="Grupo_94646" data-name="Grupo 94646" transform="translate(0 68.067)">
          <g id="Grupo_94645" data-name="Grupo 94645">
            <path id="Trazado_151461" data-name="Trazado 151461" d="M209.1,239.4c-9.069-7.158-18.78-12.55-30.042-15.076-3.283-.735-9.664-.6-15.253-1.54,11.242,12.082,16.507,31.229,25.831,44.361,11.877,16.728,27.752,28.3,46.8,31.483C234.374,275.415,229.344,255.381,209.1,239.4Z" transform="translate(-163.802 -222.788)" fill="#73c078"/>
          </g>
        </g>
        <g id="Grupo_94648" data-name="Grupo 94648" transform="translate(159.218 89.348)">
          <g id="Grupo_94647" data-name="Grupo 94647">
            <path id="Trazado_151462" data-name="Trazado 151462" d="M305.1,253.1c8.645-6.422,17.9-11.258,28.636-13.524,3.129-.66,9.211-.535,14.538-1.383-10.716,10.84-15.735,28.017-24.621,39.8-11.322,15.008-26.452,25.388-44.611,28.245C281.012,285.4,285.806,267.432,305.1,253.1Z" transform="translate(-279.046 -238.191)" fill="#73c078"/>
          </g>
        </g>
        <path id="Trazado_151463" data-name="Trazado 151463" d="M279.046,303.774a64.342,64.342,0,0,0,28.5-12.087,72.849,72.849,0,0,0,6.7-47.048,90.248,90.248,0,0,0-9.142,6C285.806,264.972,281.012,282.944,279.046,303.774Z" transform="translate(-119.828 -146.383)" fill="#59a960"/>
        <g id="Grupo_94650" data-name="Grupo 94650" transform="translate(13.577 75.506)">
          <g id="Grupo_94649" data-name="Grupo 94649">
            <path id="Trazado_151464" data-name="Trazado 151464" d="M243.964,298.987c-4.489-2.151-9.171-5.923-12.3-8.573-11.163-9.447-20.1-21.206-28.74-32.578q-1.6-2.108-3.205-4.208a114.93,114.93,0,0,0-12.51-14.21c-.423-.4-.865-.821-1.322-1.257-3.585-3.424-8.046-7.684-12.257-9.516l.206-.474c4.3,1.868,8.794,6.165,12.409,9.617.456.435.9.855,1.319,1.254a115.368,115.368,0,0,1,12.565,14.27q1.608,2.1,3.207,4.21c8.625,11.35,17.543,23.086,28.661,32.5,3.109,2.632,7.755,6.376,12.191,8.5Z" transform="translate(-173.629 -228.172)" fill="#59a960"/>
          </g>
        </g>
        <g id="Grupo_94652" data-name="Grupo 94652" transform="translate(32.846 21.779)">
          <g id="Grupo_94651" data-name="Grupo 94651">
            <path id="Trazado_151465" data-name="Trazado 151465" d="M218.277,268.056a43.528,43.528,0,0,0-3.418-12.973,57.1,57.1,0,0,0-10.753-16.5c-3.774-3.971-6.9-7.753-6.906-13.834,0-1.347.032-2.7.062-4.013a50.474,50.474,0,0,0-.688-12.174c-1.54-7.075-5.163-12.856-9-18.976l.2-.167.218-.137-.218.137.238-.106c3.86,6.159,7.506,11.977,9.066,19.14a51.607,51.607,0,0,1,.7,12.3c-.03,1.308-.064,2.661-.062,4,.007,5.891,3.067,9.589,6.764,13.479a57.605,57.605,0,0,1,10.85,16.642A43.992,43.992,0,0,1,218.79,268Z" transform="translate(-187.576 -189.284)" fill="#3b8b58"/>
          </g>
        </g>
        <g id="Grupo_94653" data-name="Grupo 94653" transform="translate(173.766 12.166)">
          <path id="Trazado_151466" data-name="Trazado 151466" d="M290.083,264.467l-.507-.105c.453-2.18.695-4.353.928-6.456a47.61,47.61,0,0,1,1.585-8.947c.492-1.589.944-3.028,1.5-4.567.641-1.775,1.242-3.617,1.825-5.4.9-2.74,1.822-5.575,2.943-8.343,1.015-2.512,2.282-5.069,3.506-7.543,1.3-2.621,2.639-5.329,3.683-7.987.955-2.429,1.684-4.972,2.39-7.431a63.211,63.211,0,0,1,3.389-9.755,48.8,48.8,0,0,0,3.33-10.852c.343-1.543.7-3.14,1.127-4.754l.5.134c-.427,1.6-.781,3.193-1.122,4.733a49.218,49.218,0,0,1-3.367,10.96,62.885,62.885,0,0,0-3.359,9.677c-.71,2.472-1.442,5.026-2.407,7.478-1.053,2.677-2.4,5.4-3.7,8.027-1.22,2.465-2.483,5.014-3.491,7.509-1.112,2.751-2.036,5.577-2.929,8.31-.583,1.785-1.187,3.631-1.831,5.413-.551,1.528-1,2.962-1.491,4.545a46.473,46.473,0,0,0-1.565,8.852C290.784,260.078,290.54,262.264,290.083,264.467Z" transform="translate(-289.576 -182.326)" fill="#307147"/>
        </g>
        <g id="Grupo_94654" data-name="Grupo 94654" transform="translate(174.327 50.767)">
          <path id="Trazado_151467" data-name="Trazado 151467" d="M290.312,283.976l-.33-.4a14.355,14.355,0,0,0,3.384-5.048,21.553,21.553,0,0,1,2.176-3.817c.459-.594.9-1.12,1.333-1.63a19.125,19.125,0,0,0,2.7-3.819,49.361,49.361,0,0,0,3.676-10.449c.29-1.133.571-2.284.852-3.44a81.271,81.271,0,0,1,3.986-13.132l.727-1.665c2.429-5.584,4.942-11.361,8.7-16.148a68.059,68.059,0,0,0,8.584-14.164l.467.221a68.52,68.52,0,0,1-8.644,14.262c-3.715,4.735-6.214,10.479-8.631,16.036l-.727,1.665a80.746,80.746,0,0,0-3.957,13.048c-.283,1.158-.564,2.311-.854,3.446a49.869,49.869,0,0,1-3.718,10.557,19.635,19.635,0,0,1-2.765,3.917c-.427.5-.868,1.026-1.319,1.612a21.193,21.193,0,0,0-2.119,3.726A14.744,14.744,0,0,1,290.312,283.976Z" transform="translate(-289.982 -210.266)" fill="#3b8b58"/>
        </g>
        <g id="Grupo_94655" data-name="Grupo 94655" transform="translate(150.925 103.422)">
          <path id="Trazado_151468" data-name="Trazado 151468" d="M273.312,312.875l-.269-.442a5.735,5.735,0,0,0,1.949-2.166,13.947,13.947,0,0,1,.822-1.224c2.719-3.529,5.345-7.133,7.886-10.619,3.826-5.253,7.782-10.682,12.1-15.907a53.04,53.04,0,0,1,7.966-7.344,51.3,51.3,0,0,0,7.809-7.2l1.214-1.482c5.181-6.329,10.074-12.308,15.685-18.107l.372.359c-5.6,5.783-10.482,11.754-15.657,18.075l-1.214,1.484a51.7,51.7,0,0,1-7.883,7.28,52.374,52.374,0,0,0-7.892,7.271c-4.306,5.211-8.259,10.635-12.081,15.881-2.542,3.488-5.171,7.1-7.894,10.63a13.668,13.668,0,0,0-.792,1.181A6.239,6.239,0,0,1,273.312,312.875Z" transform="translate(-273.043 -248.378)" fill="#59a960"/>
        </g>
        <g id="Grupo_94656" data-name="Grupo 94656" transform="translate(21.734 123.188)">
          <path id="Trazado_151469" data-name="Trazado 151469" d="M247.685,302.557c-.742-.709-1.449-1.394-2.13-2.056-5.561-5.4-9.578-9.3-17.821-10.879-.978-.189-2.02-.344-3.027-.5a35.445,35.445,0,0,1-6.567-1.408c-2.712-.97-4.73-2.908-6.681-4.784a19.782,19.782,0,0,0-5.815-4.373,33.692,33.692,0,0,0-4.624-1.5c-3.093-.83-5.763-1.547-8.745-4.913-.577-.651-1.19-1.459-1.837-2.314-2.723-3.595-6.111-8.07-10.706-6.165l-.2-.478c4.963-2.059,8.486,2.593,11.316,6.33.641.847,1.248,1.647,1.811,2.284,2.879,3.248,5.481,3.949,8.493,4.757a34.1,34.1,0,0,1,4.692,1.525,20.483,20.483,0,0,1,5.971,4.475c1.912,1.839,3.889,3.739,6.5,4.671a35,35,0,0,0,6.47,1.383c1.013.152,2.059.309,3.046.5,8.394,1.614,12.459,5.558,18.083,11.015.683.662,1.387,1.346,2.129,2.054Z" transform="translate(-179.533 -262.685)" fill="#307147"/>
        </g>
      </g>
      <g id="Grupo_94665" data-name="Grupo 94665" transform="translate(25.31 18.528)">
        <g id="Grupo_94664" data-name="Grupo 94664">
          <g id="Grupo_94660" data-name="Grupo 94660" transform="translate(10.136)">
            <circle id="Elipse_5052" data-name="Elipse 5052" cx="72.618" cy="72.618" r="72.618" transform="translate(0 144.059) rotate(-82.705)" fill="#4d7abb"/>
            <g id="Grupo_94659" data-name="Grupo 94659" transform="translate(8.634 9.257)">
              <g id="Grupo_94658" data-name="Grupo 94658">
                <path id="Trazado_151470" data-name="Trazado 151470" d="M262.116,203.664c-.573,1.2-2.269.79-2.745,1.752-.775,1.582.083,3.06.368,4.565.637,3.4,1.6,4.751-1.846,6.771-3.272,1.918-4.218.575-4.062,5.164.051,1.593,1.518,1.665.583,3.4-.294.543-2.595.792-3.22,1.676-1.844,2.625,1,6.062.285,8.936-.847,3.4-3.3,2.859-5.54,4.612-4.312,3.37-3.019,11.672-8.09,14.127-2.006.971-6.886-.134-8.285-1.716-2.146-2.419-.6-5.242.47-7.619,1.406-3.149,1.727-3.8.083-6.854-.6-1.112-1.535-1.452-1.974-2.926-.466-1.565.424-3.349-.275-4.9-.558-1.23-2.159-1.322-2.64-2.325-.709-1.463-.171-3.06-.837-4.44-.316-.651-1.365-2.57-2.24-2.734-2.521-.471-1.013,1.431-1.891,2.734-3.675,5.443-7.469-.564-12.8,1.406a26.5,26.5,0,0,0-3.85,2.041,72.635,72.635,0,0,1,52.135-33.7C258.509,196.742,264.571,198.505,262.116,203.664Z" transform="translate(-192.696 -193.631)" fill="#79c0c4"/>
                <path id="Trazado_151471" data-name="Trazado 151471" d="M268.884,260.9c-3.056-8.026-7.755-1.293-12.71-5.311-1.413-1.145-1.227-3.341-3.277-4-2.205-.713-5.127,1.207-7.717.953-6.554-.642-9.454,2.523-11.288,9.208-.937,3.415-1.39,4.978,1.422,7.347,1.108.934,2.889,1.191,3.853,2.249,1.151,1.26.883,3.035,1.792,4.248,1.455,1.947,4.357,2.238,6.111,4.406.781.964.725,2.56,1.687,3.581,1.028,1.093,2.727.941,3.958,2.155,3.2,3.155,3.737,7.662,3.578,11.674-.217,5.438,3.31,7.191,8.671,6.708,1.2-4.229,3.038-2.176,6.107-3.7,2.56-1.27,3.961-4.945,4.494-7.525.663-3.209.253-3.631,2.635-6.478,1.873-2.242,3.563-4.451,3.763-7.443.309-4.653-1.531-3.991-4.139-6-1.8-1.391-3.186-3.5-4.894-4.91-1.444-1.2-1.778-.832-2.716-2.633C269.547,264.144,269.428,262.326,268.884,260.9Z" transform="translate(-181.412 -171.579)" fill="#79c0c4"/>
                <path id="Trazado_151472" data-name="Trazado 151472" d="M323.961,261.543a72.442,72.442,0,0,1-6.311,29.66c-.988-.011-1.872-.026-2.508,0a8.812,8.812,0,0,1-7.925-3.743c-.915-1.422-.2-3.122-1.882-4.461-1.116-.884-2.812-.4-4.114-.828-4.507-1.478-2.351-3.053-3.013-6.4-.564-2.828-4.358-4.42-7.15-3.469-2.553.873-3.121,4.4-6.021,4.244-3.375-.181-3.82-4.12-4.512-6.415-1.2-3.969-.807-4.491-4.612-3.107a32.848,32.848,0,0,0-3.283,1.593c-.962,1.188.047,2.987-.754,4.156-1.778,2.595-4.791-1.127-5.566-3.417-.481-1.406-.006-3.071-.456-4.5-.387-1.246-1.818-1.737-2.186-3-1.391-4.771,2.248-3.8,4.342-6.1,3.56-3.914-1.4-3.816-4.054-2.27-1.431.837-1.737,1.949-3.381,2.351-1.4.341-3-.547-4.522-.381-1.5.16-2.048,1.194-3.754,1.137-2.227-.073-1.659-.967-3.281-1.6-3.577-1.391-5.2.624-8.7.036-.754-3.066,2.636-5.278,4.916-6.25,1.514-.645,3-.553,4.337-1.318,1.422-.817,1.6-2.212,3.483-2.827,3.041-1,6.229-1.19,9.031-2.719,2.2-1.2,4.218-4.787-.311-5.336.816-5.293-5.64-1.328-7.578-1.42-5.845-.285-1.23-4.487,1.474-6.131,1.5-.92,3.153-1.69,4.616-2.455a23.858,23.858,0,0,0,3.96-2.811c5.148-3.841,3.081,1.473,7.561,1.648-.63,5.557,3,3.8,5.717,1.453.678-.59,1.065-2.187,1.944-2.559.931-.394,1.52.683,1.882.6a37.717,37.717,0,0,1,4.766-.734c-.238-1.808-1.691-4.983-.626-6.652.449-.713,2.559-.455,3.309-1.19,1.4-1.369,1.158-1.684,1.5-3.39.62-3.013-.485-3.707,1.872-5.928a20.5,20.5,0,0,1,3.892-2.677A72.478,72.478,0,0,1,323.961,261.543Z" transform="translate(-178.726 -189.548)" fill="#79c0c4"/>
                <path id="Trazado_151473" data-name="Trazado 151473" d="M241.423,298.226c.387,5.991-3.06,2.723-6.808,4.29a15.135,15.135,0,0,1-.506,4.761c-4.043,1.994-3.588,5.325-3.169,8.875a72.742,72.742,0,0,1-13.5-10.463c-.066-.707-.138-1.422-.232-2.129-.077-.6,1.033-.765.724-1.789-.1-.336-1.282-.894-1.54-1.5-.688-1.639-1.3-1.861-1.422-3.845-.175-3.019,2.306-5.511,2.662-8.271.185-1.467-.863-2.6-.771-4.139.083-1.329.875-2.317,1.071-3.7-2.372-.862-4.233-1.358-5.888-3.019-1.839,1.712-6.068-.817-8-1.188-2.921-.553-5.37-.909-6.062-4.827-.073-.043-.145-.077-.213-.109v-.005a73.156,73.156,0,0,1,1.359-39.393c3.128.392,2.161-.088,3.784-1.965,1.127-1.3,7.371-9.294,8.364-3.055,2.527-.119,7.484.285,6.341,4.2-.7,2.393-5.225,2.165-6.884,4.9-1.882,3.1-.305,4.188,1.985,6.39,3.385,3.256,3.354,3.313,4.806-.667.605-1.659-1.137-1.933,1.214-2.719,1.578-.526,2.626.243,3.671,1.2,1.441,1.333.852,2.734,2.744,3.965,1.241.811,2.745.434,4.121.832,2.278.662,7.706,3.9,5.566,7.092-1.784,2.653-6.788-1.188-8.23.424-.1.032-.2.057-.289.083.211,3.111,4.373,3.262,4.022,6.286-2.647.134-6.792-.863-8.513,1.178-1.448,1.716-.109,7.541-1.288,8.585-1.891,1.674-5.81-.558-7.548-1.339-1.26-.569-2.082-1.644-3.664-1.6a27,27,0,0,0-3.5,1.778c-1.018,2.538,2.838,5.542,5.087,6.037,2.5.549,4.326-1.727,7.36-.2,2.807,1.411,2.374,3.8,6.105,4.435,2.161.362,6.978-.624,8.653.828,1.7,1.473.543,3.209,1.789,4.916.977,1.333,2.946,1.376,4.254,1.763,3.2.941,6.213,1.731,6.306,5.977C239.862,292.013,241.138,293.775,241.423,298.226Z" transform="translate(-195.708 -181.891)" fill="#79c0c4"/>
              </g>
            </g>
            <path id="Trazado_151474" data-name="Trazado 151474" d="M319.423,209.392a72.626,72.626,0,0,1-120.164,76.5,72.625,72.625,0,1,0,120.164-76.5Z" transform="translate(-185.719 -178.36)" fill="#0bf" opacity="0.5" style="mix-blend-mode: multiply;isolation: isolate"/>
          </g>
          <g id="Grupo_94661" data-name="Grupo 94661" transform="translate(123.274 41.017)">
            <path id="Trazado_151475" data-name="Trazado 151475" d="M325.986,230.651c-2.841-15.452-13.845-8.509-13.845-8.509-15.439-14.553-18.1,4.259-18.1,4.259-7.1-2.662-9.051,4.259-9.051,4.259-9.8-2.372-12.824,2.749-13.639,7.455h65.489C335.013,226.86,325.986,230.651,325.986,230.651Z" transform="translate(-271.349 -216.62)" fill="#fff"/>
          </g>
          <g id="Grupo_94662" data-name="Grupo 94662" transform="translate(0 57.317)">
            <path id="Trazado_151476" data-name="Trazado 151476" d="M216.464,237.237c-1.784-9.711-8.7-5.348-8.7-5.348-9.706-9.147-11.379,2.678-11.379,2.678a4.088,4.088,0,0,0-5.689,2.678c-6.159-1.491-8.06,1.727-8.573,4.685h41.164C222.138,234.855,216.464,237.237,216.464,237.237Z" transform="translate(-182.122 -228.418)" fill="#fff"/>
          </g>
          <g id="Grupo_94663" data-name="Grupo 94663" transform="translate(14.711 13.412)">
            <path id="Trazado_151477" data-name="Trazado 151477" d="M236.491,207.867c-2.273-12.364-11.077-6.81-11.077-6.81-12.355-11.645-14.487,3.41-14.487,3.41-5.681-2.13-7.242,3.408-7.242,3.408-7.842-1.9-10.261,2.2-10.914,5.964h52.406C243.716,204.833,236.491,207.867,236.491,207.867Z" transform="translate(-192.77 -196.639)" fill="#fff"/>
          </g>
        </g>
        <path id="Trazado_151478" data-name="Trazado 151478" d="M238.177,239.7c-9.96,12.77-23.208,19.086-29.591,14.109s-3.483-19.367,6.477-32.137,23.209-19.085,29.592-14.107S248.138,226.926,238.177,239.7Z" transform="translate(-173.317 -179.708)" fill="#fff" opacity="0.3"/>
      </g>
      <g id="Grupo_94701" data-name="Grupo 94701" transform="translate(33.847 89.18)">
        <g id="Grupo_94670" data-name="Grupo 94670" transform="translate(134.184 18.045)">
          <g id="Grupo_94669" data-name="Grupo 94669">
            <g id="Grupo_94666" data-name="Grupo 94666" transform="translate(26.33 39.34)">
              <path id="Trazado_151479" data-name="Trazado 151479" d="M310.494,293.9l4.323-9.783-5.6-4.515-4.609,12.628s-1.12,2.412,3.273,5.514l8.673,8.437,2.7-1.29S313.4,296.747,310.494,293.9Z" transform="translate(-304.482 -279.606)" fill="#0a3c5f"/>
              <path id="Trazado_151480" data-name="Trazado 151480" d="M314.877,299.2l.714.882-6.517,3.729-.189.8,11.45-1.609L318.7,299.2l-1.125-1.29Z" transform="translate(-302.803 -272.622)" fill="#fdb18d"/>
              <path id="Trazado_151481" data-name="Trazado 151481" d="M313.407,299.395l.459.568,3.107-.882-.745-.854Z" transform="translate(-301.077 -272.501)" fill="#fff"/>
              <path id="Trazado_151482" data-name="Trazado 151482" d="M309.074,303.455l-.189.8,11.45-1.609-1.637-3.806-3.107.882Z" transform="translate(-302.803 -272.265)" fill="#0d134f"/>
              <path id="Trazado_151483" data-name="Trazado 151483" d="M320.335,301.858l-.4-.939-10.857,1.744-.189.8Z" transform="translate(-302.803 -271.473)" fill="#62c1c5"/>
            </g>
            <path id="Trazado_151484" data-name="Trazado 151484" d="M307.813,280.375l3.326,9.159,2.407-5.448-5.436-4.384Z" transform="translate(-276.882 -240.229)" fill="#0d134f"/>
            <path id="Trazado_151485" data-name="Trazado 151485" d="M288.4,260.278a5.1,5.1,0,0,1,0-2.447s-.471-3.763.533-2.509v-.785s-.816-1.379-.33-2.132l.33.345a1.564,1.564,0,0,1,0-1.067,6.789,6.789,0,0,1,.6,1.191l.22,1.444.094,1.662a26.116,26.116,0,0,0,.439,3.512s5.74,3.262,7.4,3.669l.314,2.76Z" transform="translate(-284.338 -250.92)" fill="#f09474"/>
            <path id="Trazado_151486" data-name="Trazado 151486" d="M297.679,263.767l-.314-2.76c-1.662-.408-7.4-3.669-7.4-3.669l-.859,1.386Z" transform="translate(-284.021 -248.763)" fill="#fff"/>
            <path id="Trazado_151487" data-name="Trazado 151487" d="M289.656,259.077l8.013,4.718-.162-2.737a54.588,54.588,0,0,1-7.143-3.472Z" transform="translate(-283.81 -248.668)" fill="#f8a510"/>
            <g id="Grupo_94668" data-name="Grupo 94668" transform="translate(13.452 8.038)">
              <path id="Trazado_151488" data-name="Trazado 151488" d="M299.376,264.588a7.218,7.218,0,0,1,3.276.973l1.563-1.756-2.085-2.146-2.589.758Z" transform="translate(-293.553 -255.152)" fill="#f09474"/>
              <path id="Trazado_151489" data-name="Trazado 151489" d="M302.992,262.738l-.521-.656-2.2,2.305.452.732,2.1-1.23Z" transform="translate(-293.211 -254.99)" fill="#fff"/>
              <g id="Grupo_94667" data-name="Grupo 94667">
                <path id="Trazado_151490" data-name="Trazado 151490" d="M304.274,261.924s-.952-6.587-6.359-4.6c0,0-5.18,1.437-1.329,9.319l.952-.468s1.282,2.074,2.376,1.476l4.065-3.937Z" transform="translate(-295.161 -256.949)" fill="#fdb18d"/>
                <path id="Trazado_151491" data-name="Trazado 151491" d="M302.519,260.255l-2.791-2.275-4.237,1.3c-.466,1.2-.539,2.965.47,5.55Z" transform="translate(-295.161 -256.556)" fill="#f09474"/>
                <path id="Trazado_151492" data-name="Trazado 151492" d="M304.273,261.924s-.952-6.587-6.359-4.6c0,0-3.531.98-2.593,5.761,0,0,.591.383,2.419-.379a2.936,2.936,0,0,1,1.8,1.61l.652-.394s-.83-2.013.011-2.661l1.089.233s.716,1.7,1.973,1.753l.825-.216Z" transform="translate(-295.161 -256.949)" fill="#0a3c5f"/>
                <path id="Trazado_151493" data-name="Trazado 151493" d="M299.531,264.175l.652-.394s-.83-2.013.011-2.661l1.089.233s.716,1.7,1.973,1.753l.825-.215.182-1.107s-.467-3.212-2.59-4.472a8.929,8.929,0,0,1-6.482,4.818c.026.258.064.528.12.814,0,0,.591.383,2.419-.379A2.936,2.936,0,0,1,299.531,264.175Z" transform="translate(-295.151 -256.81)" fill="#0d134f"/>
                <path id="Trazado_151494" data-name="Trazado 151494" d="M300.182,260.677c.3.743.174,1.5-.293,1.691s-1.089-.258-1.393-1-.174-1.5.292-1.692S299.878,259.932,300.182,260.677Z" transform="translate(-293.952 -255.926)" fill="#fdb18d"/>
              </g>
            </g>
            <path id="Trazado_151495" data-name="Trazado 151495" d="M298.953,267.991l23.352,36.1L335.227,314l2.843-1.723L327.388,301.6l-8.876-20.763-11.844-16.454-3.172-1.821Z" transform="translate(-280.263 -246.771)" fill="#0a3c5f"/>
            <path id="Trazado_151496" data-name="Trazado 151496" d="M303.5,262.557l-4.543,5.434,12.241,18.926h0a13,13,0,0,0,7.318-6.084l-11.844-16.455Z" transform="translate(-280.263 -246.771)" fill="#fdd247"/>
            <path id="Trazado_151497" data-name="Trazado 151497" d="M302.982,268.016a4.147,4.147,0,0,0-2.3-3.02l-1.726,2.064,1,1.552A7.769,7.769,0,0,0,302.982,268.016Z" transform="translate(-280.263 -245.84)" fill="#f8a510"/>
            <path id="Trazado_151498" data-name="Trazado 151498" d="M287.8,259.3s9.221,3.632,9.965,5.681c0,0,6.054,2.608,9.409,2.608,0,0,3.632.372,2.421,4.657,0,0-.931,2.794-6.52-.466l-7.637-4.1s-7.451-5.4-9.221-7.637c0,0-1.307-1.188-.554-4.482,0,0,0-3.294.565-2.886,0,0-.25-1.549.408-1.549a15.437,15.437,0,0,1,.847,1.894l.062,1.224a6.759,6.759,0,0,1,.409,1.788A19.365,19.365,0,0,1,287.8,259.3Z" transform="translate(-285.425 -251.131)" fill="#fdb18d"/>
            <path id="Trazado_151499" data-name="Trazado 151499" d="M309.219,269.993c1.212-4.286-2.421-4.657-2.421-4.657-3.354,0-9.409-2.608-9.409-2.608-.745-2.049-9.965-5.681-9.965-5.681l-1.026,1.368a95.469,95.469,0,0,0,8.664,7.014l7.637,4.1C308.288,272.786,309.219,269.993,309.219,269.993Z" transform="translate(-285.053 -248.874)" fill="#fff"/>
            <path id="Trazado_151500" data-name="Trazado 151500" d="M286.838,258.944c2.709,2.543,8.056,6.42,8.056,6.42l7.637,4.1c5.588,3.259,6.52.466,6.52.466,1.212-4.286-2.421-4.657-2.421-4.657-3.354,0-9.409-2.608-9.409-2.608-.633-1.741-7.383-4.624-9.4-5.452Z" transform="translate(-284.886 -248.811)" fill="#fdd247"/>
            <path id="Trazado_151501" data-name="Trazado 151501" d="M326.8,300.269l.77.747-6.427,3.451-.115.747,11.067-.747.564-2.9-3.017-3.018Z" transform="translate(-271.838 -233.039)" fill="#fdb18d"/>
            <path id="Trazado_151502" data-name="Trazado 151502" d="M325.427,300.474l.468.454,3.8-.747-1.405-1.405Z" transform="translate(-270.161 -232.951)" fill="#fff"/>
            <path id="Trazado_151503" data-name="Trazado 151503" d="M331.369,299.793l-3.8.747-6.427,3.451-.115.747,11.067-.747.564-2.9Z" transform="translate(-271.838 -232.563)" fill="#0d134f"/>
            <path id="Trazado_151504" data-name="Trazado 151504" d="M332.1,303.09l.181-.935h0l-11.134.936-.115.747Z" transform="translate(-271.838 -231.662)" fill="#62c1c5"/>
          </g>
        </g>
        <g id="Grupo_94678" data-name="Grupo 94678" transform="translate(43.203)">
          <g id="Grupo_94677" data-name="Grupo 94677">
            <rect id="Rectángulo_24303" data-name="Rectángulo 24303" width="28.679" height="1.52" transform="translate(7.425 89.147)" fill="#f8a510"/>
            <path id="Trazado_151505" data-name="Trazado 151505" d="M245.98,302.6H243.7l.708,1.52h2.055v-.475Z" transform="translate(-210.364 -213.449)" fill="#0d134f"/>
            <rect id="Rectángulo_24304" data-name="Rectángulo 24304" width="14.118" height="1.52" transform="translate(9.31 61.413)" fill="#0d134f"/>
            <g id="Grupo_94671" data-name="Grupo 94671" transform="translate(1.466 48.978)">
              <path id="Trazado_151506" data-name="Trazado 151506" d="M237.81,274.814l-.718,2.781-14.319,55.2h-2.14l15.083-58.142.094-.356a1.041,1.041,0,0,1,1.261-.745,1.063,1.063,0,0,1,.647.5,1.805,1.805,0,0,1,.072.166A1.054,1.054,0,0,1,237.81,274.814Z" transform="translate(-220.633 -273.521)" fill="#fdd247"/>
            </g>
            <path id="Trazado_151507" data-name="Trazado 151507" d="M232.671,274.2a1.8,1.8,0,0,0-.072-.166l-.215-.461a1.032,1.032,0,0,0-.636.7l-.094.356-.376,1.453.695,1.488.678,1.456.379-1.456.434-1.677Z" transform="translate(-215.105 -224.523)" fill="#f8a510"/>
            <rect id="Rectángulo_24305" data-name="Rectángulo 24305" width="9.162" height="1.016" transform="translate(21.378 65.917)" fill="#0d134f"/>
            <rect id="Rectángulo_24306" data-name="Rectángulo 24306" width="9.162" height="1.016" transform="translate(24.389 72.54)" fill="#0d134f"/>
            <rect id="Rectángulo_24307" data-name="Rectángulo 24307" width="9.162" height="1.016" transform="translate(27.399 79.163)" fill="#0d134f"/>
            <rect id="Rectángulo_24308" data-name="Rectángulo 24308" width="9.162" height="1.016" transform="translate(30.41 85.786)" fill="#0d134f"/>
            <rect id="Rectángulo_24309" data-name="Rectángulo 24309" width="9.162" height="1.017" transform="translate(33.42 92.409)" fill="#0d134f"/>
            <rect id="Rectángulo_24310" data-name="Rectángulo 24310" width="9.162" height="1.017" transform="translate(36.431 99.032)" fill="#0d134f"/>
            <path id="Trazado_151508" data-name="Trazado 151508" d="M243.188,247.934c.084-.561-.42-2.092-1.221-1.792-.233.088-.275.3-.271.533a2.229,2.229,0,0,0,.623,1.456C242.665,248.431,243.114,248.435,243.188,247.934Z" transform="translate(-211.13 -235.005)" fill="#f09474"/>
            <path id="Trazado_151509" data-name="Trazado 151509" d="M246.5,247.934c-.084-.561.421-2.092,1.223-1.792.233.088.275.3.271.533a2.235,2.235,0,0,1-.623,1.456C247.029,248.431,246.58,248.435,246.5,247.934Z" transform="translate(-209.299 -235.005)" fill="#f09474"/>
            <path id="Trazado_151510" data-name="Trazado 151510" d="M249.82,246.2a4.052,4.052,0,1,0-7.5,2.115h0a10.364,10.364,0,0,1,1.239,4.029h4.091a29.732,29.732,0,0,1,1.579-4.029h0A4.025,4.025,0,0,0,249.82,246.2Z" transform="translate(-211.122 -236.514)" fill="#fdb18d"/>
            <path id="Trazado_151511" data-name="Trazado 151511" d="M257.957,251.974s.333-1.565.5-2.023a4.843,4.843,0,0,1,1.567-1.521l.41,1.466S259.106,252.111,257.957,251.974Z" transform="translate(-204.925 -234.117)" fill="#fdb18d"/>
            <g id="Grupo_94673" data-name="Grupo 94673" transform="translate(54.84 1.874)">
              <g id="Grupo_94672" data-name="Grupo 94672">
                <path id="Trazado_151512" data-name="Trazado 151512" d="M259.782,257.379h-.517v-9.57l8.969-5.376v-2.489h-8.711v-.517h9.228v3.3l-8.969,5.376Z" transform="translate(-259.265 -239.426)" fill="#fdd247"/>
              </g>
            </g>
            <g id="Grupo_94674" data-name="Grupo 94674" transform="translate(54.323 12.227)">
              <path id="Trazado_151513" data-name="Trazado 151513" d="M259.666,254.521a.776.776,0,0,1-.775-.776V247.7a.775.775,0,0,1,1.55,0v6.05A.776.776,0,0,1,259.666,254.521Z" transform="translate(-258.891 -246.92)" fill="#f8a510"/>
            </g>
            <path id="Trazado_151514" data-name="Trazado 151514" d="M235.474,257.247a6.071,6.071,0,0,0,4.852,3.327S239.977,255.258,235.474,257.247Z" transform="translate(-213.504 -230.922)" fill="#0a3c5f"/>
            <path id="Trazado_151515" data-name="Trazado 151515" d="M251.529,265.693s-1.637,33.313-2.24,39.212h-3.359L242.4,265.148S247.394,261.385,251.529,265.693Z" transform="translate(-210.861 -228.318)" fill="#0a3c5f"/>
            <path id="Trazado_151516" data-name="Trazado 151516" d="M242.789,269.283l.549,6.236a23.672,23.672,0,0,0,5.354-6.661Z" transform="translate(-210.712 -226.322)" fill="#0d134f"/>
            <path id="Trazado_151517" data-name="Trazado 151517" d="M239.969,250.224l3.791-1.292s4.123-.694,6.031,0l5.17,2.5a38.518,38.518,0,0,0,1.119,7.15l-3.36,12.836-11.544-.688-1.9-13.354Z" transform="translate(-212.051 -234.043)" fill="#fdd247"/>
            <path id="Trazado_151518" data-name="Trazado 151518" d="M241.872,253.782l-2.534,1.021-.058.6,1.1,7.73C242.513,258.975,241.872,253.782,241.872,253.782Z" transform="translate(-212.051 -232.075)" fill="#f8a510"/>
            <path id="Trazado_151519" data-name="Trazado 151519" d="M255.242,265.312s1.062,7.5-15.052,10.029l2.894,15.936h-3.4l-7.014-19.015,10.952-5.385.076-2.253Z" transform="translate(-214.574 -227.938)" fill="#0a3c5f"/>
            <path id="Trazado_151520" data-name="Trazado 151520" d="M239.353,283.916l-5.814,1.655v.922h9.411l-.2-2.577Z" transform="translate(-214.242 -220.576)" fill="#0d134f"/>
            <path id="Trazado_151521" data-name="Trazado 151521" d="M242.95,286.037l-.071-.922h-9.34v.922Z" transform="translate(-214.242 -220.119)" fill="#fff"/>
            <path id="Trazado_151522" data-name="Trazado 151522" d="M246.574,293.5l-5.856,1.656v.922h9.412l-.2-2.577Z" transform="translate(-211.503 -216.918)" fill="#0d134f"/>
            <path id="Trazado_151523" data-name="Trazado 151523" d="M250.13,295.624l-.071-.922h-9.341v.922Z" transform="translate(-211.503 -216.461)" fill="#fff"/>
            <path id="Trazado_151524" data-name="Trazado 151524" d="M244.481,249.782s2.18,2.2.79,7.636l-3.758,8.354L234.1,276.721h-6.645a7.269,7.269,0,0,1,5.7-2.328S241.78,251.733,244.481,249.782Z" transform="translate(-216.563 -233.601)" fill="#fdb18d"/>
            <path id="Trazado_151525" data-name="Trazado 151525" d="M235.474,259.925a4.767,4.767,0,0,1,4.852,3.327s6.1-9.721,1.1-13.47C241.422,249.782,238.79,250.536,235.474,259.925Z" transform="translate(-213.504 -233.601)" fill="#fdd247"/>
            <path id="Trazado_151526" data-name="Trazado 151526" d="M253.627,253.751l3.012.5,3.214-2.213a9.862,9.862,0,0,1,2.841-3.766s1.5.839.624,3.834l-2.187,1.346-3.6,4.306s-4.58.169-4.545.269S253.627,253.751,253.627,253.751Z" transform="translate(-206.821 -234.178)" fill="#fdb18d"/>
            <path id="Trazado_151527" data-name="Trazado 151527" d="M250.843,250.656l4.737,2.067s1.373,3.3-.264,5.021l-3.354.062S248.6,254.1,250.843,250.656Z" transform="translate(-207.933 -233.268)" fill="#fdd247"/>
            <path id="Trazado_151528" data-name="Trazado 151528" d="M254.145,259.888c-4.069,4-11.072,4.907-13.64,5.108l.2,1.435,11.544.688Z" transform="translate(-211.584 -229.745)" fill="#f8a510"/>
            <path id="Trazado_151529" data-name="Trazado 151529" d="M255.528,254.859a12.9,12.9,0,0,1-3.627-.64c-.191.7-.461,2.227-.461,2.227l3.354-.062A2.91,2.91,0,0,0,255.528,254.859Z" transform="translate(-207.411 -231.908)" fill="#f8a510"/>
            <path id="Trazado_151530" data-name="Trazado 151530" d="M268.274,241.162a1.058,1.058,0,0,1-1.058,1.057H255.507a1.058,1.058,0,0,1-1.058-1.057v-1.919a1.552,1.552,0,0,1,.669-1.173h11.709c.974.116,1.448.59,1.448,1.173Z" transform="translate(-206.263 -238.07)" fill="#e9f9f9"/>
            <path id="Trazado_151531" data-name="Trazado 151531" d="M267.216,240.32H255.507a1.058,1.058,0,0,1-1.058-1.058v1.445a1.058,1.058,0,0,0,1.058,1.057h11.709a1.058,1.058,0,0,0,1.058-1.057v-1.445A1.058,1.058,0,0,1,267.216,240.32Z" transform="translate(-206.263 -237.615)" fill="#adcccc"/>
            <path id="Trazado_151532" data-name="Trazado 151532" d="M249.221,248.314a4.053,4.053,0,1,0-6.9,0h0s.117.193.28.54a9.485,9.485,0,0,1,1.2,1.4h3.857c.376-.329,1.275-1.353,1.277-1.354.1-.209.193-.406.29-.584Z" transform="translate(-211.122 -236.514)" fill="#0a3c5f"/>
            <path id="Trazado_151533" data-name="Trazado 151533" d="M248.933,243.254a14.075,14.075,0,0,1-.356,1.452,3.848,3.848,0,0,1-1.2,1.435,5.033,5.033,0,0,1-3.395.771,4.48,4.48,0,0,1-2.256-.96,4,4,0,0,0,.589,1.94h0s.117.193.28.54a9.485,9.485,0,0,1,1.2,1.4h3.857c.376-.329,1.275-1.353,1.277-1.354.1-.209.193-.406.29-.584h0a4.036,4.036,0,0,0-.285-4.638Z" transform="translate(-211.118 -236.092)" fill="#0d134f"/>
            <g id="Grupo_94675" data-name="Grupo 94675" transform="translate(8.801 44.833)">
              <path id="Trazado_151534" data-name="Trazado 151534" d="M263.072,333.941h-2.28l-25.726-55.2L233.69,275.8l-1.492-3.211h-5.221a1.033,1.033,0,1,1,0-2.067h5.877a1.022,1.022,0,0,1,.935.6l1.9,4.078c.025.051.051.109.072.166Z" transform="translate(-225.942 -270.521)" fill="#fdd247"/>
            </g>
            <g id="Grupo_94676" data-name="Grupo 94676" transform="translate(6.949 43.121)">
              <path id="Trazado_151535" data-name="Trazado 151535" d="M226.747,269.281l-2.145,2.145v1.636h10.387l-1.762-3.781Z" transform="translate(-224.601 -269.281)" fill="#0a3c5f"/>
            </g>
            <path id="Trazado_151536" data-name="Trazado 151536" d="M234.988,272.47l-.762-1.636H224.6v1.636Z" transform="translate(-217.652 -225.568)" fill="#0d134f"/>
            <path id="Trazado_151537" data-name="Trazado 151537" d="M232.746,272.018H230.47l.761,1.636h2.279Z" transform="translate(-215.413 -225.116)" fill="#f8a510"/>
            <rect id="Rectángulo_24311" data-name="Rectángulo 24311" width="5.25" height="1.016" transform="translate(0 107.236)" fill="#0a3c5f"/>
            <rect id="Rectángulo_24312" data-name="Rectángulo 24312" width="5.25" height="1.016" transform="translate(41.914 107.236)" fill="#0a3c5f"/>
            <path id="Trazado_151538" data-name="Trazado 151538" d="M253.424,316.377l-1.161-2.492h-2.279l1.161,2.492Z" transform="translate(-207.967 -209.141)" fill="#62c1c5"/>
            <path id="Trazado_151539" data-name="Trazado 151539" d="M222.964,316.377l.646-2.492h-2.139l-.647,2.492Z" transform="translate(-219.094 -209.141)" fill="#62c1c5"/>
          </g>
        </g>
        <g id="Grupo_94684" data-name="Grupo 94684" transform="translate(0 27.765)">
          <g id="Grupo_94683" data-name="Grupo 94683">
            <rect id="Rectángulo_24313" data-name="Rectángulo 24313" width="4.895" height="3.196" transform="translate(32.377 9.804)" fill="#0d134f"/>
            <path id="Trazado_151540" data-name="Trazado 151540" d="M212.181,273.4s.146-1.594.256-2.068a4.846,4.846,0,0,1,1.377-1.7l.582,1.408S213.339,273.4,212.181,273.4Z" transform="translate(-179.189 -253.789)" fill="#fdb18d"/>
            <g id="Grupo_94679" data-name="Grupo 94679" transform="translate(34.212 14.138)">
              <path id="Trazado_151541" data-name="Trazado 151541" d="M213.687,274.339a.605.605,0,0,1-.608-.6l-.015-4.728a.606.606,0,1,1,1.212,0l.015,4.726A.606.606,0,0,1,213.687,274.339Z" transform="translate(-213.064 -268.4)" fill="#f8a510"/>
            </g>
            <path id="Trazado_151542" data-name="Trazado 151542" d="M214.276,269a.606.606,0,1,0-1.212,0v.694h1.212Z" transform="translate(-178.852 -254.262)" fill="#ba7c0c"/>
            <path id="Trazado_151543" data-name="Trazado 151543" d="M214.86,269.361a10.36,10.36,0,0,0-2.433,4.146l-.89.783a1.5,1.5,0,0,1,1.448,1.817l.877-1.348,2.013-1.594C216.39,270.088,214.86,269.361,214.86,269.361Z" transform="translate(-179.435 -253.895)" fill="#fdb18d"/>
            <path id="Trazado_151544" data-name="Trazado 151544" d="M211.668,272.864l.479-.6s.953.133,1.808,1.655l-.716.671Z" transform="translate(-179.385 -252.787)" fill="#fff"/>
            <path id="Trazado_151545" data-name="Trazado 151545" d="M188.3,274.409a79.98,79.98,0,0,0,7.5,16.173l1.654,19.408,8.827-.254v-1.19l-6.516-1.437,1.094-18.064-6.869-13.506Z" transform="translate(-188.301 -251.969)" fill="#2466b4"/>
            <path id="Trazado_151546" data-name="Trazado 151546" d="M203.82,299.515l-6.515-1.437h-2.557l.246,2.88,8.827-.253Z" transform="translate(-185.841 -242.937)" fill="#0d134f"/>
            <path id="Trazado_151547" data-name="Trazado 151547" d="M203.767,299.537l-8.879.255.052.61,8.827-.253Z" transform="translate(-185.787 -242.381)" fill="#fdd247"/>
            <path id="Trazado_151548" data-name="Trazado 151548" d="M192.843,279.219a90.647,90.647,0,0,0,6.082,11.322l.2-3.331-2.136-4.2Z" transform="translate(-186.568 -250.134)" fill="#0d134f"/>
            <g id="Grupo_94682" data-name="Grupo 94682" transform="translate(19.153)">
              <path id="Trazado_151549" data-name="Trazado 151549" d="M207.1,265.96a7.365,7.365,0,0,0-3.342.992l-1.6-1.792,2.128-2.188,2.642.774Z" transform="translate(-202.164 -256.333)" fill="#f09474"/>
              <g id="Grupo_94681" data-name="Grupo 94681" transform="translate(1.582)">
                <path id="Trazado_151550" data-name="Trazado 151550" d="M203.309,263.242s.971-6.72,6.488-4.695c0,0,5.285,1.466,1.355,9.508l-.97-.479s-1.308,2.118-2.425,1.507l-4.149-4.018Z" transform="translate(-203.309 -258.167)" fill="#fdb18d"/>
                <path id="Trazado_151551" data-name="Trazado 151551" d="M204.6,261.54l2.849-2.322,4.323,1.328c.475,1.221.55,3.024-.478,5.66Z" transform="translate(-202.815 -257.765)" fill="#f09474"/>
                <path id="Trazado_151552" data-name="Trazado 151552" d="M203.309,263.242s.971-6.72,6.488-4.695c0,0,3.6,1,2.646,5.877,0,0-.6.391-2.467-.385a3,3,0,0,0-1.839,1.643l-.664-.4s.846-2.054-.012-2.716l-1.111.239s-.731,1.732-2.013,1.789l-.841-.221Z" transform="translate(-203.309 -258.167)" fill="#0a3c5f"/>
                <g id="Grupo_94680" data-name="Grupo 94680" transform="translate(0 2.08)">
                  <path id="Trazado_151553" data-name="Trazado 151553" d="M206.478,261.764c.558.793-.156,2.532-.156,2.532l.665.4a3,3,0,0,1,1.839-1.643c1.864.776,2.463.388,2.467.385a6.849,6.849,0,0,0,.044-2.7c-.641.263-1.256.562-1.913.761A8.2,8.2,0,0,1,206.478,261.764Z" transform="translate(-202.159 -259.264)" fill="#0d134f"/>
                  <path id="Trazado_151554" data-name="Trazado 151554" d="M206.348,262.228l.658-.141a3.842,3.842,0,0,1-1.6-.634,2.864,2.864,0,0,1-.992-1.781,8.794,8.794,0,0,0-1.105,3l.185,1.129.841.221C205.618,263.96,206.348,262.228,206.348,262.228Z" transform="translate(-203.309 -259.672)" fill="#0d134f"/>
                </g>
                <path id="Trazado_151555" data-name="Trazado 151555" d="M205.483,261.97c-.311.759-.178,1.532.3,1.726s1.112-.264,1.422-1.022.177-1.532-.3-1.727S205.793,261.21,205.483,261.97Z" transform="translate(-202.543 -257.123)" fill="#fdb18d"/>
              </g>
            </g>
            <path id="Trazado_151556" data-name="Trazado 151556" d="M201.58,264.35l1.6-.868,3.177,3.275-.758.588Z" transform="translate(-183.234 -256.138)" fill="#fff"/>
            <path id="Trazado_151557" data-name="Trazado 151557" d="M190.77,275.13s2.054,6.267,11.2,16.952l.606,22.067h9.808v-1.072l-7.045-1.815,2.9-20.719-7.6-14.834Z" transform="translate(-187.359 -251.694)" fill="#2466b4"/>
            <path id="Trazado_151558" data-name="Trazado 151558" d="M188.3,278.338s3.411-10.6,18.347-14.227a12.924,12.924,0,0,1,5.743,4.085s-2.259,3.788-8.874,8.915l-1.326,4S191.013,283.833,188.3,278.338Z" transform="translate(-188.301 -255.898)" fill="#3ca8f4"/>
            <path id="Trazado_151559" data-name="Trazado 151559" d="M202.191,279.266l1.326-4a51.734,51.734,0,0,0,6.1-5.482l-.764-.833-6.333,5.057a4.988,4.988,0,0,1-2.173-1.636,5.313,5.313,0,0,0,1.721,2.894l-1.207,3.063s-8.75,1.56-12.559-1.836C191.013,281.986,202.191,279.266,202.191,279.266Z" transform="translate(-188.301 -254.052)" fill="#1970a5"/>
            <path id="Trazado_151560" data-name="Trazado 151560" d="M206.734,267.084s4.235,6.2,6.111,9.451l2.13-2.023a2.874,2.874,0,0,1,1.842,2.023l-3.755,3.647s-1.406,1.344-5.036-2.957l-4.855-5.888S202.465,266.443,206.734,267.084Z" transform="translate(-182.644 -254.786)" fill="#3ca8f4"/>
            <path id="Trazado_151561" data-name="Trazado 151561" d="M209.145,303.1l-7.045-1.814h-2.842l.08,2.888h9.808Z" transform="translate(-184.12 -241.715)" fill="#0d134f"/>
            <path id="Trazado_151562" data-name="Trazado 151562" d="M199.323,303.669h9.808V302.6h-9.838Z" transform="translate(-184.106 -241.214)" fill="#fdd247"/>
            <rect id="Rectángulo_24314" data-name="Rectángulo 24314" width="5.075" height="2.439" transform="translate(32.288 12.459)" fill="#f8a510"/>
            <path id="Trazado_151563" data-name="Trazado 151563" d="M216.746,268.031l-5.075.345v-.691h5.075Z" transform="translate(-179.384 -254.535)" fill="#ba7c0c"/>
            <path id="Trazado_151564" data-name="Trazado 151564" d="M211.736,266.255a1.264,1.264,0,0,0,.233.064.722.722,0,0,1,.477.2c.116.14.1.323.185.474.305.521.5-.113.634-.345a.765.765,0,0,1,.906-.256c.292.163.036.66.305.852.379.269.485-.533.526-.749.051-.271.218-.7.594-.612.355.083.274.616.366.879.047.13.134.35.3.22.106-.086.065-.384.082-.508a.716.716,0,0,1,.17-.442.427.427,0,0,1,.12-.087v-.678h-4.895Z" transform="translate(-179.359 -255.459)" fill="#e9f9f9"/>
          </g>
        </g>
        <g id="Grupo_94700" data-name="Grupo 94700" transform="translate(101.502 48.08)">
          <g id="Grupo_94689" data-name="Grupo 94689">
            <g id="Grupo_94686" data-name="Grupo 94686" transform="translate(0 6.14)">
              <path id="Trazado_151565" data-name="Trazado 151565" d="M274.54,294.733s1.528,4.877-1.726,18.372l.435,15.565h-1.889s-3.523-7.705-3.111-14.874c0,0-2.68-11.2-1.4-17.955C266.846,295.841,270.342,292.557,274.54,294.733Z" transform="translate(-259.964 -270.953)" fill="#2466b4"/>
              <path id="Trazado_151566" data-name="Trazado 151566" d="M266.5,299.812a14.4,14.4,0,0,0,2.176,7.64c.654-3.026.167-7.063.605-12.821l-.192-.286a7.722,7.722,0,0,0-2.245,1.359c-.043.222-.077.443-.112.665A24.981,24.981,0,0,0,266.5,299.812Z" transform="translate(-259.964 -270.817)" fill="#0d134f"/>
              <path id="Trazado_151567" data-name="Trazado 151567" d="M263.092,291.8s-3.533,7.249.948,20.862c0,0-1.981,3.016,0,17.919h1.723l2.412-17.661a152.976,152.976,0,0,0,2.977-17.869Z" transform="translate(-261.769 -271.787)" fill="#2466b4"/>
              <path id="Trazado_151568" data-name="Trazado 151568" d="M278.932,281.046s1.7,1.538-1.788,11.294l-.582,10.407.582,2.01-.582,2.307a1.9,1.9,0,0,1-.362-2.059s-1.777.993-2.309-.189l.768-2.423-1.036-9.462,1.983-9.815S276.107,281.043,278.932,281.046Z" transform="translate(-257.246 -275.892)" fill="#f09474"/>
              <g id="Grupo_94685" data-name="Grupo 94685" transform="translate(5.071 26.439)">
                <path id="Trazado_151569" data-name="Trazado 151569" d="M279.821,307.585l-1-.26c.955-3.668.723-6.365-.689-8.02-1.778-2.082-4.878-1.806-4.911-1.8-6.282.22-6.742,9-6.746,9.087l-1.033-.046c0-.1.518-9.822,7.712-10.072.117-.014,3.642-.325,5.765,2.162C280.563,300.561,280.865,303.571,279.821,307.585Z" transform="translate(-265.44 -296.452)" fill="#fdd247"/>
              </g>
              <path id="Trazado_151570" data-name="Trazado 151570" d="M271.676,296.582l-.926.276-1.264-.276a2.46,2.46,0,0,1,0,1.252l.007,0a.8.8,0,0,0,.021.278c.128.482.553.49.974.49a4.009,4.009,0,0,1,1.285.162,1.165,1.165,0,0,0,1.127-.175,1.756,1.756,0,0,0,.33-.4l.638-.9Z" transform="translate(-258.825 -269.963)" fill="#f09474"/>
              <path id="Trazado_151571" data-name="Trazado 151571" d="M261.979,291.8" transform="translate(-261.69 -271.787)" fill="#fff"/>
              <path id="Trazado_151572" data-name="Trazado 151572" d="M270.706,279.289s5.217-6.115,12.669,3.18a18.229,18.229,0,0,1-2.647,6.149s-1.256,2.66-3.687,2.778c0,0-1.543,6.564-.775,9.7,0,0-8.233,4.889-14.287-3.765a41.222,41.222,0,0,0,4.411-8.932S267.4,282.733,270.706,279.289Z" transform="translate(-261.69 -277.315)" fill="#fdb18d"/>
              <path id="Trazado_151573" data-name="Trazado 151573" d="M276,298.909c-.17-.1-.329.058-.466.115.163-.41-.086-1.184-.637-1.042l-.062.021a.347.347,0,0,0-.407-.492c-.246.072-.39.315-.518.511a.945.945,0,0,0-.246.76.6.6,0,0,0,.6.453.69.69,0,0,0,.213.586c.144.12.32.185.463.028a.814.814,0,0,0,.1.944c.309.271.492.011.677-.233a2.216,2.216,0,0,0,.419-.734C276.2,299.592,276.272,299.062,276,298.909Z" transform="translate(-257.238 -269.615)" fill="#f09474"/>
              <path id="Trazado_151574" data-name="Trazado 151574" d="M276.474,298.443l-.579,2.31a1.9,1.9,0,0,1-.362-2.063s.068-1.111-.128-1.032c.083-.305.051.583.309.423a1.784,1.784,0,0,1,.573-.274h.006Z" transform="translate(-256.577 -269.578)" fill="#f09474"/>
              <path id="Trazado_151575" data-name="Trazado 151575" d="M280.728,288.618a25.578,25.578,0,0,0,1.3-2.356c.01-.07.015-.141.025-.213a20.807,20.807,0,0,0,.14-2.864c.006-.649.088-1.286.142-1.929-.2-.22-.4-.431-.6-.629,0,.166.006.329.006.493a11.6,11.6,0,0,1-.421,4.446c-.41.967-1,2.136-2.17,2.206a2.118,2.118,0,0,1-1.652-.383,2.139,2.139,0,0,1-.58-1.858,37.6,37.6,0,0,0,.475-3.929c.054-1.159.29-3.024-.554-3.9a2.767,2.767,0,0,0-.264-.235,6.2,6.2,0,0,0-1.969-.116l.1.026a1.945,1.945,0,0,1,1.5,2.414,11.609,11.609,0,0,1-1.749,3.321c-.822,1.133-1.889,2.321-3.4,1.94-1.366-.344-1.684-1.72-1.854-2.922a5.385,5.385,0,0,1-.044-.84,22.3,22.3,0,0,0-2.767,7.11,41.223,41.223,0,0,1-4.411,8.932c6.054,8.654,14.287,3.765,14.287,3.765-.768-3.133.775-9.7.775-9.7C279.472,291.278,280.728,288.618,280.728,288.618Z" transform="translate(-261.69 -277.315)" fill="#3ca8f4"/>
              <path id="Trazado_151576" data-name="Trazado 151576" d="M276.266,297.907c-.767-3.126.768-9.668.775-9.7-.495-.374-1.091-.622-1.6-1.009a7.648,7.648,0,0,1-.993-.775,3.41,3.41,0,0,0-.833-.758,16.359,16.359,0,0,0-.064,1.871,3.221,3.221,0,0,1-.846,1.459,9.94,9.94,0,0,0-1.261,3.151c-.533,1.538-2.056,4-3.953,3.915-1.746-.077-3.652-1.623-4.847-2.991-.4.662-.669,1.068-.669,1.068C268.033,302.8,276.266,297.907,276.266,297.907Z" transform="translate(-261.69 -274.128)" fill="#1d8acc"/>
              <path id="Trazado_151577" data-name="Trazado 151577" d="M280.21,279.23c-.774.6-.083,2.653.133,3.366a7.171,7.171,0,0,1,.555,3.559c-.361,1.441-2.071,1.434-3.109.742a3.392,3.392,0,0,1-1.386-2.948c-.035-.734.039-1.474,0-2.206-.04-.765-.464-1.253-.551-1.963-.211-1.712,3.064-2.112,4.052-1.158" transform="translate(-256.399 -277.01)" fill="#0d134f"/>
              <path id="Trazado_151578" data-name="Trazado 151578" d="M270.5,280.216s1.9-3.975,4.5-1.4c0,0,1.331,1.795-1.481,6.01,0,0-3.667,5.2-4.141,7.331,0,0,2.543,6.862,3.667,8.813a17.991,17.991,0,0,1,2.418,3.429s-5.736,1.832-4.138-2.374L265.3,292.2A59.5,59.5,0,0,1,270.5,280.216Z" transform="translate(-260.422 -277.073)" fill="#fdb18d"/>
              <path id="Trazado_151579" data-name="Trazado 151579" d="M264.379,304.025s.023,4.731,5.778,8.878l1.677-4.711-2.543-3.227Z" transform="translate(-260.774 -267.123)" fill="#f8a510"/>
              <path id="Trazado_151580" data-name="Trazado 151580" d="M280.831,307.835l-6.586,4.322-.066.041-1.659,1.085-.848.558-1.514.992a16.581,16.581,0,0,0-5.779-8.874l10.674-7A16.54,16.54,0,0,1,280.831,307.835Z" transform="translate(-260.774 -269.056)" fill="#fdd247"/>
              <path id="Trazado_151581" data-name="Trazado 151581" d="M263.693,319.872a5.628,5.628,0,0,1-.716,2.215s-1.165,1.524,1.109,1.524h2.467s1.553-.771-.195-1.869a2.357,2.357,0,0,1-.944-1.869Z" transform="translate(-261.422 -261.077)" fill="#fdb18d"/>
              <path id="Trazado_151582" data-name="Trazado 151582" d="M271.908,319.091l.181,1.509s5.836,1.194,6.1,2.016h-7.731l.215-1.763-.651-1.761Z" transform="translate(-258.622 -261.375)" fill="#fdb18d"/>
              <path id="Trazado_151583" data-name="Trazado 151583" d="M262.976,315.919c.138,1.616.333,3.423.6,5.461H265.3l.746-5.461Z" transform="translate(-261.309 -262.585)" fill="#fdb18d"/>
              <path id="Trazado_151584" data-name="Trazado 151584" d="M270.461,320.3h1.889l-.123-4.382H268.86A38.559,38.559,0,0,0,270.461,320.3Z" transform="translate(-259.064 -262.585)" fill="#fdb18d"/>
              <path id="Trazado_151585" data-name="Trazado 151585" d="M266.487,321.4a.63.63,0,0,1-.222.247,2.93,2.93,0,0,1-2.168.022,1.161,1.161,0,0,1-.774-.658,2.388,2.388,0,0,1-.345.645s-1.165,1.524,1.109,1.524h2.467S268.013,322.446,266.487,321.4Z" transform="translate(-261.422 -260.643)" fill="#62c1c5"/>
              <path id="Trazado_151586" data-name="Trazado 151586" d="M274.588,320.626c-.017.138,0,.253-.142.362a.765.765,0,0,1-.531.094c-.409-.017-.794-.088-1.212-.088-.753,0-1.5,0-2.242,0l-.127,1.036h7.731C277.926,321.588,276.177,321.039,274.588,320.626Z" transform="translate(-258.501 -260.789)" fill="#62c1c5"/>
            </g>
            <path id="Trazado_151587" data-name="Trazado 151587" d="M288.529,311.564l-4.843-1.344-11.088.574-2.941.155.847-.558,1.66-1.086.067-.041,2.207-.181,8.416-.693,1.085-1.851Z" transform="translate(-258.76 -260.023)" fill="#fdd247"/>
            <path id="Trazado_151588" data-name="Trazado 151588" d="M274.439,308.381l-1.841,1.711-2.941.155.847-.558,1.66-1.086.067-.041Z" transform="translate(-258.76 -259.321)" fill="#f8a510"/>
            <path id="Trazado_151589" data-name="Trazado 151589" d="M276.576,276.075l2.057,3.591,1.158,2.345s-1.344-1.972-4.189.283l-2.74-4.241A2.944,2.944,0,0,0,276.576,276.075Z" transform="translate(-257.537 -271.648)" fill="#fdb18d"/>
            <g id="Grupo_94688" data-name="Grupo 94688" transform="translate(19.039)">
              <g id="Grupo_94687" data-name="Grupo 94687">
                <path id="Trazado_151590" data-name="Trazado 151590" d="M275.55,277.3s1.908-6.518,7.083-3.736c0,0,3.982,1.346.557,7.565-.26.47-.2,1.517-.553,2.038l-.892-.609s-1.593,1.911-2.613,1.149l-3.541-4.561Z" transform="translate(-275.55 -272.871)" fill="#fdb18d"/>
              </g>
            </g>
            <path id="Trazado_151591" data-name="Trazado 151591" d="M285.6,276.855a4.988,4.988,0,0,1-5.081,1.1,6.229,6.229,0,0,1-2.461,1.938,4.706,4.706,0,0,1-.682.232,5.607,5.607,0,0,1-4.512-.848,2.941,2.941,0,0,0,3.711-1.98s1.908-6.513,7.086-3.732A3.226,3.226,0,0,1,285.6,276.855Z" transform="translate(-257.536 -272.87)" fill="#0a3c5f"/>
            <path id="Trazado_151592" data-name="Trazado 151592" d="M284.761,273.939a4.25,4.25,0,0,1-.108.834c-.385,1.558-1.669,2.081-3.12,2.079-1.295,0-2.8,0-3.378-1.386a3.371,3.371,0,0,1-.251-1.154,8.912,8.912,0,0,0-1.329,2.574,2.941,2.941,0,0,1-3.711,1.98,5.607,5.607,0,0,0,4.512.848,4.706,4.706,0,0,0,.682-.232,6.23,6.23,0,0,0,2.461-1.938,4.989,4.989,0,0,0,5.081-1.1A3.491,3.491,0,0,0,284.761,273.939Z" transform="translate(-257.536 -272.463)" fill="#0d134f"/>
            <path id="Trazado_151593" data-name="Trazado 151593" d="M277.762,276.458c-.414.707-.391,1.492.052,1.75s1.138-.1,1.552-.811.391-1.492-.052-1.752S278.175,275.749,277.762,276.458Z" transform="translate(-255.78 -271.844)" fill="#fdb18d"/>
          </g>
          <g id="Grupo_94699" data-name="Grupo 94699" transform="translate(28.468 32.3)">
            <path id="Trazado_151594" data-name="Trazado 151594" d="M295.919,309.791c1.674-5.652-3.978-9.31-6.177-13.541.037,2.169-.537,4.171.043,6.325.605,2.245,1.513,3.792,1.277,6.167-.209,2.081-.671,4.664.105,6.724a20.637,20.637,0,0,0,2.447,4.175c.464-1.169,1.315-2.213,1.547-3.65.157-.978-.2-2.246-.135-3.3A11.6,11.6,0,0,1,295.919,309.791Z" transform="translate(-279.647 -296.25)" fill="#3d895b"/>
            <g id="Grupo_94690" data-name="Grupo 94690" transform="translate(20.696 18.841)">
              <path id="Trazado_151595" data-name="Trazado 151595" d="M308.868,310.726a6.256,6.256,0,0,0-3.651-.83,4.171,4.171,0,0,0-3.656,1.641,8.462,8.462,0,0,1-1.159,1.347c-.532.363-1.354.376-1.89.848a5.02,5.02,0,0,0-1.156,2.889c.924-.1,2.119-.019,2.55-.087,1.394-.22,2.154-1.242,2.966-2.338.5-.674.667-.967,1.514-1.064a7.964,7.964,0,0,1,1.992.079,8.543,8.543,0,0,0,3.884-.246,2.166,2.166,0,0,1,1.605.384C311.354,312.265,309.739,311.379,308.868,310.726Z" transform="translate(-297.355 -309.887)" fill="#73c176"/>
            </g>
            <g id="Grupo_94691" data-name="Grupo 94691" transform="translate(19.358 10.311)">
              <path id="Trazado_151596" data-name="Trazado 151596" d="M304.508,305.278a11.348,11.348,0,0,0-1.6,2.82,5.851,5.851,0,0,1-1.739,2.658,14.287,14.287,0,0,1-2.389.917c-1.984.951-2.784,3.664-2.211,5.818,1.05-.7,1.808-1.954,2.857-2.689,1.263-.886,1.963-2.345,3.168-3.238,1.317-.979,2.671-1.224,3.555-2.8a7.437,7.437,0,0,0,.85-3.984c-.011-.193-.091-.634-.135-1.067a2.91,2.91,0,0,0-.278.152C305.779,304.391,305.126,304.466,304.508,305.278Z" transform="translate(-296.387 -303.713)" fill="#3d895b"/>
            </g>
            <g id="Grupo_94692" data-name="Grupo 94692" transform="translate(0 11.989)">
              <path id="Trazado_151597" data-name="Trazado 151597" d="M290.66,310.073a8.373,8.373,0,0,0-3.067-3.984c-1.628-1.148-3.262-1.161-5.218-1.161a7.19,7.19,0,0,0,1.162,3.4c1.125,1.257,2.671,1.275,3.566,3.026.909,1.777,1.047,3.682,2.865,4.946,1.564,1.087,3.578,1,5.121,2.2-.442-1.6-.475-3.3-1.666-4.739C292.28,312.379,291.354,311.865,290.66,310.073Z" transform="translate(-282.375 -304.928)" fill="#73c176"/>
            </g>
            <g id="Grupo_94693" data-name="Grupo 94693" transform="translate(3.13 14.274)">
              <path id="Trazado_151598" data-name="Trazado 151598" d="M290.5,314.009c.825.819,1.763,1.489,2.571,2.2a8.2,8.2,0,0,1,1.887,2.26l-.015-.025a13.485,13.485,0,0,1,.622,1.409c.166.413.294.772.4,1.065a3,3,0,0,1,.275.939c-.037.021-.224-.28-.5-.84l-.5-1.021c-.188-.4-.408-.851-.658-1.293l-.006-.01-.01-.015a8.413,8.413,0,0,0-1.849-2.06c-.8-.671-1.749-1.332-2.629-2.2a9.711,9.711,0,0,1-.681-.8c-.181-.3-.383-.579-.532-.883a9,9,0,0,1-.568-1.817,5.259,5.259,0,0,0-.548-1.5,5.649,5.649,0,0,0-.844-1.116,8.222,8.222,0,0,0-1.639-1.259c-.421-.264-.658-.413-.64-.45s.285.046.746.251A6.622,6.622,0,0,1,287.2,308a5.614,5.614,0,0,1,.97,1.163,5.426,5.426,0,0,1,.655,1.615,9.117,9.117,0,0,0,.562,1.7c.137.271.325.521.486.79C290.053,313.537,290.3,313.759,290.5,314.009Z" transform="translate(-284.64 -306.582)" fill="#f8a510"/>
            </g>
            <g id="Grupo_94694" data-name="Grupo 94694" transform="translate(11.111 3.883)">
              <path id="Trazado_151599" data-name="Trazado 151599" d="M293.616,312c-.908,3.622-.181,6.98.236,9.367a25,25,0,0,1,.625,3.913,3.885,3.885,0,0,1-.326-1.017c-.167-.663-.426-1.618-.7-2.813a33.447,33.447,0,0,1-.743-4.257q-.044-.611-.09-1.256c.008-.43.018-.87.026-1.318a10.62,10.62,0,0,1,.159-1.361c.061-.467.155-.91.245-1.364a18.5,18.5,0,0,0,.311-2.654,10.781,10.781,0,0,0-.2-2.452,19.871,19.871,0,0,0-1.46-3.965,21.186,21.186,0,0,1-1.068-2.707,3.378,3.378,0,0,1-.2-1.053,4.361,4.361,0,0,1,.412.98c.254.63.669,1.517,1.224,2.6a18.257,18.257,0,0,1,1.612,4.027,10.873,10.873,0,0,1,.25,2.581A18.016,18.016,0,0,1,293.616,312Z" transform="translate(-290.418 -299.061)" fill="#f8a510"/>
              <path id="Trazado_151600" data-name="Trazado 151600" d="M294.169,308.961a4.191,4.191,0,0,1,.11-.731c-.1-.112-.2-.221-.32-.337a4.535,4.535,0,0,1-.993-1.86c-.793,1.478-1.549,3.4-1.02,4.979a14.86,14.86,0,0,0,1.4,2.4,3.855,3.855,0,0,1,.305.709,6.331,6.331,0,0,0,.653-1.858C294.462,311.28,294.105,310.012,294.169,308.961Z" transform="translate(-289.902 -296.4)" fill="#0d134f"/>
            </g>
            <g id="Grupo_94695" data-name="Grupo 94695" transform="translate(17.17 14.826)">
              <path id="Trazado_151601" data-name="Trazado 151601" d="M298.158,314.194a24.764,24.764,0,0,0-1.12,3.683,10.8,10.8,0,0,1-.647,1.623c-.25.475-.49.908-.687,1.31a9.875,9.875,0,0,0-.821,2.756,1.747,1.747,0,0,1-.079-.8,5.687,5.687,0,0,1,.528-2.128c.178-.427.4-.875.629-1.354a11.225,11.225,0,0,0,.565-1.56,21.562,21.562,0,0,1,1.112-3.787,6.917,6.917,0,0,1,.558-.916,8.645,8.645,0,0,1,.673-.789c.477-.47.964-.88,1.435-1.261.955-.745,1.82-1.377,2.506-1.956,1.375-1.154,2-2.094,2.088-2.034.033.022-.1.268-.384.7a9.969,9.969,0,0,1-1.431,1.639c-.667.631-1.521,1.31-2.441,2.064A8.989,8.989,0,0,0,298.158,314.194Z" transform="translate(-294.803 -306.981)" fill="#f8a510"/>
            </g>
            <g id="Grupo_94696" data-name="Grupo 94696" transform="translate(17.751 19.956)">
              <path id="Trazado_151602" data-name="Trazado 151602" d="M300.546,315.314a5.791,5.791,0,0,0-1.634.865,8.159,8.159,0,0,0-1.243,1.2,15.955,15.955,0,0,0-1.608,2.508,20.792,20.792,0,0,0-.792,2.644c-.04,0-.052-.271-.04-.764a6.733,6.733,0,0,1,.457-2.045,13.828,13.828,0,0,1,1.568-2.677,8.226,8.226,0,0,1,1.314-1.318,6.138,6.138,0,0,1,1.759-.949,5.094,5.094,0,0,0,1.59-.881,9.246,9.246,0,0,0,1.115-1.337,3.953,3.953,0,0,1,2.552-1.81,5.122,5.122,0,0,1,2.1.149c.474.12.727.213.72.25s-.278.022-.759-.029a5.9,5.9,0,0,0-1.981.032,3.623,3.623,0,0,0-2.2,1.724,9.231,9.231,0,0,1-1.162,1.438A5.4,5.4,0,0,1,300.546,315.314Z" transform="translate(-295.224 -310.695)" fill="#f8a510"/>
            </g>
            <g id="Grupo_94697" data-name="Grupo 94697" transform="translate(13.453 2.611)">
              <path id="Trazado_151603" data-name="Trazado 151603" d="M297.938,305.413a7.142,7.142,0,0,0,.42-5.086c-.264-.746-.654-1.438-.9-2.187a5.4,5.4,0,0,0-.539.774,10.692,10.692,0,0,0-.413,1.849,12.092,12.092,0,0,1-1.1,3.151c-1.051,1.879-2.8,3.23-3.2,5.483a8.691,8.691,0,0,0,1.666,6.29,5.6,5.6,0,0,1,1.14,2.111c.073.387.069.77.112,1.133a17.6,17.6,0,0,1,1.778-2.561,6.023,6.023,0,0,0,.951-5.477A9.4,9.4,0,0,1,297.938,305.413Z" transform="translate(-292.112 -298.14)" fill="#73c176"/>
            </g>
            <g id="Grupo_94698" data-name="Grupo 94698" transform="translate(15.824 5.908)">
              <path id="Trazado_151604" data-name="Trazado 151604" d="M294.769,312.544a17.273,17.273,0,0,1,0,4.975c-.17,1.51-.358,2.852-.384,3.982a25.194,25.194,0,0,0,.269,3.653,3.24,3.24,0,0,1-.347-.942,5.451,5.451,0,0,1-.227-1.156c-.026-.229-.07-.474-.088-.735s-.01-.536-.017-.825a37.419,37.419,0,0,1,.264-4.029,17.942,17.942,0,0,0-.043-4.837,11.254,11.254,0,0,1-.128-4.989c.134-.372.3-.734.454-1.065q.272-.466.525-.9c.336-.579.645-1.116.877-1.629a7.7,7.7,0,0,0,.738-2.53,4.265,4.265,0,0,1,.07-.988,2.782,2.782,0,0,1,.155,1,6.89,6.89,0,0,1-.589,2.687,17.05,17.05,0,0,1-.833,1.7l-.5.913c-.139.315-.272.634-.39.971A11.274,11.274,0,0,0,294.769,312.544Z" transform="translate(-293.828 -300.526)" fill="#f8a510"/>
            </g>
            <path id="Trazado_151605" data-name="Trazado 151605" d="M313.952,324.108H283.269a10.216,10.216,0,0,1,4.054-4.37,17.4,17.4,0,0,1,3.716-1.143,23.684,23.684,0,0,0,3.571-1.657c3.03-1.3,5.361.964,8.252,1.143,1.314.079,2.516-.739,3.889-.622a6.4,6.4,0,0,1,3.881,2.114C312.165,321.177,312.771,322.741,313.952,324.108Z" transform="translate(-282.034 -288.509)" fill="#1cdbc9"/>
          </g>
        </g>
      </g>
    </g>
  </g>
</svg>
