<svg xmlns="http://www.w3.org/2000/svg" width="80" height="82.63" viewBox="0 0 80 82.63">
  <g id="Grupo_94417" data-name="Grupo 94417" transform="translate(-216 -214.686)">
    <g id="Grupo_94473" data-name="Grupo 94473">
      <g id="Grupo_94463" data-name="Grupo 94463">
        <g id="Grupo_94461" data-name="Grupo 94461">
          <circle id="Elipse_5033" data-name="Elipse 5033" cx="22.216" cy="22.216" r="22.216" transform="translate(233.784 251.673)" fill="#6d81d5"/>
          <path id="Trazado_151079" data-name="Trazado 151079" d="M278.216,273.889A22.217,22.217,0,0,1,256,296.106a22.577,22.577,0,0,1-2.971-.2,22.22,22.22,0,0,0,0-44.039,22.577,22.577,0,0,1,2.971-.2A22.215,22.215,0,0,1,278.216,273.889Z" fill="#5169cd"/>
          <path id="Trazado_151080" data-name="Trazado 151080" d="M265.995,276.687a2.668,2.668,0,0,0,2.668,2.669h8.873a22.2,22.2,0,0,0,.678-5.338h-9.551a2.668,2.668,0,0,0-2.668,2.669Z" fill="#27e19d"/>
          <path id="Trazado_151081" data-name="Trazado 151081" d="M272.269,274.018a22.2,22.2,0,0,1-.678,5.338h5.944a22.2,22.2,0,0,0,.679-5.338Z" fill="#26d192"/>
          <path id="Trazado_151082" data-name="Trazado 151082" d="M263.364,268.488a4.369,4.369,0,0,1-4.369,4.369H247.481a2.437,2.437,0,1,0,0,4.874h1.2a4.351,4.351,0,0,1,0,8.7H237.662A22.218,22.218,0,0,1,256,251.674c.368,0,.735.01,1.1.027a7.243,7.243,0,0,1,.464,2.563,5.714,5.714,0,0,1-5.714,5.715,2.07,2.07,0,1,0,0,4.141h7.147a4.367,4.367,0,0,1,4.369,4.368Z" fill="#27e19d"/>
          <g id="Grupo_94460" data-name="Grupo 94460">
            <path id="Trazado_151083" data-name="Trazado 151083" d="M257.563,254.264a5.714,5.714,0,0,1-5.715,5.714,2.071,2.071,0,1,0,0,4.142h-4.255a2.071,2.071,0,1,1,0-4.142,5.712,5.712,0,0,0,5.715-5.714,7.249,7.249,0,0,0-.4-2.376,22.18,22.18,0,0,1,3.09-.214q.552,0,1.1.027a7.262,7.262,0,0,1,.464,2.563Z" fill="#26d192"/>
            <path id="Trazado_151084" data-name="Trazado 151084" d="M263.364,268.488a4.369,4.369,0,0,1-4.369,4.369h-4.254a4.368,4.368,0,1,0,0-8.737H259a4.367,4.367,0,0,1,4.368,4.368Z" fill="#26d192"/>
            <path id="Trazado_151085" data-name="Trazado 151085" d="M253.029,282.082a4.351,4.351,0,0,1-4.35,4.351h-4.255a4.351,4.351,0,1,0,0-8.7h-1.2a2.437,2.437,0,1,1,0-4.874h4.255a2.437,2.437,0,1,0,0,4.874h1.2a4.35,4.35,0,0,1,4.35,4.351Z" fill="#26d192"/>
          </g>
        </g>
        <g id="Grupo_94462" data-name="Grupo 94462">
          <path id="Trazado_151086" data-name="Trazado 151086" d="M264.088,289.47h-2.894a3.038,3.038,0,1,1,0-6.075h2.894a3.038,3.038,0,1,1,0,6.075Z" fill="#27e19d"/>
          <path id="Trazado_151087" data-name="Trazado 151087" d="M267.126,286.433a3.039,3.039,0,0,1-3.038,3.037h-2.9a2.8,2.8,0,0,1-.432-.032,3.036,3.036,0,0,0,0-6.01,2.8,2.8,0,0,1,.432-.032h2.9a3.038,3.038,0,0,1,3.038,3.037Z" fill="#26d192"/>
        </g>
      </g>
      <g id="Grupo_94472" data-name="Grupo 94472">
        <g id="Grupo_94466" data-name="Grupo 94466">
          <g id="Grupo_94464" data-name="Grupo 94464">
            <path id="Trazado_151088" data-name="Trazado 151088" d="M289.187,261.5a27.188,27.188,0,0,1-3.521,13.415,2.768,2.768,0,0,0,.98,3.72l.047.029a2.773,2.773,0,0,0,3.855-.995,32.879,32.879,0,0,0-6.348-40.325,2.777,2.777,0,0,0-3.834.062l-.04.039a2.766,2.766,0,0,0,.072,4A27.153,27.153,0,0,1,289.187,261.5Z" fill="#20b69f"/>
          </g>
          <path id="Trazado_151089" data-name="Trazado 151089" d="M287.936,241.411a6.057,6.057,0,0,1-1.755.258h-1.733V243.4a6.036,6.036,0,0,1-.4,2.158,27.167,27.167,0,0,0-3.653-4.111,2.767,2.767,0,0,1-.072-4c.014-.013.027-.028.04-.04a2.775,2.775,0,0,1,3.832-.063,32.615,32.615,0,0,1,3.738,4.066Z" fill="#17998c"/>
          <g id="Grupo_94465" data-name="Grupo 94465">
            <path id="Trazado_151090" data-name="Trazado 151090" d="M289.058,235.591a2.876,2.876,0,0,1-2.876,2.876h-4.937V243.4a2.876,2.876,0,1,1-5.752,0v-7.813a2.876,2.876,0,0,1,2.876-2.876h7.813A2.877,2.877,0,0,1,289.058,235.591Z" fill="#23f1a8"/>
          </g>
        </g>
        <g id="Grupo_94471" data-name="Grupo 94471">
          <g id="Grupo_94467" data-name="Grupo 94467">
            <path id="Trazado_151091" data-name="Trazado 151091" d="M222.814,261.5a27.188,27.188,0,0,0,3.521,13.415,2.768,2.768,0,0,1-.98,3.72l-.048.029a2.772,2.772,0,0,1-3.854-.995,32.879,32.879,0,0,1,6.348-40.325,2.776,2.776,0,0,1,3.833.062l.041.039a2.766,2.766,0,0,1-.072,4A27.153,27.153,0,0,0,222.814,261.5Z" fill="#20b69f"/>
          </g>
          <path id="Trazado_151092" data-name="Trazado 151092" d="M224.065,241.411a6.056,6.056,0,0,0,1.754.258h1.734V243.4a6.036,6.036,0,0,0,.4,2.158,27.167,27.167,0,0,1,3.653-4.111,2.767,2.767,0,0,0,.072-4c-.014-.013-.027-.028-.04-.04a2.775,2.775,0,0,0-3.832-.063A32.615,32.615,0,0,0,224.065,241.411Z" fill="#17998c"/>
          <g id="Grupo_94470" data-name="Grupo 94470">
            <g id="Grupo_94468" data-name="Grupo 94468">
              <path id="Trazado_151093" data-name="Trazado 151093" d="M222.943,235.591a2.876,2.876,0,0,0,2.876,2.876h4.937V243.4a2.876,2.876,0,1,0,5.751,0v-7.813a2.876,2.876,0,0,0-2.876-2.876h-7.812A2.876,2.876,0,0,0,222.943,235.591Z" fill="#23f1a8"/>
            </g>
            <g id="Grupo_94469" data-name="Grupo 94469">
              <path id="Trazado_151094" data-name="Trazado 151094" d="M256,250.463a23.429,23.429,0,0,0-23.211,20.256,1.21,1.21,0,1,0,2.4.325A21.064,21.064,0,0,1,256,252.884l.194,0a6.1,6.1,0,0,1,.158,1.378,4.5,4.5,0,0,1-4.5,4.5,3.281,3.281,0,1,0,0,6.562h7.147a3.159,3.159,0,0,1,0,6.317H247.481a3.647,3.647,0,1,0,0,7.295h1.2a3.141,3.141,0,0,1,0,6.281H238.308a20.874,20.874,0,0,1-3.164-8.829,1.21,1.21,0,0,0-2.4.286,23.426,23.426,0,0,0,38.4,15.087,1.21,1.21,0,1,0-1.565-1.847,21.01,21.01,0,0,1-29.454-2.276h8.56a5.562,5.562,0,0,0,0-11.123h-1.2a1.227,1.227,0,0,1,0-2.454H259a5.579,5.579,0,1,0,0-11.158h-7.148a.86.86,0,1,1,0-1.72,6.922,6.922,0,0,0,6.925-6.925,8.689,8.689,0,0,0-.085-1.209,21.042,21.042,0,0,1,18.291,19.753h-8.316a3.879,3.879,0,0,0,0,7.758h7.257a20.9,20.9,0,0,1-2.733,5.4,1.21,1.21,0,0,0,1.979,1.394A23.428,23.428,0,0,0,256,250.463Zm12.663,27.682a1.458,1.458,0,1,1,0-2.916h8.3a20.85,20.85,0,0,1-.388,2.916Z"/>
              <path id="Trazado_151095" data-name="Trazado 151095" d="M261.194,282.185a4.248,4.248,0,0,0,0,8.5h2.894a4.248,4.248,0,0,0,0-8.5Zm4.721,4.248a1.829,1.829,0,0,1-1.827,1.827h-2.894a1.827,1.827,0,0,1,0-3.654h2.894A1.829,1.829,0,0,1,265.915,286.433Z"/>
              <path id="Trazado_151096" data-name="Trazado 151096" d="M243.581,267.648h1.14a1.211,1.211,0,1,0,0-2.421h-1.14a1.211,1.211,0,1,0,0,2.421Z"/>
              <path id="Trazado_151097" data-name="Trazado 151097" d="M239.849,272.135a1.211,1.211,0,0,0,0-2.421h-1.14a1.211,1.211,0,1,0,0,2.421Z"/>
              <path id="Trazado_151098" data-name="Trazado 151098" d="M241.23,281.676a1.211,1.211,0,0,0,1.21,1.211h1.141a1.21,1.21,0,0,0,0-2.421H242.44A1.21,1.21,0,0,0,241.23,281.676Z"/>
              <path id="Trazado_151099" data-name="Trazado 151099" d="M287.8,239.34a4.085,4.085,0,0,0-1.623-7.835H278.37a4.091,4.091,0,0,0-4.087,4.086V243.4a4.086,4.086,0,0,0,7.834,1.627,26.095,26.095,0,0,1,2.5,29.29A3.96,3.96,0,0,0,286,279.662l.062.038a3.956,3.956,0,0,0,2.066.584,4.054,4.054,0,0,0,1.015-.13,3.944,3.944,0,0,0,2.458-1.887,34.1,34.1,0,0,0-3.8-38.927Zm-7.77,4.064a1.665,1.665,0,0,1-3.331,0v-7.813a1.667,1.667,0,0,1,1.666-1.665h7.812a1.666,1.666,0,1,1,0,3.331h-4.937a1.21,1.21,0,0,0-1.21,1.21Zm9.46,33.671a1.541,1.541,0,0,1-.96.736,1.565,1.565,0,0,1-1.217-.181l0,0-.037-.024a1.548,1.548,0,0,1-.557-2.09,28.5,28.5,0,0,0-4.264-33.741v-2.1h2.389a31.67,31.67,0,0,1,4.65,37.4Z"/>
              <path id="Trazado_151100" data-name="Trazado 151100" d="M233.631,247.49a4.092,4.092,0,0,0,4.087-4.086v-7.813a4.091,4.091,0,0,0-4.087-4.086h-7.812a4.085,4.085,0,0,0-1.624,7.835,34.1,34.1,0,0,0-3.8,38.927,3.937,3.937,0,0,0,2.458,1.886,4.007,4.007,0,0,0,1.015.132,3.943,3.943,0,0,0,2.059-.581c.023-.014.047-.028.069-.043a3.959,3.959,0,0,0,1.388-5.34,26.095,26.095,0,0,1,2.5-29.29A4.09,4.09,0,0,0,233.631,247.49Zm-7.812-13.564h7.812a1.667,1.667,0,0,1,1.666,1.665V243.4a1.665,1.665,0,0,1-3.331,0v-4.937a1.211,1.211,0,0,0-1.211-1.21h-4.936a1.666,1.666,0,1,1,0-3.331Zm-.538,41.588a1.548,1.548,0,0,1-.557,2.09l-.03.019-.016.01a1.562,1.562,0,0,1-1.212.178,1.541,1.541,0,0,1-.96-.736,31.67,31.67,0,0,1,4.65-37.4h2.389v2.1a28.5,28.5,0,0,0-4.264,33.741Z"/>
            </g>
          </g>
        </g>
      </g>
    </g>
    <g id="Grupo_94476" data-name="Grupo 94476">
      <g id="Grupo_94474" data-name="Grupo 94474">
        <path id="Trazado_151101" data-name="Trazado 151101" d="M264.858,233.12a2.7,2.7,0,0,0-1.074.193l0,0a1.727,1.727,0,0,1,.226-1.8l.325-.408a3.664,3.664,0,0,0,.805-2.293,3.75,3.75,0,0,0-.14-1,3.663,3.663,0,0,0-.744-1.383l-.374-.438-.744-.865a1.1,1.1,0,0,1,.838-1.82h.408V220.28h-.634a3.779,3.779,0,0,0-.91.109,3.894,3.894,0,0,0-2.988,3.788,3.92,3.92,0,0,0,.2,1.235l.48,1.443a1.451,1.451,0,0,1,.076.457,1.453,1.453,0,0,1-1.266,1.435l-.34.042a4.173,4.173,0,0,0-2.424,1.185l-.5.5v3.4h0c-1.464,0-1.464-.756-2.927-.756s-1.463.756-2.926.756-1.462-.756-2.925-.756-4.327.756-5.79.756c0,0,1.234,6.594,2.864,7.931,13.974,11.464,23.415,0,23.415,0l3.274-7.931c-1.465,0-4.738-.756-6.2-.756Z" fill="#5cd6b3"/>
        <path id="Trazado_151102" data-name="Trazado 151102" d="M265.9,237.652a1.511,1.511,0,1,1,0,3.022h-.023a1.477,1.477,0,0,1-.672-.159L264.169,240l.975-.835-.975-.835,1.035-.517a1.477,1.477,0,0,1,.672-.159Z" fill="#ef7385"/>
        <path id="Trazado_151103" data-name="Trazado 151103" d="M257.288,238.045a5.317,5.317,0,0,1,1.541-.853,5.24,5.24,0,0,1,5.144.967l.2.169.975.835-.975.835-.362.309a4.61,4.61,0,0,1-3.029,1.122A4.568,4.568,0,0,1,257,239.4a.964.964,0,0,1,.2-1.288Z" fill="#ef7385"/>
        <path id="Trazado_151104" data-name="Trazado 151104" d="M260.574,239.654a1.872,1.872,0,0,0,.038-.381,3.129,3.129,0,0,0-.087-.586h0l.741-.245a.6.6,0,0,1,.2-.034.65.65,0,0,1,.649.649v.212a.649.649,0,0,1-.649.649.6.6,0,0,1-.2-.034l-.691-.23Z" fill="#ffeaa7"/>
        <path id="Trazado_151105" data-name="Trazado 151105" d="M249.467,236.142a1.311,1.311,0,0,1,1.223.834,5.244,5.244,0,0,0-2.5,1.183l-.038.03v-.729a1.316,1.316,0,0,1,1.319-1.318Z" fill="#ffc729"/>
        <path id="Trazado_151106" data-name="Trazado 151106" d="M251.6,236.9a5.239,5.239,0,0,1,3.274,1.148l.091.072a.964.964,0,0,1,.2,1.288,4.568,4.568,0,0,1-3.781,2.024,4.641,4.641,0,0,1-3.029-1.122l-.525-.445-1.253,1.254a1.068,1.068,0,1,1-1.511-1.511l.442-.442-.442-.442a1.068,1.068,0,1,1,1.511-1.51l1.253,1.253.321-.275.038-.03A5.239,5.239,0,0,1,251.6,236.9Z" fill="#ffeaa7"/>
        <path id="Trazado_151107" data-name="Trazado 151107" d="M251.631,238.687h0a2.058,2.058,0,0,0-.087.586,1.872,1.872,0,0,0,.038.381h0l-.691.23a.6.6,0,0,1-.2.034.649.649,0,0,1-.649-.649v-.212a.65.65,0,0,1,.649-.649.6.6,0,0,1,.2.034Z" fill="#ffc729"/>
        <path id="Trazado_151108" data-name="Trazado 151108" d="M256.08,230.477v3.4h0c-1.462,0-1.462-.756-2.927-.756s-1.462.756-2.927.756-1.462-.756-2.923-.756a3.464,3.464,0,0,0-1.794.537v-4.313h1.586a3.778,3.778,0,0,0,7.4,0h1.587Z" fill="#aab2bd"/>
        <path id="Trazado_151109" data-name="Trazado 151109" d="M256.835,222.168v.755a.379.379,0,0,1-.378.378h-11.33a.379.379,0,0,1-.378-.378v-.755a.379.379,0,0,1,.378-.378h11.33A.379.379,0,0,1,256.835,222.168Z" fill="#ffeaa7"/>
        <path id="Trazado_151110" data-name="Trazado 151110" d="M256.08,223.3v4.532h-1.587a3.778,3.778,0,0,0-7.4,0h-1.586V223.3Z" fill="#aab2bd"/>
        <path id="Trazado_151111" data-name="Trazado 151111" d="M245.505,227.833h1.586a3.793,3.793,0,0,0,0,1.511h-1.586Z" fill="#ffeaa7"/>
        <path id="Trazado_151112" data-name="Trazado 151112" d="M254.569,228.588a3.8,3.8,0,0,0-.076-.755h1.587v1.511h-1.587A3.807,3.807,0,0,0,254.569,228.588Z" fill="#ffeaa7"/>
        <path id="Trazado_151113" data-name="Trazado 151113" d="M247.091,229.344a3.778,3.778,0,1,1,3.7,3.021A3.808,3.808,0,0,1,247.091,229.344Z" fill="#b27946"/>
        <path id="Trazado_151114" data-name="Trazado 151114" d="M252.3,229.344a1.511,1.511,0,0,1-3.022,0c0-1.133,1.511-3.022,1.511-3.022S252.3,228.211,252.3,229.344Z" fill="#ffeaa7"/>
        <path id="Trazado_151115" data-name="Trazado 151115" d="M265.9,219.524h1.511V223.3H265.9Z" fill="#aab2bd"/>
        <path id="Trazado_151116" data-name="Trazado 151116" d="M265.9,223.3v.378a.379.379,0,0,1-.378.377h-.755a.379.379,0,0,1-.378-.377v-4.532a.379.379,0,0,1,.378-.378h.755a.379.379,0,0,1,.378.378V223.3Z" fill="#656d78"/>
        <path id="Trazado_151117" data-name="Trazado 151117" d="M262.844,220.389a3.876,3.876,0,0,0-1.893,1.08,1.147,1.147,0,0,1-.339-.812,1.133,1.133,0,0,1,2.232-.272Z" fill="#37bc9b"/>
        <path id="Trazado_151118" data-name="Trazado 151118" d="M265.9,226.7a1.134,1.134,0,0,1-.895,1.107,3.663,3.663,0,0,0-.744-1.383l-.374-.438a1.133,1.133,0,0,1,2.013.714Z" fill="#37bc9b"/>
        <circle id="Elipse_5034" data-name="Elipse 5034" cx="0.755" cy="0.755" r="0.755" transform="translate(257.59 231.61)" fill="#ffeaa7"/>
        <path id="Trazado_151119" data-name="Trazado 151119" d="M262.5,231.61a1.132,1.132,0,0,1,.8,1.937,2.623,2.623,0,0,1-1,.31,1.132,1.132,0,0,1,.2-2.247Z" fill="#37bc9b"/>
      </g>
      <g id="Grupo_94475" data-name="Grupo 94475">
        <path id="Trazado_151120" data-name="Trazado 151120" d="M263.98,223.679h.031a.756.756,0,0,0,.755.755h.755a.756.756,0,0,0,.756-.755h1.51v-4.532h-1.51a.757.757,0,0,0-.756-.756h-.755a.756.756,0,0,0-.755.756v.755h-.256a4.183,4.183,0,0,0-.675.059,1.507,1.507,0,1,0-2.616,1.49,4.276,4.276,0,0,0-.766,4.081l.481,1.443a1.067,1.067,0,0,1-.881,1.4l-.34.043a4.553,4.553,0,0,0-2.5,1.161v-5.9a.757.757,0,0,0,.756-.756v-.755a.756.756,0,0,0-.756-.755h-11.33a.756.756,0,0,0-.755.755v.755a.756.756,0,0,0,.755.756V233.4a2.481,2.481,0,0,1-.755.1v.755a3.143,3.143,0,0,0,1.636-.419,2.642,2.642,0,0,1,2.579,0,3.4,3.4,0,0,0,3.272,0,2.644,2.644,0,0,1,2.58,0,3.407,3.407,0,0,0,3.274,0,2.644,2.644,0,0,1,2.58,0,3.407,3.407,0,0,0,3.274,0,2.65,2.65,0,0,1,2.583,0,3.138,3.138,0,0,0,1.637.419V233.5a2.4,2.4,0,0,1-1.291-.336,3.149,3.149,0,0,0-1.638-.419,3.429,3.429,0,0,0-.822.092,1.315,1.315,0,0,1,.271-1.087l.328-.408a4.023,4.023,0,0,0,.81-3.3,1.5,1.5,0,1,0-1.52-2.589l-.495-.579a.724.724,0,0,1,.55-1.2Zm2.3-3.777h.755v3.021h-.755Zm-1.511-.755h.755v4.532h-.756Zm-3.021.755a.755.755,0,0,1,.566.256,4.294,4.294,0,0,0-1.283.729.765.765,0,0,1-.039-.23A.756.756,0,0,1,261.745,219.9ZM255.7,233.476a2.457,2.457,0,0,1-.916-.314,3.405,3.405,0,0,0-3.273,0,2.642,2.642,0,0,1-2.579,0,3.143,3.143,0,0,0-1.636-.419,3.039,3.039,0,0,0-1.416.309v-3.331h.917a4.15,4.15,0,0,0,7.987,0h.916Zm-9.045-4.51h-.775v-.755h.775c-.011.124-.019.25-.019.377S246.646,228.841,246.657,228.966Zm.736-.378a3.4,3.4,0,1,1,3.4,3.4,3.4,3.4,0,0,1-3.4-3.4Zm8.309.378h-.775c.012-.125.019-.25.019-.378s-.007-.253-.019-.377h.775Zm0-1.511h-.916a4.15,4.15,0,0,0-7.987,0h-.917v-3.776h9.82Zm-10.575-4.532v-.755h11.33v.755Zm13.219,9.82a.378.378,0,1,1,.377-.378A.378.378,0,0,1,258.346,232.743Zm4.716.5a2.2,2.2,0,0,1-.74.231.757.757,0,1,1,.74-.231Zm1.7-7.3a.752.752,0,0,1,.457,1.352,4.024,4.024,0,0,0-.676-1.117l-.127-.149a.748.748,0,0,1,.346-.086Zm-1.91-.578,1.118,1.3a3.291,3.291,0,0,1,.071,4.2l-.327.408a2.159,2.159,0,0,0-.219.342,1.5,1.5,0,0,0-2.361,1.766,3.247,3.247,0,0,1-.5-.222,3.187,3.187,0,0,0-1.238-.4,1.132,1.132,0,1,0-1.912.335l-.124.063a2.456,2.456,0,0,1-.909.313v-2.842l.392-.392a3.791,3.791,0,0,1,2.2-1.077l.34-.043a1.824,1.824,0,0,0,1.5-2.385l-.481-1.443a3.522,3.522,0,0,1,3.34-4.636h.256v2.266h-.031a1.481,1.481,0,0,0-1.124,2.444Z"/>
        <circle id="Elipse_5035" data-name="Elipse 5035" cx="0.378" cy="0.378" r="0.378" transform="translate(258.723 238.03)"/>
        <path id="Trazado_151121" data-name="Trazado 151121" d="M265.878,237.275a1.908,1.908,0,0,0-.845.2l-.808.4-.007-.006a5.616,5.616,0,0,0-7.166-.121l-.091.072a1.343,1.343,0,0,0-.279,1.793h0a4.909,4.909,0,0,0,4.094,2.191,5.038,5.038,0,0,0,3.277-1.213l.171-.146.809.4a1.924,1.924,0,0,0,.865.2,1.888,1.888,0,1,0-.021-3.776Zm-2.316,2.746a4.283,4.283,0,0,1-2.785,1.03,4.176,4.176,0,0,1-.526-.033,2.421,2.421,0,0,0,.575-.882l.322.108a1.056,1.056,0,0,0,.324.052,1.029,1.029,0,0,0,1.028-1.028v-.211a1.029,1.029,0,0,0-1.028-1.027,1.01,1.01,0,0,0-.325.053l-.4.133c-.006-.012-.01-.024-.016-.036l-.16-.319-.675.338.159.318a1.7,1.7,0,0,1,.179.757,1.678,1.678,0,0,1-.934,1.506,4.161,4.161,0,0,1-1.989-1.583.591.591,0,0,1-.1-.326.584.584,0,0,1,.22-.458l.091-.072a4.861,4.861,0,0,1,6.2.1l.837.717Zm-2.6-1.081.421-.14a.276.276,0,0,1,.36.258v.211a.281.281,0,0,1-.358.259l-.406-.136c0-.04.008-.078.008-.118a2.488,2.488,0,0,0-.025-.334Zm4.914,1.356a1.141,1.141,0,0,1-.507-.119l-.524-.262.877-.752-.877-.751.524-.263a1.168,1.168,0,0,1,.528-.119,1.133,1.133,0,1,1-.021,2.266Z"/>
        <circle id="Elipse_5036" data-name="Elipse 5036" cx="0.378" cy="0.378" r="0.378" transform="translate(252.68 238.03)"/>
        <path id="Trazado_151122" data-name="Trazado 151122" d="M255.107,237.75a5.635,5.635,0,0,0-3.509-1.231,5.544,5.544,0,0,0-.694.049,1.692,1.692,0,0,0-3.133.891v.415l-.931-.931a1.446,1.446,0,0,0-2.045,2.044l.176.176-.176.176a1.446,1.446,0,1,0,2.045,2.044l1.009-1.008.256.219a5.038,5.038,0,0,0,3.277,1.213,4.911,4.911,0,0,0,4.1-2.192,1.341,1.341,0,0,0-.279-1.791Zm-5.642-1.231a.93.93,0,0,1,.6.217,5.617,5.617,0,0,0-1.535.7A.939.939,0,0,1,249.465,236.519Zm5.383,2.678a4.161,4.161,0,0,1-1.989,1.583,1.682,1.682,0,0,1-.755-2.262l.159-.319-.675-.338-.16.319c-.006.012-.01.024-.015.036l-.4-.134a1.045,1.045,0,0,0-.323-.052,1.029,1.029,0,0,0-1.028,1.028v.211a1.03,1.03,0,0,0,1.353.975l.32-.107a2.419,2.419,0,0,0,.576.881,4.176,4.176,0,0,1-.526.033,4.283,4.283,0,0,1-2.785-1.03l-.787-.675-1.5,1.5a.69.69,0,1,1-.977-.976l.71-.71-.71-.71a.69.69,0,0,1,.977-.976l1.5,1.5.624-.535a4.863,4.863,0,0,1,6.2-.106l.091.073h0a.584.584,0,0,1,.22.458.591.591,0,0,1-.1.326Zm-3.67.195-.4.134a.276.276,0,0,1-.36-.258v-.211a.279.279,0,0,1,.358-.258l.423.141a2.488,2.488,0,0,0-.025.334C251.17,239.314,251.177,239.352,251.178,239.392Z"/>
        <path id="Trazado_151123" data-name="Trazado 151123" d="M250.792,231.232a1.89,1.89,0,0,0,1.888-1.888c0-1.23-1.43-3.054-1.593-3.258l-.295-.368-.3.368c-.163.2-1.593,2.028-1.593,3.258A1.89,1.89,0,0,0,250.792,231.232Zm0-4.28a5.557,5.557,0,0,1,1.133,2.392,1.133,1.133,0,1,1-2.266,0A5.579,5.579,0,0,1,250.792,226.952Z"/>
        <path id="Trazado_151124" data-name="Trazado 151124" d="M261.871,222.262a3.013,3.013,0,0,0-.376,3.8l.709,1.063a1.76,1.76,0,0,1-.591,2.5l-1.566.9.374.655,1.566-.9a2.517,2.517,0,0,0,.846-3.58l-.71-1.063a2.261,2.261,0,0,1,.282-2.848l.362-.361-.534-.534Z"/>
      </g>
    </g>
    <path id="Trazado_151125" data-name="Trazado 151125" d="M256,248.287a16.7,16.7,0,0,0,9.536-2.969,1.211,1.211,0,0,0-1.376-1.992,14.375,14.375,0,1,1,3.688-3.691,1.211,1.211,0,0,0,1.994,1.373A16.8,16.8,0,1,0,256,248.287Z"/>
  </g>
</svg>
