<svg xmlns="http://www.w3.org/2000/svg" width="86" height="86" viewBox="0 0 86 86">
  <g id="Grupo_109145" data-name="Grupo 109145" transform="translate(-6576 10250)">
    <g id="Flat" transform="translate(6363 -10463)">
      <g id="Color_copy" data-name="Color copy">
        <circle id="Elipse_5061" data-name="Elipse 5061" cx="23.724" cy="23.724" r="23.724" transform="translate(232.276 232.276)" fill="#ffea00"/>
        <circle id="Elipse_5062" data-name="Elipse 5062" cx="17.793" cy="17.793" r="17.793" transform="translate(238.207 238.207)" fill="#ffd000"/>
        <path id="Trazado_167182" data-name="Trazado 167182" d="M277.144,266.765a23.724,23.724,0,1,1-31.909-31.909,23.724,23.724,0,0,0,31.909,31.909Z" fill="#ffd000"/>
        <path id="Trazado_167183" data-name="Trazado 167183" d="M256,238.207A17.793,17.793,0,1,0,273.793,256,17.793,17.793,0,0,0,256,238.207Zm11.491,31.108c-.37.015-.741.03-1.112.03a23.725,23.725,0,0,1-23.724-23.724c0-.371.015-.742.03-1.112a17.775,17.775,0,0,1,24.806,24.806Z" fill="#ffb700"/>
        <path id="Trazado_167184" data-name="Trazado 167184" d="M256,248.586a2.966,2.966,0,0,1,2.966,2.966,1.482,1.482,0,0,0,2.965,0,5.931,5.931,0,0,0-4.448-5.721v-1.693a1.483,1.483,0,0,0-2.966,0v1.693A5.919,5.919,0,0,0,256,257.483a2.965,2.965,0,1,1-2.966,2.965,1.482,1.482,0,0,0-2.965,0,5.931,5.931,0,0,0,4.448,5.721v1.693a1.483,1.483,0,0,0,2.966,0v-1.693A5.919,5.919,0,0,0,256,254.517a2.965,2.965,0,1,1,0-5.931Z" fill="#ffea00"/>
        <path id="Trazado_167185" data-name="Trazado 167185" d="M251.122,263.8a23.608,23.608,0,0,0,3.4,2.373A6,6,0,0,1,251.122,263.8Z" fill="#ffd000"/>
        <path id="Trazado_167186" data-name="Trazado 167186" d="M257.483,267.61v.252a1.483,1.483,0,0,1-2.966,0v-1.69A21.858,21.858,0,0,0,257.483,267.61Z" fill="#ffd000"/>
        <path id="Trazado_167187" data-name="Trazado 167187" d="M223.379,264.9a1.481,1.481,0,0,0-1.482,1.482v2.966a1.482,1.482,0,1,0,2.965,0v-2.966A1.482,1.482,0,0,0,223.379,264.9Z" fill="#d0d8da"/>
        <path id="Trazado_167188" data-name="Trazado 167188" d="M213,269.345h17.793V299H213Z" fill="#e9f1f2"/>
        <path id="Trazado_167189" data-name="Trazado 167189" d="M218.931,287.138V290.1a5.93,5.93,0,0,0,5.931,5.931h5.931V299H213V269.345h17.793v17.793Z" fill="#d0d8da"/>
        <path id="Trazado_167190" data-name="Trazado 167190" d="M230.793,287.138h11.862V299H230.793Z" fill="#ade8f4"/>
        <path id="Trazado_167191" data-name="Trazado 167191" d="M242.655,299H230.793v-5.931h4.448Z" fill="#48cae4"/>
        <path id="Trazado_167192" data-name="Trazado 167192" d="M242.655,293.069H230.793v-5.931h4.448Z" fill="#48cae4"/>
        <path id="Trazado_167193" data-name="Trazado 167193" d="M218.931,293.069h5.931V299h-5.931Z" fill="#ade8f4"/>
        <path id="Trazado_167194" data-name="Trazado 167194" d="M213,275.276h17.793v5.931H213Z" fill="#ade8f4"/>
        <path id="Trazado_167195" data-name="Trazado 167195" d="M213,269.345h17.793v5.931H213Z" fill="#ade8f4"/>
        <path id="Trazado_167196" data-name="Trazado 167196" d="M213,281.207h17.793v5.931H213Z" fill="#ade8f4"/>
        <path id="Trazado_167197" data-name="Trazado 167197" d="M213,263.414h5.931v5.931H213Z" fill="#e9f1f2"/>
        <path id="Trazado_167198" data-name="Trazado 167198" d="M230.793,275.276H213v-5.931h8.9Z" fill="#48cae4"/>
        <path id="Trazado_167199" data-name="Trazado 167199" d="M230.793,281.207H213v-5.931h8.9Z" fill="#48cae4"/>
        <path id="Trazado_167200" data-name="Trazado 167200" d="M230.793,287.138H213v-5.931h8.9Z" fill="#48cae4"/>
        <path id="Trazado_167201" data-name="Trazado 167201" d="M218.931,267.862v1.483H213v-5.931h1.483V264.9a2.974,2.974,0,0,0,2.965,2.965Z" fill="#d0d8da"/>
        <path id="Trazado_167202" data-name="Trazado 167202" d="M213,269.345h5.931v5.931H213Z" fill="#00b4d8"/>
        <path id="Trazado_167203" data-name="Trazado 167203" d="M213,275.276h5.931v5.931H213Z" fill="#00b4d8"/>
        <path id="Trazado_167204" data-name="Trazado 167204" d="M213,281.207h5.931v5.931H213Z" fill="#00b4d8"/>
        <path id="Trazado_167205" data-name="Trazado 167205" d="M224.862,296.034V299h-5.931v-5.931h.8A5.9,5.9,0,0,0,224.862,296.034Z" fill="#48cae4"/>
        <circle id="Elipse_5063" data-name="Elipse 5063" cx="11.862" cy="11.862" r="11.862" transform="translate(275.276 213)" fill="#ff7373"/>
        <path id="Trazado_167206" data-name="Trazado 167206" d="M298.377,228.658a11.862,11.862,0,1,1-18.03-13.523,11.862,11.862,0,0,0,18.03,13.523Z" fill="#ef5350"/>
        <circle id="Elipse_5064" data-name="Elipse 5064" cx="4.448" cy="4.448" r="4.448" transform="translate(282.69 218.931)" fill="#ffea00"/>
        <path id="Trazado_167207" data-name="Trazado 167207" d="M294.552,233.759v.355a11.835,11.835,0,0,1-14.828,0v-.355a5.931,5.931,0,0,1,5.931-5.931h2.966A5.931,5.931,0,0,1,294.552,233.759Z" fill="#ffea00"/>
        <path id="Trazado_167208" data-name="Trazado 167208" d="M294.552,233.759v.355a11.835,11.835,0,0,1-14.828,0v-.355a5.9,5.9,0,0,1,4.3-5.694,11.879,11.879,0,0,0,9.623,2.55A5.859,5.859,0,0,1,294.552,233.759Z" fill="#ffd000"/>
        <path id="Trazado_167209" data-name="Trazado 167209" d="M291.393,224.669a4.448,4.448,0,1,1-5.545-5.545,4.616,4.616,0,0,0-.193,1.29,4.448,4.448,0,0,0,4.448,4.448,4.581,4.581,0,0,0,1.29-.193Z" fill="#ffd000"/>
        <path id="Trazado_167210" data-name="Trazado 167210" d="M294.552,233.759v.355a11.835,11.835,0,0,1-14.828,0v-.355a5.861,5.861,0,0,1,2.639-4.923,7.44,7.44,0,0,0,6.258,3.44h5.738A5.461,5.461,0,0,1,294.552,233.759Z" fill="#ffb700"/>
        <path id="Trazado_167211" data-name="Trazado 167211" d="M222.442,235.241a2.817,2.817,0,0,1-2.669-1.927l-2.325-6.969h5.931l1.732,5.189a2.817,2.817,0,0,1-2.669,3.707Z" fill="#93999a"/>
        <path id="Trazado_167212" data-name="Trazado 167212" d="M222.445,235.241a2.8,2.8,0,0,1-2.669-1.927l-2.328-6.969h5.931l.712,2.15-2.194-.667h-1.483l.845,2.52a2.8,2.8,0,0,0,2.669,1.928,2.751,2.751,0,0,0,1.305-.326,2.835,2.835,0,0,1-2.342,3.254A2.767,2.767,0,0,1,222.445,235.241Z" fill="#656b76"/>
        <path id="Trazado_167213" data-name="Trazado 167213" d="M217.448,217.448H221.9v8.9h-4.449a4.449,4.449,0,0,1,0-8.9Z" fill="#ef5350"/>
        <path id="Trazado_167214" data-name="Trazado 167214" d="M236.724,230.793,221.9,226.345v-8.9L236.724,213Z" fill="#e9f1f2"/>
        <path id="Trazado_167215" data-name="Trazado 167215" d="M236.724,226.493v4.3L221.9,226.345v-8.9l4.566-1.364a11.816,11.816,0,0,0,8.334,9.831Z" fill="#d0d8da"/>
        <path id="Trazado_167216" data-name="Trazado 167216" d="M220.414,217.448v5.931h-1.483a4.447,4.447,0,0,1-4.448-4.448,1.469,1.469,0,0,1,.029-.356,1.21,1.21,0,0,0-.207.178,4.449,4.449,0,0,0,3.143,7.592H221.9v-8.9Z" fill="#e53935"/>
        <path id="Trazado_167217" data-name="Trazado 167217" d="M278.241,278.241H299V299H278.241Z" fill="#ffd000"/>
        <path id="Trazado_167218" data-name="Trazado 167218" d="M285.655,278.241h5.931v5.931h-5.931Z" fill="#ffea00"/>
        <path id="Trazado_167219" data-name="Trazado 167219" d="M299,294.552V299H278.241V278.241h4.449v4.449a11.862,11.862,0,0,0,11.862,11.862Z" fill="#ffb700"/>
        <g id="Grupo_108982" data-name="Grupo 108982">
          <path id="Trazado_167220" data-name="Trazado 167220" d="M294.7,240.987a1.483,1.483,0,0,0-2.764,1.074A38.536,38.536,0,0,1,291.2,271.7a1.483,1.483,0,1,0,2.707,1.21,41.5,41.5,0,0,0,.8-31.928Z" fill="#ffea00"/>
          <path id="Trazado_167221" data-name="Trazado 167221" d="M271.7,291.207a38.334,38.334,0,0,1-22.846,2.669,1.483,1.483,0,0,0-.546,2.915,41.92,41.92,0,0,0,7.687.726,41.207,41.207,0,0,0,16.915-3.6,1.483,1.483,0,1,0-1.21-2.707Z" fill="#ffea00"/>
          <path id="Trazado_167222" data-name="Trazado 167222" d="M219.664,239.11a1.483,1.483,0,0,0-1.943.791h0a41.262,41.262,0,0,0-3.238,16.1,1.482,1.482,0,1,0,2.965,0,38.329,38.329,0,0,1,3.006-14.948,1.483,1.483,0,0,0-.79-1.942Z" fill="#ffea00"/>
          <path id="Trazado_167223" data-name="Trazado 167223" d="M269.938,220.058a1.483,1.483,0,0,0,1.075-2.758,41.706,41.706,0,0,0-28.852-.445,1.483,1.483,0,1,0,.909,2.823c.026-.008.053-.018.079-.028A38.735,38.735,0,0,1,269.938,220.058Z" fill="#ffea00"/>
        </g>
      </g>
    </g>
  </g>
</svg>
