<svg xmlns="http://www.w3.org/2000/svg" xmlns:xlink="http://www.w3.org/1999/xlink" width="142" height="142" viewBox="0 0 142 142">
  <defs>
    <filter id="Rect치ngulo_32616" x="0" y="0" width="142" height="142" filterUnits="userSpaceOnUse">
      <feOffset dy="2" input="SourceAlpha"/>
      <feGaussianBlur stdDeviation="2" result="blur"/>
      <feFlood flood-opacity="0.161"/>
      <feComposite operator="in" in2="blur"/>
      <feComposite in="SourceGraphic"/>
    </filter>
  </defs>
  <g id="Grupo_98475" data-name="Grupo 98475" transform="translate(-613 -10018.01)">
    <g transform="matrix(1, 0, 0, 1, 613, 10018.01)" filter="url(#Rect치ngulo_32616)">
      <rect id="Rect치ngulo_32616-2" data-name="Rect치ngulo 32616" width="130" height="130" rx="23" transform="translate(6 4)" fill="#fff1db"/>
    </g>
    <g id="Grupo_98049" data-name="Grupo 98049" transform="translate(465.431 9555.759)">
      <path id="Trazado_163699" data-name="Trazado 163699" d="M198.892,561.508h-20.3c0,3.147,7.7,9.2,10.5,9.2h55.682c2.793,0,9.719-6.05,9.719-9.2h-20.3a16.956,16.956,0,0,0,6.52-8.08l2.564-2.819a3.951,3.951,0,0,1,1.816-1.253c1.8-.319,5.793-1.159,7.19-2.517a21.843,21.843,0,0,0,6.265-14.505c0-3.633-3.412-6.587-7.687-6.587-.569,0-5.16.649-9.03,1.426v-5.6H191.255V547.49A16.765,16.765,0,0,0,198.892,561.508Zm42.936-30.759c3.4-.7,8.192-1.492,9.11-1.5,2.227,0,4.037,1.383,4.037,3.081a18.606,18.606,0,0,1-5.2,12.013,18.776,18.776,0,0,1-5.448,1.59l-.247.062a7.883,7.883,0,0,0-2.254,1.16Z" fill="#ff9800"/>
      <path id="Trazado_163700" data-name="Trazado 163700" d="M200.516,508.6c.034-.116.068-.234.1-.352.412-1.354.927-2.7,1.435-4.022,1.534-3.99,2.7-8.25-1.2-12.1-.112-.11-.212-.222-.333-.332.07.159.125.32.184.481,1.4,3.812-.2,8.013-1.72,11.952a15.356,15.356,0,0,0-1.4,7.057c.008.072.024.144.034.216a7.853,7.853,0,0,0,1.678,3.848,10.833,10.833,0,0,0,1.222,1.313c-.021-.05-.036-.1-.056-.147C199.418,514,199.737,511.3,200.516,508.6Z" fill="#ff9800"/>
      <path id="Trazado_163701" data-name="Trazado 163701" d="M215.006,504.23a15.6,15.6,0,0,0-1.407,6.933,7.667,7.667,0,0,0,.923,2.989,9.718,9.718,0,0,0,2.019,2.512,9.245,9.245,0,0,1-.7-4.326,18.18,18.18,0,0,1,.856-4.276c.4-1.29.893-2.575,1.377-3.832,1.542-4.012,2.716-8.3-1.269-12.168-.091-.087-.17-.176-.267-.265.056.128.1.258.148.386C218.15,496.019,216.537,500.258,215.006,504.23Z" fill="#ff9800"/>
      <path id="Trazado_163702" data-name="Trazado 163702" d="M231.03,504.23c-1.584,4.1-2.793,8.5,1.535,12.434-1.719-3.933-.043-8.329,1.535-12.434,1.552-4.036,2.733-8.349-1.334-12.233-.07-.067-.129-.134-.2-.2.042.1.072.193.11.29C234.2,495.948,232.573,500.225,231.03,504.23Z" fill="#ff9800"/>
    </g>
  </g>
</svg>
