<svg xmlns="http://www.w3.org/2000/svg" width="220.565" height="220.565" viewBox="0 0 220.565 220.565">
  <g id="oportunidad" transform="translate(-4.676 -4.676)">
    <path id="Path_147001" data-name="Path 147001" d="M77.522,67.759,55.759,89.522l-31.247-32.5L14.256,67.245,4,16,55.245,26.256,45.025,36.513Z" transform="translate(8.028 40.141)" fill="#ff9800"/>
    <path id="Path_147002" data-name="Path 147002" d="M53.409,4,82.817,48.113h-14.7V92.226H38.7V48.113H24Z" transform="translate(61.55 8.028)" fill="#ff9800"/>
    <path id="Path_147003" data-name="Path 147003" d="M113.522,16,103.265,67.245,93.009,57.025l-31.247,32.5L40,67.759,72.5,36.513,62.277,26.256Z" transform="translate(104.367 40.141)" fill="#ff9800"/>
    <g id="Group_83895" data-name="Group 83895" transform="translate(4.676 4.676)">
      <circle id="Ellipse_4127" data-name="Ellipse 4127" cx="7.352" cy="7.352" r="7.352" transform="translate(0 136.015)" fill="#111e61"/>
      <circle id="Ellipse_4128" data-name="Ellipse 4128" cx="7.352" cy="7.352" r="7.352" transform="translate(0 205.861)" fill="#111e61"/>
      <circle id="Ellipse_4129" data-name="Ellipse 4129" cx="7.352" cy="7.352" r="7.352" fill="#111e61"/>
      <circle id="Ellipse_4130" data-name="Ellipse 4130" cx="7.352" cy="7.352" r="7.352" transform="translate(205.861)" fill="#111e61"/>
      <circle id="Ellipse_4131" data-name="Ellipse 4131" cx="7.352" cy="7.352" r="7.352" transform="translate(205.861 136.015)" fill="#111e61"/>
      <circle id="Ellipse_4132" data-name="Ellipse 4132" cx="7.352" cy="7.352" r="7.352" transform="translate(205.861 205.861)" fill="#111e61"/>
    </g>
    <path id="Path_147004" data-name="Path 147004" d="M59.437,95.986H19V84.958A47.648,47.648,0,0,1,33.006,51.175c.625-.625,1.287-1.287,1.985-1.875L37.38,62.9l11.028,7.352-7.352,7.352Z" transform="translate(48.17 129.255)" fill="#ffb74d"/>
    <path id="Path_147005" data-name="Path 147005" d="M74.437,84.958V95.986H34l18.38-18.38-7.352-7.352L56.057,62.9l2.389-13.6A47.609,47.609,0,0,1,74.437,84.958Z" transform="translate(88.311 129.255)" fill="#ffb74d"/>
    <path id="Path_147006" data-name="Path 147006" d="M36.915,46.98l18.233,55.215H47.8l-18.38-18.38,7.352-7.352L25.739,69.11l-2.389-13.6A48.073,48.073,0,0,1,36.915,46.98Z" transform="translate(59.811 123.047)" fill="#ffd494"/>
    <path id="Path_147007" data-name="Path 147007" d="M50.38,76.462l7.352,7.352-18.38,18.38H32L50.233,46.98A48.073,48.073,0,0,1,63.8,55.509l-2.389,13.6Z" transform="translate(82.959 123.047)" fill="#ffd494"/>
    <path id="Path_147008" data-name="Path 147008" d="M63.507,49.6,45.273,104.817,27.04,49.6a47.943,47.943,0,0,1,36.467,0Z" transform="translate(69.685 120.424)" fill="#ccd1d9"/>
    <circle id="Ellipse_4133" data-name="Ellipse 4133" cx="25.733" cy="25.733" r="25.733" transform="translate(89.226 114.959)" fill="#f0d0b4"/>
    <path id="Path_147014" data-name="Path 147014" d="M0,0H7.352V6.985H0Z" transform="translate(41.242 46.451) rotate(-45)" fill="#ff9800"/>
    <path id="Path_147015" data-name="Path 147015" d="M0,0H7.352V7.352H0Z" transform="translate(30.849 36.055) rotate(-45)" fill="#ff9800"/>
    <path id="Path_147016" data-name="Path 147016" d="M0,0H7.352V7.352H0Z" transform="translate(20.453 25.656) rotate(-45)" fill="#ff9800"/>
    <path id="Path_147018" data-name="Path 147018" d="M0,0H7.352V7.352H0Z" transform="translate(30.831 193.844) rotate(-45)" fill="#ff9800"/>
    <path id="Path_147019" data-name="Path 147019" d="M0,0H7.352V7.352H0Z" transform="translate(20.432 204.245) rotate(-45)" fill="#ff9800"/>
    <path id="Path_147020" data-name="Path 147020" d="M0,0H6.985V7.352H0Z" transform="translate(41.228 183.452) rotate(-45)" fill="#ff9800"/>
    <path id="Path_147022" data-name="Path 147022" d="M0,0H7.352V7.352H0Z" transform="translate(188.621 193.862) rotate(-45)" fill="#ff9800"/>
    <path id="Path_147023" data-name="Path 147023" d="M0,0H7.352V6.985H0Z" transform="translate(178.491 183.729) rotate(-45)" fill="#ff9800"/>
    <path id="Path_147024" data-name="Path 147024" d="M0,0H7.352V7.352H0Z" transform="translate(199.021 204.262) rotate(-45)" fill="#ff9800"/>
    <path id="Path_147026" data-name="Path 147026" d="M0,0H7.352V7.352H0Z" transform="translate(199.038 25.676) rotate(-45)" fill="#ff9800"/>
    <path id="Path_147027" data-name="Path 147027" d="M0,0H7.352V7.352H0Z" transform="translate(188.642 36.073) rotate(-45)" fill="#ff9800"/>
    <path id="Path_147028" data-name="Path 147028" d="M0,0H6.985V7.352H0Z" transform="translate(178.505 46.203) rotate(-45)" fill="#ff9800"/>
    <path id="Path_147030" data-name="Path 147030" d="M53,40h7.352v7.352H53Z" transform="translate(139.157 104.367)" fill="#ff9800"/>
    <path id="Path_147031" data-name="Path 147031" d="M49,40h7.352v7.352H49Z" transform="translate(128.452 104.367)" fill="#ff9800"/>
    <path id="Path_147032" data-name="Path 147032" d="M45,40h7.352v7.352H45Z" transform="translate(117.748 104.367)" fill="#ff9800"/>
    <path id="Path_147034" data-name="Path 147034" d="M9,40h7.352v7.352H9Z" transform="translate(21.409 104.367)" fill="#ff9800"/>
    <path id="Path_147035" data-name="Path 147035" d="M13,40h7.352v7.352H13Z" transform="translate(32.113 104.367)" fill="#ff9800"/>
    <path id="Path_147036" data-name="Path 147036" d="M17,40h7.352v7.352H17Z" transform="translate(42.817 104.367)" fill="#ff9800"/>
  </g>
</svg>
