<svg xmlns="http://www.w3.org/2000/svg" width="512.957" height="488.627" viewBox="0 0 512.957 488.627">
  <g id="Grupo_109107" data-name="Grupo 109107" transform="translate(-1014.227 -792.02)">
    <path id="Trazado_167432" data-name="Trazado 167432" d="M1315.767,920.8A30.4,30.4,0,0,1,1289,875.982l11.444,6.174a17.179,17.179,0,0,0-2.072,8.244,17.412,17.412,0,0,0,17.392,17.392Z" fill="#ffe8e6"/>
    <path id="Trazado_167433" data-name="Trazado 167433" d="M1321.6,920.236l-2.48-12.765a17.1,17.1,0,0,0,1.938-.5l3.954,12.388A30.351,30.351,0,0,1,1321.6,920.236Z" fill="#ffe8e6"/>
    <path id="Trazado_167434" data-name="Trazado 167434" d="M1341.829,1151.142l-21.641-24.26a100.341,100.341,0,0,0,11.753-12.443l25.456,20.219A133.027,133.027,0,0,1,1341.829,1151.142Z" fill="#5df2ff"/>
    <path id="Trazado_167435" data-name="Trazado 167435" d="M1365.391,1123.443l-27.42-17.463c.856-1.345,1.686-2.72,2.468-4.087l28.228,16.122C1367.629,1119.835,1366.526,1121.661,1365.391,1123.443Z" fill="#5df2ff"/>
    <path id="Trazado_167436" data-name="Trazado 167436" d="M1370.856,1114.028l-28.766-15.145a98.306,98.306,0,0,0,11.386-46.263,101.255,101.255,0,0,0-.689-11.791l32.285-3.8a133.712,133.712,0,0,1,.913,15.6A132.3,132.3,0,0,1,1370.856,1114.028Z" fill="#5df2ff"/>
    <path id="Trazado_167437" data-name="Trazado 167437" d="M1352.208,1036.674q-.19-1.174-.406-2.339l31.963-5.933q.288,1.55.539,3.112Z" fill="#ffe8e6"/>
    <path id="Trazado_167438" data-name="Trazado 167438" d="M1347.824,1019.47A99.353,99.353,0,0,0,1261,953.384l2.247-32.431a131.842,131.842,0,0,1,115.233,87.688Z" fill="#ffe8e6"/>
    <path id="Trazado_167439" data-name="Trazado 167439" d="M1249.657,953.235l-1.4-32.479c2.824-.122,5.7-.155,8.519-.094l-.687,32.5C1253.96,953.119,1251.789,953.143,1249.657,953.235Z" fill="#ffe8e6"/>
    <path id="Trazado_167440" data-name="Trazado 167440" d="M1213.812,961.589l-13.15-29.73a131.49,131.49,0,0,1,20.808-7.183l7.99,31.512A98.891,98.891,0,0,0,1213.812,961.589Z" fill="#5df2ff"/>
    <path id="Trazado_167441" data-name="Trazado 167441" d="M1202.727,967.353l-16.782-27.842c3.585-2.162,7.316-4.174,11.09-5.982l14.048,29.316C1208.24,964.208,1205.429,965.724,1202.727,967.353Z" fill="#5df2ff"/>
    <path id="Trazado_167442" data-name="Trazado 167442" d="M1194.336,953.432" fill="none" stroke="#fff5cc" stroke-miterlimit="10" stroke-width="119.048"/>
    <path id="Trazado_167443" data-name="Trazado 167443" d="M1178.07,988.347l-24.8-21.02a132.651,132.651,0,0,1,25.488-23.16l18.551,26.7A100.158,100.158,0,0,0,1178.07,988.347Z" fill="#5df2ff"/>
    <path id="Trazado_167444" data-name="Trazado 167444" d="M1159.57,1021.233l-30.852-10.247q.506-1.52,1.045-3.023l30.6,10.99Q1159.952,1020.087,1159.57,1021.233Z" fill="#ffdbd6"/>
    <path id="Trazado_167445" data-name="Trazado 167445" d="M1254,1184.606c-72.778,0-131.986-59.209-131.986-131.986a132.106,132.106,0,0,1,5.484-37.759l31.155,9.287A99.57,99.57,0,0,0,1254,1152.1a98.433,98.433,0,0,0,61.59-21.354l20.147,25.514A130.643,130.643,0,0,1,1254,1184.606Z" fill="#ffdbd6"/>
    <g id="Grupo_109075" data-name="Grupo 109075">
      <path id="Trazado_167446" data-name="Trazado 167446" d="M1285.516,941.907q-1.033-.294-2.077-.569l.332-1.257q1.053.277,2.1.575Z" fill="#ff9083"/>
      <path id="Trazado_167447" data-name="Trazado 167447" d="M1139.174,1071.7A116.487,116.487,0,0,1,1276.546,938.42l-.251,1.276a115.181,115.181,0,0,0-135.838,131.794Z" fill="#ff9083"/>
      <path id="Trazado_167448" data-name="Trazado 167448" d="M1154.1,1112.364c-.569-.948-1.133-1.921-1.678-2.894l1.134-.636c.539.962,1.1,1.924,1.659,2.861Z" fill="#ff9083"/>
      <path id="Trazado_167449" data-name="Trazado 167449" d="M1221.517,1164.407a116.893,116.893,0,0,1-62.667-44.753l1.062-.75a115.6,115.6,0,0,0,61.967,44.255Z" fill="#ff9083"/>
      <path id="Trazado_167450" data-name="Trazado 167450" d="M1334.032,1137.115l-.9-.943q1.106-1.048,2.183-2.124l.919.92Q1335.15,1136.057,1334.032,1137.115Z" fill="#ff9083"/>
      <path id="Trazado_167451" data-name="Trazado 167451" d="M1340.913,1130.021l-.971-.865a115.149,115.149,0,0,0,13.8-133.971l1.126-.65a116.446,116.446,0,0,1-13.96,135.486Z" fill="#ff9083"/>
      <path id="Trazado_167452" data-name="Trazado 167452" d="M1351.818,991.966q-.458-.737-.925-1.465l1.094-.7q.472.735.935,1.48Z" fill="#ff9083"/>
      <path id="Trazado_167453" data-name="Trazado 167453" d="M1344.695,981.772a115.2,115.2,0,0,0-31.428-27.82l.67-1.113a116.477,116.477,0,0,1,31.782,28.132Z" fill="#ff9083"/>
    </g>
    <g id="Grupo_109076" data-name="Grupo 109076">
      <rect id="Rectángulo_36458" data-name="Rectángulo 36458" width="53.984" height="1.3" transform="matrix(0.966, -0.257, 0.257, 0.966, 1110.361, 1090.348)" fill="#ffb4ab"/>
      <rect id="Rectángulo_36459" data-name="Rectángulo 36459" width="2.187" height="1.3" transform="matrix(0.966, -0.259, 0.259, 0.966, 1165.572, 1075.642)" fill="#ffb4ab"/>
      <rect id="Rectángulo_36460" data-name="Rectángulo 36460" width="12.508" height="1.3" transform="translate(1171.824 1073.967) rotate(-15.001)" fill="#ffb4ab"/>
    </g>
    <g id="Grupo_109077" data-name="Grupo 109077">
      <rect id="Rectángulo_36461" data-name="Rectángulo 36461" width="1.3" height="3.35" transform="matrix(0.259, -0.966, 0.966, 0.259, 1311.723, 1068.759)" fill="#ffb4ab"/>
      <rect id="Rectángulo_36462" data-name="Rectángulo 36462" width="1.3" height="15.072" transform="translate(1326.235 1072.648) rotate(-75)" fill="#ffb4ab"/>
      <rect id="Rectángulo_36463" data-name="Rectángulo 36463" width="1.3" height="54.487" transform="matrix(0.259, -0.966, 0.966, 0.259, 1346.04, 1077.955)" fill="#ffb4ab"/>
      <rect id="Rectángulo_36464" data-name="Rectángulo 36464" width="1.3" height="2.767" transform="translate(1406.975 1094.283) rotate(-74.997)" fill="#ffb4ab"/>
    </g>
    <g id="Grupo_109078" data-name="Grupo 109078">
      <rect id="Rectángulo_36465" data-name="Rectángulo 36465" width="2.326" height="1.3" transform="matrix(0.891, -0.454, 0.454, 0.891, 1293.603, 1031.713)" fill="#ffb4ab"/>
      <rect id="Rectángulo_36466" data-name="Rectángulo 36466" width="28.71" height="1.3" transform="matrix(0.891, -0.454, 0.454, 0.891, 1303.838, 1026.501)" fill="#ffb4ab"/>
      <rect id="Rectángulo_36467" data-name="Rectángulo 36467" width="51.276" height="1.3" transform="matrix(0.891, -0.454, 0.454, 0.891, 1334.672, 1010.793)" fill="#ffb4ab"/>
      <rect id="Rectángulo_36468" data-name="Rectángulo 36468" width="5.417" height="1.3" transform="translate(1383.508 985.902) rotate(-27.016)" fill="#ffb4ab"/>
      <rect id="Rectángulo_36469" data-name="Rectángulo 36469" width="31.421" height="1.3" transform="matrix(0.891, -0.454, 0.454, 0.891, 1402.706, 976.123)" fill="#ffb4ab"/>
    </g>
    <g id="Grupo_109079" data-name="Grupo 109079">
      <rect id="Rectángulo_36470" data-name="Rectángulo 36470" width="11.938" height="1.3" transform="translate(1278.008 988.271) rotate(-68.999)" fill="#ffb4ab"/>
      <rect id="Rectángulo_36471" data-name="Rectángulo 36471" width="4.835" height="1.3" transform="translate(1283.736 973.349) rotate(-68.998)" fill="#ffb4ab"/>
      <rect id="Rectángulo_36472" data-name="Rectángulo 36472" width="91.872" height="1.3" transform="translate(1291.661 952.699) rotate(-68.999)" fill="#ffb4ab"/>
    </g>
    <g id="Grupo_109080" data-name="Grupo 109080">
      <rect id="Rectángulo_36473" data-name="Rectángulo 36473" width="1.3" height="2.689" transform="translate(1226.996 984.092) rotate(-21.003)" fill="#ffb4ab"/>
      <rect id="Rectángulo_36474" data-name="Rectángulo 36474" width="1.3" height="116.627" transform="translate(1182.203 867.395) rotate(-20.999)" fill="#ffb4ab"/>
    </g>
    <g id="Grupo_109081" data-name="Grupo 109081">
      <rect id="Rectángulo_36475" data-name="Rectángulo 36475" width="1.3" height="68.527" transform="matrix(0.454, -0.891, 0.891, 0.454, 1111.394, 980.684)" fill="#ffb4ab"/>
      <rect id="Rectángulo_36476" data-name="Rectángulo 36476" width="1.3" height="14.982" transform="translate(1186.554 1018.983) rotate(-62.997)" fill="#ffb4ab"/>
      <rect id="Rectángulo_36477" data-name="Rectángulo 36477" width="1.3" height="3.078" transform="matrix(0.454, -0.891, 0.891, 0.454, 1208.279, 1030.053)" fill="#ffb4ab"/>
    </g>
    <circle id="Elipse_5079" data-name="Elipse 5079" cx="35.919" cy="35.919" r="35.919" transform="matrix(0.913, -0.409, 0.409, 0.913, 1021.244, 936.656)" fill="#fff2f1"/>
    <g id="Grupo_109082" data-name="Grupo 109082">
      <path id="Trazado_167454" data-name="Trazado 167454" d="M1113.981,935.366c-.435-1.016-.912-2.03-1.418-3.017l1.157-.594c.519,1.014,1.009,2.056,1.456,3.1Z" fill="#ffb4ab"/>
      <path id="Trazado_167455" data-name="Trazado 167455" d="M1108.408,925.628a49.316,49.316,0,0,0-56-17.35l-.429-1.227a50.617,50.617,0,0,1,57.474,17.806Z" fill="#ffb4ab"/>
      <path id="Trazado_167456" data-name="Trazado 167456" d="M1036.022,917.926l-.863-.973c.953-.846,1.945-1.662,2.948-2.425l.788,1.035C1037.917,916.306,1036.951,917.1,1036.022,917.926Z" fill="#ffb4ab"/>
      <path id="Trazado_167457" data-name="Trazado 167457" d="M1068.7,1005.315a50.553,50.553,0,0,1-41.237-79.788l1.061.753a49.249,49.249,0,0,0,75.316,62.991l.928.911A50.176,50.176,0,0,1,1068.7,1005.315Z" fill="#ffb4ab"/>
    </g>
    <g id="Grupo_109083" data-name="Grupo 109083">
      <path id="Trazado_167458" data-name="Trazado 167458" d="M1492.242,1106.94l-.1-1.3a36.527,36.527,0,0,0,11.126-70.194l.495-1.2a37.828,37.828,0,0,1-11.523,72.694Z" fill="#ffb4ab"/>
      <path id="Trazado_167459" data-name="Trazado 167459" d="M1500.362,1034.394c-.362-.115-.727-.223-1.094-.327l.353-1.252c.38.108.758.22,1.134.339Z" fill="#ffb4ab"/>
      <path id="Trazado_167460" data-name="Trazado 167460" d="M1480.186,1033.872l-.325-1.259a37.833,37.833,0,0,1,4.655-.9l.165,1.29A36.419,36.419,0,0,0,1480.186,1033.872Z" fill="#ffb4ab"/>
      <path id="Trazado_167461" data-name="Trazado 167461" d="M1453.068,1065.178l-1.293-.143a37.863,37.863,0,0,1,22.7-30.582l.513,1.195A36.561,36.561,0,0,0,1453.068,1065.178Z" fill="#ffb4ab"/>
    </g>
    <g id="Grupo_109084" data-name="Grupo 109084">
      <path id="Trazado_167462" data-name="Trazado 167462" d="M1503.242,1098.714l-.555-1.176a31.264,31.264,0,0,0,9.073-6.471l.931.908A32.573,32.573,0,0,1,1503.242,1098.714Z" fill="#ffdbd6"/>
      <path id="Trazado_167463" data-name="Trazado 167463" d="M1515.81,1088.262l-1.054-.761q.45-.624.87-1.273l1.092.708Q1516.28,1087.611,1515.81,1088.262Z" fill="#ffdbd6"/>
      <path id="Trazado_167464" data-name="Trazado 167464" d="M1518.219,1084.373l-1.151-.606a31.284,31.284,0,0,0-51.455-34.9l-.986-.847a32.586,32.586,0,0,1,53.592,36.348Z" fill="#ffdbd6"/>
      <path id="Trazado_167465" data-name="Trazado 167465" d="M1461.744,1054.533l-1.148-.612q.393-.735.821-1.447l1.114.669Q1462.12,1053.827,1461.744,1054.533Z" fill="#ffdbd6"/>
    </g>
    <circle id="Elipse_5080" data-name="Elipse 5080" cx="13.221" cy="13.221" r="13.221" transform="translate(1474.197 1080.161) rotate(-80.783)" fill="#5df2ff"/>
    <g id="Grupo_109085" data-name="Grupo 109085">
      <path id="Trazado_167466" data-name="Trazado 167466" d="M1315.767,914.944a24.548,24.548,0,0,1-11.379-46.3l.6,1.152a23.247,23.247,0,1,0,29.854,33.881l1.067.744A24.581,24.581,0,0,1,1315.767,914.944Z" fill="#ffb4ab"/>
      <path id="Trazado_167467" data-name="Trazado 167467" d="M1339.047,898.2l-1.233-.413c.2-.582.368-1.177.515-1.769l1.262.313C1339.436,896.954,1339.253,897.582,1339.047,898.2Z" fill="#ffb4ab"/>
    </g>
    <circle id="Elipse_5081" data-name="Elipse 5081" cx="11.487" cy="11.487" r="11.487" transform="translate(1304.281 878.913)" fill="#5df2ff"/>
    <g id="Grupo_109086" data-name="Grupo 109086">
      <path id="Trazado_167468" data-name="Trazado 167468" d="M1086.095,1131.347l-.64-1.132c.61-.345,1.225-.717,1.83-1.107l.7,1.092C1087.365,1130.6,1086.727,1130.99,1086.095,1131.347Z" fill="#ffb4ab"/>
      <path id="Trazado_167469" data-name="Trazado 167469" d="M1091.38,1127.729l-.824-1.006a36.055,36.055,0,1,0-58.871-28.381l-1.3-.016a37.356,37.356,0,1,1,61,29.4Z" fill="#ffb4ab"/>
      <path id="Trazado_167470" data-name="Trazado 167470" d="M1067.737,1136.162a37.525,37.525,0,0,1-33.839-21.512l1.177-.552a36.116,36.116,0,0,0,39.916,20.034l.26,1.274A37.632,37.632,0,0,1,1067.737,1136.162Z" fill="#ffb4ab"/>
    </g>
    <path id="Trazado_167471" data-name="Trazado 167471" d="M1090.816,1065.515c-1.055-.734-2.156-1.423-3.272-2.05l6.369-11.337c1.474.828,2.928,1.739,4.322,2.707Z" fill="#ffe8e6"/>
    <path id="Trazado_167472" data-name="Trazado 167472" d="M1084.994,1062.15a40.123,40.123,0,0,0-16.924-3.848l.1-13a53.058,53.058,0,0,1,22.37,5.09Z" fill="#ffe8e6"/>
    <path id="Trazado_167473" data-name="Trazado 167473" d="M1062.654,1058.616l-1.615-12.9q.833-.1,1.673-.182l1.2,12.947C1063.493,1058.518,1063.073,1058.563,1062.654,1058.616Z" fill="#ffe8e6"/>
    <path id="Trazado_167474" data-name="Trazado 167474" d="M1020.357,1123.695a53.545,53.545,0,0,1,24.314-73.183l5.611,11.73a40.743,40.743,0,0,0-23.051,36.565,40.033,40.033,0,0,0,4.633,18.832Z" fill="#ffe8e6"/>
    <path id="Trazado_167475" data-name="Trazado 167475" d="M1032.034,1138.664a54.047,54.047,0,0,1-6.434-6.873l10.234-8.022a40.92,40.92,0,0,0,4.879,5.212Z" fill="#ffe8e6"/>
    <path id="Trazado_167476" data-name="Trazado 167476" d="M1038.075,1143.348c-.791-.527-1.584-1.088-2.358-1.666l7.784-10.417c.588.44,1.189.865,1.787,1.264Z" fill="#ffe8e6"/>
    <circle id="Elipse_5082" data-name="Elipse 5082" cx="28.64" cy="28.64" r="28.64" transform="translate(1039.097 1070.167)" fill="#f6bf28"/>
    <path id="Trazado_167477" data-name="Trazado 167477" d="M1078.671,1085.21c-.435-.35-.894-.685-1.366-1a17.343,17.343,0,0,0-9.566-2.865v-1.3a18.641,18.641,0,0,1,10.281,3.079c.506.333,1,.693,1.467,1.069Z" fill="#fff"/>
    <path id="Trazado_167478" data-name="Trazado 167478" d="M1082.6,1110.232l-1.03-.792a17.367,17.367,0,0,0,3.546-9.06c.049-.5.073-1.027.073-1.571a17.389,17.389,0,0,0-4.671-11.875l.952-.885a18.682,18.682,0,0,1,5.019,12.76c0,.585-.026,1.154-.078,1.691A18.662,18.662,0,0,1,1082.6,1110.232Z" fill="#fff"/>
    <path id="Trazado_167479" data-name="Trazado 167479" d="M1080.5,1098.334a12.727,12.727,0,0,0-12.765-12.3v-1.3a14.024,14.024,0,0,1,14.065,13.558Z" fill="#fff"/>
    <path id="Trazado_167480" data-name="Trazado 167480" d="M1078.893,1107.383l-1.029-.8a12.706,12.706,0,0,0,2.493-5.779l1.285.2A14.014,14.014,0,0,1,1078.893,1107.383Z" fill="#fff"/>
    <path id="Trazado_167481" data-name="Trazado 167481" d="M1066.612,1116.586h0a8.725,8.725,0,0,0,2.907,2.018h0a8.724,8.724,0,0,0,7.62-.381l2.608-1.433-5.464-9.939-2.915,1.041a4.976,4.976,0,0,1-3.655-.124h0a4.976,4.976,0,0,1-2.373-2.164l-4.508-8.2a4.976,4.976,0,0,1-.556-3.162h0a4.968,4.968,0,0,1,1.855-3.153l2.44-1.9-5.463-9.937-2.608,1.434a8.725,8.725,0,0,0-4.405,6.228h0a8.736,8.736,0,0,0,.147,3.538h0A58.715,58.715,0,0,0,1066.612,1116.586Z" fill="#fff"/>
    <g id="Grupo_109088" data-name="Grupo 109088">
      <circle id="Elipse_5083" data-name="Elipse 5083" cx="51.825" cy="51.825" r="51.825" transform="translate(1127.178 802.847)" fill="#ffbfb8"/>
      <path id="Trazado_167482" data-name="Trazado 167482" d="M1179,907.148a52.41,52.41,0,0,1-40.054-18.572l.993-.84a51.18,51.18,0,1,0,55.3-81.608l.413-1.233A52.484,52.484,0,0,1,1179,907.148Z" fill="#fb7e6e"/>
      <path id="Trazado_167483" data-name="Trazado 167483" d="M1130.3,874.233a52.2,52.2,0,0,1-3.768-19.561,53.063,53.063,0,0,1,.644-8.242l1.284.2a51.81,51.81,0,0,0-.627,8.039,50.921,50.921,0,0,0,3.673,19.076Z" fill="#fb7e6e"/>
      <circle id="Elipse_5084" data-name="Elipse 5084" cx="45.401" cy="45.401" r="45.401" transform="matrix(0.845, -0.535, 0.535, 0.845, 1116.351, 840.629)" fill="#fff"/>
      <path id="Trazado_167484" data-name="Trazado 167484" d="M1220.79,854.673a41.809,41.809,0,1,1-5.243-20.249A41.836,41.836,0,0,1,1220.79,854.673Z" fill="#fff8f7"/>
      <path id="Trazado_167485" data-name="Trazado 167485" d="M1215.547,834.424a63.1,63.1,0,0,1-56.791,56.791,41.78,41.78,0,1,1,56.791-56.791Z" fill="#ffe8e6"/>
      <path id="Trazado_167486" data-name="Trazado 167486" d="M1153.333,892.888a46.04,46.04,0,0,1,47.616-78.693l-.621,1.141a44.74,44.74,0,0,0-46.268,76.474Z" fill="#fb7e6e"/>
      <rect id="Rectángulo_36478" data-name="Rectángulo 36478" width="4.497" height="28.179" transform="translate(1183.731 826.802) rotate(14.192)" fill="#fb7e6e"/>
      <rect id="Rectángulo_36479" data-name="Rectángulo 36479" width="4.497" height="36.437" transform="translate(1208.229 876.549) rotate(130.35)" fill="#fb7e6e"/>
      <g id="Grupo_109087" data-name="Grupo 109087">
        <rect id="Rectángulo_36480" data-name="Rectángulo 36480" width="2.601" height="2.229" transform="translate(1197.656 889.578) rotate(-29.997)" fill="#fb7e6e"/>
        <rect id="Rectángulo_36481" data-name="Rectángulo 36481" width="2.601" height="2.226" transform="translate(1156.984 819.136) rotate(-30.046)" fill="#fb7e6e"/>
        <rect id="Rectángulo_36482" data-name="Rectángulo 36482" width="2.601" height="2.227" transform="translate(1212.611 875.576) rotate(-59.952)" fill="#fb7e6e"/>
        <rect id="Rectángulo_36483" data-name="Rectángulo 36483" width="2.601" height="2.229" transform="translate(1142.166 834.905) rotate(-60.006)" fill="#fb7e6e"/>
        <rect id="Rectángulo_36484" data-name="Rectángulo 36484" width="2.226" height="2.601" transform="translate(1218.563 853.372)" fill="#fb7e6e"/>
        <rect id="Rectángulo_36485" data-name="Rectángulo 36485" width="2.229" height="2.601" transform="translate(1137.218 853.371)" fill="#fb7e6e"/>
        <rect id="Rectángulo_36486" data-name="Rectángulo 36486" width="2.229" height="2.601" transform="translate(1212.609 833.766) rotate(-29.995)" fill="#fb7e6e"/>
        <rect id="Rectángulo_36487" data-name="Rectángulo 36487" width="2.23" height="2.6" transform="matrix(0.866, -0.5, 0.5, 0.866, 1142.166, 874.44)" fill="#fb7e6e"/>
        <rect id="Rectángulo_36488" data-name="Rectángulo 36488" width="2.229" height="2.601" transform="translate(1197.656 819.765) rotate(-59.998)" fill="#fb7e6e"/>
        <rect id="Rectángulo_36489" data-name="Rectángulo 36489" width="2.229" height="2.601" transform="translate(1156.983 890.209) rotate(-59.998)" fill="#fb7e6e"/>
        <rect id="Rectángulo_36490" data-name="Rectángulo 36490" width="2.601" height="2.229" transform="translate(1177.704 812.886)" fill="#fb7e6e"/>
        <rect id="Rectángulo_36491" data-name="Rectángulo 36491" width="2.601" height="2.229" transform="translate(1177.702 894.229)" fill="#fb7e6e"/>
      </g>
      <ellipse id="Elipse_5085" data-name="Elipse 5085" cx="4.812" cy="4.927" rx="4.812" ry="4.927" transform="matrix(0.815, -0.58, 0.58, 0.815, 1172.225, 853.45)" fill="#fb7e6e"/>
      <path id="Trazado_167487" data-name="Trazado 167487" d="M1177.963,855.413a1.277,1.277,0,1,1,1.8.324A1.294,1.294,0,0,1,1177.963,855.413Z" fill="#fff"/>
      <path id="Trazado_167488" data-name="Trazado 167488" d="M1155.1,827.462c-4.631,2.95-7.7,13.41-1.518,11.449s11.634-9.785,10.118-13.388C1162.985,823.832,1158.146,825.52,1155.1,827.462Z" fill="#fff"/>
      <path id="Trazado_167489" data-name="Trazado 167489" d="M1146.587,847.965c-2.284-1.217-1.058-4.5.8-4.3C1151,844.069,1149.394,849.459,1146.587,847.965Z" fill="#fff"/>
    </g>
    <rect id="Rectángulo_36492" data-name="Rectángulo 36492" width="56.986" height="36.884" transform="translate(1414.916 941.775)" fill="#ffc7c2"/>
    <rect id="Rectángulo_36493" data-name="Rectángulo 36493" width="56.986" height="36.884" transform="translate(1422.717 933.975)" fill="#ffe8e6"/>
    <path id="Trazado_167490" data-name="Trazado 167490" d="M1422.717,970.859l56.986-8.88v8.88Z" fill="#fff"/>
    <path id="Trazado_167491" data-name="Trazado 167491" d="M1422.717,933.975l28.493,19.3,28.493-19.3v-.643h-56.986Z" fill="#fff"/>
    <path id="Trazado_167492" data-name="Trazado 167492" d="M1502.582,958.255l-8.961-9.423a20.772,20.772,0,0,0,1.526-1.616l9.92,8.408A33.928,33.928,0,0,1,1502.582,958.255Z" fill="#ffe8e6"/>
    <path id="Trazado_167493" data-name="Trazado 167493" d="M1507.278,952.708l-10.776-7.279a20.406,20.406,0,0,0,3.46-10.225l12.982.763A33.427,33.427,0,0,1,1507.278,952.708Z" fill="#ffe8e6"/>
    <path id="Trazado_167494" data-name="Trazado 167494" d="M1499.581,929.83a20.5,20.5,0,0,0-38.029-5.749l-11.381-6.29a33.505,33.505,0,0,1,62.148,9.427Z" fill="#ffe8e6"/>
    <circle id="Elipse_5086" data-name="Elipse 5086" cx="7.49" cy="7.49" r="7.49" transform="translate(1470.495 939.544) rotate(-76.717)" fill="#f6bf28"/>
    <path id="Trazado_167495" data-name="Trazado 167495" d="M1480.353,971.509h-58.286v-7.3h1.3v6h55.685V945.665h1.3Z" fill="#fb7e6e"/>
    <path id="Trazado_167496" data-name="Trazado 167496" d="M1451.209,954.06l-29.143-19.741v-1.638h54.1v1.3h-52.281l27.323,18.508,6.437-4.36.73,1.077Z" fill="#fb7e6e"/>
    <rect id="Rectángulo_36494" data-name="Rectángulo 36494" width="2.424" height="1.301" transform="matrix(0.828, -0.561, 0.561, 0.828, 1460.214, 946.395)" fill="#fb7e6e"/>
    <rect id="Rectángulo_36495" data-name="Rectángulo 36495" width="1.3" height="17.102" transform="translate(1422.067 939.497)" fill="#fff"/>
    <path id="Trazado_167497" data-name="Trazado 167497" d="M1458.154,979.31h-43.888V949.039h1.3V978.01h42.587Z" fill="#ff9083"/>
    <rect id="Rectángulo_36496" data-name="Rectángulo 36496" width="4.503" height="1.3" transform="translate(1464.104 978.01)" fill="#ff9083"/>
    <g id="Grupo_109089" data-name="Grupo 109089">
      <path id="Trazado_167498" data-name="Trazado 167498" d="M1489.34,1069.264l-1.65,35.362v.007l-.2,4.341-.312,6.741h0a4.676,4.676,0,0,1-4.672,4.459h-66.884l.207-4.459,2.163-46.451Z" fill="#ff9083"/>
      <path id="Trazado_167499" data-name="Trazado 167499" d="M1418.017,1116.647" fill="#fb7e6e"/>
      <path id="Trazado_167500" data-name="Trazado 167500" d="M1487.177,1115.717l-.012.248a5.323,5.323,0,0,1-5.318,5.076h-93.694a5.324,5.324,0,0,1-5.324-5.324h104.348Z" fill="#ffc7c2"/>
      <path id="Trazado_167501" data-name="Trazado 167501" d="M1396.378,1121.691h-8.225a5.98,5.98,0,0,1-5.974-5.973h1.3a4.679,4.679,0,0,0,4.674,4.673h8.225Z" fill="#e96656"/>
      <rect id="Rectángulo_36497" data-name="Rectángulo 36497" width="2.09" height="1.3" transform="translate(1402.882 1120.391)" fill="#e96656"/>
      <path id="Trazado_167502" data-name="Trazado 167502" d="M1481.847,1121.691h-74.228v-1.3h74.228a4.668,4.668,0,0,0,4.669-4.456l.011-.247,1.3.059-.011.248A5.966,5.966,0,0,1,1481.847,1121.691Z" fill="#e96656"/>
      <path id="Trazado_167503" data-name="Trazado 167503" d="M1487.69,1104.633l-.2,4.34-.312,6.741H1416.55l2.43-.379Z" fill="#e96656"/>
      <rect id="Rectángulo_36498" data-name="Rectángulo 36498" width="21.058" height="1.3" transform="translate(1444.514 1076.696)" fill="#fff"/>
      <rect id="Rectángulo_36499" data-name="Rectángulo 36499" width="23.164" height="1.3" transform="translate(1449.716 1081.279)" fill="#fff"/>
      <rect id="Rectángulo_36500" data-name="Rectángulo 36500" width="20.875" height="1.3" transform="translate(1456.34 1085.862)" fill="#fff"/>
      <rect id="Rectángulo_36501" data-name="Rectángulo 36501" width="5.946" height="1.3" transform="translate(1459.626 1090.446)" fill="#fff"/>
      <rect id="Rectángulo_36502" data-name="Rectángulo 36502" width="8.051" height="1.3" transform="translate(1469.164 1090.446)" fill="#fff"/>
      <rect id="Rectángulo_36503" data-name="Rectángulo 36503" width="7.432" height="1.3" transform="translate(1469.783 1076.696)" fill="#fff"/>
      <path id="Trazado_167504" data-name="Trazado 167504" d="M1487.827,1115.746l-1.3-.061,2.131-45.77H1435v-1.3h55.019Z" fill="#e96656"/>
      <rect id="Rectángulo_36504" data-name="Rectángulo 36504" width="1.963" height="1.3" transform="translate(1467.82 1115.065)" fill="#fff"/>
      <path id="Trazado_167505" data-name="Trazado 167505" d="M1462.171,1116.364H1417.38l2.119-45.522h28.811v1.3h-27.57l-2,42.921h43.428Z" fill="#fff"/>
    </g>
    <g id="Grupo_109094" data-name="Grupo 109094">
      <g id="Grupo_109093" data-name="Grupo 109093">
        <g id="Grupo_109092" data-name="Grupo 109092">
          <rect id="Rectángulo_36505" data-name="Rectángulo 36505" width="27.635" height="2.663" transform="translate(1101.58 959.687)" fill="#ffe78f"/>
          <rect id="Rectángulo_36506" data-name="Rectángulo 36506" width="27.635" height="2.663" transform="translate(1101.58 970.782)" fill="#ffe78f"/>
          <rect id="Rectángulo_36507" data-name="Rectángulo 36507" width="13.758" height="2.663" transform="translate(1101.58 973.445) rotate(-90)" fill="#ffe78f"/>
          <rect id="Rectángulo_36508" data-name="Rectángulo 36508" width="52.73" height="13.758" transform="translate(1048.85 959.687)" fill="#5df2ff"/>
          <g id="Grupo_109090" data-name="Grupo 109090">
            <circle id="Elipse_5087" data-name="Elipse 5087" cx="3.994" cy="3.994" r="3.994" transform="translate(1087.133 964.404) rotate(-22.5)" fill="#fff"/>
            <circle id="Elipse_5088" data-name="Elipse 5088" cx="2.663" cy="2.663" r="2.663" transform="translate(1089.689 963.903)" fill="#9a4a3f"/>
          </g>
          <rect id="Rectángulo_36509" data-name="Rectángulo 36509" width="22.005" height="8.432" transform="translate(1104.243 962.35)" fill="#ffc7c2"/>
          <rect id="Rectángulo_36510" data-name="Rectángulo 36510" width="23.189" height="6.768" transform="translate(1056.041 963.182)" fill="#fff"/>
          <rect id="Rectángulo_36511" data-name="Rectángulo 36511" width="17.932" height="1.3" transform="translate(1111.283 962.278)" fill="#fb7e6e"/>
          <rect id="Rectángulo_36512" data-name="Rectángulo 36512" width="27.635" height="2.663" transform="translate(1068.658 948.592) rotate(180)" fill="#ffb4ab"/>
          <rect id="Rectángulo_36513" data-name="Rectángulo 36513" width="27.635" height="2.663" transform="translate(1068.658 959.687) rotate(180)" fill="#ffb4ab"/>
          <rect id="Rectángulo_36514" data-name="Rectángulo 36514" width="13.758" height="2.663" transform="translate(1065.995 959.687) rotate(-90)" fill="#ffb4ab"/>
          <rect id="Rectángulo_36515" data-name="Rectángulo 36515" width="52.73" height="13.758" transform="translate(1121.388 959.687) rotate(180)" fill="#ff9083"/>
          <g id="Grupo_109091" data-name="Grupo 109091">
            <circle id="Elipse_5089" data-name="Elipse 5089" cx="3.994" cy="3.994" r="3.994" transform="translate(1073.081 949.838) rotate(-13.283)" fill="#fff"/>
            <circle id="Elipse_5090" data-name="Elipse 5090" cx="2.663" cy="2.663" r="2.663" transform="translate(1074.406 954.249) rotate(-67.5)" fill="#9a4a3f"/>
          </g>
          <rect id="Rectángulo_36516" data-name="Rectángulo 36516" width="22.005" height="8.432" transform="translate(1065.995 957.024) rotate(180)" fill="#ffe8e6"/>
          <rect id="Rectángulo_36517" data-name="Rectángulo 36517" width="23.189" height="6.768" transform="translate(1114.197 956.192) rotate(180)" fill="#fff"/>
          <rect id="Rectángulo_36518" data-name="Rectángulo 36518" width="68.625" height="1.3" transform="translate(1048.85 972.795)" fill="#fb7e6e"/>
          <rect id="Rectángulo_36519" data-name="Rectángulo 36519" width="33.473" height="1.3" transform="translate(1060.451 959.036)" fill="#fb7e6e"/>
          <rect id="Rectángulo_36520" data-name="Rectángulo 36520" width="13.818" height="1.3" transform="translate(1101.58 959.036)" fill="#fb7e6e"/>
          <rect id="Rectángulo_36521" data-name="Rectángulo 36521" width="2.314" height="1.3" transform="translate(1095.369 959.036)" fill="#fb7e6e"/>
        </g>
        <rect id="Rectángulo_36522" data-name="Rectángulo 36522" width="1.3" height="8.433" transform="translate(1043.339 948.592)" fill="#fff"/>
      </g>
    </g>
    <g id="Grupo_109096" data-name="Grupo 109096">
      <rect id="Rectángulo_36523" data-name="Rectángulo 36523" width="77.359" height="58.861" transform="translate(1314.695 832.216)" fill="#ffb4ab"/>
      <rect id="Rectángulo_36524" data-name="Rectángulo 36524" width="52.134" height="70.632" transform="translate(1388.691 835.58) rotate(90)" fill="#fff"/>
      <path id="Trazado_167506" data-name="Trazado 167506" d="M1319.55,835.58h-1.3v-4.634a3.3,3.3,0,0,1,6.6,0v1.27h-1.3v-1.27a2,2,0,1,0-4,0Z" fill="#d34835"/>
      <path id="Trazado_167507" data-name="Trazado 167507" d="M1330.158,835.58h-1.3v-4.634a3.3,3.3,0,0,1,6.6,0v1.27h-1.3v-1.27a2,2,0,1,0-4,0Z" fill="#d34835"/>
      <path id="Trazado_167508" data-name="Trazado 167508" d="M1340.765,835.58h-1.3v-4.634a3.3,3.3,0,0,1,6.6,0v1.27h-1.3v-1.27a2,2,0,1,0-4,0Z" fill="#d34835"/>
      <path id="Trazado_167509" data-name="Trazado 167509" d="M1351.373,835.58h-1.3v-4.634a3.3,3.3,0,0,1,6.6,0v1.27h-1.3v-1.27a2,2,0,1,0-4,0Z" fill="#d34835"/>
      <path id="Trazado_167510" data-name="Trazado 167510" d="M1361.981,835.58h-1.3v-4.634a3.3,3.3,0,0,1,6.6,0v1.27h-1.3v-1.27a2,2,0,1,0-4,0Z" fill="#d34835"/>
      <path id="Trazado_167511" data-name="Trazado 167511" d="M1372.589,835.58h-1.3v-4.634a3.3,3.3,0,1,1,6.6,0v1.27h-1.3v-1.27a2,2,0,1,0-4,0Z" fill="#d34835"/>
      <path id="Trazado_167512" data-name="Trazado 167512" d="M1383.2,835.58h-1.3v-4.634a3.3,3.3,0,0,1,6.6,0v1.27h-1.3v-1.27a2,2,0,1,0-4,0Z" fill="#d34835"/>
      <path id="Trazado_167513" data-name="Trazado 167513" d="M1388.691,837.262l-68.951,10.745V837.262Z" fill="#ffe8e6"/>
      <g id="Grupo_109095" data-name="Grupo 109095">
        <rect id="Rectángulo_36525" data-name="Rectángulo 36525" width="4.324" height="4.324" transform="translate(1351.213 850.235)" fill="#ffdbd6"/>
        <rect id="Rectángulo_36526" data-name="Rectángulo 36526" width="4.324" height="4.324" transform="translate(1359.862 850.235)" fill="#ffdbd6"/>
        <rect id="Rectángulo_36527" data-name="Rectángulo 36527" width="4.324" height="4.324" transform="translate(1368.51 850.235)" fill="#ffdbd6"/>
        <rect id="Rectángulo_36528" data-name="Rectángulo 36528" width="4.324" height="4.324" transform="translate(1377.159 850.235)" fill="#ffdbd6"/>
        <rect id="Rectángulo_36529" data-name="Rectángulo 36529" width="4.324" height="4.324" transform="translate(1325.266 858.884)" fill="#ffdbd6"/>
        <rect id="Rectángulo_36530" data-name="Rectángulo 36530" width="4.324" height="4.324" transform="translate(1333.915 858.884)" fill="#ffdbd6"/>
        <rect id="Rectángulo_36531" data-name="Rectángulo 36531" width="4.324" height="4.324" transform="translate(1342.564 858.884)" fill="#ffdbd6"/>
        <rect id="Rectángulo_36532" data-name="Rectángulo 36532" width="4.324" height="4.324" transform="translate(1351.213 858.884)" fill="#ffeb95"/>
        <rect id="Rectángulo_36533" data-name="Rectángulo 36533" width="4.324" height="4.324" transform="translate(1359.862 858.884)" fill="#ffdbd6"/>
        <rect id="Rectángulo_36534" data-name="Rectángulo 36534" width="4.324" height="4.324" transform="translate(1368.51 858.884)" fill="#ffdbd6"/>
        <rect id="Rectángulo_36535" data-name="Rectángulo 36535" width="4.324" height="4.324" transform="translate(1377.159 858.884)" fill="#ffdbd6"/>
        <rect id="Rectángulo_36536" data-name="Rectángulo 36536" width="4.324" height="4.324" transform="translate(1325.266 867.533)" fill="#ffdbd6"/>
        <rect id="Rectángulo_36537" data-name="Rectángulo 36537" width="4.324" height="4.324" transform="translate(1333.915 867.533)" fill="#ffdbd6"/>
        <rect id="Rectángulo_36538" data-name="Rectángulo 36538" width="4.324" height="4.324" transform="translate(1342.564 867.533)" fill="#ffdbd6"/>
        <rect id="Rectángulo_36539" data-name="Rectángulo 36539" width="4.324" height="4.324" transform="translate(1351.213 867.533)" fill="#ffdbd6"/>
        <rect id="Rectángulo_36540" data-name="Rectángulo 36540" width="4.324" height="4.324" transform="translate(1359.862 867.533)" fill="#ffdbd6"/>
        <rect id="Rectángulo_36541" data-name="Rectángulo 36541" width="4.324" height="4.324" transform="translate(1368.51 867.533)" fill="#ff9083"/>
        <rect id="Rectángulo_36542" data-name="Rectángulo 36542" width="4.324" height="4.324" transform="translate(1377.159 867.533)" fill="#ffdbd6"/>
        <rect id="Rectángulo_36543" data-name="Rectángulo 36543" width="4.324" height="4.324" transform="translate(1325.266 876.182)" fill="#ffdbd6"/>
        <rect id="Rectángulo_36544" data-name="Rectángulo 36544" width="4.324" height="4.324" transform="translate(1333.915 876.182)" fill="#ffdbd6"/>
        <rect id="Rectángulo_36545" data-name="Rectángulo 36545" width="4.324" height="4.324" transform="translate(1342.564 876.182)" fill="#ffdbd6"/>
        <rect id="Rectángulo_36546" data-name="Rectángulo 36546" width="4.324" height="4.324" transform="translate(1351.213 876.182)" fill="#ffdbd6"/>
        <rect id="Rectángulo_36547" data-name="Rectángulo 36547" width="4.324" height="4.324" transform="translate(1359.862 876.182)" fill="#ffdbd6"/>
      </g>
      <path id="Trazado_167514" data-name="Trazado 167514" d="M1389.341,888.364h-71.283v-1.3h69.982V835.58h1.3Z" fill="#fb7e6e"/>
      <rect id="Rectángulo_36548" data-name="Rectángulo 36548" width="1.3" height="39.641" transform="translate(1314.045 832.216)" fill="#fb7e6e"/>
      <rect id="Rectángulo_36549" data-name="Rectángulo 36549" width="1.3" height="3.679" transform="translate(1314.045 873.75)" fill="#fb7e6e"/>
    </g>
    <g id="Grupo_109097" data-name="Grupo 109097">
      <path id="Trazado_167515" data-name="Trazado 167515" d="M1240.837,1270.088h0Z" fill="#ffdbd6"/>
      <rect id="Rectángulo_36550" data-name="Rectángulo 36550" width="94.869" height="1.3" transform="translate(1240.837 1269.438)" fill="#ffbfb8"/>
    </g>
    <g id="Grupo_109098" data-name="Grupo 109098">
      <path id="Trazado_167516" data-name="Trazado 167516" d="M1342.967,1280h0Z" fill="#ffdbd6"/>
      <rect id="Rectángulo_36551" data-name="Rectángulo 36551" width="28.175" height="1.3" transform="translate(1342.967 1279.346)" fill="#ffbfb8"/>
    </g>
    <g id="Grupo_109099" data-name="Grupo 109099">
      <path id="Trazado_167517" data-name="Trazado 167517" d="M1204.587,1280h0Z" fill="#ffdbd6"/>
      <rect id="Rectángulo_36552" data-name="Rectángulo 36552" width="104.241" height="1.3" transform="translate(1204.587 1279.346)" fill="#ffbfb8"/>
    </g>
    <g id="Grupo_109100" data-name="Grupo 109100">
      <path id="Trazado_167518" data-name="Trazado 167518" d="M1142.9,1280h0Z" fill="#ffdbd6"/>
      <rect id="Rectángulo_36553" data-name="Rectángulo 36553" width="14.545" height="1.3" transform="translate(1142.903 1279.346)" fill="#ffbfb8"/>
    </g>
    <g id="Grupo_109101" data-name="Grupo 109101">
      <path id="Trazado_167519" data-name="Trazado 167519" d="M1366.616,1270.24h0Z" fill="#ffdbd6"/>
      <rect id="Rectángulo_36554" data-name="Rectángulo 36554" width="62.488" height="1.3" transform="translate(1366.616 1269.59)" fill="#ffbfb8"/>
    </g>
    <g id="Grupo_109102" data-name="Grupo 109102">
      <path id="Trazado_167520" data-name="Trazado 167520" d="M1126.865,1270.088h0Z" fill="#ffdbd6"/>
      <rect id="Rectángulo_36555" data-name="Rectángulo 36555" width="105.019" height="1.3" transform="translate(1126.865 1269.438)" fill="#ffbfb8"/>
    </g>
    <g id="Grupo_109103" data-name="Grupo 109103">
      <path id="Trazado_167521" data-name="Trazado 167521" d="M1102.508,1270.088h0Z" fill="#ffdbd6"/>
      <rect id="Rectángulo_36556" data-name="Rectángulo 36556" width="14.117" height="1.3" transform="translate(1102.508 1269.438)" fill="#ffbfb8"/>
    </g>
    <rect id="Rectángulo_36557" data-name="Rectángulo 36557" width="6.61" height="1.3" transform="translate(1455.122 1259.682)" fill="#ffbfb8"/>
    <rect id="Rectángulo_36558" data-name="Rectángulo 36558" width="369.927" height="1.3" transform="translate(1076.114 1259.682)" fill="#ffbfb8"/>
    <rect id="Rectángulo_36559" data-name="Rectángulo 36559" width="9.375" height="1.3" transform="translate(1060.572 1259.682)" fill="#ffbfb8"/>
    <rect id="Rectángulo_36560" data-name="Rectángulo 36560" width="7.958" height="1.3" transform="translate(1388.425 1259.682)" fill="#e96656"/>
    <rect id="Rectángulo_36561" data-name="Rectángulo 36561" width="31.967" height="1.3" transform="translate(1317.718 1259.682)" fill="#e96656"/>
    <rect id="Rectángulo_36562" data-name="Rectángulo 36562" width="151.379" height="1.3" transform="translate(1157.448 1259.682)" fill="#e96656"/>
    <rect id="Rectángulo_36563" data-name="Rectángulo 36563" width="12.54" height="1.3" transform="translate(1120.7 1259.682)" fill="#e96656"/>
    <g id="Grupo_109104" data-name="Grupo 109104">
      <path id="Trazado_167522" data-name="Trazado 167522" d="M1361.93,1270.24h0Z" fill="#ffdbd6"/>
      <rect id="Rectángulo_36564" data-name="Rectángulo 36564" width="6.827" height="1.3" transform="translate(1355.103 1269.59)" fill="#ffbfb8"/>
    </g>
    <g id="Grupo_109105" data-name="Grupo 109105">
      <path id="Trazado_167523" data-name="Trazado 167523" d="M1276.424,1141.585h4.007l0-8.444v0h0v-3.446h0v-3.975h0l-.018-40.871-3.289-4.52L1277,1105.38c.006.127.01.257.013.391h.04l-.031.683c0,.75-.04,1.514-.113,2.288l-2,40.61h1.514Z" fill="none"/>
      <path id="Trazado_167524" data-name="Trazado 167524" d="M1211.285,1075.05l16.755,29.3-3.564-38.182Z" fill="none"/>
      <path id="Trazado_167525" data-name="Trazado 167525" d="M1290.789,1142.886a5.2,5.2,0,0,1-10.313,0h-2.751v6.466h15.6v-6.467Z" fill="none"/>
      <path id="Trazado_167526" data-name="Trazado 167526" d="M1258.184,1129.474h0Z" fill="none"/>
      <rect id="Rectángulo_36565" data-name="Rectángulo 36565" width="3.865" transform="translate(1254.316 1192.264)" fill="#ffeb95"/>
      <path id="Trazado_167527" data-name="Trazado 167527" d="M1310.234,1149.353h-15.6v.035h-1.3v-.035h-9.814l-2.4,20.8h29.112v1.3h-22.1v4.552h-7.682l-1.872,16.255h31.66Z" fill="#ffeb95"/>
      <path id="Trazado_167528" data-name="Trazado 167528" d="M1316.736,1149.352h-6.5v42.911h6.5Z" fill="#9a4a3f"/>
      <path id="Trazado_167529" data-name="Trazado 167529" d="M1277.725,1149.352v.035h-1.3v-.035h-1.514l-1.023,20.805h7.232l2.4-20.8h-5.791Z" fill="#ffd970"/>
      <path id="Trazado_167530" data-name="Trazado 167530" d="M1279.025,1171.458h-5.2l-1.023,20.806h5.773l1.872-16.255h-1.42Z" fill="#ffd970"/>
      <path id="Trazado_167531" data-name="Trazado 167531" d="M1258.181,1171.458h-3.865v-1.3h3.873v-11.423h-.65v-9.383h-3.22v42.911h3.865Z" fill="#ffd970"/>
      <path id="Trazado_167532" data-name="Trazado 167532" d="M1258.5,1032.062l-.271-6.162-1.082.178a9.453,9.453,0,0,1-10.865-7.79l-1.8-10.919h0l-.158-.959a3.546,3.546,0,1,0-2.922,4.075h0l1.365,8.281-.583.1c-.179.03-.357.048-.535.061l.579,13.139h16.27Z" fill="#fdf4e8"/>
      <path id="Trazado_167533" data-name="Trazado 167533" d="M1232.534,1032.062h0Z" fill="#fb7e6e"/>
      <path id="Trazado_167534" data-name="Trazado 167534" d="M1254.316,1171.458h3.865v-1.066h.008v-.234h-3.873Z" fill="#9a4a3f"/>
      <path id="Trazado_167535" data-name="Trazado 167535" d="M1279.025,1170.158v5.852h9.1v-5.852Z" fill="#fff"/>
      <path id="Trazado_167536" data-name="Trazado 167536" d="M1276.424,1149.352v.035h1.3v-6.5h2.751a5.166,5.166,0,0,1-.045-.649v-.652h-4.007Z" fill="#9a4a3f"/>
      <path id="Trazado_167537" data-name="Trazado 167537" d="M1290.789,1142.886h2.54v6.5h1.3v-7.8h-3.84a4.72,4.72,0,0,1,0,1.3Z" fill="#9a4a3f"/>
      <path id="Trazado_167538" data-name="Trazado 167538" d="M1297.5,1081.254a8.1,8.1,0,0,0-.774-3.453l-.253-.559h.006l-14.538-31.235.319-.149-2.92-6.268h-.006c-.026-.052-.059-.11-.091-.169-.111-.227-.228-.455-.358-.683-.084-.162-.175-.318-.273-.474-.117-.2-.24-.384-.37-.572-.065-.091-.117-.189-.182-.28s-.143-.169-.208-.254-.124-.175-.2-.266-.144-.156-.215-.241c-.156-.175-.306-.351-.468-.52-.143-.149-.286-.292-.429-.435-.169-.163-.338-.313-.514-.462-.156-.137-.312-.267-.475-.4s-.344-.266-.526-.39-.345-.24-.527-.351-.351-.221-.533-.325-.384-.208-.572-.306-.364-.175-.546-.26c-.2-.091-.4-.175-.611-.253-.183-.072-.371-.137-.553-.2-.208-.071-.423-.136-.631-.195-.188-.052-.383-.1-.578-.143s-.423-.1-.631-.13-.4-.072-.6-.1-.423-.052-.637-.065-.4-.033-.612-.04c-.156-.006-.312-.012-.468-.012v-.007h-5.305v13.693l-3.453,13.816-4.831,19.349-4.83-19.349-3.576-14.323-1.613-6.444-1.684-6.742h-9.707c-.182,0-.371.019-.553.026-.208.013-.416.013-.617.033s-.423.052-.631.084-.41.046-.618.085-.383.091-.578.136c-.221.052-.442.1-.663.163-.17.052-.332.117-.5.175-.234.078-.475.156-.715.254-.143.058-.286.13-.436.2-.247.11-.5.221-.741.351-.143.078-.28.169-.423.247-.234.137-.474.273-.7.423a.522.522,0,0,1-.078.045c-.156.1-.3.228-.449.338s-.312.215-.461.338c-.02.013-.039.039-.065.059-.15.117-.28.247-.423.377-.182.162-.377.325-.546.5l-.006-.007-30.117,30.149v.007a8.865,8.865,0,0,0-1.417,10.656,9.1,9.1,0,0,0,.995,1.4v.007l29.2,33.757,6.925-5.982-.872-1.527-16.755-29.3,13.192-8.882,1.223-.825,3.9,41.735,1.151,2.022.13.227.351.6,6.352-.9a5.2,5.2,0,1,1,1.469,10.3,5.055,5.055,0,0,1-1.469-.006v.006l-7.7-1.1-1.021,19.824-.65-.033-.169,3.375.65.032-.143,2.718-.65-.033-1.307,25.39-4.3,83.054a.3.3,0,0,1-.013.078c-.013.189-.013.371-.013.553h10.962v.351l.481-4.76-.65-.065,8.531-84.549.643.065,3.544-35.116a23.572,23.572,0,0,0,7.925.995,23.882,23.882,0,0,0,3.823-.488v-.137h1.3v29.259h-.65l.006,11.423v.234h-.013v82.6c0,.065.007.124.013.189h10.962l.988-20.013-.65-.032,3.108-63.393h.007l3-61.091c.072-.734.1-1.43.111-2.1v-.13c0-.338-.007-.676-.019-1.014l.162-33.068.657.006h.643l-.039,7.984,3.29,4.519.013,40.87,8.986,1.756,6.606-33.757-.768-.15,2.094-10.728A8.251,8.251,0,0,0,1297.5,1081.254Zm-20.318-13.459h-.644l-.656-.007.019-3.329h.657l.643.007Z" fill="#ff805a"/>
      <path id="Trazado_167539" data-name="Trazado 167539" d="M1288.161,1133.891l-.518-.051.516.051.507-2.588-8.236-1.61h0v3.446h0v0l0,8.444v.652a5.2,5.2,0,1,0,10.191-1.463h0l-2.283-7.81h0Z" fill="#fdf4e8"/>
      <path id="Trazado_167540" data-name="Trazado 167540" d="M1280.43,1129.693l8.235,1.609-.507,2.588-.516-.05.518.05.182-.928.325-1.659.748-3.83-8.985-1.755h0Z" fill="#fff"/>
      <path id="Trazado_167541" data-name="Trazado 167541" d="M1222.273,1253.179h-.016l-6.3,3.437a1.632,1.632,0,0,0,.781,3.065h16.5v-6.5Z" fill="#9a4a3f"/>
      <path id="Trazado_167542" data-name="Trazado 167542" d="M1242.767,1018.766l-1.365-8.281h0a3.545,3.545,0,1,1,2.922-4.075l.158.959h0l1.8,10.919a9.453,9.453,0,0,0,10.865,7.79l1.082-.178,8.181-1.349a4.734,4.734,0,0,0,3.858-5.663l-1-4.676-.235-1.094-1.2-5.6h0l-15.319,2.525a3.94,3.94,0,0,1-4.519-3.2l-2.3-13.95a9.91,9.91,0,0,0,7.742,2l10.771-1.775a13,13,0,0,1,1.263,3.423l.64,2.981a7.974,7.974,0,0,0,5.207-8.81h0a7.956,7.956,0,0,0-4.182-5.766,7.084,7.084,0,0,0-6.066-5.4,4.7,4.7,0,0,0-1.614-.018l-.355.059h-.009l-5.661.933h0l-.583.1a4.714,4.714,0,0,1-6.95.645,4.726,4.726,0,0,0-3.948,4.393,11.809,11.809,0,0,0-9.009,13.424l1.408,8.539h0l1.053,6.387a5.907,5.907,0,0,0,6.256,4.93c.178-.013.356-.031.535-.061Zm22.882-7.845a3.576,3.576,0,0,1-7.054,1.182Z" fill="#9a4a3f"/>
      <path id="Trazado_167543" data-name="Trazado 167543" d="M1269.261,1014.207l-.234-1.089.235,1.094Z" fill="#ffeb95"/>
      <path id="Trazado_167544" data-name="Trazado 167544" d="M1265.462,996.53a13,13,0,0,0-1.263-3.423l-10.771,1.775a9.91,9.91,0,0,1-7.742-2l2.3,13.95a3.94,3.94,0,0,0,4.519,3.2l15.319-2.525-1.721-8Z" fill="#fdf4e8"/>
      <path id="Trazado_167545" data-name="Trazado 167545" d="M1258.181,1253.179v6.5h16.5a1.632,1.632,0,0,0,.782-3.065l-6.3-3.437h-10.981Z" fill="#9a4a3f"/>
      <path id="Trazado_167546" data-name="Trazado 167546" d="M1277.2,1064.466l-.644,0-.656,0-.016,3.331.655,0,.645,0Z" fill="#9a4a3f"/>
      <path id="Trazado_167547" data-name="Trazado 167547" d="M1273.823,1171.458h5.2v-1.3h9.1v1.3h22.1v-1.3h-36.345l1.023-20.806,2-40.61c.073-.774.11-1.538.113-2.288l.031-.683h-.04c0-.134-.007-.264-.013-.391l.125-25.053.04-7.978-.646,0-.655,0-.164,33.064c.015.34.019.678.019,1.015v.129c0,.669-.039,1.365-.108,2.1l-3,61.093h-.007l-3.112,63.392.649.031.65.032,2.012-40.933h0Z" fill="#9a4a3f"/>
      <path id="Trazado_167548" data-name="Trazado 167548" d="M1257.537,1158.735h1.3l0-29.261h-1.3v.139l0,19.739Z" fill="#9a4a3f"/>
      <path id="Trazado_167549" data-name="Trazado 167549" d="M1233.071,1248.707l.647.065.647.065,8.527-84.547-.647-.065-.647-.065Z" fill="#9a4a3f"/>
      <path id="Trazado_167550" data-name="Trazado 167550" d="M1228.7,1141.424l-.649-.034-.649-.034-.14,2.714.649.034.649.034Z" fill="#9a4a3f"/>
      <path id="Trazado_167551" data-name="Trazado 167551" d="M1224.476,1066.171l3.564,38.182.873,1.527.687,1.2-3.895-41.737Z" fill="#9a4a3f"/>
      <path id="Trazado_167552" data-name="Trazado 167552" d="M1229.891,1118.226l-1.293-.185-1.027,19.938.649.034.649.034Z" fill="#9a4a3f"/>
      <path id="Trazado_167553" data-name="Trazado 167553" d="M1296.479,1077.24l-.008,0,.259.556a8.163,8.163,0,0,1,.77,3.454,8.355,8.355,0,0,1-.156,1.587l-2.1,10.729.771.151.505.1,2.1-10.729.148-.776h-.032a9.409,9.409,0,0,0-.59-4.5l.026-.014-15.058-32.344-.859.4-.32.149Z" fill="#9a4a3f"/>
      <path id="Trazado_167554" data-name="Trazado 167554" d="M1262.713,1015.038a3.575,3.575,0,0,0,2.936-4.117l-7.054,1.182A3.576,3.576,0,0,0,1262.713,1015.038Z" fill="#fff"/>
      <path id="Trazado_167555" data-name="Trazado 167555" d="M1230.754,1109.1l-1.84-3.219.689,1.2Z" fill="#fb7e6e"/>
      <path id="Trazado_167556" data-name="Trazado 167556" d="M1229.891,1118.226l7.693,1.1v0a5.2,5.2,0,1,0,0-10.3l-6.353.908-.349-.61v0l-6.347,5.485,0,0,1.625,1.88a3.913,3.913,0,0,0,2.422,1.342v0l.017,0Zm-3.631-1.417h0l1.313-.931Z" fill="#fdf4e8"/>
      <path id="Trazado_167557" data-name="Trazado 167557" d="M1230.884,1109.327l-.131-.229-1.84-3.218-6.924,5.982h0l2.548,2.951Z" fill="#fff"/>
      <path id="Trazado_167558" data-name="Trazado 167558" d="M1226.26,1116.809h0l1.313-.931Z" fill="#fff"/>
      <path id="Trazado_167559" data-name="Trazado 167559" d="M1243.928,1038.8l1.609,6.442,3.579,14.328,4.18-24.4h1.3l4.181,24.4,3.452-13.816v-13.693h-19.987Z" fill="#fff"/>
      <path id="Trazado_167560" data-name="Trazado 167560" d="M1254.6,1035.17h-1.3l-4.18,24.4,4.831,19.349,4.831-19.349Z" fill="#9a4a3f"/>
    </g>
    <g id="Grupo_109106" data-name="Grupo 109106">
      <path id="Trazado_167561" data-name="Trazado 167561" d="M1479.505,946.356a12.33,12.33,0,0,1-4.039-.676l.425-1.23a11.082,11.082,0,1,0-1.227-20.441l-.571-1.169a12.237,12.237,0,0,1,5.412-1.246,12.381,12.381,0,0,1,0,24.762Z" fill="#ff9083"/>
      <path id="Trazado_167562" data-name="Trazado 167562" d="M1469.84,928.559l-1.133-.637a12.435,12.435,0,0,1,1.609-2.237l.965.872A11.153,11.153,0,0,0,1469.84,928.559Z" fill="#ff9083"/>
    </g>
  </g>
</svg>
