<svg xmlns="http://www.w3.org/2000/svg" xmlns:xlink="http://www.w3.org/1999/xlink" width="330" height="330" viewBox="0 0 330 330">
  <defs>
    <filter id="Rect치ngulo_32431" x="0" y="0" width="330" height="330" filterUnits="userSpaceOnUse">
      <feOffset dy="2" input="SourceAlpha"/>
      <feGaussianBlur stdDeviation="2" result="blur"/>
      <feFlood flood-opacity="0.161"/>
      <feComposite operator="in" in2="blur"/>
      <feComposite in="SourceGraphic"/>
    </filter>
  </defs>
  <g id="Grupo_98480" data-name="Grupo 98480" transform="translate(-1017 -10347.01)">
    <g transform="matrix(1, 0, 0, 1, 1017, 10347.01)" filter="url(#Rect치ngulo_32431)">
      <rect id="Rect치ngulo_32431-2" data-name="Rect치ngulo 32431" width="318" height="318" rx="20" transform="translate(6 4)" fill="#fff1db"/>
    </g>
    <g id="Grupo_94812" data-name="Grupo 94812" transform="translate(726.53 10361.728)">
      <g id="Grupo_94801" data-name="Grupo 94801" transform="translate(522.324 200.683)">
        <path id="Trazado_163725" data-name="Trazado 163725" d="M404.068,72.835V72.31h-1.519l.568.188C403.434,72.58,403.751,72.729,404.068,72.835Z" transform="translate(-402.549 -72.31)" fill="#fff"/>
      </g>
      <g id="Grupo_94802" data-name="Grupo 94802" transform="translate(392.463 205.014)">
        <path id="Trazado_163726" data-name="Trazado 163726" d="M496.4,73.416,481.241,92.407a12.658,12.658,0,0,1-.987,1.061v21.117H385.529V93.468c-.305-.341-.646-.681-.951-1.061L369.385,73.416v63.963H496.4V73.416Z" transform="translate(-369.385 -73.416)" fill="#ff9800"/>
      </g>
      <g id="Grupo_94803" data-name="Grupo 94803" transform="translate(406.663 40.284)">
        <path id="Trazado_163727" data-name="Trazado 163727" d="M463.036,53.643a13.465,13.465,0,0,0-7.675-6.915,13.618,13.618,0,0,0-9.95-.074l-3.685,1.594-.8-3.951c-1.253-6.379-9.037-12.949-19.864-12.949-10.976,0-18.764,6.571-20.052,12.949l-.8,3.951-3.681-1.594a12.019,12.019,0,0,0-4.715-.912,13.959,13.959,0,0,0-5.2.987,13.5,13.5,0,0,0-7.706,6.915,8.088,8.088,0,0,0-.423,6.191l1.03,2.58-2.4,1.406a7.959,7.959,0,0,0-4.025,5.47,5.291,5.291,0,0,0,.039,2.052,82.145,82.145,0,0,1,8.622-5.47,81.128,81.128,0,0,1,57.2-8.09,81.74,81.74,0,0,1,21.27,8.09,78.573,78.573,0,0,1,8.587,5.47,4.749,4.749,0,0,0,.035-2.052,7.931,7.931,0,0,0-3.951-5.431l-2.314-1.406.869-2.62a5.6,5.6,0,0,0,.341-1.179A8.485,8.485,0,0,0,463.036,53.643Z" transform="translate(-373.011 -31.347)" fill="#ff9800"/>
      </g>
      <g id="Grupo_94804" data-name="Grupo 94804" transform="translate(395.764 190.694)">
        <path id="Trazado_163728" data-name="Trazado 163728" d="M405.141,107.628a23.251,23.251,0,0,0,9.225-1.938l11.7-4.331a4.451,4.451,0,0,1,0-1.406,4.354,4.354,0,0,1,.188-1.253L392.109,69.759a18.774,18.774,0,0,1-7.366,4.178l-14.516,3.834L387.207,99A22.87,22.87,0,0,0,405.141,107.628Z" transform="translate(-370.228 -69.759)" fill="#ff9800"/>
      </g>
      <g id="Grupo_94805" data-name="Grupo 94805" transform="translate(424.787 175.423)">
        <path id="Trazado_163729" data-name="Trazado 163729" d="M434.457,65.859c-8.125,7.749-17.582,12.613-27.684,12.613-9.116,0-17.7-3.951-25.221-10.408l-.493,2.545a20.449,20.449,0,0,1-3.418,8.051l31.181,26.4,30.425-25.754a21.76,21.76,0,0,1-3.912-8.7Z" transform="translate(-377.64 -65.859)" fill="#fff1db"/>
      </g>
      <g id="Grupo_94806" data-name="Grupo 94806" transform="translate(406.552 75.643)">
        <path id="Trazado_163730" data-name="Trazado 163730" d="M420.351,146.235c26.13,0,48.5-40.449,48.5-73.569v-.039c-17.777-7.064-30.006-20.742-37.646-32.25C414.235,57.7,391.179,79.311,372.983,85.96,377.811,115.7,397.676,146.235,420.351,146.235Z" transform="translate(-372.983 -40.377)" fill="#fff1db"/>
      </g>
      <g id="Grupo_94807" data-name="Grupo 94807" transform="translate(519.477 200.683)">
        <path id="Trazado_163731" data-name="Trazado 163731" d="M420.167,87.542c-1.59-6.218-7.726-12.624-13.979-14.707-.317-.106-.634-.255-.952-.337l-.568-.188-2.847,4.331V140.6h30.993Z" transform="translate(-401.822 -72.31)" fill="#111e61"/>
      </g>
      <g id="Grupo_94808" data-name="Grupo 94808" transform="translate(407.656 198.706)">
        <path id="Trazado_163732" data-name="Trazado 163732" d="M464.838,93.036a22.983,22.983,0,0,1-17.965,8.626,23.285,23.285,0,0,1-9.229-1.938l-14.014-5.2-6.418-.533a4.451,4.451,0,0,0,0,1.406l-11.7,4.331a23.251,23.251,0,0,1-9.225,1.938,22.87,22.87,0,0,1-17.934-8.626L373.265,97.1c.305.38.646.72.951,1.061v21.117h94.725V98.166a12.658,12.658,0,0,0,.987-1.061l15.158-18.991,2.847-4.331L481.777,71.8Z" transform="translate(-373.265 -71.805)" fill="#111e61"/>
      </g>
      <g id="Grupo_94809" data-name="Grupo 94809" transform="translate(400.17 28.282)">
        <path id="Trazado_163733" data-name="Trazado 163733" d="M377.927,78.227a7.959,7.959,0,0,1,4.025-5.47l2.4-1.406-1.03-2.58a8.088,8.088,0,0,1,.423-6.191,13.5,13.5,0,0,1,7.706-6.915,13.959,13.959,0,0,1,5.2-.987,12.019,12.019,0,0,1,4.715.912l3.681,1.594.8-3.951c1.288-6.379,9.077-12.949,20.052-12.949,10.827,0,18.611,6.571,19.864,12.949l.8,3.951,3.685-1.594a13.618,13.618,0,0,1,9.95.074,13.465,13.465,0,0,1,7.675,6.915,8.485,8.485,0,0,1,.756,5.012l6.422.873a14.452,14.452,0,0,0-1.218-8.544,18.849,18.849,0,0,0-2.467-3.99,13.18,13.18,0,0,0,.153-1.786c0-14.508-19.371-25.863-44.138-25.863-24,0-42.881,10.67-44.021,24.575a18.945,18.945,0,0,0-5.584,7.064,15.086,15.086,0,0,0-1.214,8.658,14.167,14.167,0,0,0-5.051,8.587,10.748,10.748,0,0,0,0,3.646l6.457-.533A5.291,5.291,0,0,1,377.927,78.227Z" transform="translate(-371.353 -28.282)" fill="#111e61"/>
      </g>
      <g id="Grupo_94810" data-name="Grupo 94810" transform="translate(389.282 64.7)">
        <path id="Trazado_163734" data-name="Trazado 163734" d="M389.57,167.755a18.774,18.774,0,0,0,7.366-4.178l34.145,28.941a4.354,4.354,0,0,0-.188,1.253l6.418.533,36.31-30.727,2.737,1.022a18.082,18.082,0,0,0,6.113,3.156l9.041,2.393,3.947,1.441,6.156,1.977a6.419,6.419,0,0,0-3.912-8.09l-3.912-1.445c-.188-.078-.38-.114-.611-.188l-9.037-2.4a11.508,11.508,0,0,1-3.837-2.048,6.674,6.674,0,0,0-1.707-.912l-2.733-1.026a6.784,6.784,0,0,0-2.244-.38,6.446,6.446,0,0,0-2.807.646,14.9,14.9,0,0,1-2.62-5.811l-1.75-9.609c12.761-15.538,21.157-38.362,21.724-59.139l.153.035-.153-4.668v-.117l-.074-2.24h-.039a65.8,65.8,0,0,0-2.921-16.145l.717-.912a11.115,11.115,0,0,0,2.4-9.073,14.374,14.374,0,0,0-5.09-8.587v-.114l-6.422-.873a5.6,5.6,0,0,1-.341,1.179l-.869,2.62,2.314,1.406a7.931,7.931,0,0,1,3.951,5.431,4.749,4.749,0,0,1-.035,2.052,78.573,78.573,0,0,0-8.587-5.47,81.305,81.305,0,0,0-57.393-8.055A80.658,80.658,0,0,0,394.7,47.691a82.145,82.145,0,0,0-8.622,5.47l-6.457.533a10,10,0,0,0,2.013,4.938c-3.3,8.7-4.973,19.864-2.624,33.8l.078.533.493,3.074h.039c3.113,18.192,11.316,36.5,22.711,49l-1.214,6.876a15.5,15.5,0,0,1-2.392,5.431,5.86,5.86,0,0,0-1.786-.266,6.418,6.418,0,0,0-4.331,1.633,12.162,12.162,0,0,1-4.707,2.733l-14.512,3.837a6.508,6.508,0,0,0-4.523,4.3,6.183,6.183,0,0,0-.262,2.467l6.453-.458Zm45.689,19.751-31.181-26.4a20.449,20.449,0,0,0,3.418-8.051l.493-2.545c7.522,6.457,16.105,10.408,25.221,10.408,10.1,0,19.559-4.863,27.684-12.613l.877,4.75a21.76,21.76,0,0,0,3.912,8.7Zm-49.416-93.4c18.2-6.649,41.252-28.26,58.227-45.583,7.64,11.508,19.868,25.186,37.646,32.25v.039c0,33.119-22.375,73.569-48.5,73.569C410.535,154.383,390.671,123.844,385.843,94.108Z" transform="translate(-368.573 -37.582)" fill="#111e61"/>
      </g>
      <g id="Grupo_94811" data-name="Grupo 94811" transform="translate(361.47 198.706)">
        <path id="Trazado_163735" data-name="Trazado 163735" d="M392.463,78.113,407.656,97.1l5.086-4.068L395.764,71.8l-6.453.458a6.959,6.959,0,0,0,.3,1.519l-.568.188c-6.531,1.711-13.255,8.509-14.927,15.044L361.47,142.077h30.993V78.113Z" transform="translate(-361.47 -71.805)" fill="#111e61"/>
      </g>
      <path id="Trazado_163736" data-name="Trazado 163736" d="M409.371,107.628A22.983,22.983,0,0,0,427.336,99l16.939-21.231-3.947-1.441-9.041-2.393a18.082,18.082,0,0,1-6.113-3.156l-2.737-1.022-36.31,30.727,14.014,5.2A23.285,23.285,0,0,0,409.371,107.628Z" transform="translate(71.893 120.935)" fill="#ff9800"/>
    </g>
  </g>
</svg>
