<svg xmlns="http://www.w3.org/2000/svg" width="393.821" height="791.963" viewBox="0 0 393.821 791.963">
  <g id="Group_98474" data-name="Group 98474" transform="translate(-1014.179 -12254.01)">
    <g id="Group_94828" data-name="Group 94828" transform="translate(1111.509 12423.023)">
      <g id="Group_60817" data-name="Group 60817">
        <g id="Group_60793" data-name="Group 60793" transform="translate(1.202 1.202)">
          <g id="Group_60787" data-name="Group 60787" transform="translate(1.679 1.679)">
            <path id="Rectangle_8597" data-name="Rectangle 8597" d="M22.478,0H267.312A22.478,22.478,0,0,1,289.79,22.478v2.556a0,0,0,0,1,0,0H0a0,0,0,0,1,0,0V22.478A22.478,22.478,0,0,1,22.478,0Z" fill="#412233"/>
          </g>
          <g id="Group_60789" data-name="Group 60789">
            <g id="Group_60788" data-name="Group 60788">
              <path id="Path_108913" data-name="Path 108913" d="M508.775,875.443H235.116a9.755,9.755,0,0,1-9.744-9.744V673.6a9.755,9.755,0,0,1,9.744-9.744H508.775a9.755,9.755,0,0,1,9.744,9.744V865.7A9.755,9.755,0,0,1,508.775,875.443Z" transform="translate(-225.372 -663.86)" fill="#fff"/>
            </g>
          </g>
          <g id="Group_60790" data-name="Group 60790" transform="translate(257.745 11.66)">
            <ellipse id="Ellipse_4207" data-name="Ellipse 4207" cx="3.821" cy="3.821" rx="3.821" ry="3.821" fill="#412233"/>
          </g>
          <g id="Group_60791" data-name="Group 60791" transform="translate(242.234 11.66)">
            <ellipse id="Ellipse_4208" data-name="Ellipse 4208" cx="3.821" cy="3.821" rx="3.821" ry="3.821" fill="#412233"/>
          </g>
          <g id="Group_60792" data-name="Group 60792" transform="translate(272.606 11.66)">
            <ellipse id="Ellipse_4209" data-name="Ellipse 4209" cx="3.821" cy="3.821" rx="3.821" ry="3.821" fill="#ff9d66"/>
          </g>
        </g>
        <g id="Group_60794" data-name="Group 60794">
          <path id="Path_108914" data-name="Path 108914" d="M506.6,874.469H232.94a10.958,10.958,0,0,1-10.945-10.945v-192.1a10.958,10.958,0,0,1,10.945-10.945H506.6a10.958,10.958,0,0,1,10.945,10.945v192.1A10.958,10.958,0,0,1,506.6,874.469ZM232.94,662.886a8.552,8.552,0,0,0-8.542,8.542v192.1a8.552,8.552,0,0,0,8.542,8.542H506.6a8.552,8.552,0,0,0,8.542-8.542v-192.1a8.552,8.552,0,0,0-8.542-8.542Z" transform="translate(-221.995 -660.483)" fill="#412233"/>
        </g>
        <g id="Group_60816" data-name="Group 60816" transform="translate(42.193 28.775)">
          <g id="Group_60795" data-name="Group 60795" transform="translate(192.329)">
            <path id="Path_108915" data-name="Path 108915" d="M896.127,741.352a.786.786,0,1,1-.786.786A.786.786,0,0,1,896.127,741.352Z" transform="translate(-890.272 -741.352)" fill="#cf837e"/>
            <path id="Path_108916" data-name="Path 108916" d="M889,741.352a.786.786,0,1,1-.786.786A.786.786,0,0,1,889,741.352Z" transform="translate(-885.683 -741.352)" fill="#cf837e"/>
            <path id="Path_108917" data-name="Path 108917" d="M881.88,741.352a.786.786,0,1,1-.786.786A.787.787,0,0,1,881.88,741.352Z" transform="translate(-881.094 -741.352)" fill="#cf837e"/>
          </g>
          <path id="Path_108918" data-name="Path 108918" d="M887.919,766.5a3.1,3.1,0,1,1-3.1-3.1A3.1,3.1,0,0,1,887.919,766.5Z" transform="translate(-689.172 -755.554)" fill="#cf837e"/>
          <g id="Group_60796" data-name="Group 60796" transform="translate(0 19.555)">
            <rect id="Rectangle_8598" data-name="Rectangle 8598" width="213.246" height="0.743" fill="#cf837e"/>
          </g>
          <g id="Group_60797" data-name="Group 60797" transform="translate(11.923 5.367)">
            <rect id="Rectangle_8599" data-name="Rectangle 8599" width="27.88" height="3.798" rx="1.899" fill="#cf837e"/>
            <path id="Path_108919" data-name="Path 108919" d="M390.283,772.585H374.66a.578.578,0,0,1-.578-.578h0a.578.578,0,0,1,.578-.578h15.623a.578.578,0,0,1,.578.578h0A.578.578,0,0,1,390.283,772.585Z" transform="translate(-374.082 -766.094)" fill="#cf837e"/>
            <path id="Path_108920" data-name="Path 108920" d="M390.283,779.2H374.66a.578.578,0,0,1-.578-.578h0a.578.578,0,0,1,.578-.578h15.623a.578.578,0,0,1,.578.578h0A.578.578,0,0,1,390.283,779.2Z" transform="translate(-374.082 -770.354)" fill="#cf837e"/>
          </g>
          <g id="Group_60798" data-name="Group 60798" transform="translate(7.197 145.724)">
            <path id="Path_108921" data-name="Path 108921" d="M381.958,1152.051h-20.58a.578.578,0,0,1-.578-.578h0a.578.578,0,0,1,.578-.578h20.58a.578.578,0,0,1,.578.578h0A.578.578,0,0,1,381.958,1152.051Z" transform="translate(-360.8 -1150.895)" fill="#cf837e"/>
            <path id="Path_108922" data-name="Path 108922" d="M377,1160.578H361.378a.578.578,0,0,1-.578-.578h0a.578.578,0,0,1,.578-.578H377a.578.578,0,0,1,.578.578h0A.578.578,0,0,1,377,1160.578Z" transform="translate(-360.8 -1156.388)" fill="#cf837e"/>
          </g>
          <g id="Group_60799" data-name="Group 60799" transform="translate(41.873 145.724)">
            <path id="Path_108923" data-name="Path 108923" d="M479.41,1152.051H458.83a.578.578,0,0,1-.578-.578h0a.578.578,0,0,1,.578-.578h20.58a.578.578,0,0,1,.578.578h0A.578.578,0,0,1,479.41,1152.051Z" transform="translate(-458.252 -1150.895)" fill="#cf837e"/>
            <path id="Path_108924" data-name="Path 108924" d="M474.454,1160.578H458.83a.578.578,0,0,1-.578-.578h0a.578.578,0,0,1,.578-.578h15.624a.578.578,0,0,1,.578.578h0A.578.578,0,0,1,474.454,1160.578Z" transform="translate(-458.252 -1156.388)" fill="#cf837e"/>
          </g>
          <g id="Group_60800" data-name="Group 60800" transform="translate(76.549 145.724)">
            <path id="Path_108925" data-name="Path 108925" d="M576.863,1152.051h-20.58a.578.578,0,0,1-.578-.578h0a.578.578,0,0,1,.578-.578h20.58a.578.578,0,0,1,.578.578h0A.578.578,0,0,1,576.863,1152.051Z" transform="translate(-555.705 -1150.895)" fill="#cf837e"/>
            <path id="Path_108926" data-name="Path 108926" d="M571.906,1160.578H556.283a.578.578,0,0,1-.578-.578h0a.578.578,0,0,1,.578-.578h15.623a.578.578,0,0,1,.578.578h0A.578.578,0,0,1,571.906,1160.578Z" transform="translate(-555.705 -1156.388)" fill="#cf837e"/>
          </g>
          <g id="Group_60801" data-name="Group 60801" transform="translate(111.224 145.724)">
            <path id="Path_108927" data-name="Path 108927" d="M674.315,1152.051h-20.58a.578.578,0,0,1-.578-.578h0a.578.578,0,0,1,.578-.578h20.58a.578.578,0,0,1,.578.578h0A.578.578,0,0,1,674.315,1152.051Z" transform="translate(-653.157 -1150.895)" fill="#cf837e"/>
            <path id="Path_108928" data-name="Path 108928" d="M669.359,1160.578H653.735a.578.578,0,0,1-.578-.578h0a.578.578,0,0,1,.578-.578h15.624a.578.578,0,0,1,.578.578h0A.578.578,0,0,1,669.359,1160.578Z" transform="translate(-653.157 -1156.388)" fill="#cf837e"/>
          </g>
          <g id="Group_60802" data-name="Group 60802" transform="translate(145.9 145.724)">
            <path id="Path_108929" data-name="Path 108929" d="M771.767,1152.051h-20.58a.578.578,0,0,1-.578-.578h0a.578.578,0,0,1,.578-.578h20.58a.578.578,0,0,1,.578.578h0A.578.578,0,0,1,771.767,1152.051Z" transform="translate(-750.609 -1150.895)" fill="#cf837e"/>
            <path id="Path_108930" data-name="Path 108930" d="M766.811,1160.578H751.187a.578.578,0,0,1-.578-.578h0a.578.578,0,0,1,.578-.578h15.624a.578.578,0,0,1,.578.578h0A.578.578,0,0,1,766.811,1160.578Z" transform="translate(-750.609 -1156.388)" fill="#cf837e"/>
          </g>
          <g id="Group_60803" data-name="Group 60803" transform="translate(180.576 145.724)">
            <path id="Path_108931" data-name="Path 108931" d="M869.22,1152.051H848.64a.578.578,0,0,1-.578-.578h0a.578.578,0,0,1,.578-.578h20.58a.578.578,0,0,1,.578.578h0A.578.578,0,0,1,869.22,1152.051Z" transform="translate(-848.062 -1150.895)" fill="#cf837e"/>
            <path id="Path_108932" data-name="Path 108932" d="M864.263,1160.578H848.64a.578.578,0,0,1-.578-.578h0a.578.578,0,0,1,.578-.578h15.623a.578.578,0,0,1,.578.578h0A.578.578,0,0,1,864.263,1160.578Z" transform="translate(-848.062 -1156.388)" fill="#cf837e"/>
          </g>
          <rect id="Rectangle_8600" data-name="Rectangle 8600" width="26.96" height="26.96" transform="translate(7.197 115.079)" fill="#ffc778"/>
          <rect id="Rectangle_8601" data-name="Rectangle 8601" width="26.96" height="26.96" transform="translate(103.259 142.039) rotate(180)" fill="#f7a274"/>
          <rect id="Rectangle_8602" data-name="Rectangle 8602" width="26.96" height="26.96" transform="translate(68.708 142.039) rotate(180)" fill="#8fd2ff"/>
          <rect id="Rectangle_8603" data-name="Rectangle 8603" width="26.96" height="26.96" transform="translate(110.85 115.079)" fill="#619ed7"/>
          <rect id="Rectangle_8604" data-name="Rectangle 8604" width="26.96" height="26.96" transform="translate(145.401 115.079)" fill="#deb1a6"/>
          <rect id="Rectangle_8605" data-name="Rectangle 8605" width="6.923" height="26.96" transform="translate(161.209 115.079)" fill="#c9978b"/>
          <rect id="Rectangle_8606" data-name="Rectangle 8606" width="26.96" height="26.96" transform="translate(179.951 115.079)" fill="#a35a5f"/>
          <path id="Path_108933" data-name="Path 108933" d="M383.921,1102.147h-9.839v-16.286a4.92,4.92,0,0,1,4.919-4.92h0a4.92,4.92,0,0,1,4.92,4.92Z" transform="translate(-362.159 -960.108)" fill="#f7a274"/>
          <path id="Path_108934" data-name="Path 108934" d="M602.169,1080.678h2.373v-15.909H590.053v3.793A12.116,12.116,0,0,0,602.169,1080.678Z" transform="translate(-501.282 -949.69)" fill="#ffc778"/>
          <ellipse id="Ellipse_4210" data-name="Ellipse 4210" cx="7.692" cy="7.692" rx="7.692" ry="7.692" transform="translate(45.857 123.208) rotate(-15.534)" fill="#619ed7"/>
          <path id="Path_108935" data-name="Path 108935" d="M662.308,1107.826l23.329-18.068v18.068Z" transform="translate(-547.828 -965.787)" fill="#8fd2ff"/>
          <rect id="Rectangle_8607" data-name="Rectangle 8607" width="13.175" height="13.175" transform="translate(186.844 121.971)" fill="#cf837e"/>
          <g id="Group_60804" data-name="Group 60804" transform="translate(7.197 105.317)">
            <path id="Path_108936" data-name="Path 108936" d="M381.958,1038.491h-20.58a.578.578,0,0,1-.578-.578h0a.578.578,0,0,1,.578-.578h20.58a.578.578,0,0,1,.578.578h0A.578.578,0,0,1,381.958,1038.491Z" transform="translate(-360.8 -1037.335)" fill="#cf837e"/>
            <path id="Path_108937" data-name="Path 108937" d="M377,1047.017H361.378a.578.578,0,0,1-.578-.578h0a.578.578,0,0,1,.578-.578H377a.578.578,0,0,1,.578.578h0A.578.578,0,0,1,377,1047.017Z" transform="translate(-360.8 -1042.827)" fill="#cf837e"/>
          </g>
          <g id="Group_60805" data-name="Group 60805" transform="translate(41.873 105.317)">
            <path id="Path_108938" data-name="Path 108938" d="M479.41,1038.491H458.83a.578.578,0,0,1-.578-.578h0a.578.578,0,0,1,.578-.578h20.58a.578.578,0,0,1,.578.578h0A.578.578,0,0,1,479.41,1038.491Z" transform="translate(-458.252 -1037.335)" fill="#cf837e"/>
            <path id="Path_108939" data-name="Path 108939" d="M474.454,1047.017H458.83a.578.578,0,0,1-.578-.578h0a.578.578,0,0,1,.578-.578h15.624a.578.578,0,0,1,.578.578h0A.578.578,0,0,1,474.454,1047.017Z" transform="translate(-458.252 -1042.827)" fill="#cf837e"/>
          </g>
          <g id="Group_60806" data-name="Group 60806" transform="translate(76.549 105.317)">
            <path id="Path_108940" data-name="Path 108940" d="M576.863,1038.491h-20.58a.578.578,0,0,1-.578-.578h0a.578.578,0,0,1,.578-.578h20.58a.578.578,0,0,1,.578.578h0A.578.578,0,0,1,576.863,1038.491Z" transform="translate(-555.705 -1037.335)" fill="#cf837e"/>
            <path id="Path_108941" data-name="Path 108941" d="M571.906,1047.017H556.283a.578.578,0,0,1-.578-.578h0a.578.578,0,0,1,.578-.578h15.623a.578.578,0,0,1,.578.578h0A.578.578,0,0,1,571.906,1047.017Z" transform="translate(-555.705 -1042.827)" fill="#cf837e"/>
          </g>
          <g id="Group_60807" data-name="Group 60807" transform="translate(111.224 105.317)">
            <path id="Path_108942" data-name="Path 108942" d="M674.315,1038.491h-20.58a.578.578,0,0,1-.578-.578h0a.578.578,0,0,1,.578-.578h20.58a.578.578,0,0,1,.578.578h0A.578.578,0,0,1,674.315,1038.491Z" transform="translate(-653.157 -1037.335)" fill="#cf837e"/>
            <path id="Path_108943" data-name="Path 108943" d="M669.359,1047.017H653.735a.578.578,0,0,1-.578-.578h0a.578.578,0,0,1,.578-.578h15.624a.578.578,0,0,1,.578.578h0A.578.578,0,0,1,669.359,1047.017Z" transform="translate(-653.157 -1042.827)" fill="#cf837e"/>
          </g>
          <g id="Group_60808" data-name="Group 60808" transform="translate(145.9 105.317)">
            <path id="Path_108944" data-name="Path 108944" d="M771.767,1038.491h-20.58a.578.578,0,0,1-.578-.578h0a.578.578,0,0,1,.578-.578h20.58a.578.578,0,0,1,.578.578h0A.578.578,0,0,1,771.767,1038.491Z" transform="translate(-750.609 -1037.335)" fill="#cf837e"/>
            <path id="Path_108945" data-name="Path 108945" d="M766.811,1047.017H751.187a.578.578,0,0,1-.578-.578h0a.578.578,0,0,1,.578-.578h15.624a.578.578,0,0,1,.578.578h0A.578.578,0,0,1,766.811,1047.017Z" transform="translate(-750.609 -1042.827)" fill="#cf837e"/>
          </g>
          <g id="Group_60809" data-name="Group 60809" transform="translate(180.576 105.317)">
            <path id="Path_108946" data-name="Path 108946" d="M869.22,1038.491H848.64a.578.578,0,0,1-.578-.578h0a.578.578,0,0,1,.578-.578h20.58a.578.578,0,0,1,.578.578h0A.578.578,0,0,1,869.22,1038.491Z" transform="translate(-848.062 -1037.335)" fill="#cf837e"/>
            <path id="Path_108947" data-name="Path 108947" d="M864.263,1047.017H848.64a.578.578,0,0,1-.578-.578h0a.578.578,0,0,1,.578-.578h15.623a.578.578,0,0,1,.578.578h0A.578.578,0,0,1,864.263,1047.017Z" transform="translate(-848.062 -1042.827)" fill="#cf837e"/>
          </g>
          <rect id="Rectangle_8608" data-name="Rectangle 8608" width="26.96" height="26.96" transform="translate(179.951 74.671)" fill="#ffc778"/>
          <rect id="Rectangle_8609" data-name="Rectangle 8609" width="26.96" height="26.96" transform="translate(172.361 101.632) rotate(180)" fill="#f7a274"/>
          <rect id="Rectangle_8610" data-name="Rectangle 8610" width="26.96" height="26.96" transform="translate(137.81 101.632) rotate(180)" fill="#8fd2ff"/>
          <rect id="Rectangle_8611" data-name="Rectangle 8611" width="26.96" height="26.96" transform="translate(7.197 74.671)" fill="#619ed7"/>
          <rect id="Rectangle_8612" data-name="Rectangle 8612" width="26.96" height="26.96" transform="translate(41.748 74.671)" fill="#deb1a6"/>
          <rect id="Rectangle_8613" data-name="Rectangle 8613" width="6.923" height="26.96" transform="translate(57.556 74.671)" fill="#c9978b"/>
          <rect id="Rectangle_8614" data-name="Rectangle 8614" width="26.96" height="26.96" transform="translate(76.299 74.671)" fill="#a35a5f"/>
          <path id="Rectangle_8615" data-name="Rectangle 8615" d="M0,0H9.839a0,0,0,0,1,0,0V16.286a4.919,4.919,0,0,1-4.919,4.919h0A4.919,4.919,0,0,1,0,16.286V0A0,0,0,0,1,0,0Z" transform="translate(202.186 101.632) rotate(180)" fill="#f7a274"/>
          <path id="Path_108948" data-name="Path 108948" d="M796.372,967.117h2.373V951.208H784.256V955A12.116,12.116,0,0,0,796.372,967.117Z" transform="translate(-626.384 -876.537)" fill="#ffc778"/>
          <circle id="Ellipse_4211" data-name="Ellipse 4211" cx="7.692" cy="7.692" r="7.692" transform="translate(113.551 88.151) rotate(-45)" fill="#619ed7"/>
          <path id="Path_108949" data-name="Path 108949" d="M371,994.266,394.334,976.2v18.068Z" transform="translate(-360.176 -892.634)" fill="#8fd2ff"/>
          <rect id="Rectangle_8616" data-name="Rectangle 8616" width="13.175" height="13.175" transform="translate(83.191 81.564)" fill="#cf837e"/>
          <g id="Group_60810" data-name="Group 60810" transform="translate(7.197 61.801)">
            <path id="Path_108950" data-name="Path 108950" d="M381.958,916.194h-20.58a.578.578,0,0,1-.578-.578h0a.578.578,0,0,1,.578-.578h20.58a.578.578,0,0,1,.578.578h0A.578.578,0,0,1,381.958,916.194Z" transform="translate(-360.8 -915.038)" fill="#cf837e"/>
            <path id="Path_108951" data-name="Path 108951" d="M377,924.721H361.378a.578.578,0,0,1-.578-.578h0a.578.578,0,0,1,.578-.578H377a.578.578,0,0,1,.578.578h0A.578.578,0,0,1,377,924.721Z" transform="translate(-360.8 -920.531)" fill="#cf837e"/>
          </g>
          <g id="Group_60811" data-name="Group 60811" transform="translate(41.873 61.801)">
            <path id="Path_108952" data-name="Path 108952" d="M479.41,916.194H458.83a.578.578,0,0,1-.578-.578h0a.578.578,0,0,1,.578-.578h20.58a.578.578,0,0,1,.578.578h0A.578.578,0,0,1,479.41,916.194Z" transform="translate(-458.252 -915.038)" fill="#cf837e"/>
            <path id="Path_108953" data-name="Path 108953" d="M474.454,924.721H458.83a.578.578,0,0,1-.578-.578h0a.578.578,0,0,1,.578-.578h15.624a.578.578,0,0,1,.578.578h0A.578.578,0,0,1,474.454,924.721Z" transform="translate(-458.252 -920.531)" fill="#cf837e"/>
          </g>
          <g id="Group_60812" data-name="Group 60812" transform="translate(76.549 61.801)">
            <path id="Path_108954" data-name="Path 108954" d="M576.863,916.194h-20.58a.578.578,0,0,1-.578-.578h0a.578.578,0,0,1,.578-.578h20.58a.578.578,0,0,1,.578.578h0A.578.578,0,0,1,576.863,916.194Z" transform="translate(-555.705 -915.038)" fill="#cf837e"/>
            <path id="Path_108955" data-name="Path 108955" d="M571.906,924.721H556.283a.578.578,0,0,1-.578-.578h0a.578.578,0,0,1,.578-.578h15.623a.578.578,0,0,1,.578.578h0A.578.578,0,0,1,571.906,924.721Z" transform="translate(-555.705 -920.531)" fill="#cf837e"/>
          </g>
          <g id="Group_60813" data-name="Group 60813" transform="translate(111.224 61.801)">
            <path id="Path_108956" data-name="Path 108956" d="M674.315,916.194h-20.58a.578.578,0,0,1-.578-.578h0a.578.578,0,0,1,.578-.578h20.58a.578.578,0,0,1,.578.578h0A.578.578,0,0,1,674.315,916.194Z" transform="translate(-653.157 -915.038)" fill="#cf837e"/>
            <path id="Path_108957" data-name="Path 108957" d="M669.359,924.721H653.735a.578.578,0,0,1-.578-.578h0a.578.578,0,0,1,.578-.578h15.624a.578.578,0,0,1,.578.578h0A.578.578,0,0,1,669.359,924.721Z" transform="translate(-653.157 -920.531)" fill="#cf837e"/>
          </g>
          <g id="Group_60814" data-name="Group 60814" transform="translate(145.9 61.801)">
            <path id="Path_108958" data-name="Path 108958" d="M771.767,916.194h-20.58a.578.578,0,0,1-.578-.578h0a.578.578,0,0,1,.578-.578h20.58a.578.578,0,0,1,.578.578h0A.578.578,0,0,1,771.767,916.194Z" transform="translate(-750.609 -915.038)" fill="#cf837e"/>
            <path id="Path_108959" data-name="Path 108959" d="M766.811,924.721H751.187a.578.578,0,0,1-.578-.578h0a.578.578,0,0,1,.578-.578h15.624a.578.578,0,0,1,.578.578h0A.578.578,0,0,1,766.811,924.721Z" transform="translate(-750.609 -920.531)" fill="#cf837e"/>
          </g>
          <g id="Group_60815" data-name="Group 60815" transform="translate(180.576 61.801)">
            <path id="Path_108960" data-name="Path 108960" d="M869.22,916.194H848.64a.578.578,0,0,1-.578-.578h0a.578.578,0,0,1,.578-.578h20.58a.578.578,0,0,1,.578.578h0A.578.578,0,0,1,869.22,916.194Z" transform="translate(-848.062 -915.038)" fill="#cf837e"/>
            <path id="Path_108961" data-name="Path 108961" d="M864.263,924.721H848.64a.578.578,0,0,1-.578-.578h0a.578.578,0,0,1,.578-.578h15.623a.578.578,0,0,1,.578.578h0A.578.578,0,0,1,864.263,924.721Z" transform="translate(-848.062 -920.531)" fill="#cf837e"/>
          </g>
          <rect id="Rectangle_8617" data-name="Rectangle 8617" width="26.96" height="26.96" transform="translate(7.197 31.156)" fill="#ffc778"/>
          <rect id="Rectangle_8618" data-name="Rectangle 8618" width="26.96" height="26.96" transform="translate(145.401 31.156)" fill="#f7a274"/>
          <rect id="Rectangle_8619" data-name="Rectangle 8619" width="26.96" height="26.96" transform="translate(179.951 31.156)" fill="#8fd2ff"/>
          <rect id="Rectangle_8620" data-name="Rectangle 8620" width="26.96" height="26.96" transform="translate(41.748 31.156)" fill="#619ed7"/>
          <rect id="Rectangle_8621" data-name="Rectangle 8621" width="26.96" height="26.96" transform="translate(76.299 31.156)" fill="#deb1a6"/>
          <rect id="Rectangle_8622" data-name="Rectangle 8622" width="6.923" height="26.96" transform="translate(92.107 31.156)" fill="#c9978b"/>
          <rect id="Rectangle_8623" data-name="Rectangle 8623" width="26.96" height="26.96" transform="translate(137.81 58.116) rotate(180)" fill="#a35a5f"/>
          <path id="Path_108962" data-name="Path 108962" d="M383.921,828.912h-9.839V845.2A4.919,4.919,0,0,0,379,850.118h0a4.919,4.919,0,0,0,4.92-4.919Z" transform="translate(-362.159 -797.756)" fill="#f7a274"/>
          <path id="Path_108963" data-name="Path 108963" d="M751.578,859.97h-2.373v15.909h14.489v-3.793A12.116,12.116,0,0,0,751.578,859.97Z" transform="translate(-603.805 -817.763)" fill="#ffc778"/>
          <ellipse id="Ellipse_4212" data-name="Ellipse 4212" cx="7.692" cy="7.692" rx="7.692" ry="7.692" transform="translate(185.641 36.944)" fill="#619ed7"/>
          <path id="Path_108964" data-name="Path 108964" d="M468.106,828.911l23.329,18.068V828.911Z" transform="translate(-422.727 -797.756)" fill="#8fd2ff"/>
          <rect id="Rectangle_8624" data-name="Rectangle 8624" width="13.175" height="13.175" transform="translate(130.918 51.223) rotate(180)" fill="#cf837e"/>
        </g>
      </g>
    </g>
    <g id="Group_94829" data-name="Group 94829" transform="translate(1178.267 12303.157)">
      <g id="Group_61466" data-name="Group 61466" transform="translate(0)">
        <g id="Group_61465" data-name="Group 61465">
          <path id="Path_109173" data-name="Path 109173" d="M449.525,323.61a39.913,39.913,0,0,0-39.913,39.913c0,22.044,39.913,74.116,39.913,74.116s39.913-52.073,39.913-74.116A39.913,39.913,0,0,0,449.525,323.61Zm0,58.22a18.906,18.906,0,1,1,18.906-18.906A18.907,18.907,0,0,1,449.525,381.83Z" transform="translate(-409.612 -323.61)" fill="#ffa669"/>
        </g>
      </g>
    </g>
    <g id="Group_94830" data-name="Group 94830" transform="translate(1284.614 12797.757)">
      <g id="Group_60778" data-name="Group 60778" transform="translate(0 2.805)">
        <g id="Group_60774" data-name="Group 60774" transform="translate(31.888)">
          <path id="Path_108908" data-name="Path 108908" d="M1710.307,1018.816h61.96v-94.74a14.007,14.007,0,0,0-13.992-13.992H1724.3a14.007,14.007,0,0,0-13.993,13.992Zm54.681-7.279h-47.4v-87.46a6.722,6.722,0,0,1,6.713-6.713h33.975a6.722,6.722,0,0,1,6.713,6.713Z" transform="translate(-1710.307 -910.084)" fill="#412233"/>
        </g>
        <g id="Group_60775" data-name="Group 60775" transform="translate(87.661 220.814)">
          <circle id="Ellipse_4205" data-name="Ellipse 4205" cx="8.697" cy="8.697" r="8.697" transform="translate(0 12.299) rotate(-45)" fill="#412233"/>
        </g>
        <g id="Group_60776" data-name="Group 60776" transform="translate(12.57 222.651)">
          <ellipse id="Ellipse_4206" data-name="Ellipse 4206" cx="8.697" cy="8.697" rx="8.697" ry="8.697" transform="matrix(0.973, -0.23, 0.23, 0.973, 0, 3.996)" fill="#412233"/>
        </g>
        <g id="Group_60777" data-name="Group 60777" transform="translate(0 64.852)">
          <rect id="Rectangle_8590" data-name="Rectangle 8590" width="123.386" height="168.261" rx="20.622" transform="translate(123.386 168.261) rotate(180)" fill="#8fd2ff"/>
        </g>
      </g>
      <g id="Group_60779" data-name="Group 60779" transform="translate(82.619 116.42)">
        <path id="Path_108909" data-name="Path 108909" d="M1783.142,1192.516h9.437v-114.6a4.718,4.718,0,0,0-4.718-4.718h0a4.719,4.719,0,0,0-4.719,4.718Z" transform="translate(-1783.142 -1073.201)" fill="#7296f7"/>
      </g>
      <g id="Group_60780" data-name="Group 60780" transform="translate(57.812 116.42)">
        <path id="Rectangle_8591" data-name="Rectangle 8591" d="M0,0H9.436a0,0,0,0,1,0,0V114.6a4.718,4.718,0,0,1-4.718,4.718h0A4.718,4.718,0,0,1,0,114.6V0A0,0,0,0,1,0,0Z" transform="translate(9.436 119.315) rotate(180)" fill="#7296f7"/>
      </g>
      <g id="Group_60781" data-name="Group 60781" transform="translate(33.005 116.42)">
        <path id="Path_108910" data-name="Path 108910" d="M1711.912,1192.516h9.437v-114.6a4.718,4.718,0,0,0-4.718-4.718h0a4.719,4.719,0,0,0-4.719,4.718Z" transform="translate(-1711.912 -1073.201)" fill="#7296f7"/>
      </g>
      <g id="Group_60782" data-name="Group 60782" transform="translate(41.842 0)">
        <rect id="Rectangle_8592" data-name="Rectangle 8592" width="39.776" height="12.319" rx="3.068" transform="translate(39.776 12.319) rotate(180)" fill="#7296f7"/>
      </g>
    </g>
    <g id="Group_94831" data-name="Group 94831" transform="translate(1128.008 12961.909)">
      <path id="Path_109106" data-name="Path 109106" d="M1472.357,1216.524h-7.98c-6.3,0-11.414,7.07-11.414,15.792s5.111,15.792,11.414,15.792h7.98Z" transform="translate(-1443.714 -1164.428)" fill="#412233"/>
      <path id="Path_109107" data-name="Path 109107" d="M1614.81,1216.524h-7.979c-6.3,0-11.414,7.07-11.414,15.792s5.111,15.792,11.414,15.792h7.979Z" transform="translate(-1486.946 -1164.428)" fill="#412233"/>
      <ellipse id="Ellipse_4213" data-name="Ellipse 4213" cx="11.414" cy="15.792" rx="11.414" ry="15.792" transform="translate(17.228 52.096)" fill="#412233"/>
      <ellipse id="Ellipse_4214" data-name="Ellipse 4214" cx="11.414" cy="15.792" rx="11.414" ry="15.792" transform="translate(116.45 52.096)" fill="#412233"/>
      <path id="Path_109108" data-name="Path 109108" d="M1626.022,1141.73h-8.192a7.4,7.4,0,0,0-7.4,7.4h23A7.4,7.4,0,0,0,1626.022,1141.73Z" transform="translate(-1491.501 -1141.73)" fill="#fbd5a2"/>
      <path id="Path_109109" data-name="Path 109109" d="M1439.685,1199.843v13.847a3.38,3.38,0,0,0,.044.576,4.055,4.055,0,0,0,4.016,3.484l8.655.008c0,.008,0,.008.011.016h31.623c.012-.008.012-.008.012-.016l68.931.016h30.571c0-.072.009-.14.009-.216l15.891-2.744a9.3,9.3,0,0,0,5.565-8.594v-23.785c0-2.529-.836-4.373-2.4-5.406l-11.5-21.013a7.825,7.825,0,0,0-6.63-3.648h-58.061a26.935,26.935,0,0,0-8.078,2.228l-33.427,21.432h-9.962c-20.445,0-27.67,13.223-32.044,18.293C1442.05,1195.319,1439.685,1198.5,1439.685,1199.843Z" transform="translate(-1439.685 -1144.959)" fill="#ffad80"/>
      <path id="Path_109110" data-name="Path 109110" d="M1572.3,1216.524h-7.979c-6.3,0-11.414,7.07-11.414,15.792s5.11,15.792,11.414,15.792h7.979Z" transform="translate(-1474.047 -1164.428)" fill="#412233"/>
      <path id="Path_109111" data-name="Path 109111" d="M1680.928,1182.433v23.783a9.29,9.29,0,0,1-5.559,8.6l-3.234,2.962-45.667-.01-89.856-.019a4.056,4.056,0,0,1-4.063-4.053V1199.84c0-1.345-1.41-4.523-.545-5.52,4.374-5.069,15.376-18.292,35.811-18.292h4.354l34.325-22.372a7.828,7.828,0,0,1,4.316-1.3h49.6a7.847,7.847,0,0,1,6.63,3.658l11.576,21.056C1680.128,1178.126,1680.928,1179.95,1680.928,1182.433Z" transform="translate(-1467.616 -1144.956)" fill="#ffad80"/>
      <path id="Path_109112" data-name="Path 109112" d="M1666.822,1158.873a7.808,7.808,0,0,0-5.576-2.342h-49.6a7.831,7.831,0,0,0-4.317,1.3l-34.324,22.373h-4.354a42.716,42.716,0,0,0-29.379,11.529h-4.786c5.717-5.972,16.015-14.351,32.284-14.351h4.354l34.325-22.372a7.831,7.831,0,0,1,4.316-1.3h49.6a7.847,7.847,0,0,1,6.63,3.658Z" transform="translate(-1468.456 -1145.365)" fill="#ffcbb0"/>
      <path id="Path_109113" data-name="Path 109113" d="M1703.269,1216.524h-7.979c-6.3,0-11.415,7.07-11.415,15.792s5.111,15.792,11.415,15.792h7.979Z" transform="translate(-1513.791 -1164.428)" fill="#412233"/>
      <path id="Path_109114" data-name="Path 109114" d="M1681.292,1199.324H1573.823a55.868,55.868,0,0,0-37.693,14.326c-.866.786-3.222,3.276-3.222,4.331v10.845c0,1.758,1.818,3.182,4.06,3.182l135.523.023s8.8-.635,8.8-9.055Z" transform="translate(-1467.976 -1159.209)" fill="#f79865"/>
      <rect id="Rectangle_10524" data-name="Rectangle 10524" width="61.605" height="4.771" transform="translate(113.295 68.047)" fill="#ffad80"/>
      <rect id="Rectangle_10525" data-name="Rectangle 10525" width="94.041" height="3.486" transform="translate(80.834 69.307)" fill="#ed8f5c"/>
      <path id="Path_109115" data-name="Path 109115" d="M1689.949,1234.723c-1.719-17.426,5.778-26.429,15.244-26.429,9.3,0,16.463,9.4,15.243,26.429Z" transform="translate(-1515.56 -1161.931)" fill="#ffad80"/>
      <path id="Path_109116" data-name="Path 109116" d="M1439.685,1239.673v.513a3.384,3.384,0,0,0,.044.576h83.246a.544.544,0,0,0,0-1.089Z" transform="translate(-1439.685 -1171.454)" fill="#fae2d7"/>
      <path id="Path_109117" data-name="Path 109117" d="M1558.09,1234.723c-.227-17.608,6.579-26.429,16.043-26.429,9.3,0,16.464,9.4,15.244,26.429Z" transform="translate(-1475.617 -1161.931)" fill="#ffad80"/>
      <path id="Path_109118" data-name="Path 109118" d="M1560.43,1235.481c-.6-15.987,5.955-24.788,14.4-24.788,8.3,0,14.686,9.693,13.6,24.788Z" transform="translate(-1476.316 -1162.659)" fill="#412233"/>
      <ellipse id="Ellipse_4215" data-name="Ellipse 4215" cx="11.414" cy="15.792" rx="11.414" ry="15.792" transform="translate(86.843 52.096)" fill="#524759"/>
      <ellipse id="Ellipse_4216" data-name="Ellipse 4216" cx="7.202" cy="12.009" rx="7.202" ry="12.009" transform="translate(91.056 55.879)" fill="#fae2d7"/>
      <g id="Group_61439" data-name="Group 61439" transform="translate(91.939 59.806)">
        <path id="Path_109119" data-name="Path 109119" d="M1575.881,1245.942l-.843,2.2a3.482,3.482,0,0,0,2.464,1.14,2.972,2.972,0,0,0,1.153-.234l-1.236-3.241a1.524,1.524,0,0,1-.878.3A1.419,1.419,0,0,1,1575.881,1245.942Z" transform="translate(-1572.701 -1233.122)" fill="#c7978c"/>
        <path id="Path_109120" data-name="Path 109120" d="M1580.451,1240.385a6.979,6.979,0,0,1-.814,2.825l1.377,3.6c1.451-1.2,2.489-3.59,2.662-6.415Z" transform="translate(-1574.096 -1231.475)" fill="#c7978c"/>
        <path id="Path_109121" data-name="Path 109121" d="M1581.818,1229.639l-1.537,4.026a8.208,8.208,0,0,1,.4,2.348l3.215.012A10.3,10.3,0,0,0,1581.818,1229.639Z" transform="translate(-1574.292 -1228.214)" fill="#c7978c"/>
        <path id="Path_109122" data-name="Path 109122" d="M1577.769,1231.686l1.326-3.471a3.183,3.183,0,0,0-1.844-.621,3.854,3.854,0,0,0-3.039,1.826l.778,2.04a1.739,1.739,0,0,1,1.3-.689A1.885,1.885,0,0,1,1577.769,1231.686Z" transform="translate(-1572.449 -1227.593)" fill="#c7978c"/>
        <path id="Path_109123" data-name="Path 109123" d="M1573.014,1240.35l-1.3-.006a10.8,10.8,0,0,0,1.511,5.13l.772-2.018A6.528,6.528,0,0,1,1573.014,1240.35Z" transform="translate(-1571.692 -1231.463)" fill="#c7978c"/>
        <path id="Path_109124" data-name="Path 109124" d="M1572.975,1236.7a7.931,7.931,0,0,1,.525-2.684l-.778-2.04a11.749,11.749,0,0,0-1.041,4.721Z" transform="translate(-1571.682 -1228.923)" fill="#c7978c"/>
        <path id="Path_109125" data-name="Path 109125" d="M1574.808,1238.021a5.088,5.088,0,0,0,.064.808,3.453,3.453,0,0,0,.449,1.255,1.152,1.152,0,0,0,.926.637h.019a.141.141,0,0,0,.032,0,1.225,1.225,0,0,0,.919-.711,3.439,3.439,0,0,0,.4-1.166,4.792,4.792,0,0,0,.068-.82c0-.1,0-.2-.006-.288a4.872,4.872,0,0,0-.064-.545,3.038,3.038,0,0,0-.625-1.482,1,1,0,0,0-.743-.388.974.974,0,0,0-.692.333,2.839,2.839,0,0,0-.651,1.409v0a4.312,4.312,0,0,0-.086.657C1574.812,1237.82,1574.808,1237.919,1574.808,1238.021Z" transform="translate(-1572.631 -1229.938)" fill="#c7978c"/>
      </g>
      <path id="Path_109126" data-name="Path 109126" d="M1579.927,1244.771a3.54,3.54,0,0,0,.576.047c3.2,0,5.8-4.46,5.8-9.962s-2.6-9.962-5.8-9.962a3.447,3.447,0,0,0-.576.048c2.936.5,5.226,4.748,5.226,9.914S1582.863,1244.27,1579.927,1244.771Z" transform="translate(-1482.245 -1166.968)" fill="#c7978c"/>
      <path id="Path_109127" data-name="Path 109127" d="M1692.315,1235.481c-1.533-15.448,5.154-24.788,13.6-24.788,8.3,0,14.686,9.693,13.6,24.788Z" transform="translate(-1516.286 -1162.659)" fill="#412233"/>
      <g id="Group_61441" data-name="Group 61441" transform="translate(178.064 52.096)">
        <ellipse id="Ellipse_4217" data-name="Ellipse 4217" cx="11.414" cy="15.792" rx="11.414" ry="15.792" fill="#524759"/>
        <ellipse id="Ellipse_4218" data-name="Ellipse 4218" cx="7.202" cy="12.009" rx="7.202" ry="12.009" transform="translate(4.212 3.783)" fill="#fae2d7"/>
        <g id="Group_61440" data-name="Group 61440" transform="translate(5.095 7.71)">
          <path id="Path_109128" data-name="Path 109128" d="M1706.846,1245.942l-.842,2.2a3.48,3.48,0,0,0,2.463,1.14,2.968,2.968,0,0,0,1.152-.234l-1.236-3.241a1.521,1.521,0,0,1-.877.3A1.426,1.426,0,0,1,1706.846,1245.942Z" transform="translate(-1703.666 -1233.122)" fill="#c7978c"/>
          <path id="Path_109129" data-name="Path 109129" d="M1711.415,1240.385a6.95,6.95,0,0,1-.813,2.825l1.378,3.6c1.451-1.2,2.488-3.59,2.661-6.415Z" transform="translate(-1705.061 -1231.475)" fill="#c7978c"/>
          <path id="Path_109130" data-name="Path 109130" d="M1712.783,1229.639l-1.537,4.026a8.2,8.2,0,0,1,.4,2.348l3.216.012A10.3,10.3,0,0,0,1712.783,1229.639Z" transform="translate(-1705.257 -1228.214)" fill="#c7978c"/>
          <path id="Path_109131" data-name="Path 109131" d="M1708.735,1231.686l1.326-3.471a3.186,3.186,0,0,0-1.845-.621,3.854,3.854,0,0,0-3.039,1.826l.778,2.04a1.738,1.738,0,0,1,1.3-.689A1.886,1.886,0,0,1,1708.735,1231.686Z" transform="translate(-1703.414 -1227.593)" fill="#c7978c"/>
          <path id="Path_109132" data-name="Path 109132" d="M1703.979,1240.35l-1.3-.006a10.793,10.793,0,0,0,1.512,5.13l.772-2.018A6.528,6.528,0,0,1,1703.979,1240.35Z" transform="translate(-1702.657 -1231.463)" fill="#c7978c"/>
          <path id="Path_109133" data-name="Path 109133" d="M1703.941,1236.7a7.94,7.94,0,0,1,.525-2.684l-.779-2.04a11.756,11.756,0,0,0-1.041,4.721Z" transform="translate(-1702.647 -1228.923)" fill="#c7978c"/>
          <path id="Path_109134" data-name="Path 109134" d="M1705.774,1238.021a5.017,5.017,0,0,0,.064.808,3.466,3.466,0,0,0,.449,1.255,1.151,1.151,0,0,0,.925.637h.019a.146.146,0,0,0,.032,0,1.225,1.225,0,0,0,.919-.711,3.463,3.463,0,0,0,.4-1.166,4.792,4.792,0,0,0,.068-.82c0-.1,0-.2-.007-.288a4.576,4.576,0,0,0-.064-.545,3.032,3.032,0,0,0-.625-1.482,1,1,0,0,0-.743-.388.977.977,0,0,0-.692.333,2.842,2.842,0,0,0-.65,1.409v0a4.04,4.04,0,0,0-.086.657C1705.777,1237.82,1705.774,1237.919,1705.774,1238.021Z" transform="translate(-1703.596 -1229.938)" fill="#c7978c"/>
        </g>
        <path id="Path_109135" data-name="Path 109135" d="M1710.892,1244.771a3.529,3.529,0,0,0,.576.047c3.205,0,5.8-4.46,5.8-9.962s-2.6-9.962-5.8-9.962a3.437,3.437,0,0,0-.576.048c2.937.5,5.225,4.748,5.225,9.914S1713.829,1244.27,1710.892,1244.771Z" transform="translate(-1700.054 -1219.064)" fill="#c7978c"/>
      </g>
      <path id="Path_109136" data-name="Path 109136" d="M1538.028,1200.478l-25.5,3.764-3.764,7.265h26.6c4.457,0,8.069-2.958,8.069-6.607h0C1543.431,1202.458,1541.013,1200.478,1538.028,1200.478Z" transform="translate(-1460.649 -1159.558)" fill="#fae2d7"/>
      <path id="Path_109137" data-name="Path 109137" d="M1493.943,1205.882h-40.05l-6.367,7.265h42.653Z" transform="translate(-1442.065 -1161.199)" fill="#412233"/>
      <path id="Path_109138" data-name="Path 109138" d="M1452.089,1205.211l-3.585-1.539s-1.507,1.539-3.584,4.123a43.284,43.284,0,0,0-3.339,4.682h4.14Z" transform="translate(-1440.26 -1160.528)" fill="#fae2d7"/>
      <path id="Path_109139" data-name="Path 109139" d="M1512.007,1229.644h-72.319v6.987h76.125c1.146,0,1.841-.99,1.229-1.748l-3.805-4.71A1.584,1.584,0,0,0,1512.007,1229.644Z" transform="translate(-1439.686 -1168.41)" fill="#412233"/>
      <path id="Path_109140" data-name="Path 109140" d="M1511.589,1229.644l5.645,6.985h5.3l-5.645-6.985Z" transform="translate(-1461.506 -1168.41)" fill="#ffad80"/>
      <path id="Path_109141" data-name="Path 109141" d="M1439.685,1230.776v5.854h.572l5.645-6.985h-5.3Z" transform="translate(-1439.685 -1168.41)" fill="#ffad80"/>
      <rect id="Rectangle_10526" data-name="Rectangle 10526" width="27.194" height="5.251" transform="translate(10.967 55.983)" fill="#fae2d7"/>
      <path id="Path_109142" data-name="Path 109142" d="M1497.694,1177.006h54.937a16.525,16.525,0,0,0,8.945-2.632L1581,1161.863l3.837-2.473a2.066,2.066,0,0,0-1.116-3.8H1535.9Z" transform="translate(-1457.289 -1145.935)" fill="#524759"/>
      <path id="Path_109143" data-name="Path 109143" d="M1510.871,1179.741h45.759a16.521,16.521,0,0,0,8.946-2.632L1585,1164.6h-45.594Z" transform="translate(-1461.288 -1148.67)" fill="#412233"/>
      <g id="Group_61442" data-name="Group 61442" transform="translate(115.553 29.29)">
        <path id="Path_109144" data-name="Path 109144" d="M1610.634,1222.539h-1.411v-27.932c0-5.045-3.6-9.931-3.638-9.98l1.13-.845c.16.214,3.92,5.3,3.92,10.825Z" transform="translate(-1605.585 -1183.782)" fill="#e68466"/>
      </g>
      <g id="Group_61443" data-name="Group 61443" transform="translate(152.251 29.29)">
        <path id="Path_109145" data-name="Path 109145" d="M1663.321,1222.539h-1.411v-27.932c0-5.045-3.6-9.931-3.639-9.98l1.13-.845c.16.214,3.919,5.3,3.919,10.825Z" transform="translate(-1658.272 -1183.782)" fill="#e68466"/>
      </g>
      <g id="Group_61444" data-name="Group 61444" transform="translate(169.349 29.463)">
        <path id="Path_109146" data-name="Path 109146" d="M1682.829,1222.615h1.448a35.646,35.646,0,0,1,.824-8.686c.949-4.213,3.149-9.83,8.265-12.655a6.868,6.868,0,0,0,3.753-6.633,34.075,34.075,0,0,0-1.944-10.611l-1.32.5a33.154,33.154,0,0,1,1.852,10.154l.008.092a5.458,5.458,0,0,1-3.033,5.265c-4.413,2.437-7.509,7.135-8.958,13.584A38.746,38.746,0,0,0,1682.829,1222.615Z" transform="translate(-1682.82 -1184.03)" fill="#e68466"/>
      </g>
      <path id="Path_109147" data-name="Path 109147" d="M1606.531,1177a.633.633,0,0,0,.089,0l80.937,0a4.144,4.144,0,0,0,3.577-6.149l-4.589-8.994-.676-1.324c-1.913-3.425-7.262-4.966-9.222-4.966h-40.212a17.376,17.376,0,0,0-9.582,2.889l-5.141,3.4-16.356,10.823A2.358,2.358,0,0,0,1606.531,1177Z" transform="translate(-1489.641 -1145.929)" fill="#524759"/>
      <path id="Path_109148" data-name="Path 109148" d="M1606.531,1179.741h81.026a4.144,4.144,0,0,0,3.577-6.149l-4.589-8.994h-64.834l-16.356,10.823A2.358,2.358,0,0,0,1606.531,1179.741Z" transform="translate(-1489.641 -1148.67)" fill="#412233"/>
      <path id="Path_109149" data-name="Path 109149" d="M1742.612,1187.846v7.995h2.32v-5.511a1.723,1.723,0,0,0-.758-1.427Z" transform="translate(-1531.617 -1155.725)" fill="#d6533f"/>
      <g id="Group_61445" data-name="Group 61445" transform="translate(144.465 35.982)">
        <rect id="Rectangle_10527" data-name="Rectangle 10527" width="5.76" height="1.411" fill="#412233"/>
      </g>
      <g id="Group_61446" data-name="Group 61446" transform="translate(176.694 35.982)">
        <rect id="Rectangle_10528" data-name="Rectangle 10528" width="3.878" height="1.411" fill="#412233"/>
      </g>
      <g id="Group_61447" data-name="Group 61447" transform="translate(153.052 9.651)">
        <rect id="Rectangle_10529" data-name="Rectangle 10529" width="1.411" height="21.423" fill="#524759"/>
      </g>
      <g id="Group_61448" data-name="Group 61448" transform="translate(172.732 9.641)">
        <path id="Path_109150" data-name="Path 109150" d="M1697.129,1177h-1.5l-7.946-21.432h1.5Z" transform="translate(-1687.678 -1155.572)" fill="#524759"/>
      </g>
      <path id="Rectangle_10530" data-name="Rectangle 10530" d="M4.31,0H8.581a0,0,0,0,1,0,0V4.31a0,0,0,0,1,0,0H0a0,0,0,0,1,0,0v0A4.31,4.31,0,0,1,4.31,0Z" transform="translate(117.799 26.764)" fill="#f79865"/>
      <path id="Rectangle_10531" data-name="Rectangle 10531" d="M6.078,0h0a6.078,6.078,0,0,1,6.078,6.078V6.7a0,0,0,0,1,0,0H0a0,0,0,0,1,0,0V6.078A6.078,6.078,0,0,1,6.078,0Z" transform="translate(120.458 23.375)" fill="#ffad80"/>
    </g>
    <g id="Group_94832" data-name="Group 94832" transform="translate(1032.683 12600.01)">
      <g id="Group_61455" data-name="Group 61455" transform="translate(0 0)">
        <g id="Group_61450" data-name="Group 61450" transform="translate(27.098 129.125)">
          <path id="Path_109151" data-name="Path 109151" d="M1365,807.534a39.29,39.29,0,0,0,16.855,17.771c20.756,10.958,41.143,2.362,54.255-5.58l17.2,21.22c-18.389,12-48.491,24.821-82.2,9.314-23.64-10.876-29.2-26.958-29.372-28.746Z" transform="translate(-1341.732 -807.534)" fill="#ededed"/>
        </g>
        <path id="Path_109152" data-name="Path 109152" d="M1606.1,1036.254l28.489,11.433,22.274,8.926-16.335,43.373-22.274-8.926-28.489-11.433Z" transform="translate(-1389.905 -747.821)" fill="#fcb08b"/>
        <g id="Group_61451" data-name="Group 61451" transform="translate(228.344 299.867)">
          <path id="Path_109153" data-name="Path 109153" d="M1647,1052.669l22.274,8.926-21.224,56.354s-8.768-6.831-6.741-17.641l-10.644-4.266Z" transform="translate(-1630.662 -1052.669)" fill="#412233"/>
        </g>
        <path id="Path_109154" data-name="Path 109154" d="M1510.71,977.8l-.958-64.492L1449.7,921l-5.337,68.7c-2.316,19.021,7.328,34.2,25.471,41.036l89.405,29.46,21.249-56.419Z" transform="translate(-1345.675 -710.508)" fill="#412233"/>
        <path id="Path_109155" data-name="Path 109155" d="M1438.146,1138.748l-12.226,39.835-8.365,27.289L1374.84,1217.3l5.917-26.634,8.653-38.879Z" transform="translate(-1324.681 -778.925)" fill="#fcb08b"/>
        <path id="Path_109156" data-name="Path 109156" d="M1415.939,916.007l-45.7,192.956,65.76-17.594L1486.639,902Z" transform="translate(-1323.285 -707.076)" fill="#7d5571"/>
        <g id="Group_61452" data-name="Group 61452" transform="translate(37.375 399.658)">
          <path id="Path_109157" data-name="Path 109157" d="M1420.35,1195.939l-8.365,27.29-55.5,14.849s5.132-12.111,15.791-16.955l2.91-13.1Z" transform="translate(-1356.486 -1195.939)" fill="#412233"/>
        </g>
        <g id="Group_61454" data-name="Group 61454">
          <rect id="Rectangle_10532" data-name="Rectangle 10532" width="18.073" height="66.908" transform="matrix(-0.357, -0.934, 0.934, -0.357, 108.29, 141.169)" fill="#7d5571"/>
          <g id="Group_61453" data-name="Group 61453" transform="translate(145.424)">
            <path id="Path_109158" data-name="Path 109158" d="M1597.63,794.105a85.978,85.978,0,1,0-80.316-55.315A85.616,85.616,0,0,0,1597.63,794.105Zm-.029-153.773a67.794,67.794,0,1,1-63.3,91.972,67.824,67.824,0,0,1,63.3-91.972Z" transform="translate(-1511.613 -622.149)" fill="#7d5571"/>
          </g>
          <rect id="Rectangle_10533" data-name="Rectangle 10533" width="25.663" height="113.657" transform="translate(9.155 184.58) rotate(-110.899)" fill="#412233"/>
          <rect id="Rectangle_10534" data-name="Rectangle 10534" width="25.663" height="6.859" transform="translate(103.675 148.487) rotate(-110.899)" fill="#7d5571"/>
          <path id="Path_109159" data-name="Path 109159" d="M1310.787,848.618l9.161,23.972,6.325-2.415-9.034-24.021Z" transform="translate(-1305.242 -690.129)" fill="#7d5571"/>
        </g>
        <path id="Path_109160" data-name="Path 109160" d="M1431.361,897.358h77.048l-1.351-56.061a37.849,37.849,0,0,0-37.849-37.848h0a37.849,37.849,0,0,0-37.849,37.848Z" transform="translate(-1341.834 -677.169)" fill="#fff"/>
        <circle id="Ellipse_4219" data-name="Ellipse 4219" cx="16.44" cy="16.44" r="16.44" transform="matrix(0.766, -0.643, 0.643, 0.766, 18.665, 136.052)" fill="#fcb08b"/>
      </g>
      <g id="Group_61460" data-name="Group 61460" transform="translate(106.066 96.825)">
        <g id="Group_61456" data-name="Group 61456" transform="translate(0.144)">
          <path id="Path_109161" data-name="Path 109161" d="M1468.367,802.335l12.263-8.489-5.636-22.334-13.352,2.331Z" transform="translate(-1457.235 -764.303)" fill="#fcb08b"/>
          <path id="Path_109162" data-name="Path 109162" d="M1456.023,769.351l-.006.136a8.8,8.8,0,0,0,.12,1.879,8.717,8.717,0,0,0,10.074,7.079,8.28,8.28,0,0,0,1.416-.372,8.7,8.7,0,1,0-11.6-8.721Z" transform="translate(-1455.525 -761.163)" fill="#fcb08b"/>
          <path id="Path_109163" data-name="Path 109163" d="M1455.321,783.474a3.829,3.829,0,0,0,.18,1.407,4.312,4.312,0,0,0,4.714,2.922l6.749-1.178.451-5.022.783-8.8-4.207.026-8.18.056-.006.136Z" transform="translate(-1455.314 -764.693)" fill="#fcb08b"/>
          <path id="Path_109164" data-name="Path 109164" d="M1455.321,781.825a3.829,3.829,0,0,0,.18,1.407,2.512,2.512,0,0,0,1.748-.455,11.607,11.607,0,0,0,3.445-3.2,20.213,20.213,0,0,0,3.3-8.4c.164-1,.2-1.632.2-1.632l-7.207-2.178a8.7,8.7,0,0,0-1.172,3.866l-.006.136Z" transform="translate(-1455.314 -763.045)" fill="#ffc1a3"/>
          <path id="Path_109165" data-name="Path 109165" d="M1456.364,767.794l6.605.286c2.729.08,2.724,4.359,6.059,5.991a12.764,12.764,0,0,0,6.141,1.337l-1.778-7.034a8.7,8.7,0,0,0-10.069-7.082A8.485,8.485,0,0,0,1456.364,767.794Z" transform="translate(-1455.633 -761.161)" fill="#412233"/>
          <path id="Path_109166" data-name="Path 109166" d="M1470.035,777.7a2.854,2.854,0,1,0,2.32-3.3A2.854,2.854,0,0,0,1470.035,777.7Z" transform="translate(-1459.769 -765.167)" fill="#fcb08b"/>
        </g>
        <path id="Path_109167" data-name="Path 109167" d="M1466.934,773.211l-.509,11.722s-.606,1.607-4.013,2.531-6.512-.4-7.069-1.672.048-5.7.048-5.7a17.044,17.044,0,0,1,4.4.51,3.34,3.34,0,0,1,1.7,1.866,2.922,2.922,0,0,0,2.649-2.637,65.975,65.975,0,0,0,.5-8.014Z" transform="translate(-1455.107 -764.397)" fill="#412233"/>
        <g id="Group_61459" data-name="Group 61459" transform="translate(0.623 13.469)">
          <g id="Group_61457" data-name="Group 61457">
            <path id="Path_109168" data-name="Path 109168" d="M1457.3,782.605l.021-.461-.836-.037.068-1.588-.461-.021-.089,2.05Z" transform="translate(-1456.001 -780.499)" fill="#233559"/>
          </g>
          <g id="Group_61458" data-name="Group 61458" transform="translate(1.152 3.874)">
            <path id="Path_109169" data-name="Path 109169" d="M1457.76,787.627a3.48,3.48,0,0,0,2.438-1.279l-.361-.287a3.068,3.068,0,0,1-2.079,1.1l-.081,0-.021.461Z" transform="translate(-1457.655 -786.061)" fill="#fcb08b"/>
          </g>
        </g>
      </g>
      <g id="Group_61461" data-name="Group 61461" transform="translate(128.041 129.125)">
        <path id="Path_109170" data-name="Path 109170" d="M1495.344,833.93l2.6,1.006,22.883,8.857,4.509,1.745,19.969,7.729a13.662,13.662,0,0,0,9.945-25.45l-18.569-7.193-29.62-11.461-1.764-.684a13.592,13.592,0,0,0-7.906-.625c-.187.043-.375.086-.56.135a13.668,13.668,0,0,0-1.484,25.941Z" transform="translate(-1486.655 -807.534)" fill="#fff"/>
      </g>
      <g id="Group_61462" data-name="Group 61462" transform="translate(172.741 203.549)">
        <path id="Path_109171" data-name="Path 109171" d="M1551.094,932.231l.475-3.715c.135-1.049,1.03-8.053,1.03-8.053l.778-6.078,17.687,2.262-1.511,11.815a.934.934,0,0,0,1.262.991h0a2.941,2.941,0,0,1,3.694,1.34,2.859,2.859,0,0,1-1.529,3.951l-18.62,7.16C1552.974,942.435,1549.921,940.592,1551.094,932.231Z" transform="translate(-1550.832 -914.385)" fill="#fcb08b"/>
      </g>
      <g id="Group_61463" data-name="Group 61463" transform="translate(175.135 149.211)">
        <path id="Path_109172" data-name="Path 109172" d="M1554.269,891.9l17.687,2.262s11.142-31.7,12.51-42.395c1.122-8.777-4.334-14.327-11.818-15.284h0a13.661,13.661,0,0,0-15.284,11.818Z" transform="translate(-1554.269 -836.371)" fill="#fff"/>
      </g>
    </g>
    <g id="Group_94834" data-name="Group 94834" transform="translate(0 131.66)">
      <rect id="Rectangle_32515" data-name="Rectangle 32515" width="31.863" height="17.86" transform="translate(1014.179 12159.303)" fill="#412233"/>
      <rect id="Rectangle_32516" data-name="Rectangle 32516" width="31.863" height="17.859" transform="translate(1014.179 12444.532)" fill="#412233"/>
      <g id="Group_94833" data-name="Group 94833" transform="translate(1033.174 12122.35)">
        <g id="Group_61423" data-name="Group 61423" transform="translate(0)">
          <rect id="Rectangle_10522" data-name="Rectangle 10522" width="92.361" height="360.819" transform="translate(3.576 3.575)" fill="#ffa669"/>
          <path id="Path_109094" data-name="Path 109094" d="M1219.245,907.217h-99.511V539.249h99.511Zm-92.361-7.15H1212.1V546.4h-85.212Z" transform="translate(-1119.733 -539.249)" fill="#fff"/>
        </g>
        <g id="Group_61429" data-name="Group 61429" transform="translate(27.471 32.562)">
          <g id="Group_61424" data-name="Group 61424" transform="translate(0.998)">
            <path id="Path_109095" data-name="Path 109095" d="M1177.279,607.308H1165.07v-21.27h-18.088v21.27H1134.7V556.371h12.279v20.221h18.088V556.371h12.208Z" transform="translate(-1134.703 -556.371)" fill="#fff"/>
          </g>
          <g id="Group_61425" data-name="Group 61425" transform="translate(0 62.463)">
            <path id="Path_109096" data-name="Path 109096" d="M1178.75,616.433a31.336,31.336,0,0,1-1.646,10.5,22.921,22.921,0,0,1-4.6,7.905,19.9,19.9,0,0,1-7.031,4.987,22.63,22.63,0,0,1-8.94,1.73,23.066,23.066,0,0,1-9.042-1.73,19.807,19.807,0,0,1-7.066-4.987,22.932,22.932,0,0,1-4.6-7.905,31.349,31.349,0,0,1-1.645-10.5V614.37a31.64,31.64,0,0,1,1.628-10.5,22.742,22.742,0,0,1,4.583-7.907,20.05,20.05,0,0,1,7.05-5,23.975,23.975,0,0,1,17.981,0,20.048,20.048,0,0,1,7.049,5,23.192,23.192,0,0,1,4.617,7.907,31.03,31.03,0,0,1,1.664,10.5Zm-12.49-2.134q0-7.591-2.537-11.529a8.762,8.762,0,0,0-14.624,0q-2.432,3.936-2.43,11.529v2.134q0,7.488,2.483,11.51a8.12,8.12,0,0,0,7.38,4.024,8.035,8.035,0,0,0,7.208-4q2.518-4.009,2.519-11.529Z" transform="translate(-1134.178 -589.216)" fill="#fff"/>
          </g>
          <g id="Group_61426" data-name="Group 61426" transform="translate(0.998 130.651)">
            <path id="Path_109097" data-name="Path 109097" d="M1177.279,634.552h-15.288v41.457h-12.28V634.552H1134.7v-9.481h42.576Z" transform="translate(-1134.703 -625.071)" fill="#fff"/>
          </g>
          <g id="Group_61427" data-name="Group 61427" transform="translate(4.707 198.131)">
            <path id="Path_109098" data-name="Path 109098" d="M1168.242,689.906h-19.31v12.139h22.81v9.446h-35.089V660.554h35.159v9.48h-22.879v10.739h19.31Z" transform="translate(-1136.653 -660.554)" fill="#fff"/>
          </g>
          <g id="Group_61428" data-name="Group 61428" transform="translate(5.458 260.52)">
            <path id="Path_109099" data-name="Path 109099" d="M1149.327,734.852H1170.7V744.3h-33.655V693.36h12.279Z" transform="translate(-1137.048 -693.36)" fill="#fff"/>
          </g>
        </g>
      </g>
    </g>
  </g>
</svg>
