<svg xmlns="http://www.w3.org/2000/svg" width="70.28" height="86" viewBox="0 0 70.28 86">
  <g id="Grupo_108977" data-name="Grupo 108977" transform="translate(-247.95 -221.5)">
    <path id="Trazado_167098" data-name="Trazado 167098" d="M300.3,296.654v5.082a44.136,44.136,0,0,1-14.577,5.161q-1.682.277-3.4.43-1.07.1-2.157.136-.885.037-1.779.036-1.992,0-3.939-.172a44.192,44.192,0,0,1-17.973-5.591v-5.082a16.535,16.535,0,0,1,12.245-15.966c.258-.068.518-.132.781-.189a16.534,16.534,0,0,1,2.151-.317c.447-.037.9-.054,1.353-.054h10.763a16.524,16.524,0,0,1,3.506.371c.065.013.13.028.194.043.191.043.381.09.568.141l.015,0A16.541,16.541,0,0,1,300.3,296.654Z" fill="#3d4159"/>
    <path id="Trazado_167099" data-name="Trazado 167099" d="M288.087,280.5l-.04.188-5.728,26.64q-1.944.172-3.936.172t-3.939-.172l-5.728-26.639-.04-.189Z" fill="#f2f0ec"/>
    <path id="Trazado_167100" data-name="Trazado 167100" d="M282.82,286.091l-4.437,7.116-4.437-7.116" fill="#f74f4f"/>
    <path id="Trazado_167101" data-name="Trazado 167101" d="M282.479,307.311q-2.023.188-4.1.189t-4.1-.187l4.1-15.957Z" fill="#f74f4f"/>
    <path id="Trazado_167102" data-name="Trazado 167102" d="M278.381,286.894l-7.441,4.135L268.676,280.5l4.624-2.723" fill="#d8d5d0"/>
    <path id="Trazado_167103" data-name="Trazado 167103" d="M278.381,286.894l7.442,4.135,2.263-10.529-4.624-2.723" fill="#d8d5d0"/>
    <path id="Trazado_167104" data-name="Trazado 167104" d="M293.179,282.161l-4.811,12.548h2.36l-5.01,12.188q-1.682.277-3.4.43-1.07.1-2.157.136l7.925-27.871Z" fill="#2a2f4f"/>
    <path id="Trazado_167105" data-name="Trazado 167105" d="M263.53,282.161l4.81,12.548h-2.359l5.01,12.188q1.68.277,3.4.43,1.071.1,2.157.136l-7.87-27.688Z" fill="#2a2f4f"/>
    <path id="Trazado_167106" data-name="Trazado 167106" d="M284.28,273.76V281a5.9,5.9,0,0,1-11.8,0V273.76Z" fill="#eab599"/>
    <path id="Trazado_167107" data-name="Trazado 167107" d="M284.28,280.539V281a5.9,5.9,0,0,1-4.154,5.632,5.892,5.892,0,0,1-4.1-4.864c.393.024.79.036,1.187.036a20.409,20.409,0,0,0,7.071-1.263Z" fill="#f6caae"/>
    <path id="Trazado_167108" data-name="Trazado 167108" d="M262.206,261.9a5.479,5.479,0,1,1-4.606-5.414A5.485,5.485,0,0,1,262.206,261.9Z" fill="#f6caae"/>
    <path id="Trazado_167109" data-name="Trazado 167109" d="M262.206,261.9a5.485,5.485,0,0,1-4.606,5.414,20.5,20.5,0,0,1,0-10.828A5.485,5.485,0,0,1,262.206,261.9Z" fill="#eab599"/>
    <path id="Trazado_167110" data-name="Trazado 167110" d="M258.682,261.9a1.96,1.96,0,1,1-1.96-1.96A1.96,1.96,0,0,1,258.682,261.9Z" fill="#eab599"/>
    <path id="Trazado_167111" data-name="Trazado 167111" d="M294.559,261.9a5.478,5.478,0,1,0,4.605-5.414A5.484,5.484,0,0,0,294.559,261.9Z" fill="#f6caae"/>
    <path id="Trazado_167112" data-name="Trazado 167112" d="M294.559,261.9a5.484,5.484,0,0,0,4.605,5.414,20.5,20.5,0,0,0,0-10.828A5.484,5.484,0,0,0,294.559,261.9Z" fill="#eab599"/>
    <path id="Trazado_167113" data-name="Trazado 167113" d="M298.787,251.216v7.77a20.405,20.405,0,0,1-17.13,20.14l-.1.016a20.119,20.119,0,0,1-3.176.247,20.4,20.4,0,0,1-20.4-20.4v-7.77a20.391,20.391,0,0,1,20.4-20.4h0a20.391,20.391,0,0,1,20.4,20.4Z" fill="#eab599"/>
    <path id="Trazado_167114" data-name="Trazado 167114" d="M302,261.9a1.96,1.96,0,1,1-1.96-1.96A1.96,1.96,0,0,1,302,261.9Z" fill="#eab599"/>
    <path id="Trazado_167115" data-name="Trazado 167115" d="M298.787,251.216v7.77a20.405,20.405,0,0,1-17.13,20.14l-.1.016a20.406,20.406,0,0,1-17.225-20.156v-7.77a20.408,20.408,0,0,1,17.228-20.158A20.408,20.408,0,0,1,298.787,251.216Z" fill="#f6caae"/>
    <path id="Trazado_167116" data-name="Trazado 167116" d="M280.7,262.718h-4.629a1,1,0,1,1,0-2H280.7a1,1,0,0,1,0,2Z" fill="#eab599"/>
    <path id="Trazado_167117" data-name="Trazado 167117" d="M278.383,269.035a10.316,10.316,0,0,1-4.975-1.284.908.908,0,0,1,.874-1.592,8.466,8.466,0,0,0,8.2,0,.908.908,0,0,1,.875,1.592A10.313,10.313,0,0,1,278.383,269.035Z" fill="#eab599"/>
    <path id="Trazado_167118" data-name="Trazado 167118" d="M298.787,244.165v7.959h-3.8v-6.233L267.576,240.8l-5.8-1.078v12.4h-3.8v-7.959A16.427,16.427,0,0,1,274.4,227.737h7.957c.216,0,.432,0,.648.015A16.423,16.423,0,0,1,298.787,244.165Z" fill="#2a2f4f"/>
    <path id="Trazado_167119" data-name="Trazado 167119" d="M298.787,244.165v7.959h-3.8v-6.233L267.576,240.8a15.728,15.728,0,0,1,31.211,3.368Z" fill="#3d4159"/>
    <path id="Trazado_167120" data-name="Trazado 167120" d="M273.618,285.2l-1.827,2.374L266.8,288.9l-2.945.784-2.3-2.118c-.064-.06-.129-.118-.191-.18-6.477-6.045-9.538-10.8-12.359-19.2-.029-.081-.056-.165-.083-.248l-.979-2.969,1.936-2.356,3.274-3.988,2.914-.681.452,1.149,1.273,3.237,1.842,4.688-2.4,2.189-1.619,1.477a33.315,33.315,0,0,0,6.21,9.649l2.015-.862,2.985-1.282,3.5,3.622,2.42,2.5,0,0Z" fill="#66baed"/>
    <path id="Trazado_167121" data-name="Trazado 167121" d="M266.835,278.2l-2.986,1.281,7.943,8.1,1.826-2.373Z" fill="#f2f0ec"/>
    <path id="Trazado_167122" data-name="Trazado 167122" d="M259.642,267.025l-2.4,2.187-4.081-10.582,2.916-.679Z" fill="#f2f0ec"/>
    <path id="Trazado_167123" data-name="Trazado 167123" d="M266.8,288.9l-2.945.784-2.3-2.118c-.064-.06-.129-.118-.191-.18-6.477-6.045-9.538-10.8-12.359-19.2-.029-.081-.056-.165-.083-.248l-.979-2.969,1.936-2.356S250.5,278.7,266.8,288.9Z" fill="#2ba1cf"/>
    <path id="Trazado_167124" data-name="Trazado 167124" d="M261.323,278.335l-2.76,2.759a3.774,3.774,0,0,1-4.444.658,3.77,3.77,0,0,1-.883-5.985l2.76-2.76a3.767,3.767,0,1,1,5.327,5.328Z" fill="#eab599"/>
    <path id="Trazado_167125" data-name="Trazado 167125" d="M261.323,278.335l-2.76,2.759a2.8,2.8,0,1,1-3.787-3.786l2.76-2.76a2.8,2.8,0,1,1,3.787,3.787Z" fill="#f6caae"/>
    <path id="Trazado_167126" data-name="Trazado 167126" d="M257.753,302.437a44.752,44.752,0,0,1-5.985-3.776q-1.476-1.1-2.852-2.324a42.965,42.965,0,0,1,2.758-16.423l2.392.9q2.582.974,5.165,1.951A34.929,34.929,0,0,0,257.753,302.437Z" fill="#2a2f4f"/>
    <path id="Trazado_167127" data-name="Trazado 167127" d="M257.753,302.437a44.752,44.752,0,0,1-5.985-3.776,43.006,43.006,0,0,1,2.3-17.843q2.582.974,5.165,1.951A34.929,34.929,0,0,0,257.753,302.437Z" fill="#3d4159"/>
    <path id="Trazado_167128" data-name="Trazado 167128" d="M285.126,221.5h33.1v24.884h-33.1Z" fill="#f2f0ec"/>
    <path id="Trazado_167129" data-name="Trazado 167129" d="M301.943,244.828l-3.555,8.443,15.552-8.887Z" fill="#f2f0ec"/>
    <g id="Grupo_108976" data-name="Grupo 108976">
      <path id="Trazado_167130" data-name="Trazado 167130" d="M297.82,233.942a2.333,2.333,0,1,1-2.333-2.333A2.333,2.333,0,0,1,297.82,233.942Z" fill="#3d4159"/>
      <path id="Trazado_167131" data-name="Trazado 167131" d="M304.01,233.942a2.333,2.333,0,1,1-2.332-2.333A2.332,2.332,0,0,1,304.01,233.942Z" fill="#3d4159"/>
      <path id="Trazado_167132" data-name="Trazado 167132" d="M310.2,233.942a2.333,2.333,0,1,1-2.334-2.333A2.333,2.333,0,0,1,310.2,233.942Z" fill="#3d4159"/>
    </g>
  </g>
</svg>
