<svg xmlns="http://www.w3.org/2000/svg" width="52.488" height="86" viewBox="0 0 52.488 86">
  <g id="Grupo_109144" data-name="Grupo 109144" transform="translate(-6592 10432)">
    <g id="Grupo_108981" data-name="Grupo 108981" transform="translate(6362 -10645)">
      <path id="Trazado_167160" data-name="Trazado 167160" d="M265,290.246a8.753,8.753,0,0,1-17.506,0Z" fill="#bececc"/>
      <path id="Trazado_167161" data-name="Trazado 167161" d="M265,290.247a8.756,8.756,0,0,1-10.767,8.519,8.755,8.755,0,0,0,6.737-8.519Z" fill="#acbcba"/>
      <path id="Trazado_167162" data-name="Trazado 167162" d="M266.158,290.389H246.329a2.359,2.359,0,0,1-2.359-2.359v-2.881a2.359,2.359,0,0,1,2.359-2.359h19.829a2.359,2.359,0,0,1,2.359,2.359v2.881A2.359,2.359,0,0,1,266.158,290.389Z" fill="#929298"/>
      <path id="Trazado_167163" data-name="Trazado 167163" d="M268.518,285.15v2.88a2.36,2.36,0,0,1-2.36,2.359h-3.221a2.359,2.359,0,0,0,2.36-2.359v-2.88a2.359,2.359,0,0,0-2.36-2.36h3.221A2.36,2.36,0,0,1,268.518,285.15Z" fill="#7c8388"/>
      <path id="Trazado_167164" data-name="Trazado 167164" d="M281.147,231.4a27.537,27.537,0,0,0-7.536-11.481,25.271,25.271,0,0,0-34.735,0,27.528,27.528,0,0,0-7.536,11.48,26.676,26.676,0,0,0,1.585,20.486c2.515,4.778,6.342,8.736,10.045,12.62,3.617,3.793,5.235,5.641,5.7,11.859h15.138c.47-6.218,2.088-8.066,5.7-11.859,3.7-3.884,7.531-7.842,10.044-12.62A26.667,26.667,0,0,0,281.147,231.4Z" fill="#ffcd6b"/>
      <path id="Trazado_167165" data-name="Trazado 167165" d="M279.561,251.881c-2.513,4.776-6.341,8.736-10.044,12.619-3.617,3.793-5.236,5.642-5.7,11.858h-5.137c.47-6.216,2.087-8.065,5.7-11.858,3.7-3.883,7.531-7.843,10.044-12.619a26.674,26.674,0,0,0,1.586-20.487,27.529,27.529,0,0,0-7.535-11.479,26.928,26.928,0,0,0-14.8-6.764,22.283,22.283,0,0,1,2.568-.151,26.624,26.624,0,0,1,17.369,6.915,27.538,27.538,0,0,1,7.535,11.479A26.674,26.674,0,0,1,279.561,251.881Z" fill="#ffc143"/>
      <path id="Trazado_167166" data-name="Trazado 167166" d="M266.158,282.79H246.329a2.359,2.359,0,0,1-2.359-2.358v-2.881a2.358,2.358,0,0,1,2.359-2.359h19.829a2.358,2.358,0,0,1,2.359,2.359v2.881A2.358,2.358,0,0,1,266.158,282.79Z" fill="#929298"/>
      <path id="Trazado_167167" data-name="Trazado 167167" d="M268.518,277.55v2.882a2.359,2.359,0,0,1-2.36,2.358h-3.221a2.359,2.359,0,0,0,2.36-2.358V277.55a2.36,2.36,0,0,0-2.36-2.359h3.221A2.361,2.361,0,0,1,268.518,277.55Z" fill="#7c8388"/>
      <path id="Trazado_167168" data-name="Trazado 167168" d="M274.7,240a18.456,18.456,0,1,1-18.457-18.456A18.457,18.457,0,0,1,274.7,240Z" fill="#fa0"/>
      <path id="Trazado_167169" data-name="Trazado 167169" d="M274.7,240a18.455,18.455,0,0,1-31.334,13.221,18.458,18.458,0,0,0,21.711-29.43A18.454,18.454,0,0,1,274.7,240Z" fill="#ff9500"/>
      <path id="Trazado_167170" data-name="Trazado 167170" d="M268.869,240a12.626,12.626,0,1,1-12.626-12.626A12.626,12.626,0,0,1,268.869,240Z" fill="#ffcd6b"/>
      <path id="Trazado_167171" data-name="Trazado 167171" d="M268.869,240a12.625,12.625,0,0,1-22.044,8.408,12.628,12.628,0,0,0,14.317-20.047A12.628,12.628,0,0,1,268.869,240Z" fill="#ffc143"/>
      <g id="Grupo_108980" data-name="Grupo 108980">
        <path id="Trazado_167172" data-name="Trazado 167172" d="M264.338,251.009a1.308,1.308,0,0,0,.843-.306,14.067,14.067,0,0,0,1.9-1.928,1.316,1.316,0,0,0-2.045-1.656,11.517,11.517,0,0,1-1.541,1.566,1.315,1.315,0,0,0,.844,2.324Z" fill="#cb8000"/>
        <path id="Trazado_167173" data-name="Trazado 167173" d="M263.8,231.587a11.343,11.343,0,0,1,1.486,1.619,1.315,1.315,0,1,0,2.1-1.583,13.976,13.976,0,0,0-1.828-1.993,1.316,1.316,0,1,0-1.759,1.957Z" fill="#cb8000"/>
        <path id="Trazado_167174" data-name="Trazado 167174" d="M267.413,238.214a11.431,11.431,0,0,1-.07,3.976,1.316,1.316,0,0,0,1.038,1.544,1.3,1.3,0,0,0,.255.025,1.316,1.316,0,0,0,1.289-1.063,14.081,14.081,0,0,0,.087-4.894,1.316,1.316,0,0,0-2.6.412Z" fill="#cb8000"/>
        <path id="Trazado_167175" data-name="Trazado 167175" d="M245.216,242.53a1.316,1.316,0,0,0-2.566.585,13.845,13.845,0,0,0,.859,2.569,1.315,1.315,0,0,0,2.4-1.073A11.228,11.228,0,0,1,245.216,242.53Z" fill="#cb8000"/>
        <path id="Trazado_167176" data-name="Trazado 167176" d="M258.6,251.068a11.468,11.468,0,0,1-2.183.245,1.316,1.316,0,0,0,.02,2.631h.02a13.973,13.973,0,0,0,2.688-.3,1.316,1.316,0,0,0-.545-2.574Z" fill="#cb8000"/>
        <path id="Trazado_167177" data-name="Trazado 167177" d="M248.812,231.111a1.307,1.307,0,0,0,.774-.253,11.423,11.423,0,0,1,1.891-1.116,1.315,1.315,0,1,0-1.11-2.385,13.871,13.871,0,0,0-2.331,1.376,1.315,1.315,0,0,0,.776,2.378Z" fill="#cb8000"/>
        <path id="Trazado_167178" data-name="Trazado 167178" d="M247.638,250.973a14.087,14.087,0,0,0,2.28,1.458,1.316,1.316,0,1,0,1.2-2.345,11.3,11.3,0,0,1-1.851-1.183,1.316,1.316,0,0,0-1.625,2.07Z" fill="#cb8000"/>
        <path id="Trazado_167179" data-name="Trazado 167179" d="M243.7,238.017a1.317,1.317,0,0,0,1.61-.933,11.206,11.206,0,0,1,.77-2.055,1.316,1.316,0,0,0-2.363-1.159,13.94,13.94,0,0,0-.95,2.537A1.316,1.316,0,0,0,243.7,238.017Z" fill="#cb8000"/>
        <path id="Trazado_167180" data-name="Trazado 167180" d="M256.822,228.707a11.409,11.409,0,0,1,2.173.322,1.292,1.292,0,0,0,.319.04,1.316,1.316,0,0,0,.318-2.593,14.02,14.02,0,0,0-2.677-.4,1.316,1.316,0,1,0-.133,2.628Z" fill="#cb8000"/>
        <path id="Trazado_167181" data-name="Trazado 167181" d="M255.8,240.446v3.61c-1.6-.181-2.14-1.361-2.83-1.361-.562,0-1.015.762-1.015,1.27,0,1.016,1.65,2.2,3.845,2.25v.507c0,.237.272.454.617.454.308,0,.617-.217.617-.454v-.562a3.7,3.7,0,0,0,3.428-3.846c0-2.467-1.814-3.283-3.428-3.881V235.24c1.215.091,1.632.671,2.14.671.671,0,.961-.834.961-1.252,0-1.051-1.922-1.4-3.1-1.433v-.471c0-.236-.309-.454-.617-.454-.345,0-.617.218-.617.454v.508c-1.814.236-3.519,1.234-3.519,3.537C252.28,239.122,254.148,239.83,255.8,240.446Zm1.089.436c.779.344,1.36.78,1.36,1.669a1.48,1.48,0,0,1-1.36,1.486Zm-.944-5.587v2.738c-.834-.326-1.451-.671-1.451-1.469C254.493,235.875,255.037,235.44,255.944,235.295Z" fill="#cb8000"/>
      </g>
    </g>
  </g>
</svg>
