<svg xmlns="http://www.w3.org/2000/svg" width="92" height="92" viewBox="0 0 92 92">
  <g id="Grupo_101763" data-name="Grupo 101763" transform="translate(-210 -210)">
    <g id="Grupo_86382" data-name="Grupo 86382">
      <circle id="Elipse_5014" data-name="Elipse 5014" cx="46" cy="46" r="46" transform="translate(210 210)" fill="#96f008"/>
      <circle id="Elipse_5015" data-name="Elipse 5015" cx="39.292" cy="39.292" r="39.292" transform="translate(216.708 216.708)" fill="#ebffcc"/>
      <g id="Grupo_101766" data-name="Grupo 101766" transform="translate(1886.009 -1867.598)">
        <g id="Color">
          <g id="Grupo_101771" data-name="Grupo 101771">
            <g id="Grupo_101766-2" data-name="Grupo 101766">
              <path id="Trazado_162925" data-name="Trazado 162925" d="M-1657.059,2099.79h49.4v45.6h-49.4Z" fill="#e9f1f2"/>
              <path id="Trazado_162926" data-name="Trazado 162926" d="M-1628.559,2114.99a7.6,7.6,0,0,1-7.6-7.6v-7.6h-20.9v45.6h49.4v-30.4Z" fill="#d0d8da"/>
              <path id="Trazado_162927" data-name="Trazado 162927" d="M-1657.059,2099.79h15.2v7.6h-15.2Z" fill="#ff7373"/>
              <path id="Trazado_162928" data-name="Trazado 162928" d="M-1641.859,2099.79h34.2v7.6h-34.2Z" fill="#ddffa7"/>
              <path id="Trazado_162929" data-name="Trazado 162929" d="M-1641.859,2099.79h5.7v7.6h-5.7Z" fill="#dcf5b3"/>
            </g>
            <g id="Grupo_101769" data-name="Grupo 101769">
              <path id="Trazado_162930" data-name="Trazado 162930" d="M-1620.959,2116.89a18.985,18.985,0,0,0-18.943,17.866,12.788,12.788,0,0,1-8.607-5.516,13.3,13.3,0,0,0,9.573,12.76,18.994,18.994,0,0,0,17.977,12.89,19,19,0,0,0,19-19A19,19,0,0,0-1620.959,2116.89Z" fill="#ff7373"/>
              <path id="Trazado_162931" data-name="Trazado 162931" d="M-1615.259,2146.34a18.051,18.051,0,0,1-18.05-18.05,17.974,17.974,0,0,1,2.067-8.373,19,19,0,0,0-8.66,14.839,12.788,12.788,0,0,1-8.607-5.516,13.3,13.3,0,0,0,9.573,12.76,18.994,18.994,0,0,0,17.977,12.89,19,19,0,0,0,18.213-13.609A17.978,17.978,0,0,1-1615.259,2146.34Z" fill="#ef5350"/>
              <g id="Grupo_101768" data-name="Grupo 101768">
                <path id="Trazado_162932" data-name="Trazado 162932" d="M-1625.709,2135.89h-3.8a1.9,1.9,0,0,1-1.9-1.9v-3.8h7.6v3.8A1.9,1.9,0,0,1-1625.709,2135.89Z" fill="#e9f1f2"/>
                <path id="Trazado_162933" data-name="Trazado 162933" d="M-1612.409,2135.89v11.4a1.9,1.9,0,0,1-1.9,1.9,1.9,1.9,0,0,1-1.9-1.9v-11.4Z" fill="#d0d8da"/>
                <path id="Trazado_162934" data-name="Trazado 162934" d="M-1612.409,2135.89h-3.8a1.9,1.9,0,0,1-1.9-1.9v-2.85a3.8,3.8,0,0,1,3.8-3.8,3.8,3.8,0,0,1,3.8,3.8v2.85A1.9,1.9,0,0,1-1612.409,2135.89Z" fill="#e9f1f2"/>
                <path id="Trazado_162935" data-name="Trazado 162935" d="M-1614.309,2145.39v-5.7a1.9,1.9,0,0,1,1.9-1.9v-1.9h-3.8v11.4a1.9,1.9,0,0,0,1.9,1.9,1.9,1.9,0,0,0,1.9-1.9A1.9,1.9,0,0,1-1614.309,2145.39Z" fill="#b8bebf"/>
                <path id="Trazado_162936" data-name="Trazado 162936" d="M-1625.709,2135.89v11.4a1.9,1.9,0,0,1-1.9,1.9,1.9,1.9,0,0,1-1.9-1.9v-11.4Z" fill="#d0d8da"/>
                <path id="Trazado_162937" data-name="Trazado 162937" d="M-1627.609,2145.39v-5.7a1.9,1.9,0,0,1,1.9-1.9v-1.9h-3.8v11.4a1.9,1.9,0,0,0,1.9,1.9,1.9,1.9,0,0,0,1.9-1.9A1.9,1.9,0,0,1-1627.609,2145.39Z" fill="#b8bebf"/>
                <path id="Trazado_162938" data-name="Trazado 162938" d="M-1616.209,2130.19v-.95a3.772,3.772,0,0,1,.342-1.558,3.8,3.8,0,0,0-2.242,3.458v2.85a1.9,1.9,0,0,0,1.9,1.9h3.8a1.9,1.9,0,0,0,1.9-1.9h-1.9A3.8,3.8,0,0,1-1616.209,2130.19Z" fill="#d0d8da"/>
                <path id="Trazado_162939" data-name="Trazado 162939" d="M-1629.509,2130.19h-1.9v3.8a1.9,1.9,0,0,0,1.9,1.9h3.8a1.9,1.9,0,0,0,1.9-1.9h-1.9A3.8,3.8,0,0,1-1629.509,2130.19Z" fill="#d0d8da"/>
                <path id="Trazado_162940" data-name="Trazado 162940" d="M-1612.409,2146.112v1.178a1.906,1.906,0,0,1-1.9,1.9,1.855,1.855,0,0,1-1.339-.561,1.855,1.855,0,0,1-.561-1.339v-.969c.314.009.637.019.95.019A17.583,17.583,0,0,0-1612.409,2146.112Z" fill="#b8bebf"/>
                <path id="Trazado_162941" data-name="Trazado 162941" d="M-1625.709,2143v4.294a1.906,1.906,0,0,1-1.9,1.9,1.856,1.856,0,0,1-1.339-.561,1.855,1.855,0,0,1-.561-1.339v-7.933a17.5,17.5,0,0,0,3.8,3.639Z" fill="#b8bebf"/>
                <g id="Grupo_101767" data-name="Grupo 101767">
                  <path id="Trazado_162942" data-name="Trazado 162942" d="M-1612.409,2147.29a1.906,1.906,0,0,1-1.9,1.9,1.906,1.906,0,0,1-1.9-1.9v-.969c.314.009.637.019.95.019.4,0,.789-.01,1.178-.038A1.927,1.927,0,0,0-1612.409,2147.29Z" fill="#93999a"/>
                  <path id="Trazado_162943" data-name="Trazado 162943" d="M-1625.709,2147.29a1.906,1.906,0,0,1-1.9,1.9,1.906,1.906,0,0,1-1.9-1.9v-7.933a15.82,15.82,0,0,0,1.9,2.081v3.952A1.906,1.906,0,0,0-1625.709,2147.29Z" fill="#93999a"/>
                </g>
              </g>
            </g>
            <g id="Grupo_101770" data-name="Grupo 101770">
              <path id="Trazado_162944" data-name="Trazado 162944" d="M-1652.309,2114.99h13.3v11.4h-13.3Z" fill="#f9dbaf"/>
              <path id="Trazado_162945" data-name="Trazado 162945" d="M-1643.759,2121.64a5.681,5.681,0,0,1-4.295-1.961,1.9,1.9,0,0,0,1.445-1.839,1.9,1.9,0,0,0,1.9,1.9,1.9,1.9,0,0,0,1.9-1.9,1.9,1.9,0,0,0,1.9,1.9,1.9,1.9,0,0,0,1.9-1.9v-2.85h-13.3v11.4h13.3v-4.75Z" fill="#edb88e"/>
              <path id="Trazado_162946" data-name="Trazado 162946" d="M-1651.359,2118.79a1.9,1.9,0,0,1-1.9-1.9v-1.9h3.8v1.9A1.9,1.9,0,0,1-1651.359,2118.79Z" fill="#ff7373"/>
              <path id="Trazado_162947" data-name="Trazado 162947" d="M-1647.559,2118.79a1.9,1.9,0,0,1-1.9-1.9v-1.9h3.8v1.9A1.9,1.9,0,0,1-1647.559,2118.79Z" fill="#48cae4"/>
              <path id="Trazado_162948" data-name="Trazado 162948" d="M-1643.759,2118.79a1.9,1.9,0,0,1-1.9-1.9v-1.9h3.8v1.9A1.9,1.9,0,0,1-1643.759,2118.79Z" fill="#ff7373"/>
              <path id="Trazado_162949" data-name="Trazado 162949" d="M-1639.959,2118.79a1.9,1.9,0,0,1-1.9-1.9v-1.9h3.8v1.9A1.9,1.9,0,0,1-1639.959,2118.79Z" fill="#48cae4"/>
              <path id="Trazado_162950" data-name="Trazado 162950" d="M-1640.909,2111.19h-9.5a1.9,1.9,0,0,0-1.9,1.9v1.9h13.3v-1.9A1.9,1.9,0,0,0-1640.909,2111.19Z" fill="#f9dbaf"/>
              <path id="Trazado_162951" data-name="Trazado 162951" d="M-1644.709,2122.59h-1.9a.95.95,0,0,0-.95.95v2.85h3.8v-2.85A.949.949,0,0,0-1644.709,2122.59Z" fill="#48cae4"/>
              <path id="Trazado_162952" data-name="Trazado 162952" d="M-1639.009,2117.84a1.9,1.9,0,0,1-1.9-1.9v-.95h-.95v1.9a1.9,1.9,0,0,0,1.9,1.9,1.9,1.9,0,0,0,1.729-1.121A1.893,1.893,0,0,1-1639.009,2117.84Z" fill="#00b4d8"/>
              <path id="Trazado_162953" data-name="Trazado 162953" d="M-1642.809,2117.84a1.9,1.9,0,0,1-1.9-1.9v-.95h-.95v1.9a1.9,1.9,0,0,0,1.9,1.9,1.9,1.9,0,0,0,1.729-1.121A1.893,1.893,0,0,1-1642.809,2117.84Z" fill="#ef5350"/>
              <path id="Trazado_162954" data-name="Trazado 162954" d="M-1646.609,2117.84a1.9,1.9,0,0,1-1.9-1.9v-.95h-.95v1.9a1.9,1.9,0,0,0,1.9,1.9,1.9,1.9,0,0,0,1.729-1.121A1.893,1.893,0,0,1-1646.609,2117.84Z" fill="#00b4d8"/>
              <path id="Trazado_162955" data-name="Trazado 162955" d="M-1650.409,2117.84a1.9,1.9,0,0,1-1.9-1.9v-.95h-.95v1.9a1.9,1.9,0,0,0,1.9,1.9,1.9,1.9,0,0,0,1.729-1.121A1.893,1.893,0,0,1-1650.409,2117.84Z" fill="#ef5350"/>
              <path id="Trazado_162956" data-name="Trazado 162956" d="M-1650.234,2111.19h-.175a1.9,1.9,0,0,0-1.9,1.9v1.9h13.3v-1.9h-8.55A2.84,2.84,0,0,1-1650.234,2111.19Z" fill="#edb88e"/>
            </g>
          </g>
        </g>
        <g id="Outline_copy" data-name="Outline copy">
          <g id="Grupo_101772" data-name="Grupo 101772">
            <path id="Trazado_162957" data-name="Trazado 162957" d="M-1641.181,2144.44h-14.928v-23.75a.95.95,0,0,0-.95-.95.95.95,0,0,0-.95.95v24.7a.951.951,0,0,0,.95.95h15.877a.95.95,0,0,0,.95-.95.95.95,0,0,0-.95-.95Z"/>
            <circle id="Elipse_5336" data-name="Elipse 5336" cx="0.95" cy="0.95" r="0.95" transform="translate(-1654.209 2102.64)"/>
            <circle id="Elipse_5337" data-name="Elipse 5337" cx="0.95" cy="0.95" r="0.95" transform="translate(-1650.409 2102.64)"/>
            <circle id="Elipse_5338" data-name="Elipse 5338" cx="0.95" cy="0.95" r="0.95" transform="translate(-1646.609 2102.64)"/>
            <path id="Trazado_162958" data-name="Trazado 162958" d="M-1637.109,2102.64a.95.95,0,0,0-.95.95.951.951,0,0,0,.95.95h24.7a.95.95,0,0,0,.95-.95.95.95,0,0,0-.95-.95Z"/>
            <path id="Trazado_162959" data-name="Trazado 162959" d="M-1612.409,2113.09a.95.95,0,0,0,.95-.95.95.95,0,0,0-.95-.95h-19.95a.95.95,0,0,0-.95.95.951.951,0,0,0,.95.95Z"/>
            <path id="Trazado_162960" data-name="Trazado 162960" d="M-1653.259,2142.54h5.7a.95.95,0,0,0,.95-.95.95.95,0,0,0-.95-.95h-5.7a.95.95,0,0,0-.95.95A.951.951,0,0,0-1653.259,2142.54Z"/>
            <path id="Trazado_162961" data-name="Trazado 162961" d="M-1653.259,2138.74h3.8a.95.95,0,0,0,.95-.95.949.949,0,0,0-.95-.95h-3.8a.95.95,0,0,0-.95.95A.951.951,0,0,0-1653.259,2138.74Z"/>
            <path id="Trazado_162962" data-name="Trazado 162962" d="M-1653.259,2134.94h1.9a.95.95,0,0,0,.95-.95.95.95,0,0,0-.95-.95h-1.9a.95.95,0,0,0-.95.95A.951.951,0,0,0-1653.259,2134.94Z"/>
            <path id="Trazado_162963" data-name="Trazado 162963" d="M-1629.509,2138.74a.95.95,0,0,0-.95.95v7.6a2.854,2.854,0,0,0,2.85,2.85,2.854,2.854,0,0,0,2.85-2.85v-10.625a2.845,2.845,0,0,0,1.9-2.675v-8.55a.95.95,0,0,0-.95-.95.95.95,0,0,0-.95.95v3.8h-1.9v-3.8a.95.95,0,0,0-.95-.95.95.95,0,0,0-.95.95v3.8h-1.9v-3.8a.95.95,0,0,0-.95-.95.95.95,0,0,0-.95.95v8.55a2.854,2.854,0,0,0,2.85,2.85h2.85v10.45a.951.951,0,0,1-.95.95.952.952,0,0,1-.95-.95v-7.6A.95.95,0,0,0-1629.509,2138.74Zm-.95-4.75v-2.85h5.7v2.85a.951.951,0,0,1-.95.95h-3.8A.952.952,0,0,1-1630.459,2133.99Z"/>
            <path id="Trazado_162964" data-name="Trazado 162964" d="M-1614.309,2150.14a2.854,2.854,0,0,0,2.85-2.85v-10.625a2.845,2.845,0,0,0,1.9-2.675v-2.85a4.756,4.756,0,0,0-4.75-4.75,4.756,4.756,0,0,0-4.75,4.75v2.85a2.846,2.846,0,0,0,1.9,2.675v10.625A2.854,2.854,0,0,0-1614.309,2150.14Zm0-1.9a.952.952,0,0,1-.95-.95v-10.45h1.9v10.45A.951.951,0,0,1-1614.309,2148.24Zm-2.85-17.1a2.854,2.854,0,0,1,2.85-2.85,2.854,2.854,0,0,1,2.85,2.85v2.85a.952.952,0,0,1-.95.95h-3.8a.952.952,0,0,1-.95-.95Z"/>
          </g>
        </g>
        <path id="Trazado_162965" data-name="Trazado 162965" d="M-1606.709,2121.954V2099.79a.949.949,0,0,0-.95-.95h-49.4a.95.95,0,0,0-.95.95v17.1a.951.951,0,0,0,.95.95.95.95,0,0,0,.95-.95v-8.55h44.65a.95.95,0,0,0,.95-.95.95.95,0,0,0-.95-.95h-29.45v-5.7h32.3v19.512a19.839,19.839,0,0,0-12.35-4.312,19.925,19.925,0,0,0-17.1,9.747V2119a2.833,2.833,0,0,0,.95-2.109v-1.9a.95.95,0,0,0-.95-.95v-.95a2.854,2.854,0,0,0-2.85-2.85h-9.5a2.854,2.854,0,0,0-2.85,2.85v.95a.95.95,0,0,0-.95.95v1.9a2.838,2.838,0,0,0,.95,2.109v7.391a.951.951,0,0,0,.95.95h13.3a.616.616,0,0,0,.074-.015,19.794,19.794,0,0,0-1.82,6.285,11.866,11.866,0,0,1-6.963-4.9.949.949,0,0,0-1.066-.382.949.949,0,0,0-.675.909,14.322,14.322,0,0,0,9.786,13.526,19.938,19.938,0,0,0,18.714,13.074,19.913,19.913,0,0,0,16.641-8.958.95.95,0,0,0-.268-1.316.948.948,0,0,0-1.316.268,18.021,18.021,0,0,1-15.057,8.106,18.038,18.038,0,0,1-17.078-12.246.951.951,0,0,0-.634-.606,12.423,12.423,0,0,1-8.515-8.854,13.836,13.836,0,0,0,7.132,3.459.957.957,0,0,0,.747-.2.951.951,0,0,0,.354-.685,18.052,18.052,0,0,1,17.994-16.972,18.07,18.07,0,0,1,18.05,18.05,17.948,17.948,0,0,1-1.317,6.747.95.95,0,0,0,.526,1.236.948.948,0,0,0,1.236-.526,19.827,19.827,0,0,0,1.455-7.457,19.873,19.873,0,0,0-5.7-13.936Zm-36.1-15.514h-13.3v-5.7h13.3Zm0,10.45a.952.952,0,0,1-.95.95.952.952,0,0,1-.95-.95v-.95h1.9Zm-3.8,0a.952.952,0,0,1-.95.95.952.952,0,0,1-.95-.95v-.95h1.9Zm-3.8,0a.951.951,0,0,1-.95.95.952.952,0,0,1-.95-.95v-.95h1.9Zm9.5-.95h1.9v.95a.952.952,0,0,1-.95.95.952.952,0,0,1-.95-.95Zm-10.45-2.85a.952.952,0,0,1,.95-.95h9.5a.951.951,0,0,1,.95.95v.95h-11.4Zm4.75,12.35v-1.9h1.9v1.9Zm6.65,0h-2.85v-1.9a1.9,1.9,0,0,0-1.9-1.9h-1.9a1.9,1.9,0,0,0-1.9,1.9v1.9h-2.85v-5.7a2.83,2.83,0,0,0,1.9-.741,2.829,2.829,0,0,0,1.9.741,2.829,2.829,0,0,0,1.9-.741,2.829,2.829,0,0,0,1.9.741,2.83,2.83,0,0,0,1.9-.741,2.829,2.829,0,0,0,1.9.741Z"/>
      </g>
    </g>
  </g>
</svg>
