<svg id="Grupo_101141" data-name="Grupo 101141" xmlns="http://www.w3.org/2000/svg" xmlns:xlink="http://www.w3.org/1999/xlink" width="181.933" height="190.342" viewBox="0 0 181.933 190.342">
  <defs>
    <clipPath id="clip-path">
      <path id="Trazado_13206" data-name="Trazado 13206" d="M817.771,325.737l.622,7.909a136.031,136.031,0,0,0-21.322.551l-.622-7.911A136.182,136.182,0,0,1,817.771,325.737Z" transform="translate(-796.449 -325.549)" fill="none"/>
    </clipPath>
    <clipPath id="clip-path-2">
      <path id="Trazado_13208" data-name="Trazado 13208" d="M797.057,335.663l.622,7.909a59.183,59.183,0,0,0-5.685-6.462l-.621-7.909A58.943,58.943,0,0,1,797.057,335.663Z" transform="translate(-791.373 -329.201)" fill="none"/>
    </clipPath>
    <clipPath id="clip-path-3">
      <path id="Trazado_13210" data-name="Trazado 13210" d="M797.319,336.266l.622,7.911c-.41-.568-.774-1.159-1.234-1.709l-.622-7.909C796.545,335.107,796.909,335.7,797.319,336.266Z" transform="translate(-796.085 -334.558)" fill="none"/>
    </clipPath>
    <clipPath id="clip-path-4">
      <path id="Trazado_13213" data-name="Trazado 13213" d="M781.884,338.736l.622,7.911c-.569-.682-1.2-1.315-1.815-1.96l-.622-7.909C780.689,337.421,781.316,338.056,781.884,338.736Z" transform="translate(-780.069 -336.777)" fill="none"/>
    </clipPath>
    <clipPath id="clip-path-5">
      <path id="Trazado_13218" data-name="Trazado 13218" d="M793.106,329.2l.621,7.909a70.7,70.7,0,0,1-10.136,13.166l-.622-7.911A70.706,70.706,0,0,0,793.106,329.2Z" transform="translate(-782.969 -329.201)" fill="none"/>
    </clipPath>
    <clipPath id="clip-path-6">
      <path id="Trazado_13220" data-name="Trazado 13220" d="M802.034,344.6l.621,7.909c-.537-1.054-1.007-2.141-1.589-3.189s-1.152-2.1-1.813-3.119c-.329-.507-.627-1.024-.966-1.527l-.622-7.909c.339.5.638,1.019.966,1.526.661,1.021,1.233,2.072,1.814,3.121S801.5,343.546,802.034,344.6Z" transform="translate(-797.665 -336.766)" fill="none"/>
    </clipPath>
    <clipPath id="clip-path-7">
      <path id="Trazado_13222" data-name="Trazado 13222" d="M802.625,346.537l.622,7.909c-.387-1.106-.9-2.178-1.339-3.275l-.621-7.909C801.727,344.358,802.238,345.431,802.625,346.537Z" transform="translate(-801.287 -343.262)" fill="none"/>
    </clipPath>
    <clipPath id="clip-path-8">
      <path id="Trazado_13224" data-name="Trazado 13224" d="M805.572,360.038l.622,7.911a51.232,51.232,0,0,0-3.176-14.062l-.622-7.909A51.191,51.191,0,0,1,805.572,360.038Z" transform="translate(-802.396 -345.977)" fill="none"/>
    </clipPath>
    <clipPath id="clip-path-9">
      <path id="Trazado_13236" data-name="Trazado 13236" d="M832.9,357.13l.622,7.909a51.635,51.635,0,0,1-.9,14.508,48.679,48.679,0,0,1-5.725,14.745,51.816,51.816,0,0,1-11.148,13.152,85.976,85.976,0,0,1-27.67,15.418q-2.931,1.01-5.955,1.842a98.7,98.7,0,0,1-39.825,2.46,79.905,79.905,0,0,1-34.783-13.521l-.621-7.909a79.893,79.893,0,0,0,34.782,13.52,98.7,98.7,0,0,0,39.826-2.46q3.022-.831,5.955-1.841a85.962,85.962,0,0,0,27.669-15.42,51.811,51.811,0,0,0,11.148-13.151,48.7,48.7,0,0,0,5.726-14.745A51.592,51.592,0,0,0,832.9,357.13Z" transform="translate(-706.899 -357.13)" fill="none"/>
    </clipPath>
    <clipPath id="clip-path-10">
      <path id="Trazado_13239" data-name="Trazado 13239" d="M808.86,359.982l.622,7.909a36.768,36.768,0,0,0-2.2-9.976,42.079,42.079,0,0,0-6.728-11.856,55.255,55.255,0,0,0-10.7-9.994l-.621-7.911a55.29,55.29,0,0,1,10.7,9.994,42.124,42.124,0,0,1,6.728,11.856A36.771,36.771,0,0,1,808.86,359.982Z" transform="translate(-789.232 -328.155)" fill="none"/>
    </clipPath>
    <clipPath id="clip-path-11">
      <path id="Trazado_13242" data-name="Trazado 13242" d="M731.281,388.2l.622,7.909a86.164,86.164,0,0,1-16.563,8.554l-.622-7.911A86.159,86.159,0,0,0,731.281,388.2Z" transform="translate(-714.718 -388.199)" fill="none"/>
    </clipPath>
    <clipPath id="clip-path-12">
      <path id="Trazado_13244" data-name="Trazado 13244" d="M720.841,403.538l.622,7.909a88.152,88.152,0,0,1-9.859-4.254l-.622-7.909A88.25,88.25,0,0,0,720.841,403.538Z" transform="translate(-710.982 -399.284)" fill="none"/>
    </clipPath>
    <clipPath id="clip-path-13">
      <path id="Trazado_13250" data-name="Trazado 13250" d="M817.957,354.032l.623,7.909a44.562,44.562,0,0,1-2.332,17.87c-3.3,9.563-9.78,18.568-18.626,25.942a78.015,78.015,0,0,1-14.862,9.853l-.622-7.909A78.033,78.033,0,0,0,797,397.843c8.845-7.375,15.33-16.38,18.627-25.942A44.581,44.581,0,0,0,817.957,354.032Z" transform="translate(-782.137 -354.032)" fill="none"/>
    </clipPath>
    <clipPath id="clip-path-14">
      <path id="Trazado_13253" data-name="Trazado 13253" d="M722.669,403.955l.622,7.909c-.373-.111-.747-.2-1.106-.335l-.622-7.911C721.924,403.751,722.3,403.844,722.669,403.955Z" transform="translate(-721.563 -403.618)" fill="none"/>
    </clipPath>
    <clipPath id="clip-path-15">
      <path id="Trazado_13257" data-name="Trazado 13257" d="M783.587,398.52l.622,7.909a90.652,90.652,0,0,1-8.481,3.832l-.621-7.909A90.941,90.941,0,0,0,783.587,398.52Z" transform="translate(-775.107 -398.52)" fill="none"/>
    </clipPath>
    <clipPath id="clip-path-16">
      <path id="Trazado_13260" data-name="Trazado 13260" d="M711.527,416.636l-.622-7.909a51.618,51.618,0,0,1,.125-9.443l.622,7.909A51.413,51.413,0,0,0,711.527,416.636Z" transform="translate(-710.747 -399.284)" fill="none"/>
    </clipPath>
    <clipPath id="clip-path-17">
      <path id="Trazado_13263" data-name="Trazado 13263" d="M776.65,401.7l.621,7.909c-1.242.466-2.493.922-3.755,1.357-1.73.595-3.481,1.148-5.268,1.625l-.621-7.909c1.786-.476,3.538-1.03,5.266-1.626C774.156,402.619,775.406,402.161,776.65,401.7Z" transform="translate(-767.627 -401.697)" fill="none"/>
    </clipPath>
    <clipPath id="clip-path-18">
      <path id="Trazado_13270" data-name="Trazado 13270" d="M776.557,404.169l.621,7.909a100.486,100.486,0,0,1-19.014,3.334,101.636,101.636,0,0,1-19.3-.349c-3.166-.37-6.3-.888-9.365-1.556-1.532-.332-3.046-.713-4.544-1.11l-.621-7.909c1.5.4,3.011.778,4.544,1.109,3.07.669,6.2,1.186,9.365,1.556a101.53,101.53,0,0,0,19.3.349A100.5,100.5,0,0,0,776.557,404.169Z" transform="translate(-724.332 -404.169)" fill="none"/>
    </clipPath>
    <clipPath id="clip-path-19">
      <path id="Trazado_13273" data-name="Trazado 13273" d="M712.538,413.016l.621,7.911c-1.672-.647-3.371-1.257-4.982-1.985l-.621-7.909C709.166,411.761,710.866,412.371,712.538,413.016Z" transform="translate(-707.556 -411.032)" fill="none"/>
    </clipPath>
  </defs>
  <g id="Grupo_26136" data-name="Grupo 26136" transform="translate(0 0)">
    <path id="Trazado_13183" data-name="Trazado 13183" d="M672.355,337.043l19-10.634a1.687,1.687,0,0,1,.866-.152l-.007-.006.064,0c.04,0,.08.006.121.011,1.132.1,7.854.688,15.256,1.338-3.65-4.241-3.315-8.815,1.56-11.543,3.4-1.9,8.332-2.526,13.508-2.008l.008-.007s8.959.556,12.4,1.154a35.585,35.585,0,0,1,11.591,4.1c6.819,3.949,9.33,9.14,6.956,12.989.153.012.306.026.46.041l0,0s8.914.55,12.432,1.147a35.649,35.649,0,0,1,11.74,4.129c8.724,5.054,10.437,12.149,3.825,15.849a19.116,19.116,0,0,1-7.733,2.092l.186.107c.655.379.783.911.287,1.188l-11,6.154,8.235,1.121,4.675-5.79c.711.063,6.2.462,6.772.615s6.178,3.205,9.188,4.985l2.415.212a14.642,14.642,0,0,1,2.462.414c2.1.559,2.826,1.406,1.735,2.018l-12.319,6.894-30.558,17.065H746.146l-.9-9.587a14.663,14.663,0,0,1-2.463-.414c-2.1-.558-2.825-1.406-1.733-2.018l.8-.449c-1.316-1.936-3.552-5.24-3.577-5.358-.041-.2.083-.392.388-.562l-5.1-6.41L718.447,364.4c-.077,0-.151-.01-.229-.021l-.117-.01-.006-.014a2.638,2.638,0,0,1-.86-.291l-44.593-25.832C671.988,337.852,671.859,337.32,672.355,337.043Z" transform="translate(-662.117 -250.625)" opacity="0.12"/>
    <path id="Trazado_13184" data-name="Trazado 13184" d="M696.266,292.5l52.4,30.252a3.075,3.075,0,0,1,1.392,2.411v34.025a.91.91,0,0,1-.532.958c-.236.077-24.483,14.117-24.483,14.117l-28.774-44.523c-.768-.444-25.5-23.165-25.5-23.165s24.314-14.12,24.638-14.228A1.068,1.068,0,0,1,696.266,292.5Z" transform="translate(-662.382 -255.074)" fill="#3b3b3b"/>
    <path id="Trazado_13185" data-name="Trazado 13185" d="M671.884,304.192l52.4,30.252a3.076,3.076,0,0,1,1.393,2.411V370.88c0,.888-.624,1.247-1.393.8l-52.4-30.252a3.076,3.076,0,0,1-1.392-2.41V305C670.492,304.109,671.116,303.749,671.884,304.192Z" transform="translate(-662.439 -252.662)" fill="#636363"/>
    <path id="Trazado_13186" data-name="Trazado 13186" d="M725.006,283.76c10.251,5.919,18.561,20.312,18.561,32.149,0,5.191-1.6,9.028-4.256,11.2a71.316,71.316,0,0,1-8.075,4.967s-4.379-4.382-6.23-5.451c-10.252-5.919-18.562-20.312-18.562-32.149a69.728,69.728,0,0,0-.837-8.2s5.713-3.955,8.36-4.692C717.052,280.73,720.871,281.373,725.006,283.76Z" transform="translate(-655.196 -257.36)" fill="#0f343b"/>
    <path id="Trazado_13187" data-name="Trazado 13187" d="M694.21,265.992c10.251,5.919,18.561,20.312,18.561,32.149s-8.31,16.634-18.561,10.716-18.562-20.312-18.562-32.149a78.838,78.838,0,0,0-.714-8.263s5.746-3.967,8.35-4.656C686.349,262.978,690.126,263.634,694.21,265.992Z" transform="translate(-661.523 -261.024)" fill="#0f343b"/>
    <path id="Trazado_13188" data-name="Trazado 13188" d="M704.227,295.5l19.133,19.97-1.092,11.865L685.146,305.9l19.107-10.691Z" transform="translate(-659.417 -254.475)" fill="#6a8186"/>
    <path id="Trazado_13189" data-name="Trazado 13189" d="M719.526,287c10.251,5.918,18.562,20.312,18.562,32.149s-8.311,16.634-18.562,10.716-18.561-20.312-18.561-32.149S709.275,281.083,719.526,287Z" transform="translate(-656.154 -256.691)" fill="#415e64"/>
    <ellipse id="Elipse_1888" data-name="Elipse 1888" cx="15.155" cy="26.249" rx="15.155" ry="26.249" transform="matrix(0.866, -0.5, 0.5, 0.866, 0, 15.155)" fill="#415e64"/>
    <path id="Trazado_13190" data-name="Trazado 13190" d="M730.259,335.057c2.359-1.361,4.488-1.5,6.061-.66l.008-.016.086.054.059.03,17.3,10.043c-.362.321-.725.641-1.086.961-5.5,4.891-11.081,9.708-16.842,14.3-.707.563-1.423,1.115-2.134,1.672l-9.573-5.544c-.042-.025-.084-.046-.124-.072l-.071-.037,0-.013c-1.5-.943-2.44-2.852-2.44-5.564C721.512,344.629,725.43,337.845,730.259,335.057Z" transform="translate(-651.916 -246.501)" fill="#6e6e6e"/>
    <g id="Grupo_26131" data-name="Grupo 26131" transform="translate(72.996 85.493)">
      <path id="Trazado_13191" data-name="Trazado 13191" d="M726.566,349.729l29.445-17a2.888,2.888,0,0,1,1.451-.413c.7,0,17.253,4.3,17.253,4.3l-11.783,17.435a4.735,4.735,0,0,1-2.235,3.873L734.25,384.371s-9.371-11.661-9.563-12a2.947,2.947,0,0,1-.356-1.445V353.6A4.735,4.735,0,0,1,726.566,349.729Z" transform="translate(-724.331 -332.315)" fill="#484848"/>
    </g>
    <g id="Grupo_26132" data-name="Grupo 26132" transform="translate(82.029 88.63)">
      <path id="Trazado_13192" data-name="Trazado 13192" d="M734.529,356.027l35.7-20.61a3.505,3.505,0,0,1,1.76-.5,2.98,2.98,0,0,1,2.935,3.211v21a5.743,5.743,0,0,1-2.71,4.695l-35.7,20.609a3.486,3.486,0,0,1-1.759.5,2.98,2.98,0,0,1-2.936-3.211v-21A5.739,5.739,0,0,1,734.529,356.027Z" transform="translate(-731.819 -334.916)" fill="#4ba2d2"/>
    </g>
    <g id="Grupo_26133" data-name="Grupo 26133" transform="translate(88.709 91.59)">
      <path id="Trazado_13193" data-name="Trazado 13193" d="M761.964,337.818a6.01,6.01,0,0,1,1.392-.448l-1.9,29.417-8.965,4.967,3.392-29.956Z" transform="translate(-734.234 -337.37)" fill="#76b8dc"/>
      <path id="Trazado_13194" data-name="Trazado 13194" d="M750.467,344.976l-2.661,27.864-3.123,3.994-7.326,4.229c2.017-10.743,3.745-21.528,4.928-32.4Z" transform="translate(-737.357 -335.801)" fill="#76b8dc"/>
    </g>
    <g id="Grupo_26134" data-name="Grupo 26134" transform="translate(80.947 87.375)">
      <path id="Trazado_13195" data-name="Trazado 13195" d="M730.922,360.976v22.056A3.13,3.13,0,0,0,734,386.4a3.674,3.674,0,0,0,1.848-.526l37.49-21.645a6.03,6.03,0,0,0,2.847-4.931V337.247a3.13,3.13,0,0,0-3.083-3.372,3.675,3.675,0,0,0-1.848.525l-37.49,21.645A6.03,6.03,0,0,0,730.922,360.976Zm4.168,0a2,2,0,0,1,.762-1.322l36.168-20.881V359.3a2,2,0,0,1-.762,1.322L735.09,381.506Z" transform="translate(-730.922 -333.875)" fill="#636363"/>
    </g>
    <path id="Trazado_13196" data-name="Trazado 13196" d="M715.141,346.137l-24.213-13.98V321.564l24.213,13.979Z" transform="translate(-658.224 -249.04)" fill="#b3b3b3"/>
    <g id="Grupo_26135" data-name="Grupo 26135" transform="translate(23.37 82.026)">
      <path id="Trazado_13197" data-name="Trazado 13197" d="M703.344,340.5a2.908,2.908,0,0,1,1.316,2.28V353.37c0,.84-.589,1.18-1.316.76a2.911,2.911,0,0,1-1.316-2.279V341.257C702.028,340.418,702.618,340.078,703.344,340.5Z" transform="translate(-679.305 -327.198)" fill="#4f4f4f"/>
      <path id="Trazado_13198" data-name="Trazado 13198" d="M698.635,337.778a2.911,2.911,0,0,1,1.316,2.28v10.593c0,.84-.59,1.18-1.316.76a2.908,2.908,0,0,1-1.316-2.279V338.538C697.319,337.7,697.908,337.359,698.635,337.778Z" transform="translate(-680.276 -327.758)" fill="#4f4f4f"/>
      <path id="Trazado_13199" data-name="Trazado 13199" d="M693.925,335.059a2.908,2.908,0,0,1,1.316,2.28v10.593c0,.84-.589,1.18-1.316.76a2.911,2.911,0,0,1-1.316-2.28V335.819C692.609,334.979,693.2,334.64,693.925,335.059Z" transform="translate(-681.247 -328.319)" fill="#4f4f4f"/>
      <path id="Trazado_13200" data-name="Trazado 13200" d="M689.216,332.34a2.911,2.911,0,0,1,1.316,2.28v10.593c0,.84-.59,1.18-1.316.76a2.908,2.908,0,0,1-1.316-2.28V333.1C687.9,332.261,688.489,331.92,689.216,332.34Z" transform="translate(-682.219 -328.88)" fill="#4f4f4f"/>
      <path id="Trazado_13201" data-name="Trazado 13201" d="M684.506,329.621a2.908,2.908,0,0,1,1.316,2.28v10.593c0,.84-.589,1.18-1.316.76a2.911,2.911,0,0,1-1.316-2.28V330.381C683.19,329.541,683.78,329.2,684.506,329.621Z" transform="translate(-683.19 -329.441)" fill="#4f4f4f"/>
      <path id="Trazado_13202" data-name="Trazado 13202" d="M708.054,343.217a2.907,2.907,0,0,1,1.316,2.279v10.593c0,.84-.59,1.18-1.316.76a2.908,2.908,0,0,1-1.316-2.279V343.975C706.738,343.137,707.327,342.8,708.054,343.217Z" transform="translate(-678.333 -326.637)" fill="#4f4f4f"/>
    </g>
  </g>
  <g id="Grupo_26209" data-name="Grupo 26209" transform="translate(47.904 70.635)">
    <g id="Grupo_26170" data-name="Grupo 26170" transform="translate(4.065)">
      <g id="Grupo_26169" data-name="Grupo 26169">
        <g id="Grupo_26168" data-name="Grupo 26168" style="isolation: isolate">
          <g id="Grupo_26139" data-name="Grupo 26139" transform="translate(108.02 6.696)" style="isolation: isolate">
            <g id="Grupo_26138" data-name="Grupo 26138" clip-path="url(#clip-path)">
              <g id="Grupo_26137" data-name="Grupo 26137" transform="translate(0 0)" style="isolation: isolate">
                <path id="Trazado_13203" data-name="Trazado 13203" d="M814.994,325.734l.622,7.909q-2.542-.134-5.083-.173l-.622-7.909q2.539.038,5.083.172" transform="translate(-793.672 -325.546)" fill="#243a5a"/>
                <path id="Trazado_13204" data-name="Trazado 13204" d="M812.471,325.565l.622,7.909a136.571,136.571,0,0,0-14.973.6l-.621-7.909a135.932,135.932,0,0,1,14.972-.6" transform="translate(-796.232 -325.549)" fill="#253c5d"/>
                <path id="Trazado_13205" data-name="Trazado 13205" d="M797.716,326.056l.621,7.909q-.633.062-1.265.128l-.622-7.911q.632-.067,1.267-.127" transform="translate(-796.449 -325.444)" fill="#263e60"/>
              </g>
            </g>
          </g>
          <g id="Grupo_26142" data-name="Grupo 26142" transform="translate(101.897 11.101)" style="isolation: isolate">
            <g id="Grupo_26141" data-name="Grupo 26141" clip-path="url(#clip-path-2)">
              <g id="Grupo_26140" data-name="Grupo 26140" style="isolation: isolate">
                <path id="Trazado_13207" data-name="Trazado 13207" d="M797.057,335.663l.622,7.909a59.183,59.183,0,0,0-5.685-6.462l-.621-7.909a58.943,58.943,0,0,1,5.684,6.462" transform="translate(-791.373 -329.201)" fill="#223856"/>
              </g>
            </g>
          </g>
          <g id="Grupo_26145" data-name="Grupo 26145" transform="translate(107.581 17.563)" style="isolation: isolate">
            <g id="Grupo_26144" data-name="Grupo 26144" clip-path="url(#clip-path-3)">
              <g id="Grupo_26143" data-name="Grupo 26143" style="isolation: isolate">
                <path id="Trazado_13209" data-name="Trazado 13209" d="M797.319,336.266l.622,7.911c-.41-.568-.774-1.159-1.234-1.709l-.622-7.909c.459.549.824,1.141,1.234,1.708" transform="translate(-796.085 -334.558)" fill="#223856"/>
              </g>
            </g>
          </g>
          <g id="Grupo_26146" data-name="Grupo 26146" transform="translate(108.815 19.271)">
            <path id="Trazado_13211" data-name="Trazado 13211" d="M797.78,336.929l.622,7.91-.673-.955-.622-7.91Z" transform="translate(-797.108 -335.974)" fill="#213653"/>
          </g>
          <g id="Grupo_26149" data-name="Grupo 26149" transform="translate(88.262 20.24)" style="isolation: isolate">
            <g id="Grupo_26148" data-name="Grupo 26148" clip-path="url(#clip-path-4)">
              <g id="Grupo_26147" data-name="Grupo 26147" style="isolation: isolate">
                <path id="Trazado_13212" data-name="Trazado 13212" d="M781.884,338.736l.622,7.911c-.569-.682-1.2-1.315-1.815-1.96l-.622-7.909c.62.644,1.247,1.279,1.815,1.959" transform="translate(-780.069 -336.777)" fill="#223856"/>
              </g>
            </g>
          </g>
          <g id="Grupo_26150" data-name="Grupo 26150" transform="translate(90.077 22.199)">
            <path id="Trazado_13214" data-name="Trazado 13214" d="M782.445,339.412l.622,7.91-.871-1.01-.622-7.91Z" transform="translate(-781.574 -338.401)" fill="#213653"/>
          </g>
          <g id="Grupo_26151" data-name="Grupo 26151" transform="translate(90.948 23.21)">
            <path id="Trazado_13215" data-name="Trazado 13215" d="M783.108,340.3l.622,7.91-.813-1.057-.622-7.91Z" transform="translate(-782.296 -339.239)" fill="#213653"/>
          </g>
          <g id="Grupo_26154" data-name="Grupo 26154" transform="translate(91.76 11.101)" style="isolation: isolate">
            <g id="Grupo_26153" data-name="Grupo 26153" clip-path="url(#clip-path-5)">
              <g id="Grupo_26152" data-name="Grupo 26152" style="isolation: isolate">
                <path id="Trazado_13216" data-name="Trazado 13216" d="M791.49,329.2l.621,7.909q-.335.563-.68,1.118l-.622-7.909q.346-.555.682-1.118" transform="translate(-781.352 -329.201)" fill="#2a446a"/>
                <path id="Trazado_13217" data-name="Trazado 13217" d="M792.425,330.128l.622,7.909a70.936,70.936,0,0,1-9.456,12.048l-.622-7.911a70.864,70.864,0,0,0,9.456-12.047" transform="translate(-782.969 -329.01)" fill="#2c476e"/>
              </g>
            </g>
          </g>
          <g id="Grupo_26157" data-name="Grupo 26157" transform="translate(109.487 20.226)" style="isolation: isolate">
            <g id="Grupo_26156" data-name="Grupo 26156" clip-path="url(#clip-path-6)">
              <g id="Grupo_26155" data-name="Grupo 26155" style="isolation: isolate">
                <path id="Trazado_13219" data-name="Trazado 13219" d="M802.034,344.6l.621,7.909c-.537-1.054-1.007-2.141-1.589-3.189s-1.152-2.1-1.813-3.119c-.329-.507-.627-1.024-.966-1.527l-.622-7.909c.339.5.638,1.019.966,1.526.661,1.021,1.233,2.072,1.814,3.121s1.052,2.134,1.589,3.189" transform="translate(-797.665 -336.766)" fill="#223856"/>
              </g>
            </g>
          </g>
          <g id="Grupo_26160" data-name="Grupo 26160" transform="translate(113.856 28.062)" style="isolation: isolate">
            <g id="Grupo_26159" data-name="Grupo 26159" clip-path="url(#clip-path-7)">
              <g id="Grupo_26158" data-name="Grupo 26158" style="isolation: isolate">
                <path id="Trazado_13221" data-name="Trazado 13221" d="M802.625,346.537l.622,7.909c-.387-1.106-.9-2.178-1.339-3.275l-.621-7.909c.44,1.1.951,2.169,1.338,3.275" transform="translate(-801.287 -343.262)" fill="#223856"/>
              </g>
            </g>
          </g>
          <g id="Grupo_26163" data-name="Grupo 26163" transform="translate(115.194 31.337)" style="isolation: isolate">
            <g id="Grupo_26162" data-name="Grupo 26162" clip-path="url(#clip-path-8)">
              <g id="Grupo_26161" data-name="Grupo 26161" style="isolation: isolate">
                <path id="Trazado_13223" data-name="Trazado 13223" d="M805.572,360.038l.622,7.911a51.232,51.232,0,0,0-3.176-14.062l-.622-7.909a51.191,51.191,0,0,1,3.176,14.061" transform="translate(-802.396 -345.977)" fill="#223856"/>
              </g>
            </g>
          </g>
          <g id="Grupo_26166" data-name="Grupo 26166" transform="translate(0 44.791)" style="isolation: isolate">
            <g id="Grupo_26165" data-name="Grupo 26165" clip-path="url(#clip-path-9)">
              <g id="Grupo_26164" data-name="Grupo 26164" style="isolation: isolate">
                <path id="Trazado_13225" data-name="Trazado 13225" d="M811.358,357.13l.622,7.909a52.21,52.21,0,0,1,.115,6.327l-.622-7.909a52.177,52.177,0,0,0-.115-6.327" transform="translate(-685.354 -357.13)" fill="#284064"/>
                <path id="Trazado_13226" data-name="Trazado 13226" d="M811.717,362.375l.622,7.909a51.312,51.312,0,0,1-1.013,8.181q-.242,1.1-.531,2.206l-.622-7.909q.289-1.1.532-2.206a51.468,51.468,0,0,0,1.012-8.181" transform="translate(-685.598 -356.048)" fill="#294267"/>
                <path id="Trazado_13227" data-name="Trazado 13227" d="M811.153,370.986l.622,7.909a47.523,47.523,0,0,1-5.194,12.539q-.264.443-.537.883l-.622-7.909q.273-.44.537-.883a47.539,47.539,0,0,0,5.194-12.539" transform="translate(-686.578 -354.272)" fill="#2a446a"/>
                <path id="Trazado_13228" data-name="Trazado 13228" d="M807.65,382.113l.622,7.909a51.786,51.786,0,0,1-10.611,12.269q-1.182,1.006-2.42,1.971l-.622-7.909q1.238-.966,2.42-1.972a51.776,51.776,0,0,0,10.611-12.268" transform="translate(-688.806 -351.977)" fill="#2c476e"/>
                <path id="Trazado_13229" data-name="Trazado 13229" d="M797.256,393.918l.622,7.909a83.177,83.177,0,0,1-15.421,9.44l-.621-7.909a83.23,83.23,0,0,0,15.42-9.44" transform="translate(-691.443 -349.542)" fill="#2a446a"/>
                <path id="Trazado_13230" data-name="Trazado 13230" d="M783.836,401.744l.621,7.909a94.564,94.564,0,0,1-9.83,4.007q-.926.319-1.864.621l-.622-7.911q.937-.3,1.865-.62a95.037,95.037,0,0,0,9.83-4.007" transform="translate(-693.443 -347.928)" fill="#294267"/>
                <path id="Trazado_13231" data-name="Trazado 13231" d="M773.893,405.58l.622,7.911q-2.025.651-4.092,1.221-3.042.831-6.158,1.464l-.622-7.911q3.114-.633,6.159-1.464,2.066-.568,4.09-1.221" transform="translate(-695.195 -347.137)" fill="#284064"/>
                <path id="Trazado_13232" data-name="Trazado 13232" d="M765.412,407.806l.622,7.911a99.431,99.431,0,0,1-10.339,1.538l-.622-7.909a99.368,99.368,0,0,0,10.339-1.539" transform="translate(-696.963 -346.678)" fill="#263e60"/>
                <path id="Trazado_13233" data-name="Trazado 13233" d="M756.951,409.082l.622,7.909a99.432,99.432,0,0,1-10.98.444l-.622-7.911a99.42,99.42,0,0,0,10.981-.443" transform="translate(-698.84 -346.415)" fill="#253c5d"/>
                <path id="Trazado_13234" data-name="Trazado 13234" d="M748.117,409.623l.622,7.911a94.682,94.682,0,0,1-12.347-.987l-.207-.03-.622-7.909.208.029a94.679,94.679,0,0,0,12.347.987" transform="translate(-700.987 -346.513)" fill="#243a5a"/>
                <path id="Trazado_13235" data-name="Trazado 13235" d="M741.474,410.914l.622,7.909a79.871,79.871,0,0,1-34.576-13.491l-.621-7.909a79.865,79.865,0,0,0,34.575,13.491" transform="translate(-706.899 -348.819)" fill="#223856"/>
              </g>
            </g>
          </g>
          <g id="Grupo_26167" data-name="Grupo 26167">
            <path id="Trazado_13237" data-name="Trazado 13237" d="M804.641,323.216A124.861,124.861,0,0,1,830.24,320c1.083,1.115,2.166,2.228,3.143,3.388l1.485,1.729,1.373,1.767a136.18,136.18,0,0,0-21.322.55,65.843,65.843,0,0,1,6.248,7.092c.493.609.9,1.25,1.349,1.872l.723,1.045c.373.544.711,1.11,1.064,1.661.725,1.113,1.335,2.257,1.966,3.394s1.154,2.321,1.735,3.475c.476,1.182,1.026,2.346,1.452,3.545a53.429,53.429,0,0,1,2.55,29.78,48.7,48.7,0,0,1-5.726,14.745,51.811,51.811,0,0,1-11.148,13.151,85.962,85.962,0,0,1-27.669,15.42q-2.931,1.008-5.955,1.841a98.7,98.7,0,0,1-39.826,2.46,79.893,79.893,0,0,1-34.782-13.52l5.374-4.285a71.642,71.642,0,0,0,31.194,12.126,88.411,88.411,0,0,0,35.734-2.211q2.721-.746,5.371-1.659a77.46,77.46,0,0,0,24.928-13.89,44.371,44.371,0,0,0,14.952-24.836,48.987,48.987,0,0,0-2.359-27.3c-.387-1.106-.9-2.178-1.338-3.275-.537-1.055-1.008-2.141-1.589-3.189s-1.153-2.1-1.814-3.121c-.328-.507-.627-1.023-.966-1.526l-.672-.955c-.41-.567-.774-1.159-1.234-1.708A58.943,58.943,0,0,0,808.8,331.1a70.7,70.7,0,0,1-10.137,13.165l-.812-1.057-.871-1.011c-.568-.68-1.2-1.315-1.815-1.959A58.125,58.125,0,0,0,804.641,323.216Z" transform="translate(-706.899 -319.998)" fill="#3b6095"/>
          </g>
        </g>
      </g>
    </g>
    <g id="Grupo_26208" data-name="Grupo 26208" transform="translate(0 5.551)">
      <g id="Grupo_26207" data-name="Grupo 26207">
        <g id="Grupo_26206" data-name="Grupo 26206" style="isolation: isolate">
          <g id="Grupo_26173" data-name="Grupo 26173" transform="translate(103.379 4.288)" style="isolation: isolate">
            <g id="Grupo_26172" data-name="Grupo 26172" clip-path="url(#clip-path-10)">
              <g id="Grupo_26171" data-name="Grupo 26171" style="isolation: isolate">
                <path id="Trazado_13238" data-name="Trazado 13238" d="M808.86,359.982l.622,7.909a36.768,36.768,0,0,0-2.2-9.976,42.079,42.079,0,0,0-6.728-11.856,55.255,55.255,0,0,0-10.7-9.994l-.621-7.911a55.29,55.29,0,0,1,10.7,9.994,42.124,42.124,0,0,1,6.728,11.856,36.771,36.771,0,0,1,2.2,9.977" transform="translate(-789.232 -328.155)" fill="#223856"/>
              </g>
            </g>
          </g>
          <g id="Grupo_26176" data-name="Grupo 26176" transform="translate(13.497 76.717)" style="isolation: isolate">
            <g id="Grupo_26175" data-name="Grupo 26175" clip-path="url(#clip-path-11)">
              <g id="Grupo_26174" data-name="Grupo 26174" style="isolation: isolate">
                <path id="Trazado_13240" data-name="Trazado 13240" d="M730.229,388.2l.623,7.909A81.053,81.053,0,0,1,720.442,402l-.621-7.909a81.013,81.013,0,0,0,10.408-5.889" transform="translate(-713.665 -388.199)" fill="#2a446a"/>
                <path id="Trazado_13241" data-name="Trazado 13241" d="M720.873,393.081l.621,7.909q-2.967,1.411-6.154,2.665l-.622-7.911q3.186-1.252,6.155-2.663" transform="translate(-714.718 -387.192)" fill="#294267"/>
              </g>
            </g>
          </g>
          <g id="Grupo_26179" data-name="Grupo 26179" transform="translate(8.99 90.088)" style="isolation: isolate">
            <g id="Grupo_26178" data-name="Grupo 26178" clip-path="url(#clip-path-12)">
              <g id="Grupo_26177" data-name="Grupo 26177" style="isolation: isolate">
                <path id="Trazado_13243" data-name="Trazado 13243" d="M720.841,403.538l.622,7.909a88.152,88.152,0,0,1-9.859-4.254l-.622-7.909a88.25,88.25,0,0,0,9.859,4.254" transform="translate(-710.982 -399.284)" fill="#223856"/>
              </g>
            </g>
          </g>
          <g id="Grupo_26182" data-name="Grupo 26182" transform="translate(94.821 35.502)" style="isolation: isolate">
            <g id="Grupo_26181" data-name="Grupo 26181" clip-path="url(#clip-path-13)">
              <g id="Grupo_26180" data-name="Grupo 26180" style="isolation: isolate">
                <path id="Trazado_13245" data-name="Trazado 13245" d="M811.832,354.032l.622,7.909a42.429,42.429,0,0,1,.09,5.153l-.622-7.911a42.438,42.438,0,0,0-.09-5.152" transform="translate(-776.012 -354.032)" fill="#284064"/>
                <path id="Trazado_13246" data-name="Trazado 13246" d="M812.153,358.3l.622,7.911a44.838,44.838,0,0,1-1.439,9.449l-.621-7.909a44.918,44.918,0,0,0,1.438-9.45" transform="translate(-776.243 -353.151)" fill="#294267"/>
                <path id="Trazado_13247" data-name="Trazado 13247" d="M811.749,366.137l.621,7.909q-.429,1.643-.983,3.268a52.287,52.287,0,0,1-5.065,10.555l-.622-7.909a52.23,52.23,0,0,0,5.066-10.555q.552-1.625.983-3.268" transform="translate(-777.277 -351.535)" fill="#2a446a"/>
                <path id="Trazado_13248" data-name="Trazado 13248" d="M808.409,377.6l.622,7.909a64.662,64.662,0,0,1-13.561,15.387q-1.116.941-2.282,1.85l-.621-7.909q1.165-.91,2.281-1.85A64.663,64.663,0,0,0,808.409,377.6" transform="translate(-779.986 -349.172)" fill="#2c476e"/>
                <path id="Trazado_13249" data-name="Trazado 13249" d="M794.718,391.886l.621,7.909a78.067,78.067,0,0,1-12.58,8l-.622-7.909a78.219,78.219,0,0,0,12.581-8" transform="translate(-782.137 -346.224)" fill="#2a446a"/>
              </g>
            </g>
          </g>
          <g id="Grupo_26183" data-name="Grupo 26183" transform="translate(18.849 94.342)">
            <path id="Trazado_13251" data-name="Trazado 13251" d="M722.06,403.785l.622,7.91-2.9-.974-.622-7.91Z" transform="translate(-719.155 -402.811)" fill="#233959"/>
          </g>
          <g id="Grupo_26186" data-name="Grupo 26186" transform="translate(21.754 95.316)" style="isolation: isolate">
            <g id="Grupo_26185" data-name="Grupo 26185" clip-path="url(#clip-path-14)">
              <g id="Grupo_26184" data-name="Grupo 26184" style="isolation: isolate">
                <path id="Trazado_13252" data-name="Trazado 13252" d="M722.669,403.955l.622,7.909c-.373-.111-.747-.2-1.106-.335l-.622-7.911c.361.133.735.226,1.106.337" transform="translate(-721.563 -403.618)" fill="#223856"/>
              </g>
            </g>
          </g>
          <g id="Grupo_26187" data-name="Grupo 26187" transform="translate(22.86 95.652)">
            <path id="Trazado_13254" data-name="Trazado 13254" d="M724.714,404.544l.622,7.91-2.234-.647-.622-7.91Z" transform="translate(-722.48 -403.897)" fill="#243a5a"/>
          </g>
          <g id="Grupo_26190" data-name="Grupo 26190" transform="translate(86.341 89.166)" style="isolation: isolate">
            <g id="Grupo_26189" data-name="Grupo 26189" clip-path="url(#clip-path-15)">
              <g id="Grupo_26188" data-name="Grupo 26188" style="isolation: isolate">
                <path id="Trazado_13255" data-name="Trazado 13255" d="M782.541,398.52l.622,7.909q-1.162.617-2.362,1.185l-.622-7.909q1.2-.57,2.362-1.185" transform="translate(-774.061 -398.52)" fill="#2a446a"/>
                <path id="Trazado_13256" data-name="Trazado 13256" d="M781.225,399.5l.622,7.909c-1.989.946-4.046,1.807-6.119,2.648l-.621-7.909c2.074-.841,4.129-1.7,6.118-2.648" transform="translate(-775.107 -398.317)" fill="#294267"/>
              </g>
            </g>
          </g>
          <g id="Grupo_26193" data-name="Grupo 26193" transform="translate(8.707 90.088)" style="isolation: isolate">
            <g id="Grupo_26192" data-name="Grupo 26192" clip-path="url(#clip-path-16)">
              <g id="Grupo_26191" data-name="Grupo 26191" transform="translate(0)" style="isolation: isolate">
                <path id="Trazado_13258" data-name="Trazado 13258" d="M711.022,399.284l.622,7.909q-.166,1.583-.238,3.194l-.621-7.909q.069-1.61.236-3.194" transform="translate(-710.739 -399.284)" fill="#294267"/>
                <path id="Trazado_13259" data-name="Trazado 13259" d="M710.794,401.932l.621,7.909a51.651,51.651,0,0,0,.112,6.248l-.622-7.909a51.648,51.648,0,0,1-.111-6.248" transform="translate(-710.747 -398.738)" fill="#284064"/>
              </g>
            </g>
          </g>
          <g id="Grupo_26196" data-name="Grupo 26196" transform="translate(77.318 92.999)" style="isolation: isolate">
            <g id="Grupo_26195" data-name="Grupo 26195" clip-path="url(#clip-path-17)">
              <g id="Grupo_26194" data-name="Grupo 26194" style="isolation: isolate">
                <path id="Trazado_13261" data-name="Trazado 13261" d="M776.057,401.7l.621,7.909c-1.242.466-2.493.922-3.755,1.357q-.9.308-1.8.6l-.622-7.911q.9-.291,1.8-.6c1.263-.434,2.513-.891,3.756-1.356" transform="translate(-767.034 -401.697)" fill="#294267"/>
                <path id="Trazado_13262" data-name="Trazado 13262" d="M771.093,403.319l.622,7.911c-1.144.368-2.3.713-3.467,1.024l-.621-7.909c1.169-.312,2.323-.657,3.465-1.025" transform="translate(-767.627 -401.362)" fill="#284064"/>
              </g>
            </g>
          </g>
          <g id="Grupo_26197" data-name="Grupo 26197" transform="translate(0.052 102.053)">
            <path id="Trazado_13264" data-name="Trazado 13264" d="M705.941,410.353l.622,7.91-2.369-1.15-.622-7.91Z" transform="translate(-703.572 -409.203)" fill="#223756"/>
          </g>
          <g id="Grupo_26200" data-name="Grupo 26200" transform="translate(25.094 95.98)" style="isolation: isolate">
            <g id="Grupo_26199" data-name="Grupo 26199" clip-path="url(#clip-path-18)">
              <g id="Grupo_26198" data-name="Grupo 26198" style="isolation: isolate">
                <path id="Trazado_13265" data-name="Trazado 13265" d="M768.748,404.169l.621,7.909q-3.232.914-6.556,1.585l-.622-7.909q3.319-.675,6.557-1.585" transform="translate(-716.523 -404.169)" fill="#284064"/>
                <path id="Trazado_13266" data-name="Trazado 13266" d="M764.06,405.483l.622,7.909a105.046,105.046,0,0,1-10.929,1.613l-.622-7.911a105.034,105.034,0,0,0,10.929-1.612" transform="translate(-718.392 -403.898)" fill="#263e60"/>
                <path id="Trazado_13267" data-name="Trazado 13267" d="M755.011,406.819l.622,7.911q-.765.072-1.529.136c-3.152.238-6.315.335-9.466.288l-.621-7.911c3.151.048,6.313-.051,9.464-.288q.765-.063,1.53-.136" transform="translate(-720.272 -403.622)" fill="#253c5d"/>
                <path id="Trazado_13268" data-name="Trazado 13268" d="M746.237,407.351l.621,7.911c-3.3-.051-6.589-.261-9.836-.637q-1.58-.186-3.147-.419l-.622-7.911q1.567.235,3.148.419a97.9,97.9,0,0,0,9.836.637" transform="translate(-722.492 -403.73)" fill="#243a5a"/>
                <path id="Trazado_13269" data-name="Trazado 13269" d="M735.093,406.68l.622,7.911q-3.141-.469-6.218-1.137c-1.532-.332-3.046-.713-4.544-1.11l-.621-7.909c1.5.4,3.011.778,4.544,1.109q3.072.671,6.217,1.138" transform="translate(-724.332 -404.114)" fill="#223856"/>
              </g>
            </g>
          </g>
          <g id="Grupo_26201" data-name="Grupo 26201" transform="translate(2.421 103.203)">
            <path id="Trazado_13271" data-name="Trazado 13271" d="M707.972,411.212l.622,7.91-2.436-1.056-.622-7.91Z" transform="translate(-705.536 -410.156)" fill="#233857"/>
          </g>
          <g id="Grupo_26204" data-name="Grupo 26204" transform="translate(4.858 104.259)" style="isolation: isolate">
            <g id="Grupo_26203" data-name="Grupo 26203" clip-path="url(#clip-path-19)">
              <g id="Grupo_26202" data-name="Grupo 26202" style="isolation: isolate">
                <path id="Trazado_13272" data-name="Trazado 13272" d="M712.538,413.016l.621,7.911c-1.672-.647-3.371-1.257-4.982-1.985l-.621-7.909c1.61.729,3.31,1.339,4.982,1.984" transform="translate(-707.556 -411.032)" fill="#223856"/>
              </g>
            </g>
          </g>
          <g id="Grupo_26205" data-name="Grupo 26205">
            <path id="Trazado_13274" data-name="Trazado 13274" d="M812.293,324.6a61.4,61.4,0,0,1,11.9,11.129,46.919,46.919,0,0,1,7.519,13.24,42.929,42.929,0,0,1,.125,29c-3.3,9.562-9.781,18.567-18.627,25.942a78.036,78.036,0,0,1-14.862,9.853,90.941,90.941,0,0,1-8.48,3.832c-1.244.464-2.493.922-3.756,1.356-1.729.6-3.48,1.15-5.266,1.626a100.493,100.493,0,0,1-19.015,3.333,101.528,101.528,0,0,1-19.3-.349c-3.168-.37-6.3-.887-9.365-1.556-1.533-.33-3.047-.713-4.544-1.109l-2.234-.648c-.372-.111-.745-.2-1.106-.337l-2.9-.973a88.25,88.25,0,0,1-9.859-4.254,51.6,51.6,0,0,0,.849,16.155c-1.672-.645-3.371-1.256-4.982-1.984L705.95,427.8l-2.369-1.15a52.882,52.882,0,0,1,2.8-19.491q4.9-1.182,9.471-2.756a89.5,89.5,0,0,0,12.475-5.349l1.267.626,1.316.565c.867.4,1.791.712,2.683,1.069a86.159,86.159,0,0,1-16.563,8.552,80.286,80.286,0,0,0,8.857,3.83l2.343.778c.595.211.93.3,1.27.394l2,.577c1.345.359,2.707.706,4.093,1.007a85,85,0,0,0,8.427,1.392,90.927,90.927,0,0,0,17.37.314,89.889,89.889,0,0,0,17.108-3c1.609-.421,3.186-.919,4.741-1.455,1.135-.391,2.259-.8,3.379-1.217,2.61-1.066,5.193-2.159,7.63-3.45a70.332,70.332,0,0,0,13.376-8.872c8.018-6.691,13.849-14.807,16.819-23.407a38.5,38.5,0,0,0-.1-26.018,42.124,42.124,0,0,0-6.728-11.856,55.29,55.29,0,0,0-10.7-9.994Z" transform="translate(-703.529 -324.6)" fill="#3b6095"/>
          </g>
        </g>
      </g>
    </g>
  </g>
</svg>
