<svg xmlns="http://www.w3.org/2000/svg" width="160.039" height="150" viewBox="0 0 160.039 150">
  <g id="Grupo_100736" data-name="Grupo 100736" transform="translate(-174.483 -181.44)">
    <path id="Trazado_160183" data-name="Trazado 160183" d="M324.733,329.1H184.272a7.445,7.445,0,0,1-7.445-7.444V191.228a7.444,7.444,0,0,1,7.445-7.444H324.733a7.443,7.443,0,0,1,7.445,7.444V321.651A7.445,7.445,0,0,1,324.733,329.1Z" fill="#f6d867"/>
    <path id="Trazado_160184" data-name="Trazado 160184" d="M324.733,183.784h-10.94a7.444,7.444,0,0,1,7.444,7.444V321.651a7.444,7.444,0,0,1-7.444,7.444h10.94a7.445,7.445,0,0,0,7.445-7.444V191.228A7.444,7.444,0,0,0,324.733,183.784Z" fill="#e0c55e"/>
    <path id="Trazado_160185" data-name="Trazado 160185" d="M176.827,211.747H332.178V191.228a7.444,7.444,0,0,0-7.445-7.444H184.272a7.444,7.444,0,0,0-7.445,7.444Z" fill="#2cab72"/>
    <path id="Trazado_160186" data-name="Trazado 160186" d="M324.733,183.784h-10.94a7.444,7.444,0,0,1,7.444,7.444v20.519h10.941V191.228A7.444,7.444,0,0,0,324.733,183.784Z" fill="#279463"/>
    <path id="Trazado_160187" data-name="Trazado 160187" d="M200.992,197.766a5.519,5.519,0,1,1-5.518-5.518A5.517,5.517,0,0,1,200.992,197.766Z" fill="#fa5d72"/>
    <path id="Trazado_160188" data-name="Trazado 160188" d="M219.672,197.766a5.518,5.518,0,1,1-5.519-5.518A5.518,5.518,0,0,1,219.672,197.766Z" fill="#f6d867"/>
    <path id="Trazado_160189" data-name="Trazado 160189" d="M238.351,197.766a5.519,5.519,0,1,1-5.518-5.518A5.517,5.517,0,0,1,238.351,197.766Z" fill="#5994ce"/>
    <path id="Trazado_160190" data-name="Trazado 160190" d="M176.827,321.651a7.445,7.445,0,0,0,7.445,7.444h90.587V271.716a9.417,9.417,0,0,0-9.416-9.417H176.827Z" fill="#fba826"/>
    <path id="Trazado_160191" data-name="Trazado 160191" d="M265.443,262.3h-11.69a9.417,9.417,0,0,1,9.416,9.417V329.1h11.69V271.716A9.417,9.417,0,0,0,265.443,262.3Z" fill="#e09721"/>
    <path id="Trazado_160192" data-name="Trazado 160192" d="M203.336,197.766a7.863,7.863,0,1,0-7.862,7.862A7.87,7.87,0,0,0,203.336,197.766Zm-7.862,3.173a3.174,3.174,0,1,1,3.174-3.173A3.177,3.177,0,0,1,195.474,200.939Z"/>
    <path id="Trazado_160193" data-name="Trazado 160193" d="M214.153,205.628a7.862,7.862,0,1,0-7.862-7.862A7.871,7.871,0,0,0,214.153,205.628Zm0-11.036a3.174,3.174,0,1,1-3.173,3.174A3.178,3.178,0,0,1,214.153,194.592Z"/>
    <path id="Trazado_160194" data-name="Trazado 160194" d="M232.833,205.628a7.862,7.862,0,1,0-7.863-7.862A7.871,7.871,0,0,0,232.833,205.628Zm0-11.036a3.174,3.174,0,1,1-3.174,3.174A3.178,3.178,0,0,1,232.833,194.592Z"/>
    <path id="Trazado_160195" data-name="Trazado 160195" d="M258.775,200.11h57.1a2.344,2.344,0,1,0,0-4.689h-57.1a2.344,2.344,0,1,0,0,4.689Z"/>
    <path id="Trazado_160196" data-name="Trazado 160196" d="M324.733,181.44H184.272a9.8,9.8,0,0,0-9.789,9.788V321.651a9.8,9.8,0,0,0,9.789,9.789H324.733a9.8,9.8,0,0,0,9.789-9.789V191.228A9.8,9.8,0,0,0,324.733,181.44Zm0,145.311H277.2v-21.9a2.344,2.344,0,0,0-4.688,0v21.9H184.272a5.106,5.106,0,0,1-5.1-5.1V264.643h86.271a7.08,7.08,0,0,1,7.072,7.073V296.1a2.344,2.344,0,1,0,4.688,0V271.716a11.774,11.774,0,0,0-11.76-11.761H179.172V214.092H192.24a2.344,2.344,0,0,0,0-4.689H179.172V191.228a5.106,5.106,0,0,1,5.1-5.1H324.733a5.106,5.106,0,0,1,5.1,5.1V209.4H200.992a2.344,2.344,0,0,0,0,4.689H329.833V321.651A5.106,5.106,0,0,1,324.733,326.751Z"/>
    <path id="Trazado_160197" data-name="Trazado 160197" d="M312.97,224.187l-13.58,1.146a2.344,2.344,0,0,0,.393,4.672l7.193-.607-23.647,23.647a2.344,2.344,0,0,0,3.315,3.316l23.648-23.648-.608,7.193a2.345,2.345,0,1,0,4.673.394c0-.031,1.149-13.62,1.147-13.588A2.344,2.344,0,0,0,312.97,224.187Z"/>
  </g>
</svg>
