<svg xmlns="http://www.w3.org/2000/svg" width="352.91" height="261.83" viewBox="0 0 352.91 261.83">
  <g id="Grupo_101464" data-name="Grupo 101464" transform="translate(-1551.913 -591.084)">
    <path id="Trazado_162596" data-name="Trazado 162596" d="M2196.5,739.729l6.126-.69a1.367,1.367,0,0,1,1.286.616q.531.825,1.14,1.618a22.911,22.911,0,0,0,2.425,2.708,1.347,1.347,0,0,1,.332,1.483l-2.349,6a1.324,1.324,0,0,0,.652,1.678l5.278,2.614a1.309,1.309,0,0,0,1.678-.465l3.191-5a1.314,1.314,0,0,1,1.471-.569,23.807,23.807,0,0,0,7.472.744,1.356,1.356,0,0,1,1.358.942l1.082,3.443a1.37,1.37,0,0,0,1.557.924l5.732-1.159a1.2,1.2,0,0,0,.331-.11,1.316,1.316,0,0,0,.733-1.343l-.51-4.576-.127-1.115a23.6,23.6,0,0,0,2.78-1.836,23.922,23.922,0,0,0,3.261-3.019,1.314,1.314,0,0,1,1.467-.354l4.83,1.9a1.361,1.361,0,0,0,1.718-.666l2-4.035.57-1.158a1.379,1.379,0,0,0-.49-1.777l-4.177-2.67a1.312,1.312,0,0,1-.588-1.43,23.664,23.664,0,0,0,.636-5.015,4.217,4.217,0,0,0,.013-.425.733.733,0,0,1,.009-.143,1.345,1.345,0,0,1,.948-1.151l5.586-1.768a.993.993,0,0,0,.182-.072,1.367,1.367,0,0,0,.737-1.481l-1.147-5.716a1.36,1.36,0,0,0-1.484-1.083l-6.389.722a1.315,1.315,0,0,1-1.319-.692,24.034,24.034,0,0,0-2-3.06q-.6-.784-1.256-1.5a1.386,1.386,0,0,1-.262-1.435l2.256-5.766a1.322,1.322,0,0,0-.644-1.668l-5.224-2.578a1.383,1.383,0,0,0-1.783.495l-2.526,3.956a1.357,1.357,0,0,1-1.58.56,23.755,23.755,0,0,0-7.207-1.294,1.349,1.349,0,0,1-1.271-.949l-1.592-5.035a1.4,1.4,0,0,0-1.6-.944l-5.7,1.14a1.334,1.334,0,0,0-1.065,1.462l.027.267.6,5.317a1.364,1.364,0,0,1-.737,1.371l-.005,0a23.626,23.626,0,0,0-3.533,2.245c-.6.463-1.171.949-1.722,1.457a1.338,1.338,0,0,1-1.408.275l-4.9-1.927a1.384,1.384,0,0,0-1.748.672l-2.571,5.2a1.5,1.5,0,0,0-.132.458,1.378,1.378,0,0,0,.617,1.29l3.342,2.124a1.377,1.377,0,0,1,.624,1.2,1.47,1.47,0,0,1-.069.375,23.673,23.673,0,0,0-1.2,9.282,1.325,1.325,0,0,1-.928,1.365l-4.524,1.429a1.355,1.355,0,0,0-.919,1.553l.026.133,1.113,5.572A1.38,1.38,0,0,0,2196.5,739.729Zm39.189-17.394a15.833,15.833,0,0,1,.831,2.829,12.441,12.441,0,0,1-.885,6.724c-.092.189-.188.373-.284.557-5.994,11.126-21.7,8.913-24.292-3.64a12.9,12.9,0,0,1,.461-5.864,8.343,8.343,0,0,1,.469-1.156,14.623,14.623,0,0,1,2.923-4.024A12.769,12.769,0,0,1,2235.687,722.335Z" transform="translate(-502.961 -82.478)" fill="#e0f7e0"/>
    <path id="Trazado_162597" data-name="Trazado 162597" d="M2818.175,774.3c-5.881-11.852-26.241-3.739-26.241-3.739s-10,24.772-14.07,26.123,4.413-22.849,4.413-22.849c-8.245.824-26.891,14.836-26.891,14.836s6.385,25.315,2.106,25.622-4.51-22.7-4.51-22.7c-7.362,3.9-12.855,14.489-12.855,14.489-6.178,16.689,15.571,23.761,15.571,23.761a42.441,42.441,0,0,1-1.435,20.087h0a30.758,30.758,0,0,0-1.486,5.569l2.134-.424q.091-.91.25-1.772a.013.013,0,0,1,0-.01c0-.008,0-.016.005-.025.081-.359.2-.87.346-1.494v0s0,0,0,0c.4-1.406.652-2.437.8-3.173,0,0,0,0,0-.007,1.158-4.4,2.936-10.175,4.595-11.643a4.226,4.226,0,0,1-.651-.888l.651.888c5.209,7.1,23.735,4.779,33.5.669s4.756-6.1-1.649-9.669-17.644-.061-21.4-1.214.84-3.965,7.729-4.79,11.629,5.285,22.8,4.151,15.423-23.408,15.423-23.408c-7.1,3.852-21.5,2.372-22.541-.133s19.105-6.237,22.082-7.642S2824.055,786.147,2818.175,774.3Z" transform="translate(-930.139 -138.499)" fill="#e0f7e0"/>
    <path id="Trazado_162598" data-name="Trazado 162598" d="M1552.1,1123.935c-2.394-13.012,18.768-18.717,18.768-18.717s22.848,13.841,26.917,12.483-17.224-15.648-17.224-15.648c7.095-4.281,30.419-4.236,30.419-4.236s10.057,24.093,13.667,21.775-9.993-20.879-9.993-20.879c8.233-1.286,18.973,3.9,18.973,3.9,14.947,9.659,1.772,28.354,1.772,28.354a42.447,42.447,0,0,0,13.185,15.221h0a30.782,30.782,0,0,1,4.527,3.567l-1.963.94q-.618-.675-1.262-1.269a.013.013,0,0,0-.008-.007l-.019-.017c-.28-.239-.679-.578-1.172-.989h0s0,0,0,0c-1.161-.887-1.982-1.56-2.537-2.064l-.005,0c-3.56-2.825-8.447-6.387-10.655-6.568a4.218,4.218,0,0,0-.011-1.1c0,.351.007.717.011,1.1.086,8.807-16.139,18.048-26.417,20.608s-7.462-2.033-4.473-8.729,14.089-10.621,16.405-13.794-3.048-2.671-9.058.8-6.143,11.2-15.763,16.984-26.374-9.5-26.374-9.5c7.994-1.171,18.635-10.984,17.966-13.614s-19.033,6.455-22.257,7.113S1554.5,1136.948,1552.1,1123.935Z" transform="translate(0 -397.043)" fill="#e0f7e0"/>
    <path id="Trazado_162599" data-name="Trazado 162599" d="M2826.868,1350.211c10.413-8.162-1.661-26.454-1.661-26.454s-26.285-4.766-28.434-8.479,23.268-.313,23.268-.313c-2.479-7.907-19.981-23.324-19.981-23.324s-23.494,11.387-24.663,7.259,21.317-9.021,21.317-9.021c-5.316-6.418-16.795-9.649-16.795-9.649-17.6-2.665-20.11,20.066-20.11,20.066a42.441,42.441,0,0,1-19.96,2.669h0a30.773,30.773,0,0,0-5.754-.326l.848,2c.607-.064,1.2-.1,1.786-.115a.014.014,0,0,1,.011,0h.025c.368.006.892.017,1.533.036h.005c1.458.1,2.518.144,3.268.135h.007c4.538.242,10.559.811,12.333,2.138a4.232,4.232,0,0,1,.738-.818l-.738.818c-5.9,6.541.134,24.211,6.138,32.937s6.937,3.42,9.134-3.576-3.519-17.29-3.151-21.2,4.052.018,6.259,6.6-2.817,12.459.558,23.165,26.049,10.355,26.049,10.355c-5.212-6.172-6.684-20.573-4.441-22.1s9.982,17.444,11.961,20.073S2816.455,1358.374,2826.868,1350.211Z" transform="translate(-926.279 -539.799)" fill="#e0f7e0"/>
    <g id="Grupo_101413" data-name="Grupo 101413" transform="translate(1805.023 616.479)">
      <path id="Trazado_162600" data-name="Trazado 162600" d="M2725.948,749.145s1.221-24.38,12.617-39.664a2.711,2.711,0,0,1,4.872,1.5c0,.042,0,.085.005.128C2743.579,715.438,2730.959,734.588,2725.948,749.145Z" transform="translate(-2724.919 -708.397)" fill="#e0f7e0"/>
      <path id="Trazado_162601" data-name="Trazado 162601" d="M2721.2,760.908s10.265-31.074,30.434-45.894a2.875,2.875,0,0,1,3.94.467c.617.779.958,2.038.465,4.075C2754.72,724.988,2732.432,744.5,2721.2,760.908Z" transform="translate(-2721.195 -713.133)" fill="#e0f7e0"/>
    </g>
    <g id="Grupo_101414" data-name="Grupo 101414" transform="translate(1590.666 671.616)">
      <path id="Trazado_162602" data-name="Trazado 162602" d="M1813.558,988.323s-10.23-17.844-24.628-24.969a2.284,2.284,0,0,0-3.084,2.99l.045.1C1787.441,969.742,1804.234,979.3,1813.558,988.323Z" transform="translate(-1773.797 -963.111)" fill="#e0f7e0"/>
      <path id="Trazado_162603" data-name="Trazado 162603" d="M1774.156,1019.343s-19.579-19.417-40.387-22.843a2.423,2.423,0,0,0-2.781,1.856,3.843,3.843,0,0,0,1.207,3.238C1735.257,1005.172,1759.45,1011.314,1774.156,1019.343Z" transform="translate(-1730.939 -989.246)" fill="#e0f7e0"/>
    </g>
    <path id="Trazado_162604" data-name="Trazado 162604" d="M2118.207,883.637v154.787a4.659,4.659,0,0,1-4.365,4.9H1890.518a4.66,4.66,0,0,1-4.365-4.9V883.637a4.658,4.658,0,0,1,4.365-4.9h223.324A4.658,4.658,0,0,1,2118.207,883.637Z" transform="translate(-261.888 -225.382)" fill="#9cc995"/>
    <g id="Grupo_101416" data-name="Grupo 101416" transform="translate(1596.051 644.73)">
      <path id="Trazado_162605" data-name="Trazado 162605" d="M2005.042,843.6v12.553H1755.813V843.6a4.688,4.688,0,0,1,4.688-4.688h239.853A4.688,4.688,0,0,1,2005.042,843.6Z" transform="translate(-1755.813 -838.91)" fill="#eb594c"/>
      <g id="Grupo_101415" data-name="Grupo 101415" transform="translate(7.624 6.438)">
        <path id="Trazado_162606" data-name="Trazado 162606" d="M1791.033,870.833a2.183,2.183,0,1,1,2.182,2.183A2.183,2.183,0,0,1,1791.033,870.833Z" transform="translate(-1791.033 -868.65)" fill="#fff"/>
        <path id="Trazado_162607" data-name="Trazado 162607" d="M1830.764,870.833a2.183,2.183,0,1,1,2.183,2.183A2.183,2.183,0,0,1,1830.764,870.833Z" transform="translate(-1822.163 -868.65)" fill="#fff"/>
        <path id="Trazado_162608" data-name="Trazado 162608" d="M1871.5,870.833a2.183,2.183,0,1,1,2.183,2.183A2.183,2.183,0,0,1,1871.5,870.833Z" transform="translate(-1854.079 -868.65)" fill="#fff"/>
      </g>
    </g>
    <path id="Trazado_162609" data-name="Trazado 162609" d="M2497,699.978l2.983-.336a.666.666,0,0,1,.626.3q.259.4.555.788a11.142,11.142,0,0,0,1.181,1.319.657.657,0,0,1,.162.722l-1.144,2.922a.645.645,0,0,0,.317.817l2.571,1.273a.637.637,0,0,0,.817-.226l1.554-2.435a.64.64,0,0,1,.716-.277,11.6,11.6,0,0,0,3.639.362.66.66,0,0,1,.661.458l.527,1.677a.668.668,0,0,0,.759.45l2.791-.565a.583.583,0,0,0,.161-.053.641.641,0,0,0,.357-.654l-.249-2.229-.062-.543a11.485,11.485,0,0,0,1.354-.894,11.65,11.65,0,0,0,1.588-1.471.64.64,0,0,1,.714-.172l2.352.924a.663.663,0,0,0,.837-.324l.973-1.965.278-.564a.672.672,0,0,0-.239-.865l-2.034-1.3a.639.639,0,0,1-.287-.7,11.544,11.544,0,0,0,.31-2.442,2.035,2.035,0,0,0,.006-.207.367.367,0,0,1,0-.069.655.655,0,0,1,.462-.561l2.72-.861a.483.483,0,0,0,.089-.035.665.665,0,0,0,.359-.721l-.558-2.784a.662.662,0,0,0-.722-.527l-3.112.352a.64.64,0,0,1-.643-.337,11.671,11.671,0,0,0-.974-1.49q-.293-.382-.611-.732a.675.675,0,0,1-.128-.7l1.1-2.808a.644.644,0,0,0-.313-.812l-2.544-1.256a.673.673,0,0,0-.868.241l-1.23,1.926a.661.661,0,0,1-.769.273,11.568,11.568,0,0,0-3.51-.63.657.657,0,0,1-.619-.462l-.775-2.452a.679.679,0,0,0-.778-.46l-2.774.555a.65.65,0,0,0-.519.712l.013.13.29,2.589a.664.664,0,0,1-.359.668l0,0a11.552,11.552,0,0,0-1.721,1.093c-.293.225-.57.462-.838.71a.652.652,0,0,1-.686.134l-2.388-.938a.674.674,0,0,0-.851.327l-1.252,2.533a.723.723,0,0,0-.065.223.672.672,0,0,0,.3.628l1.628,1.034a.67.67,0,0,1,.3.584.718.718,0,0,1-.033.183,11.514,11.514,0,0,0-.586,4.52.65.65,0,0,1-.348.622.674.674,0,0,1-.1.042l-2.2.7a.659.659,0,0,0-.448.756l.012.065.542,2.714A.672.672,0,0,0,2497,699.978Zm19.085-8.471a7.749,7.749,0,0,1,.4,1.378,6.057,6.057,0,0,1-.431,3.274c-.045.092-.092.182-.138.271a6.263,6.263,0,0,1-11.606-4.628,4.137,4.137,0,0,1,.228-.563,7.122,7.122,0,0,1,1.424-1.959A6.218,6.218,0,0,1,2516.089,691.506Z" transform="translate(-739.491 -68.768)" fill="#e0f7e0"/>
    <g id="Grupo_101420" data-name="Grupo 101420" transform="translate(1571.295 767.635)">
      <path id="Trazado_162610" data-name="Trazado 162610" d="M1816.438,1410.307s.332-3.622-3.715-3.622a4.751,4.751,0,0,1,1.861,1,4.786,4.786,0,0,0-5.39.813c-2.809,2.328-1.064,8.169-1.918,9.278s-4.181,1.33-3.774,4.916,10.558,8.076,9.906,11.042c0,0,3.978-5.848,1.134-8.517a5.272,5.272,0,0,1,1.528,2.858s.376-3.031-1.552-4c-1.707-.858-3.1-4-2.957-4.557S1816.438,1410.307,1816.438,1410.307Z" transform="translate(-1768.396 -1406.685)" fill="#4a190c"/>
      <path id="Trazado_162611" data-name="Trazado 162611" d="M1829.462,1503.763s3.024,12.509,5.992,15.01c1.784,1.5,7.089,4.952,7.089,4.952l-2.206.8s-7.358-2.485-9-4.421-6.157-11.641-6.157-11.641Z" transform="translate(-1785.404 -1482.749)" fill="#f2beb7"/>
      <path id="Trazado_162612" data-name="Trazado 162612" d="M1706.88,1562.485l.083.147c.662,1.15,2.18,3.968,3.851,7.052.791,1.463,1.619,2.986,2.4,4.419,1.354,2.473,2.585,4.676,3.3,5.84.73,1.183,1.268,2.015,1.486,2.348l0,0a.55.55,0,0,1,.071.343,17.939,17.939,0,0,0,.048,3.1,23.791,23.791,0,0,0,7.774,15.409l2.011.3s-2.847-10.546-3.685-16.508a11.454,11.454,0,0,1-.154-2.364,24.694,24.694,0,0,0-.649-6.452,144.46,144.46,0,0,0-4.113-14.935c-.094-.292-2.923-10.524-2.923-10.524-2.374,2.075-11.034,2.931-11.034,2.931S1703.887,1557.162,1706.88,1562.485Z" transform="translate(-1691.24 -1519.494)" fill="#3b5d30"/>
      <path id="Trazado_162613" data-name="Trazado 162613" d="M1799.817,1780.105h-8.395a4.611,4.611,0,0,1,.237-2.25c.42-.932,1.019-.961.077-2.421.533.549,2.248.776,3.462.613a10.277,10.277,0,0,0,1.456,2.216C1797.2,1778.657,1799.648,1778.516,1799.817,1780.105Z" transform="translate(-1758.922 -1695.612)" fill="#9cc995"/>
      <path id="Trazado_162614" data-name="Trazado 162614" d="M1713.7,1587.368l.083.147c.662,1.15,4.24,7.759,5.912,10.843a44.711,44.711,0,0,1-.59-15.94Z" transform="translate(-1698.063 -1544.378)" fill="#293d23"/>
      <path id="Trazado_162615" data-name="Trazado 162615" d="M1834.4,1420.853a33.622,33.622,0,0,0-5.041,2.465c-2.275,2.523-1.626,5.815-.325,5.847.835.02.673,1.408.673,1.408l9.3-3.934S1837.891,1420.11,1834.4,1420.853Z" transform="translate(-1787.507 -1417.74)" fill="#4a190c"/>
      <path id="Trazado_162616" data-name="Trazado 162616" d="M1825.954,1495.086a11.908,11.908,0,0,1,1.238,5.121s-1.706,2.693-6.131,3.375C1821.061,1503.582,1824.866,1495.084,1825.954,1495.086Z" transform="translate(-1782.181 -1475.95)" fill="#ee816f"/>
      <path id="Trazado_162617" data-name="Trazado 162617" d="M1667.664,1547.875l.029-1.57c-3.129.395-10.787-3.738-10.787-3.738s-3.273,2.177-3.721,8.393c-.218,3.034-1.6,15.866-1.755,19.7-.056,1.389-.074,2.38-.081,2.776,0,0,0,0,0,0a.543.543,0,0,1-.133.323,17.916,17.916,0,0,0-1.7,2.6c-4.774,8.882-2.277,20.95-2.277,20.95l1.108-.281s4.036-12.511,6.675-17.922a11.3,11.3,0,0,1,1.195-2.045,24.689,24.689,0,0,0,3.068-5.713C1661.239,1566.692,1667.664,1547.875,1667.664,1547.875Z" transform="translate(-1645.479 -1513.153)" fill="#3b5d30"/>
      <path id="Trazado_162618" data-name="Trazado 162618" d="M1649.892,1779.886H1641.5a4.612,4.612,0,0,1,.237-2.25c.42-.931,1.078-1.354.921-2.482a3.023,3.023,0,0,0,2.617,1,9.207,9.207,0,0,0,1.457,1.888C1647.277,1778.438,1649.723,1778.3,1649.892,1779.886Z" transform="translate(-1641.451 -1695.393)" fill="#9cc995"/>
      <path id="Trazado_162619" data-name="Trazado 162619" d="M1719.917,1488.163c-1.127.192.184,1.089-1.366,1.257a28.036,28.036,0,0,0-5.681.882,1.282,1.282,0,0,0-.817.662c-.518,1.556-3.8,4.23-3.8,4.23-14.618-.665-15.56-7.181-15.56-7.181,9.488-9.214,17.559-14.237,24.229-14.858a11.861,11.861,0,0,1,4.838.509c2.333,1.039,3.612,4.2,3.612,4.2S1724.2,1487.432,1719.917,1488.163Z" transform="translate(-1681.604 -1458.728)" fill="#ee816f"/>
      <path id="Trazado_162620" data-name="Trazado 162620" d="M1791.4,1505.424a28.029,28.029,0,0,0-5.68.882,23.28,23.28,0,0,1,2.953-12.775S1790.912,1502.665,1791.4,1505.424Z" transform="translate(-1754.45 -1474.732)" fill="#eb594c"/>
      <path id="Trazado_162621" data-name="Trazado 162621" d="M1826.3,1466.347c.417,1.307,1.809,5.032,3.737,3.6a4.758,4.758,0,0,1,.817-1.907c.61-1.049,1.338-2.121,1.338-2.121l-3.142-2.753-.187-.164a8.009,8.009,0,0,1-2.337,2.653A.628.628,0,0,0,1826.3,1466.347Z" transform="translate(-1786.261 -1450.81)" fill="#f2beb7"/>
      <path id="Trazado_162622" data-name="Trazado 162622" d="M1842.037,1466.514s-.726,1.07-1.337,2.12c-1.953-1.2-1.955-3.622-1.8-4.874Z" transform="translate(-1796.11 -1451.405)" fill="#eda8a2"/>
      <path id="Trazado_162623" data-name="Trazado 162623" d="M1841.654,1447.57s-4.742-2.639-3.053-5.566,2.214-5.24,5.313-3.679,3.037,3.014,2.711,4.129S1842.93,1448.181,1841.654,1447.57Z" transform="translate(-1795.639 -1431.082)" fill="#f2beb7"/>
      <path id="Trazado_162624" data-name="Trazado 162624" d="M1845.621,1439.311c-.217-1.3-.877-1.424-1.338-1.337a3.792,3.792,0,0,0-4.612-1.766,6.457,6.457,0,0,1-3.737,2.245s.55,1.024,2.817,1.658a3.875,3.875,0,0,0,2.236-.179,12.656,12.656,0,0,1-3.218,1.213c2.988.274,5.831-2.458,6.125-2.75a4.251,4.251,0,0,1,.235,1.958c-.2.88-.978,2.475-.5,2.681C1843.629,1443.033,1845.947,1441.26,1845.621,1439.311Z" transform="translate(-1793.835 -1429.647)" fill="#4a190c"/>
      <g id="Grupo_101419" data-name="Grupo 101419" transform="translate(41.665 36.149)">
        <rect id="Rectángulo_24565" data-name="Rectángulo 24565" width="39.362" height="10.323" transform="matrix(0.899, 0.438, -0.438, 0.899, 21.984, 11.104)" fill="#3b5d30"/>
        <g id="Grupo_101417" data-name="Grupo 101417">
          <path id="Trazado_162625" data-name="Trazado 162625" d="M1840.322,1596.007a11.7,11.7,0,0,1-6.332-8.049,2.658,2.658,0,1,1,5.192-1.141,6.439,6.439,0,1,0,4.469-7.552,2.658,2.658,0,1,1-1.506-5.1,11.755,11.755,0,1,1-1.824,21.841Z" transform="translate(-1833.928 -1573.683)" fill="#3b5d30"/>
        </g>
        <g id="Grupo_101418" data-name="Grupo 101418" transform="translate(49.843 24.404)">
          <path id="Trazado_162626" data-name="Trazado 162626" d="M2070.789,1708.744a11.755,11.755,0,1,1,16.083-14.889,2.658,2.658,0,0,1-4.945,1.954,6.438,6.438,0,1,0-3.2,8.172,2.658,2.658,0,1,1,2.3,4.793A11.7,11.7,0,0,1,2070.789,1708.744Z" transform="translate(-2064.186 -1686.423)" fill="#3b5d30"/>
        </g>
        <path id="Trazado_162627" data-name="Trazado 162627" d="M1970.445,1665.7l-18.639-9.087a1.084,1.084,0,0,1-.5-1.446l.474-.972a1.085,1.085,0,0,1,1.446-.5l18.639,9.087a1.084,1.084,0,0,1,.5,1.446l-.474.972A1.085,1.085,0,0,1,1970.445,1665.7Z" transform="translate(-1925.814 -1636.291)" fill="#293d23"/>
      </g>
      <path id="Trazado_162628" data-name="Trazado 162628" d="M1833.69,1632.39a3.137,3.137,0,0,0,.476,1.34c.373.456,1.46,1.56,1.479,2.206,0,0-.055.287-.288.235s-1.042-.854-1.457-.8a8.057,8.057,0,0,0,.441,1.66,4.552,4.552,0,0,1,.492,2.054c-.132.315-2.33-1.517-3-2.413s-.01-4.529-.01-4.529Z" transform="translate(-1790.391 -1583.342)" fill="#f2beb7"/>
      <path id="Trazado_162629" data-name="Trazado 162629" d="M1796.516,1487.806s-5.551-.3-6.538,3.182,1.85,17.4,2.462,18.833c1.113,2.614,6.532,10.074,6.532,10.074l1.992-.606s-3.613-11.4-4.42-12.526C1795.279,1504.992,1798.177,1489.322,1796.516,1487.806Z" transform="translate(-1757.665 -1470.24)" fill="#f2beb7"/>
      <path id="Trazado_162630" data-name="Trazado 162630" d="M1785.668,1491.923c.015.082,5.253.964,8.53-.7,0,0,2.737-8.575-1.174-8.165s-6.228,1.642-6.327,3.515A36.079,36.079,0,0,1,1785.668,1491.923Z" transform="translate(-1754.45 -1466.515)" fill="#ee816f"/>
      <path id="Trazado_162631" data-name="Trazado 162631" d="M1888.185,1570.185a2.165,2.165,0,0,0-.92.232c-.3.233-.643.639.035.977,1.018.507,3.052.282,2.973-.023C1890.023,1570.409,1889.655,1570.117,1888.185,1570.185Z" transform="translate(-1833.774 -1534.785)" fill="#f2beb7"/>
    </g>
    <g id="Grupo_101423" data-name="Grupo 101423" transform="translate(1631.999 591.084)">
      <path id="Trazado_162632" data-name="Trazado 162632" d="M2027.048,908.734a.949.949,0,0,0-.169,1.016.008.008,0,0,0,0,.005,6.312,6.312,0,0,0,1.995,2.188c.12.1.227.186.32.267l.072.065.055.05c.877.808.547.993,2.122,2.633,1.8,1.869,3.032,1.9,3.384,1.732.3-.145-.307-1.136-.977-2.25l-.1-.162c-.089-.148-.178-.3-.266-.447-.785-1.34-.584-1.97-.4-3.965.151-1.621,2.522-9.057,2.522-9.057l-3.442-.593s-1.036,5.921-2.178,6.833c-.611.486-1.294.492-1.881.853l-.122.077A4.514,4.514,0,0,0,2027.048,908.734Z" transform="translate(-2004.092 -833.298)" fill="#f2beb7"/>
      <path id="Trazado_162633" data-name="Trazado 162633" d="M2027.048,936.553a.949.949,0,0,0-.169,1.016.008.008,0,0,0,0,0,7.312,7.312,0,0,0,2,2.181c.119.1.224.189.317.274l.072.065.055.05c.877.808.547.993,2.122,2.633,1.8,1.869,3.032,1.9,3.384,1.732.3-.145-.307-1.136-.977-2.25a7.651,7.651,0,0,1-3.2-2.359c-1.081-1.38-1.8-3.153-2.539-4.18-.041.025-.082.051-.122.077A4.521,4.521,0,0,0,2027.048,936.553Z" transform="translate(-2004.092 -861.117)" fill="#293d23"/>
      <path id="Trazado_162634" data-name="Trazado 162634" d="M2146.169,902.793c.213,1.062,1.727.885,3.419.472s1.29.078,3.7-.188,3.137-1.164,3.211-1.522c.065-.318-1.125-.43-2.4-.577-.16-.018-.322-.038-.483-.058-1.441-.181-2.5-1.11-3.8-1.874-1.24-.723-3.09-3.67-3.09-3.67l-3.3.261s1.733,2.632,2.4,3.776a3.99,3.99,0,0,1,.324,2.25A4.23,4.23,0,0,0,2146.169,902.793Z" transform="translate(-2095.462 -829.506)" fill="#f2beb7"/>
      <path id="Trazado_162635" data-name="Trazado 162635" d="M2159.369,923.541c1.692-.413,1.29.078,3.7-.188s3.137-1.164,3.211-1.523c.065-.317-1.124-.43-2.4-.577l-.012.025a6.792,6.792,0,0,1-3.448,1.072c-1.633.04-3.364-.428-4.492-.41a4.251,4.251,0,0,0,.025,1.13C2156.163,924.131,2157.677,923.954,2159.369,923.541Z" transform="translate(-2105.243 -849.783)" fill="#293d23"/>
      <path id="Trazado_162636" data-name="Trazado 162636" d="M2056.668,812.941l-3.086,8.306-4.031,10.846a6.531,6.531,0,0,1-2.141-.2,9.287,9.287,0,0,1-2.07-1.008s1.119-11.645,3.207-18.33a11.892,11.892,0,0,1,1.8-3.885C2053.578,804.85,2056.668,812.941,2056.668,812.941Z" transform="translate(-2018.616 -760.769)" fill="#293d23"/>
      <path id="Trazado_162637" data-name="Trazado 162637" d="M1975.1,765.155c-2.022-.652-7.79.185-13.584,1.32l-1.213-2-12.515-.977s-4.13,9.158-1.869,14.994a2.115,2.115,0,0,0,2.118,1.426h.183s7.448,0,9.867,0c6.224,0,13.172-4.278,14.071-4.458,1.471-.294,2.06,2.648,3.531,5.737s13.829,13.682,13.829,13.682a10.868,10.868,0,0,0,2.684-.275,2.641,2.641,0,0,0,1.152-.727S1979.66,766.626,1975.1,765.155Z" transform="translate(-1940.186 -726.175)" fill="#3b5d30"/>
      <path id="Trazado_162638" data-name="Trazado 162638" d="M1937.854,591.284a13.2,13.2,0,0,0-4.552.037c-4.762.469-6.362,5.781-5.642,9.9.665,3.8-1.264,4.856-3.5,7.86-4.483,6.023-1.553,11.1,1.984,12.412,2.122.786,5.069-1.2,5.069-1.2.053.021,9.259-6.031,13.032-9.443C1950.531,608.4,1942.323,592.434,1937.854,591.284Z" transform="translate(-1921.884 -591.084)" fill="#4a190c"/>
      <path id="Trazado_162639" data-name="Trazado 162639" d="M1975.669,651.323c.125.441-1.958,1.251-3.548.953-1.5-.279-3.172-2.03-2.827-2.195.573-.272.958-.948.645-4.606l.285.032,4.786.546s.014,1.491.126,2.887A9.445,9.445,0,0,0,1975.669,651.323Z" transform="translate(-1958.996 -633.701)" fill="#f2beb7"/>
      <path id="Trazado_162640" data-name="Trazado 162640" d="M1978.539,646.17s.015,1.491.126,2.888c-2.641.142-4.232-2.148-4.912-3.434Z" transform="translate(-1962.525 -633.818)" fill="#eda8a2"/>
      <path id="Trazado_162641" data-name="Trazado 162641" d="M1975.421,616.387s-6.227.614-6.55-3.27-1.344-6.42,2.618-6.976,4.858.862,5.281,2.132S1977.033,616.127,1975.421,616.387Z" transform="translate(-1958.419 -602.784)" fill="#f2beb7"/>
      <path id="Trazado_162642" data-name="Trazado 162642" d="M1968.067,601.533s-.784,4.744-4.331,5.87c-2.587.821-3.759.28-3.759.28a10.543,10.543,0,0,0,1.688-3.948,1.9,1.9,0,0,1,1.267-1.449C1964.77,601.682,1967,600.029,1968.067,601.533Z" transform="translate(-1951.731 -598.789)" fill="#4a190c"/>
      <path id="Trazado_162643" data-name="Trazado 162643" d="M1991.926,604.5a4.119,4.119,0,0,1,2.213,1.776,7.946,7.946,0,0,1,1.114,3.837s1.09-4.391-.5-6.025C1993.069,602.353,1991.926,604.5,1991.926,604.5Z" transform="translate(-1976.764 -600.742)" fill="#4a190c"/>
      <path id="Trazado_162644" data-name="Trazado 162644" d="M1945.041,679.505c.111.472.206.906.283,1.306.127.646.214,1.2.275,1.694.19,1.532.133,2.439.262,3.432a8.535,8.535,0,0,0,.466,1.869c.258.711,7.024,1.345,10.874,1.09a5.28,5.28,0,0,0,2.485-.537c1.373-1.193,1.236,1.43,1.425-11.122.091-6.122-5.2-11.575-5.2-11.575s-.422,2.615-5.665-.5c-.187-.109-2.251,2.948-4.239,6.713C1943.822,676.036,1944.422,676.916,1945.041,679.505Z" transform="translate(-1939.58 -649.126)" fill="#ee816f"/>
      <path id="Trazado_162645" data-name="Trazado 162645" d="M2053.582,839.026l-4.031,10.846a6.533,6.533,0,0,1-2.141-.2,9.285,9.285,0,0,1-2.07-1.008s1.119-11.645,3.207-18.33Z" transform="translate(-2018.616 -778.548)" fill="#293d23"/>
      <path id="Trazado_162646" data-name="Trazado 162646" d="M1997.347,667.467s5.394.915,6.028,3.237,5.01,15.312,5.01,15.312-3.391,1.157-4.658-.109-4.408-11.754-4.408-11.754Z" transform="translate(-1981.012 -650.933)" fill="#ee816f"/>
      <path id="Trazado_162647" data-name="Trazado 162647" d="M1993.79,642.88a1.07,1.07,0,0,0,.95.639c.689,0,.875-.1,1.006-.249a2.155,2.155,0,0,0,.26-.427A5.855,5.855,0,0,0,1993.79,642.88Z" transform="translate(-1978.225 -631.568)" fill="#fff"/>
      <path id="Trazado_162648" data-name="Trazado 162648" d="M1949.693,744.015c.19,1.532.133,2.439.261,3.432,4.9.016,11.447-3.782,11.447-3.782Z" transform="translate(-1943.674 -710.636)" fill="#eb594c"/>
      <path id="Trazado_162649" data-name="Trazado 162649" d="M1960.662,706.125s-7.631-.227-8.917-4.564c-1.413-4.765-3,1.959-3,1.959l.842,4.292h8.372Z" transform="translate(-1942.934 -676.309)" fill="#eb594c"/>
      <g id="Grupo_101422" data-name="Grupo 101422" transform="translate(20.325 15.215)">
        <path id="Trazado_162650" data-name="Trazado 162650" d="M2026.484,664.2l-.412-1.021a2.9,2.9,0,0,0-2.686-1.812h-7.606V686.8h31.466V666.2H2029.44A3.187,3.187,0,0,1,2026.484,664.2Z" transform="translate(-2015.78 -661.371)" fill="#71b463"/>
        <g id="Grupo_101421" data-name="Grupo 101421" transform="translate(4.746 8.624)">
          <path id="Trazado_162651" data-name="Trazado 162651" d="M2037.706,715.987v-1.833l6.43-2.816v1.873l-4.49,1.847,4.49,1.846v1.9Z" transform="translate(-2037.706 -709.145)" fill="#fff"/>
          <path id="Trazado_162652" data-name="Trazado 162652" d="M2076.978,701.21h1.714l-5.886,12.3h-1.714Z" transform="translate(-2063.865 -701.21)" fill="#fff"/>
          <path id="Trazado_162653" data-name="Trazado 162653" d="M2115.941,714.153v1.833l-6.43,2.816V716.93l4.49-1.847-4.49-1.847v-1.9Z" transform="translate(-2093.968 -709.145)" fill="#fff"/>
        </g>
      </g>
      <path id="Trazado_162654" data-name="Trazado 162654" d="M2003.775,723.9l.552-.867a4.434,4.434,0,0,0,1.05-.573c.729-.512.633-1.278,1-1.2l0,1.685-.039.006c1.564.417,3.392-.036,3.429.353.1,1.071-.728,1.553-1.422,1.889a2.516,2.516,0,0,1-2.094.343c-.7-.218-1.806-.44-1.806-.44Z" transform="translate(-1986.048 -693.083)" fill="#f2beb7"/>
      <path id="Trazado_162655" data-name="Trazado 162655" d="M1940.5,665.178s-4.953.324-6.191,2.256-2.774,11.74-2.13,15.108,16.506-.644,16.506-.644l-.506-2.923s-9.154.053-9.676-1.139C1937.812,676.251,1940.5,665.178,1940.5,665.178Z" transform="translate(-1929.834 -649.139)" fill="#ee816f"/>
      <path id="Trazado_162656" data-name="Trazado 162656" d="M2081.622,680.186a1.843,1.843,0,0,0,1.869,1.2c.7-.141,1.613-1.651.812-1.984A2.278,2.278,0,0,0,2081.622,680.186Z" transform="translate(-2047.043 -660.156)" fill="#f2beb7"/>
    </g>
    <g id="Grupo_101429" data-name="Grupo 101429" transform="translate(1704.479 644.666)">
      <g id="Grupo_101424" data-name="Grupo 101424" transform="translate(10.359 0.022)">
        <rect id="Rectángulo_24566" data-name="Rectángulo 24566" width="39.065" height="0.189" transform="matrix(0.471, -0.882, 0.882, 0.471, 0, 34.462)" fill="#3b5d30"/>
      </g>
      <g id="Grupo_101425" data-name="Grupo 101425" transform="translate(75.443 0)">
        <rect id="Rectángulo_24567" data-name="Rectángulo 24567" width="0.189" height="30.42" transform="translate(0 0.128) rotate(-42.827)" fill="#3b5d30"/>
      </g>
      <g id="Grupo_101428" data-name="Grupo 101428" transform="translate(0 21.779)">
        <path id="Trazado_162657" data-name="Trazado 162657" d="M2365.756,946.334a8.276,8.276,0,0,1-1.543,6.06,7.891,7.891,0,0,1-5.277,3.156l-92.455,12.7a8.465,8.465,0,0,1-9.7-6.947,7.96,7.96,0,0,1,1.732-6.084,8.876,8.876,0,0,1,5.731-3.219l92.455-12.7A8.131,8.131,0,0,1,2365.756,946.334Z" transform="translate(-2256.713 -939.227)" fill="#fff"/>
        <path id="Trazado_162658" data-name="Trazado 162658" d="M2667.128,946.334a8.276,8.276,0,0,1-1.543,6.06,7.89,7.89,0,0,1-5.276,3.156l-16.73,2.3-2.233-16.25,16.73-2.3A8.131,8.131,0,0,1,2667.128,946.334Z" transform="translate(-2558.086 -939.227)" fill="#3b5d30"/>
        <g id="Grupo_101427" data-name="Grupo 101427" transform="translate(89.865 3.197)">
          <g id="Grupo_101426" data-name="Grupo 101426" transform="translate(4.239)">
            <path id="Trazado_162659" data-name="Trazado 162659" d="M2696.2,962.316a4.181,4.181,0,0,1-3.5-7.13h0a4.18,4.18,0,1,1,3.5,7.13Zm-3.018-6.638a3.491,3.491,0,1,0,4.937.057,3.5,3.5,0,0,0-4.937-.057Z" transform="translate(-2691.44 -953.997)" fill="#fff"/>
          </g>
          <rect id="Rectángulo_24568" data-name="Rectángulo 24568" width="0.688" height="5.704" transform="matrix(0.699, 0.715, -0.715, 0.699, 5.432, 6.612)" fill="#fff"/>
          <path id="Trazado_162660" data-name="Trazado 162660" d="M2672.034,998.221h0a.615.615,0,0,1,.01-.869l2.4-2.348a.615.615,0,0,1,.869.01h0a.614.614,0,0,1-.01.869l-2.4,2.348A.615.615,0,0,1,2672.034,998.221Z" transform="translate(-2671.859 -985.99)" fill="#fff"/>
        </g>
      </g>
    </g>
    <g id="Grupo_101432" data-name="Grupo 101432" transform="translate(1638.219 760.088)">
      <rect id="Rectángulo_24569" data-name="Rectángulo 24569" width="20.772" height="1.762" rx="0.881" transform="translate(0)" fill="#ee816f"/>
      <g id="Grupo_101431" data-name="Grupo 101431" transform="translate(0 4.097)">
        <path id="Trazado_162661" data-name="Trazado 162661" d="M1960.749,1403.608h-9.531a.6.6,0,0,1-.6-.6h0a.6.6,0,0,1,.6-.6h9.531a.6.6,0,0,1,.6.6h0A.6.6,0,0,1,1960.749,1403.608Z" transform="translate(-1950.617 -1399.883)" fill="#3b5d30"/>
        <g id="Grupo_101430" data-name="Grupo 101430">
          <path id="Rectángulo_24570" data-name="Rectángulo 24570" d="M.6,0H17.388a.6.6,0,0,1,.6.6v0a.6.6,0,0,1-.6.6H.6A.6.6,0,0,1,0,.6v0A.6.6,0,0,1,.6,0Z" fill="#3b5d30"/>
          <rect id="Rectángulo_24571" data-name="Rectángulo 24571" width="16.798" height="1.203" rx="0.601" transform="translate(19.629)" fill="#3b5d30"/>
          <path id="Trazado_162662" data-name="Trazado 162662" d="M2015.665,1403.608h-9.531a.6.6,0,0,1-.6-.6h0a.6.6,0,0,1,.6-.6h9.531a.6.6,0,0,1,.6.6h0A.6.6,0,0,1,2015.665,1403.608Z" transform="translate(-1993.645 -1399.883)" fill="#3b5d30"/>
        </g>
      </g>
      <path id="Rectángulo_24572" data-name="Rectángulo 24572" d="M.881,0h19.01a.881.881,0,0,1,.881.881v0a.881.881,0,0,1-.881.881H.881A.881.881,0,0,1,0,.881v0A.881.881,0,0,1,.881,0Z" transform="translate(23.521)" fill="#ee816f"/>
    </g>
    <g id="Grupo_101435" data-name="Grupo 101435" transform="translate(1638.219 773.358)">
      <path id="Rectángulo_24573" data-name="Rectángulo 24573" d="M.881,0h19.01a.881.881,0,0,1,.881.881v0a.881.881,0,0,1-.881.881H.881A.881.881,0,0,1,0,.881v0A.881.881,0,0,1,.881,0Z" transform="translate(0 0)" fill="#ee816f"/>
      <g id="Grupo_101434" data-name="Grupo 101434" transform="translate(0 4.097)">
        <path id="Trazado_162663" data-name="Trazado 162663" d="M1960.749,1464.906h-9.531a.6.6,0,0,1-.6-.6h0a.6.6,0,0,1,.6-.6h9.531a.6.6,0,0,1,.6.6h0A.6.6,0,0,1,1960.749,1464.906Z" transform="translate(-1950.617 -1461.181)" fill="#3b5d30"/>
        <g id="Grupo_101433" data-name="Grupo 101433">
          <path id="Rectángulo_24574" data-name="Rectángulo 24574" d="M.6,0H17.388a.6.6,0,0,1,.6.6v0a.6.6,0,0,1-.6.6H.6A.6.6,0,0,1,0,.6v0A.6.6,0,0,1,.6,0Z" fill="#3b5d30"/>
          <path id="Rectángulo_24575" data-name="Rectángulo 24575" d="M.6,0H16.2a.6.6,0,0,1,.6.6v0a.6.6,0,0,1-.6.6H.6A.6.6,0,0,1,0,.6v0A.6.6,0,0,1,.6,0Z" transform="translate(19.629)" fill="#3b5d30"/>
          <path id="Trazado_162664" data-name="Trazado 162664" d="M2015.665,1464.906h-9.531a.6.6,0,0,1-.6-.6h0a.6.6,0,0,1,.6-.6h9.531a.6.6,0,0,1,.6.6h0A.6.6,0,0,1,2015.665,1464.906Z" transform="translate(-1993.645 -1461.181)" fill="#3b5d30"/>
        </g>
      </g>
      <path id="Rectángulo_24576" data-name="Rectángulo 24576" d="M.881,0h19.01a.881.881,0,0,1,.881.881v0a.881.881,0,0,1-.881.881H.881A.881.881,0,0,1,0,.881v0A.881.881,0,0,1,.881,0Z" transform="translate(23.521 0)" fill="#ee816f"/>
    </g>
    <g id="Grupo_101436" data-name="Grupo 101436" transform="translate(1738.011 684.344)">
      <path id="Trazado_162665" data-name="Trazado 162665" d="M2432.275,1032.038l-11.031,2.567-5.455,9.926-4.165-22.622Z" transform="translate(-2411.624 -1021.909)" fill="#293d23"/>
      <rect id="Rectángulo_24577" data-name="Rectángulo 24577" width="2.017" height="11.667" transform="translate(7.411 11.734) rotate(-37.154)" fill="#293d23"/>
    </g>
    <g id="Grupo_101438" data-name="Grupo 101438" transform="translate(1722.327 710.13)">
      <path id="Rectángulo_24578" data-name="Rectángulo 24578" d="M9.183,0H21.919A9.184,9.184,0,0,1,31.1,9.184V21.919A9.183,9.183,0,0,1,21.919,31.1H9.183A9.183,9.183,0,0,1,0,21.919V9.183A9.183,9.183,0,0,1,9.183,0Z" transform="translate(0 0)" fill="#e0f7e0"/>
      <g id="Grupo_101437" data-name="Grupo 101437" transform="translate(3.721 6.231)">
        <path id="Trazado_162666" data-name="Trazado 162666" d="M2356.611,1211.517l6.043-10.9a1.988,1.988,0,0,1,3.342-.211l3.486,4.755a1.988,1.988,0,0,0,3.07.166h0a1.988,1.988,0,0,1,3.135.261l3.762,5.808a1.988,1.988,0,0,1-1.669,3.069h-19.431A1.988,1.988,0,0,1,2356.611,1211.517Z" transform="translate(-2356.358 -1193.151)" fill="#3b5d30"/>
        <path id="Trazado_162667" data-name="Trazado 162667" d="M2412.623,1172.2a2.377,2.377,0,1,1,2.377,2.377A2.377,2.377,0,0,1,2412.623,1172.2Z" transform="translate(-2400.444 -1169.819)" fill="#3b5d30"/>
      </g>
    </g>
    <g id="Grupo_101440" data-name="Grupo 101440" transform="translate(1758.43 711.234)">
      <path id="Trazado_162668" data-name="Trazado 162668" d="M2538.751,1176.97l-26.877,3.666a1.987,1.987,0,0,1-2.238-1.7l-3.666-26.877a1.988,1.988,0,0,1,1.7-2.238l26.878-3.667a1.988,1.988,0,0,1,2.238,1.7l3.666,26.878A1.988,1.988,0,0,1,2538.751,1176.97Z" transform="translate(-2505.951 -1146.135)" fill="#e0f7e0"/>
      <g id="Grupo_101439" data-name="Grupo 101439" transform="translate(6.873 7.635)">
        <path id="Trazado_162669" data-name="Trazado 162669" d="M2537.841,1227.881l4.516-11.613a1.988,1.988,0,0,1,3.282-.661l4.1,4.24a1.988,1.988,0,0,0,3.064-.25h0a1.988,1.988,0,0,1,3.142-.165l4.512,5.246a1.988,1.988,0,0,1-1.238,3.266l-19.253,2.626A1.988,1.988,0,0,1,2537.841,1227.881Z" transform="translate(-2537.704 -1207.728)" fill="#3b5d30"/>
        <path id="Trazado_162670" data-name="Trazado 162670" d="M2582.871,1184.107a2.377,2.377,0,1,1,2.677,2.034A2.378,2.378,0,0,1,2582.871,1184.107Z" transform="translate(-2573.077 -1181.408)" fill="#3b5d30"/>
      </g>
    </g>
    <g id="Grupo_101441" data-name="Grupo 101441" transform="translate(1695.894 837.578)">
      <rect id="Rectángulo_24579" data-name="Rectángulo 24579" width="15.674" height="13.439" transform="translate(0.633 0.575)" fill="#ee816f"/>
      <rect id="Rectángulo_24580" data-name="Rectángulo 24580" width="16.838" height="1.038" fill="#9cc995"/>
      <rect id="Rectángulo_24581" data-name="Rectángulo 24581" width="15.674" height="4.269" transform="translate(0.633 4.211)" fill="#9cc995"/>
    </g>
    <path id="Trazado_162671" data-name="Trazado 162671" d="M2323.365,1781.544h-14.8a.981.981,0,0,1-.981-.981v-1.642a.981.981,0,0,1,1.089-.975l14.8,1.641a.981.981,0,0,1,.873.975h0A.981.981,0,0,1,2323.365,1781.544Z" transform="translate(-592.094 -929.941)" fill="#ee816f"/>
    <path id="Trazado_162672" data-name="Trazado 162672" d="M1913.043,1795.669l-331.081-.114a.463.463,0,0,1-.4-.5v-.257a.462.462,0,0,1,.4-.5l331.081.114a.462.462,0,0,1,.4.5v.257A.463.463,0,0,1,1913.043,1795.669Z" transform="translate(-23.228 -942.754)" fill="#293d23"/>
    <g id="Grupo_101442" data-name="Grupo 101442" transform="translate(1643.157 704.315)">
      <path id="Trazado_162673" data-name="Trazado 162673" d="M2035.688,1152.311h-1.706a.28.28,0,1,1,0-.561h1.694a.285.285,0,0,1,.286.28A.275.275,0,0,1,2035.688,1152.311Zm-3.4,0h-1.694a.28.28,0,0,1,0-.561h1.694a.28.28,0,1,1,0,.561Zm-3.388,0h-1.695a.28.28,0,0,1,0-.561h1.695a.28.28,0,0,1,0,.561Zm-3.389,0h-1.694a.28.28,0,1,1,0-.561h1.694a.28.28,0,1,1,0,.561Zm-3.388,0h-1.694a.28.28,0,1,1,0-.561h1.694a.28.28,0,1,1,0,.561Zm-3.388,0h-1.694a.28.28,0,1,1,0-.561h1.694a.28.28,0,1,1,0,.561Zm-3.388,0h-1.694a.28.28,0,0,1,0-.561h1.694a.28.28,0,0,1,0,.561Zm-3.388,0h-1.694a.28.28,0,0,1,0-.561h1.694a.28.28,0,1,1,0,.561Zm-3.388,0h-1.694a.28.28,0,1,1,0-.561h1.694a.28.28,0,1,1,0,.561Zm-3.388,0h-1.694a.28.28,0,1,1,0-.561h1.694a.28.28,0,0,1,0,.561Zm-3.388,0H2000.1a.28.28,0,1,1,0-.561h1.694a.28.28,0,0,1,0,.561Zm-3.388,0h-1.694a.28.28,0,0,1,0-.561h1.694a.28.28,0,0,1,0,.561Zm-3.388,0h-1.694a.28.28,0,1,1,0-.561h1.694a.28.28,0,0,1,0,.561Zm-3.388,0h-1.694a.28.28,0,1,1,0-.561h1.694a.28.28,0,1,1,0,.561Zm-3.388,0h-1.694a.28.28,0,0,1,0-.561h1.694a.28.28,0,1,1,0,.561Zm-3.388,0h-1.694a.28.28,0,0,1,0-.561h1.694a.28.28,0,1,1,0,.561Zm-3.388,0h-1.694a.28.28,0,0,1,0-.561h1.694a.28.28,0,0,1,0,.561Zm-3.388,0h-1.51q-.1,0-.2-.006a.28.28,0,1,1,.035-.56c.055,0,.11.005.166.005h1.51a.28.28,0,1,1,0,.561Zm59.2-.493a.28.28,0,0,1-.158-.512,2.577,2.577,0,0,0,.946-1.172.28.28,0,0,1,.52.209,3.137,3.137,0,0,1-1.151,1.426A.279.279,0,0,1,2037.283,1151.818Zm-62.46-.1a.279.279,0,0,1-.171-.059,3.131,3.131,0,0,1-1.063-1.492.28.28,0,1,1,.532-.178,2.571,2.571,0,0,0,.874,1.226.28.28,0,0,1-.171.5Zm63.715-2.865a.281.281,0,0,1-.281-.28v-1.694a.281.281,0,0,1,.561,0v1.694A.281.281,0,0,1,2038.538,1148.852Zm-64.83-.172a.281.281,0,0,1-.281-.281V1146.7a.28.28,0,1,1,.561,0v1.694A.28.28,0,0,1,1973.708,1148.679Zm64.83-3.216a.281.281,0,0,1-.281-.281v-1.694a.281.281,0,0,1,.561,0v1.694A.281.281,0,0,1,2038.538,1145.463Zm-64.83-.172a.28.28,0,0,1-.281-.281v-1.694a.28.28,0,1,1,.561,0v1.694A.28.28,0,0,1,1973.708,1145.291Zm64.83-3.216a.281.281,0,0,1-.281-.28V1140.1a.281.281,0,0,1,.561,0v1.694A.281.281,0,0,1,2038.538,1142.075Zm-64.83-.172a.28.28,0,0,1-.281-.28v-1.694a.28.28,0,1,1,.561,0v1.694A.28.28,0,0,1,1973.708,1141.9Zm64.83-3.216a.281.281,0,0,1-.281-.28v-1.694a.281.281,0,0,1,.561,0v1.694A.28.28,0,0,1,2038.538,1138.687Zm-64.83-.172a.28.28,0,0,1-.281-.28v-1.694a.28.28,0,1,1,.561,0v1.694A.28.28,0,0,1,1973.708,1138.515Zm64.83-3.216a.281.281,0,0,1-.281-.28v-1.694a.281.281,0,0,1,.561,0v1.694A.28.28,0,0,1,2038.538,1135.3Zm-64.83-.172a.28.28,0,0,1-.281-.28v-1.694a.28.28,0,1,1,.561,0v1.694A.28.28,0,0,1,1973.708,1135.127Zm64.83-3.216a.281.281,0,0,1-.281-.281v-1.694a.281.281,0,0,1,.561,0v1.694A.281.281,0,0,1,2038.538,1131.911Zm-64.83-.172a.281.281,0,0,1-.281-.281v-1.694a.28.28,0,1,1,.561,0v1.694A.28.28,0,0,1,1973.708,1131.739Zm64.83-3.216a.281.281,0,0,1-.281-.281v-1.694a.281.281,0,0,1,.561,0v1.694A.281.281,0,0,1,2038.538,1128.523Zm-64.83-.172a.281.281,0,0,1-.281-.281v-1.694a.28.28,0,1,1,.561,0v1.694A.281.281,0,0,1,1973.708,1128.351Zm64.83-3.216a.281.281,0,0,1-.281-.281v-1.694a.281.281,0,0,1,.561,0v1.694A.281.281,0,0,1,2038.538,1125.135Zm-64.83-.172a.28.28,0,0,1-.281-.28v-1.694a.28.28,0,1,1,.561,0v1.694A.28.28,0,0,1,1973.708,1124.962Zm64.83-3.216a.281.281,0,0,1-.281-.281v-1.694a.281.281,0,0,1,.561,0v1.694A.281.281,0,0,1,2038.538,1121.747Zm-64.83-.172a.281.281,0,0,1-.281-.281V1119.6a.28.28,0,1,1,.561,0v1.694A.281.281,0,0,1,1973.708,1121.574Zm64.83-3.216a.281.281,0,0,1-.281-.281v-.765a2.59,2.59,0,0,0-.134-.824.28.28,0,1,1,.531-.179,3.131,3.131,0,0,1,.164,1v.765A.281.281,0,0,1,2038.538,1118.358Zm-64.83-.172a.281.281,0,0,1-.281-.281v-.592a3.124,3.124,0,0,1,.229-1.18.28.28,0,1,1,.52.211,2.573,2.573,0,0,0-.188.969v.592A.28.28,0,0,1,1973.708,1118.186Zm63.71-2.863a.279.279,0,0,1-.171-.058,2.561,2.561,0,0,0-1.409-.527.28.28,0,0,1,.034-.56,3.119,3.119,0,0,1,1.716.642.28.28,0,0,1-.171.5Zm-62.449-.1a.28.28,0,0,1-.157-.513,3.124,3.124,0,0,1,1.751-.538h0a.28.28,0,0,1,0,.561,2.568,2.568,0,0,0-1.439.441A.28.28,0,0,1,1974.968,1115.223Zm59.193-.49h-1.694a.28.28,0,1,1,0-.561h1.694a.28.28,0,1,1,0,.561Zm-3.388,0h-1.694a.28.28,0,0,1,0-.561h1.694a.28.28,0,1,1,0,.561Zm-3.388,0h-1.694a.28.28,0,0,1,0-.561h1.694a.28.28,0,1,1,0,.561Zm-3.388,0H2022.3a.28.28,0,0,1,0-.561H2024a.28.28,0,0,1,0,.561Zm-3.388,0h-1.694a.28.28,0,1,1,0-.561h1.694a.28.28,0,1,1,0,.561Zm-3.388,0h-1.694a.28.28,0,1,1,0-.561h1.694a.28.28,0,0,1,0,.561Zm-3.388,0h-1.694a.28.28,0,1,1,0-.561h1.694a.28.28,0,0,1,0,.561Zm-3.388,0h-1.694a.28.28,0,0,1,0-.561h1.694a.28.28,0,0,1,0,.561Zm-3.388,0h-1.694a.28.28,0,1,1,0-.561h1.694a.28.28,0,0,1,0,.561Zm-3.388,0h-1.694a.28.28,0,1,1,0-.561h1.694a.28.28,0,1,1,0,.561Zm-3.388,0h-1.694a.28.28,0,0,1,0-.561h1.694a.28.28,0,1,1,0,.561Zm-3.388,0H1995.2a.28.28,0,1,1,0-.561h1.694a.28.28,0,0,1,0,.561Zm-3.388,0h-1.694a.28.28,0,0,1,0-.561h1.694a.28.28,0,0,1,0,.561Zm-3.388,0h-1.694a.28.28,0,1,1,0-.561h1.694a.28.28,0,1,1,0,.561Zm-3.388,0h-1.694a.28.28,0,1,1,0-.561h1.694a.28.28,0,1,1,0,.561Zm-3.388,0h-1.694a.28.28,0,0,1,0-.561h1.694a.28.28,0,0,1,0,.561Zm-3.388,0h-1.694a.28.28,0,0,1,0-.561h1.694a.28.28,0,0,1,0,.561Z" transform="translate(-1973.427 -1114.172)" fill="#3b5d30"/>
    </g>
    <g id="Grupo_101443" data-name="Grupo 101443" transform="translate(1772.014 779.533)">
      <path id="Trazado_162674" data-name="Trazado 162674" d="M2598.406,1471.586h-1.512a.248.248,0,1,1,0-.5h1.5a.253.253,0,0,1,.254.248A.244.244,0,0,1,2598.406,1471.586Zm-3.012,0h-1.5a.248.248,0,1,1,0-.5h1.5a.248.248,0,0,1,0,.5Zm-3,0h-1.5a.248.248,0,1,1,0-.5h1.5a.248.248,0,1,1,0,.5Zm-3,0h-1.5a.248.248,0,0,1,0-.5h1.5a.248.248,0,1,1,0,.5Zm-3,0h-1.5a.248.248,0,1,1,0-.5h1.5a.248.248,0,1,1,0,.5Zm-3,0h-1.5a.248.248,0,1,1,0-.5h1.5a.248.248,0,1,1,0,.5Zm-3,0h-1.5a.248.248,0,1,1,0-.5h1.5a.248.248,0,1,1,0,.5Zm-3,0h-1.5a.248.248,0,1,1,0-.5h1.5a.248.248,0,1,1,0,.5Zm-3,0h-1.5a.248.248,0,1,1,0-.5h1.5a.248.248,0,1,1,0,.5Zm-3,0h-1.513a.249.249,0,0,1,.025-.5h1.488a.248.248,0,1,1,0,.5Zm27.995-.951h-.008a.249.249,0,0,1-.24-.256v-1.493a.248.248,0,1,1,.5,0v1.509A.248.248,0,0,1,2599.376,1470.636Zm-30.426-.04a.248.248,0,0,1-.249-.248v-1.5a.248.248,0,0,1,.5,0v1.5A.248.248,0,0,1,2568.95,1470.6Zm30.426-2.961a.249.249,0,0,1-.249-.249v-1.5a.248.248,0,1,1,.5,0v1.5A.248.248,0,0,1,2599.377,1467.634Zm-30.426-.04a.248.248,0,0,1-.249-.248v-1.5a.248.248,0,1,1,.5,0v1.5A.248.248,0,0,1,2568.95,1467.594Zm30.426-2.961a.249.249,0,0,1-.249-.249v-1.5a.248.248,0,1,1,.5,0v1.5A.248.248,0,0,1,2599.377,1464.633Zm-30.426-.04a.248.248,0,0,1-.249-.248v-1.464c0-.016,0-.031,0-.047a.244.244,0,0,1,.258-.238.249.249,0,0,1,.238.258v1.491A.248.248,0,0,1,2568.95,1464.592Zm29.49-2.445h-1.5a.248.248,0,1,1,0-.5h1.512a.248.248,0,0,1-.011.5Zm-3,0h-1.5a.248.248,0,0,1,0-.5h1.5a.248.248,0,1,1,0,.5Zm-3,0h-1.5a.248.248,0,1,1,0-.5h1.5a.248.248,0,1,1,0,.5Zm-3,0h-1.5a.248.248,0,1,1,0-.5h1.5a.248.248,0,1,1,0,.5Zm-3,0h-1.5a.248.248,0,1,1,0-.5h1.5a.248.248,0,1,1,0,.5Zm-3,0h-1.5a.248.248,0,1,1,0-.5h1.5a.248.248,0,1,1,0,.5Zm-3,0h-1.5a.248.248,0,1,1,0-.5h1.5a.248.248,0,1,1,0,.5Zm-3,0h-1.5a.248.248,0,1,1,0-.5h1.5a.248.248,0,1,1,0,.5Zm-3,0h-1.5a.248.248,0,1,1,0-.5h1.5a.248.248,0,1,1,0,.5Zm-3,0h-1.5a.251.251,0,0,1-.251-.248.246.246,0,0,1,.245-.248h1.5a.248.248,0,1,1,0,.5Z" transform="translate(-2568.702 -1461.65)" fill="#3b5d30"/>
    </g>
    <g id="Grupo_101444" data-name="Grupo 101444" transform="translate(1670.317 676.96)">
      <path id="Trazado_162675" data-name="Trazado 162675" d="M2123.105,1010.752h-1.671a.281.281,0,0,1,0-.561h1.661a.285.285,0,0,1,.286.281A.276.276,0,0,1,2123.105,1010.752Zm-3.332,0h-1.661a.281.281,0,0,1,0-.561h1.661a.281.281,0,0,1,0,.561Zm-3.322,0h-1.66a.281.281,0,0,1,0-.561h1.66a.281.281,0,1,1,0,.561Zm-3.321,0h-1.66a.281.281,0,0,1,0-.561h1.66a.281.281,0,1,1,0,.561Zm-3.321,0h-1.661a.281.281,0,0,1,0-.561h1.661a.281.281,0,0,1,0,.561Zm-3.321,0h-1.661a.281.281,0,1,1,0-.561h1.661a.281.281,0,0,1,0,.561Zm-3.322,0h-1.661a.281.281,0,0,1,0-.561h1.661a.281.281,0,0,1,0,.561Zm-3.29-.179a.276.276,0,0,1-.138-.037,1.663,1.663,0,0,1-.842-1.445v-.2a.28.28,0,1,1,.561,0v.2a1.1,1.1,0,0,0,.558.957.28.28,0,0,1-.138.524Zm24.509-.715a.281.281,0,0,1-.262-.379,1.092,1.092,0,0,0,.07-.387v-1.164a.281.281,0,1,1,.561,0v1.164a1.652,1.652,0,0,1-.106.585A.28.28,0,0,1,2124.386,1009.858Zm-25.209-2.35a.28.28,0,0,1-.28-.281v-1.661a.28.28,0,1,1,.561,0v1.661A.281.281,0,0,1,2099.177,1007.508Zm25.3-.96a.281.281,0,0,1-.28-.281v-1.661a.281.281,0,1,1,.561,0v1.661A.281.281,0,0,1,2124.474,1006.547Zm-25.3-2.361a.28.28,0,0,1-.28-.281v-1.661a.28.28,0,1,1,.561,0v1.661A.281.281,0,0,1,2099.177,1004.187Zm25.3-.96a.28.28,0,0,1-.28-.281v-1.661a.281.281,0,1,1,.561,0v1.661A.281.281,0,0,1,2124.474,1003.226Zm-25.3-2.361a.28.28,0,0,1-.28-.281v-1.661a.28.28,0,1,1,.561,0v1.661A.28.28,0,0,1,2099.177,1000.865Zm25.3-.96a.28.28,0,0,1-.28-.28v-1.661a.281.281,0,1,1,.561,0v1.661A.281.281,0,0,1,2124.474,999.9Zm-25.3-2.361a.28.28,0,0,1-.28-.281V995.6a.28.28,0,1,1,.561,0v1.661A.28.28,0,0,1,2099.177,997.544Zm25.3-.96a.28.28,0,0,1-.28-.28v-1.661a.281.281,0,1,1,.561,0V996.3A.281.281,0,0,1,2124.474,996.583Zm-25.3-2.361a.28.28,0,0,1-.28-.281v-1.661a.28.28,0,1,1,.561,0v1.661A.281.281,0,0,1,2099.177,994.223Zm25.3-.96a.28.28,0,0,1-.28-.281v-1.661a.281.281,0,1,1,.561,0v1.661A.281.281,0,0,1,2124.474,993.262Zm-25.3-2.361a.28.28,0,0,1-.28-.28v-1.159a1.651,1.651,0,0,1,.108-.591.28.28,0,0,1,.524.2,1.091,1.091,0,0,0-.072.391v1.159A.28.28,0,0,1,2099.177,990.9Zm25.3-.96a.28.28,0,0,1-.28-.281v-.2a1.1,1.1,0,0,0-.562-.959.28.28,0,1,1,.275-.489,1.664,1.664,0,0,1,.848,1.448v.2A.281.281,0,0,1,2124.474,989.941Zm-2.334-1.578h-1.661a.28.28,0,0,1,0-.561h1.661a.28.28,0,1,1,0,.561Zm-3.321,0h-1.661a.28.28,0,1,1,0-.561h1.661a.28.28,0,0,1,0,.561Zm-3.321,0h-1.661a.28.28,0,0,1,0-.561h1.661a.28.28,0,0,1,0,.561Zm-3.321,0h-1.661a.28.28,0,0,1,0-.561h1.661a.28.28,0,0,1,0,.561Zm-3.322,0h-1.66a.28.28,0,1,1,0-.561h1.66a.28.28,0,1,1,0,.561Zm-3.321,0h-1.661a.28.28,0,0,1,0-.561h1.661a.28.28,0,1,1,0,.561Zm-3.321,0h-1.655a.283.283,0,0,1-.283-.281.278.278,0,0,1,.278-.28h1.661a.28.28,0,1,1,0,.561Z" transform="translate(-2098.897 -987.802)" fill="#3b5d30"/>
    </g>
    <g id="Grupo_101445" data-name="Grupo 101445" transform="translate(1772.014 793.383)">
      <path id="Trazado_162676" data-name="Trazado 162676" d="M2598.406,1535.569h-1.512a.248.248,0,0,1,0-.5h1.5a.253.253,0,0,1,.254.249A.244.244,0,0,1,2598.406,1535.569Zm-3.012,0h-1.5a.248.248,0,0,1,0-.5h1.5a.248.248,0,0,1,0,.5Zm-3,0h-1.5a.248.248,0,0,1,0-.5h1.5a.248.248,0,0,1,0,.5Zm-3,0h-1.5a.248.248,0,0,1,0-.5h1.5a.248.248,0,0,1,0,.5Zm-3,0h-1.5a.248.248,0,0,1,0-.5h1.5a.248.248,0,1,1,0,.5Zm-3,0h-1.5a.248.248,0,1,1,0-.5h1.5a.248.248,0,1,1,0,.5Zm-3,0h-1.5a.248.248,0,1,1,0-.5h1.5a.248.248,0,0,1,0,.5Zm-3,0h-1.5a.248.248,0,1,1,0-.5h1.5a.248.248,0,1,1,0,.5Zm-3,0h-1.5a.248.248,0,1,1,0-.5h1.5a.248.248,0,0,1,0,.5Zm-3,0h-1.513a.248.248,0,0,1-.236-.261.245.245,0,0,1,.26-.236h1.488a.248.248,0,0,1,0,.5Zm27.995-.951h-.008a.249.249,0,0,1-.24-.256v-1.493a.248.248,0,1,1,.5,0v1.508A.248.248,0,0,1,2599.376,1534.619Zm-30.426-.04a.248.248,0,0,1-.249-.248v-1.5a.248.248,0,1,1,.5,0v1.5A.248.248,0,0,1,2568.95,1534.578Zm30.426-2.961a.248.248,0,0,1-.249-.248v-1.5a.248.248,0,1,1,.5,0v1.5A.248.248,0,0,1,2599.377,1531.617Zm-30.426-.04a.248.248,0,0,1-.249-.248v-1.5a.248.248,0,0,1,.5,0v1.5A.248.248,0,0,1,2568.95,1531.577Zm30.426-2.961a.248.248,0,0,1-.249-.248v-1.5a.248.248,0,0,1,.5,0v1.5A.248.248,0,0,1,2599.377,1528.616Zm-30.426-.04a.248.248,0,0,1-.249-.248v-1.464c0-.016,0-.031,0-.047a.245.245,0,0,1,.258-.239.249.249,0,0,1,.238.259v1.491A.248.248,0,0,1,2568.95,1528.576Zm29.49-2.445h-1.5a.248.248,0,0,1,0-.5h1.512a.248.248,0,0,1-.011.5Zm-3,0h-1.5a.248.248,0,0,1,0-.5h1.5a.248.248,0,0,1,0,.5Zm-3,0h-1.5a.248.248,0,0,1,0-.5h1.5a.248.248,0,1,1,0,.5Zm-3,0h-1.5a.248.248,0,1,1,0-.5h1.5a.248.248,0,1,1,0,.5Zm-3,0h-1.5a.248.248,0,1,1,0-.5h1.5a.248.248,0,0,1,0,.5Zm-3,0h-1.5a.248.248,0,1,1,0-.5h1.5a.248.248,0,1,1,0,.5Zm-3,0h-1.5a.248.248,0,0,1,0-.5h1.5a.248.248,0,1,1,0,.5Zm-3,0h-1.5a.248.248,0,0,1,0-.5h1.5a.248.248,0,0,1,0,.5Zm-3,0h-1.5a.248.248,0,0,1,0-.5h1.5a.248.248,0,0,1,0,.5Zm-3,0h-1.5a.251.251,0,0,1-.251-.248.246.246,0,0,1,.245-.249h1.5a.248.248,0,0,1,0,.5Z" transform="translate(-2568.702 -1525.633)" fill="#3b5d30"/>
    </g>
    <g id="Grupo_101446" data-name="Grupo 101446" transform="translate(1634.672 754.81)">
      <path id="Trazado_162677" data-name="Trazado 162677" d="M1982.846,1385.516h-1.5a.248.248,0,1,1,0-.5h1.488a.253.253,0,0,1,.254.248A.244.244,0,0,1,1982.846,1385.516Zm-2.986,0h-1.488a.248.248,0,1,1,0-.5h1.488a.248.248,0,1,1,0,.5Zm-2.975,0H1975.4a.248.248,0,1,1,0-.5h1.488a.248.248,0,1,1,0,.5Zm-2.976,0h-1.488a.248.248,0,1,1,0-.5h1.488a.248.248,0,1,1,0,.5Zm-2.975,0h-1.488a.248.248,0,1,1,0-.5h1.488a.248.248,0,1,1,0,.5Zm-2.976,0h-1.488a.248.248,0,1,1,0-.5h1.488a.248.248,0,1,1,0,.5Zm-2.976,0h-1.488a.248.248,0,1,1,0-.5h1.488a.248.248,0,1,1,0,.5Zm-2.976,0h-1.488a.248.248,0,1,1,0-.5h1.488a.248.248,0,1,1,0,.5Zm-2.975,0h-1.488a.248.248,0,1,1,0-.5h1.488a.248.248,0,1,1,0,.5Zm-2.976,0h-1.488a.248.248,0,1,1,0-.5h1.488a.248.248,0,1,1,0,.5Zm-2.975,0h-1.488a.248.248,0,1,1,0-.5h1.488a.248.248,0,1,1,0,.5Zm-2.975,0h-1.488a.248.248,0,1,1,0-.5h1.488a.248.248,0,1,1,0,.5Zm-2.976,0h-1.488a.248.248,0,1,1,0-.5h1.488a.248.248,0,1,1,0,.5Zm-2.975,0h-1.488a.248.248,0,1,1,0-.5h1.488a.248.248,0,1,1,0,.5Zm-2.976,0h-1.488a.248.248,0,1,1,0-.5h1.488a.248.248,0,1,1,0,.5Zm-2.976,0h-1.187a2.821,2.821,0,0,1-.329-.019.248.248,0,0,1,.058-.493,2.279,2.279,0,0,0,.27.016h1.188a.248.248,0,1,1,0,.5Zm46.044-.429a.249.249,0,0,1-.139-.455,2.283,2.283,0,0,0,.839-1.023.248.248,0,1,1,.458.191,2.779,2.779,0,0,1-1.021,1.245A.247.247,0,0,1,1984.247,1385.087Zm-48.875-.175a.249.249,0,0,1-.161-.059,2.772,2.772,0,0,1-.872-1.353.248.248,0,1,1,.478-.137,2.28,2.28,0,0,0,.717,1.111.248.248,0,0,1-.161.438Zm50-2.421a.249.249,0,0,1-.249-.249v-1.488a.249.249,0,0,1,.5,0v1.488A.249.249,0,0,1,1985.37,1382.491Zm-50.89-.29a.248.248,0,0,1-.249-.248v-1.488a.249.249,0,0,1,.5,0v1.488A.248.248,0,0,1,1934.48,1382.2Zm50.89-2.685a.248.248,0,0,1-.249-.248v-1.488a.249.249,0,0,1,.5,0v1.488A.248.248,0,0,1,1985.37,1379.516Zm-50.89-.29a.248.248,0,0,1-.249-.248v-1.488a.249.249,0,0,1,.5,0v1.488A.248.248,0,0,1,1934.48,1379.226Zm50.89-2.685a.248.248,0,0,1-.249-.248V1374.8a.249.249,0,0,1,.5,0v1.488A.248.248,0,0,1,1985.37,1376.54Zm-50.89-.29a.249.249,0,0,1-.249-.248v-1.488a.249.249,0,0,1,.5,0V1376A.249.249,0,0,1,1934.48,1376.25Zm50.89-2.686a.249.249,0,0,1-.249-.248v-1.488a.249.249,0,0,1,.5,0v1.488A.249.249,0,0,1,1985.37,1373.565Zm-50.89-.29a.249.249,0,0,1-.249-.248v-1.488a.249.249,0,0,1,.5,0v1.488A.249.249,0,0,1,1934.48,1373.275Zm50.89-2.686a.249.249,0,0,1-.249-.248v-1.488a.249.249,0,0,1,.5,0v1.488A.249.249,0,0,1,1985.37,1370.589Zm-50.89-.29a.248.248,0,0,1-.249-.248v-1.488a.249.249,0,0,1,.5,0v1.488A.248.248,0,0,1,1934.48,1370.3Zm50.89-2.686a.248.248,0,0,1-.249-.248v-1.488a.249.249,0,0,1,.5,0v1.488A.248.248,0,0,1,1985.37,1367.614Zm-50.89-.29a.248.248,0,0,1-.249-.248v-1.488a.249.249,0,0,1,.5,0v1.488A.248.248,0,0,1,1934.48,1367.324Zm50.89-2.685a.249.249,0,0,1-.249-.249V1362.9a.249.249,0,0,1,.5,0v1.488A.249.249,0,0,1,1985.37,1364.638Zm-50.89-.29a.249.249,0,0,1-.249-.249v-1.488a.249.249,0,0,1,.5,0v1.488A.249.249,0,0,1,1934.48,1364.349Zm50.89-2.686a.249.249,0,0,1-.249-.248v-1.488a.249.249,0,0,1,.5,0v1.488A.249.249,0,0,1,1985.37,1361.663Zm-50.89-.29a.249.249,0,0,1-.249-.248v-1.488a.249.249,0,0,1,.5,0v1.488A.249.249,0,0,1,1934.48,1361.373Zm50.89-2.686a.249.249,0,0,1-.249-.248v-1.488a.249.249,0,0,1,.5,0v1.488A.249.249,0,0,1,1985.37,1358.687Zm-50.89-.29a.248.248,0,0,1-.249-.248v-1.488a.249.249,0,0,1,.5,0v1.488A.248.248,0,0,1,1934.48,1358.4Zm50.89-2.686a.248.248,0,0,1-.249-.248v-1.488a.249.249,0,0,1,.5,0v1.488A.248.248,0,0,1,1985.37,1355.712Zm-50.89-.29a.248.248,0,0,1-.249-.248v-1.487a.249.249,0,1,1,.5,0v1.487A.248.248,0,0,1,1934.48,1355.422Zm50.89-2.685a.249.249,0,0,1-.249-.249V1351a.249.249,0,0,1,.5,0v1.487A.249.249,0,0,1,1985.37,1352.736Zm-50.89-.29a.248.248,0,0,1-.249-.248v-1.488a.249.249,0,1,1,.5,0v1.488A.248.248,0,0,1,1934.48,1352.446Zm50.791-2.676a.249.249,0,0,1-.239-.18,2.279,2.279,0,0,0-.719-1.11.248.248,0,0,1,.322-.379,2.776,2.776,0,0,1,.875,1.351.248.248,0,0,1-.17.308A.243.243,0,0,1,1985.271,1349.77Zm-50.6-.273a.241.241,0,0,1-.1-.019.249.249,0,0,1-.134-.325,2.779,2.779,0,0,1,1.024-1.243.248.248,0,0,1,.276.413,2.285,2.285,0,0,0-.842,1.021A.248.248,0,0,1,1934.675,1349.5Zm48.455-1.541-.029,0a2.38,2.38,0,0,0-.266-.015h-1.193a.248.248,0,1,1,0-.5h1.193a2.843,2.843,0,0,1,.323.018.249.249,0,0,1-.028.5Zm-2.975-.017h-1.488a.248.248,0,1,1,0-.5h1.488a.248.248,0,1,1,0,.5Zm-2.976,0h-1.488a.248.248,0,1,1,0-.5h1.488a.248.248,0,1,1,0,.5Zm-2.976,0h-1.488a.248.248,0,0,1,0-.5h1.488a.248.248,0,1,1,0,.5Zm-2.975,0h-1.488a.248.248,0,0,1,0-.5h1.488a.248.248,0,0,1,0,.5Zm-2.976,0h-1.488a.248.248,0,1,1,0-.5h1.488a.248.248,0,1,1,0,.5Zm-2.976,0h-1.488a.248.248,0,0,1,0-.5h1.488a.248.248,0,1,1,0,.5Zm-2.976,0h-1.488a.248.248,0,0,1,0-.5h1.488a.248.248,0,1,1,0,.5Zm-2.975,0h-1.488a.248.248,0,1,1,0-.5h1.488a.248.248,0,0,1,0,.5Zm-2.976,0h-1.488a.248.248,0,0,1,0-.5h1.488a.248.248,0,0,1,0,.5Zm-2.976,0h-1.488a.248.248,0,0,1,0-.5h1.488a.248.248,0,1,1,0,.5Zm-2.976,0h-1.488a.248.248,0,0,1,0-.5h1.488a.248.248,0,1,1,0,.5Zm-2.975,0h-1.488a.248.248,0,0,1,0-.5h1.488a.248.248,0,0,1,0,.5Zm-2.976,0h-1.488a.248.248,0,1,1,0-.5h1.488a.248.248,0,0,1,0,.5Zm-2.976,0h-1.488a.248.248,0,1,1,0-.5h1.488a.248.248,0,0,1,0,.5Zm-2.976,0h-1.482a.251.251,0,0,1-.251-.249.246.246,0,0,1,.246-.248h1.488a.248.248,0,1,1,0,.5Z" transform="translate(-1934.232 -1347.442)" fill="#3b5d30"/>
    </g>
    <g id="Grupo_101448" data-name="Grupo 101448" transform="translate(1635.266 709.705)">
      <path id="Rectángulo_24582" data-name="Rectángulo 24582" d="M10.855,0H53.976A10.855,10.855,0,0,1,64.83,10.855V26.723A10.855,10.855,0,0,1,53.976,37.578H10.854A10.854,10.854,0,0,1,0,26.724V10.855A10.855,10.855,0,0,1,10.855,0Z" fill="#e0f7e0"/>
      <path id="Trazado_162678" data-name="Trazado 162678" d="M2052.926,1187.19V1202.1a1.171,1.171,0,0,0,1.815.979l11.329-7.454a1.171,1.171,0,0,0,0-1.957l-11.329-7.454A1.171,1.171,0,0,0,2052.926,1187.19Z" transform="translate(-2027.827 -1175.854)" fill="#ee816f"/>
      <g id="Grupo_101447" data-name="Grupo 101447" transform="translate(3.37 33.025)">
        <path id="Trazado_162679" data-name="Trazado 162679" d="M1952.544,1292.8a1.163,1.163,0,1,1,1.164,1.163A1.164,1.164,0,0,1,1952.544,1292.8Z" transform="translate(-1952.544 -1291.634)" fill="#3b5d30"/>
        <path id="Trazado_162680" data-name="Trazado 162680" d="M2010.858,1296.188h-52.625a.313.313,0,0,1-.313-.313h0a.313.313,0,0,1,.313-.313h52.625a.313.313,0,0,1,.313.313h0A.313.313,0,0,1,2010.858,1296.188Z" transform="translate(-1956.756 -1294.711)" fill="#3b5d30"/>
      </g>
    </g>
    <rect id="Rectángulo_24583" data-name="Rectángulo 24583" width="33.54" height="50.067" transform="translate(1695.894 755.059)" fill="#e0f7e0"/>
    <g id="Grupo_101454" data-name="Grupo 101454" transform="translate(1709.977 756.252)">
      <g id="Grupo_101450" data-name="Grupo 101450" transform="translate(0 4.144)">
        <g id="Grupo_101449" data-name="Grupo 101449" transform="translate(5.448 1.706)">
          <path id="Trazado_162681" data-name="Trazado 162681" d="M2307.742,1390.17h-.459v-2.063a1.343,1.343,0,0,1,1.342-1.342h5.675a.884.884,0,0,0,.854-.659l.9-3.412a.883.883,0,0,0-.854-1.108h-7.4v-.459h7.4a1.342,1.342,0,0,1,1.3,1.684l-.9,3.412a1.343,1.343,0,0,1-1.3,1h-5.675a.884.884,0,0,0-.883.883Z" transform="translate(-2307.283 -1381.128)" fill="#3b5d30"/>
        </g>
        <path id="Rectángulo_24584" data-name="Rectángulo 24584" d="M1.936,0H10.8a1.936,1.936,0,0,1,1.936,1.936v0A1.936,1.936,0,0,1,10.8,3.871H1.936A1.936,1.936,0,0,1,0,1.936v0A1.936,1.936,0,0,1,1.936,0Z" fill="#ee816f"/>
        <path id="Trazado_162682" data-name="Trazado 162682" d="M2303.776,1425.651h0a1.262,1.262,0,0,1-1.262-1.262v-7.647a1.262,1.262,0,0,1,1.262-1.262h0a1.262,1.262,0,0,1,1.262,1.262v7.647A1.262,1.262,0,0,1,2303.776,1425.651Z" transform="translate(-2298.098 -1406.339)" fill="#3b5d30"/>
      </g>
      <g id="Grupo_101451" data-name="Grupo 101451" transform="translate(33.534 14.682)">
        <path id="Trazado_162683" data-name="Trazado 162683" d="M2523.124,1538.665a17.381,17.381,0,0,1,.793,3.285,11.893,11.893,0,0,1-1.009,3.235c-.389.535-.582-2.178-.889-2.586s-.063,1.021-.28,1.154-.67-1.052-.865-1.469.476-1.958.478-3.031S2523.124,1538.665,2523.124,1538.665Z" transform="translate(-2502.696 -1513.31)" fill="#f2beb7"/>
        <path id="Trazado_162684" data-name="Trazado 162684" d="M2437.042,1426.048a3.8,3.8,0,0,1,5.719-3.573c.054.032.107.066.16.1,3.936,2.534,12.43,14.357,13.014,15.541s2.31,10.607,2.31,10.607-2.132.78-3.129-.029c0,0-3.458-8.936-3.969-9.383s-13.831-7.92-13.944-10.722C2437.173,1427.849,2437.113,1426.958,2437.042,1426.048Z" transform="translate(-2437.029 -1421.929)" fill="#293d23"/>
      </g>
      <g id="Grupo_101452" data-name="Grupo 101452" transform="translate(28.514 42.099)">
        <path id="Trazado_162685" data-name="Trazado 162685" d="M2526.077,1758.166s1.587,1.448,1.277,2.478-1.742,1.715-1.935,2.973-.968,1.944-1.664,1.944h-3.322s-.513-.885.725-1.152,1.706-1.746,1.628-3.118a24.164,24.164,0,0,1,.116-3.2l2.632-.61Z" transform="translate(-2497.276 -1712.261)" fill="#3b5d30"/>
        <path id="Trazado_162686" data-name="Trazado 162686" d="M2423.169,1773.338s.285,3.3-.412,3.639l-8.917-.018s0-1.029,1.432-1.258,3.949-1.067,4.375-2.935S2423.169,1773.338,2423.169,1773.338Z" transform="translate(-2413.839 -1723.687)" fill="#3b5d30"/>
        <path id="Trazado_162687" data-name="Trazado 162687" d="M2422.158,1559.95s.47,5.778,1.023,12.724c.751,9.435,1.655,21.024,1.744,23.22.154,3.812.775,9.911.775,9.911a4.921,4.921,0,0,0,4.413.838,98.411,98.411,0,0,0,3.371-17.916c.011-.151.023-.3.035-.455.7-9.377,1.781-29.121,1.781-29.121Z" transform="translate(-2420.357 -1556.863)" fill="#ee816f"/>
        <path id="Trazado_162688" data-name="Trazado 162688" d="M2422.158,1559.95s.47,5.778,1.023,12.724l10.3,16.052c.011-.151.023-.3.035-.455.7-9.377,1.781-29.121,1.781-29.121Z" transform="translate(-2420.357 -1556.863)" fill="#eb594c"/>
        <path id="Trazado_162689" data-name="Trazado 162689" d="M2432.08,1552.359s8.478,20.926,14.052,30.76,7.316,12.578,7.316,12.578,3.194-1.258,3.484-2.116c0,0-2.132-18.985-5.865-23.613-2.109-2.615-4.587-10.463-4.7-13.207s-.755-8.176-.755-8.176Z" transform="translate(-2428.132 -1548.585)" fill="#ee816f"/>
      </g>
      <path id="Trazado_162690" data-name="Trazado 162690" d="M2433.249,1396.058s-5.68,2.881-9.007,1.92a7.806,7.806,0,0,1,2.2-1.835c-.127-.662-.228-1.236-.289-1.723a16.005,16.005,0,0,1-.175-1.763l2.178-1.784,2.065-1.707A8.457,8.457,0,0,0,2433.249,1396.058Z" transform="translate(-2393.476 -1381.576)" fill="#f2beb7"/>
      <path id="Trazado_162691" data-name="Trazado 162691" d="M2428.521,1443.839a23.4,23.4,0,0,1-7.006,3.018c-3,.711-6.68.5-7.913.689a.51.51,0,0,1-.359-.091c-.1-.05-.641-3.705-1.185-8.319-.024-.186-.05-.373-.06-.561l-.008-.062c-.212-1.8-.4-3.7-.559-5.6-.131-1.478-.24-2.939-.314-4.312-.095-1.717-.134-3.3-.095-4.593.017-.593.052-1.126.1-1.589a11.313,11.313,0,0,1,2.821-6.055l1-1.143a5.508,5.508,0,0,0,3.475-.887c1.227-.808,2.55-1.676,2.8-1.531,1.88,1.029,3.411,3.694,4.5,7.214a40.143,40.143,0,0,1,1.416,6.76c.1.756.183,1.531.248,2.3.013.143.023.285.034.426.148,2.11.388,4.088.656,5.854.36,2.382.769,4.377,1.058,5.782.145.715.255,1.268.321,1.664C2429.522,1443.152,2428.83,1443.647,2428.521,1443.839Z" transform="translate(-2383.107 -1400.085)" fill="#3b5d30"/>
      <path id="Trazado_162692" data-name="Trazado 162692" d="M2436.593,1397.135a7.6,7.6,0,0,1-4.142,3.464,15.981,15.981,0,0,1-.175-1.763l2.178-1.784Z" transform="translate(-2399.771 -1387.755)" fill="#eda8a2"/>
      <path id="Trazado_162693" data-name="Trazado 162693" d="M2423.448,1372.613s5.489.787,5.936-2.587,1.456-5.544-2.029-6.188-4.338.555-4.766,1.646S2422.031,1372.322,2423.448,1372.613Z" transform="translate(-2391.953 -1361.588)" fill="#f2beb7"/>
      <path id="Trazado_162694" data-name="Trazado 162694" d="M2424.535,1355.872c.049-.058.162-.106.417-.125a1.039,1.039,0,0,0-.479-.125,1.283,1.283,0,0,0-.875-1.118.766.766,0,0,1,.382.544c-.721-.712-2.246-1.21-6.432-.8-5.517.546-3.626,4.048-2.9,4.455s2.5-.784,3.836-.7,1.627,2,2.084,2.255.271-.208.877-.5.685.724.521,1.386.694,1.516.694,1.516l.831-.932c.832-.932,1.555-4.822,1.152-5.641Z" transform="translate(-2385.248 -1354.103)" fill="#4a190c"/>
      <path id="Trazado_162695" data-name="Trazado 162695" d="M2420.651,1464.925s-4.628,3.521-9.533,4.293c-.095-1.717-.134-3.3-.095-4.593Z" transform="translate(-2383.107 -1440.7)" fill="#293d23"/>
      <g id="Grupo_101453" data-name="Grupo 101453" transform="translate(4.056 15.849)">
        <path id="Trazado_162696" data-name="Trazado 162696" d="M2305.92,1434.11c-.073-.078-1.017-3.233-2.648-3-1.064.15-2.805.766-2.343,2.169.182.552,3.426,2.451,3.426,2.451Z" transform="translate(-2300.853 -1430.278)" fill="#f2beb7"/>
        <path id="Trazado_162697" data-name="Trazado 162697" d="M2346.844,1428.894a3.8,3.8,0,0,1-.4,6.731c-.058.025-.116.049-.175.073-4.345,1.743-18.9,1.824-20.206,1.615s-9.986-4.257-9.986-4.257.6-2.19,1.835-2.534c0,0,9.288,2.354,9.948,2.2s14.466-6.692,16.816-5.163C2345.3,1427.958,2346.061,1428.425,2346.844,1428.894Z" transform="translate(-2312.784 -1427.322)" fill="#3b5d30"/>
      </g>
    </g>
    <g id="Grupo_101455" data-name="Grupo 101455" transform="translate(1833.551 668.334)">
      <path id="Trazado_162698" data-name="Trazado 162698" d="M2865.457,949.721h-11.589a.888.888,0,0,1-.885-.886h0a.888.888,0,0,1,.885-.885h11.589a.888.888,0,0,1,.885.885h0A.888.888,0,0,1,2865.457,949.721Z" transform="translate(-2852.983 -947.95)" fill="#fff"/>
      <path id="Trazado_162699" data-name="Trazado 162699" d="M2865.457,965.705h-11.589a.888.888,0,0,1-.885-.886h0a.888.888,0,0,1,.885-.886h11.589a.888.888,0,0,1,.885.886h0A.888.888,0,0,1,2865.457,965.705Z" transform="translate(-2852.983 -960.474)" fill="#fff"/>
      <path id="Trazado_162700" data-name="Trazado 162700" d="M2865.457,982.1h-11.589a.888.888,0,0,1-.885-.885h0a.888.888,0,0,1,.885-.886h11.589a.888.888,0,0,1,.885.886h0A.888.888,0,0,1,2865.457,982.1Z" transform="translate(-2852.983 -973.322)" fill="#fff"/>
    </g>
    <path id="Trazado_162701" data-name="Trazado 162701" d="M2596.864,1366h-27.587a1.178,1.178,0,0,1-1.174-1.174h0a1.178,1.178,0,0,1,1.174-1.174h27.587a1.178,1.178,0,0,1,1.174,1.174h0A1.178,1.178,0,0,1,2596.864,1366Z" transform="translate(-796.218 -605.336)" fill="#fff"/>
    <path id="Trazado_162702" data-name="Trazado 162702" d="M1973.885,993.652H1946.3a1.178,1.178,0,0,1-1.174-1.174h0a1.178,1.178,0,0,1,1.174-1.174h27.588a1.178,1.178,0,0,1,1.174,1.174h0A1.178,1.178,0,0,1,1973.885,993.652Z" transform="translate(-308.093 -313.585)" fill="#fff"/>
    <path id="Trazado_162703" data-name="Trazado 162703" d="M2596.864,1419.823h-27.587a1.177,1.177,0,0,1-1.174-1.174h0a1.178,1.178,0,0,1,1.174-1.174h27.587a1.178,1.178,0,0,1,1.174,1.174h0A1.177,1.177,0,0,1,2596.864,1419.823Z" transform="translate(-796.218 -647.505)" fill="#fff"/>
    <path id="Trazado_162704" data-name="Trazado 162704" d="M2577.29,1392.914h-33a1.178,1.178,0,0,1-1.175-1.174h0a1.178,1.178,0,0,1,1.175-1.174h33a1.177,1.177,0,0,1,1.174,1.174h0A1.178,1.178,0,0,1,2577.29,1392.914Z" transform="translate(-776.644 -626.421)" fill="#fff"/>
    <g id="Grupo_101456" data-name="Grupo 101456" transform="translate(1635.988 685.102)">
      <path id="Rectángulo_24585" data-name="Rectángulo 24585" d="M1.174,0H16.18a1.174,1.174,0,0,1,1.174,1.174v0A1.174,1.174,0,0,1,16.18,2.349H1.174A1.174,1.174,0,0,1,0,1.174v0A1.174,1.174,0,0,1,1.174,0Z" transform="translate(5.155 0)" fill="#fff"/>
      <path id="Trazado_162705" data-name="Trazado 162705" d="M1940.308,1026.589a1.174,1.174,0,1,1,1.174,1.174A1.174,1.174,0,0,1,1940.308,1026.589Z" transform="translate(-1940.308 -1025.415)" fill="#fff"/>
    </g>
    <g id="Grupo_101457" data-name="Grupo 101457" transform="translate(1635.988 689.776)">
      <path id="Rectángulo_24586" data-name="Rectángulo 24586" d="M1.174,0H19.21a1.174,1.174,0,0,1,1.174,1.174v0A1.174,1.174,0,0,1,19.21,2.349H1.174A1.174,1.174,0,0,1,0,1.174v0A1.174,1.174,0,0,1,1.174,0Z" transform="translate(5.155 0)" fill="#fff"/>
      <path id="Trazado_162706" data-name="Trazado 162706" d="M1940.308,1048.179a1.174,1.174,0,1,1,1.174,1.174A1.174,1.174,0,0,1,1940.308,1048.179Z" transform="translate(-1940.308 -1047.005)" fill="#fff"/>
    </g>
    <g id="Grupo_101458" data-name="Grupo 101458" transform="translate(1635.988 694.849)">
      <path id="Rectángulo_24587" data-name="Rectángulo 24587" d="M1.174,0H16.18a1.174,1.174,0,0,1,1.174,1.174v0A1.174,1.174,0,0,1,16.18,2.349H1.174A1.174,1.174,0,0,1,0,1.174v0A1.174,1.174,0,0,1,1.174,0Z" transform="translate(5.155 0)" fill="#fff"/>
      <path id="Trazado_162707" data-name="Trazado 162707" d="M1940.308,1071.615a1.174,1.174,0,1,1,1.174,1.174A1.174,1.174,0,0,1,1940.308,1071.615Z" transform="translate(-1940.308 -1070.441)" fill="#fff"/>
    </g>
    <g id="Grupo_101460" data-name="Grupo 101460" transform="translate(1677.004 681.836)">
      <g id="Grupo_101459" data-name="Grupo 101459" transform="translate(4.201 0)">
        <path id="Trazado_162708" data-name="Trazado 162708" d="M2153.913,1018.57a4.206,4.206,0,0,1-.621.039,4.143,4.143,0,0,1-2.847-7.106h0a4.143,4.143,0,1,1,3.468,7.067Zm-2.991-6.579a3.461,3.461,0,1,0,4.894.056,3.464,3.464,0,0,0-4.894-.056Z" transform="translate(-2149.199 -1010.325)" fill="#3b5d30"/>
      </g>
      <rect id="Rectángulo_24588" data-name="Rectángulo 24588" width="0.682" height="5.654" transform="translate(5.385 6.554) rotate(45.664)" fill="#3b5d30"/>
      <path id="Trazado_162709" data-name="Trazado 162709" d="M2129.964,1054.158h0a.609.609,0,0,1,.01-.861l2.382-2.327a.61.61,0,0,1,.862.01h0a.609.609,0,0,1-.01.862l-2.381,2.327A.609.609,0,0,1,2129.964,1054.158Z" transform="translate(-2129.79 -1042.036)" fill="#3b5d30"/>
    </g>
    <g id="Grupo_101461" data-name="Grupo 101461" transform="translate(1803.616 752.941)">
      <path id="Trazado_162710" data-name="Trazado 162710" d="M2747.8,1438.129h0a1.361,1.361,0,0,1-1.239-.853l-31.832-96.922a.638.638,0,0,1,.674-.864h0a1.36,1.36,0,0,1,1.239.853l31.833,96.922A.638.638,0,0,1,2747.8,1438.129Z" transform="translate(-2714.693 -1339.341)" fill="#3b5d30"/>
      <path id="Trazado_162711" data-name="Trazado 162711" d="M2866.32,1437.443h0a1.36,1.36,0,0,1-1.238-.853l-31.832-96.922a.638.638,0,0,1,.674-.864h0a1.361,1.361,0,0,1,1.239.853L2867,1436.579A.639.639,0,0,1,2866.32,1437.443Z" transform="translate(-2807.554 -1338.804)" fill="#3b5d30"/>
      <path id="Trazado_162712" data-name="Trazado 162712" d="M2760.944,1399.316l-25.762.149a1.289,1.289,0,0,1-1.169-.805h0a.6.6,0,0,1,.637-.816l25.762-.149a1.289,1.289,0,0,1,1.169.805h0A.6.6,0,0,1,2760.944,1399.316Z" transform="translate(-2729.801 -1384.947)" fill="#3b5d30"/>
      <path id="Trazado_162713" data-name="Trazado 162713" d="M2786.619,1477.491l-25.761.149a1.288,1.288,0,0,1-1.169-.805h0a.6.6,0,0,1,.637-.816l25.762-.149a1.29,1.29,0,0,1,1.169.806h0A.6.6,0,0,1,2786.619,1477.491Z" transform="translate(-2749.918 -1446.2)" fill="#3b5d30"/>
      <path id="Trazado_162714" data-name="Trazado 162714" d="M2811.347,1552.783l-25.762.149a1.289,1.289,0,0,1-1.169-.806h0a.6.6,0,0,1,.637-.816l25.762-.149a1.288,1.288,0,0,1,1.169.806h0A.6.6,0,0,1,2811.347,1552.783Z" transform="translate(-2769.293 -1505.193)" fill="#3b5d30"/>
      <path id="Trazado_162715" data-name="Trazado 162715" d="M2839.186,1637.545l-25.762.149a1.289,1.289,0,0,1-1.169-.806h0a.6.6,0,0,1,.637-.816l25.762-.149a1.289,1.289,0,0,1,1.169.806h0A.6.6,0,0,1,2839.186,1637.545Z" transform="translate(-2791.106 -1571.607)" fill="#3b5d30"/>
      <path id="Trazado_162716" data-name="Trazado 162716" d="M2868.323,1726.262l-25.762.149a1.289,1.289,0,0,1-1.169-.805h0a.6.6,0,0,1,.637-.816l25.762-.149a1.288,1.288,0,0,1,1.169.805h0A.6.6,0,0,1,2868.323,1726.262Z" transform="translate(-2813.936 -1641.12)" fill="#3b5d30"/>
    </g>
    <g id="Grupo_101462" data-name="Grupo 101462" transform="translate(1798.026 678.893)">
      <path id="Trazado_162717" data-name="Trazado 162717" d="M2706.645,1128.022h0a.375.375,0,0,1-.438-.3l-.412-2.13a.375.375,0,0,1,.3-.438h0a.375.375,0,0,1,.438.3l.412,2.13A.375.375,0,0,1,2706.645,1128.022Z" transform="translate(-2702.125 -1097.352)" fill="#3b5d30"/>
      <rect id="Rectángulo_24589" data-name="Rectángulo 24589" width="0.257" height="3.135" transform="matrix(0.982, -0.19, 0.19, 0.982, 3.144, 24.239)" fill="#3b5d30"/>
      <path id="Trazado_162718" data-name="Trazado 162718" d="M2692.265,1013.387a9.889,9.889,0,0,0-.757-2.93,3.991,3.991,0,0,0-2.579-1.212c-.38.368,1.123,1.67,1.182,2.15s-.763.148-.368,1.084a7.31,7.31,0,0,0,1.433,1.815Z" transform="translate(-2688.867 -1006.522)" fill="#f2beb7"/>
      <path id="Trazado_162719" data-name="Trazado 162719" d="M2697.477,1025.377c.708-.556.859-.545.859-.545s6.551,5.675,7.188,6.18,10.477,3.359,10.477,3.359l1.563,8s-13.313-6.43-14.9-7.742c-2.629-2.169-5.946-8.237-5.946-8.237A2.51,2.51,0,0,1,2697.477,1025.377Z" transform="translate(-2695.016 -1018.748)" fill="#eb594c"/>
      <path id="Trazado_162720" data-name="Trazado 162720" d="M2758.046,1378.279s-.113,2.734-.637,3.4l-7.3.042a1.142,1.142,0,0,1,1.091-1.11,4.9,4.9,0,0,0,3.546-2.8C2755.558,1376.037,2758.046,1378.279,2758.046,1378.279Z" transform="translate(-2736.851 -1294.784)" fill="#fff"/>
      <path id="Trazado_162721" data-name="Trazado 162721" d="M2821.88,1376.606s.509,3.632-.182,3.695c-.092.009-2.943.054-4.177.075-1.451.025-3.836-.027-3.836-.027a.379.379,0,0,1-.344-.571,1.529,1.529,0,0,1,1.1-.7c1.272-.245,3.391-1.179,4.134-2.878C2819.352,1374.408,2821.88,1376.606,2821.88,1376.606Z" transform="translate(-2786.354 -1293.505)" fill="#fff"/>
      <path id="Trazado_162722" data-name="Trazado 162722" d="M2769.245,1183.515s2.031,7.1,7.85,19.442,6.071,18.284,6.071,18.284a5.11,5.11,0,0,0,2.05.187,5.508,5.508,0,0,0,2.156-.7s-.377-14.685-3.125-20.911-3.309-23.264-3.309-23.264Z" transform="translate(-2751.846 -1137.628)" fill="#293d23"/>
      <path id="Trazado_162723" data-name="Trazado 162723" d="M2754.175,1180.471a177.083,177.083,0,0,0,1.741,24.509c1.9,13.508,1.013,19.79,1.013,19.79a3.794,3.794,0,0,0,2.056.361,4.612,4.612,0,0,0,2.747-.758s2.725-13.512,1.943-20.273,3.731-23.2,3.731-23.2Z" transform="translate(-2740.035 -1140.697)" fill="#3b5d30"/>
      <path id="Trazado_162724" data-name="Trazado 162724" d="M2776.712,1041.854l-2.15,1.592-3.108-.654c.043-.283.248-1.458.435-2.522.012-.063.023-.125.033-.186.16-.905.3-1.683.3-1.683l2.9-1.447,1.082-.539c0,.019-.084,1-.1,1.149A9.292,9.292,0,0,0,2776.712,1041.854Z" transform="translate(-2753.577 -1027.824)" fill="#f2beb7"/>
      <path id="Trazado_162725" data-name="Trazado 162725" d="M2767.888,1085.3c-.7,3.215-15.75,1.8-15.554-.159.008-.066.047-.974.1-2.2.114-2.649.288-6.788.311-7.111,0-.006,0-.011,0-.017.271-2.733.531-5.407.548-7.153a24.827,24.827,0,0,1,.5-4.468c.256-1.3.571-2.475.844-3.393a3.752,3.752,0,0,1,2.2-2.41,3.252,3.252,0,0,1,.364-.127c1.771-.514,4.221-1.15,4.885-.955,1.8.529,3.135,3.7,4.081,7.732C2767.938,1072.6,2768.348,1083.206,2767.888,1085.3Z" transform="translate(-2738.594 -1044.169)" fill="#ee816f"/>
      <path id="Trazado_162726" data-name="Trazado 162726" d="M2777.465,1039.56c-.637,1.22-3.012,2.274-4,2.662.012-.063.023-.125.033-.187.16-.905.3-1.683.3-1.683l2.9-1.447C2777.337,1038.9,2777.728,1039.058,2777.465,1039.56Z" transform="translate(-2755.15 -1029.775)" fill="#eda8a2"/>
      <path id="Trazado_162727" data-name="Trazado 162727" d="M2766.109,1013.61s5.236,1.633,6.2-1.643,2.294-5.272-1.008-6.454-4.324-.124-4.913.891S2764.772,1013.1,2766.109,1013.61Z" transform="translate(-2748.876 -1003.203)" fill="#f2beb7"/>
      <path id="Trazado_162728" data-name="Trazado 162728" d="M2768.951,999.614s.334,3.813,1.123,3.647,1.5-.288,1.388.861-1.209,2.476,1.221,2.68,5.924-6.063,5.256-7.25C2776.012,996.128,2766.167,995.437,2768.951,999.614Z" transform="translate(-2751.23 -996.728)" fill="#4a190c"/>
      <path id="Trazado_162729" data-name="Trazado 162729" d="M2752.807,1130.82c.114-2.649.288-6.788.31-7.111,0-.006,0-.011,0-.017l8.889-5.315S2762.353,1130.785,2752.807,1130.82Z" transform="translate(-2738.966 -1092.044)" fill="#eb594c"/>
      <path id="Trazado_162730" data-name="Trazado 162730" d="M2704.156,1119.074a23.541,23.541,0,0,0-2.149-1.329,4.519,4.519,0,0,0-1.518-.133c-.052.089-.206.36-.01.451s.441.059.367.124-.812-.287-.982.089-.321,1.667.546,2.058,3.006.038,3.16.083C2704.878,1120.8,2704.156,1119.074,2704.156,1119.074Z" transform="translate(-2697.381 -1091.42)" fill="#f2beb7"/>
      <path id="Trazado_162731" data-name="Trazado 162731" d="M2718.03,1083.1s8.817,1.5,9.6,1.119c1.247-.607-.484-9.553-.484-9.553a2.573,2.573,0,0,1,2.294-2.505,5.7,5.7,0,0,1,4.043,1.126s1.806,1.616,1.575,3.408c-.511,3.973-1.307,12.053-3.964,13.291-3.427,1.6-13.344-4.43-13.344-4.43a1.735,1.735,0,0,1-.283-1.155A2.693,2.693,0,0,1,2718.03,1083.1Z" transform="translate(-2711.271 -1055.773)" fill="#ee816f"/>
      <path id="Trazado_162732" data-name="Trazado 162732" d="M2690.274,1018.4s-.564-1.122-.655-1.332.13-.165.347-.047.513.768.848.69C2691.081,1017.646,2690.274,1018.4,2690.274,1018.4Z" transform="translate(-2689.441 -1012.548)" fill="#f2beb7"/>
    </g>
  </g>
</svg>
