<svg xmlns="http://www.w3.org/2000/svg" xmlns:xlink="http://www.w3.org/1999/xlink" width="272.721" height="167.702" viewBox="0 0 272.721 167.702">
  <defs>
    <linearGradient id="linear-gradient" x1="4.224" y1="-7.682" x2="4.227" y2="-7.682" gradientUnits="objectBoundingBox">
      <stop offset="0" stop-color="#fedaef"/>
      <stop offset="1" stop-color="#fde9ef"/>
    </linearGradient>
    <linearGradient id="linear-gradient-2" x1="6.389" y1="-13.261" x2="6.389" y2="-13.253" gradientUnits="objectBoundingBox">
      <stop offset="0" stop-color="#822b4a"/>
      <stop offset="1" stop-color="#420e1f"/>
    </linearGradient>
    <linearGradient id="linear-gradient-3" x1="6.636" y1="-14.192" x2="6.638" y2="-14.183" gradientUnits="objectBoundingBox">
      <stop offset="0" stop-color="#fec943"/>
      <stop offset="1" stop-color="#ffe08e"/>
    </linearGradient>
    <linearGradient id="linear-gradient-4" x1="5.787" y1="-195.492" x2="5.787" y2="-194.665" xlink:href="#linear-gradient-2"/>
    <linearGradient id="linear-gradient-5" x1="98.57" y1="-263.908" x2="98.523" y2="-264.144" gradientUnits="objectBoundingBox">
      <stop offset="0" stop-color="#5d0022"/>
      <stop offset="1" stop-color="#910f40"/>
    </linearGradient>
    <linearGradient id="linear-gradient-6" x1="153.523" y1="-128.762" x2="153.434" y2="-128.816" gradientUnits="objectBoundingBox">
      <stop offset="0" stop-color="#ffe08e"/>
      <stop offset="1" stop-color="#fed3b1"/>
    </linearGradient>
    <linearGradient id="linear-gradient-7" x1="157.58" y1="-128.724" x2="157.444" y2="-128.799" xlink:href="#linear-gradient-6"/>
    <linearGradient id="linear-gradient-8" x1="70.568" y1="-168.242" x2="70.566" y2="-168.454" xlink:href="#linear-gradient-5"/>
    <linearGradient id="linear-gradient-9" x1="137.185" y1="-587.396" x2="137.309" y2="-587.396" gradientUnits="objectBoundingBox">
      <stop offset="0" stop-color="#e2407c"/>
      <stop offset="1" stop-color="#ff4f9b"/>
    </linearGradient>
    <linearGradient id="linear-gradient-10" x1="237.869" y1="-748.091" x2="236.59" y2="-750.29" xlink:href="#linear-gradient-6"/>
    <linearGradient id="linear-gradient-11" x1="121.054" y1="-607.008" x2="121.179" y2="-607.008" xlink:href="#linear-gradient-9"/>
    <linearGradient id="linear-gradient-12" x1="246.846" y1="-755.781" x2="245.532" y2="-758.025" xlink:href="#linear-gradient-6"/>
    <linearGradient id="linear-gradient-13" x1="45.708" y1="-151.495" x2="45.707" y2="-151.576" xlink:href="#linear-gradient-9"/>
    <linearGradient id="linear-gradient-14" x1="48.378" y1="-150.59" x2="48.375" y2="-150.665" xlink:href="#linear-gradient-9"/>
    <linearGradient id="linear-gradient-15" x1="125.042" y1="-300.962" x2="125.04" y2="-300.613" xlink:href="#linear-gradient-6"/>
    <linearGradient id="linear-gradient-16" x1="136.208" y1="-179.363" x2="136.148" y2="-179.277" xlink:href="#linear-gradient-6"/>
    <linearGradient id="linear-gradient-17" x1="97.565" y1="-200.655" x2="97.513" y2="-200.816" xlink:href="#linear-gradient-5"/>
    <linearGradient id="linear-gradient-18" x1="-128.958" y1="-839.498" x2="-131.464" y2="-838.189" xlink:href="#linear-gradient-6"/>
    <linearGradient id="linear-gradient-19" x1="230.249" y1="-1105.127" x2="230.151" y2="-1109.372" xlink:href="#linear-gradient-9"/>
    <linearGradient id="linear-gradient-20" x1="15.48" y1="-20.482" x2="15.49" y2="-20.482" xlink:href="#linear-gradient-9"/>
    <linearGradient id="linear-gradient-21" x1="17.456" y1="-147.048" x2="17.467" y2="-147.048" xlink:href="#linear-gradient-9"/>
    <linearGradient id="linear-gradient-22" x1="21.729" y1="-60.638" x2="21.744" y2="-60.638" xlink:href="#linear-gradient-9"/>
    <linearGradient id="linear-gradient-23" x1="25.025" y1="-22.354" x2="25.042" y2="-22.354" xlink:href="#linear-gradient-9"/>
    <linearGradient id="linear-gradient-24" x1="31.297" y1="-20.036" x2="31.321" y2="-20.036" xlink:href="#linear-gradient-9"/>
    <linearGradient id="linear-gradient-25" x1="14.032" y1="-14.939" x2="14.043" y2="-14.939" xlink:href="#linear-gradient-9"/>
    <linearGradient id="linear-gradient-26" x1="18.483" y1="-22.394" x2="18.497" y2="-22.394" xlink:href="#linear-gradient-9"/>
    <linearGradient id="linear-gradient-27" x1="41.77" y1="-54.933" x2="41.74" y2="-54.987" xlink:href="#linear-gradient-9"/>
    <linearGradient id="linear-gradient-28" x1="62.006" y1="-75.804" x2="62.047" y2="-75.804" xlink:href="#linear-gradient-9"/>
    <linearGradient id="linear-gradient-29" x1="319.395" y1="-135.83" x2="319.75" y2="-135.83" xlink:href="#linear-gradient"/>
    <linearGradient id="linear-gradient-30" x1="33.635" y1="-55.708" x2="33.605" y2="-55.762" xlink:href="#linear-gradient-9"/>
    <linearGradient id="linear-gradient-31" x1="49.205" y1="-76.562" x2="49.246" y2="-76.562" xlink:href="#linear-gradient-9"/>
    <linearGradient id="linear-gradient-32" x1="93.494" y1="-152.492" x2="93.577" y2="-152.492" xlink:href="#linear-gradient"/>
    <linearGradient id="linear-gradient-33" x1="159.567" y1="-391.942" x2="159.737" y2="-391.942" xlink:href="#linear-gradient"/>
    <linearGradient id="linear-gradient-34" x1="163.382" y1="-392.953" x2="163.556" y2="-392.953" xlink:href="#linear-gradient"/>
    <linearGradient id="linear-gradient-35" x1="35.174" y1="-54.733" x2="35.145" y2="-54.787" xlink:href="#linear-gradient-9"/>
    <linearGradient id="linear-gradient-36" x1="70.171" y1="-108.533" x2="70.128" y2="-108.762" xlink:href="#linear-gradient-9"/>
    <linearGradient id="linear-gradient-37" x1="54.428" y1="-85.611" x2="54.397" y2="-85.697" xlink:href="#linear-gradient-9"/>
    <linearGradient id="linear-gradient-38" x1="41.13" y1="-56.603" x2="41.101" y2="-56.657" xlink:href="#linear-gradient-9"/>
    <linearGradient id="linear-gradient-39" x1="62.342" y1="-85.04" x2="62.312" y2="-85.144" xlink:href="#linear-gradient-9"/>
    <linearGradient id="linear-gradient-40" x1="141.747" y1="-194.31" x2="141.561" y2="-194.806" xlink:href="#linear-gradient-9"/>
    <linearGradient id="linear-gradient-41" x1="34.737" y1="-56.937" x2="34.708" y2="-56.991" xlink:href="#linear-gradient-9"/>
    <linearGradient id="linear-gradient-42" x1="52.176" y1="-100.523" x2="52.141" y2="-100.715" xlink:href="#linear-gradient-9"/>
    <linearGradient id="linear-gradient-43" x1="41.883" y1="-58.416" x2="41.854" y2="-58.47" xlink:href="#linear-gradient-9"/>
    <linearGradient id="linear-gradient-44" x1="61.746" y1="-80.721" x2="61.786" y2="-80.721" xlink:href="#linear-gradient-9"/>
    <linearGradient id="linear-gradient-45" x1="168.524" y1="-267.679" x2="168.648" y2="-267.679" xlink:href="#linear-gradient"/>
    <linearGradient id="linear-gradient-46" x1="95.17" y1="-316.283" x2="95.234" y2="-316.283" xlink:href="#linear-gradient"/>
    <linearGradient id="linear-gradient-47" x1="33.402" y1="-58.321" x2="33.373" y2="-58.374" xlink:href="#linear-gradient-9"/>
    <linearGradient id="linear-gradient-48" x1="49.004" y1="-80.184" x2="49.045" y2="-80.184" xlink:href="#linear-gradient-9"/>
    <linearGradient id="linear-gradient-49" x1="67.233" y1="-2350.484" x2="67.29" y2="-2350.484" xlink:href="#linear-gradient"/>
    <linearGradient id="linear-gradient-50" x1="73.141" y1="-2349.426" x2="73.204" y2="-2349.426" xlink:href="#linear-gradient"/>
    <linearGradient id="linear-gradient-51" x1="80.19" y1="-2351.755" x2="80.259" y2="-2351.755" xlink:href="#linear-gradient"/>
    <linearGradient id="linear-gradient-52" x1="87.227" y1="-2353.32" x2="87.304" y2="-2353.32" xlink:href="#linear-gradient"/>
    <linearGradient id="linear-gradient-53" x1="98.288" y1="-2351.638" x2="98.376" y2="-2351.638" xlink:href="#linear-gradient"/>
    <linearGradient id="linear-gradient-54" x1="39.49" y1="-55.293" x2="39.461" y2="-55.347" xlink:href="#linear-gradient-9"/>
    <linearGradient id="linear-gradient-55" x1="58.18" y1="-75.918" x2="58.221" y2="-75.918" xlink:href="#linear-gradient-9"/>
    <linearGradient id="linear-gradient-56" x1="80.419" y1="-2288.457" x2="80.476" y2="-2288.457" xlink:href="#linear-gradient"/>
    <linearGradient id="linear-gradient-57" x1="87.67" y1="-2293" x2="87.733" y2="-2293" xlink:href="#linear-gradient"/>
    <linearGradient id="linear-gradient-58" x1="96.34" y1="-2291.366" x2="96.41" y2="-2291.366" xlink:href="#linear-gradient"/>
    <linearGradient id="linear-gradient-59" x1="105.078" y1="-2296.348" x2="105.155" y2="-2296.348" xlink:href="#linear-gradient"/>
    <linearGradient id="linear-gradient-60" x1="118.943" y1="-2298.671" x2="119.031" y2="-2298.671" xlink:href="#linear-gradient"/>
    <linearGradient id="linear-gradient-61" x1="39.765" y1="-59.396" x2="39.736" y2="-59.45" xlink:href="#linear-gradient-9"/>
    <linearGradient id="linear-gradient-62" x1="59.244" y1="-82.768" x2="59.285" y2="-82.768" xlink:href="#linear-gradient-9"/>
    <linearGradient id="linear-gradient-63" x1="283.067" y1="-223.901" x2="283.379" y2="-223.901" xlink:href="#linear-gradient"/>
    <linearGradient id="linear-gradient-64" x1="153.988" y1="-153.536" x2="154.107" y2="-153.536" xlink:href="#linear-gradient"/>
    <linearGradient id="linear-gradient-65" x1="33.787" y1="-59.742" x2="33.758" y2="-59.796" xlink:href="#linear-gradient-9"/>
    <linearGradient id="linear-gradient-66" x1="50.114" y1="-83.138" x2="50.155" y2="-83.138" xlink:href="#linear-gradient-9"/>
    <linearGradient id="linear-gradient-67" x1="72.592" y1="-195.206" x2="72.653" y2="-195.206" xlink:href="#linear-gradient"/>
    <linearGradient id="linear-gradient-68" x1="77.269" y1="-352.883" x2="77.335" y2="-352.883" xlink:href="#linear-gradient"/>
    <linearGradient id="linear-gradient-69" x1="99.546" y1="-135.7" x2="97.412" y2="-138.895" gradientUnits="objectBoundingBox">
      <stop offset="0" stop-color="#ff4f9b"/>
      <stop offset="1" stop-color="#e2407c"/>
    </linearGradient>
    <linearGradient id="linear-gradient-70" x1="95.777" y1="-77.902" x2="93.761" y2="-79.001" xlink:href="#linear-gradient-69"/>
    <linearGradient id="linear-gradient-71" x1="96.86" y1="-135.753" x2="94.726" y2="-138.947" xlink:href="#linear-gradient-69"/>
  </defs>
  <g id="Grupo_91022" data-name="Grupo 91022" transform="translate(445.602 -2447.705)">
    <path id="Trazado_143611" data-name="Trazado 143611" d="M-244.758,2450.434c4.274,1.312,10.665,7.275,16.27,16.788,6.894,11.7,10.989,12.726,20.742,6.96s21.207-1.891,29.5,13.457-6.233,27.283-19.7,45.983,13.418,13.863,22.125,35.7-3.573,46.343-43.981,46.051c-40.462-.292-108.136-2.343-108.136-2.343s-72.518,7.258-91.065-3.61c-23.329-13.67,16.67-18.74-2.543-27.269s-18.939-16.494-18.579-31.686c.409-17.329,16.278-19.995,23.951-25.89s12.288-12.293,1.317-22.786-19.369-17.562-13.823-31.463c7.957-19.943,27.265-22.516,48.482-14.064s24.816,19.278,59.828,13.011C-300.833,2465.781-281.153,2439.262-244.758,2450.434Z" transform="translate(-0.368)" fill="url(#linear-gradient)"/>
    <g id="Grupo_91022-2" data-name="Grupo 91022-2" transform="translate(-430.614 2448.391)" opacity="0.9">
      <path id="Trazado_143612" data-name="Trazado 143612" d="M-429.281,2450.044c-.886,17.427-2.843,118.51,70.314,123.912,0,0,14.561-68.647-68.541-125.367C-428.235,2448.094-429.222,2448.906-429.281,2450.044Z" transform="translate(429.515 -2448.441)" fill="#fa91b3"/>
      <path id="Trazado_143613" data-name="Trazado 143613" d="M-421.024,2464.142c1.381,4.752,2.849,9.485,4.354,14.2s3.061,9.419,4.664,14.1q4.8,14.058,10.254,27.878,2.753,6.9,5.7,13.706,2.987,6.795,6.24,13.466c2.2,4.432,4.517,8.8,7.016,13.061a107.978,107.978,0,0,0,8.24,12.273.482.482,0,0,1-.078.677h0a.483.483,0,0,1-.678-.077h0a109.361,109.361,0,0,1-8.254-12.421c-2.493-4.3-4.8-8.7-6.985-13.15q-3.248-6.7-6.193-13.528t-5.651-13.758q-5.411-13.851-10.133-27.957-2.372-7.043-4.6-14.135c-1.483-4.728-2.932-9.468-4.29-14.236a.205.205,0,0,1,.141-.253.2.2,0,0,1,.251.146Z" transform="translate(428.962 -2449.503)" fill="#fff" opacity="0.45" style="isolation: isolate"/>
    </g>
    <g id="Grupo_91023" data-name="Grupo 91023" transform="translate(-445.602 2519.293)">
      <path id="Trazado_143614" data-name="Trazado 143614" d="M-445.592,2525.573a.893.893,0,0,1,.743-1.019.889.889,0,0,1,.849.343c5.378,7.173,20.066,25.542,34.5,32.717,23.5,11.684,45.846,36.781,41.173,56.077C-368.329,2613.689-429.751,2625.36-445.592,2525.573Z" transform="translate(445.602 -2524.543)" fill="#fbbdd8"/>
      <path id="Trazado_143615" data-name="Trazado 143615" d="M-438.784,2537.174c.1.179.237.4.361.614l.39.63.8,1.251,1.616,2.489q1.637,2.476,3.325,4.914,3.365,4.887,6.9,9.649c4.74,6.33,9.638,12.543,14.865,18.471,2.626,2.952,5.261,5.9,8.017,8.728s5.579,5.592,8.5,8.244a126.41,126.41,0,0,0,18.8,14.361.2.2,0,0,1,.068.267.2.2,0,0,1-.26.068,101.885,101.885,0,0,1-10.023-6.434c-3.209-2.348-6.274-4.879-9.274-7.488a188.984,188.984,0,0,1-16.706-16.971c-2.613-2.99-5.128-6.062-7.6-9.169s-4.867-6.273-7.173-9.5-4.574-6.484-6.744-9.8q-1.624-2.493-3.194-5.019c-.519-.845-1.04-1.69-1.545-2.542l-.75-1.285-.369-.647c-.121-.224-.24-.422-.365-.682a.193.193,0,0,1,.091-.255.192.192,0,0,1,.25.08Z" transform="translate(445.162 -2525.397)" fill="#fedcf3"/>
    </g>
    <g id="Grupo_91024" data-name="Grupo 91024" transform="translate(-245.108 2451.5)">
      <path id="Trazado_143616" data-name="Trazado 143616" d="M-179.708,2452.6c3.567,12.813,21.284,88.227-46.5,117.564,0,0-24.443-46.646,44.6-118.049a1.127,1.127,0,0,1,1.591-.023A1.138,1.138,0,0,1-179.708,2452.6Z" transform="translate(230.405 -2451.778)" fill="#fa91b3"/>
      <path id="Trazado_143617" data-name="Trazado 143617" d="M-183.113,2466.036c-.546,4.216-1.183,8.416-1.854,12.615s-1.4,8.382-2.166,12.561c-1.541,8.357-3.268,16.683-5.25,24.949s-4.22,16.478-6.9,24.556q-1.989,6.064-4.424,11.977a107.411,107.411,0,0,1-5.512,11.539.457.457,0,0,1-.623.175h0a.458.458,0,0,1-.175-.623h0a106.368,106.368,0,0,0,5.524-11.412q2.454-5.86,4.464-11.9c2.709-8.037,4.978-16.22,7.008-24.461s3.792-16.55,5.374-24.889q1.188-6.257,2.229-12.54c.693-4.188,1.35-8.387,1.917-12.589h0a.2.2,0,0,1,.218-.166A.193.193,0,0,1-183.113,2466.036Z" transform="translate(229.016 -2452.738)" fill="#fedcf3"/>
    </g>
    <g id="Grupo_91025" data-name="Grupo 91025" transform="translate(-235.205 2513.121)">
      <path id="Trazado_143618" data-name="Trazado 143618" d="M-219.751,2617.127s-1.136-14.534,12.01-30.666c12.2-14.967,42.374-49.787,48.319-68a.784.784,0,0,1,.985-.509.784.784,0,0,1,.541.66,96.142,96.142,0,0,1-11.717,56.03C-186.906,2605.758-219.751,2617.127-219.751,2617.127Z" transform="translate(219.775 -2517.918)" fill="#fbbdd8"/>
      <path id="Trazado_143619" data-name="Trazado 143619" d="M-162.824,2536.472a33.518,33.518,0,0,1-.795,5.98c-.05.247-.1.494-.153.74l-.18.734-.361,1.468-.422,1.451c-.145.483-.273.973-.445,1.446a71.265,71.265,0,0,1-4.749,11.114c-.439.91-.971,1.769-1.469,2.647l-.757,1.31c-.129.217-.245.442-.385.651l-.409.636-1.636,2.545c-.264.431-.572.831-.864,1.241l-.887,1.228-.886,1.227-.445.614-.471.591-1.889,2.365c-.318.391-.623.8-.951,1.177l-.979,1.147-1.961,2.293-1.988,2.271c-.664.755-1.321,1.516-2,2.261q-2.011,2.25-4.057,4.468c-1.356,1.485-2.736,2.949-4.11,4.418l-4.159,4.364c-2.776,2.906-5.557,5.807-8.235,8.8-.682.738-1.321,1.508-1.978,2.266-.332.376-.638.773-.954,1.16s-.633.777-.935,1.176c-.585.81-1.2,1.6-1.731,2.45l-.413.627c-.068.105-.141.205-.2.315l-.184.327-.738,1.307v.006a.109.109,0,0,1-.149.041.109.109,0,0,1-.043-.142,35.655,35.655,0,0,1,3.155-5.16c.3-.41.609-.8.914-1.206s.607-.806.932-1.19c.64-.777,1.27-1.568,1.934-2.322l.987-1.144c.331-.379.672-.75,1.007-1.125l1.009-1.122,1.023-1.111c1.357-1.484,2.732-2.952,4.1-4.425,2.737-2.942,5.475-5.883,8.177-8.853s5.367-5.975,8-9l1.957-2.29.977-1.144c.326-.382.632-.777.948-1.166l1.885-2.337.472-.583.443-.605.886-1.213a88.468,88.468,0,0,0,6.463-10.108,70.766,70.766,0,0,0,4.936-10.936c.184-.467.317-.95.477-1.425l.467-1.432.409-1.447.2-.724c.063-.243.116-.488.175-.731.111-.489.238-.974.341-1.466l.287-1.477a29.764,29.764,0,0,0,.386-2.984.013.013,0,0,1,.012-.014h0a.015.015,0,0,1,0,.021Z" transform="translate(219.504 -2519.184)" fill="#fedcf3"/>
    </g>
    <g id="Grupo_91038" data-name="Grupo 91038" transform="translate(-338.144 2475.094)">
      <g id="Grupo_91031" data-name="Grupo 91031" transform="translate(0 10.938)">
        <g id="Grupo_91026" data-name="Grupo 91026" transform="translate(1.256 22.725)">
          <path id="Trazado_143620" data-name="Trazado 143620" d="M-290.991,2514.1a.152.152,0,0,1-.128.025.151.151,0,0,1-.111-.183h0q.071-.292.136-.587a.153.153,0,0,1,.181-.117.153.153,0,0,1,.117.18h0q-.064.3-.137.6A.151.151,0,0,1-290.991,2514.1Z" transform="translate(326.341 -2513.234)" fill="#fa91b3"/>
          <path id="Trazado_143621" data-name="Trazado 143621" d="M-300.007,2524.517a.152.152,0,0,1-.211-.027.152.152,0,0,1,.025-.212c.3-.242.6-.5.886-.758a.15.15,0,0,1,.212.009h0a.151.151,0,0,1-.009.214h0c-.292.264-.6.524-.9.77Zm-1.554,1.118-.008.006c-.332.213-.675.419-1.018.614a.15.15,0,0,1-.2-.059.15.15,0,0,1,.056-.2h0c.341-.189.675-.391,1-.6a.152.152,0,0,1,.21.045h0A.154.154,0,0,1-301.561,2525.635Zm3.8-3.24a.15.15,0,0,1-.191-.008.152.152,0,0,1-.011-.214c.258-.288.511-.589.75-.894a.152.152,0,0,1,.212-.025h0a.151.151,0,0,1,.026.212h0c-.245.31-.5.613-.766.908A.08.08,0,0,1-297.765,2522.4Zm-6.523,4.694a.175.175,0,0,1-.031.018c-.361.156-.731.3-1.1.437a.153.153,0,0,1-.195-.092.151.151,0,0,1,.091-.194h0c.365-.131.73-.273,1.086-.43a.153.153,0,0,1,.2.08.152.152,0,0,1-.05.184Zm8.392-7.154a.149.149,0,0,1-.172.006.151.151,0,0,1-.047-.209h0l.058-.092c.187-.3.37-.6.54-.912a.151.151,0,0,1,.2-.059.151.151,0,0,1,.06.2c-.173.313-.358.625-.546.927l-.059.092a.142.142,0,0,1-.038.04Zm-11.319,8.144a.152.152,0,0,1-.055.025c-.383.1-.773.181-1.159.253a.15.15,0,0,1-.176-.118v0a.153.153,0,0,1,.122-.177c.38-.068.765-.154,1.141-.248a.151.151,0,0,1,.184.109v0a.151.151,0,0,1-.054.158Zm12.761-10.874a.15.15,0,0,1-.15.018.15.15,0,0,1-.08-.2h0c.153-.357.3-.722.427-1.087a.151.151,0,0,1,.192-.092h0a.152.152,0,0,1,.092.194c-.132.371-.279.743-.433,1.106a.157.157,0,0,1-.047.061Zm-15.809,11.375a.145.145,0,0,1-.078.03c-.394.033-.793.052-1.186.06a.154.154,0,0,1-.155-.149.151.151,0,0,1,.149-.154h0c.387-.007.778-.028,1.166-.06a.151.151,0,0,1,.164.136.151.151,0,0,1-.059.137Zm-3.088,0a.146.146,0,0,1-.1.03c-.393-.033-.789-.077-1.179-.137a.151.151,0,0,1-.129-.171h0a.152.152,0,0,1,.171-.129h0c.383.056.773.1,1.159.132a.151.151,0,0,1,.136.164.149.149,0,0,1-.052.111Zm-3.045-.5a.153.153,0,0,1-.128.025c-.382-.1-.765-.2-1.14-.326a.152.152,0,0,1-.1-.19h0a.151.151,0,0,1,.19-.1h0c.37.118.75.226,1.122.321a.152.152,0,0,1,.111.185h0a.156.156,0,0,1-.053.083Zm-2.921-1a.148.148,0,0,1-.152.018c-.361-.157-.721-.328-1.071-.509a.153.153,0,0,1-.068-.2.152.152,0,0,1,.2-.069h0c.346.177.7.345,1.056.5a.153.153,0,0,1,.077.2.148.148,0,0,1-.043.063Zm-2.719-1.463a.153.153,0,0,1-.173.005c-.333-.215-.661-.442-.976-.676a.151.151,0,0,1-.032-.211.153.153,0,0,1,.212-.033c.31.23.633.454.961.666a.152.152,0,0,1,.045.21h0a.148.148,0,0,1-.034.038Zm-2.448-1.884a.153.153,0,0,1-.193-.01c-.291-.264-.577-.541-.853-.826a.152.152,0,0,1,0-.214.152.152,0,0,1,.215,0c.273.279.554.552.839.813a.152.152,0,0,1,.01.215.265.265,0,0,1-.016.022Zm-2.107-2.26a.153.153,0,0,1-.21-.028c-.105-.136-.209-.269-.31-.405-.137-.182-.267-.366-.394-.55a.152.152,0,0,1,.033-.2h0a.152.152,0,0,1,.211.038c.125.181.255.362.388.542.1.136.2.266.306.4a.152.152,0,0,1-.025.212h0Z" transform="translate(328.821 -2513.411)" fill="#fa91b3"/>
          <path id="Trazado_143622" data-name="Trazado 143622" d="M-328.391,2519.047l-.018.011a.152.152,0,0,1-.2-.06c-.1-.179-.194-.36-.286-.541a.151.151,0,0,1,.065-.2h0a.152.152,0,0,1,.2.067h0c.091.179.184.356.281.533A.153.153,0,0,1-328.391,2519.047Z" transform="translate(328.916 -2513.575)" fill="#fa91b3"/>
        </g>
        <g id="Grupo_91027" data-name="Grupo 91027">
          <path id="Trazado_143623" data-name="Trazado 143623" d="M-330.019,2503.458a.148.148,0,0,1-.136.024.151.151,0,0,1-.1-.187v0q.088-.292.186-.583a.152.152,0,0,1,.193-.095.151.151,0,0,1,.1.191h0c-.064.191-.125.383-.184.574A.144.144,0,0,1-330.019,2503.458Z" transform="translate(330.264 -2489.782)" fill="#fa91b3"/>
          <path id="Trazado_143624" data-name="Trazado 143624" d="M-295.975,2497.865l-.009.007a.152.152,0,0,1-.21-.047c-.219-.346-.452-.689-.693-1.023a.151.151,0,0,1,.032-.211h0a.152.152,0,0,1,.212.033c.246.336.483.686.705,1.037A.151.151,0,0,1-295.975,2497.865Zm-1.978-2.591a.153.153,0,0,1-.2-.019c-.272-.3-.565-.6-.86-.887a.149.149,0,0,1-.006-.212v0a.152.152,0,0,1,.214,0h0c.3.289.594.592.874.9a.152.152,0,0,1-.01.215Zm-2.4-2.212a.152.152,0,0,1-.184,0c-.322-.25-.661-.493-1-.723a.151.151,0,0,1-.041-.21h0a.151.151,0,0,1,.211-.041h0c.347.233.689.477,1.017.734a.152.152,0,0,1,.027.213h0a.13.13,0,0,1-.029.024Zm-2.741-1.769a.153.153,0,0,1-.163.013c-.362-.193-.735-.374-1.108-.542a.151.151,0,0,1-.076-.2h0a.153.153,0,0,1,.2-.076c.38.171.759.355,1.126.551a.153.153,0,0,1,.063.205.139.139,0,0,1-.042.048Zm-3-1.274a.146.146,0,0,1-.136.022c-.39-.125-.788-.24-1.185-.34a.152.152,0,0,1-.11-.185h0a.151.151,0,0,1,.184-.11h0c.4.1.808.219,1.2.347a.152.152,0,0,1,.1.19h0a.153.153,0,0,1-.056.072Zm-3.176-.731a.149.149,0,0,1-.112.029c-.405-.058-.818-.1-1.227-.131a.151.151,0,0,1-.14-.163.15.15,0,0,1,.16-.14h0c.415.03.834.074,1.246.132a.153.153,0,0,1,.13.172.151.151,0,0,1-.061.1Zm-3.256-.171a.147.147,0,0,1-.085.03c-.409.014-.824.042-1.231.083a.152.152,0,0,1-.166-.136.15.15,0,0,1,.134-.167h0c.415-.041.836-.068,1.251-.084a.153.153,0,0,1,.157.147.152.152,0,0,1-.062.126Zm-16.493,10.948a.155.155,0,0,1-.156.016.152.152,0,0,1-.074-.2v0c.175-.377.364-.754.564-1.12a.153.153,0,0,1,.2-.061.153.153,0,0,1,.06.2c-.2.36-.383.731-.554,1.1a.17.17,0,0,1-.045.061Zm13.255-10.557a.132.132,0,0,1-.059.026c-.4.085-.8.183-1.2.292a.151.151,0,0,1-.186-.1h0a.152.152,0,0,1,.105-.187c.4-.112.811-.211,1.219-.3a.151.151,0,0,1,.179.115v0a.153.153,0,0,1-.059.15Zm-11.637,7.725a.153.153,0,0,1-.177,0,.152.152,0,0,1-.04-.211h0c.237-.341.488-.682.745-1.008a.154.154,0,0,1,.214-.025.153.153,0,0,1,.023.214c-.254.319-.5.653-.733.991a.242.242,0,0,1-.034.033Zm8.514-6.784a.143.143,0,0,1-.035.021c-.38.15-.76.317-1.13.494a.153.153,0,0,1-.2-.072h0a.151.151,0,0,1,.067-.2l.006,0c.375-.179.762-.348,1.149-.5a.151.151,0,0,1,.2.084h0a.151.151,0,0,1-.048.178Zm-6.436,4.268a.149.149,0,0,1-.2-.013.152.152,0,0,1,0-.215c.292-.3.6-.588.908-.865a.151.151,0,0,1,.213.01l0,0a.154.154,0,0,1-.013.215c-.307.273-.607.558-.894.85Zm3.522-2.805-.012.008c-.349.215-.694.445-1.029.682a.151.151,0,0,1-.212-.036h0a.152.152,0,0,1,.035-.211c.341-.241.691-.477,1.045-.693a.154.154,0,0,1,.21.049.153.153,0,0,1-.039.2Z" transform="translate(330.195 -2488.842)" fill="#fa91b3"/>
          <path id="Trazado_143625" data-name="Trazado 143625" d="M-292.229,2500.961l-.029.017a.153.153,0,0,1-.2-.073l0,0q-.123-.272-.255-.546a.151.151,0,0,1,.066-.2h0a.152.152,0,0,1,.2.066h0c.09.182.178.366.26.554A.154.154,0,0,1-292.229,2500.961Z" transform="translate(327.699 -2489.614)" fill="#fa91b3"/>
        </g>
        <g id="Grupo_91030" data-name="Grupo 91030" transform="translate(3.564 4.555)">
          <g id="Grupo_91028" data-name="Grupo 91028">
            <path id="Trazado_143626" data-name="Trazado 143626" d="M-297.96,2503.912a.225.225,0,0,0-.19-.182l-2.727-.387a12,12,0,0,0-2.142-3.241l.714-2.659a.227.227,0,0,0-.092-.247l-2.736-1.849a.225.225,0,0,0-.262.008l-2.2,1.654a11.966,11.966,0,0,0-3.807-.777l-1.376-2.387a.224.224,0,0,0-.238-.109l-3.241.628a.226.226,0,0,0-.182.191l-.387,2.727a12.009,12.009,0,0,0-3.242,2.141l-2.659-.713a.227.227,0,0,0-.246.092l-1.848,2.736a.227.227,0,0,0,.007.263l1.654,2.2a11.975,11.975,0,0,0-.776,3.807l-2.387,1.376a.226.226,0,0,0-.109.239l.627,3.242a.226.226,0,0,0,.191.181l2.727.386a12,12,0,0,0,2.141,3.243l-.713,2.659a.225.225,0,0,0,.091.247l2.737,1.848a.225.225,0,0,0,.262-.006l2.2-1.654a12,12,0,0,0,3.807.776l1.376,2.387a.226.226,0,0,0,.239.109l3.242-.628a.228.228,0,0,0,.182-.191l.386-2.727a11.99,11.99,0,0,0,3.242-2.14l2.659.712a.226.226,0,0,0,.247-.091l1.848-2.736a.225.225,0,0,0-.007-.263l-1.654-2.2a12,12,0,0,0,.777-3.807l2.387-1.376a.226.226,0,0,0,.109-.24Z" transform="translate(326.439 -2493.731)" fill="#fa91b3"/>
          </g>
          <g id="Grupo_91029" data-name="Grupo 91029" transform="translate(11.472 11.471)">
            <path id="Trazado_143627" data-name="Trazado 143627" d="M-309.193,2511.6a3.079,3.079,0,0,1-2.895.431,3.061,3.061,0,0,1-1.744-1.591,3.062,3.062,0,0,1-.108-2.357,3.073,3.073,0,0,1,1.591-1.745,3.065,3.065,0,0,1,2.358-.106,3.086,3.086,0,0,1,1.851,3.948A3.057,3.057,0,0,1-309.193,2511.6Zm-3.512-4.695a2.762,2.762,0,0,0-.948,1.281,2.763,2.763,0,0,0,.1,2.125,2.758,2.758,0,0,0,1.573,1.432,2.785,2.785,0,0,0,3.56-1.669,2.786,2.786,0,0,0-1.67-3.56,2.76,2.76,0,0,0-2.125.1,2.852,2.852,0,0,0-.487.292Z" transform="translate(314.125 -2506.044)" fill="#fbbdd8"/>
          </g>
          <path id="Trazado_143628" data-name="Trazado 143628" d="M-306.621,2515.288a8.136,8.136,0,0,1-9.405.222,8.081,8.081,0,0,1-1.961-1.87,8.134,8.134,0,0,1-.22-9.4,8.061,8.061,0,0,1,5.182-3.427,8.066,8.066,0,0,1,6.089,1.244,8.078,8.078,0,0,1,1.219,1.008c.035.033.068.068.1.105l.012.015a.154.154,0,0,1-.018.2.152.152,0,0,1-.215,0,7.823,7.823,0,0,0-1.273-1.072,7.759,7.759,0,0,0-5.864-1.2,7.763,7.763,0,0,0-4.991,3.3,7.829,7.829,0,0,0,.212,9.051,7.79,7.79,0,0,0,1.888,1.8,7.827,7.827,0,0,0,10.853-2.1,7.8,7.8,0,0,0,1.328-3.946.153.153,0,0,1,.16-.143.147.147,0,0,1,.114.061.145.145,0,0,1,.03.1,8.1,8.1,0,0,1-1.38,4.1A8.1,8.1,0,0,1-306.621,2515.288Z" transform="translate(325.971 -2494.205)" fill="#fbbdd8"/>
        </g>
      </g>
      <g id="Grupo_91037" data-name="Grupo 91037" transform="translate(30.031)">
        <g id="Grupo_91032" data-name="Grupo 91032" transform="translate(3.726 12.818)">
          <path id="Trazado_143629" data-name="Trazado 143629" d="M-268.164,2491.483a.112.112,0,0,1-.085.045.112.112,0,0,1-.116-.107c-.006-.148-.015-.3-.025-.441a.112.112,0,0,1,.1-.119.112.112,0,0,1,.119.1c.011.148.02.3.026.447A.113.113,0,0,1-268.164,2491.483Z" transform="translate(292.279 -2490.86)" fill="#fa91b3"/>
          <path id="Trazado_143630" data-name="Trazado 143630" d="M-272.341,2500.164a.111.111,0,0,1-.154.023.11.11,0,0,1-.026-.154h0c.163-.231.322-.472.471-.715a.113.113,0,0,1,.154-.037.112.112,0,0,1,.035.154c-.151.246-.313.491-.477.727Zm-.868,1.1-.006.007c-.19.218-.389.433-.593.638a.112.112,0,0,1-.157,0,.111.111,0,0,1,0-.156l0,0c.2-.205.4-.414.584-.628a.112.112,0,0,1,.157-.011.111.111,0,0,1,.014.152Zm2.019-3.055a.113.113,0,0,1-.137.033.112.112,0,0,1-.051-.149c.124-.255.241-.519.348-.783a.113.113,0,0,1,.146-.061.11.11,0,0,1,.06.145c-.109.268-.228.536-.353.8l-.013.019Zm-3.644,4.637a.092.092,0,0,1-.019.019c-.222.184-.454.362-.689.533a.113.113,0,0,1-.156-.025.113.113,0,0,1,.024-.156h0c.231-.167.459-.341.678-.523a.11.11,0,0,1,.156.013v0a.111.111,0,0,1,0,.135Zm4.46-6.75a.113.113,0,0,1-.12.04.111.111,0,0,1-.075-.137l.022-.076c.068-.248.136-.5.194-.75a.111.111,0,0,1,.133-.085h0a.111.111,0,0,1,.085.132v0c-.059.255-.125.512-.2.764l-.023.078a.086.086,0,0,1-.018.029Zm-6.32,8.04a.14.14,0,0,1-.033.029c-.252.145-.509.284-.767.409a.112.112,0,0,1-.15-.049.113.113,0,0,1,.05-.15c.254-.127.508-.264.754-.409a.112.112,0,0,1,.153.04.112.112,0,0,1-.008.13Zm6.783-10.257a.107.107,0,0,1-.1.043.111.111,0,0,1-.1-.123v0c.036-.281.062-.569.08-.853a.112.112,0,0,1,.117-.105h0a.113.113,0,0,1,.105.118c-.018.289-.046.581-.081.867a.117.117,0,0,1-.023.054Zm-8.83,11.229a.105.105,0,0,1-.048.037c-.272.1-.545.2-.824.283a.111.111,0,0,1-.136-.074.11.11,0,0,1,.074-.136c.273-.084.545-.178.81-.278a.111.111,0,0,1,.143.065.109.109,0,0,1-.019.1Zm-2.174.628a.117.117,0,0,1-.068.042c-.284.057-.573.105-.858.146a.112.112,0,0,1-.126-.1.111.111,0,0,1,.1-.125h0c.28-.038.565-.086.844-.142a.111.111,0,0,1,.13.086h0a.108.108,0,0,1-.02.089Zm-2.251.262a.108.108,0,0,1-.084.044c-.289.01-.581.01-.871,0a.11.11,0,0,1-.108-.114h0a.111.111,0,0,1,.115-.108c.284.007.573.007.856,0a.111.111,0,0,1,.115.107h0a.116.116,0,0,1-.02.07Zm-2.261-.111a.112.112,0,0,1-.1.044c-.286-.039-.576-.086-.859-.142a.111.111,0,0,1-.088-.13.112.112,0,0,1,.131-.088c.279.055.563.1.844.137a.11.11,0,0,1,.1.125.109.109,0,0,1-.021.055Zm-2.214-.477a.109.109,0,0,1-.12.039c-.279-.084-.556-.178-.826-.278a.111.111,0,0,1-.068-.142h0a.112.112,0,0,1,.143-.069h0c.265.1.539.191.812.272a.111.111,0,0,1,.074.137.093.093,0,0,1-.014.038Zm-2.107-.83a.111.111,0,0,1-.136.032c-.259-.127-.518-.264-.77-.409a.112.112,0,0,1-.041-.152.111.111,0,0,1,.152-.041h0c.249.142.5.277.757.4a.11.11,0,0,1,.051.147v0l-.012.017Zm-1.944-1.165a.111.111,0,0,1-.153.024c-.1-.074-.2-.147-.3-.223-.132-.1-.264-.205-.39-.308a.112.112,0,0,1-.019-.154v0a.112.112,0,0,1,.157-.016c.124.1.252.2.383.3l.3.219a.112.112,0,0,1,.025.156Z" transform="translate(293.932 -2490.995)" fill="#fa91b3"/>
          <path id="Trazado_143631" data-name="Trazado 143631" d="M-293.521,2502.573l-.01.011a.111.111,0,0,1-.157,0c-.106-.106-.21-.213-.312-.323a.111.111,0,0,1,.006-.156h0a.113.113,0,0,1,.157,0c.1.109.2.214.307.318A.112.112,0,0,1-293.521,2502.573Z" transform="translate(294.031 -2491.626)" fill="#fa91b3"/>
        </g>
        <g id="Grupo_91033" data-name="Grupo 91033">
          <path id="Trazado_143632" data-name="Trazado 143632" d="M-297.83,2491.915a.111.111,0,0,1-.089.044.112.112,0,0,1-.111-.112h0c0-.149.007-.3.014-.449a.11.11,0,0,1,.115-.106h0a.112.112,0,0,1,.107.115h0c-.007.147-.011.294-.013.441A.108.108,0,0,1-297.83,2491.915Z" transform="translate(298.03 -2478.072)" fill="#fa91b3"/>
          <path id="Trazado_143633" data-name="Trazado 143633" d="M-274.819,2480.763l-.006.006a.111.111,0,0,1-.157.009h0c-.224-.2-.459-.394-.7-.578a.112.112,0,0,1-.021-.155h0a.113.113,0,0,1,.157-.02c.241.188.477.386.707.588A.112.112,0,0,1-274.819,2480.763Zm-1.921-1.426a.111.111,0,0,1-.146.028c-.255-.158-.52-.309-.786-.449a.11.11,0,0,1-.047-.15h0a.111.111,0,0,1,.149-.048h0c.273.143.539.3.8.456a.111.111,0,0,1,.036.153Zm-2.138-1.072a.109.109,0,0,1-.13.035c-.279-.109-.566-.212-.852-.306a.11.11,0,0,1-.068-.14.109.109,0,0,1,.14-.068c.291.094.582.2.865.311a.111.111,0,0,1,.063.145.185.185,0,0,1-.021.023Zm-2.291-.69a.111.111,0,0,1-.113.042c-.293-.062-.593-.114-.891-.156a.111.111,0,0,1-.094-.125v0a.111.111,0,0,1,.126-.094c.3.043.607.1.906.16a.111.111,0,0,1,.087.131.115.115,0,0,1-.021.044Zm-2.376-.287a.111.111,0,0,1-.091.044c-.3-.01-.606-.01-.9,0a.111.111,0,0,1-.116-.107.112.112,0,0,1,.108-.115c.3-.011.614-.011.92,0a.111.111,0,0,1,.106.115.1.1,0,0,1-.022.063Zm-2.386.13a.11.11,0,0,1-.074.043c-.3.042-.6.095-.891.156a.11.11,0,0,1-.131-.085h0a.112.112,0,0,1,.085-.133c.3-.062.6-.116.906-.159a.112.112,0,0,1,.126.1h0A.115.115,0,0,1-285.931,2477.418Zm-2.329.54a.11.11,0,0,1-.055.04c-.286.093-.572.2-.851.307a.11.11,0,0,1-.143-.059l0,0a.111.111,0,0,1,.061-.144h0c.282-.114.574-.219.865-.314a.111.111,0,0,1,.14.068.112.112,0,0,1-.016.1Zm-9.4,11.068a.114.114,0,0,1-.105.043.111.111,0,0,1-.093-.127c.046-.3.1-.606.17-.9a.111.111,0,0,1,.131-.085h0a.11.11,0,0,1,.085.132v0c-.064.293-.12.592-.166.886a.108.108,0,0,1-.025.051Zm7.2-10.134a.128.128,0,0,1-.036.032c-.266.14-.53.292-.785.449a.112.112,0,0,1-.154-.037.112.112,0,0,1,.036-.153c.26-.16.528-.314.8-.457a.11.11,0,0,1,.15.045h0a.111.111,0,0,1-.01.118Zm-6.632,7.809a.11.11,0,0,1-.124.037.11.11,0,0,1-.068-.141c.1-.29.2-.58.321-.862a.111.111,0,0,1,.144-.062h0a.111.111,0,0,1,.062.146c-.114.278-.22.563-.316.85a.128.128,0,0,1-.019.031Zm4.621-6.512a.08.08,0,0,1-.021.021c-.237.185-.471.378-.7.578a.111.111,0,0,1-.156-.008h0a.11.11,0,0,1,.007-.155l0,0c.228-.2.467-.4.708-.587a.111.111,0,0,1,.157.021.109.109,0,0,1,0,.135Zm-3.668,4.317a.11.11,0,0,1-.142.03.111.111,0,0,1-.045-.151h0c.145-.267.3-.535.465-.792a.11.11,0,0,1,.15-.039l0,0a.113.113,0,0,1,.035.154c-.161.253-.315.516-.457.781Zm1.91-2.692-.007.007c-.2.223-.4.456-.586.689a.11.11,0,0,1-.155.02h0a.112.112,0,0,1-.018-.156c.19-.239.39-.478.6-.7a.112.112,0,0,1,.157-.007.112.112,0,0,1,.018.15Z" transform="translate(298.018 -2477.102)" fill="#fa91b3"/>
          <path id="Trazado_143634" data-name="Trazado 143634" d="M-271.712,2482.477l-.017.018a.112.112,0,0,1-.157-.012h0c-.1-.112-.192-.224-.292-.333a.111.111,0,0,1,.007-.156h0a.11.11,0,0,1,.157.007c.1.111.2.225.3.341A.11.11,0,0,1-271.712,2482.477Z" transform="translate(296.266 -2477.434)" fill="#fa91b3"/>
        </g>
        <g id="Grupo_91036" data-name="Grupo 91036" transform="translate(3.405 3.539)">
          <g id="Grupo_91034" data-name="Grupo 91034">
            <path id="Trazado_143635" data-name="Trazado 143635" d="M-274.954,2485.487a.166.166,0,0,0-.171-.088l-2,.281a8.828,8.828,0,0,0-2.168-1.85l-.037-2.018a.165.165,0,0,0-.115-.153l-2.3-.75a.167.167,0,0,0-.184.058l-1.215,1.612a8.784,8.784,0,0,0-2.84.227l-1.455-1.4a.165.165,0,0,0-.19-.028l-2.158,1.1a.165.165,0,0,0-.089.17l.281,2a8.83,8.83,0,0,0-1.849,2.168l-2.018.037a.165.165,0,0,0-.154.115l-.75,2.3a.168.168,0,0,0,.058.184l1.613,1.215a8.752,8.752,0,0,0,.226,2.84l-1.4,1.455a.166.166,0,0,0-.029.19l1.1,2.158a.166.166,0,0,0,.171.088l2-.281a8.8,8.8,0,0,0,2.168,1.849l.037,2.018a.169.169,0,0,0,.115.156l2.3.746a.166.166,0,0,0,.184-.059l1.214-1.612a8.787,8.787,0,0,0,2.841-.226l1.455,1.4a.167.167,0,0,0,.19.028l2.158-1.1a.167.167,0,0,0,.089-.17l-.282-2a8.8,8.8,0,0,0,1.85-2.168l2.018-.037a.166.166,0,0,0,.154-.114l.75-2.3a.166.166,0,0,0-.058-.184l-1.613-1.215a8.8,8.8,0,0,0-.226-2.84l1.4-1.455a.168.168,0,0,0,.029-.19Z" transform="translate(294.375 -2480.901)" fill="#fa91b3"/>
          </g>
          <g id="Grupo_91035" data-name="Grupo 91035" transform="translate(8.238 8.244)">
            <path id="Trazado_143636" data-name="Trazado 143636" d="M-281.468,2493.373a2.261,2.261,0,0,1-1.952.892,2.247,2.247,0,0,1-1.552-.767,2.25,2.25,0,0,1-.556-1.637,2.25,2.25,0,0,1,.768-1.551,2.248,2.248,0,0,1,1.636-.556,2.265,2.265,0,0,1,2.107,2.406A2.242,2.242,0,0,1-281.468,2493.373Zm-3.43-2.6a2.03,2.03,0,0,0-.409,1.1,2.027,2.027,0,0,0,.5,1.479,2.026,2.026,0,0,0,1.4.691,2.045,2.045,0,0,0,2.17-1.9,2.042,2.042,0,0,0-1.9-2.169,2.026,2.026,0,0,0-1.478.5A2.074,2.074,0,0,0-284.9,2490.778Z" transform="translate(285.533 -2489.749)" fill="#fbbdd8"/>
          </g>
          <path id="Trazado_143637" data-name="Trazado 143637" d="M-278.842,2495.363a5.967,5.967,0,0,1-6.583,2.068,5.935,5.935,0,0,1-1.763-.919,5.967,5.967,0,0,1-2.066-6.583,5.92,5.92,0,0,1,2.957-3.469,5.921,5.921,0,0,1,4.545-.361,6.034,6.034,0,0,1,1.063.461l.1.054.011.007a.113.113,0,0,1,.029.146.113.113,0,0,1-.153.04,5.712,5.712,0,0,0-1.114-.5,5.692,5.692,0,0,0-4.374.347,5.7,5.7,0,0,0-2.847,3.341,5.742,5.742,0,0,0,1.99,6.336,5.681,5.681,0,0,0,1.7.886,5.739,5.739,0,0,0,7.221-3.686,5.725,5.725,0,0,0,.136-3.051.111.111,0,0,1,.081-.135h0a.108.108,0,0,1,.092.018.112.112,0,0,1,.041.063,5.948,5.948,0,0,1-.137,3.17A5.946,5.946,0,0,1-278.842,2495.363Z" transform="translate(294.045 -2481.236)" fill="#fbbdd8"/>
        </g>
      </g>
    </g>
    <g id="Grupo_91041" data-name="Grupo 91041" transform="translate(-399.835 2506.027)">
      <g id="Grupo_91040" data-name="Grupo 91040" transform="translate(8.269)">
        <path id="Trazado_143638" data-name="Trazado 143638" d="M-223.084,2609.221a2.918,2.918,0,0,1-2.911,2.908H-383.384a2.918,2.918,0,0,1-2.911-2.908l-1.31-90.447a5.068,5.068,0,0,1,5.337-4.487l153.82-3.98a7.343,7.343,0,0,1,5.373,2.139,7.325,7.325,0,0,1,2.153,5.362Z" transform="translate(387.604 -2510.304)" fill="url(#linear-gradient-2)"/>
        <path id="Trazado_143639" data-name="Trazado 143639" d="M-225.661,2606.684a2.763,2.763,0,0,1-2.754,2.753H-379.295a2.762,2.762,0,0,1-2.753-2.753l-1.236-82.109a6.779,6.779,0,0,1,7.1-6.614l147.426-3.955a5.144,5.144,0,0,1,3.775,1.5,5.147,5.147,0,0,1,1.509,3.771Z" transform="translate(387.309 -2510.557)" fill="url(#linear-gradient-3)"/>
        <g id="Grupo_91039" data-name="Grupo 91039" transform="translate(6.013 7.856)">
          <path id="Trazado_143640" data-name="Trazado 143640" d="M-380.232,2570.933a.26.26,0,0,1-.259-.256l-.1-6.659a.26.26,0,0,1,.255-.264h0a.262.262,0,0,1,.265.256h0l.1,6.659a.259.259,0,0,1-.254.264h-.006Z" transform="translate(381.112 -2521.812)" fill="#fff" opacity="0.37" style="isolation: isolate"/>
          <path id="Trazado_143641" data-name="Trazado 143641" d="M-380.51,2551.539a.259.259,0,0,1-.259-.256l-.375-25.5a5.434,5.434,0,0,1,1.569-4.076,7.448,7.448,0,0,1,4.943-1.7l47.075-1.262a.255.255,0,0,1,.267.242v.01a.261.261,0,0,1-.252.266l-47.091,1.263a6.9,6.9,0,0,0-4.583,1.562,4.929,4.929,0,0,0-1.411,3.7l.375,25.5a.26.26,0,0,1-.256.264h0Z" transform="translate(381.15 -2518.736)" fill="#fff" opacity="0.37" style="isolation: isolate"/>
        </g>
        <path id="Trazado_143642" data-name="Trazado 143642" d="M-374.844,2602.582c.157-6.786.1-66.881-.291-72.074s7.695-6.164,20.1-6.75,117.119-2.9,119.815-3.115c6.061-.491,7.316,8.567,6.709,28.23-.456,14.773-1.21,39.111-1.558,50.3a6.176,6.176,0,0,1-6.161,5.985c-25.2.068-121.772.347-128.2.537C-371.824,2605.923-374.907,2605.272-374.844,2602.582Z" transform="translate(386.753 -2511.009)" fill="#fff" opacity="0.29" style="isolation: isolate"/>
      </g>
      <path id="Trazado_143643" data-name="Trazado 143643" d="M-214.9,2627.072h-177.61a3.986,3.986,0,0,1-3.974-3.975,3.985,3.985,0,0,1,3.974-3.973H-214.9a3.986,3.986,0,0,1,3.974,3.973A3.986,3.986,0,0,1-214.9,2627.072Z" transform="translate(396.479 -2517.739)" fill="url(#linear-gradient-4)"/>
    </g>
    <g id="Grupo_91045" data-name="Grupo 91045" transform="translate(-294.096 2475.412)">
      <g id="Grupo_91044" data-name="Grupo 91044">
        <path id="Trazado_143644" data-name="Trazado 143644" d="M-271.091,2480.676c-.027.05-1.695,1.277-1.695,1.277s.369,2.636,1.864,3.676c1.644,1.144,3.966-.942,3.966-.942s1.848.439,2.831-3.409c.225-.883-1.076-.955-2.647-.8C-268.8,2480.694-271.091,2480.676-271.091,2480.676Z" transform="translate(282.288 -2477.647)" fill="url(#linear-gradient-5)"/>
        <path id="Trazado_143645" data-name="Trazado 143645" d="M-274.517,2490.264a7.055,7.055,0,0,1,2.138-.994c.288-.077,1.841.373,2.8.35,1.316-.03,2.656-.628,3.741-.358a7.807,7.807,0,0,1,2.469.981c1.524,1.083,2.42,3.105,2.965,5.107a6.988,6.988,0,0,1-2.332,1.533l-.241,9.732-5.756,2.945-6.568-3.3.235-9.512a9.919,9.919,0,0,1-2.24-1.325A8.541,8.541,0,0,1-274.517,2490.264Z" transform="translate(282.598 -2478.247)" fill="#84f47d"/>
        <path id="Trazado_143646" data-name="Trazado 143646" d="M-277.25,2495.838s-2.8,7.749,3.58,10.934c1.323-.176.813-2.374.813-2.374s-2.769-.613-1.938-7.078A17.906,17.906,0,0,0-277.25,2495.838Z" transform="translate(282.635 -2478.701)" fill="url(#linear-gradient-6)"/>
        <path id="Trazado_143647" data-name="Trazado 143647" d="M-259.641,2495.838s1.923,8.09-3.58,10.934c-1.323-.176-.814-2.374-.814-2.374s2.232-1.1,1.938-7.078A17.974,17.974,0,0,1-259.641,2495.838Z" transform="translate(281.697 -2478.701)" fill="url(#linear-gradient-7)"/>
        <rect id="Rectángulo_49851" data-name="Rectángulo 49851" width="12.621" height="8.523" rx="3.72" transform="translate(7.217 20.093)" fill="url(#linear-gradient-8)"/>
        <g id="Grupo_91042" data-name="Grupo 91042" transform="translate(19.451 30.887)">
          <path id="Trazado_143648" data-name="Trazado 143648" d="M-256.127,2510.856a25.423,25.423,0,0,0-4.783-.153l-.136.367-.225,1.828a38.131,38.131,0,0,0,4.746.572,1.454,1.454,0,0,0,.44-.068,1.842,1.842,0,0,0,.137-.136A1.723,1.723,0,0,0-256.127,2510.856Z" transform="translate(262.05 -2510.6)" fill="url(#linear-gradient-9)"/>
          <path id="Trazado_143649" data-name="Trazado 143649" d="M-261.926,2510.6l.566.024a1.091,1.091,0,0,1,.795.41,1.34,1.34,0,0,1,.291.916,1.052,1.052,0,0,1-.306.7.858.858,0,0,1-.661.251l-.865-.062Z" transform="translate(262.107 -2510.596)" fill="url(#linear-gradient-10)"/>
        </g>
        <g id="Grupo_91043" data-name="Grupo 91043" transform="translate(0 30.85)">
          <path id="Trazado_143650" data-name="Trazado 143650" d="M-282.361,2510.672a25.422,25.422,0,0,1,4.784-.006l.127.372.18,1.833a37.915,37.915,0,0,1-4.759.425,1.48,1.48,0,0,1-.439-.079c-.046-.044-.091-.091-.136-.14A1.72,1.72,0,0,1-282.361,2510.672Z" transform="translate(282.985 -2510.556)" fill="url(#linear-gradient-11)"/>
          <path id="Trazado_143651" data-name="Trazado 143651" d="M-276.271,2510.6l-.566.008a1.077,1.077,0,0,0-.8.386,1.329,1.329,0,0,0-.314.907,1.055,1.055,0,0,0,.289.706.859.859,0,0,0,.654.273l.866-.035Z" transform="translate(282.641 -2510.559)" fill="url(#linear-gradient-12)"/>
        </g>
        <path id="Trazado_143652" data-name="Trazado 143652" d="M-256.776,2504.616a2.475,2.475,0,0,0-3.621-1.047,90.658,90.658,0,0,1-16.275,6.4,8.269,8.269,0,0,1,.354,2.174c0,.162,0,.323-.007.482,5.84-.3,12.178-2.25,17.625-3.96a3.011,3.011,0,0,0,2.032-3.742C-256.7,2504.817-256.735,2504.715-256.776,2504.616Z" transform="translate(282.553 -2479.203)" fill="url(#linear-gradient-13)"/>
        <path id="Trazado_143653" data-name="Trazado 143653" d="M-263.229,2512.238a5.023,5.023,0,0,1,.492-2.353c.01-.034.021-.065.033-.1-.435-.136-1-.318-1.735-.568a83.256,83.256,0,0,1-13.47-5.87,2.464,2.464,0,0,0-3.413.711,2.445,2.445,0,0,0-.346.822,2.835,2.835,0,0,0,1.977,3.477c4.358,1.45,2.089,1.047,3.512,1.5a59.6,59.6,0,0,0,12.956,2.554C-263.223,2512.36-263.227,2512.3-263.229,2512.238Z" transform="translate(282.902 -2479.186)" fill="url(#linear-gradient-14)"/>
        <path id="Trazado_143654" data-name="Trazado 143654" d="M-272.018,2489.092a3.336,3.336,0,0,0,3.405,2.468,2.942,2.942,0,0,0,3.133-2.476l-1.878-.4-.157-2.093-2.826.208-.052,1.989Z" transform="translate(282.235 -2478.069)" fill="url(#linear-gradient-15)"/>
        <path id="Trazado_143655" data-name="Trazado 143655" d="M-269.887,2480.223s-3.239,6.273.6,7.795c2.709,1.074,4.408-4.166,3.9-5.585-.784-2.194-1.3-1.934-1.3-1.934Z" transform="translate(282.177 -2477.634)" fill="url(#linear-gradient-16)"/>
        <path id="Trazado_143656" data-name="Trazado 143656" d="M-264.715,2479.462c1.6.44.234,3.91-2.175,3.089s-3.355-.809-3.73-.147-.457,3.011-1.271,1.849c-.893-1.272-1.391-3.827-.3-4.651.979-.736,1.207-1.877,2.38-1.837,1.558.052,2.762-.638,3.465-.14C-265.535,2478.2-265.893,2479.139-264.715,2479.462Z" transform="translate(282.29 -2477.444)" fill="url(#linear-gradient-17)"/>
        <path id="Trazado_143657" data-name="Trazado 143657" d="M-270.68,2483.326s-.69-.742-.8.153.244,2.049.66,1.416A2.16,2.16,0,0,0-270.68,2483.326Z" transform="translate(282.2 -2477.826)" fill="url(#linear-gradient-18)"/>
      </g>
      <path id="Trazado_143658" data-name="Trazado 143658" d="M-267.784,2501.434a.77.77,0,0,1-.581.921l-.046.009a.828.828,0,0,1-.94-.7h0a.787.787,0,0,1,.562-.96l.031-.008A.891.891,0,0,1-267.784,2501.434Z" transform="translate(282.055 -2479.032)" fill="url(#linear-gradient-19)"/>
    </g>
    <g id="Grupo_91080" data-name="Grupo 91080" transform="translate(-427.223 2463.816)">
      <g id="Grupo_91046" data-name="Grupo 91046" transform="translate(14.175 18.062)">
        <path id="Trazado_143659" data-name="Trazado 143659" d="M-340.993,2554.944l-13.669.47a1.445,1.445,0,0,1-1.073-.409,1.456,1.456,0,0,1-.447-1.056v-5.207a4.681,4.681,0,0,0-1.406-3.359,4.679,4.679,0,0,0-3.285-1.354v-15.536a4.721,4.721,0,0,0-4.716-4.715H-380.9v3.246h15.307a1.472,1.472,0,0,1,1.469,1.469v15.576l-41.8.589a1.5,1.5,0,0,1-1.052-.423,1.459,1.459,0,0,1-.438-1.046v-49.9h-3.247v49.9a4.684,4.684,0,0,0,1.4,3.358,4.651,4.651,0,0,0,3.378,1.357l44.956-.633a1.5,1.5,0,0,1,1.053.423,1.46,1.46,0,0,1,.438,1.046v5.207a4.674,4.674,0,0,0,1.439,3.391,4.678,4.678,0,0,0,3.273,1.325h.168l13.558-.468Z" transform="translate(410.66 -2484.993)" fill="url(#linear-gradient-20)"/>
        <path id="Trazado_143660" data-name="Trazado 143660" d="M-340.369,2566.326l-36.89.631a4.739,4.739,0,0,0-4.637,4.716,1.47,1.47,0,0,1-1.469,1.468h-18.193v3.248h18.193a4.721,4.721,0,0,0,4.716-4.716,1.476,1.476,0,0,1,1.445-1.469l36.835-.63Z" transform="translate(410.038 -2489.983)" fill="url(#linear-gradient-21)"/>
        <path id="Trazado_143661" data-name="Trazado 143661" d="M-339.43,2573.641h-9.39a4.722,4.722,0,0,0-4.717,4.717v1.75a1.47,1.47,0,0,1-1.469,1.47h-28.087a4.721,4.721,0,0,0-4.716,4.716v6.325a4.673,4.673,0,0,0,1.443,3.4,4.672,4.672,0,0,0,3.266,1.32c.061,0,.12,0,.181,0l16.274-.6-.12-3.244-16.274.6a1.456,1.456,0,0,1-1.074-.409,1.454,1.454,0,0,1-.45-1.058V2586.3a1.471,1.471,0,0,1,1.47-1.469h28.087a4.721,4.721,0,0,0,4.716-4.716v-1.751a1.472,1.472,0,0,1,1.469-1.469h9.39Z" transform="translate(409.099 -2490.482)" fill="url(#linear-gradient-22)"/>
        <path id="Trazado_143662" data-name="Trazado 143662" d="M-338.933,2548.19h-7.228a1.47,1.47,0,0,1-1.47-1.468v-33.174a4.731,4.731,0,0,0-4.663-4.716c-5.229-.057-16.016-.017-21.979.011h-.014a2.992,2.992,0,0,1-2.985-2.957c-.023-2.5-.043-5.984,0-8.4a1.461,1.461,0,0,1,1.368-1.44l18.1-1.249-.223-3.239-18.1,1.248a4.693,4.693,0,0,0-4.392,4.621c-.044,2.455-.025,5.976,0,8.494a6.246,6.246,0,0,0,6.232,6.173h.03c5.953-.028,16.722-.068,21.929-.011a1.473,1.473,0,0,1,1.451,1.469v33.174a4.72,4.72,0,0,0,4.716,4.715h7.228Z" transform="translate(408.602 -2484.874)" fill="url(#linear-gradient-23)"/>
        <path id="Trazado_143663" data-name="Trazado 143663" d="M-232.507,2484.384v27.623a1.476,1.476,0,0,1-1.262,1.454l-7.316,1.045a4.738,4.738,0,0,0-4.049,4.669v25.57a1.468,1.468,0,0,1-1.311,1.461l-12.128,1.318v3.266l12.479-1.356a4.706,4.706,0,0,0,4.207-4.688v-25.57a1.478,1.478,0,0,1,1.261-1.455l7.316-1.044a4.74,4.74,0,0,0,4.049-4.669v-27.623Z" transform="translate(400.269 -2484.384)" fill="url(#linear-gradient-24)"/>
        <path id="Trazado_143664" data-name="Trazado 143664" d="M-210.5,2566.488v-12.383a1.473,1.473,0,0,1,1.456-1.47l5.932-.053a4.705,4.705,0,0,0,4.671-4.558l1.291-38.42-3.245-.109-1.291,38.419a1.465,1.465,0,0,1-1.455,1.42l-5.928.053a4.732,4.732,0,0,0-4.675,4.717v12.342l-2.436-.032a4.691,4.691,0,0,0-3.375,1.358,4.685,4.685,0,0,0-1.4,3.357v24.038a1.463,1.463,0,0,1-.437,1.046,1.477,1.477,0,0,1-1.051.423l-21.957-.281a1.475,1.475,0,0,1-1.45-1.469v-17.306a4.722,4.722,0,0,0-4.717-4.715h-8v3.246h8a1.47,1.47,0,0,1,1.469,1.469v17.3a4.734,4.734,0,0,0,4.657,4.715l21.956.282h.062a4.689,4.689,0,0,0,3.312-1.364,4.689,4.689,0,0,0,1.4-3.356v-24.038a1.452,1.452,0,0,1,.437-1.045,1.457,1.457,0,0,1,1.051-.423l24.286.32.043-3.247Z" transform="translate(400.269 -2486.1)" fill="url(#linear-gradient-25)"/>
        <path id="Trazado_143665" data-name="Trazado 143665" d="M-230.972,2606.093a2.046,2.046,0,0,1-2.046-2.02l-.526-38.461,8.857-.5a4.718,4.718,0,0,0,4.45-4.705v-13.673h-3.246v13.673a1.471,1.471,0,0,1-1.387,1.467l-33.7,1.909v3.252l21.78-1.234q.068,5.15.142,10.3c.045,3.348.491,24.469.588,30a2.671,2.671,0,0,0,2.67,2.671H-208.2V2606.1Z" transform="translate(400.268 -2488.644)" fill="url(#linear-gradient-26)"/>
      </g>
      <g id="Grupo_91050" data-name="Grupo 91050" transform="translate(2.912 4.947)">
        <g id="Grupo_91047" data-name="Grupo 91047">
          <path id="Trazado_143666" data-name="Trazado 143666" d="M-402.967,2470.307l-14.825.491c-2.877.468-4.957,2.6-4.957,5.091v13.626c0,2.864,2.734,5.182,6.1,5.182h13.357c3.372,0,6.1-2.318,6.1-5.182v-12.588C-397.182,2473.673-398.821,2470.3-402.967,2470.307Z" transform="translate(422.749 -2470.307)" fill="url(#linear-gradient-27)"/>
          <path id="Trazado_143667" data-name="Trazado 143667" d="M-403.224,2471.366l-13.86.448c-2.69.426-4.637,2.371-4.637,4.636v12.411c0,2.607,2.556,4.72,5.708,4.72h12.487c3.152,0,5.707-2.113,5.707-4.72V2477.4C-397.815,2474.431-399.349,2471.366-403.224,2471.366Z" transform="translate(422.679 -2470.379)" fill="#fff" opacity="0.89" style="isolation: isolate"/>
        </g>
        <g id="Grupo_91049" data-name="Grupo 91049" transform="translate(4.377 3.645)">
          <circle id="Elipse_4564" data-name="Elipse 4564" cx="8.346" cy="8.346" r="8.346" fill="url(#linear-gradient-28)"/>
          <g id="Grupo_91048" data-name="Grupo 91048" transform="translate(7.338 2.866)">
            <path id="Trazado_143668" data-name="Trazado 143668" d="M-410.173,2478.246a.934.934,0,0,1,.256-.694.964.964,0,0,1,.714-.255.944.944,0,0,1,.691.255.935.935,0,0,1,.259.694.91.91,0,0,1-.266.7.961.961,0,0,1-.682.249.994.994,0,0,1-.7-.249A.914.914,0,0,1-410.173,2478.246Zm1.841,9.333H-410.1v-7.4h1.766Z" transform="translate(410.175 -2477.295)" fill="url(#linear-gradient-29)"/>
          </g>
        </g>
      </g>
      <g id="Grupo_91054" data-name="Grupo 91054" transform="translate(208.815 23.977)">
        <g id="Grupo_91051" data-name="Grupo 91051">
          <path id="Trazado_143669" data-name="Trazado 143669" d="M-181.964,2490.733l-14.826.49c-2.877.468-4.957,2.6-4.957,5.092v13.625c0,2.864,2.734,5.182,6.105,5.182h13.357c3.373,0,6.105-2.318,6.105-5.182v-12.588C-176.18,2494.1-177.819,2490.733-181.964,2490.733Z" transform="translate(201.747 -2490.733)" fill="url(#linear-gradient-30)"/>
          <path id="Trazado_143670" data-name="Trazado 143670" d="M-182.222,2491.793l-13.861.447c-2.689.427-4.637,2.373-4.637,4.637v12.41c0,2.607,2.557,4.721,5.708,4.721h12.487c3.152,0,5.708-2.114,5.708-4.721v-11.463C-176.813,2494.857-178.346,2491.793-182.222,2491.793Z" transform="translate(201.677 -2490.805)" fill="#fff" opacity="0.89" style="isolation: isolate"/>
        </g>
        <g id="Grupo_91053" data-name="Grupo 91053" transform="translate(4.396 3.578)">
          <circle id="Elipse_4565" data-name="Elipse 4565" cx="8.397" cy="8.397" r="8.397" fill="url(#linear-gradient-31)"/>
          <g id="Grupo_91052" data-name="Grupo 91052" transform="translate(3.868 2.127)">
            <path id="Trazado_143671" data-name="Trazado 143671" d="M-192.7,2500.656c.654,4.745,3.076,6.968,6.356,7.97l1.893-1.522a11,11,0,0,1-6.9-7.826Z" transform="translate(192.866 -2497.022)" fill="url(#linear-gradient-32)"/>
            <path id="Trazado_143672" data-name="Trazado 143672" d="M-186.005,2509c2,.328,2.234.347,3.868-.737a.332.332,0,0,0,.093-.46.321.321,0,0,0-.061-.069l-2.884-2.46a.222.222,0,0,0-.314.025.258.258,0,0,0-.034.053l-.477,1.051Z" transform="translate(192.408 -2497.428)" fill="url(#linear-gradient-33)"/>
            <path id="Trazado_143673" data-name="Trazado 143673" d="M-192.785,2500.6c-.2-1.824-.164-2.1.964-3.614a.332.332,0,0,1,.465-.068.325.325,0,0,1,.064.063l2.3,3.011a.224.224,0,0,1-.045.313.21.21,0,0,1-.051.028l-1.074.42-2.4.049A.224.224,0,0,1-192.785,2500.6Z" transform="translate(192.877 -2496.856)" fill="url(#linear-gradient-34)"/>
          </g>
        </g>
      </g>
      <g id="Grupo_91057" data-name="Grupo 91057" transform="translate(166.442)">
        <g id="Grupo_91055" data-name="Grupo 91055" transform="translate(3.43)">
          <path id="Trazado_143674" data-name="Trazado 143674" d="M-223.764,2465l-14.826.491c-2.876.467-4.957,2.6-4.957,5.091V2484.2c0,2.864,2.734,5.183,6.105,5.183h13.356c3.372,0,6.105-2.319,6.105-5.183v-12.587C-217.979,2468.362-219.622,2464.993-223.764,2465Z" transform="translate(243.546 -2464.997)" fill="url(#linear-gradient-35)"/>
          <path id="Trazado_143675" data-name="Trazado 143675" d="M-224.022,2466.056l-13.861.446c-2.689.427-4.637,2.372-4.637,4.637v12.41c0,2.607,2.556,4.721,5.708,4.721h12.487c3.153,0,5.707-2.114,5.707-4.721v-11.463C-218.613,2469.121-220.146,2466.055-224.022,2466.056Z" transform="translate(243.476 -2465.069)" fill="#fff" opacity="0.89" style="isolation: isolate"/>
        </g>
        <g id="Grupo_91056" data-name="Grupo 91056" transform="translate(0 2.589)">
          <path id="Trazado_143676" data-name="Trazado 143676" d="M-235.631,2483.934l-11.251,10.778a1.122,1.122,0,0,0-.032,1.587c.02.021.04.041.061.06l.08.068a1.042,1.042,0,0,0,1.471-.083l0,0,10.358-11.75Z" transform="translate(247.227 -2468.88)" fill="url(#linear-gradient-36)"/>
          <ellipse id="Elipse_4566" data-name="Elipse 4566" cx="7.227" cy="7.096" rx="7.227" ry="7.096" transform="translate(6.986 5.828) rotate(-23.777)" fill="#fbbdd8"/>
          <path id="Trazado_143677" data-name="Trazado 143677" d="M-233.33,2470.066a7.97,7.97,0,0,0-4.176,10.469,7.97,7.97,0,0,0,10.542,3.986,7.97,7.97,0,0,0,4.176-10.469A7.97,7.97,0,0,0-233.33,2470.066Zm5.9,13.391a6.8,6.8,0,0,1-8.993-3.4,6.8,6.8,0,0,1,3.561-8.932h0a6.8,6.8,0,0,1,8.993,3.4,6.8,6.8,0,0,1-3.559,8.932Z" transform="translate(246.607 -2467.884)" fill="url(#linear-gradient-37)"/>
        </g>
      </g>
      <g id="Grupo_91060" data-name="Grupo 91060" transform="translate(19.063 46.034)">
        <g id="Grupo_91058" data-name="Grupo 91058">
          <path id="Trazado_143678" data-name="Trazado 143678" d="M-385.631,2514.407l-14.826.491c-2.877.468-4.957,2.6-4.957,5.091v13.625c0,2.864,2.734,5.182,6.105,5.182h13.357c3.372,0,6.1-2.318,6.1-5.182v-12.588C-379.847,2517.772-381.486,2514.4-385.631,2514.407Z" transform="translate(405.414 -2514.407)" fill="url(#linear-gradient-38)"/>
          <path id="Trazado_143679" data-name="Trazado 143679" d="M-385.889,2515.466l-13.86.448c-2.69.426-4.637,2.371-4.637,4.637v12.41c0,2.607,2.555,4.721,5.706,4.721h12.487c3.152,0,5.707-2.114,5.707-4.721V2521.5C-380.481,2518.531-382.014,2515.465-385.889,2515.466Z" transform="translate(405.344 -2514.479)" fill="#fff" opacity="0.89" style="isolation: isolate"/>
        </g>
        <g id="Grupo_91059" data-name="Grupo 91059" transform="translate(4.435 3.679)">
          <path id="Trazado_143680" data-name="Trazado 143680" d="M-392.416,2534.832a8.246,8.246,0,0,1-8.238-8.238,8.247,8.247,0,0,1,8.238-8.238,8.25,8.25,0,0,1,8.238,8.238A8.246,8.246,0,0,1-392.416,2534.832Zm0-15.095a6.865,6.865,0,0,0-6.856,6.858,6.864,6.864,0,0,0,6.856,6.857,6.864,6.864,0,0,0,6.857-6.857A6.866,6.866,0,0,0-392.416,2519.737Z" transform="translate(400.654 -2518.356)" fill="url(#linear-gradient-39)"/>
          <path id="Trazado_143681" data-name="Trazado 143681" d="M-394.579,2530.109v-5.922a.818.818,0,0,1,.822-.814.825.825,0,0,1,.411.113l4.991,2.96a.819.819,0,0,1,.282,1.123.821.821,0,0,1-.282.282l-4.991,2.961a.819.819,0,0,1-1.12-.292A.82.82,0,0,1-394.579,2530.109Z" transform="translate(400.239 -2518.699)" fill-rule="evenodd" fill="url(#linear-gradient-40)"/>
        </g>
      </g>
      <g id="Grupo_91062" data-name="Grupo 91062" transform="translate(180.941 54.384)">
        <g id="Grupo_91061" data-name="Grupo 91061">
          <path id="Trazado_143682" data-name="Trazado 143682" d="M-211.884,2523.369l-14.825.491c-2.877.468-4.956,2.6-4.956,5.091v13.626c0,2.864,2.733,5.183,6.1,5.183H-212.2c3.372,0,6.106-2.319,6.106-5.183v-12.589C-206.1,2526.735-207.738,2523.368-211.884,2523.369Z" transform="translate(231.665 -2523.369)" fill="url(#linear-gradient-41)"/>
          <path id="Trazado_143683" data-name="Trazado 143683" d="M-212.14,2524.428l-13.861.447c-2.69.426-4.637,2.372-4.637,4.637v12.41c0,2.607,2.555,4.721,5.707,4.721h12.488c3.151,0,5.707-2.114,5.707-4.721v-11.466C-206.733,2527.493-208.265,2524.427-212.14,2524.428Z" transform="translate(231.595 -2523.441)" fill="#fff" opacity="0.89" style="isolation: isolate"/>
        </g>
        <path id="Trazado_143684" data-name="Trazado 143684" d="M-226.551,2536.493c-.546-3.219.613-5.008,1.688-5.942,2.02-1.757,5.623-2.164,9.178-1.036,3.484,1.106,5.941,4.31,5.476,7.139-.185,1.123-1.138,3.577-5.916,3.965a23.668,23.668,0,0,0,3.609,1.426.479.479,0,0,1,.35.528.478.478,0,0,1-.468.419c-.14,0-.318.005-.527.005C-216.132,2543-225.525,2542.515-226.551,2536.493Zm13.8,6.386.1-.754-5.169-2.323c3.939.083,6.4-1.126,6.757-3.289.39-2.381-1.845-5.207-4.884-6.172-2.682-.852-6.3-.916-8.345.864-1.317,1.146-1.79,2.877-1.4,5.143.761,4.464,7,5.505,10.689,5.728a33.451,33.451,0,0,1-3.032-1.461l-1.513-.843Z" transform="translate(231.325 -2523.746)" fill="url(#linear-gradient-42)"/>
      </g>
      <g id="Grupo_91066" data-name="Grupo 91066" transform="translate(0 90.701)">
        <g id="Grupo_91063" data-name="Grupo 91063">
          <path id="Trazado_143685" data-name="Trazado 143685" d="M-406.093,2562.35l-14.826.49c-2.876.468-4.957,2.6-4.957,5.092v13.625c0,2.864,2.734,5.182,6.105,5.182h13.357c3.372,0,6.105-2.318,6.105-5.182v-12.588C-400.308,2565.715-401.947,2562.349-406.093,2562.35Z" transform="translate(425.875 -2562.35)" fill="url(#linear-gradient-43)"/>
          <path id="Trazado_143686" data-name="Trazado 143686" d="M-406.35,2563.409l-13.861.446c-2.689.427-4.636,2.372-4.636,4.637V2580.9c0,2.607,2.555,4.72,5.707,4.72h12.487c3.153,0,5.707-2.114,5.707-4.72v-11.463C-400.942,2566.473-402.475,2563.408-406.35,2563.409Z" transform="translate(425.805 -2562.422)" fill="#fff" opacity="0.89" style="isolation: isolate"/>
        </g>
        <g id="Grupo_91065" data-name="Grupo 91065" transform="translate(4.387 3.918)">
          <circle id="Elipse_4567" data-name="Elipse 4567" cx="8.397" cy="8.397" r="8.397" fill="url(#linear-gradient-44)"/>
          <g id="Grupo_91064" data-name="Grupo 91064" transform="translate(3.261 1.572)">
            <path id="Trazado_143687" data-name="Trazado 143687" d="M-409.392,2570.85a3.137,3.137,0,0,1-2.757,3.167,3.138,3.138,0,0,1-2.759-3.167,2.631,2.631,0,0,1,2.655-2.607l.1,0a2.631,2.631,0,0,1,2.754,2.5Q-409.393,2570.8-409.392,2570.85Z" transform="translate(417.478 -2568.243)" fill="url(#linear-gradient-45)"/>
            <path id="Trazado_143688" data-name="Trazado 143688" d="M-415.756,2580.368h6.731a1.629,1.629,0,0,0,1.552-1.133l.362-1.132a1.628,1.628,0,0,0-.983-2.026,12.546,12.546,0,0,0-8.474.092,1.621,1.621,0,0,0-1.04,1.967l.278,1.029A1.63,1.63,0,0,0-415.756,2580.368Z" transform="translate(417.666 -2568.731)" fill="url(#linear-gradient-46)"/>
          </g>
        </g>
      </g>
      <g id="Grupo_91069" data-name="Grupo 91069" transform="translate(214.766 88.354)">
        <g id="Grupo_91067" data-name="Grupo 91067">
          <path id="Trazado_143689" data-name="Trazado 143689" d="M-175.577,2559.83l-14.826.491c-2.877.469-4.956,2.605-4.956,5.091v13.625c0,2.864,2.733,5.182,6.105,5.182H-175.9c3.372,0,6.1-2.318,6.1-5.182v-12.588C-169.792,2563.2-171.431,2559.829-175.577,2559.83Z" transform="translate(195.359 -2559.83)" fill="url(#linear-gradient-47)"/>
          <path id="Trazado_143690" data-name="Trazado 143690" d="M-175.834,2560.889l-13.861.448c-2.69.426-4.637,2.371-4.637,4.637v12.41c0,2.607,2.555,4.721,5.707,4.721h12.487c3.152,0,5.707-2.114,5.707-4.721V2566.92C-170.426,2563.954-171.958,2560.888-175.834,2560.889Z" transform="translate(195.289 -2559.902)" fill="#fff" opacity="0.89" style="isolation: isolate"/>
        </g>
        <circle id="Elipse_4568" data-name="Elipse 4568" cx="8.399" cy="8.399" r="8.399" transform="translate(4.396 3.573)" fill="url(#linear-gradient-48)"/>
        <g id="Grupo_91068" data-name="Grupo 91068" transform="translate(7.316 7.596)">
          <path id="Trazado_143691" data-name="Trazado 143691" d="M-176.057,2567.983H-187.02a.487.487,0,0,0-.486.488.486.486,0,0,0,.486.485h10.963a.487.487,0,0,0,.487-.485.487.487,0,0,0-.487-.488Z" transform="translate(187.506 -2567.983)" fill="url(#linear-gradient-49)"/>
          <path id="Trazado_143692" data-name="Trazado 143692" d="M-177.056,2570.463h-9.888a.487.487,0,0,0-.486.487.487.487,0,0,0,.486.487h9.888a.488.488,0,0,0,.487-.486h0a.487.487,0,0,0-.487-.487Z" transform="translate(187.501 -2568.152)" fill="url(#linear-gradient-50)"/>
          <path id="Trazado_143693" data-name="Trazado 143693" d="M-178.208,2572.966h-8.812a.488.488,0,0,0-.486.487.486.486,0,0,0,.486.486h8.812a.486.486,0,0,0,.487-.486A.489.489,0,0,0-178.208,2572.966Z" transform="translate(187.506 -2568.323)" fill="url(#linear-gradient-51)"/>
          <path id="Trazado_143694" data-name="Trazado 143694" d="M-179.078,2575.169h-7.906a.487.487,0,0,0-.487.486.487.487,0,0,0,.486.487h7.907a.488.488,0,0,0,.486-.487A.487.487,0,0,0-179.078,2575.169Z" transform="translate(187.504 -2568.474)" fill="url(#linear-gradient-52)"/>
          <path id="Trazado_143695" data-name="Trazado 143695" d="M-180.17,2577.649h-6.736a.488.488,0,0,0-.488.486h0a.488.488,0,0,0,.488.487h6.736a.487.487,0,0,0,.487-.487.487.487,0,0,0-.486-.487Z" transform="translate(187.498 -2568.643)" fill="url(#linear-gradient-53)"/>
        </g>
      </g>
      <g id="Grupo_91072" data-name="Grupo 91072" transform="translate(60.583 13.747)">
        <g id="Grupo_91070" data-name="Grupo 91070">
          <path id="Trazado_143696" data-name="Trazado 143696" d="M-341.068,2479.752l-14.825.492c-2.876.468-4.957,2.6-4.957,5.09v13.625c0,2.864,2.734,5.182,6.105,5.182h13.357c3.372,0,6.105-2.318,6.105-5.182v-12.587C-335.282,2483.119-336.922,2479.752-341.068,2479.752Z" transform="translate(360.849 -2479.752)" fill="url(#linear-gradient-54)"/>
          <path id="Trazado_143697" data-name="Trazado 143697" d="M-341.324,2480.813l-13.861.448c-2.69.425-4.637,2.371-4.637,4.636v12.411c0,2.607,2.555,4.721,5.708,4.721h12.487c3.152,0,5.707-2.114,5.707-4.721v-11.464C-335.916,2483.878-337.449,2480.812-341.324,2480.813Z" transform="translate(360.779 -2479.824)" fill="#fff" opacity="0.89" style="isolation: isolate"/>
        </g>
        <circle id="Elipse_4569" data-name="Elipse 4569" cx="8.395" cy="8.395" r="8.395" transform="translate(4.396 3.584)" fill="url(#linear-gradient-55)"/>
        <g id="Grupo_91071" data-name="Grupo 91071" transform="translate(7.315 7.596)">
          <path id="Trazado_143698" data-name="Trazado 143698" d="M-341.547,2487.905H-352.51a.489.489,0,0,0-.487.488.487.487,0,0,0,.487.486h10.963a.487.487,0,0,0,.486-.486A.488.488,0,0,0-341.547,2487.905Z" transform="translate(352.998 -2487.905)" fill="url(#linear-gradient-56)"/>
          <path id="Trazado_143699" data-name="Trazado 143699" d="M-342.548,2490.386h-9.887a.487.487,0,0,0-.487.486h0a.488.488,0,0,0,.487.486h9.887a.487.487,0,0,0,.486-.486A.486.486,0,0,0-342.548,2490.386Z" transform="translate(352.993 -2488.074)" fill="url(#linear-gradient-57)"/>
          <path id="Trazado_143700" data-name="Trazado 143700" d="M-343.7,2492.892h-8.812a.487.487,0,0,0-.487.486h0a.487.487,0,0,0,.486.487h8.813a.486.486,0,0,0,.487-.486h0a.486.486,0,0,0-.486-.487Z" transform="translate(352.998 -2488.246)" fill="url(#linear-gradient-58)"/>
          <path id="Trazado_143701" data-name="Trazado 143701" d="M-344.568,2495.092h-7.907a.487.487,0,0,0-.486.486.487.487,0,0,0,.486.487h7.907a.487.487,0,0,0,.486-.487A.487.487,0,0,0-344.568,2495.092Z" transform="translate(352.995 -2488.396)" fill="url(#linear-gradient-59)"/>
          <path id="Trazado_143702" data-name="Trazado 143702" d="M-345.664,2497.572H-352.4a.487.487,0,0,0-.487.486.487.487,0,0,0,.486.487h6.737a.487.487,0,0,0,.487-.487A.487.487,0,0,0-345.664,2497.572Z" transform="translate(352.99 -2488.565)" fill="url(#linear-gradient-60)"/>
        </g>
      </g>
      <g id="Grupo_91076" data-name="Grupo 91076" transform="translate(53.633 114.91)">
        <g id="Grupo_91073" data-name="Grupo 91073">
          <path id="Trazado_143703" data-name="Trazado 143703" d="M-348.527,2588.334l-14.826.492c-2.876.468-4.956,2.6-4.956,5.091v13.625c0,2.864,2.733,5.182,6.105,5.182h13.357c3.372,0,6.105-2.318,6.105-5.182v-12.587C-342.742,2591.7-344.381,2588.334-348.527,2588.334Z" transform="translate(368.309 -2588.334)" fill="url(#linear-gradient-61)"/>
          <path id="Trazado_143704" data-name="Trazado 143704" d="M-348.784,2589.394l-13.861.447c-2.69.427-4.637,2.372-4.637,4.637v12.41c0,2.607,2.555,4.721,5.707,4.721h12.487c3.153,0,5.707-2.114,5.707-4.721v-11.463C-343.376,2592.458-344.908,2589.393-348.784,2589.394Z" transform="translate(368.239 -2588.406)" fill="#fff" opacity="0.89" style="isolation: isolate"/>
        </g>
        <g id="Grupo_91075" data-name="Grupo 91075" transform="translate(4.572 3.836)">
          <circle id="Elipse_4570" data-name="Elipse 4570" cx="8.309" cy="8.309" r="8.309" fill="url(#linear-gradient-62)"/>
          <g id="Grupo_91074" data-name="Grupo 91074" transform="translate(4.111 2.614)">
            <rect id="Rectángulo_49852" data-name="Rectángulo 49852" width="2.183" height="6.912" rx="0.338" transform="translate(0 2.547)" fill="url(#linear-gradient-63)"/>
            <path id="Trazado_143705" data-name="Trazado 143705" d="M-351.848,2597.8h-1.369v-1.655a.812.812,0,0,0-.726-.889.983.983,0,0,0-.129,0h-.034a.94.94,0,0,0-.973.9v.029l-.481,1.659c-.214,0-.566.153-.566.368v6.36c0,.214.531.5.745.5h3.533a1.53,1.53,0,0,0,1.421-1.568v-4.223a1.449,1.449,0,0,0-1.411-1.484Z" transform="translate(358.793 -2595.256)" fill="url(#linear-gradient-64)"/>
          </g>
        </g>
      </g>
      <g id="Grupo_91079" data-name="Grupo 91079" transform="translate(204.959 123.204)">
        <g id="Grupo_91077" data-name="Grupo 91077">
          <path id="Trazado_143706" data-name="Trazado 143706" d="M-186.1,2597.236l-14.826.49c-2.876.468-4.957,2.605-4.957,5.092v13.622c0,2.864,2.734,5.182,6.105,5.182h13.357c3.372,0,6.105-2.318,6.105-5.182v-12.588C-180.318,2600.6-181.957,2597.235-186.1,2597.236Z" transform="translate(205.885 -2597.236)" fill="url(#linear-gradient-65)"/>
          <path id="Trazado_143707" data-name="Trazado 143707" d="M-186.36,2598.295l-13.861.446c-2.689.427-4.637,2.372-4.637,4.637v12.41c0,2.607,2.556,4.72,5.708,4.72h12.487c3.153,0,5.707-2.114,5.707-4.72v-11.463C-180.952,2601.36-182.484,2598.294-186.36,2598.295Z" transform="translate(205.815 -2597.308)" fill="#fff" opacity="0.89" style="isolation: isolate"/>
        </g>
        <g id="Grupo_91078" data-name="Grupo 91078" transform="translate(4.475 3.784)">
          <circle id="Elipse_4571" data-name="Elipse 4571" cx="8.309" cy="8.309" r="8.309" fill="url(#linear-gradient-66)"/>
          <path id="Trazado_143708" data-name="Trazado 143708" d="M-187.093,2606.221a.053.053,0,0,0-.057.007l-5.087,4.238a1.192,1.192,0,0,1-1.538-.039l-3.783-3.508a.079.079,0,0,0-.112.007h0a.676.676,0,0,0-.171.44v6.091a.645.645,0,0,0,.646.646h9.418a.666.666,0,0,0,.681-.628l.361-6.623A.669.669,0,0,0-187.093,2606.221Z" transform="translate(200.86 -2601.634)" fill="url(#linear-gradient-67)"/>
          <path id="Trazado_143709" data-name="Trazado 143709" d="M-192.217,2609.948l.136-.112,1.463-1.219,2.058-1.713.852-.709c.077-.064.149-.136.223-.2.044-.04.332-.282.28-.341a.071.071,0,0,0-.047-.018,5.207,5.207,0,0,0-.892.026l-.934.052-2.393.136-2.613.146-2.127.117-.661.037c-.153.009-.842.01-.64.278a2.247,2.247,0,0,0,.288.254l.5.466,1.909,1.773,1.062.989A1.191,1.191,0,0,0-192.217,2609.948Z" transform="translate(200.84 -2601.593)" fill="url(#linear-gradient-68)"/>
        </g>
      </g>
    </g>
    <g id="Grupo_91082" data-name="Grupo 91082" transform="translate(-338.537 2524.423)">
      <circle id="Elipse_4572" data-name="Elipse 4572" cx="31.605" cy="31.605" r="31.605" fill="#fff"/>
      <g id="Grupo_91081" data-name="Grupo 91081" transform="translate(14.896 22.869)">
        <path id="Trazado_143710" data-name="Trazado 143710" d="M-314.7,2563.678l9.137-4.763v2.029a.808.808,0,0,1-.116.422.937.937,0,0,1-.381.329l-4.186,2.145a3.694,3.694,0,0,1-.56.237q-.294.1-.628.179.334.081.628.179a3.742,3.742,0,0,1,.56.236l4.186,2.157a.937.937,0,0,1,.381.329.8.8,0,0,1,.116.42v2.03l-9.137-4.773Z" transform="translate(314.696 -2554.891)" fill="url(#linear-gradient-69)"/>
        <path id="Trazado_143711" data-name="Trazado 143711" d="M-299.559,2571.767a1.7,1.7,0,0,1-.265.462,1.637,1.637,0,0,1-.369.329,1.792,1.792,0,0,1-.439.2,1.5,1.5,0,0,1-.449.068h-1.2l6.734-17.23a1.629,1.629,0,0,1,.565-.744,1.516,1.516,0,0,1,.886-.26h1.211Z" transform="translate(313.848 -2554.595)" fill="url(#linear-gradient-70)"/>
        <path id="Trazado_143712" data-name="Trazado 143712" d="M-289.639,2569.606v-2.03a.8.8,0,0,1,.115-.42.928.928,0,0,1,.38-.329l4.187-2.157a5.551,5.551,0,0,1,1.188-.416c-.223-.053-.432-.113-.628-.178a3.865,3.865,0,0,1-.559-.237l-4.187-2.146a.935.935,0,0,1-.381-.329.807.807,0,0,1-.115-.422v-2.029l9.138,4.762v1.155Z" transform="translate(312.984 -2554.891)" fill="url(#linear-gradient-71)"/>
      </g>
    </g>
  </g>
</svg>
