<svg xmlns="http://www.w3.org/2000/svg" xmlns:xlink="http://www.w3.org/1999/xlink" width="416.287" height="414.561" viewBox="0 0 416.287 414.561">
  <defs>
    <linearGradient id="linear-gradient" x1="-2.121" y1="-0.139" x2="-1.087" y2="-0.139" gradientUnits="objectBoundingBox">
      <stop offset="0" stop-color="#ffc444"/>
      <stop offset="0.996" stop-color="#f36f56"/>
    </linearGradient>
    <clipPath id="clip-path">
      <path id="Trazado_165621" data-name="Trazado 165621" d="M1838.215,1900.451l27.929,24.717s17.936-9.674,20.04-25.842c4.293-32.987,32.885-26.925,45.241-26.178,18.632,1.128,35.544-6.005,24.133-25.725s27.055-30.409,56.884-24.252c29.191,6.026,56.746-42.386-5.236-61.229-37.015-11.253-57.606,20.327-71.8,33.8s-36.971-4.533-45.324,19.878c-7.135,20.851-4.906,42.632-23.378,44.96S1836.89,1873.811,1838.215,1900.451Z" fill="url(#linear-gradient)"/>
    </clipPath>
    <linearGradient id="linear-gradient-3" x1="24.617" y1="-4.904" x2="24.257" y2="-3.629" xlink:href="#linear-gradient"/>
    <linearGradient id="linear-gradient-4" x1="5.255" y1="1.332" x2="5.866" y2="2.268" gradientUnits="objectBoundingBox">
      <stop offset="0" stop-color="#ff9085"/>
      <stop offset="1" stop-color="#fb6fbb"/>
    </linearGradient>
    <clipPath id="clip-path-2">
      <path id="Trazado_165628" data-name="Trazado 165628" d="M1873.823,1899.405l-72.534-6.488c-3.487-10.093-7.522-28.5,7.989-31.557,21.564-4.255,24.457-39.429,19.5-52.363-6.138-16.009-19.627-53.545,13.59-60.622,27.652-5.892,46.9-4.308,51.024-37.175s24.571-51.91,56.087-47.352c33.166,4.8,63.313-34.917,89.651-18.647,45.892,28.348-2.1,97.592-61.347,113.935s-27.411,38.778-27.678,65.931c-.364,37.07-52.541,24.866-67.444,38.219C1870.977,1873.754,1871.943,1889.6,1873.823,1899.405Z" fill="none"/>
    </clipPath>
    <linearGradient id="linear-gradient-5" x1="0.86" y1="-0.265" x2="-0.019" y2="1.502" gradientUnits="objectBoundingBox">
      <stop offset="0" stop-color="#aa80f9"/>
      <stop offset="0.996" stop-color="#6165d7"/>
    </linearGradient>
    <linearGradient id="linear-gradient-6" y1="0.5" x2="1" y2="0.5" gradientUnits="objectBoundingBox">
      <stop offset="0" stop-color="#40447e"/>
      <stop offset="0.996" stop-color="#3c3b6b"/>
    </linearGradient>
    <linearGradient id="linear-gradient-7" y1="0.5" x2="1" y2="0.5" gradientUnits="objectBoundingBox">
      <stop offset="0" stop-color="#444b8c"/>
      <stop offset="0.996" stop-color="#26264f"/>
    </linearGradient>
    <linearGradient id="linear-gradient-24" x1="0" y1="0.5" x2="1" y2="0.5" xlink:href="#linear-gradient-5"/>
    <linearGradient id="linear-gradient-26" x1="1.412" y1="1.537" x2="1.105" y2="-0.033" gradientUnits="objectBoundingBox">
      <stop offset="0.004" stop-color="#e38ddd"/>
      <stop offset="1" stop-color="#9571f6"/>
    </linearGradient>
    <linearGradient id="linear-gradient-27" x1="0.561" y1="1.156" x2="0.511" y2="0.512" gradientUnits="objectBoundingBox">
      <stop offset="0" stop-color="#311944"/>
      <stop offset="1" stop-color="#893976"/>
    </linearGradient>
    <linearGradient id="linear-gradient-28" x1="0.965" y1="-0.515" x2="-0.193" y2="1.735" xlink:href="#linear-gradient"/>
    <linearGradient id="linear-gradient-29" x1="-65.388" y1="-75.826" x2="-65.29" y2="-76.171" xlink:href="#linear-gradient-27"/>
    <linearGradient id="linear-gradient-30" x1="-65.127" y1="-76.92" x2="-66.612" y2="-74.587" xlink:href="#linear-gradient"/>
    <linearGradient id="linear-gradient-31" x1="1.184" y1="0.022" x2="0.806" y2="0.269" xlink:href="#linear-gradient"/>
    <linearGradient id="linear-gradient-32" x1="2.093" y1="-0.151" x2="-1.168" y2="1.089" xlink:href="#linear-gradient"/>
    <linearGradient id="linear-gradient-33" x1="0.925" y1="0.275" x2="-0.529" y2="1.073" xlink:href="#linear-gradient"/>
    <linearGradient id="linear-gradient-34" x1="1.121" y1="0.251" x2="-0.786" y2="1.047" xlink:href="#linear-gradient"/>
  </defs>
  <g id="Grupo_108658" data-name="Grupo 108658" transform="translate(6123 9355)">
    <g id="Grupo_108052" data-name="Grupo 108052" transform="translate(-7769.856 -10991.229)">
      <path id="Trazado_165611" data-name="Trazado 165611" d="M1963.071,1661.146c13.982,20.015-2.412,52.464,18.334,67.517,20.195,14.653,45-9.365,64.035,3.248,28.233,18.711,23.077,104.329-18.2,157.524-12.414,16-22.786,22.223-27.38,40.315-9.864,38.85,24.8,61.96,18.207,81.175-14.855,43.264-243.312,79.567-334.98-50.455-42.812-60.726-49.218-148.414-10.966-215.014C1741.24,1625.111,1931.7,1616.236,1963.071,1661.146Z" fill="#f4f7fa"/>
      <g id="Grupo_108037" data-name="Grupo 108037">
        <g id="Grupo_108032" data-name="Grupo 108032">
          <path id="Trazado_165612" data-name="Trazado 165612" d="M1838.215,1900.451l27.929,24.717s17.936-9.674,20.04-25.842c4.293-32.987,32.885-26.925,45.241-26.178,18.632,1.128,35.544-6.005,24.133-25.725s27.055-30.409,56.884-24.252c29.191,6.026,56.746-42.386-5.236-61.229-37.015-11.253-57.606,20.327-71.8,33.8s-36.971-4.533-45.324,19.878c-7.135,20.851-4.906,42.632-23.378,44.96S1836.89,1873.811,1838.215,1900.451Z" fill="url(#linear-gradient)"/>
          <g id="Grupo_108031" data-name="Grupo 108031" clip-path="url(#clip-path)">
            <path id="Trazado_165613" data-name="Trazado 165613" d="M1838.215,1900.451l27.929,24.717s17.936-9.674,20.04-25.842c4.293-32.987,32.885-26.925,45.241-26.178,18.632,1.128,33.335-5.71,26.487-24.647-7.747-21.426,24.7-31.487,54.53-25.33,29.191,6.026,56.746-42.386-5.236-61.229-37.015-11.253-57.606,20.327-71.8,33.8s-36.971-4.533-45.324,19.878c-7.135,20.851-4.906,42.632-23.378,44.96S1836.89,1873.811,1838.215,1900.451Z" fill="url(#linear-gradient-3)"/>
            <g id="Grupo_108030" data-name="Grupo 108030" opacity="0.5" style="mix-blend-mode: soft-light;isolation: isolate">
              <path id="Trazado_165614" data-name="Trazado 165614" d="M1848.009,1913.741l.674.407c.252-.418,25.638-42.123,63.27-75.879,34.67-31.1,87.13-61.616,140.168-30.4l.4-.679c-23.61-13.9-49.069-16.924-75.669-9-21.25,6.328-43.265,19.62-65.436,39.509C1873.7,1871.529,1848.261,1913.322,1848.009,1913.741Z" fill="#beb8f2"/>
              <path id="Trazado_165615" data-name="Trazado 165615" d="M1965.878,1801.975l.65.445c14.81-21.619,46.71-42.714,47.03-42.925l-.432-.658C2012.8,1759.048,1980.775,1780.23,1965.878,1801.975Z" fill="#beb8f2"/>
              <path id="Trazado_165616" data-name="Trazado 165616" d="M1983.747,1797.184c30.791,5.2,44.084,27.544,44.214,27.769l.681-.4c-.132-.228-13.595-22.887-44.764-28.151Z" fill="#beb8f2"/>
              <path id="Trazado_165617" data-name="Trazado 165617" d="M1888.553,1861.678c31.194-21.963,75.034,4.679,75.44,4.974l.5-.6c-.37-.327-44.926-27.172-76.4-5.014Z" fill="#beb8f2"/>
              <path id="Trazado_165618" data-name="Trazado 165618" d="M1898.8,1849.738l.684.391c12.084-21.134,3.592-50.549,3.505-50.844l-.755.223C1902.315,1799.8,1910.711,1828.9,1898.8,1849.738Z" fill="#beb8f2"/>
              <path id="Trazado_165619" data-name="Trazado 165619" d="M1852.822,1907.673c10.425-10.067,33.455-4.963,33.686-4.911l.175-.767c-.961-.219-23.675-5.253-34.408,5.112Z" fill="#beb8f2"/>
              <path id="Trazado_165620" data-name="Trazado 165620" d="M1858.7,1897.716l.669.415c6.042-9.737,1.595-30.475.134-37.29-.206-.963-.384-1.795-.387-1.949l-.787,0a18.225,18.225,0,0,0,.4,2.112C1860.179,1867.744,1864.575,1888.249,1858.7,1897.716Z" fill="#beb8f2"/>
            </g>
          </g>
        </g>
        <g id="Grupo_108036" data-name="Grupo 108036">
          <path id="Trazado_165622" data-name="Trazado 165622" d="M1863.971,1907.43c-3.078-.649-17.932,26.2-25.3,4.916-1.841-5.318-2.963-23.285-25.938-25.985l-13.379-1.573c-3.028-10.362-3.962-20.689,9.924-23.428,21.564-4.255,24.457-39.429,19.5-52.363-6.137-16.009-19.626-53.545,13.59-60.622,27.653-5.891,46.9-4.308,51.026-37.175s24.57-51.91,56.086-47.352c33.166,4.8,63.313-34.917,89.651-18.648,45.892,28.349-2.1,97.593-61.347,113.936s-27.411,38.779-27.678,65.931a46.939,46.939,0,0,1-2.03,10.905c-8.669,27.66-38.484,30.112-61.409,51.467C1855.4,1916.562,1869.156,1908.522,1863.971,1907.43Z" fill="url(#linear-gradient-4)"/>
          <g id="Grupo_108035" data-name="Grupo 108035">
            <g id="Grupo_108034" data-name="Grupo 108034" clip-path="url(#clip-path-2)">
              <g id="Grupo_108033" data-name="Grupo 108033" opacity="0.5" style="mix-blend-mode: soft-light;isolation: isolate">
                <path id="Trazado_165623" data-name="Trazado 165623" d="M1840.49,1885.555l-1.521-.425c30.3-104.687,114.39-193.774,219.463-232.5l.6,1.394C1954.4,1692.587,1870.66,1781.3,1840.49,1885.555Z" fill="#fcfdfe"/>
                <path id="Trazado_165624" data-name="Trazado 165624" d="M1862.2,1829.931l-1.573-.133c3.046-42.744-33.253-79.36-33.62-79.725l1.129-1.018C1828.507,1749.424,1865.292,1786.514,1862.2,1829.931Z" fill="#fcfdfe"/>
                <path id="Trazado_165625" data-name="Trazado 165625" d="M1846.621,1866.453l-1.334-.824c24.464-36.284,108.062-34.587,108.9-34.566l-.007,1.494C1953.352,1832.535,1870.619,1830.859,1846.621,1866.453Z" fill="#fcfdfe"/>
                <path id="Trazado_165626" data-name="Trazado 165626" d="M1924.636,1742.1l-1.4-.715c16.706-30.3-1.591-80.69-1.778-81.195l1.486-.466C1923.132,1660.237,1941.651,1711.237,1924.636,1742.1Z" fill="#fcfdfe"/>
                <path id="Trazado_165627" data-name="Trazado 165627" d="M1978.364,1696.183l-.733-1.338c36.73-17.5,90.549-1.515,91.089-1.35l-.449,1.422C2067.738,1694.754,2014.522,1678.951,1978.364,1696.183Z" fill="#fcfdfe"/>
              </g>
            </g>
          </g>
        </g>
      </g>
      <g id="Grupo_108038" data-name="Grupo 108038">
        <path id="Trazado_165629" data-name="Trazado 165629" d="M2007.941,1997.253l-326.7-2.846v8.419a4.465,4.465,0,0,0,3.355,4.574l92.379,16.578a12.7,12.7,0,0,0,3.315.156l224.1-18.9a4.25,4.25,0,0,0,3.55-4.465Z" fill="#97a6b7"/>
        <path id="Trazado_165630" data-name="Trazado 165630" d="M1902.774,1983.6l-217.933,15.4a6.49,6.49,0,0,1-7.07-6.541v-155.8a7.06,7.06,0,0,1,7.07-7.041h217.933a6.1,6.1,0,0,1,5.81,6.365V1976.83C1908.584,1980.345,1905.986,1983.378,1902.774,1983.6Z" fill="#97a6b7"/>
        <path id="Trazado_165631" data-name="Trazado 165631" d="M1906.248,1983.6l-217.932,15.4a6.49,6.49,0,0,1-7.07-6.541v-155.8a7.06,7.06,0,0,1,7.07-7.041h217.932a6.1,6.1,0,0,1,5.811,6.365V1976.83C1912.059,1980.345,1909.461,1983.378,1906.248,1983.6Z" fill="#d8dee8"/>
        <path id="Trazado_165632" data-name="Trazado 165632" d="M1899.459,1973.676l-202.981,13.378a5.319,5.319,0,0,1-5.752-5.369v-136.4a5.781,5.781,0,0,1,5.752-5.772l202.981-.84a5,5,0,0,1,4.794,5.216v124.235A5.447,5.447,0,0,1,1899.459,1973.676Z" fill="url(#linear-gradient-5)"/>
        <path id="Trazado_165633" data-name="Trazado 165633" d="M1804.979,1833.89a2.512,2.512,0,1,1-2.507-2.62A2.574,2.574,0,0,1,1804.979,1833.89Z" fill="#fff"/>
        <path id="Trazado_165634" data-name="Trazado 165634" d="M1900.811,1982.907l-219.565,16.211,95.734,17.18a12.7,12.7,0,0,0,3.315.156l227.646-19.2L1904.3,1983.017A16.659,16.659,0,0,0,1900.811,1982.907Z" fill="#d8dee8"/>
        <path id="Trazado_165635" data-name="Trazado 165635" d="M1713.284,1999.526l182.794-13.7,56.573,7.708-181.219,14.642Z" opacity="0.3" fill="url(#linear-gradient-6)" style="mix-blend-mode: multiply;isolation: isolate"/>
        <path id="Trazado_165636" data-name="Trazado 165636" d="M1853.741,1940.876c-16.8-9.04-30.011,2.415-42.76-8.887-7.729-6.851-3.934-11.961-13.445-22.2-10.533-11.341-17.391-7.529-27.978-17.735-13.385-12.906-6.69-22.946-18.22-32.212-13.988-11.241-29.073-.837-42.388-11.617-5.743-4.649-8.894-11.409-10.539-18.6h-13.028a4.137,4.137,0,0,0-4.137,4.133v161.5a3.8,3.8,0,0,0,4.137,3.839l222.108-15.766a3.574,3.574,0,0,0,2.677-1.636c-16.259-.593-26.248-6.043-32.633-11.678C1865.044,1958.993,1867.211,1948.123,1853.741,1940.876Z" fill="#fff" opacity="0.48" style="mix-blend-mode: soft-light;isolation: isolate"/>
      </g>
      <g id="Grupo_108049" data-name="Grupo 108049">
        <g id="Grupo_108046" data-name="Grupo 108046">
          <g id="Grupo_108043" data-name="Grupo 108043">
            <g id="Grupo_108040" data-name="Grupo 108040">
              <path id="Trazado_165637" data-name="Trazado 165637" d="M1704.751,1792.335a7.727,7.727,0,0,1-7.876,7.381,7.484,7.484,0,0,1-7.741-7.345,7.726,7.726,0,0,1,7.9-7.382A7.482,7.482,0,0,1,1704.751,1792.335Zm-12.258.028a4.273,4.273,0,0,0,4.416,4.193,4.411,4.411,0,0,0,4.5-4.214,4.274,4.274,0,0,0-4.408-4.194A4.413,4.413,0,0,0,1692.493,1792.363Z" fill="url(#linear-gradient-7)"/>
              <path id="Trazado_165638" data-name="Trazado 165638" d="M1711.8,1757.05a7.64,7.64,0,0,1-7.853,7.313,7.535,7.535,0,0,1-7.719-7.394,7.641,7.641,0,0,1,7.879-7.313A7.536,7.536,0,0,1,1711.8,1757.05Zm-12.222-.064a4.3,4.3,0,0,0,4.4,4.222,4.363,4.363,0,0,0,4.487-4.176,4.3,4.3,0,0,0-4.395-4.22A4.361,4.361,0,0,0,1699.576,1756.986Z" fill="url(#linear-gradient-7)"/>
              <path id="Trazado_165639" data-name="Trazado 165639" d="M1686.447,1721.851a7.886,7.886,0,1,1-7.777-7.492A7.637,7.637,0,0,1,1686.447,1721.851Zm-12.355-.155a4.5,4.5,0,1,0,4.544-4.165A4.377,4.377,0,0,0,1674.092,1721.7Z" fill="url(#linear-gradient-7)"/>
              <path id="Trazado_165640" data-name="Trazado 165640" d="M1733.053,1719.037a7.728,7.728,0,1,1-7.624-7.424A7.514,7.514,0,0,1,1733.053,1719.037Zm-12.113-.161a4.412,4.412,0,1,0,4.455-4.121A4.313,4.313,0,0,0,1720.94,1718.876Z" fill="url(#linear-gradient-7)"/>
              <g id="Grupo_108039" data-name="Grupo 108039">
                <path id="Trazado_165641" data-name="Trazado 165641" d="M1758.01,1773.344l-.034,3.119-26.571-.028-30.292,15.851-1.594-2.758,31.066-16.232Z" fill="url(#linear-gradient-7)"/>
                <path id="Trazado_165642" data-name="Trazado 165642" d="M1758.212,1754.836l-.034,3.119-48.053-.241.034-3.151Z" fill="url(#linear-gradient-7)"/>
                <path id="Trazado_165643" data-name="Trazado 165643" d="M1758.415,1736.326l-.034,3.119-31.524-.284-24.836-15.536-17.274-.211.035-3.169,18.259.236,24.826,15.55Z" fill="url(#linear-gradient-7)"/>
                <path id="Trazado_165644" data-name="Trazado 165644" d="M1758.617,1717.817l-.034,3.119-27.73-.359.034-3.138Z" fill="url(#linear-gradient-7)"/>
              </g>
            </g>
            <g id="Grupo_108042" data-name="Grupo 108042">
              <path id="Trazado_165645" data-name="Trazado 165645" d="M1933.637,1705.017a6.963,6.963,0,0,1,7.114-6.866,7.065,7.065,0,0,1,6.937,7.1,6.963,6.963,0,0,1-7.091,6.867A7.064,7.064,0,0,1,1933.637,1705.017Zm11.044.188a4.034,4.034,0,0,0-3.963-4.056,3.975,3.975,0,0,0-4.059,3.92,4.034,4.034,0,0,0,3.971,4.057A3.977,3.977,0,0,0,1944.681,1705.2Z" fill="url(#linear-gradient-7)"/>
              <path id="Trazado_165646" data-name="Trazado 165646" d="M1927.218,1738.574a7.045,7.045,0,1,1,6.979,7.062A7.041,7.041,0,0,1,1927.218,1738.574Zm11.075.106a4.022,4.022,0,1,0-4.063,3.955A4.005,4.005,0,0,0,1938.293,1738.68Z" fill="url(#linear-gradient-7)"/>
              <path id="Trazado_165647" data-name="Trazado 165647" d="M1950.043,1771.905a7.048,7.048,0,0,1,7.06-6.944,6.9,6.9,0,0,1,6.886,6.974,7.05,7.05,0,0,1-7.039,6.945A6.9,6.9,0,0,1,1950.043,1771.905Zm10.962.024a3.94,3.94,0,0,0-3.934-3.982,4.025,4.025,0,0,0-4.029,3.965,3.938,3.938,0,0,0,3.941,3.981A4.025,4.025,0,0,0,1961.005,1771.929Z" fill="url(#linear-gradient-7)"/>
              <path id="Trazado_165648" data-name="Trazado 165648" d="M1907.672,1775.088a7.156,7.156,0,0,1,7.194-7.014,6.993,6.993,0,0,1,7.018,7.034,7.157,7.157,0,0,1-7.172,7.015A6.992,6.992,0,0,1,1907.672,1775.088Zm11.17.016a3.992,3.992,0,0,0-4.009-4.016,4.085,4.085,0,0,0-4.1,4.005,3.992,3.992,0,0,0,4.016,4.016A4.085,4.085,0,0,0,1918.842,1775.1Z" fill="url(#linear-gradient-7)"/>
              <g id="Grupo_108041" data-name="Grupo 108041">
                <path id="Trazado_165649" data-name="Trazado 165649" d="M1884.315,1722.542l.033-3.035,24.876.339,27.7-14.718,1.436,2.647-28.381,15.1Z" fill="url(#linear-gradient-7)"/>
                <path id="Trazado_165650" data-name="Trazado 165650" d="M1884.118,1740.552l.033-3.035,44.59.431-.033,3.005Z" fill="url(#linear-gradient-7)"/>
                <path id="Trazado_165651" data-name="Trazado 165651" d="M1883.92,1758.562l.033-3.035,29.456.168,22.658,14.681,15.492.038-.033,2.99-16.382-.029-22.668-14.669Z" fill="url(#linear-gradient-7)"/>
                <path id="Trazado_165652" data-name="Trazado 165652" d="M1883.722,1776.573l.033-3.035,25.954.045-.033,3.018Z" fill="url(#linear-gradient-7)"/>
              </g>
            </g>
          </g>
          <g id="Grupo_108044" data-name="Grupo 108044">
            <path id="Trazado_165653" data-name="Trazado 165653" d="M1864.83,1813.354l-94.25.667c-12.246.086-22.117-9.38-21.988-21.144l1.013-92.662c.129-11.765,10.205-21.085,22.448-20.817l94.223,2.062a21.168,21.168,0,0,1,20.9,21.137l-.987,89.933A21.351,21.351,0,0,1,1864.83,1813.354Z" fill="url(#linear-gradient-7)"/>
            <path id="Trazado_165654" data-name="Trazado 165654" d="M1867.926,1813.885l-94.252.672c-12.246.088-22.117-9.378-21.988-21.143l1.013-92.663c.129-11.765,10.205-21.085,22.448-20.818l94.226,2.057a21.165,21.165,0,0,1,20.9,21.136l-.986,89.934A21.353,21.353,0,0,1,1867.926,1813.885Z" fill="url(#linear-gradient-24)"/>
            <path id="Trazado_165655" data-name="Trazado 165655" d="M1827.192,1771.9c-11.35-15.024.356-25.059-11.717-42.132-14.522-20.538-38.611-16.254-47.9-34.788a29.431,29.431,0,0,1-3.007-12.713,20.933,20.933,0,0,0-11.865,18.487l-1.013,92.663c-.129,11.765,9.742,21.231,21.988,21.143l94.252-.672a21.547,21.547,0,0,0,20.207-14.318C1871.864,1781.7,1842.956,1792.764,1827.192,1771.9Z" fill="#fff" opacity="0.48" style="mix-blend-mode: soft-light;isolation: isolate"/>
          </g>
          <g id="Grupo_108045" data-name="Grupo 108045">
            <path id="Trazado_165656" data-name="Trazado 165656" d="M1850.489,1792.382l-62.8.149a13.494,13.494,0,0,1-13.772-13.449l.676-61.832A13.624,13.624,0,0,1,1788.656,1704l62.791,1.034a13.432,13.432,0,0,1,13.324,13.446l-.665,60.65A13.561,13.561,0,0,1,1850.489,1792.382Z" fill="url(#linear-gradient-7)"/>
            <path id="Trazado_165657" data-name="Trazado 165657" d="M1852.287,1790.59l-61.91.125a13.269,13.269,0,0,1-13.578-13.175l.663-60.548a13.383,13.383,0,0,1,13.864-12.973l61.9,1.034a13.2,13.2,0,0,1,13.136,13.171l-.651,59.39A13.32,13.32,0,0,1,1852.287,1790.59Z" fill="url(#linear-gradient-26)"/>
            <path id="Trazado_165658" data-name="Trazado 165658" d="M1827.192,1771.9c-11.35-15.024.356-25.059-11.717-42.132-9.537-13.488-23.186-16.271-34.08-21.843a12.816,12.816,0,0,0-3.933,9.07l-.663,60.548a13.269,13.269,0,0,0,13.578,13.175l61.91-.125a13.59,13.59,0,0,0,8.635-3.1C1848.565,1785.194,1835.875,1783.391,1827.192,1771.9Z" fill="#fff" opacity="0.48" style="mix-blend-mode: soft-light;isolation: isolate"/>
          </g>
        </g>
        <g id="Grupo_108048" data-name="Grupo 108048">
          <path id="Trazado_165659" data-name="Trazado 165659" d="M1850.686,1732.322l-59.747-1.058a5.509,5.509,0,0,0-5.538,5.6V1768.5c0,12.844,10.065,22.783,22.186,22.213l28-1.316c11.1-.522,19.9-10.568,19.9-22.45v-29.262A5.157,5.157,0,0,0,1850.686,1732.322Zm-23.221,41.824-11.4.337,3.041-13.844a7.728,7.728,0,0,1-4.679-7.234,7.608,7.608,0,0,1,7.371-7.831,7.511,7.511,0,0,1,7.253,7.74,7.86,7.86,0,0,1-4.577,7.248Z" fill="url(#linear-gradient-27)"/>
          <path id="Trazado_165660" data-name="Trazado 165660" d="M1855.4,1732.4l-59.431-1.053a5.487,5.487,0,0,0-5.509,5.589v31.545c0,12.809,10.011,22.721,22.068,22.154l27.849-1.312c11.043-.52,19.794-10.539,19.794-22.391v-29.186A5.138,5.138,0,0,0,1855.4,1732.4Zm-23.1,41.715-11.334.336,3.025-13.808a7.706,7.706,0,0,1-4.655-7.214,7.58,7.58,0,0,1,7.333-7.811,7.482,7.482,0,0,1,7.214,7.719,7.84,7.84,0,0,1-4.553,7.23Z" fill="url(#linear-gradient-28)"/>
          <path id="Trazado_165661" data-name="Trazado 165661" d="M1823.994,1760.64l-3.025,13.808,11.334-.336-2.82-12.866c-3.87-2.955-7.45-5.513-10.052-9.052a8.33,8.33,0,0,0-.092,1.232A7.706,7.706,0,0,0,1823.994,1760.64Z" fill="none"/>
          <path id="Trazado_165662" data-name="Trazado 165662" d="M1829.483,1761.246l-.15-.682a7.84,7.84,0,0,0,4.553-7.23,7.251,7.251,0,0,0-14.455-1.14C1822.033,1755.733,1825.613,1758.291,1829.483,1761.246Z" fill="none"/>
          <g id="Grupo_108047" data-name="Grupo 108047">
            <path id="Trazado_165663" data-name="Trazado 165663" d="M1832.966,1687.16l-3.15,3.854a1.162,1.162,0,0,1-1.675.069l-9.665-8.427c-6.935-6.047-17.115-5.767-22.768.76l-6.465,7.464c-5.849,6.752-4.7,17.332,2.612,23.489l10.178,8.576a1.3,1.3,0,0,1,.205,1.8l-3.442,4.212a1.269,1.269,0,0,1-1.8.135l-10.278-8.6c-10.97-9.183-12.65-25.014-3.831-35.041l6.544-7.44c8.458-9.616,23.534-9.913,33.748-.953l9.576,8.4A1.248,1.248,0,0,1,1832.966,1687.16Z" fill="url(#linear-gradient-29)"/>
            <path id="Trazado_165664" data-name="Trazado 165664" d="M1836,1683.426l-3.14,3.842a1.155,1.155,0,0,1-1.668.066l-9.633-8.433c-6.913-6.051-17.058-5.792-22.693.712l-6.443,7.438c-5.829,6.729-4.679,17.294,2.6,23.455l10.144,8.583a1.3,1.3,0,0,1,.205,1.8l-3.431,4.2a1.262,1.262,0,0,1-1.8.132l-10.243-8.61c-10.933-9.19-12.607-25-3.818-34.989l6.521-7.414c8.43-9.583,23.456-9.849,33.636-.884l9.543,8.405A1.245,1.245,0,0,1,1836,1683.426Z" fill="url(#linear-gradient-30)"/>
            <path id="Trazado_165665" data-name="Trazado 165665" d="M1789.9,1716.607l10.243,8.61a1.262,1.262,0,0,0,1.8-.132l3.431-4.2a1.3,1.3,0,0,0-.205-1.8l-10.144-8.583c-7.282-6.161-8.432-16.726-2.6-23.455l.806-.93a34.878,34.878,0,0,0-8.98-2.1C1777.61,1694.008,1779.817,1708.129,1789.9,1716.607Z" fill="#fff" opacity="0.48" style="mix-blend-mode: soft-light;isolation: isolate"/>
          </g>
          <path id="Trazado_165666" data-name="Trazado 165666" d="M1829.483,1761.246l2.82,12.866-11.334.336,3.025-13.808a7.706,7.706,0,0,1-4.655-7.214,8.33,8.33,0,0,1,.092-1.232,20.111,20.111,0,0,1-3.394-7.377,22.191,22.191,0,0,1,.877-13.1l-20.942-.371a5.487,5.487,0,0,0-5.509,5.589v31.545c0,12.809,10.011,22.721,22.068,22.154l27.849-1.312a19.206,19.206,0,0,0,8.072-2.216,50.756,50.756,0,0,0-3.933-9.3C1840.021,1769.59,1834.511,1765.084,1829.483,1761.246Z" fill="#fff" opacity="0.48" style="mix-blend-mode: soft-light;isolation: isolate"/>
        </g>
      </g>
      <g id="Grupo_108051" data-name="Grupo 108051">
        <path id="Trazado_165667" data-name="Trazado 165667" d="M1715.475,1845.047v156.5l106.088-7.126a4.284,4.284,0,0,0,4.278-4V1850.747a4.313,4.313,0,0,0-4.468-4.007Z" fill="url(#linear-gradient-31)"/>
        <path id="Trazado_165668" data-name="Trazado 165668" d="M1710.086,1849.675v147.248l106.572-6.754a4.032,4.032,0,0,0,4.025-3.763V1854.988a4.058,4.058,0,0,0-4.2-3.77Z" fill="#d8dee8"/>
        <path id="Rectángulo_36014" data-name="Rectángulo 36014" d="M0,0H7.389a4.75,4.75,0,0,1,4.75,4.75V24.869a4.75,4.75,0,0,1-4.75,4.75H0a0,0,0,0,1,0,0V0A0,0,0,0,1,0,0Z" transform="translate(1821.594 1855.317)" fill="url(#linear-gradient-32)"/>
        <g id="Grupo_108050" data-name="Grupo 108050">
          <path id="Trazado_165669" data-name="Trazado 165669" d="M1811.8,1895.935l.885,4.536a35.973,35.973,0,0,0-5.632,2.814l-3.026-3.474a2.268,2.268,0,0,0-3.216-.2l-5.955,5.248a2.313,2.313,0,0,0-.234,3.243l3.052,3.523a37.074,37.074,0,0,0-3.5,5.261l-4.42-1.5a2.309,2.309,0,0,0-2.912,1.454l-2.608,7.569a2.3,2.3,0,0,0,1.4,2.935l4.435,1.516a36.836,36.836,0,0,0-.444,6.333l-4.64.947a2.36,2.36,0,0,0-1.83,2.744l1.475,7.907a2.274,2.274,0,0,0,2.69,1.833l4.654-.949a36.388,36.388,0,0,0,2.726,5.742l-3.579,3.181a2.387,2.387,0,0,0-.239,3.32l5.219,6.116a2.278,2.278,0,0,0,3.264.214l3.578-3.19a36.244,36.244,0,0,0,5.242,3.589l-1.54,4.577a2.371,2.371,0,0,0,1.438,3l7.586,2.629a2.318,2.318,0,0,0,2.95-1.487l1.515-4.541a35.545,35.545,0,0,0,6.363.422l.918,4.7a2.329,2.329,0,0,0,2.737,1.865l7.881-1.607a2.367,2.367,0,0,0,1.819-2.794l-.923-4.661a35.915,35.915,0,0,0,5.751-2.869l3.07,3.543a2.3,2.3,0,0,0,3.285.216l6.006-5.4a2.391,2.391,0,0,0,.191-3.337l-3.06-3.513a37.117,37.117,0,0,0,3.539-5.422l4.357,1.489a2.3,2.3,0,0,0,2.931-1.478l2.5-7.69a2.366,2.366,0,0,0-1.477-2.97l-4.315-1.467a36.847,36.847,0,0,0,.356-6.475l4.451-.908a2.314,2.314,0,0,0,1.789-2.747l-1.631-7.875a2.321,2.321,0,0,0-2.726-1.815l-4.438.9a36.5,36.5,0,0,0-2.859-5.762l3.37-3.005a2.316,2.316,0,0,0,.187-3.26l-5.271-5.962a2.288,2.288,0,0,0-3.236-.2l-3.392,3.015a36.223,36.223,0,0,0-5.3-3.508l1.44-4.317a2.294,2.294,0,0,0-1.442-2.9l-7.481-2.508a2.288,2.288,0,0,0-2.893,1.444l-1.456,4.327a35.633,35.633,0,0,0-6.292-.358l-.891-4.5a2.268,2.268,0,0,0-2.681-1.784l-7.724,1.575A2.3,2.3,0,0,0,1811.8,1895.935Zm-8.815,43a23.6,23.6,0,0,1,18.3-27.6,23.21,23.21,0,0,1,27.327,18.3,23.59,23.59,0,0,1-18.247,27.852A23.2,23.2,0,0,1,1802.983,1938.94Z" fill="#fff"/>
          <path id="Trazado_165670" data-name="Trazado 165670" d="M1851.931,1875.635l.26,1.334a10.57,10.57,0,0,0-1.656.828l-.89-1.022a.667.667,0,0,0-.946-.058l-1.751,1.543a.68.68,0,0,0-.069.954l.9,1.036a10.983,10.983,0,0,0-1.03,1.547l-1.3-.442a.679.679,0,0,0-.856.428l-.767,2.226a.676.676,0,0,0,.413.863l1.3.446a10.845,10.845,0,0,0-.131,1.862l-1.365.279a.694.694,0,0,0-.538.807l.434,2.325a.668.668,0,0,0,.791.539l1.369-.279a10.717,10.717,0,0,0,.8,1.689l-1.052.935a.7.7,0,0,0-.071.977l1.535,1.8a.67.67,0,0,0,.96.063l1.053-.938a10.649,10.649,0,0,0,1.541,1.056l-.453,1.345a.7.7,0,0,0,.423.884l2.231.773a.682.682,0,0,0,.868-.437l.445-1.336a10.479,10.479,0,0,0,1.872.125l.269,1.382a.686.686,0,0,0,.8.549l2.318-.473a.7.7,0,0,0,.535-.822l-.272-1.371a10.6,10.6,0,0,0,1.692-.843l.9,1.042a.676.676,0,0,0,.966.063l1.766-1.588a.7.7,0,0,0,.056-.981l-.9-1.034a10.819,10.819,0,0,0,1.041-1.594l1.281.438a.677.677,0,0,0,.862-.435l.737-2.262a.7.7,0,0,0-.435-.873l-1.269-.432a10.836,10.836,0,0,0,.1-1.9l1.309-.267a.68.68,0,0,0,.526-.807l-.48-2.316a.682.682,0,0,0-.8-.534l-1.3.266a10.8,10.8,0,0,0-.841-1.7l.991-.883a.682.682,0,0,0,.055-.959l-1.55-1.753a.673.673,0,0,0-.952-.059l-1,.886a10.6,10.6,0,0,0-1.557-1.031l.423-1.27a.674.674,0,0,0-.424-.853l-2.2-.738a.674.674,0,0,0-.851.425l-.428,1.272a10.515,10.515,0,0,0-1.85-.105l-.262-1.323a.668.668,0,0,0-.789-.524l-2.271.463A.677.677,0,0,0,1851.931,1875.635Zm-2.592,12.647a6.939,6.939,0,0,1,5.38-8.116,6.825,6.825,0,0,1,8.037,5.38,6.938,6.938,0,0,1-5.366,8.191A6.823,6.823,0,0,1,1849.339,1888.282Z" fill="#fff"/>
        </g>
        <path id="Trazado_165671" data-name="Trazado 165671" d="M1708.872,1849.485v148.131a4.839,4.839,0,0,0,4.46,4.538l85.691,11.586c2.688.3,5.07-1.523,5.07-3.886v-163.57c0-2.2-2.084-3.974-4.61-3.917l-85.523,2.529C1711.123,1844.98,1708.872,1847.01,1708.872,1849.485Z" fill="url(#linear-gradient-33)"/>
        <path id="Trazado_165672" data-name="Trazado 165672" d="M1748.695,1968.079c-1.236-17.3,11.047-21.427,8.977-41.611-3-29.228-30.644-38.983-28.35-63.035.716-7.508,4.119-13.969,8.195-19.234l-23.557.7c-2.837.084-5.088,2.114-5.088,4.589v148.131a4.836,4.836,0,0,0,4.46,4.537l66.019,8.927C1756.316,1994.483,1749.529,1979.758,1748.695,1968.079Z" opacity="0.3" fill="url(#linear-gradient-34)" style="mix-blend-mode: multiply;isolation: isolate"/>
      </g>
    </g>
  </g>
</svg>
