<svg xmlns="http://www.w3.org/2000/svg" width="92" height="92" viewBox="0 0 92 92">
  <g id="Grupo_102031" data-name="Grupo 102031" transform="translate(-359.591 -11640.758)">
    <circle id="Elipse_5329" data-name="Elipse 5329" cx="46" cy="46" r="46" transform="translate(359.591 11640.758)" fill="#ff4b52"/>
    <circle id="Elipse_5330" data-name="Elipse 5330" cx="39.292" cy="39.292" r="39.292" transform="translate(366.591 11647.467)" fill="#fdb8ba"/>
    <g id="Grupo_101503" data-name="Grupo 101503" transform="translate(2117.33 9281.355)">
      <g id="Grupo_101503-2" data-name="Grupo 101503" transform="translate(-1736.909 2380.175)">
        <rect id="Rectángulo_24593" data-name="Rectángulo 24593" width="51.34" height="50.454" fill="#ddffa7"/>
        <rect id="Rectángulo_24594" data-name="Rectángulo 24594" width="25.67" height="50.454" fill="#e6eaea"/>
      </g>
      <g id="Grupo_101504" data-name="Grupo 101504" transform="translate(-1736.909 2380.175)">
        <rect id="Rectángulo_24595" data-name="Rectángulo 24595" width="25.67" height="50.454" fill="#d8ff8d"/>
        <rect id="Rectángulo_24596" data-name="Rectángulo 24596" width="51.34" height="10.622" fill="#cdd4d5"/>
      </g>
      <rect id="Rectángulo_24597" data-name="Rectángulo 24597" width="25.67" height="10.622" transform="translate(-1736.909 2380.175)" fill="#687f82"/>
      <g id="Grupo_101505" data-name="Grupo 101505" transform="translate(-1704.103 2382.885)">
        <path id="Trazado_162815" data-name="Trazado 162815" d="M-1690.382,2384.877h-9.737a.83.83,0,0,1-.83-.83.83.83,0,0,1,.83-.83h9.737a.83.83,0,0,1,.829.83A.83.83,0,0,1-1690.382,2384.877Z" transform="translate(1700.949 -2383.217)" fill="#fff"/>
        <path id="Trazado_162816" data-name="Trazado 162816" d="M-1684.795,2384.877h-1.77a.831.831,0,0,1-.83-.83.831.831,0,0,1,.83-.83h1.77a.83.83,0,0,1,.83.83A.83.83,0,0,1-1684.795,2384.877Z" transform="translate(1699.787 -2383.217)" fill="#fff"/>
      </g>
      <circle id="Elipse_5331" data-name="Elipse 5331" cx="2.655" cy="2.655" r="2.655" transform="translate(-1713.009 2382.83)" fill="#4acfd9"/>
      <circle id="Elipse_5332" data-name="Elipse 5332" cx="2.655" cy="2.655" r="2.655" transform="translate(-1722.746 2382.83)" fill="#ff8c29"/>
      <g id="Grupo_101506" data-name="Grupo 101506" transform="translate(-1732.815 2382.83)">
        <circle id="Elipse_5333" data-name="Elipse 5333" cx="2.655" cy="2.655" r="2.655" transform="translate(0.332)" fill="#f0353d"/>
        <path id="Trazado_162817" data-name="Trazado 162817" d="M-1722.285,2422.055a1.654,1.654,0,0,1-1.106-.422l-8.409-7.525a1.655,1.655,0,0,1-.553-1.212,1.658,1.658,0,0,1,.519-1.229l8.408-7.967a1.66,1.66,0,0,1,2.346.064,1.659,1.659,0,0,1-.063,2.346l-7.1,6.726,7.066,6.322a1.659,1.659,0,0,1,.13,2.344A1.655,1.655,0,0,1-1722.285,2422.055Z" transform="translate(1732.353 -2384.879)" fill="#f0353d"/>
        <path id="Trazado_162818" data-name="Trazado 162818" d="M-1696.324,2422.055a1.655,1.655,0,0,0,1.106-.422l8.409-7.525a1.657,1.657,0,0,0,.553-1.212,1.658,1.658,0,0,0-.518-1.229l-8.409-7.967a1.661,1.661,0,0,0-2.347.064,1.66,1.66,0,0,0,.064,2.346l7.1,6.726-7.066,6.322a1.66,1.66,0,0,0-.131,2.344A1.657,1.657,0,0,0-1696.324,2422.055Z" transform="translate(1729.407 -2384.879)" fill="#f0353d"/>
        <path id="Trazado_162819" data-name="Trazado 162819" d="M-1713.753,2422.138a1.652,1.652,0,0,1-.826-.221,1.659,1.659,0,0,1-.61-2.266l8.409-14.6a1.66,1.66,0,0,1,2.266-.611,1.659,1.659,0,0,1,.61,2.266l-8.409,14.606A1.66,1.66,0,0,1-1713.753,2422.138Z" transform="translate(1730.901 -2384.962)" fill="#f0353d"/>
      </g>
      <path id="Trazado_162820" data-name="Trazado 162820" d="M-1685.569,2379.345h-51.34a.83.83,0,0,0-.83.829v50.455a.831.831,0,0,0,.83.83h51.34a.83.83,0,0,0,.83-.83v-50.455A.83.83,0,0,0-1685.569,2379.345Zm-.83,1.659v8.963h-49.679V2381Zm-49.679,48.8v-38.173h49.679V2429.8Z"/>
      <path id="Trazado_162821" data-name="Trazado 162821" d="M-1708.113,2389.219a3.489,3.489,0,0,0,3.485-3.485,3.489,3.489,0,0,0-3.485-3.485,3.489,3.489,0,0,0-3.485,3.485A3.489,3.489,0,0,0-1708.113,2389.219Zm0-5.31a1.827,1.827,0,0,1,1.825,1.825,1.827,1.827,0,0,1-1.825,1.826,1.828,1.828,0,0,1-1.826-1.826A1.827,1.827,0,0,1-1708.113,2383.909Z" transform="translate(-2.241 -0.249)"/>
      <path id="Trazado_162822" data-name="Trazado 162822" d="M-1718.763,2389.219a3.489,3.489,0,0,0,3.485-3.485,3.489,3.489,0,0,0-3.485-3.485,3.489,3.489,0,0,0-3.485,3.485A3.489,3.489,0,0,0-1718.763,2389.219Zm0-5.31a1.827,1.827,0,0,1,1.826,1.825,1.828,1.828,0,0,1-1.826,1.826,1.828,1.828,0,0,1-1.826-1.826A1.827,1.827,0,0,1-1718.763,2383.909Z" transform="translate(-1.328 -0.249)"/>
      <path id="Trazado_162823" data-name="Trazado 162823" d="M-1729.413,2389.219a3.489,3.489,0,0,0,3.485-3.485,3.489,3.489,0,0,0-3.485-3.485,3.489,3.489,0,0,0-3.485,3.485A3.489,3.489,0,0,0-1729.413,2389.219Zm0-5.31a1.827,1.827,0,0,1,1.826,1.825,1.828,1.828,0,0,1-1.826,1.826,1.828,1.828,0,0,1-1.826-1.826A1.827,1.827,0,0,1-1729.413,2383.909Z" transform="translate(-0.415 -0.249)"/>
      <path id="Trazado_162824" data-name="Trazado 162824" d="M-1719.874,2404.9a2.47,2.47,0,0,0-.681-1.78,2.472,2.472,0,0,0-1.74-.776,2.476,2.476,0,0,0-1.779.681l-8.41,7.967a2.5,2.5,0,0,0-.777,1.842,2.5,2.5,0,0,0,.829,1.82l8.41,7.524a2.486,2.486,0,0,0,1.659.635h0a2.492,2.492,0,0,0,1.856-.831,2.492,2.492,0,0,0-.2-3.515l-6.394-5.721,6.446-6.106A2.47,2.47,0,0,0-1719.874,2404.9Zm-1.917.535-7.1,6.726a.831.831,0,0,0-.26.615.831.831,0,0,0,.277.607l7.066,6.321a.831.831,0,0,1,.065,1.172.82.82,0,0,1-.619.276.828.828,0,0,1-.553-.211l-8.409-7.523a.833.833,0,0,1-.277-.607.833.833,0,0,1,.26-.614l8.409-7.967a.824.824,0,0,1,.571-.228h.023a.822.822,0,0,1,.58.258.827.827,0,0,1,.228.594A.826.826,0,0,1-1721.791,2405.43Z" transform="translate(-0.384 -1.971)"/>
      <path id="Trazado_162825" data-name="Trazado 162825" d="M-1686.28,2410.987l-8.41-7.967a2.492,2.492,0,0,0-3.519.1,2.493,2.493,0,0,0,.1,3.52l6.446,6.106-6.394,5.721a2.492,2.492,0,0,0-.2,3.515,2.493,2.493,0,0,0,1.856.83h0a2.487,2.487,0,0,0,1.659-.635l8.409-7.524a2.492,2.492,0,0,0,.829-1.82A2.5,2.5,0,0,0-1686.28,2410.987Zm-.883,1.819a.829.829,0,0,1-.276.606l-8.409,7.523a.83.83,0,0,1-.553.212h0a.821.821,0,0,1-.619-.277.831.831,0,0,1,.065-1.172l7.066-6.321a.833.833,0,0,0,.277-.607.833.833,0,0,0-.26-.615l-7.1-6.726a.831.831,0,0,1-.032-1.173.83.83,0,0,1,.6-.259.828.828,0,0,1,.571.227l8.409,7.967a.827.827,0,0,1,.259.614Z" transform="translate(-3.33 -1.971)"/>
      <path id="Trazado_162826" data-name="Trazado 162826" d="M-1704.177,2403.639h0a2.494,2.494,0,0,0-3.4.916l-8.409,14.6a2.493,2.493,0,0,0,.915,3.4,2.5,2.5,0,0,0,1.241.332,2.5,2.5,0,0,0,2.159-1.248l8.41-14.6a2.471,2.471,0,0,0,.246-1.889A2.47,2.47,0,0,0-1704.177,2403.639Zm-.523,2.571-8.41,14.606a.834.834,0,0,1-.721.416.813.813,0,0,1-.412-.112.83.83,0,0,1-.305-1.133l8.41-14.606a.828.828,0,0,1,.72-.415.824.824,0,0,1,.412.11.825.825,0,0,1,.388.5A.825.825,0,0,1-1704.7,2406.21Z" transform="translate(-1.836 -2.054)"/>
    </g>
  </g>
</svg>
