<svg xmlns="http://www.w3.org/2000/svg" width="86" height="86" viewBox="0 0 86 86">
  <g id="Grupo_108606" data-name="Grupo 108606" transform="translate(-211 -211)">
    <path id="Trazado_166679" data-name="Trazado 166679" d="M212.5,212.5h83.133v83.133H212.5Z" transform="translate(-0.067 -0.067)" fill="#ffe5aa"/>
    <path id="Trazado_166680" data-name="Trazado 166680" d="M212.5,212.5h83.133v11.467H212.5Z" transform="translate(-0.067 -0.067)" fill="#feb22a"/>
    <path id="Trazado_166681" data-name="Trazado 166681" d="M259.075,272.859a11.466,11.466,0,1,0,0,16.216l-8.108-8.108Z" transform="translate(-1.267 -2.6)" fill="#d3bcf8"/>
    <path id="Trazado_166682" data-name="Trazado 166682" d="M268.608,273.015l-8.108,8.108,8.108,8.108A11.465,11.465,0,0,0,268.608,273.015Z" transform="translate(-2.2 -2.756)" fill="#ebdeff"/>
    <path id="Trazado_166683" data-name="Trazado 166683" d="M269.5,244h5.733v8.6H269.5Z" transform="translate(-2.6 -1.467)" fill="#8f52f5"/>
    <path id="Trazado_166684" data-name="Trazado 166684" d="M275.5,236.5h5.733v15.767H275.5Z" transform="translate(-2.867 -1.133)" fill="#4f1473"/>
    <path id="Trazado_166685" data-name="Trazado 166685" d="M281.5,241h5.733v11.467H281.5Z" transform="translate(-3.133 -1.333)" fill="#8f52f5"/>
    <path id="Trazado_166686" data-name="Trazado 166686" d="M287.5,230.5h5.733V252H287.5Z" transform="translate(-3.4 -0.867)" fill="#4f1473"/>
    <path id="Trazado_166687" data-name="Trazado 166687" d="M218.5,230.5h43v11.467h-43Z" transform="translate(-0.333 -0.867)" fill="#8f52f5"/>
    <path id="Trazado_166688" data-name="Trazado 166688" d="M221.5,248.5h24.367v5.733H221.5Z" transform="translate(-0.467 -1.667)" fill="#8f52f5"/>
    <path id="Trazado_166701" data-name="Trazado 166701" d="M2.867,0A2.867,2.867,0,1,1,0,2.867,2.867,2.867,0,0,1,2.867,0Z" transform="translate(251.133 246.833)" fill="#8f52f5"/>
    <path id="Trazado_166689" data-name="Trazado 166689" d="M295.567,211H212.433A1.434,1.434,0,0,0,211,212.433v83.133A1.434,1.434,0,0,0,212.433,297h83.133A1.434,1.434,0,0,0,297,295.567V212.433A1.434,1.434,0,0,0,295.567,211Zm-1.433,83.133H213.867v-68.8h77.4v-2.867h-77.4v-8.6h80.267Z"/>
    <circle id="Elipse_5050" data-name="Elipse 5050" cx="1.433" cy="1.433" r="1.433" transform="translate(216.733 216.733)"/>
    <circle id="Elipse_5051" data-name="Elipse 5051" cx="1.433" cy="1.433" r="1.433" transform="translate(222.467 216.733)"/>
    <circle id="Elipse_5052" data-name="Elipse 5052" cx="1.433" cy="1.433" r="1.433" transform="translate(228.2 216.733)"/>
    <path id="Trazado_166690" data-name="Trazado 166690" d="M252.193,280.9l7.1-7.1a1.433,1.433,0,0,0,0-2.027h0a12.9,12.9,0,0,0-22.006,8.512l-6.342,6.343H221.5V289.5h10.033a1.436,1.436,0,0,0,1.014-.419l5.1-5.1a12.9,12.9,0,0,0,21.646,6.037,1.433,1.433,0,0,0,0-2.027h0Zm-2.027,10.033a10.033,10.033,0,1,1,6.009-18.071l-7.023,7.023a1.436,1.436,0,0,0,0,2.028l7.023,7.023A9.961,9.961,0,0,1,250.167,290.933Z" transform="translate(-0.467 -2.533)"/>
    <path id="Trazado_166691" data-name="Trazado 166691" d="M292.367,229h-5.733a1.434,1.434,0,0,0-1.433,1.433v8.6h-2.867v-2.867a1.434,1.434,0,0,0-1.433-1.433h-5.733a1.434,1.434,0,0,0-1.433,1.433V241.9h-4.3A1.434,1.434,0,0,0,268,243.333v8.6a1.434,1.434,0,0,0,1.433,1.433h22.933a1.434,1.434,0,0,0,1.433-1.433v-21.5A1.434,1.434,0,0,0,292.367,229Zm-21.5,15.767h2.867V250.5h-2.867Zm5.733-1.433V237.6h2.867v12.9H276.6Zm5.733-1.433H285.2v8.6h-2.867Zm8.6,8.6h-2.867V231.867h2.867Z" transform="translate(-2.533 -0.8)"/>
    <path id="Trazado_166692" data-name="Trazado 166692" d="M227.5,260.5h5.733v2.867H227.5Z" transform="translate(-0.733 -2.2)"/>
    <path id="Trazado_166693" data-name="Trazado 166693" d="M236.5,260.5h11.467v2.867H236.5Z" transform="translate(-1.133 -2.2)"/>
    <path id="Trazado_166694" data-name="Trazado 166694" d="M251.5,260.5h2.867v2.867H251.5Z" transform="translate(-1.8 -2.2)"/>
    <path id="Trazado_166695" data-name="Trazado 166695" d="M278.053,272.876l-5.091,5.091a12.819,12.819,0,0,0-3.407-6.032,1.433,1.433,0,0,0-2.027,0l-8.109,8.108a1.436,1.436,0,0,0,0,2.028l8.109,8.108a1.433,1.433,0,0,0,2.027,0,12.812,12.812,0,0,0,3.764-8.513l6.341-6.342h8.007v-2.867h-8.6a1.436,1.436,0,0,0-1.014.419Zm-9.582,14.19-6.01-6.009,6.01-6.009a10.045,10.045,0,0,1,0,12.019Z" transform="translate(-2.133 -2.69)"/>
    <path id="Trazado_166696" data-name="Trazado 166696" d="M280,266.5h8.6v2.867H280Z" transform="translate(-3.067 -2.467)"/>
    <path id="Trazado_166697" data-name="Trazado 166697" d="M221.5,281.5h8.6v2.867h-8.6Z" transform="translate(-0.467 -3.133)"/>
    <path id="Trazado_166698" data-name="Trazado 166698" d="M261.433,243.333h-43A1.434,1.434,0,0,1,217,241.9V230.433A1.434,1.434,0,0,1,218.433,229h43a1.434,1.434,0,0,1,1.433,1.433V241.9A1.434,1.434,0,0,1,261.433,243.333Zm-41.567-2.867H260v-8.6H219.867Z" transform="translate(-0.267 -0.8)"/>
    <path id="Trazado_166699" data-name="Trazado 166699" d="M245.8,255.6H221.433A1.434,1.434,0,0,1,220,254.167v-5.733A1.434,1.434,0,0,1,221.433,247H245.8a1.434,1.434,0,0,1,1.433,1.433v5.733A1.434,1.434,0,0,1,245.8,255.6Zm-22.933-2.867h21.5v-2.867h-21.5Z" transform="translate(-0.4 -1.6)"/>
    <path id="Trazado_166700" data-name="Trazado 166700" d="M255.8,255.6a4.3,4.3,0,1,1,4.3-4.3A4.3,4.3,0,0,1,255.8,255.6Zm0-5.733a1.433,1.433,0,1,0,1.433,1.433A1.434,1.434,0,0,0,255.8,249.867Z" transform="translate(-1.8 -1.6)"/>
  </g>
</svg>
