<svg xmlns="http://www.w3.org/2000/svg" width="620" height="317" viewBox="0 0 620 317">
  <g id="Grupo_101195" data-name="Grupo 101195" transform="translate(6976 8604)">
    <rect id="Rectángulo_24320" data-name="Rectángulo 24320" width="620" height="317" transform="translate(-6976 -8604)" fill="#96f008" opacity="0.7"/>
    <g id="Grupo_94254" data-name="Grupo 94254" transform="translate(-6922.461 -8701)">
      <path id="Trazado_150289" data-name="Trazado 150289" d="M256.176,215.947l-44.009,77.068,22,33.863h45.138L301.2,295.35Z" fill="#22d0b3"/>
      <g id="Grupo_94247" data-name="Grupo 94247">
        <g id="Grupo_94246" data-name="Grupo 94246">
          <path id="Trazado_150290" data-name="Trazado 150290" d="M304.245,293.092l-45.351-79.576a3.13,3.13,0,0,0-5.437,0l-45.351,79.576a3.126,3.126,0,0,0,.21,3.419l21.05,28.23H224.7a3.129,3.129,0,0,0,0,6.258h62.943a3.129,3.129,0,0,0,0-6.258h-4.662l21.05-28.23A3.13,3.13,0,0,0,304.245,293.092Zm-29.067,31.65H237.172l-22.616-30.33,38.49-67.537V262.3a3.129,3.129,0,1,0,6.258,0V226.875l38.49,67.537Z"/>
        </g>
      </g>
      <g id="Grupo_94249" data-name="Grupo 94249">
        <g id="Grupo_94248" data-name="Grupo 94248">
          <path id="Trazado_150291" data-name="Trazado 150291" d="M256.175,271.122a3.129,3.129,0,0,0-3.129,3.129v1.758a3.129,3.129,0,1,0,6.258,0v-1.758A3.128,3.128,0,0,0,256.175,271.122Z"/>
        </g>
      </g>
      <rect id="Rectángulo_24317" data-name="Rectángulo 24317" width="8.175" height="8.175" transform="translate(183.719 262.947)" fill="#ff4b52"/>
      <rect id="Rectángulo_24318" data-name="Rectángulo 24318" width="9.05" height="9.05" transform="translate(251.868 185.295)" fill="#ff4b52"/>
      <rect id="Rectángulo_24319" data-name="Rectángulo 24319" width="11.677" height="8.521" transform="translate(319.887 262.947)" fill="#ff4b52"/>
      <circle id="Elipse_5022" data-name="Elipse 5022" cx="5.109" cy="5.109" r="5.109" transform="translate(193.484 185.295)" fill="#ff4b52"/>
      <circle id="Elipse_5023" data-name="Elipse 5023" cx="5.255" cy="5.255" r="5.255" transform="translate(309.961 185.295)" fill="#ff4b52"/>
      <g id="Grupo_94251" data-name="Grupo 94251">
        <g id="Grupo_94250" data-name="Grupo 94250">
          <path id="Trazado_150292" data-name="Trazado 150292" d="M331.409,257.991h-2.69a72.628,72.628,0,0,0-42.247-64.4h19.361a8.754,8.754,0,1,0,0-6.258H265.281v-3.2A3.128,3.128,0,0,0,262.152,181H250.2a3.128,3.128,0,0,0-3.129,3.128v3.2H206.518a8.754,8.754,0,1,0,0,6.258H225.88a72.626,72.626,0,0,0-42.248,64.4h-3.041a3.129,3.129,0,0,0-3.13,3.129v11.953a3.129,3.129,0,0,0,3.129,3.129h11.953a3.128,3.128,0,0,0,3.129-3.129V261.12a3.128,3.128,0,0,0-3.129-3.129H189.89a65.9,65.9,0,0,1,57.18-64.138v2.229a3.128,3.128,0,0,0,3.129,3.129h11.953a3.129,3.129,0,0,0,3.129-3.129v-2.229a65.9,65.9,0,0,1,57.18,64.138h-3.005a3.129,3.129,0,0,0-3.129,3.129v11.953a3.129,3.129,0,0,0,3.129,3.129h11.953a3.129,3.129,0,0,0,3.129-3.129V261.12A3.129,3.129,0,0,0,331.409,257.991Zm-17.4-70.03a2.5,2.5,0,1,1-2.5,2.5A2.5,2.5,0,0,1,314.007,187.961Zm-115.663,4.991a2.5,2.5,0,1,1,2.5-2.5A2.5,2.5,0,0,1,198.344,192.952Zm-8.93,76.992h-5.7v-5.7h5.7Zm69.609-76.992h-5.7v-5.694h5.7Zm69.257,76.992h-5.7v-5.7h5.7Z"/>
        </g>
      </g>
    </g>
  </g>
</svg>
