<svg xmlns="http://www.w3.org/2000/svg" width="92" height="92" viewBox="0 0 92 92">
  <g id="Grupo_90889" data-name="Grupo 90889" transform="translate(-210 -210)">
    <g id="Grupo_86382" data-name="Grupo 86382">
      <circle id="Elipse_5014" data-name="Elipse 5014" cx="46" cy="46" r="46" transform="translate(210 210)" fill="#fabc00"/>
      <circle id="Elipse_5015" data-name="Elipse 5015" cx="39.292" cy="39.292" r="39.292" transform="translate(216.708 216.708)" fill="#feca2e"/>
      <g id="Grupo_90890" data-name="Grupo 90890" transform="translate(0 1.35)">
        <g id="Grupo_90900" data-name="Grupo 90900">
          <g id="Grupo_90890-2" data-name="Grupo 90890">
            <path id="Trazado_144217" data-name="Trazado 144217" d="M277.806,281.161H256a3.355,3.355,0,0,1-3.355-3.355V234.194A3.355,3.355,0,0,1,256,230.839h21.806a3.355,3.355,0,0,1,3.355,3.355v43.612A3.355,3.355,0,0,1,277.806,281.161Z" fill="#969faa"/>
          </g>
          <g id="Grupo_90891" data-name="Grupo 90891">
            <path id="Trazado_144218" data-name="Trazado 144218" d="M277.806,238.387v31.871a.841.841,0,0,1-.838.839H256v-32.71a.841.841,0,0,1,.839-.839h20.129A.841.841,0,0,1,277.806,238.387Z" fill="#69d6f4"/>
          </g>
          <g id="Grupo_90892" data-name="Grupo 90892">
            <path id="Trazado_144219" data-name="Trazado 144219" d="M259.355,254.323h15.1v3.354h-15.1Z" fill="#b4dd7f"/>
          </g>
          <g id="Grupo_90893" data-name="Grupo 90893">
            <path id="Trazado_144220" data-name="Trazado 144220" d="M259.355,240.9h8.387v10.065h-8.387Z" fill="#ff826e"/>
          </g>
          <g id="Grupo_90894" data-name="Grupo 90894">
            <path id="Trazado_144221" data-name="Trazado 144221" d="M259.355,276.129l-1.434,1.434a.846.846,0,0,1-.587.243h-.5a.841.841,0,0,1-.839-.838V275.29a.841.841,0,0,1,.839-.838h.5a.846.846,0,0,1,.587.243Z" fill="#e6e9ed"/>
          </g>
          <g id="Grupo_90895" data-name="Grupo 90895">
            <path id="Trazado_144222" data-name="Trazado 144222" d="M268.581,275.29v1.678a.841.841,0,0,1-.839.838h-1.677a.841.841,0,0,1-.839-.838V275.29a.841.841,0,0,1,.839-.838h1.677A.841.841,0,0,1,268.581,275.29Z" fill="#e6e9ed"/>
          </g>
          <g id="Grupo_90896" data-name="Grupo 90896">
            <path id="Trazado_144223" data-name="Trazado 144223" d="M277.806,275.29v1.678a.84.84,0,0,1-.838.838h-.495a.846.846,0,0,1-.587-.243l-1.434-1.434,1.434-1.434a.846.846,0,0,1,.587-.243h.495A.84.84,0,0,1,277.806,275.29Z" fill="#e6e9ed"/>
          </g>
          <g id="Grupo_90897" data-name="Grupo 90897">
            <path id="Trazado_144224" data-name="Trazado 144224" d="M270.258,230.839v3.355a3.355,3.355,0,0,1-6.71,0v-3.355Z" fill="#fcd770"/>
          </g>
          <g id="Grupo_90898" data-name="Grupo 90898">
            <path id="Trazado_144225" data-name="Trazado 144225" d="M248.452,245.935l-5.033,6.71-5.032-6.71H240.9v-8.387h5.032v8.387Z" fill="#b4dd7f"/>
          </g>
          <g id="Grupo_90899" data-name="Grupo 90899">
            <path id="Trazado_144226" data-name="Trazado 144226" d="M252.645,260.043A12.57,12.57,0,1,1,243.419,256,12.468,12.468,0,0,1,252.645,260.043Z" fill="#ffeaa7"/>
          </g>
        </g>
        <g id="Grupo_90901" data-name="Grupo 90901">
          <path id="Trazado_144227" data-name="Trazado 144227" d="M267.742,273.613h-1.677a1.679,1.679,0,0,0-1.678,1.677v1.678a1.679,1.679,0,0,0,1.678,1.677h1.677a1.679,1.679,0,0,0,1.677-1.677V275.29A1.679,1.679,0,0,0,267.742,273.613Zm-1.677,3.355V275.29h1.677v1.678Z"/>
          <path id="Trazado_144228" data-name="Trazado 144228" d="M276.968,273.613h-.492a1.665,1.665,0,0,0-1.186.491l-2.024,2.025,2.024,2.025a1.665,1.665,0,0,0,1.186.491h.492a1.678,1.678,0,0,0,1.677-1.677V275.29A1.678,1.678,0,0,0,276.968,273.613Zm-.492,3.355-.838-.839.838-.839h.492v1.678Z"/>
          <circle id="Elipse_5043" data-name="Elipse 5043" cx="0.839" cy="0.839" r="0.839" transform="translate(266.065 233.355)"/>
          <path id="Trazado_144229" data-name="Trazado 144229" d="M277.806,230H256a4.2,4.2,0,0,0-4.194,4.194v23.928a13.415,13.415,0,1,0,.167,20.789A4.187,4.187,0,0,0,256,282h21.806A4.2,4.2,0,0,0,282,277.806V234.194A4.2,4.2,0,0,0,277.806,230Zm-13.419,1.677h5.032v2.517a2.516,2.516,0,1,1-5.032,0Zm12.581,6.71v31.871h-20.13V238.387Zm-23.484-4.193A2.519,2.519,0,0,1,256,231.677h6.71v2.517a4.155,4.155,0,0,0,.86,2.516h-6.731a1.679,1.679,0,0,0-1.678,1.677V262.1a13.431,13.431,0,0,0-1.677-2.364Zm-10.065,46.129a11.742,11.742,0,1,1,11.742-11.742A11.756,11.756,0,0,1,243.419,280.323Zm36.9-2.517a2.52,2.52,0,0,1-2.517,2.517H256a2.519,2.519,0,0,1-2.516-2.517v-.379a13.47,13.47,0,0,0,1.705-2.41,1.651,1.651,0,0,0-.028.273v1.678a1.679,1.679,0,0,0,1.678,1.677h.491a1.665,1.665,0,0,0,1.186-.491l2.025-2.025-2.025-2.025a1.665,1.665,0,0,0-1.186-.491h-.491a1.668,1.668,0,0,0-1.23.545,13.263,13.263,0,0,0,.788-2.223h20.571a1.678,1.678,0,0,0,1.677-1.677V238.387a1.679,1.679,0,0,0-1.677-1.677h-6.732a4.149,4.149,0,0,0,.861-2.516v-2.517h6.709a2.52,2.52,0,0,1,2.517,2.517Zm-23.484-.838V275.29h.491l.839.839-.839.839Z"/>
          <path id="Trazado_144230" data-name="Trazado 144230" d="M250.129,245.1h-3.355V236.71h-6.709V245.1H236.71l6.709,8.946Zm-8.387,1.677v-8.387H245.1v8.387h1.677l-3.355,4.473-3.354-4.473Z"/>
          <path id="Trazado_144231" data-name="Trazado 144231" d="M268.581,240.065H258.516v11.741h10.065ZM266.9,250.129h-6.709v-8.387H266.9Z"/>
          <path id="Trazado_144232" data-name="Trazado 144232" d="M270.258,240.065h5.032v1.677h-5.032Z"/>
          <path id="Trazado_144233" data-name="Trazado 144233" d="M270.258,243.419h5.032V245.1h-5.032Z"/>
          <path id="Trazado_144234" data-name="Trazado 144234" d="M270.258,246.774h5.032v1.678h-5.032Z"/>
          <path id="Trazado_144235" data-name="Trazado 144235" d="M270.258,250.129h5.032v1.677h-5.032Z"/>
          <path id="Trazado_144236" data-name="Trazado 144236" d="M275.29,253.484H258.516v5.032H275.29Zm-1.677,3.355H260.194v-1.678h13.419Z"/>
          <path id="Trazado_144237" data-name="Trazado 144237" d="M258.516,260.194h1.678v1.677h-1.678Z"/>
          <path id="Trazado_144238" data-name="Trazado 144238" d="M261.871,260.194H275.29v1.677H261.871Z"/>
          <path id="Trazado_144239" data-name="Trazado 144239" d="M258.516,263.548H275.29v1.678H258.516Z"/>
          <path id="Trazado_144240" data-name="Trazado 144240" d="M258.516,266.9H275.29v1.678H258.516Z"/>
        </g>
      </g>
    </g>
  </g>
</svg>
