<svg xmlns="http://www.w3.org/2000/svg" xmlns:xlink="http://www.w3.org/1999/xlink" width="176.605" height="166.27" viewBox="0 0 176.605 166.27">
  <defs>
    <linearGradient id="linear-gradient" x1="0.788" y1="0.02" x2="-0.835" y2="2.748" gradientUnits="objectBoundingBox">
      <stop offset="0.004" stop-color="#e3ac52"/>
      <stop offset="1" stop-color="#f65b31"/>
    </linearGradient>
    <linearGradient id="linear-gradient-2" x1="0.007" y1="2.859" x2="-13.298" y2="58.194" xlink:href="#linear-gradient"/>
    <linearGradient id="linear-gradient-3" x1="0.901" y1="-2.565" x2="0.31" y2="1.736" gradientUnits="objectBoundingBox">
      <stop offset="0" stop-color="#ffb54a"/>
      <stop offset="0.996" stop-color="#eb7136"/>
    </linearGradient>
    <linearGradient id="linear-gradient-4" x1="579.391" y1="67.431" x2="580.443" y2="68.881" gradientUnits="objectBoundingBox">
      <stop offset="0" stop-color="#444b8c"/>
      <stop offset="0.996" stop-color="#26264f"/>
    </linearGradient>
    <linearGradient id="linear-gradient-5" x1="301.612" y1="33.59" x2="301.612" y2="32.239" gradientUnits="objectBoundingBox">
      <stop offset="0" stop-color="#ffc444"/>
      <stop offset="0.996" stop-color="#f36f56"/>
    </linearGradient>
    <linearGradient id="linear-gradient-6" x1="734.534" y1="82.778" x2="735.866" y2="84.567" xlink:href="#linear-gradient-4"/>
    <linearGradient id="linear-gradient-7" x1="662.929" y1="-0.515" x2="664.023" y2="0.793" xlink:href="#linear-gradient-4"/>
    <linearGradient id="linear-gradient-8" x1="476.774" y1="1.222" x2="476.774" y2="-0.194" xlink:href="#linear-gradient-5"/>
    <linearGradient id="linear-gradient-9" x1="-23.506" y1="1.09" x2="-24.162" y2="-0.252" xlink:href="#linear-gradient-4"/>
    <linearGradient id="linear-gradient-10" x1="-39.186" y1="-2.115" x2="-39.485" y2="0.832" xlink:href="#linear-gradient-3"/>
    <linearGradient id="linear-gradient-11" x1="824.753" y1="-1.298" x2="826.113" y2="0.479" xlink:href="#linear-gradient-4"/>
    <linearGradient id="linear-gradient-12" x1="385.265" y1="-312.071" x2="381.833" y2="-306.353" xlink:href="#linear-gradient-5"/>
    <linearGradient id="linear-gradient-13" x1="-131.926" y1="-4.459" x2="-131.423" y2="15.149" xlink:href="#linear-gradient-5"/>
    <linearGradient id="linear-gradient-14" x1="-197.804" y1="-0.019" x2="-197.05" y2="3.776" xlink:href="#linear-gradient-5"/>
    <linearGradient id="linear-gradient-15" x1="-795.059" y1="-2.519" x2="-792.035" y2="23.426" xlink:href="#linear-gradient-5"/>
    <linearGradient id="linear-gradient-16" x1="8.216" y1="-486.354" x2="8.856" y2="-485.066" xlink:href="#linear-gradient-5"/>
    <linearGradient id="linear-gradient-17" x1="-55.902" y1="-2.528" x2="-56.327" y2="1.755" xlink:href="#linear-gradient-3"/>
  </defs>
  <g id="Group_89679" data-name="Group 89679" transform="translate(-565.861 -2024.951)">
    <path id="Path_143032" data-name="Path 143032" d="M734,2070.905c1.359-12.375-1.248-22.353-6.335-29.987-12.16-18.246-41.837-16.261-58.148-15.505-24.268,1.124-56.819,2.632-79.917,27.5-31.192,33.58-31.34,94.9-2.22,122.234,8.948,8.4,38.981,18.242,99.461,15.655,17.85-.764,33.36.71,48.89-27.544C751.229,2135.053,729.436,2112.45,734,2070.905Z" fill="#f4f7fa"/>
    <g id="Group_89685" data-name="Group 89685">
      <g id="Group_89680" data-name="Group 89680">
        <g id="Group_89679-2" data-name="Group 89679">
          <path id="Path_143033" data-name="Path 143033" d="M631.521,2138.807l20.028-39.049c1.7-3.31.08-5.732-3.91-6.407l-4.481-.759c-5.786-.979-7.936-3.764-6.1-7.132l3.244-4.425,6.857.2-1.07,2.745c-.7,1.784.716,3.187,3.862,3.662l4.211.635c6.738,1.017,10.1,4.817,8.083,10.35l-9.119,36.558Z" fill="#abc"/>
        </g>
        <path id="Path_143034" data-name="Path 143034" d="M643.383,2078.978l-7.368,3.06,14.736-.488Z" fill="#abc"/>
      </g>
      <g id="Group_89682" data-name="Group 89682">
        <g id="Group_89681" data-name="Group 89681">
          <path id="Path_143035" data-name="Path 143035" d="M628.042,2155.354l67.174-41.43c5.291-2.936,11.546-4.1,16.357-3.291l5.347.9c6.82,1.144,13.639-.086,17.915-2.864l5.975-3.331-7.154-2.326L729.891,2105a15.436,15.436,0,0,1-9.671,1.126l-4.726-.9c-7.65-1.449-19.064-2.248-28.707,2.07l-78.5,41.154Z" fill="#abc"/>
        </g>
        <path id="Path_143036" data-name="Path 143036" d="M728.919,2102.328l10.341-.843,3.207,5.5Z" fill="#abc"/>
      </g>
      <g id="Group_89684" data-name="Group 89684">
        <g id="Group_89683" data-name="Group 89683">
          <path id="Path_143037" data-name="Path 143037" d="M621.729,2185.712H567.868l147.6-129.235,8.481,1.088Z" fill="url(#linear-gradient)"/>
        </g>
        <path id="Path_143038" data-name="Path 143038" d="M708.826,2057.325l14.616-3.843,4.017,6.237Z" fill="url(#linear-gradient-2)"/>
      </g>
    </g>
    <g id="Group_89687" data-name="Group 89687">
      <path id="Path_143039" data-name="Path 143039" d="M602.485,2091.932s-12.907,5.132-11.422,13.445,10.354,15.883,12.655,13.953c1.855-3.34,1.784-2.6.539-4.676s-7.405-7.867-.5-11.133S602.485,2091.932,602.485,2091.932Z" fill="url(#linear-gradient-3)"/>
      <path id="Path_143040" data-name="Path 143040" d="M600.123,2172.455c-.081-.445-1.519-.848-2.232-.252-.353.3-.6.9-.392,1.168.074.1-.23.272.062.275C598.529,2173.658,600.2,2172.9,600.123,2172.455Z" fill="url(#linear-gradient-4)"/>
      <path id="Path_143041" data-name="Path 143041" d="M598.615,2172.617l-1.479-.209c.685-.825.558-3.453.558-3.453l1.574.352s-.18.721-.485,1.785A6.99,6.99,0,0,0,598.615,2172.617Z" fill="url(#linear-gradient-5)"/>
      <path id="Path_143042" data-name="Path 143042" d="M598.746,2172.435s-1.78-.41-1.973-.057-.342,1.3.788,1.268S598.847,2172.734,598.746,2172.435Z" fill="url(#linear-gradient-6)"/>
      <path id="Path_143043" data-name="Path 143043" d="M620.419,2174.125c-.143-.43-1.623-.627-2.245.063-.309.343-.466.971-.225,1.211.087.087-.19.3.1.264C619.009,2175.539,620.56,2174.552,620.419,2174.125Z" fill="url(#linear-gradient-7)"/>
      <path id="Path_143044" data-name="Path 143044" d="M618.949,2174.5h-1.494c.563-.913.069-3.5.069-3.5l1.607.127s-.076.739-.229,1.836A6.931,6.931,0,0,0,618.949,2174.5Z" fill="url(#linear-gradient-8)"/>
      <path id="Path_143045" data-name="Path 143045" d="M622.82,2118a69.263,69.263,0,0,1,2.317,10.6c1.814,13.2-2.043,13.621-1.322,28.247.23,4.669-4.045,15.435-4.422,15.673a4.843,4.843,0,0,1-.591.023,5.982,5.982,0,0,1-1.506-.251c-.677-.117-3.118-6.73-2.552-10.661.4-2.783.284-5.769.052-11.742-.038-.968-2.514-18.828-2.514-18.828h0c-.753,6.611-1.619,12.228-2.37,16.583-2.413,13.993-10.257,22.462-10.667,22.6a1.662,1.662,0,0,1-1.418-.1.98.98,0,0,1-.359-.4c-.21-.164.062-13.969,2.454-24.359,3.473-15.081,1.961-18.61,3.061-25.346C603.935,2114.212,622.82,2118,622.82,2118Z" fill="url(#linear-gradient-9)"/>
      <path id="Path_143046" data-name="Path 143046" d="M623.749,2120.282a24.276,24.276,0,0,1-13.856,2.037,21.649,21.649,0,0,1-6.909-2.277c1.659-5.027.356-7.719-.259-10.2-.874-3.535-.89-3.27-1.611-6.078-1.19-4.635-1.386-9.374-.569-10.34,1.705-2.021,4.463-2.536,6.583-2.692.625-.047,1.193-.063,1.665-.076a45.911,45.911,0,0,1,5.177-.133,8.763,8.763,0,0,1,5.346,1.877c.05.043-.548.366-.252.708a19.356,19.356,0,0,1,2.06,2.957,19.876,19.876,0,0,1,1.735,4.287,36.835,36.835,0,0,1,1.366,7.476C624.76,2114.842,624.228,2118.082,623.749,2120.282Z" fill="url(#linear-gradient-10)"/>
      <path id="Path_143047" data-name="Path 143047" d="M619.053,2174.3s-1.821-.157-1.962.22-.157,1.334.957,1.145S619.194,2174.58,619.053,2174.3Z" fill="url(#linear-gradient-11)"/>
      <path id="Path_143048" data-name="Path 143048" d="M610.307,2087.361c-.327-.2-.576.225-.422.592a.726.726,0,0,0,.985.378C611.184,2088.112,610.747,2087.624,610.307,2087.361Z" fill="url(#linear-gradient-12)"/>
      <path id="Path_143049" data-name="Path 143049" d="M614.359,2091.037c0,.634-1.648,1.149-3.685,1.149s-3.682-.515-3.682-1.149a.446.446,0,0,1,.136-.306c.625-.047,1.193-.063,1.665-.076a45.911,45.911,0,0,1,5.177-.133C614.219,2090.678,614.359,2090.854,614.359,2091.037Z" fill="url(#linear-gradient-13)"/>
      <g id="Group_89686" data-name="Group 89686">
        <path id="Path_143050" data-name="Path 143050" d="M611.663,2090.545q-.32-.72-.639-1.439c.187-.183,1.407-1.1,1.381-2.129a4.2,4.2,0,0,0-1.368-2.688c-.916-.9-1.111-1-1.447-1.1l-.461-.12-.052,0a4.652,4.652,0,0,0-1.293.312c-.513.285-.41,2.7.727,5.812.015.127.03.256.046.385.1.8.239,1.57.4,2.3C608.958,2091.873,611.058,2091.963,611.663,2090.545Z" fill="url(#linear-gradient-14)"/>
      </g>
      <path id="Path_143051" data-name="Path 143051" d="M610.509,2082.586a1.508,1.508,0,0,1-.545,1.642,1.706,1.706,0,0,0-.235.5.5.5,0,0,0-.021.133c-.025.684,1.18,1.109,1.075,1.443-.076.243-.825.18-.851.377s.633.353.608.574c-.019.167-.4.137-.547.429-.073.145-.014.225-.022.6a3.225,3.225,0,0,1-.062.594c-.162.68-1.057,1.184-1.312,1.011-.071-.049-.043-.116-.162-.315a1.8,1.8,0,0,0-.319-.373,4.674,4.674,0,0,0-1.441-.557,3.32,3.32,0,0,1-1.634-1.007c-.046-.058-.078-.1-.1-.135a3.8,3.8,0,0,1-.657-2.463c.208-1.259,1.594-1.117,2.265-2.508.375-.775.6-1.588,1.5-1.907a1.471,1.471,0,0,1,1.767.6A5.125,5.125,0,0,1,610.509,2082.586Z" fill="#26264f"/>
      <path id="Path_143052" data-name="Path 143052" d="M610.36,2086.178c-.341-.256-.668.183-.539.611a.815.815,0,0,0,1.054.537C611.25,2087.118,610.82,2086.523,610.36,2086.178Z" fill="url(#linear-gradient-15)"/>
      <path id="Path_143053" data-name="Path 143053" d="M613.5,2081.1l-1.517-.935a3.206,3.206,0,0,0-2.947.376c-1.54,1.013-.881,1.747-.881,1.747l1.134-.512a2.392,2.392,0,0,1,1.861.165,6.368,6.368,0,0,0,2.212.285Z" fill="url(#linear-gradient-16)"/>
      <path id="Path_143054" data-name="Path 143054" d="M620.592,2079.777a17.263,17.263,0,0,0-7.755-.644,3.247,3.247,0,0,0-.761,1.836c-.165,3.55,7.236,4.769,7.433,8.064.131,2.2-3.109,2.519-4.883,7.271-.852,2.28-.5,3.263.07,3.824a4.674,4.674,0,0,0,3.048.917c4.346.058,10.911-4.255,11.484-10.042C629.708,2086.16,625.864,2081.55,620.592,2079.777Z" fill="url(#linear-gradient-17)"/>
    </g>
  </g>
</svg>
