<svg xmlns="http://www.w3.org/2000/svg" width="48.45" height="49.25" viewBox="0 0 48.45 49.25">
  <g id="Group_112778" data-name="Group 112778" transform="translate(-492.752 220.085)">
    <path id="Path_171238" data-name="Path 171238" d="M496.827-177.318h20.955v-.561q0-3.581,0-7.163c0-.548.225-.866.643-.943.564-.1.966.268.968.921q.008,3.582,0,7.163v.606c.517,0,1-.006,1.48,0,.632.009.935.3.938.924a14.229,14.229,0,0,1-.042,2.014,4,4,0,0,1-4.123,3.517q-10.365.008-20.73,0a4.658,4.658,0,0,1-.85-.076,4.009,4.009,0,0,1-3.311-3.894c-.01-.5-.007-1.009,0-1.513.008-.685.3-.965.993-.972.452,0,.9,0,1.428,0v-16.6c0-.93.232-1.163,1.156-1.163,2.337,0,4.674,0,7.011,0a.844.844,0,0,1,.917.553c.2.571-.213,1.06-.9,1.062-1.984.006-3.968,0-5.952,0h-.584Zm23.347,1.672h-25.8c0,.285,0,.535,0,.785a2.326,2.326,0,0,0,1.916,2.331,13.485,13.485,0,0,0,2.122.02c0-.256-.014-.507,0-.756a.8.8,0,0,1,.809-.8.8.8,0,0,1,.8.812c.015.26,0,.521,0,.773h14.52c.058-.647-.193-1.548.808-1.558,1.04-.011.748.935.85,1.546C519.458-172.076,520.4-173.609,520.174-175.646Z"/>
    <path id="Path_171239" data-name="Path 171239" d="M506.845-191.932c.66,1.141,1.291,2.23,1.92,3.32a2.48,2.48,0,0,1,.208.4.811.811,0,0,1-.38.992.806.806,0,0,1-1.087-.344c-.559-.938-1.1-1.889-1.642-2.834-.109-.189-.221-.375-.376-.637-1.028.62-2.074,1.185-3.044,1.861a1.443,1.443,0,0,0-.337,1.879c.532.973,1.082,1.937,1.666,2.879a1.565,1.565,0,0,0,2.083.554.758.758,0,0,0,.089-.047c2.813-1.908,6.03-2.911,9.168-4.092l6.929-2.6c.124-.047.245-.1.4-.168-.589-1.021-1.166-2.023-1.745-3.026s-1.146-1.976-1.713-2.968c-.313-.547-.22-1.02.23-1.261.425-.228.869-.066,1.17.454q1.9,3.292,3.8,6.593c.433.755.283,1.171-.531,1.477q-5.633,2.118-11.265,4.232c-.187.07-.372.145-.588.231.516.9,1.039,1.765,1.505,2.656a2.4,2.4,0,0,1-.932,3.2,2.412,2.412,0,0,1-3.24-.784c-.129-.2-.239-.4-.357-.608l-1.249-2.157a19.163,19.163,0,0,1-2.244.675,2.554,2.554,0,0,1-2.1-.665.529.529,0,0,0-.7-.047,4.761,4.761,0,0,1-1.443.532,2.3,2.3,0,0,1-2.466-1.585,2.291,2.291,0,0,1,.941-2.779,1.383,1.383,0,0,0,.854-1.53,2.836,2.836,0,0,1,1.311-2.532,1.093,1.093,0,0,1,.168-.112c3.55-1.732,6.39-4.435,9.407-6.893,1.759-1.434,3.5-2.888,5.255-4.33.616-.506,1.086-.425,1.487.251.231.39.465.779.678,1.179a.808.808,0,0,1-.266,1.144.807.807,0,0,1-1.126-.329c-.1-.151-.19-.31-.321-.526Zm2,8.277c.557.965,1.072,1.884,1.615,2.787a.782.782,0,0,0,1.091.3.786.786,0,0,0,.291-1.092c-.207-.4-.447-.787-.674-1.178-.307-.53-.617-1.058-.938-1.608Zm-7.719-2.065c-.489.319-1.131.433-1.083,1.116a.983.983,0,0,0,.462.692c.552.27.956-.152,1.412-.439Z"/>
    <path id="Path_171240" data-name="Path 171240" d="M533.928-204.747c-1.563,0-3.127,0-4.691,0a2.422,2.422,0,0,1-2.573-2.551c-.006-1.5,0-2.993,0-4.49,0-.651.281-1.013.783-1.029.517-.016.829.367.83,1.032,0,1.463,0,2.926,0,4.389,0,.759.275,1.033,1.034,1.034q4.615,0,9.231,0c.758,0,1.035-.276,1.035-1.033q0-4.615,0-9.232c0-.76-.274-1.036-1.03-1.037q-4.615,0-9.231,0c-.762,0-1.034.273-1.039,1.027,0,.454.011.909-.006,1.362a.8.8,0,0,1-.822.836.8.8,0,0,1-.782-.824c-.016-.588-.027-1.178,0-1.765a2.374,2.374,0,0,1,2.308-2.241q4.944-.035,9.887,0a2.354,2.354,0,0,1,2.316,2.336q.031,4.919,0,9.837a2.378,2.378,0,0,1-2.413,2.346C537.157-204.735,535.542-204.747,533.928-204.747Z"/>
    <path id="Path_171241" data-name="Path 171241" d="M526.663-186.981c0-1.564,0-3.128,0-4.692a2.424,2.424,0,0,1,2.6-2.576q4.666,0,9.332,0a2.423,2.423,0,0,1,2.6,2.573q.008,2.245,0,4.49c0,.635-.3,1.006-.807,1.006s-.8-.371-.806-1.007c0-1.479,0-2.959,0-4.439,0-.724-.284-1.008-1.008-1.008q-4.641,0-9.281,0c-.727,0-1.01.281-1.011,1.005q0,4.641,0,9.282c0,.728.282,1.013,1,1.014q4.64,0,9.281,0c.728,0,1.009-.282,1.016-1,.005-.454-.008-.909.005-1.362a.806.806,0,0,1,.795-.862.8.8,0,0,1,.811.847c.015.571.023,1.144,0,1.715a2.368,2.368,0,0,1-2.284,2.266q-4.968.04-9.937,0a2.369,2.369,0,0,1-2.3-2.408C526.652-183.752,526.663-185.367,526.663-186.981Z"/>
    <path id="Path_171242" data-name="Path 171242" d="M492.756-204.751q0-3.1,0-6.206c0-.79.267-1.055,1.062-1.055q4.592,0,9.183,0c.789,0,1.055.269,1.055,1.063q0,6.206,0,12.413c0,.787-.27,1.055-1.063,1.055q-4.591,0-9.183,0c-.787,0-1.054-.27-1.054-1.063Q492.754-201.648,492.756-204.751Zm9.652,5.634v-11.24H494.4v11.24Z"/>
    <path id="Path_171243" data-name="Path 171243" d="M505.673-212.827a7.273,7.273,0,0,1,7.3-7.258,7.269,7.269,0,0,1,7.232,7.323,7.277,7.277,0,0,1-7.349,7.207A7.273,7.273,0,0,1,505.673-212.827Zm7.271,5.656a5.653,5.653,0,0,0,5.643-5.693,5.656,5.656,0,0,0-5.629-5.607,5.659,5.659,0,0,0-5.67,5.669A5.659,5.659,0,0,0,512.944-207.171Z"/>
    <path id="Path_171244" data-name="Path 171244" d="M533.94-183.755a3.234,3.234,0,0,1-3.24-3.229,3.234,3.234,0,0,1,3.241-3.229,3.235,3.235,0,0,1,3.215,3.2A3.235,3.235,0,0,1,533.94-183.755Zm-.02-4.842a1.62,1.62,0,0,0-1.6,1.608,1.618,1.618,0,0,0,1.645,1.616,1.619,1.619,0,0,0,1.579-1.632A1.624,1.624,0,0,0,533.92-188.6Z"/>
    <path id="Path_171245" data-name="Path 171245" d="M533.928-211.208v1.578c0,1.262-.2,1.66-.82,1.65s-.794-.4-.794-1.674v-1.532c-.678-.071-1.539.19-1.6-.858-.033-.552.33-.72,1.6-.8,0-.255,0-.517,0-.778a2.417,2.417,0,0,1,2.4-2.423c.521-.012,1.042-.011,1.563,0a.813.813,0,0,1,.879.78.816.816,0,0,1-.881.829c-.42.011-.841,0-1.261,0-.825,0-1.081.261-1.083,1.086v.53c.278,0,.54-.012.8,0a.8.8,0,0,1,.81.8.8.8,0,0,1-.8.809C534.492-211.194,534.241-211.208,533.928-211.208Z"/>
    <path id="Path_171246" data-name="Path 171246" d="M525.9-195.865a.85.85,0,0,1-.931-.731.823.823,0,0,1,.725-.881c1.3-.265,2.6-.53,3.9-.787a.836.836,0,0,1,1.1.606.815.815,0,0,1-.743,1c-1.266.265-2.534.518-3.8.773A1.765,1.765,0,0,1,525.9-195.865Z"/>
    <path id="Path_171247" data-name="Path 171247" d="M524.346-206.436a6.021,6.021,0,0,1-.364.681q-1.105,1.5-2.23,2.976c-.366.483-.812.585-1.209.3a.81.81,0,0,1-.1-1.237c.758-1.023,1.525-2.039,2.29-3.057a.728.728,0,0,1,.955-.323A3.1,3.1,0,0,1,524.346-206.436Z"/>
    <path id="Path_171248" data-name="Path 171248" d="M523.309-199.025c-.2-.188-.524-.362-.6-.609a.97.97,0,0,1,.2-.844c1.08-.875,2.2-1.7,3.325-2.516a.753.753,0,0,1,1.071.193.755.755,0,0,1-.127,1.081c-1.085.843-2.189,1.659-3.294,2.475A2.766,2.766,0,0,1,523.309-199.025Z"/>
    <path id="Path_171249" data-name="Path 171249" d="M498.382-203.94c-.5,0-1.009.01-1.513,0a.812.812,0,0,1-.88-.829.806.806,0,0,1,.878-.779q1.539-.017,3.077,0a.808.808,0,0,1,.881.827.814.814,0,0,1-.879.781C499.425-203.93,498.9-203.94,498.382-203.94Z"/>
    <path id="Path_171250" data-name="Path 171250" d="M498.4-200.711c-.521,0-1.043.012-1.564,0a.8.8,0,0,1-.848-.809.8.8,0,0,1,.86-.8q1.563-.018,3.127,0a.8.8,0,0,1,.849.807.809.809,0,0,1-.861.8C499.444-200.7,498.922-200.71,498.4-200.711Z"/>
    <path id="Path_171251" data-name="Path 171251" d="M499.208-207.174c-.285,0-.573.02-.856-.005a.793.793,0,0,1-.748-.8.781.781,0,0,1,.758-.791c.571-.025,1.144-.026,1.714,0a.781.781,0,0,1,.749.8.8.8,0,0,1-.759.793C499.782-207.155,499.494-207.173,499.208-207.174Z"/>
    <path id="Path_171252" data-name="Path 171252" d="M511.433-216.041a3.476,3.476,0,0,1,.385.149c1.518.754,3.032,1.515,4.55,2.268a.884.884,0,0,1,.6.8.878.878,0,0,1-.586.805c-1.518.754-3.03,1.518-4.551,2.267-.757.373-1.3.03-1.308-.815q-.012-2.27,0-4.538A.843.843,0,0,1,511.433-216.041Zm2.923,3.221-2.185-1.091v2.186Z"/>
  </g>
</svg>
