<svg xmlns="http://www.w3.org/2000/svg" xmlns:xlink="http://www.w3.org/1999/xlink" width="564.468" height="519" viewBox="0 0 564.468 519">
  <defs>
    <clipPath id="clip-path">
      <rect id="Rectángulo_36617" data-name="Rectángulo 36617" width="260.48" height="333.383" fill="none"/>
    </clipPath>
    <clipPath id="clip-path-2">
      <rect id="Rectángulo_36625" data-name="Rectángulo 36625" width="105.79" height="104.215" fill="#e6fff3"/>
    </clipPath>
    <clipPath id="clip-path-3">
      <rect id="Rectángulo_36671" data-name="Rectángulo 36671" width="162.221" height="159.805" fill="none"/>
    </clipPath>
  </defs>
  <g id="Grupo_93863" data-name="Grupo 93863" transform="translate(-3529.792 -276.34)">
    <g id="Grupo_93985" data-name="Grupo 93985" transform="translate(3677.961 452.229)">
      <rect id="Rectángulo_36602" data-name="Rectángulo 36602" width="261.539" height="257.645" transform="translate(0 76.45)" fill="#bfffe0"/>
      <g id="Grupo_93984" data-name="Grupo 93984" transform="translate(0.464)">
        <g id="Grupo_93983" data-name="Grupo 93983" clip-path="url(#clip-path)">
          <g id="Grupo_93982" data-name="Grupo 93982" transform="translate(32.161 32.708)">
            <g id="Grupo_93981" data-name="Grupo 93981">
              <g id="Grupo_93968" data-name="Grupo 93968" transform="translate(38.832 124.887)">
                <g id="Grupo_93966" data-name="Grupo 93966">
                  <path id="Trazado_150420" data-name="Trazado 150420" d="M3903.691,673.605l33.354,83.093c-3.961,25.115-40.686,36-66.491,31.605l-93.194-56.04C3747.7,715.086,3817.62,582.047,3903.691,673.605Z" transform="translate(-3770.428 -641.728)" fill="#fdc6b0"/>
                </g>
                <path id="Trazado_150421" data-name="Trazado 150421" d="M3938.758,749.466c87.7,136.4,114.436,218.191,153.738,336.93,7.03,21.912-115.245,87.718-124.72,57.748-23.255-128.77-61.037-278.068-97.394-357.215Z" transform="translate(-3779.156 -651.134)" fill="#fdc6b0"/>
                <g id="Grupo_93967" data-name="Grupo 93967" transform="translate(48.779 75.017)">
                  <path id="Trazado_150422" data-name="Trazado 150422" d="M3829.5,765.449s24.3-1.594,48.586,5.731c14.175,4.275,19.322-6.212,14.641-18.054-7.324-18.525-28.973-34.928-49.956-27.283C3824.318,732.565,3818.335,760.064,3829.5,765.449Z" transform="translate(-3823.874 -723.921)" fill="#d99980"/>
                </g>
              </g>
              <path id="Trazado_150423" data-name="Trazado 150423" d="M3880.68,683.376S3741.237,577.6,3728.845,598.087c-14.194,23.464,133.125,114.552,133.125,114.552Z" transform="translate(-3727.881 -512.8)" fill="#fdc6b0"/>
              <g id="Grupo_93978" data-name="Grupo 93978" transform="translate(33.899)">
                <g id="Grupo_93976" data-name="Grupo 93976">
                  <g id="Grupo_93975" data-name="Grupo 93975">
                    <path id="Trazado_150424" data-name="Trazado 150424" d="M3876.961,746.783l-100.62-.851a11.7,11.7,0,0,1-11.318-11.982l.905-217.538a11.365,11.365,0,0,1,11.2-11.458l98.667-.061a11.443,11.443,0,0,1,11.306,11.5l1.259,218.549A11.513,11.513,0,0,1,3876.961,746.783Z" transform="translate(-3765.023 -504.893)" fill="#48c66b"/>
                    <path id="Trazado_150425" data-name="Trazado 150425" d="M3878.517,745.342a9.645,9.645,0,0,1-1.271.072l-100.589-.956c-5.4-.052-9.794-4.757-9.771-10.483l.875-217.3a9.912,9.912,0,0,1,9.665-10.029l98.661-.162c.154,0,.311,0,.464.01a9.59,9.59,0,0,1,6.531,3,10.072,10.072,0,0,1,2.762,6.925l1.234,218.771A9.99,9.99,0,0,1,3878.517,745.342Z" transform="translate(-3765.185 -505.032)" fill="#331b1f"/>
                    <path id="Trazado_150426" data-name="Trazado 150426" d="M3882.632,519.066l1.168,218.009-113.319-.91L3771.3,518.8Z" transform="translate(-3765.5 -506.107)" fill="#fff"/>
                    <g id="Grupo_93969" data-name="Grupo 93969" transform="translate(15.119 97.646)">
                      <rect id="Rectángulo_36603" data-name="Rectángulo 36603" width="93.526" height="48.506" rx="2.661" fill="#4ad987"/>
                      <path id="Trazado_150427" data-name="Trazado 150427" d="M3866.565,627.047h-76.7a.113.113,0,1,1,0-.226h76.7a.113.113,0,1,1,0,.226Z" transform="translate(-3782.3 -613.184)" fill="#fff"/>
                      <path id="Trazado_150428" data-name="Trazado 150428" d="M3866.565,644.863h-76.7a.113.113,0,1,1,0-.226h76.7a.113.113,0,1,1,0,.226Z" transform="translate(-3782.3 -614.74)" fill="#fff"/>
                      <path id="Trazado_150429" data-name="Trazado 150429" d="M3866.565,636.186h-76.7a.113.113,0,1,1,0-.225h76.7a.113.113,0,1,1,0,.225Z" transform="translate(-3782.3 -613.982)" fill="#fff"/>
                      <path id="Trazado_150430" data-name="Trazado 150430" d="M3866.545,651.12h-76.93l-.1-29a.227.227,0,0,1,.225-.227h0a.225.225,0,0,1,.225.225l.1,28.547h76.48a.226.226,0,1,1,0,.452Z" transform="translate(-3782.28 -612.754)" fill="#fff"/>
                      <path id="Trazado_150431" data-name="Trazado 150431" d="M3829.434,630.217l-17.449,16.772-8.993-7.955-13.3,12.422a.226.226,0,0,0,.309.33l13-12.141,9,7.959,17.437-16.76Z" transform="translate(-3782.289 -613.481)" fill="#fff"/>
                      <path id="Trazado_150432" data-name="Trazado 150432" d="M3805.37,640.128a1.211,1.211,0,1,1-1.211-1.211A1.211,1.211,0,0,1,3805.37,640.128Z" transform="translate(-3783.453 -614.241)" fill="#fff"/>
                      <path id="Trazado_150433" data-name="Trazado 150433" d="M3815.384,648.688a1.211,1.211,0,1,1-1.211-1.211A1.211,1.211,0,0,1,3815.384,648.688Z" transform="translate(-3784.327 -614.988)" fill="#fff"/>
                      <path id="Trazado_150434" data-name="Trazado 150434" d="M3834.494,630.241a1.211,1.211,0,1,1-1.21-1.211A1.211,1.211,0,0,1,3834.494,630.241Z" transform="translate(-3785.996 -613.377)" fill="#fff"/>
                    </g>
                    <g id="Grupo_93970" data-name="Grupo 93970" transform="translate(15.37 37.421)">
                      <rect id="Rectángulo_36604" data-name="Rectángulo 36604" width="44.972" height="36.033" rx="2.661" fill="#4ad987"/>
                      <path id="Trazado_150435" data-name="Trazado 150435" d="M3825.17,574.424h-38.523V547.863a.2.2,0,1,1,.41,0v26.15h38.113a.205.205,0,1,1,0,.411Z" transform="translate(-3782.281 -546.048)" fill="#fdfeff"/>
                      <rect id="Rectángulo_36605" data-name="Rectángulo 36605" width="4.253" height="8.133" transform="translate(8.201 20.038)" fill="#fdfeff"/>
                      <rect id="Rectángulo_36606" data-name="Rectángulo 36606" width="4.253" height="9.986" transform="translate(14.129 18.185)" fill="#fdfeff"/>
                      <rect id="Rectángulo_36607" data-name="Rectángulo 36607" width="4.253" height="13.744" transform="translate(20.057 14.427)" fill="#fdfeff"/>
                      <rect id="Rectángulo_36608" data-name="Rectángulo 36608" width="4.253" height="16.369" transform="translate(25.985 11.802)" fill="#fdfeff"/>
                      <rect id="Rectángulo_36609" data-name="Rectángulo 36609" width="4.253" height="22.032" transform="translate(31.913 6.14)" fill="#fdfeff"/>
                    </g>
                    <g id="Grupo_93972" data-name="Grupo 93972" transform="translate(63.673 37.421)">
                      <g id="Grupo_93971" data-name="Grupo 93971">
                        <rect id="Rectángulo_36610" data-name="Rectángulo 36610" width="44.972" height="36.033" rx="2.661" fill="#4ad987"/>
                        <path id="Trazado_150436" data-name="Trazado 150436" d="M3878.094,574.562h-38.524v-25.12a.205.205,0,0,1,.411,0v24.709h38.113a.205.205,0,0,1,0,.411Z" transform="translate(-3835.205 -546.186)" fill="#fdfeff"/>
                      </g>
                      <path id="Trazado_150437" data-name="Trazado 150437" d="M3839.8,574.431c6.454-.562,7.353-26.51,16.927-14.877,9.1,11.053,9.575-9.471,19.458-9.471V574.2Z" transform="translate(-3835.224 -546.259)" fill="#fdfeff"/>
                    </g>
                    <g id="Grupo_93973" data-name="Grupo 93973" transform="translate(15.415 26.077)">
                      <path id="Trazado_150438" data-name="Trazado 150438" d="M3875.174,541.41h-93.262v-7.945h93.262Zm-93.039-.224h92.814v-7.5h-92.814Z" transform="translate(-3781.912 -533.465)" fill="#48c66b"/>
                      <rect id="Rectángulo_36611" data-name="Rectángulo 36611" width="15.481" height="2.669" transform="translate(22.685 2.638)" fill="#48c66b"/>
                      <rect id="Rectángulo_36612" data-name="Rectángulo 36612" width="8.007" height="2.669" transform="translate(39.691 2.638)" fill="#48c66b"/>
                      <rect id="Rectángulo_36613" data-name="Rectángulo 36613" width="18.913" height="2.669" transform="translate(1.713 2.638)" fill="#48c66b"/>
                    </g>
                    <g id="Grupo_93974" data-name="Grupo 93974" transform="translate(15.679 78.521)">
                      <rect id="Rectángulo_36614" data-name="Rectángulo 36614" width="44.384" height="2.517" fill="#cffadb"/>
                      <rect id="Rectángulo_36615" data-name="Rectángulo 36615" width="38.817" height="2.517" transform="translate(0 9.266)" fill="#cffadb"/>
                      <rect id="Rectángulo_36616" data-name="Rectángulo 36616" width="67.338" height="2.517" transform="translate(0 4.576)" fill="#cffadb"/>
                    </g>
                  </g>
                </g>
                <g id="Grupo_93977" data-name="Grupo 93977" transform="translate(35.052 162.75)">
                  <path id="Trazado_150439" data-name="Trazado 150439" d="M3829.476,683.214h-.039a26.009,26.009,0,1,0,12.063,49.054l-12.024-23.045Z" transform="translate(-3803.428 -683.213)" fill="#48c66b"/>
                  <path id="Trazado_150440" data-name="Trazado 150440" d="M3843.992,734.755a26,26,0,0,0,13.946-23.045h-25.97Z" transform="translate(-3805.92 -685.701)" fill="#4e5f99"/>
                  <path id="Trazado_150441" data-name="Trazado 150441" d="M3831.968,683.214v26.008h25.97A26.009,26.009,0,0,0,3831.968,683.214Z" transform="translate(-3805.92 -683.213)" fill="#cffadb"/>
                </g>
              </g>
              <path id="Trazado_150442" data-name="Trazado 150442" d="M3926.817,756.331c-60.415-4.154-44.109-92.344-44.109-92.344s-21.615-27.93-18.408-45.264,12.459-13.987,12.459-13.987.513.7,1.447,2c1.753,2.451,5,7.048,9.1,13.111,11.667,17.287,30.187,46.5,40.583,72.056C3937.422,716.418,3946.548,757.682,3926.817,756.331Z" transform="translate(-3739.764 -513.588)" fill="#fdc6b0"/>
              <path id="Trazado_150443" data-name="Trazado 150443" d="M3888.174,619.774a37.15,37.15,0,0,1-7.127,3.826,14.6,14.6,0,0,1-1.971-16.938C3880.829,609.114,3884.08,613.711,3888.174,619.774Z" transform="translate(-3740.92 -513.779)" fill="#ffe0d3"/>
              <g id="Grupo_93979" data-name="Grupo 93979" transform="translate(16.78 155.826)">
                <path id="Trazado_150444" data-name="Trazado 150444" d="M3764.328,721.195c-3.318-.958-7.32-3.957-11.841-9.727q-.958-1.223-1.745-2.4c-15.077-22.4,12.774-33.441,12.774-33.441a84.124,84.124,0,0,0,6.584,16.493C3778.448,706.867,3774.8,724.224,3764.328,721.195Z" transform="translate(-3746.266 -675.626)" fill="#fdc6b0"/>
                <path id="Trazado_150445" data-name="Trazado 150445" d="M3763.012,720.729c-2.292-.663-5.058-2.735-8.183-6.722q-.661-.846-1.206-1.659a15.211,15.211,0,0,1,4.1-5.881C3763.87,706.968,3764.5,717.593,3763.012,720.729Z" transform="translate(-3746.909 -678.319)" fill="#ffe0d3"/>
              </g>
              <g id="Grupo_93980" data-name="Grupo 93980" transform="translate(19.812 203.34)">
                <path id="Trazado_150446" data-name="Trazado 150446" d="M3766.144,763.462c-2.961.377-6.966-1.772-11.706-7.823a29.9,29.9,0,0,1-1.878-2.673c-10.577-16.934,10.48-25.281,10.48-25.281a65.153,65.153,0,0,0,5.135,12.86C3773.978,750.806,3772.355,762.674,3766.144,763.462Z" transform="translate(-3749.589 -727.686)" fill="#fdc6b0"/>
                <path id="Trazado_150447" data-name="Trazado 150447" d="M3765.392,762.607c-2.2.28-5.167-1.313-8.683-5.8a22.152,22.152,0,0,1-1.393-1.983,18.488,18.488,0,0,1,3.761-4.829C3764.4,750.429,3765.866,757.957,3765.392,762.607Z" transform="translate(-3750.089 -729.634)" fill="#ffe0d3"/>
              </g>
              <path id="Trazado_150448" data-name="Trazado 150448" d="M3765.592,691.863c-3.533-.522-7.952-3.511-13.033-9.995-.316-.4-.614-.8-.9-1.193-16.919-23.2,11.931-34.643,11.931-34.643a83.982,83.982,0,0,0,6.584,16.488C3778.192,676.7,3775.143,693.283,3765.592,691.863Z" transform="translate(-3729.493 -517.216)" fill="#fdc6b0"/>
              <path id="Trazado_150449" data-name="Trazado 150449" d="M3764.117,691.281c-2.348-.347-5.286-2.334-8.664-6.644-.21-.266-.409-.531-.6-.794a14.126,14.126,0,0,1,4.061-6.016C3764.663,678.3,3765.391,687.978,3764.117,691.281Z" transform="translate(-3730.236 -519.992)" fill="#ffe0d3"/>
            </g>
          </g>
        </g>
      </g>
    </g>
    <g id="Grupo_93987" data-name="Grupo 93987" transform="translate(3750.913 448.768)">
      <circle id="Elipse_5291" data-name="Elipse 5291" cx="4.028" cy="4.028" r="4.028" transform="translate(11.939 17.536)" fill="#aaffe1"/>
      <g id="Grupo_93986" data-name="Grupo 93986" transform="translate(0 0)">
        <path id="Trazado_150450" data-name="Trazado 150450" d="M3773.776,474.2l-1.709-1.947a22.874,22.874,0,0,1,33.655.793l-1.8,1.861A20.519,20.519,0,0,0,3773.776,474.2Z" transform="translate(-3772.067 -465.263)" fill="#aaffe1"/>
        <path id="Trazado_150451" data-name="Trazado 150451" d="M3777.667,478.779l-1.71-1.947a17.987,17.987,0,0,1,26.36.615l-1.8,1.861A15.632,15.632,0,0,0,3777.667,478.779Z" transform="translate(-3772.406 -465.798)" fill="#aaffe1"/>
        <path id="Trazado_150452" data-name="Trazado 150452" d="M3781.433,483.208l-1.71-1.946a13.254,13.254,0,0,1,19.3.443l-1.8,1.86A10.9,10.9,0,0,0,3781.433,483.208Z" transform="translate(-3772.735 -466.315)" fill="#aaffe1"/>
      </g>
    </g>
    <g id="machine_Arm_02" data-name="machine Arm 02" transform="translate(3924.083 328.368)">
      <g id="Grupo_94002" data-name="Grupo 94002">
        <rect id="Rectángulo_36618" data-name="Rectángulo 36618" width="105.79" height="104.215" fill="#e6fff3"/>
        <g id="Grupo_94001" data-name="Grupo 94001" clip-path="url(#clip-path-2)">
          <g id="Grupo_94000" data-name="Grupo 94000" transform="translate(9.26 29.078)">
            <g id="Grupo_93989" data-name="Grupo 93989" transform="translate(67.677 5.394)">
              <rect id="Rectángulo_36619" data-name="Rectángulo 36619" width="2.846" height="13.185" transform="translate(2.605)" fill="#1f263c"/>
              <path id="Trazado_150453" data-name="Trazado 150453" d="M4051.993,381.152h-3.336a2.632,2.632,0,0,0-.968,2.046l.006,2.412,5.271-.01-.006-2.412A2.632,2.632,0,0,0,4051.993,381.152Z" transform="translate(-4046.239 -371.991)" fill="#48c66b"/>
              <path id="Trazado_150454" data-name="Trazado 150454" d="M4047.44,386.9h0a1.339,1.339,0,0,0-1.253,1.809l2.682,7.15a.419.419,0,0,0,.476.265h0a.42.42,0,0,0,.335-.463l-.912-7.582A1.338,1.338,0,0,0,4047.44,386.9Z" transform="translate(-4046.1 -372.493)" fill="#1f263c"/>
              <path id="Trazado_150455" data-name="Trazado 150455" d="M4053.5,386.9h0a1.339,1.339,0,0,1,1.253,1.809l-2.682,7.15a.419.419,0,0,1-.477.265h0a.421.421,0,0,1-.335-.463l.912-7.582A1.339,1.339,0,0,1,4053.5,386.9Z" transform="translate(-4046.551 -372.493)" fill="#1f263c"/>
              <g id="Grupo_93988" data-name="Grupo 93988" transform="translate(0.995 13.609)">
                <rect id="Rectángulo_36620" data-name="Rectángulo 36620" width="6.23" height="0.756" fill="#1f263c"/>
                <path id="Trazado_150456" data-name="Trazado 150456" d="M4048.932,386.882a.611.611,0,1,1-.611-.611A.611.611,0,0,1,4048.932,386.882Z" transform="translate(-4047.236 -386.047)" fill="#1f263c"/>
                <path id="Trazado_150457" data-name="Trazado 150457" d="M4053.354,386.882a.61.61,0,1,1-.61-.611A.61.61,0,0,1,4053.354,386.882Z" transform="translate(-4047.622 -386.047)" fill="#1f263c"/>
              </g>
            </g>
            <g id="Grupo_93991" data-name="Grupo 93991" transform="translate(46.179 0.614)">
              <rect id="Rectángulo_36621" data-name="Rectángulo 36621" width="13.57" height="4.366" transform="translate(11.918 2.596)" fill="#1f263c"/>
              <path id="Trazado_150458" data-name="Trazado 150458" d="M4036.116,375.436h-8.791a4.778,4.778,0,0,1-4.779-4.779h0a4.778,4.778,0,0,1,4.779-4.779h8.791Z" transform="translate(-4022.546 -365.878)" fill="#48c66b"/>
              <path id="Trazado_150459" data-name="Trazado 150459" d="M4049.3,375.436H4043.1v-9.558h6.194a4.779,4.779,0,0,1,4.78,4.779h0A4.779,4.779,0,0,1,4049.3,375.436Z" transform="translate(-4024.341 -365.878)" fill="#48c66b"/>
              <g id="Grupo_93990" data-name="Grupo 93990" transform="translate(22.592 2.218)">
                <path id="Trazado_150460" data-name="Trazado 150460" d="M4050.791,373.15a2.518,2.518,0,1,1,1.35-3.3A2.521,2.521,0,0,1,4050.791,373.15Zm-1.537-3.667a1.458,1.458,0,1,0,1.908.781A1.458,1.458,0,0,0,4049.254,369.483Z" transform="translate(-4047.299 -368.309)" fill="#1f263c"/>
              </g>
            </g>
            <g id="Grupo_93994" data-name="Grupo 93994" transform="translate(8.736)">
              <rect id="Rectángulo_36622" data-name="Rectángulo 36622" width="13.962" height="2.914" transform="translate(17.086 13.715) rotate(57.135)" fill="#1f263c"/>
              <path id="Trazado_150461" data-name="Trazado 150461" d="M3982.127,399.266h0a3.8,3.8,0,0,1,1.142-5.258l19.58-12.607,4.117,6.4-19.58,12.606A3.8,3.8,0,0,1,3982.127,399.266Z" transform="translate(-3981.521 -366.619)" fill="#1f263c"/>
              <g id="Grupo_93993" data-name="Grupo 93993" transform="translate(15.066)">
                <path id="Trazado_150462" data-name="Trazado 150462" d="M4006.718,392.454l21.183-15.686a6.411,6.411,0,0,0,1.561-8.643h0a6.41,6.41,0,0,0-8.531-2.089L3998.029,379Z" transform="translate(-3998.029 -365.205)" fill="#48c66b"/>
                <g id="Grupo_93992" data-name="Grupo 93992" transform="translate(21.922 2.315)">
                  <path id="Trazado_150463" data-name="Trazado 150463" d="M4028.4,375.3a4.112,4.112,0,1,1,1.209-5.689A4.117,4.117,0,0,1,4028.4,375.3Zm-3.537-5.446a2.381,2.381,0,1,0,3.294.7A2.383,2.383,0,0,0,4024.863,369.856Z" transform="translate(-4022.048 -367.741)" fill="#1f263c"/>
                </g>
              </g>
            </g>
            <g id="Grupo_93996" data-name="Grupo 93996" transform="translate(0 20.416)">
              <path id="Trazado_150464" data-name="Trazado 150464" d="M4012.681,432.653h0a12.352,12.352,0,0,1-17.425-1.24l-20.286-23.394a12.352,12.352,0,0,1,1.239-17.424h0a12.353,12.353,0,0,1,17.425,1.239l20.286,23.394A12.353,12.353,0,0,1,4012.681,432.653Z" transform="translate(-3971.949 -387.574)" fill="#48c66b"/>
              <g id="Grupo_93995" data-name="Grupo 93995" transform="translate(5.374 5.301)">
                <path id="Trazado_150465" data-name="Trazado 150465" d="M3980.08,394.972a6.5,6.5,0,1,0,9.173.653A6.5,6.5,0,0,0,3980.08,394.972Zm6.809,7.852a3.889,3.889,0,1,1,.39-5.486A3.89,3.89,0,0,1,3986.889,402.824Z" transform="translate(-3977.838 -393.381)" fill="#1f263c"/>
              </g>
            </g>
            <g id="Grupo_93999" data-name="Grupo 93999" transform="translate(5.804 46.905)">
              <g id="Grupo_93998" data-name="Grupo 93998" transform="translate(16.934)">
                <path id="Rectángulo_36623" data-name="Rectángulo 36623" d="M11.223,0h0A11.223,11.223,0,0,1,22.446,11.223v9.629a0,0,0,0,1,0,0H0a0,0,0,0,1,0,0V11.223A11.223,11.223,0,0,1,11.223,0Z" fill="#1f263c"/>
                <g id="Grupo_93997" data-name="Grupo 93997" transform="translate(6.244 5.955)">
                  <path id="Trazado_150466" data-name="Trazado 150466" d="M4005.465,424.37a5.1,5.1,0,1,0,7.2.512A5.1,5.1,0,0,0,4005.465,424.37Zm5.344,6.163a3.053,3.053,0,1,1,.307-4.307A3.053,3.053,0,0,1,4010.808,430.533Z" transform="translate(-4003.704 -423.121)" fill="#48c66b"/>
                </g>
              </g>
              <path id="Trazado_150467" data-name="Trazado 150467" d="M4028.858,450.3H3986.02v-6a5.484,5.484,0,0,1,5.484-5.484h31.869a5.484,5.484,0,0,1,5.484,5.484Z" transform="translate(-3978.982 -418.538)" fill="#2a3352"/>
              <rect id="Rectángulo_36624" data-name="Rectángulo 36624" width="56.845" height="11.48" transform="translate(0 28.249)" fill="#1f263c"/>
            </g>
          </g>
        </g>
      </g>
    </g>
    <g id="data_02" data-name="data 02" transform="translate(3882.155 482.858)">
      <g id="Grupo_94003" data-name="Grupo 94003" transform="translate(132.341 4.596)">
        <path id="Trazado_150468" data-name="Trazado 150468" d="M4087.443,514.252h-23.278a3.3,3.3,0,0,1-3.3-3.3h0a3.3,3.3,0,0,1,3.3-3.3h23.278a3.3,3.3,0,0,1,3.3,3.3h0A3.3,3.3,0,0,1,4087.443,514.252Z" transform="translate(-4060.865 -507.651)" fill="#48c66b"/>
        <path id="Trazado_150469" data-name="Trazado 150469" d="M4087.443,527.385h-23.278a3.3,3.3,0,0,1-3.3-3.3h0a3.3,3.3,0,0,1,3.3-3.3h23.278a3.3,3.3,0,0,1,3.3,3.3h0A3.3,3.3,0,0,1,4087.443,527.385Z" transform="translate(-4060.865 -508.798)" fill="#48c66b"/>
        <path id="Trazado_150470" data-name="Trazado 150470" d="M4087.443,540.518h-23.278a3.3,3.3,0,0,1-3.3-3.3h0a3.3,3.3,0,0,1,3.3-3.3h23.278a3.3,3.3,0,0,1,3.3,3.3h0A3.3,3.3,0,0,1,4087.443,540.518Z" transform="translate(-4060.865 -509.944)" fill="#48c66b"/>
      </g>
      <g id="Grupo_94004" data-name="Grupo 94004" transform="translate(0 0)">
        <path id="Trazado_150471" data-name="Trazado 150471" d="M4001.314,612.719a58.38,58.38,0,1,1-27.074-110.1h.089v28.313a30.063,30.063,0,1,0,13.907,56.723Z" transform="translate(-3915.864 -502.615)" fill="#48c66b"/>
        <path id="Trazado_150472" data-name="Trazado 150472" d="M4039.54,566.576a58.372,58.372,0,0,1-31.3,51.728l-13.078-25.068a30.061,30.061,0,0,0,16.154-26.66Z" transform="translate(-3922.788 -508.2)" fill="#4e5f99"/>
        <path id="Trazado_150473" data-name="Trazado 150473" d="M4038.209,560.991h-28.227a30.061,30.061,0,0,0-30.061-30.063V502.615A58.377,58.377,0,0,1,4038.209,560.991Z" transform="translate(-3921.457 -502.615)" fill="#cffadb"/>
      </g>
    </g>
    <g id="data" transform="translate(4004.564 589.02)">
      <rect id="Rectángulo_36626" data-name="Rectángulo 36626" width="89.696" height="84.946" fill="#b3ffe7"/>
      <rect id="Rectángulo_36627" data-name="Rectángulo 36627" width="8.482" height="24.51" transform="translate(16.066 46.247)" fill="#fdfeff"/>
      <rect id="Rectángulo_36628" data-name="Rectángulo 36628" width="8.482" height="28.206" transform="translate(27.89 42.551)" fill="#fdfeff"/>
      <rect id="Rectángulo_36629" data-name="Rectángulo 36629" width="8.482" height="35.701" transform="translate(39.713 35.056)" fill="#fdfeff"/>
      <rect id="Rectángulo_36630" data-name="Rectángulo 36630" width="8.482" height="40.937" transform="translate(51.536 29.82)" fill="#fdfeff"/>
      <rect id="Rectángulo_36631" data-name="Rectángulo 36631" width="8.482" height="52.231" transform="translate(63.36 18.526)" fill="#fdfeff"/>
    </g>
    <g id="world" transform="translate(3963.843 700.003)">
      <g id="Grupo_94008" data-name="Grupo 94008">
        <circle id="Elipse_5292" data-name="Elipse 5292" cx="44.272" cy="44.272" r="44.272" fill="#48c66b"/>
        <g id="Grupo_94007" data-name="Grupo 94007" transform="translate(4.524 4.524)">
          <g id="Grupo_94005" data-name="Grupo 94005" transform="translate(0 0.001)">
            <path id="Trazado_150474" data-name="Trazado 150474" d="M4085.626,767.481q-.664-1.327-1.425-2.6a39.762,39.762,0,0,0-33.75-19.393c-.129,0-.254,0-.382,0-.107,0-.214,0-.32,0a39.757,39.757,0,0,0-33.809,19.393q-.764,1.268-1.424,2.6a39.7,39.7,0,0,0,.232,35.974q.686,1.327,1.469,2.6a39.76,39.76,0,0,0,33.5,18.932c.116,0,.235,0,.35,0s.253,0,.382,0a39.75,39.75,0,0,0,33.47-18.932q.782-1.268,1.473-2.6a39.706,39.706,0,0,0,.232-35.974Zm-3.185,35.974q-.75,1.331-1.607,2.6a37.321,37.321,0,0,1-18.927,14.406h0a36.833,36.833,0,0,1-10.536,1.909c-.317.012-.638.021-.961.021-.113,0-.225,0-.339,0-.1,0-.2,0-.293,0-.335,0-.671-.009-1-.021a36.849,36.849,0,0,1-9.064-1.446,37.326,37.326,0,0,1-20.4-14.87q-.855-1.264-1.607-2.6a36.861,36.861,0,0,1-4.757-16.919c-.018-.43-.025-.863-.025-1.3s.006-.866.025-1.3a36.869,36.869,0,0,1,4.5-16.458q.728-1.332,1.562-2.6a37.08,37.08,0,0,1,29.771-16.776c.332-.012.668-.021,1-.021.1,0,.2,0,.293,0,.113,0,.225,0,.339,0,.323,0,.644.009.961.021a36.833,36.833,0,0,1,10.536,1.909h0a37.307,37.307,0,0,1,19.231,14.867q.833,1.262,1.562,2.6a36.882,36.882,0,0,1,4.5,16.458c.018.43.025.863.025,1.3s-.006.87-.025,1.3A36.859,36.859,0,0,1,4082.442,803.455Z" transform="translate(-4010.323 -745.49)" fill="#fff"/>
            <rect id="Rectángulo_36632" data-name="Rectángulo 36632" width="76.901" height="2.595" transform="translate(1.297 38.45)" fill="#fff"/>
            <path id="Trazado_150475" data-name="Trazado 150475" d="M4086.027,769.337h-71.109q.662-1.327,1.424-2.6H4084.6Q4085.362,768.009,4086.027,769.337Z" transform="translate(-4010.724 -747.345)" fill="#fff"/>
            <path id="Trazado_150476" data-name="Trazado 150476" d="M4085.818,809q-.691,1.327-1.473,2.6h-67.7q-.782-1.268-1.469-2.6Z" transform="translate(-4010.746 -751.035)" fill="#fff"/>
          </g>
          <g id="Grupo_94006" data-name="Grupo 94006">
            <path id="Trazado_150477" data-name="Trazado 150477" d="M4085.626,767.481q-.664-1.327-1.425-2.6a39.762,39.762,0,0,0-33.75-19.393c-.129,0-.254,0-.382,0-.107,0-.214,0-.32,0a39.757,39.757,0,0,0-33.809,19.393q-.764,1.268-1.424,2.6a39.7,39.7,0,0,0,.232,35.974q.686,1.327,1.469,2.6a39.76,39.76,0,0,0,33.5,18.932c.116,0,.235,0,.35,0s.253,0,.382,0a39.75,39.75,0,0,0,33.47-18.932q.782-1.268,1.473-2.6a39.706,39.706,0,0,0,.232-35.974Zm-3.185,35.974q-.75,1.331-1.607,2.6a37.321,37.321,0,0,1-18.927,14.406h0a36.833,36.833,0,0,1-10.536,1.909c-.317.012-.638.021-.961.021-.113,0-.225,0-.339,0-.1,0-.2,0-.293,0-.335,0-.671-.009-1-.021a36.849,36.849,0,0,1-9.064-1.446,37.326,37.326,0,0,1-20.4-14.87q-.855-1.264-1.607-2.6a36.861,36.861,0,0,1-4.757-16.919c-.018-.43-.025-.863-.025-1.3s.006-.866.025-1.3a36.869,36.869,0,0,1,4.5-16.458q.728-1.332,1.562-2.6a37.08,37.08,0,0,1,29.771-16.776c.332-.012.668-.021,1-.021.1,0,.2,0,.293,0,.113,0,.225,0,.339,0,.323,0,.644.009.961.021a36.833,36.833,0,0,1,10.536,1.909h0a37.307,37.307,0,0,1,19.231,14.867q.833,1.262,1.562,2.6a36.882,36.882,0,0,1,4.5,16.458c.018.43.025.863.025,1.3s-.006.87-.025,1.3A36.859,36.859,0,0,1,4082.442,803.455Z" transform="translate(-4010.323 -745.489)" fill="#fff"/>
            <rect id="Rectángulo_36633" data-name="Rectángulo 36633" width="2.596" height="76.901" transform="translate(38.45 1.298)" fill="#fff"/>
            <path id="Trazado_150478" data-name="Trazado 150478" d="M4030,785.237c0-10.261,1.864-19.847,5.248-26.991,3.953-8.346,9.673-12.757,16.541-12.757v2.595c-12.6,0-19.193,18.691-19.193,37.154s6.592,37.152,19.193,37.152v2.6C4036.819,824.985,4030,804.38,4030,785.237Z" transform="translate(-4012.041 -745.489)" fill="#fff"/>
            <path id="Trazado_150479" data-name="Trazado 150479" d="M4053.873,824.985v-2.6c14.527,0,21.144-19.259,21.144-37.152s-6.617-37.154-21.144-37.154v-2.595c16.311,0,23.74,20.6,23.74,39.748S4070.184,824.985,4053.873,824.985Z" transform="translate(-4014.125 -745.489)" fill="#fff"/>
          </g>
        </g>
      </g>
      <g id="Grupo_94011" data-name="Grupo 94011" transform="translate(45.075 44.626)">
        <g id="Grupo_94009" data-name="Grupo 94009">
          <path id="Trazado_150480" data-name="Trazado 150480" d="M4090.9,834.262h-36.149V789.428H4090.9Z" transform="translate(-4054.754 -789.428)" fill="#fff"/>
        </g>
        <g id="Grupo_94010" data-name="Grupo 94010" transform="translate(7.141 7.043)">
          <rect id="Rectángulo_36634" data-name="Rectángulo 36634" width="34.984" height="43.668" transform="translate(34.984 43.668) rotate(180)" fill="#48c66b"/>
          <rect id="Rectángulo_36635" data-name="Rectángulo 36635" width="18.096" height="2.84" transform="translate(23.538 10.009) rotate(180)" fill="#fff"/>
          <rect id="Rectángulo_36636" data-name="Rectángulo 36636" width="23.448" height="2.84" transform="translate(28.89 16.682) rotate(180)" fill="#fff"/>
          <rect id="Rectángulo_36637" data-name="Rectángulo 36637" width="23.448" height="2.84" transform="translate(28.89 23.355) rotate(180)" fill="#fff"/>
          <rect id="Rectángulo_36638" data-name="Rectángulo 36638" width="23.448" height="2.84" transform="translate(28.89 30.027) rotate(180)" fill="#fff"/>
          <rect id="Rectángulo_36639" data-name="Rectángulo 36639" width="23.448" height="2.84" transform="translate(28.89 36.7) rotate(180)" fill="#fff"/>
        </g>
      </g>
    </g>
    <g id="factory" transform="translate(3733.332 276.34)">
      <g id="Grupo_94018" data-name="Grupo 94018" transform="translate(0 16.685)">
        <rect id="Rectángulo_36640" data-name="Rectángulo 36640" width="137.136" height="130.043" fill="#b8f5bf"/>
        <g id="Grupo_94017" data-name="Grupo 94017" transform="translate(11.867 43.199)">
          <g id="Grupo_94012" data-name="Grupo 94012" transform="translate(33.689 17.179)">
            <path id="Trazado_150481" data-name="Trazado 150481" d="M3849.09,430.522V411.571l-11.233-31.924V360.854H3813.95v18.794l-11.233,31.924v18.951Z" transform="translate(-3802.717 -360.782)" fill="#2a3352"/>
            <rect id="Rectángulo_36641" data-name="Rectángulo 36641" width="26.451" height="1.104" transform="translate(9.793)" fill="#2a3352"/>
          </g>
          <g id="Grupo_94014" data-name="Grupo 94014" transform="translate(56.088)">
            <g id="Grupo_94013" data-name="Grupo 94013">
              <path id="Trazado_150482" data-name="Trazado 150482" d="M3924.4,427.731v-47.26l-24.432-18.4-23.447,18.4h-49.26v47.26Z" transform="translate(-3827.26 -343.709)" fill="#48c66b"/>
              <rect id="Rectángulo_36642" data-name="Rectángulo 36642" width="10.358" height="9.779" transform="translate(5.188 49.767)" fill="#2a3352"/>
              <rect id="Rectángulo_36643" data-name="Rectángulo 36643" width="10.358" height="9.779" transform="translate(17.955 49.767)" fill="#2a3352"/>
              <rect id="Rectángulo_36644" data-name="Rectángulo 36644" width="10.358" height="17.536" transform="translate(5.188 65.522)" fill="#3ba358"/>
              <rect id="Rectángulo_36645" data-name="Rectángulo 36645" width="10.358" height="17.536" transform="translate(16.116 65.522)" fill="#3ba358"/>
              <rect id="Rectángulo_36646" data-name="Rectángulo 36646" width="10.358" height="17.536" transform="translate(30.277 65.522)" fill="#3ba358"/>
              <rect id="Rectángulo_36647" data-name="Rectángulo 36647" width="10.358" height="17.536" transform="translate(41.205 65.522)" fill="#3ba358"/>
              <rect id="Rectángulo_36648" data-name="Rectángulo 36648" width="10.358" height="17.536" transform="translate(54.972 65.522)" fill="#3ba358"/>
              <rect id="Rectángulo_36649" data-name="Rectángulo 36649" width="10.358" height="17.536" transform="translate(65.9 65.522)" fill="#3ba358"/>
              <rect id="Rectángulo_36650" data-name="Rectángulo 36650" width="10.358" height="17.536" transform="translate(81.794 65.522)" fill="#3ba358"/>
              <rect id="Rectángulo_36651" data-name="Rectángulo 36651" width="10.358" height="9.779" transform="translate(30.722 49.767)" fill="#2a3352"/>
              <rect id="Rectángulo_36652" data-name="Rectángulo 36652" width="10.358" height="9.779" transform="translate(43.489 49.767)" fill="#2a3352"/>
              <rect id="Rectángulo_36653" data-name="Rectángulo 36653" width="10.358" height="9.779" transform="translate(56.256 49.767)" fill="#2a3352"/>
              <rect id="Rectángulo_36654" data-name="Rectángulo 36654" width="10.358" height="9.779" transform="translate(69.023 49.767)" fill="#2a3352"/>
              <rect id="Rectángulo_36655" data-name="Rectángulo 36655" width="10.358" height="9.779" transform="translate(81.79 49.767)" fill="#2a3352"/>
              <path id="Trazado_150483" data-name="Trazado 150483" d="M3876.98,380.7h-14.11l.71-14.269.36-7.226L3864.8,342h10.256l.856,17.207.36,7.226Z" transform="translate(-3830.369 -341.956)" fill="#48c66b"/>
              <path id="Trazado_150484" data-name="Trazado 150484" d="M3856.162,381.277h-11.905l.71-14.269.36-7.226.556-11.164h8.654l.556,11.164.36,7.226Z" transform="translate(-3828.744 -342.534)" fill="#48c66b"/>
              <rect id="Rectángulo_36656" data-name="Rectángulo 36656" width="12.323" height="0.722" transform="translate(33.505)" fill="#48c66b"/>
            </g>
            <rect id="Rectángulo_36657" data-name="Rectángulo 36657" width="10.738" height="0.722" transform="translate(16.213 5.985)" fill="#48c66b"/>
          </g>
          <rect id="Rectángulo_36658" data-name="Rectángulo 36658" width="108.369" height="3.642" transform="translate(50.178 83.277)" fill="#48c66b"/>
          <g id="Grupo_94016" data-name="Grupo 94016" transform="translate(0 17.179)">
            <g id="Grupo_94015" data-name="Grupo 94015">
              <path id="Trazado_150485" data-name="Trazado 150485" d="M3812.18,430.642V411.571l-5.835-16.586-5.4-15.337V360.853h-23.908v18.795l-5.4,15.337-5.835,16.586v19.071Z" transform="translate(-3765.805 -360.781)" fill="#fff"/>
              <rect id="Rectángulo_36659" data-name="Rectángulo 36659" width="26.451" height="1.104" transform="translate(9.793)" fill="#fff"/>
            </g>
            <path id="Trazado_150486" data-name="Trazado 150486" d="M3806.9,396.087h-34.7l5.4-15.337v-7.274H3801.5v7.274Z" transform="translate(-3766.364 -361.884)" fill="#48c66b"/>
          </g>
          <path id="Trazado_150487" data-name="Trazado 150487" d="M3855.16,360.85l.36,7.226h-10.485l.36-7.226Z" transform="translate(-3772.723 -343.602)" fill="#fff"/>
          <path id="Trazado_150488" data-name="Trazado 150488" d="M3876.338,368.076h-12.69l.36-7.226h11.969Z" transform="translate(-3774.348 -343.602)" fill="#fff"/>
        </g>
      </g>
      <g id="Grupo_94019" data-name="Grupo 94019" transform="translate(72.15 5.267)">
        <circle id="Elipse_5293" data-name="Elipse 5293" cx="4.532" cy="4.532" r="4.532" transform="translate(29.994 42.013)" fill="#fff"/>
        <circle id="Elipse_5294" data-name="Elipse 5294" cx="6.502" cy="6.502" r="6.502" transform="translate(23.074 42.576) rotate(-67.5)" fill="#fff"/>
        <circle id="Elipse_5295" data-name="Elipse 5295" cx="9.458" cy="9.458" r="9.458" transform="translate(15.61 19.354)" fill="#fff"/>
        <circle id="Elipse_5296" data-name="Elipse 5296" cx="14.778" cy="14.778" r="14.778" transform="translate(0 6.79) rotate(-13.283)" fill="#fff"/>
      </g>
      <g id="Grupo_94020" data-name="Grupo 94020" transform="translate(40.511)">
        <circle id="Elipse_5297" data-name="Elipse 5297" cx="4.532" cy="4.532" r="4.532" transform="translate(41.388 54.206)" fill="#fff"/>
        <circle id="Elipse_5298" data-name="Elipse 5298" cx="6.502" cy="6.502" r="6.502" transform="translate(36.462 44.748)" fill="#fff"/>
        <circle id="Elipse_5299" data-name="Elipse 5299" cx="9.458" cy="9.458" r="9.458" transform="translate(27.004 31.547)" fill="#fff"/>
        <circle id="Elipse_5300" data-name="Elipse 5300" cx="14.778" cy="14.778" r="14.778" transform="translate(14.394 15.193)" fill="#fff"/>
        <circle id="Elipse_5301" data-name="Elipse 5301" cx="18.783" cy="18.783" r="18.783" fill="#fff"/>
      </g>
      <path id="Trazado_150489" data-name="Trazado 150489" d="M3786.235,286.617a20.252,20.252,0,0,0-20.253,20.253c0,11.185,20.253,30.478,20.253,30.478s20.254-19.293,20.254-30.478A20.253,20.253,0,0,0,3786.235,286.617Zm0,25.856a6.882,6.882,0,1,1,6.881-6.882A6.881,6.881,0,0,1,3786.235,312.473Z" transform="translate(-3753.954 -277.237)" fill="#00cc20"/>
    </g>
    <g id="machine_Arm_01" data-name="machine Arm 01" transform="translate(3540.639 319.005)">
      <g id="Grupo_94041" data-name="Grupo 94041" transform="translate(0 33.201)">
        <g id="Grupo_94040" data-name="Grupo 94040" clip-path="url(#clip-path-3)">
          <rect id="Rectángulo_36660" data-name="Rectángulo 36660" width="162.221" height="159.805" fill="#d9fff3"/>
          <g id="Grupo_94039" data-name="Grupo 94039" transform="translate(22.124 -19.61)">
            <rect id="Rectángulo_36661" data-name="Rectángulo 36661" width="53.699" height="19.169" rx="9.585" fill="#48c66b"/>
            <rect id="Rectángulo_36662" data-name="Rectángulo 36662" width="6.433" height="28.71" transform="translate(23.192 31.044)" fill="#1f263c"/>
            <rect id="Rectángulo_36663" data-name="Rectángulo 36663" width="28.71" height="6.433" transform="translate(39.797 113.117) rotate(-47.957)" fill="#1f263c"/>
            <rect id="Rectángulo_36664" data-name="Rectángulo 36664" width="6.433" height="19.282" transform="translate(27.903 124.361) rotate(-0.621)" fill="#1f263c"/>
            <rect id="Rectángulo_36665" data-name="Rectángulo 36665" width="12.852" height="33.647" rx="6.426" transform="translate(19.983 5.092)" fill="#48c66b"/>
            <g id="Grupo_94021" data-name="Grupo 94021" transform="translate(22.666 28.528)">
              <path id="Trazado_150490" data-name="Trazado 150490" d="M3593.017,369.542a3.752,3.752,0,1,0,4.932,1.958A3.756,3.756,0,0,0,3593.017,369.542Z" transform="translate(-3590.752 -369.234)" fill="#1f263c"/>
            </g>
            <g id="Grupo_94024" data-name="Grupo 94024" transform="translate(4.665 4.486)">
              <g id="Grupo_94022" data-name="Grupo 94022">
                <path id="Trazado_150491" data-name="Trazado 150491" d="M3574.036,343.274a4.9,4.9,0,1,0,6.415,2.626A4.907,4.907,0,0,0,3574.036,343.274Z" transform="translate(-3571.029 -342.892)" fill="#1f263c"/>
              </g>
              <g id="Grupo_94023" data-name="Grupo 94023" transform="translate(34.546 0.241)">
                <path id="Trazado_150492" data-name="Trazado 150492" d="M3611.839,343.558a4.9,4.9,0,1,0,6.443,2.557A4.908,4.908,0,0,0,3611.839,343.558Z" transform="translate(-3608.88 -343.157)" fill="#1f263c"/>
              </g>
            </g>
            <g id="Grupo_94028" data-name="Grupo 94028" transform="translate(17.396 48.531)">
              <path id="Trazado_150493" data-name="Trazado 150493" d="M3622.123,443.073l-33.1-30.282a12.452,12.452,0,0,1-.781-17.593h0a12.452,12.452,0,0,1,17.593-.781l33.1,30.282a12.453,12.453,0,0,1,.781,17.593h0A12.452,12.452,0,0,1,3622.123,443.073Z" transform="translate(-3584.978 -391.151)" fill="#48c66b"/>
              <g id="Grupo_94027" data-name="Grupo 94027" transform="translate(6.24 5.88)">
                <g id="Grupo_94025" data-name="Grupo 94025">
                  <path id="Trazado_150494" data-name="Trazado 150494" d="M3600.331,397.967a6.368,6.368,0,1,0,3.847,8.143A6.374,6.374,0,0,0,3600.331,397.967Z" transform="translate(-3591.815 -397.593)" fill="#1f263c"/>
                </g>
                <g id="Grupo_94026" data-name="Grupo 94026" transform="translate(32.902 30.527)">
                  <path id="Trazado_150495" data-name="Trazado 150495" d="M3636.317,431.392a6.369,6.369,0,1,0,3.933,8.1A6.375,6.375,0,0,0,3636.317,431.392Z" transform="translate(-3627.864 -431.041)" fill="#1f263c"/>
                </g>
              </g>
            </g>
            <g id="Grupo_94033" data-name="Grupo 94033" transform="translate(24.688 102.909)">
              <path id="Trazado_150496" data-name="Trazado 150496" d="M3620.841,461.933,3604.7,479.978a6.722,6.722,0,0,1-9.49.527h0a6.721,6.721,0,0,1-.527-9.49l16.145-18.044a6.72,6.72,0,0,1,9.49-.528h0A6.721,6.721,0,0,1,3620.841,461.933Z" transform="translate(-3592.967 -450.731)" fill="#48c66b"/>
              <g id="Grupo_94030" data-name="Grupo 94030" transform="translate(3.845 21.919)">
                <g id="Grupo_94029" data-name="Grupo 94029">
                  <path id="Trazado_150497" data-name="Trazado 150497" d="M3597.332,476.607a2.764,2.764,0,1,0,3.516-1.709A2.768,2.768,0,0,0,3597.332,476.607Z" transform="translate(-3597.18 -474.746)" fill="#1f263c"/>
                </g>
              </g>
              <g id="Grupo_94032" data-name="Grupo 94032" transform="translate(20.547 3.709)">
                <g id="Grupo_94031" data-name="Grupo 94031">
                  <path id="Trazado_150498" data-name="Trazado 150498" d="M3615.631,456.656a2.764,2.764,0,1,0,3.516-1.709A2.766,2.766,0,0,0,3615.631,456.656Z" transform="translate(-3615.479 -454.795)" fill="#1f263c"/>
                </g>
              </g>
            </g>
            <g id="Grupo_94038" data-name="Grupo 94038" transform="translate(22.192 138.743)">
              <g id="Grupo_94035" data-name="Grupo 94035" transform="translate(5.673 15.163)">
                <rect id="Rectángulo_36666" data-name="Rectángulo 36666" width="6.358" height="2.67" fill="#1f263c"/>
                <rect id="Rectángulo_36667" data-name="Rectángulo 36667" width="3.822" height="3.991" transform="translate(1.268 1.532)" fill="#1f263c"/>
                <rect id="Rectángulo_36668" data-name="Rectángulo 36668" width="6.358" height="2.67" fill="#1f263c"/>
                <g id="Grupo_94034" data-name="Grupo 94034" transform="translate(0.2 4.852)">
                  <path id="Trazado_150499" data-name="Trazado 150499" d="M3602.974,513.472h0l0,0v0h0l-.473-.459a3.838,3.838,0,0,0-2.676-1.085h0a3.838,3.838,0,0,0-2.675,1.085l-.473.459h0v0l0,0h0v3.16h0l.483.462a3.841,3.841,0,0,0,2.653,1.064h.033a3.843,3.843,0,0,0,2.654-1.064l.483-.462h0Z" transform="translate(-3596.668 -511.923)" fill="#1f263c"/>
                  <rect id="Rectángulo_36669" data-name="Rectángulo 36669" width="3.637" height="2.552" transform="translate(1.337 4.24)" fill="#1f263c"/>
                </g>
                <path id="Trazado_150500" data-name="Trazado 150500" d="M3599.31,514.606v10.9l.719.7.763-.7v-10.9Z" transform="translate(-3596.698 -507.305)" fill="#1f263c"/>
              </g>
              <g id="Grupo_94036" data-name="Grupo 94036" transform="translate(1.076 12.198)">
                <path id="Trazado_150501" data-name="Trazado 150501" d="M3603.027,507.645h-7.678l-3.937-4.287h15.552Z" transform="translate(-3591.412 -503.358)" fill="#48c66b"/>
              </g>
              <g id="Grupo_94037" data-name="Grupo 94037" transform="translate(0.507)">
                <path id="Trazado_150502" data-name="Trazado 150502" d="M3595.013,489.993h8.24l4.225,2.913h-16.69Z" transform="translate(-3590.788 -489.993)" fill="#48c66b"/>
              </g>
              <rect id="Rectángulo_36670" data-name="Rectángulo 36670" width="17.704" height="10.128" transform="translate(0 2.323)" fill="#1f263c"/>
            </g>
          </g>
        </g>
      </g>
      <g id="Grupo_94043" data-name="Grupo 94043" transform="translate(32.421)">
        <circle id="Elipse_5302" data-name="Elipse 5302" cx="4.028" cy="4.028" r="4.028" transform="translate(11.938 17.536)" fill="#aaffe1"/>
        <g id="Grupo_94042" data-name="Grupo 94042">
          <path id="Trazado_150503" data-name="Trazado 150503" d="M3578.908,332.026l-1.709-1.947a22.873,22.873,0,0,1,33.654.793l-1.8,1.861A20.519,20.519,0,0,0,3578.908,332.026Z" transform="translate(-3577.199 -323.086)" fill="#aaffe1"/>
          <path id="Trazado_150504" data-name="Trazado 150504" d="M3582.8,336.6l-1.709-1.947a17.986,17.986,0,0,1,26.359.615l-1.8,1.861A15.633,15.633,0,0,0,3582.8,336.6Z" transform="translate(-3577.539 -323.621)" fill="#aaffe1"/>
          <path id="Trazado_150505" data-name="Trazado 150505" d="M3586.564,341.031l-1.709-1.946a13.254,13.254,0,0,1,19.3.443l-1.8,1.86A10.9,10.9,0,0,0,3586.564,341.031Z" transform="translate(-3577.867 -324.138)" fill="#aaffe1"/>
        </g>
      </g>
    </g>
    <g id="cloud" transform="translate(3545.383 648.664)">
      <g id="Grupo_94051" data-name="Grupo 94051" transform="translate(0 14.308)">
        <g id="cloud-2" data-name="cloud">
          <path id="Trazado_150506" data-name="Trazado 150506" d="M3688.778,741.479a36.565,36.565,0,0,0-69.917-19.168,25.532,25.532,0,0,0-42.536,19.076h-4.77a24.752,24.752,0,0,0-24.681,24.68h0a24.753,24.753,0,0,0,24.681,24.68h115.4a24.753,24.753,0,0,0,24.68-24.68h0A24.745,24.745,0,0,0,3688.778,741.479Z" transform="translate(-3546.874 -699.959)" fill="#48c66b"/>
        </g>
        <g id="Grupo_94050" data-name="Grupo 94050" transform="translate(20.42 36.004)">
          <path id="Trazado_150507" data-name="Trazado 150507" d="M3633.7,806.536V790.144h-4.167v16.392h-60.29v3.674h128.081v-3.674Z" transform="translate(-3569.247 -743.838)" fill="#4e5f99"/>
          <rect id="Rectángulo_36672" data-name="Rectángulo 36672" width="50.307" height="45.508" transform="translate(38.397)" fill="#7affce"/>
          <g id="Grupo_94045" data-name="Grupo 94045" transform="translate(36.264)">
            <rect id="Rectángulo_36673" data-name="Rectángulo 36673" width="54.571" height="13.737" rx="6.585" fill="#fff"/>
            <g id="Grupo_94044" data-name="Grupo 94044" transform="translate(2.317 3.502)">
              <rect id="Rectángulo_36674" data-name="Rectángulo 36674" width="5.395" height="7.278" fill="#7affce"/>
              <rect id="Rectángulo_36675" data-name="Rectángulo 36675" width="5.395" height="7.278" transform="translate(8.093)" fill="#7affce"/>
              <rect id="Rectángulo_36676" data-name="Rectángulo 36676" width="5.395" height="7.278" transform="translate(16.186)" fill="#7affce"/>
            </g>
          </g>
          <g id="Grupo_94047" data-name="Grupo 94047" transform="translate(36.264 16.312)">
            <rect id="Rectángulo_36677" data-name="Rectángulo 36677" width="54.571" height="13.737" rx="6.585" fill="#fff"/>
            <g id="Grupo_94046" data-name="Grupo 94046" transform="translate(2.317 3.502)">
              <rect id="Rectángulo_36678" data-name="Rectángulo 36678" width="5.395" height="7.278" fill="#7affce"/>
              <rect id="Rectángulo_36679" data-name="Rectángulo 36679" width="5.395" height="7.278" transform="translate(8.093)" fill="#7affce"/>
              <rect id="Rectángulo_36680" data-name="Rectángulo 36680" width="5.395" height="7.278" transform="translate(16.186)" fill="#7affce"/>
            </g>
          </g>
          <g id="Grupo_94049" data-name="Grupo 94049" transform="translate(36.264 32.624)">
            <rect id="Rectángulo_36681" data-name="Rectángulo 36681" width="54.571" height="13.737" rx="6.585" fill="#fff"/>
            <g id="Grupo_94048" data-name="Grupo 94048" transform="translate(2.317 3.502)">
              <rect id="Rectángulo_36682" data-name="Rectángulo 36682" width="5.395" height="7.278" fill="#7affce"/>
              <rect id="Rectángulo_36683" data-name="Rectángulo 36683" width="5.395" height="7.278" transform="translate(8.093)" fill="#7affce"/>
              <rect id="Rectángulo_36684" data-name="Rectángulo 36684" width="5.395" height="7.278" transform="translate(16.186)" fill="#7affce"/>
            </g>
          </g>
          <rect id="Rectángulo_36685" data-name="Rectángulo 36685" width="19.285" height="9.304" transform="translate(52.837 59.621)" fill="#4e5f99"/>
        </g>
      </g>
      <g id="Grupo_94059" data-name="Grupo 94059" transform="translate(8.961)">
        <g id="Grupo_94057" data-name="Grupo 94057">
          <g id="Grupo_94053" data-name="Grupo 94053">
            <g id="Grupo_94052" data-name="Grupo 94052">
              <path id="Trazado_150508" data-name="Trazado 150508" d="M3556.9,697.311h0v0Z" transform="translate(-3556.71 -685.409)" fill="#d9ffe4"/>
              <path id="Trazado_150509" data-name="Trazado 150509" d="M3556.9,697.311h0v0Z" transform="translate(-3556.71 -685.409)" fill="#d9ffe4"/>
              <path id="Trazado_150510" data-name="Trazado 150510" d="M3605.986,697.851v0Z" transform="translate(-3560.996 -685.457)" fill="#d9ffe4"/>
              <path id="Trazado_150511" data-name="Trazado 150511" d="M3605.986,697.851v0Z" transform="translate(-3560.996 -685.457)" fill="#d9ffe4"/>
              <path id="Trazado_150512" data-name="Trazado 150512" d="M3579.452,684.282c-5.258,5.533-13.619,10.04-22.547,11.926-.006.592-.043,3.876-.212,19.01-.225,20.19,19.014,30.183,22,31.717,2.912-1.312,22.524-11.034,22.749-31.224.168-15.134.2-18.418.212-19.011C3592.771,694.619,3584.586,689.929,3579.452,684.282Z" transform="translate(-3556.692 -684.282)" fill="#fff"/>
            </g>
          </g>
          <g id="Grupo_94056" data-name="Grupo 94056" transform="translate(2.438 3.648)">
            <g id="Grupo_94054" data-name="Grupo 94054">
              <path id="Trazado_150513" data-name="Trazado 150513" d="M3579.608,688.279a47.485,47.485,0,0,1-20.053,10.208l-.19,17.106c-.088,7.827,2.99,14.929,9.146,21.109a44.426,44.426,0,0,0,10.473,7.729l.3-.151.371-55.96Z" transform="translate(-3559.363 -688.279)" fill="#00bd25"/>
            </g>
            <g id="Grupo_94055" data-name="Grupo 94055" transform="translate(19.919 0.04)">
              <path id="Trazado_150514" data-name="Trazado 150514" d="M3581.558,688.323l-.371,55.96a44.443,44.443,0,0,0,10.345-7.346c6.291-6.042,9.525-13.074,9.612-20.9l.19-17.106A47.5,47.5,0,0,1,3581.558,688.323Z" transform="translate(-3581.188 -688.323)" fill="#00bd25"/>
            </g>
          </g>
        </g>
        <g id="Grupo_94058" data-name="Grupo 94058" transform="translate(12.908 17.153)">
          <path id="Trazado_150515" data-name="Trazado 150515" d="M3570.835,713.651v13.8c0,1.536,18.764,1.536,18.764,0v-13.8Zm10.332,7.329v3.912a.949.949,0,1,1-1.9,0v-3.92a2.308,2.308,0,1,1,1.9.008Z" transform="translate(-3570.835 -703.999)" fill="#fff"/>
          <path id="Trazado_150516" data-name="Trazado 150516" d="M3588.114,711.744h-1.9v-.929a5.839,5.839,0,1,0-11.678,0v.929h-1.9v-.929a7.739,7.739,0,0,1,15.478,0Z" transform="translate(-3570.992 -703.076)" fill="#fff"/>
        </g>
      </g>
    </g>
    <g id="message" transform="translate(3529.792 504.595)">
      <g id="Grupo_94061" data-name="Grupo 94061" transform="translate(0 93.44)">
        <g id="Grupo_94060" data-name="Grupo 94060">
          <path id="Trazado_150517" data-name="Trazado 150517" d="M3549.1,642.039l-17.549-13.229h38.36l-17.457,13.225A2.782,2.782,0,0,1,3549.1,642.039Z" transform="translate(-3529.946 -628.81)" fill="#48c66b"/>
          <path id="Trazado_150518" data-name="Trazado 150518" d="M3571.372,631.218v26.691h-41.58V631.218L3548.43,645.2a3.657,3.657,0,0,0,4.394,0Z" transform="translate(-3529.792 -629.02)" fill="#48c66b"/>
        </g>
      </g>
      <g id="Grupo_94064" data-name="Grupo 94064" transform="translate(119.577 0)">
        <g id="Grupo_94062" data-name="Grupo 94062">
          <rect id="Rectángulo_36686" data-name="Rectángulo 36686" width="70.764" height="35.125" rx="17.563" fill="#00cc20"/>
          <path id="Trazado_150519" data-name="Trazado 150519" d="M3724,558.668v15.847l-16.151-16.151Z" transform="translate(-3664.915 -529.219)" fill="#00cc20"/>
        </g>
        <g id="Grupo_94063" data-name="Grupo 94063" transform="translate(10.453 13.866)">
          <circle id="Elipse_5303" data-name="Elipse 5303" cx="3.084" cy="3.084" r="3.084" transform="translate(0 0.94)" fill="#fff"/>
          <circle id="Elipse_5304" data-name="Elipse 5304" cx="3.084" cy="3.084" r="3.084" transform="translate(9.556 6.04) rotate(-72.537)" fill="#fff"/>
          <circle id="Elipse_5305" data-name="Elipse 5305" cx="3.084" cy="3.084" r="3.084" transform="translate(19.738 2.343) rotate(-22.328)" fill="#fff"/>
          <circle id="Elipse_5306" data-name="Elipse 5306" cx="3.084" cy="3.084" r="3.084" transform="translate(31.018 0.94)" fill="#fff"/>
          <circle id="Elipse_5307" data-name="Elipse 5307" cx="3.084" cy="3.084" r="3.084" transform="translate(41.357 0.94)" fill="#fff"/>
        </g>
      </g>
      <g id="Grupo_94065" data-name="Grupo 94065" transform="translate(52.874 33.85)">
        <path id="Trazado_150520" data-name="Trazado 150520" d="M3588.3,576.888a17.743,17.743,0,0,0-.411,6.885l1.933-.262a16.016,16.016,0,0,0,2.048,5.919l-1.677.987a17.811,17.811,0,0,0,4.575,5.16l.265-.343.917-1.207a15.847,15.847,0,0,0,5.634,2.73l-.49,1.89a17.606,17.606,0,0,0,6.888.4l-.263-1.933a15.879,15.879,0,0,0,5.917-2.041l.987,1.677a17.851,17.851,0,0,0,5.162-4.583l-.006,0-.446-.345-1.1-.835a15.8,15.8,0,0,0,2.728-5.627l1.891.49a17.657,17.657,0,0,0,.405-6.894l-1.933.263a15.843,15.843,0,0,0-2.043-5.911l1.678-.987a17.838,17.838,0,0,0-4.584-5.162l-1.182,1.55a15.8,15.8,0,0,0-5.627-2.728l.49-1.89a17.643,17.643,0,0,0-6.895-.406l.263,1.933a15.847,15.847,0,0,0-5.911,2.043l-.986-1.678a17.719,17.719,0,0,0-5.163,4.584l.012.011,1.021.777.517.394a15.823,15.823,0,0,0-2.728,5.627Zm8.928,2.316a8.629,8.629,0,1,1,6.181,10.522A8.625,8.625,0,0,1,3597.228,579.2Z" transform="translate(-3587.724 -563.519)" fill="#aaffe1"/>
      </g>
      <g id="Grupo_94066" data-name="Grupo 94066" transform="translate(97.839 57.226)">
        <path id="Trazado_150521" data-name="Trazado 150521" d="M3679.2,675V652.824a20.759,20.759,0,0,1,0-41.491v-22.2a42.046,42.046,0,0,0-5.066.4l.633,4.65a38.125,38.125,0,0,0-14.218,4.915l-2.373-4.035a42.666,42.666,0,0,0-12.421,11.025l.03.027,2.457,1.869,1.243.947a38.107,38.107,0,0,0-6.565,13.538l-4.547-1.18a42.7,42.7,0,0,0-.989,16.565l4.649-.632a38.511,38.511,0,0,0,4.928,14.24l-4.035,2.372a42.827,42.827,0,0,0,11.008,12.416l.637-.827,2.205-2.9a38.138,38.138,0,0,0,13.555,6.569l-1.18,4.547A42.76,42.76,0,0,0,3679.2,675Z" transform="translate(-3636.99 -589.131)" fill="#aaffe1"/>
      </g>
    </g>
  </g>
</svg>
