<svg xmlns="http://www.w3.org/2000/svg" width="174.059" height="125.791" viewBox="0 0 174.059 125.791">
  <g id="Grupo_97013" data-name="Grupo 97013" transform="translate(-1457.329 -886.663)">
    <path id="Trazado_155253" data-name="Trazado 155253" d="M1451.5,1012.425s-23.826-74.9,27.421-88.828c31.976-8.689,31.14-38.9,76.386-36.834,46.334,2.112,28.088,60.325,34.1,73.641s21.44,18.658,15.845,52.021Z" transform="translate(24.937)" fill="#faf7eb"/>
    <path id="Trazado_155254" data-name="Trazado 155254" d="M1668.592,910.872c-2.186-4.93-10.618-1.983-10.618-1.983s-4.507,9.911-6.188,10.389,2.2-9.226,2.2-9.226c-3.372.191-11.21,5.569-11.21,5.569s2.155,10.419.408,10.47-1.437-9.323-1.437-9.323c-3.067,1.46-5.489,5.673-5.489,5.673-2.809,6.687,5.923,9.949,5.923,9.949a17.3,17.3,0,0,1-.937,8.154h0a12.545,12.545,0,0,0-.7,2.241l.877-.135c.035-.246.079-.485.133-.717v0l0-.01c.039-.145.1-.35.167-.6h0c.187-.565.308-.981.379-1.277v0c.548-1.769,1.374-4.091,2.075-4.66a1.727,1.727,0,0,1-.25-.373l.25.373c2,2.983,9.581,2.363,13.628.861s2.044-2.4-.5-3.966-7.183-.335-8.692-.87.412-1.6,3.231-1.814,4.642,2.356,9.209,2.091,6.691-9.26,6.691-9.26c-2.959,1.444-8.8.588-9.176-.451s7.889-2.2,9.126-2.723S1670.779,915.8,1668.592,910.872Z" transform="translate(-73.119 -7.896)" fill="#fdeb92"/>
    <path id="Trazado_155255" data-name="Trazado 155255" d="M1691.851,1017.109c7.844-4.685,1.165-18.266,1.165-18.266s-17.591-5.553-18.74-8.284,15.967,1.811,15.967,1.811c-1.01-5.632-11.658-17.716-11.658-17.716s-17.085,5.755-17.526,2.825,15.388-4.324,15.388-4.324c-3.083-4.859-10.665-8.072-10.665-8.072-11.822-3.357-15.523,11.995-15.523,11.995a29.307,29.307,0,0,1-13.905.091h0a21.259,21.259,0,0,0-3.913-.724l.406,1.446c.421.01.832.034,1.233.078a.007.007,0,0,1,.007,0l.018,0c.251.037.609.089,1.047.158h0c.99.2,1.712.318,2.227.377h.005c3.088.561,7.162,1.474,8.262,2.538a2.918,2.918,0,0,1,.576-.5l-.576.5c-4.611,3.967-2.016,16.6,1.337,23.1s4.454,2.947,6.568-1.655-.9-12.15-.313-14.8,2.774.365,3.713,5.063-3.014,8.29-1.634,15.917,16.943,9.361,16.943,9.361c-3.033-4.682-2.787-14.675-1.119-15.525s5.32,12.818,6.447,14.792S1684.007,1021.794,1691.851,1017.109Z" transform="translate(-71.915 -28.821)" fill="#fdeb92"/>
    <path id="Trazado_155256" data-name="Trazado 155256" d="M1540.568,959c4.393-6.337,15.448.062,15.448.062s3.671,15.13,5.905,16.253-.613-13.549-.613-13.549c4.685,1.173,14.253,10.829,14.253,10.829s-5.822,14.058-3.38,14.6,4.52-12.711,4.52-12.711c3.916,2.874,6.188,9.442,6.188,9.442,2.152,10.146-10.987,12.386-10.987,12.386a24.736,24.736,0,0,0-.871,11.7h0a17.938,17.938,0,0,1,.386,3.337l-1.195-.425c.016-.355.018-.7.005-1.043v-.021c-.016-.214-.041-.519-.074-.891h0v0c-.111-.845-.17-1.46-.19-1.9v0c-.3-2.632-.832-6.116-1.666-7.1a2.459,2.459,0,0,0,.451-.458l-.451.458c-3.6,3.655-14.091.749-19.373-2.446s-2.227-3.919,1.768-5.436,10.18,1.456,12.442,1.109-.149-2.357-4.052-3.416-7.152,2.065-13.5.467-6.915-14.8-6.915-14.8c3.769,2.821,12.2,3.186,13.01,1.829s-10.49-5.212-12.088-6.274S1536.175,965.342,1540.568,959Z" transform="translate(-36.927 -25.715)" fill="#fbe680"/>
    <path id="Trazado_155257" data-name="Trazado 155257" d="M1666.7,974.349c-.015-.034-.032-.071-.053-.11-.07-.27-.677-1.7-.744-1.862-.191-.446-.5-.209-.5.125,0,.1.044.839.018.945a5.012,5.012,0,0,0-2.162-1.149s-1.014-.333-.526.688c.326.683.714.768,1.189,1.724a2.484,2.484,0,0,0,2.136,1.552l.843.286.852-1.26-.548-.339A1.284,1.284,0,0,1,1666.7,974.349Z" transform="translate(-83.066 -31.605)" fill="#ffb27d"/>
    <g id="Grupo_96992" data-name="Grupo 96992" transform="translate(1532.431 913.9)">
      <g id="Grupo_96979" data-name="Grupo 96979" transform="translate(0)">
        <rect id="Rectángulo_36775" data-name="Rectángulo 36775" width="49.904" height="71.812" fill="#fff"/>
        <g id="Grupo_96978" data-name="Grupo 96978" transform="translate(9.858 6.467)">
          <rect id="Rectángulo_36776" data-name="Rectángulo 36776" width="22.746" height="1.181" transform="translate(2.94)" fill="#f99746"/>
          <rect id="Rectángulo_36777" data-name="Rectángulo 36777" width="11.373" height="1.181" transform="translate(0 2.741)" fill="#f99746"/>
          <rect id="Rectángulo_36778" data-name="Rectángulo 36778" width="16.693" height="1.181" transform="translate(12.745 2.741)" fill="#f99746"/>
        </g>
      </g>
      <g id="Grupo_96982" data-name="Grupo 96982" transform="translate(3.199 20.089)">
        <rect id="Rectángulo_36779" data-name="Rectángulo 36779" width="27.402" height="0.899" transform="translate(6.451 4.798)" fill="#9ce4a0"/>
        <g id="Grupo_96980" data-name="Grupo 96980" transform="translate(0 2.399)">
          <rect id="Rectángulo_36780" data-name="Rectángulo 36780" width="19.404" height="0.899" transform="translate(20.901)" fill="#9ce4a0"/>
          <rect id="Rectángulo_36781" data-name="Rectángulo 36781" width="18.902" height="0.899" fill="#9ce4a0"/>
        </g>
        <g id="Grupo_96981" data-name="Grupo 96981" transform="translate(1.9)">
          <rect id="Rectángulo_36782" data-name="Rectángulo 36782" width="16.693" height="0.899" transform="translate(19.812)" fill="#9ce4a0"/>
          <rect id="Rectángulo_36783" data-name="Rectángulo 36783" width="16.693" height="0.899" fill="#9ce4a0"/>
        </g>
      </g>
      <g id="Grupo_96985" data-name="Grupo 96985" transform="translate(5.303 31.012)">
        <rect id="Rectángulo_36784" data-name="Rectángulo 36784" width="24.541" height="0.899" transform="translate(5.778 4.798)" fill="#9ce4a0"/>
        <g id="Grupo_96983" data-name="Grupo 96983" transform="translate(0 2.399)">
          <rect id="Rectángulo_36785" data-name="Rectángulo 36785" width="17.377" height="0.899" transform="translate(18.719)" fill="#9ce4a0"/>
          <rect id="Rectángulo_36786" data-name="Rectángulo 36786" width="16.928" height="0.899" fill="#9ce4a0"/>
        </g>
        <g id="Grupo_96984" data-name="Grupo 96984" transform="translate(1.702)">
          <rect id="Rectángulo_36787" data-name="Rectángulo 36787" width="14.95" height="0.899" transform="translate(17.743)" fill="#9ce4a0"/>
          <rect id="Rectángulo_36788" data-name="Rectángulo 36788" width="14.949" height="0.899" fill="#9ce4a0"/>
        </g>
      </g>
      <g id="Grupo_96991" data-name="Grupo 96991" transform="translate(19.545 43.489)">
        <g id="Grupo_96986" data-name="Grupo 96986">
          <path id="Trazado_155258" data-name="Trazado 155258" d="M1626.686,1000.078h-7.217a.6.6,0,0,1-.595-.6h0a.6.6,0,0,1,.595-.595h7.217a.6.6,0,0,1,.595.595h0A.6.6,0,0,1,1626.686,1000.078Z" transform="translate(-1618.874 -998.888)" fill="#96dc96"/>
          <path id="Trazado_155259" data-name="Trazado 155259" d="M1642.659,1000.078h-7.216a.6.6,0,0,1-.6-.6h0a.6.6,0,0,1,.6-.595h7.216a.6.6,0,0,1,.6.595h0A.6.6,0,0,1,1642.659,1000.078Z" transform="translate(-1624.781 -998.888)" fill="#96dc96"/>
        </g>
        <g id="Grupo_96990" data-name="Grupo 96990" transform="translate(2.563 3.999)">
          <g id="Grupo_96987" data-name="Grupo 96987">
            <path id="Trazado_155260" data-name="Trazado 155260" d="M1629.442,1018.235a6.5,6.5,0,1,1,6.5-6.5A6.508,6.508,0,0,1,1629.442,1018.235Zm0-12.674a6.173,6.173,0,1,0,6.173,6.173A6.18,6.18,0,0,0,1629.442,1005.561Z" transform="translate(-1622.941 -1005.233)" fill="#96dc96"/>
          </g>
          <g id="Grupo_96988" data-name="Grupo 96988" transform="translate(1.262 1.262)">
            <path id="Trazado_155261" data-name="Trazado 155261" d="M1630.182,1017.713a5.238,5.238,0,1,1,5.238-5.238A5.245,5.245,0,0,1,1630.182,1017.713Zm0-10.148a4.91,4.91,0,1,0,4.911,4.91A4.916,4.916,0,0,0,1630.182,1007.564Z" transform="translate(-1624.944 -1007.236)" fill="#96dc96"/>
          </g>
          <g id="Grupo_96989" data-name="Grupo 96989" transform="translate(3.442 4.144)">
            <path id="Trazado_155262" data-name="Trazado 155262" d="M1631.531,1016.22a5.044,5.044,0,0,1-1.867.292c-.8-.066-1.243-.483-1.261-1.174a1.77,1.77,0,0,1,.659-1.417c0-.038-.008-.075-.01-.113-.029-.386.053-.643.245-.763.311-.194.772.071.792.083l-.1.176c-.1-.061-.411-.193-.58-.086-.147.091-.165.345-.151.55a4.335,4.335,0,0,1,1.414-.633,7.589,7.589,0,0,1,1.333-.227c0-.048.006-.091.011-.127.014-.094.047-.205.141-.228a.153.153,0,0,1,.164.086.492.492,0,0,1,.063.248c.148,0,.286,0,.408.008l0-.007a2.34,2.34,0,0,1,.032-.712c.052-.236.137-.356.255-.367a.156.156,0,0,1,.163.1,1.919,1.919,0,0,1-.24,1.01v0c.169.029.284.076.321.141a.153.153,0,0,1-.042.192.241.241,0,0,1-.3.064.3.3,0,0,1-.11-.125,2.144,2.144,0,0,1-.4.6.2.2,0,0,1-.238.035.228.228,0,0,1-.052-.042,2.782,2.782,0,0,1-.156.322c-.214.375-.455.568-.7.557a.392.392,0,0,1-.261-.115,3.77,3.77,0,0,1-.468.771.548.548,0,0,1-.611.217,1.782,1.782,0,0,1-.889-1.377,1.532,1.532,0,0,0-.492,1.173c.015.589.377.918,1.074.976,1.761.147,4.848-1.49,5.082-2.694h0C1634.572,1014.594,1633.107,1015.709,1631.531,1016.22Zm-2.252-2.218a1.674,1.674,0,0,0,.771,1.339.348.348,0,0,0,.391-.15,3.511,3.511,0,0,0,.491-.841,1.242,1.242,0,0,1-.084-.267,1.921,1.921,0,0,1,0-.783,5.162,5.162,0,0,0-.964.335A3.184,3.184,0,0,0,1629.279,1014Zm1.879.335a.233.233,0,0,0,.18.122c.154.007.341-.158.509-.454a2.67,2.67,0,0,0,.211-.476,2.008,2.008,0,0,1-.057-.416c-.227.018-.473.049-.728.1A1.537,1.537,0,0,1,1631.158,1014.338Zm1.113-.8c.032.1.061.115.061.115a1.914,1.914,0,0,0,.363-.553c-.1,0-.206,0-.325,0A2.45,2.45,0,0,1,1632.271,1013.534Zm-1.2-.262a1.563,1.563,0,0,0-.026.764A1,1,0,0,0,1631.072,1013.272Zm2.012-.13h0Zm-.03-1.049a1.248,1.248,0,0,0-.049.214A1.59,1.59,0,0,0,1633.054,1012.093Z" transform="translate(-1628.402 -1011.809)" fill="#96dc96"/>
          </g>
        </g>
      </g>
    </g>
    <g id="Grupo_96993" data-name="Grupo 96993" transform="translate(1580.196 920.374)">
      <path id="Trazado_155263" data-name="Trazado 155263" d="M1689.022,970.807s4.2,16.072-8.56,13.4c-3.444-.722-12.619-9.865-12.619-9.865s.883-1.393,1.969-1.245c0,0,8.864,2.882,10.282,3.926.785.578,1.681-8.528,4.4-8.4A7.1,7.1,0,0,1,1689.022,970.807Z" transform="translate(-1665.202 -950.682)" fill="#91cecf"/>
      <path id="Trazado_155264" data-name="Trazado 155264" d="M1705.122,1079.212s-.234,3.78-.965,3.834c-.1.007-3.709.007-3.709.007l-4.611-.026a1.5,1.5,0,0,1,1.378-1.346c1.348-.235,3.6-1.182,4.42-2.963C1702.493,1076.843,1705.122,1079.212,1705.122,1079.212Z" transform="translate(-1675.553 -991.125)" fill="#163560"/>
      <path id="Trazado_155265" data-name="Trazado 155265" d="M1701.813,1052.959a9.612,9.612,0,0,1-2.5.469,9.173,9.173,0,0,1-2.33-.332,63.792,63.792,0,0,0-1.716-8.175c-.761-2.947-1.849-6.736-3.4-11.445a155.14,155.14,0,0,1-5.7-21.348c-.006-.038-.009-.057-.009-.057l.014-.006,13.149-5.773s-1.625,17.935.448,24.82a29.044,29.044,0,0,1,.752,3.3C1701.844,1041.887,1701.813,1052.959,1701.813,1052.959Z" transform="translate(-1671.979 -964.61)" fill="#2b478b"/>
      <path id="Trazado_155266" data-name="Trazado 155266" d="M1700.539,1034.409l-5.263,10.511c-.761-2.947-1.849-6.736-3.4-11.445a155.14,155.14,0,0,1-5.7-21.348c0-.021,0-.042.006-.063l13.149-5.773s-1.625,17.935.448,24.82A29.044,29.044,0,0,1,1700.539,1034.409Z" transform="translate(-1671.984 -964.61)" fill="#233862"/>
      <path id="Trazado_155267" data-name="Trazado 155267" d="M1688.826,1079.212s-.234,3.78-.966,3.834c-.1.007-3.709.007-3.709.007l-4.611-.026a1.5,1.5,0,0,1,1.378-1.346c1.348-.235,3.6-1.182,4.42-2.963C1686.2,1076.843,1688.826,1079.212,1688.826,1079.212Z" transform="translate(-1669.527 -991.125)" fill="#163560"/>
      <path id="Trazado_155268" data-name="Trazado 155268" d="M1682.443,1006.961a187.157,187.157,0,0,0,1.84,25.893c2.011,14.271,1.329,20.328,1.329,20.328a13.7,13.7,0,0,0,1.939.493,8.793,8.793,0,0,0,2.877-.333s2.878-14.276,2.053-21.419,3.941-24.51,3.941-24.51Z" transform="translate(-1670.599 -964.858)" fill="#2b478b"/>
      <path id="Trazado_155269" data-name="Trazado 155269" d="M1694.077,959.787l-2.306,2.025-3.769-.166c.009-.3.078-1.566.142-2.71,0-.068.008-.135.011-.2.056-.974.1-1.81.1-1.81l3.216-2,1.2-.744c0,.02.049,1.064.057,1.217A8.832,8.832,0,0,0,1694.077,959.787Z" transform="translate(-1672.656 -945.342)" fill="#ffb27d"/>
      <path id="Trazado_155270" data-name="Trazado 155270" d="M1681.226,990.933c.053,6.135.461,20.486.762,20.778,3.2,3.084,17.25-.846,17.995-4.244s-2.832-43.569-8.289-45.173c-1.133-.332-7.187,1.625-7.187,1.625a38.4,38.4,0,0,0-1.573,5.649c-.23,1.173-.984,9.54-1.424,15.132-.116,1.49-.211,2.783-.267,3.689C1681.221,988.764,1681.215,989.676,1681.226,990.933Z" transform="translate(-1670.148 -948.327)" fill="#abddda"/>
      <path id="Trazado_155271" data-name="Trazado 155271" d="M1692.564,955.895c-.573,1.383-3.224,2.882-4.337,3.453,0-.068.008-.135.011-.2.056-.974.1-1.81.1-1.81l3.216-2C1692.315,955.222,1692.8,955.326,1692.564,955.895Z" transform="translate(-1672.739 -945.753)" fill="#fca56b"/>
      <path id="Trazado_155272" data-name="Trazado 155272" d="M1685.656,953.059s5.819.541,6.1-3.089,1.221-6-2.482-6.5-4.534.83-4.922,2.019S1684.149,952.825,1685.656,953.059Z" transform="translate(-1671.241 -941.34)" fill="#ffb27d"/>
      <path id="Trazado_155273" data-name="Trazado 155273" d="M1684.194,943.927s1.194,3.9,1.978,3.552,1.5-.633,1.638.59-.711,2.849,1.867,2.522,4.829-7.633,3.87-8.722C1690.78,938.727,1680.366,940.191,1684.194,943.927Z" transform="translate(-1670.939 -940.154)" fill="#163560"/>
      <path id="Trazado_155274" data-name="Trazado 155274" d="M1687.92,961.452c.072-.03,4.154-1.862,4.631-1.7s1.073,1.615,1.073,1.615l-7.187,1.625A3.566,3.566,0,0,1,1687.92,961.452Z" transform="translate(-1672.077 -947.396)" fill="#91cecf"/>
      <path id="Trazado_155275" data-name="Trazado 155275" d="M1681.225,1002.738a29.847,29.847,0,0,0,11.786-20.442c-5.2,2.935-10.143,7.787-11.747,13.12-.116,1.49.034,3.871-.021,4.778C1681.22,1000.569,1681.215,1001.482,1681.225,1002.738Z" transform="translate(-1670.148 -955.737)" fill="#91cecf"/>
      <path id="Trazado_155276" data-name="Trazado 155276" d="M1667.863,1007.839a.859.859,0,0,0-.444-.134,6.278,6.278,0,0,1-1.128-.528c-.4-.363-.54.023-.261.409.061.083.277.226.352.305a8.331,8.331,0,0,0-2.436,1.6s-.831.67.292.816c.75.1,1.033-.182,2.093-.061a2.488,2.488,0,0,0,2.464-.95l.7-.552-.594-1.4Z" transform="translate(-1663.652 -964.884)" fill="#ffb27d"/>
      <path id="Trazado_155277" data-name="Trazado 155277" d="M1684.781,965.355s11.518-.553,1.1,18.825c-1.666,3.1-13.569,9.833-13.569,9.833s-1.119-1.211-.7-2.224c0,0,7.751-8.821,8.79-9.18.921-.318.732-11.059,1.555-13.649A6.344,6.344,0,0,1,1684.781,965.355Z" transform="translate(-1666.562 -949.472)" fill="#abddda"/>
    </g>
    <g id="Grupo_96995" data-name="Grupo 96995" transform="translate(1568.515 972.34)">
      <g id="Grupo_96994" data-name="Grupo 96994">
        <path id="Trazado_155278" data-name="Trazado 155278" d="M1661.618,1063.932l-8.35,0h-4.417a3.127,3.127,0,0,1-3.116-3.119l.01-30.853a3.125,3.125,0,0,1,3.117-3.116h3.917l8.849,0a3.126,3.126,0,0,1,3.116,3.118l-.01,30.853A3.126,3.126,0,0,1,1661.618,1063.932Z" transform="translate(-1645.346 -1024.176)" fill="#c3fbc0" opacity="0.5"/>
        <path id="Trazado_155279" data-name="Trazado 155279" d="M1663.815,1064.452l-.222-1.623h0l-.222-1.625a1.527,1.527,0,0,0-1.713-1.3c-.046.006-.091.016-.135.026a1.507,1.507,0,0,0,.262-.719,1.521,1.521,0,0,0,2.883-.938l-.381-1.594h0l-.382-1.6a1.522,1.522,0,0,0-2.959.708l.575,2.4a1.507,1.507,0,0,0-1.2-.646,4.166,4.166,0,0,0-.316-3.209l-2.527-2.089a1.521,1.521,0,0,0-2.074,2.218,1.5,1.5,0,0,0-.405.052l-1.581.432h0l-1.581.433a1.525,1.525,0,0,0-1.076,1.109l-.166-.4h0l-.632-1.512a1.522,1.522,0,1,0-2.808,1.173l.631,1.512h0l.405.969a1.525,1.525,0,0,0-.961,1.336l-.083,1.637h0l-.083,1.638a1.516,1.516,0,0,0,1.956,1.532,1.535,1.535,0,0,0-.121,1.028,1.51,1.51,0,0,0-.645.733l-.626,1.514h0l-.626,1.515a5.512,5.512,0,0,1,3,2.222,1.526,1.526,0,0,0,2.133-.284l1-1.3h0l1-1.3a.993.993,0,0,1,1.285-.839l.261-.18-.361.473h0l-1,1.3a1.521,1.521,0,0,0,2.416,1.849l1-1.3h0l1-1.3c.012-.017.023-.035.035-.052a1.525,1.525,0,0,0,.292.343l-.355.464a1.521,1.521,0,0,0,2.416,1.85l1.993-2.6a1.516,1.516,0,0,0-.646-2.338c.018,0,.037,0,.055,0A1.526,1.526,0,0,0,1663.815,1064.452ZM1650.1,1063l.028-.558a1.451,1.451,0,0,0,.567.55l-.7.481A1.483,1.483,0,0,0,1650.1,1063Zm10.253-1.385.3,2.184a.894.894,0,1,1-1.165-1.208l.855-1.117Q1660.347,1061.544,1660.356,1061.615Zm-3.461-5.9.383.316-.395.272A1.5,1.5,0,0,0,1656.9,1055.715Zm.331,4.825a.41.41,0,0,1,.058-.816l1.2-.827Zm1,2.847a1.533,1.533,0,0,0-1.147-.346l.032-.41a1.533,1.533,0,0,0,.249.243.631.631,0,1,1,.866.513Zm-3.065-5.758a1.526,1.526,0,0,0,.012,1.708c.006.01.014.018.021.027a.334.334,0,1,1-.253-.5,1.516,1.516,0,0,0-.581-1.008l-.005,0Zm-1.514,3.658.587-.766c-.008.047-.015.1-.019.144l-.111,1.408a1.525,1.525,0,0,0-.773-.373l.316-.413Zm-2.747,6.431.172-.417a1.51,1.51,0,0,0,.073-.925c.034-.02.069-.041.1-.064l2.7-1.861.05-.038a1.536,1.536,0,0,0,.171.416l-.48.332a2.3,2.3,0,0,1-1.974,1.494Zm7.159-1.876.084.352a1.492,1.492,0,0,0-.422-.12Zm3.214.355-.117-.49h0l-.022-.093a.386.386,0,1,1,.139.584Zm-9.216-7.839-.825,1.078h0l-1,1.3-.012.018.052-1.032c0-.026,0-.052,0-.079.047-.015.093-.031.139-.05a1.043,1.043,0,0,1,1.643-1.238Z" transform="translate(-1645.772 -1033.442)" fill="#32b654"/>
        <path id="Trazado_155280" data-name="Trazado 155280" d="M1653.268,1063.93h-4.417a3.127,3.127,0,0,1-3.116-3.119l.01-30.853a3.125,3.125,0,0,1,3.117-3.116h3.917a3.819,3.819,0,0,1,.511,1.927l-.01,34.849C1653.281,1063.724,1653.277,1063.827,1653.268,1063.93Z" transform="translate(-1645.346 -1024.176)" fill="#b2fbaf" opacity="0.5"/>
        <path id="Trazado_155281" data-name="Trazado 155281" d="M1664.312,1026.736l-11.859,0-6.73,0a.607.607,0,0,1-.606-.606v-2.906a.608.608,0,0,1,.606-.606l6.721,0h0l11.867,0a.608.608,0,0,1,.606.606v2.905A.607.607,0,0,1,1664.312,1026.736Z" transform="translate(-1645.117 -1022.612)" fill="#f99746"/>
        <path id="Trazado_155282" data-name="Trazado 155282" d="M1652.453,1026.732l-6.73,0a.607.607,0,0,1-.606-.606v-2.906a.608.608,0,0,1,.606-.606l6.721,0h0a.607.607,0,0,1,.6.606v2.906A.608.608,0,0,1,1652.453,1026.732Z" transform="translate(-1645.117 -1022.612)" fill="#ef7e29"/>
      </g>
    </g>
    <g id="Grupo_96996" data-name="Grupo 96996" transform="translate(1617.648 1008.206)">
      <path id="Trazado_155283" data-name="Trazado 155283" d="M1736.818,1081.565a2.052,2.052,0,0,1-2.044,2.044h-9.651a2.044,2.044,0,0,1,0-4.088h9.651A2.05,2.05,0,0,1,1736.818,1081.565Z" transform="translate(-1723.079 -1079.522)" fill="#ef7e29"/>
      <path id="Trazado_155284" data-name="Trazado 155284" d="M1731.839,1081.565a2.051,2.051,0,0,1-2.043,2.044h-4.673a2.044,2.044,0,0,1,0-4.088h4.673A2.049,2.049,0,0,1,1731.839,1081.565Z" transform="translate(-1723.079 -1079.522)" fill="#f99746"/>
      <rect id="Rectángulo_36789" data-name="Rectángulo 36789" width="9.785" height="0.645" rx="0.322" transform="translate(2.363 0.453)" fill="#ffe2cc" opacity="0.5"/>
    </g>
    <g id="Grupo_97005" data-name="Grupo 97005" transform="translate(1515.827 953.445)">
      <g id="Grupo_97000" data-name="Grupo 97000" transform="translate(3.963)">
        <g id="Grupo_96999" data-name="Grupo 96999">
          <g id="Grupo_96998" data-name="Grupo 96998">
            <path id="Trazado_155285" data-name="Trazado 155285" d="M1591.33,995.841v28.778a3.221,3.221,0,0,1-3.211,3.211h-17.1a3.172,3.172,0,0,1-1.289-.272,3.222,3.222,0,0,1-1.923-2.939V995.841a3.221,3.221,0,0,1,3.212-3.211h17.1A3.22,3.22,0,0,1,1591.33,995.841Z" transform="translate(-1567.803 -992.63)" fill="#fcecdb"/>
            <path id="Trazado_155286" data-name="Trazado 155286" d="M1591.781,1005.829a3.5,3.5,0,1,1,4.5-2.044A3.5,3.5,0,0,1,1591.781,1005.829Z" transform="translate(-1575.831 -995.008)" fill="#f7e0cb"/>
            <path id="Trazado_155287" data-name="Trazado 155287" d="M1596.414,1003.786l-6.545-2.457a3.5,3.5,0,1,1,6.545,2.457Z" transform="translate(-1575.963 -995.008)" fill="#efcbab"/>
            <path id="Trazado_155288" data-name="Trazado 155288" d="M1573.615,1005.265a3.5,3.5,0,1,1,4.918-.5A3.5,3.5,0,0,1,1573.615,1005.265Z" transform="translate(-1569.477 -995.008)" fill="#f7e0cb"/>
            <path id="Trazado_155289" data-name="Trazado 155289" d="M1579,1004.768l-5.415-4.421a3.5,3.5,0,1,1,5.415,4.421Z" transform="translate(-1569.939 -995.008)" fill="#efcbab"/>
            <path id="Trazado_155290" data-name="Trazado 155290" d="M1591.781,1039.663a3.5,3.5,0,1,1,4.5-2.043A3.5,3.5,0,0,1,1591.781,1039.663Z" transform="translate(-1575.831 -1007.519)" fill="#f7e0cb"/>
            <path id="Trazado_155291" data-name="Trazado 155291" d="M1596.414,1038l-6.545-2.457a3.5,3.5,0,0,1,6.545,2.457Z" transform="translate(-1575.963 -1007.658)" fill="#efcbab"/>
            <path id="Trazado_155292" data-name="Trazado 155292" d="M1573.615,1039.1a3.5,3.5,0,1,1,4.918-.5A3.5,3.5,0,0,1,1573.615,1039.1Z" transform="translate(-1569.477 -1007.519)" fill="#f7e0cb"/>
            <path id="Trazado_155293" data-name="Trazado 155293" d="M1579,1038.978l-5.415-4.421a3.5,3.5,0,1,1,5.415,4.421Z" transform="translate(-1569.939 -1007.659)" fill="#efcbab"/>
            <g id="Grupo_96997" data-name="Grupo 96997" transform="translate(13.683 15.111)">
              <path id="Trazado_155294" data-name="Trazado 155294" d="M1594.507,1023.262a3.5,3.5,0,1,1,1.662-4.655A3.5,3.5,0,0,1,1594.507,1023.262Z" transform="translate(-1589.514 -1016.607)" fill="#f7e0cb"/>
              <path id="Trazado_155295" data-name="Trazado 155295" d="M1596.169,1018.607l-6.317,2.994a3.5,3.5,0,1,1,6.317-2.994Z" transform="translate(-1589.514 -1016.607)" fill="#efcbab"/>
            </g>
            <path id="Trazado_155296" data-name="Trazado 155296" d="M1572.58,1018.8a3.5,3.5,0,1,1,1.947,4.544A3.5,3.5,0,0,1,1572.58,1018.8Z" transform="translate(-1569.477 -1001.496)" fill="#f7e0cb"/>
            <path id="Trazado_155297" data-name="Trazado 155297" d="M1575.816,1023.5l2.6-6.49a3.5,3.5,0,0,1-2.6,6.49Z" transform="translate(-1570.766 -1001.644)" fill="#efcbab"/>
          </g>
        </g>
        <path id="Trazado_155298" data-name="Trazado 155298" d="M1593.535,1003.974v25.042a2.983,2.983,0,0,1-2.938,3.009h-15.652a2.85,2.85,0,0,1-1.179-.255v-24.329a3.5,3.5,0,0,1,1.076-2.529,3.4,3.4,0,0,1,.828-.585,3.292,3.292,0,0,1,1.482-.352Z" transform="translate(-1570.008 -996.825)" fill="#efcbab" opacity="0.5"/>
      </g>
      <g id="Grupo_97003" data-name="Grupo 97003" transform="translate(8.28 7.311)">
        <g id="Grupo_97002" data-name="Grupo 97002">
          <rect id="Rectángulo_36790" data-name="Rectángulo 36790" width="35.2" height="23.527" rx="11.764" transform="translate(23.527) rotate(90)" fill="#fcecdb"/>
          <path id="Trazado_155299" data-name="Trazado 155299" d="M1598.631,1017.431a3.5,3.5,0,1,1,4.5-2.043A3.495,3.495,0,0,1,1598.631,1017.431Z" transform="translate(-1582.681 -1006.609)" fill="#f7e0cb"/>
          <path id="Trazado_155300" data-name="Trazado 155300" d="M1603.263,1015.388l-6.544-2.458a3.5,3.5,0,0,1,6.544,2.458Z" transform="translate(-1582.812 -1006.609)" fill="#efcbab"/>
          <path id="Trazado_155301" data-name="Trazado 155301" d="M1580.464,1016.866a3.5,3.5,0,1,1,4.918-.5A3.5,3.5,0,0,1,1580.464,1016.866Z" transform="translate(-1576.327 -1006.609)" fill="#f7e0cb"/>
          <path id="Trazado_155302" data-name="Trazado 155302" d="M1585.844,1016.369l-5.416-4.42a3.5,3.5,0,1,1,5.416,4.42Z" transform="translate(-1576.789 -1006.609)" fill="#efcbab"/>
          <path id="Trazado_155303" data-name="Trazado 155303" d="M1598.631,1051.264a3.5,3.5,0,1,1,4.5-2.043A3.494,3.494,0,0,1,1598.631,1051.264Z" transform="translate(-1582.681 -1019.12)" fill="#f7e0cb"/>
          <path id="Trazado_155304" data-name="Trazado 155304" d="M1603.263,1049.6l-6.544-2.458a3.5,3.5,0,0,1,6.544,2.458Z" transform="translate(-1582.812 -1019.259)" fill="#efcbab"/>
          <circle id="Elipse_5539" data-name="Elipse 5539" cx="3.495" cy="3.495" r="3.495" transform="translate(1.729 30.632) rotate(-65.857)" fill="#f7e0cb"/>
          <path id="Trazado_155305" data-name="Trazado 155305" d="M1585.844,1050.579l-5.416-4.42a3.5,3.5,0,0,1,5.416,4.42Z" transform="translate(-1576.789 -1019.26)" fill="#efcbab"/>
          <g id="Grupo_97001" data-name="Grupo 97001" transform="translate(13.682 15.112)">
            <path id="Trazado_155306" data-name="Trazado 155306" d="M1601.356,1034.863a3.5,3.5,0,1,1,1.662-4.655A3.495,3.495,0,0,1,1601.356,1034.863Z" transform="translate(-1596.363 -1028.209)" fill="#f7e0cb"/>
            <path id="Trazado_155307" data-name="Trazado 155307" d="M1603.018,1030.208l-6.317,2.994a3.5,3.5,0,1,1,6.317-2.994Z" transform="translate(-1596.363 -1028.209)" fill="#efcbab"/>
          </g>
          <path id="Trazado_155308" data-name="Trazado 155308" d="M1579.43,1030.406a3.5,3.5,0,1,1,1.946,4.545A3.495,3.495,0,0,1,1579.43,1030.406Z" transform="translate(-1576.326 -1013.097)" fill="#f7e0cb"/>
          <path id="Trazado_155309" data-name="Trazado 155309" d="M1582.665,1035.1l2.6-6.491a3.5,3.5,0,0,1-2.6,6.491Z" transform="translate(-1577.615 -1013.245)" fill="#efcbab"/>
        </g>
      </g>
      <g id="Grupo_97004" data-name="Grupo 97004" transform="translate(0 18.79)">
        <rect id="Rectángulo_36791" data-name="Rectángulo 36791" width="26.865" height="40.092" transform="translate(2.295 0)" fill="#ef7e29"/>
        <rect id="Rectángulo_36792" data-name="Rectángulo 36792" width="26.865" height="40.093" transform="translate(6.037)" fill="#f99746"/>
        <path id="Trazado_155310" data-name="Trazado 155310" d="M1568.9,1024.771l-1.287,2h-2.455v-4.329h3.742Z" transform="translate(-1562.861 -1022.445)" fill="#d8661a"/>
        <path id="Trazado_155311" data-name="Trazado 155311" d="M1565.256,1025.6h-3.742l2.295-3.159h3.742Z" transform="translate(-1561.514 -1022.445)" fill="#f99746"/>
        <path id="Trazado_155312" data-name="Trazado 155312" d="M1584.949,1063.737h-13.856v-38.393l13.856,1.332Z" transform="translate(-1565.056 -1023.516)" fill="#efcbab" opacity="0.5"/>
        <path id="Trazado_155313" data-name="Trazado 155313" d="M1597.958,1025.6l-2.18,1.17h-23.39l-1.295-2v-2.327Z" transform="translate(-1565.056 -1022.444)" fill="#ef7e29"/>
        <path id="Trazado_155314" data-name="Trazado 155314" d="M1599.855,1025.6h-26.865l-1.9-3.159h26.865Z" transform="translate(-1565.056 -1022.445)" fill="#f99746"/>
      </g>
    </g>
    <g id="Grupo_97009" data-name="Grupo 97009" transform="translate(1457.329 946.405)">
      <path id="Trazado_155315" data-name="Trazado 155315" d="M1519.938,1004.927a2.8,2.8,0,0,0-5.047-.669,2.53,2.53,0,0,0-.378,1.272c-.069,2.677,5.211,13.039,5.912,13.956,1.276,1.668,8.977,5.681,8.977,5.681l1.636-.239a12.092,12.092,0,0,1-1.883-1.538c-1.978-1.975-4.863-5.187-5.392-5.632C1522.856,1017,1521.287,1009.262,1519.938,1004.927Z" transform="translate(-1485.635 -989.404)" fill="#ed985f"/>
      <g id="Grupo_97008" data-name="Grupo 97008" transform="translate(41.011 36.648)">
        <g id="Grupo_97007" data-name="Grupo 97007">
          <rect id="Rectángulo_36793" data-name="Rectángulo 36793" width="43.042" height="29.181" rx="14.59" fill="#fcecdb"/>
          <path id="Trazado_155316" data-name="Trazado 155316" d="M1549.907,1051.083a4.256,4.256,0,0,1-5.5,2.535,4.353,4.353,0,0,1-2.5-5.582,4.257,4.257,0,0,1,5.5-2.535A4.354,4.354,0,0,1,1549.907,1051.083Z" transform="translate(-1536.674 -1041.686)" fill="#f7e0cb"/>
          <path id="Trazado_155317" data-name="Trazado 155317" d="M1547.408,1045.5l-3,8.117a4.353,4.353,0,0,1-2.5-5.582A4.257,4.257,0,0,1,1547.408,1045.5Z" transform="translate(-1536.674 -1041.686)" fill="#efcbab"/>
          <path id="Trazado_155318" data-name="Trazado 155318" d="M1549.217,1073.617a4.233,4.233,0,0,1-6.014.616,4.377,4.377,0,0,1-.608-6.1,4.233,4.233,0,0,1,6.014-.616A4.379,4.379,0,0,1,1549.217,1073.617Z" transform="translate(-1536.675 -1049.568)" fill="#f7e0cb"/>
          <path id="Trazado_155319" data-name="Trazado 155319" d="M1548.609,1067.517l-5.406,6.716a4.377,4.377,0,0,1-.608-6.1A4.233,4.233,0,0,1,1548.609,1067.517Z" transform="translate(-1536.675 -1049.568)" fill="#efcbab"/>
          <path id="Trazado_155320" data-name="Trazado 155320" d="M1591.278,1051.083a4.256,4.256,0,0,1-5.5,2.535,4.353,4.353,0,0,1-2.5-5.582,4.257,4.257,0,0,1,5.5-2.535A4.354,4.354,0,0,1,1591.278,1051.083Z" transform="translate(-1551.972 -1041.686)" fill="#f7e0cb"/>
          <path id="Trazado_155321" data-name="Trazado 155321" d="M1588.781,1045.5l-3,8.117a4.353,4.353,0,0,1-2.5-5.582A4.257,4.257,0,0,1,1588.781,1045.5Z" transform="translate(-1551.973 -1041.686)" fill="#efcbab"/>
          <path id="Trazado_155322" data-name="Trazado 155322" d="M1590.588,1073.616a4.231,4.231,0,0,1-5.823.765c-.065-.046-.128-.1-.192-.148a4.378,4.378,0,0,1-.608-6.1,4.232,4.232,0,0,1,6.014-.616c.062.052.122.1.182.159A4.38,4.38,0,0,1,1590.588,1073.616Z" transform="translate(-1551.973 -1049.568)" fill="#f7e0cb"/>
          <path id="Trazado_155323" data-name="Trazado 155323" d="M1590.162,1067.675l-5.4,6.705c-.065-.046-.128-.1-.192-.148a4.378,4.378,0,0,1-.608-6.1,4.232,4.232,0,0,1,6.014-.616C1590.043,1067.568,1590.1,1067.621,1590.162,1067.675Z" transform="translate(-1551.973 -1049.568)" fill="#efcbab"/>
          <g id="Grupo_97006" data-name="Grupo 97006" transform="translate(18.478 3.538)">
            <path id="Trazado_155324" data-name="Trazado 155324" d="M1571.223,1047.7a4.361,4.361,0,0,1-2.032,5.774,4.248,4.248,0,0,1-5.693-2.061,4.363,4.363,0,0,1,2.032-5.774A4.248,4.248,0,0,1,1571.223,1047.7Z" transform="translate(-1563.086 -1045.224)" fill="#f7e0cb"/>
            <path id="Trazado_155325" data-name="Trazado 155325" d="M1565.531,1045.888l3.661,7.835a4.248,4.248,0,0,1-5.693-2.061A4.363,4.363,0,0,1,1565.531,1045.888Z" transform="translate(-1563.086 -1045.469)" fill="#efcbab"/>
          </g>
          <path id="Trazado_155326" data-name="Trazado 155326" d="M1565.773,1074.9a4.356,4.356,0,0,1-2.38-5.636,4.254,4.254,0,0,1,5.556-2.414,4.356,4.356,0,0,1,2.38,5.635A4.255,4.255,0,0,1,1565.773,1074.9Z" transform="translate(-1544.608 -1049.567)" fill="#f7e0cb"/>
          <path id="Trazado_155327" data-name="Trazado 155327" d="M1571.51,1072.485l-7.936-3.222a4.254,4.254,0,0,1,5.556-2.414A4.356,4.356,0,0,1,1571.51,1072.485Z" transform="translate(-1544.788 -1049.567)" fill="#efcbab"/>
        </g>
      </g>
      <path id="Trazado_155328" data-name="Trazado 155328" d="M1523.675,985.281a26.135,26.135,0,0,0-3.927,1.92c-1.772,1.965-1.267,4.531-.253,4.555.65.016.524,1.1.524,1.1l7.245-3.065S1526.391,984.7,1523.675,985.281Z" transform="translate(-1487.137 -982.855)" fill="#b5453c"/>
      <path id="Trazado_155329" data-name="Trazado 155329" d="M1522.153,984.281a2.6,2.6,0,0,0-2.895-2.822,3.709,3.709,0,0,1,1.45.778,3.73,3.73,0,0,0-4.2.633c-2.189,1.814-.829,6.365-1.494,7.229s-3.258,1.037-2.941,3.83,8.226,6.292,7.718,8.6c0,0,3.1-4.556.883-6.635a4.106,4.106,0,0,1,1.19,2.227s.293-2.361-1.209-3.116a5.548,5.548,0,0,1-2.3-3.55C1518.467,991.02,1522.153,984.281,1522.153,984.281Z" transform="translate(-1484.724 -981.459)" fill="#b5453c"/>
      <path id="Trazado_155330" data-name="Trazado 155330" d="M1503.552,1059.551l-1.568-.231a18.53,18.53,0,0,1-6.056-12.005,13.993,13.993,0,0,1-.038-2.417.423.423,0,0,0-.054-.267l0,0c-.169-.259-.589-.907-1.157-1.828s-1.519-2.624-2.574-4.55c-1.9-3.468-4.113-7.616-4.873-8.938-2.418-4.21-1.253-7.042-1.253-7.042s6.747-.667,8.6-2.285l.666,1.027s1.461,6.472,1.393,6.5l.219.672a112.651,112.651,0,0,1,3.2,11.636,19.236,19.236,0,0,1,.506,5.027,8.827,8.827,0,0,0,.119,1.841C1501.334,1051.335,1503.552,1059.551,1503.552,1059.551Z" transform="translate(-1474.98 -995.706)" fill="#2b478b"/>
      <path id="Trazado_155331" data-name="Trazado 155331" d="M1515.388,1083.776h-6.54a3.587,3.587,0,0,1,.185-1.753c.328-.726.794-.749.06-1.887a3.982,3.982,0,0,0,2.7.478,8.011,8.011,0,0,0,1.134,1.726C1513.351,1082.648,1515.257,1082.539,1515.388,1083.776Z" transform="translate(-1483.528 -1017.948)" fill="#233862"/>
      <path id="Trazado_155332" data-name="Trazado 155332" d="M1496.851,1028.187c-.572,3.151-1.921,8.4-4.748,10.065-1.9-3.468-4.113-7.616-4.873-8.938-2.418-4.21-1.253-7.042-1.253-7.042s6.747-.667,8.6-2.285l.666,1.027s1.461,6.472,1.393,6.5Z" transform="translate(-1474.98 -995.706)" fill="#233862"/>
      <path id="Trazado_155333" data-name="Trazado 155333" d="M1486.484,1021.958l.022-1.223c-2.437.308-8.4-2.912-8.4-2.912s-2.55,1.7-2.9,6.539c-.17,2.364-1.248,12.362-1.368,15.346-.043,1.082-.058,1.855-.062,2.163v0a.426.426,0,0,1-.1.252,13.9,13.9,0,0,0-1.321,2.024c-3.719,6.919-1.774,16.321-1.774,16.321l.863-.219s3.145-9.747,5.2-13.963a8.843,8.843,0,0,1,.931-1.593,19.255,19.255,0,0,0,2.391-4.451,116.353,116.353,0,0,0,4.044-12.118C1484.078,1028.14,1486.484,1021.958,1486.484,1021.958Z" transform="translate(-1469.201 -994.905)" fill="#2b478b"/>
      <path id="Trazado_155334" data-name="Trazado 155334" d="M1517.446,1005.92c-3.985-.914-1.439-6.513-1.208-6.414.552-.113,1.765-1.082,2.849-2.975l.146.127,2.447,2.145s-.566.834-1.042,1.652a3.727,3.727,0,0,0-.637,1.487C1520.2,1002.1,1518.508,1006.164,1517.446,1005.92Z" transform="translate(-1485.899 -987.032)" fill="#ffb27d"/>
      <path id="Trazado_155335" data-name="Trazado 155335" d="M1520.821,1004.83a20.056,20.056,0,0,1,1.074,2.58c.374,1.2,1.309,5.006,1.309,5.006a3.054,3.054,0,1,1-5.546-2.225C1518.167,1008.152,1520.821,1004.83,1520.821,1004.83Z" transform="translate(-1486.759 -990.101)" fill="#91cecf"/>
      <path id="Trazado_155336" data-name="Trazado 155336" d="M1524.006,998.878s-.566.834-1.042,1.652c-1.521-.938-1.523-2.821-1.406-3.8Z" transform="translate(-1488.224 -987.107)" fill="#ed985f"/>
      <path id="Trazado_155337" data-name="Trazado 155337" d="M1524.014,997.386s-3.694-2.056-2.379-4.336,1.725-4.082,4.139-2.866,2.366,2.349,2.113,3.217S1525.009,997.862,1524.014,997.386Z" transform="translate(-1488.165 -984.54)" fill="#ffb27d"/>
      <path id="Trazado_155338" data-name="Trazado 155338" d="M1528.283,991.888c-.169-1.013-.683-1.109-1.042-1.042a2.954,2.954,0,0,0-3.593-1.376,5.028,5.028,0,0,1-2.911,1.749s.428.8,2.2,1.291a3.01,3.01,0,0,0,1.742-.139,9.87,9.87,0,0,1-2.506.945c2.327.213,4.542-1.915,4.771-2.143a3.307,3.307,0,0,1,.183,1.525c-.153.686-.762,1.928-.391,2.089C1526.731,994.788,1528.537,993.407,1528.283,991.888Z" transform="translate(-1487.937 -984.359)" fill="#b5453c"/>
      <path id="Trazado_155339" data-name="Trazado 155339" d="M1475.268,1083.749h-6.54a3.588,3.588,0,0,1,.185-1.753c.327-.726.84-1.056.717-1.934a2.356,2.356,0,0,0,2.039.78,7.184,7.184,0,0,0,1.135,1.471C1473.231,1082.621,1475.136,1082.511,1475.268,1083.749Z" transform="translate(-1468.692 -1017.921)" fill="#233862"/>
      <path id="Trazado_155340" data-name="Trazado 155340" d="M1502.789,1011.627a15.9,15.9,0,0,1-3.231.586,21.767,21.767,0,0,0-4.425.688,5.873,5.873,0,0,0-1.241.677h0a.4.4,0,0,0-.036.027,3.959,3.959,0,0,0-.513.443,2.8,2.8,0,0,0-.6.89c-.341.843.111,3.179.4,4.456a1.161,1.161,0,0,1-.594,1.288q-.981.508-1.929.937l-.1.044c.006-.13.008-.258.008-.384a11.874,11.874,0,0,0-.11-1.615,6.764,6.764,0,0,1-1.287,2.59c-8.778,3.522-14.91,1.991-14.81.236.346-6.092,4.454-11.273,4.454-11.273,7.662-8.909,23.159-11.255,23.159-11.255s.742-.089,1.637.987c1.289,1.55,1.352,1.954,1.352,1.954S1505.265,1010.763,1502.789,1011.627Z" transform="translate(-1470.773 -988.3)" fill="#abddda"/>
      <path id="Trazado_155341" data-name="Trazado 155341" d="M1511.747,1013.965a21.822,21.822,0,0,0-4.425.687,18.137,18.137,0,0,1,2.3-9.952S1511.37,1011.816,1511.747,1013.965Z" transform="translate(-1482.963 -990.053)" fill="#91cecf"/>
      <path id="Trazado_155342" data-name="Trazado 155342" d="M1514.488,1002.956s-4.31.426-4.655,3.227,4.132,14.208,4.773,15.241c1.168,1.881,8.043,8.327,8.043,8.327l1.267-.768s-4.876-8.255-5.631-9.028C1517.1,1018.742,1515.948,1003.926,1514.488,1002.956Z" transform="translate(-1483.898 -989.408)" fill="#ffb27d"/>
      <path id="Trazado_155343" data-name="Trazado 155343" d="M1516.431,1008.074s.442-7.221-5.085-5.475.858,14.167.858,14.167a5.252,5.252,0,0,0,4.394-2.99Z" transform="translate(-1483.632 -989.175)" fill="#abddda"/>
      <path id="Trazado_155344" data-name="Trazado 155344" d="M1502.581,1027.661a1.161,1.161,0,0,1-.594,1.287q-.981.508-1.929.937c-.033-.108-.063-.221-.091-.34a5.92,5.92,0,0,1-.11-1.615,8.759,8.759,0,0,1,2.924-5.615,2.8,2.8,0,0,0-.6.89C1501.84,1024.048,1502.292,1026.384,1502.581,1027.661Z" transform="translate(-1480.212 -996.567)" fill="#91cecf"/>
      <path id="Trazado_155345" data-name="Trazado 155345" d="M1518.138,999.478s.674-.853,1.131-.826c0,0,1.845,2.582,1.859,3.767C1521.128,1002.419,1518.827,999.358,1518.138,999.478Z" transform="translate(-1486.976 -987.817)" fill="#91cecf"/>
      <path id="Trazado_155346" data-name="Trazado 155346" d="M1543.1,1038.9s-.981.018-1.192-.013a6.311,6.311,0,0,0-.765-.13,3.268,3.268,0,0,0-.785.132.551.551,0,0,1-.117.011h-1.626a.973.973,0,0,1-.342-.365c-.077-.124-.088-.42-.263-.518-.985-.55,1.636-.239,1.636-.239a10.135,10.135,0,0,1,1.8.084A18.05,18.05,0,0,1,1543.1,1038.9Z" transform="translate(-1494.242 -1002.252)" fill="#ed985f"/>
      <path id="Trazado_155347" data-name="Trazado 155347" d="M1539.083,1039.21a7.559,7.559,0,0,1,1.27.473l.286.181s.166-.185-.1-.391a1.257,1.257,0,0,1-.531-.79C1540,1038.32,1538.874,1038.638,1539.083,1039.21Z" transform="translate(-1494.712 -1002.563)" fill="#ed985f"/>
      <path id="Trazado_155348" data-name="Trazado 155348" d="M1531.332,1044.226a4,4,0,0,0,1.257.768c.543.134,1.16,1.688,1.258,1.91s-.518-.1-.764-.477-.415-.526-.487-.444a2.9,2.9,0,0,0,.455,1.694c.411.575.658,1.085.362,1.052s-2.056-.461-2.418-1.53-.1-1.107-.928-2.206S1531.332,1044.226,1531.332,1044.226Z" transform="translate(-1491.315 -1004.652)" fill="#ffb27d"/>
    </g>
    <g id="Grupo_97012" data-name="Grupo 97012" transform="translate(1552.406 1002.247)">
      <g id="Grupo_97010" data-name="Grupo 97010" transform="translate(8.532 5.44)">
        <path id="Trazado_155349" data-name="Trazado 155349" d="M1648.226,1080.949a2.259,2.259,0,0,1-2.251,2.251h-10.629a2.25,2.25,0,0,1,0-4.5h10.629A2.257,2.257,0,0,1,1648.226,1080.949Z" transform="translate(-1633.095 -1078.699)" fill="#2b8b31"/>
        <path id="Trazado_155350" data-name="Trazado 155350" d="M1642.742,1080.949a2.258,2.258,0,0,1-2.25,2.251h-5.146a2.25,2.25,0,0,1,0-4.5h5.146A2.257,2.257,0,0,1,1642.742,1080.949Z" transform="translate(-1633.095 -1078.699)" fill="#6df069"/>
        <rect id="Rectángulo_36794" data-name="Rectángulo 36794" width="10.777" height="0.71" rx="0.355" transform="translate(2.602 0.499)" fill="#ebfee9" opacity="0.4"/>
      </g>
      <g id="Grupo_97011" data-name="Grupo 97011">
        <path id="Trazado_155351" data-name="Trazado 155351" d="M1634.149,1071.381a2.395,2.395,0,0,1-1.064,3.2l-10.075,5.049a2.386,2.386,0,0,1-2.138-4.267l10.075-5.049A2.394,2.394,0,0,1,1634.149,1071.381Z" transform="translate(-1619.556 -1070.066)" fill="#ef7e29"/>
        <path id="Trazado_155352" data-name="Trazado 155352" d="M1628.952,1075.514a2.392,2.392,0,0,1-1.063,3.2l-4.879,2.445a2.386,2.386,0,0,1-2.138-4.267l4.878-2.445A2.392,2.392,0,0,1,1628.952,1075.514Z" transform="translate(-1619.556 -1071.594)" fill="#f99746"/>
        <path id="Rectángulo_36795" data-name="Rectángulo 36795" d="M.376,0H11.049a.376.376,0,0,1,.376.376v0a.376.376,0,0,1-.376.376H.376A.376.376,0,0,1,0,.376v0A.376.376,0,0,1,.376,0Z" transform="translate(1.886 5.606) rotate(-26.617)" fill="#ffe2cc" opacity="0.5"/>
      </g>
    </g>
  </g>
</svg>
