<svg xmlns="http://www.w3.org/2000/svg" xmlns:xlink="http://www.w3.org/1999/xlink" width="539.592" height="325.028" viewBox="0 0 539.592 325.028">
  <defs>
    <linearGradient id="linear-gradient" x1="0.5" y1="0.103" x2="0.5" y2="1.202" gradientUnits="objectBoundingBox">
      <stop offset="0" stop-color="#03ff0b"/>
      <stop offset="1" stop-color="#e7feee"/>
    </linearGradient>
    <clipPath id="clip-path">
      <path id="Trazado_149255" data-name="Trazado 149255" d="M-305.184,1214.357a21.57,21.57,0,0,0-21.571,21.571,21.57,21.57,0,0,0,21.571,21.57,21.571,21.571,0,0,0,21.57-21.57A21.571,21.571,0,0,0-305.184,1214.357Zm0,33a11.427,11.427,0,0,1-11.426-11.426,11.427,11.427,0,0,1,11.426-11.427,11.427,11.427,0,0,1,11.426,11.427A11.427,11.427,0,0,1-305.184,1247.354Z" transform="translate(326.755 -1214.357)" fill="none"/>
    </clipPath>
  </defs>
  <g id="Grupo_93413" data-name="Grupo 93413" transform="translate(337.941 -1150)">
    <path id="Trazado_149160" data-name="Trazado 149160" d="M55.419,1260.459c21.972-22.843-85.747-102.34-174.7-109.587-81.9-6.673-190.1,25.63-80.246,73.388C-94.859,1269.766,43.937,1272.4,55.419,1260.459Z" transform="translate(57.399 0)" fill="#e7feee"/>
    <path id="Trazado_149161" data-name="Trazado 149161" d="M-317.125,1218.648c51.3-64.9,159.036,3.65,251.218,20.3s242.122-9.806,241.746,63.231c-.4,77.87-33.652,121.679-216.032,142.6s-265.881-43.559-289.729-112.206C-348.483,1279.139-330.836,1236-317.125,1218.648Z" transform="translate(0 25.782)" fill="#e7feee"/>
    <g id="Grupo_93367" data-name="Grupo 93367" transform="translate(-6.49 1327.33)">
      <path id="Trazado_149162" data-name="Trazado 149162" d="M-92.863,1259.117c-7.529,15.286-16.97,57.052-19.544,59.34s-17.451,11.157-20.025,15.449-1.432,2.86-.286,3.146,65.8.572,65.8.572-7.437-44.342-8.3-44.628S-92.863,1259.117-92.863,1259.117Z" transform="translate(133.989 -1259.117)" fill="#78f291"/>
      <path id="Trazado_149163" data-name="Trazado 149163" d="M-115.27,1337.418c11.873.083,24.4.148,31.3.182l-9.444-56.48c-5.036-9.766-11.152-22-11.152-22-.949,1.927-1.929,4.276-2.92,6.912-.98,42.421,5.129,54.311.54,61.869C-110.526,1333.8-113.794,1336.435-115.27,1337.418Z" transform="translate(145.691 -1259.117)" fill="#69e053"/>
    </g>
    <g id="Grupo_93368" data-name="Grupo 93368" transform="translate(-42.365 1267.972)">
      <path id="Trazado_149164" data-name="Trazado 149164" d="M-69,1247.766c10.739,9.912,34.642,19.312,34.642,19.312s3.631,33.554,1.154,52.552-1.1,22.853-1.1,22.853l-51.614.44s-4.285-9.619-16.394-38.161c-7.71-18.172-6.333-38.549-6.333-38.549l30.011-13.49Z" transform="translate(185.647 -1206.854)" fill="#78f291"/>
      <path id="Trazado_149165" data-name="Trazado 149165" d="M-90.973,1334.687h49.286s-1.376-3.855,1.1-22.853c2.04-15.644-.062-41.155-.868-49.677l-4.482-1.921c-11.252,3.242-17.737,20.027-19.645,36.429-1.276,10.975-19.458,21.777-31.352,27.727A97.424,97.424,0,0,0-90.973,1334.687Z" transform="translate(193.03 -1199.059)" fill="#69e053"/>
      <path id="Trazado_149166" data-name="Trazado 149166" d="M-89.392,1257.06s.463,14.169,2.88,14.018,16.463-17.966,16.463-17.966l-2.387-1.142Z" transform="translate(197.743 -1204.226)" fill="#69e053"/>
      <path id="Trazado_149167" data-name="Trazado 149167" d="M-88.5,1254.918s-3.054,13.035-4.568,12.733S-96.63,1254.1-96.63,1254.1Z" transform="translate(193.219 -1202.897)" fill="#69e053"/>
      <path id="Trazado_149168" data-name="Trazado 149168" d="M-89.712,1253.6l4.2.455,1.617,5.005s-3.694,4.323-3.77,6.067.813,8.264.861,14.178-2.124,29.457-1.138,43.879l.986,14.423-8.444.328s-.455-15.865,0-32.849,5.288-39.959,5.288-39.959l-1.906-5.841Z" transform="translate(193.862 -1203.205)" fill="#ffbf2a"/>
      <path id="Trazado_149169" data-name="Trazado 149169" d="M-99.788,1226.574c-5.942,13.232,1.19,25.49.973,24.974s8.992-22.341,8.992-22.341Z" transform="translate(189.763 -1220.102)" fill="#129a2e"/>
      <path id="Trazado_149170" data-name="Trazado 149170" d="M-81.977,1232.595l7.534,27.54a2.491,2.491,0,0,1-.476,2.231c-1.767,2.178-4.284,6.655-9.359,8.092a12.555,12.555,0,0,1-3.187.358,2.152,2.152,0,0,1-2.124-1.741l-5.048-26.121Z" transform="translate(194.465 -1216.338)" fill="#f09959"/>
      <path id="Trazado_149171" data-name="Trazado 149171" d="M-83.415,1234.011l-2.755,1.13-8.467,6.928,3.249,16.557,1.3,6.6C-82.385,1260.421-79.557,1252.582-83.415,1234.011Z" transform="translate(194.465 -1215.453)" fill="#e38540"/>
      <path id="Trazado_149172" data-name="Trazado 149172" d="M-78.383,1248.186c.007,9.213-5.547,16.469-12.4,16.209s-11.062-5.446-12.426-17.15c-1.069-9.182,1.583-19.868,8.439-19.607S-78.388,1238.975-78.383,1248.186Z" transform="translate(188.961 -1219.44)" fill="#f09959"/>
      <path id="Trazado_149173" data-name="Trazado 149173" d="M-43.256,1259.738c9.972,2.252,11.825,22.507,15.067,43.867.374,2.459,2.29,23.267,2.29,23.267a6.37,6.37,0,0,1-3.624,5.722c-3.26,1.63-4.578,2.862-23.459,3.052-18.135.184-41.516-.572-41.516-.572s-.206-6.747,1.654-10.045c2.8-4.958,31.469-12.08,34.139-12.46.38-5.34-2.634-24.663,1.526-37.763,2.86-9.013,5.935-13.733,9.788-14.968A7.76,7.76,0,0,1-43.256,1259.738Z" transform="translate(194.547 -1199.514)" fill="#78f291"/>
      <path id="Trazado_149174" data-name="Trazado 149174" d="M-88.191,1333.654c8.94.135,21.208.262,31.261.161,18.881-.19,20.2-1.422,23.459-3.052a6.7,6.7,0,0,0,4-5.148s-1.927-22.144-2.288-24.6c-2.1-14.3-4.365-30.673-9.64-38.573a107.84,107.84,0,0,1,5.846,32.038,31.933,31.933,0,0,1-.973,8.825c-.858,2.813-3.052,4.576-6.484,3.622-6.866-1.906-15.449,2.1-15.449,2.1s6.484-2.288,12.587-.19,18.691,16.021,4.96,21.171C-45.112,1331.577-70.282,1332.861-88.191,1333.654Z" transform="translate(198.494 -1197.683)" fill="#69e053"/>
      <path id="Trazado_149175" data-name="Trazado 149175" d="M-91.588,1301.879a9.456,9.456,0,0,1,7.757-4.323c5.213,0,4.832,8.519,4.069,11.316a4.236,4.236,0,0,1-3.814,2.925l-10.5-.266Z" transform="translate(194.815 -1175.728)" fill="#69e053"/>
      <path id="Trazado_149176" data-name="Trazado 149176" d="M-156.064,1308.088h87.6a4.39,4.39,0,0,0-4.391-4.39h-83.214Z" transform="translate(156.064 -1171.889)" fill="#19de68"/>
      <path id="Trazado_149177" data-name="Trazado 149177" d="M-82.712,1301.908c-10.56-4.858-13.546-3.622-15.946-4.55-5.93-2.293-7.58-.9-12.426,9.531-.967,2.078,1.324,2.41,3.6,2.6s5.447-4,6.377-4.432a12.46,12.46,0,0,1,3.359-.479s-.761-.065-2.095,2.118-2.8,2.951-1.03,3.1,2.275-2.74,5.514-1.825,2.577,4,10.838,3.731c7.835-.253,13.69.531,13.978-4.422.273-4.7.993-7-3.384-8.2C-77.287,1298.16-82.712,1301.908-82.712,1301.908Z" transform="translate(184.041 -1176.445)" fill="#f09959"/>
      <path id="Trazado_149178" data-name="Trazado 149178" d="M-93.615,1300.82c7.355-.2,4.443,8.689,3.619,9.385s4.032.613,4.032.613a8.826,8.826,0,0,0,1.03-7.789,7.129,7.129,0,0,0-5.329-4.858l-3.382,1.5Z" transform="translate(195.085 -1175.344)" fill="#a86b48"/>
      <path id="Trazado_149179" data-name="Trazado 149179" d="M-85.951,1299.407c.059,1.131-1.739,2.144-4.016,2.262s-4.168-.7-4.227-1.833,1.739-2.145,4.016-2.262S-86.009,1298.276-85.951,1299.407Z" transform="translate(194.741 -1175.724)" fill="#129a2e"/>
      <path id="Trazado_149180" data-name="Trazado 149180" d="M-86.689,1299.038c.054,1.011-1.554,1.916-3.587,2.021s-3.725-.629-3.778-1.638,1.554-1.916,3.588-2.022S-86.741,1298.029-86.689,1299.038Z" transform="translate(194.828 -1175.832)" fill="#2bab45"/>
      <path id="Trazado_149181" data-name="Trazado 149181" d="M-88.294,1298.68c.037.728-1.12,1.38-2.584,1.456s-2.681-.453-2.719-1.18,1.118-1.38,2.582-1.455S-88.333,1297.953-88.294,1298.68Z" transform="translate(195.114 -1175.767)" fill="#f0d4b6"/>
      <path id="Trazado_149182" data-name="Trazado 149182" d="M-126.416,1300.913c5.43-3.017,12.067-2.012,14.48,1s2.815,5.028-2.615,5.028-16.289.4-18.1.2S-126.416,1300.913-126.416,1300.913Z" transform="translate(170.535 -1174.769)" fill="#f09959"/>
      <path id="Trazado_149183" data-name="Trazado 149183" d="M-124.574,1299.692c5.833-1.408,9.817,1.986,14.682,5.228,4.222,2.816,5.07,5.553.4,3.218-6.837-3.417-10.859-3.821-10.859-3.821Z" transform="translate(175.75 -1174.598)" fill="#f09959"/>
      <path id="Trazado_149184" data-name="Trazado 149184" d="M-122.682,1301.5c-2.946,0-5.516-.939-7.6-.767s-8.662,6.93-7.622,7.449a2.519,2.519,0,0,0,.242.1,3.548,3.548,0,0,0,4.207-1.476c.933-1.495,2.447-3.236,4.212-2.613a18.709,18.709,0,0,0,6.036.939Z" transform="translate(167.35 -1173.758)" fill="#f09959"/>
      <path id="Trazado_149185" data-name="Trazado 149185" d="M-127.923,1309c-3.016-1.206,1.81-11.26,3.419-11.26s7.641,4.827,7.641,4.827-1.419.8-6.234-.8c-1.207-.4-2.212,6.434-3.619,7.238S-127.923,1309-127.923,1309Z" transform="translate(173.049 -1175.615)" fill="#f7c867"/>
      <path id="Trazado_149186" data-name="Trazado 149186" d="M-89.726,1249.9l1.414,7.536-4.131,8.942-4.489-9.478Z" transform="translate(193.03 -1205.519)" fill="#78f291"/>
      <path id="Trazado_149187" data-name="Trazado 149187" d="M-99.787,1255.6c1.737,10.939,5.785,12.1,8.654,13.094s13.6-3.507,14.738-6.5c2.925-7.664-1.8-13.435-.839-13.511s2.311,2.446,5.4,5.475c.289.281,2.277,2.139,2.228,1.407-.665-9.959,3.852-13.924.822-23.563-2.235-7.1-6.743-5.675-6.743-5.675s-4.1-5.533-13.24-3.13c-6.124,1.609-11.212,5.051-17.308,7.88s10.557,14.756,17.88,7.923,5.379,5.6,6.856,6.262.653,0,2.356,5.867-5.161,11.165-7.242,12.078c-6.65,2.919-8.025,1.988-10.03-.349C-97.992,1260.828-99.787,1255.6-99.787,1255.6Z" transform="translate(186.494 -1222.592)" fill="#129a2e"/>
      <path id="Trazado_149188" data-name="Trazado 149188" d="M-82.99,1239.762c-.289,2.893-1.911,5.025-3.621,4.765s-2.17-2.482-2.571-5.707c-.359-2.907,1.913-5.023,3.622-4.763S-82.7,1236.871-82.99,1239.762Z" transform="translate(197.851 -1215.438)" fill="#f09959"/>
      <path id="Trazado_149189" data-name="Trazado 149189" d="M-78.156,1248.143l7.492,6.979s-14.415,13.572-15.661,13.42-3.366-11.525-3.366-11.525Z" transform="translate(197.556 -1206.618)" fill="#78f291"/>
      <path id="Trazado_149190" data-name="Trazado 149190" d="M-86.923,1253.5c-1.383.65-.938,2.621-1.524,3.307s-.936.871-1.409-.084-.395-3.114-.762-3.223-3.146,8.585-3.146,8.585,2.043-5.56,2.508-4.953.1,1.172,1.788,1.272a12.482,12.482,0,0,0,3.843-.613Z" transform="translate(195.01 -1203.271)" fill="#78f291"/>
    </g>
    <g id="Grupo_93369" data-name="Grupo 93369" transform="translate(-67.072 1358.361)">
      <path id="Trazado_149191" data-name="Trazado 149191" d="M-148.414,1324.021h46.793l-19.871-43.715a3.575,3.575,0,0,0-3.254-2.095h-42.325a1.4,1.4,0,0,0-1.269,1.973Z" transform="translate(173.017 -1278.211)" fill="#36ff1e"/>
      <path id="Trazado_149192" data-name="Trazado 149192" d="M-169.87,1278.211h43.185a3.575,3.575,0,0,1,3.254,2.095l19.871,43.715h-47.654l-19.926-43.837A1.4,1.4,0,0,1-169.87,1278.211Z" transform="translate(171.267 -1278.211)" fill="#19de68"/>
      <path id="Trazado_149193" data-name="Trazado 149193" d="M-156.083,1296.851c1.638,3.393,4.3,5.5,5.937,4.711s1.641-4.185,0-7.578-4.3-5.5-5.937-4.713S-157.721,1293.457-156.083,1296.851Z" transform="translate(179.992 -1271.4)" fill="#8ad63b"/>
    </g>
    <g id="Grupo_93372" data-name="Grupo 93372" transform="translate(-255.239 1271.875)">
      <g id="Grupo_93370" data-name="Grupo 93370" transform="translate(40.625 2.404)">
        <path id="Trazado_149194" data-name="Trazado 149194" d="M-257.783,1278.276c-.728,0-1.443-.036-2.145-.071-.58-.029-1.181-.06-1.76-.068a.371.371,0,0,1-.366-.375.371.371,0,0,1,.371-.364c.6.008,1.2.039,1.793.07,4.393.221,8.938.452,13.364-8.059a39.422,39.422,0,0,0,3.583-18.967,31.881,31.881,0,0,0-11.293-23.316.369.369,0,0,1-.046-.52.37.37,0,0,1,.52-.047A32.617,32.617,0,0,1-242.2,1250.4a40.241,40.241,0,0,1-3.666,19.347C-249.778,1277.26-253.935,1278.276-257.783,1278.276Z" transform="translate(262.054 -1226.472)" fill="#1e6022"/>
      </g>
      <g id="Grupo_93371" data-name="Grupo 93371" transform="translate(42.648 7.126)">
        <path id="Trazado_149195" data-name="Trazado 149195" d="M-259.941,1274.714c-.172,0-.343,0-.517-.013a.369.369,0,0,1-.351-.387.37.37,0,0,1,.388-.351c.158.008.319.011.476.011,4.585,0,8.82-3.245,11.68-8.982,4.7-9.434,5.158-24.909-3.258-35.009a.369.369,0,0,1,.047-.52.37.37,0,0,1,.52.047c8.618,10.341,8.16,26.168,3.353,35.81C-250.593,1271.319-255.067,1274.714-259.941,1274.714Z" transform="translate(260.809 -1229.379)" fill="#1e6022"/>
      </g>
      <path id="Trazado_149196" data-name="Trazado 149196" d="M-265.467,1230.33c13.268-10.3,25.728-4.84,30.19,9.1,4.17,13.019-1.173,40.993-20.964,36.119-20.475-5.043-22.182-11.311-22.025-20.421A32.328,32.328,0,0,1-265.467,1230.33Z" transform="translate(292.539 -1224.994)" fill="#1e6022"/>
      <path id="Trazado_149197" data-name="Trazado 149197" d="M-266.874,1253.681l-18.964,7.077s5.308,38.519,5.763,53.228-6.977,27.471-6.977,27.471h49.59s6.824-40.058,5.459-54.161-10.767-28.716-11.222-29.069-11.828-2.93-11.828-2.93Z" transform="translate(287.052 -1207.06)" fill="#78f291"/>
      <path id="Trazado_149198" data-name="Trazado 149198" d="M-250.379,1282.857s1.91,17.9,2.7,18.806,29.906,15.161,29.906,15.161l-42.311,2.885Z" transform="translate(303.911 -1188.82)" fill="#d54a41"/>
      <path id="Trazado_149199" data-name="Trazado 149199" d="M-260.084,1256.479c4.7.1,5.977,7.789,7.084,13.5S-260.084,1256.479-260.084,1256.479Z" transform="translate(303.911 -1205.31)" fill="#d54a41"/>
      <path id="Trazado_149200" data-name="Trazado 149200" d="M-251.73,1288.674c-2.577-9.252-16.429-35.012-16.429-35.012l-18.146,7.108s4.159,30.189,5.43,47.321l6.892,33.379h22.253S-249.151,1297.924-251.73,1288.674Z" transform="translate(287.519 -1207.071)" fill="#f37168"/>
      <path id="Trazado_149201" data-name="Trazado 149201" d="M-280.788,1299.5l20.454-4.7-1.67,17.44Z" transform="translate(290.968 -1181.353)" fill="#d54a41"/>
      <path id="Trazado_149202" data-name="Trazado 149202" d="M-266.645,1326.932c-3.336-4.518-6.6-9.488-3.423-19.867s3.489-14.1,2.376-23.5-6.167-24.416-16.024-24.871c0,0-.325,3.288-.85,8.537,1.6,12.4,4.178,33.576,4.49,43.63.453,14.711-6.977,27.471-6.977,27.471l40.339.887S-263.309,1331.448-266.645,1326.932Z" transform="translate(287.052 -1203.929)" fill="#d54a41"/>
      <path id="Trazado_149203" data-name="Trazado 149203" d="M-245.75,1286.344c-1.364-14.1-10.767-28.716-11.222-29.069-.281-.218-4.732-1.286-8.092-2.069.988,2.33,11.407,27.159,10.973,37.386-.455,10.736.013,47.912.013,47.912h2.868S-244.385,1300.447-245.75,1286.344Z" transform="translate(300.798 -1206.106)" fill="#f37168"/>
    </g>
    <path id="Trazado_149204" data-name="Trazado 149204" d="M-116.133,1339.221c-.509-.249-.951-.439-1.368-.675a3.2,3.2,0,0,1-1.021-.91c-.276-.382-.523-.785-.821-1.237a4.549,4.549,0,0,1-3.319,2.769c.327.135.536.216.743.3a3.763,3.763,0,0,1,2.152,4.6,3.719,3.719,0,0,1-4.17,2.61,3.757,3.757,0,0,1-3.2-3.521,3.778,3.778,0,0,1,2.345-3.7c.189-.076.379-.146.631-.244-.489-.216-.926-.385-1.341-.6a3.215,3.215,0,0,1-1.058-.868c-.294-.375-.544-.783-.83-1.2-.2.092-.229.315-.338.469-.133.187-.252.385-.395.564a3.833,3.833,0,0,1-.426.448,4.407,4.407,0,0,1-.484.384,4,4,0,0,1-.535.312c-.206.1-.424.171-.64.247-.193.068-.39.128-.663.216.265.084.46.141.65.208a3.768,3.768,0,0,1,2.574,3.686,3.785,3.785,0,0,1-3.088,3.564,3.738,3.738,0,0,1-4.1-2.207,3.738,3.738,0,0,1,2.3-5.056c.174-.057.351-.1.632-.182a5.838,5.838,0,0,1-2.241-1.064,4.523,4.523,0,0,1-1.3-1.961c-.271.044-.255.242-.317.372a4.2,4.2,0,0,1-2.9,2.423,3.972,3.972,0,0,1-3.492-.8,4.02,4.02,0,0,1-1.253-1.615c-.06-.135-.05-.33-.278-.385a4.074,4.074,0,0,1-4.448,2.794c-1.763-.176-2.994-1.388-3.544-3.4-.2.093-.192.284-.239.444a3.965,3.965,0,0,1-2.035,2.483,4,4,0,0,1-5.473-1.87c-.141-.312-.247-.639-.371-.965-.229.07-.21.286-.262.442a3.884,3.884,0,0,1-.9,1.528,3.757,3.757,0,0,1-4.1,1.035,3.72,3.72,0,0,1-2.686-3.408,3.8,3.8,0,0,1,1.952-3.754c.154-.1.315-.183.471-.276.016-.01.021-.037.054-.1-.151-.2-.421-.222-.619-.356s-.439-.25-.644-.4a3.9,3.9,0,0,1-.52-.45,5.876,5.876,0,0,1-.484-.579c-.15-.2-.276-.419-.44-.673-.081.07-.161.111-.2.176a4.5,4.5,0,0,1-2.7,2.109.97.97,0,0,0-.156.093c.138.2.371.232.559.313a3.845,3.845,0,0,1,1.858,1.676,3.9,3.9,0,0,1-.423,4.383,3.9,3.9,0,0,1-4.181,1.186,3.853,3.853,0,0,1-2.647-3.583,3.813,3.813,0,0,1,2.327-3.658c.185-.083.371-.169.634-.291a6.961,6.961,0,0,1-1.971-1.053,5.812,5.812,0,0,1-1.222-1.7c-.193-.031-.2.12-.26.2a1.928,1.928,0,0,0-.132.242,4.078,4.078,0,0,1-2.914,2.1,4.067,4.067,0,0,1-4.048-1.5,6.271,6.271,0,0,1-.544-.871c-.08-.135-.146-.276-.213-.4-.2-.008-.182.146-.236.231s-.081.166-.122.247a3.963,3.963,0,0,1-1.638,1.718,4.086,4.086,0,0,1-5.948-2.485c-.054-.2-.1-.4-.146-.6-.224.054-.179.244-.211.384a3.8,3.8,0,0,1-2.205,2.737,3.782,3.782,0,0,1-4.089-.45,3.751,3.751,0,0,1-1.487-3.77,3.809,3.809,0,0,1,2.095-2.9c.141-.073.283-.149.423-.226.02-.01.029-.034.046-.052a5.455,5.455,0,0,1-2.787-2.485c-.228.167-.3.45-.483.644s-.354.422-.556.608a4.342,4.342,0,0,1-.658.494,5.117,5.117,0,0,1-.738.364c-.244.1-.5.169-.881.292.332.127.535.207.739.281a3.772,3.772,0,0,1,2.106,1.877,3.807,3.807,0,0,1-.559,4.3,3.863,3.863,0,0,1-4.146,1.074,3.824,3.824,0,0,1-2.59-3.488,3.824,3.824,0,0,1,2.251-3.647c.286-.127.585-.228.921-.356-.122-.188-.3-.156-.434-.211-.148-.063-.306-.1-.453-.163a4.244,4.244,0,0,1-.439-.2,3.388,3.388,0,0,1-.408-.255c-.148-.107-.291-.221-.429-.343-.119-.107-.231-.223-.338-.341a3.886,3.886,0,0,1-.3-.375,4.057,4.057,0,0,1-.249-.413c-.076-.141-.143-.288-.213-.432s-.128-.27-.226-.478c-.236.325-.284.653-.465.908a6.874,6.874,0,0,1-.575.769,4.154,4.154,0,0,1-.731.621,4.037,4.037,0,0,1-.86.427,4.1,4.1,0,0,1-.938.2,4.729,4.729,0,0,1-.96-.008,3.874,3.874,0,0,1-2.316-1.1,4.8,4.8,0,0,1-1.23-2.283c-.1.27-.171.457-.234.647a3.924,3.924,0,0,1-4.209,2.623,3.952,3.952,0,0,1-3.406-3.374,3.933,3.933,0,0,1,2.127-4.05c.164-.081.325-.167.486-.253.015-.008.016-.039.041-.109-.224-.164-.514-.234-.756-.384a5.785,5.785,0,0,1-.684-.458,4.631,4.631,0,0,1-.631-.631,4.442,4.442,0,0,1-.455-.687c-.141-.258-.252-.535-.39-.833a1.573,1.573,0,0,0-.351.6,4.178,4.178,0,0,1-2.352,2.1,4.047,4.047,0,0,1-4.554-1.386,3.966,3.966,0,0,1-.418-4.286,1.734,1.734,0,0,1,.137-.237,2.252,2.252,0,0,1,.156-.192,20.716,20.716,0,0,1,2.233-.039c.735-.011,1.469,0,2.2,0h2.295l.631,1.136c.2-.4.366-.743.54-1.092.163-.016.3-.041.432-.041q3.167,0,6.333,0c.375,0,.375.007.733.263a.868.868,0,0,1,.731-.263c.182,0,.366,0,.549,0H17.579c.184,0,.367,0,.551,0a.869.869,0,0,1,.73.258c.374-.249.374-.257.671-.257q3.34,0,6.679,0a2.222,2.222,0,0,1,.242.034l.471.759c.184-.283.343-.528.5-.778h6.778a3.732,3.732,0,0,1,.715,1.726c.182.041.171-.083.184-.158a3.918,3.918,0,0,1,.642-1.529,8.677,8.677,0,0,1,1.632-.055c.528-.013,1.056,0,1.585,0h3.192a3.845,3.845,0,0,1,.276,4.246,3.983,3.983,0,0,1-3.822,1.967c-1.8-.2-2.958-1.3-3.575-3.4-.189.029-.164.192-.189.317a3.99,3.99,0,0,1-1.337,2.269,3.81,3.81,0,0,1-1.237.731c-.276.1-.553.188-.928.317.319.114.548.2.78.279a3.526,3.526,0,0,1,1.833,1.388,3.66,3.66,0,0,1,.2,4.092,3.611,3.611,0,0,1-3.544,1.937,3.653,3.653,0,0,1-3.328-2.4,3.8,3.8,0,0,1,2.22-5.01c.232-.08.46-.171.731-.273-1.3-.592-1.7-.26-3.32-2.631-.884,1.313-.609,1.416-2.789,2.683.153.089.28.174.414.242a3.9,3.9,0,0,1,2.213,3.192,3.968,3.968,0,0,1-7.692,1.7c-.086-.234-.159-.475-.268-.8a4.094,4.094,0,0,0-.171.421,4.247,4.247,0,0,1-1,1.859,4.108,4.108,0,0,1-6.609-.849c-.115-.214-.224-.431-.377-.725a6.064,6.064,0,0,1-1.276,1.937,5.08,5.08,0,0,1-1.96,1.046c-.023.163.07.189.154.219a4.629,4.629,0,0,1,1.222.621,3.88,3.88,0,0,1-2.249,6.993,3.883,3.883,0,0,1-1.586-7.459c.19-.078.382-.153.561-.223.033-.138-.044-.176-.137-.2a4.74,4.74,0,0,1-1.367-.632,4.283,4.283,0,0,1-1.142-1.177c-.086-.129-.187-.246-.307-.4a6.066,6.066,0,0,1-1.2,1.458c-.478.344-.991.639-1.485.952a4.207,4.207,0,0,1,2.465,4.715,4.1,4.1,0,0,1-3.436,3.055,3.978,3.978,0,0,1-1.96-.25,4.013,4.013,0,0,1-1.645-1.212,4.1,4.1,0,0,1-.819-1.773c-.286.084-.237.281-.281.419a4.1,4.1,0,0,1-1.983,2.452,4.12,4.12,0,0,1-5.618-1.706c-.093-.179-.179-.359-.267-.536-.309.479-.582.956-.907,1.395a3.086,3.086,0,0,1-1.227.978c-.5.223-1.027.379-1.572.574.067.122.211.1.32.124a3.965,3.965,0,0,1,2.446,1.659,3.813,3.813,0,0,1-1.71,5.6,3.8,3.8,0,0,1-4.862-1.8,3.768,3.768,0,0,1,1.472-4.971,11.879,11.879,0,0,1,1.489-.613,1.276,1.276,0,0,0-.258-.112,4.272,4.272,0,0,1-3.132-2.347,1.6,1.6,0,0,0-.2-.241,6.764,6.764,0,0,1-1.229,1.682,5.664,5.664,0,0,1-1.815,1c.075.224.267.254.419.318a3.589,3.589,0,0,1,1.334.951,3.727,3.727,0,0,1,.725,4.1,3.681,3.681,0,0,1-3.455,2.418,3.707,3.707,0,0,1-3.626-2.165,3.854,3.854,0,0,1,1.825-5.241c.184-.086.366-.177.608-.294a2.608,2.608,0,0,0-.683-.343c-.2-.112-.418-.2-.609-.318a4.978,4.978,0,0,1-.6-.455,4.561,4.561,0,0,1-.471-.5c-.159-.192-.3-.4-.479-.635-.27.2-.356.5-.551.707a8.313,8.313,0,0,1-.626.637,5.028,5.028,0,0,1-.671.478c-.249.151-.514.276-.749.4,0,.2.119.231.216.28a3.892,3.892,0,0,1,2.212,3.268,3.681,3.681,0,0,1-.9,2.81,3.774,3.774,0,0,1-4.084,1.31,3.78,3.78,0,0,1-2.873-3.1A3.935,3.935,0,0,1-36,1331.487c.169-.1.4-.124.5-.38-.317-.171-.647-.322-.944-.519a5.191,5.191,0,0,1-.8-.644c-.258-.254-.478-.549-.731-.848a14.625,14.625,0,0,1-1.113,1.206,14.234,14.234,0,0,1-1.334.918c.124.1.236.2.359.278a3.982,3.982,0,0,1,1.747,2.306,3.831,3.831,0,0,1-1.2,4.121,4,4,0,0,1-6.4-1.485c-.1-.249-.19-.5-.3-.79a1.47,1.47,0,0,0-.3.65,3.992,3.992,0,0,1-3.436,2.694,4.068,4.068,0,0,1-4.017-2.116c-.119-.221-.224-.45-.364-.733-.091.156-.166.26-.216.374a4.183,4.183,0,0,1-3.281,2.543,3.946,3.946,0,0,1-3.154-.879,3.935,3.935,0,0,1-1.212-1.562c-.063-.143-.132-.284-.229-.5a2.244,2.244,0,0,0-.2.307,4.285,4.285,0,0,1-2.928,2.6c-.13.037-.257.088-.458.157.25.081.436.141.619.2a3.753,3.753,0,0,1,2.438,4.568,3.763,3.763,0,0,1-3.14,2.722,3.739,3.739,0,0,1-3.761-1.9,3.747,3.747,0,0,1,2.163-5.413c.174-.055.349-.1.562-.164-.5-.193-.977-.345-1.422-.554a3.2,3.2,0,0,1-1.131-.885c-.312-.387-.585-.8-.879-1.216a5.036,5.036,0,0,1-3.166,2.66c.258.114.488.208.712.312a3.767,3.767,0,0,1,2.137,4.079,3.747,3.747,0,0,1-3.317,3.11,3.757,3.757,0,0,1-3.943-2.377,3.769,3.769,0,0,1,1.927-4.809c.223-.1.449-.2.709-.317a5.05,5.05,0,0,1-3.187-2.722c-.936,1.531-1,1.754-3.083,2.729.211.1.39.193.57.278a3.735,3.735,0,0,1,2.066,2.36,3.817,3.817,0,0,1-2.876,4.833,3.807,3.807,0,0,1-4.559-3.3,3.794,3.794,0,0,1,1.927-3.751c.258-.14.53-.257.865-.418-.315-.2-.626-.257-.887-.409a6.754,6.754,0,0,1-.863-.559,4.716,4.716,0,0,1-.666-.692c-.2-.247-.361-.522-.523-.762-.158-.047-.2.052-.241.125a4.539,4.539,0,0,1-2.506,2.14c-.083.031-.161.075-.31.145.232.119.406.213.587.3a3.722,3.722,0,0,1,1.817,1.807,3.824,3.824,0,0,1-2.623,5.379,3.831,3.831,0,0,1-4.635-3.439,3.85,3.85,0,0,1,2.057-3.691,1.844,1.844,0,0,0,.678-.38,6.174,6.174,0,0,1-1.809-1.019,7.989,7.989,0,0,1-1.219-1.619,6.3,6.3,0,0,1-1.207,1.641,5.641,5.641,0,0,1-1.739.969c.072.276.325.259.489.336a3.725,3.725,0,0,1,1.908,1.992,3.836,3.836,0,0,1-2.751,5.223,3.81,3.81,0,0,1-4.585-3.642,3.64,3.64,0,0,1,2.043-3.488c.216-.119.447-.213.733-.348a12.124,12.124,0,0,1-1.255-.634,4.955,4.955,0,0,1-.982-.852,11.462,11.462,0,0,1-.808-1.157c-.226.159-.265.45-.423.652-.169.218-.322.449-.51.648a4.462,4.462,0,0,1-.619.541,5.332,5.332,0,0,1-.707.423c-.237.124-.488.219-.808.361.249.124.427.211.608.3a3.719,3.719,0,0,1,2.165,3.059,3.83,3.83,0,0,1-2.914,4.112,3.794,3.794,0,0,1-4.689-3.5,3.642,3.642,0,0,1,1.936-3.548c.234-.136.486-.244.735-.367-.024-.2-.2-.172-.3-.231-.138-.08-.294-.127-.439-.2a3.953,3.953,0,0,1-.367-.192,3.407,3.407,0,0,1-.34-.234c-.125-.1-.249-.2-.367-.31a4.111,4.111,0,0,1-.289-.294,3.458,3.458,0,0,1-.262-.319c-.093-.132-.172-.271-.258-.406-.073-.114-.15-.226-.249-.375-.245.177-.327.447-.486.653a5.684,5.684,0,0,1-.484.579,4.916,4.916,0,0,1-.634.527,4.575,4.575,0,0,1-.653.375c-.247.12-.507.211-.764.317.044.218.234.2.366.254a3.709,3.709,0,0,1,1.929,1.687,3.656,3.656,0,0,1-.089,3.861,3.575,3.575,0,0,1-3.421,1.781,3.763,3.763,0,0,1-3.517-4.55,3.669,3.669,0,0,1,2.031-2.63C-116.664,1339.447-116.432,1339.354-116.133,1339.221Zm132.616-24.408c.912.845,1.331.578,2.314,3.158.111-.306.2-.587.31-.853a4.2,4.2,0,0,1,.951-1.414,5.96,5.96,0,0,1,.648-.507c.228-.171.546-.208.736-.444a12.9,12.9,0,0,1-1.454-.957,12.688,12.688,0,0,1-1.157-1.29c-.21.307-.392.622-.621.9a5.841,5.841,0,0,1-.778.774C17.15,1314.4,16.83,1314.583,16.483,1314.813Zm-236.016-.055a4.819,4.819,0,0,1,1.861,1.2,5.215,5.215,0,0,1,.983,1.936.462.462,0,0,0,.065-.08c.031-.086.062-.172.086-.26a4.02,4.02,0,0,1,2.023-2.561.823.823,0,0,0,.167-.171,12.839,12.839,0,0,1-1.341-.993,13.419,13.419,0,0,1-1.081-1.291A5.532,5.532,0,0,1-219.533,1314.757Zm27.169,11.581c.595-1.724.444-1.83,2.291-3.333a13.871,13.871,0,0,1-1.318-.954,13.09,13.09,0,0,1-1.047-1.194,12.287,12.287,0,0,1-1.162,1.193,13.462,13.462,0,0,1-1.458.894,10.091,10.091,0,0,1,.957.566,4.209,4.209,0,0,1,.8.749,4.828,4.828,0,0,1,.593,1A9.564,9.564,0,0,1-192.364,1326.338Zm32.448,2.791c-.2.247-.371.465-.556.663a4.7,4.7,0,0,1-.554.512c-.216.164-.462.292-.687.449s-.5.177-.723.421c.18.1.323.169.45.259a9.311,9.311,0,0,1,.931.691,3.6,3.6,0,0,1,.977,1.552c.062.177.042.417.284.517a1.465,1.465,0,0,0,.085-.19,4.125,4.125,0,0,1,2.041-2.636c.065-.037.1-.12.159-.187a13.129,13.129,0,0,1-1.277-.863A15.794,15.794,0,0,1-159.916,1329.129Zm154.281-3.114c.993-2.423,1.443-2.27,2.6-3.08a12.421,12.421,0,0,1-1.336-.825,14.4,14.4,0,0,1-1.181-1.177c-.215.274-.4.557-.634.8a6.962,6.962,0,0,1-.814.735c-.265.2-.561.369-.855.559A4.93,4.93,0,0,1-5.635,1326.015Zm-143.89,5.236a14.762,14.762,0,0,1-1.243-.878,14.528,14.528,0,0,1-1.014-1.064,13.922,13.922,0,0,1-1.045,1.039c-.384.312-.824.554-1.268.847a1.455,1.455,0,0,0,.21.184,4.026,4.026,0,0,1,2.02,2.643,1.187,1.187,0,0,0,.167.284c.119-.353.2-.663.328-.954a4.117,4.117,0,0,1,.429-.777,4.919,4.919,0,0,1,.637-.713C-150.074,1331.647-149.811,1331.472-149.525,1331.251Zm103.325-1.869a1.277,1.277,0,0,0-.2.172,5.293,5.293,0,0,1-1.814,1.551c-.065.034-.1.124-.15.187a4.513,4.513,0,0,1,2.014,2.737,2.886,2.886,0,0,0,.14.266,5.388,5.388,0,0,1,.808-1.805,6.432,6.432,0,0,1,1.466-1.266c-.437-.286-.86-.515-1.227-.812A14.369,14.369,0,0,1-46.2,1329.382Zm-162.384-11.948a5.535,5.535,0,0,1,1.875-2.524c-.258-.192-.523-.369-.765-.572-.226-.192-.427-.414-.644-.617s-.332-.531-.609-.728c-.093.1-.156.167-.21.237a4.882,4.882,0,0,1-1.674,1.4c-.091.045-.223.076-.2.228A4.892,4.892,0,0,1-208.584,1317.434Zm64.894,16.3c.106-.11.169-.149.19-.2a4.347,4.347,0,0,1,1.622-2.07.835.835,0,0,0,.145-.2c-.371-.26-.725-.475-1.037-.736s-.611-.593-.876-.855c-.234.207-.436.392-.647.566-.229.187-.462.372-.7.543-.215.154-.444.288-.676.437.419.379.822.708,1.183,1.079A3.976,3.976,0,0,1-143.691,1333.737Zm-40.643-12.354c-.226.228-.424.445-.642.64s-.427.342-.642.509a5.634,5.634,0,0,0-.764.5c.26.185.486.332.692.5a4.182,4.182,0,0,1,.543.519,5.315,5.315,0,0,1,.476.665c.138.223.25.462.4.74a12.815,12.815,0,0,1,.821-1.316,12.867,12.867,0,0,1,1.076-1.068c-.34-.244-.7-.471-1.025-.749S-184.007,1321.715-184.334,1321.383ZM12.8,1314.8a5.408,5.408,0,0,1-2.012-1.68c-.223.27-.4.5-.6.718a7.328,7.328,0,0,1-.595.572c-.223.188-.462.358-.7.536a13.106,13.106,0,0,1,.995,1.081,12.767,12.767,0,0,1,.726,1.237A5.444,5.444,0,0,1,12.8,1314.8Zm-67.079,14.9c-.323.312-.6.615-.918.876s-.653.476-.986.715a13.379,13.379,0,0,1,1.079,1.1,11.9,11.9,0,0,1,.757,1.241,12.538,12.538,0,0,1,.865-1.341,11.9,11.9,0,0,1,1.139-1.063c-.371-.247-.73-.452-1.05-.707S-53.993,1329.972-54.28,1329.7Zm38.756-6.6c.268.242.52.437.731.668a6.432,6.432,0,0,1,.627.809c.167.255.293.538.462.855.143-.284.241-.517.371-.728a5.223,5.223,0,0,1,.478-.666c.163-.189.366-.342.54-.522s.483-.236.6-.489c-.063-.068-.086-.112-.124-.132a5.26,5.26,0,0,1-1.611-1.251.924.924,0,0,0-.236-.138A6.35,6.35,0,0,1-15.524,1323.1Zm-119.987,10.645c.179-.366.294-.662.46-.928a6.273,6.273,0,0,1,.616-.821c.208-.234.453-.434.71-.673-.348-.257-.673-.468-.964-.717-.307-.263-.582-.561-.881-.853-.309.291-.577.574-.876.817s-.653.471-.988.71A5.662,5.662,0,0,1-135.511,1333.747Zm74.935-2.444c-.349-.247-.676-.452-.972-.694s-.59-.546-.9-.837c-.307.309-.567.6-.858.853s-.6.46-.917.694a12.325,12.325,0,0,1,1.017,1.073,13.717,13.717,0,0,1,.78,1.308c.171-.336.3-.652.479-.938a4.9,4.9,0,0,1,.59-.754C-61.124,1331.764-60.857,1331.555-60.576,1331.3Zm-117.405-8.235a12.32,12.32,0,0,1,1,.96,14.46,14.46,0,0,1,.829,1.208c.232-.382.416-.746.658-1.068.257-.343.569-.645.882-.995-.291-.232-.582-.445-.852-.684s-.515-.5-.8-.783c-.293.263-.549.517-.832.739S-177.679,1322.86-177.981,1323.068Zm156.22-1.266-1.568,1.383c.213.214.418.4.595.6s.33.439.5.657.19.509.5.723a5.112,5.112,0,0,1,1.63-2.028C-20.671,1322.685-21.2,1322.259-21.761,1321.8Zm-99.23,9.561a4.967,4.967,0,0,1,1.661,2.1c.254-.408.444-.774.691-1.1.258-.34.569-.639.886-.988-.288-.224-.544-.442-.821-.634-.293-.207-.471-.549-.809-.71-.267.242-.5.467-.739.67C-120.383,1330.916-120.657,1331.111-120.991,1331.363Zm-6.423-1.385c-.312.278-.561.515-.827.731s-.536.4-.782.583c.309.333.608.618.861.939s.488.708.754,1.1c.237-.362.434-.721.686-1.037.268-.336.59-.63.92-.977-.288-.216-.566-.408-.826-.624S-127.13,1330.24-127.413,1329.979Zm56.888.073-1.572,1.313c.283.3.585.577.837.9s.455.679.71,1.069c.221-.237.3-.538.481-.762s.353-.421.525-.634.483-.336.611-.613Zm-8.179,3.38c.267-.419.5-.785.726-1.147s.637-.569.866-.962c-.281-.211-.543-.393-.79-.595s-.507-.446-.765-.675c-.263.249-.5.462-.726.689s-.579.353-.8.669A5.365,5.365,0,0,1-78.7,1333.432Zm-24.366-.14c.221-.351.406-.692.64-.995.249-.32.546-.6.855-.938-.278-.218-.531-.4-.772-.606s-.471-.429-.725-.66c-.252.229-.481.449-.725.653s-.494.392-.775.611c.288.314.569.58.8.883C-103.52,1332.564-103.314,1332.922-103.07,1333.292Zm9.67-1.926-1.526-1.251c-.267.242-.514.447-.735.674s-.556.3-.715.6c.289.315.57.585.806.889s.423.64.665,1.012c.228-.349.414-.686.648-.983C-94.005,1331.985-93.709,1331.7-93.4,1331.366Zm-16.334.015-1.44-1.181-1.466,1.2c.2.2.385.372.549.556s.322.387.475.587.216.442.465.613A6.47,6.47,0,0,1-109.735,1331.381Zm-92.386-16.438c.218.187.429.354.621.543s.332.375.505.556.25.478.475.629l1.3-1.666c-.219-.19-.444-.413-.7-.6s-.4-.559-.731-.662Zm115.31,18.252c.268-.39.471-.687.676-.983.216-.312.569-.509.77-.868-.262-.2-.492-.382-.735-.549s-.41-.486-.713-.583l-1.414,1.165A6.306,6.306,0,0,1-86.811,1333.195ZM2.6,1316.636a5.492,5.492,0,0,1,1.414-1.67c-.265-.2-.491-.388-.731-.558s-.388-.444-.694-.567c-.385.475-.886.8-1.255,1.211C1.75,1315.572,2.135,1316.053,2.6,1316.636ZM-168,1324.8c.411-.54.8-1.045,1.2-1.57l-1.274-1.108-1.279,1.042C-168.9,1323.717-168.464,1324.242-168,1324.8Zm138.176-2.607-1.185,1.027,1.118,1.424c.21-.275.4-.525.592-.77s.512-.431.671-.738C-29.038,1322.813-29.411,1322.519-29.827,1322.191Zm-162.6-5.852c.275-.375.541-.736.822-1.12a6.384,6.384,0,0,0-1.086-.943c-.278.3-.658.44-.847.775Zm155.42,6.908a3.97,3.97,0,0,0-.939-.762c-.18.159-.341.286-.484.431s-.369.2-.385.455c.2.267.4.54.616.806a1.984,1.984,0,0,0,.241.216ZM-5.38,1314.3a5.179,5.179,0,0,0-.925.923c.143.187.271.348.395.512s.232.319.379.518c.193-.232.358-.417.507-.614s.406-.351.544-.627Zm-155.484,8.94.973,1.133a9.572,9.572,0,0,0,.829-1.054,4.034,4.034,0,0,0-.985-.752Zm9.18-.6a3.178,3.178,0,0,0-.821.752c.263.25.429.571.738.827a5.588,5.588,0,0,0,.741-1.012Zm105.451,1.492a2.957,2.957,0,0,0,.718-.832,2.829,2.829,0,0,0-.759-.618,1.7,1.7,0,0,0-.67.583Zm-97.471-.237a2.767,2.767,0,0,0,.65-.814l-.289-.177-.3-.181-.588.527Zm7.641-.713a1.211,1.211,0,0,0,.53.538,2.341,2.341,0,0,0,.54-.663l-.489-.4A1.709,1.709,0,0,0-136.062,1323.184Zm-48.148-8.5-.624.536.473.531a1.513,1.513,0,0,0,.595-.719Zm129.842,8.019c-.172.146-.293.244-.4.351-.028.024-.024.081-.05.177.174.156.281.41.531.552a1.054,1.054,0,0,0,.484-.6C-53.978,1323.041-54.147,1322.9-54.368,1322.706Zm-7.581.478a1.006,1.006,0,0,0-.514-.5.753.753,0,0,0-.489.461l.475.54C-62.2,1323.606-62.107,1323.387-61.949,1323.184Zm48.77-7.989-.533-.462a.426.426,0,0,0-.411.366c.158.167.254.406.52.531Zm-163.388-.073.323.343.514-.611-.27-.234A.959.959,0,0,0-176.567,1315.121Zm57.371,7.5c-.286.185-.494.254-.51.533l.332.291a.676.676,0,0,0,.431-.559Zm-8.264.889c.237-.128.388-.249.429-.5l-.369-.292-.414.382Zm49.2-.483-.408-.364c-.176.1-.345.164-.336.439l.374.344Zm8.072.1c-.371-.462-.4-.463-.712-.046l.38.4C-70.39,1323.343-70.289,1323.232-70.19,1323.127Zm48.431-7.728c.323-.361.323-.434.065-.644-.174-.142-.232-.122-.475.19Zm-81.281,7.277c-.2.08-.359.164-.356.423l.343.3.361-.393Zm7.762.338c.133.138.237.247.338.353.379-.268.424-.348.3-.5C-94.818,1322.651-94.93,1322.669-95.279,1323.015Zm-15.887-.319c-.112.145-.226.231-.239.332-.008.068.111.18.2.226s.3-.107.278-.215S-111.059,1322.846-111.167,1322.7Zm24.445.561a.849.849,0,0,0,.169-.271c.026-.107-.182-.26-.281-.208a.425.425,0,0,0-.193.235C-87.059,1323.137-86.9,1323.271-86.721,1323.257Zm-81.177-8.579a.447.447,0,0,0-.094.018c-.1.055-.184.122-.141.255a.063.063,0,0,0,.049.036c.133,0,.192-.08.213-.2C-167.868,1314.769-167.881,1314.746-167.9,1314.678Zm-57.1,3.91a3.783,3.783,0,0,0-3.782-3.847,3.813,3.813,0,0,0-3.811,3.813,3.789,3.789,0,0,0,3.778,3.818A3.787,3.787,0,0,0-225,1318.588Zm48.6,16.4a3.774,3.774,0,0,0-3.749-3.848,3.776,3.776,0,0,0-3.8,3.8,3.79,3.79,0,0,0,3.752,3.773A3.788,3.788,0,0,0-176.4,1334.984Zm191-12a3.753,3.753,0,0,0-.013,7.505,3.753,3.753,0,1,0,.013-7.505Zm-227.185.034a3.709,3.709,0,0,0-3.735,3.764,3.722,3.722,0,0,0,3.749,3.681,3.7,3.7,0,0,0,3.692-3.73A3.68,3.68,0,0,0-212.58,1323.023Zm154.2,16.22a3.713,3.713,0,0,0-3.73,3.7,3.719,3.719,0,0,0,3.7,3.731,3.718,3.718,0,0,0,3.728-3.7A3.712,3.712,0,0,0-58.377,1339.243Zm48.649-8.033a3.681,3.681,0,0,0-3.754,3.673,3.682,3.682,0,0,0,3.673,3.755,3.676,3.676,0,0,0,3.749-3.674A3.669,3.669,0,0,0-9.729,1331.21Zm-133.556,11.777a3.66,3.66,0,0,0,3.751,3.669,3.648,3.648,0,0,0,3.65-3.7,3.667,3.667,0,0,0-3.712-3.708A3.675,3.675,0,0,0-143.284,1342.988Zm-44.88-11.753a3.639,3.639,0,0,0-3.733,3.7,3.641,3.641,0,0,0,3.681,3.683,3.672,3.672,0,0,0,3.7-3.665A3.669,3.669,0,0,0-188.164,1331.235ZM35.32,1318.573A3.677,3.677,0,1,0,39,1314.891,3.627,3.627,0,0,0,35.32,1318.573Zm-82.027,24.418a3.626,3.626,0,0,0-3.657-3.689,3.635,3.635,0,0,0-3.648,3.622,3.631,3.631,0,0,0,3.652,3.684A3.629,3.629,0,0,0-46.707,1342.991Zm-97.261.015a3.641,3.641,0,0,0-3.645-3.694,3.624,3.624,0,0,0-3.634,3.632,3.6,3.6,0,0,0,3.6,3.65A3.623,3.623,0,0,0-143.968,1343.006Zm-93.03-28.05a3.584,3.584,0,0,0-3.6,3.642,3.6,3.6,0,0,0,3.65,3.6,3.588,3.588,0,0,0,3.6-3.648A3.573,3.573,0,0,0-237,1314.956Zm259.808,8.179a3.611,3.611,0,1,0,3.611,3.644A3.6,3.6,0,0,0,22.81,1323.135Zm-262.381-9.668a3.923,3.923,0,0,0,5.259-.052,3.852,3.852,0,0,0,.514-5.1c-.522-.073-5.4-.094-6.341-.026A3.867,3.867,0,0,0-239.571,1313.467ZM-38.576,1343a3.6,3.6,0,0,0-3.614-3.637,3.559,3.559,0,0,0-3.58,3.587,3.57,3.57,0,0,0,3.566,3.6A3.609,3.609,0,0,0-38.576,1343Zm37.032-11.67a3.606,3.606,0,0,0-3.655,3.53,3.609,3.609,0,0,0,3.593,3.66,3.6,3.6,0,0,0,3.614-3.565A3.594,3.594,0,0,0-1.544,1331.331Zm-154.226,15.218a3.6,3.6,0,0,0,3.582-3.6,3.592,3.592,0,0,0-3.609-3.573,3.563,3.563,0,0,0-3.567,3.6A3.573,3.573,0,0,0-155.77,1346.548Zm-61.258-19.8a3.589,3.589,0,0,0-3.592-3.585,3.574,3.574,0,0,0-3.585,3.588,3.548,3.548,0,0,0,3.587,3.575A3.567,3.567,0,0,0-217.028,1326.744Zm20.638,11.753a3.572,3.572,0,0,0,3.59-3.579,3.563,3.563,0,0,0-3.531-3.564,3.547,3.547,0,0,0-3.618,3.541A3.555,3.555,0,0,0-196.391,1338.5Zm162.345.934a3.487,3.487,0,0,0-3.5,3.512,3.537,3.537,0,0,0,3.538,3.551,3.542,3.542,0,0,0,3.538-3.556A3.5,3.5,0,0,0-34.046,1339.432Zm-129.737.013a3.476,3.476,0,0,0-3.557,3.509,3.522,3.522,0,0,0,3.479,3.525,3.531,3.531,0,0,0,3.562-3.517A3.476,3.476,0,0,0-163.782,1339.445Zm214.34-20.734a3.518,3.518,0,0,0-3.418-3.652,3.515,3.515,0,0,0-.206,7.027A3.533,3.533,0,0,0,50.558,1318.711Zm-6.119-5.413a3.782,3.782,0,0,0,5.137.052,3.735,3.735,0,0,0,.486-5.04c-.57-.076-5.467-.076-6.042,0A3.684,3.684,0,0,0,44.439,1313.3ZM6.451,1331.443a3.482,3.482,0,1,0,3.468,3.507A3.465,3.465,0,0,0,6.451,1331.443Zm-254.036-18.17a3.762,3.762,0,0,0,5.222-.062,3.645,3.645,0,0,0,.284-4.936h-5.865A3.691,3.691,0,0,0-247.584,1313.272Zm281.9,13.437a3.483,3.483,0,0,0-6.965.041,3.483,3.483,0,1,0,6.965-.041ZM-245,1315.107a3.481,3.481,0,0,0-3.476,3.494,3.518,3.518,0,0,0,3.46,3.452,3.508,3.508,0,0,0,3.476-3.5A3.476,3.476,0,0,0-245,1315.107Zm40.58,16.359a3.444,3.444,0,0,0-3.455,3.46,3.454,3.454,0,0,0,3.46,3.461,3.458,3.458,0,0,0,3.452-3.465A3.451,3.451,0,0,0-204.416,1331.466Zm178.445,8.054a3.44,3.44,0,0,0-3.462,3.379,3.479,3.479,0,0,0,3.411,3.513,3.443,3.443,0,0,0,3.483-3.427A3.4,3.4,0,0,0-25.97,1339.52ZM-172,1346.4a3.415,3.415,0,0,0,3.447-3.395,3.414,3.414,0,0,0-3.359-3.476,3.418,3.418,0,0,0-3.514,3.388A3.419,3.419,0,0,0-172,1346.4Zm-53.349-19.636a3.436,3.436,0,0,0-3.447-3.466,3.447,3.447,0,0,0-3.44,3.4,3.42,3.42,0,0,0,3.41,3.491A3.4,3.4,0,0,0-225.352,1326.761ZM51.98,1312.174a3.461,3.461,0,0,0,3.286,1.981,3.619,3.619,0,0,0,3.083-5.443.82.82,0,0,0-.824-.465c-1.58.018-3.158.007-4.737.008-.112,0-.226.011-.371.018A3.547,3.547,0,0,0,51.98,1312.174Zm-69.8,27.424a3.327,3.327,0,0,0-3.336,3.385,3.334,3.334,0,0,0,3.388,3.333,3.353,3.353,0,0,0,3.336-3.385A3.35,3.35,0,0,0-17.823,1339.6Zm32.457-8.028a3.356,3.356,0,1,0,3.323,3.336A3.356,3.356,0,0,0,14.634,1331.569Zm37.238-13.014a3.336,3.336,0,1,0,6.671,0,3.336,3.336,0,0,0-6.671,0Zm-307.569-5.479a3.541,3.541,0,0,0,4.965.063,3.519,3.519,0,0,0,.276-4.861H-255.9A3.474,3.474,0,0,0-255.7,1313.077Zm72.194,29.838a3.334,3.334,0,0,0,3.271,3.379,3.344,3.344,0,0,0,3.4-3.327,3.313,3.313,0,0,0-3.31-3.336A3.305,3.305,0,0,0-183.5,1342.915Zm-29.066-11.317a3.334,3.334,0,0,0-3.348,3.305,3.342,3.342,0,0,0,3.306,3.351,3.306,3.306,0,0,0,3.335-3.309A3.294,3.294,0,0,0-212.569,1331.6Zm254.889-4.84a3.325,3.325,0,1,0-3.332,3.309A3.309,3.309,0,0,0,42.32,1326.758Zm-129.8,24.387a3.326,3.326,0,0,0-3.309-3.34,3.3,3.3,0,0,0-3.327,3.309,3.263,3.263,0,0,0,3.294,3.328A3.3,3.3,0,0,0-87.483,1351.144Zm-8.184.015a3.344,3.344,0,0,0-3.289-3.359,3.33,3.33,0,0,0-3.351,3.3,3.282,3.282,0,0,0,3.291,3.343A3.285,3.285,0,0,0-95.668,1351.159Zm16.209-.068a3.33,3.33,0,0,0-3.3-3.278,3.318,3.318,0,0,0-3.327,3.32,3.284,3.284,0,0,0,3.335,3.3A3.288,3.288,0,0,0-79.458,1351.091Zm-24.385.032a3.325,3.325,0,0,0-3.338-3.31,3.29,3.29,0,0,0-3.278,3.288,3.248,3.248,0,0,0,3.289,3.33A3.285,3.285,0,0,0-103.844,1351.123Zm-149.277-35.85a3.3,3.3,0,0,0-3.369,3.273,3.319,3.319,0,0,0,3.312,3.341,3.314,3.314,0,0,0,3.293-3.284A3.29,3.29,0,0,0-253.121,1315.273Zm137.947,32.548a3.323,3.323,0,0,0-3.322,3.32,3.279,3.279,0,0,0,3.348,3.28,3.245,3.245,0,0,0,3.239-3.3A3.288,3.288,0,0,0-115.174,1347.821Zm-121.756-24.369a3.288,3.288,0,0,0-3.343,3.3,3.307,3.307,0,0,0,3.288,3.288,3.285,3.285,0,0,0,3.3-3.267A3.265,3.265,0,0,0-236.93,1323.452ZM-74.6,1347.829a3.3,3.3,0,0,0-3.3,3.28,3.271,3.271,0,0,0,3.325,3.307,3.281,3.281,0,0,0,3.262-3.3A3.312,3.312,0,0,0-74.6,1347.829Zm-45.491,3.325a3.309,3.309,0,0,0-3.257-3.315,3.331,3.331,0,0,0-3.314,3.265,3.289,3.289,0,0,0,3.263,3.3A3.27,3.27,0,0,0-120.09,1351.154Zm110.29-11.47a3.306,3.306,0,0,0-3.247,3.253,3.31,3.31,0,0,0,3.275,3.294,3.287,3.287,0,0,0,3.275-3.288A3.283,3.283,0,0,0-9.8,1339.684Zm-56.729,8.186a3.278,3.278,0,0,0-3.293,3.273,3.259,3.259,0,0,0,3.247,3.242,3.248,3.248,0,0,0,3.254-3.233A3.266,3.266,0,0,0-66.529,1347.87Zm-118.444-4.885a3.2,3.2,0,0,0-3.2-3.272,3.252,3.252,0,0,0-3.271,3.216,3.242,3.242,0,0,0,3.215,3.267A3.2,3.2,0,0,0-184.972,1342.985Zm53.578,4.9a3.211,3.211,0,0,0-3.239,3.237,3.186,3.186,0,0,0,3.224,3.247,3.241,3.241,0,0,0,3.25-3.232A3.267,3.267,0,0,0-131.395,1347.886Zm191.349-36.354a3.273,3.273,0,0,0,2.748,2.384,3.228,3.228,0,0,0,3.424-1.531,3.345,3.345,0,0,0,.01-3.7.792.792,0,0,0-.778-.436c-1.441.02-2.883.007-4.326.008-.112,0-.226.015-.387.024A3.346,3.346,0,0,0,59.954,1311.531Zm-118.286,36.375a3.25,3.25,0,0,0-3.273,3.2,3.2,3.2,0,0,0,3.219,3.236,3.187,3.187,0,0,0,3.2-3.184A3.242,3.242,0,0,0-58.332,1347.907ZM-264.546,1311.2a3.352,3.352,0,0,0,2.642,2.667,3.363,3.363,0,0,0,3.491-1.4,3.372,3.372,0,0,0,.068-3.762.843.843,0,0,0-.839-.455c-1.375.02-2.75.007-4.125.008-.137,0-.271.013-.457.023A3.377,3.377,0,0,0-264.546,1311.2ZM22.8,1331.714a3.21,3.21,0,1,0,3.208,3.182A3.205,3.205,0,0,0,22.8,1331.714ZM-142.776,1351.1a3.181,3.181,0,0,0,3.15,3.222,3.165,3.165,0,0,0,3.236-3.2,3.178,3.178,0,0,0-3.177-3.2A3.2,3.2,0,0,0-142.776,1351.1Zm-77.841-19.351a3.164,3.164,0,0,0-3.189,3.118,3.171,3.171,0,0,0,3.146,3.232,3.164,3.164,0,0,0,3.223-3.156A3.162,3.162,0,0,0-220.617,1331.75Zm167.086,19.341a3.181,3.181,0,0,0,3.112,3.2,3.148,3.148,0,0,0,3.215-3.155,3.175,3.175,0,0,0-3.135-3.18A3.209,3.209,0,0,0-53.531,1351.091Zm-90.927.011a3.149,3.149,0,0,0-3.182-3.13,3.167,3.167,0,0,0-3.13,3.187,3.155,3.155,0,0,0,3.185,3.119A3.14,3.14,0,0,0-144.458,1351.1Zm207.672-35.675a3.15,3.15,0,1,0,3.177,3.119A3.165,3.165,0,0,0,63.214,1315.427Zm-16.2,8.163a3.151,3.151,0,1,0,3.172,3.133A3.16,3.16,0,0,0,47.012,1323.59ZM-1.6,1339.8a3.124,3.124,0,0,0-3.137,3.163,3.145,3.145,0,0,0,3.153,3.151,3.157,3.157,0,0,0,3.133-3.167A3.136,3.136,0,0,0-1.6,1339.8Zm-194.754.03a3.089,3.089,0,0,0-3.151,3.132,3.145,3.145,0,0,0,3.167,3.13,3.167,3.167,0,0,0,3.088-3.145A3.106,3.106,0,0,0-196.353,1339.833Zm-61.75-21.221a3.055,3.055,0,0,0-3.052-3.146,3.08,3.08,0,0,0-3.174,3.031,3.1,3.1,0,0,0,3.021,3.184A3.081,3.081,0,0,0-258.1,1318.612Zm13.136,5.019a3.124,3.124,0,0,0-3.15,3.13,3.118,3.118,0,0,0,3.107,3.1,3.115,3.115,0,0,0,3.114-3.094A3.121,3.121,0,0,0-244.968,1323.631Zm199.683,27.488a3.118,3.118,0,0,0,3.1,3.117,3.118,3.118,0,0,0,3.1-3.054,3.124,3.124,0,0,0-3.07-3.153A3.119,3.119,0,0,0-45.285,1351.118Zm-107.419.065a3.094,3.094,0,0,0-3.067-3.136,3.078,3.078,0,0,0-3.1,3.034,3.075,3.075,0,0,0,3.063,3.14A3.1,3.1,0,0,0-152.7,1351.183Zm226.358-42.9c-1.42-.008-2.841-.013-4.259-.026a.6.6,0,0,0-.518.28,3.243,3.243,0,1,0,4.843-.232A.271.271,0,0,0,73.654,1308.28Zm-42.8,23.581a3.064,3.064,0,1,0,3.039,3.07A3.055,3.055,0,0,0,30.851,1331.86Zm-301.16-18.26a3.206,3.206,0,0,0,3.528-1.212,3.178,3.178,0,0,0-.016-3.726.876.876,0,0,0-.8-.415c-1.214.021-2.428.007-3.642.008-.135,0-.271.02-.4.029A3.192,3.192,0,0,0-270.309,1313.6ZM9.471,1342.971a3.027,3.027,0,1,0-3.026,3.023A3.045,3.045,0,0,0,9.471,1342.971Zm-43.453,5.142a3.038,3.038,0,0,0-3.052,2.993,3.026,3.026,0,0,0,3,3.039,3,3,0,0,0,3.041-2.989A3.012,3.012,0,0,0-33.982,1348.114Zm-191.793-13.159a3,3,0,0,0-3.042-3.047,2.974,2.974,0,0,0-2.99,3.02,2.977,2.977,0,0,0,3,3.015A3,3,0,0,0-225.775,1334.955Zm21.328,5a2.989,2.989,0,0,0-2.966,2.984,2.993,2.993,0,0,0,3,3.029,2.976,2.976,0,0,0,2.99-3.026A2.972,2.972,0,0,0-204.446,1339.955Zm43.629,11.171a3.014,3.014,0,0,0-2.956-3,3,3,0,0,0-3.042,2.979,3,3,0,0,0,2.985,3.034A3,3,0,0,0-160.818,1351.126ZM52.235,1326.67a2.977,2.977,0,1,0,3.037-2.912A2.982,2.982,0,0,0,52.235,1326.67Zm22.128-8.07a2.944,2.944,0,0,0-2.951-2.979,2.95,2.95,0,0,0,.015,5.9A2.948,2.948,0,0,0,74.363,1318.6Zm-103.276,32.526a2.912,2.912,0,0,0,2.932,2.932,2.9,2.9,0,0,0,2.94-2.919,2.926,2.926,0,0,0-2.928-2.935A2.942,2.942,0,0,0-28.913,1351.125Zm-140.168,0a2.916,2.916,0,0,0-2.867-2.916,2.96,2.96,0,0,0-2.969,2.89,2.917,2.917,0,0,0,2.909,2.938A2.879,2.879,0,0,0-169.082,1351.126Zm-81.184-24.415a2.946,2.946,0,0,0-2.968-2.895,2.966,2.966,0,0,0-2.87,2.929,2.914,2.914,0,0,0,2.938,2.916A2.9,2.9,0,0,0-250.266,1326.712Zm329.891-18.457c-.572,0-1.146,0-1.719,0a.666.666,0,0,0-.544.235,2.914,2.914,0,0,0-.7,2.81,2.951,2.951,0,0,0,3.208,2.235,2.812,2.812,0,0,0,2.521-1.848,2.927,2.927,0,0,0-.522-3.151.769.769,0,0,0-.663-.284c-.527.013-1.055,0-1.583,0ZM38.99,1332.024a2.9,2.9,0,1,0,.023,5.8,2.9,2.9,0,0,0-.023-5.8Zm-27.263,10.884a2.889,2.889,0,1,0,2.922-2.836A2.887,2.887,0,0,0,11.727,1342.908Zm-281.094-21.436a2.912,2.912,0,0,0,2.867-2.922,2.878,2.878,0,0,0-2.911-2.865,2.844,2.844,0,0,0-2.852,2.909A2.875,2.875,0,0,0-269.368,1321.472Zm-5.355-9.676a2.9,2.9,0,0,0-.439-3.213.824.824,0,0,0-.709-.335c-1.006.016-2.015.026-3.021-.005a.967.967,0,0,0-.869.433,2.9,2.9,0,0,0-.372,3.107,2.908,2.908,0,0,0,2.667,1.745A2.909,2.909,0,0,0-274.722,1311.8Zm59.266,31.138a2.884,2.884,0,0,0,2.881,2.891,2.877,2.877,0,0,0,2.852-2.847,2.866,2.866,0,0,0-2.878-2.888A2.877,2.877,0,0,0-215.457,1342.934Zm-21.46-10.866a2.864,2.864,0,0,0-2.929,2.763,2.851,2.851,0,0,0,2.813,2.946,2.835,2.835,0,0,0,2.922-2.761A2.843,2.843,0,0,0-236.917,1332.068Zm221.957,19.057a2.859,2.859,0,0,0-2.8-2.833,2.82,2.82,0,0,0-2.877,2.813,2.808,2.808,0,0,0,2.821,2.865A2.84,2.84,0,0,0-14.96,1351.125Zm-165.239,2.831a2.825,2.825,0,0,0,2.842-2.831,2.823,2.823,0,0,0-2.857-2.815,2.841,2.841,0,0,0-2.781,2.829A2.833,2.833,0,0,0-180.2,1353.956ZM66.011,1326.73a2.771,2.771,0,1,0-2.784,2.782A2.756,2.756,0,0,0,66.011,1326.73Zm-167.749,32.423a2.757,2.757,0,0,0,2.758,2.751,2.743,2.743,0,0,0,2.74-2.694,2.726,2.726,0,0,0-2.719-2.776A2.742,2.742,0,0,0-101.738,1359.153Zm-5.405,2.75a2.758,2.758,0,0,0,2.737-2.7,2.757,2.757,0,0,0-2.738-2.768,2.712,2.712,0,0,0-2.755,2.735A2.713,2.713,0,0,0-107.143,1361.9Zm127.2-18.925a2.735,2.735,0,1,0,2.727-2.766A2.726,2.726,0,0,0,20.062,1342.978Zm-27.093,8.2a2.759,2.759,0,0,0-2.727-2.784,2.776,2.776,0,0,0-2.753,2.766,2.747,2.747,0,0,0,2.735,2.7A2.735,2.735,0,0,0-7.031,1351.175Zm97.25-39.575a2.822,2.822,0,0,0-.661-3.1.842.842,0,0,0-.611-.252c-.869.008-1.739.01-2.608,0a.893.893,0,0,0-.668.283,2.8,2.8,0,1,0,4.549,3.067Zm-175.725,47.516a2.719,2.719,0,0,0,2.714,2.776,2.732,2.732,0,0,0,2.748-2.748,2.715,2.715,0,0,0-2.72-2.7A2.7,2.7,0,0,0-85.506,1359.116Zm-8.035.088a2.712,2.712,0,0,0,2.717,2.7,2.732,2.732,0,0,0,2.753-2.743,2.714,2.714,0,0,0-2.761-2.727A2.694,2.694,0,0,0-93.54,1359.2Zm-164.949-32.438a2.738,2.738,0,0,0-2.761-2.739,2.748,2.748,0,0,0-2.691,2.739,2.738,2.738,0,0,0,2.727,2.7A2.72,2.72,0,0,0-258.489,1326.766Zm340.807-8.155a2.725,2.725,0,1,0-2.746,2.673A2.706,2.706,0,0,0,82.318,1318.611Zm-200.237,40.541a2.722,2.722,0,0,0,2.746,2.74,2.708,2.708,0,0,0,2.7-2.714,2.691,2.691,0,0,0-2.74-2.732A2.7,2.7,0,0,0-117.919,1359.151Zm43.344-2.7a2.7,2.7,0,0,0-2.737,2.685,2.691,2.691,0,0,0,2.688,2.733,2.687,2.687,0,0,0,2.735-2.686A2.694,2.694,0,0,0-74.575,1356.455Zm-145.967-16.2a2.649,2.649,0,0,0-2.777,2.573,2.691,2.691,0,0,0,2.582,2.839,2.745,2.745,0,0,0,2.826-2.612A2.7,2.7,0,0,0-220.542,1340.253Zm97.127,16.212a2.673,2.673,0,0,0-2.66,2.693,2.643,2.643,0,0,0,2.717,2.7,2.683,2.683,0,0,0,2.7-2.722A2.725,2.725,0,0,0-123.415,1356.465Zm173.157-21.491a2.711,2.711,0,1,0-2.759,2.651A2.681,2.681,0,0,0,49.742,1334.974ZM-185.5,1351.138a2.674,2.674,0,0,0-2.712-2.708,2.68,2.68,0,0,0-2.685,2.665,2.715,2.715,0,0,0,2.677,2.745A2.707,2.707,0,0,0-185.5,1351.138Zm-98.24-42.621a.834.834,0,0,0-.609-.263c-.826,0-1.651.006-2.477,0a.867.867,0,0,0-.616.252,2.724,2.724,0,0,0-.874,1.6,2.758,2.758,0,0,0,2.438,3.163,2.724,2.724,0,0,0,3.036-2.545A2.834,2.834,0,0,0-283.744,1308.517Zm217.21,47.978a2.617,2.617,0,0,0-2.694,2.634,2.6,2.6,0,0,0,2.625,2.7A2.658,2.658,0,0,0-63.9,1359.2,2.674,2.674,0,0,0-66.534,1356.494Zm-178.505-24.239a2.675,2.675,0,0,0-2.639,2.7,2.672,2.672,0,0,0,2.7,2.636,2.662,2.662,0,0,0,2.634-2.7A2.664,2.664,0,0,0-245.039,1332.255Zm-29.708-13.672a2.672,2.672,0,0,0-2.66-2.682,2.623,2.623,0,0,0-2.677,2.656,2.628,2.628,0,0,0,2.651,2.68A2.676,2.676,0,0,0-274.747,1318.583Zm143.359,43.222a2.605,2.605,0,0,0,2.638-2.607,2.665,2.665,0,0,0-2.634-2.689,2.648,2.648,0,0,0-2.668,2.652A2.6,2.6,0,0,0-131.388,1361.805Zm72.993-5.254a2.59,2.59,0,0,0-2.615,2.615,2.571,2.571,0,0,0,2.621,2.6,2.591,2.591,0,0,0,2.621-2.608A2.611,2.611,0,0,0-58.4,1356.551Zm59.4-5.449a2.579,2.579,0,0,0-2.6-2.569,2.562,2.562,0,0,0-2.59,2.566,2.562,2.562,0,0,0,2.587,2.636A2.581,2.581,0,0,0,1.007,1351.1Zm-143.18,8.041a2.546,2.546,0,0,0,2.61,2.605,2.558,2.558,0,0,0,2.582-2.566,2.584,2.584,0,0,0-2.612-2.613A2.565,2.565,0,0,0-142.173,1359.143Zm173.016-13.606a2.58,2.58,0,1,0-2.6-2.562A2.584,2.584,0,0,0,30.843,1345.537Zm-229.806,5.61a2.592,2.592,0,0,0,2.594,2.566,2.6,2.6,0,0,0,2.576-2.591,2.584,2.584,0,0,0-2.6-2.558A2.57,2.57,0,0,0-198.963,1351.147Zm151.163,8.069a2.533,2.533,0,0,0-2.538-2.609,2.512,2.512,0,0,0-2.574,2.571,2.514,2.514,0,0,0,2.535,2.537A2.54,2.54,0,0,0-47.8,1359.217Zm-97.263-.06a2.514,2.514,0,0,0-2.538-2.532,2.519,2.519,0,0,0-2.561,2.581,2.541,2.541,0,0,0,2.576,2.5A2.533,2.533,0,0,0-145.064,1359.156ZM71.429,1324.2a2.551,2.551,0,1,0,2.527,2.547A2.552,2.552,0,0,0,71.429,1324.2Zm-300.264,16.23a2.522,2.522,0,0,0-2.488,2.581,2.531,2.531,0,0,0,2.529,2.477,2.531,2.531,0,0,0,2.529-2.552A2.521,2.521,0,0,0-228.835,1340.428Zm284.052-8.015a2.511,2.511,0,1,0,2.5,2.483A2.514,2.514,0,0,0,55.217,1332.413Zm39.87-24.163a1.16,1.16,0,0,0-.881.311,2.476,2.476,0,0,0-.853,2.656,2.543,2.543,0,1,0,4.056-2.649,1.208,1.208,0,0,0-.878-.317c-.252.02-.505,0-.757,0C95.545,1308.254,95.314,1308.268,95.087,1308.25ZM-266.9,1326.775a2.5,2.5,0,0,0-2.464-2.526,2.482,2.482,0,0,0-2.511,2.472,2.465,2.465,0,0,0,2.457,2.517A2.478,2.478,0,0,0-266.9,1326.775Zm222.232,32.384a2.465,2.465,0,0,0,2.48,2.493,2.478,2.478,0,0,0,2.495-2.483,2.471,2.471,0,0,0-2.485-2.49A2.453,2.453,0,0,0-44.669,1359.159ZM87.624,1316.1a2.464,2.464,0,0,0-2.472,2.495,2.473,2.473,0,0,0,4.945-.011A2.447,2.447,0,0,0,87.624,1316.1Zm-245.874,43.1a2.42,2.42,0,0,0,2.46,2.431,2.439,2.439,0,0,0,2.472-2.5,2.433,2.433,0,0,0-2.469-2.43A2.413,2.413,0,0,0-158.25,1359.2ZM8.9,1351.154a2.457,2.457,0,1,0-4.914-.007,2.414,2.414,0,0,0,2.449,2.438A2.439,2.439,0,0,0,8.9,1351.154Zm-262.061-18.681a2.429,2.429,0,0,0-2.477,2.48,2.429,2.429,0,0,0,2.467,2.421,2.427,2.427,0,0,0,2.441-2.446A2.425,2.425,0,0,0-253.158,1332.473Zm-41.075-24.223a1.507,1.507,0,0,0-1.282.525,2.5,2.5,0,0,0-.515,2.789,2.361,2.361,0,0,0,2.3,1.435,2.286,2.286,0,0,0,2.209-1.458,2.4,2.4,0,0,0-.437-2.685,1.536,1.536,0,0,0-1.385-.6,3.5,3.5,0,0,1-.411,0A3.609,3.609,0,0,1-294.234,1308.25Zm89.883,40.458a2.415,2.415,0,0,0-2.483,2.4,2.417,2.417,0,0,0,2.428,2.456,2.417,2.417,0,0,0,2.415-2.4A2.418,2.418,0,0,0-204.351,1348.708Zm172.767,10.474a2.434,2.434,0,0,0-2.456-2.428,2.423,2.423,0,0,0-2.386,2.426,2.424,2.424,0,0,0,2.417,2.394A2.438,2.438,0,0,0-31.583,1359.182Zm-256.434-40.627a2.408,2.408,0,0,0,2.454,2.428,2.417,2.417,0,0,0,2.379-2.435,2.433,2.433,0,0,0-2.418-2.4A2.427,2.427,0,0,0-288.018,1318.555Zm124.164,43a2.4,2.4,0,0,0,2.431-2.377,2.4,2.4,0,0,0-2.327-2.412,2.4,2.4,0,0,0-2.464,2.342A2.409,2.409,0,0,0-163.854,1361.56ZM41.4,1342.916a2.391,2.391,0,1,0-2.369,2.43A2.349,2.349,0,0,0,41.4,1342.916Zm-280.714.053a2.347,2.347,0,0,0,2.309,2.326,2.326,2.326,0,0,0,2.373-2.322,2.32,2.32,0,0,0-2.335-2.358A2.339,2.339,0,0,0-239.319,1342.97Zm253.992,5.857a2.306,2.306,0,1,0,2.257,2.379A2.308,2.308,0,0,0,14.673,1348.827Zm-38.352,10.331a2.265,2.265,0,0,0-2.317-2.29,2.256,2.256,0,0,0-2.267,2.267,2.263,2.263,0,0,0,2.278,2.327A2.272,2.272,0,0,0-23.679,1359.158Zm100.973-32.443a2.3,2.3,0,1,0,4.6,0,2.3,2.3,0,0,0-4.6,0ZM-169.7,1359.172a2.316,2.316,0,0,0-2.326-2.3,2.279,2.279,0,0,0-2.269,2.28,2.273,2.273,0,0,0,2.321,2.3A2.312,2.312,0,0,0-169.7,1359.172Zm235.234-24.2a2.282,2.282,0,0,0-2.3-2.327,2.28,2.28,0,0,0-.028,4.559A2.282,2.282,0,0,0,65.538,1334.971Zm38.318-26.7a2.272,2.272,0,1,0-.036,4.544,2.272,2.272,0,1,0,.036-4.544Zm-316.415,40.6a2.253,2.253,0,0,0-2.3,2.241,2.29,2.29,0,0,0,2.248,2.3,2.3,2.3,0,0,0,2.313-2.251A2.269,2.269,0,0,0-212.559,1348.867Zm-48.647-11.712a2.229,2.229,0,0,0,2.228-2.239,2.239,2.239,0,0,0-2.244-2.227,2.241,2.241,0,0,0-2.228,2.243A2.223,2.223,0,0,0-261.206,1337.155Zm-16.221-12.639a2.2,2.2,0,0,0-2.222,2.24,2.195,2.195,0,0,0,2.233,2.225,2.238,2.238,0,0,0,2.233-2.236A2.245,2.245,0,0,0-277.427,1324.516Zm371.041-5.956a2.19,2.19,0,1,0,2.179-2.179A2.172,2.172,0,0,0,93.614,1318.56ZM-15.61,1359.176a2.183,2.183,0,0,0-2.161-2.2,2.193,2.193,0,0,0-2.222,2.212,2.166,2.166,0,0,0,2.194,2.163A2.16,2.16,0,0,0-15.61,1359.176Zm-286.209-50.826a2.179,2.179,0,0,0-2.179,2.188,2.17,2.17,0,0,0,2.241,2.188,2.163,2.163,0,0,0,2.139-2.217A2.17,2.17,0,0,0-301.818,1308.349Zm348.864,32.431a2.144,2.144,0,0,0-2.178,2.178,2.168,2.168,0,1,0,2.178-2.178Zm-229.369,18.377a2.112,2.112,0,0,0,2.111,2.152,2.124,2.124,0,0,0,2.194-2.074,2.146,2.146,0,0,0-2.114-2.228A2.138,2.138,0,0,0-182.323,1359.158Zm-64.817-16.185a2.148,2.148,0,0,0,2.118,2.1,2.117,2.117,0,0,0,2.137-2.075,2.144,2.144,0,0,0-2.109-2.178A2.165,2.165,0,0,0-247.141,1342.973Zm267.812,8.116a2.12,2.12,0,1,0,4.24.026,2.12,2.12,0,0,0-4.24-.026Zm-312.326-32.47a2.117,2.117,0,0,0-2.1-2.177,2.137,2.137,0,0,0-2.14,2.145,2.132,2.132,0,0,0,2.108,2.1A2.119,2.119,0,0,0-291.655,1318.619Zm71.1,30.437a2.066,2.066,0,0,0-2.139,2.049,2.058,2.058,0,0,0,2.01,2.1,2.073,2.073,0,0,0,2.147-2.046A2.07,2.07,0,0,0-220.56,1349.056Zm208.735,10.064a2.037,2.037,0,0,0,2,2.1,2.038,2.038,0,0,0,2.119-2.043,2.028,2.028,0,0,0-2.031-2.061A2.032,2.032,0,0,0-11.825,1359.12ZM89.649,1326.74a2.018,2.018,0,1,0-1.991,2.04A2.028,2.028,0,0,0,89.649,1326.74Zm-275.825,32.452a2.009,2.009,0,0,0-2.048-2.04,1.993,1.993,0,0,0-1.994,2.018,1.992,1.992,0,0,0,2.007,2A2.009,2.009,0,0,0-186.177,1359.192Zm257.619-26.287a2.018,2.018,0,1,0,1.986,2.027A2,2,0,0,0,71.442,1332.905Zm-178.595,32.43a2.02,2.02,0,0,0-2.017,2.01,2.019,2.019,0,0,0,1.958,2,2,2,0,0,0,2.043-1.976A2,2,0,0,0-107.152,1365.335Zm18.341,1.971a2.009,2.009,0,0,0-1.981-1.971,2,2,0,0,0-2.015,2.005,2,2,0,0,0,2.015,2A2,2,0,0,0-88.811,1367.306Zm-10.177-1.971a1.99,1.99,0,0,0-1.986,1.96,1.99,1.99,0,0,0,1.965,2.049,2.034,2.034,0,0,0,2.036-1.994A2.031,2.031,0,0,0-98.988,1365.335Zm16.245.028a1.956,1.956,0,0,0-2.022,1.991,1.976,1.976,0,0,0,1.981,1.971,2.008,2.008,0,0,0,1.991-1.963A1.981,1.981,0,0,0-82.743,1365.363Zm-34.435,1.9a2,2,0,0,0,1.893,2.054,1.992,1.992,0,0,0,2.074-1.944,1.985,1.985,0,0,0-1.927-2.017A1.992,1.992,0,0,0-117.178,1367.267Zm-152.185-30.382a1.968,1.968,0,0,0,1.936-1.992,1.97,1.97,0,0,0-1.994-1.934,1.956,1.956,0,0,0-1.934,1.994A1.952,1.952,0,0,0-269.363,1336.885Zm192.808,30.4A1.937,1.937,0,0,0-74.7,1369.3a1.971,1.971,0,0,0,2.07-1.87,1.954,1.954,0,0,0-1.892-2.045A1.924,1.924,0,0,0-76.554,1367.285Zm186.623-56.763a1.94,1.94,0,1,0,3.879-.033,1.94,1.94,0,0,0-3.879.033Zm-233.453,54.883a1.941,1.941,0,0,0-1.926,1.916,1.952,1.952,0,0,0,1.887,1.96,1.94,1.94,0,0,0,1.989-1.921A1.925,1.925,0,0,0-123.384,1365.405ZM-285.5,1324.814a1.953,1.953,0,0,0-2.035,1.82,1.947,1.947,0,0,0,1.872,2.054,1.94,1.94,0,0,0,2-1.856A1.934,1.934,0,0,0-285.5,1324.814ZM53.27,1342.973a1.938,1.938,0,1,0,1.952-1.958A1.939,1.939,0,0,0,53.27,1342.973Zm-20.537,8.152a1.91,1.91,0,1,0-1.918,1.919A1.881,1.881,0,0,0,32.733,1351.125Zm-34.339,6.133A1.883,1.883,0,0,0-3.5,1359.2a1.892,1.892,0,0,0,1.89,1.879,1.882,1.882,0,0,0,1.926-1.909A1.87,1.87,0,0,0-1.606,1357.258Zm-131.688,10.037a1.9,1.9,0,0,0,1.895,1.947,1.882,1.882,0,0,0,1.874-1.892,1.866,1.866,0,0,0-1.853-1.906A1.888,1.888,0,0,0-133.295,1367.295Zm66.738-1.851a1.884,1.884,0,0,0-1.9,1.916,1.908,1.908,0,0,0,1.875,1.883,1.9,1.9,0,0,0,1.9-1.924A1.871,1.871,0,0,0-66.556,1365.444Zm172.273-46.806a1.88,1.88,0,0,0-3.757-.141,1.88,1.88,0,0,0,3.757.141Zm-334.5,30.626a1.861,1.861,0,0,0-1.887,1.857,1.872,1.872,0,0,0,1.858,1.89,1.864,1.864,0,0,0,1.884-1.861A1.855,1.855,0,0,0-228.781,1349.264Zm-26.261-6.312a1.828,1.828,0,0,0,1.862,1.867,1.846,1.846,0,0,0,1.869-1.867,1.884,1.884,0,0,0-1.869-1.884A1.869,1.869,0,0,0-255.042,1342.952Zm58.677,14.342a1.863,1.863,0,0,0-1.89,1.851,1.866,1.866,0,0,0,1.853,1.89,1.835,1.835,0,0,0,1.877-1.853A1.836,1.836,0,0,0-196.365,1357.294ZM-309.9,1308.688a1.863,1.863,0,0,0-1.942,1.8,1.878,1.878,0,0,0,1.835,1.913,1.842,1.842,0,0,0,1.861-1.805A1.832,1.832,0,0,0-309.9,1308.688Zm249.64,58.713a1.887,1.887,0,0,0,1.892,1.8,1.86,1.86,0,0,0,1.827-1.919,1.885,1.885,0,0,0-1.882-1.8A1.894,1.894,0,0,0-60.259,1367.4Zm-79.348,1.775a1.859,1.859,0,0,0,1.866-1.807,1.856,1.856,0,0,0-1.807-1.862,1.844,1.844,0,0,0-1.861,1.8A1.85,1.85,0,0,0-139.607,1369.175Zm-160.4-50.6a1.8,1.8,0,0,0-1.846-1.812,1.8,1.8,0,0,0-1.763,1.828,1.8,1.8,0,0,0,1.815,1.781A1.8,1.8,0,0,0-300,1318.578Zm249.62,46.976a1.8,1.8,0,0,0-1.763,1.825,1.791,1.791,0,0,0,1.778,1.741,1.772,1.772,0,0,0,1.789-1.79A1.78,1.78,0,0,0-50.383,1365.554Zm58.568-6.392a1.722,1.722,0,0,0-1.732-1.755,1.752,1.752,0,0,0-1.775,1.791,1.733,1.733,0,0,0,1.776,1.713A1.7,1.7,0,0,0,8.185,1359.163ZM-145.88,1367.3a1.749,1.749,0,0,0-1.716-1.708,1.772,1.772,0,0,0-1.758,1.745,1.726,1.726,0,0,0,1.76,1.723A1.7,1.7,0,0,0-145.88,1367.3Zm105.4.07a1.72,1.72,0,0,0-1.659-1.755,1.757,1.757,0,0,0-1.775,1.721,1.718,1.718,0,0,0,1.706,1.7A1.683,1.683,0,0,0-40.478,1367.371Zm120.106-34.165a1.717,1.717,0,1,0-.033,3.434,1.717,1.717,0,0,0,.033-3.434Zm-285.739,25.986a1.682,1.682,0,0,0,1.742,1.662,1.681,1.681,0,0,0,1.646-1.685,1.7,1.7,0,0,0-1.7-1.709A1.725,1.725,0,0,0-206.111,1359.192Zm245.141-6.363a1.691,1.691,0,1,0-1.719-1.685A1.683,1.683,0,0,0,39.031,1352.83Zm-316.417-19.58a1.681,1.681,0,0,0-1.7,1.622,1.68,1.68,0,0,0,1.666,1.726,1.7,1.7,0,0,0,1.675-1.656A1.7,1.7,0,0,0-277.386,1333.25Zm338.965,9.725a1.65,1.65,0,0,0,1.685,1.641,1.661,1.661,0,1,0-1.685-1.641Zm35.893-16.23a1.669,1.669,0,1,0-3.338.044,1.669,1.669,0,0,0,3.338-.044Zm-391.251-1.638a1.627,1.627,0,0,0-1.628,1.68,1.623,1.623,0,0,0,1.7,1.6,1.627,1.627,0,0,0,1.563-1.674A1.63,1.63,0,0,0-293.779,1325.106Zm138.012,40.6a1.631,1.631,0,0,0-1.658,1.651,1.625,1.625,0,0,0,1.684,1.62,1.622,1.622,0,0,0,1.588-1.648A1.629,1.629,0,0,0-155.767,1365.7Zm121.765,0a1.637,1.637,0,0,0-1.641,1.667,1.634,1.634,0,0,0,1.632,1.606,1.636,1.636,0,0,0,1.64-1.667A1.634,1.634,0,0,0-34,1365.7Zm-201.362-14.569a1.582,1.582,0,0,0-1.609-1.6,1.577,1.577,0,0,0-1.607,1.6,1.591,1.591,0,0,0,1.607,1.611A1.6,1.6,0,0,0-235.363,1351.135Zm251.575,8.049a1.586,1.586,0,0,0-1.606-1.606,1.586,1.586,0,0,0,.029,3.171A1.587,1.587,0,0,0,16.212,1359.184Zm-279-16.225a1.523,1.523,0,0,0,1.563,1.567,1.556,1.556,0,0,0,1.6-1.614,1.6,1.6,0,0,0-1.609-1.551A1.57,1.57,0,0,0-262.786,1342.958ZM120.088,1309a1.547,1.547,0,1,0-.054,3.093,1.547,1.547,0,0,0,.054-3.093Zm-283.963,56.84a1.518,1.518,0,0,0-1.459,1.526,1.531,1.531,0,0,0,1.5,1.49,1.508,1.508,0,0,0,1.518-1.532A1.492,1.492,0,0,0-163.875,1365.836Zm210.906-16.18a1.479,1.479,0,0,0-1.481,1.479,1.5,1.5,0,0,0,1.482,1.481,1.48,1.48,0,0,0,0-2.959Zm64.983-32.565a1.465,1.465,0,0,0-1.479,1.477,1.476,1.476,0,1,0,1.479-1.477Zm-323.14,42.091a1.463,1.463,0,0,0-1.493-1.471,1.422,1.422,0,0,0-1.409,1.469,1.421,1.421,0,0,0,1.441,1.437A1.464,1.464,0,0,0-211.126,1359.182Zm186.591,7.552a1.516,1.516,0,0,0-.735-.787,1.578,1.578,0,0,0-1.927.416,1.442,1.442,0,0,0,.052,1.929,26.022,26.022,0,0,0,2.628-.444A1.336,1.336,0,0,0-24.535,1366.734Zm95.953-25.146a1.369,1.369,0,1,0,1.372,1.352A1.375,1.375,0,0,0,71.418,1341.588Zm-243.389,24.384a1.38,1.38,0,0,0-1.39,1.394,1.371,1.371,0,0,0,1.378,1.337,1.377,1.377,0,0,0,1.355-1.358A1.384,1.384,0,0,0-171.971,1365.972Zm260.962-31.043a1.364,1.364,0,1,0-2.729.024,1.364,1.364,0,0,0,2.729-.024Zm-333.944,14.881a1.306,1.306,0,0,0-1.388,1.3,1.341,1.341,0,0,0,1.277,1.357,1.32,1.32,0,0,0,1.381-1.315A1.289,1.289,0,0,0-244.953,1349.81Zm-23.163-6.86a1.261,1.261,0,0,0-1.266-1.26,1.3,1.3,0,0,0-1.3,1.308,1.316,1.316,0,0,0,1.313,1.23A1.277,1.277,0,0,0-268.116,1342.95Zm371.992-17.474a1.274,1.274,0,1,0-.044,2.547,1.274,1.274,0,0,0,.044-2.547Zm-389.073,10.58a.387.387,0,0,0,.5-.068,1.349,1.349,0,0,0,.442-1.422,1.326,1.326,0,0,0-1.089-1.014,1.289,1.289,0,0,0-1.334.5,4.092,4.092,0,0,0-.351.7A15.606,15.606,0,0,0-285.2,1336.056Zm65.778,23.106a1.187,1.187,0,0,0-1.152-1.2,1.191,1.191,0,0,0-1.251,1.17,1.184,1.184,0,0,0,1.185,1.232A1.181,1.181,0,0,0-219.421,1359.163Zm39.281,6.977a1.2,1.2,0,0,0-1.235,1.2,1.189,1.189,0,0,0,1.237,1.2,1.185,1.185,0,0,0,1.165-1.2A1.189,1.189,0,0,0-180.139,1366.139ZM22.072,1359.4a11.483,11.483,0,0,1,1.718-.4c.138-.008.267-.146.4-.221a1.46,1.46,0,0,0-1.794-1.018,1.419,1.419,0,0,0-.848.655,1.1,1.1,0,0,0-.148.964A1.073,1.073,0,0,0,22.072,1359.4Zm-274.231-8.308a1.015,1.015,0,0,0-1.034-.975,1,1,0,0,0-1.006,1.064,1.014,1.014,0,0,0,1.027.98A1.026,1.026,0,0,0-252.159,1351.087Zm380.446-41.57a1,1,0,0,0-1.077.991,1.012,1.012,0,0,0,.947,1.061,1.054,1.054,0,0,0,1.092-1A1.037,1.037,0,0,0,128.287,1309.518Zm-8.2,8.038a1.016,1.016,0,0,0-1.063,1.011,1,1,0,0,0,1.051,1.016.992.992,0,0,0,.99-1A1.006,1.006,0,0,0,120.085,1317.556Zm-308.221,48.777a.991.991,0,0,0-1.081.975.992.992,0,0,0,.946,1.045,1.007,1.007,0,0,0,1.086-.979A1,1,0,0,0-188.137,1366.333Zm-40.643-8.113a.962.962,0,0,0-.965.942.958.958,0,0,0,.9.944.945.945,0,0,0,.991-.908A.948.948,0,0,0-228.78,1358.22Zm114.543,17.389a.7.7,0,0,0,.036-.2,1,1,0,0,0-1.053-1.019,1.016,1.016,0,0,0-.934,1.068c.026.305.169.46.471.468.432.01.865,0,1.334,0C-114.311,1375.773-114.267,1375.694-114.236,1375.609Zm-9.1.489c.068,0,.137,0,.2,0a.592.592,0,0,0,.626-.512.881.881,0,0,0-.319-.92.923.923,0,0,0-.972-.08.835.835,0,0,0-.45.792c.007.45.237.78.7.723a1.761,1.761,0,0,1,.206,0Zm16.728-1.584a1.009,1.009,0,0,0-1.207.084,1.359,1.359,0,0,0-.325.507.6.6,0,0,0,.128.676,9.2,9.2,0,0,0,1.776-.049C-106.1,1375.112-106.218,1374.761-106.608,1374.514Zm-89.737-8.018a.844.844,0,0,0-.876.847.826.826,0,0,0,.809.838.832.832,0,0,0,.878-.84A.846.846,0,0,0-196.345,1366.5Zm177.477.564c.11-.01.221-.042.332-.063.132-.028.263-.063.4-.08.449-.055.9-.1,1.35-.156a.221.221,0,0,0,.119-.371,1.466,1.466,0,0,0-2.508.442.554.554,0,0,0,.028.2A1.578,1.578,0,0,0-18.868,1367.059Zm-79.089,8.335a.842.842,0,0,0-.3-.79.969.969,0,0,0-.748-.283,1,1,0,0,0-.739.307.831.831,0,0,0-.252.8A5.484,5.484,0,0,0-97.957,1375.395Zm-33.463.533c.137,0,.273.007.408,0a.427.427,0,0,0,.452-.408.827.827,0,0,0-.4-.869.763.763,0,0,0-.837-.023.823.823,0,0,0-.44.85c.031.3.163.43.481.452.114.007.228,0,.34,0Zm-7.77-1.191a.72.72,0,0,0-.882.091.966.966,0,0,0-.231.4.453.453,0,0,0,.141.518,3.4,3.4,0,0,0,1.227-.011C-138.8,1375.185-138.866,1374.948-139.191,1374.737Zm195.178-24.384c.026-.01.033-.076.063-.161a1.244,1.244,0,0,0-2.069.715A7.407,7.407,0,0,0,55.987,1350.353ZM-89.85,1374.974a.98.98,0,0,0-1.008-.707,1.106,1.106,0,0,0-.678.281c-.132.118-.281.237-.228.45A4.96,4.96,0,0,0-89.85,1374.974Zm-114.527-8.247a.6.6,0,0,0-.658.614.6.6,0,0,0,.587.619.615.615,0,0,0,.66-.616A.6.6,0,0,0-204.377,1366.726Zm300.411-32.834a1.038,1.038,0,0,0-.787.127.778.778,0,0,0-.362,1.038,11.563,11.563,0,0,0,1.624-.8C96.431,1333.986,96.232,1333.934,96.034,1333.892Zm-332.424,25.1a.6.6,0,0,0-1.035-.255.2.2,0,0,0,.039.34c.315.094.595.345,1,.229A1.068,1.068,0,0,0-236.39,1358.99Zm89.4,16.323a.435.435,0,0,0-.236-.492.809.809,0,0,0-.44-.135.849.849,0,0,0-.418.2.355.355,0,0,0-.14.437A3.69,3.69,0,0,0-146.986,1375.313Zm63.463-.676a5.185,5.185,0,0,1,.564-.12c.2-.018.4,0,.769,0C-82.785,1374.117-83.1,1374.165-83.523,1374.637Zm162.532-32.451c.163-.026.325-.046.411-.24C79.077,1341.974,79.077,1341.974,79.009,1342.187Zm-234.734,32.664c-.018-.01-.039-.031-.054-.028a.5.5,0,0,0-.094.042l.054.031Z" transform="translate(16.316 98.922)" opacity="0.5" fill="url(#linear-gradient)"/>
    <rect id="Rectngulo_36380" data-name="Rectngulo 36380" width="482.425" height="4.79" rx="1.474" transform="translate(-318.718 1403.879)" fill="#129a2e"/>
    <g id="Grupo_93374" data-name="Grupo 93374" transform="translate(-68.834 1171.812)">
      <rect id="Rectngulo_36381" data-name="Rectngulo 36381" width="56.608" height="23.327" rx="7.177" fill="#03ff0b"/>
      <path id="Trazado_149205" data-name="Trazado 149205" d="M-168.144,1176.365v12.87l14.831-14.831S-167.842,1176.365-168.144,1176.365Z" transform="translate(174.981 -1156.556)" fill="#03ff0b"/>
      <rect id="Rectngulo_36382" data-name="Rectngulo 36382" width="50.752" height="18.702" rx="5.754" transform="translate(2.928 2.313)" fill="#fff"/>
      <path id="Trazado_149206" data-name="Trazado 149206" d="M-144.338,1168.465h-22.924a1.01,1.01,0,0,1-1.006-1.006,1.01,1.01,0,0,1,1.006-1.006h22.924a1.009,1.009,0,0,1,1.006,1.006A1.009,1.009,0,0,1-144.338,1168.465Z" transform="translate(174.904 -1161.526)" fill="#03ff0b"/>
      <path id="Rectngulo_36383" data-name="Rectngulo 36383" d="M.347,0H43.29a.348.348,0,0,1,.348.348V.782a.348.348,0,0,1-.348.348H.347A.347.347,0,0,1,0,.782V.347A.347.347,0,0,1,.347,0Z" transform="translate(6.636 9.653)" fill="#03ff0b"/>
      <path id="Rectngulo_36384" data-name="Rectngulo 36384" d="M.347,0H43.29a.348.348,0,0,1,.348.348V.782a.348.348,0,0,1-.348.348H.347A.347.347,0,0,1,0,.782V.347A.347.347,0,0,1,.347,0Z" transform="translate(6.636 11.841)" fill="#03ff0b"/>
      <g id="Grupo_93373" data-name="Grupo 93373" transform="translate(39.001 17.998)">
        <rect id="Rectngulo_36385" data-name="Rectngulo 36385" width="2.458" height="2.212" rx="0.681" fill="#03ff0b"/>
        <rect id="Rectngulo_36386" data-name="Rectngulo 36386" width="2.458" height="2.212" rx="0.681" transform="translate(4.469)" fill="#03ff0b"/>
        <rect id="Rectngulo_36387" data-name="Rectngulo 36387" width="2.458" height="2.212" rx="0.681" transform="translate(8.938)" fill="#03ff0b"/>
      </g>
    </g>
    <g id="Grupo_93375" data-name="Grupo 93375" transform="translate(-221.511 1358.361)">
      <path id="Trazado_149207" data-name="Trazado 149207" d="M-178.693,1308.562h-87.6a5.622,5.622,0,0,1,5.621-5.622h81.983Z" transform="translate(266.298 -1262.752)" fill="#36ff1e"/>
      <path id="Trazado_149208" data-name="Trazado 149208" d="M-194.328,1324.021h-46.793l19.871-43.715a3.575,3.575,0,0,1,3.254-2.095h42.325a1.4,1.4,0,0,1,1.269,1.973Z" transform="translate(282.037 -1278.211)" fill="#36ff1e"/>
      <path id="Trazado_149209" data-name="Trazado 149209" d="M-177.091,1278.211h-38.636a3.575,3.575,0,0,0-3.254,2.095l-19.871,43.715h43.1l19.926-43.837A1.4,1.4,0,0,0-177.091,1278.211Z" transform="translate(283.456 -1278.211)" fill="#19de68"/>
      <path id="Trazado_149210" data-name="Trazado 149210" d="M-211.727,1296.166c-1.638,3.4-4.3,5.5-5.937,4.713s-1.643-4.185,0-7.58,4.3-5.5,5.937-4.711S-210.088,1292.773-211.727,1296.166Z" transform="translate(295.932 -1271.828)" fill="#8ad63b"/>
    </g>
    <g id="Grupo_93376" data-name="Grupo 93376" transform="translate(-271.704 1270.378)">
      <path id="Trazado_149211" data-name="Trazado 149211" d="M-265.952,1240.857s-3.977,20.295-8.369,23.851,10.112,20.708,15.133,16.313.349-14.012.349-14.012-2.72-1.672,1.882-12.343-7.788-18.623-7.788-18.623Z" transform="translate(310.964 -1216.589)" fill="#f09959"/>
      <path id="Trazado_149212" data-name="Trazado 149212" d="M-267.711,1236.043l-1.207,4.814s-.554,2.823-1.476,6.548c1.718,8.013,4.929,13.225,7.8,16.539.084-1.848.718-4.754,2.67-9.278C-255.319,1243.995-267.711,1236.043-267.711,1236.043Z" transform="translate(313.93 -1216.589)" fill="#e38540"/>
      <path id="Trazado_149213" data-name="Trazado 149213" d="M-244.765,1252.025c-2.672,7.368-9.2,13.282-13.346,11.917-6.772-2.23-11.7-7.523-10.537-19.224,1.372-13.781,11.976-15.361,18.2-13.6S-241.809,1243.873-244.765,1252.025Z" transform="translate(314.915 -1220.033)" fill="#f09959"/>
      <path id="Trazado_149214" data-name="Trazado 149214" d="M-272.675,1253.662l-6.406,2.51,10.1,12.939-2.881,5.156a40.769,40.769,0,0,1,13.559,22.933,135.361,135.361,0,0,1,2.816,28.016s.775-30.678-.756-36.541C-259.215,1277.3-272.675,1253.662-272.675,1253.662Z" transform="translate(308.499 -1205.575)" fill="#d54a41"/>
      <path id="Trazado_149215" data-name="Trazado 149215" d="M-265.063,1255.206s7.992,20.521,9.26,26.3,1.526,33.995,1.526,33.995,3.674-24.6,2.613-31.884-2.577-13.858-2.577-13.858l-4.853-3.582s-.918-9.759-1.433-9.886S-265.063,1255.206-265.063,1255.206Z" transform="translate(317.263 -1204.61)" fill="#d54a41"/>
      <path id="Trazado_149216" data-name="Trazado 149216" d="M-265.5,1303.625c15.546-4.711,13.663-7.066,19.316-4.4s12.738,4.482,9.423,5.34-8.324-1.885-8.324-1.885.785,4.24-2.041,5.5-15.379,1.713-22.373-.244S-265.5,1303.625-265.5,1303.625Z" transform="translate(313.034 -1177.79)" fill="#f09959"/>
      <path id="Trazado_149217" data-name="Trazado 149217" d="M-266.617,1301.054h3.094l-1.547,8.791s-6.1-.905-5.642-1.511S-266.617,1301.054-266.617,1301.054Z" transform="translate(313.716 -1175.948)" fill="#78f291"/>
      <path id="Trazado_149218" data-name="Trazado 149218" d="M-279.5,1258.036c-6.067,10.615-7.991,16.4-12.936,36.27s-6.931,28.906-1.471,31.516c4.518,2.162,37.409,12.026,41.4,10.811,1.819.1,4.612-9.292,4.612-9.292l-29.938-13.346s8.665-20.685,10.16-34.272-5.157-21.686-8.493-21.686Z" transform="translate(297.183 -1202.84)" fill="#f37168"/>
      <path id="Trazado_149219" data-name="Trazado 149219" d="M-264.077,1241.519c-1.466,4.6-.837,5.537-2.865,5.966s-3.879-1.583-4.479-4.409.559-5.467,2.587-5.9S-263.2,1238.766-264.077,1241.519Z" transform="translate(313.189 -1215.915)" fill="#f09959"/>
      <path id="Trazado_149220" data-name="Trazado 149220" d="M-239,1239.2c-7.936,14.1-23.7,12.032-33.278,7.18-7.809-3.957,22.281-18.943,22.281-18.943Z" transform="translate(311.944 -1221.969)" fill="#1e6022"/>
      <path id="Trazado_149221" data-name="Trazado 149221" d="M-259.648,1229.54c-2.941-8.872-14.994-6.774-20.454,5.03s2.894,19.7,7.958,16.8S-259.648,1229.54-259.648,1229.54Z" transform="translate(306.746 -1224.073)" fill="#1e6022"/>
    </g>
    <g id="Grupo_93379" data-name="Grupo 93379" transform="translate(-193.367 1171.091)">
      <path id="Trazado_149222" data-name="Trazado 149222" d="M-110.4,1252.268a70.161,70.161,0,0,0,2.113-10.791l-11.14-5.015c.055-1.056.086-2.119.086-3.188a59.491,59.491,0,0,0-.644-8.732l10.62-6.044a70.04,70.04,0,0,0-3.127-10.541l-12.2.736a58.95,58.95,0,0,0-6.049-10.291l6.592-10.282a70.906,70.906,0,0,0-7.677-7.88l-10.451,6.317a59.121,59.121,0,0,0-10.126-6.317l1.06-12.174a70.013,70.013,0,0,0-10.453-3.406l-6.322,10.456a59.335,59.335,0,0,0-10.277-.894c-.544,0-1.086.008-1.627.023l-4.718-11.267a70.524,70.524,0,0,0-10.845,1.825l-.738,12.193a58.692,58.692,0,0,0-10.952,4.762l-9.413-7.785a71.039,71.039,0,0,0-8.742,6.676l5.012,11.139a59.358,59.358,0,0,0-7.487,9.291l-11.958-2.519a70.113,70.113,0,0,0-4.65,9.962l9.616,7.536a58.75,58.75,0,0,0-2.295,11.716l-11.751,3.323c-.023.723-.037,1.448-.037,2.176a71.327,71.327,0,0,0,.548,8.812l12.013,2.2a58.675,58.675,0,0,0,3.4,11.446l-8.864,8.409a70.64,70.64,0,0,0,5.574,9.479l11.665-3.634a59.454,59.454,0,0,0,8.324,8.545l-3.941,11.566a70.578,70.578,0,0,0,9.33,5.821l8.638-8.636a58.567,58.567,0,0,0,11.353,3.7l1.884,12.07a71.219,71.219,0,0,0,10.663.8c.1,0,.2,0,.309,0l3.634-11.66a58.817,58.817,0,0,0,11.771-1.984l7.279,9.816a70.049,70.049,0,0,0,10.082-4.386l-2.2-12.018a59.255,59.255,0,0,0,9.484-7.242l11,5.306a71.031,71.031,0,0,0,6.9-8.564l-7.531-9.615a58.731,58.731,0,0,0,5.051-10.82Zm-67.993,10.05a29.045,29.045,0,0,1-29.044-29.044,29.044,29.044,0,0,1,29.044-29.043,29.043,29.043,0,0,1,29.043,29.043A29.044,29.044,0,0,1-178.4,1262.318Z" transform="translate(248.98 -1162.978)" fill="#03ff0b" opacity="0.5"/>
      <g id="Grupo_93377" data-name="Grupo 93377" transform="translate(24.34 93.486)">
        <path id="Trazado_149223" data-name="Trazado 149223" d="M-228.89,1228.962a.756.756,0,0,1-.609-.307,52.842,52.842,0,0,1-4.417-7.042.759.759,0,0,1,.322-1.024.759.759,0,0,1,1.022.322,51.217,51.217,0,0,0,4.29,6.84.756.756,0,0,1-.156,1.06A.748.748,0,0,1-228.89,1228.962Z" transform="translate(234.003 -1220.503)" fill="#fff"/>
      </g>
      <g id="Grupo_93378" data-name="Grupo 93378" transform="translate(38.813 110.697)">
        <path id="Trazado_149224" data-name="Trazado 149224" d="M-199.634,1242.839c-.033,0-.067,0-.1-.007a52.474,52.474,0,0,1-25.066-10.378.757.757,0,0,1-.141-1.063.757.757,0,0,1,1.063-.142,50.943,50.943,0,0,0,24.341,10.078.761.761,0,0,1,.653.852A.759.759,0,0,1-199.634,1242.839Z" transform="translate(225.097 -1231.094)" fill="#fff"/>
      </g>
    </g>
    <g id="Grupo_93394" data-name="Grupo 93394" transform="translate(-121.804 1206.319)">
      <rect id="Rectngulo_36388" data-name="Rectngulo 36388" width="137.867" height="76.489" fill="#03ff0b"/>
      <rect id="Rectngulo_36389" data-name="Rectngulo 36389" width="132.408" height="69.664" transform="translate(1.517 1.668)" fill="#fff"/>
      <g id="Grupo_93391" data-name="Grupo 93391" transform="translate(3.308 2.349)" opacity="0.5">
        <g id="Grupo_93380" data-name="Grupo 93380">
          <path id="Trazado_149225" data-name="Trazado 149225" d="M-77.035,1249.617H-202.606a.3.3,0,0,1-.3-.3V1186.4a.3.3,0,0,1,.3-.3H-77.035a.3.3,0,0,1,.3.3v62.909A.3.3,0,0,1-77.035,1249.617Zm-125.269-.608H-77.339v-62.3H-202.3Z" transform="translate(202.91 -1186.1)" fill="#03ff0b"/>
        </g>
        <g id="Grupo_93381" data-name="Grupo 93381" transform="translate(0 52.425)">
          <path id="Trazado_149226" data-name="Trazado 149226" d="M-77.035,1218.965H-202.606a.3.3,0,0,1-.3-.3.3.3,0,0,1,.3-.3H-77.035a.3.3,0,0,1,.3.3A.3.3,0,0,1-77.035,1218.965Z" transform="translate(202.91 -1218.359)" fill="#03ff0b"/>
        </g>
        <g id="Grupo_93382" data-name="Grupo 93382" transform="translate(0 41.94)">
          <path id="Trazado_149227" data-name="Trazado 149227" d="M-77.035,1212.513H-202.606a.3.3,0,0,1-.3-.3.3.3,0,0,1,.3-.3H-77.035a.3.3,0,0,1,.3.3A.3.3,0,0,1-77.035,1212.513Z" transform="translate(202.91 -1211.907)" fill="#03ff0b"/>
        </g>
        <g id="Grupo_93383" data-name="Grupo 93383" transform="translate(0 31.455)">
          <path id="Trazado_149228" data-name="Trazado 149228" d="M-77.035,1206.063H-202.606a.3.3,0,0,1-.3-.3.3.3,0,0,1,.3-.3H-77.035a.3.3,0,0,1,.3.3A.3.3,0,0,1-77.035,1206.063Z" transform="translate(202.91 -1205.455)" fill="#03ff0b"/>
        </g>
        <g id="Grupo_93384" data-name="Grupo 93384" transform="translate(0 20.971)">
          <path id="Trazado_149229" data-name="Trazado 149229" d="M-77.035,1199.61H-202.606a.3.3,0,0,1-.3-.3.3.3,0,0,1,.3-.3H-77.035a.3.3,0,0,1,.3.3A.3.3,0,0,1-77.035,1199.61Z" transform="translate(202.91 -1199.004)" fill="#03ff0b"/>
        </g>
        <g id="Grupo_93385" data-name="Grupo 93385" transform="translate(0 10.485)">
          <path id="Trazado_149230" data-name="Trazado 149230" d="M-77.035,1193.158H-202.606a.3.3,0,0,1-.3-.3.3.3,0,0,1,.3-.3H-77.035a.3.3,0,0,1,.3.3A.3.3,0,0,1-77.035,1193.158Z" transform="translate(202.91 -1192.552)" fill="#03ff0b"/>
        </g>
        <g id="Grupo_93386" data-name="Grupo 93386" transform="translate(104.643)">
          <path id="Trazado_149231" data-name="Trazado 149231" d="M-138.216,1249.617a.3.3,0,0,1-.3-.3V1186.4a.3.3,0,0,1,.3-.3.3.3,0,0,1,.3.3v62.909A.3.3,0,0,1-138.216,1249.617Z" transform="translate(138.52 -1186.1)" fill="#03ff0b"/>
        </g>
        <g id="Grupo_93387" data-name="Grupo 93387" transform="translate(83.714)">
          <path id="Trazado_149232" data-name="Trazado 149232" d="M-151.094,1249.617a.3.3,0,0,1-.3-.3V1186.4a.3.3,0,0,1,.3-.3.3.3,0,0,1,.3.3v62.909A.3.3,0,0,1-151.094,1249.617Z" transform="translate(151.398 -1186.1)" fill="#03ff0b"/>
        </g>
        <g id="Grupo_93388" data-name="Grupo 93388" transform="translate(62.786)">
          <path id="Trazado_149233" data-name="Trazado 149233" d="M-163.972,1249.617a.3.3,0,0,1-.3-.3V1186.4a.3.3,0,0,1,.3-.3.3.3,0,0,1,.3.3v62.909A.3.3,0,0,1-163.972,1249.617Z" transform="translate(164.276 -1186.1)" fill="#03ff0b"/>
        </g>
        <g id="Grupo_93389" data-name="Grupo 93389" transform="translate(41.857)">
          <path id="Trazado_149234" data-name="Trazado 149234" d="M-176.85,1249.617a.3.3,0,0,1-.3-.3V1186.4a.3.3,0,0,1,.3-.3.3.3,0,0,1,.3.3v62.909A.3.3,0,0,1-176.85,1249.617Z" transform="translate(177.154 -1186.1)" fill="#03ff0b"/>
        </g>
        <g id="Grupo_93390" data-name="Grupo 93390" transform="translate(20.929)">
          <path id="Trazado_149235" data-name="Trazado 149235" d="M-189.728,1249.617a.3.3,0,0,1-.3-.3V1186.4a.3.3,0,0,1,.3-.3.3.3,0,0,1,.3.3v62.909A.3.3,0,0,1-189.728,1249.617Z" transform="translate(190.032 -1186.1)" fill="#03ff0b"/>
        </g>
      </g>
      <g id="Grupo_93392" data-name="Grupo 93392" transform="translate(3.005 2.046)">
        <path id="Trazado_149236" data-name="Trazado 149236" d="M-202.49,1250.036a.6.6,0,0,1-.543-.335.608.608,0,0,1,.27-.814l20.847-10.443,10.75-10.344,9.985-20.872a.6.6,0,0,1,.143-.19l11.35-10.113a.614.614,0,0,1,.527-.141.606.606,0,0,1,.427.338l9.569,20.578,11.369,20.2,8.561-9.835a.6.6,0,0,1,.437-.208.593.593,0,0,1,.45.177l9.743,9.788,10.182-30.522a.594.594,0,0,1,.146-.236l20.929-20.971a.6.6,0,0,1,.856,0,.606.606,0,0,1,0,.858l-20.828,20.868-10.448,31.318a.607.607,0,0,1-.437.4.61.61,0,0,1-.567-.163l-9.977-10.024-8.7,9.993a.609.609,0,0,1-.52.206.609.609,0,0,1-.466-.307l-11.8-20.969-.021-.042-9.234-19.856-10.65,9.488-9.98,20.86a.58.58,0,0,1-.127.176l-10.9,10.484a.63.63,0,0,1-.148.106l-20.929,10.486A.606.606,0,0,1-202.49,1250.036Z" transform="translate(203.097 -1185.913)" fill="#ffce59"/>
      </g>
      <g id="Grupo_93393" data-name="Grupo 93393" transform="translate(3.004 2.046)">
        <path id="Trazado_149237" data-name="Trazado 149237" d="M-202.489,1250.036a.6.6,0,0,1-.424-.172.606.606,0,0,1-.011-.858l30.689-31.454a.606.606,0,0,1,.848-.018l10.741,10.082,20.513-20.553a.609.609,0,0,1,.852-.01l10.453,10.063,9.616-10.045a.608.608,0,0,1,.432-.187.617.617,0,0,1,.436.179l20.332,20.373,20.553-41.186a.606.606,0,0,1,.813-.271.607.607,0,0,1,.273.814L-97.3,1228.73a.606.606,0,0,1-.447.328.6.6,0,0,1-.525-.171l-20.491-20.531-9.606,10.037a.607.607,0,0,1-.426.187.608.608,0,0,1-.434-.169l-10.463-10.073-20.508,20.548a.607.607,0,0,1-.845.015l-10.736-10.077-30.272,31.029A.6.6,0,0,1-202.489,1250.036Z" transform="translate(203.097 -1185.914)" fill="#03ff0b"/>
      </g>
    </g>
    <g id="Grupo_93397" data-name="Grupo 93397" transform="translate(-175.798 1175.98)">
      <path id="Rectngulo_36390" data-name="Rectngulo 36390" d="M9.867,0h27.62a9.867,9.867,0,0,1,9.867,9.867v30.19A29.138,29.138,0,0,1,18.216,69.2H0a0,0,0,0,1,0,0V9.867A9.867,9.867,0,0,1,9.867,0Z" transform="translate(21.148)" fill="#03ff0b"/>
      <path id="Rectngulo_36391" data-name="Rectngulo 36391" d="M9.372,0H35.853a9.373,9.373,0,0,1,9.373,9.373V38.279A27.829,27.829,0,0,1,17.4,66.108H0a0,0,0,0,1,0,0V9.372A9.372,9.372,0,0,1,9.372,0Z" transform="translate(21.682 1.171)" fill="#fff"/>
      <path id="Trazado_149238" data-name="Trazado 149238" d="M-189.871,1200.153v-1.193a1.6,1.6,0,0,0-1.472-1.7H-236.7a1.6,1.6,0,0,0-1.471,1.7v1.193c0,8.451,5.919,15.3,13.219,15.3h46.343C-185.909,1215.455-189.972,1209.374-189.871,1200.153Z" transform="translate(238.169 -1146.438)" fill="#03ff0b"/>
      <path id="Trazado_149239" data-name="Trazado 149239" d="M-191.74,1200.669v-.964a1.377,1.377,0,0,0-1.378-1.378h-42.47a1.378,1.378,0,0,0-1.378,1.378v.964a12.38,12.38,0,0,0,12.38,12.379h45.226C-186.2,1213.047-191.74,1209.74-191.74,1200.669Z" transform="translate(238.921 -1145.769)" fill="#fff"/>
      <g id="Grupo_93395" data-name="Grupo 93395" transform="translate(28.003 7.494)">
        <path id="Trazado_149240" data-name="Trazado 149240" d="M-186.781,1191.855h-32.3a1.854,1.854,0,0,1-1.853-1.853v-17.551a1.854,1.854,0,0,1,1.853-1.853h32.3a1.855,1.855,0,0,1,1.854,1.853V1190A1.855,1.855,0,0,1-186.781,1191.855Zm-32.3-20.651a1.248,1.248,0,0,0-1.246,1.247V1190a1.248,1.248,0,0,0,1.246,1.247h32.3a1.249,1.249,0,0,0,1.248-1.247v-17.551a1.249,1.249,0,0,0-1.248-1.247Z" transform="translate(220.938 -1170.598)" fill="#03ff0b"/>
      </g>
      <path id="Trazado_149241" data-name="Trazado 149241" d="M-192.514,1189.627h-35.509a.92.92,0,0,1-.918-.918.92.92,0,0,1,.918-.917h35.509a.92.92,0,0,1,.917.917A.92.92,0,0,1-192.514,1189.627Z" transform="translate(243.937 -1152.355)" fill="#03ff0b"/>
      <path id="Trazado_149242" data-name="Trazado 149242" d="M-192.514,1191.686h-35.509a.92.92,0,0,1-.918-.917.92.92,0,0,1,.918-.918h35.509a.92.92,0,0,1,.917.918A.92.92,0,0,1-192.514,1191.686Z" transform="translate(243.937 -1151.068)" fill="#03ff0b"/>
      <path id="Trazado_149243" data-name="Trazado 149243" d="M-192.514,1193.674h-35.509a.92.92,0,0,1-.918-.918.92.92,0,0,1,.918-.917h35.509a.92.92,0,0,1,.917.917A.92.92,0,0,1-192.514,1193.674Z" transform="translate(243.937 -1149.825)" fill="#03ff0b"/>
      <g id="Grupo_93396" data-name="Grupo 93396" transform="translate(51.702 10.285)">
        <rect id="Rectngulo_36392" data-name="Rectngulo 36392" width="2.094" height="1.885" rx="0.58" fill="#03ff0b"/>
        <rect id="Rectngulo_36393" data-name="Rectngulo 36393" width="2.094" height="1.885" rx="0.58" transform="translate(3.808)" fill="#03ff0b"/>
        <rect id="Rectngulo_36394" data-name="Rectngulo 36394" width="2.094" height="1.885" rx="0.58" transform="translate(7.615)" fill="#03ff0b"/>
      </g>
      <rect id="Rectngulo_36395" data-name="Rectngulo 36395" width="4.781" height="7.894" transform="translate(31.536 18.123)" fill="#03ff0b"/>
      <rect id="Rectngulo_36396" data-name="Rectngulo 36396" width="4.781" height="7.236" transform="translate(44.716 18.78)" fill="#03ff0b"/>
      <rect id="Rectngulo_36397" data-name="Rectngulo 36397" width="4.781" height="10.467" transform="translate(52.34 15.55)" fill="#03ff0b"/>
      <rect id="Rectngulo_36398" data-name="Rectngulo 36398" width="4.781" height="4.781" transform="translate(37.997 21.235)" fill="#03ff0b"/>
    </g>
    <g id="Grupo_93399" data-name="Grupo 93399" transform="translate(124.608 1234.928)">
      <path id="Trazado_149244" data-name="Trazado 149244" d="M-36.3,1220.746h17.02a17.1,17.1,0,0,1-17.02,17.022,17.1,17.1,0,0,1-17.022-17.022,17.1,17.1,0,0,1,17.022-17.02Z" transform="translate(53.32 -1201.342)" fill="#03ff0b"/>
      <g id="Grupo_93398" data-name="Grupo 93398" transform="translate(2.85)">
        <path id="Trazado_149245" data-name="Trazado 149245" d="M-24.072,1219.281a17.021,17.021,0,0,0-17.02-17.022v17.022Z" transform="translate(58.114 -1202.259)" fill="#ffce59"/>
        <path id="Trazado_149246" data-name="Trazado 149246" d="M-51.566,1212.733a17.021,17.021,0,0,0,17.022,17.02A17.1,17.1,0,0,1-51.566,1212.733Z" transform="translate(51.566 -1195.711)" fill="#f39892"/>
        <path id="Trazado_149247" data-name="Trazado 149247" d="M-34.544,1202.259a17.021,17.021,0,0,0-17.022,17.022A17.1,17.1,0,0,1-34.544,1202.259Z" transform="translate(51.566 -1202.259)" fill="#f39892"/>
        <path id="Trazado_149248" data-name="Trazado 149248" d="M-41.092,1229.753a17.02,17.02,0,0,0,17.02-17.02A17.1,17.1,0,0,1-41.092,1229.753Z" transform="translate(58.114 -1195.711)" fill="#f39892"/>
      </g>
    </g>
    <circle id="Elipse_5245" data-name="Elipse 5245" cx="1.509" cy="1.509" r="1.509" transform="translate(-66.496 1218.319)" fill="#f35e25"/>
    <circle id="Elipse_5246" data-name="Elipse 5246" cx="1.509" cy="1.509" r="1.509" transform="translate(-88.94 1238.917)" fill="#03ff0b"/>
    <circle id="Elipse_5247" data-name="Elipse 5247" cx="1.509" cy="1.509" r="1.509" transform="translate(-56.917 1228.432)" fill="#03ff0b"/>
    <circle id="Elipse_5248" data-name="Elipse 5248" cx="1.509" cy="1.509" r="1.509" transform="translate(-35.988 1228.432)" fill="#03ff0b"/>
    <circle id="Elipse_5249" data-name="Elipse 5249" cx="1.509" cy="1.509" r="1.509" transform="translate(-15.06 1228.432)" fill="#f35e25"/>
    <g id="Grupo_93401" data-name="Grupo 93401" transform="translate(-173.982 1236.853)">
      <circle id="Elipse_5250" data-name="Elipse 5250" cx="8.144" cy="8.144" r="8.144" fill="#8fd46f"/>
      <g id="Grupo_93400" data-name="Grupo 93400" transform="translate(4.669 5.454)">
        <path id="Trazado_149249" data-name="Trazado 149249" d="M-231.512,1212.334h-.016a.454.454,0,0,1-.325-.154l-2.212-2.514a.455.455,0,0,1,.041-.642.455.455,0,0,1,.642.041l1.895,2.153,4.383-4.289a.456.456,0,0,1,.644.007.456.456,0,0,1-.007.644l-4.726,4.625A.456.456,0,0,1-231.512,1212.334Z" transform="translate(234.179 -1206.799)" fill="#fff"/>
      </g>
    </g>
    <g id="Grupo_93402" data-name="Grupo 93402" transform="translate(-280.905 1186.956)">
      <rect id="Rectngulo_36399" data-name="Rectngulo 36399" width="5.421" height="29.573" transform="translate(0 9.004)" fill="#03ff0b"/>
      <rect id="Rectngulo_36400" data-name="Rectngulo 36400" width="5.421" height="20.97" transform="translate(22.974 17.607)" fill="#03ff0b"/>
      <rect id="Rectngulo_36401" data-name="Rectngulo 36401" width="5.421" height="29.573" transform="translate(34.461 9.004)" fill="#03ff0b"/>
      <rect id="Rectngulo_36402" data-name="Rectngulo 36402" width="5.421" height="10.485" transform="translate(45.948 28.092)" fill="#03ff0b"/>
      <rect id="Rectngulo_36403" data-name="Rectngulo 36403" width="5.421" height="38.577" transform="translate(11.487)" fill="#03ff0b"/>
      <rect id="Rectngulo_36404" data-name="Rectngulo 36404" width="5.421" height="20.97" transform="translate(57.473 17.607)" fill="#03ff0b"/>
    </g>
    <g id="Grupo_93403" data-name="Grupo 93403" transform="translate(52.645 1177.622)">
      <rect id="Rectngulo_36405" data-name="Rectngulo 36405" width="5.421" height="15.685" transform="translate(0 21.014)" fill="#03ff0b"/>
      <rect id="Rectngulo_36406" data-name="Rectngulo 36406" width="5.421" height="10.583" transform="translate(69.483 26.117)" fill="#03ff0b"/>
      <rect id="Rectngulo_36407" data-name="Rectngulo 36407" width="5.421" height="36.7" transform="translate(22.974)" fill="#03ff0b"/>
      <rect id="Rectngulo_36408" data-name="Rectngulo 36408" width="5.421" height="16.496" transform="translate(34.461 20.204)" fill="#03ff0b"/>
      <rect id="Rectngulo_36409" data-name="Rectngulo 36409" width="5.421" height="21.165" transform="translate(45.948 15.534)" fill="#03ff0b"/>
      <rect id="Rectngulo_36410" data-name="Rectngulo 36410" width="5.421" height="26.042" transform="translate(11.487 10.658)" fill="#03ff0b"/>
      <rect id="Rectngulo_36411" data-name="Rectngulo 36411" width="5.421" height="32.075" transform="translate(57.473 4.625)" fill="#03ff0b"/>
    </g>
    <g id="Grupo_93405" data-name="Grupo 93405" transform="translate(-319.762 1254.589)">
      <g id="Grupo_93404" data-name="Grupo 93404" clip-path="url(#clip-path)">
        <path id="Trazado_149250" data-name="Trazado 149250" d="M-292.63,1239.552l-19.5-11.922-3.527,22.578A22.879,22.879,0,0,0-292.63,1239.552Z" transform="translate(333.696 -1206.059)" fill="#78f291"/>
        <path id="Trazado_149251" data-name="Trazado 149251" d="M-293.967,1243.679c.054-.086.122-.2.119-.2a22.854,22.854,0,0,0,.507-22.5c-6.9,3.615-2.79,1.419-20.14,10.8C-293.954,1243.726-296.987,1241.885-293.967,1243.679Z" transform="translate(335.053 -1210.214)" fill="#8fd46f"/>
        <path id="Trazado_149252" data-name="Trazado 149252" d="M-326.669,1228.514l21.431,7.9,20.1-10.87C-294.538,1208.15-319.852,1210.235-326.669,1228.514Z" transform="translate(326.809 -1214.84)" fill="#03ff0b"/>
        <path id="Trazado_149253" data-name="Trazado 149253" d="M-308.212,1253.245l3.527-22.578-21.431-7.9A22.9,22.9,0,0,0-308.212,1253.245Z" transform="translate(326.256 -1209.097)" fill="#ffce59"/>
        <path id="Trazado_149254" data-name="Trazado 149254" d="M-283.87,1248.366a23.7,23.7,0,0,0,.592-22.221l.013-.008-.361-.666-.023-.041-.3-.548-.011,0a23.333,23.333,0,0,0-9.419-9.136,23.61,23.61,0,0,0-12.562-2.576,23.465,23.465,0,0,0-20.324,14.662l-.013,0-.263.708-.267.713.013.005a23.314,23.314,0,0,0,2,19.264,23.636,23.636,0,0,0,16.006,11.374l0,.013.748.119.751.119,0-.013a23.642,23.642,0,0,0,2.911.182,23.477,23.477,0,0,0,9.928-2.208,23.569,23.569,0,0,0,9.811-8.487l.016.01.148-.244.242-.4c.037-.06.081-.137.106-.179l.016-.028.011-.02.241-.393Zm-2.287-20.615,1.575-.824a22.185,22.185,0,0,1-.569,20.628l-.145-.084c-.8-.471-1.142-.678-2.73-1.645l-14.852-9.083,12.33-6.668C-288.738,1229.1-287.995,1228.714-286.157,1227.751Zm-38.683.611a21.962,21.962,0,0,1,19.008-13.674,21.751,21.751,0,0,1,20.5,10.843l-5.937,3.211c-1.227.658-2.94,1.586-5.808,3.138l-7.113,3.848-.184.1-.6-.366-.033.208-9.39-3.46Zm1.355,19.4a21.807,21.807,0,0,1-1.885-17.976l14.118,5.2,6.01,2.215-3.312,21.2A22.12,22.12,0,0,1-323.485,1247.759Zm16.429,10.879,3.232-20.695,8.412,5.144c3.39,2.075,5.33,3.262,6.553,4.006l2.9,1.776A22,22,0,0,1-307.056,1258.637Z" transform="translate(325.968 -1215.132)" fill="#e7feee"/>
      </g>
    </g>
    <path id="Trazado_149256" data-name="Trazado 149256" d="M-316.689,1260.466a6.8,6.8,0,0,1-6.8,6.8,6.8,6.8,0,0,1-6.806-6.8,6.806,6.806,0,0,1,6.806-6.8A6.805,6.805,0,0,1-316.689,1260.466Z" transform="translate(4.777 64.803)" fill="#03ff0b"/>
    <path id="Trazado_149257" data-name="Trazado 149257" d="M-320.4,1259.349a3.413,3.413,0,0,1-3.414,3.413,3.412,3.412,0,0,1-3.413-3.413,3.413,3.413,0,0,1,3.413-3.414A3.413,3.413,0,0,1-320.4,1259.349Z" transform="translate(6.695 66.224)" fill="#fff"/>
    <rect id="Rectngulo_36412" data-name="Rectngulo 36412" width="25.879" height="25.879" rx="7.962" transform="translate(126.063 1299.299)" fill="#03ff0b"/>
    <g id="Grupo_93406" data-name="Grupo 93406" transform="translate(133.176 1302.503)">
      <path id="Trazado_149258" data-name="Trazado 149258" d="M-25.9,1271.235H-42.8a5.256,5.256,0,0,1-5.251-5.251v-16.893a5.256,5.256,0,0,1,5.251-5.251H-25.9a5.256,5.256,0,0,1,5.251,5.251v16.893A5.256,5.256,0,0,1-25.9,1271.235ZM-42.8,1245.356a3.739,3.739,0,0,0-3.735,3.735v16.893a3.739,3.739,0,0,0,3.735,3.735H-25.9a3.739,3.739,0,0,0,3.735-3.735v-16.893a3.739,3.739,0,0,0-3.735-3.735Z" transform="translate(48.048 -1243.84)" fill="#fff"/>
    </g>
    <rect id="Rectngulo_36413" data-name="Rectngulo 36413" width="10.221" height="10.221" rx="1.12" transform="translate(-155.554 1319.784) rotate(-40.928)" fill="#03ff0b"/>
    <path id="Trazado_149259" data-name="Trazado 149259" d="M-203.464,1262.4a3.808,3.808,0,0,1-3.808,3.808,3.808,3.808,0,0,1-3.808-3.808,3.808,3.808,0,0,1,3.808-3.808A3.808,3.808,0,0,1-203.464,1262.4Z" transform="translate(79.307 67.887)" fill="#03ff0b"/>
    <path id="Trazado_149260" data-name="Trazado 149260" d="M-2.993,1255.141a3.8,3.8,0,0,1-3.795,3.8,3.8,3.8,0,0,1-3.8-3.8,3.8,3.8,0,0,1,3.8-3.795A3.8,3.8,0,0,1-2.993,1255.141Z" transform="translate(204.644 63.355)" fill="#03ff0b"/>
    <path id="Trazado_149261" data-name="Trazado 149261" d="M-63.371,1207.545a3.8,3.8,0,0,1-3.8,3.795,3.8,3.8,0,0,1-3.795-3.795,3.8,3.8,0,0,1,3.795-3.8A3.8,3.8,0,0,1-63.371,1207.545Z" transform="translate(166.899 33.601)" fill="#03ff0b"/>
    <circle id="Elipse_5251" data-name="Elipse 5251" cx="2.957" cy="2.957" r="2.957" transform="translate(169.925 1285.181)" fill="#03ff0b"/>
    <g id="Grupo_93408" data-name="Grupo 93408" transform="translate(6.076 1222.087)">
      <path id="Rectngulo_36414" data-name="Rectngulo 36414" d="M8.169,0H57.177a8.17,8.17,0,0,1,8.17,8.17V21.362a8.17,8.17,0,0,1-8.17,8.17H8.17A8.17,8.17,0,0,1,0,21.362V8.169A8.169,8.169,0,0,1,8.169,0Z" fill="#03ff0b"/>
      <rect id="Rectngulo_36415" data-name="Rectngulo 36415" width="61.773" height="20.387" rx="6.272" transform="translate(1.787 7.759)" fill="#fff"/>
      <g id="Grupo_93407" data-name="Grupo 93407" transform="translate(2.694 2.173)">
        <rect id="Rectngulo_36416" data-name="Rectngulo 36416" width="2.56" height="2.304" rx="0.709" fill="#fff"/>
        <rect id="Rectngulo_36417" data-name="Rectngulo 36417" width="2.56" height="2.304" rx="0.709" transform="translate(4.655)" fill="#fff"/>
        <rect id="Rectngulo_36418" data-name="Rectngulo 36418" width="2.56" height="2.304" rx="0.709" transform="translate(9.309)" fill="#fff"/>
      </g>
      <path id="Trazado_149262" data-name="Trazado 149262" d="M-75.748,1202.633h-32.675a.98.98,0,0,1-.977-.977.981.981,0,0,1,.977-.978h32.675a.981.981,0,0,1,.978.978A.98.98,0,0,1-75.748,1202.633Z" transform="translate(136.794 -1190.407)" fill="#03ff0b"/>
      <path id="Trazado_149263" data-name="Trazado 149263" d="M-90.87,1211.913h-32.675a.98.98,0,0,1-.977-.977.98.98,0,0,1,.977-.978H-90.87a.98.98,0,0,1,.977.977A.98.98,0,0,1-90.87,1211.913Z" transform="translate(127.341 -1184.605)" fill="#03ff0b"/>
      <rect id="Rectngulo_36419" data-name="Rectngulo 36419" width="4.049" height="1.955" rx="0.601" transform="translate(38.774 25.353)" fill="#03ff0b"/>
      <path id="Rectngulo_36420" data-name="Rectngulo 36420" d="M.6,0H3.448a.6.6,0,0,1,.6.6v.752a.6.6,0,0,1-.6.6H.6a.6.6,0,0,1-.6-.6V.6A.6.6,0,0,1,.6,0Z" transform="translate(43.871 25.353)" fill="#03ff0b"/>
      <path id="Trazado_149264" data-name="Trazado 149264" d="M-67.429,1205.012h-54.109a.666.666,0,0,1-.665-.663.665.665,0,0,1,.665-.663h54.109a.665.665,0,0,1,.663.663A.666.666,0,0,1-67.429,1205.012Z" transform="translate(128.79 -1188.526)" fill="#03ff0b"/>
      <path id="Trazado_149265" data-name="Trazado 149265" d="M-67.429,1206.773h-54.109a.665.665,0,0,1-.665-.663.666.666,0,0,1,.665-.663h54.109a.666.666,0,0,1,.663.663A.665.665,0,0,1-67.429,1206.773Z" transform="translate(128.79 -1187.425)" fill="#03ff0b"/>
    </g>
    <circle id="Elipse_5252" data-name="Elipse 5252" cx="7.505" cy="7.505" r="7.505" transform="matrix(0.23, -0.973, 0.973, 0.23, -326.153, 1226.918)" fill="#03ff0b"/>
    <path id="Trazado_149266" data-name="Trazado 149266" d="M-239.568,1208.267H-293.5a1,1,0,0,1-1-1,1,1,0,0,1,1-1h53.934a1,1,0,0,1,1,1A1,1,0,0,1-239.568,1208.267Z" transform="translate(27.155 35.172)" fill="#03ff0b"/>
    <path id="Trazado_149267" data-name="Trazado 149267" d="M-239.568,1211.344H-293.5a1,1,0,0,1-1-1,1,1,0,0,1,1-1h53.934a1,1,0,0,1,1,1A1,1,0,0,1-239.568,1211.344Z" transform="translate(27.155 37.097)" fill="#03ff0b"/>
    <g id="Grupo_93412" data-name="Grupo 93412" transform="translate(-84.69 1278.945)">
      <path id="Trazado_149268" data-name="Trazado 149268" d="M-107.3,1270.328a37.986,37.986,0,0,0,.236-4.214c0-.751-.024-1.5-.068-2.238l-6.96-2.252a30.649,30.649,0,0,0-2.465-8.342l4.615-5.68a37.632,37.632,0,0,0-3.657-5.316l-6.962,2.272a30.994,30.994,0,0,0-6.892-5.3l.4-7.315a37.359,37.359,0,0,0-6.078-2.153l-4.3,5.932a31.115,31.115,0,0,0-5.152-.431,31.4,31.4,0,0,0-3.54.2l-3.98-6.153a37.288,37.288,0,0,0-6.184,1.828l.008,7.326a30.837,30.837,0,0,0-7.162,4.927l-6.832-2.636a37.737,37.737,0,0,0-3.933,5.115l4.31,5.917a30.609,30.609,0,0,0-2.906,8.2l-7.069,1.882a37.957,37.957,0,0,0-.237,4.212c0,.752.024,1.5.068,2.238l6.962,2.252a30.52,30.52,0,0,0,2.465,8.342l-4.617,5.68a37.631,37.631,0,0,0,3.657,5.316l6.962-2.272a30.922,30.922,0,0,0,6.894,5.3l-.4,7.315a37.091,37.091,0,0,0,6.078,2.153l4.3-5.932a31.133,31.133,0,0,0,5.153.431,31.058,31.058,0,0,0,3.538-.2l3.982,6.153a37.113,37.113,0,0,0,6.184-1.828l-.01-7.326a30.857,30.857,0,0,0,7.164-4.927l6.83,2.636a37.58,37.58,0,0,0,3.933-5.114l-4.31-5.917a30.608,30.608,0,0,0,2.906-8.2Zm-37.287,10.5a14.716,14.716,0,0,1-14.717-14.717,14.717,14.717,0,0,1,14.717-14.717,14.718,14.718,0,0,1,14.717,14.717A14.717,14.717,0,0,1-144.583,1280.832Z" transform="translate(182.108 -1229.344)" fill="#03ff0b" opacity="0.5"/>
      <g id="Grupo_93409" data-name="Grupo 93409" transform="translate(56.839 27.734)">
        <path id="Trazado_149269" data-name="Trazado 149269" d="M-146.376,1272.44a.754.754,0,0,1-.484-.176.758.758,0,0,1-.1-1.068,24.679,24.679,0,0,0,5.688-15.751,24.619,24.619,0,0,0-1.338-8.031.758.758,0,0,1,.47-.964.758.758,0,0,1,.964.471,26.1,26.1,0,0,1,1.42,8.524,26.2,26.2,0,0,1-6.037,16.721A.761.761,0,0,1-146.376,1272.44Z" transform="translate(147.133 -1246.409)" fill="#fff"/>
      </g>
      <g id="Grupo_93410" data-name="Grupo 93410" transform="translate(45.962 12.122)">
        <path id="Trazado_149270" data-name="Trazado 149270" d="M-144.322,1243.708a.754.754,0,0,1-.518-.206,24.518,24.518,0,0,0-8.486-5.228.759.759,0,0,1-.453-.972.756.756,0,0,1,.97-.453,26,26,0,0,1,9.008,5.55.756.756,0,0,1,.033,1.071A.752.752,0,0,1-144.322,1243.708Z" transform="translate(153.826 -1236.803)" fill="#fff"/>
      </g>
      <g id="Grupo_93411" data-name="Grupo 93411" transform="translate(31.058 10.606)">
        <path id="Trazado_149271" data-name="Trazado 149271" d="M-162.24,1238.156a.756.756,0,0,1-.735-.572.759.759,0,0,1,.549-.922,26.3,26.3,0,0,1,6.424-.793.757.757,0,0,1,.757.757.758.758,0,0,1-.757.759,24.808,24.808,0,0,0-6.054.747A.723.723,0,0,1-162.24,1238.156Z" transform="translate(162.997 -1235.87)" fill="#fff"/>
      </g>
    </g>
  </g>
</svg>
