<svg xmlns="http://www.w3.org/2000/svg" xmlns:xlink="http://www.w3.org/1999/xlink" width="320.523" height="325.03" viewBox="0 0 320.523 325.03">
  <defs>
    <linearGradient id="linear-gradient" x1="0.691" y1="0.085" x2="0.112" y2="1.249" gradientUnits="objectBoundingBox">
      <stop offset="0.004" stop-color="#6be33e"/>
      <stop offset="1" stop-color="#25f61e"/>
    </linearGradient>
    <linearGradient id="linear-gradient-2" x1="0.637" y1="0.163" x2="0.362" y2="0.845" gradientUnits="objectBoundingBox">
      <stop offset="0" stop-color="#81f978"/>
      <stop offset="0.996" stop-color="#21d738"/>
    </linearGradient>
    <clipPath id="clip-path">
      <path id="Trazado_149362" data-name="Trazado 149362" d="M1864.735,1884.223a13.585,13.585,0,0,0,2.977-5.668c.44-7.24,2.144-20.74-2.582-26.777-.808-1.031-6.3,1.3-7.658.776-3.862.633-5.163,1.093-9.131-.109-11.716-3.549-7.682-28.229-27.894-21.933-14.8,4.611-22.179,15.916-33.945-3.878s-50.567-43.847-61.392-16.866c-6.213,15.485,16.525,23.5,18.836,39.429,2.2,15.132,13.384,21.1,30.021,19.575s13.843,8.095,17.773,21.2c4.72,15.742,26.066,4.335,35.472-1.772C1834.786,1883.281,1857.39,1875.869,1864.735,1884.223Z" fill="url(#linear-gradient)"/>
    </clipPath>
    <clipPath id="clip-path-2">
      <path id="Trazado_149371" data-name="Trazado 149371" d="M1853.523,1900.088q12.66-9.287,25.031-19.165c.2.051-4.849-20.854-18.313-25.935-26.455-9.639-21.392-33.959-22.187-46.305-.5-17.732-10.028-32.05-25.251-24.058-17.018,8.539-31.429-17.266-38.73-43.9-2.693-13.461-20.435-21.92-33.432-18.989-13.39,2.7-22.035,16.785-15.6,43.037,6.159,31.1,33.926,36.766,47.445,46.683,13.288,9.725.338,30.486,19.568,35.048,16.416,4.418,34.664,4.088,34.84,20.758C1826.853,1883.86,1832.783,1894.187,1853.523,1900.088Z" fill="url(#linear-gradient-2)"/>
    </clipPath>
    <linearGradient id="linear-gradient-5" x1="0.302" y1="0.298" x2="0.81" y2="0.84" gradientUnits="objectBoundingBox">
      <stop offset="0" stop-color="#ffd52c"/>
      <stop offset="1" stop-color="#fbe74f"/>
    </linearGradient>
    <linearGradient id="linear-gradient-6" x1="0.978" y1="0.047" x2="0.263" y2="0.702" gradientUnits="objectBoundingBox">
      <stop offset="0" stop-color="#fff"/>
      <stop offset="0.996" stop-color="#ebeff2"/>
    </linearGradient>
    <linearGradient id="linear-gradient-7" x1="0" y1="0.5" x2="1" y2="0.5" xlink:href="#linear-gradient-6"/>
    <linearGradient id="linear-gradient-12" x1="0" y1="0.5" x2="1" y2="0.5" xlink:href="#linear-gradient-6"/>
    <linearGradient id="linear-gradient-13" x1="0.453" y1="1.209" x2="0.493" y2="0.605" gradientUnits="objectBoundingBox">
      <stop offset="0.004" stop-color="#082b4f"/>
      <stop offset="1" stop-color="#3b5e8c"/>
    </linearGradient>
    <linearGradient id="linear-gradient-14" x1="0.341" y1="0.939" x2="0.642" y2="-0.276" xlink:href="#linear-gradient-13"/>
    <linearGradient id="linear-gradient-15" x1="0" y1="0.5" x2="1" y2="0.5" xlink:href="#linear-gradient-13"/>
    <linearGradient id="linear-gradient-16" x1="0.384" y1="1.047" x2="0.649" y2="-0.416" xlink:href="#linear-gradient-13"/>
    <linearGradient id="linear-gradient-19" x1="0.475" y1="1.004" x2="0.576" y2="-0.995" xlink:href="#linear-gradient-13"/>
    <linearGradient id="linear-gradient-20" x1="-0.641" y1="0.986" x2="0.67" y2="0.427" gradientUnits="objectBoundingBox">
      <stop offset="0" stop-color="#ffc444"/>
      <stop offset="0.996" stop-color="#f36f56"/>
    </linearGradient>
    <linearGradient id="linear-gradient-21" x1="-0.788" y1="1.049" x2="0.523" y2="0.49" xlink:href="#linear-gradient-20"/>
    <linearGradient id="linear-gradient-22" x1="-0.573" y1="10.266" x2="0.045" y2="4.833" xlink:href="#linear-gradient-20"/>
    <linearGradient id="linear-gradient-23" x1="0.546" y1="0.061" x2="0.39" y2="1.002" gradientUnits="objectBoundingBox">
      <stop offset="0" stop-color="#fcb148"/>
      <stop offset="0.052" stop-color="#fdb946"/>
      <stop offset="0.142" stop-color="#fec144"/>
      <stop offset="0.318" stop-color="#ffc444"/>
      <stop offset="0.485" stop-color="#fdb946"/>
      <stop offset="0.775" stop-color="#f99c4c"/>
      <stop offset="0.866" stop-color="#f8924f"/>
      <stop offset="1" stop-color="#f8924f"/>
    </linearGradient>
    <linearGradient id="linear-gradient-24" x1="0" y1="0.5" x2="1" y2="0.5" xlink:href="#linear-gradient-20"/>
    <linearGradient id="linear-gradient-25" x1="0.881" y1="0.067" x2="0.433" y2="0.559" xlink:href="#linear-gradient"/>
    <linearGradient id="linear-gradient-27" x1="0.451" y1="-0.115" x2="0.688" y2="2.232" xlink:href="#linear-gradient-20"/>
    <linearGradient id="linear-gradient-28" x1="0.473" y1="0.366" x2="1.052" y2="2.183" xlink:href="#linear-gradient"/>
    <linearGradient id="linear-gradient-29" x1="-0.012" y1="0.026" x2="1.499" y2="1.304" xlink:href="#linear-gradient-2"/>
    <linearGradient id="linear-gradient-30" x1="0.974" y1="-0.105" x2="0.276" y2="0.797" xlink:href="#linear-gradient-5"/>
    <linearGradient id="linear-gradient-31" x1="0.593" y1="-0.143" x2="0.053" y2="3.782" xlink:href="#linear-gradient-5"/>
    <linearGradient id="linear-gradient-32" x1="-218.624" y1="-169.994" x2="-219.417" y2="-168.059" xlink:href="#linear-gradient-5"/>
    <linearGradient id="linear-gradient-35" x1="0.451" y1="-0.115" x2="0.688" y2="2.232" xlink:href="#linear-gradient-20"/>
    <linearGradient id="linear-gradient-39" x1="-166.703" y1="-123.255" x2="-167.496" y2="-121.319" xlink:href="#linear-gradient-5"/>
    <linearGradient id="linear-gradient-40" x1="69.373" y1="-1.8" x2="69.553" y2="3.236" gradientUnits="objectBoundingBox">
      <stop offset="0" stop-color="#234432"/>
      <stop offset="1" stop-color="#3738a0"/>
    </linearGradient>
    <linearGradient id="linear-gradient-41" x1="257.421" y1="1.865" x2="257.299" y2="-4.352" gradientUnits="objectBoundingBox">
      <stop offset="0" stop-color="#ffe6af"/>
      <stop offset="0.996" stop-color="#f3c5bc"/>
    </linearGradient>
    <linearGradient id="linear-gradient-42" x1="109.676" y1="-1.121" x2="109.962" y2="1.83" xlink:href="#linear-gradient-40"/>
    <linearGradient id="linear-gradient-43" x1="182.37" y1="1.869" x2="182.284" y2="-2.513" xlink:href="#linear-gradient-41"/>
    <linearGradient id="linear-gradient-44" x1="39.403" y1="0.538" x2="40.405" y2="0.538" gradientUnits="objectBoundingBox">
      <stop offset="0" stop-color="#3b5e8c"/>
      <stop offset="0.996" stop-color="#135277"/>
    </linearGradient>
    <linearGradient id="linear-gradient-45" x1="42.176" y1="0.538" x2="43.25" y2="0.538" xlink:href="#linear-gradient-44"/>
    <linearGradient id="linear-gradient-46" x1="19.471" y1="0.54" x2="20.468" y2="0.54" xlink:href="#linear-gradient-44"/>
    <linearGradient id="linear-gradient-47" x1="0.799" y1="-0.049" x2="0.226" y2="1.009" xlink:href="#linear-gradient-2"/>
    <linearGradient id="linear-gradient-48" x1="0.549" y1="0.204" x2="0.293" y2="3.433" xlink:href="#linear-gradient-41"/>
    <linearGradient id="linear-gradient-49" x1="202.885" y1="71.583" x2="202.135" y2="69.908" xlink:href="#linear-gradient-44"/>
    <linearGradient id="linear-gradient-50" x1="0.44" y1="-0.008" x2="0.938" y2="4.49" xlink:href="#linear-gradient-41"/>
    <linearGradient id="linear-gradient-51" x1="0" y1="0.5" x2="1" y2="0.5" xlink:href="#linear-gradient-2"/>
    <linearGradient id="linear-gradient-52" x1="477.142" y1="-328.691" x2="478.022" y2="-328.691" xlink:href="#linear-gradient-20"/>
    <linearGradient id="linear-gradient-53" x1="0.819" y1="0.139" x2="-0.341" y2="1.435" xlink:href="#linear-gradient-2"/>
    <linearGradient id="linear-gradient-55" y1="0.5" x2="1" y2="0.5" gradientUnits="objectBoundingBox">
      <stop offset="0" stop-color="#3b5e8c"/>
      <stop offset="0.996" stop-color="#082b4f"/>
    </linearGradient>
    <linearGradient id="linear-gradient-57" x1="-106.309" y1="15.2" x2="-106.812" y2="14.657" xlink:href="#linear-gradient-55"/>
    <linearGradient id="linear-gradient-58" x1="-113.513" y1="15.242" x2="-112.789" y2="16.009" xlink:href="#linear-gradient-55"/>
    <linearGradient id="linear-gradient-59" x1="-808.667" y1="-224.724" x2="-808.463" y2="-226.455" xlink:href="#linear-gradient-41"/>
    <linearGradient id="linear-gradient-60" x1="-0.526" y1="-0.018" x2="1.792" y2="1.129" xlink:href="#linear-gradient-44"/>
    <linearGradient id="linear-gradient-61" x1="-1.535" y1="-0.119" x2="2.33" y2="1.124" xlink:href="#linear-gradient-44"/>
    <linearGradient id="linear-gradient-62" x1="0.936" y1="-0.09" x2="-1.257" y2="2.877" xlink:href="#linear-gradient-2"/>
  </defs>
  <g id="Competitive_intelligence" data-name="Competitive intelligence" transform="translate(-1694.738 -1692.485)">
    <path id="Trazado_149355" data-name="Trazado 149355" d="M1771.79,1712.021c-10.766,15.692,1.857,41.133-14.117,52.935-15.549,11.489-34.65-7.342-49.3,2.547-21.738,14.67-17.768,81.8,14.014,123.505,9.558,12.542,17.545,17.423,21.082,31.608,7.6,30.46-19.1,48.579-14.019,63.644,11.438,33.92,187.34,62.383,257.92-39.559,32.964-47.611,37.9-116.362,8.444-168.579C1942.591,1683.767,1795.944,1676.81,1771.79,1712.021Z" fill="#f4f7fa"/>
    <g id="Grupo_93470" data-name="Grupo 93470">
      <g id="Grupo_93465" data-name="Grupo 93465">
        <g id="Grupo_93464" data-name="Grupo 93464" style="mix-blend-mode: soft-light;isolation: isolate">
          <path id="Trazado_149356" data-name="Trazado 149356" d="M1864.735,1884.223a13.585,13.585,0,0,0,2.977-5.668c.44-7.24,2.144-20.74-2.582-26.777-.808-1.031-6.3,1.3-7.658.776-3.862.633-5.163,1.093-9.131-.109-11.716-3.549-7.682-28.229-27.894-21.933-14.8,4.611-22.179,15.916-33.945-3.878s-50.567-43.847-61.392-16.866c-6.213,15.485,16.525,23.5,18.836,39.429,2.2,15.132,13.384,21.1,30.021,19.575s13.843,8.095,17.773,21.2c4.72,15.742,26.066,4.335,35.472-1.772C1834.786,1883.281,1857.39,1875.869,1864.735,1884.223Z" fill="url(#linear-gradient)"/>
          <g id="Grupo_93463" data-name="Grupo 93463" clip-path="url(#clip-path)">
            <g id="Grupo_93462" data-name="Grupo 93462">
              <path id="Trazado_149357" data-name="Trazado 149357" d="M1846.561,1867.375a135.359,135.359,0,0,1-59.157-13.746c-23.75-11.517-44.928-29.867-61.244-53.068l.32-.226c16.279,23.147,37.405,41.454,61.095,52.941a133.923,133.923,0,0,0,79,12.182l.06.387A132.392,132.392,0,0,1,1846.561,1867.375Z" fill="#fcfdfe"/>
              <path id="Trazado_149358" data-name="Trazado 149358" d="M1792.968,1896.752l-.313-.237c8.947-11.809,28.233-25.313,42.993-30.1l.121.373C1821.073,1871.555,1801.873,1885,1792.968,1896.752Z" fill="#fcfdfe"/>
              <path id="Trazado_149359" data-name="Trazado 149359" d="M1856.142,1867.329c-8.075-1.046-15.3-6.118-21.474-15.076-4.5-6.533-8.355-14.948-11.45-25.012l.375-.115c3.083,10.025,6.918,18.4,11.4,24.9,6.109,8.862,13.242,13.879,21.2,14.91Z" fill="#fcfdfe"/>
              <path id="Trazado_149360" data-name="Trazado 149360" d="M1745.364,1861.651l-.209-.332c9.564-5.989,24.1-12.557,39.018-9.84l-.071.386C1769.3,1849.168,1754.868,1855.7,1745.364,1861.651Z" fill="#fcfdfe"/>
              <path id="Trazado_149361" data-name="Trazado 149361" d="M1755.217,1832.524c-4.63-5.75-12.164-18.711-10.611-40.9l.391.028c-1.543,22.058,5.932,34.924,10.525,40.629Z" fill="#fcfdfe"/>
            </g>
          </g>
        </g>
      </g>
      <g id="Grupo_93469" data-name="Grupo 93469">
        <g id="Grupo_93468" data-name="Grupo 93468" style="mix-blend-mode: soft-light;isolation: isolate">
          <path id="Trazado_149363" data-name="Trazado 149363" d="M1853.523,1900.088q12.66-9.287,25.031-19.165c.2.051-4.849-20.854-18.313-25.935-26.455-9.639-21.392-33.959-22.187-46.305-.5-17.732-10.028-32.05-25.251-24.058-17.018,8.539-31.429-17.266-38.73-43.9-2.693-13.461-20.435-21.92-33.432-18.989-13.39,2.7-22.035,16.785-15.6,43.037,6.159,31.1,33.926,36.766,47.445,46.683,13.288,9.725.338,30.486,19.568,35.048,16.416,4.418,34.664,4.088,34.84,20.758C1826.853,1883.86,1832.783,1894.187,1853.523,1900.088Z" fill="url(#linear-gradient-2)"/>
          <g id="Grupo_93467" data-name="Grupo 93467" clip-path="url(#clip-path-2)">
            <g id="Grupo_93466" data-name="Grupo 93466">
              <path id="Trazado_149364" data-name="Trazado 149364" d="M1865.838,1894.775c-.141-.246-25.282-35.887-56.519-67.44-4.71-5.306-9.6-10.551-14.33-15.623-12.687-13.607-25.806-27.677-35.782-43.4-11.173-17.6-17.25-35.63-18.58-55.109l.783-.054c1.32,19.346,7.358,37.252,18.459,54.743,9.937,15.656,23.031,29.7,35.694,43.28,4.733,5.076,9.626,10.325,14.328,15.622,30.253,30.558,56.345,66.855,56.659,67.652l-.365.144Z" fill="#fff"/>
              <path id="Trazado_149365" data-name="Trazado 149365" d="M1771.259,1785c-14.589-5.564-33.156-14.634-43.13-19.507-4.18-2.041-7.481-3.654-7.893-3.736a.347.347,0,0,0,.253-.07l-.468-.629c.31-.231.321-.241,8.452,3.731,9.963,4.867,28.509,13.927,43.066,19.478Z" fill="#fff"/>
              <path id="Trazado_149366" data-name="Trazado 149366" d="M1761.349,1771.544c-5.522-24.089,4.068-41.631,6.738-44.683.162-.185.317-.332.538-.316l-.072.782a.328.328,0,0,0,.226-.056c-.287.229-3.49,4.478-5.9,12.5a61.665,61.665,0,0,0-.761,31.595Z" fill="#fff"/>
              <path id="Trazado_149367" data-name="Trazado 149367" d="M1828.721,1848.243c-6.328-11.066-8.812-25.3-7.384-42.311a137.289,137.289,0,0,1,5.32-27.479c.135-.453.251-.844.265-.923l.777.106c-.015.111-.081.338-.29,1.04a136.521,136.521,0,0,0-5.291,27.322c-1.414,16.847,1.037,30.93,7.284,41.856Z" fill="#fff"/>
              <path id="Trazado_149368" data-name="Trazado 149368" d="M1778.9,1838.167l-.424-.213.091-.466a53.014,53.014,0,0,1,14.074-4.39c7.361-1.288,18.093-1.582,27.419,4.333l-.42.662c-17.538-11.123-40.391-.1-40.6.019l-.193-.336-.014.005Z" fill="#fff"/>
              <path id="Trazado_149369" data-name="Trazado 149369" d="M1861.589,1888.951c-2.344-5.091-4.141-14.94.613-32.954.107-.4.2-.754.209-.828l.345.049.379-.231c.1.166.1.166-.175,1.21-4.694,17.789-2.949,27.452-.659,32.426Z" fill="#fff"/>
              <path id="Trazado_149370" data-name="Trazado 149370" d="M1855.357,1880.62c-6.465-7.685-23.229-6.9-30.137-6.208-.3.031-.5.049-.567.052l-.023-.785c.064,0,.239-.02.512-.047,20.346-2.044,28.04,3.184,30.815,6.483Z" fill="#fff"/>
            </g>
          </g>
        </g>
      </g>
    </g>
    <g id="Grupo_93476" data-name="Grupo 93476">
      <g id="Grupo_93475" data-name="Grupo 93475">
        <g id="Grupo_93472" data-name="Grupo 93472">
          <path id="Trazado_149372" data-name="Trazado 149372" d="M1910.013,1710.716l-112.249-3.8a4.442,4.442,0,0,0-4.65,4.441v203.9a4.322,4.322,0,0,0,4.65,4.334l112.249-6.383a4.589,4.589,0,0,0,4.2-4.6V1715.22A4.462,4.462,0,0,0,1910.013,1710.716Z" fill="url(#linear-gradient-5)"/>
          <g id="Grupo_93471" data-name="Grupo 93471" opacity="0.3" style="mix-blend-mode: multiply;isolation: isolate">
            <path id="Trazado_149373" data-name="Trazado 149373" d="M1863.957,1861.282c-1.909-23.314,12.413-32.938,6.952-54.061-6.751-26.11-32.715-27.229-41.558-52.833-3.388-9.81-4.726-24.641,4.972-46.234l-36.559-1.237a4.442,4.442,0,0,0-4.65,4.441v203.9a4.322,4.322,0,0,0,4.65,4.334l100.088-5.691C1872.388,1894.186,1865.131,1875.612,1863.957,1861.282Z" fill="#d8dee8"/>
          </g>
          <path id="Trazado_149374" data-name="Trazado 149374" d="M1910.013,1713.291l-112.249-3.67a1.828,1.828,0,0,0-1.908,1.825v203.663a1.778,1.778,0,0,0,1.908,1.781l112.249-6.253a1.887,1.887,0,0,0,1.727-1.89V1715.141A1.834,1.834,0,0,0,1910.013,1713.291Z" opacity="0.3" fill="url(#linear-gradient-6)"/>
        </g>
        <g id="Grupo_93473" data-name="Grupo 93473">
          <path id="Trazado_149375" data-name="Trazado 149375" d="M1888.813,1867.472l-68.11,2.454a3.041,3.041,0,0,0-2.913,3.013h0a2.78,2.78,0,0,0,2.913,2.8l68.11-2.625a2.91,2.91,0,0,0,2.738-2.922h0A2.659,2.659,0,0,0,1888.813,1867.472Z" opacity="0.6" fill="url(#linear-gradient-7)"/>
          <path id="Trazado_149376" data-name="Trazado 149376" d="M1888.813,1877.517l-68.11,2.758a3.058,3.058,0,0,0-2.913,3.027h0a2.765,2.765,0,0,0,2.913,2.783l68.11-2.928a2.927,2.927,0,0,0,2.738-2.934h0A2.646,2.646,0,0,0,1888.813,1877.517Z" opacity="0.6" fill="url(#linear-gradient-7)"/>
          <path id="Trazado_149377" data-name="Trazado 149377" d="M1888.813,1887.563l-68.11,3.061a3.075,3.075,0,0,0-2.913,3.04h0a2.751,2.751,0,0,0,2.913,2.77l68.11-3.232a2.943,2.943,0,0,0,2.738-2.946h0A2.632,2.632,0,0,0,1888.813,1887.563Z" opacity="0.6" fill="url(#linear-gradient-7)"/>
        </g>
        <g id="Grupo_93474" data-name="Grupo 93474">
          <path id="Trazado_149378" data-name="Trazado 149378" d="M1853.494,1721.444l-34.261-.97a1.394,1.394,0,0,0-1.443,1.4h0a1.49,1.49,0,0,0,1.443,1.479l34.261.928a1.364,1.364,0,0,0,1.4-1.379h0A1.457,1.457,0,0,0,1853.494,1721.444Z" opacity="0.6" fill="url(#linear-gradient-7)"/>
          <path id="Trazado_149379" data-name="Trazado 149379" d="M1853.494,1726.494l-34.261-.894a1.4,1.4,0,0,0-1.443,1.4h0a1.485,1.485,0,0,0,1.443,1.475l34.261.852a1.365,1.365,0,0,0,1.4-1.381h0A1.454,1.454,0,0,0,1853.494,1726.494Z" opacity="0.6" fill="url(#linear-gradient-7)"/>
          <path id="Trazado_149380" data-name="Trazado 149380" d="M1853.494,1731.544l-34.261-.819a1.4,1.4,0,0,0-1.443,1.405h0a1.482,1.482,0,0,0,1.443,1.473l34.261.776a1.369,1.369,0,0,0,1.4-1.385h0A1.45,1.45,0,0,0,1853.494,1731.544Z" opacity="0.6" fill="url(#linear-gradient-12)"/>
        </g>
      </g>
      <path id="Trazado_149381" data-name="Trazado 149381" d="M1864.216,1861.274c-1.909-23.312,12.409-32.934,6.949-54.055-6.749-26.107-32.707-27.226-41.548-52.827-3.247-9.4-4.611-23.425,3.832-43.6l-35.411-1.158a1.827,1.827,0,0,0-1.908,1.824v203.64a1.778,1.778,0,0,0,1.908,1.781l97.025-5.406C1872.056,1892.647,1865.34,1875.009,1864.216,1861.274Z" fill="#fff" opacity="0.35" style="mix-blend-mode: soft-light;isolation: isolate"/>
    </g>
    <g id="Grupo_93478" data-name="Grupo 93478">
      <path id="Trazado_149382" data-name="Trazado 149382" d="M1833.5,1775.331c0-19.534-16.631-35.37-37.146-35.37s-37.147,15.836-37.147,35.37a34.84,34.84,0,0,0,15.528,28.764,14.593,14.593,0,0,1,6.407,12.04v2.706a10.649,10.649,0,0,0,10.649,10.649h9.126a10.648,10.648,0,0,0,10.648-10.649v-2.706a14.591,14.591,0,0,1,6.408-12.04A34.841,34.841,0,0,0,1833.5,1775.331Z" fill="#f4f7fa" opacity="0.75"/>
      <ellipse id="Elipse_5253" data-name="Elipse 5253" cx="8.24" cy="4.363" rx="8.24" ry="4.363" transform="translate(1788.111 1840.897)" fill="url(#linear-gradient-13)"/>
      <path id="Trazado_149383" data-name="Trazado 149383" d="M1785.4,1837.467v4.455a3.913,3.913,0,0,0,2.218,3.537,20.878,20.878,0,0,0,9.593,1.772,21.554,21.554,0,0,0,7.651-1.334,3.979,3.979,0,0,0,2.434-3.685v-2.465Z" fill="url(#linear-gradient-14)"/>
      <path id="Trazado_149384" data-name="Trazado 149384" d="M1785.4,1841.369a4.33,4.33,0,0,0,1.154.807c2.119,1.01,16,3.268,19.346,2.01a4.529,4.529,0,0,0,1.169-.645,4.055,4.055,0,0,0,.227-1.329v-2.465l-21.9-2.28Z" opacity="0.3" fill="url(#linear-gradient-15)" style="mix-blend-mode: multiply;isolation: isolate"/>
      <path id="Trazado_149385" data-name="Trazado 149385" d="M1786.375,1834.436a2.09,2.09,0,0,0-2.307,2.078v.127a4.391,4.391,0,0,0,2.489,3.968c2.119,1.01,16,3.268,19.346,2.01a4.045,4.045,0,0,0,2.73-3.88v-.1a2.091,2.091,0,0,0-1.874-2.079Z" fill="url(#linear-gradient-16)"/>
      <path id="Trazado_149386" data-name="Trazado 149386" d="M1806.759,1836.558l-20.384-2.122a2.084,2.084,0,0,0-1.953.92,4.356,4.356,0,0,0,2.135,2.239c2.119,1.011,16.589,3.563,19.346,2.264a4.784,4.784,0,0,0,2.366-2.4A2.087,2.087,0,0,0,1806.759,1836.558Z" opacity="0.3" fill="url(#linear-gradient-15)" style="mix-blend-mode: multiply;isolation: isolate"/>
      <path id="Trazado_149387" data-name="Trazado 149387" d="M1785.577,1827.218a1.509,1.509,0,0,0-1.509,1.509v3.489a4.391,4.391,0,0,0,2.489,3.968c2.119,1.011,16.589,3.563,19.346,2.264a4.6,4.6,0,0,0,2.73-4.134v-5.587a1.509,1.509,0,0,0-1.509-1.509Z" fill="url(#linear-gradient-15)"/>
      <ellipse id="Elipse_5254" data-name="Elipse 5254" cx="11.978" cy="2.832" rx="11.978" ry="2.832" transform="translate(1784.372 1825.472)" fill="url(#linear-gradient-19)"/>
      <path id="Trazado_149388" data-name="Trazado 149388" d="M1833.5,1775.331c0-19.534-16.631-35.37-37.146-35.37s-37.147,15.836-37.147,35.37a34.84,34.84,0,0,0,15.528,28.764,14.593,14.593,0,0,1,6.407,12.04v2.706a10.649,10.649,0,0,0,10.649,10.649h9.126a10.648,10.648,0,0,0,10.648-10.649v-2.706a14.591,14.591,0,0,1,6.408-12.04A34.841,34.841,0,0,0,1833.5,1775.331Z" fill="#fff"/>
      <ellipse id="Elipse_5255" data-name="Elipse 5255" cx="8.765" cy="2.072" rx="8.765" ry="2.072" transform="translate(1787.586 1823.999)" fill="#f4f7fa" opacity="0.5" style="mix-blend-mode: soft-light;isolation: isolate"/>
      <g id="Grupo_93477" data-name="Grupo 93477">
        <path id="Trazado_149389" data-name="Trazado 149389" d="M1794.067,1827.337a.507.507,0,0,1-.5-.442l-6.448-50.145a.507.507,0,0,1,1.005-.129l6.448,50.145a.507.507,0,0,1-.438.567A.473.473,0,0,1,1794.067,1827.337Z" fill="url(#linear-gradient-20)"/>
        <path id="Trazado_149390" data-name="Trazado 149390" d="M1798.072,1827.337a.48.48,0,0,1-.066,0,.507.507,0,0,1-.438-.567l6.449-50.145a.507.507,0,0,1,1.005.129l-6.449,50.145A.506.506,0,0,1,1798.072,1827.337Z" fill="url(#linear-gradient-21)"/>
        <path id="Trazado_149391" data-name="Trazado 149391" d="M1803.323,1776.71a.507.507,0,0,1-.424-.228l-1.779-2.7a.082.082,0,0,0-.072-.04.08.08,0,0,0-.069.042l-1.175,1.968a1.093,1.093,0,0,1-1.853.045l-1.614-2.418a.079.079,0,0,0-.069-.04.085.085,0,0,0-.068.036l-1.417,2.049a1.1,1.1,0,0,1-.9.474h0a1.1,1.1,0,0,1-.9-.472l-2.043-2.927a.1.1,0,0,0-.072-.038.078.078,0,0,0-.068.044l-1.865,3.219a.507.507,0,0,1-.877-.508l1.865-3.219a1.094,1.094,0,0,1,1.848-.078l2.043,2.928a.081.081,0,0,0,.069.038h0a.08.08,0,0,0,.067-.037l1.417-2.049a1.094,1.094,0,0,1,1.813.018l1.613,2.418c.019.028.046.05.073.04a.079.079,0,0,0,.068-.042l1.175-1.968a1.094,1.094,0,0,1,1.857-.04l1.779,2.7a.505.505,0,0,1-.144.7A.5.5,0,0,1,1803.323,1776.71Z" fill="url(#linear-gradient-22)"/>
      </g>
      <path id="Trazado_149392" data-name="Trazado 149392" d="M1797.025,1803.229c.795-13.632,23.778-16.823,23.679-29-.06-7.5-9.193-13.067-11.143-14.182-14.37-8.219-32.057,1.272-35.709-5.445a6.277,6.277,0,0,1-.241-4.53,9.731,9.731,0,0,1,2.431-4.361,34.437,34.437,0,0,0-1.31,58.382,14.593,14.593,0,0,1,6.407,12.04v2.706a10.649,10.649,0,0,0,10.649,10.649h9.126a10.648,10.648,0,0,0,10.648-10.649v-2.164a6.983,6.983,0,0,1-4.28,1.621C1801.793,1818.253,1796.629,1810.013,1797.025,1803.229Z" opacity="0.3" fill="url(#linear-gradient-23)" style="mix-blend-mode: multiply;isolation: isolate"/>
      <ellipse id="Elipse_5256" data-name="Elipse 5256" cx="31.965" cy="30.827" rx="31.965" ry="30.827" transform="translate(1764.98 1745.883)" opacity="0.2" fill="url(#linear-gradient-24)"/>
    </g>
    <g id="Grupo_93490" data-name="Grupo 93490">
      <g id="Grupo_93487" data-name="Grupo 93487">
        <g id="Grupo_93483" data-name="Grupo 93483">
          <g id="Grupo_93480" data-name="Grupo 93480">
            <path id="Trazado_149393" data-name="Trazado 149393" d="M1835.393,1840.5l-87.089-2.948a3.447,3.447,0,0,0-3.609,3.446v158.2a3.355,3.355,0,0,0,3.609,3.363l87.089-4.952a3.561,3.561,0,0,0,3.258-3.569V1843.994A3.461,3.461,0,0,0,1835.393,1840.5Z" fill="url(#linear-gradient-25)"/>
            <g id="Grupo_93479" data-name="Grupo 93479" opacity="0.3" style="mix-blend-mode: multiply;isolation: isolate">
              <path id="Trazado_149394" data-name="Trazado 149394" d="M1799.66,1957.317c-1.481-18.088,9.631-25.555,5.393-41.943-5.237-20.258-25.382-21.126-32.242-40.991-2.629-7.612-3.667-19.118,3.857-35.871l-28.364-.96a3.447,3.447,0,0,0-3.609,3.446v158.2a3.355,3.355,0,0,0,3.609,3.363l77.654-4.416C1806.2,1982.846,1800.57,1968.435,1799.66,1957.317Z" fill="#d8dee8"/>
            </g>
            <path id="Trazado_149395" data-name="Trazado 149395" d="M1835.393,1842.5l-87.089-2.847a1.418,1.418,0,0,0-1.481,1.416v158.013a1.38,1.38,0,0,0,1.481,1.382l87.089-4.852a1.464,1.464,0,0,0,1.34-1.466v-150.21A1.424,1.424,0,0,0,1835.393,1842.5Z" fill="url(#linear-gradient-6)"/>
          </g>
          <g id="Grupo_93481" data-name="Grupo 93481">
            <path id="Trazado_149396" data-name="Trazado 149396" d="M1818.945,1962.119l-52.844,1.905a2.359,2.359,0,0,0-2.26,2.338h0a2.157,2.157,0,0,0,2.26,2.169l52.844-2.036a2.258,2.258,0,0,0,2.124-2.267h0A2.065,2.065,0,0,0,1818.945,1962.119Z" fill="#d8dee8"/>
            <path id="Trazado_149397" data-name="Trazado 149397" d="M1818.945,1969.913l-52.844,2.14a2.373,2.373,0,0,0-2.26,2.348h0a2.147,2.147,0,0,0,2.26,2.16l52.844-2.272a2.272,2.272,0,0,0,2.124-2.277h0A2.054,2.054,0,0,0,1818.945,1969.913Z" fill="#d8dee8"/>
            <path id="Trazado_149398" data-name="Trazado 149398" d="M1818.945,1977.707l-52.844,2.375a2.386,2.386,0,0,0-2.26,2.359h0a2.134,2.134,0,0,0,2.26,2.149l52.844-2.507a2.284,2.284,0,0,0,2.124-2.286h0A2.042,2.042,0,0,0,1818.945,1977.707Z" fill="#d8dee8"/>
          </g>
          <g id="Grupo_93482" data-name="Grupo 93482">
            <path id="Trazado_149399" data-name="Trazado 149399" d="M1791.542,1848.823l-26.582-.753a1.082,1.082,0,0,0-1.119,1.086h0a1.155,1.155,0,0,0,1.119,1.147l26.582.72a1.058,1.058,0,0,0,1.085-1.07h0A1.131,1.131,0,0,0,1791.542,1848.823Z" fill="#d8dee8"/>
            <path id="Trazado_149400" data-name="Trazado 149400" d="M1791.542,1852.741l-26.582-.694a1.084,1.084,0,0,0-1.119,1.088h0a1.153,1.153,0,0,0,1.119,1.145l26.582.661a1.06,1.06,0,0,0,1.085-1.072h0A1.128,1.128,0,0,0,1791.542,1852.741Z" fill="#d8dee8"/>
            <path id="Trazado_149401" data-name="Trazado 149401" d="M1791.542,1856.659l-26.582-.635a1.086,1.086,0,0,0-1.119,1.09h0a1.149,1.149,0,0,0,1.119,1.142l26.582.6a1.062,1.062,0,0,0,1.085-1.075h0A1.125,1.125,0,0,0,1791.542,1856.659Z" fill="#d8dee8"/>
          </g>
        </g>
        <g id="Grupo_93486" data-name="Grupo 93486">
          <g id="Grupo_93484" data-name="Grupo 93484">
            <path id="Trazado_149402" data-name="Trazado 149402" d="M1781.3,1898.743a11.378,11.378,0,0,1,8.74-6.017l.264-16.133a27.3,27.3,0,0,0-24.241,16.467Z" fill="url(#linear-gradient-27)"/>
            <path id="Trazado_149403" data-name="Trazado 149403" d="M1802.457,1906.08a11.421,11.421,0,0,1-11.091,9.525,11.159,11.159,0,0,1-4.631-.953l-8.454,13.9a26.766,26.766,0,0,0,13.085,3.123,27.461,27.461,0,0,0,26.665-25Z" fill="url(#linear-gradient-28)"/>
            <path id="Trazado_149404" data-name="Trazado 149404" d="M1775.67,1926.967l8.479-13.909a11.471,11.471,0,0,1-4.188-8.9,11.662,11.662,0,0,1,.277-2.531l-15.255-5.661a27.871,27.871,0,0,0-1.237,8.238A27.509,27.509,0,0,0,1775.67,1926.967Z" fill="url(#linear-gradient-29)"/>
          </g>
          <g id="Grupo_93485" data-name="Grupo 93485">
            <path id="Trazado_149405" data-name="Trazado 149405" d="M1793.061,1892.787a11.384,11.384,0,0,1,9.517,10.254l25.774,1.018v-.034a37.981,37.981,0,0,0-34.853-38.049Z" fill="url(#linear-gradient-30)"/>
          </g>
        </g>
        <path id="Trazado_149406" data-name="Trazado 149406" d="M1799.86,1957.311c-1.48-18.087,9.629-25.552,5.392-41.939-5.236-20.255-25.376-21.124-32.235-40.986-2.519-7.3-3.578-18.174,2.973-33.831l-27.474-.9a1.417,1.417,0,0,0-1.48,1.415v158a1.378,1.378,0,0,0,1.48,1.381l75.278-4.194C1805.943,1981.652,1800.733,1967.967,1799.86,1957.311Z" fill="#fff" opacity="0.35" style="mix-blend-mode: soft-light;isolation: isolate"/>
      </g>
      <g id="Grupo_93488" data-name="Grupo 93488">
        <path id="Trazado_149407" data-name="Trazado 149407" d="M1770.735,1883.335l-42.148-.419a1.725,1.725,0,0,1-1.727-1.7v-16.031a1.656,1.656,0,0,1,1.727-1.638l36.692.874a1.68,1.68,0,0,1,1.634,1.67v13.778Z" fill="url(#linear-gradient-31)"/>
        <path id="Trazado_149408" data-name="Trazado 149408" d="M1760.992,1870.219l-27.912-.544v-1.922l27.912.583Z" fill="#fff" opacity="0.67"/>
        <path id="Trazado_149409" data-name="Trazado 149409" d="M1760.992,1873.985l-27.912-.467V1871.6l27.912.506Z" fill="#fff" opacity="0.67"/>
        <path id="Trazado_149410" data-name="Trazado 149410" d="M1760.992,1877.752l-27.912-.39v-1.922l27.912.429Z" fill="#fff" opacity="0.67"/>
      </g>
      <g id="Grupo_93489" data-name="Grupo 93489">
        <path id="Trazado_149411" data-name="Trazado 149411" d="M1791.644,1937.286l37.656-.809a1.76,1.76,0,0,1,1.774,1.8v17.532a1.881,1.881,0,0,1-1.774,1.9l-39.689,1.338a1.8,1.8,0,0,1-1.86-1.819V1934.3Z" opacity="0.3" fill="url(#linear-gradient-32)" style="mix-blend-mode: multiply;isolation: isolate"/>
        <path id="Trazado_149412" data-name="Trazado 149412" d="M1794.453,1952.129l30.193-.9v2.119l-30.193.939Z" fill="#fff" opacity="0.67"/>
        <path id="Trazado_149413" data-name="Trazado 149413" d="M1794.453,1947.818l30.193-.829v2.119l-30.193.866Z" fill="#fff" opacity="0.67"/>
        <path id="Trazado_149414" data-name="Trazado 149414" d="M1794.453,1943.506l30.193-.756v2.119l-30.193.793Z" fill="#fff" opacity="0.67"/>
      </g>
    </g>
    <g id="Grupo_93501" data-name="Grupo 93501">
      <g id="Grupo_93499" data-name="Grupo 93499">
        <g id="Grupo_93495" data-name="Grupo 93495">
          <g id="Grupo_93492" data-name="Grupo 93492">
            <path id="Trazado_149415" data-name="Trazado 149415" d="M1969.734,1745.755l-117.033-3.961a4.632,4.632,0,0,0-4.849,4.631v212.593a4.507,4.507,0,0,0,4.849,4.519l117.033-6.655a4.785,4.785,0,0,0,4.379-4.8V1750.451A4.652,4.652,0,0,0,1969.734,1745.755Z" fill="url(#linear-gradient-25)"/>
            <g id="Grupo_93491" data-name="Grupo 93491" opacity="0.3" style="mix-blend-mode: multiply;isolation: isolate">
              <path id="Trazado_149416" data-name="Trazado 149416" d="M1921.715,1902.739c-1.99-24.308,12.942-34.341,7.248-56.365-7.039-27.223-34.11-28.39-43.329-55.085-3.532-10.229-4.928-25.692,5.184-48.2l-38.117-1.29a4.632,4.632,0,0,0-4.849,4.631v212.593a4.507,4.507,0,0,0,4.849,4.519l104.354-5.934C1930.505,1937.045,1922.939,1917.68,1921.715,1902.739Z" fill="#d8dee8"/>
            </g>
            <path id="Trazado_149417" data-name="Trazado 149417" d="M1969.734,1748.44l-117.033-3.826a1.9,1.9,0,0,0-1.99,1.9v212.345a1.853,1.853,0,0,0,1.99,1.856l117.033-6.52a1.967,1.967,0,0,0,1.8-1.97V1750.369A1.912,1.912,0,0,0,1969.734,1748.44Z" fill="url(#linear-gradient-6)"/>
          </g>
          <g id="Grupo_93493" data-name="Grupo 93493">
            <path id="Trazado_149418" data-name="Trazado 149418" d="M1947.631,1909.193l-71.013,2.558a3.173,3.173,0,0,0-3.038,3.142h0a2.9,2.9,0,0,0,3.038,2.916l71.013-2.736a3.035,3.035,0,0,0,2.854-3.047h0A2.773,2.773,0,0,0,1947.631,1909.193Z" fill="#d8dee8"/>
            <path id="Trazado_149419" data-name="Trazado 149419" d="M1947.631,1919.666l-71.013,2.876a3.188,3.188,0,0,0-3.038,3.155h0a2.884,2.884,0,0,0,3.038,2.9l71.013-3.053a3.051,3.051,0,0,0,2.854-3.059h0A2.759,2.759,0,0,0,1947.631,1919.666Z" fill="#d8dee8"/>
            <path id="Trazado_149420" data-name="Trazado 149420" d="M1947.631,1930.14l-71.013,3.192a3.206,3.206,0,0,0-3.038,3.169h0a2.868,2.868,0,0,0,3.038,2.888l71.013-3.369a3.068,3.068,0,0,0,2.854-3.072h0A2.744,2.744,0,0,0,1947.631,1930.14Z" fill="#d8dee8"/>
          </g>
          <g id="Grupo_93494" data-name="Grupo 93494">
            <path id="Trazado_149421" data-name="Trazado 149421" d="M1910.806,1756.941l-35.721-1.012a1.454,1.454,0,0,0-1.505,1.459h0a1.552,1.552,0,0,0,1.505,1.541l35.721.968a1.42,1.42,0,0,0,1.458-1.438h0A1.519,1.519,0,0,0,1910.806,1756.941Z" fill="#d8dee8"/>
            <path id="Trazado_149422" data-name="Trazado 149422" d="M1910.806,1762.206l-35.721-.933a1.457,1.457,0,0,0-1.505,1.462h0a1.548,1.548,0,0,0,1.505,1.538l35.721.889a1.424,1.424,0,0,0,1.458-1.441h0A1.515,1.515,0,0,0,1910.806,1762.206Z" fill="#d8dee8"/>
            <path id="Trazado_149423" data-name="Trazado 149423" d="M1910.806,1767.471l-35.721-.854a1.461,1.461,0,0,0-1.505,1.465h0a1.544,1.544,0,0,0,1.505,1.535l35.721.81a1.427,1.427,0,0,0,1.458-1.444h0A1.511,1.511,0,0,0,1910.806,1767.471Z" fill="#d8dee8"/>
          </g>
        </g>
        <g id="Grupo_93498" data-name="Grupo 93498">
          <g id="Grupo_93496" data-name="Grupo 93496">
            <path id="Trazado_149424" data-name="Trazado 149424" d="M1897.042,1824.025a15.288,15.288,0,0,1,11.746-8.085l.355-21.681a36.685,36.685,0,0,0-32.577,22.128Z" fill="url(#linear-gradient-35)"/>
            <path id="Trazado_149425" data-name="Trazado 149425" d="M1925.474,1833.884a15.35,15.35,0,0,1-14.905,12.8,14.994,14.994,0,0,1-6.222-1.281l-11.361,18.675a35.96,35.96,0,0,0,17.583,4.2,36.9,36.9,0,0,0,35.834-33.6Z" fill="url(#linear-gradient-28)"/>
            <path id="Trazado_149426" data-name="Trazado 149426" d="M1889.477,1861.953l11.394-18.692a15.414,15.414,0,0,1-5.628-11.955,15.68,15.68,0,0,1,.372-3.4l-20.5-7.608a37.5,37.5,0,0,0-1.661,11.07A36.967,36.967,0,0,0,1889.477,1861.953Z" fill="url(#linear-gradient-29)"/>
          </g>
          <g id="Grupo_93497" data-name="Grupo 93497">
            <path id="Trazado_149427" data-name="Trazado 149427" d="M1912.847,1816.021a15.3,15.3,0,0,1,12.789,13.779l34.637,1.369v-.046c0-26.845-20.5-49.151-46.837-51.132Z" fill="url(#linear-gradient-30)"/>
          </g>
        </g>
        <path id="Trazado_149428" data-name="Trazado 149428" d="M1921.985,1902.73c-1.99-24.3,12.938-34.337,7.246-56.359-7.037-27.219-34.1-28.386-43.319-55.078-3.386-9.806-4.809-24.423,3.995-45.463l-36.921-1.207a1.9,1.9,0,0,0-1.989,1.9v212.32a1.854,1.854,0,0,0,1.989,1.857l101.161-5.636C1930.159,1935.441,1923.157,1917.051,1921.985,1902.73Z" fill="#fff" opacity="0.35" style="mix-blend-mode: soft-light;isolation: isolate"/>
      </g>
      <g id="Grupo_93500" data-name="Grupo 93500">
        <path id="Trazado_149429" data-name="Trazado 149429" d="M1910.942,1875.821l50.6-1.088a2.365,2.365,0,0,1,2.384,2.416v23.561a2.528,2.528,0,0,1-2.384,2.548l-53.336,1.8a2.415,2.415,0,0,1-2.5-2.444v-30.8Z" opacity="0.3" fill="url(#linear-gradient-39)" style="mix-blend-mode: multiply;isolation: isolate"/>
        <path id="Trazado_149430" data-name="Trazado 149430" d="M1914.718,1895.767l40.574-1.213v2.848l-40.574,1.263Z" fill="#fff" opacity="0.67"/>
        <path id="Trazado_149431" data-name="Trazado 149431" d="M1914.718,1889.973l40.574-1.115v2.848l-40.574,1.164Z" fill="#fff" opacity="0.67"/>
        <path id="Trazado_149432" data-name="Trazado 149432" d="M1914.718,1884.179l40.574-1.016v2.848l-40.574,1.065Z" fill="#fff" opacity="0.67"/>
      </g>
    </g>
    <g id="Grupo_93504" data-name="Grupo 93504">
      <path id="Trazado_149433" data-name="Trazado 149433" d="M1911.1,2006.822s-8.287,3.79-8.421,4.393,5.334-.215,7.568-.134,4.069-.583,3.865-1.528-.993-3.323-.993-3.323Z" fill="url(#linear-gradient-40)"/>
      <path id="Trazado_149434" data-name="Trazado 149434" d="M1910.793,2003.763l.513,3.734a2.929,2.929,0,0,0,2.2-.091l.366-4.1Z" fill="url(#linear-gradient-41)"/>
      <path id="Trazado_149435" data-name="Trazado 149435" d="M1949.862,2003.758l.969,1.547a1.849,1.849,0,0,1,.224,1.448c-.334,1.289-1,3.8-1.294,4.457-.4.892-5.766,1.435-5.766,1.435s-.48-.673.633-1.489,1.828-.946,2.219-2.148a31.5,31.5,0,0,0,.645-4.6Z" fill="url(#linear-gradient-42)"/>
      <path id="Trazado_149436" data-name="Trazado 149436" d="M1945.836,1999.831a50.183,50.183,0,0,1,2.09,5.51s.56.712,1.618-.343.478-.474.478-.474l-.211-5.147Z" fill="url(#linear-gradient-43)"/>
      <path id="Trazado_149437" data-name="Trazado 149437" d="M1906.048,1928.731c-.411,11.143-.4,23.249.272,36.179.757,14.561,2.24,28.017,4.1,40.214.68.02,1.394.021,2.14,0,.5-.015.992-.041,1.463-.075a92.645,92.645,0,0,0,3.051-9.838,94.659,94.659,0,0,0,2.118-11.516c1.568-12.624-.307-13.72.967-23.076,1.128-8.286,2.76-8.613,4.649-20.378,2.049-12.765.5-14.676-.258-15.366C1921.334,1921.938,1913.81,1923.96,1906.048,1928.731Z" fill="url(#linear-gradient-44)"/>
      <path id="Trazado_149438" data-name="Trazado 149438" d="M1924.547,1924.875c-3.064-2.8-10.052-1.084-17.426,3.219,8.517,9.158,9.458,15.11,8.448,18.976-1.14,4.369-4.636,5.635-4.612,10.409.031,5.867,5.33,7.409,5.232,13.618-.064,4.1-2.391,4.068-2.929,9.14-.635,6,2.41,8.061,1.436,12.5-.419,1.911-1.622,4.409-5.06,6.988.253,1.822.512,3.626.782,5.4.679.02,1.393.022,2.139,0,.5-.015.992-.041,1.463-.075a92.645,92.645,0,0,0,3.051-9.838,94.659,94.659,0,0,0,2.118-11.516c1.568-12.624-.307-13.72.967-23.076,1.128-8.286,2.76-8.614,4.649-20.378C1926.854,1927.475,1925.3,1925.564,1924.547,1924.875Z" opacity="0.3" fill="url(#linear-gradient-45)" style="mix-blend-mode: multiply;isolation: isolate"/>
      <path id="Trazado_149439" data-name="Trazado 149439" d="M1911.31,1928.531a250.177,250.177,0,0,1,34.474,73.328,4.469,4.469,0,0,0,2.45.374,4.559,4.559,0,0,0,2.77-1.505,72.064,72.064,0,0,0,.593-17.768,61.226,61.226,0,0,0-2.53-13.348c-2.035-6.508-3.424-6.871-6.075-13.756-2.752-7.146-2.094-8.932-4.734-17.877a118.174,118.174,0,0,0-5.886-15.681Z" fill="url(#linear-gradient-46)"/>
      <path id="Trazado_149440" data-name="Trazado 149440" d="M1881.491,1913.455c.07,2.6,4.343,4.89,7.784,5.592,8.045,1.642,17.372-4.2,21.8-10.67.87-1.269,1.836-2.809,2.068-2.69.527.27-4.31,8.216-6.407,17.254-1.072,4.624-.792,6.789-2.8,9.867-.455.7-1.015,1.424-.818,2.249.493,2.066,5.218,2.6,8.495,2.974a75.695,75.695,0,0,0,9.877.309c5.107-.075,5.509-.34,6.675.232,3.551,1.743,3.311,5.92,5.984,6.477,2.244.468,4.521-2.039,5.243-2.834,3.753-4.131,3.552-9.111,4.218-14.135,1.547-11.679,7.892-24.474,14.1-32.574,1.883-2.457,3.192-3.749,3.273-6.032.24-6.7-10.377-14.1-19.217-14.951a66.577,66.577,0,0,0-10.83.224c-1.625.153-3.356.379-5.217.7-4.511.79-7.652,1.339-10.852,2.8-12.907,5.906-10.091,19.051-24.06,28.14C1886,1909.519,1881.419,1910.732,1881.491,1913.455Z" fill="url(#linear-gradient-47)"/>
      <path id="Trazado_149441" data-name="Trazado 149441" d="M1934.374,1867.571a19.235,19.235,0,0,0,1.831,5.3c1.153,1.99,5.921,2.7,6.914,3.05s-1.5,2.076-4.149,2.7-10.4,1.038-11.919.2.985-1.089,2.809-2.048,2.434-4.855,1.869-6.512S1934.374,1867.571,1934.374,1867.571Z" fill="url(#linear-gradient-48)"/>
      <g id="Grupo_93502" data-name="Grupo 93502">
        <path id="Trazado_149442" data-name="Trazado 149442" d="M1929.336,1866.676c-1.923-1.375-2.456-5.092-1.387-5.926.305-.238.6-.129,4.937,1.612,2.155.865,3.215,1.325,3.564,2.277a3.015,3.015,0,0,1-.057,1.984,7.523,7.523,0,0,1-.883,1.471c-.466.671-.434.648-.577.843a10.6,10.6,0,0,1-2.22,2.172,7.393,7.393,0,0,0-.352-1.23,6.521,6.521,0,0,0-.786-1.461A7.362,7.362,0,0,0,1929.336,1866.676Z" fill="url(#linear-gradient-49)"/>
        <path id="Trazado_149443" data-name="Trazado 149443" d="M1934.265,1870.21a3.994,3.994,0,0,1-3.589,1.62c-2.087-.228-2.188-4.934-.808-5.871a2.64,2.64,0,0,1,2.077-.176c.424.139.561.323,1.258.537.642.2.829.133,1.018.306.237.218.394.732-.076,2.086a1.14,1.14,0,0,1,1.236-.346.712.712,0,0,1,.266.284C1935.917,1869.2,1935.4,1869.862,1934.265,1870.21Z" fill="url(#linear-gradient-50)"/>
      </g>
      <path id="Trazado_149444" data-name="Trazado 149444" d="M1892.777,1913.055c5.833-1.314,8.157-1.271,11.041-3.6,4.8-3.87,5.524-9.759,8.315-9.687,1.319.034,2.39,1.381,3.153,2.7l-2.108,3.3c0-.042-.012-.075-.036-.087-.232-.119-1.2,1.421-2.068,2.69-4.427,6.467-13.754,12.312-21.8,10.67a13.98,13.98,0,0,1-6.519-3.17A99.559,99.559,0,0,1,1892.777,1913.055Z" opacity="0.3" fill="url(#linear-gradient-51)" style="mix-blend-mode: multiply;isolation: isolate"/>
      <path id="Trazado_149445" data-name="Trazado 149445" d="M1883.276,1918.071a22.5,22.5,0,0,1-5.252-1.167c-1.962-.839-3.229.366-3.048,1.2s3.407,1.995,4.7,2.037S1883.276,1918.071,1883.276,1918.071Z" fill="url(#linear-gradient-52)"/>
      <path id="Trazado_149446" data-name="Trazado 149446" d="M1954.164,1935.48c3.534.316,11.488.459,17.114-4.746,9.367-8.664,4.72-25.157,1.46-32.251-3.738-8.132-9.687-12.684-13.3-15.451-4.485-3.432-7.223-5.527-10.517-5.058-8.519,1.213-14.418,18.673-9.742,23.671,1.531,1.637,3.047.71,7.478,2.121,1.442.46,12.211,3.889,14.086,11.821,1.313,5.551-2.028,12.051-7.975,16.417Q1953.464,1933.742,1954.164,1935.48Z" fill="url(#linear-gradient-53)"/>
      <path id="Trazado_149447" data-name="Trazado 149447" d="M1914.554,1932.6c4-2.528,4.593-5.09,9.073-6.822,5.819-2.249,8.616.608,11.5-1.7,3.433-2.745.394-7.528,2.963-15.828.437-1.409,3.749-12.109,11.351-13.473,3.544-.635,8.226.722,10.03,3.726,1.411,2.351.1,4.1,1.813,6.7s3.767,1.959,5.953,4.122c3.472,3.435,4.005,10.678.87,14.774-1.462,1.91-3.362,2.665-6.937,4.087a33.693,33.693,0,0,1-5.962,1.751c4.377-4.2,6.649-9.62,5.53-14.353-1.168-4.944-5.793-8.139-9.46-9.955-3.67,6.906-6.669,14.909-7.668,22.448-.666,5.024-.465,10-4.218,14.135-.722.8-3,3.3-5.243,2.834-2.673-.557-2.433-4.734-5.984-6.477-1.166-.572-1.568-.307-6.675-.232a75.695,75.695,0,0,1-9.877-.309c-2.914-.331-6.966-.794-8.176-2.346A21.3,21.3,0,0,0,1914.554,1932.6Z" opacity="0.3" fill="url(#linear-gradient-51)" style="mix-blend-mode: multiply;isolation: isolate"/>
      <g id="Grupo_93503" data-name="Grupo 93503">
        <path id="Trazado_149448" data-name="Trazado 149448" d="M1951.844,1938.258l.411-1.211a3.588,3.588,0,0,0-2.409-4.595l-77.874-23.722-2.373,8.042,77.481,23.865A3.845,3.845,0,0,0,1951.844,1938.258Z" fill="url(#linear-gradient-55)"/>
        <path id="Trazado_149449" data-name="Trazado 149449" d="M1794.587,1886.94c5.955-23.523,29.286-37.7,52.361-31.055,23.5,6.766,36.951,32.225,29.811,56.225-6.971,23.436-30.88,36.08-53.19,28.849C1801.645,1933.853,1788.769,1909.927,1794.587,1886.94Zm75.394,23.094c5.9-20.085-5.357-41.358-24.979-47.066-19.326-5.623-38.96,6.178-44.027,25.928-4.969,19.371,5.882,39.563,24.4,45.511C1844.156,1940.443,1864.2,1929.723,1869.981,1910.034Z" fill="url(#linear-gradient-55)"/>
        <path id="Trazado_149450" data-name="Trazado 149450" d="M1871.972,1908.73l9.929,3.024a10.315,10.315,0,0,0,3.34,6.086c5.015,4.158,11.712-.376,21.055,4.5,4.689,2.446,3.8,4,8.193,5.71,7.265,2.822,10.591-1.087,17.021,1.481,6.5,2.6,7.145,8.213,10.833,8.011,1.578-.086,3.61-1.234,5.875-5.586l1.628.5a3.588,3.588,0,0,1,2.409,4.595l-.411,1.211a3.845,3.845,0,0,1-4.764,2.379l-77.481-23.865Z" fill="#d8dee8" opacity="0.3" style="mix-blend-mode: multiply;isolation: isolate"/>
        <path id="Trazado_149451" data-name="Trazado 149451" d="M1823.531,1937.626c19.433,6.254,40.18-4.821,46.179-25.2,6.124-20.8-5.534-42.835-25.862-48.737-20.01-5.81-40.321,6.422-45.552,26.862C1793.169,1910.589,1804.392,1931.467,1823.531,1937.626Z" fill="#fff" opacity="0.56"/>
        <path id="Trazado_149452" data-name="Trazado 149452" d="M1793.079,1888.957c5.954-23.523,29.286-37.7,52.36-31.055,23.5,6.766,36.951,32.226,29.812,56.225-6.972,23.437-30.88,36.08-53.19,28.849C1800.137,1935.87,1787.26,1911.944,1793.079,1888.957Zm75.394,23.094c5.9-20.085-5.358-41.358-24.98-47.066-19.326-5.622-38.96,6.178-44.026,25.929-4.97,19.371,5.882,39.562,24.394,45.51C1842.648,1942.46,1862.689,1931.741,1868.473,1912.051Z" fill="url(#linear-gradient-57)"/>
        <path id="Trazado_149453" data-name="Trazado 149453" d="M1795.334,1889.648c5.643-22.188,27.669-35.52,49.416-29.235,22.122,6.393,34.8,30.367,28.1,52.979-6.549,22.111-29.088,34.079-50.154,27.272C1801.974,1933.968,1789.813,1911.359,1795.334,1889.648Zm73.139,22.4c5.9-20.085-5.358-41.358-24.98-47.066-19.326-5.622-38.96,6.178-44.026,25.929-4.97,19.371,5.882,39.562,24.394,45.51C1842.648,1942.46,1862.689,1931.741,1868.473,1912.051Z" fill="url(#linear-gradient-58)"/>
      </g>
      <path id="Trazado_149454" data-name="Trazado 149454" d="M1953.864,1934.735l-.787-1.956a4.028,4.028,0,0,1-2.339-.678,3.038,3.038,0,0,0-1.891-.452c-.3.082-1.415.033-.139.641s1.265,1.061.733,1.56a9.239,9.239,0,0,1-3.282,1.626c-.729.052.588,1.178,1.322,1.322a4.537,4.537,0,0,0,3.429-.552C1951.453,1935.926,1953.864,1934.735,1953.864,1934.735Z" fill="url(#linear-gradient-59)"/>
    </g>
    <g id="Grupo_93505" data-name="Grupo 93505">
      <path id="Trazado_149455" data-name="Trazado 149455" d="M1893.77,1743.306a2.818,2.818,0,0,0,2.543-5.009c-.066-.034-.133-.062-.2-.089a16.269,16.269,0,0,0,.536-2.309c.073,0,.147,0,.222-.008a2.938,2.938,0,0,0,2.583-2.991,2.488,2.488,0,0,0-2.694-2.521,2.083,2.083,0,0,0-.225.032,14.96,14.96,0,0,0-.624-2.2c.067-.039.133-.08.2-.125a2.94,2.94,0,0,0,.891-3.852,2.489,2.489,0,0,0-3.625-.687c-.064.045-.124.093-.184.142a13.081,13.081,0,0,0-1.617-1.509c.041-.068.081-.136.118-.208.7-1.383,1.62-2.894.332-3.522-2.978-1.454-4.256-.21-4.958,1.173-.037.072-.068.145-.1.218a13.139,13.139,0,0,0-2.173-.415c0-.077.008-.154.006-.232-.03-1.522.421-2.346-1.042-2.374-3.19-.062-4.266,1.322-4.236,2.844,0,.08.008.158.016.235a14.963,14.963,0,0,0-2.148.8c-.033-.068-.067-.135-.107-.2a2.489,2.489,0,0,0-3.625-.687,2.939,2.939,0,0,0-.891,3.851c.039.064.081.124.125.184a16.134,16.134,0,0,0-1.548,1.8c-.062-.039-.124-.077-.19-.11a2.818,2.818,0,0,0-2.544,5.009c.066.033.134.062.2.089a16.111,16.111,0,0,0-.537,2.308c-.073,0-.146,0-.221.008a2.941,2.941,0,0,0-2.584,2.992,2.49,2.49,0,0,0,2.7,2.521c.076-.007.151-.019.225-.032a14.833,14.833,0,0,0,.624,2.2c-.067.04-.134.08-.2.126a2.939,2.939,0,0,0-.89,3.851,3.645,3.645,0,0,0,4.5.962c.064-.045-.753-.367-.694-.417a13.24,13.24,0,0,0,1.617,1.51c-.041.067-.081.136-.117.207a2.6,2.6,0,1,0,4.626,2.349c.036-.072.068-.144.1-.217a13.252,13.252,0,0,0,2.173.415c-.005.076-.008.154-.007.232a2.49,2.49,0,0,0,2.695,2.521,2.939,2.939,0,0,0,2.583-2.992c0-.079-.008-.157-.016-.235a14.733,14.733,0,0,0,2.148-.8c.034.068.068.136.107.2a2.49,2.49,0,0,0,3.626.688,2.94,2.94,0,0,0,.89-3.852c-.038-.064-.081-.124-.124-.183a16.239,16.239,0,0,0,1.547-1.795C1893.641,1743.235,1893.7,1743.272,1893.77,1743.306Zm-15.925.2c-4.639-2.355-6.332-8.335-3.782-13.358s8.378-7.184,13.016-4.829,6.331,8.335,3.781,13.357S1882.483,1745.863,1877.845,1743.508Z" fill="url(#linear-gradient-60)"/>
      <path id="Trazado_149456" data-name="Trazado 149456" d="M1896.87,1735.891a2.938,2.938,0,0,0,2.583-2.991,2.488,2.488,0,0,0-2.694-2.521,2.083,2.083,0,0,0-.225.032,14.96,14.96,0,0,0-.624-2.2c.067-.039.133-.08.2-.125,1.247-.874,2.79-2.985,1.91-4.154-1.669-2.219-3.4-1.259-4.644-.385-.064.045-.124.093-.184.142a13.081,13.081,0,0,0-1.617-1.509c.041-.068.081-.136.118-.208a2.9,2.9,0,0,0,.163-2.288q-1.806,3.18-3.559,6.389c3.7,2.711,4.878,8.055,2.565,12.61a10.214,10.214,0,0,1-9.66,5.757c-.17.44-.337.882-.518,1.318-.493,1.183-1.054,2.342-1.615,3.5q.53.1,1.063.157c-.005.076-.008.154-.007.232.031,1.522.955,2.815,3.6,2.675,1.461-.077,1.712-1.624,1.681-3.146,0-.079-.008-.157-.016-.235a14.733,14.733,0,0,0,2.148-.8c.034.068.068.136.107.2a3.8,3.8,0,0,0,4.622.912c1.247-.873.649-2.822-.106-4.076-.038-.064-.081-.124-.124-.183a16.239,16.239,0,0,0,1.547-1.795c.062.039.125.076.191.11a2.818,2.818,0,0,0,2.543-5.009c-.066-.034-.133-.062-.2-.089a16.269,16.269,0,0,0,.536-2.309C1896.721,1735.9,1896.8,1735.9,1896.87,1735.891Z" fill="url(#linear-gradient-61)"/>
      <path id="Trazado_149457" data-name="Trazado 149457" d="M1895.144,1743.462a2.818,2.818,0,0,0,2.543-5.009c-.066-.034-.133-.062-.2-.089a16.24,16.24,0,0,0,.536-2.308c.073,0,.147,0,.222-.009a2.938,2.938,0,0,0,2.583-2.991,2.489,2.489,0,0,0-2.694-2.521c-.076.007-.151.019-.225.032a15.017,15.017,0,0,0-.624-2.2c.067-.039.133-.079.2-.125a2.939,2.939,0,0,0,.891-3.851,2.489,2.489,0,0,0-3.625-.688c-.064.045-.124.093-.184.142a13.081,13.081,0,0,0-1.617-1.509c.041-.068.081-.136.118-.207a2.6,2.6,0,1,0-4.626-2.349c-.037.071-.068.144-.1.217a13.265,13.265,0,0,0-2.173-.415c0-.077.008-.154.006-.232a2.489,2.489,0,0,0-2.694-2.521,2.94,2.94,0,0,0-2.584,2.992c0,.079.008.157.016.234a14.852,14.852,0,0,0-2.148.8c-.033-.068-.067-.136-.107-.2a2.488,2.488,0,0,0-3.625-.688,2.939,2.939,0,0,0-.891,3.851c.039.065.082.125.125.184a16.144,16.144,0,0,0-1.548,1.795c-.062-.039-.124-.077-.19-.11a2.818,2.818,0,0,0-2.544,5.009c.067.034.134.062.2.089a15.977,15.977,0,0,0-.536,2.308c-.074,0-.147,0-.222.009a2.94,2.94,0,0,0-2.584,2.991,2.49,2.49,0,0,0,2.695,2.521c.076-.007.151-.019.225-.032a14.869,14.869,0,0,0,.624,2.205c-.067.039-.134.079-.2.125a2.939,2.939,0,0,0-.89,3.851,2.488,2.488,0,0,0,3.625.688c.064-.045.124-.093.183-.142a13.17,13.17,0,0,0,1.618,1.509c-.042.068-.082.136-.118.208a2.6,2.6,0,1,0,4.626,2.348c.036-.071.068-.144.1-.217a13.252,13.252,0,0,0,2.173.415c-.005.077-.008.154-.007.232a2.49,2.49,0,0,0,2.7,2.521,2.939,2.939,0,0,0,2.583-2.992c0-.079-.008-.157-.016-.234a14.963,14.963,0,0,0,2.148-.8c.034.067.068.135.108.2a2.488,2.488,0,0,0,3.625.688,2.939,2.939,0,0,0,.89-3.851c-.038-.064-.081-.125-.124-.184a16.239,16.239,0,0,0,1.547-1.795C1895.015,1743.391,1895.078,1743.429,1895.144,1743.462Zm-15.925.2c-4.639-2.355-6.332-8.335-3.782-13.358s8.378-7.184,13.016-4.829,6.331,8.335,3.781,13.358S1883.857,1746.019,1879.219,1743.664Z" fill="url(#linear-gradient-62)"/>
    </g>
  </g>
</svg>
