<svg xmlns="http://www.w3.org/2000/svg" width="80" height="80" viewBox="0 0 80 80">
  <g id="Grupo_93652" data-name="Grupo 93652" transform="translate(-216 -218.44)">
    <g id="Grupo_93666" data-name="Grupo 93666">
      <g id="Grupo_93652-2" data-name="Grupo 93652">
        <path id="Trazado_149690" data-name="Trazado 149690" d="M286.968,222.311v19.355l-.052.051-8.981,8.981h-6.451a6.462,6.462,0,0,0-5.161,2.581H248.258v30.967h28.387v5.162H243.1V250.7a12.908,12.908,0,0,0-12.9-12.9v-4.09a2.532,2.532,0,0,1,.232-1.071h10.09a2.589,2.589,0,0,0,2.581-2.581v-10.09a2.537,2.537,0,0,1,1.071-.233h40.219A2.589,2.589,0,0,1,286.968,222.311Z" fill="#e6e9ed"/>
      </g>
      <g id="Grupo_93653" data-name="Grupo 93653">
        <path id="Trazado_149691" data-name="Trazado 149691" d="M273.1,274.956a7.02,7.02,0,0,1-1.562-1.716,7.292,7.292,0,0,1-1.032-2.194h-.013l-5.458,5.459-1.29.516-4.774,1.909a2.136,2.136,0,0,1-.8.155A2.165,2.165,0,0,1,256,276.917a2.117,2.117,0,0,1,.039-.412,2.2,2.2,0,0,1,.116-.388l2.426-6.064,1.29-1.29,7.742-7.742a2.589,2.589,0,0,1-2.581-2.581v-1.29a6.376,6.376,0,0,1,1.291-3.871H248.258v30.967h28.387V277.8Z" fill="#ffeaa7"/>
      </g>
      <g id="Grupo_93654" data-name="Grupo 93654">
        <path id="Trazado_149692" data-name="Trazado 149692" d="M248.258,224.892h33.548v5.161H248.258Z" fill="#ff826e"/>
      </g>
      <g id="Grupo_93655" data-name="Grupo 93655">
        <path id="Trazado_149693" data-name="Trazado 149693" d="M243.1,219.963v10.09a2.589,2.589,0,0,1-2.581,2.581h-10.09a2.6,2.6,0,0,1,.529-.762l11.38-11.38A2.6,2.6,0,0,1,243.1,219.963Z" fill="#b4dd7f"/>
      </g>
      <g id="Grupo_93656" data-name="Grupo 93656">
        <path id="Trazado_149694" data-name="Trazado 149694" d="M270.194,258.44v10.477a7.334,7.334,0,0,0,.309,2.129h-.013l-5.458,5.459-6.451-6.452,1.29-1.29,7.742-7.742a2.6,2.6,0,0,0,2.581-2.581Z" fill="#ff826e"/>
      </g>
      <g id="Grupo_93657" data-name="Grupo 93657">
        <path id="Trazado_149695" data-name="Trazado 149695" d="M286.968,241.666a4.562,4.562,0,0,1,6.4,6.5l-7.536,7.536-10.477,10.477V259.73a3.86,3.86,0,0,0-1.136-2.735,3.94,3.94,0,0,0-1.613-.968l5.329-5.329,8.981-8.981Z" fill="#ff826e"/>
      </g>
      <g id="Grupo_93658" data-name="Grupo 93658">
        <path id="Trazado_149696" data-name="Trazado 149696" d="M265.032,276.505l-1.29.516-4.774,1.909a2.136,2.136,0,0,1-.8.155A2.165,2.165,0,0,1,256,276.917a2.117,2.117,0,0,1,.039-.412,2.2,2.2,0,0,1,.116-.388l2.426-6.064Z" fill="#aab2bd"/>
      </g>
      <g id="Grupo_93659" data-name="Grupo 93659">
        <path id="Trazado_149697" data-name="Trazado 149697" d="M290.839,273.924l2.58,15.484H276.645V277.8Z" fill="#b4dd7f"/>
      </g>
      <g id="Grupo_93660" data-name="Grupo 93660">
        <path id="Trazado_149698" data-name="Trazado 149698" d="M269.432,260.259a2.519,2.519,0,0,1-1.819.762,2.589,2.589,0,0,1-2.581-2.581v-1.29a6.376,6.376,0,0,1,1.291-3.871,6.462,6.462,0,0,1,5.161-2.581h6.451l-5.329,5.329a4,4,0,0,0-1.122-.168,1.294,1.294,0,0,0-1.29,1.291v1.29A2.519,2.519,0,0,1,269.432,260.259Z" fill="#f0d0b4"/>
      </g>
      <g id="Grupo_93661" data-name="Grupo 93661">
        <path id="Trazado_149699" data-name="Trazado 149699" d="M286.516,256.956a35.472,35.472,0,0,1,4.323,16.968L276.645,277.8l-3.548-2.839a7.02,7.02,0,0,1-1.562-1.716,7.77,7.77,0,0,1-1.341-4.323V257.15a1.294,1.294,0,0,1,1.29-1.291,4,4,0,0,1,1.122.168,3.94,3.94,0,0,1,1.613.968,3.86,3.86,0,0,1,1.136,2.735v6.452l10.477-10.477Z" fill="#f0d0b4"/>
      </g>
      <g id="Grupo_93662" data-name="Grupo 93662">
        <path id="Trazado_149700" data-name="Trazado 149700" d="M243.1,250.7v41.29a5.161,5.161,0,0,1-5.162,5.162H222.452a5.161,5.161,0,0,1-5.162-5.162V250.7a12.893,12.893,0,0,0,5.162,10.323v9.032a1.293,1.293,0,0,0,1.29,1.29h12.9a1.293,1.293,0,0,0,1.29-1.29v-9.032A12.893,12.893,0,0,0,243.1,250.7Z" fill="#969faa"/>
      </g>
      <g id="Grupo_93663" data-name="Grupo 93663">
        <path id="Trazado_149701" data-name="Trazado 149701" d="M236.746,291.945H223.774a1.291,1.291,0,0,1-1.29-1.291V277.8a1.291,1.291,0,0,1,1.29-1.291h12.971a1.291,1.291,0,0,1,1.29,1.291v12.851A1.289,1.289,0,0,1,236.746,291.945Z" fill="#ff826e"/>
      </g>
      <g id="Grupo_93664" data-name="Grupo 93664">
        <path id="Trazado_149702" data-name="Trazado 149702" d="M237.935,261.021v9.032a1.293,1.293,0,0,1-1.29,1.29h-12.9a1.293,1.293,0,0,1-1.29-1.29v-9.032a12.9,12.9,0,0,0,15.483,0Z" fill="#69d6f4"/>
      </g>
      <g id="Grupo_93665" data-name="Grupo 93665">
        <path id="Trazado_149703" data-name="Trazado 149703" d="M243.1,250.7a12.9,12.9,0,1,1-12.9-12.9A12.893,12.893,0,0,1,243.1,250.7Z" fill="#fcd770"/>
      </g>
    </g>
    <g id="Grupo_93667" data-name="Grupo 93667">
      <path id="Trazado_149704" data-name="Trazado 149704" d="M287.646,256.345l-.221-.408,6.861-6.862a5.827,5.827,0,0,0-6.028-9.654v-17.11a3.876,3.876,0,0,0-3.871-3.871H244.166a3.851,3.851,0,0,0-2.738,1.134l-11.391,11.391A3.846,3.846,0,0,0,228.9,233.7v2.867A14.208,14.208,0,0,0,216,250.7v41.29a6.459,6.459,0,0,0,6.452,6.452h15.483a6.459,6.459,0,0,0,6.452-6.452V290.7h50.556l-2.818-16.908A36.819,36.819,0,0,0,287.646,256.345Zm1.871,16.6-12.579,3.431-3.033-2.427a6.422,6.422,0,0,1-2.421-5.039V257.15a2.583,2.583,0,0,1,2.581,2.58v9.033h2.58v-2.047l8.87-8.87A34.217,34.217,0,0,1,289.517,272.947Zm-18.033-18.378a2.583,2.583,0,0,0-2.581,2.581v1.29a1.29,1.29,0,0,1-2.58,0v-1.29a5.166,5.166,0,0,1,5.161-5.162h3.337l-2.651,2.651a5.013,5.013,0,0,0-.686-.07ZM257.354,276.6l1.7-4.247,3.683,3.684-4.249,1.7a.894.894,0,0,1-1.2-.812A.84.84,0,0,1,257.354,276.6Zm7.678-1.917-4.627-4.627,7.8-7.8a3.727,3.727,0,0,0,.7-.178v6.839a9.017,9.017,0,0,0,.176,1.721Zm-1.053-14.95H249.548v-5.161h14.646a7.7,7.7,0,0,0-.452,2.581v1.29A3.838,3.838,0,0,0,263.979,259.73Zm-14.431,2.581H264.5l-5.161,5.161h-9.789Zm0,7.742h7.643l-2.065,5.161h-5.578Zm0,7.742h5.288a3.441,3.441,0,0,0,4.612,2.334l3-1.2v4.03h-12.9Zm15.484.1.725-.29,4.3-4.3c.047.084.089.169.14.252v9.4h-5.162Zm7.742-1.544,2.581,2.064v4.542h-2.581Zm20.645-31.412a3.251,3.251,0,0,1-.958,2.314l-15.816,15.815V259.73a5.128,5.128,0,0,0-1.928-3.989l13.117-13.116a3.271,3.271,0,0,1,5.585,2.313Zm-51.613-22.093v7.208a1.292,1.292,0,0,1-1.29,1.29h-7.208Zm-11.612,16.24A11.613,11.613,0,1,1,218.581,250.7a11.627,11.627,0,0,1,11.613-11.613Zm-6.452,24.24a14.064,14.064,0,0,0,12.9,0v6.728h-12.9Zm14.193,32.534H222.452a3.875,3.875,0,0,1-3.871-3.871V258.834a14.322,14.322,0,0,0,2.58,2.8v8.414a2.584,2.584,0,0,0,2.581,2.581h12.9a2.584,2.584,0,0,0,2.581-2.581v-8.414a14.322,14.322,0,0,0,2.58-2.8v33.154A3.875,3.875,0,0,1,237.935,295.859Zm6.452-7.742V250.7a14.208,14.208,0,0,0-12.9-14.128v-2.646h9.032a3.876,3.876,0,0,0,3.871-3.871v-9.032h40a1.292,1.292,0,0,1,1.29,1.29v18.821l-8.276,8.276h-5.917a7.721,7.721,0,0,0-5.755,2.58H246.968v33.549h28.387v2.58Zm33.548,0v-9.336l11.865-3.236,2.1,12.572Z"/>
      <path id="Trazado_149705" data-name="Trazado 149705" d="M228.9,256.963v2.767h2.581v-2.767a3.669,3.669,0,0,0,.544-6.79l-2.516-1.257a1.1,1.1,0,0,1,.493-2.089h.377a1.1,1.1,0,0,1,1.1,1.1v1.479h2.581v-1.479a3.676,3.676,0,0,0-2.581-3.495v-2.768H228.9v2.768a3.669,3.669,0,0,0-.544,6.789l2.516,1.257a1.1,1.1,0,0,1-.493,2.089h-.377a1.1,1.1,0,0,1-1.1-1.1v-1.479h-2.58v1.479A3.677,3.677,0,0,0,228.9,256.963Z"/>
      <path id="Trazado_149706" data-name="Trazado 149706" d="M236.645,275.214h-12.9a2.584,2.584,0,0,0-2.581,2.581v12.9a2.584,2.584,0,0,0,2.581,2.581h12.9a2.584,2.584,0,0,0,2.581-2.581V277.8A2.584,2.584,0,0,0,236.645,275.214Zm0,5.162h-2.58V277.8h2.58ZM231.484,290.7H228.9v-2.581h2.581Zm0-5.161H228.9v-2.581h2.581Zm-5.161,0h-2.581v-2.581h2.581Zm2.58-5.161V277.8h2.581v2.581Zm-2.58-2.581v2.581h-2.581V277.8Zm-2.581,10.322h2.581V290.7h-2.581Zm10.323,2.581v-7.742h2.581l0,7.742Z"/>
      <path id="Trazado_149707" data-name="Trazado 149707" d="M283.1,223.6H246.968v7.742H283.1Zm-2.581,5.162H249.548v-2.581h30.968Z"/>
      <path id="Trazado_149708" data-name="Trazado 149708" d="M246.968,233.924H283.1v2.581H246.968Z"/>
      <path id="Trazado_149709" data-name="Trazado 149709" d="M246.968,239.085H283.1v2.581H246.968Z"/>
      <path id="Trazado_149710" data-name="Trazado 149710" d="M246.968,244.246h20.645v2.581H246.968Z"/>
    </g>
  </g>
</svg>
