<svg xmlns="http://www.w3.org/2000/svg" width="60.152" height="60.15" viewBox="0 0 60.152 60.15">
  <g id="Page-1" transform="translate(-225.915 -225.925)">
    <g id="_093---Payday" data-name="093---Payday">
      <path id="Shape" d="M283.059,255h-1V232.942a3.008,3.008,0,0,0-3.008-3.007h-1v-1a3.007,3.007,0,0,0-6.015,0v1h-5.013v-1a3.008,3.008,0,0,0-6.015,0v1h-5.012v-1a3.007,3.007,0,0,0-6.015,0v1h-5.013v-1a3.007,3.007,0,0,0-6.015,0v1h-4.01a.988.988,0,0,0-.955.769h-.019l-7.959,32.579a3.067,3.067,0,0,0,.563,2.635,2.855,2.855,0,0,0,2.255,1.109h5.113v1a3.007,3.007,0,0,0,3.007,3.007h1v12.03a3.008,3.008,0,0,0,3.007,3.008h42.1a3.008,3.008,0,0,0,3.008-3.008V258.005A3.008,3.008,0,0,0,283.059,255Zm1,3.008v4.932A7.017,7.017,0,0,1,278.127,257h4.932a1,1,0,0,1,1,1Zm-44.11,6.958a9.034,9.034,0,0,0,7.961-7.96H276.1a9.034,9.034,0,0,0,7.961,7.96v11.146a9.035,9.035,0,0,0-7.961,7.961H247.913a9.035,9.035,0,0,0-7.961-7.961Zm0-2.026v-4.932a1,1,0,0,1,1-1h4.933a7.017,7.017,0,0,1-5.935,5.935Zm34.085-34a1,1,0,1,1,2.005,0v4.01a1,1,0,0,1-2.005,0Zm-11.028,0a1,1,0,1,1,2.005,0v4.01a1,1,0,0,1-2.005,0Zm-11.027,0a1,1,0,1,1,2.005,0v4.01a1,1,0,0,1-2.005,0Zm-11.028,0a1,1,0,1,1,2.005,0v4.01a1,1,0,0,1-2.005,0Zm-2,3.007v1a3.007,3.007,0,0,0,6.015,0v-1h5.013v1a3.007,3.007,0,0,0,6.015,0v-1H261v1a3.008,3.008,0,0,0,6.015,0v-1h5.013v1a3.007,3.007,0,0,0,6.015,0v-1h1a1,1,0,0,1,1,1v5.012h-44.11V231.94Zm-10.125,33.083a.865.865,0,0,1-.678-.344,1.068,1.068,0,0,1-.192-.921l5.983-24.491v25.756Zm8.12,4.01a1,1,0,0,1-1-1V239.96h44.11V255h-39.1a3.007,3.007,0,0,0-3.007,3.007v11.028Zm3.008,14.035v-4.933a7.017,7.017,0,0,1,5.935,5.935h-4.933a1,1,0,0,1-1-1Zm43.107,1h-4.932a7.017,7.017,0,0,1,5.935-5.935v4.933a1,1,0,0,1-1,1Z" fill="#fb9e36"/>
      <path id="Shape-2" data-name="Shape" d="M242.959,250.987a4.01,4.01,0,1,0-4.01-4.01A4.01,4.01,0,0,0,242.959,250.987Zm0-6.015a2,2,0,1,1-2.005,2.005A2,2,0,0,1,242.959,244.972Z" fill="#fb9e36"/>
      <path id="Shape-3" data-name="Shape" d="M252.984,250.987a4.01,4.01,0,1,0-4.01-4.01A4.01,4.01,0,0,0,252.984,250.987Zm0-6.015a2,2,0,1,1-2,2.005A2,2,0,0,1,252.984,244.972Z" fill="#fb9e36"/>
      <path id="Shape-4" data-name="Shape" d="M273.034,250.987a4.01,4.01,0,1,0-4.01-4.01A4.01,4.01,0,0,0,273.034,250.987Zm0-6.015a2,2,0,1,1-2.005,2.005A2,2,0,0,1,273.034,244.972Z" fill="#fb9e36"/>
      <path id="Shape-5" data-name="Shape" d="M261.3,250.694a1,1,0,0,0,.709.293h.1a1,1,0,0,0,.735-.441l4.01-6.015a1,1,0,1,0-1.668-1.112l-3.331,5-.139-.138A1,1,0,0,0,260.3,249.7Z" fill="#fb9e36"/>
      <path id="Shape-6" data-name="Shape" d="M259,275.048a1,1,0,1,0-2.005,0A5.022,5.022,0,0,0,261,279.96v1.1a1,1,0,0,0,2.005,0v-1.1a5.013,5.013,0,0,0,0-9.825V264.2a3.008,3.008,0,0,1,2.005,2.823,1,1,0,1,0,2.005,0,5.021,5.021,0,0,0-4.01-4.912v-1.1a1,1,0,0,0-2.005,0v1.1a5.013,5.013,0,0,0,0,9.825v5.932A3.01,3.01,0,0,1,259,275.048Zm6.015,0a3.008,3.008,0,0,1-2.005,2.823v-5.647A3.008,3.008,0,0,1,265.014,275.048ZM259,267.027A3.011,3.011,0,0,1,261,264.2v5.647A3.011,3.011,0,0,1,259,267.027Z" fill="#fb9e36"/>
      <path id="Shape-7" data-name="Shape" d="M251.982,270.035a4.01,4.01,0,1,0-4.01,4.01A4.01,4.01,0,0,0,251.982,270.035Zm-6.015,0a2.005,2.005,0,1,1,2.005,2.005A2.005,2.005,0,0,1,245.967,270.035Z" fill="#fb9e36"/>
      <path id="Shape-8" data-name="Shape" d="M276.042,274.045a4.01,4.01,0,1,0-4.01-4.01A4.01,4.01,0,0,0,276.042,274.045Zm0-6.015a2.005,2.005,0,1,1-2.005,2.005A2.005,2.005,0,0,1,276.042,268.03Z" fill="#fb9e36"/>
    </g>
  </g>
</svg>
