<svg xmlns="http://www.w3.org/2000/svg" xmlns:xlink="http://www.w3.org/1999/xlink" width="574.593" height="568.65" viewBox="0 0 574.593 568.65">
  <defs>
    <clipPath id="clip-path">
      <rect id="SVGID" width="299.057" height="427.124" transform="translate(1583.916 1578.474)" fill="none"/>
    </clipPath>
    <clipPath id="clip-path-2">
      <path id="SVGID-2" data-name="SVGID" d="M1751.214,2119.085c-38.5-79.217,15.588-116.5,36.388-136.675,31.367-30.427,48.619-75.757,3.234-98.452s1.466-113.779,57.67-153.036c55-38.417,32.5-192.176-92.6-123.74-74.711,40.869-64.224,145.787-68.4,200.089s-65.4,55.388-45.187,123.141c17.263,57.874,40,128.239,13.637,165.887S1770.086,2157.911,1751.214,2119.085Z" fill="none"/>
    </clipPath>
    <linearGradient id="linear-gradient" x1="0.686" y1="-0.019" x2="-0.206" y2="0.839" gradientUnits="objectBoundingBox">
      <stop offset="0" stop-color="#80f9a2"/>
      <stop offset="0.996" stop-color="#84d761"/>
    </linearGradient>
    <linearGradient id="linear-gradient-2" x1="10.079" y1="0.151" x2="9.41" y2="1.429" gradientUnits="objectBoundingBox">
      <stop offset="0" stop-color="#82ffc1"/>
      <stop offset="1" stop-color="#45fb6a"/>
    </linearGradient>
    <clipPath id="clip-path-3">
      <path id="SVGID-3" data-name="SVGID" d="M1749.949,2060.775c35.69-80.253-50.823-106.81-12.688-213.85,10.143-28.469,38.41-79.144,24.015-110.955-16.4-36.243-44.159-18.515-52.92-46.809-13.694-44.222-51.16-73.32-88.481-48.711-36.835,24.288-31.343,104.677,23.326,189.719,32.741,65.749,28.61,79.768,12.82,111.579-11.061,22.281-53.732,74.691-32.669,111.109S1736.8,2090.354,1749.949,2060.775Z" fill="none"/>
    </clipPath>
    <linearGradient id="linear-gradient-3" x1="0.434" y1="1.819" x2="0.507" y2="0.645" gradientUnits="objectBoundingBox">
      <stop offset="0" stop-color="#183c8c"/>
      <stop offset="0.996" stop-color="#081a4f"/>
    </linearGradient>
    <linearGradient id="linear-gradient-4" x1="0.378" y1="0.48" x2="0.132" y2="0.522" gradientUnits="objectBoundingBox">
      <stop offset="0" stop-color="#183c8c"/>
      <stop offset="0.395" stop-color="#102874"/>
      <stop offset="0.996" stop-color="#081a4f"/>
    </linearGradient>
    <linearGradient id="linear-gradient-5" x1="0" y1="0.5" x2="1" y2="0.5" xlink:href="#linear-gradient-3"/>
    <linearGradient id="linear-gradient-6" x1="0.787" y1="-0.214" x2="-0.717" y2="3.323" gradientUnits="objectBoundingBox">
      <stop offset="0.004" stop-color="#8de3b6"/>
      <stop offset="1" stop-color="#aef671"/>
    </linearGradient>
    <linearGradient id="linear-gradient-7" x1="-14.252" y1="-0.378" x2="-12.934" y2="2.004" gradientUnits="objectBoundingBox">
      <stop offset="0" stop-color="#ffe5ae"/>
      <stop offset="0.996" stop-color="#f3c4bb"/>
    </linearGradient>
    <linearGradient id="linear-gradient-8" x1="-3.871" y1="0.95" x2="-3.601" y2="-0.004" gradientUnits="objectBoundingBox">
      <stop offset="0" stop-color="#ffc444"/>
      <stop offset="0.996" stop-color="#f36f56"/>
    </linearGradient>
    <linearGradient id="linear-gradient-9" x1="-53.189" y1="4.078" x2="-52.137" y2="5.527" gradientUnits="objectBoundingBox">
      <stop offset="0" stop-color="#444b8c"/>
      <stop offset="0.996" stop-color="#26264f"/>
    </linearGradient>
    <linearGradient id="linear-gradient-10" x1="-179.6" y1="3.437" x2="-179.6" y2="2.085" xlink:href="#linear-gradient-7"/>
    <linearGradient id="linear-gradient-11" x1="-67.87" y1="4.571" x2="-66.538" y2="6.36" xlink:href="#linear-gradient-9"/>
    <linearGradient id="linear-gradient-12" x1="-36.906" y1="-0.515" x2="-35.811" y2="0.793" xlink:href="#linear-gradient-9"/>
    <linearGradient id="linear-gradient-13" x1="-200.093" y1="1.222" x2="-200.093" y2="-0.194" xlink:href="#linear-gradient-7"/>
    <linearGradient id="linear-gradient-14" x1="-16.902" y1="0.579" x2="-18.213" y2="0.416" gradientUnits="objectBoundingBox">
      <stop offset="0" stop-color="#ab316d"/>
      <stop offset="1" stop-color="#792d3d"/>
    </linearGradient>
    <linearGradient id="linear-gradient-15" x1="-2.634" y1="0.91" x2="-4.264" y2="0.048" xlink:href="#linear-gradient-8"/>
    <linearGradient id="linear-gradient-16" x1="-46.366" y1="-1.298" x2="-45.005" y2="0.479" xlink:href="#linear-gradient-9"/>
    <linearGradient id="linear-gradient-17" x1="-44.286" y1="0.884" x2="-43.768" y2="-0.213" xlink:href="#linear-gradient-7"/>
    <linearGradient id="linear-gradient-18" x1="-0.149" y1="0.667" x2="0.769" y2="0.409" xlink:href="#linear-gradient-9"/>
    <linearGradient id="linear-gradient-19" x1="-102.553" y1="-2.784" x2="-86.552" y2="10.461" xlink:href="#linear-gradient-7"/>
    <linearGradient id="linear-gradient-20" x1="-0.057" y1="0.688" x2="2.732" y2="-0.006" xlink:href="#linear-gradient-9"/>
    <linearGradient id="linear-gradient-21" x1="-1.791" y1="1.522" x2="-3.456" y2="0.051" xlink:href="#linear-gradient-8"/>
    <linearGradient id="linear-gradient-22" x1="0.468" y1="2.148" x2="0.492" y2="0.807" gradientUnits="objectBoundingBox">
      <stop offset="0" stop-color="#ceb564"/>
      <stop offset="0.996" stop-color="#a18a28"/>
    </linearGradient>
    <linearGradient id="linear-gradient-23" x1="0.468" y1="2.148" x2="0.492" y2="0.807" gradientUnits="objectBoundingBox">
      <stop offset="0" stop-color="#fdfb82"/>
      <stop offset="0.996" stop-color="#f0c82d"/>
    </linearGradient>
    <linearGradient id="linear-gradient-24" x1="0" y1="0.5" x2="1" y2="0.5" xlink:href="#linear-gradient-23"/>
    <linearGradient id="linear-gradient-26" x1="0.624" y1="-0.475" x2="-0.073" y2="5.032" gradientUnits="objectBoundingBox">
      <stop offset="0" stop-color="#7d9637"/>
      <stop offset="1" stop-color="#4edc53"/>
    </linearGradient>
    <linearGradient id="linear-gradient-27" x1="0.625" y1="-0.475" x2="-0.078" y2="5.032" xlink:href="#linear-gradient-26"/>
    <linearGradient id="linear-gradient-28" x1="0.632" y1="-0.475" x2="-0.114" y2="5.031" xlink:href="#linear-gradient-26"/>
    <linearGradient id="linear-gradient-29" x1="0.644" y1="-0.475" x2="-0.16" y2="5.031" xlink:href="#linear-gradient-26"/>
    <linearGradient id="linear-gradient-30" x1="508.113" y1="-2069.38" x2="507.872" y2="-2054.381" xlink:href="#linear-gradient-26"/>
    <linearGradient id="linear-gradient-31" x1="506.623" y1="-2081.892" x2="506.382" y2="-2066.769" xlink:href="#linear-gradient-26"/>
    <linearGradient id="linear-gradient-32" x1="473.381" y1="-2058.392" x2="473.14" y2="-2042.364" xlink:href="#linear-gradient-26"/>
    <linearGradient id="linear-gradient-33" x1="4.944" y1="-4.195" x2="-3.244" y2="4.45" gradientUnits="objectBoundingBox">
      <stop offset="0" stop-color="#ceb564"/>
      <stop offset="0.996" stop-color="#c9b469"/>
    </linearGradient>
    <linearGradient id="linear-gradient-34" x1="3.978" y1="-3.134" x2="-4.228" y2="5.433" xlink:href="#linear-gradient-33"/>
    <linearGradient id="linear-gradient-35" x1="3.008" y1="-2.093" x2="-5.215" y2="6.399" xlink:href="#linear-gradient-33"/>
    <linearGradient id="linear-gradient-36" x1="2.034" y1="-1.07" x2="-6.207" y2="7.347" xlink:href="#linear-gradient-33"/>
    <linearGradient id="linear-gradient-37" x1="5.354" y1="-4.566" x2="-2.865" y2="4.007" xlink:href="#linear-gradient-33"/>
    <linearGradient id="linear-gradient-38" x1="4.385" y1="-3.511" x2="-3.852" y2="4.986" xlink:href="#linear-gradient-33"/>
    <linearGradient id="linear-gradient-39" x1="3.412" y1="-2.475" x2="-4.842" y2="5.949" xlink:href="#linear-gradient-33"/>
    <linearGradient id="linear-gradient-40" x1="2.436" y1="-1.457" x2="-5.837" y2="6.893" xlink:href="#linear-gradient-33"/>
    <linearGradient id="linear-gradient-41" x1="5.766" y1="-4.933" x2="-2.483" y2="3.573" xlink:href="#linear-gradient-33"/>
    <linearGradient id="linear-gradient-42" x1="4.795" y1="-3.883" x2="-3.472" y2="4.547" xlink:href="#linear-gradient-33"/>
    <linearGradient id="linear-gradient-43" x1="3.819" y1="-2.852" x2="-4.465" y2="5.507" xlink:href="#linear-gradient-33"/>
    <linearGradient id="linear-gradient-44" x1="2.84" y1="-1.838" x2="-5.462" y2="6.448" xlink:href="#linear-gradient-33"/>
    <linearGradient id="linear-gradient-45" x1="6.181" y1="-5.295" x2="-2.098" y2="3.145" xlink:href="#linear-gradient-33"/>
    <linearGradient id="linear-gradient-46" x1="5.207" y1="-4.249" x2="-3.089" y2="4.116" xlink:href="#linear-gradient-33"/>
    <linearGradient id="linear-gradient-47" x1="4.229" y1="-3.224" x2="-4.085" y2="5.073" xlink:href="#linear-gradient-33"/>
    <linearGradient id="linear-gradient-48" x1="6.6" y1="-5.648" x2="-1.71" y2="2.723" xlink:href="#linear-gradient-33"/>
    <linearGradient id="linear-gradient-49" x1="5.623" y1="-4.608" x2="-2.704" y2="3.69" xlink:href="#linear-gradient-33"/>
    <linearGradient id="linear-gradient-50" x1="4.642" y1="-3.588" x2="-3.703" y2="4.642" xlink:href="#linear-gradient-33"/>
    <linearGradient id="linear-gradient-51" x1="3.434" y1="-0.583" x2="-4.875" y2="2.473" xlink:href="#linear-gradient-33"/>
    <linearGradient id="linear-gradient-52" x1="0.524" y1="-0.537" x2="0.388" y2="5.322" xlink:href="#linear-gradient-22"/>
    <linearGradient id="linear-gradient-53" x1="0.524" y1="-0.537" x2="0.387" y2="5.319" xlink:href="#linear-gradient-22"/>
    <linearGradient id="linear-gradient-54" x1="0.524" y1="-0.536" x2="0.386" y2="5.316" xlink:href="#linear-gradient-22"/>
    <linearGradient id="linear-gradient-55" x1="0.525" y1="-0.535" x2="0.385" y2="5.313" xlink:href="#linear-gradient-22"/>
    <linearGradient id="linear-gradient-56" x1="0.524" y1="-0.537" x2="0.387" y2="5.32" xlink:href="#linear-gradient-22"/>
    <linearGradient id="linear-gradient-57" x1="0.524" y1="-0.536" x2="0.386" y2="5.317" xlink:href="#linear-gradient-22"/>
    <linearGradient id="linear-gradient-58" x1="0.525" y1="-0.536" x2="0.385" y2="5.314" xlink:href="#linear-gradient-22"/>
    <linearGradient id="linear-gradient-59" x1="0.525" y1="-0.535" x2="0.384" y2="5.31" xlink:href="#linear-gradient-22"/>
    <linearGradient id="linear-gradient-60" x1="0.524" y1="-0.536" x2="0.386" y2="5.317" xlink:href="#linear-gradient-22"/>
    <linearGradient id="linear-gradient-61" x1="0.525" y1="-0.536" x2="0.385" y2="5.314" xlink:href="#linear-gradient-22"/>
    <linearGradient id="linear-gradient-62" x1="0.525" y1="-0.535" x2="0.383" y2="5.311" xlink:href="#linear-gradient-22"/>
    <linearGradient id="linear-gradient-63" x1="0.525" y1="-0.534" x2="0.382" y2="5.308" xlink:href="#linear-gradient-22"/>
    <linearGradient id="linear-gradient-64" x1="0.525" y1="-0.536" x2="0.385" y2="5.314" xlink:href="#linear-gradient-22"/>
    <linearGradient id="linear-gradient-65" x1="0.525" y1="-0.535" x2="0.383" y2="5.311" xlink:href="#linear-gradient-22"/>
    <linearGradient id="linear-gradient-66" x1="0.525" y1="-0.534" x2="0.382" y2="5.308" xlink:href="#linear-gradient-22"/>
    <linearGradient id="linear-gradient-67" x1="0.525" y1="-0.535" x2="0.383" y2="5.312" xlink:href="#linear-gradient-22"/>
    <linearGradient id="linear-gradient-68" x1="0.525" y1="-0.534" x2="0.382" y2="5.309" xlink:href="#linear-gradient-22"/>
    <linearGradient id="linear-gradient-69" x1="0.525" y1="-0.534" x2="0.381" y2="5.306" xlink:href="#linear-gradient-22"/>
    <linearGradient id="linear-gradient-70" x1="0.566" y1="-0.496" x2="0.192" y2="5.131" xlink:href="#linear-gradient-22"/>
    <linearGradient id="linear-gradient-71" x1="0.329" y1="0.554" x2="-0.255" y2="0.738" gradientUnits="objectBoundingBox">
      <stop offset="0" stop-color="#fcb148"/>
      <stop offset="0.052" stop-color="#fdb946"/>
      <stop offset="0.142" stop-color="#fec144"/>
      <stop offset="0.318" stop-color="#ffc444"/>
      <stop offset="0.485" stop-color="#fdb946"/>
      <stop offset="0.775" stop-color="#f99c4c"/>
      <stop offset="0.866" stop-color="#f8924f"/>
      <stop offset="1" stop-color="#f8924f"/>
    </linearGradient>
    <linearGradient id="linear-gradient-72" x1="0.727" y1="0.007" x2="0.207" y2="1.135" gradientUnits="objectBoundingBox">
      <stop offset="0" stop-color="#ffdb44"/>
      <stop offset="1" stop-color="#feef06"/>
    </linearGradient>
    <linearGradient id="linear-gradient-73" x1="0.636" y1="1.231" x2="0.531" y2="0.666" xlink:href="#linear-gradient-71"/>
    <linearGradient id="linear-gradient-74" x1="0.409" y1="0.31" x2="0.858" y2="1.247" xlink:href="#linear-gradient-71"/>
    <linearGradient id="linear-gradient-75" x1="0.253" y1="0.019" x2="0.711" y2="1.039" xlink:href="#linear-gradient-72"/>
    <linearGradient id="linear-gradient-76" x1="0.464" y1="0.369" x2="1.215" y2="1.306" xlink:href="#linear-gradient-71"/>
  </defs>
  <g id="Grupo_93702" data-name="Grupo 93702" transform="translate(-1567.704 -1570.675)">
    <path id="Trazado_149771" data-name="Trazado 149771" d="M1957.849,1582.8c-42.974-9.587-87.653-14.182-131.339-11.253-38.719,2.6-82.608,9.682-113.766,35.063-14.849,12.1-32.556,33.83-37.413,53,0,0-25.566,100.925-76.7,122.552s-86.638,390.725,301.1,354.68c0,0,227.739-9.445,241.452-281.5,3.312-65.721,1.462-137.971-38.222-192.925-30.409-42.112-73.015-60.836-121.975-73.937Q1969.521,1585.413,1957.849,1582.8Z" fill="#f4f7fa"/>
    <g id="Grupo_93703" data-name="Grupo 93703">
      <path id="Trazado_149772" data-name="Trazado 149772" d="M2061.565,1716.914c5.958.5,11.228-4.322,11.772-10.773s-3.846-12.089-9.8-12.59c-.308-.026-.614-.029-.918-.028a67.534,67.534,0,0,0-1.552-9.768c.283-.116.565-.236.844-.379,5.431-2.791,7.8-9.786,5.292-15.625s-8.945-8.308-14.377-5.517c-.284.147-.554.31-.821.478a62.038,62.038,0,0,0-5.875-7.544c.2-.257.392-.518.572-.8,3.45-5.336,2.284-12.63-2.6-16.29s-11.648-2.3-15.1,3.035c-.177.273-.334.554-.486.837a55.078,55.078,0,0,0-8.624-3.3c.053-.325.1-.652.13-.986.543-6.452,1.719-13.736-4.247-14.144-13.8-.945-16.787,5.875-17.33,12.326-.028.335-.035.665-.037.994a55.041,55.041,0,0,0-9.054,1.809c-.1-.305-.21-.608-.339-.907-2.508-5.838-2.055-9.733-7.757-7.545-12.433,4.77-14.421,11.814-11.912,17.652.131.306.279.6.431.882a61.915,61.915,0,0,0-7.054,6.456c-.235-.211-.475-.418-.73-.609-4.888-3.66-11.648-2.3-15.1,3.035s-2.284,12.629,2.6,16.289c.25.188.508.354.768.515a67.718,67.718,0,0,0-3.164,9.371c-.3-.052-.6-.1-.91-.126-5.959-.5-11.229,4.321-11.773,10.773s3.847,12.088,9.8,12.59c.309.025.614.029.919.027a67.532,67.532,0,0,0,1.551,9.768c-.283.116-.565.236-.843.379-5.432,2.791-7.8,9.787-5.293,15.625s8.945,8.308,14.377,5.517c.284-.146.554-.31.821-.478a62.046,62.046,0,0,0,5.875,7.544c-.2.257-.392.519-.572.8-3.45,5.337-2.284,12.63,2.6,16.29s15.47,1.986,18.919-3.35c.177-.274-3.489-.239-3.336-.522a54.853,54.853,0,0,0,8.623,3.3c-.053.325-.1.652-.129.987-.544,6.451,3.846,12.088,9.8,12.59s11.229-4.322,11.772-10.773c.028-.334.035-.665.037-.994a54.918,54.918,0,0,0,9.054-1.809c.1.3.21.608.339.908,2.508,5.838,8.945,8.308,14.377,5.516s7.8-9.786,5.293-15.624c-.132-.3-.279-.6-.431-.882a62.09,62.09,0,0,0,7.054-6.455c.235.21.474.417.729.608,4.889,3.66,11.648,2.3,15.1-3.034s2.283-12.63-2.6-16.29c-.251-.188-.509-.353-.768-.515a67.488,67.488,0,0,0,3.163-9.371C2060.954,1716.84,2061.256,1716.888,2061.565,1716.914Zm-61.26,25.79c-21.634-1.823-37.571-22.288-35.6-45.712s21.109-40.936,42.742-39.114,37.57,22.288,35.6,45.712S2021.937,1744.526,2000.305,1742.7Z" fill="#bfc6d1"/>
      <path id="Trazado_149773" data-name="Trazado 149773" d="M2061.906,1683.376c5.431-2.791,7.8-9.786,5.292-15.625s-8.945-8.308-14.377-5.517c-.284.146-.554.31-.821.478a61.963,61.963,0,0,0-5.875-7.544c.2-.257.392-.518.572-.8,3.45-5.336,6.1-15.921.863-19.061-9.942-5.958-15.115.469-18.564,5.806-.177.273-.334.554-.487.837a54.934,54.934,0,0,0-8.623-3.3c.053-.325.1-.652.13-.986a12.112,12.112,0,0,0-2.962-9.106q-1.992,15.132-3.73,30.294c18.566,4.673,31.512,23.485,29.722,44.732-1.516,18.005-13.177,32.505-28.313,37.428.035,1.968.085,3.941.067,5.912-.049,5.348-.4,10.707-.748,16.061q2.2-.445,4.353-1.065c.1.3.21.608.339.907,2.508,5.839,8.113,9.388,18.107,4.7,5.528-2.594,4.071-8.967,1.563-14.805-.132-.3-.279-.6-.431-.882a62.09,62.09,0,0,0,7.054-6.455c.235.21.474.417.729.608,4.889,3.661,15.855,1.606,19.305-3.731s-1.924-11.933-6.812-15.593c-.251-.188-.509-.353-.768-.515a67.531,67.531,0,0,0,3.163-9.371c.3.053.6.1.911.126,5.958.5,11.228-4.321,11.772-10.772s-3.846-12.089-9.8-12.59c-.308-.026-.614-.029-.918-.028a67.534,67.534,0,0,0-1.552-9.768C2061.345,1683.639,2061.627,1683.519,2061.906,1683.376Z" fill="#bfc6d1"/>
      <path id="Trazado_149774" data-name="Trazado 149774" d="M2067.123,1715.36c5.958.5,11.229-4.321,11.772-10.773s-3.846-12.088-9.8-12.59c-.309-.026-.614-.029-.919-.027a67.732,67.732,0,0,0-1.551-9.768c.282-.116.565-.236.843-.38,5.431-2.791,7.8-9.786,5.292-15.624s-8.945-8.308-14.376-5.517c-.284.146-.555.31-.822.478a62.077,62.077,0,0,0-5.874-7.545c.2-.256.391-.518.572-.8,3.449-5.336,2.283-12.629-2.605-16.29s-11.648-2.3-15.1,3.035c-.177.273-.334.555-.486.838a54.973,54.973,0,0,0-8.624-3.3c.053-.325.1-.652.13-.986.543-6.451-3.846-12.088-9.8-12.59s-11.228,4.321-11.772,10.773c-.028.334-.035.665-.037.994a54.939,54.939,0,0,0-9.053,1.808c-.1-.3-.211-.608-.339-.907-2.509-5.838-8.946-8.308-14.377-5.517s-7.8,9.787-5.293,15.625c.131.305.279.595.431.882a61.907,61.907,0,0,0-7.054,6.455c-.235-.21-.474-.417-.73-.609-4.888-3.66-11.647-2.3-15.1,3.035s-2.284,12.63,2.6,16.29c.25.187.508.353.768.514a67.666,67.666,0,0,0-3.164,9.372c-.3-.053-.6-.1-.91-.127-5.958-.5-11.229,4.321-11.772,10.773s3.846,12.088,9.8,12.59c.309.026.614.029.919.027a67.526,67.526,0,0,0,1.551,9.768c-.282.117-.565.236-.843.379-5.432,2.792-7.8,9.787-5.293,15.625s8.946,8.308,14.377,5.517c.284-.146.555-.309.822-.478a62.041,62.041,0,0,0,5.874,7.545c-.2.257-.392.518-.572.8-3.45,5.336-2.283,12.629,2.6,16.29s11.647,2.3,15.1-3.035c.177-.273.333-.555.486-.838a54.962,54.962,0,0,0,8.623,3.3c-.052.325-.1.652-.129.986-.543,6.451,3.846,12.088,9.8,12.59s11.229-4.321,11.772-10.773c.029-.334.036-.664.038-.994a54.939,54.939,0,0,0,9.053-1.808c.1.3.211.608.339.907,2.508,5.838,8.945,8.308,14.377,5.517s7.8-9.787,5.293-15.625c-.131-.305-.279-.595-.431-.882a61.918,61.918,0,0,0,7.054-6.455c.235.211.474.417.73.608,4.888,3.661,11.647,2.3,15.1-3.034s2.283-12.629-2.605-16.29c-.25-.187-.508-.353-.768-.514a67.681,67.681,0,0,0,3.164-9.372C2066.512,1715.286,2066.814,1715.334,2067.123,1715.36Zm-61.26,25.79c-21.633-1.822-37.571-22.288-35.6-45.712s21.109-40.936,42.742-39.114,37.571,22.288,35.6,45.712S2027.5,1742.972,2005.863,1741.15Z" fill="#d8dee8"/>
    </g>
    <g id="Grupo_93711" data-name="Grupo 93711">
      <g id="Grupo_93710" data-name="Grupo 93710" clip-path="url(#clip-path)">
        <g id="Grupo_93706" data-name="Grupo 93706">
          <g id="Grupo_93705" data-name="Grupo 93705">
            <g id="Grupo_93704" data-name="Grupo 93704" clip-path="url(#clip-path-2)">
              <path id="Trazado_149775" data-name="Trazado 149775" d="M1848.506,1730.922c-56.2,39.257-94.288,118.361-52.42,151.224,37,29.045,22.883,69.837-8.484,100.264-15.612,15.144-49.977,39.924-49.87,84.839-2.8-.426,26.01,71.953,23.174,72.705-12.65,3.353-37.779-7.435-38.36,9.13l-75.136-30.82c1.844-17.559,8.7-33.752,19.346-48.958,26.358-37.649-7.169-81.02-24.432-138.894-20.21-67.753,41.016-68.838,45.187-123.141s-6.315-159.219,68.4-200.09C1881.01,1538.746,1903.506,1692.505,1848.506,1730.922Z" fill="url(#linear-gradient)"/>
              <path id="Trazado_149776" data-name="Trazado 149776" d="M1890.95,1627.677l-.294-2.178c-56.893,11.478-101.8,49.82-133.474,113.956q-5.75,11.646-10.921,24.425c-5.215-72.845,16.224-172.211,16.444-173.22l-1.6-.667c-.223,1.027-22.344,103.542-16.271,177.054l.17-.019c-18.628,47.127-31.452,105.373-38.192,173.685-1.353,13.715-2.41,27.385-3.22,40.893-12.332-63.495-62.578-108.965-63.1-109.433l-.9,1.816c.54.482,53.947,48.82,63.581,115.05-.792,14.777-1.291,29.326-1.559,43.489l0,.015h0c-.478,25.284-.218,49.337.449,71.232l1.646-.436c-.654-21.668-.907-45.445-.439-70.43,19.824-102.534,126.462-122,127.516-122.071l-.025-2.2c-1.014-.056-103.374,19.161-127.3,115.537.68-26.828,2.218-54.9,5.007-83.161,7.134-72.285,23.5-154.071,59.119-216.457,56.137-42.25,107.689-17.4,108.2-17.146l.546-2.059c-.513-.257-50.688-24.477-106.169,14.777C1797.821,1673.632,1836.632,1638.637,1890.95,1627.677Zm-238.667,451.349-1.257,1.394a45.836,45.836,0,0,0,3.552,3.872c4.855,5.067,13.871,14.484,22.971,25.982l1.951-.517a356.192,356.192,0,0,0-23.917-27.181C1653.928,2080.848,1652.5,2079.357,1652.283,2079.026Z" fill="#bdf2b8" style="mix-blend-mode: soft-light;isolation: isolate"/>
            </g>
          </g>
        </g>
        <g id="Grupo_93709" data-name="Grupo 93709">
          <path id="Trazado_149777" data-name="Trazado 149777" d="M1755.482,1998.47c-4.482-3.706,4.091,12.069-1.845,12.069-12.2,0-6.1,11.179-39.782,3.519h-94.142c6.9-28.373,28.825-57.236,36.307-72.31,15.791-31.811,19.922-45.83-12.819-111.579-54.669-85.042-60.161-165.431-23.326-189.719,37.321-24.609,74.787,4.489,88.481,48.711,8.762,28.294,36.52,10.566,52.92,46.809,14.394,31.811-13.873,82.486-24.015,110.955C1710.769,1921.286,1744.423,1956.807,1755.482,1998.47Z" fill="url(#linear-gradient-2)"/>
          <g id="Grupo_93708" data-name="Grupo 93708">
            <g id="Grupo_93707" data-name="Grupo 93707" clip-path="url(#clip-path-3)">
              <path id="Trazado_149778" data-name="Trazado 149778" d="M1693.667,1892.485c-5.106-72.891,59.591-177.42,60.246-178.467l-1.329-.945c-.611.978-56.834,91.825-60.591,163.637q-2.873-25.353-7.144-49.954-3.146-18.078-7.056-35.725l.009-.005-.019-.044c-4.836-21.873-10.524-43.2-17.032-63.811l.025,0c-4.956-40.358-1.392-83.981-.221-98.316.283-3.47.379-4.692.343-5.124l-1.59.151c.023.33-.139,2.314-.344,4.825-1.088,13.321-4.235,51.85-.736,89.679a.151.151,0,0,1-.3.06q-2.4-7.287-4.943-14.448a592.467,592.467,0,0,0-32.531-75.378c-2.088-4.006-4.433-7.977-6.7-11.818-3.022-5.117-6.147-10.409-8.686-15.822l-1.427.763c2.574,5.487,5.72,10.814,8.762,15.967,2.256,3.821,4.59,7.773,6.657,11.738A590.707,590.707,0,0,1,1651.5,1704.6a727.7,727.7,0,0,1,23.383,80.778c-19.172-31.883-79.275-55.5-81.969-56.546l-.545,1.6c.69.268,69.124,27.149,83.9,61.122q3.871,17.537,7.01,35.513c9.283,53.36,13.611,109.717,12.864,167.505-.084,6.465-.252,12.966-.463,19.486h1.6c.21-6.512.378-13.005.462-19.463a948.355,948.355,0,0,0-4.112-102.107Zm-67.834,90.208a342.362,342.362,0,0,1,26.942,31.365h2.025a345.248,345.248,0,0,0-27.877-32.611Z" fill="#fefefc" style="mix-blend-mode: soft-light;isolation: isolate"/>
            </g>
          </g>
        </g>
      </g>
    </g>
    <g id="Grupo_93735" data-name="Grupo 93735">
      <g id="Grupo_93712" data-name="Grupo 93712">
        <path id="Trazado_149779" data-name="Trazado 149779" d="M1916.921,2084.482a21.634,21.634,0,0,1-14.344-16.288l-10.662-52.768-91.2,3.239-11.224,54.972c-1.572,7.7,4.72,15.423,11.968,18.259l38.157,14.929a49.6,49.6,0,0,0,22.308,3.234l80.64-6.9a5,5,0,0,0,4.523-4.432c.274-2.377,1.926-5.047-.322-5.792Z" fill="#336bb7"/>
        <path id="Trazado_149780" data-name="Trazado 149780" d="M1917.824,2081.273a21.444,21.444,0,0,1-14.33-16.083l-10.651-52.1-88.98,3.2-11.213,54.281a15.881,15.881,0,0,0,9.825,18.025l38.119,14.742a50.09,50.09,0,0,0,22.285,3.194l80.559-6.812a4.971,4.971,0,0,0,1.13-9.676Z" fill="url(#linear-gradient-3)"/>
      </g>
      <g id="Grupo_93714" data-name="Grupo 93714">
        <g id="Grupo_93713" data-name="Grupo 93713">
          <path id="Trazado_149781" data-name="Trazado 149781" d="M1614.351,2050.5c-9.89.589-17.981-5.827-17.981-14.306V1730.581c0-8.479,8.091-15.027,17.981-14.6L2071.74,1735.8a13.825,13.825,0,0,1,13.141,13.648v259.92a14.105,14.105,0,0,1-13.141,13.862Z" fill="url(#linear-gradient-4)"/>
          <path id="Trazado_149782" data-name="Trazado 149782" d="M1618.462,2050.5c-9.891.589-17.982-5.827-17.982-14.306V1730.581c0-8.479,8.091-15.027,17.982-14.6l457.389,19.819a13.825,13.825,0,0,1,13.141,13.648v259.92a14.105,14.105,0,0,1-13.141,13.862Z" fill="url(#linear-gradient-5)"/>
          <path id="Trazado_149783" data-name="Trazado 149783" d="M2075.851,1741.918,1618.462,1723.1c-5.288-.217-9.586,3.277-9.586,7.8v304.827c0,4.527,4.3,7.951,9.586,7.647l457.389-26.265a7.529,7.529,0,0,0,7.039-7.41V1749.213A7.38,7.38,0,0,0,2075.851,1741.918Z" fill="#d8dee8" opacity="0.3" style="mix-blend-mode: multiply;isolation: isolate"/>
          <path id="Trazado_149784" data-name="Trazado 149784" d="M1618.462,2017.417c-2.059.1-3.735-1.249-3.735-3.01V1731.131a3.34,3.34,0,0,1,3.735-3.046l457.389,18.115a2.884,2.884,0,0,1,2.752,2.847v242.884a2.919,2.919,0,0,1-2.752,2.875Z" fill="url(#linear-gradient-6)"/>
        </g>
        <path id="Trazado_149785" data-name="Trazado 149785" d="M2028.1,2004.315c-38.48-23.8-11.6-91.481-54.817-125.485-43.567-34.282-104.873,7.765-135.391-27.738-22.724-26.436,3.865-58.356-17.832-83.217-34.026-38.987-121.13,14.634-161.148-23.776-5.682-5.453-11.416-13.726-14.679-27l-25.772-1.117c-9.891-.428-17.982,6.12-17.982,14.6v305.612c0,8.479,8.091,14.895,17.982,14.306l457.389-27.268a14.105,14.105,0,0,0,13.141-13.862v-4.621C2058.621,2015.054,2040.054,2011.709,2028.1,2004.315Z" fill="#fff" opacity="0.6" style="mix-blend-mode: soft-light;isolation: isolate"/>
      </g>
      <g id="Grupo_93734" data-name="Grupo 93734">
        <g id="Grupo_93715" data-name="Grupo 93715">
          <path id="Trazado_149786" data-name="Trazado 149786" d="M2004.438,1982.869V1669.932L1723.1,1655.863V1998.6a14.677,14.677,0,0,1-12.31,14.485h0l278.528-14.069A16.182,16.182,0,0,0,2004.438,1982.869Z" fill="#fff"/>
        </g>
        <g id="Grupo_93716" data-name="Grupo 93716">
          <path id="Trazado_149787" data-name="Trazado 149787" d="M2004.438,1733.2a.631.631,0,0,1-.631-.632v-62.037l-280.072-14.006v63.853a.632.632,0,0,1-1.264,0V1655.2l.663.034,281.936,14.1v63.239A.631.631,0,0,1,2004.438,1733.2Z" fill="#d8dee8"/>
        </g>
        <g id="Grupo_93733" data-name="Grupo 93733">
          <path id="Trazado_149788" data-name="Trazado 149788" d="M1986.412,1717.766l-235.727-5.715v-30.842l235.727,7.337Z" fill="#d8dee8"/>
          <g id="Grupo_93724" data-name="Grupo 93724">
            <g id="Grupo_93722" data-name="Grupo 93722">
              <g id="Grupo_93717" data-name="Grupo 93717">
                <path id="Trazado_149789" data-name="Trazado 149789" d="M1986.412,1814.374l-235.728-.354v-78.68l235.728,4.491Zm-231.506-4.747,226.58.564v-66.262l-226.58-4.1Z" fill="#d8dee8"/>
              </g>
              <g id="Grupo_93718" data-name="Grupo 93718">
                <path id="Trazado_149790" data-name="Trazado 149790" d="M1805.57,1811.387h-4.926v-73.222l4.926.082Z" fill="#d8dee8"/>
              </g>
              <g id="Grupo_93721" data-name="Grupo 93721">
                <g id="Grupo_93719" data-name="Grupo 93719">
                  <path id="Trazado_149791" data-name="Trazado 149791" d="M1983.6,1767.83l-180.842-2.26v-4.355l180.842,2.438Z" fill="#d8dee8"/>
                </g>
                <g id="Grupo_93720" data-name="Grupo 93720">
                  <path id="Trazado_149792" data-name="Trazado 149792" d="M1983.6,1790.5l-180.842-1.294v-4.355l180.842,1.472Z" fill="#d8dee8"/>
                </g>
              </g>
            </g>
            <g id="Grupo_93723" data-name="Grupo 93723">
              <path id="Trazado_149793" data-name="Trazado 149793" d="M1937.859,1813.692l-4.926-.006v-73.064l4.926.081Z" fill="#d8dee8"/>
            </g>
          </g>
          <g id="Grupo_93732" data-name="Grupo 93732">
            <g id="Grupo_93730" data-name="Grupo 93730">
              <g id="Grupo_93725" data-name="Grupo 93725">
                <path id="Trazado_149794" data-name="Trazado 149794" d="M1986.412,1954.515l-235.728,7.422v-78.679l235.728-3.286Zm-231.506,2.875,226.58-6.917v-66.261l-226.58,3.384Z" fill="#d8dee8"/>
              </g>
              <g id="Grupo_93726" data-name="Grupo 93726">
                <path id="Trazado_149795" data-name="Trazado 149795" d="M1805.57,1957.717l-4.926.163v-73.446l4.926-.081Z" fill="#d8dee8"/>
              </g>
              <g id="Grupo_93729" data-name="Grupo 93729">
                <g id="Grupo_93727" data-name="Grupo 93727">
                  <path id="Trazado_149796" data-name="Trazado 149796" d="M1983.6,1908.051l-180.842,3.711v-4.355l180.842-3.533Z" fill="#d8dee8"/>
                </g>
                <g id="Grupo_93728" data-name="Grupo 93728">
                  <path id="Trazado_149797" data-name="Trazado 149797" d="M1983.6,1930.726l-180.842,4.676v-4.355l180.842-4.5Z" fill="#d8dee8"/>
                </g>
              </g>
            </g>
            <g id="Grupo_93731" data-name="Grupo 93731">
              <path id="Trazado_149798" data-name="Trazado 149798" d="M1937.859,1955.448l-4.926.138v-73.064l4.926-.064Z" fill="#d8dee8"/>
            </g>
          </g>
          <path id="Trazado_149799" data-name="Trazado 149799" d="M1986.412,1839.42l-235.727,1.036v-10.071l235.727-.506Z" fill="#d8dee8"/>
          <path id="Trazado_149800" data-name="Trazado 149800" d="M1986.412,1862.081l-235.727,2.293V1854.3l235.727-1.764Z" fill="#d8dee8"/>
          <path id="Trazado_149801" data-name="Trazado 149801" d="M1986.412,1979.561l-235.727,8.812V1978.3l235.727-8.283Z" fill="#d8dee8"/>
        </g>
      </g>
    </g>
    <g id="Grupo_93738" data-name="Grupo 93738">
      <g id="Grupo_93737" data-name="Grupo 93737">
        <path id="Trazado_149802" data-name="Trazado 149802" d="M1946.724,1862.952l-6.424-7.01a23.836,23.836,0,0,0-5.714-4.925c-5.168-3.171-12.281-4.725-13.346-2.915-1.209,2.053,5.548,8.136,7.848,10.143l9.53,6.923Z" fill="url(#linear-gradient-7)"/>
        <path id="Trazado_149803" data-name="Trazado 149803" d="M2083.959,1815.308c1.745.659,28.355,11.242,33.825,39.015.442,2.244,4.717,26.1-11.465,42.962-18.146,18.9-53.086,18.434-66.955,2.632a28.326,28.326,0,0,1-5.9-11.2h0l3.655-9.708c4.458-5.383,10.53-6.659,13.772-7.458,7.993-1.97,14.028,1.59,18.606-2.264,2.533-2.133,3.036-5.2,3.485-7.944,1.531-9.339-3.74-15.088-4.124-20.846-.286-4.306-1.793-13.739,3.826-19.891C2076.245,1816.71,2081.174,1815.649,2083.959,1815.308Z" fill="url(#linear-gradient-8)"/>
        <path id="Trazado_149804" data-name="Trazado 149804" d="M2094.328,2124.831c.31-1.709,5.832-3.257,8.566-.967,1.357,1.137,2.292,3.442,1.507,4.483-.286.379.884,1.045-.237,1.058C2100.444,2129.448,2094.019,2126.53,2094.328,2124.831Z" fill="url(#linear-gradient-9)"/>
        <path id="Trazado_149805" data-name="Trazado 149805" d="M2100.115,2125.453l5.679-.8c-2.631-3.168-2.144-13.255-2.144-13.255l-6.039,1.348s.688,2.769,1.859,6.853A26.774,26.774,0,0,1,2100.115,2125.453Z" fill="url(#linear-gradient-10)"/>
        <path id="Trazado_149806" data-name="Trazado 149806" d="M2099.612,2124.754s6.836-1.575,7.576-.219,1.314,4.987-3.024,4.87S2099.226,2125.9,2099.612,2124.754Z" fill="url(#linear-gradient-11)"/>
        <path id="Trazado_149807" data-name="Trazado 149807" d="M2016.411,2131.243c.547-1.65,6.23-2.409,8.617.241,1.185,1.316,1.788,3.729.865,4.649-.336.336.729,1.159-.383,1.015C2021.821,2136.67,2015.868,2132.882,2016.411,2131.243Z" fill="url(#linear-gradient-12)"/>
        <path id="Trazado_149808" data-name="Trazado 149808" d="M2022.054,2132.669h5.735c-2.161-3.5-.267-13.424-.267-13.424l-6.168.489s.293,2.838.881,7.045A26.773,26.773,0,0,1,2022.054,2132.669Z" fill="url(#linear-gradient-13)"/>
        <path id="Trazado_149809" data-name="Trazado 149809" d="M2007.191,1915.792a265.469,265.469,0,0,0-8.892,40.7c-6.967,50.673,7.839,52.289,5.074,108.441-.882,17.924,15.528,59.254,16.975,60.167a17.862,17.862,0,0,0,2.27.089,22.613,22.613,0,0,0,5.78-.964c2.6-.447,11.972-25.833,9.8-40.927-1.537-10.683-1.091-22.148-.2-45.077.144-3.715,9.65-72.284,9.65-72.284h0c2.892,25.38,6.217,46.945,9.1,63.665,9.262,53.718,39.378,86.231,40.949,86.753a6.371,6.371,0,0,0,5.446-.372,3.76,3.76,0,0,0,1.379-1.552c.8-.631-.238-53.631-9.424-93.518-13.333-57.9-7.527-71.443-11.751-97.3C2079.691,1901.232,2007.191,1915.792,2007.191,1915.792Z" fill="url(#linear-gradient-14)"/>
        <path id="Trazado_149810" data-name="Trazado 149810" d="M2061.046,1810.789c-8.853-.26-29.2-3.385-40.406,6.7-.2.175,2.1,1.4.971,2.726a73.293,73.293,0,0,0-7.913,11.353,76.34,76.34,0,0,0-6.65,16.45,141.418,141.418,0,0,0-5.25,28.7c-2.048,26.941-.017,39.371,1.826,47.824,8,4.11,28.627,11.467,53.2,7.812a83.047,83.047,0,0,0,26.522-8.737c-6.376-19.306-1.374-29.637.986-39.158,3.366-13.578,3.42-12.551,6.191-23.337,4.571-17.8,5.321-35.981,2.18-39.7C2084.233,1811.385,2068.971,1811.022,2061.046,1810.789Z" fill="url(#linear-gradient-15)"/>
        <path id="Trazado_149811" data-name="Trazado 149811" d="M2021.654,2131.906s6.989-.6,7.532.843.6,5.122-3.676,4.4S2021.111,2132.99,2021.654,2131.906Z" fill="url(#linear-gradient-16)"/>
        <g id="Grupo_93736" data-name="Grupo 93736">
          <path id="Trazado_149812" data-name="Trazado 149812" d="M2036.133,1800.64c-2.742-4.636-1.52-9.932-1.245-11.076,1.153-4.791,1.582-5.518,2.472-6.532l1.257-1.329s.078-.059.161-.115a17.982,17.982,0,0,1,4.844-1.614c2.251-.113,6.833,7.96,9.456,20.4q.32.666.633,1.346c1.3,2.823,2.418,5.6,3.376,8.3,15.216,1.287,17.328,3.072,17.4,4.1.143,2.17-8.526,4.678-15.046,5.632-14.219,2.082-28.836-1.668-28.769-4.319.029-1.154,2.855-2.659,14.909-4.237q-.423-2.992-.845-5.985C2043.751,1805,2038.153,1804.056,2036.133,1800.64Z" fill="url(#linear-gradient-17)"/>
          <path id="Trazado_149813" data-name="Trazado 149813" d="M2033.273,1779.4c1.026,3.8,3.9,7.379,4.985,7.788a6.56,6.56,0,0,1,1.778,1.137,1.969,1.969,0,0,1,.336.392c1.472,2.173-1.586,6.007-.565,6.884.741.636,3.052-1.095,3.539-.505.459.555-1.343,2.438-.812,3.107.4.506,1.585-.37,2.653.283.533.325.5.7,1.3,1.92a12.611,12.611,0,0,0,1.412,1.807c1.909,1.881,5.847,1.7,6.325.621.132-.3-.094-.466-.113-1.356a6.894,6.894,0,0,1,.282-1.863c.429-1.484,2.043-2.893,3.557-4.743,2.806-3.425,3.181-5.808,3.272-6.6.033-.284.044-.494.052-.645.155-3.043-.938-7.159-2.872-9.354-3.24-3.677-7.463-.4-12.479-3.557-5.787-3.649-4.876-10.987-7.51-11.068C2035.508,1763.55,2031.376,1772.372,2033.273,1779.4Z" fill="url(#linear-gradient-18)"/>
          <path id="Trazado_149814" data-name="Trazado 149814" d="M2040.936,1794.338c.59-1.528,2.548-.762,3,.892s-.7,3.8-2.339,3.891S2040.141,1796.4,2040.936,1794.338Z" fill="url(#linear-gradient-19)"/>
        </g>
        <path id="Trazado_149815" data-name="Trazado 149815" d="M2080.47,1912.495l-.148-1.33c-1.057-9.509.907-16.4,2.64-22.472.423-1.483.823-2.885,1.17-4.286,1.912-7.715,2.75-10.694,3.636-13.848.576-2.049,1.171-4.167,2.093-7.706l.4.092Zm8.207-43.65c-.178.636-.345,1.233-.512,1.825-.886,3.151-1.722,6.127-3.632,13.836-.35,1.408-.75,2.813-1.174,4.3-1.637,5.738-3.48,12.2-2.762,20.919Z" fill="#9b305e"/>
        <path id="Trazado_149816" data-name="Trazado 149816" d="M2040.952,1791.366l-1.411,3.388s-1.412,4.065-3.275,2.541c-1.523-1.246-1.8-1.135-1.852-1.052-.01.016-.009.036-.012.036-.021,0-.042-.811-.056-1.525a13.089,13.089,0,0,0-.791,4.461c0,1.875,0,3.883,1.468,5.421a5.582,5.582,0,0,0,3.84,1.637s.848-.03,4.066-1.524c0,0-4.4-1.694-4.631-2.315-.614-1.689,1.536-3.264,2.372-7.285A14.709,14.709,0,0,0,2040.952,1791.366Z" fill="url(#linear-gradient-20)"/>
        <path id="Trazado_149817" data-name="Trazado 149817" d="M1943.168,1857.943a17.735,17.735,0,0,0-5.808,7.225,53.663,53.663,0,0,0,18.74,23.34c18.115,12.395,44.677,12.812,63.178-1.323,22.1-16.887,25.8-49.27,16.513-63.138-1.069-1.6-4.582-6.845-10.037-7.447-3.445-.381-8.134,1.04-15.542,9.713-15.436,18.073-9.984,29.358-19.1,34.646C1977.434,1868.887,1957.112,1848.185,1943.168,1857.943Z" fill="url(#linear-gradient-21)"/>
        <path id="Trazado_149818" data-name="Trazado 149818" d="M2004.757,1894.928l32.617-32.921-.319.881c-5.087,14.036-13.407,21.958-19.491,26.132a38.55,38.55,0,0,1-12.127,5.761Zm31.579-31.287-30.26,30.542C2009.872,1893.075,2027.566,1886.767,2036.336,1863.641Z" fill="#9b305e"/>
      </g>
    </g>
    <g id="Grupo_93755" data-name="Grupo 93755">
      <path id="Trazado_149819" data-name="Trazado 149819" d="M1774.1,1943.535l-.478,161.808a15.861,15.861,0,0,1-14.427,15.549l-115.527,8.467c-8.729.64-15.854-5.742-15.854-14.089V1944.993c0-7.9,6.321-14.423,14.36-15.213.514-.051,1.036-.068,1.562-.071l115.967-.553A14.268,14.268,0,0,1,1774.1,1943.535Z" fill="url(#linear-gradient-22)"/>
      <path id="Trazado_149820" data-name="Trazado 149820" d="M1782.484,1943.435l-.5,161.514c-.025,7.918-6.069,14.909-14.041,15.493l-115.057,8.431c-8.693.637-16.146-5.708-16.145-14.038l.023-169.947c0-7.888,6.473-14.4,14.48-15.184.512-.051,1.21-.069,1.734-.072l115.5-.552C1776.482,1929.042,1782.509,1935.46,1782.484,1943.435Z" fill="url(#linear-gradient-23)"/>
      <g id="Grupo_93739" data-name="Grupo 93739" opacity="0.3" style="mix-blend-mode: multiply;isolation: isolate">
        <path id="Trazado_149821" data-name="Trazado 149821" d="M1782.485,1943.206l-.125,40.595-145.6,3.566.006-42.721c0-7.7,6.178-13.965,13.913-14.995a19.379,19.379,0,0,1,2.3-.019l115.5-.552A13.755,13.755,0,0,1,1782.485,1943.206Z" fill="url(#linear-gradient-24)"/>
        <path id="Trazado_149822" data-name="Trazado 149822" d="M1782.4,1971.325l-.052,16.868c-14.416,4.429-40.781,7.845-70.771,8.7-13.159.375-25.828.224-37.235-.376-15.128-.8-27.846-2.379-37.58-4.528l0-17.751c3.659-.894,7.025-1.726,11.024-2.505a305.55,305.55,0,0,1,30.76-4.135c10.338-.918,21.6-1.516,33.249-1.721,15.057-.265,29.1.158,41.219,1.121.945.073,1.888.153,2.808.233,2.907.257,5.7.545,8.361.864q1.413.168,2.777.349c2.089.277,3.884.574,5.787.887C1776.4,1969.931,1779.642,1970.6,1782.4,1971.325Z" fill="url(#linear-gradient-24)"/>
      </g>
      <path id="Trazado_149823" data-name="Trazado 149823" d="M1775.2,1975.178a4.506,4.506,0,0,1-4.383,4.465l-119.553,2.737a4.542,4.542,0,0,1-4.766-4.457l.009-28.582a4.736,4.736,0,0,1,4.773-4.621l119.64-1.191a4.3,4.3,0,0,1,4.36,4.327Z" fill="#fff"/>
      <path id="Trazado_149824" data-name="Trazado 149824" d="M1772.43,1974.627a2.846,2.846,0,0,1-2.772,2.821l-118.936,2.628a2.87,2.87,0,0,1-3.009-2.816l.01-28.456a2.989,2.989,0,0,1,3.013-2.918l119.015-1.233a2.72,2.72,0,0,1,2.758,2.734Z" fill="#fdfbf7"/>
      <g id="Grupo_93745" data-name="Grupo 93745">
        <g id="Grupo_93742" data-name="Grupo 93742">
          <g id="Grupo_93740" data-name="Grupo 93740" opacity="0.3">
            <path id="Trazado_149825" data-name="Trazado 149825" d="M1755.714,1958.389a1.289,1.289,0,0,1-1.377,1.254h-.064a1.24,1.24,0,0,1-1.372-1.213l.014-5.6a1.354,1.354,0,0,1,1.379-1.333h.064a1.3,1.3,0,0,1,1.371,1.3Z" fill="url(#linear-gradient-26)"/>
            <path id="Trazado_149826" data-name="Trazado 149826" d="M1766.912,1958.241a1.3,1.3,0,0,1-1.367,1.272h-.063a1.249,1.249,0,0,1-1.361-1.23l.015-5.6a1.359,1.359,0,0,1,1.369-1.344h.063a1.306,1.306,0,0,1,1.359,1.308Z" fill="url(#linear-gradient-27)"/>
          </g>
          <g id="Grupo_93741" data-name="Grupo 93741">
            <path id="Trazado_149827" data-name="Trazado 149827" d="M1755.683,1970.934a1.516,1.516,0,0,1-1.377,1.517h-.064a1.447,1.447,0,0,1-1.372-1.462l.014-5.767a1.5,1.5,0,0,1,1.379-1.5h.064a1.438,1.438,0,0,1,1.37,1.455Z" opacity="0.3" fill="url(#linear-gradient-28)"/>
            <path id="Trazado_149828" data-name="Trazado 149828" d="M1766.878,1970.78c0,.75-.614.986-1.367,1.576h-.063a1.5,1.5,0,0,1-1.36-1.523l.015-6.032c0-.752.615-1.778,1.368-1.786h.063c.753-.008,1.362.986,1.36,1.737Z" opacity="0.3" fill="url(#linear-gradient-29)"/>
          </g>
        </g>
        <g id="Grupo_93744" data-name="Grupo 93744">
          <path id="Trazado_149829" data-name="Trazado 149829" d="M1764.151,1961.169a1.415,1.415,0,0,1-1.388,1.388l-5.385.1c-.758.013-1.088-.586-1.088-1.34v-.063c0-.754.327-1.374,1.085-1.386l5.541-.094a1.23,1.23,0,0,1,1.235,1.336Z" opacity="0.3" fill="url(#linear-gradient-30)"/>
          <g id="Grupo_93743" data-name="Grupo 93743">
            <path id="Trazado_149830" data-name="Trazado 149830" d="M1764.151,1949.47a1.394,1.394,0,0,1-1.373,1.383l-5.393.072c-.758.009-1.095-.594-1.095-1.348v-.063c0-.755.342-1.371,1.1-1.38l5.534-.069a1.23,1.23,0,0,1,1.227,1.342Z" opacity="0.3" fill="url(#linear-gradient-31)"/>
            <path id="Trazado_149831" data-name="Trazado 149831" d="M1764.151,1973.419a1.436,1.436,0,0,1-1.405,1.393l-5.678.118a1.343,1.343,0,0,1-1.382-1.337v-.063a1.4,1.4,0,0,1,1.371-1.388l5.7-.116a1.352,1.352,0,0,1,1.4,1.33Z" opacity="0.3" fill="url(#linear-gradient-32)"/>
          </g>
        </g>
      </g>
      <path id="Trazado_149832" data-name="Trazado 149832" d="M1720.506,2113.538a32.126,32.126,0,0,1-2.427,7.874c-.417.9-.888,1.833-1.405,2.787l-63.784,4.674c-8.693.637-16.146-5.708-16.145-14.038l.023-170.189c0-7.7,6.178-14.094,13.913-15.124.189.054.468.113.658.172,8.158,2.519,17.069,7.226,22.4,16.039,3.336,5.506,5.32,12.631,4.875,21.863a63.271,63.271,0,0,1-.832,7.6q-.4,2.337-.8,4.773-.5,3.04-.99,6.207c-.513,3.373-.985,6.835-1.365,10.332-.363,3.352-.639,6.74-.777,10.119-.026.652-.048,1.307-.063,1.959-.054,2.114-.048,4.218.029,6.3q.075,2.143.255,4.255c.677,7.921,2.509,15.476,6.181,22.07,2.777,4.984,6.962,8.819,11.359,12.374,1.161.937,2.336,1.856,3.505,2.772a97.29,97.29,0,0,1,11.241,10.05c.084.089.168.181.25.27a56.785,56.785,0,0,1,4.62,5.679,42.421,42.421,0,0,1,4.016,7.041c.428.943.823,1.9,1.189,2.875.633,1.668,1.177,3.379,1.651,5.125q.32,1.173.62,2.382a.54.54,0,0,1,.024.094,84.083,84.083,0,0,1,1.922,9.905A46.053,46.053,0,0,1,1720.506,2113.538Z" fill="#fff" opacity="0.3" style="mix-blend-mode: soft-light;isolation: isolate"/>
      <g id="Grupo_93754" data-name="Grupo 93754">
        <g id="Grupo_93749" data-name="Grupo 93749" style="mix-blend-mode: multiply;isolation: isolate">
          <g id="Grupo_93746" data-name="Grupo 93746">
            <path id="Trazado_149833" data-name="Trazado 149833" d="M1674.1,2016.694a3.245,3.245,0,0,1-3.162,3.158l-21.239.765a3.011,3.011,0,0,1-3.212-2.958l0-7.752a3.271,3.271,0,0,1,3.215-3.175l21.246-.664a2.987,2.987,0,0,1,3.157,2.947Z" fill="url(#linear-gradient-33)"/>
            <path id="Trazado_149834" data-name="Trazado 149834" d="M1708.761,2015.482a3.19,3.19,0,0,1-3.089,3.119l-20.73.746a2.954,2.954,0,0,1-3.133-2.923l.008-7.658a3.213,3.213,0,0,1,3.14-3.135l20.736-.648a2.93,2.93,0,0,1,3.08,2.912Z" fill="url(#linear-gradient-34)"/>
            <path id="Trazado_149835" data-name="Trazado 149835" d="M1741.465,2014.339a3.134,3.134,0,0,1-3.02,3.081l-20.256.73a2.9,2.9,0,0,1-3.058-2.891l.013-7.569a3.158,3.158,0,0,1,3.069-3.1l20.262-.634a2.876,2.876,0,0,1,3.007,2.881Z" fill="url(#linear-gradient-35)"/>
            <path id="Trazado_149836" data-name="Trazado 149836" d="M1774.537,2013.182a3.084,3.084,0,0,1-2.952,3.045l-19.781.712a2.845,2.845,0,0,1-2.985-2.858l.018-7.48a3.1,3.1,0,0,1,3-3.06l19.786-.618a2.822,2.822,0,0,1,2.935,2.847Z" fill="url(#linear-gradient-36)"/>
          </g>
          <g id="Grupo_93747" data-name="Grupo 93747">
            <path id="Trazado_149837" data-name="Trazado 149837" d="M1674.078,2041.346a3.276,3.276,0,0,1-3.16,3.182l-21.229.946a2.981,2.981,0,0,1-3.211-2.927l0-7.744a3.3,3.3,0,0,1,3.213-3.2l21.235-.845a2.955,2.955,0,0,1,3.156,2.917Z" fill="url(#linear-gradient-37)"/>
            <path id="Trazado_149838" data-name="Trazado 149838" d="M1708.722,2039.839a3.22,3.22,0,0,1-3.087,3.142l-20.721.923a2.921,2.921,0,0,1-3.13-2.893l.008-7.651a3.243,3.243,0,0,1,3.138-3.159l20.726-.824a2.9,2.9,0,0,1,3.078,2.883Z" fill="url(#linear-gradient-38)"/>
            <path id="Trazado_149839" data-name="Trazado 149839" d="M1741.411,2038.417a3.166,3.166,0,0,1-3.019,3.1l-20.246.9a2.868,2.868,0,0,1-3.057-2.862l.013-7.562a3.188,3.188,0,0,1,3.068-3.121l20.252-.806a2.845,2.845,0,0,1,3.006,2.852Z" fill="url(#linear-gradient-39)"/>
            <path id="Trazado_149840" data-name="Trazado 149840" d="M1774.467,2036.979a3.112,3.112,0,0,1-2.95,3.067l-19.772.881a2.815,2.815,0,0,1-2.983-2.83l.018-7.473a3.135,3.135,0,0,1,3-3.083l19.777-.787a2.793,2.793,0,0,1,2.934,2.82Z" fill="url(#linear-gradient-40)"/>
          </g>
          <g id="Grupo_93748" data-name="Grupo 93748">
            <path id="Trazado_149841" data-name="Trazado 149841" d="M1674.057,2065.4a3.308,3.308,0,0,1-3.159,3.205l-21.219,1.122a2.948,2.948,0,0,1-3.209-2.9l0-7.736a3.335,3.335,0,0,1,3.212-3.224l21.224-1.021a2.924,2.924,0,0,1,3.155,2.888Z" fill="url(#linear-gradient-41)"/>
            <path id="Trazado_149842" data-name="Trazado 149842" d="M1708.684,2063.606a3.25,3.25,0,0,1-3.085,3.165l-20.711,1.1a2.891,2.891,0,0,1-3.129-2.865l.008-7.643a3.273,3.273,0,0,1,3.136-3.182l20.716-1a2.867,2.867,0,0,1,3.077,2.855Z" fill="url(#linear-gradient-42)"/>
            <path id="Trazado_149843" data-name="Trazado 149843" d="M1741.358,2061.913a3.2,3.2,0,0,1-3.017,3.127l-20.237,1.07a2.838,2.838,0,0,1-3.055-2.833l.012-7.555a3.22,3.22,0,0,1,3.067-3.144l20.242-.974a2.815,2.815,0,0,1,3.005,2.824Z" fill="url(#linear-gradient-43)"/>
            <path id="Trazado_149844" data-name="Trazado 149844" d="M1774.4,2060.2a3.144,3.144,0,0,1-2.95,3.088l-19.763,1.045a2.784,2.784,0,0,1-2.981-2.8l.017-7.466a3.166,3.166,0,0,1,3-3.1l19.768-.951a2.763,2.763,0,0,1,2.933,2.793Z" fill="url(#linear-gradient-44)"/>
          </g>
          <path id="Trazado_149845" data-name="Trazado 149845" d="M1674.036,2088.861a3.34,3.34,0,0,1-3.158,3.228l-21.208,1.294a2.918,2.918,0,0,1-3.207-2.869l0-7.729a3.366,3.366,0,0,1,3.21-3.246l21.215-1.193a2.894,2.894,0,0,1,3.153,2.859Z" fill="url(#linear-gradient-45)"/>
          <path id="Trazado_149846" data-name="Trazado 149846" d="M1708.647,2086.786a3.28,3.28,0,0,1-3.084,3.187l-20.7,1.263a2.862,2.862,0,0,1-3.128-2.836l.008-7.636a3.305,3.305,0,0,1,3.135-3.2l20.707-1.165a2.837,2.837,0,0,1,3.075,2.827Z" fill="url(#linear-gradient-46)"/>
          <path id="Trazado_149847" data-name="Trazado 149847" d="M1741.307,2084.828a3.228,3.228,0,0,1-3.016,3.149l-20.228,1.233a2.808,2.808,0,0,1-3.054-2.8l.013-7.548a3.25,3.25,0,0,1,3.065-3.166l20.233-1.138a2.786,2.786,0,0,1,3,2.8Z" fill="url(#linear-gradient-47)"/>
          <path id="Trazado_149848" data-name="Trazado 149848" d="M1674.013,2114.013a3.372,3.372,0,0,1-3.155,3.252l-21.2,1.478a2.888,2.888,0,0,1-3.206-2.838l0-7.721a3.4,3.4,0,0,1,3.208-3.271l21.2-1.377a2.861,2.861,0,0,1,3.151,2.828Z" fill="url(#linear-gradient-48)"/>
          <path id="Trazado_149849" data-name="Trazado 149849" d="M1708.608,2111.637a3.314,3.314,0,0,1-3.083,3.211l-20.691,1.443a2.831,2.831,0,0,1-3.126-2.807l.008-7.628a3.338,3.338,0,0,1,3.133-3.228l20.7-1.345a2.808,2.808,0,0,1,3.074,2.8Z" fill="url(#linear-gradient-49)"/>
          <path id="Trazado_149850" data-name="Trazado 149850" d="M1741.251,2109.4a3.259,3.259,0,0,1-3.014,3.172l-20.218,1.409a2.779,2.779,0,0,1-3.053-2.776l.013-7.54a3.283,3.283,0,0,1,3.064-3.19l20.223-1.314a2.757,2.757,0,0,1,3,2.768Z" fill="url(#linear-gradient-50)"/>
          <path id="Trazado_149851" data-name="Trazado 149851" d="M1771.324,2072.7l-19.761,1.112c-1.65.093-2.892,1.937-2.9,3.571l-.011,4.2-.008,3.508-.038,15.839-.011,4.659-.007,3.043a2.861,2.861,0,0,0,2.877,3.016l19.747-1.376a3.558,3.558,0,0,0,3.046-3.4l.009-3.016.014-4.616.045-15.7.011-3.476.012-4.163A3.192,3.192,0,0,0,1771.324,2072.7Z" fill="url(#linear-gradient-51)"/>
        </g>
        <g id="Grupo_93753" data-name="Grupo 93753">
          <g id="Grupo_93750" data-name="Grupo 93750">
            <path id="Trazado_149852" data-name="Trazado 149852" d="M1675.289,2016.652a3.243,3.243,0,0,1-3.16,3.157l-21.222.764a3.01,3.01,0,0,1-3.209-2.956l0-7.749a3.268,3.268,0,0,1,3.212-3.173l21.228-.664a2.986,2.986,0,0,1,3.155,2.946Z" fill="url(#linear-gradient-52)"/>
            <path id="Trazado_149853" data-name="Trazado 149853" d="M1708.761,2015.482a3.19,3.19,0,0,1-3.089,3.119l-20.73.746a2.954,2.954,0,0,1-3.133-2.923l.008-7.658a3.213,3.213,0,0,1,3.14-3.135l20.736-.648a2.93,2.93,0,0,1,3.08,2.912Z" fill="url(#linear-gradient-53)"/>
            <path id="Trazado_149854" data-name="Trazado 149854" d="M1742.6,2014.3a3.135,3.135,0,0,1-3.018,3.081l-20.239.729a2.9,2.9,0,0,1-3.056-2.89l.013-7.567a3.156,3.156,0,0,1,3.067-3.1l20.245-.633a2.874,2.874,0,0,1,3.005,2.879Z" fill="url(#linear-gradient-54)"/>
            <path id="Trazado_149855" data-name="Trazado 149855" d="M1775.644,2013.144a3.08,3.08,0,0,1-2.949,3.043l-19.766.712a2.844,2.844,0,0,1-2.982-2.857l.019-7.477a3.1,3.1,0,0,1,3-3.059l19.77-.618a2.821,2.821,0,0,1,2.933,2.847Z" fill="url(#linear-gradient-55)"/>
          </g>
          <g id="Grupo_93751" data-name="Grupo 93751">
            <path id="Trazado_149856" data-name="Trazado 149856" d="M1675.266,2041.294a3.275,3.275,0,0,1-3.158,3.181l-21.211.945a2.978,2.978,0,0,1-3.208-2.926l0-7.741a3.3,3.3,0,0,1,3.211-3.2l21.217-.844a2.951,2.951,0,0,1,3.153,2.916Z" fill="url(#linear-gradient-56)"/>
            <path id="Trazado_149857" data-name="Trazado 149857" d="M1708.722,2039.839a3.22,3.22,0,0,1-3.087,3.142l-20.721.923a2.921,2.921,0,0,1-3.13-2.893l.008-7.651a3.243,3.243,0,0,1,3.138-3.159l20.726-.824a2.9,2.9,0,0,1,3.078,2.883Z" fill="url(#linear-gradient-57)"/>
            <path id="Trazado_149858" data-name="Trazado 149858" d="M1742.544,2038.368a3.163,3.163,0,0,1-3.016,3.1l-20.23.9a2.865,2.865,0,0,1-3.054-2.86l.013-7.559a3.187,3.187,0,0,1,3.066-3.12l20.235-.805a2.842,2.842,0,0,1,3,2.85Z" fill="url(#linear-gradient-58)"/>
            <path id="Trazado_149859" data-name="Trazado 149859" d="M1775.574,2036.931a3.111,3.111,0,0,1-2.948,3.066l-19.756.88a2.814,2.814,0,0,1-2.981-2.829l.018-7.47a3.132,3.132,0,0,1,3-3.081l19.761-.787a2.792,2.792,0,0,1,2.932,2.819Z" fill="url(#linear-gradient-59)"/>
          </g>
          <g id="Grupo_93752" data-name="Grupo 93752">
            <path id="Trazado_149860" data-name="Trazado 149860" d="M1675.244,2065.34a3.305,3.305,0,0,1-3.156,3.2l-21.2,1.122a2.946,2.946,0,0,1-3.206-2.9l0-7.733a3.332,3.332,0,0,1,3.209-3.222l21.207-1.02a2.92,2.92,0,0,1,3.151,2.886Z" fill="url(#linear-gradient-60)"/>
            <path id="Trazado_149861" data-name="Trazado 149861" d="M1708.684,2063.606a3.25,3.25,0,0,1-3.085,3.165l-20.711,1.1a2.891,2.891,0,0,1-3.129-2.865l.008-7.643a3.273,3.273,0,0,1,3.136-3.182l20.716-1a2.867,2.867,0,0,1,3.077,2.855Z" fill="url(#linear-gradient-61)"/>
            <path id="Trazado_149862" data-name="Trazado 149862" d="M1742.491,2061.854a3.2,3.2,0,0,1-3.015,3.126l-20.221,1.069a2.836,2.836,0,0,1-3.052-2.832l.013-7.552a3.219,3.219,0,0,1,3.064-3.143l20.226-.973a2.814,2.814,0,0,1,3,2.823Z" fill="url(#linear-gradient-62)"/>
            <path id="Trazado_149863" data-name="Trazado 149863" d="M1775.506,2060.143a3.14,3.14,0,0,1-2.947,3.087l-19.747,1.045a2.783,2.783,0,0,1-2.979-2.8l.018-7.463a3.163,3.163,0,0,1,2.994-3.1l19.752-.95a2.761,2.761,0,0,1,2.931,2.791Z" fill="url(#linear-gradient-63)"/>
          </g>
          <path id="Trazado_149864" data-name="Trazado 149864" d="M1675.223,2088.79a3.337,3.337,0,0,1-3.155,3.226l-21.191,1.293a2.917,2.917,0,0,1-3.2-2.867l0-7.726a3.364,3.364,0,0,1,3.208-3.245l21.2-1.192a2.892,2.892,0,0,1,3.15,2.858Z" fill="url(#linear-gradient-64)"/>
          <path id="Trazado_149865" data-name="Trazado 149865" d="M1708.647,2086.786a3.28,3.28,0,0,1-3.084,3.187l-20.7,1.263a2.862,2.862,0,0,1-3.128-2.836l.008-7.636a3.305,3.305,0,0,1,3.135-3.2l20.707-1.165a2.837,2.837,0,0,1,3.075,2.827Z" fill="url(#linear-gradient-65)"/>
          <path id="Trazado_149866" data-name="Trazado 149866" d="M1742.439,2084.76a3.224,3.224,0,0,1-3.014,3.147l-20.211,1.233a2.807,2.807,0,0,1-3.052-2.8l.013-7.544a3.248,3.248,0,0,1,3.063-3.165l20.217-1.137a2.784,2.784,0,0,1,3,2.8Z" fill="url(#linear-gradient-66)"/>
          <path id="Trazado_149867" data-name="Trazado 149867" d="M1675.2,2113.931a3.372,3.372,0,0,1-3.153,3.251l-21.181,1.476a2.884,2.884,0,0,1-3.2-2.836l0-7.718a3.4,3.4,0,0,1,3.206-3.269l21.186-1.377a2.861,2.861,0,0,1,3.149,2.828Z" fill="url(#linear-gradient-67)"/>
          <path id="Trazado_149868" data-name="Trazado 149868" d="M1708.608,2111.637a3.314,3.314,0,0,1-3.083,3.211l-20.691,1.443a2.831,2.831,0,0,1-3.126-2.807l.008-7.628a3.338,3.338,0,0,1,3.133-3.228l20.7-1.345a2.808,2.808,0,0,1,3.074,2.8Z" fill="url(#linear-gradient-68)"/>
          <path id="Trazado_149869" data-name="Trazado 149869" d="M1742.383,2109.318a3.257,3.257,0,0,1-3.012,3.171l-20.2,1.408a2.777,2.777,0,0,1-3.05-2.775l.013-7.537a3.282,3.282,0,0,1,3.062-3.189l20.207-1.312a2.754,2.754,0,0,1,3,2.766Z" fill="url(#linear-gradient-69)"/>
          <path id="Trazado_149870" data-name="Trazado 149870" d="M1772.473,2072.632l-19.745,1.11c-1.649.093-2.93,1.939-2.934,3.572l-.01,4.2-.008,3.507-.039,15.832-.011,4.657-.007,3.042a2.889,2.889,0,0,0,2.915,3.012l19.73-1.375a3.518,3.518,0,0,0,3.005-3.4l.009-3.014.013-4.615.046-15.688.011-3.475.012-4.162A3.157,3.157,0,0,0,1772.473,2072.632Z" fill="url(#linear-gradient-70)"/>
        </g>
      </g>
    </g>
    <g id="Grupo_93757" data-name="Grupo 93757">
      <path id="Trazado_149871" data-name="Trazado 149871" d="M1740.259,1857.164c0,27.556-21.548,49.234-49.088,48.388-28.661-.88-52.766-25.633-52.766-55.255s24.1-51.125,52.766-48.14C1718.711,1805.024,1740.259,1829.607,1740.259,1857.164Z" fill="url(#linear-gradient-71)"/>
      <path id="Trazado_149872" data-name="Trazado 149872" d="M1747.7,1854.788c0,27.556-21.548,49.234-49.088,48.388-28.661-.88-52.766-25.633-52.766-55.255s24.1-51.125,52.766-48.141C1726.153,1802.648,1747.7,1827.231,1747.7,1854.788Z" fill="url(#linear-gradient-72)"/>
      <path id="Trazado_149873" data-name="Trazado 149873" d="M1745.539,1854.642c0,26.343-20.617,47.031-46.926,46.179-27.33-.885-50.277-24.508-50.277-52.732s22.947-48.754,50.277-45.954C1724.922,1804.831,1745.539,1828.3,1745.539,1854.642Z" fill="url(#linear-gradient-73)"/>
      <path id="Trazado_149874" data-name="Trazado 149874" d="M1743.991,1854.538c0,25.474-19.95,45.455-45.378,44.6-26.381-.886-48.5-23.7-48.5-50.931s22.123-47.062,48.5-44.39C1724.041,1806.392,1743.991,1829.063,1743.991,1854.538Z" fill="url(#linear-gradient-74)"/>
      <g id="Grupo_93756" data-name="Grupo 93756">
        <path id="Trazado_149875" data-name="Trazado 149875" d="M1698.353,1812.484h0a2.774,2.774,0,0,1,2.448,2.721v4.69a69.076,69.076,0,0,1,8.129,1.41q3,.7,5.962,1.679a2.744,2.744,0,0,1,1.868,2.815l-.576,5.881a2.2,2.2,0,0,1-3.148,1.829,34.2,34.2,0,0,0-4-1.49,36.288,36.288,0,0,0-7.544-1.409l-.692-.057v13.432c7.059,1.975,12.243,4.632,15.593,7.973a16.859,16.859,0,0,1,4.995,12.447q0,8.071-5.524,12.939-5.561,4.9-15.627,5.5v5.177a2.355,2.355,0,0,1-2.45,2.392l-.043,0a2.6,2.6,0,0,1-2.46-2.595v-5.107l-1.09-.049a71.556,71.556,0,0,1-9.053-.966,58.708,58.708,0,0,1-6.256-1.438,2.7,2.7,0,0,1-1.963-2.788l.678-7.56a2.39,2.39,0,0,1,3.342-1.972,49.385,49.385,0,0,0,5.5,1.806,48.2,48.2,0,0,0,8.8,1.469l.043-14.941c-6.775-1.677-11.848-4.16-15.181-7.449a17.056,17.056,0,0,1-5.029-12.677q0-7.982,5.452-12.312c3.611-2.868,8.745-4.3,15.369-4.292v-4.8A2.214,2.214,0,0,1,1698.353,1812.484Zm-2.457,17.93a8.271,8.271,0,0,0-4.9,1.726,5.032,5.032,0,0,0-1.757,4.032,5.414,5.414,0,0,0,1.625,4.007,11.517,11.517,0,0,0,5.028,2.565Zm4.342,27.055v13.7a7.579,7.579,0,0,0,5.241-1.629,5.867,5.867,0,0,0,1.824-4.612,6.3,6.3,0,0,0-1.695-4.51A12.447,12.447,0,0,0,1700.238,1857.469Z" fill="url(#linear-gradient-75)"/>
      </g>
      <path id="Trazado_149876" data-name="Trazado 149876" d="M1690.4,1860.776c1.533-15.143,15.45-21.553,13.634-35.482-1.119-8.585-7.626-15.82-14.885-21.469-22.016,2.309-39.041,20.539-39.041,44.383,0,27.229,22.123,50.045,48.5,50.931a45.775,45.775,0,0,0,7.5-.366C1695.631,1888.347,1689.084,1873.785,1690.4,1860.776Z" opacity="0.3" fill="url(#linear-gradient-76)" style="mix-blend-mode: multiply;isolation: isolate"/>
    </g>
    <g id="Grupo_93759" data-name="Grupo 93759">
      <path id="Trazado_149877" data-name="Trazado 149877" d="M1748.805,1724.076c0,32.545-25.449,58.146-57.975,57.148-33.849-1.04-62.318-30.274-62.318-65.258s28.469-60.38,62.318-56.855C1723.356,1662.5,1748.805,1691.53,1748.805,1724.076Z" fill="url(#linear-gradient-71)"/>
      <path id="Trazado_149878" data-name="Trazado 149878" d="M1757.594,1721.269c0,32.546-25.449,58.147-57.974,57.148-33.85-1.039-62.319-30.274-62.319-65.257s28.469-60.38,62.319-56.856C1732.145,1659.691,1757.594,1688.724,1757.594,1721.269Z" fill="url(#linear-gradient-72)"/>
      <path id="Trazado_149879" data-name="Trazado 149879" d="M1755.041,1721.1c0,31.112-24.35,55.545-55.421,54.539-32.278-1.045-59.379-28.945-59.379-62.278s27.1-57.579,59.379-54.272C1730.691,1662.269,1755.041,1689.985,1755.041,1721.1Z" fill="url(#linear-gradient-73)"/>
      <path id="Trazado_149880" data-name="Trazado 149880" d="M1753.212,1720.974c0,30.085-23.561,53.684-53.592,52.675-31.157-1.046-57.285-27.992-57.285-60.15s26.128-55.582,57.285-52.427C1729.651,1664.113,1753.212,1690.888,1753.212,1720.974Z" fill="url(#linear-gradient-74)"/>
      <g id="Grupo_93758" data-name="Grupo 93758">
        <path id="Trazado_149881" data-name="Trazado 149881" d="M1699.312,1671.307h0a3.276,3.276,0,0,1,2.892,3.214v5.539a81.529,81.529,0,0,1,9.6,1.666q3.545.833,7.041,1.983a3.237,3.237,0,0,1,2.206,3.324l-.68,6.946a2.6,2.6,0,0,1-3.717,2.16,40.028,40.028,0,0,0-4.724-1.759,42.786,42.786,0,0,0-8.909-1.665l-.817-.068v15.864c8.336,2.332,14.459,5.47,18.416,9.417a19.912,19.912,0,0,1,5.9,14.7q0,9.532-6.524,15.281c-4.379,3.859-10.517,6.029-18.456,6.5v6.113a2.78,2.78,0,0,1-2.894,2.825l-.051,0a3.072,3.072,0,0,1-2.9-3.065v-6.031l-1.289-.058a84.527,84.527,0,0,1-10.691-1.141,69.115,69.115,0,0,1-7.389-1.7,3.184,3.184,0,0,1-2.318-3.292l.8-8.929a2.824,2.824,0,0,1,3.948-2.329,57.957,57.957,0,0,0,6.5,2.133,56.982,56.982,0,0,0,10.389,1.736l.052-17.647q-12-2.97-17.93-8.8a20.144,20.144,0,0,1-5.939-14.972q0-9.428,6.438-14.541,6.4-5.081,18.151-5.069v-5.662A2.617,2.617,0,0,1,1699.312,1671.307Zm-2.9,21.176a9.768,9.768,0,0,0-5.782,2.039,5.946,5.946,0,0,0-2.075,4.762,6.394,6.394,0,0,0,1.92,4.732,13.588,13.588,0,0,0,5.937,3.029Zm5.129,31.954v16.182a8.954,8.954,0,0,0,6.189-1.924,6.926,6.926,0,0,0,2.155-5.447,7.443,7.443,0,0,0-2-5.326A14.694,14.694,0,0,0,1701.539,1724.437Z" fill="url(#linear-gradient-75)"/>
      </g>
      <path id="Trazado_149882" data-name="Trazado 149882" d="M1689.921,1728.341c1.811-17.883,18.247-25.454,16.1-41.9-1.322-10.139-9.007-18.684-17.579-25.356-26,2.727-46.109,24.258-46.109,52.418,0,32.158,26.128,59.1,57.284,60.15a53.994,53.994,0,0,0,8.853-.432C1696.1,1760.9,1688.366,1743.706,1689.921,1728.341Z" opacity="0.3" fill="url(#linear-gradient-76)" style="mix-blend-mode: multiply;isolation: isolate"/>
    </g>
  </g>
</svg>
