<svg xmlns="http://www.w3.org/2000/svg" width="79.999" height="80" viewBox="0 0 79.999 80">
  <g id="Grupo_92288" data-name="Grupo 92288" transform="translate(-216.001 -216.002)">
    <g id="Grupo_92290" data-name="Grupo 92290">
      <path id="Trazado_147671" data-name="Trazado 147671" d="M220.688,238.19h70.625v-3.126a3.134,3.134,0,0,0-3.125-3.125H223.813a3.135,3.135,0,0,0-3.125,3.125Z" fill="#a7bdcd" fill-rule="evenodd"/>
      <path id="Trazado_147672" data-name="Trazado 147672" d="M220.688,238.19h70.625v42.186H220.688Z" fill="#99ebfa" fill-rule="evenodd"/>
      <path id="Trazado_147673" data-name="Trazado 147673" d="M291.313,280.376H220.688v6.25h25.938a1.567,1.567,0,0,0,1.562,1.563h15.625a1.568,1.568,0,0,0,1.563-1.563h25.937Z" fill="#a7bdcd" fill-rule="evenodd"/>
      <path id="Trazado_147674" data-name="Trazado 147674" d="M263.813,288.189H248.188a1.567,1.567,0,0,1-1.562-1.563H217.563v4.688a3.134,3.134,0,0,0,3.125,3.125h70.625a3.134,3.134,0,0,0,3.125-3.125v-4.688H265.376A1.568,1.568,0,0,1,263.813,288.189Z" fill="#6d91ac" fill-rule="evenodd"/>
      <g id="Grupo_92289" data-name="Grupo 92289">
        <circle id="Elipse_5190" data-name="Elipse 5190" cx="3.126" cy="3.126" r="3.126" transform="translate(234.757 223.817)" fill="#ef8550"/>
        <circle id="Elipse_5191" data-name="Elipse 5191" cx="3.125" cy="3.125" r="3.125" transform="translate(234.751 237.877)" fill="#ef8550"/>
        <circle id="Elipse_5192" data-name="Elipse 5192" cx="3.125" cy="3.125" r="3.125" transform="translate(234.751 251.939)" fill="#ef8550"/>
        <circle id="Elipse_5193" data-name="Elipse 5193" cx="3.125" cy="3.125" r="3.125" transform="translate(234.751 266.002)" fill="#ef8550"/>
      </g>
      <path id="Trazado_147675" data-name="Trazado 147675" d="M237.876,266a3.125,3.125,0,1,1-3.125,3.125A3.125,3.125,0,0,1,237.876,266ZM283.5,280.376V219.127a1.567,1.567,0,0,0-1.562-1.563H230.063a1.568,1.568,0,0,0-1.562,1.563v61.249ZM241,255.064a3.125,3.125,0,1,1-3.125-3.125A3.125,3.125,0,0,1,241,255.064Zm19.241,14.1a3.125,3.125,0,0,1,4.419-4.419l1.838,1.837,5.417-5.417a3.125,3.125,0,0,1,4.419,4.419l-7.627,7.627a3.125,3.125,0,0,1-4.419,0ZM241,241a3.125,3.125,0,1,1-3.125-3.125A3.125,3.125,0,0,1,241,241Zm0-14.063a3.125,3.125,0,1,1-3.125-3.125A3.125,3.125,0,0,1,241,226.939Z" fill="#fff" fill-rule="evenodd"/>
      <path id="Trazado_147676" data-name="Trazado 147676" d="M260.242,269.164l4.047,4.047a3.125,3.125,0,0,0,4.419,0l7.627-7.627a3.125,3.125,0,0,0-4.419-4.419l-5.417,5.417-1.838-1.837a3.125,3.125,0,0,0-4.419,4.419Z" fill="#f1d54e" fill-rule="evenodd"/>
    </g>
    <g id="Grupo_92291" data-name="Grupo 92291">
      <path id="Trazado_147677" data-name="Trazado 147677" d="M294.438,285.064h-1.562v-50a4.693,4.693,0,0,0-4.688-4.687h-3.125v-11.25A3.128,3.128,0,0,0,281.938,216H230.063a3.128,3.128,0,0,0-3.125,3.125v11.25h-3.125a4.693,4.693,0,0,0-4.687,4.688v50h-1.563A1.562,1.562,0,0,0,216,286.627v4.687A4.692,4.692,0,0,0,220.688,296h70.625A4.692,4.692,0,0,0,296,291.314v-4.687a1.561,1.561,0,0,0-1.562-1.563Zm-9.375-45.312h4.687v39.062h-4.687Zm0-6.25h3.125a1.564,1.564,0,0,1,1.562,1.562v1.563h-4.687V233.5Zm-62.812,6.25h4.687v39.062h-4.687Zm1.562-6.25h3.125v3.125h-4.687v-1.563A1.564,1.564,0,0,1,223.813,233.5Zm-1.562,51.562v-3.125h26.718a1.563,1.563,0,0,0,0-3.125h-18.9V219.127h51.874v59.687H263.031a1.563,1.563,0,0,0,0,3.125H289.75v3.125H265.375a1.562,1.562,0,0,0-1.562,1.562H248.188a1.562,1.562,0,0,0-1.562-1.562Zm70.625,6.25a1.564,1.564,0,0,1-1.563,1.562H220.688a1.564,1.564,0,0,1-1.562-1.562v-3.125h26.357a3.126,3.126,0,0,0,2.705,1.562h15.625a3.128,3.128,0,0,0,2.706-1.562h26.357Z"/>
      <path id="Trazado_147678" data-name="Trazado 147678" d="M274.125,258.687a4.656,4.656,0,0,0-3.314,1.373l-4.312,4.313-.733-.733a4.687,4.687,0,1,0-6.629,6.629l4.047,4.047a4.694,4.694,0,0,0,6.629,0l7.627-7.627a4.687,4.687,0,0,0-3.315-8Zm1.105,5.792-7.627,7.627a1.564,1.564,0,0,1-2.209,0l-4.047-4.047a1.562,1.562,0,1,1,2.209-2.209l1.838,1.837a1.561,1.561,0,0,0,2.209,0l5.417-5.417a1.562,1.562,0,0,1,2.21,2.209Z"/>
      <path id="Trazado_147679" data-name="Trazado 147679" d="M237.876,222.252a4.688,4.688,0,1,0,4.688,4.687A4.692,4.692,0,0,0,237.876,222.252Zm0,6.25a1.563,1.563,0,1,1,1.563-1.563A1.564,1.564,0,0,1,237.876,228.5Z"/>
      <path id="Trazado_147680" data-name="Trazado 147680" d="M247.251,225.377h30a1.563,1.563,0,0,0,0-3.125h-30a1.563,1.563,0,0,0,0,3.125Z"/>
      <path id="Trazado_147681" data-name="Trazado 147681" d="M247.251,231.627h30a1.563,1.563,0,0,0,0-3.125h-30a1.563,1.563,0,0,0,0,3.125Z"/>
      <path id="Trazado_147682" data-name="Trazado 147682" d="M237.876,236.314A4.688,4.688,0,1,0,242.564,241,4.693,4.693,0,0,0,237.876,236.314Zm0,6.25A1.563,1.563,0,1,1,239.439,241,1.564,1.564,0,0,1,237.876,242.564Z"/>
      <path id="Trazado_147683" data-name="Trazado 147683" d="M247.251,239.439h30a1.563,1.563,0,0,0,0-3.125h-30a1.563,1.563,0,0,0,0,3.125Z"/>
      <path id="Trazado_147684" data-name="Trazado 147684" d="M247.251,245.689h30a1.563,1.563,0,0,0,0-3.125h-30a1.563,1.563,0,0,0,0,3.125Z"/>
      <path id="Trazado_147685" data-name="Trazado 147685" d="M237.876,250.377a4.688,4.688,0,1,0,4.688,4.687A4.693,4.693,0,0,0,237.876,250.377Zm0,6.25a1.563,1.563,0,1,1,1.563-1.563A1.564,1.564,0,0,1,237.876,256.627Z"/>
      <path id="Trazado_147686" data-name="Trazado 147686" d="M247.251,253.5h30a1.563,1.563,0,0,0,0-3.125h-30a1.563,1.563,0,0,0,0,3.125Z"/>
      <path id="Trazado_147687" data-name="Trazado 147687" d="M247.251,259.752h15a1.563,1.563,0,0,0,0-3.125h-15a1.563,1.563,0,0,0,0,3.125Z"/>
      <path id="Trazado_147688" data-name="Trazado 147688" d="M237.876,264.44a4.687,4.687,0,1,0,4.688,4.687A4.692,4.692,0,0,0,237.876,264.44Zm0,6.25a1.563,1.563,0,1,1,1.563-1.563A1.564,1.564,0,0,1,237.876,270.69Z"/>
      <path id="Trazado_147689" data-name="Trazado 147689" d="M247.251,267.565H253a1.563,1.563,0,1,0,0-3.125h-5.749a1.563,1.563,0,0,0,0,3.125Z"/>
      <path id="Trazado_147690" data-name="Trazado 147690" d="M254.563,272.252A1.563,1.563,0,0,0,253,270.689h-5.749a1.563,1.563,0,0,0,0,3.125H253a1.562,1.562,0,0,0,1.563-1.562Z"/>
      <path id="Trazado_147691" data-name="Trazado 147691" d="M256,278.814h0a1.563,1.563,0,1,0,1.563,1.562A1.562,1.562,0,0,0,256,278.814Z"/>
    </g>
  </g>
</svg>
