<svg xmlns="http://www.w3.org/2000/svg" xmlns:xlink="http://www.w3.org/1999/xlink" width="131" height="131" viewBox="0 0 131 131">
  <defs>
    <clipPath id="clip-path">
      <circle id="Elipse_154" data-name="Elipse 154" cx="55.5" cy="55.5" r="55.5" transform="translate(0 -0.001)" fill="#17c878" stroke="#707070" stroke-width="1"/>
    </clipPath>
  </defs>
  <g id="Grupo_92836" data-name="Grupo 92836" transform="translate(10 10)">
    <g id="Trazado_148317" data-name="Trazado 148317" transform="translate(0 -0.001)" fill="#fff">
      <path d="M 55.5 116 C 47.33475875854492 116 39.41109848022461 114.3996963500977 31.94914054870605 111.2435607910156 C 28.36318016052246 109.7268218994141 24.90492057800293 107.8498001098633 21.67037963867188 105.6645812988281 C 18.46788024902344 103.5010223388672 15.45654010772705 101.0164566040039 12.7200403213501 98.27996063232422 C 9.983539581298828 95.54345703125 7.498980045318604 92.53211975097656 5.33542013168335 89.32962036132812 C 3.150199890136719 86.09507751464844 1.27318000793457 82.63681793212891 -0.2435600012540817 79.05085754394531 C -3.399699926376343 71.58889770507812 -5 63.66524124145508 -5 55.5 C -5 47.33475875854492 -3.399699926376343 39.41109848022461 -0.2435600012540817 31.94914054870605 C 1.27318000793457 28.36318016052246 3.150199890136719 24.90492057800293 5.33542013168335 21.67037963867188 C 7.498980045318604 18.46788024902344 9.983539581298828 15.45654010772705 12.7200403213501 12.7200403213501 C 15.45654010772705 9.983539581298828 18.46788024902344 7.498980045318604 21.67037963867188 5.33542013168335 C 24.90492057800293 3.150199890136719 28.36318016052246 1.27318000793457 31.94914054870605 -0.2435600012540817 C 39.41109848022461 -3.399699926376343 47.33475875854492 -5 55.5 -5 C 63.66524124145508 -5 71.58889770507812 -3.399699926376343 79.05085754394531 -0.2435600012540817 C 82.63681793212891 1.27318000793457 86.09507751464844 3.150199890136719 89.32962036132812 5.33542013168335 C 92.53211975097656 7.498980045318604 95.54345703125 9.983539581298828 98.27996063232422 12.7200403213501 C 101.0164566040039 15.45654010772705 103.5010223388672 18.46788024902344 105.6645812988281 21.67037963867188 C 107.8498001098633 24.90492057800293 109.7268218994141 28.36318016052246 111.2435607910156 31.94914054870605 C 114.3996963500977 39.41109848022461 116 47.33475875854492 116 55.5 C 116 63.66524124145508 114.3996963500977 71.58889770507812 111.2435607910156 79.05085754394531 C 109.7268218994141 82.63681793212891 107.8498001098633 86.09507751464844 105.6645812988281 89.32962036132812 C 103.5010223388672 92.53211975097656 101.0164566040039 95.54345703125 98.27996063232422 98.27996063232422 C 95.54345703125 101.0164566040039 92.53211975097656 103.5010223388672 89.32962036132812 105.6645812988281 C 86.09507751464844 107.8498001098633 82.63681793212891 109.7268218994141 79.05085754394531 111.2435607910156 C 71.58889770507812 114.3996963500977 63.66524124145508 116 55.5 116 Z" stroke="none"/>
      <path d="M 55.5 0 C 24.84819030761719 0 0 24.84819030761719 0 55.5 C 0 86.15180969238281 24.84819030761719 111 55.5 111 C 86.15180969238281 111 111 86.15180969238281 111 55.5 C 111 24.84819030761719 86.15180969238281 0 55.5 0 M 55.5 -10 C 91.61683654785156 -10 121 19.38316345214844 121 55.5 C 121 91.61683654785156 91.61683654785156 121 55.5 121 C 19.38316345214844 121 -10 91.61683654785156 -10 55.5 C -10 19.38316345214844 19.38316345214844 -10 55.5 -10 Z" stroke="none" fill="#f0d45a"/>
    </g>
    <g id="Grupo_92839" data-name="Grupo 92839" transform="translate(-200 -201)">
      <path id="Trazado_148318" data-name="Trazado 148318" d="M249.548,221.161h2.581v2.581h-2.581Z" fill="#17c878"/>
      <path id="Trazado_148319" data-name="Trazado 148319" d="M254.71,221.161h7.742v2.581H254.71Z" fill="#17c878"/>
      <path id="Trazado_148320" data-name="Trazado 148320" d="M249.548,288.258h12.9v2.581h-12.9Z" fill="#17c878"/>
      <path id="Trazado_148321" data-name="Trazado 148321" d="M244.387,248.258a11.613,11.613,0,1,0-11.613,11.613A11.627,11.627,0,0,0,244.387,248.258Zm-20.645,0a9.032,9.032,0,1,1,9.032,9.032A9.042,9.042,0,0,1,223.742,248.258Z" fill="#17c878"/>
      <path id="Trazado_148322" data-name="Trazado 148322" d="M292.129,231.484H281.806v-9.032A6.459,6.459,0,0,0,275.355,216h-38.71a6.459,6.459,0,0,0-6.451,6.452V231.7a16.751,16.751,0,0,0-5.162,31.421v18.008l5.162-2.065v10.481A6.459,6.459,0,0,0,236.645,296h38.71a6.459,6.459,0,0,0,6.451-6.452V257.29h10.323A3.875,3.875,0,0,0,296,253.419V235.355a3.876,3.876,0,0,0-3.871-3.871Zm-59.355-9.032a3.875,3.875,0,0,1,3.871-3.871h38.71a3.875,3.875,0,0,1,3.871,3.871v9.032h-2.581V228.9a2.582,2.582,0,0,0-2.58-2.58h-36.13a2.582,2.582,0,0,0-2.58,2.58v2.8a16.893,16.893,0,0,0-2.581-.219ZM268.9,257.29h5.162V283.1h-36.13v-3l2.581,1.033V263.124a16.758,16.758,0,0,0-2.581-30.819v-3.4h36.13v2.581H268.9a3.876,3.876,0,0,0-3.871,3.871v18.064A3.875,3.875,0,0,0,268.9,257.29Zm11.613-10.322a3.871,3.871,0,1,1,3.871-3.871A3.876,3.876,0,0,1,280.516,246.968Zm-1.29,2.58h2.58a6.465,6.465,0,0,1,6.322,5.162H272.9A6.464,6.464,0,0,1,279.226,249.548Zm-60.645-1.29a14.194,14.194,0,1,1,14.193,14.194A14.209,14.209,0,0,1,218.581,248.258Zm9.032,15.954a16.651,16.651,0,0,0,10.322,0V277.32l-5.161-2.065-5.161,2.065Zm51.613,25.336a3.875,3.875,0,0,1-3.871,3.871h-38.71a3.875,3.875,0,0,1-3.871-3.871V278.035l2.581,1.032v4.03a2.582,2.582,0,0,0,2.58,2.58h36.13a2.582,2.582,0,0,0,2.58-2.58V257.29h2.581Zm14.193-36.129a1.293,1.293,0,0,1-1.29,1.291h-1.394a9.048,9.048,0,0,0-5.616-7.105,6.452,6.452,0,1,0-9.2,0,9.047,9.047,0,0,0-5.617,7.105H268.9a1.293,1.293,0,0,1-1.29-1.291V235.355a1.292,1.292,0,0,1,1.29-1.29h23.226a1.292,1.292,0,0,1,1.29,1.29Z" fill="#17c878"/>
      <path id="Trazado_148323" data-name="Trazado 148323" d="M269.12,276.129c-.618-1.415-1.466-3.355-3.439-3.355s-2.819,1.938-3.438,3.354c-.237.542-.79,1.807-1.074,1.807s-.841-1.267-1.077-1.807c-.621-1.416-1.47-3.354-3.443-3.354s-2.822,1.938-3.441,3.354c-.238.54-.793,1.807-1.079,1.807h-.043c-.171-2.836-1.016-9.032-5.118-9.032-3.811,0-5.162,6.256-5.162,11.613h2.581c0-5.6,1.5-9.032,2.581-9.032,1.678,0,2.577,4.5,2.58,7.742l0,1.29h2.579c1.973,0,2.822-1.938,3.441-3.353.238-.541.793-1.808,1.079-1.808s.841,1.267,1.077,1.808c.621,1.415,1.47,3.353,3.443,3.353s2.821-1.938,3.44-3.355c.236-.54.79-1.806,1.074-1.806s.837,1.266,1.073,1.808c.618,1.415,1.466,3.353,3.438,3.353h1.29v-2.581h-1.29c-.284,0-.837-1.265-1.074-1.806Z" fill="#17c878"/>
      <path id="Trazado_148324" data-name="Trazado 148324" d="M252.129,231.484h10.323v2.581H252.129Z" fill="#17c878"/>
      <path id="Trazado_148325" data-name="Trazado 148325" d="M252.129,236.645h10.323v2.581H252.129Z" fill="#17c878"/>
      <path id="Trazado_148326" data-name="Trazado 148326" d="M252.129,241.806h10.323v2.581H252.129Z" fill="#17c878"/>
      <path id="Trazado_148327" data-name="Trazado 148327" d="M252.129,246.968h10.323v2.58H252.129Z" fill="#17c878"/>
      <path id="Trazado_148328" data-name="Trazado 148328" d="M252.129,252.129h10.323v2.581H252.129Z" fill="#17c878"/>
      <path id="Trazado_148329" data-name="Trazado 148329" d="M252.129,257.29h10.323v2.581H252.129Z" fill="#17c878"/>
      <path id="Trazado_148330" data-name="Trazado 148330" d="M252.129,262.452h19.355v2.58H252.129Z" fill="#17c878"/>
      <path id="Trazado_148331" data-name="Trazado 148331" d="M268.9,267.613h2.581v2.581H268.9Z" fill="#17c878"/>
      <path id="Trazado_148332" data-name="Trazado 148332" d="M252.129,267.613h14.194v2.581H252.129Z" fill="#17c878"/>
    </g>
  </g>
</svg>
