<svg xmlns="http://www.w3.org/2000/svg" xmlns:xlink="http://www.w3.org/1999/xlink" width="131" height="131" viewBox="0 0 131 131">
  <defs>
    <clipPath id="clip-path">
      <circle id="Elipse_154" data-name="Elipse 154" cx="55.5" cy="55.5" r="55.5" transform="translate(0 -0.001)" fill="#17c878" stroke="#707070" stroke-width="1"/>
    </clipPath>
  </defs>
  <g id="Grupo_92842" data-name="Grupo 92842" transform="translate(10 10)">
    <g id="Trazado_148317" data-name="Trazado 148317" transform="translate(0 -0.001)" fill="#fff">
      <path d="M 55.5 116 C 47.33475875854492 116 39.41109848022461 114.3996963500977 31.94914054870605 111.2435607910156 C 28.36318016052246 109.7268218994141 24.90492057800293 107.8498001098633 21.67037963867188 105.6645812988281 C 18.46788024902344 103.5010223388672 15.45654010772705 101.0164566040039 12.7200403213501 98.27996063232422 C 9.983539581298828 95.54345703125 7.498980045318604 92.53211975097656 5.33542013168335 89.32962036132812 C 3.150199890136719 86.09507751464844 1.27318000793457 82.63681793212891 -0.2435600012540817 79.05085754394531 C -3.399699926376343 71.58889770507812 -5 63.66524124145508 -5 55.5 C -5 47.33475875854492 -3.399699926376343 39.41109848022461 -0.2435600012540817 31.94914054870605 C 1.27318000793457 28.36318016052246 3.150199890136719 24.90492057800293 5.33542013168335 21.67037963867188 C 7.498980045318604 18.46788024902344 9.983539581298828 15.45654010772705 12.7200403213501 12.7200403213501 C 15.45654010772705 9.983539581298828 18.46788024902344 7.498980045318604 21.67037963867188 5.33542013168335 C 24.90492057800293 3.150199890136719 28.36318016052246 1.27318000793457 31.94914054870605 -0.2435600012540817 C 39.41109848022461 -3.399699926376343 47.33475875854492 -5 55.5 -5 C 63.66524124145508 -5 71.58889770507812 -3.399699926376343 79.05085754394531 -0.2435600012540817 C 82.63681793212891 1.27318000793457 86.09507751464844 3.150199890136719 89.32962036132812 5.33542013168335 C 92.53211975097656 7.498980045318604 95.54345703125 9.983539581298828 98.27996063232422 12.7200403213501 C 101.0164566040039 15.45654010772705 103.5010223388672 18.46788024902344 105.6645812988281 21.67037963867188 C 107.8498001098633 24.90492057800293 109.7268218994141 28.36318016052246 111.2435607910156 31.94914054870605 C 114.3996963500977 39.41109848022461 116 47.33475875854492 116 55.5 C 116 63.66524124145508 114.3996963500977 71.58889770507812 111.2435607910156 79.05085754394531 C 109.7268218994141 82.63681793212891 107.8498001098633 86.09507751464844 105.6645812988281 89.32962036132812 C 103.5010223388672 92.53211975097656 101.0164566040039 95.54345703125 98.27996063232422 98.27996063232422 C 95.54345703125 101.0164566040039 92.53211975097656 103.5010223388672 89.32962036132812 105.6645812988281 C 86.09507751464844 107.8498001098633 82.63681793212891 109.7268218994141 79.05085754394531 111.2435607910156 C 71.58889770507812 114.3996963500977 63.66524124145508 116 55.5 116 Z" stroke="none"/>
      <path d="M 55.5 0 C 24.84819030761719 0 0 24.84819030761719 0 55.5 C 0 86.15180969238281 24.84819030761719 111 55.5 111 C 86.15180969238281 111 111 86.15180969238281 111 55.5 C 111 24.84819030761719 86.15180969238281 0 55.5 0 M 55.5 -10 C 91.61683654785156 -10 121 19.38316345214844 121 55.5 C 121 91.61683654785156 91.61683654785156 121 55.5 121 C 19.38316345214844 121 -10 91.61683654785156 -10 55.5 C -10 19.38316345214844 19.38316345214844 -10 55.5 -10 Z" stroke="none" fill="#f0d45a"/>
    </g>
    <g id="Grupo_92843" data-name="Grupo 92843" transform="translate(-199.999 -200.996)">
      <path id="Trazado_148364" data-name="Trazado 148364" d="M294.665,285.33h-4V246.664a4,4,0,0,0-4-4h-5.334v-3.383l14.2-12.045a1.334,1.334,0,0,0-.564-2.317L256.3,216.031a1.308,1.308,0,0,0-.6,0l-38.666,8.888a1.333,1.333,0,0,0-.564,2.317l4.862,4.126v16.8a5.333,5.333,0,0,0,0,10.329V285.33h-4A1.333,1.333,0,0,0,216,286.663v2.667A6.675,6.675,0,0,0,222.666,296h66.666A6.675,6.675,0,0,0,296,289.33v-2.667A1.333,1.333,0,0,0,294.665,285.33ZM288,246.664V285.33h-2.667v-36A1.333,1.333,0,0,0,284,248H228a1.334,1.334,0,0,0-1.334,1.334v.478A5.336,5.336,0,0,0,224,248.166v-1.5a1.334,1.334,0,0,1,1.333-1.333h61.333A1.334,1.334,0,0,1,288,246.664Zm-5.333,38.666H229.333V250.664h53.333Zm-4-48.471A86.344,86.344,0,0,0,256,233.331a86.293,86.293,0,0,0-22.666,3.528v-3.881c2.994-.9,12.887-3.647,22.666-3.647s19.67,2.743,22.667,3.647Zm-45.333,5.805v-3.02c2.992-.9,12.886-3.647,22.666-3.647s19.672,2.744,22.667,3.647v3.02ZM256,218.7l35.776,8.225-10.443,8.86V232a1.333,1.333,0,0,0-.911-1.264A87.539,87.539,0,0,0,256,226.664a87.528,87.528,0,0,0-24.421,4.069,1.333,1.333,0,0,0-.912,1.264v3.787l-10.442-8.86Zm-25.333,20.582v3.383h-5.333a3.983,3.983,0,0,0-1.333.229v-9.268ZM220,253.33A2.666,2.666,0,1,1,222.666,256,2.667,2.667,0,0,1,220,253.33Zm4,5.165a5.336,5.336,0,0,0,2.666-1.643V285.33H224Zm69.332,30.835a4,4,0,0,1-4,4H222.666a4,4,0,0,1-4-4V288h74.665Z" fill="#17c878"/>
      <path id="Trazado_148365" data-name="Trazado 148365" d="M236,258.664h2.666a1.334,1.334,0,1,0,0-2.667H236a1.334,1.334,0,1,0,0,2.667Z" fill="#17c878"/>
      <path id="Trazado_148366" data-name="Trazado 148366" d="M244,258.664h21.333a1.334,1.334,0,0,0,0-2.667H244a1.334,1.334,0,1,0,0,2.667Z" fill="#17c878"/>
      <path id="Trazado_148367" data-name="Trazado 148367" d="M270.666,258.664H276A1.334,1.334,0,0,0,276,256h-5.333a1.334,1.334,0,1,0,0,2.667Z" fill="#17c878"/>
      <path id="Trazado_148368" data-name="Trazado 148368" d="M236,280h14.666a1.334,1.334,0,0,0,0-2.667H236A1.334,1.334,0,1,0,236,280Z" fill="#17c878"/>
      <path id="Trazado_148369" data-name="Trazado 148369" d="M269.332,277.33H256A1.334,1.334,0,0,0,256,280h13.333a1.334,1.334,0,1,0,0-2.667Z" fill="#17c878"/>
      <path id="Trazado_148370" data-name="Trazado 148370" d="M276,261.33H258.666a1.334,1.334,0,0,0,0,2.667H276a1.334,1.334,0,0,0,0-2.667Z" fill="#17c878"/>
      <path id="Trazado_148371" data-name="Trazado 148371" d="M248,261.33A1.334,1.334,0,0,0,248,264h5.334a1.334,1.334,0,0,0,0-2.667Z" fill="#17c878"/>
      <path id="Trazado_148372" data-name="Trazado 148372" d="M236,264h6.666a1.334,1.334,0,1,0,0-2.667H236A1.334,1.334,0,1,0,236,264Z" fill="#17c878"/>
      <path id="Trazado_148373" data-name="Trazado 148373" d="M276,272H248a1.333,1.333,0,1,0,0,2.666h28A1.333,1.333,0,1,0,276,272Z" fill="#17c878"/>
      <path id="Trazado_148374" data-name="Trazado 148374" d="M236,274.663h6.666a1.333,1.333,0,1,0,0-2.666H236a1.333,1.333,0,1,0,0,2.666Z" fill="#17c878"/>
      <path id="Trazado_148375" data-name="Trazado 148375" d="M236,269.33h24a1.333,1.333,0,1,0,0-2.666H236a1.333,1.333,0,1,0,0,2.666Z" fill="#17c878"/>
      <path id="Trazado_148376" data-name="Trazado 148376" d="M270.666,269.33a1.333,1.333,0,1,0,0-2.666h-5.333a1.333,1.333,0,1,0,0,2.666Z" fill="#17c878"/>
      <circle id="Elipse_5199" data-name="Elipse 5199" cx="1.333" cy="1.333" r="1.333" transform="translate(274.666 266.664)" fill="#17c878"/>
    </g>
  </g>
</svg>
