<svg xmlns="http://www.w3.org/2000/svg" xmlns:xlink="http://www.w3.org/1999/xlink" width="188.463" height="187.865" viewBox="0 0 188.463 187.865">
  <defs>
    <linearGradient id="linear-gradient" x1="-48.554" y1="-40.193" x2="-48.171" y2="-37.959" gradientUnits="objectBoundingBox">
      <stop offset="0.004" stop-color="#b2e38d"/>
      <stop offset="1" stop-color="#f6e771"/>
    </linearGradient>
    <clipPath id="clip-path">
      <path id="Trazado_145478" data-name="Trazado 145478" d="M1846.991,221.125c.81,7.637,1.32,15.441,2.1,23.135,4.2,1.25,9.171,2.617,11.227-2.437,2.857-7.026,16.134-7.161,22.153-6.042,7.448,1.387,23.829,2.887,22.643-8.191-.986-9.222-5.252-14.515,5.556-17.926s16.241-10.082,13.645-20.127c-2.732-10.57,9.387-21.549,1.438-29.611-13.851-14.048-31.826,11.207-33.981,26.659s-9.786,10.4-20.215,11.325c-14.237,1.264-5.46,16.015-11.637,20.928C1855.073,222.689,1852.214,221.194,1846.991,221.125Z" transform="translate(-1846.991 -155.819)" fill="none"/>
    </clipPath>
    <clipPath id="clip-path-2">
      <path id="Trazado_145487" data-name="Trazado 145487" d="M1885.474,238.08q-8.428-1.241-16.835-2.866c-.092.082-1.933-12.132,3.868-18.538,11.473-12.409,3.746-23.546,1.542-30.145-3.529-9.306-1.721-20.616,8.529-18.5,9.986,1.824,11.5-18.733,9.776-34.569-1.471-7.708,5.8-17.059,13.06-19.2,7.408-2.368,14.8,2.48,17.068,17.843,3.43,17.788-9.552,28.516-14.36,37.435-4.73,8.755,6.273,15.838-2.583,23.6-7.449,6.892-16.838,11.847-13.4,20.506C1895.664,222.208,1894.818,229.207,1885.474,238.08Z" transform="translate(-1868.29 -113.699)" fill="none"/>
    </clipPath>
    <linearGradient id="linear-gradient-2" x1="-10.799" y1="-14.228" x2="-11.535" y2="-13.306" gradientUnits="objectBoundingBox">
      <stop offset="0" stop-color="#85ffd4"/>
      <stop offset="1" stop-color="#7cfb6f"/>
    </linearGradient>
    <linearGradient id="linear-gradient-3" x1="0.148" y1="1.185" x2="0.902" y2="-0.284" gradientUnits="objectBoundingBox">
      <stop offset="0" stop-color="#598c44"/>
      <stop offset="0.996" stop-color="#2c4f26"/>
    </linearGradient>
    <linearGradient id="linear-gradient-4" x1="-0.345" y1="2.146" x2="0.409" y2="0.677" gradientUnits="objectBoundingBox">
      <stop offset="0" stop-color="#80f9b1"/>
      <stop offset="0.996" stop-color="#78d761"/>
    </linearGradient>
    <linearGradient id="linear-gradient-5" x1="0.782" y1="0.182" x2="-0.614" y2="1.755" xlink:href="#linear-gradient-4"/>
    <linearGradient id="linear-gradient-6" x1="0" y1="0.5" x2="1" y2="0.5" xlink:href="#linear-gradient-4"/>
    <clipPath id="clip-path-3">
      <path id="Trazado_145497" data-name="Trazado 145497" d="M1841.955,88c-67.98,0-75.673,58.07-75.673,58.07h-19.5v5.276l38.329,52.713,46.833-61.192H1813.5l26.1-30.6s30,5.361,40.354,8.838c13.381,4.934,23.9,16.129,23.9,16.129S1893.411,88,1841.955,88Z" transform="translate(-1746.785 -88)" fill="none"/>
    </clipPath>
    <linearGradient id="linear-gradient-7" x1="0.284" y1="1.037" x2="0.764" y2="0.039" gradientUnits="objectBoundingBox">
      <stop offset="0" stop-color="#fcb148"/>
      <stop offset="0.052" stop-color="#fdb946"/>
      <stop offset="0.142" stop-color="#fec144"/>
      <stop offset="0.318" stop-color="#ffc444"/>
      <stop offset="0.485" stop-color="#fdb946"/>
      <stop offset="0.775" stop-color="#f99c4c"/>
      <stop offset="0.866" stop-color="#f8924f"/>
      <stop offset="1" stop-color="#f8924f"/>
    </linearGradient>
    <linearGradient id="linear-gradient-8" x1="0.401" y1="0.958" x2="0.726" y2="0.09" xlink:href="#linear-gradient-7"/>
    <linearGradient id="linear-gradient-9" x1="-0.085" y1="0.5" x2="1.065" y2="0.5" xlink:href="#linear-gradient-7"/>
    <linearGradient id="linear-gradient-10" x1="0.495" y1="0.179" x2="0.556" y2="4.091" gradientUnits="objectBoundingBox">
      <stop offset="0" stop-color="#ffdb44"/>
      <stop offset="1" stop-color="#feef06"/>
    </linearGradient>
    <linearGradient id="linear-gradient-11" x1="0.492" y1="-0.777" x2="0.511" y2="1.295" xlink:href="#linear-gradient-10"/>
    <linearGradient id="linear-gradient-12" x1="-38.228" y1="1139.068" x2="-38.209" y2="1141.499" gradientUnits="objectBoundingBox">
      <stop offset="0.004" stop-color="#f36f56"/>
      <stop offset="0.306" stop-color="#f99c4c"/>
      <stop offset="0.545" stop-color="#fdb946"/>
      <stop offset="0.682" stop-color="#ffc444"/>
      <stop offset="0.804" stop-color="#fec144"/>
      <stop offset="0.867" stop-color="#fdb946"/>
      <stop offset="0.916" stop-color="#fbac49"/>
      <stop offset="0.958" stop-color="#f8994d"/>
      <stop offset="0.995" stop-color="#f58152"/>
      <stop offset="1" stop-color="#f57e53"/>
    </linearGradient>
    <linearGradient id="linear-gradient-15" x1="0.492" y1="-0.777" x2="0.511" y2="1.295" xlink:href="#linear-gradient-10"/>
    <linearGradient id="linear-gradient-16" x1="-37.946" y1="1142.714" x2="-37.927" y2="1145.145" xlink:href="#linear-gradient-12"/>
    <linearGradient id="linear-gradient-17" x1="-0.085" y1="0.5" x2="1.065" y2="0.5" xlink:href="#linear-gradient-7"/>
    <linearGradient id="linear-gradient-18" x1="0.495" y1="0.179" x2="0.556" y2="4.092" xlink:href="#linear-gradient-10"/>
    <linearGradient id="linear-gradient-19" x1="0.492" y1="-0.777" x2="0.511" y2="1.295" xlink:href="#linear-gradient-10"/>
    <linearGradient id="linear-gradient-20" x1="-38.189" y1="1146.349" x2="-38.17" y2="1148.78" xlink:href="#linear-gradient-12"/>
    <linearGradient id="linear-gradient-24" x1="-38.337" y1="1149.989" x2="-38.318" y2="1152.421" xlink:href="#linear-gradient-12"/>
    <linearGradient id="linear-gradient-28" x1="-38.228" y1="1153.923" x2="-38.209" y2="1156.354" xlink:href="#linear-gradient-12"/>
    <linearGradient id="linear-gradient-32" x1="-37.946" y1="1157.574" x2="-37.927" y2="1160.005" xlink:href="#linear-gradient-12"/>
    <linearGradient id="linear-gradient-35" x1="0.492" y1="-0.777" x2="0.511" y2="1.296" xlink:href="#linear-gradient-10"/>
    <linearGradient id="linear-gradient-36" x1="-38.189" y1="1161.209" x2="-38.17" y2="1163.641" xlink:href="#linear-gradient-12"/>
    <linearGradient id="linear-gradient-39" x1="0.492" y1="-0.777" x2="0.511" y2="1.295" xlink:href="#linear-gradient-10"/>
    <linearGradient id="linear-gradient-40" x1="-38.063" y1="1165.218" x2="-38.044" y2="1167.65" xlink:href="#linear-gradient-12"/>
    <linearGradient id="linear-gradient-41" x1="-50.083" y1="8.549" x2="-48.378" y2="8.549" xlink:href="#linear-gradient-7"/>
    <linearGradient id="linear-gradient-42" x1="-56.521" y1="9.046" x2="-56.418" y2="9.667" xlink:href="#linear-gradient-10"/>
    <linearGradient id="linear-gradient-43" x1="-56.43" y1="9.003" x2="-56.399" y2="9.193" xlink:href="#linear-gradient-10"/>
    <linearGradient id="linear-gradient-44" x1="-10.486" y1="82.95" x2="-10.454" y2="83.143" xlink:href="#linear-gradient-12"/>
    <linearGradient id="linear-gradient-45" x1="-1726.926" y1="0.268" x2="-1726.665" y2="1.66" gradientUnits="objectBoundingBox">
      <stop offset="0" stop-color="#ffc444"/>
      <stop offset="0.996" stop-color="#f36f56"/>
    </linearGradient>
    <linearGradient id="linear-gradient-46" x1="643.935" y1="-611.413" x2="644.151" y2="-609.607" xlink:href="#linear-gradient-45"/>
    <linearGradient id="linear-gradient-47" x1="151.514" y1="-45.161" x2="151.904" y2="-43.646" gradientUnits="objectBoundingBox">
      <stop offset="0" stop-color="#859cff"/>
      <stop offset="1" stop-color="#6ff3fb"/>
    </linearGradient>
    <linearGradient id="linear-gradient-48" x1="1347.724" y1="-60.398" x2="1347.724" y2="-69.939" xlink:href="#linear-gradient-45"/>
    <linearGradient id="linear-gradient-49" x1="225.682" y1="-3.351" x2="225.511" y2="-2.387" gradientUnits="objectBoundingBox">
      <stop offset="0" stop-color="#311944"/>
      <stop offset="1" stop-color="#893976"/>
    </linearGradient>
    <linearGradient id="linear-gradient-51" x1="635.614" y1="-45.929" x2="634.626" y2="-49.901" gradientUnits="objectBoundingBox">
      <stop offset="0" stop-color="#ff9085"/>
      <stop offset="1" stop-color="#fb6fbb"/>
    </linearGradient>
    <linearGradient id="linear-gradient-52" x1="551.353" y1="-2100.387" x2="551.353" y2="-2110.49" xlink:href="#linear-gradient-45"/>
    <linearGradient id="linear-gradient-53" x1="772.515" y1="-928.746" x2="770.479" y2="-931.527" xlink:href="#linear-gradient-51"/>
    <linearGradient id="linear-gradient-54" x1="-431.936" y1="0.532" x2="-434.347" y2="0.475" xlink:href="#linear-gradient-49"/>
    <linearGradient id="linear-gradient-55" x1="-169.382" y1="-0.387" x2="-169.147" y2="0.92" xlink:href="#linear-gradient-47"/>
    <linearGradient id="linear-gradient-56" x1="-79.278" y1="-30.381" x2="-78.815" y2="-28.615" xlink:href="#linear-gradient-51"/>
    <linearGradient id="linear-gradient-57" x1="368.052" y1="-17.929" x2="367.4" y2="-17.069" xlink:href="#linear-gradient-45"/>
    <linearGradient id="linear-gradient-58" x1="-292.449" y1="0.252" x2="-292.101" y2="1.821" xlink:href="#linear-gradient-47"/>
    <linearGradient id="linear-gradient-59" x1="73.804" y1="-3.283" x2="74.338" y2="-4.366" gradientUnits="objectBoundingBox">
      <stop offset="0" stop-color="#444b8c"/>
      <stop offset="0.996" stop-color="#26264f"/>
    </linearGradient>
  </defs>
  <g id="Grupo_91251" data-name="Grupo 91251" transform="translate(-1746.785 -88)">
    <g id="Grupo_91219" data-name="Grupo 91219" transform="translate(1853.746 160.391)">
      <g id="Grupo_91218" data-name="Grupo 91218">
        <path id="Trazado_145472" data-name="Trazado 145472" d="M1857.808,243.152a9.2,9.2,0,0,1-3.35-2.765c-2.175-4.414-6.784-12.413-5.412-17.431.235-.856,4.282-.842,4.994-1.524,2.583-.617,3.517-.671,5.685-2.465,6.4-5.294-2.6-19.678,11.694-21.043,10.474-1,18.054,4.137,20.22-11.335s20.131-40.7,33.985-26.664c7.95,8.058-4.172,19.043-1.438,29.612,2.6,10.044-2.837,16.712-13.646,20.126s-6.536,8.7-5.556,17.928c1.178,11.087-15.17,9.553-22.658,8.2C1876.3,234.7,1860.212,236,1857.808,243.152Z" transform="translate(-1846.869 -155.819)" fill="url(#linear-gradient)"/>
        <g id="Grupo_91217" data-name="Grupo 91217">
          <g id="Grupo_91216" data-name="Grupo 91216" clip-path="url(#clip-path)">
            <g id="Grupo_91215" data-name="Grupo 91215" transform="translate(4.87 -2.121)">
              <path id="Trazado_145473" data-name="Trazado 145473" d="M1851.608,232.225l-.055-.222a90.87,90.87,0,0,0,46.237-28.36c11.81-13.406,20.224-30.407,24.335-49.164l.223.049c-4.118,18.795-12.551,35.831-24.386,49.266A91.108,91.108,0,0,1,1851.608,232.225Z" transform="translate(-1851.553 -153.788)" fill="#fefdfc"/>
              <path id="Trazado_145474" data-name="Trazado 145474" d="M1904.584,227.819c-8.659-5.019-24.207-8.392-34.654-7.518l-.019-.227c10.489-.878,26.094,2.508,34.788,7.548Z" transform="translate(-1850.315 -149.376)" fill="#fefdfc"/>
              <path id="Trazado_145475" data-name="Trazado 145475" d="M1858.121,227.736l-.115-.2c4.714-2.737,7.864-7.752,9.36-14.9a62,62,0,0,0,.6-18.579l.227-.022a62.238,62.238,0,0,1-.6,18.648C1866.08,219.9,1862.894,224.966,1858.121,227.736Z" transform="translate(-1851.118 -151.122)" fill="#fefdfc"/>
              <path id="Trazado_145476" data-name="Trazado 145476" d="M1896.544,199.149l-.125-.192c8.617-5.613,19.428-5.318,26.981-4.081l-.037.226C1915.851,193.871,1905.1,193.575,1896.544,199.149Z" transform="translate(-1848.528 -151.115)" fill="#fefdfc"/>
              <path id="Trazado_145477" data-name="Trazado 145477" d="M1909,182.243l-.22-.064c1.378-4.78,2.677-14.805-4.1-28.245l.2-.1a50.068,50.068,0,0,1,4.684,13.891A32.483,32.483,0,0,1,1909,182.243Z" transform="translate(-1847.972 -153.832)" fill="#fefdfc"/>
            </g>
          </g>
        </g>
      </g>
    </g>
    <g id="Grupo_91223" data-name="Grupo 91223" transform="translate(1876.481 115.431)">
      <g id="Grupo_91222" data-name="Grupo 91222">
        <g id="Grupo_91221" data-name="Grupo 91221" clip-path="url(#clip-path-2)">
          <path id="Trazado_145479" data-name="Trazado 145479" d="M1885.474,238.08q-8.428-1.241-16.835-2.866c-.092.082-1.933-12.132,3.868-18.538,11.473-12.409,3.746-23.546,1.542-30.145-3.493-9.3-1.656-19.368,7.808-19.517,10.5-.371,12.4-17.745,10.5-33.55-1.471-7.708,5.8-17.059,13.06-19.2,7.408-2.368,14.8,2.48,17.068,17.843,3.43,17.788-9.552,28.516-14.36,37.435-4.73,8.755,6.273,15.838-2.583,23.6-7.449,6.892-16.838,11.847-13.4,20.506C1895.664,222.208,1894.818,229.207,1885.474,238.08Z" transform="translate(-1868.29 -113.699)" fill="url(#linear-gradient-2)"/>
          <g id="Grupo_91220" data-name="Grupo 91220" transform="translate(2.838 -3.779)">
            <path id="Trazado_145480" data-name="Trazado 145480" d="M1877.363,239.044l-.228,0a398.561,398.561,0,0,1,14.628-50.813c1.279-4.05,2.667-8.134,4.011-12.084,3.6-10.576,7.317-21.512,9.084-32.4,1.975-12.171,1.27-23.133-2.152-33.512l.218-.072c3.434,10.415,4.14,21.412,2.159,33.62-1.769,10.908-5.492,21.853-9.092,32.438-1.343,3.949-2.732,8.032-4.011,12.084A394.934,394.934,0,0,0,1877.363,239.044Z" transform="translate(-1870.532 -110.159)" fill="#fefdfc"/>
            <path id="Trazado_145481" data-name="Trazado 145481" d="M1900.9,154.507l-.17-.154c6.264-6.96,13.822-16.85,17.882-22.164,3.27-4.278,3.285-4.272,3.421-4.252l-.017.113.047.1c-.166.114-1.536,1.905-3.269,4.175C1914.733,137.645,1907.172,147.54,1900.9,154.507Z" transform="translate(-1868.941 -108.961)" fill="#fefdfc"/>
            <path id="Trazado_145482" data-name="Trazado 145482" d="M1903.474,145.226a33.074,33.074,0,0,0-7.108-16.22c-2.791-3.309-5.363-4.752-5.625-4.784a.091.091,0,0,0,.053-.017l-.127-.19c.058-.038.125-.029.276.037a19.912,19.912,0,0,1,6.005,5.3,33.864,33.864,0,0,1,6.75,15.835Z" transform="translate(-1869.619 -109.226)" fill="#fefdfc"/>
            <path id="Trazado_145483" data-name="Trazado 145483" d="M1886.789,200.957l-.227-.027c.884-7.422-.846-15.4-5.141-23.726a69.043,69.043,0,0,0-8.489-12.639c-.246-.294-.332-.4-.36-.444l.2-.115c.02.034.16.2.337.412a69.31,69.31,0,0,1,8.518,12.681C1885.94,185.462,1887.678,193.489,1886.789,200.957Z" transform="translate(-1870.839 -106.529)" fill="#fefdfc"/>
            <path id="Trazado_145484" data-name="Trazado 145484" d="M1888.275,192.043l-.194-.121c6.737-10.885,20.94-11.639,21.063-11.6l.085.107-.079.112-.035-.107-.011.112h0C1908.878,180.544,1894.9,181.332,1888.275,192.043Zm20.8-11.721.036.108Z" transform="translate(-1869.794 -105.429)" fill="#fefdfc"/>
            <path id="Trazado_145485" data-name="Trazado 145485" d="M1878.719,228.061l-.229-.009c.119-3.231-1.036-8.739-7.214-16.629-.335-.428-.335-.428-.325-.491l.226.032-.113-.016.1-.044c.018.033.143.193.288.378C1877.677,219.227,1878.839,224.791,1878.719,228.061Z" transform="translate(-1870.949 -103.368)" fill="#fefdfc"/>
            <path id="Trazado_145486" data-name="Trazado 145486" d="M1879.579,222.039l-.22-.063c.712-2.458,3.516-7.274,14.287-11.911.149-.064.244-.1.279-.123l.1.2c-.036.018-.136.062-.292.129C1883.051,214.875,1880.28,219.62,1879.579,222.039Z" transform="translate(-1870.381 -103.432)" fill="#fefdfc"/>
          </g>
        </g>
      </g>
    </g>
    <g id="Grupo_91230" data-name="Grupo 91230" transform="translate(1746.785 88)">
      <g id="Grupo_91226" data-name="Grupo 91226" transform="translate(28.184 27.784)">
        <path id="Trazado_145488" data-name="Trazado 145488" d="M1917.527,183.979c0,37.792-30.624,69.827-69.7,71.614-40.579,1.854-74.642-29.4-74.642-69.872s34.063-72.549,74.642-71.673C1886.9,114.889,1917.527,146.187,1917.527,183.979Z" transform="translate(-1773.189 -114.03)" fill="url(#linear-gradient-3)"/>
        <path id="Trazado_145489" data-name="Trazado 145489" d="M1921.777,183.979c0,37.792-30.624,69.827-69.7,71.614-40.579,1.854-74.642-29.4-74.642-69.872s34.063-72.549,74.642-71.673C1891.154,114.89,1921.777,146.187,1921.777,183.979Z" transform="translate(-1772.902 -114.03)" fill="url(#linear-gradient-4)"/>
        <path id="Trazado_145490" data-name="Trazado 145490" d="M1917.193,183.763c0,35.609-28.887,65.738-65.669,67.345-38.116,1.666-70.044-27.727-70.044-65.707s31.927-68.144,70.044-67.4C1888.305,118.723,1917.193,148.155,1917.193,183.763Z" transform="translate(-1772.63 -113.763)" fill="url(#linear-gradient-5)"/>
        <g id="Grupo_91224" data-name="Grupo 91224" transform="translate(33.85 33.399)">
          <path id="Trazado_145491" data-name="Trazado 145491" d="M1835.117,185.333q4.438-5.759,4.438-17.227,0-10.969-4.513-16.878t-12.939-5.909q-17.2,0-17.2,22.787,0,11.169,4.488,17.078t12.714,5.909Q1830.679,191.093,1835.117,185.333Zm-12.914-4.562q-2.494,0-3.615-3.117t-1.122-9.449q0-6.331,1.122-9.4t3.615-3.067q4.786,0,4.786,12.465Q1826.99,180.771,1822.2,180.771Z" transform="translate(-1804.901 -145.319)" fill="#fff"/>
          <path id="Trazado_145492" data-name="Trazado 145492" d="M1882.876,178.508q-4.513-5.908-12.939-5.908-17.2,0-17.2,22.786,0,11.12,4.487,17.028t12.715,5.908q8.576,0,13.014-5.759t4.438-17.178Q1887.39,184.418,1882.876,178.508Zm-12.839,29.543q-2.494,0-3.615-3.116a29.718,29.718,0,0,1-1.122-9.449q0-6.332,1.122-9.4t3.615-3.066q4.786,0,4.786,12.465Q1874.824,208.05,1870.038,208.051Z" transform="translate(-1801.676 -143.48)" fill="#fff"/>
          <path id="Trazado_145493" data-name="Trazado 145493" d="M1871.418,147.063a1.6,1.6,0,0,0-1.366-.8h-7.393a3.214,3.214,0,0,0-2.792,1.665l-38.22,68.91a1.611,1.611,0,0,0,1.388,2.388h8.339a1.6,1.6,0,0,0,1.388-.828l38.678-69.741A1.615,1.615,0,0,0,1871.418,147.063Z" transform="translate(-1803.785 -145.256)" fill="#fff"/>
        </g>
        <g id="Grupo_91225" data-name="Grupo 91225" transform="translate(4.538 3.157)" opacity="0.3" style="mix-blend-mode: multiply;isolation: isolate">
          <path id="Trazado_145494" data-name="Trazado 145494" d="M1820.632,154.238c-2.4-7.821-2.29-19.7,9.412-37.251-30.186,8.7-52.6,36.069-52.6,68.813,0,40.474,34.063,71.727,74.642,69.872a73.518,73.518,0,0,0,39.855-13.894c-.346-10.794-2.7-22.609-9.3-33.507C1864.48,178.3,1828.161,178.775,1820.632,154.238Z" transform="translate(-1777.44 -116.987)" opacity="0.3" fill="url(#linear-gradient-6)" style="mix-blend-mode: multiply;isolation: isolate"/>
        </g>
      </g>
      <g id="Grupo_91229" data-name="Grupo 91229">
        <g id="Grupo_91228" data-name="Grupo 91228" clip-path="url(#clip-path-3)">
          <g id="Grupo_91227" data-name="Grupo 91227" transform="translate(2.217 1.61)">
            <path id="Trazado_145495" data-name="Trazado 145495" d="M1902.285,147.386v.221a96.19,96.19,0,0,0-7.838-8.423c-.041-.094-.109-.188-.149-.282a48.689,48.689,0,0,0-12.961-17.455c-.377-.353-.812-.665-1.215-1-.206-.163-.413-.332-.622-.494l-.3-.249c-.108-.082-.219-.157-.326-.237q-.647-.468-1.3-.944l-.324-.237-.343-.221q-.339-.224-.678-.444c-.892-.616-1.854-1.147-2.793-1.711-.478-.272-.979-.524-1.466-.783-.241-.129-.487-.262-.733-.389l-.757-.359a48.958,48.958,0,0,0-12.908-4.1l-1.692-.266c-.565-.074-1.139-.121-1.7-.185l-.851-.091-.855-.044-.855-.05c-.284-.014-.565-.042-.852-.035l-1.707-.012c-.139,0-.29-.009-.42,0l-.379.019-.759.038-.754.036c-.067,0-.113,0-.2.009l-.773.056-1.034.068-.774.056-.13.009-.047,0s-.269,0,.183.009l-1.672.235c-.275.041-.553.066-.828.124l-.82.157-.821.155-.408.077c-.137.026-.27.064-.4.094-.536.13-1.072.257-1.605.39-.269.054-.529.143-.791.218l-.782.235-.782.223-.764.268c-.51.181-1.02.342-1.516.535s-.987.4-1.477.6a42.773,42.773,0,0,0-10.382,6.219l-.562.446-.533.478c-.354.314-.719.615-1.056.937-.014.012-.026.028-.041.038-.654.646-1.318,1.253-1.906,1.92-.156.163-.31.329-.46.494l-.232.242-.215.259c-.287.337-.571.677-.855,1.01-.069.083-.145.163-.215.249l-.194.259c-.133.174-.264.348-.394.516-.255.348-.533.668-.762,1.027a37.721,37.721,0,0,0-4.413,8.15,35.741,35.741,0,0,0-1.955,7.267l-.113.8c-.032.263-.088.519-.1.776q-.064.769-.13,1.468c-.029.474-.029.93-.049,1.357-.008.216-.023.425-.026.627s.014.409.017.6c.005.389.012.756.017,1.1a1.454,1.454,0,0,0,.02.212c.009.064.018.127.027.188.012.122.029.1.041.216.009.094.02.138.029.138h19.075l-11.591,12.236L1787.4,190.5,1748.862,150.2h20.263a2.886,2.886,0,0,0,.093-.59c.078-.56.162-1.107.254-1.772.052-.331.1-.639.154-1,.029-.173.056-.339.084-.521s.052-.373.09-.529c.142-.668.29-1.372.446-2.122.084-.373.165-.754.252-1.145s.2-.789.314-1.2c.22-.814.434-1.669.7-2.55q.426-1.311.884-2.725c.148-.475.343-.94.522-1.424s.37-.963.563-1.459a68.451,68.451,0,0,1,6.591-12.518,69.557,69.557,0,0,1,10.826-12.574c.524-.511,1.1-.977,1.663-1.466.284-.24.565-.482.849-.726l.432-.364.44-.347c.594-.461,1.194-.928,1.791-1.394l.452-.347.47-.331c.316-.224.629-.445.945-.665,1.237-.9,2.567-1.716,3.888-2.555.666-.408,1.356-.789,2.042-1.184.339-.192.684-.385,1.029-.585l1.061-.545a70.8,70.8,0,0,1,18.335-6.508c.808-.153,1.622-.306,2.434-.458s1.637-.243,2.454-.362l1.229-.165,1.237-.116,1.235-.113c.411-.035.82-.08,1.234-.094.823-.035,1.649-.129,2.474-.165.2-.007.412-.082.618-.082h.62l1.231.066,1.232.038c.411,0,.823.052,1.232.072l2.448.141c.557.009.191.014.334.017l.063.007.13.014.255.033.515.061,1.026.122.517.061.254.03.316.042,1.3.181,1.3.188.644.1c.211.033.4.077.6.115.791.16,1.582.323,2.373.48.394.075.782.183,1.171.279l1.168.3,1.158.295,1.145.345c.759.235,1.521.456,2.265.709l2.222.8a64.523,64.523,0,0,1,15.809,8.624c.289.212.576.428.864.64s.556.444.831.67c.551.447,1.1.877,1.634,1.335,1.046.935,2.089,1.832,3.042,2.8.243.237.481.477.725.712l.355.353.343.367q.682.737,1.347,1.461l.333.365.319.375c.206.251.417.5.622.748.412.5.843.973,1.215,1.489a60.5,60.5,0,0,1,5.352,8.136c.718,1.311,1.359,2.616,1.924,3.9a55.553,55.553,0,0,1,3.576,11.013c.078.419.162.83.24,1.236s.165.8.215,1.192c.11.787.22,1.539.321,2.265s.133,1.429.2,2.094c.026.331.061.653.081.973s.081.623.095.927C1902.184,146.277,1902.285,146.854,1902.285,147.386Z" transform="translate(-1748.862 -89.508)" fill="url(#linear-gradient-7)"/>
            <path id="Trazado_145496" data-name="Trazado 145496" d="M1897.873,146.428v.221a96.19,96.19,0,0,0-7.838-8.423c-.041-.094-.109-.188-.149-.282a48.689,48.689,0,0,0-12.961-17.455c-.377-.353-.812-.665-1.215-1-.206-.163-.413-.332-.622-.494l-.3-.249c-.108-.082-.219-.157-.326-.237q-.647-.468-1.3-.944l-.324-.237-.343-.221q-.339-.224-.678-.444c-.892-.616-1.854-1.147-2.793-1.711-.478-.272-.979-.524-1.466-.783-.241-.129-.487-.262-.733-.389l-.757-.359a48.958,48.958,0,0,0-12.908-4.1l-1.692-.266c-.565-.074-1.139-.121-1.7-.185l-.851-.091-.855-.044-.855-.05c-.284-.014-.565-.042-.852-.035l-1.707-.012c-.139,0-.29-.009-.42,0l-.379.019-.759.038-.754.036c-.067,0-.113,0-.2.009l-.773.056-1.034.068-.774.056-.13.009-.047,0s-.269,0,.183.009l-1.672.235c-.275.041-.553.066-.828.124l-.82.157-.821.155-.408.077c-.137.026-.27.064-.4.094-.536.13-1.072.257-1.605.39-.269.054-.529.143-.791.218l-.782.235-.782.223-.764.268c-.51.181-1.02.342-1.516.535s-.987.4-1.477.6a42.773,42.773,0,0,0-10.382,6.219l-.562.446-.533.478c-.354.314-.719.615-1.056.937-.014.012-.026.028-.041.038,8.563-10.095,22.433-16.652,38.085-16.652,16.038,0,30.2,6.883,38.705,17.4.718,1.311,1.359,2.616,1.924,3.9a55.553,55.553,0,0,1,3.576,11.012c.078.419.162.83.24,1.236s.165.8.215,1.192c.11.787.22,1.539.321,2.265s.133,1.429.2,2.094c.026.331.061.653.081.973s.081.623.095.927C1897.772,145.319,1897.873,145.9,1897.873,146.428Z" transform="translate(-1744.45 -88.55)" opacity="0.4" fill="url(#linear-gradient-8)" style="mix-blend-mode: multiply;isolation: isolate"/>
          </g>
        </g>
      </g>
    </g>
    <g id="Grupo_91249" data-name="Grupo 91249" transform="translate(1753.31 216.242)">
      <g id="Grupo_91232" data-name="Grupo 91232" transform="translate(7.383 43.765)">
        <path id="Trazado_145498" data-name="Trazado 145498" d="M1759.829,252.373v5.891c0,1.9,11.891,3.447,26.559,3.447s26.558-1.543,26.558-3.447v-5.891Z" transform="translate(-1759.814 -248.926)" fill="url(#linear-gradient-9)"/>
        <path id="Trazado_145499" data-name="Trazado 145499" d="M1812.947,252.591c0,1.9-11.89,3.447-26.558,3.447s-26.559-1.543-26.559-3.447,11.891-3.447,26.559-3.447S1812.947,250.687,1812.947,252.591Z" transform="translate(-1759.814 -249.144)" fill="url(#linear-gradient-10)"/>
        <path id="Trazado_145500" data-name="Trazado 145500" d="M1786.389,256.077c-12.99,0-26.574-1.241-26.574-3.635,0-.131.047-.362.178-.362s.075.18.075.312c0,1.518,10.81,3.209,26.321,3.209s26.32-1.691,26.32-3.209c0-.131.022-.254.155-.254s.1.175.1.306C1812.964,254.838,1799.38,256.077,1786.389,256.077Z" transform="translate(-1759.815 -248.946)" fill="url(#linear-gradient-11)"/>
        <g id="Grupo_91231" data-name="Grupo 91231" transform="translate(9.844 2.141)">
          <path id="Trazado_145501" data-name="Trazado 145501" d="M1783.258,252.648q.391-.271.835-.534a5.267,5.267,0,0,1,1.141-.476,11,11,0,0,1,1.75-.346,22.155,22.155,0,0,1,2.623-.142q1.539-.006,2.891.1a19.737,19.737,0,0,1,2.377.315,7.374,7.374,0,0,1,1.668.518,1.321,1.321,0,0,1,.763.707l2.99.031a2.917,2.917,0,0,1,.573.052c.168.034.249.078.249.13v.245l-3.845-.036a1.941,1.941,0,0,1-1.03.827,10.505,10.505,0,0,1-2.108.65l-1.4-.194a1.635,1.635,0,0,1-.31-.074c-.08-.029-.12-.061-.12-.1s.108-.1.324-.162.461-.136.733-.225a7.336,7.336,0,0,0,.8-.318,1.088,1.088,0,0,0,.526-.437l-9.074-.09a8.933,8.933,0,0,1-.8.517,5.167,5.167,0,0,1-1.177.457,12.369,12.369,0,0,1-1.826.331,25.786,25.786,0,0,1-2.753.135q-1.247,0-2.435-.1a16.7,16.7,0,0,1-2.112-.3,6.526,6.526,0,0,1-1.516-.5c-.393-.2-.614-.424-.66-.679l-2.463-.026a3.152,3.152,0,0,1-.581-.051c-.171-.033-.257-.077-.257-.131V252.5l3.365.032a1.813,1.813,0,0,1,.921-.678,10.511,10.511,0,0,1,1.708-.513l1.127.155c.343.048.512.1.512.169,0,.035-.068.078-.21.13s-.312.113-.506.185a4.9,4.9,0,0,0-.56.253,1.2,1.2,0,0,0-.41.329Zm-8.3.335a.889.889,0,0,0,.447.418,3.613,3.613,0,0,0,.855.288,8.669,8.669,0,0,0,1.153.167q.642.053,1.343.049a14.288,14.288,0,0,0,1.427-.07,8.4,8.4,0,0,0,1.068-.18,4.981,4.981,0,0,0,.8-.266,4.442,4.442,0,0,0,.613-.327Zm19.755-.22a.934.934,0,0,0-.489-.43,4.476,4.476,0,0,0-.984-.311,10.945,10.945,0,0,0-1.394-.187q-.794-.061-1.753-.057a13.541,13.541,0,0,0-1.469.076,7.591,7.591,0,0,0-1.068.194,3.9,3.9,0,0,0-.766.283,5.527,5.527,0,0,0-.588.347Z" transform="translate(-1769.037 -251.15)" fill="#fcb048"/>
        </g>
        <path id="Trazado_145502" data-name="Trazado 145502" d="M1786.365,249.494c-11.842,0-24.172,1.042-26.144,3.059a2.549,2.549,0,0,1,.216.226c1.662-1.4,11.843-2.81,25.929-2.81,14.447,0,24.792,1.484,26.045,2.919a2.339,2.339,0,0,1,.2-.225C1810.98,250.574,1798.418,249.494,1786.365,249.494Z" transform="translate(-1759.788 -249.12)" fill="url(#linear-gradient-12)"/>
      </g>
      <g id="Grupo_91234" data-name="Grupo 91234" transform="translate(0 37.577)">
        <path id="Trazado_145503" data-name="Trazado 145503" d="M1752.913,246.576v5.891c0,1.9,11.89,3.447,26.558,3.447s26.558-1.542,26.558-3.447v-5.891Z" transform="translate(-1752.897 -243.129)" fill="url(#linear-gradient-9)"/>
        <path id="Trazado_145504" data-name="Trazado 145504" d="M1806.03,246.794c0,1.9-11.89,3.447-26.558,3.447s-26.558-1.542-26.558-3.447,11.89-3.447,26.558-3.447S1806.03,244.89,1806.03,246.794Z" transform="translate(-1752.897 -243.347)" fill="url(#linear-gradient-10)"/>
        <path id="Trazado_145505" data-name="Trazado 145505" d="M1779.472,250.28c-12.99,0-26.574-1.24-26.574-3.633,0-.132.047-.363.178-.363s.075.18.075.312c0,1.518,10.81,3.209,26.321,3.209s26.32-1.691,26.32-3.209c0-.131.023-.254.155-.254s.1.175.1.306C1806.047,249.041,1792.463,250.28,1779.472,250.28Z" transform="translate(-1752.898 -243.149)" fill="url(#linear-gradient-15)"/>
        <g id="Grupo_91233" data-name="Grupo 91233" transform="translate(9.844 2.142)">
          <path id="Trazado_145506" data-name="Trazado 145506" d="M1776.341,246.851c.26-.18.538-.358.835-.534a5.221,5.221,0,0,1,1.141-.475,10.9,10.9,0,0,1,1.751-.347,21.952,21.952,0,0,1,2.623-.141q1.539-.008,2.891.1a19.731,19.731,0,0,1,2.377.315,7.374,7.374,0,0,1,1.668.518,1.324,1.324,0,0,1,.763.707l2.99.031a2.9,2.9,0,0,1,.573.053c.168.033.249.077.249.129v.245l-3.845-.036a1.936,1.936,0,0,1-1.03.827,10.366,10.366,0,0,1-2.108.65l-1.4-.194a1.6,1.6,0,0,1-.308-.074c-.081-.029-.121-.061-.121-.1s.108-.1.324-.162.461-.136.733-.225a7.55,7.55,0,0,0,.8-.317,1.094,1.094,0,0,0,.526-.438l-9.074-.09a8.686,8.686,0,0,1-.8.517,5.214,5.214,0,0,1-1.177.458,12.534,12.534,0,0,1-1.826.33,25.79,25.79,0,0,1-2.753.135q-1.247.006-2.435-.1a16.349,16.349,0,0,1-2.112-.3,6.548,6.548,0,0,1-1.516-.5c-.393-.2-.614-.423-.66-.679l-2.461-.026a3.16,3.16,0,0,1-.582-.051c-.17-.033-.256-.077-.257-.131v-.246l3.367.032a1.811,1.811,0,0,1,.92-.679,10.538,10.538,0,0,1,1.708-.513l1.127.155c.343.048.512.1.512.169,0,.035-.068.078-.21.13s-.31.113-.506.186a4.551,4.551,0,0,0-.56.253,1.192,1.192,0,0,0-.41.328Zm-8.3.336a.891.891,0,0,0,.447.417,3.519,3.519,0,0,0,.855.288,8.668,8.668,0,0,0,1.153.167q.642.053,1.344.049a13.66,13.66,0,0,0,1.426-.07,8.221,8.221,0,0,0,1.067-.18,4.981,4.981,0,0,0,.8-.265,4.565,4.565,0,0,0,.613-.328Zm19.755-.221a.934.934,0,0,0-.489-.43,4.419,4.419,0,0,0-.984-.31,10.743,10.743,0,0,0-1.394-.188q-.794-.061-1.753-.057a13.816,13.816,0,0,0-1.469.076,7.76,7.76,0,0,0-1.068.194,3.837,3.837,0,0,0-.766.284,5.518,5.518,0,0,0-.588.346Z" transform="translate(-1762.12 -245.353)" fill="#fcb048"/>
        </g>
        <path id="Trazado_145507" data-name="Trazado 145507" d="M1779.448,243.7c-11.842,0-24.172,1.042-26.144,3.059a2.522,2.522,0,0,1,.216.227c1.662-1.4,11.844-2.812,25.929-2.812,14.447,0,24.792,1.484,26.045,2.919a2.335,2.335,0,0,1,.2-.225C1804.063,244.777,1791.5,243.7,1779.448,243.7Z" transform="translate(-1752.871 -243.323)" fill="url(#linear-gradient-16)"/>
      </g>
      <g id="Grupo_91236" data-name="Grupo 91236" transform="translate(6.37 31.409)">
        <path id="Trazado_145508" data-name="Trazado 145508" d="M1758.881,240.8v5.891c0,1.9,11.891,3.447,26.558,3.447S1812,248.591,1812,246.687V240.8Z" transform="translate(-1758.865 -237.35)" fill="url(#linear-gradient-17)"/>
        <path id="Trazado_145509" data-name="Trazado 145509" d="M1812,241.014c0,1.9-11.891,3.447-26.559,3.447s-26.558-1.542-26.558-3.447,11.891-3.446,26.558-3.446S1812,239.11,1812,241.014Z" transform="translate(-1758.865 -237.568)" fill="url(#linear-gradient-18)"/>
        <path id="Trazado_145510" data-name="Trazado 145510" d="M1785.44,244.5c-12.99,0-26.574-1.24-26.574-3.633,0-.131.047-.363.178-.363s.076.18.076.312c0,1.518,10.81,3.21,26.32,3.21s26.321-1.692,26.321-3.21c0-.131.022-.254.154-.254s.1.175.1.306C1812.014,243.261,1798.431,244.5,1785.44,244.5Z" transform="translate(-1758.866 -237.37)" fill="url(#linear-gradient-19)"/>
        <g id="Grupo_91235" data-name="Grupo 91235" transform="translate(9.844 2.141)">
          <path id="Trazado_145511" data-name="Trazado 145511" d="M1782.309,241.071q.391-.271.835-.534a5.244,5.244,0,0,1,1.141-.475,10.9,10.9,0,0,1,1.75-.347,22.185,22.185,0,0,1,2.623-.141c1.027-.005,1.989.028,2.891.1a19.731,19.731,0,0,1,2.377.315,7.378,7.378,0,0,1,1.668.518,1.322,1.322,0,0,1,.763.708l2.991.03a2.916,2.916,0,0,1,.573.053c.167.034.248.077.248.129v.245l-3.844-.036a1.936,1.936,0,0,1-1.031.827,10.368,10.368,0,0,1-2.108.65l-1.4-.194a1.623,1.623,0,0,1-.309-.074c-.081-.029-.12-.061-.121-.1s.109-.1.326-.161.46-.137.732-.226a7.531,7.531,0,0,0,.8-.317,1.084,1.084,0,0,0,.526-.438l-9.074-.09a8.41,8.41,0,0,1-.8.517,5.207,5.207,0,0,1-1.177.458,12.249,12.249,0,0,1-1.825.33,25.812,25.812,0,0,1-2.754.134c-.832,0-1.641-.028-2.434-.094a16.744,16.744,0,0,1-2.113-.3,6.654,6.654,0,0,1-1.516-.5c-.393-.2-.614-.424-.66-.68l-2.461-.026a3.177,3.177,0,0,1-.582-.051c-.17-.033-.256-.076-.256-.131l0-.246,3.367.032a1.8,1.8,0,0,1,.92-.678,10.525,10.525,0,0,1,1.708-.515l1.128.155c.342.048.511.1.512.169,0,.035-.069.079-.211.13s-.311.113-.5.186a4.476,4.476,0,0,0-.56.253,1.2,1.2,0,0,0-.411.328Zm-8.3.336a.9.9,0,0,0,.447.417,3.518,3.518,0,0,0,.855.288,8.679,8.679,0,0,0,1.153.167q.644.053,1.344.049a13.651,13.651,0,0,0,1.426-.07,8.219,8.219,0,0,0,1.068-.18,4.951,4.951,0,0,0,.8-.265,4.638,4.638,0,0,0,.614-.328Zm19.755-.22a.925.925,0,0,0-.489-.431,4.394,4.394,0,0,0-.983-.31,10.947,10.947,0,0,0-1.4-.188q-.792-.061-1.753-.057a13.512,13.512,0,0,0-1.469.077,7.6,7.6,0,0,0-1.066.193,3.905,3.905,0,0,0-.766.284,5.427,5.427,0,0,0-.588.346Z" transform="translate(-1768.088 -239.573)" fill="#fcb048"/>
        </g>
        <path id="Trazado_145512" data-name="Trazado 145512" d="M1785.417,237.917c-11.842,0-24.173,1.042-26.145,3.059a2.278,2.278,0,0,1,.216.227c1.663-1.4,11.844-2.81,25.93-2.81,14.446,0,24.791,1.483,26.044,2.918a2.648,2.648,0,0,1,.2-.225C1810.031,239,1797.469,237.917,1785.417,237.917Z" transform="translate(-1758.839 -237.544)" fill="url(#linear-gradient-20)"/>
      </g>
      <g id="Grupo_91238" data-name="Grupo 91238" transform="translate(10.237 25.22)">
        <path id="Trazado_145513" data-name="Trazado 145513" d="M1762.5,235v5.89c0,1.9,11.89,3.447,26.558,3.447s26.558-1.542,26.558-3.447V235Z" transform="translate(-1762.487 -231.553)" fill="url(#linear-gradient-9)"/>
        <ellipse id="Elipse_5055" data-name="Elipse 5055" cx="26.559" cy="3.447" rx="26.559" ry="3.447" transform="translate(0.016)" fill="url(#linear-gradient-10)"/>
        <path id="Trazado_145514" data-name="Trazado 145514" d="M1789.062,238.7c-12.99,0-26.574-1.24-26.574-3.633,0-.131.047-.363.178-.363s.075.181.075.313c0,1.518,10.81,3.209,26.321,3.209s26.321-1.691,26.321-3.209c0-.131.022-.255.154-.255s.1.175.1.307C1815.637,237.465,1802.053,238.7,1789.062,238.7Z" transform="translate(-1762.488 -231.573)" fill="url(#linear-gradient-19)"/>
        <g id="Grupo_91237" data-name="Grupo 91237" transform="translate(9.844 2.141)">
          <path id="Trazado_145515" data-name="Trazado 145515" d="M1785.931,235.275c.26-.18.538-.359.835-.535a5.273,5.273,0,0,1,1.141-.475,10.79,10.79,0,0,1,1.751-.346,22.153,22.153,0,0,1,2.622-.142q1.539-.008,2.891.1a19.961,19.961,0,0,1,2.377.315,7.374,7.374,0,0,1,1.668.518,1.322,1.322,0,0,1,.763.708l2.99.03a2.918,2.918,0,0,1,.574.053c.167.034.248.077.248.129v.247l-3.844-.037a1.94,1.94,0,0,1-1.031.827,10.43,10.43,0,0,1-2.108.651l-1.4-.2a1.693,1.693,0,0,1-.308-.073c-.081-.03-.121-.062-.121-.1s.108-.1.324-.161.461-.137.733-.226a7.559,7.559,0,0,0,.8-.317,1.089,1.089,0,0,0,.526-.438l-9.074-.09a8.541,8.541,0,0,1-.8.518,5.268,5.268,0,0,1-1.177.457,12.254,12.254,0,0,1-1.825.33,25.818,25.818,0,0,1-2.754.134c-.831,0-1.641-.028-2.435-.094a16.724,16.724,0,0,1-2.112-.3,6.651,6.651,0,0,1-1.516-.5c-.393-.2-.614-.424-.66-.68l-2.461-.026a3.161,3.161,0,0,1-.582-.051c-.17-.032-.256-.076-.257-.13v-.247l3.367.032a1.8,1.8,0,0,1,.92-.678,10.529,10.529,0,0,1,1.708-.514l1.127.155c.343.048.512.1.514.17,0,.034-.069.078-.211.129l-.5.186a4.493,4.493,0,0,0-.562.253,1.206,1.206,0,0,0-.41.328Zm-8.3.335a.891.891,0,0,0,.447.417,3.562,3.562,0,0,0,.855.289,8.867,8.867,0,0,0,1.153.165q.642.053,1.344.05a13.952,13.952,0,0,0,1.426-.072,8.04,8.04,0,0,0,1.067-.18,4.978,4.978,0,0,0,.8-.265,4.556,4.556,0,0,0,.613-.328Zm19.755-.22a.925.925,0,0,0-.489-.43,4.358,4.358,0,0,0-.984-.311,10.758,10.758,0,0,0-1.394-.187q-.792-.062-1.753-.058a13.5,13.5,0,0,0-1.469.077,7.609,7.609,0,0,0-1.068.193,3.9,3.9,0,0,0-.766.284,5.425,5.425,0,0,0-.587.346Z" transform="translate(-1771.71 -233.776)" fill="#fcb048"/>
        </g>
        <path id="Trazado_145516" data-name="Trazado 145516" d="M1789.038,232.12c-11.842,0-24.172,1.042-26.144,3.059a2.394,2.394,0,0,1,.215.227c1.662-1.4,11.844-2.811,25.929-2.811,14.447,0,24.792,1.484,26.045,2.918a2.471,2.471,0,0,1,.2-.225C1813.653,233.2,1801.091,232.12,1789.038,232.12Z" transform="translate(-1762.461 -231.747)" fill="url(#linear-gradient-24)"/>
      </g>
      <g id="Grupo_91240" data-name="Grupo 91240" transform="translate(7.383 18.545)">
        <path id="Trazado_145517" data-name="Trazado 145517" d="M1759.829,228.746v5.89c0,1.9,11.891,3.447,26.559,3.447s26.558-1.542,26.558-3.447v-5.89Z" transform="translate(-1759.814 -225.299)" fill="url(#linear-gradient-9)"/>
        <path id="Trazado_145518" data-name="Trazado 145518" d="M1812.947,228.964c0,1.9-11.89,3.446-26.558,3.446s-26.559-1.542-26.559-3.446,11.891-3.447,26.559-3.447S1812.947,227.059,1812.947,228.964Z" transform="translate(-1759.814 -225.517)" fill="url(#linear-gradient-18)"/>
        <path id="Trazado_145519" data-name="Trazado 145519" d="M1786.389,232.449c-12.99,0-26.574-1.24-26.574-3.633,0-.131.047-.363.178-.363s.075.18.075.313c0,1.517,10.81,3.209,26.321,3.209s26.32-1.692,26.32-3.209c0-.132.022-.255.155-.255s.1.175.1.306C1812.964,231.211,1799.38,232.449,1786.389,232.449Z" transform="translate(-1759.815 -225.319)" fill="url(#linear-gradient-15)"/>
        <g id="Grupo_91239" data-name="Grupo 91239" transform="translate(9.844 2.141)">
          <path id="Trazado_145520" data-name="Trazado 145520" d="M1783.258,229.02q.391-.271.835-.534a5.218,5.218,0,0,1,1.141-.475,10.871,10.871,0,0,1,1.75-.347,22.419,22.419,0,0,1,2.623-.141q1.539-.008,2.891.1a19.737,19.737,0,0,1,2.377.315,7.375,7.375,0,0,1,1.668.518,1.322,1.322,0,0,1,.763.708l2.99.03a2.911,2.911,0,0,1,.573.053c.168.034.249.077.249.129v.247l-3.845-.037a1.937,1.937,0,0,1-1.03.827,10.432,10.432,0,0,1-2.108.651l-1.4-.2a1.634,1.634,0,0,1-.31-.074c-.08-.029-.12-.061-.12-.1s.108-.1.324-.161.461-.137.733-.226a7.55,7.55,0,0,0,.8-.317,1.089,1.089,0,0,0,.526-.438l-9.074-.09a8.7,8.7,0,0,1-.8.517,5.213,5.213,0,0,1-1.177.458,12.246,12.246,0,0,1-1.826.33,25.791,25.791,0,0,1-2.753.134q-1.247.006-2.435-.094a16.7,16.7,0,0,1-2.112-.3,6.631,6.631,0,0,1-1.516-.5c-.393-.2-.614-.424-.66-.68l-2.463-.026a3.156,3.156,0,0,1-.581-.051c-.171-.033-.257-.076-.257-.131v-.245l3.365.032a1.813,1.813,0,0,1,.921-.678,10.494,10.494,0,0,1,1.708-.514l1.127.155c.343.048.512.1.512.17,0,.034-.068.078-.21.129l-.506.186a4.55,4.55,0,0,0-.56.253,1.194,1.194,0,0,0-.41.328Zm-8.3.336a.892.892,0,0,0,.447.417,3.519,3.519,0,0,0,.855.288,8.671,8.671,0,0,0,1.153.167q.642.053,1.343.049a13.673,13.673,0,0,0,1.427-.07,8.216,8.216,0,0,0,1.068-.18,4.982,4.982,0,0,0,.8-.265,4.567,4.567,0,0,0,.613-.328Zm19.755-.22a.931.931,0,0,0-.489-.431,4.424,4.424,0,0,0-.984-.31,10.933,10.933,0,0,0-1.394-.188q-.794-.061-1.753-.057a13.509,13.509,0,0,0-1.469.077,7.6,7.6,0,0,0-1.068.193,3.9,3.9,0,0,0-.766.284,5.525,5.525,0,0,0-.588.346Z" transform="translate(-1769.037 -227.522)" fill="#fcb048"/>
        </g>
        <path id="Trazado_145521" data-name="Trazado 145521" d="M1786.365,225.866c-11.842,0-24.172,1.042-26.144,3.059a2.559,2.559,0,0,1,.216.227c1.662-1.4,11.843-2.811,25.929-2.811,14.447,0,24.792,1.484,26.045,2.918a2.468,2.468,0,0,1,.2-.225C1810.98,226.946,1798.418,225.866,1786.365,225.866Z" transform="translate(-1759.788 -225.493)" fill="url(#linear-gradient-28)"/>
      </g>
      <g id="Grupo_91242" data-name="Grupo 91242" transform="translate(0 12.357)">
        <path id="Trazado_145522" data-name="Trazado 145522" d="M1752.913,222.949v5.891c0,1.9,11.89,3.446,26.558,3.446s26.558-1.542,26.558-3.446v-5.891Z" transform="translate(-1752.897 -219.502)" fill="url(#linear-gradient-9)"/>
        <ellipse id="Elipse_5056" data-name="Elipse 5056" cx="26.559" cy="3.447" rx="26.559" ry="3.447" transform="translate(0.016)" fill="url(#linear-gradient-10)"/>
        <path id="Trazado_145523" data-name="Trazado 145523" d="M1779.472,226.652c-12.99,0-26.574-1.24-26.574-3.633,0-.131.047-.363.178-.363s.075.181.075.313c0,1.518,10.81,3.209,26.321,3.209s26.32-1.691,26.32-3.209c0-.131.023-.255.155-.255s.1.175.1.307C1806.047,225.414,1792.463,226.652,1779.472,226.652Z" transform="translate(-1752.898 -219.522)" fill="url(#linear-gradient-19)"/>
        <g id="Grupo_91241" data-name="Grupo 91241" transform="translate(9.844 2.141)">
          <path id="Trazado_145524" data-name="Trazado 145524" d="M1776.341,223.224c.26-.18.538-.359.835-.535a5.273,5.273,0,0,1,1.141-.475,10.9,10.9,0,0,1,1.751-.347,22.414,22.414,0,0,1,2.623-.141q1.539-.008,2.891.1a19.759,19.759,0,0,1,2.377.314,7.375,7.375,0,0,1,1.668.518,1.322,1.322,0,0,1,.763.708l2.99.03a2.9,2.9,0,0,1,.573.053c.168.034.249.077.249.129v.247l-3.845-.037a1.932,1.932,0,0,1-1.03.827,10.43,10.43,0,0,1-2.108.651l-1.4-.2a1.694,1.694,0,0,1-.308-.073c-.081-.03-.121-.062-.121-.1s.108-.1.324-.161.461-.137.733-.226a7.547,7.547,0,0,0,.8-.317,1.093,1.093,0,0,0,.526-.437l-9.074-.091a8.69,8.69,0,0,1-.8.518,5.267,5.267,0,0,1-1.177.457,12.249,12.249,0,0,1-1.826.33,25.8,25.8,0,0,1-2.753.134q-1.247.006-2.435-.094a16.73,16.73,0,0,1-2.112-.3,6.652,6.652,0,0,1-1.516-.5c-.393-.2-.614-.424-.66-.68l-2.461-.026a3.161,3.161,0,0,1-.582-.051c-.17-.032-.256-.076-.257-.13v-.247l3.367.032a1.8,1.8,0,0,1,.92-.678,10.531,10.531,0,0,1,1.708-.514l1.127.155c.343.048.512.1.512.17,0,.034-.068.078-.21.129l-.506.186a4.548,4.548,0,0,0-.56.253,1.2,1.2,0,0,0-.41.328Zm-8.3.335a.891.891,0,0,0,.447.417,3.563,3.563,0,0,0,.855.289,8.859,8.859,0,0,0,1.153.165q.642.053,1.344.049a13.673,13.673,0,0,0,1.426-.07,8.042,8.042,0,0,0,1.067-.18,4.978,4.978,0,0,0,.8-.265,4.447,4.447,0,0,0,.613-.328Zm19.755-.22a.925.925,0,0,0-.489-.43,4.362,4.362,0,0,0-.984-.311,10.761,10.761,0,0,0-1.394-.187c-.529-.042-1.113-.06-1.753-.058a13.51,13.51,0,0,0-1.469.077,7.613,7.613,0,0,0-1.068.193,3.9,3.9,0,0,0-.766.284,5.528,5.528,0,0,0-.588.346Z" transform="translate(-1762.12 -221.725)" fill="#fcb048"/>
        </g>
        <path id="Trazado_145525" data-name="Trazado 145525" d="M1779.448,220.069c-11.842,0-24.172,1.042-26.144,3.059a2.528,2.528,0,0,1,.216.227c1.662-1.4,11.844-2.81,25.929-2.81,14.447,0,24.792,1.484,26.045,2.918a2.472,2.472,0,0,1,.2-.225C1804.063,221.15,1791.5,220.069,1779.448,220.069Z" transform="translate(-1752.871 -219.696)" fill="url(#linear-gradient-32)"/>
      </g>
      <g id="Grupo_91244" data-name="Grupo 91244" transform="translate(6.37 6.188)">
        <path id="Trazado_145526" data-name="Trazado 145526" d="M1758.881,217.169v5.891c0,1.9,11.891,3.447,26.558,3.447S1812,224.963,1812,223.06v-5.891Z" transform="translate(-1758.865 -213.722)" fill="url(#linear-gradient-17)"/>
        <ellipse id="Elipse_5057" data-name="Elipse 5057" cx="26.559" cy="3.447" rx="26.559" ry="3.447" transform="translate(0.016)" fill="url(#linear-gradient-10)"/>
        <path id="Trazado_145527" data-name="Trazado 145527" d="M1785.44,220.872c-12.99,0-26.574-1.24-26.574-3.633,0-.131.047-.363.178-.363s.076.181.076.313c0,1.518,10.81,3.209,26.32,3.209s26.321-1.691,26.321-3.209c0-.131.022-.255.154-.255s.1.176.1.307C1812.014,219.634,1798.431,220.872,1785.44,220.872Z" transform="translate(-1758.866 -213.742)" fill="url(#linear-gradient-35)"/>
        <g id="Grupo_91243" data-name="Grupo 91243" transform="translate(9.844 2.141)">
          <path id="Trazado_145528" data-name="Trazado 145528" d="M1782.309,217.444q.391-.271.835-.534a5.243,5.243,0,0,1,1.141-.476,10.8,10.8,0,0,1,1.75-.346,22.163,22.163,0,0,1,2.623-.142c1.027-.005,1.989.028,2.891.1a19.521,19.521,0,0,1,2.377.315,7.272,7.272,0,0,1,1.668.518,1.318,1.318,0,0,1,.763.707l2.991.03a3,3,0,0,1,.573.053c.167.034.248.077.248.129v.247l-3.844-.037a1.932,1.932,0,0,1-1.031.827,10.429,10.429,0,0,1-2.108.651l-1.4-.2a1.63,1.63,0,0,1-.309-.073c-.081-.03-.12-.062-.121-.1s.109-.1.326-.162.46-.137.732-.226a7.107,7.107,0,0,0,.8-.317,1.088,1.088,0,0,0,.526-.437l-9.074-.091a8.408,8.408,0,0,1-.8.518,5.261,5.261,0,0,1-1.177.457,12.254,12.254,0,0,1-1.825.33,25.8,25.8,0,0,1-2.754.135c-.832,0-1.641-.027-2.434-.094a16.749,16.749,0,0,1-2.113-.3,6.655,6.655,0,0,1-1.516-.5c-.393-.2-.614-.424-.66-.68l-2.461-.025a3.38,3.38,0,0,1-.582-.051c-.17-.033-.256-.077-.256-.131l0-.247,3.367.032a1.8,1.8,0,0,1,.92-.678,10.524,10.524,0,0,1,1.708-.514l1.128.155c.342.049.511.1.512.17,0,.035-.069.078-.211.129l-.5.186a4.469,4.469,0,0,0-.56.253,1.189,1.189,0,0,0-.411.329Zm-8.3.335a.891.891,0,0,0,.447.417,3.564,3.564,0,0,0,.855.289,8.863,8.863,0,0,0,1.153.165q.644.053,1.344.05a14.26,14.26,0,0,0,1.426-.07,8.2,8.2,0,0,0,1.068-.181,4.95,4.95,0,0,0,.8-.265,4.522,4.522,0,0,0,.614-.328Zm19.755-.22a.924.924,0,0,0-.489-.43,4.389,4.389,0,0,0-.983-.311,10.781,10.781,0,0,0-1.4-.187q-.792-.062-1.753-.057a13.273,13.273,0,0,0-1.469.076,7.589,7.589,0,0,0-1.066.193,3.905,3.905,0,0,0-.766.284,5.427,5.427,0,0,0-.588.346Z" transform="translate(-1768.088 -215.945)" fill="#fcb048"/>
        </g>
        <path id="Trazado_145529" data-name="Trazado 145529" d="M1785.417,214.289c-11.842,0-24.173,1.043-26.145,3.059a2.274,2.274,0,0,1,.216.227c1.663-1.4,11.844-2.811,25.93-2.811,14.446,0,24.791,1.484,26.044,2.918a2.653,2.653,0,0,1,.2-.225C1810.031,215.37,1797.469,214.289,1785.417,214.289Z" transform="translate(-1758.839 -213.916)" fill="url(#linear-gradient-36)"/>
      </g>
      <g id="Grupo_91246" data-name="Grupo 91246" transform="translate(3.057)">
        <path id="Trazado_145530" data-name="Trazado 145530" d="M1755.777,211.372v5.891c0,1.9,11.89,3.447,26.558,3.447s26.558-1.543,26.558-3.447v-5.891Z" transform="translate(-1755.761 -207.925)" fill="url(#linear-gradient-9)"/>
        <ellipse id="Elipse_5058" data-name="Elipse 5058" cx="26.559" cy="3.447" rx="26.559" ry="3.447" transform="translate(0.016)" fill="url(#linear-gradient-10)"/>
        <path id="Trazado_145531" data-name="Trazado 145531" d="M1782.336,215.076c-12.99,0-26.574-1.241-26.574-3.635,0-.131.047-.362.178-.362s.075.18.075.312c0,1.518,10.81,3.209,26.321,3.209s26.32-1.691,26.32-3.209c0-.131.023-.255.155-.255s.1.176.1.307C1808.91,213.837,1795.327,215.076,1782.336,215.076Z" transform="translate(-1755.762 -207.945)" fill="url(#linear-gradient-39)"/>
        <g id="Grupo_91245" data-name="Grupo 91245" transform="translate(9.844 2.141)">
          <path id="Trazado_145532" data-name="Trazado 145532" d="M1779.205,211.647q.391-.271.835-.534a5.213,5.213,0,0,1,1.141-.476,11.025,11.025,0,0,1,1.75-.346,22.154,22.154,0,0,1,2.623-.142q1.539-.008,2.891.1a19.512,19.512,0,0,1,2.377.315,7.326,7.326,0,0,1,1.669.518,1.32,1.32,0,0,1,.763.707l2.99.03a2.987,2.987,0,0,1,.573.053c.167.034.249.077.249.129v.247l-3.845-.037a1.938,1.938,0,0,1-1.03.828,10.5,10.5,0,0,1-2.108.65l-1.4-.2a1.564,1.564,0,0,1-.31-.073c-.08-.03-.119-.062-.119-.1s.108-.1.324-.162.461-.136.733-.226a7.115,7.115,0,0,0,.8-.317,1.088,1.088,0,0,0,.526-.437l-9.074-.091a8.656,8.656,0,0,1-.8.518,5.207,5.207,0,0,1-1.177.457,12.245,12.245,0,0,1-1.826.33,25.786,25.786,0,0,1-2.753.135c-.832,0-1.642-.027-2.435-.094a16.714,16.714,0,0,1-2.112-.3,6.6,6.6,0,0,1-1.516-.5c-.393-.2-.614-.424-.66-.68l-2.462-.025a3.257,3.257,0,0,1-.581-.051c-.17-.033-.256-.077-.257-.131V211.5l3.367.032a1.8,1.8,0,0,1,.92-.678,10.525,10.525,0,0,1,1.708-.513l1.127.155c.343.048.512.1.512.169,0,.035-.068.078-.21.13s-.311.113-.5.185a4.656,4.656,0,0,0-.562.253,1.207,1.207,0,0,0-.41.329Zm-8.3.335a.882.882,0,0,0,.447.417,3.567,3.567,0,0,0,.855.289,8.682,8.682,0,0,0,1.153.165q.642.053,1.344.05.816,0,1.426-.07a8.4,8.4,0,0,0,1.067-.18,4.97,4.97,0,0,0,.8-.266,4.345,4.345,0,0,0,.613-.328Zm19.755-.22a.929.929,0,0,0-.489-.43,4.47,4.47,0,0,0-.984-.311,10.948,10.948,0,0,0-1.394-.187q-.794-.061-1.753-.057a13.27,13.27,0,0,0-1.469.076,7.452,7.452,0,0,0-1.067.194,3.9,3.9,0,0,0-.766.283,5.378,5.378,0,0,0-.588.347Z" transform="translate(-1764.984 -210.148)" fill="#fcb048"/>
        </g>
        <path id="Trazado_145533" data-name="Trazado 145533" d="M1782.312,208.493c-11.842,0-24.172,1.042-26.144,3.059a2.4,2.4,0,0,1,.216.226c1.662-1.4,11.844-2.81,25.928-2.81,14.448,0,24.792,1.484,26.045,2.918a2.475,2.475,0,0,1,.2-.224C1806.927,209.573,1794.365,208.493,1782.312,208.493Z" transform="translate(-1755.734 -208.119)" fill="url(#linear-gradient-40)"/>
      </g>
      <g id="Grupo_91248" data-name="Grupo 91248" transform="translate(58.688 7.503)">
        <path id="Trazado_145534" data-name="Trazado 145534" d="M1812.936,215.263l-4.8,3.414c-1.552,1.1,4.083,11.688,12.585,23.64s16.652,20.748,18.2,19.645l4.8-3.415Z" transform="translate(-1807.879 -215.166)" fill="url(#linear-gradient-41)"/>
        <path id="Trazado_145535" data-name="Trazado 145535" d="M1843.422,258.552c-1.551,1.1-9.7-7.692-18.2-19.644s-14.137-22.537-12.586-23.64,9.7,7.692,18.2,19.644S1844.973,257.45,1843.422,258.552Z" transform="translate(-1807.576 -215.172)" fill="url(#linear-gradient-42)"/>
        <path id="Trazado_145536" data-name="Trazado 145536" d="M1825.033,239.047c-7.53-10.587-14.392-22.374-12.442-23.762.107-.076.322-.172.4-.065s-.1.167-.211.242c-1.237.88,3.651,10.669,12.641,23.308s16.635,20.469,17.872,19.589c.107-.077.22-.129.3-.022s-.084.183-.192.259C1841.445,259.983,1832.562,249.632,1825.033,239.047Z" transform="translate(-1807.584 -215.173)" fill="url(#linear-gradient-43)"/>
        <g id="Grupo_91247" data-name="Grupo 91247" transform="translate(10.488 8.133)">
          <path id="Trazado_145537" data-name="Trazado 145537" d="M1826.056,234.463c.3.108.6.231.919.371a5.241,5.241,0,0,1,1.049.653,11.081,11.081,0,0,1,1.3,1.226,22.25,22.25,0,0,1,1.635,2.055q.9,1.25,1.6,2.412a19.7,19.7,0,0,1,1.122,2.12,7.416,7.416,0,0,1,.545,1.66,1.324,1.324,0,0,1-.135,1.031l1.709,2.454a3,3,0,0,1,.289.5c.068.156.08.247.038.277l-.2.143-2.2-3.154a1.935,1.935,0,0,1-1.272-.36,10.514,10.514,0,0,1-1.752-1.342l-.653-1.253a1.722,1.722,0,0,1-.119-.295q-.034-.123.01-.154c.038-.028.145.03.32.171s.378.3.609.466a7.291,7.291,0,0,0,.724.471,1.087,1.087,0,0,0,.662.175l-5.187-7.446a8.734,8.734,0,0,1-.886-.353,5.188,5.188,0,0,1-1.054-.695,12.122,12.122,0,0,1-1.328-1.3,25.976,25.976,0,0,1-1.706-2.165q-.727-1.013-1.334-2.039a16.743,16.743,0,0,1-.979-1.9,6.609,6.609,0,0,1-.474-1.523,1.064,1.064,0,0,1,.171-.932l-1.406-2.021a3.207,3.207,0,0,1-.3-.5c-.071-.157-.086-.253-.042-.285l.2-.144,1.926,2.762a1.8,1.8,0,0,1,1.086.357,10.54,10.54,0,0,1,1.409,1.094l.527,1.009c.159.306.211.477.159.516-.029.02-.1-.012-.227-.1s-.273-.187-.444-.3a4.807,4.807,0,0,0-.532-.311,1.191,1.191,0,0,0-.505-.143Zm-5.086-6.572a.888.888,0,0,0-.081.606,3.517,3.517,0,0,0,.26.865,8.743,8.743,0,0,0,.533,1.034q.33.556.739,1.124a13.988,13.988,0,0,0,.884,1.122,8.176,8.176,0,0,0,.766.765,5.092,5.092,0,0,0,.681.5,4.559,4.559,0,0,0,.622.31Zm11.629,15.97a.928.928,0,0,0,.067-.648,4.456,4.456,0,0,0-.317-.981,10.777,10.777,0,0,0-.656-1.245q-.41-.682-.969-1.461a13.224,13.224,0,0,0-.914-1.153,7.524,7.524,0,0,0-.776-.757,3.858,3.858,0,0,0-.676-.46,5.426,5.426,0,0,0-.622-.279Z" transform="translate(-1817.705 -222.792)" fill="#fcb048"/>
        </g>
        <path id="Trazado_145538" data-name="Trazado 145538" d="M1830.505,235.105c-6.863-9.65-14.859-19.094-17.646-19.531a2.522,2.522,0,0,1-.061.307c2.1.542,9.155,8.022,17.32,19.5,8.374,11.772,13.161,21.062,12.718,22.915a2.339,2.339,0,0,1,.3.031C1843.892,255.789,1837.491,244.927,1830.505,235.105Z" transform="translate(-1807.548 -215.145)" fill="url(#linear-gradient-44)"/>
      </g>
    </g>
    <g id="Grupo_91250" data-name="Grupo 91250" transform="translate(1882.393 178.33)">
      <path id="Trazado_145539" data-name="Trazado 145539" d="M1881.281,178.528a3.309,3.309,0,0,0,1.036-1.367c.274-.7.081-1.015.425-1.455a1.744,1.744,0,0,1,1.936-.524.791.791,0,0,1,.384.3c.271.458-.332,1.252-.813,1.675a7.067,7.067,0,0,1-.894.566,3.7,3.7,0,0,0-1.225,1.555Z" transform="translate(-1873.326 -172.46)" fill="url(#linear-gradient-45)"/>
      <path id="Trazado_145540" data-name="Trazado 145540" d="M1900.444,174.846a3.314,3.314,0,0,1-1.488-.854c-.526-.541-.471-.9-.958-1.174a1.744,1.744,0,0,0-1.988.272.783.783,0,0,0-.235.43c-.072.528.794,1.024,1.4,1.225a7.377,7.377,0,0,0,1.045.172,3.694,3.694,0,0,1,1.736.953Z" transform="translate(-1872.349 -172.625)" fill="url(#linear-gradient-46)"/>
      <path id="Trazado_145541" data-name="Trazado 145541" d="M1898.758,175.418c-.268,1.273,1.109,2.406,2.1,3.518,1.993,2.231,4.078,6.212,3.312,9.629a7.427,7.427,0,0,1-3.652,4.842c-2.038,1.029-3.258.093-5.376,1.315-.157.09-2.837,1.679-2.915,3.823-.1,2.645,3.794,5.46,7.123,5.674,6.088.394,13.425-7.7,13.083-15.738-.372-8.746-9.771-15.69-12.475-14.513A2.229,2.229,0,0,0,1898.758,175.418Z" transform="translate(-1872.588 -172.543)" fill="url(#linear-gradient-47)"/>
      <path id="Trazado_145542" data-name="Trazado 145542" d="M1895.821,260.174l-.218,2.216,1.032-.187.694-2.082Z" transform="translate(-1872.361 -166.727)" fill="url(#linear-gradient-48)"/>
      <path id="Trazado_145543" data-name="Trazado 145543" d="M1902.35,221.81a55.918,55.918,0,0,1-1.179,10.052c-.625,2.957-.991,3.468-1.186,5.513-.424,4.45,1.01,5.087,1.273,10.117a30.651,30.651,0,0,1-1.767,11.653,31.73,31.73,0,0,1-1.439,3.486c-.509.444-1.287.273-2.108.107-.3-5.038-.68-9.779-.982-14.817q-1.463-11.368-2.926-22.735Z" transform="translate(-1872.601 -169.309)" fill="url(#linear-gradient-49)"/>
      <path id="Trazado_145544" data-name="Trazado 145544" d="M1895.945,262.738c-.3-5.038-.68-9.779-.982-14.817q-1.463-11.368-2.926-22.735l10.313-3.376c-.007.26-.02.511-.031.767-4.823,4.189-5.767,7.507-5.72,9.77.057,2.745,1.558,4.105,1.265,8.086-.209,2.846-1.065,3.347-1.064,5.916,0,3.306,1.42,5.165,2.11,7.076.668,1.848.906,4.463-.384,8.184-.17.384-.33.728-.473,1.023C1897.544,263.075,1896.766,262.905,1895.945,262.738Z" transform="translate(-1872.601 -169.309)" opacity="0.3" fill="url(#linear-gradient-49)" style="mix-blend-mode: multiply;isolation: isolate"/>
      <path id="Trazado_145545" data-name="Trazado 145545" d="M1896.336,263.074c.488-.605.937-.561,1.018-.972a.837.837,0,0,0-.441-.855,1.136,1.136,0,0,0-1.032.215c-.764.521-.537,1.3-1.261,1.662a1.95,1.95,0,0,0-.618.385c-.1.1-.355.348-.291.513.075.191.535.175.974.159a1.914,1.914,0,0,0,1.037-.192C1896.068,263.763,1895.958,263.542,1896.336,263.074Z" transform="translate(-1872.489 -166.655)" fill="url(#linear-gradient-51)"/>
      <path id="Trazado_145546" data-name="Trazado 145546" d="M1895.2,245.266l1.93.755.563-.885-1.509-1.014Z" transform="translate(-1872.388 -167.805)" fill="url(#linear-gradient-52)"/>
      <path id="Trazado_145547" data-name="Trazado 145547" d="M1898.053,246.448c-.113-.77.224-1.068-.022-1.407a.837.837,0,0,0-.928-.257c-.434.174-.523.77-.543.9-.136.915.594,1.279.366,2.054a1.934,1.934,0,0,0-.135.715c0,.143.014.5.179.563.191.075.491-.274.777-.607.343-.4.513-.6.563-.892C1898.379,247.112,1898.141,247.043,1898.053,246.448Z" transform="translate(-1872.297 -167.764)" fill="url(#linear-gradient-53)"/>
      <path id="Trazado_145548" data-name="Trazado 145548" d="M1887.718,218.532a53.312,53.312,0,0,0-5.278,17.438c-.3,2.567-.268,4.154.471,5.749,2.647,5.711,11.887,6.087,13.29,6.127q.693-1.419,1.385-2.837a14.186,14.186,0,0,0-4.873-5.363c-1.953-1.229-2.717-.966-3.2-1.791-1.957-3.312,8.605-10.485,7.028-15.26C1895.991,220.943,1893.89,219.269,1887.718,218.532Z" transform="translate(-1873.26 -169.53)" fill="url(#linear-gradient-54)"/>
      <path id="Trazado_145549" data-name="Trazado 145549" d="M1895.241,193.857c-3.885.667-6.843,1.362-8.163,3.4-1.4,2.15.823,3.768,1.426,8.484.923,7.22-3.228,9.917-2.033,17.186a18.286,18.286,0,0,0,.809,3.145,7.431,7.431,0,0,0,3.07,3.815,19.241,19.241,0,0,0,3.888,1.88c3.94,1.378,5.884.576,11.184.88,8.671.5,9.969,3.01,13.886,1.463,3.959-1.563,6.824-5.785,5.985-7.59-.5-1.08-2.089-.406-4.365-1.732-2.932-1.71-2.439-4.043-4.818-6.046-3.417-2.876-6.7.029-9.626-2.472-2.957-2.53-3.31-8.681-2.053-12.342.821-2.392.836-4.993,1.444-7.447a1.58,1.58,0,0,0-.035-.9c-.485-1.411-3.066-1.681-5.017-1.868A22.276,22.276,0,0,0,1895.241,193.857Z" transform="translate(-1872.991 -171.21)" fill="url(#linear-gradient-55)"/>
      <path id="Trazado_145550" data-name="Trazado 145550" d="M1918.852,230.095c-1.2-.8-.551-3.068-2.328-4.272-1.65-1.117-2.938.345-5.369-.4-3.12-.956-2.957-3.959-5.946-4.918-2.15-.69-2.8.682-5.9.742a12.324,12.324,0,0,1-9.722-4.5,11.057,11.057,0,0,1-2.035-4.257c-.827,2.674-1.726,5.259-1.084,9.161a18.55,18.55,0,0,0,1.129,3.989,5.524,5.524,0,0,0,1.962,2.45,19.458,19.458,0,0,0,4.675,2.4c3.94,1.378,5.884.576,11.184.88,8.671.5,9.969,3.01,13.886,1.463a11.239,11.239,0,0,0,5.563-4.929C1921.443,230.4,1919.723,230.675,1918.852,230.095Z" transform="translate(-1872.991 -169.937)" opacity="0.3" fill="url(#linear-gradient-56)" style="mix-blend-mode: multiply;isolation: isolate"/>
      <path id="Trazado_145551" data-name="Trazado 145551" d="M1892.67,187.541a10.529,10.529,0,0,0-1.138,3.42c-.068,1.411,1.523,1.309,1.523,1.309l-.06.889a1.926,1.926,0,0,1-1.258,1.681l-.628.231s4.1.877,6.338-.7l-.646-.063a1.929,1.929,0,0,1-1.73-1.724l-.04-.381S1895.744,187.8,1892.67,187.541Z" transform="translate(-1872.664 -171.619)" fill="url(#linear-gradient-57)"/>
      <path id="Trazado_145552" data-name="Trazado 145552" d="M1883.739,178.753c.608,1.151-.4,2.619-1.05,3.962-1.3,2.694-2.205,7.1-.527,10.169a7.423,7.423,0,0,0,4.845,3.646c2.243.428,3.157-.809,5.531-.219.175.044,3.189.832,3.856,2.871.822,2.516-2.14,6.293-5.281,7.42-5.745,2.058-15.029-3.7-16.917-11.52-2.055-8.51,5.065-17.777,7.989-17.39A2.231,2.231,0,0,1,1883.739,178.753Z" transform="translate(-1873.828 -172.284)" fill="url(#linear-gradient-58)"/>
      <path id="Trazado_145553" data-name="Trazado 145553" d="M1893.268,189.737c.211-.017.386-.286.531-.206s.136.475,0,.75a.978.978,0,0,1-.384.412,2.586,2.586,0,0,1,.459,1.04,3.594,3.594,0,0,1-.574,2.317c-1.016,2.162.564,5.579,2.3,7.305,1.409,1.4,2.067.839,2.908,1.985,1.637,2.23-.622,4.681.224,7.683,1.287,4.563,8.494,5.922,8.793,5.974.117.02.2.034.319.053,3.233.513,8.134,1.292,11.585-1.362a10.064,10.064,0,0,0,3.57-8.484,9.83,9.83,0,0,0-2.77-6.32,8.974,8.974,0,0,0-5.865-2.748c-1.666-.015-2,.572-3.276.209a6.834,6.834,0,0,1-3.485-3.067c-1.225-1.809-.728-2.2-1.61-3.085-1.728-1.744-3.755-.375-5.6-1.913-1.819-1.517-.722-3.575-2.477-4.887-1.812-1.355-5.278-.882-6.017.731C1891.262,187.513,1892.618,189.792,1893.268,189.737Z" transform="translate(-1872.622 -171.817)" fill="url(#linear-gradient-59)"/>
    </g>
  </g>
</svg>
