<svg xmlns="http://www.w3.org/2000/svg" xmlns:xlink="http://www.w3.org/1999/xlink" width="117.376" height="117.71" viewBox="0 0 117.376 117.71">
  <defs>
    <linearGradient id="linear-gradient" x1="1.091" y1="1.163" x2="0.386" y2="0.408" gradientUnits="objectBoundingBox">
      <stop offset="0" stop-color="#dafefe"/>
      <stop offset="1" stop-color="#e9fdfc"/>
    </linearGradient>
    <linearGradient id="linear-gradient-2" x1="-11.292" y1="-9.461" x2="-9.739" y2="-6.721" gradientUnits="objectBoundingBox">
      <stop offset="0" stop-color="#4fdbff"/>
      <stop offset="1" stop-color="#40bee2"/>
    </linearGradient>
    <linearGradient id="linear-gradient-3" x1="-35.388" y1="91.524" x2="-33.989" y2="89.379" xlink:href="#linear-gradient-2"/>
    <linearGradient id="linear-gradient-4" x1="-12.901" y1="-14.541" x2="-13.775" y2="-13.08" xlink:href="#linear-gradient-2"/>
    <linearGradient id="linear-gradient-5" x1="2.929" y1="3.586" x2="4.067" y2="3.056" xlink:href="#linear-gradient-2"/>
    <linearGradient id="linear-gradient-6" x1="-0.021" y1="-0.346" x2="0.342" y2="0.297" gradientUnits="objectBoundingBox">
      <stop offset="0" stop-color="#00375d"/>
      <stop offset="1" stop-color="#0f5f91"/>
    </linearGradient>
    <linearGradient id="linear-gradient-7" x1="-34.153" y1="-10.953" x2="-33.392" y2="-10.024" gradientUnits="objectBoundingBox">
      <stop offset="0" stop-color="#fedfd6"/>
      <stop offset="1" stop-color="#ffcbb7"/>
    </linearGradient>
    <linearGradient id="linear-gradient-8" x1="0.475" y1="-0.125" x2="0.306" y2="-4.253" xlink:href="#linear-gradient-6"/>
    <linearGradient id="linear-gradient-9" x1="0.162" y1="1.602" x2="1.197" y2="-1.187" xlink:href="#linear-gradient-7"/>
    <linearGradient id="linear-gradient-10" x1="0.522" y1="0.425" x2="0.8" y2="-2.091" xlink:href="#linear-gradient-6"/>
    <linearGradient id="linear-gradient-11" x1="0.308" y1="1.698" x2="0.771" y2="-1.193" xlink:href="#linear-gradient-7"/>
    <linearGradient id="linear-gradient-12" x1="3.674" y1="-1.188" x2="1.834" y2="-0.207" gradientUnits="objectBoundingBox">
      <stop offset="0" stop-color="#ffcbb7"/>
      <stop offset="1" stop-color="#fe8d47"/>
    </linearGradient>
    <linearGradient id="linear-gradient-13" x1="0.821" y1="-0.128" x2="-0.302" y2="2.111" xlink:href="#linear-gradient-6"/>
    <linearGradient id="linear-gradient-14" x1="0.217" y1="1.459" x2="0.72" y2="-0.123" xlink:href="#linear-gradient-7"/>
    <linearGradient id="linear-gradient-15" x1="0.061" y1="1.328" x2="1.522" y2="-1.033" xlink:href="#linear-gradient-7"/>
    <linearGradient id="linear-gradient-16" x1="0.121" y1="-0.334" x2="0.822" y2="0.994" xlink:href="#linear-gradient-6"/>
    <linearGradient id="linear-gradient-17" x1="-1.457" y1="3.259" x2="3.859" y2="-4.348" xlink:href="#linear-gradient-7"/>
    <linearGradient id="linear-gradient-18" x1="-106.793" y1="-43.087" x2="-105.152" y2="-40.539" xlink:href="#linear-gradient-7"/>
    <linearGradient id="linear-gradient-19" x1="243.486" y1="92.695" x2="244.069" y2="92.695" xlink:href="#linear-gradient-7"/>
    <linearGradient id="linear-gradient-20" x1="55.543" y1="-0.781" x2="32.508" y2="-0.245" xlink:href="#linear-gradient-6"/>
    <linearGradient id="linear-gradient-21" x1="49.518" y1="-0.641" x2="26.483" y2="-0.105" xlink:href="#linear-gradient-6"/>
    <linearGradient id="linear-gradient-22" x1="2.005" y1="-0.425" x2="1.138" y2="0.108" xlink:href="#linear-gradient-6"/>
    <linearGradient id="linear-gradient-23" x1="2.27" y1="-0.587" x2="1.402" y2="-0.054" xlink:href="#linear-gradient-6"/>
    <linearGradient id="linear-gradient-24" x1="2.047" y1="-38.075" x2="1.119" y2="-14.931" xlink:href="#linear-gradient-6"/>
    <linearGradient id="linear-gradient-25" x1="2.832" y1="-55.071" x2="1.463" y2="-22.458" xlink:href="#linear-gradient-6"/>
    <linearGradient id="linear-gradient-26" x1="3.125" y1="-58.282" x2="1.67" y2="-25.696" xlink:href="#linear-gradient-6"/>
    <linearGradient id="linear-gradient-27" x1="3.275" y1="-61.637" x2="1.82" y2="-29.051" xlink:href="#linear-gradient-6"/>
    <linearGradient id="linear-gradient-28" x1="3.245" y1="-64.917" x2="1.876" y2="-32.297" xlink:href="#linear-gradient-6"/>
    <linearGradient id="linear-gradient-29" x1="3.384" y1="-68.119" x2="2.015" y2="-35.554" xlink:href="#linear-gradient-6"/>
    <linearGradient id="linear-gradient-30" x1="0.658" y1="-4.293" x2="0.585" y2="-1.938" xlink:href="#linear-gradient-6"/>
    <linearGradient id="linear-gradient-31" x1="0.499" y1="1.346" x2="0.509" y2="-7.499" xlink:href="#linear-gradient-6"/>
    <linearGradient id="linear-gradient-32" x1="0" y1="0.5" x2="1" y2="0.5" xlink:href="#linear-gradient-7"/>
    <linearGradient id="linear-gradient-33" x1="0.248" y1="0.824" x2="1.877" y2="-1.154" xlink:href="#linear-gradient-6"/>
    <linearGradient id="linear-gradient-34" x1="1.613" y1="-0.392" x2="0.802" y2="0.31" xlink:href="#linear-gradient-6"/>
    <linearGradient id="linear-gradient-35" x1="0" y1="0.5" x2="1" y2="0.5" xlink:href="#linear-gradient-7"/>
    <linearGradient id="linear-gradient-36" x1="0.892" y1="0.112" x2="0.087" y2="1.194" xlink:href="#linear-gradient-6"/>
    <linearGradient id="linear-gradient-37" x1="1.202" y1="1.329" x2="0.482" y2="0.354" xlink:href="#linear-gradient-6"/>
    <linearGradient id="linear-gradient-38" x1="1.604" y1="-1.489" x2="0.196" y2="0.856" xlink:href="#linear-gradient-7"/>
    <linearGradient id="linear-gradient-39" x1="0.533" y1="1.005" x2="0.434" y2="-0.23" xlink:href="#linear-gradient-7"/>
    <linearGradient id="linear-gradient-40" x1="439.25" y1="588.754" x2="439.899" y2="589.864" xlink:href="#linear-gradient-6"/>
    <linearGradient id="linear-gradient-41" x1="0.746" y1="3.772" x2="0.363" y2="-1.163" xlink:href="#linear-gradient-7"/>
    <linearGradient id="linear-gradient-42" x1="421.017" y1="479.041" x2="424.343" y2="479.041" xlink:href="#linear-gradient-7"/>
    <linearGradient id="linear-gradient-43" x1="0.505" y1="1.336" x2="0.497" y2="0.167" xlink:href="#linear-gradient-12"/>
    <linearGradient id="linear-gradient-44" x1="4.297" y1="-21.884" x2="-0.958" y2="9.095" gradientUnits="objectBoundingBox">
      <stop offset="0" stop-color="#e1610e"/>
      <stop offset="1" stop-color="#e96c2d"/>
    </linearGradient>
  </defs>
  <g id="Group_126074" data-name="Group 126074" transform="translate(-1805.142 -1805)">
    <path id="Path_175849" data-name="Path 175849" d="M1907.363,1903.54a43.976,43.976,0,0,1-7.743,6.285c-20.054,13.391-42.978,9.531-50.066,8.212-11.434-2.128-21.088-3.629-29.38-11.122-18.845-17.026-17.928-52.542-3.529-74.543,1.708-2.608,16.085-23.921,39.06-26.924.562-.074.981-.115,1.348-.154,3.554-.377,25.577-2.363,43.535,12.682a53.591,53.591,0,0,1,10.543,11.963C1925.157,1851.6,1925.2,1885.152,1907.363,1903.54Z" transform="translate(0.139 0)" fill="url(#linear-gradient)"/>
    <g id="Group_126021" data-name="Group 126021" transform="translate(1835.157 1806.643)">
      <g id="Group_126017" data-name="Group 126017">
        <path id="Path_175850" data-name="Path 175850" d="M1831.074,1827.22a.676.676,0,0,1-.41-.805c.2-.737.43-1.476.69-2.2a.676.676,0,0,1,.865-.405l.012,0a.674.674,0,0,1,.393.859c-.247.685-.468,1.387-.656,2.087a.674.674,0,0,1-.826.478A.681.681,0,0,1,1831.074,1827.22Zm2.146-5.479a.764.764,0,0,1-.073-.033.675.675,0,0,1-.284-.912c.355-.678.745-1.348,1.156-1.99a.675.675,0,1,1,1.137.728c-.39.611-.759,1.246-1.1,1.892A.677.677,0,0,1,1833.22,1821.741Zm3.3-4.87a.7.7,0,0,1-.2-.117.676.676,0,0,1-.073-.952c.5-.58,1.025-1.146,1.571-1.683a.675.675,0,1,1,.946.963c-.518.51-1.019,1.048-1.492,1.6A.675.675,0,0,1,1836.518,1816.872Zm4.306-4.01a.675.675,0,0,1-.16-1.174c.616-.454,1.257-.889,1.908-1.289a.676.676,0,1,1,.709,1.15c-.619.38-1.229.792-1.813,1.225A.673.673,0,0,1,1840.824,1812.862Zm5.091-2.95a.675.675,0,0,1-.029-1.249c.7-.306,1.421-.587,2.146-.834a.675.675,0,0,1,.436,1.278c-.689.236-1.375.5-2.039.794A.672.672,0,0,1,1845.915,1809.912Zm5.617-1.749a.675.675,0,0,1,.113-1.294c.75-.145,1.516-.259,2.276-.34a.676.676,0,0,1,.143,1.344c-.723.076-1.45.185-2.164.321A.66.66,0,0,1,1851.532,1808.163Zm23.682,7.352a.656.656,0,0,1-.238-.155c-.51-.517-1.049-1.018-1.6-1.49a.675.675,0,0,1,.876-1.028c.584.5,1.151,1.025,1.688,1.569a.675.675,0,0,1-.724,1.1Zm-17.821-7.813a.675.675,0,0,1,.265-1.305c.764.026,1.536.085,2.294.177a.675.675,0,1,1-.161,1.341c-.72-.087-1.454-.143-2.179-.167A.7.7,0,0,1,1857.393,1807.7Zm13.246,4.117a.652.652,0,0,1-.123-.061c-.612-.39-1.25-.758-1.894-1.095a.675.675,0,1,1,.625-1.2c.679.355,1.35.743,1.994,1.152a.675.675,0,0,1-.6,1.2Zm-7.429-3.257a.675.675,0,0,1,.415-1.283c.738.2,1.477.426,2.2.685l.014,0a.676.676,0,0,1-.471,1.266c-.684-.246-1.386-.465-2.088-.651C1863.255,1808.577,1863.232,1808.57,1863.21,1808.562Z" transform="translate(-1830.641 -1806.395)" fill="#91faf3"/>
        <path id="Path_175851" data-name="Path 175851" d="M1871.225,1817.585a.669.669,0,0,1-.317-.251c-.2-.287-.4-.576-.61-.858a.675.675,0,0,1,1.085-.8c.22.3.435.6.641.9a.675.675,0,0,1-.8,1.01Z" transform="translate(-1823.641 -1804.801)" fill="#91faf3"/>
      </g>
      <g id="Group_126018" data-name="Group 126018" transform="translate(3.019 30.611)">
        <path id="Path_175852" data-name="Path 175852" d="M1874.538,1834.768a.677.677,0,0,1-.419-.769c.072-.341.138-.688.2-1.035a.676.676,0,0,1,1.333.223c-.061.364-.131.731-.206,1.089a.674.674,0,0,1-.8.523A.6.6,0,0,1,1874.538,1834.768Z" transform="translate(-1825.962 -1832.401)" fill="#91faf3"/>
        <path id="Path_175853" data-name="Path 175853" d="M1846.231,1853.272q-.436-.168-.869-.349a.676.676,0,0,1,.526-1.245c.665.281,1.342.536,2.016.757a.675.675,0,0,1-.421,1.283C1847.067,1853.58,1846.646,1853.43,1846.231,1853.272Zm-4.05-1.958a.649.649,0,0,1-.1-.05c-.647-.385-1.286-.8-1.9-1.237a.675.675,0,1,1,.784-1.1c.58.414,1.188.81,1.8,1.175a.675.675,0,0,1-.585,1.211Zm8.748,3.274a.676.676,0,0,1,.364-1.3c.7.128,1.418.227,2.131.3a.675.675,0,1,1-.128,1.344c-.75-.072-1.5-.177-2.244-.311A.611.611,0,0,1,1850.929,1854.587Zm-13.373-6.757a.713.713,0,0,1-.223-.14c-.547-.517-1.079-1.063-1.581-1.624a.676.676,0,0,1,1.008-.9c.476.533.981,1.052,1.5,1.543a.676.676,0,0,1-.705,1.122Zm19.146,7.156a.676.676,0,0,1,.213-1.307c.712-.03,1.434-.091,2.144-.18a.675.675,0,1,1,.171,1.34c-.748.094-1.507.159-2.258.191A.689.689,0,0,1,1856.7,1854.986Zm5.719-.88a.674.674,0,0,1,.066-1.282c.691-.186,1.382-.4,2.054-.645a.676.676,0,0,1,.458,1.271c-.707.254-1.435.483-2.161.678A.678.678,0,0,1,1862.421,1854.107Zm5.392-2.1a.675.675,0,0,1-.071-1.229c.634-.332,1.262-.694,1.865-1.077a.676.676,0,0,1,.724,1.141c-.635.4-1.295.784-1.962,1.134A.676.676,0,0,1,1867.813,1852Zm4.8-3.23a.692.692,0,0,1-.273-.194.676.676,0,0,1,.079-.952c.546-.461,1.079-.952,1.583-1.458a.675.675,0,1,1,.957.953c-.531.533-1.092,1.05-1.667,1.536A.679.679,0,0,1,1872.618,1848.773Zm3.98-4.208a.621.621,0,0,1-.165-.092.674.674,0,0,1-.132-.945c.43-.57.841-1.165,1.222-1.771a.675.675,0,1,1,1.143.719c-.4.637-.835,1.264-1.287,1.865A.675.675,0,0,1,1876.6,1844.565Zm2.957-4.976-.039-.017a.674.674,0,0,1-.334-.893c.218-.479.423-.971.611-1.462q.1-.267.2-.533a.676.676,0,0,1,.864-.408.668.668,0,0,1,.407.864c-.067.187-.135.374-.207.561-.2.516-.415,1.034-.644,1.537A.675.675,0,0,1,1879.555,1839.59Z" transform="translate(-1832.785 -1831.722)" fill="#91faf3"/>
        <path id="Path_175854" data-name="Path 175854" d="M1834.223,1842.655a.667.667,0,0,1-.318-.254c-.2-.3-.406-.617-.6-.931a.675.675,0,0,1,1.15-.707c.184.3.376.6.57.885a.676.676,0,0,1-.8,1.008Z" transform="translate(-1833.206 -1830.977)" fill="#91faf3"/>
      </g>
      <g id="Group_126020" data-name="Group 126020" transform="translate(6.23 6.825)">
        <g id="Group_126019" data-name="Group 126019">
          <path id="Path_175855" data-name="Path 175855" d="M1837.393,1840.669a.317.317,0,0,0,.3.217l3.841.052a16.774,16.774,0,0,0,3.537,4.108l-.516,3.8a.316.316,0,0,0,.171.324l4.115,2.074a.313.313,0,0,0,.361-.055l2.751-2.678a16.722,16.722,0,0,0,5.408.4l2.326,3.057a.316.316,0,0,0,.351.108l4.375-1.443a.314.314,0,0,0,.217-.3l.052-3.841a16.752,16.752,0,0,0,4.109-3.537l3.8.515a.317.317,0,0,0,.325-.171l2.074-4.115a.315.315,0,0,0-.057-.361l-2.677-2.752a16.713,16.713,0,0,0,.4-5.406l3.057-2.326a.319.319,0,0,0,.11-.351l-1.443-4.375a.315.315,0,0,0-.3-.216l-3.842-.053a16.714,16.714,0,0,0-3.537-4.108l.515-3.8a.312.312,0,0,0-.171-.324l-4.114-2.074a.319.319,0,0,0-.363.056l-2.751,2.678a16.754,16.754,0,0,0-5.406-.4l-2.327-3.056a.315.315,0,0,0-.35-.109l-4.376,1.443a.318.318,0,0,0-.217.3l-.052,3.841a16.7,16.7,0,0,0-4.108,3.538l-3.8-.517a.318.318,0,0,0-.325.172l-2.073,4.114a.315.315,0,0,0,.055.362l2.678,2.751a16.712,16.712,0,0,0-.4,5.406l-3.057,2.327a.314.314,0,0,0-.108.35Z" transform="translate(-1835.934 -1812.193)" fill="url(#linear-gradient-2)"/>
        </g>
        <path id="Path_175856" data-name="Path 175856" d="M1851.92,1834.165a4.633,4.633,0,1,1,.652.2A4.765,4.765,0,0,1,1851.92,1834.165Zm2.938-7.638a3.616,3.616,0,0,0-.5-.152,3.54,3.54,0,1,0,.5.152Z" transform="translate(-1833.629 -1809.889)" fill="#91faf3"/>
        <path id="Path_175857" data-name="Path 175857" d="M1850.618,1841.468a11.4,11.4,0,0,1-1.07-.474h0c-.111-.055-.22-.113-.329-.172a11.512,11.512,0,0,1-1.527-1l-.02-.015-.055-.044-.107-.086a.27.27,0,0,1-.083-.306.244.244,0,0,1,.042-.073.271.271,0,0,1,.38-.041,10.855,10.855,0,0,0,16.511-3.552,10.848,10.848,0,0,0-4.8-14.57,10.859,10.859,0,0,0-14.57,4.8,10.589,10.589,0,0,0-.445,1.008,10.8,10.8,0,0,0-.689,4.658.27.27,0,1,1-.539.04,11.36,11.36,0,0,1,.723-4.891,11.537,11.537,0,0,1,.469-1.058,11.387,11.387,0,1,1,6.114,15.77Z" transform="translate(-1834.633 -1810.911)" fill="#91faf3"/>
      </g>
    </g>
    <g id="Group_126025" data-name="Group 126025" transform="translate(1890.501 1818.52)">
      <g id="Group_126022" data-name="Group 126022" transform="translate(0 24.981)">
        <path id="Path_175858" data-name="Path 175858" d="M1902.8,1837.826a.4.4,0,0,1,.068.475c-.162.3-.336.6-.516.885a.4.4,0,0,1-.68-.424c.172-.276.338-.559.493-.845a.4.4,0,0,1,.542-.16A.439.439,0,0,1,1902.8,1837.826Z" transform="translate(-1873.416 -1837.708)" fill="#91faf3"/>
        <path id="Path_175859" data-name="Path 175859" d="M1905.325,1840.143a.4.4,0,0,1,.028.536,17.254,17.254,0,0,1-1.179,1.31c-.086.088-.174.174-.264.26a.415.415,0,0,1-.567-.011.4.4,0,0,1,.01-.566c.086-.082.171-.165.253-.248a16.689,16.689,0,0,0,1.125-1.25.4.4,0,0,1,.563-.059Zm-3,2.884a.479.479,0,0,1,.039.043.4.4,0,0,1-.08.562,17.376,17.376,0,0,1-1.78,1.173.4.4,0,1,1-.4-.694,16.665,16.665,0,0,0,1.7-1.121A.4.4,0,0,1,1902.327,1843.027Zm-3.607,2.072a.41.41,0,0,1,.086.128.4.4,0,0,1-.214.525,17.408,17.408,0,0,1-2.016.7.4.4,0,0,1-.215-.772,16.231,16.231,0,0,0,1.922-.667A.4.4,0,0,1,1898.721,1845.1Zm-4.007,1.12a.4.4,0,0,1,.113.224.4.4,0,0,1-.337.455,17.4,17.4,0,0,1-2.126.187.4.4,0,0,1-.02-.8,16.531,16.531,0,0,0,2.027-.178A.4.4,0,0,1,1894.714,1846.219Zm-4.159.108a.4.4,0,0,1-.321.683,17.383,17.383,0,0,1-2.106-.336.4.4,0,0,1,.174-.781,16.74,16.74,0,0,0,2.008.319A.4.4,0,0,1,1890.555,1846.328Zm-4.059-.9a.4.4,0,0,1-.417.661,17.28,17.28,0,0,1-1.96-.839.4.4,0,0,1,.36-.716,16.413,16.413,0,0,0,1.868.8A.4.4,0,0,1,1886.5,1845.424Zm-3.714-1.869a.4.4,0,0,1-.506.617,17.18,17.18,0,0,1-1.7-1.295.4.4,0,0,1,.525-.606,16.41,16.41,0,0,0,1.616,1.235A.432.432,0,0,1,1882.783,1843.554Zm-4.442-4.354a.423.423,0,0,1,.046.054,16.546,16.546,0,0,0,1.092,1.391c.059.068.116.134.175.2a.4.4,0,0,1-.028.566.4.4,0,0,1-.566-.028c-.062-.069-.125-.139-.186-.211a17.078,17.078,0,0,1-1.143-1.457.4.4,0,0,1,.61-.514Z" transform="translate(-1877.658 -1837.465)" fill="#91faf3"/>
      </g>
      <g id="Group_126023" data-name="Group 126023" transform="translate(8.493)">
        <path id="Path_175860" data-name="Path 175860" d="M1902.673,1821.366a.4.4,0,0,1-.563.571,16.478,16.478,0,0,0-1.517-1.3.4.4,0,0,1,.485-.638,17.451,17.451,0,0,1,1.59,1.367Zm1.382,1.512c.009.011.02.021.028.033a17.42,17.42,0,0,1,1.221,1.707.4.4,0,0,1-.679.426,16.788,16.788,0,0,0-1.164-1.629.4.4,0,0,1,.594-.537Zm-4.641-3.987a.4.4,0,0,1-.484.631,16.5,16.5,0,0,0-1.788-.9.4.4,0,0,1,.317-.737,17.431,17.431,0,0,1,1.874.943A.388.388,0,0,1,1899.413,1818.892Zm6.813,7.457a.384.384,0,0,1,.081.114,17.375,17.375,0,0,1,.771,1.952.4.4,0,0,1-.762.249,16.475,16.475,0,0,0-.736-1.861.4.4,0,0,1,.645-.453Zm-10.573-9.068a.4.4,0,0,1-.394.669,16.511,16.511,0,0,0-1.95-.443.4.4,0,0,1,.129-.791,17.645,17.645,0,0,1,2.046.464A.4.4,0,0,1,1895.654,1817.28Zm-4.036-.663a.4.4,0,0,1-.3.684,16.723,16.723,0,0,0-2,.036.4.4,0,0,1-.064-.8,17.576,17.576,0,0,1,2.1-.038A.4.4,0,0,1,1891.618,1816.618Zm-4.08.323a.391.391,0,0,1,.109.2.4.4,0,0,1-.313.473,16.361,16.361,0,0,0-1.934.516.4.4,0,0,1-.253-.76,17.417,17.417,0,0,1,2.028-.541A.4.4,0,0,1,1887.538,1816.94Z" transform="translate(-1884.874 -1816.486)" fill="#91faf3"/>
        <path id="Path_175861" data-name="Path 175861" d="M1904.2,1828.2a.394.394,0,0,1,.111.207c.066.337.121.676.166,1.01a.4.4,0,0,1-.795.107c-.042-.319-.1-.643-.158-.964a.4.4,0,0,1,.676-.36Z" transform="translate(-1881.572 -1814.431)" fill="#91faf3"/>
      </g>
      <g id="Group_126024" data-name="Group 126024" transform="translate(1.057 4.303)">
        <path id="Path_175862" data-name="Path 175862" d="M1904.73,1833.042a.2.2,0,0,0-.117-.2l-2.244-1.031a10.741,10.741,0,0,0-1.006-3.336l1.295-2.1a.2.2,0,0,0-.017-.235l-1.876-2.291a.2.2,0,0,0-.227-.062l-2.314.857a10.742,10.742,0,0,0-3.073-1.645l-.57-2.4a.2.2,0,0,0-.178-.156l-2.946-.293a.2.2,0,0,0-.2.116l-1.032,2.243a10.765,10.765,0,0,0-3.336,1.008l-2.1-1.295a.2.2,0,0,0-.236.015l-2.29,1.877a.2.2,0,0,0-.063.227l.856,2.314a10.78,10.78,0,0,0-1.644,3.072l-2.4.57a.2.2,0,0,0-.154.178l-.293,2.947a.2.2,0,0,0,.116.2l2.244,1.032a10.734,10.734,0,0,0,1.008,3.336l-1.3,2.1a.2.2,0,0,0,.016.234l1.876,2.292a.2.2,0,0,0,.227.061l2.315-.856a10.734,10.734,0,0,0,3.072,1.645l.57,2.4a.2.2,0,0,0,.178.156l2.946.293a.2.2,0,0,0,.2-.118l1.032-2.242a10.768,10.768,0,0,0,3.336-1.008l2.1,1.295a.2.2,0,0,0,.235-.016l2.29-1.876a.2.2,0,0,0,.063-.227l-.856-2.314a10.794,10.794,0,0,0,1.644-3.072l2.4-.571a.2.2,0,0,0,.155-.177Z" transform="translate(-1878.556 -1820.141)" fill="url(#linear-gradient-3)"/>
        <path id="Path_175863" data-name="Path 175863" d="M1892.274,1829.573a3.06,3.06,0,1,1-.341-.292A3.015,3.015,0,0,1,1892.274,1829.573Zm-3.719,3.722a2.271,2.271,0,0,0,.248.213,2.229,2.229,0,1,0,2.652-3.583h0a2.229,2.229,0,0,0-2.9,3.37Z" transform="translate(-1877.043 -1818.628)" fill="#91faf3"/>
        <path id="Path_175864" data-name="Path 175864" d="M1896.079,1827.043a7.4,7.4,0,0,1,.516.569,7.678,7.678,0,0,1,.85,1.282l.032.061a.4.4,0,0,1-.073.466.378.378,0,0,1-.1.073.4.4,0,0,1-.539-.173,6.75,6.75,0,0,0-.787-1.2h0l-.051-.061a6.677,6.677,0,0,0-2.677-1.937,6.845,6.845,0,0,0-1.763-.435h-.015l-.046,0a6.746,6.746,0,1,0,3.608,11.931c.177-.145.346-.3.507-.46a6.727,6.727,0,0,0,1.567-2.473.388.388,0,0,1,.093-.148.4.4,0,0,1,.66.419,7.526,7.526,0,0,1-1.752,2.767,7.4,7.4,0,0,1-.568.516,7.548,7.548,0,0,1-10.141-11.156,7.561,7.561,0,0,1,10.681-.034Z" transform="translate(-1877.732 -1819.307)" fill="#91faf3"/>
      </g>
    </g>
    <g id="Group_126029" data-name="Group 126029" transform="translate(1810.998 1847.708)">
      <g id="Group_126026" data-name="Group 126026">
        <path id="Path_175865" data-name="Path 175865" d="M1810.431,1858.031a.439.439,0,0,1-.314-.424c0-.374.014-.754.039-1.128a.44.44,0,1,1,.879.057c-.022.357-.035.718-.038,1.075a.44.44,0,0,1-.443.439A.426.426,0,0,1,1810.431,1858.031Z" transform="translate(-1810.117 -1838.665)" fill="#91faf3"/>
        <path id="Path_175866" data-name="Path 175866" d="M1810.709,1857.275a.44.44,0,0,1-.306-.505,19.105,19.105,0,0,1,.459-1.883c.039-.131.08-.26.121-.391a.457.457,0,0,1,.555-.285.441.441,0,0,1,.284.555c-.039.124-.078.248-.115.372-.175.589-.324,1.194-.439,1.8a.44.44,0,0,1-.516.351A.272.272,0,0,1,1810.709,1857.275Zm1.4-4.357a.632.632,0,0,1-.06-.022.441.441,0,0,1-.214-.585,18.87,18.87,0,0,1,1.114-2.066.441.441,0,0,1,.749.466,18.448,18.448,0,0,0-1.063,1.969A.441.441,0,0,1,1812.112,1852.918Zm2.418-3.887a.421.421,0,0,1-.152-.08.44.44,0,0,1-.065-.619,18.872,18.872,0,0,1,1.588-1.729.44.44,0,1,1,.611.635,18.2,18.2,0,0,0-1.514,1.649A.44.44,0,0,1,1814.53,1849.032Zm3.3-3.173a.437.437,0,0,1-.226-.158.441.441,0,0,1,.088-.617,19.058,19.058,0,0,1,1.963-1.288.441.441,0,0,1,.437.766,18.111,18.111,0,0,0-1.872,1.227A.439.439,0,0,1,1817.828,1845.858Zm3.974-2.271a.441.441,0,0,1-.044-.829,19.206,19.206,0,0,1,2.214-.772.441.441,0,0,1,.239.849,18.124,18.124,0,0,0-2.113.737A.447.447,0,0,1,1821.8,1843.588Zm4.4-1.238a.441.441,0,0,1,.06-.858,19.236,19.236,0,0,1,2.335-.208.441.441,0,1,1,.024.882,18.1,18.1,0,0,0-2.227.2A.424.424,0,0,1,1826.207,1842.349Zm4.572-.123a.441.441,0,0,1,.169-.862,19.194,19.194,0,0,1,2.317.372.441.441,0,1,1-.193.86,18.091,18.091,0,0,0-2.209-.354A.462.462,0,0,1,1830.779,1842.227Zm6.573,1.906a.357.357,0,0,1-.072-.029,18.4,18.4,0,0,0-1.783-.779c-.093-.035-.184-.069-.274-.1a.441.441,0,0,1,.3-.831l.291.107a19.133,19.133,0,0,1,1.867.817.441.441,0,0,1-.324.817Z" transform="translate(-1810.068 -1841.283)" fill="#91faf3"/>
      </g>
      <g id="Group_126027" data-name="Group 126027" transform="translate(3.543 29.514)">
        <path id="Path_175867" data-name="Path 175867" d="M1823.09,1873.918a.441.441,0,0,1,.247-.846,18.258,18.258,0,0,0,2.149.473.441.441,0,0,1-.138.871,19.027,19.027,0,0,1-2.253-.5Zm-2.128-.747a.349.349,0,0,1-.045-.015,19.393,19.393,0,0,1-2.072-1.019.441.441,0,0,1,.437-.766,18.505,18.505,0,0,0,1.976.972.441.441,0,0,1-.3.829Zm6.574,1.447a.441.441,0,0,1,.141-.863,18.01,18.01,0,0,0,2.2-.06.441.441,0,1,1,.076.878,19.081,19.081,0,0,1-2.307.063A.424.424,0,0,1,1827.536,1874.617Zm-10.487-3.676a.453.453,0,0,1-.136-.069,18.66,18.66,0,0,1-1.764-1.49.44.44,0,1,1,.609-.637,18.124,18.124,0,0,0,1.682,1.421.441.441,0,0,1-.39.776Zm14.97,3.281a.44.44,0,0,1,.034-.853,18.376,18.376,0,0,0,2.121-.588.441.441,0,1,1,.286.833,18.935,18.935,0,0,1-2.223.616A.435.435,0,0,1,1832.02,1874.221Zm4.258-1.46a.441.441,0,0,1-.067-.819,18.439,18.439,0,0,0,1.921-1.078.441.441,0,1,1,.477.742,19.356,19.356,0,0,1-2.013,1.13A.446.446,0,0,1,1836.277,1872.762Zm3.785-2.439a.431.431,0,0,1-.213-.14.442.442,0,0,1,.058-.621,18.086,18.086,0,0,0,1.606-1.507.441.441,0,0,1,.642.6,19.016,19.016,0,0,1-1.685,1.581A.438.438,0,0,1,1840.063,1870.323Z" transform="translate(-1812.793 -1866.08)" fill="#91faf3"/>
        <path id="Path_175868" data-name="Path 175868" d="M1814.113,1868.092a.453.453,0,0,1-.216-.144c-.238-.292-.469-.592-.687-.893a.441.441,0,1,1,.714-.517c.207.287.428.573.656.852a.441.441,0,0,1-.467.7Z" transform="translate(-1813.127 -1866.357)" fill="#91faf3"/>
      </g>
      <g id="Group_126028" data-name="Group 126028" transform="translate(5.232 5.035)">
        <path id="Path_175869" data-name="Path 175869" d="M1815.84,1866.423a.223.223,0,0,0,.22.138l2.712-.168a11.826,11.826,0,0,0,2.713,2.708l-.16,2.71a.223.223,0,0,0,.138.22l3.012,1.243a.225.225,0,0,0,.252-.059l1.8-2.035a11.829,11.829,0,0,0,3.834-.007l1.8,2.032a.223.223,0,0,0,.253.057l3.009-1.251a.223.223,0,0,0,.138-.22l-.168-2.711a11.823,11.823,0,0,0,2.707-2.714l2.711.161a.221.221,0,0,0,.219-.138l1.243-3.012a.225.225,0,0,0-.058-.253l-2.035-1.8a11.828,11.828,0,0,0-.007-3.834l2.032-1.8a.226.226,0,0,0,.058-.253l-1.251-3.009a.224.224,0,0,0-.22-.136l-2.711.168a11.838,11.838,0,0,0-2.714-2.709l.161-2.71a.223.223,0,0,0-.138-.22l-3.012-1.243a.224.224,0,0,0-.253.059l-1.8,2.035a11.844,11.844,0,0,0-3.835.006l-1.8-2.03a.221.221,0,0,0-.253-.058l-3.009,1.25a.223.223,0,0,0-.136.22l.168,2.712a11.851,11.851,0,0,0-2.708,2.713l-2.711-.16a.223.223,0,0,0-.219.138l-1.243,3.012a.221.221,0,0,0,.059.252l2.035,1.8a11.835,11.835,0,0,0,.006,3.834l-2.032,1.8a.223.223,0,0,0-.058.252Z" transform="translate(-1814.561 -1845.56)" fill="url(#linear-gradient-4)"/>
        <path id="Path_175870" data-name="Path 175870" d="M1825.88,1861.034a3.333,3.333,0,1,1,.483.107A3.483,3.483,0,0,1,1825.88,1861.034Zm1.666-5.543a2.5,2.5,0,0,0-.352-.078,2.453,2.453,0,1,0-.7,4.856h0a2.453,2.453,0,0,0,1.056-4.778Z" transform="translate(-1812.977 -1843.976)" fill="#91faf3"/>
        <path id="Path_175871" data-name="Path 175871" d="M1825.271,1866.52a8.311,8.311,0,0,1-2.287-1.082l-.062-.044a.441.441,0,0,1-.173-.488.451.451,0,0,1,.06-.125.442.442,0,0,1,.613-.112,7.435,7.435,0,0,0,1.389.753h0l.081.033a7.376,7.376,0,0,0,5.538-.015l.016-.006.046-.019a7.371,7.371,0,0,0,4.011-4.023,7.041,7.041,0,0,0,.255-.719,7.422,7.422,0,0,0-13.977-4.942,7.392,7.392,0,0,0-.481,3.924.431.431,0,0,1-.014.192.441.441,0,0,1-.858-.061,8.281,8.281,0,0,1,.257-3.6,8.4,8.4,0,0,1,.281-.795,8.3,8.3,0,0,1,15.638,5.529,8.166,8.166,0,0,1-.285.805A8.316,8.316,0,0,1,1825.271,1866.52Z" transform="translate(-1813.716 -1844.729)" fill="#91faf3"/>
      </g>
    </g>
    <g id="Group_126033" data-name="Group 126033" transform="translate(1858.657 1861.419)">
      <g id="Group_126030" data-name="Group 126030">
        <path id="Path_175872" data-name="Path 175872" d="M1851.79,1884.827a.657.657,0,0,1-.7-.53c-.144-.729-.257-1.476-.338-2.219a.66.66,0,0,1,.584-.726h.013a.659.659,0,0,1,.712.585c.077.706.185,1.416.32,2.108a.66.66,0,0,1-.519.773A.691.691,0,0,1,1851.79,1884.827Zm-.468-5.716a.567.567,0,0,1-.078,0,.658.658,0,0,1-.639-.677c.021-.746.075-1.5.159-2.237a.659.659,0,0,1,1.309.149c-.081.7-.132,1.417-.152,2.126A.658.658,0,0,1,1851.323,1879.111Zm.8-5.676a.685.685,0,0,1-.223-.019.659.659,0,0,1-.472-.8c.186-.722.407-1.443.655-2.147a.659.659,0,1,1,1.242.439c-.235.667-.445,1.353-.621,2.039A.66.66,0,0,1,1852.125,1873.435Zm2.053-5.355a.659.659,0,0,1-.643-.96c.344-.661.72-1.317,1.118-1.947a.658.658,0,0,1,1.112.7c-.378.6-.736,1.22-1.062,1.849A.661.661,0,0,1,1854.178,1868.079Zm3.194-4.764a.659.659,0,0,1-.561-1.081c.481-.568.993-1.123,1.522-1.65a.658.658,0,1,1,.929.932c-.5.5-.989,1.029-1.445,1.568A.661.661,0,0,1,1857.373,1863.315Zm4.169-3.938a.659.659,0,0,1-.456-1.182c.6-.449,1.217-.877,1.848-1.273a.658.658,0,0,1,.7,1.115c-.6.377-1.191.784-1.756,1.21A.657.657,0,0,1,1861.542,1859.378Zm23.887-3.705a.645.645,0,0,1-.277-.035c-.667-.234-1.354-.442-2.04-.618a.658.658,0,1,1,.327-1.275c.723.185,1.447.4,2.15.651a.659.659,0,0,1-.16,1.277Zm-18.953.791a.659.659,0,0,1-.327-1.257c.679-.3,1.381-.583,2.085-.827a.658.658,0,1,1,.433,1.243c-.668.233-1.335.5-1.98.786A.662.662,0,0,1,1866.477,1856.463Zm13.361-2.068a.6.6,0,0,1-.132,0c-.7-.079-1.42-.128-2.128-.147a.658.658,0,1,1,.035-1.316c.746.02,1.5.072,2.239.155a.658.658,0,0,1-.014,1.309Zm-7.9.33a.658.658,0,0,1-.186-1.3c.731-.145,1.477-.259,2.219-.342h.014a.658.658,0,0,1,.129,1.31c-.7.078-1.412.187-2.107.325Z" transform="translate(-1850.605 -1852.931)" fill="#91faf3"/>
        <path id="Path_175873" data-name="Path 175873" d="M1884.009,1857.163a.649.649,0,0,1-.384-.084c-.294-.168-.6-.333-.9-.491a.658.658,0,1,1,.605-1.169c.319.166.638.339.948.516a.658.658,0,0,1-.269,1.228Z" transform="translate(-1844.98 -1852.503)" fill="#91faf3"/>
      </g>
      <g id="Group_126031" data-name="Group 126031" transform="translate(11.916 18.297)">
        <path id="Path_175874" data-name="Path 175874" d="M1894.244,1870.8a.657.657,0,0,1-.7-.493c-.084-.33-.175-.663-.272-.99a.658.658,0,0,1,1.262-.375c.1.345.2.7.286,1.042a.658.658,0,0,1-.477.8A.633.633,0,0,1,1894.244,1870.8Z" transform="translate(-1854.97 -1868.474)" fill="#91faf3"/>
        <path id="Path_175875" data-name="Path 175875" d="M1876.847,1901.977c-.3.027-.6.05-.91.066a.658.658,0,0,1-.073-1.315c.7-.039,1.4-.106,2.089-.2a.658.658,0,1,1,.181,1.3C1877.711,1901.89,1877.277,1901.939,1876.847,1901.977Zm-4.385.021a.726.726,0,0,1-.113,0c-.732-.059-1.469-.149-2.192-.27a.658.658,0,1,1,.214-1.3c.688.114,1.388.2,2.083.255a.659.659,0,0,1,.007,1.313Zm9.063-.882a.658.658,0,0,1-.237-1.289c.669-.188,1.34-.408,1.993-.655a.658.658,0,0,1,.463,1.233c-.688.259-1.394.491-2.1.69A.77.77,0,0,1,1881.525,1901.116Zm-14.606-.188a.672.672,0,0,1-.254-.027c-.7-.219-1.4-.47-2.08-.745a.658.658,0,0,1,.5-1.219c.645.261,1.309.5,1.975.708a.658.658,0,0,1-.138,1.284Zm19.831-1.935a.659.659,0,0,1-.373-1.235c.611-.331,1.216-.693,1.8-1.076a.658.658,0,0,1,.723,1.1c-.615.4-1.251.784-1.9,1.134A.655.655,0,0,1,1886.75,1898.993Zm4.632-3.218a.659.659,0,0,1-.492-1.152c.526-.458,1.038-.944,1.523-1.443a.658.658,0,1,1,.945.916c-.511.526-1.05,1.037-1.6,1.519A.647.647,0,0,1,1891.382,1895.775Zm3.821-4.153a.657.657,0,0,1-.588-1.045c.413-.563.807-1.148,1.171-1.741a.658.658,0,1,1,1.122.689c-.383.624-.8,1.24-1.232,1.833A.657.657,0,0,1,1895.2,1891.622Zm2.824-4.886a.658.658,0,0,1-.66-.921c.28-.638.535-1.3.762-1.955a.658.658,0,0,1,1.245.426c-.237.693-.507,1.386-.8,2.059A.659.659,0,0,1,1898.027,1886.736Zm1.683-5.389a.648.648,0,0,1-.185-.009.658.658,0,0,1-.52-.772c.132-.683.237-1.379.311-2.074a.659.659,0,0,1,1.31.141c-.079.73-.19,1.464-.328,2.184A.66.66,0,0,1,1899.71,1881.347Zm.457-5.623-.04,0a.66.66,0,0,1-.677-.64c-.014-.512-.045-1.031-.091-1.541-.016-.185-.034-.37-.055-.552a.658.658,0,0,1,.581-.728.651.651,0,0,1,.727.582c.021.193.041.386.058.58.048.537.08,1.083.1,1.622A.658.658,0,0,1,1900.167,1875.724Z" transform="translate(-1860.119 -1867.804)" fill="#91faf3"/>
        <path id="Path_175876" data-name="Path 175876" d="M1862.346,1894.965a.656.656,0,0,1-.387-.086c-.309-.178-.619-.366-.924-.559a.658.658,0,1,1,.705-1.112c.288.184.584.363.877.531a.659.659,0,0,1-.271,1.227Z" transform="translate(-1860.729 -1864.112)" fill="#91faf3"/>
      </g>
      <g id="Group_126032" data-name="Group 126032" transform="translate(6.534 6.333)">
        <path id="Path_175877" data-name="Path 175877" d="M1863.362,1893.443a.307.307,0,0,0,.351.062l3.387-1.6a16.269,16.269,0,0,0,4.857,2.082l1.178,3.552a.306.306,0,0,0,.288.211l4.491.054a.308.308,0,0,0,.293-.2l1.263-3.523a16.311,16.311,0,0,0,4.9-1.966l3.347,1.68a.309.309,0,0,0,.353-.054l3.213-3.138a.307.307,0,0,0,.064-.352l-1.6-3.385a16.3,16.3,0,0,0,2.082-4.858l3.552-1.177a.307.307,0,0,0,.211-.288l.053-4.492a.308.308,0,0,0-.2-.293l-3.523-1.262a16.284,16.284,0,0,0-1.966-4.906l1.681-3.347a.308.308,0,0,0-.055-.353l-3.138-3.213a.307.307,0,0,0-.351-.064l-3.386,1.6a16.334,16.334,0,0,0-4.857-2.082l-1.177-3.551a.312.312,0,0,0-.288-.212l-4.492-.053a.307.307,0,0,0-.293.2l-1.262,3.523a16.329,16.329,0,0,0-4.906,1.966l-3.346-1.68a.308.308,0,0,0-.353.054l-3.213,3.138a.307.307,0,0,0-.064.352l1.6,3.385a16.308,16.308,0,0,0-2.082,4.857l-3.553,1.178a.309.309,0,0,0-.211.288l-.053,4.49a.307.307,0,0,0,.2.294l3.523,1.262a16.315,16.315,0,0,0,1.966,4.905l-1.681,3.348a.306.306,0,0,0,.055.352Z" transform="translate(-1856.157 -1858.311)" fill="url(#linear-gradient-5)"/>
        <path id="Path_175878" data-name="Path 175878" d="M1874.01,1880.264a4.515,4.515,0,1,1,.655-.107A4.737,4.737,0,0,1,1874.01,1880.264Zm-.7-7.947a3.383,3.383,0,0,0-.506.083,3.457,3.457,0,1,0,.506-.083Z" transform="translate(-1853.865 -1856.019)" fill="#91faf3"/>
        <path id="Path_175879" data-name="Path 175879" d="M1875.664,1887.753q-.565.05-1.141.044h0c-.12,0-.241,0-.362-.01a11.194,11.194,0,0,1-1.764-.22l-.023,0-.067-.014-.131-.029a.262.262,0,0,1-.2-.233.233.233,0,0,1,.006-.081.263.263,0,0,1,.315-.2,10.583,10.583,0,0,0,11.218-4.534,10.518,10.518,0,0,0,1.719-5.649,10.38,10.38,0,0,0-.042-1.088,10.575,10.575,0,1,0-19.673,6.282.257.257,0,0,1,.035.109.263.263,0,0,1-.49.155,11.071,11.071,0,0,1-1.462-4.592,11.242,11.242,0,0,1-.043-1.127,11.1,11.1,0,0,1,22.158-.877,11.232,11.232,0,0,1,.043,1.142,11.1,11.1,0,0,1-10.092,10.925Z" transform="translate(-1854.847 -1857.021)" fill="#91faf3"/>
      </g>
    </g>
    <g id="Group_126038" data-name="Group 126038" transform="translate(1868.668 1813.147)">
      <g id="Group_126036" data-name="Group 126036">
        <path id="Path_175880" data-name="Path 175880" d="M1872.874,1818.585s1.331.647,1.575,1.39c.2.6,1.668.673,1.813,1.847a1.347,1.347,0,0,0,1.126,1.183c1.5.231,3.819,1.011,4.188,3.62.284,1.99-.732,2.746-1.8,3.007a1.509,1.509,0,0,0-1.144,1.742c.152.758-.074,1.634-1.387,2.326-2.942,1.553-5.879-3.676-5.879-3.676l-.6-9.131Z" transform="translate(-1857.045 -1810.741)" fill="url(#linear-gradient-6)"/>
        <path id="Path_175881" data-name="Path 175881" d="M1862.389,1813.98s2.743,10.642,8.84,14.49c0,0-2.483,3.272-3.618,3.372,0,0-5.981-9.457-5.963-16.715Z" transform="translate(-1858.66 -1811.556)" fill="url(#linear-gradient-7)"/>
        <path id="Path_175882" data-name="Path 175882" d="M1882.828,1867.31l.191,1.566a.647.647,0,0,0,.567.565,9.959,9.959,0,0,0,2.094.033.554.554,0,0,0,.465-.718,5.711,5.711,0,0,0-1.05-2.044h-1.736A.536.536,0,0,0,1882.828,1867.31Z" transform="translate(-1854.91 -1802.218)" fill="url(#linear-gradient-8)"/>
        <path id="Path_175883" data-name="Path 175883" d="M1871.475,1851.649l-.293,1.723s.981,9.937,1.156,13.912a3.113,3.113,0,0,1-.461,1.77l-1.706,2.771,4.335-2.559.086-.529-.71-.976.93-11.133a3.407,3.407,0,0,0-.388-1.889l-.9-1.684Z" transform="translate(-1857.151 -1804.885)" fill="url(#linear-gradient-9)"/>
        <path id="Path_175884" data-name="Path 175884" d="M1869.983,1869.75h1.384a.83.83,0,0,0,.66-.325c.432-.56,1.325-1.654,1.753-1.682.576-.039.5,2.007.5,2.007h.323l.408-2.542a1.5,1.5,0,0,0-.79-1.573h0a2.123,2.123,0,0,1-.844,1.4c-.713.431-2.9,1.972-2.9,1.972a1.965,1.965,0,0,0-.563.014A.366.366,0,0,0,1869.983,1869.75Z" transform="translate(-1857.249 -1802.408)" fill="url(#linear-gradient-10)"/>
        <path id="Path_175885" data-name="Path 175885" d="M1876.324,1852.451s5.748,10.9,6.661,13.392a23.9,23.9,0,0,1,1.245,4.763c.02.307.4.6,1.455.6a1.012,1.012,0,0,0,.941-.428.613.613,0,0,0,.023-.594c-.333-.673-1.388-2.824-1.779-3.8-.466-1.165-1.47-6.442-2.02-8.276a9.737,9.737,0,0,0-3.57-5.658S1877.636,1850.84,1876.324,1852.451Z" transform="translate(-1856.061 -1804.87)" fill="url(#linear-gradient-11)"/>
        <path id="Path_175886" data-name="Path 175886" d="M1874.455,1839.145a10.451,10.451,0,0,1,2.273-9.836c-2.37-2.274-6.687-3.31-6.687-3.31s-4.121,3.012-3.631,5.37c.286,1.382,2.9,8.277,2.9,8.277A5.731,5.731,0,0,0,1874.455,1839.145Z" transform="translate(-1857.824 -1809.428)" fill="url(#linear-gradient-12)"/>
        <path id="Path_175887" data-name="Path 175887" d="M1877.346,1840.278c-.6-1.819-3.288-3.111-3.288-3.111a5.731,5.731,0,0,1-5.15.5,10.32,10.32,0,0,0-.167,3.991c.373,1.922,2.717,14.277,2.717,14.277,3.692.747,9.371-.754,9.371-.754C1878.478,1851.008,1877.949,1842.1,1877.346,1840.278Z" transform="translate(-1857.427 -1807.45)" fill="url(#linear-gradient-13)"/>
        <path id="Path_175888" data-name="Path 175888" d="M1872.127,1822.55l1.205,5.415c.115.477-.319.4-.8.308a3.215,3.215,0,0,1-2.147-1.07.578.578,0,0,1-.062-.2l-.518-3.754a.675.675,0,0,1,.4-.709l1-.444A.674.674,0,0,1,1872.127,1822.55Z" transform="translate(-1857.217 -1810.13)" fill="url(#linear-gradient-14)"/>
        <g id="Group_126034" data-name="Group 126034" transform="translate(10.637 5.34)">
          <path id="Path_175889" data-name="Path 175889" d="M1871.006,1818.106a5.341,5.341,0,0,0-2.4,2.665c-.97,2.063-.246,3.016.665,3.146a4.263,4.263,0,0,0,3.712-1.222C1874.425,1821.363,1872.861,1817.391,1871.006,1818.106Z" transform="translate(-1868.146 -1816.181)" fill="url(#linear-gradient-15)"/>
          <path id="Path_175890" data-name="Path 175890" d="M1871.814,1821.871s1.077-3.018-1.6-3.054l-.63.44a1.714,1.714,0,0,1,.63-2.472c1.611-.8,3.5-.139,4.183,2.032s.8,3.624-.338,4.664-1.611-.139-1.611-.139.621-.972.368-1.492-.836.107-.836.107Z" transform="translate(-1867.943 -1816.458)" fill="url(#linear-gradient-16)"/>
          <path id="Path_175891" data-name="Path 175891" d="M1871.689,1821.5s.545-1.555,1.271-.936-.591,1.436-1.105,1.7Z" transform="translate(-1867.519 -1815.756)" fill="url(#linear-gradient-17)"/>
        </g>
        <g id="Group_126035" data-name="Group 126035" transform="translate(1.428)">
          <path id="Path_175892" data-name="Path 175892" d="M1862.077,1816.177c-.076.177.562.521,1.028-.187a7.079,7.079,0,0,0,.235-2.182,3.655,3.655,0,0,0-2.178-1.887,5.2,5.2,0,0,0-.75,1.175,1.507,1.507,0,0,0,.04,1.12c.154.357.367.823.576,1.193A1.491,1.491,0,0,0,1862.077,1816.177Z" transform="translate(-1860.323 -1811.921)" fill="url(#linear-gradient-18)"/>
        </g>
        <path id="Path_175893" data-name="Path 175893" d="M1878.682,1830.981s-11.027,13.464-19.265-1.866a1.9,1.9,0,0,1-.059-.958,9.169,9.169,0,0,0-.242-1.816.285.285,0,0,1,.253-.34h0a.391.391,0,0,1,.345.147l1.5,1.917a.8.8,0,0,1-.426.953h0a.4.4,0,0,0-.147.6c6.266,8.211,16.743-.8,16.935-.695C1878.26,1829.3,1879.046,1829.714,1878.682,1830.981Z" transform="translate(-1859.11 -1809.427)" fill="url(#linear-gradient-19)"/>
      </g>
      <g id="Group_126037" data-name="Group 126037" transform="translate(11.693 67.205)">
        <path id="Path_175894" data-name="Path 175894" d="M1870.195,1910.683a.4.4,0,0,0,.432-.341v-40.777a.444.444,0,0,0-.864,0v40.777A.4.4,0,0,0,1870.195,1910.683Z" transform="translate(-1868.916 -1868.978)" fill="url(#linear-gradient-20)"/>
        <path id="Path_175895" data-name="Path 175895" d="M1880.135,1910.683a.4.4,0,0,0,.432-.341v-40.777a.444.444,0,0,0-.864,0v40.777A.4.4,0,0,0,1880.135,1910.683Z" transform="translate(-1867.156 -1868.978)" fill="url(#linear-gradient-21)"/>
        <path id="Path_175896" data-name="Path 175896" d="M1907.879,1910.942a.549.549,0,0,0,.168-.027.32.32,0,0,0,.228-.447L1886.2,1869.43a.481.481,0,0,0-.566-.18.32.32,0,0,0-.228.447l22.079,41.036A.445.445,0,0,0,1907.879,1910.942Z" transform="translate(-1866.153 -1868.978)" fill="url(#linear-gradient-22)"/>
        <path id="Path_175897" data-name="Path 175897" d="M1896.293,1910.942a.55.55,0,0,0,.168-.027.32.32,0,0,0,.228-.447l-22.079-41.037a.48.48,0,0,0-.566-.18.32.32,0,0,0-.229.447l22.079,41.036A.446.446,0,0,0,1896.293,1910.942Z" transform="translate(-1868.205 -1868.978)" fill="url(#linear-gradient-23)"/>
        <path id="Path_175898" data-name="Path 175898" d="M1869.652,1869.976h20.225a.556.556,0,0,0,.608-.48h0a.556.556,0,0,0-.608-.48h-20.225a.555.555,0,0,0-.609.48h0A.555.555,0,0,0,1869.652,1869.976Z" transform="translate(-1869.044 -1869.015)" fill="url(#linear-gradient-24)"/>
        <path id="Path_175899" data-name="Path 175899" d="M1877.047,1875.235h13.679a.35.35,0,1,0,0-.682h-13.679a.35.35,0,1,0,0,.682Z" transform="translate(-1867.703 -1868.034)" fill="url(#linear-gradient-25)"/>
        <rect id="Rectangle_38220" data-name="Rectangle 38220" width="13.678" height="0.682" transform="translate(13.541 14.281)" fill="url(#linear-gradient-26)"/>
        <rect id="Rectangle_38221" data-name="Rectangle 38221" width="13.678" height="0.682" transform="translate(17.604 22.041)" fill="url(#linear-gradient-27)"/>
        <path id="Path_175900" data-name="Path 175900" d="M1887.684,1895.015h13.679a.35.35,0,1,0,0-.681h-13.679a.35.35,0,1,0,0,.681Z" transform="translate(-1865.819 -1864.531)" fill="url(#linear-gradient-28)"/>
        <path id="Path_175901" data-name="Path 175901" d="M1891.184,1901.61h13.678a.351.351,0,1,0,0-.683h-13.678a.351.351,0,1,0,0,.683Z" transform="translate(-1865.199 -1863.363)" fill="url(#linear-gradient-29)"/>
      </g>
    </g>
    <g id="Group_126042" data-name="Group 126042" transform="translate(1805.142 1879.123)">
      <g id="Group_126039" data-name="Group 126039" transform="translate(29.314 40.411)">
        <path id="Path_175902" data-name="Path 175902" d="M1836.863,1904.442a15.716,15.716,0,0,0-4.3-2.14l-1.765.039a4.423,4.423,0,0,0-.736,2.092,4.732,4.732,0,0,0,2.1.427A17.156,17.156,0,0,0,1836.863,1904.442Z" transform="translate(-1830.042 -1902.302)" fill="url(#linear-gradient-30)"/>
        <path id="Path_175903" data-name="Path 175903" d="M1836.866,1904.121a17.144,17.144,0,0,1-4.7.418,4.73,4.73,0,0,1-2.1-.427c-.007.05-.014.1-.019.141a.519.519,0,0,0,.365.56c1.612.494,5.157.336,6.539.25a.363.363,0,0,0,.26-.592A2.918,2.918,0,0,0,1836.866,1904.121Z" transform="translate(-1830.045 -1901.981)" fill="url(#linear-gradient-31)"/>
      </g>
      <path id="Path_175904" data-name="Path 175904" d="M1831.494,1901.041l-.682,1.4a.574.574,0,0,0,.452.56,2.244,2.244,0,0,0,.989.01.548.548,0,0,0,.407-.47l.859-1.5Z" transform="translate(-1800.595 -1862.114)" fill="url(#linear-gradient-32)"/>
      <g id="Group_126040" data-name="Group 126040" transform="translate(0 36.542)">
        <path id="Path_175905" data-name="Path 175905" d="M1806.884,1901.5c-.514-1.143-.367-1.657-1.383-1.543a1.384,1.384,0,0,0-.31.068.91.91,0,0,0,0,.594,9.5,9.5,0,0,0,1.438,3.418,1.113,1.113,0,0,0,.858.418l1.121.019A6.658,6.658,0,0,1,1806.884,1901.5Z" transform="translate(-1805.141 -1898.851)" fill="url(#linear-gradient-33)"/>
        <path id="Path_175906" data-name="Path 175906" d="M1808.672,1902.939c-.859-.605-.84-3.25-.84-3.25l-1.326-.675-1,.725a.908.908,0,0,0-.323.445,1.372,1.372,0,0,1,.31-.068c1.016-.114.869.4,1.383,1.543a6.657,6.657,0,0,0,1.725,2.975l.77.013a.414.414,0,0,0,.337-.665A5.006,5.006,0,0,0,1808.672,1902.939Z" transform="translate(-1805.134 -1899.015)" fill="url(#linear-gradient-34)"/>
      </g>
      <path id="Path_175907" data-name="Path 175907" d="M1807.671,1897.957l-1.482,1.245a.362.362,0,0,0,.08.481,1.189,1.189,0,0,0,1.246.193l1.627-.88Z" transform="translate(-1804.966 -1862.66)" fill="url(#linear-gradient-35)"/>
      <path id="Path_175908" data-name="Path 175908" d="M1806.606,1901l1.216.908a.779.779,0,0,0,.817.04c2.016-1.454,21.149-10.248,24.94-11.621l-2.893-6.076S1806.1,1900.528,1806.606,1901Z" transform="translate(-1804.884 -1865.088)" fill="url(#linear-gradient-36)"/>
      <path id="Path_175909" data-name="Path 175909" d="M1842.093,1889.09c-2.258-1.211-8.542-2.258-8.542-2.258l-7.311-1.98s-2.008,5.988,1.509,7.068,8.6.57,10.734.286c0,0-2.85,2.047-6.261,11.962a11.866,11.866,0,0,1,2.083.243s7.614-9.477,8.411-11.922C1843.242,1890.879,1843.979,1890.1,1842.093,1889.09Z" transform="translate(-1801.506 -1864.981)" fill="url(#linear-gradient-37)"/>
      <path id="Path_175910" data-name="Path 175910" d="M1844.3,1871.681a39.675,39.675,0,0,0-6.387.932l2.467,2.029s1.946-.473,3.242-.727C1843.622,1873.915,1846.82,1871.858,1844.3,1871.681Z" transform="translate(-1799.338 -1867.315)" fill="url(#linear-gradient-38)"/>
      <g id="Group_126041" data-name="Group 126041" transform="translate(43.916)">
        <path id="Path_175911" data-name="Path 175911" d="M1849.144,1873.466a16.958,16.958,0,0,1-3.406,2.5c-1.287.534-2.04,1.117-2.837-.309a3.421,3.421,0,0,1,.573-4.122s1.635-1.793,2.545-1.839S1849.144,1873.466,1849.144,1873.466Z" transform="translate(-1842.45 -1867.665)" fill="url(#linear-gradient-39)"/>
        <path id="Path_175912" data-name="Path 175912" d="M1844.541,1872.032l.067.192s1.344-1.361,1.874-.766,2.057,3.15,3.242,3.4a1.924,1.924,0,0,0,2.251-1.579.108.108,0,0,0-.093-.113l-.142-.021a.109.109,0,0,1-.047-.2.109.109,0,0,0-.036-.2c-.355-.079-1-.4-1.711-1.639-1-1.751-2.2-2.723-3.5-2.3a.109.109,0,0,1-.14-.129c.035-.168,0-.4-.355-.611-.612-.363-1.661.241-2.187,1.693a.109.109,0,0,1-.167.054c-.2-.158-.629-.352-.773.586a2.228,2.228,0,0,0,.177,1.584.109.109,0,0,0,.134.041l1.122-.474a.11.11,0,0,1,.146.065Z" transform="translate(-1842.394 -1867.97)" fill="url(#linear-gradient-40)"/>
        <path id="Path_175913" data-name="Path 175913" d="M1844.2,1871.781s1.452-.976.752-1.535-1.66,1-1.517,1.6Z" transform="translate(-1842.278 -1867.589)" fill="url(#linear-gradient-41)"/>
      </g>
      <path id="Path_175914" data-name="Path 175914" d="M1855.332,1877.777s1.192.424,1.413-.286-.4-2.6,0-2.861a2.759,2.759,0,0,0,.85-2.162l-.489.464s.333-1.095-.033-1.561l-.924,2.378S1854.919,1876.576,1855.332,1877.777Z" transform="translate(-1796.268 -1867.369)" fill="url(#linear-gradient-42)"/>
      <path id="Path_175915" data-name="Path 175915" d="M1838.939,1872.913s2.126-2.344,6.771,1.315c3.2,2.522,14.739,2.009,14.739,2.009a5.633,5.633,0,0,0,.22,1.442s-9.681,2.618-16.949.84c0,0-8.029,9.1-8.648,10.886,0,0-5.218.779-8.918-2.307a20.566,20.566,0,0,1,4.206-6.647A50.1,50.1,0,0,1,1838.939,1872.913Z" transform="translate(-1801.42 -1867.226)" fill="url(#linear-gradient-43)"/>
      <path id="Path_175916" data-name="Path 175916" d="M1837.972,1876.809a.08.08,0,0,1,.05-.152c.028.008,2.765.777,3.2.883a.081.081,0,0,1,.058.1.079.079,0,0,1-.1.058c-.434-.107-3.173-.877-3.2-.884Z" transform="translate(-1799.337 -1866.433)" fill="url(#linear-gradient-44)"/>
    </g>
  </g>
</svg>
