<svg xmlns="http://www.w3.org/2000/svg" width="84.402" height="86" viewBox="0 0 84.402 86">
  <g id="Group_126055" data-name="Group 126055" transform="translate(-400.892 24)">
    <path id="Path_175925" data-name="Path 175925" d="M723.143-24c-.022.333-.062.666-.062,1,0,5.008-.016,10.016.012,15.024,0,.7-.189.947-.892.889s-1.389-.012-2.25-.012V-24Z" transform="translate(-257.685)" fill="#1a2e48"/>
    <path id="Path_175926" data-name="Path 175926" d="M646.333,136.323c-1.395-.727-2.7-1.4-4-2.1a.751.751,0,0,1-.316-.528c-.329-4.49-.639-8.981-.959-13.554H674.59q-2.184,29.118-4.368,58.238H654.754c.226-.366.427-.654.59-.962a8,8,0,0,0,.929-3.871c-.017-1.791,0-3.582,0-5.373,0-1.339-.224-1.65-1.484-2.109a7.67,7.67,0,0,0-.018-9.107c1.351-.264,1.54-1.2,1.489-2.373a22.582,22.582,0,0,0-5.882-14.536,3.124,3.124,0,0,1-.86-2.087c-.109-2.4-.3-4.789-.457-7.258l-3.061.22C646.108,132.741,646.219,134.506,646.333,136.323Zm-.783-11.538.214,3.058,3.055-.226-.228-3.052Z" transform="translate(-193.97 -116.414)" fill="#1a2e48"/>
    <path id="Path_175927" data-name="Path 175927" d="M459.563,217.483h-58.17a16.2,16.2,0,0,1,1.23-5.549c3.364-7.937,9.366-12.392,17.979-12.777,6.565-.294,13.157-.194,19.731-.027a19.833,19.833,0,0,1,19.061,16.838C459.469,216.434,459.5,216.907,459.563,217.483Zm-39.805-15.318v3.057c.906,0,1.761.018,2.615-.018a.565.565,0,0,0,.4-.378c.037-.878.019-1.758.019-2.661Zm21.415.032H438.2v2.966h2.969Zm4.6,9.13v-2.969h-2.965v2.969ZM428.96,205.15h2.963v-2.944H428.96Zm-13.782,3.182V211.3h2.942v-2.967Zm12.171,2.988v-2.966H424.4v2.966Zm6.274-2.98v2.948h2.931V208.34Z" transform="translate(-0.405 -180.078)" fill="#1a2e48"/>
    <path id="Path_175928" data-name="Path 175928" d="M401.147,375.373h58.126a46.837,46.837,0,0,1-.046,5.514,4.318,4.318,0,0,1-3.977,3.624,6.756,6.756,0,0,1-.754.036q-24.265,0-48.531,0c-2.466,0-4.483-1.4-4.771-3.62A43.819,43.819,0,0,1,401.147,375.373Z" transform="translate(-0.149 -322.549)" fill="#1a2e48"/>
    <path id="Path_175929" data-name="Path 175929" d="M434.1,320.477h-.748q-13.769,0-27.537,0a4.664,4.664,0,0,1-4.651-3.058,4.6,4.6,0,0,1,4.419-6.151c2.966-.043,5.933-.01,8.9-.01,1.763,0,3.526-.014,5.289.012a1.974,1.974,0,0,1,1.013.27q6.406,4.23,12.783,8.5C433.7,320.125,433.811,320.235,434.1,320.477Z" transform="translate(0 -270.754)" fill="#1a2e48"/>
    <path id="Path_175930" data-name="Path 175930" d="M616.579,84.612V80.134h42.913v4.478Z" transform="translate(-174.197 -84.103)" fill="#1a2e48"/>
    <path id="Path_175931" data-name="Path 175931" d="M557.382,311.53l-8.024,5.84c-1.221.889-2.43,1.794-3.674,2.648a.947.947,0,0,1-.849.052q-6.269-4.126-12.5-8.31a1.429,1.429,0,0,1-.2-.229Z" transform="translate(-105.997 -270.987)" fill="#1a2e48"/>
    <path id="Path_175932" data-name="Path 175932" d="M625.792,322.363c.3-.238.5-.41.708-.564,3.591-2.613,7.193-5.209,10.763-7.849a1.083,1.083,0,0,1,1.408-.045,4.674,4.674,0,0,1,2.159,4.586,4.6,4.6,0,0,1-3.544,3.805,1.583,1.583,0,0,1-.328.065C633.283,322.363,629.609,322.363,625.792,322.363Z" transform="translate(-181.638 -272.712)" fill="#1a2e48"/>
    <path id="Path_175933" data-name="Path 175933" d="M664.4,143.352l3.042-.221.228,3.052-3.055.226Z" transform="translate(-212.818 -134.981)" fill="#1a2e48"/>
  </g>
</svg>
