<svg xmlns="http://www.w3.org/2000/svg" width="54.736" height="49.25" viewBox="0 0 54.736 49.25">
  <g id="Group_112780" data-name="Group 112780" transform="translate(-592.992 213.02)">
    <path id="Path_171253" data-name="Path 171253" d="M647.728-209.13v41.476c-.022.027-.056.052-.064.082a4.55,4.55,0,0,1-4.93,3.8q-22.363,0-44.728,0a6.614,6.614,0,0,1-1.38-.1A4.528,4.528,0,0,1,593-168.46q-.008-10.929,0-21.856,0-8.952,0-17.9a4.71,4.71,0,0,1,.846-2.867,4.633,4.633,0,0,1,4.008-1.935q22.525.015,45.049.007.267,0,.534.015a4.163,4.163,0,0,1,3.353,1.811A12.823,12.823,0,0,1,647.728-209.13Zm-1.821,34.4v-.584q0-16.434,0-32.867a2.747,2.747,0,0,0-3.024-3.008q-22.526,0-45.053,0a2.746,2.746,0,0,0-3.011,3.02q0,16.434,0,32.867v.569h3.764a7.536,7.536,0,0,1-.113-.917c-.009-2.155-.062-4.313.012-6.466a6.235,6.235,0,0,1,3.707-5.68l.419-.209a6.461,6.461,0,0,1-1.753-7.594,6.307,6.307,0,0,1,5.974-3.745c3.442.223,5.426,2.175,6.216,5.485.554,0,1.1,0,1.656,0,.7.006,1.081.322,1.085.9s-.386.915-1.068.925c-.567.007-1.135,0-1.72,0a6.594,6.594,0,0,1-2.27,4.018l.459.23a6.2,6.2,0,0,1,3.689,5.635c.083,2.466.018,4.937.018,7.424Zm-.01,1.883H594.823c0,1.591-.026,3.141.011,4.688a2.567,2.567,0,0,0,1.112,2.04,3.12,3.12,0,0,0,1.971.525q22.446-.008,44.893,0c.161,0,.321,0,.481-.008a2.655,2.655,0,0,0,2.592-2.5C645.945-169.671,645.9-171.239,645.9-172.845Zm-36.474-1.882v-1.8c0-1.8-.006-3.6.006-5.4a.908.908,0,0,1,.886-1,.942.942,0,0,1,.93.972c.011.159,0,.32,0,.48,0,1.906,0,3.811,0,5.716,0,.644.355,1.036.9,1.039a.931.931,0,0,0,.921-1.029c.009-2.119.049-4.239-.013-6.356a4.534,4.534,0,0,0-4.637-4.471c-1.1-.009-2.208,0-3.312,0a4.586,4.586,0,0,0-4.82,4.785c-.008,1.959,0,3.917,0,5.876a1.893,1.893,0,0,0,.055.527.855.855,0,0,0,.914.664.867.867,0,0,0,.838-.814,5.451,5.451,0,0,0,.014-.587c0-1.923-.006-3.846.006-5.769a.935.935,0,0,1,.921-1.032.89.89,0,0,1,.89.938c.013,2.412.006,4.824.006,7.255Zm-7.148-19.165h8.81a4.428,4.428,0,0,0-4.409-3.613A4.425,4.425,0,0,0,602.275-193.892Zm.007,1.881c.136,1.86,2.189,3.587,4.284,3.619a4.452,4.452,0,0,0,4.52-3.619Z"/>
    <path id="Path_171254" data-name="Path 171254" d="M623.106-183.822c-.3,0-.546,0-.79,0a4.534,4.534,0,0,1-4.683-4.6q-.067-7.268,0-14.536a4.5,4.5,0,0,1,4.681-4.581q7.642-.015,15.285,0a4.53,4.53,0,0,1,4.659,4.665q.024,7.161,0,14.323a4.574,4.574,0,0,1-4.673,4.723c-.89.015-1.782-.018-2.671.016a1.3,1.3,0,0,0-.751.285c-2,1.742-3.975,3.518-5.978,5.258a3.011,3.011,0,0,1-4.541-.486,3.084,3.084,0,0,1-.542-1.864C623.114-181.663,623.106-182.71,623.106-183.822Zm8.479.123-.051-.123c-.228,0-.455,0-.683,0-.463,0-.928.02-1.389-.015a.886.886,0,0,1-.877-.95.883.883,0,0,1,.91-.855c.16-.011.321-.006.481-.006q3.714,0,7.429,0a2.778,2.778,0,0,0,3.033-3.019q.006-7.029,0-14.056a2.754,2.754,0,0,0-2.993-2.993q-7.482,0-14.964,0a2.749,2.749,0,0,0-3.032,3q-.009,7.027,0,14.055a2.766,2.766,0,0,0,3.036,3.011c1.1.005,2.209-.008,3.313.009a.9.9,0,0,1,.948.882.926.926,0,0,1-.917.926c-.278.023-.559,0-.9,0,0,1.145,0,2.227,0,3.308a1.135,1.135,0,0,0,.679,1.116,1.152,1.152,0,0,0,1.337-.2c.415-.364.832-.726,1.245-1.092Q629.891-182.2,631.585-183.7Z"/>
    <path id="Path_171255" data-name="Path 171255" d="M614.444-170.138c2.172,0,4.344,0,6.516,0a1.192,1.192,0,0,1,.713.118,1.207,1.207,0,0,1,.467.8,1.489,1.489,0,0,1-.56.8c-.131.116-.407.092-.617.092q-6.543.006-13.086,0c-.089,0-.178,0-.267,0a.932.932,0,0,1-.927-.915.892.892,0,0,1,.978-.9C609.922-170.143,612.183-170.138,614.444-170.138Z"/>
    <path id="Path_171256" data-name="Path 171256" d="M635.438-170.138c2.189,0,4.379-.006,6.568.006a1.156,1.156,0,0,1,.748.174,1.241,1.241,0,0,1,.351.865c-.028.252-.318.521-.559.687a1.288,1.288,0,0,1-.673.088q-6.461.007-12.923,0c-.107,0-.214.005-.32,0a.944.944,0,0,1-.971-.93.909.909,0,0,1,1-.886C630.917-170.143,633.177-170.138,635.438-170.138Z"/>
    <path id="Path_171257" data-name="Path 171257" d="M601.219-169.236c0-.32-.016-.642,0-.961a.9.9,0,0,1,.855-.863.881.881,0,0,1,.93.782,15.671,15.671,0,0,1,0,2.079.853.853,0,0,1-.93.771.86.86,0,0,1-.856-.848C601.2-168.594,601.22-168.916,601.219-169.236Z"/>
    <path id="Path_171258" data-name="Path 171258" d="M599.386-169.241c0,.3.019.606,0,.906a.9.9,0,0,1-.922.908.866.866,0,0,1-.887-.926c-.017-.6-.018-1.21,0-1.815a.884.884,0,0,1,.876-.892.9.9,0,0,1,.912.806,8.325,8.325,0,0,1,.008,1.012Z"/>
    <path id="Path_171259" data-name="Path 171259" d="M624.919-170.132a.878.878,0,0,1,.9.907.916.916,0,0,1-.924.9.94.94,0,0,1-.888-.9A.9.9,0,0,1,624.919-170.132Z"/>
    <path id="Path_171260" data-name="Path 171260" d="M629.483-188.392q-2.617,0-5.235,0a1.85,1.85,0,0,1-2.064-2.035q0-5.262,0-10.524a1.835,1.835,0,0,1,2.011-2.035q5.287-.014,10.577,0a1.84,1.84,0,0,1,2.014,2.036q.011,5.262,0,10.524a1.851,1.851,0,0,1-2.067,2.034Q632.1-188.388,629.483-188.392Zm2.74-12.738c0,.927.012,1.8,0,2.667a1.8,1.8,0,0,1-1.862,1.851c-.517.01-1.033,0-1.55,0a1.823,1.823,0,0,1-2.051-2.03c0-.815,0-1.63,0-2.481h-2.709v10.874h10.877V-201.13Zm-1.852,2.672v-2.659h-1.762v2.659Z"/>
    <path id="Path_171261" data-name="Path 171261" d="M627.646-193.419c0,.16.009.32,0,.48a.908.908,0,0,1-.875.9.922.922,0,0,1-.928-.853,6.088,6.088,0,0,1-.009-.906.936.936,0,0,1,.917-.978.922.922,0,0,1,.9.986c.005.124,0,.248,0,.373Z"/>
  </g>
</svg>
