<svg xmlns="http://www.w3.org/2000/svg" width="128.812" height="101.625" viewBox="0 0 128.812 101.625">
  <g id="Group_109310" data-name="Group 109310" transform="translate(-186.581 -165.847)">
    <g id="Group_109269" data-name="Group 109269" transform="translate(195.252 165.847)">
      <g id="Group_109268" data-name="Group 109268">
        <path id="Path_167673" data-name="Path 167673" d="M250.007,221.58l-2.811-6.29-.959-2.144.177-.077a16.107,16.107,0,0,0,8.152-21.233l2.146-.959L263,188.065A25.345,25.345,0,0,1,250.184,221.5C250.125,221.528,250.066,221.555,250.007,221.58Z" transform="translate(-214.491 -173.012)" fill="#97ccfb"/>
        <path id="Path_167674" data-name="Path 167674" d="M225.042,176.575l-3.77-8.435.176-.08a25.344,25.344,0,0,1,33.481,12.8l.02.043-6.289,2.811-2.146.959-.02-.045a16.106,16.106,0,0,0-21.276-8.131Z" transform="translate(-206.44 -165.847)" fill="#e08675"/>
        <path id="Path_167675" data-name="Path 167675" d="M201.612,202.676l-.02-.045a25.344,25.344,0,0,1,12.62-33.4l3.77,8.435a16.106,16.106,0,0,0-7.955,21.2l.02.044Z" transform="translate(-199.38 -166.938)" fill="#ecbf4c"/>
        <path id="Path_167676" data-name="Path 167676" d="M202.674,216.8l8.435-3.77a16.1,16.1,0,0,0,21.079,8.165l.959,2.144,2.811,6.29A25.345,25.345,0,0,1,202.674,216.8Z" transform="translate(-200.442 -181.064)" fill="#6ed1ff"/>
      </g>
      <path id="Path_167677" data-name="Path 167677" d="M235.364,211.4l.049-.02.129-.056a18.456,18.456,0,0,0,9.338-24.337l-.02-.043a18.456,18.456,0,0,0-24.381-9.318l-.128.058-.048.022a18.456,18.456,0,0,0-9.142,24.3l.02.044A18.456,18.456,0,0,0,235.364,211.4ZM213.326,201.1l-.02-.044a16.106,16.106,0,0,1,7.955-21.2l.177-.081a16.106,16.106,0,0,1,21.276,8.131l.02.045a16.107,16.107,0,0,1-8.152,21.233l-.177.077A16.1,16.1,0,0,1,213.326,201.1Z" transform="translate(-202.659 -169.127)" fill="#5e88a5" opacity="0.31"/>
    </g>
    <g id="Group_109280" data-name="Group 109280" transform="translate(207.451 182.322)">
      <g id="Group_109279" data-name="Group 109279">
        <g id="Group_109271" data-name="Group 109271" transform="translate(0 5.347)">
          <path id="Path_167678" data-name="Path 167678" d="M283.721,290.319H255.771l1.292-8.142,1.139-7.17h23.09l1.139,7.17Z" transform="translate(-229.765 -222.873)" fill="#dbecfc"/>
          <path id="Path_167679" data-name="Path 167679" d="M283.045,282.177H257.678l1.139-7.17h23.09Z" transform="translate(-230.379 -222.873)" fill="#97ccfb"/>
          <g id="Group_109270" data-name="Group 109270">
            <rect id="Rectangle_36430" data-name="Rectangle 36430" width="79.963" height="56.873" rx="7.519" fill="#dbecfc"/>
            <rect id="Rectangle_36431" data-name="Rectangle 36431" width="71.456" height="42.534" transform="translate(4.375 4.253)" fill="#0c5071"/>
            <path id="Path_167680" data-name="Path 167680" d="M297.349,264.783v6.572a5.094,5.094,0,0,1-5.094,5.094H222.48a5.094,5.094,0,0,1-5.094-5.094v-6.572Z" transform="translate(-217.386 -219.576)" fill="#b7e8fc"/>
          </g>
        </g>
        <g id="Group_109278" data-name="Group 109278" transform="translate(16.041)">
          <g id="Group_109273" data-name="Group 109273">
            <g id="Group_109272" data-name="Group 109272">
              <path id="Path_167681" data-name="Path 167681" d="M289.672,200.568v43.506h-48.61V200.568Z" transform="translate(-241.062 -193.519)" fill="#fff"/>
              <path id="Path_167682" data-name="Path 167682" d="M289.672,193.371v3.841h-48.61v-3.841a3.207,3.207,0,0,1,3.207-3.207h42.2A3.207,3.207,0,0,1,289.672,193.371Z" transform="translate(-241.062 -190.164)" fill="#4e7192"/>
              <path id="Path_167683" data-name="Path 167683" d="M297.8,194.319a1.823,1.823,0,1,1-1.823-1.823A1.822,1.822,0,0,1,297.8,194.319Z" transform="translate(-258.185 -190.916)" fill="#ecbf4c"/>
              <path id="Path_167684" data-name="Path 167684" d="M305.694,194.319a1.823,1.823,0,1,1-1.823-1.823A1.823,1.823,0,0,1,305.694,194.319Z" transform="translate(-260.73 -190.916)" fill="#dd6e5c"/>
            </g>
          </g>
          <text id="B" transform="translate(1.012 31.168)" fill="#dbecfc" font-size="11" font-family="Mitr-Regular, Mitr"><tspan x="0" y="0">B</tspan></text>
          <text id="R" transform="translate(9.887 23.743)" fill="#dbecfc" font-size="10" font-family="Mitr-Regular, Mitr"><tspan x="0" y="0">R</tspan></text>
          <text id="N" transform="translate(32.607 38.683)" fill="#dbecfc" font-size="12" font-family="Mitr-Regular, Mitr"><tspan x="0" y="0">N</tspan></text>
          <text id="D" transform="translate(39.009 28.495)" fill="#dbecfc" font-size="12" font-family="Mitr-Regular, Mitr"><tspan x="0" y="0">D</tspan></text>
          <g id="Group_109276" data-name="Group 109276" transform="translate(14.429 12.533)">
            <text id="A" transform="translate(2.774 24)" fill="#97ccfb" font-size="21" font-family="Mitr-Regular, Mitr"><tspan x="0" y="0">A</tspan></text>
            <g id="Group_109275" data-name="Group 109275" transform="translate(0 7.415)">
              <g id="Group_109274" data-name="Group 109274" transform="translate(0.763 0.654)">
                <path id="Path_167685" data-name="Path 167685" d="M283.116,239.332H263.485V220.573h19.631Zm-19.086-.545h18.541V221.118H264.03Z" transform="translate(-263.485 -220.573)" fill="#5e88a5"/>
              </g>
              <rect id="Rectangle_36432" data-name="Rectangle 36432" width="1.963" height="1.963" fill="#5e88a5"/>
              <rect id="Rectangle_36433" data-name="Rectangle 36433" width="1.963" height="1.963" transform="translate(9.597)" fill="#5e88a5"/>
              <rect id="Rectangle_36434" data-name="Rectangle 36434" width="1.963" height="1.963" transform="translate(9.597 18.213)" fill="#5e88a5"/>
              <rect id="Rectangle_36435" data-name="Rectangle 36435" width="1.963" height="1.963" transform="translate(0 18.104)" fill="#5e88a5"/>
              <rect id="Rectangle_36436" data-name="Rectangle 36436" width="1.963" height="1.963" transform="translate(0 9.161)" fill="#5e88a5"/>
              <rect id="Rectangle_36437" data-name="Rectangle 36437" width="1.963" height="1.963" transform="translate(19.195 9.161)" fill="#5e88a5"/>
              <rect id="Rectangle_36438" data-name="Rectangle 36438" width="1.963" height="1.963" transform="translate(19.122)" fill="#5e88a5"/>
              <rect id="Rectangle_36439" data-name="Rectangle 36439" width="1.963" height="1.963" transform="translate(19.122 18.104)" fill="#5e88a5"/>
            </g>
          </g>
          <g id="Group_109277" data-name="Group 109277" transform="translate(2.431 10.208)">
            <rect id="Rectangle_36440" data-name="Rectangle 36440" width="15.677" height="1.823" transform="translate(0 32.447)" fill="#dbecfc"/>
            <rect id="Rectangle_36441" data-name="Rectangle 36441" width="15.677" height="1.823" transform="translate(0 35.728)" fill="#dbecfc"/>
            <rect id="Rectangle_36442" data-name="Rectangle 36442" width="15.677" height="1.823" transform="translate(28.801)" fill="#dbecfc"/>
            <rect id="Rectangle_36443" data-name="Rectangle 36443" width="20.902" height="1.701" transform="translate(23.576 3.403)" fill="#dbecfc"/>
          </g>
        </g>
      </g>
      <rect id="Rectangle_36444" data-name="Rectangle 36444" width="32.69" height="3.038" transform="translate(23.454 71.335)" fill="#b7e8fc"/>
    </g>
    <g id="Group_109284" data-name="Group 109284" transform="translate(261.685 216.124)">
      <g id="Group_109281" data-name="Group 109281" transform="translate(0 0)">
        <circle id="Ellipse_5067" data-name="Ellipse 5067" cx="18.149" cy="18.149" r="18.149" transform="translate(0 34.998) rotate(-74.625)" fill="#dd6e5c"/>
        <circle id="Ellipse_5068" data-name="Ellipse 5068" cx="13.914" cy="13.914" r="13.914" transform="matrix(0.18, -0.984, 0.984, 0.18, 6.114, 33.485)" fill="#fff"/>
        <circle id="Ellipse_5069" data-name="Ellipse 5069" cx="9.247" cy="9.247" r="9.247" transform="translate(10.351 17.022) rotate(-21.145)" fill="#dd6e5c"/>
        <circle id="Ellipse_5070" data-name="Ellipse 5070" cx="4.674" cy="4.674" r="4.674" transform="translate(17.578 17.698) rotate(-0.735)" fill="#fff"/>
      </g>
      <g id="Group_109283" data-name="Group 109283" transform="translate(19.183 3.269)">
        <path id="Path_167686" data-name="Path 167686" d="M349.323,257.411l.648.333-17.522,9.633-1.536.845-.764-1.39,1.535-.844,17.494-9.619-.066.656A.39.39,0,0,0,349.323,257.411Z" transform="translate(-327.169 -248.586)" fill="#5e88a5"/>
        <g id="Group_109282" data-name="Group 109282" transform="translate(21.943)">
          <path id="Path_167687" data-name="Path 167687" d="M363.436,256.063l-1.828,1.005a.393.393,0,0,1-.366,0L359,255.916l-.648-.333a.39.39,0,0,1-.21-.385l.066-.656.254-2.533a.387.387,0,0,1,.2-.3l1.828-1a.388.388,0,0,0-.2.3l-.253,2.533-.066.656a.388.388,0,0,0,.209.385l.648.333,2.245,1.156A.393.393,0,0,0,363.436,256.063Z" transform="translate(-358.137 -246.759)" fill="#5e88a5"/>
          <path id="Path_167688" data-name="Path 167688" d="M366.055,254.643l-1.749.961a.393.393,0,0,1-.366.005l-2.245-1.156-.648-.333a.388.388,0,0,1-.209-.385l.066-.656.253-2.533a.388.388,0,0,1,.2-.3l1.751-.963a.39.39,0,0,0-.2.3l-.254,2.533-.065.655a.389.389,0,0,0,.21.385l.648.333,2.245,1.156A.392.392,0,0,0,366.055,254.643Z" transform="translate(-359.008 -246.3)" fill="#ecbf4c"/>
          <path id="Path_167689" data-name="Path 167689" d="M368.573,253.277l-1.677.922-.006,0a.392.392,0,0,1-.36,0l-2.245-1.156-.648-.333a.389.389,0,0,1-.21-.385l.065-.655.254-2.533a.39.39,0,0,1,.2-.3l0,0,1.682-.924a.387.387,0,0,0-.2.3l-.254,2.533-.066.654a.388.388,0,0,0,.21.386l.648.334,2.245,1.157A.393.393,0,0,0,368.573,253.277Z" transform="translate(-359.843 -245.86)" fill="#5e88a5"/>
          <path id="Path_167690" data-name="Path 167690" d="M371.059,251.91l-1.681.925,0,0a.393.393,0,0,1-.361,0l-2.245-1.156-.648-.334a.388.388,0,0,1-.21-.386l.066-.654.254-2.533a.387.387,0,0,1,.2-.3l1.682-.924a.387.387,0,0,0-.2.3l-.318,3.188a.388.388,0,0,0,.209.385l2.892,1.49A.391.391,0,0,0,371.059,251.91Z" transform="translate(-360.643 -245.42)" fill="#ecbf4c"/>
          <path id="Path_167691" data-name="Path 167691" d="M373.469,250.6l-1.609.884a.391.391,0,0,1-.366.005L368.6,250a.388.388,0,0,1-.209-.385l.318-3.188a.387.387,0,0,1,.2-.3l1.608-.885a.386.386,0,0,0-.2.3L370,248.735a.387.387,0,0,0,.21.385l2.892,1.49A.391.391,0,0,0,373.469,250.6Z" transform="translate(-361.444 -244.998)" fill="#5e88a5"/>
          <path id="Path_167692" data-name="Path 167692" d="M374.589,250.292l-.355.2a.391.391,0,0,1-.366,0L370.976,249a.387.387,0,0,1-.21-.385l.318-3.188a.386.386,0,0,1,.2-.3l.359-.2a.39.39,0,0,1,.577.343l-.01,2.632a.39.39,0,0,0,.184.332l2.213,1.384A.389.389,0,0,1,374.589,250.292Z" transform="translate(-362.209 -244.881)" fill="#ecbf4c"/>
        </g>
        <path id="Path_167693" data-name="Path 167693" d="M332.171,273.437l-6.18-.533a.3.3,0,0,1-.218-.4l2.862-5.5c.071-.137.263-.1.354.063l3.318,6.036C332.4,273.269,332.325,273.45,332.171,273.437Z" transform="translate(-325.749 -251.988)" fill="#ecbf4c"/>
      </g>
    </g>
    <g id="Group_109286" data-name="Group 109286" transform="translate(186.581 226.374)">
      <g id="Group_109285" data-name="Group 109285">
        <path id="Path_167694" data-name="Path 167694" d="M225.483,263.511V286.62a2.566,2.566,0,0,1-2.566,2.566H189.147a2.566,2.566,0,0,1-2.566-2.566V263.511Z" transform="translate(-186.581 -257.87)" fill="#fff"/>
        <path id="Path_167695" data-name="Path 167695" d="M225.483,257.752v3.074h-38.9v-3.074a2.566,2.566,0,0,1,2.566-2.567h33.769A2.566,2.566,0,0,1,225.483,257.752Z" transform="translate(-186.581 -255.185)" fill="#4e7192"/>
        <path id="Path_167696" data-name="Path 167696" d="M231.988,258.51a1.459,1.459,0,1,1-1.459-1.459A1.459,1.459,0,0,1,231.988,258.51Z" transform="translate(-200.284 -255.787)" fill="#ecbf4c"/>
        <path id="Path_167697" data-name="Path 167697" d="M238.305,258.51a1.459,1.459,0,1,1-1.459-1.459A1.459,1.459,0,0,1,238.305,258.51Z" transform="translate(-202.321 -255.787)" fill="#dd6e5c"/>
      </g>
      <rect id="Rectangle_36445" data-name="Rectangle 36445" width="15.366" height="12.254" transform="translate(2.237 9.239)" fill="#86c8f1"/>
      <rect id="Rectangle_36446" data-name="Rectangle 36446" width="17.02" height="2.431" transform="translate(19.645 9.531)" fill="#dbecfc"/>
      <rect id="Rectangle_36447" data-name="Rectangle 36447" width="17.02" height="2.431" transform="translate(19.645 14.005)" fill="#dbecfc"/>
      <rect id="Rectangle_36448" data-name="Rectangle 36448" width="17.02" height="2.431" transform="translate(19.645 18.965)" fill="#dbecfc"/>
    </g>
    <g id="Group_109296" data-name="Group 109296" transform="translate(198.433 217.29)">
      <g id="Group_109287" data-name="Group 109287" transform="translate(0 23.703)">
        <path id="Path_167698" data-name="Path 167698" d="M225.4,310.964a1.086,1.086,0,0,1,.293.457.717.717,0,0,1-.44.763,1.636,1.636,0,0,1-.937.065,4.9,4.9,0,0,1-2.278-1.012,2.468,2.468,0,0,1-.568-.608,3.291,3.291,0,0,1-.36-1.482.409.409,0,0,1,.049-.293.388.388,0,0,1,.18-.107c.668-.243,1.571-.526,2.09.052C224.076,309.525,224.739,310.242,225.4,310.964Z" transform="translate(-209.565 -286.985)" fill="#ecbf4c"/>
        <path id="Path_167699" data-name="Path 167699" d="M206.971,310.6a1.091,1.091,0,0,1-.052.54.718.718,0,0,1-.816.329,1.641,1.641,0,0,1-.778-.528,4.9,4.9,0,0,1-1.168-2.2,2.464,2.464,0,0,1-.072-.829,3.291,3.291,0,0,1,.631-1.389.408.408,0,0,1,.22-.2.389.389,0,0,1,.207.026c.675.222,1.56.556,1.612,1.331C206.821,308.649,206.9,309.622,206.971,310.6Z" transform="translate(-204.074 -286.292)" fill="#ecbf4c"/>
        <path id="Path_167700" data-name="Path 167700" d="M206.589,292.783q.506-1.155.985-2.322l.236-.583c.077-.191.151-.38.219-.562.138-.367.255-.716.342-1.047a5.331,5.331,0,0,0,.167-.934,6.8,6.8,0,0,0-.006-.973c-.024-.36-.067-.759-.11-1.191l-.13-1.276-.521-6.954,9.271-.177q.092,2.748.277,5.5c.12,1.837.266,3.68.415,5.53s.3,3.707.447,5.565.277,3.72.4,5.581l-3.007.3q-.378-2.753-.789-5.5c-.273-1.833-.557-3.666-.838-5.505s-.56-3.688-.816-5.548l-.035-.258a1.473,1.473,0,0,0-.366-.087c-.073,0-.147-.005-.221,0l.03,1.29.03,1.283c.009.421.024.876.018,1.371a10.517,10.517,0,0,1-.129,1.587,9.274,9.274,0,0,1-.41,1.562c-.171.484-.365.932-.561,1.352-.1.211-.2.413-.3.612l-.293.585q-.588,1.166-1.2,2.316-1.233,2.3-2.573,4.534l-2.679-1.472Q205.574,295.1,206.589,292.783Z" transform="translate(-204.194 -276.763)" fill="#0c5071"/>
      </g>
      <g id="Group_109293" data-name="Group 109293" transform="translate(2.844 7.56)">
        <g id="Group_109289" data-name="Group 109289" transform="translate(8.182 6.687)">
          <path id="Path_167701" data-name="Path 167701" d="M226.553,278.128a.478.478,0,0,0,.072.162.173.173,0,0,0,.154.072c.071-.011.118-.077.157-.137l.194-.3a2.912,2.912,0,0,1,.244.843c.016.119.037.26.145.314a.31.31,0,0,0,.213.005,1.329,1.329,0,0,0,.775-.534.779.779,0,0,0,.123-.26.839.839,0,0,0-.009-.358,3.477,3.477,0,0,0-.425-.982,6.5,6.5,0,0,0-.554-.877.187.187,0,0,0-.058-.055A.184.184,0,0,0,227.5,276a1.684,1.684,0,0,0-1.122.4.516.516,0,0,0-.211.337c-.015.223.185.4.218.618A5.636,5.636,0,0,0,226.553,278.128Z" transform="translate(-222.226 -267.062)" fill="#f0c9a1"/>
          <g id="Group_109288" data-name="Group 109288">
            <path id="Path_167702" data-name="Path 167702" d="M222.392,262.806l-.014.014a3.206,3.206,0,0,1-2.029.843,49.817,49.817,0,0,0,3.961,9.558l1.936-1.049A47.648,47.648,0,0,1,222.392,262.806Z" transform="translate(-220.349 -262.806)" fill="#dd6e5c"/>
          </g>
        </g>
        <g id="Group_109290" data-name="Group 109290" transform="translate(0 1.663)">
          <path id="Path_167703" data-name="Path 167703" d="M218.8,271.469a.587.587,0,0,1-.446.2q-.484.064-.969.116-1.175.127-2.356.186a40.941,40.941,0,0,1-5.462-.095c-.661-.056-1.036.054-1.249-.536-.2-.541.314-5.242.4-6.743a19.884,19.884,0,0,1,.684-4.793,6.671,6.671,0,0,1,2.8-3.828,4.494,4.494,0,0,1,.472-.242,3.8,3.8,0,0,1,2.014-.319,3.584,3.584,0,0,1,1.8.818,5.206,5.206,0,0,1,1.482,2.073,13.048,13.048,0,0,1,.655,4.516q.112,4.159.222,8.317A.588.588,0,0,1,218.8,271.469Z" transform="translate(-208.272 -255.39)" fill="#fff"/>
          <path id="Path_167704" data-name="Path 167704" d="M215.027,272.139a40.946,40.946,0,0,1-5.462-.095c-.661-.056-1.036.054-1.249-.536-.2-.541.314-5.242.4-6.743a19.884,19.884,0,0,1,.684-4.793,6.671,6.671,0,0,1,2.8-3.828,4.494,4.494,0,0,1,.472-.242,4.5,4.5,0,0,1,.96,1.4,16.191,16.191,0,0,1,1.375,6.841Q215.174,268.137,215.027,272.139Z" transform="translate(-208.272 -255.556)" fill="#dd6e5c"/>
          <path id="Path_167705" data-name="Path 167705" d="M222.713,271.872a.587.587,0,0,1-.446.2q-.484.064-.969.116.154-5.229-.124-10.459a20.692,20.692,0,0,0-.689-4.858c-.024-.08-.049-.158-.076-.234a5.206,5.206,0,0,1,1.482,2.072,13.049,13.049,0,0,1,.655,4.516q.112,4.159.222,8.317A.588.588,0,0,1,222.713,271.872Z" transform="translate(-212.186 -255.793)" fill="#dd6e5c"/>
        </g>
        <g id="Group_109292" data-name="Group 109292" transform="translate(2.389)">
          <path id="Path_167706" data-name="Path 167706" d="M227.166,254.435a.312.312,0,0,1,.38.082.906.906,0,0,1,.174.381q.093-.65.188-1.3a1.075,1.075,0,0,1,.209-.589c.049-.054.129-.1.19-.059a.174.174,0,0,1,.06.11,2.626,2.626,0,0,1,.077.678.83.83,0,0,0,.014.236c.086.32.519.373.766.594a.859.859,0,0,1,.243.7,2.522,2.522,0,0,1-.207.739l-.32.814a.5.5,0,0,1-.135.222.458.458,0,0,1-.231.077,2.5,2.5,0,0,1-.776-.026c-.292-.056-.615-.209-.675-.5s.114-.648.1-.967C227.209,255.464,227.019,254.529,227.166,254.435Z" transform="translate(-216.736 -252.936)" fill="#f0c9a1"/>
          <g id="Group_109291" data-name="Group 109291" transform="translate(0 3.099)">
            <path id="Path_167707" data-name="Path 167707" d="M224.392,257.985a32.321,32.321,0,0,1-2.637,6.9c-.365.731-1.188,2.382-2.82,2.6a2.7,2.7,0,0,1-.336.024,3.646,3.646,0,0,1-2.655-1.493,31.041,31.041,0,0,1-4.01-5.843,1.179,1.179,0,0,1,.537-1.611,1.164,1.164,0,0,1,.508-.116,1.188,1.188,0,0,1,1.049.634,28.639,28.639,0,0,0,3.7,5.384c.519.6.754.684.848.683.273,0,.633-.446,1.067-1.317a30.246,30.246,0,0,0,2.436-6.326,5.883,5.883,0,0,1,2.228.438Z" transform="translate(-211.799 -257.509)" fill="#dd6e5c"/>
          </g>
        </g>
      </g>
      <g id="Group_109295" data-name="Group 109295" transform="translate(4.353)">
        <path id="Path_167708" data-name="Path 167708" d="M210.531,248.428a2.943,2.943,0,0,0,.082,1.247,4.47,4.47,0,0,0,1.509,2.351,4.425,4.425,0,0,0,2.871.8.89.89,0,0,0,.776-.283.952.952,0,0,0-.034-.82,14.016,14.016,0,0,0-2.211-3.913c-.461-.575-1.139-1.207-1.922-.918A1.816,1.816,0,0,0,210.531,248.428Z" transform="translate(-210.499 -243.405)" fill="#0c5071"/>
        <path id="Path_167709" data-name="Path 167709" d="M215.965,251.543l0,3.089a1.1,1.1,0,1,0,2.2,0l0-3.089Z" transform="translate(-212.262 -244.926)" fill="#f0c9a1"/>
        <path id="Path_167710" data-name="Path 167710" d="M215.966,252.564l0,2.272c.472-.085,1.082-.2,1.172-.224a5.51,5.51,0,0,0,1.029-.419,4.507,4.507,0,0,0,.585-.375c.692-.527-.019-.808-.586-1.036h0a5.1,5.1,0,0,0-1.883-.367.459.459,0,0,0-.185.026A.3.3,0,0,0,215.966,252.564Z" transform="translate(-212.262 -245.208)" fill="#e9b588"/>
        <path id="Path_167711" data-name="Path 167711" d="M219.22,247.221c.806,1.81.5,3.7-1.005,4.374s-3.378-.253-4.184-2.062-.239-3.819,1.266-4.489S218.415,245.412,219.22,247.221Z" transform="translate(-211.52 -242.765)" fill="#f0c9a1"/>
        <path id="Path_167712" data-name="Path 167712" d="M214.66,251.538a.873.873,0,1,1-1.324-.328A.976.976,0,0,1,214.66,251.538Z" transform="translate(-211.321 -244.772)" fill="#f0c9a1"/>
        <path id="Path_167713" data-name="Path 167713" d="M215.658,246.23a5.873,5.873,0,0,0,1.882-.992,2.515,2.515,0,0,0,.942-1.847,1.62,1.62,0,0,0-1.182-1.585,2.218,2.218,0,0,0-1.517.367,6.268,6.268,0,0,0-.963.684,1.318,1.318,0,0,1-.3.213,1.39,1.39,0,0,1-.392.085,3.838,3.838,0,0,0-2.617,1.617,2.2,2.2,0,0,0-.409,1.027c-.1,1.142.919,1.088,1.772,1.047A9.689,9.689,0,0,0,215.658,246.23Z" transform="translate(-210.693 -241.778)" fill="#0c5071"/>
        <path id="Path_167714" data-name="Path 167714" d="M213.591,248.128c.04.239.029.483.053.724a2.571,2.571,0,0,0,.578,1.388.988.988,0,0,1-.434.32l-.452-.317a5.57,5.57,0,0,1-1.2-1.027,1.883,1.883,0,0,1-.445-1.472.98.98,0,0,1,.253-.52.615.615,0,0,1,.534-.182A1.466,1.466,0,0,1,213.591,248.128Z" transform="translate(-210.875 -243.472)" fill="#0c5071"/>
        <g id="Group_109294" data-name="Group 109294" transform="translate(2.401 3.972)">
          <path id="Path_167715" data-name="Path 167715" d="M219.572,247.721a.934.934,0,0,0-.539,1.014l-.468.209a.93.93,0,1,0,.119.2.223.223,0,0,0-.012-.022l.417-.186.009.024a.934.934,0,1,0,.473-1.233Zm-1.443,2.467a.732.732,0,1,1,.371-.967A.733.733,0,0,1,218.129,250.188Zm2.121-.945a.732.732,0,1,1,.371-.967A.733.733,0,0,1,220.25,249.243Z" transform="translate(-214.963 -247.64)" fill="#fff"/>
          <rect id="Rectangle_36449" data-name="Rectangle 36449" width="2.059" height="0.213" transform="translate(0 2.337) rotate(-11.786)" fill="#fff"/>
        </g>
      </g>
    </g>
    <g id="Group_109309" data-name="Group 109309" transform="translate(240.511 210.555)">
      <g id="Group_109297" data-name="Group 109297" transform="translate(17.833 17.419)">
        <path id="Path_167716" data-name="Path 167716" d="M304.189,257.547a15.99,15.99,0,0,1-6.2,5.416A16.359,16.359,0,0,1,292.5,264.6a20.094,20.094,0,0,0,.534,2.31c.033.064.068.126.1.188a18.911,18.911,0,0,0,13.178-8.136Z" transform="translate(-292.503 -257.547)" fill="#dbecfc"/>
      </g>
      <g id="Group_109301" data-name="Group 109301">
        <g id="Group_109298" data-name="Group 109298" transform="translate(10.216 7.634)">
          <rect id="Rectangle_36450" data-name="Rectangle 36450" width="3.522" height="15.885" transform="translate(9.792 22.314) rotate(162.283)" fill="#5e88a5"/>
          <path id="Path_167717" data-name="Path 167717" d="M288.32,269.411l3.113-.995a.5.5,0,0,1,.624.322l3.544,11.094a2.13,2.13,0,0,1-1.381,2.677h0a2.131,2.131,0,0,1-2.678-1.381L288,270.035A.5.5,0,0,1,288.32,269.411Z" transform="translate(-283.426 -251.26)" fill="#4e7192"/>
          <path id="Path_167718" data-name="Path 167718" d="M281.261,248.372l.337-4.931,1.054-.337,3.134,3.822L285.437,250l-2.112.675Z" transform="translate(-281.261 -243.104)" fill="#ecbf4c"/>
          <path id="Path_167719" data-name="Path 167719" d="M283.136,252.724l2.823-.9a.771.771,0,0,1,.969.5h0a.771.771,0,0,1-.5.969l-2.822.9a.771.771,0,0,1-.969-.5h0A.77.77,0,0,1,283.136,252.724Z" transform="translate(-281.692 -245.904)" fill="#86c8f1"/>
          <path id="Path_167720" data-name="Path 167720" d="M283.5,248.822a.57.57,0,1,1,.711.354A.562.562,0,0,1,283.5,248.822Z" transform="translate(-281.974 -244.714)" fill="#fff"/>
          <path id="Path_167721" data-name="Path 167721" d="M283.459,247.107l-1.189-3.724.361-.115,1.19,3.723a.188.188,0,0,1-.125.234.192.192,0,0,1-.144-.012A.181.181,0,0,1,283.459,247.107Z" transform="translate(-281.586 -243.157)" fill="#fff"/>
          <path id="Path_167722" data-name="Path 167722" d="M287.773,269.2l3.747-1.2a.477.477,0,0,1,.6.308h0a.477.477,0,0,1-.308.6l-3.747,1.2a.478.478,0,0,1-.6-.309h0A.476.476,0,0,1,287.773,269.2Z" transform="translate(-283.254 -251.126)" fill="#ecbf4c"/>
          <path id="Path_167723" data-name="Path 167723" d="M291.481,272.089h0a.731.731,0,0,1,.917.473l3.456,10.817a.732.732,0,0,1-.473.917h0a.732.732,0,0,1-.917-.473l-3.455-10.816A.732.732,0,0,1,291.481,272.089Z" transform="translate(-284.393 -252.441)" fill="#ecbf4c"/>
        </g>
        <g id="Group_109300" data-name="Group 109300">
          <g id="Group_109299" data-name="Group 109299" transform="translate(0.516 0.596)">
            <path id="Path_167724" data-name="Path 167724" d="M267.236,244.494l-.293-.154c1.051-2,3.152-3.486,6.247-4.407.975-.291,1.984-.516,2.959-.735a28.427,28.427,0,0,0,4.477-1.264c2.726-1.106,4.609-3.056,5.036-5.217l.325.064c-.448,2.271-2.406,4.312-5.236,5.46a28.646,28.646,0,0,1-4.529,1.28c-.97.217-1.974.442-2.938.729C270.278,241.145,268.244,242.572,267.236,244.494Z" transform="translate(-266.943 -232.716)" fill="#ecbf4c"/>
          </g>
          <path id="Path_167725" data-name="Path 167725" d="M282.406,241.6a.662.662,0,1,1-.756-.552A.662.662,0,0,1,282.406,241.6Z" transform="translate(-270.989 -234.803)" fill="#ecbf4c"/>
          <path id="Path_167726" data-name="Path 167726" d="M267.5,249.569a.662.662,0,1,1-.756-.552A.662.662,0,0,1,267.5,249.569Z" transform="translate(-266.181 -237.374)" fill="#ecbf4c"/>
          <path id="Path_167727" data-name="Path 167727" d="M295.107,232.4a.662.662,0,1,1-.757-.552A.663.663,0,0,1,295.107,232.4Z" transform="translate(-275.085 -231.836)" fill="#ecbf4c"/>
        </g>
      </g>
      <g id="Group_109308" data-name="Group 109308" transform="translate(15.936 11.597)">
        <path id="Path_167728" data-name="Path 167728" d="M306.292,248.968a4.168,4.168,0,0,1,3.582,2.79,16.551,16.551,0,0,1,.386,2.308,3.06,3.06,0,0,0,1.02,2.009c.419.3.942.4,1.376.677a2.33,2.33,0,0,1,.491,3.222,4.992,4.992,0,0,0-.457.559,9.432,9.432,0,0,0-.39,1.247,2.088,2.088,0,0,1-.785.909,3.678,3.678,0,0,1-4.713-.949,7.323,7.323,0,0,1-1.409-5.213c.094-1.344.369-2.885-.477-3.883a3.646,3.646,0,0,0-2.19-1c-1.517-.3-.48-1.234.252-1.723A5.246,5.246,0,0,1,306.292,248.968Z" transform="translate(-293.651 -248.954)" fill="#0c5071"/>
        <g id="Group_109306" data-name="Group 109306" transform="translate(0 8.648)">
          <g id="Group_109302" data-name="Group 109302" transform="translate(4.169 11.372)">
            <path id="Path_167729" data-name="Path 167729" d="M296.162,312.7a1.084,1.084,0,0,0-.293.457.717.717,0,0,0,.44.762,1.628,1.628,0,0,0,.938.065,4.891,4.891,0,0,0,2.279-1.012,2.455,2.455,0,0,0,.568-.607,3.294,3.294,0,0,0,.36-1.482.41.41,0,0,0-.05-.293.392.392,0,0,0-.179-.107c-.668-.243-1.571-.526-2.091.052C297.481,311.265,296.819,311.982,296.162,312.7Z" transform="translate(-295.856 -288.725)" fill="#e08675"/>
            <path id="Path_167730" data-name="Path 167730" d="M315.394,312.336a1.092,1.092,0,0,0,.051.54.719.719,0,0,0,.817.329,1.636,1.636,0,0,0,.778-.528,4.9,4.9,0,0,0,1.168-2.2,2.463,2.463,0,0,0,.072-.829,3.291,3.291,0,0,0-.631-1.389.411.411,0,0,0-.22-.2.4.4,0,0,0-.207.026c-.675.222-1.561.556-1.613,1.331C315.544,310.389,315.466,311.362,315.394,312.336Z" transform="translate(-302.154 -288.032)" fill="#e08675"/>
            <path id="Path_167731" data-name="Path 167731" d="M310.431,294.523q-.506-1.157-.985-2.323l-.236-.582c-.077-.192-.151-.38-.22-.563-.137-.366-.254-.716-.341-1.047a5.332,5.332,0,0,1-.167-.934,6.705,6.705,0,0,1,.006-.973c.024-.36.066-.759.11-1.19l.13-1.277.521-6.953-9.272-.178q-.091,2.748-.276,5.5c-.121,1.837-.266,3.68-.416,5.53s-.3,3.707-.446,5.566-.277,3.719-.4,5.581l3.007.3q.379-2.752.789-5.5c.273-1.833.556-3.666.838-5.506s.56-3.688.816-5.547c.012-.086.022-.173.035-.259a1.47,1.47,0,0,1,.365-.087c.074,0,.148-.005.222,0l-.03,1.291-.031,1.283c-.009.421-.024.875-.018,1.371a10.333,10.333,0,0,0,.129,1.586,9.271,9.271,0,0,0,.41,1.562c.17.484.365.932.561,1.353.1.211.2.413.295.612l.293.585q.587,1.167,1.2,2.316,1.232,2.3,2.573,4.535l2.679-1.472Q311.446,296.835,310.431,294.523Z" transform="translate(-296.688 -278.503)" fill="#ecbf4c"/>
          </g>
          <g id="Group_109305" data-name="Group 109305">
            <path id="Path_167732" data-name="Path 167732" d="M310.227,275.652a.5.5,0,0,1-.344.506,20.382,20.382,0,0,1-7.621.973,20.763,20.763,0,0,1-2.422-.291h-.005a.492.492,0,0,1-.378-.623c.014-.049.028-.1.042-.145.339-1.2.459-2.419.7-3.641q.507-2.565.82-5.163c.146-1.206-.085-3.294.914-4.194a4.658,4.658,0,0,1,4.585-1.12,2.766,2.766,0,0,1,.457.234c1.365.862,1.873,2.782,2.176,4.273A78.662,78.662,0,0,1,310.227,275.652Z" transform="translate(-292.842 -261.718)" fill="#5e88a5"/>
            <g id="Group_109304" data-name="Group 109304" transform="translate(0 2.124)">
              <path id="Path_167733" data-name="Path 167733" d="M290.694,279.055a1.028,1.028,0,0,1-.819-.32.915.915,0,0,1-.138-.332.712.712,0,0,1,.044-.553.8.8,0,0,1,.558-.273,7.084,7.084,0,0,1,.812-.091.938.938,0,0,1-.371-.323c-.042-.064-.075-.151-.029-.212a.213.213,0,0,1,.181-.054l1.671.049a.384.384,0,0,1,.205.045.351.351,0,0,1,.1.121,1.926,1.926,0,0,1,.257.95c0,.372-.134.43-.461.583A4.37,4.37,0,0,1,290.694,279.055Z" transform="translate(-289.703 -268.738)" fill="#f0c9a1"/>
              <g id="Group_109303" data-name="Group 109303" transform="translate(2.181)">
                <path id="Path_167734" data-name="Path 167734" d="M305.3,266.134a1.274,1.274,0,0,1-.185.661,19,19,0,0,1-11.5,8.453,5.229,5.229,0,0,1-.377-.886,8.867,8.867,0,0,1-.313-1.543,17.327,17.327,0,0,0,5.067-2.267,16.167,16.167,0,0,0,4.939-5.081,1.279,1.279,0,0,1,2.373.663Z" transform="translate(-292.922 -264.854)" fill="#dbecfc"/>
              </g>
            </g>
          </g>
        </g>
        <g id="Group_109307" data-name="Group 109307" transform="translate(7.026 0.188)">
          <path id="Path_167735" data-name="Path 167735" d="M310.913,251.718a2.25,2.25,0,0,1,.338,1.085,5.362,5.362,0,0,1-.456,2.88,3.828,3.828,0,0,1-2.115,1.953.569.569,0,0,1-.6-.045.6.6,0,0,1-.123-.343,16.343,16.343,0,0,1,.048-4.6,2.839,2.839,0,0,1,.386-1.19C309.011,250.554,310.361,250.939,310.913,251.718Z" transform="translate(-302.572 -249.78)" fill="#0c5071"/>
          <path id="Path_167736" data-name="Path 167736" d="M307.88,258v3.089a1.1,1.1,0,1,1-2.2,0V258Z" transform="translate(-301.881 -252.059)" fill="#f0c9a1"/>
          <path id="Path_167737" data-name="Path 167737" d="M307.465,259.02v2.272c-.472-.085-1.082-.2-1.173-.222a5.5,5.5,0,0,1-1.028-.419,4.429,4.429,0,0,1-.585-.375c-.692-.527.018-.809.585-1.037h0a5.077,5.077,0,0,1,1.882-.369.448.448,0,0,1,.185.026A.293.293,0,0,1,307.465,259.02Z" transform="translate(-301.466 -252.34)" fill="#e9b588"/>
          <path id="Path_167738" data-name="Path 167738" d="M301.9,254.562c0,1.981,1.051,3.587,2.7,3.587s2.982-1.606,2.982-3.587-1.335-3.586-2.982-3.586S301.9,252.582,301.9,254.562Z" transform="translate(-300.664 -249.794)" fill="#f0c9a1"/>
          <path id="Path_167739" data-name="Path 167739" d="M309.155,256.355a.873.873,0,1,0,1.077-.838A.977.977,0,0,0,309.155,256.355Z" transform="translate(-302.99 -251.252)" fill="#f0c9a1"/>
          <path id="Path_167740" data-name="Path 167740" d="M308.876,254.828a1.281,1.281,0,0,0,.027.514.353.353,0,0,0,.4.247.476.476,0,0,0,.231-.215,4.3,4.3,0,0,0,.7-2.529.837.837,0,0,0-.216-.612.823.823,0,0,0-.267-.139,1.042,1.042,0,0,0-.557-.078.854.854,0,0,0-.588.647C308.394,253.434,308.919,254.041,308.876,254.828Z" transform="translate(-302.808 -250.125)" fill="#0c5071"/>
          <path id="Path_167741" data-name="Path 167741" d="M301.419,250.187a2.847,2.847,0,0,0-1.344,2.156,1.027,1.027,0,0,0,.292.832,1.006,1.006,0,0,0,.461.2,4.038,4.038,0,0,0,2.654-.771c-.029.366.423.56.787.6a5.5,5.5,0,0,0,2.716-.364,1.779,1.779,0,0,0,1.083-.932,1.737,1.737,0,0,0-.833-1.822A5.144,5.144,0,0,0,301.419,250.187Z" transform="translate(-300.073 -249.231)" fill="#0c5071"/>
        </g>
      </g>
    </g>
  </g>
</svg>
