<svg xmlns="http://www.w3.org/2000/svg" width="373.896" height="464.338" viewBox="0 0 373.896 464.338">
  <g id="Group_98047" data-name="Group 98047" transform="translate(-844.727 -348.526)">
    <g id="Group_28021" data-name="Group 28021" transform="translate(856.861 393.107)">
      <g id="Group_27967" data-name="Group 27967" transform="translate(195.008 0)">
        <path id="Path_4032" data-name="Path 4032" d="M1896.2,923.127c-5.447-12.706-15.256-22.523-17.784-37.262-4.45-25.921,21.92-50.6,20.784-83.376a57.94,57.94,0,0,0-17.786-39.962c10.238,7.074,15.976,15.4,20.791,28.182,7.966,21.151-2.879,43.959-2.989,44.186a.848.848,0,0,0,.393,1.133.839.839,0,0,0,.37.085.848.848,0,0,0,.763-.478c.113-.234,11.277-23.679,3.05-45.524-6.472-17.183-14.537-26.508-32.39-35.342a64.422,64.422,0,0,0-37.7-9.175c-17.3.966-25.964,9.282-30.177,16.063-.568.915-1.051,1.8-1.475,2.636a26.365,26.365,0,0,0-2.288,6.3l10.824,220.06s36.39,12.885,48.122,9.341c15.276-1.757,40.452-28.75,41.251-57.224a62.2,62.2,0,0,1-2.285,29.338,1.271,1.271,0,1,0,2.412.8,64.856,64.856,0,0,0-.156-40.852A66.691,66.691,0,0,0,1896.2,923.127Z" transform="translate(-1799.763 -745.482)" fill="#1d3c80"/>
      </g>
      <g id="Group_27968" data-name="Group 27968" transform="translate(164.184 191.214)">
        <path id="Path_4033" data-name="Path 4033" d="M1746.667,1445.771h-58.95l-.841,20.312h58.969Z" transform="translate(-1686.877 -1445.771)" fill="#d6dae6"/>
      </g>
      <g id="Group_27969" data-name="Group 27969" transform="translate(63.434 201.303)">
        <path id="Path_4034" data-name="Path 4034" d="M1587.406,1649.465l-.109-.269L1533.1,1514.1a25.691,25.691,0,0,0-13.263-13.838,234.618,234.618,0,0,0-23.857-9.337l-13.343-5.555c-.3.49-.608.979-.914,1.469-10.35-2.564-21.113-4.29-30.879-4.106-6.521.122,5.212,11.351,17.986,23.3-6,7.382-12.81,12.839-18.567,20.9-6.6-8.49-11.472-16.541-16.859-24.3,11.183-8.248,20.321-15.511,14.757-17.378-3.922-1.316-14.341.008-26.576,2.546-1.033-1.094-2.1-2.184-3.229-3.269l-43.4,15.89a25.668,25.668,0,0,0-15.746,16.683L1319,1650.3l-.124.355a19.414,19.414,0,0,0-.979,6c-.059,10.761,9.024,19.564,19.784,19.564l73.195,7.206c10.644,0,19.561-15.619,19.777-26.261a19.371,19.371,0,0,0-2.076-9.151l53.389-1.205a19.362,19.362,0,0,0-2.739,10.151c.106,10.716,43.892,26.467,54.608,26.467,0,0,40.466-7.667,42.837-8.627A19.454,19.454,0,0,0,1587.406,1649.465Zm-220.658-12.159h-1.48l1.372-3.72Zm167.086-13.024,5.729,13.024h-5.243Z" transform="translate(-1317.895 -1482.722)" fill="#ff6f61"/>
      </g>
      <g id="Group_27971" data-name="Group 27971" transform="translate(218.817 17.729)">
        <g id="Group_27970" data-name="Group 27970">
          <path id="Path_4035" data-name="Path 4035" d="M1911.553,824.1c-1.568,5-8.271,7.343-14.971,5.24s-10.86-7.859-9.291-12.856,5.985-7.476,14.971-5.24C1913.5,814.036,1913.121,819.1,1911.553,824.1Z" transform="translate(-1886.96 -810.412)" fill="#ff6f61"/>
        </g>
      </g>
      <g id="Group_27976" data-name="Group 27976" transform="translate(137.121 47.353)">
        <g id="Group_27972" data-name="Group 27972" transform="translate(26.772 135.622)">
          <path id="Path_4036" data-name="Path 4036" d="M1737.592,1431.373a86.109,86.109,0,0,1-2.19-15.775,41.269,41.269,0,0,1-19.893,6.357,32.773,32.773,0,0,1-15.956-3.714,58.135,58.135,0,0,1-1.823,13.132h0l-11.921,4.366c13.77,13.281,20.031,27.131,31.907,42.4,7.206-10.089,16.065-16.1,22.911-26.906,3.236-4.978,6.466-9.786,9.464-14.657Z" transform="translate(-1685.808 -1415.598)" fill="#ffc3ad"/>
        </g>
        <g id="Group_27973" data-name="Group 27973">
          <path id="Path_4037" data-name="Path 4037" d="M1651.3,926.249c34.437-.851,43.343,9.541,46.363,29.177,1,6.463,1.354,13.932,1.775,22.328.021.41.036.818.052,1.225.1-2.772.094-5.613-.052-8.521-.42-8.4-.779-15.865-1.775-22.328-3.02-19.636-11.926-30.028-46.363-29.177-43.975,1.086-64.9,7.886-63.47,48C1589.17,933.289,1610.136,927.266,1651.3,926.249Z" transform="translate(-1587.76 -918.905)" fill="#ffc3ad"/>
        </g>
        <g id="Group_27974" data-name="Group 27974" transform="translate(40.245 128.261)">
          <path id="Path_4038" data-name="Path 4038" d="M1771.379,1388.64a41.311,41.311,0,0,1-20,6.422,32.963,32.963,0,0,1-16.227-3.849,59.29,59.29,0,0,1,.271,7.431,32.77,32.77,0,0,0,15.956,3.714,41.265,41.265,0,0,0,19.894-6.357A63.5,63.5,0,0,1,1771.379,1388.64Z" transform="translate(-1735.153 -1388.64)" fill="#f0a68c"/>
        </g>
        <g id="Group_27975" data-name="Group 27975" transform="translate(0.069 7.296)">
          <path id="Path_4039" data-name="Path 4039" d="M1699.62,997.18c-.421-8.4-.779-15.866-1.775-22.329-3.019-19.636-11.925-30.028-46.363-29.177-41.162,1.017-62.129,7.04-63.47,40.707.059,1.64.151,3.33.284,5.084a171.894,171.894,0,0,0,2.971,21.287.012.012,0,0,1,0,.01c3.56,17.368,9.506,32.148,16.038,39.607a75.64,75.64,0,0,0,17.71,15.069q1.56.921,3.171,1.725a32.961,32.961,0,0,0,16.227,3.849,41.305,41.305,0,0,0,20-6.422q1.689-1.044,3.283-2.2a82.446,82.446,0,0,0,9.141-7.8c7.414-7.191,21.725-28.649,22.831-58.184C1699.656,998,1699.64,997.589,1699.62,997.18Z" transform="translate(-1588.012 -945.625)" fill="#ffc3ad"/>
        </g>
      </g>
      <g id="Group_27978" data-name="Group 27978" transform="translate(138.715 38.927)">
        <g id="Group_27977" data-name="Group 27977">
          <path id="Path_4040" data-name="Path 4040" d="M1718.043,923.656c-1.382,13.452-8.485,33.822-16.436,49.791l-.1.008c-2.348-26.591-10.592-29.088-15.766-34.553-6.782-7.163-8.918-22.6-8.918-22.6s-8.286,11.578-21,15.54c-12.052,3.756-30.442.272-46.9,7.067-10.942,4.518-12.91,34.542-12.91,34.542l-2.416-55.453,86.223-29.948Z" transform="translate(-1593.599 -888.046)" fill="#f0a68c"/>
        </g>
      </g>
      <g id="Group_27980" data-name="Group 27980" transform="translate(234.872 121.922)">
        <g id="Group_27979" data-name="Group 27979" transform="translate(0 0)">
          <ellipse id="Ellipse_258" data-name="Ellipse 258" cx="10.808" cy="7.104" rx="10.808" ry="7.104" transform="matrix(0.339, -0.941, 0.941, 0.339, 0, 20.336)" fill="#ffc3ad"/>
        </g>
      </g>
      <g id="Group_27982" data-name="Group 27982" transform="translate(132.752 121.922)">
        <g id="Group_27981" data-name="Group 27981" transform="translate(0 0)">
          <ellipse id="Ellipse_259" data-name="Ellipse 259" cx="7.104" cy="10.808" rx="7.104" ry="10.808" transform="translate(0 4.816) rotate(-19.812)" fill="#ffc3ad"/>
        </g>
      </g>
      <g id="Group_27984" data-name="Group 27984" transform="translate(159.06 111.787)">
        <g id="Group_27983" data-name="Group 27983">
          <ellipse id="Ellipse_260" data-name="Ellipse 260" cx="4.83" cy="7.012" rx="4.83" ry="7.012" fill="#1e1f35"/>
        </g>
      </g>
      <g id="Group_27986" data-name="Group 27986" transform="translate(219.369 111.787)">
        <g id="Group_27985" data-name="Group 27985">
          <ellipse id="Ellipse_261" data-name="Ellipse 261" cx="4.831" cy="7.012" rx="4.831" ry="7.012" fill="#1e1f35"/>
        </g>
      </g>
      <g id="Group_27987" data-name="Group 27987" transform="translate(134.732 18.806)">
        <path id="Path_4041" data-name="Path 4041" d="M1707.473,862.306c-1.5-10.74-7.545-40.221-35.178-39.907a9.867,9.867,0,0,0-2.094.424h-.008c-.051-.042-.475-.381-1.263-.907-3.907-2.594-16.6-9.689-35.186-6.934-22.887,3.391-53.2,13.859-54.64,59.616-.992,31.473,6.307,45.282,6.307,45.282s-3.942-27.9,10.189-36.237c10.331-6.092,24.862-5.654,42.942-8.476,14.163-2.211,23.955-13.215,27.675-18.911v-.009c.577-.873,1-1.585,1.289-2.077.076.491.2,1.17.356,2.009,1.272,6.781,5.578,21.141,14.266,29.16,11.019,10.172,10.647,22.183,8.875,34.542,7.951-15.97,15.055-36.339,16.437-49.791A32.744,32.744,0,0,0,1707.473,862.306Z" transform="translate(-1579.011 -814.357)" fill="#1d3c80"/>
      </g>
      <g id="Group_27989" data-name="Group 27989" transform="translate(180.562 147.3)">
        <g id="Group_27988" data-name="Group 27988">
          <path id="Path_4042" data-name="Path 4042" d="M1751.345,1286.848l.069.058c.033.015.082.023.135.045l.264.158c.112.063.239.138.37.223s.3.174.458.272.353.195.539.3c.2.095.4.207.609.315.225.091.437.207.667.309.244.083.468.2.715.289.259.07.493.185.754.257.27.055.513.163.786.218.135.027.273.05.407.084a2.452,2.452,0,0,0,.407.089l.422.06a2.945,2.945,0,0,0,.422.069c.294.018.581.052.878.079.307,0,.611.013.915.033.316-.011.637-.031.956-.028h.217l-.206.016.021,0,.339-.032.676-.059.169-.013a.7.7,0,0,0,.082-.018c.049-.011.1-.022.147-.03.1-.015.2-.024.3-.029.263-.07.543-.1.8-.165s.523-.126.773-.214c.127-.041.258-.07.384-.116s.243-.1.371-.143c.26-.073.487-.214.738-.3a14.721,14.721,0,0,0,1.394-.743c.229-.124.439-.264.643-.4s.4-.273.593-.4c.377-.261.71-.513.994-.725s.519-.383.67-.51.249-.186.249-.186l.287-.195a2.7,2.7,0,0,1,4.2,2.5s-.013.137-.056.39a10.948,10.948,0,0,1-.241,1.09,12.56,12.56,0,0,1-.591,1.657,13.107,13.107,0,0,1-1.129,2.054c-.237.368-.526.727-.824,1.106s-.662.729-1.023,1.107a14.044,14.044,0,0,1-2.677,2,14.915,14.915,0,0,1-3.341,1.406q-.505.119-1.02.226l-.517.1-.25.044-.167.021-.675.076-.338.036-.021,0-.227.017h-.4c-.587.005-1.174.005-1.76-.019-.594-.066-1.187-.135-1.769-.222-.585-.1-1.162-.275-1.726-.419a16.008,16.008,0,0,1-1.639-.6,14.639,14.639,0,0,1-2.853-1.635c-.417-.31-.8-.64-1.162-.96s-.673-.669-.972-1-.551-.669-.789-.99-.437-.645-.619-.948-.334-.6-.469-.873-.246-.534-.339-.771a12.1,12.1,0,0,1-.383-1.154c-.054-.163-.085-.3-.106-.375-.006-.059-.01-.089-.01-.089a2.717,2.717,0,0,1,4.446-2.371Z" transform="translate(-1746.858 -1284.945)" fill="#fff"/>
        </g>
      </g>
      <g id="Group_27991" data-name="Group 27991" transform="translate(152.352 96.716)">
        <g id="Group_27990" data-name="Group 27990">
          <path id="Path_4043" data-name="Path 4043" d="M1662.265,1105.612l-.141-.058c-.1-.041-.266-.1-.478-.18-.428-.152-1.06-.361-1.838-.565a22.747,22.747,0,0,0-5.79-.781c-.524.008-1.048.025-1.556.08a13.516,13.516,0,0,0-1.476.219,12.467,12.467,0,0,0-1.338.343c-.212.057-.407.139-.6.207s-.377.144-.55.222c-.354.142-.655.313-.932.45l-.686.409-.574.4-.112.077a1.693,1.693,0,0,1-2.047-2.692l.7-.588c.232-.176.519-.386.852-.62.344-.216.726-.476,1.169-.707.219-.122.449-.246.694-.357s.493-.241.759-.343a16.386,16.386,0,0,1,1.686-.6,17.451,17.451,0,0,1,1.845-.449c.633-.126,1.278-.209,1.924-.277a27.232,27.232,0,0,1,7.027.3c.944.158,1.726.34,2.281.481.278.072.5.132.657.18l.258.08a2.546,2.546,0,1,1-1.5,4.865c-.077-.024-.153-.051-.226-.081Z" transform="translate(-1643.543 -1099.687)" fill="#1d3c80"/>
        </g>
      </g>
      <g id="Group_27993" data-name="Group 27993" transform="translate(213.154 96.716)">
        <g id="Group_27992" data-name="Group 27992">
          <path id="Path_4044" data-name="Path 4044" d="M1869.752,1105.612l.14-.058c.1-.041.266-.1.478-.18.429-.152,1.061-.361,1.838-.565a22.748,22.748,0,0,1,5.79-.781c.524.008,1.049.025,1.556.08a13.525,13.525,0,0,1,1.476.219,12.463,12.463,0,0,1,1.337.343c.213.057.408.139.6.207s.375.144.549.222c.354.142.654.313.932.45l.686.409.574.4.112.077a1.693,1.693,0,0,0,2.047-2.692l-.7-.588c-.232-.176-.519-.386-.852-.62-.343-.216-.726-.476-1.17-.707-.219-.122-.448-.246-.694-.357s-.494-.241-.76-.343a16.349,16.349,0,0,0-1.687-.6,17.4,17.4,0,0,0-1.845-.449c-.632-.126-1.278-.209-1.923-.277a27.235,27.235,0,0,0-7.027.3c-.944.158-1.726.34-2.281.481-.278.072-.5.132-.656.18l-.258.08a2.546,2.546,0,1,0,1.5,4.865c.077-.024.153-.051.226-.081Z" transform="translate(-1866.218 -1099.687)" fill="#1d3c80"/>
        </g>
      </g>
      <g id="Group_27995" data-name="Group 27995" transform="translate(221.938 26.365)">
        <g id="Group_27994" data-name="Group 27994">
          <path id="Path_4045" data-name="Path 4045" d="M1904.467,842.521l-4.434,33.779c-.162-.839-.28-1.518-.356-2.009-.289.491-.712,1.2-1.288,2.077l2.712-34.33c.788.526,1.212.865,1.263.907h.009C1903.085,842.776,1903.78,842.632,1904.467,842.521Z" transform="translate(-1898.389 -842.038)" fill="#122a61"/>
        </g>
      </g>
      <g id="Group_27997" data-name="Group 27997" transform="translate(184.942 123.378)">
        <g id="Group_27996" data-name="Group 27996">
          <path id="Path_4046" data-name="Path 4046" d="M1768.667,1213.786a6.838,6.838,0,0,1-4.119-1.121,4.333,4.333,0,0,1-1.65-3.695c.017-2.139,1.165-3.916,2.277-5.635.173-.267.345-.533.512-.8a23.994,23.994,0,0,0,1.6-4.488.958.958,0,1,1,1.852.493,25.434,25.434,0,0,1-1.832,5.012c-.172.275-.35.549-.527.824-1.007,1.557-1.958,3.028-1.97,4.61a2.479,2.479,0,0,0,.89,2.151c1.67,1.263,5.335.578,6.607.207a.958.958,0,0,1,.536,1.84A16.262,16.262,0,0,1,1768.667,1213.786Z" transform="translate(-1762.898 -1197.334)" fill="#f0a68c"/>
        </g>
      </g>
      <g id="Group_28003" data-name="Group 28003" transform="translate(85.882 247.968)">
        <g id="Group_27999" data-name="Group 27999" transform="translate(0 140.767)">
          <g id="Group_27998" data-name="Group 27998">
            <path id="Path_4047" data-name="Path 4047" d="M1622.461,2175.492H1400.105l.125-6.333h222.231Z" transform="translate(-1400.105 -2169.16)" fill="#d8ecf2"/>
          </g>
        </g>
        <g id="Group_28000" data-name="Group 28000">
          <path id="Rectangle_4730" data-name="Rectangle 4730" d="M27.865,0H194.49a27.866,27.866,0,0,1,27.866,27.866v112.9a0,0,0,0,1,0,0H0a0,0,0,0,1,0,0V27.865A27.865,27.865,0,0,1,27.865,0Z" fill="#d8e4e8"/>
        </g>
        <g id="Group_28002" data-name="Group 28002" transform="translate(97.912 26.664)">
          <g id="Group_28001" data-name="Group 28001">
            <circle id="Ellipse_262" data-name="Ellipse 262" cx="16.149" cy="16.149" r="16.149" fill="#abbade"/>
          </g>
        </g>
      </g>
      <g id="Group_28006" data-name="Group 28006" transform="translate(195.8 191.214)">
        <g id="Group_28004" data-name="Group 28004" transform="translate(0 18.39)">
          <path id="Path_4048" data-name="Path 4048" d="M1802.663,1549.033l4.305-22.939a4.105,4.105,0,0,1,1.272-2.281l5.35-4.865,7.9-5.829,10.369,5.8Z" transform="translate(-1802.663 -1513.12)" fill="#d6dae6"/>
        </g>
        <g id="Group_28005" data-name="Group 28005" transform="translate(10.928)">
          <path id="Path_4049" data-name="Path 4049" d="M1842.684,1469.989a134.008,134.008,0,0,1,25.787,30.084c.98-5.886,3.039-39.728,3.039-39.728l-11.579-14.575Z" transform="translate(-1842.684 -1445.77)" fill="#fff"/>
        </g>
      </g>
      <g id="Group_28009" data-name="Group 28009" transform="translate(155.933 191.214)">
        <g id="Group_28007" data-name="Group 28007" transform="translate(4.318 12.13)">
          <path id="Path_4050" data-name="Path 4050" d="M1707.907,1532.368l-4.306-22.939a4.107,4.107,0,0,0-1.273-2.28l-5.349-4.865-12.077-12.089-12.431,4.278Z" transform="translate(-1672.471 -1490.194)" fill="#d6dae6"/>
        </g>
        <g id="Group_28008" data-name="Group 28008">
          <path id="Path_4051" data-name="Path 4051" d="M1685.482,1469.989s-18.551,15.93-25.786,30.084c-1.2-12.371-3.04-39.728-3.04-39.728l9.092-14.575Z" transform="translate(-1656.656 -1445.77)" fill="#fff"/>
        </g>
      </g>
      <g id="Group_28010" data-name="Group 28010" transform="translate(0 395.068)">
        <rect id="Rectangle_4731" data-name="Rectangle 4731" width="361.762" height="24.69" rx="12.345" fill="#6e93e6"/>
      </g>
    </g>
    <g id="Group_28038" data-name="Group 28038" transform="translate(844.727 348.526)">
      <g id="Group_28033" data-name="Group 28033" transform="translate(0 0)">
        <path id="Path_4064" data-name="Path 4064" d="M1064.007,568.292H947.181a17.416,17.416,0,0,0-17.416,17.416V632.8a17.416,17.416,0,0,0,17.416,17.416h83.909c3.61,7.146,13.095,22.518,27.766,22.158a1.77,1.77,0,0,0,1.326-2.9,26.363,26.363,0,0,1-6.138-19.262h9.962a17.416,17.416,0,0,0,17.416-17.416V585.708A17.416,17.416,0,0,0,1064.007,568.292Z" transform="translate(-929.765 -568.292)" fill="#dfe7f4"/>
      </g>
      <g id="Group_28037" data-name="Group 28037" transform="translate(39.961 26.629)">
        <g id="Group_28034" data-name="Group 28034" transform="translate(0 1.438)">
          <circle id="Ellipse_263" data-name="Ellipse 263" cx="8.569" cy="8.569" r="8.569" transform="translate(0 3.991) rotate(-13.467)" fill="#83a1e6"/>
        </g>
        <g id="Group_28035" data-name="Group 28035" transform="translate(22.757 0)">
          <circle id="Ellipse_264" data-name="Ellipse 264" cx="8.569" cy="8.569" r="8.569" transform="matrix(0.856, -0.517, 0.517, 0.856, 0, 8.868)" fill="#1d3c80"/>
        </g>
        <g id="Group_28036" data-name="Group 28036" transform="translate(47.973 1.02)">
          <circle id="Ellipse_265" data-name="Ellipse 265" cx="8.569" cy="8.569" r="8.569" transform="matrix(0.3, -0.954, 0.954, 0.3, 0, 16.347)" fill="#83a1e6"/>
        </g>
      </g>
    </g>
  </g>
</svg>
