<svg xmlns="http://www.w3.org/2000/svg" width="100.003" height="100" viewBox="0 0 100.003 100">
  <g id="Group_90049" data-name="Group 90049" transform="translate(-483.162 118.057)">
    <path id="Path_143662" data-name="Path 143662" d="M505.212-86.421h9.9q.586-3.051,1.172-6.1.391-2.042.791-4.084a1.632,1.632,0,0,1,1.756-1.44c3.609-.009,7.219,0,10.913,0v3.306H520.1l-1.588,8.359c2,0,3.906.032,5.808-.013a2.2,2.2,0,0,1,2.194,1.247c1.139,2.064,2.33,4.1,3.567,6.266L527.2-77.229c-.959-1.676-1.922-3.305-2.826-4.966a1.419,1.419,0,0,0-1.436-.879c-6.04.037-12.081.006-18.121.05a2.025,2.025,0,0,0-1.359.658c-1.673,1.993-3.328,4.007-4.878,6.1a3.487,3.487,0,0,1-3.244,1.581c-2.9-.107-5.814-.032-8.779-.032v3.75a26.479,26.479,0,0,1,3.1-.4q5-.078,10,0a1.917,1.917,0,0,0,1.728-.854c1.7-2.194,3.469-4.336,5.182-6.521a2.377,2.377,0,0,1,2.048-.991q5.363.043,10.726,0a2.214,2.214,0,0,1,2.185,1.261c.977,1.792,2.012,3.552,3.085,5.434l-2.887,1.652c-.816-1.428-1.629-2.793-2.38-4.191a1.32,1.32,0,0,0-1.36-.83c-2.741.05-5.485-.008-8.226.048a1.917,1.917,0,0,0-1.273.624q-2.7,3.24-5.281,6.574a2.63,2.63,0,0,1-2.3,1.123q-5.571-.062-11.143.012a2.676,2.676,0,0,0-1.514.63c-.774.636-1.434,1.41-2.158,2.109a1.615,1.615,0,0,1-1.9.414,1.661,1.661,0,0,1-1.018-1.663c0-3.229-.013-6.458.008-9.686a1.667,1.667,0,0,1,1.908-1.826c3.16-.015,6.319-.031,9.478.012a2,2,0,0,0,1.833-.854c1.427-1.878,2.97-3.67,4.387-5.556a5.842,5.842,0,0,0,1.032-2.193c.571-2.64,1.025-5.305,1.546-8.077-1.264,0-2.47-.034-3.671.029-.231.013-.537.368-.647.633-.852,2.047-1.7,4.1-2.476,6.174a2.041,2.041,0,0,1-2.193,1.506c-1.943-.045-3.888,0-5.832-.016-1.644-.011-2.35-.963-1.838-2.515,1.587-4.8,3.2-9.6,4.788-14.4a1.881,1.881,0,0,1,2.025-1.417c4.2.02,8.4.008,12.6.008h1.192a13.949,13.949,0,0,1-.6-8.055,6.489,6.489,0,0,1,7.081-5.255,6.625,6.625,0,0,1,6.022,6.477c.024,2.268.374,4.59-.833,6.778h7.82l1.075-5.246,3.271.62c-.484,2.357-.883,4.641-1.47,6.876-.124.47-.915.807-1.452,1.108-.239.134-.613.03-.925.03-10.449,0-20.9.02-31.348-.028-1.176-.006-1.741.259-2.1,1.462-1.011,3.381-2.191,6.712-3.36,10.229,1.025,0,1.943.045,2.851-.031.232-.02.52-.387.632-.656.85-2.049,1.7-4.1,2.474-6.176a2.04,2.04,0,0,1,2.209-1.48c2.117.046,4.235,0,6.353.016,1.572.009,2.211.759,1.93,2.325-.5,2.8-1.046,5.589-1.57,8.383C505.31-87.071,505.273-86.8,505.212-86.421Zm11.275-23.285c0-.625.033-1.251-.006-1.873a3.343,3.343,0,0,0-3.283-3.136,3.305,3.305,0,0,0-3.353,3.161c-.053,1.212-.05,2.43,0,3.643a3.327,3.327,0,0,0,3.332,3.189,3.34,3.34,0,0,0,3.31-3.215C516.514-108.525,516.49-109.116,516.487-109.706Z" fill="#1a2e48"/>
    <path id="Path_143663" data-name="Path 143663" d="M503.365-48.054c-1.278,0-2.457-.041-3.629.032-.257.016-.594.4-.714.683-.856,2.046-1.692,4.1-2.48,6.174a2,2,0,0,1-2.123,1.453c-1.978-.039-3.958,0-5.936-.016-1.58-.014-2.288-.973-1.8-2.467,1.586-4.805,3.205-9.6,4.785-14.406a1.93,1.93,0,0,1,2.1-1.464c4.546.024,9.093.01,13.794.01-1.2-2.206-.868-4.518-.848-6.78a6.621,6.621,0,0,1,6.6-6.55,6.661,6.661,0,0,1,6.708,6.555,33.428,33.428,0,0,1-.019,3.539,7.051,7.051,0,0,1-.605,2.6c-.634,1.234-1.375,2.385-.952,3.967h-1.286c-7.186,0-14.372.015-21.559-.021a1.2,1.2,0,0,0-1.385.988c-1.129,3.527-2.315,7.035-3.529,10.7,1,0,1.89.053,2.767-.033.264-.025.6-.392.718-.679.857-2.045,1.693-4.1,2.479-6.175a1.991,1.991,0,0,1,2.119-1.455c2.152.038,4.3,0,6.457.014,1.523.01,2.183.763,1.918,2.247-.508,2.832-1.058,5.657-1.589,8.485-.05.27-.083.543-.141.931h7.532c2.387,0,2.39,0,2.865-2.356.3-1.491.592-2.984.916-4.619l3.255.63-1.232,6.291h2.869v3.387h-1.105c-5.034,0-10.068.027-15.1-.024a2.3,2.3,0,0,0-2.068,1.019c-1.649,2.147-3.381,4.229-5.05,6.36a2.366,2.366,0,0,1-2.049.989c-2.812-.031-5.624-.012-8.436-.012h-1.061v3.781a21.808,21.808,0,0,1,2.924-.427c3.471-.053,6.943,0,10.414-.048a1.9,1.9,0,0,0,1.28-.61c1.821-2.186,3.6-4.412,5.349-6.653a2.456,2.456,0,0,1,2.122-1.056q5.363.051,10.727,0a2.23,2.23,0,0,1,2.169,1.287c1.641,2.936,3.326,5.847,5,8.767.17.3.359.581.6.967l3.957-2.379-2.1-2.73,3.005-1.721c.533,1.528,1.963,1.8,3.12,2.419.706.381,1.333.786,1.368,1.671s-.549,1.355-1.239,1.766c-2.505,1.488-4.994,3-7.5,4.494-1.347.8-2.134.6-2.913-.76-1.831-3.187-3.662-6.375-5.459-9.582a1.417,1.417,0,0,0-1.44-.874c-2.706.053-5.416-.011-8.122.051a2.052,2.052,0,0,0-1.358.662q-2.67,3.195-5.214,6.495a2.714,2.714,0,0,1-2.388,1.163q-5.571-.068-11.143.009a2.491,2.491,0,0,0-1.424.6c-.771.642-1.44,1.4-2.158,2.11a1.641,1.641,0,0,1-1.892.469,1.692,1.692,0,0,1-1.068-1.737c.007-3.194-.009-6.388.009-9.582.007-1.27.647-1.872,1.964-1.877,3.159-.013,6.319-.028,9.478.012a1.9,1.9,0,0,0,1.748-.814c1.471-1.933,3.047-3.786,4.517-5.719a5,5,0,0,0,.9-1.92C502.343-42.5,502.821-45.2,503.365-48.054Zm6.469-15.053c0,.625-.028,1.251.006,1.874a3.348,3.348,0,0,0,3.246,3.174,3.315,3.315,0,0,0,3.389-3.126c.062-1.246.061-2.5,0-3.746a3.316,3.316,0,0,0-3.292-3.121,3.327,3.327,0,0,0-3.344,3.176C509.808-64.288,509.834-63.7,509.834-63.107Z" fill="#1a2e48"/>
    <path id="Path_143664" data-name="Path 143664" d="M548.209-72.864l-.271,3.157a16.847,16.847,0,0,0-13.411,5.083,15.337,15.337,0,0,0-3.9,6.628c10.608-6.806,21.117-6.813,31.753.008a16.648,16.648,0,0,0-4.3-7.07l2.426-2.124c5.454,4.73,8.612,15.224,3.146,24.381a19.981,19.981,0,0,1-25.589,7.874,19.971,19.971,0,0,1-10.408-24.836C531.388-70.148,541.655-73.868,548.209-72.864Zm-17.51,24.8c1.38,5.56,7.552,11.907,16.338,11.661,7.014-.2,14.411-5.878,15.215-11.64Q546.51-37.945,530.7-48.064ZM553.152-53.1a6.666,6.666,0,0,0-6.62-6.623,6.679,6.679,0,0,0-6.683,6.67,6.7,6.7,0,0,0,6.627,6.633A6.687,6.687,0,0,0,553.152-53.1Zm2.024,5.063a19.9,19.9,0,0,0,7.437-5.03,20.029,20.029,0,0,0-7.444-5A10.337,10.337,0,0,1,555.176-48.034Zm-17.349.009a10.343,10.343,0,0,1-.023-10.049,19.971,19.971,0,0,0-7.429,5.024A20.3,20.3,0,0,0,537.827-48.025Z" fill="#1a2e48"/>
    <path id="Path_143665" data-name="Path 143665" d="M551.492-74.721c-3.208,0-6.29,0-9.372,0-5.479,0-8.958-3.491-8.959-8.984q0-12.7,0-25.4c0-5.433,3.488-8.942,8.892-8.943q16.083-.006,32.168,0c5.424,0,8.931,3.5,8.934,8.9q.006,12.753,0,25.506c0,5.418-3.5,8.916-8.918,8.921-3.158,0-6.316-.028-9.473.029a2.432,2.432,0,0,0-1.515.619c-2.858,2.785-5.668,5.618-8.484,8.446-.613.616-1.241,1.153-2.186.783-.984-.386-1.1-1.212-1.095-2.138C551.507-69.512,551.492-72.042,551.492-74.721Zm3.333,4.339c2.407-2.418,4.568-4.658,6.823-6.8a3.259,3.259,0,0,1,1.994-.833c3.537-.082,7.078-.036,10.618-.039s5.561-2.012,5.562-5.54q0-12.8,0-25.61c0-3.476-2.026-5.511-5.483-5.512q-16.188,0-32.377,0c-3.4,0-5.465,2.047-5.467,5.423q-.008,12.909,0,25.819c0,3.371,2.069,5.414,5.472,5.419,3.609,0,7.218,0,10.827,0,1.428,0,2.019.6,2.028,2.027C554.834-74.255,554.825-72.488,554.825-70.382Z" fill="#1a2e48"/>
    <path id="Path_143666" data-name="Path 143666" d="M563.1-69.607c.159-.177.314-.358.478-.531.547-.578,1.1-1.154,1.724-1.81a26.377,26.377,0,0,1,7.648,15.671,26.515,26.515,0,0,1-3.632,17.02c1.875,1.873,3.714,3.709,5.551,5.547,2.259,2.258,4.541,4.493,6.765,6.785a4.929,4.929,0,0,1,1.23,5.287,4.975,4.975,0,0,1-4.156,3.5,5.2,5.2,0,0,1-4.7-1.7q-5.441-5.46-10.892-10.907a5.81,5.81,0,0,1-.626-.908,26.81,26.81,0,0,1-39.084-8.037,26.615,26.615,0,0,1,8.9-35.893l1.733,2.746c-6.569,4.436-10.315,10.541-10.825,18.426a22.531,22.531,0,0,0,5.575,16.535,23.4,23.4,0,0,0,31.911,3.34C570.862-42.21,573.764-58.845,563.1-69.607Zm1.77,35.9c2.3,2.3,4.556,4.553,6.808,6.8,1.642,1.64,3.268,3.3,4.935,4.912a1.8,1.8,0,0,0,2.682.01,1.836,1.836,0,0,0-.046-2.614c-.205-.234-.434-.447-.655-.668q-4.7-4.7-9.4-9.407c-.582-.584-1.133-1.2-1.732-1.832Z" fill="#1a2e48"/>
    <path id="Path_143667" data-name="Path 143667" d="M546.521-56.386a3.353,3.353,0,0,1,3.3,3.333,3.353,3.353,0,0,1-3.411,3.327,3.361,3.361,0,0,1-3.247-3.388A3.338,3.338,0,0,1,546.521-56.386Z" fill="#1a2e48"/>
    <path id="Path_143668" data-name="Path 143668" d="M543.172-109.652v13.2c.69-.9,1.217-1.589,1.747-2.276,1.028-1.329,2.119-1.344,3.128-.025,1.112,1.455,2.207,2.925,3.37,4.468,1.682-2.523,3.314-4.973,4.949-7.421,1.188-1.779,2.174-1.822,3.566-.156,2.067,2.474,4.131,4.95,6.282,7.527l7.159-12.862,2.9,1.616c-.88,1.593-1.712,3.1-2.549,4.611q-2.676,4.818-5.355,9.635c-1.147,2.061-2.192,2.168-3.679.383q-2.832-3.4-5.669-6.794c-.217-.259-.45-.505-.735-.823-1.709,2.561-3.359,5.039-5.014,7.513-1.187,1.773-2.255,1.8-3.538.1-1.042-1.385-2.081-2.772-3.24-4.315-1.132,1.524-2.524,2.851-3.192,4.475-.51,1.238-.1,2.854-.1,4.374h33.206v3.37H542.22c-1.91,0-2.393-.483-2.393-2.4q0-11.556,0-23.113v-1.088Z" fill="#1a2e48"/>
  </g>
</svg>
