<svg xmlns="http://www.w3.org/2000/svg" xmlns:xlink="http://www.w3.org/1999/xlink" width="169.252" height="166.27" viewBox="0 0 169.252 166.27">
  <defs>
    <linearGradient id="linear-gradient" x1="0.63" y1="0.061" x2="0.211" y2="1.471" gradientUnits="objectBoundingBox">
      <stop offset="0" stop-color="#ab316d"/>
      <stop offset="1" stop-color="#792d3d"/>
    </linearGradient>
    <linearGradient id="linear-gradient-2" x1="0.63" y1="0.061" x2="0.211" y2="1.471" gradientUnits="objectBoundingBox">
      <stop offset="0" stop-color="#ffc444"/>
      <stop offset="0.996" stop-color="#f36f56"/>
    </linearGradient>
    <linearGradient id="linear-gradient-3" x1="0.742" y1="-0.156" x2="0.199" y2="1.555" xlink:href="#linear-gradient-2"/>
    <linearGradient id="linear-gradient-4" x1="0.63" y1="0.061" x2="0.211" y2="1.471" gradientUnits="objectBoundingBox">
      <stop offset="0" stop-color="#fff"/>
      <stop offset="0.996" stop-color="#ebeff2"/>
    </linearGradient>
    <linearGradient id="linear-gradient-5" x1="0.63" y1="0.061" x2="0.211" y2="1.471" xlink:href="#linear-gradient-2"/>
    <linearGradient id="linear-gradient-6" x1="0.67" y1="0.158" x2="0.236" y2="1.356" xlink:href="#linear-gradient-2"/>
    <linearGradient id="linear-gradient-7" x1="0.63" y1="0.061" x2="0.211" y2="1.471" xlink:href="#linear-gradient-4"/>
    <linearGradient id="linear-gradient-8" x1="0.631" y1="0.061" x2="0.211" y2="1.471" xlink:href="#linear-gradient-2"/>
    <linearGradient id="linear-gradient-9" x1="0.717" y1="0.129" x2="0.211" y2="1.379" xlink:href="#linear-gradient-2"/>
    <linearGradient id="linear-gradient-10" x1="-14.53" y1="31.648" x2="-13.34" y2="31.648" xlink:href="#linear-gradient-2"/>
    <linearGradient id="linear-gradient-11" x1="-17.619" y1="34.741" x2="-16.561" y2="34.741" gradientUnits="objectBoundingBox">
      <stop offset="0" stop-color="#444b8c"/>
      <stop offset="0.996" stop-color="#26264f"/>
    </linearGradient>
    <linearGradient id="linear-gradient-12" x1="-12.379" y1="51.19" x2="-11.392" y2="51.19" xlink:href="#linear-gradient-2"/>
    <linearGradient id="linear-gradient-13" x1="-11.714" y1="49.259" x2="-10.722" y2="49.259" xlink:href="#linear-gradient"/>
    <linearGradient id="linear-gradient-14" x1="-13.813" y1="30.343" x2="-12.612" y2="30.343" xlink:href="#linear-gradient"/>
    <linearGradient id="linear-gradient-15" x1="-19.972" y1="30.388" x2="-19.939" y2="31.951" xlink:href="#linear-gradient"/>
    <linearGradient id="linear-gradient-16" x1="-19.99" y1="64.021" x2="-19.957" y2="67.373" xlink:href="#linear-gradient"/>
    <linearGradient id="linear-gradient-17" y1="0.5" x2="1" y2="0.5" gradientUnits="objectBoundingBox">
      <stop offset="0" stop-color="#2db7f9"/>
      <stop offset="0.996" stop-color="#61c1d7"/>
    </linearGradient>
    <linearGradient id="linear-gradient-19" x1="0" y1="0.5" x2="1" y2="0.5" xlink:href="#linear-gradient-17"/>
    <linearGradient id="linear-gradient-20" x1="-952.272" y1="282.022" x2="-953.06" y2="275.348" xlink:href="#linear-gradient-11"/>
    <linearGradient id="linear-gradient-21" x1="-3334.371" y1="256.574" x2="-3334.371" y2="246.806" xlink:href="#linear-gradient-2"/>
    <linearGradient id="linear-gradient-22" x1="-2277.735" y1="246.425" x2="-2277.735" y2="237.015" xlink:href="#linear-gradient-2"/>
    <linearGradient id="linear-gradient-23" x1="-1254.838" y1="156.925" x2="-1255.875" y2="153.192" xlink:href="#linear-gradient-11"/>
    <linearGradient id="linear-gradient-24" x1="-388.319" y1="12.16" x2="-388.475" y2="13.118" gradientUnits="objectBoundingBox">
      <stop offset="0" stop-color="#311944"/>
      <stop offset="1" stop-color="#a03976"/>
    </linearGradient>
    <linearGradient id="linear-gradient-25" x1="-436.952" y1="12.16" x2="-437.128" y2="13.118" gradientUnits="objectBoundingBox">
      <stop offset="0" stop-color="#ff9085"/>
      <stop offset="1" stop-color="#fb6fbb"/>
    </linearGradient>
    <linearGradient id="linear-gradient-26" x1="-374.401" y1="11.959" x2="-377.174" y2="11.925" xlink:href="#linear-gradient-24"/>
    <linearGradient id="linear-gradient-27" x1="0.643" y1="0.411" x2="-0.432" y2="2.86" gradientUnits="objectBoundingBox">
      <stop offset="0.004" stop-color="#e3c58d"/>
      <stop offset="1" stop-color="#f69471"/>
    </linearGradient>
    <linearGradient id="linear-gradient-28" x1="125.418" y1="70.428" x2="125.874" y2="72.432" xlink:href="#linear-gradient-27"/>
    <linearGradient id="linear-gradient-29" x1="-701.001" y1="64.976" x2="-701.661" y2="65.843" gradientUnits="objectBoundingBox">
      <stop offset="0" stop-color="#ffc444"/>
      <stop offset="0.463" stop-color="#fec244"/>
      <stop offset="0.63" stop-color="#fdbb45"/>
      <stop offset="0.749" stop-color="#fcaf48"/>
      <stop offset="0.845" stop-color="#f99e4b"/>
      <stop offset="0.926" stop-color="#f68850"/>
      <stop offset="0.996" stop-color="#f36f56"/>
    </linearGradient>
    <linearGradient id="linear-gradient-30" x1="-281.512" y1="35.009" x2="-282.048" y2="35.954" xlink:href="#linear-gradient-11"/>
    <linearGradient id="linear-gradient-31" x1="-345.342" y1="37.85" x2="-345.913" y2="39.02" xlink:href="#linear-gradient-2"/>
    <linearGradient id="linear-gradient-32" x1="-2079.58" y1="143.225" x2="-2080.527" y2="144.157" gradientUnits="objectBoundingBox">
      <stop offset="0" stop-color="#311944"/>
      <stop offset="1" stop-color="#893976"/>
    </linearGradient>
    <linearGradient id="linear-gradient-33" x1="0.268" y1="1.029" x2="-2.809" y2="6.355" xlink:href="#linear-gradient-27"/>
    <linearGradient id="linear-gradient-34" x1="123.1" y1="-0.016" x2="123.471" y2="0.97" xlink:href="#linear-gradient-11"/>
    <linearGradient id="linear-gradient-35" x1="118.732" y1="-2.425" x2="118.934" y2="2.649" gradientUnits="objectBoundingBox">
      <stop offset="0" stop-color="#aa80f9"/>
      <stop offset="0.996" stop-color="#6165d7"/>
    </linearGradient>
    <linearGradient id="linear-gradient-36" x1="441.238" y1="1.151" x2="441.101" y2="-5.071" xlink:href="#linear-gradient-2"/>
    <linearGradient id="linear-gradient-37" x1="187.627" y1="-1.495" x2="187.948" y2="1.478" xlink:href="#linear-gradient-35"/>
    <linearGradient id="linear-gradient-38" x1="313.48" y1="1.353" x2="313.383" y2="-3.033" xlink:href="#linear-gradient-2"/>
    <linearGradient id="linear-gradient-39" x1="2.577" y1="-0.067" x2="-0.417" y2="0.69" xlink:href="#linear-gradient-24"/>
    <linearGradient id="linear-gradient-40" x1="0" y1="0.5" x2="1" y2="0.5" xlink:href="#linear-gradient-25"/>
    <linearGradient id="linear-gradient-41" x1="0" y1="0.5" x2="1" y2="0.5" xlink:href="#linear-gradient-24"/>
    <linearGradient id="linear-gradient-42" x1="0.433" y1="0.246" x2="0.803" y2="0.789" gradientUnits="objectBoundingBox">
      <stop offset="0.004" stop-color="#26264f"/>
      <stop offset="1" stop-color="#444b8c"/>
    </linearGradient>
    <linearGradient id="linear-gradient-43" y1="0.5" x2="1" y2="0.5" gradientUnits="objectBoundingBox">
      <stop offset="0" stop-color="#ffdea0"/>
      <stop offset="0.996" stop-color="#f3b6ae"/>
    </linearGradient>
    <linearGradient id="linear-gradient-44" x1="0.739" y1="0.646" x2="2.273" y2="1.827" gradientUnits="objectBoundingBox">
      <stop offset="0" stop-color="#21c5ff"/>
      <stop offset="1" stop-color="#6feafb"/>
    </linearGradient>
    <linearGradient id="linear-gradient-45" x1="-0.022" y1="0.286" x2="0.858" y2="0.849" xlink:href="#linear-gradient-44"/>
    <linearGradient id="linear-gradient-46" x1="0.6" y1="0.342" x2="0.197" y2="0.984" gradientUnits="objectBoundingBox">
      <stop offset="0.004" stop-color="#6165d7"/>
      <stop offset="1" stop-color="#aa80f9"/>
    </linearGradient>
    <linearGradient id="linear-gradient-47" x1="0" y1="0.5" x2="1" y2="0.5" xlink:href="#linear-gradient-42"/>
    <linearGradient id="linear-gradient-48" x1="0.9" y1="-2.99" x2="0.477" y2="0.705" xlink:href="#linear-gradient-42"/>
    <linearGradient id="linear-gradient-50" x1="0" y1="0.5" x2="1" y2="0.5" xlink:href="#linear-gradient-43"/>
    <linearGradient id="linear-gradient-51" x1="0.007" y1="-0.098" x2="0.711" y2="1.268" xlink:href="#linear-gradient-44"/>
    <linearGradient id="linear-gradient-52" x1="-0.243" y1="0.532" x2="1.713" y2="0.413" xlink:href="#linear-gradient-44"/>
    <linearGradient id="linear-gradient-53" x1="0" y1="0.5" x2="1" y2="0.5" xlink:href="#linear-gradient-43"/>
    <linearGradient id="linear-gradient-54" x1="0" y1="0.5" x2="1" y2="0.5" xlink:href="#linear-gradient-43"/>
    <linearGradient id="linear-gradient-55" x1="19.262" y1="0.95" x2="19.532" y2="-0.004" gradientUnits="objectBoundingBox">
      <stop offset="0" stop-color="#f9763a"/>
      <stop offset="0.996" stop-color="#d76761"/>
    </linearGradient>
    <linearGradient id="linear-gradient-56" x1="76.963" y1="-8.623" x2="78.015" y2="-7.174" xlink:href="#linear-gradient-11"/>
    <linearGradient id="linear-gradient-57" x1="-416.843" y1="-2.616" x2="-416.843" y2="-3.967" xlink:href="#linear-gradient-2"/>
    <linearGradient id="linear-gradient-58" x1="97.977" y1="-11.107" x2="99.309" y2="-9.318" xlink:href="#linear-gradient-11"/>
    <linearGradient id="linear-gradient-59" x1="149.755" y1="-0.515" x2="150.85" y2="0.793" xlink:href="#linear-gradient-11"/>
    <linearGradient id="linear-gradient-60" x1="-422.384" y1="1.222" x2="-422.384" y2="-0.193" xlink:href="#linear-gradient-2"/>
    <linearGradient id="linear-gradient-61" x1="-8.59" y1="1.09" x2="-9.246" y2="-0.252" xlink:href="#linear-gradient-11"/>
    <linearGradient id="linear-gradient-62" x1="1.374" y1="0.975" x2="-0.546" y2="-0.04" xlink:href="#linear-gradient-55"/>
    <linearGradient id="linear-gradient-63" x1="186.641" y1="-1.298" x2="188.001" y2="0.479" xlink:href="#linear-gradient-11"/>
    <linearGradient id="linear-gradient-64" x1="45.828" y1="-13.549" x2="47.176" y2="-11.735" xlink:href="#linear-gradient-2"/>
    <linearGradient id="linear-gradient-65" x1="522.506" y1="-102.394" x2="538.085" y2="-89.051" xlink:href="#linear-gradient-2"/>
    <linearGradient id="linear-gradient-66" x1="0" y1="0.5" x2="1" y2="0.5" xlink:href="#linear-gradient-55"/>
    <linearGradient id="linear-gradient-67" x1="0.318" y1="0.081" x2="0.9" y2="1.156" xlink:href="#linear-gradient-2"/>
    <linearGradient id="linear-gradient-68" x1="15.611" y1="1.522" x2="13.945" y2="0.051" xlink:href="#linear-gradient-55"/>
    <linearGradient id="linear-gradient-69" x1="-27.806" y1="5.796" x2="-26.634" y2="7.811" gradientUnits="objectBoundingBox">
      <stop offset="0" stop-color="#44818c"/>
      <stop offset="0.996" stop-color="#26424f"/>
    </linearGradient>
    <linearGradient id="linear-gradient-70" x1="-13.552" y1="2.61" x2="-12.36" y2="4.657" xlink:href="#linear-gradient-69"/>
    <linearGradient id="linear-gradient-71" x1="-13.091" y1="3.488" x2="-12.993" y2="2.713" gradientUnits="objectBoundingBox">
      <stop offset="0" stop-color="#80ddf9"/>
      <stop offset="0.996" stop-color="#61b8d7"/>
    </linearGradient>
    <linearGradient id="linear-gradient-72" x1="-27.385" y1="6.615" x2="-27.185" y2="5.025" xlink:href="#linear-gradient-71"/>
    <linearGradient id="linear-gradient-73" x1="-38.945" y1="7.285" x2="-37.753" y2="9.332" xlink:href="#linear-gradient-69"/>
    <linearGradient id="linear-gradient-74" x1="-39.008" y1="7.298" x2="-37.835" y2="9.313" xlink:href="#linear-gradient-71"/>
  </defs>
  <g id="Group_89740" data-name="Group 89740" transform="translate(-1011.47 -2001.966)">
    <path id="Path_143203" data-name="Path 143203" d="M1098.715,2004.547c-18.323,7.286-20.078,25.91-36.576,27.508-14.376,1.393-19.84-12.088-29.927-9.673-15.365,3.68-25.026,40.312-18.855,70.434,6.372,31.1,33.145,72.448,77.5,75.269,49.8,3.168,87.476-44.4,89.776-86.152.249-4.515,1.718-42.343-27.2-64.69C1151.985,2016.127,1123.486,1994.7,1098.715,2004.547Z" fill="#f4f7fa"/>
    <g id="Group_89745" data-name="Group 89745">
      <g id="Group_89741" data-name="Group 89741">
        <path id="Path_143204" data-name="Path 143204" d="M1153.106,2076.423c0,33.51-25.579,62.434-58.893,64.724-35.43,2.436-65.848-25.847-65.848-63.314s30.418-66.437,65.848-64.8C1127.527,2014.568,1153.106,2042.914,1153.106,2076.423Z" fill="url(#linear-gradient)"/>
        <path id="Path_143205" data-name="Path 143205" d="M1156.467,2076.423c0,33.51-25.579,62.434-58.892,64.724-35.43,2.436-65.848-25.847-65.848-63.314s30.418-66.437,65.848-64.8C1130.888,2014.568,1156.467,2042.914,1156.467,2076.423Z" fill="url(#linear-gradient-2)"/>
        <g id="Group_89740-2" data-name="Group 89740" opacity="0.3" style="mix-blend-mode: multiply;isolation: isolate">
          <path id="Path_143206" data-name="Path 143206" d="M1109.3,2119.662c-12.032-13.674-.663-31.219-13.269-48.254-11.7-15.807-28.162-10.212-40.846-26.876a41.735,41.735,0,0,1-6.08-11.325,65.536,65.536,0,0,0-17.375,44.626c0,37.467,30.418,65.75,65.848,63.314a61.645,61.645,0,0,0,32.67-12.136C1119.925,2128.065,1113.435,2124.365,1109.3,2119.662Z" fill="url(#linear-gradient-3)"/>
        </g>
        <path id="Path_143207" data-name="Path 143207" d="M1150.86,2076.487c0,30.319-23.214,56.36-53.285,58.254-31.786,2-58.916-23.464-58.916-56.987s27.13-59.6,58.916-58.318C1127.646,2020.651,1150.86,2046.168,1150.86,2076.487Z" fill="url(#linear-gradient-4)"/>
        <path id="Path_143208" data-name="Path 143208" d="M1097.575,2134.741a55.19,55.19,0,0,0,24.214-7.329,26.41,26.41,0,0,1-12.492-7.75c-12.032-13.674-.663-31.219-13.269-48.254-11.7-15.807-28.162-10.212-40.846-26.876a40.189,40.189,0,0,1-2.987-4.537,59.035,59.035,0,0,0-13.536,37.759C1038.659,2111.277,1065.789,2136.744,1097.575,2134.741Z" fill="#eff2f6"/>
        <path id="Path_143209" data-name="Path 143209" d="M1139.463,2076.616c0,23.834-18.358,44.1-41.888,45.314-24.567,1.265-45.292-18.559-45.292-44.329s20.725-46.063,45.292-45.353C1121.1,2032.928,1139.463,2052.781,1139.463,2076.616Z" fill="url(#linear-gradient-5)"/>
        <path id="Path_143210" data-name="Path 143210" d="M1096.028,2071.408c-9.979-13.485-23.413-11.4-35.03-20.831a45.955,45.955,0,0,0-8.715,27.024c0,25.77,20.725,45.594,45.292,44.329a42.781,42.781,0,0,0,11.722-2.268h0C1097.265,2105.988,1108.634,2088.443,1096.028,2071.408Z" opacity="0.3" fill="url(#linear-gradient-6)" style="mix-blend-mode: multiply;isolation: isolate"/>
        <path id="Path_143211" data-name="Path 143211" d="M1127.82,2076.747c0,17.21-13.336,31.694-30.245,32.371-17.438.7-31.98-13.471-31.98-31.668s14.542-32.694,31.98-32.39C1114.484,2045.354,1127.82,2059.538,1127.82,2076.747Z" fill="url(#linear-gradient-7)"/>
        <path id="Path_143212" data-name="Path 143212" d="M1072.667,2057.031a32.8,32.8,0,0,0-7.072,20.419c0,18.2,14.542,32.366,31.98,31.668a30.512,30.512,0,0,0,6.263-.905c-2.232-11.417,1.52-24.2-7.81-36.8C1089.274,2062.281,1080.948,2060.287,1072.667,2057.031Z" fill="#eff2f6"/>
        <path id="Path_143213" data-name="Path 143213" d="M1115.921,2076.882c0,10.438-8.139,19.133-18.346,19.424a18.664,18.664,0,0,1-18.971-19c0-10.794,8.573-19.493,18.971-19.432C1107.782,2057.932,1115.921,2066.443,1115.921,2076.882Z" fill="url(#linear-gradient-8)"/>
        <path id="Path_143214" data-name="Path 143214" d="M1102.867,2095.365c-.249-7.786-.865-15.884-6.839-23.957a30.841,30.841,0,0,0-10.54-9.091,19.632,19.632,0,0,0-6.884,14.986,18.664,18.664,0,0,0,18.971,19A18.224,18.224,0,0,0,1102.867,2095.365Z" opacity="0.3" fill="url(#linear-gradient-9)" style="mix-blend-mode: multiply;isolation: isolate"/>
      </g>
      <g id="Group_89744" data-name="Group 89744">
        <path id="Path_143215" data-name="Path 143215" d="M1155.973,2050.221c.045-.041-9.431,3.256-9.431,3.256l2.893-5.85c.972-1.966,9.776-4.457,11.953-4.88l.23.568Z" fill="url(#linear-gradient-10)"/>
        <path id="Path_143216" data-name="Path 143216" d="M1116.1,2070.952l-16.8,6.142a.37.37,0,0,1-.29-.679l16.092-7.91a.2.2,0,0,1,.277.106l.843,2.074A.2.2,0,0,1,1116.1,2070.952Z" fill="url(#linear-gradient-11)"/>
        <path id="Path_143217" data-name="Path 143217" d="M1157.946,2054.347c.06,0-9.212,4.523-9.212,4.523l6.09,2.015c2.047.677,9.973-3.974,11.8-5.26l-.231-.568Z" fill="url(#linear-gradient-12)"/>
        <path id="Path_143218" data-name="Path 143218" d="M1156.88,2054.8c.06,0-9.17,4.5-9.17,4.5l6.067,2.014a6.763,6.763,0,0,0,6.041-.9l6.805-4.794Z" fill="url(#linear-gradient-13)"/>
        <path id="Path_143219" data-name="Path 143219" d="M1155.1,2050.419c.045-.041-9.577,3.5-9.577,3.5l2.876-5.832a6.931,6.931,0,0,1,4.875-3.765l8.114-1.575Z" fill="url(#linear-gradient-14)"/>
        <path id="Path_143220" data-name="Path 143220" d="M1125.016,2070.382l-5.5,2.292a3.951,3.951,0,0,1-5.064-2.422h0a4.121,4.121,0,0,1,1.888-5.391l5.462-2.392Z" fill="url(#linear-gradient-15)"/>
        <g id="Group_89742" data-name="Group 89742" opacity="0.3" style="mix-blend-mode: multiply;isolation: isolate">
          <path id="Path_143221" data-name="Path 143221" d="M1119.879,2069.359a11.618,11.618,0,0,1-5.752-1.28,4.608,4.608,0,0,0,.322,2.173h0a3.951,3.951,0,0,0,5.064,2.422l5.5-2.292-.945-2.325A8.788,8.788,0,0,1,1119.879,2069.359Z" fill="url(#linear-gradient-16)"/>
        </g>
        <path id="Path_143222" data-name="Path 143222" d="M1158.781,2053.894l-33.765,16.488c-2.155.876-5.371-7.037-3.217-7.913l35.322-12.659Z" fill="url(#linear-gradient-17)"/>
        <g id="Group_89743" data-name="Group 89743" opacity="0.3" style="mix-blend-mode: multiply;isolation: isolate">
          <path id="Path_143223" data-name="Path 143223" d="M1147.851,2057.575c-6.935,2.523-8.612,1.232-14.506,4.248-5.432,2.779-7.584,5.7-10.7,6.941.737,1.16,1.617,1.923,2.368,1.618l33.765-16.488-.645-1.588A47.3,47.3,0,0,1,1147.851,2057.575Z" fill="url(#linear-gradient-17)"/>
        </g>
        <path id="Path_143224" data-name="Path 143224" d="M1158.626,2051.582c.462,1.138.537,2.187.168,2.343s-1.042-.639-1.5-1.773-.538-2.183-.17-2.342S1158.163,2050.444,1158.626,2051.582Z" fill="url(#linear-gradient-19)"/>
      </g>
    </g>
    <g id="Group_89747" data-name="Group 89747">
      <path id="Path_143225" data-name="Path 143225" d="M1047.012,2162.551c-.4.637-.337.935-.268,1.071.2.4.816.106,2.308.443a2.524,2.524,0,0,0,.94.065c.371-.047.817-.195.809-.294,0-.036-.066-.056-.09-.064-.41-.133-2.949-1.213-2.949-1.213Z" fill="url(#linear-gradient-20)"/>
      <path id="Path_143226" data-name="Path 143226" d="M1046.965,2161.054l.077,1.525s.6.524.825-.012a7.852,7.852,0,0,0,.272-1.459Z" fill="url(#linear-gradient-21)"/>
      <path id="Path_143227" data-name="Path 143227" d="M1054.5,2162.593l-.814,1.662-.9-.243.381-1.578Z" fill="url(#linear-gradient-22)"/>
      <path id="Path_143228" data-name="Path 143228" d="M1053.3,2165.177c-.39-.575-.793-.568-.835-.94a.748.748,0,0,1,.456-.729c.39-.148.808.191.9.267.642.52.381,1.2,1,1.572a1.75,1.75,0,0,1,.521.389c.084.1.291.336.222.478-.08.165-.489.116-.878.07a1.713,1.713,0,0,1-.91-.247C1053.489,2165.81,1053.6,2165.621,1053.3,2165.177Z" fill="url(#linear-gradient-23)"/>
      <path id="Path_143229" data-name="Path 143229" d="M1045.8,2124.627a49.758,49.758,0,0,0,.308,9.033,40.417,40.417,0,0,1,.648,4.994c.05,3.992-1.274,4.453-1.879,8.911a27.334,27.334,0,0,0,.713,10.5,28.241,28.241,0,0,0,1.023,3.209c.42.433,1.126.339,1.869.251.64-4.461,1.326-8.653,1.967-13.114l4.281-20.018Z" fill="url(#linear-gradient-24)"/>
      <path id="Path_143230" data-name="Path 143230" d="M1048.478,2161.525c.64-4.461,1.326-8.653,1.967-13.114l4.281-20.018-8.93-3.766c-.013.233-.02.457-.03.686,3.984,4.083,4.579,7.106,4.371,9.117-.254,2.439-1.69,3.539-1.723,7.1-.023,2.548.7,3.057.512,5.342-.245,2.943-1.645,4.493-2.4,6.143-.731,1.594-1.135,3.905-.261,7.311.122.354.239.672.345.945C1047.029,2161.707,1047.735,2161.613,1048.478,2161.525Z" opacity="0.3" fill="url(#linear-gradient-25)" style="mix-blend-mode: multiply;isolation: isolate"/>
      <path id="Path_143231" data-name="Path 143231" d="M1050.933,2128.45a52.588,52.588,0,0,1,3.462,8.98,12.683,12.683,0,0,1,.558,3.91,12.058,12.058,0,0,1-.96,4.375,23.331,23.331,0,0,0-1.535,4.329,24.642,24.642,0,0,0,.353,12.7l1.582.739a90.211,90.211,0,0,0,5.014-14.044,48.9,48.9,0,0,0,1.806-9.067,38.655,38.655,0,0,0-2.035-15.743Z" fill="url(#linear-gradient-26)"/>
      <path id="Path_143232" data-name="Path 143232" d="M1054.672,2098.611c3.409.88,5.99,1.717,7.015,3.625,1.083,2.016-1.01,3.292-1.894,7.445-1.355,6.357,2.141,9.064.541,15.446a16.746,16.746,0,0,1-2.013,4.735,17.674,17.674,0,0,1-5.551,2.558c-3.608.936-5.279.08-10.019-.042-7.753-.2-9.094,1.944-12.466.278-3.408-1.682-5.646-5.652-4.766-7.2.527-.925,1.889-.207,4.012-1.22,2.735-1.306,2.469-3.419,4.734-5.026,3.253-2.307,5.964.52,8.75-1.49,2.817-2.033,3.585-7.481,2.737-10.833-.554-2.189-.376-4.505-.737-6.734a1.412,1.412,0,0,1,.1-.8c.535-1.219,2.852-1.27,4.6-1.292A19.88,19.88,0,0,1,1054.672,2098.611Z" fill="url(#linear-gradient-27)"/>
      <path id="Path_143233" data-name="Path 143233" d="M1030.892,2130.253c1.127-.623.716-2.689,2.387-3.63,1.551-.872,2.589.523,4.808.039,2.847-.621,2.923-3.306,5.654-3.938,1.964-.455,2.44.814,5.2,1.095a11,11,0,0,0,8.984-3.287,9.851,9.851,0,0,0,2.124-3.638c.54,2.441,1.149,4.808.29,8.233a16.746,16.746,0,0,1-2.013,4.735,17.674,17.674,0,0,1-5.551,2.558c-3.608.936-5.279.08-10.019-.042-7.753-.2-9.094,1.944-12.466.278a10.036,10.036,0,0,1-4.587-4.8C1028.564,2130.33,1030.074,2130.706,1030.892,2130.253Z" opacity="0.3" fill="url(#linear-gradient-28)" style="mix-blend-mode: multiply;isolation: isolate"/>
      <path id="Path_143234" data-name="Path 143234" d="M1057.166,2092.792a9.415,9.415,0,0,1,.76,3.128c-.044,1.26-1.453,1.051-1.453,1.051l-.012.8a1.72,1.72,0,0,0,1,1.589l.542.252s-3.713.479-5.589-1.094l.579-.008a1.723,1.723,0,0,0,1.667-1.407l.063-.336S1054.411,2092.8,1057.166,2092.792Z" fill="url(#linear-gradient-29)"/>
      <g id="Group_89746" data-name="Group 89746">
        <path id="Path_143235" data-name="Path 143235" d="M1060.886,2113.181l5.552-9.576a.309.309,0,0,1,.339-.147l7.768,1.815a.311.311,0,0,1,.192.467l-6.442,10.3a.312.312,0,0,1-.369.128l-6.826-2.466Z" fill="url(#linear-gradient-30)"/>
        <path id="Path_143236" data-name="Path 143236" d="M1062.252,2112.094l4.495-7.754a.252.252,0,0,1,.275-.119l6.289,1.47a.251.251,0,0,1,.156.378l-5.216,8.341a.251.251,0,0,1-.3.1l-5.527-2Z" fill="url(#linear-gradient-31)"/>
        <path id="Path_143237" data-name="Path 143237" d="M1068.074,2104.429l.357-.622a.226.226,0,0,1,.247-.108l3.235.727a.227.227,0,0,1,.146.337l-.4.676a.227.227,0,0,1-.25.106l-3.195-.782A.227.227,0,0,1,1068.074,2104.429Z" fill="#d8dee8"/>
        <path id="Path_143238" data-name="Path 143238" d="M1072.311,2107.1l-.015,0-5.7-1.344a.131.131,0,1,1,.06-.255l5.695,1.344a.131.131,0,0,1,.1.157A.133.133,0,0,1,1072.311,2107.1Z" fill="#fff"/>
        <path id="Path_143239" data-name="Path 143239" d="M1071.954,2107.648l-.016,0-5.661-1.4a.131.131,0,1,1,.063-.254l5.66,1.4a.13.13,0,0,1,.1.159A.132.132,0,0,1,1071.954,2107.648Z" fill="#fff"/>
        <path id="Path_143240" data-name="Path 143240" d="M1068.968,2108.262l-.02,0-3.077-.849a.131.131,0,1,1,.07-.253l3.077.849a.131.131,0,0,1-.05.257Z" fill="#fff"/>
      </g>
      <path id="Path_143241" data-name="Path 143241" d="M1069.872,2113.52s1.374-.738,1.588-1.337a9,9,0,0,0,.3-1.761l-.918,1.552a.88.88,0,0,1-.45-.7c-.1-.553-.414-.089-.35.328A12.1,12.1,0,0,1,1069.872,2113.52Z" fill="url(#linear-gradient-32)"/>
      <path id="Path_143242" data-name="Path 143242" d="M1061.137,2101.566a9.591,9.591,0,0,1,2.361,2.577c2.221,3.594.85,7.032,2.844,8.507.57.422,1.606.825,3.6.345l.7.47s.423,4.68-5.164,4.269-7.637-7.623-7.637-7.623Z" fill="url(#linear-gradient-33)"/>
      <path id="Path_143243" data-name="Path 143243" d="M1056.448,2094.523c-.187-.031-.323-.283-.458-.223s-.156.413-.058.668a.89.89,0,0,0,.311.4,2.319,2.319,0,0,0-.485.891,3.209,3.209,0,0,0,.341,2.1c.744,2-.914,4.924-2.584,6.332-1.358,1.145-1.9.595-2.734,1.552-1.622,1.864.209,4.213-.766,6.822-1.483,3.967-8,4.643-8.267,4.668-.106.01-.178.016-.288.024-2.915.219-7.334.55-10.209-2.066a8.987,8.987,0,0,1-2.552-7.815,8.784,8.784,0,0,1,2.932-5.42,8.011,8.011,0,0,1,5.422-2.012c1.484.109,1.74.656,2.9.427a6.1,6.1,0,0,0,3.328-2.471c1.224-1.52.809-1.9,1.66-2.627,1.667-1.425,3.37-.057,5.126-1.29,1.731-1.215.906-3.127,2.566-4.166,1.713-1.071,4.762-.395,5.3,1.1C1058.4,2092.691,1057.022,2094.619,1056.448,2094.523Z" fill="url(#linear-gradient-34)"/>
    </g>
    <g id="Group_89749" data-name="Group 89749">
      <path id="Path_143244" data-name="Path 143244" d="M1139.026,2160.816s-3.832,1.948-3.894,2.259,2.464-.1,3.5-.06,1.88-.3,1.787-.784-.455-1.718-.455-1.718Z" fill="url(#linear-gradient-35)"/>
      <path id="Path_143245" data-name="Path 143245" d="M1138.886,2159.236l.233,1.929a1.221,1.221,0,0,0,1.015-.044l.173-2.116Z" fill="url(#linear-gradient-36)"/>
      <path id="Path_143246" data-name="Path 143246" d="M1156.934,2159.282l.446.8a1.059,1.059,0,0,1,.1.748c-.156.666-.467,1.962-.6,2.3-.185.46-2.665.734-2.665.734s-.221-.348.294-.768.846-.487,1.027-1.107a17.988,17.988,0,0,0,.3-2.375Z" fill="url(#linear-gradient-37)"/>
      <path id="Path_143247" data-name="Path 143247" d="M1155.079,2157.249a28.027,28.027,0,0,1,.959,2.848s.258.369.747-.175.222-.244.222-.244l-.092-2.659Z" fill="url(#linear-gradient-38)"/>
      <path id="Path_143248" data-name="Path 143248" d="M1136.778,2120.478c-.2,5.754-.211,12.006.085,18.686.334,7.521,1,14.473,1.848,20.774q.471.018.989,0c.232-.008.458-.02.676-.037a52.185,52.185,0,0,0,1.42-5.078,54.072,54.072,0,0,0,.991-5.945c.738-6.518-.127-7.086.472-11.917.531-4.278,1.285-4.445,2.171-10.519.96-6.59.245-7.579-.1-7.936C1143.847,2116.988,1140.368,2118.023,1136.778,2120.478Z" fill="url(#linear-gradient-39)"/>
      <path id="Path_143249" data-name="Path 143249" d="M1145.327,2118.509c-1.412-1.451-4.642-.573-8.053,1.641,3.924,4.74,4.352,7.816,3.882,9.811-.532,2.255-2.148,2.9-2.142,5.37.007,3.031,2.453,3.833,2.4,7.04-.034,2.121-1.109,2.1-1.363,4.717-.3,3.1,1.1,4.167.649,6.46a6.254,6.254,0,0,1-2.344,3.6c.114.941.232,1.873.354,2.788.314.011.644.013.989,0,.232-.008.458-.02.676-.037a52.235,52.235,0,0,0,1.42-5.077,54.125,54.125,0,0,0,.991-5.946c.738-6.518-.127-7.086.472-11.917.531-4.278,1.285-4.445,2.17-10.519C1146.39,2119.854,1145.675,2118.866,1145.327,2118.509Z" opacity="0.3" fill="url(#linear-gradient-40)" style="mix-blend-mode: multiply;isolation: isolate"/>
      <path id="Path_143250" data-name="Path 143250" d="M1139.208,2120.381a134.3,134.3,0,0,1,10.283,20.642,139.54,139.54,0,0,1,5.561,17.273,1.871,1.871,0,0,0,1.132.2,2.062,2.062,0,0,0,1.281-.774,41.57,41.57,0,0,0,.294-9.176,35.032,35.032,0,0,0-1.155-6.9c-.932-3.364-1.574-3.553-2.791-7.112-1.263-3.694-.957-4.616-2.167-9.239a65.493,65.493,0,0,0-2.7-8.106Z" fill="url(#linear-gradient-41)"/>
      <path id="Path_143251" data-name="Path 143251" d="M1138.309,2096.363c-1.823-.927-3.773-1.263-5.706-3.307a4.112,4.112,0,0,1-.705-1.038c-1.07-2.165-1.068-5.6.7-7.419a4.216,4.216,0,0,1,3.3-1.246c2.76.348,2.964,3.835,6.059,5.432,2.624,1.354,5.485.4,7.421-.243,4.662-1.551,5.354-4.486,7.771-4.018,3.029.586,3.3,5.456,6.314,5.756,2.017.2,2.5-1.915,5.149-2.5,3.115-.685,6.534,1.34,8.451,3.8,3.505,4.5,2.581,11.216.389,15.315-1.8,3.368-5.675,7.242-8.937,6.408-2.578-.658-3.417-3.907-5.635-3.584-1.5.218-1.437,1.722-3.5,2.824-2.726,1.459-6.27.594-8.451-.754a13.47,13.47,0,0,1-2.875-2.716,41.15,41.15,0,0,1-3.941-5.378C1141.1,2099.242,1139.592,2097.014,1138.309,2096.363Z" fill="url(#linear-gradient-42)"/>
      <path id="Path_143252" data-name="Path 143252" d="M1111.587,2086.884s-.631-.882-1.031-1.537a25.506,25.506,0,0,0-2.267-2.5s-.143.292.259.76,1.248,1.269,1.054,1.608-.742.638-.347,1.279,1.082.2,1.434.716.711,1.074.711,1.074Z" fill="url(#linear-gradient-43)"/>
      <path id="Path_143253" data-name="Path 143253" d="M1111.833,2086.309q-.638,1.078-1.276,2.158a23.169,23.169,0,0,0,2.543,5.572,21.414,21.414,0,0,0,5.514,5.881c4.214,3,11.892,5.8,14.139,2.607,2.006-2.849-1.231-9.166-1.827-10.3a14.85,14.85,0,0,1-5.738,1.67,13.441,13.441,0,0,1-5.457-.628C1115.2,2091.712,1112.682,2087.783,1111.833,2086.309Z" fill="url(#linear-gradient-44)"/>
      <path id="Path_143254" data-name="Path 143254" d="M1126.009,2095.95c.212,1.066,3.527.5,4.211,2.429.367,1.038-.413,1.7-.445,3.46-.037,1.974.9,3.094,1.625,4.647,1.057,2.274,1.061,4.5,1.069,8.96.011,6.346-1.392,7.622-.194,9.667,1.559,2.662,5.3,2.832,6.314,2.878,3.46.157,3.871-1.681,7.626-1.9,4.288-.251,4.9,2.08,7.965,1.086,2.8-.909,3.745-3.324,5.926-2.824,1.363.312,1.725,1.423,3.011,1.3a3.226,3.226,0,0,0,2.72-2.715c.114-1.633-1.671-3.69-4.468-3.693a7.948,7.948,0,0,1-5,.38c-3.357-.92-5.1-4.112-7.043-7.657a26.488,26.488,0,0,1-3.837-12.871c-.012-2.437.4-3.15-.194-4.453-1.93-4.23-9.415-3.6-10.048-3.538C1130.143,2091.6,1125.753,2094.664,1126.009,2095.95Z" fill="url(#linear-gradient-45)"/>
      <g id="Group_89748" data-name="Group 89748">
        <path id="Path_143255" data-name="Path 143255" d="M1124.337,2101.275l9.4.41a.256.256,0,0,1,.229.187l4.429,13.737c.063.2-.136.69-.322.668l-9.295-1.414a.259.259,0,0,1-.21-.18l-4.608-12.822C1123.9,2101.671,1124.155,2101.267,1124.337,2101.275Z" fill="url(#linear-gradient-46)"/>
        <path id="Path_143256" data-name="Path 143256" d="M1124.191,2101.611l9.4.41a.259.259,0,0,1,.229.187l4.429,13.737a.276.276,0,0,1-.266.378l-9.351-1.124a.261.261,0,0,1-.21-.18L1123.944,2102A.28.28,0,0,1,1124.191,2101.611Z" fill="url(#linear-gradient-47)"/>
        <path id="Path_143257" data-name="Path 143257" d="M1126.762,2102.122l-.363-1.095a.151.151,0,0,1,.127-.2h3.423a.138.138,0,0,1,.129.106l.344,1.211a.148.148,0,0,1-.133.2l-3.4-.116A.137.137,0,0,1,1126.762,2102.122Z" fill="url(#linear-gradient-48)"/>
        <path id="Path_143258" data-name="Path 143258" d="M1132.549,2113c-.611-2.214.394-3.656-.631-5.376-1.451-2.434-4.568-1.4-5.537-3.367a3.455,3.455,0,0,1-.034-2.55l-2.156-.094a.28.28,0,0,0-.247.385l4.479,13.023a.261.261,0,0,0,.21.18l5.683.684A6.343,6.343,0,0,1,1132.549,2113Z" opacity="0.3" fill="url(#linear-gradient-47)" style="mix-blend-mode: multiply;isolation: isolate"/>
      </g>
      <path id="Path_143259" data-name="Path 143259" d="M1139.415,2111.353a7.707,7.707,0,0,1-1.969-.7c-.548-.385-1.129-1-1.937-.971s-1.621.493-1.247.6,1.07.933,1.6,1.259a4.633,4.633,0,0,0,1.976.338,4.379,4.379,0,0,1,1.122.584Z" fill="url(#linear-gradient-50)"/>
      <path id="Path_143260" data-name="Path 143260" d="M1161.369,2119.248a7.948,7.948,0,0,1-5,.38c-3.357-.92-5.1-4.112-7.043-7.657a26.488,26.488,0,0,1-3.837-12.871c-.012-2.437.4-3.15-.194-4.453a4.5,4.5,0,0,0-.326-.584,5.1,5.1,0,0,0-2.2,3.191c-.4,2.37,1.5,4.309.51,6.354-.95,1.958-3.3,1.416-3.789,3.095-.528,1.811,2.072,2.9,2.186,5.7.138,3.359-3.474,5-2.841,7.25.548,1.947,3.571,1.807,3.57,2.851,0,1.242.093-1.322-3.57-2.851-1.11-.463-6.336,3.394-6.971,2.717a3.866,3.866,0,0,0,.414,2.741c1.559,2.662,5.3,2.832,6.314,2.878,3.46.157,3.871-1.681,7.626-1.9,4.288-.251,4.9,2.08,7.965,1.086,2.8-.909,3.745-3.324,5.926-2.824,1.363.312,1.725,1.423,3.011,1.3a3.226,3.226,0,0,0,2.72-2.715C1165.951,2121.308,1164.166,2119.251,1161.369,2119.248Z" opacity="0.3" fill="url(#linear-gradient-51)" style="mix-blend-mode: multiply;isolation: isolate"/>
      <path id="Path_143261" data-name="Path 143261" d="M1139.378,2110.7l-1.311,2.606c.674.369,7.879,4.181,13.1.408a8.949,8.949,0,0,0,3.287-4.135,11.224,11.224,0,0,0,.076-6.781c-.918-4-3.515-8.2-7.2-9.884a21.052,21.052,0,0,0-4.651-1.276c-1.333-.26-3.428-.578-3.473-.353-.022.11.465.251.8.465,2.018,1.277.735,5.529,1.881,9.337,1.353,4.5,5.373,5.445,4.826,7.329C1146.423,2109.427,1144.864,2110.483,1139.378,2110.7Z" fill="url(#linear-gradient-52)"/>
      <path id="Path_143262" data-name="Path 143262" d="M1134.488,2087.208s.846,2.751,1.9,3.179,2.72.92,2.929,1.11-5.6,2.3-8.856,1.329h0c.928-.454,1.176-.6,1.176-.6a5.542,5.542,0,0,0,1.144-.845,4.864,4.864,0,0,0,1.1-1.739l-.3-1.562Z" fill="url(#linear-gradient-53)"/>
      <path id="Path_143263" data-name="Path 143263" d="M1134.868,2088.409a1.625,1.625,0,0,1-1.654,1.032c-1.042-.168-.988-3.1-.281-3.595a1.254,1.254,0,0,1,1.07-.085,1.763,1.763,0,0,1,.828,1.782c.23-.137.458-.115.538.007.1.156-.063.438-.1.5A.855.855,0,0,1,1134.868,2088.409Z" fill="url(#linear-gradient-54)"/>
    </g>
    <g id="Group_89751" data-name="Group 89751">
      <path id="Path_143264" data-name="Path 143264" d="M1071.187,2097.668c-.382.144-6.214,2.463-7.412,8.55-.1.492-1.034,5.721,2.512,9.415,3.977,4.142,11.634,4.04,14.674.577a6.231,6.231,0,0,0,1.292-2.455h0l-.8-2.127a5.215,5.215,0,0,0-3.018-1.635c-1.752-.432-3.075.349-4.078-.5a2.644,2.644,0,0,1-.764-1.741c-.335-2.046.82-3.306.9-4.568.063-.944.393-3.011-.838-4.359A3.972,3.972,0,0,0,1071.187,2097.668Z" fill="url(#linear-gradient-55)"/>
      <path id="Path_143265" data-name="Path 143265" d="M1068.915,2165.5c-.068-.375-1.278-.714-1.877-.212-.3.249-.5.754-.33.982.062.083-.194.229.052.232C1067.575,2166.512,1068.983,2165.872,1068.915,2165.5Z" fill="url(#linear-gradient-56)"/>
      <path id="Path_143266" data-name="Path 143266" d="M1067.647,2165.636l-1.245-.176c.577-.694.47-2.905.47-2.905l1.324.3s-.151.607-.408,1.5A5.834,5.834,0,0,0,1067.647,2165.636Z" fill="url(#linear-gradient-57)"/>
      <path id="Path_143267" data-name="Path 143267" d="M1067.757,2165.483s-1.5-.345-1.66-.048-.288,1.093.663,1.067S1067.842,2165.735,1067.757,2165.483Z" fill="url(#linear-gradient-58)"/>
      <path id="Path_143268" data-name="Path 143268" d="M1085.991,2166.905c-.12-.362-1.366-.528-1.889.053-.259.288-.392.817-.189,1.019.073.073-.16.253.084.222C1084.805,2168.094,1086.11,2167.264,1085.991,2166.905Z" fill="url(#linear-gradient-59)"/>
      <path id="Path_143269" data-name="Path 143269" d="M1084.754,2167.217H1083.5c.474-.768.059-2.942.059-2.942l1.351.108s-.064.622-.193,1.544A5.9,5.9,0,0,0,1084.754,2167.217Z" fill="url(#linear-gradient-60)"/>
      <path id="Path_143270" data-name="Path 143270" d="M1088.011,2119.689a58.141,58.141,0,0,1,1.949,8.919c1.527,11.1-1.718,11.459-1.112,23.765.193,3.928-3.4,12.985-3.72,13.185a3.952,3.952,0,0,1-.5.02,5,5,0,0,1-1.266-.211c-.57-.1-2.624-5.662-2.148-8.97.337-2.341.239-4.853.044-9.878-.032-.815-2.115-15.841-2.115-15.841h0c-.633,5.562-1.362,10.288-1.994,13.952-2.03,11.772-8.63,18.9-8.974,19.012a1.4,1.4,0,0,1-1.194-.082.823.823,0,0,1-.3-.34,96.823,96.823,0,0,1,2.065-20.494c2.922-12.688,1.65-15.657,2.576-21.324C1072.123,2116.5,1088.011,2119.689,1088.011,2119.689Z" fill="url(#linear-gradient-61)"/>
      <path id="Path_143271" data-name="Path 143271" d="M1088.794,2121.606a20.437,20.437,0,0,1-11.66,1.712,18.148,18.148,0,0,1-5.689-1.851l-.124-.063c1.4-4.231.3-6.5-.215-8.582-.738-2.975-.749-2.75-1.357-5.115-1-3.9-1.165-7.885-.477-8.7,1.855-2.2,5.2-2.279,6.936-2.331,1.94-.057,6.4-.741,8.855,1.468.043.038-.46.307-.212.6a16.193,16.193,0,0,1,1.734,2.488,16.813,16.813,0,0,1,1.458,3.6,31.05,31.05,0,0,1,1.15,6.291c.026.347.049.684.07,1.008A31.862,31.862,0,0,1,1088.794,2121.606Z" fill="url(#linear-gradient-62)"/>
      <path id="Path_143272" data-name="Path 143272" d="M1084.842,2167.05s-1.532-.132-1.651.185-.132,1.122.806.964S1084.961,2167.288,1084.842,2167.05Z" fill="url(#linear-gradient-63)"/>
      <g id="Group_89750" data-name="Group 89750">
        <path id="Path_143273" data-name="Path 143273" d="M1081.792,2094.2a3.379,3.379,0,0,0,.1-2.44c-.326-1.03-.431-1.182-.64-1.39l-.3-.272-.037-.022a3.959,3.959,0,0,0-1.083-.279c-.494.009-1.372,1.845-1.756,4.6-.04.1-.079.2-.118.3-.241.637-.443,1.261-.611,1.867-3.306.514-3.741.936-3.74,1.163,0,.476,1.936.892,3.376,1,3.14.238,6.278-.8,6.223-1.384-.024-.252-.665-.538-3.324-.7l.093-1.322C1080.193,2095.268,1081.4,2094.975,1081.792,2094.2Z" fill="url(#linear-gradient-64)"/>
        <path id="Path_143274" data-name="Path 143274" d="M1082.092,2089.509a3.233,3.233,0,0,1-.971,1.779,1.451,1.451,0,0,0-.371.276.427.427,0,0,0-.067.09c-.289.5.438,1.29.228,1.5-.152.15-.684-.193-.781-.056s.331.512.225.666c-.08.117-.352-.056-.576.1-.111.079-.1.161-.254.439a2.729,2.729,0,0,1-.281.417c-.389.44-1.252.462-1.374.232-.033-.064.014-.1,0-.3a1.491,1.491,0,0,0-.09-.4,3.9,3.9,0,0,0-.85-.982,2.8,2.8,0,0,1-.816-1.394c-.011-.061-.017-.107-.021-.14a3.2,3.2,0,0,1,.485-2.089c.652-.853,1.625-.2,2.673-.968,1.21-.886.9-2.477,1.473-2.535C1081.362,2086.079,1082.4,2087.945,1082.092,2089.509Z" fill="#26264f"/>
        <path id="Path_143275" data-name="Path 143275" d="M1080.646,2092.893c-.153-.325-.569-.128-.643.241a.685.685,0,0,0,.571.815C1080.935,2093.943,1080.851,2093.331,1080.646,2092.893Z" fill="url(#linear-gradient-65)"/>
      </g>
      <path id="Path_143276" data-name="Path 143276" d="M1088.794,2121.606a20.437,20.437,0,0,1-11.66,1.712,18.148,18.148,0,0,1-5.689-1.851,26.207,26.207,0,0,0,2.668-2.685,3.3,3.3,0,0,1,4.412-.418,2.509,2.509,0,0,0,3.784-2.094,11.185,11.185,0,0,0-.056-1.4c-.364-3.81,4.914-4.134,4.914-4.134.745-.387,1.452.238,2.1,1.4A31.862,31.862,0,0,1,1088.794,2121.606Z" opacity="0.3" fill="url(#linear-gradient-66)" style="mix-blend-mode: multiply;isolation: isolate"/>
      <path id="Path_143277" data-name="Path 143277" d="M1107.247,2104.633a2.05,2.05,0,0,0-.65.338c-.257.145-.515.288-.777.425a3.385,3.385,0,0,1-1.619.448,1.324,1.324,0,0,1,.077-.244c.1-.229.227-.427.15-.5-.11-.1-.6.106-1.043.535a2.842,2.842,0,0,0-.5.621c-.229.39-.19.6-.381.9a1.369,1.369,0,0,1-.5.311v.082l.032.1a2.623,2.623,0,0,1-.766.384c.4.106.783.214,1.176.323l.274.456a9.386,9.386,0,0,0,2.391-.858,1.149,1.149,0,0,0,.6-.836,1.046,1.046,0,0,0-.059-.531,3.544,3.544,0,0,0,1.714-1.614C1107.447,2104.808,1107.454,2104.613,1107.247,2104.633Z" fill="url(#linear-gradient-67)"/>
      <path id="Path_143278" data-name="Path 143278" d="M1102.042,2107.011a3.9,3.9,0,0,1,1.273,1.583,11.764,11.764,0,0,1-4.107,5.116,12.092,12.092,0,0,1-13.846-.29c-4.844-3.7-5.653-10.8-3.619-13.837a3.393,3.393,0,0,1,2.2-1.632c.755-.084,1.783.228,3.406,2.129,3.383,3.96,2.188,6.433,4.187,7.592C1094.532,2109.41,1098.986,2104.873,1102.042,2107.011Z" fill="url(#linear-gradient-68)"/>
    </g>
    <g id="Group_89752" data-name="Group 89752">
      <path id="Path_143279" data-name="Path 143279" d="M1034.89,2033.216a12.693,12.693,0,0,1,12.087-11.986,10.533,10.533,0,0,1,11.176,10.979,12.7,12.7,0,0,1-11.958,11.981A10.535,10.535,0,0,1,1034.89,2033.216Z" fill="url(#linear-gradient-69)"/>
      <path id="Path_143280" data-name="Path 143280" d="M1021.77,2032.183l-.106,3.1a1.517,1.517,0,0,0,1.63,1.573l1.692-.075a19.077,19.077,0,0,0,.956,4.232l-1.429.857a1.711,1.711,0,0,0-.693,2.278l1.493,2.606a3.268,3.268,0,0,0,3.369.725l.258-1.051a18.421,18.421,0,0,0,3.087,3.04l-.782,1.293a1.543,1.543,0,0,0,.536,2.21l2.67,1.4c.783.41,3.322.474,3.809-.333l-.763-1.628a19.743,19.743,0,0,0,4.375.95l-.047,1.374a1.483,1.483,0,0,0,1.6,1.545l3.111-.167a1.823,1.823,0,0,0,1.7-1.717l.047-1.37a22.063,22.063,0,0,0,4.413-1.4l.657,1.161c.427.753,3.045,1.141,3.844.651l1.093-1.84a1.7,1.7,0,0,0,.673-2.245l-.679-1.2a23.177,23.177,0,0,0,3.221-3.312l1.262.676c.763.409,3.022.617,3.5-.178l.361-3.231a1.538,1.538,0,0,0-.518-2.179l-1.327-.715a21.308,21.308,0,0,0,1.207-4.255l1.629-.073a1.778,1.778,0,0,0,1.674-1.686l.1-3.038a1.477,1.477,0,0,0-1.564-1.546l-1.725.072a19,19,0,0,0-1.024-4.047l1.579-.952a1.688,1.688,0,0,0,.668-2.23l.3-3.019c-.422-.756-3.144-.542-3.937-.067l-1.662,1a18.356,18.356,0,0,0-2.915-2.822l1.023-1.7a1.551,1.551,0,0,0-.522-2.193l-1.138-1.647c-.768-.422-3.253.089-3.732.882l-1.052,1.739a19.655,19.655,0,0,0-4.038-.921l.068-1.991a1.512,1.512,0,0,0-1.593-1.574l-3.109.1a1.784,1.784,0,0,0-1.711,1.687l-.068,2a22.067,22.067,0,0,0-4.149,1.209l.618-2.107c-.433-.767-3.009-.576-3.821-.1l-2.774,1.636a1.7,1.7,0,0,0-.688,2.262l.932,1.647a23.3,23.3,0,0,0-3.194,3.085l.07-1.056c-.787-.424-3.54.052-4.031.856l-1.675,2.743a1.558,1.558,0,0,0,.54,2.225l1.573.842a21.453,21.453,0,0,0-1.347,4.217l-1.791.075A1.828,1.828,0,0,0,1021.77,2032.183Zm7.92,1.52a17.476,17.476,0,0,1,16.64-16.5,14.5,14.5,0,0,1,15.388,15.116,17.487,17.487,0,0,1-16.464,16.495A14.5,14.5,0,0,1,1029.69,2033.7Z" fill="url(#linear-gradient-70)"/>
      <path id="Path_143281" data-name="Path 143281" d="M1023.854,2032.157l-.106,3.1a1.518,1.518,0,0,0,1.63,1.573l1.692-.075a19.1,19.1,0,0,0,.956,4.232l-1.429.857a1.71,1.71,0,0,0-.693,2.277l1.493,2.607a1.623,1.623,0,0,0,2.275.489l1.352-.815a18.463,18.463,0,0,0,3.087,3.04l-.782,1.293a1.543,1.543,0,0,0,.536,2.21l2.67,1.4a1.778,1.778,0,0,0,2.3-.719l.749-1.243a19.6,19.6,0,0,0,4.375.95l-.047,1.375a1.481,1.481,0,0,0,1.6,1.544l3.111-.166a1.825,1.825,0,0,0,1.705-1.717l.047-1.37a22.211,22.211,0,0,0,4.413-1.4l.657,1.161a1.569,1.569,0,0,0,2.218.477l2.719-1.666a1.7,1.7,0,0,0,.673-2.245l-.68-1.2a23.242,23.242,0,0,0,3.222-3.312l1.262.676a1.72,1.72,0,0,0,2.241-.7l1.617-2.708a1.537,1.537,0,0,0-.519-2.179l-1.326-.715a21.231,21.231,0,0,0,1.206-4.256l1.63-.072a1.779,1.779,0,0,0,1.674-1.686l.1-3.038a1.476,1.476,0,0,0-1.564-1.546l-1.725.072a18.886,18.886,0,0,0-1.024-4.048l1.579-.951a1.689,1.689,0,0,0,.669-2.231l-1.437-2.576a1.563,1.563,0,0,0-2.2-.509l-1.661,1a18.435,18.435,0,0,0-2.915-2.821l1.023-1.7a1.551,1.551,0,0,0-.522-2.193l-2.613-1.436a1.716,1.716,0,0,0-2.257.67l-1.052,1.74a19.609,19.609,0,0,0-4.038-.921l.067-1.991a1.512,1.512,0,0,0-1.592-1.575l-3.11.1a1.784,1.784,0,0,0-1.71,1.687l-.068,2a21.976,21.976,0,0,0-4.149,1.21l-.949-1.682a1.616,1.616,0,0,0-2.255-.523l-2.774,1.637a1.7,1.7,0,0,0-.688,2.262l.933,1.647a23.228,23.228,0,0,0-3.194,3.084l-1.647-.887a1.776,1.776,0,0,0-2.314.688l-1.675,2.743a1.557,1.557,0,0,0,.539,2.224l1.574.843a21.359,21.359,0,0,0-1.347,4.216l-1.791.075A1.828,1.828,0,0,0,1023.854,2032.157Zm7.24,1.549a18.217,18.217,0,0,1,17.347-17.2,15.119,15.119,0,0,1,16.04,15.757,18.228,18.228,0,0,1-17.162,17.2A15.12,15.12,0,0,1,1031.094,2033.706Z" fill="url(#linear-gradient-71)"/>
      <path id="Path_143282" data-name="Path 143282" d="M1036.156,2033.487a12.693,12.693,0,0,1,12.087-11.987,10.535,10.535,0,0,1,11.177,10.979,12.7,12.7,0,0,1-11.959,11.981A10.534,10.534,0,0,1,1036.156,2033.487Z" fill="url(#linear-gradient-72)"/>
    </g>
    <g id="Group_89753" data-name="Group 89753">
      <path id="Path_143283" data-name="Path 143283" d="M1074.694,2040.116l-.041,1.206a.589.589,0,0,0,.634.611l.657-.029a7.4,7.4,0,0,0,.372,1.645l-.556.333a.666.666,0,0,0-.269.886l.58,1.013a1.27,1.27,0,0,0,1.31.281l.1-.408a7.145,7.145,0,0,0,1.2,1.182l-.3.5a.6.6,0,0,0,.208.858l1.038.545c.3.16,1.292.184,1.481-.129l-.3-.633a7.648,7.648,0,0,0,1.7.369l-.018.534a.576.576,0,0,0,.622.6l1.209-.065a.709.709,0,0,0,.663-.667l.018-.533a8.622,8.622,0,0,0,1.716-.545l.255.452a1.625,1.625,0,0,0,1.494.253l.425-.716a.661.661,0,0,0,.262-.872l-.264-.468a9.068,9.068,0,0,0,1.252-1.288l.491.263c.3.159,1.174.24,1.359-.069l.14-1.256a.6.6,0,0,0-.2-.847l-.516-.278a8.264,8.264,0,0,0,.469-1.654l.633-.028a.692.692,0,0,0,.651-.656l.04-1.181a.574.574,0,0,0-.608-.6l-.67.028a7.361,7.361,0,0,0-.4-1.573l.614-.37a.657.657,0,0,0,.26-.867l.116-1.173c-.164-.294-1.222-.211-1.53-.026l-.646.387a7.127,7.127,0,0,0-1.133-1.1l.4-.66a.6.6,0,0,0-.2-.852l-.443-.64a1.616,1.616,0,0,0-1.45.342l-.409.676a7.615,7.615,0,0,0-1.57-.357l.026-.775a.588.588,0,0,0-.619-.612l-1.208.04a.693.693,0,0,0-.665.656l-.027.776a8.609,8.609,0,0,0-1.612.47l.24-.819c-.169-.3-1.17-.224-1.486-.038l-1.078.636a.66.66,0,0,0-.268.88l.363.64a9.026,9.026,0,0,0-1.242,1.2l.028-.41a1.835,1.835,0,0,0-1.567.332l-.651,1.067a.6.6,0,0,0,.209.864l.612.328a8.36,8.36,0,0,0-.524,1.639l-.7.029A.71.71,0,0,0,1074.694,2040.116Zm4.463.531a5.283,5.283,0,0,1,5.03-4.989,4.384,4.384,0,0,1,4.651,4.57,5.286,5.286,0,0,1-4.977,4.986A4.384,4.384,0,0,1,1079.157,2040.647Z" fill="url(#linear-gradient-73)"/>
      <path id="Path_143284" data-name="Path 143284" d="M1075.5,2040.106l-.041,1.206a.59.59,0,0,0,.634.611l.657-.029a7.4,7.4,0,0,0,.372,1.645l-.556.333a.665.665,0,0,0-.269.885l.58,1.014a.63.63,0,0,0,.884.19l.526-.317a7.181,7.181,0,0,0,1.2,1.182l-.3.5a.6.6,0,0,0,.208.859l1.038.545a.692.692,0,0,0,.893-.28l.291-.483a7.651,7.651,0,0,0,1.7.37l-.018.534a.575.575,0,0,0,.622.6l1.209-.064a.709.709,0,0,0,.663-.668l.018-.532a8.621,8.621,0,0,0,1.716-.545l.255.451a.611.611,0,0,0,.863.186l1.056-.648a.661.661,0,0,0,.262-.872l-.264-.469a9.01,9.01,0,0,0,1.252-1.287l.491.263a.668.668,0,0,0,.871-.273l.628-1.052a.6.6,0,0,0-.2-.847l-.516-.278a8.274,8.274,0,0,0,.469-1.654l.633-.029a.691.691,0,0,0,.651-.655l.04-1.181a.574.574,0,0,0-.608-.6l-.67.028a7.346,7.346,0,0,0-.4-1.573l.614-.37a.657.657,0,0,0,.26-.867l-.559-1a.609.609,0,0,0-.855-.2l-.646.388a7.123,7.123,0,0,0-1.133-1.1l.4-.66a.6.6,0,0,0-.2-.852l-1.016-.559a.667.667,0,0,0-.877.261l-.409.676a7.683,7.683,0,0,0-1.57-.358l.026-.774a.588.588,0,0,0-.619-.612l-1.208.04a.693.693,0,0,0-.665.656l-.027.776a8.61,8.61,0,0,0-1.612.47l-.369-.654a.629.629,0,0,0-.877-.2l-1.078.636a.66.66,0,0,0-.268.88l.363.64a9.032,9.032,0,0,0-1.242,1.2l-.64-.345a.69.69,0,0,0-.9.267l-.651,1.067a.6.6,0,0,0,.209.864l.612.328a8.329,8.329,0,0,0-.524,1.639l-.7.029A.71.71,0,0,0,1075.5,2040.106Zm4.463.531a5.283,5.283,0,0,1,5.03-4.989,4.383,4.383,0,0,1,4.651,4.569,5.286,5.286,0,0,1-4.977,4.986A4.383,4.383,0,0,1,1079.967,2040.637Z" fill="url(#linear-gradient-74)"/>
    </g>
  </g>
</svg>
