<svg xmlns="http://www.w3.org/2000/svg" width="87.068" height="86" viewBox="0 0 87.068 86">
  <g id="Group_125801" data-name="Group 125801" transform="translate(-916.466 -496.96)">
    <path id="Path_175369" data-name="Path 175369" d="M1003.534,578.4l-7.867,4.529c-.036-.337-.078-.547-.078-.758-.005-2.548.012-5.1-.015-7.644a1.055,1.055,0,0,1,.614-1.066c2.459-1.4,4.9-2.826,7.346-4.244Z" fill="#1a2e48"/>
    <path id="Path_175370" data-name="Path 175370" d="M916.466,569.22c2.448,1.416,4.9,2.824,7.336,4.261.254.149.58.464.584.706.04,2.854.026,5.709.026,8.773l-7.946-4.557Z" fill="#1a2e48"/>
    <path id="Path_175371" data-name="Path 175371" d="M974.828,511.849a14.827,14.827,0,1,1-14.663-14.889A14.845,14.845,0,0,1,974.828,511.849Zm-11.24,4.308a3.146,3.146,0,0,1-.484.889c-1.458,1.521-5.945,1.57-6.731-1.287a1.42,1.42,0,0,0-1.9-1.078,1.5,1.5,0,0,0-.827,2.033,5.657,5.657,0,0,0,3.809,3.814c.785.257,1.158.534,1.149,1.407a1.3,1.3,0,0,0,1.347,1.259,1.261,1.261,0,0,0,1.42-1.163c-.024-1.042.495-1.358,1.372-1.48a2.784,2.784,0,0,0,.786-.313,4.63,4.63,0,0,0,2.936-3.952,4.7,4.7,0,0,0-2.486-4.678,13.5,13.5,0,0,0-2.67-1.051c-.942-.3-1.938-.421-2.871-.738a1.9,1.9,0,0,1-1.506-1.837,2.2,2.2,0,0,1,1.464-2.091,3.612,3.612,0,0,1,4.819,1.546c.534.951,1.3,1.267,2.08.86a1.524,1.524,0,0,0,.486-2.206,5.869,5.869,0,0,0-3.714-3.142c-.485-.144-.635-.348-.622-.818a1.979,1.979,0,0,0-.162-.908,1.428,1.428,0,0,0-2.709.673.962.962,0,0,1-.885,1.164,3.529,3.529,0,0,0-1,.447,4.928,4.928,0,0,0-2.643,4.7,4.556,4.556,0,0,0,2.929,4.129,18.472,18.472,0,0,0,2.416.772c.972.291,1.975.5,2.914.872A2.1,2.1,0,0,1,963.588,516.157Z" fill="#1a2e48"/>
    <path id="Path_175372" data-name="Path 175372" d="M958.545,544.065c0-1.865,0-3.641,0-5.418,0-.453-.018-.908.013-1.36a1.435,1.435,0,0,1,1.437-1.475,1.4,1.4,0,0,1,1.442,1.466c.041,1.727.017,3.457.02,5.185,0,.5,0,1.005,0,1.6h32.032c1.687,0,2.1.41,2.1,2.108,0,2.692.01,5.384-.01,8.076a1.421,1.421,0,0,1-1.391,1.517,1.484,1.484,0,0,1-1.486-1.445,6.676,6.676,0,0,1-.011-.679q0-2.807,0-5.611v-1H961.5c-.015.312-.042.613-.042.914-.005,2.012.007,4.024-.008,6.036-.008,1.094-.553,1.749-1.419,1.772-.894.024-1.476-.657-1.484-1.791-.013-1.983,0-3.967,0-5.951v-.987H927.316v.939c0,2.068.018,4.137-.011,6.206a1.472,1.472,0,0,1-1.453,1.568,1.442,1.442,0,0,1-1.43-1.568q-.025-4.251,0-8.5c.006-1.067.559-1.59,1.657-1.6,1.9-.016,3.8-.005,5.7-.005h26.771Z" fill="#1a2e48"/>
    <path id="Path_175373" data-name="Path 175373" d="M986.229,566.719c2.617-1.509,5.082-2.938,7.561-4.344a.831.831,0,0,1,.69-.031c2.5,1.418,4.989,2.864,7.6,4.374-1.217.706-2.326,1.351-3.436,1.993-1.32.764-2.632,1.543-3.971,2.273a1.1,1.1,0,0,1-.9.073C991.291,569.661,988.829,568.222,986.229,566.719Z" fill="#1a2e48"/>
    <path id="Path_175374" data-name="Path 175374" d="M917.929,566.72c2.6-1.5,5.069-2.934,7.547-4.341a.829.829,0,0,1,.69-.037c2.5,1.416,4.989,2.86,7.613,4.375-.985.572-1.85,1.075-2.716,1.576-1.564.906-3.121,1.826-4.7,2.7a1.093,1.093,0,0,1-.9.054C922.976,569.652,920.513,568.214,917.929,566.72Z" fill="#1a2e48"/>
    <path id="Path_175375" data-name="Path 175375" d="M967.856,566.768c-2.536,1.463-5.025,2.909-7.529,4.328a.817.817,0,0,1-.68-.019c-2.48-1.409-4.946-2.842-7.484-4.308a4.362,4.362,0,0,1,.458-.362c2.273-1.317,4.542-2.642,6.834-3.925a1.182,1.182,0,0,1,.978-.062c2.393,1.334,4.759,2.716,7.131,4.088A2.314,2.314,0,0,1,967.856,566.768Z" fill="#1a2e48"/>
    <path id="Path_175376" data-name="Path 175376" d="M927.318,582.9c0-2.984-.008-5.839.015-8.693a.823.823,0,0,1,.357-.588c2.414-1.414,4.842-2.8,7.269-4.194.038-.022.106.006.262.02V572.2c0,1.867.02,3.735-.021,5.6a1.189,1.189,0,0,1-.463.865c-2.307,1.372-4.643,2.7-6.971,4.034C927.674,582.753,927.57,582.787,927.318,582.9Z" fill="#1a2e48"/>
    <path id="Path_175377" data-name="Path 175377" d="M950.629,569.246c2.082,1.2,3.956,2.427,5.962,3.381a3.03,3.03,0,0,1,1.995,3.462c-.181,1.909-.041,3.848-.041,5.774V582.9c-.347-.172-.572-.268-.782-.39-2.158-1.242-4.306-2.5-6.476-3.721a1.1,1.1,0,0,1-.673-1.119C950.647,574.927,950.629,572.182,950.629,569.246Z" fill="#1a2e48"/>
    <path id="Path_175378" data-name="Path 175378" d="M969.371,569.248c0,3.032.007,5.89-.015,8.748a.818.818,0,0,1-.342.6c-2.417,1.415-4.848,2.8-7.278,4.2-.04.022-.107,0-.279-.012v-1.143c0-2.38-.011-4.759.016-7.138a1.139,1.139,0,0,1,.343-.852C964.265,572.181,966.741,570.767,969.371,569.248Z" fill="#1a2e48"/>
    <path id="Path_175379" data-name="Path 175379" d="M984.866,569.329c.319.167.589.3.848.445,2.13,1.228,4.263,2.451,6.378,3.705.251.148.565.47.568.715.04,2.855.025,5.711.025,8.657a5.057,5.057,0,0,1-.588-.234c-2.255-1.295-4.513-2.583-6.748-3.912a1.192,1.192,0,0,1-.543-.818c-.039-2.715-.023-5.432-.019-8.148A2.706,2.706,0,0,1,984.866,569.329Z" fill="#1a2e48"/>
  </g>
</svg>
