<svg xmlns="http://www.w3.org/2000/svg" width="400" height="175.34" viewBox="0 0 400 175.34">
  <g id="Grupo_102804" data-name="Grupo 102804" transform="translate(-1385.936 -948.054)">
    <g id="Grupo_102864" data-name="Grupo 102864" transform="translate(1385.936 948.054)">
      <path id="Trazado_163559" data-name="Trazado 163559" d="M1785.936,970.228v129.834a22.23,22.23,0,0,1-22.165,22.165H1408.1a22.2,22.2,0,0,1-22.166-22.165V970.228a22.232,22.232,0,0,1,22.166-22.166h355.669A22.231,22.231,0,0,1,1785.936,970.228Z" transform="translate(-1385.936 -948.048)" fill="#e3d2ff" opacity="0.4"/>
      <g id="Grupo_102811" data-name="Grupo 102811" transform="translate(159.897 41.771)">
        <path id="Trazado_163560" data-name="Trazado 163560" d="M1537.777,972.195l-6.5,14.4-.179-.037-19.41-3.907s9.109-.449,10.091-1.171c.926-.68,10.792-8.865,13.589-9.552a1.146,1.146,0,0,1,.431-.039Z" transform="translate(-1451.092 -971.877)" fill="#e58638"/>
        <path id="Trazado_163561" data-name="Trazado 163561" d="M1548.768,987.128c-.452.068-1.81.244-3.668.451-5.343.594-14.834,1.452-18.968.771-3.707-.609-23.313-3.875-36.869-6.251a21.946,21.946,0,0,1,11.581-6.936c15.8,2.7,36.455,6.272,39.071,6.943,4.3,1.107,10.033,2.246,10.033,2.246s.031.138.058.354C1550.092,985.408,1550.115,986.925,1548.768,987.128Z" transform="translate(-1467.986 -969.401)" fill="#e58638"/>
        <path id="Trazado_163562" data-name="Trazado 163562" d="M1557.91,988.613c-.452.068-1.81.244-3.668.451-5.343.594-14.834,1.452-18.968.771-3.707-.609-23.313-3.875-36.869-6.251-6.807-1.192-12.088-2.16-13.063-2.456-2.916-.882-8.909-3.579-8.148-4.8s3.158-1.189,3.9-1.608l.032-.018c.174-.1.458-.259.866-.443,1.46-.654,4.5-1.568,9.637-.728,0,0,8.169,1.376,18.362,3.118,15.8,2.7,36.455,6.272,39.071,6.943,4.3,1.107,10.033,2.246,10.033,2.246s.031.138.058.354C1559.234,986.893,1559.257,988.409,1557.91,988.613Z" transform="translate(-1477.128 -970.885)" fill="#d4affb"/>
        <path id="Trazado_163563" data-name="Trazado 163563" d="M1525.825,983.1c-.452.068-1.81.244-3.666.451a5.3,5.3,0,0,0-2.444-3.042l7.349.17C1527.149,981.38,1527.172,982.9,1525.825,983.1Z" transform="translate(-1445.043 -965.373)" fill="#b473f0"/>
        <g id="Grupo_102809" data-name="Grupo 102809" transform="translate(3.994 3.372)">
          <g id="Grupo_102807" data-name="Grupo 102807">
            <g id="Grupo_102804-2" data-name="Grupo 102804" transform="translate(11.115 2.239)">
              <path id="Trazado_163564" data-name="Trazado 163564" d="M1493.183,976.321a.225.225,0,0,0-.26.182l-.041.233a.224.224,0,0,0,.442.077l.04-.233A.225.225,0,0,0,1493.183,976.321Z" transform="translate(-1480.369 -974.142)" fill="#ab69f0"/>
              <path id="Trazado_163565" data-name="Trazado 163565" d="M1494.454,976.542a.226.226,0,0,0-.26.182l-.041.233a.224.224,0,0,0,.442.077l.04-.233A.226.226,0,0,0,1494.454,976.542Z" transform="translate(-1479.412 -973.976)" fill="#ab69f0"/>
              <path id="Trazado_163566" data-name="Trazado 163566" d="M1492.533,976.208a.224.224,0,0,0-.258.182l-.042.233a.224.224,0,1,0,.442.077l.04-.233A.222.222,0,0,0,1492.533,976.208Z" transform="translate(-1480.859 -974.227)" fill="#ab69f0"/>
              <path id="Trazado_163567" data-name="Trazado 163567" d="M1491.885,976.1a.225.225,0,0,0-.26.182l-.04.233a.223.223,0,1,0,.44.077l.042-.233A.225.225,0,0,0,1491.885,976.1Z" transform="translate(-1481.349 -974.312)" fill="#ab69f0"/>
              <path id="Trazado_163568" data-name="Trazado 163568" d="M1491.234,975.982a.225.225,0,0,0-.259.182l-.041.233a.224.224,0,0,0,.182.26.226.226,0,0,0,.26-.182l.04-.233A.225.225,0,0,0,1491.234,975.982Z" transform="translate(-1481.838 -974.398)" fill="#ab69f0"/>
              <path id="Trazado_163569" data-name="Trazado 163569" d="M1490.584,975.869h0a.226.226,0,0,0-.26.182l-.041.233a.226.226,0,0,0,.182.26h0a.226.226,0,0,0,.26-.182l.04-.233A.225.225,0,0,0,1490.584,975.869Z" transform="translate(-1482.328 -974.483)" fill="#ab69f0"/>
              <path id="Trazado_163570" data-name="Trazado 163570" d="M1489.934,975.756a.224.224,0,0,0-.259.182l-.04.233a.224.224,0,1,0,.442.077l.04-.233A.225.225,0,0,0,1489.934,975.756Z" transform="translate(-1482.818 -974.568)" fill="#ab69f0"/>
              <path id="Trazado_163571" data-name="Trazado 163571" d="M1489.284,975.643a.225.225,0,0,0-.26.182l-.04.233a.224.224,0,0,0,.442.077l.041-.233A.224.224,0,0,0,1489.284,975.643Z" transform="translate(-1483.307 -974.653)" fill="#ab69f0"/>
              <path id="Trazado_163572" data-name="Trazado 163572" d="M1488.636,975.53a.223.223,0,0,0-.259.182l-.042.233a.224.224,0,0,0,.442.077l.042-.233A.225.225,0,0,0,1488.636,975.53Z" transform="translate(-1483.797 -974.738)" fill="#ab69f0"/>
              <path id="Trazado_163573" data-name="Trazado 163573" d="M1487.985,975.417a.223.223,0,0,0-.26.182l-.04.233a.224.224,0,1,0,.442.077l.04-.235A.224.224,0,0,0,1487.985,975.417Z" transform="translate(-1484.286 -974.823)" fill="#ab69f0"/>
              <path id="Trazado_163574" data-name="Trazado 163574" d="M1487.348,975.306a.226.226,0,0,0-.26.182l-.04.233a.224.224,0,1,0,.442.077l.041-.233A.225.225,0,0,0,1487.348,975.306Z" transform="translate(-1484.766 -974.907)" fill="#ab69f0"/>
              <path id="Trazado_163575" data-name="Trazado 163575" d="M1486.7,975.193a.226.226,0,0,0-.26.182l-.04.233a.224.224,0,1,0,.442.077l.04-.233A.225.225,0,0,0,1486.7,975.193Z" transform="translate(-1485.255 -974.992)" fill="#ab69f0"/>
              <path id="Trazado_163576" data-name="Trazado 163576" d="M1486.048,975.08a.226.226,0,0,0-.259.182l-.041.233a.224.224,0,1,0,.442.077l.04-.233A.223.223,0,0,0,1486.048,975.08Z" transform="translate(-1485.745 -975.077)" fill="#ab69f0"/>
            </g>
            <path id="Trazado_163577" data-name="Trazado 163577" d="M1481.512,974.195l-1.24-.395c-.409.184-.693.345-.866.443l1.9.6a.39.39,0,0,0,.109.016.343.343,0,0,0,.1-.67Z" transform="translate(-1479.406 -973.8)" fill="#ab69f0"/>
            <g id="Grupo_102805" data-name="Grupo 102805" transform="translate(30.921 5.122)">
              <path id="Trazado_163578" data-name="Trazado 163578" d="M1497.827,979.1a.58.58,0,0,1-.075-.005l-.345-.061a.441.441,0,0,1-.358-.508l.251-1.443a.439.439,0,0,1,.509-.358l.345.06a.437.437,0,0,1,.284.181.429.429,0,0,1,.074.328l-.251,1.445A.439.439,0,0,1,1497.827,979.1Zm-.069-.04a.405.405,0,0,0,.467-.33l.252-1.443a.407.407,0,0,0-.33-.468l-.347-.06a.4.4,0,0,0-.466.328l-.253,1.445a.41.41,0,0,0,.069.3.4.4,0,0,0,.261.165Z" transform="translate(-1497.041 -976.721)" fill="#ab69f0"/>
            </g>
            <g id="Grupo_102806" data-name="Grupo 102806" transform="translate(33.184 5.515)">
              <path id="Trazado_163579" data-name="Trazado 163579" d="M1499.118,979.329a.377.377,0,0,1-.075-.007l-.345-.06a.442.442,0,0,1-.36-.509l.253-1.445a.439.439,0,0,1,.509-.358l.345.061a.44.44,0,0,1,.358.509l-.251,1.443A.439.439,0,0,1,1499.118,979.329Zm-.069-.042a.4.4,0,0,0,.467-.328l.252-1.445a.4.4,0,0,0-.33-.466l-.347-.061a.4.4,0,0,0-.466.33l-.253,1.443a.407.407,0,0,0,.33.468Z" transform="translate(-1498.331 -976.945)" fill="#ab69f0"/>
            </g>
          </g>
          <g id="Grupo_102808" data-name="Grupo 102808" transform="translate(28.035 5.182)">
            <path id="Trazado_163580" data-name="Trazado 163580" d="M1513.753,979.9a.225.225,0,0,0-.26.182l-.042.233a.224.224,0,0,0,.442.077l.042-.233A.225.225,0,0,0,1513.753,979.9Z" transform="translate(-1481.794 -974.389)" fill="#ab69f0"/>
            <path id="Trazado_163581" data-name="Trazado 163581" d="M1513.1,979.786a.225.225,0,0,0-.26.182l-.04.233a.223.223,0,0,0,.182.26.225.225,0,0,0,.259-.182l.041-.233A.226.226,0,0,0,1513.1,979.786Z" transform="translate(-1482.283 -974.474)" fill="#ab69f0"/>
            <path id="Trazado_163582" data-name="Trazado 163582" d="M1512.452,979.673a.226.226,0,0,0-.26.182l-.04.233a.224.224,0,1,0,.442.077l.04-.233A.226.226,0,0,0,1512.452,979.673Z" transform="translate(-1482.772 -974.559)" fill="#ab69f0"/>
            <path id="Trazado_163583" data-name="Trazado 163583" d="M1511.8,979.56a.225.225,0,0,0-.259.182l-.041.233a.224.224,0,0,0,.442.077l.04-.233A.225.225,0,0,0,1511.8,979.56Z" transform="translate(-1483.262 -974.644)" fill="#ab69f0"/>
            <path id="Trazado_163584" data-name="Trazado 163584" d="M1511.152,979.447a.226.226,0,0,0-.26.182l-.041.233a.224.224,0,0,0,.442.077l.04-.233A.223.223,0,0,0,1511.152,979.447Z" transform="translate(-1483.752 -974.729)" fill="#ab69f0"/>
            <path id="Trazado_163585" data-name="Trazado 163585" d="M1510.5,979.334a.225.225,0,0,0-.26.182l-.042.233a.224.224,0,1,0,.442.077l.042-.233A.225.225,0,0,0,1510.5,979.334Z" transform="translate(-1484.242 -974.814)" fill="#ab69f0"/>
            <path id="Trazado_163586" data-name="Trazado 163586" d="M1509.853,979.221a.225.225,0,0,0-.26.182l-.04.233a.224.224,0,1,0,.442.077l.041-.233A.225.225,0,0,0,1509.853,979.221Z" transform="translate(-1484.73 -974.899)" fill="#ab69f0"/>
            <path id="Trazado_163587" data-name="Trazado 163587" d="M1509.2,979.108a.224.224,0,0,0-.259.182l-.041.233a.224.224,0,1,0,.442.077l.04-.233A.225.225,0,0,0,1509.2,979.108Z" transform="translate(-1485.22 -974.985)" fill="#ab69f0"/>
            <path id="Trazado_163588" data-name="Trazado 163588" d="M1508.553,979a.224.224,0,0,0-.26.182l-.04.233a.224.224,0,1,0,.442.077l.04-.233A.225.225,0,0,0,1508.553,979Z" transform="translate(-1485.71 -975.07)" fill="#ab69f0"/>
            <path id="Trazado_163589" data-name="Trazado 163589" d="M1500.9,977.663a.224.224,0,0,0-.26.182l-.04.233a.224.224,0,1,0,.442.077l.04-.233A.223.223,0,0,0,1500.9,977.663Z" transform="translate(-1491.479 -976.073)" fill="#ab69f0"/>
            <path id="Trazado_163590" data-name="Trazado 163590" d="M1500.246,977.55a.222.222,0,0,0-.258.182l-.042.233a.226.226,0,0,0,.182.26h0a.225.225,0,0,0,.26-.182l.042-.233A.224.224,0,0,0,1500.246,977.55Z" transform="translate(-1491.969 -976.158)" fill="#ab69f0"/>
            <path id="Trazado_163591" data-name="Trazado 163591" d="M1499.6,977.437a.224.224,0,0,0-.26.182l-.04.233a.223.223,0,1,0,.44.077l.042-.235A.224.224,0,0,0,1499.6,977.437Z" transform="translate(-1492.458 -976.244)" fill="#ab69f0"/>
            <path id="Trazado_163592" data-name="Trazado 163592" d="M1498.947,977.325a.223.223,0,0,0-.26.182l-.04.233a.224.224,0,1,0,.442.077l.04-.235A.224.224,0,0,0,1498.947,977.325Z" transform="translate(-1492.947 -976.329)" fill="#ab69f0"/>
            <path id="Trazado_163593" data-name="Trazado 163593" d="M1498.3,977.212a.223.223,0,0,0-.26.182l-.04.233a.224.224,0,0,0,.442.077l.04-.235A.224.224,0,0,0,1498.3,977.212Z" transform="translate(-1493.437 -976.414)" fill="#ab69f0"/>
            <path id="Trazado_163594" data-name="Trazado 163594" d="M1497.647,977.1a.225.225,0,0,0-.26.184l-.041.233a.224.224,0,0,0,.442.077l.04-.235A.225.225,0,0,0,1497.647,977.1Z" transform="translate(-1493.927 -976.5)" fill="#ab69f0"/>
            <path id="Trazado_163595" data-name="Trazado 163595" d="M1497,976.984a.224.224,0,0,0-.258.182l-.042.235a.224.224,0,1,0,.442.077l.04-.235A.223.223,0,0,0,1497,976.984Z" transform="translate(-1494.417 -976.585)" fill="#ab69f0"/>
            <path id="Trazado_163596" data-name="Trazado 163596" d="M1496.348,976.871a.225.225,0,0,0-.26.182l-.04.235a.223.223,0,1,0,.44.077l.042-.235A.226.226,0,0,0,1496.348,976.871Z" transform="translate(-1494.905 -976.67)" fill="#ab69f0"/>
            <path id="Trazado_163597" data-name="Trazado 163597" d="M1495.7,976.758a.224.224,0,0,0-.259.182l-.041.235a.224.224,0,1,0,.442.077l.04-.235A.226.226,0,0,0,1495.7,976.758Z" transform="translate(-1495.395 -976.755)" fill="#ab69f0"/>
            <path id="Trazado_163598" data-name="Trazado 163598" d="M1506.643,978.662a.225.225,0,0,0-.259.182l-.04.235a.224.224,0,1,0,.442.077l.04-.235A.225.225,0,0,0,1506.643,978.662Z" transform="translate(-1487.149 -975.321)" fill="#ab69f0"/>
            <path id="Trazado_163599" data-name="Trazado 163599" d="M1505.993,978.549a.226.226,0,0,0-.26.182l-.04.235a.224.224,0,1,0,.442.077l.04-.235A.224.224,0,0,0,1505.993,978.549Z" transform="translate(-1487.639 -975.406)" fill="#ab69f0"/>
            <path id="Trazado_163600" data-name="Trazado 163600" d="M1505.343,978.436a.224.224,0,0,0-.258.182l-.042.235a.224.224,0,1,0,.442.077l.042-.235A.226.226,0,0,0,1505.343,978.436Z" transform="translate(-1488.128 -975.491)" fill="#ab69f0"/>
            <path id="Trazado_163601" data-name="Trazado 163601" d="M1504.694,978.323a.225.225,0,0,0-.26.182l-.041.235a.223.223,0,1,0,.44.075l.042-.233A.226.226,0,0,0,1504.694,978.323Z" transform="translate(-1488.618 -975.576)" fill="#ab69f0"/>
            <path id="Trazado_163602" data-name="Trazado 163602" d="M1504.044,978.21a.225.225,0,0,0-.259.182l-.04.235a.224.224,0,1,0,.442.075l.04-.233A.225.225,0,0,0,1504.044,978.21Z" transform="translate(-1489.107 -975.661)" fill="#ab69f0"/>
            <path id="Trazado_163603" data-name="Trazado 163603" d="M1503.394,978.1a.226.226,0,0,0-.26.182l-.04.235a.224.224,0,0,0,.442.075l.041-.233A.226.226,0,0,0,1503.394,978.1Z" transform="translate(-1489.597 -975.746)" fill="#ab69f0"/>
            <path id="Trazado_163604" data-name="Trazado 163604" d="M1502.744,977.984a.226.226,0,0,0-.26.182l-.04.235a.224.224,0,0,0,.442.075l.04-.233A.224.224,0,0,0,1502.744,977.984Z" transform="translate(-1490.087 -975.831)" fill="#ab69f0"/>
            <path id="Trazado_163605" data-name="Trazado 163605" d="M1502.094,977.871a.224.224,0,0,0-.258.182l-.042.235a.224.224,0,0,0,.442.075l.04-.233A.224.224,0,0,0,1502.094,977.871Z" transform="translate(-1490.576 -975.917)" fill="#ab69f0"/>
            <path id="Trazado_163606" data-name="Trazado 163606" d="M1501.446,977.758a.224.224,0,0,0-.259.182l-.042.233a.224.224,0,0,0,.442.077l.042-.233A.225.225,0,0,0,1501.446,977.758Z" transform="translate(-1491.066 -976.002)" fill="#ab69f0"/>
          </g>
        </g>
        <path id="Trazado_163607" data-name="Trazado 163607" d="M1499.777,981.921a.8.8,0,0,0,.363-1.408,4.555,4.555,0,0,0-2.087-1.024c-1.718-.281-1.159,2.458-.591,2.576A8.772,8.772,0,0,0,1499.777,981.921Z" transform="translate(-1462.232 -966.157)" fill="#b473f0"/>
        <path id="Trazado_163608" data-name="Trazado 163608" d="M1501.86,979.895l-.625,3.586a16.842,16.842,0,0,1-4.708-.123A13.486,13.486,0,0,1,1493,982.4a4.721,4.721,0,0,1-.589-.307l.654-3.759a1.828,1.828,0,0,1,.671-.161c2.283-.2,7.78,1.543,7.78,1.543Z" transform="translate(-1465.614 -967.149)" fill="#b473f0"/>
        <path id="Trazado_163609" data-name="Trazado 163609" d="M1493.736,978.161l-.736,4.227a4.721,4.721,0,0,1-.589-.307l.654-3.759A1.828,1.828,0,0,1,1493.736,978.161Z" transform="translate(-1465.614 -967.142)" fill="#e58638"/>
        <g id="Grupo_102810" data-name="Grupo 102810" transform="translate(35.092 7.277)">
          <path id="Trazado_163610" data-name="Trazado 163610" d="M1519.877,976.041s-2.74,3.949-3.253,4.538a3.837,3.837,0,0,1-1.583.885h-.005l-6.777,1.336s-8.29-1.4-10.091-1.745h0c-.163-.032-.274-.054-.317-.067-.545-.149-.792-.37-.68-.51s12.963.077,14.385.11h.04c1.385.026,1.531-.316,1.531-.316l5.518-4.019a.652.652,0,0,1,.317-.165A3.14,3.14,0,0,1,1519.877,976.041Z" transform="translate(-1497.142 -976.027)" fill="#b473f0"/>
          <path id="Trazado_163611" data-name="Trazado 163611" d="M1518.96,976.063c-1.489,1.156-5.607,4.338-5.993,4.543-.414.221-11.962.38-14.8.423h0c-.163-.032-.274-.054-.317-.067-.545-.149-.792-.37-.68-.51s12.963.077,14.385.11,1.571-.316,1.571-.316l5.518-4.019A.652.652,0,0,1,1518.96,976.063Z" transform="translate(-1497.142 -976)" fill="#e58638"/>
          <path id="Trazado_163612" data-name="Trazado 163612" d="M1513.667,976.041s-2.74,3.949-3.253,4.538a3.837,3.837,0,0,1-1.583.885h-.005a14.661,14.661,0,0,1-3.442-.875c1.385.026,1.531-.316,1.531-.316l5.518-4.019a.652.652,0,0,1,.317-.165A3.14,3.14,0,0,1,1513.667,976.041Z" transform="translate(-1490.932 -976.027)" fill="#622b8b"/>
        </g>
        <path id="Trazado_163613" data-name="Trazado 163613" d="M1531.1,986.533l-19.41-3.907s9.109-.449,10.091-1.171c.926-.68,10.792-8.865,13.589-9.552-2.571,2.416-8.541,8.243-8.4,10.14C1527.1,983.849,1529.762,985.711,1531.1,986.533Z" transform="translate(-1451.092 -971.857)" fill="#d86713"/>
        <path id="Trazado_163614" data-name="Trazado 163614" d="M1519.705,980.371c.073-.063,6.57-.975,10.726.177l-4.14,1.492-6.467-1.126S1519.341,980.688,1519.705,980.371Z" transform="translate(-1445.153 -965.78)" fill="#622b8b"/>
      </g>
      <path id="Trazado_163615" data-name="Trazado 163615" d="M1718.154,1011.232c-54.306-1.887-46.535-89.04-125.968-45.3-20.576,11.329-47.961-18.689-84.484,14.965-8.918,8.22-18.889,16.091-45.54,6.637-73.494-26.071-77.925,129.75-50.047,130.074s321.481.281,321.481.281,12.91,1.075,25.475-14.22C1784.773,1072.382,1759.072,1012.654,1718.154,1011.232Z" transform="translate(-1378.14 -943.826)" fill="#e3d2ff" opacity="0.6"/>
      <g id="Grupo_102812" data-name="Grupo 102812" transform="translate(0 0.014)" opacity="0.8">
        <path id="Trazado_163616" data-name="Trazado 163616" d="M1664.561,948.062l-118.316,174.091-30.392-.077,123.31-174.013Z" transform="translate(-1288.056 -948.062)" fill="#f8fbff" opacity="0.7"/>
        <path id="Trazado_163617" data-name="Trazado 163617" d="M1615.562,948.062l-118.974,174.084-7.026.381,118.709-174.465Z" transform="translate(-1307.864 -948.062)" fill="#f8fbff" opacity="0.7"/>
        <path id="Trazado_163618" data-name="Trazado 163618" d="M1547.5,948.062l-119.566,175.325h-30.072L1522.1,948.062Z" transform="translate(-1376.951 -948.062)" fill="#f8fbff" opacity="0.7"/>
        <path id="Trazado_163619" data-name="Trazado 163619" d="M1500.607,948.062l-112.324,164.7a22.417,22.417,0,0,1-2.346-9.995v-81.631l57.354-73.073Z" transform="translate(-1385.936 -948.062)" fill="#f8fbff" opacity="0.7"/>
      </g>
      <rect id="Rectángulo_26011" data-name="Rectángulo 26011" width="6.875" height="174.434" transform="translate(101.143 0.015)" fill="#dfcafc"/>
      <rect id="Rectángulo_26012" data-name="Rectángulo 26012" width="6.875" height="174.434" transform="translate(303.337 0.015)" fill="#dfcafc"/>
      <path id="Trazado_163620" data-name="Trazado 163620" d="M1587.752,984.027a7.163,7.163,0,0,1,1.73-.361l-2.693-4.792.7-.175c.7-.174,4.971,2.779,5.348,3.007a16.348,16.348,0,0,0,3.358.112l1.9-.512c-.347-.407-.707-.838-.707-.838a1.14,1.14,0,0,1,.332-.011.233.233,0,0,1,.119.049l1,.6c2.386-.638,5.092-1.352,7.484-1.98,3.612-.949,6.507-1.7,6.507-1.7a6.011,6.011,0,0,1,3.489-.042,3.244,3.244,0,0,1,.326.131l.012.005c.279.128,1.14.038,1.453.454s-1.759,1.576-2.779,1.987c-.342.137-2.211.652-4.622,1.3l-2.032.54.118.44a1.853,1.853,0,0,1-.2.13,4.889,4.889,0,0,1-1.238.458,6.125,6.125,0,0,1-1.69.193l-.037-.14a3.925,3.925,0,0,1-.673,0,.28.28,0,0,1-.149-.058c-3.321.868-6.34,1.646-7.161,1.857a35.384,35.384,0,0,1-6.847.323h-.014c-.545-.012-.971-.028-1.2-.039l-.121-.007a.512.512,0,0,1-.219-.06.678.678,0,0,1-.294-.547Z" transform="translate(-1234.613 -926.131)" fill="#944acb" opacity="0.1"/>
      <g id="Grupo_102817" data-name="Grupo 102817" transform="translate(293.596)">
        <g id="Grupo_102813" data-name="Grupo 102813" transform="translate(4.371)">
          <rect id="Rectángulo_26013" data-name="Rectángulo 26013" width="0.8" height="21.162" transform="translate(44.98 21.162) rotate(180)" fill="#b473f0"/>
          <rect id="Rectángulo_26014" data-name="Rectángulo 26014" width="0.8" height="21.162" transform="translate(0.8 21.162) rotate(180)" fill="#b473f0"/>
        </g>
        <rect id="Rectángulo_26015" data-name="Rectángulo 26015" width="53.723" height="30.646" transform="translate(53.723 51.007) rotate(180)" fill="#7746a5"/>
        <g id="Grupo_102814" data-name="Grupo 102814" transform="translate(3.506 25.689)">
          <rect id="Rectángulo_26016" data-name="Rectángulo 26016" width="2.953" height="4.882" fill="#fff"/>
          <rect id="Rectángulo_26017" data-name="Rectángulo 26017" width="2.953" height="4.882" transform="translate(3.856)" fill="#fff"/>
          <rect id="Rectángulo_26018" data-name="Rectángulo 26018" width="39.134" height="0.615" transform="translate(7.568 4.266)" fill="#fff"/>
          <rect id="Rectángulo_26019" data-name="Rectángulo 26019" width="39.134" height="0.615" transform="translate(7.568 2.851)" fill="#fff"/>
          <rect id="Rectángulo_26020" data-name="Rectángulo 26020" width="34.489" height="0.615" transform="translate(7.568 1.354)" fill="#fff"/>
          <rect id="Rectángulo_26021" data-name="Rectángulo 26021" width="31.186" height="0.615" transform="translate(7.568)" fill="#fff"/>
        </g>
        <g id="Grupo_102815" data-name="Grupo 102815" transform="translate(3.506 33.689)">
          <rect id="Rectángulo_26022" data-name="Rectángulo 26022" width="2.953" height="4.882" fill="#fff"/>
          <rect id="Rectángulo_26023" data-name="Rectángulo 26023" width="2.953" height="4.882" transform="translate(3.856)" fill="#fff"/>
          <rect id="Rectángulo_26024" data-name="Rectángulo 26024" width="39.134" height="0.615" transform="translate(7.568 4.266)" fill="#fff"/>
          <rect id="Rectángulo_26025" data-name="Rectángulo 26025" width="39.134" height="0.615" transform="translate(7.568 2.851)" fill="#fff"/>
          <rect id="Rectángulo_26026" data-name="Rectángulo 26026" width="34.489" height="0.615" transform="translate(7.568 1.354)" fill="#fff"/>
          <rect id="Rectángulo_26027" data-name="Rectángulo 26027" width="31.186" height="0.615" transform="translate(7.568)" fill="#fff"/>
        </g>
        <g id="Grupo_102816" data-name="Grupo 102816" transform="translate(3.506 41.688)">
          <rect id="Rectángulo_26028" data-name="Rectángulo 26028" width="2.953" height="4.882" fill="#fff"/>
          <rect id="Rectángulo_26029" data-name="Rectángulo 26029" width="2.953" height="4.882" transform="translate(3.856)" fill="#fff"/>
          <rect id="Rectángulo_26030" data-name="Rectángulo 26030" width="39.134" height="0.615" transform="translate(7.568 4.266)" fill="#fff"/>
          <rect id="Rectángulo_26031" data-name="Rectángulo 26031" width="39.134" height="0.615" transform="translate(7.568 2.851)" fill="#fff"/>
          <rect id="Rectángulo_26032" data-name="Rectángulo 26032" width="34.489" height="0.615" transform="translate(7.568 1.354)" fill="#fff"/>
          <rect id="Rectángulo_26033" data-name="Rectángulo 26033" width="31.186" height="0.615" transform="translate(7.568)" fill="#fff"/>
        </g>
        <rect id="Rectángulo_26034" data-name="Rectángulo 26034" width="26.52" height="5.666" transform="translate(50.436 20.362) rotate(180)" fill="#f1a34f"/>
        <rect id="Rectángulo_26035" data-name="Rectángulo 26035" width="4.43" height="4.43" transform="translate(29.207 19.68) rotate(180)" fill="#fff"/>
        <path id="Trazado_163621" data-name="Trazado 163621" d="M1569.935,957.409h0a.232.232,0,0,1-.067.163l-1.054,1.054,1.054,1.052a.235.235,0,0,1,.067.163v.039a.231.231,0,0,1-.395.163l-1.11-1.11a.407.407,0,0,1,0-.577l1.11-1.11A.231.231,0,0,1,1569.935,957.409Z" transform="translate(-1542.131 -941.18)" fill="#f1a34f"/>
      </g>
      <g id="Grupo_102855" data-name="Grupo 102855" transform="translate(166.026 52.197)">
        <g id="Grupo_102820" data-name="Grupo 102820" transform="translate(122.075 68.302)">
          <g id="Grupo_102818" data-name="Grupo 102818" transform="translate(0 7.247)">
            <path id="Trazado_163622" data-name="Trazado 163622" d="M1569.975,1031.272a28.829,28.829,0,0,1-19.729-7.827l2.49-2.4-1.245,1.2,1.243-1.2a22.935,22.935,0,0,0,5.086,3.644,25.21,25.21,0,0,0,13.666,3.084c11.539-.673,16.694-6.8,16.745-6.865l2.67,2.192c-.246.3-6.183,7.361-19.216,8.122Q1570.816,1031.273,1569.975,1031.272Z" transform="translate(-1550.246 -1020.91)" fill="#b64c41"/>
          </g>
          <g id="Grupo_102819" data-name="Grupo 102819" transform="translate(37.639)">
            <path id="Trazado_163623" data-name="Trazado 163623" d="M1575.766,1017.743v52.048a1.018,1.018,0,0,1-1.057.966h-1.968a1.015,1.015,0,0,1-1.029-.966v-52.048a1.015,1.015,0,0,1,1.029-.966h1.968A1.017,1.017,0,0,1,1575.766,1017.743Z" transform="translate(-1571.712 -1016.777)" fill="#ffcf83"/>
            <path id="Trazado_163624" data-name="Trazado 163624" d="M1573.769,1017.743v52.048a1.03,1.03,0,0,1-2.057,0v-52.048a1.03,1.03,0,0,1,2.057,0Z" transform="translate(-1571.712 -1016.777)" fill="#efb054"/>
          </g>
        </g>
        <g id="Grupo_102823" data-name="Grupo 102823" transform="translate(83.641 68.302)">
          <g id="Grupo_102821" data-name="Grupo 102821" transform="translate(0 7.247)">
            <path id="Trazado_163625" data-name="Trazado 163625" d="M1548.055,1031.272a28.83,28.83,0,0,1-19.729-7.827l2.491-2.4-1.247,1.2,1.243-1.2a22.943,22.943,0,0,0,5.088,3.644,25.2,25.2,0,0,0,13.664,3.084c11.539-.673,16.7-6.8,16.745-6.865l2.672,2.192c-.247.3-6.182,7.361-19.216,8.122Q1548.9,1031.273,1548.055,1031.272Z" transform="translate(-1528.326 -1020.91)" fill="#b64c41"/>
          </g>
          <g id="Grupo_102822" data-name="Grupo 102822" transform="translate(37.638)">
            <path id="Trazado_163626" data-name="Trazado 163626" d="M1553.848,1017.743v52.048a1.019,1.019,0,0,1-1.057.966h-1.969a1.016,1.016,0,0,1-1.029-.966v-52.048a1.016,1.016,0,0,1,1.029-.966h1.969A1.019,1.019,0,0,1,1553.848,1017.743Z" transform="translate(-1549.792 -1016.777)" fill="#ffcf83"/>
            <path id="Trazado_163627" data-name="Trazado 163627" d="M1551.849,1017.743v52.048a1.03,1.03,0,0,1-2.057,0v-52.048a1.03,1.03,0,0,1,2.057,0Z" transform="translate(-1549.792 -1016.777)" fill="#efb054"/>
          </g>
        </g>
        <g id="Grupo_102826" data-name="Grupo 102826" transform="translate(44.573 68.302)">
          <g id="Grupo_102824" data-name="Grupo 102824" transform="translate(0 7.247)">
            <path id="Trazado_163628" data-name="Trazado 163628" d="M1525.774,1031.272a28.829,28.829,0,0,1-19.729-7.827l2.49-2.4-1.245,1.2,1.243-1.2a22.955,22.955,0,0,0,5.087,3.644,25.211,25.211,0,0,0,13.666,3.084c11.539-.673,16.694-6.8,16.745-6.865l2.67,2.192c-.245.3-6.182,7.361-19.216,8.122Q1526.615,1031.273,1525.774,1031.272Z" transform="translate(-1506.045 -1020.91)" fill="#b64c41"/>
          </g>
          <g id="Grupo_102825" data-name="Grupo 102825" transform="translate(37.638)">
            <path id="Trazado_163629" data-name="Trazado 163629" d="M1531.565,1017.743v52.048a1.018,1.018,0,0,1-1.057.966h-1.967a1.015,1.015,0,0,1-1.029-.966v-52.048a1.015,1.015,0,0,1,1.029-.966h1.967A1.017,1.017,0,0,1,1531.565,1017.743Z" transform="translate(-1527.511 -1016.777)" fill="#ffcf83"/>
            <path id="Trazado_163630" data-name="Trazado 163630" d="M1529.568,1017.743v52.048a1.03,1.03,0,0,1-2.057,0v-52.048a1.03,1.03,0,0,1,2.057,0Z" transform="translate(-1527.511 -1016.777)" fill="#efb054"/>
          </g>
        </g>
        <g id="Grupo_102829" data-name="Grupo 102829" transform="translate(3.982 67.879)">
          <g id="Grupo_102827" data-name="Grupo 102827" transform="translate(1.497 7.249)">
            <path id="Trazado_163631" data-name="Trazado 163631" d="M1503.478,1031.032a28.826,28.826,0,0,1-19.729-7.829l2.49-2.4-1.245,1.2,1.243-1.2a23.077,23.077,0,0,0,5.087,3.644,25.194,25.194,0,0,0,13.666,3.082c11.539-.673,16.694-6.8,16.745-6.863l2.671,2.19c-.246.3-6.183,7.363-19.216,8.122C1504.609,1031.017,1504.039,1031.032,1503.478,1031.032Z" transform="translate(-1483.749 -1020.67)" fill="#b64c41"/>
          </g>
          <g id="Grupo_102828" data-name="Grupo 102828">
            <path id="Trazado_163632" data-name="Trazado 163632" d="M1486.949,1017.5v52.048a1.018,1.018,0,0,1-1.057.966h-1.939a1.018,1.018,0,0,1-1.057-.966V1017.5a1.018,1.018,0,0,1,1.057-.968h1.939A1.018,1.018,0,0,1,1486.949,1017.5Z" transform="translate(-1482.895 -1016.536)" fill="#ffcf83"/>
            <path id="Trazado_163633" data-name="Trazado 163633" d="M1485.23,1017.5v52.048a1.018,1.018,0,0,1-1.057.966h-.221a1.018,1.018,0,0,1-1.057-.966V1017.5a1.018,1.018,0,0,1,1.057-.968h.221A1.018,1.018,0,0,1,1485.23,1017.5Z" transform="translate(-1482.895 -1016.536)" fill="#efb054"/>
            <path id="Trazado_163634" data-name="Trazado 163634" d="M1509.269,1017.5v52.048a1.018,1.018,0,0,1-1.057.966h-1.939l-.028,0a1.012,1.012,0,0,1-1.029-.964V1017.5a1.013,1.013,0,0,1,1.029-.966l.028,0h1.939A1.018,1.018,0,0,1,1509.269,1017.5Z" transform="translate(-1466.079 -1016.536)" fill="#ffcf83"/>
            <path id="Trazado_163635" data-name="Trazado 163635" d="M1507.271,1017.5v52.048a1.03,1.03,0,0,1-2.057,0V1017.5a1.03,1.03,0,0,1,2.057,0Z" transform="translate(-1466.079 -1016.535)" fill="#efb054"/>
          </g>
        </g>
        <g id="Grupo_102854" data-name="Grupo 102854">
          <g id="Grupo_102838" data-name="Grupo 102838" transform="translate(160.114)">
            <path id="Trazado_163636" data-name="Trazado 163636" d="M1592.847,989.825l0,.8s-.218,2.495,2.855,2.858,5.4-.973,5.316-2.9a22.613,22.613,0,0,1-.6-3.747,8.521,8.521,0,0,1,.109-1.494l-5.953-.119-1.753.286Z" transform="translate(-1556.206 -972.249)" fill="#ffb27d"/>
            <path id="Trazado_163637" data-name="Trazado 163637" d="M1592.824,985.508l.023,4.317a5.045,5.045,0,0,0,2.145.473c2.737,0,4.506-2.008,5.43-3.463a8.521,8.521,0,0,1,.109-1.494l-5.953-.119Z" transform="translate(-1556.206 -972.249)" fill="#e8945b"/>
            <path id="Trazado_163638" data-name="Trazado 163638" d="M1593.191,991.988s7.626,1.541,8.511-3.223,2.467-7.771-2.364-8.956-6.118.456-6.8,1.974S1591.231,991.466,1593.191,991.988Z" transform="translate(-1556.922 -976.632)" fill="#ffb27d"/>
            <path id="Trazado_163639" data-name="Trazado 163639" d="M1598.914,988.519s-1.819,9.728-3.8,19.889c-2.153,11.043-7.4,21.6-7.85,22.012-.633.575-3.177-.163-2.141-.791,1.38-.835,1.3-10.626,1.808-16.393a22.665,22.665,0,0,1,.782-3.493c.81-3.644,1.08-15.86,3.509-17.883S1598.914,988.519,1598.914,988.519Z" transform="translate(-1562.193 -969.765)" fill="#ffb27d"/>
            <path id="Trazado_163640" data-name="Trazado 163640" d="M1598.032,988.519s-1.049,5.607-2.42,12.753c-.435,2.267-.9,4.689-1.38,7.136-1.941,3.8-3.609,6.393-4.122,5.907-1.05-.992-2.895-1.115-4.061-1.078a28.393,28.393,0,0,1,.424-3.277c.065-.288.125-.633.184-1.027.678-4.585,1.064-15.668,3.3-17.532C1592.389,989.375,1598.032,988.519,1598.032,988.519Z" transform="translate(-1561.311 -969.765)" fill="#b473f0"/>
            <path id="Trazado_163641" data-name="Trazado 163641" d="M1595.612,998.539c-.435,2.267-.9,4.689-1.38,7.136-1.941,3.8-3.609,6.393-4.122,5.907-1.05-.992-2.895-1.115-4.061-1.078a28.393,28.393,0,0,1,.424-3.277c.065-.288.125-.633.184-1.027l5.821-14.054Z" transform="translate(-1561.311 -967.032)" fill="#944acb"/>
            <path id="Trazado_163642" data-name="Trazado 163642" d="M1595.831,1049.075a13.836,13.836,0,0,1,.945-3.54c.659-1.32,4.859-.48,4.859-.48s.84.721,1.021,4.08Z" transform="translate(-1553.941 -927.369)" fill="#472362"/>
            <path id="Trazado_163643" data-name="Trazado 163643" d="M1593.414,1050.231c.987-.6.426-5.094.426-5.094s-4.6-3.679-5.23-.863-4.368,4.08-6.495,4.426a2.285,2.285,0,0,0-2.064,1.531Z" transform="translate(-1565.829 -928.557)" fill="#472362"/>
            <path id="Trazado_163644" data-name="Trazado 163644" d="M1599.833,1043.314a21.113,21.113,0,0,0-.337,2.484c-.428,8.336-8.306,26.743-9.484,27.187-1.823.689-3.409-.119-4.911-.6a1.289,1.289,0,0,1-.9-1.464c3.265-15,4.464-36.608,4.9-49.4a58.054,58.054,0,0,1,1.327-10.894s16.073-4.287,16.168,1.138C1606.675,1016.568,1601.267,1035.4,1599.833,1043.314Z" transform="translate(-1562.726 -954.317)" fill="#622b8b"/>
            <path id="Trazado_163645" data-name="Trazado 163645" d="M1597.717,1043.314l-10.738-21.789a58.054,58.054,0,0,1,1.327-10.894s16.073-4.287,16.168,1.138C1604.558,1016.568,1599.151,1035.4,1597.717,1043.314Z" transform="translate(-1560.61 -954.317)" fill="#472362"/>
            <path id="Trazado_163646" data-name="Trazado 163646" d="M1591.064,1011.44l8.5,61.585a16.618,16.618,0,0,0,6.633.179s2.488-32.752,2.281-40.67,1.785-21.188-.456-22.652S1591.064,1011.44,1591.064,1011.44Z" transform="translate(-1557.532 -953.971)" fill="#622b8b"/>
            <path id="Trazado_163647" data-name="Trazado 163647" d="M1610.78,1025.666c.028.714.189,1.319-.522,1.329l-13.391.205-7.756-.931c-.461.009-1.083-2.595-1.054-26.62.007-5.362,8.306-11.131,8.458-11.131l0,0c0,.773,1.215,2.2,3.089,2.32,2.225.146,4.953-.961,4.953-2.241a5.75,5.75,0,0,1,.675.87c1.11,1.617,3.347,5.562,4.774,12.43,1.127,5.423.044,12.677.856,22.031C1610.927,1024.6,1610.762,1025.192,1610.78,1025.666Z" transform="translate(-1559.798 -969.765)" fill="#fff"/>
            <path id="Trazado_163648" data-name="Trazado 163648" d="M1611.5,1027.07a27.19,27.19,0,0,1-5.109,1.487,50.324,50.324,0,0,1-9.9.994c-6.509.042-8.974-2.2-8.974-2.2-.461.007.773-5.1.8-29.126.007-5.362,8.528-9.707,8.681-9.707l0,0s-.214,7.14,1.946,9.239c0,0,3.028-2.339,6.958-9a26.515,26.515,0,0,1,4.948,11.406c.291,1.4.118,4.648.249,6.291.379,4.738.294,10.524.9,17.469.059.677-.028,1.276-.01,1.75C1612.02,1026.39,1612.211,1027.06,1611.5,1027.07Z" transform="translate(-1560.283 -969.765)" fill="#b473f0"/>
            <path id="Trazado_163649" data-name="Trazado 163649" d="M1604.444,1021.3a27.19,27.19,0,0,1-5.109,1.487,17.5,17.5,0,0,1-2.55-9.023c-.31-7.682,6.987-17.576,6.987-17.576l.279,4.5c.379,4.738.294,10.524.9,17.469.059.677-.028,1.276-.01,1.75C1604.967,1020.615,1605.158,1021.285,1604.444,1021.3Z" transform="translate(-1553.229 -963.991)" fill="#944acb"/>
            <path id="Rectángulo_26036" data-name="Rectángulo 26036" d="M.94,0H13.424a.94.94,0,0,1,.94.94V18.763a.941.941,0,0,1-.941.941H.94a.94.94,0,0,1-.94-.94V.94A.94.94,0,0,1,.94,0Z" transform="translate(30.437 35.038) rotate(-30.001)" fill="#622b8b"/>
            <path id="Trazado_163650" data-name="Trazado 163650" d="M1611.579,1016.6s-1.745.633-6.1.186a66.333,66.333,0,0,1-11.971-2.411L1594.9,1012s5.672-.251,9.826-.859c1.034-.151,2.356-.373,3.091-.572.9-.242-3.961-11.555-6.223-18.239-.54-1.594-.954-2.923-1.138-3.768,0,0,.4.063,1.017.186a20.527,20.527,0,0,1,6.344,3.182C1609.875,993.491,1614.734,1009.806,1611.579,1016.6Z" transform="translate(-1555.69 -969.731)" fill="#ffb27d"/>
            <path id="Trazado_163651" data-name="Trazado 163651" d="M1596.947,1002.7s-1.922-1.8-2.663-1.8-3.037.137-3.291.722c-.6,1.38.894,2.637,1.506,2.877a14.643,14.643,0,0,0,2.79.6C1595.942,1005.163,1597.559,1004.8,1596.947,1002.7Z" transform="translate(-1557.691 -960.434)" fill="#ffb27d"/>
            <path id="Trazado_163652" data-name="Trazado 163652" d="M1609.063,1016.91a38.369,38.369,0,0,1-6.9-.2,8.248,8.248,0,0,0-.756-5.639,25,25,0,0,0,2.711-.521c.9-.244-3.857-10.9-6.119-17.578a29.615,29.615,0,0,1,0-4.319l.156.025c1.76.347,5.339,1.164,6.863,2.316C1607.074,992.554,1612.217,1010.121,1609.063,1016.91Z" transform="translate(-1552.37 -969.661)" fill="#b473f0"/>
            <path id="Trazado_163653" data-name="Trazado 163653" d="M1593.992,998.067s6.06-2.669,6.149-2.879a4.81,4.81,0,0,0-.719-2.309s2.909.27,3.09-.091a24.541,24.541,0,0,0,.239-3.358,4.634,4.634,0,0,0-2.639-1.32s-1.313,3.256-1.8,4.229A30.068,30.068,0,0,1,1593.992,998.067Z" transform="translate(-1555.326 -970.073)" fill="#944acb"/>
            <path id="Trazado_163654" data-name="Trazado 163654" d="M1594.531,992.782a20.252,20.252,0,0,0,1.439,5.28s-3.163-2.2-3.433-2.925.764-2.115.764-2.115-1.89-.044-1.934-.673a20.2,20.2,0,0,1,.584-3.105s1.545-1.171,2-1.126Z" transform="translate(-1557.305 -970.068)" fill="#944acb"/>
            <path id="Trazado_163655" data-name="Trazado 163655" d="M1591.429,979.436a16.046,16.046,0,0,0,4.634-1.254c2.034-.885,4.6.089,5.436.528a1.218,1.218,0,0,0-.2-.5,1.111,1.111,0,0,1,.429.636c.039.028.056.049.047.054a1.432,1.432,0,0,1,.7.046s-.191-.028-.259.095a.113.113,0,0,1-.03.035c3.176,1.534,3.468,6.551,2.446,7.713a25.463,25.463,0,0,0-2.7,4.543,2.7,2.7,0,0,1-.314-1.973c.224-1.231-.838-1.231-2.179-1.788s-.223-2.123-1.4-3.074-5.476-.391-5.42-1.117C1591.015,982.8,1591.429,979.6,1591.429,979.436Z" transform="translate(-1557.294 -977.823)" fill="#472362"/>
            <path id="Trazado_163656" data-name="Trazado 163656" d="M1596.01,1000.021a.8.8,0,1,0,.8.8A.8.8,0,0,0,1596.01,1000.021Z" transform="translate(-1554.408 -961.099)" fill="#472362"/>
            <g id="Grupo_102837" data-name="Grupo 102837" transform="translate(0 61.514)">
              <g id="Grupo_102830" data-name="Grupo 102830" transform="translate(19.596 55.95)">
                <path id="Trazado_163657" data-name="Trazado 163657" d="M1587.122,1046.082a2.087,2.087,0,1,1-2.739-1.1A2.086,2.086,0,0,1,1587.122,1046.082Z" transform="translate(-1583.116 -1044.816)" fill="#82b378"/>
                <path id="Trazado_163658" data-name="Trazado 163658" d="M1587.333,1046.082a2.087,2.087,0,1,1-2.739-1.1A2.086,2.086,0,0,1,1587.333,1046.082Z" transform="translate(-1582.958 -1044.816)" fill="#a8d29f"/>
              </g>
              <g id="Grupo_102831" data-name="Grupo 102831" transform="translate(7.693 55.95)">
                <path id="Trazado_163659" data-name="Trazado 163659" d="M1580.335,1046.082a2.088,2.088,0,1,1-2.74-1.1A2.088,2.088,0,0,1,1580.335,1046.082Z" transform="translate(-1576.327 -1044.816)" fill="#82b378"/>
                <path id="Trazado_163660" data-name="Trazado 163660" d="M1580.546,1046.082a2.088,2.088,0,1,1-2.74-1.1A2.088,2.088,0,0,1,1580.546,1046.082Z" transform="translate(-1576.169 -1044.816)" fill="#a8d29f"/>
              </g>
              <g id="Grupo_102832" data-name="Grupo 102832" transform="translate(12.523)">
                <path id="Trazado_163661" data-name="Trazado 163661" d="M1591.8,1035.546l-.882-.179c1.194-5.879,3.428-17.41,3.349-18.979a2.706,2.706,0,0,0-.9-2.12,2.951,2.951,0,0,0-2.151-.41l-.048.007-3.594.379c-4.257.107-4.591,3.626-4.6,3.777l-.005.046-3,16.452-.885-.161,2.995-16.433a5.206,5.206,0,0,1,5.457-4.58l3.519-.372a3.807,3.807,0,0,1,2.858.577,3.541,3.541,0,0,1,1.257,2.793C1595.275,1018.415,1591.945,1034.846,1591.8,1035.546Z" transform="translate(-1579.082 -1012.906)" fill="#82b378"/>
              </g>
              <path id="Trazado_163662" data-name="Trazado 163662" d="M1602.083,1026.03l-9.09-1.817-1.778,35.648-16.817,1.487,2.969,1.066a2.7,2.7,0,0,0,.936.158l16.014-.165q.416.005.8-.007h.026v0c6.267-.212,6.57-3.628,6.57-3.628s2.029-22.931,2.49-27.018C1604.733,1027.108,1602.083,1026.03,1602.083,1026.03Z" transform="translate(-1570.088 -1004.387)" fill="#82b378"/>
              <path id="Trazado_163663" data-name="Trazado 163663" d="M1599.886,1030.54l-2.446,25.682a5.8,5.8,0,0,1-5.741,5.251l-8.43.053-.207,0-5.281.033a5.827,5.827,0,0,1-1.529-.193q-.171-.044-.337-.1a5.8,5.8,0,0,1-3.905-6.4l3.829-24.57a5.8,5.8,0,0,1,5.181-4.883l1.489-.144.356-.033h0l.3-.028,4.976-.477.612-.058,4.8-.458a5.785,5.785,0,0,1,2.162.2l.133.04.277.095A5.809,5.809,0,0,1,1599.886,1030.54Z" transform="translate(-1571.94 -1004.407)" fill="#a8d29f"/>
              <path id="Trazado_163664" data-name="Trazado 163664" d="M1596.4,1045.322a5.8,5.8,0,0,1-4.708,2.458l-8.43.053-.207,0-5.281.033a5.827,5.827,0,0,1-1.529-.193q-.171-.044-.337-.1a6.148,6.148,0,0,1-3.965-5.165s17.832-.233,21.56.342A3.588,3.588,0,0,1,1596.4,1045.322Z" transform="translate(-1571.936 -990.714)" fill="#82b378" opacity="0.5"/>
              <g id="Grupo_102836" data-name="Grupo 102836" transform="translate(2.336 20.005)">
                <g id="Grupo_102833" data-name="Grupo 102833" transform="translate(0 0.794)">
                  <path id="Trazado_163665" data-name="Trazado 163665" d="M1582.161,1024.768c-.039.023-3.947,2.406-4.462,4.5-.528,2.151-4.057,27.225-4.093,27.478a5.811,5.811,0,0,0,1.909,4.25l-.268-.065q-.171-.044-.337-.1a5.216,5.216,0,0,1-1.62-4.128c.146-1.036,3.568-25.345,4.1-27.511.467-1.9,3.223-3.791,4.115-4.363l.356-.033h0Z" transform="translate(-1573.272 -1024.768)" fill="#82b378"/>
                </g>
                <g id="Grupo_102834" data-name="Grupo 102834" transform="translate(8.23 0.26)">
                  <path id="Trazado_163666" data-name="Trazado 163666" d="M1584.213,1024.463a7.613,7.613,0,0,0-3.168,5.025c-.537,3.533-2.635,29.2-2.656,29.454l0,.019-.005.018a2.854,2.854,0,0,0,.559,2.339h-.212l-.207,0a2.742,2.742,0,0,1-.449-2.42c.065-.794,2.125-25.954,2.658-29.459a7.913,7.913,0,0,1,2.87-4.92Z" transform="translate(-1577.966 -1024.463)" fill="#82b378"/>
                </g>
                <g id="Grupo_102835" data-name="Grupo 102835" transform="translate(16.04)">
                  <path id="Trazado_163667" data-name="Trazado 163667" d="M1588.232,1024.45a6.7,6.7,0,0,0-1.529,1.264,7.263,7.263,0,0,0-1.722,3.742c-.537,3.531-2.2,29.108-2.218,29.366v.021l-.007.018a3.887,3.887,0,0,0,.787,2.518l-.531,0a4.131,4.131,0,0,1-.565-2.6c.052-.817,1.687-25.87,2.22-29.375a7.249,7.249,0,0,1,3.154-5.094l.133.04Z" transform="translate(-1582.42 -1024.315)" fill="#82b378"/>
                </g>
              </g>
            </g>
            <path id="Trazado_163668" data-name="Trazado 163668" d="M1586.275,1012.084s-2.835,1.036-2.916,3.135c-.044,1.1.007,2.379,1.308,2.236.98-.109.545-1.2,1.363-1.745s2.507-2.507,2.563-3.435S1586.275,1012.084,1586.275,1012.084Z" transform="translate(-1563.345 -952.219)" fill="#ffb27d"/>
          </g>
          <g id="man" transform="translate(103.083 8.061)">
            <path id="Trazado_163669" data-name="Trazado 163669" d="M1541.153,1025.232s4.448-11.485,4.843-12.5,2.632-16.8,2.632-16.8l9.526-3.807s-5.367,20.282-6.414,22.831c-1.73,4.214-8.279,10.722-8.279,10.722a2.224,2.224,0,0,1-1.024,2.665c-1,.721-.626.615-1.319,1.141s-1.336-.584-1.336-.584A2.49,2.49,0,0,1,1541.153,1025.232Z" transform="translate(-1539.414 -975.105)" fill="#e8945b"/>
            <path id="Trazado_163670" data-name="Trazado 163670" d="M1549.363,993.766a30.085,30.085,0,0,1,10.808-2.807,7.469,7.469,0,0,1,7.638,5.106c.061.189.121.382.177.584,1.494,5.379.678,21.658-4.35,25.9s-14.273,2.456-14.273,2.456Z" transform="translate(-1531.919 -976.003)" fill="#472362"/>
            <path id="Trazado_163671" data-name="Trazado 163671" d="M1541.455,1014.591s.538,6.73,1.173,14.82c.861,10.989,4.141,38.37,4.141,38.37s-.7,1.09,2.679.38a69.351,69.351,0,0,0,5-20.055l.039-.53c.8-10.92,2.043-33.918,2.043-33.918Z" transform="translate(-1537.877 -958.886)" fill="#622b8b"/>
            <path id="Trazado_163672" data-name="Trazado 163672" d="M1541.35,1012.864s.722,9.055,1.357,17.145l11.816,18.695.039-.53c.8-10.92,2.043-33.918,2.043-33.918Z" transform="translate(-1537.956 -959.484)" fill="#472362"/>
            <path id="Trazado_163673" data-name="Trazado 163673" d="M1542.853,1012.606l20.31,58.434s2.123-.4,2.6-1.338c0,0,.584-24.712-2.856-30.676-1.945-3.368-3.3-12.817-3.07-16.008a36.129,36.129,0,0,0-1.41-12.074Z" transform="translate(-1536.823 -960.931)" fill="#622b8b"/>
            <g id="Grupo_102839" data-name="Grupo 102839" transform="translate(0.419 107.686)">
              <path id="Trazado_163674" data-name="Trazado 163674" d="M1551.29,1049.829h-1.654c-.554-.086-.963-.247-1.531-.321a1.535,1.535,0,0,0-1.34.321l-.014.018h-7.024c-.177-.253-.007-.838.158-1.268a1,1,0,0,1,.657-.6,7.568,7.568,0,0,0,3.56-1.625c.756-.682,3.652-2.513,3.652-2.513l.016,0c.063,0,.366.095,1.685,1.206.68.573,1.841-.81,1.841-.81a1.671,1.671,0,0,1,.38.515,1.739,1.739,0,0,1,.151,1.078,6.965,6.965,0,0,0,.5,2.6c.165.482.3.824.3.824S1552.712,1049.652,1551.29,1049.829Z" transform="translate(-1539.653 -1043.836)" fill="#b64c41"/>
              <path id="Trazado_163675" data-name="Trazado 163675" d="M1551.287,1047.88h-1.646c-.554-.088-.966-.272-1.534-.345a1.535,1.535,0,0,0-1.34.321l-.014.018h-7.024c-.177-.253-.007-.838.158-1.268.214-.189.274.824.391.985a31.276,31.276,0,0,0,6.054-.177,3.4,3.4,0,0,1,2.653-.324,6.374,6.374,0,0,0,3.347-.633c.165.482.3.824.3.824S1552.71,1047.7,1551.287,1047.88Z" transform="translate(-1539.653 -1041.862)" fill="#622b8b"/>
            </g>
            <g id="Grupo_102840" data-name="Grupo 102840" transform="translate(17.302 107.686)">
              <path id="Trazado_163676" data-name="Trazado 163676" d="M1560.919,1049.829h-1.654c-.554-.086-.962-.247-1.531-.321a1.53,1.53,0,0,0-1.338.321l-.016.018h-7.024c-.177-.253-.007-.838.16-1.268a1,1,0,0,1,.657-.6,7.57,7.57,0,0,0,3.558-1.625c.758-.682,3.654-2.513,3.654-2.513l.014,0c.065,0,.366.095,1.685,1.206.68.573,1.841-.81,1.841-.81a1.643,1.643,0,0,1,.381.515,1.742,1.742,0,0,1,.153,1.078,6.965,6.965,0,0,0,.5,2.6c.163.482.3.824.3.824S1562.343,1049.652,1560.919,1049.829Z" transform="translate(-1549.282 -1043.836)" fill="#b64c41"/>
              <path id="Trazado_163677" data-name="Trazado 163677" d="M1560.917,1047.88h-1.646c-.554-.088-.968-.272-1.536-.345a1.53,1.53,0,0,0-1.338.321l-.016.018h-7.024c-.177-.253-.007-.838.16-1.268.212-.189.274.824.391.985a31.28,31.28,0,0,0,6.054-.177,3.4,3.4,0,0,1,2.651-.324,6.381,6.381,0,0,0,3.349-.633c.163.482.3.824.3.824S1562.34,1047.7,1560.917,1047.88Z" transform="translate(-1549.282 -1041.862)" fill="#622b8b"/>
            </g>
            <path id="Trazado_163678" data-name="Trazado 163678" d="M1554.435,995.5s-6.583,3.24-10.386,2.039a9.129,9.129,0,0,1,2.569-2.094c-.093-.554-.168-1.061-.226-1.511a23.466,23.466,0,0,1-.219-2.558l4.033-3.251.9-.729a11.466,11.466,0,0,0,.123,2.144c.009.053.016.105.025.156A9.526,9.526,0,0,0,1554.435,995.5Z" transform="translate(-1535.922 -978.673)" fill="#ffb27d"/>
            <path id="Trazado_163679" data-name="Trazado 163679" d="M1560.4,1027.122c.019.419-.843.88-1.219,1.049a32.142,32.142,0,0,1-4.9,1.792,21.635,21.635,0,0,1-3.526.64c-3.524.361-7.688-.433-9.118-.414a.624.624,0,0,1-.4-.151c-.1-.077-.172-4.382-.1-9.81,0-.208,0-.438.019-.647v-.077c.019-2.115.1-4.343.191-6.552a73.824,73.824,0,0,1,1.238-12.19,13.139,13.139,0,0,1,4.114-6.572l1.138-1.131a.308.308,0,0,1,.272-.082,6.279,6.279,0,0,0,4-.444c1.506-.742,3.144-1.543,3.41-1.352,3.123,2.334,4.678,9.23,4.648,17.068,0,.247,0,.5-.007.745q-.021,1.215-.089,2.453a104.925,104.925,0,0,0,.209,13.713C1560.342,1026,1560.388,1026.663,1560.4,1027.122Z" transform="translate(-1538.134 -975.842)" fill="#b64c41"/>
            <g id="Grupo_102841" data-name="Grupo 102841" transform="translate(3.208 39.337)">
              <rect id="Rectángulo_26037" data-name="Rectángulo 26037" width="1.684" height="1.464" rx="0.417" transform="translate(1.104 0.48) rotate(-16.556)" fill="#7e41a5"/>
              <rect id="Rectángulo_26038" data-name="Rectángulo 26038" width="4.467" height="8.897" rx="0.501" transform="matrix(0.959, -0.285, 0.285, 0.959, 0, 1.65)" fill="#e4caff"/>
              <path id="Trazado_163680" data-name="Trazado 163680" d="M1545.7,1005.71l1.95,6.567a.883.883,0,0,1-.593,1.092l-2.6.771a.882.882,0,0,1-1.092-.593l-1.911-6.431a5.762,5.762,0,0,1,1.9-.351A5.509,5.509,0,0,0,1545.7,1005.71Z" transform="translate(-1541.084 -1004.211)" fill="#c586fc"/>
              <rect id="Rectángulo_26039" data-name="Rectángulo 26039" width="4.469" height="4.477" transform="matrix(0.959, -0.285, 0.285, 0.959, 0.515, 3.383)" fill="#7e41a5"/>
            </g>
            <path id="Trazado_163681" data-name="Trazado 163681" d="M1555.521,1022.871c.019.419-.843.88-1.219,1.049a32.142,32.142,0,0,1-4.9,1.792c-4.545-14.683.9-28.915.9-28.915l4.987,7.946q-.021,1.215-.089,2.453a104.925,104.925,0,0,0,.209,13.713C1555.461,1021.747,1555.507,1022.411,1555.521,1022.871Z" transform="translate(-1533.253 -971.59)" fill="#aa413e"/>
            <path id="Trazado_163682" data-name="Trazado 163682" d="M1549.087,1003.358c1.629-.964,4.9-2.718,7.6-2.995a.879.879,0,0,0,.717-1.226c-.855-1.952-3.268-6.037-6.205-7.934-.277-.179-.484-.023-.77.137-1.085.608-3.421,2.409-3.563,4.531a30.668,30.668,0,0,0,.91,6.921A.88.88,0,0,0,1549.087,1003.358Z" transform="translate(-1533.81 -975.863)" fill="#b64c41"/>
            <path id="Trazado_163683" data-name="Trazado 163683" d="M1550.378,989.321l-.033.06c-.254.456-1.994,3.4-4.866,4.238a23.466,23.466,0,0,1-.219-2.558l4.033-3.251a11.227,11.227,0,0,1,1.027,1.415Z" transform="translate(-1535.01 -978.36)" fill="#e8945b"/>
            <path id="Trazado_163684" data-name="Trazado 163684" d="M1545.123,994.078s6.282,1.045,6.873-2.879,1.8-6.428-2.19-7.261-4.992.547-5.508,1.808S1543.5,993.706,1545.123,994.078Z" transform="translate(-1536.037 -981.468)" fill="#ffb27d"/>
            <path id="Trazado_163685" data-name="Trazado 163685" d="M1555.031,984.247a.972.972,0,0,1,.515-.689,1.182,1.182,0,0,0-.694.34,3.642,3.642,0,0,0-.324-1.259,7.916,7.916,0,0,1-.042.921c-2.723-2.749-9.074.266-10.378.866-2.292,1.057-1.006,3.017.459,3.5s5.115-1.064,5.166-.053.733,2.123,1.113,2.15.656-.784,1.136-.254-.354,1.375-.354,1.375c-.5.912.528,2.3.528,2.3s.333.193.914-.465C1553.632,992.34,1557.73,988.258,1555.031,984.247Z" transform="translate(-1536.82 -982.42)" fill="#532c64"/>
            <g id="Grupo_102842" data-name="Grupo 102842" transform="translate(11.479 16.306)">
              <path id="Trazado_163686" data-name="Trazado 163686" d="M1556.652,1012.1l.195-1.2a10.634,10.634,0,0,1-7-4.159,13.538,13.538,0,0,1-2.53-6.205c-.577-4.3.554-6.74,3.458-7.475,2.6-.657,5.606,1.375,5.635,1.394l.688-1c-.14-.1-3.482-2.365-6.621-1.571-2.448.619-5.19,2.651-4.361,8.814a14.643,14.643,0,0,0,2.765,6.775A11.817,11.817,0,0,0,1556.652,1012.1Z" transform="translate(-1545.961 -991.72)" fill="#472362"/>
            </g>
            <path id="Trazado_163687" data-name="Trazado 163687" d="M1544.245,1015.6a12.068,12.068,0,0,1,3.836.165s8.038-5.637,9.446-7.045c1.019-1.019-3.07-5.616-5.2-9.186a.907.907,0,0,0,.324-.114c1.629-.966,4.9-2.719,7.6-3a.806.806,0,0,0,.286-.079,43.593,43.593,0,0,1,4.145,14.443s-6.787,6.626-15.367,7.79a55.175,55.175,0,0,1-5.939,1.248c-.812-.054-1.136-1.138-1.245-1.734A3.015,3.015,0,0,1,1544.245,1015.6Z" transform="translate(-1537.373 -971.927)" fill="#ffb27d"/>
          </g>
          <g id="Grupo_102853" data-name="Grupo 102853" transform="translate(0 10.931)">
            <g id="Grupo_102848" data-name="Grupo 102848" transform="translate(32.72 59.093)">
              <path id="Trazado_163688" data-name="Trazado 163688" d="M1513.934,1046.184a2.008,2.008,0,0,0,1.1,2.662,2.111,2.111,0,0,0,2.74-1.066,2.005,2.005,0,0,0-1.1-2.662A2.112,2.112,0,0,0,1513.934,1046.184Z" transform="translate(-1488.374 -997.269)" fill="#501c8a"/>
              <path id="Trazado_163689" data-name="Trazado 163689" d="M1505.395,1046.184a2.006,2.006,0,0,0,1.1,2.662,2.111,2.111,0,0,0,2.74-1.066,2.006,2.006,0,0,0-1.1-2.662A2.111,2.111,0,0,0,1505.395,1046.184Z" transform="translate(-1494.809 -997.271)" fill="#501c8a"/>
              <path id="Trazado_163690" data-name="Trazado 163690" d="M1526.028,1046.347l-2.969,1.035a2.746,2.746,0,0,1-.936.154l-16.844-.168-1.837-2.961Z" transform="translate(-1496.152 -997.683)" fill="#8c4ad3"/>
              <g id="Grupo_102843" data-name="Grupo 102843" transform="translate(3.683)">
                <path id="Trazado_163691" data-name="Trazado 163691" d="M1518.014,1033.712l-4.706-11.362-.005-.021c-.028-.1-.761-2.542-5-3.088l-.019,0-3.488-.638a3.222,3.222,0,0,0-2.348.181,1.112,1.112,0,0,0-.328,1.036c.088.954,3.219,8.32,5.3,13.04l-.668.277c-.535-1.211-5.23-11.883-5.357-13.254a1.771,1.771,0,0,1,.584-1.639c.973-.8,2.795-.374,2.988-.324l3.438.628c4.566.591,5.5,3.274,5.592,3.582l4.689,11.323Z" transform="translate(-1501.385 -1017.759)" fill="#8c4ad3"/>
              </g>
              <path id="Trazado_163692" data-name="Trazado 163692" d="M1510.568,1024.938l-9.09,1.766s-2.651,1.047-2.125,5.56c.463,3.97,2.492,26.247,2.492,26.247s.423,4.634,10.615,3.291Z" transform="translate(-1499.284 -1012.35)" fill="#8c4ad3"/>
              <path id="Trazado_163693" data-name="Trazado 163693" d="M1502.858,1031.085l2.444,24.947a5.515,5.515,0,0,0,1.034,2.714,5.852,5.852,0,0,0,4.706,2.39l8.43.049.208,0,5.28.031a6.013,6.013,0,0,0,1.531-.188c.114-.03.225-.061.337-.1a5.731,5.731,0,0,0,3.754-3.81,5.461,5.461,0,0,0,.149-2.409l-3.828-23.869a5.738,5.738,0,0,0-5.183-4.745l-1.489-.138-.354-.031h0l-.3-.028-4.978-.463-.61-.056-4.8-.445a5.97,5.97,0,0,0-2.162.193c-.046.012-.089.025-.133.039l-.279.093A5.63,5.63,0,0,0,1502.858,1031.085Z" transform="translate(-1496.613 -1012.369)" fill="#b473f0"/>
              <path id="Trazado_163694" data-name="Trazado 163694" d="M1504.83,1045.444a5.852,5.852,0,0,0,4.706,2.39l8.43.049.208,0,5.28.031a6.008,6.008,0,0,0,1.531-.188c.114-.03.225-.061.337-.1,1.827-.588,3.935-2.737,3.965-5.018,0,0-17.834-.226-21.56.333A3.547,3.547,0,0,0,1504.83,1045.444Z" transform="translate(-1495.107 -999.066)" fill="#a667e7"/>
              <g id="Grupo_102847" data-name="Grupo 102847" transform="translate(10.002 12.763)">
                <g id="Grupo_102844" data-name="Grupo 102844" transform="translate(12.963 0.772)">
                  <path id="Trazado_163695" data-name="Trazado 163695" d="M1512.382,1025.478c.037.023,3.947,2.335,4.461,4.369.53,2.09,4.059,26.448,4.094,26.694a5.563,5.563,0,0,1-1.909,4.127l.268-.062c.114-.03.225-.061.337-.1a4.984,4.984,0,0,0,1.62-4.01c-.146-1-3.57-24.62-4.1-26.724-.465-1.844-3.221-3.682-4.115-4.238l-.354-.031h0Z" transform="translate(-1512.382 -1025.478)" fill="#8c4ad3"/>
                </g>
                <g id="Grupo_102845" data-name="Grupo 102845" transform="translate(7.375 0.253)">
                  <path id="Trazado_163696" data-name="Trazado 163696" d="M1509.195,1025.182a7.4,7.4,0,0,1,3.168,4.881c.537,3.432,2.635,28.362,2.656,28.612l0,.019.005.016a2.713,2.713,0,0,1-.561,2.272h.212l.208,0a2.606,2.606,0,0,0,.449-2.353c-.065-.77-2.125-25.212-2.658-28.615a7.655,7.655,0,0,0-2.872-4.78Z" transform="translate(-1509.195 -1025.182)" fill="#8c4ad3"/>
                </g>
                <g id="Grupo_102846" data-name="Grupo 102846">
                  <path id="Trazado_163697" data-name="Trazado 163697" d="M1504.989,1025.17a6.576,6.576,0,0,1,1.527,1.227,6.946,6.946,0,0,1,1.722,3.635c.538,3.431,2.2,28.277,2.218,28.528l0,.019.005.018a3.681,3.681,0,0,1-.786,2.446l.531,0a3.93,3.93,0,0,0,.565-2.525c-.054-.794-1.687-25.132-2.22-28.535a7.053,7.053,0,0,0-3.154-4.948c-.046.012-.089.025-.133.039Z" transform="translate(-1504.989 -1025.038)" fill="#8c4ad3"/>
                </g>
              </g>
            </g>
            <g id="Grupo_102852" data-name="Grupo 102852">
              <path id="Trazado_163698" data-name="Trazado 163698" d="M1502.5,984.671c-1.062-.651-2.761.126-2.761.126.587-.824,2.73-.556,2.73-.556-4.268-.906-5.158,1.82-5.232,2.076-3.095-2.793-8.05,3.161-8.05,3.161l7.112,9.426s.649-1.5,1.5-1.033c1.336.731,3.92-2.223,3.094-6.109a10.269,10.269,0,0,0-.315-1.156,2.313,2.313,0,0,0,.887.219c.777,0,1.952-1.983,2.111-2.649S1503.564,985.321,1502.5,984.671Z" transform="translate(-1474.172 -984.057)" fill="#472362"/>
              <path id="Trazado_163699" data-name="Trazado 163699" d="M1509.239,1024.469c-.158.381-.842.721-1.825.964a16.523,16.523,0,0,1-8.643-.384c-2.911-1.077-5.022-16.459-5.918-24.343-.314-2.749-.479-4.587-.479-4.587s1.671-2.618,8.141-1.745,7.122,3.053,7.7,6.977S1509.748,1023.233,1509.239,1024.469Z" transform="translate(-1471.771 -976.417)" fill="#7746a5"/>
              <path id="Trazado_163700" data-name="Trazado 163700" d="M1507.208,1024.652a16.523,16.523,0,0,1-8.643-.384c-2.911-1.077-5.022-16.459-5.918-24.343.766-2.713,1.375-4.5,1.375-4.5s8.122-.98,9.7,1.473C1505.141,999.094,1506.859,1020.216,1507.208,1024.652Z" transform="translate(-1471.565 -975.636)" fill="#622b8b"/>
              <path id="Trazado_163701" data-name="Trazado 163701" d="M1494.336,1017.2c-4.8.146-11.7-5.379-11.7-5.379l.945-1.454c1.745,1.162,7.924,2.253,7.924,2.253-.433-1.4-.764-2.692-1.01-3.884-1.678-8.106.554-11.609,1.2-12.423a1.737,1.737,0,0,1,.168-.193l.056.163c.079.233.237.7.447,1.347C1493.927,1002.442,1498.344,1017.081,1494.336,1017.2Z" transform="translate(-1479.111 -974.967)" fill="#d9935c"/>
              <path id="Trazado_163702" data-name="Trazado 163702" d="M1505.412,1028.019c-2.225-4.988-3.289-6.4-3.326-7.971-.03-1.241.582-2.581,1.773-5.865a12.213,12.213,0,0,0,.591-2.374c.942-6.333-2.721-13.179-5-13.645-.633-.168-1.706-2.455-1.694-6.14l-.284.056-4.792.949s.109,1.508.112,2.93c0,1.184-.068,2.306-.337,2.448-.345.03-.549.051-.549.051s-4,5.549-4.333,10.712,3.2,7.4-.026,17.718C1484.256,1037.42,1506.641,1030.777,1505.412,1028.019Z" transform="translate(-1475.655 -978.056)" fill="#d9935c"/>
              <path id="Trazado_163703" data-name="Trazado 163703" d="M1490.335,993s.109,1.508.112,2.93c2.681-.075,4.1-2.523,4.68-3.879Z" transform="translate(-1473.308 -978.031)" fill="#cb7d45"/>
              <path id="Trazado_163704" data-name="Trazado 163704" d="M1496.919,995.988a14.071,14.071,0,0,0,1.743-4.119c.24-1.355-.449-6.381-5.5-5.656a6.854,6.854,0,0,0-2.846,1.075c-1.1.742-2.677,2.339-.91,6.724l.461,1.482Z" transform="translate(-1474.604 -982.487)" fill="#472362"/>
              <path id="Trazado_163705" data-name="Trazado 163705" d="M1490.732,997.965s6.346.1,6.349-3.849.826-6.6-3.225-6.835-4.839,1.273-5.162,2.593S1489.082,997.835,1490.732,997.965Z" transform="translate(-1474.601 -981.646)" fill="#d9935c"/>
              <path id="Trazado_163706" data-name="Trazado 163706" d="M1489.958,987.774s1.738,4.636,4.4,5.322,3.823-.028,3.823-.028-.689-3.389-1.113-6.226C1497.07,986.841,1491.268,985.567,1489.958,987.774Z" transform="translate(-1473.592 -982.235)" fill="#472362"/>
              <path id="Trazado_163707" data-name="Trazado 163707" d="M1491.583,987.756a5.594,5.594,0,0,0-1.613,2.041c-.315,1.006-.459,3.079-1.062,3.007,0,0-1.308-3.151.161-4.934C1490.63,985.98,1491.583,987.756,1491.583,987.756Z" transform="translate(-1474.787 -981.84)" fill="#472362"/>
              <path id="Trazado_163708" data-name="Trazado 163708" d="M1499.92,1059.867a62.6,62.6,0,0,1-4,11.219l-2.092-.144a59.228,59.228,0,0,0,.968-11.478,48.067,48.067,0,0,0-2.434-15.263c-6.261-17.881-5.25-30.895-5.25-30.895l11.774,1.378.547.063c.049,5.407.189,12.749.312,18.49.107,5.162.2,9.03.2,9.03C1502.211,1047.143,1501.389,1054.023,1499.92,1059.867Z" transform="translate(-1475.781 -962.021)" fill="#622b8b"/>
              <path id="Trazado_163709" data-name="Trazado 163709" d="M1508.546,1030.732l-1.906.572s-6.282-10.426-6.854-13.138c-.186-.884-.644-2.651-1.177-4.631-1.1-4.1-2.528-9.12-2.528-9.12l-.468-2.03-1.6-6.928a21.747,21.747,0,0,1,4.853,1.063,2.227,2.227,0,0,1,1.2.889c1.315,2.895,2.63,10.2,3.552,15.407.515,2.9.908,5.157,1.113,5.635C1505.307,1019.784,1507.054,1027.115,1508.546,1030.732Z" transform="translate(-1470.536 -975.468)" fill="#d9935c"/>
              <path id="Trazado_163710" data-name="Trazado 163710" d="M1504.209,1059.919a28.988,28.988,0,0,1-3.659,11.9l-1,.726s-.945-5.09-1.615-11.146c-.638-5.755-1.511-11.846-2.5-13.7-3.928-7.373-5.109-35.207-5.109-35.207l11.937-.593c1.2,2.018,1.724,5.328,1.848,9.093.314,9.5-1.918,21.886-2.253,23.676v.005a.619.619,0,0,0,.079.4C1504.311,1049.767,1504.655,1055.147,1504.209,1059.919Z" transform="translate(-1473.314 -963.086)" fill="#944acb"/>
              <path id="Trazado_163711" data-name="Trazado 163711" d="M1490.066,988.063s1.238,4.855,4.6,6.411c0,0-3.363-2.983-3.649-6.188S1490.066,988.063,1490.066,988.063Z" transform="translate(-1473.51 -981.991)" fill="#472362"/>
              <path id="Trazado_163712" data-name="Trazado 163712" d="M1502.985,1015.394a4.96,4.96,0,0,0,1.182,1.746,3.368,3.368,0,0,1,1.3,2.03,1.8,1.8,0,0,1-1.568,2.19c-.761,0-1.49-1.038-1.937-3.519-.024-.135-.747-1.559-.747-1.559Z" transform="translate(-1465.11 -960.448)" fill="#d9935c"/>
              <path id="Trazado_163713" data-name="Trazado 163713" d="M1507.847,1028.958a2.848,2.848,0,0,1-.073.954c-.254.8-1.127,1.164-3.237.945-1.289-.133-1.862-2.293-2.118-4.136q-1.162,3.956-3.26,4.427c-2.044.454-12.358,1.708-13.033-3.195-.742-5.392,1.481-14.939,1.6-20.085a25.567,25.567,0,0,1-.375-4.771c.086-3.666,1.163-5.723,1.99-6.549a2.823,2.823,0,0,1,1.41-.454c.48-.082,1.147-.177,2.092-.3a3.141,3.141,0,0,1,.377-.028c-.175.31-2.511,3.847-2.328,4.757.191.952,8.474.095,9.046-.428s1.475-4.534,1.475-4.534a11.476,11.476,0,0,1,4.368,1.364l-.014.019a1.243,1.243,0,0,1,.377.4c1.531,2.914,3.06,10.27,4.135,15.518a7.644,7.644,0,0,1-5.59.819C1505.615,1019.717,1507.708,1026.2,1507.847,1028.958Z" transform="translate(-1476.592 -975.392)" fill="#a8d29f"/>
              <path id="Trazado_163714" data-name="Trazado 163714" d="M1485.049,1005.916c-.072-.182-.982-2.87-1.671-3.235a4.676,4.676,0,0,0-2.255-.617,3.2,3.2,0,0,0,0,3.235,10.6,10.6,0,0,0,2.981,2.071Z" transform="translate(-1480.582 -970.514)" fill="#d9935c"/>
              <path id="Trazado_163715" data-name="Trazado 163715" d="M1492.282,995.692l-.012.023c-.282.443-4.685,7.569-5.107,12.144a26.278,26.278,0,0,1-.435-4.783c.566-1.729,2-5.646,3.463-7.082A9.735,9.735,0,0,1,1492.282,995.692Z" transform="translate(-1476.028 -975.291)" fill="#7746a5"/>
              <g id="Grupo_102849" data-name="Grupo 102849" transform="translate(0 29.495)">
                <path id="Trazado_163716" data-name="Trazado 163716" d="M1486.005,1006.785l-2.909.97a.185.185,0,0,1-.233-.118l-1.848-5.548a.186.186,0,0,1,.117-.233l2.909-.968a.185.185,0,0,1,.233.118l1.846,5.546A.184.184,0,0,1,1486.005,1006.785Z" transform="translate(-1480.336 -1000.879)" fill="#f1a34f"/>
                <rect id="Rectángulo_26040" data-name="Rectángulo 26040" width="3.435" height="6.215" rx="0.186" transform="matrix(0.949, -0.316, 0.316, 0.949, 0, 1.243)" fill="#d86713"/>
              </g>
              <path id="Trazado_163717" data-name="Trazado 163717" d="M1500.94,1039.283a28.988,28.988,0,0,1-3.659,11.9l-1.017.926s-.928-5.29-1.6-11.346A10.7,10.7,0,0,0,1500.94,1039.283Z" transform="translate(-1470.044 -942.45)" fill="#d9935c"/>
              <path id="Trazado_163718" data-name="Trazado 163718" d="M1497.008,1040.034a62.6,62.6,0,0,1-4,11.219l-2.092-.144a59.228,59.228,0,0,0,.968-11.478C1492.593,1039.989,1494.059,1040.352,1497.008,1040.034Z" transform="translate(-1472.869 -942.188)" fill="#d9935c"/>
              <g id="Grupo_102850" data-name="Grupo 102850" transform="translate(11.944 105.977)">
                <path id="Trazado_163719" data-name="Trazado 163719" d="M1496.838,1049.341H1495.5c-.449-.07-.779-.2-1.238-.259a1.245,1.245,0,0,0-1.082.259l-.012.014H1487.5c-.142-.205-.005-.677.128-1.024a.806.806,0,0,1,.531-.486,6.11,6.11,0,0,0,2.875-1.313c.61-.552,2.951-2.03,2.951-2.03l.012,0c.051,0,.3.077,1.361.975.55.465,1.489-.654,1.489-.654a1.338,1.338,0,0,1,.307.417,1.423,1.423,0,0,1,.123.872,5.636,5.636,0,0,0,.4,2.1c.133.389.244.665.244.665S1497.986,1049.2,1496.838,1049.341Z" transform="translate(-1487.436 -1044.498)" fill="#472362"/>
                <path id="Trazado_163720" data-name="Trazado 163720" d="M1494.337,1045.236a4.245,4.245,0,0,1-1.437.724c-.6.081-1.731-1.459-1.731-1.459l.012,0c.051,0,.3.077,1.361.975.55.465,1.489-.654,1.489-.654A1.338,1.338,0,0,1,1494.337,1045.236Z" transform="translate(-1484.623 -1044.498)" fill="#7746a5"/>
                <path id="Trazado_163721" data-name="Trazado 163721" d="M1496.838,1047.745H1495.5c-.449-.07-.779-.2-1.238-.259a1.246,1.246,0,0,0-1.082.259l-.012.014H1487.5c-.142-.205-.005-.677.128-1.024.174-.152.221.665.317.8a25.276,25.276,0,0,0,4.89-.144,2.747,2.747,0,0,1,2.143-.261,5.163,5.163,0,0,0,2.7-.51c.133.389.244.665.244.665S1497.986,1047.6,1496.838,1047.745Z" transform="translate(-1487.436 -1042.902)" fill="#7746a5"/>
              </g>
              <g id="Grupo_102851" data-name="Grupo 102851" transform="translate(19.072 105.977)">
                <path id="Trazado_163722" data-name="Trazado 163722" d="M1500.9,1049.341h-1.336c-.447-.07-.777-.2-1.236-.259a1.24,1.24,0,0,0-1.082.259l-.012.014h-5.674c-.144-.205-.007-.677.128-1.024a.8.8,0,0,1,.531-.486,6.106,6.106,0,0,0,2.874-1.313c.612-.552,2.951-2.03,2.951-2.03l.014,0c.051,0,.295.077,1.361.975.549.465,1.487-.654,1.487-.654a1.324,1.324,0,0,1,.309.417,1.41,1.41,0,0,1,.121.872,5.681,5.681,0,0,0,.407,2.1c.132.389.244.665.244.665S1502.051,1049.2,1500.9,1049.341Z" transform="translate(-1491.501 -1044.498)" fill="#472362"/>
                <path id="Trazado_163723" data-name="Trazado 163723" d="M1498.4,1045.236a4.239,4.239,0,0,1-1.439.724c-.6.081-1.73-1.459-1.73-1.459l.014,0c.051,0,.295.077,1.361.975.549.465,1.487-.654,1.487-.654A1.324,1.324,0,0,1,1498.4,1045.236Z" transform="translate(-1488.689 -1044.498)" fill="#7746a5"/>
                <path id="Trazado_163724" data-name="Trazado 163724" d="M1500.9,1047.745h-1.336c-.447-.07-.777-.2-1.236-.259a1.24,1.24,0,0,0-1.082.259l-.012.014h-5.674c-.144-.205-.007-.677.128-1.024.172-.152.221.665.315.8a25.3,25.3,0,0,0,4.892-.144,2.744,2.744,0,0,1,2.141-.261,5.167,5.167,0,0,0,2.705-.51c.132.389.244.665.244.665S1502.051,1047.6,1500.9,1047.745Z" transform="translate(-1491.501 -1042.902)" fill="#7746a5"/>
              </g>
              <path id="Trazado_163725" data-name="Trazado 163725" d="M1501.925,1023.615c-1.417-.473-3.235-1.731-5.418-4.552-5.778-7.469-.489-16.247.219-16.41s2.043,5.679,2.043,5.679C1499.693,1014.375,1501.786,1020.862,1501.925,1023.615Z" transform="translate(-1470.67 -970.049)" fill="#82b378"/>
              <path id="Trazado_163726" data-name="Trazado 163726" d="M1499.3,995.252a16.432,16.432,0,0,0-6.251,12.358,9.531,9.531,0,0,0,7.124,10.1l-.491-2.653a7.412,7.412,0,0,1-4.526-8.906,19.788,19.788,0,0,1,7.047-10.543Z" transform="translate(-1471.279 -975.623)" fill="#7746a5"/>
              <path id="Trazado_163727" data-name="Trazado 163727" d="M1480.839,1002.541s.545-1.126,1.545-.672.563,2.162-.018,2.762a5.789,5.789,0,0,0-.745.873Z" transform="translate(-1480.462 -970.719)" fill="#d9935c"/>
            </g>
          </g>
        </g>
      </g>
      <g id="Grupo_102857" data-name="Grupo 102857" transform="translate(58.22 66.931)">
        <g id="Grupo_102856" data-name="Grupo 102856" transform="translate(0 1.087)">
          <path id="Trazado_163728" data-name="Trazado 163728" d="M1452.919,1010.225s2.334-1.22,3.051-1.022,3.61,1.354,3.975,1.88c.566.819,1.58,2.132.926,2.2s-6.346-.181-6.993-.3S1451.767,1012.086,1452.919,1010.225Z" transform="translate(-1394.014 -970.018)" fill="#ea9e6a"/>
          <path id="Trazado_163729" data-name="Trazado 163729" d="M1473.5,1018.839c-1.324-.813-13.354-2.721-14.341-3.207s-7.321-15.746-8.581-16.71l0,0v-.046s-6.721-4.86-21.863-.1a81.154,81.154,0,0,0-.882,12.451c.1,7.59,1.662,15.858,7.948,15.94.286.005.563.005.837.005,10.966.018,13.987-2.656,13.987-2.656l-.009-8.639.03.04,0,0c2.4,3.221,4.829,5.888,5.444,6.139,1.2.487,14.115.887,16.366.067S1473.5,1018.839,1473.5,1018.839Z" transform="translate(-1412.6 -979.432)" fill="#622b8b"/>
          <path id="Trazado_163730" data-name="Trazado 163730" d="M1440.06,999.282l-.079.794s-.014,2.506-3.107,2.586-5.29-1.468-5.031-3.379a22.6,22.6,0,0,0,.945-3.679,8.7,8.7,0,0,0,.028-1.5l5.942.431,1.72.447Z" transform="translate(-1409.584 -981.376)" fill="#ea9e6a"/>
          <path id="Trazado_163731" data-name="Trazado 163731" d="M1440.052,994.984l-.419,4.3a5.04,5.04,0,0,1-2.183.274c-2.725-.252-5.025-4.894-5.06-5.449Z" transform="translate(-1409.157 -981.376)" fill="#d88d59"/>
          <path id="Trazado_163732" data-name="Trazado 163732" d="M1440.574,1001.349s-7.74.831-8.183-4-1.741-7.971,3.181-8.706,6.053,1.019,6.593,2.593S1442.575,1001.007,1440.574,1001.349Z" transform="translate(-1409.525 -985.618)" fill="#ea9e6a"/>
          <path id="Trazado_163733" data-name="Trazado 163733" d="M1440.372,991.126c.81-1.343,4.015-2.076,2.535-2.595a17.052,17.052,0,0,1-2.532-1.129c-1.946-1.068-4.594-.335-5.465.026a1.251,1.251,0,0,1,.249-.48,1.113,1.113,0,0,0-.486.594c-.042.025-.061.042-.051.049a1.449,1.449,0,0,0-.7-.019s.193-.009.249.119a.116.116,0,0,0,.028.037c-3.305,1.236-4.059,6.209-3.149,7.459a25.513,25.513,0,0,1,2.276,4.774,2.7,2.7,0,0,0,.494-1.936c-.11-1.245.949-1.147,2.336-1.58s.419-2.1,1.674-2.933,5.492.116,5.5-.614C1443.746,992.79,1440.151,991.491,1440.372,991.126Z" transform="translate(-1410.435 -986.846)" fill="#aa413e"/>
          <path id="Trazado_163734" data-name="Trazado 163734" d="M1436.608,1020.924c-.274,0-.551,0-.837-.005-6.286-.082-7.845-8.35-7.948-15.938C1428.542,1005.422,1438.282,1011.589,1436.608,1020.924Z" transform="translate(-1412.598 -973.183)" fill="#472362"/>
          <path id="Trazado_163735" data-name="Trazado 163735" d="M1430.237,1010.225s2.334-1.22,3.049-1.022,3.612,1.354,3.977,1.88c.566.819,1.578,2.132.926,2.2s-6.346-.181-6.994-.3S1429.085,1012.086,1430.237,1010.225Z" transform="translate(-1411.102 -970.018)" fill="#ea9e6a"/>
          <path id="Trazado_163736" data-name="Trazado 163736" d="M1438,997.519s-4.688.6-7.236,3.019c-2.315,2.2-9.47,13.35-11.532,17.408a2.976,2.976,0,0,0,.843,2.634c1.41,1.143,4.44,2.162,12.221,1.618l6.945-.354s.789-3.03-.64-3.812l-11.078-1.2s6.971-5.977,8.378-7.754S1438,997.519,1438,997.519Z" transform="translate(-1419.14 -978.804)" fill="#622b8b"/>
          <path id="Trazado_163737" data-name="Trazado 163737" d="M1462.633,1013.86c-2.251.821-15.165.421-16.366-.067-.615-.251-3.046-2.918-5.444-6.139.131.031,4.264,1.059,6.638,3.615,0,0,1.394.812,5.385.829S1461.93,1012.48,1462.633,1013.86Z" transform="translate(-1402.804 -971.168)" fill="#472362"/>
          <path id="Trazado_163738" data-name="Trazado 163738" d="M1433.816,997.316s-4.906.621-6.609,1.8-1.431,1.571-1.431,1.571.519.977,3.058.2a48.109,48.109,0,0,0,5.923-2.476A1.1,1.1,0,0,0,1433.816,997.316Z" transform="translate(-1414.152 -978.957)" fill="#944acb"/>
          <path id="Trazado_163739" data-name="Trazado 163739" d="M1437.07,996.792s.223.726.652.863,4.673,1.718,5.276,1.438-.866-1.794-3.153-2.107A10.439,10.439,0,0,0,1437.07,996.792Z" transform="translate(-1405.632 -979.369)" fill="#944acb"/>
        </g>
        <path id="Trazado_163740" data-name="Trazado 163740" d="M1431.742,993.659l-2.772-1.764a.565.565,0,0,1-.035-.929c2.079-1.553,9.044-6.076,17.622-4.355a.566.566,0,0,1,.358.87l-2.069,3.091Z" transform="translate(-1411.932 -986.226)" fill="#472362"/>
        <path id="Trazado_163741" data-name="Trazado 163741" d="M1443.878,990.491l-.056-1.646a.292.292,0,0,0-.295-.282,33.42,33.42,0,0,0-13.061,3.009.3.3,0,0,0-.146.377l.559,1.368a.292.292,0,0,0,.381.161,43.175,43.175,0,0,1,12.346-2.684A.293.293,0,0,0,1443.878,990.491Z" transform="translate(-1410.732 -984.466)" fill="#944acb"/>
        <path id="Trazado_163742" data-name="Trazado 163742" d="M1431.56,992.173s10.947-4.95,14.58-.9Z" transform="translate(-1409.783 -983.625)" fill="#472362"/>
        <path id="Trazado_163743" data-name="Trazado 163743" d="M1437.446,989.49a.555.555,0,1,1-.537-.7A.635.635,0,0,1,1437.446,989.49Z" transform="translate(-1406.157 -984.292)" fill="#472362"/>
      </g>
      <g id="Grupo_102863" data-name="Grupo 102863" transform="translate(6.779 56.75)">
        <g id="Grupo_102861" data-name="Grupo 102861" transform="translate(0 41.337)">
          <g id="Grupo_102858" data-name="Grupo 102858" transform="translate(0 13.148)">
            <path id="Trazado_163744" data-name="Trazado 163744" d="M1391.942,1073.18l27.777-.024V1013.4h-27.777Z" transform="translate(-1388.191 -1010.06)" fill="#efb054"/>
            <rect id="Rectángulo_26041" data-name="Rectángulo 26041" width="123.617" height="59.76" transform="translate(155.145 63.096) rotate(180)" fill="#ffcf83"/>
            <rect id="Rectángulo_26042" data-name="Rectángulo 26042" width="27.697" height="3.336" transform="translate(27.697 3.336) rotate(180)" fill="#c18e4c"/>
            <rect id="Rectángulo_26043" data-name="Rectángulo 26043" width="131.266" height="3.336" transform="translate(27.072 0)" fill="#e5bc93"/>
          </g>
          <g id="Grupo_102860" data-name="Grupo 102860" transform="translate(109.042)">
            <g id="Grupo_102859" data-name="Grupo 102859">
              <path id="Trazado_163745" data-name="Trazado 163745" d="M1455.7,1017.143h20.914l3.771-13.148H1459.5Z" transform="translate(-1449.199 -1003.995)" fill="#b473f0"/>
              <path id="Trazado_163746" data-name="Trazado 163746" d="M1479.552,1011.2h-27.56v.512H1479.4Z" transform="translate(-1451.991 -998.566)" fill="#a667e5"/>
            </g>
            <path id="Trazado_163747" data-name="Trazado 163747" d="M1464.572,1007.983a.609.609,0,0,0-.6-.838,1.2,1.2,0,0,0-1.077.838.609.609,0,0,0,.6.836A1.2,1.2,0,0,0,1464.572,1007.983Z" transform="translate(-1443.8 -1001.622)" fill="#a667e5"/>
          </g>
        </g>
        <path id="Trazado_163748" data-name="Trazado 163748" d="M1407.431,983.047v51.859h50.319v-10.328a19.744,19.744,0,0,1,19.745-19.743h0a19.743,19.743,0,0,1,19.743,19.743v10.328h31.551V983.047a2.628,2.628,0,0,0-2.627-2.627H1410.057A2.626,2.626,0,0,0,1407.431,983.047Z" transform="translate(-1376.521 -980.419)" fill="#b473f0" opacity="0.5"/>
        <g id="Grupo_102862" data-name="Grupo 102862" transform="translate(30.909)" opacity="0.4">
          <path id="Trazado_163749" data-name="Trazado 163749" d="M1475.085,980.42l-21.97,27.155a19.821,19.821,0,0,1,8.19,9.407l29.58-36.562Z" transform="translate(-1373.012 -980.419)" fill="#fff"/>
          <path id="Trazado_163750" data-name="Trazado 163750" d="M1490.2,984l-31.551,39v9.211h4.389l27.162-33.572Z" transform="translate(-1368.842 -977.722)" fill="#fff"/>
          <path id="Trazado_163751" data-name="Trazado 163751" d="M1449.877,980.42l-42.447,52.464v2.022h5.065l44.083-54.485Z" transform="translate(-1407.431 -980.42)" fill="#fff"/>
          <path id="Trazado_163752" data-name="Trazado 163752" d="M1477.018,980.42h-21.177l-44.083,54.485h21.177Z" transform="translate(-1404.169 -980.42)" fill="#fff"/>
          <path id="Trazado_163753" data-name="Trazado 163753" d="M1462.593,1024.578h24.637V994.127Z" transform="translate(-1365.871 -970.093)" fill="#fff"/>
          <path id="Trazado_163754" data-name="Trazado 163754" d="M1442.443,980.42h-32.385a2.626,2.626,0,0,0-2.626,2.627v40.647Z" transform="translate(-1407.43 -980.419)" fill="#fff"/>
        </g>
      </g>
    </g>
  </g>
</svg>
