<svg xmlns="http://www.w3.org/2000/svg" xmlns:xlink="http://www.w3.org/1999/xlink" width="41.145" height="24" viewBox="0 0 41.145 24">
  <defs>
    <clipPath id="clip-path">
      <rect id="Rectángulo_25769" data-name="Rectángulo 25769" width="41.145" height="24" fill="none"/>
    </clipPath>
  </defs>
  <g id="SLOVENIA" transform="translate(-616.879 -256.105)">
    <g id="Grupo_99991" data-name="Grupo 99991" transform="translate(616.879 256.105)">
      <g id="Grupo_99990" data-name="Grupo 99990">
        <g id="Grupo_99989" data-name="Grupo 99989" clip-path="url(#clip-path)">
          <rect id="Rectángulo_25765" data-name="Rectángulo 25765" width="41.145" height="24" fill="#fff"/>
          <rect id="Rectángulo_25766" data-name="Rectángulo 25766" width="41.145" height="8.001" transform="translate(0 15.999)" fill="#ea0020"/>
          <rect id="Rectángulo_25767" data-name="Rectángulo 25767" width="41.145" height="8" transform="translate(0 8)" fill="#3555e2"/>
          <g id="Grupo_99988" data-name="Grupo 99988">
            <g id="Grupo_99987" data-name="Grupo 99987" clip-path="url(#clip-path)">
              <path id="Trazado_158799" data-name="Trazado 158799" d="M624.342,259.868c-.077.033-.148.066-.223.1l.233,3.63a4.091,4.091,0,0,0,2.9,3.657h0a4.093,4.093,0,0,0,2.9-3.657l.227-3.63c-.071-.034-.143-.067-.219-.1h0l-.235,3.716a3.871,3.871,0,0,1-2.676,3.435h0a3.929,3.929,0,0,1-1.557-.948,3.872,3.872,0,0,1-1.12-2.487l-.234-3.716h0" transform="translate(-615.243 -255.255)" fill="#ea0020"/>
              <path id="Trazado_158800" data-name="Trazado 158800" d="M630.125,259.981a7.22,7.22,0,0,0-5.828,0l.239,3.716a3.871,3.871,0,0,0,1.12,2.487,3.93,3.93,0,0,0,1.557.948h0a3.871,3.871,0,0,0,2.676-3.435" transform="translate(-615.203 -255.369)" fill="#3555e2"/>
              <path id="Trazado_158801" data-name="Trazado 158801" d="M626.9,260.85l.134-.176-.218.023-.089-.2-.089.2-.216-.023.127.176-.127.176.216-.023.089.2.089-.2.218.023" transform="translate(-614.722 -255.113)" fill="#f8e72a"/>
              <path id="Trazado_158802" data-name="Trazado 158802" d="M626.24,259.957l.127-.177-.215.024-.091-.2-.084.2-.22-.024.129.177-.129.177.22-.026.084.2.091-.2.215.026" transform="translate(-614.873 -255.315)" fill="#f8e72a"/>
              <path id="Trazado_158803" data-name="Trazado 158803" d="M627.577,259.957l.132-.177-.218.024-.086-.2-.091.2-.215-.024.129.177-.129.177.215-.026.091.2.086-.2.218.026" transform="translate(-614.57 -255.315)" fill="#f8e72a"/>
              <path id="Trazado_158804" data-name="Trazado 158804" d="M629.461,263.772l-1.176-1.563-.469.625-.706-1.411-.706,1.411-.467-.625-1.178,1.563a.793.793,0,0,0,.785.786.8.8,0,0,0,.393-.105h0a.759.759,0,0,1,.189-.08.774.774,0,0,1,.591.08.812.812,0,0,0,.394.105h0a.8.8,0,0,0,.39-.105.785.785,0,0,1,.6-.08.808.808,0,0,1,.19.08h0a.777.777,0,0,0,.943-.125.787.787,0,0,0,.233-.555" transform="translate(-615.099 -254.904)" fill="#fff"/>
              <path id="Trazado_158805" data-name="Trazado 158805" d="M624.986,264.043a2.629,2.629,0,0,0,.18.311h0a.768.768,0,0,0,.527.048.962.962,0,0,0,.191-.078h0a.776.776,0,0,1,.387-.107h0a.766.766,0,0,1,.392.107.789.789,0,0,0,.595.078.814.814,0,0,0,.189-.078h0a.8.8,0,0,1,.395-.107h0a.785.785,0,0,1,.395.107.776.776,0,0,0,.591.078.474.474,0,0,0,.125-.048,3.246,3.246,0,0,0,.179-.311h0a.734.734,0,0,0-.113.054h0a.917.917,0,0,1-.191.081.793.793,0,0,1-.591-.081.783.783,0,0,0-.395-.105h0a.8.8,0,0,0-.395.105h0a.887.887,0,0,1-.191.081.807.807,0,0,1-.595-.081.765.765,0,0,0-.392-.105h0a.775.775,0,0,0-.387.105h0a.972.972,0,0,1-.191.081.806.806,0,0,1-.595-.081.639.639,0,0,0-.113-.054h0" transform="translate(-615.047 -254.324)" fill="#fff"/>
              <path id="Trazado_158806" data-name="Trazado 158806" d="M628.681,264.56a4.371,4.371,0,0,1-.3.337,3.661,3.661,0,0,1-1.4.868h0a3.65,3.65,0,0,1-1.4-.868,3.859,3.859,0,0,1-.294-.337h0a.769.769,0,0,0,.326-.015.787.787,0,0,0,.191-.08h0a.786.786,0,0,1,.387-.1h0a.776.776,0,0,1,.392.1.778.778,0,0,0,.595.08.683.683,0,0,0,.189-.08h0a.807.807,0,0,1,.395-.1h0a.8.8,0,0,1,.395.1.766.766,0,0,0,.517.094h0" transform="translate(-614.977 -254.24)" fill="#fff"/>
            </g>
          </g>
        </g>
      </g>
    </g>
  </g>
</svg>
