<svg xmlns="http://www.w3.org/2000/svg" width="70.128" height="86" viewBox="0 0 70.128 86">
  <g id="Grupo_99809" data-name="Grupo 99809" transform="translate(-220.936 -213)">
    <path id="Trazado_159622" data-name="Trazado 159622" d="M284.454,214.107h-5.57v83.786h5.57a5.579,5.579,0,0,0,5.5-5.618v-72.55A5.579,5.579,0,0,0,284.454,214.107Z" fill="#d6c6c4"/>
    <path id="Trazado_159623" data-name="Trazado 159623" d="M278.917,214.107H227.546a5.579,5.579,0,0,0-5.5,5.618v72.55a5.579,5.579,0,0,0,5.5,5.618h51.371a5.58,5.58,0,0,0,5.5-5.618v-72.55A5.58,5.58,0,0,0,278.917,214.107Z" fill="#696984"/>
    <path id="Trazado_159624" data-name="Trazado 159624" d="M253.806,220.205a22.075,22.075,0,0,1,15.808,7.24,21.868,21.868,0,0,1-5.538,4.46,20.562,20.562,0,0,0-10.27-11.7Z" fill="#4ca987"/>
    <path id="Trazado_159625" data-name="Trazado 159625" d="M252.658,220.205a20.557,20.557,0,0,0-10.281,11.732,21.723,21.723,0,0,1-5.585-4.43A22.079,22.079,0,0,1,252.658,220.205Z" fill="#5fcda4"/>
    <path id="Trazado_159626" data-name="Trazado 159626" d="M265.87,242.343H253.232v-7.6a21.949,21.949,0,0,0,10.844-2.833,29.885,29.885,0,0,1,1.794,10.438Z" fill="#4ca987"/>
    <path id="Trazado_159627" data-name="Trazado 159627" d="M265.87,242.343h9.508a22.053,22.053,0,0,1-5.764,14.9,21.871,21.871,0,0,0-5.538-4.461,29.877,29.877,0,0,0,1.794-10.438Z" fill="#4ca987"/>
    <path id="Trazado_159628" data-name="Trazado 159628" d="M253.232,262.476v2.013c-.192,0-.382,0-.572-.007h0a20.56,20.56,0,0,1-10.281-11.732,22.272,22.272,0,0,1,10.855-2.8Z" fill="#5fcda4"/>
    <path id="Trazado_159629" data-name="Trazado 159629" d="M275.378,242.343H265.87a29.885,29.885,0,0,0-1.794-10.438,21.868,21.868,0,0,0,5.538-4.46,22.05,22.05,0,0,1,5.764,14.9Z" fill="#5fcda4"/>
    <path id="Trazado_159630" data-name="Trazado 159630" d="M253.232,234.738v7.6H240.594a29.84,29.84,0,0,1,1.783-10.406,22.272,22.272,0,0,0,10.855,2.8Z" fill="#5fcda4"/>
    <path id="Trazado_159631" data-name="Trazado 159631" d="M253.806,220.205a20.562,20.562,0,0,1,10.27,11.7,21.949,21.949,0,0,1-10.844,2.833V220.2c.192,0,.382,0,.572.008Z" fill="#5fcda4"/>
    <path id="Trazado_159632" data-name="Trazado 159632" d="M253.232,242.343H265.87a29.877,29.877,0,0,1-1.794,10.438,21.937,21.937,0,0,0-10.844-2.832Z" fill="#5fcda4"/>
    <path id="Trazado_159633" data-name="Trazado 159633" d="M240.594,242.343a29.842,29.842,0,0,0,1.783,10.407,21.662,21.662,0,0,0-5.583,4.431,22.045,22.045,0,0,1-5.708-14.838Z" fill="#5fcda4"/>
    <path id="Trazado_159634" data-name="Trazado 159634" d="M253.232,222.211v12.527a22.272,22.272,0,0,1-10.855-2.8,20.557,20.557,0,0,1,10.281-11.732h0c.19-.006.38-.008.572-.008Z" fill="#4ca987"/>
    <path id="Trazado_159635" data-name="Trazado 159635" d="M264.076,252.781a20.561,20.561,0,0,1-10.27,11.7h0c-.19.005-.38.007-.572.007v-14.54A21.937,21.937,0,0,1,264.076,252.781Z" fill="#4ca987"/>
    <path id="Trazado_159636" data-name="Trazado 159636" d="M253.232,242.343v7.606a22.272,22.272,0,0,0-10.855,2.8,29.842,29.842,0,0,1-1.783-10.407Z" fill="#4ca987"/>
    <path id="Trazado_159637" data-name="Trazado 159637" d="M242.377,231.937a29.84,29.84,0,0,0-1.783,10.406h-9.508a22.056,22.056,0,0,1,5.706-14.836,21.723,21.723,0,0,0,5.585,4.43Z" fill="#4ca987"/>
    <path id="Trazado_159638" data-name="Trazado 159638" d="M269.614,257.242a22.079,22.079,0,0,1-15.808,7.24,20.561,20.561,0,0,0,10.27-11.7,21.871,21.871,0,0,1,5.538,4.461Z" fill="#5fcda4"/>
    <path id="Trazado_159639" data-name="Trazado 159639" d="M242.377,252.75a20.56,20.56,0,0,0,10.281,11.732,22.083,22.083,0,0,1-15.864-7.3A21.662,21.662,0,0,1,242.377,252.75Z" fill="#4ca987"/>
    <rect id="Rectángulo_25820" data-name="Rectángulo 25820" width="45.768" height="15.502" rx="2.215" transform="translate(230.348 272.24)" fill="#6994fe"/>
    <path id="Trazado_159640" data-name="Trazado 159640" d="M227.579,292.275v-72.55a5.58,5.58,0,0,1,5.5-5.618h-5.537a5.579,5.579,0,0,0-5.5,5.618v72.55a5.579,5.579,0,0,0,5.5,5.618h5.537A5.58,5.58,0,0,1,227.579,292.275Z" fill="#4a4a60"/>
    <path id="Trazado_159641" data-name="Trazado 159641" d="M235.884,285.528V274.455a2.215,2.215,0,0,1,2.215-2.215h-5.537a2.215,2.215,0,0,0-2.214,2.215v11.073a2.214,2.214,0,0,0,2.214,2.214H238.1A2.215,2.215,0,0,1,235.884,285.528Z" fill="#5a81d1"/>
    <g id="Grupo_100447" data-name="Grupo 100447">
      <path id="Trazado_159642" data-name="Trazado 159642" d="M273.9,271.133H232.562a3.322,3.322,0,0,0-3.322,3.322v11.073a3.322,3.322,0,0,0,3.322,3.322H273.9a3.322,3.322,0,0,0,3.322-3.322V274.455A3.322,3.322,0,0,0,273.9,271.133Zm1.108,14.4a1.108,1.108,0,0,1-1.108,1.107H232.562a1.107,1.107,0,0,1-1.107-1.107V274.455a1.107,1.107,0,0,1,1.107-1.107H273.9a1.107,1.107,0,0,1,1.108,1.107Z" fill="#1d1d1b"/>
      <path id="Trazado_159643" data-name="Trazado 159643" d="M236.149,281.468h-.484a1.107,1.107,0,0,0,0,2.214h.484a1.107,1.107,0,1,0,0-2.214Z" fill="#1d1d1b"/>
      <path id="Trazado_159644" data-name="Trazado 159644" d="M242.64,281.468h-1.664a1.107,1.107,0,1,0,0,2.214h1.664a1.107,1.107,0,1,0,0-2.214Z" fill="#1d1d1b"/>
      <path id="Trazado_159645" data-name="Trazado 159645" d="M270.8,281.468H247.545a1.107,1.107,0,0,0,0,2.214H270.8a1.107,1.107,0,0,0,0-2.214Z" fill="#1d1d1b"/>
      <path id="Trazado_159646" data-name="Trazado 159646" d="M236.149,276.3h-.484a1.108,1.108,0,0,0,0,2.215h.484a1.108,1.108,0,1,0,0-2.215Z" fill="#1d1d1b"/>
      <path id="Trazado_159647" data-name="Trazado 159647" d="M242.64,276.3h-1.664a1.108,1.108,0,1,0,0,2.215h1.664a1.108,1.108,0,1,0,0-2.215Z" fill="#1d1d1b"/>
      <path id="Trazado_159648" data-name="Trazado 159648" d="M270.8,276.3H247.545a1.108,1.108,0,0,0,0,2.215H270.8a1.108,1.108,0,0,0,0-2.215Z" fill="#1d1d1b"/>
      <path id="Trazado_159649" data-name="Trazado 159649" d="M284.455,213h-56.91a6.692,6.692,0,0,0-6.609,6.726v72.548A6.678,6.678,0,0,0,227.529,299h56.926a6.692,6.692,0,0,0,6.609-6.726V219.726A6.692,6.692,0,0,0,284.455,213Zm-1.142,79.274a4.476,4.476,0,0,1-4.395,4.511H227.545a4.476,4.476,0,0,1-4.4-4.511V219.726a4.476,4.476,0,0,1,4.4-4.511h51.373a4.476,4.476,0,0,1,4.395,4.511Zm5.537,0a4.476,4.476,0,0,1-4.4,4.511h-.591a7.025,7.025,0,0,0,1.664-4.511V219.726a7.029,7.029,0,0,0-1.663-4.511h.59a4.476,4.476,0,0,1,4.4,4.511Z" fill="#1d1d1b"/>
      <path id="Trazado_159650" data-name="Trazado 159650" d="M253.232,265.6a23.253,23.253,0,1,0-23.253-23.254h0A23.279,23.279,0,0,0,253.232,265.6Zm5.355-2.907a22.384,22.384,0,0,0,6.034-8.274,20.671,20.671,0,0,1,3.462,2.815A21.038,21.038,0,0,1,258.587,262.69Zm10.981-7.106a22.851,22.851,0,0,0-4.14-3.276,30.95,30.95,0,0,0,1.532-8.857h7.282a20.941,20.941,0,0,1-4.674,12.133Zm4.673-14.348h-7.282a30.915,30.915,0,0,0-1.531-8.857,22.93,22.93,0,0,0,4.14-3.276,20.931,20.931,0,0,1,4.673,12.133Zm-6.158-13.78a20.718,20.718,0,0,1-3.462,2.815A22.4,22.4,0,0,0,258.587,222,21.049,21.049,0,0,1,268.083,227.456Zm-13.744-5.723a19.487,19.487,0,0,1,8.346,9.648,20.972,20.972,0,0,1-8.346,2.22Zm0,14.084a23.186,23.186,0,0,0,9.113-2.346,28.871,28.871,0,0,1,1.292,7.765h-10.4Zm0,7.634h10.4a28.864,28.864,0,0,1-1.292,7.764,23.211,23.211,0,0,0-9.112-2.346Zm0,7.634a20.99,20.99,0,0,1,8.346,2.221,19.491,19.491,0,0,1-8.346,9.648Zm-16.014,6.091a20.635,20.635,0,0,1,3.5-2.807,22.383,22.383,0,0,0,6.055,8.322,21.049,21.049,0,0,1-9.552-5.516Zm13.8,5.778a19.49,19.49,0,0,1-8.36-9.683,21.271,21.271,0,0,1,8.36-2.186Zm0-14.085A23.486,23.486,0,0,0,243,251.18a28.808,28.808,0,0,1-1.28-7.729h10.4Zm0-7.633h-10.4a28.809,28.809,0,0,1,1.28-7.73,23.487,23.487,0,0,0,9.123,2.312Zm0-19.5V233.6a21.255,21.255,0,0,1-8.36-2.187A19.5,19.5,0,0,1,252.124,221.733Zm-4.247.263a22.391,22.391,0,0,0-6.055,8.322,20.58,20.58,0,0,1-3.5-2.806A21.049,21.049,0,0,1,247.877,222Zm-11.031,7.168a22.887,22.887,0,0,0,4.174,3.264,30.924,30.924,0,0,0-1.516,8.808h-7.282A20.934,20.934,0,0,1,236.846,229.164Zm2.658,14.287a30.924,30.924,0,0,0,1.516,8.808,22.843,22.843,0,0,0-4.174,3.264,20.937,20.937,0,0,1-4.624-12.072Z" fill="#1d1d1b"/>
      <path id="Trazado_159651" data-name="Trazado 159651" d="M226.472,220.238a1.107,1.107,0,0,0-1.107,1.107h0v.882a1.107,1.107,0,1,0,2.214,0v-.882A1.106,1.106,0,0,0,226.472,220.238Z" fill="#1d1d1b"/>
      <path id="Trazado_159652" data-name="Trazado 159652" d="M226.472,225.147a1.107,1.107,0,0,0-1.107,1.107v13.137a1.107,1.107,0,0,0,2.214,0V226.254A1.106,1.106,0,0,0,226.472,225.147Z" fill="#1d1d1b"/>
    </g>
  </g>
</svg>
