<svg xmlns="http://www.w3.org/2000/svg" xmlns:xlink="http://www.w3.org/1999/xlink" width="41.141" height="24" viewBox="0 0 41.141 24">
  <defs>
    <clipPath id="clip-path">
      <rect id="Rectángulo_25741" data-name="Rectángulo 25741" width="41.141" height="24" transform="translate(508.84 292.034)" fill="none"/>
    </clipPath>
  </defs>
  <g id="MALTA" transform="translate(-508.84 -292.034)">
    <g id="Grupo_99868" data-name="Grupo 99868">
      <g id="Grupo_99867" data-name="Grupo 99867">
        <g id="Grupo_99866" data-name="Grupo 99866" clip-path="url(#clip-path)">
          <rect id="Rectángulo_25738" data-name="Rectángulo 25738" width="20.57" height="24" transform="translate(529.41 292.034)" fill="#bd0034"/>
          <rect id="Rectángulo_25739" data-name="Rectángulo 25739" width="20.57" height="24" transform="translate(508.84 292.034)" fill="#fff"/>
          <g id="Grupo_99865" data-name="Grupo 99865">
            <g id="Grupo_99864" data-name="Grupo 99864" clip-path="url(#clip-path)">
              <path id="Trazado_158465" data-name="Trazado 158465" d="M513.594,295.688c0,.038-.04.07-.093.07s-.1-.032-.1-.07.045-.069.1-.069.093.031.093.069Z" fill="#efecec"/>
              <path id="Trazado_158466" data-name="Trazado 158466" d="M510.554,295.351v1.768h1.764a.64.64,0,0,0,.592.589v1.768h1.764v-1.768a.637.637,0,0,0,.592-.589h1.769v-1.768h-1.769a.634.634,0,0,0-.592-.587v-1.769H512.91v1.769a.636.636,0,0,0-.592.587Z" fill="#d30038"/>
              <path id="Trazado_158467" data-name="Trazado 158467" d="M510.614,295.411v1.649h1.767a.633.633,0,0,0,.586.59v1.767h1.65V297.65a.634.634,0,0,0,.591-.59h1.765v-1.649h-1.765a.632.632,0,0,0-.591-.589v-1.768h-1.65v1.768a.631.631,0,0,0-.586.589Z" fill="#bd0034"/>
              <path id="Trazado_158468" data-name="Trazado 158468" d="M510.671,295.469V297h1.77a.629.629,0,0,0,.584.589v1.767h1.534v-1.767a.636.636,0,0,0,.592-.589h1.764v-1.531h-1.764a.637.637,0,0,0-.592-.59v-1.767h-1.534v1.767a.63.63,0,0,0-.584.59Z" fill="#91857c"/>
              <path id="Trazado_158469" data-name="Trazado 158469" d="M510.729,295.528v1.415H512.5a.632.632,0,0,0,.589.588V299.3H514.5v-1.768a.633.633,0,0,0,.586-.588h1.767v-1.415h-1.767a.632.632,0,0,0-.586-.59v-1.766h-1.415v1.766a.631.631,0,0,0-.589.59Z" fill="#cacaca"/>
              <path id="Trazado_158470" data-name="Trazado 158470" d="M513.1,294.792c.1.1.019.357-.186.562s-.462.292-.565.187-.017-.354.186-.561.462-.29.565-.188Z" fill="#cecece"/>
              <path id="Trazado_158471" data-name="Trazado 158471" d="M512.977,294.917a.319.319,0,0,1-.062.437.277.277,0,1,1,.062-.437Z" fill="#91857c"/>
              <path id="Trazado_158472" data-name="Trazado 158472" d="M512.453,295.23l.045-.041.163.084-.079-.169.041-.041.168.333Z" fill="#cecece"/>
              <path id="Trazado_158473" data-name="Trazado 158473" d="M512.706,294.98l.041-.042.249.251-.041.041Z" fill="#cecece"/>
              <path id="Trazado_158474" data-name="Trazado 158474" d="M515.234,295.541c-.1.105-.356.022-.564-.187s-.288-.459-.187-.562.356-.021.565.188.294.459.186.561Z" fill="#cecece"/>
              <path id="Trazado_158475" data-name="Trazado 158475" d="M515.11,295.419a.368.368,0,0,1-.5-.5.319.319,0,0,1,.436.063.323.323,0,0,1,.062.439Z" fill="#91857c"/>
              <path id="Trazado_158476" data-name="Trazado 158476" d="M514.8,294.9l.041.041-.086.166.17-.083.041.042-.335.166Z" fill="#cecece"/>
              <path id="Trazado_158477" data-name="Trazado 158477" d="M515.048,295.149l.041.041-.249.25-.041-.043Z" fill="#cecece"/>
              <path id="Trazado_158478" data-name="Trazado 158478" d="M514.483,297.678c-.1-.1-.017-.357.187-.564s.462-.29.564-.188.017.357-.186.564-.462.29-.565.188Z" fill="#cecece"/>
              <path id="Trazado_158479" data-name="Trazado 158479" d="M514.612,297.552a.367.367,0,1,1,.436-.062.316.316,0,0,1-.436.062Z" fill="#91857c"/>
              <path id="Trazado_158480" data-name="Trazado 158480" d="M515.132,297.241l-.043.039-.165-.084.084.168-.043.041-.165-.332Z" fill="#cecece"/>
              <path id="Trazado_158481" data-name="Trazado 158481" d="M514.878,297.49l-.038.041-.249-.25.038-.039Z" fill="#cecece"/>
              <path id="Trazado_158482" data-name="Trazado 158482" d="M512.35,296.926c.1-.1.356-.018.565.188s.289.461.186.564-.354.019-.565-.188-.287-.459-.186-.564Z" fill="#cecece"/>
              <path id="Trazado_158483" data-name="Trazado 158483" d="M512.474,297.052a.324.324,0,0,1,.441.062.278.278,0,1,1-.379.376.324.324,0,0,1-.062-.438Z" fill="#91857c"/>
              <path id="Trazado_158484" data-name="Trazado 158484" d="M512.79,297.573l-.043-.042.084-.166-.17.084-.038-.043.333-.164Z" fill="#cecece"/>
              <path id="Trazado_158485" data-name="Trazado 158485" d="M512.536,297.322l-.038-.042.249-.249.043.042Z" fill="#cecece"/>
              <g id="Grupo_99842" data-name="Grupo 99842">
                <path id="Trazado_158486" data-name="Trazado 158486" d="M513.8,297.484a1.248,1.248,0,1,1,0-2.495,1.248,1.248,0,0,1,0,2.495Zm0-2.476a1.224,1.224,0,1,0,.866.358,1.227,1.227,0,0,0-.866-.358Z" fill="#91857c"/>
              </g>
              <g id="Grupo_99843" data-name="Grupo 99843">
                <path id="Trazado_158487" data-name="Trazado 158487" d="M513.8,297.187a.952.952,0,1,1,.95-.953.958.958,0,0,1-.95.953Zm0-1.885a.933.933,0,1,0,.929.932.933.933,0,0,0-.929-.932Z" fill="#91857c"/>
              </g>
              <path id="Trazado_158488" data-name="Trazado 158488" d="M513.381,297.236a.06.06,0,0,1-.031.052.058.058,0,0,1-.057,0,.06.06,0,0,1-.031-.052.055.055,0,0,1,.031-.05.053.053,0,0,1,.057,0,.055.055,0,0,1,.031.05Z"/>
              <path id="Trazado_158489" data-name="Trazado 158489" d="M514.322,297.236a.057.057,0,0,1-.088.052.064.064,0,0,1-.031-.052.059.059,0,0,1,.031-.05.057.057,0,0,1,.088.05Z"/>
              <path id="Trazado_158490" data-name="Trazado 158490" d="M513.755,297.236v.061h-.079c-.082,0-.082.062,0,.062h.079v.06c0,.065.067.073.072.005l.007-.065h.076c.08,0,.08-.062,0-.062h-.076v-.061a.04.04,0,1,0-.079,0Z"/>
              <path id="Trazado_158491" data-name="Trazado 158491" d="M514.466,296.416a.149.149,0,0,1,.053,0s0,.015-.005.02a.136.136,0,0,0,.045,0l-.021.013a.078.078,0,0,1,.029.019s-.029.005-.039,0a.044.044,0,1,1-.062-.015Z" fill="#91857c"/>
              <g id="Grupo_99844" data-name="Grupo 99844">
                <path id="Trazado_158492" data-name="Trazado 158492" d="M514.466,296.416a.149.149,0,0,1,.053,0s0,.015-.005.02a.136.136,0,0,0,.045,0l-.021.013a.078.078,0,0,1,.029.019s-.029.005-.039,0a.044.044,0,1,1-.062-.015Z" fill="none"/>
              </g>
              <path id="Trazado_158493" data-name="Trazado 158493" d="M514.385,296.387c-.012.029-.1-.023-.1-.023a.138.138,0,0,0,.093.065Z" fill="#91857c"/>
              <g id="Grupo_99845" data-name="Grupo 99845">
                <path id="Trazado_158494" data-name="Trazado 158494" d="M514.385,296.387c-.012.029-.1-.023-.1-.023a.138.138,0,0,0,.093.065Z" fill="none"/>
              </g>
              <path id="Trazado_158495" data-name="Trazado 158495" d="M513.314,296.938h1.006l.074-.06-.129-.071-.2-.067-.079-.044-.148.008-.124.065-.168.019-.041.047-.124.011-.2,0,.326.051-.271-.013Z" fill="#91857c"/>
              <g id="Grupo_99846" data-name="Grupo 99846">
                <path id="Trazado_158496" data-name="Trazado 158496" d="M514.32,296.943h-1.006l-.074-.06.276.005-.331-.042.321-.016.036-.043.172-.024.125-.063.148-.009.084.044.328.138-.079.07Zm-1.08-.059.074.052h1l.079-.062-.407-.173-.148.008-.12.065-.172.021-.036.046-.13.008-.2,0,.331.042-.276,0Z"/>
              </g>
              <path id="Trazado_158497" data-name="Trazado 158497" d="M513.858,296.651c-.129-.07-.165.1-.223.137.074.014.13-.055.194-.088.046.129.12.043.12.043s.076.124.184.068a.051.051,0,0,0,.058,0s.04.006.048-.012c.019.008.04-.017.04-.017s.043,0,.053-.022c.062.011.148-.131.148-.131l.027-.051.038-.007s0-.024-.017-.023c0-.016-.014-.023-.031-.021,0-.008-.014-.016-.014-.016-.036.01-.036.1-.036.1s-.062.048-.084.06c0-.054-.089-.124-.069-.157s.074.053.124.037a.137.137,0,0,0,.074-.128c-.016-.036-.048-.091-.048-.091l-.031,0-.028-.065s-.063.037-.058.07.062.061.062.061a.088.088,0,0,1-.069.012c-.005.036.038.029.057.029a.085.085,0,0,0,.032.038s.011.037-.024.033-.089-.093-.142-.051.027.122.027.122a.241.241,0,0,0-.084.1c-.12-.105-.192-.057-.328-.027Z" fill="#91857c"/>
              <g id="Grupo_99847" data-name="Grupo 99847">
                <path id="Trazado_158498" data-name="Trazado 158498" d="M514.078,296.83a.178.178,0,0,1-.132-.081c0,.013-.083.049-.119-.047l-.05.039a.223.223,0,0,1-.12.057l-.005-.007a.255.255,0,0,0,.115-.059c.024-.013.041-.026.06-.036.048.1.119.045.119.045s.1.113.187.064h0l.062,0,.048-.009c.036-.02.077-.02.084-.038.072,0,.149-.131.149-.131l.031-.051-.01,0-.005-.052c-.031-.005-.04.061-.04.086a.811.811,0,0,1-.089.063.293.293,0,0,0-.043-.082c-.024-.031-.046-.06-.031-.08l.057.008a.1.1,0,0,0,.058.027.138.138,0,0,0,.083-.125c-.011-.028-.035-.068-.043-.084a.242.242,0,0,1,.053.08.144.144,0,0,1-.079.137.172.172,0,0,1-.081-.026c-.048,0-.031.029-.01.056a.188.188,0,0,1,.041.086.856.856,0,0,1,.076-.065c0-.007,0-.092.039-.1l.045.038-.045.087c0,.006-.079.134-.146.134-.01.019-.053.021-.058.021l-.072.03-.074-.009v.006a.092.092,0,0,1-.055.013Zm-.426-.051a.212.212,0,0,1,.026-.052c.041-.061.094-.128.18-.081l.067-.016a.25.25,0,0,1,.266.045.17.17,0,0,1,.074-.1h0a.108.108,0,0,1-.043-.084l.052-.051a.123.123,0,0,1,.067.034c.017.014.032.028.044.028.019-.024,0-.038-.012-.06l.04.029-.031.041c-.014,0-.026-.015-.045-.028s-.041-.035-.063-.035l-.043.042c0,.038.043.084.043.084a.308.308,0,0,0-.079.1.278.278,0,0,0-.27-.042l-.067.014c-.1-.043-.134.023-.175.08a.106.106,0,0,1-.031.046Zm.7-.362.026-.015c-.014-.005-.06-.034-.06-.065s.06-.074.06-.074l.012.018-.012-.013c-.009.012-.05.044-.05.069s.041.048.057.056v.005l0,.005h0a.039.039,0,0,1-.029.015Z"/>
              </g>
              <path id="Trazado_158499" data-name="Trazado 158499" d="M513.671,296.472c.053.05.017.131.038.146s.051-.008.051-.008a.324.324,0,0,0,.15-.016c.044.024.027-.013.053-.01a.091.091,0,0,0,.1.048.481.481,0,0,0-.112-.091.374.374,0,0,1-.146.019c-.022,0-.007-.025-.017-.038.036-.036.01-.124-.014-.155-.075-.054-.173.037-.1.1Z" fill="#91857c"/>
              <g id="Grupo_99848" data-name="Grupo 99848">
                <path id="Trazado_158500" data-name="Trazado 158500" d="M514.049,296.638a.094.094,0,0,1-.091-.052.675.675,0,0,1-.162.032l-.067.012-.032-.053a.106.106,0,0,0-.026-.1.076.076,0,0,1-.029-.08.092.092,0,0,1,.135-.033c.023.038.05.125.014.16a.181.181,0,0,0,.155.012.476.476,0,0,1,.12.094l-.017.008Zm-.086-.059a.093.093,0,0,0,.086.048v0l.012,0c-.012,0-.074-.064-.115-.083a.262.262,0,0,1-.124.023l-.041-.05c.036-.033.005-.119-.014-.146a.077.077,0,0,0-.11.028c-.015.023-.005.049.021.071a.138.138,0,0,1,.027.107l.024.049.026-.018a.782.782,0,0,0,.155-.019l.053-.01Z"/>
              </g>
              <path id="Trazado_158501" data-name="Trazado 158501" d="M513.329,296.325c-.067.018-.18-.081-.232-.044s-.032.135,0,.184-.043.063-.071.092.009.057.009.057l.022.013,0,.038.012.041a.01.01,0,0,0,.017,0c.01.011,0,.041.029.046-.01-.019.007-.074.007-.074s.045,0,.06-.019-.015-.066-.015-.066h.017c-.017-.009-.021-.042-.021-.042s.062-.022.062-.07-.106-.1-.067-.129.115.073.182.025.024,0,.024,0,.028-.064-.036-.049Z" fill="#91857c"/>
              <g id="Grupo_99849" data-name="Grupo 99849">
                <path id="Trazado_158502" data-name="Trazado 158502" d="M513.123,296.756l-.017,0-.048-.088v0l0,0,.045.072a.483.483,0,0,1,.01-.064c.033,0,.057-.008.062-.018a.079.079,0,0,0-.014-.059l-.005-.052s.062-.019.062-.064c0-.021-.022-.044-.038-.065s-.036-.036-.036-.053l.031-.01c-.024.022-.005.039.007.057a.106.106,0,0,1,.046.071c0,.051-.067.073-.067.073.014.043.035.087.021.108s-.038.019-.057.019-.017.054-.008.067l0,.011Zm-.074-.135-.015,0c-.009-.015-.026-.044-.009-.065.06-.037.076-.047.081-.063a.344.344,0,0,1-.045-.119.11.11,0,0,1,.031-.094.192.192,0,0,1,.124.019.284.284,0,0,0,.1.027l.055,0-.014.028-.041-.019a.264.264,0,0,1-.1-.03.3.3,0,0,0-.088-.028.087.087,0,0,0-.058.091.205.205,0,0,0,.036.094.063.063,0,0,1-.041.074c-.047.045-.021.072-.021.073l.005.012Z"/>
              </g>
              <path id="Trazado_158503" data-name="Trazado 158503" d="M513.666,295.631c-.088-.04-.268-.04-.364-.091a.079.079,0,0,0-.067.051c-.045,0-.076.071-.071.085-.084-.034-.12.1-.094.124-.072,0-.062.094-.067.118-.021.056.005.074.05.056a.03.03,0,0,1-.023.04c.119.141.191-.086.3-.086a.411.411,0,0,0,.187-.1l.052.006Z" fill="#91857c"/>
              <g id="Grupo_99850" data-name="Grupo 99850">
                <path id="Trazado_158504" data-name="Trazado 158504" d="M513.106,296.065c-.026,0-.048-.016-.081-.046l-.029-.045a.053.053,0,0,1,0-.057c.005-.056.01-.119.072-.122-.012-.006-.012-.04-.005-.073s.041-.06.077-.058c.017,0,.022-.021.036-.037a.068.068,0,0,1,.057-.042c0-.01.017-.046.067-.048a.811.811,0,0,0,.2.051.652.652,0,0,1,.16.037l-.093.208-.057,0a.37.37,0,0,1-.187.1c-.036,0-.072.034-.113.067a.175.175,0,0,1-.11.064Zm-.1-.1.05.005-.028.05c.071.053.124.028.181-.028a.187.187,0,0,1,.118-.069.383.383,0,0,0,.182-.1l.057.007.094-.2c-.041-.009-.094-.02-.156-.03a.868.868,0,0,1-.208-.051.067.067,0,0,0-.058.045.085.085,0,0,0-.055.042l.005.012-.026.035a.077.077,0,0,0-.089.047.085.085,0,0,0,0,.071c-.053.011-.062.064-.062.1l-.01.07.005,0Z"/>
              </g>
              <path id="Trazado_158505" data-name="Trazado 158505" d="M513.906,295.528a.13.13,0,0,1-.259,0,.13.13,0,0,1,.259,0Z" fill="#91857c"/>
              <g id="Grupo_99851" data-name="Grupo 99851">
                <path id="Trazado_158506" data-name="Trazado 158506" d="M513.777,295.662a.136.136,0,0,1-.135-.134c0-.147.268-.147.268,0a.132.132,0,0,1-.133.134Zm0-.257a.125.125,0,0,0-.125.123c0,.136.244.136.244,0a.118.118,0,0,0-.119-.123Z"/>
              </g>
              <path id="Trazado_158507" data-name="Trazado 158507" d="M513.551,296.541c-.081-.017-.215-.1-.222-.2.069-.292.452-.14.488-.359a.651.651,0,0,1,.1-.408.164.164,0,0,1,.084-.061.069.069,0,0,1-.005.053,1.183,1.183,0,0,1,.209.03.086.086,0,0,1,.014.071c-.005.023-.031.014-.031.014a.07.07,0,0,1-.072.025.306.306,0,0,1-.1.029s.144.148.122.192a.312.312,0,0,1,.07.076.456.456,0,0,0,.124-.095c.055,0,.149.058.192.063.052.046.107.091.107.091s-.067.042-.093-.013c-.036,0-.108-.08-.211-.058a.226.226,0,0,1-.105.157.289.289,0,0,1,.146.018c.055.046.134.107.134.107l.067.117s-.062.013-.088-.071c-.024.067-.024-.04-.118-.089-.031,0-.043.006-.069-.015a.6.6,0,0,1-.244.047c-.067.023-.118.079-.187.11s-.091.014-.091.014l-.053,0c-.009.036-.005.086-.036.094.019.022-.012.111-.048.125.012.06.063.077.111.105a.079.079,0,0,1,.076.006.392.392,0,0,1,.053.1.292.292,0,0,1-.074,0c-.019-.01-.024-.029-.041-.023-.139-.121-.208-.073-.223-.1s.031-.1.019-.147Z" fill="#91857c"/>
              <g id="Grupo_99852" data-name="Grupo 99852">
                <path id="Trazado_158508" data-name="Trazado 158508" d="M513.839,296.82l-.043-.006a.422.422,0,0,0-.233-.109.05.05,0,0,1-.016-.017.346.346,0,0,1,.208.1l.084.03.031-.006c-.005,0-.022-.047-.043-.075a.182.182,0,0,1,.048.078l-.036.009Zm-.031-.1-.07-.007c-.06-.035-.1-.056-.112-.107a.167.167,0,0,0,.052-.088v0c-.007.053-.026.084-.048.094a.175.175,0,0,0,.094.083l.053.005a.113.113,0,0,1,.031.023Zm-.271-.043a.058.058,0,0,1,0-.05.152.152,0,0,0,.01-.085.281.281,0,0,1-.228-.2c.041-.162.17-.19.29-.218.1-.023.187-.042.2-.141a.654.654,0,0,1,.1-.411A.18.18,0,0,1,514,295.5c.005,0,.01.017.01.033l-.01-.029v0a.178.178,0,0,0-.079.058.63.63,0,0,0-.1.407c-.019.106-.113.129-.213.151s-.24.056-.28.208a.282.282,0,0,0,.225.2.181.181,0,0,1-.007.092.248.248,0,0,0-.01.049Zm.249-.285-.041,0,.022-.012a.156.156,0,0,0,.091-.013c.026-.016.057-.035.084-.054a.324.324,0,0,1,.1-.058.46.46,0,0,0,.194-.032l.05-.014.069.014a.173.173,0,0,1,.077.074.356.356,0,0,0-.079-.065l-.067-.019.005.005-.051.017a.6.6,0,0,1-.165.031.286.286,0,0,0-.132.056.52.52,0,0,1-.083.052.218.218,0,0,1-.077.02Zm.764-.006a.078.078,0,0,1-.063-.032.109.109,0,0,0,.072.028l-.067-.111h0s-.079-.06-.129-.1a.221.221,0,0,0-.1-.02l-.007,0a.194.194,0,0,1,.11.012c.05.046.129.107.129.107l.07.12-.017,0Zm-.292-.262a.3.3,0,0,0,.057-.137.264.264,0,0,1,.172.034l.046.024v-.007l.043.03-.062-.1a.326.326,0,0,1-.074-.028.312.312,0,0,0-.113-.033.381.381,0,0,1-.124.093.688.688,0,0,0-.075-.078c.012-.039-.079-.152-.117-.191.005-.009.072-.015.1-.036a.083.083,0,0,0,.077-.022c.031-.033.031-.046.012-.081a.253.253,0,0,1-.079-.013.435.435,0,0,0-.108-.017v0a.334.334,0,0,1,.113.011.4.4,0,0,0,.079.013c.024.042.024.057.019.078-.046.031-.058.044-.089.044a.521.521,0,0,1-.117.027c.014.007.144.144.117.189.031.006.07.066.07.073a.532.532,0,0,0,.119-.1.355.355,0,0,1,.122.035.313.313,0,0,0,.075.027l.11.09c0,.017-.079.039-.1-.008-.009,0-.021-.005-.045-.016a.3.3,0,0,0-.12-.042.4.4,0,0,1-.1.137Z"/>
              </g>
              <path id="Trazado_158509" data-name="Trazado 158509" d="M513.226,296c.009-.008.057.01.057.01l.089.057.182.118.067.1-.115-.038-.165-.139-.084-.057s-.041-.036-.031-.046Z" fill="#91857c"/>
              <g id="Grupo_99853" data-name="Grupo 99853">
                <path id="Trazado_158510" data-name="Trazado 158510" d="M513.635,296.294l-.129-.043-.254-.2c-.012-.016-.041-.043-.031-.054a.105.105,0,0,1,.062.011l.276.172.076.11Zm-.4-.292,0,.006.275.236.1.031-.055-.081-.319-.192Z"/>
              </g>
              <path id="Trazado_158511" data-name="Trazado 158511" d="M514.31,296.306c-.062-.016-.217.172-.217.172l.114.127s.005-.218.1-.3Z" fill="#91857c"/>
              <g id="Grupo_99854" data-name="Grupo 99854">
                <path id="Trazado_158512" data-name="Trazado 158512" d="M514.212,296.618l-.124-.136c.005-.014.146-.183.213-.183a0,0,0,0,1-.005,0c-.069.018-.2.176-.2.178l.106.112a.536.536,0,0,1,.071-.256.7.7,0,0,0-.062.267v.013Z"/>
              </g>
              <path id="Trazado_158513" data-name="Trazado 158513" d="M513.542,295.776a.134.134,0,0,0,.005.171c0,.054.047.163.083.173a.9.9,0,0,0,.261.036.274.274,0,0,0,.139.235.04.04,0,0,0,.01.03.048.048,0,0,0,.048.007c.019.023.1.034.1.023s-.12-.1-.146-.125a.625.625,0,0,1-.082-.222.24.24,0,0,0-.167-.073l0-.144,0-.165-.058-.029a.05.05,0,0,0,.02-.012c.012.007.038-.021.043-.03.014.006.026.006.026,0s.005-.036.014-.05c.041-.037-.009-.119-.076-.121s-.079.078-.079.085c.009.025,0,.038,0,.043a.172.172,0,0,1-.027.022.114.114,0,0,0-.081,0c-.043.016-.1.04-.1.069a.085.085,0,0,0-.057.051c-.019,0-.041.011-.081.075-.072.03-.072.177-.072.177a.118.118,0,0,0-.017.041c-.005.015.005.028.014.025s.012.019.017.014c.005.01.019.017.026.013s.022.006.027,0-.005-.039,0-.041.024.014.031.01,0-.019,0-.024-.023-.011-.028-.035a.1.1,0,0,1,.014-.056s.077-.057.079-.109c.058.007.089-.044.108-.063Z" fill="#91857c"/>
              <g id="Grupo_99855" data-name="Grupo 99855">
                <path id="Trazado_158514" data-name="Trazado 158514" d="M514.171,296.462c-.021,0-.074-.009-.088-.029h0a.276.276,0,0,0,.088.018v.006l.015-.009a1.064,1.064,0,0,0-.084-.069.454.454,0,0,1-.062-.048.8.8,0,0,1-.082-.225.236.236,0,0,0-.162-.069v-.15l0-.165-.059-.023,0-.006.1-.1a.046.046,0,0,0,.01-.056.091.091,0,0,0-.081-.056h0a.054.054,0,0,0-.048.021.1.1,0,0,0-.027.058h0l-.035.069-.077,0v0c-.038.015-.093.039-.1.066-.024.006-.055.031-.057.052-.029,0-.055.027-.082.075-.067.03-.072.172-.072.172l0,.028V296h0c0-.005,0-.151.07-.182.031-.052.057-.076.081-.076a.089.089,0,0,1,.062-.05c0-.027.053-.051.1-.068l.086,0,0,0,.026-.059c-.005-.007.005-.038.021-.062a.083.083,0,0,1,.063-.029.1.1,0,0,1,.091.064.065.065,0,0,1-.015.066l-.021.056c-.019,0-.041.027-.06.027l.041.031-.008.312a.215.215,0,0,1,.168.07.722.722,0,0,0,.081.224c.008.007.034.028.058.046.079.062.1.075.088.085l-.024.006Zm-.313-.3a.958.958,0,0,1-.228-.034c-.036-.011-.083-.122-.088-.177a.136.136,0,0,1-.024-.143.085.085,0,0,1-.074.042.253.253,0,0,1-.089.107.091.091,0,0,0-.009.049l.031.065-.053.037-.053-.04.039.027.031-.043c-.01-.066.005-.1.009-.1s.072-.06.084-.108a.119.119,0,0,0,.093-.056v0l.01-.015-.014.026a.143.143,0,0,0,.028.144c0,.06.053.164.084.172a1.089,1.089,0,0,0,.23.041v0Z"/>
              </g>
              <path id="Trazado_158515" data-name="Trazado 158515" d="M513.408,295.566c.019-.043.081-.038.081-.038s.022-.056.1-.022c.032-.024.111.01.111.01a.1.1,0,0,1,.072-.037.093.093,0,0,1,.086.09c-.041.009-.118-.034-.17-.022-.031.019-.079.036-.1.065-.052.005-.1-.048-.186-.046Z" fill="#91857c"/>
              <g id="Grupo_99856" data-name="Grupo 99856">
                <path id="Trazado_158516" data-name="Trazado 158516" d="M513.585,295.617a.2.2,0,0,1-.067-.02.229.229,0,0,0-.1-.025v0a.184.184,0,0,1,.1.016.205.205,0,0,0,.067.021v.006l.009-.006c.01-.021.041-.034.068-.048l.052-.018a.314.314,0,0,1,.077.014.252.252,0,0,0,.057.012c-.014-.057-.031-.076-.071-.081a.113.113,0,0,0-.068.032s-.047-.015-.083-.015l-.079,0a.059.059,0,0,0-.055.031c-.022,0-.06.007-.075.034.01-.038.053-.041.067-.041h0a.089.089,0,0,1,.11-.021.234.234,0,0,1,.111.007.093.093,0,0,1,.067-.035.112.112,0,0,1,.086.047l.007.049a.188.188,0,0,1-.079-.006.272.272,0,0,0-.072-.012l-.048.017a.181.181,0,0,0-.072.045l-.009,0Z"/>
              </g>
              <path id="Trazado_158517" data-name="Trazado 158517" d="M513.563,295.637c.022-.012.067-.032.1-.006a.677.677,0,0,0,.079.066l.059.024.027.015-.019.26c-.053-.054-.1-.062-.137-.127-.024-.025-.005-.091-.041-.135s-.071-.072-.067-.1Z" fill="#91857c"/>
              <g id="Grupo_99857" data-name="Grupo 99857">
                <path id="Trazado_158518" data-name="Trazado 158518" d="M513.812,296.008,513.8,296a.2.2,0,0,0-.058-.049.238.238,0,0,1-.079-.079.091.091,0,0,1-.014-.054.2.2,0,0,0-.026-.08c-.053-.06-.072-.082-.063-.105a.105.105,0,0,1,.063-.022.186.186,0,0,0,.031.021.119.119,0,0,0-.089.009c-.005.012.017.033.041.059a.19.19,0,0,1,.053.118.1.1,0,0,0,.014.048.212.212,0,0,0,.074.075.4.4,0,0,1,.053.043l.009-.081.005.092-.005.012Z"/>
              </g>
              <path id="Trazado_158519" data-name="Trazado 158519" d="M513.7,295.71s.031-.005.036,0,.022.007.027.015.016.009.016.018c.015,0,.015.022.015.022l-.01.015a.178.178,0,0,1-.014-.022c0-.005-.022-.007-.027-.018s-.016-.006-.021-.018-.022-.014-.022-.014Z" fill="#91857c"/>
              <g id="Grupo_99858" data-name="Grupo 99858">
                <path id="Trazado_158520" data-name="Trazado 158520" d="M513.7,295.71s.031-.005.036,0,.022.007.027.015.016.009.016.018c.015,0,.015.022.015.022l-.01.015a.178.178,0,0,1-.014-.022c0-.005-.022-.007-.027-.018s-.016-.006-.021-.018S513.7,295.71,513.7,295.71Z" fill="none"/>
              </g>
              <path id="Trazado_158521" data-name="Trazado 158521" d="M513.954,295.54c-.017-.019-.048,0-.048,0l-.079.137-.031.03-.005.106.026.1-.009.075s.04-.034.045-.057a.3.3,0,0,0-.014-.085.155.155,0,0,1,0-.117c.027-.075.094-.138.111-.187Z" fill="#91857c"/>
              <g id="Grupo_99859" data-name="Grupo 99859">
                <path id="Trazado_158522" data-name="Trazado 158522" d="M513.8,296l.009-.091-.026-.1V295.7l.041-.031.079-.136.048,0a.245.245,0,0,1-.039.082.52.52,0,0,0-.067.111.156.156,0,0,0-.005.114.335.335,0,0,1,.015.086c0,.024-.046.06-.046.062L513.8,296Zm.146-.462-.115.137-.038.136.026.1-.005.065c.012-.012.031-.033.031-.046a.236.236,0,0,0-.014-.082.14.14,0,0,1,.005-.12.5.5,0,0,1,.067-.112.356.356,0,0,0,.043-.075Z"/>
              </g>
              <path id="Trazado_158523" data-name="Trazado 158523" d="M514.145,295.663a.666.666,0,0,1-.323.243c-.055.012-.036-.134-.036-.134l-.014,0s-.034.142.045.146a.684.684,0,0,0,.354-.258Z" fill="#91857c"/>
              <g id="Grupo_99860" data-name="Grupo 99860">
                <path id="Trazado_158524" data-name="Trazado 158524" d="M513.817,295.925l-.04-.016c-.032-.04-.01-.131-.01-.133s0,.011.01.016c-.005.03-.012.086.009.111l.031.019v-.007a.617.617,0,0,0,.311-.2.557.557,0,0,1-.311.209Zm.01-.016a.031.031,0,0,1-.019-.016.7.7,0,0,0,.337-.232c.005,0,.005.013-.005.027a.722.722,0,0,1-.313.221Z"/>
              </g>
              <path id="Trazado_158525" data-name="Trazado 158525" d="M514.234,296.687a.041.041,0,0,1-.043,0,.066.066,0,0,0-.051-.034s-.016-.064-.057-.045c-.005-.034-.043-.017-.043-.017a.038.038,0,0,0-.046-.04c.015-.056-.062-.052-.062-.052s0-.061-.115-.051c.244-.108.441.173.441.173Z" fill="#91857c"/>
              <g id="Grupo_99861" data-name="Grupo 99861">
                <path id="Trazado_158526" data-name="Trazado 158526" d="M514.186,296.691a.066.066,0,0,0-.046-.032c0-.006-.016-.041-.033-.049l-.01.005-.062-.024-.01,0-.035-.044a.064.064,0,0,0-.058-.048.114.114,0,0,0-.115-.049c.244-.118.441.162.443.165a.5.5,0,0,0-.328-.19.246.246,0,0,0-.11.025.1.1,0,0,1,.1.011c.012.031.058.028.074.05l.079.072c.06.024.072.062.072.066a.055.055,0,0,1,.05.031l.044.008Z"/>
              </g>
              <path id="Trazado_158527" data-name="Trazado 158527" d="M514.351,296.711s.053.062.084.062.031-.061.031-.061.01.026.026.019a.027.027,0,0,0,.017.025s-.053.117-.194,0Z" fill="#91857c"/>
              <g id="Grupo_99862" data-name="Grupo 99862">
                <path id="Trazado_158528" data-name="Trazado 158528" d="M514.425,296.814a.217.217,0,0,1-.115-.048.185.185,0,0,0,.137.036.1.1,0,0,0,.06-.049l-.036-.036c0,.015-.005.062-.036.062h0c-.031,0-.079-.059-.089-.065l.01-.007a.937.937,0,0,0,.079.061c.017,0,.026-.041.026-.056l.01,0-.005,0h.01l-.005.005.043.039a.088.088,0,0,1-.067.055.049.049,0,0,1-.022,0Z"/>
              </g>
              <path id="Trazado_158529" data-name="Trazado 158529" d="M513.91,296.733l-.021.084s-.024.023-.019.027a.154.154,0,0,0,.05-.009.185.185,0,0,0,.079-.025.053.053,0,0,0,.046.031.039.039,0,0,0-.005-.019.054.054,0,0,0,.026,0,.031.031,0,0,0-.009-.033c0-.017.009-.031-.017-.031-.029.025-.082.052-.094.043s.053-.039.036-.079Z" fill="#91857c"/>
              <g id="Grupo_99863" data-name="Grupo 99863">
                <path id="Trazado_158530" data-name="Trazado 158530" d="M513.865,296.848l.041-.116.009,0-.024.082A.137.137,0,0,0,514,296.8l.036.03.017-.045.019.034a.165.165,0,0,1-.031.015l.005,0h-.01c-.026-.005-.031-.011-.036-.029-.012.022-.074.03-.079.03l-.055.007Z"/>
              </g>
              <path id="Trazado_158531" data-name="Trazado 158531" d="M512.644,296.541l.079-.019-.009-.039c0-.008-.008-.015-.008-.018a.069.069,0,0,0-.026,0v-.005l.072-.018v.007a.045.045,0,0,0-.019.007.011.011,0,0,0,0,.011c-.005,0-.005.01,0,.016l.009.038.063-.016a.052.052,0,0,0,.021-.007l.005-.007v-.016l-.005-.007h.01l.021.087-.009,0v-.009c-.005-.007-.005-.014-.012-.016a.043.043,0,0,0-.022,0l-.134.032a.054.054,0,0,0-.024.008l0,.008v.012l0,.008-.007,0-.036-.155.043-.014v.005l-.017.017s0,.009,0,.014,0,.014,0,.025Zm-.053-.367a.089.089,0,0,1,.036-.07.121.121,0,0,1,.158.009.089.089,0,0,1,.024.076.1.1,0,0,1-.033.073.119.119,0,0,1-.084.025.114.114,0,0,1-.079-.041.083.083,0,0,1-.022-.072Zm.012,0a.049.049,0,0,0,.019.048.111.111,0,0,0,.07.025.133.133,0,0,0,.084-.016.058.058,0,0,0,.024-.045.069.069,0,0,0-.019-.051.128.128,0,0,0-.075-.024.124.124,0,0,0-.079.017.046.046,0,0,0-.024.046Zm.307-.385-.022.052-.115.034s0,.008,0,.011l-.005,0v0l.052.023a.057.057,0,0,0,.027.005s.009-.008.014-.014l.005-.006h.005l-.031.082h-.01l.005-.007a.015.015,0,0,0,0-.02c-.005,0-.015-.006-.022-.012l-.129-.048a.041.041,0,0,0-.024-.005c-.005,0-.007.007-.012.016l-.005.006-.005,0,.027-.069a.465.465,0,0,1,.024-.047.1.1,0,0,1,.026-.019.045.045,0,0,1,.036,0,.039.039,0,0,1,.026.022.086.086,0,0,1,0,.046l.071-.02a.051.051,0,0,0,.036-.014.031.031,0,0,0,.017-.024Zm-.156.1v0l0,0a.074.074,0,0,0,0-.047.033.033,0,0,0-.022-.027.046.046,0,0,0-.04,0,.051.051,0,0,0-.022.027.141.141,0,0,0-.005.023Zm.45-.7.041.054-.005,0a.083.083,0,0,0-.041-.019.065.065,0,0,0-.05.01.069.069,0,0,0-.033.06.118.118,0,0,0,.021.064.128.128,0,0,0,.041.039.075.075,0,0,0,.043.013.061.061,0,0,0,.041-.01c.009,0,.012-.011.016-.014s.01-.014.015-.019l-.036-.052a.051.051,0,0,0-.012-.016l-.01,0a.117.117,0,0,0-.019.006v0l.067-.045.005.006h-.005c-.009,0-.009.009-.009.017l.009.02.036.054a.089.089,0,0,1-.021.03c0,.011-.02.017-.027.026a.12.12,0,0,1-.1.018.1.1,0,0,1-.057-.045.1.1,0,0,1-.019-.051.094.094,0,0,1,.009-.063.1.1,0,0,1,.041-.041.093.093,0,0,1,.017-.011c.005,0,.019,0,.031-.008l.009,0,.005-.006s-.005-.006-.005-.011Zm.343.025-.082.022-.005.036v.018s.005.006.01.006a.03.03,0,0,0,.019,0l0,.007-.06.016-.005,0a.1.1,0,0,1,.017-.011.173.173,0,0,1,.009-.034l.027-.186,0,0,.115.151a.145.145,0,0,0,.022.024.037.037,0,0,0,.021,0v.005l-.079.023v-.006c.01,0,.015-.006.017-.01v-.009a.026.026,0,0,0-.012-.019Zm-.005-.01-.058-.073-.014.092Zm.373,0h.005l-.024.057-.158-.006v-.007h.007a.022.022,0,0,0,.02-.008.059.059,0,0,0,0-.024l0-.135v-.024c0-.006-.012-.007-.017-.01h-.014l0-.005.094,0v.007a.047.047,0,0,0-.022,0l-.009.007c-.005.005-.005.011-.005.024l0,.134v.018l0,0a.125.125,0,0,0,.026,0h.019a.134.134,0,0,0,.031,0,.028.028,0,0,0,.017-.011.049.049,0,0,0,.019-.027Zm.283.074.005.005-.039.046-.155-.051,0-.005.01,0a.026.026,0,0,0,.024,0,.1.1,0,0,0,.007-.021l.045-.13c.005-.014.005-.019,0-.024s0-.012-.014-.012l-.01,0,.005-.007.091.03v.006a.062.062,0,0,0-.029-.005s-.007,0-.007.005l-.009.023-.041.125c-.005.009-.01.014-.005.018s0,.006.005.006.01.006.024.01l.012.006.031.006a.059.059,0,0,0,.021-.006.1.1,0,0,0,.027-.023Zm.227.12-.067-.046-.031.019a.124.124,0,0,0-.017.012v.007c0,.005.005.011.012.018l0,0-.055-.039.005-.006a.034.034,0,0,0,.019.007.1.1,0,0,0,.031-.016l.16-.1,0,0-.039.187a.113.113,0,0,0,0,.032.1.1,0,0,0,.012.017l-.005.007-.065-.05,0,0a.078.078,0,0,0,.019.006l.009-.005c0-.005.005-.011.005-.022Zm0-.012.022-.09-.079.049Zm.254.048.036.046-.048.2.1-.074c.009-.009.014-.015.014-.018s0-.013-.005-.019l0-.005,0,0,.044.058,0,.005-.005-.006c-.005-.006-.009-.012-.019-.012a.1.1,0,0,1-.021.012l-.142.1v0l.048-.213-.1.077c-.012.008-.016.014-.016.017s0,.014,0,.019l.005.006-.005.006-.04-.062v0l.009.006c.005.006.01.011.015.011a.085.085,0,0,0,.021-.011l.12-.087v-.02a.023.023,0,0,0-.005-.016l-.005-.01Zm.266.49-.043.021-.005-.006c.009-.005.017-.009.017-.012a.028.028,0,0,0,.009-.017v-.019l-.012-.03-.153.055c-.012.005-.021.007-.021.011a.015.015,0,0,0,0,.02v.006l-.005,0-.027-.085v0l.005.007c.005.008.01.014.015.015a.04.04,0,0,0,.021,0l.156-.055-.01-.022a.076.076,0,0,0-.009-.017c-.005-.008-.008-.012-.017-.013s-.015,0-.022,0l-.005,0,.048-.015Zm-.168.379v-.058l.1-.076a.023.023,0,0,1,0-.015v-.008l-.063,0a.061.061,0,0,0-.026.005c0,.005-.005.012-.005.019v.009h-.005l0-.09.009,0v.009c0,.007,0,.013.005.017a.059.059,0,0,0,.026,0l.132-.007a.075.075,0,0,0,.029-.006c.005,0,.005-.009.005-.018v-.008h0l.005.075v.051a.064.064,0,0,1-.017.03.053.053,0,0,1-.026.012.052.052,0,0,1-.036-.01c-.015-.008-.019-.022-.027-.039l-.059.046c-.013.011-.017.021-.027.028s0,.016,0,.028Zm.1-.158v.009a.072.072,0,0,0,.019.046.038.038,0,0,0,.036.012.041.041,0,0,0,.026-.013.048.048,0,0,0,.015-.033c0-.007-.005-.015-.005-.025Zm.06.435-.02.072h0v-.017l0-.017a.052.052,0,0,1-.019-.02l-.067-.07-.048-.014-.026,0a.023.023,0,0,0-.01.017l0,.007h-.005l.021-.087h.005v.009a.013.013,0,0,0,.005.021s.009.005.019.008l.048.013.1-.034.021-.008a.036.036,0,0,1,.015-.011v-.012l.007.005-.022.085h-.009v-.006q.008-.006,0-.012c0-.005,0-.007-.005-.01s-.007,0-.022.005l-.079.023.053.057a.1.1,0,0,0,.022.016h.009l.005-.006c.005,0,.005-.005.005-.01Z"/>
            </g>
          </g>
        </g>
      </g>
    </g>
  </g>
</svg>
