<svg xmlns="http://www.w3.org/2000/svg" xmlns:xlink="http://www.w3.org/1999/xlink" width="41.144" height="24" viewBox="0 0 41.144 24">
  <defs>
    <clipPath id="clip-path">
      <rect id="Rectángulo_25700" data-name="Rectángulo 25700" width="41.144" height="24" fill="none"/>
    </clipPath>
  </defs>
  <g id="GERMANY" transform="translate(-356.258 -332.386)">
    <g id="Grupo_99820" data-name="Grupo 99820" transform="translate(356.258 332.386)">
      <g id="Grupo_99819" data-name="Grupo 99819">
        <g id="Grupo_99818" data-name="Grupo 99818" clip-path="url(#clip-path)">
          <rect id="Rectángulo_25696" data-name="Rectángulo 25696" width="41.144" height="7.997"/>
          <rect id="Rectángulo_25697" data-name="Rectángulo 25697" width="41.144" height="8.002" transform="translate(0 7.997)" fill="#e1001f"/>
          <rect id="Rectángulo_25698" data-name="Rectángulo 25698" width="41.144" height="8.002" transform="translate(0 15.998)" fill="#f6d928"/>
          <g id="Grupo_99817" data-name="Grupo 99817">
            <g id="Grupo_99816" data-name="Grupo 99816" clip-path="url(#clip-path)">
              <path id="Trazado_158421" data-name="Trazado 158421" d="M368.394,337.019v9.606c0,3.6,4.831,3.164,5.694,4.6.863-1.437,5.7-1,5.7-4.6v-9.606Z" transform="translate(-353.517 -331.339)" fill="#f6d728"/>
              <g id="Grupo_99795" data-name="Grupo 99795" transform="translate(14.84 5.645)">
                <path id="Trazado_158422" data-name="Trazado 158422" d="M374.095,351.3l-.029-.053a3.874,3.874,0,0,0-2.058-1.09c-1.621-.536-3.643-1.209-3.643-3.53v-9.64h11.463v9.64c0,2.322-2.02,2.995-3.644,3.53a3.865,3.865,0,0,0-2.057,1.09l-.031.053Zm-5.66-14.243v9.57c0,2.269,1.911,2.906,3.6,3.464a4.114,4.114,0,0,1,2.063,1.073,4.112,4.112,0,0,1,2.067-1.073c1.682-.558,3.593-1.2,3.593-3.464v-9.57Z" transform="translate(-368.364 -336.991)"/>
              </g>
              <path id="Trazado_158423" data-name="Trazado 158423" d="M372.875,338.228a2.445,2.445,0,0,1-.2,1.206,2.549,2.549,0,0,0-.546,1.09c-.145,2.161.662,5.293,1.12,7.537.461-2.243,1.265-5.375,1.122-7.537a8.625,8.625,0,0,0-.432-2.732Z" transform="translate(-352.677 -331.165)"/>
              <path id="Trazado_158424" data-name="Trazado 158424" d="M373.076,338.463a3.983,3.983,0,0,1-1.351-.315,1.89,1.89,0,0,0,1.036.457Z" transform="translate(-352.764 -331.084)" fill="#ca001c"/>
              <g id="Grupo_99796" data-name="Grupo 99796" transform="translate(18.947 7.072)">
                <path id="Trazado_158425" data-name="Trazado 158425" d="M372.768,338.586a1.689,1.689,0,0,1-1.054-.431,4.862,4.862,0,0,0,1.367.286l0,.038a3.809,3.809,0,0,1-1.357-.321,2.292,2.292,0,0,0,1.047.429Z" transform="translate(-371.714 -338.155)"/>
              </g>
              <path id="Trazado_158426" data-name="Trazado 158426" d="M372.881,337.47c-.863-.43-1.383.06-.807.836.059-.143.6-.347.863.347a1.96,1.96,0,0,1-.948.027,1.782,1.782,0,0,0,1.177.143c.145-.086-.257-.8-.257-.8Z" transform="translate(-352.74 -331.274)" fill="#ca001c"/>
              <g id="Grupo_99797" data-name="Grupo 99797" transform="translate(19.076 6.017)">
                <path id="Trazado_158427" data-name="Trazado 158427" d="M372.843,338.889a1.644,1.644,0,0,1-.862-.195,2.238,2.238,0,0,0,.951-.056c-.162-.386-.408-.45-.542-.452h0a.326.326,0,0,0-.293.131c-.292-.347-.348-.675-.188-.867.177-.211.553-.208.983.01l-.015.031c-.408-.2-.778-.213-.94-.017-.151.178-.092.489.157.821,0-.069.145-.146.3-.146s.4.067.566.5a1.68,1.68,0,0,1-.968.051,1.97,1.97,0,0,0,1.171.11c.094-.058-.114-.505-.265-.78.1.105.436.722.286.814a.9.9,0,0,1-.34.045Z" transform="translate(-371.819 -337.294)"/>
              </g>
              <path id="Trazado_158428" data-name="Trazado 158428" d="M373.78,338.07a1.153,1.153,0,0,0,.545-.283,3.451,3.451,0,0,1-1.124-.289c-.229-.118-.631-.374-.631.113s.519.864.43,1.264Z" transform="translate(-352.574 -331.27)"/>
              <path id="Trazado_158429" data-name="Trazado 158429" d="M373.046,337.713a2.629,2.629,0,0,1-.347-.2c-.055-.058-.145.316.114.43a.447.447,0,0,1,.233-.232Z" transform="translate(-352.558 -331.229)" fill="#f0f7ff"/>
              <path id="Trazado_158430" data-name="Trazado 158430" d="M372.83,337.534c-.137.04-.164.143-.088.316.021-.131.114-.218.291-.259Z" transform="translate(-352.544 -331.223)"/>
              <path id="Trazado_158431" data-name="Trazado 158431" d="M374.071,341.314v3.394l3.854,3.163v-8.428a1.705,1.705,0,0,0-.4-1.321v1.755Z" transform="translate(-352.235 -331.09)"/>
              <g id="Grupo_99798" data-name="Grupo 99798" transform="translate(22.502 9.218)">
                <path id="Trazado_158432" data-name="Trazado 158432" d="M374.723,347.1h-.109v-7.19h.109v7.19Z" transform="translate(-374.614 -339.905)" fill="#f6d728"/>
              </g>
              <g id="Grupo_99799" data-name="Grupo 99799" transform="translate(23.309 9.218)">
                <path id="Trazado_158433" data-name="Trazado 158433" d="M375.381,347.1h-.109v-7.19h.109v7.19Z" transform="translate(-375.272 -339.905)" fill="#f6d728"/>
              </g>
              <g id="Grupo_99800" data-name="Grupo 99800" transform="translate(24.114 9.218)">
                <path id="Trazado_158434" data-name="Trazado 158434" d="M376.038,347.1h-.109v-7.19h.109v7.19Z" transform="translate(-375.929 -339.905)" fill="#f6d728"/>
              </g>
              <g id="Grupo_99801" data-name="Grupo 99801" transform="translate(24.919 9.218)">
                <path id="Trazado_158435" data-name="Trazado 158435" d="M376.694,347.1h-.108v-7.19h.108v7.19Z" transform="translate(-376.586 -339.905)" fill="#f6d728"/>
              </g>
              <path id="Trazado_158436" data-name="Trazado 158436" d="M373.461,342.067c2.589,0,3.682-.836,4.23-1.467v-2.327a.627.627,0,0,0,.46-.637c-.807.663-2.072-.891-2.821.721.4.8,1.21.721,1.5.259.576.488.115,2.329-3.366,2.3Z" transform="translate(-352.372 -331.209)"/>
              <path id="Trazado_158437" data-name="Trazado 158437" d="M374.252,345.839a.368.368,0,0,0,.145.579.5.5,0,0,1,.088-.488Z" transform="translate(-352.214 -329.347)" fill="#ca001c"/>
              <g id="Grupo_99802" data-name="Grupo 99802" transform="translate(21.93 16.484)">
                <path id="Trazado_158438" data-name="Trazado 158438" d="M374.417,346.415a.355.355,0,0,1-.261-.264.379.379,0,0,1,.086-.319l.027.022a.344.344,0,0,0-.078.292.4.4,0,0,0,.218.254.435.435,0,0,1,.064-.484.642.642,0,0,0-.055.5Z" transform="translate(-374.147 -345.833)"/>
              </g>
              <path id="Trazado_158439" data-name="Trazado 158439" d="M375.09,346.64a.624.624,0,0,1-.173.433c.346-.088.489-.206.374-.4Z" transform="translate(-352.044 -329.166)" fill="#ca001c"/>
              <g id="Grupo_99803" data-name="Grupo 99803" transform="translate(22.878 17.471)">
                <path id="Trazado_158440" data-name="Trazado 158440" d="M374.921,347.088a.742.742,0,0,0,.148-.445l.037,0a.609.609,0,0,1-.177.443c.212-.086.335-.151.368-.234a.174.174,0,0,0-.025-.168.148.148,0,0,1,.061.181c-.042.1-.174.168-.413.228Z" transform="translate(-374.921 -346.638)"/>
              </g>
              <path id="Trazado_158441" data-name="Trazado 158441" d="M376,346.312a.749.749,0,0,1,.032.462c.257-.232.343-.546.142-.606Z" transform="translate(-351.8 -329.273)" fill="#ca001c"/>
              <g id="Grupo_99804" data-name="Grupo 99804" transform="translate(24.177 16.911)">
                <path id="Trazado_158442" data-name="Trazado 158442" d="M376.041,346.784a1.044,1.044,0,0,0-.061-.467l.037-.012a.76.76,0,0,1,.028.472.718.718,0,0,0,.216-.493.117.117,0,0,0-.093-.1c.075-.02.114.026.129.088a.62.62,0,0,1-.255.51Z" transform="translate(-375.98 -346.181)"/>
              </g>
              <path id="Trazado_158443" data-name="Trazado 158443" d="M375.978,345.49c.1.022.19.113.287.288.029-.316-.028-.489-.316-.547Z" transform="translate(-351.81 -329.485)" fill="#ca001c"/>
              <g id="Grupo_99805" data-name="Grupo 99805" transform="translate(24.134 15.764)">
                <path id="Trazado_158444" data-name="Trazado 158444" d="M376.283,345.777c-.125-.158-.218-.254-.309-.273l.007-.033c.1.018.2.119.3.294,0-.331-.085-.469-.338-.52.321.027.366.228.338.532Z" transform="translate(-375.945 -345.245)"/>
              </g>
              <path id="Trazado_158445" data-name="Trazado 158445" d="M373.907,344.738l1.355,1.236a5.344,5.344,0,0,1-.72.115c-.2,0-.375.056-.318.116s.17.058.229.141.145.2.257.087a1.832,1.832,0,0,1,.518-.228,7.389,7.389,0,0,1-.028.745c-.028.088-.115.259-.056.259a.82.82,0,0,1,.288,0c.228.031.2.088.143-.259a3.43,3.43,0,0,1-.029-.716,3.8,3.8,0,0,1,.691.574c.172.23.145.058.228-.031a.7.7,0,0,1,.289-.141c.086-.029-.23-.118-.316-.175s-.748-.43-.748-.43a4.858,4.858,0,0,1,.6-.146c.23-.027.23-.027.2-.142a.847.847,0,0,1,0-.287c0-.055-.032-.115-.175,0a6.683,6.683,0,0,1-.8.4l-1.124-1.494Z" transform="translate(-352.272 -329.68)" fill="#ca001c"/>
              <g id="Grupo_99806" data-name="Grupo 99806" transform="translate(21.624 14.693)">
                <path id="Trazado_158446" data-name="Trazado 158446" d="M375.586,347.248a.4.4,0,0,1-.065-.007l-.088-.012a.918.918,0,0,0-.243-.01l-.074-.006c-.02-.029,0-.094.044-.195l.026-.071a6.215,6.215,0,0,0,.029-.743,3.216,3.216,0,0,0-.489.244.142.142,0,0,1-.119.049c-.069,0-.118-.072-.167-.14a.241.241,0,0,0-.125-.086.286.286,0,0,1-.1-.055l-.009-.01,0-.043c.026-.062.2-.093.344-.093a5.6,5.6,0,0,0,.715-.115l-1.361-1.206.025-.027,1.351,1.236a2.629,2.629,0,0,1-.729.148.493.493,0,0,0-.31.07.179.179,0,0,0,.1.063.293.293,0,0,1,.142.1c.04.061.087.119.14.124a.1.1,0,0,0,.091-.04,1.661,1.661,0,0,1,.526-.234,4.091,4.091,0,0,1-.007.772l-.028.072c-.02.048-.056.146-.045.161a.892.892,0,0,1,.288,0l.092.017c.031,0,.063.011.07,0a.331.331,0,0,0-.012-.13l-.025-.13a3.393,3.393,0,0,1-.029-.722,2.7,2.7,0,0,1,.724.563c.065.091.081.1.109.109.011,0,.025-.023.034-.051a.5.5,0,0,1,.056-.087.626.626,0,0,1,.264-.136c.027-.017-.062-.055-.123-.078a1.428,1.428,0,0,1-.163-.072c-.088-.058-.749-.431-.749-.431a1.927,1.927,0,0,1,.61-.177c.118-.015.181-.025.2-.043s0-.039-.011-.082a.634.634,0,0,1,0-.229c0-.027,0-.045,0-.06-.028-.053-.058-.055-.142.015a7,7,0,0,1-.812.4l-1.144-1.5,1.15,1.472c0-.015.641-.292.781-.4.075-.06.13-.081.167-.065.016.01.034.027.034.08,0,.015,0,.036,0,.065a.633.633,0,0,0,0,.219c.012.05.022.082,0,.108s-.076.037-.222.053a4.8,4.8,0,0,0-.593.146,6.056,6.056,0,0,1,.745.4c.032.017.1.045.158.07.137.055.183.075.183.1l-.062.043a.555.555,0,0,0-.246.125.272.272,0,0,0-.047.081c-.021.033-.037.067-.066.07s-.076-.033-.145-.123a3.8,3.8,0,0,0-.68-.568c.018.039,0,.386.053.7l.022.129c.02.1.026.141,0,.161a.049.049,0,0,1-.038.012Z" transform="translate(-373.898 -344.372)"/>
              </g>
              <path id="Trazado_158447" data-name="Trazado 158447" d="M373.06,348.889l.606-.721c.691.424,1.2.306,1.523-.342-1.035.174-1.523-.769-1.466-2.818l.777,1.2v-1.118l.948.115-2.5-2.675Z" transform="translate(-352.489 -330.094)"/>
              <path id="Trazado_158448" data-name="Trazado 158448" d="M372.717,341.314v3.394l-3.854,3.163v-8.428a1.71,1.71,0,0,1,.4-1.321v1.755Z" transform="translate(-353.411 -331.09)"/>
              <g id="Grupo_99807" data-name="Grupo 99807" transform="translate(18.534 9.218)">
                <path id="Trazado_158449" data-name="Trazado 158449" d="M371.485,347.1h-.108v-7.19h.108v7.19Z" transform="translate(-371.377 -339.905)" fill="#f6d728"/>
              </g>
              <g id="Grupo_99808" data-name="Grupo 99808" transform="translate(17.728 9.218)">
                <path id="Trazado_158450" data-name="Trazado 158450" d="M370.826,347.1h-.107v-7.19h.107v7.19Z" transform="translate(-370.72 -339.905)" fill="#f6d728"/>
              </g>
              <g id="Grupo_99809" data-name="Grupo 99809" transform="translate(16.923 9.218)">
                <path id="Trazado_158451" data-name="Trazado 158451" d="M370.17,347.1h-.108v-7.19h.108v7.19Z" transform="translate(-370.062 -339.905)" fill="#f6d728"/>
              </g>
              <g id="Grupo_99810" data-name="Grupo 99810" transform="translate(16.116 9.218)">
                <path id="Trazado_158452" data-name="Trazado 158452" d="M369.514,347.1h-.11v-7.19h.11v7.19Z" transform="translate(-369.404 -339.905)" fill="#f6d728"/>
              </g>
              <path id="Trazado_158453" data-name="Trazado 158453" d="M373.482,342.067c-2.59,0-3.682-.836-4.229-1.467v-2.327a.621.621,0,0,1-.458-.637c.8.663,2.069-.891,2.817.721a.848.848,0,0,1-1.5.259c-.574.488-.115,2.329,3.366,2.3Z" transform="translate(-353.426 -331.209)"/>
              <path id="Trazado_158454" data-name="Trazado 158454" d="M371.885,345.839a.366.366,0,0,1-.145.579.506.506,0,0,0-.085-.488Z" transform="translate(-352.78 -329.347)" fill="#ca001c"/>
              <g id="Grupo_99811" data-name="Grupo 99811" transform="translate(18.861 16.484)">
                <path id="Trazado_158455" data-name="Trazado 158455" d="M371.752,346.434a.594.594,0,0,0-.108-.493.433.433,0,0,1,.116.483.619.619,0,0,0,.192-.277.334.334,0,0,0-.081-.292l.028-.022a.376.376,0,0,1,.088.319.431.431,0,0,1-.237.282Z" transform="translate(-371.644 -345.833)"/>
              </g>
              <path id="Trazado_158456" data-name="Trazado 158456" d="M371.064,346.64a.624.624,0,0,0,.173.433c-.344-.088-.485-.206-.374-.4Z" transform="translate(-352.968 -329.166)" fill="#ca001c"/>
              <g id="Grupo_99812" data-name="Grupo 99812" transform="translate(17.84 17.471)">
                <path id="Trazado_158457" data-name="Trazado 158457" d="M371.258,347.058c-.262-.031-.395-.1-.433-.2a.219.219,0,0,1,.026-.2.417.417,0,0,0,0,.188c.038.083.162.148.389.206a.5.5,0,0,1-.195-.414l.038,0a.553.553,0,0,0,.17.416Z" transform="translate(-370.811 -346.638)"/>
              </g>
              <path id="Trazado_158458" data-name="Trazado 158458" d="M370.135,346.312a.75.75,0,0,0-.028.462c-.259-.232-.346-.546-.145-.606Z" transform="translate(-353.188 -329.273)" fill="#ca001c"/>
              <g id="Grupo_99813" data-name="Grupo 99813" transform="translate(16.647 16.879)">
                <path id="Trazado_158459" data-name="Trazado 158459" d="M370.126,346.773a.54.54,0,0,1-.282-.493.155.155,0,0,1,.116-.125.316.316,0,0,0-.082.135.593.593,0,0,0,.244.473.553.553,0,0,1,0-.452l.034.012a.727.727,0,0,0-.031.45Z" transform="translate(-369.838 -346.155)"/>
              </g>
              <path id="Trazado_158460" data-name="Trazado 158460" d="M370.16,345.49c-.094.022-.192.113-.287.288-.028-.316.029-.489.318-.547Z" transform="translate(-353.184 -329.485)" fill="#ca001c"/>
              <g id="Grupo_99814" data-name="Grupo 99814" transform="translate(16.681 15.728)">
                <path id="Trazado_158461" data-name="Trazado 158461" d="M369.889,345.791c-.061-.311-.016-.512.3-.575-.246.086-.326.224-.294.563.065-.185.163-.283.264-.3l.009.033c-.089.02-.181.115-.275.281Z" transform="translate(-369.866 -345.216)"/>
              </g>
              <path id="Trazado_158462" data-name="Trazado 158462" d="M372.7,344.738l-1.352,1.236a5.336,5.336,0,0,0,.721.115c.2,0,.374.056.316.116s-.173.058-.232.141-.142.2-.257.087a1.832,1.832,0,0,0-.518-.228,7.389,7.389,0,0,0,.028.745c.029.088.116.259.056.259a.8.8,0,0,0-.284,0c-.232.031-.2.088-.146-.259a3.487,3.487,0,0,0,.028-.716,3.69,3.69,0,0,0-.688.574c-.173.23-.145.058-.232-.031a.688.688,0,0,0-.287-.141c-.087-.029.229-.118.315-.175s.748-.43.748-.43a4.941,4.941,0,0,0-.6-.146c-.232-.027-.232-.027-.2-.142a.955.955,0,0,0,0-.287c0-.055.028-.115.172,0a6.869,6.869,0,0,0,.8.4l1.124-1.494Z" transform="translate(-353.191 -329.68)" fill="#ca001c"/>
              <g id="Grupo_99815" data-name="Grupo 99815" transform="translate(16.628 14.673)">
                <path id="Trazado_158463" data-name="Trazado 158463" d="M371.025,347.252a.048.048,0,0,1-.037-.012c-.02-.02-.012-.06.006-.161l.022-.129a3.254,3.254,0,0,0,.028-.713,7.886,7.886,0,0,0-.658.583c-.067.089-.109.125-.143.123s-.047-.037-.064-.07a.245.245,0,0,0-.05-.078.526.526,0,0,0-.245-.127l-.061-.043c0-.028.043-.048.18-.1.063-.025.128-.053.159-.07.078-.056.658-.382.738-.428-.06,0-.381-.091-.586-.12-.146-.016-.2-.021-.222-.053s-.009-.058,0-.108a.635.635,0,0,0,0-.219c0-.029,0-.05,0-.065,0-.053.018-.07.033-.08.038-.016.092,0,.168.065a6.451,6.451,0,0,0,.8.4l1.1-1.488-1.095,1.518a5.181,5.181,0,0,1-.831-.4c-.083-.07-.117-.067-.126-.062a.268.268,0,0,0-.013.108.56.56,0,0,1,0,.229c-.011.043-.016.072-.009.082s.08.028.2.043a4.976,4.976,0,0,1,.607.143c0,.033-.657.407-.743.465-.036.021-.1.045-.167.072a.685.685,0,0,0-.157.076.6.6,0,0,1,.3.139.349.349,0,0,1,.056.087c.01.028.025.051.036.051s.043-.018.112-.109a3.922,3.922,0,0,1,.7-.577,2.006,2.006,0,0,1,0,.737l-.022.13a.341.341,0,0,0-.016.13c0,.006.04,0,.072,0l.091-.017a.808.808,0,0,1,.25,0c.048-.01.012-.11-.009-.156l-.027-.072a7.026,7.026,0,0,1-.029-.754,1.19,1.19,0,0,1,.548.216.109.109,0,0,0,.089.04c.054,0,.1-.063.14-.124a.294.294,0,0,1,.145-.1.239.239,0,0,0,.09-.048c-.006-.042-.13-.085-.3-.085a5.16,5.16,0,0,1-.724-.118l1.345-1.266.025.027-1.35,1.234c.047-.016.516.087.7.087.145,0,.316.031.341.093l0,.007-.016.045a.281.281,0,0,1-.1.055.258.258,0,0,0-.128.086c-.045.067-.1.135-.166.14a.153.153,0,0,1-.12-.049,1.743,1.743,0,0,0-.509-.227c.021.165.027.658.05.726l.026.069c.042.1.064.168.043.2l-.074.006a.9.9,0,0,0-.24.01l-.091.012a.384.384,0,0,1-.065.007Z" transform="translate(-369.822 -344.355)"/>
              </g>
              <path id="Trazado_158464" data-name="Trazado 158464" d="M373.479,348.889l-.6-.721c-.69.424-1.2.306-1.523-.342,1.032.174,1.523-.769,1.464-2.818l-.773,1.2v-1.118l-.951.115,2.5-2.675Z" transform="translate(-352.907 -330.094)"/>
            </g>
          </g>
        </g>
      </g>
    </g>
  </g>
</svg>
