<svg xmlns="http://www.w3.org/2000/svg" width="86.184" height="86" viewBox="0 0 86.184 86">
  <g id="Grupo_102692" data-name="Grupo 102692" transform="translate(-212.908 -213)">
    <g id="Grupo_102726" data-name="Grupo 102726">
      <path id="Trazado_163437" data-name="Trazado 163437" d="M219.558,246.2v31.54H229.3V242.229h-5.759a3.986,3.986,0,0,0-3.98,3.971Z" fill="#ffcd69" fill-rule="evenodd"/>
    </g>
    <g id="Grupo_102727" data-name="Grupo 102727">
      <path id="Trazado_163438" data-name="Trazado 163438" d="M229.3,242.229V277.74h7.477V242.229H229.3Z" fill="#dae6e6" fill-rule="evenodd"/>
    </g>
    <g id="Grupo_102728" data-name="Grupo 102728">
      <path id="Trazado_163439" data-name="Trazado 163439" d="M236.774,242.229h16.909V277.74H236.774Z" fill="#ffcd69" fill-rule="evenodd"/>
    </g>
    <g id="Grupo_102729" data-name="Grupo 102729">
      <path id="Trazado_163440" data-name="Trazado 163440" d="M253.683,242.229V277.74h7.477V242.229h-7.477Z" fill="#dae6e6" fill-rule="evenodd"/>
    </g>
    <g id="Grupo_102730" data-name="Grupo 102730">
      <path id="Trazado_163441" data-name="Trazado 163441" d="M261.16,242.229V277.74H270.9V246.2a3.985,3.985,0,0,0-3.975-3.971Z" fill="#ffcd69" fill-rule="evenodd"/>
    </g>
    <g id="Grupo_102731" data-name="Grupo 102731">
      <path id="Trazado_163442" data-name="Trazado 163442" d="M233.037,232.655h25.227a3.447,3.447,0,1,0,0-6.893H232.193a3.447,3.447,0,1,0,0,6.893Z" fill="#dae6e6" fill-rule="evenodd"/>
    </g>
    <g id="Grupo_102732" data-name="Grupo 102732">
      <path id="Trazado_163443" data-name="Trazado 163443" d="M280.9,228.018a6.319,6.319,0,0,1,9.29,5.561v1.681h4.189a3.038,3.038,0,0,0,3.03-3.024V228.19a13.537,13.537,0,0,0-27.073,0v4.046a3.038,3.038,0,0,0,3.03,3.024h4.189v-1.681A6.3,6.3,0,0,1,280.9,228.018Z" fill="#80b6ff" fill-rule="evenodd"/>
    </g>
    <g id="Grupo_102733" data-name="Grupo 102733">
      <path id="Trazado_163444" data-name="Trazado 163444" d="M277.555,235.26H290.19v-1.681a6.318,6.318,0,0,0-12.635,0Z" fill="#bfdbff" fill-rule="evenodd"/>
    </g>
    <g id="Grupo_102734" data-name="Grupo 102734">
      <path id="Trazado_163445" data-name="Trazado 163445" d="M280.456,235.26h8.078v42.48h-8.078Z" fill="#dae6e6" fill-rule="evenodd"/>
    </g>
    <g id="Grupo_102735" data-name="Grupo 102735">
      <path id="Trazado_163446" data-name="Trazado 163446" d="M242.49,286.871h53.883a1.039,1.039,0,0,0,1.036-1.033v-7.069a1.036,1.036,0,0,0-1.036-1.029H215.622a1.032,1.032,0,0,0-1.031,1.029v7.069a1.035,1.035,0,0,0,1.031,1.033H242.49Z" fill="#b5cdcd" fill-rule="evenodd"/>
    </g>
    <g id="Grupo_102736" data-name="Grupo 102736">
      <path id="Trazado_163447" data-name="Trazado 163447" d="M242.49,286.871H217.874v7.223a3.239,3.239,0,0,0,3.216,3.223H235.1c2.319-.015,3.274-1.624,4.018-3.223Z" fill="#dae6e6" fill-rule="evenodd"/>
    </g>
    <g id="Grupo_102737" data-name="Grupo 102737">
      <path id="Trazado_163448" data-name="Trazado 163448" d="M294.121,286.871H269.51l3.364,7.223c.749,1.6,1.7,3.208,4.018,3.223H290.91a3.238,3.238,0,0,0,3.211-3.223v-7.223Z" fill="#dae6e6" fill-rule="evenodd"/>
    </g>
    <g id="Grupo_102738" data-name="Grupo 102738">
      <path id="Trazado_163449" data-name="Trazado 163449" d="M294.379,236.943a4.715,4.715,0,0,0,4.713-4.707V228.19a15.22,15.22,0,0,0-30.44,0v4.046a4.716,4.716,0,0,0,4.714,4.707h5.407v39.114h-6.191V246.2a5.662,5.662,0,0,0-5.658-5.654h-7.816v-6.278a5.129,5.129,0,0,0-.844-10.19H232.193a5.129,5.129,0,0,0-.839,10.191v6.277h-7.816a5.664,5.664,0,0,0-5.663,5.654v29.857h-2.253a2.715,2.715,0,0,0-2.714,2.712v7.069a2.718,2.718,0,0,0,2.714,2.717h.569v5.539A4.918,4.918,0,0,0,221.109,299h13.976c3.6,0,4.926-2.833,5.562-4.2l2.915-6.25h4.878a1.684,1.684,0,0,0,0-3.367H216.275v-5.765h79.451v5.765h-32.17a1.684,1.684,0,1,0,0,3.367h4.881l2.912,6.251c.635,1.361,1.958,4.194,5.566,4.194h13.976a4.915,4.915,0,0,0,4.913-4.906v-5.539h.569a2.721,2.721,0,0,0,2.719-2.717v-7.069a2.718,2.718,0,0,0-2.719-2.712h-6.156V236.943ZM237.6,293.382c-.816,1.746-1.379,2.251-2.511,2.251H221.109a1.547,1.547,0,0,1-1.552-1.539v-5.539h20.29Zm54.842.712a1.564,1.564,0,0,1-1.547,1.539H276.916c-1.137,0-1.7-.505-2.516-2.25l-2.249-4.828h20.287Zm-13.2-60.518a4.634,4.634,0,0,1,9.268,0Zm-7.219-1.34V228.19a11.854,11.854,0,0,1,23.707,0v4.046a1.361,1.361,0,0,1-1.347,1.34h-2.506a8,8,0,0,0-10.041-7.719L280.62,222.9a1.683,1.683,0,0,0-3.115,1.278l1.317,3.208a7.97,7.97,0,0,0-2.95,6.186h-2.506a1.361,1.361,0,0,1-1.347-1.34Zm-2.8,13.964v29.857h-6.371V243.913h4.08a2.292,2.292,0,0,1,2.291,2.287Zm-34.125-2.287v32.144h-4.11V243.913Zm3.367,0H252v32.144H238.457Zm16.91,0h4.11v32.144h-4.11Zm-24.945-14.7a1.77,1.77,0,0,1,1.771-1.764h26.071a1.764,1.764,0,1,1,0,3.527H232.193A1.769,1.769,0,0,1,230.422,229.209Zm4.3,5.13h21.02v6.207h-21.02ZM221.242,246.2a2.294,2.294,0,0,1,2.3-2.287h4.076v32.144h-6.372Zm60.9,29.857V236.943h4.712v39.114Z"/>
      <path id="Trazado_163450" data-name="Trazado 163450" d="M256,285.188a1.684,1.684,0,0,0,0,3.367h.01a1.684,1.684,0,1,0-.01-3.367Z"/>
    </g>
  </g>
</svg>
