<svg xmlns="http://www.w3.org/2000/svg" width="90.409" height="54.4" viewBox="0 0 90.409 54.4">
  <g id="Grupo_99810" data-name="Grupo 99810" transform="translate(-184.538 -213)">
    <path id="Trazado_159653" data-name="Trazado 159653" d="M273.317,232.045v2.741l-86.453.163,2.675-15.808a4.773,4.773,0,0,1,5.443-3.988l.269.041,70.02,10.784,4.057.626C271.932,227,273.5,229.053,273.317,232.045Z" transform="translate(-0.855 -0.77)" fill="#c833ff"/>
    <path id="Trazado_159654" data-name="Trazado 159654" d="M269.285,226.033l-69.452.131a2.037,2.037,0,0,1-2.013-2.377l1.445-8.538Z" transform="translate(-4.87 -0.826)" fill="#d355ff"/>
    <path id="Trazado_159655" data-name="Trazado 159655" d="M274.394,245.521V271.5a4.771,4.771,0,0,1-4.771,4.771H191.409a4.771,4.771,0,0,1-4.771-4.771V245.521a4.772,4.772,0,0,1,4.771-4.771h78.214A4.772,4.772,0,0,1,274.394,245.521Z" transform="translate(-0.772 -10.196)" fill="#d677ff"/>
    <path id="Trazado_159656" data-name="Trazado 159656" d="M277.473,245.521v25.272H199.789a4.771,4.771,0,0,1-4.771-4.771V240.75H272.7A4.772,4.772,0,0,1,277.473,245.521Z" transform="translate(-3.851 -10.196)" fill="#e0aaff"/>
    <path id="Trazado_159657" data-name="Trazado 159657" d="M218.686,270.377a2.728,2.728,0,0,0,1.725-3.451L215.9,253.389h0l-13.537-4.512a2.728,2.728,0,0,0-3.451,1.726h0a2.728,2.728,0,0,0,1.726,3.451l10.948,3.649,3.649,10.948a2.729,2.729,0,0,0,3.451,1.726Z" transform="translate(-5.229 -13.131)" fill="#e2db3d"/>
    <path id="Trazado_159658" data-name="Trazado 159658" d="M200.488,268.83l-.144-.144a3.534,3.534,0,0,1,0-5l14.765-14.765a3.534,3.534,0,0,1,5,0l.144.144a3.534,3.534,0,0,1,0,5L205.486,268.83A3.535,3.535,0,0,1,200.488,268.83Z" transform="translate(-5.428 -12.819)" fill="#cec61e"/>
    <path id="Trazado_159659" data-name="Trazado 159659" d="M202.369,280.229l-9.08-9.08a2.711,2.711,0,0,1,0-3.832h0a2.711,2.711,0,0,1,3.832,0l9.08,9.08a2.711,2.711,0,0,1,0,3.832h0A2.711,2.711,0,0,1,202.369,280.229Z" transform="translate(-2.924 -19.667)" fill="#e7e15a"/>
    <path id="Trazado_159660" data-name="Trazado 159660" d="M214.6,281.881H190.639a3.449,3.449,0,0,1-3.446-3.446V260.95a1.325,1.325,0,0,0-2.65,0v17.485a6.1,6.1,0,0,0,6.1,6.1H214.6a1.326,1.326,0,0,0,0-2.651Z" transform="translate(-0.002 -17.132)"/>
    <path id="Trazado_159661" data-name="Trazado 159661" d="M184.541,238.518a1.325,1.325,0,1,0,2.65,0v-3.193a3.449,3.449,0,0,1,3.446-3.446h38.257a1.325,1.325,0,1,0,0-2.65c-40.392.2-38.614-.448-40.8.556,2.348-13.871,1.824-10.74,1.9-11.212a3.46,3.46,0,0,1,3.929-2.881l26.521,4.084a1.325,1.325,0,0,0,.4-2.619C192.722,212.85,194.28,213,193.395,213a6.06,6.06,0,0,0-6.018,5.157l-2.661,15.717C184.433,235.033,184.584,235.641,184.541,238.518Z" transform="translate(0 0)"/>
    <path id="Trazado_159662" data-name="Trazado 159662" d="M293.395,246.319a1.325,1.325,0,0,0,1.325-1.325V238.2a6.063,6.063,0,0,0-1.26-3.7,1.325,1.325,0,0,0,.121-.425,6.067,6.067,0,0,0-5.134-6.672l-42.587-6.559a1.325,1.325,0,0,0-.4,2.62l42.586,6.559a3.472,3.472,0,0,1,2.8,2.506c-1.926-.756-.095-.268-36.875-.42a1.325,1.325,0,0,0,0,2.65h10.3v32.871h-24.6a1.325,1.325,0,1,0,0,2.65h48.948a6.1,6.1,0,0,0,6.1-6.1V250.294a1.325,1.325,0,0,0-2.65,0v13.883a3.449,3.449,0,0,1-3.446,3.446h-21.7V234.753h21.7a3.449,3.449,0,0,1,3.446,3.446v6.795A1.325,1.325,0,0,0,293.395,246.319Z" transform="translate(-19.773 -2.874)"/>
    <path id="Trazado_159663" data-name="Trazado 159663" d="M214.153,245.8c-2.754.1-3.861,2.272-5.545,3.711l-8.9-2.969a4.053,4.053,0,1,0-2.564,7.69l5.059,1.686h0l-3.88,3.881c-.611-.493-1.629-2.149-3.761-2.213a4.033,4.033,0,0,0-2.977,6.886l9.079,9.081a4.036,4.036,0,0,0,6.888-2.86c0-2.232-1.76-3.31-2.212-3.878l.049-.051a1.326,1.326,0,1,0-1.875-1.875l-1.2,1.2a1.044,1.044,0,0,0,0,1.472c2.028,2.056,2.532,2.267,2.585,3.039a1.375,1.375,0,0,1-1.458,1.482c-.825-.046-1.12-.719-2.352-1.853-8.149-8.152-8.034-7.792-8.034-8.607a1.386,1.386,0,0,1,1.462-1.383c.588.032.862.334,2.747,2.242a1.52,1.52,0,0,0,2.158,0l6.255-6.291a1.22,1.22,0,0,0-.422-2l-.956-.37-6.317-2.1a1.4,1.4,0,1,1,.889-2.661h.005l.022.007.006,0,.02.007h0l9.4,3.135a1.7,1.7,0,0,0,1.742-.411l2.658-2.658a2.211,2.211,0,0,1,3.172-.048,2.224,2.224,0,0,1,.1,3.309l-2.664,2.664a1.7,1.7,0,0,0-.411,1.742c2.509,7.524,3.043,9.127,3.137,9.407l0,.013h0l0,.015v0l.006.016,0-.012.005.015v0a1.4,1.4,0,0,1-2.661.889l-2.1-6.315-.4-.964a1.22,1.22,0,0,0-1.99-.4L207.3,261.1a1.363,1.363,0,0,0-.068,1.885,1.326,1.326,0,0,0,1.9.029l.081-.082,1.655,4.966a4.054,4.054,0,1,0,7.721-2.472l-2.966-8.9,2.209-2.21A4.987,4.987,0,0,0,214.153,245.8Z" transform="translate(-2.154 -12.049)"/>
    <path id="Trazado_159664" data-name="Trazado 159664" d="M260.233,249.692h-15.92a1.325,1.325,0,1,0,0,2.65h15.92a1.325,1.325,0,0,0,0-2.65Z" transform="translate(-21.476 -13.482)"/>
    <path id="Trazado_159665" data-name="Trazado 159665" d="M260.233,266.732h-15.92a1.325,1.325,0,1,0,0,2.65h15.92a1.325,1.325,0,0,0,0-2.65Z" transform="translate(-21.476 -19.743)"/>
    <path id="Trazado_159666" data-name="Trazado 159666" d="M260.233,283.772h-15.92a1.325,1.325,0,1,0,0,2.65h15.92a1.325,1.325,0,0,0,0-2.65Z" transform="translate(-21.476 -26.004)"/>
    <path id="Trazado_159667" data-name="Trazado 159667" d="M306.326,249.692h-15.92a1.325,1.325,0,1,0,0,2.65h15.92a1.325,1.325,0,1,0,0-2.65Z" transform="translate(-38.412 -13.482)"/>
    <path id="Trazado_159668" data-name="Trazado 159668" d="M306.326,266.732h-15.92a1.325,1.325,0,0,0,0,2.65h15.92a1.325,1.325,0,0,0,0-2.65Z" transform="translate(-38.412 -19.743)"/>
    <path id="Trazado_159669" data-name="Trazado 159669" d="M306.326,283.772h-15.92a1.325,1.325,0,1,0,0,2.65h15.92a1.325,1.325,0,1,0,0-2.65Z" transform="translate(-38.412 -26.004)"/>
  </g>
</svg>
