<svg xmlns="http://www.w3.org/2000/svg" width="97.094" height="86" viewBox="0 0 97.094 86">
  <g id="Grupo_102691" data-name="Grupo 102691" transform="translate(-207.452 -213)">
    <path id="Trazado_163432" data-name="Trazado 163432" d="M298.818,274.176A3.819,3.819,0,0,0,295,277.995v3.819H232.366V228.448a8.4,8.4,0,0,0-5.018-7.689l-12.608-5.547a3.818,3.818,0,0,0-3.076,6.99l12.607,5.547a.768.768,0,0,1,.457.7v61h77.909V277.995A3.819,3.819,0,0,0,298.818,274.176Z" fill="#e7e9ef"/>
    <path id="Trazado_163433" data-name="Trazado 163433" d="M295,244.387v37.427H243.823V244.387a12.222,12.222,0,0,1,12.221-12.221h26.734A12.222,12.222,0,0,1,295,244.387Z" fill="#ffc144"/>
    <path id="Trazado_163434" data-name="Trazado 163434" d="M236.938,281.814H277.06a4.581,4.581,0,0,0,4.565-4.842,86.355,86.355,0,0,0-1-9.154A15.218,15.218,0,0,0,265.6,255.081H248.4a15.218,15.218,0,0,0-15.026,12.737,86.1,86.1,0,0,0-1,9.154,4.581,4.581,0,0,0,4.565,4.842Z" fill="#00ccf2"/>
    <path id="Trazado_163435" data-name="Trazado 163435" d="M298.818,293.272a3.819,3.819,0,1,1-3.819-3.82A3.819,3.819,0,0,1,298.818,293.272ZM259.863,216.89h19.1a3.819,3.819,0,0,1,3.819,3.819v3.819H256.044v-3.819A3.819,3.819,0,0,1,259.863,216.89Zm-23.487,64.924a7.639,7.639,0,1,0,7.638,7.638A7.638,7.638,0,0,0,236.376,281.814Z" fill="#8690af"/>
    <path id="Trazado_163436" data-name="Trazado 163436" d="M298.818,272.267a5.7,5.7,0,0,0-1.91.327V244.387a14.152,14.152,0,0,0-12.221-14v-9.676a5.735,5.735,0,0,0-5.728-5.729h-19.1a5.735,5.735,0,0,0-5.728,5.729v9.676a14.153,14.153,0,0,0-12.222,14v10.048a17.692,17.692,0,0,0-7.638,6.15V228.448a10.312,10.312,0,0,0-6.158-9.437l-12.608-5.547A5.728,5.728,0,0,0,210.9,223.95l11.923,5.246v60.257a1.909,1.909,0,0,0,1.909,1.909h2.293a9.549,9.549,0,0,0,18.711,0H289.6a5.729,5.729,0,1,0,10.8,0h2.237a1.909,1.909,0,0,0,1.909-1.909V277.995a5.734,5.734,0,0,0-5.728-5.728Zm-40.864-51.558a1.912,1.912,0,0,1,1.909-1.91h19.1a1.912,1.912,0,0,1,1.909,1.91v1.91H257.954Zm0,5.729h22.914v3.819H257.954Zm-1.91,7.638h26.734a10.329,10.329,0,0,1,10.063,8.059,13.808,13.808,0,0,0-10.075-4.24h-4.3a1.91,1.91,0,1,0,0,3.819h4.3a10.338,10.338,0,0,1,10.323,10.311V279.9H282.962a6.543,6.543,0,0,0,.57-3.039c-.174-3.13-.624-6.262-1.02-9.356a17.207,17.207,0,0,0-12.563-13.777,14.331,14.331,0,0,0-24.152-2.812,10.337,10.337,0,0,1,10.247-9.207h5.238a1.91,1.91,0,0,0,0-3.819h-5.238a13.805,13.805,0,0,0-10.06,4.225,10.328,10.328,0,0,1,10.06-8.044Zm9.063,19.1H248.89a10.517,10.517,0,0,1,16.217,0ZM227.02,287.543h-.383v-59.1a2.674,2.674,0,0,0-1.6-2.446l-12.607-5.548a1.909,1.909,0,1,1,1.538-3.494l12.607,5.547a6.492,6.492,0,0,1,3.878,5.942V277.22h0a6.549,6.549,0,0,0,1.284,3.888A9.578,9.578,0,0,0,227.02,287.543Zm9.356,7.638a5.729,5.729,0,1,1,5.728-5.729A5.735,5.735,0,0,1,236.376,295.181Zm.562-15.276a2.654,2.654,0,0,1-2.659-2.828,82.617,82.617,0,0,1,.976-8.952A13.249,13.249,0,0,1,248.4,256.99H265.6a13.249,13.249,0,0,1,13.14,11.135,82.883,82.883,0,0,1,.976,8.951,2.653,2.653,0,0,1-2.659,2.829ZM295,295.181a1.91,1.91,0,1,1,1.909-1.909A1.912,1.912,0,0,1,295,295.181Zm5.728-7.638H245.732a9.516,9.516,0,0,0-1.723-3.819h56.718Zm0-7.638h-3.819v-1.91a1.91,1.91,0,0,1,3.819,0Zm-32.762-40.1a1.91,1.91,0,1,1,1.91,1.91A1.912,1.912,0,0,1,267.965,239.8Z"/>
  </g>
</svg>
