<svg xmlns="http://www.w3.org/2000/svg" xmlns:xlink="http://www.w3.org/1999/xlink" width="242.449" height="241.789" viewBox="0 0 242.449 241.789">
  <defs>
    <linearGradient id="linear-gradient" x1="0.43" y1="1.585" x2="0.504" y2="0.437" gradientUnits="objectBoundingBox">
      <stop offset="0" stop-color="#fcb148"/>
      <stop offset="0.052" stop-color="#fdb946"/>
      <stop offset="0.142" stop-color="#fec144"/>
      <stop offset="0.318" stop-color="#ffc444"/>
      <stop offset="0.485" stop-color="#fdb946"/>
      <stop offset="0.775" stop-color="#f99c4c"/>
      <stop offset="0.866" stop-color="#f8924f"/>
      <stop offset="1" stop-color="#f8924f"/>
    </linearGradient>
    <linearGradient id="linear-gradient-2" x1="0" y1="0.5" x2="1" y2="0.5" xlink:href="#linear-gradient"/>
    <linearGradient id="linear-gradient-5" x1="0" y1="0.5" x2="1.207" y2="0.5" xlink:href="#linear-gradient"/>
    <linearGradient id="linear-gradient-6" x1="0.43" y1="1.585" x2="0.504" y2="0.437" xlink:href="#linear-gradient"/>
    <linearGradient id="linear-gradient-11" x1="-37.013" y1="-0.052" x2="-36.613" y2="0.731" gradientUnits="objectBoundingBox">
      <stop offset="0" stop-color="#240844"/>
      <stop offset="1" stop-color="#6b4089"/>
    </linearGradient>
    <linearGradient id="linear-gradient-12" x1="-37.048" y1="-0.052" x2="-36.65" y2="0.734" gradientUnits="objectBoundingBox">
      <stop offset="0" stop-color="#b44cff"/>
      <stop offset="1" stop-color="#c98cfb"/>
    </linearGradient>
    <linearGradient id="linear-gradient-13" x1="-58.14" y1="0.096" x2="-57.581" y2="0.835" xlink:href="#linear-gradient-12"/>
    <linearGradient id="linear-gradient-14" x1="0" y1="0.5" x2="1" y2="0.5" xlink:href="#linear-gradient-12"/>
  </defs>
  <g id="Grupo_103320" data-name="Grupo 103320" transform="translate(-216 -15681.21)">
    <g id="Grupo_99804" data-name="Grupo 99804" transform="translate(-1593.585 13886.858)">
      <path id="Trazado_162965" data-name="Trazado 162965" d="M1992.915,1808.4c8.276,11.586-1.085,30.615,11.108,39.267,11.87,8.424,26.191-5.737,37.369,1.5,16.582,10.74,14.1,60.711-9.65,91.991-7.143,9.408-13.153,13.1-15.721,23.683-5.515,22.721,14.849,35.986,11.118,47.234-8.4,25.328-141.428,47.9-195.693-27.373-25.344-35.157-29.619-86.264-7.718-125.344C1863.306,1788.745,1974.341,1782.4,1992.915,1808.4Z" transform="translate(0 0)" fill="#f4f7fa"/>
      <g id="Grupo_102451" data-name="Grupo 102451" transform="translate(1840.833 1838.026)">
        <g id="Grupo_102445" data-name="Grupo 102445" transform="translate(66.36)">
          <ellipse id="Elipse_5272" data-name="Elipse 5272" cx="56.729" cy="12.996" rx="56.729" ry="12.996" transform="translate(0.069)" fill="url(#linear-gradient)"/>
          <ellipse id="Elipse_5273" data-name="Elipse 5273" cx="56.729" cy="12.996" rx="56.729" ry="12.996" transform="translate(0.069 159.861)" fill="#f8924f"/>
          <g id="Grupo_102443" data-name="Grupo 102443" transform="translate(1.048 2.698)">
            <rect id="Rect치ngulo_25943" data-name="Rect치ngulo 25943" width="111.501" height="156.876" transform="translate(0 12.302)" fill="url(#linear-gradient-2)"/>
            <g id="Grupo_102442" data-name="Grupo 102442" transform="translate(28.185 64.753)">
              <g id="Grupo_102441" data-name="Grupo 102441">
                <path id="Trazado_162966" data-name="Trazado 162966" d="M1893.525,1856.27a4.313,4.313,0,0,0-5.723.975h0a1.249,1.249,0,0,1-1.758.2l-4.19-3.344a4.154,4.154,0,0,1-3.035,4.047l3.992,3.187a1.354,1.354,0,0,1,.213,1.9h0a4.246,4.246,0,0,0,.669,5.967h0a4.246,4.246,0,0,0,5.968-.67h0a4.242,4.242,0,0,1,4.841-6.066h0A4.247,4.247,0,0,0,1893.525,1856.27Z" transform="translate(-1838.259 -1820.764)" fill="#fff"/>
                <path id="Trazado_162967" data-name="Trazado 162967" d="M1864.023,1854.165a4.313,4.313,0,0,0,5.724-.972h0a1.254,1.254,0,0,1,1.76-.2l4.089,3.266a14.889,14.889,0,0,1,2.693-4.32l-3.547-2.834a1.351,1.351,0,0,1-.215-1.9h0a4.246,4.246,0,1,0-6.637-5.3h0a4.242,4.242,0,0,1-4.843,6.066h0A4.247,4.247,0,0,0,1864.023,1854.165Z" transform="translate(-1861.937 -1840.311)" fill="#fff"/>
                <path id="Trazado_162968" data-name="Trazado 162968" d="M1878.964,1858.559a4.05,4.05,0,0,1-1.864-4.456,3.708,3.708,0,0,0,.08-.559l-5.716,4.43a1.251,1.251,0,0,1-1.755-.222l-.062-.078a4.241,4.241,0,0,0-5.956-.754h0a4.244,4.244,0,0,0-.757,5.956h0a4.244,4.244,0,0,1,4.756,6.136h0a4.248,4.248,0,0,0,5.958.754h0a4.248,4.248,0,0,0,.754-5.958h0a1.351,1.351,0,0,1,.239-1.9Z" transform="translate(-1862.044 -1821.547)" fill="#fff"/>
                <path id="Trazado_162969" data-name="Trazado 162969" d="M1879.36,1851.4a13.374,13.374,0,0,1,2.911,4.14l3.156-2.444a1.251,1.251,0,0,1,1.755.222h0a4.311,4.311,0,0,0,5.895.926,4.246,4.246,0,0,0,.878-6.049h0a4.241,4.241,0,0,1-4.753-6.135,4.249,4.249,0,0,0-5.958-.754h0a4.246,4.246,0,0,0-.754,5.958h0a1.352,1.352,0,0,1-.242,1.9Z" transform="translate(-1837.491 -1840.163)" fill="#fff"/>
              </g>
              <path id="Trazado_162970" data-name="Trazado 162970" d="M1890.467,1845.9a15.133,15.133,0,0,0-16.638.617,13.024,13.024,0,0,0-4.217,16.8,7.29,7.29,0,0,1,1.023,5.2,1.86,1.86,0,0,0,1.364,2.323,15.011,15.011,0,0,0,3.008.525c1.763.157,2.242.708,1.922,2.42a6.337,6.337,0,0,1-.167.665,1.633,1.633,0,0,0,1.166,2.219,12.855,12.855,0,0,0,8.617.31c2.505-.762,2.776-1.265,2.053-3.368a1.518,1.518,0,0,1-.051-.338c-.155-1.313.242-1.835,1.552-2,.791-.1,1.6-.109,2.376-.269,1.978-.408,2.554-1.24,2.263-3.23a4.876,4.876,0,0,1,.4-3.538c1.4-2.2,1.753-4.671,1.8-8.484C1897.109,1851.954,1894.778,1848.285,1890.467,1845.9Zm-11.64,20.443a23.026,23.026,0,0,1-2.739.728c-1.7-.075-2.781-.73-3.071-1.954a3.13,3.13,0,0,1,1.707-3.726,9.776,9.776,0,0,1,2.744-.689c1.734-.2,2.8.507,3.155,1.937A2.846,2.846,0,0,1,1878.827,1866.345Zm5.124,5.271-2.225.022a1.255,1.255,0,0,1-1.151-1.775l1.32-2.9a.992.992,0,0,1,1.8-.017l1.376,2.88A1.255,1.255,0,0,1,1883.95,1871.616Zm8.4-6.627c-.292,1.211-1.381,1.872-3.489,1.842a15.55,15.55,0,0,1-2.125-.491,2.9,2.9,0,0,1-2.014-3.789c.244-1.03.858-1.83,1.908-1.828a12.573,12.573,0,0,1,3.888.52A3.044,3.044,0,0,1,1892.35,1864.988Z" transform="translate(-1853.417 -1835.495)" fill="#fff"/>
            </g>
            <ellipse id="Elipse_5274" data-name="Elipse 5274" cx="55.75" cy="12.302" rx="55.75" ry="12.302" fill="url(#linear-gradient-2)"/>
            <ellipse id="Elipse_5275" data-name="Elipse 5275" cx="55.75" cy="12.302" rx="55.75" ry="12.302" transform="translate(0 156.55)" fill="url(#linear-gradient-2)"/>
          </g>
          <path id="Trazado_162971" data-name="Trazado 162971" d="M1917.239,1951.819c-4.487-20.859,8.5-27.946,1.833-47.637-11.057-32.666-49.659-39.586-48.684-67a58.3,58.3,0,0,1,5.682-22.844c-15.446,2.188-25.683,6.011-25.683,10.361v156.878h.02c.786,6.642,25.437,11.974,55.73,11.974a201.217,201.217,0,0,0,36.639-3.03C1931.026,1980.728,1920.724,1968.01,1917.239,1951.819Z" transform="translate(-1849.339 -1809.694)" opacity="0.4" fill="url(#linear-gradient-5)" style="mix-blend-mode: multiply;isolation: isolate"/>
          <g id="Grupo_102444" data-name="Grupo 102444" transform="translate(0 43.327)">
            <path id="Trazado_162972" data-name="Trazado 162972" d="M1907.087,1872.084a456.6,456.6,0,0,1-56.214-3.491,1.046,1.046,0,1,1,.256-2.077,446.9,446.9,0,0,0,111.241,0,1.047,1.047,0,1,1,.264,2.077A440.625,440.625,0,0,1,1907.087,1872.084Z" transform="translate(-1849.954 -1779.043)" fill="#f8924f"/>
            <path id="Trazado_162973" data-name="Trazado 162973" d="M1907.087,1830.333a456.5,456.5,0,0,0-56.214,3.492,1.046,1.046,0,1,0,.256,2.077,446.9,446.9,0,0,1,111.241,0,1.047,1.047,0,1,0,.264-2.077A440.534,440.534,0,0,0,1907.087,1830.333Z" transform="translate(-1849.954 -1830.333)" fill="#f8924f"/>
          </g>
        </g>
        <g id="Grupo_102450" data-name="Grupo 102450" transform="translate(0 43.422)">
          <ellipse id="Elipse_5276" data-name="Elipse 5276" cx="44.67" cy="10.234" rx="44.67" ry="10.234" transform="translate(0.053)" fill="url(#linear-gradient-6)"/>
          <ellipse id="Elipse_5277" data-name="Elipse 5277" cx="44.67" cy="10.234" rx="44.67" ry="10.234" transform="translate(0.053 125.878)" fill="#f8924f"/>
          <g id="Grupo_102446" data-name="Grupo 102446" transform="translate(0.824 2.125)">
            <rect id="Rect치ngulo_25944" data-name="Rect치ngulo 25944" width="87.798" height="123.527" transform="translate(0 9.687)" fill="url(#linear-gradient-2)"/>
            <ellipse id="Elipse_5278" data-name="Elipse 5278" cx="43.899" cy="9.687" rx="43.899" ry="9.687" fill="url(#linear-gradient-2)"/>
            <ellipse id="Elipse_5279" data-name="Elipse 5279" cx="43.899" cy="9.687" rx="43.899" ry="9.687" transform="translate(0 123.27)" fill="url(#linear-gradient-2)"/>
          </g>
          <g id="Grupo_102448" data-name="Grupo 102448" transform="translate(21.315 47.8)">
            <g id="Grupo_102447" data-name="Grupo 102447">
              <path id="Trazado_162974" data-name="Trazado 162974" d="M1859.026,1864.188a3.792,3.792,0,0,0-5.037.856h0a1.1,1.1,0,0,1-1.547.171l-3.687-2.942a3.658,3.658,0,0,1-2.669,3.564l3.511,2.8a1.188,1.188,0,0,1,.189,1.671h0a3.738,3.738,0,0,0,.59,5.252h0a3.736,3.736,0,0,0,5.25-.59h0a3.732,3.732,0,0,1,4.26-5.336h0A3.736,3.736,0,0,0,1859.026,1864.188Z" transform="translate(-1810.394 -1832.943)" fill="#fff"/>
              <path id="Trazado_162975" data-name="Trazado 162975" d="M1833.065,1862.335a3.8,3.8,0,0,0,5.037-.856h0a1.1,1.1,0,0,1,1.547-.174l3.6,2.873a13.1,13.1,0,0,1,2.37-3.8l-3.122-2.49a1.189,1.189,0,0,1-.189-1.673h0a3.737,3.737,0,0,0-5.841-4.662h0a3.734,3.734,0,0,1-4.26,5.339h0A3.736,3.736,0,0,0,1833.065,1862.335Z" transform="translate(-1831.229 -1850.142)" fill="#fff"/>
              <path id="Trazado_162976" data-name="Trazado 162976" d="M1846.214,1866.2a3.567,3.567,0,0,1-1.642-3.922,3.207,3.207,0,0,0,.07-.493l-5.029,3.9a1.1,1.1,0,0,1-1.545-.2l-.054-.07a3.737,3.737,0,0,0-5.242-.663h0a3.732,3.732,0,0,0-.665,5.24h0a3.735,3.735,0,0,1,4.186,5.4h0a3.735,3.735,0,0,0,5.242.665h0a3.738,3.738,0,0,0,.663-5.242h0a1.191,1.191,0,0,1,.21-1.668Z" transform="translate(-1831.324 -1833.632)" fill="#fff"/>
              <path id="Trazado_162977" data-name="Trazado 162977" d="M1846.561,1859.9a11.8,11.8,0,0,1,2.563,3.644l2.773-2.152a1.1,1.1,0,0,1,1.545.2h0a3.8,3.8,0,0,0,5.189.814,3.732,3.732,0,0,0,.771-5.322h0a3.734,3.734,0,0,1-4.183-5.4,3.74,3.74,0,0,0-5.242-.665h0a3.735,3.735,0,0,0-.665,5.242h0a1.19,1.19,0,0,1-.21,1.671Z" transform="translate(-1809.719 -1850.012)" fill="#fff"/>
            </g>
            <path id="Trazado_162978" data-name="Trazado 162978" d="M1856.334,1855.06a13.317,13.317,0,0,0-14.641.544,11.463,11.463,0,0,0-3.711,14.78,6.4,6.4,0,0,1,.9,4.578,1.634,1.634,0,0,0,1.2,2.043,13.235,13.235,0,0,0,2.647.464c1.552.135,1.97.621,1.69,2.127a5.983,5.983,0,0,1-.145.585,1.435,1.435,0,0,0,1.025,1.954,11.3,11.3,0,0,0,7.583.271c2.2-.667,2.442-1.112,1.806-2.962a1.508,1.508,0,0,1-.045-.3c-.136-1.158.215-1.617,1.366-1.763.7-.089,1.41-.094,2.094-.237,1.739-.358,2.244-1.09,1.99-2.844a4.277,4.277,0,0,1,.353-3.109c1.23-1.939,1.542-4.113,1.581-7.467C1862.178,1860.387,1860.127,1857.159,1856.334,1855.06Zm-10.242,17.992a20.05,20.05,0,0,1-2.409.639c-1.5-.065-2.449-.643-2.705-1.717a2.756,2.756,0,0,1,1.5-3.279,8.594,8.594,0,0,1,2.416-.609,2.247,2.247,0,0,1,2.775,1.7A2.508,2.508,0,0,1,1846.092,1873.052Zm4.509,4.638-1.956.017a1.1,1.1,0,0,1-1.016-1.56l1.163-2.556a.872.872,0,0,1,1.582-.015l1.211,2.534A1.1,1.1,0,0,1,1850.6,1877.69Zm7.389-5.832c-.256,1.066-1.214,1.645-3.068,1.623a14.125,14.125,0,0,1-1.872-.433,2.555,2.555,0,0,1-1.772-3.334c.218-.907.757-1.61,1.681-1.61a11.21,11.21,0,0,1,3.421.457A2.681,2.681,0,0,1,1857.99,1871.858Z" transform="translate(-1823.733 -1845.906)" fill="#fff"/>
          </g>
          <path id="Trazado_162979" data-name="Trazado 162979" d="M1875.489,1940.143c-3.533-16.425,6.692-22,1.443-37.511-8.707-25.722-39.1-31.169-38.333-52.761a45.862,45.862,0,0,1,4.473-17.987c-12.165,1.721-20.223,4.731-20.223,8.158V1963.57h.015c.619,5.23,20.03,9.43,43.885,9.43a158.482,158.482,0,0,0,28.848-2.386C1886.345,1962.907,1878.233,1952.893,1875.489,1940.143Z" transform="translate(-1822.025 -1828.231)" opacity="0.4" fill="url(#linear-gradient-5)" style="mix-blend-mode: multiply;isolation: isolate"/>
          <g id="Grupo_102449" data-name="Grupo 102449" transform="translate(0 34.116)">
            <path id="Trazado_162980" data-name="Trazado 162980" d="M1867.495,1877.358a359.563,359.563,0,0,1-44.265-2.75.823.823,0,1,1,.2-1.634,351.852,351.852,0,0,0,87.593,0,.824.824,0,1,1,.208,1.634A347.044,347.044,0,0,1,1867.495,1877.358Z" transform="translate(-1822.508 -1804.095)" fill="#f8924f"/>
            <path id="Trazado_162981" data-name="Trazado 162981" d="M1867.495,1844.483a359.562,359.562,0,0,0-44.265,2.749.825.825,0,0,0,.2,1.637,351.852,351.852,0,0,1,87.593,0,.825.825,0,0,0,.208-1.637A347.043,347.043,0,0,0,1867.495,1844.483Z" transform="translate(-1822.508 -1844.483)" fill="#f8924f"/>
          </g>
        </g>
      </g>
      <g id="Grupo_102454" data-name="Grupo 102454" transform="translate(1846.214 1802.281)">
        <g id="Grupo_102452" data-name="Grupo 102452">
          <path id="Trazado_162982" data-name="Trazado 162982" d="M1824.734,1807v36.546a9.686,9.686,0,0,0,9.9,9.534l20.349-.083,2.688-.01,9.5,11.635a2.647,2.647,0,0,0,3.025-.116l1.407-1.859,7.367-9.747.682,0,18.608-.073a7.861,7.861,0,0,0,5.148-1.949,8.7,8.7,0,0,0,2.994-6.763v-33.149a9.06,9.06,0,0,0-8.26-9.176l-3.946-.236-59.662-3.533a9.561,9.561,0,0,0-4.115.648A8.815,8.815,0,0,0,1824.734,1807Z" transform="translate(-1824.734 -1797.103)" fill="url(#linear-gradient-11)"/>
          <path id="Trazado_162983" data-name="Trazado 162983" d="M1825.334,1806.592v36.442a9.807,9.807,0,0,0,10.01,9.519l19.244-.039,3.789-.009,9.447,11.1a1.676,1.676,0,0,0,2.573-.01l.346-.411,8.052-9.751.8-.972,19.188-.043a7.822,7.822,0,0,0,3.82-1.006,8.64,8.64,0,0,0,4.391-7.672v-33.062a9.086,9.086,0,0,0-8.277-9.166l-4.529-.276-58.77-3.581a9.89,9.89,0,0,0-6.021,1.547A8.859,8.859,0,0,0,1825.334,1806.592Z" transform="translate(-1823.883 -1797.631)" fill="url(#linear-gradient-12)"/>
        </g>
        <g id="Grupo_102453" data-name="Grupo 102453" transform="translate(40.947 8.737)">
          <path id="Trazado_162984" data-name="Trazado 162984" d="M1847.941,1827.876l-3.3-.08a1.825,1.825,0,0,1-1.727-1.731l-1.207-23.224a1.506,1.506,0,0,1,.477-1.2,1.572,1.572,0,0,1,1.257-.394l5.677.394a1.74,1.74,0,0,1,1.228.551,1.758,1.758,0,0,1,.462,1.267l-1.173,22.8A1.681,1.681,0,0,1,1847.941,1827.876Z" transform="translate(-1841.613 -1801.244)" fill="#fff"/>
          <path id="Trazado_162985" data-name="Trazado 162985" d="M1842.909,1815.275a4.705,4.705,0,0,1,3.47-1.141,4.9,4.9,0,0,1,3.5,1.211,4.6,4.6,0,0,1,1.19,3.426,4.491,4.491,0,0,1-1.216,3.366,4.751,4.751,0,0,1-3.47,1.2,4.69,4.69,0,0,1-3.458-1.238,4.581,4.581,0,0,1-1.252-3.4A4.507,4.507,0,0,1,1842.909,1815.275Z" transform="translate(-1841.669 -1782.97)" fill="#fff"/>
        </g>
        <path id="Trazado_162986" data-name="Trazado 162986" d="M1837.229,1851.419l2.706-.01,9.5,11.635a2.654,2.654,0,0,0,3.029-.116l1.41-1.859,8.052-9.751,18.608-.073a8,8,0,0,0,5.2-1.949,8.64,8.64,0,0,0,4.391-7.672v-33.062a9.086,9.086,0,0,0-8.277-9.166l-4.529-.276c-.283.271-.544.551-.81.852-3.035,3.339-5.177,8.262-4.785,15.52,1.155,21.584-13.187,25.079-26.147,29.128a13.15,13.15,0,0,0-7.814,5.784C1837.57,1850.737,1837.393,1851.076,1837.229,1851.419Z" transform="translate(-1807.017 -1795.52)" opacity="0.3" fill="url(#linear-gradient-13)" style="mix-blend-mode: multiply;isolation: isolate"/>
      </g>
      <g id="Grupo_102458" data-name="Grupo 102458" transform="translate(1814.725 1947.726)">
        <g id="Grupo_102455" data-name="Grupo 102455" transform="translate(0 72.832)">
          <path id="Trazado_162987" data-name="Trazado 162987" d="M1812.453,1891.454a.741.741,0,0,1-.65-1.1c.392-.706.786-1.4,1.178-2.08a.742.742,0,0,1,1.284.745c-.387.665-.776,1.356-1.163,2.053A.739.739,0,0,1,1812.453,1891.454Z" transform="translate(-1811.71 -1887.906)" fill="#f4f7fa"/>
        </g>
        <g id="Grupo_102456" data-name="Grupo 102456" transform="translate(3.621 5.924)">
          <path id="Trazado_162988" data-name="Trazado 162988" d="M1813.95,1924.581a.725.725,0,0,1-.4-.116.74.74,0,0,1-.229-1.022c.861-1.354,1.753-2.689,2.645-3.963a.743.743,0,0,1,1.216.853c-.882,1.255-1.76,2.57-2.609,3.905A.741.741,0,0,1,1813.95,1924.581Zm5.438-7.737a.741.741,0,0,1-.583-1.2c.987-1.267,2.007-2.507,3.032-3.685a.743.743,0,0,1,1.12.977c-1.008,1.156-2.012,2.375-2.981,3.62A.748.748,0,0,1,1819.388,1916.843Zm133.853-5.941c-1.071,0-2.164-.021-3.245-.067a.742.742,0,1,1,.063-1.482q2.347.1,4.681.053a.75.75,0,0,1,.757.726.738.738,0,0,1-.726.756Q1954,1910.9,1953.24,1910.9Zm6.236-.261a.741.741,0,0,1-.061-1.48c1.55-.13,3.114-.314,4.649-.546a.742.742,0,1,1,.22,1.467c-1.567.237-3.163.423-4.746.557Zm-14.164-.14-.075-.005c-1.547-.154-3.138-.357-4.727-.6a.742.742,0,1,1,.225-1.467c1.564.242,3.129.44,4.649.595a.742.742,0,0,1-.072,1.48Zm-119.706-.784a.741.741,0,0,1-.53-1.26c1.127-1.146,2.288-2.258,3.456-3.3a.741.741,0,0,1,.989,1.1c-1.141,1.022-2.28,2.111-3.385,3.235A.737.737,0,0,1,1825.606,1909.718Zm143.22-.481a.741.741,0,0,1-.157-1.465c1.516-.331,3.042-.713,4.538-1.142a.742.742,0,0,1,.409,1.427c-1.528.435-3.085.827-4.633,1.163A.706.706,0,0,1,1968.826,1909.236Zm-32.854-.169a.751.751,0,0,1-.147-.015c-1.509-.307-3.068-.658-4.64-1.047a.741.741,0,1,1,.355-1.438c1.552.382,3.092.73,4.58,1.032a.741.741,0,0,1-.147,1.468Zm-9.178-2.253a.751.751,0,0,1-.2-.029c-1.472-.417-2.959-.861-4.55-1.362a.741.741,0,1,1,.445-1.414c1.577.493,3.052.936,4.509,1.349a.742.742,0,0,1-.2,1.456Zm51.122-.174a.742.742,0,0,1-.249-1.441c1.456-.518,2.92-1.09,4.362-1.7a.742.742,0,0,1,.58,1.366c-1.465.626-2.962,1.209-4.444,1.738A.754.754,0,0,1,1977.915,1906.64Zm-60.148-2.645a.731.731,0,0,1-.237-.039c-1.371-.462-2.836-.965-4.48-1.543a.742.742,0,1,1,.491-1.4c1.64.576,3.1,1.079,4.461,1.536a.742.742,0,0,1-.234,1.446Zm-85.11-.576a.741.741,0,0,1-.455-1.327c1.265-.984,2.57-1.925,3.88-2.8a.742.742,0,0,1,.822,1.236c-1.279.851-2.556,1.77-3.794,2.732A.74.74,0,0,1,1832.657,1903.419Zm153.955-.481a.743.743,0,0,1-.332-1.407c1.378-.684,2.771-1.427,4.137-2.2a.742.742,0,0,1,.732,1.291c-1.39.788-2.807,1.542-4.209,2.242A.735.735,0,0,1,1986.612,1902.938Zm-77.774-2.065a.752.752,0,0,1-.249-.041l-1.032-.37q-1.716-.613-3.419-1.221a.741.741,0,1,1,.5-1.4q1.708.606,3.424,1.221l1.032.37a.741.741,0,0,1-.251,1.438Zm86-2.6a.742.742,0,0,1-.4-1.366c1.3-.83,2.606-1.712,3.89-2.624a.742.742,0,1,1,.859,1.209c-1.3.926-2.631,1.823-3.949,2.665A.733.733,0,0,1,1994.833,1898.271Zm-154.3-.08a.743.743,0,0,1-.363-1.39c1.4-.778,2.832-1.506,4.27-2.164a.742.742,0,1,1,.617,1.349c-1.4.641-2.8,1.352-4.164,2.111A.747.747,0,0,1,1840.53,1898.191Zm59.394-.469a.709.709,0,0,1-.242-.041c-1.618-.557-3.081-1.044-4.474-1.495a.742.742,0,1,1,.457-1.412c1.4.452,2.873.945,4.5,1.5a.742.742,0,0,1-.242,1.444Zm-9.007-2.895a.8.8,0,0,1-.208-.029c-1.564-.459-3.09-.875-4.536-1.241a.742.742,0,0,1,.363-1.438c1.463.37,3.008.791,4.589,1.255a.741.741,0,0,1-.208,1.453Zm-41.793-.563a.741.741,0,0,1-.251-1.438c1.509-.546,3.046-1.028,4.575-1.436a.742.742,0,0,1,.382,1.434c-1.487.4-2.984.866-4.454,1.4A.761.761,0,0,1,1849.123,1894.265Zm153.421-1.462a.743.743,0,0,1-.46-1.328c1.214-.945,2.438-1.944,3.642-2.969a.742.742,0,0,1,.96,1.132c-1.219,1.037-2.459,2.048-3.687,3.008A.73.73,0,0,1,2002.544,1892.8Zm-120.8-.276a.764.764,0,0,1-.148-.015c-1.571-.319-3.124-.587-4.616-.8a.741.741,0,1,1,.21-1.467c1.521.217,3.1.493,4.7.817a.741.741,0,0,1-.147,1.467Zm-23.493-.694a.742.742,0,0,1-.128-1.473c1.562-.273,3.16-.481,4.756-.617a.743.743,0,0,1,.126,1.48c-1.553.13-3.107.333-4.626.6A.776.776,0,0,1,1858.255,1891.833Zm14.138-.633-.056,0c-1.545-.116-3.085-.174-4.58-.174h-.087a.742.742,0,0,1,0-1.484h.089c1.533,0,3.109.061,4.69.179a.742.742,0,0,1-.055,1.482Zm137.351-4.521a.742.742,0,0,1-.5-1.289c1.134-1.044,2.277-2.137,3.4-3.247a.742.742,0,1,1,1.044,1.054c-1.134,1.125-2.29,2.229-3.438,3.286A.74.74,0,0,1,2009.744,1886.678Zm6.719-6.652a.742.742,0,0,1-.539-1.25c1.062-1.125,2.127-2.292,3.175-3.475a.742.742,0,1,1,1.109.984c-1.056,1.194-2.135,2.374-3.2,3.508A.745.745,0,0,1,2016.463,1880.026Zm6.274-7.075a.741.741,0,0,1-.568-1.219c.989-1.185,1.988-2.413,2.97-3.653a.742.742,0,1,1,1.163.921c-.989,1.25-2,2.488-2.993,3.685A.747.747,0,0,1,2022.738,1872.951Zm5.866-7.416a.743.743,0,0,1-.592-1.187c.929-1.24,1.867-2.519,2.783-3.8a.742.742,0,1,1,1.207.863c-.924,1.293-1.867,2.582-2.8,3.83A.747.747,0,0,1,2028.6,1865.536Z" transform="translate(-1813.208 -1860.234)" fill="#f4f7fa"/>
        </g>
        <g id="Grupo_102457" data-name="Grupo 102457" transform="translate(223.827)">
          <path id="Trazado_162989" data-name="Trazado 162989" d="M1905.022,1861.236a.741.741,0,0,1-.612-1.158q.66-.973,1.32-1.963a.742.742,0,0,1,1.235.822q-.664,1-1.33,1.976A.742.742,0,0,1,1905.022,1861.236Z" transform="translate(-1904.281 -1857.784)" fill="#f4f7fa"/>
        </g>
      </g>
      <g id="Grupo_102459" data-name="Grupo 102459" transform="translate(1810.591 2018.487)">
        <circle id="Elipse_5280" data-name="Elipse 5280" cx="4.135" cy="4.135" r="4.135" transform="translate(0.741 0.742)" fill="#f4f7fa"/>
        <path id="Trazado_162990" data-name="Trazado 162990" d="M1814.878,1896.8a4.877,4.877,0,1,1,4.877-4.877A4.883,4.883,0,0,1,1814.878,1896.8Zm0-8.27a3.394,3.394,0,1,0,3.393,3.393A3.4,3.4,0,0,0,1814.878,1888.534Z" transform="translate(-1810.001 -1887.05)" fill="#c1cad4"/>
      </g>
      <g id="Grupo_102460" data-name="Grupo 102460" transform="translate(1870.214 1978.971)">
        <circle id="Elipse_5281" data-name="Elipse 5281" cx="4.135" cy="4.135" r="4.135" transform="translate(0.742 0.741)" fill="#f4f7fa"/>
        <path id="Trazado_162991" data-name="Trazado 162991" d="M1839.537,1880.461a4.877,4.877,0,1,1,4.877-4.877A4.883,4.883,0,0,1,1839.537,1880.461Zm0-8.272a3.394,3.394,0,1,0,3.4,3.4A3.4,3.4,0,0,0,1839.537,1872.189Z" transform="translate(-1834.66 -1870.707)" fill="#c1cad4"/>
      </g>
      <g id="Grupo_102461" data-name="Grupo 102461" transform="translate(1952.604 1999.074)">
        <circle id="Elipse_5282" data-name="Elipse 5282" cx="4.135" cy="4.135" r="4.135" transform="translate(0.743 0.742)" fill="#f4f7fa"/>
        <path id="Trazado_162992" data-name="Trazado 162992" d="M1873.614,1888.775a4.877,4.877,0,1,1,4.877-4.877A4.884,4.884,0,0,1,1873.614,1888.775Zm0-8.27a3.394,3.394,0,1,0,3.392,3.392A3.4,3.4,0,0,0,1873.614,1880.505Z" transform="translate(-1868.735 -1879.021)" fill="#c1cad4"/>
      </g>
      <g id="Grupo_102462" data-name="Grupo 102462" transform="translate(2035.741 1943.59)">
        <circle id="Elipse_5283" data-name="Elipse 5283" cx="4.135" cy="4.135" r="4.135" transform="translate(0.743 0.741)" fill="#f4f7fa"/>
        <path id="Trazado_162993" data-name="Trazado 162993" d="M1908,1865.828a4.877,4.877,0,1,1,4.877-4.877A4.883,4.883,0,0,1,1908,1865.828Zm0-8.271a3.394,3.394,0,1,0,3.393,3.395A3.4,3.4,0,0,0,1908,1857.556Z" transform="translate(-1903.119 -1856.074)" fill="#c1cad4"/>
      </g>
      <g id="Grupo_102463" data-name="Grupo 102463" transform="translate(1949.831 1972.015)">
        <path id="Trazado_162994" data-name="Trazado 162994" d="M1882.893,1875.482c0,6.708-7.652,14.957-7.652,14.957s-7.653-7.994-7.653-14.957a7.653,7.653,0,1,1,15.305,0Z" transform="translate(-1867.588 -1867.83)" fill="#fff"/>
        <circle id="Elipse_5284" data-name="Elipse 5284" cx="4.767" cy="4.767" r="4.767" transform="matrix(0.16, -0.987, 0.987, 0.16, 2.182, 11.596)" fill="url(#linear-gradient-14)"/>
      </g>
    </g>
  </g>
</svg>
