<svg xmlns="http://www.w3.org/2000/svg" width="88.322" height="72.127" viewBox="0 0 88.322 72.127">
  <g id="Page-1" transform="translate(-203.345 -212.99)">
    <g id="_075---Handshake" data-name="075---Handshake" transform="translate(203.345 212.99)">
      <path id="Shape" d="M284.139,243.824l-1.663.971a20.321,20.321,0,0,0-5.623,4.769,18.015,18.015,0,0,0-2.532-.176,17.638,17.638,0,0,0-17.133,13.394h-.015L236.537,274.7a3.68,3.68,0,1,1-3.68-6.373l-1.28.736a3.678,3.678,0,0,1-3.725-6.344l-1.221.707a3.68,3.68,0,1,1-3.68-6.374l2.37-1.369a3.51,3.51,0,0,1-1.663.4,3.68,3.68,0,0,1-1.84-6.859l.942-.545-8.287-4.783h-.014l13.983-24.228,2.606,1.516a8.472,8.472,0,0,0,7.874.294,8.423,8.423,0,0,1,7.86.279l9.818,5.681h.014l13.542-7.83Z" transform="translate(-205.138 -214.058)" fill="#ffe0b2"/>
      <path id="Shape-2" data-name="Shape" d="M280.232,219.611l-3.31,1.913,12.877,22.3-1.663.971a20.377,20.377,0,0,0-5.556,4.694,17.356,17.356,0,0,1,4.349.075,20.321,20.321,0,0,1,5.623-4.769l1.663-.971Z" transform="translate(-215.214 -214.058)" fill="#dfc49c"/>
      <path id="Shape-3" data-name="Shape" d="M273.381,255.115a17.638,17.638,0,0,0-17.133,13.394h-.015L236.007,280.2a3.654,3.654,0,0,0,2.152.736,3.7,3.7,0,0,0,1.854-.5l20.636-11.923h.015a17.635,17.635,0,0,1,14.968-13.247,18.029,18.029,0,0,0-2.251-.147Z" transform="translate(-208.614 -219.785)" fill="#dfc49c"/>
      <path id="Shape-4" data-name="Shape" d="M301.226,239.36l-6.374,3.68-13.983-24.213,6.373-3.68a2.944,2.944,0,0,1,4.018,1.074l11.04,19.12a2.944,2.944,0,0,1-1.074,4.018Z" transform="translate(-215.851 -213.275)" fill="#02a9f4"/>
      <path id="Shape-5" data-name="Shape" d="M303.362,235.342l-11.04-19.12a2.944,2.944,0,0,0-4.018-1.074l-.851.491a2.885,2.885,0,0,1,.454.589l11.04,19.12a2.944,2.944,0,0,1-1.074,4.012l-3.062,1.766,1.1,1.914,6.374-3.68A2.944,2.944,0,0,0,303.362,235.342Z" transform="translate(-216.913 -213.275)" fill="#0377bc"/>
      <path id="Shape-6" data-name="Shape" d="M226.933,218.9l-13.983,24.228-6.374-3.68a2.944,2.944,0,0,1-1.074-4.018l6.035-10.436,3.474-6.035,1.531-2.649a2.944,2.944,0,0,1,4.018-1.089Z" transform="translate(-203.63 -213.287)" fill="#02a9f4"/>
      <path id="Shape-7" data-name="Shape" d="M221.431,215.218a2.932,2.932,0,0,0-3.556.5l5.514,3.184L210.51,241.214l3.312,1.913L227.8,218.9Z" transform="translate(-204.501 -213.287)" fill="#0377bc"/>
      <path id="Shape-8" data-name="Shape" d="M300.1,272.778a17.663,17.663,0,1,1-34.811-4.269h.015a17.638,17.638,0,0,1,17.133-13.394,18.015,18.015,0,0,1,2.532.176A17.674,17.674,0,0,1,300.1,272.778Z" transform="translate(-213.254 -219.785)" fill="#60a917"/>
      <path id="Shape-9" data-name="Shape" d="M287.942,255.291a17.171,17.171,0,0,0-4.7-.029c.092.012.188.017.281.029a17.663,17.663,0,0,1-.324,35,17.663,17.663,0,0,0,4.739-35Z" transform="translate(-216.227 -219.785)" fill="#549414"/>
      <path id="Shape-10" data-name="Shape" d="M279.158,285.066a1.474,1.474,0,0,1-1.041-.431l-5.888-5.888a1.472,1.472,0,0,1,2.082-2.082l4.847,4.848,13.679-13.679a1.472,1.472,0,0,1,2.081,2.082L280.2,284.635a1.471,1.471,0,0,1-1.041.431Z" transform="translate(-214.391 -221.771)" fill="#f5f5f5"/>
      <path id="Shape-11" data-name="Shape" d="M272.528,285.117a19.135,19.135,0,0,0,5.374-37.488c2.028-1.9,2.649-2.133,11.553-7.275a4.415,4.415,0,0,0,1.62-6.034L280.035,215.2A4.416,4.416,0,0,0,274,213.582l-19.189,11.085-9.085-5.244a9.894,9.894,0,0,0-9.242-.343,6.937,6.937,0,0,1-6.489-.242c-2.8-1.619-2.265-1.314-8.988-5.2a4.416,4.416,0,0,0-6.03,1.634l-1.525,2.649A1.472,1.472,0,1,0,216,219.4l1.526-2.649a1.474,1.474,0,0,1,2.011-.552l5.1,2.944-12.512,21.673-5.1-2.944a1.463,1.463,0,0,1-.532-2l6.035-10.436a1.472,1.472,0,0,0-2.55-1.472l-6.045,10.435a4.415,4.415,0,0,0,1.62,6.034c10.58,6.108,9.506,5.478,12.666,7.3a5.1,5.1,0,0,0,.969,8.012,5.127,5.127,0,0,0,3.642,8.586,5.117,5.117,0,0,0,4.958,5.629,5.132,5.132,0,0,0,7.691,4.951l17.986-10.39a19.122,19.122,0,0,0,19.061,20.6Zm16.192-19.135a16.191,16.191,0,1,1-16.192-16.191A16.191,16.191,0,0,1,288.72,265.982Zm-13.248-49.846a1.472,1.472,0,0,1,2.008.538l11.04,19.12a1.472,1.472,0,0,1-.538,2.01l-5.1,2.944L270.372,219.08Zm-41.46,56.227a2.246,2.246,0,0,1-3.026-.8,2.208,2.208,0,0,1,.778-3l19.79-11.426a1.472,1.472,0,1,0-1.472-2.55l-21.033,12.143a2.209,2.209,0,1,1-2.207-3.827l21.033-12.143a1.472,1.472,0,1,0-1.472-2.55c-23.076,13.324-21.269,12.231-21.83,12.718-.642.116-1.041.673-2.152.382a2.208,2.208,0,0,1-.525-4.047l22.02-12.745a1.472,1.472,0,0,0-1.472-2.548l-19.526,11.3a2.218,2.218,0,0,1-3.191-2.5,2.188,2.188,0,0,1,1.03-1.343l8.573-4.937a1.473,1.473,0,0,0-1.473-2.551l-6.886,3.975-6.287-3.632,12.512-21.665,1.336.772a9.9,9.9,0,0,0,9.242.344,6.929,6.929,0,0,1,6.49.242c29.438,16.993,27.424,15.7,27.268,15.953a5.859,5.859,0,0,1-7.948,2l-17.81-10.281a1.472,1.472,0,0,0-2.013.54c-1.576,2.757-3.21,5.768-6.41,6.637-2.54.692-5.794-.091-9.672-2.33a1.472,1.472,0,1,0-1.472,2.55c4.582,2.649,8.595,3.526,11.923,2.62,3.918-1.068,6.034-4.277,7.455-6.73l16.526,9.541c7.613,4.4,15.861-4.434,10.988-7.252l-15.344-8.856,10.063-5.815,12.512,21.673a21.943,21.943,0,0,0-5.862,4.722,19.149,19.149,0,0,0-20.323,13.78Z" transform="translate(-203.345 -212.99)"/>
    </g>
  </g>
</svg>
