<svg xmlns="http://www.w3.org/2000/svg" xmlns:xlink="http://www.w3.org/1999/xlink" width="41.145" height="24" viewBox="0 0 41.145 24">
  <defs>
    <clipPath id="clip-path">
      <rect id="Rectángulo_25764" data-name="Rectángulo 25764" width="41.145" height="24" fill="none"/>
    </clipPath>
  </defs>
  <g id="SLOVAKIA" transform="translate(-669.004 -256.105)">
    <g id="Grupo_99986" data-name="Grupo 99986" transform="translate(669.004 256.105)">
      <g id="Grupo_99985" data-name="Grupo 99985">
        <g id="Grupo_99984" data-name="Grupo 99984" clip-path="url(#clip-path)">
          <rect id="Rectángulo_25760" data-name="Rectángulo 25760" width="41.145" height="24" fill="#fff"/>
          <rect id="Rectángulo_25761" data-name="Rectángulo 25761" width="41.145" height="16" transform="translate(0 8)" fill="#2534a4"/>
          <rect id="Rectángulo_25762" data-name="Rectángulo 25762" width="41.145" height="8.001" transform="translate(0 15.999)" fill="#bc0030"/>
          <g id="Grupo_99983" data-name="Grupo 99983">
            <g id="Grupo_99982" data-name="Grupo 99982" clip-path="url(#clip-path)">
              <path id="Trazado_158790" data-name="Trazado 158790" d="M674.186,260.707c-.478.037-.344.623-.4.954a18.271,18.271,0,0,0,.292,6.9,7.727,7.727,0,0,0,3.477,4.25,5.613,5.613,0,0,0,1.212.614,5.948,5.948,0,0,0,1.271-.648,7.714,7.714,0,0,0,3.417-4.216c.713-2.272.46-4.681.284-7.011-.026-.322.022-.878-.452-.843Z" transform="translate(-667.965 -255.066)" fill="#fff"/>
              <path id="Trazado_158791" data-name="Trazado 158791" d="M678.7,261v12c-5.551-2.688-4.943-7.139-4.579-12Zm0,0v12c5.55-2.688,4.942-7.139,4.578-12Z" transform="translate(-667.899 -255)" fill="#bc0030"/>
              <path id="Trazado_158792" data-name="Trazado 158792" d="M678.9,263.91a9.207,9.207,0,0,1,1.751.221,2.157,2.157,0,0,1,0-1.453,9.112,9.112,0,0,1-1.751.221h-1.3a9.136,9.136,0,0,1-1.751-.221,2.157,2.157,0,0,1,0,1.453,9.232,9.232,0,0,1,1.751-.221Z" transform="translate(-667.456 -254.621)" fill="#fff"/>
              <path id="Trazado_158793" data-name="Trazado 158793" d="M679.5,265.694a9.06,9.06,0,0,1,1.751.219,2.158,2.158,0,0,1,0-1.453,9.062,9.062,0,0,1-1.751.221h-2.3a9.038,9.038,0,0,1-1.753-.221,2.187,2.187,0,0,1,0,1.453,9.037,9.037,0,0,1,1.753-.219Z" transform="translate(-667.549 -254.218)" fill="#fff"/>
              <path id="Trazado_158794" data-name="Trazado 158794" d="M677.215,261.374a8.569,8.569,0,0,1,.227,1.743v7.433h1.014v-7.433a8.822,8.822,0,0,1,.222-1.743,2.156,2.156,0,0,1-1.463,0" transform="translate(-667.149 -254.915)" fill="#fff"/>
              <path id="Trazado_158795" data-name="Trazado 158795" d="M676.151,267.388a1.185,1.185,0,0,0-1.185,1.182.73.73,0,0,0,.012.148,7.085,7.085,0,0,0,.8.978,1.252,1.252,0,0,0,.369.061,1.185,1.185,0,1,0,0-2.37" transform="translate(-667.657 -253.557)" fill="#2534a4"/>
              <path id="Trazado_158796" data-name="Trazado 158796" d="M678.092,266.815a1.51,1.51,0,1,0,1.515,1.513,1.518,1.518,0,0,0-1.515-1.513" transform="translate(-667.293 -253.686)" fill="#2534a4"/>
              <path id="Trazado_158797" data-name="Trazado 158797" d="M679.91,267.388a1.185,1.185,0,1,0,0,2.37,1.225,1.225,0,0,0,.369-.061,6.741,6.741,0,0,0,.809-.981.888.888,0,0,0,.017-.146,1.192,1.192,0,0,0-1.2-1.182" transform="translate(-666.808 -253.557)" fill="#2534a4"/>
              <path id="Trazado_158798" data-name="Trazado 158798" d="M675.123,268.683a8.757,8.757,0,0,0,3.3,2.581,8.712,8.712,0,0,0,3.294-2.581Z" transform="translate(-667.621 -253.264)" fill="#2534a4"/>
            </g>
          </g>
        </g>
      </g>
    </g>
  </g>
</svg>
