<svg xmlns="http://www.w3.org/2000/svg" xmlns:xlink="http://www.w3.org/1999/xlink" width="134.719" height="134.244" viewBox="0 0 134.719 134.244">
  <defs>
    <linearGradient id="linear-gradient" x1="1.13" y1="1.295" x2="0.236" y2="0.19" gradientUnits="objectBoundingBox">
      <stop offset="0" stop-color="#b37cff"/>
      <stop offset="1" stop-color="#c97df8"/>
    </linearGradient>
    <linearGradient id="linear-gradient-2" x1="-6.434" y1="5.93" x2="-7.774" y2="7.004" gradientUnits="objectBoundingBox">
      <stop offset="0" stop-color="#7f23cb"/>
      <stop offset="1" stop-color="#4c246d"/>
    </linearGradient>
    <linearGradient id="linear-gradient-3" x1="-46.926" y1="3.192" x2="-48.825" y2="4.14" gradientUnits="objectBoundingBox">
      <stop offset="0" stop-color="#a737d5"/>
      <stop offset="1" stop-color="#a21bef"/>
    </linearGradient>
    <linearGradient id="linear-gradient-4" y1="0.5" x2="1" y2="0.5" gradientUnits="objectBoundingBox">
      <stop offset="0" stop-color="#2b3582"/>
      <stop offset="1" stop-color="#150e42"/>
    </linearGradient>
    <linearGradient id="linear-gradient-5" x1="0.782" y1="0.229" x2="-1.47" y2="2.326" gradientUnits="objectBoundingBox">
      <stop offset="0" stop-color="#fdf53f"/>
      <stop offset="0.665" stop-color="#e57a58"/>
      <stop offset="1" stop-color="#d93c65"/>
    </linearGradient>
    <linearGradient id="linear-gradient-6" x1="0.527" y1="-36.208" x2="0.511" y2="-14.767" gradientUnits="objectBoundingBox">
      <stop offset="0" stop-color="#a737d5"/>
      <stop offset="1" stop-color="#ef497a"/>
    </linearGradient>
    <linearGradient id="linear-gradient-7" x1="-553.782" y1="-11.076" x2="-552.294" y2="-8.643" xlink:href="#linear-gradient-4"/>
    <linearGradient id="linear-gradient-8" x1="0.114" y1="0.892" x2="1.256" y2="-0.38" gradientUnits="objectBoundingBox">
      <stop offset="0" stop-color="#f9b776"/>
      <stop offset="1" stop-color="#f47960"/>
    </linearGradient>
    <linearGradient id="linear-gradient-9" x1="-1769.042" y1="0.5" x2="-1768.042" y2="0.5" xlink:href="#linear-gradient-6"/>
    <linearGradient id="linear-gradient-10" x1="-1278.253" y1="1.602" x2="-1277.218" y2="-1.187" xlink:href="#linear-gradient-8"/>
    <linearGradient id="linear-gradient-11" x1="-1098.707" y1="0.5" x2="-1097.707" y2="0.5" xlink:href="#linear-gradient-6"/>
    <linearGradient id="linear-gradient-12" x1="-570.21" y1="1.698" x2="-569.746" y2="-1.193" xlink:href="#linear-gradient-8"/>
    <linearGradient id="linear-gradient-13" x1="0.48" y1="0.4" x2="1.959" y2="-2.078" xlink:href="#linear-gradient-6"/>
    <linearGradient id="linear-gradient-14" x1="-485.181" y1="-0.331" x2="-486.166" y2="0.684" xlink:href="#linear-gradient-5"/>
    <linearGradient id="linear-gradient-15" x1="0.788" y1="-1.012" x2="0.348" y2="1.409" xlink:href="#linear-gradient-8"/>
    <linearGradient id="linear-gradient-16" x1="-1180.565" y1="-92.858" x2="-1179.032" y2="-95.112" xlink:href="#linear-gradient-8"/>
    <linearGradient id="linear-gradient-17" x1="-982.835" y1="-107.326" x2="-980.253" y2="-102.014" xlink:href="#linear-gradient-4"/>
    <linearGradient id="linear-gradient-18" x1="-4459.983" y1="-295.062" x2="-4454.189" y2="-302.204" xlink:href="#linear-gradient-8"/>
    <linearGradient id="linear-gradient-19" x1="-2.061" y1="3.248" x2="1.23" y2="-0.303" xlink:href="#linear-gradient-8"/>
    <linearGradient id="linear-gradient-20" x1="0.615" y1="-0.223" x2="1.318" y2="-3.727" xlink:href="#linear-gradient-8"/>
    <linearGradient id="linear-gradient-21" x1="0" y1="0.5" x2="1" y2="0.5" xlink:href="#linear-gradient-8"/>
    <linearGradient id="linear-gradient-22" x1="3.141" y1="-3.692" x2="-3.686" y2="7.055" gradientUnits="objectBoundingBox">
      <stop offset="0" stop-color="#cb236d"/>
      <stop offset="1" stop-color="#4c246d"/>
    </linearGradient>
    <linearGradient id="linear-gradient-23" x1="2.141" y1="-5.258" x2="-1.399" y2="7.184" xlink:href="#linear-gradient-22"/>
    <linearGradient id="linear-gradient-24" x1="-12.963" y1="-57.6" x2="-14.314" y2="-44.63" xlink:href="#linear-gradient-6"/>
    <linearGradient id="linear-gradient-25" x1="-13.094" y1="-57.656" x2="-14.456" y2="-44.635" xlink:href="#linear-gradient-6"/>
    <linearGradient id="linear-gradient-26" x1="-13.012" y1="-57.236" x2="-14.363" y2="-44.27" xlink:href="#linear-gradient-6"/>
    <linearGradient id="linear-gradient-27" x1="-13.17" y1="-57.125" x2="-14.533" y2="-44.103" xlink:href="#linear-gradient-6"/>
    <linearGradient id="linear-gradient-28" x1="-13.083" y1="-56.729" x2="-14.434" y2="-43.758" xlink:href="#linear-gradient-6"/>
    <linearGradient id="linear-gradient-29" x1="-13.143" y1="-57.313" x2="-14.505" y2="-44.291" xlink:href="#linear-gradient-6"/>
    <linearGradient id="linear-gradient-30" x1="0.101" y1="-0.67" x2="0.875" y2="1.6" xlink:href="#linear-gradient-3"/>
    <linearGradient id="linear-gradient-31" x1="7.177" y1="36.366" x2="7.539" y2="38.115" xlink:href="#linear-gradient-3"/>
  </defs>
  <g id="Grupo_102806" data-name="Grupo 102806" transform="translate(-1778.026 -1805)">
    <path id="Trazado_163755" data-name="Trazado 163755" d="M1895.686,1919.887a48.183,48.183,0,0,1-7.361,6.2c-24.012,17.229-52.425,12.207-58.463,10.98-8.917-1.811-26.152-5.311-38.614-19.966-18.854-22.17-15.917-57.1-1.294-80.157,2.675-4.217,16.8-27.626,45.524-31.38,17.379-2.271,37.639,2.311,52.311,14.6C1918.584,1845.965,1916.392,1898.088,1895.686,1919.887Z" transform="translate(0.005)" opacity="0.3" fill="url(#linear-gradient)"/>
    <g id="Grupo_102869" data-name="Grupo 102869" transform="translate(1858.006 1818.998)">
      <g id="Grupo_102867" data-name="Grupo 102867" transform="translate(0 33.491)">
        <path id="Trazado_163756" data-name="Trazado 163756" d="M1892.338,1841.137a.767.767,0,0,0-1.446-.35c-3.552,6.837-13.431,24.475-24.661,32.585-18.285,13.206-33.714,37.625-27.043,53.331C1839.188,1926.7,1892.911,1927.979,1892.338,1841.137Z" transform="translate(-1837.604 -1840.375)" fill="url(#linear-gradient-2)"/>
        <path id="Trazado_163757" data-name="Trazado 163757" d="M1887.05,1848.483c-.069.234-.142.42-.215.626l-.223.6-.46,1.192c-.312.793-.636,1.581-.96,2.369q-.982,2.36-2.016,4.7c-1.382,3.116-2.847,6.194-4.359,9.25s-3.1,6.073-4.756,9.053-3.36,5.935-5.159,8.834a163.583,163.583,0,0,1-11.77,16.735c-2.169,2.635-4.409,5.216-6.794,7.659a88.363,88.363,0,0,1-7.57,6.884.134.134,0,0,1-.172-.205h0a98.774,98.774,0,0,0,7.339-7.061c2.332-2.469,4.517-5.072,6.633-7.726s4.12-5.4,6.064-8.185,3.77-5.652,5.579-8.527c3.6-5.767,6.883-11.724,10-17.765q2.332-4.537,4.485-9.162,1.083-2.309,2.118-4.641l1.013-2.34.5-1.176.24-.589c.075-.195.16-.4.219-.575l.011-.028a.132.132,0,0,1,.169-.083A.134.134,0,0,1,1887.05,1848.483Z" transform="translate(-1835.911 -1837.657)" fill="#fff" opacity="0.43"/>
      </g>
      <g id="Grupo_102868" data-name="Grupo 102868" transform="translate(2.821)">
        <path id="Trazado_163758" data-name="Trazado 163758" d="M1870,1815.947a.733.733,0,0,0-1.42.073c-1.394,7.24-5.641,26.109-13.727,36.61-13.165,17.1-20.654,43.7-10.252,56.286C1844.6,1908.915,1894.213,1895.428,1870,1815.947Z" transform="translate(-1839.706 -1815.427)" fill="url(#linear-gradient-3)"/>
        <path id="Trazado_163759" data-name="Trazado 163759" d="M1867.556,1823.452c0,.234-.016.426-.025.632l-.042.612-.1,1.219c-.07.812-.152,1.625-.235,2.435q-.254,2.432-.565,4.858c-.416,3.234-.921,6.457-1.473,9.671s-1.186,6.416-1.892,9.6-1.462,6.361-2.32,9.51a156.719,156.719,0,0,1-6.23,18.558c-1.271,3.008-2.622,5.985-4.143,8.877a84.7,84.7,0,0,1-5.066,8.377.131.131,0,0,1-.219-.145h0a94.558,94.558,0,0,0,4.8-8.479c1.465-2.9,2.759-5.883,3.974-8.894s2.3-6.076,3.328-9.159,1.914-6.211,2.79-9.342c1.725-6.269,3.113-12.628,4.328-19.02q.9-4.794,1.615-9.624.363-2.414.677-4.834l.292-2.423.134-1.212.061-.605c.016-.2.036-.414.044-.587v-.03a.13.13,0,0,1,.259,0Z" transform="translate(-1837.814 -1812.723)" fill="#fff" opacity="0.43"/>
      </g>
    </g>
    <g id="Grupo_102870" data-name="Grupo 102870" transform="translate(1800.981 1820.848)">
      <path id="Trazado_163760" data-name="Trazado 163760" d="M1796.579,1822.839c-.467,18.864-1.984,83.933-1.26,106.991a4.63,4.63,0,0,0,4.478,4.484c12.081.395,46.836,1.4,66.6.568a7.8,7.8,0,0,0,7.475-7.625c.411-19.8,1.317-75.491-.836-101a6.363,6.363,0,0,0-5.709-5.8c-13.159-1.317-48.1-4.533-65.177-3.426A5.962,5.962,0,0,0,1796.579,1822.839Z" transform="translate(-1795.126 -1816.805)" fill="url(#linear-gradient-4)"/>
      <path id="Trazado_163761" data-name="Trazado 163761" d="M1800.428,1826.969c-.66,15.449-2.741,66.846-2.081,85.851a5.377,5.377,0,0,0,5.061,5.186c11.424.669,40.728,2.144,57.486.8a6.043,6.043,0,0,0,5.547-5.7c.85-15.761,3.288-63.62,2.656-82.411a5.943,5.943,0,0,0-5.411-5.715c-12.36-1.11-44.1-3.751-58.344-2.973A5.2,5.2,0,0,0,1800.428,1826.969Z" transform="translate(-1794.066 -1815.073)" fill="url(#linear-gradient-5)"/>
      <path id="Trazado_163762" data-name="Trazado 163762" d="M1818.45,1819.715h0a1.087,1.087,0,0,0,1.03,1.087c2.853.149,10.893.572,14.485.78a1.085,1.085,0,0,0,1.129-1.292l-.023-.119a1.088,1.088,0,0,0-.968-.878,139.333,139.333,0,0,0-14.611-.666A1.086,1.086,0,0,0,1818.45,1819.715Z" transform="translate(-1787.139 -1816.191)" fill="#fff" opacity="0.5"/>
    </g>
    <path id="Trazado_163763" data-name="Trazado 163763" d="M1855.328,1867.4l-48.573-.933c-1.584-.03-2.776,1.815-2.646,4.1a2.954,2.954,0,0,0,3.333,2.92l47.52.38c.973-.015,1.841-1.446,1.948-3.207S1856.315,1867.421,1855.328,1867.4Z" transform="translate(8.929 21.049)" fill="#fff" opacity="0.8"/>
    <path id="Trazado_163764" data-name="Trazado 163764" d="M1855.426,1878.5l-48.573-.932c-1.584-.031-2.776,1.814-2.646,4.1a2.953,2.953,0,0,0,3.333,2.92l47.52.38c.973-.015,1.841-1.444,1.948-3.206S1856.413,1878.52,1855.426,1878.5Z" transform="translate(8.962 24.85)" fill="#fff" opacity="0.8"/>
    <path id="Trazado_163765" data-name="Trazado 163765" d="M1833.914,1868.752l-26.362-.274c-.859-.01-1.505.486-1.432,1.1s.968.791,1.81.785l25.788.125a1.056,1.056,0,0,0,1.055-.859A.806.806,0,0,0,1833.914,1868.752Z" transform="translate(9.619 21.737)" fill="url(#linear-gradient-6)"/>
    <g id="Grupo_102873" data-name="Grupo 102873" transform="translate(1782.437 1868.295)">
      <path id="Trazado_163766" data-name="Trazado 163766" d="M1796.814,1856.645s-1.428.694-1.69,1.493c-.211.639-1.79.722-1.945,1.98a1.444,1.444,0,0,1-1.21,1.27c-1.612.247-4.1,1.085-4.494,3.884-.3,2.137.787,2.947,1.929,3.227a1.619,1.619,0,0,1,1.228,1.87c-.164.813.079,1.753,1.489,2.5,3.156,1.666,6.308-3.946,6.308-3.946l.646-9.8Z" transform="translate(-1779.219 -1850.609)" fill="url(#linear-gradient-7)"/>
      <path id="Trazado_163767" data-name="Trazado 163767" d="M1810.731,1854.915s-6.3,9.968-13.8,11.893c0,0,1.46,4.159,2.588,4.635,0,0,9.219-7.692,11.588-15.112Z" transform="translate(-1775.962 -1851.202)" fill="url(#linear-gradient-8)"/>
      <path id="Trazado_163768" data-name="Trazado 163768" d="M1785.67,1902.57l-.205,1.679a.693.693,0,0,1-.608.607,10.873,10.873,0,0,1-2.247.035.594.594,0,0,1-.5-.771,6.09,6.09,0,0,1,1.126-2.194h1.862A.574.574,0,0,1,1785.67,1902.57Z" transform="translate(-1781.047 -1835.103)" fill="url(#linear-gradient-9)"/>
      <path id="Trazado_163769" data-name="Trazado 163769" d="M1796.539,1887.754l.314,1.85s-1.052,10.663-1.24,14.929a3.336,3.336,0,0,0,.5,1.9l1.83,2.972-4.652-2.745-.093-.568.761-1.047-1-11.947a3.667,3.667,0,0,1,.416-2.027l.962-1.807Z" transform="translate(-1777.328 -1839.957)" fill="url(#linear-gradient-10)"/>
      <path id="Trazado_163770" data-name="Trazado 163770" d="M1798.274,1905.329h-1.485a.892.892,0,0,1-.709-.348c-.463-.6-1.422-1.775-1.881-1.805-.618-.042-.538,2.153-.538,2.153h-.345l-.439-2.727a1.615,1.615,0,0,1,.847-1.687h0a2.281,2.281,0,0,0,.906,1.5c.765.462,3.113,2.114,3.113,2.114a2.165,2.165,0,0,1,.6.016A.393.393,0,0,1,1798.274,1905.329Z" transform="translate(-1777.358 -1835.449)" fill="url(#linear-gradient-11)"/>
      <path id="Trazado_163771" data-name="Trazado 163771" d="M1793.719,1888.605s-6.167,11.7-7.148,14.37a25.728,25.728,0,0,0-1.337,5.111c-.02.329-.429.646-1.56.646a1.084,1.084,0,0,1-1.01-.46.658.658,0,0,1-.026-.638c.357-.722,1.489-3.03,1.909-4.076.5-1.25,1.577-6.912,2.168-8.882a10.441,10.441,0,0,1,3.83-6.071S1792.311,1886.875,1793.719,1888.605Z" transform="translate(-1780.881 -1839.928)" fill="url(#linear-gradient-12)"/>
      <path id="Trazado_163772" data-name="Trazado 163772" d="M1794.4,1877.728c1.591-6.742-2.439-10.554-2.439-10.554,2.543-2.441,7.177-3.552,7.177-3.552s4.421,3.233,3.9,5.763c-.306,1.482-3.106,8.882-3.106,8.882A6.154,6.154,0,0,1,1794.4,1877.728Z" transform="translate(-1777.665 -1848.221)" fill="url(#linear-gradient-13)"/>
      <path id="Trazado_163773" data-name="Trazado 163773" d="M1792.1,1877.466c.647-1.951,3.526-3.337,3.526-3.337a6.154,6.154,0,0,0,5.527.538,11.1,11.1,0,0,1,.18,4.282c-.4,2.063-2.916,15.32-2.916,15.32-3.963.8-10.056-.808-10.056-.808C1790.889,1888.98,1791.455,1879.417,1792.1,1877.466Z" transform="translate(-1778.896 -1844.622)" fill="url(#linear-gradient-14)"/>
      <path id="Trazado_163774" data-name="Trazado 163774" d="M1795.488,1860.444l-1.294,5.81c-.124.511.342.427.86.33a3.445,3.445,0,0,0,2.3-1.148.623.623,0,0,0,.067-.22l.556-4.029a.723.723,0,0,0-.424-.76l-1.073-.475A.723.723,0,0,0,1795.488,1860.444Z" transform="translate(-1776.907 -1849.498)" fill="url(#linear-gradient-15)"/>
      <g id="Grupo_102871" data-name="Grupo 102871" transform="translate(16.02 3.409)">
        <path id="Trazado_163775" data-name="Trazado 163775" d="M1797.859,1856.41a5.736,5.736,0,0,1,1.969,3.306c.591,2.374-.371,3.226-1.356,3.174a4.571,4.571,0,0,1-3.653-2.061C1793.58,1859.127,1796.054,1855.271,1797.859,1856.41Z" transform="translate(-1792.82 -1854.17)" fill="url(#linear-gradient-16)"/>
        <path id="Trazado_163776" data-name="Trazado 163776" d="M1796.492,1860.391s-.5-3.4,2.32-2.881l.571.595a1.84,1.84,0,0,0-.148-2.735c-1.529-1.176-3.651-.875-4.826,1.267s-1.6,3.647-.616,4.979,1.724.189,1.724.189-.451-1.152-.077-1.646.858.287.858.287Z" transform="translate(-1793.245 -1854.689)" fill="url(#linear-gradient-17)"/>
        <path id="Trazado_163777" data-name="Trazado 163777" d="M1795.749,1859.495s-.248-1.75-1.142-1.25.322,1.635.809,2.02Z" transform="translate(-1792.888 -1853.502)" fill="url(#linear-gradient-18)"/>
      </g>
      <g id="Grupo_102872" data-name="Grupo 102872" transform="translate(33.737)">
        <path id="Trazado_163778" data-name="Trazado 163778" d="M1807.431,1857.915c.02.205-.745.348-.988-.529.067-.381.185-2.047.478-2.306a30.8,30.8,0,0,1,4.325-2.93.568.568,0,0,1-.1.785l-1.384.933a5.581,5.581,0,0,1,.379,1.447,1.616,1.616,0,0,1-.408,1.13c-.275.315-.647.721-.98,1.03A1.6,1.6,0,0,1,1807.431,1857.915Z" transform="translate(-1806.443 -1852.149)" fill="url(#linear-gradient-19)"/>
        <path id="Trazado_163779" data-name="Trazado 163779" d="M1807.969,1856.663l-.211-.086a11.865,11.865,0,0,1,1.014-2.016.489.489,0,0,0,.176-.325.228.228,0,0,0-.073-.144l-1.12.6-.5.775-.191-.122.526-.824,1.31-.7.059.047a.5.5,0,0,1,.208.356.671.671,0,0,1-.238.5A11.338,11.338,0,0,0,1807.969,1856.663Z" transform="translate(-1806.229 -1851.577)" fill="url(#linear-gradient-20)"/>
      </g>
      <path id="Trazado_163780" data-name="Trazado 163780" d="M1795.606,1866.3s-7.16,14.7-9.754,15.987a29.173,29.173,0,0,0-4.243.762.421.421,0,0,0,.016.81,6.381,6.381,0,0,0,4.685-.363s-.916,1.372-.381,1.906c0,0,1.22-1.448,1.678-1.906.4-.4,7.735-8.4,10.819-13.219a3.19,3.19,0,0,0-.1-1.976C1797.93,1867.312,1797.047,1865.736,1795.606,1866.3Z" transform="translate(-1781.312 -1847.344)" fill="url(#linear-gradient-21)"/>
    </g>
    <g id="Grupo_102875" data-name="Grupo 102875" transform="translate(1819.147 1835.713)">
      <circle id="Elipse_5302" data-name="Elipse 5302" cx="21.478" cy="21.478" r="21.478" fill="#fff" opacity="0.8"/>
      <g id="Grupo_102874" data-name="Grupo 102874" transform="translate(8.982 7.482)">
        <path id="Trazado_163781" data-name="Trazado 163781" d="M1833.231,1839.716c0,3.665-2.971,7.621-6.634,7.621s-6.636-3.956-6.636-7.621a6.646,6.646,0,0,1,13.27,0Z" transform="translate(-1813.768 -1833.452)" fill="url(#linear-gradient-22)"/>
        <path id="Trazado_163782" data-name="Trazado 163782" d="M1819.942,1857.363h16.2a3.918,3.918,0,0,0,3.733-2.725l.873-2.724a3.919,3.919,0,0,0-2.366-4.875c-6.593-2.41-13.408-2.1-20.391.223a3.9,3.9,0,0,0-2.5,4.733l.671,2.473A3.919,3.919,0,0,0,1819.942,1857.363Z" transform="translate(-1815.348 -1829.37)" fill="url(#linear-gradient-23)"/>
      </g>
    </g>
    <path id="Trazado_163783" data-name="Trazado 163783" d="M1810.522,1880.589a1.77,1.77,0,0,1-1.777,1.709,1.686,1.686,0,0,1-1.671-1.749,1.769,1.769,0,0,1,1.781-1.709A1.685,1.685,0,0,1,1810.522,1880.589Z" transform="translate(9.947 25.286)" fill="url(#linear-gradient-24)"/>
    <path id="Trazado_163784" data-name="Trazado 163784" d="M1815.323,1880.643a1.762,1.762,0,0,1-1.765,1.7,1.676,1.676,0,0,1-1.656-1.743,1.758,1.758,0,0,1,1.768-1.7A1.677,1.677,0,0,1,1815.323,1880.643Z" transform="translate(11.6 25.307)" fill="url(#linear-gradient-25)"/>
    <path id="Trazado_163785" data-name="Trazado 163785" d="M1820.483,1880.731a1.77,1.77,0,0,1-1.777,1.709,1.685,1.685,0,0,1-1.671-1.749,1.77,1.77,0,0,1,1.781-1.71A1.687,1.687,0,0,1,1820.483,1880.731Z" transform="translate(13.358 25.334)" fill="url(#linear-gradient-26)"/>
    <path id="Trazado_163786" data-name="Trazado 163786" d="M1830.67,1880.849a1.762,1.762,0,0,1-1.765,1.7,1.675,1.675,0,0,1-1.656-1.742,1.76,1.76,0,0,1,1.768-1.7A1.677,1.677,0,0,1,1830.67,1880.849Z" transform="translate(16.855 25.377)" fill="url(#linear-gradient-27)"/>
    <path id="Trazado_163787" data-name="Trazado 163787" d="M1835.831,1880.936a1.772,1.772,0,0,1-1.779,1.709,1.686,1.686,0,0,1-1.671-1.749,1.77,1.77,0,0,1,1.781-1.709A1.686,1.686,0,0,1,1835.831,1880.936Z" transform="translate(18.613 25.405)" fill="url(#linear-gradient-28)"/>
    <path id="Trazado_163788" data-name="Trazado 163788" d="M1825.284,1880.783a1.762,1.762,0,0,1-1.765,1.7,1.675,1.675,0,0,1-1.656-1.742,1.759,1.759,0,0,1,1.768-1.7A1.676,1.676,0,0,1,1825.284,1880.783Z" transform="translate(15.011 25.355)" fill="url(#linear-gradient-29)"/>
    <g id="Grupo_102884" data-name="Grupo 102884" transform="translate(1778.026 1824.261)">
      <g id="Grupo_102879" data-name="Grupo 102879" transform="translate(0 9.919)">
        <g id="Grupo_102876" data-name="Grupo 102876">
          <path id="Trazado_163789" data-name="Trazado 163789" d="M1779.595,1844.841a.17.17,0,0,1-.158-.091c-.1-.2-.2-.4-.3-.6a.166.166,0,0,1,.084-.22c.207-.093.239.14.514.675a.165.165,0,0,1-.075.223A.19.19,0,0,1,1779.595,1844.841Z" transform="translate(-1777.649 -1820.857)" fill="#eac4f9"/>
          <path id="Trazado_163790" data-name="Trazado 163790" d="M1778.764,1848.071c-.128-.408-.24-.827-.336-1.243a.167.167,0,0,1,.129-.2c.25-.052.154.141.531,1.344a.168.168,0,0,1-.113.208A.171.171,0,0,1,1778.764,1848.071Zm-.666-3.306c-.042-.427-.066-.865-.073-1.283a.17.17,0,0,1,.34-.005c.007.417.031.839.07,1.258a.169.169,0,0,1-.337.031Zm.03-3.37c.048-.424.114-.851.2-1.271a.169.169,0,0,1,.333.062c-.081.411-.145.831-.193,1.246A.169.169,0,0,1,1778.128,1841.4Zm.842-3.085a.165.165,0,0,1-.107-.209c.135-.407.29-.812.459-1.207a.17.17,0,0,1,.314.128c-.167.387-.318.784-.451,1.183A.173.173,0,0,1,1778.97,1838.311Zm1.363-3.063a.163.163,0,0,1-.063-.227c.219-.37.454-.737.7-1.089a.168.168,0,0,1,.281.187c-.241.346-.472.7-.687,1.069A.171.171,0,0,1,1780.332,1835.247Zm2.087-2.688a.164.164,0,0,1-.119-.042.162.162,0,0,1-.013-.234c.29-.321.6-.632.91-.929a.173.173,0,0,1,.24,0,.163.163,0,0,1,0,.235c-.309.29-.608.6-.893.91A.171.171,0,0,1,1782.42,1832.559Zm2.514-2.258a.168.168,0,0,1-.142-.067.164.164,0,0,1,.035-.232c.35-.255.714-.5,1.085-.728a.171.171,0,0,1,.233.051.164.164,0,0,1-.053.23c-.361.223-.72.463-1.062.714A.176.176,0,0,1,1784.934,1830.3Zm2.772-1.807a.164.164,0,0,1,.082-.22c.4-.181.8-.347,1.215-.5a.166.166,0,1,1,.118.31c-.4.146-.8.31-1.189.487A.171.171,0,0,1,1787.706,1828.495Zm11.4-.9c-1.236-.318-1.442-.217-1.395-.464a.169.169,0,0,1,.2-.134c.429.075.862.169,1.283.278A.166.166,0,1,1,1799.1,1827.595Zm-8.184-.221a.168.168,0,0,1,.128-.2c.424-.1.859-.179,1.291-.244a.166.166,0,1,1,.051.329c-.423.063-.85.144-1.266.239A.172.172,0,0,1,1790.921,1827.374Zm4.845-.284c-1.273-.063-1.457.076-1.463-.176a.171.171,0,0,1,.167-.17c.438-.012.879-.007,1.316.015a.166.166,0,1,1-.019.332Z" transform="translate(-1778.026 -1826.736)" fill="#eac4f9"/>
          <path id="Trazado_163791" data-name="Trazado 163791" d="M1795.858,1828.2c-.52-.231-.8-.266-.71-.475a.172.172,0,0,1,.221-.091c.548.218.806.287.714.483A.192.192,0,0,1,1795.858,1828.2Z" transform="translate(-1772.168 -1826.433)" fill="#eac4f9"/>
        </g>
        <g id="Grupo_102877" data-name="Grupo 102877" transform="translate(9.074 10.221)">
          <path id="Trazado_163792" data-name="Trazado 163792" d="M1802.408,1835.3a.17.17,0,0,1-.167-.11c-.074-.206-.153-.412-.236-.615a.164.164,0,0,1,.1-.215.17.17,0,0,1,.22.091c.085.207.165.418.242.627a.165.165,0,0,1-.1.212A.139.139,0,0,1,1802.408,1835.3Z" transform="translate(-1778.893 -1834.35)" fill="#eac4f9"/>
          <path id="Trazado_163793" data-name="Trazado 163793" d="M1792.02,1856.37c-.471.005-.948-.008-1.417-.04a.168.168,0,0,1-.157-.178c.02-.257.192-.1,1.569-.113a.168.168,0,0,1,.172.164A.172.172,0,0,1,1792.02,1856.37Zm2.1-.318c-.039-.255.172-.138,1.506-.443a.168.168,0,0,1,.2.123.166.166,0,0,1-.127.2c-.457.1-.925.192-1.391.26A.168.168,0,0,1,1794.121,1856.052Zm-5.794-.038c-.46-.1-.921-.211-1.372-.345a.166.166,0,0,1-.113-.207c.078-.247.208-.052,1.556.227a.166.166,0,0,1,.13.2A.169.169,0,0,1,1788.327,1856.014Zm9.522-.734a.168.168,0,0,1-.165-.106.165.165,0,0,1,.1-.215c.429-.161.859-.344,1.273-.54a.171.171,0,0,1,.227.077.165.165,0,0,1-.079.221c-.423.2-.859.387-1.3.552A.152.152,0,0,1,1797.848,1855.28Zm3.261-1.653a.17.17,0,0,1-.148-.074.163.163,0,0,1,.047-.229c.383-.251.76-.52,1.121-.8a.173.173,0,0,1,.239.027.164.164,0,0,1-.027.232c-.369.287-.753.563-1.145.818A.17.17,0,0,1,1801.109,1853.627Zm2.814-2.312a.176.176,0,0,1-.125-.045.165.165,0,0,1-.005-.235c.318-.326.627-.67.917-1.02a.173.173,0,0,1,.239-.025.165.165,0,0,1,.026.234c-.3.358-.611.709-.936,1.04A.17.17,0,0,1,1803.923,1851.315Zm2.231-2.857a.168.168,0,0,1-.094-.023.164.164,0,0,1-.058-.228c.239-.385.463-.787.667-1.191a.173.173,0,0,1,.228-.075.165.165,0,0,1,.077.223c-.208.412-.438.82-.681,1.215A.168.168,0,0,1,1806.154,1848.458Zm1.482-3.27c-.25-.081-.048-.2.278-1.514a.169.169,0,0,1,.329.078c-.11.447-.242.9-.392,1.332A.171.171,0,0,1,1807.636,1845.188Zm.808-3.505c-.262-.026-.093-.188-.071-1.536a.17.17,0,0,1,.34,0c-.007.46-.035.926-.082,1.383A.17.17,0,0,1,1808.445,1841.683Zm-.012-3.59a.169.169,0,0,1-.176-.146c-.055-.448-.129-.9-.222-1.338a.166.166,0,0,1,.133-.2.169.169,0,0,1,.2.129c.094.448.17.907.226,1.365a.167.167,0,0,1-.148.185Z" transform="translate(-1784.084 -1833.645)" fill="#eac4f9"/>
          <path id="Trazado_163794" data-name="Trazado 163794" d="M1785.5,1850.313c-.538-.243-.792-.323-.69-.517s.282-.033.832.215a.164.164,0,0,1,.082.22A.171.171,0,0,1,1785.5,1850.313Z" transform="translate(-1784.785 -1829.091)" fill="#eac4f9"/>
        </g>
        <g id="Grupo_102878" data-name="Grupo 102878" transform="translate(3.928 3.725)">
          <path id="Trazado_163795" data-name="Trazado 163795" d="M1786.875,1852.633l2.1-1.212a10.8,10.8,0,0,0,3.271,1.032c.991,2.1.912,2.318,1.172,2.3l2.915-.229a.2.2,0,0,0,.177-.146l.611-2.306a10.711,10.711,0,0,0,3.063-1.533l2.267.867a.2.2,0,0,0,.226-.055l1.9-2.177a.192.192,0,0,0,.02-.225l-1.236-2.052a10.236,10.236,0,0,0,1.062-3.2l2.233-.954a.2.2,0,0,0,.121-.195l-.231-2.849a.2.2,0,0,0-.149-.173l-2.359-.592a10.28,10.28,0,0,0-1.562-2.992c.824-2.184,1.032-2.274.835-2.439-2.214-1.776-2.226-2-2.455-1.87l-2.1,1.212a10.82,10.82,0,0,0-3.272-1.032c-.991-2.1-.912-2.319-1.172-2.3-2.892.278-3.027.129-3.093.376l-.609,2.306a10.749,10.749,0,0,0-3.063,1.533c-2.207-.792-2.323-1.008-2.494-.811-1.839,2.187-2.051,2.181-1.917,2.4l1.236,2.05a10.259,10.259,0,0,0-1.063,3.2c-2.112.956-2.373.89-2.352,1.15.279,2.812.125,2.957.38,3.02l2.357.594a10.329,10.329,0,0,0,1.564,2.991c-.821,2.177-1.034,2.274-.835,2.439C1786.632,1852.541,1786.645,1852.766,1786.875,1852.633Z" transform="translate(-1780.952 -1829.511)" fill="url(#linear-gradient-30)"/>
          <path id="Trazado_163796" data-name="Trazado 163796" d="M1788.6,1840.521a2.78,2.78,0,0,1,1.787-3.536,2.864,2.864,0,0,1,3.613,1.741,2.78,2.78,0,0,1-1.787,3.534h0A2.864,2.864,0,0,1,1788.6,1840.521Zm3.531,1.5h0Zm-1.582-4.567a2.28,2.28,0,0,0-1.467,2.9,2.353,2.353,0,0,0,2.968,1.43,2.284,2.284,0,0,0,1.467-2.9A2.353,2.353,0,0,0,1790.547,1837.457Z" transform="translate(-1778.386 -1827.002)" fill="#fff"/>
          <path id="Trazado_163797" data-name="Trazado 163797" d="M1792.739,1847.836h0a7.43,7.43,0,0,1-1.258-.055.252.252,0,0,1-.22-.236.225.225,0,0,1,0-.043.254.254,0,0,1,.286-.215,6.938,6.938,0,0,0,1.447.035h0a6.723,6.723,0,0,0,6.258-6.887c0-.09-.009-.181-.016-.272a6.8,6.8,0,0,0-13.556,1.071,7.539,7.539,0,0,0,1.283,3.459.257.257,0,0,1-.463.156,7.029,7.029,0,0,1-1.345-3.867c-.244-6.2,7.222-9.741,12.047-5.724a7.029,7.029,0,0,1,2.541,4.865c.008.1.013.2.017.3a7,7,0,0,1-1.744,4.908,7.331,7.331,0,0,1-4.983,2.493C1792.938,1847.827,1792.839,1847.832,1792.739,1847.836Z" transform="translate(-1779.514 -1828.128)" fill="#fff"/>
        </g>
      </g>
      <g id="Grupo_102883" data-name="Grupo 102883" transform="translate(24.541)">
        <path id="Trazado_163798" data-name="Trazado 163798" d="M1802.467,1833.264a5.885,5.885,0,0,0,1.859.443l.639,1.193c.071.133.158.023,1.72-.2.144-.023.071-.13.325-1.424a5.884,5.884,0,0,0,1.628-1l1.3.394c.144.043.127-.1,1.074-1.359a.111.111,0,0,0,0-.129l-.779-1.109a5.862,5.862,0,0,0,.443-1.859c1.128-.634,1.276-.608,1.251-.754-.283-1.584-.2-1.671-.348-1.7l-1.334-.232a5.88,5.88,0,0,0-1-1.628l.393-1.3c.043-.145-.1-.129-1.359-1.075-.117-.084-.137.039-1.236.777a5.924,5.924,0,0,0-1.861-.443l-.639-1.193c-.07-.133-.158-.023-1.72.2-.142.023-.07.125-.325,1.424a5.894,5.894,0,0,0-1.628,1l-1.3-.393a.115.115,0,0,0-.124.042l-.952,1.317a.11.11,0,0,0,0,.129l.779,1.109a5.974,5.974,0,0,0-.443,1.859c-1.128.635-1.274.61-1.251.755.283,1.584.2,1.671.349,1.7l1.333.232a5.892,5.892,0,0,0,1,1.628c-.349,1.246-.471,1.332-.352,1.419l1.317.952C1801.348,1834.128,1801.373,1834,1802.467,1833.264Z" transform="translate(-1795.872 -1818.915)" fill="url(#linear-gradient-31)"/>
        <g id="Grupo_102882" data-name="Grupo 102882">
          <path id="Trazado_163799" data-name="Trazado 163799" d="M1801.8,1827.058a1.7,1.7,0,1,1,2.227.887h0A1.7,1.7,0,0,1,1801.8,1827.058Zm2.128.655h0Zm-1.665-.855a1.192,1.192,0,0,0,1.564.623h0a1.19,1.19,0,1,0-1.564-.623Z" transform="translate(-1794.474 -1817.518)" fill="#fff"/>
          <g id="Grupo_102880" data-name="Grupo 102880">
            <path id="Trazado_163800" data-name="Trazado 163800" d="M1798.256,1830.72c-.157-.165-.309-.338-.454-.515a.17.17,0,0,1,.026-.238c.181-.148.268.1.672.52a.169.169,0,1,1-.244.233Z" transform="translate(-1795.808 -1815.726)" fill="#eac4f9"/>
            <path id="Trazado_163801" data-name="Trazado 163801" d="M1797.115,1831.87a8.773,8.773,0,0,1-.478-1.3.168.168,0,0,1,.323-.092c.333,1.184.634,1.36.377,1.477A.167.167,0,0,1,1797.115,1831.87Zm-.635-3.364a.17.17,0,0,1-.172-.167,9.079,9.079,0,0,1,.083-1.385.169.169,0,0,1,.334.047,8.545,8.545,0,0,0-.081,1.333A.173.173,0,0,1,1796.48,1828.506Zm.664-3.49a.192.192,0,0,1-.071-.013.169.169,0,0,1-.091-.22,9,9,0,0,1,.628-1.236.169.169,0,0,1,.289.175,8.634,8.634,0,0,0-.606,1.191A.167.167,0,0,1,1797.145,1825.016Zm2-2.939a.168.168,0,0,1-.123-.289,8.634,8.634,0,0,1,1.07-.883.168.168,0,1,1,.193.275,8.535,8.535,0,0,0-1.03.85A.166.166,0,0,1,1799.141,1822.077Zm2.841-2a.17.17,0,0,1,.1-.218,8.984,8.984,0,0,1,1.334-.384.169.169,0,0,1,.067.33,8.564,8.564,0,0,0-1.282.369A.168.168,0,0,1,1801.981,1820.075Z" transform="translate(-1796.307 -1819.306)" fill="#eac4f9"/>
            <path id="Trazado_163802" data-name="Trazado 163802" d="M1803.964,1819.747c-.612-.082-.828-.012-.816-.239a.168.168,0,0,1,.177-.16c.227.012.457.035.683.064a.169.169,0,1,1-.044.334Z" transform="translate(-1793.964 -1819.348)" fill="#eac4f9"/>
          </g>
          <g id="Grupo_102881" data-name="Grupo 102881" transform="translate(7.174 3.247)">
            <path id="Trazado_163803" data-name="Trazado 163803" d="M1808.291,1822.571c-.349-.513-.545-.625-.367-.768a.168.168,0,0,1,.236.025c.142.177.279.364.408.553a.168.168,0,1,1-.278.189Z" transform="translate(-1799.526 -1821.766)" fill="#eac4f9"/>
            <path id="Trazado_163804" data-name="Trazado 163804" d="M1803.774,1835.4c-.043-.277.259-.122,1.419-.489a.168.168,0,0,1,.1.321,8.9,8.9,0,0,1-1.329.31A.168.168,0,0,1,1803.774,1835.4Zm3.3-1.144a.168.168,0,0,1,.055-.232c1.044-.644,1.114-.968,1.3-.754a.167.167,0,0,1-.018.236,8.79,8.79,0,0,1-1.1.805A.168.168,0,0,1,1807.076,1834.252Zm2.587-2.348c-.23-.161.088-.27.628-1.364a.168.168,0,0,1,.3.149,8.844,8.844,0,0,1-.7,1.173A.168.168,0,0,1,1809.663,1831.9Zm1.456-3.176c-.275-.059-.023-.283.044-1.5a.169.169,0,0,1,.337.019,8.839,8.839,0,0,1-.181,1.353A.169.169,0,0,1,1811.12,1828.728Zm-.1-3.627c-.239-1.2-.518-1.384-.254-1.479a.168.168,0,0,1,.216.1,8.708,8.708,0,0,1,.368,1.315.166.166,0,0,1-.132.2A.17.17,0,0,1,1811.015,1825.1Z" transform="translate(-1800.925 -1821.135)" fill="#eac4f9"/>
            <path id="Trazado_163805" data-name="Trazado 163805" d="M1802.469,1832.645c-.227-.023-.455-.055-.679-.1a.167.167,0,0,1-.135-.195c.042-.231.264-.1.85-.044a.169.169,0,0,1-.035.336Z" transform="translate(-1801.651 -1818.186)" fill="#eac4f9"/>
          </g>
          <path id="Trazado_163806" data-name="Trazado 163806" d="M1803.785,1831.167a.253.253,0,1,1,.018-.5,3.7,3.7,0,0,0,.78-.042,3.668,3.668,0,1,0-4.248-3.481c.073,1.841,1.245,2.222.826,2.574a.255.255,0,0,1-.357-.031,4.175,4.175,0,1,1,3.859,1.437h0A4.19,4.19,0,0,1,1803.785,1831.167Z" transform="translate(-1795.102 -1818.157)" fill="#fff"/>
        </g>
      </g>
    </g>
  </g>
</svg>
