<svg xmlns="http://www.w3.org/2000/svg" width="86" height="86" viewBox="0 0 86 86">
  <g id="Bag" transform="translate(-213 -213)">
    <path id="Trazado_163451" data-name="Trazado 163451" d="M290.4,267.467l-.416,2.866-2.651,18.634H224.667l-2.651-18.634-.416-2.866h11.467v11.466a4.3,4.3,0,0,0,4.3,4.3h37.266a4.3,4.3,0,0,0,4.3-4.3V267.467Z" fill="#ff9811"/>
    <path id="Trazado_163452" data-name="Trazado 163452" d="M278.933,278.933V281.8a4.3,4.3,0,0,1-4.3,4.3H237.367a4.3,4.3,0,0,1-4.3-4.3v-2.867a4.3,4.3,0,0,0,4.3,4.3h37.266A4.3,4.3,0,0,0,278.933,278.933Z" fill="#ee8700"/>
    <path id="Trazado_163453" data-name="Trazado 163453" d="M244.533,273.2v10.033h-7.166a4.3,4.3,0,0,1-4.3-4.3V273.2Z" fill="#e6e7e8"/>
    <path id="Trazado_163454" data-name="Trazado 163454" d="M256,273.2h11.467v10.033H256Z" fill="#e6e7e8"/>
    <path id="Trazado_163455" data-name="Trazado 163455" d="M244.533,273.2H256v10.033H244.533Z" fill="#e6e7e8"/>
    <path id="Trazado_163456" data-name="Trazado 163456" d="M287.333,288.967l-.531,3.683a5.733,5.733,0,0,1-5.676,4.917H230.874a5.733,5.733,0,0,1-5.676-4.917l-.531-3.683Z" fill="#787680"/>
    <g id="Grupo_102743" data-name="Grupo 102743">
      <path id="Trazado_163457" data-name="Trazado 163457" d="M278.933,273.2v5.733a4.3,4.3,0,0,1-4.3,4.3h-7.166V273.2Z" fill="#e6e7e8"/>
      <path id="Trazado_163458" data-name="Trazado 163458" d="M267.467,261.733V273.2h11.466V261.733Z" fill="#e6e7e8"/>
      <path id="Trazado_163459" data-name="Trazado 163459" d="M244.533,261.733V273.2H256V261.733Z" fill="#e6e7e8"/>
      <path id="Trazado_163460" data-name="Trazado 163460" d="M233.067,261.733V273.2h11.466V261.733Z" fill="#e6e7e8"/>
      <path id="Trazado_163461" data-name="Trazado 163461" d="M256,261.733V273.2h11.467V261.733Z" fill="#e6e7e8"/>
      <path id="Trazado_163462" data-name="Trazado 163462" d="M256,250.267v11.466h11.467V250.267Z" fill="#e6e7e8"/>
      <path id="Trazado_163463" data-name="Trazado 163463" d="M244.533,250.267v11.466H256V250.267Z" fill="#e6e7e8"/>
      <path id="Trazado_163464" data-name="Trazado 163464" d="M267.467,250.267v11.466h11.466V250.267Z" fill="#e6e7e8"/>
      <path id="Trazado_163465" data-name="Trazado 163465" d="M233.067,250.267v11.466h11.466V250.267Z" fill="#e6e7e8"/>
      <path id="Trazado_163466" data-name="Trazado 163466" d="M256,240.233h11.467v10.034H256Z" fill="#e6e7e8"/>
      <path id="Trazado_163467" data-name="Trazado 163467" d="M278.933,244.533v5.734H267.467V240.233h7.166A4.3,4.3,0,0,1,278.933,244.533Z" fill="#e6e7e8"/>
      <path id="Trazado_163468" data-name="Trazado 163468" d="M244.533,240.233v10.034H233.067v-5.734a4.3,4.3,0,0,1,4.3-4.3Z" fill="#e6e7e8"/>
      <path id="Trazado_163469" data-name="Trazado 163469" d="M244.533,240.233H256v10.034H244.533Z" fill="#e6e7e8"/>
    </g>
    <path id="Trazado_163470" data-name="Trazado 163470" d="M286.86,233.611,290.4,256H278.933V244.533a4.3,4.3,0,0,0-4.3-4.3H237.367a4.3,4.3,0,0,0-4.3,4.3V256H221.6l3.54-22.389a5.719,5.719,0,0,1,5.662-4.844h50.4a5.719,5.719,0,0,1,5.662,4.844Z" fill="#ff9811"/>
    <path id="Trazado_163471" data-name="Trazado 163471" d="M276.067,220.167v8.6h-5.734V221.6a1.432,1.432,0,0,0-1.433-1.433H243.1a1.432,1.432,0,0,0-1.433,1.433v7.167h-5.734v-8.6a5.734,5.734,0,0,1,5.734-5.734h28.666A5.734,5.734,0,0,1,276.067,220.167Z" fill="#57565c"/>
    <path id="Trazado_163472" data-name="Trazado 163472" d="M297.567,258.867V264.6a2.877,2.877,0,0,1-2.867,2.867H278.933V256H294.7A2.876,2.876,0,0,1,297.567,258.867Z" fill="#00b39d"/>
    <path id="Trazado_163473" data-name="Trazado 163473" d="M233.067,261.733v5.734H217.3a2.877,2.877,0,0,1-2.867-2.867v-5.733A2.876,2.876,0,0,1,217.3,256h15.767Z" fill="#00b39d"/>
    <path id="Trazado_163474" data-name="Trazado 163474" d="M233.067,267.467v2.866H222.016l-.416-2.866Z" fill="#ee8700"/>
    <path id="Trazado_163475" data-name="Trazado 163475" d="M290.4,267.467l-.416,2.866H278.933v-2.866Z" fill="#ee8700"/>
    <path id="Trazado_163476" data-name="Trazado 163476" d="M294.7,254.567h-3.076l-3.344-21.185a7.129,7.129,0,0,0-7.079-6.049h-3.7v-7.166A7.176,7.176,0,0,0,270.333,213H241.667a7.176,7.176,0,0,0-7.167,7.167v7.166h-3.7a7.129,7.129,0,0,0-7.079,6.049l-3.344,21.185H217.3a4.3,4.3,0,0,0-4.3,4.3V264.6a4.3,4.3,0,0,0,4.3,4.3h3.056l3.423,23.947A7.2,7.2,0,0,0,230.872,299h50.256a7.2,7.2,0,0,0,7.093-6.153l3.423-23.947H294.7a4.3,4.3,0,0,0,4.3-4.3v-5.733A4.3,4.3,0,0,0,294.7,254.567Zm-57.333-34.4a4.3,4.3,0,0,1,4.3-4.3h28.666a4.3,4.3,0,0,1,4.3,4.3v7.166h-2.866V221.6a2.868,2.868,0,0,0-2.867-2.867H243.1a2.868,2.868,0,0,0-2.867,2.867v5.733h-2.866Zm31.533,7.166H243.1V221.6h25.8Zm-42.348,6.5A4.279,4.279,0,0,1,230.8,230.2h50.4a4.279,4.279,0,0,1,4.248,3.629l3.274,20.738h-8.356V244.533a5.734,5.734,0,0,0-5.734-5.733H237.367a5.734,5.734,0,0,0-5.734,5.733v10.034h-8.356ZM254.567,260.3h-8.6v-8.6h8.6Zm2.866-8.6h8.6v8.6h-8.6Zm-2.866,11.467v8.6h-8.6v-8.6Zm2.866,0h8.6v8.6h-8.6Zm11.467,0h8.6v8.6h-8.6Zm0-2.867v-8.6h8.6v8.6Zm8.6-11.467h-8.6v-7.166h5.733a2.866,2.866,0,0,1,2.867,2.866Zm-11.467,0h-8.6v-7.166h8.6Zm-11.466,0h-8.6v-7.166h8.6Zm-11.467,0h-8.6v-4.3a2.866,2.866,0,0,1,2.867-2.866H243.1Zm-8.6,2.867h8.6v8.6h-8.6Zm0,11.467h8.6v8.6h-8.6Zm0,11.466h8.6V281.8h-5.733a2.866,2.866,0,0,1-2.867-2.867Zm11.467,0h8.6V281.8h-8.6Zm11.466,0h8.6V281.8h-8.6Zm11.467,0h8.6v4.3a2.866,2.866,0,0,1-2.867,2.867H268.9ZM215.867,264.6v-5.733a1.433,1.433,0,0,1,1.433-1.434h14.333v8.6H217.3A1.432,1.432,0,0,1,215.867,264.6Zm65.261,31.533H230.872a4.316,4.316,0,0,1-4.255-3.692l-.287-2.041h59.34l-.287,2.041A4.316,4.316,0,0,1,281.128,296.133Zm4.956-8.6H225.916L223.253,268.9h8.38v10.033a5.734,5.734,0,0,0,5.734,5.734h37.266a5.734,5.734,0,0,0,5.734-5.734V268.9h8.38ZM296.133,264.6a1.432,1.432,0,0,1-1.433,1.433H280.367v-8.6H294.7a1.433,1.433,0,0,1,1.433,1.434Z"/>
  </g>
</svg>
