<svg xmlns="http://www.w3.org/2000/svg" width="74.504" height="86" viewBox="0 0 74.504 86">
  <g id="Grupo_99768" data-name="Grupo 99768" transform="translate(-218.748 -213)">
    <g id="Grupo_100432" data-name="Grupo 100432">
      <path id="Trazado_159596" data-name="Trazado 159596" d="M287.92,297.741H224.08a4.072,4.072,0,0,1-4.073-4.072V258.8a2.8,2.8,0,0,1,2.8-2.8H289.2a2.8,2.8,0,0,1,2.8,2.8v34.871a4.072,4.072,0,0,1-4.073,4.073Z" fill="#c1e9af"/>
    </g>
    <g id="Grupo_100433" data-name="Grupo 100433">
      <path id="Trazado_159597" data-name="Trazado 159597" d="M289.2,256H222.8a2.8,2.8,0,0,1-2.8-2.8V218.331a4.072,4.072,0,0,1,4.073-4.072h63.841a4.072,4.072,0,0,1,4.072,4.072V253.2A2.8,2.8,0,0,1,289.2,256Z" fill="#e8edf2"/>
    </g>
    <g id="Grupo_100434" data-name="Grupo 100434">
      <path id="Trazado_159598" data-name="Trazado 159598" d="M291.993,258.8v34.87a4.071,4.071,0,0,1-4.072,4.073h-3.357a4.071,4.071,0,0,0,4.072-4.073V258.8a2.8,2.8,0,0,0-2.8-2.8H289.2a2.8,2.8,0,0,1,2.8,2.8Z" fill="#ade194"/>
    </g>
    <g id="Grupo_100435" data-name="Grupo 100435">
      <path id="Trazado_159599" data-name="Trazado 159599" d="M291.993,218.332V253.2a2.8,2.8,0,0,1-2.8,2.8H285.84a2.8,2.8,0,0,0,2.8-2.8v-34.87a4.071,4.071,0,0,0-4.072-4.073h3.357A4.072,4.072,0,0,1,291.993,218.332Z" fill="#d9e7ec"/>
    </g>
    <g id="Grupo_100436" data-name="Grupo 100436">
      <path id="Trazado_159600" data-name="Trazado 159600" d="M248.265,292.281H227.407a1.052,1.052,0,0,1-1.052-1.052V262.513a1.052,1.052,0,0,1,1.052-1.053h20.858a1.052,1.052,0,0,1,1.052,1.053v28.716a1.052,1.052,0,0,1-1.052,1.052Z" fill="#e8edf2"/>
    </g>
    <g id="Grupo_100437" data-name="Grupo 100437">
      <path id="Trazado_159601" data-name="Trazado 159601" d="M249.317,262.512v28.717a1.053,1.053,0,0,1-1.053,1.052h-3.356a1.053,1.053,0,0,0,1.052-1.052V262.512a1.053,1.053,0,0,0-1.052-1.052h3.356A1.053,1.053,0,0,1,249.317,262.512Z" fill="#d9e7ec"/>
    </g>
    <g id="Grupo_100445" data-name="Grupo 100445">
      <g id="Grupo_100440" data-name="Grupo 100440">
        <g id="Grupo_100438" data-name="Grupo 100438">
          <path id="Trazado_159602" data-name="Trazado 159602" d="M245.234,273.543v10.032a4.712,4.712,0,0,1-4.711,4.712h-5.374a4.712,4.712,0,0,1-4.712-4.712V273.543l7.4-5.626Z" fill="#d8a69d"/>
        </g>
        <g id="Grupo_100439" data-name="Grupo 100439">
          <path id="Trazado_159603" data-name="Trazado 159603" d="M245.235,273.542v10.033a4.712,4.712,0,0,1-4.712,4.712h-2.9a4.712,4.712,0,0,0,4.711-4.712V271.337Z" fill="#ae847f"/>
        </g>
      </g>
      <g id="Grupo_100441" data-name="Grupo 100441">
        <path id="Trazado_159604" data-name="Trazado 159604" d="M237.836,283.758a6.956,6.956,0,0,1-6.957-6.956v-6.679h13.913V276.8a6.956,6.956,0,0,1-6.956,6.956Z" fill="#fed2a4"/>
      </g>
      <g id="Grupo_100442" data-name="Grupo 100442">
        <path id="Trazado_159605" data-name="Trazado 159605" d="M244.792,270.123V276.8a6.964,6.964,0,0,1-8.406,6.8,6.96,6.96,0,0,0,5.506-6.8v-6.679Z" fill="#ffbd86"/>
      </g>
      <g id="Grupo_100443" data-name="Grupo 100443">
        <path id="Trazado_159606" data-name="Trazado 159606" d="M233.743,272.286a6.629,6.629,0,0,1-3.306,2.5v-2.366a6.971,6.971,0,0,1,6.971-6.971h.856a6.97,6.97,0,0,1,6.97,6.971v2.366c-5.206,0-9.3-2.914-10.159-5.156l-.559,1.267A8.336,8.336,0,0,1,233.743,272.286Z" fill="#d8a69d"/>
      </g>
      <g id="Grupo_100444" data-name="Grupo 100444">
        <path id="Trazado_159607" data-name="Trazado 159607" d="M245.235,272.425v2.366a13.908,13.908,0,0,1-2.9-.306v-2.06a6.972,6.972,0,0,0-5.948-6.9,7.167,7.167,0,0,1,1.022-.074h.856a6.97,6.97,0,0,1,6.971,6.97Z" fill="#ae847f"/>
      </g>
    </g>
    <g id="Grupo_100446" data-name="Grupo 100446">
      <path id="Trazado_159608" data-name="Trazado 159608" d="M293.252,218.331A5.338,5.338,0,0,0,287.92,213H237.6a1.259,1.259,0,0,0,0,2.518H287.92a2.817,2.817,0,0,1,2.814,2.813V253.2a1.54,1.54,0,0,1-1.538,1.538H222.8a1.54,1.54,0,0,1-1.538-1.538V218.331a2.817,2.817,0,0,1,2.814-2.813h7.609a1.259,1.259,0,0,0,0-2.518H224.08a5.338,5.338,0,0,0-5.332,5.331V253.2a4.039,4.039,0,0,0,1.123,2.8,4.041,4.041,0,0,0-1.123,2.8v34.872A5.338,5.338,0,0,0,224.08,299h63.84a5.338,5.338,0,0,0,5.332-5.331v-9.336a1.259,1.259,0,1,0-2.518,0v9.336a2.817,2.817,0,0,1-2.814,2.813H224.08a2.817,2.817,0,0,1-2.814-2.813V258.8a1.54,1.54,0,0,1,1.538-1.538H289.2a1.54,1.54,0,0,1,1.538,1.538v19.715a1.259,1.259,0,1,0,2.518,0V258.8a4.039,4.039,0,0,0-1.123-2.8,4.039,4.039,0,0,0,1.123-2.8V218.331Z"/>
      <path id="Trazado_159609" data-name="Trazado 159609" d="M235.149,289.545h5.374a5.977,5.977,0,0,0,5.97-5.97v-11.15a8.238,8.238,0,0,0-8.229-8.229h-.856a8.238,8.238,0,0,0-8.23,8.229v11.15a5.977,5.977,0,0,0,5.971,5.97Zm-3.453-17.12a5.718,5.718,0,0,1,5.712-5.712h.856a5.719,5.719,0,0,1,5.712,5.712v1.043a12.418,12.418,0,0,1-4.831-1.51,6.533,6.533,0,0,1-2.9-2.774,1.259,1.259,0,0,0-1.144-.808h-.031a1.256,1.256,0,0,0-1.151.75l-.56,1.267a7.145,7.145,0,0,1-.655,1.176,4.7,4.7,0,0,1-1.013,1.1v-.241Zm11.837,3.528v.849a5.7,5.7,0,0,1-11.4,0v-1.433a7.112,7.112,0,0,0,2.64-2.366h0a9.308,9.308,0,0,0,.515-.834,13.8,13.8,0,0,0,8.24,3.784Zm-11.837,6.3a8.2,8.2,0,0,0,12.279,0v1.323a3.457,3.457,0,0,1-3.452,3.453h-5.374a3.457,3.457,0,0,1-3.453-3.453v-1.323Z"/>
      <path id="Trazado_159610" data-name="Trazado 159610" d="M227.407,260.2a2.314,2.314,0,0,0-2.311,2.312v28.716a2.314,2.314,0,0,0,2.311,2.311h20.858a2.314,2.314,0,0,0,2.311-2.311V262.513a2.314,2.314,0,0,0-2.311-2.312Zm20.651,30.821H227.613v-28.3h20.445Z"/>
      <path id="Trazado_159611" data-name="Trazado 159611" d="M285.645,262.841h-28.88a1.259,1.259,0,1,0,0,2.518h28.88a1.259,1.259,0,0,0,0-2.518Z"/>
      <path id="Trazado_159612" data-name="Trazado 159612" d="M256.765,271.744h8.186a1.258,1.258,0,0,0,0-2.517h-8.186a1.258,1.258,0,1,0,0,2.517Z"/>
      <path id="Trazado_159613" data-name="Trazado 159613" d="M285.645,269.227H277.46a1.258,1.258,0,1,0,0,2.517h8.185a1.258,1.258,0,1,0,0-2.517Z"/>
      <path id="Trazado_159614" data-name="Trazado 159614" d="M256.765,278.129h8.186a1.258,1.258,0,0,0,0-2.517h-8.186a1.258,1.258,0,1,0,0,2.517Z"/>
      <path id="Trazado_159615" data-name="Trazado 159615" d="M286.9,276.871a1.258,1.258,0,0,0-1.259-1.259H277.46a1.258,1.258,0,1,0,0,2.517h8.185A1.258,1.258,0,0,0,286.9,276.871Z"/>
      <path id="Trazado_159616" data-name="Trazado 159616" d="M277.46,282H256.765a1.259,1.259,0,1,0,0,2.518H277.46a1.259,1.259,0,0,0,0-2.518Z"/>
      <path id="Trazado_159617" data-name="Trazado 159617" d="M277.46,288.382H256.765a1.259,1.259,0,1,0,0,2.518H277.46a1.259,1.259,0,0,0,0-2.518Z"/>
      <path id="Trazado_159618" data-name="Trazado 159618" d="M270.981,244.12a1.26,1.26,0,0,0,1.177-.811l1.137-2.986h7.591l1.126,2.982a1.259,1.259,0,0,0,2.355-.889l-5.753-15.245-.014-.034a1.6,1.6,0,0,0-1.488-1h0a1.6,1.6,0,0,0-1.487,1l-.012.029L269.8,242.413a1.26,1.26,0,0,0,1.176,1.707Zm6.127-13.809,2.828,7.494h-5.682Z"/>
      <path id="Trazado_159619" data-name="Trazado 159619" d="M248.48,242.861V227.4a1.259,1.259,0,0,0-2.518,0v15.463a1.259,1.259,0,0,0,2.518,0Z"/>
      <path id="Trazado_159620" data-name="Trazado 159620" d="M260.025,241.6a6.069,6.069,0,0,1-4.456-1.879,1.259,1.259,0,1,0-1.865,1.691,8.619,8.619,0,0,0,6.321,2.705,5.779,5.779,0,0,0,5.843-4.388c.514-2.879-1.763-4.812-4.065-5.661-2.01-.741-3.873-1.551-4.32-1.748a1.728,1.728,0,0,1-.7-1.687,2.256,2.256,0,0,1,1.7-1.789,5.834,5.834,0,0,1,4.878,1.109,1.259,1.259,0,0,0,1.616-1.931,8.3,8.3,0,0,0-7.22-1.588,4.772,4.772,0,0,0-3.468,3.841,4.248,4.248,0,0,0,1.893,4.205,1.283,1.283,0,0,0,.175.1c.088.039,2.2.978,4.575,1.855,1.769.653,2.665,1.694,2.458,2.856a3.24,3.24,0,0,1-3.365,2.314Z"/>
      <path id="Trazado_159621" data-name="Trazado 159621" d="M228.4,226.209a1.258,1.258,0,0,0-.776,1.6l5.289,15.239a1.608,1.608,0,0,0,1.515,1.069h.011a1.611,1.611,0,0,0,1.514-1.1l5.049-15.2a1.259,1.259,0,1,0-2.39-.794l-4.2,12.653L230,226.986a1.259,1.259,0,0,0-1.6-.777Z"/>
    </g>
  </g>
</svg>
