<svg xmlns="http://www.w3.org/2000/svg" width="90.485" height="86" viewBox="0 0 90.485 86">
  <g id="Grupo_99814" data-name="Grupo 99814" transform="translate(-210.758 -213)">
    <g id="Grupo_100457" data-name="Grupo 100457">
      <path id="Trazado_159734" data-name="Trazado 159734" d="M242.993,230.007h44.426a3.024,3.024,0,0,1,3.011,3.011v47.759a3.019,3.019,0,0,1-3.011,3.006H215.088a3.014,3.014,0,0,1-3.005-3.006V233.018a3.019,3.019,0,0,1,3.005-3.011Z" fill="#bcd0df" fill-rule="evenodd"/>
    </g>
    <g id="Grupo_100458" data-name="Grupo 100458">
      <path id="Trazado_159735" data-name="Trazado 159735" d="M261.423,283.783l-10.17-3.046-9.077,3.046v6.949l9.624,2.78,9.623-2.78Z" fill="#c6d0da" fill-rule="evenodd"/>
    </g>
    <g id="Grupo_100459" data-name="Grupo 100459">
      <path id="Trazado_159736" data-name="Trazado 159736" d="M225.734,262.271A6.654,6.654,0,0,0,219.1,268.9v6.6l51.62-.03v-6.628a6.646,6.646,0,0,0-6.628-6.633c-6.788,0-31.12.055-38.359.055Z" fill="#918291" fill-rule="evenodd"/>
    </g>
    <g id="Grupo_100460" data-name="Grupo 100460">
      <path id="Trazado_159737" data-name="Trazado 159737" d="M219.1,275.507h-7.019v5.27a3.015,3.015,0,0,0,3.006,3.006h72.331a3.018,3.018,0,0,0,3.01-3.006v-5.27H244.911l-25.81.03Z" fill="#faf8f9" fill-rule="evenodd"/>
    </g>
    <g id="Grupo_100461" data-name="Grupo 100461">
      <path id="Trazado_159738" data-name="Trazado 159738" d="M261.423,290.732H234.065a3.484,3.484,0,0,0-3.477,3.472v2.555a.92.92,0,0,0,.917.916h40.584a.921.921,0,0,0,.922-.916V294.2a3.484,3.484,0,0,0-3.477-3.472Z" fill="#faf8f9" fill-rule="evenodd"/>
    </g>
    <g id="Grupo_100462" data-name="Grupo 100462">
      <path id="Trazado_159739" data-name="Trazado 159739" d="M274.373,230.007l-3.937,6.829a2.721,2.721,0,0,0,2.324,4.028h24.483a2.721,2.721,0,0,0,2.324-4.028l-6.122-10.6-6.117-10.6a2.723,2.723,0,0,0-4.654,0l-6.121,10.6Z" fill="#ffe07d" fill-rule="evenodd"/>
    </g>
    <g id="Grupo_100463" data-name="Grupo 100463">
      <path id="Trazado_159740" data-name="Trazado 159740" d="M264.093,262.216h-2.174c-1.082,0-2.35.005-3.747.005a6.558,6.558,0,0,1,3.592,1.067,6.639,6.639,0,0,1,3.035,5.566v6.628l5.922-.005v-6.628a6.646,6.646,0,0,0-6.628-6.633Z" fill="#685d68" fill-rule="evenodd"/>
    </g>
    <g id="Grupo_100464" data-name="Grupo 100464">
      <path id="Trazado_159741" data-name="Trazado 159741" d="M227.8,239.371c-3.848,0-3.492,7.8.872,7.8h1.347c2.184-3.046,1.563-5.39-.606-7.8Z" fill="#f5a96c" fill-rule="evenodd"/>
    </g>
    <g id="Grupo_100465" data-name="Grupo 100465">
      <path id="Trazado_159742" data-name="Trazado 159742" d="M260.136,247.171h1.513c4.363,0,4.719-7.8.871-7.8h-1.743c-2.054,2.279-2.385,4.664-.641,7.8Z" fill="#f5a96c" fill-rule="evenodd"/>
    </g>
    <g id="Grupo_100466" data-name="Grupo 100466">
      <path id="Trazado_159743" data-name="Trazado 159743" d="M233.795,253.564a8.992,8.992,0,0,0-5.742,7.975,8.638,8.638,0,0,0,8.612,8.617l7.144-.005c2.35-6.227-3.382-19.393-10.014-16.587Z" fill="#c6d0da" fill-rule="evenodd"/>
    </g>
    <g id="Grupo_100467" data-name="Grupo 100467">
      <path id="Trazado_159744" data-name="Trazado 159744" d="M249.23,255.8c-4.3.446-2.465,9.153-2.931,14.353l7.034-.005a8.639,8.639,0,0,0,8.611-8.612c0-.23-.01-.461-.03-.686a9.047,9.047,0,0,0-5.631-7.284c-2.675-.386-3.186,1.833-7.053,2.234Z" fill="#c6d0da" fill-rule="evenodd"/>
    </g>
    <g id="Grupo_100468" data-name="Grupo 100468">
      <path id="Trazado_159745" data-name="Trazado 159745" d="M237.532,262.126c0,4.343,2.805,7.9,6.277,8.025h2.49c3.456-.14,6.247-3.7,6.247-8.025V256.84c-5.536-3.637-9.894-3.352-15.014.04Z" fill="#ffbc85" fill-rule="evenodd"/>
    </g>
    <g id="Grupo_100469" data-name="Grupo 100469">
      <path id="Trazado_159746" data-name="Trazado 159746" d="M233.795,253.564a20.347,20.347,0,0,0,3.737,3.316,17.194,17.194,0,0,0,3.857,2,8.61,8.61,0,0,0,7.214,0,17.742,17.742,0,0,0,3.943-2.039,21.023,21.023,0,0,0,3.737-3.276,18.521,18.521,0,0,0,3.853-6.393l-8.712-3.216c-2.15-.792-4.2-2.17-6.428-2-1.668.125-3.211,1.478-4.869,2l-10.1,3.216a18.6,18.6,0,0,0,3.773,6.393Z" fill="#918291" fill-rule="evenodd"/>
    </g>
    <g id="Grupo_100470" data-name="Grupo 100470">
      <path id="Trazado_159747" data-name="Trazado 159747" d="M260.777,235.658c-.576-20.841-31.366-20.73-31.361.076v.941l16.437,2.7,14.924-2.7Z" fill="#918291" fill-rule="evenodd"/>
    </g>
    <g id="Grupo_100471" data-name="Grupo 100471">
      <path id="Trazado_159748" data-name="Trazado 159748" d="M245,245.167c2.23-.165,4.139,2,6.428,2h8.712c.13-.38.235-.761.325-1.137a11.874,11.874,0,0,0,.316-2.68v-6.679H229.416v7a10.192,10.192,0,0,0,.286,2.36c.09.376.2.756.32,1.132h10.1C241.865,247.171,243.328,245.292,245,245.167Z" fill="#fed1a3" fill-rule="evenodd"/>
    </g>
    <g id="Grupo_100472" data-name="Grupo 100472">
      <path id="Trazado_159749" data-name="Trazado 159749" d="M244.681,220.078c6.172,1.533,11.462,6.553,11.7,15.08v1.518h4.4v-1.017c-.291-10.511-8.261-15.691-16.1-15.581Z" fill="#685d68" fill-rule="evenodd"/>
    </g>
    <g id="Grupo_100473" data-name="Grupo 100473">
      <path id="Trazado_159750" data-name="Trazado 159750" d="M256.378,238.865v3.983a11.95,11.95,0,0,1-.31,2.685c-.01.04-.02.085-.03.125-.085.336-.181.672-.3,1.012-.055.165-.115.336-.175.5h4.569c.13-.38.235-.761.325-1.137a11.874,11.874,0,0,0,.316-2.68v-6.679h-4.4v2.19Z" fill="#ffbc85" fill-rule="evenodd"/>
    </g>
    <g id="Grupo_100474" data-name="Grupo 100474">
      <path id="Trazado_159751" data-name="Trazado 159751" d="M255.567,247.171a18.977,18.977,0,0,1-3.677,5.892,21.727,21.727,0,0,1-2.27,2.174c-.265.215-.541.431-.816.636-.216.161-.431.316-.652.466-.24.16-.48.321-.731.471a17.026,17.026,0,0,1-3.211,1.568,14.668,14.668,0,0,1-1.809.541c-.2.04-.385.081-.576.116.251.08.5.155.737.225a11.167,11.167,0,0,0,2.434.411,10.184,10.184,0,0,0,1.483-.185,14.067,14.067,0,0,0,2.124-.607,17.678,17.678,0,0,0,3.943-2.039,21.023,21.023,0,0,0,3.737-3.276,18.511,18.511,0,0,0,3.853-6.393Z" fill="#685d68" fill-rule="evenodd"/>
    </g>
    <g id="Grupo_100475" data-name="Grupo 100475">
      <path id="Trazado_159752" data-name="Trazado 159752" d="M254.5,255.322a8.876,8.876,0,0,1,3.557,5.526c.035.206.065.421.08.631a6.259,6.259,0,0,1,.035.687,8.645,8.645,0,0,1-5.381,7.981h.541a8.64,8.64,0,0,0,8.612-8.612c0-.231-.01-.461-.03-.687a9.05,9.05,0,0,0-5.631-7.284,21.141,21.141,0,0,1-1.783,1.758Z" fill="#a0aab7" fill-rule="evenodd"/>
    </g>
    <g id="Grupo_100476" data-name="Grupo 100476">
      <path id="Trazado_159753" data-name="Trazado 159753" d="M237.532,256.88v4.6c0,1.869,8.617,3.657,11.908,1.5.27-.175.526-.03.511.6v2.35a9.649,9.649,0,0,1-.481,3.031,8.622,8.622,0,0,0,3.076-6.834V256.84a17.742,17.742,0,0,1-3.943,2.039,13.941,13.941,0,0,1-2.124.606,10.188,10.188,0,0,1-1.483.186,11.247,11.247,0,0,1-2.435-.411c-.24-.07-.486-.146-.736-.226-.145-.05-.29-.1-.436-.155a17.194,17.194,0,0,1-3.857-2Z" fill="#f5a96c" fill-rule="evenodd"/>
    </g>
    <g id="Grupo_100477" data-name="Grupo 100477">
      <path id="Trazado_159754" data-name="Trazado 159754" d="M283.446,240.864v34.643h6.983V240.864h-6.983Z" fill="#81a7c6" fill-rule="evenodd"/>
    </g>
    <g id="Grupo_100478" data-name="Grupo 100478">
      <path id="Trazado_159755" data-name="Trazado 159755" d="M290.429,275.507h-6.983v5.27a3.015,3.015,0,0,1-3.006,3.006h6.979a3.018,3.018,0,0,0,3.01-3.006Z" fill="#e5e1e5" fill-rule="evenodd"/>
    </g>
    <g id="Grupo_100479" data-name="Grupo 100479">
      <path id="Trazado_159756" data-name="Trazado 159756" d="M283.276,214.923a22.24,22.24,0,0,1,5.395,14.984v.376a23.645,23.645,0,0,1-2.6,10.581h11.167a2.721,2.721,0,0,0,2.324-4.028l-6.122-10.6-6.117-10.6A2.742,2.742,0,0,0,283.276,214.923Z" fill="#ffc250" fill-rule="evenodd"/>
    </g>
    <g id="Grupo_100480" data-name="Grupo 100480">
      <path id="Trazado_159757" data-name="Trazado 159757" d="M242.176,283.783v3.607h14.067c1.5.2,1.678.742,1.678,1.233v2.109h3.5v-6.949Z" fill="#a0aab7" fill-rule="evenodd"/>
    </g>
    <g id="Grupo_100481" data-name="Grupo 100481">
      <path id="Trazado_159758" data-name="Trazado 159758" d="M273.011,294.2a3.484,3.484,0,0,0-3.477-3.472h-6.367a3.48,3.48,0,0,1,3.471,3.472v2.555a.916.916,0,0,1-.917.916h6.368a.921.921,0,0,0,.922-.916Z" fill="#e5e1e5" fill-rule="evenodd"/>
    </g>
    <g id="Grupo_100482" data-name="Grupo 100482">
      <path id="Trazado_159759" data-name="Trazado 159759" d="M251.292,243.227a1.323,1.323,0,0,0,.285-.031l2.951-.647a1.325,1.325,0,1,0-.567-2.589l-2.951.646a1.326,1.326,0,0,0,.282,2.621Z"/>
      <path id="Trazado_159760" data-name="Trazado 159760" d="M236.272,242.55l2.95.646a1.326,1.326,0,0,0,.568-2.59l-2.951-.646a1.326,1.326,0,0,0-.567,2.59Z"/>
      <path id="Trazado_159761" data-name="Trazado 159761" d="M300.714,236.173l-6.121-10.6-6.117-10.6h0A4.021,4.021,0,0,0,284.989,213h0a3.946,3.946,0,0,0-3.46,1.972l-6.122,10.6-1.794,3.109H260.652a15.748,15.748,0,0,0-4.226-5.8,17.549,17.549,0,0,0-11.756-4.131,17.165,17.165,0,0,0-11.4,4.345,15.334,15.334,0,0,0-3.877,5.582h-14.3a4.339,4.339,0,0,0-4.331,4.337v47.758a4.336,4.336,0,0,0,4.331,4.331h25.762v4.3h-6.785a4.8,4.8,0,0,0-4.8,4.8v2.555A2.244,2.244,0,0,0,231.506,299h40.583a2.247,2.247,0,0,0,2.247-2.242V294.2a4.8,4.8,0,0,0-4.8-4.8h-6.785v-4.3h24.669a4.339,4.339,0,0,0,4.337-4.331V242.189h5.487a4.014,4.014,0,0,0,3.449-2.032,3.945,3.945,0,0,0,.023-3.984ZM230.742,238h11.479a1.326,1.326,0,1,0,0-2.651H230.747c.185-9.445,7.322-13.851,13.96-13.944h.22c5.47,0,11.295,2.834,13.556,8.994l.011.03a16.488,16.488,0,0,1,.945,4.922H247.917a1.325,1.325,0,1,0,0,2.65h11.535v5.353a10.506,10.506,0,0,1-.281,2.378c-.009.038-.02.076-.029.114h-7.718a6.217,6.217,0,0,1-2.555-.88,7.6,7.6,0,0,0-3.971-1.12,6.58,6.58,0,0,0-2.9,1.179,4.3,4.3,0,0,1-1.868.821h-9.107c-.009-.038-.02-.075-.029-.113a8.955,8.955,0,0,1-.25-2.053V238Zm17.411,19.632a7.372,7.372,0,0,1-6.313,0,16.084,16.084,0,0,1-3.558-1.845l-.019-.013a19.1,19.1,0,0,1-3.363-2.942,1.319,1.319,0,0,0-.244-.276,17.884,17.884,0,0,1-2.684-4.06h8.155a6.247,6.247,0,0,0,3.257-1.214,4.637,4.637,0,0,1,1.711-.794,5.536,5.536,0,0,1,2.586.847,8.357,8.357,0,0,0,3.743,1.161h6.742A19.07,19.07,0,0,1,248.153,257.633Zm12.466,3.9a7.3,7.3,0,0,1-7.287,7.287h-1.816a10.324,10.324,0,0,0,2.356-6.7v-4.6a22.635,22.635,0,0,0,2.714-2.344,7.442,7.442,0,0,1,4.033,6.355Zm-9.4-2.362v2.954c0,3.561-2.257,6.579-4.965,6.7h-2.4c-2.724-.091-5-3.121-5-6.7v-2.918a17.217,17.217,0,0,0,2.081.918,13.51,13.51,0,0,0,3.994.869h.127a13.478,13.478,0,0,0,3.994-.869,18.088,18.088,0,0,0,2.167-.954Zm-12.654,9.658h-1.9a7.3,7.3,0,0,1-7.286-7.292,7.572,7.572,0,0,1,4.114-6.366,22.156,22.156,0,0,0,2.714,2.377v4.575a10.33,10.33,0,0,0,2.36,6.7Zm-25.158-35.811a1.685,1.685,0,0,1,1.68-1.686h13.476a19.918,19.918,0,0,0-.474,4.4h0v2.312H227.8a3.66,3.66,0,0,0-3.088,1.632,5.6,5.6,0,0,0-.9,3.157c0,2.745,1.7,5.662,4.857,5.662h.416a19.647,19.647,0,0,0,2.641,4.63,10.157,10.157,0,0,0-4.981,7.818h-1.017a7.967,7.967,0,0,0-7.958,7.959v5.277h-4.367ZM228.3,245.81c-1.334-.256-1.83-1.864-1.83-2.975a3,3,0,0,1,.428-1.652,1.012,1.012,0,0,1,.906-.486h.288v2.983a11.375,11.375,0,0,0,.208,2.13Zm41.235,46.247a2.151,2.151,0,0,1,2.151,2.146v2.146H231.914V294.2a2.151,2.151,0,0,1,2.152-2.146h35.468ZM243.5,289.406v-4.3h16.6v4.3Zm45.6-8.629a1.685,1.685,0,0,1-1.685,1.68H215.089a1.682,1.682,0,0,1-1.68-1.68v-3.945h5.414a1.312,1.312,0,0,0,.558,0H239.7a1.326,1.326,0,1,0,0-2.651H220.427V268.9a5.314,5.314,0,0,1,5.308-5.308h1.209a9.954,9.954,0,0,0,9.722,7.886l7.177-.005c.048,0,.094.005.142.005h2.1c.063,0,.126,0,.189-.006l7.055-.005a9.953,9.953,0,0,0,9.733-7.93h1.027a5.31,5.31,0,0,1,5.3,5.307v5.335l-23.707,0a1.326,1.326,0,1,0,0,2.651l43.415-.005Zm0-6.6-17.057,0v-5.334a7.964,7.964,0,0,0-7.953-7.959h-.848a10.153,10.153,0,0,0-4.878-7.743,19.448,19.448,0,0,0,2.7-4.65h.584c3.155,0,4.857-2.917,4.857-5.662a5.6,5.6,0,0,0-.9-3.157,3.663,3.663,0,0,0-3.089-1.632H262.1v-2.4c0-.007,0-.012,0-.019a20.233,20.233,0,0,0-.567-4.289H272.08l-2.792,4.84a4.016,4.016,0,0,0,.035,4,3.942,3.942,0,0,0,3.437,2.013H289.1v31.991Zm-27.245-28.347a13.058,13.058,0,0,0,.244-2.48V240.7h.418a1.015,1.015,0,0,1,.907.487,3,3,0,0,1,.428,1.652c0,1.157-.537,2.85-2,3Zm36.537-7a1.341,1.341,0,0,1-1.153.707H272.76a1.317,1.317,0,0,1-1.141-.686,1.34,1.34,0,0,1-.035-1.353l6.116-10.6,6.122-10.6a1.32,1.32,0,0,1,1.166-.647h0a1.346,1.346,0,0,1,1.191.646l6.117,10.6,6.122,10.6a1.32,1.32,0,0,1-.024,1.332Z"/>
      <path id="Trazado_159762" data-name="Trazado 159762" d="M285,221.659a1.325,1.325,0,0,0-1.325,1.325v7.72a1.326,1.326,0,1,0,2.651,0v-7.72A1.326,1.326,0,0,0,285,221.659Z"/>
      <path id="Trazado_159763" data-name="Trazado 159763" d="M285,234.864a1.326,1.326,0,0,0-1.325,1.326v.065a1.326,1.326,0,1,0,2.651,0v-.065A1.326,1.326,0,0,0,285,234.864Z"/>
    </g>
  </g>
</svg>
