<svg xmlns="http://www.w3.org/2000/svg" width="113.616" height="113.616" viewBox="0 0 113.616 113.616">
  <g id="Grupo_109141" data-name="Grupo 109141" transform="translate(-1253.384 -1477.721)">
    <circle id="Elipse_5014" data-name="Elipse 5014" cx="56.808" cy="56.808" r="56.808" transform="translate(1253.384 1477.721)" fill="#ff805a"/>
    <circle id="Elipse_5015" data-name="Elipse 5015" cx="48.524" cy="48.524" r="48.524" transform="translate(1261.668 1486.005)" fill="#fff7f5"/>
    <g id="Grupo_90212" data-name="Grupo 90212" transform="translate(300.385 1819.615)">
      <path id="Trazado_154610" data-name="Trazado 154610" d="M1030.831-260.492h-3.439v-4.178a2.089,2.089,0,0,0-2.089-2.089,2.089,2.089,0,0,0-2.088,2.089v4.178h-3.44a.738.738,0,0,0-.738.739.742.742,0,0,0,.216.522l4.267,4.267a2.523,2.523,0,0,0,1.783.739,2.52,2.52,0,0,0,1.783-.739l4.268-4.267a.743.743,0,0,0,.216-.522.739.739,0,0,0-.739-.739Z" fill="#6777b9"/>
      <path id="Trazado_154611" data-name="Trazado 154611" d="M997.409-260.492H993.97v-4.178a2.089,2.089,0,0,0-2.089-2.089,2.09,2.09,0,0,0-2.089,2.089v4.178h-3.439a.738.738,0,0,0-.738.739.742.742,0,0,0,.216.522l4.267,4.267a2.523,2.523,0,0,0,1.783.739,2.521,2.521,0,0,0,1.783-.739l4.268-4.267a.742.742,0,0,0,.216-.522A.739.739,0,0,0,997.409-260.492Z" fill="#6777b9"/>
      <g id="Grupo_90206" data-name="Grupo 90206">
        <g id="Grupo_90190" data-name="Grupo 90190">
          <path id="Trazado_154612" data-name="Trazado 154612" d="M1025.3-300.181v25.067H991.881v-25.067Z" fill="#4a5188"/>
        </g>
        <g id="Grupo_90191" data-name="Grupo 90191">
          <path id="Trazado_154613" data-name="Trazado 154613" d="M998.148-279.292h-6.267a2.089,2.089,0,0,0-2.089,2.089v2.089h10.445V-277.2A2.089,2.089,0,0,0,998.148-279.292Z" fill="#92cbd9"/>
        </g>
        <g id="Grupo_90192" data-name="Grupo 90192">
          <path id="Trazado_154614" data-name="Trazado 154614" d="M1011.726-279.292h-6.267a2.089,2.089,0,0,0-2.089,2.089v2.089h10.445V-277.2A2.089,2.089,0,0,0,1011.726-279.292Z" fill="#92cbd9"/>
        </g>
        <g id="Grupo_90193" data-name="Grupo 90193">
          <path id="Trazado_154615" data-name="Trazado 154615" d="M1025.3-279.292h-6.266a2.089,2.089,0,0,0-2.089,2.089v2.089h10.444V-277.2A2.089,2.089,0,0,0,1025.3-279.292Z" fill="#92cbd9"/>
        </g>
        <g id="Grupo_90194" data-name="Grupo 90194">
          <path id="Trazado_154616" data-name="Trazado 154616" d="M1027.392-275.114h-37.6v2.089a2.09,2.09,0,0,0,2.089,2.089H1025.3a2.089,2.089,0,0,0,2.089-2.089Z" fill="#6777b9"/>
        </g>
        <g id="Grupo_90195" data-name="Grupo 90195">
          <path id="Trazado_154617" data-name="Trazado 154617" d="M998.148-296v16.711h-6.267V-296Z" fill="#6777b9"/>
        </g>
        <g id="Grupo_90196" data-name="Grupo 90196">
          <path id="Trazado_154618" data-name="Trazado 154618" d="M1011.726-296v16.711h-6.267V-296Z" fill="#6777b9"/>
        </g>
        <g id="Grupo_90197" data-name="Grupo 90197">
          <path id="Trazado_154619" data-name="Trazado 154619" d="M1025.3-296v16.711h-6.267V-296Z" fill="#6777b9"/>
        </g>
        <g id="Grupo_90198" data-name="Grupo 90198">
          <path id="Trazado_154620" data-name="Trazado 154620" d="M1008.592-316.892a6.265,6.265,0,0,0-3.76,1.254l-14.2,10.653a2.089,2.089,0,0,0-.836,1.671v3.133h37.6v-3.133a2.088,2.088,0,0,0-.835-1.671l-14.205-10.653a6.263,6.263,0,0,0-3.76-1.254Z" fill="#92cbd9"/>
        </g>
        <g id="Grupo_90199" data-name="Grupo 90199">
          <path id="Trazado_154621" data-name="Trazado 154621" d="M1006.712-313.132l-10.026,7.52a.7.7,0,0,0-.279.557.7.7,0,0,0,.7.7h22.977a.7.7,0,0,0,.7-.7.7.7,0,0,0-.278-.557l-10.027-7.52a3.13,3.13,0,0,0-1.88-.626,3.133,3.133,0,0,0-1.88.626Z" fill="#6777b9"/>
        </g>
        <g id="Grupo_90200" data-name="Grupo 90200">
          <path id="Trazado_154622" data-name="Trazado 154622" d="M998.148-296h-6.267a2.089,2.089,0,0,1-2.089-2.089v-2.089h10.445v2.089A2.089,2.089,0,0,1,998.148-296Z" fill="#6777b9"/>
        </g>
        <g id="Grupo_90201" data-name="Grupo 90201">
          <path id="Trazado_154623" data-name="Trazado 154623" d="M1011.726-296h-6.267a2.089,2.089,0,0,1-2.089-2.089v-2.089h10.445v2.089A2.089,2.089,0,0,1,1011.726-296Z" fill="#6777b9"/>
        </g>
        <g id="Grupo_90202" data-name="Grupo 90202">
          <path id="Trazado_154624" data-name="Trazado 154624" d="M1025.3-296h-6.266a2.089,2.089,0,0,1-2.089-2.089v-2.089h10.444v2.089A2.089,2.089,0,0,1,1025.3-296Z" fill="#6777b9"/>
        </g>
        <g id="Grupo_90203" data-name="Grupo 90203">
          <path id="Trazado_154625" data-name="Trazado 154625" d="M995.015-279.292h-3.134v-14.622h1.045a2.089,2.089,0,0,1,2.089,2.089Z" fill="#92cbd9"/>
        </g>
        <g id="Grupo_90204" data-name="Grupo 90204">
          <path id="Trazado_154626" data-name="Trazado 154626" d="M1008.592-279.292h-3.133v-14.622h1.044a2.089,2.089,0,0,1,2.089,2.089Z" fill="#92cbd9"/>
        </g>
        <g id="Grupo_90205" data-name="Grupo 90205">
          <path id="Trazado_154627" data-name="Trazado 154627" d="M1022.17-279.292h-3.133v-14.622h1.044a2.089,2.089,0,0,1,2.089,2.089Z" fill="#92cbd9"/>
        </g>
      </g>
      <g id="Grupo_90208" data-name="Grupo 90208">
        <g id="Grupo_90207" data-name="Grupo 90207">
          <circle id="Elipse_5037" data-name="Elipse 5037" cx="11.489" cy="11.489" r="11.489" transform="translate(997.104 -286.603)" fill="#d9e4ee"/>
        </g>
        <path id="Trazado_154628" data-name="Trazado 154628" d="M1021.126-275.114a12.534,12.534,0,0,0-12.534-12.533,12.533,12.533,0,0,0-12.533,12.533,12.536,12.536,0,0,0,10.444,12.359v2.263h-3.439a.738.738,0,0,0-.738.739.742.742,0,0,0,.216.522l4.267,4.267a2.523,2.523,0,0,0,1.783.739,2.521,2.521,0,0,0,1.783-.739l4.268-4.267a.742.742,0,0,0,.216-.522.739.739,0,0,0-.739-.739h-3.439v-2.263a12.536,12.536,0,0,0,10.445-12.359Zm-22.978,0a10.456,10.456,0,0,1,10.444-10.445,10.457,10.457,0,0,1,10.445,10.445,10.456,10.456,0,0,1-10.445,10.444A10.456,10.456,0,0,1,998.148-275.114Z" fill="#6777b9"/>
      </g>
      <g id="Grupo_90210" data-name="Grupo 90210">
        <g id="Grupo_90209" data-name="Grupo 90209">
          <path id="Trazado_154629" data-name="Trazado 154629" d="M1014.859-275.114a6.115,6.115,0,0,0-.032-.623.833.833,0,0,1,.415-.8h0a.837.837,0,0,0,.306-1.144l-1.25-2.167a.839.839,0,0,0-1.145-.307h0a.833.833,0,0,1-.9-.043,6.27,6.27,0,0,0-1.081-.625.834.834,0,0,1-.487-.76.838.838,0,0,0-.838-.838h-2.5a.839.839,0,0,0-.839.838.833.833,0,0,1-.486.76,6.256,6.256,0,0,0-1.081.625.833.833,0,0,1-.9.043h0a.839.839,0,0,0-1.145.307l-1.251,2.167a.838.838,0,0,0,.307,1.144h0a.832.832,0,0,1,.414.8c-.02.2-.031.413-.031.623s.011.418.031.623a.832.832,0,0,1-.414.8h0a.839.839,0,0,0-.307,1.145l1.251,2.167a.838.838,0,0,0,1.145.306h0a.833.833,0,0,1,.9.043,6.256,6.256,0,0,0,1.081.625.832.832,0,0,1,.486.76.839.839,0,0,0,.839.838h2.5a.838.838,0,0,0,.838-.838.831.831,0,0,1,.487-.76,6.337,6.337,0,0,0,1.081-.625.833.833,0,0,1,.9-.043h0a.838.838,0,0,0,1.145-.306l1.25-2.167a.838.838,0,0,0-.306-1.145h0a.833.833,0,0,1-.415-.8A6.116,6.116,0,0,0,1014.859-275.114Zm-8.356,0a2.089,2.089,0,0,1,2.089-2.089,2.089,2.089,0,0,1,2.089,2.089,2.089,2.089,0,0,1-2.089,2.089A2.089,2.089,0,0,1,1006.5-275.114Z" fill="#4a5188"/>
        </g>
      </g>
      <g id="Grupo_90211" data-name="Grupo 90211">
        <path id="Trazado_154630" data-name="Trazado 154630" d="M1039.966-294.555l-12.347-21.934-.006-.01a2.268,2.268,0,0,0-1.965-1.116,2.268,2.268,0,0,0-1.965,1.116l-.006.01-12.347,21.934a2.261,2.261,0,0,0-.021,2.3,2.261,2.261,0,0,0,1.989,1.157H1038a2.261,2.261,0,0,0,1.989-1.157A2.261,2.261,0,0,0,1039.966-294.555Z" fill="#e4927a"/>
        <path id="Trazado_154631" data-name="Trazado 154631" d="M1016.5-292.932a2.261,2.261,0,0,1-1.989-1.157,2.261,2.261,0,0,1,.021-2.3l11.878-21.1a2.291,2.291,0,0,0-.764-.13,2.268,2.268,0,0,0-1.965,1.116l-.006.01-12.347,21.934a2.261,2.261,0,0,0-.021,2.3,2.261,2.261,0,0,0,1.989,1.157H1038a2.261,2.261,0,0,0,1.989-1.157,2.317,2.317,0,0,0,.254-.673Z" fill="#e0785b"/>
        <path id="Trazado_154632" data-name="Trazado 154632" d="M1025.648-302.539a4.58,4.58,0,0,0-4.575,4.575,4.58,4.58,0,0,0,4.575,4.575,4.58,4.58,0,0,0,4.575-4.575A4.58,4.58,0,0,0,1025.648-302.539Z" fill="#fff"/>
        <path id="Trazado_154633" data-name="Trazado 154633" d="M1026.838-298.4a.458.458,0,0,0,.457-.457v-.3a1.351,1.351,0,0,0-1.189-1.34v-.444a.458.458,0,0,0-.458-.458.457.457,0,0,0-.457.458v.467a1.5,1.5,0,0,0-1.19,1.466,1.5,1.5,0,0,0,1.5,1.5h.3a.584.584,0,0,1,.583.584.584.584,0,0,1-.583.583h-.446a.435.435,0,0,1-.435-.435.457.457,0,0,0-.457-.457.458.458,0,0,0-.458.457,1.352,1.352,0,0,0,1.19,1.34v.445a.457.457,0,0,0,.457.457.458.458,0,0,0,.458-.457v-.467a1.5,1.5,0,0,0,1.189-1.466,1.5,1.5,0,0,0-1.5-1.5h-.3a.584.584,0,0,1-.583-.583.584.584,0,0,1,.583-.583h.446a.434.434,0,0,1,.435.434v.3A.458.458,0,0,0,1026.838-298.4Z" fill="#f2d869"/>
        <path id="Trazado_154634" data-name="Trazado 154634" d="M1027.021-313.062h-2.745a.458.458,0,0,0-.458.457v8.236a.458.458,0,0,0,.458.457h2.745a.458.458,0,0,0,.457-.457v-8.236A.458.458,0,0,0,1027.021-313.062Z" fill="#fff"/>
      </g>
    </g>
  </g>
</svg>
