<svg xmlns="http://www.w3.org/2000/svg" width="89.994" height="90" viewBox="0 0 89.994 90">
  <g id="Group_111300" data-name="Group 111300" transform="translate(-491.687 33.046)">
    <path id="Path_171770" data-name="Path 171770" d="M498.225,27.285a10.419,10.419,0,0,1-3.463-8.576,10.207,10.207,0,0,1,3.459-7.05,10.479,10.479,0,0,1,14.153.113,10.6,10.6,0,0,1,.05,15.4L526.18,33.88c0-1.85,0-3.362,0-4.874,0-1.589.468-2.05,2.072-2.05q8.436,0,16.871,0c1.587,0,2.049.469,2.052,2.072,0,1.5,0,2.994,0,4.508,4.91-1.478,9.164-4.244,13.725-6.46a10.366,10.366,0,0,1-3.137-9.156,10.118,10.118,0,0,1,3.9-6.711A10.5,10.5,0,0,1,575.153,27.3c.3.126.575.25.856.357a8.49,8.49,0,0,1,5.639,7.885c.057,6.562.024,13.124.016,19.686a1.521,1.521,0,0,1-1.742,1.719q-10.965.012-21.932,0c-1.265,0-1.8-.557-1.8-1.852q-.011-6.234,0-12.468V41.493c-2.116.713-4.119,1.382-6.117,2.066-.94.322-2.248.418-2.7,1.084-.485.715-.175,1.979-.185,3-.014,1.406,0,2.812,0,4.218,0,1.64-.459,2.088-2.132,2.088q-8.342,0-16.684,0c-1.767,0-2.179-.422-2.179-2.227,0-2.156.012-4.312-.017-6.468,0-.285-.156-.755-.351-.824-2.816-1-5.651-1.943-8.639-2.954v1.1q0,6.141,0,12.28c0,1.608-.471,2.092-2.039,2.093q-10.732,0-21.464,0c-1.5,0-1.982-.5-1.982-2.048q0-9.327,0-18.654a8.667,8.667,0,0,1,6.146-8.759A3.8,3.8,0,0,0,498.225,27.285Zm10.2,2.738c.33,2.317.689,4.591.961,6.876a7.121,7.121,0,0,1,.012,2.925c-.771,2.334-1.793,4.584-2.7,6.876a1.551,1.551,0,0,1-3.037.008c-.9-2.291-1.848-4.567-2.731-6.866a3.192,3.192,0,0,1-.18-1.453c.171-1.487.43-2.964.639-4.447.182-1.281.342-2.565.511-3.849-4.46-.449-7.219,2.028-7.22,6.357q0,8.245,0,16.491V53.9h19.488V52.83q0-6.512,0-13.024c0-1.594.844-2.2,2.364-1.7,1.3.426,2.6.878,3.9,1.315,1.883.635,3.766,1.267,5.741,1.931,0-1.177-.061-2.241.02-3.293a1.371,1.371,0,0,0-1.016-1.572c-3.784-1.673-7.739-2.978-11.2-5.355A7.872,7.872,0,0,0,508.429,30.023Zm56.5,0a9.507,9.507,0,0,0-6.57,1.673,29.005,29.005,0,0,1-3.684,2.011c-2.464,1.125-4.972,2.157-7.448,3.222V41.32c.48-.15.9-.271,1.3-.409q4.119-1.392,8.238-2.789c1.571-.53,2.409.067,2.411,1.728q.008,6.512,0,13.024v1.014H578.67v-.9q0-8.433,0-16.866c-.006-4.047-3.074-6.632-7.155-6.015a3.94,3.94,0,0,0,0,.532c.292,2.1.631,4.2.871,6.3a7.15,7.15,0,0,1-.014,2.923c-.762,2.3-1.774,4.525-2.664,6.788-.286.726-.692,1.279-1.535,1.281s-1.251-.55-1.537-1.276c-.889-2.264-1.835-4.506-2.691-6.781a3.748,3.748,0,0,1-.155-1.725C564.133,35.466,564.536,32.783,564.928,30.025ZM544.11,50.912V30.03H529.23V50.912ZM497.948,20.99a7.436,7.436,0,0,0,7.969,5.94c3.3-.319,6.552-3.3,6.481-5.973a10.8,10.8,0,0,1-7.143-2.393C502.233,20.466,501.581,20.682,497.948,20.99Zm62.947-.034c.3,3.224,3.7,6,7.255,6s6.916-2.779,7.215-6a10.858,10.858,0,0,1-7.236-2.425A11.292,11.292,0,0,1,560.9,20.956ZM575.4,17.932a7.44,7.44,0,0,0-7.931-5.954c-3.28.285-6.508,3.2-6.526,5.95a7.423,7.423,0,0,0,5.7-2.106c1.227-1.147,1.757-1.149,3,.012A7.539,7.539,0,0,0,575.4,17.932Zm-62.939.007c-.42-3.366-3.787-6.037-7.407-5.979-3.461.055-6.748,2.807-7.065,5.962a7.406,7.406,0,0,0,5.778-2.138c1.168-1.1,1.745-1.091,2.929.025A7.607,7.607,0,0,0,512.465,17.939ZM505.376,30l-.293-.014a5.766,5.766,0,0,0-.217.755c-.338,2.341-.631,4.688-1.006,7.022-.275,1.706.8,2.935,1.272,4.475a7.562,7.562,0,0,0,1.128-6.262,7.217,7.217,0,0,1-.144-.922Q505.745,32.528,505.376,30Zm62.987,0-.268-.035a5.085,5.085,0,0,0-.241.78c-.34,2.34-.632,4.687-1.007,7.021-.274,1.706.8,2.935,1.273,4.474a7.562,7.562,0,0,0,1.127-6.264,7.043,7.043,0,0,1-.144-.922Q568.733,32.526,568.363,30Z" fill="#0f5c29"/>
    <path id="Path_171771" data-name="Path 171771" d="M556.563-22.108c-.123.349-.216.678-.354.987a11.4,11.4,0,0,1-.934,1.935,2.7,2.7,0,0,0,.067,3.2,1.535,1.535,0,0,0,.768.571c1.083.4,2.181.755,3.281,1.1a1.68,1.68,0,0,1,1.29,1.814q-.035,3.468,0,6.936a1.663,1.663,0,0,1-1.311,1.8c-.806.242-1.584.6-2.4.776a2.326,2.326,0,0,0-2.059,1.946,2.749,2.749,0,0,0,.057,1.384c.368.957.852,1.872,1.306,2.795a1.715,1.715,0,0,1-.2,1.925,25.015,25.015,0,0,1-5.278,5.284,1.752,1.752,0,0,1-2.006.183c-.862-.437-1.77-.787-2.614-1.255a1.892,1.892,0,0,0-1.661-.055,2.36,2.36,0,0,0-1.748,1.924c-.2.877-.56,1.719-.836,2.58a1.592,1.592,0,0,1-1.655,1.239q-3.609-.009-7.217,0a1.557,1.557,0,0,1-1.61-1.17c-.384-1.154-.758-2.312-1.147-3.465a2.4,2.4,0,0,0-2.752-1.2c-1.023.463-2.037.946-3.047,1.435a1.72,1.72,0,0,1-1.923-.208A24.776,24.776,0,0,1,517.3,5.073a1.744,1.744,0,0,1-.18-2c.37-.721.63-1.507,1.059-2.188a2.243,2.243,0,0,0,.032-2.685,2.4,2.4,0,0,0-.97-.861c-1.038-.42-2.111-.763-3.187-1.082a1.7,1.7,0,0,1-1.375-1.841q.034-3.468,0-6.936a1.657,1.657,0,0,1,1.313-1.791c.866-.259,1.7-.66,2.579-.83a2.258,2.258,0,0,0,1.966-1.934,2.083,2.083,0,0,0-.047-1.132c-.414-1.009-.9-1.99-1.386-2.966a1.758,1.758,0,0,1,.208-2,24.794,24.794,0,0,1,5.29-5.269,1.713,1.713,0,0,1,1.926-.179c.979.482,1.967.947,2.959,1.4a2.385,2.385,0,0,0,2.823-1.2c.379-1.123.758-2.246,1.118-3.375a1.634,1.634,0,0,1,1.75-1.241q3.514.026,7.029,0a1.632,1.632,0,0,1,1.733,1.264c.358,1.13.735,2.254,1.118,3.376a2.736,2.736,0,0,0,2.8,1.192c.992-.457,1.982-.918,2.958-1.406a1.709,1.709,0,0,1,1.928.15,23.877,23.877,0,0,1,5.392,5.427A5.522,5.522,0,0,1,556.563-22.108ZM528.07,5.564c1.437.651,2.859,1.262,4.244,1.952.249.124.382.553.495.868.347.968.68,1.943.975,2.928.135.45.319.67.835.656q2.059-.054,4.122,0c.519.014.7-.21.833-.659.263-.9.614-1.769.862-2.67a2.224,2.224,0,0,1,1.676-1.693,9.168,9.168,0,0,0,1.984-.819,2.426,2.426,0,0,1,2.475,0c3.234,1.587,3.244,1.567,5.668-1.116,1.046-1.159,1.046-1.158.393-2.539a12.978,12.978,0,0,0-.644-1.351,2.591,2.591,0,0,1-.031-2.98,7.188,7.188,0,0,0,.731-1.817,2.166,2.166,0,0,1,1.649-1.6,26.577,26.577,0,0,0,2.744-.929,1.066,1.066,0,0,0,.567-.752c.056-1.372.005-2.749.037-4.122a.737.737,0,0,0-.633-.852,19.044,19.044,0,0,1-2.915-1,3.3,3.3,0,0,1-1.326-1.279,11.43,11.43,0,0,1-1.082-2.578,3.163,3.163,0,0,1-.005-1.77c.325-.97.884-1.858,1.265-2.812a1.111,1.111,0,0,0-.126-.964c-.9-.99-1.884-1.907-2.816-2.87a.85.85,0,0,0-1.162-.139,17.058,17.058,0,0,1-2.622,1.228,3.438,3.438,0,0,1-1.858.006,11.479,11.479,0,0,1-2.581-1.075,3.07,3.07,0,0,1-1.234-1.251,20.073,20.073,0,0,1-1.03-3,.733.733,0,0,0-.866-.612c-1.342.028-2.687.042-4.028-.006-.563-.02-.759.22-.9.7-.284.957-.607,1.9-.935,2.844-.508,1.465-4.324,3.076-5.738,2.426-.907-.417-1.79-.89-2.715-1.259a1.118,1.118,0,0,0-.969.1c-1.012.924-1.989,1.892-2.907,2.909a1.223,1.223,0,0,0-.1,1.048c.349.9.814,1.752,1.22,2.63.527,1.137-.833,5.038-1.95,5.594a5.489,5.489,0,0,1-.7.258c-.857.289-1.705.615-2.577.847a.814.814,0,0,0-.727.972c.049,1,.013,2,.013,3,0,1.615.006,1.6,1.558,2.135,3.55,1.223,2.641.481,4.152,3.8a3.532,3.532,0,0,1-.084,3.356c-1.368,2.712-1.322,2.735.923,4.853,1.521,1.435,1.52,1.433,3.38.551C526.393,6.338,527.181,5.978,528.07,5.564Z" fill="#0f5c29"/>
    <path id="Path_171772" data-name="Path 171772" d="M532.222,41.889V39h8.88v2.887Z" fill="#0f5c29"/>
    <path id="Path_171773" data-name="Path 171773" d="M541.13,45.014v2.9h-8.88v-2.9Z" fill="#0f5c29"/>
    <path id="Path_171774" data-name="Path 171774" d="M533.7,35.9V33.025h5.915V35.9Z" fill="#0f5c29"/>
    <path id="Path_171775" data-name="Path 171775" d="M536.633,4.456a13.524,13.524,0,0,1-13.451-13.59,13.521,13.521,0,0,1,13.54-13.406A13.521,13.521,0,0,1,550.175-8.952,13.529,13.529,0,0,1,536.633,4.456Zm10.54-13.473a10.526,10.526,0,0,0-10.468-10.522A10.527,10.527,0,0,0,526.183-9.07,10.531,10.531,0,0,0,536.652,1.454,10.529,10.529,0,0,0,547.173-9.017Z" fill="#0f5c29"/>
    <path id="Path_171776" data-name="Path 171776" d="M541.175-12.087h-2.9c-.077-.178-.156-.4-.27-.613a1.4,1.4,0,0,0-1.722-.77,1.387,1.387,0,0,0-1.084,1.461,1.429,1.429,0,0,0,1.239,1.435c.454.1.937.08,1.383.2A4.289,4.289,0,0,1,541.1-6.79a3.962,3.962,0,0,1-1.731,4.256,2.018,2.018,0,0,0-1.146,2.427H535.16c.362-1.27-.339-1.9-1.326-2.543A3.947,3.947,0,0,1,532.181-6h2.9c.077.177.157.4.27.611a1.4,1.4,0,0,0,1.723.77,1.387,1.387,0,0,0,1.083-1.461,1.425,1.425,0,0,0-1.239-1.434c-.454-.1-.938-.08-1.383-.2a4.288,4.288,0,0,1-3.264-3.491,3.973,3.973,0,0,1,1.715-4.345,2.027,2.027,0,0,0,1.145-2.428H538.2c-.367,1.275.345,1.9,1.328,2.54A3.965,3.965,0,0,1,541.175-12.087Z" fill="#0f5c29"/>
  </g>
</svg>
