<svg xmlns="http://www.w3.org/2000/svg" width="120.849" height="93" viewBox="0 0 120.849 93">
  <g id="Grupo_109142" data-name="Grupo 109142" transform="translate(-319.914 -209.5)">
    <g id="Grupo_108494" data-name="Grupo 108494">
      <g id="Grupo_108474" data-name="Grupo 108474">
        <path id="Trazado_166142" data-name="Trazado 166142" d="M340.053,226.6h-2.109L330.8,230.83l-3.279,8.063v8.547L332.3,254.7l3.924,2.258,3.829.508a15.983,15.983,0,0,0,0-30.866Z" fill="#ffe07d"/>
        <path id="Trazado_166143" data-name="Trazado 166143" d="M328.227,242.029A15.986,15.986,0,0,1,340.053,226.6a15.982,15.982,0,1,0,0,30.866,15.986,15.986,0,0,1-11.826-15.433Z" fill="#ffd064"/>
      </g>
      <path id="Trazado_166144" data-name="Trazado 166144" d="M337.3,240.721v-6.27a3.2,3.2,0,0,1,2.139,2.929,1.4,1.4,0,0,0,2.807,0,6.1,6.1,0,0,0-4.946-5.849v-.267a1.4,1.4,0,0,0-2.807,0v.267a5.931,5.931,0,0,0,0,11.7v6.27a3.207,3.207,0,0,1-2.139-2.929,1.4,1.4,0,1,0-2.807,0,6.1,6.1,0,0,0,4.946,5.849v.267a1.4,1.4,0,0,0,2.807,0v-.267a5.931,5.931,0,0,0,0-11.7Zm-4.947-3.341a3.206,3.206,0,0,1,2.14-2.929v5.858A3.207,3.207,0,0,1,332.353,237.38ZM337.3,249.5v-5.858a3.075,3.075,0,0,1,0,5.858Z" fill="#ebb044"/>
      <path id="Trazado_166145" data-name="Trazado 166145" d="M385.912,215.938H354.248v56.31l12.079-.173,3.029,5.035h4.456l11.6-4.911,2.124-2.248V217.115Z" fill="#ecf4ff"/>
      <g id="Grupo_108475" data-name="Grupo 108475">
        <path id="Trazado_166146" data-name="Trazado 166146" d="M354.715,270.568V217.115l2.834-1.177h-6.973l-2.834,1.177v53.453l1.148,1.756,6.908-.1Z" fill="#cbe2ff"/>
      </g>
      <path id="Trazado_166147" data-name="Trazado 166147" d="M388,209.5H353.087l-1.208.926v5.512l1.258,1.177H388a2,2,0,0,0,1.995-2v-3.625a2,2,0,0,0-2-1.995Z" fill="#80b4fb"/>
      <path id="Trazado_166148" data-name="Trazado 166148" d="M352.253,215.12v-3.625a2,2,0,0,1,1.995-1.995h-6.973a2,2,0,0,0-1.995,1.995v3.625a2,2,0,0,0,1.995,2h6.973a2,2,0,0,1-1.995-2Z" fill="#5490f9"/>
      <path id="Trazado_166149" data-name="Trazado 166149" d="M374.535,258h-6.9l-1.063.849v13.638l2.78,4.621h4.455l2.226-.942V259.5a1.5,1.5,0,0,0-1.5-1.5Z" fill="#9dc6fb"/>
      <g id="Grupo_108476" data-name="Grupo 108476">
        <path id="Trazado_166150" data-name="Trazado 166150" d="M355.7,228.242a1.4,1.4,0,0,1-1.4-1.4v-1.428a1.4,1.4,0,1,1,2.806,0v1.428A1.4,1.4,0,0,1,355.7,228.242Z" fill="#7b6c79"/>
      </g>
      <g id="Grupo_108477" data-name="Grupo 108477">
        <path id="Trazado_166151" data-name="Trazado 166151" d="M363.66,228.242a1.4,1.4,0,0,1-1.4-1.4v-1.428a1.4,1.4,0,0,1,2.807,0v1.428A1.4,1.4,0,0,1,363.66,228.242Z" fill="#7b6c79"/>
      </g>
      <g id="Grupo_108478" data-name="Grupo 108478">
        <path id="Trazado_166152" data-name="Trazado 166152" d="M371.619,228.242a1.4,1.4,0,0,1-1.4-1.4v-1.428a1.4,1.4,0,0,1,2.807,0v1.428A1.4,1.4,0,0,1,371.619,228.242Z" fill="#7b6c79"/>
      </g>
      <g id="Grupo_108479" data-name="Grupo 108479">
        <path id="Trazado_166153" data-name="Trazado 166153" d="M379.578,228.242a1.4,1.4,0,0,1-1.4-1.4v-1.428a1.4,1.4,0,0,1,2.807,0v1.428A1.4,1.4,0,0,1,379.578,228.242Z" fill="#7b6c79"/>
      </g>
      <g id="Grupo_108480" data-name="Grupo 108480">
        <path id="Trazado_166154" data-name="Trazado 166154" d="M355.7,236.15a1.4,1.4,0,0,1-1.4-1.4v-1.428a1.4,1.4,0,1,1,2.806,0v1.428A1.4,1.4,0,0,1,355.7,236.15Z" fill="#7b6c79"/>
      </g>
      <g id="Grupo_108481" data-name="Grupo 108481">
        <path id="Trazado_166155" data-name="Trazado 166155" d="M363.66,236.15a1.4,1.4,0,0,1-1.4-1.4v-1.428a1.4,1.4,0,1,1,2.807,0v1.428A1.4,1.4,0,0,1,363.66,236.15Z" fill="#7b6c79"/>
      </g>
      <g id="Grupo_108482" data-name="Grupo 108482">
        <path id="Trazado_166156" data-name="Trazado 166156" d="M371.619,236.15a1.4,1.4,0,0,1-1.4-1.4v-1.428a1.4,1.4,0,1,1,2.807,0v1.428A1.4,1.4,0,0,1,371.619,236.15Z" fill="#7b6c79"/>
      </g>
      <g id="Grupo_108483" data-name="Grupo 108483">
        <path id="Trazado_166157" data-name="Trazado 166157" d="M379.578,236.15a1.4,1.4,0,0,1-1.4-1.4v-1.428a1.4,1.4,0,1,1,2.807,0v1.428A1.4,1.4,0,0,1,379.578,236.15Z" fill="#7b6c79"/>
      </g>
      <g id="Grupo_108484" data-name="Grupo 108484">
        <path id="Trazado_166158" data-name="Trazado 166158" d="M355.7,244.058a1.4,1.4,0,0,1-1.4-1.4v-1.428a1.4,1.4,0,1,1,2.806,0v1.428A1.4,1.4,0,0,1,355.7,244.058Z" fill="#7b6c79"/>
      </g>
      <g id="Grupo_108485" data-name="Grupo 108485">
        <path id="Trazado_166159" data-name="Trazado 166159" d="M363.66,244.058a1.4,1.4,0,0,1-1.4-1.4v-1.428a1.4,1.4,0,0,1,2.807,0v1.428A1.4,1.4,0,0,1,363.66,244.058Z" fill="#7b6c79"/>
      </g>
      <g id="Grupo_108486" data-name="Grupo 108486">
        <path id="Trazado_166160" data-name="Trazado 166160" d="M371.619,244.058a1.4,1.4,0,0,1-1.4-1.4v-1.428a1.4,1.4,0,0,1,2.807,0v1.428A1.4,1.4,0,0,1,371.619,244.058Z" fill="#7b6c79"/>
      </g>
      <g id="Grupo_108487" data-name="Grupo 108487">
        <path id="Trazado_166161" data-name="Trazado 166161" d="M379.578,244.058a1.4,1.4,0,0,1-1.4-1.4v-1.428a1.4,1.4,0,0,1,2.807,0v1.428A1.4,1.4,0,0,1,379.578,244.058Z" fill="#7b6c79"/>
      </g>
      <g id="Grupo_108488" data-name="Grupo 108488">
        <path id="Trazado_166162" data-name="Trazado 166162" d="M355.7,251.965a1.4,1.4,0,0,1-1.4-1.4v-1.428a1.4,1.4,0,1,1,2.806,0v1.428a1.4,1.4,0,0,1-1.4,1.4Z" fill="#7b6c79"/>
      </g>
      <g id="Grupo_108489" data-name="Grupo 108489">
        <path id="Trazado_166163" data-name="Trazado 166163" d="M363.66,251.965a1.4,1.4,0,0,1-1.4-1.4v-1.428a1.4,1.4,0,0,1,2.807,0v1.428a1.4,1.4,0,0,1-1.4,1.4Z" fill="#7b6c79"/>
      </g>
      <g id="Grupo_108490" data-name="Grupo 108490">
        <path id="Trazado_166164" data-name="Trazado 166164" d="M371.619,251.965a1.4,1.4,0,0,1-1.4-1.4v-1.428a1.4,1.4,0,0,1,2.807,0v1.428a1.4,1.4,0,0,1-1.4,1.4Z" fill="#7b6c79"/>
      </g>
      <g id="Grupo_108491" data-name="Grupo 108491">
        <path id="Trazado_166165" data-name="Trazado 166165" d="M379.578,251.965a1.4,1.4,0,0,1-1.4-1.4v-1.428a1.4,1.4,0,0,1,2.807,0v1.428a1.4,1.4,0,0,1-1.4,1.4Z" fill="#7b6c79"/>
      </g>
      <path id="Trazado_166166" data-name="Trazado 166166" d="M367.639,258h-6.9a1.5,1.5,0,0,0-1.5,1.5v12.672l7.086-.1,1.312,2.182Z" fill="#80b4fb"/>
      <g id="Grupo_108493" data-name="Grupo 108493">
        <path id="Trazado_166167" data-name="Trazado 166167" d="M395.039,270.339c-2.006-3.236-5.593-1.212-5.9-1.06l-15.461,6.467a3.611,3.611,0,0,0-2.712-4.294c-4.395-1.223-7.018-1.989-8.794-2.44h-1.348l-4.517.884-7.421,4.531-5.772,7.1.718,1.123,6.74,4.054,1.49.247a9.115,9.115,0,0,1,6.533-.432l7.675,2.135a9.526,9.526,0,0,0,7.307-1.242l0,0,19.682-11.4c.591-.389,3.533-2.621,1.774-5.674Z" fill="#ffcebe"/>
        <g id="Grupo_108492" data-name="Grupo 108492">
          <path id="Trazado_166168" data-name="Trazado 166168" d="M344.837,282.374a1.163,1.163,0,0,1-.32-1.665,32.616,32.616,0,0,1,10.047-9.213,16.62,16.62,0,0,1,7.612-2.484,11.133,11.133,0,0,0-4.273-.508h0c-7.178.807-8.473,1.007-11.867,2.993a32.676,32.676,0,0,0-10.432,9.763l.4.925,12.163,7.7h1l.107-.2a6.5,6.5,0,0,1,2.79-2.738Z" fill="#ffb1a0"/>
        </g>
        <path id="Trazado_166169" data-name="Trazado 166169" d="M349.83,290.308l-9.642-6.133-1.069-.307-.889.725-2.667,5.067,11.579,7.4.791-.243,2.438-4.364a1.611,1.611,0,0,0-.541-2.145Z" fill="#ecf4ff"/>
        <path id="Trazado_166170" data-name="Trazado 166170" d="M338.463,285.1a1.9,1.9,0,0,1,1.725-.926l-5.267-3.35a1.61,1.61,0,0,0-2.248.534l-2.486,4.17.363.927,5.145,3.289Z" fill="#cbe2ff"/>
        <path id="Trazado_166171" data-name="Trazado 166171" d="M348.419,297.126l-13.268-8.439-.772.216L327.1,301.6l-.218.655.334.247h18.039a1.941,1.941,0,0,0,1.7-1l1.762-3.187a.892.892,0,0,0-.3-1.185Z" fill="#bd7b62"/>
        <path id="Trazado_166172" data-name="Trazado 166172" d="M327.364,301.865l7.425-12.589a.753.753,0,0,1,.711-.367l-5.414-3.444a.893.893,0,0,0-1.248.3L320.091,300.6a1.263,1.263,0,0,0,1.088,1.9h6.041a1.052,1.052,0,0,1,.144-.635Z" fill="#ad6a50"/>
        <path id="Trazado_166173" data-name="Trazado 166173" d="M376.458,276.2l.378-1.775-3.154,1.319a2.328,2.328,0,0,1-.339.707,1.325,1.325,0,0,1-1.41.513c-2.8-.371-9.455-1.227-9.522-1.235a1.4,1.4,0,1,0-.358,2.784c.067.008,6.72.863,9.511,1.233a5.141,5.141,0,0,0,.686.047,4.316,4.316,0,0,0,4.208-3.593Z" fill="#ffb1a0"/>
      </g>
    </g>
    <g id="Grupo_108496" data-name="Grupo 108496">
      <path id="Trazado_166174" data-name="Trazado 166174" d="M440.763,251.587A29.891,29.891,0,1,1,410.872,221.7,29.89,29.89,0,0,1,440.763,251.587Z" fill="#ff8b00"/>
      <path id="Trazado_166175" data-name="Trazado 166175" d="M410.872,221.7v59.783a29.891,29.891,0,0,0,0-59.783Z" fill="#ed500a"/>
      <path id="Trazado_166176" data-name="Trazado 166176" d="M385.623,235.582a29.894,29.894,0,1,0,50.518,31.976Z" fill="#6e6e6e"/>
      <path id="Trazado_166177" data-name="Trazado 166177" d="M410.88,251.569l-25.257-15.987a29.905,29.905,0,0,0,.347,32.541Z" fill="#ffa300"/>
      <path id="Trazado_166178" data-name="Trazado 166178" d="M385.623,235.582a29.951,29.951,0,0,0-3.975,22.3l29.238-6.311Z" fill="#ffe3dc"/>
      <path id="Trazado_166179" data-name="Trazado 166179" d="M385.623,235.582a29.752,29.752,0,0,0-4.642,16.005h29.927Z" fill="#ffc50d"/>
      <path id="Trazado_166180" data-name="Trazado 166180" d="M413.7,221.829a29.9,29.9,0,0,1-2.823,58.165v1.483a29.891,29.891,0,0,0,2.823-59.648Z" fill="#db3317"/>
      <path id="Trazado_166181" data-name="Trazado 166181" d="M431.8,264.811a29.884,29.884,0,0,1-26.295,15.665c-.952,0-1.894-.047-2.823-.134a29.933,29.933,0,0,0,33.458-12.784Z" fill="#5c5c5c"/>
      <g id="Grupo_108495" data-name="Grupo 108495">
        <path id="Trazado_166182" data-name="Trazado 166182" d="M413.793,283.087h-9.736a1.049,1.049,0,0,1-1.049-1.048v-3.2h11.834v3.2A1.049,1.049,0,0,1,413.793,283.087Z" fill="#ffc50d"/>
        <path id="Trazado_166183" data-name="Trazado 166183" d="M403.008,274.6h11.834v4.246H403.008Z" fill="#ffc50d"/>
        <path id="Trazado_166184" data-name="Trazado 166184" d="M403.008,270.349h11.834V274.6H403.008Z" fill="#ffc50d"/>
        <path id="Trazado_166185" data-name="Trazado 166185" d="M414.842,270.349H403.008v-3.2a1.049,1.049,0,0,1,1.049-1.049h9.736a1.049,1.049,0,0,1,1.049,1.049Z" fill="#ffc50d"/>
      </g>
      <path id="Trazado_166186" data-name="Trazado 166186" d="M411.64,278.841v1.81a1.114,1.114,0,0,1-1.114,1.114h-7.518v.1a1.218,1.218,0,0,0,1.218,1.218h9.4a1.218,1.218,0,0,0,1.218-1.218v-3.028Z" fill="#ffa300"/>
      <path id="Trazado_166187" data-name="Trazado 166187" d="M411.64,274.6v1.81a1.114,1.114,0,0,1-1.114,1.114h-7.518v1.322h11.834V274.6Z" fill="#ffa300"/>
      <path id="Trazado_166188" data-name="Trazado 166188" d="M411.64,270.349v1.81a1.114,1.114,0,0,1-1.114,1.114h-7.518V274.6h11.834v-4.246Z" fill="#ffa300"/>
      <path id="Trazado_166189" data-name="Trazado 166189" d="M437.459,283.087h-9.735a1.049,1.049,0,0,1-1.049-1.048v-3.2h11.834v3.2A1.049,1.049,0,0,1,437.459,283.087Z" fill="#ffc50d"/>
      <path id="Trazado_166190" data-name="Trazado 166190" d="M426.675,274.6h11.834v4.246H426.675Z" fill="#ffc50d"/>
      <path id="Trazado_166191" data-name="Trazado 166191" d="M435.306,278.841v1.81a1.113,1.113,0,0,1-1.113,1.114h-7.518v.1a1.218,1.218,0,0,0,1.218,1.218h9.4a1.217,1.217,0,0,0,1.217-1.218v-3.028Z" fill="#ffa300"/>
      <path id="Trazado_166192" data-name="Trazado 166192" d="M435.306,274.6v1.81a1.113,1.113,0,0,1-1.113,1.114h-7.518v1.322h11.834V274.6Z" fill="#ffa300"/>
      <path id="Trazado_166193" data-name="Trazado 166193" d="M413.624,266.1H411.64v1.81a1.113,1.113,0,0,1-1.114,1.113h-7.518v1.323h11.834v-3.028A1.218,1.218,0,0,0,413.624,266.1Z" fill="#ffa300"/>
      <path id="Trazado_166194" data-name="Trazado 166194" d="M438.509,274.6H426.675v-3.2a1.049,1.049,0,0,1,1.049-1.049h9.735a1.049,1.049,0,0,1,1.05,1.049Z" fill="#ffc50d"/>
      <path id="Trazado_166195" data-name="Trazado 166195" d="M437.291,270.349h-1.985v1.81a1.113,1.113,0,0,1-1.113,1.114h-7.518V274.6h11.834v-3.028A1.218,1.218,0,0,0,437.291,270.349Z" fill="#ffa300"/>
      <path id="Trazado_166196" data-name="Trazado 166196" d="M425.626,283.087h-9.735a1.048,1.048,0,0,1-1.049-1.048v-3.2h11.833v3.2A1.049,1.049,0,0,1,425.626,283.087Z" fill="#ffc50d"/>
      <path id="Trazado_166197" data-name="Trazado 166197" d="M414.842,274.6h11.833v4.246H414.842Z" fill="#ffc50d"/>
      <path id="Trazado_166198" data-name="Trazado 166198" d="M414.842,270.349h11.833V274.6H414.842Z" fill="#ffc50d"/>
      <path id="Trazado_166199" data-name="Trazado 166199" d="M423.473,278.841v1.81a1.113,1.113,0,0,1-1.113,1.114h-7.518v.1a1.217,1.217,0,0,0,1.217,1.218h9.4a1.218,1.218,0,0,0,1.218-1.218v-3.028Z" fill="#ffa300"/>
      <path id="Trazado_166200" data-name="Trazado 166200" d="M423.473,274.6v1.81a1.113,1.113,0,0,1-1.113,1.114h-7.518v1.322h11.833V274.6Z" fill="#ffa300"/>
      <path id="Trazado_166201" data-name="Trazado 166201" d="M423.473,270.349v1.81a1.113,1.113,0,0,1-1.113,1.114h-7.518V274.6h11.833v-4.246Z" fill="#ffa300"/>
      <path id="Trazado_166202" data-name="Trazado 166202" d="M414.842,266.1h11.833v4.246H414.842Z" fill="#ffc50d"/>
      <path id="Trazado_166203" data-name="Trazado 166203" d="M423.473,266.1v1.81a1.113,1.113,0,0,1-1.113,1.113h-7.518v1.323h11.833V266.1Z" fill="#ffa300"/>
      <path id="Trazado_166204" data-name="Trazado 166204" d="M414.842,261.857h11.833V266.1H414.842Z" fill="#ffc50d"/>
      <path id="Trazado_166205" data-name="Trazado 166205" d="M426.675,261.857H414.842v-3.2a1.048,1.048,0,0,1,1.049-1.049h9.735a1.049,1.049,0,0,1,1.049,1.049Z" fill="#ffc50d"/>
      <path id="Trazado_166206" data-name="Trazado 166206" d="M423.473,261.857v1.81a1.113,1.113,0,0,1-1.113,1.113h-7.518V266.1h11.833v-4.246Z" fill="#ffa300"/>
      <path id="Trazado_166207" data-name="Trazado 166207" d="M425.457,257.611h-1.984v1.81a1.113,1.113,0,0,1-1.113,1.113h-7.518v1.323h11.833v-3.028A1.218,1.218,0,0,0,425.457,257.611Z" fill="#ffa300"/>
    </g>
  </g>
</svg>
