<svg xmlns="http://www.w3.org/2000/svg" xmlns:xlink="http://www.w3.org/1999/xlink" width="362" height="684" viewBox="0 0 362 684">
  <defs>
    <clipPath id="clip-path">
      <rect id="Rectángulo_32505" data-name="Rectángulo 32505" width="362" height="684" fill="none"/>
    </clipPath>
    <linearGradient id="linear-gradient" x1="0.197" y1="0.954" x2="0.745" y2="0.133" gradientUnits="objectBoundingBox">
      <stop offset="0" stop-color="#39c7ff"/>
      <stop offset="1" stop-color="#22ecfc"/>
    </linearGradient>
    <linearGradient id="linear-gradient-2" x1="1.688" y1="2.084" x2="0.469" y2="1.457" gradientUnits="objectBoundingBox">
      <stop offset="0.292" stop-color="#18a7d3"/>
      <stop offset="1" stop-color="#39c7ff"/>
    </linearGradient>
    <linearGradient id="linear-gradient-3" x1="0.787" y1="1.341" x2="0.394" y2="0.239" gradientUnits="objectBoundingBox">
      <stop offset="0" stop-color="#22ecfc"/>
      <stop offset="1" stop-color="#39c7ff"/>
    </linearGradient>
    <linearGradient id="linear-gradient-4" x1="1.135" y1="1.077" x2="0.235" y2="0.23" xlink:href="#linear-gradient-2"/>
    <linearGradient id="linear-gradient-5" x1="1.467" y1="3.274" x2="1.171" y2="1.757" xlink:href="#linear-gradient-3"/>
  </defs>
  <g id="Grupo_94715" data-name="Grupo 94715" transform="translate(-315.523)">
    <g id="Grupo_94775" data-name="Grupo 94775" transform="translate(315.523)" clip-path="url(#clip-path)">
      <g id="Grupo_94774" data-name="Grupo 94774" transform="translate(-432.898)">
        <rect id="Rectángulo_32485" data-name="Rectángulo 32485" width="1029.001" height="686.001" fill="url(#linear-gradient)"/>
        <g id="Grupo_94773" data-name="Grupo 94773" transform="translate(356.935 89.069)">
          <g id="Grupo_94772" data-name="Grupo 94772">
            <g id="Grupo_94719" data-name="Grupo 94719" transform="translate(90.958 137.022)">
              <g id="Grupo_94715-2" data-name="Grupo 94715" transform="translate(395.908 92.546)">
                <path id="Trazado_163508" data-name="Trazado 163508" d="M623.509,344.385c-3.054-8.1-6.922-16.028-8.151-24.6s.745-18.248,7.512-23.652,18.761-3.939,22,4.091c1.31,3.242,2,7.885,5.484,8.2,3.289.294,5-3.949,4.816-7.246-.309-5.386-2.749-10.381-4.722-15.4s-3.521-10.585-1.991-15.76,7.252-9.409,12.308-7.521c1.886.7,3.507,2.158,5.5,2.415,3.357.433,6.2-2.766,7.045-6.044s.375-6.747.793-10.108c1.476-11.816,15.937-19.949,26.8-15.073s14.4,21.086,6.549,30.041c-2.433,2.776-5.673,4.858-7.616,8s-1.885,8.067,1.406,9.737c3.337,1.692,7.165-1.026,10.892-1.334,6.2-.509,11.1,6.336,10.535,12.528s-4.978,11.364-9.852,15.222-10.43,6.89-14.8,11.311c-1.533,1.549-2.992,3.759-2.139,5.764,1.367,3.213,6.066,1.878,9.533,1.475,8.294-.966,15.375,7.6,15.44,15.947S715.875,358.275,710,364.211h0c-9.476,9.574-21.3,16.239-33.079,22.543-11.407,6.105-22.349,14.375-33.878,19.92-16.218,7.8-10.569-13.048-11.16-22.858A135.02,135.02,0,0,0,623.509,344.385Z" transform="translate(-615.015 -232.242)" fill="url(#linear-gradient-2)"/>
                <path id="Trazado_163509" data-name="Trazado 163509" d="M689.382,334.255c.424-.353-.189-.951-.609-.6-21.1,17.546-39.667,37.471-54.768,60.346a799.9,799.9,0,0,0,32.025-84.145.463.463,0,0,0,.041-.034,151.8,151.8,0,0,1,25.294-20.96c.46-.3.028-1.043-.432-.738a152.833,152.833,0,0,0-24.341,19.948q2.941-9.341,5.659-18.751,5.017-17.433,9.232-35.081a.428.428,0,0,0-.831-.2q-4.408,18.425-9.695,36.624-3.034-8.948-6.068-17.895c-.177-.52-1-.291-.825.232q3.215,9.477,6.428,18.953a.47.47,0,0,0,.06.117q-9.391,32.163-21.464,63.458a261.517,261.517,0,0,0-12.753-47.833c-.191-.513-1.017-.285-.825.232a261.609,261.609,0,0,1,12.975,49.152q-3.638,9.374-7.506,18.659Q634.061,392.3,626.4,408.541c-.233.5.512.919.746.42q2.383-5.057,4.687-10.15a.411.411,0,0,0,.185-.158C647.546,374.051,667.049,352.829,689.382,334.255Z" transform="translate(-610.797 -224.253)" fill="#2c97c6"/>
              </g>
              <g id="Grupo_94716" data-name="Grupo 94716" transform="translate(35.587 0)">
                <path id="Trazado_163510" data-name="Trazado 163510" d="M381.347,289.713c-6.911-4.025-14.3-7.45-20.177-12.875s-10.1-13.507-8.4-21.322,11.146-13.756,18.149-9.892c2.826,1.56,6.029,4.484,8.7,2.677,2.527-1.707,1.283-5.746-.772-8-3.36-3.68-8.019-5.835-12.359-8.284s-8.692-5.532-10.611-10.129-.287-10.968,4.434-12.562c1.763-.6,3.77-.5,5.352-1.478,2.658-1.646,2.83-5.6,1.526-8.436s-3.665-5.052-5.322-7.7c-5.828-9.324-.207-23.579,10.416-26.415s22.6,6.717,22.2,17.706c-.126,3.407-1.235,6.787-.8,10.168s3.349,6.878,6.68,6.156c3.376-.733,4.534-4.91,7.027-7.3,4.142-3.976,11.643-1.928,14.848,2.835S425.3,205.9,424.058,211.5s-3.456,11.014-4.012,16.729c-.195,2,.045,4.437,1.826,5.377,2.851,1.505,5.44-2.19,7.689-4.5,5.38-5.524,15.443-3.516,20.355,2.427s5.7,14.3,4.952,21.975h0c-1.21,12.382-5.8,24.048-10.562,35.428-4.614,11.023-7.635,23.323-12.662,34.015-7.073,15.041-15.177-3.19-21.317-9.873A124.708,124.708,0,0,0,381.347,289.713Z" transform="translate(-352.391 -164.789)" fill="url(#linear-gradient-3)"/>
                <path id="Trazado_163511" data-name="Trazado 163511" d="M423.861,239.307c.1-.5-.69-.572-.788-.077-4.89,24.866-6.584,49.963-4.071,75.151a738.82,738.82,0,0,0-26.093-78.948.285.285,0,0,0,.01-.049,140.2,140.2,0,0,1,5.908-29.757c.152-.484-.587-.763-.741-.277a141.236,141.236,0,0,0-5.813,28.476q-3.338-8.4-6.874-16.732-6.563-15.414-13.828-30.513a.4.4,0,0,0-.715.336q7.58,15.773,14.4,31.891l-14.776-9.286c-.429-.269-.886.376-.456.648L385.673,220a.434.434,0,0,0,.111.048q12.015,28.516,21.6,57.973a241.451,241.451,0,0,0-37.011-26.839c-.436-.257-.895.388-.455.646a241.686,241.686,0,0,1,37.94,27.654q2.854,8.837,5.495,17.743,4.7,15.9,8.672,32.007c.121.491.9.361.778-.134q-1.239-5.011-2.557-10a.375.375,0,0,0,.041-.221C417.078,292.2,418.684,265.629,423.861,239.307Z" transform="translate(-345.936 -156.763)" fill="#2c97c6"/>
              </g>
              <g id="Grupo_94717" data-name="Grupo 94717" transform="translate(0 92.503)">
                <path id="Trazado_163512" data-name="Trazado 163512" d="M381.163,311.653c-5.878-.044-11.842.473-17.571-.84s-11.377-4.924-13.149-10.53,2.083-12.845,7.96-12.939c2.374-.038,5.484.657,6.529-1.473.989-2.011-1.28-4.132-3.414-4.819-3.489-1.118-7.247-.792-10.91-.767s-7.562-.353-10.468-2.585-4.19-6.89-1.76-9.631c.905-1.023,2.223-1.694,2.873-2.9,1.093-2.021-.239-4.6-2.109-5.938s-4.183-1.884-6.21-2.969c-7.123-3.817-8.747-14.962-3.007-20.653s16.87-3.973,20.627,3.182c1.165,2.219,1.693,4.78,3.208,6.776s4.648,3.162,6.51,1.484c1.885-1.7,1.1-4.788,1.814-7.224,1.188-4.05,6.72-5.484,10.505-3.618s5.983,5.927,7.239,9.955,1.819,8.288,3.552,12.137c.608,1.349,1.65,2.813,3.129,2.762,2.368-.082,2.67-3.385,3.26-5.68,1.413-5.488,8.564-7.885,13.87-5.889s8.86,7.038,11.186,12.207h0c3.752,8.339,5.089,17.456,6.208,26.454,1.084,8.715,3.651,17.665,4.352,26.32.985,12.177-10.846,3.511-17.2,1.491A91.706,91.706,0,0,0,381.163,311.653Z" transform="translate(-326.452 -232.211)" fill="url(#linear-gradient-4)"/>
                <path id="Trazado_163513" data-name="Trazado 163513" d="M392.195,261.324c-.119-.354-.649-.113-.53.239a188.316,188.316,0,0,0,24.861,49.418,543.164,543.164,0,0,0-45.485-40.818.369.369,0,0,0-.012-.036,102.994,102.994,0,0,1-7.1-21.137c-.08-.364-.654-.27-.574.095a103.819,103.819,0,0,0,6.7,20.285q-5.2-4.141-10.5-8.159-9.817-7.434-19.967-14.409a.291.291,0,0,0-.333.476q10.6,7.289,20.834,15.078l-12.816-.523c-.373-.015-.428.562-.055.579l13.575.553a.3.3,0,0,0,.088-.01q18.082,13.8,34.959,29.081a177.518,177.518,0,0,0-33.411-3.595c-.372,0-.428.573-.053.579a177.49,177.49,0,0,1,34.3,3.776q5.05,4.591,9.987,9.308,8.806,8.428,17.225,17.245c.257.269.707-.1.447-.37q-2.62-2.743-5.285-5.445a.273.273,0,0,0-.055-.155A186.324,186.324,0,0,1,392.195,261.324Z" transform="translate(-321.738 -226.803)" fill="#2c97c6"/>
              </g>
              <g id="Grupo_94718" data-name="Grupo 94718" transform="translate(416.347 191.441)">
                <path id="Trazado_163514" data-name="Trazado 163514" d="M649.611,350.145c.973-6.038,1.386-12.252,3.641-17.936s6.86-10.918,12.9-11.854,12.879,4.171,12.047,10.23c-.336,2.446-1.542,5.533.483,6.947,1.911,1.334,4.452-.664,5.493-2.749,1.7-3.409,1.959-7.325,2.514-11.1s1.558-7.722,4.312-10.356,7.746-3.22,10.181-.288c.91,1.093,1.391,2.553,2.525,3.412,1.906,1.445,4.77.482,6.44-1.231s2.6-4,4.034-5.915c5.05-6.721,16.766-6.629,21.711.172s1.42,17.975-6.532,20.706c-2.464.846-5.182.985-7.473,2.227s-3.987,4.281-2.556,6.459c1.45,2.208,4.75,1.887,7.143,3.006,3.975,1.863,4.576,7.778,2.058,11.374s-7.04,5.218-11.381,5.869-8.81.561-13.039,1.736c-1.483.412-3.153,1.253-3.334,2.781-.291,2.449,3.057,3.279,5.323,4.249,5.421,2.32,6.754,10.053,3.864,15.191s-8.637,8-14.318,9.574h0c-9.168,2.541-18.754,2.474-28.182,2.2-9.132-.262-18.74.963-27.752.316-12.676-.912-1.895-11.706,1.185-17.924A95.356,95.356,0,0,0,649.611,350.145Z" transform="translate(-628.506 -304.323)" fill="url(#linear-gradient-5)"/>
                <path id="Trazado_163515" data-name="Trazado 163515" d="M694.716,368.88c.383-.067.218-.649-.162-.582a195.878,195.878,0,0,0-54.742,17.751,564.585,564.585,0,0,0,49.159-40.318.209.209,0,0,0,.039-.007,107.2,107.2,0,0,1,22.856-3.964c.388-.025.383-.628-.007-.605a108.015,108.015,0,0,0-21.915,3.68q5.079-4.692,10.049-9.5,9.193-8.919,17.972-18.253c.266-.283-.17-.7-.438-.418q-9.171,9.742-18.8,19.039,1.282-6.549,2.563-13.1c.074-.38-.51-.53-.586-.147q-1.358,6.935-2.715,13.87a.352.352,0,0,0,0,.092q-17.044,16.412-35.428,31.349a184.658,184.658,0,0,0,8.977-33.786c.063-.381-.523-.531-.587-.147a184.741,184.741,0,0,1-9.3,34.672q-5.521,4.466-11.15,8.8-10.055,7.724-20.454,14.986c-.317.222-.01.742.31.519q3.235-2.262,6.435-4.574a.278.278,0,0,0,.167-.032A193.881,193.881,0,0,1,694.716,368.88Z" transform="translate(-629.912 -299.769)" fill="#2c97c6"/>
              </g>
            </g>
            <ellipse id="Elipse_4244" data-name="Elipse 4244" cx="308.335" cy="25.981" rx="308.335" ry="25.981" transform="translate(0 427.417)" fill="#29c0ef" opacity="0.6" style="mix-blend-mode: multiply;isolation: isolate"/>
            <path id="Trazado_163516" data-name="Trazado 163516" d="M650.487,375.978c21.387-20.6,48.69-60.1,36.907-121.489-16.749-87.185-96.428-91.536-96.428-91.536l47.822-56.569C818.57,209.258,703.455,331.41,650.487,375.978Z" transform="translate(-137.095 -49.494)" fill="#fff" style="mix-blend-mode: overlay;isolation: isolate"/>
            <g id="Grupo_94721" data-name="Grupo 94721" transform="translate(171.657 53.999)">
              <circle id="Elipse_4245" data-name="Elipse 4245" cx="168.839" cy="168.839" r="168.839" transform="translate(21.674 31.782)" fill="#0086a4"/>
              <path id="Trazado_163517" data-name="Trazado 163517" d="M620.446,134.745A159.674,159.674,0,1,1,419.558,382.594,168.854,168.854,0,1,0,620.446,134.745Z" transform="translate(-372.516 -92.942)" fill="#066170"/>
              <g id="Grupo_94720" data-name="Grupo 94720" transform="translate(32.462 31.804)">
                <path id="Trazado_163518" data-name="Trazado 163518" d="M409.134,246.5c2.605-3.411,2.605-3.411,4.8-4.71-7.4,29.508-9.157,36.517,12.909,58.391-.756,3.768-4.552,5.971-5.075,9.859-.285,2.124,1.339,9.541,2.051,12.631.648,2.81,2.242,8.8,3.977,13.787,4.947,14.211,6.774,14.918,12.194,17.016,1.357.525,3.573,1.272,4.069,2.641,4.264,11.748-.62,24.509,4.012,36.217,7.569,19.131,19.654,34.2,30.069,37.5-11.134-11.2-8.168-26.743-12.374-40.078.428-.508,1-1.184,1.428-1.692,7.5.1,5.208-9.249,7.91-13.817,5.087-.525,10.474,2.98,15.294-1.139-.184-5.4-6.807-8.987-4.275-15.155,2.959-7.21,12.274-6.738,15.895-13.148.856-1.516-6.037-13.871-20.245-18.459-10.06-3.247-11.194-4.577-12.194-5.749-3.069-3.592-1.361-8.8-4.23-12.465-3.084-3.935-9.113-3.526-11.821-8.014-1.736-2.877-1.736-2.877-1.487-8.59-14.908-3.637-18.566-2.885-19.332-2.568-3.6,1.491-4.152,1.719-6.169-.626-1.425-1.659-13.288-25.242-9.239-37.21,6.07-17.942,6.543-16.933,18.692,8.908l1.572.123c3.735-7.468,2.079-16.667,7.578-23.567,7.232-9.074,18.624-12.495,27.074-19.912.008-.233,4.781-19.676,17.058-8.7,1.2-8.829,5.1-17.234,4.142-26.4-.781.123-.781.123-4.514,1.67l-1.237-.916c1.416-6.621,15.137-17.291,5.828-19.386-8.491,6.125-10.929,17.7-20.536,22.816-2.053-4.489,2.048-8.672.653-13.13a25.155,25.155,0,0,0-3.536.888c10.007-15.232,29.816-14.583,42.16-26.028-1.251-.13-2.921-.306-4.174-.44,6.433-4.249,13.48-7.45,19.911-11.7-14.182,3.455-14.182,3.455-24.147,4.872,3.562-2.737,9.186-2.147,11.495-6.9a169.305,169.305,0,0,0-101.457,89.56C407.663,238.168,409.085,246.355,409.134,246.5Z" transform="translate(-408.931 -125.277)" fill="#a4e53a"/>
                <path id="Trazado_163519" data-name="Trazado 163519" d="M580.348,134.181C562.2,129.5,562.2,129.5,554.865,128.335c6.326,1.605,6.326,1.605,8.731,2.594l-1.552-.062c10.917,3.689,14.211,4.8,31.9,16.416-6.244-2.365-6.244-2.365-8.505-2.788,7.272,6.234,7.272,6.234,10.538,9.6-10.84-8.128-19.824-13.477-23.583-15.007,9.043,8.875,9.216,9.046,16.857,14.775a102.735,102.735,0,0,0-10.286-3.2c-1.988,21.167-1.988,21.167-3.221,22.274-4.224-2.66-4.224-2.66-1.967-11.163-8.637-9.837-10.987-9.884-16.667-10-7.541,8.786-13.58,34.3-11.94,38.682a19.736,19.736,0,0,0,5.428-1.332,57.524,57.524,0,0,0-.246,10.382l1.472.63c5.443-3.165,5.443-3.165,5.629-24.306,5.952-4.974,5.952-4.974,7.314-5.533.242,4.89-.859,9.737-.444,14.632,3.71-.051,7.045-2.2,10.813-1.933.674,10.3-11.7,28.081-13.52,29.613-.466.392-.466.392-16.828-4.109-4.881,3.725-10.6,16.5-11.025,18.123-1.517,5.8-2.828,10.82-22.975,15.733.351,2.526.351,2.526,3.639,5.6,10.943,10.235,29.325,1.537,29.289-10.589,29.4,12.905,31.161,13.678,46.957-8.583,6.27-8.836,15.054,2.763,15.476,5.1-5.651,6.544-19.6,3.223-20.3,15.14,4.551,3.674,10.729,1.692,15.536,4.475.993,14.783-25.677.638-27.429,15.351-6.336,3.082-10.43-1.2-19.4-10.569C543.85,247.106,484.7,280.67,488.3,324.9c.535,6.564,17.63,31.313,39.257,21.164,29.2-13.7,34.359,2.872,34.393,3.047-8.478,9.577.331,22.095-5.471,32.127-7.162,12.384,5.525,27.365-5.144,39.289.136.155,16.555,10.626,38.085-24.272,3.263-5.288,3.263-5.288,4.932-5.934.719,2.736,1.069,5.554,1.823,8.281.549.28,1.281.652,1.832.93,4.433-2.228,16.166-15.432,19.9-24.5,1.2-2.9,1.2-2.9-4.01-19.268-.875-2.754.783-6,5.9-13.748,4.178-6.336,8.913-13.517,9.7-16.958.228-1,.473-2.346.593-3.364.266-2.282-.889-3.979-4.577-6.724-9.328-6.942-13-11.154-15.944-14.54-1.029-7.364-2.264-17.2-3.106-24.588,7.894,5.906,15.679,11.954,23.57,17.866.911-1.039,2.808-3.2-3.378-23.051,32.96,4.769,32.96,4.769,34,4.95,6.937,14.612,7.782,15.159,10.584,16.974,7.576-6.075,12.535-21.331,14.815-29.884,7.875,13.621,8.169,15.784,8.28,16.6,1.107,8.148,2.253,16.575,8.788,20.3-.207-2.49-.593-7.125-3.748-17.322,4.459-7.306,4.459-7.306-1.631-23.406a8.131,8.131,0,0,0,3.66-3.659,169.1,169.1,0,0,0-123.307-123.18C578.817,132.669,579.7,133.5,580.348,134.181Z" transform="translate(-379.464 -127.13)" fill="#a4e53a"/>
                <path id="Trazado_163520" data-name="Trazado 163520" d="M511.755,146.72c-6.2,4.982-12.938,9.245-19.034,14.363a22.726,22.726,0,0,0-1.786,1.775c-8.349,8.981-11.6,25.117-7.5,29.279a1.579,1.579,0,0,0,1.146-.424c6.78-4.788,8.463-13.747,15.195-18.574,6.089-4.364,14.833-.915,20.365-6.919,1.114-1.209,1.291-4.539,1.56-9.581.056-1.05.237-3.814.707-6.8,6.731-4.153,12.257-8.613,14.077-11.36,2.409-3.637,4.194-7.687,7.095-11-.626-.014-1.254-.018-1.881-.025-10.346,3.161-20.052,9.686-20.492,9.985C517.492,139.959,515.214,143.94,511.755,146.72Z" transform="translate(-381.872 -127.457)" fill="#a4e53a"/>
              </g>
              <path id="Trazado_163521" data-name="Trazado 163521" d="M674.155,297.217c-6.529-3.725-7.671-12.15-8.783-20.3-.112-.816-.408-2.98-8.284-16.6-2.275,8.549-7.232,23.81-14.812,29.881-2.795-1.817-3.643-2.357-10.58-16.976-.285-.041-.49-.082-1.336-.2q.307-4.912.306-9.915a159.444,159.444,0,0,0-64.69-128.359A169.163,169.163,0,0,1,672.564,253.318c-2.284,1.958-3.621,3.08-3.784,3.162,6.09,16.1,6.09,16.1,1.631,23.413C673.564,290.085,673.953,294.717,674.155,297.217Z" transform="translate(-318.048 -92.943)" fill="#92c927"/>
              <ellipse id="Elipse_4246" data-name="Elipse 4246" cx="123.635" cy="91.53" rx="123.635" ry="91.53" transform="matrix(0.771, -0.636, 0.636, 0.771, 0, 157.348)" fill="#fff" opacity="0.21" style="mix-blend-mode: overlay;isolation: isolate"/>
            </g>
            <path id="Trazado_163522" data-name="Trazado 163522" d="M667.292,182.211l-15.666-7.471c.862-.571,1.657-1.151,2.378-1.74l1.21-6.7-8.458-.062,17.394-31.111-8.387-.812a7.8,7.8,0,0,0-5.624,1.793c-.97.79-2.176,1.77-3.544,2.881-.912.74-1.9,1.538-2.932,2.376C639,145.132,633.3,149.716,628.5,153.495c-1.066.84-2.088,1.64-3.044,2.383q-.492.381-.975.744-.965.729-1.9,1.386c-.309.22-.616.432-.918.641-2.423,1.667-4.619,2.983-6.474,4.012q-.7.387-1.324.72c-1.885,1-3.3,1.663-4.079,2.073-.086.047-.165.088-.236.128a1.76,1.76,0,0,0-.41.281c-.036.041-.04.073-.018.1l-52.294-.38,9.509-14.188,12.021-17.935,9.339-13.565a9.347,9.347,0,0,0-6.429,2.227l-14.4,11.914L553.789,143.4c-.067-.016-.137-.029-.206-.044l-.171-.032a4.714,4.714,0,0,0-.759-.073l-10.681-.154c-.128-.012-.255-.025-.388-.026h-.35l-1.976-.012-.012.064c-1.893.359-3.7,3.014-4.171,6.255-.418,2.9.379,5.356,1.834,6.112l-10.825,7.753-.069,0-2.9,2.09L476.754,165s-14.855.054-20.343,5.891c-.3.327-.6.631-.892.922l-.218.217c-.906.895-1.715,1.613-2.441,2.206-.089.073-.173.143-.258.21-2.7,2.171-4.18,2.674-4.913,4.426l-.011-.011c-.055.129-.1.263-.151.407a1.868,1.868,0,0,0-.08.605v.029a3.2,3.2,0,0,0,.089.622,4.925,4.925,0,0,0,.311.9,8.833,8.833,0,0,0,1.179,1.852q.4.488.89.991.247.249.521.5.547.5,1.2,1a21.3,21.3,0,0,0,2.194,1.469,25.7,25.7,0,0,0,2.682,1.362,36.4,36.4,0,0,0,11.091,2.75q1.494.148,3.109.206l60.9,1.9c6.609,1.463,14.225,3.124,22.189,4.814-1.464.955-2.715,3.19-3.091,5.8-.424,2.939.4,5.411,1.885,6.137l-.037.2h.007l.826.012c.04,0,.077.011.115.011s.069-.007.1-.008l12.876.182a5.019,5.019,0,0,0,.591-.033c.042-.005.085-.015.127-.022.154-.021.309-.045.461-.081.038-.008.078-.022.118-.033.155-.038.309-.082.461-.136.034-.012.069-.027.1-.041.154-.056.306-.118.456-.188l.029-.012h-.006a7.309,7.309,0,0,0,3.241-3.19h0l.014-.029c.077-.145.145-.295.214-.446.022-.051.048-.1.069-.151.064-.152.122-.307.177-.465.018-.053.04-.106.058-.159.052-.158.095-.32.136-.482.015-.055.033-.11.047-.166.048-.209.088-.421.119-.637l.006-.026v-.015c.032-.222.052-.443.062-.66v-.014c0-.019,0-.038,0-.059.01-.23.005-.456-.007-.678,0-.07-.011-.14-.018-.209-.014-.152-.031-.3-.055-.45,14.822,2.985,29.015,5.611,38.437,6.813,5.515.7,9.266,1.006,10.383.745.037-.008.078-.015.108-.025.141-.044.273-.092.41-.139a21.591,21.591,0,0,0,5.813-2.891c.281-.2.526-.39.749-.571l14.653-11.16-9.843,1.461a12.783,12.783,0,0,0-4.854,1.814l-6.579,4.1,0,0-2.054-.572h0l-27.776-7.779.419-.085.107-.022c.4-.084.827-.17,1.264-.262l.188-.038c.427-.089.866-.181,1.32-.279l.056-.011,1.452-.311.241-.052q1.5-.325,3.146-.694l.265-.06q1.665-.375,3.452-.793l.254-.059q.91-.214,1.845-.438h0c.61-.147,1.231-.3,1.856-.45l.263-.066q.945-.231,1.909-.473l.156-.04q.908-.228,1.829-.465l.254-.066q.973-.251,1.961-.512l.247-.066q.916-.243,1.84-.494l.229-.062q1-.272,2-.552l.284-.081q.947-.265,1.9-.538l.167-.048q.831-.241,1.664-.486h0c.115-.033.229-.069.343-.1s.218-.066.328-.1c.657-.2,1.314-.4,1.972-.6l.047-.014.344-.107.156-.048q.751-.235,1.5-.472c.121-.037.24-.075.361-.114q.514-.165,1.026-.332l.192-.062q1.367-.447,2.715-.908l.351-.121q.978-.338,1.941-.682h.006c.284-.1.564-.2.845-.307l.049-.018q.49-.179.977-.361l.337-.126q.93-.35,1.841-.707l.038-.014h0q1.183-.463,2.325-.94l14.34,4.373a15.256,15.256,0,0,0,8.416.04l5.982-1.616Z" transform="translate(-190.484 -44.474)" fill="#033656" opacity="0.24" style="mix-blend-mode: multiply;isolation: isolate"/>
            <g id="Grupo_94733" data-name="Grupo 94733" transform="translate(237.706 24.106)">
              <g id="Grupo_94723" data-name="Grupo 94723" transform="translate(106.66 19.812)">
                <path id="Trazado_163523" data-name="Trazado 163523" d="M515.737,96.929l16.325,2.718c3.717.587,6.237,4.481,5.631,8.7s-4.11,7.158-7.827,6.571L512.893,112.1Z" transform="translate(-510.503 -96.929)" fill="#e3e8e8"/>
                <path id="Trazado_163524" data-name="Trazado 163524" d="M512.923,99.912,537.868,104c.031.132.063.263.089.4a8.5,8.5,0,0,1,.137,2.006,8.289,8.289,0,0,1-.078.837,8.5,8.5,0,0,1-1.022,3l-24.97-4.079Z" transform="translate(-510.827 -95.819)" fill="#c2cece"/>
                <path id="Trazado_163525" data-name="Trazado 163525" d="M513.018,107.494l19.707,3.252a6.044,6.044,0,0,1-2.859.239l-16.973-2.819Z" transform="translate(-510.503 -92.999)" fill="#fff"/>
                <path id="Trazado_163526" data-name="Trazado 163526" d="M515.211,96.929l16.325,2.718a7.011,7.011,0,0,1,5.572,5.854l-22.8-3.741Z" transform="translate(-509.978 -96.929)" fill="#e3e5e5"/>
                <path id="Trazado_163527" data-name="Trazado 163527" d="M512.959,111.741c2.416-.617,3.632-3.379,4.123-6.791.445-3.09.167-5.849-1.472-7.337l.128-.683,2.835.447a5.835,5.835,0,0,1,4.2,2.95,8.86,8.86,0,0,1,.955,5.672c-.608,4.215-3.633,7.233-7.35,6.646l-3.481-.549Z" transform="translate(-510.503 -96.929)" fill="#009eed"/>
                <path id="Trazado_163528" data-name="Trazado 163528" d="M522.716,101.462a9.736,9.736,0,0,1,.067,3.227,9.637,9.637,0,0,1-.945,3.014l-6.417-1.013a17.614,17.614,0,0,0,.886-6.243Z" transform="translate(-509.563 -95.62)" fill="#0a7aa5"/>
                <path id="Trazado_163529" data-name="Trazado 163529" d="M522.468,105.828a8.868,8.868,0,0,0-.953-5.672,5.84,5.84,0,0,0-4.2-2.95l.427.067a5.835,5.835,0,0,1,4.2,2.95,8.86,8.86,0,0,1,.955,5.672c-.608,4.215-3.633,7.233-7.35,6.646l-.425-.067C518.837,113.061,521.862,110.042,522.468,105.828Z" transform="translate(-509.675 -96.826)" fill="#064156"/>
                <g id="Grupo_94722" data-name="Grupo 94722" transform="translate(0 0.07)">
                  <path id="Trazado_163530" data-name="Trazado 163530" d="M511.287,103.924c.613-4.216,3.135-7.309,5.631-6.909s4.023,4.141,3.409,8.355-3.135,7.309-5.631,6.909S510.673,108.139,511.287,103.924Z" transform="translate(-511.151 -96.98)" fill="#fff"/>
                  <path id="Trazado_163531" data-name="Trazado 163531" d="M511.678,103.8c-.55,3.776.788,7.134,2.983,7.486a3.12,3.12,0,0,0,2.664-1.065,10.323,10.323,0,0,0,1.5-10.91,3.164,3.164,0,0,0-2.169-1.725C514.459,97.232,512.226,100.02,511.678,103.8Z" transform="translate(-511.002 -96.766)" fill="#035b82"/>
                  <path id="Trazado_163532" data-name="Trazado 163532" d="M516.654,97.584a2.533,2.533,0,0,1,1.12.484c-1.753.6-3.323,3.018-3.772,6.1s.361,5.883,1.865,7a2.48,2.48,0,0,1-1.206.114c-2.2-.351-3.533-3.71-2.984-7.487S514.46,97.232,516.654,97.584Z" transform="translate(-511.002 -96.766)" fill="#033656"/>
                </g>
                <path id="Trazado_163533" data-name="Trazado 163533" d="M518.375,100.656a11.053,11.053,0,0,1,0,3.261,10.653,10.653,0,0,1-1.132,3.521,3.5,3.5,0,0,1,1.136-6.782Z" transform="translate(-509.734 -95.543)" fill="#033656"/>
              </g>
              <g id="Grupo_94726" data-name="Grupo 94726" transform="translate(76.279)">
                <g id="Grupo_94724" data-name="Grupo 94724">
                  <path id="Trazado_163534" data-name="Trazado 163534" d="M572.281,93.96l-34.069,46.23-49.2-7.994L558.28,92.543Z" transform="translate(-489.008 -78.749)" fill="#fff"/>
                  <path id="Trazado_163535" data-name="Trazado 163535" d="M553.5,97.7l11.382-14.99h0a10.14,10.14,0,0,0-7.836,1.553L539.5,96.283Z" transform="translate(-470.225 -82.489)" fill="#009eed"/>
                </g>
                <g id="Grupo_94725" data-name="Grupo 94725" transform="translate(0 42.236)">
                  <path id="Trazado_163536" data-name="Trazado 163536" d="M547.07,120.459l-8.857,12.019-49.2-7.994,19.476-11.212Z" transform="translate(-489.008 -113.273)" fill="#e3e5e5"/>
                </g>
                <path id="Trazado_163537" data-name="Trazado 163537" d="M563.756,95.17l-29.731,40.346-26.1-8.21,44.062-30.719a10.388,10.388,0,0,1,6.8-1.832Z" transform="translate(-481.972 -77.939)" fill="#e3e5e5"/>
              </g>
              <g id="Grupo_94728" data-name="Grupo 94728" transform="translate(0 30.325)">
                <path id="Trazado_163538" data-name="Trazado 163538" d="M461.77,139.97l141.1,25.875s63.06-1.86,82.283-14.814l1.475-8.041-217.5-34.632s-18.1-2.682-24.791,3.5c-.373.346-.737.665-1.089.97-.086.077-.177.154-.265.228a33.3,33.3,0,0,1-2.976,2.267c-.108.074-.21.144-.313.211-3.536,2.337-5.369,2.538-6.185,5.005C432.389,123.912,440.776,136.042,461.77,139.97Z" transform="translate(-433.411 -103.406)" fill="#fff"/>
                <path id="Trazado_163539" data-name="Trazado 163539" d="M600.538,136.854l17.9,5.23-1.174,2.788c-7.882,2.743-17.916,4.765-27.989,6.247l8.774-10.2Z" transform="translate(-375.431 -92.59)" fill="#e3e5e5"/>
                <path id="Trazado_163540" data-name="Trazado 163540" d="M458.815,129.318l147.755,27.7s31.605.829,59.413-1.966c-25.965,6.367-63.116,7.464-63.116,7.464L461.77,136.64c-20.994-3.928-29.381-16.058-28.26-19.434.056-.169.117-.325.183-.475C437.794,121.4,445.925,126.9,458.815,129.318Z" transform="translate(-433.411 -100.075)" fill="#e3e5e5"/>
                <path id="Trazado_163541" data-name="Trazado 163541" d="M438.219,113.951a37.271,37.271,0,0,1,4.4,3.345,4.136,4.136,0,0,0,2.135.967,12.629,12.629,0,0,0,3.556.122c1.376-.313,3.7-4.41,3.7-4.41a18.8,18.8,0,0,1-10.552-2.519c-.086.077-.177.154-.265.228A33.3,33.3,0,0,1,438.219,113.951Z" transform="translate(-431.623 -102.037)" fill="#033656"/>
                <path id="Trazado_163542" data-name="Trazado 163542" d="M595.679,140.96l30.246,13.92a19.069,19.069,0,0,0,10.258,1.607l7.289-.884-2.49-1.579-26.751-16.961-16.077-.21-.841,1.394Z" transform="translate(-373.047 -92.59)" fill="#009eed"/>
                <path id="Trazado_163543" data-name="Trazado 163543" d="M595.679,140.582l30.246,13.92a19.069,19.069,0,0,0,10.258,1.607l7.289-.884-2.49-1.579-8.078.517a12.171,12.171,0,0,1-5.831-1.541l-29.76-14.753Z" transform="translate(-373.047 -92.212)" fill="#fff"/>
                <g id="Grupo_94727" data-name="Grupo 94727" transform="translate(37.312 14.665)">
                  <path id="Trazado_163544" data-name="Trazado 163544" d="M463.421,115.314h0a2.066,2.066,0,0,1,1.656,2.4l-.384,2.092a2.066,2.066,0,0,1-2.4,1.655h0a2.067,2.067,0,0,1-1.655-2.4l.383-2.092A2.067,2.067,0,0,1,463.421,115.314Z" transform="translate(-460.606 -115.28)" fill="#033656"/>
                  <path id="Trazado_163545" data-name="Trazado 163545" d="M470.112,116.54h0a2.067,2.067,0,0,1,1.655,2.4l-.384,2.092a2.066,2.066,0,0,1-2.4,1.656h0a2.068,2.068,0,0,1-1.655-2.4l.384-2.091A2.066,2.066,0,0,1,470.112,116.54Z" transform="translate(-458.118 -114.824)" fill="#033656"/>
                  <path id="Trazado_163546" data-name="Trazado 163546" d="M476.8,117.767h0a2.067,2.067,0,0,1,1.655,2.4l-.383,2.092a2.068,2.068,0,0,1-2.4,1.655h0a2.066,2.066,0,0,1-1.655-2.4l.384-2.092A2.066,2.066,0,0,1,476.8,117.767Z" transform="translate(-455.63 -114.368)" fill="#033656"/>
                  <path id="Trazado_163547" data-name="Trazado 163547" d="M483.49,118.994h0a2.067,2.067,0,0,1,1.656,2.4l-.384,2.092a2.067,2.067,0,0,1-2.4,1.655h0a2.067,2.067,0,0,1-1.656-2.4l.384-2.092A2.067,2.067,0,0,1,483.49,118.994Z" transform="translate(-453.141 -113.911)" fill="#033656"/>
                  <path id="Trazado_163548" data-name="Trazado 163548" d="M490.178,120.22h0a2.068,2.068,0,0,1,1.656,2.4l-.384,2.091a2.067,2.067,0,0,1-2.4,1.656h0a2.066,2.066,0,0,1-1.655-2.4l.383-2.092A2.067,2.067,0,0,1,490.178,120.22Z" transform="translate(-450.653 -113.455)" fill="#033656"/>
                  <path id="Trazado_163549" data-name="Trazado 163549" d="M503.558,122.674h0a2.067,2.067,0,0,1,1.655,2.4l-.383,2.092a2.068,2.068,0,0,1-2.4,1.655h0a2.067,2.067,0,0,1-1.655-2.4l.384-2.092A2.066,2.066,0,0,1,503.558,122.674Z" transform="translate(-445.676 -112.542)" fill="#033656"/>
                  <path id="Trazado_163550" data-name="Trazado 163550" d="M510.247,123.9h0a2.065,2.065,0,0,1,1.655,2.4l-.383,2.092a2.067,2.067,0,0,1-2.4,1.655h0a2.067,2.067,0,0,1-1.656-2.4l.384-2.092A2.066,2.066,0,0,1,510.247,123.9Z" transform="translate(-443.188 -112.086)" fill="#033656"/>
                  <path id="Trazado_163551" data-name="Trazado 163551" d="M516.935,125.127h0a2.067,2.067,0,0,1,1.656,2.4l-.384,2.092a2.067,2.067,0,0,1-2.4,1.656h0a2.066,2.066,0,0,1-1.655-2.4l.383-2.092A2.067,2.067,0,0,1,516.935,125.127Z" transform="translate(-440.699 -111.63)" fill="#033656"/>
                  <path id="Trazado_163552" data-name="Trazado 163552" d="M523.626,126.354h0a2.067,2.067,0,0,1,1.655,2.4l-.384,2.092a2.065,2.065,0,0,1-2.4,1.655h0a2.066,2.066,0,0,1-1.655-2.4l.383-2.092A2.068,2.068,0,0,1,523.626,126.354Z" transform="translate(-438.211 -111.173)" fill="#033656"/>
                  <path id="Trazado_163553" data-name="Trazado 163553" d="M530.315,127.581h0a2.066,2.066,0,0,1,1.655,2.4l-.384,2.092a2.066,2.066,0,0,1-2.4,1.655h0a2.067,2.067,0,0,1-1.655-2.4l.384-2.092A2.066,2.066,0,0,1,530.315,127.581Z" transform="translate(-435.722 -110.717)" fill="#033656"/>
                  <path id="Trazado_163554" data-name="Trazado 163554" d="M543.692,130.034h0a2.067,2.067,0,0,1,1.656,2.4l-.384,2.092a2.066,2.066,0,0,1-2.4,1.655h0a2.065,2.065,0,0,1-1.655-2.4l.383-2.092A2.067,2.067,0,0,1,543.692,130.034Z" transform="translate(-430.745 -109.805)" fill="#033656"/>
                  <path id="Trazado_163555" data-name="Trazado 163555" d="M550.383,131.261h0a2.066,2.066,0,0,1,1.655,2.4l-.384,2.092a2.066,2.066,0,0,1-2.4,1.655h0a2.066,2.066,0,0,1-1.655-2.4l.383-2.092A2.068,2.068,0,0,1,550.383,131.261Z" transform="translate(-428.257 -109.348)" fill="#033656"/>
                  <path id="Trazado_163556" data-name="Trazado 163556" d="M557.072,132.488h0a2.066,2.066,0,0,1,1.655,2.4l-.384,2.092a2.066,2.066,0,0,1-2.4,1.655h0a2.067,2.067,0,0,1-1.655-2.4l.384-2.092A2.064,2.064,0,0,1,557.072,132.488Z" transform="translate(-425.769 -108.892)" fill="#033656"/>
                  <path id="Trazado_163557" data-name="Trazado 163557" d="M563.761,133.714h0a2.067,2.067,0,0,1,1.655,2.4l-.383,2.092a2.068,2.068,0,0,1-2.4,1.656h0a2.067,2.067,0,0,1-1.656-2.4l.384-2.091A2.067,2.067,0,0,1,563.761,133.714Z" transform="translate(-423.28 -108.436)" fill="#033656"/>
                  <path id="Trazado_163558" data-name="Trazado 163558" d="M570.45,134.941h0a2.067,2.067,0,0,1,1.656,2.4l-.384,2.092a2.067,2.067,0,0,1-2.4,1.655h0a2.066,2.066,0,0,1-1.656-2.4l.384-2.092A2.067,2.067,0,0,1,570.45,134.941Z" transform="translate(-420.792 -107.979)" fill="#033656"/>
                </g>
                <path id="Trazado_163559" data-name="Trazado 163559" d="M577.525,135.392l45.353,7.171,21.217-35.155-10.221-2.555a8.541,8.541,0,0,0-6.854,1.17c-6.306,4.235-20.754,13.9-30.081,19.8C584.165,133.913,574.669,134.941,577.525,135.392Z" transform="translate(-379.99 -104.591)" fill="#009eed"/>
                <path id="Trazado_163560" data-name="Trazado 163560" d="M596.938,125.827c9.327-5.9,23.775-15.567,30.081-19.8a8.541,8.541,0,0,1,6.854-1.17l10.221,2.555-.991,1.642-9.136-2.283a8.543,8.543,0,0,0-6.853,1.169c-6.307,4.237-20.756,13.9-30.081,19.8a81.066,81.066,0,0,1-16.784,8.082l-2.725-.431C574.669,134.941,584.165,133.912,596.938,125.827Z" transform="translate(-379.99 -104.591)" fill="#fff"/>
                <path id="Trazado_163561" data-name="Trazado 163561" d="M675.786,143.786S549.3,122.535,487.592,112.759c-19.5-3.09-31.944-4.26-32.64-4.25-7.561.1-10.278,2.021-10.278,2.021S681.081,148.683,675.786,143.786Z" transform="translate(-429.221 -103.134)" fill="#e3e5e5" opacity="0.64"/>
              </g>
              <g id="Grupo_94732" data-name="Grupo 94732" transform="translate(64.434 63.52)">
                <g id="Grupo_94730" data-name="Grupo 94730" transform="translate(61.287 26.588)">
                  <path id="Trazado_163562" data-name="Trazado 163562" d="M529.632,148.165l16.325,2.719c3.717.586,6.236,4.481,5.629,8.7s-4.11,7.158-7.827,6.571l-16.973-2.821Z" transform="translate(-524.397 -148.165)" fill="#e3e8e8"/>
                  <path id="Trazado_163563" data-name="Trazado 163563" d="M526.816,151.149l24.946,4.083c.032.132.064.262.089.4a8.574,8.574,0,0,1,.139,2.006c-.012.276-.04.557-.08.837a8.459,8.459,0,0,1-1.022,3l-24.97-4.079Z" transform="translate(-524.72 -147.055)" fill="#c2cece"/>
                  <path id="Trazado_163564" data-name="Trazado 163564" d="M526.912,158.731l19.706,3.252a6.043,6.043,0,0,1-2.859.239L526.786,159.4Z" transform="translate(-524.397 -144.234)" fill="#fff"/>
                  <path id="Trazado_163565" data-name="Trazado 163565" d="M529.106,148.165l16.325,2.719a7.011,7.011,0,0,1,5.57,5.854L528.2,153Z" transform="translate(-523.872 -148.165)" fill="#e3e5e5"/>
                  <path id="Trazado_163566" data-name="Trazado 163566" d="M526.852,162.979c2.417-.619,3.633-3.381,4.124-6.793.445-3.09.166-5.849-1.474-7.336l.129-.685,2.833.449a5.836,5.836,0,0,1,4.2,2.95,8.867,8.867,0,0,1,.954,5.672c-.606,4.215-3.632,7.233-7.349,6.646l-3.482-.55Z" transform="translate(-524.397 -148.165)" fill="#009eed"/>
                  <path id="Trazado_163567" data-name="Trazado 163567" d="M536.61,152.7a9.9,9.9,0,0,1-.878,6.243l-6.418-1.013a17.541,17.541,0,0,0,.886-6.243Z" transform="translate(-523.457 -146.856)" fill="#0a7aa5"/>
                  <path id="Trazado_163568" data-name="Trazado 163568" d="M536.361,157.065a8.858,8.858,0,0,0-.954-5.672,5.832,5.832,0,0,0-4.2-2.95l.425.067a5.836,5.836,0,0,1,4.2,2.95,8.867,8.867,0,0,1,.954,5.672c-.607,4.215-3.632,7.233-7.348,6.646l-.427-.067C532.73,164.3,535.755,161.279,536.361,157.065Z" transform="translate(-523.569 -148.062)" fill="#064156"/>
                  <g id="Grupo_94729" data-name="Grupo 94729" transform="translate(0 0.071)">
                    <path id="Trazado_163569" data-name="Trazado 163569" d="M525.181,155.161c.613-4.216,3.134-7.309,5.631-6.909s4.023,4.141,3.409,8.355-3.135,7.309-5.632,6.909S524.566,159.376,525.181,155.161Z" transform="translate(-525.045 -148.217)" fill="#fff"/>
                    <path id="Trazado_163570" data-name="Trazado 163570" d="M525.57,155.034c-.55,3.776.788,7.134,2.984,7.486a3.118,3.118,0,0,0,2.664-1.066,10.319,10.319,0,0,0,1.5-10.909,3.166,3.166,0,0,0-2.171-1.725C528.353,148.469,526.121,151.257,525.57,155.034Z" transform="translate(-524.895 -148.003)" fill="#035b82"/>
                    <path id="Trazado_163571" data-name="Trazado 163571" d="M530.548,148.82a2.543,2.543,0,0,1,1.12.486c-1.755.6-3.323,3.018-3.772,6.1s.359,5.883,1.865,7a2.469,2.469,0,0,1-1.207.113c-2.194-.351-3.533-3.71-2.983-7.487S528.353,148.469,530.548,148.82Z" transform="translate(-524.895 -148.003)" fill="#033656"/>
                  </g>
                  <path id="Trazado_163572" data-name="Trazado 163572" d="M532.269,151.893a11.1,11.1,0,0,1,0,3.261,10.7,10.7,0,0,1-1.133,3.521,3.5,3.5,0,0,1,1.137-6.782Z" transform="translate(-523.628 -146.778)" fill="#033656"/>
                </g>
                <g id="Grupo_94731" data-name="Grupo 94731" transform="translate(11.19 2.869)">
                  <path id="Trazado_163573" data-name="Trazado 163573" d="M488.531,134.754s89.1,34.362,124.111,44.2c6.938,1.946,11.595,3.025,12.787,2.829a22.464,22.464,0,0,0,7.586-2.581,13.468,13.468,0,0,0,2.354-1.668c.2-.182.295-.291.295-.291l-9.81-4.493-72.674-31.5-52.91-10.138a13.054,13.054,0,0,0-11.74,3.644Z" transform="translate(-488.531 -130.877)" fill="#fff"/>
                  <path id="Trazado_163574" data-name="Trazado 163574" d="M606.14,157.623a13.636,13.636,0,0,0-5.915,1.338l-8.019,3.837L578.989,169c6.944,1.945,11.6,3.025,12.791,2.832a22.579,22.579,0,0,0,7.584-2.581l18.77-11.608Z" transform="translate(-454.88 -120.927)" fill="#009eed"/>
                  <path id="Trazado_163575" data-name="Trazado 163575" d="M501.338,133.73l49.547,7.414,67.7,29.458-6.255,2.658a10.81,10.81,0,0,1-7.984.167Z" transform="translate(-483.767 -129.816)" fill="#e3e5e5"/>
                </g>
                <path id="Trazado_163576" data-name="Trazado 163576" d="M536.961,138.482l-1.707-.139.545.128Z" transform="translate(-459.96 -125.231)" fill="#cfd3d3"/>
                <path id="Trazado_163577" data-name="Trazado 163577" d="M495.479,137.036c-2.515-.963-3.916-1.5-3.916-1.5a13.067,13.067,0,0,1,11.74-3.645l52.155,10,.21.016c-5.721-1.34-54.626-12.791-57.657-13.1-3.217-.331-17.637,7.018-17.637,7.018Z" transform="translate(-480.375 -128.786)" fill="#e3e5e5"/>
              </g>
            </g>
            <g id="Grupo_94742" data-name="Grupo 94742" transform="translate(214.24 145.179)">
              <g id="Grupo_94735" data-name="Grupo 94735">
                <g id="Grupo_94734" data-name="Grupo 94734">
                  <path id="Trazado_163578" data-name="Trazado 163578" d="M445.776,185.469a14.734,14.734,0,1,0-21.623,13.023,5.043,5.043,0,0,1,2.1,2.091l4.788,9.063,4.79-9.063a4.931,4.931,0,0,1,2.058-2.069A14.729,14.729,0,0,0,445.776,185.469Z" transform="translate(-416.308 -170.734)" fill="#009eed"/>
                  <circle id="Elipse_4247" data-name="Elipse 4247" cx="6.007" cy="6.007" r="6.007" transform="translate(8.727 9.042)" fill="#fff"/>
                </g>
                <path id="Trazado_163579" data-name="Trazado 163579" d="M440.309,174.436c.037.508.063,1.019.063,1.537A20.621,20.621,0,0,1,421.3,196.532c.325.206.656.4,1,.583a5.043,5.043,0,0,1,2.1,2.091l4.788,9.063,4.79-9.063a4.931,4.931,0,0,1,2.058-2.069,14.728,14.728,0,0,0,4.276-22.7Z" transform="translate(-414.451 -169.357)" fill="#0086a4"/>
              </g>
              <g id="Grupo_94737" data-name="Grupo 94737" transform="translate(19.232 136.727)">
                <g id="Grupo_94736" data-name="Grupo 94736">
                  <path id="Trazado_163580" data-name="Trazado 163580" d="M451.718,281.086a10.7,10.7,0,1,0-15.7,9.456,3.652,3.652,0,0,1,1.526,1.519l3.477,6.579,3.477-6.58a3.586,3.586,0,0,1,1.494-1.5A10.69,10.69,0,0,0,451.718,281.086Z" transform="translate(-430.326 -270.39)" fill="#009eed"/>
                  <path id="Trazado_163581" data-name="Trazado 163581" d="M443.666,279.536a4.362,4.362,0,1,1-4.362-4.362A4.362,4.362,0,0,1,443.666,279.536Z" transform="translate(-428.608 -268.61)" fill="#fff"/>
                </g>
                <path id="Trazado_163582" data-name="Trazado 163582" d="M447.75,273.076c.027.369.047.741.047,1.117a14.971,14.971,0,0,1-13.846,14.926c.235.15.475.292.722.424a3.652,3.652,0,0,1,1.526,1.519l3.477,6.579,3.477-6.58a3.587,3.587,0,0,1,1.494-1.5,10.693,10.693,0,0,0,3.1-16.482Z" transform="translate(-428.977 -269.39)" fill="#0086a4"/>
              </g>
              <g id="Grupo_94739" data-name="Grupo 94739" transform="translate(153.206 105.419)">
                <g id="Grupo_94738" data-name="Grupo 94738">
                  <path id="Trazado_163583" data-name="Trazado 163583" d="M557.44,262.3a14.733,14.733,0,1,0-21.623,13.023,5.038,5.038,0,0,1,2.1,2.092l4.788,9.064,4.79-9.064a4.942,4.942,0,0,1,2.058-2.07A14.725,14.725,0,0,0,557.44,262.3Z" transform="translate(-527.974 -247.57)" fill="#009eed"/>
                  <circle id="Elipse_4248" data-name="Elipse 4248" cx="6.007" cy="6.007" r="6.007" transform="translate(8.726 9.041)" fill="#fff"/>
                </g>
                <path id="Trazado_163584" data-name="Trazado 163584" d="M551.974,251.271c.038.508.063,1.019.063,1.538a20.621,20.621,0,0,1-19.071,20.559c.324.2.654.4.995.582a5.038,5.038,0,0,1,2.1,2.092l4.788,9.063,4.79-9.063a4.942,4.942,0,0,1,2.058-2.07,14.728,14.728,0,0,0,4.276-22.7Z" transform="translate(-526.117 -246.194)" fill="#0086a4"/>
              </g>
              <g id="Grupo_94741" data-name="Grupo 94741" transform="translate(251.538 22.388)">
                <g id="Grupo_94740" data-name="Grupo 94740">
                  <path id="Trazado_163585" data-name="Trazado 163585" d="M623.274,198.866a11.815,11.815,0,1,0-17.339,10.444,4.03,4.03,0,0,1,1.685,1.678l3.84,7.268,3.84-7.268a3.963,3.963,0,0,1,1.651-1.66A11.811,11.811,0,0,0,623.274,198.866Z" transform="translate(-599.645 -187.052)" fill="#009eed"/>
                  <path id="Trazado_163586" data-name="Trazado 163586" d="M614.379,197.153a4.817,4.817,0,1,1-4.817-4.816A4.818,4.818,0,0,1,614.379,197.153Z" transform="translate(-597.747 -185.086)" fill="#fff"/>
                </g>
                <path id="Trazado_163587" data-name="Trazado 163587" d="M618.891,190.02c.029.407.049.818.049,1.232a16.536,16.536,0,0,1-15.292,16.487c.259.165.524.322.8.466a4.031,4.031,0,0,1,1.685,1.678l3.84,7.267,3.84-7.267a3.963,3.963,0,0,1,1.651-1.66,11.811,11.811,0,0,0,3.43-18.2Z" transform="translate(-598.156 -185.948)" fill="#0086a4"/>
              </g>
            </g>
            <g id="Grupo_94755" data-name="Grupo 94755" transform="translate(369.834 305.104)">
              <g id="Grupo_94747" data-name="Grupo 94747">
                <path id="Trazado_163588" data-name="Trazado 163588" d="M714.591,316.569v109.18a3.671,3.671,0,0,1-3.671,3.671H537.352a3.671,3.671,0,0,1-3.67-3.671V316.569a3.679,3.679,0,0,1,3.67-3.681H710.92A3.68,3.68,0,0,1,714.591,316.569Z" transform="translate(-528.239 -277.778)" fill="#ad2500"/>
                <rect id="Rectángulo_32486" data-name="Rectángulo 32486" width="180.909" height="116.532" rx="2.676" transform="translate(0 35.11)" fill="#ff970d"/>
                <rect id="Rectángulo_32487" data-name="Rectángulo 32487" width="180.909" height="116.532" rx="2.676" transform="translate(0 35.11)" fill="#ff970d"/>
                <rect id="Rectángulo_32488" data-name="Rectángulo 32488" width="180.909" height="116.532" rx="2.676" transform="translate(0 35.11)" fill="#ff970d"/>
                <path id="Trazado_163589" data-name="Trazado 163589" d="M706.245,343.809V318.394a3.54,3.54,0,0,0-3.532-3.541H535.758a3.539,3.539,0,0,0-3.531,3.541v25.415Z" transform="translate(-528.78 -277.047)" fill="#fff" opacity="0.25" style="mix-blend-mode: overlay;isolation: isolate"/>
                <g id="Grupo_94743" data-name="Grupo 94743" transform="translate(0.001 35.11)">
                  <path id="Trazado_163590" data-name="Trazado 163590" d="M554.694,314.2a23.833,23.833,0,0,1-23.837,23.839c-.384,0-.759-.01-1.142-.03V316.569a3.679,3.679,0,0,1,3.67-3.681h21.27C554.684,313.322,554.694,313.754,554.694,314.2Z" transform="translate(-529.715 -312.888)" fill="#d83300"/>
                </g>
                <g id="Grupo_94744" data-name="Grupo 94744" transform="translate(156.255 35.11)">
                  <path id="Trazado_163591" data-name="Trazado 163591" d="M668.258,316.569v21.446c-.276.021-.542.021-.818.021A23.839,23.839,0,0,1,643.6,314.2c0-.443.01-.875.038-1.309h20.945A3.68,3.68,0,0,1,668.258,316.569Z" transform="translate(-643.603 -312.888)" fill="#d83300"/>
                </g>
                <g id="Grupo_94745" data-name="Grupo 94745" transform="translate(0.001 126.632)">
                  <path id="Trazado_163592" data-name="Trazado 163592" d="M554.694,403.434c0,.394-.009.778-.029,1.172h-21.28a3.671,3.671,0,0,1-3.67-3.671V379.625c.383-.019.757-.03,1.142-.03A23.834,23.834,0,0,1,554.694,403.434Z" transform="translate(-529.715 -379.595)" fill="#d83300"/>
                </g>
                <g id="Grupo_94746" data-name="Grupo 94746" transform="translate(156.255 126.632)">
                  <path id="Trazado_163593" data-name="Trazado 163593" d="M668.258,379.616v21.318a3.671,3.671,0,0,1-3.672,3.671H643.632c-.019-.394-.029-.778-.029-1.172a23.84,23.84,0,0,1,23.837-23.839C667.716,379.595,667.982,379.595,668.258,379.616Z" transform="translate(-643.603 -379.595)" fill="#d83300"/>
                </g>
                <path id="Trazado_163594" data-name="Trazado 163594" d="M566.957,287.3v35.287h8.479V295.777h59.926v26.807h8.48V287.3Z" transform="translate(-515.86 -287.298)" fill="#d83300"/>
                <rect id="Rectángulo_32489" data-name="Rectángulo 32489" width="8.479" height="6.704" transform="translate(51.097 28.583)" fill="#aa2f0e"/>
                <rect id="Rectángulo_32490" data-name="Rectángulo 32490" width="8.48" height="6.704" transform="translate(119.502 28.583)" fill="#aa2f0e"/>
                <rect id="Rectángulo_32491" data-name="Rectángulo 32491" width="16.978" height="116.532" transform="translate(46.534 35.11)" fill="#d83300"/>
                <rect id="Rectángulo_32492" data-name="Rectángulo 32492" width="16.988" height="116.532" transform="translate(116.414 35.11)" fill="#d83300"/>
                <rect id="Rectángulo_32493" data-name="Rectángulo 32493" width="16.978" height="5.064" transform="translate(46.534 118.601)" fill="#aa2f0e"/>
                <rect id="Rectángulo_32494" data-name="Rectángulo 32494" width="16.988" height="5.064" transform="translate(116.414 118.601)" fill="#aa2f0e"/>
                <path id="Trazado_163595" data-name="Trazado 163595" d="M667.441,415.215V312.888h-4.246V415.215H597.148V312.888H592.9V415.215H529.715v10.534a3.671,3.671,0,0,0,3.67,3.671H706.953a3.671,3.671,0,0,0,3.672-3.671V415.215Z" transform="translate(-529.714 -277.778)" fill="#ff6510" opacity="0.41" style="mix-blend-mode: multiply;isolation: isolate"/>
                <rect id="Rectángulo_32495" data-name="Rectángulo 32495" width="5.443" height="66.415" transform="translate(180.909 60.237)" fill="#d83300"/>
              </g>
              <g id="Grupo_94754" data-name="Grupo 94754" transform="translate(43.629 49.815)">
                <g id="Grupo_94750" data-name="Grupo 94750">
                  <g id="Grupo_94748" data-name="Grupo 94748" transform="translate(7.627)">
                    <path id="Trazado_163596" data-name="Trazado 163596" d="M574.092,365.967a3.51,3.51,0,1,1-3.51-3.51A3.509,3.509,0,0,1,574.092,365.967Z" transform="translate(-567.073 -309.153)" fill="#a02808"/>
                    <circle id="Elipse_4249" data-name="Elipse 4249" cx="3.509" cy="3.509" r="3.509" transform="translate(0 24.853)" fill="#a02808"/>
                    <path id="Trazado_163597" data-name="Trazado 163597" d="M574.092,327.116a3.51,3.51,0,1,1-3.51-3.51A3.51,3.51,0,0,1,574.092,327.116Z" transform="translate(-567.073 -323.606)" fill="#a02808"/>
                  </g>
                  <g id="Grupo_94749" data-name="Grupo 94749" transform="translate(0 26.397)">
                    <path id="Trazado_163598" data-name="Trazado 163598" d="M581.947,342.846H563.553a2.038,2.038,0,0,0-2.039,2.039v19.845a2.039,2.039,0,0,0,2.039,2.04h18.394a2.04,2.04,0,0,0,2.04-2.04V344.885A2.039,2.039,0,0,0,581.947,342.846Zm-1.238,20.646H564.79V346.124H580.71Z" transform="translate(-561.514 -342.846)" fill="#fff"/>
                    <path id="Trazado_163599" data-name="Trazado 163599" d="M569.97,351.036h0a1.631,1.631,0,0,0-1.631,1.631v16.583a1.632,1.632,0,0,0,1.631,1.631h0a1.632,1.632,0,0,0,1.631-1.631V352.667A1.632,1.632,0,0,0,569.97,351.036Z" transform="translate(-558.975 -339.799)" fill="#fff"/>
                  </g>
                </g>
                <g id="Grupo_94753" data-name="Grupo 94753" transform="translate(70.227)">
                  <g id="Grupo_94751" data-name="Grupo 94751" transform="translate(7.628)">
                    <path id="Trazado_163600" data-name="Trazado 163600" d="M625.278,365.967a3.509,3.509,0,1,1-3.51-3.51A3.509,3.509,0,0,1,625.278,365.967Z" transform="translate(-618.26 -309.153)" fill="#a02808"/>
                    <path id="Trazado_163601" data-name="Trazado 163601" d="M625.278,345.23a3.509,3.509,0,1,1-3.51-3.51A3.509,3.509,0,0,1,625.278,345.23Z" transform="translate(-618.26 -316.868)" fill="#a02808"/>
                    <path id="Trazado_163602" data-name="Trazado 163602" d="M625.278,327.116a3.509,3.509,0,1,1-3.51-3.51A3.51,3.51,0,0,1,625.278,327.116Z" transform="translate(-618.26 -323.606)" fill="#a02808"/>
                  </g>
                  <g id="Grupo_94752" data-name="Grupo 94752" transform="translate(0 26.397)">
                    <path id="Trazado_163603" data-name="Trazado 163603" d="M633.135,342.846H614.74a2.039,2.039,0,0,0-2.04,2.039v19.845a2.041,2.041,0,0,0,2.04,2.04h18.394a2.039,2.039,0,0,0,2.039-2.04V344.885A2.038,2.038,0,0,0,633.135,342.846ZM631.9,363.492H615.978V346.124H631.9Z" transform="translate(-612.7 -342.846)" fill="#fff"/>
                    <rect id="Rectángulo_32496" data-name="Rectángulo 32496" width="3.262" height="19.846" rx="1.189" transform="translate(9.364 11.236)" fill="#fff"/>
                  </g>
                </g>
              </g>
            </g>
            <g id="Grupo_94762" data-name="Grupo 94762" transform="translate(32.763 286.568)">
              <g id="Grupo_94756" data-name="Grupo 94756">
                <path id="Trazado_163604" data-name="Trazado 163604" d="M284.036,294.422l56.872-20.634,48.155,17.471,48.155-17.471,56.873,20.634V440.695L437.219,420.06l-48.155,17.472L340.909,420.06l-56.872,20.635Z" transform="translate(-284.036 -273.788)" fill="#fff"/>
                <path id="Trazado_163605" data-name="Trazado 163605" d="M434.855,280.547,386.7,298.019l-48.155-17.472L290.39,298.019V425.744l48.155-17.472L386.7,425.744l48.155-17.472,48.155,17.472V298.019Z" transform="translate(-281.673 -271.273)" fill="#009eed"/>
                <path id="Trazado_163606" data-name="Trazado 163606" d="M420.719,302.333c.069-.144.133-.3.2-.442-.2.428-.4.848-.608,1.266C420.446,302.882,420.586,302.614,420.719,302.333Z" transform="translate(-233.341 -263.333)" fill="none"/>
                <path id="Trazado_163607" data-name="Trazado 163607" d="M371.413,346.761a28.87,28.87,0,0,1,2.3,10.446v37.681h0V357.206A28.863,28.863,0,0,0,371.413,346.761Z" transform="translate(-251.532 -246.641)" fill="none"/>
                <path id="Trazado_163608" data-name="Trazado 163608" d="M395.685,370.436H443.84v0H395.685Z" transform="translate(-242.503 -237.835)" fill="none"/>
                <path id="Trazado_163609" data-name="Trazado 163609" d="M396.995,370.436H401.7v0h-22.2v12.454h0V370.436Z" transform="translate(-248.521 -237.835)" fill="none"/>
                <path id="Trazado_163610" data-name="Trazado 163610" d="M302.667,302.5a26.063,26.063,0,0,0-3.426-3.58,24.27,24.27,0,0,0-6.061-3.678,24.247,24.247,0,0,1,6.06,3.68A25.9,25.9,0,0,1,302.667,302.5Z" transform="translate(-280.635 -265.807)" fill="none"/>
                <path id="Trazado_163611" data-name="Trazado 163611" d="M341.033,335.789h0V395.46h0V335.789Z" transform="translate(-262.833 -250.723)" fill="none"/>
                <path id="Trazado_163612" data-name="Trazado 163612" d="M363.49,339.216a21.738,21.738,0,0,1,10.376,7.9,21.732,21.732,0,0,0-10.376-7.9c-.93-.376-1.907-.705-2.9-1.014h0C361.583,338.512,362.56,338.842,363.49,339.216Z" transform="translate(-255.559 -249.826)" fill="none"/>
                <path id="Trazado_163613" data-name="Trazado 163613" d="M365.289,338.968h0a78.567,78.567,0,0,0-17.341-2.824A78.562,78.562,0,0,1,365.289,338.968Z" transform="translate(-260.261 -250.591)" fill="none"/>
                <path id="Trazado_163614" data-name="Trazado 163614" d="M310.223,307.01h0q-.333-1.214-.731-2.383Q309.889,305.8,310.223,307.01Z" transform="translate(-274.567 -262.315)" fill="none"/>
                <path id="Trazado_163615" data-name="Trazado 163615" d="M403.484,314.073a36.29,36.29,0,0,1-5.282,2.332A36.29,36.29,0,0,0,403.484,314.073Z" transform="translate(-241.566 -258.801)" fill="none"/>
                <path id="Trazado_163616" data-name="Trazado 163616" d="M402.052,317.449a34.6,34.6,0,0,0,7.984-5.989A42.562,42.562,0,0,0,415.3,305a42.562,42.562,0,0,1-5.264,6.461A34.6,34.6,0,0,1,402.052,317.449Z" transform="translate(-240.134 -262.177)" fill="none"/>
                <path id="Trazado_163617" data-name="Trazado 163617" d="M414.051,301.456c-.284.535-.572,1.063-.864,1.578C413.479,302.519,413.767,301.991,414.051,301.456Z" transform="translate(-235.992 -263.495)" fill="none"/>
                <path id="Trazado_163618" data-name="Trazado 163618" d="M360.535,331.544l.071.018h0Z" transform="translate(-255.579 -252.302)" fill="none"/>
                <path id="Trazado_163619" data-name="Trazado 163619" d="M362.41,332.07q1.9.584,3.706,1.309c.914.369,1.789.77,2.64,1.191-.851-.421-1.726-.822-2.64-1.191Q364.313,332.652,362.41,332.07Z" transform="translate(-254.881 -252.106)" fill="none"/>
                <path id="Trazado_163620" data-name="Trazado 163620" d="M360.587,331.557q1.268.327,2.5.7-1.233-.379-2.5-.7Z" transform="translate(-255.559 -252.297)" fill="none"/>
                <path id="Trazado_163621" data-name="Trazado 163621" d="M311.24,313.941l0,.07,0-.07Z" transform="translate(-273.916 -258.85)" fill="none"/>
                <path id="Trazado_163622" data-name="Trazado 163622" d="M413.581,313.418q.7-.772,1.377-1.587-.677.813-1.377,1.586v28.8h0Z" transform="translate(-235.845 -259.635)" fill="none"/>
                <path id="Trazado_163623" data-name="Trazado 163623" d="M408.077,318.454q-1.655,1.07-3.356,1.961,1.7-.893,3.356-1.961Z" transform="translate(-239.141 -257.172)" fill="none"/>
                <path id="Trazado_163624" data-name="Trazado 163624" d="M424.779,291.085h0c-.059.2-.118.409-.178.612C424.659,291.493,424.72,291.29,424.779,291.085Z" transform="translate(-231.747 -267.353)" fill="none"/>
                <path id="Trazado_163625" data-name="Trazado 163625" d="M428.877,291.085c-.059.2-.119.408-.18.611-.114.387-.225.782-.34,1.163-.162.531-.331,1.048-.5,1.568-.134.418-.265.842-.4,1.254-.16.484-.328.955-.493,1.43-.15.432-.3.867-.453,1.291-.162.451-.331.89-.5,1.331s-.322.86-.488,1.281-.344.849-.517,1.27-.34.829-.514,1.233-.362.827-.546,1.236c-.174.388-.348.777-.525,1.157-.067.145-.132.3-.2.442-.133.281-.273.549-.407.824-.159.327-.318.653-.48.973-.185.365-.375.722-.564,1.078s-.383.729-.579,1.083c-.169.306-.34.6-.512.9-.219.384-.438.768-.661,1.143-.159.265-.322.523-.484.783-.239.388-.479.778-.723,1.155-.159.244-.322.48-.483.719-.252.377-.5.757-.763,1.124-.172.243-.347.476-.521.715-.252.347-.5.7-.761,1.033-.224.294-.456.573-.683.859-.214.268-.424.541-.642.8q-.677.815-1.377,1.587v28.793h23.6V294.1Z" transform="translate(-235.845 -267.353)" fill="#92c927"/>
                <path id="Trazado_163626" data-name="Trazado 163626" d="M303.705,302.888a25.9,25.9,0,0,0-3.427-3.578,24.246,24.246,0,0,0-6.06-3.68,39.72,39.72,0,0,0-3.828-1.441V420.669l19.806-7.187V321.611C309.71,313.988,307.533,307.719,303.705,302.888Z" transform="translate(-281.673 -266.198)" fill="#a4e53a"/>
                <rect id="Rectángulo_32497" data-name="Rectángulo 32497" width="48.155" height="5.666" transform="translate(56.872 44.695)" fill="#e3e5e5"/>
                <path id="Trazado_163627" data-name="Trazado 163627" d="M346.816,338.545h0c3.179.121,6.363.265,9.487.487a78.565,78.565,0,0,1,17.341,2.824v-9.116l-.071-.018q-1.955-.5-3.988-.885-2.163-.412-4.4-.713t-4.514-.52c-3.04-.291-6.134-.482-9.236-.628-2.327-.11-4.658-.2-6.974-.28-2.673-.1-5.308-.195-7.873-.327-1.922-.1-3.8-.217-5.631-.37q-.914-.076-1.807-.165c-1.258-.126-2.472-.28-3.665-.451v8.844c4.915.628,10.183.9,15.634,1.106V396.15l5.694,2.066V338.545Z" transform="translate(-268.616 -253.479)" fill="#e3e5e5"/>
                <path id="Trazado_163628" data-name="Trazado 163628" d="M408.742,401.688v-5.666h-22.2v-57.37q1.179,0,2.369-.017t2.39-.041q1.8-.041,3.612-.125,1.21-.056,2.422-.139c1.616-.11,3.235-.257,4.853-.453.4-.049.808-.1,1.213-.158q1.212-.167,2.42-.375c.976-.169,1.948-.368,2.918-.582V327.74c-.129.033-.255.071-.386.1-1.657.414-3.37.746-5.135,1.013q-1.132.171-2.294.306c-.488.058-.98.111-1.476.161q-2.011.2-4.113.314-1.4.08-2.846.13c-1.925.07-3.907.1-5.948.121V286.417l-8.8,3.193v24.175H360.587v5.666h17.157v37.969a29.024,29.024,0,0,0-3.6-3.06c-.7-.5-1.434-.975-2.19-1.431q-.6-.36-1.217-.7-.638-.35-1.3-.678c-.851-.421-1.726-.822-2.64-1.191q-1.8-.726-3.706-1.309-1.233-.379-2.5-.7v9.116c1,.309,1.973.638,2.9,1.014a21.732,21.732,0,0,1,10.376,7.9c.093.139.174.288.265.429.191.3.384.6.56.911.1.181.188.376.284.563.148.287.3.568.439.866.01.021.016.043.026.063a28.863,28.863,0,0,1,2.3,10.445v37.681l8.8-3.193V401.688Z" transform="translate(-255.559 -269.089)" fill="#fff"/>
                <path id="Trazado_163629" data-name="Trazado 163629" d="M420.238,321.95q.7-.772,1.377-1.586c.218-.262.428-.535.642-.8.228-.285.46-.565.683-.859.258-.336.509-.686.762-1.033.174-.239.35-.472.521-.715.259-.366.51-.746.763-1.124.161-.239.324-.475.483-.719.244-.377.484-.767.723-1.155.162-.261.325-.519.484-.783.224-.375.442-.759.661-1.143.171-.3.343-.6.512-.9.2-.354.387-.719.579-1.083s.379-.713.564-1.078c.162-.32.321-.646.48-.973.2-.418.408-.838.608-1.266.177-.38.351-.768.525-1.157.184-.409.366-.818.546-1.236s.344-.82.514-1.233.347-.841.517-1.27.327-.852.488-1.281.336-.879.5-1.331c.154-.424.3-.859.453-1.291.165-.475.332-.945.493-1.43.137-.412.268-.836.4-1.254.166-.52.335-1.037.5-1.568.115-.381.226-.777.34-1.163.06-.2.119-.407.178-.612l-8.283-3q-1.126,3.976-2.408,7.52c-.476,1.309-.973,2.56-1.483,3.781q-.284.679-.575,1.34-.58,1.323-1.191,2.574c-.338.691-.682,1.361-1.032,2.02-.284.535-.572,1.063-.864,1.578q-.982,1.721-2.029,3.283a42.56,42.56,0,0,1-5.264,6.461,34.6,34.6,0,0,1-7.984,5.989,36.271,36.271,0,0,1-5.282,2.332q-.292.1-.589.2c-.936.313-1.892.591-2.865.844v9.024a54.349,54.349,0,0,0,5.451-1.489q1.179-.391,2.346-.847c.388-.152.775-.309,1.162-.472q1.157-.49,2.3-1.047c.38-.187.76-.379,1.137-.578q1.7-.893,3.356-1.961h0V395.1H395.685v5.666h48.156V395.1h-23.6V356.412h23.6v-5.666h-23.6Z" transform="translate(-242.503 -268.168)" fill="#e3e5e5"/>
                <path id="Trazado_163630" data-name="Trazado 163630" d="M319.8,345.149q.821.578,1.716,1.1t1.856,1c.46.225.934.438,1.417.645.531.229,1.074.45,1.635.657a55.375,55.375,0,0,0,12.118,2.755v-8.844c-.5-.071-1.011-.139-1.5-.22q-.827-.138-1.626-.294-1.6-.311-3.087-.709t-2.846-.9q-.673-.249-1.3-.517c-.313-.136-.616-.274-.912-.417a18.974,18.974,0,0,1-1.668-.914q-.391-.241-.757-.5a13.719,13.719,0,0,1-1.777-1.468,12.18,12.18,0,0,1-1.139-1.307,12.024,12.024,0,0,1-.885-1.313,14.124,14.124,0,0,1-1.564-4.373,20.838,20.838,0,0,1-.325-2.6q-.045-.687-.055-1.413c-.005-.462-.018-.919-.036-1.375q-.027-.716-.069-1.424l0-.07h0v-.1h-.008q-.144-2.381-.471-4.63h20.027v-5.666H317.329q-.333-1.214-.731-2.383a37.972,37.972,0,0,0-2.946-6.586q-.333-.586-.689-1.158-.708-1.142-1.5-2.221a34.868,34.868,0,0,0-3.488-4.061q-.953-.951-1.988-1.837a29.525,29.525,0,0,0-5.159-3.492l-10.44,3.788v1.246A39.739,39.739,0,0,1,294.218,297a24.271,24.271,0,0,1,6.062,3.678,26.069,26.069,0,0,1,3.426,3.58c3.828,4.831,6.005,11.1,6.492,18.72v91.873l8.8-3.191v-67.1Q319.389,344.861,319.8,345.149Z" transform="translate(-281.673 -267.563)" fill="#fff"/>
                <path id="Trazado_163631" data-name="Trazado 163631" d="M306.587,358.35v-39.1c-.487-7.62-2.664-13.889-6.492-18.72,3.828,4.831,6.005,11.1,6.491,18.722v91.872h0V358.35Z" transform="translate(-278.062 -263.839)" fill="#fff"/>
                <path id="Trazado_163632" data-name="Trazado 163632" d="M290.39,294.189h0a39.744,39.744,0,0,1,3.828,1.441A39.739,39.739,0,0,0,290.39,294.189Z" transform="translate(-281.673 -266.198)" fill="#fff"/>
                <path id="Trazado_163633" data-name="Trazado 163633" d="M395.685,370.436v4.4l48.155,17.472v-21.87H395.685Z" transform="translate(-242.503 -237.834)" fill="#0086a4"/>
                <path id="Trazado_163634" data-name="Trazado 163634" d="M396.994,370.436H379.507v12.451l22.2-8.053v-4.4Z" transform="translate(-248.521 -237.834)" fill="#009eed"/>
                <path id="Trazado_163635" data-name="Trazado 163635" d="M385.454,331.952q1.445-.051,2.846-.13,2.1-.119,4.113-.314c.5-.049.988-.1,1.476-.16q1.163-.136,2.294-.306c1.766-.266,3.478-.6,5.135-1.013.13-.033.257-.071.386-.1V280.547l-22.2,8.054v43.472C381.546,332.056,383.529,332.022,385.454,331.952Z" transform="translate(-248.521 -271.273)" fill="#009eed"/>
                <path id="Trazado_163636" data-name="Trazado 163636" d="M398.55,329.08q.3-.1.589-.2a36.271,36.271,0,0,0,5.282-2.332,34.6,34.6,0,0,0,7.984-5.989,42.562,42.562,0,0,0,5.264-6.461q1.048-1.564,2.029-3.283c.292-.514.58-1.043.864-1.578.35-.659.694-1.328,1.032-2.02q.609-1.251,1.191-2.574.292-.661.575-1.34c.51-1.221,1.007-2.472,1.483-3.781q1.286-3.538,2.408-7.52l-31.566-11.452v49.377C396.658,329.672,397.614,329.393,398.55,329.08Z" transform="translate(-242.503 -271.273)" fill="#0086a4"/>
                <path id="Trazado_163637" data-name="Trazado 163637" d="M414.849,299.984c-.338.691-.682,1.361-1.032,2.02C414.167,301.345,414.511,300.675,414.849,299.984Z" transform="translate(-235.758 -264.042)" fill="#009eed"/>
                <path id="Trazado_163638" data-name="Trazado 163638" d="M415.76,298.108q-.58,1.323-1.191,2.574Q415.178,299.431,415.76,298.108Z" transform="translate(-235.478 -264.74)" fill="#009eed"/>
                <path id="Trazado_163639" data-name="Trazado 163639" d="M396.8,316.612c-1.657.414-3.37.746-5.135,1.013C393.427,317.358,395.139,317.026,396.8,316.612Z" transform="translate(-244 -257.857)" fill="#009eed"/>
                <path id="Trazado_163640" data-name="Trazado 163640" d="M417.339,294.375c-.476,1.309-.973,2.56-1.483,3.781C416.366,296.935,416.863,295.684,417.339,294.375Z" transform="translate(-234.999 -266.129)" fill="#009eed"/>
                <path id="Trazado_163641" data-name="Trazado 163641" d="M310.891,310.494q.329,2.247.471,4.63h.008v.1l0,.07q.041.708.069,1.424c.018.456.03.912.036,1.375q.01.726.055,1.413a20.838,20.838,0,0,0,.325,2.6,14.124,14.124,0,0,0,1.564,4.373,12.019,12.019,0,0,0,.885,1.313,12.183,12.183,0,0,0,1.139,1.308,13.719,13.719,0,0,0,1.777,1.468q.366.255.757.5a18.971,18.971,0,0,0,1.668.914c.3.143.6.281.912.417q.626.27,1.3.517,1.358.5,2.846.9t3.087.709q.8.156,1.626.294c.49.081,1,.148,1.5.22V310.494Z" transform="translate(-274.046 -260.133)" fill="#d83300"/>
                <path id="Trazado_163642" data-name="Trazado 163642" d="M325.488,335.035c1.192.171,2.406.325,3.665.451q.893.088,1.807.165c1.826.154,3.708.272,5.631.37,2.564.132,5.2.228,7.873.327,2.316.084,4.647.17,6.974.28,3.1.147,6.2.338,9.236.628q2.28.218,4.514.52t4.4.713q2.031.387,3.988.885l.071.018v-28.9H325.488Z" transform="translate(-268.616 -260.133)" fill="#a02808"/>
                <path id="Trazado_163643" data-name="Trazado 163643" d="M363.088,340.1q1.9.584,3.706,1.309c.914.369,1.789.77,2.64,1.191q.665.327,1.3.678.619.34,1.217.7c.756.456,1.491.928,2.19,1.431a29.024,29.024,0,0,1,3.6,3.06V310.494H360.587v28.9Q361.855,339.72,363.088,340.1Z" transform="translate(-255.559 -260.133)" fill="#d83300"/>
                <path id="Trazado_163644" data-name="Trazado 163644" d="M317.725,326.4a18.962,18.962,0,0,1-1.668-.914A18.962,18.962,0,0,0,317.725,326.4Z" transform="translate(-272.124 -254.555)" fill="#d83300"/>
                <path id="Trazado_163645" data-name="Trazado 163645" d="M355.647,330.52q-2.231-.3-4.514-.52Q353.413,330.218,355.647,330.52Z" transform="translate(-259.076 -252.876)" fill="#d83300"/>
                <path id="Trazado_163646" data-name="Trazado 163646" d="M311.292,315.03c.018.456.03.912.036,1.375q.01.726.055,1.413-.045-.687-.055-1.413C311.322,315.942,311.31,315.486,311.292,315.03Z" transform="translate(-273.897 -258.445)" fill="#d83300"/>
                <path id="Trazado_163647" data-name="Trazado 163647" d="M311.311,315.416q-.027-.716-.069-1.424Q311.283,314.7,311.311,315.416Z" transform="translate(-273.916 -258.832)" fill="#d83300"/>
                <path id="Trazado_163648" data-name="Trazado 163648" d="M371.061,336.326c-.7-.5-1.434-.975-2.19-1.431C369.627,335.35,370.362,335.823,371.061,336.326Z" transform="translate(-252.478 -251.056)" fill="#d83300"/>
                <path id="Trazado_163649" data-name="Trazado 163649" d="M377.744,312.919V288.744l-17.157,6.225v17.95Z" transform="translate(-255.559 -268.224)" fill="#ff970d"/>
                <path id="Trazado_163650" data-name="Trazado 163650" d="M305.146,299.559a34.871,34.871,0,0,1,3.488,4.061q.79,1.08,1.5,2.221.354.572.689,1.158a37.972,37.972,0,0,1,2.946,6.586q.4,1.169.731,2.383h21.215V280.547L298,294.23a29.529,29.529,0,0,1,5.159,3.492Q304.193,298.607,305.146,299.559Z" transform="translate(-278.842 -271.273)" fill="#ff970d"/>
                <path id="Trazado_163651" data-name="Trazado 163651" d="M373.644,315.968v-17.95l-48.155-17.472v35.422Z" transform="translate(-268.616 -271.273)" fill="#ff7110"/>
                <path id="Trazado_163652" data-name="Trazado 163652" d="M318.671,333.9c-.561-.207-1.1-.428-1.635-.657-.483-.207-.958-.42-1.417-.645q-.963-.475-1.856-1t-1.716-1.1q-.412-.288-.805-.589V397l19.548-7.093V336.657A55.377,55.377,0,0,1,318.671,333.9Z" transform="translate(-273.916 -252.911)" fill="#ff970d"/>
                <path id="Trazado_163653" data-name="Trazado 163653" d="M325.488,334.827V388.08l15.634,5.672V335.933C335.671,335.723,330.4,335.455,325.488,334.827Z" transform="translate(-268.616 -251.081)" fill="#ff7110"/>
                <path id="Trazado_163654" data-name="Trazado 163654" d="M313.543,331.44q-.9-.525-1.716-1.1Q312.648,330.915,313.543,331.44Z" transform="translate(-273.698 -252.751)" fill="#ff970d"/>
                <path id="Trazado_163655" data-name="Trazado 163655" d="M350.52,336.275c-3.124-.222-6.308-.365-9.487-.486V395.46l26.828,9.734V339.1A78.559,78.559,0,0,0,350.52,336.275Z" transform="translate(-262.833 -250.723)" fill="#0086a4"/>
                <path id="Trazado_163656" data-name="Trazado 163656" d="M377.742,360.391a28.87,28.87,0,0,0-2.3-10.447c-.01-.021-.016-.043-.026-.063-.136-.3-.291-.579-.439-.866-.1-.187-.182-.381-.284-.562-.176-.314-.369-.611-.56-.911-.091-.141-.171-.291-.265-.429a21.738,21.738,0,0,0-10.376-7.9c-.93-.375-1.907-.7-2.9-1.014V404.3l17.155-6.225V360.391Z" transform="translate(-255.559 -249.825)" fill="#009eed"/>
                <path id="Trazado_163657" data-name="Trazado 163657" d="M341.033,335.789c3.179.121,6.363.263,9.487.486-3.124-.222-6.308-.366-9.487-.487Z" transform="translate(-262.833 -250.723)" fill="#009eed"/>
                <path id="Trazado_163658" data-name="Trazado 163658" d="M396.365,324.069c-.4.056-.808.108-1.213.158-1.618.2-3.237.343-4.853.453q-1.212.084-2.422.139-1.811.086-3.613.125-1.2.027-2.39.041t-2.369.016v57.37h22.2V323.113c-.97.214-1.943.413-2.918.582Q397.577,323.9,396.365,324.069Z" transform="translate(-248.521 -255.438)" fill="#ff970d"/>
                <path id="Trazado_163659" data-name="Trazado 163659" d="M411.438,384.1v-65.65q-1.655,1.07-3.356,1.961c-.377.2-.757.391-1.137.578q-1.142.56-2.3,1.047c-.387.163-.774.32-1.162.472q-1.167.455-2.346.846a54.341,54.341,0,0,1-5.451,1.489V384.1Z" transform="translate(-242.503 -257.172)" fill="#ff7110"/>
                <rect id="Rectángulo_32498" data-name="Rectángulo 32498" width="23.602" height="38.69" transform="translate(177.736 88.243)" fill="#a02808"/>
                <rect id="Rectángulo_32499" data-name="Rectángulo 32499" width="23.602" transform="translate(177.736 88.243)" fill="#d83300"/>
              </g>
              <g id="Grupo_94761" data-name="Grupo 94761" transform="translate(43.074 4.584)">
                <g id="Grupo_94758" data-name="Grupo 94758" transform="translate(0 86.166)">
                  <g id="Grupo_94757" data-name="Grupo 94757">
                    <path id="Trazado_163660" data-name="Trazado 163660" d="M342.443,353.438a13.506,13.506,0,1,0-19.821,11.938,4.606,4.606,0,0,1,1.925,1.917l4.39,8.309,4.39-8.309a4.521,4.521,0,0,1,1.886-1.9A13.5,13.5,0,0,0,342.443,353.438Z" transform="translate(-315.431 -339.932)" fill="#d83300"/>
                    <path id="Trazado_163661" data-name="Trazado 163661" d="M332.275,351.479a5.507,5.507,0,1,1-5.507-5.507A5.507,5.507,0,0,1,332.275,351.479Z" transform="translate(-313.262 -337.685)" fill="#fff"/>
                  </g>
                  <path id="Trazado_163662" data-name="Trazado 163662" d="M337.431,343.324c.034.466.058.934.058,1.409a18.9,18.9,0,0,1-17.482,18.846c.3.189.6.369.912.535a4.606,4.606,0,0,1,1.925,1.917l4.39,8.309,4.39-8.309a4.522,4.522,0,0,1,1.887-1.9,13.5,13.5,0,0,0,3.92-20.811Z" transform="translate(-313.729 -338.67)" fill="#a02808"/>
                </g>
                <g id="Grupo_94760" data-name="Grupo 94760" transform="translate(47.574)">
                  <g id="Grupo_94759" data-name="Grupo 94759">
                    <path id="Trazado_163663" data-name="Trazado 163663" d="M377.28,290.715a13.587,13.587,0,1,0-19.941,12.011,4.64,4.64,0,0,1,1.937,1.929l4.416,8.357,4.417-8.357a4.548,4.548,0,0,1,1.9-1.91A13.581,13.581,0,0,0,377.28,290.715Z" transform="translate(-350.106 -277.129)" fill="#d83300"/>
                    <path id="Trazado_163664" data-name="Trazado 163664" d="M367.05,288.745a5.539,5.539,0,1,1-5.539-5.54A5.538,5.538,0,0,1,367.05,288.745Z" transform="translate(-347.924 -274.868)" fill="#fff"/>
                  </g>
                  <path id="Trazado_163665" data-name="Trazado 163665" d="M372.239,280.541c.034.469.058.941.058,1.419a19.015,19.015,0,0,1-17.588,18.958c.3.189.6.37.918.538a4.64,4.64,0,0,1,1.937,1.929l4.416,8.357,4.417-8.357a4.548,4.548,0,0,1,1.9-1.91,13.581,13.581,0,0,0,3.944-20.934Z" transform="translate(-348.394 -275.859)" fill="#a02808"/>
                </g>
              </g>
            </g>
            <g id="Grupo_94765" data-name="Grupo 94765" transform="translate(255.268 325.746)">
              <g id="Grupo_94763" data-name="Grupo 94763">
                <path id="Rectángulo_32500" data-name="Rectángulo 32500" d="M5.6,0H62.52a5.6,5.6,0,0,1,5.6,5.6V91.439a5.6,5.6,0,0,1-5.6,5.6H5.6a5.6,5.6,0,0,1-5.6-5.6V5.6A5.6,5.6,0,0,1,5.6,0Z" transform="translate(8.997 0)" fill="#fff"/>
                <path id="Rectángulo_32501" data-name="Rectángulo 32501" d="M5.6,0H62.52a5.6,5.6,0,0,1,5.6,5.6V91.439a5.6,5.6,0,0,1-5.6,5.6H5.6a5.6,5.6,0,0,1-5.6-5.6V5.6A5.6,5.6,0,0,1,5.6,0Z" transform="translate(0 0)" fill="#d83300"/>
                <path id="Trazado_163666" data-name="Trazado 163666" d="M454.057,302.343H453.9a7.685,7.685,0,0,0-7.685,7.685V391.7a7.684,7.684,0,0,0,7.685,7.685h.161Z" transform="translate(-446.212 -302.343)" fill="#aa2f0e"/>
              </g>
              <g id="Grupo_94764" data-name="Grupo 94764" transform="translate(18.013 31.6)">
                <path id="Trazado_163667" data-name="Trazado 163667" d="M492.729,342.068A16.694,16.694,0,1,0,473.9,358.621a8.561,8.561,0,0,0,4.268,0A16.716,16.716,0,0,0,492.729,342.068Zm-32.2.587h3.545a22.307,22.307,0,0,0,.915,5.97h-3.017A15.4,15.4,0,0,1,460.53,342.655Zm31.009-1.174H487.99a21.958,21.958,0,0,0-1.255-6.749h2.972A15.4,15.4,0,0,1,491.539,341.481Zm-4.724,0H481.17a51.865,51.865,0,0,0-.516-6.749h4.84A20.755,20.755,0,0,1,486.815,341.481Zm-10.323,16.095c-.152,0-.3.012-.457.012s-.3-.008-.453-.012c-.659-.386-1.485-1.611-2.2-4.149a30.342,30.342,0,0,1-.768-3.628h6.839C478.77,354.184,477.56,356.943,476.492,357.576Zm-4.041-8.951a51.953,51.953,0,0,1-.379-5.97H480a51.222,51.222,0,0,1-.376,5.97Zm-.376-7.144a49.047,49.047,0,0,1,.52-6.749h6.882a49.99,49.99,0,0,1,.517,6.749Zm3.96-14.8c.7,0,1.76,1.126,2.653,4.289.225.8.423,1.666.591,2.589h-6.487C473.608,329.174,474.96,326.68,476.035,326.68Zm4.427,6.878a18.07,18.07,0,0,0-2.19-6.54c2.788.848,5.182,3.247,6.723,6.54Zm-8.855,0h-4.534c1.541-3.293,3.936-5.692,6.724-6.54A18.044,18.044,0,0,0,471.608,333.558Zm-.191,1.174a51.867,51.867,0,0,0-.517,6.749h-5.646a20.757,20.757,0,0,1,1.323-6.749Zm-7.336,6.749H460.53a15.418,15.418,0,0,1,1.833-6.749h2.973A21.876,21.876,0,0,0,464.081,341.481Zm1.169,1.174H470.9a53.287,53.287,0,0,0,.38,5.97h-5.064A21.132,21.132,0,0,1,465.25,342.655Zm6.188,7.144a19.846,19.846,0,0,0,2.36,7.58c-3.073-.936-5.666-3.758-7.167-7.58Zm6.835,7.58a19.868,19.868,0,0,0,2.36-7.58h4.806C483.94,353.622,481.346,356.444,478.273,357.38Zm2.519-8.755a53.29,53.29,0,0,0,.379-5.97h5.65a21.181,21.181,0,0,1-.966,5.97Zm7.2-5.97h3.544a15.4,15.4,0,0,1-1.442,5.97h-3.018A22.3,22.3,0,0,0,488,342.655Zm1.008-9.1h-2.732a15.245,15.245,0,0,0-4.252-5.806A15.607,15.607,0,0,1,489,333.558Zm-18.953-5.806a15.256,15.256,0,0,0-4.252,5.806h-2.732A15.607,15.607,0,0,1,470.051,327.751ZM462.587,349.8h2.8a16.2,16.2,0,0,0,4.039,6.306A15.616,15.616,0,0,1,462.587,349.8Zm20.057,6.307a16.212,16.212,0,0,0,4.041-6.307h2.8A15.618,15.618,0,0,1,482.644,356.106Z" transform="translate(-459.341 -325.375)" fill="#fff"/>
              </g>
            </g>
            <g id="Grupo_94768" data-name="Grupo 94768" transform="translate(161.681 371.6)">
              <path id="Rectángulo_32502" data-name="Rectángulo 32502" d="M3.578,0H81.812A3.577,3.577,0,0,1,85.39,3.577V117.594a3.578,3.578,0,0,1-3.578,3.578H3.578A3.578,3.578,0,0,1,0,117.594V3.578A3.578,3.578,0,0,1,3.578,0Z" transform="translate(121.172 0) rotate(90)" fill="#d83300"/>
              <path id="Trazado_163668" data-name="Trazado 163668" d="M440.79,352.388a10.34,10.34,0,0,0-3.628,4.407,9.872,9.872,0,0,0-.583,1.88,9.982,9.982,0,0,0-.2,2.018v47.331a9.987,9.987,0,0,0,3.486,7.583h32.687a4.915,4.915,0,0,0,4.909-4.909v-60.02H446.389A9.977,9.977,0,0,0,440.79,352.388Z" transform="translate(-356.284 -330.217)" fill="#a02808"/>
              <g id="Grupo_94766" data-name="Grupo 94766" transform="translate(60.586 4.557)">
                <path id="Trazado_163669" data-name="Trazado 163669" d="M441.663,365a10.015,10.015,0,0,1,.209-2.02,10.739,10.739,0,0,1,.575-1.873,9.841,9.841,0,0,1,1.848-2.851,9.47,9.47,0,0,1,1.786-1.554,9.875,9.875,0,0,1,5.594-1.714h26.514V339.437a.353.353,0,0,0-.353-.351H422.159v76.276h19.969a10.276,10.276,0,0,1-.465-3.022Z" transform="translate(-422.159 -339.086)" fill="#fff"/>
                <path id="Trazado_163670" data-name="Trazado 163670" d="M472.9,410.7V350.679H446.387a9.875,9.875,0,0,0-5.594,1.714,9.472,9.472,0,0,0-1.786,1.554,9.84,9.84,0,0,0-1.848,2.851,10.74,10.74,0,0,0-.575,1.873,10.015,10.015,0,0,0-.209,2.02v47.337a10.275,10.275,0,0,0,.465,3.022h35.708A.353.353,0,0,0,472.9,410.7Z" transform="translate(-416.871 -334.773)" fill="#e3e5e5"/>
              </g>
              <path id="Trazado_163671" data-name="Trazado 163671" d="M381.674,339.086a.352.352,0,0,0-.353.351V415.01a.352.352,0,0,0,.353.353h55.677V339.086Z" transform="translate(-376.765 -334.529)" fill="#fff"/>
              <path id="Trazado_163672" data-name="Trazado 163672" d="M429.337,339.086h-7.178v76.276h7.178a.729.729,0,0,0,.045-.353V339.437A.726.726,0,0,0,429.337,339.086Z" transform="translate(-361.573 -334.529)" fill="#e3e5e5"/>
              <path id="Trazado_163673" data-name="Trazado 163673" d="M417.629,383.108a10.723,10.723,0,1,0-6.448,13.727A10.725,10.725,0,0,0,417.629,383.108Zm-3.16,3.54L403.9,392.555a1.351,1.351,0,0,1-1.546-.111l-.005.01-1.893-2.642.938-.465,1.618.982c.027-.022,1.936-1.1,4-2.273l-4.181-3.655,1.01-.833,6,2.891,2.33-1.317c.654-.366,2.567-.808,2.9-.221h0A1.3,1.3,0,0,1,414.47,386.647Z" transform="translate(-371 -320.789)" fill="#d83300"/>
              <g id="Grupo_94767" data-name="Grupo 94767" transform="translate(18.698 10.031)">
                <path id="Trazado_163674" data-name="Trazado 163674" d="M398.109,343.076l-6.481,13.673L419.371,369.9l6.481-13.675Zm20.429,24.488-24.574-11.647,4.979-10.5,24.573,11.647Z" transform="translate(-391.628 -343.076)" fill="#009eed"/>
                <path id="Trazado_163675" data-name="Trazado 163675" d="M413.8,355.981h0a1.223,1.223,0,0,1-1.629.58L400.024,350.8a1.222,1.222,0,0,1-.582-1.627h0a1.224,1.224,0,0,1,1.629-.582l12.148,5.758A1.224,1.224,0,0,1,413.8,355.981Z" transform="translate(-388.765 -341.067)" fill="#009eed"/>
                <path id="Trazado_163676" data-name="Trazado 163676" d="M408.245,356.784h0a1.224,1.224,0,0,1-1.629.582l-5.812-2.755a1.222,1.222,0,0,1-.58-1.629h0a1.221,1.221,0,0,1,1.627-.58l5.813,2.755A1.221,1.221,0,0,1,408.245,356.784Z" transform="translate(-388.474 -339.651)" fill="#009eed"/>
              </g>
              <path id="Trazado_163677" data-name="Trazado 163677" d="M392.062,361.012l-7.357,21.141,25.862-8.548Zm1.662,5.027,10.143,6.9-14.175,4.685Z" transform="translate(-375.506 -326.372)" fill="#92c927"/>
            </g>
            <g id="Grupo_94770" data-name="Grupo 94770" transform="translate(246.442 394.745)">
              <g id="Grupo_94769" data-name="Grupo 94769">
                <path id="Trazado_163678" data-name="Trazado 163678" d="M534.207,352.634h0a9.225,9.225,0,0,1,2.741.414A9.225,9.225,0,0,0,534.207,352.634Z" transform="translate(-404.652 -352.634)" fill="#fff"/>
                <path id="Trazado_163679" data-name="Trazado 163679" d="M536.2,352.936a9.166,9.166,0,0,1,2.412,1.159A9.166,9.166,0,0,0,536.2,352.936Z" transform="translate(-403.908 -352.522)" fill="#fff"/>
                <path id="Trazado_163680" data-name="Trazado 163680" d="M439.779,370v-9.673a9.179,9.179,0,0,1,.724-3.586,9.179,9.179,0,0,0-.724,3.586v43.56a9.215,9.215,0,0,0,9.216,9.216h36.871V370Z" transform="translate(-439.779 -351.108)" fill="#fff"/>
                <path id="Trazado_163681" data-name="Trazado 163681" d="M440.307,357.447A9.18,9.18,0,0,1,442,354.829,9.18,9.18,0,0,0,440.307,357.447Z" transform="translate(-439.583 -351.817)" fill="#fff"/>
                <path id="Trazado_163682" data-name="Trazado 163682" d="M473.37,409.5h83.468a9.215,9.215,0,0,0,9.216-9.216V366.4H473.37Z" transform="translate(-427.283 -347.513)" fill="#fff"/>
                <rect id="Rectángulo_32503" data-name="Rectángulo 32503" width="3.79" height="43.103" transform="translate(46.087 18.888)" fill="#e3e5e5"/>
                <path id="Trazado_163683" data-name="Trazado 163683" d="M539.39,355.078a9.305,9.305,0,0,1,.993,1.469A9.305,9.305,0,0,0,539.39,355.078Z" transform="translate(-402.724 -351.725)" fill="#009eed"/>
                <path id="Trazado_163684" data-name="Trazado 163684" d="M443.186,353.781a9.289,9.289,0,0,0-1.646,1.438A9.289,9.289,0,0,1,443.186,353.781Z" transform="translate(-439.124 -352.207)" fill="#009eed"/>
                <path id="Trazado_163685" data-name="Trazado 163685" d="M539.921,355.561a9.254,9.254,0,0,0-1.958-1.78A9.254,9.254,0,0,1,539.921,355.561Z" transform="translate(-403.254 -352.207)" fill="#009eed"/>
                <path id="Trazado_163686" data-name="Trazado 163686" d="M564.943,357.457a9.284,9.284,0,0,0-2.951-3.249,9.175,9.175,0,0,0-5.153-1.574H473.37v18.888h92.684V361.85A9.179,9.179,0,0,0,564.943,357.457Z" transform="translate(-427.283 -352.634)" fill="#009eed"/>
                <line id="Línea_264" data-name="Línea 264" y2="43.103" transform="translate(46.087 18.888)" fill="#fff"/>
                <rect id="Rectángulo_32504" data-name="Rectángulo 32504" width="3.79" height="18.888" transform="translate(46.087 0)" fill="#0086a4"/>
                <path id="Trazado_163687" data-name="Trazado 163687" d="M439.779,371.522h46.087V352.634H448.995a9.178,9.178,0,0,0-5.153,1.574,9.289,9.289,0,0,0-1.646,1.438,9.1,9.1,0,0,0-2.416,6.2Z" transform="translate(-439.779 -352.634)" fill="#009eed"/>
              </g>
              <path id="Trazado_163688" data-name="Trazado 163688" d="M481.958,375.865a1.186,1.186,0,0,1,0-2.372h32.714a1.186,1.186,0,0,1,0,2.372Z" transform="translate(-424.529 -344.874)" fill="#0086a4"/>
              <path id="Trazado_163689" data-name="Trazado 163689" d="M446.887,361.807a1.186,1.186,0,0,1,0-2.372h24.829a1.186,1.186,0,0,1,0,2.372Z" transform="translate(-437.576 -350.104)" fill="#fff"/>
              <path id="Trazado_163690" data-name="Trazado 163690" d="M523.339,361.807a1.186,1.186,0,0,1,0-2.372h12.248a1.186,1.186,0,0,1,0,2.372Z" transform="translate(-409.136 -350.104)" fill="#fff"/>
              <path id="Trazado_163691" data-name="Trazado 163691" d="M511.13,361.807a1.186,1.186,0,0,1,0-2.372H518.1a1.186,1.186,0,1,1,0,2.372Z" transform="translate(-413.677 -350.104)" fill="#fff"/>
              <path id="Trazado_163692" data-name="Trazado 163692" d="M481.958,383.362a1.185,1.185,0,0,1,0-2.371h32.714a1.185,1.185,0,1,1,0,2.371Z" transform="translate(-424.529 -342.085)" fill="#0086a4"/>
              <path id="Trazado_163693" data-name="Trazado 163693" d="M481.958,391.649a1.185,1.185,0,1,1,0-2.371h7.635a1.185,1.185,0,0,1,0,2.371Z" transform="translate(-424.529 -339.002)" fill="#0086a4"/>
              <path id="Trazado_163694" data-name="Trazado 163694" d="M528.8,373.535l2.21,6.8a1.113,1.113,0,0,0,1.059.77h7.154a1.115,1.115,0,0,1,.654,2.017l-5.787,4.2a1.118,1.118,0,0,0-.4,1.246l2.21,6.8a1.114,1.114,0,0,1-1.714,1.246l-5.787-4.205a1.114,1.114,0,0,0-1.31,0l-5.787,4.205a1.115,1.115,0,0,1-1.715-1.246l2.21-6.8a1.114,1.114,0,0,0-.4-1.246l-5.787-4.2a1.115,1.115,0,0,1,.654-2.017h7.154a1.114,1.114,0,0,0,1.06-.77l2.21-6.8A1.115,1.115,0,0,1,528.8,373.535Z" transform="translate(-411.744 -345.145)" fill="#ff970d"/>
              <path id="Trazado_163695" data-name="Trazado 163695" d="M475.079,392.881h0l-.816-.845-.277-.288a1.441,1.441,0,0,0-.593-.369,1.386,1.386,0,0,0-.169-.043,1.417,1.417,0,0,0-.35-.022,1.113,1.113,0,0,0-.177.022l-3.817.889-.388-1.03-.408-1.081A5.012,5.012,0,0,0,467,388.4l-5.762-5.971,9.67-5.211,2.511-1.353-1.1-1.146-1.118-1.158h0l-14.285,4.382-2.977-3.083-1.091-1.131a4.761,4.761,0,0,0-3.558-1.266,8.025,8.025,0,0,0-.982.074,1.055,1.055,0,0,0-.9.866c-.036.2-.069.445-.092.708-.007.088-.012.178-.018.272a4.77,4.77,0,0,0,1.139,3.6L452.5,382.2h0l-4.587,13.831.749.777,1.474,1.527h0l.739-1.287,5.953-10.363h0l4.008,4.153,1.753,1.818a5.041,5.041,0,0,0,1.675,1.144l2.081.87-1.025,3.784a1.428,1.428,0,0,0,.154,1.018,1.4,1.4,0,0,0,.213.283l1.093,1.135h0l2.15-3.654.885-1.5Z" transform="translate(-436.986 -345.257)" fill="#ff970d"/>
            </g>
            <g id="Grupo_94771" data-name="Grupo 94771" transform="translate(113.161)">
              <path id="Trazado_163696" data-name="Trazado 163696" d="M753.475,179.912a22.352,22.352,0,0,0-14.787-7.222c.037-.517.063-1.039.063-1.565a21.6,21.6,0,0,0-41.533-8.317,14.833,14.833,0,0,0-24.139,10.459,14.963,14.963,0,0,0-2.911-.287,14.8,14.8,0,0,0-11.4,5.341,18.835,18.835,0,0,0-5.417-.794q-.469,0-.93.023c-8.987.436-8.489,13.977.508,13.977h95.285A6.985,6.985,0,0,0,753.475,179.912Z" transform="translate(-229.81 -33.444)" fill="#fff"/>
              <path id="Trazado_163697" data-name="Trazado 163697" d="M646.964,85.75A15.318,15.318,0,0,0,636.827,80.8c.025-.355.043-.712.043-1.073a14.807,14.807,0,0,0-28.472-5.7,10.168,10.168,0,0,0-16.549,7.17,10.3,10.3,0,0,0-2-.2,10.15,10.15,0,0,0-7.814,3.66,12.968,12.968,0,0,0-3.714-.543c-.214,0-.427.005-.638.015-6.16.3-5.819,9.582.349,9.582h65.322A4.788,4.788,0,0,0,646.964,85.75Z" transform="translate(-256.852 -64.919)" fill="#fff"/>
              <path id="Trazado_163698" data-name="Trazado 163698" d="M344.408,152.928a22.1,22.1,0,0,1,14.626-7.144c-.037-.512-.062-1.028-.062-1.549a21.364,21.364,0,0,1,41.081-8.225,14.671,14.671,0,0,1,23.877,10.345,14.673,14.673,0,0,1,14.155,5,18.665,18.665,0,0,1,5.358-.785c.309,0,.615.007.921.022,8.888.432,8.4,13.826-.5,13.826H349.61A6.909,6.909,0,0,1,344.408,152.928Z" transform="translate(-342.635 -43.36)" fill="#fff"/>
            </g>
          </g>
        </g>
      </g>
    </g>
  </g>
</svg>
