<svg xmlns="http://www.w3.org/2000/svg" width="512.969" height="814.322" viewBox="0 0 512.969 814.322">
  <g id="Grupo_98478" data-name="Grupo 98478" transform="translate(-861.753 -2148)">
    <g id="Grupo_98053" data-name="Grupo 98053" transform="translate(0 -40)">
      <rect id="Rectángulo_5566" data-name="Rectángulo 5566" width="307.372" height="814.322" rx="31" transform="translate(964.551 2188)" fill="#ffee58" opacity="0.25"/>
      <g id="Grupo_56615" data-name="Grupo 56615" transform="translate(861.753 2552.491)">
        <g id="Background_Complete" data-name="Background Complete" transform="translate(18.591 0)">
          <g id="Grupo_56753" data-name="Grupo 56753" transform="translate(243.585 324.696)">
            <g id="Grupo_56727" data-name="Grupo 56727" opacity="0.66">
              <g id="Grupo_56726" data-name="Grupo 56726">
                <g id="Grupo_56725" data-name="Grupo 56725">
                  <g id="Grupo_56724" data-name="Grupo 56724">
                    <path id="Trazado_103784" data-name="Trazado 103784" d="M280.14,469.277c-18.309-8.669-25.615-29.274-28.2-48.47-.431-3.2-1.349-6.5-.307-9.555s4.256-5.56,7.336-4.7c2.555.713,4.052,3.291,5.76,5.343a18.9,18.9,0,0,0,8.68,5.873c2.207.71,4.825.928,6.641-.514,2.492-1.981,2.174-5.832,1.618-9q-1.555-8.851-3.107-17.7c-.557-3.166-1.113-6.4-.637-9.573s2.182-6.337,5.053-7.691,6.894-.247,8.055,2.746a29.711,29.711,0,0,1,.758,3.931c.31,1.3,1.17,2.652,2.481,2.807,1.328.158,2.443-.955,3.234-2.043,2.73-3.752,4.252-8.249,5.633-12.7s2.684-8.987,5.061-12.978,6.014-7.452,10.508-8.477,9.8.958,11.7,5.22.067,9.246-2.158,13.342A71.739,71.739,0,0,1,315.9,381.672a5.908,5.908,0,0,0-2.015,3.066c-.331,2.229,2.026,3.988,4.229,4.329,2.494.388,5.017-.291,7.536-.419s5.381.51,6.71,2.687c1.846,3.019-.288,6.873-2.577,9.547A61.453,61.453,0,0,1,313.6,414.266c-2.186,1.247-4.513,2.41-6.116,4.366s-2.256,5-.742,7.035,4.549,2.264,6.915,1.4,4.325-2.56,6.5-3.832c4.076-2.38,9.75-3.031,13.176.26a10.17,10.17,0,0,1,2.567,8.687,23.443,23.443,0,0,1-3.478,8.643,61.789,61.789,0,0,1-22.923,22.684c-9.508,5.212-18.708,7.744-29.368,5.77" transform="translate(-251.157 -346.316)" fill="#ffc571"/>
                  </g>
                </g>
              </g>
            </g>
            <g id="Grupo_56732" data-name="Grupo 56732" transform="translate(31.885 1.913)">
              <g id="Grupo_56731" data-name="Grupo 56731">
                <g id="Grupo_56730" data-name="Grupo 56730">
                  <g id="Grupo_56729" data-name="Grupo 56729">
                    <g id="Grupo_56728" data-name="Grupo 56728">
                      <path id="Trazado_103785" data-name="Trazado 103785" d="M281.17,456.366a288.187,288.187,0,0,1,6.1-32.476q1.031-4.269,2.037-8.43c.675-2.765,1.343-5.508,2.163-8.151A144.072,144.072,0,0,1,297.05,392.4c2-4.658,4.077-9,6.044-13.053s3.89-7.785,5.78-11.117a114.018,114.018,0,0,1,10.077-15.045c1.324-1.676,2.394-2.944,3.13-3.793.356-.4.634-.721.843-.96a2.508,2.508,0,0,1,.3-.313,2.311,2.311,0,0,1-.256.354l-.8,1c-.706.874-1.746,2.164-3.041,3.86a120.719,120.719,0,0,0-9.893,15.111c-1.861,3.336-3.749,7.075-5.7,11.126s-4,8.4-5.987,13.054a145.7,145.7,0,0,0-5.526,14.866c-.812,2.628-1.471,5.347-2.146,8.12l-2.032,8.427a295.17,295.17,0,0,0-6.134,32.4" transform="translate(-281.17 -348.117)" fill="#ff9800"/>
                    </g>
                  </g>
                </g>
              </g>
            </g>
            <g id="Grupo_56737" data-name="Grupo 56737" transform="translate(31.817 26.977)">
              <g id="Grupo_56736" data-name="Grupo 56736">
                <g id="Grupo_56735" data-name="Grupo 56735">
                  <g id="Grupo_56734" data-name="Grupo 56734">
                    <g id="Grupo_56733" data-name="Grupo 56733">
                      <path id="Trazado_103786" data-name="Trazado 103786" d="M291.636,405.788a6.541,6.541,0,0,1-.539-1.3c-.314-.848-.729-2.088-1.218-3.628-.982-3.08-2.193-7.378-3.509-12.122s-2.586-9.016-3.612-12.072c-.509-1.529-.933-2.763-1.236-3.612a6.522,6.522,0,0,1-.41-1.345,6.27,6.27,0,0,1,.624,1.26c.371.825.856,2.041,1.416,3.557,1.131,3.031,2.469,7.3,3.786,12.051l3.342,12.162c.41,1.46.759,2.691,1.037,3.678A6.434,6.434,0,0,1,291.636,405.788Z" transform="translate(-281.106 -371.71)" fill="#ff9800"/>
                    </g>
                  </g>
                </g>
              </g>
            </g>
            <g id="Grupo_56742" data-name="Grupo 56742" transform="translate(42.347 46.54)">
              <g id="Grupo_56741" data-name="Grupo 56741">
                <g id="Grupo_56740" data-name="Grupo 56740">
                  <g id="Grupo_56739" data-name="Grupo 56739">
                    <g id="Grupo_56738" data-name="Grupo 56738">
                      <path id="Trazado_103787" data-name="Trazado 103787" d="M330.469,390.133a8.885,8.885,0,0,1-1.593.47c-1.029.27-2.521.652-4.349,1.185-3.663,1.034-8.673,2.639-14.123,4.652s-10.3,4.065-13.767,5.642c-1.74.777-3.131,1.444-4.1,1.9a8.834,8.834,0,0,1-1.523.659,8.807,8.807,0,0,1,1.419-.867c.934-.518,2.3-1.245,4.022-2.074,3.431-1.681,8.276-3.791,13.74-5.821a145.681,145.681,0,0,1,14.219-4.5c1.849-.48,3.359-.8,4.409-1A8.9,8.9,0,0,1,330.469,390.133Z" transform="translate(-291.017 -390.124)" fill="#ff9800"/>
                    </g>
                  </g>
                </g>
              </g>
            </g>
            <g id="Grupo_56747" data-name="Grupo 56747" transform="translate(2.944 60.766)">
              <g id="Grupo_56746" data-name="Grupo 56746">
                <g id="Grupo_56745" data-name="Grupo 56745">
                  <g id="Grupo_56744" data-name="Grupo 56744">
                    <g id="Grupo_56743" data-name="Grupo 56743">
                      <path id="Trazado_103788" data-name="Trazado 103788" d="M283.243,452.077a2.117,2.117,0,0,1-.363-.449l-.945-1.357c-.816-1.18-1.953-2.92-3.328-5.089-2.756-4.334-6.373-10.442-10.273-17.235s-7.458-12.928-10.118-17.313l-3.167-5.186-.854-1.416a2.114,2.114,0,0,1-.263-.517,2.217,2.217,0,0,1,.363.452c.256.367.568.813.946,1.354.817,1.181,1.954,2.922,3.329,5.089,2.755,4.334,6.372,10.442,10.274,17.238s7.456,12.925,10.117,17.311c1.3,2.13,2.371,3.883,3.166,5.185l.854,1.416A2.115,2.115,0,0,1,283.243,452.077Z" transform="translate(-253.928 -403.515)" fill="#e0e0e0"/>
                    </g>
                  </g>
                </g>
              </g>
            </g>
            <g id="Grupo_56752" data-name="Grupo 56752" transform="translate(32.259 82.72)">
              <g id="Grupo_56751" data-name="Grupo 56751">
                <g id="Grupo_56750" data-name="Grupo 56750">
                  <g id="Grupo_56749" data-name="Grupo 56749">
                    <g id="Grupo_56748" data-name="Grupo 56748">
                      <path id="Trazado_103789" data-name="Trazado 103789" d="M332.707,424.182a2.187,2.187,0,0,1-.5.312l-1.483.792-5.478,2.86c-4.627,2.416-10.978,5.825-17.99,9.6s-13.4,7.133-18.082,9.453c-2.338,1.161-4.24,2.081-5.567,2.69l-1.532.693a2.153,2.153,0,0,1-.553.2,2.269,2.269,0,0,1,.5-.313l1.483-.792,5.479-2.86c4.626-2.415,10.977-5.825,17.992-9.6s13.4-7.132,18.078-9.452c2.338-1.161,4.24-2.081,5.568-2.69l1.532-.693A2.192,2.192,0,0,1,332.707,424.182Z" transform="translate(-281.522 -424.179)" fill="#ff9800"/>
                    </g>
                  </g>
                </g>
              </g>
            </g>
          </g>
          <g id="Grupo_56777" data-name="Grupo 56777" transform="translate(109.341 219.332)">
            <g id="Grupo_56755" data-name="Grupo 56755" opacity="0.49">
              <g id="Grupo_56754" data-name="Grupo 56754">
                <path id="Trazado_103790" data-name="Trazado 103790" d="M154.388,247.428s-12.623,1.754-5.536,29.4,13.1,41.895,13.1,41.895.953,6.262-4.1,6.068-15.34-4.292-18.831,1.155c-3.622,5.65-.456,12.456,7.462,19.581s24.691,23.372,26.2,24.847c1.484,1.447,2.609,4.515-.851,4.934s-28.031-2.465-28.7,9.277,24.647,27.966,27.381,29.792,3.165,3.256,2.552,4.844-8.779-.159-15.8-.694-15.258.078-15.076,6.884,13.473,24.005,52.257,36.794l18.359,4.749,13.572-13.365c27.3-30.371,30.289-51.9,27.064-57.9s-10.676-2.434-16.5,1.519-12.047,9.527-13.368,8.454-1.658-2.528-.193-5.472,15.373-29.6,8.956-39.46-26.305,4.857-29.516,6.213-3.759-1.865-3.19-3.859c.578-2.031,7.061-24.465,10.39-34.582s2.7-17.6-3.254-20.7c-5.737-2.993-12.632,5.678-16.915,8.354s-6.571-3.231-6.571-3.231-1.864-15.351-9.453-42.863-19.688-22.584-19.688-22.584" transform="translate(-137.532 -247.138)" fill="#ffc571"/>
              </g>
            </g>
            <g id="Grupo_56758" data-name="Grupo 56758" transform="translate(23.16 25.059)">
              <g id="Grupo_56757" data-name="Grupo 56757">
                <g id="Grupo_56756" data-name="Grupo 56756">
                  <path id="Trazado_103791" data-name="Trazado 103791" d="M211.425,470.048c-5.494-20.228-14.652-56.343-22.677-87.309s-15.312-58.974-20.7-79.228c-2.7-10.106-4.889-18.293-6.408-23.979-.75-2.813-1.334-5.006-1.738-6.521-.187-.73-.333-1.295-.438-1.7-.1-.384-.13-.584-.13-.584s.073.19.188.568c.118.4.281.963.494,1.685.428,1.508,1.049,3.692,1.844,6.492,1.6,5.64,3.847,13.817,6.59,23.932,5.494,20.228,12.847,48.233,20.869,79.188s17.12,67.1,22.511,87.348" transform="translate(-159.332 -270.726)" fill="#ff9800"/>
                </g>
              </g>
            </g>
            <g id="Grupo_56761" data-name="Grupo 56761" transform="translate(15.655 85.118)">
              <g id="Grupo_56760" data-name="Grupo 56760">
                <g id="Grupo_56759" data-name="Grupo 56759">
                  <path id="Trazado_103792" data-name="Trazado 103792" d="M152.269,327.262a6.171,6.171,0,0,1,1.209.648c.761.447,1.84,1.126,3.166,1.977,2.649,1.707,6.248,4.158,10.169,6.934l10.014,7.143,3.046,2.144a6.191,6.191,0,0,1,1.09.833,6.081,6.081,0,0,1-1.214-.64c-.759-.449-1.839-1.128-3.157-1.993-2.631-1.734-6.2-4.231-10.118-7.007l-10.061-7.068-3.059-2.13A6.181,6.181,0,0,1,152.269,327.262Z" transform="translate(-152.268 -327.259)" fill="#ff9800"/>
                </g>
              </g>
            </g>
            <g id="Grupo_56764" data-name="Grupo 56764" transform="translate(45.877 70.089)">
              <g id="Grupo_56763" data-name="Grupo 56763">
                <g id="Grupo_56762" data-name="Grupo 56762">
                  <path id="Trazado_103793" data-name="Trazado 103793" d="M180.718,346.926c-.137-.088,4.588-7.729,10.554-17.065s10.915-16.836,11.052-16.748-4.587,7.727-10.556,17.066S180.855,347.013,180.718,346.926Z" transform="translate(-180.715 -313.112)" fill="#ff9800"/>
                </g>
              </g>
            </g>
            <g id="Grupo_56767" data-name="Grupo 56767" transform="translate(56.056 127.553)">
              <g id="Grupo_56766" data-name="Grupo 56766">
                <g id="Grupo_56765" data-name="Grupo 56765">
                  <path id="Trazado_103794" data-name="Trazado 103794" d="M190.3,391.652a6.366,6.366,0,0,1,1.007-.973l2.864-2.506c2.414-2.118,5.737-5.059,9.283-8.437s6.666-6.535,8.9-8.842c1.053-1.086,1.94-2,2.65-2.732a6.469,6.469,0,0,1,1.022-.957,6.31,6.31,0,0,1-.852,1.112c-.579.689-1.433,1.672-2.516,2.862-2.16,2.385-5.233,5.6-8.8,8.984s-6.933,6.287-9.42,8.328c-1.248,1.016-2.267,1.826-2.987,2.366A6.373,6.373,0,0,1,190.3,391.652Z" transform="translate(-190.297 -367.203)" fill="#ff9800"/>
                </g>
              </g>
            </g>
            <g id="Grupo_56770" data-name="Grupo 56770" transform="translate(24.981 141.024)">
              <g id="Grupo_56769" data-name="Grupo 56769">
                <g id="Grupo_56768" data-name="Grupo 56768">
                  <path id="Trazado_103795" data-name="Trazado 103795" d="M161.047,379.89a5.517,5.517,0,0,1,1.258.3l3.361,1.041c2.831.9,6.727,2.187,11.02,3.641s8.17,2.8,10.966,3.805l3.3,1.216a5.557,5.557,0,0,1,1.186.523,5.513,5.513,0,0,1-1.259-.3l-3.361-1.04c-2.83-.9-6.727-2.187-11.021-3.642s-8.168-2.8-10.965-3.8l-3.3-1.217A5.433,5.433,0,0,1,161.047,379.89Z" transform="translate(-161.047 -379.883)" fill="#ff9800"/>
                </g>
              </g>
            </g>
            <g id="Grupo_56773" data-name="Grupo 56773" transform="translate(28.571 184.632)">
              <g id="Grupo_56772" data-name="Grupo 56772">
                <g id="Grupo_56771" data-name="Grupo 56771">
                  <path id="Trazado_103796" data-name="Trazado 103796" d="M164.426,420.936a8.781,8.781,0,0,1,1.606.406l4.313,1.317c3.633,1.136,8.64,2.744,14.159,4.554s10.508,3.483,14.108,4.72l4.255,1.494a8.936,8.936,0,0,1,1.535.625,9.033,9.033,0,0,1-1.606-.406l-4.313-1.318c-3.633-1.136-8.641-2.744-14.162-4.555s-10.5-3.482-14.106-4.719l-4.254-1.494A8.942,8.942,0,0,1,164.426,420.936Z" transform="translate(-164.426 -420.93)" fill="#ff9800"/>
                </g>
              </g>
            </g>
            <g id="Grupo_56776" data-name="Grupo 56776" transform="translate(67.679 165.268)">
              <g id="Grupo_56775" data-name="Grupo 56775">
                <g id="Grupo_56774" data-name="Grupo 56774">
                  <path id="Trazado_103797" data-name="Trazado 103797" d="M201.239,434.607a10.147,10.147,0,0,1,1.245-1.265L206,430.034c2.966-2.8,7.047-6.674,11.432-11.082s8.262-8.492,11.043-11.471l3.3-3.527a10.361,10.361,0,0,1,1.259-1.249,10.148,10.148,0,0,1-1.088,1.4c-.73.877-1.805,2.13-3.161,3.656-2.7,3.054-6.535,7.2-10.935,11.606s-8.527,8.253-11.567,10.973c-1.525,1.356-2.768,2.441-3.646,3.171A10.3,10.3,0,0,1,201.239,434.607Z" transform="translate(-201.238 -402.703)" fill="#e0e0e0"/>
                </g>
              </g>
            </g>
          </g>
          <g id="Grupo_56778" data-name="Grupo 56778" transform="translate(18.414 0)">
            <path id="Trazado_103798" data-name="Trazado 103798" d="M104.153,94.6,93.785,91.364s-2.715,8.705-11.81,6.039a8.786,8.786,0,0,1-6.454-7.889,9.732,9.732,0,0,1,3.358-8.166c2.663-2.351,7.339-3.784,13.942-.373L100.114,57.6,89.862,54.4,85.59,68.093s-15.537-.769-20.481,15.076c-4.73,15.161,7.768,22.923,13.588,24.738C83.146,109.3,98.642,112.95,104.153,94.6Z" transform="translate(-64.062 -39.828)" fill="#f5f5f5"/>
            <rect id="Rectángulo_5777" data-name="Rectángulo 5777" width="10.899" height="10.179" transform="matrix(-0.955, -0.298, 0.298, -0.955, 37.583, 12.963)" fill="#f5f5f5"/>
          </g>
          <g id="Grupo_56779" data-name="Grupo 56779" transform="translate(95.569 18.307)">
            <path id="Trazado_103799" data-name="Trazado 103799" d="M128.758,67.986l4.152-1.094a3.649,3.649,0,0,1,2.687-4.5,3.474,3.474,0,0,1,3.819,1.287,3.847,3.847,0,0,1,.591,3.44c-.4,1.347-1.663,2.809-4.591,3.054l2.469,9.362,4.105-1.084-1.446-5.483a8.293,8.293,0,0,0,3.692-9.353c-1.6-6.07-7.419-6.045-9.748-5.43C132.7,58.651,126.748,60.684,128.758,67.986Z" transform="translate(-128.349 -57.916)" fill="#ffc571"/>
            <rect id="Rectángulo_5778" data-name="Rectángulo 5778" width="4.309" height="4.024" transform="matrix(0.967, -0.255, 0.255, 0.967, 10.033, 23.546)" fill="#ffc571"/>
          </g>
          <g id="Grupo_56780" data-name="Grupo 56780" transform="translate(472.825 130.457)">
            <path id="Trazado_103800" data-name="Trazado 103800" d="M451.543,168.926l4.037,1.462a3.65,3.65,0,0,1,4.773-2.174,3.471,3.471,0,0,1,2.407,3.231,3.848,3.848,0,0,1-1.471,3.166c-1.094.881-2.966,1.363-5.513-.1l-3.3,9.1,3.991,1.446,1.931-5.331a8.293,8.293,0,0,0,8.359-5.589c2.138-5.9-2.659-9.193-4.925-10.014C460.1,163.5,454.047,161.776,451.543,168.926Z" transform="translate(-450.417 -163.481)" fill="#ffc571"/>
            <rect id="Rectángulo_5779" data-name="Rectángulo 5779" width="4.309" height="4.024" transform="translate(1.371 22.001) rotate(19.914)" fill="#ffc571"/>
          </g>
          <g id="Grupo_56781" data-name="Grupo 56781" transform="translate(0 158.811)">
            <path id="Trazado_103801" data-name="Trazado 103801" d="M48.35,213.5l8.545-3.291s-2.764-7.173,4.641-10.174a7.408,7.408,0,0,1,8.395,1.834,8.205,8.205,0,0,1,2.058,7.154c-.529,2.948-2.868,6.342-9.016,7.546l7.421,19.265,8.449-3.255-4.348-11.285s10.669-7.628,5.639-20.685C75.32,188.113,63,189.528,58.2,191.376,54.534,192.789,42.383,198.488,48.35,213.5Z" transform="translate(-46.729 -190.171)" fill="#f5f5f5"/>
            <rect id="Rectángulo_5780" data-name="Rectángulo 5780" width="9.188" height="8.581" transform="matrix(0.933, -0.359, 0.359, 0.933, 25.17, 49.638)" fill="#f5f5f5"/>
          </g>
          <g id="Grupo_56782" data-name="Grupo 56782" transform="translate(452.323 190.232)">
            <path id="Trazado_103802" data-name="Trazado 103802" d="M456.048,243.568l-6.054,2.332s1.958,5.083-3.29,7.21a5.25,5.25,0,0,1-5.948-1.3,5.816,5.816,0,0,1-1.459-5.07c.375-2.089,2.032-4.495,6.39-5.348l-5.26-13.651-5.986,2.306,3.081,8a12.528,12.528,0,0,0-4,14.659c3.41,8.854,12.143,7.851,15.542,6.542C451.666,258.244,460.278,254.2,456.048,243.568Z" transform="translate(-431.099 -219.248)" fill="#f5f5f5"/>
            <rect id="Rectángulo_5781" data-name="Rectángulo 5781" width="6.511" height="6.081" transform="translate(8.262 5.675) rotate(158.931)" fill="#f5f5f5"/>
          </g>
        </g>
        <g id="Floor" transform="translate(0 449.2)">
          <g id="Grupo_56783" data-name="Grupo 56783">
            <path id="Trazado_103803" data-name="Trazado 103803" d="M542.2,463.788c0,.152-114.841.276-256.472.276-141.681,0-256.5-.124-256.5-.276s114.816-.277,256.5-.277C427.357,463.511,542.2,463.635,542.2,463.788Z" transform="translate(-29.229 -463.511)" fill="#263238"/>
          </g>
        </g>
        <g id="Plant" transform="translate(56.684 264.805)">
          <g id="Grupo_56809" data-name="Grupo 56809" transform="translate(0)">
            <g id="Grupo_56786" data-name="Grupo 56786" transform="translate(0 78.549)">
              <g id="Grupo_56785" data-name="Grupo 56785">
                <g id="Grupo_56784" data-name="Grupo 56784">
                  <path id="Trazado_103804" data-name="Trazado 103804" d="M95.035,442.412c1.008-3.906-1.554-7.828-4.426-10.663s-6.3-5.375-7.8-9.123c-2.42-6.072.834-13.934-3.3-19-2.43-2.98-6.786-3.978-8.943-7.161a16.277,16.277,0,0,1-1.941-5.69,57.8,57.8,0,0,0-14.374-26.9A50.16,50.16,0,0,0,59.9,389.8c1.673,3.185,3.727,6.29,4.281,9.845.9,5.773-2.321,11.72-.9,17.388,1.622,6.482,8.9,10.82,9.249,17.493.291,5.641-4.626,10.593-4.259,16.23a15.225,15.225,0,0,0,2.51,6.69c4.362,7.251,10.769,12.246,20.481,12.083l11.9.417Z" transform="translate(-54.182 -363.879)" fill="#ff9800"/>
                </g>
              </g>
            </g>
            <g id="Grupo_56790" data-name="Grupo 56790" transform="translate(0 78.549)" opacity="0.3">
              <g id="Grupo_56789" data-name="Grupo 56789">
                <g id="Grupo_56788" data-name="Grupo 56788">
                  <g id="Grupo_56787" data-name="Grupo 56787">
                    <path id="Trazado_103805" data-name="Trazado 103805" d="M95.035,442.412c1.008-3.906-1.554-7.828-4.426-10.663s-6.3-5.375-7.8-9.123c-2.42-6.072.834-13.934-3.3-19-2.43-2.98-6.786-3.978-8.943-7.161a16.277,16.277,0,0,1-1.941-5.69,57.8,57.8,0,0,0-14.374-26.9A50.16,50.16,0,0,0,59.9,389.8c1.673,3.185,3.727,6.29,4.281,9.845.9,5.773-2.321,11.72-.9,17.388,1.622,6.482,8.9,10.82,9.249,17.493.291,5.641-4.626,10.593-4.259,16.23a15.225,15.225,0,0,0,2.51,6.69c4.362,7.251,10.769,12.246,20.481,12.083l11.9.417Z" transform="translate(-54.182 -363.879)"/>
                  </g>
                </g>
              </g>
            </g>
            <g id="Grupo_56808" data-name="Grupo 56808" transform="translate(10.496)">
              <g id="Grupo_56799" data-name="Grupo 56799" transform="translate(34.852 37.686)">
                <g id="Grupo_56794" data-name="Grupo 56794">
                  <g id="Grupo_56793" data-name="Grupo 56793">
                    <g id="Grupo_56792" data-name="Grupo 56792">
                      <g id="Grupo_56791" data-name="Grupo 56791">
                        <path id="Trazado_103806" data-name="Trazado 103806" d="M102.9,472.657a9.508,9.508,0,0,0,3.275-.071,19.86,19.86,0,0,0,3.866-.973A16.389,16.389,0,0,0,114.813,469a6.663,6.663,0,0,0,1.963-2.617,12.312,12.312,0,0,0,.56-3.555,34.344,34.344,0,0,1,.278-3.848,10.605,10.605,0,0,1,1.453-3.826c1.4-2.464,3.731-4.8,4.483-8.142.815-3.29.23-6.851-.323-10.427s-1.087-7.458.277-11.175c1.276-3.72,3.885-7.08,5.19-11.274,1.3-4.236.693-8.792.968-13.285a17.624,17.624,0,0,1,1.55-6.606c.963-2.106,2.3-4.091,3.34-6.308,2.111-4.481,2.484-9.56,3.062-14.538q.422-3.762.853-7.6a37.185,37.185,0,0,1,1.322-7.608,66.99,66.99,0,0,1,2.846-7.362,24.421,24.421,0,0,0,1.38-3.846,38.624,38.624,0,0,0,.384-4.091,48.171,48.171,0,0,0-.317-8.234c-.323-2.745-.818-5.467-1.113-8.218-.018-.162-.036-.325-.053-.475l-.062-.548-.488.244a18.368,18.368,0,0,0-6.4,5.4,29.131,29.131,0,0,0-3.935,7.251c-1.987,5.111-2.7,10.468-3.7,15.578-.977,5.112-2.267,10.139-4.888,14.388-1.3,2.118-2.88,4.053-4.26,6.119a16.812,16.812,0,0,0-2.952,6.78c-.7,5.033,2.068,9.452,1.492,13.908a15.437,15.437,0,0,1-2.17,6.175c-1.08,1.9-2.35,3.663-3.555,5.434a34.971,34.971,0,0,0-3.192,5.489,17.368,17.368,0,0,0-1.462,5.963c-.29,4.011.279,7.817-.015,11.41a26.236,26.236,0,0,1-2.935,9.777c-1.438,2.927-3.039,5.573-4.38,8.14a41.929,41.929,0,0,0-1.8,3.791,18.663,18.663,0,0,0-1.044,3.761,23.756,23.756,0,0,0-.087,6.79,17.11,17.11,0,0,0,3.4,8.659,8.292,8.292,0,0,0,.963,1.042,4.794,4.794,0,0,0,.781.663c.444.327.681.477.681.477a15.052,15.052,0,0,1-2.3-2.278,17.225,17.225,0,0,1-3.23-8.6,23.615,23.615,0,0,1,.152-6.692,18.369,18.369,0,0,1,1.052-3.672,41.262,41.262,0,0,1,1.815-3.741c1.351-2.544,2.968-5.18,4.439-8.125a26.709,26.709,0,0,0,3.038-9.949c.312-3.669-.24-7.489.063-11.406a16.8,16.8,0,0,1,1.434-5.763,34.4,34.4,0,0,1,3.157-5.379c1.2-1.759,2.488-3.528,3.6-5.469a16.062,16.062,0,0,0,2.27-6.426c.574-4.747-2.178-9.2-1.463-13.874a16.14,16.14,0,0,1,2.851-6.485c1.359-2.028,2.944-3.965,4.287-6.136,2.7-4.371,4.014-9.495,5-14.627,1.01-5.143,1.727-10.442,3.679-15.448a28.417,28.417,0,0,1,3.831-7.06,17.617,17.617,0,0,1,6.134-5.181l-.548-.3c.017.151.036.316.054.479.3,2.784.8,5.511,1.116,8.225a47.5,47.5,0,0,1,.316,8.108,38.647,38.647,0,0,1-.367,3.969,23.853,23.853,0,0,1-1.334,3.709,67.715,67.715,0,0,0-2.867,7.443,37.917,37.917,0,0,0-1.34,7.734q-.425,3.841-.843,7.607c-.568,5-.941,10-2.975,14.323-1,2.154-2.337,4.145-3.328,6.32a18.326,18.326,0,0,0-1.595,6.849c-.259,4.59.339,9.078-.9,13.145-1.233,4.048-3.829,7.424-5.14,11.262-1.4,3.879-.822,7.9-.255,11.453.575,3.581,1.152,7.068.386,10.231-.688,3.2-2.949,5.506-4.381,8.041a11.02,11.02,0,0,0-1.476,3.978,34.3,34.3,0,0,0-.25,3.895,12.079,12.079,0,0,1-.508,3.457,6.379,6.379,0,0,1-1.845,2.5,16.364,16.364,0,0,1-4.66,2.628,20.547,20.547,0,0,1-3.812,1.034,15.256,15.256,0,0,1-2.419.234C103.181,472.647,102.9,472.657,102.9,472.657Z" transform="translate(-96.868 -325.415)" fill="#263238"/>
                      </g>
                    </g>
                  </g>
                </g>
                <g id="Grupo_56798" data-name="Grupo 56798" transform="translate(6.025 7.099)">
                  <g id="Grupo_56797" data-name="Grupo 56797">
                    <g id="Grupo_56796" data-name="Grupo 56796">
                      <g id="Grupo_56795" data-name="Grupo 56795">
                        <path id="Trazado_103807" data-name="Trazado 103807" d="M140.13,332.1a1.423,1.423,0,0,0-.115.359c-.07.285-.156.638-.262,1.071-.234.937-.513,2.352-.962,4.119-.466,1.762-1.546,3.755-2.469,6.214-.959,2.437-1.932,5.263-2.827,8.437s-1.713,6.7-2.553,10.47c-.867,3.767-1.732,7.808-3.808,11.617-.975,1.932-2.074,3.888-2.945,6.028a28.066,28.066,0,0,0-1.713,6.827,138.1,138.1,0,0,1-2.565,14.391c-2.386,9.749-4.657,19.033-6.726,27.489-2.119,8.425-4.029,16.017-5.638,22.418-1.566,6.342-2.839,11.495-3.736,15.129q-.62,2.617-.978,4.124c-.095.437-.173.79-.235,1.076a1.359,1.359,0,0,0-.055.374,1.427,1.427,0,0,0,.131-.354c.082-.282.184-.63.309-1.059.271-.992.645-2.358,1.118-4.087l3.971-15.071c1.655-6.388,3.617-13.967,5.8-22.377,2.088-8.458,4.381-17.745,6.79-27.5a136.33,136.33,0,0,0,2.559-14.452,27.446,27.446,0,0,1,1.649-6.661c.84-2.084,1.922-4.031,2.9-5.983,2.093-3.883,2.964-8.045,3.8-11.8.814-3.784,1.584-7.3,2.454-10.462s1.789-5.989,2.706-8.429c.874-2.45,1.919-4.467,2.357-6.288.412-1.811.639-3.211.826-4.165.075-.44.138-.8.188-1.087A1.386,1.386,0,0,0,140.13,332.1Z" transform="translate(-102.539 -332.097)" fill="#263238"/>
                      </g>
                    </g>
                  </g>
                </g>
              </g>
              <g id="Grupo_56807" data-name="Grupo 56807">
                <g id="Grupo_56802" data-name="Grupo 56802">
                  <g id="Grupo_56801" data-name="Grupo 56801">
                    <g id="Grupo_56800" data-name="Grupo 56800">
                      <path id="Trazado_103808" data-name="Trazado 103808" d="M107.042,474.905c7.77-4.618,10-18.637,6.759-27.076s-8.914-16.147-9.789-25.144c-.672-6.916,1.591-14.014-.019-20.773-2.174-9.122-11.08-16.188-10.976-25.565.057-5.262,3.051-10.212,2.812-15.468-.292-6.448-5.241-11.563-8.306-17.242-4.691-8.693-5-18.971-6.6-28.718S75.6,294.733,66.961,289.942c-1.275,8.276-3.453,13.944-2.77,25.154.246,4.026,4.923,11.734,5.559,20.558.38,5.274.644,10.556.967,15.834.313,5.136.646,10.366,2.487,15.171,1.411,3.682,3.677,7.027,4.724,10.829,1.971,7.152-.618,14.9.973,22.144,1.348,6.138,5.6,11.422,6.465,17.647,1.22,8.745-4.441,17.833-1.544,26.176,1.438,4.14,4.843,7.464,5.81,11.738.75,3.317-.068,6.828.611,10.159,1.094,5.368,11.332,9.537,16.8,9.206" transform="translate(-64.062 -289.942)" fill="#ff9800"/>
                    </g>
                  </g>
                </g>
                <g id="Grupo_56806" data-name="Grupo 56806" transform="translate(5.036 8.215)">
                  <g id="Grupo_56805" data-name="Grupo 56805">
                    <g id="Grupo_56804" data-name="Grupo 56804">
                      <g id="Grupo_56803" data-name="Grupo 56803">
                        <path id="Trazado_103809" data-name="Trazado 103809" d="M68.807,297.675a2.167,2.167,0,0,0,.034.467c.045.348.1.8.175,1.361.178,1.2.378,2.95.783,5.219.434,2.282,1.61,4.851,2.549,7.949.992,3.087,1.978,6.65,2.85,10.64s1.629,8.4,2.407,13.148c.8,4.714,1.628,9.923,3.983,14.867,1.09,2.484,2.313,4.97,3.231,7.618a34.212,34.212,0,0,1,1.638,8.4,169.379,169.379,0,0,0,2.28,18.1l6.709,34.571c2.175,10.588,4.134,20.128,5.784,28.158l3.964,18.971c.476,2.2.85,3.922,1.116,5.15.129.554.23.993.309,1.335a2.13,2.13,0,0,0,.131.449,2.115,2.115,0,0,0-.054-.465c-.059-.345-.137-.791-.235-1.35-.232-1.235-.559-2.969-.975-5.179-.889-4.542-2.16-11.025-3.726-19.019-1.6-8.04-3.508-17.59-5.622-28.19-2.044-10.628-4.289-22.3-6.647-34.561A171.665,171.665,0,0,1,87.2,367.269a34.818,34.818,0,0,0-1.695-8.564c-.946-2.706-2.185-5.2-3.276-7.665-2.341-4.871-3.164-9.958-4-14.688-.805-4.74-1.581-9.165-2.505-13.16s-1.937-7.567-2.97-10.654c-.987-3.109-2.2-5.655-2.666-7.88-.442-2.228-.695-4-.921-5.18-.1-.559-.186-1-.25-1.348A2.041,2.041,0,0,0,68.807,297.675Z" transform="translate(-68.802 -297.675)" fill="#263238"/>
                      </g>
                    </g>
                  </g>
                </g>
              </g>
            </g>
          </g>
        </g>
        <g id="Speech_Bubble" data-name="Speech Bubble" transform="translate(421.585 14.233)">
          <g id="Grupo_56817" data-name="Grupo 56817" transform="translate(0 0)">
            <g id="Grupo_56810" data-name="Grupo 56810" transform="translate(23.173 17.642)">
              <path id="Trazado_103810" data-name="Trazado 103810" d="M422.4,89.553h-4.229a3.594,3.594,0,0,1-3.69,3.615,3.424,3.424,0,0,1-3.315-2.184,3.791,3.791,0,0,1,.3-3.425c.717-1.184,2.289-2.258,5.139-1.756V76.267h-4.181v5.586a8.166,8.166,0,0,0-5.864,7.979c0,6.184,5.546,7.62,7.919,7.62C416.3,97.453,422.484,97.014,422.4,89.553Z" transform="translate(-406.565 -70.339)" fill="#ff9800"/>
              <rect id="Rectángulo_5782" data-name="Rectángulo 5782" width="4.244" height="3.964" transform="translate(10.058 3.964) rotate(180)" fill="#ff9800"/>
            </g>
            <g id="Grupo_56816" data-name="Grupo 56816">
              <g id="Grupo_56815" data-name="Grupo 56815">
                <g id="Grupo_56814" data-name="Grupo 56814">
                  <g id="Grupo_56813" data-name="Grupo 56813">
                    <g id="Grupo_56812" data-name="Grupo 56812">
                      <g id="Grupo_56811" data-name="Grupo 56811">
                        <path id="Trazado_103811" data-name="Trazado 103811" d="M446.926,85.278a3,3,0,0,0,.009-.534c-.01-.389-.025-.909-.044-1.573-.016-.345-.016-.734-.051-1.159q-.091-.639-.2-1.387c-.072-.5-.15-1.043-.233-1.619q-.21-.851-.448-1.808a29.287,29.287,0,0,0-3.823-8.768,30.934,30.934,0,0,0-23.254-14.21,31.938,31.938,0,0,0-4.24-.086c-.716.05-1.446.036-2.168.14l-2.183.329a31.1,31.1,0,0,0-8.627,2.946,33.2,33.2,0,0,0-7.753,5.635,32.559,32.559,0,0,0-5.833,8.119,29.494,29.494,0,0,0-3.037,9.9,19.6,19.6,0,0,0-.224,2.639,23.78,23.78,0,0,0-.049,2.668,31.629,31.629,0,0,0,.676,5.345,31.237,31.237,0,0,0,4.477,10.639l-.033-.323q-2.22,5.533-4.349,10.837l-.258.642.667-.183,11.585-3.186-.286-.054A31.1,31.1,0,0,0,410.488,116a28.172,28.172,0,0,0,6.783.422,21.787,21.787,0,0,0,3.257-.308l1.585-.245c.521-.1,1.026-.256,1.535-.379A31,31,0,0,0,441.274,103.4a29.628,29.628,0,0,0,3.8-7.2q.3-.841.58-1.621.2-.8.391-1.538t.349-1.408c.087-.452.134-.887.2-1.3.1-.819.245-1.538.276-2.169s.038-1.152.053-1.592c.01-.4.016-.725.022-.973a1.482,1.482,0,0,0-.012-.329,1.544,1.544,0,0,0-.046.329c-.019.248-.045.566-.076.968q-.043.658-.106,1.583c-.049.626-.207,1.339-.327,2.149a30.818,30.818,0,0,1-22.859,24.642c-.5.119-1,.273-1.509.365l-1.557.234a21.418,21.418,0,0,1-3.2.287,27.614,27.614,0,0,1-6.648-.44,30.531,30.531,0,0,1-12.951-5.7l-.13-.1-.156.042L385.769,112.8l.409.459q2.132-5.3,4.362-10.832l.068-.17-.1-.153a30.593,30.593,0,0,1-4.373-10.4,31.085,31.085,0,0,1-.661-5.224,23.235,23.235,0,0,1,.047-2.609,18.983,18.983,0,0,1,.218-2.58,28.869,28.869,0,0,1,2.96-9.678,31.973,31.973,0,0,1,5.691-7.952,32.635,32.635,0,0,1,7.577-5.534,30.557,30.557,0,0,1,8.441-2.914l2.14-.33c.708-.106,1.423-.094,2.126-.146A30.545,30.545,0,0,1,441.81,68.642a29.476,29.476,0,0,1,3.889,8.625q.25.943.475,1.786.14.854.263,1.6t.226,1.374c.047.422.057.807.085,1.151.048.661.086,1.178.114,1.565A2.945,2.945,0,0,0,446.926,85.278Z" transform="translate(-384.752 -54.081)" fill="#263238"/>
                      </g>
                    </g>
                  </g>
                </g>
              </g>
            </g>
          </g>
        </g>
        <g id="Question_Mark" data-name="Question Mark" transform="translate(117.673 55.697)">
          <g id="Grupo_56826" data-name="Grupo 56826" transform="translate(0 0)">
            <g id="Grupo_56820" data-name="Grupo 56820">
              <g id="Grupo_56818" data-name="Grupo 56818" transform="translate(25.413)">
                <path id="Trazado_103812" data-name="Trazado 103812" d="M145.068,208.137h61.356s0-51.515,53.535-52.438c27.8-.478,42.22,17.734,48.077,31.686,6.8,16.2,4.743,34.668-4.37,49.693-10.406,17.157-32.819,34.4-74.167,27.113l-.392,136.694h60.668V319.851s85.087-22,85.087-115.765c0-89.718-72.553-109.1-111.544-110.345-21.7-.693-29.564-1.625-56.4,2.184C172.723,100.78,144.344,140.487,145.068,208.137Z" transform="translate(-145.054 -93.11)" fill="#ff9800"/>
                <rect id="Rectángulo_5783" data-name="Rectángulo 5783" width="61.571" height="57.505" transform="translate(83.882 336.275)" fill="#ff9800"/>
                <rect id="Rectángulo_5784" data-name="Rectángulo 5784" width="61.571" height="57.505" transform="translate(83.882 336.275)" fill="#ff9800" opacity="0.1"/>
              </g>
              <g id="Grupo_56819" data-name="Grupo 56819" transform="translate(0 0.42)">
                <path id="Trazado_103814" data-name="Trazado 103814" d="M121.145,208.113H182.5s0-51.515,53.536-52.438c27.8-.478,42.219,17.734,48.077,31.686,6.8,16.2,4.742,34.668-4.371,49.693-10.406,17.157-33.211,32.753-74.559,25.468V400.862h60.668V319.826s85.088-22,85.088-115.764c0-89.718-80.457-110.557-114.9-110.556C209.705,93.506,119.988,99.873,121.145,208.113Z" transform="translate(-121.134 -93.506)" fill="#ffb74d"/>
                <rect id="Rectángulo_5785" data-name="Rectángulo 5785" width="61.571" height="57.505" transform="translate(83.88 335.855)" fill="#ffb74d"/>
              </g>
            </g>
          </g>
        </g>
        <g id="Character" transform="translate(342.981 33.248)">
          <g id="Grupo_57041" data-name="Grupo 57041" transform="translate(0 0)">
            <g id="Grupo_56843" data-name="Grupo 56843" transform="translate(0 68.009)">
              <path id="Trazado_103821" data-name="Trazado 103821" d="M315.409,194.365c-1.072,2.139,2.9,3.864,5.189,4.556a20.753,20.753,0,0,0,7.123.491c3.166-.171,6.447-.466,9.2-2.04a14.622,14.622,0,0,0,5.545-6.219,43.581,43.581,0,0,0,2.815-7.955S320.182,184.841,315.409,194.365Z" transform="translate(-310.484 -133.052)" fill="#111e61"/>
              <g id="Grupo_56829" data-name="Grupo 56829" transform="translate(74.195 47.131)">
                <path id="Trazado_103823" data-name="Trazado 103823" d="M382.24,187.739a24.069,24.069,0,0,0,14.168,4.448c2.412-.029,4.967-.5,6.746-2.122.819-.749,1.43-1.706,2.273-2.426.573-.489,1.243-.861,1.782-1.386a2.279,2.279,0,0,0,.782-2.016,4.2,4.2,0,0,0-1.467-2.346c-2.883-1.636-6.322-1.577-9.636-1.5a33.042,33.042,0,0,0-9.721,1.906c-2.57.865-5.263,2.085-6.566,4.462" transform="translate(-380.602 -180.36)" fill="#111e61"/>
              </g>
              <path id="Trazado_103825" data-name="Trazado 103825" d="M337.6,228.642l52.96.694a.681.681,0,0,0,.656-.888L385,209.069s.915-9.682,2.18-21.336c1.921-17.682,4.475-39.916,4.508-39.856C388.071,137.727,366.7,136,366.7,136l-24.361,1.448-.858-1.429-7.01,3.259a32.406,32.406,0,0,0-4.4,2.48c-4.626,3.1-15.789,10.2-17.822,18.122-4.7,18.317,3.264,38.769,3.264,38.769l5.113-4a35.884,35.884,0,0,1,4.059-2.712l10.263,27.5a4.85,4.85,0,0,0-2.227,3.53c-.09,2.229,1.1,4.915,4.874,5.677" transform="translate(-310.763 -135.996)" fill="#445bd5"/>
              <g id="Grupo_56830" data-name="Grupo 56830" transform="translate(42.627 32.77)" opacity="0.3">
                <path id="Trazado_103826" data-name="Trazado 103826" d="M357.8,194.293c1.68-9.027.791-18.311-.1-27.451-2.941,7.477-2.833,15.9-5.945,23.311a9.966,9.966,0,0,0-.829,2.454,2.742,2.742,0,0,0,.707,2.4c.846.773,2.107.357,3.245.22a12.4,12.4,0,0,0,2.924-.93" transform="translate(-350.887 -166.842)"/>
              </g>
              <g id="Grupo_56831" data-name="Grupo 56831" transform="translate(29.316 74.402)" opacity="0.4">
                <path id="Trazado_103827" data-name="Trazado 103827" d="M339.07,212.749c4.276,1.482,8.772-1.267,13.271-1.756,2.972-.322,5.948.359,8.9.838a66.537,66.537,0,0,0,18.061.443,6.912,6.912,0,0,0,2.657-.686,3.2,3.2,0,0,0,1.39-2.637c-10-1.026-20-1.638-30.006-2.664a18.86,18.86,0,0,0-7.5.238c-3.023.937-5.353,3.311-7.484,5.652" transform="translate(-338.357 -206.03)"/>
              </g>
              <path id="Trazado_103828" data-name="Trazado 103828" d="M406.786,182.868c-4.33-9.734-19.574-36.678-19.574-36.678l-11.807,14.8,2.756,29.057s6.234-6.96,23.666-7.1a8.545,8.545,0,0,1,6.488,3.417Z" transform="translate(-306.731 -135.36)" fill="#445bd5"/>
              <g id="Grupo_56832" data-name="Grupo 56832" transform="translate(25.712 29.512)">
                <path id="Trazado_103829" data-name="Trazado 103829" d="M338.431,176.629a40.2,40.2,0,0,1-1.99-6.354,40.214,40.214,0,0,1-1.455-6.5,40.209,40.209,0,0,1,1.99,6.355A40.424,40.424,0,0,1,338.431,176.629Z" transform="translate(-334.965 -163.776)" fill="#263238"/>
              </g>
              <g id="Grupo_56833" data-name="Grupo 56833" transform="translate(67.78 23.661)">
                <path id="Trazado_103830" data-name="Trazado 103830" d="M374.566,158.269a7.158,7.158,0,0,1,1.092.929,29.88,29.88,0,0,1,2.63,2.891,27.882,27.882,0,0,1,5.637,11.536,21.566,21.566,0,0,1,.339,7.117c-.274,2.174-.691,4.085-.957,5.7s-.446,2.93-.531,3.842a9.522,9.522,0,0,1-.148,1.42,5.681,5.681,0,0,1-.067-1.432,33.677,33.677,0,0,1,.36-3.89c.218-1.632.6-3.56.836-5.7a21.863,21.863,0,0,0-.373-6.941,29.2,29.2,0,0,0-5.405-11.411C376.015,159.711,374.484,158.35,374.566,158.269Z" transform="translate(-374.563 -158.267)" fill="#263238"/>
              </g>
              <g id="Grupo_56834" data-name="Grupo 56834" transform="translate(29.217 81.711)">
                <path id="Trazado_103831" data-name="Trazado 103831" d="M366.017,221.529a4.951,4.951,0,0,1-1.153.336,11.063,11.063,0,0,1-1.383.268,18.576,18.576,0,0,1-1.854.226,27.463,27.463,0,0,1-4.864-.028,28.891,28.891,0,0,1-11.326-3.516,27.38,27.38,0,0,1-4.024-2.732,18.541,18.541,0,0,1-1.4-1.236,11.085,11.085,0,0,1-.987-1,4.95,4.95,0,0,1-.761-.93c.08-.076,1.22,1.2,3.39,2.862a30.552,30.552,0,0,0,4.026,2.592,30.534,30.534,0,0,0,11.134,3.457,30.552,30.552,0,0,0,4.786.143C364.333,221.826,366,221.422,366.017,221.529Z" transform="translate(-338.264 -212.91)" fill="#263238"/>
              </g>
              <g id="Grupo_56835" data-name="Grupo 56835" transform="translate(69.964 84.271)">
                <path id="Trazado_103832" data-name="Trazado 103832" d="M379.98,215.32a3.758,3.758,0,0,1,.409,1.551,9.572,9.572,0,0,1-.286,3.871,6.749,6.749,0,0,1-2.081,3.29,2.93,2.93,0,0,1-1.4.8c-.047-.08.469-.4,1.133-1.083a7.526,7.526,0,0,0,1.818-3.163C380.378,217.778,379.772,215.333,379.98,215.32Z" transform="translate(-376.619 -215.32)" fill="#263238"/>
              </g>
              <g id="Grupo_56836" data-name="Grupo 56836" transform="translate(68.161 88.014)">
                <path id="Trazado_103833" data-name="Trazado 103833" d="M377.206,218.843a5.774,5.774,0,0,1-2.275,5.863c-.118-.116.874-1.172,1.49-2.795C377.06,220.3,377.041,218.849,377.206,218.843Z" transform="translate(-374.922 -218.843)" fill="#263238"/>
              </g>
              <g id="Grupo_56837" data-name="Grupo 56837" transform="translate(57.193 53.049)">
                <path id="Trazado_103834" data-name="Trazado 103834" d="M368.367,185.938a21.469,21.469,0,0,1-1.89,2.72,21.58,21.58,0,0,1-1.857,2.741,9.859,9.859,0,0,1,3.747-5.461Z" transform="translate(-364.598 -185.93)" fill="#263238"/>
              </g>
              <g id="Grupo_56838" data-name="Grupo 56838" transform="translate(6.926 20.631)">
                <path id="Trazado_103835" data-name="Trazado 103835" d="M334.971,162.114a26.768,26.768,0,0,1-2.349-1.556,30.249,30.249,0,0,0-12.547-4.684,26.834,26.834,0,0,1-2.794-.363,9.8,9.8,0,0,1,2.838-.025,25.409,25.409,0,0,1,12.725,4.751A9.838,9.838,0,0,1,334.971,162.114Z" transform="translate(-317.282 -155.416)" fill="#263238"/>
              </g>
              <g id="Grupo_56839" data-name="Grupo 56839" transform="translate(71.076 10.471)">
                <path id="Trazado_103836" data-name="Trazado 103836" d="M387.078,145.858a46.1,46.1,0,0,0-5.368,5.023,46.088,46.088,0,0,0-4.034,6.146,6.55,6.55,0,0,1,.741-2.061,21.056,21.056,0,0,1,6.757-8.026A6.562,6.562,0,0,1,387.078,145.858Z" transform="translate(-377.666 -145.853)" fill="#263238"/>
              </g>
              <g id="Grupo_56840" data-name="Grupo 56840" transform="translate(27.901 1.723)">
                <path id="Trazado_103837" data-name="Trazado 103837" d="M367.741,137.618a2.014,2.014,0,0,1,.239.491,9.135,9.135,0,0,1,.5,1.491,12.6,12.6,0,0,1-.02,5.753,14.14,14.14,0,0,1-4.333,7.322,14.693,14.693,0,0,1-9.775,3.481,16.54,16.54,0,0,1-9.868-3.3,18.872,18.872,0,0,1-5.431-6.582,20.075,20.075,0,0,1-1.809-5.467,14.6,14.6,0,0,1-.19-1.553,2.022,2.022,0,0,1-.011-.546c.056-.006.121.742.412,2.058a21.762,21.762,0,0,0,1.945,5.33,18.906,18.906,0,0,0,5.387,6.352,16.221,16.221,0,0,0,9.568,3.154,14.32,14.32,0,0,0,9.436-3.311,13.955,13.955,0,0,0,4.289-7.03,13.034,13.034,0,0,0,.19-5.616C368,138.327,367.676,137.642,367.741,137.618Z" transform="translate(-337.026 -137.618)" fill="#263238"/>
              </g>
              <g id="Grupo_56841" data-name="Grupo 56841" transform="translate(57.217 53.409)" opacity="0.3">
                <path id="Trazado_103838" data-name="Trazado 103838" d="M369.736,187.8c-.016-.531-.085-1.156-.546-1.421a1.045,1.045,0,0,0-.962.016,2.706,2.706,0,0,0-.769.635,13,13,0,0,0-2.839,4.536l5.208-.449C369.794,190.019,369.77,188.9,369.736,187.8Z" transform="translate(-364.62 -186.269)"/>
              </g>
              <g id="Grupo_56842" data-name="Grupo 56842" transform="translate(75.845 35.916)" opacity="0.3">
                <path id="Trazado_103839" data-name="Trazado 103839" d="M385.93,177.873a17.046,17.046,0,0,0-3.775-8.07c2.243,7.353,1.493,11.5.231,16.536l.272-.7C384.1,182.693,386.329,180.851,385.93,177.873Z" transform="translate(-382.155 -169.803)"/>
              </g>
            </g>
            <g id="Grupo_56863" data-name="Grupo 56863" transform="translate(42.061 356.822)">
              <g id="Grupo_56844" data-name="Grupo 56844">
                <path id="Trazado_103840" data-name="Trazado 103840" d="M377.512,409.984l-3.178,47.651-20.717-.244-3.262-49.54Z" transform="translate(-350.355 -407.852)" fill="#ffbe9d"/>
              </g>
              <g id="Grupo_56862" data-name="Grupo 56862" transform="translate(1.791 43.017)">
                <g id="Grupo_56861" data-name="Grupo 56861">
                  <g id="Grupo_56846" data-name="Grupo 56846">
                    <g id="Grupo_56845" data-name="Grupo 56845">
                      <path id="Trazado_103841" data-name="Trazado 103841" d="M374.82,448.838l0,1.378s23.352,9.4,23.6,13.831l-46.382-.272.721-15.431C359.638,451.579,366.854,451.981,374.82,448.838Z" transform="translate(-352.04 -448.344)" fill="#e8505b"/>
                    </g>
                  </g>
                  <g id="Grupo_56849" data-name="Grupo 56849" transform="translate(4.028 4.886)">
                    <g id="Grupo_56848" data-name="Grupo 56848">
                      <g id="Grupo_56847" data-name="Grupo 56847">
                        <path id="Trazado_103842" data-name="Trazado 103842" d="M357.192,453.019a1.894,1.894,0,0,0-1.322,2.154,1.82,1.82,0,0,0,2.123,1.329,2,2,0,0,0,1.389-2.288,1.889,1.889,0,0,0-2.362-1.138" transform="translate(-355.832 -452.943)" fill="#fff"/>
                      </g>
                    </g>
                  </g>
                  <g id="Grupo_56851" data-name="Grupo 56851" transform="translate(0 11.72)">
                    <g id="Grupo_56850" data-name="Grupo 56850">
                      <path id="Trazado_103843" data-name="Trazado 103843" d="M352.04,463.087l.173-3.711,44.391,1.619s2.06.91,1.818,2.364Z" transform="translate(-352.04 -459.376)" fill="#263238"/>
                    </g>
                  </g>
                  <g id="Grupo_56854" data-name="Grupo 56854" transform="translate(18.704 1.789)">
                    <g id="Grupo_56853" data-name="Grupo 56853">
                      <g id="Grupo_56852" data-name="Grupo 56852">
                        <path id="Trazado_103844" data-name="Trazado 103844" d="M373.888,450.242c-.008.226-1.142.323-2.261,1.044-1.137.693-1.717,1.67-1.925,1.579-.208-.045.137-1.4,1.506-2.247S373.939,450.034,373.888,450.242Z" transform="translate(-369.646 -450.028)" fill="#263238"/>
                      </g>
                    </g>
                  </g>
                  <g id="Grupo_56857" data-name="Grupo 56857" transform="translate(24.707 3.95)">
                    <g id="Grupo_56856" data-name="Grupo 56856">
                      <g id="Grupo_56855" data-name="Grupo 56855">
                        <path id="Trazado_103845" data-name="Trazado 103845" d="M378.389,452.155c.051.22-.932.6-1.707,1.553-.8.93-1,1.964-1.228,1.954-.214.034-.362-1.293.624-2.46S378.385,451.94,378.389,452.155Z" transform="translate(-375.296 -452.062)" fill="#263238"/>
                      </g>
                    </g>
                  </g>
                  <g id="Grupo_56860" data-name="Grupo 56860" transform="translate(30.261 5.984)">
                    <g id="Grupo_56859" data-name="Grupo 56859">
                      <g id="Grupo_56858" data-name="Grupo 56858">
                        <path id="Trazado_103846" data-name="Trazado 103846" d="M380.792,457.875c-.206.047-.514-1.087.074-2.323s1.651-1.724,1.745-1.535c.128.187-.564.849-1.033,1.871C381.087,456.9,381.017,457.854,380.792,457.875Z" transform="translate(-380.525 -453.977)" fill="#263238"/>
                      </g>
                    </g>
                  </g>
                </g>
              </g>
            </g>
            <g id="Grupo_56970" data-name="Grupo 56970" transform="translate(11.056)">
              <path id="Trazado_103847" data-name="Trazado 103847" d="M375.1,82.47c1.2-2.98-.253-6.582-2.84-8.484a12.331,12.331,0,0,0-9.2-1.81,36.624,36.624,0,0,0-9.075,3.135,10.245,10.245,0,0,0-17.389,5.678,6.511,6.511,0,0,0-7.714,8.551l14.36,5.044,15.683,27.587a12.546,12.546,0,0,0,18.463-16.681,10.763,10.763,0,0,0,2.2-2.725,10.993,10.993,0,0,0,5.075-6.8C386.026,89.9,381.271,83.193,375.1,82.47Z" transform="translate(-320.713 -71.979)" fill="#263238"/>
              <g id="Grupo_56964" data-name="Grupo 56964" transform="translate(0 7.476)">
                <g id="Grupo_56941" data-name="Grupo 56941" transform="translate(9.433)">
                  <g id="Grupo_56940" data-name="Grupo 56940">
                    <g id="Grupo_56938" data-name="Grupo 56938" transform="translate(0 2.726)">
                      <g id="Grupo_56937" data-name="Grupo 56937">
                        <g id="Grupo_56936" data-name="Grupo 56936">
                          <g id="Grupo_56935" data-name="Grupo 56935">
                            <g id="Grupo_56920" data-name="Grupo 56920">
                              <g id="Grupo_56919" data-name="Grupo 56919">
                                <g id="Grupo_56918" data-name="Grupo 56918">
                                  <g id="Grupo_56870" data-name="Grupo 56870">
                                    <g id="Grupo_56869" data-name="Grupo 56869">
                                      <g id="Grupo_56868" data-name="Grupo 56868">
                                        <g id="Grupo_56867" data-name="Grupo 56867">
                                          <g id="Grupo_56866" data-name="Grupo 56866">
                                            <g id="Grupo_56865" data-name="Grupo 56865">
                                              <g id="Grupo_56864" data-name="Grupo 56864">
                                                <path id="Trazado_103848" data-name="Trazado 103848" d="M365.494,139.39c-.891-4.491-1.513-7.566-1.5-7.534,0,0,8.467-3.3,7.884-15.124-.29-5.882-2.534-15.155-4.615-22.683-1.873-6.776-8.19-14.246-14.881-12.087l-20.231,9.881c-2.032.655-2.388,2.565-1.909,4.646l.033,1.015,7.872,32.57,3.325,14.557a12.3,12.3,0,0,0,13.727,9.328h0A12.3,12.3,0,0,0,365.494,139.39Z" transform="translate(-330.048 -81.583)" fill="#ffbe9d"/>
                                              </g>
                                            </g>
                                          </g>
                                        </g>
                                      </g>
                                    </g>
                                  </g>
                                  <g id="Grupo_56917" data-name="Grupo 56917" transform="translate(17.755 49.399)">
                                    <g id="Grupo_56916" data-name="Grupo 56916">
                                      <g id="Grupo_56915" data-name="Grupo 56915">
                                        <g id="Grupo_56914" data-name="Grupo 56914">
                                          <g id="Grupo_56913" data-name="Grupo 56913">
                                            <g id="Grupo_56912" data-name="Grupo 56912">
                                              <g id="Grupo_56911" data-name="Grupo 56911">
                                                <path id="Trazado_103854" data-name="Trazado 103854" d="M362.947,128.955a29.749,29.749,0,0,1-16.186-.873s5.562,7.267,16.793,3.793Z" transform="translate(-346.761 -128.082)" fill="#eb996e"/>
                                              </g>
                                            </g>
                                          </g>
                                        </g>
                                      </g>
                                    </g>
                                  </g>
                                </g>
                              </g>
                            </g>
                          </g>
                        </g>
                      </g>
                    </g>
                    <g id="Grupo_56939" data-name="Grupo 56939" transform="translate(6.46)">
                      <path id="Trazado_103857" data-name="Trazado 103857" d="M336.744,84.394a8,8,0,0,0,10.849,5.819c1.683-.683,3.417-1.965,5.125-1.347,1.8.65,2.36,3.037,4.026,3.97,2.382,1.333,5.251-.976,7.972-.748,2.1.176,3.729,1.811,5.373,3.13s3.929,2.423,5.786,1.425A23.7,23.7,0,0,0,374,91.525a7.971,7.971,0,0,0-3.892-3.68c-.93-.364-1.948-.492-2.837-.948-1.917-.986-2.777-3.215-4.175-4.856a8.771,8.771,0,0,0-7.442-2.982c-2.3.237-4.481,1.395-6.792,1.3-1.708-.072-3.344-.832-5.054-.8-3.328.056-5.829,2.971-7.676,5.742" transform="translate(-336.129 -79.017)" fill="#263238"/>
                    </g>
                  </g>
                </g>
                <path id="Trazado_103858" data-name="Trazado 103858" d="M348.872,86.635c-1.521-.114-4.651-.434-5.679-1.519a8.963,8.963,0,0,0-8.543-2.8,7.4,7.4,0,0,0-5.332,7.077,10.633,10.633,0,0,0-7.755,7.618,12.328,12.328,0,0,0,2.654,11.16,22.092,22.092,0,0,1,1.743,2.525,18.06,18.06,0,0,0-1.89,2.865c-2.427,5.375,4.162,7.433,4.162,7.433.018,3.613,3.348,3.6,5.484,3.585,2.055-.01,3.319,5.686,4.981,5.465l-1.689-17.595a2.2,2.2,0,0,0,.779.141c4.029.071,2.977-7.547,1.672-9.518a22.829,22.829,0,0,0,3.019-4.86,16.469,16.469,0,0,0,.156-8.145C344.038,89.86,349.541,86.684,348.872,86.635Z" transform="translate(-321.17 -78.826)" fill="#263238"/>
                <g id="Grupo_56963" data-name="Grupo 56963" transform="translate(9.714 31.927)">
                  <g id="Grupo_56951" data-name="Grupo 56951">
                    <g id="Grupo_56950" data-name="Grupo 56950">
                      <g id="Grupo_56949" data-name="Grupo 56949">
                        <g id="Grupo_56948" data-name="Grupo 56948">
                          <g id="Grupo_56947" data-name="Grupo 56947">
                            <g id="Grupo_56946" data-name="Grupo 56946">
                              <g id="Grupo_56945" data-name="Grupo 56945">
                                <g id="Grupo_56944" data-name="Grupo 56944">
                                  <g id="Grupo_56943" data-name="Grupo 56943">
                                    <g id="Grupo_56942" data-name="Grupo 56942">
                                      <path id="Trazado_103859" data-name="Trazado 103859" d="M337.039,111.7a3.41,3.41,0,0,0-5.476-1.827c-1.02.91-1.628,2.442-.985,5.007,1.716,6.839,8.228,3.706,8.191,3.507C338.745,118.26,337.774,114.52,337.039,111.7Z" transform="translate(-330.313 -109.069)" fill="#ffbe9d"/>
                                    </g>
                                  </g>
                                </g>
                              </g>
                            </g>
                          </g>
                        </g>
                      </g>
                    </g>
                  </g>
                  <g id="Grupo_56962" data-name="Grupo 56962" transform="translate(1.895 2.127)">
                    <g id="Grupo_56961" data-name="Grupo 56961">
                      <g id="Grupo_56960" data-name="Grupo 56960">
                        <g id="Grupo_56959" data-name="Grupo 56959">
                          <g id="Grupo_56958" data-name="Grupo 56958">
                            <g id="Grupo_56957" data-name="Grupo 56957">
                              <g id="Grupo_56956" data-name="Grupo 56956">
                                <g id="Grupo_56955" data-name="Grupo 56955">
                                  <g id="Grupo_56954" data-name="Grupo 56954">
                                    <g id="Grupo_56953" data-name="Grupo 56953">
                                      <g id="Grupo_56952" data-name="Grupo 56952">
                                        <path id="Trazado_103860" data-name="Trazado 103860" d="M335.918,116.191c-.036-.014-.1.114-.277.256a1.227,1.227,0,0,1-.886.242c-.788-.084-1.685-1.078-2.027-2.3a4.073,4.073,0,0,1-.094-1.789,1.42,1.42,0,0,1,.667-1.139.626.626,0,0,1,.785.15c.139.168.131.316.169.319s.119-.152-.008-.421a.787.787,0,0,0-.376-.361.932.932,0,0,0-.7-.009,1.729,1.729,0,0,0-.979,1.373,4.191,4.191,0,0,0,.065,2.01c.39,1.366,1.419,2.48,2.48,2.517a1.31,1.31,0,0,0,1.043-.454C335.947,116.359,335.945,116.2,335.918,116.191Z" transform="translate(-332.097 -111.071)" fill="#eb996e"/>
                                      </g>
                                    </g>
                                  </g>
                                </g>
                              </g>
                            </g>
                          </g>
                        </g>
                      </g>
                    </g>
                  </g>
                </g>
              </g>
              <g id="Grupo_56965" data-name="Grupo 56965" transform="translate(20.267 11.933)">
                <path id="Trazado_103861" data-name="Trazado 103861" d="M373.1,103.756c-.043-.052.618-.477,1.491-1.545A10.052,10.052,0,0,0,376.73,96.9a9.778,9.778,0,0,0-.381-3.939,8.456,8.456,0,0,0-2.429-3.775,9.985,9.985,0,0,0-9.765-1.9c-.32.1-.616.262-.919.388-.29.152-.564.322-.835.475l-.421.237-.007-.469a3.451,3.451,0,0,0-.859-2.232,5.488,5.488,0,0,0-1.962-1.4,7.241,7.241,0,0,0-4.561-.334c-2.932.665-5.419,2.006-7.768,2.276a7.513,7.513,0,0,1-5.3-1.065,4.324,4.324,0,0,1-1.039-1.062,1.856,1.856,0,0,1-.236-.46,6.1,6.1,0,0,0,1.392,1.352,7.483,7.483,0,0,0,5.131.861,18.43,18.43,0,0,0,3.567-1.029,32.2,32.2,0,0,1,4.147-1.359,9.2,9.2,0,0,1,2.4-.24,7.4,7.4,0,0,1,2.475.569,6.013,6.013,0,0,1,2.165,1.538,4,4,0,0,1,1,2.589l-.427-.232c.289-.165.581-.346.891-.509.322-.134.638-.3.978-.413a10.441,10.441,0,0,1,10.294,2.043,8.865,8.865,0,0,1,2.525,4.018,10.053,10.053,0,0,1,.332,4.118,9.934,9.934,0,0,1-2.359,5.409,7.1,7.1,0,0,1-1.185,1.1A2.127,2.127,0,0,1,373.1,103.756Z" transform="translate(-340.247 -83.212)" fill="#455a64"/>
              </g>
              <g id="Grupo_56966" data-name="Grupo 56966" transform="translate(21.11 4.447)">
                <path id="Trazado_103862" data-name="Trazado 103862" d="M371.663,80.18a7.577,7.577,0,0,0-2.2-.755,5.8,5.8,0,0,0-2.616.237,5.162,5.162,0,0,0-2.692,1.957l-.26.376-.159-.425a7.992,7.992,0,0,0-6.48-4.813c-2.336-.269-4.462.784-6.23,1.8a27.614,27.614,0,0,1-4.938,2.555,7.768,7.768,0,0,1-3.737.439,4.707,4.707,0,0,1-.991-.272c-.217-.093-.325-.151-.318-.169.017-.05.474.141,1.335.227a8.117,8.117,0,0,0,3.579-.594,29.843,29.843,0,0,0,4.814-2.627,16.916,16.916,0,0,1,2.976-1.453,8.108,8.108,0,0,1,3.569-.457,8.381,8.381,0,0,1,6.868,5.192l-.42-.05a5.493,5.493,0,0,1,2.97-2.061,5.87,5.87,0,0,1,2.776-.138,4.982,4.982,0,0,1,1.665.635C371.516,80.014,371.677,80.163,371.663,80.18Z" transform="translate(-341.041 -76.166)" fill="#455a64"/>
              </g>
              <g id="Grupo_56968" data-name="Grupo 56968" transform="translate(12.479 48.166)">
                <path id="Trazado_103865" data-name="Trazado 103865" d="M337.034,118.922c.051-.033.3.531-.095,1.336a2.164,2.164,0,0,1-1.132,1.024,2.2,2.2,0,0,1-2.884-1.817,2.164,2.164,0,0,1,.433-1.464c.555-.706,1.173-.723,1.165-.662.036.083-.466.241-.84.881a1.913,1.913,0,0,0-.252,1.191,1.772,1.772,0,0,0,2.208,1.39,1.912,1.912,0,0,0,.966-.741C337.017,119.447,336.942,118.925,337.034,118.922Z" transform="translate(-332.916 -117.318)" fill="#e8505b"/>
              </g>
              <g id="Grupo_56969" data-name="Grupo 56969" transform="translate(10.589 47.379)">
                <path id="Trazado_103866" data-name="Trazado 103866" d="M333.557,118.559c.061.028-.032.362-.494.588a1.341,1.341,0,0,1-.883.087,1.415,1.415,0,0,1-.972-1.8,1.341,1.341,0,0,1,.556-.692c.442-.263.772-.157.763-.092.005.083-.261.138-.525.4a1.01,1.01,0,0,0,.932,1.722C333.3,118.7,333.491,118.509,333.557,118.559Z" transform="translate(-331.137 -116.577)" fill="#e8505b"/>
              </g>
            </g>
            <g id="Grupo_56979" data-name="Grupo 56979" transform="translate(12.007 54.983)">
              <path id="Trazado_103867" data-name="Trazado 103867" d="M344.417,208.9s26.3,1.526,41.851,1.669c12.043.111,17.41-3.088,19.818-10.826,2.021-6.5-2.322-18.955-2.322-18.955-8.143.041-13.169,1.163-18.41,3.62l1.4,5.7-42.41,3.657Z" transform="translate(-320.675 -120.176)" fill="#ffbe9d"/>
              <g id="Grupo_56971" data-name="Grupo 56971" transform="translate(65.827 69.772)">
                <path id="Trazado_103868" data-name="Trazado 103868" d="M393.118,195.649a15.337,15.337,0,0,0-9.09-6.2,3.752,3.752,0,0,1,1.687.147,11.257,11.257,0,0,1,6.65,4.533A3.769,3.769,0,0,1,393.118,195.649Z" transform="translate(-384.027 -189.41)" fill="#eb996e"/>
              </g>
              <g id="Grupo_56978" data-name="Grupo 56978">
                <path id="Trazado_103869" data-name="Trazado 103869" d="M336.175,186.3h0s-8.137,1.952-14.11,5.946l6.353,17.278c2.123,5.67,8.624,8.457,13.774,5.515,8-4.57,10.821-17.916,10.821-17.916l8.792-38.116-14.565-9.127L336.175,186.3" transform="translate(-322.065 -122.103)" fill="#ffbe9d"/>
                <g id="Grupo_56977" data-name="Grupo 56977" transform="translate(11.629)">
                  <path id="Trazado_103870" data-name="Trazado 103870" d="M345.926,151.5l.589-12.535-3.253-12.7c-.181-.7-.269-1.581.3-2.009a1.544,1.544,0,0,1,1.963.062c.89.91,5.138,12.062,5.138,12.062s6.445-3.875,7.6-4.063,2.585,3.28,2.674,3.554a20.211,20.211,0,0,1,.012,2.33s3.986.119,4.343.666a13.687,13.687,0,0,1,.46,3.382s1.685.541,1.957,1.819.815,3.38.02,3.841-2.473,1.384-2.473,1.384-.676,6.5-.85,7.1-3.911,4.235-3.911,4.235Z" transform="translate(-332.38 -123.722)" fill="#ffbe9d"/>
                  <g id="Grupo_56972" data-name="Grupo 56972">
                    <path id="Trazado_103871" data-name="Trazado 103871" d="M333.011,216.934c.017-.035.4.226,1.221.494a8.312,8.312,0,0,0,3.755.3,10.476,10.476,0,0,0,5.437-2.507,25.2,25.2,0,0,0,5.055-6.4,28.715,28.715,0,0,0,1.969-4.39,44.932,44.932,0,0,0,1.363-5.092c.834-3.58,1.733-7.434,2.687-11.531,1.918-8.2,4.062-17.357,6.37-27.225l.017-.073.055-.054c.731-.717,1.466-1.456,2.194-2.214.362-.38.726-.766,1.072-1.162a7.493,7.493,0,0,0,.482-.6c.124-.127.129-.384.177-.655.288-2.127.512-4.325.748-6.538l.015-.14.124-.07,2.025-1.135c.154-.091.381-.2.477-.279a.588.588,0,0,0,.191-.356,3.394,3.394,0,0,0,.013-1.1,16.526,16.526,0,0,0-.472-2.31,2.843,2.843,0,0,0-1.691-1.364l-.184-.068-.007-.185c-.027-.615-.068-1.248-.137-1.878-.036-.314-.077-.632-.141-.933a1.818,1.818,0,0,0-.122-.394c-.033-.069-.018-.017-.066-.062a1.072,1.072,0,0,0-.178-.075,18.756,18.756,0,0,0-3.89-.439l-.277-.014.008-.273c.02-.655.048-1.387.018-2.076a2.181,2.181,0,0,0-.248-.712c-.114-.256-.237-.509-.365-.757a9.1,9.1,0,0,0-.869-1.4,2.348,2.348,0,0,0-.54-.529.516.516,0,0,0-.565-.065,13.76,13.76,0,0,0-1.5.686c-1.983,1.032-3.908,2.159-5.8,3.281l-.277.165-.118-.3q-1.507-3.774-2.975-7.448l-1.455-3.645a1.512,1.512,0,0,0-1.168-1.093,1.182,1.182,0,0,0-1.382.508,1.235,1.235,0,0,0-.162.756c.031.237.148.595.217.885q.242.919.481,1.83.478,1.821.949,3.61l1.841,7.014.009.037,0,.038c-.211,4.362-.414,8.548-.607,12.535l0,.029-.008.028c-4.014,13.064-7.344,23.9-9.678,31.493-1.172,3.764-2.094,6.723-2.73,8.767q-.475,1.484-.735,2.3c-.17.518-.274.781-.274.781s.058-.276.206-.8q.238-.821.669-2.318l2.611-8.8c2.288-7.609,5.554-18.463,9.491-31.55l-.01.055c.181-3.986.371-8.173.569-12.536l.007.074q-.908-3.432-1.857-7.008-.473-1.788-.956-3.609-.241-.91-.484-1.828c-.075-.325-.172-.57-.233-.964a1.777,1.777,0,0,1,.229-1.082,1.644,1.644,0,0,1,.861-.723,2.05,2.05,0,0,1,1.1-.035,2.177,2.177,0,0,1,.973.5,2.15,2.15,0,0,1,.573.916q.723,1.809,1.459,3.644,1.471,3.671,2.982,7.447l-.4-.134c1.9-1.129,3.821-2.255,5.829-3.3a14.11,14.11,0,0,1,1.577-.719,1.205,1.205,0,0,1,.535-.075,1.16,1.16,0,0,1,.5.2,2.885,2.885,0,0,1,.672.65,9.618,9.618,0,0,1,.928,1.494c.133.258.259.518.377.784a2.6,2.6,0,0,1,.3.9c.032.753,0,1.461-.017,2.133l-.269-.287a18.736,18.736,0,0,1,4.057.471,1.52,1.52,0,0,1,.274.119.682.682,0,0,1,.274.277,2.24,2.24,0,0,1,.175.539c.072.336.113.663.15.988.071.651.113,1.288.139,1.92l-.191-.252a3.358,3.358,0,0,1,2.03,1.679,16.046,16.046,0,0,1,.509,2.459,3.858,3.858,0,0,1-.026,1.291,1.129,1.129,0,0,1-.386.657,5.654,5.654,0,0,1-.542.322l-2.036,1.138.139-.209c-.239,2.219-.464,4.406-.758,6.559l-.068.412a1.062,1.062,0,0,1-.2.463,7.248,7.248,0,0,1-.524.652c-.357.407-.724.8-1.09,1.178-.735.764-1.473,1.5-2.211,2.224l.072-.127-6.448,27.207c-.973,4.091-1.889,7.941-2.74,11.517a44.931,44.931,0,0,1-1.4,5.124,29.008,29.008,0,0,1-2.023,4.429,25.222,25.222,0,0,1-5.172,6.429,10.568,10.568,0,0,1-5.582,2.49,8.187,8.187,0,0,1-3.807-.385,5.632,5.632,0,0,1-.9-.409A1.863,1.863,0,0,1,333.011,216.934Z" transform="translate(-333.011 -123.734)" fill="#eb996e"/>
                  </g>
                  <g id="Grupo_56973" data-name="Grupo 56973" transform="translate(23.064 14.159)">
                    <path id="Trazado_103872" data-name="Trazado 103872" d="M360.221,137.366c0,.079-.36.118-.921.144a10.636,10.636,0,0,0-2.116.251,4.183,4.183,0,0,0-1.8.964c-.389.362-.558.67-.636.636-.063-.019-.02-.407.344-.9a3.575,3.575,0,0,1,1.956-1.239,6.173,6.173,0,0,1,2.27-.106C359.884,137.194,360.225,137.292,360.221,137.366Z" transform="translate(-354.72 -137.062)" fill="#eb996e"/>
                  </g>
                  <g id="Grupo_56974" data-name="Grupo 56974" transform="translate(25.334 13.3)">
                    <path id="Trazado_103873" data-name="Trazado 103873" d="M356.97,137.533c-.142-.054-.152-.383-.02-.733s.354-.593.5-.54.152.382.02.733S357.114,137.586,356.97,137.533Z" transform="translate(-356.857 -136.253)" fill="#eb996e"/>
                  </g>
                  <g id="Grupo_56975" data-name="Grupo 56975" transform="translate(28.179 18.27)">
                    <path id="Trazado_103874" data-name="Trazado 103874" d="M364.9,141.1a9.976,9.976,0,0,1-3.153.437,2.154,2.154,0,0,0-1.755.845c-.281.433-.187.795-.268.817-.051.049-.339-.358-.082-.993a1.735,1.735,0,0,1,.76-.843,3.367,3.367,0,0,1,1.278-.374A8.971,8.971,0,0,1,364.9,141.1Z" transform="translate(-359.536 -140.932)" fill="#eb996e"/>
                  </g>
                  <g id="Grupo_56976" data-name="Grupo 56976" transform="translate(32.468 22.259)">
                    <path id="Trazado_103875" data-name="Trazado 103875" d="M363.938,144.687c.153.006.241.791.2,1.754s-.2,1.736-.355,1.73-.241-.793-.2-1.755S363.785,144.68,363.938,144.687Z" transform="translate(-363.573 -144.687)" fill="#eb996e"/>
                  </g>
                </g>
              </g>
            </g>
            <g id="Grupo_56981" data-name="Grupo 56981" transform="translate(60.886 99.746)">
              <path id="Trazado_103876" data-name="Trazado 103876" d="M368.074,171.98l.944-3.257a.89.89,0,0,1,1.489-.375l1.232,1.258.77-3.063a.889.889,0,0,1,1.665-.168L375.914,170Z" transform="translate(-368.074 -165.869)" fill="#fff"/>
              <g id="Grupo_56980" data-name="Grupo 56980" transform="translate(0.219 5.489)">
                <path id="Trazado_103877" data-name="Trazado 103877" d="M375.918,171.073a28.086,28.086,0,0,1-7.637,1.891,28.086,28.086,0,0,1,7.637-1.891Z" transform="translate(-368.28 -171.036)" fill="#fff"/>
              </g>
            </g>
            <g id="Grupo_56982" data-name="Grupo 56982" transform="translate(2.719 87.112)">
              <path id="Trazado_103878" data-name="Trazado 103878" d="M316.169,153.977c.025.021-.4.408-.944,1.262a10.805,10.805,0,0,0-1.441,4.012,29,29,0,0,0-.191,6.365c.117,2.405.311,5.045.606,7.807a137,137,0,0,0,2.242,14.045c.378,1.782.718,3.216.954,4.207.105.44.2.816.273,1.141.061.261.081.4.081.4s-.049-.133-.123-.39l-.315-1.131c-.261-.985-.625-2.415-1.022-4.194a124.437,124.437,0,0,1-2.31-14.055c-.294-2.767-.483-5.413-.59-7.821a28.376,28.376,0,0,1,.241-6.4,10.567,10.567,0,0,1,1.522-4.032A6.414,6.414,0,0,1,316.169,153.977Z" transform="translate(-313.322 -153.977)" fill="#fff"/>
            </g>
            <g id="Grupo_56983" data-name="Grupo 56983" transform="translate(5.566 72.668)">
              <path id="Trazado_103879" data-name="Trazado 103879" d="M338.359,140.382a1.348,1.348,0,0,1-.239.13l-.7.335c-.608.29-1.485.717-2.54,1.3a91.582,91.582,0,0,0-7.983,4.989c-3.033,2.085-5.723,4.056-7.686,5.46l-2.332,1.651-.643.439a1.292,1.292,0,0,1-.233.14,1.239,1.239,0,0,1,.206-.176l.618-.472,2.29-1.708c1.94-1.435,4.616-3.427,7.653-5.516a79.763,79.763,0,0,1,8.035-4.944c1.067-.567,1.957-.974,2.578-1.241l.719-.3A1.165,1.165,0,0,1,338.359,140.382Z" transform="translate(-316.002 -140.381)" fill="#fff"/>
            </g>
            <g id="Grupo_56984" data-name="Grupo 56984" transform="translate(58.882 70.948)">
              <path id="Trazado_103880" data-name="Trazado 103880" d="M385.894,147.394a.859.859,0,0,1-.178-.134l-.478-.414a19.021,19.021,0,0,0-1.861-1.389A37.8,37.8,0,0,0,376.548,142a69.378,69.378,0,0,0-7.283-2.423c-.947-.262-1.719-.456-2.252-.587l-.614-.156a.84.84,0,0,1-.211-.07.862.862,0,0,1,.221.027l.624.116c.54.106,1.319.276,2.273.521a58.977,58.977,0,0,1,7.324,2.369,34.648,34.648,0,0,1,6.835,3.532A13.5,13.5,0,0,1,385.894,147.394Z" transform="translate(-366.188 -138.762)" fill="#fff"/>
            </g>
            <g id="Grupo_56985" data-name="Grupo 56985" transform="translate(24.297 151.6)">
              <path id="Trazado_103881" data-name="Trazado 103881" d="M337.56,223.752a1.5,1.5,0,0,1-.414-.142,6.992,6.992,0,0,1-1.054-.563,5.125,5.125,0,0,1-2.311-3.129,6.125,6.125,0,0,1,.411-3.888,5.36,5.36,0,0,1,.615-1.027,1.446,1.446,0,0,1,.3-.323,12.38,12.38,0,0,0-.767,1.413,6.293,6.293,0,0,0-.339,3.776,5.172,5.172,0,0,0,2.183,3.049C336.994,223.484,337.578,223.713,337.56,223.752Z" transform="translate(-333.633 -214.679)" fill="#fff"/>
            </g>
            <g id="Grupo_56986" data-name="Grupo 56986" transform="translate(24.828 149.17)">
              <path id="Trazado_103882" data-name="Trazado 103882" d="M334.147,212.392a9.193,9.193,0,0,1,.8,2.73,9.2,9.2,0,0,1-.8-2.73Z" transform="translate(-334.133 -212.392)" fill="#fff"/>
            </g>
            <g id="Grupo_57040" data-name="Grupo 57040" transform="translate(12.819 160.656)">
              <g id="Grupo_56987" data-name="Grupo 56987">
                <path id="Trazado_103883" data-name="Trazado 103883" d="M349.215,449.908l32.407-.163-.588-112.035-.3-113.962-43.89-.545-7.889,14.875a53.411,53.411,0,0,0-6.071,19.279c-.551,5.148,3.306,21.938,4.653,26.211l12.081,38.31Z" transform="translate(-322.829 -223.203)" fill="#263238"/>
                <path id="Trazado_103884" data-name="Trazado 103884" d="M388.242,223.868l35.606,97.07a44.777,44.777,0,0,1-4.39,37.926l-41.341,80.692-23.245-29.08,34.591-72.287-30.494-49.4,5.131-64.813,14.363-.232Z" transform="translate(-320.83 -223.17)" fill="#263238"/>
              </g>
              <g id="Grupo_56988" data-name="Grupo 56988" transform="translate(54.936 33.218)">
                <path id="Trazado_103885" data-name="Trazado 103885" d="M374.547,254.471s.027.169.05.5c.022.353.053.838.092,1.463.07,1.312.171,3.2.3,5.627.238,4.914.579,11.979,1,20.7.4,8.749.882,19.155,1.414,30.706.259,5.779.532,11.845.816,18.133.2,3.143.11,6.348.147,9.6q.015,4.876.03,9.886c.045,26.7.086,50.866.115,68.388-.012,8.732-.021,15.8-.029,20.724-.015,2.427-.028,4.321-.036,5.635-.009.625-.017,1.111-.022,1.465-.008.33-.028.5-.028.5s-.019-.169-.03-.5l-.031-1.465c-.016-1.314-.039-3.207-.068-5.634-.035-4.919-.086-11.991-.147-20.721-.071-17.52-.169-41.684-.276-68.38q-.015-5.007-.028-9.885c-.035-3.25.059-6.455-.139-9.6-.271-6.287-.533-12.352-.783-18.132-.487-11.552-.925-21.958-1.3-30.707-.347-8.723-.629-15.791-.824-20.707-.085-2.425-.151-4.318-.2-5.632-.016-.625-.029-1.111-.037-1.465C374.536,254.641,374.547,254.471,374.547,254.471Z" transform="translate(-374.54 -254.471)" fill="#455a64"/>
              </g>
              <g id="Grupo_56989" data-name="Grupo 56989" transform="translate(54.107 2.614)">
                <path id="Trazado_103886" data-name="Trazado 103886" d="M373.785,225.664a4.031,4.031,0,0,1,.224,1.055c.111.683.242,1.675.384,2.9.285,2.457.582,5.864.754,9.636s.179,7.193.117,9.666c-.03,1.237-.072,2.237-.12,2.927a4.033,4.033,0,0,1-.13,1.071,32.982,32.982,0,0,1-.141-4c-.039-2.469-.111-5.878-.279-9.64s-.406-7.163-.59-9.625A32.828,32.828,0,0,1,373.785,225.664Z" transform="translate(-373.759 -225.664)" fill="#455a64"/>
              </g>
              <g id="Grupo_56990" data-name="Grupo 56990" transform="translate(45.817 4.521)">
                <path id="Trazado_103887" data-name="Trazado 103887" d="M367.13,227.738a2.605,2.605,0,0,0-.718,1.211,1.376,1.376,0,0,0,.412,1.3,1.414,1.414,0,0,0,2.415-1.106,1.378,1.378,0,0,0-.712-1.158,2.586,2.586,0,0,0-1.386-.247c-.014-.029.1-.141.377-.221a1.814,1.814,0,0,1,2.23,1.6,1.9,1.9,0,0,1-3.276,1.5,1.813,1.813,0,0,1,.246-2.732C366.958,227.723,367.118,227.709,367.13,227.738Z" transform="translate(-365.956 -227.459)" fill="#455a64"/>
              </g>
              <g id="Grupo_56991" data-name="Grupo 56991" transform="translate(12.979 2.877)">
                <path id="Trazado_103888" data-name="Trazado 103888" d="M352.057,225.911a3.17,3.17,0,0,1,.291,1.017,10.069,10.069,0,0,1,.095,2.886,11.626,11.626,0,0,1-1.226,4.117,10.9,10.9,0,0,1-8.3,5.96,11.638,11.638,0,0,1-4.292-.155,10.081,10.081,0,0,1-2.706-1.012,3.168,3.168,0,0,1-.87-.6,18.32,18.32,0,0,0,3.654,1.23,11.154,11.154,0,0,0,13.355-9.586A18.421,18.421,0,0,0,352.057,225.911Z" transform="translate(-335.045 -225.911)" fill="#455a64"/>
              </g>
              <g id="Grupo_56992" data-name="Grupo 56992" transform="translate(63.061 2.786)">
                <path id="Trazado_103889" data-name="Trazado 103889" d="M390.8,235.216a4.3,4.3,0,0,1-2.041-.241,9.484,9.484,0,0,1-6.44-7.1,4.3,4.3,0,0,1-.044-2.055c.1,0,.1.781.425,1.965a10.268,10.268,0,0,0,6.184,6.814C390.034,235.038,390.811,235.119,390.8,235.216Z" transform="translate(-382.187 -225.825)" fill="#455a64"/>
              </g>
              <g id="Grupo_56993" data-name="Grupo 56993" transform="translate(70.986 113.633)">
                <path id="Trazado_103890" data-name="Trazado 103890" d="M402.993,333.36a6.733,6.733,0,0,1-1.878,1.494,8.678,8.678,0,0,1-2.417,1.056,5.825,5.825,0,0,1-3.261-.086,9.492,9.492,0,0,1-4.54-3.612,8.419,8.419,0,0,1-1.245-2.044,13.1,13.1,0,0,1,1.553,1.8,10.07,10.07,0,0,0,4.4,3.326,6.812,6.812,0,0,0,5.317-.783A21.887,21.887,0,0,1,402.993,333.36Z" transform="translate(-389.647 -330.165)" fill="#455a64"/>
              </g>
              <g id="Grupo_56994" data-name="Grupo 56994" transform="translate(69.956 114.227)">
                <path id="Trazado_103891" data-name="Trazado 103891" d="M394.942,339.525a52.686,52.686,0,0,1-6.256-8.8,52.8,52.8,0,0,1,6.256,8.8Z" transform="translate(-388.677 -330.724)" fill="#455a64"/>
              </g>
              <g id="Grupo_56995" data-name="Grupo 56995" transform="translate(20.546 34.044)">
                <path id="Trazado_103892" data-name="Trazado 103892" d="M343.4,258.191c-.141.057-.52-.555-.845-1.366s-.473-1.515-.33-1.572.52.555.845,1.366S343.539,258.134,343.4,258.191Z" transform="translate(-342.168 -255.249)" fill="#fafafa"/>
              </g>
              <g id="Grupo_56996" data-name="Grupo 56996" transform="translate(42.068 37.574)">
                <path id="Trazado_103893" data-name="Trazado 103893" d="M362.7,260.922c-.153,0-.277-.526-.277-1.175s.124-1.176.277-1.176.276.527.276,1.176S362.857,260.922,362.7,260.922Z" transform="translate(-362.427 -258.571)" fill="#fafafa"/>
              </g>
              <g id="Grupo_56997" data-name="Grupo 56997" transform="translate(33.499 48.155)">
                <path id="Trazado_103894" data-name="Trazado 103894" d="M354.754,271.47c-.152.01-.321-.638-.376-1.45s.024-1.478.176-1.488.321.639.376,1.451S354.907,271.46,354.754,271.47Z" transform="translate(-354.361 -268.531)" fill="#fafafa"/>
              </g>
              <g id="Grupo_56998" data-name="Grupo 56998" transform="translate(16.286 57.69)">
                <path id="Trazado_103895" data-name="Trazado 103895" d="M340.317,279.136c-.126.093-.564-.3-1.133-.707s-1.071-.712-1.021-.861.7-.057,1.347.413S340.44,279.052,340.317,279.136Z" transform="translate(-338.159 -277.506)" fill="#fafafa"/>
              </g>
              <g id="Grupo_56999" data-name="Grupo 56999" transform="translate(45.632 67.927)">
                <path id="Trazado_103896" data-name="Trazado 103896" d="M365.826,288.918c-.128-.085.033-.548.357-1.035s.69-.813.818-.729-.033.548-.358,1.036S365.952,289,365.826,288.918Z" transform="translate(-365.782 -287.142)" fill="#fafafa"/>
              </g>
              <g id="Grupo_57000" data-name="Grupo 57000" transform="translate(28.551 68.724)">
                <path id="Trazado_103897" data-name="Trazado 103897" d="M349.98,291.81c-.153,0-.277-.877-.277-1.959s.124-1.959.277-1.959.276.876.276,1.959S350.133,291.81,349.98,291.81Z" transform="translate(-349.703 -287.892)" fill="#fafafa"/>
              </g>
              <g id="Grupo_57001" data-name="Grupo 57001" transform="translate(21.198 82.961)">
                <path id="Trazado_103898" data-name="Trazado 103898" d="M344.95,302.891c-.089.124-.645-.126-1.24-.559s-1.005-.884-.916-1.007.645.126,1.241.559S345.041,302.768,344.95,302.891Z" transform="translate(-342.783 -301.293)" fill="#fafafa"/>
              </g>
              <g id="Grupo_57002" data-name="Grupo 57002" transform="translate(38.616 88.632)">
                <path id="Trazado_103899" data-name="Trazado 103899" d="M360.948,306.705c.062.14-.283.428-.769.645s-.933.278-.994.139.283-.428.769-.645S360.885,306.566,360.948,306.705Z" transform="translate(-359.177 -306.631)" fill="#fafafa"/>
              </g>
              <g id="Grupo_57003" data-name="Grupo 57003" transform="translate(26.838 104.179)">
                <path id="Trazado_103900" data-name="Trazado 103900" d="M350.081,325.188c-.137.068-.686-.754-1.227-1.836s-.869-2.014-.732-2.083.685.753,1.227,1.836S350.217,325.119,350.081,325.188Z" transform="translate(-348.091 -321.265)" fill="#fafafa"/>
              </g>
              <g id="Grupo_57004" data-name="Grupo 57004" transform="translate(47.598 103.394)">
                <path id="Trazado_103901" data-name="Trazado 103901" d="M367.669,323.471c-.135-.072.106-.788.54-1.6s.892-1.411,1.027-1.338-.107.787-.54,1.6S367.8,323.542,367.669,323.471Z" transform="translate(-367.632 -320.526)" fill="#fafafa"/>
              </g>
              <g id="Grupo_57005" data-name="Grupo 57005" transform="translate(38.779 119.067)">
                <path id="Trazado_103902" data-name="Trazado 103902" d="M359.959,339.007c-.157-.023-.144-.862-.308-1.859s-.422-1.792-.281-1.863.658.681.828,1.777S360.1,339.037,359.959,339.007Z" transform="translate(-359.331 -335.279)" fill="#fafafa"/>
              </g>
              <g id="Grupo_57006" data-name="Grupo 57006" transform="translate(28.61 130.027)">
                <path id="Trazado_103903" data-name="Trazado 103903" d="M351.739,347.766c-.113.1-.643-.3-1.183-.891s-.888-1.16-.776-1.263.644.3,1.185.891S351.853,347.664,351.739,347.766Z" transform="translate(-349.759 -345.596)" fill="#fafafa"/>
              </g>
              <g id="Grupo_57007" data-name="Grupo 57007" transform="translate(51.97 133.578)">
                <path id="Trazado_103904" data-name="Trazado 103904" d="M371.765,351.126c-.108-.106.281-.68.872-1.279s1.158-1,1.266-.891-.281.68-.872,1.279S371.873,351.234,371.765,351.126Z" transform="translate(-371.747 -348.939)" fill="#fafafa"/>
              </g>
              <g id="Grupo_57008" data-name="Grupo 57008" transform="translate(39.566 146.307)">
                <path id="Trazado_103905" data-name="Trazado 103905" d="M360.187,364.455c-.151-.022-.153-.833-.005-1.808s.391-1.749.542-1.725.153.832.005,1.808S360.338,364.478,360.187,364.455Z" transform="translate(-360.072 -360.92)" fill="#fafafa"/>
              </g>
              <g id="Grupo_57009" data-name="Grupo 57009" transform="translate(29.769 153.938)">
                <path id="Trazado_103906" data-name="Trazado 103906" d="M352.481,370.837c-.132.078-.6-.471-1.037-1.223s-.691-1.426-.559-1.5.6.471,1.037,1.224S352.613,370.76,352.481,370.837Z" transform="translate(-350.85 -368.103)" fill="#fafafa"/>
              </g>
              <g id="Grupo_57010" data-name="Grupo 57010" transform="translate(48.599 165.269)">
                <path id="Trazado_103907" data-name="Trazado 103907" d="M371.324,378.795c.088.124-.452.664-1.21,1.206s-1.442.881-1.531.757.453-.664,1.209-1.206S371.235,378.67,371.324,378.795Z" transform="translate(-368.574 -378.769)" fill="#fafafa"/>
              </g>
              <g id="Grupo_57011" data-name="Grupo 57011" transform="translate(34.679 172.556)">
                <path id="Trazado_103908" data-name="Trazado 103908" d="M355.526,389.555c-.148-.053.042-.91.13-1.966s.062-1.931.217-1.959.439.868.335,2.008S355.663,389.611,355.526,389.555Z" transform="translate(-355.471 -385.628)" fill="#fafafa"/>
              </g>
              <g id="Grupo_57012" data-name="Grupo 57012" transform="translate(39.769 190.563)">
                <path id="Trazado_103909" data-name="Trazado 103909" d="M361.86,404.552c-.12.1-.567-.266-1-.806s-.687-1.057-.568-1.153.567.267,1,.807S361.979,404.457,361.86,404.552Z" transform="translate(-360.262 -402.578)" fill="#fafafa"/>
              </g>
              <g id="Grupo_57013" data-name="Grupo 57013" transform="translate(31.938 200.17)">
                <path id="Trazado_103910" data-name="Trazado 103910" d="M355.071,414.764c-.126.086-.711-.545-1.306-1.411s-.975-1.637-.85-1.724.711.545,1.306,1.411S355.2,414.676,355.071,414.764Z" transform="translate(-352.892 -411.621)" fill="#fafafa"/>
              </g>
              <g id="Grupo_57014" data-name="Grupo 57014" transform="translate(54.002 188.222)">
                <path id="Trazado_103911" data-name="Trazado 103911" d="M373.758,401.947c-.143-.054-.128-.448.035-.881s.41-.74.552-.686.127.447-.034.881S373.9,402,373.758,401.947Z" transform="translate(-373.66 -400.374)" fill="#fafafa"/>
              </g>
              <g id="Grupo_57015" data-name="Grupo 57015" transform="translate(45.245 211.932)">
                <path id="Trazado_103912" data-name="Trazado 103912" d="M365.456,426.219c-.14-.073.127-.83.333-1.776s.293-1.742.45-1.75.321.841.089,1.87S365.584,426.292,365.456,426.219Z" transform="translate(-365.417 -422.693)" fill="#fafafa"/>
              </g>
              <g id="Grupo_57016" data-name="Grupo 57016" transform="translate(49.95 49.115)">
                <path id="Trazado_103913" data-name="Trazado 103913" d="M370.909,271.585c-.139.065-.476-.363-.752-.955s-.39-1.124-.252-1.189.476.362.752.954S371.047,271.521,370.909,271.585Z" transform="translate(-369.846 -269.435)" fill="#fafafa"/>
              </g>
              <g id="Grupo_57017" data-name="Grupo 57017" transform="translate(33.307 18.157)">
                <path id="Trazado_103914" data-name="Trazado 103914" d="M357.145,240.316c.084.135-.664.733-1.453,1.582s-1.345,1.628-1.485,1.553.227-1.025,1.081-1.931S357.073,240.189,357.145,240.316Z" transform="translate(-354.18 -240.294)" fill="#fafafa"/>
              </g>
              <g id="Grupo_57018" data-name="Grupo 57018" transform="translate(48.004 15.031)">
                <path id="Trazado_103915" data-name="Trazado 103915" d="M369.408,240.108c-.153.032-.4-.6-.772-1.328s-.716-1.31-.6-1.414.693.361,1.093,1.167S369.554,240.083,369.408,240.108Z" transform="translate(-368.014 -237.352)" fill="#fafafa"/>
              </g>
              <g id="Grupo_57019" data-name="Grupo 57019" transform="translate(8.449 25.636)">
                <path id="Trazado_103916" data-name="Trazado 103916" d="M330.836,250.28c-.142-.055,0-.761.324-1.573s.7-1.426.839-1.369,0,.761-.325,1.573S330.977,250.336,330.836,250.28Z" transform="translate(-330.782 -247.334)" fill="#fafafa"/>
              </g>
              <g id="Grupo_57020" data-name="Grupo 57020" transform="translate(7.46 42.645)">
                <path id="Trazado_103917" data-name="Trazado 103917" d="M332.215,265.326c-.1.117-.7-.226-1.352-.767s-1.1-1.075-1-1.192.7.226,1.353.767S332.313,265.209,332.215,265.326Z" transform="translate(-329.85 -263.344)" fill="#fafafa"/>
              </g>
              <g id="Grupo_57021" data-name="Grupo 57021" transform="translate(35.804 3.481)">
                <path id="Trazado_103918" data-name="Trazado 103918" d="M357.391,228.444c-.142.056-.432-.336-.649-.876s-.276-1.026-.135-1.083.432.336.649.876S357.532,228.387,357.391,228.444Z" transform="translate(-356.53 -226.48)" fill="#fafafa"/>
              </g>
              <g id="Grupo_57022" data-name="Grupo 57022" transform="translate(62.257 10.548)">
                <path id="Trazado_103919" data-name="Trazado 103919" d="M381.534,235.873c-.149-.033-.135-.673.031-1.429s.421-1.344.569-1.311.136.672-.03,1.429S381.684,235.906,381.534,235.873Z" transform="translate(-381.431 -233.132)" fill="#fafafa"/>
              </g>
              <g id="Grupo_57023" data-name="Grupo 57023" transform="translate(68.355 22.094)">
                <path id="Trazado_103920" data-name="Trazado 103920" d="M387.217,247.334c-.141-.058.051-.851.429-1.77s.8-1.618.942-1.561-.052.851-.43,1.771S387.358,247.392,387.217,247.334Z" transform="translate(-387.17 -244)" fill="#fafafa"/>
              </g>
              <g id="Grupo_57024" data-name="Grupo 57024" transform="translate(62.294 31.693)">
                <path id="Trazado_103921" data-name="Trazado 103921" d="M383.263,256.566c-.137.068-.643-.666-1.129-1.64s-.77-1.818-.634-1.887.643.666,1.129,1.639S383.4,256.5,383.263,256.566Z" transform="translate(-381.465 -253.035)" fill="#fafafa"/>
              </g>
              <g id="Grupo_57025" data-name="Grupo 57025" transform="translate(73.235 42.469)">
                <path id="Trazado_103922" data-name="Trazado 103922" d="M391.828,265.729c-.142-.055-.039-.669.232-1.373s.606-1.229.748-1.174.039.668-.232,1.372S391.97,265.783,391.828,265.729Z" transform="translate(-391.764 -263.178)" fill="#fafafa"/>
              </g>
              <g id="Grupo_57026" data-name="Grupo 57026" transform="translate(64.038 53.037)">
                <path id="Trazado_103923" data-name="Trazado 103923" d="M384.14,274.708c-.13.081-.454-.2-.725-.637s-.385-.849-.255-.931.454.2.725.637S384.269,274.627,384.14,274.708Z" transform="translate(-383.107 -273.126)" fill="#fafafa"/>
              </g>
              <g id="Grupo_57027" data-name="Grupo 57027" transform="translate(64.263 71.656)">
                <path id="Trazado_103924" data-name="Trazado 103924" d="M385.883,293.408c-.113.1-.773-.426-1.477-1.184s-1.182-1.455-1.071-1.56.773.426,1.477,1.184S385.994,293.3,385.883,293.408Z" transform="translate(-383.319 -290.652)" fill="#fafafa"/>
              </g>
              <g id="Grupo_57028" data-name="Grupo 57028" transform="translate(75.431 60.289)">
                <path id="Trazado_103925" data-name="Trazado 103925" d="M396.009,282.706c-.12.095-.7-.443-1.3-1.2s-.981-1.448-.861-1.543.7.443,1.3,1.2S396.129,282.611,396.009,282.706Z" transform="translate(-393.831 -279.952)" fill="#fafafa"/>
              </g>
              <g id="Grupo_57029" data-name="Grupo 57029" transform="translate(83.485 75.403)">
                <path id="Trazado_103926" data-name="Trazado 103926" d="M401.451,297.509c-.138-.066.1-.864.539-1.782s.9-1.61,1.038-1.545-.1.863-.539,1.782S401.589,297.574,401.451,297.509Z" transform="translate(-401.412 -294.179)" fill="#fafafa"/>
              </g>
              <g id="Grupo_57030" data-name="Grupo 57030" transform="translate(68.396 89.26)">
                <path id="Trazado_103927" data-name="Trazado 103927" d="M389.761,309.607c-.135.082-.628-.508-1.312-1.134s-1.306-1.076-1.235-1.216.864.119,1.609.811S389.89,309.536,389.761,309.607Z" transform="translate(-387.209 -307.222)" fill="#fafafa"/>
              </g>
              <g id="Grupo_57031" data-name="Grupo 57031" transform="translate(69.381 104.69)">
                <path id="Trazado_103928" data-name="Trazado 103928" d="M390.487,322.023c0,.153-.527.276-1.176.276s-1.175-.123-1.175-.276.526-.276,1.175-.276S390.487,321.87,390.487,322.023Z" transform="translate(-388.136 -321.747)" fill="#fafafa"/>
              </g>
              <g id="Grupo_57032" data-name="Grupo 57032" transform="translate(84.625 98.11)">
                <path id="Trazado_103929" data-name="Trazado 103929" d="M402.521,318.687c-.134-.083.139-.745.343-1.58s.284-1.545.441-1.554.33.759.1,1.689S402.643,318.771,402.521,318.687Z" transform="translate(-402.486 -315.553)" fill="#fafafa"/>
              </g>
              <g id="Grupo_57033" data-name="Grupo 57033" transform="translate(96.224 102.202)">
                <path id="Trazado_103930" data-name="Trazado 103930" d="M414.686,322.914c-.144.05-.537-.694-.876-1.663s-.5-1.794-.354-1.844.537.693.877,1.662S414.831,322.863,414.686,322.914Z" transform="translate(-413.403 -319.405)" fill="#fafafa"/>
              </g>
              <g id="Grupo_57034" data-name="Grupo 57034" transform="translate(95.43 120.252)">
                <path id="Trazado_103931" data-name="Trazado 103931" d="M412.687,340.125c-.136-.07.191-.962.731-1.991s1.086-1.8,1.222-1.735-.192.963-.732,1.992S412.822,340.2,412.687,340.125Z" transform="translate(-412.656 -336.395)" fill="#fafafa"/>
              </g>
              <g id="Grupo_57035" data-name="Grupo 57035" transform="translate(82.255 131.219)">
                <path id="Trazado_103932" data-name="Trazado 103932" d="M401.736,350.221c-.141.058-.577-.678-.974-1.643s-.6-1.8-.462-1.856.577.679.974,1.646S401.877,350.163,401.736,350.221Z" transform="translate(-400.255 -346.718)" fill="#fafafa"/>
              </g>
              <g id="Grupo_57036" data-name="Grupo 57036" transform="translate(68.793 138.582)">
                <path id="Trazado_103933" data-name="Trazado 103933" d="M389.542,353.925c0,.153-.439.277-.98.277s-.979-.124-.979-.277.438-.276.979-.276S389.542,353.772,389.542,353.925Z" transform="translate(-387.583 -353.649)" fill="#fafafa"/>
              </g>
              <g id="Grupo_57037" data-name="Grupo 57037" transform="translate(77.33 152.962)">
                <path id="Trazado_103934" data-name="Trazado 103934" d="M396.485,370.125c-.148.04-.443-.586-.659-1.4s-.273-1.5-.125-1.542.443.586.66,1.4S396.633,370.086,396.485,370.125Z" transform="translate(-395.618 -367.184)" fill="#fafafa"/>
              </g>
              <g id="Grupo_57038" data-name="Grupo 57038" transform="translate(68.747 148.252)">
                <path id="Trazado_103935" data-name="Trazado 103935" d="M387.586,364.721c-.132-.079.025-.581.35-1.122s.695-.916.825-.837-.025.58-.351,1.122S387.716,364.8,387.586,364.721Z" transform="translate(-387.539 -362.751)" fill="#fafafa"/>
              </g>
              <g id="Grupo_57039" data-name="Grupo 57039" transform="translate(68.063 165.698)">
                <path id="Trazado_103936" data-name="Trazado 103936" d="M387.429,382.5c-.152.018-.362-.714-.471-1.633s-.072-1.68.079-1.7.362.713.471,1.633S387.581,382.485,387.429,382.5Z" transform="translate(-386.896 -379.173)" fill="#fafafa"/>
              </g>
            </g>
          </g>
        </g>
      </g>
    </g>
  </g>
</svg>
