<svg xmlns="http://www.w3.org/2000/svg" width="90.916" height="90" viewBox="0 0 90.916 90">
  <g id="Group_111298" data-name="Group 111298" transform="translate(-596.216 216.997)">
    <path id="Path_171757" data-name="Path 171757" d="M679.606-170.038c2.295,3.024,4.54,5.978,6.779,8.934,1.105,1.458,1.013,2.03-.466,3.15-2.065,1.561-4.12,3.13-6.188,4.687-1.13.851-1.814.76-2.682-.373q-3.183-4.155-6.349-8.329c-.2-.266-.421-.524-.661-.819-.32.23-.6.425-.87.623-1.136.826-1.822.731-2.687-.4-1.042-1.361-2.059-2.741-3.123-4.086-.175-.223-.585-.488-.792-.425a26.476,26.476,0,0,1-9.754,1.049c-.135.527-.261,1-.378,1.478a28.41,28.41,0,0,1-23.292,21.042,27.275,27.275,0,0,1-8.287.005.966.966,0,0,0-1.145.509c-.981,1.629-2.012,3.226-3.026,4.833s-1.517,1.73-3.162.7c-.157-.1-.317-.193-.563-.342-.194.286-.387.554-.563.833q-2.794,4.428-5.584,8.858c-.788,1.247-1.485,1.413-2.711.644q-3.443-2.16-6.878-4.336a1.591,1.591,0,0,1-.576-2.585q2.773-4.442,5.56-8.871c.18-.288.349-.585.562-.94-.333-.221-.635-.425-.941-.626-1.13-.743-1.278-1.4-.547-2.585.8-1.3,1.595-2.606,2.452-3.868a1.069,1.069,0,0,0-.1-1.58,28.183,28.183,0,0,1-7.146-19.269,28.421,28.421,0,0,1,24.3-27.6,27.684,27.684,0,0,1,9.207.175c.6.117.79-.088,1-.619,3.361-8.716,9.612-14.164,18.7-16.234,13.686-3.116,27.778,6.289,30.266,20.1a25.5,25.5,0,0,1-2.7,17.1,1.009,1.009,0,0,0,.128,1.307c1.1,1.393,2.16,2.821,3.233,4.237,1.105,1.456,1.022,2.02-.454,3.152C680-170.373,679.836-170.229,679.606-170.038Zm-40.436-26.2c.124.1.194.157.272.205A28.161,28.161,0,0,1,653-175.746c.083.513.326.709.794.7.994-.023,1.994,0,2.983-.1a16.386,16.386,0,0,0,14.263-19.271,16.415,16.415,0,0,0-18.8-13.295A16.363,16.363,0,0,0,639.17-196.241Zm-39.7,24.572a25.5,25.5,0,0,0,25.451,25.5,25.5,25.5,0,0,0,25.442-25.409,25.488,25.488,0,0,0-25.357-25.488A25.479,25.479,0,0,0,599.474-171.669Zm36.906-26a19.565,19.565,0,0,1,22.976-12.715,19.423,19.423,0,0,1,14.931,19.82,19,19,0,0,1-5.1,12.262A19.532,19.532,0,0,1,653.38-172l-.148,2.905a22.229,22.229,0,0,0,23.854-18.582,22.346,22.346,0,0,0-18.54-25.985c-13.228-2.1-22.7,7.162-24.808,14.983Zm-36.607,63.939,5.047,3.17,5.578-8.865-5.062-3.186ZM678.785-156.3l4.747-3.605-6.333-8.343-4.766,3.614Zm-64.254,15.936,2.484-3.947a28.6,28.6,0,0,1-10.553-5.711l-2.063,3.28Zm60.6-35.572a25.394,25.394,0,0,1-9.308,7.542l2.414,3.181,9.536-7.238Z" transform="translate(0)" fill="#0f5c29"/>
    <path id="Path_171758" data-name="Path 171758" d="M627.154-172.376v-2.941h2.966v2.941l.027-.025h-3.02Z" transform="translate(24.73 33.345)" fill="#0f5c29"/>
    <path id="Path_171759" data-name="Path 171759" d="M628.448-170.705h-2.941v-2.966h2.943l-.027-.025v3.02Z" transform="translate(23.434 34.641)" fill="#0f5c29"/>
    <path id="Path_171760" data-name="Path 171760" d="M628.79-173.672h2.941v2.966h-2.939l.025.029v-3.02Z" transform="translate(26.06 34.641)" fill="#0f5c29"/>
    <path id="Path_171761" data-name="Path 171761" d="M630.122-172.035v2.945h-2.97v-2.945l-.025.029h3.02Z" transform="translate(24.73 35.971)" fill="#0f5c29"/>
    <path id="Path_171762" data-name="Path 171762" d="M642.957-169.049v-2.941h2.965v2.941l.029-.025h-3.02Z" transform="translate(37.372 36.007)" fill="#0f5c29"/>
    <path id="Path_171763" data-name="Path 171763" d="M644.251-167.377H641.31v-2.968h2.943l-.027-.025v3.02Z" transform="translate(36.076 37.303)" fill="#0f5c29"/>
    <path id="Path_171764" data-name="Path 171764" d="M644.592-170.345h2.943v2.968h-2.941l.027.027v-3.02Z" transform="translate(38.702 37.303)" fill="#0f5c29"/>
    <path id="Path_171765" data-name="Path 171765" d="M645.924-168.707c0,.869.009,1.739.009,2.608a3.661,3.661,0,0,1-.056.4h-2.922v-3.01l-.025.027h3.02Z" transform="translate(37.372 38.633)" fill="#0f5c29"/>
    <path id="Path_171766" data-name="Path 171766" d="M625.642-206.11l2.29-1.676c.1.04.185.045.207.085a2.108,2.108,0,0,0,2.5,1.247c1.5-.25,2.75.545,3.83,1.829l-2.311,1.7c-1.359-.81-2.27-.749-2.912.164a1.7,1.7,0,0,0,.135,2.23,1.748,1.748,0,0,0,2.144.268,8.671,8.671,0,0,1,2.851-.977,4.523,4.523,0,0,1,4.419,6.327,1.728,1.728,0,0,0,.308,2.205,2.954,2.954,0,0,1,.328.515l-2.234,1.645c-.124-.04-.209-.041-.23-.079a2.235,2.235,0,0,0-2.554-1.213,4.074,4.074,0,0,1-3.771-1.867l2.36-1.73a5.668,5.668,0,0,0,.464.355,1.733,1.733,0,0,0,2.279-.344,1.749,1.749,0,0,0,.068-2.237,1.65,1.65,0,0,0-2.263-.347,5.01,5.01,0,0,1-3.609.947,4.569,4.569,0,0,1-3.634-6.363,1.742,1.742,0,0,0-.337-2.2A4.028,4.028,0,0,1,625.642-206.11Z" transform="translate(23.542 7.369)" fill="#0f5c29"/>
    <path id="Path_171767" data-name="Path 171767" d="M622.161-204.262A22.467,22.467,0,0,1,644.6-181.845a22.5,22.5,0,0,1-22.47,22.5,22.5,22.5,0,0,1-22.446-22.426A22.485,22.485,0,0,1,622.161-204.262Zm.04,3a19.494,19.494,0,0,0-19.519,19.4,19.5,19.5,0,0,0,19.413,19.519,19.5,19.5,0,0,0,19.512-19.419A19.459,19.459,0,0,0,622.2-201.265Z" transform="translate(2.776 10.189)" fill="#0f5c29"/>
    <path id="Path_171768" data-name="Path 171768" d="M614.271-173.68a4.415,4.415,0,0,1,.013-1.024c.288-1.183-.6-1.5-1.364-1.874-.16-.079-.464.036-.661.142-.986.531-1.951,1.1-2.939,1.631a1.487,1.487,0,0,1-2.293-.608q-1.48-2.435-2.9-4.905a1.464,1.464,0,0,1,.592-2.223c.932-.562,1.9-1.075,2.84-1.618a1.382,1.382,0,0,0-.029-2.365c-.92-.526-1.852-1.026-2.761-1.568a1.484,1.484,0,0,1-.626-2.282q1.42-2.471,2.9-4.907a1.467,1.467,0,0,1,2.225-.608c1.017.54,2.005,1.134,3.019,1.683a1.562,1.562,0,0,0,1.978-1.13c.027-1.058,0-2.12.011-3.179.02-1.251.533-1.778,1.753-1.786q2.805-.019,5.611,0c1.174.009,1.7.538,1.723,1.721a17.6,17.6,0,0,1-.014,2.524,1.494,1.494,0,0,0,1.127,1.827,1.32,1.32,0,0,0,.9,0c1-.506,1.955-1.1,2.941-1.629a1.485,1.485,0,0,1,2.293.6q1.48,2.435,2.9,4.907a1.467,1.467,0,0,1-.592,2.225c-.959.578-1.951,1.1-2.918,1.669a1.389,1.389,0,0,0,.031,2.261c.941.547,1.9,1.064,2.837,1.622a1.485,1.485,0,0,1,.625,2.284q-1.418,2.471-2.9,4.907a1.469,1.469,0,0,1-2.227.6c-.988-.526-1.951-1.1-2.932-1.645a1.533,1.533,0,0,0-2.065,1.19c-.018,1,0,2-.007,2.993-.016,1.366-.513,1.87-1.854,1.877q-2.711.011-5.423,0c-1.285-.005-1.789-.518-1.814-1.82C614.264-172.681,614.273-173.18,614.271-173.68Zm-6.856-6.946,1.548,2.59c1.058-.6,2.011-1.127,2.956-1.669a1.7,1.7,0,0,1,2,.117,8.482,8.482,0,0,0,1.928,1.121,1.973,1.973,0,0,1,1.427,2.221c-.045.947-.009,1.9-.009,2.837h3.109c0-1.107,0-2.16,0-3.213a1.738,1.738,0,0,1,1.161-1.735,12.411,12.411,0,0,0,2.11-1.179,1.808,1.808,0,0,1,2.166-.119c.932.547,1.885,1.062,2.88,1.62l1.534-2.592c-.994-.563-1.931-1.107-2.882-1.633a1.7,1.7,0,0,1-.94-1.935,6.713,6.713,0,0,0,.018-2.138,1.839,1.839,0,0,1,1.125-2.194c.9-.468,1.775-.994,2.682-1.507l-1.543-2.6c-1,.56-1.93,1.058-2.837,1.6a1.821,1.821,0,0,1-2.243-.128,8.857,8.857,0,0,0-1.94-1.1,1.836,1.836,0,0,1-1.3-1.931c.025-1.017.005-2.034.005-3.062h-3.109c0,1.094-.009,2.122,0,3.15a1.79,1.79,0,0,1-1.2,1.805,12.956,12.956,0,0,0-2.108,1.184,1.776,1.776,0,0,1-2.086.113c-.943-.545-1.9-1.073-2.916-1.647l-1.534,2.6c1.028.587,1.967,1.132,2.916,1.661a1.672,1.672,0,0,1,.907,1.865,8.055,8.055,0,0,0-.018,2.23,1.782,1.782,0,0,1-1.013,2.077C609.287-181.706,608.378-181.174,607.415-180.626Z" transform="translate(6.101 13.348)" fill="#0f5c29"/>
    <path id="Path_171769" data-name="Path 171769" d="M614.784-183.343a6,6,0,0,1-5.945-6.048,6,6,0,0,1,6.068-5.926,6,6,0,0,1,5.9,6A6,6,0,0,1,614.784-183.343Zm.025-3a3.017,3.017,0,0,0,3-2.956,3.016,3.016,0,0,0-2.932-3.028,3.007,3.007,0,0,0-3.049,3A3.014,3.014,0,0,0,614.809-186.338Z" transform="translate(10.098 17.345)" fill="#0f5c29"/>
  </g>
</svg>
