<svg xmlns="http://www.w3.org/2000/svg" width="79.656" height="77" viewBox="0 0 79.656 77">
  <g id="Grupo_109116" data-name="Grupo 109116" transform="translate(-3453 7476)">
    <g id="Grupo_109112" data-name="Grupo 109112" transform="translate(3236.828 -7693.5)">
      <path id="Trazado_167563" data-name="Trazado 167563" d="M289.19,229.448v-5.31h-6.638V217.5H279.9v6.638h-6.638v5.31H270.6v9.293l-1.327,1.328v38.5h22.569V229.448Z" fill="#5df2ff"/>
      <path id="Trazado_167564" data-name="Trazado 167564" d="M270.6,278.569H250.69V261.31l1.327-1.327V249.362l10.621-10.621H270.6Z" fill="#ff805a"/>
      <path id="Trazado_167565" data-name="Trazado 167565" d="M252.017,278.569H232.1v-9.293l1.328-1.328v-7.965l9.293-7.966,9.293,7.966Z" fill="#5df2ff"/>
      <g id="Grupo_109108" data-name="Grupo 109108">
        <path id="Trazado_167566" data-name="Trazado 167566" d="M275.165,289.19h-7.247A47.468,47.468,0,0,1,264,293.634,37.1,37.1,0,0,0,275.165,289.19Z" fill="#111e61"/>
        <path id="Trazado_167567" data-name="Trazado 167567" d="M252.72,294.356q1.627.144,3.28.144t3.28-.144a43.21,43.21,0,0,0,5.216-5.166H247.5a43.21,43.21,0,0,0,5.216,5.166Z" fill="#111e61"/>
        <path id="Trazado_167568" data-name="Trazado 167568" d="M244.082,289.19h-7.247A37.1,37.1,0,0,0,248,293.634,47.467,47.467,0,0,1,244.082,289.19Z" fill="#111e61"/>
      </g>
      <path id="Trazado_167569" data-name="Trazado 167569" d="M233.431,278.569H220.155V267.948l6.638-3.982,6.638,3.982Z" fill="#ff805a"/>
      <path id="Trazado_167570" data-name="Trazado 167570" d="M225.466,271.931h2.655v6.638h-2.655Z" fill="#fffcfc"/>
      <path id="Trazado_167571" data-name="Trazado 167571" d="M241.4,271.931h2.655v6.638H241.4Z" fill="#fcfeff"/>
      <path id="Trazado_167572" data-name="Trazado 167572" d="M237.414,262.638h2.655v6.638h-2.655Z" fill="#fcfeff"/>
      <path id="Trazado_167573" data-name="Trazado 167573" d="M245.379,262.638h2.655v6.638h-2.655Z" fill="#fcfeff"/>
      <path id="Trazado_167574" data-name="Trazado 167574" d="M256,262.638h2.655v6.638H256Z" fill="#fffcfc"/>
      <path id="Trazado_167575" data-name="Trazado 167575" d="M259.983,271.931h2.655v6.638h-2.655Z" fill="#fffcfc"/>
      <path id="Trazado_167576" data-name="Trazado 167576" d="M263.966,262.638h2.655v6.638h-2.655Z" fill="#fffcfc"/>
      <path id="Trazado_167577" data-name="Trazado 167577" d="M256,253.345h2.655v6.638H256Z" fill="#fffcfc"/>
      <path id="Trazado_167578" data-name="Trazado 167578" d="M263.966,253.345h2.655v6.638h-2.655Z" fill="#fffcfc"/>
      <g id="Grupo_109109" data-name="Grupo 109109">
        <path id="Trazado_167579" data-name="Trazado 167579" d="M274.586,253.345h2.655v6.638h-2.655Z" fill="#fcfeff"/>
        <path id="Trazado_167580" data-name="Trazado 167580" d="M279.9,253.345h2.655v6.638H279.9Z" fill="#fcfeff"/>
        <path id="Trazado_167581" data-name="Trazado 167581" d="M274.586,244.052h2.655v6.638h-2.655Z" fill="#fcfeff"/>
        <path id="Trazado_167582" data-name="Trazado 167582" d="M279.9,244.052h2.655v6.638H279.9Z" fill="#fcfeff"/>
        <path id="Trazado_167583" data-name="Trazado 167583" d="M274.586,234.759h2.655V241.4h-2.655Z" fill="#fcfeff"/>
        <path id="Trazado_167584" data-name="Trazado 167584" d="M279.9,234.759h2.655V241.4H279.9Z" fill="#fcfeff"/>
        <path id="Trazado_167585" data-name="Trazado 167585" d="M285.207,253.345h2.655v6.638h-2.655Z" fill="#fcfeff"/>
        <path id="Trazado_167586" data-name="Trazado 167586" d="M274.586,262.638h2.655v6.638h-2.655Z" fill="#fcfeff"/>
        <path id="Trazado_167587" data-name="Trazado 167587" d="M279.9,262.638h2.655v6.638H279.9Z" fill="#fcfeff"/>
        <path id="Trazado_167588" data-name="Trazado 167588" d="M285.207,262.638h2.655v6.638h-2.655Z" fill="#fcfeff"/>
        <path id="Trazado_167589" data-name="Trazado 167589" d="M285.207,244.052h2.655v6.638h-2.655Z" fill="#fcfeff"/>
        <path id="Trazado_167590" data-name="Trazado 167590" d="M285.207,234.759h2.655V241.4h-2.655Z" fill="#fcfeff"/>
      </g>
      <path id="Trazado_167591" data-name="Trazado 167591" d="M263.966,244.052h2.655v6.638h-2.655Z" fill="#fffcfc"/>
      <path id="Trazado_167592" data-name="Trazado 167592" d="M279.9,271.931h2.655v6.638H279.9Z" fill="#fcfeff"/>
      <path id="Trazado_167593" data-name="Trazado 167593" d="M216.172,277.241V279.9H226.46a37.217,37.217,0,0,0,6.534,6.637h9.168A49.885,49.885,0,0,1,238.4,279.9h2.952a46.923,46.923,0,0,0,4.055,6.637H266.6a46.923,46.923,0,0,0,4.055-6.637H273.6a49.773,49.773,0,0,1-3.764,6.637h9.168a37.219,37.219,0,0,0,6.534-6.637h10.288v-2.656Z" fill="#111e61"/>
    </g>
    <path id="Trazado_167597" data-name="Trazado 167597" d="M217.5,249.362l19.914-18.586,7.965,6.638,11.949-13.276-3.983-2.655,13.276-3.983-1.328,13.276-3.983-2.655-15.931,17.258-7.965-6.638L217.5,257.328Z" transform="translate(3236.828 -7693.5)" fill="#111e61"/>
  </g>
</svg>
