<svg xmlns="http://www.w3.org/2000/svg" width="61.329" height="80" viewBox="0 0 61.329 80">
  <g id="Group_111419" data-name="Group 111419" transform="translate(-482.566 -19.848)">
    <path id="Path_172011" data-name="Path 172011" d="M535.9,94.6c0,1.22-.01,2.411,0,3.6a1.476,1.476,0,0,1-.728,1.476,1.455,1.455,0,0,1-1.627-.239c-.8-.545-1.63-1.058-2.416-1.627a.794.794,0,0,0-1.1-.018c-.757.56-1.571,1.044-2.348,1.579-.549.378-1.1.686-1.763.3a1.574,1.574,0,0,1-.691-1.581c.02-1.16.006-2.32.006-3.569h-1.043q-16.535,0-33.07,0c-5.175,0-8.548-3.371-8.549-8.542q0-28.242,0-56.485a9.284,9.284,0,0,1,7.213-9.373,10.5,10.5,0,0,1,2.39-.258q24.949-.021,49.9-.01c1.411,0,1.825.417,1.825,1.841q0,35.49,0,70.981c0,1.425-.415,1.843-1.821,1.847q-2.957.007-5.914.011A1.581,1.581,0,0,0,535.9,94.6Zm5.291-72.084h-.851q-24.039,0-48.079,0a6.661,6.661,0,0,0-7.022,7q-.006,25.084,0,50.168c0,.234.02.468.038.845,2.012-1.745,4.284-2.036,6.71-2.03q24.081.053,48.162.018h1.042Zm.024,58.669H505.835q-7.582,0-15.163,0a5.157,5.157,0,0,0-4.334,2.089,5.049,5.049,0,0,0-.548,5.571,5.131,5.131,0,0,0,4.9,3q16.955.015,33.909,0c.186,0,.373-.018.572-.029V87.85H497.887c-1.35,0-1.99-.436-1.98-1.347s.634-1.32,2.006-1.32h43.3Zm-13.256,6.7V95.98c.525-.344.962-.627,1.4-.914,1.134-.751,1.294-.75,2.459.014.431.283.864.564,1.376.9v-8.09Zm13.22,3.947V87.911h-5.21v3.922Z" fill="#0f5c29"/>
    <path id="Path_172013" data-name="Path 172013" d="M568.4,107.757c-1.249,0-2.5.011-3.748,0a1.359,1.359,0,0,1-1.541-1.535c-.014-1.416.01-2.833-.018-4.248a.924.924,0,0,0-.322-.65c-.091-.067-.445.113-.6.264-.995.968-1.96,1.966-2.949,2.94a1.39,1.39,0,0,1-2.3,0q-2.632-2.61-5.242-5.242a1.388,1.388,0,0,1-.011-2.3c.973-.99,1.974-1.953,2.937-2.953a.945.945,0,0,0,.239-.689c-.014-.108-.392-.237-.608-.24-1.388-.022-2.776,0-4.164-.013-1.147-.008-1.625-.478-1.628-1.617q-.013-3.707,0-7.414c0-1.15.474-1.624,1.612-1.632,1.388-.01,2.777.012,4.164-.016a.944.944,0,0,0,.656-.316c.067-.088-.106-.447-.256-.6-.967-1-1.964-1.962-2.939-2.951a1.388,1.388,0,0,1-.013-2.3q2.61-2.632,5.242-5.242c.847-.84,1.488-.829,2.359.031.928.917,1.831,1.86,2.774,2.762a3.085,3.085,0,0,0,.811.407,3.108,3.108,0,0,0,.241-.807c.025-1.36,0-2.721.015-4.082.01-1.046.493-1.548,1.521-1.553q3.79-.019,7.579,0c1.077,0,1.551.5,1.56,1.6.01,1.333-.015,2.666.016,4a3.026,3.026,0,0,0,.289.853,2.97,2.97,0,0,0,.741-.389c.959-.926,1.883-1.886,2.832-2.822a1.388,1.388,0,0,1,2.3-.023q2.663,2.638,5.3,5.3a1.372,1.372,0,0,1-.023,2.239c-.913.933-1.86,1.831-2.761,2.775a3.686,3.686,0,0,0-.468.868,4.323,4.323,0,0,0,.968.248c1.276.029,2.554.006,3.831.014,1.151.007,1.639.475,1.643,1.6q.014,3.749,0,7.5c0,1.078-.5,1.554-1.6,1.563-1.277.01-2.555-.018-3.831.016a4.33,4.33,0,0,0-1.025.283,5.048,5.048,0,0,0,.566.919c.843.884,1.735,1.721,2.586,2.6a5.34,5.34,0,1,1-7.588,7.506c-.949-.936-1.873-1.9-2.834-2.82a.933.933,0,0,0-.689-.233c-.11.016-.233.394-.237.61-.021,1.388,0,2.777-.013,4.165-.008,1.142-.482,1.616-1.623,1.625C570.9,107.764,569.652,107.757,568.4,107.757Zm2.707-2.686c0-1.267.009-2.455,0-3.644-.01-.949-.124-1.93,1.177-2.347-1.028-1-1.942-1.855-2.805-2.756a1.8,1.8,0,0,0-1.372-.589,8,8,0,0,1-7.214-10.6c.463-1.269,1.473-1.524,2.436-.6a20.543,20.543,0,0,1,2.046,2.073,2.433,2.433,0,0,0,2.572.738,2.485,2.485,0,0,0-.859-2.855,16.55,16.55,0,0,1-1.66-1.634c-1.237-1.246-.965-2.263.739-2.767a8.018,8.018,0,0,1,10.273,7.451c.007.243-.035.574.1.714,1.05,1.084,2.138,2.131,3.27,3.244a1.632,1.632,0,0,1,1.838-1.082c1.351.033,2.7.009,4.072.009V85.09c-1.411,0-2.767,0-4.124,0-1.162,0-1.451-.215-1.835-1.287-.159-.443-.338-.88-.532-1.309a1.473,1.473,0,0,1,.386-2.135c.982-.974,1.977-1.936,2.874-2.813l-3.817-3.819c-.93.94-1.933,1.936-2.914,2.952a1.5,1.5,0,0,1-1.948.354,10.843,10.843,0,0,0-1.538-.624,1.541,1.541,0,0,1-1.171-1.685c.031-1.407.008-2.816.008-4.249h-5.333c0,1.38,0,2.708,0,4.037,0,1.281-.179,1.522-1.362,1.945-.417.149-.826.325-1.229.509a1.48,1.48,0,0,1-2.138-.379c-.977-.979-1.945-1.968-2.844-2.879l-3.8,3.806c.953.942,1.948,1.945,2.965,2.925a1.5,1.5,0,0,1,.357,1.948,10.941,10.941,0,0,0-.624,1.538,1.542,1.542,0,0,1-1.683,1.174c-1.408-.03-2.816-.008-4.251-.008v5.333c1.379,0,2.707,0,4.034,0,1.288,0,1.522.173,1.946,1.359.149.417.324.826.508,1.229a1.482,1.482,0,0,1-.376,2.139c-.979.978-1.968,1.946-2.868,2.835l3.831,3.857c.634-.67,1.383-1.344,1.99-2.127a2.643,2.643,0,0,1,3.847-.84c1.614.861,1.7.7,1.7,2.571v3.623Zm-2.186-22.427a12.953,12.953,0,0,1,1.235,1.207,2.217,2.217,0,0,1,.544,1.158c.051,1.246.012,2.5-.046,3.744a1.289,1.289,0,0,1-1.406,1.324c-.693.018-1.393-.059-2.08,0a3.5,3.5,0,0,1-3.491-1.43,3.02,3.02,0,0,0-.5-.429,2.988,2.988,0,0,0,0,.4,5.261,5.261,0,0,0,5.493,4.438,2.633,2.633,0,0,1,2.2.877c2.779,2.833,5.6,5.627,8.411,8.426a4.216,4.216,0,0,0,.973.765,2.656,2.656,0,0,0,3.355-.759,2.614,2.614,0,0,0-.29-3.488q-4.307-4.347-8.66-8.649a2.709,2.709,0,0,1-.92-2.26A4.979,4.979,0,0,0,568.924,82.643Z" transform="translate(-51.212 -37.24)" fill="#0f5c29"/>
    <path id="Path_172014" data-name="Path 172014" d="M521.154,97.146q0,7.667,0,15.333a4.659,4.659,0,0,1-.022.831,1.322,1.322,0,0,1-2.623,0,4.167,4.167,0,0,1-.02-.748q0-15.416,0-30.832a4.184,4.184,0,0,1,.02-.748,1.323,1.323,0,0,1,2.623,0,4.685,4.685,0,0,1,.022.832Q521.155,89.48,521.154,97.146Z" transform="translate(-27.921 -46.631)" fill="#0f5c29"/>
    <path id="Path_172015" data-name="Path 172015" d="M521.117,46.507c0,.472.032.947-.008,1.415a1.312,1.312,0,0,1-1.325,1.238,1.291,1.291,0,0,1-1.306-1.253c-.043-.942-.044-1.889,0-2.831A1.286,1.286,0,0,1,519.8,43.84a1.31,1.31,0,0,1,1.311,1.252C521.149,45.561,521.118,46.035,521.117,46.507Z" transform="translate(-27.893 -18.652)" fill="#0f5c29"/>
    <path id="Path_172016" data-name="Path 172016" d="M518.5,250.137a12.026,12.026,0,0,1,.01-1.415,1.316,1.316,0,0,1,2.622,0,27.474,27.474,0,0,1,0,2.914,1.316,1.316,0,0,1-2.621,0A13.254,13.254,0,0,1,518.5,250.137Z" transform="translate(-27.918 -176.997)" fill="#0f5c29"/>
    <path id="Path_172017" data-name="Path 172017" d="M509.162,315.989c-.444,0-.891.027-1.332-.007a1.316,1.316,0,0,1-1.271-1.293,1.3,1.3,0,0,1,1.3-1.347c.915-.037,1.833-.038,2.748,0a1.3,1.3,0,0,1,1.272,1.289,1.321,1.321,0,0,1-1.3,1.351C510.108,316.016,509.634,315.99,509.162,315.989Z" transform="translate(-18.652 -228.144)" fill="#0f5c29"/>
    <path id="Path_172018" data-name="Path 172018" d="M671.181,188.9a1.361,1.361,0,0,1-1.972,1.38,2.561,2.561,0,0,1-.513-.417q-3.017-2.98-6.025-5.968c-.742-.738-.834-1.524-.271-2.112.585-.611,1.4-.528,2.174.241,1.99,1.969,3.983,3.934,5.953,5.923A5.369,5.369,0,0,1,671.181,188.9Z" transform="translate(-139.523 -125.572)" fill="#0f5c29"/>
  </g>
</svg>
