<svg xmlns="http://www.w3.org/2000/svg" width="69.913" height="80.001" viewBox="0 0 69.913 80.001">
  <g id="Group_111452" data-name="Group 111452" transform="translate(-585.375 -159.659)">
    <path id="Path_172036" data-name="Path 172036" d="M637.676,159.659c.258.217.533.415.77.651,3.06,3.053,6.109,6.118,9.179,9.161a2.13,2.13,0,0,1,.689,1.655c-.029,2.629-.012,5.26-.012,7.89v.731a22.094,22.094,0,0,1,2.885,1.19,7.934,7.934,0,0,1,4.09,7.249c.02,7.056.006,14.113.006,21.17a3.172,3.172,0,0,1-.012.39,1.2,1.2,0,0,1-1.233,1.153,1.147,1.147,0,0,1-1.086-1.2c-.026-1.38-.012-2.76-.012-4.14q0-7.188,0-14.374v-.978H587.757c-.013.287-.036.565-.036.844q0,22.38,0,44.762c0,1.286.218,1.5,1.487,1.5h62.272c1.228,0,1.459-.227,1.459-1.455q0-9.962,0-19.921a7.428,7.428,0,0,1,.023-.858,1.143,1.143,0,0,1,2.258-.122,3.968,3.968,0,0,1,.06.852q0,10.039,0,20.077c0,2.522-1.266,3.771-3.807,3.771q-31.137,0-62.272,0c-2.587,0-3.827-1.237-3.827-3.829q0-23.592,0-47.184c0-4.8,2.252-7.67,6.982-8.795v-.806c0-2.786-.007-5.572,0-8.358a3.763,3.763,0,0,1,4.027-3.99c.962,0,1.924,0,3,0,0-.775.05-1.523-.009-2.261a4.188,4.188,0,0,1,2.978-4.776Zm1.21,19.3c-.078-.038-.123-.077-.167-.077-1.875-.009-3.749-.011-5.624-.021A3.788,3.788,0,0,1,629.1,174.9c-.013-1.666,0-3.333,0-5v-.856H596.559c-1.4,0-1.857.465-1.857,1.884q0,8.046,0,16.091v.748h44.185ZM601.735,166.7h1q13.552,0,27.1-.01a2.066,2.066,0,0,1,1.589.655c3.062,3.086,6.156,6.14,9.2,9.247a2.4,2.4,0,0,1,.623,1.493c.058,2.941.028,5.883.028,8.824v.841h4.635V171.827c-1.95,0-3.847.011-5.744,0a3.8,3.8,0,0,1-4.028-4.01c-.005-.6,0-1.2,0-1.8V162H603.639c-.156,0-.313-.006-.468,0a1.393,1.393,0,0,0-1.429,1.441C601.714,164.487,601.735,165.528,601.735,166.7ZM592.357,187.8v-5.443a5.319,5.319,0,0,0-4.541,5.4,1.917,1.917,0,0,0,.289.044C589.482,187.8,590.859,187.8,592.357,187.8Zm60.518-.028c-.057-2.71-2.263-5.289-4.524-5.373v5.373Zm-14.382-23.84c0,1.381-.038,2.823.017,4.261a1.227,1.227,0,0,0,1.193,1.238c1.46.065,2.926.02,4.31.02Zm-1.612,12.572-5.436-5.448c0,1.113,0,2.354,0,3.594,0,.156-.007.313.008.467a1.381,1.381,0,0,0,1.333,1.374C634.2,176.538,635.622,176.506,636.881,176.506Z" fill="#0f5c29"/>
    <path id="Path_172037" data-name="Path 172037" d="M621.547,210.841c-.018.366-.043.62-.043.874,0,6.039.009,12.079-.016,18.118,0,.705.174.921.909.918q11.715-.042,23.432,0c.673,0,.89-.153.887-.859q-.042-9.1,0-18.2c0-.7-.211-.875-.885-.866-2.812.034-5.624.016-8.436.012a3.719,3.719,0,0,1-.852-.066,1.14,1.14,0,0,1,.055-2.228,3.546,3.546,0,0,1,.7-.045c2.942,0,5.884-.008,8.826,0,1.967.005,2.917.96,2.918,2.933q.006,9.333,0,18.665c0,2.016-.962,2.978-2.963,2.979q-11.99,0-23.98,0c-1.976,0-2.939-.943-2.941-2.91q-.009-9.411,0-18.821A2.535,2.535,0,0,1,622,208.5c3.021-.011,6.041,0,9.061-.006.656,0,1.2.165,1.419.847.255.785-.336,1.48-1.307,1.491-1.874.023-3.749.008-5.624.008Z" fill="#0f5c29"/>
    <path id="Path_172038" data-name="Path 172038" d="M634,215.469c-2.653,0-5.307,0-7.96,0a1.2,1.2,0,0,1-1.333-.836,1.158,1.158,0,0,1,1.21-1.5c1.17-.031,2.341-.009,3.512-.01q6.2,0,12.408,0a3.147,3.147,0,0,1,.848.074,1.067,1.067,0,0,1,.832,1.236,1.035,1.035,0,0,1-1.011,1.006c-.6.046-1.2.024-1.794.024Q637.355,215.471,634,215.469Z" fill="#0f5c29"/>
    <path id="Path_172039" data-name="Path 172039" d="M634.162,217.46q3.941,0,7.882,0c.974,0,1.514.44,1.495,1.19-.018.714-.559,1.15-1.473,1.151q-7.961.006-15.921,0c-.971,0-1.5-.442-1.482-1.206.016-.736.514-1.133,1.46-1.134Q630.142,217.454,634.162,217.46Z" fill="#0f5c29"/>
    <path id="Path_172040" data-name="Path 172040" d="M634.1,221.759c2.549,0,5.1,0,7.646,0,.336,0,.767-.065.985.11.344.276.759.737.746,1.106s-.473.772-.823,1.052c-.183.145-.552.069-.837.069q-7.725,0-15.449,0a3.784,3.784,0,0,1-.853-.056,1.144,1.144,0,0,1-.065-2.19,3.729,3.729,0,0,1,1-.091C629,221.756,631.549,221.759,634.1,221.759Z" fill="#0f5c29"/>
    <path id="Path_172041" data-name="Path 172041" d="M634.055,228.421q-3.941,0-7.883,0c-.995,0-1.51-.4-1.51-1.164s.528-1.176,1.511-1.177q7.961,0,15.922,0c1.156,0,1.852.945,1.248,1.748a1.783,1.783,0,0,1-1.249.567C639.415,228.446,636.735,228.421,634.055,228.421Z" fill="#0f5c29"/>
    <path id="Path_172042" data-name="Path 172042" d="M616.152,183.045h15.23c.209,0,.417,0,.625,0,.9.022,1.448.473,1.433,1.183s-.556,1.155-1.474,1.155q-15.816.008-31.633,0c-.94,0-1.442-.421-1.453-1.157-.012-.77.488-1.179,1.494-1.18Q608.262,183.04,616.152,183.045Z" fill="#0f5c29"/>
    <path id="Path_172043" data-name="Path 172043" d="M613.688,178.722H626.58a3.672,3.672,0,0,1,.779.027,1.161,1.161,0,0,1,.05,2.274,2.993,2.993,0,0,1-.777.04q-13.049,0-26.1,0a3.134,3.134,0,0,1-.7-.029,1.163,1.163,0,0,1,.025-2.292,3.563,3.563,0,0,1,.7-.021Z" fill="#0f5c29"/>
  </g>
</svg>
