<svg xmlns="http://www.w3.org/2000/svg" width="137.964" height="137.989" viewBox="0 0 137.964 137.989">
  <g id="Group_111292" data-name="Group 111292" transform="translate(-415.799 509.84)">
    <path id="Path_171756" data-name="Path 171756" d="M7.8,0h53.9a7.8,7.8,0,1,1,0,15.593H7.8A7.8,7.8,0,0,1,7.8,0Z" transform="translate(420.016 -506.747)" fill="#72e676"/>
    <g id="Group_111292-2" data-name="Group 111292" transform="translate(415.799 -509.84)">
      <path id="Path_171730" data-name="Path 171730" d="M553.763-406.078v34.228H415.8q0-63.391,0-126.782c0-6.913,4.266-11.2,11.145-11.2q32.6-.006,65.2,0h1.42V-497.8h-4.057v-7.9c-.486-.024-.84-.055-1.194-.056q-30.78,0-61.561.006a10.164,10.164,0,0,0-2,.2,6.059,6.059,0,0,0-4.732,6.937c.559,3.275,3.056,5.192,6.812,5.192q32.532.007,65.063,0h1.786v7.237l16.405-8.415,41.848,81.381-13.361,6.907.119.235Zm-64.247-83.274h-1.644q-30.579,0-61.157.013a11.281,11.281,0,0,1-6.157-1.6,3.055,3.055,0,0,0-.578-.214v85.01h69.536Zm4.234,7.8v75.427h38.78Zm-43.683,79.719v14.82h99.542v-14.82Zm85.884,19.145H433.661v6.655h102.29Zm-32.324-88.626,25.609,49.805,10.925-5.623-25.6-49.806Zm-83.675,84.308H434.87v-14.8H419.952ZM542.037-423.48l-10.928,5.627,4.387,8.5,10.91-5.631Zm-44.66-59.984,4.382,8.5,10.918-5.635-4.379-8.489Zm-51.6,81.67H439.08v14.822h6.695Zm-16.347,19.109h-9.455v6.646h9.455ZM549.61-382.7h-9.448v6.676h9.448Z" transform="translate(-415.799 509.84)"/>
      <path id="Path_171731" data-name="Path 171731" d="M462.779-485.564v3.986h42.161v-3.986Zm-4.247-.063c-1.193,0-2.219-.045-3.235.029-.286.021-.765.376-.781.6-.081,1.135-.037,2.279-.037,3.384h4.053Zm-12.182.079v3.977h3.937v-3.977Z" transform="translate(-436.04 493.807)" fill="#fff"/>
      <path id="Path_171732" data-name="Path 171732" d="M497.721-452.67v83.208H428.185v-85.01a3.057,3.057,0,0,1,.578.214,11.281,11.281,0,0,0,6.157,1.6q30.579-.033,61.157-.013Zm-18.949,31.26c-.176.619-.313,1.131-.466,1.638-1.7,5.621-3.371,11.249-5.113,16.856a1.466,1.466,0,0,0,.616,1.9,13.066,13.066,0,0,0,16.646-.124,1.283,1.283,0,0,0,.5-1.689q-3.578-10.854-7.058-21.741a1.31,1.31,0,0,0-1.512-1.083q-19.462.035-38.924,0a1.315,1.315,0,0,0-1.505,1.1q-3.47,10.889-7.052,21.742a1.293,1.293,0,0,0,.521,1.687,13.065,13.065,0,0,0,16.75.01,1.314,1.314,0,0,0,.538-1.692c-1.209-3.848-2.359-7.715-3.525-11.576-.7-2.307-1.386-4.617-2.108-7.026h13.75v31.029H450.751v3.985h24.355v-4.043H465.049V-421.41Zm-17.818-8.249h3.921v-3.905h-3.921Z" transform="translate(-424.005 473.158)" fill="#72e676"/>
      <path id="Path_171733" data-name="Path 171733" d="M517.337-189.806h99.542v14.82H517.337Zm41.406,9.441v-3.924H531.675v3.924Zm20.714-3.979v3.94h23.037v-3.94Zm-12.432,3.96v-3.893h-3.961v3.893Zm8.127.02v-3.923h-3.873v3.923Z" transform="translate(-483.07 297.812)" fill="#72e676"/>
      <path id="Path_171734" data-name="Path 171734" d="M571.015-133.076v6.655H468.725v-6.655Z" transform="translate(-450.864 260.227)" fill="#72e676"/>
      <path id="Path_171735" data-name="Path 171735" d="M676.042-406.725l10.929-5.624,25.6,49.806-10.925,5.623Zm13.636,17.555,3.635-1.881-1.873-3.625-3.626,1.869Zm9.257,9.071-3.619,1.868,1.854,3.64,3.626-1.9Zm-3.753-7.3-3.615,1.9,1.865,3.619,3.632-1.877Z" transform="translate(-588.214 445.25)" fill="#f9cb3a"/>
      <path id="Path_171736" data-name="Path 171736" d="M428.1-174.921v-14.8h14.918v14.8Z" transform="translate(-423.951 297.754)" fill="#72e676"/>
      <path id="Path_171737" data-name="Path 171737" d="M768.4-253.948l4.368,8.492-10.91,5.631-4.387-8.5Z" transform="translate(-642.165 340.307)" fill="#f9cb3a"/>
      <path id="Path_171738" data-name="Path 171738" d="M657.524-442.728l10.92-5.624,4.379,8.489-10.918,5.635Z" transform="translate(-575.946 469.103)" fill="#f9cb3a"/>
      <path id="Path_171739" data-name="Path 171739" d="M491.478-189.69v14.822h-6.695V-189.69Z" transform="translate(-461.502 297.735)" fill="#f9cb3a"/>
      <path id="Path_171740" data-name="Path 171740" d="M437.622-133.067v6.646h-9.455v-6.646Z" transform="translate(-423.993 260.221)" fill="#f9cb3a"/>
      <path id="Path_171741" data-name="Path 171741" d="M793.747-133.1v6.676H784.3V-133.1Z" transform="translate(-659.937 260.246)" fill="#f9cb3a"/>
      <path id="Path_171742" data-name="Path 171742" d="M495.03-485.414h42.161v3.986H495.03Z" transform="translate(-468.291 493.657)"/>
      <path id="Path_171743" data-name="Path 171743" d="M474.466-485.627v4.016h-4.053c0-1.1-.044-2.248.037-3.384.016-.228.5-.583.781-.6C472.247-485.672,473.273-485.627,474.466-485.627Z" transform="translate(-451.973 493.807)"/>
      <path id="Path_171744" data-name="Path 171744" d="M446.35-485.366h3.937v3.977H446.35Z" transform="translate(-436.04 493.625)"/>
      <path id="Path_171745" data-name="Path 171745" d="M491.737-364.828H478.014v30.975H488.07v4.043H463.715v-3.985H473.8v-31.029h-13.75c.723,2.409,1.412,4.719,2.108,7.026,1.166,3.861,2.316,7.728,3.525,11.576a1.314,1.314,0,0,1-.538,1.692,13.065,13.065,0,0,1-16.75-.01,1.293,1.293,0,0,1-.521-1.687q3.569-10.857,7.052-21.742a1.315,1.315,0,0,1,1.505-1.1q19.462.037,38.924,0a1.31,1.31,0,0,1,1.512,1.083q3.468,10.89,7.058,21.741a1.283,1.283,0,0,1-.5,1.689,13.066,13.066,0,0,1-16.646.124,1.466,1.466,0,0,1-.616-1.9c1.742-5.607,3.418-11.234,5.113-16.856C491.425-363.7,491.562-364.208,491.737-364.828Zm-1.13,17.978c2.94,1.684,6.7,1.614,8.767-.115l-4.393-13.463-.281.068Zm-33.519-13.527-.293-.016-4.388,13.534c2.782,1.708,6.573,1.637,8.752-.1Z" transform="translate(-436.97 416.575)"/>
      <path id="Path_171746" data-name="Path 171746" d="M525.285-388.615v-3.905h3.921v3.905Z" transform="translate(-488.335 432.113)"/>
      <path id="Path_171747" data-name="Path 171747" d="M586.89-169.532H559.822v-3.924H586.89Z" transform="translate(-511.217 286.98)"/>
      <path id="Path_171748" data-name="Path 171748" d="M701.4-173.62h23.037v3.94H701.4Z" transform="translate(-605.017 287.089)"/>
      <path id="Path_171749" data-name="Path 171749" d="M656.792-169.528h-3.961v-3.893h3.961Z" transform="translate(-572.837 286.957)"/>
      <path id="Path_171750" data-name="Path 171750" d="M681.047-169.529h-3.873v-3.923h3.873Z" transform="translate(-588.964 286.977)"/>
      <path id="Path_171751" data-name="Path 171751" d="M712.788-354.477l-1.864-3.638,3.626-1.869,1.873,3.625Z" transform="translate(-611.324 410.558)"/>
      <path id="Path_171752" data-name="Path 171752" d="M736.77-316.79l1.862,3.612-3.626,1.9-1.854-3.64Z" transform="translate(-626.05 381.941)"/>
      <path id="Path_171753" data-name="Path 171753" d="M725.659-338.423l1.883,3.642-3.632,1.877-1.865-3.619Z" transform="translate(-618.692 396.273)"/>
      <path id="Path_171754" data-name="Path 171754" d="M574.733-329.889l4.093-13.511.281-.068L583.5-330C581.429-328.276,577.673-328.206,574.733-329.889Z" transform="translate(-521.096 399.616)" fill="#fff"/>
      <path id="Path_171755" data-name="Path 171755" d="M466.221-343.345l4.071,13.416c-2.179,1.74-5.971,1.811-8.752.1l4.388-13.534Z" transform="translate(-446.103 399.545)" fill="#fff"/>
    </g>
  </g>
</svg>
