<svg xmlns="http://www.w3.org/2000/svg" width="525.365" height="506.599" viewBox="0 0 525.365 506.599">
  <g id="Group_111903" data-name="Group 111903" transform="translate(-787.227 -1191)">
    <g id="Group_111400" data-name="Group 111400" transform="translate(632.016 1063.922)">
      <g id="Window_3" data-name="Window 3" transform="translate(298.969 195.965)">
        <g id="Group_111386" data-name="Group 111386">
          <g id="Group_111381" data-name="Group 111381">
            <path id="Path_171928" data-name="Path 171928" d="M402.764,193.919V336.558L379.01,360.312h-93.9a3.662,3.662,0,0,1-3.655-3.667V193.919a3.663,3.663,0,0,1,3.655-3.667H399.1A3.672,3.672,0,0,1,402.764,193.919Z" transform="translate(-281.454 -190.252)" fill="#5bc832"/>
            <path id="Path_171929" data-name="Path 171929" d="M402.764,198.939v136.41L379.01,359.1h-93.9a3.662,3.662,0,0,1-3.655-3.667v-156.5Z" transform="translate(-281.454 -189.047)" fill="#fff" opacity="0.6" style="isolation: isolate"/>
            <path id="Path_171930" data-name="Path 171930" d="M385.629,194.447a1.769,1.769,0,1,1-1.768-1.77A1.769,1.769,0,0,1,385.629,194.447Z" transform="translate(-267.491 -189.916)" fill="#fff" opacity="0.6" style="isolation: isolate"/>
            <path id="Path_171931" data-name="Path 171931" d="M379.7,194.447a1.769,1.769,0,1,1-1.768-1.77A1.769,1.769,0,0,1,379.7,194.447Z" transform="translate(-268.315 -189.916)" fill="#fff" opacity="0.6" style="isolation: isolate"/>
            <path id="Path_171932" data-name="Path 171932" d="M373.761,194.447a1.769,1.769,0,1,1-1.77-1.77A1.769,1.769,0,0,1,373.761,194.447Z" transform="translate(-269.138 -189.916)" fill="#fff" opacity="0.6" style="isolation: isolate"/>
          </g>
          <g id="Group_111382" data-name="Group 111382" transform="translate(7.57 18.609)">
            <path id="Path_171933" data-name="Path 171933" d="M354.265,208.871H289.241a1.139,1.139,0,0,1,0-2.277h65.025a1.139,1.139,0,0,1,0,2.277Z" transform="translate(-288.102 -206.594)" fill="#5bc832"/>
            <path id="Path_171934" data-name="Path 171934" d="M335.885,214.335H289.241a1.139,1.139,0,0,1,0-2.277h46.644a1.139,1.139,0,1,1,0,2.277Z" transform="translate(-288.102 -205.836)" fill="#5bc832"/>
          </g>
          <g id="Group_111383" data-name="Group 111383" transform="translate(7.57 121.013)">
            <path id="Path_171935" data-name="Path 171935" d="M384.6,298.8h-83.15a1.139,1.139,0,1,1,0-2.277H384.6a1.139,1.139,0,1,1,0,2.277Z" transform="translate(-286.409 -296.521)" fill="#5bc832"/>
            <path id="Path_171936" data-name="Path 171936" d="M372.392,320.65H289.241a1.139,1.139,0,0,1,0-2.277h83.151a1.139,1.139,0,0,1,0,2.277Z" transform="translate(-288.102 -293.489)" fill="#5bc832"/>
            <path id="Path_171937" data-name="Path 171937" d="M386.289,304.26H289.241a1.139,1.139,0,0,1,0-2.277h97.048a1.139,1.139,0,0,1,0,2.277Z" transform="translate(-288.102 -295.763)" fill="#5bc832"/>
            <path id="Path_171938" data-name="Path 171938" d="M386.289,309.723H289.241a1.139,1.139,0,1,1,0-2.277h97.048a1.139,1.139,0,0,1,0,2.277Z" transform="translate(-288.102 -295.005)" fill="#5bc832"/>
            <path id="Path_171939" data-name="Path 171939" d="M386.289,315.186H289.241a1.139,1.139,0,0,1,0-2.277h97.048a1.139,1.139,0,0,1,0,2.277Z" transform="translate(-288.102 -294.247)" fill="#5bc832"/>
          </g>
          <path id="Path_171940" data-name="Path 171940" d="M390.878,318.729l-23.754,23.754V318.729Z" transform="translate(-269.568 -172.427)" fill="#5bc832" opacity="0.5"/>
          <rect id="Rectangle_37298" data-name="Rectangle 37298" width="6.711" height="136.41" transform="translate(114.6 9.893)" opacity="0.4" style="isolation: isolate"/>
          <path id="Path_171941" data-name="Path 171941" d="M385.339,263.83h0a2.47,2.47,0,0,1-2.471-2.47V247.425a2.47,2.47,0,0,1,2.471-2.47h0a2.47,2.47,0,0,1,2.47,2.47V261.36A2.47,2.47,0,0,1,385.339,263.83Z" transform="translate(-267.383 -182.662)" fill="#5bc832"/>
          <g id="Group_111384" data-name="Group 111384" transform="translate(7.57 86.851)">
            <path id="Path_171942" data-name="Path 171942" d="M384.6,268.8h-83.15a1.139,1.139,0,1,1,0-2.277H384.6a1.139,1.139,0,0,1,0,2.277Z" transform="translate(-286.409 -266.521)" fill="#5bc832"/>
            <path id="Path_171943" data-name="Path 171943" d="M372.392,290.649H289.241a1.139,1.139,0,0,1,0-2.277h83.151a1.139,1.139,0,1,1,0,2.277Z" transform="translate(-288.102 -263.489)" fill="#5bc832"/>
            <path id="Path_171944" data-name="Path 171944" d="M386.289,274.26H289.241a1.139,1.139,0,0,1,0-2.277h97.048a1.139,1.139,0,0,1,0,2.277Z" transform="translate(-288.102 -265.763)" fill="#5bc832"/>
            <path id="Path_171945" data-name="Path 171945" d="M386.289,279.724H289.241a1.139,1.139,0,0,1,0-2.277h97.048a1.139,1.139,0,0,1,0,2.277Z" transform="translate(-288.102 -265.005)" fill="#5bc832"/>
            <path id="Path_171946" data-name="Path 171946" d="M386.289,285.186H289.241a1.139,1.139,0,0,1,0-2.277h97.048a1.139,1.139,0,0,1,0,2.277Z" transform="translate(-288.102 -264.247)" fill="#5bc832"/>
          </g>
          <rect id="Rectangle_37299" data-name="Rectangle 37299" width="97.343" height="36.32" transform="translate(8.415 34.527)" fill="#5bc832"/>
          <path id="Path_171947" data-name="Path 171947" d="M288.844,251.064h2.646v-6.6h3.05V231.426h4.26v8.021h5.856v10.674h6.983v-7.437h5.771l3.821-3.821V230.01h2.326v12.675h5.877v4.509h6.082v-23l1.682-1.682v6.31h3.887v2.835l3.728,3.728v6.732h5.343v-5.326h13.965v-3.977h3.153v-6.938H368.4v10.915h1.782l4.017-4.017h3.785v-3.631h1.9v3.671h2.478v15.061h2.687v-7.515l1.134.069v-19.85H288.844Z" transform="translate(-280.429 -186.045)" opacity="0.2" style="isolation: isolate"/>
          <g id="Group_111385" data-name="Group 111385" transform="translate(78.406 74.325)">
            <path id="Path_171948" data-name="Path 171948" d="M377.658,257.8H351.446a1.139,1.139,0,0,1,0-2.278h26.213a1.139,1.139,0,0,1,0,2.278Z" transform="translate(-350.307 -255.521)" fill="#5bc832"/>
          </g>
          <path id="Path_171949" data-name="Path 171949" d="M328.427,190.252V308.135L310.5,326.06H281.454V193.919a3.663,3.663,0,0,1,3.655-3.667Z" transform="translate(-281.454 -190.252)" opacity="0.2" style="isolation: isolate"/>
          <path id="Path_171950" data-name="Path 171950" d="M385.339,263.83h0a2.47,2.47,0,0,1-2.471-2.47V247.425a2.47,2.47,0,0,1,2.471-2.47h0a2.47,2.47,0,0,1,2.47,2.47V261.36A2.47,2.47,0,0,1,385.339,263.83Z" transform="translate(-267.383 -182.662)" fill="#fff" opacity="0.4" style="isolation: isolate"/>
        </g>
      </g>
      <g id="Window_1" data-name="Window 1" transform="translate(155.211 213.74)">
        <g id="Group_111393" data-name="Group 111393">
          <g id="Group_111387" data-name="Group 111387">
            <path id="Path_171951" data-name="Path 171951" d="M276.524,209.529V352.168L252.77,375.922h-93.9a3.661,3.661,0,0,1-3.655-3.667V209.529a3.662,3.662,0,0,1,3.655-3.667H272.858A3.672,3.672,0,0,1,276.524,209.529Z" transform="translate(-155.211 -205.862)" fill="#5bc832"/>
            <path id="Path_171952" data-name="Path 171952" d="M276.521,214.557v136.41l-23.754,23.754h-93.9a3.662,3.662,0,0,1-3.655-3.667v-156.5Z" transform="translate(-155.211 -204.656)" fill="#fff" opacity="0.6" style="isolation: isolate"/>
            <path id="Path_171953" data-name="Path 171953" d="M259.387,210.065a1.77,1.77,0,1,1-1.77-1.77A1.77,1.77,0,0,1,259.387,210.065Z" transform="translate(-141.248 -205.524)" fill="#fff" opacity="0.6" style="isolation: isolate"/>
            <path id="Path_171954" data-name="Path 171954" d="M253.453,210.065a1.77,1.77,0,1,1-1.77-1.77A1.77,1.77,0,0,1,253.453,210.065Z" transform="translate(-142.072 -205.524)" fill="#fff" opacity="0.6" style="isolation: isolate"/>
            <path id="Path_171955" data-name="Path 171955" d="M247.518,210.065a1.769,1.769,0,1,1-1.768-1.77A1.769,1.769,0,0,1,247.518,210.065Z" transform="translate(-142.895 -205.524)" fill="#fff" opacity="0.6" style="isolation: isolate"/>
          </g>
          <g id="Group_111388" data-name="Group 111388" transform="translate(7.57 19.229)">
            <path id="Path_171956" data-name="Path 171956" d="M183.2,225.025H163a1.139,1.139,0,0,1,0-2.277h20.2a1.139,1.139,0,0,1,0,2.277Z" transform="translate(-161.859 -222.748)" fill="#5bc832"/>
            <path id="Path_171957" data-name="Path 171957" d="M192.721,230.488H163a1.139,1.139,0,0,1,0-2.277h29.723a1.139,1.139,0,1,1,0,2.277Z" transform="translate(-161.859 -221.99)" fill="#5bc832"/>
            <path id="Path_171958" data-name="Path 171958" d="M183.532,235.952H163a1.139,1.139,0,0,1,0-2.277h20.534a1.139,1.139,0,1,1,0,2.277Z" transform="translate(-161.859 -221.232)" fill="#5bc832"/>
          </g>
          <g id="Group_111389" data-name="Group 111389" transform="translate(7.57 133.547)">
            <path id="Path_171959" data-name="Path 171959" d="M258.354,325.415H175.2a1.139,1.139,0,1,1,0-2.277h83.151a1.139,1.139,0,0,1,0,2.277Z" transform="translate(-160.166 -323.138)" fill="#5bc832"/>
            <path id="Path_171960" data-name="Path 171960" d="M214.5,330.878H163a1.139,1.139,0,0,1,0-2.277h51.5a1.139,1.139,0,1,1,0,2.277Z" transform="translate(-161.859 -322.38)" fill="#5bc832"/>
          </g>
          <path id="Path_171961" data-name="Path 171961" d="M264.635,334.347,240.881,358.1V334.347Z" transform="translate(-143.325 -188.036)" fill="#5bc832" opacity="0.5"/>
          <rect id="Rectangle_37300" data-name="Rectangle 37300" width="6.711" height="136.41" transform="translate(114.6 9.901)" opacity="0.4" style="isolation: isolate"/>
          <path id="Path_171962" data-name="Path 171962" d="M259.1,328.448h0a2.471,2.471,0,0,1-2.471-2.471V312.043a2.471,2.471,0,0,1,2.471-2.471h0a2.471,2.471,0,0,1,2.47,2.471v13.934A2.471,2.471,0,0,1,259.1,328.448Z" transform="translate(-141.14 -191.473)" fill="#5bc832"/>
          <g id="Group_111390" data-name="Group 111390" transform="translate(88.977 19.229)">
            <path id="Path_171963" data-name="Path 171963" d="M250.129,225.025H234.486a1.139,1.139,0,0,1,0-2.277h15.643a1.139,1.139,0,0,1,0,2.277Z" transform="translate(-233.347 -222.748)" fill="#5bc832"/>
            <path id="Path_171964" data-name="Path 171964" d="M249.208,230.488H241.12a1.139,1.139,0,0,1,0-2.277h8.089a1.139,1.139,0,0,1,0,2.277Z" transform="translate(-232.427 -221.99)" fill="#5bc832"/>
          </g>
          <g id="Group_111391" data-name="Group 111391" transform="translate(7.57 48.142)">
            <path id="Path_171965" data-name="Path 171965" d="M258.354,250.415H175.2a1.139,1.139,0,1,1,0-2.277h83.151a1.139,1.139,0,1,1,0,2.277Z" transform="translate(-160.166 -248.138)" fill="#5bc832"/>
            <path id="Path_171966" data-name="Path 171966" d="M260.047,255.878H163a1.139,1.139,0,1,1,0-2.277h97.049a1.139,1.139,0,0,1,0,2.277Z" transform="translate(-161.859 -247.38)" fill="#5bc832"/>
            <path id="Path_171967" data-name="Path 171967" d="M203.11,261.341H163a1.139,1.139,0,0,1,0-2.277H203.11a1.139,1.139,0,1,1,0,2.277Z" transform="translate(-161.859 -246.622)" fill="#5bc832"/>
          </g>
          <g id="Group_111392" data-name="Group 111392" transform="translate(8.71 71.115)">
            <rect id="Rectangle_37301" data-name="Rectangle 37301" width="38.234" height="10.243" transform="translate(16.101)" fill="#5bc832" opacity="0.7"/>
            <rect id="Rectangle_37302" data-name="Rectangle 37302" width="17.325" height="37.839" transform="translate(16.101 12.521)" fill="#5bc832" opacity="0.3"/>
            <rect id="Rectangle_37303" data-name="Rectangle 37303" width="19.899" height="37.839" transform="translate(56.612 12.521)" fill="#5bc832" opacity="0.3"/>
            <rect id="Rectangle_37304" data-name="Rectangle 37304" width="40.437" height="10.243" transform="translate(56.612)" fill="#5bc832" opacity="0.7"/>
            <rect id="Rectangle_37305" data-name="Rectangle 37305" width="18.26" height="37.839" transform="translate(78.788 12.521)" fill="#5bc832" opacity="0.3"/>
            <rect id="Rectangle_37306" data-name="Rectangle 37306" width="13.823" height="37.839" transform="translate(0 12.521)" fill="#5bc832" opacity="0.5"/>
            <rect id="Rectangle_37307" data-name="Rectangle 37307" width="13.823" height="10.243" fill="#5bc832"/>
            <rect id="Rectangle_37308" data-name="Rectangle 37308" width="18.631" height="37.839" transform="translate(35.704 12.521)" fill="#5bc832" opacity="0.3"/>
          </g>
          <path id="Path_171968" data-name="Path 171968" d="M259.1,328.448h0a2.471,2.471,0,0,1-2.471-2.471V312.043a2.471,2.471,0,0,1,2.471-2.471h0a2.471,2.471,0,0,1,2.47,2.471v13.934A2.471,2.471,0,0,1,259.1,328.448Z" transform="translate(-141.14 -191.473)" fill="#fff" opacity="0.4" style="isolation: isolate"/>
          <path id="Path_171969" data-name="Path 171969" d="M270.56,209.529V328.186h-68.7a3.662,3.662,0,0,1-3.655-3.667V205.862h68.689A3.672,3.672,0,0,1,270.56,209.529Z" transform="translate(-149.246 -205.862)" opacity="0.2" style="isolation: isolate"/>
        </g>
      </g>
      <g id="Window_2" data-name="Window 2" transform="translate(215.523 149.078)">
        <g id="Group_111399" data-name="Group 111399">
          <g id="Group_111394" data-name="Group 111394">
            <path id="Path_171970" data-name="Path 171970" d="M329.486,152.745V295.384l-23.754,23.754h-93.9a3.663,3.663,0,0,1-3.656-3.667V152.745a3.663,3.663,0,0,1,3.656-3.667H325.82A3.672,3.672,0,0,1,329.486,152.745Z" transform="translate(-208.175 -149.078)" fill="#5bc832"/>
            <path id="Path_171971" data-name="Path 171971" d="M329.486,157.768v136.41l-23.754,23.754h-93.9a3.663,3.663,0,0,1-3.656-3.667v-156.5Z" transform="translate(-208.175 -147.872)" fill="#fff" opacity="0.6" style="isolation: isolate"/>
            <circle id="Ellipse_5886" data-name="Ellipse 5886" cx="1.769" cy="1.769" r="1.769" transform="translate(114.601 2.765)" fill="#fff" opacity="0.6" style="isolation: isolate"/>
            <circle id="Ellipse_5887" data-name="Ellipse 5887" cx="1.769" cy="1.769" r="1.769" transform="translate(107.843 2.765)" fill="#fff" opacity="0.6" style="isolation: isolate"/>
            <path id="Path_171972" data-name="Path 171972" d="M300.483,153.276a1.769,1.769,0,1,1-1.77-1.77A1.77,1.77,0,0,1,300.483,153.276Z" transform="translate(-195.859 -148.741)" fill="#fff" opacity="0.6" style="isolation: isolate"/>
          </g>
          <g id="Group_111395" data-name="Group 111395" transform="translate(34.971 19.224)">
            <path id="Path_171973" data-name="Path 171973" d="M271.586,168.237h-23.2a1.139,1.139,0,0,1,0-2.277h23.2a1.139,1.139,0,0,1,0,2.277Z" transform="translate(-237.724 -165.96)" fill="#5bc832"/>
            <path id="Path_171974" data-name="Path 171974" d="M282.273,173.7h-42.25a1.139,1.139,0,0,1,0-2.277h42.25a1.139,1.139,0,1,1,0,2.277Z" transform="translate(-238.885 -165.202)" fill="#5bc832"/>
            <path id="Path_171975" data-name="Path 171975" d="M271.963,179.163H248.095a1.139,1.139,0,0,1,0-2.277h23.868a1.139,1.139,0,0,1,0,2.277Z" transform="translate(-237.765 -164.444)" fill="#5bc832"/>
          </g>
          <g id="Group_111396" data-name="Group 111396" transform="translate(7.572 48.136)">
            <path id="Path_171976" data-name="Path 171976" d="M311.318,193.626h-83.15a1.139,1.139,0,1,1,0-2.277h83.15a1.139,1.139,0,0,1,0,2.277Z" transform="translate(-213.131 -191.349)" fill="#5bc832"/>
            <path id="Path_171977" data-name="Path 171977" d="M299.113,215.479h-83.15a1.139,1.139,0,1,1,0-2.277h83.15a1.139,1.139,0,0,1,0,2.277Z" transform="translate(-214.824 -188.317)" fill="#5bc832"/>
            <path id="Path_171978" data-name="Path 171978" d="M313.011,199.089H215.963a1.139,1.139,0,1,1,0-2.277h97.048a1.139,1.139,0,0,1,0,2.277Z" transform="translate(-214.824 -190.591)" fill="#5bc832"/>
            <path id="Path_171979" data-name="Path 171979" d="M313.011,204.552H215.963a1.139,1.139,0,1,1,0-2.277h97.048a1.139,1.139,0,0,1,0,2.277Z" transform="translate(-214.824 -189.833)" fill="#5bc832"/>
            <path id="Path_171980" data-name="Path 171980" d="M313.011,210.015H215.963a1.139,1.139,0,1,1,0-2.277h97.048a1.139,1.139,0,0,1,0,2.277Z" transform="translate(-214.824 -189.075)" fill="#5bc832"/>
          </g>
          <g id="Group_111397" data-name="Group 111397" transform="translate(7.572 110.767)">
            <path id="Path_171981" data-name="Path 171981" d="M311.318,248.626h-83.15a1.139,1.139,0,1,1,0-2.277h83.15a1.139,1.139,0,0,1,0,2.277Z" transform="translate(-213.131 -246.349)" fill="#5bc832"/>
            <path id="Path_171982" data-name="Path 171982" d="M299.113,270.478h-83.15a1.139,1.139,0,1,1,0-2.277h83.15a1.139,1.139,0,0,1,0,2.277Z" transform="translate(-214.824 -243.317)" fill="#5bc832"/>
            <path id="Path_171983" data-name="Path 171983" d="M313.011,254.09H215.963a1.139,1.139,0,1,1,0-2.277h97.048a1.139,1.139,0,0,1,0,2.277Z" transform="translate(-214.824 -245.591)" fill="#5bc832"/>
            <path id="Path_171984" data-name="Path 171984" d="M313.011,259.552H215.963a1.139,1.139,0,1,1,0-2.277h97.048a1.139,1.139,0,1,1,0,2.277Z" transform="translate(-214.824 -244.833)" fill="#5bc832"/>
            <path id="Path_171985" data-name="Path 171985" d="M313.011,265.016H215.963a1.139,1.139,0,1,1,0-2.277h97.048a1.139,1.139,0,0,1,0,2.277Z" transform="translate(-214.824 -244.075)" fill="#5bc832"/>
          </g>
          <rect id="Rectangle_37309" data-name="Rectangle 37309" width="11.65" height="15.511" transform="translate(94.109 18.999)" fill="#5bc832"/>
          <circle id="Ellipse_5888" data-name="Ellipse 5888" cx="6.458" cy="6.458" r="6.458" transform="translate(8.71 18.999)" fill="#5bc832"/>
          <g id="Group_111398" data-name="Group 111398" transform="translate(8.34 82.076)">
            <path id="Path_171986" data-name="Path 171986" d="M215.5,222.515a1.361,1.361,0,1,0,1.361-1.361A1.361,1.361,0,0,0,215.5,222.515Z" transform="translate(-215.499 -221.154)" fill="#5bc832"/>
            <path id="Path_171987" data-name="Path 171987" d="M215.5,227.978a1.361,1.361,0,1,0,1.361-1.361A1.361,1.361,0,0,0,215.5,227.978Z" transform="translate(-215.499 -220.396)" fill="#5bc832"/>
            <path id="Path_171988" data-name="Path 171988" d="M215.5,233.441a1.361,1.361,0,1,0,1.361-1.361A1.361,1.361,0,0,0,215.5,233.441Z" transform="translate(-215.499 -219.638)" fill="#5bc832"/>
            <path id="Path_171989" data-name="Path 171989" d="M215.5,238.9a1.361,1.361,0,1,0,1.361-1.361A1.361,1.361,0,0,0,215.5,238.9Z" transform="translate(-215.499 -218.88)" fill="#5bc832"/>
            <path id="Path_171990" data-name="Path 171990" d="M235.788,223.626H220.963a1.139,1.139,0,0,1,0-2.277h14.825a1.139,1.139,0,0,1,0,2.277Z" transform="translate(-214.899 -221.127)" fill="#5bc832"/>
            <path id="Path_171991" data-name="Path 171991" d="M249.686,229.089H220.963a1.139,1.139,0,0,1,0-2.277h28.724a1.139,1.139,0,0,1,0,2.277Z" transform="translate(-214.899 -220.369)" fill="#5bc832"/>
            <path id="Path_171992" data-name="Path 171992" d="M232.605,234.552H220.963a1.139,1.139,0,0,1,0-2.277h11.643a1.139,1.139,0,1,1,0,2.277Z" transform="translate(-214.899 -219.611)" fill="#5bc832"/>
            <path id="Path_171993" data-name="Path 171993" d="M245.131,240.015H220.963a1.139,1.139,0,0,1,0-2.277h24.169a1.139,1.139,0,1,1,0,2.277Z" transform="translate(-214.899 -218.853)" fill="#5bc832"/>
          </g>
          <path id="Path_171994" data-name="Path 171994" d="M317.6,277.558l-23.754,23.754V277.558Z" transform="translate(-196.289 -131.252)" fill="#5bc832" opacity="0.5"/>
          <path id="Path_171995" data-name="Path 171995" d="M302.468,165.762l-11.65,15.511h11.65Z" transform="translate(-196.709 -146.763)" opacity="0.2" style="isolation: isolate"/>
          <rect id="Rectangle_37310" data-name="Rectangle 37310" width="7.546" height="7.546" transform="translate(11.395 21.684)" opacity="0.2" style="isolation: isolate"/>
          <rect id="Rectangle_37311" data-name="Rectangle 37311" width="6.711" height="136.41" transform="translate(114.601 9.896)" opacity="0.4" style="isolation: isolate"/>
          <path id="Path_171996" data-name="Path 171996" d="M312.06,182.659h0a2.47,2.47,0,0,1-2.47-2.47V166.254a2.47,2.47,0,0,1,2.47-2.47h0a2.47,2.47,0,0,1,2.471,2.47v13.935A2.47,2.47,0,0,1,312.06,182.659Z" transform="translate(-194.104 -147.038)" fill="#5bc832"/>
          <path id="Path_171997" data-name="Path 171997" d="M312.06,182.659h0a2.47,2.47,0,0,1-2.47-2.47V166.254a2.47,2.47,0,0,1,2.47-2.47h0a2.47,2.47,0,0,1,2.471,2.47v13.935A2.47,2.47,0,0,1,312.06,182.659Z" transform="translate(-194.104 -147.038)" fill="#fff" opacity="0.4" style="isolation: isolate"/>
        </g>
      </g>
    </g>
    <g id="Group_111401" data-name="Group 111401" transform="translate(138 122)">
      <g id="Group_111379" data-name="Group 111379" transform="translate(654 1069)">
        <path id="Path_171881" data-name="Path 171881" d="M416.7,292.224l-36.121,3.363,13.294,13.294L363.12,339.634a4.289,4.289,0,1,0,6.065,6.065l30.752-30.752,13.4,13.4Z" transform="translate(-333.669 9.887)" fill="#01a157"/>
        <g id="Group_111357" data-name="Group 111357" transform="translate(216.103 201.459)">
          <path id="Path_171882" data-name="Path 171882" d="M499.332,281.68c-5.662,0-9.618-4.056-9.618-9.861s3.956-9.863,9.618-9.863,9.618,4.056,9.618,9.863S505,281.68,499.332,281.68Zm0-14.776c-2.579,0-4.059,1.791-4.059,4.915s1.48,4.913,4.059,4.913c2.542,0,4-1.791,4-4.913S501.873,266.9,499.332,266.9Zm-27.575,14.105,26.352-44.88h6.754l-26.286,44.88Zm5.595-25.828c-5.664,0-9.618-4.056-9.618-9.861,0-5.772,3.954-9.8,9.618-9.8,5.7,0,9.68,4.031,9.68,9.8C487.032,251.124,483.05,255.18,477.351,255.18Zm0-14.774c-2.54,0-4,1.789-4,4.913,0,3.161,1.457,4.975,4,4.975s4.059-1.86,4.059-4.975S479.93,240.406,477.351,240.406Z" transform="translate(-467.733 -235.516)" fill="#ff9600"/>
        </g>
        <g id="Group_111359" data-name="Group 111359" transform="translate(160.342 156.899)">
          <path id="Path_171883" data-name="Path 171883" d="M725.587,210.41H556.942L590.33,243.8,436.317,402.116l82.16,92.43,162.44-160.161,44.671,44.671Z" transform="translate(-436.317 -210.41)" fill="#3cbf71"/>
          <g id="Group_111358" data-name="Group 111358" transform="translate(11.712 8.579)">
            <path id="Path_171884" data-name="Path 171884" d="M513.773,478.349l-70.858-79.716L597.265,239.97l-24.726-24.726H711.9V354.6l-36.048-36.048Zm-61.488-79.505L514.1,468.387,675.88,308.879l29.153,29.153V222.106H589.107l17.8,17.8Z" transform="translate(-442.915 -215.244)" fill="#279c43"/>
          </g>
        </g>
        <path id="Path_171885" data-name="Path 171885" d="M564.022,327.576l-52.635-52.635L436.317,352.11l82.16,92.43,3.376-3.328Z" transform="translate(-275.975 -3.506)" fill="#10823e"/>
        <rect id="Rectangle_37297" data-name="Rectangle 37297" width="128.108" height="218.293" transform="translate(197.461 233.484) rotate(45)" fill="#6cd199"/>
        <g id="Group_111360" data-name="Group 111360" transform="translate(168.402 287.799)">
          <circle id="Ellipse_5883" data-name="Ellipse 5883" cx="32.665" cy="32.665" r="32.665" fill="#1c9b4f"/>
        </g>
        <circle id="Ellipse_5884" data-name="Ellipse 5884" cx="10.27" cy="10.27" r="10.27" transform="translate(124.397 413.648)" fill="#3cbf71"/>
        <circle id="Ellipse_5885" data-name="Ellipse 5885" cx="10.27" cy="10.27" r="10.27" transform="translate(85.029 377.703)" fill="#3cbf71"/>
        <path id="Path_171886" data-name="Path 171886" d="M599.485,330.855,455.566,473.811l-68.749-68.75,143.92-142.955-4.852-4.852L377.1,405.044,455.549,483.5,604.338,335.707Z" transform="translate(-321.866 -17.212)" fill="#279c43"/>
        <g id="Group_111364" data-name="Group 111364" transform="translate(308.734 312.779)">
          <path id="Path_171887" data-name="Path 171887" d="M519.931,352.467a53.249,53.249,0,1,1,54.223,52.271A53.253,53.253,0,0,1,519.931,352.467Z" transform="translate(-519.922 -298.235)" fill="#ffcd00"/>
          <path id="Path_171888" data-name="Path 171888" d="M525.66,347.836a43.076,43.076,0,1,1,43.86,42.284A43.066,43.066,0,0,1,525.66,347.836Z" transform="translate(-515.481 -293.792)" fill="#ff9600"/>
          <g id="Group_111361" data-name="Group 111361" transform="translate(5.68 5.687)">
            <path id="Path_171889" data-name="Path 171889" d="M570.663,396.579a47.564,47.564,0,0,1-47.532-46.7h0a47.557,47.557,0,0,1,46.687-48.432c.293-.005.587-.007.879-.007a47.571,47.571,0,0,1,.866,95.133C571.263,396.578,570.961,396.579,570.663,396.579Zm.034-93.424c-.282,0-.563,0-.848.007a45.839,45.839,0,0,0-45,46.684h0A45.852,45.852,0,1,0,570.7,303.155Z" transform="translate(-523.122 -301.439)" fill="#fff0d1"/>
          </g>
          <g id="Group_111363" data-name="Group 111363" transform="translate(34.403 23.12)">
            <g id="Group_111362" data-name="Group 111362">
              <path id="Path_171890" data-name="Path 171890" d="M551.371,367.8a22.961,22.961,0,0,1-9.931-3.435l-2.135-1.47,3.914-11.576,3.694,2.355a16.22,16.22,0,0,0,8.512,2.439l.273,0c2.469-.05,5.337-1.1,5.28-3.9-.028-1.5-.543-3.285-6.3-5.492-7.123-2.652-14.455-6.6-14.62-15.7-.121-6.837,4.148-12.492,10.878-14.785l-.153-4.75,11.446-.222.133,4.04a21.917,21.917,0,0,1,7.95,2.6l2.529,1.418-4.089,11.425-3.525-1.935a14.465,14.465,0,0,0-7.328-1.919l-.309,0c-2.787.053-4.366,1.147-4.334,3,.025,1.361.552,2.529,7.135,5.113,6.354,2.458,13.69,6.557,13.867,16.436.137,7.165-4.334,13.09-11.377,15.461l.162,4.971-11.516.224Z" transform="translate(-539.305 -311.261)" fill="#ffcd00"/>
            </g>
          </g>
        </g>
        <g id="Group_111368" data-name="Group 111368" transform="translate(0 343.816)">
          <path id="Path_171891" data-name="Path 171891" d="M345.985,353.791a37.38,37.38,0,1,1,38.065,36.694A37.382,37.382,0,0,1,345.985,353.791Z" transform="translate(-345.978 -315.721)" fill="#ffcd00"/>
          <path id="Path_171892" data-name="Path 171892" d="M350.007,350.54a30.239,30.239,0,1,1,30.788,29.684A30.228,30.228,0,0,1,350.007,350.54Z" transform="translate(-342.861 -312.602)" fill="#ff9600"/>
          <g id="Group_111365" data-name="Group 111365" transform="translate(3.987 3.991)">
            <path id="Path_171893" data-name="Path 171893" d="M381.6,384.758a33.392,33.392,0,0,1-33.368-32.783h0a33.384,33.384,0,0,1,32.775-34c.2-.005.412-.007.616-.007a33.394,33.394,0,0,1,.609,66.783C382.02,384.756,381.808,384.758,381.6,384.758Zm.023-65.583c-.2,0-.4,0-.595.005a32.177,32.177,0,0,0-31.592,32.772h0a32.187,32.187,0,1,0,32.186-32.777Z" transform="translate(-348.225 -317.97)" fill="#fff0d1"/>
          </g>
          <g id="Group_111367" data-name="Group 111367" transform="translate(24.151 16.229)">
            <g id="Group_111366" data-name="Group 111366">
              <path id="Path_171894" data-name="Path 171894" d="M368.055,364.554a16.129,16.129,0,0,1-6.97-2.41l-1.5-1.033,2.748-8.126,2.593,1.654a11.391,11.391,0,0,0,5.974,1.711l.194,0c1.732-.035,3.747-.772,3.706-2.739-.02-1.052-.382-2.306-4.425-3.853-5-1.862-10.147-4.634-10.263-11.02a10.682,10.682,0,0,1,7.636-10.38l-.107-3.335,8.035-.156.094,2.836a15.373,15.373,0,0,1,5.58,1.828l1.775,1-2.87,8.021-2.474-1.36a10.163,10.163,0,0,0-5.145-1.347l-.217,0c-1.956.037-3.064.8-3.042,2.105.018.957.387,1.777,5.009,3.591,4.46,1.727,9.611,4.6,9.735,11.537a11.134,11.134,0,0,1-7.987,10.854l.114,3.491-8.085.156Z" transform="translate(-359.585 -324.865)" fill="#ffcd00"/>
            </g>
          </g>
        </g>
        <g id="Group_111372" data-name="Group 111372" transform="translate(376.08 373.431)">
          <path id="Path_171895" data-name="Path 171895" d="M557.872,370.476a37.38,37.38,0,1,1,38.065,36.694A37.382,37.382,0,0,1,557.872,370.476Z" transform="translate(-557.865 -332.406)" fill="#ffcd00"/>
          <path id="Path_171896" data-name="Path 171896" d="M561.893,367.226a30.239,30.239,0,1,1,30.789,29.682A30.233,30.233,0,0,1,561.893,367.226Z" transform="translate(-554.748 -329.288)" fill="#ff9600"/>
          <g id="Group_111369" data-name="Group 111369" transform="translate(3.987 3.991)">
            <path id="Path_171897" data-name="Path 171897" d="M593.486,401.443a33.392,33.392,0,0,1-33.368-32.784h0a33.384,33.384,0,0,1,32.775-34c.2,0,.412-.005.616-.005a33.394,33.394,0,0,1,.607,66.783C593.906,401.439,593.7,401.443,593.486,401.443Zm.023-65.583c-.2,0-.4,0-.594.005a32.174,32.174,0,0,0-31.592,32.77h0a32.187,32.187,0,1,0,32.186-32.775Z" transform="translate(-560.112 -334.655)" fill="#fff0d1"/>
          </g>
          <g id="Group_111371" data-name="Group 111371" transform="translate(24.151 16.229)">
            <g id="Group_111370" data-name="Group 111370">
              <path id="Path_171898" data-name="Path 171898" d="M579.942,381.237a16.145,16.145,0,0,1-6.972-2.41l-1.5-1.031,2.748-8.127,2.593,1.654a11.391,11.391,0,0,0,5.974,1.713l.193,0c1.732-.035,3.745-.774,3.706-2.739-.02-1.053-.382-2.307-4.425-3.855-5-1.862-10.147-4.634-10.263-11.02a10.684,10.684,0,0,1,7.636-10.38l-.106-3.333,8.035-.156.094,2.836a15.371,15.371,0,0,1,5.58,1.826l1.775,1-2.87,8.019-2.474-1.358a10.163,10.163,0,0,0-5.145-1.347l-.217,0c-1.956.037-3.065.8-3.042,2.105.018.957.387,1.775,5.009,3.591,4.46,1.725,9.609,4.6,9.735,11.537a11.135,11.135,0,0,1-7.987,10.854l.114,3.489-8.085.158Z" transform="translate(-571.472 -341.55)" fill="#ffcd00"/>
            </g>
          </g>
        </g>
        <path id="Path_171899" data-name="Path 171899" d="M663.226,258.188,627.1,261.55l13.292,13.3-30.75,30.75a4.289,4.289,0,1,0,6.065,6.067l30.752-30.752,13.4,13.4Z" transform="translate(-142.634 -16.488)" fill="#ff9600"/>
        <path id="Path_171900" data-name="Path 171900" d="M652.528,303.356l-36.121,3.363L629.7,320.013l-30.75,30.752a4.289,4.289,0,1,0,6.065,6.065l30.75-30.75,13.4,13.4Z" transform="translate(-150.924 18.513)" fill="#01a157"/>
        <path id="Path_171901" data-name="Path 171901" d="M594.142,168.785l-36.121,3.363,13.294,13.294-30.752,30.752a4.289,4.289,0,1,0,6.065,6.065l30.752-30.75,13.4,13.4Z" transform="translate(-196.167 -85.767)" fill="#ffcd00"/>
        <g id="Group_111373" data-name="Group 111373" transform="translate(56.327 84.363)">
          <path id="Path_171902" data-name="Path 171902" d="M415.339,396.666l.571,9.129,11.982,1.141v-9.985Z" transform="translate(-348.557 6.457)" fill="#eab488"/>
          <path id="Path_171903" data-name="Path 171903" d="M444.27,396.506l1.141,9.129H453.4l1.712-8.558Z" transform="translate(-326.138 6.332)" fill="#eab488"/>
          <path id="Path_171904" data-name="Path 171904" d="M412.271,284s-4.373,9.508-3.994,15.974,3.994,17.117,3.994,17.117l4,168.884s14.453,2.662,20.539,0c-1.141,0,6.276-161.467,6.276-161.467l3.424.57s9.852,52.9,10.839,61.05c2.283,18.828,10.271,99.086,10.271,99.086s13.692,1.9,19.778-1.141c.382-.761-2.662-84.821-5.515-111.067s-13.124-82.16-15.4-87.865Z" transform="translate(-354.048 -80.852)" fill="#003c7b"/>
          <path id="Path_171905" data-name="Path 171905" d="M451.317,191.793s9.128-1.713,8.557-8.559-8.557-8.559-15.4-5.706-11.981,6.848-17.687,7.989-13.693,5.135-13.693,16.546,17.117,16.546,17.117,16.546Z" transform="translate(-350.301 -164.378)" fill="#023868"/>
          <path id="Path_171906" data-name="Path 171906" d="M400.552,228.282s22.824-14.833,41.08-13.692,47.926,12.552,47.926,12.552,3.994,26.244-2.852,42.22-14.835,67.326-14.263,69.608c-19.4,10.27-50.78-1.141-50.78-1.141s0-40.511-3.424-55.915-17.115-31.38-17.115-31.38Z" transform="translate(-360.016 -134.684)" fill="#1f9188"/>
          <path id="Path_171907" data-name="Path 171907" d="M424.661,227.508c1.713,1.141,7.417,9.7,7.417,9.7l-2.852,64.473,8.559,12.552,8.559-19.4-9.7-58.2,6.276-9.13-9.128-11.981-5.706,3.994Z" transform="translate(-341.334 -133.91)" fill="#023868"/>
          <path id="Path_171908" data-name="Path 171908" d="M433.555,237.52l72.08,2.853,26.245-52.491,15.4,10.27-29.669,64.472-58.2,18.828Z" transform="translate(-334.441 -155.332)" fill="#1f9188"/>
          <path id="Path_171909" data-name="Path 171909" d="M411.4,229.325s-34.8,34.233-33.663,49.639,55.343,44.5,55.343,44.5l13.124-14.835L405.7,278.392l27.387-32.522s9.416-8.488,2.283-19.4C425.667,211.638,411.4,229.325,411.4,229.325Z" transform="translate(-377.714 -130.021)" fill="#52b5b0"/>
          <path id="Path_171910" data-name="Path 171910" d="M422.733,200.1l1.711,25.676s7.987,10.839,19.969-.572l-.57-11.982Z" transform="translate(-342.828 -145.867)" fill="#d68c56"/>
          <path id="Path_171911" data-name="Path 171911" d="M424.547,206.484s-8.559,5.135-4.565,10.841a9.027,9.027,0,0,0,10.27,3.424s6.276,12.552,18.259,14.833,16.546-11.411,16.546-17.687-17.687-37.085-17.687-37.085l-16.546,9.128S433.105,205.914,424.547,206.484Z" transform="translate(-345.783 -160.812)" fill="#eab488"/>
          <path id="Path_171912" data-name="Path 171912" d="M419.518,225.041l7.417-13.693s3.424,8.559,10.841,7.417a14.127,14.127,0,0,0,10.27-6.848l6.846,12.552-10.27,11.982-6.276-11.411-9.128,10.841Z" transform="translate(-345.319 -137.148)" fill="#fff"/>
          <path id="Path_171913" data-name="Path 171913" d="M408.91,285.009s1.141,6.846,6.276,9.7,17.687,1.711,17.687,1.711A16.528,16.528,0,0,0,440.29,293c3.424-2.852-18.257-22.822-18.257-22.822Z" transform="translate(-353.539 -91.563)" fill="#eab488"/>
          <path id="Path_171914" data-name="Path 171914" d="M489.488,202.663s1.141-9.128,3.8-14.073,11.031-19.78,13.314-19.018-4.945,16.736-4.945,16.736,4.945-4.563,7.987-1.9,4.945,11.411,3.044,14.073S500.9,210.652,500.9,210.652Z" transform="translate(-291.099 -169.543)" fill="#eab488"/>
          <path id="Path_171915" data-name="Path 171915" d="M413.832,412.763s-1.427-7.987,2.852-12.552c.572-.284,7.989,2.568,12.552.286,1.141,0,27.958,4.851,29.1,11.127-2.852.57-31.38,0-31.38,0l-4.563-1.713.57,3.138S413.832,412.193,413.832,412.763Z" transform="translate(-349.902 9.187)" fill="#003768"/>
          <path id="Path_171916" data-name="Path 171916" d="M442.549,412.763s-1.427-7.987,2.852-12.552c.57-.284,7.987,2.568,12.552.286,1.141,0,27.957,4.851,29.1,11.127-2.852.57-31.38,0-31.38,0l-4.565-1.713.572,3.138S442.549,412.193,442.549,412.763Z" transform="translate(-327.649 9.187)" fill="#003768"/>
        </g>
        <g id="Group_111374" data-name="Group 111374" transform="translate(238.896 0)">
          <path id="Path_171917" data-name="Path 171917" d="M515.843,140.269h0a2.67,2.67,0,0,1-2.662-2.662V124.674a2.67,2.67,0,0,1,2.662-2.662h0a2.671,2.671,0,0,1,2.664,2.662v12.932A2.671,2.671,0,0,1,515.843,140.269Z" transform="translate(-455.308 -122.012)" fill="#ffcd00"/>
          <path id="Path_171918" data-name="Path 171918" d="M507.352,143.129h0a2.67,2.67,0,0,0,.508-3.731L500.033,129.1a2.671,2.671,0,0,0-3.731-.508h0a2.669,2.669,0,0,0-.508,3.731l7.827,10.294A2.669,2.669,0,0,0,507.352,143.129Z" transform="translate(-469.2 -117.329)" fill="#ffcd00"/>
          <path id="Path_171919" data-name="Path 171919" d="M500.912,150.295h0a2.669,2.669,0,0,1-3.667.855l-10.983-6.826a2.67,2.67,0,0,1-.856-3.667h0a2.669,2.669,0,0,1,3.667-.855l10.983,6.826A2.673,2.673,0,0,1,500.912,150.295Z" transform="translate(-477.14 -108.536)" fill="#ffcd00"/>
          <path id="Path_171920" data-name="Path 171920" d="M498.819,158.2h0a2.669,2.669,0,0,0-2.765-2.554l-12.923.511a2.669,2.669,0,0,0-2.554,2.765h0a2.67,2.67,0,0,0,2.765,2.556l12.923-.513A2.668,2.668,0,0,0,498.819,158.2Z" transform="translate(-480.575 -95.948)" fill="#ffcd00"/>
          <path id="Path_171921" data-name="Path 171921" d="M528.727,142.588h0a2.672,2.672,0,0,1-.728-3.7l7.2-10.74a2.671,2.671,0,0,1,3.7-.728h0a2.669,2.669,0,0,1,.728,3.694l-7.2,10.742A2.673,2.673,0,0,1,528.727,142.588Z" transform="translate(-444.172 -118.165)" fill="#ffcd00"/>
          <path id="Path_171922" data-name="Path 171922" d="M537.048,149.358h0a2.671,2.671,0,0,0,3.711.637l10.559-7.467a2.671,2.671,0,0,0,.635-3.711h0a2.67,2.67,0,0,0-3.711-.637l-10.559,7.467A2.671,2.671,0,0,0,537.048,149.358Z" transform="translate(-437.19 -109.86)" fill="#ffcd00"/>
          <path id="Path_171923" data-name="Path 171923" d="M540.629,156.906h0a2.672,2.672,0,0,1,2.609-2.716l12.93-.256a2.672,2.672,0,0,1,2.716,2.609h0a2.673,2.673,0,0,1-2.609,2.716l-12.93.256A2.671,2.671,0,0,1,540.629,156.906Z" transform="translate(-434.039 -97.275)" fill="#ffcd00"/>
        </g>
        <g id="Group_111378" data-name="Group 111378" transform="translate(263.49 25.881)">
          <path id="Path_171924" data-name="Path 171924" d="M494.438,174.663A37.38,37.38,0,1,1,532.5,211.357,37.382,37.382,0,0,1,494.438,174.663Z" transform="translate(-494.431 -136.593)" fill="#ffcd00"/>
          <path id="Path_171925" data-name="Path 171925" d="M498.459,171.412A30.239,30.239,0,1,1,529.249,201.1,30.23,30.23,0,0,1,498.459,171.412Z" transform="translate(-491.314 -133.474)" fill="#ff9600"/>
          <g id="Group_111375" data-name="Group 111375" transform="translate(3.987 3.993)">
            <path id="Path_171926" data-name="Path 171926" d="M530.052,205.629a33.392,33.392,0,0,1-33.368-32.783h0a33.384,33.384,0,0,1,32.775-34c.2,0,.41-.005.616-.005a33.393,33.393,0,0,1,.607,66.781C530.472,205.627,530.259,205.629,530.052,205.629Zm.023-65.583c-.2,0-.4,0-.6.005a32.178,32.178,0,0,0-31.59,32.772h0a32.187,32.187,0,1,0,32.186-32.777Z" transform="translate(-496.678 -138.843)" fill="#fff0d1"/>
          </g>
          <g id="Group_111377" data-name="Group 111377" transform="translate(24.151 16.229)">
            <g id="Group_111376" data-name="Group 111376">
              <path id="Path_171927" data-name="Path 171927" d="M516.508,185.426a16.144,16.144,0,0,1-6.972-2.41l-1.5-1.033,2.748-8.126,2.593,1.654a11.39,11.39,0,0,0,5.974,1.711l.193,0c1.732-.036,3.745-.772,3.706-2.739-.019-1.053-.382-2.306-4.425-3.853-5-1.862-10.147-4.634-10.263-11.02a10.682,10.682,0,0,1,7.636-10.38l-.107-3.335,8.035-.156.094,2.836a15.376,15.376,0,0,1,5.58,1.828l1.775,1-2.87,8.021-2.474-1.36a10.167,10.167,0,0,0-5.145-1.345l-.217,0c-1.956.035-3.065.8-3.042,2.1.018.957.387,1.777,5.009,3.591,4.46,1.727,9.609,4.6,9.735,11.537a11.137,11.137,0,0,1-7.987,10.855l.114,3.489-8.085.156Z" transform="translate(-508.038 -145.737)" fill="#ffcd00"/>
            </g>
          </g>
        </g>
      </g>
    </g>
  </g>
</svg>
