<svg id="Grupo_12812" data-name="Grupo 12812" xmlns="http://www.w3.org/2000/svg" width="216.251" height="202.268" viewBox="0 0 216.251 202.268">
  <g id="Grupo_12791" data-name="Grupo 12791" transform="translate(0 59.387)">
    <path id="Trazado_12315" data-name="Trazado 12315" d="M1346.9,480.491a71.442,71.442,0,1,1-71.441-71.442A71.441,71.441,0,0,1,1346.9,480.491Z" transform="translate(-1204.014 -409.049)" fill="#b52426"/>
    <path id="Trazado_12316" data-name="Trazado 12316" d="M1338.49,487.7a55.823,55.823,0,1,1-55.822-55.823A55.823,55.823,0,0,1,1338.49,487.7Z" transform="translate(-1211.225 -416.26)" fill="#fff"/>
    <path id="Trazado_12317" data-name="Trazado 12317" d="M1329.013,495.833A38.214,38.214,0,1,1,1290.8,457.62,38.212,38.212,0,0,1,1329.013,495.833Z" transform="translate(-1219.356 -424.391)" fill="#b52426"/>
    <circle id="Elipse_678" data-name="Elipse 678" cx="22.596" cy="22.596" r="22.596" transform="translate(48.846 48.845)" fill="#fff"/>
    <path id="Trazado_12318" data-name="Trazado 12318" d="M1313.137,509.449a8.722,8.722,0,1,1-8.722-8.721A8.722,8.722,0,0,1,1313.137,509.449Z" transform="translate(-1232.973 -438.008)" fill="#b52426"/>
  </g>
  <path id="Trazado_12319" data-name="Trazado 12319" d="M1450.326,509.755v-4.241h-1.51l3.546-5.557h-8.253l-3.543,5.557h-1.671l3.547-5.557h-2.556l-3.543,5.557H1328.795l6.219-10.534-29.387,12.654,29.387,12.655-6.218-10.534h107.546l3.543,5.556h8.253l-3.546-5.556h1.67l3.548,5.556h2.553l-3.546-5.556Z" transform="translate(-1236.11 -376.806)" fill="#4a4e99"/>
  <g id="Grupo_12811" data-name="Grupo 12811" transform="translate(91.857)">
    <g id="Grupo_12792" data-name="Grupo 12792" transform="translate(65.559 70.573)">
      <path id="Trazado_12320" data-name="Trazado 12320" d="M1457.693,429.195c-2.363-1.05-8.2-3.794-8.2-3.794h-7.034s-4.207,2.34-6.569,3.389c0,0-2.988,11.954-1.227,19.474a118.208,118.208,0,0,1,2.312,15.706h17.884s-.382-8.509,1.93-15.581C1459.873,438.972,1457.693,429.195,1457.693,429.195Z" transform="translate(-1434.11 -425.401)" fill="#4a4e99"/>
    </g>
    <g id="Grupo_12793" data-name="Grupo 12793" transform="translate(31.372 37.201)">
      <path id="Trazado_12321" data-name="Trazado 12321" d="M1388.034,385.948s-3.895-1.238-3.895-5.261a5.062,5.062,0,0,1,2.166-4.067c0,2.758,1.861,6.376,2.335,4.671.188-.69,0-1.02.46-1.3,1.134-.69,1.6,4.183,1.6,4.183Z" transform="translate(-1384.139 -376.62)" fill="#f2af9e"/>
    </g>
    <path id="Trazado_12322" data-name="Trazado 12322" d="M1423.039,417.866l-17.382-14.1c-.04-.042-.095-.07-.139-.109l-12.46-16.539c-.471-.425-4.5,2.388-4.125,2.829l12.363,18.984a3.651,3.651,0,0,0,.848,1.3l18.987,18.076s.979-2.007,2.532-4.777C1424.809,421.493,1423.039,417.866,1423.039,417.866Z" transform="translate(-1354.274 -342.721)" fill="#122a67"/>
    <path id="Trazado_12323" data-name="Trazado 12323" d="M1447.792,388.975c-1.562-.969-4-2.464-8.951-.475-4.179,1.676-7.736,8.628-2.438,24.935,1.5,4.63.5,13.464-1.837,18.295,0,0,17.16-10.646,18.318-21.341C1453.632,403.5,1452.624,391.972,1447.792,388.975Z" transform="translate(-1368.435 -342.862)" fill="#4a4e99"/>
    <g id="Grupo_12794" data-name="Grupo 12794" transform="translate(68.848 46.113)">
      <path id="Trazado_12324" data-name="Trazado 12324" d="M1453.351,422.682l-3.453,3.294-3.581-3.294v-5.888h7.034Z" transform="translate(-1441.255 -398.222)" fill="#f2af9e"/>
      <path id="Trazado_12325" data-name="Trazado 12325" d="M1454.931,404.161c-.6,2.62-4.274,7.576-7.579,7.576-2.84,0-7.41-4.123-7.608-6.841,0,0-.709-4.857-.812-6.489-.3-4.831,4.218-8.76,8.42-8.76h0c4.2,0,8.881,3.932,8.537,8.76A44.372,44.372,0,0,1,1454.931,404.161Z" transform="translate(-1438.918 -389.647)" fill="#f2af9e"/>
    </g>
    <g id="Grupo_12795" data-name="Grupo 12795" transform="translate(77.426 70.573)">
      <path id="Trazado_12326" data-name="Trazado 12326" d="M1454.975,425.4l7.732,3.3a3.452,3.452,0,0,1,1.062,2.078,70.984,70.984,0,0,1-2.571,27.579c-1.223,4.212,2.974,7.718,3.575,12.668l-13.316,1.7V449.182Z" transform="translate(-1451.457 -425.401)" fill="#122a67"/>
    </g>
    <g id="Grupo_12796" data-name="Grupo 12796" transform="translate(64.054 70.573)">
      <path id="Trazado_12327" data-name="Trazado 12327" d="M1441.708,425.4l-7.73,3.3a3.456,3.456,0,0,0-1.065,2.078,71.029,71.029,0,0,0,2.572,27.579c1.225,4.212-2.973,7.718-3.575,12.668l13.316,1.7V449.182Z" transform="translate(-1431.911 -425.401)" fill="#122a67"/>
    </g>
    <g id="Grupo_12800" data-name="Grupo 12800" transform="translate(52.233 115.051)">
      <g id="Grupo_12799" data-name="Grupo 12799" transform="translate(0 15.119)">
        <g id="Grupo_12797" data-name="Grupo 12797" transform="translate(9.239 3.006)">
          <path id="Trazado_12328" data-name="Trazado 12328" d="M1442.569,516.908s-1.31,23.373-1.778,37.854c-.04,1.249-2.551,3.067-3.917,0,0,0-2.733-13.912-2.733-19.48,0-5.823-.58-18.374-.58-18.374Z" transform="translate(-1429.85 -516.908)" fill="#f2af9e"/>
          <path id="Trazado_12329" data-name="Trazado 12329" d="M1439.1,571.1a4.325,4.325,0,0,1-.051,1.506,62.113,62.113,0,0,1-3.995,8.918c-.861,1.4-4.1,3.376-5.67,2.731-1.325-.543-1.649-2.938-.723-4.9s6.4-8.258,6.4-8.258Z" transform="translate(-1428.137 -534.026)" fill="#f2af9e"/>
          <path id="Trazado_12330" data-name="Trazado 12330" d="M1439.131,571.246h0a3.9,3.9,0,0,1-.061,1.407c-.546,1.644-2,4.937-3.031,7.129-.734,1.561-3.511,2.078-4.621,1.621-1.327-.543-1.652-2.936-.724-4.9.013-.029.031-.065.047-.1a21.432,21.432,0,0,0-2.059,3c-.926,1.959-.493,4.479.832,5.022a1.742,1.742,0,0,0,.552.112c1.616.47,4.495-1.242,5.8-3.271a44.942,44.942,0,0,0,3.552-7.982A2.764,2.764,0,0,0,1439.131,571.246Z" transform="translate(-1428.152 -534.072)" fill="#4a4e99"/>
        </g>
        <g id="Grupo_12798" data-name="Grupo 12798">
          <path id="Trazado_12331" data-name="Trazado 12331" d="M1429.066,512.514s-1.312,23.372-1.778,37.854c-.041,1.25-2.551,3.068-3.917,0,0,0-2.732-13.912-2.732-19.479,0-5.825-.58-18.375-.58-18.375Z" transform="translate(-1416.346 -512.514)" fill="#f2af9e"/>
          <path id="Trazado_12332" data-name="Trazado 12332" d="M1425.6,566.7a4.263,4.263,0,0,1-.048,1.507,61.784,61.784,0,0,1-3.995,8.915c-.862,1.4-4.1,3.377-5.672,2.733-1.322-.544-1.647-2.938-.722-4.9s6.4-8.259,6.4-8.259Z" transform="translate(-1414.632 -529.631)" fill="#f2af9e"/>
          <path id="Trazado_12333" data-name="Trazado 12333" d="M1425.627,566.852h0a3.947,3.947,0,0,1-.062,1.407c-.548,1.643-2,4.936-3.031,7.129-.735,1.559-3.511,2.076-4.624,1.617-1.323-.542-1.647-2.935-.721-4.893.014-.031.031-.067.048-.1a21.4,21.4,0,0,0-2.061,3c-.924,1.958-.492,4.477.834,5.022a1.692,1.692,0,0,0,.547.113c1.619.469,4.5-1.242,5.8-3.272a44.8,44.8,0,0,0,3.553-7.984A2.767,2.767,0,0,0,1425.627,566.852Z" transform="translate(-1414.648 -529.678)" fill="#4a4e99"/>
        </g>
      </g>
      <path id="Trazado_12334" data-name="Trazado 12334" d="M1454.232,490.415s4.164,14.328-5.682,14.328h-3.274c-4.884,0-7.016,1.987-7.016,5.63v7.364h-18.588V500.063c0-3.666,1.439-9.633,7.467-9.633Z" transform="translate(-1416.224 -490.415)" fill="#979cca"/>
    </g>
    <g id="Grupo_12801" data-name="Grupo 12801" transform="translate(71.674 70.035)">
      <path id="Trazado_12335" data-name="Trazado 12335" d="M1451.552,428.447s3.642-1.8,5.816-1.148a3,3,0,0,0-2.363-2.685v.538Z" transform="translate(-1445.735 -424.614)" fill="#fff"/>
      <path id="Trazado_12336" data-name="Trazado 12336" d="M1448.866,428.447s-3.644-1.8-5.817-1.148a2.806,2.806,0,0,1,2.236-2.685v.538Z" transform="translate(-1443.049 -424.614)" fill="#fff"/>
    </g>
    <g id="Grupo_12802" data-name="Grupo 12802" transform="translate(68.355 45.875)" style="mix-blend-mode: multiply;isolation: isolate">
      <path id="Trazado_12337" data-name="Trazado 12337" d="M1447.185,389.391a11.31,11.31,0,0,0-3.622,1.215,9.336,9.336,0,0,0-2.815,2.372,8.939,8.939,0,0,0-1.664,3.27,9.034,9.034,0,0,0-.3,1.858c-.018.323-.055.661-.05.967a3.451,3.451,0,0,0,.149.952,2.808,2.808,0,0,1-.438-.909,9.96,9.96,0,0,1-.178-.99,7.279,7.279,0,0,1,.016-2.043,7.937,7.937,0,0,1,1.647-3.763,8.156,8.156,0,0,1,3.287-2.455A7.366,7.366,0,0,1,1447.185,389.391Z" transform="translate(-1438.198 -389.298)" fill="#a09ea3"/>
    </g>
    <path id="Trazado_12338" data-name="Trazado 12338" d="M1447.459,389.434a8.53,8.53,0,0,0-8.657,8.914,3.767,3.767,0,0,0,.35,1.721,1.779,1.779,0,0,1,1.841,1.423s-1.39-5.4,1.355-6.425c1.677-.626,3.465,1.644,5.111,1.644,3.353,0,3.054-2.467,4.933-2.007,3,.735,1.531,6.788,1.531,6.788a1.783,1.783,0,0,1,1.843-1.423c.083-.7.147-1.315.172-1.728A8.285,8.285,0,0,0,1447.459,389.434Z" transform="translate(-1370.029 -343.467)" fill="#4a4e99"/>
    <g id="Grupo_12805" data-name="Grupo 12805" transform="translate(68.517 56.365)">
      <g id="Grupo_12803" data-name="Grupo 12803" transform="translate(15.135)">
        <path id="Trazado_12339" data-name="Trazado 12339" d="M1462.906,406.9c-.35,1.032-1.116,1.707-1.718,1.505s-.809-1.205-.46-2.238,1.114-1.706,1.717-1.5S1463.252,405.873,1462.906,406.9Z" transform="translate(-1460.558 -404.633)" fill="#f2af9e"/>
      </g>
      <g id="Grupo_12804" data-name="Grupo 12804">
        <path id="Trazado_12340" data-name="Trazado 12340" d="M1438.6,406.9c.348,1.032,1.118,1.707,1.718,1.505s.807-1.205.459-2.238-1.113-1.706-1.715-1.5S1438.256,405.873,1438.6,406.9Z" transform="translate(-1438.435 -404.633)" fill="#f2af9e"/>
      </g>
    </g>
    <g id="Grupo_12807" data-name="Grupo 12807" transform="translate(68.275 59.492)">
      <g id="Grupo_12806" data-name="Grupo 12806">
        <path id="Trazado_12341" data-name="Trazado 12341" d="M1462.187,415.526h-1.066l.532-3.161.533-3.162.533,3.162.533,3.161Z" transform="translate(-1445.359 -409.203)" fill="#979cca"/>
        <path id="Trazado_12342" data-name="Trazado 12342" d="M1439.147,415.526h-1.066l.533-3.161.532-3.162.532,3.162.533,3.161Z" transform="translate(-1438.081 -409.203)" fill="#979cca"/>
      </g>
    </g>
    <g id="Grupo_12809" data-name="Grupo 12809" transform="translate(81.846 74.026)">
      <path id="Trazado_12343" data-name="Trazado 12343" d="M1467.646,430.448s11.68,10.284,18.229,15.766l-5.9,4.538-10.421-6.969S1465.141,433.36,1467.646,430.448Z" transform="translate(-1460.747 -430.448)" fill="#122a67"/>
      <path id="Trazado_12344" data-name="Trazado 12344" d="M1491.923,453.493s3.2,4.538.7,8.914l-6.6-4.375Z" transform="translate(-1466.795 -437.727)" fill="#122a67"/>
      <g id="Grupo_12808" data-name="Grupo 12808" transform="translate(0 37.053)">
        <path id="Trazado_12345" data-name="Trazado 12345" d="M1468.78,485.074a35.687,35.687,0,0,0-10.4,2.362.736.736,0,0,0,.27,1.422.758.758,0,0,0,.269-.051,26.908,26.908,0,0,1,3.625-1.111,18.14,18.14,0,0,0-2.593,1.38.735.735,0,1,0,.818,1.221,17.717,17.717,0,0,1,2.9-1.519,8.334,8.334,0,0,0-1.854,1.96.736.736,0,0,0,.18,1.025.725.725,0,0,0,.419.135.738.738,0,0,0,.605-.315,6.77,6.77,0,0,1,1.56-1.638,8.225,8.225,0,0,0-.855,1.395.739.739,0,0,0,.358.978.756.756,0,0,0,.311.065.733.733,0,0,0,.666-.423,6.189,6.189,0,0,1,.632-1.015,7.827,7.827,0,0,1,2.724-2.035,2.983,2.983,0,0,0,1.425-1.318C1470.217,486.612,1469.181,485.042,1468.78,485.074Z" transform="translate(-1457.918 -484.755)" fill="#f2af9e"/>
        <path id="Trazado_12346" data-name="Trazado 12346" d="M1470.578,484.927a5.873,5.873,0,0,0-2.191-.293l.249.712s1.5-.135,1.988-.252Z" transform="translate(-1461.225 -484.609)" fill="#f2af9e"/>
      </g>
      <path id="Trazado_12347" data-name="Trazado 12347" d="M1481.253,460.127l-10.332,16.415s.735,3.624,3.37,4.413l13.565-16.453Z" transform="translate(-1462.025 -439.823)" fill="#122a67"/>
    </g>
    <g id="Grupo_12810" data-name="Grupo 12810">
      <rect id="Rectángulo_3038" data-name="Rectángulo 3038" width="1.569" height="69.773" transform="translate(33.542)" fill="#4a4e99"/>
      <path id="Trazado_12348" data-name="Trazado 12348" d="M1371.824,349.43l-33.542-13.124,33.542-13.126Z" transform="translate(-1338.283 -322.539)" fill="#b52426"/>
    </g>
  </g>
</svg>
