<svg xmlns="http://www.w3.org/2000/svg" xmlns:xlink="http://www.w3.org/1999/xlink" width="105.072" height="135.574" viewBox="0 0 105.072 135.574">
  <defs>
    <linearGradient id="linear-gradient" x1="1.476" y1="-0.239" x2="-5.298" y2="4.038" gradientUnits="objectBoundingBox">
      <stop offset="0" stop-color="#e11c28"/>
      <stop offset="1" stop-color="#e93a4d"/>
    </linearGradient>
    <linearGradient id="linear-gradient-2" x1="2.163" y1="0.18" x2="-17.941" y2="3.504" xlink:href="#linear-gradient"/>
    <linearGradient id="linear-gradient-3" x1="-0.129" y1="0.629" x2="2.791" y2="-0.003" xlink:href="#linear-gradient"/>
    <linearGradient id="linear-gradient-4" x1="-0.108" y1="0.553" x2="8.523" y2="0.026" xlink:href="#linear-gradient"/>
    <linearGradient id="linear-gradient-5" x1="19.691" y1="0.5" x2="20.691" y2="0.5" gradientUnits="objectBoundingBox">
      <stop offset="0" stop-color="#00025d"/>
      <stop offset="1" stop-color="#0f1491"/>
    </linearGradient>
    <linearGradient id="linear-gradient-6" x1="47.586" y1="0.5" x2="48.586" y2="0.5" gradientUnits="objectBoundingBox">
      <stop offset="0" stop-color="#fed8ba"/>
      <stop offset="1" stop-color="#ffba95"/>
    </linearGradient>
    <linearGradient id="linear-gradient-7" x1="15.623" y1="0.5" x2="16.623" y2="0.5" xlink:href="#linear-gradient-5"/>
    <linearGradient id="linear-gradient-8" x1="58.004" y1="0.5" x2="59.004" y2="0.5" xlink:href="#linear-gradient-6"/>
    <linearGradient id="linear-gradient-9" x1="7.688" y1="0.5" x2="8.688" y2="0.5" xlink:href="#linear-gradient-5"/>
    <linearGradient id="linear-gradient-10" y1="0.5" x2="1" y2="0.5" gradientUnits="objectBoundingBox">
      <stop offset="0" stop-color="#4f68ff"/>
      <stop offset="1" stop-color="#4056e2"/>
    </linearGradient>
    <linearGradient id="linear-gradient-11" x1="19.939" y1="0.5" x2="20.939" y2="0.5" xlink:href="#linear-gradient-6"/>
    <linearGradient id="linear-gradient-12" x1="1.416" y1="-2.107" x2="0.975" y2="-0.759" gradientUnits="objectBoundingBox">
      <stop offset="0" stop-color="#ffba95"/>
      <stop offset="1" stop-color="#fe4545"/>
    </linearGradient>
    <linearGradient id="linear-gradient-13" x1="20.846" y1="-1.665" x2="18.637" y2="1.59" xlink:href="#linear-gradient-6"/>
    <linearGradient id="linear-gradient-14" x1="21.136" y1="-0.671" x2="19.902" y2="2.857" xlink:href="#linear-gradient-6"/>
    <linearGradient id="linear-gradient-15" x1="22.861" y1="-1.142" x2="20.212" y2="2.815" xlink:href="#linear-gradient-6"/>
    <linearGradient id="linear-gradient-16" x1="45.847" y1="48.928" x2="44.629" y2="50.223" xlink:href="#linear-gradient-6"/>
    <linearGradient id="linear-gradient-17" x1="32.312" y1="32.239" x2="33.356" y2="32.239" xlink:href="#linear-gradient-5"/>
    <linearGradient id="linear-gradient-18" x1="119.635" y1="155.478" x2="122.337" y2="152.94" xlink:href="#linear-gradient-6"/>
    <linearGradient id="linear-gradient-19" x1="61.184" y1="38.782" x2="60.841" y2="43.191" gradientUnits="objectBoundingBox">
      <stop offset="0" stop-color="#50e795"/>
      <stop offset="0.996" stop-color="#324592"/>
    </linearGradient>
    <linearGradient id="linear-gradient-20" x1="0.839" y1="-1.385" x2="0.262" y2="1.824" xlink:href="#linear-gradient-10"/>
    <linearGradient id="linear-gradient-21" x1="61.184" y1="38.782" x2="60.841" y2="43.191" xlink:href="#linear-gradient-19"/>
    <linearGradient id="linear-gradient-22" x1="4.011" y1="-5.559" x2="2.766" y2="-3.41" xlink:href="#linear-gradient-12"/>
    <linearGradient id="linear-gradient-23" x1="4.132" y1="-5.767" x2="2.844" y2="-3.545" xlink:href="#linear-gradient-12"/>
    <linearGradient id="linear-gradient-24" x1="10.142" y1="-9.308" x2="6.731" y2="-5.841" xlink:href="#linear-gradient-12"/>
    <linearGradient id="linear-gradient-25" x1="2.164" y1="-2.371" x2="1.448" y2="-1.137" xlink:href="#linear-gradient-12"/>
    <linearGradient id="linear-gradient-26" x1="2.221" y1="-2.469" x2="1.481" y2="-1.193" xlink:href="#linear-gradient-12"/>
    <linearGradient id="linear-gradient-27" x1="5.08" y1="-4.163" x2="3.121" y2="-2.171" xlink:href="#linear-gradient-12"/>
    <linearGradient id="linear-gradient-28" x1="2.503" y1="-2.957" x2="1.808" y2="-1.758" xlink:href="#linear-gradient-12"/>
    <linearGradient id="linear-gradient-29" x1="2.572" y1="-3.076" x2="1.853" y2="-1.835" xlink:href="#linear-gradient-12"/>
    <linearGradient id="linear-gradient-30" x1="6.011" y1="-5.109" x2="4.107" y2="-3.173" xlink:href="#linear-gradient-12"/>
    <linearGradient id="linear-gradient-31" x1="2.611" y1="-3.142" x2="1.662" y2="-1.506" xlink:href="#linear-gradient-12"/>
    <linearGradient id="linear-gradient-32" x1="2.683" y1="-3.268" x2="1.702" y2="-1.575" xlink:href="#linear-gradient-12"/>
    <linearGradient id="linear-gradient-33" x1="6.305" y1="-5.408" x2="3.707" y2="-2.767" xlink:href="#linear-gradient-12"/>
  </defs>
  <g id="Grupo_55188" data-name="Grupo 55188" transform="translate(1261.809 384.287)">
    <g id="Grupo_55158" data-name="Grupo 55158" transform="translate(-1253.392 -311.059)">
      <path id="Trazado_104530" data-name="Trazado 104530" d="M-1184.58,22.919c-11.112,6.32-20.389,5.926-30.879.413a1.973,1.973,0,0,1-1.055-1.839l.021-.444a1.969,1.969,0,0,1,2.709-1.729c9.109,3.712,15.959,5.747,27.365.119a1.968,1.968,0,0,1,2.831,1.635h0A1.971,1.971,0,0,1-1184.58,22.919Z" transform="translate(1216.516 -17.427)" fill="url(#linear-gradient)"/>
      <path id="Trazado_104531" data-name="Trazado 104531" d="M-1077.38,20.393l6.135-8.694a.429.429,0,0,0-.3-.673L-1081.7,9.783a.5.5,0,0,0-.519.684,21.915,21.915,0,0,1,4.1,9.843A.427.427,0,0,0-1077.38,20.393Z" transform="translate(1107.211 -9.779)" fill="url(#linear-gradient-2)"/>
    </g>
    <g id="Grupo_55159" data-name="Grupo 55159" transform="translate(-1260.183 -380.699)">
      <path id="Trazado_104532" data-name="Trazado 104532" d="M-1235.319-358.7c11.187-6.91,20.737-6.851,31.725-1.575a2.029,2.029,0,0,1,1.153,1.851l-.005.457a2.025,2.025,0,0,1-2.72,1.879c-9.5-3.476-16.618-5.314-28.133.9a2.024,2.024,0,0,1-2.971-1.575h0A2.027,2.027,0,0,1-1235.319-358.7Z" transform="translate(1239.399 364.241)" fill="url(#linear-gradient-3)"/>
      <path id="Trazado_104533" data-name="Trazado 104533" d="M-1247-364.776l-5.982,9.165a.441.441,0,0,0,.331.68l10.491.9a.511.511,0,0,0,.508-.722,22.544,22.544,0,0,1-4.581-9.966A.439.439,0,0,0-1247-364.776Z" transform="translate(1253.059 364.975)" fill="url(#linear-gradient-4)"/>
    </g>
    <g id="Grupo_55187" data-name="Grupo 55187" transform="translate(-1261.809 -384.288)">
      <g id="Grupo_55162" data-name="Grupo 55162" transform="translate(48.226 41.283)">
        <g id="Grupo_55161" data-name="Grupo 55161">
          <path id="Trazado_104534" data-name="Trazado 104534" d="M-730.848,317.894s.718,1.133.9,4.3a.517.517,0,0,1-.513.547h-5.62a.331.331,0,0,1-.315-.436,8.994,8.994,0,0,1,3.547-4.709Z" transform="translate(785.821 -228.454)" fill="url(#linear-gradient-5)"/>
          <path id="Trazado_104535" data-name="Trazado 104535" d="M-716.636,306.323l-.318,2.665a.5.5,0,0,1-.438.44,4.437,4.437,0,0,1-1.188-.011.823.823,0,0,1-.679-.817v-2.573Z" transform="translate(771.854 -219.032)" fill="url(#linear-gradient-6)"/>
          <path id="Trazado_104536" data-name="Trazado 104536" d="M-821.127,317.6a7.848,7.848,0,0,1,1.053,3.967.993.993,0,0,1-1,.971H-829.8a.418.418,0,0,1-.24-.76A37.982,37.982,0,0,1-822.8,317.6Z" transform="translate(862.195 -228.454)" fill="url(#linear-gradient-7)"/>
          <path id="Trazado_104537" data-name="Trazado 104537" d="M-787.876,296.509l-.678,3.292a.679.679,0,0,1-.8.534,2.455,2.455,0,0,1-.767-.321.779.779,0,0,1-.348-.8l.7-3.988Z" transform="translate(829.843 -210.241)" fill="url(#linear-gradient-8)"/>
          <path id="Trazado_104538" data-name="Trazado 104538" d="M-777.155,55.827a9.451,9.451,0,0,1,2.8,4.579c.444,2.5-1.257,43.142-1.257,43.142s-2.357.392-3.572-.344c0,0-1.441-26.376-2.537-32.471,0,0-5.745,27.322-7.337,32.259,0,0-2.271.276-3-.156,0,0,1.505-35.417,3.4-41.713Z" transform="translate(831.127 -15.325)" fill="url(#linear-gradient-9)"/>
          <path id="Trazado_104539" data-name="Trazado 104539" d="M-737.083,106.339a.231.231,0,0,1-.06-.008.236.236,0,0,1-.169-.288l1-3.841a.237.237,0,0,1,.1-.14l2.163-1.388a.236.236,0,0,1,.327.072.236.236,0,0,1-.071.327l-2.086,1.338-.978,3.752A.236.236,0,0,1-737.083,106.339Z" transform="translate(786.558 -51.809)" fill="url(#linear-gradient-10)"/>
          <path id="Trazado_104540" data-name="Trazado 104540" d="M-876.423-74.907c9.924-.824,12.518,1.23,12.518,1.23l-4.769,7.529s-9.751-.193-16.738-5.578a17.055,17.055,0,0,0,2.8-4.176A13.141,13.141,0,0,0-876.423-74.907Z" transform="translate(907.132 91.926)" fill="red"/>
          <path id="Trazado_104541" data-name="Trazado 104541" d="M-922.173-150.213a.3.3,0,0,1,.579-.116l1.266,2.7a2.816,2.816,0,0,1,.225,1.675l-.444,1.573a2.715,2.715,0,0,0,.554,2.161,18.889,18.889,0,0,0,7.169,5.577,17.057,17.057,0,0,1-2.8,4.176,17.115,17.115,0,0,1-5.957-8.272,1.328,1.328,0,0,1-.937-1.32Z" transform="translate(937.341 152.664)" fill="url(#linear-gradient-11)"/>
          <path id="Trazado_104542" data-name="Trazado 104542" d="M-895.184-74.314c3.494-3.764,10.148-5.465,14-6.164a3.534,3.534,0,0,1,3.95,2.241c1.734,4.661,6.449,16.786,7.363,18.87.75,1.71,1.533,3.38,2.03,4.424a1.253,1.253,0,0,1-.585,1.67,91.668,91.668,0,0,1-11.439,4.02.811.811,0,0,1-1.038-.781,2.535,2.535,0,0,0-.361-1.3l-8.956-14.924c-5.582,6.189-10.47,6.755-14.225,5.4a28.234,28.234,0,0,0,1.243-5.865C-897.654-67.677-895.184-74.314-895.184-74.314Z" transform="translate(922.626 95.698)" fill="url(#linear-gradient-12)"/>
          <path id="Trazado_104543" data-name="Trazado 104543" d="M-955.5-22.351l1.813-1.06c3.241,2.226,6.7,3.573,8.917,3.193a28.238,28.238,0,0,1-1.243,5.865C-950.963-16.137-955.5-22.351-955.5-22.351Z" transform="translate(964.198 49.188)" fill="url(#linear-gradient-13)"/>
          <path id="Trazado_104544" data-name="Trazado 104544" d="M-1002.209-32.727a21.646,21.646,0,0,1,4.474-1.142s3.847-2.251,4.954-2.694c.92-.368,1.315,1.008,1.423,1.484.022.1.032.157.032.157l-.142.915-3.886,1.727a4.95,4.95,0,0,1-2.652.385l-4.149-.543a.156.156,0,0,1-.132-.125A.155.155,0,0,1-1002.209-32.727Z" transform="translate(1002.29 59.946)" fill="url(#linear-gradient-14)"/>
          <path id="Trazado_104545" data-name="Trazado 104545" d="M-828.292-117.43l2.976,7.262s-3.419,2.367-6.17,2.141l-1.485-6.53Z" transform="translate(864.436 125.736)" fill="url(#linear-gradient-15)"/>
          <g id="Grupo_55160" data-name="Grupo 55160" transform="translate(28.259)">
            <path id="Trazado_104546" data-name="Trazado 104546" d="M-844.274-145.94c-.068.1-2.153,7.628-2.153,7.628l4.326,1.1,3.036-6.845S-843.133-147.557-844.274-145.94Z" transform="translate(847.131 149.296)" fill="url(#linear-gradient-16)"/>
            <path id="Trazado_104547" data-name="Trazado 104547" d="M-843.779-155.85l-1.316,3.728a.548.548,0,0,1-.069.134c-.179.254-.857,1.082-1.662.336a4.965,4.965,0,0,0-2.032-1.394.552.552,0,0,0-.628.4,23.855,23.855,0,0,0-.727,3.633.551.551,0,0,0,.448.594,17.8,17.8,0,0,0,4.132.344.553.553,0,0,0,.465-.321c.412-.9,1.675-3.633,2.144-4.34.441-.664,1.522-.645,1.975-.6a.543.543,0,0,0,.407-.133,1.432,1.432,0,0,0,.09-2.3.553.553,0,0,1,.013-.8,1.434,1.434,0,0,0,.184-2.131,2.023,2.023,0,0,0-2.415-.578.553.553,0,0,1-.665-.246.437.437,0,0,0-.451-.211.544.544,0,0,1-.58-.558,1.649,1.649,0,0,0-1.273-1.721c-1.89-.588-3.068,1.237-3.185,2.6s1.968,1.883,3.194,1.791c.932-.07,1.624.854,1.9,1.3A.548.548,0,0,1-843.779-155.85Z" transform="translate(850.216 162.128)" fill="url(#linear-gradient-17)"/>
            <path id="Trazado_104548" data-name="Trazado 104548" d="M-814.164-115.243s.305-2.365,1.289-2.481,1.941.693.963,2.02C-813.128-114.052-814.164-115.243-814.164-115.243Z" transform="translate(820.863 125.984)" fill="url(#linear-gradient-18)"/>
          </g>
        </g>
      </g>
      <g id="Grupo_55177" data-name="Grupo 55177" transform="translate(0 34.415)">
        <g id="Grupo_55166" data-name="Grupo 55166" transform="translate(1.643 0)">
          <g id="Grupo_55165" data-name="Grupo 55165" transform="translate(0)">
            <rect id="Rectángulo_5576" data-name="Rectángulo 5576" width="67.797" height="31.819" transform="matrix(1, -0.003, 0.003, 1, 0, 0.218)" fill="#7daef4"/>
            <path id="Trazado_104549" data-name="Trazado 104549" d="M-1171.482-175.86l.058,18.087a2.907,2.907,0,0,0-2.661,3.025c0,.051.011.038.014.246l-54.723.176c0-.208,0-.2,0-.246a2.843,2.843,0,0,0-2.679-2.959c-.022,0-.057-.046-.057-.046l-.057-17.68c2.5-.008,2.732-1.7,2.727-3.309a.227.227,0,0,0-.016-.092l54.723-.176a.253.253,0,0,0-.013.092A2.789,2.789,0,0,0-1171.482-175.86Z" transform="translate(1235.557 182.598)" fill="#fff" opacity="0.5"/>
            <g id="Grupo_55164" data-name="Grupo 55164" transform="translate(20.398 2.29)">
              <circle id="Elipse_4149" data-name="Elipse 4149" cx="9.945" cy="9.945" r="9.945" transform="translate(0 17.179) rotate(-59.735)" fill="url(#linear-gradient-19)"/>
              <g id="Grupo_55163" data-name="Grupo 55163" transform="translate(9.296 6.283)">
                <path id="Trazado_104550" data-name="Trazado 104550" d="M-1089.856-138.926l0-1.052a8.578,8.578,0,0,1-2.953-.63.608.608,0,0,1-.338-.717l.264-.98a.613.613,0,0,1,.831-.4,7.116,7.116,0,0,0,2.726.565c1.056,0,1.842-.364,1.84-1.1,0-.662-.612-1.054-2.081-1.443-2.1-.566-3.6-1.474-3.608-3.317-.005-1.664,1.208-2.939,3.318-3.286l0-1.052a.613.613,0,0,1,.611-.615l.618,0a.613.613,0,0,1,.615.611l0,.944a7.818,7.818,0,0,1,2.34.413.61.61,0,0,1,.383.735l-.243.907a.611.611,0,0,1-.805.415,6.376,6.376,0,0,0-2.295-.409c-1.253,0-1.609.524-1.607.99,0,.573.755.964,2.385,1.46,2.329.69,3.3,1.654,3.3,3.389.005,1.593-1.172,3.028-3.461,3.394l0,1.177a.613.613,0,0,1-.611.615l-.618,0A.613.613,0,0,1-1089.856-138.926Z" transform="translate(1093.178 152.956)" fill="#fff"/>
              </g>
            </g>
          </g>
          <path id="Trazado_104551" data-name="Trazado 104551" d="M-1243-181.958a.135.135,0,0,1-.009-.049l-.02-6.135a.135.135,0,0,1,.135-.136l16.533-.053a.135.135,0,0,1,.136.135.135.135,0,0,1-.135.136l-16.4.053.02,6a.135.135,0,0,1-.135.136A.135.135,0,0,1-1243-181.958Z" transform="translate(1244.878 190.33)" fill="#fff"/>
          <path id="Trazado_104552" data-name="Trazado 104552" d="M-987.936-65.828a.132.132,0,0,1-.009-.049.135.135,0,0,1,.135-.136l16.4-.053-.02-6a.135.135,0,0,1,.135-.136.135.135,0,0,1,.136.135l.02,6.135a.136.136,0,0,1-.039.1.135.135,0,0,1-.1.04l-16.533.053A.135.135,0,0,1-987.936-65.828Z" transform="translate(1037.194 95.78)" fill="#fff"/>
        </g>
        <g id="Grupo_55170" data-name="Grupo 55170" transform="translate(0.785 0.807)">
          <g id="Grupo_55169" data-name="Grupo 55169" transform="translate(0 0)">
            <rect id="Rectángulo_5577" data-name="Rectángulo 5577" width="67.797" height="31.819" transform="matrix(1, -0.003, 0.003, 1, 0, 0.218)" fill="url(#linear-gradient-20)"/>
            <path id="Trazado_104553" data-name="Trazado 104553" d="M-1176.095-171.517l.058,18.087a2.907,2.907,0,0,0-2.661,3.025c0,.051.01.038.014.246l-54.724.176c0-.208,0-.195,0-.246a2.843,2.843,0,0,0-2.679-2.958c-.022,0-.057-.046-.057-.046l-.057-17.68c2.5-.008,2.732-1.7,2.727-3.309a.221.221,0,0,0-.016-.092l54.723-.176a.252.252,0,0,0-.013.092A2.79,2.79,0,0,0-1176.095-171.517Z" transform="translate(1240.17 178.255)" fill="#fff" opacity="0.5"/>
            <g id="Grupo_55168" data-name="Grupo 55168" transform="translate(20.396 2.288)">
              <circle id="Elipse_4150" data-name="Elipse 4150" cx="9.945" cy="9.945" r="9.945" transform="matrix(0.504, -0.863, 0.863, 0.504, 0, 17.174)" fill="url(#linear-gradient-21)"/>
              <g id="Grupo_55167" data-name="Grupo 55167" transform="translate(9.297 6.285)">
                <path id="Trazado_104554" data-name="Trazado 104554" d="M-1094.469-134.583l0-1.052a8.574,8.574,0,0,1-2.953-.63.608.608,0,0,1-.338-.717l.264-.98a.613.613,0,0,1,.831-.4,7.119,7.119,0,0,0,2.726.565c1.056,0,1.842-.364,1.84-1.1,0-.662-.612-1.054-2.08-1.443-2.1-.566-3.6-1.474-3.608-3.317-.005-1.664,1.208-2.939,3.318-3.286l0-1.052a.613.613,0,0,1,.611-.615l.618,0a.613.613,0,0,1,.615.611l0,.944a7.819,7.819,0,0,1,2.34.413.61.61,0,0,1,.383.735l-.243.907a.611.611,0,0,1-.805.415,6.377,6.377,0,0,0-2.295-.409c-1.253,0-1.609.524-1.608.99,0,.573.755.964,2.385,1.46,2.329.691,3.3,1.654,3.3,3.39.005,1.593-1.171,3.028-3.461,3.394l0,1.177a.613.613,0,0,1-.611.615l-.618,0A.613.613,0,0,1-1094.469-134.583Z" transform="translate(1097.791 148.613)" fill="#fff"/>
              </g>
            </g>
          </g>
          <path id="Trazado_104555" data-name="Trazado 104555" d="M-1247.616-177.616a.139.139,0,0,1-.009-.049l-.02-6.135a.135.135,0,0,1,.135-.136l16.533-.053a.135.135,0,0,1,.136.135.135.135,0,0,1-.135.136l-16.4.053.019,6a.135.135,0,0,1-.135.136A.136.136,0,0,1-1247.616-177.616Z" transform="translate(1249.492 185.987)" fill="#fff"/>
          <path id="Trazado_104556" data-name="Trazado 104556" d="M-992.549-61.485a.132.132,0,0,1-.009-.049.135.135,0,0,1,.135-.136l16.4-.053-.02-6a.135.135,0,0,1,.135-.136.134.134,0,0,1,.136.135l.02,6.135a.136.136,0,0,1-.039.1.136.136,0,0,1-.1.04l-16.533.053A.135.135,0,0,1-992.549-61.485Z" transform="translate(1041.807 91.437)" fill="#fff"/>
        </g>
        <g id="Grupo_55176" data-name="Grupo 55176" transform="translate(0 1.719)">
          <g id="Grupo_55174" data-name="Grupo 55174" transform="translate(0 0)">
            <g id="Grupo_55173" data-name="Grupo 55173">
              <rect id="Rectángulo_5578" data-name="Rectángulo 5578" width="67.797" height="31.819" transform="matrix(1, -0.005, 0.005, 1, 0, 0.345)" fill="#7daef4"/>
              <path id="Trazado_104557" data-name="Trazado 104557" d="M-1180.25-166.52l.092,18.087a2.9,2.9,0,0,0-2.671,3.014c0,.051,0,.023,0,.231l-54.723.278c0-.208,0-.18,0-.231a2.823,2.823,0,0,0-2.669-2.946c-.022,0-.042-.038-.042-.038l-.09-17.68c2.5-.013,2.713-1.717,2.7-3.329a.231.231,0,0,0-.032-.108l54.723-.278s0,.057,0,.108A2.816,2.816,0,0,0-1180.25-166.52Z" transform="translate(1244.338 173.296)" fill="#bddefb"/>
              <g id="Grupo_55172" data-name="Grupo 55172" transform="translate(19.934 1.921)">
                <circle id="Elipse_4151" data-name="Elipse 4151" cx="9.945" cy="9.945" r="9.945" transform="translate(0 14.064) rotate(-45)" fill="#7daef4"/>
                <g id="Grupo_55171" data-name="Grupo 55171" transform="translate(9.754 6.746)">
                  <path id="Trazado_104558" data-name="Trazado 104558" d="M-1098.707-129.168l-.005-1.052a8.573,8.573,0,0,1-2.954-.625.608.608,0,0,1-.34-.717l.262-.981a.613.613,0,0,1,.83-.405,7.122,7.122,0,0,0,2.727.56c1.056-.005,1.841-.367,1.838-1.1,0-.662-.614-1.053-2.083-1.439-2.1-.562-3.6-1.467-3.614-3.31-.008-1.664,1.2-2.941,3.312-3.292l-.005-1.052a.612.612,0,0,1,.609-.616l.618,0a.613.613,0,0,1,.616.61l0,.944a7.822,7.822,0,0,1,2.341.408.61.61,0,0,1,.385.734l-.241.907a.611.611,0,0,1-.8.417,6.382,6.382,0,0,0-2.3-.4c-1.253.006-1.608.527-1.606.992,0,.573.756.962,2.388,1.455,2.33.686,3.3,1.648,3.31,3.383.008,1.593-1.166,3.03-3.455,3.4l.006,1.177a.613.613,0,0,1-.609.616l-.618,0A.613.613,0,0,1-1098.707-129.168Z" transform="translate(1102.046 143.2)" fill="#fff"/>
                </g>
              </g>
            </g>
            <path id="Trazado_104559" data-name="Trazado 104559" d="M-1252.909-172.149a.135.135,0,0,1-.03-.084l-.031-6.135a.135.135,0,0,1,.039-.1.133.133,0,0,1,.1-.04l16.741-.085a.136.136,0,0,1,.136.135.135.135,0,0,1-.135.136l-16.606.085.031,6a.135.135,0,0,1-.135.136A.136.136,0,0,1-1252.909-172.149Z" transform="translate(1254.612 180.68)" fill="#bddefb"/>
            <path id="Trazado_104560" data-name="Trazado 104560" d="M-996.456-56.494a.135.135,0,0,1-.03-.084.135.135,0,0,1,.135-.136l16.4-.083-.031-6a.135.135,0,0,1,.135-.136.136.136,0,0,1,.136.135l.031,6.135a.135.135,0,0,1-.039.1.135.135,0,0,1-.1.04l-16.533.084A.135.135,0,0,1-996.456-56.494Z" transform="translate(1045.79 86.516)" fill="#bddefb"/>
          </g>
          <g id="Grupo_55175" data-name="Grupo 55175" transform="translate(10.874 13.522)">
            <path id="Trazado_104561" data-name="Trazado 104561" d="M-1197.657-110.665a2.817,2.817,0,0,1-2.8,2.831,2.817,2.817,0,0,1-2.831-2.8,2.817,2.817,0,0,1,2.8-2.831A2.817,2.817,0,0,1-1197.657-110.665Z" transform="translate(1203.291 114.137)" fill="#7daef4"/>
            <circle id="Elipse_4152" data-name="Elipse 4152" cx="2.817" cy="2.817" r="2.817" transform="translate(41.927 5.545) rotate(-79.788)" fill="#7daef4"/>
          </g>
        </g>
      </g>
      <g id="Grupo_55186" data-name="Grupo 55186" transform="translate(18.254 0)">
        <g id="Grupo_55179" data-name="Grupo 55179" transform="translate(0 13.416)">
          <circle id="Elipse_4153" data-name="Elipse 4153" cx="5.921" cy="5.921" r="5.921" transform="translate(0 9.957) rotate(-57.222)" fill="url(#linear-gradient-22)"/>
          <circle id="Elipse_4154" data-name="Elipse 4154" cx="5.724" cy="5.724" r="5.724" transform="translate(0.705 5.086) rotate(-22.5)" fill="url(#linear-gradient-23)"/>
          <path id="Trazado_104562" data-name="Trazado 104562" d="M-1145.914-294.333a.223.223,0,0,1-.1-.024.222.222,0,0,1-.1-.3,5.483,5.483,0,0,1,4.919-3.028,5.563,5.563,0,0,1,.993.089.223.223,0,0,1,.179.259.222.222,0,0,1-.259.179,5.109,5.109,0,0,0-.913-.082,5.041,5.041,0,0,0-4.522,2.784A.222.222,0,0,1-1145.914-294.333Z" transform="translate(1149.377 300.362)" fill="#fff" opacity="0.5"/>
          <circle id="Elipse_4155" data-name="Elipse 4155" cx="4.845" cy="4.845" r="4.845" transform="translate(1.457 8.309) rotate(-45)" fill="#fff" opacity="0.78"/>
          <g id="Grupo_55178" data-name="Grupo 55178" transform="translate(6.175 4.88)">
            <path id="Trazado_104563" data-name="Trazado 104563" d="M-1128.691-278.8v-.527a4.294,4.294,0,0,1-1.479-.321.3.3,0,0,1-.169-.36l.134-.491a.308.308,0,0,1,.417-.2,3.568,3.568,0,0,0,1.365.288c.529,0,.924-.18.924-.547,0-.332-.305-.529-1.041-.727-1.05-.287-1.8-.745-1.8-1.669,0-.834.61-1.471,1.668-1.642v-.527a.307.307,0,0,1,.307-.307h.31a.307.307,0,0,1,.307.307v.474a3.919,3.919,0,0,1,1.172.21.306.306,0,0,1,.191.369l-.123.454a.306.306,0,0,1-.4.207,3.2,3.2,0,0,0-1.15-.209c-.628,0-.807.26-.807.493,0,.287.377.484,1.193.736,1.166.35,1.651.834,1.651,1.7a1.8,1.8,0,0,1-1.74,1.7v.59a.307.307,0,0,1-.307.307h-.31A.307.307,0,0,1-1128.691-278.8Z" transform="translate(1130.35 285.832)" fill="url(#linear-gradient-24)"/>
          </g>
        </g>
        <g id="Grupo_55181" data-name="Grupo 55181" transform="translate(10.462)">
          <circle id="Elipse_4156" data-name="Elipse 4156" cx="10.308" cy="10.308" r="10.308" transform="translate(0 14.578) rotate(-45)" fill="url(#linear-gradient-25)"/>
          <circle id="Elipse_4157" data-name="Elipse 4157" cx="9.965" cy="9.965" r="9.965" transform="matrix(0.23, -0.973, 0.973, 0.23, 2.59, 21.987)" fill="url(#linear-gradient-26)"/>
          <path id="Trazado_104564" data-name="Trazado 104564" d="M-1074.027-351.035a.22.22,0,0,1-.1-.024.222.222,0,0,1-.1-.3,9.382,9.382,0,0,1,8.416-5.182,9.525,9.525,0,0,1,1.7.153.222.222,0,0,1,.179.259.223.223,0,0,1-.259.179,9.049,9.049,0,0,0-1.62-.146,8.939,8.939,0,0,0-8.019,4.937A.222.222,0,0,1-1074.027-351.035Z" transform="translate(1080.388 361.695)" fill="#fff" opacity="0.5"/>
          <circle id="Elipse_4158" data-name="Elipse 4158" cx="8.434" cy="8.434" r="8.434" transform="translate(4.648 8.524) rotate(-13.283)" fill="#fff" opacity="0.78"/>
          <g id="Grupo_55180" data-name="Grupo 55180" transform="translate(11.08 8.826)">
            <path id="Trazado_104565" data-name="Trazado 104565" d="M-1044.769-324.554v-.918a7.483,7.483,0,0,1-2.575-.558.531.531,0,0,1-.293-.627l.233-.855a.535.535,0,0,1,.726-.35,6.211,6.211,0,0,0,2.377.5c.921,0,1.609-.312,1.609-.953,0-.578-.531-.921-1.812-1.265-1.827-.5-3.139-1.3-3.139-2.9,0-1.452,1.062-2.561,2.9-2.858v-.918a.535.535,0,0,1,.535-.535h.539a.535.535,0,0,1,.535.535v.824a6.818,6.818,0,0,1,2.041.366.532.532,0,0,1,.333.642l-.214.79a.533.533,0,0,1-.7.36,5.566,5.566,0,0,0-2-.363c-1.093,0-1.405.453-1.405.859,0,.5.656.843,2.077,1.281,2.03.609,2.873,1.452,2.873,2.967,0,1.39-1.031,2.639-3.03,2.952v1.027a.535.535,0,0,1-.535.535h-.539A.535.535,0,0,1-1044.769-324.554Z" transform="translate(1047.656 336.794)" fill="url(#linear-gradient-27)"/>
          </g>
        </g>
        <g id="Grupo_55183" data-name="Grupo 55183" transform="translate(17.88 23.333)">
          <circle id="Elipse_4159" data-name="Elipse 4159" cx="10.607" cy="10.607" r="10.607" transform="matrix(0.282, -0.959, 0.959, 0.282, 1.103, 21.457)" fill="url(#linear-gradient-28)"/>
          <circle id="Elipse_4160" data-name="Elipse 4160" cx="10.254" cy="10.254" r="10.254" transform="matrix(0.57, -0.822, 0.822, 0.57, 0, 16.856)" fill="url(#linear-gradient-29)"/>
          <path id="Trazado_104566" data-name="Trazado 104566" d="M-1037.053-228.424a.219.219,0,0,1-.1-.024.222.222,0,0,1-.1-.3,9.648,9.648,0,0,1,8.654-5.328,9.78,9.78,0,0,1,1.748.157.223.223,0,0,1,.179.259.223.223,0,0,1-.259.179,9.34,9.34,0,0,0-1.668-.15,9.205,9.205,0,0,0-8.257,5.084A.222.222,0,0,1-1037.053-228.424Z" transform="translate(1042.866 238.656)" fill="#fff" opacity="0.5"/>
          <circle id="Elipse_4161" data-name="Elipse 4161" cx="8.679" cy="8.679" r="8.679" transform="translate(4.052 20.945) rotate(-76.717)" fill="#fff" opacity="0.78"/>
          <g id="Grupo_55182" data-name="Grupo 55182" transform="translate(10.67 8.35)">
            <path id="Trazado_104567" data-name="Trazado 104567" d="M-1006.974-201.2v-.944a7.706,7.706,0,0,1-2.65-.574.546.546,0,0,1-.3-.645l.24-.88a.55.55,0,0,1,.747-.36,6.4,6.4,0,0,0,2.446.515c.948,0,1.655-.321,1.655-.98,0-.594-.546-.948-1.864-1.3-1.88-.514-3.23-1.334-3.23-2.989,0-1.495,1.093-2.635,2.989-2.941v-.944a.55.55,0,0,1,.55-.55h.555a.55.55,0,0,1,.55.55v.848a7.026,7.026,0,0,1,2.1.377.548.548,0,0,1,.342.661l-.221.813a.548.548,0,0,1-.724.371,5.728,5.728,0,0,0-2.06-.374c-1.125,0-1.446.466-1.446.884,0,.514.675.868,2.137,1.318,2.089.627,2.957,1.494,2.957,3.053,0,1.43-1.06,2.716-3.117,3.037v1.057a.55.55,0,0,1-.55.55h-.555A.55.55,0,0,1-1006.974-201.2Z" transform="translate(1009.945 213.792)" fill="url(#linear-gradient-30)"/>
          </g>
        </g>
        <g id="Grupo_55185" data-name="Grupo 55185" transform="translate(35.233 12.63)">
          <circle id="Elipse_4162" data-name="Elipse 4162" cx="7.772" cy="7.772" r="7.772" transform="translate(2.373 3.148) rotate(-2.855)" fill="url(#linear-gradient-31)"/>
          <circle id="Elipse_4163" data-name="Elipse 4163" cx="7.513" cy="7.513" r="7.513" transform="matrix(0.602, -0.798, 0.798, 0.602, 0, 11.996)" fill="url(#linear-gradient-32)"/>
          <path id="Trazado_104568" data-name="Trazado 104568" d="M-951.664-293.954a.22.22,0,0,1-.1-.024.222.222,0,0,1-.1-.3,7.127,7.127,0,0,1,6.394-3.937,7.216,7.216,0,0,1,1.291.116.222.222,0,0,1,.179.258.222.222,0,0,1-.259.179,6.771,6.771,0,0,0-1.211-.109,6.685,6.685,0,0,0-6,3.692A.223.223,0,0,1-951.664-293.954Z" transform="translate(955.991 301.578)" fill="#fff" opacity="0.5"/>
          <circle id="Elipse_4164" data-name="Elipse 4164" cx="6.359" cy="6.359" r="6.359" transform="translate(3.036 5.958) rotate(-13.283)" fill="#fff" opacity="0.78"/>
          <g id="Grupo_55184" data-name="Grupo 55184" transform="translate(7.886 6.186)">
            <path id="Trazado_104569" data-name="Trazado 104569" d="M-929.365-273.8v-.692a5.646,5.646,0,0,1-1.941-.421.4.4,0,0,1-.221-.473l.176-.644a.4.4,0,0,1,.548-.264,4.684,4.684,0,0,0,1.792.377c.695,0,1.213-.235,1.213-.718,0-.436-.4-.695-1.366-.953-1.378-.377-2.367-.977-2.367-2.19,0-1.1.8-1.931,2.19-2.155v-.692a.4.4,0,0,1,.4-.4h.406a.4.4,0,0,1,.4.4v.621a5.142,5.142,0,0,1,1.539.276.4.4,0,0,1,.251.484l-.162.6a.4.4,0,0,1-.531.272,4.194,4.194,0,0,0-1.509-.274c-.824,0-1.06.341-1.06.648,0,.377.494.636,1.566.965,1.53.459,2.166,1.095,2.166,2.237a2.359,2.359,0,0,1-2.284,2.225v.774a.4.4,0,0,1-.4.4h-.407A.4.4,0,0,1-929.365-273.8Z" transform="translate(931.542 283.031)" fill="url(#linear-gradient-33)"/>
          </g>
        </g>
      </g>
    </g>
  </g>
</svg>
