<svg xmlns="http://www.w3.org/2000/svg" xmlns:xlink="http://www.w3.org/1999/xlink" width="75.842" height="77.387" viewBox="0 0 75.842 77.387">
  <defs>
    <linearGradient id="linear-gradient" x1="1.13" y1="1.295" x2="0.236" y2="0.19" gradientUnits="objectBoundingBox">
      <stop offset="0" stop-color="#daeffe"/>
      <stop offset="1" stop-color="#e9f6fd"/>
    </linearGradient>
    <linearGradient id="linear-gradient-2" x1="0.608" y1="-0.052" x2="0.511" y2="0.837" gradientUnits="objectBoundingBox">
      <stop offset="0" stop-color="#00145d"/>
      <stop offset="1" stop-color="#0f2c91"/>
    </linearGradient>
    <linearGradient id="linear-gradient-3" x1="-4.413" y1="5.57" x2="-5.376" y2="7.169" xlink:href="#linear-gradient-2"/>
    <linearGradient id="linear-gradient-4" x1="-5.392" y1="7.957" x2="-4.664" y2="6.451" gradientUnits="objectBoundingBox">
      <stop offset="0" stop-color="#4f73ff"/>
      <stop offset="1" stop-color="#4061e2"/>
    </linearGradient>
    <linearGradient id="linear-gradient-5" x1="3.292" y1="-1.237" x2="-0.152" y2="0.937" gradientUnits="objectBoundingBox">
      <stop offset="0" stop-color="#e12321"/>
      <stop offset="1" stop-color="#e92b23"/>
    </linearGradient>
    <linearGradient id="linear-gradient-6" x1="1.557" y1="-0.822" x2="0.373" y2="0.664" xlink:href="#linear-gradient-5"/>
    <linearGradient id="linear-gradient-7" x1="0.291" y1="-1.955" x2="0.473" y2="0.159" gradientUnits="objectBoundingBox">
      <stop offset="0" stop-color="#4f93ff"/>
      <stop offset="1" stop-color="#407ee2"/>
    </linearGradient>
    <linearGradient id="linear-gradient-8" x1="0.298" y1="-1.913" x2="0.476" y2="0.201" xlink:href="#linear-gradient-7"/>
    <linearGradient id="linear-gradient-9" x1="0.302" y1="-1.87" x2="0.479" y2="0.243" xlink:href="#linear-gradient-7"/>
    <linearGradient id="linear-gradient-10" x1="0.305" y1="-1.832" x2="0.483" y2="0.28" xlink:href="#linear-gradient-7"/>
    <linearGradient id="linear-gradient-11" x1="2.088" y1="-3.569" x2="-0.216" y2="2.331" gradientUnits="objectBoundingBox">
      <stop offset="0" stop-color="#ffb47f"/>
      <stop offset="1" stop-color="#fe332f"/>
    </linearGradient>
    <linearGradient id="linear-gradient-12" x1="1.535" y1="-2.088" x2="0.172" y2="1.316" xlink:href="#linear-gradient-11"/>
    <linearGradient id="linear-gradient-13" x1="50.447" y1="0.238" x2="49.612" y2="0.678" gradientUnits="objectBoundingBox">
      <stop offset="0" stop-color="#fed8ba"/>
      <stop offset="1" stop-color="#ffb47f"/>
    </linearGradient>
    <linearGradient id="linear-gradient-14" x1="-198.441" y1="-103.228" x2="-198.631" y2="-99.508" xlink:href="#linear-gradient-4"/>
    <linearGradient id="linear-gradient-15" x1="60.068" y1="0.225" x2="63.472" y2="-1.251" xlink:href="#linear-gradient-13"/>
    <linearGradient id="linear-gradient-16" x1="-205.912" y1="-119.039" x2="-206.133" y2="-115.931" xlink:href="#linear-gradient-4"/>
    <linearGradient id="linear-gradient-17" x1="28.824" y1="-0.845" x2="28.195" y2="0.879" xlink:href="#linear-gradient-5"/>
    <linearGradient id="linear-gradient-18" x1="-115.589" y1="-20.735" x2="-115.271" y2="-19.989" gradientUnits="objectBoundingBox">
      <stop offset="0" stop-color="#00095d"/>
      <stop offset="1" stop-color="#0f1c91"/>
    </linearGradient>
    <linearGradient id="linear-gradient-19" x1="64.599" y1="0.088" x2="62.063" y2="2.712" xlink:href="#linear-gradient-5"/>
    <linearGradient id="linear-gradient-20" x1="-86.754" y1="0.5" x2="-85.754" y2="0.5" xlink:href="#linear-gradient-13"/>
    <linearGradient id="linear-gradient-21" x1="2.619" y1="-2.284" x2="-0.673" y2="2.227" xlink:href="#linear-gradient-13"/>
    <linearGradient id="linear-gradient-22" x1="-244.105" y1="-121.35" x2="-242.537" y2="-123.626" xlink:href="#linear-gradient-13"/>
    <linearGradient id="linear-gradient-23" x1="-158.116" y1="-171.366" x2="-157.608" y2="-169.132" xlink:href="#linear-gradient-18"/>
    <linearGradient id="linear-gradient-24" x1="-996.736" y1="-396.856" x2="-990.33" y2="-404.302" xlink:href="#linear-gradient-13"/>
    <linearGradient id="linear-gradient-25" x1="-123.403" y1="-50.51" x2="-124.143" y2="-48.073" xlink:href="#linear-gradient-18"/>
    <linearGradient id="linear-gradient-26" x1="-59.936" y1="0.565" x2="-54.861" y2="-0.107" xlink:href="#linear-gradient-18"/>
    <linearGradient id="linear-gradient-27" x1="2.722" y1="1.549" x2="3.393" y2="0.771" xlink:href="#linear-gradient-5"/>
    <linearGradient id="linear-gradient-28" x1="1.016" y1="-0.871" x2="0.172" y2="1.371" xlink:href="#linear-gradient-11"/>
    <linearGradient id="linear-gradient-29" x1="1.213" y1="-1.125" x2="0.469" y2="0.561" xlink:href="#linear-gradient-11"/>
    <linearGradient id="linear-gradient-30" x1="1.795" y1="1.471" x2="2.465" y2="0.692" xlink:href="#linear-gradient-5"/>
    <linearGradient id="linear-gradient-31" x1="0.932" y1="-0.423" x2="0.276" y2="0.98" xlink:href="#linear-gradient-11"/>
    <linearGradient id="linear-gradient-32" x1="2.565" y1="5.609" x2="3.922" y2="3.629" xlink:href="#linear-gradient-11"/>
    <linearGradient id="linear-gradient-33" x1="3.041" y1="1.559" x2="3.712" y2="0.781" xlink:href="#linear-gradient-5"/>
    <linearGradient id="linear-gradient-34" x1="1.162" y1="-1.078" x2="0.139" y2="1.361" xlink:href="#linear-gradient-11"/>
    <linearGradient id="linear-gradient-35" x1="6.748" y1="6.258" x2="7.46" y2="4.75" xlink:href="#linear-gradient-11"/>
    <linearGradient id="linear-gradient-36" x1="2.282" y1="1.496" x2="2.953" y2="0.718" xlink:href="#linear-gradient-5"/>
    <linearGradient id="linear-gradient-37" x1="0.715" y1="-0.554" x2="0.372" y2="1.13" xlink:href="#linear-gradient-11"/>
    <linearGradient id="linear-gradient-38" x1="1.459" y1="-1.612" x2="0.47" y2="0.558" xlink:href="#linear-gradient-11"/>
  </defs>
  <g id="Grupo_55078" data-name="Grupo 55078" transform="translate(-7004.602 -381.684)">
    <path id="Trazado_104343" data-name="Trazado 104343" d="M7071.652,447.163a27.44,27.44,0,0,1-4.2,3.532c-13.685,9.819-29.878,6.957-33.32,6.258-5.083-1.032-14.906-3.027-22.008-11.379-10.745-12.636-9.072-32.544-.737-45.685,1.524-2.4,9.578-15.745,25.945-17.885,9.905-1.295,21.452,1.317,29.814,8.322C7084.7,405.032,7083.454,434.739,7071.652,447.163Z" transform="translate(0 0)" fill="url(#linear-gradient)"/>
    <g id="Grupo_55084" data-name="Grupo 55084" transform="translate(7007.098 408.513)">
      <path id="Trazado_104344" data-name="Trazado 104344" d="M9134.826,1460.7c-.986-10.029-3.453-34.938-3.992-38.579-.678-4.576-6.24-3.566-6.24-3.566l-1.19,46.306h7.755a3.639,3.639,0,0,0,2.734-1.247A3.837,3.837,0,0,0,9134.826,1460.7Z" transform="translate(-9067.34 -1416.637)" fill="url(#linear-gradient-2)"/>
      <path id="Trazado_104345" data-name="Trazado 104345" d="M7115.525,1467.083a4.406,4.406,0,0,1-4.292-4.514l.791-37.593a3.881,3.881,0,0,1,3.749-3.811l54.123-1.619a2.86,2.86,0,0,1,2.934,2.88l-.13,43.1a2.715,2.715,0,0,1-2.762,2.718Z" transform="translate(-7110.782 -1417.688)" fill="url(#linear-gradient-3)"/>
      <g id="Grupo_55078-2" data-name="Grupo 55078" transform="translate(0 4.406)">
        <path id="Trazado_104346" data-name="Trazado 104346" d="M7096.186,1553.619a1.281,1.281,0,0,1-1.24-1.484c.8-5.119,3.306-22.726,2.5-37.346a1.184,1.184,0,0,1,1.138-1.255l54.367-1.748a1.361,1.361,0,0,1,1.4,1.314c.23,6.146,1.092,31.457-.035,40.454a1.076,1.076,0,0,1-1.083.946Z" transform="translate(-7094.93 -1511.785)" fill="url(#linear-gradient-4)"/>
        <path id="Trazado_104347" data-name="Trazado 104347" d="M7147.547,1588.212a1.233,1.233,0,0,1-1.193-1.428c.769-4.926,3.182-21.871,2.408-35.94a1.139,1.139,0,0,1,1.095-1.208l52.319-1.683a1.309,1.309,0,0,1,1.346,1.265c.223,5.915,1.051,30.272-.033,38.931a1.036,1.036,0,0,1-1.042.91Z" transform="translate(-7144.918 -1546.954)" fill="#bde5fb"/>
      </g>
      <path id="Trazado_104348" data-name="Trazado 104348" d="M8350.72,1890.4l-.079,3.8a1.033,1.033,0,0,0,1.023,1.061l3.865.022a1.034,1.034,0,0,0,1.035-1.016l.084-3.994a1.034,1.034,0,0,0-1.076-1.06l-3.868.173A1.035,1.035,0,0,0,8350.72,1890.4Z" transform="translate(-8315.936 -1874.378)" fill="#fff" opacity="0.72"/>
      <path id="Trazado_104349" data-name="Trazado 104349" d="M7828.593,1915.108l3.865.022a1.034,1.034,0,0,0,1.036-1.017l.071-3.4a1.034,1.034,0,0,0-1.067-1.06l-3.868.14a1.035,1.035,0,0,0-.993,1.016l-.068,3.235A1.035,1.035,0,0,0,7828.593,1915.108Z" transform="translate(-7807.319 -1894.253)" fill="#fff" opacity="0.72"/>
      <path id="Trazado_104350" data-name="Trazado 104350" d="M7815.3,2717.835l-3.676-.036a1.129,1.129,0,0,0-1.135,1.109l-.072,3.471a1.128,1.128,0,0,0,1.076,1.156l3.674.157a1.128,1.128,0,0,0,1.172-1.108l.075-3.591A1.129,1.129,0,0,0,7815.3,2717.835Z" transform="translate(-7790.646 -2680.061)" fill="#fff" opacity="0.72"/>
      <path id="Trazado_104351" data-name="Trazado 104351" d="M7555.013,2719.8l.072-3.394a1.11,1.11,0,0,0-1.094-1.138l-3.715-.036a1.11,1.11,0,0,0-1.116,1.09l-.069,3.271a1.11,1.11,0,0,0,1.058,1.136l3.712.158A1.108,1.108,0,0,0,7555.013,2719.8Z" transform="translate(-7536.538 -2677.568)" fill="#fff" opacity="0.72"/>
      <path id="Trazado_104352" data-name="Trazado 104352" d="M7566.647,2185.1l.059-2.786a1.194,1.194,0,0,0-1.191-1.224l-3.547.006a1.194,1.194,0,0,0-1.187,1.173l-.057,2.662a1.2,1.2,0,0,0,1.15,1.224l3.545.117A1.193,1.193,0,0,0,7566.647,2185.1Z" transform="translate(-7547.851 -2158.19)" fill="#fff" opacity="0.72"/>
      <path id="Trazado_104353" data-name="Trazado 104353" d="M7560.4,2424.943l.089-4.261a1.11,1.11,0,0,0-1.068-1.137l-3.628-.12a1.193,1.193,0,0,0-1.228,1.172l-.091,4.3a1.11,1.11,0,0,0,1.1,1.138h3.716A1.109,1.109,0,0,0,7560.4,2424.943Z" transform="translate(-7541.77 -2389.933)" fill="#fff" opacity="0.72"/>
      <path id="Trazado_104354" data-name="Trazado 104354" d="M8090.11,1905.933l3.864.022a1.035,1.035,0,0,0,1.036-1.017l.078-3.7a1.035,1.035,0,0,0-1.067-1.06l-3.868.14a1.035,1.035,0,0,0-.993,1.016l-.074,3.538A1.035,1.035,0,0,0,8090.11,1905.933Z" transform="translate(-8061.608 -1885.037)" fill="#fff" opacity="0.72"/>
      <path id="Trazado_104355" data-name="Trazado 104355" d="M7821.959,2433.234l.084-3.985a1.129,1.129,0,0,0-1.087-1.157l-3.675-.121a1.129,1.129,0,0,0-1.161,1.109l-.086,4.106a1.128,1.128,0,0,0,1.124,1.157h3.677A1.128,1.128,0,0,0,7821.959,2433.234Z" transform="translate(-7796.104 -2398.243)" fill="#fff" opacity="0.72"/>
      <path id="Trazado_104356" data-name="Trazado 104356" d="M8088.358,2180.12l-4.221.008a.856.856,0,0,0-.851.841l-.081,3.832a.856.856,0,0,0,.824.877l4.218.139a.856.856,0,0,0,.88-.841l.083-3.979A.856.856,0,0,0,8088.358,2180.12Z" transform="translate(-8055.892 -2157.242)" fill="#fff" opacity="0.72"/>
      <path id="Trazado_104357" data-name="Trazado 104357" d="M8344.813,2180.721l-.076,3.65a1.075,1.075,0,0,0,1.035,1.1l3.78.125a1.074,1.074,0,0,0,1.106-1.057l.08-3.781a1.078,1.078,0,0,0-1.074-1.1l-3.782.007A1.075,1.075,0,0,0,8344.813,2180.721Z" transform="translate(-8310.193 -2156.792)" fill="#fff" opacity="0.72"/>
      <path id="Trazado_104358" data-name="Trazado 104358" d="M7822.665,2185.9l4.218.139a.856.856,0,0,0,.88-.841l.079-3.728a.857.857,0,0,0-.854-.878l-4.221.008a.856.856,0,0,0-.851.841l-.075,3.581A.857.857,0,0,0,7822.665,2185.9Z" transform="translate(-7801.75 -2157.705)" fill="#fff" opacity="0.72"/>
      <path id="Trazado_104359" data-name="Trazado 104359" d="M8082.5,2436.717l-3.675-.121a1.129,1.129,0,0,0-1.161,1.109l-.081,3.868a1.129,1.129,0,0,0,1.124,1.157h3.677a1.129,1.129,0,0,0,1.124-1.11l.079-3.747A1.13,1.13,0,0,0,8082.5,2436.717Z" transform="translate(-8050.423 -2406.628)" fill="#fff" opacity="0.72"/>
      <path id="Trazado_104360" data-name="Trazado 104360" d="M8344.071,2445.2l-3.933-.13a1,1,0,0,0-1.027.982l-.082,3.894a1,1,0,0,0,1,1.025h3.935a1,1,0,0,0,1-.982l.078-3.765A1,1,0,0,0,8344.071,2445.2Z" transform="translate(-8304.645 -2414.866)" fill="#fff" opacity="0.72"/>
      <path id="Trazado_104361" data-name="Trazado 104361" d="M7568.051,1922.783l2.933.017a1.434,1.434,0,0,0,1.437-1.409l.051-2.44a1.277,1.277,0,0,0-1.317-1.309l-3.265.118a1.4,1.4,0,0,0-1.348,1.379l-.043,2.037A1.568,1.568,0,0,0,7568.051,1922.783Z" transform="translate(-7553.465 -1902.017)" fill="#fff" opacity="0.72"/>
      <path id="Trazado_104362" data-name="Trazado 104362" d="M7353.549,2714.745a1.194,1.194,0,0,0-1.177-1.224l-1.278-.013a1.647,1.647,0,0,0-1.782,1.453l-.05,2.358a1.645,1.645,0,0,0,1.7,1.527l1.372.058a1.108,1.108,0,0,0,1.151-1.089Z" transform="translate(-7342.232 -2675.889)" fill="#fff" opacity="0.72"/>
      <path id="Trazado_104363" data-name="Trazado 104363" d="M8859.413,2728.052l-2.513-.024a1.13,1.13,0,0,0-1.137,1.11l-.092,4.419a1.129,1.129,0,0,0,1.076,1.157l2.5.107a1.659,1.659,0,0,0,1.852-1.451l.08-3.79A1.657,1.657,0,0,0,8859.413,2728.052Z" transform="translate(-8807.008 -2690.006)" fill="#fff" opacity="0.72"/>
      <path id="Trazado_104364" data-name="Trazado 104364" d="M7356.274,2420.285h1.247a1.194,1.194,0,0,0,1.189-1.173l.091-4.332a1.2,1.2,0,0,0-1.15-1.223l-1.255-.042a1.657,1.657,0,0,0-1.832,1.451l-.079,3.79A1.661,1.661,0,0,0,7356.274,2420.285Z" transform="translate(-7347.312 -2384.186)" fill="#fff" opacity="0.72"/>
      <path id="Trazado_104365" data-name="Trazado 104365" d="M7362.517,2186.441l1.57.052a.9.9,0,0,0,.928-.887l.066-3.128a.9.9,0,0,0-.9-.926l-1.585,0a1.641,1.641,0,0,0-1.758,1.453l-.04,1.906A1.648,1.648,0,0,0,7362.517,2186.441Z" transform="translate(-7353.448 -2158.634)" fill="#fff" opacity="0.72"/>
      <path id="Trazado_104366" data-name="Trazado 104366" d="M8877.35,1871.614l-2.52.091a1.076,1.076,0,0,0-1.033,1.057l-.092,4.365a1.076,1.076,0,0,0,1.064,1.1l2.6.015a1.646,1.646,0,0,0,1.773-1.453l.076-3.651A1.675,1.675,0,0,0,8877.35,1871.614Z" transform="translate(-8824.543 -1857.262)" fill="#fff" opacity="0.72"/>
      <path id="Trazado_104367" data-name="Trazado 104367" d="M8076.622,2720.391l-3.676-.036a1.129,1.129,0,0,0-1.135,1.109l-.078,3.708a1.13,1.13,0,0,0,1.077,1.156l3.674.157a1.128,1.128,0,0,0,1.172-1.108l.081-3.829A1.129,1.129,0,0,0,8076.622,2720.391Z" transform="translate(-8044.734 -2682.546)" fill="#fff" opacity="0.72"/>
      <path id="Trazado_104368" data-name="Trazado 104368" d="M8871.181,2178.786l-2.555,0a1.076,1.076,0,0,0-1.069,1.058l-.088,4.152a1.078,1.078,0,0,0,1.037,1.1l2.564.084a1.655,1.655,0,0,0,1.831-1.451l.072-3.422A1.662,1.662,0,0,0,8871.181,2178.786Z" transform="translate(-8818.479 -2155.945)" fill="#fff" opacity="0.72"/>
      <path id="Trazado_104369" data-name="Trazado 104369" d="M8865.889,2462.4l-2.666-.088a1,1,0,0,0-1.028.982l-.071,3.419a1,1,0,0,0,1,1.025h2.679a1.642,1.642,0,0,0,1.762-1.453l.05-2.358A1.649,1.649,0,0,0,8865.889,2462.4Z" transform="translate(-8813.281 -2431.636)" fill="#fff" opacity="0.72"/>
      <path id="Trazado_104370" data-name="Trazado 104370" d="M8600.651,2454.672l-.077,3.657a1,1,0,0,0,1,1.025h3.934a1,1,0,0,0,1-.982l.074-3.528a1,1,0,0,0-.963-1.024l-3.932-.13A1,1,0,0,0,8600.651,2454.672Z" transform="translate(-8558.961 -2423.251)" fill="#fff" opacity="0.72"/>
      <path id="Trazado_104371" data-name="Trazado 104371" d="M8599.258,2725.507l-3.676-.036a1.128,1.128,0,0,0-1.135,1.11l-.088,4.181a1.13,1.13,0,0,0,1.076,1.157l3.672.156a1.13,1.13,0,0,0,1.174-1.109l.09-4.3A1.13,1.13,0,0,0,8599.258,2725.507Z" transform="translate(-8552.918 -2687.521)" fill="#fff" opacity="0.72"/>
      <path id="Trazado_104372" data-name="Trazado 104372" d="M7367.958,1931.473l1.538.009a.9.9,0,0,0,.9-.887l.064-3.06a.9.9,0,0,0-.932-.925l-1.629.059a1.628,1.628,0,0,0-1.685,1.451l-.039,1.825A1.659,1.659,0,0,0,7367.958,1931.473Z" transform="translate(-7358.684 -1910.737)" fill="#fff" opacity="0.72"/>
      <path id="Trazado_104373" data-name="Trazado 104373" d="M8337.938,2722.97l-3.613-.035a1.192,1.192,0,0,0-1.2,1.172l-.081,3.882a1.129,1.129,0,0,0,1.076,1.157l3.672.157a1.13,1.13,0,0,0,1.174-1.109l.085-4.065A1.131,1.131,0,0,0,8337.938,2722.97Z" transform="translate(-8298.825 -2685.055)" fill="#fff" opacity="0.72"/>
      <path id="Trazado_104374" data-name="Trazado 104374" d="M8612.272,1880.653l-.085,4.062a1.075,1.075,0,0,0,1.064,1.1l3.782.022a1.075,1.075,0,0,0,1.077-1.057l.09-4.22a1.078,1.078,0,0,0-1.111-1.1l-3.785.137A1.076,1.076,0,0,0,8612.272,1880.653Z" transform="translate(-8570.253 -1864.89)" fill="#fff" opacity="0.72"/>
      <path id="Trazado_104375" data-name="Trazado 104375" d="M8606.186,2180.246l-.082,3.9a1.076,1.076,0,0,0,1.035,1.1l3.78.125a1.074,1.074,0,0,0,1.106-1.057l.086-4.033a1.078,1.078,0,0,0-1.074-1.1l-3.783.007A1.074,1.074,0,0,0,8606.186,2180.246Z" transform="translate(-8564.338 -2156.33)" fill="#fff" opacity="0.72"/>
      <path id="Trazado_104376" data-name="Trazado 104376" d="M7415.05,1774.934l.174,1.286a.841.841,0,0,0,.813.731h.06a.841.841,0,0,0,.856-.827l.028-1.317a.841.841,0,0,0-.93-.858l-.262.029A.844.844,0,0,0,7415.05,1774.934Z" transform="translate(-7406.194 -1762.294)" fill="#fff"/>
      <path id="Trazado_104377" data-name="Trazado 104377" d="M7629.331,1762.954l.174,1.286a.84.84,0,0,0,.813.73h.061a.841.841,0,0,0,.855-.827l.028-1.317a.841.841,0,0,0-.93-.858l-.262.029A.844.844,0,0,0,7629.331,1762.954Z" transform="translate(-7614.554 -1750.645)" fill="#fff"/>
      <path id="Trazado_104378" data-name="Trazado 104378" d="M7892.977,1766.613l.174,1.286a.84.84,0,0,0,.813.73h.06a.841.841,0,0,0,.856-.827l.028-1.317a.841.841,0,0,0-.93-.858l-.262.029A.844.844,0,0,0,7892.977,1766.613Z" transform="translate(-7870.912 -1754.203)" fill="#fff"/>
      <path id="Trazado_104379" data-name="Trazado 104379" d="M8149.845,1755.016l.174,1.286a.84.84,0,0,0,.813.73h.06a.841.841,0,0,0,.856-.827l.028-1.317a.841.841,0,0,0-.93-.858l-.262.029A.844.844,0,0,0,8149.845,1755.016Z" transform="translate(-8120.681 -1742.927)" fill="#fff"/>
      <path id="Trazado_104380" data-name="Trazado 104380" d="M8413.676,1721.2l.174,1.286a.84.84,0,0,0,.813.73h.061a.841.841,0,0,0,.855-.827l.027-1.317a.841.841,0,0,0-.93-.858l-.262.029A.843.843,0,0,0,8413.676,1721.2Z" transform="translate(-8377.221 -1710.041)" fill="#fff"/>
      <path id="Trazado_104381" data-name="Trazado 104381" d="M8693.162,1727.172l.174,1.286a.841.841,0,0,0,.813.731h.061a.841.841,0,0,0,.855-.827l.027-1.317a.84.84,0,0,0-.93-.858l-.262.029A.843.843,0,0,0,8693.162,1727.172Z" transform="translate(-8648.982 -1715.852)" fill="#fff"/>
      <path id="Trazado_104382" data-name="Trazado 104382" d="M8929.067,1722.192l.175,1.286a.84.84,0,0,0,.813.73h.061a.841.841,0,0,0,.855-.827l.027-1.317a.841.841,0,0,0-.93-.858l-.262.029A.844.844,0,0,0,8929.067,1722.192Z" transform="translate(-8878.367 -1711.01)" fill="#fff"/>
      <g id="Grupo_55079" data-name="Grupo 55079" transform="translate(37.217 25.534)">
        <path id="Trazado_104383" data-name="Trazado 104383" d="M8646.7,2276.535a.31.31,0,0,0-.518-.229,4.509,4.509,0,0,0-1.138,1.9c-.345.8-.674,1.613-.967,2.437a22.459,22.459,0,0,0-.772,2.65,19.218,19.218,0,0,0-1.446-3.108.277.277,0,0,0-.509.2c.508,1.817,1.131,3.6,1.609,5.422a.564.564,0,0,0,1.107-.127,20.764,20.764,0,0,1,1.158-4.905c.272-.759.578-1.507.895-2.249A4.467,4.467,0,0,0,8646.7,2276.535Z" transform="translate(-8635.815 -2276.229)" fill="url(#linear-gradient-5)"/>
        <path id="Trazado_104384" data-name="Trazado 104384" d="M8453.206,2298.909a.411.411,0,0,0-.233.786,4.754,4.754,0,0,1,1.292,7.75,15.865,15.865,0,0,1-3.787,2.705,7.62,7.62,0,0,1-4.413,1.163c-3.623-.367-4.115-4.084-3.032-6.952a10.217,10.217,0,0,1,6-5.91c.353-.132.216-.711-.146-.58a11.512,11.512,0,0,0-6.095,5.146c-1.243,2.2-1.989,5.3-.362,7.512,1.684,2.285,4.88,2.326,7.288,1.374,2.648-1.048,5.946-2.992,7-5.813C8457.827,2303.135,8456.464,2299.524,8453.206,2298.909Z" transform="translate(-8441.5 -2297.256)" fill="url(#linear-gradient-6)"/>
      </g>
      <g id="Grupo_55080" data-name="Grupo 55080" transform="translate(61.648 8.918)">
        <path id="Trazado_104385" data-name="Trazado 104385" d="M9329.232,2207.9a.137.137,0,0,1-.137-.137l-.167-24.27a.138.138,0,0,1,.136-.139h0a.138.138,0,0,1,.137.137l.167,24.27a.138.138,0,0,1-.136.139Z" transform="translate(-9328.832 -2169.303)" fill="#91d7fa"/>
        <path id="Trazado_104386" data-name="Trazado 104386" d="M9325.633,1683.776a.14.14,0,0,1-.139-.137l-.058-8.477a.137.137,0,0,1,.136-.139h0a.138.138,0,0,1,.137.137l.059,8.477a.138.138,0,0,1-.137.139Z" transform="translate(-9325.437 -1675.023)" fill="#91d7fa"/>
      </g>
      <ellipse id="Elipse_4126" data-name="Elipse 4126" cx="1.467" cy="1.479" rx="1.467" ry="1.479" transform="translate(8.847 7.596)" fill="#91d7fa"/>
      <ellipse id="Elipse_4127" data-name="Elipse 4127" cx="1.467" cy="1.479" rx="1.467" ry="1.479" transform="translate(20.866 7.483)" fill="#91d7fa"/>
      <ellipse id="Elipse_4128" data-name="Elipse 4128" cx="1.467" cy="1.479" rx="1.467" ry="1.479" transform="translate(32.998 7.085)" fill="#91d7fa"/>
      <ellipse id="Elipse_4129" data-name="Elipse 4129" cx="1.467" cy="1.479" rx="1.467" ry="1.479" transform="translate(45.017 6.516)" fill="#91d7fa"/>
      <g id="Grupo_55081" data-name="Grupo 55081" transform="translate(9.391)">
        <path id="Trazado_104387" data-name="Trazado 104387" d="M8744.807,1354.489a3.058,3.058,0,0,0-3.352-2.07c-2.469.438-2.235,5.721-2.037,7.866a1.117,1.117,0,0,0,1.186.894.677.677,0,0,0,.453-.165.44.44,0,0,0,.152-.384c-.213-1.621-.667-6.29,1.15-6.539a1.166,1.166,0,0,1,.882.313C8743.764,1354.4,8744.285,1354.452,8744.807,1354.489Z" transform="translate(-8703.247 -1352.368)" fill="url(#linear-gradient-7)"/>
        <path id="Trazado_104388" data-name="Trazado 104388" d="M8310.037,1364.529c-.486-1.15-1.5-2.627-3.445-2.282-2.469.438-2.236,5.723-2.037,7.868a1.117,1.117,0,0,0,1.186.9.678.678,0,0,0,.453-.165.439.439,0,0,0,.151-.384c-.213-1.621-.667-6.293,1.15-6.543a1.271,1.271,0,0,1,1.143.642C8309.1,1364.568,8309.572,1364.553,8310.037,1364.529Z" transform="translate(-8280.401 -1361.925)" fill="url(#linear-gradient-8)"/>
        <path id="Trazado_104389" data-name="Trazado 104389" d="M7875.222,1374.526c-.464-1.164-1.479-2.762-3.5-2.4-2.468.438-2.235,5.724-2.037,7.869a1.118,1.118,0,0,0,1.186.9.679.679,0,0,0,.453-.164.439.439,0,0,0,.152-.384c-.214-1.621-.667-6.3,1.15-6.545a1.306,1.306,0,0,1,1.163.7A10.418,10.418,0,0,0,7875.222,1374.526Z" transform="translate(-7857.555 -1371.526)" fill="url(#linear-gradient-9)"/>
        <path id="Trazado_104390" data-name="Trazado 104390" d="M7436.861,1383.542c-2.469.438-2.235,5.727-2.037,7.872a1.119,1.119,0,0,0,1.186.9.678.678,0,0,0,.453-.164.441.441,0,0,0,.152-.384c-.214-1.621-.667-6.3,1.15-6.551a1.255,1.255,0,0,1,1.11.588c.486.018.972.083,1.458.081C7439.859,1384.726,7438.844,1383.19,7436.861,1383.542Z" transform="translate(-7434.709 -1382.63)" fill="url(#linear-gradient-10)"/>
      </g>
      <g id="Grupo_55082" data-name="Grupo 55082" transform="translate(42.677 15.462)">
        <path id="Trazado_104391" data-name="Trazado 104391" d="M8640.979,1913.318a2.135,2.135,0,0,1-.246,1.135.8.8,0,0,1-.721.388.777.777,0,0,1-.717-.38,2.229,2.229,0,0,1-.229-1.13q0-1.523.946-1.523Q8640.979,1911.808,8640.979,1913.318Zm-1.215.007a2.732,2.732,0,0,0,.059.669c.039.14.105.21.2.21s.158-.07.2-.21a2.6,2.6,0,0,0,.063-.669,2.493,2.493,0,0,0-.064-.669c-.042-.14-.107-.21-.2-.21s-.158.07-.2.21A2.732,2.732,0,0,0,8639.764,1913.324Zm2.969-1.447-1.979,4.83h-.679l1.973-4.83Zm1.012,3.37a2.107,2.107,0,0,1-.248,1.133.8.8,0,0,1-.718.386.78.78,0,0,1-.72-.378,2.879,2.879,0,0,1,.007-2.26.774.774,0,0,1,.713-.391Q8643.744,1913.737,8643.744,1915.247Zm-1.215.007a2.732,2.732,0,0,0,.059.669c.039.14.105.21.2.21s.158-.07.2-.21a2.6,2.6,0,0,0,.063-.669,2.472,2.472,0,0,0-.064-.667c-.042-.139-.107-.208-.2-.208s-.154.069-.2.208A2.6,2.6,0,0,0,8642.529,1915.253Z" transform="translate(-8639.065 -1911.808)" fill="url(#linear-gradient-11)"/>
      </g>
      <g id="Grupo_55083" data-name="Grupo 55083" transform="translate(13.399 23.135)">
        <path id="Trazado_104392" data-name="Trazado 104392" d="M7581.653,2190.934a2.125,2.125,0,0,1-.248,1.135.8.8,0,0,1-.719.388.778.778,0,0,1-.718-.38,2.224,2.224,0,0,1-.229-1.13q0-1.523.947-1.523Q7581.653,2189.424,7581.653,2190.934Zm-1.216.007a2.732,2.732,0,0,0,.059.669q.059.209.2.21t.2-.21a2.553,2.553,0,0,0,.063-.669,2.516,2.516,0,0,0-.064-.669c-.042-.14-.108-.21-.2-.21s-.157.07-.2.21A2.731,2.731,0,0,0,7580.438,2190.94Zm2.969-1.447-1.979,4.83h-.678l1.973-4.83Zm1.013,3.369a2.107,2.107,0,0,1-.249,1.133.8.8,0,0,1-.718.386.778.778,0,0,1-.719-.378,2.877,2.877,0,0,1,.006-2.26.775.775,0,0,1,.713-.391Q7584.419,2191.353,7584.419,2192.863Zm-1.216.007a2.7,2.7,0,0,0,.059.669c.039.14.1.21.2.21s.159-.07.2-.21a2.578,2.578,0,0,0,.062-.669,2.5,2.5,0,0,0-.064-.667c-.042-.139-.109-.208-.2-.208s-.155.069-.195.208A2.619,2.619,0,0,0,7583.2,2192.87Z" transform="translate(-7579.739 -2189.424)" fill="url(#linear-gradient-12)"/>
      </g>
    </g>
    <g id="Grupo_55089" data-name="Grupo 55089" transform="translate(7056.033 393.258)">
      <path id="Trazado_104393" data-name="Trazado 104393" d="M9156.957,1279.422c-.011,0-6.084-10.64-6.9-11.641a.637.637,0,0,0-.568-.228l-1.7.2-1.991,4.308,3.317-1.932c-.328,2.271,3.934,5.645,5.4,6.876a.335.335,0,0,1,.025.489l-.584.611a6.707,6.707,0,0,0,3.313,1.883Z" transform="translate(-9138.051 -1254.637)" fill="url(#linear-gradient-13)"/>
      <path id="Trazado_104394" data-name="Trazado 104394" d="M9434.776,1637.63a.858.858,0,0,0-.5.452.379.379,0,0,0,.143.437,19.058,19.058,0,0,0,3.569,2.136.105.105,0,0,0,.132-.125,3.351,3.351,0,0,0-.7-1.284l.045.091a.13.13,0,0,1-.18.171A10.007,10.007,0,0,1,9434.776,1637.63Z" transform="translate(-9418.535 -1614.491)" fill="url(#linear-gradient-14)"/>
      <path id="Trazado_104395" data-name="Trazado 104395" d="M9131.889,1324.35c-.01-.006-.921-2.2-.932-2.208a38.626,38.626,0,0,0-3.475-10.589.637.637,0,0,0-.51-.339l-1.7-.145-2.822,3.816,3.641-1.221c-.781,2.157,2.709,6.324,3.892,7.825a.335.335,0,0,1-.073.484l-.7.48a6.709,6.709,0,0,0,2.862,2.514Z" transform="translate(-9115.347 -1296.956)" fill="url(#linear-gradient-15)"/>
      <path id="Trazado_104396" data-name="Trazado 104396" d="M9359.25,1713.786a.86.86,0,0,0-.58.342.378.378,0,0,0,.051.457,19.092,19.092,0,0,0,3.063,2.814.106.106,0,0,0,.155-.1,3.381,3.381,0,0,0-.428-1.4l.025.1a.13.13,0,0,1-.211.131A9.986,9.986,0,0,1,9359.25,1713.786Z" transform="translate(-9344.985 -1688.542)" fill="url(#linear-gradient-16)"/>
      <g id="Grupo_55085" data-name="Grupo 55085" transform="translate(0.28 13.242)">
        <path id="Trazado_104397" data-name="Trazado 104397" d="M8877.3,1279.617a12.624,12.624,0,0,0-1.665,3.333c-.126,1.044.425,1.405,2.036,1.538,4.793.4,7.154-1.04,7.154-1.04.328-2.09.563-2.622,3.3-3.759a20.985,20.985,0,0,1-4.16,0C8883.266,1279.423,8877.3,1279.617,8877.3,1279.617Z" transform="translate(-8875.614 -1279.55)" fill="url(#linear-gradient-17)"/>
      </g>
      <g id="Grupo_55087" data-name="Grupo 55087" transform="translate(0 0)">
        <path id="Trazado_104398" data-name="Trazado 104398" d="M8897.839,800.918s-1.072-1.268-2.212.288c-.206.282-1,.049-1.289.639a.748.748,0,0,1-.808.416,2.486,2.486,0,0,0-2.861,1.137,1.3,1.3,0,0,0,.4,1.908.84.84,0,0,1,.282,1.125,1.159,1.159,0,0,0,.3,1.475c1.263,1.353,3.761-.858,3.761-.858l1.983-4.687Z" transform="translate(-8889.74 -800.431)" fill="url(#linear-gradient-18)"/>
        <path id="Trazado_104399" data-name="Trazado 104399" d="M8885.813,979.157a35.09,35.09,0,0,0,2.674-2.836,2.4,2.4,0,0,0,.406-2.158,29.9,29.9,0,0,0-1.184-2.981c-.1-.335-2.109-.321-2.109-.321a15.409,15.409,0,0,0-5.507,6.912l1.744.543a20.449,20.449,0,0,1,2.053-2.833s-1.766,2.331-1.827,3.286Z" transform="translate(-8879.689 -966.151)" fill="url(#linear-gradient-19)"/>
        <path id="Trazado_104400" data-name="Trazado 104400" d="M8875.011,1223.021l-1.347-1.465-1.555.419a8.985,8.985,0,0,1-2.851,0l-1.037-.281-2.345-.73-.368,1.041a.626.626,0,0,0,.229.72,4.118,4.118,0,0,0,.593.369c.309.135,7.112.043,7.112.043Z" transform="translate(-8865.473 -1209.341)" fill="url(#linear-gradient-20)"/>
        <path id="Trazado_104401" data-name="Trazado 104401" d="M9081.8,876.618l-1.35,2.511c.089.548,1.47.564,1.683.236a.32.32,0,0,0,.042-.111l.809-1.678c.034-.164-.414-.715-.562-.793l-.536-.286C9081.675,876.388,9082.537,876.379,9081.8,876.618Z" transform="translate(-9074.506 -874.324)" fill="url(#linear-gradient-21)"/>
        <g id="Grupo_55086" data-name="Grupo 55086" transform="translate(6.642 0.074)">
          <path id="Trazado_104402" data-name="Trazado 104402" d="M9130.165,840.628a2.971,2.971,0,0,1-.515,1.927c-.666,1.079-1.33,1.03-1.668.645a2.373,2.373,0,0,1-.558-2.1C9127.609,840.023,9129.935,839.546,9130.165,840.628Z" transform="translate(-9126.781 -838.996)" fill="url(#linear-gradient-22)"/>
          <path id="Trazado_104403" data-name="Trazado 104403" d="M9107.234,805.312s1.08-1.418,1.909-.182l-.014.427s1.077-.05.961-1.044a1.62,1.62,0,0,0-2.217-1.333c-1.221.339-1.933.726-2.071,1.573s.555.709.555.709.264-.584.583-.624.2.422.2.422Z" transform="translate(-9105.784 -803.092)" fill="url(#linear-gradient-23)"/>
          <path id="Trazado_104404" data-name="Trazado 104404" d="M9134.469,850.6s.561-.726.051-.876-.49.711-.457,1.032Z" transform="translate(-9133.267 -848.415)" fill="url(#linear-gradient-24)"/>
        </g>
      </g>
      <g id="Grupo_55088" data-name="Grupo 55088" transform="translate(4.818 8.637)">
        <path id="Trazado_104405" data-name="Trazado 104405" d="M9040.058,1296.635h.015l6.193-.007a.277.277,0,0,0,0-.554l-6.193.007a.277.277,0,0,0-.014.554Z" transform="translate(-9039.795 -1291.013)" fill="url(#linear-gradient-25)"/>
        <path id="Trazado_104406" data-name="Trazado 104406" d="M9178.72,1112.928h-5.157a.982.982,0,0,0-.889.564l-2.385,5.056h6.409a.6.6,0,0,0,.556-.378l1.85-4.678A.412.412,0,0,0,9178.72,1112.928Z" transform="translate(-9166.682 -1112.928)" fill="url(#linear-gradient-26)"/>
        <path id="Trazado_104407" data-name="Trazado 104407" d="M9342.109,1188.546c-.111.347-.028.684.186.753s.477-.157.589-.5.029-.684-.185-.753S9342.222,1188.2,9342.109,1188.546Z" transform="translate(-9333.705 -1185.953)" fill="#91d7fa"/>
      </g>
    </g>
    <g id="Grupo_55091" data-name="Grupo 55091" transform="translate(7036.76 409.658)">
      <circle id="Elipse_4130" data-name="Elipse 4130" cx="4.889" cy="4.889" r="4.889" transform="translate(0 6.913) rotate(-45)" fill="url(#linear-gradient-27)"/>
      <circle id="Elipse_4131" data-name="Elipse 4131" cx="4.726" cy="4.726" r="4.726" transform="translate(0.23 6.913) rotate(-45)" fill="url(#linear-gradient-28)"/>
      <path id="Trazado_104408" data-name="Trazado 104408" d="M8270.473,1483.164a.161.161,0,0,1-.072-.016.158.158,0,0,1-.073-.211,4.5,4.5,0,0,1,3.993-2.559,4.555,4.555,0,0,1,.816.059.158.158,0,1,1-.051.312,4.287,4.287,0,0,0-.76-.054,4.189,4.189,0,0,0-3.715,2.38A.156.156,0,0,1,8270.473,1483.164Z" transform="translate(-8267.488 -1477.985)" fill="#fff" opacity="0.58"/>
      <circle id="Elipse_4132" data-name="Elipse 4132" cx="4" cy="4" r="4" transform="translate(1.361 7.015) rotate(-45)" fill="#fff" opacity="0.78"/>
      <g id="Grupo_55090" data-name="Grupo 55090" transform="translate(5.249 4.182)">
        <path id="Trazado_104409" data-name="Trazado 104409" d="M8359.5,1550.914l-.008-.435a3.543,3.543,0,0,1-1.226-.243.251.251,0,0,1-.145-.295l.1-.407a.253.253,0,0,1,.341-.172,2.944,2.944,0,0,0,1.132.217c.437-.008.76-.162.754-.465,0-.274-.26-.432-.869-.584-.871-.221-1.5-.588-1.514-1.351-.012-.689.482-1.223,1.354-1.38l-.008-.435a.253.253,0,0,1,.248-.258l.256,0a.253.253,0,0,1,.258.249l.008.391a3.234,3.234,0,0,1,.971.156.252.252,0,0,1,.163.3l-.095.377a.253.253,0,0,1-.331.177,2.637,2.637,0,0,0-.952-.155c-.519.009-.662.227-.659.419,0,.237.318.394,1,.59.968.271,1.374.664,1.388,1.382a1.484,1.484,0,0,1-1.411,1.425l.009.487a.254.254,0,0,1-.249.258l-.256,0A.254.254,0,0,1,8359.5,1550.914Z" transform="translate(-8358.064 -1545.101)" fill="url(#linear-gradient-29)"/>
      </g>
    </g>
    <g id="Grupo_55093" data-name="Grupo 55093" transform="translate(7037.905 385.133)">
      <circle id="Elipse_4133" data-name="Elipse 4133" cx="7.277" cy="7.277" r="7.277" transform="translate(2.672 2.672)" fill="url(#linear-gradient-30)"/>
      <circle id="Elipse_4134" data-name="Elipse 4134" cx="7.035" cy="7.035" r="7.035" transform="translate(0 9.95) rotate(-45)" fill="url(#linear-gradient-31)"/>
      <path id="Trazado_104410" data-name="Trazado 104410" d="M8353.054,630.513a.135.135,0,0,1-.124-.194,6.6,6.6,0,0,1,5.855-3.753,6.669,6.669,0,0,1,1.2.086.135.135,0,0,1-.043.267,6.434,6.434,0,0,0-1.15-.082,6.333,6.333,0,0,0-5.616,3.6A.135.135,0,0,1,8353.054,630.513Z" transform="translate(-8348.955 -623.246)" fill="#fff" opacity="0.58"/>
      <circle id="Elipse_4135" data-name="Elipse 4135" cx="5.955" cy="5.955" r="5.955" transform="translate(1.685 10.1) rotate(-45)" fill="#fff" opacity="0.78"/>
      <g id="Grupo_55092" data-name="Grupo 55092" transform="translate(7.472 5.883)">
        <path id="Trazado_104411" data-name="Trazado 104411" d="M8482.057,727.955l-.012-.648a5.283,5.283,0,0,1-1.825-.361.376.376,0,0,1-.216-.439l.154-.606a.378.378,0,0,1,.508-.256,4.391,4.391,0,0,0,1.686.323c.65-.012,1.131-.241,1.123-.693-.008-.408-.387-.644-1.295-.87-1.3-.329-2.232-.875-2.252-2.01-.02-1.025.717-1.821,2.014-2.054l-.012-.648a.377.377,0,0,1,.37-.384l.38-.007a.378.378,0,0,1,.385.371l.01.582a4.81,4.81,0,0,1,1.445.233.376.376,0,0,1,.244.449l-.143.561a.376.376,0,0,1-.492.263,3.924,3.924,0,0,0-1.417-.231c-.771.014-.985.338-.981.624.007.353.475.587,1.482.877,1.441.4,2.047.989,2.066,2.058.018.981-.693,1.876-2.1,2.122l.014.725a.378.378,0,0,1-.371.384l-.381.007A.377.377,0,0,1,8482.057,727.955Z" transform="translate(-8479.928 -719.301)" fill="url(#linear-gradient-32)"/>
      </g>
    </g>
    <g id="Grupo_55095" data-name="Grupo 55095" transform="translate(7028.188 417.402)">
      <circle id="Elipse_4136" data-name="Elipse 4136" cx="4.386" cy="4.386" r="4.386" transform="translate(0 6.202) rotate(-45)" fill="url(#linear-gradient-33)"/>
      <circle id="Elipse_4137" data-name="Elipse 4137" cx="4.24" cy="4.24" r="4.24" transform="translate(0.206 6.202) rotate(-45)" fill="url(#linear-gradient-34)"/>
      <path id="Trazado_104412" data-name="Trazado 104412" d="M7952.024,1756.3a.077.077,0,0,1-.036-.008.079.079,0,0,1-.037-.106,3.977,3.977,0,0,1,3.527-2.26,4.03,4.03,0,0,1,.721.052.079.079,0,1,1-.026.156,3.869,3.869,0,0,0-.693-.05,3.819,3.819,0,0,0-3.387,2.17A.079.079,0,0,1,7952.024,1756.3Z" transform="translate(-7949.348 -1751.718)" fill="#fff" opacity="0.58"/>
      <circle id="Elipse_4138" data-name="Elipse 4138" cx="3.588" cy="3.588" r="3.588" transform="translate(2.006 9.004) rotate(-77.295)" fill="#fff" opacity="0.78"/>
      <g id="Grupo_55094" data-name="Grupo 55094" transform="translate(4.709 3.751)">
        <path id="Trazado_104413" data-name="Trazado 104413" d="M8029.682,1814.941l-.007-.39a3.18,3.18,0,0,1-1.1-.218.226.226,0,0,1-.13-.265l.093-.365a.228.228,0,0,1,.306-.154,2.643,2.643,0,0,0,1.015.195c.392-.007.682-.145.677-.417,0-.246-.233-.388-.78-.524-.781-.2-1.345-.527-1.357-1.212-.011-.618.432-1.1,1.214-1.238l-.007-.39a.228.228,0,0,1,.224-.231l.229,0a.227.227,0,0,1,.231.223l.007.35a2.9,2.9,0,0,1,.871.14.226.226,0,0,1,.146.271l-.085.338a.227.227,0,0,1-.3.159,2.364,2.364,0,0,0-.854-.139c-.465.008-.595.2-.591.376,0,.213.286.354.893.529.868.243,1.233.6,1.245,1.24.011.591-.418,1.13-1.266,1.279l.008.437a.228.228,0,0,1-.224.231l-.229,0A.227.227,0,0,1,8029.682,1814.941Z" transform="translate(-8028.398 -1809.726)" fill="url(#linear-gradient-35)"/>
      </g>
    </g>
    <g id="Grupo_55097" data-name="Grupo 55097" transform="translate(7027.442 397.001)">
      <circle id="Elipse_4139" data-name="Elipse 4139" cx="5.803" cy="5.803" r="5.803" transform="translate(2.131 2.131)" fill="url(#linear-gradient-36)"/>
      <circle id="Elipse_4140" data-name="Elipse 4140" cx="5.61" cy="5.61" r="5.61" transform="translate(0 7.933) rotate(-45)" fill="url(#linear-gradient-37)"/>
      <path id="Trazado_104414" data-name="Trazado 104414" d="M7944.166,1033.592a.143.143,0,0,1-.131-.205,5.3,5.3,0,0,1,4.7-3.012,5.38,5.38,0,0,1,.961.069.143.143,0,0,1-.046.282,5.111,5.111,0,0,0-.91-.065,5.015,5.015,0,0,0-4.447,2.85A.144.144,0,0,1,7944.166,1033.592Z" transform="translate(-7940.897 -1027.763)" fill="#fff" opacity="0.58"/>
      <circle id="Elipse_4141" data-name="Elipse 4141" cx="4.748" cy="4.748" r="4.748" transform="translate(1.343 8.053) rotate(-45)" fill="#fff" opacity="0.78"/>
      <g id="Grupo_55096" data-name="Grupo 55096" transform="translate(5.957 4.691)">
        <path id="Trazado_104415" data-name="Trazado 104415" d="M8048.261,1112.486l-.009-.516a4.215,4.215,0,0,1-1.455-.288.3.3,0,0,1-.172-.35l.123-.483a.3.3,0,0,1,.405-.2,3.5,3.5,0,0,0,1.343.258c.519-.009.9-.192.9-.552-.006-.325-.308-.513-1.032-.693-1.033-.263-1.78-.7-1.8-1.6-.015-.817.571-1.452,1.605-1.638l-.009-.516a.3.3,0,0,1,.295-.306l.3-.005a.3.3,0,0,1,.307.3l.008.464a3.835,3.835,0,0,1,1.152.186.3.3,0,0,1,.194.358l-.113.447a.3.3,0,0,1-.393.21,3.131,3.131,0,0,0-1.13-.184c-.615.011-.786.269-.782.5,0,.281.378.468,1.182.7,1.149.322,1.632.788,1.647,1.641a1.762,1.762,0,0,1-1.675,1.692l.01.578a.3.3,0,0,1-.295.306l-.3.005A.3.3,0,0,1,8048.261,1112.486Z" transform="translate(-8046.563 -1105.586)" fill="url(#linear-gradient-38)"/>
      </g>
    </g>
  </g>
</svg>
