<svg id="Grupo_83734" data-name="Grupo 83734" xmlns="http://www.w3.org/2000/svg" width="121" height="121" viewBox="0 0 121 121">
  <circle id="Elipse_4392" data-name="Elipse 4392" cx="60.5" cy="60.5" r="60.5" fill="#34c7d9"/>
  <path id="Trazado_107120" data-name="Trazado 107120" d="M53.993,0A53.993,53.993,0,1,1,0,53.993,53.993,53.993,0,0,1,53.993,0Z" transform="translate(7 7)" fill="#fff"/>
  <g id="Grupo_83894" data-name="Grupo 83894" transform="translate(-736.666 -2245.528)">
    <g id="Grupo_83897" data-name="Grupo 83897">
      <g id="Grupo_83896" data-name="Grupo 83896">
        <g id="Grupo_83894-2" data-name="Grupo 83894">
          <path id="Trazado_113475" data-name="Trazado 113475" d="M799.9,2325.288l4.065,6.665h-8.133Z" fill="none" stroke="#656565" stroke-linecap="round" stroke-linejoin="round" stroke-width="1.3"/>
          <path id="Trazado_113476" data-name="Trazado 113476" d="M821.613,2331.953v5.924H778.178v-5.924h43.435Z" fill="none" stroke="#656565" stroke-linecap="round" stroke-linejoin="round" stroke-width="1.3"/>
          <path id="Trazado_113477" data-name="Trazado 113477" d="M829.492,2309.9a6.217,6.217,0,0,1,1.359.147,6.619,6.619,0,1,1-6.706,10.381,6.517,6.517,0,0,1-1.28-3.91A6.617,6.617,0,0,1,829.492,2309.9Z" fill="none" stroke="#656565" stroke-linecap="round" stroke-linejoin="round" stroke-width="1.3"/>
          <path id="Trazado_113478" data-name="Trazado 113478" d="M779.595,2289.6c.137,9.921.568,10.585-4.748,15.413-1.479,1.339-3.4,3.01-5.9,5.288-12.033-10.9-10.674-7.095-10.674-24.444a13.948,13.948,0,0,0,10.674-2.111c2.638,2.219,6.285,2.746,10.624,2.111,0,1.036.009,1.984.017,2.873C779.584,2289.037,779.584,2289.32,779.595,2289.6Z" fill="none" stroke="#656565" stroke-linecap="round" stroke-linejoin="round" stroke-width="1.3"/>
          <path id="Trazado_113479" data-name="Trazado 113479" d="M810.959,2311.135a1.589,1.589,0,1,0,1.585,1.583A1.585,1.585,0,0,0,810.959,2311.135Zm3.832,1.583a1.588,1.588,0,1,0,1.595-1.583A1.594,1.594,0,0,0,814.791,2312.718Zm-24.436-7.7h38.812a1.69,1.69,0,0,1,1.684,1.683v3.351a6.217,6.217,0,0,0-1.359-.147,6.617,6.617,0,0,0-6.627,6.618,6.517,6.517,0,0,0,1.28,3.91H770.624a1.68,1.68,0,0,1-1.681-1.672V2310.3c2.5-2.278,4.425-3.949,5.9-5.288h15.508Zm29.862,7.7a1.589,1.589,0,1,0,1.592-1.583A1.592,1.592,0,0,0,820.217,2312.718Z" fill="none" stroke="#656565" stroke-linecap="round" stroke-linejoin="round" stroke-width="1.3"/>
          <path id="Trazado_113480" data-name="Trazado 113480" d="M810.959,2283.475a1.583,1.583,0,1,0-1.584-1.583A1.577,1.577,0,0,0,810.959,2283.475Zm-31.392,2.385c-4.339.635-7.986.108-10.624-2.111v-7.877a1.689,1.689,0,0,1,1.681-1.693h58.543a1.7,1.7,0,0,1,1.684,1.693v12.051a1.7,1.7,0,0,1-1.684,1.68H779.595c0-.283-.011-.566-.011-.87C779.576,2287.844,779.567,2286.9,779.567,2285.86Zm38.4-3.968a1.588,1.588,0,1,0-1.581,1.583A1.582,1.582,0,0,0,817.967,2281.892Zm3.842-1.584a1.583,1.583,0,1,0,1.585,1.584A1.584,1.584,0,0,0,821.809,2280.308Z" fill="none" stroke="#656565" stroke-linecap="round" stroke-linejoin="round" stroke-width="1.3"/>
          <path id="Trazado_113481" data-name="Trazado 113481" d="M779.595,2289.6h49.572a1.688,1.688,0,0,1,1.684,1.672v12.061a1.689,1.689,0,0,1-1.684,1.68h-54.32C780.163,2300.188,779.732,2299.524,779.595,2289.6Zm38.372,7.711a1.588,1.588,0,1,0-1.581,1.574A1.582,1.582,0,0,0,817.967,2297.314Zm-7.008-1.583a1.579,1.579,0,1,0,1.585,1.583A1.579,1.579,0,0,0,810.959,2295.731Zm9.258,1.583a1.589,1.589,0,1,0,1.592-1.583A1.581,1.581,0,0,0,820.217,2297.314Z" fill="none" stroke="#656565" stroke-linecap="round" stroke-linejoin="round" stroke-width="1.3"/>
        </g>
        <g id="Grupo_83895" data-name="Grupo 83895">
          <path id="Trazado_113482" data-name="Trazado 113482" d="M779.584,2288.733c0,.3.011.587.011.87" fill="none" stroke="#656565" stroke-linecap="round" stroke-linejoin="round" stroke-width="1.3"/>
          <path id="Trazado_113483" data-name="Trazado 113483" d="M829.167,2289.6a1.7,1.7,0,0,0,1.684-1.68v-12.051a1.7,1.7,0,0,0-1.684-1.693H770.624a1.689,1.689,0,0,0-1.681,1.693v7.877" fill="none" stroke="#656565" stroke-linecap="round" stroke-linejoin="round" stroke-width="1.3"/>
          <path id="Trazado_113484" data-name="Trazado 113484" d="M779.595,2289.6h49.572a1.688,1.688,0,0,1,1.684,1.672v12.061a1.689,1.689,0,0,1-1.684,1.68" fill="none" stroke="#656565" stroke-linecap="round" stroke-linejoin="round" stroke-width="1.3"/>
          <path id="Trazado_113485" data-name="Trazado 113485" d="M830.851,2310.05V2306.7a1.69,1.69,0,0,0-1.684-1.683H790.025" fill="none" stroke="#656565" stroke-linecap="round" stroke-linejoin="round" stroke-width="1.3"/>
          <line id="Línea_10495" data-name="Línea 10495" x2="9.011" transform="translate(815.134 2320.431)" fill="none" stroke="#656565" stroke-linecap="round" stroke-linejoin="round" stroke-width="1.3"/>
          <line id="Línea_10496" data-name="Línea 10496" x2="12.276" transform="translate(802.858 2320.431)" fill="none" stroke="#656565" stroke-linecap="round" stroke-linejoin="round" stroke-width="1.3"/>
          <path id="Trazado_113486" data-name="Trazado 113486" d="M768.943,2310.3v8.455a1.68,1.68,0,0,0,1.681,1.672h26.31" fill="none" stroke="#656565" stroke-linecap="round" stroke-linejoin="round" stroke-width="1.3"/>
          <path id="Trazado_113487" data-name="Trazado 113487" d="M790.025,2305.016H774.847" fill="none" stroke="#656565" stroke-linecap="round" stroke-linejoin="round" stroke-width="1.3"/>
          <path id="Trazado_113488" data-name="Trazado 113488" d="M779.584,2288.733c-.008-.889-.017-1.837-.017-2.873-4.339.635-7.986.108-10.624-2.111a13.948,13.948,0,0,1-10.674,2.111c0,17.349-1.359,13.548,10.674,24.444,2.5-2.278,4.425-3.949,5.9-5.288,5.316-4.828,4.885-5.492,4.748-15.413C779.584,2289.32,779.584,2289.037,779.584,2288.733Z" fill="none" stroke="#656565" stroke-linecap="round" stroke-linejoin="round" stroke-width="1.3"/>
          <path id="Trazado_113489" data-name="Trazado 113489" d="M765.8,2300.12l3.139-3.1,3.136-3.089" fill="none" stroke="#656565" stroke-linecap="round" stroke-linejoin="round" stroke-width="1.3"/>
          <path id="Trazado_113490" data-name="Trazado 113490" d="M772.079,2300.12l-3.136-3.1-3.129-3.089" fill="none" stroke="#656565" stroke-linecap="round" stroke-linejoin="round" stroke-width="1.3"/>
          <path id="Trazado_113491" data-name="Trazado 113491" d="M803.962,2331.953l-4.065-6.665-2.963-4.856h5.924l-2.961,4.856-4.067,6.665h25.784v5.924H778.178v-5.924h17.651" fill="none" stroke="#656565" stroke-linecap="round" stroke-linejoin="round" stroke-width="1.3"/>
          <path id="Trazado_113492" data-name="Trazado 113492" d="M821.809,2280.308a1.584,1.584,0,1,1-1.592,1.584A1.584,1.584,0,0,1,821.809,2280.308Z" fill="none" stroke="#656565" stroke-linecap="round" stroke-linejoin="round" stroke-width="1.3"/>
          <path id="Trazado_113493" data-name="Trazado 113493" d="M816.386,2280.308a1.584,1.584,0,1,1-1.595,1.584A1.582,1.582,0,0,1,816.386,2280.308Z" fill="none" stroke="#656565" stroke-linecap="round" stroke-linejoin="round" stroke-width="1.3"/>
          <path id="Trazado_113494" data-name="Trazado 113494" d="M810.959,2280.308a1.583,1.583,0,1,1-1.584,1.584A1.577,1.577,0,0,1,810.959,2280.308Z" fill="none" stroke="#656565" stroke-linecap="round" stroke-linejoin="round" stroke-width="1.3"/>
          <path id="Trazado_113495" data-name="Trazado 113495" d="M821.809,2295.731a1.579,1.579,0,1,1-1.592,1.583A1.584,1.584,0,0,1,821.809,2295.731Z" fill="none" stroke="#656565" stroke-linecap="round" stroke-linejoin="round" stroke-width="1.3"/>
          <path id="Trazado_113496" data-name="Trazado 113496" d="M816.386,2295.731a1.579,1.579,0,1,1-1.595,1.583A1.582,1.582,0,0,1,816.386,2295.731Z" fill="none" stroke="#656565" stroke-linecap="round" stroke-linejoin="round" stroke-width="1.3"/>
          <path id="Trazado_113497" data-name="Trazado 113497" d="M810.959,2295.731a1.579,1.579,0,1,1-1.584,1.583A1.577,1.577,0,0,1,810.959,2295.731Z" fill="none" stroke="#656565" stroke-linecap="round" stroke-linejoin="round" stroke-width="1.3"/>
          <path id="Trazado_113498" data-name="Trazado 113498" d="M821.809,2311.135a1.589,1.589,0,1,1-1.592,1.583A1.59,1.59,0,0,1,821.809,2311.135Z" fill="none" stroke="#656565" stroke-linecap="round" stroke-linejoin="round" stroke-width="1.3"/>
          <path id="Trazado_113499" data-name="Trazado 113499" d="M816.386,2311.135a1.589,1.589,0,1,1-1.595,1.583A1.589,1.589,0,0,1,816.386,2311.135Z" fill="none" stroke="#656565" stroke-linecap="round" stroke-linejoin="round" stroke-width="1.3"/>
          <path id="Trazado_113500" data-name="Trazado 113500" d="M810.959,2311.135a1.589,1.589,0,1,1-1.584,1.583A1.583,1.583,0,0,1,810.959,2311.135Z" fill="none" stroke="#656565" stroke-linecap="round" stroke-linejoin="round" stroke-width="1.3"/>
          <path id="Trazado_113501" data-name="Trazado 113501" d="M824.145,2320.431a6.517,6.517,0,0,1-1.28-3.91,6.617,6.617,0,0,1,6.627-6.618,6.217,6.217,0,0,1,1.359.147,6.619,6.619,0,1,1-6.706,10.381Z" fill="none" stroke="#656565" stroke-linecap="round" stroke-linejoin="round" stroke-width="1.3"/>
          <path id="Trazado_113502" data-name="Trazado 113502" d="M826.656,2315.574l1.368,2.6,5.718-3.353" fill="none" stroke="#656565" stroke-linecap="round" stroke-linejoin="round" stroke-width="1.3"/>
        </g>
      </g>
    </g>
  </g>
</svg>
