<svg xmlns="http://www.w3.org/2000/svg" width="190" height="136.742" viewBox="0 0 190 136.742">
  <g id="Grupo_83748" data-name="Grupo 83748" transform="translate(937.424 285.92)">
    <rect id="Rectángulo_14946" data-name="Rectángulo 14946" width="189.681" height="136.539" transform="translate(-937.104 -285.824)" fill="#fff"/>
    <rect id="Rectángulo_14947" data-name="Rectángulo 14947" width="189.681" height="10.092" transform="translate(-937.338 -285.824)" fill="#e0e0e0"/>
    <path id="Trazado_101969" data-name="Trazado 101969" d="M-923.417-273.916a1.276,1.276,0,0,1-1.238,1.311,1.276,1.276,0,0,1-1.238-1.311,1.276,1.276,0,0,1,1.238-1.311A1.276,1.276,0,0,1-923.417-273.916Z" transform="translate(-7.207 -6.683)" fill="#263238"/>
    <path id="Trazado_101970" data-name="Trazado 101970" d="M-911.138-273.916a1.276,1.276,0,0,1-1.238,1.311,1.276,1.276,0,0,1-1.238-1.311,1.276,1.276,0,0,1,1.238-1.311A1.276,1.276,0,0,1-911.138-273.916Z" transform="translate(-14.881 -6.683)" fill="#263238"/>
    <path id="Trazado_101971" data-name="Trazado 101971" d="M-898.859-273.916A1.276,1.276,0,0,1-900.1-272.6a1.276,1.276,0,0,1-1.238-1.311,1.276,1.276,0,0,1,1.238-1.311A1.276,1.276,0,0,1-898.859-273.916Z" transform="translate(-22.555 -6.683)" fill="#263238"/>
    <g id="Grupo_83712" data-name="Grupo 83712" transform="translate(-874.062 -264.996)">
      <g id="Grupo_83711" data-name="Grupo 83711" transform="translate(0 0)">
        <g id="Grupo_83710" data-name="Grupo 83710">
          <path id="Trazado_101972" data-name="Trazado 101972" d="M-749.965-230c0,.072-4.143.13-9.251.13s-9.253-.058-9.253-.13,4.142-.13,9.253-.13S-749.965-230.069-749.965-230Z" transform="translate(768.469 230.127)" fill="#263238"/>
        </g>
      </g>
    </g>
    <g id="Grupo_83715" data-name="Grupo 83715" transform="translate(-849.449 -264.996)">
      <g id="Grupo_83714" data-name="Grupo 83714" transform="translate(0 0)">
        <g id="Grupo_83713" data-name="Grupo 83713">
          <path id="Trazado_101973" data-name="Trazado 101973" d="M-684.335-230c0,.072-4.143.13-9.251.13s-9.253-.058-9.253-.13,4.142-.13,9.253-.13S-684.335-230.069-684.335-230Z" transform="translate(702.839 230.127)" fill="#263238"/>
        </g>
      </g>
    </g>
    <g id="Grupo_83718" data-name="Grupo 83718" transform="translate(-824.836 -264.996)">
      <g id="Grupo_83717" data-name="Grupo 83717" transform="translate(0 0)">
        <g id="Grupo_83716" data-name="Grupo 83716">
          <path id="Trazado_101974" data-name="Trazado 101974" d="M-618.7-230c0,.072-4.143.13-9.251.13s-9.253-.058-9.253-.13,4.142-.13,9.253-.13S-618.7-230.069-618.7-230Z" transform="translate(637.208 230.127)" fill="#263238"/>
        </g>
      </g>
    </g>
    <g id="Grupo_83721" data-name="Grupo 83721" transform="translate(-800.005 -264.996)">
      <g id="Grupo_83720" data-name="Grupo 83720" transform="translate(0 0)">
        <g id="Grupo_83719" data-name="Grupo 83719">
          <path id="Trazado_101975" data-name="Trazado 101975" d="M-552.492-230c0,.072-4.143.13-9.251.13S-571-229.925-571-230s4.142-.13,9.253-.13S-552.492-230.069-552.492-230Z" transform="translate(570.996 230.127)" fill="#263238"/>
        </g>
      </g>
    </g>
    <g id="Grupo_83723" data-name="Grupo 83723" transform="translate(-776.056 -268.113)">
      <g id="Grupo_83722" data-name="Grupo 83722" transform="translate(0)">
        <path id="Trazado_101976" data-name="Trazado 101976" d="M-491.009-232.074c0-.016.157-.008.441-.079a2.041,2.041,0,0,0,1.064-.692,2.132,2.132,0,0,0,.423-.843,4.475,4.475,0,0,0,.066-1.152c-.05-.821.184-1.89-.519-2.67a1.931,1.931,0,0,0-1.317-.687c-.532-.015-1.113,0-1.7,0l-3.767.012-8.63.01a1.945,1.945,0,0,0-1.729,1.122,2.254,2.254,0,0,0-.214,1.079q0,.583,0,1.157a4.373,4.373,0,0,0,.068,1.1,2.092,2.092,0,0,0,.484.9,1.979,1.979,0,0,0,.821.533,2.964,2.964,0,0,0,.965.092l7.049.028,4.752.041,1.292.024.336.013a.385.385,0,0,1,.114.013.411.411,0,0,1-.114.013l-.336.013-1.292.024-4.752.041-7.049.028a3.156,3.156,0,0,1-1.032-.1,2.206,2.206,0,0,1-.921-.593,2.34,2.34,0,0,1-.546-1.011,2.473,2.473,0,0,1-.078-.591q0-.284,0-.572,0-.573,0-1.157a2.525,2.525,0,0,1,.239-1.2,2.188,2.188,0,0,1,1.946-1.264l8.63.01,3.767.012c.593.007,1.152,0,1.714.017a2.109,2.109,0,0,1,1.431.765,2.329,2.329,0,0,1,.532,1.437q0,.718-.006,1.355a4.514,4.514,0,0,1-.09,1.186,2.215,2.215,0,0,1-.464.877,2.024,2.024,0,0,1-1.125.676A1.4,1.4,0,0,1-491.009-232.074Z" transform="translate(507.134 238.436)" fill="#263238"/>
      </g>
    </g>
    <path id="Trazado_101977" data-name="Trazado 101977" d="M-937.338-285.824l189.681-.1h.1v.1c0,41.2.006,87.6.01,136.523v.122h-.107l-189.681-.02h-.086v-.086c.053-82.87.086-135.828.086-136.539,0,.711.034,53.669.087,136.539l-.087-.086,189.681-.02-.106.106v-.016c0-48.919.007-95.325.01-136.523l.1.1Z" transform="translate(0 0)" fill="#263238"/>
    <g id="Grupo_83727" data-name="Grupo 83727" transform="translate(-838.886 -235.466)">
      <g id="Grupo_83724" data-name="Grupo 83724" transform="translate(0)">
        <path id="Trazado_101978" data-name="Trazado 101978" d="M-606.586-112.631s-.006-.239-.008-.695,0-1.135-.008-2.02c0-1.774-.01-4.381-.019-7.731-.009-6.693-.023-16.348-.04-28.21l.075.075-67.982.022h-.005l.1-.1c0,13.675,0,26.748-.006,38.656l-.091-.091,48.9.044,14.043.025,3.742.011.966.005c.218,0,.332.006.332.006s-.107,0-.321.005l-.956.006-3.724.011-14.022.024-48.965.044h-.091v-.091c0-11.908,0-24.981-.006-38.656v-.1h.1l67.982.023h.075v.075c-.017,11.881-.03,21.552-.04,28.256-.008,3.342-.015,5.944-.019,7.714,0,.879-.006,1.551-.008,2.007S-606.586-112.631-606.586-112.631Z" transform="translate(674.671 151.385)" fill="#92e3a9"/>
      </g>
      <g id="Grupo_83725" data-name="Grupo 83725" transform="translate(0.425 0.047)">
        <path id="Trazado_101979" data-name="Trazado 101979" d="M-607.351-151.259s-.054.041-.163.111l-.488.31-1.886,1.176c-1.639,1.02-4.02,2.479-6.972,4.268-5.9,3.579-14.1,8.447-23.242,13.677s-17.5,9.833-23.57,13.114c-3.036,1.64-5.5,2.956-7.208,3.855l-1.968,1.032-.514.264c-.116.058-.178.084-.178.084s.056-.038.169-.1l.5-.281,1.951-1.065,7.177-3.909c6.055-3.311,14.4-7.931,23.539-13.162s17.349-10.078,23.268-13.626l7-4.214,1.9-1.145.5-.294C-607.411-151.23-607.351-151.259-607.351-151.259Z" transform="translate(673.539 151.259)" fill="#92e3a9"/>
      </g>
      <g id="Grupo_83726" data-name="Grupo 83726" transform="translate(0.771 0.431)">
        <path id="Trazado_101980" data-name="Trazado 101980" d="M-606.087-111.913c-.027.046-14.943-8.5-33.312-19.076s-33.245-19.2-33.218-19.247,14.94,8.493,33.315,19.077S-606.06-111.96-606.087-111.913Z" transform="translate(672.616 150.236)" fill="#92e3a9"/>
      </g>
    </g>
    <g id="Grupo_83729" data-name="Grupo 83729" transform="translate(-831.582 -185.606)">
      <g id="Grupo_83728" data-name="Grupo 83728" transform="translate(0 0)">
        <path id="Trazado_101981" data-name="Trazado 101981" d="M-588.833-18.3c0,.075-14.857.137-33.18.137S-655.2-18.22-655.2-18.3s14.854-.137,33.183-.137S-588.833-18.371-588.833-18.3Z" transform="translate(655.196 18.432)" fill="#263238"/>
      </g>
    </g>
    <g id="Grupo_83731" data-name="Grupo 83731" transform="translate(-831.582 -181.583)">
      <g id="Grupo_83730" data-name="Grupo 83730" transform="translate(0 0)">
        <path id="Trazado_101982" data-name="Trazado 101982" d="M-588.833-7.567c0,.075-14.857.137-33.18.137S-655.2-7.492-655.2-7.567s14.854-.137,33.183-.137S-588.833-7.643-588.833-7.567Z" transform="translate(655.196 7.704)" fill="#263238"/>
      </g>
    </g>
    <g id="Grupo_83733" data-name="Grupo 83733" transform="translate(-831.074 -171.557)">
      <g id="Grupo_83732" data-name="Grupo 83732" transform="translate(0 0)">
        <path id="Trazado_101983" data-name="Trazado 101983" d="M-624.748,19.156c0,.069-6.513.125-14.545.125s-14.546-.056-14.546-.125,6.512-.126,14.546-.126S-624.748,19.086-624.748,19.156Z" transform="translate(653.84 -19.03)" fill="#263238"/>
      </g>
    </g>
    <g id="Grupo_83735" data-name="Grupo 83735" transform="translate(-831.074 -176.407)">
      <g id="Grupo_83734" data-name="Grupo 83734" transform="translate(0 0)">
        <path id="Trazado_101984" data-name="Trazado 101984" d="M-596.4,6.223c0,.069-12.861.125-28.721.125s-28.723-.056-28.723-.125,12.858-.125,28.723-.125S-596.4,6.154-596.4,6.223Z" transform="translate(653.84 -6.098)" fill="#263238"/>
      </g>
    </g>
    <g id="Grupo_83736" data-name="Grupo 83736" transform="translate(-839.178 -194.842)">
      <path id="Trazado_101985" data-name="Trazado 101985" d="M-592.751-12.21s0-.186-.007-.542,0-.888-.007-1.581c0-1.391-.009-3.44-.017-6.088-.008-5.291-.021-12.971-.036-22.541l.066.067-82.6.031h-.005l.1-.1c0,10.734,0,21.119,0,30.752l-.094-.094,59.181.044,17.209.026,4.609.012,1.193.006c.268,0,.408.006.408.006s-.132,0-.4.006l-1.182.006-4.589.012-17.188.026-59.245.044h-.094v-.094c0-9.633,0-20.018,0-30.752v-.1h.1l82.6.031h.067v.067c-.015,9.587-.028,17.281-.036,22.582-.007,2.641-.013,4.686-.016,6.073,0,.689-.006,1.213-.007,1.569S-592.751-12.21-592.751-12.21Z" transform="translate(675.449 43.06)" fill="#263238"/>
    </g>
    <ellipse id="Elipse_4119" data-name="Elipse 4119" cx="4.203" cy="4.015" rx="4.203" ry="4.015" transform="translate(-923.91 -268.549)" fill="#38e3c2"/>
    <g id="Grupo_83739" data-name="Grupo 83739" transform="translate(-922.271 -254.91)">
      <g id="Grupo_83737" data-name="Grupo 83737" transform="translate(0 0)">
        <rect id="Rectángulo_14948" data-name="Rectángulo 14948" width="55.341" height="36.894" transform="translate(1.06 1.06)" fill="none" stroke="#151d38" stroke-linecap="round" stroke-linejoin="round" stroke-width="1" stroke-dasharray="1 3"/>
        <circle id="Elipse_4120" data-name="Elipse 4120" cx="0.912" cy="0.912" r="0.912" transform="translate(27.818 0.147)" fill="#38e3c2" stroke="#151d38" stroke-linecap="round" stroke-linejoin="round" stroke-width="1"/>
        <circle id="Elipse_4121" data-name="Elipse 4121" cx="0.912" cy="0.912" r="0.912" transform="translate(0.147 18.595)" fill="#38e3c2" stroke="#151d38" stroke-linecap="round" stroke-linejoin="round" stroke-width="1"/>
        <circle id="Elipse_4122" data-name="Elipse 4122" cx="0.912" cy="0.912" r="0.912" transform="translate(27.818 37.042)" fill="#38e3c2" stroke="#151d38" stroke-linecap="round" stroke-linejoin="round" stroke-width="1"/>
        <circle id="Elipse_4123" data-name="Elipse 4123" cx="0.912" cy="0.912" r="0.912" transform="translate(55.489 18.595)" fill="#38e3c2" stroke="#151d38" stroke-linecap="round" stroke-linejoin="round" stroke-width="1"/>
        <rect id="Rectángulo_14949" data-name="Rectángulo 14949" width="2.119" height="2.119" transform="translate(55.341 36.894)" fill="#38e3c2" stroke="#151d38" stroke-linecap="round" stroke-linejoin="round" stroke-width="1"/>
        <rect id="Rectángulo_14950" data-name="Rectángulo 14950" width="2.119" height="2.119" transform="translate(55.341)" fill="#38e3c2" stroke="#151d38" stroke-linecap="round" stroke-linejoin="round" stroke-width="1"/>
        <rect id="Rectángulo_14951" data-name="Rectángulo 14951" width="2.119" height="2.119" transform="translate(0 36.894)" fill="#38e3c2" stroke="#151d38" stroke-linecap="round" stroke-linejoin="round" stroke-width="1"/>
        <rect id="Rectángulo_14952" data-name="Rectángulo 14952" width="2.119" height="2.119" fill="#38e3c2" stroke="#151d38" stroke-linecap="round" stroke-linejoin="round" stroke-width="1"/>
      </g>
      <g id="Grupo_83738" data-name="Grupo 83738" transform="translate(4.732 4.322)">
        <rect id="Rectángulo_14953" data-name="Rectángulo 14953" width="48.165" height="30.604" fill="#fff"/>
        <path id="Trazado_101986" data-name="Trazado 101986" d="M-836.235-155.461l-5.354,5.354-14.486-14.486-6.095,6.095-9.719-9.719L-884.4-155.7v9.283h48.165Z" transform="translate(884.401 177.026)" fill="#38e3c2"/>
        <circle id="Elipse_4124" data-name="Elipse 4124" cx="3.401" cy="3.401" r="3.401" transform="translate(34.786 5.286)" fill="#38e3c2"/>
      </g>
    </g>
    <g id="Grupo_83740" data-name="Grupo 83740" transform="translate(-922.718 -211.303)">
      <rect id="Rectángulo_14954" data-name="Rectángulo 14954" width="57.444" height="11.781" rx="5.891" transform="translate(0 0)" fill="#e0e0e0"/>
    </g>
    <g id="Grupo_83741" data-name="Grupo 83741" transform="translate(-844.014 -244.568)">
      <line id="Línea_10505" data-name="Línea 10505" x2="39.208" transform="translate(0 0)" fill="none" stroke="#263238" stroke-linecap="round" stroke-linejoin="round" stroke-width="2"/>
      <line id="Línea_10506" data-name="Línea 10506" x2="39.208" transform="translate(0 3.093)" fill="none" stroke="#263238" stroke-linecap="round" stroke-linejoin="round" stroke-width="2"/>
      <line id="Línea_10507" data-name="Línea 10507" x2="30.914" transform="translate(0 6.244)" fill="none" stroke="#263238" stroke-linecap="round" stroke-linejoin="round" stroke-width="2"/>
    </g>
    <g id="Grupo_83743" data-name="Grupo 83743" transform="translate(-834.745 -229.23)">
      <line id="Línea_10508" data-name="Línea 10508" x1="53.18" transform="translate(3.349 2.164)" fill="none" stroke="#151d38" stroke-linecap="round" stroke-linejoin="round" stroke-width="1"/>
      <path id="Trazado_101987" data-name="Trazado 101987" d="M-602.2-104.592s0-24.709-27.613-24.709-27.612,24.709-27.612,24.709" transform="translate(659.752 131.346)" fill="none" stroke="#151d38" stroke-linecap="round" stroke-linejoin="round" stroke-width="1"/>
      <circle id="Elipse_4125" data-name="Elipse 4125" cx="2.327" cy="2.327" r="2.327" transform="translate(55.225 24.428)" fill="#38e3c2" stroke="#151d38" stroke-linecap="round" stroke-linejoin="round" stroke-width="1"/>
      <path id="Trazado_101988" data-name="Trazado 101988" d="M-663.629-67.292a2.327,2.327,0,0,1,2.327-2.327,2.327,2.327,0,0,1,2.327,2.327,2.327,2.327,0,0,1-2.327,2.327A2.327,2.327,0,0,1-663.629-67.292Z" transform="translate(663.629 94.047)" fill="#38e3c2" stroke="#151d38" stroke-linecap="round" stroke-linejoin="round" stroke-width="1"/>
      <g id="Grupo_83742" data-name="Grupo 83742" transform="translate(0.281 0)">
        <rect id="Rectángulo_14955" data-name="Rectángulo 14955" width="4.091" height="4.091" transform="translate(59.316 4.091) rotate(180)" fill="#38e3c2" stroke="#151d38" stroke-linecap="round" stroke-linejoin="round" stroke-width="1"/>
        <rect id="Rectángulo_14956" data-name="Rectángulo 14956" width="4.091" height="4.091" transform="translate(31.703 4.091) rotate(180)" fill="#38e3c2" stroke="#151d38" stroke-linecap="round" stroke-linejoin="round" stroke-width="1"/>
        <rect id="Rectángulo_14957" data-name="Rectángulo 14957" width="4.091" height="4.091" transform="translate(4.091 4.091) rotate(180)" fill="#38e3c2" stroke="#151d38" stroke-linecap="round" stroke-linejoin="round" stroke-width="1"/>
      </g>
    </g>
    <g id="Grupo_83744" data-name="Grupo 83744" transform="translate(-830.345 -257.05)">
      <path id="Trazado_101989" data-name="Trazado 101989" d="M-644.656-208.937v5.025l-2.216,2.216H-651.9v-7.242Z" transform="translate(651.898 208.937)" fill="#fff" stroke="#263238" stroke-linecap="round" stroke-linejoin="round" stroke-width="1"/>
      <path id="Trazado_101990" data-name="Trazado 101990" d="M-636.282-195.537l-2.216,2.216v-2.216Z" transform="translate(643.523 200.562)" fill="#fff" stroke="#263238" stroke-linecap="round" stroke-linejoin="round" stroke-width="1"/>
    </g>
    <g id="Grupo_83746" data-name="Grupo 83746" transform="translate(-854.74 -262.273)">
      <rect id="Rectángulo_14958" data-name="Rectángulo 14958" width="20.122" height="12.612" transform="translate(0 0)" fill="#151d38" stroke="#151d38" stroke-linecap="round" stroke-linejoin="round" stroke-width="1"/>
      <rect id="Rectángulo_14959" data-name="Rectángulo 14959" width="20.122" height="1.917" transform="translate(0 0)" fill="#38e3c2" stroke="#151d38" stroke-linecap="round" stroke-linejoin="round" stroke-width="1"/>
      <g id="Grupo_83745" data-name="Grupo 83745" transform="translate(2.054 3.534)">
        <line id="Línea_10509" data-name="Línea 10509" x2="5.143" fill="none" stroke="#fff" stroke-linecap="round" stroke-linejoin="round" stroke-width="1"/>
        <line id="Línea_10510" data-name="Línea 10510" x2="8.902" transform="translate(2.572 1.434)" fill="none" stroke="#fff" stroke-linecap="round" stroke-linejoin="round" stroke-width="1"/>
        <line id="Línea_10511" data-name="Línea 10511" x2="2.621" transform="translate(1.434 2.772)" fill="none" stroke="#fff" stroke-linecap="round" stroke-linejoin="round" stroke-width="1"/>
        <line id="Línea_10512" data-name="Línea 10512" x2="5.996" transform="translate(2.572 4.352)" fill="none" stroke="#fff" stroke-linecap="round" stroke-linejoin="round" stroke-width="1"/>
        <line id="Línea_10513" data-name="Línea 10513" x2="5.143" transform="translate(0 5.786)" fill="none" stroke="#fff" stroke-linecap="round" stroke-linejoin="round" stroke-width="1"/>
      </g>
    </g>
    <g id="Grupo_83747" data-name="Grupo 83747" transform="translate(-870.959 -195.419)">
      <line id="Línea_10514" data-name="Línea 10514" x2="14.523" transform="translate(0 0)" fill="none" stroke="#263238" stroke-linecap="round" stroke-linejoin="round" stroke-width="2"/>
      <line id="Línea_10515" data-name="Línea 10515" x2="14.523" transform="translate(0 2.329)" fill="none" stroke="#263238" stroke-linecap="round" stroke-linejoin="round" stroke-width="2"/>
      <line id="Línea_10516" data-name="Línea 10516" x2="8.278" transform="translate(0 4.702)" fill="none" stroke="#263238" stroke-linecap="round" stroke-linejoin="round" stroke-width="2"/>
    </g>
    <path id="Trazado_101991" data-name="Trazado 101991" d="M-827.105-35.758h-7.646a1.882,1.882,0,0,1-1.881-1.882h0a1.881,1.881,0,0,1,1.881-1.881h7.646a1.881,1.881,0,0,1,1.881,1.881h0A1.882,1.882,0,0,1-827.105-35.758Z" transform="translate(-62.992 -153.994)" fill="#38e3c2" stroke="#151d38" stroke-linecap="round" stroke-linejoin="round" stroke-width="1"/>
    <path id="Trazado_101992" data-name="Trazado 101992" d="M-789.112-35.758h-7.646a1.882,1.882,0,0,1-1.882-1.882h0a1.882,1.882,0,0,1,1.882-1.881h7.646a1.882,1.882,0,0,1,1.882,1.881h0A1.882,1.882,0,0,1-789.112-35.758Z" transform="translate(-86.737 -153.994)" fill="#38e3c2" stroke="#151d38" stroke-linecap="round" stroke-linejoin="round" stroke-width="1"/>
  </g>
</svg>
