<svg xmlns="http://www.w3.org/2000/svg" width="620" height="317" viewBox="0 0 620 317">
  <g id="Grupo_96854" data-name="Grupo 96854" transform="translate(9151 6345)">
    <rect id="Rectángulo_35649" data-name="Rectángulo 35649" width="620" height="317" transform="translate(-9151 -6345)" fill="#ffd947" opacity="0.7"/>
    <g id="Grupo_94818" data-name="Grupo 94818" transform="translate(-9021.98 -6367.123)">
      <g id="Grupo_94814" data-name="Grupo 94814">
        <path id="Trazado_151111" data-name="Trazado 151111" d="M240.569,157.513v-5.869l21.7-1.007V139.749l-21.7-1v-4.518H223.6V114.313a8.2,8.2,0,0,0-8.18-8.19H146.818a8.2,8.2,0,0,0-8.183,8.19v19.914H121.673v4.518l-21.693,1v10.888l21.693,1.007v5.869h16.962v12.651H121.673v4.508l-21.693,1.01v10.882l21.693,1.011v5.868h16.962V207.45H121.673v4.52L99.98,212.978V223.86l21.693,1.006v5.87h16.962v17.206a8.188,8.188,0,0,0,8.183,8.181h68.607a8.188,8.188,0,0,0,8.181-8.181V230.736H240.57v-5.87l21.7-1.006V212.978l-21.7-1.008v-4.52H223.6V193.442h16.964v-5.867l21.7-1.012V175.682l-21.7-1.011v-4.507H223.6V157.512h16.964Zm-16.285-18.989h11.984v4.322l21.7,1.012v2.671l-21.7,1.011v5.67H224.284ZM137.965,153.21H125.973v-5.667l-21.695-1.011v-2.671l21.7-1.012v-4.322h11.988V153.21Zm0,35.931H125.973v-5.663l-21.7-1.011V179.79l21.7-1.012v-4.322h11.989V189.14h0Zm0,37.285H125.973v-5.671l-21.7-1.009v-2.671l21.7-1.009v-4.318h11.989v14.678Zm15.713-98.973a5.313,5.313,0,1,1,5.311-5.314A5.321,5.321,0,0,1,153.678,127.453Zm70.606,84.295h11.984v4.318l21.7,1.009v2.671l-21.7,1.009v5.671H224.284Zm0-37.289h11.984v4.322l21.7,1.011v2.679l-21.7,1.01v5.665H224.284Z" fill="#3c0761"/>
      </g>
    </g>
  </g>
</svg>
