<svg xmlns="http://www.w3.org/2000/svg" xmlns:xlink="http://www.w3.org/1999/xlink" width="253.714" height="43.114" viewBox="0 0 253.714 43.114">
  <defs>
    <clipPath id="clip-path">
      <rect id="Rectángulo_24397" data-name="Rectángulo 24397" width="43.108" height="253.708" transform="translate(2499.498 419.665) rotate(90)" fill="none"/>
    </clipPath>
  </defs>
  <g id="Grupo_93699" data-name="Grupo 93699" transform="translate(-2245.79 -419.665)">
    <rect id="Rectángulo_24394" data-name="Rectángulo 24394" width="43.108" height="253.708" transform="translate(2499.504 419.671) rotate(90)" fill="#fff"/>
    <g id="Grupo_94422" data-name="Grupo 94422">
      <g id="Grupo_94421" data-name="Grupo 94421" clip-path="url(#clip-path)">
        <g id="Grupo_94420" data-name="Grupo 94420">
          <g id="Grupo_94302" data-name="Grupo 94302" style="isolation: isolate">
            <path id="Trazado_150601" data-name="Trazado 150601" d="M2245.79,676.129H2499.5V422.422H2245.79Zm242.939-242.937V665.36H2256.557V433.192Z" fill="#ececec"/>
          </g>
          <g id="Grupo_94303" data-name="Grupo 94303">
            <rect id="Rectángulo_24395" data-name="Rectángulo 24395" width="210.635" height="210.632" rx="2.077" transform="translate(2267.326 443.959)" fill="#263238"/>
          </g>
          <g id="Grupo_94304" data-name="Grupo 94304" opacity="0.2" style="isolation: isolate">
            <rect id="Rectángulo_24396" data-name="Rectángulo 24396" width="181.92" height="181.916" rx="0.077" transform="translate(2281.684 458.317)" fill="#fff"/>
          </g>
          <g id="Grupo_94419" data-name="Grupo 94419">
            <g id="Grupo_94361" data-name="Grupo 94361">
              <g id="Grupo_94332" data-name="Grupo 94332">
                <g id="Grupo_94305" data-name="Grupo 94305">
                  <path id="Trazado_150602" data-name="Trazado 150602" d="M2261.162,630.082h-12.1v3.107h12.1v2.588h12.515v-8.283h-12.515Z" fill="#ffd947"/>
                </g>
                <g id="Grupo_94306" data-name="Grupo 94306">
                  <path id="Trazado_150603" data-name="Trazado 150603" d="M2261.162,616.355h-12.1v3.107h12.1v2.588h12.515v-8.283h-12.515Z" fill="#ffd947"/>
                </g>
                <g id="Grupo_94307" data-name="Grupo 94307">
                  <path id="Trazado_150604" data-name="Trazado 150604" d="M2261.162,602.628h-12.1v3.107h12.1v2.588h12.515V600.04h-12.515Z" fill="#ffd947"/>
                </g>
                <g id="Grupo_94308" data-name="Grupo 94308">
                  <path id="Trazado_150605" data-name="Trazado 150605" d="M2261.162,588.9h-12.1v3.107h12.1V594.6h12.515v-8.283h-12.515Z" fill="#ffd947"/>
                </g>
                <g id="Grupo_94309" data-name="Grupo 94309">
                  <path id="Trazado_150606" data-name="Trazado 150606" d="M2261.162,575.175h-12.1v3.107h12.1v2.588h12.515v-8.283h-12.515Z" fill="#ffd947"/>
                </g>
                <g id="Grupo_94310" data-name="Grupo 94310">
                  <path id="Trazado_150607" data-name="Trazado 150607" d="M2261.162,561.448h-12.1v3.107h12.1v2.588h12.515V558.86h-12.515Z" fill="#ffd947"/>
                </g>
                <g id="Grupo_94311" data-name="Grupo 94311">
                  <path id="Trazado_150608" data-name="Trazado 150608" d="M2261.162,547.721h-12.1v3.107h12.1v2.588h12.515v-8.283h-12.515Z" fill="#ffd947"/>
                </g>
                <g id="Grupo_94312" data-name="Grupo 94312">
                  <path id="Trazado_150609" data-name="Trazado 150609" d="M2261.162,533.995h-12.1V537.1h12.1v2.587h12.515v-8.283h-12.515Z" fill="#ffd947"/>
                </g>
                <g id="Grupo_94313" data-name="Grupo 94313">
                  <path id="Trazado_150610" data-name="Trazado 150610" d="M2261.162,520.268h-12.1v3.107h12.1v2.588h12.515V517.68h-12.515Z" fill="#ffd947"/>
                </g>
                <g id="Grupo_94314" data-name="Grupo 94314">
                  <path id="Trazado_150611" data-name="Trazado 150611" d="M2261.162,506.542h-12.1v3.107h12.1v2.587h12.515v-8.283h-12.515Z" fill="#ffd947"/>
                </g>
                <g id="Grupo_94315" data-name="Grupo 94315">
                  <path id="Trazado_150612" data-name="Trazado 150612" d="M2261.162,492.814h-12.1v3.107h12.1v2.588h12.515v-8.283h-12.515Z" fill="#ffd947"/>
                </g>
                <g id="Grupo_94316" data-name="Grupo 94316">
                  <path id="Trazado_150613" data-name="Trazado 150613" d="M2261.162,479.088h-12.1V482.2h12.1v2.587h12.515V476.5h-12.515Z" fill="#ffd947"/>
                </g>
                <g id="Grupo_94317" data-name="Grupo 94317">
                  <path id="Trazado_150614" data-name="Trazado 150614" d="M2261.162,465.361h-12.1v3.107h12.1v2.588h12.515v-8.283h-12.515Z" fill="#ffd947"/>
                </g>
                <g id="Grupo_94331" data-name="Grupo 94331" opacity="0.3" style="isolation: isolate">
                  <g id="Grupo_94318" data-name="Grupo 94318">
                    <path id="Trazado_150615" data-name="Trazado 150615" d="M2261.162,630.082h-12.1v3.107h12.1v2.588h12.515v-8.283h-12.515Z" fill="#fff"/>
                  </g>
                  <g id="Grupo_94319" data-name="Grupo 94319">
                    <path id="Trazado_150616" data-name="Trazado 150616" d="M2261.162,616.355h-12.1v3.107h12.1v2.588h12.515v-8.283h-12.515Z" fill="#fff"/>
                  </g>
                  <g id="Grupo_94320" data-name="Grupo 94320">
                    <path id="Trazado_150617" data-name="Trazado 150617" d="M2261.162,602.628h-12.1v3.107h12.1v2.588h12.515V600.04h-12.515Z" fill="#fff"/>
                  </g>
                  <g id="Grupo_94321" data-name="Grupo 94321">
                    <path id="Trazado_150618" data-name="Trazado 150618" d="M2261.162,588.9h-12.1v3.107h12.1V594.6h12.515v-8.283h-12.515Z" fill="#fff"/>
                  </g>
                  <g id="Grupo_94322" data-name="Grupo 94322">
                    <path id="Trazado_150619" data-name="Trazado 150619" d="M2261.162,575.175h-12.1v3.107h12.1v2.588h12.515v-8.283h-12.515Z" fill="#fff"/>
                  </g>
                  <g id="Grupo_94323" data-name="Grupo 94323">
                    <path id="Trazado_150620" data-name="Trazado 150620" d="M2261.162,561.448h-12.1v3.107h12.1v2.588h12.515V558.86h-12.515Z" fill="#fff"/>
                  </g>
                  <g id="Grupo_94324" data-name="Grupo 94324">
                    <path id="Trazado_150621" data-name="Trazado 150621" d="M2261.162,547.721h-12.1v3.107h12.1v2.588h12.515v-8.283h-12.515Z" fill="#fff"/>
                  </g>
                  <g id="Grupo_94325" data-name="Grupo 94325">
                    <path id="Trazado_150622" data-name="Trazado 150622" d="M2261.162,533.995h-12.1V537.1h12.1v2.587h12.515v-8.283h-12.515Z" fill="#fff"/>
                  </g>
                  <g id="Grupo_94326" data-name="Grupo 94326">
                    <path id="Trazado_150623" data-name="Trazado 150623" d="M2261.162,520.268h-12.1v3.107h12.1v2.588h12.515V517.68h-12.515Z" fill="#fff"/>
                  </g>
                  <g id="Grupo_94327" data-name="Grupo 94327">
                    <path id="Trazado_150624" data-name="Trazado 150624" d="M2261.162,506.542h-12.1v3.107h12.1v2.587h12.515v-8.283h-12.515Z" fill="#fff"/>
                  </g>
                  <g id="Grupo_94328" data-name="Grupo 94328">
                    <path id="Trazado_150625" data-name="Trazado 150625" d="M2261.162,492.814h-12.1v3.107h12.1v2.588h12.515v-8.283h-12.515Z" fill="#fff"/>
                  </g>
                  <g id="Grupo_94329" data-name="Grupo 94329">
                    <path id="Trazado_150626" data-name="Trazado 150626" d="M2261.162,479.088h-12.1V482.2h12.1v2.587h12.515V476.5h-12.515Z" fill="#fff"/>
                  </g>
                  <g id="Grupo_94330" data-name="Grupo 94330">
                    <path id="Trazado_150627" data-name="Trazado 150627" d="M2261.162,465.361h-12.1v3.107h12.1v2.588h12.515v-8.283h-12.515Z" fill="#fff"/>
                  </g>
                </g>
              </g>
              <g id="Grupo_94360" data-name="Grupo 94360">
                <g id="Grupo_94333" data-name="Grupo 94333">
                  <path id="Trazado_150628" data-name="Trazado 150628" d="M2484.125,468.468h12.1v-3.107h-12.1v-2.588H2471.61v8.283h12.515Z" fill="#ffd947"/>
                </g>
                <g id="Grupo_94334" data-name="Grupo 94334">
                  <path id="Trazado_150629" data-name="Trazado 150629" d="M2484.125,482.2h12.1v-3.107h-12.1V476.5H2471.61v8.283h12.515Z" fill="#ffd947"/>
                </g>
                <g id="Grupo_94335" data-name="Grupo 94335">
                  <path id="Trazado_150630" data-name="Trazado 150630" d="M2484.125,495.922h12.1v-3.107h-12.1v-2.588H2471.61v8.283h12.515Z" fill="#ffd947"/>
                </g>
                <g id="Grupo_94336" data-name="Grupo 94336">
                  <path id="Trazado_150631" data-name="Trazado 150631" d="M2484.125,509.649h12.1v-3.107h-12.1v-2.588H2471.61v8.283h12.515Z" fill="#ffd947"/>
                </g>
                <g id="Grupo_94337" data-name="Grupo 94337">
                  <path id="Trazado_150632" data-name="Trazado 150632" d="M2484.125,523.375h12.1v-3.107h-12.1V517.68H2471.61v8.283h12.515Z" fill="#ffd947"/>
                </g>
                <g id="Grupo_94338" data-name="Grupo 94338">
                  <path id="Trazado_150633" data-name="Trazado 150633" d="M2484.125,537.1h12.1v-3.107h-12.1v-2.588H2471.61v8.283h12.515Z" fill="#ffd947"/>
                </g>
                <g id="Grupo_94339" data-name="Grupo 94339">
                  <path id="Trazado_150634" data-name="Trazado 150634" d="M2484.125,550.828h12.1v-3.107h-12.1v-2.588H2471.61v8.283h12.515Z" fill="#ffd947"/>
                </g>
                <g id="Grupo_94340" data-name="Grupo 94340">
                  <path id="Trazado_150635" data-name="Trazado 150635" d="M2484.125,564.556h12.1v-3.107h-12.1V558.86H2471.61v8.283h12.515Z" fill="#ffd947"/>
                </g>
                <g id="Grupo_94341" data-name="Grupo 94341">
                  <path id="Trazado_150636" data-name="Trazado 150636" d="M2484.125,578.282h12.1v-3.107h-12.1v-2.588H2471.61v8.283h12.515Z" fill="#ffd947"/>
                </g>
                <g id="Grupo_94342" data-name="Grupo 94342">
                  <path id="Trazado_150637" data-name="Trazado 150637" d="M2484.125,592.009h12.1V588.9h-12.1v-2.588H2471.61V594.6h12.515Z" fill="#ffd947"/>
                </g>
                <g id="Grupo_94343" data-name="Grupo 94343">
                  <path id="Trazado_150638" data-name="Trazado 150638" d="M2484.125,605.735h12.1v-3.107h-12.1V600.04H2471.61v8.283h12.515Z" fill="#ffd947"/>
                </g>
                <g id="Grupo_94344" data-name="Grupo 94344">
                  <path id="Trazado_150639" data-name="Trazado 150639" d="M2484.125,619.462h12.1v-3.107h-12.1v-2.588H2471.61v8.283h12.515Z" fill="#ffd947"/>
                </g>
                <g id="Grupo_94345" data-name="Grupo 94345">
                  <path id="Trazado_150640" data-name="Trazado 150640" d="M2484.125,633.189h12.1v-3.107h-12.1v-2.588H2471.61v8.283h12.515Z" fill="#ffd947"/>
                </g>
                <g id="Grupo_94359" data-name="Grupo 94359" opacity="0.3" style="isolation: isolate">
                  <g id="Grupo_94346" data-name="Grupo 94346">
                    <path id="Trazado_150641" data-name="Trazado 150641" d="M2484.125,468.468h12.1v-3.107h-12.1v-2.588H2471.61v8.283h12.515Z" fill="#fff"/>
                  </g>
                  <g id="Grupo_94347" data-name="Grupo 94347">
                    <path id="Trazado_150642" data-name="Trazado 150642" d="M2484.125,482.2h12.1v-3.107h-12.1V476.5H2471.61v8.283h12.515Z" fill="#fff"/>
                  </g>
                  <g id="Grupo_94348" data-name="Grupo 94348">
                    <path id="Trazado_150643" data-name="Trazado 150643" d="M2484.125,495.922h12.1v-3.107h-12.1v-2.588H2471.61v8.283h12.515Z" fill="#fff"/>
                  </g>
                  <g id="Grupo_94349" data-name="Grupo 94349">
                    <path id="Trazado_150644" data-name="Trazado 150644" d="M2484.125,509.649h12.1v-3.107h-12.1v-2.588H2471.61v8.283h12.515Z" fill="#fff"/>
                  </g>
                  <g id="Grupo_94350" data-name="Grupo 94350">
                    <path id="Trazado_150645" data-name="Trazado 150645" d="M2484.125,523.375h12.1v-3.107h-12.1V517.68H2471.61v8.283h12.515Z" fill="#fff"/>
                  </g>
                  <g id="Grupo_94351" data-name="Grupo 94351">
                    <path id="Trazado_150646" data-name="Trazado 150646" d="M2484.125,537.1h12.1v-3.107h-12.1v-2.588H2471.61v8.283h12.515Z" fill="#fff"/>
                  </g>
                  <g id="Grupo_94352" data-name="Grupo 94352">
                    <path id="Trazado_150647" data-name="Trazado 150647" d="M2484.125,550.828h12.1v-3.107h-12.1v-2.588H2471.61v8.283h12.515Z" fill="#fff"/>
                  </g>
                  <g id="Grupo_94353" data-name="Grupo 94353">
                    <path id="Trazado_150648" data-name="Trazado 150648" d="M2484.125,564.556h12.1v-3.107h-12.1V558.86H2471.61v8.283h12.515Z" fill="#fff"/>
                  </g>
                  <g id="Grupo_94354" data-name="Grupo 94354">
                    <path id="Trazado_150649" data-name="Trazado 150649" d="M2484.125,578.282h12.1v-3.107h-12.1v-2.588H2471.61v8.283h12.515Z" fill="#fff"/>
                  </g>
                  <g id="Grupo_94355" data-name="Grupo 94355">
                    <path id="Trazado_150650" data-name="Trazado 150650" d="M2484.125,592.009h12.1V588.9h-12.1v-2.588H2471.61V594.6h12.515Z" fill="#fff"/>
                  </g>
                  <g id="Grupo_94356" data-name="Grupo 94356">
                    <path id="Trazado_150651" data-name="Trazado 150651" d="M2484.125,605.735h12.1v-3.107h-12.1V600.04H2471.61v8.283h12.515Z" fill="#fff"/>
                  </g>
                  <g id="Grupo_94357" data-name="Grupo 94357">
                    <path id="Trazado_150652" data-name="Trazado 150652" d="M2484.125,619.462h12.1v-3.107h-12.1v-2.588H2471.61v8.283h12.515Z" fill="#fff"/>
                  </g>
                  <g id="Grupo_94358" data-name="Grupo 94358">
                    <path id="Trazado_150653" data-name="Trazado 150653" d="M2484.125,633.189h12.1v-3.107h-12.1v-2.588H2471.61v8.283h12.515Z" fill="#fff"/>
                  </g>
                </g>
              </g>
            </g>
            <g id="Grupo_94418" data-name="Grupo 94418">
              <g id="Grupo_94389" data-name="Grupo 94389">
                <g id="Grupo_94362" data-name="Grupo 94362">
                  <path id="Trazado_150654" data-name="Trazado 150654" d="M2291.837,437.793V425.7h-3.107v12.1h-2.588v12.515h8.283V437.793Z" fill="#ffd947"/>
                </g>
                <g id="Grupo_94363" data-name="Grupo 94363">
                  <path id="Trazado_150655" data-name="Trazado 150655" d="M2305.564,437.793V425.7h-3.107v12.1h-2.587v12.515h8.282V437.793Z" fill="#ffd947"/>
                </g>
                <g id="Grupo_94364" data-name="Grupo 94364">
                  <path id="Trazado_150656" data-name="Trazado 150656" d="M2319.291,437.793V425.7h-3.107v12.1H2313.6v12.515h8.283V437.793Z" fill="#ffd947"/>
                </g>
                <g id="Grupo_94365" data-name="Grupo 94365">
                  <path id="Trazado_150657" data-name="Trazado 150657" d="M2333.017,437.793V425.7h-3.107v12.1h-2.587v12.515h8.282V437.793Z" fill="#ffd947"/>
                </g>
                <g id="Grupo_94366" data-name="Grupo 94366">
                  <path id="Trazado_150658" data-name="Trazado 150658" d="M2346.744,437.793V425.7h-3.107v12.1h-2.588v12.515h8.283V437.793Z" fill="#ffd947"/>
                </g>
                <g id="Grupo_94367" data-name="Grupo 94367">
                  <path id="Trazado_150659" data-name="Trazado 150659" d="M2360.47,437.793V425.7h-3.107v12.1h-2.587v12.515h8.283V437.793Z" fill="#ffd947"/>
                </g>
                <g id="Grupo_94368" data-name="Grupo 94368">
                  <path id="Trazado_150660" data-name="Trazado 150660" d="M2374.2,437.793V425.7h-3.107v12.1H2368.5v12.515h8.283V437.793Z" fill="#ffd947"/>
                </g>
                <g id="Grupo_94369" data-name="Grupo 94369">
                  <path id="Trazado_150661" data-name="Trazado 150661" d="M2387.925,437.793V425.7h-3.108v12.1h-2.587v12.515h8.283V437.793Z" fill="#ffd947"/>
                </g>
                <g id="Grupo_94370" data-name="Grupo 94370">
                  <path id="Trazado_150662" data-name="Trazado 150662" d="M2401.651,437.793V425.7h-3.107v12.1h-2.588v12.515h8.283V437.793Z" fill="#ffd947"/>
                </g>
                <g id="Grupo_94371" data-name="Grupo 94371">
                  <path id="Trazado_150663" data-name="Trazado 150663" d="M2415.378,437.793V425.7h-3.108v12.1h-2.587v12.515h8.283V437.793Z" fill="#ffd947"/>
                </g>
                <g id="Grupo_94372" data-name="Grupo 94372">
                  <path id="Trazado_150664" data-name="Trazado 150664" d="M2429.1,437.793V425.7H2426v12.1h-2.588v12.515h8.283V437.793Z" fill="#ffd947"/>
                </g>
                <g id="Grupo_94373" data-name="Grupo 94373">
                  <path id="Trazado_150665" data-name="Trazado 150665" d="M2442.831,437.793V425.7h-3.108v12.1h-2.587v12.515h8.283V437.793Z" fill="#ffd947"/>
                </g>
                <g id="Grupo_94374" data-name="Grupo 94374">
                  <path id="Trazado_150666" data-name="Trazado 150666" d="M2456.558,437.793V425.7h-3.107v12.1h-2.588v12.515h8.283V437.793Z" fill="#ffd947"/>
                </g>
                <g id="Grupo_94388" data-name="Grupo 94388" opacity="0.3" style="isolation: isolate">
                  <g id="Grupo_94375" data-name="Grupo 94375">
                    <path id="Trazado_150667" data-name="Trazado 150667" d="M2291.837,437.793V425.7h-3.107v12.1h-2.588v12.515h8.283V437.793Z" fill="#fff"/>
                  </g>
                  <g id="Grupo_94376" data-name="Grupo 94376">
                    <path id="Trazado_150668" data-name="Trazado 150668" d="M2305.564,437.793V425.7h-3.107v12.1h-2.587v12.515h8.282V437.793Z" fill="#fff"/>
                  </g>
                  <g id="Grupo_94377" data-name="Grupo 94377">
                    <path id="Trazado_150669" data-name="Trazado 150669" d="M2319.291,437.793V425.7h-3.107v12.1H2313.6v12.515h8.283V437.793Z" fill="#fff"/>
                  </g>
                  <g id="Grupo_94378" data-name="Grupo 94378">
                    <path id="Trazado_150670" data-name="Trazado 150670" d="M2333.017,437.793V425.7h-3.107v12.1h-2.587v12.515h8.282V437.793Z" fill="#fff"/>
                  </g>
                  <g id="Grupo_94379" data-name="Grupo 94379">
                    <path id="Trazado_150671" data-name="Trazado 150671" d="M2346.744,437.793V425.7h-3.107v12.1h-2.588v12.515h8.283V437.793Z" fill="#fff"/>
                  </g>
                  <g id="Grupo_94380" data-name="Grupo 94380">
                    <path id="Trazado_150672" data-name="Trazado 150672" d="M2360.47,437.793V425.7h-3.107v12.1h-2.587v12.515h8.283V437.793Z" fill="#fff"/>
                  </g>
                  <g id="Grupo_94381" data-name="Grupo 94381">
                    <path id="Trazado_150673" data-name="Trazado 150673" d="M2374.2,437.793V425.7h-3.107v12.1H2368.5v12.515h8.283V437.793Z" fill="#fff"/>
                  </g>
                  <g id="Grupo_94382" data-name="Grupo 94382">
                    <path id="Trazado_150674" data-name="Trazado 150674" d="M2387.925,437.793V425.7h-3.108v12.1h-2.587v12.515h8.283V437.793Z" fill="#fff"/>
                  </g>
                  <g id="Grupo_94383" data-name="Grupo 94383">
                    <path id="Trazado_150675" data-name="Trazado 150675" d="M2401.651,437.793V425.7h-3.107v12.1h-2.588v12.515h8.283V437.793Z" fill="#fff"/>
                  </g>
                  <g id="Grupo_94384" data-name="Grupo 94384">
                    <path id="Trazado_150676" data-name="Trazado 150676" d="M2415.378,437.793V425.7h-3.108v12.1h-2.587v12.515h8.283V437.793Z" fill="#fff"/>
                  </g>
                  <g id="Grupo_94385" data-name="Grupo 94385">
                    <path id="Trazado_150677" data-name="Trazado 150677" d="M2429.1,437.793V425.7H2426v12.1h-2.588v12.515h8.283V437.793Z" fill="#fff"/>
                  </g>
                  <g id="Grupo_94386" data-name="Grupo 94386">
                    <path id="Trazado_150678" data-name="Trazado 150678" d="M2442.831,437.793V425.7h-3.108v12.1h-2.587v12.515h8.283V437.793Z" fill="#fff"/>
                  </g>
                  <g id="Grupo_94387" data-name="Grupo 94387">
                    <path id="Trazado_150679" data-name="Trazado 150679" d="M2456.558,437.793V425.7h-3.107v12.1h-2.588v12.515h8.283V437.793Z" fill="#fff"/>
                  </g>
                </g>
              </g>
              <g id="Grupo_94417" data-name="Grupo 94417">
                <g id="Grupo_94390" data-name="Grupo 94390">
                  <path id="Trazado_150680" data-name="Trazado 150680" d="M2453.45,660.756v12.1h3.107v-12.1h2.588V648.241h-8.283v12.515Z" fill="#ffd947"/>
                </g>
                <g id="Grupo_94391" data-name="Grupo 94391">
                  <path id="Trazado_150681" data-name="Trazado 150681" d="M2439.723,660.756v12.1h3.108v-12.1h2.587V648.241h-8.283v12.515Z" fill="#ffd947"/>
                </g>
                <g id="Grupo_94392" data-name="Grupo 94392">
                  <path id="Trazado_150682" data-name="Trazado 150682" d="M2426,660.756v12.1h3.107v-12.1h2.588V648.241h-8.283v12.515Z" fill="#ffd947"/>
                </g>
                <g id="Grupo_94393" data-name="Grupo 94393">
                  <path id="Trazado_150683" data-name="Trazado 150683" d="M2412.27,660.756v12.1h3.108v-12.1h2.587V648.241h-8.283v12.515Z" fill="#ffd947"/>
                </g>
                <g id="Grupo_94394" data-name="Grupo 94394">
                  <path id="Trazado_150684" data-name="Trazado 150684" d="M2398.544,660.756v12.1h3.107v-12.1h2.588V648.241h-8.283v12.515Z" fill="#ffd947"/>
                </g>
                <g id="Grupo_94395" data-name="Grupo 94395">
                  <path id="Trazado_150685" data-name="Trazado 150685" d="M2384.817,660.756v12.1h3.108v-12.1h2.587V648.241h-8.283v12.515Z" fill="#ffd947"/>
                </g>
                <g id="Grupo_94396" data-name="Grupo 94396">
                  <path id="Trazado_150686" data-name="Trazado 150686" d="M2371.09,660.756v12.1h3.107v-12.1h2.588V648.241H2368.5v12.515Z" fill="#ffd947"/>
                </g>
                <g id="Grupo_94397" data-name="Grupo 94397">
                  <path id="Trazado_150687" data-name="Trazado 150687" d="M2357.363,660.756v12.1h3.107v-12.1h2.588V648.241h-8.283v12.515Z" fill="#ffd947"/>
                </g>
                <g id="Grupo_94398" data-name="Grupo 94398">
                  <path id="Trazado_150688" data-name="Trazado 150688" d="M2343.637,660.756v12.1h3.107v-12.1h2.588V648.241h-8.283v12.515Z" fill="#ffd947"/>
                </g>
                <g id="Grupo_94399" data-name="Grupo 94399">
                  <path id="Trazado_150689" data-name="Trazado 150689" d="M2329.91,660.756v12.1h3.107v-12.1h2.588V648.241h-8.282v12.515Z" fill="#ffd947"/>
                </g>
                <g id="Grupo_94400" data-name="Grupo 94400">
                  <path id="Trazado_150690" data-name="Trazado 150690" d="M2316.183,660.756v12.1h3.107v-12.1h2.588V648.241H2313.6v12.515Z" fill="#ffd947"/>
                </g>
                <g id="Grupo_94401" data-name="Grupo 94401">
                  <path id="Trazado_150691" data-name="Trazado 150691" d="M2302.457,660.756v12.1h3.107v-12.1h2.588V648.241h-8.282v12.515Z" fill="#ffd947"/>
                </g>
                <g id="Grupo_94402" data-name="Grupo 94402">
                  <path id="Trazado_150692" data-name="Trazado 150692" d="M2288.73,660.756v12.1h3.107v-12.1h2.588V648.241h-8.283v12.515Z" fill="#ffd947"/>
                </g>
                <g id="Grupo_94416" data-name="Grupo 94416" opacity="0.3" style="isolation: isolate">
                  <g id="Grupo_94403" data-name="Grupo 94403">
                    <path id="Trazado_150693" data-name="Trazado 150693" d="M2453.45,660.756v12.1h3.107v-12.1h2.588V648.241h-8.283v12.515Z" fill="#fff"/>
                  </g>
                  <g id="Grupo_94404" data-name="Grupo 94404">
                    <path id="Trazado_150694" data-name="Trazado 150694" d="M2439.723,660.756v12.1h3.108v-12.1h2.587V648.241h-8.283v12.515Z" fill="#fff"/>
                  </g>
                  <g id="Grupo_94405" data-name="Grupo 94405">
                    <path id="Trazado_150695" data-name="Trazado 150695" d="M2426,660.756v12.1h3.107v-12.1h2.588V648.241h-8.283v12.515Z" fill="#fff"/>
                  </g>
                  <g id="Grupo_94406" data-name="Grupo 94406">
                    <path id="Trazado_150696" data-name="Trazado 150696" d="M2412.27,660.756v12.1h3.108v-12.1h2.587V648.241h-8.283v12.515Z" fill="#fff"/>
                  </g>
                  <g id="Grupo_94407" data-name="Grupo 94407">
                    <path id="Trazado_150697" data-name="Trazado 150697" d="M2398.544,660.756v12.1h3.107v-12.1h2.588V648.241h-8.283v12.515Z" fill="#fff"/>
                  </g>
                  <g id="Grupo_94408" data-name="Grupo 94408">
                    <path id="Trazado_150698" data-name="Trazado 150698" d="M2384.817,660.756v12.1h3.108v-12.1h2.587V648.241h-8.283v12.515Z" fill="#fff"/>
                  </g>
                  <g id="Grupo_94409" data-name="Grupo 94409">
                    <path id="Trazado_150699" data-name="Trazado 150699" d="M2371.09,660.756v12.1h3.107v-12.1h2.588V648.241H2368.5v12.515Z" fill="#fff"/>
                  </g>
                  <g id="Grupo_94410" data-name="Grupo 94410">
                    <path id="Trazado_150700" data-name="Trazado 150700" d="M2357.363,660.756v12.1h3.107v-12.1h2.588V648.241h-8.283v12.515Z" fill="#fff"/>
                  </g>
                  <g id="Grupo_94411" data-name="Grupo 94411">
                    <path id="Trazado_150701" data-name="Trazado 150701" d="M2343.637,660.756v12.1h3.107v-12.1h2.588V648.241h-8.283v12.515Z" fill="#fff"/>
                  </g>
                  <g id="Grupo_94412" data-name="Grupo 94412">
                    <path id="Trazado_150702" data-name="Trazado 150702" d="M2329.91,660.756v12.1h3.107v-12.1h2.588V648.241h-8.282v12.515Z" fill="#fff"/>
                  </g>
                  <g id="Grupo_94413" data-name="Grupo 94413">
                    <path id="Trazado_150703" data-name="Trazado 150703" d="M2316.183,660.756v12.1h3.107v-12.1h2.588V648.241H2313.6v12.515Z" fill="#fff"/>
                  </g>
                  <g id="Grupo_94414" data-name="Grupo 94414">
                    <path id="Trazado_150704" data-name="Trazado 150704" d="M2302.457,660.756v12.1h3.107v-12.1h2.588V648.241h-8.282v12.515Z" fill="#fff"/>
                  </g>
                  <g id="Grupo_94415" data-name="Grupo 94415">
                    <path id="Trazado_150705" data-name="Trazado 150705" d="M2288.73,660.756v12.1h3.107v-12.1h2.588V648.241h-8.283v12.515Z" fill="#fff"/>
                  </g>
                </g>
              </g>
            </g>
          </g>
        </g>
      </g>
    </g>
  </g>
</svg>
