<svg xmlns="http://www.w3.org/2000/svg" width="88.774" height="86" viewBox="0 0 88.774 86">
  <g id="Grupo_96829" data-name="Grupo 96829" transform="translate(6757 9666)">
    <g id="Grupo_96828" data-name="Grupo 96828">
      <circle id="Elipse_5176" data-name="Elipse 5176" cx="42.531" cy="42.531" r="42.531" transform="translate(-6755 -9666)" fill="#fed855"/>
      <g id="Grupo_96798" data-name="Grupo 96798" transform="translate(-6968.613 -9878.936)">
        <path id="Trazado_157016" data-name="Trazado 157016" d="M219.935,283.682v13.871a6.936,6.936,0,0,1,0-13.871Z" fill="#c694ff"/>
        <path id="Trazado_157017" data-name="Trazado 157017" d="M299,221.263v55.484a6.928,6.928,0,0,0-6.935-6.936V214.327A6.928,6.928,0,0,1,299,221.263Z" fill="#fff"/>
        <path id="Trazado_157018" data-name="Trazado 157018" d="M261.578,240.71v2.774H246.319v-5.576h15.259Z" fill="#fff"/>
        <circle id="Elipse_5177" data-name="Elipse 5177" cx="5.548" cy="5.548" r="5.548" transform="translate(226.9 250.42)" fill="#fff"/>
        <path id="Trazado_157019" data-name="Trazado 157019" d="M219.935,283.682A6.938,6.938,0,0,0,213,290.618V235.134a6.938,6.938,0,0,1,6.935-6.936h72.13v41.613a6.936,6.936,0,0,1,0,13.871Zm12.513-22.166a5.548,5.548,0,1,0-5.548-5.548A5.546,5.546,0,0,0,232.448,261.516Zm29.13-20.806v-2.8H246.319v5.576h15.259Z" fill="#e9d7ff"/>
        <g id="Grupo_96797" data-name="Grupo 96797">
          <path id="Trazado_157020" data-name="Trazado 157020" d="M299,222.646a1.386,1.386,0,0,1-1.387-1.387,5.555,5.555,0,0,0-5.548-5.549,1.387,1.387,0,1,1,0-2.774,8.331,8.331,0,0,1,8.322,8.323A1.386,1.386,0,0,1,299,222.646Z" fill="#8411ff"/>
          <path id="Trazado_157021" data-name="Trazado 157021" d="M292.065,285.065a1.387,1.387,0,1,1,0-2.774,5.548,5.548,0,0,0,0-11.1,1.387,1.387,0,1,1,0-2.774,8.322,8.322,0,0,1,0,16.645Z" fill="#8411ff"/>
          <path id="Trazado_157022" data-name="Trazado 157022" d="M299,278.13a1.386,1.386,0,0,1-1.387-1.388V221.259a1.387,1.387,0,1,1,2.774,0v55.483A1.386,1.386,0,0,1,299,278.13Z" fill="#8411ff"/>
          <path id="Trazado_157023" data-name="Trazado 157023" d="M292.065,271.194a1.386,1.386,0,0,1-1.388-1.387V214.323a1.387,1.387,0,0,1,2.775,0v55.484A1.386,1.386,0,0,1,292.065,271.194Z" fill="#8411ff"/>
          <path id="Trazado_157024" data-name="Trazado 157024" d="M213,236.517a1.386,1.386,0,0,1-1.387-1.387,8.331,8.331,0,0,1,8.322-8.323,1.387,1.387,0,1,1,0,2.774,5.555,5.555,0,0,0-5.548,5.549A1.386,1.386,0,0,1,213,236.517Z" fill="#8411ff"/>
          <path id="Trazado_157025" data-name="Trazado 157025" d="M219.935,298.936a8.323,8.323,0,0,1,0-16.645,1.387,1.387,0,1,1,0,2.774,5.548,5.548,0,0,0,0,11.1,1.387,1.387,0,1,1,0,2.774Z" fill="#8411ff"/>
          <path id="Trazado_157026" data-name="Trazado 157026" d="M213,292a1.387,1.387,0,0,1-1.387-1.388V235.13a1.387,1.387,0,1,1,2.774,0v55.483A1.387,1.387,0,0,1,213,292Z" fill="#8411ff"/>
          <path id="Trazado_157027" data-name="Trazado 157027" d="M292.065,285.065h-72.13a1.387,1.387,0,0,1,0-2.774h72.13a1.387,1.387,0,0,1,0,2.774Z" fill="#8411ff"/>
          <path id="Trazado_157028" data-name="Trazado 157028" d="M292.065,229.581h-72.13a1.387,1.387,0,1,1,0-2.774h72.13a1.387,1.387,0,0,1,0,2.774Z" fill="#8411ff"/>
          <path id="Trazado_157029" data-name="Trazado 157029" d="M219.935,298.936a1.386,1.386,0,0,1-1.387-1.387V283.678a1.387,1.387,0,0,1,2.775,0v13.871A1.386,1.386,0,0,1,219.935,298.936Z" fill="#8411ff"/>
          <path id="Trazado_157030" data-name="Trazado 157030" d="M232.447,251.8a1.386,1.386,0,0,1-1.387-1.387V240.7a1.387,1.387,0,1,1,2.774,0v9.71A1.386,1.386,0,0,1,232.447,251.8Z" fill="#8411ff"/>
          <path id="Trazado_157031" data-name="Trazado 157031" d="M275.437,251.748a1.386,1.386,0,0,1-1.387-1.387V240.7a1.387,1.387,0,1,1,2.774,0v9.658A1.387,1.387,0,0,1,275.437,251.748Z" fill="#8411ff"/>
          <path id="Trazado_157032" data-name="Trazado 157032" d="M275.437,272.576a1.386,1.386,0,0,1-1.387-1.387V261.53a1.387,1.387,0,0,1,2.774,0v9.659A1.386,1.386,0,0,1,275.437,272.576Z" fill="#8411ff"/>
          <path id="Trazado_157033" data-name="Trazado 157033" d="M261.571,244.864H246.315a1.386,1.386,0,0,1-1.387-1.387v-5.57a1.386,1.386,0,0,1,1.387-1.388h15.256a1.386,1.386,0,0,1,1.387,1.388v5.57a1.387,1.387,0,0,1-1.387,1.387ZM247.7,242.09h12.481v-2.8H247.7Z" fill="#8411ff"/>
          <path id="Trazado_157034" data-name="Trazado 157034" d="M246.315,242.09H232.447a1.387,1.387,0,1,1,0-2.774h13.868a1.387,1.387,0,0,1,0,2.774Z" fill="#8411ff"/>
          <path id="Trazado_157035" data-name="Trazado 157035" d="M275.437,242.09H261.571a1.387,1.387,0,1,1,0-2.774h13.866a1.387,1.387,0,0,1,0,2.774Z" fill="#8411ff"/>
          <path id="Trazado_157036" data-name="Trazado 157036" d="M251.862,275.375a1.386,1.386,0,0,1-1.387-1.387v-5.549a1.387,1.387,0,1,1,2.774,0v5.549A1.386,1.386,0,0,1,251.862,275.375Z" fill="#8411ff"/>
          <path id="Trazado_157037" data-name="Trazado 157037" d="M256.024,275.375a1.387,1.387,0,0,1-1.388-1.387v-5.549a1.388,1.388,0,0,1,2.775,0v5.549A1.387,1.387,0,0,1,256.024,275.375Z" fill="#8411ff"/>
          <path id="Trazado_157038" data-name="Trazado 157038" d="M251.862,272.576H232.447a1.387,1.387,0,0,1,0-2.775h19.415a1.387,1.387,0,0,1,0,2.775Z" fill="#8411ff"/>
          <path id="Trazado_157039" data-name="Trazado 157039" d="M275.437,272.576H256.024a1.387,1.387,0,1,1,0-2.775h19.413a1.387,1.387,0,0,1,0,2.775Z" fill="#8411ff"/>
          <path id="Trazado_157040" data-name="Trazado 157040" d="M232.439,262.908a6.935,6.935,0,1,1,6.935-6.936A6.945,6.945,0,0,1,232.439,262.908Zm0-11.1a4.161,4.161,0,1,0,4.161,4.161A4.167,4.167,0,0,0,232.439,251.811Z" fill="#8411ff"/>
          <path id="Trazado_157041" data-name="Trazado 157041" d="M232.439,272.576a1.386,1.386,0,0,1-1.387-1.387v-9.656a1.387,1.387,0,0,1,2.774,0v9.656A1.387,1.387,0,0,1,232.439,272.576Z" fill="#8411ff"/>
          <path id="Trazado_157042" data-name="Trazado 157042" d="M233.836,258.732a1.383,1.383,0,0,1-.981-.406l-2.774-2.774a1.387,1.387,0,0,1,1.961-1.962l2.774,2.775a1.387,1.387,0,0,1-.98,2.367Z" fill="#8411ff"/>
          <path id="Trazado_157043" data-name="Trazado 157043" d="M231.061,258.732a1.387,1.387,0,0,1-.98-2.367l2.774-2.775a1.387,1.387,0,0,1,1.961,1.962l-2.774,2.774a1.39,1.39,0,0,1-.981.406Z" fill="#8411ff"/>
          <path id="Trazado_157044" data-name="Trazado 157044" d="M278.212,260.122a1.387,1.387,0,0,1-1.317-.951l-2.774-8.374a1.387,1.387,0,0,1,2.634-.873l2.774,8.374a1.387,1.387,0,0,1-.88,1.754,1.425,1.425,0,0,1-.437.07Z" fill="#8411ff"/>
        </g>
      </g>
    </g>
  </g>
</svg>
