<svg xmlns="http://www.w3.org/2000/svg" width="95" height="95" viewBox="0 0 95 95">
  <g id="Grupo_85473" data-name="Grupo 85473" transform="translate(-1222 -3768)">
    <rect id="Rectángulo_31680" data-name="Rectángulo 31680" width="95" height="95" transform="translate(1222 3768)" fill="none"/>
    <path id="llave" d="M9.839,15.222v3.363H5.466A5.473,5.473,0,0,0,0,24.052v31.7a5.473,5.473,0,0,0,5.466,5.466h8.746V65.6H9.839v2.187H49.2V65.6H44.824V61.223H53.57a5.473,5.473,0,0,0,5.466-5.466v-31.7a5.473,5.473,0,0,0-5.466-5.466H49.2V15.222l-4.075-.543a16.3,16.3,0,0,0-1.033-2.5l2.495-3.263-6.3-6.3L37.02,5.108a16.24,16.24,0,0,0-2.5-1.033L33.974,0H25.063L24.52,4.075a16.283,16.283,0,0,0-2.5,1.033L18.754,2.613l-6.3,6.3,2.495,3.263a16.239,16.239,0,0,0-1.033,2.5ZM42.637,65.6H16.4V61.223H42.637ZM56.85,55.756a3.284,3.284,0,0,1-3.28,3.28H5.466a3.284,3.284,0,0,1-3.28-3.28V54.663H56.85ZM53.57,20.772a3.284,3.284,0,0,1,3.28,3.28V52.477H2.187V24.052a3.284,3.284,0,0,1,3.28-3.28ZM29.518,12.026a7.658,7.658,0,0,0-7.565,6.56H19.743a9.835,9.835,0,0,1,19.55,0H37.083A7.658,7.658,0,0,0,29.518,12.026Zm5.356,6.56H24.162a5.466,5.466,0,0,1,10.712,0ZM15.352,9.107l3.595-3.594,2.883,2.205.631-.363A14.119,14.119,0,0,1,25.8,5.978l.7-.19.479-3.6h5.083l.48,3.6.7.19a14.119,14.119,0,0,1,3.336,1.378l.631.363L40.09,5.512l3.595,3.594L41.479,11.99l.363.631a14.119,14.119,0,0,1,1.378,3.336l.19.7,3.6.479v1.449H41.488a12.02,12.02,0,0,0-23.941,0H12.026V17.137l3.6-.48.19-.7a14.119,14.119,0,0,1,1.378-3.336l.363-.631Zm4.78,29.157,3.28-3.28H47.463l4.373-4.373-4.373-4.373H44.371l-.641.641-.641-.641h-2l-.641.641-.641-.641h-2l-.641.641-.641-.641h-2l-.641.641-.641-.641H23.411l-3.28-3.28h-7.6l-5.1,7.653,5.1,7.653ZM13.7,25.145h5.522l3.28,3.28h9.839l1.546,1.546,1.546-1.546h.188l1.546,1.546,1.546-1.546H38.9l1.546,1.546L42,28.425h.188l1.546,1.546,1.546-1.546h1.281l2.187,2.187L46.558,32.8H22.506l-3.28,3.28H13.7L10.06,30.611ZM16.4,33.891a3.28,3.28,0,1,0-3.28-3.28A3.284,3.284,0,0,0,16.4,33.891Zm0-4.373a1.093,1.093,0,1,1-1.093,1.093A1.1,1.1,0,0,1,16.4,29.518ZM8.746,40.451h2.187V50.29H8.746Zm30.611,0h2.187V50.29H39.357Zm-8.746,0H32.8V50.29H30.611Zm-8.746,0h2.187V50.29H21.865Zm26.238,0H50.29V50.29H48.1ZM13.119,48.1h2.187V50.29H13.119Zm0-7.653h2.187v5.466H13.119ZM17.492,48.1h2.187V50.29H17.492Zm0-7.653h2.187v5.466H17.492ZM43.73,48.1h2.187V50.29H43.73Zm0-7.653h2.187v5.466H43.73ZM26.238,48.1h2.187V50.29H26.238Zm0-7.653h2.187v5.466H26.238ZM34.984,48.1h2.187V50.29H34.984Zm0-7.653h2.187v5.466H34.984Zm0,0" transform="translate(1224.37 3778.904)" fill="#fff"/>
  </g>
</svg>
