<svg xmlns="http://www.w3.org/2000/svg" width="308" height="144" viewBox="0 0 308 144">
  <g id="Grupo_85436" data-name="Grupo 85436" transform="translate(-928 -682)">
    <rect id="Rectángulo_31624" data-name="Rectángulo 31624" width="308" height="144" transform="translate(928 682)" fill="#ea3065"/>
    <path id="escaneo-de-huellas-digitales" d="M27,78.468H24.133V75.6H27Zm9.519-1.26,3.465-3.465-2.029-2.029L34.493,75.18a1.426,1.426,0,0,1-1.013.419H29.872v2.869H33.48A4.273,4.273,0,0,0,36.521,77.209ZM21.264,90.539.586,69.861l4.9-4.9V59.08a9.982,9.982,0,0,1,2.941-7.1L19.062,41.344a5.624,5.624,0,0,1,7.771,0,5.433,5.433,0,0,1,1.361,2.343l9.517-9.517a5.469,5.469,0,0,1,9.151,2.42,5.349,5.349,0,0,1,6.054-.413l6.305-6.3a15.707,15.707,0,0,1-.658-4.486V23.113L54.68,19.229,56.709,17.2l1.855,1.855V16.781a15.775,15.775,0,0,1,2.112-7.892l2.483,1.437a12.9,12.9,0,0,0-1.726,6.454v8.608a12.911,12.911,0,1,0,25.823,0V16.781h2.869v8.608A15.774,15.774,0,0,1,60.4,32.755l-5.453,5.451a5.345,5.345,0,0,1-.412,6.054,5.47,5.47,0,0,1,2.42,9.153L54.607,55.76a5.468,5.468,0,0,1,2.347,9.13l-7.986,7.986,10.326,14.2h2.139V75.6h8.608V87.076H72.91V69.861h8.608V87.076h2.869v2.869H57.834L46.915,74.931l-6.334,6.334a9.978,9.978,0,0,1-7.1,2.942H27.6Zm54.515-3.463h2.869V72.73H75.779Zm-11.477,0h2.869V78.468H64.3ZM4.643,69.861,21.264,86.482l5.144-5.144H33.48a7.123,7.123,0,0,0,5.071-2.1L54.927,62.861a2.623,2.623,0,0,0-1.856-4.477,2.614,2.614,0,0,0-1.854.766L40.927,69.44,38.9,67.412,49.186,57.123a0,0,0,0,0,0,0l5.737-5.737a2.623,2.623,0,0,0-3.707-3.711L38.059,60.833,35.19,63.7l-2.029-2.029L49.187,45.646l2.869-2.869A2.622,2.622,0,0,0,50.2,38.3a2.608,2.608,0,0,0-1.855.768L35.19,52.225l-5.738,5.738-2.029-2.029L43.449,39.908a2.622,2.622,0,0,0-1.855-4.477,2.608,2.608,0,0,0-1.855.768l-11.3,11.3h0L22.7,53.239v3.014a9.982,9.982,0,0,1-2.941,7.1L16.54,66.571l-2.029-2.029,3.218-3.216a7.135,7.135,0,0,0,2.1-5.073v-4.2l5.738-5.74V45.23a2.611,2.611,0,0,0-.768-1.858,2.688,2.688,0,0,0-3.711,0L10.452,54.007a7.139,7.139,0,0,0-2.1,5.073v7.071Zm65.4-45.907v1.435a4.3,4.3,0,0,0,8.608,0V16.781a4.3,4.3,0,0,0-8.608,0v4.3H72.91v-4.3a1.435,1.435,0,1,1,2.869,0v8.608a1.435,1.435,0,1,1-2.869,0V23.954Zm14.346-7.173a10.044,10.044,0,0,0-19.513-3.347l2.706.955a7.175,7.175,0,0,1,13.939,2.391v1.435h2.869Zm-20.084,0v8.608a10.042,10.042,0,1,0,20.084,0v-4.3H81.517v4.3a7.173,7.173,0,1,1-14.346,0V16.781Zm25.507-3.155A15.823,15.823,0,0,0,74.344,1,15.66,15.66,0,0,0,63.076,5.734l2.05,2.008a12.809,12.809,0,0,1,9.219-3.873A12.944,12.944,0,0,1,87,14.2Zm-34.535,2.14L40.508,1H14.091V3.869H39.32L53.246,17.795ZM39.914,6.738H14.091V9.608H39.914Zm0,5.738H14.091v2.869H39.914ZM14.091,21.084h2.869V18.215H14.091Zm8.608,0V18.215H19.83v2.869Zm5.738,0V18.215H25.568v2.869Z" transform="translate(965.414 711.533)" fill="#fff"/>
  </g>
</svg>
