<svg xmlns="http://www.w3.org/2000/svg" xmlns:xlink="http://www.w3.org/1999/xlink" width="91" height="91" viewBox="0 0 91 91">
  <defs>
    <linearGradient id="linear-gradient" x1="0.176" y1="0.97" x2="1.064" y2="0.23" gradientUnits="objectBoundingBox">
      <stop offset="0" stop-color="#41dfd0"/>
      <stop offset="1" stop-color="#ee83ef"/>
    </linearGradient>
  </defs>
  <g id="Grupo_85491" data-name="Grupo 85491" transform="translate(-1018 -609)">
    <g id="Grupo_85428" data-name="Grupo 85428" transform="translate(0 -58)">
      <rect id="Rectángulo_31635" data-name="Rectángulo 31635" width="91" height="91" rx="8" transform="translate(1018 667)" fill="#fff"/>
      <path id="logro" d="M42.211,50.4l-2.428,3.237-6.772-8V37.62a3.967,3.967,0,0,0,1-2.618V26.83a3.037,3.037,0,0,0,2-2.884,2.955,2.955,0,0,0-2.954-2.954h-.046V14.131l13.362-5.2a1,1,0,0,0,0-1.864l-18-7A1,1,0,0,0,27.011,1V18.8A4,4,0,0,0,23.669,17H20.752a4.006,4.006,0,0,0-3.473,2.016L14.431,24H1.012a1,1,0,0,0-1,1V36a1,1,0,0,0,1,1H14.82L19.1,38.715A3.988,3.988,0,0,0,20.589,39h6.422v6.66l-4.75,6.176-2.543-2.543a1,1,0,0,0-1.455.042l-8,9A1,1,0,0,0,11.011,60h38a1,1,0,0,0,.8-1.6l-6-8a1.036,1.036,0,0,0-1.6,0ZM28.5,47h3.044L33.4,49.2l-1.392,1.392-1.293-1.293a1,1,0,0,0-1.414,0l-1.293,1.293L26.73,49.307ZM31.011,21h-2V15.687l2-.778Zm-2-18.53L43.252,8l-14.24,5.538ZM12.011,26v9h-2V26Zm-10,0h6v9h-6ZM19.846,36.858l-4.463-1.785A1.012,1.012,0,0,0,15.011,35h-1V26h1a1,1,0,0,0,.868-.5l3.132-5.492A2,2,0,0,1,20.752,19h2.917a2,2,0,0,1,1.94,1.515l.432,1.727a1,1,0,0,0,.97.758h1.008L31.971,23c.014,0,.026.008.04.008s.026-.008.04-.008h1a.948.948,0,0,1,.674.279.984.984,0,0,1,.281.727,1,1,0,0,1-1,1,1,1,0,0,0-1,1v9a2,2,0,0,1-2,2H20.589A1.966,1.966,0,0,1,19.846,36.858ZM30.011,39a3.956,3.956,0,0,0,1-.142V45h-2V39ZM25.5,50.9l1.8,1.8a1,1,0,0,0,1.414,0l1.3-1.286L31.3,52.709a1,1,0,0,0,1.414,0L34.7,50.728,40.855,58H28.425l-4.738-4.738ZM13.238,58l5.816-6.543,2.5,2.495a.947.947,0,0,0,.183.211c.017.012.037.014.054.026L25.6,58Zm30.236,0-2.364-2.8,1.9-2.533,4,5.333ZM6.012,28v2h-2V28Zm0,0" transform="translate(1038.988 679.104)" fill="url(#linear-gradient)"/>
    </g>
  </g>
</svg>
