<svg xmlns="http://www.w3.org/2000/svg" xmlns:xlink="http://www.w3.org/1999/xlink" width="91" height="91" viewBox="0 0 91 91">
  <defs>
    <linearGradient id="linear-gradient" x1="0.5" y1="1" x2="0.5" gradientUnits="objectBoundingBox">
      <stop offset="0" stop-color="#9f2fff"/>
      <stop offset="1" stop-color="#0bb1d3"/>
    </linearGradient>
  </defs>
  <g id="Grupo_85489" data-name="Grupo 85489" transform="translate(-247 -609)">
    <rect id="Rectángulo_31633" data-name="Rectángulo 31633" width="91" height="91" rx="8" transform="translate(247 609)" fill="#fff"/>
    <path id="computadora-de-escritorio" d="M49.079,37.593H36.15l-2.088-4.177h8.753a3.137,3.137,0,0,0,3.133-3.133V3.133A3.137,3.137,0,0,0,42.814,0H9.4A3.137,3.137,0,0,0,6.265,3.133v27.15A3.137,3.137,0,0,0,9.4,33.416h8.753l-2.088,4.177H3.133A3.137,3.137,0,0,0,0,40.726V61.61a3.137,3.137,0,0,0,3.133,3.133H49.079a3.137,3.137,0,0,0,3.133-3.133V40.726A3.137,3.137,0,0,0,49.079,37.593ZM8.354,30.283V3.133A1.045,1.045,0,0,1,9.4,2.088H42.814a1.045,1.045,0,0,1,1.044,1.044v27.15a1.045,1.045,0,0,1-1.044,1.044H9.4A1.045,1.045,0,0,1,8.354,30.283Zm12.132,3.133h11.24l2.088,4.177H18.4ZM50.124,61.61a1.045,1.045,0,0,1-1.044,1.044H3.133A1.045,1.045,0,0,1,2.088,61.61V40.726a1.045,1.045,0,0,1,1.044-1.044H49.079a1.045,1.045,0,0,1,1.044,1.044ZM16.708,60.566H48.035V41.77H16.708ZM18.8,43.858h27.15V58.478H18.8Zm18.8,12.531h6.265V45.947H37.593Zm2.088-8.354H41.77V54.3H39.681Zm-6.265-2.088H35.5v2.088H33.416Zm0,4.177H35.5v2.088H33.416Zm-8.354,6.265h6.265V45.947H25.062Zm2.088-8.354h2.088V54.3H27.15Zm-6.265,2.088h2.088v2.088H20.885Zm0,4.177h2.088v2.088H20.885ZM9.4,45.947a5.221,5.221,0,1,0,5.221,5.221A5.227,5.227,0,0,0,9.4,45.947Zm0,8.354a3.133,3.133,0,1,1,3.133-3.133A3.137,3.137,0,0,1,9.4,54.3Zm1.044-10.442H8.354V41.77h2.088Zm2.088-2.088h2.088v2.088H12.531ZM6.265,43.858H4.177V41.77H6.265ZM8.354,58.478h2.088v2.088H8.354Zm4.177,0h2.088v2.088H12.531Zm-8.354,0H6.265v2.088H4.177Zm6.265-33.416H41.77V4.177H10.442Zm2.088-18.8h27.15V22.973H12.531ZM39.681,27.15H41.77v2.088H39.681Zm-25.062,0h2.088v2.088H14.619Zm-4.177,0h2.088v2.088H10.442ZM23.149,7.774l1.738,1.158L16.533,21.464l-1.738-1.158Zm12.531,0,1.738,1.158L29.063,21.464l-1.738-1.158Zm0,0" transform="translate(266 619.753)" fill="url(#linear-gradient)"/>
  </g>
</svg>
