<svg xmlns="http://www.w3.org/2000/svg" xmlns:xlink="http://www.w3.org/1999/xlink" width="127" height="127" viewBox="0 0 127 127">
  <defs>
    <linearGradient id="linear-gradient" x1="0.5" y1="1" x2="0.5" gradientUnits="objectBoundingBox">
      <stop offset="0" stop-color="#9f2fff"/>
      <stop offset="1" stop-color="#0bb1d3"/>
    </linearGradient>
  </defs>
  <g id="Grupo_85487" data-name="Grupo 85487" transform="translate(-411 -1180)">
    <rect id="Rectángulo_31622" data-name="Rectángulo 31622" width="127" height="127" rx="5" transform="translate(411 1180)" fill="#fff"/>
    <path id="teclado" d="M71.484,27.048V8.661A7.67,7.67,0,0,0,63.823,1H33.177a7.67,7.67,0,0,0-7.661,7.661V27.048a7.654,7.654,0,0,0,.155,1.532H1V77.613H25.515a13.774,13.774,0,0,0,4.244,4.914l4.951,3.536V96H62.29V86.063l4.951-3.536a13.789,13.789,0,0,0,4.244-4.914H96V28.581H71.329a7.654,7.654,0,0,0,.155-1.532ZM28.581,8.661a4.6,4.6,0,0,1,4.6-4.6H63.823a4.6,4.6,0,0,1,4.6,4.6V27.048a4.6,4.6,0,0,1-4.6,4.6H33.177a4.6,4.6,0,0,1-4.6-4.6Zm39.073,47.5a5.369,5.369,0,0,0-5.363,5.363v.766h-5a10.7,10.7,0,0,0-17.578,0h-5v-.766a5.363,5.363,0,0,0-10.726,0v.766H16.323V46.968H80.677V62.29H73.016v-.766A5.369,5.369,0,0,0,67.653,56.161ZM34.71,65.355h3.517a10.647,10.647,0,0,0,1.509,9.227L37.25,73.339a4.569,4.569,0,0,1-2.54-4.111Zm6.129,3.065A7.661,7.661,0,1,1,48.5,76.081,7.67,7.67,0,0,1,40.839,68.419Zm17.935-3.065H62.29v3.874a4.569,4.569,0,0,1-2.54,4.111l-2.485,1.243a10.648,10.648,0,0,0,1.509-9.227ZM33.459,43.9a4.591,4.591,0,0,1,4.315-3.065H59.226A4.591,4.591,0,0,1,63.541,43.9Zm8.912-6.129V34.71H54.629v3.065ZM4.065,74.548v-42.9H27.088a7.63,7.63,0,0,0,6.089,3.065h6.129v3.065H37.774A7.676,7.676,0,0,0,30.268,43.9H16.323a3.068,3.068,0,0,0-3.065,3.065V62.29a3.068,3.068,0,0,0,3.065,3.065h7.661V71.3a13.729,13.729,0,0,0,.391,3.244Zm61.4,5.484-6.235,4.453v8.45H37.774v-8.45l-6.233-4.453A10.745,10.745,0,0,1,27.048,71.3v-9.78a2.3,2.3,0,0,1,4.6,0v7.7a7.618,7.618,0,0,0,4.235,6.852l6.129,3.065H54.991l6.129-3.065a7.618,7.618,0,0,0,4.235-6.852v-7.7a2.3,2.3,0,0,1,4.6,0V71.3A10.747,10.747,0,0,1,65.461,80.032ZM92.935,31.645v42.9H72.627a13.808,13.808,0,0,0,.389-3.244v-5.95h7.661a3.068,3.068,0,0,0,3.065-3.065V46.968A3.068,3.068,0,0,0,80.677,43.9H66.732a7.674,7.674,0,0,0-7.507-6.129H57.694V34.71h6.129a7.626,7.626,0,0,0,6.089-3.065ZM34.71,28.581H62.29a3.068,3.068,0,0,0,3.065-3.065V10.194A3.068,3.068,0,0,0,62.29,7.129H34.71a3.068,3.068,0,0,0-3.065,3.065V25.516A3.068,3.068,0,0,0,34.71,28.581Zm0-18.387H62.29V25.516H34.71ZM19.387,50.032h3.065V53.1H19.387Zm6.129,0h3.065V53.1H25.516Zm6.129,0H34.71V53.1H31.645Zm6.129,0h3.065V53.1H37.774Zm6.129,0h3.065V53.1H43.9Zm6.129,0H53.1V53.1H50.032Zm6.129,0h3.065V53.1H56.161ZM37.774,56.161h3.065v3.065H37.774Zm18.387,0h3.065v3.065H56.161Zm6.129-6.129h3.065V53.1H62.29Zm6.129,0h3.065V53.1H68.419ZM77.613,53.1H74.548V50.032h3.065ZM19.387,56.161h3.065v3.065H19.387Zm58.226,3.065H74.548V56.161h3.065ZM7.129,34.71h3.065v3.065H7.129Zm0,6.129h3.065V43.9H7.129Zm0,6.129h3.065v3.065H7.129ZM89.871,71.484H86.806V68.419h3.065Zm0-6.129H86.806V62.29h3.065Zm0-6.129H86.806V56.161h3.065Z" transform="translate(426 1199)" fill="url(#linear-gradient)"/>
  </g>
</svg>
