<svg xmlns="http://www.w3.org/2000/svg" width="95" height="95" viewBox="0 0 95 95">
  <g id="Grupo_85471" data-name="Grupo 85471" transform="translate(-303 -3768)">
    <path id="control-de-calidad" d="M49.289,31.69,48.6,29.4c.753-.227,1.515-.484,2.267-.767l.84,2.245C50.9,31.174,50.091,31.449,49.289,31.69Zm-5.141,4.4V32.873c.889-.143,1.782-.318,2.668-.521l-.541-2.336c-1.155.268-2.326.479-3.481.632l-1.044.138V36.1c0,.321.007.641.024.96l2.395-.122c-.014-.279-.022-.557-.022-.839ZM29.766,22.574a7.191,7.191,0,1,1-7.191-7.191A7.2,7.2,0,0,1,29.766,22.574Zm-2.4,0a4.794,4.794,0,1,0-4.794,4.794A4.8,4.8,0,0,0,27.369,22.574Zm41.957,3.595,1.191.007v9.918A24.876,24.876,0,0,1,54.146,59.41l-.409.147-.409-.147A24.876,24.876,0,0,1,36.957,36.094V26.176l1.191-.007A32.034,32.034,0,0,0,53.167,22.32l.572-.31.572.31a32.042,32.042,0,0,0,15.016,3.849Zm-1.206,2.37a34.463,34.463,0,0,1-14.382-3.808,34.459,34.459,0,0,1-14.384,3.808V36.1A22.471,22.471,0,0,0,53.737,57,22.474,22.474,0,0,0,68.12,36.1ZM51.34,40.057l9.589-9.589,5.291,5.291L51.34,50.638,43.653,42.95l5.291-5.291Zm9.589-6.2L51.34,43.446l-2.4-2.4-1.9,1.9,4.3,4.3,11.49-11.49Zm8.595-12.482h5.788V36.094a29.561,29.561,0,0,1-5.933,17.7l4.032,14.784L67.492,67.1l-4.479,7.466L58.994,62.511a29.18,29.18,0,0,1-4.919,1.964l-.338.1-.338-.1a29.18,29.18,0,0,1-4.919-1.964L44.462,74.567,39.982,67.1l-5.919,1.48L38.1,53.8a29.671,29.671,0,0,1-5.687-14.119l-.553-.342a19.052,19.052,0,0,1-3.994,1.655l-.743,3.157h-9.09l-.743-3.158a19.051,19.051,0,0,1-3.994-1.655l-2.76,1.709L4.1,34.616l1.709-2.76a19.052,19.052,0,0,1-1.655-3.994L1,27.119v-9.09l3.158-.743a19.052,19.052,0,0,1,1.655-3.994L4.1,10.532,10.532,4.1l2.76,1.709a19.052,19.052,0,0,1,3.994-1.655L18.029,1h9.09l.743,3.158a19.052,19.052,0,0,1,3.994,1.655L34.616,4.1l6.428,6.428-1.709,2.76a19.052,19.052,0,0,1,1.655,3.994l3.158.743v2.626a27.093,27.093,0,0,0,8.883-3.846l.66-.44.7.409a27.14,27.14,0,0,0,15.128,4.6ZM32.189,36.722c0-.21-.026-.417-.026-.628V33.279a14.379,14.379,0,1,1,4.733-11.9h1.055a27.267,27.267,0,0,0,3.8-.272V19.927l-2.724-.641-.175-.714a16.635,16.635,0,0,0-1.938-4.678l-.381-.627,1.473-2.38L34.263,7.143l-2.38,1.473-.627-.381A16.635,16.635,0,0,0,26.578,6.3l-.714-.175L25.221,3.4H19.928l-.641,2.724-.714.175a16.635,16.635,0,0,0-4.678,1.938l-.627.381L10.886,7.143,7.143,10.886l1.473,2.38-.381.627A16.635,16.635,0,0,0,6.3,18.571l-.175.714L3.4,19.928v5.293l2.724.641.175.714a16.635,16.635,0,0,0,1.938,4.678l.381.627-1.473,2.38L10.886,38l2.38-1.473.627.381a16.635,16.635,0,0,0,4.678,1.938l.714.175.642,2.726h5.293l.641-2.724.714-.175a16.635,16.635,0,0,0,4.678-1.938l.627-.381ZM34.5,21.376a12.015,12.015,0,1,0-2.336,8.365V21.376ZM46.352,61.32a29.7,29.7,0,0,1-6.381-5.285l-2.516,9.227,3.67-.917,2.712,4.52Zm21.154-5.283a29.7,29.7,0,0,1-6.381,5.285l2.515,7.545,2.712-4.52,3.67.917Zm5.409-32.263H69.524a29.473,29.473,0,0,1-15.788-4.564,29.5,29.5,0,0,1-15.785,4.564H34.56V36.094a27.342,27.342,0,0,0,19.177,25.98,27.342,27.342,0,0,0,19.177-25.98Z" transform="translate(302 3777.716)" fill="#fff"/>
    <rect id="Rectángulo_31680" data-name="Rectángulo 31680" width="95" height="95" transform="translate(303 3768)" fill="none"/>
  </g>
</svg>
