<svg xmlns="http://www.w3.org/2000/svg" xmlns:xlink="http://www.w3.org/1999/xlink" width="127" height="127" viewBox="0 0 127 127">
  <defs>
    <linearGradient id="linear-gradient" x1="0.5" y1="1" x2="0.5" gradientUnits="objectBoundingBox">
      <stop offset="0" stop-color="#9f2fff"/>
      <stop offset="1" stop-color="#0bb1d3"/>
    </linearGradient>
  </defs>
  <g id="Grupo_85487" data-name="Grupo 85487" transform="translate(-395 -971)">
    <rect id="Rectángulo_31621" data-name="Rectángulo 31621" width="127" height="127" rx="5" transform="translate(395 971)" fill="#fff"/>
    <path id="dato" d="M18.614,61.971a6.782,6.782,0,0,0-5.391,2.71H6.42v8.13h6.8a6.765,6.765,0,1,0,5.391-10.839Zm0,10.839a4.021,4.021,0,0,1-3.5-2.036l-.392-.673H9.13v-2.71h5.6l.392-.673a4.021,4.021,0,0,1,3.5-2.036,4.065,4.065,0,0,1,0,8.13ZM79.585,41.784V17.259H70.422A23.009,23.009,0,0,0,27.212,15.1a9.46,9.46,0,0,0-11.824,5.08,12.19,12.19,0,1,0-2.194,24.18H38.938V47.2a6.786,6.786,0,0,0-5.42,6.638v4.065h-2.71a4.07,4.07,0,0,0-4.065-4.065H5.065A4.07,4.07,0,0,0,1,57.907V79.585A4.07,4.07,0,0,0,5.065,83.65H26.743a4.07,4.07,0,0,0,4.065-4.065h2.847A6.786,6.786,0,0,0,40.293,85H78.23A6.782,6.782,0,0,0,85,78.23V48.422A6.787,6.787,0,0,0,79.585,41.784Zm-2.71-.137h-10.2a6.741,6.741,0,0,0-6.059,3.745l-.837,1.675H41.648v-27.1H76.875Zm-63.681,0a9.484,9.484,0,1,1,9.484-9.484h2.71a12.21,12.21,0,0,0-7.382-11.2,6.761,6.761,0,0,1,9.3-2.859l1.406.778.528-1.519a20.314,20.314,0,0,1,38.346-.1H38.938V41.648Zm27.1,8.13H61.454L63.04,46.6a4.046,4.046,0,0,1,3.635-2.246H78.23A4.07,4.07,0,0,1,82.3,48.422v4.065H36.477a4.059,4.059,0,0,1,3.815-2.71ZM30.808,71.456v-5.42h2.71v5.42Zm2.71-10.839v2.71h-2.71v-2.71ZM28.1,79.585a1.355,1.355,0,0,1-1.355,1.355H5.065A1.355,1.355,0,0,1,3.71,79.585V57.907a1.355,1.355,0,0,1,1.355-1.355H26.743A1.355,1.355,0,0,1,28.1,57.907Zm2.71-5.42H41.648a5.42,5.42,0,1,0,0-10.839v-2.71a8.13,8.13,0,0,1,0,16.259H30.808ZM78.23,82.3H40.293a4.059,4.059,0,0,1-3.815-2.71h5.17a10.839,10.839,0,1,0,0-21.679h-2.71v8.13h2.71a2.71,2.71,0,0,1,0,5.42h-5.42V55.2H82.3V78.23A4.07,4.07,0,0,1,78.23,82.3Zm1.355-32.518h-2.71v-2.71h2.71Zm-5.42,0h-2.71v-2.71h2.71Zm-5.42,0h-2.71v-2.71h2.71Zm5.42-27.1H44.357V33.518H74.166Zm-2.71,8.13H47.067v-5.42H71.456ZM57.907,44.357H44.357v-2.71H57.907Zm-10.839-5.42h-2.71v-2.71h2.71Zm2.71,0v-2.71h2.71v2.71Zm5.42-2.71H74.166v2.71H55.2Zm-24.389,0h2.71v2.71h-2.71Zm-5.42,0H28.1v2.71h-2.71Zm-12.194,0h9.484v2.71H13.194a6.775,6.775,0,0,1,0-13.549V28.1a4.065,4.065,0,0,0,0,8.13ZM43.454,9.976l-.9-2.554a17.389,17.389,0,0,1,2.937-.76l.447,2.673A15.04,15.04,0,0,0,43.454,9.976Zm4.968-.847V6.42A17.67,17.67,0,0,1,62.73,13.758l-2.2,1.583A14.96,14.96,0,0,0,48.422,9.13ZM76.875,76.875h2.71v2.71h-2.71Zm-5.42,0h2.71v2.71h-2.71Zm-5.42,0h2.71v2.71h-2.71Zm0-5.42H79.585v2.71H66.036Z" transform="translate(415 993.998)" fill="url(#linear-gradient)"/>
  </g>
</svg>
