<svg xmlns="http://www.w3.org/2000/svg" xmlns:xlink="http://www.w3.org/1999/xlink" width="110" height="110" viewBox="0 0 110 110">
  <defs>
    <linearGradient id="linear-gradient" x1="0.5" y1="1" x2="0.5" gradientUnits="objectBoundingBox">
      <stop offset="0" stop-color="#12bee5"/>
      <stop offset="0.5" stop-color="#c071e9"/>
      <stop offset="1" stop-color="#f24f5a"/>
    </linearGradient>
  </defs>
  <g id="Grupo_85486" data-name="Grupo 85486" transform="translate(-181.371 -4189.371)">
    <rect id="Rectángulo_31645" data-name="Rectángulo 31645" width="110" height="110" rx="17" transform="translate(181.371 4189.371)" fill="#34084d"/>
    <path id="opcion-de-busqueda" d="M69.379,64.878A21.3,21.3,0,0,0,71.922,44.1c.248-.21.5-.428.746-.659,3.311-3.061,7.257-8.639,7.257-17.83a1.065,1.065,0,0,0-.507-.907L65.572,16.178a1.093,1.093,0,0,0-1.123,0L50.6,24.7a1.066,1.066,0,0,0-.507.907H17.065A1.065,1.065,0,0,0,16,26.675V78.885a1.066,1.066,0,0,0,1.066,1.065H52.227a1.066,1.066,0,0,0,1.065-1.065V73.531A21.191,21.191,0,0,0,64.858,69.4l9.615,9.615a3.2,3.2,0,1,0,4.521-4.521ZM65.01,18.335,77.788,26.2c-.125,6.452-2.309,11.7-6.5,15.61A19.885,19.885,0,0,1,65.009,45.8,19.71,19.71,0,0,1,58.8,41.875c-4.233-3.914-6.441-9.185-6.567-15.674Zm-12.272,19a21.792,21.792,0,0,0,4.614,6.1,21.039,21.039,0,0,0,7.324,4.5,1.065,1.065,0,0,0,.314.048h.038a1.066,1.066,0,0,0,.314-.048c.047-.015.43-.135,1.044-.4A14.92,14.92,0,1,1,52.227,37.33C52.4,37.33,52.568,37.334,52.738,37.339Zm-1.577,40.48H18.131V27.741H50.172A27.549,27.549,0,0,0,50.59,31a21.323,21.323,0,0,0-16.151,9.527H21.327a1.066,1.066,0,0,0,0,2.131H33.2a21.2,21.2,0,0,0-.935,2.131H21.327a1.065,1.065,0,1,0,0,2.131H31.591a21.173,21.173,0,0,0-.434,2.131H21.327a1.065,1.065,0,1,0,0,2.131h9.616q-.027.53-.027,1.066t.027,1.065H21.327a1.065,1.065,0,1,0,0,2.131h9.829a21.127,21.127,0,0,0,.84,3.5,7.421,7.421,0,0,0-1.082.414,7.458,7.458,0,1,0,0,13.476,7.464,7.464,0,0,0,9.553-2.827,21.175,21.175,0,0,0,10.694,3.521ZM35.078,64.883a21.5,21.5,0,0,0,3.666,3.854,5.327,5.327,0,0,1-5.7,2.58,7.433,7.433,0,0,0,2.036-6.434ZM27.72,71.426A5.327,5.327,0,1,1,33.048,66.1a5.327,5.327,0,0,1-5.328,5.327Zm24.506,0A19.179,19.179,0,0,1,51.086,33.1c.208.736.443,1.436.7,2.1A17.036,17.036,0,1,0,68.314,46.6c.57-.317,1.194-.7,1.849-1.151A19.19,19.19,0,0,1,52.227,71.426Zm25.26,6.081a1.066,1.066,0,0,1-1.507,0l-9.464-9.464q.79-.715,1.507-1.507L77.487,76a1.066,1.066,0,0,1,0,1.507Zm-48.7-12.474H27.72a2.131,2.131,0,1,1,0,4.262H26.655a1.065,1.065,0,1,1,0-2.131H27.72a2.131,2.131,0,1,1,0-4.262h1.066a1.066,1.066,0,0,1,0,2.131ZM21.327,38.4H33.048a1.066,1.066,0,0,0,1.066-1.065V33.068A1.066,1.066,0,0,0,33.048,32H21.327a1.065,1.065,0,0,0-1.065,1.065V37.33A1.065,1.065,0,0,0,21.327,38.4Zm1.066-4.262h9.589v2.131H22.393Zm37.591,5.93a18.405,18.405,0,0,0,4.537,3.195,1.066,1.066,0,0,0,.944,0,18.141,18.141,0,0,0,10.1-15.243,1.065,1.065,0,0,0-.5-1c-2.3-1.414-6.125-3.766-9.49-5.831a1.064,1.064,0,0,0-1.116,0L54.969,27.02a1.065,1.065,0,0,0-.5,1.005A18.52,18.52,0,0,0,59.984,40.063Zm5.028-16.724c2.951,1.811,6.17,3.789,8.356,5.135A15.94,15.94,0,0,1,64.995,41.1a15.929,15.929,0,0,1-8.337-12.622ZM63.194,35.953l-2.131-2.131a1.066,1.066,0,1,1,1.507-1.507l1.378,1.378,4.574-4.574a1.066,1.066,0,0,1,1.507,1.507L64.7,35.953a1.065,1.065,0,0,1-1.507,0ZM41.572,52.247A10.667,10.667,0,0,0,52.227,62.9a1.066,1.066,0,0,1,0,2.131A12.8,12.8,0,0,1,39.441,52.247a1.065,1.065,0,1,1,2.131,0Z" transform="translate(188.214 4196.339)" fill="url(#linear-gradient)"/>
  </g>
</svg>
