<svg xmlns="http://www.w3.org/2000/svg" width="97.137" height="88.324" viewBox="0 0 97.137 88.324">
  <g id="Grupo_96828" data-name="Grupo 96828" transform="translate(-341.101 -2027.783)">
    <circle id="Elipse_5178" data-name="Elipse 5178" cx="42.531" cy="42.531" r="42.531" transform="translate(347.139 2031.045)" fill="#fed855"/>
    <g id="Grupo_96815" data-name="Grupo 96815" transform="translate(133.669 1814.783)">
      <g id="Grupo_96813" data-name="Grupo 96813">
        <g id="Grupo_96799" data-name="Grupo 96799">
          <path id="Trazado_157045" data-name="Trazado 157045" d="M265.861,216.549v8.175h5.649a1.883,1.883,0,0,0,1.883-1.883v-4.409a1.884,1.884,0,0,0-1.883-1.883Z" fill="#d9ecfd"/>
          <path id="Trazado_157046" data-name="Trazado 157046" d="M266.547,226.85H237.833a1.883,1.883,0,0,1-1.883-1.883v-8.661a1.883,1.883,0,0,1,1.883-1.883h28.714a1.883,1.883,0,0,1,1.883,1.883v8.661A1.883,1.883,0,0,1,266.547,226.85Z" fill="#23f1a8"/>
          <path id="Trazado_157047" data-name="Trazado 157047" d="M268.429,216.307v8.66a1.881,1.881,0,0,1-1.882,1.882h-5.46a1.882,1.882,0,0,0,1.884-1.882v-8.66a1.884,1.884,0,0,0-1.884-1.884h5.46A1.883,1.883,0,0,1,268.429,216.307Z" fill="#27e19d"/>
        </g>
        <g id="Grupo_96803" data-name="Grupo 96803">
          <g id="Grupo_96802" data-name="Grupo 96802">
            <g id="Grupo_96801" data-name="Grupo 96801">
              <g id="Grupo_96800" data-name="Grupo 96800">
                <circle id="Elipse_5179" data-name="Elipse 5179" cx="7.43" cy="7.43" r="7.43" transform="translate(223.061 240.012)" fill="#ffc988"/>
                <path id="Trazado_157048" data-name="Trazado 157048" d="M237.92,247.442a7.43,7.43,0,0,1-9.773,7.051,7.431,7.431,0,0,0,0-14.1,7.433,7.433,0,0,1,9.773,7.052Z" fill="#fcb44d"/>
              </g>
            </g>
          </g>
        </g>
        <g id="Grupo_96812" data-name="Grupo 96812">
          <g id="Grupo_96807" data-name="Grupo 96807">
            <g id="Grupo_96806" data-name="Grupo 96806">
              <g id="Grupo_96805" data-name="Grupo 96805">
                <g id="Grupo_96804" data-name="Grupo 96804">
                  <circle id="Elipse_5180" data-name="Elipse 5180" cx="7.43" cy="7.43" r="7.43" transform="translate(286.629 227.424)" fill="#64b9fc"/>
                  <path id="Trazado_157049" data-name="Trazado 157049" d="M301.488,234.855a7.43,7.43,0,0,1-9.773,7.05,7.431,7.431,0,0,0,0-14.1,7.356,7.356,0,0,1,2.343-.379,7.43,7.43,0,0,1,7.43,7.431Z" fill="#31a7fb"/>
                </g>
              </g>
            </g>
          </g>
          <g id="Grupo_96811" data-name="Grupo 96811">
            <g id="Grupo_96810" data-name="Grupo 96810">
              <g id="Grupo_96809" data-name="Grupo 96809">
                <g id="Grupo_96808" data-name="Grupo 96808">
                  <circle id="Elipse_5181" data-name="Elipse 5181" cx="7.43" cy="7.43" r="7.43" transform="translate(286.629 271.983)" fill="#fb6672"/>
                  <path id="Trazado_157050" data-name="Trazado 157050" d="M301.488,279.413a7.43,7.43,0,0,1-9.773,7.05,7.431,7.431,0,0,0,0-14.1,7.356,7.356,0,0,1,2.343-.379,7.43,7.43,0,0,1,7.43,7.431Z" fill="#fb4a59"/>
                </g>
              </g>
            </g>
          </g>
        </g>
      </g>
      <g id="Grupo_96814" data-name="Grupo 96814">
        <path id="Trazado_157051" data-name="Trazado 157051" d="M304.352,261.915l-8.871-14.153v-4.171a8.852,8.852,0,0,0,0-17.474v-5.481a1.423,1.423,0,0,0-1.423-1.422H274.816v-.782a3.309,3.309,0,0,0-3.306-3.305h-1.879A3.307,3.307,0,0,0,266.547,213h-7.511a1.423,1.423,0,1,0,0,2.846h7.511a.46.46,0,0,1,.46.46v8.661a.46.46,0,0,1-.46.46H248.159a1.423,1.423,0,1,0,0,2.846h18.388a3.307,3.307,0,0,0,3.084-2.126h1.879a3.31,3.31,0,0,0,3.306-3.306v-.781h17.819v4.058a8.851,8.851,0,0,0,0,17.473v4.581a1.426,1.426,0,0,0,.218.756l9.087,14.5a1.423,1.423,0,1,0,2.412-1.512ZM271.97,222.841a.461.461,0,0,1-.46.46h-1.657v-5.329h1.657a.461.461,0,0,1,.46.46Zm16.081,12.013a6.007,6.007,0,1,1,6.007,6.007A6.014,6.014,0,0,1,288.051,234.854Z"/>
        <path id="Trazado_157052" data-name="Trazado 157052" d="M229.852,244.791a1.423,1.423,0,0,0-2.012,2.012l.638.638-.638.639a1.423,1.423,0,1,0,2.012,2.012l.639-.638.638.638a1.423,1.423,0,0,0,2.012-2.012l-.638-.639.638-.638a1.423,1.423,0,1,0-2.012-2.012l-.638.638Z"/>
        <path id="Trazado_157053" data-name="Trazado 157053" d="M297.807,234.854a1.423,1.423,0,0,0-1.423-1.423h-4.652a1.423,1.423,0,1,0,0,2.846h4.652A1.423,1.423,0,0,0,297.807,234.854Z"/>
        <path id="Trazado_157054" data-name="Trazado 157054" d="M295.481,270.676v-7.282a1.423,1.423,0,1,0-2.846,0v7.284a8.827,8.827,0,0,0-6.429,4.648,1.423,1.423,0,1,0,2.523,1.316,6.008,6.008,0,1,1-.158,5.213,1.423,1.423,0,0,0-2.6,1.159,8.866,8.866,0,0,0,6.663,5.134v4.341H274.3a5.084,5.084,0,0,0-8.55-2.1,5.076,5.076,0,0,0-7.33,0,5.076,5.076,0,0,0-7.33,0,5.077,5.077,0,0,0-7.331,0,5.083,5.083,0,0,0-8.549,2.1H216.868v-8.121h1.965a1.423,1.423,0,0,0,0-2.846h-6.776a1.423,1.423,0,0,0,0,2.846h1.965v9.544a1.423,1.423,0,0,0,1.423,1.423h19.762a5.083,5.083,0,0,0,8.549,2.1,5.077,5.077,0,0,0,7.331,0,5.076,5.076,0,0,0,7.33,0,5.076,5.076,0,0,0,7.33,0,5.084,5.084,0,0,0,8.55-2.1h19.761a1.423,1.423,0,0,0,1.423-1.423v-5.763a8.851,8.851,0,0,0,0-17.473Zm-55.39,25.478a2.242,2.242,0,1,1,2.242-2.242A2.245,2.245,0,0,1,240.091,296.154Zm7.33,0a2.242,2.242,0,1,1,2.243-2.242A2.245,2.245,0,0,1,247.421,296.154Zm7.331,0a2.242,2.242,0,1,1,2.242-2.242A2.245,2.245,0,0,1,254.752,296.154Zm7.33,0a2.242,2.242,0,1,1,2.242-2.242A2.245,2.245,0,0,1,262.082,296.154Zm7.33,0a2.242,2.242,0,1,1,2.243-2.242A2.245,2.245,0,0,1,269.412,296.154Z"/>
        <path id="Trazado_157055" data-name="Trazado 157055" d="M294.058,275.664a1.424,1.424,0,0,0-1.423,1.423v.9h-.9a1.423,1.423,0,1,0,0,2.845h.9v.9a1.423,1.423,0,0,0,2.846,0v-.9h.9a1.423,1.423,0,0,0,0-2.845h-.9v-.9A1.423,1.423,0,0,0,294.058,275.664Z"/>
        <path id="Trazado_157056" data-name="Trazado 157056" d="M222.036,278.509a1.423,1.423,0,1,0,0-2.845h-5.168v-10.3h13.623a1.423,1.423,0,0,0,1.423-1.423v-7.765a8.852,8.852,0,0,0,0-17.474v-5.511a1.423,1.423,0,0,0-1.423-1.423H216.868v-9.712h17.659v2.908a3.31,3.31,0,0,0,3.306,3.306h3.875a1.423,1.423,0,1,0,0-2.846h-3.875a.46.46,0,0,1-.46-.46v-8.661a.46.46,0,0,1,.46-.46h14.752a1.423,1.423,0,0,0,0-2.846H237.833a3.31,3.31,0,0,0-3.306,3.306v2.908H215.445a1.423,1.423,0,0,0-1.423,1.422v55.028h-5.167a1.423,1.423,0,0,0,0,2.846ZM236.5,247.442a6.007,6.007,0,1,1-6.007-6.007A6.014,6.014,0,0,1,236.5,247.442Zm-7.43-12.826v4.089a8.852,8.852,0,0,0,0,17.474v6.342h-12.2v-27.9Z"/>
      </g>
    </g>
  </g>
</svg>
