<svg xmlns="http://www.w3.org/2000/svg" width="60.345" height="100" viewBox="0 0 60.345 100">
  <g id="Grupo_96529" data-name="Grupo 96529" transform="translate(-167.766 -147.499)">
    <path id="Trazado_156863" data-name="Trazado 156863" d="M207.422,149.224a12.069,12.069,0,0,1-24.138,0H169.49v96.552h13.794a12.069,12.069,0,1,1,24.138,0h13.793V149.224Z" fill="#fff394"/>
    <g id="Grupo_96528" data-name="Grupo 96528">
      <path id="Trazado_156864" data-name="Trazado 156864" d="M221.215,247.5H207.422a1.724,1.724,0,0,1-1.725-1.723,10.345,10.345,0,1,0-20.69,0,1.722,1.722,0,0,1-1.723,1.723H169.49a1.723,1.723,0,0,1-1.724-1.723V149.224a1.724,1.724,0,0,1,1.724-1.725h13.794a1.724,1.724,0,0,1,1.723,1.725,10.345,10.345,0,0,0,20.69,0,1.725,1.725,0,0,1,1.725-1.725h13.793a1.724,1.724,0,0,1,1.723,1.725v96.552A1.722,1.722,0,0,1,221.215,247.5Zm-12.176-3.448H219.49v-93.1H209.039a13.794,13.794,0,0,1-27.372,0H171.214v93.1h10.453a13.794,13.794,0,0,1,27.372,0Z" fill="#e5cd07"/>
      <path id="Trazado_156865" data-name="Trazado 156865" d="M179.548,180.288H176.1a1.753,1.753,0,0,1,0-3.507h3.449a1.753,1.753,0,1,1,0,3.507Z" fill="#e5cd07"/>
      <path id="Trazado_156866" data-name="Trazado 156866" d="M188.456,180.288h-3.449a1.753,1.753,0,0,1,0-3.507h3.449a1.753,1.753,0,0,1,0,3.507Z" fill="#e5cd07"/>
      <path id="Trazado_156867" data-name="Trazado 156867" d="M197.364,180.288h-3.448a1.753,1.753,0,1,1,0-3.507h3.448a1.753,1.753,0,0,1,0,3.507Z" fill="#e5cd07"/>
      <path id="Trazado_156868" data-name="Trazado 156868" d="M206.272,180.288h-3.448a1.753,1.753,0,1,1,0-3.507h3.448a1.753,1.753,0,1,1,0,3.507Z" fill="#e5cd07"/>
      <path id="Trazado_156869" data-name="Trazado 156869" d="M215.18,180.288h-3.448a1.753,1.753,0,1,1,0-3.507h3.448a1.753,1.753,0,0,1,0,3.507Z" fill="#e5cd07"/>
      <path id="Trazado_156870" data-name="Trazado 156870" d="M202.249,192.356H176.386a1.754,1.754,0,0,1,0-3.507h25.863a1.754,1.754,0,0,1,0,3.507Z" fill="#e5cd07"/>
      <path id="Trazado_156871" data-name="Trazado 156871" d="M210.87,199.253H176.386a1.754,1.754,0,0,1,0-3.507H210.87a1.754,1.754,0,0,1,0,3.507Z" fill="#e5cd07"/>
      <path id="Trazado_156872" data-name="Trazado 156872" d="M202.249,206.15H176.386a1.754,1.754,0,0,1,0-3.508h25.863a1.754,1.754,0,0,1,0,3.508Z" fill="#e5cd07"/>
      <path id="Trazado_156873" data-name="Trazado 156873" d="M193.629,213.047H176.386a1.754,1.754,0,0,1,0-3.508h17.243a1.754,1.754,0,0,1,0,3.508Z" fill="#e5cd07"/>
    </g>
    <path id="Trazado_156874" data-name="Trazado 156874" d="M214.318,235.431a1.726,1.726,0,0,1-1.725-1.725v-6.9a1.725,1.725,0,0,1,3.449,0v6.9A1.725,1.725,0,0,1,214.318,235.431Z" fill="#fff"/>
    <path id="Trazado_156875" data-name="Trazado 156875" d="M217.766,231.983h-6.9a1.725,1.725,0,1,1,0-3.449h6.9a1.725,1.725,0,0,1,0,3.449Z" fill="#fff"/>
    <path id="Trazado_156876" data-name="Trazado 156876" d="M221.215,149.224h5.171v96.552h-5.171Z" fill="#e5cd07"/>
    <path id="Trazado_156877" data-name="Trazado 156877" d="M226.386,247.5h-5.171a1.724,1.724,0,0,1-1.725-1.723V149.224a1.725,1.725,0,0,1,1.725-1.725h5.171a1.725,1.725,0,0,1,1.725,1.725v96.552A1.724,1.724,0,0,1,226.386,247.5Zm-3.448-3.448h1.725v-93.1h-1.725Z" fill="#e5cd07"/>
    <path id="Trazado_156878" data-name="Trazado 156878" d="M174.663,166.465a1.725,1.725,0,0,1-1.725-1.724V154.4a1.724,1.724,0,1,1,3.448,0v10.345A1.723,1.723,0,0,1,174.663,166.465Z" fill="#fff"/>
  </g>
</svg>
