<svg id="Grupo_96793" data-name="Grupo 96793" xmlns="http://www.w3.org/2000/svg" width="85.063" height="85.063" viewBox="0 0 85.063 85.063">
  <circle id="Elipse_5156" data-name="Elipse 5156" cx="42.531" cy="42.531" r="42.531" transform="translate(0 0)" fill="#fed855"/>
  <g id="Grupo_96793-2" data-name="Grupo 96793" transform="translate(6.36 3.577)">
    <path id="Trazado_156992" data-name="Trazado 156992" d="M156.128,39.155h-37.5V23.918h-9.142v-2.65h11.792V36.5h34.846Z" transform="translate(-97.432 -21.268)" fill="#183651"/>
    <path id="Trazado_156993" data-name="Trazado 156993" d="M319.646,197.6H307.191V168.853H293.809V166.2h16.032v28.752H317V186.74h2.65Z" transform="translate(-250.748 -141.824)" fill="#183651"/>
    <path id="Trazado_156994" data-name="Trazado 156994" d="M241.857,238.78H231.39V229.5h-7.685v-2.65H234.04v9.275h7.817Z" transform="translate(-192.436 -192.274)" fill="#183651"/>
    <path id="Trazado_156995" data-name="Trazado 156995" d="M241.93,323.372H231.2v-8.48H215.828v-8.48h2.65v5.83h15.369v8.48h8.082Z" transform="translate(-185.884 -258.449)" fill="#183651"/>
    <path id="Trazado_156996" data-name="Trazado 156996" d="M261.334,403.01H231.39v-8.877h-7.685v-2.65H234.04v8.877h24.644v-7.552h2.65Z" transform="translate(-192.436 -329.21)" fill="#183651"/>
    <path id="Trazado_156997" data-name="Trazado 156997" d="M69.078,156.177H59.008V116.3h-21.2V89.8H49.866v2.65H40.459v21.2h21.2v39.881h7.42Z" transform="translate(-37.809 -78.27)" fill="#183651"/>
    <rect id="Rectángulo_35764" data-name="Rectángulo 35764" width="2.65" height="30.871" transform="translate(66.248 1.325)" fill="#183651"/>
  </g>
  <circle id="Elipse_5157" data-name="Elipse 5157" cx="3.445" cy="3.445" r="3.445" transform="translate(70.488 1.458)" fill="#fcbd5e"/>
  <path id="Trazado_156998" data-name="Trazado 156998" d="M415.945,10.328a4.77,4.77,0,1,1,4.77-4.77A4.75,4.75,0,0,1,415.945,10.328Zm0-6.89a2.12,2.12,0,1,0,2.12,2.12A2.093,2.093,0,0,0,415.945,3.438Z" transform="translate(-342.012 -0.655)" fill="#183651"/>
  <circle id="Elipse_5158" data-name="Elipse 5158" cx="3.445" cy="3.445" r="3.445" transform="translate(70.488 31.932)" fill="#fcbd5e"/>
  <path id="Trazado_156999" data-name="Trazado 156999" d="M415.945,191.5a4.77,4.77,0,1,1,4.77-4.77A4.75,4.75,0,0,1,415.945,191.5Zm0-6.89a2.12,2.12,0,1,0,2.12,2.12A2.093,2.093,0,0,0,415.945,184.607Z" transform="translate(-342.012 -151.35)" fill="#183651"/>
  <circle id="Elipse_5159" data-name="Elipse 5159" cx="3.445" cy="3.445" r="3.445" transform="translate(70.488 44.916)" fill="#fcbd5e"/>
  <path id="Trazado_157000" data-name="Trazado 157000" d="M415.945,268.691a4.77,4.77,0,1,1,4.77-4.77A4.75,4.75,0,0,1,415.945,268.691Zm0-6.89a2.12,2.12,0,1,0,2.12,2.12A2.093,2.093,0,0,0,415.945,261.8Z" transform="translate(-342.012 -215.56)" fill="#183651"/>
  <circle id="Elipse_5160" data-name="Elipse 5160" cx="3.445" cy="3.445" r="3.445" transform="translate(70.488 63.73)" fill="#fcbd5e"/>
  <path id="Trazado_157001" data-name="Trazado 157001" d="M415.945,380.543a4.77,4.77,0,1,1,4.77-4.77A4.75,4.75,0,0,1,415.945,380.543Zm0-6.89a2.12,2.12,0,1,0,2.12,2.12A2.179,2.179,0,0,0,415.945,373.653Z" transform="translate(-342.012 -308.597)" fill="#183651"/>
  <circle id="Elipse_5161" data-name="Elipse 5161" cx="3.445" cy="3.445" r="3.445" transform="translate(58.961 63.73)" fill="#fcbd5e"/>
  <path id="Trazado_157002" data-name="Trazado 157002" d="M347.416,380.543a4.77,4.77,0,1,1,4.77-4.77A4.836,4.836,0,0,1,347.416,380.543Zm0-6.89a2.12,2.12,0,1,0,2.12,2.12A2.28,2.28,0,0,0,347.416,373.653Z" transform="translate(-285.01 -308.597)" fill="#183651"/>
  <circle id="Elipse_5162" data-name="Elipse 5162" cx="3.445" cy="3.445" r="3.445" transform="translate(34.184 63.73)" fill="#fcbd5e"/>
  <path id="Trazado_157003" data-name="Trazado 157003" d="M200.118,380.543a4.77,4.77,0,1,1,4.77-4.77A4.75,4.75,0,0,1,200.118,380.543Zm0-6.89a2.12,2.12,0,1,0,2.12,2.12A2.179,2.179,0,0,0,200.118,373.653Z" transform="translate(-162.489 -308.597)" fill="#183651"/>
  <circle id="Elipse_5163" data-name="Elipse 5163" cx="3.445" cy="3.445" r="3.445" transform="translate(34.184 48.096)" fill="#fcbd5e"/>
  <path id="Trazado_157004" data-name="Trazado 157004" d="M200.118,287.595a4.77,4.77,0,1,1,4.77-4.77A4.75,4.75,0,0,1,200.118,287.595Zm0-6.89a2.12,2.12,0,1,0,2.12,2.12A2.093,2.093,0,0,0,200.118,280.7Z" transform="translate(-162.489 -231.284)" fill="#183651"/>
  <circle id="Elipse_5164" data-name="Elipse 5164" cx="3.445" cy="3.445" r="3.445" transform="translate(34.184 36.039)" fill="#fcbd5e"/>
  <path id="Trazado_157005" data-name="Trazado 157005" d="M200.118,215.915a4.77,4.77,0,1,1,4.77-4.77A4.75,4.75,0,0,1,200.118,215.915Zm0-6.89a2.12,2.12,0,1,0,2.12,2.12A2.093,2.093,0,0,0,200.118,209.025Z" transform="translate(-162.489 -171.661)" fill="#183651"/>
  <circle id="Elipse_5165" data-name="Elipse 5165" cx="3.445" cy="3.445" r="3.445" transform="translate(52.071 45.314)" fill="#fcbd5e"/>
  <path id="Trazado_157006" data-name="Trazado 157006" d="M306.456,271.054a4.77,4.77,0,1,1,4.77-4.77A4.75,4.75,0,0,1,306.456,271.054Zm0-6.89a2.12,2.12,0,1,0,2.12,2.12A2.093,2.093,0,0,0,306.456,264.164Z" transform="translate(-250.94 -217.525)" fill="#183651"/>
  <circle id="Elipse_5166" data-name="Elipse 5166" cx="3.445" cy="3.445" r="3.445" transform="translate(61.611 16.694)" fill="#fcbd5e"/>
  <path id="Trazado_157007" data-name="Trazado 157007" d="M363.17,100.912a4.77,4.77,0,1,1,4.77-4.77A4.75,4.75,0,0,1,363.17,100.912Zm0-6.89a2.12,2.12,0,1,0,2.12,2.12A2.093,2.093,0,0,0,363.17,94.022Z" transform="translate(-298.114 -76.003)" fill="#183651"/>
  <circle id="Elipse_5167" data-name="Elipse 5167" cx="3.445" cy="3.445" r="3.445" transform="translate(45.976 25.837)" fill="#fcbd5e"/>
  <g id="Grupo_96794" data-name="Grupo 96794" transform="translate(17.092 24.512)">
    <path id="Trazado_157008" data-name="Trazado 157008" d="M270.222,155.263a4.77,4.77,0,1,1,4.77-4.77A4.75,4.75,0,0,1,270.222,155.263Zm0-6.89a2.12,2.12,0,1,0,2.12,2.12A2.093,2.093,0,0,0,270.222,148.373Z" transform="translate(-237.893 -145.723)" fill="#183651"/>
    <rect id="Rectángulo_35765" data-name="Rectángulo 35765" width="2.65" height="30.607" transform="translate(0 25.042)" fill="#183651"/>
  </g>
  <circle id="Elipse_5168" data-name="Elipse 5168" cx="3.445" cy="3.445" r="3.445" transform="translate(14.972 46.109)" fill="#fcbd5e"/>
  <path id="Trazado_157009" data-name="Trazado 157009" d="M85.9,275.78a4.77,4.77,0,1,1,4.77-4.77A4.75,4.75,0,0,1,85.9,275.78Zm0-6.89a2.12,2.12,0,1,0,2.12,2.12A2.093,2.093,0,0,0,85.9,268.89Z" transform="translate(-67.485 -221.456)" fill="#183651"/>
  <circle id="Elipse_5169" data-name="Elipse 5169" cx="3.445" cy="3.445" r="3.445" transform="translate(14.972 76.715)" fill="#fcbd5e"/>
  <g id="Grupo_96795" data-name="Grupo 96795" transform="translate(13.647 26.897)">
    <path id="Trazado_157010" data-name="Trazado 157010" d="M85.9,457.737a4.77,4.77,0,1,1,4.77-4.77A4.75,4.75,0,0,1,85.9,457.737Zm0-6.89a2.12,2.12,0,1,0,2.12,2.12A2.093,2.093,0,0,0,85.9,450.847Z" transform="translate(-81.132 -399.704)" fill="#183651"/>
    <rect id="Rectángulo_35766" data-name="Rectángulo 35766" width="19.212" height="2.65" transform="translate(4.77)" fill="#183651"/>
  </g>
  <circle id="Elipse_5170" data-name="Elipse 5170" cx="3.445" cy="3.445" r="3.445" transform="translate(34.184 24.777)" fill="#fcbd5e"/>
  <path id="Trazado_157011" data-name="Trazado 157011" d="M200.118,148.961a4.77,4.77,0,1,1,4.77-4.77A4.75,4.75,0,0,1,200.118,148.961Zm0-6.757a2.12,2.12,0,1,0,2.12,2.12A2.093,2.093,0,0,0,200.118,142.2Z" transform="translate(-162.489 -115.969)" fill="#183651"/>
  <circle id="Elipse_5171" data-name="Elipse 5171" cx="3.445" cy="3.445" r="3.445" transform="translate(14.972 24.777)" fill="#fcbd5e"/>
  <path id="Trazado_157012" data-name="Trazado 157012" d="M85.9,148.961a4.77,4.77,0,1,1,4.77-4.77A4.75,4.75,0,0,1,85.9,148.961Zm0-6.757a2.12,2.12,0,1,0,2.12,2.12A2.093,2.093,0,0,0,85.9,142.2Z" transform="translate(-67.485 -115.969)" fill="#183651"/>
  <circle id="Elipse_5172" data-name="Elipse 5172" cx="3.445" cy="3.445" r="3.445" transform="translate(14.972 12.985)" fill="#fcbd5e"/>
  <path id="Trazado_157013" data-name="Trazado 157013" d="M85.9,78.857a4.77,4.77,0,1,1,4.77-4.77A4.75,4.75,0,0,1,85.9,78.857Zm0-6.89a2.12,2.12,0,1,0,2.12,2.12A2.093,2.093,0,0,0,85.9,71.967Z" transform="translate(-67.485 -57.657)" fill="#183651"/>
  <circle id="Elipse_5173" data-name="Elipse 5173" cx="3.445" cy="3.445" r="3.445" transform="translate(14.972 1.458)" fill="#fcbd5e"/>
  <path id="Trazado_157014" data-name="Trazado 157014" d="M85.9,10.328a4.77,4.77,0,1,1,4.77-4.77A4.75,4.75,0,0,1,85.9,10.328Zm0-6.89a2.12,2.12,0,1,0,2.12,2.12A2.093,2.093,0,0,0,85.9,3.438Z" transform="translate(-67.485 -0.655)" fill="#183651"/>
  <circle id="Elipse_5174" data-name="Elipse 5174" cx="3.445" cy="3.445" r="3.445" transform="translate(34.184 76.715)" fill="#fcbd5e"/>
  <g id="Grupo_96796" data-name="Grupo 96796" transform="translate(6.757 45.446)">
    <path id="Trazado_157015" data-name="Trazado 157015" d="M200.118,457.737a4.77,4.77,0,1,1,4.77-4.77A4.75,4.75,0,0,1,200.118,457.737Zm0-6.89a2.12,2.12,0,1,0,2.12,2.12A2.093,2.093,0,0,0,200.118,450.847Z" transform="translate(-169.246 -418.253)" fill="#183651"/>
    <rect id="Rectángulo_35767" data-name="Rectángulo 35767" width="2.65" height="2.65" fill="#183651"/>
    <rect id="Rectángulo_35768" data-name="Rectángulo 35768" width="2.65" height="2.65" transform="translate(0 8.215)" fill="#183651"/>
    <rect id="Rectángulo_35769" data-name="Rectángulo 35769" width="2.65" height="2.65" transform="translate(0 16.43)" fill="#183651"/>
  </g>
</svg>
