<svg xmlns="http://www.w3.org/2000/svg" xmlns:xlink="http://www.w3.org/1999/xlink" width="81.949" height="75.985" viewBox="0 0 81.949 75.985">
  <defs>
    <filter id="Path_171870" x="0" y="8.933" width="81.949" height="67.052" filterUnits="userSpaceOnUse">
      <feOffset dx="1.049" dy="11" input="SourceAlpha"/>
      <feGaussianBlur stdDeviation="3.5" result="blur"/>
      <feFlood flood-color="#3d91aa" flood-opacity="0.749"/>
      <feComposite operator="in" in2="blur"/>
      <feComposite in="SourceGraphic"/>
    </filter>
    <clipPath id="clip-path">
      <path id="Path_100532" data-name="Path 100532" d="M436.021,50.625,380,20.818a2.853,2.853,0,0,0-4.048,3.414l13.288,40.222a2.853,2.853,0,0,0,3.385,1.877l42.731-10.416A2.853,2.853,0,0,0,436.021,50.625Z" fill="none"/>
    </clipPath>
  </defs>
  <g id="Group_126357" data-name="Group 126357" transform="translate(-498.461 -90.475)">
    <g transform="matrix(1, 0, 0, 1, 498.46, 90.47)" filter="url(#Path_171870)">
      <path id="Path_171870-2" data-name="Path 171870" d="M431.181,58.846,376.57,29.789a3.165,3.165,0,0,0-4.491,3.787l12.954,39.211a3.164,3.164,0,0,0,3.754,2.082l41.657-10.154A3.165,3.165,0,0,0,431.181,58.846Z" transform="translate(-362.46 -20.47)" fill="#1a2e48"/>
    </g>
    <g id="Group_53771" data-name="Group 53771" transform="translate(136 70)">
      <g id="Group_53770" data-name="Group 53770" clip-path="url(#clip-path)">
        <line id="Line_174" data-name="Line 174" y2="77.183" transform="translate(439.076 10.075)" fill="none" stroke="#fff" stroke-linecap="round" stroke-miterlimit="10" stroke-width="1.094"/>
        <line id="Line_175" data-name="Line 175" y2="77.183" transform="translate(434.947 10.075)" fill="none" stroke="#f6f6eb" stroke-linecap="round" stroke-miterlimit="10" stroke-width="1.094"/>
        <line id="Line_176" data-name="Line 176" y2="77.183" transform="translate(430.819 10.075)" fill="none" stroke="#f6f6eb" stroke-linecap="round" stroke-miterlimit="10" stroke-width="1.094"/>
        <line id="Line_177" data-name="Line 177" y2="77.183" transform="translate(426.69 10.075)" fill="none" stroke="#f6f6eb" stroke-linecap="round" stroke-miterlimit="10" stroke-width="1.094"/>
        <line id="Line_178" data-name="Line 178" y2="77.183" transform="translate(422.561 10.075)" fill="none" stroke="#f6f6eb" stroke-linecap="round" stroke-miterlimit="10" stroke-width="1.094"/>
        <line id="Line_179" data-name="Line 179" y2="77.183" transform="translate(418.432 10.075)" fill="none" stroke="#f6f6eb" stroke-linecap="round" stroke-miterlimit="10" stroke-width="1.094"/>
        <line id="Line_180" data-name="Line 180" y2="77.183" transform="translate(414.304 10.075)" fill="none" stroke="#f6f6eb" stroke-linecap="round" stroke-miterlimit="10" stroke-width="1.094"/>
        <line id="Line_181" data-name="Line 181" y2="77.183" transform="translate(410.175 10.075)" fill="none" stroke="#f6f6eb" stroke-linecap="round" stroke-miterlimit="10" stroke-width="1.094"/>
        <line id="Line_182" data-name="Line 182" y2="77.183" transform="translate(406.046 10.075)" fill="none" stroke="#f6f6eb" stroke-linecap="round" stroke-miterlimit="10" stroke-width="1.094"/>
        <line id="Line_183" data-name="Line 183" y2="77.183" transform="translate(401.918 10.075)" fill="none" stroke="#f6f6eb" stroke-linecap="round" stroke-miterlimit="10" stroke-width="1.094"/>
        <line id="Line_184" data-name="Line 184" y2="77.183" transform="translate(397.789 10.075)" fill="none" stroke="#f6f6eb" stroke-linecap="round" stroke-miterlimit="10" stroke-width="1.094"/>
        <line id="Line_185" data-name="Line 185" y2="77.183" transform="translate(393.66 10.075)" fill="none" stroke="#f6f6eb" stroke-linecap="round" stroke-miterlimit="10" stroke-width="1.094"/>
        <line id="Line_186" data-name="Line 186" y2="77.183" transform="translate(389.531 10.075)" fill="none" stroke="#f6f6eb" stroke-linecap="round" stroke-miterlimit="10" stroke-width="1.094"/>
        <line id="Line_187" data-name="Line 187" y2="77.183" transform="translate(385.403 10.075)" fill="none" stroke="#f6f6eb" stroke-linecap="round" stroke-miterlimit="10" stroke-width="1.094"/>
        <line id="Line_188" data-name="Line 188" y2="77.183" transform="translate(381.274 10.075)" fill="none" stroke="#f6f6eb" stroke-linecap="round" stroke-miterlimit="10" stroke-width="1.094"/>
        <line id="Line_189" data-name="Line 189" y2="77.183" transform="translate(377.145 10.075)" fill="none" stroke="#f6f6eb" stroke-linecap="round" stroke-miterlimit="10" stroke-width="1.094"/>
        <line id="Line_190" data-name="Line 190" y2="77.183" transform="translate(373.016 10.075)" fill="none" stroke="#fff" stroke-linecap="round" stroke-miterlimit="10" stroke-width="1.094"/>
      </g>
    </g>
  </g>
</svg>
