<svg id="inventory" xmlns="http://www.w3.org/2000/svg" width="48.397" height="48.396" viewBox="0 0 48.397 48.396">
  <path id="Trazado_15038" data-name="Trazado 15038" d="M33,57.734H56.418V39H33Zm9.367-17.173h4.684v1.561H42.367Zm-7.806,0h6.245v3.122h7.806V40.561h6.245V56.173h-20.3Z" transform="translate(-8.021 -9.338)" fill="#97181a"/>
  <path id="Trazado_15039" data-name="Trazado 15039" d="M57,57h1.561v1.561H57Z" transform="translate(-13.287 -13.287)" fill="#97181a"/>
  <path id="Trazado_15040" data-name="Trazado 15040" d="M53,57h1.561v1.561H53Z" transform="translate(-12.409 -13.287)" fill="#97181a"/>
  <path id="Trazado_15041" data-name="Trazado 15041" d="M49,57h1.561v1.561H49Z" transform="translate(-11.532 -13.287)" fill="#97181a"/>
  <path id="Trazado_15042" data-name="Trazado 15042" d="M47.835,16.612H46.274V1h-20.3V16.612H24.418V1H4.122V16.612H2.561A1.563,1.563,0,0,0,1,18.173v1.561A1.563,1.563,0,0,0,2.561,21.3H6.669a6.2,6.2,0,0,0,2.593,6.764A11.729,11.729,0,0,0,1,39.249a3.905,3.905,0,0,0,2.342,3.572V49.4H24.418V39.249a11.729,11.729,0,0,0-8.263-11.19A6.2,6.2,0,0,0,18.748,21.3H47.835A1.563,1.563,0,0,0,49.4,19.734V18.173A1.563,1.563,0,0,0,47.835,16.612ZM33.785,2.561h4.684V4.122H33.785Zm-6.245,0h4.684V5.684H40.03V2.561h4.684V16.612H40.03V13.489H32.224v3.122H27.54ZM38.468,16.612H33.785V15.051h4.684ZM11.928,2.561h4.684V4.122H11.928Zm-6.245,0h4.684V5.684h7.806V2.561h4.684V16.612H18.173V13.489H10.367v3.122H5.684Zm6.245,14.051V15.051h4.684v1.561ZM2.561,19.734V18.173H8.592a6.3,6.3,0,0,0-1.283,1.561ZM4.9,43.152H8.025v4.684H4.9Zm7.416-5.464H9.586v-3.9h5.464v3.9h3.9V47.835H9.586V43.152h2.732a2.732,2.732,0,1,0,0-5.464Zm4.293-2.8,1.238,1.238H16.612Zm6.245,4.36v8.586H20.515V36.584l-4.36-4.36H8.025v5.464H5.684v1.561h6.635a1.171,1.171,0,1,1,0,2.342H4.9a2.345,2.345,0,0,1-2.342-2.342,10.148,10.148,0,0,1,20.3,0ZM12.709,27.54a4.684,4.684,0,1,1,4.684-4.684A4.688,4.688,0,0,1,12.709,27.54Zm35.127-7.806H18.109a6.281,6.281,0,0,0-1.283-1.561h31.01Z" transform="translate(-1 -1)" fill="#97181a"/>
  <path id="Trazado_15043" data-name="Trazado 15043" d="M49,53h7.806v1.561H49Z" transform="translate(-11.532 -12.409)" fill="#97181a"/>
</svg>
