<svg xmlns="http://www.w3.org/2000/svg" width="50.507" height="86" viewBox="0 0 50.507 86">
  <g id="Grupo_89947" data-name="Grupo 89947" transform="translate(-1473.531 -213)">
    <g id="Grupo_89950" data-name="Grupo 89950">
      <g id="Grupo_89948" data-name="Grupo 89948">
        <g id="Grupo_89947-2" data-name="Grupo 89947">
          <rect id="Rectángulo_35200" data-name="Rectángulo 35200" width="47.926" height="83.428" rx="7.367" transform="translate(1474.821 214.286)" fill="#4dd0e1"/>
          <rect id="Rectángulo_35201" data-name="Rectángulo 35201" width="33.193" height="54.023" rx="2.21" transform="translate(1482.187 228.934)" fill="#f0f7ff"/>
          <circle id="Elipse_4538" data-name="Elipse 4538" cx="2.964" cy="2.964" r="2.964" transform="translate(1495.821 287.372)" fill="#4dd0e1"/>
        </g>
      </g>
      <g id="Grupo_89949" data-name="Grupo 89949">
        <path id="Trazado_118049" data-name="Trazado 118049" d="M1515.382,213h-33.195a8.666,8.666,0,0,0-8.656,8.656v4.84a1.289,1.289,0,0,0,2.579,0v-4.84a6.084,6.084,0,0,1,6.077-6.078h33.195a6.085,6.085,0,0,1,6.078,6.078v68.688a6.085,6.085,0,0,1-6.078,6.078h-33.195a6.084,6.084,0,0,1-6.077-6.078V285.5a1.289,1.289,0,0,0-2.579,0h0v4.84a8.666,8.666,0,0,0,8.656,8.656h33.195a8.665,8.665,0,0,0,8.656-8.656V221.656a8.665,8.665,0,0,0-8.656-8.656Z"/>
        <path id="Trazado_118050" data-name="Trazado 118050" d="M1474.821,258.645a1.292,1.292,0,0,0,1.289-1.29V234.629a1.289,1.289,0,0,0-2.579,0v22.726A1.291,1.291,0,0,0,1474.821,258.645Z"/>
        <path id="Trazado_118051" data-name="Trazado 118051" d="M1474.821,278.668a1.292,1.292,0,0,0,1.289-1.29v-11.9a1.289,1.289,0,0,0-2.579,0v11.9A1.291,1.291,0,0,0,1474.821,278.668Z"/>
        <path id="Trazado_118052" data-name="Trazado 118052" d="M1480.9,231.145v49.6a3.5,3.5,0,0,0,3.5,3.5h28.773a3.5,3.5,0,0,0,3.5-3.5v-49.6a3.5,3.5,0,0,0-3.5-3.5H1484.4A3.5,3.5,0,0,0,1480.9,231.145Zm33.193,0v49.6a.921.921,0,0,1-.921.921H1484.4a.923.923,0,0,1-.921-.921v-49.6a.923.923,0,0,1,.921-.921h28.773a.922.922,0,0,1,.921.921Z"/>
        <path id="Trazado_118053" data-name="Trazado 118053" d="M1494.532,290.336a4.253,4.253,0,1,0,4.253-4.253A4.253,4.253,0,0,0,1494.532,290.336Zm5.927,0a1.674,1.674,0,1,1-1.674-1.675A1.673,1.673,0,0,1,1500.459,290.336Z"/>
      </g>
    </g>
    <g id="Grupo_89953" data-name="Grupo 89953">
      <g id="Grupo_89951" data-name="Grupo 89951">
        <path id="Trazado_118054" data-name="Trazado 118054" d="M1506.46,238.295h-15.365v-4.281a1.318,1.318,0,0,1,1.318-1.318h12.729a1.318,1.318,0,0,1,1.318,1.318Z" fill="#4dd0e1"/>
        <rect id="Rectángulo_35202" data-name="Rectángulo 35202" width="22.916" height="43.421" rx="2.197" transform="translate(1487.327 235.772)" fill="#4dd0e1"/>
        <path id="Trazado_118055" data-name="Trazado 118055" d="M1496.192,240.315l2.57,13.272a.371.371,0,0,1-.222.413l-5.967,2.472a1.688,1.688,0,0,0-.914,2.206,1.874,1.874,0,0,0,.087.18l9,16.044a.37.37,0,0,0,.69-.229l-1.792-13.781a.372.372,0,0,1,.243-.4l5.03-1.79a1.688,1.688,0,0,0,1.025-2.157,1.733,1.733,0,0,0-.112-.249l-8.95-16.234a.371.371,0,0,0-.687.249Z" fill="#fed843"/>
      </g>
      <g id="Grupo_89952" data-name="Grupo 89952">
        <path id="Trazado_118056" data-name="Trazado 118056" d="M1508.047,235h-.817v-.989a2.089,2.089,0,0,0-2.087-2.087h-12.73a2.09,2.09,0,0,0-2.087,2.087V235h-.8a2.969,2.969,0,0,0-2.966,2.966v1.915a.769.769,0,1,0,1.538,0h0v-1.915a1.429,1.429,0,0,1,1.428-1.428h18.525a1.43,1.43,0,0,1,1.429,1.428V277a1.43,1.43,0,0,1-1.429,1.428h-18.525a1.43,1.43,0,0,1-1.428-1.428v-1.916a.769.769,0,1,0-1.538,0h0V277a2.97,2.97,0,0,0,2.966,2.966h18.525a2.969,2.969,0,0,0,2.966-2.966V237.969a2.968,2.968,0,0,0-2.966-2.966Zm-16.183-.989a.549.549,0,0,1,.549-.549h12.73a.549.549,0,0,1,.549.549V235h-13.828Z"/>
        <path id="Trazado_118057" data-name="Trazado 118057" d="M1487.325,252.6a.769.769,0,0,0,.769-.769v-7.1a.769.769,0,1,0-1.538,0v7.1a.768.768,0,0,0,.769.768Z"/>
        <path id="Trazado_118058" data-name="Trazado 118058" d="M1487.325,271a.769.769,0,0,0,.769-.769h0v-13.56a.769.769,0,1,0-1.538,0v13.56a.769.769,0,0,0,.769.769Z"/>
        <path id="Trazado_118059" data-name="Trazado 118059" d="M1490.9,257.227a2.461,2.461,0,0,0,.179,2.007l9,16.045a1.14,1.14,0,0,0,2.124-.7l-1.751-13.464,4.727-1.683a2.458,2.458,0,0,0,1.491-3.14,2.5,2.5,0,0,0-.163-.362l-8.95-16.232a1.139,1.139,0,0,0-2.116.766l2.508,12.953-5.666,2.347a2.464,2.464,0,0,0-1.381,1.466Zm1.453.5a.911.911,0,0,1,.517-.549l5.966-2.472a1.143,1.143,0,0,0,.682-1.27l-2.088-10.788,7.729,14.018a.919.919,0,0,1-.362,1.249.908.908,0,0,1-.135.061l-5.03,1.791a1.144,1.144,0,0,0-.747,1.22l1.526,11.736-7.991-14.245a.911.911,0,0,1-.067-.751Z"/>
      </g>
    </g>
  </g>
</svg>
