<svg xmlns="http://www.w3.org/2000/svg" width="86" height="86" viewBox="0 0 86 86">
  <g id="Filled_outline" data-name="Filled outline" transform="translate(-213 -213)">
    <rect id="Rectángulo_35174" data-name="Rectángulo 35174" width="43" height="77.4" rx="5.733" transform="translate(234.5 220.167)" fill="#e0e0de"/>
    <path id="Trazado_117960" data-name="Trazado 117960" d="M234.5,228.767h43V286.1h-43Z" fill="#348fd9"/>
    <path id="Trazado_117961" data-name="Trazado 117961" d="M238.841,297.377a5.743,5.743,0,0,0,1.392.19h31.534a5.734,5.734,0,0,0,5.733-5.734V286.1H243.63Z" fill="#d6d6d4"/>
    <path id="Trazado_117962" data-name="Trazado 117962" d="M271.767,220.167h-.138l-3.652,8.6H277.5V225.9A5.733,5.733,0,0,0,271.767,220.167Z" fill="#d6d6d4"/>
    <path id="Trazado_117963" data-name="Trazado 117963" d="M243.63,286.1H277.5V228.767h-9.523Z" fill="#3086cd"/>
    <path id="Trazado_117964" data-name="Trazado 117964" d="M251.7,277.5v-8.6a5.733,5.733,0,0,0-5.733-5.733H243.1l1.433-5.734L234.5,263.167v20.066h11.467A5.733,5.733,0,0,0,251.7,277.5Z" fill="#3086cd"/>
    <path id="Trazado_117965" data-name="Trazado 117965" d="M286.854,260.96,277.5,248.833v22.934l-6.45-6.45a5.067,5.067,0,0,0-7.167,7.166L273.2,281.8l-.642.964a12.55,12.55,0,0,0,.642,14.8h17.2V270.4A14.33,14.33,0,0,0,286.854,260.96Z" fill="#fec9a3"/>
    <path id="Trazado_117966" data-name="Trazado 117966" d="M245.967,243.1H234.5l1.433,7.167L225.9,243.1h-5.733a5.734,5.734,0,0,1-5.734-5.733v-17.2a5.734,5.734,0,0,1,5.734-5.734h25.8a5.734,5.734,0,0,1,5.733,5.734v17.2A5.733,5.733,0,0,1,245.967,243.1Z" fill="#ffb531"/>
    <path id="Trazado_117967" data-name="Trazado 117967" d="M237.367,245.967h11.466a5.734,5.734,0,0,0,5.734-5.734V228.767H234.5v21.295l4.3,3.071Z" fill="#3086cd"/>
    <path id="Trazado_117968" data-name="Trazado 117968" d="M243.1,260.3h-2.867l1.434-5.733L231.633,260.3H220.167a5.734,5.734,0,0,0-5.734,5.733v8.6a5.734,5.734,0,0,0,5.734,5.734H243.1a5.734,5.734,0,0,0,5.733-5.734v-8.6A5.733,5.733,0,0,0,243.1,260.3Z" fill="#60d1e0"/>
    <path id="Trazado_117969" data-name="Trazado 117969" d="M243.1,260.3h-.276c-5.864,8.825-14.116,15.657-20.461,20.067H243.1a5.734,5.734,0,0,0,5.733-5.734v-8.6A5.733,5.733,0,0,0,243.1,260.3Z" fill="#5ac6d4"/>
    <path id="Trazado_117970" data-name="Trazado 117970" d="M283.233,278.933a1.422,1.422,0,0,1-1.013-.42l-5.733-5.733a1.433,1.433,0,0,1,2.026-2.027l5.734,5.734a1.433,1.433,0,0,1-1.014,2.446Z" fill="#f7a468"/>
    <path id="Trazado_117971" data-name="Trazado 117971" d="M249.7,215.848c-9.925,12.389-23.8,20.085-33.794,25.321a5.7,5.7,0,0,0,4.262,1.931H225.9l10.033,7.167L234.5,243.1h11.467a5.733,5.733,0,0,0,5.733-5.733v-17.2A5.69,5.69,0,0,0,249.7,215.848Z" fill="#ffa912"/>
    <path id="Trazado_117972" data-name="Trazado 117972" d="M224.467,227.333h11.466v8.6H224.467Z" fill="#f35244"/>
    <g id="Grupo_89903" data-name="Grupo 89903">
      <circle id="Elipse_4530" data-name="Elipse 4530" cx="3.583" cy="3.583" r="3.583" transform="translate(223.033 220.167)" fill="#de4132"/>
      <circle id="Elipse_4531" data-name="Elipse 4531" cx="3.583" cy="3.583" r="3.583" transform="translate(230.2 220.167)" fill="#de4132"/>
      <path id="Trazado_117973" data-name="Trazado 117973" d="M235.933,230.2l5.734-2.867v8.6l-5.734-2.866Z" fill="#de4132"/>
    </g>
    <path id="Trazado_117974" data-name="Trazado 117974" d="M277.5,248.833v15l7.26-5.584Z" fill="#fec093"/>
    <path id="Trazado_117975" data-name="Trazado 117975" d="M297.567,231.633v17.2a5.734,5.734,0,0,1-5.734,5.734h-7.166l-10.034,7.166,1.434-7.166h-12.9a5.73,5.73,0,0,1-5.734-5.726V231.633a5.734,5.734,0,0,1,5.734-5.733h28.666a5.729,5.729,0,0,1,5.734,5.724Z" fill="#4db7e5"/>
    <path id="Trazado_117976" data-name="Trazado 117976" d="M297.567,231.633v17.2a5.734,5.734,0,0,1-5.734,5.734h-7.166l-10.034,7.166,1.434-7.166h-12.9a5.729,5.729,0,0,1-2.833-.747c13.387-6.339,25.42-15.183,34.352-27.162a5.735,5.735,0,0,1,2.881,4.975Z" fill="#48add9"/>
    <circle id="Elipse_4532" data-name="Elipse 4532" cx="4.3" cy="4.3" r="4.3" transform="translate(276.067 231.633)" fill="#f35244"/>
    <path id="Trazado_117977" data-name="Trazado 117977" d="M297.567,248.833a5.734,5.734,0,0,1-5.734,5.734h-7.166l-10.034,7.166,1.434-7.166h-12.9a5.73,5.73,0,0,1-5.734-5.726v-.008l11.467-8.6,6.518,4.888,4.949,3.712,8.6-5.733Z" fill="#7eb457"/>
    <path id="Trazado_117978" data-name="Trazado 117978" d="M297.567,248.833a5.734,5.734,0,0,1-5.734,5.734h-7.166l-10.034,7.166,1.434-7.166h-12.9a5.729,5.729,0,0,1-2.833-.747,104.233,104.233,0,0,0,15.084-8.7l4.949,3.712,8.6-5.733Z" fill="#77ad50"/>
    <path id="Trazado_117979" data-name="Trazado 117979" d="M254.567,290.4h2.866v2.867h-2.866Z"/>
    <path id="Trazado_117980" data-name="Trazado 117980" d="M220.167,244.533h5.274l9.66,6.9a1.433,1.433,0,0,0,2.238-1.448l-1.091-5.452h9.719a7.173,7.173,0,0,0,7.166-7.166v-17.2A7.175,7.175,0,0,0,245.967,213h-25.8A7.176,7.176,0,0,0,213,220.167v17.2a7.175,7.175,0,0,0,7.167,7.166Zm-4.3-24.366a4.3,4.3,0,0,1,4.3-4.3h25.8a4.3,4.3,0,0,1,4.3,4.3v17.2a4.306,4.306,0,0,1-4.3,4.3H234.5a1.432,1.432,0,0,0-1.433,1.433,1.388,1.388,0,0,0,.028.281l.722,3.612-7.084-5.06a1.436,1.436,0,0,0-.833-.266h-5.733a4.3,4.3,0,0,1-4.3-4.3Z"/>
    <path id="Trazado_117981" data-name="Trazado 117981" d="M223.033,227.333v8.6a1.434,1.434,0,0,0,1.434,1.434h11.466a1.434,1.434,0,0,0,1.434-1.434v-.547l3.659,1.829a1.432,1.432,0,0,0,2.074-1.282v-8.6a1.434,1.434,0,0,0-2.074-1.282l-3.659,1.83v-.548c0-.023-.013-.043-.014-.067a5.01,5.01,0,0,0-7.106-7.064l-.047.048a5.01,5.01,0,0,0-7.2,6.968l.047.048C223.046,227.29,223.033,227.31,223.033,227.333ZM234.5,234.5h-8.6v-5.733h8.6Zm5.733-4.847v3.961l-2.866-1.433v-1.1Zm-6.45-8.053a2.15,2.15,0,1,1-2.15,2.15A2.15,2.15,0,0,1,233.783,221.6Zm-7.166,0a2.15,2.15,0,1,1-2.15,2.15A2.151,2.151,0,0,1,226.617,221.6Z"/>
    <path id="Trazado_117982" data-name="Trazado 117982" d="M291.833,224.467H278.788a7.179,7.179,0,0,0-7.021-5.734H256V221.6h15.767a4.3,4.3,0,0,1,4.036,2.867H263.167A7.175,7.175,0,0,0,256,231.633v17.2A7.176,7.176,0,0,0,263.167,256h11.151l-1.09,5.452a1.433,1.433,0,0,0,2.238,1.448l.6-.429v5.836l-4-4a6.5,6.5,0,1,0-9.193,9.194h0l8.482,8.482a13.486,13.486,0,0,0-1.346,2.688H233.067v7.166A7.175,7.175,0,0,0,240.233,299H290.4a1.433,1.433,0,0,0,1.433-1.433V270.391a15.691,15.691,0,0,0-3.838-10.307l-3.05-3.955.181-.129h6.707A7.176,7.176,0,0,0,299,248.833v-17.2A7.175,7.175,0,0,0,291.833,224.467Zm-28.666,2.866h28.666a4.3,4.3,0,0,1,4.3,4.3v14.522l-6.371-4.248a1.437,1.437,0,0,0-1.59,0l-7.756,5.17-10.656-7.99a1.433,1.433,0,0,0-1.719,0l-9.174,6.88V231.633A4.3,4.3,0,0,1,263.167,227.333Zm-27.234,64.5v-4.3h33.274a13.96,13.96,0,0,0,1.4,8.6H240.233A4.3,4.3,0,0,1,235.933,291.833ZM285.781,261.9a12.9,12.9,0,0,1,3.186,8.489v25.742H273.924a11.106,11.106,0,0,1-1.557-9.626,10.781,10.781,0,0,1,1.377-2.948l.645-.96a1.433,1.433,0,0,0-.176-1.812L264.9,271.47a3.634,3.634,0,1,1,5.14-5.139h0l12.184,12.183,2.026-2.027-5.313-5.314v-10.75l3.678-2.627Zm6.052-8.769h-7.166a1.43,1.43,0,0,0-.833.267l-7.084,5.06.722-3.612a1.434,1.434,0,0,0-1.124-1.687,1.48,1.48,0,0,0-.281-.028h-12.9a4.294,4.294,0,0,1-4.233-3.634l9.966-7.474,10.607,7.955a1.431,1.431,0,0,0,1.654.046l7.806-5.2,7.1,4.73a4.3,4.3,0,0,1-4.229,3.581Z"/>
    <path id="Trazado_117983" data-name="Trazado 117983" d="M280.367,241.667a5.734,5.734,0,1,0-5.734-5.734A5.734,5.734,0,0,0,280.367,241.667Zm0-8.6a2.867,2.867,0,1,1-2.867,2.866A2.866,2.866,0,0,1,280.367,233.067Z"/>
    <path id="Trazado_117984" data-name="Trazado 117984" d="M220.167,281.8H243.1a7.176,7.176,0,0,0,7.167-7.167v-8.6a7.175,7.175,0,0,0-7.167-7.166h-1.03l.987-3.953a1.434,1.434,0,0,0-2.1-1.592l-9.7,5.545H220.167A7.175,7.175,0,0,0,213,266.033v8.6A7.176,7.176,0,0,0,220.167,281.8Zm-4.3-15.767a4.3,4.3,0,0,1,4.3-4.3h11.466a1.427,1.427,0,0,0,.711-.189l7.118-4.067-.619,2.475a1.433,1.433,0,0,0,1.043,1.738,1.4,1.4,0,0,0,.347.043H243.1a4.306,4.306,0,0,1,4.3,4.3v8.6a4.3,4.3,0,0,1-4.3,4.3H220.167a4.3,4.3,0,0,1-4.3-4.3Z"/>
    <path id="Trazado_117985" data-name="Trazado 117985" d="M218.733,266.033H234.5V268.9H218.733Z"/>
    <path id="Trazado_117986" data-name="Trazado 117986" d="M237.367,266.033h7.166V268.9h-7.166Z"/>
    <path id="Trazado_117987" data-name="Trazado 117987" d="M218.733,271.767h25.8v2.866h-25.8Z"/>
  </g>
</svg>
