<svg xmlns="http://www.w3.org/2000/svg" width="86" height="86" viewBox="0 0 86 86">
  <g id="Grupo_90749" data-name="Grupo 90749" transform="translate(-213 -213)">
    <circle id="Elipse_5024" data-name="Elipse 5024" cx="2.774" cy="2.774" r="2.774" transform="translate(224.097 275.419)" fill="#ff826e"/>
    <circle id="Elipse_5025" data-name="Elipse 5025" cx="2.774" cy="2.774" r="2.774" transform="translate(287.903 231.032)" fill="#ff826e"/>
    <path id="Trazado_143961" data-name="Trazado 143961" d="M235.194,260.425v9.446h-8.323l-.943-3.759c-.139-.056-.278-.1-.416-.167l-3.3,2-5.9-5.895,2-3.3c-.07-.138-.111-.277-.167-.416l-3.759-.943v-8.322l3.759-.944c.056-.138.1-.277.167-.416l-2-3.3,5.9-5.9,3.3,2c.138-.069.277-.111.416-.166l.943-3.759h8.323v9.446a8.322,8.322,0,1,0,0,14.4Z" fill="#ffc729"/>
    <path id="Trazado_143962" data-name="Trazado 143962" d="M282.355,286.516v5.549a5.547,5.547,0,0,1-5.549,5.548H240.742a5.546,5.546,0,0,1-5.548-5.548v-5.549Z" fill="#aab2bd"/>
    <path id="Trazado_143963" data-name="Trazado 143963" d="M282.355,219.935v5.549H235.194v-5.549a5.546,5.546,0,0,1,5.548-5.548h36.064A5.547,5.547,0,0,1,282.355,219.935Z" fill="#aab2bd"/>
    <path id="Trazado_143964" data-name="Trazado 143964" d="M235.194,225.484h47.161v61.032H235.194Z" fill="#69d6f4"/>
    <path id="Trazado_143965" data-name="Trazado 143965" d="M240.742,231.032h36.064v49.936H240.742Z" fill="#ffeaa7"/>
    <path id="Trazado_143966" data-name="Trazado 143966" d="M246.29,236.581h24.968v16.645H246.29Z" fill="#ff826e"/>
    <circle id="Elipse_5026" data-name="Elipse 5026" cx="18.032" cy="18.032" r="18.032" transform="translate(261.548 239.355)" fill="#e6e9ed"/>
    <path id="Trazado_143967" data-name="Trazado 143967" d="M282.355,275.211a18.608,18.608,0,0,1-5.549,0,17.978,17.978,0,0,1-11.1-6.311v-1.637a5.561,5.561,0,0,1,4.2-5.382l6.893-1.72v-2.15a5.544,5.544,0,0,1-2.774-4.785v-2.483a5.737,5.737,0,0,1,5.049-5.812,5.542,5.542,0,0,1,6.048,5.521v2.774a5.544,5.544,0,0,1-2.774,4.785v2.15l6.894,1.72a5.561,5.561,0,0,1,4.2,5.382V268.9a17.983,17.983,0,0,1-11.1,6.311Z" fill="#b4dd7f"/>
    <path id="Trazado_143968" data-name="Trazado 143968" d="M299,257.387a19.445,19.445,0,0,0-15.258-18.959V219.936A6.943,6.943,0,0,0,276.806,213H240.742a6.944,6.944,0,0,0-6.936,6.936v15.258h-8.018l-.837,3.351-2.96-1.777-7.418,7.414,1.777,2.963-3.35.836V258.47l3.351.837-1.778,2.963,7.417,7.415,2.96-1.777.838,3.35h8.018v20.807A6.944,6.944,0,0,0,240.742,299h36.064a6.943,6.943,0,0,0,6.936-6.935V276.346A19.444,19.444,0,0,0,299,257.387Zm-2.774,0a16.529,16.529,0,0,1-1.81,7.51,6.923,6.923,0,0,0-4.83-4.357l-5.844-1.462v-.332a6.942,6.942,0,0,0,2.774-5.519v-2.774a6.936,6.936,0,0,0-7.551-6.909,7.135,7.135,0,0,0-6.32,7.195v2.487a6.942,6.942,0,0,0,2.774,5.519v.332l-5.843,1.462a6.916,6.916,0,0,0-4.83,4.356,16.637,16.637,0,1,1,31.48-7.508Zm-20.807-18.959a19.337,19.337,0,0,0-2.774.842v-4.076H244.9v19.419h15.48a19.214,19.214,0,0,0-.222,2.774,19.445,19.445,0,0,0,15.258,18.959v3.235h-33.29V232.419h33.29ZM260.98,251.839h-13.3V237.968h22.194V240.6A19.482,19.482,0,0,0,260.98,251.839Zm-20.238-36.065h36.064a4.166,4.166,0,0,1,4.162,4.161V224.1H236.581v-4.162A4.166,4.166,0,0,1,240.742,215.774Zm-6.936,43.794a6.936,6.936,0,1,1,0-12.684Zm-5.852,8.916-.675-2.7-.282-.742-1.584-.643-2.993,1.8-4.353-4.354,1.8-2.994-.694-1.693-3.4-.847v-6.156l3.393-.848.7-1.692-1.8-2.995,4.353-4.354,2.993,1.8,1.692-.688.849-3.4h5.852v5.971a9.71,9.71,0,1,0,0,18.573v5.972Zm48.852,27.742H240.742a4.166,4.166,0,0,1-4.161-4.161V287.9h44.387v4.162A4.166,4.166,0,0,1,276.806,296.226Zm4.162-11.1H236.581V226.871h44.387v11.167c-.461-.033-.919-.07-1.387-.07s-.927.037-1.387.07v-8.393H239.355v52.71h38.839v-5.619c.46.033.918.07,1.387.07s.926-.037,1.387-.07Zm-1.387-11.1A16.6,16.6,0,0,1,267.1,268.36v-1.093a4.157,4.157,0,0,1,3.151-4.037l7.946-1.985v-4.038l-.69-.4a4.118,4.118,0,0,1-2.085-3.58v-2.487a4.347,4.347,0,0,1,3.786-4.432,4.161,4.161,0,0,1,4.537,4.145v2.774a4.118,4.118,0,0,1-2.085,3.58l-.689.4v4.038l7.945,1.985a4.157,4.157,0,0,1,3.152,4.037v1.093A16.6,16.6,0,0,1,279.581,274.032Z"/>
    <path id="Trazado_143969" data-name="Trazado 143969" d="M264.323,218.548H267.1v2.775h-2.774Z"/>
    <path id="Trazado_143970" data-name="Trazado 143970" d="M250.452,218.548h11.1v2.775h-11.1Z"/>
    <path id="Trazado_143971" data-name="Trazado 143971" d="M253.226,290.677h11.1v2.775h-11.1Z"/>
    <path id="Trazado_143972" data-name="Trazado 143972" d="M272.645,290.677h2.774v2.775h-2.774Z"/>
    <path id="Trazado_143973" data-name="Trazado 143973" d="M242.129,290.677H244.9v2.775h-2.774Z"/>
    <path id="Trazado_143974" data-name="Trazado 143974" d="M244.9,257.387h12.484v2.774H244.9Z"/>
    <path id="Trazado_143975" data-name="Trazado 143975" d="M244.9,262.935h12.484v2.775H244.9Z"/>
    <path id="Trazado_143976" data-name="Trazado 143976" d="M244.9,268.484h12.484v2.774H244.9Z"/>
    <path id="Trazado_143977" data-name="Trazado 143977" d="M244.9,274.032h12.484v2.774H244.9Z"/>
    <path id="Trazado_143978" data-name="Trazado 143978" d="M290.677,237.968a4.152,4.152,0,0,0,1.388-8.068V218.548H289.29V229.9a4.152,4.152,0,0,0,1.387,8.068Zm0-5.549a1.387,1.387,0,1,1-1.387,1.387A1.389,1.389,0,0,1,290.677,232.419Z"/>
    <path id="Trazado_143979" data-name="Trazado 143979" d="M289.29,213h2.775v2.774H289.29Z"/>
    <path id="Trazado_143980" data-name="Trazado 143980" d="M226.871,274.032a4.152,4.152,0,0,0-1.387,8.068v11.352h2.774V282.1a4.152,4.152,0,0,0-1.387-8.068Zm0,5.549a1.387,1.387,0,1,1,1.387-1.387A1.389,1.389,0,0,1,226.871,279.581Z"/>
    <path id="Trazado_143981" data-name="Trazado 143981" d="M225.484,296.226h2.774V299h-2.774Z"/>
  </g>
</svg>
