<svg xmlns="http://www.w3.org/2000/svg" width="48.972" height="60" viewBox="0 0 48.972 60">
  <g id="exclamation-mark" transform="translate(-47.053)">
    <g id="Grupo_54835" data-name="Grupo 54835" transform="translate(47.932 0.879)">
      <path id="Trazado_103159" data-name="Trazado 103159" d="M90.794,7.5H65.527A10.973,10.973,0,0,0,54.554,18.473V45.308A10.973,10.973,0,0,0,65.527,56.282h6.49a1.493,1.493,0,0,1,1.364.887L76.8,64.855a1.493,1.493,0,0,0,2.729,0l3.415-7.687a1.493,1.493,0,0,1,1.364-.887h6.49a10.973,10.973,0,0,0,10.973-10.973V18.473A10.973,10.973,0,0,0,90.794,7.5Z" transform="translate(-54.554 -7.5)" fill="#f5f5f5"/>
    </g>
    <g id="Grupo_54836" data-name="Grupo 54836" transform="translate(67.923 8.945)">
      <path id="Trazado_103160" data-name="Trazado 103160" d="M230.161,96.641h-2.8a1.085,1.085,0,0,1-1.082-1.017l-1.13-18.139a1.085,1.085,0,0,1,1.082-1.152h5.063a1.085,1.085,0,0,1,1.082,1.152l-1.13,18.139A1.085,1.085,0,0,1,230.161,96.641Zm-1.4,5.739a3.2,3.2,0,1,0,3.2,3.2A3.2,3.2,0,0,0,228.76,102.381Z" transform="translate(-225.144 -76.333)" fill="#b3009d"/>
    </g>
    <g id="Grupo_54837" data-name="Grupo 54837" transform="translate(80.657 0.879)">
      <path id="Trazado_103161" data-name="Trazado 103161" d="M337.322,7.5h-3.516a10.973,10.973,0,0,1,10.973,10.973V45.308a10.973,10.973,0,0,1-10.973,10.973h3.516A10.973,10.973,0,0,0,348.3,45.308V18.473A10.973,10.973,0,0,0,337.322,7.5Z" transform="translate(-333.806 -7.5)" fill="#ebe5ed"/>
    </g>
    <g id="Grupo_54838" data-name="Grupo 54838" transform="translate(69.781 34.993)">
      <path id="Trazado_103162" data-name="Trazado 103162" d="M242.758,298.607a3.18,3.18,0,0,0-1.758.527,3.2,3.2,0,0,1,0,5.337,3.2,3.2,0,1,0,1.758-5.864Z" transform="translate(-241 -298.607)" fill="#e600c9"/>
    </g>
    <g id="Grupo_54839" data-name="Grupo 54839" transform="translate(69.781 8.945)">
      <path id="Trazado_103163" data-name="Trazado 103163" d="M245.289,76.333h-3.516a1.085,1.085,0,0,1,1.082,1.152l-1.13,18.139a1.084,1.084,0,0,1-.726.956,1.078,1.078,0,0,0,.356.061h2.8a1.085,1.085,0,0,0,1.082-1.017l1.13-18.139A1.085,1.085,0,0,0,245.289,76.333Z" transform="translate(-241 -76.333)" fill="#e600c9"/>
    </g>
    <g id="Grupo_54840" data-name="Grupo 54840" transform="translate(67.044 8.066)">
      <path id="Trazado_103164" data-name="Trazado 103164" d="M223.541,90.9h-2.8a1.967,1.967,0,0,1-1.96-1.841l-1.13-18.139a1.964,1.964,0,0,1,1.96-2.085h5.063a1.963,1.963,0,0,1,1.96,2.085L225.5,89.059A1.967,1.967,0,0,1,223.541,90.9Zm-3.933-20.308a.206.206,0,0,0-.205.218l1.13,18.139a.206.206,0,0,0,.205.193h2.8a.206.206,0,0,0,.205-.193l1.13-18.139a.206.206,0,0,0-.205-.218Z" transform="translate(-217.645 -68.834)" fill="#3c0061"/>
    </g>
    <g id="Grupo_54841" data-name="Grupo 54841" transform="translate(67.464 34.114)">
      <path id="Trazado_103165" data-name="Trazado 103165" d="M225.3,299.255a4.075,4.075,0,1,1,4.075-4.075A4.079,4.079,0,0,1,225.3,299.255Zm0-6.391a2.317,2.317,0,1,0,2.317,2.317A2.319,2.319,0,0,0,225.3,292.864Z" transform="translate(-221.23 -291.106)" fill="#3c0061"/>
    </g>
    <g id="Grupo_54842" data-name="Grupo 54842" transform="translate(47.053)">
      <path id="Trazado_103166" data-name="Trazado 103166" d="M84.173,0H58.906A11.866,11.866,0,0,0,47.054,11.852v5.923a.879.879,0,1,0,1.758,0V11.852A10.106,10.106,0,0,1,58.906,1.758H84.173A10.106,10.106,0,0,1,94.268,11.852V27.92a.879.879,0,0,0,1.758,0V11.852A11.866,11.866,0,0,0,84.173,0Z" transform="translate(-47.054)" fill="#3c0061"/>
      <path id="Trazado_103167" data-name="Trazado 103167" d="M95.146,184.33a.879.879,0,0,0-.879.879v7.252a10.106,10.106,0,0,1-10.095,10.095h-6.49a2.374,2.374,0,0,0-2.168,1.409L72.1,211.651a.614.614,0,0,1-1.123,0l-3.415-7.687a2.374,2.374,0,0,0-2.168-1.409h-6.49a10.106,10.106,0,0,1-10.095-10.095v-17.4a.879.879,0,1,0-1.758,0v17.4a11.866,11.866,0,0,0,11.852,11.852H65.4a.615.615,0,0,1,.561.365l3.415,7.687a2.372,2.372,0,0,0,4.335,0l3.415-7.687a.614.614,0,0,1,.561-.365h6.49a11.866,11.866,0,0,0,11.852-11.852v-7.252A.879.879,0,0,0,95.146,184.33Z" transform="translate(-47.053 -153.774)" fill="#3c0061"/>
    </g>
  </g>
</svg>
