<svg xmlns="http://www.w3.org/2000/svg" xmlns:xlink="http://www.w3.org/1999/xlink" width="190" height="137" viewBox="0 0 190 137">
  <defs>
    <clipPath id="clip-path">
      <rect id="Rectángulo_7590" data-name="Rectángulo 7590" width="190" height="137" transform="translate(180 3657)" fill="#8c6df2"/>
    </clipPath>
  </defs>
  <g id="Enmascarar_grupo_54" data-name="Enmascarar grupo 54" transform="translate(-180 -3657)" clip-path="url(#clip-path)">
    <g id="Page-1" transform="translate(206.525 3657)">
      <g id="_039---Track-Suitcase" data-name="039---Track-Suitcase">
        <g id="Icons_copy" transform="translate(2.283 2.283)">
          <path id="Shape" d="M6.85,93.617H22.833v4.567a4.567,4.567,0,0,1-4.567,4.567h-6.85A4.567,4.567,0,0,1,6.85,98.183Z" fill="sienna"/>
          <path id="Shape-2" data-name="Shape" d="M102.75,27.4V45.986c-.959-.137-1.941-.228-2.923-.274a34.25,34.25,0,0,0-35.894,34.2,45.176,45.176,0,0,0,2.192,13.7H4.567A4.58,4.58,0,0,1,0,89.05V27.4a4.58,4.58,0,0,1,4.567-4.567H98.183A4.58,4.58,0,0,1,102.75,27.4Z" fill="#ff9801"/>
          <path id="Shape-3" data-name="Shape" d="M94.781,45.881c-.6-.062-1.2-.142-1.8-.169a34.25,34.25,0,0,0-35.894,34.2,45.176,45.176,0,0,0,2.192,13.7h6.85a45.176,45.176,0,0,1-2.192-13.7A34.218,34.218,0,0,1,94.781,45.881Z" fill="#f57c00"/>
          <path id="Shape-4" data-name="Shape" d="M98.183,22.833h-6.85A4.58,4.58,0,0,1,95.9,27.4V45.76a34.579,34.579,0,0,1,3.927-.048c.982.046,1.964.137,2.923.274V27.4a4.58,4.58,0,0,0-4.567-4.567Z" fill="#f57c00"/>
          <path id="Shape-5" data-name="Shape" d="M79.917,13.7v9.133H68.5V13.7a2.283,2.283,0,0,0-2.283-2.283h-27.4A2.283,2.283,0,0,0,36.533,13.7v9.133H25.117V13.7A13.7,13.7,0,0,1,38.817,0h27.4A13.7,13.7,0,0,1,79.917,13.7Z" fill="sienna"/>
          <path id="Shape-6" data-name="Shape" d="M66.217,0h-6.85a13.7,13.7,0,0,1,13.7,13.7v9.133h6.85V13.7A13.7,13.7,0,0,0,66.217,0Z" fill="#783e22"/>
          <path id="Shape-7" data-name="Shape" d="M18.267,57.083H27.4A2.283,2.283,0,0,0,29.683,54.8V42.045a2.283,2.283,0,0,0-.669-1.614l-4.567-4.567a2.283,2.283,0,0,0-3.229,0l-4.567,4.567a2.283,2.283,0,0,0-.669,1.614V54.8a2.283,2.283,0,0,0,2.283,2.283Z" fill="#ffdc00"/>
          <path id="Shape-8" data-name="Shape" d="M29.014,40.431l-4.567-4.567a2.283,2.283,0,0,0-3.229,0l-1.811,1.811,2.756,2.756a2.283,2.283,0,0,1,.669,1.614V54.8a2.283,2.283,0,0,1-2.283,2.283H27.4A2.283,2.283,0,0,0,29.683,54.8V42.045a2.283,2.283,0,0,0-.669-1.614Z" fill="#fec108"/>
          <path id="Shape-9" data-name="Shape" d="M132.182,84.483c-2.717,25.048-27.1,44.114-32.811,47.607a2.27,2.27,0,0,1-2.4,0c-5.023-3.105-24.295-17.856-30.848-38.474a45.176,45.176,0,0,1-2.192-13.7,34.25,34.25,0,0,1,35.894-34.2c.982.046,1.964.137,2.923.274a34.976,34.976,0,0,1,29.432,38.5Z" fill="#f44335"/>
          <path id="Shape-10" data-name="Shape" d="M102.75,45.986c-.959-.137-1.941-.228-2.923-.274a34.562,34.562,0,0,0-5.046.169c.372.039.751.053,1.119.105a34.976,34.976,0,0,1,29.432,38.5c-2.45,22.591-22.486,40.276-30.6,46.1.893.639,1.662,1.158,2.231,1.509a2.27,2.27,0,0,0,2.4,0c5.715-3.493,30.1-22.559,32.818-47.607a34.976,34.976,0,0,0-29.432-38.5Z" fill="#c81e1e"/>
        </g>
        <g id="Layer_12">
          <g id="Grupo_57096" data-name="Grupo 57096">
            <path id="Shape-11" data-name="Shape" d="M6.85,98.183v2.283a6.85,6.85,0,0,0,6.85,6.85h6.85a6.85,6.85,0,0,0,6.85-6.85V98.183H59.367a2.283,2.283,0,1,0,0-4.567H27.4V61.65h2.283a4.567,4.567,0,0,0,4.567-4.567V44.329A4.535,4.535,0,0,0,32.912,41.1l-4.567-4.567a4.491,4.491,0,0,0-.945-.706V27.4h73.067a2.283,2.283,0,0,1,2.283,2.283v9.133a2.283,2.283,0,1,0,4.567,0V29.683a6.85,6.85,0,0,0-6.85-6.85H84.483v-6.85A16,16,0,0,0,68.5,0H41.1A16,16,0,0,0,25.117,15.983v6.85H6.85A6.85,6.85,0,0,0,0,29.683v61.65A6.85,6.85,0,0,0,6.85,98.183Zm15.983,2.283a2.283,2.283,0,0,1-2.283,2.283H13.7a2.283,2.283,0,0,1-2.283-2.283V98.183H22.833Zm6.85-56.138V57.083H20.55V44.329l4.555-4.567h.023ZM68.5,22.833H41.1v-6.85H68.5Zm-38.817-6.85A11.43,11.43,0,0,1,41.1,4.567H68.5A11.43,11.43,0,0,1,79.917,15.983v6.85h-6.85v-6.85A4.567,4.567,0,0,0,68.5,11.417H41.1a4.567,4.567,0,0,0-4.567,4.567v6.85h-6.85ZM4.567,29.683A2.283,2.283,0,0,1,6.85,27.4H22.833v8.428a4.491,4.491,0,0,0-.945.706L17.321,41.1a4.535,4.535,0,0,0-1.338,3.229V57.083A4.567,4.567,0,0,0,20.55,61.65h2.283V93.617H6.85a2.283,2.283,0,0,1-2.283-2.283Z"/>
            <path id="Shape-12" data-name="Shape" d="M127.853,58.394a35.693,35.693,0,0,0-25.637-12.686A36.533,36.533,0,0,0,63.933,82.2c0,32.179,33.793,53.9,34.129,54.115a4.594,4.594,0,0,0,2.4.685,4.533,4.533,0,0,0,2.377-.685c7.939-4.877,31.188-24.432,33.9-49.3a37.9,37.9,0,0,0-8.887-28.622Zm4.338,28.131c-2.544,23.457-25.681,42.182-31.725,45.909C92.176,127.321,68.5,107.127,68.5,82.2a31.967,31.967,0,0,1,31.953-31.967q.772,0,1.548.037a31.174,31.174,0,0,1,22.377,11.095,33.314,33.314,0,0,1,7.827,25.16Z"/>
            <path id="Shape-13" data-name="Shape" d="M106.049,112.267l-5.583,3.726-5.583-3.722a2.284,2.284,0,0,0-2.535,3.8l6.85,4.567a2.283,2.283,0,0,0,2.535,0l6.85-4.567a2.284,2.284,0,0,0-2.535-3.8Z"/>
          </g>
          <path id="Shape-14" data-name="Shape" d="M81.935,93.331a2.283,2.283,0,0,1-2.055-1.295A22.817,22.817,0,0,1,110.3,61.607a2.283,2.283,0,0,1-1.977,4.11A18.248,18.248,0,0,0,83.99,90.059a2.283,2.283,0,0,1-2.055,3.272Z" fill="#f5f5f5"/>
          <path id="Shape-15" data-name="Shape" d="M100.467,105.033a22.687,22.687,0,0,1-9.818-2.235,2.283,2.283,0,0,1,1.977-4.11,18.248,18.248,0,0,0,24.317-24.347,2.283,2.283,0,0,1,4.11-1.977,22.817,22.817,0,0,1-20.587,32.67Z" fill="#f5f5f5"/>
        </g>
      </g>
    </g>
  </g>
</svg>
