<svg xmlns="http://www.w3.org/2000/svg" width="169.354" height="178" viewBox="0 0 169.354 178">
  <g id="Grupo_94602" data-name="Grupo 94602" transform="translate(246.023 -220.774)">
    <g id="Grupo_94597" data-name="Grupo 94597" transform="translate(-202.8 292.49)">
      <g id="Grupo_94593" data-name="Grupo 94593" transform="translate(38.737)">
        <path id="Trazado_151019" data-name="Trazado 151019" d="M-127.977,322.892H-175.36V289.45a6.785,6.785,0,0,1,6.776-6.777h33.83a6.785,6.785,0,0,1,6.777,6.777Zm-42.283-5.1h37.184V289.45a1.68,1.68,0,0,0-1.677-1.677h-33.83a1.679,1.679,0,0,0-1.676,1.677Z" transform="translate(175.997 -282.036)" fill="#f0c82f"/>
        <path id="Trazado_151020" data-name="Trazado 151020" d="M-134.662,282.128h-33.83a7.422,7.422,0,0,0-7.413,7.414,3.076,3.076,0,0,0,.036.36,3.052,3.052,0,0,0-.036.36v2.709a3.187,3.187,0,0,0,3.186,3.188,3.188,3.188,0,0,0,3.188-3.188v-2.709a3.052,3.052,0,0,0-.036-.36,3.076,3.076,0,0,0,.036-.36,1.041,1.041,0,0,1,1.039-1.04h33.83a1.041,1.041,0,0,1,1.04,1.04v2.632a3.187,3.187,0,0,0,3.186,3.188,3.188,3.188,0,0,0,3.188-3.188v-2.632A7.422,7.422,0,0,0-134.662,282.128Z" transform="translate(175.905 -282.128)" fill="#585960"/>
      </g>
      <g id="Grupo_94595" data-name="Grupo 94595" transform="translate(0 18.699)">
        <rect id="Rectángulo_12257" data-name="Rectángulo 12257" width="126.13" height="78.29" rx="6.008" fill="#585960"/>
        <g id="Grupo_94594" data-name="Grupo 94594" transform="translate(27.24)">
          <rect id="Rectángulo_12258" data-name="Rectángulo 12258" width="8.348" height="78.29" fill="#8675cf"/>
          <rect id="Rectángulo_12259" data-name="Rectángulo 12259" width="8.348" height="78.29" transform="translate(63.302)" fill="#8675cf"/>
        </g>
      </g>
      <path id="Rectángulo_12260" data-name="Rectángulo 12260" d="M8.925,0H117.2a8.925,8.925,0,0,1,8.925,8.925V34.146a5.54,5.54,0,0,1-5.54,5.54H5.54A5.54,5.54,0,0,1,0,34.146V8.925A8.925,8.925,0,0,1,8.925,0Z" transform="translate(0 57.303)" fill="#4f0072" opacity="0.15" style="mix-blend-mode: multiply;isolation: isolate"/>
      <g id="Grupo_94596" data-name="Grupo 94596" transform="translate(0 18.699)">
        <path id="Trazado_151021" data-name="Trazado 151021" d="M-201.552,298.3c0-.058-.007-.116-.008-.175h-3.709a3.775,3.775,0,0,0-3.776,3.776v3.892A7.491,7.491,0,0,0-201.552,298.3Z" transform="translate(209.045 -298.125)" fill="#f0c82f"/>
        <path id="Trazado_151022" data-name="Trazado 151022" d="M-100.056,305.793V301.9a3.775,3.775,0,0,0-3.774-3.776h-3.709c0,.06-.009.117-.009.175A7.492,7.492,0,0,0-100.056,305.793Z" transform="translate(226.187 -298.125)" fill="#f0c82f"/>
        <path id="Trazado_151023" data-name="Trazado 151023" d="M-209.045,358.543v3.892a3.775,3.775,0,0,0,3.776,3.776h3.709c0-.058.008-.116.008-.175A7.492,7.492,0,0,0-209.045,358.543Z" transform="translate(209.045 -287.921)" fill="#f0c82f"/>
        <path id="Trazado_151024" data-name="Trazado 151024" d="M-100.056,362.435v-3.892a7.493,7.493,0,0,0-7.493,7.493c0,.06.008.117.009.175h3.709A3.775,3.775,0,0,0-100.056,362.435Z" transform="translate(226.187 -287.921)" fill="#f0c82f"/>
      </g>
    </g>
    <g id="Grupo_94601" data-name="Grupo 94601" transform="translate(-246.023 220.774)">
      <path id="Trazado_151025" data-name="Trazado 151025" d="M-174.474,259.988h-45.581V227.817a6.526,6.526,0,0,1,6.519-6.519h32.543a6.526,6.526,0,0,1,6.519,6.519Zm-40.675-4.906h35.769V227.817a1.616,1.616,0,0,0-1.613-1.613h-32.543a1.616,1.616,0,0,0-1.613,1.613Z" transform="translate(250.409 -220.686)" fill="#f9faf7"/>
      <rect id="Rectángulo_12261" data-name="Rectángulo 12261" width="55.086" height="13.67" rx="3.74" transform="translate(26.164 24.407)" fill="#585960"/>
      <rect id="Rectángulo_12262" data-name="Rectángulo 12262" width="77.928" height="22.075" rx="7.375" transform="translate(14.18 29.594)" fill="#8975cf"/>
      <g id="Grupo_94598" data-name="Grupo 94598" transform="translate(9.543 159.789)">
        <circle id="Elipse_5023" data-name="Elipse 5023" cx="6.439" cy="6.439" r="6.439" transform="translate(0 13.899) rotate(-76.765)" fill="#484951"/>
        <circle id="Elipse_5024" data-name="Elipse 5024" cx="6.439" cy="6.439" r="6.439" transform="translate(70.355 9.106) rotate(-45)" fill="#484951"/>
      </g>
      <rect id="Rectángulo_12263" data-name="Rectángulo 12263" width="94.843" height="7.767" rx="3.167" transform="translate(5.723 161.127)" fill="#585960"/>
      <rect id="Rectángulo_12264" data-name="Rectángulo 12264" width="106.289" height="128.365" rx="9.376" transform="translate(0 36.85)" fill="#574f8b"/>
      <g id="Grupo_94600" data-name="Grupo 94600" transform="translate(10.016 45.789)">
        <g id="Grupo_94599" data-name="Grupo 94599">
          <rect id="Rectángulo_12265" data-name="Rectángulo 12265" width="86.258" height="70.016" rx="3.962" transform="translate(0 40.472)" fill="#8975cf"/>
          <rect id="Rectángulo_12266" data-name="Rectángulo 12266" width="86.258" height="30.865" rx="3.962" fill="#8975cf"/>
        </g>
      </g>
      <path id="Trazado_151026" data-name="Trazado 151026" d="M-220.984,371.727h-4.033a4.859,4.859,0,0,1-4.859-4.859v-60.3a4.859,4.859,0,0,1,4.859-4.859h4.033v-5.574a4.033,4.033,0,0,0-4.033-4.033h0a4.859,4.859,0,0,1-4.859-4.858V266.1a4.859,4.859,0,0,1,4.859-4.859h4.033V256.77a4.469,4.469,0,0,0-4.469-4.47h-13.621a6.949,6.949,0,0,0-6.949,6.95V373.715a6.949,6.949,0,0,0,6.949,6.95h13.621a4.469,4.469,0,0,0,4.469-4.47Z" transform="translate(246.024 -215.45)" fill="#4f0072" opacity="0.1" style="mix-blend-mode: multiply;isolation: isolate"/>
      <path id="Trazado_151027" data-name="Trazado 151027" d="M-176.513,371.727h4.033a4.859,4.859,0,0,0,4.859-4.859v-60.3a4.859,4.859,0,0,0-4.859-4.859h-4.033v-5.574a4.033,4.033,0,0,1,4.033-4.033h0a4.859,4.859,0,0,0,4.859-4.859V266.1a4.859,4.859,0,0,0-4.859-4.859h-4.033v-4.47a4.469,4.469,0,0,1,4.469-4.469h13.621a6.95,6.95,0,0,1,6.949,6.949V373.715a6.95,6.95,0,0,1-6.949,6.95h-13.621a4.469,4.469,0,0,1-4.469-4.47Z" transform="translate(257.763 -215.45)" fill="#4f0072" opacity="0.1" style="mix-blend-mode: multiply;isolation: isolate"/>
      <rect id="Rectángulo_12267" data-name="Rectángulo 12267" width="86.207" height="2.258" transform="translate(10.041 95.402)" fill="#585960"/>
      <rect id="Rectángulo_12268" data-name="Rectángulo 12268" width="86.207" height="2.258" transform="translate(10.041 52.631)" fill="#585960"/>
      <path id="Trazado_151028" data-name="Trazado 151028" d="M-178.1,304.451l-.921,8.135a1.233,1.233,0,0,0,1.418,1.356l3.411-.542a1.231,1.231,0,0,0,.977-1.6l-2.491-7.594a1.229,1.229,0,0,0-1.17-.847h0A1.231,1.231,0,0,0-178.1,304.451Z" transform="translate(257.338 -206.827)" fill="#585960"/>
      <path id="Trazado_151029" data-name="Trazado 151029" d="M-178.1,267.86l-.921,8.135a1.232,1.232,0,0,0,1.418,1.355l3.411-.541a1.232,1.232,0,0,0,.977-1.6l-2.491-7.594a1.23,1.23,0,0,0-1.17-.849h0A1.232,1.232,0,0,0-178.1,267.86Z" transform="translate(257.338 -213.007)" fill="#585960"/>
      <path id="Trazado_151030" data-name="Trazado 151030" d="M-180.9,220.774h-32.543a7.14,7.14,0,0,0-7.133,7.131,3.085,3.085,0,0,0,.035.347,3.085,3.085,0,0,0-.035.347v2.605a3.065,3.065,0,0,0,3.066,3.066,3.065,3.065,0,0,0,3.066-3.066V228.6a2.843,2.843,0,0,0-.035-.347,2.843,2.843,0,0,0,.035-.347,1,1,0,0,1,1-1H-180.9a1,1,0,0,1,1,1v2.533a3.066,3.066,0,0,0,3.066,3.067,3.066,3.066,0,0,0,3.066-3.067v-2.533A7.14,7.14,0,0,0-180.9,220.774Z" transform="translate(250.321 -220.774)" fill="#585960"/>
    </g>
  </g>
</svg>
