<svg xmlns="http://www.w3.org/2000/svg" width="92" height="92" viewBox="0 0 92 92">
  <g id="Grupo_104194" data-name="Grupo 104194" transform="translate(-360 -13628.758)">
    <circle id="Elipse_5325" data-name="Elipse 5325" cx="46" cy="46" r="46" transform="translate(360 13628.758)" fill="#5038a1"/>
    <circle id="Elipse_5326" data-name="Elipse 5326" cx="39.292" cy="39.292" r="39.292" transform="translate(367 13635.467)" fill="#8c6df2"/>
    <g id="Grupo_104108" data-name="Grupo 104108" transform="translate(150.52 13421.52)">
      <path id="Trazado_165718" data-name="Trazado 165718" d="M282.6,238.571v34.858a3.669,3.669,0,0,1-3.669,3.67H233.067a3.669,3.669,0,0,1-3.669-3.67V238.571Z" fill="#9d9d9d"/>
      <path id="Trazado_165719" data-name="Trazado 165719" d="M279.851,238.571v34.858a3.67,3.67,0,0,1-3.67,3.67H233.067a3.669,3.669,0,0,1-3.669-3.67V238.571Z" fill="#ced7db"/>
      <path id="Trazado_165720" data-name="Trazado 165720" d="M282.6,233.067V240.4H229.4v-7.338a3.668,3.668,0,0,1,3.669-3.669h45.866A3.668,3.668,0,0,1,282.6,233.067Z" fill="#00828e"/>
      <path id="Trazado_165721" data-name="Trazado 165721" d="M279.851,233.067V240.4H229.4v-7.338a3.668,3.668,0,0,1,3.669-3.669h43.114A3.669,3.669,0,0,1,279.851,233.067Z" fill="#00bbd3"/>
      <path id="Trazado_165722" data-name="Trazado 165722" d="M236.736,234.9a1.834,1.834,0,1,1-1.835-1.834A1.834,1.834,0,0,1,236.736,234.9Z" fill="#f34335"/>
      <path id="Trazado_165723" data-name="Trazado 165723" d="M244.075,234.9a1.835,1.835,0,1,1-1.835-1.834A1.835,1.835,0,0,1,244.075,234.9Z" fill="#ffea3a"/>
      <path id="Trazado_165724" data-name="Trazado 165724" d="M251.413,234.9a1.834,1.834,0,1,1-1.834-1.834A1.834,1.834,0,0,1,251.413,234.9Z" fill="#4cae50"/>
      <path id="Trazado_165725" data-name="Trazado 165725" d="M241.322,244.075h29.356a1.834,1.834,0,0,1,1.834,1.834v34.859a1.834,1.834,0,0,1-1.834,1.834H241.322a1.834,1.834,0,0,1-1.834-1.834V245.909A1.834,1.834,0,0,1,241.322,244.075Z" fill="#fdc008"/>
      <path id="Trazado_165726" data-name="Trazado 165726" d="M241.322,244.075h26.6a1.834,1.834,0,0,1,1.835,1.834v34.859a1.834,1.834,0,0,1-1.835,1.834h-26.6a1.834,1.834,0,0,1-1.834-1.834V245.909A1.834,1.834,0,0,1,241.322,244.075Z" fill="#ffea3a"/>
      <path id="Trazado_165727" data-name="Trazado 165727" d="M234.9,237.653a2.752,2.752,0,1,0-2.752-2.752A2.752,2.752,0,0,0,234.9,237.653Zm0-3.669a.918.918,0,1,1-.917.917A.918.918,0,0,1,234.9,233.984Z"/>
      <path id="Trazado_165728" data-name="Trazado 165728" d="M242.24,237.653a2.752,2.752,0,1,0-2.752-2.752A2.752,2.752,0,0,0,242.24,237.653Zm0-3.669a.918.918,0,1,1-.918.917A.918.918,0,0,1,242.24,233.984Z"/>
      <path id="Trazado_165729" data-name="Trazado 165729" d="M249.579,237.653a2.752,2.752,0,1,0-2.752-2.752A2.752,2.752,0,0,0,249.579,237.653Zm0-3.669a.918.918,0,1,1-.918.917A.918.918,0,0,1,249.579,233.984Z"/>
      <path id="Trazado_165730" data-name="Trazado 165730" d="M258.752,235.819h9.173a.918.918,0,0,0,0-1.835h-9.173a.918.918,0,0,0,0,1.835Z"/>
      <path id="Trazado_165731" data-name="Trazado 165731" d="M271.6,235.819h6.421a.918.918,0,0,0,0-1.835H271.6a.918.918,0,0,0,0,1.835Z"/>
      <path id="Trazado_165732" data-name="Trazado 165732" d="M278.933,228.48H233.067a4.593,4.593,0,0,0-4.587,4.587v40.362a4.593,4.593,0,0,0,4.587,4.587h5.5v2.752a2.752,2.752,0,0,0,2.751,2.752h29.356a2.752,2.752,0,0,0,2.751-2.752v-2.752h5.5a4.593,4.593,0,0,0,4.587-4.587V233.067A4.593,4.593,0,0,0,278.933,228.48Zm-45.866,1.835h45.866a2.752,2.752,0,0,1,2.752,2.752v6.421h-51.37v-6.421A2.752,2.752,0,0,1,233.067,230.315ZM271.6,280.768a.917.917,0,0,1-.917.917H241.322a.917.917,0,0,1-.917-.917V245.909a.918.918,0,0,1,.917-.917h29.356a.918.918,0,0,1,.917.917Zm7.338-4.587h-5.5V245.909a2.751,2.751,0,0,0-2.751-2.751H241.322a2.751,2.751,0,0,0-2.751,2.751v30.272h-5.5a2.752,2.752,0,0,1-2.752-2.752V241.322h51.37v32.107A2.752,2.752,0,0,1,278.933,276.181Z"/>
      <path id="Trazado_165733" data-name="Trazado 165733" d="M244.075,256.918a.918.918,0,0,0,.917-.918v-4.587h4.587a.917.917,0,1,0,0-1.834h-4.587a1.834,1.834,0,0,0-1.834,1.834V256A.918.918,0,0,0,244.075,256.918Z"/>
      <path id="Trazado_165734" data-name="Trazado 165734" d="M252.485,249.984l-3.048,4.574-1.044-1.044a.917.917,0,0,0-1.3,1.293l1.834,1.835a.927.927,0,0,0,.649.276h.092a.924.924,0,0,0,.672-.4l3.669-5.5a.917.917,0,1,0-1.526-1.019Z"/>
      <path id="Trazado_165735" data-name="Trazado 165735" d="M244.075,267.008a.918.918,0,0,0,.917-.917V261.5h4.587a.917.917,0,0,0,0-1.835h-4.587a1.835,1.835,0,0,0-1.834,1.835v4.587A.917.917,0,0,0,244.075,267.008Z"/>
      <path id="Trazado_165736" data-name="Trazado 165736" d="M252.485,260.075l-3.048,4.574-1.044-1.044a.917.917,0,0,0-1.3,1.293l1.834,1.835a.921.921,0,0,0,.649.275.592.592,0,0,0,.092-.005.92.92,0,0,0,.672-.4l3.669-5.5a.917.917,0,1,0-1.526-1.019Z"/>
      <path id="Trazado_165737" data-name="Trazado 165737" d="M250.5,270.678a.918.918,0,0,0-.917-.918h-4.587a1.834,1.834,0,0,0-1.834,1.835v4.586a.917.917,0,1,0,1.834,0V271.6h4.587A.918.918,0,0,0,250.5,270.678Z"/>
      <path id="Trazado_165738" data-name="Trazado 165738" d="M252.485,270.166l-3.048,4.573-1.044-1.043a.917.917,0,0,0-1.3,1.293l1.834,1.835a.922.922,0,0,0,.649.275.592.592,0,0,0,.092-.005.918.918,0,0,0,.672-.4l3.669-5.5a.917.917,0,0,0-1.526-1.018Z"/>
      <path id="Trazado_165739" data-name="Trazado 165739" d="M257.835,252.331h6.421a.917.917,0,0,0,0-1.835h-6.421a.917.917,0,0,0,0,1.835Z"/>
      <path id="Trazado_165740" data-name="Trazado 165740" d="M268.842,250.5h-.917a.917.917,0,0,0,0,1.835h.917a.917.917,0,1,0,0-1.835Z"/>
      <path id="Trazado_165741" data-name="Trazado 165741" d="M261.5,255.082a.918.918,0,0,0,.917.918h3.67a.918.918,0,0,0,0-1.835h-3.67A.918.918,0,0,0,261.5,255.082Z"/>
      <path id="Trazado_165742" data-name="Trazado 165742" d="M257.835,256h.917a.918.918,0,0,0,0-1.835h-.917a.918.918,0,0,0,0,1.835Z"/>
      <path id="Trazado_165743" data-name="Trazado 165743" d="M257.835,262.421h6.421a.917.917,0,0,0,0-1.834h-6.421a.917.917,0,0,0,0,1.834Z"/>
      <path id="Trazado_165744" data-name="Trazado 165744" d="M268.842,260.587h-.917a.917.917,0,1,0,0,1.834h.917a.917.917,0,1,0,0-1.834Z"/>
      <path id="Trazado_165745" data-name="Trazado 165745" d="M266.091,264.256h-3.67a.917.917,0,0,0,0,1.835h3.67a.917.917,0,0,0,0-1.835Z"/>
      <path id="Trazado_165746" data-name="Trazado 165746" d="M257.835,266.091h.917a.917.917,0,0,0,0-1.835h-.917a.917.917,0,0,0,0,1.835Z"/>
      <path id="Trazado_165747" data-name="Trazado 165747" d="M257.835,272.512h6.421a.917.917,0,0,0,0-1.834h-6.421a.917.917,0,0,0,0,1.834Z"/>
      <path id="Trazado_165748" data-name="Trazado 165748" d="M268.842,270.678h-.917a.917.917,0,1,0,0,1.834h.917a.917.917,0,1,0,0-1.834Z"/>
      <path id="Trazado_165749" data-name="Trazado 165749" d="M266.091,274.347h-3.67a.917.917,0,0,0,0,1.834h3.67a.917.917,0,0,0,0-1.834Z"/>
      <path id="Trazado_165750" data-name="Trazado 165750" d="M258.752,274.347h-.917a.917.917,0,0,0,0,1.834h.917a.917.917,0,0,0,0-1.834Z"/>
    </g>
  </g>
</svg>
