<svg xmlns="http://www.w3.org/2000/svg" width="73.697" height="78.617" viewBox="0 0 73.697 78.617">
  <g id="Grupo_100667" data-name="Grupo 100667" transform="translate(-225.352 -383.773)">
    <path id="Trazado_160083" data-name="Trazado 160083" d="M287.2,390.342l3.685,3.685H241.756v3.684H295.8Z" transform="translate(2.019 0.809)" fill="#0286e7"/>
    <path id="Trazado_160084" data-name="Trazado 160084" d="M287.2,391.015H247.9l-6.142-6.142V394.7H291.5Z" transform="translate(2.019 0.135)" fill="#2aaff5"/>
    <path id="Trazado_160085" data-name="Trazado 160085" d="M238.476,418.776h4.912v34.393h-4.912Z" transform="translate(1.616 4.309)" fill="#ffaf00"/>
    <path id="Trazado_160086" data-name="Trazado 160086" d="M277.242,453.169V418.776H242.85v34.393Zm-20.881-17.2h-7.37V428.6h7.37Zm7.456,12.541-4.349-4.349,4.779-4.778,4.4,4.348Zm3.6-16.225a3.071,3.071,0,1,1,3.071-3.071A3.071,3.071,0,0,1,267.416,432.288ZM244.079,420h31.935V451.94h-2.457V422.461H244.079Z" transform="translate(2.154 4.309)" fill="#ffaf00"/>
    <path id="Trazado_160087" data-name="Trazado 160087" d="M248.318,427.526h7.37v7.37h-7.37Z" transform="translate(2.827 5.386)" fill="#0286e7"/>
    <path id="Trazado_160088" data-name="Trazado 160088" d="M257.641,441.911l4.777-4.775,4.342,4.342-4.777,4.775Z" transform="translate(3.975 6.569)" fill="#0286e7"/>
    <circle id="Elipse_5030" data-name="Elipse 5030" cx="3.071" cy="3.071" r="3.071" transform="translate(266.499 430.455)" fill="#0286e7"/>
    <path id="Trazado_160089" data-name="Trazado 160089" d="M243.944,419.87h29.478v2.456H243.944Z" transform="translate(2.289 4.444)" fill="#fdc12a"/>
    <path id="Trazado_160090" data-name="Trazado 160090" d="M270.191,451.805h2.457V419.87h-2.457v31.935Z" transform="translate(5.52 4.444)" fill="#fdc12a"/>
    <path id="Trazado_160091" data-name="Trazado 160091" d="M268.24,404.559H246.131v2.456h2.456v13.511h2.457V407.015h12.282v13.511h2.457V407.015h2.456Z" transform="translate(2.558 2.559)" fill="#dd9505"/>
    <path id="Trazado_160092" data-name="Trazado 160092" d="M253.5,445.293H247.36a1.228,1.228,0,1,1,0-2.456H253.5a1.228,1.228,0,1,1,0,2.456Z" transform="translate(2.558 7.271)" fill="#fdc12a"/>
    <g id="Grupo_100664" data-name="Grupo 100664" transform="translate(225.352 383.773)">
      <path id="Trazado_160093" data-name="Trazado 160093" d="M277.915,419.3H266.861V407.015h2.456v-2.456H247.208v2.456h2.456V419.3H238.611a1.228,1.228,0,0,0-1.229,1.228v34.393a1.228,1.228,0,0,0,1.229,1.228h39.3a1.228,1.228,0,0,0,1.229-1.228V420.526A1.228,1.228,0,0,0,277.915,419.3Zm-25.793-12.283H264.4V419.3H252.122Zm-12.283,14.74h2.456V453.69h-2.456Zm36.849,31.935H244.752V421.755h31.935Z" transform="translate(-223.871 -381.214)"/>
      <path id="Trazado_160094" data-name="Trazado 160094" d="M248.318,451.586h2.457v2.456h-2.457Z" transform="translate(-222.525 -375.425)"/>
      <path id="Trazado_160095" data-name="Trazado 160095" d="M241.756,451.586h2.457v2.456h-2.457Z" transform="translate(-223.333 -375.425)"/>
      <path id="Trazado_160096" data-name="Trazado 160096" d="M260.349,451.586h2.456v2.456h-2.456Z" transform="translate(-221.044 -375.425)"/>
      <path id="Trazado_160097" data-name="Trazado 160097" d="M266.91,451.586h2.457v2.456H266.91Z" transform="translate(-220.236 -375.425)"/>
      <path id="Trazado_160098" data-name="Trazado 160098" d="M248.453,436.258h7.37a1.228,1.228,0,0,0,1.229-1.228v-7.37a1.229,1.229,0,0,0-1.229-1.229h-7.37a1.228,1.228,0,0,0-1.228,1.229v7.37A1.227,1.227,0,0,0,248.453,436.258Zm1.229-7.37h4.914V433.8h-4.914Z" transform="translate(-222.659 -378.522)"/>
      <path id="Trazado_160099" data-name="Trazado 160099" d="M261.269,447.263a1.228,1.228,0,0,0,1.732,0l4.779-4.815a1.228,1.228,0,0,0,0-1.732l-4.349-4.348a1.228,1.228,0,0,0-1.732,0l-4.778,4.851a1.23,1.23,0,0,0,0,1.733Zm1.3-8.254,2.6,2.6-3.046,3.047-2.543-2.6Z" transform="translate(-221.51 -377.343)"/>
      <path id="Trazado_160100" data-name="Trazado 160100" d="M265.194,432.842a4.3,4.3,0,1,0-4.3-4.3A4.3,4.3,0,0,0,265.194,432.842Zm0-6.141a1.842,1.842,0,1,1-1.842,1.843A1.843,1.843,0,0,1,265.194,426.7Z" transform="translate(-220.977 -378.791)"/>
      <path id="Trazado_160101" data-name="Trazado 160101" d="M236.214,405.839l-1.732,1.744-1.732-1.744-1.744,1.744,1.744,1.732-1.744,1.732,1.744,1.744,1.732-1.744,1.732,1.744,1.744-1.744-1.744-1.732,1.744-1.732Z" transform="translate(-224.656 -381.057)"/>
      <path id="Trazado_160102" data-name="Trazado 160102" d="M230.82,393.623h9.826v2.456H230.82Z" transform="translate(-224.679 -382.561)"/>
      <path id="Trazado_160103" data-name="Trazado 160103" d="M225.352,390.342h15.967V392.8H225.352Z" transform="translate(-225.352 -382.965)"/>
      <path id="Trazado_160104" data-name="Trazado 160104" d="M282.9,407.975a1.229,1.229,0,0,0-1.229-1.229h-3.685a1.229,1.229,0,0,0,0,2.457h3.685A1.229,1.229,0,0,0,282.9,407.975Z" transform="translate(-219.024 -380.945)"/>
      <path id="Trazado_160105" data-name="Trazado 160105" d="M230.264,431.9H226.58a1.229,1.229,0,0,0,0,2.457h3.685a1.229,1.229,0,1,0,0-2.457Z" transform="translate(-225.352 -377.849)"/>
      <path id="Trazado_160106" data-name="Trazado 160106" d="M286.042,431.9h-3.685a1.229,1.229,0,0,0,0,2.457h3.685a1.229,1.229,0,0,0,0-2.457Z" transform="translate(-218.486 -377.849)"/>
      <path id="Trazado_160107" data-name="Trazado 160107" d="M296.734,397.586l-8.6-7.37a1.229,1.229,0,0,0-.8-.294H269.159l-8.365-3.587-.97,2.261,3.108,1.326h-14.4l-5.773-5.785a1.228,1.228,0,0,0-2.1.872v13.511a1.228,1.228,0,0,0,1.228,1.229h19.935l-3.488,2.715,1.512,1.941,5.982-4.655h30.1a1.228,1.228,0,0,0,.8-2.162Zm-27.747-.294L270.9,395.8l-1.512-1.94-4.409,3.427H243.119v-9.323l4.041,4.041a1.227,1.227,0,0,0,.873.368h38.85l5.736,4.914Z" transform="translate(-223.467 -383.773)"/>
      <path id="Trazado_160108" data-name="Trazado 160108" d="M257.068,392.529h2.456v2.456h-2.456Z" transform="translate(-221.448 -382.695)"/>
      <path id="Trazado_160109" data-name="Trazado 160109" d="M252.693,392.529h2.456v2.456h-2.456Z" transform="translate(-221.986 -382.695)"/>
      <path id="Trazado_160110" data-name="Trazado 160110" d="M248.318,392.529h2.457v2.456h-2.457Z" transform="translate(-222.525 -382.695)"/>
      <path id="Trazado_160111" data-name="Trazado 160111" d="M269.1,392.529h2.456v2.456H269.1Z" transform="translate(-219.967 -382.695)"/>
      <path id="Trazado_160112" data-name="Trazado 160112" d="M272.379,392.529h2.456v2.456h-2.456Z" transform="translate(-219.563 -382.695)"/>
      <path id="Trazado_160113" data-name="Trazado 160113" d="M275.66,392.529h2.456v2.456H275.66Z" transform="translate(-219.159 -382.695)"/>
      <path id="Trazado_160114" data-name="Trazado 160114" d="M278.941,392.529H281.4v2.456h-2.456Z" transform="translate(-218.755 -382.695)"/>
    </g>
  </g>
</svg>
