<svg xmlns="http://www.w3.org/2000/svg" width="72" height="72" viewBox="0 0 72 72">
  <g id="Grupo_100631" data-name="Grupo 100631" transform="translate(-221.334 -294.63)">
    <g id="Grupo_100632" data-name="Grupo 100632">
      <rect id="Rectángulo_32180" data-name="Rectángulo 32180" width="4.102" height="41.289" transform="translate(234.639 320.239)" fill="#deecf1"/>
    </g>
    <g id="Grupo_100633" data-name="Grupo 100633">
      <rect id="Rectángulo_32181" data-name="Rectángulo 32181" width="4.102" height="41.289" transform="translate(234.639 320.239)" fill="#deecf1"/>
    </g>
    <g id="Grupo_100634" data-name="Grupo 100634">
      <rect id="Rectángulo_32182" data-name="Rectángulo 32182" width="2.051" height="41.289" transform="translate(236.689 320.239)" fill="#c5d3dd"/>
    </g>
    <g id="Grupo_100635" data-name="Grupo 100635">
      <rect id="Rectángulo_32183" data-name="Rectángulo 32183" width="4.102" height="8.203" transform="translate(251.045 351.274)" fill="#3e5959"/>
    </g>
    <g id="Grupo_100636" data-name="Grupo 100636">
      <rect id="Rectángulo_32184" data-name="Rectángulo 32184" width="4.102" height="8.203" transform="translate(280.029 351.274)" fill="#293939"/>
    </g>
    <g id="Grupo_100637" data-name="Grupo 100637">
      <path id="Trazado_160066" data-name="Trazado 160066" d="M255.146,353.325h-8.2V328.442h8.2l4.1,12.113Z" fill="#f03800"/>
    </g>
    <g id="Grupo_100638" data-name="Grupo 100638">
      <path id="Trazado_160067" data-name="Trazado 160067" d="M280.029,328.442h8.2v24.883h-8.2l-4.1-12.77Z" fill="#ae2538"/>
    </g>
    <g id="Grupo_100639" data-name="Grupo 100639">
      <path id="Trazado_160068" data-name="Trazado 160068" d="M275.928,320.239v10.254h-4.1v-6.152H263.35v6.152h-4.1V320.239Z" fill="#3e5959"/>
    </g>
    <g id="Grupo_100640" data-name="Grupo 100640">
      <path id="Trazado_160069" data-name="Trazado 160069" d="M275.928,320.239v10.254h-4.1v-6.152h-4.238v-4.1Z" fill="#293939"/>
    </g>
    <g id="Grupo_100641" data-name="Grupo 100641">
      <rect id="Rectángulo_32185" data-name="Rectángulo 32185" width="24.883" height="24.883" transform="translate(255.146 328.442)" fill="#ff641a"/>
    </g>
    <g id="Grupo_100642" data-name="Grupo 100642">
      <rect id="Rectángulo_32186" data-name="Rectángulo 32186" width="12.441" height="24.883" transform="translate(267.588 328.442)" fill="#f03800"/>
    </g>
    <g id="Grupo_100643" data-name="Grupo 100643">
      <path id="Trazado_160070" data-name="Trazado 160070" d="M239.74,362.528h-6.1V319.239h6.1Zm-4.1-2h2.1V321.239h-2.1Z"/>
    </g>
    <g id="Grupo_100644" data-name="Grupo 100644">
      <path id="Trazado_160071" data-name="Trazado 160071" d="M236.689,295.63a14.355,14.355,0,1,0,14.356,14.355A14.37,14.37,0,0,0,236.689,295.63Z" fill="#4bb9ec"/>
    </g>
    <g id="Grupo_100645" data-name="Grupo 100645">
      <path id="Trazado_160072" data-name="Trazado 160072" d="M251.045,309.985a14.372,14.372,0,0,1-14.356,14.356V295.63A14.371,14.371,0,0,1,251.045,309.985Z" fill="#0095ff"/>
    </g>
    <g id="Grupo_100646" data-name="Grupo 100646">
      <path id="Trazado_160073" data-name="Trazado 160073" d="M246.943,309.985a11.222,11.222,0,0,1-.2,2.051l-4.265,4.1H230.906l-4.265-4.1a11.221,11.221,0,0,1-.205-2.051,10.253,10.253,0,1,1,20.507,0Z" fill="#deecf1"/>
    </g>
    <g id="Grupo_100647" data-name="Grupo 100647">
      <path id="Trazado_160074" data-name="Trazado 160074" d="M246.943,309.985a11.222,11.222,0,0,1-.2,2.051l-4.265,4.1h-5.784V299.731A10.257,10.257,0,0,1,246.943,309.985Z" fill="#c5d3dd"/>
    </g>
    <g id="Grupo_100648" data-name="Grupo 100648">
      <rect id="Rectángulo_32187" data-name="Rectángulo 32187" width="4.102" height="6.152" transform="translate(234.639 303.833)" fill="#ff641a"/>
    </g>
    <g id="Grupo_100649" data-name="Grupo 100649">
      <rect id="Rectángulo_32188" data-name="Rectángulo 32188" width="2.051" height="6.152" transform="translate(236.689 303.833)" fill="#f03800"/>
    </g>
    <g id="Grupo_100650" data-name="Grupo 100650">
      <path id="Trazado_160075" data-name="Trazado 160075" d="M236.689,325.341a15.355,15.355,0,1,1,15.356-15.356A15.374,15.374,0,0,1,236.689,325.341Zm0-28.711a13.355,13.355,0,1,0,13.356,13.355A13.37,13.37,0,0,0,236.689,296.63Z"/>
    </g>
    <g id="Grupo_100651" data-name="Grupo 100651">
      <path id="Trazado_160076" data-name="Trazado 160076" d="M239.24,310.485h-5.1v-7.152h5.1Zm-4.1-1h3.1v-5.152h-3.1Z"/>
    </g>
    <g id="Grupo_100652" data-name="Grupo 100652">
      <path id="Trazado_160077" data-name="Trazado 160077" d="M246.738,312.036a10.428,10.428,0,0,1-1.887,4.1,10.173,10.173,0,0,1-16.324,0,10.456,10.456,0,0,1-1.887-4.1h4.266a6.128,6.128,0,0,1,11.567,0Z" fill="#537983"/>
    </g>
    <g id="Grupo_100653" data-name="Grupo 100653">
      <path id="Trazado_160078" data-name="Trazado 160078" d="M246.738,312.036a10.428,10.428,0,0,1-1.887,4.1,10.313,10.313,0,0,1-8.162,4.1V307.934a6.133,6.133,0,0,1,5.783,4.1Z" fill="#3e5959"/>
    </g>
    <g id="Grupo_100654" data-name="Grupo 100654">
      <path id="Trazado_160079" data-name="Trazado 160079" d="M236.689,320.739a10.743,10.743,0,0,1-8.559-4.3,11.02,11.02,0,0,1-1.979-4.3l-.13-.606h4.539a6.631,6.631,0,0,1,12.259,0h4.539l-.131.606a11.021,11.021,0,0,1-1.977,4.3A10.745,10.745,0,0,1,236.689,320.739Zm-9.409-8.2a10.009,10.009,0,0,0,1.646,3.3,9.672,9.672,0,0,0,15.529,0,9.992,9.992,0,0,0,1.643-3.3h-3.982L242,312.2a5.628,5.628,0,0,0-10.621,0l-.116.337Z"/>
    </g>
    <g id="Grupo_100655" data-name="Grupo 100655">
      <path id="Trazado_160080" data-name="Trazado 160080" d="M236.689,321.239a11.239,11.239,0,0,1-8.955-4.493,11.51,11.51,0,0,1-2.071-4.5,12.252,12.252,0,0,1-.227-2.262,11.253,11.253,0,1,1,22.507,0,12.172,12.172,0,0,1-.222,2.236,11.523,11.523,0,0,1-2.073,4.521A11.242,11.242,0,0,1,236.689,321.239Zm0-20.508a9.264,9.264,0,0,0-9.253,9.254,10.188,10.188,0,0,0,.188,1.867,9.479,9.479,0,0,0,1.7,3.681,9.172,9.172,0,0,0,14.734,0,9.505,9.505,0,0,0,1.7-3.7,10.175,10.175,0,0,0,.182-1.84A9.265,9.265,0,0,0,236.689,300.731Z"/>
    </g>
    <g id="Grupo_100656" data-name="Grupo 100656">
      <path id="Trazado_160081" data-name="Trazado 160081" d="M284.131,360.478h-4.1a1,1,0,0,1-1-1v-5.153H256.146v5.153a1,1,0,0,1-1,1h-4.1a1,1,0,0,1-1-1v-5.153h-3.1a1,1,0,0,1-1-1V328.442a1,1,0,0,1,1-1h11.3v-7.2a1,1,0,0,1,1-1h16.68a1,1,0,0,1,1,1v7.2h11.3a1,1,0,0,1,1,1v24.883a1,1,0,0,1-1,1h-3.1v5.153A1,1,0,0,1,284.131,360.478Zm-3.1-2h2.1v-5.153a1,1,0,0,1,1-1h3.1V329.442h-11.3a1,1,0,0,1-1-1v-7.2h-14.68v7.2a1,1,0,0,1-1,1h-11.3v22.883h3.1a1,1,0,0,1,1,1v5.153h2.1v-5.153a1,1,0,0,1,1-1h24.883a1,1,0,0,1,1,1Zm-9.2-29.036H263.35a1,1,0,0,1-1-1v-4.1a1,1,0,0,1,1-1h8.476a1,1,0,0,1,1,1v4.1A1,1,0,0,1,271.826,329.442Zm-7.476-2h6.476v-2.1H264.35Z"/>
    </g>
    <g id="Grupo_100657" data-name="Grupo 100657">
      <rect id="Rectángulo_32189" data-name="Rectángulo 32189" width="70" height="8.203" transform="translate(222.334 357.427)" fill="#537983"/>
    </g>
    <g id="Grupo_100658" data-name="Grupo 100658">
      <rect id="Rectángulo_32190" data-name="Rectángulo 32190" width="24.746" height="8.203" transform="translate(267.588 357.427)" fill="#3e5959"/>
    </g>
    <g id="Grupo_100659" data-name="Grupo 100659">
      <path id="Trazado_160082" data-name="Trazado 160082" d="M293.334,366.63h-72v-10.2h72Zm-70-2h68v-6.2h-68Z"/>
    </g>
  </g>
</svg>
