<svg xmlns="http://www.w3.org/2000/svg" width="39.086" height="70" viewBox="0 0 39.086 70">
  <g id="Grupo_100693" data-name="Grupo 100693" transform="translate(-231.989 -213)">
    <g id="Grupo_102983" data-name="Grupo 102983" transform="translate(233.015 252.121)">
      <path id="Trazado_164021" data-name="Trazado 164021" d="M238.982,267.785l-1.781-6.722-3.156,1.594a1.372,1.372,0,0,0-.8,1.433v5.765a1.372,1.372,0,0,0,.8,1.433l3.156,1.594Z" transform="translate(-233.249 -261.063)" fill="#f9f6f6" fill-rule="evenodd"/>
    </g>
    <g id="Grupo_102984" data-name="Grupo 102984" transform="translate(233.015 240.302)">
      <path id="Trazado_164022" data-name="Trazado 164022" d="M237.2,258.361l1.433-5.445-1.433-6.375-3.156,1.594a1.372,1.372,0,0,0-.8,1.433v5.765a1.372,1.372,0,0,0,.8,1.433Z" transform="translate(-233.249 -246.542)" fill="#f9f6f6" fill-rule="evenodd"/>
    </g>
    <g id="Grupo_102985" data-name="Grupo 102985" transform="translate(256.227 232.263)">
      <path id="Trazado_164023" data-name="Trazado 164023" d="M267.6,236.666h-4.511a1.327,1.327,0,0,0-1.32,1.324v4.519l3.863,1.582,3.292-1.582V237.99a1.331,1.331,0,0,0-1.324-1.324Z" transform="translate(-261.767 -236.666)" fill="#f9f6f6" fill-rule="evenodd"/>
    </g>
    <g id="Grupo_102986" data-name="Grupo 102986" transform="translate(241.256 214.025)">
      <path id="Trazado_164024" data-name="Trazado 164024" d="M249.159,233.837l-1.109-17.659a1.788,1.788,0,1,0-3.566,0l-1.109,17.651,2.855,2.254Z" transform="translate(-243.374 -214.26)" fill="#365e7d" fill-rule="evenodd"/>
    </g>
    <g id="Grupo_102987" data-name="Grupo 102987" transform="translate(233.015 257.488)">
      <path id="Trazado_164025" data-name="Trazado 164025" d="M237.2,270.665l-3.156-1.594a1.359,1.359,0,0,1-.8-1.414v3.425a1.372,1.372,0,0,0,.8,1.433l3.156,1.594v-3.445Z" transform="translate(-233.249 -267.657)" fill="#ecdaec" fill-rule="evenodd"/>
    </g>
    <g id="Grupo_102988" data-name="Grupo 102988" transform="translate(233.015 245.669)">
      <path id="Trazado_164026" data-name="Trazado 164026" d="M237.2,256.144l-3.156-1.594a1.36,1.36,0,0,1-.8-1.414v3.425a1.372,1.372,0,0,0,.8,1.433l3.156,1.594Z" transform="translate(-233.249 -253.136)" fill="#ecdaec" fill-rule="evenodd"/>
    </g>
    <g id="Grupo_102989" data-name="Grupo 102989" transform="translate(242.971 214.025)">
      <path id="Trazado_164027" data-name="Trazado 164027" d="M249.551,233.837l-1.109-17.659a1.772,1.772,0,0,0-2.96-1.445,2.137,2.137,0,0,1,.589,1.425l1.113,17.663h2.089a2.233,2.233,0,0,1,.278.015Z" transform="translate(-245.481 -214.259)" fill="#2b4d66" fill-rule="evenodd"/>
    </g>
    <g id="Grupo_102990" data-name="Grupo 102990" transform="translate(256.227 232.263)">
      <path id="Trazado_164028" data-name="Trazado 164028" d="M268.922,237.99a1.33,1.33,0,0,0-1.324-1.324h-2.156a1.331,1.331,0,0,1,1.109,1.309v4.519h-4.784v.015h7.156V237.99Z" transform="translate(-261.767 -236.666)" fill="#ecdaec" fill-rule="evenodd"/>
    </g>
    <g id="Grupo_102991" data-name="Grupo 102991" transform="translate(239.228 233.519)">
      <path id="Trazado_164029" data-name="Trazado 164029" d="M250.644,240.5a2.232,2.232,0,0,0-1.949-2.211c-1.442-.179-4.023-.015-5.585-.015a2.234,2.234,0,0,0-2.227,2.226V242.8l5,2.48,4.765-2.48V240.5Z" transform="translate(-240.883 -238.209)" fill="#f9f6f6" fill-rule="evenodd"/>
    </g>
    <g id="Grupo_102992" data-name="Grupo 102992" transform="translate(244.674 233.587)">
      <path id="Trazado_164030" data-name="Trazado 164030" d="M251.889,240.519a2.21,2.21,0,0,0-2.226-2.226h-2.089a2.235,2.235,0,0,1,1.949,2.211v2.308h2.367Z" transform="translate(-247.573 -238.293)" fill="#ecdaec" fill-rule="evenodd"/>
    </g>
    <g id="Grupo_102993" data-name="Grupo 102993" transform="translate(236.967 238.106)">
      <path id="Trazado_164031" data-name="Trazado 164031" d="M240.82,243.845a2.505,2.505,0,0,0-2.715,2.2v39.74a2.21,2.21,0,0,0,2.4,1.933h24.334a2.213,2.213,0,0,0,2.4-1.933V246.04a2.505,2.505,0,0,0-2.715-2.2h-23.7Z" transform="translate(-238.105 -243.845)" fill="#365e7d" fill-rule="evenodd"/>
    </g>
    <g id="Grupo_102994" data-name="Grupo 102994" transform="translate(241.537 250.875)">
      <path id="Trazado_164032" data-name="Trazado 164032" d="M262.147,259.532H245.013a1.3,1.3,0,0,0-1.293,1.3v6.1a1.3,1.3,0,0,0,1.293,1.293h17.135a1.3,1.3,0,0,0,1.3-1.293v-6.1A1.3,1.3,0,0,0,262.147,259.532Z" transform="translate(-243.72 -259.532)" fill="#90d8f9" fill-rule="evenodd"/>
    </g>
    <g id="Grupo_102995" data-name="Grupo 102995" transform="translate(246.185 242.536)">
      <path id="Trazado_164033" data-name="Trazado 164033" d="M258.058,249.287h-6.832a1.8,1.8,0,0,0-1.8,1.8v1.792h10.424v-1.792A1.8,1.8,0,0,0,258.058,249.287Z" transform="translate(-249.43 -249.287)" fill="#90d8f9" fill-rule="evenodd"/>
    </g>
    <g id="Grupo_102996" data-name="Grupo 102996" transform="translate(266.093 240.302)">
      <path id="Trazado_164034" data-name="Trazado 164034" d="M277.048,248.136l-3.16-1.594,0,24.432,3.156-1.594a1.373,1.373,0,0,0,.8-1.434V249.569A1.372,1.372,0,0,0,277.048,248.136Z" transform="translate(-273.888 -246.542)" fill="#f9f6f6" fill-rule="evenodd"/>
    </g>
    <g id="Grupo_102997" data-name="Grupo 102997" transform="translate(259.93 238.106)">
      <path id="Trazado_164035" data-name="Trazado 164035" d="M272.483,270.473V246.04a2.505,2.505,0,0,0-2.715-2.2h-3.453a2.505,2.505,0,0,1,2.715,2.2v39.74a2.208,2.208,0,0,1-2.394,1.933h3.449a2.207,2.207,0,0,0,2.395-1.933Z" transform="translate(-266.316 -243.845)" fill="#2b4d66" fill-rule="evenodd"/>
    </g>
    <g id="Grupo_102998" data-name="Grupo 102998" transform="translate(266.093 258.266)">
      <path id="Trazado_164036" data-name="Trazado 164036" d="M277.845,268.612a1.367,1.367,0,0,1-.8,1.429l-3.16,1.594,0,3.445,3.156-1.594a1.371,1.371,0,0,0,.8-1.433Z" transform="translate(-273.888 -268.612)" fill="#ecdaec" fill-rule="evenodd"/>
    </g>
    <g id="Grupo_102999" data-name="Grupo 102999" transform="translate(241.537 250.875)">
      <path id="Trazado_164037" data-name="Trazado 164037" d="M262.147,259.532H245.013a1.3,1.3,0,0,0-1.293,1.3v1.03h16.131a1.3,1.3,0,0,1,1.3,1.3v5.069h1a1.3,1.3,0,0,0,1.3-1.293v-6.1a1.3,1.3,0,0,0-1.3-1.3Z" transform="translate(-243.72 -259.532)" fill="#75cef8" fill-rule="evenodd"/>
    </g>
    <g id="Grupo_103000" data-name="Grupo 103000" transform="translate(251.946 242.536)">
      <path id="Trazado_164038" data-name="Trazado 164038" d="M261.171,251.084a1.8,1.8,0,0,0-1.8-1.8h-2.867a1.8,1.8,0,0,1,1.793,1.8v1.792h2.871v-1.792Z" transform="translate(-256.508 -249.287)" fill="#75cef8" fill-rule="evenodd"/>
    </g>
    <g id="Grupo_103001" data-name="Grupo 103001" transform="translate(231.989 213)">
      <path id="Trazado_164039" data-name="Trazado 164039" d="M259.62,253.668a1.025,1.025,0,0,0,1.026-1.026V250.85a2.826,2.826,0,0,0-2.822-2.823h-6.832a2.826,2.826,0,0,0-2.822,2.823v1.792a1.025,1.025,0,0,0,1.026,1.026Zm-9.4-2.818a.773.773,0,0,1,.772-.772h6.832a.773.773,0,0,1,.772.772v.767h-8.374v-.767Z" transform="translate(-234.999 -219.517)"/>
      <path id="Trazado_164040" data-name="Trazado 164040" d="M242.46,260.6v6.1a2.32,2.32,0,0,0,2.318,2.318h6.3a1.025,1.025,0,1,0,0-2.05h-6.3a.272.272,0,0,1-.268-.268v-6.1a.277.277,0,0,1,.268-.272h17.135a.279.279,0,0,1,.272.272v6.1a.268.268,0,0,1-.081.189.262.262,0,0,1-.183.079h-6.039a1.025,1.025,0,0,0-.006,2.05h6.044a2.322,2.322,0,0,0,2.315-2.318v-6.1a2.324,2.324,0,0,0-2.322-2.322H244.778a2.322,2.322,0,0,0-2.318,2.322Z" transform="translate(-233.937 -221.423)"/>
      <path id="Trazado_164041" data-name="Trazado 164041" d="M247.729,275.3h-3.016a1.025,1.025,0,1,0,0,2.05h3.016a1.025,1.025,0,0,0,0-2.05Z" transform="translate(-234.166 -224.591)"/>
      <path id="Trazado_164042" data-name="Trazado 164042" d="M247.729,280.385h-3.016a1.026,1.026,0,1,0,0,2.051h3.016a1.026,1.026,0,0,0,0-2.051Z" transform="translate(-234.166 -225.537)"/>
      <path id="Trazado_164043" data-name="Trazado 164043" d="M256.726,275.3h-3.016a1.025,1.025,0,1,0,0,2.05h3.016a1.025,1.025,0,1,0,0-2.05Z" transform="translate(-235.839 -224.591)"/>
      <path id="Trazado_164044" data-name="Trazado 164044" d="M256.726,280.385h-3.016a1.026,1.026,0,1,0,0,2.051h3.016a1.026,1.026,0,1,0,0-2.051Z" transform="translate(-235.839 -225.537)"/>
      <path id="Trazado_164045" data-name="Trazado 164045" d="M247.729,285.477h-3.016a1.025,1.025,0,1,0,0,2.05h3.016a1.025,1.025,0,0,0,0-2.05Z" transform="translate(-234.166 -226.484)"/>
      <path id="Trazado_164046" data-name="Trazado 164046" d="M256.726,285.477h-3.016a1.025,1.025,0,1,0,0,2.05h3.016a1.025,1.025,0,1,0,0-2.05Z" transform="translate(-235.839 -226.484)"/>
      <path id="Trazado_164047" data-name="Trazado 164047" d="M265.728,275.3h-3.015a1.025,1.025,0,1,0,0,2.05h3.015a1.025,1.025,0,1,0,0-2.05Z" transform="translate(-237.514 -224.591)"/>
      <path id="Trazado_164048" data-name="Trazado 164048" d="M265.728,280.385h-3.015a1.026,1.026,0,1,0,0,2.051h3.015a1.026,1.026,0,1,0,0-2.051Z" transform="translate(-237.514 -225.537)"/>
      <path id="Trazado_164049" data-name="Trazado 164049" d="M265.728,285.477h-3.015a1.025,1.025,0,1,0,0,2.05h3.015a1.025,1.025,0,1,0,0-2.05Z" transform="translate(-237.514 -226.484)"/>
      <path id="Trazado_164050" data-name="Trazado 164050" d="M247.729,290.564h-3.016a1.025,1.025,0,1,0,0,2.05h3.016a1.025,1.025,0,0,0,0-2.05Z" transform="translate(-234.166 -227.431)"/>
      <path id="Trazado_164051" data-name="Trazado 164051" d="M256.726,290.564h-3.016a1.025,1.025,0,1,0,0,2.05h3.016a1.025,1.025,0,1,0,0-2.05Z" transform="translate(-235.839 -227.431)"/>
      <path id="Trazado_164052" data-name="Trazado 164052" d="M265.728,290.564h-3.015a1.025,1.025,0,1,0,0,2.05h3.015a1.025,1.025,0,1,0,0-2.05Z" transform="translate(-237.514 -227.431)"/>
      <path id="Trazado_164053" data-name="Trazado 164053" d="M269.715,240.98l-2.675-1.351a3.482,3.482,0,0,0-2.632-2.424v-3.618a2.352,2.352,0,0,0-2.35-2.349h-4.511a2.35,2.35,0,0,0-2.346,2.349v3.493h-5.186v-1.267a3.257,3.257,0,0,0-2-3l-1.064-16.936A2.878,2.878,0,0,0,244.143,213h0a2.872,2.872,0,0,0-2.8,2.88l-1.062,16.9a3.256,3.256,0,0,0-2.076,3.03v1.533a3.393,3.393,0,0,0-2.179,2.283l-2.674,1.35a2.389,2.389,0,0,0-1.362,2.349v5.765a2.39,2.39,0,0,0,1.36,2.349l1.343.678-1.341.678a2.389,2.389,0,0,0-1.362,2.349v5.765a2.389,2.389,0,0,0,1.36,2.349l2.592,1.309v4.974a1.026,1.026,0,0,0,2.051,0V240.3c0-.623.789-1.17,1.689-1.17h23.7c.9,0,1.689.547,1.689,1.17v39.74c0,.428-.587.908-1.372.908H239.365c-.809,0-1.372-.478-1.372-.908v-5.722a1.026,1.026,0,0,0-2.051,0v5.722A3.221,3.221,0,0,0,239.365,283H263.7a3.221,3.221,0,0,0,3.424-2.959V265.365l2.591-1.309a2.39,2.39,0,0,0,1.362-2.35V243.329a2.388,2.388,0,0,0-1.36-2.348Zm-33.773,21.294-1.669-.843c-.2-.1-.232-.116-.232-.518v-5.765c0-.4.035-.418.234-.518l1.668-.842Zm0-11.819-1.669-.843c-.2-.1-.232-.116-.232-.518v-5.765c0-.4.035-.418.234-.518l1.668-.842Zm8.2-35.4h0c.34,0,.72.252.765.957l1.039,16.553h-3.6l1.04-16.553c.044-.706.418-.957.754-.957Zm3.822,22.03h-7.711v-1.268a1.217,1.217,0,0,1,1.2-1.2h5.308a1.2,1.2,0,0,1,1.2,1.2v1.268Zm14.393,0h-5.105v-3.494a.3.3,0,0,1,.295-.3h4.511a.307.307,0,0,1,.3.3Zm6.667,24.625c0,.4-.036.418-.234.518l-1.669.842v-21.1l1.669.843c.2.1.233.116.233.517Z" transform="translate(-231.989 -213)"/>
    </g>
  </g>
</svg>
