<svg xmlns="http://www.w3.org/2000/svg" width="64.498" height="86" viewBox="0 0 64.498 86">
  <g id="Grupo_100626" data-name="Grupo 100626" transform="translate(-265.761 -221.019)">
    <path id="Trazado_160050" data-name="Trazado 160050" d="M275.71,237.351h30.1a6.45,6.45,0,0,1,6.45,6.45v41.564a6.449,6.449,0,0,1-6.45,6.449H269.261V243.8A6.45,6.45,0,0,1,275.71,237.351Z" transform="translate(0.8 3.733)" fill="#529fff"/>
    <g id="Grupo_100625" data-name="Grupo 100625" transform="translate(277.227 246.818)">
      <path id="Trazado_160051" data-name="Trazado 160051" d="M287.292,242.018h0a2.865,2.865,0,0,1,2.866,2.866v31.53a2.867,2.867,0,0,1-2.866,2.867h0a2.867,2.867,0,0,1-2.866-2.867v-31.53A2.866,2.866,0,0,1,287.292,242.018Z" transform="translate(-272.961 -242.018)" fill="#2c91ff"/>
      <path id="Trazado_160052" data-name="Trazado 160052" d="M277.96,242.018h0a2.866,2.866,0,0,1,2.866,2.866v31.53a2.867,2.867,0,0,1-2.866,2.867h0a2.866,2.866,0,0,1-2.866-2.867v-31.53A2.865,2.865,0,0,1,277.96,242.018Z" transform="translate(-275.094 -242.018)" fill="#2c91ff"/>
      <path id="Trazado_160053" data-name="Trazado 160053" d="M296.625,242.018h0a2.866,2.866,0,0,1,2.866,2.866v31.53a2.867,2.867,0,0,1-2.866,2.867h0a2.866,2.866,0,0,1-2.866-2.867v-31.53A2.865,2.865,0,0,1,296.625,242.018Z" transform="translate(-270.828 -242.018)" fill="#2c91ff"/>
    </g>
    <circle id="Elipse_5029" data-name="Elipse 5029" cx="14.332" cy="14.332" r="14.332" transform="translate(300.158 276.915)" fill="#eae9e4"/>
    <path id="Trazado_160054" data-name="Trazado 160054" d="M276.427,283.547V277.1a3.584,3.584,0,0,0-3.584-3.584h-3.583v10.032Z" transform="translate(0.8 11.999)" fill="#2c91ff"/>
    <path id="Trazado_160055" data-name="Trazado 160055" d="M277.96,222.186h22.931a2.867,2.867,0,0,1,2.866,2.866h0a2.866,2.866,0,0,1-2.866,2.866H277.96a2.865,2.865,0,0,1-2.866-2.866h0A2.866,2.866,0,0,1,277.96,222.186Z" transform="translate(2.133 0.267)" fill="#a3612d"/>
    <path id="Trazado_160056" data-name="Trazado 160056" d="M277.427,226.852h5.732v12.9h-5.732Z" transform="translate(2.666 1.333)" fill="#eae9e4"/>
    <path id="Trazado_160057" data-name="Trazado 160057" d="M291.426,226.852h5.733v12.9h-5.733Z" transform="translate(5.866 1.333)" fill="#eae9e4"/>
    <path id="Trazado_160058" data-name="Trazado 160058" d="M277.427,226.852h5.732v2.667h-5.732Z" transform="translate(2.666 1.333)" fill="#dcdbd6"/>
    <path id="Trazado_160059" data-name="Trazado 160059" d="M291.426,226.852h5.733v2.667h-5.733Z" transform="translate(5.866 1.333)" fill="#dcdbd6"/>
    <path id="Trazado_160060" data-name="Trazado 160060" d="M269.794,277.015h0a2.866,2.866,0,0,1,2.866,2.866v2.866a2.866,2.866,0,0,1-2.866,2.866h0a2.865,2.865,0,0,1-2.866-2.866v-2.866A2.865,2.865,0,0,1,269.794,277.015Z" transform="translate(0.267 12.799)" fill="#dcdbd6"/>
    <path id="Trazado_160061" data-name="Trazado 160061" d="M288.756,281.681h12.287v10.032H288.756Z" transform="translate(5.256 13.865)" fill="#91a666"/>
    <path id="Trazado_160062" data-name="Trazado 160062" d="M276.51,239.651a7.891,7.891,0,0,0-7.883,7.882v41.093a4.307,4.307,0,0,0-2.866,4.053v2.866a4.3,4.3,0,0,0,8.353,1.434h18.878v8.6a1.434,1.434,0,0,0,1.433,1.434h11.466a1.435,1.435,0,0,0,1.434-1.434v-.285a15.767,15.767,0,1,0,7.165-29.812V247.534a7.891,7.891,0,0,0-7.883-7.882h-2.15V229.372a4.3,4.3,0,0,0-1.432-8.353H280.093a4.3,4.3,0,0,0-1.434,8.353v10.279Zm-5.016,55.895a1.433,1.433,0,1,1-2.866,0V292.68a1.433,1.433,0,1,1,2.866,0Zm4.3-1.432H274.36V292.68a4.307,4.307,0,0,0-2.866-4.053v-1.679h2.15a2.152,2.152,0,0,1,2.15,2.15Zm28.664,10.032h-8.6V296.98h8.6Zm-7.165-10.032v-2.15a.717.717,0,0,1,.716-.717h.716a15.919,15.919,0,0,0,.26,2.867Zm5.016-2.867a.717.717,0,0,1,.716.717v2.15h-1.113a13.018,13.018,0,0,1-.321-2.867Zm-.717-10.032v-31.53a1.433,1.433,0,1,1,2.866,0v29.411a15.9,15.9,0,0,0-2.673,2.831,1.43,1.43,0,0,1-.193-.711Zm12.9-2.866a12.9,12.9,0,1,1-7.165,23.625v-6.427a1.433,1.433,0,0,0-1.434-1.432v-2.15a3.588,3.588,0,0,0-3.582-3.584h-.392A12.919,12.919,0,0,1,314.49,278.348Zm-34.4-54.461h22.931a1.433,1.433,0,0,1,0,2.866H280.093a1.433,1.433,0,1,1,0-2.866Zm21.5,5.733v10.032h-2.866V229.619Zm-5.732,0v10.032h-8.6V229.619Zm-11.466,0v10.032h-2.866V229.619Zm-4.3,12.9h26.514a5.022,5.022,0,0,1,5.016,5.016v28.209a15.655,15.655,0,0,0-4.3,1.463V249.684a4.3,4.3,0,1,0-8.6,0v31.53a4.289,4.289,0,0,0,1.521,3.281,15.67,15.67,0,0,0-1.259,3.885h-.978a3.588,3.588,0,0,0-3.584,3.584v2.15H278.66V289.1a5.021,5.021,0,0,0-5.016-5.016h-2.15V247.534a5.022,5.022,0,0,1,5.016-5.016Z" transform="translate(0 0)"/>
    <path id="Trazado_160063" data-name="Trazado 160063" d="M287.559,280.981a4.3,4.3,0,0,0,4.3-4.3v-31.53a4.3,4.3,0,1,0-8.6,0v31.53A4.3,4.3,0,0,0,287.559,280.981Zm-1.433-35.83a1.433,1.433,0,1,1,2.866,0v31.53a1.433,1.433,0,1,1-2.866,0Z" transform="translate(4 4.533)"/>
    <path id="Trazado_160064" data-name="Trazado 160064" d="M273.927,276.681a4.3,4.3,0,1,0,8.6,0v-31.53a4.3,4.3,0,1,0-8.6,0Zm2.866-31.53a1.433,1.433,0,1,1,2.866,0v31.53a1.433,1.433,0,1,1-2.866,0Z" transform="translate(1.866 4.533)"/>
    <path id="Trazado_160065" data-name="Trazado 160065" d="M304.831,280.028l5.734,4.3a1.433,1.433,0,0,0,1.72-2.294l-5.16-3.869v-7.884a1.433,1.433,0,0,0-2.866,0v8.6a1.434,1.434,0,0,0,.573,1.146Z" transform="translate(8.799 10.932)"/>
  </g>
</svg>
