<svg xmlns="http://www.w3.org/2000/svg" width="11.2" height="16" viewBox="0 0 11.2 16">
  <g id="Grupo_90119" data-name="Grupo 90119" transform="translate(-250.4 -248)">
    <circle id="Elipse_4564" data-name="Elipse 4564" cx="0.267" cy="0.267" r="0.267" transform="translate(253.067 249.067)" fill="#4dd0e1"/>
    <path id="Trazado_141711" data-name="Trazado 141711" d="M254.667,249.6h1.866a.267.267,0,1,0,0-.533h-1.866a.267.267,0,1,0,0,.533Z" fill="#4dd0e1"/>
    <path id="Trazado_141712" data-name="Trazado 141712" d="M259.467,264h1.866a.266.266,0,0,0,.267-.267v-6.4a1.331,1.331,0,0,0-.157-.627L259.467,253v-3.667A1.335,1.335,0,0,0,258.133,248h-6.4a1.335,1.335,0,0,0-1.333,1.333v13.334A1.335,1.335,0,0,0,251.733,264h7.734Zm1.6-6.667v6.134h-1.6a2.4,2.4,0,0,1-2.4-2.35.263.263,0,0,0-.041-.2l-1.73-2.56a.8.8,0,0,1,1.326-.895l.005.006,1.557,2.155a.266.266,0,0,0,.216.11h.8a.267.267,0,0,0,.267-.266v-5.334l1.506,2.824A.809.809,0,0,1,261.067,257.333Zm-2.134-4.266V259.2h-.4l-1.474-2.041a1.333,1.333,0,1,0-2.207,1.5L256.3,260.8h-5.37V250.667h8Zm-7.2-4.534h6.4a.8.8,0,0,1,.8.8v.8h-8v-.8A.8.8,0,0,1,251.733,248.533Zm0,14.934a.8.8,0,0,1-.8-.8v-1.334h5.613a2.933,2.933,0,0,0,1.237,2.134Z" fill="#4dd0e1"/>
    <path id="Trazado_141713" data-name="Trazado 141713" d="M254.933,261.6a.8.8,0,1,0,.8.8A.8.8,0,0,0,254.933,261.6Zm0,1.067a.267.267,0,1,1,.267-.267A.267.267,0,0,1,254.933,262.667Z" fill="#4dd0e1"/>
    <path id="Trazado_141714" data-name="Trazado 141714" d="M251.733,253.867h6.4a.267.267,0,0,0,.267-.267v-2.133a.266.266,0,0,0-.267-.267h-6.4a.266.266,0,0,0-.266.267V253.6A.267.267,0,0,0,251.733,253.867Zm.267-2.134h5.867v1.6H252Z" fill="#4dd0e1"/>
    <path id="Trazado_141715" data-name="Trazado 141715" d="M254.933,252.267H252.8a.267.267,0,1,0,0,.533h2.133a.267.267,0,1,0,0-.533Z" fill="#4dd0e1"/>
    <path id="Trazado_141716" data-name="Trazado 141716" d="M251.733,254.933h3.734a.267.267,0,0,0,0-.533h-3.734a.267.267,0,0,0,0,.533Z" fill="#4dd0e1"/>
    <path id="Trazado_141717" data-name="Trazado 141717" d="M255.467,255.467h-1.6a.267.267,0,1,0,0,.533h1.6a.267.267,0,0,0,0-.533Z" fill="#4dd0e1"/>
    <path id="Trazado_141718" data-name="Trazado 141718" d="M251.733,257.067h1.6a.267.267,0,1,0,0-.534h-1.6a.267.267,0,0,0,0,.534Z" fill="#4dd0e1"/>
    <path id="Trazado_141719" data-name="Trazado 141719" d="M251.733,258.133h1.6a.266.266,0,1,0,0-.533h-1.6a.266.266,0,0,0,0,.533Z" fill="#4dd0e1"/>
    <circle id="Elipse_4565" data-name="Elipse 4565" cx="0.267" cy="0.267" r="0.267" transform="translate(251.467 259.733)" fill="#4dd0e1"/>
    <circle id="Elipse_4566" data-name="Elipse 4566" cx="0.267" cy="0.267" r="0.267" transform="translate(252.533 259.733)" fill="#4dd0e1"/>
    <circle id="Elipse_4567" data-name="Elipse 4567" cx="0.267" cy="0.267" r="0.267" transform="translate(253.6 259.733)" fill="#4dd0e1"/>
    <path id="Trazado_141720" data-name="Trazado 141720" d="M251.733,259.2h2.134a.267.267,0,0,0,0-.533h-2.134a.267.267,0,0,0,0,.533Z" fill="#4dd0e1"/>
    <path id="Trazado_141721" data-name="Trazado 141721" d="M258.133,254.4h-1.6a.266.266,0,0,0-.266.267v1.066a.266.266,0,0,0,.266.267h1.6a.266.266,0,0,0,.267-.267v-1.066A.266.266,0,0,0,258.133,254.4Zm-.266,1.067H256.8v-.534h1.067Z" fill="#4dd0e1"/>
    <path id="Trazado_141722" data-name="Trazado 141722" d="M251.733,256H252.8a.267.267,0,1,0,0-.533h-1.067a.267.267,0,0,0,0,.533Z" fill="#4dd0e1"/>
  </g>
</svg>
