<svg xmlns="http://www.w3.org/2000/svg" width="86" height="86" viewBox="0 0 86 86">
  <g id="Filled_outline" data-name="Filled outline" transform="translate(-213 -213)">
    <path id="Trazado_117907" data-name="Trazado 117907" d="M248.833,214.433h48.733v60.2H248.833Z" fill="#57bfcc"/>
    <path id="Trazado_117908" data-name="Trazado 117908" d="M281.8,214.433H243.1v60.2h48.733V224.467Z" fill="#60d1e0"/>
    <path id="Trazado_117909" data-name="Trazado 117909" d="M281.8,224.467h10.033L281.8,214.433Z" fill="#9fe4ed"/>
    <path id="Trazado_117910" data-name="Trazado 117910" d="M281.8,224.467h10.033v2.866H281.8Z" fill="#5ac6d4"/>
    <path id="Trazado_117911" data-name="Trazado 117911" d="M247.4,268.9V258.867H233.066V268.9l-11.341,1.745a8.6,8.6,0,0,0-7.292,8.5v18.422h51.6V279.145a8.6,8.6,0,0,0-7.292-8.5Z" fill="#fec9a3"/>
    <path id="Trazado_117912" data-name="Trazado 117912" d="M266.033,279.145V290.4H254.566v7.167H225.9V290.4H214.433V279.145a8.6,8.6,0,0,1,7.292-8.5l9.908-1.525a8.38,8.38,0,0,0,8.38,8.38h.44a8.38,8.38,0,0,0,8.38-8.38l9.908,1.525a8.589,8.589,0,0,1,7.292,8.5Z" fill="#348fd9"/>
    <path id="Trazado_117913" data-name="Trazado 117913" d="M266.033,279.145V290.4H254.566v7.167H227.181a101.311,101.311,0,0,0,34.013-26.159A8.6,8.6,0,0,1,266.033,279.145Z" fill="#3086cd"/>
    <path id="Trazado_117914" data-name="Trazado 117914" d="M247.4,266.217v-7.35H233.066v7.35A21.18,21.18,0,0,0,247.4,266.217Z" fill="#feb784"/>
    <path id="Trazado_117915" data-name="Trazado 117915" d="M261.733,243.1a21.5,21.5,0,1,1-6.475-15.376A21.505,21.505,0,0,1,261.733,243.1Z" fill="#348fd9"/>
    <path id="Trazado_117916" data-name="Trazado 117916" d="M261.733,243.1a21.5,21.5,0,0,1-38.42,13.266c11.459-6.619,23.143-16.018,31.945-28.642A21.425,21.425,0,0,1,261.733,243.1Z" fill="#3086cd"/>
    <path id="Trazado_117917" data-name="Trazado 117917" d="M256,243.1a15.772,15.772,0,1,1-4.221-10.734A15.772,15.772,0,0,1,256,243.1Z" fill="#f35244"/>
    <path id="Trazado_117918" data-name="Trazado 117918" d="M250.266,243.1a10.032,10.032,0,1,1-2.255-6.339A10.033,10.033,0,0,1,250.266,243.1Z" fill="#ffb531"/>
    <path id="Trazado_117919" data-name="Trazado 117919" d="M244.533,243.1a4.306,4.306,0,1,1-.588-2.166A4.24,4.24,0,0,1,244.533,243.1Z" fill="#f35244"/>
    <path id="Trazado_117920" data-name="Trazado 117920" d="M256,243.1a15.766,15.766,0,0,1-27.75,10.245,99.423,99.423,0,0,0,23.529-20.979A15.709,15.709,0,0,1,256,243.1Z" fill="#ea4a3b"/>
    <path id="Trazado_117921" data-name="Trazado 117921" d="M250.266,243.1a10.033,10.033,0,0,1-17.248,6.973,99.5,99.5,0,0,0,14.993-13.312A9.99,9.99,0,0,1,250.266,243.1Z" fill="#ffa912"/>
    <path id="Trazado_117922" data-name="Trazado 117922" d="M244.533,243.1a4.3,4.3,0,0,1-6.9,3.426c2.152-1.751,4.263-3.614,6.31-5.592A4.24,4.24,0,0,1,244.533,243.1Z" fill="#ea4a3b"/>
    <path id="Trazado_117923" data-name="Trazado 117923" d="M296.676,292.376l-10.795-10.8a17.293,17.293,0,0,1-4.3,4.3l10.8,10.795a3.04,3.04,0,0,0,5.19-2.15h0A3.041,3.041,0,0,0,296.676,292.376Z" fill="#de4132"/>
    <circle id="Elipse_4524" data-name="Elipse 4524" cx="17.2" cy="17.2" r="17.2" transform="translate(257.433 256)" fill="#f35244"/>
    <circle id="Elipse_4525" data-name="Elipse 4525" cx="11.467" cy="11.467" r="11.467" transform="translate(263.166 261.733)" fill="#5ac6d4"/>
    <circle id="Elipse_4526" data-name="Elipse 4526" cx="7.167" cy="7.167" r="7.167" transform="translate(267.466 266.033)" fill="#60d1e0"/>
    <path id="Trazado_117924" data-name="Trazado 117924" d="M297.566,213H243.1a1.434,1.434,0,0,0-1.434,1.433v5.806c-.476-.029-.949-.072-1.433-.072a22.924,22.924,0,0,0-8.6,44.178v3.32l-.215.034h-.005l-9.9,1.534A9.976,9.976,0,0,0,213,279.148v18.419A1.433,1.433,0,0,0,214.433,299h51.6a1.433,1.433,0,0,0,1.433-1.433v-4.3H264.6v2.866H256v-4.3h5.733v-2.866H256v-5.734h-2.867v12.9h-25.8v-12.9h-2.867v5.734h-8.6v-9.819a7.128,7.128,0,0,1,6.082-7.082l8.391-1.3a9.7,9.7,0,0,0,9.8,8.162,9.888,9.888,0,0,0,9.984-8.165l2.788.427.436-2.833-4.518-.7v-3.32a22.912,22.912,0,0,0,2.478-1.178H256V260.3h-.649a22.558,22.558,0,0,0,7.616-20.067h24.566v-2.866H262.412a22.826,22.826,0,0,0-1.1-3.294,1.413,1.413,0,0,0,.183-.211l4.541-6.811,4.541,6.811a1.432,1.432,0,0,0,1.051.631,1.415,1.415,0,0,0,1.155-.413l4.72-4.72,4.72,4.72,2.026-2.027-5.733-5.733a1.433,1.433,0,0,0-2.027,0l-4.5,4.5-4.763-7.145a1.487,1.487,0,0,0-2.385,0l-5.031,7.545a23.018,23.018,0,0,0-11.673-9.617h2.129v-2.867H247.4v2.6a22.858,22.858,0,0,0-2.867-.744v-4.718h35.833v8.6A1.434,1.434,0,0,0,281.8,225.9h8.6v32.967h2.866V225.058a2.867,2.867,0,0,0-.84-2.028l-7.166-7.163h10.873v58.766H299v-60.2A1.434,1.434,0,0,0,297.566,213Zm-73.1,78.833v4.3h-8.6v-4.3Zm22.811-21.5a7.222,7.222,0,0,1-7.259,5.736,7.1,7.1,0,0,1-6.828-5.736l.09-.014a1.433,1.433,0,0,0,1.22-1.417v-3.621a22.158,22.158,0,0,0,11.466,0V268.9a1.36,1.36,0,0,0,1.311,1.431ZM260.3,243.1a20.067,20.067,0,1,1-20.067-20.067A20.067,20.067,0,0,1,260.3,243.1Zm22.933-20.067v-5.14l5.14,5.14Z"/>
    <path id="Trazado_117925" data-name="Trazado 117925" d="M253.133,218.733H256V221.6h-2.867Z"/>
    <path id="Trazado_117926" data-name="Trazado 117926" d="M258.866,218.733h2.867V221.6h-2.867Z"/>
    <path id="Trazado_117927" data-name="Trazado 117927" d="M271.485,251.672l5.62,1.124.018,0a1.493,1.493,0,0,0,1.669-1.124v-.005a7.166,7.166,0,1,0-13.232,2.18l2.48-1.433a4.307,4.307,0,0,1,2.293-6.207v4.057a1.433,1.433,0,0,0,1.152,1.4Zm4.537-2.016-2.822-.564V246.21A4.309,4.309,0,0,1,276.022,249.656Z"/>
    <path id="Trazado_117928" data-name="Trazado 117928" d="M281.8,243.1h5.733v2.867H281.8Z"/>
    <path id="Trazado_117929" data-name="Trazado 117929" d="M281.8,248.833h5.733V251.7H281.8Z"/>
    <path id="Trazado_117930" data-name="Trazado 117930" d="M290.019,283.693a18.629,18.629,0,1,0-34.009-11.078q-.018.563,0,1.125a18.616,18.616,0,0,0,27.329,15.924l7.948,7.948a4.474,4.474,0,0,0,6.327,0h0a4.474,4.474,0,0,0,0-6.327h0ZM258.866,273.2a15.767,15.767,0,1,1,15.767,15.767A15.767,15.767,0,0,1,258.866,273.2Zm34.5,22.492-7.559-7.615a18.645,18.645,0,0,0,2.4-2.147l7.438,7.493a1.607,1.607,0,0,1-2.275,2.271l0,0Z"/>
    <path id="Trazado_117931" data-name="Trazado 117931" d="M274.633,260.3a12.9,12.9,0,1,0,12.9,12.9A12.9,12.9,0,0,0,274.633,260.3Zm0,22.933A10.033,10.033,0,1,1,284.666,273.2,10.033,10.033,0,0,1,274.633,283.233Z"/>
    <path id="Trazado_117932" data-name="Trazado 117932" d="M267.466,273.2h2.867a4.3,4.3,0,0,1,4.3-4.3v-2.867A7.176,7.176,0,0,0,267.466,273.2Z"/>
    <path id="Trazado_117933" data-name="Trazado 117933" d="M223.033,243.1a17.2,17.2,0,1,0,17.2-17.2A17.2,17.2,0,0,0,223.033,243.1Zm31.533,0a14.333,14.333,0,1,1-14.333-14.333A14.333,14.333,0,0,1,254.566,243.1Z"/>
    <path id="Trazado_117934" data-name="Trazado 117934" d="M228.766,243.1a11.467,11.467,0,1,0,11.467-11.467A11.467,11.467,0,0,0,228.766,243.1Zm20.067,0a8.6,8.6,0,1,1-8.6-8.6A8.6,8.6,0,0,1,248.833,243.1Z"/>
    <path id="Trazado_117935" data-name="Trazado 117935" d="M234.5,243.1a5.733,5.733,0,1,0,5.733-5.733A5.733,5.733,0,0,0,234.5,243.1Zm8.6,0a2.867,2.867,0,1,1-2.867-2.867A2.868,2.868,0,0,1,243.1,243.1Z"/>
  </g>
</svg>
