<svg xmlns="http://www.w3.org/2000/svg" width="502.646" height="402.914" viewBox="0 0 502.646 402.914">
  <g id="Grupo_109138" data-name="Grupo 109138" transform="translate(1912.58 10074)">
    <g id="Grupo_90023" data-name="Grupo 90023" transform="translate(-3540.088 -11170.729)">
      <g id="Grupo_90019" data-name="Grupo 90019" transform="translate(1582.229 1096.73)">
        <g id="Grupo_90007" data-name="Grupo 90007" transform="translate(45.278)">
          <g id="Grupo_89997" data-name="Grupo 89997">
            <path id="Trazado_153585" data-name="Trazado 153585" d="M1729.573,1096.73l13.854,6.612-14.274,206.973-103.8,74.624-13.959-6.612.21-212.956Z" transform="translate(-1611.392 -1096.73)" fill="#9a871a"/>
            <path id="Trazado_153586" data-name="Trazado 153586" d="M1748.633,1105.808l-.315,213.586L1630.557,1387.4l.1-212.956Z" transform="translate(-1616.598 -1099.196)" fill="#d9c32a"/>
            <path id="Trazado_153587" data-name="Trazado 153587" d="M1725.408,1418.752l0,1.7a5.859,5.859,0,0,1-2.929,5.065h0a5.86,5.86,0,0,1-8.791-5.077v-1.7a5.858,5.858,0,0,1,2.913-5.062h0A5.861,5.861,0,0,1,1725.408,1418.752Z" transform="translate(-1639.177 -1182.601)" fill="#fff"/>
            <path id="Trazado_153588" data-name="Trazado 153588" d="M1745.131,1149.78l-.05,32.785-.018,13.471-.022,14.616-.05,34.156-.058,38.123-.029,19.353a10.881,10.881,0,0,1-5.4,9.383l-16.662,9.695-30.825,17.936-29.942,17.419-14.8,8.614-2.394,1.393a4.446,4.446,0,0,1-5.438-.747,4.388,4.388,0,0,1-1.256-3.105l.033-66.309.018-38.865.014-22.692.011-25.312a10.878,10.878,0,0,1,5.435-9.408l23.84-13.768,22.728-13.127,31.694-18.3,16.184-9.347A4.662,4.662,0,0,1,1745.131,1149.78Z" transform="translate(-1618.669 -1109.87)" fill="#f7eb83"/>
            <path id="Trazado_153589" data-name="Trazado 153589" d="M1690.28,1183.937l-52.027,84.306.014-22.692,29.285-48.488Z" transform="translate(-1618.688 -1120.417)" fill="#ffe533" opacity="0.47" style="mix-blend-mode: screen;isolation: isolate"/>
            <path id="Trazado_153590" data-name="Trazado 153590" d="M1748.452,1215.027l-.021,14.616-82.967,146.064-14.8,8.614Z" transform="translate(-1622.059 -1128.862)" fill="#ffe533" opacity="0.47" style="mix-blend-mode: screen;isolation: isolate"/>
            <path id="Trazado_153591" data-name="Trazado 153591" d="M1765.066,1281.986l-.057,38.122-22.092,38.431-30.825,17.936Z" transform="translate(-1638.744 -1147.049)" fill="#ffe533" opacity="0.47" style="mix-blend-mode: screen;isolation: isolate"/>
            <path id="Trazado_153592" data-name="Trazado 153592" d="M1745.131,1149.78l-.05,32.785-105.641,183.411a4.388,4.388,0,0,1-1.256-3.105l.033-66.309,83.739-141.476,16.184-9.347A4.662,4.662,0,0,1,1745.131,1149.78Z" transform="translate(-1618.669 -1109.87)" fill="#ffe533" opacity="0.47" style="mix-blend-mode: screen;isolation: isolate"/>
            <path id="Trazado_153593" data-name="Trazado 153593" d="M1625.352,1171.983l-13.959-6.612,118.181-68.641,13.854,6.612Z" transform="translate(-1611.392 -1096.73)" fill="#6e6014"/>
            <g id="Grupo_89996" data-name="Grupo 89996" transform="translate(50.742 34.777)">
              <g id="Grupo_89994" data-name="Grupo 89994" transform="translate(0 19.757)">
                <path id="Trazado_153594" data-name="Trazado 153594" d="M1681.06,1177.921l10.863-6.321v7.2l-10.867,6.276Z" transform="translate(-1681.057 -1171.6)" fill="#fff"/>
              </g>
              <g id="Grupo_89995" data-name="Grupo 89995" transform="translate(17.794)">
                <path id="Trazado_153595" data-name="Trazado 153595" d="M1732.5,1151.829l-27.017,15.6V1160.2l27.028-15.726Z" transform="translate(-1705.486 -1144.475)" fill="#fff"/>
              </g>
            </g>
            <path id="Trazado_153596" data-name="Trazado 153596" d="M1738.216,1145.739l-16.184,9.347-31.694,18.3-22.728,13.127-23.84,13.768a10.853,10.853,0,0,0-5.3,7.756,10.579,10.579,0,0,1,3.865-3.807l23.84-13.769,22.728-13.126,31.694-18.306,16.184-9.347a4.663,4.663,0,0,1,6.993,4.042l-.05,32.784-.018,13.471-.022,14.616-.049,34.156-.058,38.122-.029,19.354a10.832,10.832,0,0,1-.134,1.654,10.877,10.877,0,0,0,1.57-5.6l.029-19.353.058-38.123.05-34.156.022-14.616.018-13.471.05-32.785A4.662,4.662,0,0,0,1738.216,1145.739Z" transform="translate(-1618.747 -1109.87)" fill="#9a8709"/>
          </g>
          <g id="Grupo_90006" data-name="Grupo 90006" transform="translate(32.966 62.081)">
            <g id="Grupo_90001" data-name="Grupo 90001" transform="translate(0.347)">
              <g id="Grupo_89998" data-name="Grupo 89998" transform="translate(54.178)">
                <path id="Trazado_153597" data-name="Trazado 153597" d="M1750.691,1283.951l-15.5,13.819-3.679-2.617v-101.99l19.182-11.2,3.674,2.628-.088,23.383Z" transform="translate(-1731.51 -1181.961)" fill="#d9c32a"/>
              </g>
              <g id="Grupo_89999" data-name="Grupo 89999" transform="translate(27.089 29.114)">
                <path id="Trazado_153598" data-name="Trazado 153598" d="M1713.5,1310.415l-15.6,13.049-3.586-2.549v-87.782l19.183-11.2,3.682,2.558Z" transform="translate(-1694.319 -1221.933)" fill="#d9c32a"/>
              </g>
              <g id="Grupo_90000" data-name="Grupo 90000" transform="translate(0 58.753)">
                <path id="Trazado_153599" data-name="Trazado 153599" d="M1676.311,1336.821l-15.324,12.944-3.859-2.444v-73.494l19.183-11.2,3.6,2.486Z" transform="translate(-1657.128 -1262.624)" fill="#d9c32a"/>
              </g>
            </g>
            <path id="Trazado_153600" data-name="Trazado 153600" d="M1656.651,1374.162v7.785l3.641,2.489,70.15-45.581,3.636-5.146-3.636-2.639Z" transform="translate(-1656.651 -1222.462)" fill="#d9c32a"/>
            <g id="Grupo_90005" data-name="Grupo 90005" transform="translate(4.028 2.629)">
              <g id="Grupo_90002" data-name="Grupo 90002" transform="translate(54.178)">
                <path id="Trazado_153601" data-name="Trazado 153601" d="M1755.745,1287.561l-19.182,11.2v-101.99l19.182-11.2Z" transform="translate(-1736.563 -1185.571)" fill="#ffe533"/>
              </g>
              <g id="Grupo_90003" data-name="Grupo 90003" transform="translate(27.089 29.114)">
                <path id="Trazado_153602" data-name="Trazado 153602" d="M1718.555,1314.025l-19.183,10.5v-87.782l19.183-11.2Z" transform="translate(-1699.373 -1225.542)" fill="#ffe533"/>
              </g>
              <g id="Grupo_90004" data-name="Grupo 90004" transform="translate(0 58.753)">
                <path id="Trazado_153603" data-name="Trazado 153603" d="M1681.365,1340.43l-19.183,10.5v-73.494l19.183-11.2Z" transform="translate(-1662.182 -1266.234)" fill="#ffe533"/>
              </g>
            </g>
            <path id="Trazado_153604" data-name="Trazado 153604" d="M1661.832,1377.892l.041,7.784,73.565-43.477-.041-7.785Z" transform="translate(-1658.058 -1223.371)" fill="#ffe533"/>
          </g>
        </g>
      </g>
      <g id="Grupo_90022" data-name="Grupo 90022" transform="translate(1718.84 1229.76)">
        <path id="Trazado_153629" data-name="Trazado 153629" d="M1811.142,1540.776c.52-4.678,7.277-4.158,12.474-6.757l11.436,2.079c.52,8.317-4.158,7.8-9.356,7.277S1810.622,1545.454,1811.142,1540.776Z" transform="translate(-1789.975 -1348.537)" fill="#010103"/>
        <path id="Trazado_153630" data-name="Trazado 153630" d="M1863.937,1522.818c0,5.718,0,6.237-2.079,6.757a5.916,5.916,0,0,1-6.238-1.559c-2.079-2.079-7.8-8.317-7.8-9.875s2.6-3.119,6.237-.52A62.689,62.689,0,0,0,1863.937,1522.818Z" transform="translate(-1799.944 -1343.705)" fill="#010103"/>
        <path id="Trazado_153631" data-name="Trazado 153631" d="M1845.945,1426.713c.45,1.049,4.406,59.825,4.406,59.825s4.452,6.4,13.633,2.5v-44.794s4.024-37.279,2.226-48.967-17.268,6.708-17.268,6.708Z" transform="translate(-1799.434 -1309.797)" fill="#0c1620"/>
        <path id="Trazado_153632" data-name="Trazado 153632" d="M1826.538,1396.888l30.026.442c0,10.851-9.738,21.423-9.738,21.423l-4.452,33.109-3.122,46.94c-10.51,3.7-12.737-1.868-12.737-1.868S1824.89,1436.9,1826.538,1396.888Z" transform="translate(-1793.962 -1311.29)" fill="#283c4a"/>
        <path id="Trazado_153633" data-name="Trazado 153633" d="M1824.961,1381.251c15.584,14.685,32.666,6.293,36.562,0q-.006-2.8-.021-5.531c-.042-8.58-1-15.011-1.081-21.781-.161-13.262.553-23.593.7-24.316a17.634,17.634,0,0,0,.282-4.949c-.675-7.837-5.559-10.371-13.663-5.459-9.889,5.994-21.277,7.193-23.375,15.284a18.962,18.962,0,0,0-.4,2.1C1822.521,1346.94,1824.127,1374.023,1824.961,1381.251Z" transform="translate(-1793.306 -1289.51)" fill="#ffe533"/>
        <g id="Grupo_90020" data-name="Grupo 90020" transform="translate(30.079 47.088)" opacity="0.56" style="mix-blend-mode: multiply;isolation: isolate">
          <path id="Trazado_153634" data-name="Trazado 153634" d="M1824.961,1388.67c15.584,14.685,32.666,6.293,36.562,0q-.006-2.8-.021-5.531c-5.026,6.82-18.107,7.844-22.905.585-5.844-8.84,4.645-16.632-4.495-39.708h-10.135C1822.521,1354.359,1824.127,1381.442,1824.961,1388.67Z" transform="translate(-1823.385 -1344.017)" fill="#79b5de"/>
        </g>
        <path id="Trazado_153635" data-name="Trazado 153635" d="M1784.314,1391.1s-3.992-1.72,3.34-3.56l.029.031L1802.8,1367s6.976-24.663,10.873-27.3l8.062,14.255c-3.8,11.645-12.792,21.8-12.792,21.8l-17.038,15.753a10.284,10.284,0,0,1-1.27,3.106C1784.551,1403.218,1778.8,1395.682,1784.314,1391.1Z" transform="translate(-1782.09 -1295.755)" fill="#feb396"/>
        <path id="Trazado_153636" data-name="Trazado 153636" d="M1813.073,1357.191c1.993-7.292,6.654-23.245,13.929-24.653l1.565-.61c7.34,4.767,3.654,20.8-3.036,32.108C1821.476,1362.369,1816.528,1360.239,1813.073,1357.191Z" transform="translate(-1790.505 -1293.645)" fill="#ffe533"/>
        <path id="Trazado_153637" data-name="Trazado 153637" d="M1841.324,1314.957s9.691,4.543,9.691-2.726v-6.662a13.6,13.6,0,0,0,4.846-12.115c-.909-7.874-15.586-13.269-21.643-5.7-3.331,4.845-1.215,19.073.443,20.84,3.141,3.346,6.965.3,6.965.3Z" transform="translate(-1795.77 -1280.659)" fill="#feb396"/>
        <path id="Trazado_153638" data-name="Trazado 153638" d="M1844.823,1317.347l-.174,3.464a8.055,8.055,0,0,0,3.354-5.595,31.869,31.869,0,0,1-3.781,2.4C1844.6,1317.461,1844.823,1317.347,1844.823,1317.347Z" transform="translate(-1798.966 -1289.106)" fill="#ffbd8b" style="mix-blend-mode: multiply;isolation: isolate"/>
        <path id="Trazado_153639" data-name="Trazado 153639" d="M1840.135,1297.616c0-3.028-4.845-4.845-6.359-7.572s-1.211-7.571-1.211-7.571a16.375,16.375,0,0,0,3.634-1.211c.908-.606,13.629-6.36,19.686,5.754,6.057,5.754.908,15.142-4.846,17.263,0,3.029-8.177,2.12-8.48,0S1840.135,1297.616,1840.135,1297.616Z" transform="translate(-1795.793 -1279.369)" fill="#010103"/>
        <path id="Trazado_153640" data-name="Trazado 153640" d="M1839.8,1304.49a3.717,3.717,0,1,0,3.717-3.718A3.717,3.717,0,0,0,1839.8,1304.49Z" transform="translate(-1797.764 -1285.182)" fill="#feb396"/>
        <path id="Trazado_153641" data-name="Trazado 153641" d="M1810.386,1350.515c1.123-3.253,11.909,12.064,11.909,12.064s-3.479,9.218-9.087,14.942c-7.009,7.154-18.8,17.473-18.8,17.473l-5.145-4.48,15.387-20.926A184.915,184.915,0,0,1,1810.386,1350.515Z" transform="translate(-1784.037 -1298.571)" fill="#ffe533"/>
        <path id="Trazado_153642" data-name="Trazado 153642" d="M1843.345,1319.948v4.084s.127.1.364.253a11.1,11.1,0,0,0,7.961,1.789c3.77-.785,3.455-5.027,3.455-5.027v-5.026C1851.828,1323.4,1843.345,1319.948,1843.345,1319.948Z" transform="translate(-1798.728 -1289.324)" fill="#b4c030"/>
        <g id="Grupo_90021" data-name="Grupo 90021" transform="translate(44.981 30.692)" opacity="0.56" style="mix-blend-mode: multiply;isolation: isolate">
          <path id="Trazado_153643" data-name="Trazado 153643" d="M1843.845,1325.775a11.093,11.093,0,0,0,7.961,1.789c3.77-.785,3.456-5.027,3.456-5.027v-1.031C1853.366,1326.419,1848.027,1326.616,1843.845,1325.775Z" transform="translate(-1843.845 -1321.507)" fill="#d9c32a"/>
        </g>
        <path id="Trazado_153644" data-name="Trazado 153644" d="M1843.476,1279.369c-7.7,2.017-12.981.069-12.981.069s-1.96,8.1,4.306,12.537,11-9.2,11-9.2" transform="translate(-1795.158 -1279.369)" fill="#010103"/>
      </g>
    </g>
    <g id="Grupo_90024" data-name="Grupo 90024" transform="translate(-4018.385 -11004.594)">
      <g id="Grupo_89906" data-name="Grupo 89906" transform="translate(2405.001 1164.492)">
        <g id="Grupo_89905" data-name="Grupo 89905" style="mix-blend-mode: multiply;isolation: isolate">
          <path id="Trazado_153394" data-name="Trazado 153394" d="M2515.528,1349.614" transform="translate(-2515.528 -1349.614)" fill="#b3e0ff"/>
        </g>
      </g>
      <g id="Grupo_89907" data-name="Grupo 89907" transform="translate(2350.311 1191.989)" style="mix-blend-mode: multiply;isolation: isolate">
        <path id="Trazado_153395" data-name="Trazado 153395" d="M2417.552,1420.72l37.382-21.846,37.867,21.846-37.381,22.332Z" transform="translate(-2417.552 -1398.874)" fill="#b3e0ff"/>
      </g>
      <g id="Grupo_89908" data-name="Grupo 89908" transform="translate(2377.983 1089.554)">
        <path id="Trazado_153396" data-name="Trazado 153396" d="M2534.094,1276.834v86.9l37.867-21.846V1254.5Z" transform="translate(-2496.712 -1232.656)" fill="#d9c300"/>
        <path id="Trazado_153397" data-name="Trazado 153397" d="M2467.125,1254.5v86.9l37.382,22.332v-87.385Z" transform="translate(-2467.125 -1232.656)" fill="#ffe500"/>
        <path id="Trazado_153398" data-name="Trazado 153398" d="M2467.125,1237.212l37.382-21.846,37.867,21.846-37.382,22.332Z" transform="translate(-2467.125 -1215.365)" fill="#ffee58"/>
        <path id="Trazado_153399" data-name="Trazado 153399" d="M2480.458,1240.718l29.987-17.525,30.377,17.525-29.987,17.915Z" transform="translate(-2473.016 -1218.823)" fill="#f7de31"/>
      </g>
      <g id="Grupo_89910" data-name="Grupo 89910" transform="translate(2321.668 1147.811)">
        <path id="Trazado_153401" data-name="Trazado 153401" d="M2433.207,1381.2v61.17l37.867-21.846v-61.655Z" transform="translate(-2395.825 -1337.021)" fill="#d9c32a"/>
        <path id="Trazado_153402" data-name="Trazado 153402" d="M2366.24,1358.868v61.17l37.382,22.332v-61.655Z" transform="translate(-2366.24 -1337.021)" fill="#ffe533"/>
        <path id="Trazado_153403" data-name="Trazado 153403" d="M2366.24,1341.577l37.382-21.846,37.867,21.846-37.382,22.332Z" transform="translate(-2366.24 -1319.731)" fill="#ffee58"/>
        <path id="Trazado_153404" data-name="Trazado 153404" d="M2382.534,1345.862l28.344-16.565,28.712,16.565-28.344,16.933Z" transform="translate(-2373.438 -1323.957)" fill="#f7de31"/>
      </g>
      <g id="Grupo_89911" data-name="Grupo 89911" transform="translate(2265.353 1209.467)">
        <path id="Trazado_153405" data-name="Trazado 153405" d="M2332.321,1491.652v32.527l37.867-21.846v-33.012Z" transform="translate(-2294.939 -1447.474)" fill="#d9c32a"/>
        <path id="Trazado_153406" data-name="Trazado 153406" d="M2265.353,1469.321v32.527l37.382,22.332v-33.012Z" transform="translate(-2265.353 -1447.474)" fill="#ffe533"/>
        <path id="Trazado_153407" data-name="Trazado 153407" d="M2265.353,1452.03l37.382-21.846,37.867,21.846-37.382,22.332Z" transform="translate(-2265.353 -1430.184)" fill="#ffee58"/>
        <path id="Trazado_153408" data-name="Trazado 153408" d="M2284.611,1457.094l26.7-15.6,27.048,15.6-26.7,15.951Z" transform="translate(-2273.861 -1435.179)" fill="#f7de31"/>
      </g>
      <g id="Grupo_89913" data-name="Grupo 89913" transform="translate(2293.121 1044.685)">
        <path id="Trazado_153409" data-name="Trazado 153409" d="M2339.008,1442.672c-2.47-3.522-7.659-.139-12.967.059l-8.362,4.5c-.565,7.808,6.864,6.606,10.8,3.908S2341.478,1446.194,2339.008,1442.672Z" transform="translate(-2316.225 -1270.215)" fill="#010103"/>
        <path id="Trazado_153410" data-name="Trazado 153410" d="M2447.522,1369.095c-2.47-3.522-7.658-.139-12.967.059l-8.362,4.5c-.566,7.808,6.863,6.607,10.8,3.909S2449.993,1372.617,2447.522,1369.095Z" transform="translate(-2364.166 -1237.709)" fill="#010103"/>
        <path id="Trazado_153411" data-name="Trazado 153411" d="M2405.66,1256.117c10.811,3.513,4.443,14.248-6.812,4.07l2.213-6.141C2408.786,1252.891,2405.66,1256.117,2405.66,1256.117Z" transform="translate(-2352.098 -1187.475)" fill="#f4a590"/>
        <path id="Trazado_153412" data-name="Trazado 153412" d="M2352.948,1224.525c2.438,1.183,28.748,15.879,28.748,15.879l-3.174,7.948-24.734-9.945-.118-.028Z" transform="translate(-2331.82 -1174.543)" fill="#d9c32a"/>
        <path id="Trazado_153413" data-name="Trazado 153413" d="M2343.586,1326.8c-.229.38-.666,9.746-4.479,20.1-5.9,16-13.727,34.577-13.727,34.577s-4.226,2.875-10.282-1.409l8.166-38.344s-3.828-38.124-.432-49.479,21.186,9.6,21.186,9.6Z" transform="translate(-2315.098 -1202.972)" fill="#0c1620"/>
        <path id="Trazado_153414" data-name="Trazado 153414" d="M2349.565,1283.308s35.927-.9,38.887-.079,10.23,47.108,10.23,47.108-1.485,8.827-12.277,6.959c0,0-7.92-26.082-9.779-33.764,0,0-19.627,10.5-31.361,4.55s-5.348-18.681-5.348-18.681Z" transform="translate(-2325.297 -1200.326)" fill="#283c4a"/>
        <path id="Trazado_153415" data-name="Trazado 153415" d="M2358.946,1253.079c-14.831,15.509-32.366,8-36.592,1.9q-.142-2.808-.269-5.537c-.405-8.59.218-15.075-.052-21.854-.53-13.282-1.783-23.584-1.966-24.3a17.7,17.7,0,0,1-.539-4.939c.235-7,4.02-9.985,10.732-7.4.3.113.6.237.9.372.566.247,1.151.535,1.753.858a85.963,85.963,0,0,0,11.495,4.765c.413.148.82.3,1.221.45,5.516,2.067,10.009,4.214,11.477,8.865a18.405,18.405,0,0,1,.5,2.079C2359.6,1218.612,2359.405,1245.8,2358.946,1253.079Z" transform="translate(-2317.052 -1159.304)" fill="#ffe533"/>
        <g id="Grupo_89912" data-name="Grupo 89912" transform="translate(5.035 49.033)" opacity="0.31" style="mix-blend-mode: multiply;isolation: isolate">
          <path id="Trazado_153416" data-name="Trazado 153416" d="M2360.977,1267.568c-14.832,15.508-32.365,8-36.593,1.9q-.139-2.808-.267-5.536c5.385,6.564,18.531,6.907,22.955-.607,5.388-9.152-5.516-16.4,2.43-39.976l10.145-.528C2361.632,1233.1,2361.436,1260.29,2360.977,1267.568Z" transform="translate(-2324.118 -1222.825)" fill="#2c4e8e"/>
        </g>
        <path id="Trazado_153417" data-name="Trazado 153417" d="M2392.159,1283.541l1.2,23a2.337,2.337,0,0,1-2.212,2.455l-38.833,2.021a2.337,2.337,0,0,1-2.455-2.212l-1.2-23a2.336,2.336,0,0,1,2.211-2.455l38.833-2.021a2.333,2.333,0,0,1,2.455,2.212Z" transform="translate(-2329.924 -1199.637)" fill="#0a1216"/>
        <path id="Trazado_153418" data-name="Trazado 153418" d="M2393.146,1305.062l.21,4.035a2.337,2.337,0,0,1-2.212,2.455l-38.833,2.021a2.337,2.337,0,0,1-2.455-2.212l-1.2-23a2.323,2.323,0,0,1,.287-1.25C2356.785,1300.313,2376.958,1304.2,2393.146,1305.062Z" transform="translate(-2329.924 -1202.193)" fill="#041447" opacity="0.46" style="mix-blend-mode: multiply;isolation: isolate"/>
        <path id="Trazado_153419" data-name="Trazado 153419" d="M2401.814,1320.152c6.778,4.995,1.935,5.08,1.935,5.08,5.582,10.907-7.446,14.259-8.3-2.075" transform="translate(-2350.598 -1216.791)" fill="#f4a590"/>
        <path id="Trazado_153420" data-name="Trazado 153420" d="M2381.962,1245.734s2.166-26.383-7.825-35.038l-1.512-1.1c-10.416,3.412-8.99,24.395-3.542,39.152a217.59,217.59,0,0,0,12.992,28.068l7.958-4.425Z" transform="translate(-2337.091 -1167.946)" fill="#ffe533"/>
        <path id="Trazado_153421" data-name="Trazado 153421" d="M2353.925,1198.12s-18.022,8.876-15.371-6.445a23.127,23.127,0,0,1,2.655,1.23A99.5,99.5,0,0,0,2353.925,1198.12Z" transform="translate(-2325.343 -1160.03)" fill="#d9c32a"/>
        <path id="Trazado_153422" data-name="Trazado 153422" d="M2353.52,1197.964c-7.772,3.722-14.431,2.856-13.248-5.623.566.247,1.15.535,1.753.858A85.931,85.931,0,0,0,2353.52,1197.964Z" transform="translate(-2326.159 -1160.324)" fill="#d9c32a"/>
        <path id="Trazado_153423" data-name="Trazado 153423" d="M2347.444,1176.887s-9.463,5.051-9.842-2.223l-.346-6.668a13.629,13.629,0,0,1-5.481-11.872c.5-7.928,14.907-14.092,21.364-6.83,3.586,4.676,2.209,19.026.642,20.881-2.968,3.513-6.955.666-6.955.666Z" transform="translate(-2322.453 -1139.879)" fill="#feb396"/>
        <path id="Trazado_153424" data-name="Trazado 153424" d="M2356.154,1188.894l.354,3.458a8.074,8.074,0,0,1-3.648-5.425,31.881,31.881,0,0,0,3.908,2.2C2356.385,1189,2356.154,1188.894,2356.154,1188.894Z" transform="translate(-2331.781 -1157.932)" fill="#ffbd8b" style="mix-blend-mode: multiply;isolation: isolate"/>
        <path id="Trazado_153425" data-name="Trazado 153425" d="M2345.725,1158.084c-.158-3.031,4.6-5.1,5.971-7.909s.818-7.641.818-7.641a16.4,16.4,0,0,1-3.7-1.023c-.941-.559-13.971-5.655-19.4,6.784-5.762,6.075-.12,15.2,5.749,17.025.157,3.031,8.294,1.7,8.487-.442S2345.725,1158.084,2345.725,1158.084Z" transform="translate(-2320.357 -1137.204)" fill="#010103"/>
        <circle id="Elipse_505" data-name="Elipse 505" cx="3.725" cy="3.725" r="3.725" transform="translate(18.755 22.288) rotate(-47.98)" fill="#feb396"/>
        <path id="Trazado_153426" data-name="Trazado 153426" d="M2358.111,1137.843c-3.54,1.083-9.059-1.326-9.059-1.326l.85-.943s-19.108-4.4-18.315,10.843l18.908,5.095c5.532-1.872,7-8.241,7-8.241l-.9.047A7.867,7.867,0,0,0,2358.111,1137.843Z" transform="translate(-2322.372 -1134.984)" fill="#010103"/>
      </g>
      <ellipse id="Elipse_506" data-name="Elipse 506" cx="14.127" cy="8.226" rx="14.127" ry="8.226" transform="translate(2400.062 1101.744)" fill="#ffee58"/>
      <g id="Grupo_89916" data-name="Grupo 89916" transform="translate(2428.404 1212.865)">
        <path id="Trazado_153427" data-name="Trazado 153427" d="M2622.011,1460.908l.064-.04-7.792-7.236-13.359-7.793-43.348,19.419v7.9l64.5,37.254,42.86-24.491,0-5.333Z" transform="translate(-2557.507 -1440.498)" fill="#d9c32a"/>
        <path id="Trazado_153428" data-name="Trazado 153428" d="M2621.956,1451.341l-7.729-7.276-13.359-7.793-43.417,24.491v.213l14.123,7.362,7.793,7.236,42.86,25.048-.293.168.086.05,42.86-24.491Z" transform="translate(-2557.452 -1436.272)" fill="#ffee58"/>
        <g id="Grupo_89914" data-name="Grupo 89914" transform="translate(17.061 9.607)">
          <path id="Trazado_153429" data-name="Trazado 153429" d="M2595.3,1481.607l37.862-21.358-7.287-6.766-37.862,21.358Z" transform="translate(-2588.015 -1453.482)" fill="#fffacc"/>
        </g>
        <path id="Trazado_153430" data-name="Trazado 153430" d="M2588.986,1474.841l37.258-21.018-.367-.341-37.862,21.359,7.287,6.766.6-.341Z" transform="translate(-2570.955 -1443.875)" fill="#396cab"/>
        <g id="Grupo_89915" data-name="Grupo 89915" transform="translate(50.801 10.951)">
          <path id="Trazado_153431" data-name="Trazado 153431" d="M2650.148,1460.665l.434-.259-1.474-1.368a.511.511,0,0,1,.1-.818l3.152-1.778a.509.509,0,0,1,.6.07l1.625,1.509.434-.259-1.729-1.606a.994.994,0,0,0-1.167-.138l-3.152,1.778a1,1,0,0,0-.188,1.6Z" transform="translate(-2648.46 -1455.89)" fill="#396cab"/>
          <path id="Trazado_153432" data-name="Trazado 153432" d="M2657.64,1460.442l-.434.259,2.028,1.883a.511.511,0,0,1-.1.819l-3.152,1.778a.51.51,0,0,1-.6-.071l-2.18-2.024-.434.259,2.284,2.121a.993.993,0,0,0,1.167.138l3.153-1.778a1,1,0,0,0,.188-1.6Z" transform="translate(-2650.365 -1457.901)" fill="#396cab"/>
        </g>
        <path id="Trazado_153433" data-name="Trazado 153433" d="M2700.419,1504.271l-4.935,2.819a.377.377,0,0,0,0,.654l3.812,2.178a.378.378,0,0,0,.374,0l4.934-2.82a.376.376,0,0,0,0-.653l-3.812-2.178A.377.377,0,0,0,2700.419,1504.271Z" transform="translate(-2618.351 -1466.292)" fill="#0c1620"/>
        <path id="Trazado_153434" data-name="Trazado 153434" d="M2691.727,1513.779l-3.812-2.178a.378.378,0,0,0-.374,0l-4.995,2.855a.376.376,0,0,0,0,.653l3.811,2.178a.376.376,0,0,0,.374,0l5-2.854A.377.377,0,0,0,2691.727,1513.779Z" transform="translate(-2612.635 -1469.53)" fill="#0c1620"/>
        <path id="Trazado_153435" data-name="Trazado 153435" d="M2684.457,1501.473l3.994,2.282a.286.286,0,0,0,.284,0l5.116-2.923a.286.286,0,0,0,0-.5l-3.994-2.282a.286.286,0,0,0-.284,0l-5.116,2.924a.286.286,0,0,0,0,.5Z" transform="translate(-2613.499 -1463.55)" fill="#0c1620"/>
        <path id="Trazado_153436" data-name="Trazado 153436" d="M2667.242,1491.375l4.9-2.8a.394.394,0,0,0,0-.686l-3.774-2.157a.4.4,0,0,0-.392,0l-4.9,2.8a.395.395,0,0,0,0,.685l3.775,2.157A.4.4,0,0,0,2667.242,1491.375Z" transform="translate(-2604.028 -1458.101)" fill="#0c1620"/>
        <path id="Trazado_153437" data-name="Trazado 153437" d="M2686.814,1488.048l3.694,2.111a.435.435,0,0,0,.432,0l4.915-2.808a.434.434,0,0,0,0-.753l-3.658-2.131a.434.434,0,0,0-.434,0l-4.951,2.828a.434.434,0,0,0,0,.755Z" transform="translate(-2614.507 -1457.538)" fill="#0c1620"/>
        <path id="Trazado_153438" data-name="Trazado 153438" d="M2676,1481.841l3.694,2.111a.435.435,0,0,0,.432,0l4.973-2.842a.435.435,0,0,0,0-.753l-3.658-2.131a.434.434,0,0,0-.434,0l-5.01,2.862a.435.435,0,0,0,0,.755Z" transform="translate(-2609.728 -1454.781)" fill="#0c1620"/>
        <path id="Trazado_153439" data-name="Trazado 153439" d="M2676.7,1505.383l-5.177,2.958a.286.286,0,0,0,0,.5l3.994,2.282a.285.285,0,0,0,.283,0l5.177-2.958a.286.286,0,0,0,0-.5l-3.994-2.282A.286.286,0,0,0,2676.7,1505.383Z" transform="translate(-2607.783 -1466.788)" fill="#0c1620"/>
        <path id="Trazado_153440" data-name="Trazado 153440" d="M2667.641,1515.044l-3.958-2.261a.3.3,0,0,0-.3,0l-5.627,3.215a.3.3,0,0,0-.115.115.3.3,0,0,0,.115.412l3.958,2.261a.3.3,0,0,0,.3,0l5.626-3.215A.3.3,0,0,0,2667.641,1515.044Z" transform="translate(-2601.698 -1470.057)" fill="#0c1620"/>
        <path id="Trazado_153441" data-name="Trazado 153441" d="M2616.978,1502.028l-5.562,3.178a.314.314,0,0,0,0,.544l3.994,2.334a.315.315,0,0,0,.314,0l5.608-3.2a.313.313,0,0,0,0-.545l-4.04-2.309A.313.313,0,0,0,2616.978,1502.028Z" transform="translate(-2581.223 -1465.304)" fill="#0c1620"/>
        <path id="Trazado_153442" data-name="Trazado 153442" d="M2678.756,1491.872l-5.116,2.923a.286.286,0,0,0,0,.5l3.994,2.282a.286.286,0,0,0,.284,0l5.116-2.923a.286.286,0,0,0,0-.5l-3.994-2.282A.286.286,0,0,0,2678.756,1491.872Z" transform="translate(-2608.72 -1460.819)" fill="#0c1620"/>
        <path id="Trazado_153443" data-name="Trazado 153443" d="M2664.98,1504.939l5.177-2.958a.285.285,0,0,0,0-.5l-3.993-2.282a.285.285,0,0,0-.283,0l-5.177,2.958a.286.286,0,0,0,0,.5l3.994,2.282A.286.286,0,0,0,2664.98,1504.939Z" transform="translate(-2603.004 -1464.058)" fill="#0c1620"/>
        <path id="Trazado_153444" data-name="Trazado 153444" d="M2650.057,1496.549l3.846,2.2a.36.36,0,0,0,.357,0l5.029-2.874a.359.359,0,0,0,0-.624l-3.846-2.2a.36.36,0,0,0-.357,0l-5.029,2.874a.36.36,0,0,0,0,.625Z" transform="translate(-2598.284 -1461.335)" fill="#0c1620"/>
        <path id="Trazado_153445" data-name="Trazado 153445" d="M2656.824,1508.864l-3.958-2.261a.3.3,0,0,0-.3,0l-5.626,3.215a.3.3,0,0,0-.115.115.3.3,0,0,0,.115.413l3.958,2.261a.3.3,0,0,0,.3,0l5.627-3.215A.3.3,0,0,0,2656.824,1508.864Z" transform="translate(-2596.919 -1467.326)" fill="#0c1620"/>
        <path id="Trazado_153446" data-name="Trazado 153446" d="M2640.452,1506.416l5.514-3.151a.36.36,0,0,0,0-.625l-3.845-2.2a.36.36,0,0,0-.357,0l-5.514,3.151a.358.358,0,0,0,0,.624l3.845,2.2A.36.36,0,0,0,2640.452,1506.416Z" transform="translate(-2592.185 -1464.602)" fill="#0c1620"/>
        <path id="Trazado_153447" data-name="Trazado 153447" d="M2702.522,1490.7l-4.9,2.8a.43.43,0,0,0,0,.749l3.7,2.115a.43.43,0,0,0,.428,0l4.863-2.779a.432.432,0,0,0,0-.747l-3.665-2.135A.432.432,0,0,0,2702.522,1490.7Z" transform="translate(-2619.283 -1460.295)" fill="#0c1620"/>
        <path id="Trazado_153448" data-name="Trazado 153448" d="M2698.359,1517.782l-4.995,2.855a.376.376,0,0,0,0,.653l4.086,2.335a.375.375,0,0,0,.374,0l4.995-2.854a.377.377,0,0,0,0-.654l-4.086-2.335A.378.378,0,0,0,2698.359,1517.782Z" transform="translate(-2617.414 -1472.261)" fill="#0c1620"/>
        <path id="Trazado_153449" data-name="Trazado 153449" d="M2711.235,1510.452l-4.934,2.819a.376.376,0,0,0,0,.654l4.086,2.335a.378.378,0,0,0,.374,0l4.934-2.82a.376.376,0,0,0,0-.653l-4.086-2.335A.377.377,0,0,0,2711.235,1510.452Z" transform="translate(-2623.129 -1469.022)" fill="#0c1620"/>
        <path id="Trazado_153450" data-name="Trazado 153450" d="M2652.075,1482.932l3.877,2.216a.4.4,0,0,0,.391,0l4.9-2.8a.4.4,0,0,0,0-.686l-3.878-2.215a.391.391,0,0,0-.391,0l-4.9,2.8a.395.395,0,0,0,0,.685Z" transform="translate(-2599.168 -1455.324)" fill="#0c1620"/>
        <path id="Trazado_153451" data-name="Trazado 153451" d="M2670.983,1533.046l-5.868,3.353a.325.325,0,0,0-.161.225.33.33,0,0,0,.158.348l4.13,2.414a.332.332,0,0,0,.332,0l5.915-3.38a.331.331,0,0,0,0-.575l-4.177-2.386A.328.328,0,0,0,2670.983,1533.046Z" transform="translate(-2604.943 -1479.007)" fill="#0c1620"/>
        <path id="Trazado_153452" data-name="Trazado 153452" d="M2674.207,1518.976l-5.571,3.183a.332.332,0,0,0,0,.575l3.9,2.231a.331.331,0,0,0,.328,0l5.572-3.184a.331.331,0,0,0,0-.575l-3.9-2.23A.332.332,0,0,0,2674.207,1518.976Z" transform="translate(-2606.499 -1472.791)" fill="#0c1620"/>
        <path id="Trazado_153453" data-name="Trazado 153453" d="M2669.172,1477.7l5.112-2.921a.4.4,0,0,0,0-.684l-3.839-2.237a.4.4,0,0,0-.395,0l-5.149,2.942a.395.395,0,0,0,0,.685l3.877,2.216A.393.393,0,0,0,2669.172,1477.7Z" transform="translate(-2604.836 -1451.972)" fill="#0c1620"/>
        <path id="Trazado_153454" data-name="Trazado 153454" d="M2713.322,1497l-4.567,2.61a.566.566,0,0,0,0,.985l9.74,5.565a.566.566,0,0,0,.563,0l4.472-2.556a.567.567,0,0,0,0-.982l-9.646-5.62A.566.566,0,0,0,2713.322,1497Z" transform="translate(-2624.171 -1463.068)" fill="#0c1620"/>
        <path id="Trazado_153455" data-name="Trazado 153455" d="M2689.529,1527.543l-4.177-2.387a.332.332,0,0,0-.329,0l-5.572,3.184a.327.327,0,0,0-.158.213.332.332,0,0,0,.158.362l4.177,2.386a.329.329,0,0,0,.329,0l5.571-3.183A.331.331,0,0,0,2689.529,1527.543Z" transform="translate(-2611.278 -1475.521)" fill="#0c1620"/>
        <path id="Trazado_153456" data-name="Trazado 153456" d="M2664.47,1529.115l-3.958-2.261a.3.3,0,0,0-.3,0l-5.854,3.345a.3.3,0,0,0,0,.526l3.913,2.286a.3.3,0,0,0,.3,0l5.9-3.371A.3.3,0,0,0,2664.47,1529.115Z" transform="translate(-2600.196 -1476.273)" fill="#0c1620"/>
        <path id="Trazado_153457" data-name="Trazado 153457" d="M2632.173,1510.565l-3.937-2.25a.316.316,0,0,0-.311,0l-5.631,3.218a.311.311,0,0,0-.118.118.315.315,0,0,0,.116.425l3.893,2.275a.313.313,0,0,0,.314,0l5.675-3.243A.313.313,0,0,0,2632.173,1510.565Z" transform="translate(-2586.028 -1468.082)" fill="#0c1620"/>
        <path id="Trazado_153458" data-name="Trazado 153458" d="M2643.361,1492.519l5.029-2.874a.359.359,0,0,0,0-.624l-3.948-2.256a.36.36,0,0,0-.357,0l-5.029,2.874a.359.359,0,0,0,0,.624l3.948,2.256A.36.36,0,0,0,2643.361,1492.519Z" transform="translate(-2593.424 -1458.558)" fill="#0c1620"/>
        <path id="Trazado_153459" data-name="Trazado 153459" d="M2629.554,1500.189l5.514-3.151a.359.359,0,0,0,0-.625l-3.948-2.256a.361.361,0,0,0-.357,0l-5.514,3.151a.359.359,0,0,0,0,.624l3.949,2.256A.359.359,0,0,0,2629.554,1500.189Z" transform="translate(-2587.324 -1461.825)" fill="#0c1620"/>
        <path id="Trazado_153460" data-name="Trazado 153460" d="M2653.707,1522.934l-3.958-2.262a.306.306,0,0,0-.3,0l-5.787,3.307a.3.3,0,0,0,0,.526l3.913,2.287a.3.3,0,0,0,.3,0l5.832-3.333A.3.3,0,0,0,2653.707,1522.934Z" transform="translate(-2595.471 -1473.542)" fill="#0c1620"/>
        <path id="Trazado_153461" data-name="Trazado 153461" d="M2642.943,1516.753l-3.958-2.262a.306.306,0,0,0-.3,0l-5.719,3.268a.3.3,0,0,0,0,.526l3.913,2.287a.3.3,0,0,0,.3,0l5.764-3.293A.3.3,0,0,0,2642.943,1516.753Z" transform="translate(-2590.746 -1470.811)" fill="#0c1620"/>
        <path id="Trazado_153462" data-name="Trazado 153462" d="M2700.419,1503.4l-4.935,2.82a.376.376,0,0,0,0,.653l3.812,2.178a.378.378,0,0,0,.374,0l4.934-2.819a.376.376,0,0,0,0-.654l-3.812-2.178A.376.376,0,0,0,2700.419,1503.4Z" transform="translate(-2618.351 -1465.907)" fill="#d9c32a"/>
        <path id="Trazado_153463" data-name="Trazado 153463" d="M2691.727,1512.91l-3.812-2.178a.375.375,0,0,0-.374,0l-4.995,2.854a.376.376,0,0,0,0,.654l3.811,2.178a.378.378,0,0,0,.374,0l5-2.855A.376.376,0,0,0,2691.727,1512.91Z" transform="translate(-2612.635 -1469.146)" fill="#d9c32a"/>
        <path id="Trazado_153464" data-name="Trazado 153464" d="M2684.457,1500.6l3.994,2.282a.286.286,0,0,0,.284,0l5.116-2.924a.286.286,0,0,0,0-.5l-3.994-2.282a.286.286,0,0,0-.284,0l-5.116,2.924a.286.286,0,0,0,0,.5Z" transform="translate(-2613.499 -1463.166)" fill="#d9c32a"/>
        <path id="Trazado_153465" data-name="Trazado 153465" d="M2667.242,1490.506l4.9-2.8a.394.394,0,0,0,0-.685l-3.774-2.157a.4.4,0,0,0-.392,0l-4.9,2.8a.395.395,0,0,0,0,.686l3.775,2.157A.394.394,0,0,0,2667.242,1490.506Z" transform="translate(-2604.028 -1457.717)" fill="#0c1620"/>
        <path id="Trazado_153466" data-name="Trazado 153466" d="M2686.814,1487.178l3.694,2.111a.438.438,0,0,0,.432,0l4.915-2.809a.434.434,0,0,0,0-.753l-3.658-2.131a.435.435,0,0,0-.434,0l-4.951,2.829a.434.434,0,0,0,0,.755Z" transform="translate(-2614.507 -1457.154)" fill="#0c1620"/>
        <path id="Trazado_153467" data-name="Trazado 153467" d="M2676,1480.971l3.694,2.111a.437.437,0,0,0,.432,0l4.973-2.842a.435.435,0,0,0,0-.754l-3.658-2.131a.434.434,0,0,0-.434,0l-5.01,2.862a.435.435,0,0,0,0,.755Z" transform="translate(-2609.728 -1454.396)" fill="#0c1620"/>
        <path id="Trazado_153468" data-name="Trazado 153468" d="M2676.7,1504.514l-5.177,2.958a.286.286,0,0,0,0,.5l3.994,2.282a.285.285,0,0,0,.283,0l5.177-2.958a.286.286,0,0,0,0-.5l-3.994-2.282A.286.286,0,0,0,2676.7,1504.514Z" transform="translate(-2607.783 -1466.404)" fill="#d9c32a"/>
        <path id="Trazado_153469" data-name="Trazado 153469" d="M2667.641,1514.175l-3.958-2.262a.306.306,0,0,0-.3,0l-5.627,3.215a.3.3,0,0,0-.115.116.3.3,0,0,0,.115.412l3.958,2.262a.306.306,0,0,0,.3,0l5.626-3.215A.3.3,0,0,0,2667.641,1514.175Z" transform="translate(-2601.698 -1469.672)" fill="#d9c32a"/>
        <path id="Trazado_153470" data-name="Trazado 153470" d="M2616.978,1501.159l-5.562,3.178a.314.314,0,0,0,0,.544l3.994,2.334a.313.313,0,0,0,.314,0l5.608-3.2a.314.314,0,0,0,0-.545l-4.04-2.309A.316.316,0,0,0,2616.978,1501.159Z" transform="translate(-2581.223 -1464.921)" fill="#0c1620"/>
        <path id="Trazado_153471" data-name="Trazado 153471" d="M2678.756,1491l-5.116,2.924a.286.286,0,0,0,0,.5l3.994,2.282a.286.286,0,0,0,.284,0l5.116-2.924a.286.286,0,0,0,0-.5L2679.04,1491A.286.286,0,0,0,2678.756,1491Z" transform="translate(-2608.72 -1460.435)" fill="#0c1620"/>
        <path id="Trazado_153472" data-name="Trazado 153472" d="M2664.98,1504.069l5.177-2.958a.285.285,0,0,0,0-.5l-3.993-2.283a.285.285,0,0,0-.283,0l-5.177,2.958a.286.286,0,0,0,0,.5l3.994,2.282A.286.286,0,0,0,2664.98,1504.069Z" transform="translate(-2603.004 -1463.673)" fill="#0c1620"/>
        <path id="Trazado_153473" data-name="Trazado 153473" d="M2650.057,1495.679l3.846,2.2a.36.36,0,0,0,.357,0l5.029-2.874a.359.359,0,0,0,0-.624l-3.846-2.2a.357.357,0,0,0-.357,0l-5.029,2.874a.359.359,0,0,0,0,.624Z" transform="translate(-2598.284 -1460.951)" fill="#0c1620"/>
        <path id="Trazado_153474" data-name="Trazado 153474" d="M2656.824,1507.993l-3.958-2.261a.3.3,0,0,0-.3,0l-5.626,3.215a.3.3,0,0,0-.115.115.3.3,0,0,0,.115.412l3.958,2.262a.306.306,0,0,0,.3,0l5.627-3.215A.3.3,0,0,0,2656.824,1507.993Z" transform="translate(-2596.919 -1466.941)" fill="#0c1620"/>
        <path id="Trazado_153475" data-name="Trazado 153475" d="M2640.452,1505.546l5.514-3.151a.359.359,0,0,0,0-.624l-3.845-2.2a.361.361,0,0,0-.357,0l-5.514,3.151a.355.355,0,0,0-.136.136.361.361,0,0,0,.136.489l3.845,2.2A.36.36,0,0,0,2640.452,1505.546Z" transform="translate(-2592.185 -1464.217)" fill="#0c1620"/>
        <path id="Trazado_153476" data-name="Trazado 153476" d="M2702.522,1489.834l-4.9,2.8a.43.43,0,0,0,0,.749l3.7,2.115a.43.43,0,0,0,.428,0l4.863-2.779a.432.432,0,0,0,0-.747l-3.665-2.135A.433.433,0,0,0,2702.522,1489.834Z" transform="translate(-2619.283 -1459.911)" fill="#0c1620"/>
        <path id="Trazado_153477" data-name="Trazado 153477" d="M2698.359,1516.913l-4.995,2.854a.376.376,0,0,0,0,.653l4.086,2.335a.375.375,0,0,0,.374,0l4.995-2.854a.376.376,0,0,0,0-.653l-4.086-2.335A.374.374,0,0,0,2698.359,1516.913Z" transform="translate(-2617.414 -1471.876)" fill="#d9c32a"/>
        <path id="Trazado_153478" data-name="Trazado 153478" d="M2711.235,1509.582l-4.934,2.82a.376.376,0,0,0,0,.653l4.086,2.335a.378.378,0,0,0,.374,0l4.934-2.819a.376.376,0,0,0,0-.654l-4.086-2.335A.378.378,0,0,0,2711.235,1509.582Z" transform="translate(-2623.129 -1468.638)" fill="#d9c32a"/>
        <path id="Trazado_153479" data-name="Trazado 153479" d="M2652.075,1482.063l3.877,2.215a.394.394,0,0,0,.391,0l4.9-2.8a.4.4,0,0,0,0-.686l-3.878-2.216a.4.4,0,0,0-.391,0l-4.9,2.8a.395.395,0,0,0,0,.686Z" transform="translate(-2599.168 -1454.94)" fill="#0c1620"/>
        <path id="Trazado_153480" data-name="Trazado 153480" d="M2670.983,1532.177l-5.868,3.353a.326.326,0,0,0-.161.225.33.33,0,0,0,.158.348l4.13,2.414a.332.332,0,0,0,.332,0l5.915-3.38a.331.331,0,0,0,0-.575l-4.177-2.387A.331.331,0,0,0,2670.983,1532.177Z" transform="translate(-2604.943 -1478.623)" fill="#fec265"/>
        <path id="Trazado_153481" data-name="Trazado 153481" d="M2674.207,1518.106l-5.571,3.184a.327.327,0,0,0-.16.223.33.33,0,0,0,.16.352l3.9,2.23a.331.331,0,0,0,.328,0l5.572-3.184a.331.331,0,0,0,0-.574l-3.9-2.231A.333.333,0,0,0,2674.207,1518.106Z" transform="translate(-2606.499 -1472.406)" fill="#d9c32a"/>
        <path id="Trazado_153482" data-name="Trazado 153482" d="M2669.172,1476.834l5.112-2.921a.394.394,0,0,0,0-.684l-3.839-2.237a.394.394,0,0,0-.395,0l-5.149,2.942a.395.395,0,0,0,0,.685l3.877,2.215A.4.4,0,0,0,2669.172,1476.834Z" transform="translate(-2604.836 -1451.587)" fill="#0c1620"/>
        <path id="Trazado_153483" data-name="Trazado 153483" d="M2713.322,1496.131l-4.567,2.61a.561.561,0,0,0-.214.215.567.567,0,0,0,.214.769l9.74,5.566a.568.568,0,0,0,.563,0l4.472-2.556a.567.567,0,0,0,0-.982l-9.646-5.619A.567.567,0,0,0,2713.322,1496.131Z" transform="translate(-2624.171 -1462.684)" fill="#fe4b53"/>
        <path id="Trazado_153484" data-name="Trazado 153484" d="M2689.529,1526.674l-4.177-2.387a.332.332,0,0,0-.329,0l-5.572,3.184a.327.327,0,0,0-.158.213.332.332,0,0,0,.158.362l4.177,2.387a.333.333,0,0,0,.329,0l5.571-3.184A.331.331,0,0,0,2689.529,1526.674Z" transform="translate(-2611.278 -1475.137)" fill="#d9c32a"/>
        <path id="Trazado_153485" data-name="Trazado 153485" d="M2664.47,1528.246l-3.958-2.261a.3.3,0,0,0-.3,0l-5.854,3.345a.3.3,0,0,0,0,.526l3.913,2.287a.3.3,0,0,0,.3,0l5.9-3.37A.3.3,0,0,0,2664.47,1528.246Z" transform="translate(-2600.196 -1475.889)" fill="#0c1620"/>
        <path id="Trazado_153486" data-name="Trazado 153486" d="M2632.173,1509.695l-3.937-2.25a.313.313,0,0,0-.311,0l-5.631,3.217a.318.318,0,0,0-.118.118.315.315,0,0,0,.116.425l3.893,2.275a.314.314,0,0,0,.314,0l5.675-3.243A.314.314,0,0,0,2632.173,1509.695Z" transform="translate(-2586.028 -1467.698)" fill="#0c1620"/>
        <path id="Trazado_153487" data-name="Trazado 153487" d="M2643.361,1491.649l5.029-2.874a.36.36,0,0,0,0-.625l-3.948-2.256a.36.36,0,0,0-.357,0l-5.029,2.874a.359.359,0,0,0,0,.624l3.948,2.256A.36.36,0,0,0,2643.361,1491.649Z" transform="translate(-2593.424 -1458.174)" fill="#0c1620"/>
        <path id="Trazado_153488" data-name="Trazado 153488" d="M2629.554,1499.319l5.514-3.151a.359.359,0,0,0,0-.624l-3.948-2.256a.361.361,0,0,0-.357,0l-5.514,3.151a.359.359,0,0,0,0,.624l3.949,2.256A.36.36,0,0,0,2629.554,1499.319Z" transform="translate(-2587.324 -1461.44)" fill="#0c1620"/>
        <path id="Trazado_153489" data-name="Trazado 153489" d="M2653.707,1522.064l-3.958-2.261a.3.3,0,0,0-.3,0l-5.787,3.307a.3.3,0,0,0,0,.526l3.913,2.287a.3.3,0,0,0,.3,0l5.832-3.332A.3.3,0,0,0,2653.707,1522.064Z" transform="translate(-2595.471 -1473.158)" fill="#0c1620"/>
        <path id="Trazado_153490" data-name="Trazado 153490" d="M2642.943,1515.884l-3.958-2.261a.3.3,0,0,0-.3,0l-5.719,3.268a.3.3,0,0,0,0,.526l3.913,2.287a.3.3,0,0,0,.3,0l5.764-3.293A.3.3,0,0,0,2642.943,1515.884Z" transform="translate(-2590.746 -1470.427)" fill="#0c1620"/>
      </g>
      <g id="Grupo_89989" data-name="Grupo 89989" transform="translate(2335.591 1202.08)">
        <g id="Grupo_89921" data-name="Grupo 89921" transform="translate(0 71.365)">
          <path id="Trazado_153491" data-name="Trazado 153491" d="M2441.827,1569.089c0,8.143-11.336,14.745-25.321,14.745a41.307,41.307,0,0,1-10.012-1.2q-.887-.223-1.736-.482-.89-.273-1.737-.583a27,27,0,0,1-5.208-2.538c-4.116-2.622-6.626-6.113-6.626-9.944v-.008h0v-6.61h2.693a17.864,17.864,0,0,1,3.938-3.325,27.046,27.046,0,0,1,5.208-2.538q.846-.311,1.737-.583.85-.259,1.736-.482a41.264,41.264,0,0,1,10.012-1.2c9.9,0,18.468,3.306,22.632,8.126h2.687v6.438C2441.826,1568.969,2441.827,1569.03,2441.827,1569.089Z" transform="translate(-2391.181 -1549.016)" fill="#d9c32a"/>
          <path id="Trazado_153492" data-name="Trazado 153492" d="M2408.269,1558.4v24.964a27.024,27.024,0,0,1-5.208-2.538v-19.888A27.053,27.053,0,0,1,2408.269,1558.4Z" transform="translate(-2396.429 -1550.807)" fill="#fff"/>
          <path id="Trazado_153493" data-name="Trazado 153493" d="M2417.238,1553.312v28.868q-.887-.223-1.736-.482v-28.386Z" transform="translate(-2401.926 -1548.56)" fill="#fff"/>
          <ellipse id="Elipse_507" data-name="Elipse 507" cx="25.321" cy="14.745" rx="25.321" ry="14.745" transform="translate(0.004)" fill="#ffee58"/>
          <g id="Grupo_89917" data-name="Grupo 89917" transform="translate(3.123 2.348)">
            <path id="Trazado_153494" data-name="Trazado 153494" d="M2418.063,1549c-11.757,0-21.288,5.55-21.288,12.4s9.531,12.4,21.288,12.4,21.289-5.55,21.289-12.4S2429.821,1549,2418.063,1549Zm0,22c-9.091,0-16.462-4.292-16.462-9.586s7.371-9.587,16.462-9.587,16.463,4.292,16.463,9.587S2427.155,1571.009,2418.063,1571.009Z" transform="translate(-2396.775 -1549.005)" fill="#ffe533"/>
          </g>
          <g id="Grupo_89920" data-name="Grupo 89920" transform="translate(7.949 2.348)">
            <g id="Grupo_89918" data-name="Grupo 89918" transform="translate(0 2.832)">
              <path id="Trazado_153495" data-name="Trazado 153495" d="M2422.34,1554.082c-.152,0-.3,0-.457,0-9.091,0-16.462,4.292-16.462,9.586s7.371,9.586,16.462,9.586c.153,0,.306,0,.457,0-8.881-.141-16.005-4.377-16.005-9.582S2413.459,1554.223,2422.34,1554.082Z" transform="translate(-2405.421 -1554.078)" fill="#d9c32a"/>
            </g>
            <g id="Grupo_89919" data-name="Grupo 89919" transform="translate(16.919)">
              <path id="Trazado_153496" data-name="Trazado 153496" d="M2436.188,1549c-.153,0-.305,0-.457,0,11.546.142,20.832,5.636,20.832,12.394s-9.285,12.251-20.832,12.393c.152,0,.3,0,.457,0,11.757,0,21.288-5.55,21.288-12.4S2447.945,1549,2436.188,1549Z" transform="translate(-2435.731 -1549.005)" fill="#d9c32a"/>
            </g>
          </g>
        </g>
        <g id="Grupo_89926" data-name="Grupo 89926" transform="translate(37.381 96.609)">
          <path id="Trazado_153497" data-name="Trazado 153497" d="M2508.794,1614.314c0,8.144-11.336,14.745-25.321,14.745a41.267,41.267,0,0,1-10.012-1.2q-.887-.222-1.737-.481-.89-.273-1.736-.583a27.031,27.031,0,0,1-5.209-2.538c-4.116-2.622-6.626-6.113-6.626-9.945v-.008h0v-6.61h2.693a17.836,17.836,0,0,1,3.938-3.325,27.017,27.017,0,0,1,5.209-2.538q.846-.311,1.736-.583.85-.259,1.737-.482a41.271,41.271,0,0,1,10.012-1.2c9.9,0,18.468,3.306,22.632,8.126h2.687v6.438C2508.793,1614.194,2508.794,1614.255,2508.794,1614.314Z" transform="translate(-2458.148 -1594.241)" fill="#d9c32a"/>
          <path id="Trazado_153498" data-name="Trazado 153498" d="M2475.236,1603.623v24.964a27.01,27.01,0,0,1-5.209-2.538v-19.888A27.018,27.018,0,0,1,2475.236,1603.623Z" transform="translate(-2463.396 -1596.032)" fill="#fff"/>
          <path id="Trazado_153499" data-name="Trazado 153499" d="M2484.206,1598.537V1627.4q-.887-.222-1.737-.481v-28.386Z" transform="translate(-2468.893 -1593.785)" fill="#fff"/>
          <path id="Trazado_153650" data-name="Trazado 153650" d="M25.321,0C39.3,0,50.641,6.6,50.641,14.745S39.3,29.49,25.321,29.49,0,22.888,0,14.745,11.336,0,25.321,0Z" transform="translate(0.005)" fill="#ffee58"/>
          <g id="Grupo_89922" data-name="Grupo 89922" transform="translate(3.123 2.348)">
            <path id="Trazado_153500" data-name="Trazado 153500" d="M2485.031,1594.23c-11.757,0-21.288,5.55-21.288,12.4s9.531,12.4,21.288,12.4,21.288-5.55,21.288-12.4S2496.789,1594.23,2485.031,1594.23Zm0,22c-9.091,0-16.462-4.292-16.462-9.587s7.371-9.586,16.462-9.586,16.462,4.292,16.462,9.586S2494.123,1616.234,2485.031,1616.234Z" transform="translate(-2463.743 -1594.23)" fill="#ffe533"/>
          </g>
          <g id="Grupo_89925" data-name="Grupo 89925" transform="translate(7.949 2.348)">
            <g id="Grupo_89923" data-name="Grupo 89923" transform="translate(0 2.832)">
              <path id="Trazado_153501" data-name="Trazado 153501" d="M2489.308,1599.307c-.152,0-.3,0-.457,0-9.091,0-16.462,4.292-16.462,9.586s7.371,9.587,16.462,9.587c.153,0,.3,0,.457,0-8.881-.141-16.005-4.377-16.005-9.583S2480.427,1599.448,2489.308,1599.307Z" transform="translate(-2472.389 -1599.303)" fill="#d9c32a"/>
            </g>
            <g id="Grupo_89924" data-name="Grupo 89924" transform="translate(16.919)">
              <path id="Trazado_153502" data-name="Trazado 153502" d="M2503.156,1594.23c-.153,0-.3,0-.457,0,11.546.142,20.831,5.636,20.831,12.394s-9.285,12.251-20.831,12.393c.152,0,.3,0,.457,0,11.757,0,21.288-5.55,21.288-12.4S2514.913,1594.23,2503.156,1594.23Z" transform="translate(-2502.699 -1594.23)" fill="#d9c32a"/>
            </g>
          </g>
        </g>
        <g id="Grupo_89962" data-name="Grupo 89962" transform="translate(40.294)">
          <g id="Grupo_89931" data-name="Grupo 89931" transform="translate(0 45.39)">
            <path id="Trazado_153503" data-name="Trazado 153503" d="M2463.366,1522.555c0,8.144,11.337,14.745,25.321,14.745a41.279,41.279,0,0,0,10.012-1.2q.887-.222,1.736-.482.89-.273,1.737-.583a27.058,27.058,0,0,0,5.209-2.538c4.116-2.622,6.626-6.113,6.626-9.944v-.008h0v-6.61h-2.693a17.841,17.841,0,0,0-3.937-3.326,27.014,27.014,0,0,0-5.209-2.538q-.846-.311-1.737-.583-.85-.259-1.736-.481a41.265,41.265,0,0,0-10.012-1.2c-9.9,0-18.468,3.307-22.632,8.126h-2.687v6.438C2463.367,1522.435,2463.366,1522.5,2463.366,1522.555Z" transform="translate(-2463.366 -1502.483)" fill="#d9c32a"/>
            <path id="Trazado_153504" data-name="Trazado 153504" d="M2532.886,1511.865v24.964a27.06,27.06,0,0,0,5.209-2.538V1514.4A27.024,27.024,0,0,0,2532.886,1511.865Z" transform="translate(-2494.08 -1504.274)" fill="#fff"/>
            <path id="Trazado_153505" data-name="Trazado 153505" d="M2526.665,1506.778v28.868q.887-.222,1.736-.482v-28.386Z" transform="translate(-2491.331 -1502.026)" fill="#fff"/>
            <ellipse id="Elipse_509" data-name="Elipse 509" cx="25.321" cy="14.745" rx="25.321" ry="14.745" transform="translate(0.001)" fill="#ffee58"/>
            <g id="Grupo_89927" data-name="Grupo 89927" transform="translate(4.947 2.348)">
              <path id="Trazado_153506" data-name="Trazado 153506" d="M2472.228,1514.869c0,6.846,9.531,12.4,21.288,12.4s21.288-5.55,21.288-12.4-9.531-12.4-21.288-12.4S2472.228,1508.022,2472.228,1514.869Zm4.826.021c0-5.295,7.37-9.587,16.462-9.587s16.462,4.292,16.462,9.587-7.37,9.586-16.462,9.586S2477.054,1520.184,2477.054,1514.89Z" transform="translate(-2472.228 -1502.472)" fill="#ffdfb8"/>
            </g>
            <g id="Grupo_89930" data-name="Grupo 89930" transform="translate(4.033 2.348)">
              <g id="Grupo_89928" data-name="Grupo 89928" transform="translate(21.745 2.831)">
                <path id="Trazado_153507" data-name="Trazado 153507" d="M2509.546,1507.548c.152,0,.3,0,.457,0,9.092,0,16.462,4.292,16.462,9.587s-7.37,9.586-16.462,9.586q-.229,0-.457,0c8.881-.141,16.006-4.377,16.006-9.582S2518.427,1507.689,2509.546,1507.548Z" transform="translate(-2509.546 -1507.544)" fill="#fb9136"/>
              </g>
              <g id="Grupo_89929" data-name="Grupo 89929">
                <path id="Trazado_153508" data-name="Trazado 153508" d="M2491.879,1502.472q.229,0,.457,0c-11.546.141-20.831,5.635-20.831,12.393s9.285,12.252,20.831,12.393q-.228,0-.457,0c-11.758,0-21.288-5.55-21.288-12.4S2480.122,1502.472,2491.879,1502.472Z" transform="translate(-2470.591 -1502.472)" fill="#fb9136"/>
              </g>
            </g>
          </g>
          <g id="Grupo_89936" data-name="Grupo 89936" transform="translate(0 37.896)">
            <path id="Trazado_153509" data-name="Trazado 153509" d="M2463.366,1509.131c0,8.144,11.337,14.745,25.321,14.745a41.279,41.279,0,0,0,10.012-1.2q.887-.222,1.736-.481.89-.273,1.737-.583a27.043,27.043,0,0,0,5.209-2.538c4.116-2.622,6.626-6.113,6.626-9.945v-.008h0v-6.61h-2.693a17.822,17.822,0,0,0-3.937-3.325,27.015,27.015,0,0,0-5.209-2.538q-.846-.311-1.737-.583-.85-.26-1.736-.482a41.266,41.266,0,0,0-10.012-1.2c-9.9,0-18.468,3.306-22.632,8.126h-2.687v6.438C2463.367,1509.011,2463.366,1509.072,2463.366,1509.131Z" transform="translate(-2463.366 -1489.058)" fill="#d9c32a"/>
            <path id="Trazado_153510" data-name="Trazado 153510" d="M2532.886,1498.44V1523.4a27.045,27.045,0,0,0,5.209-2.537v-19.888A27.011,27.011,0,0,0,2532.886,1498.44Z" transform="translate(-2494.08 -1490.849)" fill="#fff"/>
            <path id="Trazado_153511" data-name="Trazado 153511" d="M2526.665,1493.354v28.868q.887-.222,1.736-.481v-28.386Z" transform="translate(-2491.331 -1488.602)" fill="#fff"/>
            <ellipse id="Elipse_510" data-name="Elipse 510" cx="25.321" cy="14.745" rx="25.321" ry="14.745" transform="translate(0.001)" fill="#ffee58"/>
            <g id="Grupo_89932" data-name="Grupo 89932" transform="translate(4.947 2.348)">
              <path id="Trazado_153512" data-name="Trazado 153512" d="M2472.228,1501.443c0,6.847,9.531,12.4,21.288,12.4s21.288-5.55,21.288-12.4-9.531-12.4-21.288-12.4S2472.228,1494.6,2472.228,1501.443Zm4.826.021c0-5.294,7.37-9.586,16.462-9.586s16.462,4.292,16.462,9.586-7.37,9.586-16.462,9.586S2477.054,1506.759,2477.054,1501.465Z" transform="translate(-2472.228 -1489.047)" fill="#ffdfb8"/>
            </g>
            <g id="Grupo_89935" data-name="Grupo 89935" transform="translate(4.033 2.348)">
              <g id="Grupo_89933" data-name="Grupo 89933" transform="translate(21.745 2.832)">
                <path id="Trazado_153513" data-name="Trazado 153513" d="M2509.546,1494.124q.228,0,.457,0c9.092,0,16.462,4.292,16.462,9.586s-7.37,9.587-16.462,9.587c-.153,0-.305,0-.457,0,8.881-.141,16.006-4.377,16.006-9.583S2518.427,1494.265,2509.546,1494.124Z" transform="translate(-2509.546 -1494.12)" fill="#fb9136"/>
              </g>
              <g id="Grupo_89934" data-name="Grupo 89934">
                <path id="Trazado_153514" data-name="Trazado 153514" d="M2491.879,1489.047c.152,0,.3,0,.457,0-11.546.142-20.831,5.636-20.831,12.393s9.285,12.252,20.831,12.394c-.152,0-.3,0-.457,0-11.758,0-21.288-5.55-21.288-12.4S2480.122,1489.047,2491.879,1489.047Z" transform="translate(-2470.591 -1489.047)" fill="#fb9136"/>
              </g>
            </g>
          </g>
          <g id="Grupo_89941" data-name="Grupo 89941" transform="translate(0 30.311)">
            <path id="Trazado_153515" data-name="Trazado 153515" d="M2463.366,1495.543c0,8.144,11.337,14.745,25.321,14.745a41.273,41.273,0,0,0,10.012-1.2q.887-.222,1.736-.482.89-.273,1.737-.583a27.015,27.015,0,0,0,5.209-2.538c4.116-2.621,6.626-6.112,6.626-9.944v-.008h0v-6.61h-2.693a17.841,17.841,0,0,0-3.937-3.326,27.043,27.043,0,0,0-5.209-2.538q-.846-.311-1.737-.583-.85-.259-1.736-.481a41.272,41.272,0,0,0-10.012-1.2c-9.9,0-18.468,3.306-22.632,8.126h-2.687v6.438C2463.367,1495.423,2463.366,1495.484,2463.366,1495.543Z" transform="translate(-2463.366 -1475.47)" fill="#d9c32a"/>
            <path id="Trazado_153516" data-name="Trazado 153516" d="M2532.886,1484.852v24.964a27.018,27.018,0,0,0,5.209-2.538V1487.39A27.052,27.052,0,0,0,2532.886,1484.852Z" transform="translate(-2494.08 -1477.261)" fill="#fff"/>
            <path id="Trazado_153517" data-name="Trazado 153517" d="M2526.665,1479.765v28.868q.887-.222,1.736-.482v-28.386Z" transform="translate(-2491.331 -1475.013)" fill="#fff"/>
            <path id="Trazado_153648" data-name="Trazado 153648" d="M25.321,0C39.3,0,50.641,6.6,50.641,14.745S39.3,29.49,25.321,29.49,0,22.888,0,14.745,11.336,0,25.321,0Z" transform="translate(0.001)" fill="#ffee58"/>
            <g id="Grupo_89937" data-name="Grupo 89937" transform="translate(4.947 2.348)">
              <path id="Trazado_153518" data-name="Trazado 153518" d="M2472.228,1487.856c0,6.846,9.531,12.4,21.288,12.4s21.288-5.55,21.288-12.4-9.531-12.4-21.288-12.4S2472.228,1481.009,2472.228,1487.856Zm4.826.021c0-5.295,7.37-9.586,16.462-9.586s16.462,4.291,16.462,9.586-7.37,9.587-16.462,9.587S2477.054,1493.171,2477.054,1487.877Z" transform="translate(-2472.228 -1475.459)" fill="#ffdfb8"/>
            </g>
            <g id="Grupo_89940" data-name="Grupo 89940" transform="translate(4.033 2.348)">
              <g id="Grupo_89938" data-name="Grupo 89938" transform="translate(21.745 2.832)">
                <path id="Trazado_153519" data-name="Trazado 153519" d="M2509.546,1480.535q.228,0,.457,0c9.092,0,16.462,4.292,16.462,9.586s-7.37,9.587-16.462,9.587c-.153,0-.305,0-.457,0,8.881-.141,16.006-4.377,16.006-9.583S2518.427,1480.677,2509.546,1480.535Z" transform="translate(-2509.546 -1480.532)" fill="#fb9136"/>
              </g>
              <g id="Grupo_89939" data-name="Grupo 89939">
                <path id="Trazado_153520" data-name="Trazado 153520" d="M2491.879,1475.459c.152,0,.3,0,.457,0-11.546.142-20.831,5.635-20.831,12.393s9.285,12.252,20.831,12.393q-.228,0-.457,0c-11.758,0-21.288-5.55-21.288-12.4S2480.122,1475.459,2491.879,1475.459Z" transform="translate(-2470.591 -1475.459)" fill="#fb9136"/>
              </g>
            </g>
          </g>
          <g id="Grupo_89946" data-name="Grupo 89946" transform="translate(0 22.817)">
            <path id="Trazado_153521" data-name="Trazado 153521" d="M2463.366,1482.118c0,8.143,11.337,14.745,25.321,14.745a41.31,41.31,0,0,0,10.012-1.2q.887-.223,1.736-.482.89-.273,1.737-.583a27.014,27.014,0,0,0,5.209-2.538c4.116-2.622,6.626-6.113,6.626-9.944v-.008h0v-6.61h-2.693a17.839,17.839,0,0,0-3.937-3.325,27.051,27.051,0,0,0-5.209-2.538q-.846-.311-1.737-.583-.85-.259-1.736-.482a41.29,41.29,0,0,0-10.012-1.2c-9.9,0-18.468,3.306-22.632,8.126h-2.687v6.438C2463.367,1482,2463.366,1482.059,2463.366,1482.118Z" transform="translate(-2463.366 -1462.045)" fill="#d9c32a"/>
            <path id="Trazado_153522" data-name="Trazado 153522" d="M2532.886,1471.427v24.964a27.016,27.016,0,0,0,5.209-2.537v-19.888A27.046,27.046,0,0,0,2532.886,1471.427Z" transform="translate(-2494.08 -1463.836)" fill="#fff"/>
            <path id="Trazado_153523" data-name="Trazado 153523" d="M2526.665,1466.341v28.868q.887-.223,1.736-.482v-28.386Z" transform="translate(-2491.331 -1461.589)" fill="#fff"/>
            <path id="Trazado_153647" data-name="Trazado 153647" d="M25.321,0C39.3,0,50.641,6.6,50.641,14.745S39.3,29.49,25.321,29.49,0,22.888,0,14.745,11.336,0,25.321,0Z" transform="translate(0.001)" fill="#ffee58"/>
            <g id="Grupo_89942" data-name="Grupo 89942" transform="translate(4.947 2.348)">
              <path id="Trazado_153524" data-name="Trazado 153524" d="M2472.228,1474.431c0,6.846,9.531,12.4,21.288,12.4s21.288-5.55,21.288-12.4-9.531-12.4-21.288-12.4S2472.228,1467.584,2472.228,1474.431Zm4.826.021c0-5.295,7.37-9.587,16.462-9.587s16.462,4.292,16.462,9.587-7.37,9.586-16.462,9.586S2477.054,1479.746,2477.054,1474.452Z" transform="translate(-2472.228 -1462.034)" fill="#ffdfb8"/>
            </g>
            <g id="Grupo_89945" data-name="Grupo 89945" transform="translate(4.033 2.348)">
              <g id="Grupo_89943" data-name="Grupo 89943" transform="translate(21.745 2.832)">
                <path id="Trazado_153525" data-name="Trazado 153525" d="M2509.546,1467.111c.152,0,.3,0,.457,0,9.092,0,16.462,4.292,16.462,9.587s-7.37,9.586-16.462,9.586c-.153,0-.305,0-.457,0,8.881-.141,16.006-4.377,16.006-9.582S2518.427,1467.252,2509.546,1467.111Z" transform="translate(-2509.546 -1467.107)" fill="#fb9136"/>
              </g>
              <g id="Grupo_89944" data-name="Grupo 89944">
                <path id="Trazado_153526" data-name="Trazado 153526" d="M2491.879,1462.034c.152,0,.3,0,.457,0-11.546.142-20.831,5.636-20.831,12.394s9.285,12.251,20.831,12.393c-.152,0-.3,0-.457,0-11.758,0-21.288-5.55-21.288-12.4S2480.122,1462.034,2491.879,1462.034Z" transform="translate(-2470.591 -1462.034)" fill="#fb9136"/>
              </g>
            </g>
          </g>
          <g id="Grupo_89951" data-name="Grupo 89951" transform="translate(0 15.079)">
            <path id="Trazado_153527" data-name="Trazado 153527" d="M2463.366,1468.254c0,8.144,11.337,14.745,25.321,14.745a41.279,41.279,0,0,0,10.012-1.2q.887-.222,1.736-.482.89-.273,1.737-.583a27.008,27.008,0,0,0,5.209-2.538c4.116-2.622,6.626-6.112,6.626-9.944v-.008h0v-6.61h-2.693a17.841,17.841,0,0,0-3.937-3.326,27.021,27.021,0,0,0-5.209-2.538q-.846-.311-1.737-.583-.85-.259-1.736-.481a41.265,41.265,0,0,0-10.012-1.2c-9.9,0-18.468,3.306-22.632,8.126h-2.687v6.438C2463.367,1468.135,2463.366,1468.2,2463.366,1468.254Z" transform="translate(-2463.366 -1448.182)" fill="#d9c32a"/>
            <path id="Trazado_153528" data-name="Trazado 153528" d="M2532.886,1457.564v24.964a27.011,27.011,0,0,0,5.209-2.538V1460.1A27.024,27.024,0,0,0,2532.886,1457.564Z" transform="translate(-2494.08 -1449.973)" fill="#fff"/>
            <path id="Trazado_153529" data-name="Trazado 153529" d="M2526.665,1452.477v28.868q.887-.222,1.736-.482v-28.386Z" transform="translate(-2491.331 -1447.725)" fill="#fff"/>
            <ellipse id="Elipse_513" data-name="Elipse 513" cx="25.321" cy="14.745" rx="25.321" ry="14.745" transform="translate(0.001)" fill="#ffee58"/>
            <g id="Grupo_89947" data-name="Grupo 89947" transform="translate(4.947 2.348)">
              <path id="Trazado_153530" data-name="Trazado 153530" d="M2472.228,1460.568c0,6.846,9.531,12.4,21.288,12.4s21.288-5.55,21.288-12.4-9.531-12.4-21.288-12.4S2472.228,1453.721,2472.228,1460.568Zm4.826.021c0-5.295,7.37-9.587,16.462-9.587s16.462,4.292,16.462,9.587-7.37,9.586-16.462,9.586S2477.054,1465.883,2477.054,1460.589Z" transform="translate(-2472.228 -1448.171)" fill="#ffdfb8"/>
            </g>
            <g id="Grupo_89950" data-name="Grupo 89950" transform="translate(4.033 2.348)">
              <g id="Grupo_89948" data-name="Grupo 89948" transform="translate(21.745 2.831)">
                <path id="Trazado_153531" data-name="Trazado 153531" d="M2509.546,1453.247c.152,0,.3,0,.457,0,9.092,0,16.462,4.292,16.462,9.587s-7.37,9.586-16.462,9.586q-.229,0-.457,0c8.881-.141,16.006-4.377,16.006-9.583S2518.427,1453.388,2509.546,1453.247Z" transform="translate(-2509.546 -1453.243)" fill="#fb9136"/>
              </g>
              <g id="Grupo_89949" data-name="Grupo 89949">
                <path id="Trazado_153532" data-name="Trazado 153532" d="M2491.879,1448.171c.152,0,.3,0,.457,0-11.546.142-20.831,5.636-20.831,12.393s9.285,12.251,20.831,12.393q-.228,0-.457,0c-11.758,0-21.288-5.55-21.288-12.4S2480.122,1448.171,2491.879,1448.171Z" transform="translate(-2470.591 -1448.171)" fill="#fb9136"/>
              </g>
            </g>
          </g>
          <g id="Grupo_89956" data-name="Grupo 89956" transform="translate(0 7.494)">
            <path id="Trazado_153533" data-name="Trazado 153533" d="M2463.366,1454.666c0,8.143,11.337,14.745,25.321,14.745a41.3,41.3,0,0,0,10.012-1.2q.887-.222,1.736-.482.89-.273,1.737-.583a27.021,27.021,0,0,0,5.209-2.538c4.116-2.622,6.626-6.113,6.626-9.944v-.008h0v-6.61h-2.693a17.841,17.841,0,0,0-3.937-3.326,27.029,27.029,0,0,0-5.209-2.538q-.846-.311-1.737-.583-.85-.259-1.736-.482a41.3,41.3,0,0,0-10.012-1.2c-9.9,0-18.468,3.306-22.632,8.126h-2.687v6.438C2463.367,1454.546,2463.366,1454.607,2463.366,1454.666Z" transform="translate(-2463.366 -1434.594)" fill="#d9c32a"/>
            <path id="Trazado_153534" data-name="Trazado 153534" d="M2532.886,1443.976v24.964a27.024,27.024,0,0,0,5.209-2.538v-19.888A27.031,27.031,0,0,0,2532.886,1443.976Z" transform="translate(-2494.08 -1436.385)" fill="#fff"/>
            <path id="Trazado_153535" data-name="Trazado 153535" d="M2526.665,1438.889v28.868q.887-.222,1.736-.482v-28.386Z" transform="translate(-2491.331 -1434.137)" fill="#fff"/>
            <path id="Trazado_153646" data-name="Trazado 153646" d="M25.321,0C39.3,0,50.641,6.6,50.641,14.745S39.3,29.49,25.321,29.49,0,22.888,0,14.745,11.336,0,25.321,0Z" transform="translate(0.001)" fill="#ffee58"/>
            <g id="Grupo_89952" data-name="Grupo 89952" transform="translate(4.947 2.348)">
              <path id="Trazado_153536" data-name="Trazado 153536" d="M2472.228,1446.979c0,6.846,9.531,12.4,21.288,12.4s21.288-5.55,21.288-12.4-9.531-12.4-21.288-12.4S2472.228,1440.133,2472.228,1446.979Zm4.826.021c0-5.294,7.37-9.586,16.462-9.586s16.462,4.292,16.462,9.586-7.37,9.586-16.462,9.586S2477.054,1452.295,2477.054,1447Z" transform="translate(-2472.228 -1434.583)" fill="#ffdfb8"/>
            </g>
            <g id="Grupo_89955" data-name="Grupo 89955" transform="translate(4.033 2.348)">
              <g id="Grupo_89953" data-name="Grupo 89953" transform="translate(21.745 2.831)">
                <path id="Trazado_153537" data-name="Trazado 153537" d="M2509.546,1439.659c.152,0,.3,0,.457,0,9.092,0,16.462,4.292,16.462,9.587s-7.37,9.586-16.462,9.586q-.229,0-.457,0c8.881-.141,16.006-4.377,16.006-9.582S2518.427,1439.8,2509.546,1439.659Z" transform="translate(-2509.546 -1439.655)" fill="#fb9136"/>
              </g>
              <g id="Grupo_89954" data-name="Grupo 89954">
                <path id="Trazado_153538" data-name="Trazado 153538" d="M2491.879,1434.583l.457,0c-11.546.142-20.831,5.636-20.831,12.394s9.285,12.251,20.831,12.393c-.152,0-.3,0-.457,0-11.758,0-21.288-5.55-21.288-12.4S2480.122,1434.583,2491.879,1434.583Z" transform="translate(-2470.591 -1434.583)" fill="#fb9136"/>
              </g>
            </g>
          </g>
          <g id="Grupo_89961" data-name="Grupo 89961">
            <path id="Trazado_153539" data-name="Trazado 153539" d="M2463.366,1441.242c0,8.144,11.337,14.745,25.321,14.745a41.273,41.273,0,0,0,10.012-1.2q.887-.222,1.736-.482.89-.272,1.737-.583a27.05,27.05,0,0,0,5.209-2.538c4.116-2.622,6.626-6.113,6.626-9.945v-.008h0v-6.61h-2.693a17.837,17.837,0,0,0-3.937-3.326,27.043,27.043,0,0,0-5.209-2.538q-.846-.311-1.737-.583-.85-.259-1.736-.482a41.272,41.272,0,0,0-10.012-1.2c-9.9,0-18.468,3.306-22.632,8.126h-2.687v6.438C2463.367,1441.122,2463.366,1441.183,2463.366,1441.242Z" transform="translate(-2463.366 -1421.169)" fill="#d9c32a"/>
            <path id="Trazado_153540" data-name="Trazado 153540" d="M2532.886,1430.551v24.964a27.045,27.045,0,0,0,5.209-2.538v-19.889A27.052,27.052,0,0,0,2532.886,1430.551Z" transform="translate(-2494.08 -1422.96)" fill="#fff"/>
            <path id="Trazado_153541" data-name="Trazado 153541" d="M2526.665,1425.465v28.868q.887-.222,1.736-.482v-28.386Z" transform="translate(-2491.331 -1420.713)" fill="#fff"/>
            <path id="Trazado_153645" data-name="Trazado 153645" d="M25.321,0C39.3,0,50.641,6.6,50.641,14.745S39.3,29.49,25.321,29.49,0,22.888,0,14.745,11.336,0,25.321,0Z" transform="translate(0.001)" fill="#ffee58"/>
            <g id="Grupo_89957" data-name="Grupo 89957" transform="translate(4.947 2.348)">
              <path id="Trazado_153542" data-name="Trazado 153542" d="M2472.228,1433.555c0,6.846,9.531,12.4,21.288,12.4s21.288-5.551,21.288-12.4-9.531-12.4-21.288-12.4S2472.228,1426.708,2472.228,1433.555Zm4.826.021c0-5.295,7.37-9.586,16.462-9.586s16.462,4.292,16.462,9.586-7.37,9.586-16.462,9.586S2477.054,1438.87,2477.054,1433.576Z" transform="translate(-2472.228 -1421.158)" fill="#ffe533"/>
            </g>
            <g id="Grupo_89960" data-name="Grupo 89960" transform="translate(4.033 2.348)">
              <g id="Grupo_89958" data-name="Grupo 89958" transform="translate(21.745 2.832)">
                <path id="Trazado_153543" data-name="Trazado 153543" d="M2509.546,1426.234q.228,0,.457,0c9.092,0,16.462,4.292,16.462,9.586s-7.37,9.586-16.462,9.586c-.153,0-.305,0-.457,0,8.881-.141,16.006-4.377,16.006-9.583S2518.427,1426.375,2509.546,1426.234Z" transform="translate(-2509.546 -1426.231)" fill="#d9c32a"/>
              </g>
              <g id="Grupo_89959" data-name="Grupo 89959">
                <path id="Trazado_153544" data-name="Trazado 153544" d="M2491.879,1421.158c.152,0,.3,0,.457,0-11.546.142-20.831,5.636-20.831,12.393s9.285,12.252,20.831,12.393c-.152,0-.3,0-.457,0-11.758,0-21.288-5.551-21.288-12.4S2480.122,1421.158,2491.879,1421.158Z" transform="translate(-2470.591 -1421.158)" fill="#d9c32a"/>
              </g>
            </g>
          </g>
        </g>
        <g id="Grupo_89983" data-name="Grupo 89983" transform="translate(79.618 46.12)">
          <g id="Grupo_89967" data-name="Grupo 89967" transform="translate(0 22.572)">
            <path id="Trazado_153545" data-name="Trazado 153545" d="M2533.813,1564.3c0,8.143,11.337,14.745,25.321,14.745a41.265,41.265,0,0,0,10.012-1.2q.887-.222,1.737-.482.889-.273,1.736-.583a27.027,27.027,0,0,0,5.209-2.538c4.116-2.622,6.626-6.113,6.626-9.944v-.008h0v-6.61h-2.693a17.854,17.854,0,0,0-3.937-3.326,27.026,27.026,0,0,0-5.209-2.538q-.846-.311-1.736-.583-.85-.259-1.737-.481a41.263,41.263,0,0,0-10.012-1.2c-9.9,0-18.468,3.306-22.633,8.126h-2.687v6.438C2533.814,1564.181,2533.813,1564.242,2533.813,1564.3Z" transform="translate(-2533.813 -1544.229)" fill="#d9c32a"/>
            <path id="Trazado_153546" data-name="Trazado 153546" d="M2603.332,1553.611v24.964a27.025,27.025,0,0,0,5.209-2.538v-19.888A27.024,27.024,0,0,0,2603.332,1553.611Z" transform="translate(-2564.526 -1546.02)" fill="#fff"/>
            <path id="Trazado_153547" data-name="Trazado 153547" d="M2597.111,1548.524v28.868q.887-.222,1.737-.482v-28.386Z" transform="translate(-2561.778 -1543.772)" fill="#fff"/>
            <ellipse id="Elipse_516" data-name="Elipse 516" cx="25.321" cy="14.745" rx="25.321" ry="14.745" transform="translate(0)" fill="#ffee58"/>
            <g id="Grupo_89963" data-name="Grupo 89963" transform="translate(4.946 2.348)">
              <path id="Trazado_153548" data-name="Trazado 153548" d="M2542.674,1556.615c0,6.846,9.531,12.4,21.288,12.4s21.288-5.55,21.288-12.4-9.531-12.4-21.288-12.4S2542.674,1549.768,2542.674,1556.615Zm4.826.021c0-5.295,7.37-9.587,16.462-9.587s16.462,4.292,16.462,9.587-7.371,9.586-16.462,9.586S2547.5,1561.93,2547.5,1556.636Z" transform="translate(-2542.674 -1544.218)" fill="#ffdfb8"/>
            </g>
            <g id="Grupo_89966" data-name="Grupo 89966" transform="translate(4.033 2.348)">
              <g id="Grupo_89964" data-name="Grupo 89964" transform="translate(21.745 2.831)">
                <path id="Trazado_153549" data-name="Trazado 153549" d="M2579.993,1549.294c.152,0,.3,0,.457,0,9.092,0,16.462,4.292,16.462,9.587s-7.37,9.586-16.462,9.586q-.229,0-.457,0c8.881-.141,16-4.377,16-9.582S2588.874,1549.435,2579.993,1549.294Z" transform="translate(-2579.993 -1549.29)" fill="#fb9136"/>
              </g>
              <g id="Grupo_89965" data-name="Grupo 89965">
                <path id="Trazado_153550" data-name="Trazado 153550" d="M2562.325,1544.218c.153,0,.3,0,.457,0-11.546.142-20.832,5.636-20.832,12.393s9.285,12.252,20.832,12.393c-.152,0-.3,0-.457,0-11.757,0-21.288-5.55-21.288-12.4S2550.568,1544.218,2562.325,1544.218Z" transform="translate(-2541.037 -1544.218)" fill="#fb9136"/>
              </g>
            </g>
          </g>
          <g id="Grupo_89972" data-name="Grupo 89972" transform="translate(0 15.079)">
            <path id="Trazado_153551" data-name="Trazado 153551" d="M2533.813,1550.877c0,8.144,11.337,14.745,25.321,14.745a41.264,41.264,0,0,0,10.012-1.2q.887-.222,1.737-.481.889-.273,1.736-.583a27.026,27.026,0,0,0,5.209-2.538c4.116-2.622,6.626-6.113,6.626-9.945v-.008h0v-6.61h-2.693a17.84,17.84,0,0,0-3.937-3.325,27.02,27.02,0,0,0-5.209-2.538q-.846-.311-1.736-.583-.85-.259-1.737-.482a41.257,41.257,0,0,0-10.012-1.2c-9.9,0-18.468,3.306-22.633,8.126h-2.687v6.438C2533.814,1550.757,2533.813,1550.818,2533.813,1550.877Z" transform="translate(-2533.813 -1530.804)" fill="#d9c32a"/>
            <path id="Trazado_153552" data-name="Trazado 153552" d="M2603.332,1540.186v24.964a27.024,27.024,0,0,0,5.209-2.537v-19.888A27.025,27.025,0,0,0,2603.332,1540.186Z" transform="translate(-2564.526 -1532.595)" fill="#fff"/>
            <path id="Trazado_153553" data-name="Trazado 153553" d="M2597.111,1535.1v28.868q.887-.222,1.737-.481V1535.1Z" transform="translate(-2561.778 -1530.348)" fill="#fff"/>
            <ellipse id="Elipse_517" data-name="Elipse 517" cx="25.321" cy="14.745" rx="25.321" ry="14.745" transform="translate(0)" fill="#ffee58"/>
            <g id="Grupo_89968" data-name="Grupo 89968" transform="translate(4.946 2.348)">
              <path id="Trazado_153554" data-name="Trazado 153554" d="M2542.674,1543.19c0,6.846,9.531,12.4,21.288,12.4s21.288-5.55,21.288-12.4-9.531-12.4-21.288-12.4S2542.674,1536.343,2542.674,1543.19Zm4.826.021c0-5.294,7.37-9.586,16.462-9.586s16.462,4.292,16.462,9.586-7.371,9.587-16.462,9.587S2547.5,1548.505,2547.5,1543.211Z" transform="translate(-2542.674 -1530.793)" fill="#ffdfb8"/>
            </g>
            <g id="Grupo_89971" data-name="Grupo 89971" transform="translate(4.033 2.348)">
              <g id="Grupo_89969" data-name="Grupo 89969" transform="translate(21.745 2.832)">
                <path id="Trazado_153555" data-name="Trazado 153555" d="M2579.993,1535.87q.228,0,.457,0c9.092,0,16.462,4.292,16.462,9.586s-7.37,9.587-16.462,9.587c-.153,0-.3,0-.457,0,8.881-.141,16-4.377,16-9.583S2588.874,1536.01,2579.993,1535.87Z" transform="translate(-2579.993 -1535.866)" fill="#fb9136"/>
              </g>
              <g id="Grupo_89970" data-name="Grupo 89970">
                <path id="Trazado_153556" data-name="Trazado 153556" d="M2562.325,1530.793c.153,0,.3,0,.457,0-11.546.142-20.832,5.636-20.832,12.394s9.285,12.251,20.832,12.393c-.152,0-.3,0-.457,0-11.757,0-21.288-5.55-21.288-12.4S2550.568,1530.793,2562.325,1530.793Z" transform="translate(-2541.037 -1530.793)" fill="#fb9136"/>
              </g>
            </g>
          </g>
          <g id="Grupo_89977" data-name="Grupo 89977" transform="translate(0 7.494)">
            <path id="Trazado_153557" data-name="Trazado 153557" d="M2533.813,1537.289c0,8.144,11.337,14.745,25.321,14.745a41.265,41.265,0,0,0,10.012-1.2q.887-.222,1.737-.482.889-.272,1.736-.583a27.006,27.006,0,0,0,5.209-2.538c4.116-2.621,6.626-6.112,6.626-9.944v-.008h0v-6.61h-2.693a17.855,17.855,0,0,0-3.937-3.326,27.048,27.048,0,0,0-5.209-2.538q-.846-.311-1.736-.583-.85-.259-1.737-.482a41.258,41.258,0,0,0-10.012-1.2c-9.9,0-18.468,3.306-22.633,8.126h-2.687v6.438C2533.814,1537.169,2533.813,1537.23,2533.813,1537.289Z" transform="translate(-2533.813 -1517.216)" fill="#d9c32a"/>
            <path id="Trazado_153558" data-name="Trazado 153558" d="M2603.332,1526.6v24.964a27.01,27.01,0,0,0,5.209-2.538v-19.888A27.031,27.031,0,0,0,2603.332,1526.6Z" transform="translate(-2564.526 -1519.007)" fill="#fff"/>
            <path id="Trazado_153559" data-name="Trazado 153559" d="M2597.111,1521.512v28.868q.887-.222,1.737-.482v-28.386Z" transform="translate(-2561.778 -1516.76)" fill="#fff"/>
            <ellipse id="Elipse_518" data-name="Elipse 518" cx="25.321" cy="14.745" rx="25.321" ry="14.745" transform="translate(0)" fill="#ffee58"/>
            <g id="Grupo_89973" data-name="Grupo 89973" transform="translate(4.946 2.348)">
              <path id="Trazado_153560" data-name="Trazado 153560" d="M2542.674,1529.6c0,6.847,9.531,12.4,21.288,12.4s21.288-5.55,21.288-12.4-9.531-12.4-21.288-12.4S2542.674,1522.755,2542.674,1529.6Zm4.826.021c0-5.295,7.37-9.586,16.462-9.586s16.462,4.291,16.462,9.586-7.371,9.587-16.462,9.587S2547.5,1534.917,2547.5,1529.623Z" transform="translate(-2542.674 -1517.205)" fill="#ffdfb8"/>
            </g>
            <g id="Grupo_89976" data-name="Grupo 89976" transform="translate(4.033 2.348)">
              <g id="Grupo_89974" data-name="Grupo 89974" transform="translate(21.745 2.832)">
                <path id="Trazado_153561" data-name="Trazado 153561" d="M2579.993,1522.281q.228,0,.457,0c9.092,0,16.462,4.291,16.462,9.586s-7.37,9.587-16.462,9.587c-.153,0-.3,0-.457,0,8.881-.141,16-4.378,16-9.583S2588.874,1522.423,2579.993,1522.281Z" transform="translate(-2579.993 -1522.278)" fill="#fb9136"/>
              </g>
              <g id="Grupo_89975" data-name="Grupo 89975">
                <path id="Trazado_153562" data-name="Trazado 153562" d="M2562.325,1517.2c.153,0,.3,0,.457,0-11.546.142-20.832,5.636-20.832,12.393s9.285,12.252,20.832,12.393c-.152,0-.3,0-.457,0-11.757,0-21.288-5.55-21.288-12.4S2550.568,1517.2,2562.325,1517.2Z" transform="translate(-2541.037 -1517.205)" fill="#fb9136"/>
              </g>
            </g>
          </g>
          <g id="Grupo_89982" data-name="Grupo 89982">
            <path id="Trazado_153563" data-name="Trazado 153563" d="M2533.813,1523.865c0,8.143,11.337,14.745,25.321,14.745a41.289,41.289,0,0,0,10.012-1.2q.887-.223,1.737-.482.889-.273,1.736-.583a27.026,27.026,0,0,0,5.209-2.538c4.116-2.622,6.626-6.113,6.626-9.944v-.008h0v-6.61h-2.693a17.856,17.856,0,0,0-3.937-3.325,27.026,27.026,0,0,0-5.209-2.538q-.846-.311-1.736-.583-.85-.259-1.737-.482a41.294,41.294,0,0,0-10.012-1.2c-9.9,0-18.468,3.306-22.633,8.126h-2.687v6.438C2533.814,1523.744,2533.813,1523.8,2533.813,1523.865Z" transform="translate(-2533.813 -1503.791)" fill="#d9c32a"/>
            <path id="Trazado_153564" data-name="Trazado 153564" d="M2603.332,1513.174v24.964a27.01,27.01,0,0,0,5.209-2.538v-19.888A27.024,27.024,0,0,0,2603.332,1513.174Z" transform="translate(-2564.526 -1505.582)" fill="#fff"/>
            <path id="Trazado_153565" data-name="Trazado 153565" d="M2597.111,1508.087v28.868q.887-.223,1.737-.482v-28.386Z" transform="translate(-2561.778 -1503.335)" fill="#fff"/>
            <path id="Trazado_153649" data-name="Trazado 153649" d="M25.321,0C39.3,0,50.641,6.6,50.641,14.745S39.3,29.49,25.321,29.49,0,22.888,0,14.745,11.336,0,25.321,0Z" transform="translate(0)" fill="#ffee58"/>
            <g id="Grupo_89978" data-name="Grupo 89978" transform="translate(4.946 2.348)">
              <path id="Trazado_153566" data-name="Trazado 153566" d="M2542.674,1516.177c0,6.846,9.531,12.4,21.288,12.4s21.288-5.55,21.288-12.4-9.531-12.4-21.288-12.4S2542.674,1509.33,2542.674,1516.177Zm4.826.021c0-5.294,7.37-9.586,16.462-9.586s16.462,4.292,16.462,9.586-7.371,9.586-16.462,9.586S2547.5,1521.492,2547.5,1516.2Z" transform="translate(-2542.674 -1503.78)" fill="#ffe533"/>
            </g>
            <g id="Grupo_89981" data-name="Grupo 89981" transform="translate(4.033 2.348)">
              <g id="Grupo_89979" data-name="Grupo 89979" transform="translate(21.745 2.832)">
                <path id="Trazado_153567" data-name="Trazado 153567" d="M2579.993,1508.857c.152,0,.3,0,.457,0,9.092,0,16.462,4.292,16.462,9.587s-7.37,9.586-16.462,9.586q-.229,0-.457,0c8.881-.141,16-4.377,16-9.582S2588.874,1509,2579.993,1508.857Z" transform="translate(-2579.993 -1508.853)" fill="#d9c32a"/>
              </g>
              <g id="Grupo_89980" data-name="Grupo 89980">
                <path id="Trazado_153568" data-name="Trazado 153568" d="M2562.325,1503.78c.153,0,.3,0,.457,0-11.546.142-20.832,5.636-20.832,12.394s9.285,12.251,20.832,12.393c-.152,0-.3,0-.457,0-11.757,0-21.288-5.55-21.288-12.4S2550.568,1503.78,2562.325,1503.78Z" transform="translate(-2541.037 -1503.78)" fill="#d9c32a"/>
              </g>
            </g>
          </g>
        </g>
        <g id="Grupo_89988" data-name="Grupo 89988" transform="translate(44.671 59.353)">
          <path id="Trazado_153569" data-name="Trazado 153569" d="M2509.22,1529.825c7.957,1.734,11.992,14.217,9.013,27.881a41.3,41.3,0,0,1-3.3,9.527q-.406.82-.841,1.594-.456.81-.939,1.572a27.026,27.026,0,0,1-3.589,4.549c-3.438,3.463-7.384,5.172-11.128,4.356l-.009,0v0l-6.458-1.408.573-2.631a17.866,17.866,0,0,1-2.41-4.556,27.013,27.013,0,0,1-1.37-5.63q-.124-.893-.2-1.821-.072-.885-.1-1.8a41.284,41.284,0,0,1,.962-10.038c2.108-9.67,7.164-17.34,12.76-20.382l.572-2.625,6.29,1.371Z" transform="translate(-2478.821 -1525.55)" fill="#d9c32a"/>
          <path id="Trazado_153570" data-name="Trazado 153570" d="M2489.012,1594.1l24.391,5.317a27.044,27.044,0,0,1-3.589,4.549l-19.432-4.236A27.011,27.011,0,0,1,2489.012,1594.1Z" transform="translate(-2479.074 -1554.569)" fill="#fff"/>
          <path id="Trazado_153571" data-name="Trazado 153571" d="M2485.074,1586.939l28.205,6.149q-.406.82-.841,1.594l-27.735-6.047Z" transform="translate(-2477.17 -1551.405)" fill="#fff"/>
          <ellipse id="Elipse_520" data-name="Elipse 520" cx="25.321" cy="14.745" rx="25.321" ry="14.745" transform="translate(0 49.479) rotate(-77.702)" fill="#ffee58"/>
          <g id="Grupo_89984" data-name="Grupo 89984" transform="translate(6.668 7.804)">
            <path id="Trazado_153572" data-name="Trazado 153572" d="M2483.979,1555.59c-2.5,11.487.888,21.982,7.578,23.44s14.142-6.672,16.646-18.16-.888-21.982-7.578-23.44S2486.483,1544.1,2483.979,1555.59Zm21.5,4.687c-1.937,8.883-7.7,15.17-12.873,14.043s-7.8-9.243-5.86-18.127,7.7-15.17,12.873-14.042S2507.414,1551.393,2505.478,1560.276Z" transform="translate(-2483.154 -1537.261)" fill="#ffe533"/>
          </g>
          <g id="Grupo_89987" data-name="Grupo 89987" transform="translate(7.593 6.911)">
            <g id="Grupo_89985" data-name="Grupo 89985" transform="translate(2.028 19.379)">
              <path id="Trazado_153573" data-name="Trazado 153573" d="M2489.184,1570.378q-.052.222-.1.445c-1.936,8.883.687,17,5.86,18.127s10.936-5.16,12.873-14.043q.049-.223.094-.447c-2.03,8.646-7.686,14.705-12.771,13.6S2487.43,1579.085,2489.184,1570.378Z" transform="translate(-2488.445 -1570.378)" fill="#d9c32a"/>
            </g>
            <g id="Grupo_89986" data-name="Grupo 89986">
              <path id="Trazado_153574" data-name="Trazado 153574" d="M2484.905,1553.99c-.033.15-.064.3-.094.447,2.6-11.251,9.944-19.153,16.546-17.713s9.992,11.682,7.672,22.993c.034-.148.068-.3.1-.445,2.5-11.487-.889-21.982-7.578-23.44S2487.41,1542.5,2484.905,1553.99Z" transform="translate(-2484.811 -1535.662)" fill="#d9c32a"/>
            </g>
          </g>
        </g>
      </g>
      <path id="Trazado_153575" data-name="Trazado 153575" d="M2800.016,1472.822l-.045.017Z" transform="translate(-236.193 -239.555)" fill="#6a3782"/>
      <g id="Grupo_89990" data-name="Grupo 89990" transform="translate(2355.736 930.594)">
        <path id="Trazado_153576" data-name="Trazado 153576" d="M2643.638,1205.156l-28.725,16.787-57.024-32.582-.425-.246-29-82.54-.1-.276-57.449-32.828-.179-.507-29.083-82.884-14.385,8.408,1.492-67.894,55.957,34.32-13.519,7.9,28.441,82.376.925.53,57.27,33.045.075.209,28.277,83.354.583.336Z" transform="translate(-2427.271 -930.594)" fill="#f7de02"/>
        <path id="Trazado_153577" data-name="Trazado 153577" d="M2592.315,1188.008l-29.449,17.6-.1-.276L2505.32,1172.5l-.179-.507,29.829-17.242,57.27,33.045Z" transform="translate(-2461.674 -1029.628)" fill="#ffee58"/>
        <path id="Trazado_153578" data-name="Trazado 153578" d="M2747.018,1396.746l-28.724,16.787-57.024-32.582,28.882-16.7Z" transform="translate(-2530.651 -1122.183)" fill="#ffee58"/>
      </g>
      <g id="Grupo_89991" data-name="Grupo 89991" transform="translate(2534.426 1197.322)">
        <path id="Trazado_153579" data-name="Trazado 153579" d="M2821.413,1438.766v12.107l-38.65,22.461-.1-.058-35.274-20.493.148-12.344,35.126-9.133,3.479-.9Z" transform="translate(-2747.387 -1418.136)" fill="#ffe533"/>
        <path id="Trazado_153580" data-name="Trazado 153580" d="M2849.331,1438.766v12.107l-38.65,22.461-.1-.058v-41.97l3.479-.9Z" transform="translate(-2775.305 -1418.136)" fill="#d9c32a"/>
        <path id="Trazado_153581" data-name="Trazado 153581" d="M2782.762,1451.36l38.649-22.462-35.271-20.47-38.755,22.38Z" transform="translate(-2747.386 -1408.428)" fill="#ffee58"/>
        <path id="Trazado_153582" data-name="Trazado 153582" d="M2768.72,1436.282l26.839-15.5,23.393,13.576-26.765,15.555Z" transform="translate(-2756.812 -1413.886)" fill="#f7de31"/>
      </g>
      <g id="Grupo_89992" data-name="Grupo 89992" transform="translate(2402.257 1072.077)">
        <path id="Trazado_153583" data-name="Trazado 153583" d="M2510.611,1216.68l9.724,5.646,22.586-35.133-5.646-3.137-18.194,27.919-4.078-2.51Z" transform="translate(-2510.611 -1184.056)" fill="#d9c32a"/>
        <path id="Trazado_153584" data-name="Trazado 153584" d="M2517.609,1220.306l9.724,5.647,22.586-35.133-5.646-3.137-18.194,27.918-4.078-2.51Z" transform="translate(-2513.703 -1185.658)" fill="#ad9809"/>
      </g>
    </g>
  </g>
</svg>
