<svg xmlns="http://www.w3.org/2000/svg" width="614" height="313.932" viewBox="0 0 614 313.932">
  <g id="Grupo_109138" data-name="Grupo 109138" transform="translate(-180 -587)">
    <rect id="Rectángulo_31842" data-name="Rectángulo 31842" width="614" height="313.932" transform="translate(180 587)" fill="#ffbba7" opacity="0.7"/>
    <g id="Grupo_89474" data-name="Grupo 89474" transform="translate(312.965 -3.813)">
      <path id="Trazado_152447" data-name="Trazado 152447" d="M165.844,690.886v30.852a7.816,7.816,0,0,1-7.816,7.819H113.855a7.816,7.816,0,0,1-7.819-7.819V690.886l29.9-5.1,22.444,3.832Z" fill="#ecf5ff"/>
      <path id="Trazado_152448" data-name="Trazado 152448" d="M165.844,690.886v30.852a7.816,7.816,0,0,1-7.816,7.819h-7.457a7.815,7.815,0,0,0,7.813-7.819V689.613Z" fill="#d2edfc"/>
      <path id="Trazado_152449" data-name="Trazado 152449" d="M165.844,763.434v51.113a7.813,7.813,0,0,1-7.816,7.816H113.855a7.814,7.814,0,0,1-7.819-7.816V763.434l29.133-2.753,23.215,2.083Z" fill="#ecf5ff"/>
      <path id="Trazado_152450" data-name="Trazado 152450" d="M165.844,763.434v51.113a7.813,7.813,0,0,1-7.816,7.816h-7.46a7.813,7.813,0,0,0,7.816-7.816V762.764Z" fill="#d2edfc"/>
      <path id="Trazado_152451" data-name="Trazado 152451" d="M165.844,681.631v9.256H106.035v-9.256a7.818,7.818,0,0,1,7.818-7.818h44.176A7.816,7.816,0,0,1,165.844,681.631Z" fill="#b1e4fa"/>
      <path id="Trazado_152452" data-name="Trazado 152452" d="M165.844,763.434v.585a27.935,27.935,0,0,1-24.067-.585l9.882-1.273Z" fill="#d2edfc"/>
      <path id="Trazado_152453" data-name="Trazado 152453" d="M158.029,673.813h-7.46a7.816,7.816,0,0,1,7.815,7.818v9.256h7.46v-9.256A7.816,7.816,0,0,0,158.029,673.813Z" fill="#90d9f9"/>
      <path id="Trazado_152454" data-name="Trazado 152454" d="M165.844,754.1v9.338H106.036V754.1a7.839,7.839,0,0,1,7.819-7.813h44.173a7.828,7.828,0,0,1,7.816,7.813Z" fill="#b1e4fa"/>
      <path id="Trazado_152455" data-name="Trazado 152455" d="M165.844,713.163v8.575a7.816,7.816,0,0,1-7.816,7.819H128.052a27.884,27.884,0,0,1,37.792-16.394Z" fill="#d2edfc"/>
      <path id="Trazado_152456" data-name="Trazado 152456" d="M165.844,754.1v9.338H141.777a27.918,27.918,0,0,1-14.146-17.151h30.4A7.828,7.828,0,0,1,165.844,754.1Z" fill="#90d9f9"/>
      <g id="Grupo_89475" data-name="Grupo 89475">
        <g id="Grupo_89474-2" data-name="Grupo 89474">
          <path id="Trazado_152457" data-name="Trazado 152457" d="M241.458,683.073v37.356a9.126,9.126,0,0,1-9.125,9.128H215.111a3.958,3.958,0,0,0-3.342,1.838l-8.019,12.622a2.434,2.434,0,0,1-4.49-1.3V729.557h-8.255a9.132,9.132,0,0,1-9.131-9.131V683.073A9.127,9.127,0,0,1,191,673.945h41.331a9.126,9.126,0,0,1,9.125,9.128Z" fill="#b1e4fa"/>
        </g>
      </g>
      <g id="Grupo_89476" data-name="Grupo 89476">
        <path id="Trazado_152458" data-name="Trazado 152458" d="M215.111,729.557a3.958,3.958,0,0,0-3.342,1.838l-8.019,12.622a2.434,2.434,0,0,1-4.49-1.3v-3.371l4.457-7.021a5.966,5.966,0,0,1,5.033-2.765Z" fill="#90d9f9"/>
        <path id="Trazado_152459" data-name="Trazado 152459" d="M232.332,673.945h-7.459A9.127,9.127,0,0,1,234,683.074v37.354a9.127,9.127,0,0,1-9.126,9.129h7.459a9.128,9.128,0,0,0,9.126-9.129V683.074A9.126,9.126,0,0,0,232.332,673.945Z" fill="#90d9f9"/>
      </g>
      <path id="Trazado_152460" data-name="Trazado 152460" d="M188.6,769.043a2.235,2.235,0,0,1-1.585-.657l-8.5-8.5a2.242,2.242,0,1,1,3.17-3.17l8.5,8.5a2.242,2.242,0,0,1-1.585,3.827Z" fill="#3b68af"/>
      <g id="Grupo_89477" data-name="Grupo 89477">
        <circle id="Elipse_490" data-name="Elipse 490" cx="27.871" cy="27.871" r="27.871" transform="translate(132.517 710.72)" fill="#3b68af"/>
        <path id="Trazado_152461" data-name="Trazado 152461" d="M180.1,718.883a27.811,27.811,0,0,0-22.69-8,27.865,27.865,0,0,1,0,55.412,27.867,27.867,0,0,0,22.69-47.414Z" fill="#335a96"/>
        <path id="Trazado_152462" data-name="Trazado 152462" d="M160.388,757.461a18.87,18.87,0,1,1,13.343-5.527A18.744,18.744,0,0,1,160.388,757.461Z" fill="#d2edfc"/>
        <path id="Trazado_152463" data-name="Trazado 152463" d="M173.731,725.247a18.747,18.747,0,0,0-13.343-5.527,19.085,19.085,0,0,0-3.73.367,18.878,18.878,0,0,1,0,37.007,19.011,19.011,0,0,0,3.73.367,18.87,18.87,0,0,0,13.343-32.214Z" fill="#b1e4fa"/>
        <path id="Trazado_152464" data-name="Trazado 152464" d="M186.957,768.442l3.283-3.282a6.139,6.139,0,0,1,8.681,0l10.1,10.1a6.137,6.137,0,0,1,0,8.681l-3.282,3.282a6.139,6.139,0,0,1-8.681,0l-10.1-10.1A6.139,6.139,0,0,1,186.957,768.442Z" fill="#5df2ff"/>
        <path id="Trazado_152465" data-name="Trazado 152465" d="M209.023,775.263l-10.1-10.1a6.137,6.137,0,0,0-8.681,0l-.759.758a6.117,6.117,0,0,1,4.693,1.782l7.389,7.562a6.137,6.137,0,0,1,0,8.681l-1.558,1.705a6.1,6.1,0,0,1-2.9,1.62,6.137,6.137,0,0,0,8.634-.042l3.282-3.282a6.138,6.138,0,0,0,0-8.682Z" fill="#00ccde"/>
      </g>
      <path id="Trazado_152466" data-name="Trazado 152466" d="M199.26,720.593v8.964h-4.483v-8.964a2.242,2.242,0,1,1,4.483,0Z" fill="#90d9f9"/>
      <circle id="Elipse_491" data-name="Elipse 491" cx="2.281" cy="2.281" r="2.281" transform="translate(209.225 717.83)" fill="#3b68af"/>
      <path id="Trazado_152467" data-name="Trazado 152467" d="M211.506,713.271a2.242,2.242,0,0,1-2.242-2.242V701a2.242,2.242,0,0,1,2.242-2.242,7.354,7.354,0,0,0,7.338-7.742,7.349,7.349,0,0,0-14.615-.634,7.492,7.492,0,0,0-.071,1.028,2.242,2.242,0,1,1-4.483,0,11.832,11.832,0,0,1,23.647-.626,11.85,11.85,0,0,1-9.574,12.248v7.995a2.243,2.243,0,0,1-2.242,2.242Z" fill="#3b68af"/>
      <circle id="Elipse_492" data-name="Elipse 492" cx="2.281" cy="2.281" r="2.281" transform="translate(115.036 680.117)" fill="#ff805a"/>
      <circle id="Elipse_493" data-name="Elipse 493" cx="2.281" cy="2.281" r="2.281" transform="translate(115.036 752.362)" fill="#ff805a"/>
      <g id="Grupo_89478" data-name="Grupo 89478">
        <path id="Trazado_152468" data-name="Trazado 152468" d="M153.616,783.073h-36.3a2.242,2.242,0,0,1,0-4.484h36.3a2.242,2.242,0,1,1,0,4.484Z" fill="#b1e4fa"/>
        <path id="Trazado_152469" data-name="Trazado 152469" d="M153.616,795.585h-36.3a2.242,2.242,0,0,1,0-4.483h36.3a2.242,2.242,0,1,1,0,4.483Z" fill="#b1e4fa"/>
        <path id="Trazado_152470" data-name="Trazado 152470" d="M145.546,808.1H124.79a2.241,2.241,0,1,1,0-4.483h20.756a2.241,2.241,0,1,1,0,4.483Z" fill="#b1e4fa"/>
      </g>
    </g>
  </g>
</svg>
