<svg xmlns="http://www.w3.org/2000/svg" xmlns:xlink="http://www.w3.org/1999/xlink" width="143.287" height="145.838" viewBox="0 0 143.287 145.838">
  <defs>
    <linearGradient id="linear-gradient" x1="0.294" y1="0.988" x2="0.959" y2="-0.074" gradientUnits="objectBoundingBox">
      <stop offset="0.004" stop-color="#2368e3"/>
      <stop offset="1" stop-color="#71baf6"/>
    </linearGradient>
    <linearGradient id="linear-gradient-2" y1="0.5" x2="1" y2="0.5" gradientUnits="objectBoundingBox">
      <stop offset="0" stop-color="#ff9085"/>
      <stop offset="1" stop-color="#fb6fbb"/>
    </linearGradient>
    <clipPath id="clip-path">
      <path id="Trazado_112700" data-name="Trazado 112700" d="M1414.431,1788.914a11.767,11.767,0,0,0-6.35-2.288c-15.193-1.076-17.41,30.681-15.081,37.778s.82,9.427-11.145,13.14-6.225,10.863-4.767,15.043,4.346,7.713-4.376,11.867-5.692,6.728-5.692,6.728,16.086,16.454,15.2,11.187.721-13.223,15.144-13.827c6.212-.261,15.725-3.224,17.831-9.875a11.973,11.973,0,0,0,.459-5.518c-.517-2.224-1.977-3.976-2.788-6.069-1.889-4.878,2.848-8.45,5.575-11.71a36.326,36.326,0,0,0,3.935-5.389c2.263-4.029,1.416-8.35-1.048-12.064-1.182-1.781-2.824-3.671-3.339-5.8-.554-2.282-.072-5.4.06-7.747a49.214,49.214,0,0,0,.175-5.521C1418.029,1795.42,1417.225,1791.226,1414.431,1788.914Z" transform="translate(-1366.509 -1786.599)" fill="url(#linear-gradient)"/>
    </clipPath>
    <clipPath id="clip-path-2">
      <path id="Trazado_112707" data-name="Trazado 112707" d="M1423.748,1851.215a11.764,11.764,0,0,0-5.2-4.3c-13.933-6.154-26.764,22.979-26.975,30.446s-2.418,9.149-14.935,8.594-9.534,8.115-9.576,12.543,1.48,8.728-8.134,9.686-7.632,4.405-7.632,4.405,9.569,20.927,10.516,15.669,5.153-12.2,18.929-7.887c5.934,1.858,15.888,2.288,20.121-3.258a11.976,11.976,0,0,0,2.3-5.038c.265-2.268-.516-4.41-.57-6.655-.127-5.229,5.539-6.988,9.208-9.133a36.323,36.323,0,0,0,5.527-3.739c3.493-3.026,4.158-7.379,3.1-11.708-.51-2.076-1.416-4.41-1.181-6.583.251-2.335,1.76-5.1,2.678-7.27a49.21,49.21,0,0,0,2.033-5.136C1424.933,1858.556,1425.6,1854.336,1423.748,1851.215Z" transform="translate(-1351.128 -1846.066)" fill="url(#linear-gradient-2)"/>
    </clipPath>
    <linearGradient id="linear-gradient-5" x1="7.42" y1="0.477" x2="7.138" y2="0.496" gradientUnits="objectBoundingBox">
      <stop offset="0" stop-color="#444b8c"/>
      <stop offset="0.996" stop-color="#26264f"/>
    </linearGradient>
    <linearGradient id="linear-gradient-6" x1="7.67" y1="0.034" x2="6.975" y2="1.514" xlink:href="#linear-gradient-5"/>
    <linearGradient id="linear-gradient-7" x1="245.253" y1="-1.493" x2="216.033" y2="78.642" gradientUnits="objectBoundingBox">
      <stop offset="0" stop-color="#ffc444"/>
      <stop offset="0.996" stop-color="#f36f56"/>
    </linearGradient>
    <linearGradient id="linear-gradient-8" x1="-636.707" y1="0.03" x2="-633.392" y2="1.813" xlink:href="#linear-gradient-7"/>
    <linearGradient id="linear-gradient-9" x1="-246.572" y1="-0.747" x2="-246.583" y2="-7.554" gradientUnits="objectBoundingBox">
      <stop offset="0" stop-color="#64def9"/>
      <stop offset="0.996" stop-color="#2f73d7"/>
    </linearGradient>
    <linearGradient id="linear-gradient-10" x1="-2354.948" y1="94.08" x2="-2354.886" y2="89.783" xlink:href="#linear-gradient-7"/>
    <linearGradient id="linear-gradient-11" x1="-243.063" y1="-1.686" x2="-243.074" y2="-8.492" xlink:href="#linear-gradient-9"/>
    <linearGradient id="linear-gradient-12" x1="-2342.881" y1="92.988" x2="-2342.819" y2="88.693" xlink:href="#linear-gradient-7"/>
    <linearGradient id="linear-gradient-13" x1="-139.663" y1="0.162" x2="-139.041" y2="0.831" gradientUnits="objectBoundingBox">
      <stop offset="0" stop-color="#093244"/>
      <stop offset="1" stop-color="#227789"/>
    </linearGradient>
    <linearGradient id="linear-gradient-14" x1="-437.692" y1="4.447" x2="-436.662" y2="4.447" xlink:href="#linear-gradient-13"/>
    <linearGradient id="linear-gradient-15" x1="-337.37" y1="4.325" x2="-336.161" y2="4.325" xlink:href="#linear-gradient-13"/>
    <linearGradient id="linear-gradient-16" x1="-267.125" y1="-2.638" x2="-268.28" y2="1.127" xlink:href="#linear-gradient-7"/>
    <linearGradient id="linear-gradient-17" x1="-516.717" y1="443.936" x2="-516.717" y2="442.54" xlink:href="#linear-gradient-7"/>
    <linearGradient id="linear-gradient-18" x1="-751.213" y1="32.561" x2="-751.93" y2="30.974" gradientUnits="objectBoundingBox">
      <stop offset="0" stop-color="#444b8c"/>
      <stop offset="0.996" stop-color="#3e4177"/>
    </linearGradient>
    <linearGradient id="linear-gradient-19" x1="-1301.212" y1="830.665" x2="-1300.084" y2="828.289" xlink:href="#linear-gradient-7"/>
    <linearGradient id="linear-gradient-20" y1="0.5" x2="1" y2="0.5" gradientUnits="objectBoundingBox">
      <stop offset="0" stop-color="#311944"/>
      <stop offset="1" stop-color="#893976"/>
    </linearGradient>
    <linearGradient id="linear-gradient-21" x1="0.618" y1="2.099" x2="0.497" y2="0.43" gradientUnits="objectBoundingBox">
      <stop offset="0.004" stop-color="#f36f56"/>
      <stop offset="1" stop-color="#ffc444"/>
    </linearGradient>
    <linearGradient id="linear-gradient-22" x1="0" y1="0.5" x2="1" y2="0.5" xlink:href="#linear-gradient-21"/>
    <linearGradient id="linear-gradient-24" x1="0.583" y1="-0.668" x2="0.196" y2="4.766" xlink:href="#linear-gradient-21"/>
    <linearGradient id="linear-gradient-25" x1="0.435" y1="-1.462" x2="0.566" y2="2.496" xlink:href="#linear-gradient-21"/>
  </defs>
  <g id="Grupo_83590" data-name="Grupo 83590" transform="translate(-1257.07 -1773.62)">
    <path id="Trazado_112693" data-name="Trazado 112693" d="M1398.244,1830.091c-1.578-19.458-2.367-29.187-6.04-35.481-10.517-18.024-41.093-22.309-60.4-20.666-25.853,2.2-55.428,17.062-68.447,45.756-11.824,26.063-6.372,55.564,11.445,74.863,32.66,35.377,100.033,29.06,116.49,5.848,6.568-9.264,7.042-24.062,7.737-45.8A207.124,207.124,0,0,0,1398.244,1830.091Z" fill="#8bf1fa"/>
    <g id="Grupo_83578" data-name="Grupo 83578" transform="translate(1326.568 1783.21)">
      <g id="Grupo_83568" data-name="Grupo 83568" transform="translate(11.366)">
        <g id="Grupo_83567" data-name="Grupo 83567">
          <path id="Trazado_112694" data-name="Trazado 112694" d="M1414.431,1788.914a11.767,11.767,0,0,0-6.35-2.288c-15.193-1.076-17.41,30.681-15.081,37.778s.82,9.427-11.145,13.14-6.225,10.863-4.767,15.043,4.346,7.713-4.376,11.867-5.692,6.728-5.692,6.728,16.086,16.454,15.2,11.187.721-13.223,15.144-13.827c6.212-.261,15.725-3.224,17.831-9.875a11.973,11.973,0,0,0,.459-5.518c-.517-2.224-1.977-3.976-2.788-6.069-1.889-4.878,2.848-8.45,5.575-11.71a36.326,36.326,0,0,0,3.935-5.389c2.263-4.029,1.416-8.35-1.048-12.064-1.182-1.781-2.824-3.671-3.339-5.8-.554-2.282-.072-5.4.06-7.747a49.214,49.214,0,0,0,.175-5.521C1418.029,1795.42,1417.225,1791.226,1414.431,1788.914Z" transform="translate(-1366.509 -1786.599)" fill="url(#linear-gradient)"/>
          <g id="Grupo_83566" data-name="Grupo 83566" clip-path="url(#clip-path)">
            <g id="Grupo_83565" data-name="Grupo 83565" transform="translate(-1.056 -3.952)" opacity="0.8" style="mix-blend-mode: soft-light;isolation: isolate">
              <g id="Grupo_83560" data-name="Grupo 83560">
                <path id="Trazado_112695" data-name="Trazado 112695" d="M1365.381,1879.021a.225.225,0,0,1-.18-.411,108.431,108.431,0,0,0,14.394-9.464c6.961-5.406,16.029-13.929,19.7-23.839,3.066-8.275,5.863-21.957,7.673-37.535,1.623-13.969,1.879-24.3,1.189-26.219a.225.225,0,0,1,.423-.152c.807,2.244.295,13.851-1.165,26.424-1.814,15.613-4.62,29.332-7.7,37.64-3.709,10.01-12.843,18.6-19.853,24.042a108.845,108.845,0,0,1-14.455,9.5A.218.218,0,0,1,1365.381,1879.021Z" transform="translate(-1365.081 -1781.251)" fill="#fff"/>
              </g>
              <g id="Grupo_83561" data-name="Grupo 83561" transform="translate(28.437 9.872)">
                <path id="Trazado_112696" data-name="Trazado 112696" d="M1416.994,1813.968a.2.2,0,0,1-.277-.107c-.056-.154-5.72-15.391-13.024-18.831a.216.216,0,0,1-.1-.292.224.224,0,0,1,.3-.1c7.471,3.519,13.017,18.437,13.25,19.071a.2.2,0,0,1-.143.262Z" transform="translate(-1403.567 -1794.611)" fill="#fff"/>
              </g>
              <g id="Grupo_83562" data-name="Grupo 83562" transform="translate(38.802 36.164)">
                <path id="Trazado_112697" data-name="Trazado 112697" d="M1417.895,1840.929a.225.225,0,0,1-.219-.385,71.235,71.235,0,0,1,9.357-6.325c6.952-3.878,12.28-4.961,15.835-3.218a.225.225,0,1,1-.2.4c-8.18-4.011-24.544,9.351-24.708,9.487A.234.234,0,0,1,1417.895,1840.929Z" transform="translate(-1417.594 -1830.194)" fill="#fff"/>
              </g>
              <g id="Grupo_83563" data-name="Grupo 83563" transform="translate(9.949 52.832)">
                <path id="Trazado_112698" data-name="Trazado 112698" d="M1389.544,1882.94a.216.216,0,0,1-.073.013.225.225,0,0,1-.228-.221,85.654,85.654,0,0,0-1.485-13.491c-1.255-6.316-3.845-14.227-9.062-16.05a.225.225,0,1,1,.148-.424c4.351,1.52,7.5,7.035,9.356,16.392a86.111,86.111,0,0,1,1.492,13.567A.225.225,0,0,1,1389.544,1882.94Z" transform="translate(-1378.546 -1852.753)" fill="#fff"/>
              </g>
              <g id="Grupo_83564" data-name="Grupo 83564" transform="translate(29.93 60.101)">
                <path id="Trazado_112699" data-name="Trazado 112699" d="M1405.888,1874.946a.225.225,0,0,1-.209-.392c.723-.534,17.788-13.08,24.443-11.882a.225.225,0,0,1-.08.442c-6.466-1.164-23.921,11.672-24.1,11.8A.221.221,0,0,1,1405.888,1874.946Z" transform="translate(-1405.588 -1862.591)" fill="#fff"/>
              </g>
            </g>
          </g>
        </g>
      </g>
      <g id="Grupo_83577" data-name="Grupo 83577" transform="translate(0 43.94)">
        <g id="Grupo_83576" data-name="Grupo 83576">
          <path id="Trazado_112701" data-name="Trazado 112701" d="M1423.748,1851.215a11.764,11.764,0,0,0-5.2-4.3c-13.933-6.154-26.764,22.979-26.975,30.446s-2.418,9.149-14.935,8.594-9.534,8.115-9.576,12.543,1.48,8.728-8.134,9.686-7.632,4.405-7.632,4.405,9.569,20.927,10.516,15.669,5.153-12.2,18.929-7.887c5.934,1.858,15.888,2.288,20.121-3.258a11.976,11.976,0,0,0,2.3-5.038c.265-2.268-.516-4.41-.57-6.655-.127-5.229,5.539-6.988,9.208-9.133a36.323,36.323,0,0,0,5.527-3.739c3.493-3.026,4.158-7.379,3.1-11.708-.51-2.076-1.416-4.41-1.181-6.583.251-2.335,1.76-5.1,2.678-7.27a49.21,49.21,0,0,0,2.033-5.136C1424.933,1858.556,1425.6,1854.336,1423.748,1851.215Z" transform="translate(-1351.128 -1846.066)" fill="url(#linear-gradient-2)"/>
          <g id="Grupo_83575" data-name="Grupo 83575" clip-path="url(#clip-path-2)">
            <g id="Grupo_83574" data-name="Grupo 83574" transform="translate(-4.371 -2.685)" opacity="0.8" style="mix-blend-mode: soft-light;isolation: isolate">
              <g id="Grupo_83569" data-name="Grupo 83569">
                <path id="Trazado_112702" data-name="Trazado 112702" d="M1345.437,1919.9a.225.225,0,0,1-.03-.447,108.389,108.389,0,0,0,16.747-4.035c8.38-2.732,19.8-7.684,26.606-15.766,5.686-6.75,12.947-18.678,19.922-32.725,6.254-12.6,9.99-22.232,9.99-24.27a.225.225,0,0,1,.449,0c0,2.384-4.409,13.133-10.038,24.47-6.99,14.078-14.272,26.039-19.98,32.815-6.878,8.165-18.38,13.157-26.817,15.906a108.764,108.764,0,0,1-16.819,4.051Z" transform="translate(-1345.212 -1842.432)" fill="#fff"/>
              </g>
              <g id="Grupo_83570" data-name="Grupo 83570" transform="translate(56.356 4.343)">
                <path id="Trazado_112703" data-name="Trazado 112703" d="M1427.656,1871.048a.22.22,0,0,1-.225-.217c0-.164-.174-16.431-5.883-22.139a.223.223,0,0,1,0-.316.225.225,0,0,1,.318,0c5.839,5.839,6.01,21.776,6.015,22.451a.22.22,0,0,1-.223.221Z" transform="translate(-1421.483 -1848.31)" fill="#fff"/>
              </g>
              <g id="Grupo_83571" data-name="Grupo 83571" transform="translate(53.726 38.899)">
                <path id="Trazado_112704" data-name="Trazado 112704" d="M1418.149,1898.907a.224.224,0,0,1-.075-.436,71.126,71.126,0,0,1,10.944-2.786c7.854-1.3,13.234-.514,15.99,2.33a.225.225,0,1,1-.323.313c-6.34-6.542-26.26.494-26.46.566A.23.23,0,0,1,1418.149,1898.907Z" transform="translate(-1417.924 -1895.077)" fill="#fff"/>
              </g>
              <g id="Grupo_83572" data-name="Grupo 83572" transform="translate(24.42 38.51)">
                <path id="Trazado_112705" data-name="Trazado 112705" d="M1378.487,1926.615a.228.228,0,0,1-.073-.012.224.224,0,0,1-.14-.285,85.791,85.791,0,0,0,3.168-13.2c.956-6.368,1.2-14.688-3.1-18.169a.225.225,0,1,1,.283-.349c3.579,2.9,4.675,9.157,3.257,18.591a86.094,86.094,0,0,1-3.186,13.271A.224.224,0,0,1,1378.487,1926.615Z" transform="translate(-1378.262 -1894.551)" fill="#fff"/>
              </g>
              <g id="Grupo_83573" data-name="Grupo 83573" transform="translate(36.729 59.4)">
                <path id="Trazado_112706" data-name="Trazado 112706" d="M1395.146,1927.2a.225.225,0,0,1-.065-.44c.862-.259,21.166-6.29,27.023-2.911a.225.225,0,0,1-.225.389c-5.691-3.284-26.46,2.889-26.669,2.952A.22.22,0,0,1,1395.146,1927.2Z" transform="translate(-1394.921 -1922.823)" fill="#fff"/>
              </g>
            </g>
          </g>
        </g>
      </g>
    </g>
    <g id="Grupo_83581" data-name="Grupo 83581" transform="translate(1305.995 1778.423)">
      <g id="Grupo_83579" data-name="Grupo 83579" transform="translate(35.88 0.894)">
        <path id="Trazado_112708" data-name="Trazado 112708" d="M1382.455,1781.83l-.161,1.149a8.961,8.961,0,0,0-1.566.208l-.435-1.072a.569.569,0,0,0-.747-.31l-1.842.76a.58.58,0,0,0-.321.751l.437,1.085a9.245,9.245,0,0,0-1.261.963l-.926-.718a.579.579,0,0,0-.81.107l-1.238,1.583a.576.576,0,0,0,.094.811l.929.722a9.246,9.246,0,0,0-.623,1.467l-1.179-.154a.592.592,0,0,0-.658.5l-.3,2a.571.571,0,0,0,.489.655l1.182.155a9.065,9.065,0,0,0,.177,1.586l-1.109.463a.6.6,0,0,0-.328.769l.739,1.878a.572.572,0,0,0,.757.317l1.11-.464a9.02,9.02,0,0,0,.951,1.28l-.74.961a.6.6,0,0,0,.1.83l1.586,1.244a.58.58,0,0,0,.821-.112l.731-.954a8.956,8.956,0,0,0,1.476.62l-.166,1.191a.584.584,0,0,0,.5.667l2,.262a.594.594,0,0,0,.66-.514l.162-1.182a8.968,8.968,0,0,0,1.6-.21l.439,1.091a.577.577,0,0,0,.762.32l1.867-.791a.6.6,0,0,0,.318-.776l-.439-1.084a9.234,9.234,0,0,0,1.282-1l.913.709a.577.577,0,0,0,.816-.112l1.223-1.62a.6.6,0,0,0-.108-.826l-.9-.7a9.242,9.242,0,0,0,.614-1.508l1.13.149a.581.581,0,0,0,.649-.505l.256-2a.583.583,0,0,0-.5-.654l-1.127-.148a9.171,9.171,0,0,0-.208-1.6l1.046-.438a.581.581,0,0,0,.311-.758l-.764-1.846a.573.573,0,0,0-.751-.312l-1.052.438a9.173,9.173,0,0,0-.97-1.266l.695-.907a.577.577,0,0,0-.106-.807l-1.57-1.207a.574.574,0,0,0-.8.106l-.7.908a8.968,8.968,0,0,0-1.464-.6l.156-1.14a.569.569,0,0,0-.491-.643l-1.962-.257A.578.578,0,0,0,1382.455,1781.83Zm-6.918,9.307a7.267,7.267,0,0,1,8.093-6.2,7.146,7.146,0,0,1,6.121,8.065,7.262,7.262,0,0,1-8.1,6.278A7.142,7.142,0,0,1,1375.536,1791.137Z" transform="translate(-1371.844 -1781.331)" fill="#4fc0e8"/>
      </g>
      <g id="Grupo_83580" data-name="Grupo 83580">
        <path id="Trazado_112709" data-name="Trazado 112709" d="M1339.689,1780.891l-.248,1.776a14.015,14.015,0,0,0-2.422.321l-.672-1.656a.88.88,0,0,0-1.155-.48l-2.848,1.173a.9.9,0,0,0-.5,1.161l.675,1.679a14.348,14.348,0,0,0-1.95,1.488l-1.432-1.11a.9.9,0,0,0-1.252.166l-1.914,2.448a.891.891,0,0,0,.145,1.255l1.436,1.116a14.332,14.332,0,0,0-.963,2.268l-1.823-.239a.916.916,0,0,0-1.018.775l-.458,3.089a.884.884,0,0,0,.756,1.012l1.828.24a14.1,14.1,0,0,0,.275,2.452l-1.716.715a.926.926,0,0,0-.507,1.188l1.142,2.9a.884.884,0,0,0,1.171.491l1.716-.718a14.088,14.088,0,0,0,1.47,1.979l-1.144,1.484a.92.92,0,0,0,.149,1.284l2.452,1.923a.9.9,0,0,0,1.27-.173l1.13-1.476a13.831,13.831,0,0,0,2.282.96l-.257,1.841a.9.9,0,0,0,.769,1.031l3.1.406a.918.918,0,0,0,1.02-.8l.25-1.827a13.949,13.949,0,0,0,2.474-.327l.678,1.688a.892.892,0,0,0,1.179.494l2.886-1.224a.928.928,0,0,0,.492-1.2l-.679-1.676a14.452,14.452,0,0,0,1.984-1.543l1.411,1.1a.891.891,0,0,0,1.262-.171l1.891-2.506a.918.918,0,0,0-.167-1.276l-1.4-1.084a14.3,14.3,0,0,0,.949-2.331l1.747.23a.9.9,0,0,0,1-.782l.4-3.1a.9.9,0,0,0-.771-1.01l-1.743-.229a14.138,14.138,0,0,0-.322-2.476l1.617-.677a.9.9,0,0,0,.48-1.173l-1.181-2.854a.888.888,0,0,0-1.162-.483l-1.625.678a14.088,14.088,0,0,0-1.5-1.957l1.074-1.4a.891.891,0,0,0-.163-1.247l-2.429-1.866a.888.888,0,0,0-1.244.165l-1.081,1.4a13.689,13.689,0,0,0-2.263-.927l.241-1.763a.881.881,0,0,0-.758-.994l-3.034-.4A.9.9,0,0,0,1339.689,1780.891Zm-10.7,14.391a11.235,11.235,0,0,1,12.512-9.587,11.049,11.049,0,0,1,9.464,12.47,11.23,11.23,0,0,1-12.529,9.707A11.043,11.043,0,0,1,1328.994,1795.281Z" transform="translate(-1323.285 -1780.121)" fill="#4fc0e8"/>
      </g>
    </g>
    <g id="Grupo_83583" data-name="Grupo 83583" transform="translate(1303.645 1792.174)">
      <path id="Trazado_112710" data-name="Trazado 112710" d="M1336.861,1802.957l-13.27,110.292a2.906,2.906,0,0,0,2.537,3.295l55.269,6.068c3.386.21,5.24-1.519,5.449-3.278l13.931-117.259c.208-1.749-1.453-3.333-4.854-3.333l-55.771,1.175A3.515,3.515,0,0,0,1336.861,1802.957Z" transform="translate(-1321.008 -1798.733)" fill="url(#linear-gradient-5)"/>
      <path id="Trazado_112711" data-name="Trazado 112711" d="M1333.468,1802.764l-13.342,110.844a2.92,2.92,0,0,0,2.546,3.312l57.3,5.7a3.35,3.35,0,0,0,3.653-2.888l14.009-117.865a2.781,2.781,0,0,0-2.927-3.14l-57.932.978A3.533,3.533,0,0,0,1333.468,1802.764Z" transform="translate(-1320.103 -1798.73)" fill="url(#linear-gradient-6)"/>
      <path id="Trazado_112712" data-name="Trazado 112712" d="M1335.285,1811.256l-12.367,102.773a2.723,2.723,0,0,0,2.384,3.089l53.887,5.238a3.124,3.124,0,0,0,3.4-2.7l12.947-108.879a2.6,2.6,0,0,0-2.717-2.944l-54.44.58A3.277,3.277,0,0,0,1335.285,1811.256Z" transform="translate(-1320.833 -1801.108)" fill="#d8dee8"/>
      <path id="Trazado_112713" data-name="Trazado 112713" d="M1378.768,1803.7a.917.917,0,0,0,.947,1.055,1.262,1.262,0,0,0,1.2-1.084.916.916,0,0,0-.948-1.055A1.265,1.265,0,0,0,1378.768,1803.7Z" transform="translate(-1335.419 -1799.746)" fill="url(#linear-gradient-7)"/>
      <g id="Grupo_83582" data-name="Grupo 83582" transform="translate(14.807)" style="mix-blend-mode: soft-light;isolation: isolate">
        <path id="Trazado_112714" data-name="Trazado 112714" d="M1349.1,1877.867c11.032-20.4,27.511-26.5,32.473-47.522,2.682-11.363.855-22.238-2.223-31.266l20.583-.347a2.78,2.78,0,0,1,2.927,3.14l-14.009,117.865a3.35,3.35,0,0,1-3.653,2.888l-45.042-4.485C1339.828,1899.863,1344.187,1886.958,1349.1,1877.867Z" transform="translate(-1340.143 -1798.73)" fill="#fff"/>
      </g>
    </g>
    <g id="Grupo_83585" data-name="Grupo 83585" transform="translate(1261.136 1835.665)">
      <path id="Trazado_112715" data-name="Trazado 112715" d="M1318.746,1874.594s-.4-1.5-.117-1.887,2.021-1.921,1.854-1.42a3.219,3.219,0,0,1-.417.836s.935.434.334,1.085-.8.8-.835,1.386S1319.147,1875.38,1318.746,1874.594Z" transform="translate(-1277.183 -1861.141)" fill="url(#linear-gradient-8)"/>
      <path id="Trazado_112716" data-name="Trazado 112716" d="M1296.175,1963.614a13.494,13.494,0,0,0-.185,1.763c.027.463,5.162.7,5.214.353s-.849-.9-1.483-1.092-2.488-.714-2.488-.714Z" transform="translate(-1271.298 -1885.274)" fill="url(#linear-gradient-9)"/>
      <path id="Trazado_112717" data-name="Trazado 112717" d="M1297.381,1961.841l-.164,1.617a1.167,1.167,0,0,1-1.122.089l-.263-1.759Z" transform="translate(-1271.257 -1884.798)" fill="url(#linear-gradient-10)"/>
      <path id="Trazado_112718" data-name="Trazado 112718" d="M1283.777,1966.466a13.359,13.359,0,0,0-.185,1.763c.027.463,5.162.7,5.214.352s-.849-.9-1.483-1.092-2.489-.714-2.489-.714Z" transform="translate(-1268.06 -1886.019)" fill="url(#linear-gradient-11)"/>
      <path id="Trazado_112719" data-name="Trazado 112719" d="M1284.983,1964.693l-.164,1.617a1.166,1.166,0,0,1-1.122.09l-.263-1.76Z" transform="translate(-1268.02 -1885.542)" fill="url(#linear-gradient-12)"/>
      <path id="Trazado_112720" data-name="Trazado 112720" d="M1294.276,1904.5q.89,1.8,1.781,3.609c.477,6.866.714,14.334.562,22.318-.113,5.941-.431,11.569-.887,16.852l-2.414-.111a24.079,24.079,0,0,1-2.664-10.127c-.132-4.505,1.234-5.1,1.147-9.416-.112-5.59-2.457-7.082-3.706-13.807a36,36,0,0,1-.417-10.006Z" transform="translate(-1269.084 -1869.66)" fill="url(#linear-gradient-13)"/>
      <path id="Trazado_112721" data-name="Trazado 112721" d="M1287.678,1903.813l3.563.372c2.138,3.72,2.735,7.592,2.36,9.3-.531,2.423-1.935,3.2-1.858,5.633.076,2.407,1.495,3.032,2.394,5.869.623,1.965.459,3.771.1,7.3-.714,7.116-2.432,9.292-.992,11.624a5.255,5.255,0,0,0,2.589,2.056c-.035.436-.07.873-.107,1.306l-2.414-.111a24.079,24.079,0,0,1-2.664-10.127c-.132-4.505,1.234-5.1,1.147-9.416-.112-5.591-2.457-7.082-3.706-13.807A36,36,0,0,1,1287.678,1903.813Z" transform="translate(-1269.084 -1869.66)" opacity="0.3" fill="url(#linear-gradient-14)" style="mix-blend-mode: multiply;isolation: isolate"/>
      <path id="Trazado_112722" data-name="Trazado 112722" d="M1288.54,1907.075c-1.114,6.075-2.1,12.577-2.866,19.472-.927,8.326-1.422,16.175-1.617,23.463l-2.65.075c-3.48-6.885-3.693-11.552-3.191-14.592a43.863,43.863,0,0,0,.839-6.9,48.516,48.516,0,0,0-.259-6.4c-.418-4.8-.925-5.846-1-9.517-.069-3.445-.083-5.188.9-6.205C1281.289,1903.789,1288.029,1906.838,1288.54,1907.075Z" transform="translate(-1266.541 -1870.067)" fill="url(#linear-gradient-15)"/>
      <path id="Trazado_112723" data-name="Trazado 112723" d="M1312.046,1874.057l1.762-.123c1.385,5.6.392,11.032-2.736,13.029-4.886,3.121-13.967-2.759-15.935-9.161-.864-2.81-.667-6.866,1.06-7.654.479-.219,1.223-.253,2.834.652,4.811,2.7,4.937,7.806,7.383,8.239C1307.5,1879.23,1309.258,1878.537,1312.046,1874.057Z" transform="translate(-1270.945 -1860.835)" fill="#ebf40c"/>
      <path id="Trazado_112724" data-name="Trazado 112724" d="M1292.373,1900.309c.847-1.4-.216-2.759-.458-5.419-.274-3.015.887-3.517,2.036-8.513.764-3.323,1.5-6.513.622-10.248-.42-1.79-1.131-4.826-3.643-6.292-1.3-.757-3.066-.681-6.554-.5-4.312.225-6.468.338-8.076,1.185-.236.124-5.128,2.785-5.465,7.122-.342,4.415,4.465,5.008,5.106,10.895a47.222,47.222,0,0,1-.558,9.344c-.32,2.531-.539,3.179-.04,3.946,1.2,1.847,4.89,1.321,12.263.268C1290.5,1901.686,1291.742,1901.357,1292.373,1900.309Z" transform="translate(-1264.725 -1860.626)" fill="#ebf40c"/>
      <path id="Trazado_112725" data-name="Trazado 112725" d="M1281.157,1889.462c-.312,1.147-1.433,2-2.214,4.8-.168.6-1.368,4.894.188,5.949.9.61,1.706-.545,3.889-.7,3.781-.261,5.583,2.917,8.053,2.049a3.381,3.381,0,0,0,1.559-1.21,2.5,2.5,0,0,1-.259,1.827c-.631,1.048-1.876,1.376-4.767,1.79-7.373,1.053-11.059,1.579-12.263-.268-.5-.766-.28-1.414.04-3.946a47.223,47.223,0,0,0,.558-9.344c-.641-5.887-5.448-6.48-5.106-10.9a6.845,6.845,0,0,1,1.107-3.145C1278.041,1878.836,1282.137,1885.856,1281.157,1889.462Z" transform="translate(-1264.725 -1862.494)" fill="#b8d029"/>
      <path id="Trazado_112726" data-name="Trazado 112726" d="M1274.385,1905.762l1.221.78a2.849,2.849,0,0,1,1.518-.938c.892-.2,1.916.085,1.94.37.019.228-.605.458-.7.494-.779.287-1.356.049-1.671.361a2.4,2.4,0,0,1-.57.508,1.91,1.91,0,0,1-.217.112c-.52.2-1.411-.7-1.488-.782Z" transform="translate(-1265.657 -1870.11)" fill="url(#linear-gradient-16)"/>
      <path id="Trazado_112727" data-name="Trazado 112727" d="M1274.906,1880.592c.883-2.114,1.495-5.351.1-10.158-9.187,3.62-13.872,12.2-12.042,19,1.508,5.607,6.994,8.339,8.218,8.914l.855-1.945c-1.419-1.579-3.017-3.915-2.791-6.58C1269.559,1886.133,1273.119,1884.872,1274.906,1880.592Z" transform="translate(-1262.573 -1860.944)" fill="#ebf40c"/>
      <path id="Trazado_112728" data-name="Trazado 112728" d="M1287.459,1863.5a9.838,9.838,0,0,1-.571,2.811c-.451,1.088-2.823,1.771-3.3,2.014s.9.952,2.287,1.091,5.347-.175,6.062-.7-.574-.486-1.564-.85-1.562-2.3-1.388-3.178S1287.459,1863.5,1287.459,1863.5Z" transform="translate(-1268.034 -1859.132)" fill="url(#linear-gradient-17)"/>
      <path id="Trazado_112729" data-name="Trazado 112729" d="M1290.462,1861.372c.72-.707.82-.79.9-1.034a2.354,2.354,0,0,0-1.444-2.655c-.052-.017-.721-.231-.977.059-.216.246.1.587-.049,1.062-.142.445-.528.478-1.242,1.062-.589.48-.955.78-1.04,1.2a2.049,2.049,0,0,0,1.8,2.087C1288.745,1863.14,1288.836,1862.969,1290.462,1861.372Z" transform="translate(-1268.844 -1857.59)" fill="url(#linear-gradient-18)"/>
      <g id="Grupo_83584" data-name="Grupo 83584" transform="translate(18.833 3.155)">
        <path id="Trazado_112730" data-name="Trazado 112730" d="M1288.886,1864.4a2.044,2.044,0,0,0,1.931.579c1.043-.256.777-2.651.013-3.033a1.352,1.352,0,0,0-1.065.05c-.206.1-.263.2-.6.358-.312.143-.411.123-.5.225-.106.126-.151.4.179,1.053a.582.582,0,0,0-.65-.092.366.366,0,0,0-.116.162C1287.98,1864,1288.289,1864.3,1288.886,1864.4Z" transform="translate(-1288.061 -1861.86)" fill="url(#linear-gradient-19)"/>
      </g>
    </g>
    <g id="Grupo_83589" data-name="Grupo 83589" transform="translate(1300.601 1808.798)">
      <path id="Trazado_112731" data-name="Trazado 112731" d="M1383.444,1821.415l.27,1.453h0l-5.544.013-48.105.114a2.675,2.675,0,0,0-2.545,2.285l-11.484,76.749c-.171,1.27,1.807,3.21,3.037,3.3l21.342,1.64v-.026l31.924,2.449h0l.077.032a2.62,2.62,0,0,0,2.791-2.226v.005l10.755-81.943C1386.137,1823.937,1384.816,1821.411,1383.444,1821.415Z" transform="translate(-1315.994 -1821.278)" fill="url(#linear-gradient-20)"/>
      <g id="Grupo_83588" data-name="Grupo 83588">
        <path id="Trazado_112732" data-name="Trazado 112732" d="M1374.109,1905.558a2.631,2.631,0,0,1-2.789,2.24l-53.4-4.1a2.125,2.125,0,0,1-1.914-2.472l10.439-77.565a2.675,2.675,0,0,1,2.544-2.285l53.7-.148a2.092,2.092,0,0,1,2.168,2.4Z" transform="translate(-1315.983 -1821.229)" fill="url(#linear-gradient-21)"/>
        <path id="Trazado_112733" data-name="Trazado 112733" d="M1378.164,1874.22a1.349,1.349,0,0,1-1.387,1.136l-47-1.715a1,1,0,0,1-.972-1.168l.924-6.849a1.229,1.229,0,0,1,1.272-1.046l47.039,1.306a1.021,1.021,0,0,1,1.073,1.162Z" transform="translate(-1319.329 -1832.548)" fill="#fff"/>
        <path id="Trazado_112734" data-name="Trazado 112734" d="M1375.715,1892.746a1.4,1.4,0,0,1-1.387,1.2l-46.962-2.32a1.08,1.08,0,0,1-.967-1.26l.932-6.981a1.322,1.322,0,0,1,1.277-1.154l46.991,1.9a1.141,1.141,0,0,1,1.071,1.306Z" transform="translate(-1318.7 -1837.157)" fill="#fff"/>
        <path id="Trazado_112735" data-name="Trazado 112735" d="M1379.12,1867.018a1.3,1.3,0,0,0-.359-.059l-47.04-1.306a1.23,1.23,0,0,0-1.272,1.046l-.925,6.849-.005.052a1,1,0,0,1-.712-1.128l.925-6.849a1.229,1.229,0,0,1,1.272-1.046l47.041,1.306A1.022,1.022,0,0,1,1379.12,1867.018Z" transform="translate(-1319.329 -1832.548)" opacity="0.1" fill="url(#linear-gradient-22)" style="mix-blend-mode: multiply;isolation: isolate"/>
        <path id="Trazado_112736" data-name="Trazado 112736" d="M1376.679,1885.279a1.112,1.112,0,0,0-.364-.078l-46.99-1.9a1.323,1.323,0,0,0-1.277,1.155l-.932,6.982a1.122,1.122,0,0,0-.009.132,1.1,1.1,0,0,1-.709-1.209l.932-6.981a1.324,1.324,0,0,1,1.277-1.156l46.99,1.9A1.136,1.136,0,0,1,1376.679,1885.279Z" transform="translate(-1318.7 -1837.157)" opacity="0.1" fill="url(#linear-gradient-22)" style="mix-blend-mode: multiply;isolation: isolate"/>
        <path id="Trazado_112737" data-name="Trazado 112737" d="M1365.971,1910.5a1.812,1.812,0,0,0-1.66-2.079l-24.311-1.4a2.084,2.084,0,0,0-2.073,1.813l-1,7.562a1.792,1.792,0,0,0,1.568,2.073l24.3,1.662a2.154,2.154,0,0,0,2.166-1.871Z" transform="translate(-1321.447 -1843.63)" fill="url(#linear-gradient-24)"/>
        <g id="Grupo_83587" data-name="Grupo 83587" transform="translate(28.15 6.796)">
          <path id="Trazado_112738" data-name="Trazado 112738" d="M1372.292,1839.552a10.521,10.521,0,0,1-10.343,8.937,7.945,7.945,0,0,1-6.178-2.952,8.108,8.108,0,0,1-1.609-6.181,10.533,10.533,0,0,1,10.188-8.929A7.849,7.849,0,0,1,1372.292,1839.552Z" transform="translate(-1354.082 -1830.427)" fill="url(#linear-gradient-25)"/>
          <g id="Grupo_83586" data-name="Grupo 83586" transform="translate(1.689 2.439)">
            <path id="Trazado_112739" data-name="Trazado 112739" d="M1369.381,1837.666a4.566,4.566,0,0,1-4.457,3.875,3.386,3.386,0,0,1-3.389-3.941,4.568,4.568,0,0,1,4.427-3.873A3.385,3.385,0,0,1,1369.381,1837.666Z" transform="translate(-1357.708 -1833.728)" fill="#fff"/>
            <path id="Trazado_112740" data-name="Trazado 112740" d="M1369.562,1849.793a10.228,10.228,0,0,1-7.016,2.733,7.945,7.945,0,0,1-6.178-2.952,8.7,8.7,0,0,1,7.06-3.685A6.663,6.663,0,0,1,1369.562,1849.793Z" transform="translate(-1356.368 -1836.903)" fill="#fff"/>
          </g>
        </g>
        <path id="Trazado_112741" data-name="Trazado 112741" d="M1391.29,1823.629l-10.749,81.929a2.706,2.706,0,0,1-2.868,2.234l-32.072-2.463a17.1,17.1,0,0,1-3.674-5.678,17.5,17.5,0,0,1-.975-3.54,29.505,29.505,0,0,1,.5-11.252,37.136,37.136,0,0,1,3.055-8.552,28.036,28.036,0,0,1,3.74-5.677c1.013-1.17,2.11-2.307,3.266-3.422,1.394-1.346,2.877-2.66,4.4-3.961,3.562-3.035,7.376-6,10.908-9.136,8.149-7.229,14.759-15.305,13.168-26.83-.05-.363-.547-3.143-1.182-6.024l10.228-.028A2.149,2.149,0,0,1,1391.29,1823.629Z" transform="translate(-1322.416 -1821.229)" fill="#fff" opacity="0.4" style="mix-blend-mode: soft-light;isolation: isolate"/>
      </g>
    </g>
  </g>
</svg>
