<svg xmlns="http://www.w3.org/2000/svg" xmlns:xlink="http://www.w3.org/1999/xlink" width="170.704" height="170.588" viewBox="0 0 170.704 170.588">
  <defs>
    <linearGradient id="linear-gradient" x1="1.061" y1="1.13" x2="0.324" y2="0.337" gradientUnits="objectBoundingBox">
      <stop offset="0" stop-color="#7cfaff"/>
      <stop offset="1" stop-color="#95f8ea"/>
    </linearGradient>
    <linearGradient id="linear-gradient-2" x1="0.746" y1="-0.64" x2="0.431" y2="0.82" gradientUnits="objectBoundingBox">
      <stop offset="0" stop-color="#cb236d"/>
      <stop offset="1" stop-color="#6d6024"/>
    </linearGradient>
    <linearGradient id="linear-gradient-3" x1="0.021" y1="5.569" x2="0.663" y2="-1.2" gradientUnits="objectBoundingBox">
      <stop offset="0" stop-color="#d56c37"/>
      <stop offset="1" stop-color="#ef497a"/>
    </linearGradient>
    <linearGradient id="linear-gradient-4" x1="0.821" y1="-28.504" x2="0.582" y2="-6.663" gradientUnits="objectBoundingBox">
      <stop offset="0" stop-color="#ffe67c"/>
      <stop offset="1" stop-color="#f8e095"/>
    </linearGradient>
    <linearGradient id="linear-gradient-5" x1="0.779" y1="-28.249" x2="0.574" y2="-7.386" xlink:href="#linear-gradient-4"/>
    <linearGradient id="linear-gradient-6" x1="0.114" y1="4.545" x2="0.754" y2="-2.151" xlink:href="#linear-gradient-3"/>
    <linearGradient id="linear-gradient-7" x1="0.603" y1="-8.198" x2="0.461" y2="4.248" xlink:href="#linear-gradient-4"/>
    <linearGradient id="linear-gradient-8" x1="0.823" y1="-25.47" x2="0.46" y2="3.345" xlink:href="#linear-gradient-4"/>
    <linearGradient id="linear-gradient-9" x1="0.206" y1="3.606" x2="0.848" y2="-3.166" xlink:href="#linear-gradient-3"/>
    <linearGradient id="linear-gradient-10" x1="0.818" y1="-34.931" x2="0.414" y2="10.613" xlink:href="#linear-gradient-4"/>
    <linearGradient id="linear-gradient-11" x1="0.796" y1="-27.105" x2="0.548" y2="-4.334" xlink:href="#linear-gradient-4"/>
    <linearGradient id="linear-gradient-12" x1="0.299" y1="2.613" x2="0.941" y2="-4.135" xlink:href="#linear-gradient-3"/>
    <linearGradient id="linear-gradient-13" x1="0.785" y1="-26.338" x2="0.532" y2="-2.225" xlink:href="#linear-gradient-4"/>
    <linearGradient id="linear-gradient-14" x1="0.813" y1="-28.155" x2="0.514" y2="-1.175" xlink:href="#linear-gradient-4"/>
    <linearGradient id="linear-gradient-15" x1="4.876" y1="-3.649" x2="6.23" y2="-8.889" gradientUnits="objectBoundingBox">
      <stop offset="0" stop-color="#3f98fd"/>
      <stop offset="0.665" stop-color="#58afe5"/>
      <stop offset="1" stop-color="#3cd9d6"/>
    </linearGradient>
    <linearGradient id="linear-gradient-16" x1="83.887" y1="-45.052" x2="110.784" y2="-109.835" xlink:href="#linear-gradient-15"/>
    <linearGradient id="linear-gradient-17" x1="136.753" y1="-43.726" x2="178.914" y2="-99.492" xlink:href="#linear-gradient-15"/>
    <linearGradient id="linear-gradient-18" x1="5.077" y1="-4.829" x2="6.406" y2="-10.532" xlink:href="#linear-gradient-15"/>
    <linearGradient id="linear-gradient-19" x1="98.145" y1="-63.846" x2="125.498" y2="-127.551" xlink:href="#linear-gradient-15"/>
    <linearGradient id="linear-gradient-20" x1="0.199" y1="1.065" x2="1.318" y2="-1.035" xlink:href="#linear-gradient-15"/>
    <linearGradient id="linear-gradient-21" x1="227.24" y1="-75.637" x2="289.487" y2="-148.033" xlink:href="#linear-gradient-15"/>
    <linearGradient id="linear-gradient-22" x1="8.714" y1="-7.07" x2="11.068" y2="-14.937" xlink:href="#linear-gradient-15"/>
    <linearGradient id="linear-gradient-23" x1="8.728" y1="-17.897" x2="10.976" y2="-34.921" xlink:href="#linear-gradient-15"/>
    <linearGradient id="linear-gradient-24" x1="136.955" y1="-94.252" x2="173.666" y2="-180.183" xlink:href="#linear-gradient-15"/>
    <linearGradient id="linear-gradient-25" x1="0.374" y1="0.868" x2="0.877" y2="-0.598" xlink:href="#linear-gradient-15"/>
    <linearGradient id="linear-gradient-26" x1="-15.823" y1="0.932" x2="-15.6" y2="-0.163" gradientUnits="objectBoundingBox">
      <stop offset="0" stop-color="#2b5482"/>
      <stop offset="1" stop-color="#0e2342"/>
    </linearGradient>
    <linearGradient id="linear-gradient-27" x1="0.895" y1="-0.079" x2="0.046" y2="1.168" gradientUnits="objectBoundingBox">
      <stop offset="0" stop-color="#53fbff"/>
      <stop offset="1" stop-color="#38aff7"/>
    </linearGradient>
    <linearGradient id="linear-gradient-28" x1="-13.693" y1="-1.642" x2="-14.579" y2="3.385" xlink:href="#linear-gradient-26"/>
    <linearGradient id="linear-gradient-29" x1="3.551" y1="-6.666" x2="4.899" y2="-6.666" xlink:href="#linear-gradient-26"/>
    <linearGradient id="linear-gradient-30" x1="-24.521" y1="-3.651" x2="-23.518" y2="-3.651" xlink:href="#linear-gradient-26"/>
    <linearGradient id="linear-gradient-31" y1="0.5" x2="1" y2="0.5" gradientUnits="objectBoundingBox">
      <stop offset="0" stop-color="#5aebff"/>
      <stop offset="1" stop-color="#2fd6e3"/>
    </linearGradient>
    <linearGradient id="linear-gradient-32" x1="0.978" y1="0.472" x2="-0.62" y2="0.67" xlink:href="#linear-gradient-31"/>
    <linearGradient id="linear-gradient-33" x1="1.73" y1="-0.13" x2="-1.657" y2="1.467" xlink:href="#linear-gradient-27"/>
    <linearGradient id="linear-gradient-34" x1="1.289" y1="0.127" x2="-2.098" y2="1.724" xlink:href="#linear-gradient-27"/>
    <linearGradient id="linear-gradient-35" x1="0.303" y1="4.449" x2="0.441" y2="1.688" gradientUnits="objectBoundingBox">
      <stop offset="0" stop-color="#fdf53f"/>
      <stop offset="0.665" stop-color="#e57a58"/>
      <stop offset="1" stop-color="#d93c65"/>
    </linearGradient>
    <linearGradient id="linear-gradient-36" x1="0" y1="0.5" x2="1" y2="0.5" xlink:href="#linear-gradient-2"/>
    <linearGradient id="linear-gradient-37" x1="0.772" y1="-6.693" x2="0.499" y2="0.843" xlink:href="#linear-gradient-2"/>
    <linearGradient id="linear-gradient-38" y1="0.5" x2="1" y2="0.5" gradientUnits="objectBoundingBox">
      <stop offset="0" stop-color="#f9b776"/>
      <stop offset="1" stop-color="#f47960"/>
    </linearGradient>
    <linearGradient id="linear-gradient-39" x1="0" y1="0.5" x2="1" y2="0.5" xlink:href="#linear-gradient-2"/>
    <linearGradient id="linear-gradient-40" x1="0.734" y1="-1.867" x2="0.424" y2="1.1" xlink:href="#linear-gradient-2"/>
    <linearGradient id="linear-gradient-41" x1="0" y1="0.5" x2="1" y2="0.5" xlink:href="#linear-gradient-26"/>
    <linearGradient id="linear-gradient-42" x1="0" y1="0.5" x2="1" y2="0.5" xlink:href="#linear-gradient-38"/>
    <linearGradient id="linear-gradient-43" x1="0.708" y1="0.132" x2="0.066" y2="1.227" xlink:href="#linear-gradient-26"/>
    <linearGradient id="linear-gradient-44" x1="0.311" y1="0.465" x2="0.881" y2="1.703" xlink:href="#linear-gradient-35"/>
    <linearGradient id="linear-gradient-45" x1="169.587" y1="47.344" x2="168.546" y2="48.095" gradientUnits="objectBoundingBox">
      <stop offset="0" stop-color="#fcd7fc"/>
      <stop offset="1" stop-color="#fccea6"/>
    </linearGradient>
    <linearGradient id="linear-gradient-46" x1="138.097" y1="36.879" x2="138.866" y2="37.773" xlink:href="#linear-gradient-26"/>
    <linearGradient id="linear-gradient-48" x1="-198.706" y1="-1045.753" x2="-199.935" y2="-1031.425" xlink:href="#linear-gradient-26"/>
    <linearGradient id="linear-gradient-49" x1="-626.724" y1="-74.268" x2="-629.349" y2="-72.969" xlink:href="#linear-gradient-26"/>
    <linearGradient id="linear-gradient-50" x1="0.367" y1="-0.295" x2="0.595" y2="1.098" gradientUnits="objectBoundingBox">
      <stop offset="0" stop-color="#9cfffb"/>
      <stop offset="1" stop-color="#9bfffa"/>
    </linearGradient>
    <linearGradient id="linear-gradient-51" x1="0.365" y1="-0.311" x2="0.593" y2="1.082" xlink:href="#linear-gradient-50"/>
    <linearGradient id="linear-gradient-52" x1="0.375" y1="-0.749" x2="0.903" y2="2.983" xlink:href="#linear-gradient-50"/>
    <linearGradient id="linear-gradient-53" x1="0.511" y1="-0.055" x2="0.394" y2="7.991" xlink:href="#linear-gradient-50"/>
  </defs>
  <g id="Grupo_86649" data-name="Grupo 86649" transform="translate(-1754.932 -1732.901)">
    <path id="Trazado_140205" data-name="Trazado 140205" d="M1918.69,1848.345c-17.193,40.186-62.576,57.447-98.135,54.5-9.708-.8-29.243-2.421-44.5-16.845-29.292-27.7-24.78-85.6,3.26-119.691,3.611-4.39,28.607-33.8,67.557-33.409,28.518.288,48.534,16.4,50.967,18.4a78.509,78.509,0,0,1,15.968,18.117C1928.172,1791.883,1929.434,1823.233,1918.69,1848.345Z" transform="translate(-0.171)" opacity="0.3" fill="url(#linear-gradient)"/>
    <g id="Grupo_86623" data-name="Grupo 86623" transform="translate(1816.179 1762.816)">
      <rect id="Rectángulo_16148" data-name="Rectángulo 16148" width="96.551" height="80.905" transform="translate(6.27 10.497)" fill="url(#linear-gradient-2)"/>
      <g id="Grupo_86616" data-name="Grupo 86616" transform="translate(0.298)">
        <path id="Trazado_140206" data-name="Trazado 140206" d="M1932.961,1767.974l-103.313.65a2.454,2.454,0,0,0-2.557,2.29v15.414a2.342,2.342,0,0,0,2.439,2.206l103.431.651a2.616,2.616,0,0,0,2.827-2.323V1770.3A2.616,2.616,0,0,0,1932.961,1767.974Z" transform="translate(-1827.089 -1767.974)" fill="url(#linear-gradient-3)"/>
        <g id="Grupo_86615" data-name="Grupo 86615">
          <path id="Trazado_140207" data-name="Trazado 140207" d="M1932.913,1767.974l-103.384.651a2.342,2.342,0,0,0-2.441,2.2l108.6-.532A2.569,2.569,0,0,0,1932.913,1767.974Z" transform="translate(-1827.088 -1767.974)" fill="url(#linear-gradient-4)"/>
          <path id="Trazado_140208" data-name="Trazado 140208" d="M1829.529,1791.7l103.384.651a2.57,2.57,0,0,0,2.78-2.323l-108.6-.533A2.343,2.343,0,0,0,1829.529,1791.7Z" transform="translate(-1827.088 -1771.138)" fill="url(#linear-gradient-5)"/>
        </g>
      </g>
      <g id="Grupo_86618" data-name="Grupo 86618" transform="translate(0 25.489)">
        <path id="Trazado_140209" data-name="Trazado 140209" d="M1932.993,1798.072l-103.392-.214a2.532,2.532,0,0,0-2.657,2.337l-.2,15.911a2.393,2.393,0,0,0,2.495,2.287l103.747.907a2.56,2.56,0,0,0,2.749-2.322v-16.565A2.589,2.589,0,0,0,1932.993,1798.072Z" transform="translate(-1826.74 -1797.858)" fill="url(#linear-gradient-6)"/>
        <g id="Grupo_86617" data-name="Grupo 86617">
          <path id="Trazado_140210" data-name="Trazado 140210" d="M1932.977,1798.072l-103.465-.214a2.428,2.428,0,0,0-2.548,2.251l108.709.3A2.543,2.543,0,0,0,1932.977,1798.072Z" transform="translate(-1826.772 -1797.858)" fill="url(#linear-gradient-7)"/>
          <path id="Trazado_140211" data-name="Trazado 140211" d="M1829.237,1821.54l103.7.907a2.517,2.517,0,0,0,2.7-2.322l-108.9-.872A2.4,2.4,0,0,0,1829.237,1821.54Z" transform="translate(-1826.739 -1801.004)" fill="url(#linear-gradient-8)"/>
        </g>
      </g>
      <g id="Grupo_86620" data-name="Grupo 86620" transform="translate(0.298 51.464)">
        <path id="Trazado_140212" data-name="Trazado 140212" d="M1933.088,1828.311h-103.3a2.587,2.587,0,0,0-2.7,2.444v16.475a2.438,2.438,0,0,0,2.6,2.285h103.395a2.531,2.531,0,0,0,2.7-2.285v-16.565A2.583,2.583,0,0,0,1933.088,1828.311Z" transform="translate(-1827.089 -1828.311)" fill="url(#linear-gradient-9)"/>
        <g id="Grupo_86619" data-name="Grupo 86619">
          <path id="Trazado_140213" data-name="Trazado 140213" d="M1933.088,1828.311H1829.693a2.463,2.463,0,0,0-2.6,2.264h108.6A2.463,2.463,0,0,0,1933.088,1828.311Z" transform="translate(-1827.088 -1828.311)" fill="url(#linear-gradient-10)"/>
          <path id="Trazado_140214" data-name="Trazado 140214" d="M1829.693,1852.781h103.395a2.462,2.462,0,0,0,2.6-2.265h-108.6A2.463,2.463,0,0,0,1829.693,1852.781Z" transform="translate(-1827.088 -1831.577)" fill="url(#linear-gradient-11)"/>
        </g>
      </g>
      <g id="Grupo_86622" data-name="Grupo 86622" transform="translate(0.298 77.236)">
        <path id="Trazado_140215" data-name="Trazado 140215" d="M1933.2,1858.932l-103.353-.4a2.6,2.6,0,0,0-2.753,2.421v16.475a2.509,2.509,0,0,0,2.65,2.34l103.4.04a2.445,2.445,0,0,0,2.565-2.3l.046-16.266A2.444,2.444,0,0,0,1933.2,1858.932Z" transform="translate(-1827.089 -1858.527)" fill="url(#linear-gradient-12)"/>
        <g id="Grupo_86621" data-name="Grupo 86621">
          <path id="Trazado_140216" data-name="Trazado 140216" d="M1933.2,1858.932l-103.456-.405a2.5,2.5,0,0,0-2.653,2.332l108.664.383A2.444,2.444,0,0,0,1933.2,1858.932Z" transform="translate(-1827.088 -1858.527)" fill="url(#linear-gradient-13)"/>
          <path id="Trazado_140217" data-name="Trazado 140217" d="M1829.74,1883.021l103.4.04a2.446,2.446,0,0,0,2.566-2.3l-108.617-.084A2.511,2.511,0,0,0,1829.74,1883.021Z" transform="translate(-1827.088 -1861.785)" fill="url(#linear-gradient-14)"/>
        </g>
      </g>
    </g>
    <g id="Grupo_86632" data-name="Grupo 86632" transform="translate(1842.607 1738.234)">
      <g id="Grupo_86627" data-name="Grupo 86627" transform="translate(26.458)">
        <g id="Grupo_86624" data-name="Grupo 86624" opacity="0.3">
          <path id="Trazado_140218" data-name="Trazado 140218" d="M1889.321,1765.87a.7.7,0,0,1-.577-.734c.053-.786.14-1.581.26-2.364a.7.7,0,0,1,.795-.584l.014,0a.7.7,0,0,1,.571.793c-.114.744-.2,1.5-.247,2.246a.7.7,0,0,1-.743.65C1889.369,1765.877,1889.345,1765.874,1889.321,1765.87Zm1.079-5.981a.678.678,0,0,1-.08-.019.7.7,0,0,1-.47-.867c.225-.758.485-1.515.774-2.248a.7.7,0,1,1,1.3.509c-.273.7-.52,1.416-.734,2.137A.7.7,0,0,1,1890.4,1759.89Zm2.37-5.594a.723.723,0,0,1-.224-.08.7.7,0,0,1-.265-.95c.388-.688.81-1.368,1.256-2.021a.7.7,0,0,1,1.152.787c-.424.62-.825,1.265-1.193,1.918A.7.7,0,0,1,1892.77,1754.3Zm3.562-4.925a.7.7,0,0,1-.4-1.157c.532-.584,1.1-1.152,1.676-1.689a.7.7,0,0,1,.947,1.024c-.55.509-1.086,1.049-1.592,1.6A.7.7,0,0,1,1896.332,1749.371Zm4.57-4.007a.7.7,0,0,1-.28-1.26c.647-.45,1.323-.879,2.008-1.275a.7.7,0,0,1,.7,1.209c-.652.375-1.293.784-1.908,1.211A.7.7,0,0,1,1900.9,1745.364Zm5.343-2.9a.7.7,0,0,1-.144-1.334c.732-.3,1.486-.565,2.24-.8a.7.7,0,0,1,.413,1.333c-.717.222-1.433.477-2.128.759A.7.7,0,0,1,1906.244,1742.469Zm25.47,2.717a.684.684,0,0,1-.273-.111c-.62-.421-1.266-.821-1.921-1.19a.7.7,0,0,1,.682-1.216c.69.387,1.371.809,2.023,1.253a.7.7,0,0,1-.512,1.264Zm-19.623-4.356a.7.7,0,0,1,.007-1.377c.78-.126,1.574-.22,2.361-.28a.7.7,0,1,1,.1,1.391c-.748.056-1.5.146-2.242.266A.693.693,0,0,1,1912.092,1740.83Zm14.246,1.525a.716.716,0,0,1-.135-.038c-.7-.273-1.418-.519-2.139-.731a.7.7,0,1,1,.395-1.338c.758.223,1.516.483,2.251.769a.7.7,0,0,1-.372,1.337Zm-8.179-1.817a.7.7,0,0,1,.165-1.383c.787.051,1.583.137,2.364.256l.015,0a.7.7,0,0,1-.223,1.377c-.742-.113-1.5-.195-2.246-.243A.661.661,0,0,1,1918.159,1740.538Z" transform="translate(-1888.743 -1739.153)" fill="url(#linear-gradient-15)"/>
          <path id="Trazado_140219" data-name="Trazado 140219" d="M1943.32,1749.5a.69.69,0,0,1-.37-.19c-.256-.252-.521-.5-.789-.748a.7.7,0,0,1,.939-1.032c.281.257.56.521.83.786a.7.7,0,0,1-.61,1.184Z" transform="translate(-1896.565 -1740.359)" fill="url(#linear-gradient-16)"/>
        </g>
        <g id="Grupo_86625" data-name="Grupo 86625" transform="translate(7.168 26.307)" opacity="0.3">
          <path id="Trazado_140220" data-name="Trazado 140220" d="M1952.956,1772.5a.7.7,0,0,1-.577-.7c0-.36,0-.726-.009-1.088a.7.7,0,1,1,1.395-.04c.011.381.015.766.009,1.145a.7.7,0,0,1-.706.689A.786.786,0,0,1,1952.956,1772.5Z" transform="translate(-1905.268 -1769.997)" fill="url(#linear-gradient-17)"/>
          <path id="Trazado_140221" data-name="Trazado 140221" d="M1913.685,1799.789c-.316-.055-.633-.115-.949-.181a.7.7,0,0,1,.284-1.366c.731.152,1.466.274,2.195.363a.7.7,0,0,1-.171,1.385C1914.593,1799.935,1914.136,1799.866,1913.685,1799.789Zm-4.5-1.175a.8.8,0,0,1-.114-.03c-.734-.26-1.464-.554-2.172-.874a.7.7,0,0,1,.575-1.272c.672.3,1.366.583,2.063.83a.7.7,0,0,1-.351,1.345Zm9.521,1.569a.7.7,0,0,1,.109-1.385c.737-.011,1.483-.054,2.219-.127a.7.7,0,1,1,.138,1.389c-.774.077-1.561.122-2.337.133A.666.666,0,0,1,1918.71,1800.183Zm-14.9-4.175a.68.68,0,0,1-.253-.1c-.658-.414-1.306-.862-1.927-1.33a.7.7,0,0,1,.841-1.113c.589.444,1.2.869,1.83,1.262a.7.7,0,0,1-.491,1.278Zm20.834,3.426a.7.7,0,0,1-.045-1.366c.716-.172,1.435-.378,2.137-.612a.7.7,0,0,1,.44,1.324c-.739.246-1.5.462-2.25.645A.7.7,0,0,1,1924.639,1799.433Zm5.621-2.033a.7.7,0,0,1-.189-1.313c.663-.326,1.32-.684,1.953-1.064a.7.7,0,0,1,.718,1.2c-.666.4-1.357.776-2.055,1.119A.7.7,0,0,1,1930.26,1797.4Zm5.044-3.21a.7.7,0,0,1-.317-1.231c.577-.463,1.14-.955,1.674-1.463a.7.7,0,1,1,.961,1.01c-.563.535-1.156,1.053-1.762,1.541A.7.7,0,0,1,1935.3,1794.189Zm4.224-4.233a.7.7,0,0,1-.426-1.123c.461-.578.9-1.181,1.313-1.794a.7.7,0,1,1,1.16.774c-.432.646-.9,1.282-1.383,1.89A.7.7,0,0,1,1939.528,1789.956Zm3.193-5.06a.724.724,0,0,1-.186-.061.7.7,0,0,1-.323-.931c.322-.664.619-1.349.885-2.04a.7.7,0,0,1,1.3.5c-.28.726-.593,1.447-.931,2.146A.7.7,0,0,1,1942.721,1784.9Zm2-5.634-.043-.009a.7.7,0,0,1-.519-.838c.125-.53.235-1.069.328-1.6.033-.194.064-.387.094-.581a.7.7,0,0,1,.793-.586.69.69,0,0,1,.586.793c-.031.2-.063.407-.1.611-.1.563-.213,1.13-.344,1.687A.7.7,0,0,1,1944.723,1779.263Z" transform="translate(-1897.765 -1770.826)" fill="url(#linear-gradient-18)"/>
          <path id="Trazado_140222" data-name="Trazado 140222" d="M1898.5,1794.759a.7.7,0,0,1-.373-.194c-.268-.266-.535-.544-.793-.824a.7.7,0,0,1,1.024-.947c.247.266.5.53.753.783a.7.7,0,0,1-.612,1.181Z" transform="translate(-1897.147 -1773.316)" fill="url(#linear-gradient-19)"/>
        </g>
        <g id="Grupo_86626" data-name="Grupo 86626" transform="translate(7.081 6.821)">
          <path id="Trazado_140223" data-name="Trazado 140223" d="M1900.789,1780.266a.326.326,0,0,0,.342.161l3.9-.716a17.309,17.309,0,0,0,4.406,3.457l.238,3.958a.327.327,0,0,0,.238.3l4.585,1.279a.327.327,0,0,0,.356-.129l2.253-3.263a17.308,17.308,0,0,0,5.56-.676l2.969,2.632a.325.325,0,0,0,.376.04l4.146-2.337a.327.327,0,0,0,.161-.343l-.716-3.9a17.282,17.282,0,0,0,3.457-4.406l3.958-.237a.327.327,0,0,0,.3-.238l1.279-4.584a.326.326,0,0,0-.129-.356l-3.263-2.252a17.311,17.311,0,0,0-.675-5.56l2.632-2.969a.325.325,0,0,0,.04-.376l-2.337-4.146a.326.326,0,0,0-.343-.161l-3.9.716a17.288,17.288,0,0,0-4.406-3.457l-.237-3.958a.327.327,0,0,0-.238-.294l-4.585-1.28a.326.326,0,0,0-.356.129l-2.253,3.263a17.294,17.294,0,0,0-5.559.676l-2.969-2.633a.326.326,0,0,0-.376-.04l-4.146,2.338a.326.326,0,0,0-.161.342l.716,3.9a17.31,17.31,0,0,0-3.457,4.406l-3.958.238a.327.327,0,0,0-.294.238l-1.279,4.585a.326.326,0,0,0,.129.356l3.263,2.253a17.29,17.29,0,0,0,.676,5.559l-2.632,2.969a.325.325,0,0,0-.041.376Z" transform="translate(-1897.045 -1747.151)" fill="url(#linear-gradient-20)"/>
          <path id="Trazado_140224" data-name="Trazado 140224" d="M1919.766,1775.4a4.788,4.788,0,1,1,.7.068A4.842,4.842,0,0,1,1919.766,1775.4Zm1.451-8.328a3.826,3.826,0,0,0-.542-.054,3.664,3.664,0,1,0,.542.054Z" transform="translate(-1899.803 -1749.909)" fill="#fff"/>
          <path id="Trazado_140225" data-name="Trazado 140225" d="M1917.5,1781.017a11.987,11.987,0,0,1-1.18-.266h0c-.123-.034-.246-.071-.368-.109a11.735,11.735,0,0,1-1.747-.705l-.023-.011-.065-.033-.125-.065a.28.28,0,0,1-.146-.294.281.281,0,0,1,.405-.2,11.219,11.219,0,0,0,12.724-1.586,11.142,11.142,0,0,0,3.3-5.316,11.426,11.426,0,0,0,.253-1.125,11.206,11.206,0,0,0-21.84-4.9c-.1.367-.186.738-.251,1.111a11.171,11.171,0,0,0,.234,4.858.278.278,0,0,1-.2.343.278.278,0,0,1-.343-.2,11.723,11.723,0,0,1-.245-5.1q.1-.587.262-1.166a11.765,11.765,0,0,1,22.929,5.143,12.018,12.018,0,0,1-.266,1.181,11.768,11.768,0,0,1-13.314,8.436Z" transform="translate(-1898.614 -1748.696)" fill="#fff"/>
        </g>
      </g>
      <g id="Grupo_86631" data-name="Grupo 86631" transform="translate(0 19.667)">
        <g id="Grupo_86628" data-name="Grupo 86628" opacity="0.3">
          <path id="Trazado_140226" data-name="Trazado 140226" d="M1858.171,1786.627a.431.431,0,0,1-.354-.376c-.042-.363-.073-.733-.093-1.1a.431.431,0,0,1,.861-.046c.019.348.049.7.089,1.047a.432.432,0,0,1-.38.477A.452.452,0,0,1,1858.171,1786.627Z" transform="translate(-1857.723 -1765.518)" fill="url(#linear-gradient-21)"/>
          <path id="Trazado_140227" data-name="Trazado 140227" d="M1858.1,1780.007a.431.431,0,0,1-.356-.455,18.6,18.6,0,0,1,.228-1.882c.022-.131.047-.261.072-.392a.447.447,0,0,1,.506-.341.432.432,0,0,1,.34.506c-.024.125-.047.25-.069.375a17.889,17.889,0,0,0-.217,1.795.431.431,0,0,1-.46.4A.372.372,0,0,1,1858.1,1780.007Zm.855-4.391a.542.542,0,0,1-.06-.014.432.432,0,0,1-.276-.543,18.584,18.584,0,0,1,.841-2.133.431.431,0,0,1,.781.364,17.778,17.778,0,0,0-.8,2.035A.431.431,0,0,1,1858.955,1775.616Zm1.894-4.052a.459.459,0,0,1-.156-.06.431.431,0,0,1-.135-.594,18.522,18.522,0,0,1,1.34-1.863.431.431,0,0,1,.667.546,17.731,17.731,0,0,0-1.278,1.776A.434.434,0,0,1,1860.849,1771.563Zm2.833-3.463a.431.431,0,0,1-.224-.737,18.716,18.716,0,0,1,1.755-1.477.431.431,0,0,1,.513.693,17.936,17.936,0,0,0-1.674,1.409A.429.429,0,0,1,1863.682,1768.1Zm3.593-2.666a.431.431,0,0,1-.139-.8,18.739,18.739,0,0,1,2.06-1.007.431.431,0,0,1,.33.8,18,18,0,0,0-1.965.96A.43.43,0,0,1,1867.274,1765.434Zm4.131-1.713a.431.431,0,0,1-.042-.84,18.6,18.6,0,0,1,2.242-.473.431.431,0,0,1,.125.853,17.846,17.846,0,0,0-2.138.451A.423.423,0,0,1,1871.405,1763.721Zm4.422-.651a.431.431,0,0,1,.064-.855,18.8,18.8,0,0,1,2.292.091.431.431,0,0,1-.087.858,17.7,17.7,0,0,0-2.186-.088A.419.419,0,0,1,1875.828,1763.071Zm6.6,1.086a.483.483,0,0,1-.073-.02,17.951,17.951,0,0,0-1.821-.55c-.094-.023-.186-.045-.278-.066a.431.431,0,0,1,.191-.841l.293.07a18.858,18.858,0,0,1,1.908.577.431.431,0,0,1-.22.83Z" transform="translate(-1857.726 -1762.211)" fill="url(#linear-gradient-22)"/>
        </g>
        <g id="Grupo_86629" data-name="Grupo 86629" transform="translate(4.809 28.986)" opacity="0.3">
          <path id="Trazado_140228" data-name="Trazado 140228" d="M1874.639,1804.2a.431.431,0,0,1,.142-.85,17.689,17.689,0,0,0,2.141.211.431.431,0,1,1-.032.861,18.731,18.731,0,0,1-2.244-.22Zm-2.152-.478-.045-.01a18.923,18.923,0,0,1-2.129-.748.431.431,0,0,1,.334-.795,18.131,18.131,0,0,0,2.031.715.431.431,0,0,1-.191.838Zm6.548.64a.431.431,0,0,1,.037-.854,17.8,17.8,0,0,0,2.129-.314.431.431,0,0,1,.177.844,18.878,18.878,0,0,1-2.231.329A.489.489,0,0,1,1879.036,1804.361Zm-10.6-2.349a.442.442,0,0,1-.142-.051,18.406,18.406,0,0,1-1.885-1.241.431.431,0,1,1,.516-.689,17.706,17.706,0,0,0,1.8,1.183.431.431,0,0,1-.287.8Zm14.908,1.444a.431.431,0,0,1-.067-.832,17.663,17.663,0,0,0,1.991-.817.431.431,0,0,1,.374.776,18.644,18.644,0,0,1-2.087.856A.428.428,0,0,1,1883.34,1803.456Zm3.962-1.911a.431.431,0,0,1-.159-.787,18.092,18.092,0,0,0,1.738-1.269.431.431,0,0,1,.549.663,19.027,19.027,0,0,1-1.822,1.331A.434.434,0,0,1,1887.3,1801.544Zm3.391-2.806a.425.425,0,0,1-.223-.112.431.431,0,0,1-.017-.609,17.554,17.554,0,0,0,1.383-1.65.431.431,0,0,1,.693.513,18.664,18.664,0,0,1-1.45,1.73A.43.43,0,0,1,1890.693,1798.738Z" transform="translate(-1863.784 -1796.194)" fill="url(#linear-gradient-23)"/>
          <path id="Trazado_140229" data-name="Trazado 140229" d="M1864.472,1799.624a.432.432,0,0,1-.225-.114c-.266-.256-.525-.52-.771-.787a.431.431,0,1,1,.633-.584c.234.254.482.507.736.751a.431.431,0,0,1-.373.734Z" transform="translate(-1863.362 -1796.46)" fill="url(#linear-gradient-24)"/>
        </g>
        <g id="Grupo_86630" data-name="Grupo 86630" transform="translate(4.716 4.567)">
          <path id="Trazado_140230" data-name="Trazado 140230" d="M1865.757,1789.725a.219.219,0,0,0,.229.108l2.612-.479a11.593,11.593,0,0,0,2.949,2.313l.159,2.648a.219.219,0,0,0,.16.2l3.067.856a.22.22,0,0,0,.239-.086l1.507-2.184a11.544,11.544,0,0,0,3.72-.452l1.987,1.762a.218.218,0,0,0,.252.026l2.775-1.563a.218.218,0,0,0,.107-.229l-.479-2.612a11.6,11.6,0,0,0,2.313-2.949l2.648-.159a.219.219,0,0,0,.2-.16l.856-3.067a.219.219,0,0,0-.086-.239l-2.184-1.507a11.561,11.561,0,0,0-.451-3.72l1.761-1.987a.219.219,0,0,0,.027-.252l-1.564-2.775a.218.218,0,0,0-.229-.107l-2.612.478a11.584,11.584,0,0,0-2.948-2.313l-.159-2.648a.219.219,0,0,0-.16-.2l-3.067-.856a.219.219,0,0,0-.239.086l-1.507,2.184a11.568,11.568,0,0,0-3.72.451l-1.986-1.761a.217.217,0,0,0-.252-.026l-2.775,1.563a.218.218,0,0,0-.108.229l.479,2.612a11.575,11.575,0,0,0-2.312,2.949l-2.649.159a.218.218,0,0,0-.2.159l-.856,3.067a.22.22,0,0,0,.086.239l2.184,1.507a11.54,11.54,0,0,0,.452,3.72l-1.762,1.987a.217.217,0,0,0-.026.251Z" transform="translate(-1863.252 -1767.566)" fill="url(#linear-gradient-25)"/>
          <path id="Trazado_140231" data-name="Trazado 140231" d="M1878.431,1786.518a3.262,3.262,0,1,1,.481.048A3.343,3.343,0,0,1,1878.431,1786.518Zm.972-5.573a2.492,2.492,0,0,0-.35-.034,2.4,2.4,0,0,0-.119,4.793h0a2.4,2.4,0,0,0,.469-4.759Z" transform="translate(-1865.088 -1769.401)" fill="#fff"/>
          <path id="Trazado_140232" data-name="Trazado 140232" d="M1876.845,1790.423a8.234,8.234,0,0,1-.805-.181,8.114,8.114,0,0,1-1.54-.6l-.066-.034a.43.43,0,0,1-.224-.454.446.446,0,0,1,.043-.128.432.432,0,0,1,.582-.181,7.261,7.261,0,0,0,1.435.57h0l.083.022a7.181,7.181,0,0,0,3.552.05,7.286,7.286,0,0,0,1.821-.708l.014-.008.044-.024a7.209,7.209,0,0,0,3.425-4.37,7.312,7.312,0,0,0,.164-.728,7.255,7.255,0,1,0-14.149.693.423.423,0,0,1,.009.187.431.431,0,0,1-.84.041,8.117,8.117,0,1,1,15.831-.775q-.07.408-.183.814A8.128,8.128,0,0,1,1876.845,1790.423Z" transform="translate(-1864.259 -1768.557)" fill="#fff"/>
        </g>
      </g>
    </g>
    <g id="Grupo_86636" data-name="Grupo 86636" transform="translate(1755.106 1800.639)">
      <path id="Trazado_140233" data-name="Trazado 140233" d="M1766.777,1891.206a2.328,2.328,0,0,0,2.322,2.319h125.522a2.327,2.327,0,0,0,2.321-2.319l1.045-72.134a4.043,4.043,0,0,0-4.257-3.579l-122.674-3.174a5.849,5.849,0,0,0-6,5.983Z" transform="translate(-1756.595 -1812.318)" fill="url(#linear-gradient-26)"/>
      <path id="Trazado_140234" data-name="Trazado 140234" d="M1769.46,1889.455a2.2,2.2,0,0,0,2.2,2.2h120.328a2.2,2.2,0,0,0,2.2-2.2l.985-65.483a5.405,5.405,0,0,0-5.665-5.274l-117.572-3.154a4.111,4.111,0,0,0-4.218,4.207Z" transform="translate(-1756.985 -1812.792)" fill="url(#linear-gradient-27)"/>
      <g id="Grupo_86633" data-name="Grupo 86633" transform="translate(93.524 6.147)">
        <path id="Trazado_140235" data-name="Trazado 140235" d="M1914.406,1864.7h-.005a.321.321,0,0,1-.316-.327l.078-5.31a.321.321,0,0,1,.322-.317h.005a.321.321,0,0,1,.316.327l-.078,5.31A.321.321,0,0,1,1914.406,1864.7Z" transform="translate(-1872.036 -1825.292)" fill="#fff"/>
        <path id="Trazado_140236" data-name="Trazado 140236" d="M1907.348,1845.918h0a.322.322,0,0,1-.317-.327l.3-20.34a3.822,3.822,0,0,0-1.09-2.861,5.375,5.375,0,0,0-3.557-1.214l-37.579-1.008a.322.322,0,0,1-.313-.33.309.309,0,0,1,.33-.313l37.557,1.008a5.9,5.9,0,0,1,4.007,1.392,4.439,4.439,0,0,1,1.288,3.328l-.3,20.347A.322.322,0,0,1,1907.348,1845.918Z" transform="translate(-1864.786 -1819.524)" fill="#fff"/>
      </g>
      <rect id="Rectángulo_16149" data-name="Rectángulo 16149" width="147.985" height="6.338" rx="3.169" transform="translate(147.985 87.195) rotate(-180)" fill="url(#linear-gradient-28)"/>
      <g id="Grupo_86634" data-name="Grupo 86634" transform="translate(22.237 7.559)" opacity="0.52">
        <rect id="Rectángulo_16150" data-name="Rectángulo 16150" width="2.662" height="38.856" transform="translate(0.184 20.45) rotate(-89.998)" fill="#fff"/>
        <rect id="Rectángulo_16151" data-name="Rectángulo 16151" width="2.662" height="38.856" transform="matrix(0, -1, 1, 0, 0.001, 2.661)" fill="#fff"/>
        <rect id="Rectángulo_16152" data-name="Rectángulo 16152" width="2.661" height="28.018" transform="translate(10.956 7.215) rotate(-89.998)" fill="#fff"/>
        <rect id="Rectángulo_16153" data-name="Rectángulo 16153" width="2.661" height="4.032" transform="translate(5.025 7.003) rotate(-89.998)" fill="#fff"/>
        <rect id="Rectángulo_16154" data-name="Rectángulo 16154" width="2.661" height="28.018" transform="translate(10.928 11.664) rotate(-89.998)" fill="#fff"/>
        <rect id="Rectángulo_16155" data-name="Rectángulo 16155" width="2.661" height="4.032" transform="translate(5.005 11.452) rotate(-89.998)" fill="#fff"/>
        <rect id="Rectángulo_16156" data-name="Rectángulo 16156" width="2.661" height="28.018" transform="translate(10.825 16.106) rotate(-89.998)" fill="#fff"/>
        <rect id="Rectángulo_16157" data-name="Rectángulo 16157" width="2.661" height="4.032" transform="translate(4.766 15.893) rotate(-89.998)" fill="#fff"/>
        <rect id="Rectángulo_16158" data-name="Rectángulo 16158" width="2.662" height="38.856" transform="matrix(0, -1, 1, 0, 0, 38.97)" fill="#fff"/>
        <rect id="Rectángulo_16159" data-name="Rectángulo 16159" width="2.661" height="28.018" transform="translate(10.772 25.736) rotate(-89.998)" fill="#fff"/>
        <rect id="Rectángulo_16160" data-name="Rectángulo 16160" width="2.661" height="4.032" transform="translate(4.841 25.523) rotate(-89.998)" fill="#fff"/>
        <rect id="Rectángulo_16161" data-name="Rectángulo 16161" width="2.661" height="28.018" transform="translate(10.744 30.185) rotate(-89.998)" fill="#fff"/>
        <rect id="Rectángulo_16162" data-name="Rectángulo 16162" width="2.661" height="4.032" transform="translate(4.821 29.972) rotate(-89.998)" fill="#fff"/>
        <rect id="Rectángulo_16163" data-name="Rectángulo 16163" width="2.661" height="28.018" transform="translate(10.641 34.626) rotate(-89.998)" fill="#fff"/>
        <rect id="Rectángulo_16164" data-name="Rectángulo 16164" width="2.661" height="4.032" transform="translate(4.582 34.414) rotate(-89.998)" fill="#fff"/>
        <rect id="Rectángulo_16165" data-name="Rectángulo 16165" width="2.662" height="38.856" transform="translate(0 57.467) rotate(-89.998)" fill="#fff"/>
        <rect id="Rectángulo_16166" data-name="Rectángulo 16166" width="2.661" height="28.018" transform="translate(10.772 44.232) rotate(-89.998)" fill="#fff"/>
        <rect id="Rectángulo_16167" data-name="Rectángulo 16167" width="2.661" height="4.032" transform="translate(4.841 44.02) rotate(-89.998)" fill="#fff"/>
        <rect id="Rectángulo_16168" data-name="Rectángulo 16168" width="2.661" height="28.018" transform="translate(10.744 48.681) rotate(-89.998)" fill="#fff"/>
        <rect id="Rectángulo_16169" data-name="Rectángulo 16169" width="2.661" height="4.032" transform="translate(4.821 48.469) rotate(-89.998)" fill="#fff"/>
        <rect id="Rectángulo_16170" data-name="Rectángulo 16170" width="2.661" height="28.018" transform="translate(10.641 53.123) rotate(-89.998)" fill="#fff"/>
        <rect id="Rectángulo_16171" data-name="Rectángulo 16171" width="2.661" height="4.032" transform="translate(4.582 52.91) rotate(-89.998)" fill="#fff"/>
        <rect id="Rectángulo_16172" data-name="Rectángulo 16172" width="2.661" height="28.018" transform="translate(10.956 62.292) rotate(-89.998)" fill="#fff"/>
        <rect id="Rectángulo_16173" data-name="Rectángulo 16173" width="2.661" height="4.032" transform="translate(5.025 62.079) rotate(-89.998)" fill="#fff"/>
        <rect id="Rectángulo_16174" data-name="Rectángulo 16174" width="2.661" height="28.018" transform="translate(10.734 66.741) rotate(-89.998)" fill="#fff"/>
        <rect id="Rectángulo_16175" data-name="Rectángulo 16175" width="2.661" height="4.032" transform="translate(4.812 66.528) rotate(-89.998)" fill="#fff"/>
      </g>
      <g id="Grupo_86635" data-name="Grupo 86635" transform="translate(68.499 8.89)" opacity="0.52">
        <rect id="Rectángulo_16176" data-name="Rectángulo 16176" width="2.698" height="27.969" transform="translate(22.305 52.283) rotate(-89.997)" fill="#fff"/>
        <rect id="Rectángulo_16177" data-name="Rectángulo 16177" width="2.698" height="45.378" transform="translate(10.928 47.775) rotate(-89.997)" fill="#fff"/>
        <rect id="Rectángulo_16178" data-name="Rectángulo 16178" width="2.698" height="36.374" transform="translate(25.44 43.272) rotate(-89.997)" fill="#fff"/>
        <rect id="Rectángulo_16179" data-name="Rectángulo 16179" width="2.698" height="20.742" transform="translate(25.44 38.766) rotate(-89.997)" fill="#fff"/>
        <rect id="Rectángulo_16180" data-name="Rectángulo 16180" width="2.698" height="36.329" transform="translate(25.922 34.253) rotate(-89.997)" fill="#fff"/>
        <rect id="Rectángulo_16181" data-name="Rectángulo 16181" width="2.698" height="30.699" transform="translate(22.67 29.75) rotate(-89.998)" fill="#fff"/>
        <rect id="Rectángulo_16182" data-name="Rectángulo 16182" width="2.698" height="32.777" transform="translate(10.929 25.235) rotate(-89.997)" fill="#fff"/>
        <rect id="Rectángulo_16183" data-name="Rectángulo 16183" width="2.698" height="37.396" transform="translate(25.56 20.729) rotate(-89.997)" fill="#fff"/>
        <rect id="Rectángulo_16184" data-name="Rectángulo 16184" width="2.698" height="37.859" transform="translate(25.56 16.222) rotate(-89.997)" fill="#fff"/>
        <rect id="Rectángulo_16185" data-name="Rectángulo 16185" width="2.698" height="37.296" transform="translate(25.922 11.714) rotate(-89.997)" fill="#fff"/>
        <rect id="Rectángulo_16186" data-name="Rectángulo 16186" width="2.698" height="30.554" transform="translate(19.17 7.206) rotate(-89.997)" fill="#fff"/>
        <rect id="Rectángulo_16187" data-name="Rectángulo 16187" width="2.698" height="7.923" transform="translate(0 20.616) rotate(-89.997)" fill="#fff"/>
        <rect id="Rectángulo_16188" data-name="Rectángulo 16188" width="2.698" height="7.923" transform="translate(0 25.253) rotate(-89.997)" fill="#fff"/>
        <rect id="Rectángulo_16189" data-name="Rectángulo 16189" width="2.698" height="7.923" transform="translate(0 29.7) rotate(-89.997)" fill="#fff"/>
        <rect id="Rectángulo_16190" data-name="Rectángulo 16190" width="2.698" height="7.923" transform="translate(0 34.224) rotate(-89.997)" fill="#fff"/>
        <rect id="Rectángulo_16191" data-name="Rectángulo 16191" width="2.698" height="7.923" transform="translate(0 38.861) rotate(-89.997)" fill="#fff"/>
        <rect id="Rectángulo_16192" data-name="Rectángulo 16192" width="2.698" height="7.923" transform="translate(0 43.308) rotate(-89.997)" fill="#fff"/>
        <rect id="Rectángulo_16193" data-name="Rectángulo 16193" width="2.698" height="7.923" transform="translate(0.402 47.741) rotate(-89.997)" fill="#fff"/>
        <rect id="Rectángulo_16194" data-name="Rectángulo 16194" width="2.698" height="7.923" transform="translate(0.402 52.377) rotate(-89.997)" fill="#fff"/>
        <rect id="Rectángulo_16195" data-name="Rectángulo 16195" width="2.698" height="7.923" transform="translate(0.402 56.824) rotate(-89.997)" fill="#fff"/>
        <rect id="Rectángulo_16196" data-name="Rectángulo 16196" width="2.698" height="7.923" transform="translate(0.402 61.361) rotate(-89.997)" fill="#fff"/>
        <rect id="Rectángulo_16197" data-name="Rectángulo 16197" width="2.698" height="7.923" transform="translate(0.402 65.998) rotate(-89.997)" fill="#fff"/>
        <rect id="Rectángulo_16198" data-name="Rectángulo 16198" width="2.698" height="7.923" transform="translate(0 16.221) rotate(-89.997)" fill="#fff"/>
        <rect id="Rectángulo_16199" data-name="Rectángulo 16199" width="2.698" height="7.923" transform="translate(0 11.716) rotate(-89.997)" fill="#fff"/>
        <rect id="Rectángulo_16200" data-name="Rectángulo 16200" width="2.698" height="7.923" transform="translate(0 7.206) rotate(-89.997)" fill="#fff"/>
        <rect id="Rectángulo_16201" data-name="Rectángulo 16201" width="2.698" height="7.923" transform="translate(0 2.699) rotate(-89.997)" fill="#fff"/>
        <path id="Trazado_140237" data-name="Trazado 140237" d="M1848.261,1822.741v2.7h37.994a2.716,2.716,0,0,0-2.734-2.7Z" transform="translate(-1837.331 -1822.741)" fill="#fff"/>
        <rect id="Rectángulo_16202" data-name="Rectángulo 16202" width="2.698" height="38.314" transform="translate(25.802 66.174) rotate(-89.997)" fill="#fff"/>
        <rect id="Rectángulo_16203" data-name="Rectángulo 16203" width="2.698" height="37.618" transform="translate(25.802 61.529) rotate(-89.997)" fill="#fff"/>
        <path id="Trazado_140238" data-name="Trazado 140238" d="M1865.7,1886.517v2.7h23.922c0-1.49-.77-2.7-1.721-2.7Z" transform="translate(-1839.895 -1832.12)" fill="#fff"/>
      </g>
      <rect id="Rectángulo_16204" data-name="Rectángulo 16204" width="0.775" height="69.835" rx="0.387" transform="translate(64.501 7.042)" fill="#fff" opacity="0.53"/>
    </g>
    <g id="Grupo_86637" data-name="Grupo 86637" transform="translate(1811.357 1774.833)">
      <path id="Trazado_140239" data-name="Trazado 140239" d="M1894.943,1863.219,1942.536,1914a5.007,5.007,0,0,1-.524,7.333l-.374.3a4.654,4.654,0,0,1-6.562-.747l-43.381-54.9Z" transform="translate(-1831.469 -1793.998)" fill="url(#linear-gradient-29)"/>
      <ellipse id="Elipse_4465" data-name="Elipse 4465" cx="31.702" cy="32.284" rx="31.702" ry="32.284" transform="matrix(0.452, -0.892, 0.892, 0.452, 0, 56.565)" fill="#fff" opacity="0.5"/>
      <path id="Trazado_140240" data-name="Trazado 140240" d="M1833.423,1809.986c-8.8,17.381-1.587,38.737,16.113,47.7s39.184,2.139,47.985-15.242,1.587-38.736-16.113-47.7S1842.225,1792.605,1833.423,1809.986Zm4.708,2.384c7.508-14.828,25.836-20.65,40.936-13s21.254,25.865,13.746,40.693-25.835,20.65-40.936,13S1830.623,1827.2,1838.131,1812.37Z" transform="translate(-1822.348 -1783.347)" fill="url(#linear-gradient-30)"/>
      <path id="Trazado_140241" data-name="Trazado 140241" d="M1898.72,1845.373a.092.092,0,0,1-.025-.128c.467-.689.914-1.407,1.328-2.133a.092.092,0,0,1,.16.091c-.416.73-.866,1.452-1.336,2.145a.093.093,0,0,1-.089.04A.086.086,0,0,1,1898.72,1845.373Zm4.261-8.9a.093.093,0,0,1-.061-.115,32.146,32.146,0,0,0,1.254-6.723,32.852,32.852,0,0,0-4.113-18.6,33.9,33.9,0,0,0-32.534-17.165.092.092,0,1,1-.017-.183,34.084,34.084,0,0,1,32.712,17.258,33.041,33.041,0,0,1,4.136,18.708,32.341,32.341,0,0,1-1.262,6.761.091.091,0,0,1-.1.065Z" transform="translate(-1827.901 -1783.751)" fill="#fff"/>
      <path id="Trazado_140242" data-name="Trazado 140242" d="M1945.223,1928.818c2.049.265,3.468-.278,4.219-1.615a3.741,3.741,0,0,0-.551-4.318l-5.623-6.279a.092.092,0,0,0-.137.123l5.623,6.279a3.559,3.559,0,0,1,.528,4.105c-.719,1.278-2.091,1.789-4.1,1.514h0a.092.092,0,1,0-.024.183Z" transform="translate(-1839.031 -1801.844)" fill="#fff"/>
      <path id="Trazado_140243" data-name="Trazado 140243" d="M1941.032,1914.35a.092.092,0,0,0,.08-.153l-.728-.814a.091.091,0,0,0-.13-.008.092.092,0,0,0-.008.13l.729.814A.092.092,0,0,0,1941.032,1914.35Z" transform="translate(-1838.606 -1801.37)" fill="#fff"/>
    </g>
    <g id="Grupo_86638" data-name="Grupo 86638" transform="translate(1757.728 1749.242)">
      <path id="Trazado_140244" data-name="Trazado 140244" d="M1816.57,1771.119a.469.469,0,0,1-.455-.463c-.046-2.59-.844-15.455-12.035-18.144-12.459-2.993-18.16,9.834-18.16,9.834s-15.415-5.987-18.372,10.048c-9.666,2.348-12.177,15.129-5.89,21.373a5.372,5.372,0,0,0,3.738,1.566l60.531.552a3.992,3.992,0,0,0,3.857-2.885C1831.673,1786.537,1834.151,1771.536,1816.57,1771.119Z" transform="translate(-1758.21 -1752.059)" fill="url(#linear-gradient-31)"/>
      <path id="Trazado_140245" data-name="Trazado 140245" d="M1815.491,1771.658a.468.468,0,0,1-.455-.461c-.05-2.485-.84-14.415-11.38-16.915-11.781-2.8-17.171,9.184-17.171,9.184s-14.577-5.59-17.372,9.383c-9.051,2.172-11.468,13.9-5.738,19.789a5.37,5.37,0,0,0,3.8,1.633l56.982.513a3.991,3.991,0,0,0,3.859-2.9C1829.8,1785.751,1831.906,1772.056,1815.491,1771.658Z" transform="translate(-1758.515 -1752.324)" fill="url(#linear-gradient-32)"/>
    </g>
    <g id="Grupo_86648" data-name="Grupo 86648" transform="translate(1754.932 1822.099)">
      <g id="Grupo_86639" data-name="Grupo 86639" transform="translate(0 51.485)">
        <path id="Trazado_140246" data-name="Trazado 140246" d="M1758.08,1902.305c-.518.765-2.572,18.086-2.894,24.484a.757.757,0,0,0,.757.793h0a.757.757,0,0,0,.749-.641l3.759-24.085Z" transform="translate(-1754.969 -1898.496)" fill="url(#linear-gradient-33)"/>
        <path id="Trazado_140247" data-name="Trazado 140247" d="M1777.539,1902.305c.517.765,2.572,18.086,2.893,24.484a.756.756,0,0,1-.757.793h0a.758.758,0,0,1-.749-.641l-3.759-24.085Z" transform="translate(-1757.908 -1898.496)" fill="url(#linear-gradient-34)"/>
        <path id="Trazado_140248" data-name="Trazado 140248" d="M1754.934,1900.3l0,.189a2.576,2.576,0,0,0,2.625,2.5l17.372.3a2.6,2.6,0,0,0,2.719-2.358l.009-.172a2.565,2.565,0,0,0-2.618-2.6l-17.38-.311A2.587,2.587,0,0,0,1754.934,1900.3Z" transform="translate(-1754.932 -1897.839)" fill="url(#linear-gradient-35)"/>
      </g>
      <g id="Grupo_86643" data-name="Grupo 86643" transform="translate(2.36)">
        <g id="Grupo_86640" data-name="Grupo 86640" transform="translate(26.341 75.993)">
          <path id="Trazado_140249" data-name="Trazado 140249" d="M1793.685,1930.186a15.567,15.567,0,0,1-5.066-.507,1.172,1.172,0,0,0,1.141.908h10.924a.532.532,0,0,0,.513-.671C1799.952,1930.015,1797.307,1930.186,1793.685,1930.186Z" transform="translate(-1788.587 -1927.03)" fill="url(#linear-gradient-36)"/>
          <path id="Trazado_140250" data-name="Trazado 140250" d="M1801.192,1929.459a.514.514,0,0,0-.09-.186,6.3,6.3,0,0,0-4.778-2.7c-3.332.047-4.492.408-7.082.02l-.611,2.025a1.157,1.157,0,0,0-.018.6,15.566,15.566,0,0,0,5.066.507C1797.3,1929.729,1799.947,1929.558,1801.192,1929.459Z" transform="translate(-1788.582 -1926.573)" fill="url(#linear-gradient-37)"/>
        </g>
        <path id="Trazado_140251" data-name="Trazado 140251" d="M1790.106,1924.04l-.75,2.549a4.412,4.412,0,0,0,3.122.149l.287-2.209Z" transform="translate(-1762.354 -1850.208)" fill="url(#linear-gradient-38)"/>
        <g id="Grupo_86641" data-name="Grupo 86641" transform="translate(44.982 72.307)">
          <path id="Trazado_140252" data-name="Trazado 140252" d="M1816.048,1927.542a15.645,15.645,0,0,1-4.265,2.78,1.17,1.17,0,0,0,1.455-.01l8.517-6.843a.53.53,0,0,0-.019-.842C1820.828,1923.485,1818.872,1925.274,1816.048,1927.542Z" transform="translate(-1810.635 -1922.307)" fill="url(#linear-gradient-39)"/>
          <path id="Trazado_140253" data-name="Trazado 140253" d="M1821.538,1922.572a.508.508,0,0,0-.186-.088,6.3,6.3,0,0,0-5.407.9c-2.568,2.124-3.248,3.131-5.508,4.451l.786,1.953a1.146,1.146,0,0,0,.362.48,15.638,15.638,0,0,0,4.265-2.78C1818.674,1925.219,1820.63,1923.43,1821.538,1922.572Z" transform="translate(-1810.437 -1922.252)" fill="url(#linear-gradient-40)"/>
        </g>
        <path id="Trazado_140254" data-name="Trazado 140254" d="M1770.82,1889.982s18.488,1.51,22.281,3.3-3.1,26.809-3.1,26.809-1.032.5-3.33-.217c0,0,2.356-18.467.6-22.472l-20.019-3.274Z" transform="translate(-1759.105 -1845.199)" fill="url(#linear-gradient-41)"/>
        <path id="Trazado_140255" data-name="Trazado 140255" d="M1808.283,1924.487c.172.157,1.837,3.515,1.837,3.515s1.854-.4,2.232-1.574l-1.668-3.032Z" transform="translate(-1765.138 -1850.113)" fill="url(#linear-gradient-42)"/>
        <path id="Trazado_140256" data-name="Trazado 140256" d="M1758.278,1889.8a9.358,9.358,0,0,0-.578,3.377,5.069,5.069,0,0,0,4.838,4.959l21.857,1a1.048,1.048,0,0,1,.968.787c.514,1.987,3.024,8.087,15.3,20.261a.99.99,0,0,0,1.224.133l1.747-1.1a.4.4,0,0,0,.132-.543l-12.726-21.732a4.93,4.93,0,0,0-2.993-2.219l-18.628-4.762Z" transform="translate(-1757.699 -1845.173)" fill="url(#linear-gradient-43)"/>
        <path id="Trazado_140257" data-name="Trazado 140257" d="M1782.816,1850a27.52,27.52,0,0,1-4.729,6.146l4.935,2.753s1.111-4.383,3.651-5.666Z" transform="translate(-1760.697 -1839.319)" fill="#fcd898"/>
        <path id="Trazado_140258" data-name="Trazado 140258" d="M1757.912,1885.042a27.052,27.052,0,0,0,11.533,0s7.88-10.594,10.93-13.477a21.686,21.686,0,0,0,15.688,8.761l.6-1.349s-8.618-3.973-11.271-10.077-3.719-8.708-6.133-10.3c-1.5-.992-2.4-1.669-2.868-2.039a.77.77,0,0,0-.884-.056C1772.95,1858.066,1760.9,1866.321,1757.912,1885.042Z" transform="translate(-1757.73 -1840.259)" fill="url(#linear-gradient-44)"/>
        <path id="Trazado_140259" data-name="Trazado 140259" d="M1783.291,1873.052a.461.461,0,0,1-.367-.181,23.683,23.683,0,0,1-2.981-5.285.462.462,0,0,1,.862-.331,23.115,23.115,0,0,0,2.851,5.055.461.461,0,0,1-.366.742Z" transform="translate(-1760.966 -1841.813)" fill="#f2bd4a"/>
        <path id="Trazado_140260" data-name="Trazado 140260" d="M1801.878,1881.835l1.219-.325,3.7-.856a1.714,1.714,0,0,1,1.3.219l3.181,2-8.784-.015Z" transform="translate(-1764.196 -1843.821)" fill="#fcd898"/>
        <g id="Grupo_86642" data-name="Grupo 86642" transform="translate(16.031)">
          <path id="Trazado_140261" data-name="Trazado 140261" d="M1786.848,1842.723s2.276,3.783,2.671,5.873,1.029,3.4-1.351,4.142a5.221,5.221,0,0,1-5.978-2.149s-2.167-3-1.951-4.378S1786.848,1842.723,1786.848,1842.723Z" transform="translate(-1777.042 -1838.249)" fill="url(#linear-gradient-45)"/>
          <path id="Trazado_140262" data-name="Trazado 140262" d="M1782.274,1848.2l.307-.04s-1.611-2.435-.556-3.039,5.35-2.085,6.1-3.778a2.938,2.938,0,0,0-1.654-3.859.165.165,0,0,0-.2.1l-.077.2a.166.166,0,0,1-.309.009h0a.167.167,0,0,0-.3-.007c-.229.508-.918,1.373-2.985,2.043-2.932.95-4.758,2.428-4.532,4.511a.168.168,0,0,1-.239.17c-.24-.106-.6-.123-1.024.339-.734.8-.16,2.558,1.845,3.8a.166.166,0,0,1,.027.266c-.3.257-.722.829.635,1.339a3.4,3.4,0,0,0,2.423.233.167.167,0,0,0,.1-.188l-.355-1.825a.166.166,0,0,1,.142-.2Z" transform="translate(-1776.494 -1837.478)" fill="url(#linear-gradient-46)"/>
          <path id="Trazado_140263" data-name="Trazado 140263" d="M1783.013,1850.179s-1-2.475-2.059-1.605.975,2.793,1.911,2.768Z" transform="translate(-1777.106 -1839.082)" fill="url(#linear-gradient-45)"/>
        </g>
      </g>
      <g id="Grupo_86646" data-name="Grupo 86646" transform="translate(35.851 21.949)">
        <g id="Grupo_86644" data-name="Grupo 86644" transform="translate(0 17.131)">
          <path id="Trazado_140264" data-name="Trazado 140264" d="M1797.761,1884.992a.369.369,0,0,0,.043,0l18.766-.019a.838.838,0,1,0,0-1.677l-18.766.019a.839.839,0,0,0-.041,1.676Z" transform="translate(-1796.964 -1883.297)" fill="url(#linear-gradient-48)"/>
        </g>
        <g id="Grupo_86645" data-name="Grupo 86645" transform="translate(18.881)">
          <path id="Trazado_140265" data-name="Trazado 140265" d="M1827.094,1863.66c-.007.013-.013.026-.019.039l-7.9,17.024a.839.839,0,1,0,1.522.705l7.9-17.024a.839.839,0,0,0-1.5-.745Z" transform="translate(-1819.1 -1863.212)" fill="url(#linear-gradient-49)"/>
        </g>
      </g>
      <g id="Grupo_86647" data-name="Grupo 86647" transform="translate(31.585 40.285)">
        <path id="Trazado_140266" data-name="Trazado 140266" d="M1805.981,1886.938c-.082.339-7.913,29.707-9.9,37.152a1.346,1.346,0,0,0,1.288,1.7h0a1.338,1.338,0,0,0,1.295-1.024l8.692-35.243Z" transform="translate(-1792.562 -1885.037)" fill="url(#linear-gradient-50)"/>
        <path id="Trazado_140267" data-name="Trazado 140267" d="M1812.485,1886.938c.082.339,7.913,29.707,9.9,37.152a1.346,1.346,0,0,1-1.288,1.7h0a1.338,1.338,0,0,1-1.295-1.024l-8.692-35.243Z" transform="translate(-1794.778 -1885.037)" fill="url(#linear-gradient-51)"/>
        <path id="Trazado_140268" data-name="Trazado 140268" d="M1812.265,1885.812h-4.877v3.917a1.014,1.014,0,0,0,1.007,1.019h.669v8.8a.767.767,0,0,0,.762.772h0a.768.768,0,0,0,.763-.772v-8.8h.339a1.345,1.345,0,0,0,1.337-1.353Z" transform="translate(-1794.231 -1884.871)" fill="url(#linear-gradient-52)"/>
        <path id="Trazado_140269" data-name="Trazado 140269" d="M1793.128,1884.709h27.231a.837.837,0,0,1,.808.634l.38,1.491a.842.842,0,0,1-.813,1.055l-27.941-.162a.842.842,0,0,1-.8-1.051l.331-1.329A.835.835,0,0,1,1793.128,1884.709Z" transform="translate(-1791.963 -1884.709)" fill="url(#linear-gradient-53)"/>
      </g>
    </g>
  </g>
</svg>
