<svg xmlns="http://www.w3.org/2000/svg" width="78.893" height="34.849" viewBox="0 0 78.893 34.849">
  <g id="Grupo_98477" data-name="Grupo 98477" transform="translate(-1502.522 -272.303)">
    <g id="Grupo_98476" data-name="Grupo 98476" transform="translate(-5.368 20.769)">
      <g id="Grupo_84065" data-name="Grupo 84065" transform="translate(1507.891 251.534)">
        <g id="Grupo_84064" data-name="Grupo 84064">
          <g id="Grupo_84061" data-name="Grupo 84061">
            <rect id="Rectángulo_32349" data-name="Rectángulo 32349" width="78.893" height="24.978" rx="1.741" fill="#f05948"/>
            <path id="Trazado_147528" data-name="Trazado 147528" d="M397.679,228.608s-2.21,15.778-2.212,14.812,11.165-13.48,11.165-13.48Z" transform="translate(-389.747 -208.614)" fill="#f05948"/>
          </g>
          <g id="Grupo_84063" data-name="Grupo 84063" transform="translate(3.373 5.486)">
            <g id="Grupo_84062" data-name="Grupo 84062">
              <path id="Trazado_147529" data-name="Trazado 147529" d="M449.6,219.9l-4.226.678,3.108,2.942-.662,4.229,3.759-2.047,3.817,1.936-.785-4.208,3.021-3.032-4.244-.553-1.95-3.81Z" transform="translate(-385.46 -216.031)" fill="#fff0b0"/>
              <path id="Trazado_147530" data-name="Trazado 147530" d="M436.615,219.9l-4.226.678,3.109,2.942-.662,4.229,3.759-2.047,3.817,1.936-.785-4.208,3.021-3.032-4.244-.553-1.95-3.81Z" transform="translate(-387.453 -216.031)" fill="#fff0b0"/>
              <path id="Trazado_147531" data-name="Trazado 147531" d="M423.63,219.9l-4.226.678,3.108,2.942-.662,4.229,3.759-2.047,3.817,1.936-.785-4.208,3.021-3.032-4.244-.553-1.95-3.81Z" transform="translate(-389.447 -216.031)" fill="#fff0b0"/>
              <path id="Trazado_147532" data-name="Trazado 147532" d="M409.532,223.514l-.67,4.225,3.619-1.958.142-.077,3.812,1.932-.773-4.212,3.014-3.027-4.238-.554-1.958-3.812-1.842,3.864-4.225.683Z" transform="translate(-391.44 -216.031)" fill="#fff0b0"/>
              <path id="Trazado_147533" data-name="Trazado 147533" d="M397.659,219.9l-4.226.678,3.109,2.942-.662,4.229,3.759-2.047,3.817,1.936-.785-4.208,3.021-3.032-4.244-.553-1.95-3.81Z" transform="translate(-393.433 -216.031)" fill="#fff0b0"/>
            </g>
          </g>
        </g>
      </g>
    </g>
  </g>
</svg>
